# https://github.com/mikedh/trimesh
v 0.01918559 0.49962699 0.12357274
v -0.00088097 0.49864888 0.18075483
v 0.09641738 0.49033481 0.12409257
v 0.08114722 0.48740041 0.04062157
v -0.03993735 0.49434513 0.05005290
v -0.05687157 0.49747512 0.12364700
v 0.04453798 0.46940291 0.29571313
v 0.13048160 0.47634760 0.21439573
v -0.11912686 0.48466167 0.16746186
v -0.04346124 0.48495510 0.24580875
v 0.16836335 0.46940291 0.07923805
v 0.08692247 0.47468477 -0.00891150
v -0.00097886 0.47849947 -0.02628891
v -0.09622161 0.45678505 -0.06290030
v -0.13136257 0.47468477 0.03445778
v -0.17041895 0.46930510 0.07923805
v 0.04982381 0.44719943 0.34428078
v 0.09661315 0.45424193 0.30878332
v -0.05197729 0.44807974 0.34465209
v 0.15123336 0.43458161 0.32111087
v 0.19635865 0.43379909 0.27491963
v 0.22161315 0.44661254 0.17251170
v -0.22347298 0.44612348 0.17251170
v -0.18568912 0.45629600 0.22137640
v -0.09906030 0.45551351 0.30908036
v 0.19459671 0.43702692 -0.02487792
v 0.27535239 0.41560593 0.07552493
v 0.09690681 0.42998439 -0.11815158
v -0.00107674 0.43282098 -0.13129604
v -0.10307361 0.39095715 -0.17295727
v -0.15416993 0.40161872 -0.13092472
v -0.20565780 0.40670499 -0.08257986
v -0.19655442 0.43624440 -0.02458088
v -0.27740797 0.41560593 0.07552493
v 0.10454190 0.43135378 0.35764802
v -0.00097886 0.43086472 0.37933266
v -0.10669538 0.43135378 0.35764802
v 0.16190290 0.40778092 0.37049541
v 0.20859437 0.40602031 0.32838860
v 0.25420907 0.40220562 0.28026652
v 0.32693812 0.37520933 0.17570499
v -0.27760375 0.41462782 0.17362563
v -0.25597101 0.40161872 0.28011802
v -0.21113940 0.40670499 0.32861140
v -0.15319107 0.43419033 0.32088810
v 0.25156617 0.40171656 -0.03022482
v 0.20330854 0.40621594 -0.08235707
v 0.35356304 0.35417959 0.12520652
v 0.32566562 0.37344870 0.07567345
v 0.34426391 0.34488741 0.02198169
v 0.30814409 0.35965711 -0.03341811
v 0.10082224 0.39046809 -0.17258596
v -0.00097886 0.39692372 -0.18439369
v 0.21055208 0.36767775 -0.14191556
v 0.15602976 0.35887462 -0.18699288
v -0.10287784 0.34586552 -0.22449543
v -0.15808536 0.35887462 -0.18699288
v -0.21231402 0.36699307 -0.14146999
v -0.26448709 0.36640617 -0.08963479
v -0.25371966 0.40171656 -0.03022482
v -0.31029758 0.35965711 -0.03341811
v -0.32830852 0.37413338 0.07559919
v 0.05295615 0.41648626 0.37777314
v -0.16405638 0.40778092 0.37049541
v -0.05510963 0.41648626 0.37777314
v 0.21945967 0.37247056 0.37198067
v 0.26664057 0.36924276 0.33158189
v 0.30785042 0.35936368 0.28353408
v 0.34387237 0.34518084 0.22939675
v 0.37451059 0.32855269 0.17555647
v -0.32772121 0.37344870 0.17540793
v -0.34602585 0.34518084 0.22939675
v -0.31059122 0.36014616 0.28383112
v -0.26879406 0.36924276 0.33158189
v -0.22161315 0.37247056 0.37198067
v 0.26233360 0.36640617 -0.08963479
v 0.44714174 0.22330627 0.07938657
v 0.38997650 0.29431826 0.02220448
v 0.35787001 0.30820766 -0.03378942
v 0.31763899 0.31857580 -0.09089725
v 0.10082224 0.34586552 -0.22449543
v 0.04776821 0.32737893 -0.25308648
v -0.00097886 0.35261461 -0.23162462
v -0.04992169 0.32679206 -0.25234383
v 0.26801097 0.32199925 -0.14733672
v 0.21231402 0.31857580 -0.19724110
v 0.15505090 0.30859891 -0.23793693
v -0.10033281 0.29343796 -0.26964700
v -0.15720439 0.30859891 -0.23793693
v -0.21446750 0.31857580 -0.19724110
v -0.27016446 0.32199925 -0.14733672
v -0.31969461 0.31857580 -0.09089725
v -0.36070868 0.30879453 -0.03401221
v -0.34631950 0.34488741 0.02198169
v -0.37519577 0.32708549 0.07574771
v -0.35356304 0.35251677 0.12535504
v -0.18363352 0.01349815 0.32853714
v 0.09524275 -0.21450314 0.30054018
v 0.34553641 -0.20374374 0.30172837
v -0.34759203 -0.20393938 0.30172837
v 0.26223570 0.26996291 0.35913327
v 0.27212217 0.32552049 0.36522278
v 0.32106501 0.32366204 0.33210173
v 0.39506656 -0.20716719 0.30091149
v 0.35767424 0.30996829 0.28331128
v 0.40074393 0.25666040 0.28071210
v 0.44547769 0.22232816 0.17518514
v -0.37539154 0.32777017 0.17548220
v -0.35982773 0.30996829 0.28331128
v -0.32321849 0.32366204 0.33210173
v -0.27417776 0.32552049 0.36485147
v -0.26429132 0.26986510 0.35913327
v -0.29238451 0.16481431 0.34636012
v -0.39722005 -0.20716719 0.30091149
v 0.48424041 0.11884237 0.17176907
v 0.48267424 0.11923362 0.08510478
v 0.45898589 0.14065459 -0.01589217
v 0.40162489 0.25294352 -0.02977925
v 0.36599451 0.26301822 -0.08844659
v 0.32057557 0.26927823 -0.14726245
v 0.09837510 0.29422045 -0.27083519
v 0.04610415 0.22242597 -0.32608646
v -0.04913861 0.27602729 -0.29422787
v 0.26820675 0.26927823 -0.20013733
v 0.21084574 0.26340947 -0.24514039
v 0.15201645 0.25284570 -0.28123194
v -0.15436570 0.25313914 -0.28175178
v -0.21299922 0.26340947 -0.24514039
v -0.27026233 0.26927823 -0.20013733
v -0.32272905 0.26927823 -0.14726245
v -0.36814800 0.26301822 -0.08844659
v -0.40446359 0.25323695 -0.02992777
v -0.41689506 0.27641854 0.07619329
v -0.00107674 -0.44915569 0.27150357
v 0.35375881 -0.25773633 0.29482198
v -0.35601017 -0.25773633 0.29489625
v 0.43177369 -0.15532649 0.30492166
v 0.35982773 0.21949159 0.34947914
v 0.36863744 0.27162573 0.32890844
v 0.31205952 -0.36102650 0.28071210
v 0.36090446 -0.31221798 0.28516784
v 0.40740016 0.21557908 0.32237336
v 0.43206733 0.19983125 0.27558801
v 0.45732185 0.14486054 0.26793897
v -0.41620988 0.27622291 0.17577925
v -0.37069303 0.27162573 0.32883418
v -0.40270165 0.25666040 0.28063783
v -0.32096711 0.27367979 0.35705391
v -0.43392718 -0.15532649 0.30492166
v -0.36305794 -0.31221798 0.28516784
v -0.31421301 -0.36102650 0.28071210
v 0.47298357 0.04900414 0.28732148
v 0.49647611 -0.00019563 0.18706714
v 0.49588880 0.05516633 0.12869684
v 0.48443618 0.04245069 0.00935707
v 0.46789351 0.04528726 -0.04270092
v 0.42795613 0.09976890 -0.11659206
v 0.40426782 0.20589562 -0.08272838
v 0.36658183 0.21137314 -0.14132147
v 0.31763899 0.21323158 -0.19672126
v 0.09377448 0.18408340 -0.33470091
v 0.04101409 0.11942925 -0.36344048
v -0.04825763 0.22213252 -0.32608646
v 0.26203993 0.21196000 -0.24514039
v 0.20507048 0.20618907 -0.28442523
v -0.14193422 0.14075240 -0.33930519
v -0.20683242 0.20589562 -0.28360835
v -0.26419342 0.21196000 -0.24514039
v -0.31979248 0.21323158 -0.19672126
v -0.36805013 0.21107970 -0.14087589
v -0.40593186 0.20570000 -0.08250559
v -0.46182460 0.14094803 -0.01618922
v -0.47122163 0.16980276 0.08116887
v -0.15475725 -0.42039877 0.27454832
v -0.14966719 -0.46196914 0.26845881
v -0.00097886 -0.47282633 0.26764190
v 0.04776821 -0.46324071 0.26875585
v 0.14722005 -0.46138227 0.26801321
v 0.20193814 -0.43477723 0.27135503
v 0.25910336 -0.35085398 0.28316277
v -0.26076743 -0.40279248 0.27573651
v 0.44332421 -0.04978664 0.31502137
v 0.45095930 0.05409040 0.32556662
v 0.42443228 0.10866985 0.33358699
v 0.40231010 -0.25822538 0.28071210
v 0.46035630 -0.10113828 0.30157986
v 0.29522318 -0.39125058 0.23667446
v 0.34465545 -0.34566990 0.23726857
v 0.25841817 -0.40230343 0.27543947
v 0.38870400 -0.29510075 0.23585758
v 0.43666798 0.15806524 0.31323907
v 0.45722395 0.10182296 0.30113429
v -0.47053641 0.16960713 0.17288300
v -0.43568912 0.20051593 0.27603358
v -0.40955365 0.21557908 0.32244760
v -0.39663273 0.16403180 0.34138453
v -0.45311275 0.05409040 0.32556662
v -0.44547769 -0.04978664 0.31502137
v -0.46250978 -0.10113828 0.30157986
v -0.40436569 -0.25822538 0.28071210
v -0.34768990 -0.34645239 0.23741709
v -0.39154267 -0.29558983 0.23600610
v -0.29659358 -0.39007685 0.23645167
v 0.47954190 0.00000000 0.26845881
v 0.46730620 0.00048906 0.31093693
v 0.48570868 -0.08323856 0.21409868
v 0.50000000 -0.02063847 0.12943947
v 0.48335943 -0.04254850 0.00928281
v 0.46603367 -0.04479819 -0.04262665
v 0.44616288 -0.04655882 -0.09795219
v 0.41317540 0.04812382 -0.15238658
v 0.38889977 0.10143171 -0.17087792
v 0.35777211 0.15679367 -0.18625025
v 0.30726311 0.15610899 -0.23756562
v 0.13978073 0.14055678 -0.33863682
v 0.08114722 0.08206481 -0.36581689
v -0.00107674 0.05565540 -0.37643641
v -0.04326547 0.11933143 -0.36314344
v 0.25195771 0.15356585 -0.28152898
v -0.11922474 0.04245069 -0.36410886
v -0.22386453 0.04704788 -0.32526958
v -0.25411120 0.15356585 -0.28138047
v -0.30941659 0.15610899 -0.23756562
v -0.35992560 0.15679367 -0.18625025
v -0.40319106 0.15337023 -0.13025635
v -0.47053641 0.04538507 -0.04284944
v -0.49608457 0.03814693 0.05554832
v -0.42785826 0.09908421 -0.11532960
v -0.49177760 0.09947547 0.12854832
v -0.24314800 -0.42724565 0.23414955
v -0.17061472 -0.46979415 0.18424517
v -0.13557166 -0.47497821 0.22464395
v -0.09583007 -0.47849947 0.25776500
v -0.04581049 -0.48681355 0.24929908
v 0.04375489 -0.48691136 0.24929908
v 0.09367659 -0.47849947 0.25776500
v 0.18686375 -0.45600256 0.22999084
v 0.41317540 -0.27651635 0.18379959
v 0.42492169 -0.24032567 0.23340692
v 0.43422082 -0.20168968 0.27462259
v 0.45741972 -0.14574085 0.26660225
v 0.47327721 -0.09262858 0.25724515
v 0.47161317 -0.04822164 0.28628179
v 0.30364135 -0.39653248 0.13656867
v 0.32635081 -0.37423119 0.18677010
v 0.25156617 -0.43370128 0.13731129
v 0.37216133 -0.32688987 0.18639877
v -0.47719264 0.09253076 0.25731942
v -0.43882146 0.15806524 0.31331334
v -0.42648786 0.10866985 0.33328992
v -0.46006265 0.10192078 0.30135706
v -0.46955755 0.00048906 0.31101120
v -0.45957321 -0.14574085 0.26660225
v -0.43627644 -0.20168968 0.27462259
v -0.47376665 -0.04822164 0.28628179
v -0.47650743 -0.09282421 0.25754222
v -0.42776036 -0.24061911 0.23348118
v -0.35336727 -0.35281023 0.13560325
v -0.32781911 -0.37354651 0.18677010
v -0.39692640 -0.30517545 0.13500915
v -0.43314409 -0.25265008 0.13367243
v -0.27691856 -0.41511688 0.18743846
v 0.48884103 -0.09761702 0.13114750
v 0.46838292 -0.16960713 0.17941810
v 0.48492560 -0.08226044 0.04641404
v 0.45908380 -0.14104584 -0.01321872
v 0.40162489 -0.15366367 -0.12765718
v 0.38889977 -0.10192078 -0.16931841
v 0.37372750 -0.04880851 -0.20437029
v 0.37225920 0.04841726 -0.20429604
v 0.34416601 0.10094266 -0.22308443
v 0.29248238 0.09918202 -0.26890439
v 0.22171104 0.04714570 -0.32519531
v 0.16748238 0.04538507 -0.34680569
v 0.09651527 0.00000000 -0.36945575
v 0.01908771 -0.00039125 -0.37933266
v -0.05657792 0.00000000 -0.37517396
v -0.22337510 -0.04743914 -0.32504681
v -0.11883321 -0.04235288 -0.36284637
v -0.27770165 -0.04841726 -0.29348525
v -0.32811275 0.04939539 -0.25189826
v -0.29541895 0.09927984 -0.26994404
v -0.34631950 0.10094266 -0.22308443
v -0.39183635 0.10152953 -0.17162055
v -0.47092795 -0.04499382 -0.04366633
v -0.41660142 0.04822164 -0.15290640
v -0.49530149 -0.03912506 0.05569685
v -0.50000000 -0.00019563 0.18699288
v -0.17041895 -0.46998978 0.09112004
v -0.10033281 -0.49023700 0.13857375
v -0.27750587 -0.41619283 0.08584741
v -0.03974158 -0.49502981 0.21083114
v 0.05452232 -0.49786639 0.13842523
v 0.08300705 -0.48788950 0.21766327
v 0.14702427 -0.47820604 0.13820244
v 0.37353173 -0.32816145 0.08458494
v 0.41454580 -0.27661416 0.08406511
v 0.45281911 -0.18564841 0.22850560
v 0.29267815 -0.39076152 0.03059613
v 0.34445968 -0.34635457 0.02985351
v 0.23835160 -0.42988658 0.03527467
v -0.48208693 0.00000000 0.26868159
v -0.45585355 -0.18594185 0.22865412
v -0.49549726 -0.07208792 0.17028382
v -0.32811275 -0.37452462 0.08517905
v -0.37441269 -0.32698768 0.08465920
v -0.39222789 -0.29422045 0.03156155
v -0.43030539 -0.24013005 0.03178433
v -0.46016052 -0.19885312 0.13292980
v 0.46799138 -0.16950932 0.08651577
v 0.42766249 -0.24003224 0.03178433
v 0.40554032 -0.20481968 -0.07753001
v 0.36599451 -0.21147095 -0.13738555
v 0.35787001 -0.15728274 -0.18387386
v 0.34416601 -0.10192078 -0.22159919
v 0.32556775 -0.04910195 -0.25085860
v 0.35150743 -0.00009781 -0.22991659
v 0.32635081 0.04949320 -0.25256664
v 0.16865700 -0.04479819 -0.34843946
v 0.27525452 -0.04861289 -0.29355952
v 0.08095145 -0.08216263 -0.36448017
v 0.04130775 -0.11815768 -0.36284637
v -0.03993735 -0.07296824 -0.37257478
v -0.25440484 -0.15346804 -0.27982095
v -0.14212999 -0.14124146 -0.33856255
v -0.31019968 -0.15659805 -0.23615463
v -0.34631950 -0.10192078 -0.22159919
v -0.32772121 -0.04910195 -0.25085860
v -0.35483554 0.00000000 -0.23088199
v -0.47631165 -0.13087332 0.04032452
v -0.41660142 -0.04910195 -0.15223804
v -0.43745106 -0.14838178 -0.06928688
v -0.47963977 -0.14652334 0.13211292
v -0.19665231 -0.43624440 -0.01626348
v -0.08956539 -0.47517383 0.00215361
v -0.03944793 -0.49473637 0.06304883
v -0.02104542 -0.49962699 0.13783112
v -0.34592795 -0.34557208 0.03000204
v -0.30980814 -0.35975492 -0.02703154
v -0.25352389 -0.40200999 -0.02213021
v 0.03709867 -0.49356261 0.06319735
v 0.13057949 -0.47624978 0.04619125
v 0.35845733 -0.30947921 -0.02680875
v 0.30716524 -0.35926586 -0.02680875
v 0.26252937 -0.36806899 -0.08280265
v 0.14790525 -0.43595096 -0.06653917
v 0.20321065 -0.40650937 -0.07485656
v -0.36002350 -0.30889234 -0.02658596
v -0.40730226 -0.20462406 -0.07738148
v -0.36824590 -0.26409414 -0.08465920
v 0.36619028 -0.26419196 -0.08465920
v 0.32096711 -0.26927823 -0.14295524
v 0.31754112 -0.21362282 -0.19389929
v 0.30814409 -0.15650024 -0.23608036
v 0.25254503 -0.15356585 -0.28056359
v 0.13987862 -0.14124146 -0.33811697
v 0.04532107 -0.22340409 -0.32467547
v -0.04590838 -0.16960713 -0.34665716
v -0.20702820 -0.20599344 -0.28152898
v -0.26458496 -0.21205781 -0.24246694
v -0.15465936 -0.25294352 -0.27878129
v -0.09866875 -0.23964098 -0.30596134
v -0.31969461 -0.21362282 -0.19389929
v -0.36070868 -0.15747836 -0.18446796
v -0.37519577 -0.04880851 -0.20385046
v -0.40279952 -0.15327242 -0.12713733
v -0.20536414 -0.40650937 -0.07485656
v -0.14976507 -0.43526629 -0.06631638
v -0.04541895 -0.46989197 -0.03824517
v 0.04326547 -0.46979415 -0.03809664
v -0.31959671 -0.31886923 -0.08525331
v -0.26409554 -0.36728650 -0.08243133
v 0.31754112 -0.31886923 -0.08525331
v 0.21045420 -0.36689523 -0.13604882
v 0.26830462 -0.32180360 -0.14265819
v 0.04737666 -0.41658407 -0.14904477
v 0.15172279 -0.40200999 -0.12453815
v -0.36805013 -0.21147095 -0.13738555
v -0.32312059 -0.26927823 -0.14295524
v 0.26830462 -0.26937604 -0.19664700
v 0.26252937 -0.21205781 -0.24246694
v 0.20487471 -0.20599344 -0.28152898
v 0.15270165 -0.25313914 -0.27915260
v 0.10062647 -0.29392701 -0.26637945
v -0.00107674 -0.30537108 -0.27276602
v -0.21319498 -0.26331165 -0.24231841
v -0.27045810 -0.26937604 -0.19664700
v -0.10268207 -0.29373139 -0.26600814
v -0.15740016 -0.30850109 -0.23452085
v -0.15387627 -0.40200999 -0.12453815
v -0.21260768 -0.36689523 -0.13604882
v -0.04953015 -0.41599721 -0.14867344
v -0.27045810 -0.32180360 -0.14265819
v 0.21231402 -0.31886923 -0.19300814
v 0.15612765 -0.35965711 -0.18268566
v 0.04747455 -0.37354651 -0.20102848
v 0.10043070 -0.34537646 -0.21989115
v -0.04972592 -0.37403557 -0.20139980
v -0.00097886 -0.35281023 -0.22731739
v 0.21104151 -0.26331165 -0.24231841
v 0.15524668 -0.30850109 -0.23452085
v 0.04776821 -0.32679206 -0.24892777
v -0.04992169 -0.32679206 -0.24892777
v -0.21436961 -0.31886923 -0.19300814
v -0.10258418 -0.34537646 -0.21989115
v -0.15828113 -0.35975492 -0.18275991
f 1 2 3
f 1 3 4
f 1 4 5
f 1 5 6
f 1 6 2
f 2 7 8
f 2 8 3
f 2 6 9
f 2 9 10
f 2 10 7
f 3 8 11
f 3 11 4
f 4 11 12
f 4 12 13
f 4 13 5
f 5 14 15
f 5 15 6
f 5 13 14
f 6 15 16
f 6 16 9
f 7 17 18
f 7 18 8
f 7 10 19
f 7 19 17
f 8 20 21
f 8 21 22
f 8 22 11
f 8 18 20
f 9 16 23
f 9 23 24
f 9 24 10
f 10 24 25
f 10 25 19
f 11 26 12
f 11 22 27
f 11 27 26
f 12 28 13
f 12 26 28
f 13 28 29
f 13 29 14
f 14 29 30
f 14 30 31
f 14 31 32
f 14 32 33
f 14 33 15
f 15 33 16
f 16 33 34
f 16 34 23
f 17 35 18
f 17 19 36
f 17 36 35
f 18 35 20
f 19 25 37
f 19 37 36
f 20 38 39
f 20 39 21
f 20 35 38
f 21 39 40
f 21 40 22
f 22 40 41
f 22 41 27
f 23 34 42
f 23 42 24
f 24 42 43
f 24 43 44
f 24 44 45
f 24 45 25
f 25 45 37
f 26 27 46
f 26 46 47
f 26 47 28
f 27 41 48
f 27 48 49
f 27 49 50
f 27 50 51
f 27 51 46
f 28 52 53
f 28 53 29
f 28 47 54
f 28 54 55
f 28 55 52
f 29 53 30
f 30 56 57
f 30 57 31
f 30 53 56
f 31 57 58
f 31 58 32
f 32 58 59
f 32 59 60
f 32 60 33
f 33 60 34
f 34 61 62
f 34 62 42
f 34 60 61
f 35 36 38
f 36 63 38
f 36 37 64
f 36 64 65
f 36 65 63
f 37 45 64
f 38 66 39
f 38 63 66
f 39 66 67
f 39 67 40
f 40 67 68
f 40 68 41
f 41 68 69
f 41 69 70
f 41 70 48
f 42 62 71
f 42 71 72
f 42 72 73
f 42 73 43
f 43 74 44
f 43 73 74
f 44 74 75
f 44 75 64
f 44 64 45
f 46 76 47
f 46 51 76
f 47 76 54
f 48 50 49
f 48 70 77
f 48 77 78
f 48 78 50
f 50 78 79
f 50 79 51
f 51 79 80
f 51 80 76
f 52 81 53
f 52 55 81
f 53 81 82
f 53 82 83
f 53 83 84
f 53 84 56
f 54 76 85
f 54 85 86
f 54 86 55
f 55 86 87
f 55 87 81
f 56 84 88
f 56 88 89
f 56 89 57
f 57 89 90
f 57 90 58
f 58 90 91
f 58 91 59
f 59 91 92
f 59 92 61
f 59 61 60
f 61 92 93
f 61 93 94
f 61 94 62
f 62 94 95
f 62 95 96
f 62 96 71
f 63 65 97
f 63 97 98
f 63 98 99
f 63 99 66
f 64 75 65
f 65 75 100
f 65 100 97
f 66 101 102
f 66 102 103
f 66 103 67
f 66 99 104
f 66 104 101
f 67 103 68
f 68 103 105
f 68 105 69
f 69 105 70
f 70 105 106
f 70 106 107
f 70 107 77
f 71 96 108
f 71 108 72
f 72 109 73
f 72 108 109
f 73 109 110
f 73 110 74
f 74 110 75
f 75 110 111
f 75 111 112
f 75 112 113
f 75 113 114
f 75 114 100
f 76 80 85
f 77 115 116
f 77 116 117
f 77 117 118
f 77 118 78
f 77 107 115
f 78 118 79
f 79 119 80
f 79 118 119
f 80 120 85
f 80 119 120
f 81 121 82
f 81 87 121
f 82 122 123
f 82 123 84
f 82 84 83
f 82 121 122
f 84 123 88
f 85 124 86
f 85 120 124
f 86 124 125
f 86 125 87
f 87 125 126
f 87 126 121
f 88 123 127
f 88 127 89
f 89 127 128
f 89 128 90
f 90 128 129
f 90 129 91
f 91 129 130
f 91 130 92
f 92 130 131
f 92 131 93
f 93 131 132
f 93 132 133
f 93 133 94
f 94 133 95
f 95 133 108
f 95 108 96
f 97 100 98
f 98 100 134
f 98 134 99
f 99 135 104
f 99 134 135
f 100 114 136
f 100 136 134
f 101 104 102
f 102 104 137
f 102 137 138
f 102 138 139
f 102 139 103
f 103 139 105
f 104 135 140
f 104 140 141
f 104 141 137
f 105 139 106
f 106 142 143
f 106 143 107
f 106 139 142
f 107 143 144
f 107 144 115
f 108 133 145
f 108 145 109
f 109 146 110
f 109 145 147
f 109 147 146
f 110 146 111
f 111 146 148
f 111 148 114
f 111 114 112
f 112 114 113
f 114 149 150
f 114 150 151
f 114 151 136
f 114 148 149
f 115 144 152
f 115 152 153
f 115 153 154
f 115 154 116
f 116 154 155
f 116 155 117
f 117 155 156
f 117 156 157
f 117 157 158
f 117 158 118
f 118 158 119
f 119 159 120
f 119 158 159
f 120 159 160
f 120 160 124
f 121 126 122
f 122 126 161
f 122 161 162
f 122 162 163
f 122 163 123
f 123 163 127
f 124 164 125
f 124 160 164
f 125 165 126
f 125 164 165
f 126 165 161
f 127 166 167
f 127 167 128
f 127 163 166
f 128 167 168
f 128 168 129
f 129 169 130
f 129 168 169
f 130 169 170
f 130 170 131
f 131 170 171
f 131 171 132
f 132 171 172
f 132 172 173
f 132 173 133
f 133 173 145
f 134 136 174
f 134 174 175
f 134 175 176
f 134 176 177
f 134 177 178
f 134 178 179
f 134 179 180
f 134 180 135
f 135 180 140
f 136 151 181
f 136 181 174
f 137 182 183
f 137 183 184
f 137 184 138
f 137 141 185
f 137 185 186
f 137 186 182
f 138 184 142
f 138 142 139
f 140 187 188
f 140 188 141
f 140 180 189
f 140 189 187
f 141 188 190
f 141 190 185
f 142 184 191
f 142 191 143
f 143 191 144
f 144 192 152
f 144 191 192
f 145 173 193
f 145 193 194
f 145 194 147
f 146 147 195
f 146 195 148
f 147 194 195
f 148 195 196
f 148 196 149
f 149 196 197
f 149 197 198
f 149 198 199
f 149 199 200
f 149 200 150
f 150 201 151
f 150 200 202
f 150 202 201
f 151 201 203
f 151 203 181
f 152 204 153
f 152 192 205
f 152 205 204
f 153 204 206
f 153 206 207
f 153 207 154
f 154 207 155
f 155 207 208
f 155 208 156
f 156 209 210
f 156 210 157
f 156 208 209
f 157 210 211
f 157 211 212
f 157 212 213
f 157 213 159
f 157 159 158
f 159 213 160
f 160 214 164
f 160 213 214
f 161 165 215
f 161 215 162
f 162 215 216
f 162 216 217
f 162 217 218
f 162 218 163
f 163 218 166
f 164 219 165
f 164 214 219
f 165 219 215
f 166 218 220
f 166 220 221
f 166 221 222
f 166 222 167
f 167 222 168
f 168 222 223
f 168 223 169
f 169 223 224
f 169 224 170
f 170 224 225
f 170 225 171
f 171 225 172
f 172 226 227
f 172 227 173
f 172 225 228
f 172 228 226
f 173 227 229
f 173 229 193
f 174 181 175
f 175 181 230
f 175 230 231
f 175 231 232
f 175 232 233
f 175 233 176
f 176 233 234
f 176 234 235
f 176 235 236
f 176 236 178
f 176 178 177
f 178 236 237
f 178 237 179
f 179 237 189
f 179 189 180
f 181 203 230
f 182 186 183
f 183 186 205
f 183 205 192
f 183 192 191
f 183 191 184
f 185 190 238
f 185 238 239
f 185 239 240
f 185 240 186
f 186 241 242
f 186 242 243
f 186 243 205
f 186 240 241
f 187 244 245
f 187 245 188
f 187 189 237
f 187 237 246
f 187 246 244
f 188 247 190
f 188 245 247
f 190 247 238
f 193 229 248
f 193 248 194
f 194 248 249
f 194 249 195
f 195 250 196
f 195 249 197
f 195 197 250
f 196 250 197
f 197 249 251
f 197 251 252
f 197 252 199
f 197 199 198
f 199 253 254
f 199 254 200
f 199 252 255
f 199 255 256
f 199 256 253
f 200 254 257
f 200 257 202
f 201 258 259
f 201 259 203
f 201 202 260
f 201 260 258
f 202 257 261
f 202 261 260
f 203 259 262
f 203 262 230
f 204 205 243
f 204 243 206
f 206 263 207
f 206 243 242
f 206 242 241
f 206 241 264
f 206 264 263
f 207 263 265
f 207 265 208
f 208 265 266
f 208 266 209
f 209 266 210
f 210 267 268
f 210 268 269
f 210 269 211
f 210 266 267
f 211 269 270
f 211 270 212
f 212 270 271
f 212 271 213
f 213 271 214
f 214 271 272
f 214 272 219
f 215 219 273
f 215 273 274
f 215 274 216
f 216 275 276
f 216 276 217
f 216 274 275
f 217 277 220
f 217 220 218
f 217 276 277
f 219 272 273
f 220 278 221
f 220 277 279
f 220 279 278
f 221 278 280
f 221 280 281
f 221 281 282
f 221 282 222
f 222 282 223
f 223 282 283
f 223 283 224
f 224 283 284
f 224 284 225
f 225 284 228
f 226 285 227
f 226 228 286
f 226 286 285
f 227 287 288
f 227 288 229
f 227 285 287
f 228 284 286
f 229 288 248
f 230 262 231
f 231 289 290
f 231 290 232
f 231 262 291
f 231 291 289
f 232 290 292
f 232 292 233
f 233 292 234
f 234 292 235
f 235 293 294
f 235 294 236
f 235 292 293
f 236 294 237
f 237 294 295
f 237 295 246
f 238 247 296
f 238 296 297
f 238 297 264
f 238 264 239
f 239 264 298
f 239 298 240
f 240 298 241
f 241 298 264
f 244 296 245
f 244 246 299
f 244 299 300
f 244 300 296
f 245 296 247
f 246 295 301
f 246 301 299
f 248 288 302
f 248 302 252
f 248 252 251
f 248 251 249
f 252 302 255
f 253 303 254
f 253 256 303
f 254 303 257
f 255 302 256
f 256 302 288
f 256 288 304
f 256 304 303
f 257 303 261
f 258 305 259
f 258 260 306
f 258 306 305
f 259 305 291
f 259 291 262
f 260 307 306
f 260 261 308
f 260 308 307
f 261 303 309
f 261 309 308
f 263 264 310
f 263 310 265
f 264 297 310
f 265 310 266
f 266 310 311
f 266 311 312
f 266 312 267
f 267 312 313
f 267 313 314
f 267 314 268
f 268 314 315
f 268 315 269
f 269 315 316
f 269 316 317
f 269 317 270
f 270 317 318
f 270 318 271
f 271 318 272
f 272 318 273
f 273 319 274
f 273 318 320
f 273 320 319
f 274 319 275
f 275 321 276
f 275 319 321
f 276 321 322
f 276 322 323
f 276 323 277
f 277 323 279
f 278 324 280
f 278 279 325
f 278 325 324
f 279 323 325
f 280 326 327
f 280 327 328
f 280 328 329
f 280 329 281
f 280 324 326
f 281 329 283
f 281 283 282
f 283 329 286
f 283 286 284
f 285 330 287
f 285 286 331
f 285 331 332
f 285 332 330
f 286 329 331
f 287 304 288
f 287 330 333
f 287 333 304
f 289 334 335
f 289 335 336
f 289 336 290
f 289 291 334
f 290 336 337
f 290 337 292
f 291 305 338
f 291 338 339
f 291 339 340
f 291 340 334
f 292 337 293
f 293 295 294
f 293 337 341
f 293 341 342
f 293 342 295
f 295 342 301
f 296 300 297
f 297 311 310
f 297 300 343
f 297 343 311
f 299 344 300
f 299 301 344
f 300 344 343
f 301 345 344
f 301 342 346
f 301 346 347
f 301 347 345
f 303 304 333
f 303 333 309
f 305 306 338
f 306 307 338
f 307 308 348
f 307 348 338
f 308 349 350
f 308 350 348
f 308 309 330
f 308 330 332
f 308 332 349
f 309 333 330
f 311 343 351
f 311 351 312
f 312 351 313
f 313 351 352
f 313 352 353
f 313 353 314
f 314 353 354
f 314 354 315
f 315 354 320
f 315 320 316
f 316 320 318
f 316 318 317
f 319 320 355
f 319 355 356
f 319 356 321
f 320 354 355
f 321 356 322
f 322 357 358
f 322 358 323
f 322 356 357
f 323 358 325
f 324 325 359
f 324 359 360
f 324 360 326
f 325 361 359
f 325 358 362
f 325 362 361
f 326 363 364
f 326 364 327
f 326 360 363
f 327 364 331
f 327 331 365
f 327 365 328
f 328 365 329
f 329 365 331
f 331 364 366
f 331 366 332
f 332 366 349
f 334 367 368
f 334 368 335
f 334 340 367
f 335 369 336
f 335 368 369
f 336 369 370
f 336 370 341
f 336 341 337
f 338 348 339
f 339 348 371
f 339 371 372
f 339 372 340
f 340 372 367
f 341 370 342
f 342 370 346
f 343 344 373
f 343 373 351
f 344 345 373
f 345 347 374
f 345 374 375
f 345 375 373
f 346 370 376
f 346 376 377
f 346 377 347
f 347 377 374
f 348 350 371
f 349 366 378
f 349 378 350
f 350 378 379
f 350 379 371
f 351 373 352
f 352 373 375
f 352 375 380
f 352 380 353
f 353 380 381
f 353 381 354
f 354 381 355
f 355 381 382
f 355 382 356
f 356 382 383
f 356 383 357
f 357 383 384
f 357 384 385
f 357 385 362
f 357 362 358
f 359 386 360
f 359 361 386
f 360 386 387
f 360 387 363
f 361 362 388
f 361 388 389
f 361 389 386
f 362 385 388
f 363 387 379
f 363 379 378
f 363 378 364
f 364 378 366
f 367 390 368
f 367 372 391
f 367 391 390
f 368 390 392
f 368 392 369
f 369 392 376
f 369 376 370
f 371 379 393
f 371 393 372
f 372 393 391
f 374 394 375
f 374 377 395
f 374 395 394
f 375 394 380
f 376 396 397
f 376 397 395
f 376 395 377
f 376 392 398
f 376 398 399
f 376 399 396
f 379 387 393
f 380 394 400
f 380 400 381
f 381 400 382
f 382 400 383
f 383 401 384
f 383 400 401
f 384 397 402
f 384 402 385
f 384 401 397
f 385 399 403
f 385 403 388
f 385 402 399
f 386 389 404
f 386 404 387
f 387 404 393
f 388 403 405
f 388 405 389
f 389 406 404
f 389 405 406
f 390 391 406
f 390 406 392
f 391 393 404
f 391 404 406
f 392 406 405
f 392 405 398
f 394 395 401
f 394 401 400
f 395 397 401
f 396 402 397
f 396 399 402
f 398 405 403
f 398 403 399

