# https://github.com/mikedh/trimesh
v 0.04164587 -0.00498286 0.36409330
v 0.04164587 -0.01499296 0.36409330
v 0.04164587 0.05901694 0.34789497
v 0.04160532 0.05901694 0.34797761
v 0.03610367 0.05901694 0.35615942
v 0.03222413 0.05901694 0.36103547
v 0.00068765 0.01067428 0.38797760
v 0.00084986 0.00747055 0.38797760
v 0.04164587 -0.02486593 0.36343214
v 0.04164587 0.05901694 -0.45632011
v 0.02504630 0.05901694 0.36153132
v -0.04502875 0.04057991 0.38797760
v -0.04044630 0.03996908 0.38797760
v -0.03760761 0.03828619 0.38797760
v -0.00978846 0.01888929 0.38797760
v -0.00362445 0.01416472 0.38797760
v -0.00047486 0.00250913 0.38797760
v 0.04164587 -0.06833443 0.36045694
v 0.04164587 -0.06833443 -0.45632011
v -0.05499120 0.05901694 -0.45632011
v 0.02391082 0.05901694 0.36153132
v -0.04958417 0.04065471 0.38797760
v -0.00196179 -0.00276393 0.38797760
v -0.04498820 -0.06833443 0.34359744
v -0.00267822 -0.00498286 0.38797760
v -0.01258660 -0.03380396 0.38797760
v -0.01301916 -0.03498822 0.38797760
v -0.01639855 -0.04117129 0.38797760
v -0.01735830 -0.04280432 0.38797760
v -0.01895337 -0.04347748 0.38797760
v -0.02503628 -0.04579613 0.38797760
v -0.02705039 -0.04582107 0.38797760
v -0.03499872 -0.04587093 0.38797760
v -0.06499420 -0.04553435 0.38797760
v -0.06499420 -0.06833443 -0.45632011
v -0.06499420 0.01497501 -0.45632011
v -0.06499420 0.05901694 -0.45615482
v -0.04498820 0.05901694 0.35301894
v -0.05089538 0.04059238 0.38797760
v -0.09644957 -0.06833443 0.33186188
v -0.07319936 -0.04275446 0.38797760
v -0.07499719 -0.06833443 -0.45615482
v -0.07499719 -0.04498585 -0.45615482
v -0.07499719 -0.01499296 -0.45598954
v -0.07499719 0.01497501 -0.45582426
v -0.07499719 0.05901694 -0.45557633
v -0.09644957 0.05901694 0.34624207
v -0.05588336 0.03700221 0.38797760
v -0.09644957 0.00497737 0.34574619
v -0.09644957 -0.06833443 -0.25012171
v -0.07843065 -0.03453945 0.38797760
v -0.08003925 -0.03013900 0.38797760
v -0.08067457 -0.02828158 0.38797760
v -0.08514889 -0.01499296 0.38797760
v -0.08860938 -0.00460888 0.38797760
v -0.08946098 -0.00201598 0.38797760
v -0.09005576 -0.00007131 0.38797760
v -0.09079923 0.00467819 0.38797760
v -0.08498667 -0.06833443 -0.45549366
v -0.08498667 -0.04498585 -0.45549366
v -0.09516540 0.05901694 -0.45342755
v -0.09644957 0.04353432 0.34624207
v -0.09085330 0.00962714 0.38797760
v -0.09078570 0.01091113 0.38797760
v -0.08933933 0.01208292 0.38797760
v -0.08482446 0.01573542 0.38797760
v -0.07956613 0.01967464 0.38797760
v -0.06275028 0.03200339 0.38797760
v -0.09644957 0.05901694 -0.45326227
v -0.09644957 -0.04498585 -0.45425400
v -0.09640902 -0.06833443 -0.45441929
v -0.09644957 -0.04353981 -0.45425400
v -0.09644957 -0.03498822 -0.45417136
f 1 2 9
f 1 9 18
f 1 18 19
f 1 19 10
f 1 10 3
f 1 3 4
f 1 4 5
f 1 5 6
f 1 6 7
f 1 7 8
f 1 8 2
f 2 8 9
f 3 10 20
f 3 20 37
f 3 37 46
f 3 46 61
f 3 61 69
f 3 69 47
f 3 47 38
f 3 38 21
f 3 21 11
f 3 11 6
f 3 6 5
f 3 5 4
f 6 11 12
f 6 12 13
f 6 13 14
f 6 14 15
f 6 15 16
f 6 16 7
f 7 16 15
f 7 15 14
f 7 14 13
f 7 13 12
f 7 12 22
f 7 22 39
f 7 39 48
f 7 48 68
f 7 68 67
f 7 67 66
f 7 66 65
f 7 65 64
f 7 64 63
f 7 63 58
f 7 58 57
f 7 57 56
f 7 56 55
f 7 55 54
f 7 54 53
f 7 53 52
f 7 52 51
f 7 51 41
f 7 41 34
f 7 34 33
f 7 33 32
f 7 32 31
f 7 31 30
f 7 30 29
f 7 29 28
f 7 28 27
f 7 27 26
f 7 26 25
f 7 25 23
f 7 23 17
f 7 17 8
f 8 17 18
f 8 18 9
f 10 19 35
f 10 35 36
f 10 36 20
f 11 21 22
f 11 22 12
f 17 23 18
f 18 24 40
f 18 40 50
f 18 50 71
f 18 71 59
f 18 59 42
f 18 42 35
f 18 35 19
f 18 23 25
f 18 25 26
f 18 26 27
f 18 27 28
f 18 28 29
f 18 29 30
f 18 30 31
f 18 31 32
f 18 32 33
f 18 33 34
f 18 34 24
f 20 36 37
f 21 38 39
f 21 39 22
f 24 34 40
f 34 41 40
f 35 42 43
f 35 43 36
f 36 43 37
f 37 43 44
f 37 44 45
f 37 45 46
f 38 47 39
f 39 47 48
f 40 49 62
f 40 62 47
f 40 47 69
f 40 69 73
f 40 73 72
f 40 72 70
f 40 70 50
f 40 41 51
f 40 51 52
f 40 52 53
f 40 53 54
f 40 54 55
f 40 55 56
f 40 56 57
f 40 57 58
f 40 58 49
f 42 59 60
f 42 60 43
f 43 60 44
f 44 60 45
f 45 60 46
f 46 60 61
f 47 62 63
f 47 63 64
f 47 64 65
f 47 65 66
f 47 66 67
f 47 67 68
f 47 68 48
f 49 58 63
f 49 63 62
f 50 70 71
f 59 71 60
f 60 71 72
f 60 72 61
f 61 72 73
f 61 73 69
f 70 72 71

