# https://github.com/mikedh/trimesh
v 0.04164587 -0.03834084 0.36053079
v -0.04498820 -0.03834084 0.34365967
v 0.04164587 -0.05463965 0.36037090
v 0.04164587 -0.03834084 -0.45632005
v -0.02502276 -0.07860501 0.34469911
v -0.09644957 -0.03834084 0.33190584
v -0.09644957 -0.05519937 0.33158600
v 0.04164587 -0.05698889 0.36005107
v 0.04164587 -0.05500229 -0.45632005
v -0.06499420 -0.03834084 -0.45632005
v -0.07499719 -0.07860501 0.33334509
v -0.01501976 -0.07860501 0.34589848
v 0.04164587 -0.06499837 0.35877174
v 0.04164587 -0.06281073 0.35917151
v -0.09644957 -0.03834084 -0.25018835
v -0.08147211 -0.07860501 0.33110628
v -0.09644957 -0.05817533 0.33086640
v -0.00500325 -0.06499837 -0.45632005
v 0.04164587 -0.06499837 -0.45608020
v 0.03499523 -0.06499837 -0.45616016
v -0.07499719 -0.03834084 -0.45616016
v -0.06499420 -0.06499837 -0.45632005
v 0.04164587 -0.07860501 0.34845716
v 0.04164587 -0.07531766 0.35181537
v 0.04164587 -0.07340989 0.35349450
v -0.09640902 -0.03834084 -0.45440108
v -0.09644957 -0.05355569 -0.45440108
v -0.09644957 -0.06033143 0.33022672
v -0.09644957 -0.07860501 0.31583428
v -0.04498820 -0.07499838 -0.45608020
v -0.06499420 -0.07499838 -0.45616016
v 0.04164587 -0.07499838 -0.45544052
v 0.03499523 -0.07499838 -0.45552048
v 0.00499975 -0.07499838 -0.45576036
v -0.01501976 -0.07499838 -0.45592028
v -0.07499719 -0.07499838 -0.45616016
v -0.08498667 -0.07499838 -0.45600024
v -0.09644957 -0.07499838 -0.45576036
v -0.08498667 -0.03834084 -0.45552048
v 0.04164587 -0.07860501 -0.45496076
v -0.09498967 -0.03834084 -0.45456100
v -0.09644957 -0.07860501 -0.45560044
v -0.07499719 -0.07860501 -0.45600024
v 0.00499975 -0.07860501 -0.45544052
v -0.00500325 -0.07860501 -0.45552048
v -0.06138501 -0.07860501 -0.45592028
v -0.08498667 -0.07860501 -0.45584032
v -0.08666285 -0.03834084 -0.45536056
f 1 2 3
f 1 3 8
f 1 8 14
f 1 14 13
f 1 13 25
f 1 25 24
f 1 24 23
f 1 23 40
f 1 40 32
f 1 32 19
f 1 19 9
f 1 9 4
f 1 4 10
f 1 10 21
f 1 21 39
f 1 39 48
f 1 48 41
f 1 41 26
f 1 26 15
f 1 15 6
f 1 6 2
f 2 5 3
f 2 6 7
f 2 7 5
f 3 5 8
f 4 9 18
f 4 18 22
f 4 22 10
f 5 11 16
f 5 16 29
f 5 29 42
f 5 42 47
f 5 47 43
f 5 43 46
f 5 46 45
f 5 45 44
f 5 44 40
f 5 40 23
f 5 23 12
f 5 12 13
f 5 13 14
f 5 14 8
f 5 7 11
f 6 15 27
f 6 27 38
f 6 38 42
f 6 42 29
f 6 29 28
f 6 28 17
f 6 17 7
f 7 16 11
f 7 17 16
f 9 19 20
f 9 20 18
f 10 22 36
f 10 36 21
f 12 23 24
f 12 24 25
f 12 25 13
f 15 26 27
f 16 17 28
f 16 28 29
f 18 20 30
f 18 30 31
f 18 31 36
f 18 36 22
f 19 32 33
f 19 33 20
f 20 33 34
f 20 34 35
f 20 35 30
f 21 36 37
f 21 37 38
f 21 38 39
f 26 41 38
f 26 38 27
f 30 35 43
f 30 43 31
f 31 43 36
f 32 44 33
f 32 40 44
f 33 44 34
f 34 44 45
f 34 45 35
f 35 45 46
f 35 46 43
f 36 43 47
f 36 47 37
f 37 47 42
f 37 42 38
f 38 41 48
f 38 48 39

