# https://github.com/mikedh/trimesh
v -0.05454512 0.16076779 -0.44946867
v -0.04563705 0.16076779 -0.44931301
v -0.06572415 0.16076779 -0.44822347
v -0.06499420 0.18502232 -0.44752306
v -0.05499120 0.19503319 -0.44791219
v -0.04498820 0.19503319 -0.44806784
v 0.04164587 0.16076779 -0.43950722
v -0.08573014 0.16076779 -0.44565529
v -0.09644957 0.18502232 -0.44347623
v -0.09644957 0.20712687 -0.44160846
v -0.09475987 0.23517746 -0.43942937
v -0.06499420 0.21505494 -0.44495487
v -0.05499120 0.21505494 -0.44620007
v -0.04498820 0.24502036 -0.44464359
v -0.04498820 0.21505494 -0.44674483
v -0.03499872 0.24502036 -0.44433227
v -0.01501976 0.24502036 -0.44184193
v -0.00458420 0.24475163 -0.44051892
v 0.04164587 0.23840244 -0.43483776
v 0.04164587 0.16076779 0.33624139
v -0.09644957 0.16076779 -0.44425446
v -0.09644957 0.23077671 -0.43958503
v -0.09644957 0.23514387 -0.43919590
v -0.09644957 0.23678996 -0.43904027
v -0.08003925 0.25002581 -0.43997416
v -0.08182357 0.24502036 -0.44020763
v -0.06499420 0.24502036 -0.44238669
v -0.05499120 0.24502036 -0.44363186
v -0.05499120 0.25294843 -0.44160846
v -0.04498820 0.25419140 -0.44207540
v -0.03499872 0.25398985 -0.44199756
v -0.00766621 0.25059688 -0.44028544
v -0.00097501 0.24790941 -0.43981850
v 0.03499523 0.24502036 -0.43522689
v 0.04164587 0.24502036 -0.43429300
v 0.04164587 0.24502036 0.34270078
v 0.03499523 0.24502036 0.34293425
v -0.03499872 0.24502036 0.34480202
v -0.04498820 0.24502036 0.34487987
v -0.05499120 0.16076779 0.33624139
v -0.09644957 0.16076779 0.33522969
v -0.09644957 0.24502036 -0.43818420
v -0.09498967 0.24502036 -0.43841767
v -0.09644957 0.24653208 -0.43763945
v -0.09644957 0.25513202 -0.43444866
v -0.09498967 0.25503123 -0.43475994
v -0.04498820 0.38742334 -0.36853182
v -0.04498820 0.38238430 -0.37133348
v -0.04013540 0.35000014 -0.39001119
v -0.04498820 0.25916326 -0.43942937
v -0.03989208 0.35000014 -0.39001119
v -0.03499872 0.25899529 -0.43927374
v 0.04164587 0.25325078 -0.43188047
v -0.02502276 0.25503123 0.34487987
v -0.03499872 0.25503123 0.34534681
v 0.04164587 0.25100002 0.34207821
v -0.04498820 0.25503123 0.34558028
v -0.06499420 0.24502036 0.34441292
v -0.07499719 0.16076779 0.33577445
v -0.09644957 0.24357584 0.34340119
v -0.09644957 0.25610623 -0.43390387
v -0.04498820 0.39380610 -0.36355108
v -0.03499872 0.39360455 -0.36339542
v -0.03499872 0.38705382 -0.36837617
v -0.05554542 0.38463509 -0.36790922
v -0.07214499 0.39051396 -0.36051595
v -0.06499420 0.39145458 -0.36137202
v -0.05499120 0.39269751 -0.36253938
v 0.04164587 0.25493047 -0.43086874
v 0.04164587 0.25459453 0.34153342
v -0.03493113 0.26571399 0.34231168
v -0.04550187 0.26591554 0.34246731
v -0.05499120 0.25503123 0.34511334
v -0.09644957 0.24502036 0.34347904
v -0.09644957 0.37610233 -0.36285067
v -0.09319183 0.38134292 -0.36074942
v -0.06499420 0.38497102 -0.36549667
v -0.04498820 0.39877796 -0.35802558
v -0.03499872 0.39861000 -0.35755864
v -0.01501976 0.39105144 -0.36098289
v -0.00889631 0.39027879 -0.36020467
v -0.07880915 0.38943896 -0.35950425
v -0.09644957 0.39078268 -0.35125491
v -0.05499120 0.39773655 -0.35615781
v 0.04164587 0.37492654 -0.35678041
v 0.04164587 0.25929761 0.33950999
v 0.03099403 0.26013747 0.33997694
v 0.01497571 0.26121247 0.34067735
v -0.03821590 0.27082020 0.34036607
v -0.04250097 0.27082020 0.34036607
v -0.09644957 0.26131323 0.34083301
v -0.05499120 0.26420227 0.34246731
v -0.07499719 0.25503123 0.34410161
v -0.09644957 0.25355312 0.34301209
v -0.09644957 0.38413116 -0.35755864
v -0.05499120 0.40065920 -0.35117707
v -0.04498820 0.40163341 -0.35296702
v -0.04190620 0.42027780 -0.32051447
v -0.03866198 0.42027780 -0.32051447
v -0.03499872 0.40149903 -0.35265574
v 0.02012591 0.39001003 -0.35000971
v 0.04164587 0.38386244 -0.35000971
v 0.04164587 0.38218275 -0.35195532
v -0.09644957 0.39437720 -0.34502900
v -0.06696776 0.39928186 -0.34868672
v -0.06030361 0.40005451 -0.35008755
v 0.04164587 0.37892419 0.26931286
v 0.03906401 0.37952885 0.26970196
v -0.02918617 0.39024520 0.28013039
v -0.03499872 0.39121941 0.28083080
v -0.03499872 0.38497102 0.28409940
v -0.03667490 0.35151187 0.30075371
v -0.03708043 0.33142292 0.31063735
v -0.04498820 0.37180236 0.29087007
v -0.09644957 0.25503123 0.34277862
v -0.04498820 0.38497102 0.28433287
v -0.04498820 0.39145458 0.28098643
v -0.05181457 0.39058113 0.28036386
v -0.09555741 0.37472498 0.27818477
v -0.09644957 0.37472498 0.27795130
v -0.09644957 0.46216893 -0.22502455
v -0.09469228 0.46230331 -0.22549149
v -0.05499120 0.40415293 -0.34495118
v -0.04857036 0.41974032 -0.31958058
v -0.04498820 0.40613493 -0.34495118
v -0.04498820 0.41224897 -0.33405581
v -0.04542077 0.47258294 -0.22580278
v -0.04236580 0.47033218 -0.23062786
v -0.03835108 0.47033218 -0.23062786
v -0.03501224 0.47244856 -0.22556931
v -0.00969384 0.47006342 -0.22012164
v 0.04164587 0.45948148 -0.21910992
v 0.04164587 0.39027879 -0.34043738
v 0.04164587 0.38742334 -0.34518465
v 0.02680358 0.38913661 -0.34860888
v 0.04164587 0.38127571 0.26721162
v 0.00963627 0.38984206 0.26977980
v -0.03472837 0.39679593 0.27444923
v -0.03787796 0.40045762 0.27086934
v -0.04304167 0.40045762 0.27086934
v -0.04582629 0.39713186 0.27444923
v -0.09066405 0.39011082 0.27016890
v -0.09644957 0.38487023 0.27219233
v -0.05847873 0.38923740 0.27942997
v -0.09644957 0.46284080 -0.22370154
v -0.07801161 0.46952593 -0.21895428
v -0.07134745 0.47026497 -0.22043294
v -0.06499420 0.47093683 -0.22167812
v -0.05499120 0.47204542 -0.22354589
v -0.04902995 0.46982825 -0.22969398
v -0.04498820 0.47725242 -0.21498527
v -0.03499872 0.47695011 -0.21498527
v 0.01013642 0.46999621 -0.21000454
v 0.04164587 0.46200097 -0.21428485
v 0.04164587 0.38403040 0.26433212
v -0.03121381 0.39968497 0.26946849
v 0.04164587 0.38893506 0.25802839
v 0.03756356 0.38940537 0.25896227
v 0.04164587 0.46095955 0.13164237
v -0.03920269 0.44013160 0.20028305
v -0.04112218 0.44013160 0.20028305
v -0.04498820 0.40811694 0.25662756
v -0.04970583 0.39992014 0.26977980
v -0.05499120 0.39931545 0.26876807
v -0.09498967 0.46552831 0.13491099
v -0.09644957 0.39185768 0.26464343
v -0.09644957 0.38917020 0.26900154
v -0.09644957 0.46751031 -0.21444049
v -0.09116420 0.47016421 -0.21054929
v -0.05499120 0.47553915 -0.21498527
v -0.05499120 0.47778994 -0.20494598
v -0.04521800 0.47930163 -0.20494598
v -0.04202786 0.48024225 -0.20159955
v -0.03858088 0.48024225 -0.20159955
v -0.03514742 0.47906649 -0.20494598
v 0.04164587 0.46327752 -0.21062712
v -0.00500325 0.47359073 -0.20494598
v 0.04164587 0.49001798 -0.05178855
v 0.03499523 0.46626735 -0.20494598
v 0.04164587 0.46499079 -0.20494598
v 0.04164587 0.46351269 0.12494953
v 0.00157981 0.47026497 0.13047501
v -0.03499872 0.47144076 0.14245990
v -0.04498820 0.47157514 0.14277120
v -0.04778634 0.43962768 0.19934916
v -0.05144960 0.41033411 0.25055730
v -0.08259407 0.47046655 0.13086414
v -0.08925822 0.46982825 0.12922984
v -0.09644957 0.46512517 0.13498880
v -0.09644957 0.46882045 -0.21047148
v -0.09644957 0.47002983 -0.20611334
v -0.09644957 0.47046655 -0.20338950
v -0.09644957 0.49421716 -0.05497933
v -0.05193623 0.48034304 -0.19226068
v -0.04869202 0.47980553 -0.19887571
v -0.04563705 0.49949133 -0.07529137
v -0.04033816 0.48998439 -0.14027432
v -0.03975691 0.48998439 -0.14027432
v -0.03499872 0.50248116 -0.05497933
v -0.01860192 0.50023043 -0.05155508
v 0.04164587 0.49025315 -0.04992077
v 0.00823045 0.46959311 0.12814030
v 0.04164587 0.46509159 0.11825667
v -0.02502276 0.47644621 0.12494953
v -0.03597199 0.47862977 0.12393782
v -0.03499872 0.47520322 0.13491099
v -0.04498820 0.47550559 0.13491099
v -0.05499120 0.47375870 0.13491099
v -0.05499120 0.47063452 0.14105907
v -0.05011136 0.45000809 0.17997102
v -0.05499120 0.47701728 0.12494953
v -0.09557093 0.46929079 0.12541647
v -0.09644957 0.46908921 0.12541647
v -0.07499719 0.47328842 0.12494953
v -0.09644957 0.47009701 0.12051356
v -0.06242586 0.50036478 -0.05241114
v -0.09644957 0.49549371 -0.04509569
v -0.09498967 0.49576247 -0.04509569
v -0.06909002 0.49982730 -0.04836430
v -0.04940844 0.49989447 -0.06945457
v -0.04498820 0.50271630 -0.05497933
v -0.04274429 0.50029761 -0.07217841
v -0.03809424 0.50029761 -0.07217841
v -0.04498820 0.50395930 -0.04509569
v -0.03499872 0.50365698 -0.04509569
v -0.00500325 0.49861792 -0.04509569
v 0.03499523 0.49186563 -0.04509569
v 0.04164587 0.49072343 -0.04509569
v 0.04164587 0.46583062 0.11491024
v 0.01160984 0.47026497 0.12144744
v 0.00494568 0.47086966 0.12479387
v -0.01501976 0.47459853 0.12494953
v 0.01826048 0.46966028 0.11786754
v -0.04402845 0.47886491 0.12393782
v 0.04164587 0.49062267 -0.03669071
v -0.03995967 0.47997350 0.11989097
v -0.04671845 0.47957039 0.11732279
v -0.05055744 0.48007429 0.11055210
v -0.09644957 0.49509060 -0.03513423
v -0.09644957 0.49485546 -0.03365558
v -0.09644957 0.47093683 0.11537719
v -0.05547783 0.50103664 -0.05544627
v -0.05499120 0.50248116 -0.04509569
v -0.07082026 0.50012964 -0.03925890
v -0.07082026 0.50012964 -0.04174927
v -0.06545380 0.50073433 -0.04509569
v -0.04498820 0.50355619 -0.03513423
v -0.03499872 0.50325382 -0.03513423
v -0.01687167 0.50049913 -0.03700201
v -0.04004078 0.47997350 0.11989097
v -0.04402845 0.48037663 0.11428764
v -0.03945952 0.50006247 -0.00953017
v -0.04911106 0.48988360 0.04914904
v -0.05499120 0.50207806 -0.03513423
v -0.05105759 0.50016320 -0.01886904
v -0.04075721 0.50006247 -0.00953017
f 1 2 7
f 1 7 20
f 1 20 40
f 1 40 59
f 1 59 41
f 1 41 21
f 1 21 8
f 1 8 3
f 1 3 4
f 1 4 5
f 1 5 6
f 1 6 2
f 2 6 7
f 3 8 4
f 4 8 9
f 4 9 10
f 4 10 11
f 4 11 12
f 4 12 13
f 4 13 5
f 5 13 14
f 5 14 15
f 5 15 6
f 6 15 16
f 6 16 7
f 7 16 17
f 7 17 18
f 7 18 19
f 7 19 35
f 7 35 53
f 7 53 69
f 7 69 85
f 7 85 103
f 7 103 102
f 7 102 134
f 7 134 133
f 7 133 132
f 7 132 154
f 7 154 176
f 7 176 180
f 7 180 178
f 7 178 201
f 7 201 228
f 7 228 235
f 7 235 229
f 7 229 203
f 7 203 181
f 7 181 159
f 7 159 157
f 7 157 155
f 7 155 136
f 7 136 107
f 7 107 86
f 7 86 70
f 7 70 56
f 7 56 36
f 7 36 20
f 8 21 9
f 9 21 41
f 9 41 60
f 9 60 74
f 9 74 94
f 9 94 115
f 9 115 91
f 9 91 120
f 9 120 143
f 9 143 167
f 9 167 166
f 9 166 189
f 9 189 213
f 9 213 215
f 9 215 241
f 9 241 240
f 9 240 239
f 9 239 217
f 9 217 193
f 9 193 192
f 9 192 191
f 9 191 190
f 9 190 168
f 9 168 145
f 9 145 121
f 9 121 104
f 9 104 83
f 9 83 95
f 9 95 75
f 9 75 61
f 9 61 45
f 9 45 44
f 9 44 42
f 9 42 24
f 9 24 23
f 9 23 22
f 9 22 10
f 10 22 11
f 11 23 24
f 11 24 25
f 11 25 26
f 11 26 27
f 11 27 12
f 11 22 23
f 12 27 28
f 12 28 13
f 13 28 14
f 14 28 25
f 14 25 29
f 14 29 30
f 14 30 31
f 14 31 16
f 14 16 15
f 16 31 32
f 16 32 33
f 16 33 17
f 17 33 18
f 18 33 19
f 19 34 35
f 19 33 34
f 20 36 37
f 20 37 38
f 20 38 39
f 20 39 40
f 24 42 43
f 24 43 25
f 25 28 27
f 25 27 26
f 25 43 42
f 25 42 44
f 25 44 45
f 25 45 46
f 25 46 47
f 25 47 48
f 25 48 49
f 25 49 29
f 29 49 50
f 29 50 30
f 30 50 31
f 31 50 51
f 31 51 52
f 31 52 32
f 32 52 51
f 32 51 53
f 32 53 35
f 32 35 33
f 33 35 34
f 36 54 55
f 36 55 37
f 36 56 54
f 37 55 38
f 38 55 57
f 38 57 39
f 39 57 58
f 39 58 59
f 39 59 40
f 41 59 58
f 41 58 60
f 45 61 46
f 46 61 47
f 47 62 63
f 47 63 64
f 47 64 51
f 47 51 49
f 47 49 48
f 47 61 65
f 47 65 66
f 47 66 67
f 47 67 68
f 47 68 62
f 49 51 50
f 51 64 53
f 53 64 69
f 54 56 70
f 54 70 71
f 54 71 55
f 55 71 57
f 57 71 72
f 57 72 73
f 57 73 74
f 57 74 60
f 57 60 58
f 61 75 76
f 61 76 66
f 61 66 77
f 61 77 65
f 62 68 78
f 62 78 63
f 63 78 79
f 63 79 80
f 63 80 64
f 64 80 81
f 64 81 69
f 65 77 66
f 66 82 83
f 66 83 84
f 66 84 78
f 66 78 67
f 66 76 82
f 67 78 68
f 69 81 85
f 70 86 87
f 70 87 88
f 70 88 71
f 71 88 89
f 71 89 72
f 72 89 90
f 72 90 91
f 72 91 92
f 72 92 93
f 72 93 73
f 73 93 74
f 74 93 94
f 75 95 76
f 76 95 82
f 78 84 96
f 78 96 97
f 78 97 98
f 78 98 99
f 78 99 100
f 78 100 79
f 79 81 80
f 79 100 101
f 79 101 81
f 81 101 102
f 81 102 103
f 81 103 85
f 82 95 83
f 83 104 105
f 83 105 106
f 83 106 84
f 84 106 96
f 86 107 108
f 86 108 109
f 86 109 110
f 86 110 111
f 86 111 112
f 86 112 87
f 87 112 113
f 87 113 89
f 87 89 88
f 89 113 114
f 89 114 90
f 90 114 91
f 91 115 93
f 91 93 92
f 91 114 116
f 91 116 117
f 91 117 118
f 91 118 119
f 91 119 120
f 93 115 94
f 96 106 121
f 96 121 122
f 96 122 123
f 96 123 124
f 96 124 97
f 97 124 125
f 97 125 98
f 98 125 126
f 98 126 127
f 98 127 128
f 98 128 129
f 98 129 99
f 99 129 130
f 99 130 131
f 99 131 132
f 99 132 100
f 100 132 101
f 101 132 133
f 101 133 134
f 101 134 135
f 101 135 102
f 102 135 134
f 104 121 105
f 105 121 106
f 107 136 108
f 108 136 137
f 108 137 109
f 109 137 110
f 110 117 111
f 110 137 138
f 110 138 139
f 110 139 117
f 111 117 116
f 111 116 112
f 112 114 113
f 112 116 114
f 117 140 141
f 117 141 118
f 117 139 140
f 118 141 142
f 118 142 143
f 118 143 144
f 118 144 119
f 119 144 143
f 119 143 120
f 121 145 146
f 121 146 147
f 121 147 122
f 122 147 123
f 123 147 124
f 124 147 148
f 124 148 149
f 124 149 150
f 124 150 126
f 124 126 125
f 126 150 127
f 127 130 129
f 127 129 128
f 127 150 149
f 127 149 151
f 127 151 130
f 130 151 152
f 130 152 131
f 131 152 153
f 131 153 154
f 131 154 132
f 136 155 137
f 137 156 139
f 137 139 138
f 137 155 157
f 137 157 158
f 137 158 156
f 139 156 159
f 139 159 160
f 139 160 161
f 139 161 140
f 140 161 162
f 140 162 163
f 140 163 141
f 141 163 142
f 142 163 164
f 142 164 165
f 142 165 166
f 142 166 167
f 142 167 143
f 145 168 146
f 146 168 169
f 146 169 147
f 147 169 170
f 147 170 149
f 147 149 148
f 149 170 151
f 151 170 171
f 151 171 172
f 151 172 173
f 151 173 174
f 151 174 152
f 152 174 175
f 152 175 153
f 153 176 154
f 153 175 177
f 153 177 178
f 153 178 179
f 153 179 180
f 153 180 176
f 156 158 159
f 157 159 158
f 159 181 182
f 159 182 160
f 160 182 183
f 160 183 184
f 160 184 161
f 161 184 185
f 161 185 162
f 162 185 163
f 163 185 186
f 163 186 164
f 164 186 165
f 165 187 188
f 165 188 189
f 165 189 166
f 165 186 187
f 168 190 169
f 169 190 191
f 169 191 171
f 169 171 170
f 171 191 192
f 171 192 193
f 171 193 194
f 171 194 195
f 171 195 172
f 172 195 173
f 173 195 196
f 173 196 197
f 173 197 198
f 173 198 174
f 174 198 199
f 174 199 178
f 174 178 177
f 174 177 175
f 178 180 179
f 178 199 200
f 178 200 201
f 181 202 182
f 181 203 202
f 182 202 204
f 182 204 205
f 182 205 206
f 182 206 183
f 183 206 207
f 183 207 184
f 184 207 208
f 184 208 209
f 184 209 210
f 184 210 185
f 185 210 186
f 186 210 187
f 187 211 188
f 187 210 209
f 187 209 208
f 187 208 207
f 187 207 211
f 188 212 213
f 188 213 189
f 188 211 214
f 188 214 215
f 188 215 212
f 193 216 194
f 193 217 218
f 193 218 219
f 193 219 216
f 194 216 220
f 194 220 195
f 195 220 196
f 196 220 221
f 196 221 222
f 196 222 197
f 197 222 223
f 197 223 198
f 198 223 199
f 199 223 221
f 199 221 224
f 199 224 225
f 199 225 200
f 200 225 226
f 200 226 201
f 201 226 227
f 201 227 228
f 202 203 229
f 202 229 230
f 202 230 231
f 202 231 232
f 202 232 204
f 204 232 233
f 204 233 205
f 205 234 207
f 205 207 206
f 205 233 235
f 205 235 236
f 205 236 234
f 207 234 211
f 211 234 237
f 211 237 238
f 211 238 239
f 211 239 240
f 211 240 241
f 211 241 215
f 211 215 214
f 212 215 213
f 216 242 220
f 216 219 243
f 216 243 242
f 217 239 244
f 217 244 218
f 218 244 245
f 218 245 246
f 218 246 219
f 219 246 243
f 220 242 221
f 221 223 222
f 221 242 243
f 221 243 224
f 224 243 244
f 224 244 247
f 224 247 248
f 224 248 225
f 225 248 249
f 225 249 226
f 226 249 235
f 226 235 227
f 227 235 228
f 229 233 230
f 229 235 233
f 230 232 231
f 230 233 232
f 234 250 251
f 234 251 237
f 234 236 250
f 235 249 252
f 235 252 236
f 236 252 256
f 236 256 250
f 237 251 247
f 237 247 253
f 237 253 238
f 238 253 254
f 238 254 244
f 238 244 239
f 243 245 244
f 243 246 245
f 244 254 247
f 247 254 255
f 247 255 253
f 247 251 250
f 247 250 256
f 247 256 252
f 247 252 248
f 248 252 249
f 253 255 254

