# https://github.com/mikedh/trimesh
v -0.01672791 0.17573565 0.33552068
v -0.02426619 0.17573565 0.33575282
v -0.01672791 0.17560375 0.33552068
v -0.01672791 0.17573565 -0.44550750
v -0.04500818 0.17573565 0.33629444
v -0.09644957 0.11159716 0.33768719
v -0.01672791 0.11157832 0.33010441
v -0.01672791 0.17512015 -0.44558486
v -0.02500753 0.17573565 -0.44659075
v -0.05501241 0.17573565 0.33629444
v -0.08425253 0.17573565 0.33559805
v -0.09499810 0.17573565 0.33528855
v -0.09644957 0.17573565 0.33521119
v -0.09644957 0.11157832 0.33575282
v -0.09640275 0.11157832 0.33760983
v -0.01672791 0.11157832 -0.44883463
v -0.01672791 0.12673365 -0.44883463
v -0.03574530 0.17573565 -0.44798350
v -0.09644957 0.17573565 -0.44426948
v -0.09644957 0.11157832 -0.44349572
v -0.05501241 0.11157832 -0.45278078
v -0.04953428 0.17118214 -0.44999528
v -0.04571831 0.17470561 -0.44929889
v -0.04564808 0.17573565 -0.44922152
v -0.06572676 0.17573565 -0.44813827
v -0.06079488 0.16121468 -0.45007265
v -0.09644957 0.13500533 -0.44767401
v -0.09642616 0.11157832 -0.44852513
v -0.06499323 0.11157832 -0.45239392
v -0.06499323 0.13500533 -0.45169753
v -0.05083748 0.17118214 -0.44999528
v -0.05455200 0.17573565 -0.44945365
f 1 2 3
f 1 3 7
f 1 7 16
f 1 16 17
f 1 17 8
f 1 8 4
f 1 4 9
f 1 9 18
f 1 18 24
f 1 24 32
f 1 32 25
f 1 25 19
f 1 19 13
f 1 13 12
f 1 12 11
f 1 11 10
f 1 10 5
f 1 5 2
f 2 5 6
f 2 6 3
f 3 6 7
f 4 8 9
f 5 10 6
f 6 10 11
f 6 11 12
f 6 12 13
f 6 13 19
f 6 19 27
f 6 27 20
f 6 20 14
f 6 14 15
f 6 15 7
f 7 15 14
f 7 14 20
f 7 20 28
f 7 28 29
f 7 29 21
f 7 21 16
f 8 17 18
f 8 18 9
f 16 21 17
f 17 21 22
f 17 22 23
f 17 23 18
f 18 23 24
f 19 25 26
f 19 26 27
f 20 27 28
f 21 29 30
f 21 30 22
f 22 31 32
f 22 32 24
f 22 24 23
f 22 30 31
f 25 32 26
f 26 32 30
f 26 30 27
f 27 30 28
f 28 30 29
f 30 32 31

