# https://github.com/mikedh/trimesh
v -0.08144960 -0.23508324 0.33920157
v -0.11890724 -0.24014533 0.33982357
v -0.08144960 -0.23650917 0.33881283
v -0.08144960 -0.22652759 0.33865732
v -0.24504843 -0.13965213 0.34720999
v -0.12502196 -0.24032357 0.34005684
v -0.08144960 -0.38601908 0.28314263
v -0.08144960 -0.24506482 0.33578050
v -0.08144960 -0.22506601 0.33850181
v -0.25509113 -0.13965213 0.34736550
v -0.24504843 -0.18506835 0.34511071
v -0.08144960 -0.13965213 0.32520628
v -0.14506687 -0.24082264 0.34036785
v -0.24504843 -0.24770281 0.33966810
v -0.10327627 -0.39104554 0.28057683
v -0.08144960 -0.39136636 0.28073233
v -0.24504843 -0.20506719 0.34363341
v -0.26570076 -0.13965213 0.34238940
v -0.26371652 -0.16506954 0.34238940
v -0.25144660 -0.23508324 0.34067887
v -0.08144960 -0.13965213 -0.44694555
v -0.24504843 -0.21508440 0.34277815
v -0.24504843 -0.22506601 0.34192288
v -0.15502858 -0.24096525 0.34036785
v -0.25452423 -0.25451168 0.33235943
v -0.24504843 -0.25508207 0.33593601
v -0.24504843 -0.24271202 0.34021235
v -0.25067723 -0.24196340 0.34021235
v -0.10987692 -0.38986912 0.27979931
v -0.14927833 -0.38965523 0.26953608
v -0.14259669 -0.39054644 0.27054685
v -0.10582744 -0.39528769 0.27528971
v -0.10173747 -0.40034980 0.27070236
v -0.08144960 -0.39728403 0.27443445
v -0.37487465 -0.13965213 0.27801102
v -0.38374302 -0.15508795 0.27256840
v -0.08144960 -0.21711639 -0.44010341
v -0.25509113 -0.15508795 -0.44313571
v -0.24504843 -0.13965213 -0.44461301
v -0.25436223 -0.24517177 0.33694679
v -0.26084140 -0.25080425 0.33049339
v -0.25083920 -0.26085711 0.33049339
v -0.24067500 -0.34056723 0.28026581
v -0.37949106 -0.17897245 0.26969159
v -0.24006759 -0.36994159 0.25997263
v -0.21139729 -0.38024402 0.26012814
v -0.22504403 -0.38145608 0.25266397
v -0.08144960 -0.40031415 0.27054685
v -0.23792136 -0.40947580 0.19909307
v -0.23865026 -0.44965172 0.12934983
v -0.14117937 -0.47014961 0.13036059
v -0.10505804 -0.47125471 0.14225660
v -0.10040115 -0.44002661 0.19994834
v -0.09906481 -0.44002661 0.19994834
v -0.38378352 -0.13965213 0.27256840
v -0.38860238 -0.13965213 0.26868081
v -0.38868338 -0.15508795 0.26829204
v -0.38026047 -0.21144825 0.26020586
v -0.08144960 -0.22128725 -0.43963689
v -0.25509113 -0.13965213 -0.44321346
v -0.08144960 -0.22460257 -0.43924814
v -0.10505804 -0.23508324 -0.43699333
v -0.25164908 -0.17276961 -0.44049215
v -0.25087968 -0.22224978 -0.43038446
v -0.26023397 -0.16054218 -0.44010341
v -0.26128685 -0.15508795 -0.44080317
v -0.34053510 -0.24071571 0.28026581
v -0.36997479 -0.24007404 0.25997263
v -0.37102765 -0.23508324 0.26067239
v -0.21807893 -0.37910327 0.25911736
v -0.33960372 -0.31974849 0.21961951
v -0.31968030 -0.33960471 0.21961951
v -0.25083920 -0.37047634 0.25040916
v -0.24407656 -0.37204486 0.25414124
v -0.23893373 -0.37956670 0.24924290
v -0.23225209 -0.38056487 0.25095344
v -0.08144960 -0.43824416 0.20290291
v -0.24059401 -0.39029691 0.23050475
v -0.24014857 -0.41999215 0.17988841
v -0.24504843 -0.44872487 0.12787254
v -0.24504843 -0.45139849 0.12289643
v -0.20949404 -0.45981154 0.11924210
v -0.11506025 -0.47620988 0.12484023
v -0.10505804 -0.47802794 0.12484023
v -0.10505804 -0.47489086 0.13487019
v -0.08144960 -0.47207463 0.14171234
v -0.08144960 -0.47153991 0.14272311
v -0.39192295 -0.13965213 0.26354921
v -0.46461105 -0.15508795 0.13487019
v -0.46064258 -0.18332158 0.13113812
v -0.44962800 -0.23868373 0.12934983
v -0.40949768 -0.23793513 0.19909307
v -0.38147530 -0.22506601 0.25266397
v -0.37920761 -0.21811454 0.25911736
v -0.26152980 -0.13965213 -0.44072542
v -0.08144960 -0.23508324 -0.43745986
v -0.10505804 -0.24470833 -0.43295026
v -0.14506687 -0.24371018 -0.43201724
v -0.16503078 -0.24289027 -0.43131748
v -0.18503520 -0.24167821 -0.43061769
v -0.11506025 -0.23508324 -0.43644908
v -0.24504843 -0.21508440 -0.43240598
v -0.24504843 -0.22339052 -0.43069544
v -0.24504843 -0.23508324 -0.42805189
v -0.24504843 -0.24506482 -0.42556384
v -0.25181106 -0.25180238 -0.42113200
v -0.25509113 -0.24417362 -0.42198727
v -0.25509113 -0.23508324 -0.42463082
v -0.26019347 -0.20039722 -0.43007344
v -0.26015300 -0.24018097 -0.42004347
v -0.37677792 -0.17508677 -0.35784215
v -0.37774980 -0.13965213 -0.36242950
v -0.37568456 -0.13965213 -0.36382902
v -0.37799275 -0.22506601 0.25748459
v -0.37661594 -0.23536843 0.25453001
v -0.37953156 -0.23889762 0.24924290
v -0.37204003 -0.24406666 0.25414124
v -0.37042022 -0.25080425 0.25040916
v -0.37058222 -0.37058330 0.12079714
v -0.35057780 -0.35054880 0.17079146
v -0.33911777 -0.33914128 0.19909307
v -0.36556086 -0.37778428 0.11543228
v -0.24545339 -0.37757039 0.24551082
v -0.36256424 -0.38156304 0.11255546
v -0.28112927 -0.43065104 0.12103039
v -0.25290442 -0.44195163 0.13315965
v -0.24990782 -0.43984836 0.13976854
v -0.25104165 -0.45054293 0.12103039
v -0.24504843 -0.45378694 0.11488801
v -0.23508672 -0.45585454 0.11488801
v -0.24845000 -0.45966893 0.07826698
v -0.24873346 -0.46972182 0.01847594
v -0.24241628 -0.48034507 -0.03781627
v -0.08144960 -0.47845572 0.12484023
v -0.08144960 -0.47585338 0.13347065
v -0.08144960 -0.47542560 0.13487019
v -0.10250688 -0.48038074 0.11278872
v -0.46469206 -0.13965213 0.13487019
v -0.46874154 -0.13965213 0.12476248
v -0.46955141 -0.15797548 0.11745381
v -0.46044010 -0.20285696 0.12126365
v -0.45995414 -0.18998785 0.12973858
v -0.45145026 -0.24506482 0.12289643
v -0.44869661 -0.24506482 0.12787254
v -0.41998583 -0.24018097 0.17988841
v -0.39030316 -0.24060875 0.23050475
v -0.38058442 -0.23223135 0.25095344
v -0.08144960 -0.24581344 -0.43263924
v -0.08144960 -0.36063734 -0.38031238
v -0.08144960 -0.38159868 -0.37074891
v -0.08144960 -0.38562697 -0.36888286
v -0.10542250 -0.38466445 -0.36826086
v -0.23508672 -0.25419086 -0.42260927
v -0.23508672 -0.24506482 -0.42649686
v -0.19503741 -0.24082264 -0.43022895
v -0.14506687 -0.23508324 -0.43458304
v -0.20078766 -0.24021661 -0.42999569
v -0.24504843 -0.25337094 -0.42206502
v -0.24504843 -0.25836173 -0.41879946
v -0.24152540 -0.33133426 -0.37090442
v -0.24095847 -0.36088687 -0.35061124
v -0.36090398 -0.24096525 -0.35061124
v -0.34952492 -0.23911151 -0.35970819
v -0.25845221 -0.24684724 -0.41879946
v -0.31968030 -0.23950365 -0.37984586
v -0.36547989 -0.22474515 -0.35263276
v -0.38066542 -0.13965213 -0.36040795
v -0.37957203 -0.19918516 -0.34960046
v -0.38062492 -0.19251889 -0.35061124
v -0.38989821 -0.15982920 -0.34983373
v -0.37762830 -0.24545696 0.24551082
v -0.37779027 -0.36555684 0.11543228
v -0.37949106 -0.36926427 0.10796811
v -0.37256646 -0.37257960 0.11488801
v -0.36924589 -0.37949541 0.10796811
v -0.35073978 -0.39043951 0.11076717
v -0.26954776 -0.43959883 0.11854234
v -0.25233749 -0.45129156 0.11488801
v -0.25071770 -0.46023932 0.07150258
v -0.25509113 -0.47752887 -0.03517271
v -0.24545339 -0.47927564 -0.03478395
v -0.12275425 -0.50041521 -0.03742751
v -0.10015817 -0.49995178 -0.00998117
v -0.10133252 -0.49018407 0.05136490
v -0.25509113 -0.47799230 -0.04520268
v -0.24727565 -0.47948951 -0.04520268
v -0.10505804 -0.50340968 -0.04520268
v -0.08144960 -0.48041639 0.11286646
v -0.47060427 -0.13965213 0.11465475
v -0.47064477 -0.13965213 0.11442150
v -0.49465817 -0.13965213 -0.03517271
v -0.49040622 -0.18267991 -0.03758301
v -0.48036352 -0.24246249 -0.03781627
v -0.47781235 -0.24506482 -0.02514275
v -0.46975389 -0.24880791 0.01863144
v -0.45987317 -0.20952325 0.11924210
v -0.45383945 -0.24506482 0.11488801
v -0.45055938 -0.25105378 0.12103039
v -0.43990925 -0.24991302 0.13976854
v -0.43067646 -0.28117678 0.12103039
v -0.38159680 -0.36259800 0.11255546
v -0.08144960 -0.38644686 -0.36841637
v -0.10505804 -0.39339834 -0.36297375
v -0.12502196 -0.39086729 -0.36064121
v -0.13073172 -0.39011866 -0.35994142
v -0.19904639 -0.37942412 -0.34960046
v -0.23508672 -0.36694711 -0.34788993
v -0.23508672 -0.37339950 -0.34275833
v -0.24213281 -0.37161708 -0.34159204
v -0.37163508 -0.24214163 -0.34159204
v -0.36750460 -0.23508324 -0.34820092
v -0.36912441 -0.22788224 -0.34921169
v -0.38576776 -0.13965213 -0.35574284
v -0.37345734 -0.23508324 -0.34322482
v -0.37953156 -0.22859520 -0.33918175
v -0.39390719 -0.13965213 -0.34493536
v -0.39050564 -0.13965213 -0.35076675
v -0.39990044 -0.23982449 -0.29976165
v -0.44007123 -0.24039486 -0.23017390
v -0.44857514 -0.23508324 -0.21757813
v -0.45145026 -0.23508324 -0.21252427
v -0.46011615 -0.20096759 -0.21026947
v -0.46116900 -0.16506954 -0.22200997
v -0.46226236 -0.13965213 -0.22395377
v -0.38026047 -0.37047634 0.10143697
v -0.37949106 -0.37945977 0.07857798
v -0.37495565 -0.37496805 0.10470255
v -0.39046514 -0.35072705 0.11076717
v -0.41002411 -0.32014063 0.11006741
v -0.38042244 -0.38042226 0.07189134
v -0.37159458 -0.38099265 0.09490584
v -0.37042022 -0.38027969 0.10128146
v -0.35191411 -0.39118814 0.10478029
v -0.32004476 -0.40997490 0.11006741
v -0.38005799 -0.39001173 0.03021644
v -0.38852137 -0.39910209 -0.03517271
v -0.37074420 -0.41043833 -0.03789402
v -0.26096287 -0.46052450 0.04273446
v -0.26096287 -0.47050610 -0.00725986
v -0.25982904 -0.46982878 -0.00057322
v -0.26387849 -0.47221723 -0.02514275
v -0.26590323 -0.47289455 -0.03455070
v -0.26501235 -0.47399965 -0.04520268
v -0.10505804 -0.50301754 -0.03517271
v -0.08144960 -0.50340968 -0.03517271
v -0.09979372 -0.49995178 -0.00998117
v -0.24444102 -0.47877657 -0.05429962
v -0.24067500 -0.48002425 -0.05048979
v -0.25509113 -0.47656634 -0.05492163
v -0.18086424 -0.49007714 -0.05080080
v -0.12105347 -0.50009435 -0.05095630
v -0.10505804 -0.50216198 -0.05492163
v -0.10153499 -0.50020134 -0.07171600
v -0.08144960 -0.50383747 -0.04520268
v -0.08144960 -0.49014843 0.05113164
v -0.49514410 -0.13965213 -0.04520268
v -0.49008226 -0.18093312 -0.05080080
v -0.47947264 -0.24738199 -0.04520268
v -0.47756937 -0.25508207 -0.03517271
v -0.47801483 -0.25508207 -0.04520268
v -0.45967069 -0.24848709 0.07834473
v -0.45586419 -0.23508324 0.11488801
v -0.46023762 -0.25073293 0.07165808
v -0.45128828 -0.25237277 0.11488801
v -0.44817019 -0.25736356 0.11488801
v -0.08144960 -0.39379048 -0.36336249
v -0.08144960 -0.39878127 -0.35791990
v -0.10505804 -0.39838913 -0.35722011
v -0.15976647 -0.38986912 -0.34983373
v -0.22192593 -0.38038662 -0.34058127
v -0.22856706 -0.37953106 -0.33918175
v -0.23508672 -0.37839031 -0.33762670
v -0.24087748 -0.38052922 -0.33094007
v -0.24488646 -0.37489676 -0.33474988
v -0.25217551 -0.37147450 -0.33202860
v -0.24881445 -0.36858696 -0.33871523
v -0.36859798 -0.24880791 -0.33871523
v -0.35025385 -0.30046263 -0.31033587
v -0.37147310 -0.25219452 -0.33202860
v -0.37491515 -0.24485093 -0.33474988
v -0.38054392 -0.24092960 -0.33094007
v -0.37843820 -0.23508324 -0.33762670
v -0.38151580 -0.23508324 -0.33272836
v -0.44962800 -0.24905746 -0.20918095
v -0.45055938 -0.24239118 -0.21096924
v -0.45189571 -0.24545696 -0.20552662
v -0.45440638 -0.23508324 -0.20498236
v -0.45942771 -0.20763387 -0.20739266
v -0.46064258 -0.20456809 -0.20436034
v -0.46606886 -0.17508677 -0.20498236
v -0.46947044 -0.15562268 -0.20575987
v -0.46064258 -0.19508559 -0.21143575
v -0.46679777 -0.13965213 -0.21493457
v -0.38933128 -0.37885374 0.03682534
v -0.39014119 -0.39011866 0.00067081
v -0.39909053 -0.38855013 -0.03517271
v -0.39192295 -0.39190111 -0.01511278
v -0.39410967 -0.39407566 -0.03517271
v -0.38900733 -0.39935166 -0.04520268
v -0.27100557 -0.47050610 -0.04520268
v -0.27100557 -0.47050610 -0.03758301
v -0.27035767 -0.47011396 -0.05080080
v -0.26553878 -0.47225288 -0.05453288
v -0.26298761 -0.47171813 -0.06487384
v -0.08144960 -0.50348097 -0.03657224
v -0.08144960 -0.50037956 -0.01433526
v -0.25027227 -0.46997136 -0.10017310
v -0.14976425 -0.46986443 -0.20964746
v -0.10104907 -0.48013121 -0.20109478
v -0.26144883 -0.47075564 -0.07490382
v -0.26043645 -0.47014961 -0.08112395
v -0.25002930 -0.45991850 -0.15996414
v -0.09675661 -0.50020134 -0.07171600
v -0.08144960 -0.50258976 -0.05492163
v -0.49384826 -0.13965213 -0.05492163
v -0.47882473 -0.24445879 -0.05437737
v -0.47999907 -0.24075136 -0.05056754
v -0.47291249 -0.26591921 -0.03455070
v -0.47226456 -0.26388723 -0.02514275
v -0.47052330 -0.26096407 -0.00718211
v -0.46987537 -0.25982332 -0.00057322
v -0.47404635 -0.26506364 -0.04520268
v -0.47663799 -0.25508207 -0.05492163
v -0.46056157 -0.26096407 0.04273446
v -0.44047618 -0.32092488 -0.03766076
v -0.41042906 -0.37072587 -0.03789402
v -0.08144960 -0.41927916 -0.32176536
v -0.09756652 -0.42013472 -0.32036585
v -0.10096806 -0.42013472 -0.32036585
v -0.10505804 -0.40131229 -0.35239953
v -0.24039154 -0.44002661 -0.23017390
v -0.23978412 -0.39985073 -0.29976165
v -0.23508672 -0.38152736 -0.33272836
v -0.23735443 -0.38922745 -0.31873304
v -0.24901693 -0.44961607 -0.20918095
v -0.25136563 -0.44084653 -0.22146571
v -0.25027227 -0.43008065 -0.24020386
v -0.33093783 -0.40059933 -0.20086151
v -0.36090398 -0.38060051 -0.20086151
v -0.36503443 -0.37500370 -0.20506011
v -0.36920539 -0.36915734 -0.20918095
v -0.27963096 -0.35960352 -0.31943282
v -0.30028331 -0.35022798 -0.31033587
v -0.29007861 -0.35004973 -0.32005483
v -0.35005137 -0.29016021 -0.32005483
v -0.33138329 -0.33136991 -0.30116117
v -0.34077805 -0.32124573 -0.30085015
v -0.33798394 -0.32787636 -0.29758459
v -0.34049460 -0.34049591 -0.28079024
v -0.36053950 -0.36053041 -0.23079590
v -0.37499613 -0.36502212 -0.20506011
v -0.38062492 -0.36088687 -0.20086151
v -0.40058884 -0.33094212 -0.20086151
v -0.44088113 -0.25137460 -0.22146571
v -0.44756275 -0.25497511 -0.20552662
v -0.45088333 -0.25158849 -0.20249431
v -0.44274390 -0.25483251 -0.21454582
v -0.42051226 -0.30092606 -0.20086151
v -0.45464933 -0.24506482 -0.19487464
v -0.45659310 -0.23508324 -0.19487464
v -0.46011615 -0.21094918 -0.20070602
v -0.45995414 -0.25009125 -0.16004190
v -0.47003734 -0.25026950 -0.10032861
v -0.46979439 -0.13965213 -0.20482685
v -0.46951091 -0.13965213 -0.20645964
v -0.46695974 -0.13965213 -0.21454582
v -0.39933348 -0.38901356 -0.04520268
v -0.39439315 -0.39436084 -0.04520268
v -0.39358324 -0.39354092 -0.05492163
v -0.38763052 -0.39853173 -0.05492163
v -0.37017727 -0.41004619 -0.05048979
v -0.21087086 -0.46009672 -0.20070602
v -0.20090914 -0.46009672 -0.21026947
v -0.10505804 -0.47663766 -0.21493457
v -0.10461260 -0.47888350 -0.20467135
v -0.08144960 -0.47717237 -0.21493457
v -0.09784998 -0.48013121 -0.20109478
v -0.25816876 -0.44876051 -0.19487464
v -0.25310689 -0.45171934 -0.19487464
v -0.25160858 -0.45082811 -0.20249431
v -0.24504843 -0.45464250 -0.19487464
v -0.23508672 -0.45660317 -0.19487464
v -0.08144960 -0.50027263 -0.07109398
v -0.47052330 -0.27098131 -0.03758301
v -0.47173813 -0.26303169 -0.06487384
v -0.47230506 -0.26556271 -0.05453288
v -0.47011834 -0.27037528 -0.05080080
v -0.47052330 -0.27098131 -0.04520268
v -0.47019935 -0.26042932 -0.08112395
v -0.46752667 -0.27600774 -0.04520268
v -0.44047618 -0.32088923 -0.04520268
v -0.41844702 -0.35742897 -0.04520268
v -0.08144960 -0.47043478 -0.23009615
v -0.09675661 -0.47022092 -0.23048490
v -0.10125153 -0.47022092 -0.23048490
v -0.23508672 -0.45139849 -0.21252427
v -0.24233529 -0.45057857 -0.21096924
v -0.25488865 -0.44273591 -0.21454582
v -0.24545339 -0.45182627 -0.20552662
v -0.25496966 -0.44751281 -0.20552662
v -0.30080974 -0.42049122 -0.20086151
v -0.34928197 -0.38947701 -0.19883998
v -0.36811203 -0.37874681 -0.19487464
v -0.37163508 -0.37165272 -0.20249431
v -0.32777923 -0.33803618 -0.29758459
v -0.37876216 -0.36815917 -0.19487464
v -0.38953376 -0.34926546 -0.19883998
v -0.44011173 -0.27023268 -0.20023951
v -0.44877762 -0.25814784 -0.19487464
v -0.45177421 -0.25315702 -0.19487464
v -0.40953818 -0.31939200 -0.19829571
v -0.37993652 -0.36990595 -0.18989854
v -0.41010511 -0.37011984 -0.05048979
v -0.39856410 -0.38762328 -0.05492163
v -0.39135602 -0.39133072 -0.07490382
v -0.39050564 -0.39051080 -0.08229022
v -0.38961476 -0.38961959 -0.08897687
v -0.38001749 -0.37999448 -0.16027515
v -0.36993429 -0.37988755 -0.18982078
v -0.27027667 -0.44006225 -0.20023951
v -0.23508672 -0.45435733 -0.20498236
v -0.10477458 -0.47225288 -0.22543104
v -0.12996233 -0.46990007 -0.21991068
v -0.08144960 -0.47175378 -0.22745259
v -0.08144960 -0.47973907 -0.20257205
v -0.08144960 -0.48038074 -0.19876222
v -0.46019712 -0.26042932 -0.13111827
v -0.31931585 -0.40951148 -0.19829571
v -0.37370032 -0.37372035 -0.19487464
v -0.37884313 -0.37888938 -0.16696179
f 1 2 3
f 1 3 8
f 1 8 7
f 1 7 16
f 1 16 34
f 1 34 48
f 1 48 77
f 1 77 87
f 1 87 86
f 1 86 136
f 1 136 135
f 1 135 134
f 1 134 188
f 1 188 255
f 1 255 306
f 1 306 245
f 1 245 305
f 1 305 254
f 1 254 314
f 1 314 383
f 1 383 426
f 1 426 425
f 1 425 376
f 1 376 424
f 1 424 393
f 1 393 327
f 1 327 267
f 1 267 266
f 1 266 202
f 1 202 151
f 1 151 150
f 1 150 149
f 1 149 148
f 1 148 96
f 1 96 61
f 1 61 59
f 1 59 37
f 1 37 21
f 1 21 12
f 1 12 9
f 1 9 4
f 1 4 5
f 1 5 6
f 1 6 2
f 2 7 8
f 2 8 3
f 2 6 7
f 4 9 5
f 5 10 11
f 5 11 6
f 5 9 12
f 5 12 21
f 5 21 39
f 5 39 60
f 5 60 95
f 5 95 113
f 5 113 112
f 5 112 167
f 5 167 213
f 5 213 217
f 5 217 216
f 5 216 224
f 5 224 293
f 5 293 366
f 5 366 365
f 5 365 364
f 5 364 315
f 5 315 256
f 5 256 191
f 5 191 190
f 5 190 189
f 5 189 139
f 5 139 138
f 5 138 88
f 5 88 56
f 5 56 55
f 5 55 35
f 5 35 18
f 5 18 10
f 6 11 13
f 6 13 7
f 7 13 14
f 7 14 15
f 7 15 16
f 10 17 11
f 10 18 19
f 10 19 20
f 10 20 17
f 11 17 13
f 13 17 22
f 13 22 23
f 13 23 24
f 13 24 14
f 14 25 26
f 14 26 15
f 14 24 27
f 14 27 28
f 14 28 25
f 15 29 30
f 15 30 31
f 15 31 32
f 15 32 33
f 15 33 34
f 15 34 16
f 15 26 29
f 17 20 28
f 17 28 22
f 18 35 36
f 18 36 19
f 19 36 20
f 20 36 28
f 21 37 38
f 21 38 39
f 22 28 23
f 23 28 27
f 23 27 24
f 25 28 40
f 25 40 41
f 25 41 42
f 25 42 26
f 26 42 43
f 26 43 29
f 28 36 44
f 28 44 40
f 29 43 45
f 29 45 46
f 29 46 30
f 30 46 47
f 30 47 33
f 30 33 31
f 31 33 32
f 33 48 34
f 33 47 49
f 33 49 50
f 33 50 51
f 33 51 52
f 33 52 53
f 33 53 54
f 33 54 48
f 35 55 36
f 36 55 56
f 36 56 57
f 36 57 58
f 36 58 44
f 37 59 38
f 38 60 39
f 38 59 61
f 38 61 62
f 38 62 63
f 38 63 64
f 38 64 65
f 38 65 66
f 38 66 60
f 40 44 67
f 40 67 41
f 41 67 68
f 41 68 42
f 42 68 45
f 42 45 43
f 44 58 69
f 44 69 67
f 45 70 46
f 45 68 71
f 45 71 72
f 45 72 73
f 45 73 74
f 45 74 75
f 45 75 70
f 46 70 47
f 47 76 49
f 47 70 76
f 48 54 77
f 49 76 78
f 49 78 79
f 49 79 50
f 50 79 80
f 50 80 81
f 50 81 51
f 51 81 82
f 51 82 83
f 51 83 84
f 51 84 85
f 51 85 52
f 52 85 86
f 52 86 87
f 52 87 53
f 53 87 54
f 54 87 77
f 56 88 57
f 57 88 89
f 57 89 90
f 57 90 91
f 57 91 92
f 57 92 93
f 57 93 58
f 58 94 69
f 58 93 94
f 60 66 95
f 61 96 62
f 62 96 97
f 62 97 98
f 62 98 99
f 62 99 100
f 62 100 101
f 62 101 63
f 63 101 102
f 63 102 64
f 64 102 103
f 64 103 104
f 64 104 105
f 64 105 106
f 64 106 107
f 64 107 108
f 64 108 65
f 65 108 66
f 66 108 109
f 66 109 110
f 66 110 111
f 66 111 112
f 66 112 113
f 66 113 95
f 67 69 68
f 68 69 94
f 68 94 114
f 68 114 115
f 68 115 116
f 68 116 117
f 68 117 118
f 68 118 71
f 70 75 76
f 71 118 119
f 71 119 120
f 71 120 121
f 71 121 72
f 72 121 120
f 72 120 73
f 73 120 119
f 73 119 122
f 73 122 123
f 73 123 75
f 73 75 74
f 75 123 78
f 75 78 76
f 78 123 122
f 78 122 124
f 78 124 125
f 78 125 126
f 78 126 127
f 78 127 128
f 78 128 80
f 78 80 79
f 80 128 81
f 81 128 129
f 81 129 130
f 81 130 82
f 82 130 83
f 83 130 131
f 83 131 132
f 83 132 133
f 83 133 84
f 84 134 135
f 84 135 136
f 84 136 85
f 84 133 137
f 84 137 134
f 85 136 86
f 88 138 89
f 89 138 139
f 89 139 140
f 89 140 141
f 89 141 142
f 89 142 90
f 90 142 91
f 91 142 143
f 91 143 144
f 91 144 145
f 91 145 92
f 92 145 146
f 92 146 147
f 92 147 93
f 93 147 94
f 94 147 114
f 96 148 97
f 97 148 149
f 97 149 150
f 97 150 98
f 98 150 151
f 98 151 152
f 98 152 153
f 98 153 99
f 99 153 154
f 99 154 100
f 100 154 155
f 100 155 101
f 101 155 156
f 101 156 102
f 102 156 103
f 103 156 157
f 103 157 154
f 103 154 104
f 104 154 105
f 105 158 106
f 105 154 158
f 106 158 159
f 106 159 160
f 106 160 161
f 106 161 162
f 106 162 163
f 106 163 164
f 106 164 107
f 107 164 110
f 107 110 108
f 108 110 109
f 110 164 165
f 110 165 163
f 110 163 166
f 110 166 111
f 111 167 112
f 111 166 168
f 111 168 169
f 111 169 170
f 111 170 167
f 114 147 115
f 115 147 116
f 116 171 118
f 116 118 117
f 116 147 146
f 116 146 171
f 118 171 119
f 119 172 173
f 119 173 174
f 119 174 175
f 119 175 122
f 119 171 172
f 122 175 124
f 124 175 176
f 124 176 125
f 125 128 126
f 125 176 128
f 126 128 127
f 128 176 177
f 128 177 178
f 128 178 129
f 129 178 179
f 129 179 131
f 129 131 130
f 131 179 180
f 131 180 132
f 132 180 181
f 132 181 133
f 133 182 183
f 133 183 184
f 133 184 137
f 133 181 180
f 133 180 185
f 133 185 186
f 133 186 187
f 133 187 182
f 134 137 188
f 137 184 188
f 139 189 140
f 140 189 190
f 140 190 191
f 140 191 192
f 140 192 193
f 140 193 194
f 140 194 195
f 140 195 196
f 140 196 141
f 141 196 142
f 142 196 143
f 143 196 197
f 143 197 198
f 143 198 144
f 144 146 145
f 144 198 146
f 146 198 199
f 146 199 200
f 146 200 201
f 146 201 171
f 151 202 152
f 152 202 203
f 152 203 158
f 152 158 153
f 153 158 154
f 154 157 155
f 155 157 156
f 158 203 204
f 158 204 205
f 158 205 159
f 159 205 160
f 160 205 206
f 160 206 161
f 161 206 207
f 161 207 208
f 161 208 209
f 161 209 210
f 161 210 162
f 162 210 211
f 162 211 163
f 163 165 164
f 163 211 212
f 163 212 166
f 166 212 168
f 167 170 213
f 168 212 214
f 168 214 215
f 168 215 169
f 169 215 170
f 170 216 217
f 170 217 213
f 170 215 218
f 170 218 219
f 170 219 220
f 170 220 221
f 170 221 222
f 170 222 223
f 170 223 224
f 170 224 216
f 171 201 172
f 172 201 173
f 173 225 226
f 173 226 227
f 173 227 175
f 173 175 174
f 173 201 228
f 173 228 229
f 173 229 225
f 175 227 226
f 175 226 230
f 175 230 231
f 175 231 232
f 175 232 233
f 175 233 234
f 175 234 176
f 176 234 177
f 177 234 178
f 178 234 235
f 178 235 236
f 178 236 237
f 178 237 238
f 178 238 239
f 178 239 240
f 178 240 179
f 179 240 180
f 180 241 242
f 180 242 243
f 180 243 185
f 180 240 239
f 180 239 241
f 182 244 183
f 182 187 244
f 183 244 245
f 183 245 246
f 183 246 188
f 183 188 184
f 185 247 248
f 185 248 186
f 185 243 249
f 185 249 247
f 186 248 250
f 186 250 187
f 187 250 251
f 187 251 252
f 187 252 253
f 187 253 254
f 187 254 244
f 188 246 255
f 191 256 192
f 192 256 257
f 192 257 258
f 192 258 193
f 193 259 194
f 193 258 260
f 193 260 259
f 194 259 195
f 195 261 196
f 195 259 261
f 196 261 262
f 196 262 197
f 197 262 261
f 197 261 263
f 197 263 198
f 198 263 264
f 198 264 265
f 198 265 229
f 198 229 228
f 198 228 200
f 198 200 199
f 200 228 201
f 202 266 203
f 203 266 267
f 203 267 268
f 203 268 204
f 204 268 205
f 205 268 269
f 205 269 270
f 205 270 206
f 206 270 271
f 206 271 208
f 206 208 207
f 208 271 272
f 208 272 209
f 209 272 273
f 209 273 274
f 209 274 275
f 209 275 276
f 209 276 210
f 210 214 211
f 210 276 277
f 210 277 278
f 210 278 279
f 210 279 280
f 210 280 281
f 210 281 282
f 210 282 214
f 211 214 212
f 214 282 215
f 215 282 283
f 215 283 218
f 218 283 281
f 218 281 284
f 218 284 219
f 219 284 285
f 219 285 220
f 220 285 221
f 221 285 222
f 222 285 286
f 222 286 287
f 222 287 288
f 222 288 289
f 222 289 290
f 222 290 291
f 222 291 292
f 222 292 223
f 223 292 291
f 223 291 293
f 223 293 224
f 225 294 295
f 225 295 230
f 225 230 226
f 225 229 294
f 229 265 264
f 229 264 296
f 229 296 294
f 230 295 231
f 231 295 235
f 231 235 233
f 231 233 232
f 233 235 234
f 235 295 236
f 236 297 298
f 236 298 299
f 236 299 237
f 236 295 297
f 237 299 300
f 237 300 301
f 237 301 238
f 238 301 239
f 239 301 242
f 239 242 241
f 242 301 243
f 243 301 300
f 243 300 302
f 243 302 303
f 243 303 304
f 243 304 249
f 244 254 305
f 244 305 245
f 245 306 246
f 246 306 255
f 247 249 307
f 247 307 308
f 247 308 309
f 247 309 248
f 248 309 250
f 249 304 310
f 249 310 311
f 249 311 312
f 249 312 307
f 250 309 253
f 250 253 251
f 251 253 252
f 253 309 377
f 253 377 313
f 253 313 314
f 253 314 254
f 256 315 257
f 257 316 317
f 257 317 258
f 257 315 291
f 257 291 316
f 258 317 316
f 258 316 260
f 259 318 319
f 259 319 320
f 259 320 321
f 259 321 263
f 259 263 261
f 259 260 322
f 259 322 318
f 260 316 323
f 260 323 322
f 263 321 264
f 264 321 320
f 264 320 324
f 264 324 325
f 264 325 326
f 264 326 296
f 267 327 328
f 267 328 329
f 267 329 330
f 267 330 268
f 268 330 269
f 269 330 331
f 269 331 332
f 269 332 270
f 270 332 271
f 271 332 333
f 271 333 272
f 272 333 273
f 273 275 274
f 273 333 334
f 273 334 332
f 273 332 335
f 273 335 336
f 273 336 337
f 273 337 338
f 273 338 339
f 273 339 340
f 273 340 341
f 273 341 275
f 275 342 276
f 275 341 342
f 276 342 343
f 276 343 344
f 276 344 345
f 276 345 277
f 277 345 278
f 278 345 346
f 278 346 347
f 278 347 348
f 278 348 349
f 278 349 350
f 278 350 341
f 278 341 279
f 279 281 280
f 279 341 281
f 281 283 282
f 281 341 351
f 281 351 352
f 281 352 353
f 281 353 354
f 281 354 284
f 284 355 356
f 284 356 286
f 284 286 285
f 284 354 357
f 284 357 358
f 284 358 355
f 286 356 359
f 286 359 287
f 287 359 288
f 288 359 289
f 289 359 360
f 289 360 361
f 289 361 290
f 290 361 362
f 290 362 363
f 290 363 291
f 291 315 364
f 291 364 365
f 291 365 366
f 291 366 293
f 291 363 316
f 294 296 295
f 295 296 297
f 296 326 367
f 296 367 298
f 296 298 297
f 298 367 368
f 298 368 299
f 299 368 369
f 299 369 370
f 299 370 371
f 299 371 300
f 300 371 302
f 302 371 311
f 302 311 310
f 302 310 303
f 303 310 304
f 307 312 308
f 308 312 372
f 308 372 373
f 308 373 374
f 308 374 375
f 308 375 309
f 309 375 374
f 309 374 376
f 309 376 377
f 311 378 379
f 311 379 312
f 311 371 378
f 312 379 380
f 312 380 381
f 312 381 382
f 312 382 372
f 313 383 314
f 313 377 383
f 316 363 323
f 318 322 384
f 318 384 320
f 318 320 319
f 320 384 325
f 320 325 324
f 322 323 385
f 322 385 386
f 322 386 387
f 322 387 388
f 322 388 384
f 323 363 362
f 323 362 389
f 323 389 385
f 325 384 390
f 325 390 391
f 325 391 392
f 325 392 326
f 326 392 367
f 327 393 328
f 328 393 394
f 328 394 395
f 328 395 329
f 329 395 373
f 329 373 330
f 330 373 396
f 330 396 331
f 331 396 397
f 331 397 335
f 331 335 332
f 332 334 333
f 335 398 336
f 335 397 399
f 335 399 380
f 335 380 400
f 335 400 401
f 335 401 398
f 336 398 338
f 336 338 337
f 338 398 401
f 338 401 402
f 338 402 339
f 339 402 403
f 339 403 404
f 339 404 340
f 340 404 341
f 341 404 351
f 341 350 342
f 342 350 349
f 342 349 343
f 343 349 405
f 343 405 344
f 344 405 346
f 344 346 345
f 346 405 349
f 346 349 348
f 346 348 347
f 351 404 352
f 352 404 406
f 352 406 407
f 352 407 353
f 353 358 354
f 353 407 358
f 354 358 357
f 355 358 408
f 355 408 356
f 356 408 409
f 356 409 410
f 356 410 362
f 356 362 359
f 358 407 411
f 358 411 412
f 358 412 408
f 359 362 360
f 360 362 361
f 362 410 389
f 367 392 413
f 367 413 414
f 367 414 369
f 367 369 368
f 369 414 415
f 369 415 370
f 370 415 416
f 370 416 417
f 370 417 418
f 370 418 419
f 370 419 420
f 370 420 378
f 370 378 371
f 372 382 373
f 373 421 397
f 373 397 396
f 373 395 422
f 373 422 423
f 373 423 374
f 373 382 381
f 373 381 421
f 374 423 422
f 374 422 395
f 374 395 376
f 376 395 424
f 376 425 377
f 377 425 426
f 377 426 383
f 378 420 380
f 378 380 379
f 380 399 381
f 380 420 400
f 381 399 421
f 384 388 390
f 385 389 386
f 386 389 413
f 386 413 387
f 387 413 390
f 387 390 388
f 389 410 427
f 389 427 413
f 390 413 391
f 391 413 392
f 393 424 395
f 393 395 394
f 397 421 399
f 400 420 401
f 401 420 428
f 401 428 402
f 402 428 419
f 402 419 403
f 403 419 404
f 404 419 429
f 404 429 412
f 404 412 406
f 406 412 407
f 407 412 411
f 408 412 414
f 408 414 409
f 409 414 413
f 409 413 427
f 409 427 410
f 412 429 419
f 412 419 430
f 412 430 418
f 412 418 414
f 414 418 417
f 414 417 416
f 414 416 415
f 418 430 419
f 419 428 420

