# https://github.com/mikedh/trimesh
v -0.09497898 -0.50393707 -0.04514359
v -0.08497487 -0.50260478 -0.04514359
v -0.09497898 -0.50352073 -0.03511676
v -0.11144957 -0.50347912 -0.03511676
v -0.11144957 -0.50385380 -0.04514359
v -0.11144957 -0.50368726 -0.04649641
v -0.11144957 -0.50264645 -0.05493167
v -0.09497898 -0.50268805 -0.05493167
v 0.05664587 -0.47974777 -0.04840628
v 0.05664587 -0.48016411 -0.04323371
v 0.05664587 -0.48016411 -0.03829988
v -0.06926116 -0.50010675 -0.03933439
v -0.08497487 -0.50218844 -0.03511676
v -0.08428379 -0.50118923 -0.05548872
v -0.08854541 -0.50019002 -0.01832581
v -0.09045409 -0.48994806 0.04971334
v -0.09497898 -0.48794964 0.06499231
v -0.11144957 -0.49019787 0.05130490
v -0.11144957 -0.49985695 -0.01084549
v -0.11144957 -0.50019002 -0.07196136
v -0.09497898 -0.49494416 -0.10490663
v -0.09000983 -0.49994022 -0.06989233
v 0.05664587 -0.47833222 -0.05779648
v 0.05664587 -0.47966450 -0.03511676
v -0.08902258 -0.48016411 0.11098836
v -0.09497898 -0.47858202 0.12499408
v -0.11144957 -0.47983104 0.11695671
v -0.11144957 -0.47983104 -0.20262836
v -0.09464990 -0.47933143 -0.20469739
v -0.09111226 -0.47983104 -0.19928609
v -0.08884159 -0.49019787 -0.13132651
v -0.08767334 -0.48041391 -0.19268112
v -0.08497487 -0.47799915 -0.20485654
v 0.05664587 -0.45455924 -0.20485654
v 0.05664587 -0.45539191 0.11496726
v -0.08497487 -0.47724974 0.12499408
v -0.09497898 -0.47554272 0.13494132
v -0.11144957 -0.47591746 0.13350892
v -0.11144957 -0.47849876 0.12499408
v -0.11144957 -0.47720808 -0.21496294
v -0.09497898 -0.47729135 -0.21496294
v -0.08497487 -0.47591746 -0.21496294
v 0.05664587 -0.45185304 -0.21440589
v 0.05664587 -0.45339349 0.12499408
v -0.04996047 -0.46996379 0.13000749
v -0.08497487 -0.47416881 0.13494132
v -0.08497487 -0.47092137 0.14162588
v -0.09497898 -0.47162914 0.14289913
v -0.11144957 -0.47158751 0.14281955
v -0.11144957 -0.47545946 0.13494132
v -0.11144957 -0.47654194 -0.21655451
v -0.08497487 -0.47229528 -0.22403483
v -0.09399173 -0.47258672 -0.22594470
v -0.07498720 -0.47129607 -0.22228412
v 0.05664587 -0.45056239 -0.21735029
v 0.05664587 -0.45206121 0.12921171
v 0.05664587 -0.45110363 0.13199694
v -0.08910485 -0.45014605 0.18030076
v -0.11144957 -0.46921438 0.14711675
v -0.09231341 -0.43977922 0.19955863
v -0.09497898 -0.43211856 0.21380308
v -0.11144957 -0.43828037 0.20290092
v -0.11144957 -0.47250345 -0.22586513
v 0.05664587 -0.44964644 -0.21933973
v -0.08999338 -0.46996379 -0.22992361
v -0.11144957 -0.47179568 -0.22745669
v -0.11144957 -0.47046340 -0.23008275
v -0.09497898 -0.40622228 -0.34499332
v -0.09450181 -0.41779649 -0.32422349
v -0.09084899 -0.41991982 -0.31984669
v 0.05664587 -0.44923010 0.13533922
v -0.08945039 -0.40010208 0.27014428
v -0.09497898 -0.40035188 0.27062175
v -0.11144957 -0.40035188 0.27062175
v 0.05664587 -0.44660717 -0.22483061
v -0.11144957 -0.41933694 -0.32175657
v -0.09497898 -0.40172580 -0.35303071
v -0.08497487 -0.39818692 -0.35677087
v 0.05664587 -0.37932676 0.25876462
v 0.05664587 -0.37574625 0.26473299
v 0.05664587 -0.37308168 0.26863229
v 0.05664587 -0.37124979 0.27101964
v -0.07890329 -0.39019322 0.28009152
v -0.09497898 -0.39647993 0.27563515
v 0.05664587 -0.37736997 0.26202732
v -0.11144957 -0.39731261 0.27460065
v 0.05664587 -0.37820265 -0.34570953
v -0.11144957 -0.39881143 -0.35796455
v -0.09497898 -0.39885306 -0.35804412
v -0.07498720 -0.39210838 -0.36218217
v -0.05794072 -0.39035976 -0.36043146
v 0.05664587 -0.24501576 0.34582290
v -0.08497487 -0.39077610 0.28048941
v 0.05664587 -0.24106053 0.34813067
v -0.09497898 -0.39144224 0.28088731
v -0.11144957 -0.39135897 0.28088731
v 0.05664587 -0.37283188 -0.35318986
v -0.11144957 -0.39381537 -0.36337584
v -0.09497898 -0.39385700 -0.36345541
v -0.08497487 -0.39314923 -0.36297795
v -0.08497487 -0.38594654 -0.36799136
v 0.05664587 -0.36691985 -0.35820326
v 0.05664587 -0.37099999 -0.35494056
v 0.05664587 -0.23847923 0.34948349
v -0.03987408 -0.25030327 0.35012013
v -0.04497486 -0.25059471 0.35027927
v -0.05116162 -0.25059471 0.35027927
v -0.11144957 -0.38503060 0.28351337
v -0.11144957 -0.38640451 -0.36846882
v -0.09497898 -0.38669595 -0.36846882
v 0.05664587 -0.24501576 -0.43380234
v 0.05664587 -0.23523179 0.35043845
v -0.04497486 -0.24501576 0.35195041
v -0.04497486 -0.23510689 0.35362154
v -0.05316902 -0.24501576 0.35091591
v -0.11144957 -0.23510689 0.33929753
v -0.11144957 -0.24501576 0.33587566
v -0.11144957 -0.38557184 -0.36886671
v -0.09162234 -0.34073213 -0.39035276
v -0.08727844 -0.34073213 -0.39035276
v 0.05664587 -0.23543996 -0.43849742
v 0.05664587 -0.23356643 0.35083634
v 0.05664587 -0.22748788 0.35155252
v 0.05664587 -0.22503147 0.35179126
v -0.02499955 -0.16503701 0.35680467
v -0.03498720 -0.18502128 0.35561100
v -0.04497486 -0.22503147 0.35386029
v -0.03498720 -0.17502914 0.35553142
v -0.03498720 -0.16503701 0.35529268
v -0.11144957 -0.22657193 0.33874047
v -0.11144957 -0.36067477 -0.38032594
v -0.11144957 -0.23510689 -0.43746290
v -0.07498720 -0.24501576 -0.43467769
v -0.06496663 -0.23543996 -0.43849742
v 0.05664587 -0.23373297 -0.43905446
v 0.05664587 -0.21512261 0.35195041
v -0.02499955 -0.15500323 0.35696381
v -0.03498720 -0.15500323 0.35457650
v -0.11144957 -0.22503147 0.33858132
v -0.11144957 -0.22457349 -0.43929321
v -0.07862357 -0.22965284 -0.43992981
v -0.07195964 -0.23023571 -0.44000942
v -0.07516820 -0.23423257 -0.43881574
v -0.06496663 -0.23036061 -0.44000942
v 0.05664587 -0.23036061 -0.44000942
v 0.05664587 -0.18839362 0.35226873
v 0.05664587 -0.13839130 0.35282576
v 0.05664587 -0.12835753 0.35290536
v 0.05664587 -0.11836539 0.35266662
v 0.05664587 -0.11515957 0.35234830
v -0.02499955 -0.14501110 0.35592932
v -0.04558367 -0.15508650 0.35131380
v -0.07498720 -0.07860500 0.33340874
v -0.08145368 -0.07860500 0.33110100
v -0.11144957 -0.07860500 0.31582204
v -0.05432081 -0.15508650 0.34860814
v -0.06496663 -0.15500323 0.34526587
v -0.11144957 -0.08501662 -0.45536795
v -0.06496663 -0.22503147 -0.44064602
v 0.05664587 -0.22857036 -0.44024813
v 0.05664587 -0.07860500 0.34844899
v -0.02136318 -0.10774875 0.35035884
v -0.02499955 -0.13501896 0.35433775
v -0.03498720 -0.07860500 0.34240106
v -0.11144957 -0.07860500 -0.45560667
v -0.11144957 -0.08355944 -0.45544752
v -0.07498720 -0.07860500 -0.45600456
v -0.07498720 -0.08501662 -0.45560667
v -0.07498720 -0.09500876 -0.45457217
v -0.07498720 -0.11503467 -0.45242357
v 0.05664587 -0.22503147 -0.44064602
v -0.01502834 -0.07860500 0.34590250
v 0.05664587 -0.07860500 -0.45504963
v -0.02499955 -0.07860500 0.34454966
v -0.02858655 -0.07860500 0.34383348
v -0.06137964 -0.07860500 -0.45592499
v 0.00497989 -0.07860500 -0.45544752
v -0.06496663 -0.08501662 -0.45552710
f 1 2 13
f 1 13 3
f 1 3 4
f 1 4 5
f 1 5 6
f 1 6 7
f 1 7 8
f 1 8 2
f 2 9 10
f 2 10 11
f 2 11 12
f 2 12 13
f 2 8 14
f 2 14 9
f 3 13 15
f 3 15 16
f 3 16 17
f 3 17 18
f 3 18 19
f 3 19 4
f 4 19 18
f 4 18 27
f 4 27 39
f 4 39 38
f 4 38 50
f 4 50 49
f 4 49 59
f 4 59 62
f 4 62 74
f 4 74 86
f 4 86 96
f 4 96 108
f 4 108 117
f 4 117 116
f 4 116 130
f 4 130 139
f 4 139 155
f 4 155 165
f 4 165 166
f 4 166 158
f 4 158 140
f 4 140 132
f 4 132 131
f 4 131 118
f 4 118 109
f 4 109 98
f 4 98 88
f 4 88 76
f 4 76 67
f 4 67 66
f 4 66 63
f 4 63 51
f 4 51 40
f 4 40 28
f 4 28 20
f 4 20 7
f 4 7 6
f 4 6 5
f 7 20 8
f 8 20 21
f 8 21 22
f 8 22 14
f 9 14 22
f 9 22 23
f 9 23 34
f 9 34 43
f 9 43 55
f 9 55 64
f 9 64 75
f 9 75 87
f 9 87 97
f 9 97 103
f 9 103 102
f 9 102 111
f 9 111 121
f 9 121 135
f 9 135 145
f 9 145 160
f 9 160 171
f 9 171 173
f 9 173 161
f 9 161 150
f 9 150 149
f 9 149 148
f 9 148 147
f 9 147 146
f 9 146 136
f 9 136 124
f 9 124 123
f 9 123 122
f 9 122 112
f 9 112 104
f 9 104 94
f 9 94 92
f 9 92 82
f 9 82 81
f 9 81 80
f 9 80 85
f 9 85 79
f 9 79 71
f 9 71 57
f 9 57 56
f 9 56 44
f 9 44 35
f 9 35 24
f 9 24 11
f 9 11 10
f 11 24 25
f 11 25 16
f 11 16 15
f 11 15 13
f 11 13 12
f 16 25 26
f 16 26 17
f 17 26 18
f 18 26 27
f 20 28 21
f 21 28 29
f 21 29 22
f 22 29 30
f 22 30 31
f 22 31 23
f 23 31 32
f 23 32 33
f 23 33 34
f 24 35 36
f 24 36 25
f 25 36 26
f 26 36 37
f 26 37 38
f 26 38 39
f 26 39 27
f 28 40 41
f 28 41 29
f 29 41 33
f 29 33 30
f 30 32 31
f 30 33 32
f 33 41 42
f 33 42 34
f 34 42 43
f 35 44 36
f 36 44 45
f 36 45 46
f 36 46 37
f 37 46 47
f 37 47 48
f 37 48 49
f 37 49 50
f 37 50 38
f 40 51 41
f 41 52 42
f 41 51 53
f 41 53 52
f 42 52 54
f 42 54 43
f 43 54 52
f 43 52 55
f 44 56 45
f 45 56 57
f 45 57 46
f 46 57 47
f 47 57 58
f 47 58 48
f 48 59 49
f 48 58 60
f 48 60 61
f 48 61 62
f 48 62 59
f 51 63 53
f 52 64 55
f 52 53 65
f 52 65 64
f 53 66 67
f 53 67 68
f 53 68 69
f 53 69 70
f 53 70 65
f 53 63 66
f 57 71 72
f 57 72 58
f 58 72 60
f 60 72 61
f 61 72 73
f 61 73 62
f 62 73 74
f 64 65 75
f 65 70 75
f 67 76 68
f 68 77 70
f 68 70 69
f 68 76 77
f 70 77 78
f 70 78 75
f 71 79 72
f 72 80 81
f 72 81 82
f 72 82 83
f 72 83 84
f 72 84 73
f 72 79 85
f 72 85 80
f 73 84 86
f 73 86 74
f 75 78 87
f 76 88 77
f 77 88 89
f 77 89 78
f 78 89 90
f 78 90 91
f 78 91 87
f 82 92 83
f 83 93 84
f 83 92 94
f 83 94 93
f 84 93 95
f 84 95 96
f 84 96 86
f 87 91 97
f 88 98 99
f 88 99 89
f 89 99 100
f 89 100 90
f 90 100 101
f 90 101 102
f 90 102 103
f 90 103 91
f 91 103 97
f 93 94 104
f 93 104 95
f 95 104 105
f 95 105 106
f 95 106 107
f 95 107 96
f 96 107 108
f 98 109 110
f 98 110 99
f 99 110 100
f 100 110 101
f 101 110 111
f 101 111 102
f 104 106 105
f 104 112 113
f 104 113 106
f 106 113 107
f 107 113 114
f 107 114 115
f 107 115 116
f 107 116 117
f 107 117 108
f 109 118 110
f 110 118 119
f 110 119 120
f 110 120 121
f 110 121 111
f 112 122 113
f 113 122 114
f 114 122 123
f 114 123 124
f 114 124 125
f 114 125 126
f 114 126 127
f 114 127 116
f 114 116 115
f 116 127 128
f 116 128 129
f 116 129 130
f 118 131 119
f 119 131 132
f 119 132 133
f 119 133 120
f 120 133 121
f 121 133 134
f 121 134 135
f 124 136 125
f 125 137 126
f 125 136 137
f 126 137 128
f 126 128 127
f 128 137 129
f 129 137 138
f 129 138 130
f 130 138 139
f 132 140 141
f 132 141 142
f 132 142 143
f 132 143 133
f 133 143 134
f 134 143 144
f 134 144 135
f 135 144 145
f 136 146 137
f 137 146 147
f 137 147 148
f 137 148 149
f 137 149 150
f 137 150 151
f 137 151 138
f 138 152 139
f 138 151 153
f 138 153 152
f 139 153 154
f 139 154 155
f 139 152 156
f 139 156 157
f 139 157 153
f 140 158 141
f 141 158 142
f 142 159 144
f 142 144 143
f 142 158 159
f 144 159 160
f 144 160 145
f 150 161 151
f 151 161 162
f 151 162 163
f 151 163 153
f 152 153 156
f 153 157 156
f 153 163 164
f 153 164 175
f 153 175 174
f 153 174 172
f 153 172 161
f 153 161 173
f 153 173 177
f 153 177 176
f 153 176 167
f 153 167 165
f 153 165 155
f 153 155 154
f 158 166 167
f 158 167 168
f 158 168 169
f 158 169 170
f 158 170 159
f 159 170 169
f 159 169 171
f 159 171 160
f 161 172 162
f 162 172 174
f 162 174 175
f 162 175 163
f 163 175 164
f 165 167 166
f 167 176 168
f 168 176 177
f 168 177 173
f 168 173 178
f 168 178 171
f 168 171 169
f 171 178 173

