# https://github.com/mikedh/trimesh
v -0.09668875 -0.16961786 -0.44690520
v -0.24503019 -0.16961786 -0.44459414
v -0.24503019 -0.10490292 -0.45439613
v -0.24503019 -0.09487668 -0.45567119
v -0.21509081 -0.09487668 -0.45551181
v -0.18503185 -0.09487668 -0.45527273
v -0.10506062 -0.08491553 -0.45543212
v -0.09648943 -0.08419937 -0.45535243
v -0.09648943 -0.16961786 0.32522094
v -0.25519603 -0.16961786 -0.44308001
v -0.25503656 -0.10490292 -0.45415705
v -0.18503185 -0.08491553 -0.45583057
v -0.14504623 -0.08491553 -0.45567119
v -0.11506699 -0.08491553 -0.45551181
v -0.25503656 -0.09487668 -0.45519304
v -0.24503019 -0.08491553 -0.45527273
v -0.09648943 0.07511394 -0.45304140
v -0.09648943 -0.07482417 -0.45575088
v -0.09648943 0.00512546 0.34578121
v -0.19503821 -0.05483676 0.35526446
v -0.19503821 -0.06486301 0.35406908
v -0.19503821 -0.07482417 0.35279402
v -0.24503019 -0.16961786 0.34721565
v -0.26576054 -0.10490292 -0.45033190
v -0.26400644 -0.16961786 -0.43901578
v -0.26631865 -0.09487668 -0.45073035
v -0.25503656 -0.08491553 -0.45407736
v -0.25053170 -0.04331307 -0.45017251
v -0.24503019 -0.05483676 -0.45224449
v -0.09648943 0.24490923 -0.43821886
v -0.09648943 0.08514019 -0.45256326
v -0.09648943 0.23325534 -0.43933454
v -0.09648943 0.05512653 0.34681720
v -0.14504623 0.10512760 0.35661918
v -0.14504623 0.09510134 0.35638011
v -0.20504458 -0.04487561 0.35789424
v -0.19503821 -0.04487561 0.35630044
v -0.22501746 -0.05483676 0.35797393
v -0.25503656 -0.07482417 0.35741609
v -0.25487709 -0.16961786 0.34729534
v -0.28106907 -0.10262424 -0.44068930
v -0.37076762 -0.10210338 -0.38052258
v -0.34086812 -0.10229871 -0.40060472
v -0.36351198 -0.16961786 -0.37199566
v -0.27504930 -0.09487668 -0.44499260
v -0.26516253 -0.08491553 -0.44993344
v -0.20285195 0.23494808 -0.42188221
v -0.21042649 0.17107953 -0.43017009
v -0.19950321 0.19933534 -0.42993101
v -0.18503185 0.23494808 -0.42793873
v -0.16338460 0.24334671 -0.42969194
v -0.15840134 0.24829473 -0.42969194
v -0.15174372 0.25024790 -0.43017009
v -0.09648943 0.25552145 -0.43415463
v -0.09648943 0.09510134 0.34681720
v -0.15505260 0.11508875 0.35733640
v -0.09648943 0.24490923 0.34347019
v -0.21509081 -0.04487561 0.35829270
v -0.24503019 -0.06486301 0.35789424
v -0.26504293 -0.07482417 0.35725671
v -0.26504293 -0.08491553 0.35622075
v -0.26564091 -0.16961786 0.34243420
v -0.27504930 -0.08491553 0.35478631
v -0.31068954 -0.09995490 0.34044191
v -0.37917936 -0.16961786 -0.36131704
v -0.38767081 -0.10490292 -0.36840954
v -0.38830864 -0.09487668 -0.36888769
v -0.37591034 -0.09487668 -0.37725526
v -0.37036896 -0.08862653 -0.38020381
v -0.34042957 -0.08849633 -0.40028596
v -0.28015217 -0.08472021 -0.43997207
v -0.26344830 -0.07482417 -0.44889745
v -0.24961479 0.23859400 -0.38968706
v -0.21971528 0.23878932 -0.40968949
v -0.19966267 0.24529988 -0.42108530
v -0.19503821 0.23494808 -0.42554799
v -0.29406539 -0.06577450 -0.42650428
v -0.18503185 0.24490923 -0.42658398
v -0.19320437 0.25252658 -0.42164314
v -0.18503185 0.25682354 -0.42116499
v -0.09820366 0.37811521 -0.36123735
v -0.09648943 0.38456064 -0.35701373
v -0.23502383 -0.05483676 0.35805362
v -0.19503821 0.18494701 0.35239556
v -0.18503185 0.16508982 0.35375032
v -0.09648943 0.25786525 0.34187636
v -0.20771560 0.20675738 0.35064235
v -0.21509081 0.21463515 0.34753442
v -0.37467450 -0.16961786 0.27804387
v -0.28409889 -0.08491553 0.35167834
v -0.39030194 -0.08224620 0.28027523
v -0.39161754 -0.09487668 0.28099242
v -0.39062089 -0.10770246 0.28035492
v -0.38364434 -0.16961786 0.27262488
v -0.38452139 -0.16961786 -0.35677466
v -0.39345139 -0.10490292 -0.36346871
v -0.39377031 -0.09487668 -0.36386716
v -0.39281350 -0.08491553 -0.36307025
v -0.38468087 -0.08491553 -0.36968461
v -0.36650196 -0.06486301 -0.37765372
v -0.29757360 -0.08491553 -0.42833719
v -0.37890029 -0.06486301 -0.36928615
v -0.27955416 0.23833358 -0.36960492
v -0.29107544 0.24100290 -0.36059985
v -0.19105160 0.27088636 -0.41056609
v -0.14050150 0.38000327 -0.34992123
v -0.09888138 0.39048529 -0.35071814
v -0.09648943 0.39432651 -0.34498039
v -0.10506062 0.26066479 0.34036222
v -0.16505897 0.25168023 0.34084037
v -0.09648943 0.37466460 0.27796417
v -0.17502548 0.25109428 0.34052160
v -0.18766300 0.25024790 0.34012315
v -0.35984433 0.05981413 0.26967630
v -0.21784157 0.22615883 0.34203574
v -0.31898165 0.23195323 0.25891802
v -0.32982522 0.19490817 0.25979462
v -0.39241487 -0.07567054 0.27525467
v -0.39604267 -0.08582701 0.27389994
v -0.39831501 -0.09370479 0.27286395
v -0.37024936 0.02120653 0.27015445
v -0.39165741 -0.06486301 0.27254519
v -0.39851436 -0.10327530 0.27246550
v -0.46461222 -0.16961786 0.13507821
v -0.39193648 -0.16961786 -0.34824774
v -0.39990968 -0.10490292 -0.35478240
v -0.40018874 -0.09487668 -0.35534021
v -0.39787650 -0.08491553 -0.35613713
v -0.39153782 -0.07482417 -0.36155611
v -0.38025573 -0.02866432 -0.36028108
v -0.37491369 -0.03491446 -0.36538130
v -0.31806475 0.21489558 -0.34872589
v -0.31041047 0.23104176 -0.35008061
v -0.30905503 0.23774762 -0.34912431
v -0.19093201 0.34087485 -0.36059985
v -0.18957657 0.32961157 -0.36976430
v -0.19164960 0.31170756 -0.38123980
v -0.19053335 0.30037916 -0.39016518
v -0.30391231 0.24367222 -0.34920400
v -0.18766300 0.37095362 -0.34091616
v -0.18008846 0.34992450 -0.35996231
v -0.17502548 0.36815405 -0.34880558
v -0.17502548 0.37420887 -0.34370533
v -0.17374976 0.38084966 -0.33661285
v -0.17881274 0.38963890 -0.31947929
v -0.18865965 0.43957487 -0.22942844
v -0.18778260 0.45038238 -0.21078074
v -0.14233534 0.46034354 -0.21070105
v -0.12678760 0.45917162 -0.21874985
v -0.09648943 0.46242690 -0.22432822
v -0.09648943 0.38403982 0.27262488
v -0.10506062 0.38260749 0.27166858
v -0.19021443 0.28006625 0.31996134
v -0.18116483 0.37075830 0.26051185
v -0.19129081 0.36118776 0.26083061
v -0.31140712 0.24126333 0.26091030
v -0.32165268 0.23813826 0.25222397
v -0.32882857 0.22492182 0.24800035
v -0.33058268 0.21216114 0.25094894
v -0.33971199 0.15936053 0.25939617
v -0.45002127 -0.08960313 0.17994425
v -0.43873918 -0.09754601 0.20209834
v -0.36096057 0.07511394 0.26154783
v -0.38978371 -0.05060489 0.26943722
v -0.39066076 -0.05731077 0.27095136
v -0.47126985 -0.10490292 0.14217070
v -0.47489765 -0.10490292 0.13491882
v -0.47808695 -0.10490292 0.12479806
v -0.47063199 -0.16961786 0.11451793
v -0.46226013 -0.16961786 -0.22400945
v -0.43056664 -0.10249403 -0.30107066
v -0.42016160 -0.09943408 -0.32027617
v -0.40604904 -0.09487668 -0.34490070
v -0.41972309 -0.09136099 -0.31963867
v -0.35147247 0.10779692 -0.34776959
v -0.39006275 -0.06427707 -0.36004201
v -0.43016797 -0.08908227 -0.30035344
v -0.40050766 0.22205719 -0.21086043
v -0.39480680 0.23494808 -0.21492468
v -0.39054117 0.23781273 -0.22098120
v -0.37965775 0.23865911 -0.23938982
v -0.33046308 0.20180935 -0.34067708
v -0.32241014 0.22492182 -0.34250998
v -0.33959240 0.14425604 -0.34952277
v -0.31519440 0.23546892 -0.34521946
v -0.31391868 0.22492182 -0.34912431
v -0.32117429 0.23716167 -0.33916295
v -0.31128752 0.24744835 -0.34099585
v -0.18626769 0.36105755 -0.34896493
v -0.27979335 0.32961157 -0.29963621
v -0.26930860 0.33931231 -0.29915807
v -0.20030053 0.37004212 -0.33015788
v -0.19416116 0.37160465 -0.33406273
v -0.18881911 0.37915689 -0.32872343
v -0.18371627 0.37902671 -0.33342519
v -0.19057322 0.42023849 -0.26058763
v -0.19164960 0.43091583 -0.24178055
v -0.19280571 0.44152802 -0.22273439
v -0.19495848 0.44484842 -0.21484499
v -0.19503821 0.44979644 -0.20488361
v -0.18503185 0.45318192 -0.20488361
v -0.14899297 0.45969248 -0.20886816
v -0.09648943 0.46809110 -0.21245426
v -0.09648943 0.39048529 0.26680744
v -0.15955746 0.37974286 0.25963524
v -0.12012997 0.37993819 0.26983568
v -0.17502548 0.37694329 0.25652730
v -0.17777623 0.38039392 0.25086924
v -0.18415479 0.37440419 0.25437564
v -0.19220772 0.37147444 0.25158644
v -0.18782246 0.36789364 0.25820079
v -0.19507807 0.36496389 0.25501317
v -0.29968652 0.27954540 0.23955312
v -0.30881584 0.25884181 0.24879727
v -0.31180578 0.25220105 0.25158644
v -0.31495520 0.24458371 0.25493348
v -0.29984596 0.28957164 0.22951204
v -0.30981249 0.35975546 0.13970028
v -0.32296824 0.36483368 0.11475700
v -0.34042957 0.24067737 0.22074604
v -0.32946643 0.23664084 0.24122661
v -0.37012976 0.24028674 0.17014225
v -0.34963864 0.12257589 0.25923678
v -0.39066076 0.23572935 0.13699079
v -0.44073248 0.05323847 0.13133273
v -0.44998139 0.02022995 0.12989829
v -0.46038640 -0.08817080 0.16073871
v -0.47154891 -0.09487668 0.14272854
v -0.39915222 0.22166654 0.12838416
v -0.47537604 -0.09487668 0.13491882
v -0.47840586 -0.09487668 0.12479806
v -0.48039916 -0.10242891 0.11284442
v -0.49467120 -0.16961786 -0.03490270
v -0.46688458 -0.16961786 -0.21476530
v -0.47226650 -0.10464251 -0.22544388
v -0.47007388 -0.09468135 -0.23006597
v -0.44894487 -0.09487668 -0.26807857
v -0.32771233 0.22537756 -0.33462057
v -0.35848889 0.23494808 -0.27748212
v -0.47190768 -0.08491553 -0.22353131
v -0.47035292 -0.07221994 -0.22058274
v -0.45990801 -0.02990133 -0.21994521
v -0.41980281 0.14952959 -0.20934631
v -0.39967048 0.22869796 -0.20910724
v -0.39054117 0.24582072 -0.21667787
v -0.34995756 0.23989612 -0.28983420
v -0.32922721 0.23195323 -0.32880312
v -0.33935320 0.23781273 -0.30888036
v -0.33062252 0.24100290 -0.32107309
v -0.31977898 0.36965150 -0.19962400
v -0.29984596 0.34959897 -0.24966995
v -0.29055718 0.35038024 -0.26058763
v -0.27903593 0.33905187 -0.28895763
v -0.31164631 0.37127912 -0.20767279
v -0.30901515 0.37928712 -0.19866772
v -0.29079640 0.39042017 -0.20073968
v -0.26077726 0.41040757 -0.20073968
v -0.20257288 0.44165823 -0.21261364
v -0.20954944 0.44113740 -0.20464455
v -0.23035949 0.43013456 -0.20034122
v -0.19922414 0.45057771 -0.19452378
v -0.19503821 0.45428872 -0.18488117
v -0.18503185 0.45559081 -0.19492224
v -0.09684822 0.47004426 -0.20496330
v -0.11506699 0.46678898 -0.20488361
v -0.09648943 0.49413332 -0.05498484
v -0.09648943 0.46470562 0.13555636
v -0.10549915 0.46275243 0.13571574
v -0.13137218 0.46021333 0.13037644
v -0.18503185 0.44152802 0.14264885
v -0.18710488 0.37811521 0.24696437
v -0.19029416 0.43006945 0.16010118
v -0.19467942 0.37459952 0.24449396
v -0.19886535 0.36874002 0.24855819
v -0.21971528 0.35956013 0.23947343
v -0.24040574 0.35018492 0.23030895
v -0.26113605 0.34074461 0.22082573
v -0.28090960 0.32088745 0.22074604
v -0.28102922 0.33110899 0.21102372
v -0.29043758 0.31040543 0.22042727
v -0.28983960 0.33970293 0.18966654
v -0.30052370 0.36040652 0.15061796
v -0.30905503 0.36913064 0.12894200
v -0.31184563 0.37147444 0.12232764
v -0.32145336 0.37179998 0.10806295
v -0.32858938 0.36196905 0.10710667
v -0.36989057 0.28983206 0.11977753
v -0.39050129 0.24744835 0.13085458
v -0.39149794 0.25252658 0.12479806
v -0.39468724 0.24490923 0.12479806
v -0.39903262 0.23345065 0.12272610
v -0.45998776 -0.01967975 0.12997799
v -0.47111037 -0.08426447 0.13962059
v -0.47071171 -0.06675108 0.13157180
v -0.47661188 -0.08491553 0.12479806
v -0.47924304 -0.08764997 0.11228658
v -0.48980755 -0.09110054 0.04901192
v -0.48035929 -0.09487668 0.11244597
v -0.49993351 -0.09988981 -0.00995942
v -0.49016634 -0.09949917 0.05148234
v -0.50304306 -0.10490292 -0.03522146
v -0.49506986 -0.16961786 -0.04486408
v -0.47665176 -0.10490292 -0.21492468
v -0.49379414 -0.16961786 -0.05498484
v -0.47888425 -0.10451230 -0.20464455
v -0.47713014 -0.09487668 -0.21492468
v -0.47525644 -0.08491553 -0.21492468
v -0.42980918 0.10948967 -0.20910724
v -0.39951101 0.24237013 -0.19763173
v -0.39982992 0.23436213 -0.20392732
v -0.39656091 0.24490923 -0.20488361
v -0.39101955 0.25155002 -0.21173704
v -0.35087448 0.32140827 -0.20145690
v -0.33983159 0.33976805 -0.19954431
v -0.32504129 0.36496389 -0.19500193
v -0.32133377 0.37166977 -0.19300966
v -0.31555319 0.37551099 -0.19587854
v -0.31140712 0.38078454 -0.19197367
v -0.24901679 0.41926193 -0.19667543
v -0.33030361 0.39015973 -0.09738044
v -0.21333671 0.44191867 -0.19492224
v -0.20010120 0.46001801 -0.14551382
v -0.28059068 0.43026477 -0.05139874
v -0.20061946 0.47017446 -0.09164269
v -0.19085228 0.46014822 -0.16137233
v -0.19842683 0.46958852 -0.09833674
v -0.19503821 0.47421101 -0.07498728
v -0.19503821 0.47759652 -0.05498484
v -0.18208176 0.48026583 -0.05195658
v -0.10506062 0.49270099 -0.05498484
v -0.13169111 0.48944572 -0.04645790
v -0.09648943 0.49550053 -0.04438593
v -0.09648943 0.46906769 0.12535590
v -0.15090653 0.46008310 0.12033537
v -0.18539064 0.45031726 0.12687004
v -0.19129081 0.44061655 0.14105503
v -0.18969616 0.39973027 0.20966899
v -0.19045362 0.38019860 0.24027032
v -0.21094476 0.44048634 0.12081352
v -0.31459638 0.37459952 0.11435854
v -0.28055081 0.34035397 0.20050451
v -0.27752101 0.33774978 0.20727825
v -0.27768046 0.32759330 0.21763808
v -0.31702822 0.37746418 0.10479562
v -0.31934047 0.37941733 0.09220445
v -0.32998466 0.37993819 0.05012760
v -0.32819071 0.36698216 0.09491394
v -0.39089996 0.25910226 0.11698835
v -0.39903262 0.24152374 0.11627112
v -0.40951738 0.19809833 0.11722742
v -0.46987453 -0.06011032 0.12957953
v -0.47421992 -0.07482417 0.12479806
v -0.42466646 0.24490923 -0.03522146
v -0.50033218 -0.08823591 -0.02207245
v -0.44998139 0.14015439 -0.04016231
v -0.50037205 -0.07794924 -0.03753251
v -0.49957472 -0.09292352 -0.01250953
v -0.50180721 -0.09487668 -0.02510071
v -0.50336200 -0.09487668 -0.03522146
v -0.50376064 -0.09487668 -0.04510315
v -0.50340188 -0.10490292 -0.04510315
v -0.50224572 -0.10490292 -0.05498484
v -0.47964171 -0.09722048 -0.20297103
v -0.50017273 -0.09943408 -0.07171994
v -0.47736934 -0.08491553 -0.20488361
v -0.47976130 -0.09149119 -0.19874741
v -0.47011372 -0.05900352 -0.21062136
v -0.43969595 0.06905912 -0.20831032
v -0.41996229 0.24998747 -0.07004644
v -0.40979645 0.24940151 -0.12917715
v -0.39955088 0.24966195 -0.18488117
v -0.39492643 0.25493550 -0.19492224
v -0.39042157 0.25656313 -0.20591959
v -0.35984433 0.30968928 -0.19930524
v -0.33010429 0.36014608 -0.19030015
v -0.32260945 0.37336251 -0.18488117
v -0.31969926 0.37974286 -0.17452134
v -0.31543359 0.38000327 -0.18488117
v -0.32958603 0.37941733 -0.13842131
v -0.34042957 0.39048529 -0.05777402
v -0.33074212 0.39894900 -0.05546298
v -0.20847306 0.46900257 -0.07498728
v -0.29944730 0.41952235 -0.04701573
v -0.28633139 0.42772564 -0.04510315
v -0.24949519 0.44960111 -0.04741419
v -0.23063856 0.46027842 -0.05155812
v -0.21182181 0.47095573 -0.05498484
v -0.20504458 0.47440633 -0.05498484
v -0.20504458 0.47577354 -0.04510315
v -0.19057322 0.47954968 -0.04502346
v -0.13069446 0.48996657 -0.04048108
v -0.09648943 0.49504480 -0.03522146
v -0.09720701 0.47023958 0.11802433
v -0.18503185 0.45480955 0.11491638
v -0.19384223 0.44921049 0.12352301
v -0.20460606 0.44224420 0.12439962
v -0.19870588 0.45025218 0.11300379
v -0.28027177 0.39999068 0.11005524
v -0.31132740 0.38071942 0.10774419
v -0.29418498 0.39250356 0.10479562
v -0.32799137 0.39139676 0.01331035
v -0.34011066 0.39009464 -0.02438349
v -0.34561217 0.38495129 -0.03522146
v -0.39831501 0.25194064 0.10192674
v -0.40341789 0.22492182 0.11491638
v -0.40955725 0.24816450 0.04749779
v -0.42028120 0.25109428 -0.01840666
v -0.42259341 0.25493550 -0.04510315
v -0.42506513 0.24490923 -0.04510315
v -0.43036729 0.22192697 -0.03753251
v -0.42119813 0.25766993 -0.03378703
v -0.50132883 -0.08413427 -0.03458394
v -0.46473181 0.07511394 -0.04510315
v -0.47406048 0.03513913 -0.04510315
v -0.49734223 -0.06486301 -0.04510315
v -0.50200653 -0.08491553 -0.04510315
v -0.48004037 0.01059432 -0.04048108
v -0.50256467 -0.09487668 -0.05498484
v -0.48853183 -0.09487668 -0.14495598
v -0.47497737 -0.07482417 -0.20488361
v -0.48027956 -0.08856145 -0.19205336
v -0.42374957 0.24490923 -0.05498484
v -0.49961460 -0.09259799 -0.07211840
v -0.49004674 -0.08940780 -0.13069129
v -0.42032108 0.25871161 -0.05410824
v -0.37941855 0.27908966 -0.19739266
v -0.39054117 0.26092520 -0.19779111
v -0.39963061 0.25936267 -0.15818468
v -0.36020312 0.36027628 -0.05100029
v -0.34445605 0.38495129 -0.05498484
v -0.32759273 0.36613578 -0.18488117
v -0.34613043 0.38495129 -0.04510315
v -0.34150594 0.39191759 -0.04510315
v -0.33361250 0.39881879 -0.04510315
v -0.30008516 0.41991299 -0.04024200
v -0.25013304 0.44999176 -0.04032169
v -0.21313739 0.47180212 -0.04510315
v -0.20504458 0.47538292 -0.03522146
v -0.19432062 0.47863820 -0.03593869
v -0.19503821 0.47675014 -0.02510071
v -0.20010120 0.46997917 0.01004302
v -0.20069918 0.46027842 0.05769824
v -0.33285505 0.39888388 -0.03561992
v -0.24961479 0.41958746 0.10838172
v -0.34130663 0.39159206 -0.03522146
v -0.36052203 0.36086226 -0.03745282
v -0.34931970 0.37883139 -0.03522146
v -0.39062089 0.31099138 -0.03729343
v -0.41916496 0.26372474 -0.04510315
v -0.43008825 0.22062486 -0.05084090
v -0.43985540 0.17967346 -0.04924708
v -0.46999413 0.05037382 -0.05028307
v -0.47976130 0.00942242 -0.04821110
v -0.50049162 -0.08205089 -0.05267380
v -0.50037205 -0.08817080 -0.06255548
v -0.46349597 0.07511394 -0.05498484
v -0.39066076 0.31105649 -0.04510315
v -0.21269886 0.47154170 -0.03522146
f 1 2 3
f 1 3 4
f 1 4 5
f 1 5 6
f 1 6 7
f 1 7 8
f 1 8 9
f 1 9 23
f 1 23 40
f 1 40 62
f 1 62 89
f 1 89 94
f 1 94 124
f 1 124 169
f 1 169 233
f 1 233 302
f 1 302 304
f 1 304 234
f 1 234 170
f 1 170 125
f 1 125 95
f 1 95 65
f 1 65 44
f 1 44 25
f 1 25 10
f 1 10 2
f 2 10 11
f 2 11 3
f 3 11 4
f 4 12 13
f 4 13 14
f 4 14 5
f 4 11 15
f 4 15 16
f 4 16 17
f 4 17 12
f 5 14 6
f 6 14 7
f 7 14 18
f 7 18 8
f 8 18 17
f 8 17 31
f 8 31 32
f 8 32 30
f 8 30 54
f 8 54 82
f 8 82 108
f 8 108 150
f 8 150 203
f 8 203 266
f 8 266 332
f 8 332 392
f 8 392 333
f 8 333 267
f 8 267 204
f 8 204 151
f 8 151 111
f 8 111 86
f 8 86 57
f 8 57 55
f 8 55 33
f 8 33 19
f 8 19 9
f 9 19 20
f 9 20 21
f 9 21 22
f 9 22 23
f 10 24 11
f 10 25 24
f 11 24 15
f 12 17 18
f 12 18 13
f 13 18 14
f 15 24 26
f 15 26 27
f 15 27 28
f 15 28 29
f 15 29 30
f 15 30 16
f 16 31 17
f 16 30 32
f 16 32 31
f 19 33 34
f 19 34 35
f 19 35 36
f 19 36 37
f 19 37 20
f 20 37 36
f 20 36 21
f 21 36 23
f 21 23 22
f 23 36 38
f 23 38 39
f 23 39 40
f 24 25 41
f 24 41 26
f 25 42 43
f 25 43 41
f 25 44 42
f 26 41 45
f 26 45 46
f 26 46 27
f 27 46 28
f 28 46 47
f 28 47 48
f 28 48 49
f 28 49 29
f 29 49 50
f 29 50 30
f 30 50 51
f 30 51 52
f 30 52 53
f 30 53 54
f 33 55 34
f 34 56 36
f 34 36 35
f 34 55 57
f 34 57 56
f 36 56 58
f 36 58 38
f 38 58 59
f 38 59 39
f 39 59 60
f 39 60 61
f 39 61 40
f 40 61 63
f 40 63 64
f 40 64 62
f 41 43 45
f 42 44 65
f 42 65 66
f 42 66 67
f 42 67 68
f 42 68 43
f 43 68 45
f 45 69 70
f 45 70 71
f 45 71 46
f 45 68 69
f 46 71 72
f 46 72 47
f 47 73 74
f 47 74 75
f 47 75 76
f 47 76 48
f 47 72 71
f 47 71 77
f 47 77 73
f 48 76 49
f 49 76 78
f 49 78 50
f 50 78 52
f 50 52 51
f 52 78 53
f 53 78 79
f 53 79 80
f 53 80 81
f 53 81 54
f 54 81 82
f 56 60 59
f 56 59 83
f 56 83 58
f 56 57 84
f 56 84 85
f 56 85 60
f 57 86 87
f 57 87 84
f 58 83 59
f 60 85 84
f 60 84 87
f 60 87 88
f 60 88 63
f 60 63 61
f 62 64 89
f 63 88 90
f 63 90 64
f 64 91 92
f 64 92 93
f 64 93 94
f 64 94 89
f 64 90 88
f 64 88 91
f 65 95 66
f 66 95 96
f 66 96 67
f 67 96 97
f 67 97 98
f 67 98 99
f 67 99 69
f 67 69 68
f 69 100 101
f 69 101 70
f 69 99 102
f 69 102 100
f 70 101 71
f 71 101 77
f 73 75 74
f 73 77 100
f 73 100 103
f 73 103 75
f 75 79 76
f 75 103 104
f 75 104 79
f 76 79 78
f 77 101 100
f 79 105 80
f 79 104 105
f 80 105 81
f 81 105 106
f 81 106 82
f 82 106 107
f 82 107 108
f 86 109 110
f 86 110 87
f 86 111 109
f 87 110 112
f 87 112 113
f 87 113 88
f 88 114 91
f 88 113 115
f 88 115 116
f 88 116 117
f 88 117 114
f 91 118 119
f 91 119 120
f 91 120 92
f 91 114 121
f 91 121 122
f 91 122 118
f 92 120 123
f 92 123 93
f 93 123 94
f 94 123 124
f 95 125 96
f 96 125 126
f 96 126 127
f 96 127 97
f 97 127 98
f 98 127 128
f 98 128 129
f 98 129 130
f 98 130 99
f 99 130 102
f 100 102 103
f 102 130 131
f 102 131 103
f 103 131 132
f 103 132 133
f 103 133 134
f 103 134 104
f 104 135 136
f 104 136 137
f 104 137 138
f 104 138 105
f 104 134 139
f 104 139 140
f 104 140 135
f 105 138 141
f 105 141 106
f 106 142 143
f 106 143 144
f 106 144 107
f 106 141 142
f 107 144 145
f 107 145 146
f 107 146 108
f 108 146 147
f 108 147 148
f 108 148 149
f 108 149 150
f 109 111 113
f 109 113 112
f 109 112 110
f 111 151 113
f 113 151 152
f 113 152 153
f 113 153 115
f 114 117 121
f 115 153 154
f 115 154 155
f 115 155 156
f 115 156 116
f 116 157 158
f 116 158 117
f 116 156 157
f 117 158 159
f 117 159 160
f 117 160 121
f 118 122 119
f 119 122 161
f 119 161 120
f 120 161 162
f 120 162 123
f 121 160 163
f 121 163 164
f 121 164 165
f 121 165 122
f 122 165 161
f 123 162 166
f 123 166 124
f 124 166 167
f 124 167 168
f 124 168 169
f 125 170 126
f 126 170 171
f 126 171 172
f 126 172 127
f 127 172 173
f 127 173 174
f 127 174 128
f 128 175 176
f 128 176 129
f 128 174 177
f 128 177 178
f 128 178 179
f 128 179 180
f 128 180 181
f 128 181 175
f 129 176 130
f 130 176 175
f 130 175 182
f 130 182 183
f 130 183 184
f 130 184 132
f 130 132 131
f 132 185 186
f 132 186 133
f 132 184 183
f 132 183 185
f 133 186 185
f 133 185 134
f 134 185 187
f 134 187 188
f 134 188 139
f 135 140 136
f 136 140 189
f 136 189 138
f 136 138 137
f 138 189 141
f 139 188 140
f 140 188 190
f 140 190 191
f 140 191 192
f 140 192 193
f 140 193 194
f 140 194 195
f 140 195 144
f 140 144 143
f 140 143 142
f 140 142 189
f 141 189 142
f 144 195 145
f 145 195 196
f 145 196 146
f 146 196 197
f 146 197 198
f 146 198 147
f 147 198 199
f 147 199 200
f 147 200 201
f 147 201 202
f 147 202 148
f 148 202 203
f 148 203 150
f 148 150 149
f 151 204 152
f 152 204 205
f 152 205 206
f 152 206 153
f 153 206 154
f 154 205 207
f 154 207 208
f 154 208 209
f 154 209 210
f 154 210 211
f 154 211 155
f 154 206 205
f 155 211 212
f 155 212 156
f 156 212 213
f 156 213 214
f 156 214 215
f 156 215 216
f 156 216 157
f 157 216 215
f 157 215 217
f 157 217 218
f 157 218 219
f 157 219 220
f 157 220 221
f 157 221 158
f 158 221 220
f 158 220 222
f 158 222 159
f 159 223 160
f 159 222 224
f 159 224 163
f 159 163 223
f 160 223 163
f 161 225 226
f 161 226 227
f 161 227 228
f 161 228 162
f 161 165 225
f 162 228 166
f 163 224 164
f 164 224 165
f 165 224 229
f 165 229 225
f 166 228 167
f 167 228 230
f 167 230 168
f 168 231 232
f 168 232 169
f 168 230 231
f 169 232 233
f 170 234 235
f 170 235 171
f 171 235 172
f 172 235 236
f 172 236 237
f 172 237 173
f 173 237 174
f 174 237 177
f 175 238 182
f 175 181 239
f 175 239 238
f 177 237 236
f 177 236 240
f 177 240 241
f 177 241 242
f 177 242 178
f 178 243 244
f 178 244 179
f 178 242 243
f 179 244 245
f 179 245 180
f 180 245 181
f 181 245 246
f 181 246 239
f 182 238 187
f 182 187 183
f 183 187 185
f 187 238 247
f 187 247 248
f 187 248 249
f 187 249 250
f 187 250 251
f 187 251 190
f 187 190 188
f 190 251 252
f 190 252 253
f 190 253 191
f 191 253 252
f 191 252 192
f 192 194 193
f 192 252 254
f 192 254 255
f 192 255 194
f 194 255 256
f 194 256 196
f 194 196 195
f 196 256 257
f 196 257 258
f 196 258 197
f 197 258 198
f 198 258 199
f 199 258 200
f 200 258 259
f 200 259 260
f 200 260 261
f 200 261 262
f 200 262 263
f 200 263 201
f 201 263 202
f 202 264 203
f 202 263 265
f 202 265 264
f 203 264 266
f 204 267 268
f 204 268 269
f 204 269 270
f 204 270 205
f 205 270 208
f 205 208 207
f 208 271 209
f 208 270 272
f 208 272 271
f 209 271 210
f 210 212 211
f 210 271 273
f 210 273 274
f 210 274 212
f 212 274 275
f 212 275 213
f 213 275 276
f 213 276 277
f 213 277 278
f 213 278 279
f 213 279 280
f 213 280 217
f 213 217 214
f 214 217 215
f 217 280 218
f 218 280 281
f 218 281 282
f 218 282 283
f 218 283 284
f 218 284 219
f 219 284 285
f 219 285 286
f 219 286 287
f 219 287 220
f 220 288 222
f 220 287 289
f 220 289 288
f 222 288 224
f 224 288 290
f 224 290 291
f 224 291 229
f 225 229 226
f 226 229 291
f 226 291 292
f 226 292 293
f 226 293 227
f 227 293 228
f 228 293 230
f 230 293 294
f 230 294 295
f 230 295 231
f 231 295 296
f 231 296 297
f 231 297 298
f 231 298 299
f 231 299 300
f 231 300 232
f 232 300 299
f 232 299 233
f 233 301 302
f 233 299 301
f 234 303 235
f 234 304 305
f 234 305 303
f 235 303 306
f 235 306 236
f 236 306 240
f 238 239 246
f 238 246 248
f 238 248 247
f 240 306 307
f 240 307 241
f 241 307 308
f 241 308 243
f 241 243 242
f 243 308 309
f 243 309 310
f 243 310 244
f 244 311 245
f 244 310 311
f 245 311 312
f 245 312 246
f 246 312 249
f 246 249 248
f 249 312 313
f 249 313 314
f 249 314 250
f 250 314 315
f 250 315 316
f 250 316 317
f 250 317 255
f 250 255 254
f 250 254 252
f 250 252 251
f 255 317 318
f 255 318 257
f 255 257 256
f 257 318 260
f 257 260 258
f 258 260 259
f 260 318 319
f 260 319 320
f 260 320 321
f 260 321 261
f 261 322 262
f 261 321 323
f 261 323 322
f 262 322 324
f 262 324 325
f 262 325 263
f 263 325 326
f 263 326 327
f 263 327 265
f 264 265 328
f 264 328 329
f 264 329 330
f 264 330 266
f 265 327 328
f 266 330 329
f 266 329 331
f 266 331 332
f 267 333 269
f 267 269 268
f 269 333 334
f 269 334 335
f 269 335 270
f 270 335 336
f 270 336 272
f 271 272 337
f 271 337 338
f 271 338 273
f 272 336 339
f 272 339 340
f 272 340 337
f 273 338 284
f 273 284 283
f 273 283 274
f 274 283 275
f 275 282 276
f 275 283 282
f 276 282 341
f 276 341 277
f 277 341 342
f 277 342 279
f 277 279 343
f 277 343 278
f 278 343 279
f 279 342 341
f 279 341 281
f 279 281 280
f 281 341 282
f 284 340 285
f 284 338 340
f 285 340 344
f 285 344 345
f 285 345 346
f 285 346 347
f 285 347 286
f 286 347 348
f 286 348 287
f 287 348 289
f 288 289 290
f 289 348 349
f 289 349 290
f 290 349 291
f 291 349 292
f 292 349 350
f 292 350 351
f 292 351 294
f 292 294 293
f 294 351 295
f 295 351 352
f 295 352 353
f 295 353 296
f 296 354 297
f 296 353 355
f 296 355 356
f 296 356 354
f 297 354 357
f 297 357 358
f 297 358 298
f 298 358 299
f 299 358 359
f 299 359 301
f 301 359 360
f 301 360 361
f 301 361 302
f 302 361 362
f 302 362 304
f 303 305 363
f 303 363 306
f 304 362 305
f 305 362 364
f 305 364 363
f 306 365 307
f 306 363 366
f 306 366 365
f 307 365 367
f 307 367 308
f 308 367 368
f 308 368 369
f 308 369 370
f 308 370 309
f 309 370 371
f 309 371 372
f 309 372 311
f 309 311 310
f 311 372 312
f 312 372 373
f 312 373 374
f 312 374 313
f 313 374 314
f 314 374 315
f 315 375 316
f 315 374 375
f 316 318 317
f 316 375 376
f 316 376 377
f 316 377 378
f 316 378 318
f 318 378 319
f 319 378 377
f 319 377 320
f 320 377 379
f 320 379 380
f 320 380 381
f 320 381 321
f 321 381 323
f 322 382 324
f 322 323 382
f 323 383 384
f 323 384 385
f 323 385 386
f 323 386 387
f 323 387 382
f 323 381 383
f 324 326 325
f 324 382 387
f 324 387 388
f 324 388 328
f 324 328 326
f 326 328 327
f 328 388 389
f 328 389 390
f 328 390 329
f 329 390 331
f 331 390 391
f 331 391 332
f 332 391 392
f 333 392 393
f 333 393 334
f 334 393 394
f 334 394 335
f 335 394 395
f 335 395 336
f 336 395 396
f 336 396 339
f 337 340 338
f 339 396 395
f 339 395 397
f 339 397 398
f 339 398 399
f 339 399 340
f 340 399 344
f 344 399 345
f 345 399 400
f 345 400 401
f 345 401 402
f 345 402 346
f 346 402 348
f 346 348 347
f 348 402 403
f 348 403 404
f 348 404 349
f 349 405 350
f 349 404 406
f 349 406 405
f 350 405 406
f 350 406 351
f 351 406 407
f 351 407 353
f 351 353 352
f 353 408 409
f 353 409 410
f 353 410 355
f 353 407 411
f 353 411 408
f 354 358 357
f 354 356 412
f 354 412 359
f 354 359 358
f 355 410 409
f 355 409 413
f 355 413 414
f 355 414 415
f 355 415 416
f 355 416 417
f 355 417 356
f 356 359 412
f 356 417 416
f 356 416 359
f 359 416 360
f 360 416 418
f 360 418 362
f 360 362 361
f 362 418 364
f 363 364 418
f 363 418 419
f 363 419 366
f 365 420 367
f 365 366 421
f 365 421 422
f 365 422 420
f 366 419 418
f 366 418 423
f 366 423 424
f 366 424 421
f 367 420 368
f 368 420 369
f 369 420 422
f 369 422 425
f 369 425 370
f 370 425 371
f 371 425 372
f 372 426 427
f 372 427 373
f 372 425 428
f 372 428 429
f 372 429 430
f 372 430 380
f 372 380 426
f 373 427 374
f 374 427 426
f 374 426 380
f 374 380 379
f 374 379 431
f 374 431 375
f 375 431 376
f 376 379 377
f 376 431 379
f 380 430 432
f 380 432 433
f 380 433 434
f 380 434 381
f 381 434 383
f 383 434 435
f 383 435 384
f 384 435 436
f 384 436 437
f 384 437 385
f 385 437 386
f 386 437 387
f 387 437 388
f 388 437 389
f 389 437 438
f 389 438 439
f 389 439 390
f 390 439 391
f 391 439 392
f 392 439 393
f 393 440 441
f 393 441 394
f 393 439 440
f 394 441 397
f 394 397 395
f 397 441 442
f 397 442 435
f 397 435 443
f 397 443 401
f 397 401 444
f 397 444 398
f 398 444 400
f 398 400 399
f 400 444 401
f 401 443 402
f 402 443 445
f 402 445 403
f 403 445 432
f 403 432 446
f 403 446 447
f 403 447 404
f 404 411 406
f 404 447 448
f 404 448 411
f 406 411 407
f 408 411 449
f 408 449 425
f 408 425 422
f 408 422 409
f 409 450 451
f 409 451 452
f 409 452 413
f 409 422 450
f 411 448 449
f 413 452 453
f 413 453 414
f 414 453 415
f 415 453 416
f 416 453 454
f 416 454 455
f 416 455 418
f 418 455 423
f 421 424 456
f 421 456 450
f 421 450 422
f 423 455 424
f 424 455 454
f 424 454 456
f 425 449 428
f 428 449 429
f 429 449 457
f 429 457 432
f 429 432 430
f 432 457 448
f 432 448 446
f 432 445 433
f 433 445 434
f 434 445 443
f 434 443 435
f 435 442 458
f 435 458 436
f 436 458 437
f 437 458 438
f 438 458 441
f 438 441 439
f 439 441 440
f 441 458 442
f 446 448 447
f 448 457 449
f 450 452 451
f 450 456 452
f 452 456 454
f 452 454 453

