# https://github.com/mikedh/trimesh
v -0.04386801 0.04402503 -0.45627874
v -0.06500358 0.04402503 -0.45620012
v -0.04386801 0.04501085 -0.45627874
v -0.04386801 0.04402503 0.34604907
v -0.06500358 0.04501085 -0.45620012
v -0.07401683 0.04402503 -0.45564982
v -0.04386801 0.06887253 -0.45620012
v -0.04386801 0.07500563 0.34148949
v -0.09499798 0.10498425 0.34636351
v -0.09644442 0.10498425 0.34652075
v -0.09644442 0.09499677 0.34675658
v -0.09644442 0.06355557 0.34683520
v -0.09644442 0.05355192 0.34675658
v -0.09644442 0.04501085 0.34636351
v -0.09598115 0.04402503 0.34628490
v -0.06500358 0.07500563 -0.45604292
v -0.07500000 0.04402503 -0.45557123
v -0.07500000 0.04501085 -0.45557123
v -0.04386801 0.07500563 -0.45612150
v -0.04386801 0.12656724 0.33024779
v -0.09644442 0.11515759 0.34424096
v -0.09644442 0.04402503 0.34628490
v -0.07500000 0.07500563 -0.45525676
v -0.06500358 0.08500119 -0.45564982
v -0.08499642 0.04402503 -0.45454925
v -0.08499642 0.04501085 -0.45454925
v -0.04386801 0.08500119 -0.45572844
v -0.09639809 0.12656724 0.33763742
v -0.09644442 0.12383604 0.33983862
v -0.09644442 0.11931096 0.34274730
v -0.04386801 0.12656724 -0.45266253
v -0.09644442 0.04402503 -0.45337006
v -0.09644442 0.06645647 -0.45313421
v -0.09499798 0.07500563 -0.45313421
v -0.08499642 0.08500119 -0.45376313
v -0.07500000 0.08500119 -0.45478508
v -0.06500358 0.10498425 -0.45423481
v -0.04386801 0.12558950 -0.45274115
v -0.09644442 0.12656724 0.33575073
v -0.09644442 0.12550870 0.33826634
v -0.06500358 0.11499598 -0.45344865
v -0.06500358 0.12656724 -0.45250529
v -0.09644442 0.07500563 -0.45297697
v -0.09644442 0.08500119 -0.45250529
v -0.09644442 0.08643144 -0.45242670
v -0.09644442 0.12656724 -0.44354337
v -0.09644442 0.09647550 -0.45148334
v -0.09644442 0.12499963 -0.44865325
v -0.09642383 0.12656724 -0.44849601
v -0.09644442 0.12644604 -0.44849601
f 1 2 5
f 1 5 3
f 1 3 7
f 1 7 19
f 1 19 27
f 1 27 38
f 1 38 31
f 1 31 20
f 1 20 8
f 1 8 4
f 1 4 15
f 1 15 22
f 1 22 32
f 1 32 25
f 1 25 17
f 1 17 6
f 1 6 2
f 2 6 5
f 3 5 7
f 4 8 9
f 4 9 10
f 4 10 11
f 4 11 12
f 4 12 13
f 4 13 14
f 4 14 15
f 5 6 16
f 5 16 7
f 6 17 18
f 6 18 16
f 7 16 19
f 8 20 9
f 9 20 21
f 9 21 10
f 10 21 30
f 10 30 29
f 10 29 40
f 10 40 39
f 10 39 46
f 10 46 50
f 10 50 48
f 10 48 47
f 10 47 45
f 10 45 44
f 10 44 43
f 10 43 33
f 10 33 32
f 10 32 22
f 10 22 14
f 10 14 13
f 10 13 12
f 10 12 11
f 14 22 15
f 16 18 23
f 16 23 24
f 16 24 27
f 16 27 19
f 17 25 26
f 17 26 18
f 18 26 23
f 20 28 29
f 20 29 30
f 20 30 21
f 20 31 42
f 20 42 49
f 20 49 46
f 20 46 39
f 20 39 28
f 23 26 33
f 23 33 34
f 23 34 35
f 23 35 36
f 23 36 24
f 24 36 37
f 24 37 27
f 25 32 26
f 26 32 33
f 27 37 38
f 28 39 40
f 28 40 29
f 31 38 41
f 31 41 42
f 33 43 34
f 34 43 35
f 35 41 36
f 35 43 44
f 35 44 45
f 35 45 41
f 36 41 37
f 37 41 38
f 41 45 42
f 42 45 47
f 42 47 48
f 42 48 49
f 46 49 50
f 48 50 49

