# https://github.com/mikedh/trimesh
v 0.15975612 -0.06491587 0.37168494
v 0.25503290 -0.05989076 0.36687291
v 0.15449145 -0.05342992 0.37104335
v 0.15449145 -0.08833642 0.37080273
v 0.17503732 -0.08492653 0.37120375
v 0.17503732 -0.07496607 0.37144434
v 0.18501967 -0.07496607 0.37128395
v 0.20002739 -0.08492653 0.37096313
v 0.21882977 -0.09372045 0.37008092
v 0.25807548 -0.12180717 0.36077765
v 0.26846805 -0.06294172 0.36182025
v 0.26675874 -0.04876376 0.36077765
v 0.26303244 -0.02893256 0.35732901
v 0.15449145 0.23488519 0.32035643
v 0.15449145 -0.21539965 0.34866732
v 0.17937896 -0.09757901 0.37048194
v 0.20946276 -0.10089917 0.37008092
v 0.22501746 -0.10493720 0.36799571
v 0.38015416 -0.14056157 0.27007052
v 0.39092281 -0.07021017 0.28065705
v 0.38309419 -0.05881396 0.28739390
v 0.19503622 -0.21486126 0.34497809
v 0.24634960 -0.21342552 0.33904323
v 0.25814384 -0.21306658 0.33286777
v 0.28005713 -0.20992589 0.31995544
v 0.35930061 -0.19790155 0.26942894
v 0.31352538 -0.05495540 0.33222616
v 0.28316808 -0.04221318 0.34874752
v 0.31034607 0.00067964 0.32011583
v 0.29598790 -0.00488387 0.33054194
v 0.26887828 -0.01233178 0.34922871
v 0.26060522 0.00121804 0.35027134
v 0.17192638 0.24188443 0.31081253
v 0.15449145 0.24870421 0.31562459
v 0.25349450 0.08754208 0.32909831
v 0.15982449 -0.22724454 0.34505829
v 0.15449145 -0.42896640 0.13084194
v 0.15462820 -0.34416783 0.26926851
v 0.39010233 -0.11041097 0.27007052
v 0.37923115 -0.18201864 0.25900283
v 0.40005052 -0.06590293 0.27007052
v 0.39406794 -0.05307098 0.27760941
v 0.38617092 -0.03826489 0.28065705
v 0.20002739 -0.22302704 0.34177005
v 0.22125699 -0.22024529 0.34016603
v 0.23503399 -0.21782248 0.33896303
v 0.23643562 -0.22769320 0.33246675
v 0.24040122 -0.26017690 0.31009072
v 0.24891357 -0.22437306 0.33102316
v 0.23660657 -0.32038838 0.27023095
v 0.32063609 -0.21037456 0.29036134
v 0.34979689 -0.20965669 0.26974973
v 0.23971750 -0.33474576 0.25763941
v 0.36801809 -0.21190004 0.25435117
v 0.37400067 -0.19897835 0.25739881
v 0.32733658 -0.03494473 0.31819102
v 0.31841400 -0.01484433 0.31891283
v 0.36880437 0.05164851 0.26918831
v 0.35167712 0.04850782 0.28105804
v 0.35848016 0.06735194 0.27159435
v 0.31516632 0.05407132 0.30191025
v 0.29492813 0.07578693 0.30800551
v 0.27940762 0.06851848 0.31955442
v 0.26764756 0.08718314 0.32131884
v 0.26484430 0.03567587 0.33784020
v 0.26063943 0.07533827 0.32893792
v 0.21257371 0.24170497 0.29116336
v 0.25164846 0.11275731 0.32099804
v 0.25096473 0.14147216 0.31057194
v 0.25024682 0.17027676 0.30006564
v 0.16508916 0.24969129 0.30993032
v 0.15575634 0.35144955 0.22900772
v 0.15449145 0.42772341 0.10573910
v 0.15449145 -0.45974517 -0.03926395
v 0.15476494 -0.43444020 0.11496219
v 0.17332801 -0.43004322 0.11977424
v 0.23103422 -0.41792911 0.12306246
v 0.20977044 -0.41927516 0.12867652
v 0.22997445 -0.41137856 0.13557379
v 0.18023361 -0.34991080 0.25996524
v 0.15975612 -0.35350019 0.26020584
v 0.22409444 -0.34075797 0.25804043
v 0.23503399 -0.30836403 0.27881241
v 0.23503399 -0.24348637 0.32228124
v 0.41027215 -0.07119724 0.25050154
v 0.44216782 -0.20795174 0.13990463
v 0.45081693 -0.20364451 0.12667151
v 0.42999756 -0.20992589 0.15995483
v 0.41088751 -0.06491587 0.25162435
v 0.38993141 -0.00999870 0.26991013
v 0.47269607 -0.05495540 0.14006504
v 0.37994906 0.01997243 0.26991013
v 0.23766634 -0.29301953 0.28859693
v 0.36193296 -0.22186050 0.25146395
v 0.23592284 -0.34910321 0.24087745
v 0.24231565 -0.35143632 0.23253655
v 0.25875920 -0.33070773 0.24601030
v 0.27951017 -0.31931156 0.23935363
v 0.37683812 -0.21145137 0.24384487
v 0.35936901 -0.23935862 0.23927343
v 0.36982995 -0.22006582 0.24496767
v 0.37899184 0.06169870 0.25868201
v 0.37690648 0.07812002 0.25411057
v 0.33960941 0.07919683 0.27969462
v 0.32908008 0.06798008 0.28939894
v 0.28374925 0.08493979 0.31217596
v 0.25069124 0.22106616 0.28033623
v 0.24860591 0.24062815 0.27239636
v 0.23595703 0.23928215 0.28033623
v 0.23999098 0.25992095 0.25988504
v 0.18013106 0.33996361 0.22002524
v 0.21975279 0.35961533 0.14960894
v 0.23065817 0.37549824 0.11432058
v 0.17151615 0.41094315 0.12145846
v 0.15890147 0.42108309 0.11728801
v 0.18054129 0.41022527 0.11071154
v 0.19924112 0.39945722 0.10742331
v 0.24005936 0.37998497 0.07999464
v 0.24915287 0.39075303 0.00452569
v 0.20214693 0.42862076 -0.04231158
v 0.15449145 0.45697665 -0.04014616
v 0.15449145 -0.45857859 -0.05498331
v 0.20043762 -0.45148963 -0.04648202
v 0.24002518 -0.44422120 -0.03509351
v 0.19503622 -0.42708200 0.11496219
v 0.24525565 -0.41837782 0.11015014
v 0.24546078 -0.41110933 0.12963894
v 0.23937565 -0.38975269 0.16973934
v 0.23503399 -0.39809793 0.15682700
v 0.22002628 -0.34865457 0.24777472
v 0.23773471 -0.36049944 0.22090745
v 0.46021813 -0.15106043 0.13036074
v 0.44996226 -0.06985123 0.17992483
v 0.44999647 -0.21513046 0.11857122
v 0.45474833 -0.20490079 0.11496219
v 0.46011555 -0.17062242 0.12033564
v 0.47064489 -0.10027103 0.13108255
v 0.37024018 -0.33025908 0.12546849
v 0.39998212 -0.29992902 0.10990953
v 0.44080037 -0.23128256 0.11776921
v 0.41868195 -0.06491587 0.23766941
v 0.43991154 -0.06392879 0.19981463
v 0.46011555 0.03047130 0.13012014
v 0.45013320 0.08206831 0.12779431
v 0.47908884 -0.05890369 0.12314267
v 0.47567025 -0.03988010 0.12490709
v 0.46999535 -0.01475460 0.12947853
v 0.47286698 -0.07245351 0.13741840
v 0.35013872 -0.26017690 0.23005033
v 0.25602430 -0.41057098 0.12073664
v 0.27137387 -0.40070021 0.12121785
v 0.35947156 -0.32954121 0.13942343
v 0.28949252 -0.31949103 0.22924832
v 0.31031188 -0.31006896 0.22018564
v 0.30015859 -0.31006896 0.23005033
v 0.36032620 -0.32029861 0.15049115
v 0.44032177 0.09041356 0.14054625
v 0.37372717 0.21765627 0.10974914
v 0.26012662 0.24000002 0.26004544
v 0.25038359 0.25022972 0.26036623
v 0.19971971 0.33960468 0.19957404
v 0.20060855 0.33036208 0.21064174
v 0.24098238 0.37092179 0.10774411
v 0.25082800 0.36078191 0.10774411
v 0.27988622 0.32973397 0.10926794
v 0.26026338 0.39021462 -0.03413110
v 0.25096473 0.39891881 -0.04287299
v 0.22501746 0.41462225 -0.04487801
v 0.18067804 0.44028616 -0.05177528
v 0.15449145 0.45545119 -0.05490310
v 0.15455982 -0.43426073 -0.20038736
v 0.22501746 -0.44601583 -0.05490310
v 0.15449145 -0.35897392 -0.33825254
v 0.25065708 -0.44188809 -0.05017126
v 0.26005825 -0.43964475 -0.03445190
v 0.24987078 -0.43991393 -0.02025636
v 0.24901614 -0.42035192 0.09467138
v 0.24758032 -0.43049186 0.03740802
v 0.46021813 -0.22033502 0.05745821
v 0.46992698 -0.21979663 0.00981894
v 0.47601211 -0.07990143 0.12490709
v 0.37417158 -0.33761728 0.10910752
v 0.37926534 -0.33905303 0.09194456
v 0.39023909 -0.35018003 0.01110215
v 0.39926422 -0.35116708 -0.03340929
v 0.46001300 0.05003330 0.12001483
v 0.45440647 0.08493979 0.11496219
v 0.44876575 0.09319532 0.12330307
v 0.50366867 -0.05989076 -0.03998576
v 0.49997658 -0.02982990 -0.03998576
v 0.48001188 -0.06796682 0.11303736
v 0.49960053 -0.06491587 -0.00983026
v 0.47929400 0.08879835 -0.03782034
v 0.34066918 -0.28081572 0.22066686
v 0.33892569 -0.29867274 0.20374447
v 0.31010675 -0.37997168 0.11006995
v 0.25869080 -0.41918540 0.07494199
v 0.36179620 -0.34829563 0.10646090
v 0.33940428 -0.30953056 0.18938853
v 0.32757589 -0.29983926 0.21497259
v 0.44001409 0.10997556 0.12001483
v 0.39837539 0.18176270 0.10646090
v 0.37970975 0.21954069 0.08392448
v 0.36306110 0.23371865 0.10493709
v 0.34959176 0.24942209 0.10806492
v 0.31906354 0.28370047 0.11776921
v 0.30032954 0.29025102 0.14038584
v 0.27079269 0.25094754 0.23109296
v 0.25968221 0.24951182 0.24945894
v 0.29185137 0.31169742 0.12226047
v 0.26026338 0.35010356 0.11031054
v 0.30258581 0.30254459 0.11865142
v 0.31007257 0.29994226 0.10004483
v 0.27024573 0.38016438 -0.04030656
v 0.25807548 0.39182985 -0.05113367
v 0.39075187 0.24080762 -0.03188548
v 0.24833241 0.39891881 -0.05490310
v 0.23065817 0.41031504 -0.05153468
v 0.15449145 0.42682606 -0.19469310
v 0.15462820 -0.42959452 -0.21490370
v 0.16488403 -0.43040216 -0.20904905
v 0.17975500 -0.42986375 -0.19958535
v 0.24973404 -0.43991393 -0.06468760
v 0.15561959 -0.35080814 -0.34867865
v 0.17503732 -0.35188496 -0.34266359
v 0.19985646 -0.34928268 -0.33881393
v 0.23711935 -0.36866522 -0.29197666
v 0.23763216 -0.41128880 -0.21779093
v 0.21657348 -0.41945463 -0.21097386
v 0.17503732 -0.42555654 -0.21490370
v 0.15449145 -0.20427266 -0.43537569
v 0.15551704 -0.23065443 -0.42895964
v 0.26580152 -0.43740141 -0.04487801
v 0.31079048 -0.41030174 -0.03790054
v 0.46062833 -0.25102401 -0.03717873
v 0.47348234 -0.22868028 -0.03998576
v 0.47505492 -0.21486126 -0.01504331
v 0.37970975 -0.34973133 0.04927773
v 0.38791442 -0.36283249 -0.03348949
v 0.39362350 -0.35753822 -0.05089307
v 0.40852869 -0.33752751 -0.04487801
v 0.46008137 0.08996490 0.07566380
v 0.44992808 0.09750254 0.11143336
v 0.50267732 -0.05989076 -0.05490310
v 0.50202775 -0.07496607 -0.03509351
v 0.50154912 -0.07685047 -0.04936925
v 0.49997658 -0.03494473 -0.04920885
v 0.49539566 -0.00488387 -0.04487801
v 0.49002844 -0.15043229 -0.04014616
v 0.48982331 -0.06904362 0.04903713
v 0.47960165 0.08296565 -0.05297829
v 0.47714025 0.09490026 -0.05490310
v 0.47262770 0.10818088 -0.03509351
v 0.47006372 0.09974589 0.00316227
v 0.36063388 -0.38024086 -0.03806094
v 0.38986304 0.22977035 0.00941794
v 0.34019056 0.26019013 0.11047094
v 0.31089306 0.29348147 0.11841083
v 0.39184582 0.24000002 -0.04960985
v 0.30713257 0.30092937 -0.19324949
v 0.25052032 0.39030433 -0.08762503
v 0.39793098 0.23255211 -0.03950455
v 0.23995680 0.37989521 -0.16493860
v 0.22501746 0.38483059 -0.18490860
v 0.17978920 0.40977663 -0.19934475
v 0.15835449 0.42090362 -0.20415680
v 0.15449145 0.35835910 -0.30553061
v 0.23530748 -0.41936487 -0.19998635
v 0.24505055 -0.42205691 -0.17488350
v 0.24505055 -0.42546678 -0.15491351
v 0.24785380 -0.42959452 -0.12764522
v 0.21004394 -0.33779675 -0.34843802
v 0.22966677 -0.33537394 -0.34587160
v 0.23971750 -0.34129637 -0.33592671
v 0.22426537 -0.34694958 -0.33400190
v 0.24662310 -0.41353220 -0.20864804
v 0.23503399 -0.35924315 -0.30881885
v 0.23503399 -0.34982109 -0.32477880
v 0.24084565 -0.35044920 -0.32076874
v 0.15449145 -0.15653421 -0.44058874
v 0.15989286 -0.21486126 -0.43377170
v 0.18648969 -0.21764301 -0.43072405
v 0.20983881 -0.22527039 -0.42358619
v 0.24593937 -0.41918540 -0.18956025
v 0.25633198 -0.41200668 -0.20014675
v 0.36001852 -0.37988192 -0.05001086
v 0.38189766 -0.36731923 -0.04487801
v 0.46025229 -0.25039589 -0.05105347
v 0.47255933 -0.22814187 -0.05490310
v 0.47915724 -0.21216924 -0.04022636
v 0.38022256 -0.35009027 -0.13085327
v 0.39020491 -0.35018003 -0.09604612
v 0.39943516 -0.34901345 -0.05738933
v 0.46028650 0.10037403 0.05136295
v 0.50011337 -0.06464666 -0.07086307
v 0.49809635 -0.06491587 -0.08489820
v 0.49002844 -0.05998050 -0.14047736
v 0.50014752 -0.08878509 -0.04327399
v 0.49652380 -0.10987256 -0.04487801
v 0.49030191 -0.14199731 -0.05201588
v 0.48725936 -0.16487946 -0.04487801
v 0.47826838 -0.04993030 -0.20495880
v 0.47002953 -0.00946030 -0.21009165
v 0.46958512 0.08754208 -0.10759503
v 0.45980787 0.08879835 -0.16397619
v 0.47074744 0.10127137 -0.08064757
v 0.47146535 0.11042423 -0.04720383
v 0.46025229 0.13034517 -0.04046696
v 0.40798169 0.21666920 -0.04487801
v 0.39933258 0.22636047 -0.05995576
v 0.39071769 0.22994982 -0.08922905
v 0.33981451 0.25974149 -0.19918434
v 0.33044752 0.27050954 -0.20086856
v 0.32114890 0.28127760 -0.20223197
v 0.30415839 0.29778868 -0.20896885
v 0.28932160 0.31914532 -0.19661792
v 0.23646982 0.37406248 -0.19228707
v 0.27944180 0.32928526 -0.19750012
v 0.26952782 0.33942521 -0.19814174
v 0.20977044 0.38976592 -0.19942495
v 0.19144668 0.40089297 -0.20126957
v 0.17589198 0.40834087 -0.20576081
v 0.22488073 0.37693399 -0.20359538
v 0.25072545 0.27050954 -0.33055326
v 0.15767077 0.35037273 -0.31355068
v 0.15561959 0.24726847 -0.40080917
v 0.15449145 0.10010483 -0.43569651
v 0.23749539 -0.23926888 -0.40947086
v 0.23582028 -0.29732674 -0.37089425
v 0.24087983 -0.31078684 -0.36046815
v 0.24419588 -0.32541347 -0.34739542
v 0.26053685 -0.33025908 -0.33031264
v 0.29089415 -0.39038080 -0.20086856
v 0.35113013 -0.35062867 -0.20102896
v 0.32121727 -0.37063932 -0.20110917
v 0.15449145 -0.13436992 -0.44291458
v 0.16956754 -0.14953496 -0.43986696
v 0.23004282 -0.20490079 -0.42815763
v 0.24002518 -0.21889928 -0.42206237
v 0.30952561 -0.37952304 -0.19838233
v 0.29212487 -0.39118844 -0.19485350
v 0.46062833 -0.22105290 -0.13823174
v 0.47119188 -0.21701486 -0.08987065
v 0.47673002 -0.21486126 -0.05995576
v 0.48028538 -0.20176010 -0.05177528
v 0.36227483 -0.34883404 -0.18779583
v 0.36955646 -0.34138608 -0.19493370
v 0.37834230 -0.33851463 -0.17993616
v 0.43003175 -0.25003695 -0.20006655
v 0.48715681 -0.06491587 -0.15491351
v 0.47874701 -0.07029990 -0.20303398
v 0.47717446 -0.05989076 -0.21490370
v 0.47040558 -0.03216298 -0.22067817
v 0.46144882 0.03944469 -0.20672323
v 0.45604742 0.08493979 -0.18988106
v 0.45088530 0.09669494 -0.19357029
v 0.46059418 0.10091244 -0.13293847
v 0.41044310 0.21074677 -0.05217628
v 0.45987624 0.12971702 -0.04896825
v 0.43813387 0.11697481 -0.19485350
v 0.42965570 0.12935808 -0.19830213
v 0.37970975 0.21954069 -0.16886844
v 0.29988512 0.28971261 -0.22966065
v 0.37273577 0.22321978 -0.18490860
v 0.37290671 0.21801521 -0.19589612
v 0.36073643 0.23093690 -0.20118937
v 0.24932382 0.35916668 -0.19846255
v 0.26549387 0.26019013 -0.32806703
v 0.26590407 0.25058860 -0.33889413
v 0.24891357 0.25435746 -0.34795684
v 0.21141139 0.25094754 -0.37057346
v 0.19172016 0.25112700 -0.38075897
v 0.17206313 0.25121677 -0.39094445
v 0.35875365 0.07641507 -0.35124508
v 0.31444842 0.01467813 -0.38757601
v 0.29691091 -0.00919109 -0.40177158
v 0.26829711 -0.04104664 -0.42310497
v 0.25981894 -0.06114704 -0.43096465
v 0.24002518 -0.06742841 -0.43465391
v 0.20495020 -0.06168544 -0.43986696
v 0.15449145 -0.06491587 -0.44748601
v 0.25089636 -0.23092362 -0.41051346
v 0.30029535 -0.21010536 -0.39006224
v 0.36295855 -0.20552893 -0.34771621
v 0.32949030 -0.29939061 -0.29935515
v 0.34942082 -0.31949103 -0.24930985
v 0.33947265 -0.35960209 -0.19902395
v 0.15449145 -0.11956383 -0.44435820
v 0.21872720 -0.18865895 -0.43096465
v 0.24505055 -0.19987568 -0.42655361
v 0.23335889 -0.19063309 -0.42903984
v 0.25465685 -0.20893882 -0.42126036
v 0.45026994 -0.21602780 -0.20070817
v 0.46018392 -0.21055403 -0.16116917
v 0.45963696 -0.20777227 -0.16782583
v 0.46985859 -0.11426952 -0.20880844
v 0.37123159 -0.33133590 -0.20768563
v 0.37765858 -0.33259219 -0.19525450
v 0.41030633 -0.28054649 -0.20046756
v 0.44107386 -0.22921868 -0.20439740
v 0.47372162 -0.07496607 -0.21915434
v 0.47013211 -0.06491587 -0.23014185
v 0.47214907 -0.04984056 -0.22436740
v 0.42035708 -0.06007023 -0.32052815
v 0.39006814 0.00032070 -0.35004205
v 0.45044088 0.09014436 -0.20632222
v 0.44049272 0.11069343 -0.20118937
v 0.42090404 0.14138244 -0.20175077
v 0.37988067 0.21236198 -0.18787603
v 0.29010788 0.28002137 -0.26005673
v 0.38005161 0.20509352 -0.19974574
v 0.37171018 0.20805474 -0.21105406
v 0.28012553 0.24000002 -0.32999185
v 0.25718662 0.24493539 -0.34843802
v 0.28911647 0.22851408 -0.32822743
v 0.37082136 0.08745234 -0.34057835
v 0.36839414 0.06672381 -0.34915984
v 0.33868638 0.04195724 -0.36937043
v 0.28504834 -0.03988010 -0.41492450
v 0.27968109 -0.05450673 -0.42093956
v 0.30323535 -0.05531433 -0.40947086
v 0.37960720 -0.05737821 -0.37177646
v 0.26022917 -0.08142690 -0.43000224
v 0.25503290 -0.07496607 -0.43168646
v 0.24682823 -0.13221630 -0.43016264
v 0.23848680 -0.16487946 -0.42968145
v 0.15476494 -0.10493720 -0.44540080
v 0.15462820 -0.07963223 -0.44676420
v 0.17503732 -0.07496607 -0.44395718
v 0.27092946 -0.21073349 -0.41043326
v 0.34989944 -0.19942702 -0.35982653
v 0.37106067 -0.19485059 -0.34611222
v 0.37676975 -0.20570840 -0.33432269
v 0.37088972 -0.21737380 -0.33119485
v 0.33916497 -0.28907120 -0.29887393
v 0.33892569 -0.29876250 -0.28868845
v 0.35027549 -0.31024843 -0.26037756
v 0.16505496 -0.12494786 -0.44267398
v 0.20505276 -0.16487946 -0.43457368
v 0.24505055 -0.17492966 -0.42807743
v 0.22833352 -0.17492966 -0.43064386
v 0.39266628 -0.07496607 -0.36231276
v 0.39092281 -0.08842615 -0.36078897
v 0.44237295 -0.21548939 -0.21803154
v 0.45180833 -0.20624679 -0.20784603
v 0.45553461 -0.20490079 -0.19485350
v 0.46302140 -0.15491900 -0.20487860
v 0.46004719 -0.16532813 -0.20969065
v 0.37933370 -0.32370853 -0.20367560
v 0.39034164 -0.31042790 -0.20046756
v 0.42018613 -0.21019509 -0.26029736
v 0.43092060 -0.21127190 -0.24153037
v 0.47023463 -0.09111817 -0.22035736
v 0.46097022 -0.06204438 -0.24762563
v 0.43010011 -0.07047937 -0.30007696
v 0.40616983 -0.06491587 -0.34490919
v 0.39693958 -0.05989076 -0.35934535
v 0.38641024 -0.03090671 -0.36279398
v 0.37977812 0.03962416 -0.34980145
v 0.37697485 0.07345385 -0.34041795
v 0.38952118 0.07794055 -0.31916475
v 0.43061292 0.09095196 -0.24096896
v 0.43892014 0.09777175 -0.22035736
v 0.43020266 0.12020523 -0.21025206
v 0.40924656 0.15879081 -0.20239238
v 0.39003396 0.19001822 -0.19998635
v 0.35536921 0.18553153 -0.26559061
v 0.33984870 0.17476346 -0.30480880
v 0.32019168 0.19019769 -0.32004696
v 0.35923225 0.11912842 -0.32910964
v 0.37088972 0.09714361 -0.33223748
v 0.37991488 0.08870862 -0.32614222
v 0.37119740 0.05487893 -0.35052326
v 0.35919806 -0.00156371 -0.36953086
v 0.32706308 -0.01484433 -0.38845822
v 0.31906354 -0.00201238 -0.38942063
v 0.36022365 -0.04939190 -0.38003716
v 0.24576846 -0.15007336 -0.42936063
v 0.38001743 -0.16012356 -0.34996185
v 0.38083789 -0.19359432 -0.33656833
v 0.38965791 -0.19843994 -0.31932515
v 0.40148634 -0.07559420 -0.34915984
v 0.39020491 -0.12090983 -0.35028264
v 0.43956968 -0.20831068 -0.22925964
v 0.41970754 -0.06850522 -0.31940535
v 0.37495789 -0.01484433 -0.36479899
v 0.42192963 0.09310558 -0.25307930
v 0.42524570 0.10530940 -0.23535490
v 0.37017182 0.15017636 -0.28026736
v 0.43047619 0.11069343 -0.22075836
v 0.35912970 0.16866155 -0.27842274
v 0.35940319 0.15897028 -0.28892905
v 0.36651391 0.11087290 -0.32582140
v 0.40719542 0.11509039 -0.25508431
f 1 2 3
f 1 3 4
f 1 4 5
f 1 5 6
f 1 6 7
f 1 7 2
f 2 7 8
f 2 8 9
f 2 9 10
f 2 10 11
f 2 11 12
f 2 12 13
f 2 13 14
f 2 14 3
f 3 14 34
f 3 34 73
f 3 73 121
f 3 121 170
f 3 170 219
f 3 219 267
f 3 267 327
f 3 327 381
f 3 381 388
f 3 388 336
f 3 336 280
f 3 280 231
f 3 231 173
f 3 173 122
f 3 122 74
f 3 74 37
f 3 37 15
f 3 15 4
f 4 15 16
f 4 16 5
f 5 16 17
f 5 17 8
f 5 8 6
f 6 8 7
f 8 17 9
f 9 17 18
f 9 18 10
f 10 19 20
f 10 20 21
f 10 21 11
f 10 18 22
f 10 22 23
f 10 23 24
f 10 24 25
f 10 25 26
f 10 26 19
f 11 21 27
f 11 27 12
f 12 28 29
f 12 29 30
f 12 30 31
f 12 31 32
f 12 32 13
f 12 27 28
f 13 32 14
f 14 33 34
f 14 32 35
f 14 35 33
f 15 36 22
f 15 22 18
f 15 18 17
f 15 17 16
f 15 37 38
f 15 38 36
f 19 39 20
f 19 26 40
f 19 40 39
f 20 39 41
f 20 41 42
f 20 42 21
f 21 42 43
f 21 43 27
f 22 36 44
f 22 44 45
f 22 45 23
f 23 45 46
f 23 46 47
f 23 47 48
f 23 48 49
f 23 49 24
f 24 49 50
f 24 50 25
f 25 51 52
f 25 52 26
f 25 50 53
f 25 53 51
f 26 52 54
f 26 54 55
f 26 55 40
f 27 43 56
f 27 56 28
f 28 56 57
f 28 57 29
f 29 57 58
f 29 58 59
f 29 59 60
f 29 60 30
f 30 60 61
f 30 61 31
f 31 61 62
f 31 62 63
f 31 63 64
f 31 64 65
f 31 65 32
f 32 65 66
f 32 66 35
f 33 67 34
f 33 35 68
f 33 68 69
f 33 69 70
f 33 70 67
f 34 67 71
f 34 71 72
f 34 72 73
f 35 66 64
f 35 64 68
f 36 38 44
f 37 74 75
f 37 75 76
f 37 76 77
f 37 77 78
f 37 78 79
f 37 79 80
f 37 80 81
f 37 81 38
f 38 81 80
f 38 80 82
f 38 82 50
f 38 50 83
f 38 83 84
f 38 84 45
f 38 45 44
f 39 85 41
f 39 40 86
f 39 86 87
f 39 87 85
f 40 55 88
f 40 88 86
f 41 89 42
f 41 85 89
f 42 90 43
f 42 89 91
f 42 91 90
f 43 90 92
f 43 92 58
f 43 58 56
f 45 84 47
f 45 47 46
f 47 84 48
f 48 84 83
f 48 83 93
f 48 93 50
f 48 50 49
f 50 93 83
f 50 82 53
f 51 53 52
f 52 53 94
f 52 94 54
f 53 82 95
f 53 95 96
f 53 96 97
f 53 97 98
f 53 98 94
f 54 99 55
f 54 94 100
f 54 100 101
f 54 101 99
f 55 99 88
f 56 58 57
f 58 92 102
f 58 102 60
f 58 60 59
f 60 102 103
f 60 103 104
f 60 104 105
f 60 105 61
f 61 105 62
f 62 105 106
f 62 106 63
f 63 106 64
f 64 66 65
f 64 106 104
f 64 104 107
f 64 107 70
f 64 70 69
f 64 69 68
f 67 108 72
f 67 72 71
f 67 70 107
f 67 107 109
f 67 109 108
f 72 110 111
f 72 111 112
f 72 112 113
f 72 113 114
f 72 114 115
f 72 115 73
f 72 108 110
f 73 115 116
f 73 116 117
f 73 117 118
f 73 118 119
f 73 119 120
f 73 120 121
f 74 122 123
f 74 123 124
f 74 124 75
f 75 124 125
f 75 125 76
f 76 125 77
f 77 125 126
f 77 126 127
f 77 127 79
f 77 79 78
f 79 127 128
f 79 128 129
f 79 129 80
f 80 130 82
f 80 129 128
f 80 128 131
f 80 131 130
f 82 130 95
f 85 87 132
f 85 132 133
f 85 133 89
f 86 88 134
f 86 134 87
f 87 134 135
f 87 135 136
f 87 136 137
f 87 137 132
f 88 99 138
f 88 138 139
f 88 139 140
f 88 140 134
f 89 133 141
f 89 141 142
f 89 142 91
f 90 91 143
f 90 143 144
f 90 144 102
f 90 102 92
f 91 145 146
f 91 146 147
f 91 147 143
f 91 142 148
f 91 148 145
f 94 98 149
f 94 149 100
f 95 130 131
f 95 131 96
f 96 131 127
f 96 127 150
f 96 150 151
f 96 151 152
f 96 152 97
f 97 152 153
f 97 153 154
f 97 154 98
f 98 154 155
f 98 155 149
f 99 101 138
f 100 149 156
f 100 156 138
f 100 138 101
f 102 144 157
f 102 157 103
f 103 157 158
f 103 158 159
f 103 159 108
f 103 108 107
f 103 107 104
f 104 106 105
f 107 108 109
f 108 159 160
f 108 160 110
f 110 112 161
f 110 161 162
f 110 162 111
f 110 160 112
f 111 162 161
f 111 161 112
f 112 160 163
f 112 163 113
f 113 163 117
f 113 117 116
f 113 116 114
f 114 116 115
f 117 163 118
f 118 163 164
f 118 164 165
f 118 165 166
f 118 166 119
f 119 166 167
f 119 167 120
f 120 168 169
f 120 169 170
f 120 170 121
f 120 167 168
f 122 171 172
f 122 172 123
f 122 173 171
f 123 172 174
f 123 174 124
f 124 174 175
f 124 175 176
f 124 176 125
f 125 177 126
f 125 176 178
f 125 178 177
f 126 177 150
f 126 150 127
f 127 131 128
f 132 137 133
f 133 137 148
f 133 148 142
f 133 142 141
f 134 179 135
f 134 140 179
f 135 179 180
f 135 180 181
f 135 181 136
f 136 181 137
f 137 181 148
f 138 156 152
f 138 152 182
f 138 182 139
f 139 182 183
f 139 183 184
f 139 184 185
f 139 185 140
f 140 185 179
f 143 147 144
f 144 147 186
f 144 186 187
f 144 187 188
f 144 188 157
f 145 189 190
f 145 190 146
f 145 148 181
f 145 181 191
f 145 191 192
f 145 192 189
f 146 190 193
f 146 193 186
f 146 186 147
f 149 194 195
f 149 195 156
f 149 155 194
f 150 196 151
f 150 177 197
f 150 197 196
f 151 196 198
f 151 198 152
f 152 198 182
f 152 156 199
f 152 199 154
f 152 154 153
f 154 199 200
f 154 200 155
f 155 200 194
f 156 195 199
f 157 188 201
f 157 201 158
f 158 202 203
f 158 203 204
f 158 204 205
f 158 205 206
f 158 206 207
f 158 207 208
f 158 208 159
f 158 201 202
f 159 208 207
f 159 207 209
f 159 209 160
f 160 209 163
f 163 210 211
f 163 211 164
f 163 209 210
f 164 211 165
f 165 211 212
f 165 212 213
f 165 213 166
f 166 214 215
f 166 215 167
f 166 213 216
f 166 216 214
f 167 215 217
f 167 217 218
f 167 218 168
f 168 218 169
f 169 218 170
f 170 218 219
f 171 220 221
f 171 221 222
f 171 222 172
f 171 173 220
f 172 222 223
f 172 223 174
f 173 224 225
f 173 225 226
f 173 226 227
f 173 227 228
f 173 228 229
f 173 229 230
f 173 230 220
f 173 231 232
f 173 232 224
f 174 223 233
f 174 233 175
f 175 233 234
f 175 234 197
f 175 197 177
f 175 177 176
f 176 177 178
f 179 185 235
f 179 235 180
f 180 235 236
f 180 236 237
f 180 237 181
f 181 237 191
f 182 198 183
f 183 198 238
f 183 238 184
f 184 238 239
f 184 239 185
f 185 239 240
f 185 240 241
f 185 241 235
f 186 193 242
f 186 242 187
f 187 242 243
f 187 243 188
f 188 243 201
f 189 244 190
f 189 192 245
f 189 245 246
f 189 246 244
f 190 244 247
f 190 247 248
f 190 248 193
f 191 237 249
f 191 249 245
f 191 245 250
f 191 250 192
f 192 250 245
f 193 251 252
f 193 252 253
f 193 253 254
f 193 254 242
f 193 248 251
f 194 200 195
f 195 200 199
f 196 197 239
f 196 239 238
f 196 238 198
f 197 234 255
f 197 255 239
f 201 243 202
f 202 256 203
f 202 243 256
f 203 256 204
f 204 256 205
f 205 256 257
f 205 257 206
f 206 258 207
f 206 257 258
f 207 258 212
f 207 212 210
f 207 210 209
f 210 212 211
f 212 258 213
f 213 258 257
f 213 257 256
f 213 256 216
f 214 216 259
f 214 259 215
f 215 259 260
f 215 260 261
f 215 261 217
f 216 256 262
f 216 262 259
f 217 261 263
f 217 263 219
f 217 219 218
f 219 263 264
f 219 264 265
f 219 265 266
f 219 266 267
f 220 230 229
f 220 229 221
f 221 229 268
f 221 268 222
f 222 268 269
f 222 269 270
f 222 270 271
f 222 271 223
f 223 271 233
f 224 232 272
f 224 272 225
f 225 272 273
f 225 273 226
f 226 273 274
f 226 274 275
f 226 275 227
f 227 276 228
f 227 275 277
f 227 277 278
f 227 278 279
f 227 279 276
f 228 276 229
f 229 276 268
f 231 280 281
f 231 281 232
f 232 281 282
f 232 282 283
f 232 283 272
f 233 271 284
f 233 284 285
f 233 285 286
f 233 286 287
f 233 287 255
f 233 255 234
f 235 241 288
f 235 288 236
f 236 289 290
f 236 290 237
f 236 288 289
f 237 290 249
f 239 255 287
f 239 287 240
f 240 287 291
f 240 291 292
f 240 292 293
f 240 293 241
f 241 293 288
f 242 254 243
f 243 254 294
f 243 294 256
f 244 246 295
f 244 295 296
f 244 296 297
f 244 297 247
f 245 249 298
f 245 298 246
f 246 298 299
f 246 299 300
f 246 300 296
f 246 296 295
f 247 297 251
f 247 251 248
f 249 290 301
f 249 301 299
f 249 299 298
f 251 297 302
f 251 302 252
f 252 302 303
f 252 303 304
f 252 304 305
f 252 305 306
f 252 306 307
f 252 307 253
f 253 294 254
f 253 307 308
f 253 308 294
f 256 294 262
f 259 262 309
f 259 309 310
f 259 310 311
f 259 311 260
f 260 312 313
f 260 313 314
f 260 314 315
f 260 315 316
f 260 316 261
f 260 311 312
f 261 316 263
f 262 294 308
f 262 308 309
f 263 317 264
f 263 316 318
f 263 318 319
f 263 319 317
f 264 317 320
f 264 320 265
f 265 321 266
f 265 320 321
f 266 321 322
f 266 322 267
f 267 322 321
f 267 321 323
f 267 323 324
f 267 324 325
f 267 325 326
f 267 326 327
f 268 276 284
f 268 284 269
f 269 271 270
f 269 284 271
f 272 328 329
f 272 329 273
f 272 283 328
f 273 329 330
f 273 330 331
f 273 331 274
f 274 331 332
f 274 332 279
f 274 279 278
f 274 278 275
f 275 278 277
f 276 279 333
f 276 333 285
f 276 285 284
f 279 332 334
f 279 334 335
f 279 335 333
f 280 336 337
f 280 337 338
f 280 338 281
f 281 338 282
f 282 338 339
f 282 339 283
f 283 339 328
f 285 333 340
f 285 340 341
f 285 341 286
f 286 341 291
f 286 291 287
f 288 293 342
f 288 342 289
f 289 342 343
f 289 343 344
f 289 344 290
f 290 344 345
f 290 345 301
f 291 346 347
f 291 347 348
f 291 348 292
f 291 341 346
f 292 348 349
f 292 349 293
f 293 349 342
f 296 350 297
f 296 300 351
f 296 351 350
f 297 352 302
f 297 350 351
f 297 351 352
f 299 301 345
f 299 345 300
f 300 345 351
f 302 352 303
f 303 352 353
f 303 353 354
f 303 354 355
f 303 355 305
f 303 305 304
f 305 355 356
f 305 356 306
f 306 356 357
f 306 357 358
f 306 358 359
f 306 359 307
f 307 359 308
f 308 359 309
f 309 359 358
f 309 358 310
f 310 358 356
f 310 356 360
f 310 360 311
f 311 360 361
f 311 361 362
f 311 362 312
f 312 363 313
f 312 362 364
f 312 364 365
f 312 365 366
f 312 366 363
f 313 363 314
f 314 363 315
f 315 363 319
f 315 319 318
f 315 318 316
f 317 323 320
f 317 319 367
f 317 367 323
f 319 363 367
f 320 323 321
f 323 367 368
f 323 368 324
f 324 368 369
f 324 369 370
f 324 370 325
f 325 370 371
f 325 371 372
f 325 372 373
f 325 373 326
f 326 373 372
f 326 372 371
f 326 371 374
f 326 374 375
f 326 375 376
f 326 376 377
f 326 377 327
f 327 377 378
f 327 378 379
f 327 379 380
f 327 380 381
f 328 330 329
f 328 339 382
f 328 382 330
f 330 382 383
f 330 383 384
f 330 384 331
f 331 384 332
f 332 347 334
f 332 384 385
f 332 385 386
f 332 386 347
f 333 335 340
f 334 387 335
f 334 347 387
f 335 387 340
f 336 388 389
f 336 389 337
f 337 389 338
f 338 390 339
f 338 389 391
f 338 391 390
f 339 390 392
f 339 392 382
f 340 387 347
f 340 347 346
f 340 346 341
f 342 393 394
f 342 394 343
f 342 349 393
f 343 394 395
f 343 395 344
f 344 395 396
f 344 396 351
f 344 351 345
f 347 386 397
f 347 397 398
f 347 398 348
f 348 398 399
f 348 399 349
f 349 399 400
f 349 400 393
f 351 396 401
f 351 401 352
f 352 402 403
f 352 403 353
f 352 401 402
f 353 403 404
f 353 404 405
f 353 405 406
f 353 406 354
f 354 406 355
f 355 406 356
f 356 407 360
f 356 358 357
f 356 406 407
f 360 407 361
f 361 408 409
f 361 409 362
f 361 407 408
f 362 409 364
f 363 366 410
f 363 410 367
f 364 409 365
f 365 409 411
f 365 411 366
f 366 411 412
f 366 412 413
f 366 413 410
f 367 410 368
f 368 410 413
f 368 413 369
f 369 414 370
f 369 413 415
f 369 415 416
f 369 416 414
f 370 414 371
f 371 414 374
f 374 416 417
f 374 417 418
f 374 418 375
f 374 414 416
f 375 418 376
f 376 419 377
f 376 418 419
f 377 419 420
f 377 420 378
f 378 420 421
f 378 421 422
f 378 422 423
f 378 423 424
f 378 424 379
f 379 381 380
f 379 424 425
f 379 425 426
f 379 426 427
f 379 427 428
f 379 428 429
f 379 429 381
f 381 429 428
f 381 428 388
f 382 392 430
f 382 430 383
f 383 430 431
f 383 431 384
f 384 431 432
f 384 432 433
f 384 433 434
f 384 434 385
f 385 435 436
f 385 436 437
f 385 437 386
f 385 434 435
f 386 437 397
f 388 428 427
f 388 427 438
f 388 438 389
f 389 438 439
f 389 439 391
f 390 391 440
f 390 440 423
f 390 423 392
f 391 439 438
f 391 438 427
f 391 427 441
f 391 441 426
f 391 426 440
f 392 423 422
f 392 422 442
f 392 442 443
f 392 443 430
f 393 400 444
f 393 444 445
f 393 445 446
f 393 446 394
f 394 446 395
f 395 446 396
f 396 447 448
f 396 448 401
f 396 446 447
f 397 449 398
f 397 437 434
f 397 434 449
f 398 449 450
f 398 450 399
f 399 450 451
f 399 451 452
f 399 452 444
f 399 444 400
f 401 448 453
f 401 453 402
f 402 454 403
f 402 453 455
f 402 455 454
f 403 454 404
f 404 454 456
f 404 456 457
f 404 457 405
f 405 457 458
f 405 458 459
f 405 459 460
f 405 460 461
f 405 461 406
f 406 462 463
f 406 463 407
f 406 461 462
f 407 463 464
f 407 464 408
f 408 465 466
f 408 466 409
f 408 464 465
f 409 466 411
f 411 466 412
f 412 466 467
f 412 467 415
f 412 415 413
f 415 467 468
f 415 468 469
f 415 469 470
f 415 470 416
f 416 471 472
f 416 472 461
f 416 461 460
f 416 460 459
f 416 459 417
f 416 470 471
f 417 459 473
f 417 473 474
f 417 474 475
f 417 475 476
f 417 476 419
f 417 419 418
f 419 476 475
f 419 475 420
f 420 475 477
f 420 477 421
f 421 477 422
f 422 477 458
f 422 458 457
f 422 457 442
f 423 440 424
f 424 440 478
f 424 478 425
f 425 478 426
f 426 478 440
f 426 441 427
f 430 443 479
f 430 479 431
f 431 479 432
f 432 479 480
f 432 480 433
f 433 480 481
f 433 481 451
f 433 451 450
f 433 450 434
f 434 450 449
f 434 437 435
f 435 437 436
f 442 482 443
f 442 457 456
f 442 456 482
f 443 482 483
f 443 483 479
f 444 452 484
f 444 484 445
f 445 484 448
f 445 448 446
f 446 448 447
f 448 482 485
f 448 485 455
f 448 455 453
f 448 484 482
f 451 481 484
f 451 484 452
f 454 455 485
f 454 485 456
f 456 485 482
f 458 477 486
f 458 486 459
f 459 486 473
f 461 472 462
f 462 487 488
f 462 488 463
f 462 472 487
f 463 488 489
f 463 489 490
f 463 490 464
f 464 466 465
f 464 490 466
f 466 490 467
f 467 491 468
f 467 490 491
f 468 491 492
f 468 492 493
f 468 493 470
f 468 470 469
f 470 493 471
f 471 493 472
f 472 493 487
f 473 486 474
f 474 486 477
f 474 477 475
f 479 483 480
f 480 483 484
f 480 484 481
f 482 484 483
f 487 493 494
f 487 494 488
f 488 494 489
f 489 494 493
f 489 493 492
f 489 492 490
f 490 492 491

