# https://github.com/mikedh/trimesh
v -0.05499289 0.04403457 -0.45632005
v -0.00172791 0.04403457 -0.45632005
v -0.07385875 0.04403457 -0.45624083
v -0.05499289 0.06501899 -0.45632005
v -0.00172791 0.07501476 -0.45632005
v -0.00172791 0.04403457 0.35300240
v -0.07385875 0.05502323 -0.45624083
v -0.07385875 0.04403457 0.34602958
v -0.03499734 0.07501476 -0.45632005
v -0.07385875 0.07501476 -0.45616159
v -0.05499289 0.07501476 -0.45624083
v -0.00172791 0.08501051 -0.45608234
v -0.00172791 0.05319019 0.35268545
v -0.04209322 0.04403457 0.35316086
v -0.04499511 0.04403457 0.35308164
v -0.07385875 0.06486624 0.34301859
v -0.07385875 0.07889085 -0.45600310
v -0.07385875 0.08501051 -0.45568615
v -0.05499289 0.14156725 -0.45275441
v -0.00172791 0.09498718 -0.45481455
v -0.00172791 0.05502323 0.35260621
v -0.00172791 0.06501899 0.35205156
v -0.00172791 0.07534890 0.35086301
v -0.00172791 0.08186954 0.35007066
v -0.00172791 0.08586020 0.34927827
v -0.07385875 0.14156725 0.33026150
v -0.07385875 0.07501476 0.34151310
v -0.07385875 0.14156725 -0.45259595
v -0.00172791 0.14156725 -0.44887182
v -0.00172791 0.14156725 0.33010301
v -0.05499289 0.14156725 0.33026150
f 1 2 6
f 1 6 14
f 1 14 15
f 1 15 8
f 1 8 3
f 1 3 7
f 1 7 4
f 1 4 9
f 1 9 5
f 1 5 2
f 2 5 12
f 2 12 20
f 2 20 29
f 2 29 30
f 2 30 25
f 2 25 24
f 2 24 23
f 2 23 22
f 2 22 21
f 2 21 13
f 2 13 6
f 3 8 16
f 3 16 27
f 3 27 26
f 3 26 28
f 3 28 18
f 3 18 17
f 3 17 10
f 3 10 7
f 4 7 10
f 4 10 11
f 4 11 9
f 5 9 12
f 6 13 14
f 8 15 16
f 9 11 12
f 10 17 12
f 10 12 11
f 12 17 18
f 12 18 19
f 12 19 20
f 13 21 14
f 14 21 22
f 14 22 15
f 15 22 23
f 15 23 24
f 15 24 25
f 15 25 26
f 15 26 27
f 15 27 16
f 18 28 19
f 19 29 20
f 19 28 26
f 19 26 31
f 19 31 30
f 19 30 29
f 25 30 31
f 25 31 26

