# https://github.com/mikedh/trimesh
v -0.03172220 0.02901694 -0.45632005
v -0.03172220 0.07503459 -0.45632005
v 0.04164015 0.02901694 -0.45632005
v -0.03172220 0.02901694 0.35295722
v -0.03172220 0.08500746 -0.45607984
v 0.00500924 0.08500746 -0.45623997
v 0.02498713 0.08500746 -0.45632005
v 0.04164015 0.08500746 -0.45632005
v 0.04164015 0.02901694 0.34799331
v 0.01540033 0.02901694 0.36040309
v -0.03172220 0.05320510 0.35263696
v -0.03172220 0.19073567 -0.44559160
v 0.04164015 0.09504364 -0.45559946
v 0.04161142 0.02901694 0.34807336
v 0.04164015 0.06029691 0.35904202
v 0.02390278 0.02901694 0.36144391
v 0.02498713 0.04503684 0.36160403
v -0.03172220 0.05500971 0.35255691
v 0.04164015 0.19073567 -0.43950680
v -0.03172220 0.19073567 0.33550346
v 0.04055580 0.05831817 0.36032301
v 0.03610350 0.02901694 0.35615975
v 0.04164015 0.06330460 0.35904202
v 0.02503739 0.02901694 0.36144391
v 0.03221852 0.02901694 0.36104357
v 0.03238368 0.04503684 0.36104357
v 0.04055580 0.06240230 0.36032301
v 0.03698678 0.06240230 0.36032301
v 0.04164015 0.14433810 0.35055533
v -0.03172220 0.08188896 0.35007495
v -0.03172220 0.06501424 0.35207653
v 0.04164015 0.19073567 0.33622405
v 0.04164015 0.14953032 0.34983477
v 0.04164015 0.08166734 0.35792112
v 0.04164015 0.09504364 0.35648000
f 1 2 7
f 1 7 8
f 1 8 3
f 1 3 9
f 1 9 14
f 1 14 22
f 1 22 25
f 1 25 24
f 1 24 16
f 1 16 10
f 1 10 4
f 1 4 11
f 1 11 18
f 1 18 31
f 1 31 30
f 1 30 20
f 1 20 12
f 1 12 5
f 1 5 2
f 2 5 6
f 2 6 7
f 3 8 13
f 3 13 19
f 3 19 32
f 3 32 33
f 3 33 29
f 3 29 35
f 3 35 34
f 3 34 23
f 3 23 15
f 3 15 9
f 4 10 11
f 5 12 13
f 5 13 6
f 6 13 7
f 7 13 8
f 9 15 14
f 10 16 17
f 10 17 11
f 11 17 18
f 12 19 13
f 12 20 32
f 12 32 19
f 14 15 21
f 14 21 22
f 15 23 27
f 15 27 21
f 16 24 17
f 17 24 25
f 17 25 26
f 17 26 27
f 17 27 28
f 17 28 29
f 17 29 30
f 17 30 31
f 17 31 18
f 20 30 29
f 20 29 33
f 20 33 32
f 21 27 26
f 21 26 25
f 21 25 22
f 23 34 27
f 27 34 35
f 27 35 28
f 28 35 29

