# https://github.com/mikedh/trimesh
v 0.10497966 -0.03482284 0.37263036
v 0.09501287 -0.03482284 0.37198123
v 0.08502106 -0.06485712 0.37133208
v 0.09501287 -0.05497242 0.37198123
v 0.09501287 -0.06485712 0.37181893
v 0.10497966 -0.04499267 0.37238693
v 0.11497147 -0.04499267 0.37238693
v 0.14498442 -0.05497242 0.37206236
v 0.11497147 -0.03482284 0.37230581
v 0.11001934 0.21001351 0.34999165
v 0.09501287 -0.02493815 0.37157550
v 0.08502106 -0.05497242 0.37125096
v 0.02664587 -0.00497866 0.36411041
v 0.07786797 -0.06485712 0.37035838
v 0.07884339 -0.07236569 0.37027723
v 0.08444580 -0.07531209 0.37076408
v 0.09501287 -0.07493190 0.37149438
v 0.02664587 -0.01495840 0.36411041
v 0.10497966 -0.07493190 0.37157550
v 0.11497147 -0.07493190 0.37157550
v 0.15440099 -0.08491164 0.37125096
v 0.15440099 -0.05459224 0.37125096
v 0.15440099 -0.07531209 0.37149438
v 0.15440099 -0.06523730 0.37173781
v 0.11412111 0.21400540 0.34820652
v 0.10926902 0.24945724 0.33984885
v 0.10260364 0.25040770 0.34017342
v 0.09501287 0.25088292 0.34049800
v 0.08502106 0.25145319 0.34082255
v 0.06502493 0.25259376 0.34130940
v 0.04501629 0.25392437 0.34163398
v 0.02664587 0.25449464 0.34155285
v 0.02664587 0.25088292 0.34203970
v 0.02664587 0.24499013 0.34268883
v 0.15440099 -0.05250124 0.37100753
v 0.02664587 0.08160748 0.35786244
v 0.02664587 -0.22491318 0.35177678
v 0.02664587 -0.22738434 0.35161451
v 0.08740959 -0.08053957 0.37043953
v 0.07501674 -0.22491318 0.35461676
v 0.13498011 -0.08491164 0.37116981
v 0.14498442 -0.08491164 0.37125096
v 0.15440099 -0.09175490 0.37052065
v 0.12428799 0.22493559 0.34220198
v 0.12596372 0.23539056 0.33919972
v 0.12328757 0.23225407 0.34082255
v 0.02664587 0.37881371 0.26933613
v 0.12497579 0.24499013 0.33579174
v 0.13122849 0.25069284 0.33084205
v 0.10081537 0.34060556 0.28045264
v 0.07179035 0.38033444 0.26041046
v 0.06502493 0.38118985 0.26130304
v 0.02664587 0.25905681 0.33960542
v 0.15440099 0.23491533 0.32037467
v 0.12929016 0.22493559 0.33919972
v 0.02664587 -0.23337220 0.35088420
v 0.06502493 -0.23498796 0.35266936
v 0.07501674 -0.23498796 0.35299391
v 0.08502106 -0.22491318 0.35437334
v 0.10497966 -0.22491318 0.35266936
v 0.12218709 -0.23052084 0.35023507
v 0.12885247 -0.22861993 0.34974822
v 0.15440099 -0.21550371 0.34869337
v 0.15153725 0.24204372 0.32069924
v 0.13249153 0.24499013 0.33254603
v 0.02664587 0.38128489 0.26722643
v 0.15440099 0.25240365 0.31331530
v 0.15440099 0.25297391 0.31290957
v 0.10040269 0.37016460 0.26024818
v 0.15440099 0.24499013 0.31794041
v 0.09501287 0.37121010 0.26089734
v 0.06502493 0.38518175 0.25497395
v 0.04501629 0.38850832 0.25740820
v 0.07845572 0.37928894 0.25927448
v 0.09960235 0.37976417 0.24978083
v 0.02664587 -0.23831454 0.34950480
v 0.06502493 -0.24097581 0.35064077
v 0.08560881 -0.23574832 0.35193905
v 0.11497147 -0.23137625 0.35072193
v 0.07501674 -0.24116589 0.35072193
v 0.08265754 -0.24059562 0.35039735
v 0.08560881 -0.24439743 0.34747624
v 0.13498011 -0.23498796 0.34520423
v 0.15440099 -0.23413256 0.34236425
v 0.15440099 -0.22491318 0.34690824
v 0.02664587 0.38385111 0.26430529
v 0.15440099 0.34573799 0.23582435
v 0.12109912 0.36094522 0.25083569
v 0.11111981 0.37063983 0.25091681
v 0.10424185 0.37263578 0.25448707
v 0.09577569 0.37681776 0.25473049
v 0.10085288 0.39050427 0.23087466
v 0.09825176 0.40951329 0.19931027
v 0.09900209 0.44971740 0.12960897
v 0.02664587 0.38888851 0.25805736
v 0.09236173 0.45047778 0.13082612
v 0.05033109 0.45998228 0.13009582
v 0.02664587 0.46093273 0.13171868
v 0.10561744 0.37814841 0.24588600
v 0.11030696 0.44021291 0.14031976
v 0.02664587 -0.24097581 0.34812537
v 0.02664587 -0.24496770 0.34577224
v 0.02664587 -0.37118769 0.27104011
v 0.05170668 -0.37023723 0.27022868
v 0.07110255 -0.35027775 0.28012806
v 0.14866102 -0.23964517 0.33976769
v 0.15440099 -0.33545071 0.27517837
v 0.15440099 0.34773394 0.23412034
v 0.15268776 0.35182089 0.23209178
v 0.13858166 0.35837901 0.23833975
v 0.15440099 0.35410199 0.22730440
v 0.14145790 0.36094522 0.23168609
v 0.12064893 0.37044975 0.24077401
v 0.11467135 0.37244570 0.24442542
v 0.10497966 0.44895706 0.12839185
v 0.10497966 0.45161831 0.12336102
v 0.06987702 0.45988724 0.11979075
v 0.02664587 0.46587509 0.11492221
v 0.02664587 0.46349895 0.12498386
v 0.15440099 0.42044351 0.12441586
v 0.12986541 0.43983272 0.11970961
v 0.11139493 0.45076290 0.12157588
v 0.02664587 -0.37308860 0.26860586
v 0.06502493 -0.37175795 0.26333159
v 0.08804736 -0.36957192 0.25927448
v 0.13743117 -0.35940209 0.25903106
v 0.13076580 -0.36006740 0.26016703
v 0.15440099 -0.35246378 0.26276359
v 0.15440099 -0.34666604 0.26771328
v 0.09088609 -0.36006740 0.27014756
v 0.02664587 -0.37574986 0.26479217
v 0.02664587 -0.37736562 0.26211447
v 0.04501629 -0.45074049 0.13139410
v 0.10497966 -0.35331920 0.27217612
v 0.12322504 -0.35084802 0.27055326
v 0.15440099 0.35533756 0.22543812
v 0.12731430 0.36807361 0.23687920
v 0.10497966 0.45418453 0.11492221
v 0.09501287 0.45608544 0.11492221
v 0.10878131 0.45979220 0.07873271
v 0.10564245 0.47946656 -0.03437975
v 0.04297791 0.49049178 -0.03721973
v 0.02664587 0.48954132 -0.03024149
v 0.15440099 0.42291468 0.11979075
v 0.15315045 0.42205927 0.12311758
v 0.14150792 0.43089846 0.12149474
v 0.15440099 0.42491063 0.11565249
v 0.14981151 0.42985296 0.10948567
v 0.11791024 0.44857687 0.11492221
v 0.11290809 0.45161831 0.11492221
v 0.07501674 -0.37470436 0.25497395
v 0.15440099 -0.35854667 0.25440595
v 0.15440099 -0.42735937 0.13415295
v 0.14498442 -0.35854667 0.25765163
v 0.02664587 -0.43790939 0.15533110
v 0.02664587 -0.44826931 0.13699293
v 0.02664587 -0.44921976 0.13528894
v 0.02664587 -0.45093057 0.13196211
v 0.02664587 -0.45207113 0.12920326
v 0.02664587 -0.45340174 0.12498386
v 0.02664587 -0.45539770 0.11492221
v 0.04489124 -0.47906396 -0.03511003
v 0.06223622 -0.45036030 0.12165703
v 0.05108141 -0.45017022 0.13033926
v 0.11085720 0.46036246 0.07207904
v 0.12024876 0.47015211 0.00083604
v 0.11497147 0.47613996 -0.02504838
v 0.11497147 0.47775573 -0.03502889
v 0.10274120 0.48032194 -0.03738201
v 0.10781839 0.47956160 -0.04484711
v 0.06502493 0.48554945 -0.05490877
v 0.02664587 0.49001655 -0.05150079
v 0.02664587 0.49077693 -0.04484711
v 0.02664587 0.49049178 -0.03657059
v 0.15440099 0.42776197 0.10575312
v 0.11913577 0.44943228 0.10737596
v 0.15107456 -0.43021074 0.13033926
v 0.15440099 -0.42983055 0.12969013
v 0.02664587 -0.47858873 -0.02845635
v 0.04501629 -0.47820854 -0.05490877
v 0.10010256 -0.46993962 -0.04022200
v 0.05502061 -0.47725809 -0.03502889
v 0.06890160 -0.44979003 0.11865476
v 0.02664587 -0.47963423 -0.03511003
v 0.02664587 -0.48010945 -0.03859915
v 0.02664587 -0.48020449 -0.04298084
v 0.12027377 -0.44000039 0.12011532
v 0.05774679 -0.44950491 0.12831070
v 0.15440099 -0.43154135 0.12538958
v 0.15019917 0.46007735 -0.03941057
v 0.13111594 0.47062734 -0.03502889
v 0.12497579 0.47414401 -0.03502889
v 0.11497147 0.47832599 -0.04484711
v 0.10101546 0.48013186 -0.05093279
v 0.05502061 0.46254849 -0.20485985
v 0.02664587 0.46501967 -0.20485985
v 0.15440099 0.45713094 -0.04484711
v 0.15425092 0.45684579 -0.03567803
v 0.02664587 -0.47972926 -0.04817395
v 0.02664587 -0.47877881 -0.05490877
v 0.02664587 -0.45615807 -0.19487935
v 0.04501629 -0.45397201 -0.20485985
v 0.08528367 -0.47098511 -0.05498991
v 0.09181149 -0.47031978 -0.05182536
v 0.15194994 -0.46034005 -0.04484711
v 0.15212500 -0.46034005 -0.03786887
v 0.15440099 -0.45957968 -0.03551574
v 0.09501287 -0.44560805 0.11492221
v 0.13498011 -0.43819451 0.11492221
v 0.15440099 -0.43458280 0.11459763
v 0.15019917 0.46007735 -0.04119571
v 0.13154113 0.47091249 -0.04484711
v 0.12497579 0.47461924 -0.04484711
v 0.11497147 0.47699538 -0.05490877
v 0.10422935 0.46045750 -0.16412640
v 0.10422935 0.45874670 -0.17410690
v 0.10497966 0.45503995 -0.19487935
v 0.06477482 0.46074265 -0.20461643
v 0.06127331 0.46017238 -0.21037754
v 0.05502061 0.46083769 -0.21151353
v 0.04501629 0.46178815 -0.21346095
v 0.02664587 0.46321383 -0.21062097
v 0.14957391 0.45969716 -0.04760595
v 0.15440099 0.45551518 -0.05490877
v 0.02664587 -0.45444724 -0.20485985
v 0.04501629 -0.45159590 -0.21362324
v 0.05502061 -0.45064545 -0.21151353
v 0.06079810 -0.45007518 -0.21021526
v 0.06745097 -0.44950491 -0.20688842
v 0.15440099 -0.45872429 -0.05417848
v 0.15047430 -0.46005490 -0.05028365
v 0.15440099 -0.45986483 -0.04484711
v 0.15440099 -0.45986483 -0.04119571
v 0.13071577 0.47043726 -0.05198764
v 0.12573862 0.47262329 -0.05515219
v 0.12357520 0.47205302 -0.06480813
v 0.12077399 0.47043726 -0.08233489
v 0.11938588 0.46977195 -0.08898856
v 0.11015690 0.45998228 -0.16039383
v 0.10585505 0.45209354 -0.20583357
v 0.09501287 0.45465976 -0.20485985
v 0.11192016 0.45104805 -0.20315588
v 0.10976923 0.44990751 -0.20972840
v 0.10310386 0.45066786 -0.21118897
v 0.09501287 0.45161831 -0.21273068
v 0.08894775 0.37966913 -0.33947504
v 0.02664587 0.45941201 -0.21914092
v 0.02664587 0.46197823 -0.21427238
v 0.05279465 0.38071463 -0.35059154
v 0.04501629 0.38176012 -0.35156527
v 0.02664587 0.39040923 -0.34020534
v 0.12193698 0.46121788 -0.12485348
v 0.15440099 0.42890251 -0.18489884
v 0.13170370 0.44106829 -0.19487935
v 0.11869809 0.44914714 -0.19487935
v 0.02664587 -0.45178598 -0.21435352
v 0.02664587 -0.45055041 -0.21735579
v 0.04501629 -0.44931480 -0.21865407
v 0.11204521 -0.44038057 -0.21062097
v 0.11871059 -0.43971524 -0.20843013
v 0.11522159 -0.44095084 -0.20510329
v 0.13796890 -0.43962020 -0.18765768
v 0.15440099 -0.43524814 -0.19520392
v 0.12074897 0.46045750 -0.13223743
v 0.11369593 0.45199850 -0.19487935
v 0.13059072 0.44030795 -0.20072161
v 0.11169507 0.44116333 -0.22198090
v 0.11058208 0.43042323 -0.24064365
v 0.10124055 0.38071463 -0.33136082
v 0.10005254 0.40000880 -0.29995871
v 0.09848937 0.42966288 -0.24940702
v 0.14259590 0.43156379 -0.20299359
v 0.15440099 0.42329484 -0.20421073
v 0.15440099 0.42300972 -0.20477872
v 0.15440099 0.42253450 -0.20559014
v 0.13979469 0.42985296 -0.20972840
v 0.09501287 0.37871867 -0.33809564
v 0.09501287 0.37368128 -0.34328875
v 0.05947253 0.37966913 -0.34978014
v 0.09775155 0.38945878 -0.31910831
v 0.10497966 0.25392437 -0.42248368
v 0.09531300 0.25582528 -0.42280826
v 0.07071488 0.25002754 -0.43002993
v 0.02664587 0.25487483 -0.43084136
v 0.02664587 0.37472677 -0.35675839
v 0.02664587 0.38214031 -0.35197097
v 0.02664587 0.38385111 -0.35002357
v 0.02664587 0.38736778 -0.34515500
v 0.02664587 0.38841328 -0.34353217
v 0.02664587 0.39002904 -0.34085447
v 0.15440099 0.42690656 -0.19463593
v 0.02664587 -0.44959995 -0.21930321
v 0.06009780 -0.44000039 -0.23001400
v 0.15440099 -0.43116120 -0.21216267
v 0.02664587 -0.44883958 -0.22068262
v 0.02664587 -0.44465759 -0.22822887
v 0.02664587 -0.43819451 -0.23966993
v 0.02664587 -0.37822104 -0.34564188
v 0.04501629 -0.37232822 -0.35286355
v 0.06333670 -0.37061742 -0.35083497
v 0.15440099 -0.43344226 -0.20485985
v 0.14926127 0.42937773 -0.19763818
v 0.15440099 0.41996828 -0.20989069
v 0.13998227 0.35989973 -0.32000089
v 0.11918580 0.36911911 -0.32900769
v 0.10519226 0.37520200 -0.33517450
v 0.10247859 0.37197047 -0.34182817
v 0.09501287 0.36759838 -0.34823841
v 0.09905211 0.34972990 -0.35984179
v 0.11290809 0.25211853 -0.42134771
v 0.10497966 0.24499013 -0.42613509
v 0.11081968 0.22198920 -0.43035451
v 0.11111981 0.12276204 -0.45047781
v 0.10497966 0.10498860 -0.45469722
v 0.02664587 0.24499013 -0.43433046
v 0.02664587 0.25306898 -0.43189621
v 0.06406201 -0.43695894 -0.23398997
v 0.15440099 -0.42830983 -0.21719350
v 0.02664587 -0.37280345 -0.35318810
v 0.02664587 -0.36672056 -0.35813779
v 0.07519181 -0.24582312 -0.43270764
v 0.07501674 -0.35845163 -0.35886806
v 0.11260796 -0.36044759 -0.35051042
v 0.11927333 -0.35959217 -0.34961784
v 0.14851095 -0.35959217 -0.33939391
v 0.14509697 -0.36253858 -0.33566135
v 0.15440099 0.35837901 -0.30563867
v 0.15440099 0.35277134 -0.31367177
v 0.15440099 0.35229611 -0.31432092
v 0.15052432 0.35030016 -0.32032543
v 0.12984039 0.35980469 -0.32973796
v 0.10914396 0.36902407 -0.33915049
v 0.15440099 0.25382933 -0.39773527
v 0.15440099 0.25021762 -0.40057525
v 0.15230009 0.25135815 -0.40114325
v 0.10129058 0.36123037 -0.35083497
v 0.11958597 0.24926716 -0.41972485
v 0.11573431 0.24556039 -0.42256483
v 0.11497147 0.23491533 -0.42548597
v 0.15440099 0.10498860 -0.43481731
v 0.14208317 0.10299265 -0.44090301
v 0.12111163 0.10166202 -0.45047781
v 0.11267048 0.11496834 -0.45128924
v 0.11544669 0.10498860 -0.45210066
v 0.09501287 0.10498860 -0.45485950
v 0.11497147 0.09491381 -0.45356122
v 0.10497966 0.09491381 -0.45591435
v 0.02664587 0.09491381 -0.45558977
v 0.15440099 -0.36187327 -0.33330822
v 0.06502493 -0.24496770 -0.43376249
v 0.02664587 -0.24496770 -0.43376249
v 0.07486667 -0.23403750 -0.43854988
v 0.08502106 -0.23498796 -0.43725160
v 0.08502106 -0.24401726 -0.43262649
v 0.07865581 -0.24952987 -0.42986766
v 0.15161228 -0.23033075 -0.43027335
v 0.09501287 -0.35075298 -0.36049092
v 0.15440099 -0.34514531 -0.35359383
v 0.15228757 -0.35037279 -0.35034811
v 0.15440099 -0.35902190 -0.33825791
v 0.15440099 -0.35246378 -0.34726471
v 0.15440099 -0.35379443 -0.34564188
v 0.15440099 0.34820917 -0.31862146
v 0.15440099 0.24470499 -0.40244153
v 0.13925695 0.24860184 -0.40958205
v 0.12118666 0.24251895 -0.42061740
v 0.14082013 0.24194868 -0.41039348
v 0.15440099 0.09519894 -0.43660247
v 0.14839840 0.09491381 -0.43928015
v 0.12675156 0.09491381 -0.44861153
v 0.12174940 0.09491381 -0.45072123
v 0.09501287 0.09491381 -0.45607662
v 0.15440099 -0.06485712 -0.44755667
v 0.10497966 0.08474398 -0.45591435
v 0.09501287 0.08474398 -0.45632005
v 0.02664587 0.08474398 -0.45632005
v 0.06502493 -0.23527309 -0.43838760
v 0.02664587 -0.23527309 -0.43838760
v 0.07142769 -0.23014066 -0.44001043
v 0.07810557 -0.22919020 -0.43984815
v 0.13498011 -0.22491318 -0.43441162
v 0.15440099 -0.22557849 -0.43173391
v 0.09501287 -0.23498796 -0.43595332
v 0.10497966 -0.23498796 -0.43457389
v 0.12497579 -0.23384742 -0.43238306
v 0.15440099 -0.22633885 -0.43140936
v 0.15440099 -0.23403750 -0.42727110
v 0.15440099 -0.34723631 -0.35205212
v 0.15440099 -0.07493190 -0.44706982
v 0.12497579 -0.07493190 -0.45145151
v 0.11497147 -0.06485712 -0.45339894
v 0.09501287 -0.00497866 -0.45632005
v 0.09501287 -0.05497242 -0.45607662
v 0.09501287 -0.02493815 -0.45623893
v 0.02664587 -0.05497242 -0.45632005
v 0.02664587 -0.23346724 -0.43903673
v 0.02664587 -0.23014066 -0.44001043
v 0.02664587 -0.22852489 -0.44025385
v 0.07501674 -0.19497395 -0.44349957
v 0.07486667 -0.22548345 -0.44041616
v 0.08502106 -0.18499421 -0.44406757
v 0.08299518 -0.22253704 -0.44025385
v 0.08580890 -0.22548345 -0.43968588
v 0.09501287 -0.22491318 -0.43887445
v 0.11497147 -0.22491318 -0.43676475
v 0.15440099 -0.21493343 -0.43433046
v 0.15440099 -0.08434138 -0.44658297
v 0.13106592 -0.08282065 -0.45015323
v 0.11497147 -0.07493190 -0.45283094
v 0.10497966 -0.06485712 -0.45469722
v 0.08502106 -0.05497242 -0.45632005
v 0.09501287 -0.06485712 -0.45567092
v 0.02664587 -0.06485712 -0.45607662
v 0.02664587 -0.07493190 -0.45542750
v 0.07501674 -0.18499421 -0.44447327
v 0.08502106 -0.09498643 -0.45307437
v 0.09241174 -0.12207431 -0.45015323
v 0.08502106 -0.20495369 -0.44195786
v 0.08580890 -0.21578884 -0.44074073
v 0.09501287 -0.19497395 -0.44212013
v 0.15440099 -0.14498019 -0.44187671
v 0.15440099 -0.10439590 -0.44552812
v 0.12981538 -0.08956886 -0.44990981
v 0.10497966 -0.07493190 -0.45404807
v 0.08502106 -0.06485712 -0.45591435
v 0.05502061 -0.06485712 -0.45607662
v 0.09501287 -0.07493190 -0.45469722
v 0.02664587 -0.07160532 -0.45567092
v 0.06502493 -0.07493190 -0.45518407
v 0.09501287 -0.09498643 -0.45274979
v 0.09906462 -0.11912791 -0.44990981
v 0.11497147 -0.11494592 -0.44885495
v 0.11497147 -0.10211482 -0.45023438
v 0.11998614 -0.09992878 -0.44999096
v 0.15440099 -0.13433513 -0.44301271
v 0.15440099 -0.11437564 -0.44487900
v 0.12736432 -0.09498643 -0.44974753
v 0.15440099 -0.12492566 -0.44398642
f 1 2 3
f 1 3 4
f 1 4 5
f 1 5 6
f 1 6 7
f 1 7 8
f 1 8 9
f 1 9 10
f 1 10 11
f 1 11 2
f 2 12 3
f 2 11 13
f 2 13 12
f 3 14 15
f 3 15 16
f 3 16 17
f 3 17 5
f 3 5 4
f 3 12 13
f 3 13 18
f 3 18 14
f 5 17 19
f 5 19 6
f 6 19 20
f 6 20 7
f 7 20 21
f 7 21 8
f 8 22 10
f 8 10 9
f 8 21 23
f 8 23 24
f 8 24 22
f 10 25 26
f 10 26 27
f 10 27 28
f 10 28 29
f 10 29 30
f 10 30 31
f 10 31 32
f 10 32 33
f 10 33 34
f 10 34 11
f 10 22 35
f 10 35 25
f 11 34 36
f 11 36 13
f 13 36 34
f 13 34 33
f 13 33 32
f 13 32 53
f 13 53 47
f 13 47 66
f 13 66 86
f 13 86 95
f 13 95 98
f 13 98 119
f 13 119 118
f 13 118 143
f 13 143 174
f 13 174 173
f 13 173 172
f 13 172 196
f 13 196 222
f 13 222 248
f 13 248 247
f 13 247 251
f 13 251 290
f 13 290 289
f 13 289 288
f 13 288 287
f 13 287 286
f 13 286 285
f 13 285 284
f 13 284 316
f 13 316 315
f 13 315 348
f 13 348 376
f 13 376 395
f 13 395 413
f 13 413 428
f 13 428 414
f 13 414 398
f 13 398 397
f 13 397 396
f 13 396 378
f 13 378 351
f 13 351 320
f 13 320 319
f 13 319 298
f 13 298 297
f 13 297 296
f 13 296 295
f 13 295 292
f 13 292 257
f 13 257 256
f 13 256 225
f 13 225 201
f 13 201 200
f 13 200 199
f 13 199 186
f 13 186 185
f 13 185 184
f 13 184 179
f 13 179 161
f 13 161 160
f 13 160 159
f 13 159 158
f 13 158 157
f 13 157 156
f 13 156 155
f 13 155 132
f 13 132 131
f 13 131 123
f 13 123 103
f 13 103 102
f 13 102 101
f 13 101 76
f 13 76 56
f 13 56 38
f 13 38 37
f 13 37 18
f 14 18 15
f 15 37 38
f 15 38 16
f 15 18 37
f 16 39 17
f 16 38 39
f 17 39 38
f 17 38 40
f 17 40 41
f 17 41 19
f 19 41 42
f 19 42 21
f 19 21 20
f 21 42 43
f 21 43 63
f 21 63 85
f 21 85 84
f 21 84 107
f 21 107 129
f 21 129 128
f 21 128 152
f 21 152 153
f 21 153 178
f 21 178 189
f 21 189 210
f 21 210 207
f 21 207 233
f 21 233 232
f 21 232 230
f 21 230 263
f 21 263 301
f 21 301 294
f 21 294 318
f 21 318 349
f 21 349 360
f 21 360 362
f 21 362 361
f 21 361 388
f 21 388 358
f 21 358 387
f 21 387 386
f 21 386 382
f 21 382 406
f 21 406 421
f 21 421 435
f 21 435 438
f 21 438 436
f 21 436 422
f 21 422 407
f 21 407 389
f 21 389 373
f 21 373 368
f 21 368 340
f 21 340 364
f 21 364 334
f 21 334 333
f 21 333 363
f 21 363 329
f 21 329 328
f 21 328 327
f 21 327 303
f 21 303 275
f 21 275 274
f 21 274 273
f 21 273 291
f 21 291 253
f 21 253 224
f 21 224 197
f 21 197 175
f 21 175 147
f 21 147 144
f 21 144 120
f 21 120 136
f 21 136 111
f 21 111 108
f 21 108 87
f 21 87 68
f 21 68 67
f 21 67 70
f 21 70 54
f 21 54 35
f 21 35 22
f 21 22 24
f 21 24 23
f 25 44 45
f 25 45 46
f 25 46 26
f 25 35 44
f 26 47 27
f 26 46 45
f 26 45 48
f 26 48 49
f 26 49 50
f 26 50 51
f 26 51 52
f 26 52 47
f 27 47 28
f 28 47 29
f 29 47 30
f 30 47 31
f 31 47 53
f 31 53 32
f 35 54 55
f 35 55 44
f 38 56 40
f 40 56 57
f 40 57 58
f 40 58 59
f 40 59 43
f 40 43 42
f 40 42 41
f 43 59 60
f 43 60 61
f 43 61 62
f 43 62 63
f 44 55 45
f 45 55 54
f 45 54 64
f 45 64 65
f 45 65 49
f 45 49 48
f 47 52 66
f 49 67 68
f 49 68 69
f 49 69 50
f 49 65 70
f 49 70 67
f 50 69 71
f 50 71 51
f 51 72 73
f 51 73 52
f 51 71 69
f 51 69 74
f 51 74 75
f 51 75 72
f 52 73 66
f 54 70 64
f 56 76 57
f 57 76 77
f 57 77 58
f 58 78 79
f 58 79 59
f 58 77 80
f 58 80 81
f 58 81 78
f 59 79 60
f 60 79 61
f 61 79 81
f 61 81 82
f 61 82 83
f 61 83 84
f 61 84 85
f 61 85 62
f 62 85 63
f 64 70 65
f 66 73 86
f 68 87 88
f 68 88 69
f 69 88 89
f 69 89 90
f 69 90 75
f 69 75 91
f 69 91 74
f 72 75 92
f 72 92 93
f 72 93 94
f 72 94 73
f 73 95 86
f 73 94 96
f 73 96 97
f 73 97 98
f 73 98 95
f 74 91 75
f 75 90 89
f 75 89 99
f 75 99 100
f 75 100 92
f 76 101 77
f 77 101 102
f 77 102 103
f 77 103 80
f 78 81 79
f 80 103 104
f 80 104 81
f 81 104 82
f 82 104 105
f 82 105 83
f 83 105 106
f 83 106 84
f 84 106 107
f 87 108 109
f 87 109 88
f 88 110 89
f 88 109 110
f 89 110 111
f 89 111 112
f 89 112 113
f 89 113 114
f 89 114 99
f 92 100 115
f 92 115 93
f 93 115 94
f 94 115 116
f 94 116 97
f 94 97 96
f 97 117 118
f 97 118 119
f 97 119 98
f 97 116 117
f 99 114 113
f 99 113 120
f 99 120 121
f 99 121 100
f 100 121 122
f 100 122 115
f 103 123 104
f 104 124 125
f 104 125 126
f 104 126 127
f 104 127 128
f 104 128 129
f 104 129 130
f 104 130 105
f 104 123 131
f 104 131 132
f 104 132 133
f 104 133 124
f 105 134 106
f 105 130 134
f 106 134 135
f 106 135 107
f 107 135 129
f 108 111 109
f 109 111 110
f 111 136 112
f 112 137 113
f 112 136 120
f 112 120 137
f 113 137 120
f 115 122 116
f 116 122 138
f 116 138 117
f 117 138 139
f 117 139 140
f 117 140 141
f 117 141 142
f 117 142 118
f 118 142 143
f 120 144 145
f 120 145 146
f 120 146 121
f 121 146 145
f 121 145 144
f 121 144 147
f 121 147 148
f 121 148 149
f 121 149 122
f 122 150 138
f 122 149 150
f 124 151 125
f 124 133 151
f 125 152 126
f 125 151 153
f 125 153 152
f 126 152 154
f 126 154 128
f 126 128 127
f 128 154 152
f 129 135 130
f 130 135 134
f 132 155 133
f 133 155 156
f 133 156 157
f 133 157 158
f 133 158 159
f 133 159 160
f 133 160 161
f 133 161 162
f 133 162 163
f 133 163 164
f 133 164 151
f 138 140 139
f 138 150 140
f 140 150 165
f 140 165 166
f 140 166 167
f 140 167 141
f 141 167 168
f 141 168 169
f 141 169 142
f 142 169 170
f 142 170 171
f 142 171 172
f 142 172 173
f 142 173 174
f 142 174 143
f 147 175 148
f 148 175 176
f 148 176 149
f 149 176 150
f 150 176 166
f 150 166 165
f 151 177 153
f 151 164 177
f 153 177 178
f 161 179 162
f 162 180 181
f 162 181 182
f 162 182 183
f 162 183 163
f 162 179 184
f 162 184 185
f 162 185 186
f 162 186 180
f 163 183 187
f 163 187 188
f 163 188 164
f 164 188 187
f 164 187 189
f 164 189 178
f 164 178 177
f 166 190 191
f 166 191 192
f 166 192 168
f 166 168 167
f 166 176 190
f 168 193 169
f 168 192 193
f 169 193 170
f 170 193 194
f 170 194 171
f 171 194 195
f 171 195 172
f 172 195 196
f 175 197 198
f 175 198 176
f 176 198 190
f 180 186 199
f 180 199 200
f 180 200 201
f 180 201 202
f 180 202 203
f 180 203 204
f 180 204 181
f 181 204 205
f 181 205 206
f 181 206 182
f 182 206 207
f 182 207 183
f 183 208 209
f 183 209 187
f 183 207 208
f 187 209 210
f 187 210 189
f 190 198 197
f 190 197 211
f 190 211 212
f 190 212 192
f 190 192 191
f 192 212 213
f 192 213 193
f 193 213 214
f 193 214 194
f 194 214 195
f 195 215 216
f 195 216 217
f 195 217 218
f 195 218 219
f 195 219 220
f 195 220 221
f 195 221 196
f 195 214 215
f 196 221 222
f 197 223 212
f 197 212 211
f 197 224 223
f 201 225 202
f 202 225 226
f 202 226 227
f 202 227 228
f 202 228 229
f 202 229 230
f 202 230 203
f 203 231 204
f 203 230 231
f 204 231 205
f 205 231 232
f 205 232 206
f 206 232 233
f 206 233 207
f 207 210 209
f 207 209 208
f 212 234 213
f 212 223 234
f 213 234 235
f 213 235 236
f 213 236 237
f 213 237 214
f 214 237 238
f 214 238 239
f 214 239 215
f 215 239 216
f 216 239 217
f 217 240 241
f 217 241 219
f 217 219 218
f 217 239 242
f 217 242 240
f 219 241 240
f 219 240 243
f 219 243 244
f 219 244 245
f 219 245 246
f 219 246 220
f 220 246 221
f 221 247 248
f 221 248 222
f 221 246 249
f 221 249 250
f 221 250 251
f 221 251 247
f 223 224 234
f 224 252 237
f 224 237 234
f 224 253 254
f 224 254 255
f 224 255 252
f 225 256 226
f 226 256 257
f 226 257 258
f 226 258 259
f 226 259 227
f 227 259 228
f 228 259 260
f 228 260 229
f 229 260 261
f 229 261 230
f 230 232 231
f 230 261 262
f 230 262 263
f 234 237 235
f 235 237 236
f 237 252 264
f 237 264 255
f 237 255 265
f 237 265 238
f 238 265 239
f 239 265 242
f 240 242 243
f 242 255 266
f 242 266 243
f 242 265 255
f 243 267 268
f 243 268 269
f 243 269 270
f 243 270 271
f 243 271 244
f 243 266 272
f 243 272 273
f 243 273 274
f 243 274 275
f 243 275 276
f 243 276 267
f 244 271 245
f 245 271 246
f 246 277 278
f 246 278 279
f 246 279 249
f 246 271 280
f 246 280 277
f 249 279 281
f 249 281 250
f 250 281 282
f 250 282 283
f 250 283 284
f 250 284 285
f 250 285 286
f 250 286 287
f 250 287 288
f 250 288 289
f 250 289 290
f 250 290 251
f 252 255 264
f 253 291 254
f 254 291 266
f 254 266 255
f 257 292 258
f 258 293 294
f 258 294 259
f 258 292 295
f 258 295 296
f 258 296 297
f 258 297 298
f 258 298 299
f 258 299 300
f 258 300 293
f 259 294 260
f 260 294 301
f 260 301 263
f 260 263 261
f 261 263 262
f 266 291 302
f 266 302 272
f 267 276 303
f 267 303 268
f 268 303 269
f 269 280 270
f 269 303 304
f 269 304 305
f 269 305 306
f 269 306 307
f 269 307 277
f 269 277 280
f 270 280 271
f 272 302 273
f 273 302 291
f 275 303 276
f 277 307 278
f 278 307 308
f 278 308 279
f 279 308 309
f 279 309 281
f 281 309 310
f 281 310 311
f 281 311 283
f 281 283 282
f 283 311 312
f 283 312 313
f 283 313 314
f 283 314 315
f 283 315 316
f 283 316 284
f 293 317 294
f 293 300 317
f 294 317 318
f 298 319 299
f 299 319 320
f 299 320 321
f 299 321 322
f 299 322 323
f 299 323 300
f 300 318 317
f 300 323 324
f 300 324 325
f 300 325 326
f 300 326 318
f 303 327 304
f 304 327 328
f 304 328 329
f 304 329 330
f 304 330 331
f 304 331 332
f 304 332 305
f 305 332 306
f 306 332 307
f 307 332 333
f 307 333 334
f 307 334 335
f 307 335 336
f 307 336 308
f 308 336 309
f 309 336 310
f 310 336 335
f 310 335 337
f 310 337 338
f 310 338 311
f 311 338 312
f 312 339 340
f 312 340 341
f 312 341 342
f 312 342 313
f 312 338 339
f 313 343 314
f 313 342 344
f 313 344 343
f 314 345 315
f 314 343 344
f 314 344 346
f 314 346 347
f 314 347 372
f 314 372 345
f 315 345 348
f 318 326 349
f 320 350 321
f 320 351 350
f 321 350 352
f 321 352 353
f 321 353 354
f 321 354 355
f 321 355 322
f 322 355 354
f 322 354 356
f 322 356 357
f 322 357 358
f 322 358 359
f 322 359 323
f 323 359 324
f 324 360 325
f 324 359 361
f 324 361 362
f 324 362 360
f 325 360 326
f 326 360 349
f 329 363 330
f 330 363 333
f 330 333 331
f 331 333 332
f 334 364 365
f 334 365 335
f 335 365 337
f 337 365 366
f 337 366 338
f 338 366 339
f 339 366 340
f 340 366 367
f 340 367 364
f 340 368 341
f 341 368 342
f 342 368 369
f 342 369 370
f 342 370 371
f 342 371 346
f 342 346 344
f 345 372 348
f 346 371 373
f 346 373 347
f 347 373 374
f 347 374 392
f 347 392 375
f 347 375 372
f 348 372 376
f 350 377 352
f 350 351 378
f 350 378 377
f 352 377 379
f 352 379 380
f 352 380 353
f 353 380 381
f 353 381 382
f 353 382 383
f 353 383 354
f 354 383 384
f 354 384 385
f 354 385 356
f 356 382 386
f 356 386 387
f 356 387 358
f 356 358 357
f 356 385 383
f 356 383 382
f 358 388 359
f 359 388 361
f 364 367 365
f 365 367 366
f 368 373 369
f 369 373 370
f 370 373 371
f 372 375 376
f 373 389 390
f 373 390 391
f 373 391 374
f 374 391 393
f 374 393 394
f 374 394 392
f 375 392 411
f 375 411 395
f 375 395 376
f 377 378 396
f 377 396 379
f 379 397 398
f 379 398 399
f 379 399 400
f 379 400 380
f 379 396 397
f 380 400 401
f 380 401 402
f 380 402 403
f 380 403 404
f 380 404 405
f 380 405 381
f 381 405 406
f 381 406 382
f 383 385 384
f 389 407 408
f 389 408 390
f 390 408 409
f 390 409 391
f 391 409 410
f 391 410 393
f 392 394 411
f 393 410 412
f 393 412 425
f 393 425 411
f 393 411 394
f 395 411 426
f 395 426 413
f 398 414 399
f 399 415 416
f 399 416 417
f 399 417 400
f 399 414 415
f 400 417 401
f 401 417 418
f 401 418 402
f 402 418 419
f 402 419 403
f 403 419 406
f 403 406 404
f 404 406 405
f 406 419 420
f 406 420 421
f 407 422 408
f 408 422 423
f 408 423 409
f 409 423 424
f 409 424 410
f 410 424 412
f 411 425 426
f 412 424 427
f 412 427 416
f 412 416 425
f 413 426 428
f 414 428 426
f 414 426 425
f 414 425 429
f 414 429 415
f 415 429 416
f 416 429 425
f 416 427 430
f 416 430 417
f 417 431 419
f 417 419 418
f 417 430 424
f 417 424 431
f 419 431 420
f 420 431 432
f 420 432 421
f 421 432 433
f 421 433 434
f 421 434 435
f 422 436 423
f 423 437 424
f 423 436 437
f 424 437 438
f 424 438 434
f 424 434 433
f 424 433 431
f 424 430 427
f 431 433 432
f 434 438 435
f 436 438 437

