# Created by Open3D 
# object name: Basket045_collision_4_1
# number of vertices: 34
# number of triangles: 64
v 0.145656 0.118333 0.0644189
v 0.0776231 0.150481 0.0644189
v 0.0776231 0.131895 0.0411486
v 0.0776231 0.121792 0.0144196
v 0.0881486 0.118333 0.0144196
v 0.0879344 0.170955 0.049653
v 0.0776231 0.170233 0.0428736
v 0.0840027 0.166799 0.0418957
v 0.0839874 0.159149 0.033786
v 0.145871 0.133896 0.0644189
v 0.119044 0.158194 0.0644189
v 0.118792 0.15842 0.0624612
v 0.0951707 0.126858 0.0144979
v 0.101933 0.118333 0.0144196
v 0.126242 0.118333 0.0267236
v 0.0776231 0.1368 0.0144196
v 0.0904281 0.176179 0.0644189
v 0.0776231 0.178523 0.0564331
v 0.115227 0.150892 0.0459383
v 0.0784645 0.154257 0.0266893
v 0.142719 0.134808 0.0580319
v 0.139613 0.131642 0.0495062
v 0.14301 0.127525 0.0498145
v 0.0879803 0.174826 0.0575816
v 0.0776231 0.181521 0.0644189
v 0.111097 0.146706 0.0382299
v 0.154988 0.118333 0.0615753
v 0.145262 0.118333 0.0462625
v 0.155769 0.118333 0.0644189
v 0.134978 0.118333 0.0340796
v 0.107593 0.139377 0.0299489
v 0.135697 0.127732 0.0415482
v 0.1023 0.134126 0.0228816
v 0.131429 0.123401 0.0337272
f 1 2 3
f 4 1 3
f 1 4 5
f 7 6 8
f 9 7 8
f 11 10 12
f 14 13 15
f 13 14 16
f 17 11 12
f 18 6 7
f 19 6 12
f 6 19 8
f 7 20 16
f 9 20 7
f 20 13 16
f 10 21 12
f 21 19 12
f 19 21 22
f 21 23 22
f 6 24 12
f 24 17 12
f 18 24 6
f 17 24 25
f 24 18 25
f 26 9 8
f 19 26 8
f 23 27 28
f 27 23 21
f 27 10 29
f 27 21 10
f 30 23 28
f 31 20 9
f 26 31 9
f 23 32 22
f 30 32 23
f 32 19 22
f 32 26 19
f 20 33 13
f 31 33 20
f 13 33 15
f 33 31 15
f 34 30 15
f 34 32 30
f 32 34 26
f 31 34 15
f 34 31 26
f 14 4 16
f 4 14 5
f 2 17 25
f 17 1 29
f 1 17 2
f 10 17 29
f 17 10 11
f 18 4 3
f 2 18 3
f 18 2 25
f 4 18 16
f 18 7 16
f 1 30 29
f 14 30 5
f 30 1 5
f 30 14 15
f 30 27 29
f 27 30 28
