# Created by Open3D 
# object name: Basket045_collision_0_1
# number of vertices: 34
# number of triangles: 64
v -0.0787039 -0.0454786 0.0144612
v -0.0787039 0.0452565 0.0144491
v -0.157384 -0.0059158 0.014451
v -0.0787039 -0.0454786 -0.00157683
v -0.150852 0.0452565 0.0144321
v -0.0787039 0.0452565 -0.00158451
v -0.154458 -0.0358466 0.014451
v -0.150835 -0.0454786 0.014451
v -0.157169 -0.00985489 0.014451
v -0.146941 0.0285744 -0.00152904
v -0.139981 0.0452565 -0.00154711
v -0.141675 0.0452565 -0.00145337
v -0.145303 0.0452565 0.00160121
v -0.114373 -0.0454786 -0.00156993
v -0.146571 -0.0435387 0.00268419
v -0.145506 -0.0454786 0.00214506
v -0.147095 0.0403917 0.00193576
v -0.125641 0.0452565 -0.00157494
v -0.137302 -0.0454786 -0.00153724
v -0.151315 -0.0178261 0.00150404
v -0.150514 0.027706 0.00269206
v -0.146879 -0.0415847 0.00219417
v -0.151685 0.00590145 0.00127715
v -0.156861 0.0178117 0.0144321
v -0.156183 0.0217508 0.0144321
v -0.1511 -0.0210208 0.0020886
v -0.150576 -0.00394626 -0.00133052
v -0.151469 0.0138417 0.00148986
v -0.145031 -0.0376456 -0.00044659
v -0.141827 -0.0454786 -0.000827022
v -0.150853 0.0250696 0.00234228
v -0.14671 -0.0267433 -0.00136518
v -0.139629 -0.0454786 -0.00151069
v -0.146848 -0.0230679 -0.00147863
f 1 2 3
f 2 1 4
f 2 5 3
f 6 2 4
f 7 8 1
f 9 1 3
f 9 7 1
f 11 10 12
f 10 13 12
f 14 6 4
f 15 16 8
f 7 15 8
f 13 17 5
f 10 17 13
f 14 18 6
f 19 18 14
f 18 19 11
f 19 10 11
f 9 20 7
f 20 9 3
f 17 21 5
f 22 15 7
f 15 22 16
f 24 23 3
f 21 25 5
f 5 25 3
f 25 24 3
f 20 26 7
f 26 22 7
f 22 26 20
f 27 20 3
f 23 27 3
f 28 23 24
f 27 28 10
f 28 27 23
f 29 30 16
f 22 29 16
f 31 28 24
f 25 31 24
f 31 25 21
f 28 31 10
f 31 17 10
f 31 21 17
f 30 32 33
f 29 32 30
f 27 32 20
f 32 22 20
f 32 29 22
f 32 34 33
f 34 32 27
f 34 27 10
f 34 19 33
f 19 34 10
f 18 11 12
f 18 5 2
f 6 18 2
f 13 18 12
f 18 13 5
f 8 30 1
f 1 30 4
f 16 30 8
f 19 30 33
f 30 14 4
f 30 19 14
