# Created by Open3D 
# object name: Basket045_collision_0_6
# number of vertices: 34
# number of triangles: 64
v -0.0597269 0.146468 0.0144321
v -2.351e-05 0.0793877 0.0144494
v -0.0787039 0.0793877 0.0144428
v -0.0336953 0.153912 0.0144321
v -0.0082181 0.158378 0.0144321
v -0.0365295 0.153229 0.0144321
v -0.0519328 0.142808 0.00236906
v -0.0257471 0.143428 -0.0016031
v -2.351e-05 0.0793877 -0.00160158
v -2.351e-05 0.13445 -0.00160654
v -0.0787039 0.0793877 -0.00158726
v -0.0297212 0.147709 0.00137011
v -0.0617602 0.145413 0.0144321
v -0.0787039 0.135992 0.0144321
v -0.0787039 0.122648 -0.00158167
v -0.00407459 0.147026 -0.00157159
v -2.351e-05 0.146823 -0.00155312
v -2.351e-05 0.150771 0.00223542
v -0.0336953 0.14715 0.00196412
v -0.0161662 0.150562 0.00259753
v -0.0169364 0.146809 -0.00143136
v -0.0787039 0.127146 -0.00133474
v -0.0716799 0.131053 -0.00150856
v -0.0787039 0.12603 -0.00150448
v -0.0714951 0.134775 0.00250142
v -0.0787039 0.1303 0.00222512
v -0.0787039 0.133815 0.00946346
v -0.0399798 0.142808 -0.00142821
v -0.0693386 0.131239 -0.0015842
v -0.00747874 0.158378 0.0144321
v -2.351e-05 0.155446 0.0100019
v -2.351e-05 0.157494 0.014428
v -0.0059384 0.150872 0.00209648
v -0.0376385 0.142963 -0.00151014
f 2 1 3
f 5 4 2
f 6 1 2
f 4 6 2
f 6 7 1
f 9 8 10
f 11 8 9
f 12 4 5
f 13 14 3
f 1 13 3
f 15 8 11
f 16 17 10
f 8 16 10
f 16 18 17
f 6 19 7
f 19 12 7
f 19 6 4
f 12 19 4
f 12 20 21
f 20 12 5
f 22 23 24
f 23 25 7
f 7 25 1
f 25 22 26
f 22 25 23
f 25 13 1
f 27 25 26
f 25 27 14
f 13 25 14
f 12 28 7
f 28 23 7
f 28 12 21
f 29 15 24
f 23 29 24
f 15 29 8
f 31 30 32
f 32 30 2
f 30 5 2
f 30 31 18
f 20 33 21
f 33 16 21
f 16 33 18
f 33 20 5
f 30 33 5
f 33 30 18
f 34 28 21
f 16 34 21
f 34 16 8
f 29 34 8
f 28 34 23
f 34 29 23
f 11 9 2
f 11 2 3
f 31 9 10
f 9 31 2
f 31 32 2
f 17 31 10
f 18 31 17
f 22 11 3
f 14 22 3
f 22 27 26
f 27 22 14
f 22 15 11
f 15 22 24
