# Created by Open3D 
# object name: Basket045_collision_0_4
# number of vertices: 18
# number of triangles: 32
v -0.0787039 -0.0785931 0.0144636
v -0.076849 -0.0785931 0.0144639
v -0.0787039 -0.0769193 0.0144636
v -0.0787039 -0.0736851 -0.00157421
v -2.351e-05 -0.0785931 -0.00158151
v -0.0787039 -0.0785931 -0.00157342
v -2.351e-05 0.00039728 -0.0015942
v -2.351e-05 9.34e-06 0.014464
v -0.0787039 -6.79e-06 0.0144575
v -2.351e-05 -0.0785931 0.0144705
v -2.351e-05 0.00039728 0.0144639
v -0.0787039 -0.0734433 0.0144636
v -0.0787039 0.00039728 0.0144574
v -0.0787039 -0.0154145 -0.00157962
v -0.0733888 0.00039728 -0.00158198
v -0.0787039 0.00039728 -0.00158089
v -0.0732651 -0.0785931 0.0144644
v -0.00070039 0.00039728 -0.00159413
f 1 2 3
f 4 5 6
f 5 4 7
f 8 9 10
f 9 8 11
f 2 12 3
f 9 12 10
f 13 9 11
f 14 4 6
f 1 14 6
f 15 14 16
f 14 15 4
f 12 17 10
f 17 12 2
f 4 18 7
f 15 18 4
f 5 8 10
f 8 5 7
f 11 8 7
f 14 13 16
f 14 1 3
f 12 14 3
f 14 12 9
f 13 14 9
f 1 17 2
f 17 5 10
f 17 1 6
f 5 17 6
f 18 11 7
f 13 18 16
f 18 13 11
f 18 15 16
