# Created by Open3D 
# object name: Basket045_collision_0_0
# number of vertices: 34
# number of triangles: 64
v -0.0787039 -0.0454786 0.0144612
v -0.0787039 -0.136214 0.014451
v -0.0787039 -0.0454786 -0.00157683
v -0.0952471 -0.126663 0.014451
v -0.144846 -0.0614042 0.014451
v -0.150835 -0.0454786 0.014451
v -0.125312 -0.0454786 -0.00155473
v -0.107477 -0.101012 -0.00156686
v -0.0787039 -0.115937 -0.00156742
v -0.0787039 -0.124315 -0.00144582
v -0.134402 -0.0827745 0.014451
v -0.143059 -0.0523784 0.00205393
v -0.13582 -0.0565966 -0.0015385
v -0.139782 -0.0454786 -0.00150274
v -0.115795 -0.106068 0.014451
v -0.115087 -0.0993683 0.0023281
v -0.131353 -0.0877061 0.014451
v -0.0992828 -0.115125 0.00233755
v -0.0879151 -0.123282 0.00212957
v -0.107293 -0.103369 -0.00150068
v -0.0891782 -0.120925 0.00085331
v -0.0787039 -0.128372 0.00153645
v -0.133078 -0.0851627 0.014451
v -0.1458 -0.0454786 0.00254588
v -0.134957 -0.0717326 0.00227925
v -0.136959 -0.0577132 -0.00110835
v -0.112899 -0.109169 0.014451
v -0.0803366 -0.127531 0.0015324
v -0.127224 -0.0836739 0.00217526
v -0.141826 -0.0454786 -0.000827415
v -0.0799978 -0.123654 -0.00145657
v -0.126855 -0.0793006 -0.00133524
v -0.144612 -0.0454786 0.00121966
v -0.139886 -0.0574341 0.00087694
f 1 2 3
f 1 4 2
f 5 1 6
f 8 7 3
f 10 9 3
f 9 8 3
f 5 11 1
f 12 5 6
f 7 13 14
f 13 7 8
f 16 15 17
f 17 15 1
f 18 19 4
f 18 16 20
f 21 18 20
f 18 21 19
f 2 22 3
f 22 10 3
f 23 17 1
f 11 23 1
f 24 12 6
f 25 11 5
f 12 25 5
f 25 23 11
f 13 26 14
f 27 15 16
f 27 18 4
f 18 27 16
f 27 4 1
f 15 27 1
f 4 28 2
f 28 22 2
f 19 28 4
f 21 28 19
f 23 29 17
f 25 29 23
f 29 16 17
f 26 30 14
f 22 31 10
f 28 31 22
f 31 28 21
f 31 21 20
f 8 31 20
f 31 9 10
f 9 31 8
f 16 32 20
f 29 32 16
f 32 26 13
f 32 29 25
f 32 8 20
f 32 13 8
f 24 33 12
f 33 34 12
f 34 25 12
f 34 33 30
f 34 30 26
f 34 32 25
f 32 34 26
f 33 1 3
f 1 33 6
f 7 33 3
f 33 7 14
f 33 24 6
f 30 33 14
