# Created by Open3D 
# object name: Basket045_collision_2_0
# number of vertices: 34
# number of triangles: 64
v -0.170974 0.0735268 0.059874
v -0.185739 -3.839e-05 0.059874
v -0.169624 0.0735268 0.103687
v -0.184801 -3.839e-05 0.101729
v -0.198231 0.00393012 0.102132
v -0.198309 0.0250871 0.0815179
v -0.19845 -3.839e-05 0.0727711
v -0.198316 0.0243777 0.0695578
v -0.19721 -3.839e-05 0.103633
v -0.192264 0.0455599 0.103711
v -0.190542 0.0601159 0.086507
v -0.194755 0.0237727 0.059874
v -0.1901 0.0592301 0.0664182
v -0.187115 0.0587835 0.059874
v -0.179299 0.0735268 0.059874
v -0.19153 0.0574439 0.0759794
v -0.170098 0.0735268 0.106159
v -0.172577 0.0735268 0.10819
v -0.187041 -3.839e-05 0.107285
v -0.177806 0.0653665 0.109956
v -0.178941 0.0680242 0.109892
v -0.190775 0.0269778 0.10986
v -0.196866 0.0178307 0.103711
v -0.187166 0.0629213 0.103267
v -0.183285 0.0735268 0.103711
v -0.18259 0.0735268 0.106238
v -0.196024 0.0217921 0.0622239
v -0.194511 -3.839e-05 0.059874
v -0.182971 0.0735268 0.073556
v -0.189697 0.00990811 0.109941
v -0.192151 -3.839e-05 0.109372
v -0.194588 0.0316665 0.10506
v -0.195351 -3.839e-05 0.107596
v -0.189227 0.0515019 0.107064
f 2 1 3
f 4 2 3
f 5 6 7
f 6 8 7
f 9 5 7
f 6 10 11
f 12 13 14
f 13 12 8
f 13 15 14
f 16 13 8
f 16 6 11
f 16 8 6
f 17 18 19
f 4 17 19
f 17 4 3
f 20 18 21
f 22 20 21
f 5 23 6
f 24 25 11
f 10 24 11
f 24 26 25
f 18 26 21
f 27 12 28
f 12 27 8
f 27 28 7
f 8 27 7
f 29 15 13
f 25 29 11
f 29 16 11
f 16 29 13
f 30 31 19
f 18 30 19
f 20 30 18
f 30 20 22
f 31 30 22
f 32 10 6
f 23 32 6
f 9 33 5
f 33 23 5
f 33 31 22
f 32 33 22
f 33 32 23
f 34 24 10
f 34 26 24
f 32 34 10
f 34 32 22
f 34 22 21
f 26 34 21
f 28 15 2
f 15 1 2
f 12 15 28
f 15 12 14
f 15 29 1
f 1 29 3
f 29 17 3
f 26 29 25
f 17 29 18
f 29 26 18
f 28 33 7
f 4 33 2
f 33 28 2
f 33 4 19
f 33 9 7
f 31 33 19
