# Created by Open3D 
# object name: Basket045_collision_0_10
# number of vertices: 34
# number of triangles: 64
v -2.351e-05 0.0784989 0.0144496
v 0.0786569 0.0784989 0.0144537
v -2.351e-05 0.156558 0.014432
v 0.0480042 0.150779 0.0144163
v -2.351e-05 0.157494 0.014428
v -2.351e-05 0.13445 -0.00160654
v 0.0786569 0.0784989 -0.00161465
v 0.0786569 0.10699 -0.00161706
v -2.351e-05 0.0784989 -0.00160149
v 0.0693224 0.141381 0.0144163
v 0.0725571 0.139706 0.0144163
v 0.0786569 0.136174 0.0144163
v -2.351e-05 0.146677 -0.00157086
v 0.0285343 0.143273 -0.00156371
v 0.0786569 0.127285 0.00222448
v 0.0786569 0.123421 -0.00136188
v 0.0595259 0.134744 -0.00131319
v 0.0786569 0.121481 -0.00151645
v -2.351e-05 0.155446 0.0100019
v 0.0123916 0.150562 0.00262431
v -2.351e-05 0.150771 0.00223542
v 0.0217877 0.154904 0.0144163
v 0.0162733 0.146654 -0.00133367
v -2.351e-05 0.146969 -0.00153537
v 0.0376531 0.14197 -0.00115405
v 0.0718486 0.130991 0.0021658
v 0.0565685 0.138962 0.00230761
v 0.0786569 0.113272 -0.00160147
v 0.0528408 0.135488 -0.00148966
v 0.0479426 0.142808 0.00234858
v 0.0456012 0.151213 0.0144163
v 0.0404873 0.139923 -0.00151802
v 0.0358047 0.146654 0.00255499
v 0.0257617 0.147553 0.00143787
f 1 2 3
f 4 5 3
f 7 6 8
f 6 7 9
f 10 4 3
f 11 10 3
f 12 11 2
f 2 11 3
f 13 14 6
f 15 16 17
f 15 11 12
f 16 18 17
f 20 19 5
f 19 20 21
f 22 20 5
f 21 23 24
f 20 23 21
f 23 13 24
f 13 23 14
f 23 25 14
f 26 15 17
f 15 26 11
f 11 26 10
f 27 26 17
f 26 27 10
f 18 28 14
f 6 28 8
f 14 28 6
f 18 29 17
f 29 18 14
f 10 30 4
f 27 30 10
f 30 27 17
f 25 30 17
f 22 31 20
f 4 31 5
f 31 22 5
f 29 32 17
f 32 29 14
f 32 25 17
f 25 32 14
f 23 33 25
f 33 30 25
f 30 33 4
f 33 31 4
f 31 33 20
f 34 23 20
f 33 34 20
f 34 33 23
f 7 1 9
f 1 7 2
f 19 1 3
f 5 19 3
f 1 19 9
f 19 6 9
f 13 19 24
f 19 21 24
f 19 13 6
f 7 28 2
f 28 12 2
f 28 7 8
f 28 15 12
f 15 28 16
f 28 18 16
