# Created by Open3D 
# object name: Basket045_collision_10_1
# number of vertices: 34
# number of triangles: 64
v -0.00052251 0.183735 0.0549771
v -0.00052251 0.183035 0.102618
v -0.0598945 0.161305 0.0782537
v -0.0598945 0.162055 0.103162
v -0.0598945 0.161684 0.0549771
v -0.00991416 0.198485 0.0904711
v -0.00052251 0.198273 0.082407
v -0.00991416 0.199738 0.0799452
v -0.0598945 0.163423 0.10685
v -0.00991416 0.199526 0.0720211
v -0.0598945 0.18245 0.109761
v -0.0598945 0.166413 0.109275
v -0.0598945 0.171316 0.109853
v -0.0282209 0.194331 0.102344
v -0.0162373 0.194249 0.105915
v -0.00052251 0.194425 0.106147
v -0.00052251 0.184818 0.107332
v -0.0477249 0.19026 0.0580045
v -0.0598945 0.183959 0.0549771
v -0.0598945 0.188427 0.066379
v -0.0437497 0.194161 0.0660094
v -0.0115472 0.194319 0.0549771
v -0.00052251 0.19792 0.0720211
v -0.0129014 0.190354 0.109775
v -0.00052251 0.190295 0.109718
v -0.0466381 0.194484 0.0748654
v -0.0598945 0.190077 0.0811481
v -0.00392815 0.186183 0.10967
v -0.0455629 0.188518 0.0549771
v -0.00867628 0.197982 0.064994
v -0.00052251 0.192243 0.0549771
v -0.0441565 0.190401 0.106098
v -0.0598945 0.186222 0.105844
v -0.0446214 0.194578 0.0866572
f 1 2 3
f 2 4 3
f 5 1 3
f 6 7 8
f 9 4 2
f 7 10 8
f 11 12 13
f 6 14 15
f 6 16 7
f 16 6 15
f 17 9 2
f 18 19 20
f 21 18 20
f 18 21 22
f 23 10 7
f 25 24 13
f 24 11 13
f 16 24 25
f 24 16 15
f 27 26 20
f 26 21 20
f 10 26 8
f 26 10 21
f 9 28 12
f 17 28 9
f 28 17 25
f 12 28 13
f 28 25 13
f 29 18 22
f 18 29 19
f 30 31 22
f 30 23 31
f 23 30 10
f 21 30 22
f 10 30 21
f 32 24 15
f 24 32 11
f 11 32 33
f 14 32 15
f 34 27 33
f 32 34 33
f 34 26 27
f 34 32 14
f 26 34 8
f 34 6 8
f 34 14 6
f 11 27 12
f 4 27 3
f 27 5 3
f 9 27 4
f 19 27 20
f 27 9 12
f 27 19 5
f 27 11 33
f 16 23 7
f 1 23 2
f 31 23 1
f 23 17 2
f 23 16 25
f 17 23 25
f 29 31 1
f 5 29 1
f 31 29 22
f 19 29 5
