# Created by Open3D 
# object name: Basket045_collision_5_1
# number of vertices: 34
# number of triangles: 64
v 0.158021 0.0592206 0.102982
v 0.163299 0.0592206 0.0569366
v 0.136295 0.118326 0.103711
v 0.141891 0.118326 0.0569366
v 0.159377 0.0592206 0.106807
v 0.141947 0.118326 0.109949
v 0.163738 0.0592206 0.109973
v 0.159122 0.118326 0.0818224
v 0.156528 0.118326 0.0670901
v 0.16641 0.110932 0.0700262
v 0.182557 0.0759061 0.094273
v 0.188724 0.0592206 0.0920984
v 0.182072 0.0592206 0.106591
v 0.17797 0.0592206 0.109862
v 0.172232 0.0768028 0.109619
v 0.137569 0.118326 0.106656
v 0.146884 0.118326 0.109788
v 0.167019 0.0958084 0.106339
v 0.189917 0.0592206 0.0684512
v 0.183719 0.0788278 0.0759788
v 0.190148 0.0592206 0.0815062
v 0.162864 0.111325 0.0616998
v 0.162889 0.10753 0.0569366
v 0.152114 0.118326 0.0569366
v 0.156837 0.111256 0.106072
v 0.15148 0.118326 0.106277
v 0.17485 0.0800601 0.106355
v 0.182765 0.0799502 0.0854557
v 0.182495 0.0795973 0.0657461
v 0.185099 0.0592206 0.0569366
v 0.167652 0.108826 0.079942
v 0.178971 0.0787873 0.0572665
v 0.166342 0.106813 0.0623075
v 0.167012 0.107761 0.0906214
f 2 1 3
f 4 2 3
f 1 5 3
f 6 5 7
f 9 8 10
f 12 11 13
f 15 14 13
f 14 6 7
f 5 16 3
f 6 16 5
f 17 15 18
f 17 14 15
f 14 17 6
f 19 20 21
f 22 23 24
f 9 22 24
f 22 9 10
f 17 25 26
f 25 17 18
f 27 11 18
f 11 27 13
f 15 27 18
f 27 15 13
f 28 12 21
f 28 11 12
f 20 28 21
f 29 19 30
f 19 29 20
f 20 29 10
f 31 20 10
f 31 28 20
f 8 31 10
f 23 32 30
f 32 29 30
f 22 33 23
f 33 32 23
f 32 33 29
f 33 22 10
f 29 33 10
f 28 34 11
f 31 34 28
f 11 34 18
f 34 25 18
f 25 34 26
f 34 8 26
f 34 31 8
f 23 30 2
f 4 23 2
f 23 4 24
f 4 17 24
f 17 4 3
f 8 17 26
f 16 17 3
f 17 9 24
f 17 8 9
f 17 16 6
f 19 14 7
f 19 1 2
f 5 19 7
f 30 19 2
f 12 19 21
f 19 5 1
f 19 12 13
f 14 19 13
