# Created by Open3D 
# object name: Basket045_collision_19_0
# number of vertices: 34
# number of triangles: 64
v 0.170849 -0.0769958 0.0644323
v 0.163035 -0.0769958 0.0994372
v 0.118725 -0.145388 0.0644323
v 0.118725 -0.135718 0.0996952
v 0.162432 -0.0769958 0.104966
v 0.118725 -0.15795 0.075979
v 0.118725 -0.157372 0.0839052
v 0.135434 -0.147187 0.0799421
v 0.133893 -0.146085 0.0644323
v 0.175906 -0.0906599 0.0644323
v 0.158814 -0.119106 0.0649149
v 0.118725 -0.137628 0.106803
v 0.14727 -0.116758 0.109622
v 0.165901 -0.0819653 0.109827
v 0.122442 -0.137922 0.109872
v 0.165537 -0.0904737 0.109334
v 0.118725 -0.149814 0.105542
v 0.135074 -0.146799 0.0691426
v 0.118725 -0.155184 0.0644323
v 0.164036 -0.0769958 0.107128
v 0.123592 -0.147266 0.106318
v 0.135633 -0.135671 0.106558
v 0.15966 -0.120334 0.075979
v 0.178359 -0.0912385 0.0779027
v 0.159479 -0.120176 0.0839052
v 0.175008 -0.0769958 0.106594
v 0.1349 -0.146751 0.0900521
v 0.158379 -0.11867 0.0932012
v 0.154662 -0.115064 0.105838
v 0.178172 -0.0908026 0.0720204
v 0.1799 -0.0769958 0.0644323
v 0.182138 -0.0769958 0.0831001
v 0.178328 -0.0873549 0.0899365
v 0.166677 -0.0947081 0.106207
f 2 1 3
f 4 2 3
f 4 5 2
f 7 6 8
f 9 10 11
f 12 5 4
f 13 14 15
f 14 13 16
f 12 17 15
f 18 9 11
f 6 18 8
f 18 6 19
f 9 18 19
f 14 20 15
f 20 12 15
f 12 20 5
f 17 21 15
f 21 13 15
f 13 21 22
f 21 17 7
f 23 18 11
f 23 24 25
f 23 25 8
f 18 23 8
f 26 20 14
f 26 14 16
f 27 7 8
f 27 21 7
f 21 27 22
f 25 27 8
f 28 27 25
f 29 13 22
f 27 29 22
f 29 27 28
f 13 29 16
f 10 30 11
f 30 23 11
f 23 30 24
f 31 30 10
f 30 31 32
f 24 30 32
f 26 33 32
f 33 24 32
f 33 28 25
f 24 33 25
f 34 26 16
f 29 34 16
f 34 33 26
f 34 29 28
f 33 34 28
f 17 6 7
f 17 4 3
f 19 17 3
f 6 17 19
f 17 12 4
f 31 19 3
f 1 31 3
f 31 9 19
f 9 31 10
f 26 1 2
f 31 26 32
f 5 26 2
f 26 31 1
f 20 26 5
