# Created by Open3D 
# object name: Basket045_collision_17_0
# number of vertices: 34
# number of triangles: 64
v 0.0784106 0.169444 0.0644189
v 0.0784106 0.163947 0.100581
v -0.00052251 0.187411 0.0644189
v -0.00052251 0.183015 0.0998047
v -0.00052251 0.198273 0.0824086
v -0.00052251 0.197922 0.0720191
v 0.0234642 0.19857 0.0759821
v -0.00052251 0.184819 0.107334
v 0.0038661 0.18222 0.105727
v 0.0237732 0.197603 0.0680561
v 0.0599484 0.190468 0.0706713
v 0.0237732 0.196469 0.0644189
v 0.0574411 0.189583 0.0644189
v -0.00052251 0.19635 0.0644189
v 0.0402885 0.186514 0.109886
v 0.0414629 0.190144 0.10533
v 0.0559345 0.186367 0.105928
v 0.014996 0.19425 0.105861
v 0.0247429 0.19826 0.0863225
v -0.00052251 0.194426 0.106151
v 0.0784106 0.179376 0.0644189
v 0.0111753 0.190364 0.109781
v -0.00052251 0.190001 0.10971
v 0.0772517 0.169826 0.110002
v 0.0596277 0.190279 0.0899998
v 0.0784106 0.171156 0.110011
v 0.0760309 0.17882 0.10371
v 0.0784106 0.176506 0.105205
v 0.0574411 0.191497 0.0799406
v 0.0784106 0.165543 0.106298
v 0.0677829 0.178877 0.108333
v 0.0784106 0.181088 0.0839036
v 0.0784106 0.16396 0.103853
v 0.0784106 0.181521 0.0759821
f 1 2 3
f 2 4 3
f 6 5 7
f 9 8 4
f 10 6 7
f 11 10 7
f 12 10 13
f 10 11 13
f 10 14 6
f 14 10 12
f 16 15 17
f 15 16 18
f 5 19 7
f 16 19 18
f 20 19 5
f 19 20 18
f 11 21 13
f 22 15 18
f 22 20 23
f 20 22 18
f 8 24 23
f 24 22 23
f 25 16 17
f 25 19 16
f 22 26 15
f 24 26 22
f 28 27 17
f 27 25 17
f 29 25 11
f 25 29 19
f 29 11 7
f 19 29 7
f 30 26 24
f 30 8 9
f 30 24 8
f 31 26 28
f 31 28 17
f 15 31 17
f 26 31 15
f 32 27 28
f 27 32 25
f 33 30 9
f 33 4 2
f 33 9 4
f 34 21 11
f 25 34 11
f 32 34 25
f 20 14 3
f 4 20 3
f 20 8 23
f 20 5 6
f 8 20 4
f 14 20 6
f 14 21 3
f 21 1 3
f 21 12 13
f 21 14 12
f 21 34 1
f 1 34 2
f 34 33 2
f 26 34 28
f 30 34 26
f 34 32 28
f 33 34 30
