# Created by Open3D 
# object name: Basket045_collision_0_8
# number of vertices: 14
# number of triangles: 24
v 0.0786569 -0.0679917 0.0144762
v 0.0786569 -0.00049593 0.0144706
v -2.351e-05 -0.00049593 0.014464
v -2.351e-05 -0.0794907 0.0144706
v 0.0672116 -0.0794907 0.0144762
v 0.0786569 -0.0794907 0.0144762
v 0.0505231 -0.00049593 -0.00159916
v 0.0786569 -0.0794907 -0.00156151
v 0.0786569 -0.00049593 -0.00159096
v 0.00786294 -0.0794907 -0.00158214
v 0.00745719 -0.0794907 -0.00158214
v -2.351e-05 -0.00049593 -0.00159406
v 0.049613 -0.00049593 -0.00159916
v -2.351e-05 -0.0794907 -0.00158137
f 1 2 3
f 4 1 3
f 1 5 6
f 5 1 4
f 8 7 9
f 10 7 8
f 11 12 13
f 12 11 14
f 12 4 3
f 4 12 14
f 2 1 9
f 8 1 6
f 1 8 9
f 7 12 3
f 2 7 3
f 7 2 9
f 12 7 13
f 11 4 14
f 11 8 6
f 5 11 6
f 11 10 8
f 11 5 4
f 7 11 13
f 11 7 10
