# Created by Open3D 
# object name: Basket045_collision_11_1
# number of vertices: 34
# number of triangles: 64
v -0.00052251 0.147482 0.0144342
v -0.0598945 0.116196 0.0144342
v -0.00052251 0.183739 0.0549719
v -0.0598945 0.134324 0.034703
v -0.0598945 0.161689 0.0549719
v -0.0455629 0.186685 0.0497261
v -0.0598945 0.179529 0.0461332
v -0.0433545 0.182207 0.0423852
v -0.0598945 0.173413 0.0384726
v -0.0598945 0.18284 0.0516899
v -0.0455629 0.188517 0.0549719
v -0.0598945 0.183955 0.0549719
v -0.0336839 0.153964 0.0144342
v -0.00052251 0.156664 0.0144342
v -0.00773479 0.158464 0.0144719
v -0.0368106 0.158849 0.018184
v -0.0598945 0.146417 0.0144342
v -0.00991416 0.189964 0.0470278
v -0.0598945 0.156353 0.0221962
v -0.00991416 0.167067 0.0218823
v -0.041611 0.175007 0.0336079
v -0.0598945 0.166513 0.0311903
v -0.012111 0.194185 0.054091
v -0.0115472 0.194314 0.0549719
v -0.00052251 0.192235 0.0549719
v -0.00052251 0.187242 0.0452184
v -0.00052251 0.1824 0.038187
v -0.00052251 0.166574 0.0223188
v -0.0392282 0.167164 0.025771
v -0.00991416 0.175307 0.0294652
v -0.00991416 0.18285 0.0377585
v -0.00595061 0.167089 0.0218783
v -0.00595061 0.175285 0.0295287
v -0.00052251 0.174728 0.029985
f 2 1 3
f 4 3 5
f 4 2 3
f 7 6 8
f 9 7 8
f 10 6 7
f 11 10 12
f 10 11 6
f 14 13 15
f 16 13 17
f 13 16 15
f 6 18 8
f 19 16 17
f 16 20 15
f 9 21 22
f 21 9 8
f 23 11 24
f 11 23 6
f 23 18 6
f 25 23 24
f 23 25 26
f 18 23 26
f 27 18 26
f 28 14 15
f 29 19 22
f 21 29 22
f 19 29 16
f 29 20 16
f 20 29 30
f 29 21 30
f 27 31 18
f 18 31 8
f 31 21 8
f 21 31 30
f 20 32 15
f 32 28 15
f 32 20 30
f 31 33 30
f 33 31 27
f 33 27 34
f 33 32 30
f 28 33 34
f 32 33 28
f 11 12 5
f 3 11 5
f 25 11 3
f 11 25 24
f 17 13 2
f 13 14 1
f 13 1 2
f 4 19 2
f 19 4 5
f 12 19 5
f 19 17 2
f 10 19 12
f 19 9 22
f 9 19 7
f 19 10 7
f 28 25 3
f 1 28 3
f 25 28 26
f 14 28 1
f 28 27 26
f 27 28 34
