# Created by Open3D 
# object name: Basket045_collision_14_2
# number of vertices: 34
# number of triangles: 64
v -0.139691 -0.119773 0.0557005
v -0.0864409 -0.119797 0.0144525
v -0.140148 -0.0664912 0.04069
v -0.129982 -0.0664912 0.0328135
v -0.113295 -0.0664912 0.0144525
v -0.140148 -0.118545 0.0557005
v -0.139754 -0.119797 0.0557005
v -0.140148 -0.119797 0.0408943
v -0.140148 -0.115701 0.0368004
v -0.13375 -0.119797 0.0337764
v -0.140148 -0.113537 0.0351182
v -0.126263 -0.118332 0.0267348
v -0.140148 -0.103729 0.0286869
v -0.140148 -0.0924211 0.0222456
v -0.140148 -0.1087 0.0318747
v -0.139691 -0.0921917 0.0217767
v -0.119291 -0.111345 0.0181954
v -0.112919 -0.109224 0.0144525
v -0.100868 -0.119797 0.0144525
v -0.131373 -0.0877491 0.0144525
v -0.13192 -0.0869872 0.0144525
v -0.140148 -0.0891269 0.0208074
v -0.127787 -0.119797 0.0293633
v -0.125432 -0.119797 0.0276958
v -0.123623 -0.119328 0.0260444
v -0.122572 -0.119797 0.025891
v -0.116557 -0.108638 0.0157203
v -0.134107 -0.0834003 0.0144525
v -0.140148 -0.0762225 0.0158775
v -0.140148 -0.0710616 0.0144525
v -0.11682 -0.10498 0.0144525
v -0.133098 -0.0851703 0.0144525
v -0.140148 -0.0664912 0.0144525
v -0.140148 -0.119797 0.0557005
f 1 2 3
f 2 4 3
f 5 4 2
f 6 1 3
f 1 7 2
f 8 9 10
f 9 11 10
f 12 13 14
f 11 15 10
f 15 12 10
f 12 15 13
f 16 12 14
f 12 16 17
f 17 18 19
f 16 20 17
f 20 16 21
f 22 16 14
f 12 23 10
f 24 23 12
f 24 25 26
f 25 24 12
f 26 25 19
f 25 17 19
f 25 12 17
f 27 18 17
f 20 27 17
f 28 22 29
f 30 28 29
f 27 31 18
f 31 27 20
f 28 32 22
f 16 32 21
f 22 32 16
f 33 4 5
f 4 33 3
f 7 6 34
f 6 7 1
f 33 22 3
f 22 6 3
f 22 30 29
f 6 22 34
f 30 22 33
f 22 8 34
f 8 22 9
f 15 22 13
f 13 22 14
f 22 11 9
f 22 15 11
f 23 7 34
f 7 23 2
f 23 19 2
f 8 23 34
f 23 8 10
f 23 26 19
f 23 24 26
f 32 33 5
f 32 30 33
f 32 5 2
f 19 32 2
f 32 20 21
f 18 32 19
f 32 28 30
f 31 32 18
f 32 31 20
