# Created by Open3D 
# object name: Basket045_collision_6_1
# number of vertices: 34
# number of triangles: 64
v 0.0889301 0.118326 0.0151478
v 0.141471 0.118326 0.0566102
v 0.141471 0.064123 0.0411146
v 0.132426 0.064123 0.0339124
v 0.114814 0.064123 0.0144196
v 0.0881577 0.118326 0.0144196
v 0.132844 0.064123 0.0343067
v 0.119292 0.111337 0.018198
v 0.139696 0.0921866 0.0217767
v 0.126253 0.118326 0.0267245
v 0.141471 0.0746399 0.0161818
v 0.134019 0.0834852 0.0144196
v 0.141471 0.0897546 0.0219555
v 0.114929 0.114912 0.0185143
v 0.101945 0.118326 0.0144196
v 0.141471 0.102336 0.0288685
v 0.126285 0.118326 0.0267495
v 0.141471 0.106742 0.031803
v 0.135 0.118326 0.0340776
v 0.141471 0.06824 0.0144196
v 0.116505 0.11276 0.0177736
v 0.131357 0.0877202 0.0144196
v 0.112915 0.109161 0.0144196
v 0.141471 0.0930786 0.0235964
v 0.141471 0.114367 0.0372133
v 0.141471 0.118326 0.0412881
v 0.116557 0.108641 0.015722
v 0.114934 0.107021 0.0144196
v 0.133058 0.0851746 0.0144196
v 0.141471 0.0909455 0.0224477
v 0.141471 0.112078 0.0354215
v 0.116766 0.104984 0.0144196
v 0.131816 0.0870838 0.0144196
v 0.141471 0.064123 0.0144196
f 2 1 3
f 5 4 6
f 4 1 6
f 1 7 3
f 4 7 1
f 9 8 10
f 11 12 13
f 14 15 10
f 16 9 10
f 17 16 10
f 18 16 17
f 19 18 17
f 11 20 12
f 8 21 10
f 21 14 10
f 21 8 15
f 14 21 15
f 22 8 9
f 8 23 15
f 16 24 9
f 25 19 26
f 22 27 8
f 23 27 28
f 27 23 8
f 12 29 13
f 24 30 9
f 29 30 13
f 30 29 9
f 19 31 18
f 25 31 19
f 27 32 28
f 32 27 22
f 33 22 9
f 29 33 9
f 34 4 5
f 7 34 3
f 34 7 4
f 19 1 2
f 1 19 6
f 26 19 2
f 19 15 6
f 15 19 10
f 19 17 10
f 31 26 2
f 31 2 3
f 34 31 3
f 31 11 13
f 31 25 26
f 20 31 34
f 31 16 18
f 31 20 11
f 31 24 16
f 30 31 13
f 31 30 24
f 15 33 6
f 33 5 6
f 33 34 5
f 20 33 12
f 23 33 15
f 33 20 34
f 33 29 12
f 33 23 28
f 32 33 28
f 33 32 22
