# Created by Open3D 
# object name: Basket045_collision_14_0
# number of vertices: 34
# number of triangles: 64
v -0.140148 -0.0599212 0.0387954
v -0.161969 -0.0599212 0.0557005
v -0.140148 -0.118545 0.0557005
v -0.170648 -0.0756638 0.0420615
v -0.174571 -0.0795438 0.049955
v -0.158987 -0.103644 0.0457034
v -0.140148 -0.0710616 0.0144525
v -0.140148 -0.0599212 0.0144525
v -0.145431 -0.0599212 0.0144525
v -0.140148 -0.119797 0.0408943
v -0.140148 -0.114619 0.0359593
v -0.162388 -0.0599212 0.0273146
v -0.169519 -0.0599212 0.0342484
v -0.166347 -0.0711509 0.0344709
v -0.178282 -0.0713384 0.0502174
v -0.178335 -0.0772463 0.0557005
v -0.184168 -0.0599212 0.0557005
v -0.154717 -0.0992835 0.0381733
v -0.14743 -0.0960717 0.0297105
v -0.140148 -0.103729 0.0286869
v -0.140148 -0.0921469 0.0220976
v -0.158724 -0.0677632 0.026214
v -0.151232 -0.0599212 0.0178485
v -0.162499 -0.107043 0.0541016
v -0.150196 -0.119797 0.0557005
v -0.162667 -0.107208 0.0557005
v -0.14701 -0.119797 0.0498096
v -0.14233 -0.0903514 0.022774
v -0.140148 -0.0762225 0.0158775
v -0.150711 -0.0636723 0.018369
v -0.182889 -0.0599212 0.052341
v -0.180476 -0.0599212 0.0480517
v -0.177015 -0.0599212 0.0433767
v -0.140148 -0.119797 0.0557005
f 1 2 3
f 5 4 6
f 8 7 9
f 11 10 6
f 13 12 14
f 15 4 5
f 15 16 17
f 16 15 5
f 19 18 14
f 4 18 6
f 18 4 14
f 18 11 6
f 18 19 11
f 19 20 11
f 20 19 21
f 22 12 23
f 12 22 14
f 22 19 14
f 24 25 26
f 24 27 25
f 24 5 6
f 27 24 10
f 10 24 6
f 16 24 26
f 24 16 5
f 28 29 21
f 19 28 21
f 22 28 19
f 30 22 23
f 30 23 9
f 28 30 29
f 30 28 22
f 29 30 7
f 7 30 9
f 31 15 17
f 31 32 15
f 33 13 14
f 4 33 14
f 15 33 4
f 32 33 15
f 34 2 17
f 2 34 3
f 16 34 17
f 25 34 26
f 34 16 26
f 34 8 1
f 34 1 3
f 34 7 8
f 29 34 21
f 20 34 11
f 34 10 11
f 34 29 7
f 34 20 21
f 27 34 25
f 34 27 10
f 2 33 17
f 33 8 9
f 1 33 2
f 8 33 1
f 33 12 13
f 23 33 9
f 12 33 23
f 33 31 17
f 31 33 32
