# Created by Open3D 
# object name: Basket045_collision_4_0
# number of vertices: 34
# number of triangles: 64
v 0.0776231 0.131895 0.0411486
v 0.0776231 0.121792 0.0144196
v -0.00052251 0.147473 0.0144196
v -0.00052251 0.187406 0.0644189
v 0.0776231 0.150481 0.0644189
v 0.0217982 0.170732 0.0260776
v -0.00052251 0.170652 0.0261534
v 0.0217982 0.178789 0.0337321
v 0.074135 0.146162 0.0188586
v 0.0479896 0.150831 0.0144196
v 0.0495347 0.15954 0.0215749
v 0.0217982 0.194521 0.0575963
v -0.00052251 0.196345 0.0644189
v -0.00052251 0.193884 0.0583549
v 0.0233511 0.190711 0.0496187
v 0.0237794 0.196468 0.0644189
v -0.00052251 0.1824 0.0381907
v 0.0527475 0.190228 0.0620207
v 0.0776231 0.154697 0.0267881
v 0.0200389 0.162499 0.0184671
v -0.00052251 0.156657 0.0144196
v -0.00052251 0.187245 0.0452189
v 0.0217982 0.186019 0.0427473
v 0.0574595 0.189584 0.0644189
v 0.0557613 0.186325 0.0540089
v 0.0534971 0.167313 0.029621
v 0.0776231 0.1368 0.0144196
v 0.0216759 0.154963 0.0144196
v 0.055333 0.182232 0.0462907
v 0.0776231 0.174521 0.0485896
v 0.0776231 0.170233 0.0428736
v 0.0561744 0.174657 0.0380782
v 0.0776231 0.178523 0.0564331
v 0.0776231 0.181521 0.0644189
f 2 1 3
f 1 4 3
f 1 5 4
f 6 7 8
f 9 10 11
f 13 12 14
f 12 15 14
f 12 13 16
f 7 17 8
f 18 12 16
f 19 9 11
f 10 20 11
f 20 6 11
f 20 21 7
f 6 20 7
f 15 22 14
f 17 23 8
f 22 23 17
f 23 22 15
f 24 18 16
f 12 25 15
f 18 25 12
f 24 25 18
f 26 19 11
f 6 26 11
f 26 6 8
f 19 27 9
f 9 27 10
f 28 20 10
f 20 28 21
f 29 23 15
f 25 29 15
f 23 29 8
f 29 30 31
f 30 29 25
f 32 26 8
f 29 32 8
f 32 29 31
f 19 32 31
f 26 32 19
f 33 30 25
f 33 24 34
f 33 25 24
f 13 22 4
f 4 22 3
f 22 13 14
f 22 21 3
f 21 22 7
f 22 17 7
f 5 24 4
f 13 24 16
f 24 13 4
f 34 24 5
f 21 28 3
f 28 2 3
f 28 27 2
f 27 28 10
f 33 34 5
f 33 1 2
f 33 5 1
f 27 33 2
f 33 19 31
f 33 27 19
f 30 33 31
