# Created by Open3D 
# object name: Basket045_collision_12_0
# number of vertices: 34
# number of triangles: 64
v -0.132021 0.0763859 0.0387771
v -0.146748 -4.559e-05 0.0144342
v -0.122021 0.0763859 0.0144342
v -0.185734 -4.559e-05 0.0598647
v -0.18761 0.0574576 0.0598647
v -0.192895 0.0257657 0.0561644
v -0.194756 0.0237831 0.0598647
v -0.141736 0.0693383 0.0144342
v -0.150855 0.0454273 0.0144342
v -0.155065 0.0495271 0.0180633
v -0.182999 0.0574576 0.04952
v -0.178118 0.0763859 0.0543747
v -0.150119 0.0763859 0.0598647
v -0.166645 0.0210524 0.0222306
v -0.164855 0.0495271 0.0261399
v -0.162219 -4.559e-05 0.0187216
v -0.170656 -4.559e-05 0.026171
v -0.172466 0.0763859 0.0451484
v -0.162755 0.0763859 0.0343766
v -0.178484 0.0558416 0.0421284
v -0.150088 0.0758323 0.0224052
v -0.137993 0.0763859 0.0144342
v -0.180151 0.0763859 0.0598647
v -0.156896 0.0178353 0.0144342
v -0.156237 -4.559e-05 0.0144342
v -0.187491 0.0218005 0.0450147
v -0.19039 -4.559e-05 0.0499469
v -0.185786 -4.559e-05 0.0433025
v -0.182339 0.0241198 0.0382502
v -0.171419 0.0534923 0.0333313
v -0.17858 -4.559e-05 0.0340118
v -0.192517 0.0218005 0.0543454
v -0.194512 -4.559e-05 0.0598647
v -0.174777 0.0218005 0.0299335
f 1 2 3
f 1 4 2
f 5 6 7
f 8 9 10
f 11 5 12
f 5 11 6
f 13 4 1
f 14 15 10
f 14 16 17
f 18 19 20
f 18 11 12
f 11 18 20
f 8 21 22
f 21 19 22
f 21 8 10
f 15 21 10
f 5 23 12
f 24 25 16
f 14 24 16
f 9 24 10
f 24 14 10
f 27 26 28
f 26 29 28
f 11 26 6
f 26 11 20
f 29 26 20
f 30 29 20
f 19 30 20
f 30 21 15
f 21 30 19
f 29 31 28
f 26 32 6
f 32 26 27
f 6 32 7
f 32 33 7
f 32 27 33
f 31 34 17
f 34 14 17
f 34 31 29
f 30 34 29
f 14 34 15
f 34 30 15
f 22 23 3
f 23 1 3
f 23 13 1
f 19 23 22
f 23 18 12
f 18 23 19
f 23 33 4
f 33 23 7
f 23 5 7
f 13 23 4
f 8 24 9
f 2 24 3
f 24 22 3
f 24 8 22
f 25 24 2
f 33 31 4
f 4 31 2
f 31 25 2
f 16 31 17
f 27 31 33
f 25 31 16
f 31 27 28
