# Created by Open3D 
# object name: Basket045_collision_11_0
# number of vertices: 34
# number of triangles: 64
v -0.0598945 0.116196 0.0144342
v -0.0598945 0.134324 0.034703
v -0.119266 0.0849099 0.0144342
v -0.0598945 0.161689 0.0549719
v -0.119266 0.139639 0.0549719
v -0.0838734 0.133157 0.0144342
v -0.0868606 0.138567 0.0186205
v -0.0598945 0.146417 0.0144342
v -0.107794 0.115735 0.0144342
v -0.115012 0.122956 0.0223822
v -0.119266 0.115671 0.0221045
v -0.119266 0.129878 0.0300882
v -0.119266 0.100489 0.0144342
v -0.0670661 0.154371 0.0226164
v -0.0598945 0.181837 0.0498346
v -0.0598945 0.176549 0.0422059
v -0.0754814 0.174471 0.0460795
v -0.0762253 0.178757 0.0549719
v -0.0598945 0.183955 0.0549719
v -0.0704717 0.170185 0.038679
v -0.0598945 0.166513 0.0311903
v -0.0598945 0.156353 0.0221962
v -0.103157 0.162492 0.0501388
v -0.103621 0.155153 0.0418535
v -0.0955316 0.143121 0.0261162
v -0.0680192 0.162739 0.030116
v -0.104377 0.16336 0.0549719
v -0.108678 0.160232 0.0549719
v -0.107504 0.159085 0.049742
v -0.119266 0.14986 0.0549719
v -0.0908474 0.146496 0.0265408
v -0.119266 0.138428 0.0381473
v -0.0992976 0.150814 0.034084
v -0.119266 0.14386 0.0450914
f 1 2 3
f 2 4 3
f 4 5 3
f 6 7 8
f 7 6 9
f 10 7 9
f 10 11 12
f 13 10 9
f 11 10 13
f 7 14 8
f 15 16 17
f 15 18 19
f 18 15 17
f 20 16 21
f 16 20 17
f 14 22 8
f 23 18 17
f 24 23 17
f 10 25 7
f 26 20 21
f 22 26 21
f 26 22 14
f 27 23 28
f 23 27 18
f 29 30 28
f 23 29 28
f 29 23 24
f 31 26 14
f 31 14 7
f 25 31 7
f 32 29 24
f 26 33 20
f 31 33 26
f 33 24 17
f 20 33 17
f 33 31 25
f 32 33 12
f 33 32 24
f 33 10 12
f 33 25 10
f 29 34 30
f 32 34 29
f 6 8 1
f 6 1 3
f 13 6 3
f 6 13 9
f 1 22 2
f 22 4 2
f 8 22 1
f 4 22 19
f 22 15 19
f 16 22 21
f 15 22 16
f 27 4 19
f 4 27 5
f 18 27 19
f 27 30 5
f 30 27 28
f 34 13 3
f 5 34 3
f 11 34 12
f 34 11 13
f 30 34 5
f 34 32 12
