# Created by Open3D 
# object name: Basket045_collision_1_0
# number of vertices: 34
# number of triangles: 64
v -0.0778468 -0.165498 0.0997465
v -0.077839 -0.166331 0.105185
v -0.077839 -0.169791 0.0643908
v -0.139283 -0.119797 0.103711
v -0.143985 -0.119797 0.0643908
v -0.141006 -0.119797 0.106802
v -0.0780652 -0.17022 0.109741
v -0.145989 -0.119797 0.109888
v -0.077839 -0.179453 0.0643908
v -0.0889972 -0.176959 0.0643908
v -0.077839 -0.181644 0.07598
v -0.077839 -0.17437 0.108401
v -0.120203 -0.159475 0.0720204
v -0.119045 -0.158173 0.0643908
v -0.147026 -0.135204 0.0865716
v -0.155798 -0.119797 0.103711
v -0.157498 -0.119797 0.080728
v -0.151392 -0.119797 0.108837
v -0.129817 -0.141537 0.109394
v -0.134612 -0.142536 0.105519
v -0.12694 -0.15069 0.102014
v -0.0912663 -0.178375 0.0773519
v -0.0911415 -0.17829 0.0859035
v -0.147143 -0.135422 0.07598
v -0.121396 -0.158818 0.0799441
v -0.146535 -0.130688 0.105586
v -0.113259 -0.160755 0.102214
v -0.0875079 -0.174519 0.106009
v -0.077839 -0.178418 0.103711
v -0.146542 -0.134647 0.0662214
v -0.154418 -0.119797 0.0643908
v -0.145307 -0.134329 0.0643908
v -0.10605 -0.16327 0.106501
v -0.101372 -0.162707 0.109775
f 1 2 3
f 2 1 4
f 1 5 4
f 5 1 3
f 6 2 4
f 7 6 8
f 2 6 7
f 10 9 11
f 12 2 7
f 10 13 14
f 15 16 17
f 18 19 8
f 20 15 21
f 22 13 10
f 22 10 11
f 23 22 11
f 24 15 17
f 15 25 21
f 25 24 13
f 24 25 15
f 25 22 23
f 22 25 13
f 26 18 16
f 15 26 16
f 20 26 15
f 18 26 19
f 26 20 19
f 28 27 23
f 25 27 21
f 27 25 23
f 29 23 11
f 29 28 23
f 28 29 12
f 31 30 17
f 30 24 17
f 30 31 32
f 24 30 13
f 30 32 14
f 13 30 14
f 33 27 28
f 20 33 19
f 33 20 21
f 27 33 21
f 34 28 12
f 34 33 28
f 33 34 19
f 34 12 7
f 34 7 8
f 19 34 8
f 32 31 14
f 31 5 3
f 31 10 14
f 9 31 3
f 31 9 10
f 16 18 17
f 6 18 8
f 5 18 4
f 18 6 4
f 18 31 17
f 31 18 5
f 29 9 3
f 2 29 3
f 9 29 11
f 12 29 2
