# Created by Open3D 
# object name: Basket045_collision_0_9
# number of vertices: 29
# number of triangles: 54
v 0.0786569 2.547e-05 0.0144706
v 0.0786569 -0.00049593 0.0144706
v -2.351e-05 -0.00049593 0.014464
v -2.351e-05 9.34e-06 0.014464
v 0.0786569 0.0516001 -0.00161039
v 0.0505231 -0.00049593 -0.00159916
v 0.0786569 -0.00049593 -0.00159096
v 0.0786569 0.0481484 0.0144617
v -2.351e-05 0.0784989 0.0144496
v 0.0359389 0.0784989 0.0144526
v 0.049613 -0.00049593 -0.00159916
v 0.0786569 0.0539288 -0.00161089
v 0.0786569 0.0757653 -0.0016144
v -2.351e-05 0.00104013 -0.0015943
v -2.351e-05 -0.00049593 -0.00159406
v -2.351e-05 0.0784989 -0.00160149
v 0.0786569 0.0784989 -0.00161465
v 0.0526942 0.0784989 0.0144536
v 0.0786569 0.0567535 0.0144599
v 0.0545548 0.0784989 0.0144537
v 0.0749999 0.0784989 0.0144543
v 0.0786569 0.0749571 0.0144553
v 0.069769 0.0784989 0.0144543
v 0.0786569 0.0693954 0.0144569
v 0.0360846 0.0784989 0.0144526
v 0.0775896 0.0784989 0.0144541
v 0.0786569 0.0579028 0.0144596
v 0.0786569 0.0774311 0.0144544
v 0.0786569 0.0784989 0.0144537
f 2 1 3
f 1 4 3
f 6 5 7
f 4 8 9
f 8 4 1
f 8 10 9
f 11 12 5
f 11 5 6
f 14 13 15
f 13 11 15
f 11 13 12
f 13 16 17
f 13 14 16
f 18 8 19
f 20 18 19
f 22 21 23
f 24 22 23
f 24 23 20
f 25 10 8
f 18 25 8
f 26 21 22
f 27 20 19
f 27 24 20
f 26 28 29
f 28 26 22
f 14 15 3
f 16 14 9
f 4 14 3
f 14 4 9
f 2 11 7
f 11 2 3
f 15 11 3
f 11 6 7
f 17 26 29
f 16 26 17
f 26 16 9
f 26 18 20
f 23 26 20
f 10 26 9
f 25 26 10
f 21 26 23
f 26 25 18
f 28 17 29
f 28 13 17
f 28 2 7
f 28 1 2
f 5 28 7
f 28 8 1
f 8 28 19
f 12 28 5
f 13 28 12
f 28 27 19
f 24 28 22
f 27 28 24
