# Created by Open3D 
# object name: Basket045_collision_15_1
# number of vertices: 34
# number of triangles: 64
v -0.0774714 -0.132653 0.0412363
v -0.00052251 -0.147528 0.0144525
v -0.0774714 -0.122686 0.0144525
v -0.00052251 -0.187533 0.0643863
v -0.0774714 -0.1512 0.0643863
v -0.0741422 -0.146159 0.0188613
v -0.0774714 -0.13696 0.0144525
v -0.0480055 -0.150852 0.0144525
v -0.049527 -0.159539 0.0215741
v -0.0230739 -0.194419 0.0577487
v -0.00052251 -0.196108 0.0643863
v -0.00052251 -0.193881 0.058846
v -0.0233451 -0.190711 0.0496178
v -0.0237744 -0.196454 0.0643863
v -0.00052251 -0.182314 0.0382757
v -0.00052251 -0.17055 0.0262468
v -0.0217934 -0.178786 0.03373
v -0.020046 -0.162495 0.0184654
v -0.0213716 -0.155072 0.0144525
v -0.00052251 -0.156471 0.0144525
v -0.00052251 -0.187127 0.0452946
v -0.0217934 -0.186014 0.042748
v -0.0217934 -0.170731 0.0260757
v -0.0527508 -0.190226 0.0620206
v -0.0574509 -0.189572 0.0643863
v -0.0557637 -0.18633 0.0540095
v -0.0774714 -0.154779 0.0268083
v -0.0553419 -0.182238 0.0462917
v -0.0774714 -0.17458 0.0485745
v -0.0774714 -0.170319 0.0428997
v -0.0774714 -0.178579 0.0564177
v -0.0774714 -0.181563 0.0643863
v -0.0561704 -0.174657 0.0380802
v -0.0534889 -0.167316 0.0296243
f 1 2 3
f 1 4 2
f 1 5 4
f 6 7 8
f 6 8 9
f 11 10 12
f 10 13 12
f 10 11 14
f 16 15 17
f 18 19 20
f 16 18 20
f 19 18 8
f 8 18 9
f 13 21 12
f 15 22 17
f 21 22 15
f 22 21 13
f 23 16 17
f 23 18 16
f 18 23 9
f 25 24 14
f 24 10 14
f 10 26 13
f 24 26 10
f 26 24 25
f 6 27 7
f 27 6 9
f 22 28 17
f 28 29 30
f 29 28 26
f 28 22 13
f 26 28 13
f 31 29 26
f 32 31 25
f 31 26 25
f 27 33 30
f 33 28 30
f 28 33 17
f 34 27 9
f 34 33 27
f 33 34 17
f 23 34 9
f 34 23 17
f 20 19 2
f 2 19 3
f 19 7 3
f 7 19 8
f 5 32 4
f 11 32 14
f 32 11 4
f 32 25 14
f 11 21 4
f 4 21 2
f 21 11 12
f 21 20 2
f 21 16 20
f 21 15 16
f 7 31 3
f 31 1 3
f 31 5 1
f 31 32 5
f 27 31 7
f 31 27 30
f 29 31 30
