# Created by Open3D 
# object name: Basket045_collision_6_2
# number of vertices: 34
# number of triangles: 64
v 0.146293 0.00011537 0.0144196
v 0.184701 0.00011537 0.0569314
v 0.141471 0.00992025 0.0144196
v 0.141471 0.0530481 0.0378953
v 0.141471 0.0592206 0.0397131
v 0.16329 0.0592206 0.0569314
v 0.193103 0.00011537 0.0569314
v 0.1904 0.00011537 0.0499363
v 0.194784 0.00991609 0.0569314
v 0.168243 0.0592206 0.0325476
v 0.172803 0.0592206 0.0376625
v 0.178742 0.0408804 0.0379725
v 0.189763 0.0446294 0.0569314
v 0.189763 0.0416093 0.055346
v 0.185797 0.0416093 0.0479888
v 0.163096 0.0376405 0.0219016
v 0.151334 0.0592206 0.0177521
v 0.181806 0.0592206 0.049997
v 0.185098 0.0592206 0.0569314
v 0.154486 0.0358701 0.0144612
v 0.145633 0.0592206 0.0144196
v 0.162731 0.00991609 0.0182438
v 0.191266 0.00991609 0.0491748
v 0.171446 0.0376405 0.0294044
v 0.179305 0.00991609 0.0332494
v 0.183527 0.043588 0.0451237
v 0.157335 0.00594721 0.0144196
v 0.186332 0.00611788 0.0421765
v 0.178585 0.00011537 0.0340027
v 0.167026 0.00594721 0.0219328
v 0.155947 0.00011537 0.0144196
v 0.186382 0.012508 0.0421255
v 0.171279 0.00991609 0.0256301
v 0.141471 0.0592206 0.0144196
f 1 2 3
f 2 4 3
f 4 2 5
f 2 6 5
f 7 8 9
f 10 11 12
f 14 13 9
f 15 13 14
f 10 16 17
f 13 18 19
f 15 18 13
f 20 21 17
f 16 20 17
f 20 16 22
f 8 23 9
f 23 14 9
f 23 15 14
f 25 24 12
f 24 10 12
f 24 16 10
f 18 26 11
f 11 26 12
f 26 18 15
f 27 20 22
f 20 27 21
f 29 28 8
f 28 23 8
f 28 29 25
f 30 29 31
f 27 30 31
f 30 27 22
f 29 30 25
f 32 28 25
f 28 32 23
f 32 25 12
f 26 32 12
f 23 32 15
f 32 26 15
f 33 30 22
f 30 33 25
f 33 24 25
f 16 33 22
f 24 33 16
f 34 4 5
f 4 34 3
f 6 13 19
f 13 6 2
f 13 7 9
f 7 13 2
f 18 34 5
f 21 18 17
f 6 18 5
f 18 21 34
f 18 6 19
f 18 10 17
f 10 18 11
f 29 7 2
f 1 29 2
f 7 29 8
f 31 29 1
f 34 27 3
f 21 27 34
f 27 1 3
f 27 31 1
