# Created by Open3D 
# object name: Basket045_collision_16_0
# number of vertices: 34
# number of triangles: 64
v 0.145652 0.118326 0.0644189
v 0.136294 0.118326 0.103707
v 0.0784106 0.169441 0.0644189
v 0.0784106 0.163941 0.10058
v 0.0784106 0.164746 0.105077
v 0.155762 0.118326 0.0644189
v 0.146546 0.134644 0.0662223
v 0.159117 0.118326 0.0818219
v 0.137558 0.118326 0.106658
v 0.0784106 0.169831 0.11001
v 0.141937 0.118326 0.109948
v 0.109482 0.154693 0.109782
v 0.147028 0.135207 0.0865694
v 0.152017 0.118562 0.104967
v 0.0911445 0.178293 0.0859043
v 0.0784106 0.181083 0.0839044
v 0.0784106 0.181516 0.0759807
v 0.0912709 0.178373 0.0773557
v 0.0883187 0.17773 0.065113
v 0.119047 0.158192 0.0644189
v 0.0784106 0.179369 0.0644189
v 0.145326 0.134337 0.0644189
v 0.0916266 0.166564 0.10976
v 0.0992306 0.166533 0.105885
v 0.146878 0.118326 0.109787
v 0.146182 0.136411 0.0759807
v 0.121141 0.150654 0.105439
v 0.0784106 0.176499 0.105202
v 0.121398 0.158819 0.0799403
v 0.142499 0.130599 0.10489
v 0.131844 0.139766 0.106854
v 0.0874373 0.174507 0.102189
v 0.120201 0.159475 0.0720166
v 0.119481 0.158887 0.0904889
f 1 2 3
f 2 4 3
f 5 4 2
f 6 7 8
f 5 9 10
f 9 11 10
f 9 5 2
f 11 12 10
f 13 14 8
f 16 15 17
f 17 15 18
f 19 20 21
f 19 21 17
f 19 17 18
f 6 22 7
f 22 20 7
f 12 23 10
f 23 12 24
f 25 12 11
f 14 25 8
f 7 26 8
f 26 13 8
f 12 27 24
f 28 15 16
f 23 28 10
f 28 23 24
f 26 29 13
f 15 29 18
f 30 25 14
f 13 30 14
f 27 30 13
f 25 31 12
f 31 27 12
f 30 31 25
f 31 30 27
f 15 32 24
f 32 28 24
f 28 32 15
f 33 26 7
f 33 29 26
f 20 33 7
f 29 33 18
f 33 19 18
f 19 33 20
f 34 27 13
f 29 34 13
f 27 34 24
f 34 15 24
f 34 29 15
f 21 22 3
f 22 6 1
f 22 1 3
f 20 22 21
f 1 25 2
f 25 9 2
f 25 6 8
f 6 25 1
f 9 25 11
f 28 21 3
f 4 28 3
f 28 5 10
f 21 28 17
f 5 28 4
f 28 16 17
