# Created by Open3D 
# object name: Basket045_collision_15_0
# number of vertices: 34
# number of triangles: 64
v -0.0774714 -0.122686 0.0144525
v -0.0864197 -0.119797 0.0144525
v -0.0774714 -0.132653 0.0412363
v -0.143981 -0.119797 0.0643863
v -0.0774714 -0.1512 0.0643863
v -0.0889806 -0.176958 0.0643863
v -0.0774714 -0.178579 0.0564177
v -0.0774714 -0.181563 0.0643863
v -0.119042 -0.158174 0.0643863
v -0.118793 -0.158419 0.0624605
v -0.0840094 -0.166797 0.0418975
v -0.115223 -0.15089 0.0459398
v -0.111095 -0.146708 0.0382317
v -0.145299 -0.13433 0.0643863
v -0.0839793 -0.159148 0.0337838
v -0.0774714 -0.170319 0.0428997
v -0.1076 -0.139375 0.0299469
v -0.0879412 -0.170956 0.0496545
v -0.14273 -0.134809 0.0580322
v -0.15442 -0.119797 0.0643863
v -0.0784657 -0.154259 0.0266916
v -0.143002 -0.127529 0.0498158
v -0.147009 -0.119797 0.0498109
v -0.133737 -0.119797 0.0337789
v -0.131417 -0.123437 0.0337105
v -0.122906 -0.119797 0.0260928
v -0.0951721 -0.126859 0.0145014
v -0.100851 -0.119797 0.0144525
v -0.0774714 -0.13696 0.0144525
v -0.0774714 -0.143104 0.0181711
v -0.0774714 -0.158117 0.0300436
v -0.13571 -0.127732 0.0415505
v -0.102298 -0.134132 0.0228742
v -0.139612 -0.131643 0.0495078
f 1 2 3
f 4 5 3
f 2 4 3
f 6 7 8
f 6 9 10
f 11 12 13
f 9 14 10
f 15 16 11
f 17 15 13
f 15 11 13
f 6 18 7
f 18 16 7
f 16 18 11
f 18 6 10
f 12 18 10
f 11 18 12
f 19 14 20
f 19 12 10
f 14 19 10
f 21 15 17
f 23 22 20
f 22 19 20
f 22 23 24
f 26 25 24
f 25 17 13
f 27 26 28
f 27 29 30
f 27 28 29
f 31 21 30
f 15 31 16
f 21 31 15
f 32 22 24
f 25 32 24
f 12 32 13
f 32 25 13
f 27 33 26
f 25 33 17
f 33 25 26
f 33 21 17
f 21 33 30
f 33 27 30
f 22 34 19
f 32 34 22
f 19 34 12
f 34 32 12
f 5 14 8
f 14 4 20
f 4 14 5
f 14 6 8
f 6 14 9
f 29 28 1
f 1 28 2
f 4 26 20
f 26 4 2
f 26 23 20
f 23 26 24
f 28 26 2
f 31 5 8
f 5 31 3
f 31 1 3
f 7 31 8
f 31 29 1
f 29 31 30
f 16 31 7
