# Created by Open3D 
# object name: Basket045_collision_7_1
# number of vertices: 34
# number of triangles: 64
v 0.187234 0.00010017 0.0644323
v 0.150671 -0.0775445 0.0644323
v 0.146419 0.00010017 0.0144778
v 0.131638 -0.0775445 0.0411385
v 0.121259 -0.0775445 0.0144778
v 0.190398 0.00010017 0.0499339
v 0.196099 0.00010017 0.0644323
v 0.196794 -0.0217908 0.0644323
v 0.141772 -0.0693429 0.0144778
v 0.155062 -0.0495346 0.018062
v 0.150897 -0.0454149 0.0144778
v 0.166647 -0.0210611 0.0222331
v 0.164855 -0.0495346 0.02614
v 0.187486 -0.0217908 0.0450148
v 0.178583 0.00010017 0.0340029
v 0.177041 -0.0775445 0.0530137
v 0.17213 -0.0775445 0.0453176
v 0.183 -0.0574549 0.0495232
v 0.186768 -0.0574549 0.0575083
v 0.189496 -0.0575461 0.0644323
v 0.181432 -0.0775445 0.0644323
v 0.150553 -0.0752717 0.0224971
v 0.137289 -0.0775445 0.0144778
v 0.171415 -0.0534872 0.033333
v 0.156942 -0.0178383 0.0144778
v 0.16223 0.00010017 0.0187124
v 0.15604 0.00010017 0.0144778
v 0.174778 -0.0217908 0.0299345
v 0.193923 -0.0217908 0.0573469
v 0.178484 -0.0558435 0.0421298
v 0.162212 -0.0775445 0.0343172
v 0.170666 0.00010017 0.0261645
v 0.182336 -0.0241167 0.0382521
v 0.193925 -0.0257586 0.0584276
f 2 1 3
f 4 3 5
f 4 2 3
f 6 7 8
f 10 9 11
f 10 12 13
f 6 14 15
f 16 17 18
f 19 16 18
f 16 20 21
f 16 19 20
f 9 22 23
f 24 22 13
f 22 10 13
f 22 9 10
f 25 10 11
f 25 12 10
f 26 25 27
f 25 26 12
f 28 24 13
f 12 28 13
f 29 6 8
f 29 14 6
f 30 14 18
f 17 30 18
f 22 31 23
f 31 22 24
f 30 31 24
f 31 30 17
f 26 32 12
f 28 32 15
f 32 28 12
f 14 33 15
f 33 28 15
f 30 33 14
f 28 33 24
f 33 30 24
f 14 34 18
f 29 34 14
f 34 19 18
f 34 29 8
f 20 34 8
f 19 34 20
f 20 1 2
f 7 20 8
f 20 7 1
f 21 20 2
f 25 23 5
f 3 25 5
f 27 25 3
f 9 25 11
f 25 9 23
f 4 31 2
f 31 4 5
f 23 31 5
f 31 21 2
f 31 16 21
f 16 31 17
f 7 32 1
f 1 32 3
f 32 27 3
f 6 32 7
f 32 6 15
f 32 26 27
