# Created by Open3D 
# object name: Basket045_collision_5_0
# number of vertices: 34
# number of triangles: 64
v 0.163299 0.0592206 0.0569366
v 0.184706 0.00011537 0.0569366
v 0.157998 0.0592206 0.103243
v 0.179769 0.00011537 0.100794
v 0.179725 0.00011537 0.103711
v 0.198133 0.00011537 0.0859466
v 0.19845 0.00011537 0.0727428
v 0.199735 0.00991609 0.0759788
v 0.163738 0.0592206 0.109973
v 0.181185 0.00011537 0.106957
v 0.186262 0.00011537 0.109996
v 0.197937 0.0110906 0.0907721
v 0.190817 0.00011537 0.10675
v 0.178126 0.0592206 0.109849
v 0.159377 0.0592206 0.106807
v 0.189768 0.0446294 0.0569366
v 0.193109 0.00011537 0.0569366
v 0.194842 0.0138734 0.0572898
v 0.198245 0.00716217 0.065663
v 0.198425 0.0129593 0.065611
v 0.199487 0.00991609 0.0839
v 0.194711 0.0454509 0.079942
v 0.190423 0.0268851 0.106028
v 0.191916 0.0454394 0.0620867
v 0.185099 0.0592206 0.0569366
v 0.189917 0.0592206 0.0684512
v 0.194152 0.0475916 0.069995
v 0.189662 0.0592206 0.0872805
v 0.194326 0.0440624 0.0901228
v 0.188724 0.0592206 0.0920984
v 0.187296 0.0209434 0.108851
v 0.190569 0.0445484 0.0982674
v 0.182072 0.0592206 0.106591
v 0.182594 0.0439699 0.109835
f 1 2 3
f 2 4 3
f 4 5 3
f 6 7 8
f 9 10 11
f 12 13 6
f 14 9 11
f 9 15 10
f 10 15 5
f 5 15 3
f 17 16 18
f 17 19 7
f 7 19 8
f 19 20 8
f 19 17 18
f 20 19 18
f 22 21 8
f 21 6 8
f 21 12 6
f 12 23 13
f 24 20 18
f 16 24 18
f 24 16 25
f 26 24 25
f 27 26 28
f 27 28 22
f 27 24 26
f 24 27 20
f 27 22 8
f 20 27 8
f 29 21 22
f 21 29 12
f 30 29 28
f 28 29 22
f 29 23 12
f 13 31 11
f 23 31 13
f 32 30 33
f 32 29 30
f 23 32 33
f 29 32 23
f 34 14 11
f 31 34 11
f 34 31 23
f 14 34 33
f 34 23 33
f 17 4 2
f 17 13 11
f 10 17 11
f 4 17 5
f 17 10 5
f 6 17 7
f 13 17 6
f 16 1 25
f 16 17 2
f 1 16 2
f 1 30 25
f 30 1 3
f 30 14 33
f 15 30 3
f 30 26 25
f 14 30 9
f 30 15 9
f 26 30 28
