# Created by Open3D 
# object name: Basket045_collision_6_3
# number of vertices: 34
# number of triangles: 64
v 0.16329 0.0592206 0.0569314
v 0.141471 0.118326 0.0566102
v 0.141471 0.0592206 0.0397131
v 0.141878 0.118326 0.0569314
v 0.141471 0.0592206 0.0144196
v 0.145633 0.0592206 0.0144196
v 0.141471 0.06824 0.0144196
v 0.150718 0.0636639 0.0183686
v 0.141471 0.0746399 0.0161818
v 0.141471 0.0909455 0.0224477
v 0.158723 0.06776 0.0262168
v 0.151334 0.0592206 0.0177521
v 0.158567 0.111013 0.0540726
v 0.147368 0.118326 0.0490999
v 0.141471 0.118326 0.0412881
v 0.152106 0.118326 0.0569314
v 0.162877 0.10753 0.0569314
v 0.158984 0.103654 0.0457001
v 0.154715 0.0992913 0.0381723
v 0.166395 0.0713124 0.0343772
v 0.141471 0.113223 0.0363174
v 0.161337 0.0592206 0.0261964
v 0.169772 0.0592206 0.0341767
v 0.141471 0.102336 0.0288685
v 0.178283 0.0713471 0.0502151
v 0.17918 0.0776996 0.0569314
v 0.174577 0.0795394 0.0499571
v 0.175815 0.0592206 0.041495
v 0.180614 0.0592206 0.0479152
v 0.162502 0.107044 0.0541018
v 0.14743 0.0960745 0.0297082
v 0.182998 0.0592206 0.0520788
v 0.185098 0.0592206 0.0569314
v 0.170653 0.0756631 0.0420631
f 1 2 3
f 2 1 4
f 6 5 7
f 8 6 7
f 9 8 7
f 8 9 10
f 11 8 10
f 8 12 6
f 14 13 15
f 13 16 17
f 13 14 16
f 19 18 20
f 21 18 19
f 18 21 15
f 23 22 20
f 22 11 20
f 11 22 8
f 22 12 8
f 24 21 19
f 26 25 27
f 28 23 20
f 25 28 20
f 28 25 29
f 18 30 27
f 26 30 17
f 30 26 27
f 30 13 17
f 13 30 15
f 30 18 15
f 24 31 10
f 31 24 19
f 31 19 20
f 11 31 20
f 31 11 10
f 25 32 29
f 32 26 33
f 32 25 26
f 34 25 20
f 25 34 27
f 18 34 20
f 34 18 27
f 2 14 15
f 16 14 4
f 14 2 4
f 26 1 33
f 26 16 4
f 1 26 4
f 16 26 17
f 24 9 7
f 24 2 15
f 2 24 3
f 24 5 3
f 5 24 7
f 9 24 10
f 21 24 15
f 1 32 33
f 5 32 3
f 32 1 3
f 32 5 6
f 12 32 6
f 28 32 23
f 32 22 23
f 22 32 12
f 32 28 29
