# Created by Open3D 
# object name: Basket045_collision_3_0
# number of vertices: 34
# number of triangles: 64
v -0.077839 -0.169797 0.0643863
v -0.00053007 -0.181915 0.0973903
v -0.077839 -0.165508 0.0997487
v -0.00053007 -0.187533 0.0643863
v -0.0237757 -0.197603 0.0680554
v -0.00053007 -0.197679 0.0720187
v -0.0234692 -0.198571 0.0759821
v -0.00053007 -0.196113 0.0643863
v -0.0237757 -0.196459 0.0643863
v -0.077839 -0.165619 0.103708
v -0.0033303 -0.182107 0.105963
v -0.077839 -0.167051 0.106659
v -0.00053007 -0.198098 0.0822859
v -0.00053007 -0.186188 0.109258
v -0.077839 -0.170669 0.109523
v -0.0599479 -0.19047 0.0706724
v -0.0679928 -0.178364 0.10969
v -0.0401495 -0.186464 0.109811
v -0.0247407 -0.198257 0.0863206
v -0.00053007 -0.194528 0.103021
v -0.00053007 -0.181866 0.103783
v -0.077839 -0.179459 0.0643863
v -0.077839 -0.181426 0.0799432
v -0.0574428 -0.189576 0.0643863
v -0.077839 -0.176282 0.107359
v -0.0594711 -0.18623 0.105718
v -0.0336787 -0.191766 0.103708
v -0.077839 -0.178423 0.103708
v -0.0297205 -0.191165 0.106882
v -0.0119807 -0.190301 0.109735
v -0.0178309 -0.193728 0.104559
v -0.05963 -0.190281 0.0899986
v -0.00053007 -0.193153 0.106004
v -0.0574428 -0.1915 0.0799409
f 2 1 3
f 4 1 2
f 5 6 7
f 5 8 6
f 8 5 9
f 11 10 12
f 6 13 7
f 15 14 12
f 14 11 12
f 16 5 7
f 15 17 18
f 19 13 20
f 13 19 7
f 14 21 11
f 21 10 11
f 10 21 3
f 21 2 3
f 23 22 16
f 5 24 9
f 16 24 5
f 22 24 16
f 25 17 15
f 26 19 27
f 26 25 28
f 25 26 17
f 29 26 27
f 17 26 18
f 26 29 18
f 29 30 18
f 30 15 18
f 30 14 15
f 31 19 20
f 31 30 29
f 31 29 27
f 19 31 27
f 26 32 19
f 32 26 28
f 23 32 28
f 32 23 16
f 30 33 14
f 33 31 20
f 31 33 30
f 34 32 16
f 32 34 19
f 34 16 7
f 19 34 7
f 8 24 4
f 4 24 1
f 24 8 9
f 24 22 1
f 25 15 12
f 1 25 3
f 25 10 3
f 22 25 1
f 10 25 12
f 25 23 28
f 25 22 23
f 33 13 6
f 33 4 2
f 33 8 4
f 8 33 6
f 13 33 20
f 21 33 2
f 33 21 14
