# Created by Open3D 
# object name: Basket045_collision_0_3
# number of vertices: 34
# number of triangles: 64
v -2.351e-05 -0.0785931 0.0144705
v -2.351e-05 -0.157584 0.0144696
v -0.0787039 -0.0785931 0.0144636
v -0.0787039 -0.136214 0.014451
v -0.0787039 -0.115937 -0.00156742
v -0.0787039 -0.0785931 -0.00157342
v -0.0264557 -0.143039 -0.00156844
v -2.351e-05 -0.136074 -0.00155996
v -2.351e-05 -0.0785931 -0.00158151
v -0.0358517 -0.146606 0.00263692
v -0.0479896 -0.150824 0.014451
v -0.0483901 -0.142915 0.00221937
v -0.00421322 -0.150576 0.00257232
v -0.0178298 -0.147785 0.00090215
v -0.0213726 -0.155043 0.014451
v -0.0787039 -0.128442 0.00159057
v -0.0613905 -0.133952 -0.00114932
v -0.0787039 -0.124337 -0.00144501
v -0.0693386 -0.141458 0.014451
v -0.0598194 -0.138852 0.00237694
v -0.0677675 -0.134944 0.00240688
v -0.0413353 -0.140434 -0.00150068
v -2.351e-05 -0.143514 -0.00149927
v -0.00834132 -0.146699 -0.00135258
v -2.351e-05 -0.146659 -0.00132924
v -2.351e-05 -0.153392 0.00681035
v -0.0455867 -0.151259 0.014451
v -0.0725733 -0.139752 0.014451
v -0.0653646 -0.135409 0.00155761
v -0.0398566 -0.142729 -0.00138567
v -2.351e-05 -0.150103 0.00234856
v -0.0612365 -0.136712 0.00101717
v -0.0639167 -0.131718 -0.00143451
v -2.351e-05 -0.148755 0.00077401
f 2 1 3
f 4 2 3
f 6 5 3
f 8 7 9
f 7 6 9
f 7 5 6
f 10 11 12
f 13 10 14
f 15 10 13
f 17 16 18
f 19 11 2
f 11 20 12
f 19 20 11
f 20 19 21
f 5 22 18
f 7 22 5
f 23 7 8
f 24 13 14
f 24 23 25
f 23 24 7
f 15 26 2
f 26 15 13
f 10 27 11
f 27 10 15
f 11 27 2
f 27 15 2
f 4 28 2
f 28 19 2
f 16 28 4
f 28 16 21
f 19 28 21
f 29 20 21
f 16 29 21
f 29 16 17
f 20 30 12
f 30 10 12
f 10 30 14
f 30 24 14
f 30 22 7
f 24 30 7
f 31 26 13
f 32 29 17
f 29 32 20
f 30 32 17
f 32 30 20
f 22 33 18
f 30 33 22
f 33 17 18
f 33 30 17
f 34 31 13
f 34 24 25
f 24 34 13
f 6 1 9
f 1 6 3
f 5 16 3
f 16 4 3
f 16 5 18
f 1 34 9
f 34 1 2
f 23 34 25
f 34 8 9
f 34 23 8
f 26 34 2
f 31 34 26
