# Created by Open3D 
# object name: Basket045_collision_12_1
# number of vertices: 34
# number of triangles: 64
v -0.132021 0.0763859 0.0387771
v -0.122021 0.0763859 0.0144342
v -0.119266 0.0848999 0.0144342
v -0.130594 0.138498 0.0466603
v -0.119266 0.129864 0.0300892
v -0.143582 0.108182 0.0334737
v -0.11927 0.142583 0.0598625
v -0.150119 0.0763859 0.0598647
v -0.119266 0.152817 0.0598647
v -0.175089 0.0889848 0.0598647
v -0.155458 0.119794 0.0598647
v -0.158653 0.115215 0.0578678
v -0.174214 0.0869049 0.0545856
v -0.180151 0.0763859 0.0598647
v -0.154702 0.11514 0.0499914
v -0.168858 0.0857977 0.0458597
v -0.119266 0.141139 0.0416191
v -0.177389 0.0763859 0.0528219
v -0.162923 0.0841517 0.0378811
v -0.155629 0.081204 0.0295244
v -0.138667 0.10299 0.0264601
v -0.13072 0.0989951 0.0185481
v -0.149625 0.0763859 0.022313
v -0.137993 0.0763859 0.0144342
v -0.150603 0.11101 0.0422484
v -0.135072 0.139186 0.053705
v -0.123166 0.142792 0.0460599
v -0.119266 0.115664 0.0221016
v -0.119266 0.100476 0.0144342
v -0.12619 0.094192 0.0144342
v -0.1693 0.0763859 0.0415179
v -0.131031 0.142807 0.0539941
v -0.159376 0.0763859 0.0308659
v -0.134783 0.142613 0.0598647
f 1 2 3
f 4 5 6
f 1 7 8
f 8 7 9
f 9 7 3
f 7 1 3
f 10 11 12
f 10 13 14
f 13 10 12
f 15 13 12
f 13 15 16
f 4 17 5
f 13 18 14
f 18 13 16
f 20 19 6
f 21 20 6
f 5 21 6
f 22 21 5
f 23 22 24
f 23 21 22
f 21 23 20
f 25 4 6
f 25 15 4
f 19 25 6
f 15 25 16
f 25 19 16
f 15 26 4
f 11 26 12
f 26 15 12
f 17 27 9
f 27 17 4
f 28 22 5
f 28 29 22
f 22 30 24
f 29 30 22
f 31 18 16
f 19 31 16
f 26 32 4
f 27 32 9
f 32 27 4
f 23 33 20
f 33 19 20
f 33 31 19
f 32 34 9
f 34 32 26
f 34 26 11
f 28 17 9
f 28 9 3
f 17 28 5
f 29 28 3
f 24 30 2
f 30 29 3
f 2 30 3
f 33 1 8
f 33 8 14
f 33 24 2
f 1 33 2
f 18 33 14
f 33 23 24
f 31 33 18
f 8 34 14
f 34 8 9
f 34 10 14
f 10 34 11
