# Created by Open3D 
# object name: Basket045_collision_13_0
# number of vertices: 34
# number of triangles: 64
v -0.139689 -0.119773 0.0557005
v -0.161967 -0.0599212 0.0557005
v -0.139286 -0.119797 0.103709
v -0.162043 -0.0599212 0.102719
v -0.163365 -0.0599212 0.106547
v -0.145997 -0.119797 0.109883
v -0.182813 -0.0599212 0.109809
v -0.174355 -0.0832831 0.109671
v -0.150204 -0.119797 0.0557005
v -0.141008 -0.119797 0.106804
v -0.168318 -0.0599212 0.109795
v -0.182492 -0.0795907 0.065745
v -0.184172 -0.0599212 0.0557005
v -0.178547 -0.078565 0.0566481
v -0.153808 -0.119797 0.0619889
v -0.157501 -0.119797 0.0807267
v -0.166407 -0.110935 0.0700293
v -0.162673 -0.107208 0.0557005
v -0.162638 -0.11512 0.082346
v -0.155803 -0.119797 0.103709
v -0.166472 -0.107067 0.101856
v -0.184415 -0.0772463 0.0759806
v -0.189661 -0.0599212 0.0683587
v -0.189975 -0.0599212 0.079941
v -0.186261 -0.0674585 0.101952
v -0.188296 -0.0599212 0.102612
v -0.182894 -0.0801533 0.0839015
v -0.164602 -0.109065 0.0620048
v -0.16765 -0.108825 0.079941
v -0.158489 -0.110935 0.109655
v -0.178763 -0.0838457 0.10287
v -0.182944 -0.0706292 0.10652
v -0.152824 -0.119557 0.107835
v -0.171053 -0.0960952 0.10647
f 1 2 3
f 2 4 3
f 4 5 3
f 6 7 8
f 9 1 3
f 5 10 3
f 6 11 7
f 10 11 6
f 11 10 5
f 12 13 14
f 15 16 17
f 18 12 14
f 13 18 14
f 16 19 17
f 20 19 16
f 19 20 21
f 22 12 17
f 12 23 13
f 23 22 24
f 22 23 12
f 25 26 24
f 22 25 24
f 25 22 27
f 12 28 17
f 18 28 12
f 28 15 17
f 15 28 9
f 28 18 9
f 19 29 17
f 29 19 21
f 29 21 27
f 29 22 17
f 22 29 27
f 30 6 8
f 20 30 21
f 21 31 27
f 31 25 27
f 26 32 7
f 25 32 26
f 7 32 8
f 31 32 25
f 33 20 6
f 30 33 6
f 33 30 20
f 34 31 21
f 34 30 8
f 30 34 21
f 32 34 8
f 34 32 31
f 18 13 2
f 1 18 2
f 9 18 1
f 15 20 16
f 20 9 3
f 10 20 3
f 20 10 6
f 20 15 9
f 23 4 2
f 23 11 5
f 4 23 5
f 26 23 24
f 13 23 2
f 11 23 7
f 23 26 7
