# Created by Open3D 
# object name: Basket045_collision_9_0
# number of vertices: 34
# number of triangles: 64
v -0.00051084 -0.147547 0.0144778
v 0.059101 -0.134891 0.0353455
v -0.00051084 -0.184415 0.0562132
v 0.059101 -0.162686 0.0562132
v 0.059101 -0.116457 0.0144778
v 0.0460277 -0.189143 0.0562132
v 0.059101 -0.184819 0.0562132
v 0.059101 -0.183052 0.0515804
v 0.00991277 -0.189967 0.0470254
v -0.00051084 -0.187132 0.0452973
v -0.00051084 -0.182307 0.0382706
v -0.00051084 -0.166484 0.0224033
v -0.00051084 -0.156491 0.0144778
v 0.00784089 -0.158508 0.0144941
v 0.0121189 -0.194193 0.054093
v 0.0100295 -0.194664 0.0562132
v -0.00051084 -0.192663 0.0562132
v 0.0455725 -0.186683 0.0497258
v 0.0433547 -0.182211 0.0423886
v 0.059101 -0.17979 0.0461362
v 0.00991277 -0.182853 0.0377599
v 0.0059441 -0.175289 0.029528
v -0.00051084 -0.174625 0.0300877
v 0.0059441 -0.167093 0.0218763
v 0.059101 -0.173657 0.0384584
v 0.059101 -0.156613 0.0222042
v 0.0368064 -0.158845 0.0181831
v 0.059101 -0.146755 0.0144778
v 0.0336781 -0.154009 0.0144778
v 0.0416038 -0.17501 0.0336093
v 0.059101 -0.166882 0.0312956
v 0.00991277 -0.17531 0.0294668
v 0.0392285 -0.167168 0.0257716
v 0.00991277 -0.167072 0.0218844
f 2 1 3
f 4 2 3
f 5 1 2
f 7 6 8
f 9 10 11
f 12 13 14
f 15 6 16
f 9 15 10
f 17 15 16
f 10 15 17
f 15 18 6
f 6 18 8
f 18 9 19
f 18 15 9
f 18 20 8
f 20 18 19
f 21 9 11
f 22 21 11
f 9 21 19
f 23 22 11
f 22 23 12
f 24 12 14
f 24 22 12
f 25 20 19
f 26 27 28
f 27 29 28
f 29 27 14
f 13 29 14
f 21 30 19
f 25 30 31
f 30 25 19
f 32 21 22
f 32 30 21
f 24 32 22
f 33 26 31
f 30 33 31
f 26 33 27
f 32 33 30
f 33 34 27
f 34 33 32
f 27 34 14
f 34 24 14
f 34 32 24
f 17 6 3
f 6 4 3
f 6 17 16
f 6 7 4
f 23 17 3
f 1 23 3
f 10 23 11
f 23 10 17
f 13 23 1
f 12 23 13
f 26 5 2
f 4 26 2
f 5 26 28
f 7 26 4
f 26 7 8
f 26 25 31
f 20 26 8
f 25 26 20
f 29 5 28
f 29 13 1
f 5 29 1
