# Created by Open3D 
# object name: Basket045_collision_20_0
# number of vertices: 34
# number of triangles: 64
v -0.119273 0.14259 0.0598691
v -0.169623 0.073534 0.103686
v -0.119266 0.141071 0.103711
v -0.17097 0.073534 0.0598691
v -0.122857 0.150581 0.109675
v -0.119266 0.156309 0.10298
v -0.139062 0.139063 0.106106
v -0.135434 0.147181 0.0799444
v -0.119266 0.157422 0.0759785
v -0.119266 0.152815 0.0598691
v -0.170093 0.073534 0.10616
v -0.173922 0.0748972 0.109841
v -0.182933 0.073534 0.104975
v -0.16618 0.0984663 0.109633
v -0.170601 0.0980844 0.106168
v -0.182876 0.073534 0.0720174
v -0.178358 0.0912395 0.0786045
v -0.177738 0.0860576 0.103711
v -0.15897 0.119399 0.065396
v -0.159569 0.120257 0.079942
v -0.162736 0.111343 0.106047
v -0.152788 0.125004 0.103988
v -0.134895 0.146746 0.0900557
v -0.119266 0.143683 0.107839
v -0.122669 0.142484 0.109729
v -0.143223 0.127932 0.110013
v -0.178396 0.0837254 0.0619454
v -0.179292 0.073534 0.0598691
v -0.175175 0.0888169 0.0598691
v -0.135054 0.144943 0.0642536
v -0.119266 0.155553 0.0666255
v -0.17817 0.0908043 0.0720174
v -0.156749 0.11804 0.0598691
v -0.133034 0.143987 0.0598691
f 2 1 3
f 4 1 2
f 5 6 7
f 8 6 9
f 1 10 3
f 11 2 3
f 11 12 13
f 14 15 13
f 12 14 13
f 17 16 13
f 15 18 13
f 18 17 13
f 17 18 15
f 8 19 20
f 21 22 20
f 17 21 20
f 21 17 15
f 14 21 15
f 22 21 7
f 23 8 20
f 22 23 20
f 23 22 7
f 6 23 7
f 8 23 6
f 11 24 12
f 24 25 12
f 24 11 3
f 5 24 6
f 25 24 5
f 26 14 12
f 25 26 12
f 26 25 5
f 26 21 14
f 26 5 7
f 21 26 7
f 16 27 28
f 27 29 28
f 30 19 8
f 30 31 10
f 31 30 9
f 30 8 9
f 32 19 29
f 27 32 29
f 32 17 20
f 19 32 20
f 32 16 17
f 32 27 16
f 19 33 29
f 30 33 19
f 34 30 10
f 34 33 30
f 4 16 28
f 16 11 13
f 16 4 2
f 11 16 2
f 6 24 9
f 24 31 9
f 10 24 3
f 31 24 10
f 34 4 28
f 4 34 1
f 34 10 1
f 29 34 28
f 33 34 29
