# Created by Open3D 
# object name: Basket045_collision_10_0
# number of vertices: 34
# number of triangles: 64
v -0.0598945 0.161305 0.0782537
v -0.0598945 0.163423 0.10685
v -0.119266 0.141075 0.103707
v -0.119266 0.139634 0.0549771
v -0.0598945 0.161684 0.0549771
v -0.0756441 0.182323 0.0619423
v -0.0598945 0.183959 0.0549771
v -0.0598945 0.190055 0.0730371
v -0.0799331 0.182706 0.069193
v -0.110909 0.166391 0.0814104
v -0.119266 0.156242 0.103809
v -0.119266 0.157431 0.0766538
v -0.0598945 0.186222 0.105844
v -0.0715527 0.182312 0.105807
v -0.0598945 0.182449 0.109761
v -0.0787417 0.183609 0.0809336
v -0.111002 0.162514 0.105775
v -0.0990535 0.170368 0.101762
v -0.0598945 0.189724 0.0842555
v -0.11106 0.158613 0.109751
v -0.0598945 0.166413 0.109275
v -0.119266 0.148976 0.109325
v -0.119266 0.145441 0.108856
v -0.0762253 0.178764 0.0549771
v -0.107899 0.16312 0.0574551
v -0.119266 0.15502 0.0653697
v -0.119266 0.149871 0.0549771
v -0.106527 0.161802 0.0549771
v -0.0793519 0.182341 0.0900078
v -0.0990883 0.16645 0.109681
v -0.119266 0.153842 0.107327
v -0.119266 0.142239 0.106452
v -0.110991 0.166456 0.0738419
v -0.107794 0.166827 0.0652013
f 1 2 3
f 1 4 5
f 4 1 3
f 7 6 8
f 6 9 8
f 11 10 12
f 13 14 15
f 9 16 8
f 10 17 18
f 17 10 11
f 17 14 18
f 16 19 8
f 20 21 15
f 20 22 21
f 22 23 21
f 24 6 7
f 26 25 27
f 25 28 27
f 25 24 28
f 19 29 13
f 13 29 14
f 29 19 16
f 14 29 18
f 29 10 18
f 29 16 10
f 14 30 15
f 30 20 15
f 17 30 14
f 20 30 17
f 20 31 22
f 31 17 11
f 31 20 17
f 21 32 2
f 23 32 21
f 2 32 3
f 33 26 12
f 10 33 12
f 33 16 9
f 16 33 10
f 34 25 26
f 33 34 26
f 34 33 9
f 6 34 9
f 24 34 6
f 25 34 24
f 21 19 15
f 7 19 5
f 19 7 8
f 19 1 5
f 1 19 2
f 19 21 2
f 19 13 15
f 24 7 5
f 24 4 27
f 4 24 5
f 28 24 27
f 4 32 27
f 32 4 3
f 32 26 27
f 26 32 12
f 32 11 12
f 32 31 11
f 32 23 22
f 31 32 22
