# Created by Open3D 
# object name: Basket045_collision_14_1
# number of vertices: 34
# number of triangles: 64
v -0.146768 -4.559e-05 0.0144525
v -0.184255 -4.559e-05 0.0557005
v -0.140148 -0.0131855 0.0144525
v -0.140148 -0.0540444 0.0371008
v -0.140148 -0.0599212 0.0387954
v -0.161969 -0.0599212 0.0557005
v -0.145431 -0.0599212 0.0144525
v -0.154528 -0.0358385 0.0144768
v -0.151232 -0.0599212 0.0178485
v -0.190386 -4.559e-05 0.0499469
v -0.192489 -4.559e-05 0.0557005
v -0.193856 -0.00991546 0.0557005
v -0.191258 -0.00991546 0.0491757
v -0.157378 -0.00595345 0.0144525
v -0.18579 -0.0416116 0.0479887
v -0.186379 -0.0125177 0.0421261
v -0.170659 -4.559e-05 0.0261696
v -0.179229 -0.00595345 0.0333726
v -0.178577 -4.559e-05 0.0340106
v -0.171279 -0.00991546 0.0256286
v -0.179302 -0.00991546 0.0332475
v -0.178735 -0.0408848 0.0379714
v -0.186329 -0.00611755 0.0421776
v -0.163098 -0.0376496 0.0219019
v -0.1893 -0.0439208 0.0556116
v -0.184168 -0.0599212 0.0557005
v -0.180476 -0.0599212 0.0480517
v -0.183524 -0.0435867 0.045124
v -0.169519 -0.0599212 0.0342484
v -0.162767 -0.00793446 0.0182156
v -0.156253 -4.559e-05 0.0144525
v -0.161125 -0.0599212 0.0261962
v -0.171447 -0.0376496 0.0294077
v -0.140148 -0.0599212 0.0144525
f 1 2 3
f 4 2 5
f 2 4 3
f 2 6 5
f 8 7 9
f 11 10 12
f 10 13 12
f 14 7 8
f 15 13 16
f 17 18 19
f 18 17 20
f 21 18 20
f 21 22 16
f 23 10 19
f 18 23 19
f 10 23 13
f 13 23 16
f 23 21 16
f 21 23 18
f 24 8 9
f 25 26 12
f 13 25 12
f 15 25 13
f 25 27 26
f 27 25 15
f 22 28 16
f 28 15 16
f 28 27 15
f 27 28 29
f 29 28 22
f 14 30 31
f 30 17 31
f 17 30 20
f 30 14 8
f 24 30 8
f 30 24 20
f 32 24 9
f 33 29 22
f 21 33 22
f 33 32 29
f 32 33 24
f 33 21 20
f 24 33 20
f 4 34 3
f 34 4 5
f 6 11 26
f 11 6 2
f 26 11 12
f 34 14 3
f 7 14 34
f 14 1 3
f 14 31 1
f 17 11 2
f 1 17 2
f 31 17 1
f 10 17 19
f 17 10 11
f 32 34 5
f 6 32 5
f 7 32 9
f 32 6 26
f 32 7 34
f 27 32 26
f 32 27 29
