# Created by Open3D 
# object name: Basket045_collision_18_0
# number of vertices: 34
# number of triangles: 64
v 0.163042 -0.0769879 0.0994347
v 0.179865 0.00011537 0.0997469
v 0.16236 -0.0769879 0.104338
v 0.187233 0.00011537 0.0644323
v 0.170851 -0.0769879 0.0644323
v 0.186355 -0.0288814 0.10976
v 0.182653 -0.0443986 0.109893
v 0.186405 -0.0481044 0.105946
v 0.185551 0.00011537 0.109996
v 0.19091 -0.000933705 0.106887
v 0.198132 0.00011537 0.085952
v 0.194356 -0.0250323 0.0980699
v 0.197497 -0.0237756 0.0878609
v 0.198317 -0.0243756 0.0695569
v 0.196098 0.00011537 0.0644323
v 0.198452 0.00011537 0.0727458
v 0.174471 -0.0717048 0.109746
v 0.16865 -0.0769879 0.108747
v 0.175011 -0.0769879 0.106597
v 0.179908 -0.0769879 0.0644323
v 0.189498 -0.057531 0.0644323
v 0.190099 -0.0592291 0.066417
v 0.181547 -0.0769879 0.0720188
v 0.182369 -0.0597876 0.105933
v 0.19054 -0.0601121 0.0865139
v 0.17973 0.00011537 0.103707
v 0.181184 0.00011537 0.106959
v 0.164041 -0.0769879 0.107128
v 0.19059 -0.0198133 0.106303
v 0.196555 -0.0237756 0.0644323
v 0.191068 -0.0588781 0.0759793
v 0.182141 -0.0769879 0.0830975
v 0.198308 -0.0250889 0.0815187
v 0.186376 -0.0636594 0.094038
f 2 1 3
f 1 4 5
f 4 1 2
f 6 7 8
f 6 9 7
f 9 6 10
f 11 9 10
f 12 11 10
f 11 12 13
f 14 15 16
f 17 18 19
f 7 17 8
f 9 17 7
f 18 17 9
f 20 21 22
f 23 20 22
f 17 24 8
f 24 17 19
f 25 12 8
f 12 25 13
f 26 2 3
f 27 26 3
f 28 27 3
f 27 28 9
f 28 18 9
f 29 6 8
f 12 29 8
f 6 29 10
f 29 12 10
f 21 30 22
f 30 14 22
f 14 30 15
f 31 25 32
f 31 32 23
f 31 23 22
f 14 31 22
f 25 33 13
f 33 11 13
f 33 31 14
f 31 33 25
f 11 33 16
f 33 14 16
f 32 34 19
f 25 34 32
f 34 24 19
f 24 34 8
f 34 25 8
f 15 26 16
f 26 4 2
f 4 26 15
f 26 11 16
f 26 27 9
f 11 26 9
f 28 1 5
f 1 28 3
f 20 28 5
f 18 28 19
f 28 32 19
f 32 28 23
f 28 20 23
f 30 4 15
f 4 30 5
f 30 20 5
f 20 30 21
