# Created by Open3D 
# object name: Basket045_collision_8_0
# number of vertices: 34
# number of triangles: 64
v 0.059101 -0.160073 0.077955
v 0.059101 -0.162695 0.0562132
v -0.00051084 -0.184423 0.0562132
v 0.059101 -0.15876 0.0990266
v -0.00051084 -0.18186 0.103781
v 0.059101 -0.158923 0.103744
v 0.059101 -0.162142 0.108292
v 0.00867548 -0.197983 0.064992
v 0.0437516 -0.194161 0.0660065
v 0.0113135 -0.194531 0.0562132
v 0.00991277 -0.19371 0.104696
v 0.0112084 -0.198385 0.0903582
v 0.0257525 -0.192651 0.103708
v 0.0159825 -0.190201 0.109674
v -0.00051084 -0.192234 0.10686
v 0.0037263 -0.198146 0.089914
v -0.000452475 -0.197927 0.077085
v 0.00991277 -0.199738 0.079942
v -2.059e-05 -0.186197 0.109658
v 0.059101 -0.165387 0.109777
v 0.059101 -0.178681 0.109726
v 0.0435882 -0.187428 0.106967
v 0.059101 -0.182825 0.107014
v -0.00051084 -0.181773 0.0990292
v 0.0467602 -0.189728 0.0571095
v 0.059101 -0.184818 0.0562132
v 0.00991277 -0.199525 0.0720202
v -0.00051084 -0.19267 0.0562132
v -0.00051084 -0.194524 0.103024
v 0.059101 -0.188164 0.0634845
v 0.059101 -0.190332 0.0771426
v 0.044627 -0.194575 0.0866601
v 0.059101 -0.189418 0.0882407
v 0.0466464 -0.194481 0.0748641
f 1 2 3
f 4 5 6
f 4 1 3
f 5 7 6
f 9 8 10
f 11 12 13
f 11 14 15
f 14 11 13
f 16 17 18
f 12 16 18
f 19 5 15
f 14 19 15
f 19 14 20
f 7 19 20
f 19 7 5
f 14 21 20
f 22 14 13
f 21 22 23
f 22 21 14
f 24 4 3
f 4 24 5
f 25 10 26
f 25 9 10
f 17 27 18
f 8 27 17
f 27 8 9
f 8 28 10
f 28 8 17
f 11 29 12
f 29 16 12
f 29 11 15
f 16 29 17
f 29 28 17
f 30 31 9
f 30 25 26
f 25 30 9
f 22 32 23
f 32 22 13
f 12 32 13
f 32 12 18
f 32 33 23
f 33 32 31
f 31 34 9
f 32 34 31
f 34 32 18
f 27 34 18
f 34 27 9
f 26 28 2
f 2 28 3
f 10 28 26
f 5 29 15
f 29 24 3
f 24 29 5
f 28 29 3
f 1 33 2
f 33 26 2
f 33 4 6
f 33 7 20
f 21 33 20
f 4 33 1
f 7 33 6
f 33 21 23
f 33 30 26
f 30 33 31
