# Created by Open3D 
# object name: Basket045_collision_0_2
# number of vertices: 34
# number of triangles: 64
v -0.138808 0.075068 0.0144321
v -0.126146 0.0941742 0.0144321
v -0.0787039 0.0452565 0.0144491
v -0.107755 0.1157 0.0144321
v -0.141704 0.06933 0.0144321
v -0.150852 0.0452565 0.0144321
v -0.0849268 0.132402 0.0144321
v -0.0787039 0.135992 0.0144321
v -0.115425 0.099571 0.00204133
v -0.134988 0.0639021 -0.00147705
v -0.141005 0.0452565 -0.00153225
v -0.141829 0.0452565 -0.00137686
v -0.0787039 0.1303 0.00222512
v -0.13086 0.0793793 0.00247778
v -0.12704 0.0796275 -0.00144396
v -0.119092 0.0913517 -0.00143766
v -0.143737 0.0495105 0.00130866
v -0.125641 0.0452565 -0.00157494
v -0.0787039 0.123364 -0.00158037
v -0.0787039 0.0452565 -0.00158451
v -0.0879459 0.119422 -0.00149911
v -0.0787039 0.126588 -0.00141961
v -0.0952779 0.119018 0.00246517
v -0.123897 0.0884051 0.00171202
v -0.145303 0.0452565 0.00160121
v -0.139701 0.0605213 0.00172936
v -0.11943 0.0891185 -0.00156371
v -0.083787 0.127145 0.0020303
v -0.0994368 0.115234 0.00211696
v -0.0951547 0.114893 -0.00131633
v -0.135542 0.06933 0.00180184
v -0.07932 0.126803 -0.00131949
v -0.107508 0.10748 0.00205551
v -0.103257 0.107139 -0.00138881
f 2 1 3
f 4 2 3
f 3 5 6
f 1 5 3
f 8 7 3
f 7 4 3
f 4 9 2
f 10 11 12
f 13 7 8
f 14 5 1
f 14 1 2
f 15 14 16
f 17 10 12
f 5 17 6
f 18 19 20
f 19 21 22
f 7 23 4
f 9 24 2
f 24 14 2
f 24 9 16
f 14 24 16
f 17 25 6
f 25 17 12
f 26 17 5
f 17 26 10
f 27 18 11
f 18 27 19
f 10 27 11
f 27 15 16
f 15 27 10
f 27 21 19
f 13 28 7
f 28 23 7
f 23 29 4
f 30 29 23
f 14 31 5
f 31 26 5
f 26 31 10
f 31 15 10
f 31 14 15
f 32 13 22
f 32 28 13
f 21 32 22
f 30 32 21
f 28 32 23
f 32 30 23
f 33 9 4
f 29 33 4
f 9 33 16
f 34 30 21
f 34 27 16
f 27 34 21
f 33 34 16
f 30 34 29
f 34 33 29
f 20 13 3
f 13 8 3
f 19 13 20
f 13 19 22
f 25 20 3
f 25 3 6
f 25 18 20
f 11 25 12
f 18 25 11
