# Created by Open3D 
# object name: Basket045_collision_7_0
# number of vertices: 34
# number of triangles: 64
v 0.131638 -0.0775445 0.0411385
v 0.118725 -0.0853659 0.0144778
v 0.118725 -0.145384 0.0644323
v 0.150671 -0.0775445 0.0644323
v 0.121259 -0.0775445 0.0144778
v 0.135285 -0.141279 0.0574936
v 0.158661 -0.11881 0.0644323
v 0.133894 -0.146083 0.0644323
v 0.131028 -0.142799 0.0539974
v 0.118725 -0.155189 0.0644323
v 0.130592 -0.138497 0.0466626
v 0.130722 -0.0990022 0.018551
v 0.137289 -0.0775445 0.0144778
v 0.149116 -0.0775445 0.0224705
v 0.174212 -0.0869165 0.0545842
v 0.17213 -0.0775445 0.0453176
v 0.168859 -0.0857992 0.0458583
v 0.123164 -0.142799 0.0460612
v 0.118725 -0.138816 0.0382081
v 0.118725 -0.13079 0.0303746
v 0.126237 -0.0942287 0.0144778
v 0.118725 -0.10113 0.0144778
v 0.162925 -0.0841498 0.0378854
v 0.150606 -0.111012 0.042252
v 0.176734 -0.0891664 0.0644323
v 0.181432 -0.0775445 0.0644323
v 0.177041 -0.0775445 0.0530137
v 0.158653 -0.115223 0.0578701
v 0.154703 -0.115147 0.0499926
v 0.118725 -0.118172 0.0230008
v 0.143584 -0.108184 0.0334748
v 0.162212 -0.0775445 0.0343172
v 0.13867 -0.103 0.0264579
v 0.155627 -0.0812158 0.0295238
f 1 2 3
f 4 1 3
f 1 5 2
f 6 7 8
f 10 9 8
f 6 9 11
f 9 6 8
f 12 13 14
f 16 15 17
f 9 18 11
f 18 9 10
f 18 10 19
f 18 19 11
f 19 20 11
f 21 12 22
f 12 21 13
f 23 16 17
f 24 23 17
f 25 15 26
f 15 27 26
f 27 15 16
f 28 25 7
f 25 28 15
f 6 28 7
f 15 29 17
f 29 24 17
f 28 29 15
f 24 29 11
f 29 6 11
f 29 28 6
f 12 30 22
f 20 30 12
f 31 24 11
f 20 31 11
f 31 23 24
f 23 32 16
f 33 20 12
f 33 31 20
f 33 12 14
f 32 34 14
f 34 32 23
f 34 33 14
f 31 34 23
f 33 34 31
f 21 22 2
f 13 21 5
f 5 21 2
f 4 25 26
f 25 4 3
f 10 25 3
f 7 25 8
f 25 10 8
f 30 10 3
f 2 30 3
f 10 30 19
f 22 30 2
f 30 20 19
f 32 4 26
f 32 1 4
f 13 32 14
f 32 5 1
f 32 13 5
f 27 32 26
f 32 27 16
