# Created by Open3D 
# object name: Basket045_collision_0_13
# number of vertices: 34
# number of triangles: 64
v 0.122435 0.0454233 0.0144591
v 0.0786569 0.136174 0.0144163
v 0.0786569 0.0454233 0.0144622
v 0.121346 0.0454233 -0.00157253
v 0.0786569 0.0454233 -0.00160808
v 0.103826 0.0982063 -0.00162043
v 0.0786569 0.110131 -0.00160927
v 0.144768 0.0613898 0.0144163
v 0.150768 0.0454233 0.0144163
v 0.0952925 0.126493 0.0144163
v 0.0786569 0.121365 -0.00152073
v 0.133986 0.0834735 0.0144163
v 0.131306 0.0876917 0.0144163
v 0.115702 0.1061 0.0144163
v 0.111127 0.0992609 0.00244469
v 0.079427 0.126927 0.00230131
v 0.119353 0.088188 0.00193104
v 0.119044 0.0835976 -0.00145814
v 0.127948 0.0653599 -0.00153693
v 0.137314 0.0454233 -0.00133059
v 0.134725 0.0555587 -0.00131633
v 0.0996979 0.104952 -0.00151802
v 0.0786569 0.123421 -0.00136188
v 0.0950769 0.110923 -0.00128325
v 0.139765 0.0454233 0.00072259
v 0.130782 0.0714081 0.00258965
v 0.112883 0.109124 0.0144163
v 0.0786569 0.12723 0.00216143
v 0.0882378 0.119794 0.00151507
v 0.0953541 0.115141 0.00240688
v 0.103025 0.102983 -0.00128483
v 0.14484 0.0454233 0.00679263
v 0.12382 0.0811783 0.0017845
v 0.103395 0.107387 0.00217053
f 1 2 3
f 4 5 6
f 5 7 6
f 8 1 9
f 1 10 2
f 7 11 6
f 12 13 1
f 8 12 1
f 13 14 1
f 14 13 15
f 10 16 2
f 13 17 15
f 17 18 15
f 4 19 20
f 19 21 20
f 21 19 18
f 19 4 6
f 18 19 6
f 22 11 23
f 24 22 23
f 11 22 6
f 22 18 6
f 21 25 20
f 26 12 8
f 21 26 8
f 26 21 18
f 12 26 13
f 27 10 1
f 14 27 1
f 16 28 2
f 28 16 23
f 29 10 30
f 29 16 10
f 16 29 23
f 29 24 23
f 24 29 30
f 22 31 18
f 31 22 24
f 18 31 15
f 32 25 21
f 32 8 9
f 32 21 8
f 17 33 18
f 33 26 18
f 33 17 13
f 26 33 13
f 10 34 30
f 27 34 10
f 31 34 15
f 34 14 15
f 34 27 14
f 34 24 30
f 34 31 24
f 28 5 3
f 2 28 3
f 11 28 23
f 28 7 5
f 28 11 7
f 32 1 3
f 5 32 3
f 1 32 9
f 4 32 5
f 32 4 20
f 25 32 20
