# Created by Open3D 
# object name: Basket045_collision_8_1
# number of vertices: 34
# number of triangles: 64
v 0.059101 -0.162695 0.0562132
v 0.118713 -0.140967 0.0562132
v 0.059101 -0.160073 0.077955
v 0.118713 -0.135722 0.0996968
v 0.059101 -0.158923 0.103744
v 0.0787985 -0.183653 0.079942
v 0.0799249 -0.182706 0.0691921
v 0.110997 -0.166458 0.0738443
v 0.059101 -0.189474 0.0880558
v 0.0793529 -0.182337 0.0900087
v 0.059101 -0.189813 0.0702207
v 0.0756411 -0.182324 0.0619431
v 0.059101 -0.184818 0.0562132
v 0.0765865 -0.179022 0.0562132
v 0.118713 -0.138272 0.107232
v 0.059101 -0.165253 0.109756
v 0.11402 -0.145798 0.109848
v 0.115001 -0.150711 0.109732
v 0.118713 -0.149824 0.105542
v 0.059101 -0.182846 0.106989
v 0.110729 -0.166232 0.0839004
v 0.107122 -0.166521 0.0939722
v 0.118713 -0.157961 0.0759785
v 0.118713 -0.156664 0.0867613
v 0.114989 -0.154665 0.105858
v 0.107799 -0.166821 0.0652022
v 0.107005 -0.16246 0.0562132
v 0.118713 -0.151093 0.0562132
v 0.118713 -0.135985 0.103708
v 0.0817663 -0.169651 0.109782
v 0.059101 -0.178681 0.109726
v 0.0776021 -0.176625 0.106018
v 0.118713 -0.155461 0.0652942
v 0.0962315 -0.167028 0.106415
f 2 1 3
f 4 2 3
f 5 4 3
f 6 7 8
f 9 6 10
f 6 9 11
f 7 6 11
f 13 12 11
f 12 7 11
f 12 13 14
f 16 15 5
f 15 16 17
f 15 18 19
f 18 15 17
f 20 9 10
f 21 22 10
f 21 6 8
f 6 21 10
f 21 23 24
f 23 21 8
f 19 25 24
f 25 21 24
f 21 25 22
f 18 25 19
f 27 26 14
f 26 12 14
f 12 26 7
f 7 26 8
f 28 26 27
f 5 29 4
f 15 29 5
f 30 18 17
f 30 16 31
f 16 30 17
f 20 30 31
f 32 20 10
f 32 30 20
f 26 33 8
f 33 26 28
f 33 23 8
f 22 34 10
f 34 32 10
f 25 34 22
f 34 25 18
f 30 34 18
f 32 34 30
f 28 13 1
f 28 1 2
f 13 28 14
f 28 27 14
f 16 20 31
f 1 20 3
f 20 5 3
f 20 13 11
f 13 20 1
f 20 16 5
f 9 20 11
f 33 28 2
f 4 33 2
f 23 33 24
f 33 19 24
f 29 33 4
f 33 15 19
f 33 29 15
