# Created by Open3D 
# object name: Basket045_collision_0_7
# number of vertices: 34
# number of triangles: 64
v 0.0786569 -0.108235 -0.0015508
v 0.0786569 -0.0794907 -0.00156151
v -2.351e-05 -0.0794907 -0.00158137
v -2.351e-05 -0.136074 -0.00155996
v -2.351e-05 -0.157584 0.0144696
v -2.351e-05 -0.0794907 0.0144706
v 0.00807866 -0.158486 0.0144762
v 0.0786569 -0.0794907 0.0144762
v -2.351e-05 -0.153202 0.0065239
v 0.0178444 -0.147754 0.00123934
v 0.0286884 -0.146792 0.00226035
v 0.0786569 -0.119441 -0.00152544
v -2.351e-05 -0.143006 -0.00151865
v 0.0228967 -0.142977 -0.00147547
v -2.351e-05 -0.146659 -0.00132924
v -2.351e-05 -0.150103 0.00234856
v 0.033679 -0.153988 0.0144762
v 0.0409186 -0.143132 0.00186171
v 0.0471416 -0.138356 -0.00122022
v 0.0523479 -0.139162 0.0020366
v 0.0557367 -0.134727 -0.00131949
v 0.0595875 -0.146606 0.0144762
v 0.0716637 -0.130943 0.0022761
v 0.0786569 -0.122438 -0.0012074
v 0.0786569 -0.126304 0.0023066
v 0.0680902 -0.127221 -0.00147547
v 0.00416621 -0.146637 -0.00131633
v 0.0366365 -0.153213 0.0144762
v 0.0786569 -0.132199 0.00923444
v 0.0618056 -0.145459 0.0144762
v 0.0786569 -0.136078 0.0144762
v 0.0614051 -0.135223 0.00184122
v 0.0444614 -0.138728 -0.00134627
v 0.0257309 -0.142915 -0.00143609
f 2 1 3
f 1 4 3
f 6 5 7
f 8 6 7
f 5 9 7
f 10 11 7
f 12 13 4
f 12 4 1
f 13 14 15
f 12 14 13
f 9 16 7
f 16 10 7
f 11 17 7
f 19 18 11
f 20 19 21
f 20 18 19
f 18 20 22
f 23 24 25
f 24 23 21
f 26 12 24
f 26 24 21
f 26 14 12
f 14 27 15
f 27 16 15
f 16 27 10
f 28 18 22
f 28 17 11
f 18 28 11
f 29 23 25
f 23 30 22
f 30 29 31
f 29 30 23
f 20 32 22
f 32 23 22
f 32 20 21
f 23 32 21
f 33 26 21
f 26 33 14
f 19 33 21
f 27 34 10
f 34 27 14
f 34 19 11
f 10 34 11
f 34 33 19
f 33 34 14
f 6 8 3
f 8 2 3
f 4 16 3
f 16 6 3
f 16 13 15
f 16 5 6
f 16 9 5
f 13 16 4
f 8 29 2
f 29 1 2
f 29 12 1
f 31 29 8
f 24 29 25
f 12 29 24
f 30 31 8
f 30 8 7
f 30 28 22
f 17 30 7
f 28 30 17
