# Created by Open3D 
# object name: Basket045_collision_0_11
# number of vertices: 34
# number of triangles: 64
v 0.0786569 -0.136078 0.0144762
v 0.150877 -0.0453272 0.0144762
v 0.0786569 -0.0453272 0.0144743
v 0.1078 -0.115714 0.0144762
v 0.126192 -0.0941885 0.0144762
v 0.107091 -0.0991511 -0.00138252
v 0.138526 -0.0453272 -0.000736755
v 0.135126 -0.0602255 0.00213272
v 0.137876 -0.0453272 -0.00131385
v 0.0879297 -0.115063 -0.00140615
v 0.0786569 -0.119441 -0.00152544
v 0.0786569 -0.122438 -0.0012074
v 0.0786569 -0.126304 0.0023066
v 0.0835859 -0.123034 0.0023281
v 0.0860813 -0.131687 0.0144762
v 0.0923043 -0.115497 0.00154658
v 0.135108 -0.0453272 -0.00145367
v 0.123789 -0.072322 -0.0014156
v 0.134756 -0.0517581 -0.00131633
v 0.138792 -0.051665 0.00248093
v 0.122895 -0.0833018 0.00249826
v 0.104966 -0.0995233 -0.00154638
v 0.0786569 -0.108235 -0.0015508
v 0.131118 -0.0453272 -0.00152363
v 0.0786569 -0.132199 0.00923444
v 0.103117 -0.10706 0.0025282
v 0.141718 -0.0693133 0.0144762
v 0.139808 -0.0733765 0.0144762
v 0.138761 -0.0752375 0.0144762
v 0.123604 -0.0811926 0.00189795
v 0.104653 -0.0453272 -0.00156668
v 0.0786569 -0.0453272 -0.00157425
v 0.0839248 -0.133145 0.0144762
v 0.11889 -0.0832087 -0.00130531
f 1 2 3
f 5 4 6
f 7 8 9
f 11 10 12
f 14 13 12
f 15 14 4
f 14 16 4
f 16 10 6
f 16 14 12
f 10 16 12
f 18 17 9
f 8 19 9
f 19 18 9
f 20 7 2
f 7 20 8
f 21 5 6
f 10 22 6
f 22 10 11
f 23 22 11
f 17 22 24
f 22 17 18
f 25 13 14
f 4 26 6
f 26 16 6
f 16 26 4
f 27 20 2
f 27 28 8
f 20 27 8
f 21 29 5
f 28 30 8
f 29 30 28
f 30 29 21
f 31 23 32
f 31 22 23
f 22 31 24
f 25 33 1
f 15 33 14
f 33 25 14
f 34 21 6
f 34 30 21
f 22 34 6
f 34 22 18
f 30 34 8
f 34 19 8
f 19 34 18
f 32 25 3
f 25 1 3
f 23 25 32
f 25 11 12
f 25 23 11
f 13 25 12
f 31 32 3
f 2 31 3
f 17 31 9
f 7 31 2
f 31 7 9
f 31 17 24
f 29 33 5
f 1 33 2
f 33 4 5
f 33 27 2
f 33 15 4
f 27 33 28
f 33 29 28
