# Created by Open3D 
# object name: Basket045_collision_13_1
# number of vertices: 34
# number of triangles: 64
v -0.161967 -0.0599212 0.0557005
v -0.184255 -4.559e-05 0.0557005
v -0.161771 -0.0599212 0.0797048
v -0.184799 -4.559e-05 0.101729
v -0.198422 -0.0129632 0.0656122
v -0.194155 -0.0475898 0.0699974
v -0.199742 -0.00991546 0.0759806
v -0.191756 -0.0471912 0.0627321
v -0.189889 -0.0416116 0.0557005
v -0.192487 -4.559e-05 0.0557005
v -0.194348 -0.0118965 0.0564968
v -0.184172 -0.0599212 0.0557005
v -0.198245 -0.00716081 0.0656653
v -0.198446 -4.559e-05 0.072774
v -0.189661 -0.0599212 0.0683587
v -0.19004 -0.0599212 0.0762131
v -0.197209 -4.559e-05 0.103635
v -0.194209 -0.00376145 0.109719
v -0.192149 -4.559e-05 0.109368
v -0.197111 -0.0118965 0.103709
v -0.194576 -0.0290457 0.106342
v -0.194215 -0.0399119 0.101941
v -0.19041 -0.0323513 0.109814
v -0.188296 -0.0599212 0.102612
v -0.186497 -0.0599212 0.106905
v -0.194712 -0.0454564 0.079941
v -0.189862 -0.0455619 0.107635
v -0.182813 -0.0599212 0.109809
v -0.199487 -0.00991546 0.0839015
v -0.162143 -0.0599212 0.103041
v -0.185723 -4.559e-05 0.106289
v -0.163365 -0.0599212 0.106547
v -0.168318 -0.0599212 0.109795
v -0.190031 -0.00295263 0.109708
f 1 2 3
f 2 4 3
f 5 6 7
f 5 8 6
f 10 9 11
f 8 9 12
f 9 5 11
f 9 8 5
f 10 13 14
f 14 13 7
f 13 5 7
f 13 10 11
f 5 13 11
f 15 16 6
f 15 8 12
f 8 15 6
f 17 18 19
f 18 17 20
f 22 21 20
f 18 21 23
f 21 18 20
f 22 24 25
f 6 26 7
f 26 24 22
f 24 26 16
f 16 26 6
f 27 22 25
f 27 21 22
f 21 27 23
f 28 27 25
f 27 28 23
f 26 29 7
f 29 26 22
f 29 22 20
f 17 29 20
f 29 17 14
f 29 14 7
f 31 30 4
f 32 30 31
f 4 30 3
f 33 32 31
f 28 33 23
f 34 31 19
f 34 33 31
f 18 34 19
f 34 18 23
f 33 34 23
f 9 1 12
f 1 9 2
f 9 10 2
f 31 17 19
f 17 4 2
f 10 17 2
f 17 10 14
f 17 31 4
f 1 33 12
f 33 1 3
f 24 33 25
f 33 28 25
f 33 15 12
f 15 33 16
f 33 24 16
f 30 33 3
f 33 30 32
