# Created by Open3D 
# object name: Basket045_collision_0_5
# number of vertices: 12
# number of triangles: 20
v -0.0787039 0.00039728 0.0144574
v -2.351e-05 0.0793877 0.0144494
v -2.351e-05 0.00039728 0.0144639
v -0.0733888 0.00039728 -0.00158198
v -0.0787039 0.0793877 -0.00158726
v -0.0787039 0.00039728 -0.00158089
v -0.0468363 0.0793877 -0.00159375
v -2.351e-05 0.0793877 -0.00160158
v -0.0787039 0.0793877 0.0144428
v -0.00070039 0.00039728 -0.00159413
v -2.351e-05 0.00104013 -0.0015943
v -2.351e-05 0.00039728 -0.0015942
f 2 1 3
f 5 4 6
f 7 4 5
f 8 4 7
f 9 1 2
f 10 8 11
f 8 10 4
f 12 10 11
f 8 2 3
f 8 12 11
f 12 8 3
f 8 9 2
f 9 8 7
f 9 7 5
f 1 9 6
f 9 5 6
f 10 12 3
f 10 1 6
f 1 10 3
f 4 10 6
