# Created by Open3D 
# object name: Basket045_collision_9_1
# number of vertices: 34
# number of triangles: 64
v 0.118713 -0.140957 0.0562132
v 0.118713 -0.0853666 0.0144778
v 0.059101 -0.134891 0.0353455
v 0.059101 -0.162686 0.0562132
v 0.059101 -0.116457 0.0144778
v 0.0839403 -0.133179 0.0144778
v 0.0868584 -0.138571 0.0186203
v 0.059101 -0.146755 0.0144778
v 0.107822 -0.115772 0.0144778
v 0.115013 -0.122962 0.0223828
v 0.118713 -0.118179 0.0229997
v 0.118713 -0.130793 0.0303737
v 0.118713 -0.101147 0.0144778
v 0.059101 -0.178419 0.0441969
v 0.059101 -0.182106 0.0498279
v 0.0754777 -0.174475 0.0460776
v 0.0670617 -0.154373 0.0226157
v 0.059101 -0.157595 0.0230131
v 0.0680189 -0.162739 0.0301163
v 0.0704701 -0.170185 0.0386791
v 0.059101 -0.173657 0.0384584
v 0.0759095 -0.178541 0.0538846
v 0.059101 -0.184819 0.0562132
v 0.0765865 -0.179022 0.0562132
v 0.103153 -0.162493 0.0501384
v 0.10362 -0.155154 0.0418534
v 0.107005 -0.16245 0.0562132
v 0.0955311 -0.143118 0.0261168
v 0.059101 -0.166882 0.0312956
v 0.0993364 -0.150842 0.0340505
v 0.107507 -0.159091 0.0497421
v 0.118713 -0.151088 0.0562132
v 0.118713 -0.138828 0.0382052
v 0.118713 -0.144937 0.0463186
f 1 2 3
f 4 1 3
f 2 5 3
f 6 7 8
f 7 6 9
f 10 7 9
f 10 11 12
f 13 10 9
f 11 10 13
f 15 14 16
f 7 17 8
f 17 18 8
f 18 17 19
f 20 14 21
f 14 20 16
f 22 15 16
f 15 22 23
f 22 24 23
f 26 25 16
f 25 22 16
f 24 25 27
f 22 25 24
f 28 17 7
f 10 28 7
f 29 18 19
f 29 20 21
f 20 29 19
f 30 20 19
f 30 26 16
f 20 30 16
f 17 30 19
f 28 30 17
f 30 10 12
f 30 28 10
f 31 32 27
f 25 31 27
f 31 25 26
f 33 31 26
f 33 30 12
f 30 33 26
f 31 34 32
f 33 34 31
f 5 6 8
f 6 5 2
f 13 6 2
f 6 13 9
f 32 4 23
f 4 32 1
f 24 32 23
f 32 24 27
f 5 29 3
f 29 4 3
f 4 29 23
f 29 5 8
f 14 29 21
f 29 15 23
f 29 14 15
f 18 29 8
f 34 13 2
f 1 34 2
f 11 34 12
f 34 11 13
f 32 34 1
f 34 33 12
