# Created by Open3D 
# object name: Basket045_collision_0_12
# number of vertices: 34
# number of triangles: 64
v 0.156906 -0.0177951 0.0144762
v 0.0786569 0.0454233 0.0144622
v 0.0786569 -0.0453272 0.0144743
v 0.150877 -0.0453272 0.0144762
v 0.150768 0.0454233 0.0144163
v 0.104653 -0.0453272 -0.00156668
v 0.0786569 -0.0453272 -0.00157425
v 0.0786569 0.0454233 -0.00160808
v 0.156197 -0.0217962 0.0144762
v 0.154349 0.0358943 0.0144163
v 0.147325 0.00590145 0.00167894
v 0.157337 0.00590145 0.0144163
v 0.13315 0.0454233 -0.00151074
v 0.143105 0.0122443 -0.00146444
v 0.143012 -0.0206796 -0.00151329
v 0.142735 0.0242011 -0.00136045
v 0.137314 0.0454233 -0.00133059
v 0.133113 -0.0453272 -0.00148865
v 0.142827 -0.0399718 0.00233912
v 0.144984 0.00196237 -0.00037569
v 0.157091 0.00987155 0.0144163
v 0.146955 0.0138417 0.00194994
v 0.112677 0.0454233 -0.00158676
v 0.14484 0.0454233 0.00679263
v 0.140093 0.0454233 0.0010488
v 0.143074 0.0376002 0.00171833
v 0.138699 -0.0436318 -0.00131319
v 0.138201 -0.0453272 -0.0010253
v 0.145045 0.0138417 -3.062e-05
v 0.147171 0.00196237 0.00160331
v 0.146894 -0.0168646 0.00225719
v 0.143813 -0.0296744 0.00116528
v 0.144152 0.0256279 0.00042158
v 0.142889 0.0401436 0.00228083
f 1 2 3
f 4 1 3
f 1 5 2
f 6 7 8
f 9 1 4
f 10 5 1
f 1 11 12
f 13 14 15
f 14 13 16
f 13 17 16
f 18 6 15
f 19 9 4
f 14 20 15
f 11 21 12
f 21 1 12
f 21 10 1
f 21 22 10
f 22 21 11
f 23 13 15
f 23 6 8
f 6 23 15
f 10 24 5
f 25 24 10
f 25 26 17
f 17 26 16
f 18 27 28
f 27 18 15
f 28 27 4
f 27 19 4
f 29 14 16
f 29 20 14
f 20 29 11
f 22 29 16
f 29 22 11
f 30 31 15
f 20 30 15
f 30 20 11
f 30 11 1
f 31 30 1
f 19 32 9
f 9 32 1
f 32 31 1
f 31 32 15
f 32 27 15
f 27 32 19
f 33 22 16
f 22 33 10
f 26 33 16
f 33 26 10
f 34 25 10
f 26 34 10
f 34 26 25
f 7 2 8
f 2 7 3
f 7 18 3
f 18 4 3
f 6 18 7
f 18 28 4
f 2 24 8
f 5 24 2
f 24 23 8
f 13 24 17
f 24 25 17
f 23 24 13
