# https://github.com/mikedh/trimesh
v -0.11825958 0.25496826 0.23322779
v -0.11825958 0.24645630 0.23203766
v -0.11825958 0.33215955 0.22929120
v -0.11969432 0.33079761 0.23011515
v -0.12535778 0.32612821 0.23034403
v -0.13192739 0.32262614 0.23052710
v -0.22295809 0.21741836 0.23098487
v -0.33294252 -0.02714233 0.23125950
v -0.33294252 -0.02865016 0.23125950
v -0.28502965 -0.01746301 0.23167145
v -0.28525618 -0.02553721 0.23148838
v -0.27744061 -0.02261883 0.23116794
v -0.11825958 0.17515041 0.20429847
v -0.22699803 -0.00496259 0.21267515
v -0.22839502 -0.01138304 0.21153080
v -0.11825958 0.34271437 0.22503421
v -0.12505573 0.33444560 0.22892502
v -0.12173316 0.33079761 0.23011515
v -0.12837829 0.32928979 0.22979471
v -0.22231624 0.22495753 0.23075598
v -0.31055295 0.04226661 0.23025247
v -0.35499227 -0.01498239 0.22672784
v -0.38497084 -0.02865016 0.21642864
v -0.29983014 -0.02865016 0.23144260
v -0.36499771 -0.01498239 0.22398141
v -0.28895631 -0.02865016 0.23125950
v -0.28159380 -0.02865016 0.22942853
v -0.21823855 -0.02865016 0.19464013
v -0.16923073 -0.02865016 0.16081297
v -0.11825958 0.08769614 0.15229896
v -0.21487823 -0.02865016 0.19267184
v -0.20525034 -0.02865016 0.18635499
v -0.11825958 0.39359155 0.20164359
v -0.18259649 0.37141183 0.19244295
v -0.27192816 0.28244972 0.20155203
v -0.13000181 0.38999221 0.19999570
v -0.22730008 0.22495753 0.22938275
v -0.31251630 0.13502261 0.22150958
v -0.38077989 0.01055348 0.22027367
v -0.33498138 0.05501021 0.22507998
v -0.38085541 0.00500855 0.22031945
v -0.42042410 -0.02865016 0.20040768
v -0.38032681 -0.00068229 0.22013637
v -0.38417798 -0.00442757 0.21844271
v -0.39497632 -0.00496259 0.21432304
v -0.39554265 -0.01469055 0.21336177
v -0.15103213 -0.02865016 0.12771821
v -0.11825958 0.05841500 0.13073930
v -0.11825958 0.39777458 0.19889712
v -0.16107534 0.40108207 0.18118250
v -0.23118900 0.36041924 0.17042556
v -0.33954990 0.25934583 0.17967194
v -0.33573648 0.25560057 0.18250996
v -0.29224110 0.22247690 0.21157658
v -0.27204144 0.20268051 0.22082296
v -0.38213912 0.12174396 0.20136893
v -0.40260309 0.01264499 0.21093574
v -0.40286738 0.00500855 0.21111885
v -0.40788901 0.00500855 0.20837238
v -0.42042410 -0.02826104 0.20040768
v -0.43220413 -0.00496259 0.19212255
v -0.45010066 -0.02865016 0.17024246
v -0.14903104 -0.02865016 0.12272881
v -0.11825958 0.05170272 0.12538370
v -0.11825958 0.05325919 0.12684849
v -0.11825958 0.39806640 0.19866824
v -0.11825958 0.42019749 0.17999238
v -0.14068688 0.44028571 0.14039767
v -0.18516393 0.41402024 0.14529550
v -0.19203560 0.41246378 0.14213708
v -0.23069817 0.39072180 0.14076385
v -0.23787189 0.35725766 0.16804528
v -0.29061759 0.34067151 0.14058077
v -0.32240847 0.31211996 0.14195397
v -0.37145406 0.29237223 0.10272548
v -0.37145406 0.26284790 0.13220409
v -0.40124387 0.19134745 0.15142924
v -0.43076938 0.10097479 0.16168267
v -0.40097958 0.10126663 0.19116127
v -0.40026221 0.08049746 0.20022458
v -0.45062923 -0.02865016 0.16955584
v -0.43148676 0.00136057 0.19143593
v -0.43216637 0.04231524 0.18150291
v -0.46105003 0.02188654 0.15142924
v -0.46127656 0.01502834 0.15174967
v -0.12886912 -0.02865016 -0.00511860
v -0.11825958 0.04255845 0.11366551
v -0.11825958 0.04323940 0.11490142
v -0.11825958 0.04834658 0.12185910
v -0.11825958 0.04951392 0.12309501
v -0.11825958 0.42146212 0.17788675
v -0.12501797 0.44218266 0.14245752
v -0.13502342 0.44120985 0.14145046
v -0.11825958 0.45463443 0.10501419
v -0.13902560 0.45979026 0.06898987
v -0.26045021 0.41017771 0.07050042
v -0.19063860 0.42024612 0.13110548
v -0.26082778 0.40059566 0.09082418
v -0.27000257 0.39996338 0.07992991
v -0.32093599 0.34072015 0.10094028
v -0.44043502 0.19076377 0.07077507
v -0.45149764 0.15160877 0.10304590
v -0.44964761 0.14956591 0.10972893
v -0.27128631 0.40156847 0.07324687
v -0.36171290 0.31177950 0.02495507
v -0.36669675 0.30628318 0.02495507
v -0.37096322 0.30127329 0.02495507
v -0.37526745 0.29499876 0.02495507
v -0.47116876 0.15146285 0.03296556
v -0.43205309 0.15277612 0.13238716
v -0.47045135 -0.02865016 0.14044344
v -0.48064560 0.03166313 0.10094028
v -0.48140073 -0.02865016 0.12167601
v -0.46003062 0.07008855 0.13000691
v -0.46384400 0.06503001 0.12497175
v -0.12796296 -0.02865016 -0.01496006
v -0.11825958 0.04051557 -0.00498127
v -0.11825958 0.44198811 0.14323565
v -0.11825958 0.44403100 0.13737658
v -0.11825958 0.46368146 0.06496174
v -0.11825958 0.46514064 0.05818715
v -0.11825958 0.46718350 0.04839147
v -0.11825958 0.46791309 0.04482108
v -0.14091341 0.46037394 0.06230684
v -0.26045021 0.41017771 0.06496174
v -0.26547182 0.40687019 0.06496174
v -0.26520753 0.40516782 0.07521517
v -0.26309317 0.40205488 0.08496507
v -0.25765625 0.40881580 0.07718346
v -0.14208387 0.46086031 0.05498296
v -0.14344309 0.46154130 0.04495841
v -0.21502925 0.43576223 -0.07497007
v -0.22341117 0.43191969 -0.07497007
v -0.45183745 0.17276707 0.06496174
v -0.46089900 0.16177449 0.05205341
v -0.45278138 0.14577201 0.10583812
v -0.45085579 0.14290226 0.11082751
v -0.27151284 0.40186030 0.06496174
v -0.30681509 0.37666494 -0.08499462
v -0.30809879 0.36805570 0.02495507
v -0.31293163 0.36304578 0.02495507
v -0.32267278 0.35283142 0.02495507
v -0.33245170 0.34256846 0.02495507
v -0.35695559 0.31678939 0.02495507
v -0.37028360 0.31036893 -0.08893120
v -0.36061797 0.32063192 -0.08792417
v -0.47128201 0.15141422 0.02495507
v -0.49231231 0.11323201 -0.05496673
v -0.47441578 0.14504240 0.02495507
v -0.47226369 0.14572337 0.03575778
v -0.48177829 0.03501928 0.09521850
v -0.48729074 -0.01498239 0.09498963
v -0.48170277 -0.02865016 0.12053165
v -0.12864259 -0.02865016 -0.02498461
v -0.11825958 0.07213141 -0.11497673
v -0.11825958 0.04139109 -0.01477696
v -0.11825958 0.46825358 0.03511694
v -0.12501797 0.46689165 0.03497962
v -0.13502342 0.46421647 0.04495841
v -0.29012674 0.39004084 -0.08041719
v -0.22839502 0.42890400 -0.07497007
v -0.29012674 0.39004084 -0.07977635
v -0.30183125 0.38148025 -0.08499462
v -0.13502342 0.46455696 0.03497962
v -0.15023924 0.46008211 -0.06952293
v -0.15023924 0.46008211 -0.07039264
v -0.19501835 0.44315547 -0.07497007
v -0.21502925 0.43459487 -0.08499462
v -0.22254278 0.43138462 -0.08499462
v -0.22752662 0.42841762 -0.08499462
v -0.48045683 0.07242325 0.07104971
v -0.31161016 0.37170368 -0.08499462
v -0.30609772 0.37603259 -0.09497340
v -0.31108156 0.37102270 -0.09497340
v -0.32599533 0.35594440 -0.09497340
v -0.33592528 0.34582731 -0.09497340
v -0.34581745 0.33571023 -0.09497340
v -0.36054245 0.32058328 -0.09497340
v -0.37028360 0.31036893 -0.09218118
v -0.49159497 0.11225921 -0.06499128
v -0.49438894 0.10501189 -0.06499128
v -0.49461547 0.10501189 -0.05496673
v -0.49148169 0.11362112 -0.04498795
v -0.40033770 0.26051319 -0.10225150
v -0.41128707 0.24212736 -0.10499796
v -0.41547805 0.23497730 -0.10499796
v -0.47879553 0.13424438 0.01415235
v -0.47679442 0.13502261 0.02495507
v -0.48442125 0.03501928 0.08496507
v -0.49389809 -0.02495354 0.06496174
v -0.48306203 -0.02865016 0.11517607
v -0.49476647 0.02504814 0.04495841
v -0.13381521 -0.02865016 -0.09497340
v -0.11825958 0.07500117 -0.12161400
v -0.11825958 0.46810764 -0.06499128
v -0.12501797 0.46703759 -0.06499128
v -0.24093014 0.42053798 -0.08261436
v -0.29503509 0.38483638 -0.09497340
v -0.30107611 0.38084793 -0.09497340
v -0.13502342 0.46470287 -0.06499128
v -0.13502342 0.46416783 -0.07497007
v -0.14499111 0.46110353 -0.07423767
v -0.19905829 0.43965340 -0.08796994
v -0.21593541 0.43216288 -0.09584311
v -0.21989983 0.42992544 -0.09973392
v -0.22110803 0.43060642 -0.09309666
v -0.22469489 0.42788258 -0.09584311
v -0.26977605 0.39981744 -0.09881844
v -0.30043426 0.38031292 -0.10156489
v -0.30972233 0.36970943 -0.10861412
v -0.32036963 0.36037061 -0.10193108
v -0.33033732 0.35035080 -0.10183953
v -0.34966862 0.32967892 -0.10801905
v -0.35491675 0.32491222 -0.10444866
v -0.35959855 0.31961048 -0.10751554
v -0.36631918 0.31421149 -0.09529382
v -0.36352521 0.31576794 -0.10449444
v -0.36979279 0.30973661 -0.09886421
v -0.49038675 0.11084866 -0.07080461
v -0.50122285 0.05199456 -0.12298723
v -0.41306162 0.23585282 -0.11561757
v -0.41219324 0.23371267 -0.12495552
v -0.41106054 0.23181573 -0.13182166
v -0.50163817 0.05520478 -0.11438167
v -0.50394130 0.04503907 -0.11497673
v -0.49065104 0.11269697 -0.03679436
v -0.50382805 0.04503907 -0.10499796
v -0.39199355 0.27315950 -0.10499796
v -0.39750600 0.26430708 -0.10536415
v -0.40279189 0.25584376 -0.10536415
v -0.40822881 0.24713725 -0.10499796
v -0.41060746 0.24096000 -0.11273380
v -0.49537060 -0.02495354 0.05498296
v -0.49359605 -0.02865016 0.06496174
v -0.49827784 -0.00496259 0.02495507
v -0.49635226 -0.01498239 0.04495841
v -0.13468361 -0.02865016 -0.10499796
v -0.11825958 0.07553619 -0.12257526
v -0.11825958 0.46737808 -0.07497007
v -0.12501797 0.46635664 -0.07497007
v -0.12501797 0.46450830 -0.08499462
v -0.13577855 0.46183312 -0.08558968
v -0.13962971 0.45983890 -0.08934317
v -0.14499111 0.45876884 -0.08558968
v -0.28034785 0.39018679 -0.11030777
v -0.29937708 0.37953466 -0.10824793
v -0.29563919 0.38264760 -0.10495218
v -0.18969470 0.43989658 -0.09964237
v -0.21321695 0.43109280 -0.10234305
v -0.20857289 0.41941926 -0.12907520
v -0.21246181 0.42121893 -0.12239216
v -0.21548232 0.41796008 -0.12541327
v -0.22250502 0.42136484 -0.11245915
v -0.26988932 0.37992376 -0.13987792
v -0.27993253 0.37992376 -0.12985337
v -0.28978693 0.37982649 -0.11973725
v -0.30281290 0.37257916 -0.11497673
v -0.30779675 0.36790976 -0.11497673
v -0.35208502 0.32189655 -0.12284990
v -0.36197719 0.31216860 -0.12321610
v -0.35876790 0.31883225 -0.11497673
v -0.32969546 0.34971851 -0.10852257
v -0.33970091 0.33969870 -0.10833947
v -0.36344969 0.31382236 -0.11497673
v -0.36933970 0.30900702 -0.10499796
v -0.37753284 0.29606885 -0.10499796
v -0.38066661 0.29110759 -0.10499796
v -0.49880642 0.04503907 -0.12921253
v -0.50182694 0.04503907 -0.12422313
v -0.40898395 0.22797319 -0.13850468
v -0.39977136 0.21950987 -0.15969816
v -0.40985233 0.23979264 -0.11941683
v -0.40913495 0.23867394 -0.12495552
v -0.37088770 0.30141923 -0.12156823
v -0.40007341 0.25010428 -0.13012800
v -0.40679407 0.23507459 -0.13507164
v -0.39999789 0.23001605 -0.15003979
v -0.50118506 0.03793767 -0.12262103
v -0.50178921 0.03477608 -0.11456477
v -0.50288415 0.03501928 -0.10499796
v -0.50299740 0.03501928 -0.09497340
v -0.49880642 -0.00496259 0.01497629
v -0.38021356 0.29032934 -0.11117747
v -0.39980912 0.25973496 -0.10893454
v -0.39920503 0.25866488 -0.11497673
v -0.40226328 0.25370362 -0.11497673
v -0.49571040 -0.02495354 0.04495841
v -0.49453998 -0.02865016 0.05498296
v -0.49737167 -0.01498239 0.03497962
v -0.13687348 -0.02865016 -0.11497673
v -0.11825958 0.08171344 -0.12834281
v -0.11825958 0.46611345 -0.08174465
v -0.11825958 0.46548110 -0.08499462
v -0.12501797 0.46178448 -0.09405792
v -0.13298458 0.46095762 -0.09218118
v -0.29273194 0.38162619 -0.11305422
v -0.29563919 0.37797821 -0.11584645
v -0.20509931 0.43230879 -0.10540992
v -0.15896098 0.44967318 -0.09913886
v -0.15231586 0.45069462 -0.10133602
v -0.20849739 0.42948771 -0.10902609
v -0.20513707 0.42243493 -0.12541327
v -0.20189002 0.42058662 -0.13081461
v -0.20313598 0.41129643 -0.14157155
v -0.20981887 0.40988588 -0.13987792
v -0.21502925 0.41280425 -0.13337797
v -0.25818482 0.35905731 -0.16899031
v -0.26501873 0.36693698 -0.15667707
v -0.27041790 0.37019584 -0.15017712
v -0.27710080 0.36839616 -0.14839193
v -0.28223565 0.37141183 -0.14170888
v -0.28536946 0.37360060 -0.13525471
v -0.27596810 0.37875643 -0.13589555
v -0.21502925 0.40857261 -0.13836735
v -0.28891855 0.36912575 -0.13873357
v -0.29156148 0.37126589 -0.13209629
v -0.30069855 0.37058496 -0.12088161
v -0.31096828 0.36085701 -0.12129358
v -0.33150777 0.34140110 -0.12207174
v -0.35597393 0.31591386 -0.12637451
v -0.33936110 0.32938707 -0.12912098
v -0.35302892 0.31280091 -0.13498008
v -0.35990059 0.30988252 -0.12989914
v -0.36545080 0.30565089 -0.12573367
v -0.36843354 0.30779102 -0.11497673
v -0.37175611 0.30278113 -0.11497673
v -0.40101734 0.13273655 -0.19096196
v -0.40218776 0.12500283 -0.19215208
v -0.39743048 0.11503167 -0.19819427
v -0.39829886 0.10501189 -0.19888088
v -0.40743592 0.05501021 -0.19819427
v -0.40819106 0.04503907 -0.19878933
v -0.40845534 0.03501928 -0.19897243
v -0.40845534 0.02504814 -0.19897243
v -0.40837982 -0.02495354 -0.19897243
v -0.40834206 -0.02865016 -0.19892666
v -0.41434532 -0.02865016 -0.19393727
v -0.41936696 -0.02865016 -0.18931407
v -0.42246297 -0.02865016 -0.18615565
v -0.43911356 -0.02865016 -0.16912764
v -0.44364432 -0.02865016 -0.16409248
v -0.44681585 -0.02865016 -0.16020167
v -0.44862816 -0.02865016 -0.15795875
v -0.40101734 0.21284622 -0.16116294
v -0.39761925 0.20501523 -0.16770864
v -0.38251668 0.20501523 -0.18244794
v -0.37889206 0.19708695 -0.18890211
v -0.38013804 0.19042329 -0.19013801
v -0.39807233 0.22495753 -0.15727213
v -0.38874650 0.23823617 -0.15837070
v -0.39097410 0.23157252 -0.16102561
v -0.39308849 0.22495753 -0.16303968
v -0.38969040 0.21936396 -0.16972271
v -0.39542937 0.21610509 -0.16541994
v -0.37957168 0.28935656 -0.11786051
v -0.36888662 0.29830629 -0.12825125
v -0.36012715 0.30020323 -0.14019832
v -0.35801277 0.29699302 -0.14688137
v -0.40143263 0.23400451 -0.14404336
v -0.36020264 0.29032934 -0.15026867
v -0.39437220 0.23415044 -0.15420523
v -0.50027895 0.02962027 -0.11094861
v -0.45066702 -0.02865016 -0.15480033
v -0.45183745 -0.02865016 -0.15296933
v -0.45878464 -0.02865016 -0.14175466
v -0.45991731 -0.02865016 -0.13987792
v -0.46172965 -0.02865016 -0.13671950
v -0.46274906 -0.02865016 -0.13488853
v -0.46724206 -0.02865016 -0.12495552
v -0.47056463 -0.02865016 -0.11525138
v -0.47116876 -0.02865016 -0.11342041
v -0.50069427 0.02884203 -0.10499796
v -0.49684310 -0.01498239 0.01497629
v -0.49763596 -0.01498239 0.02495507
v -0.49518180 -0.02495354 0.03497962
v -0.49435118 -0.02865016 0.04514150
v -0.13827047 -0.02865016 -0.11863867
v -0.11825958 0.13370934 -0.17100438
v -0.11825958 0.12826169 -0.16747978
v -0.11825958 0.12524602 -0.16537416
v -0.11825958 0.12067389 -0.16184953
v -0.11825958 0.11809598 -0.15965238
v -0.11825958 0.08672334 -0.13269135
v -0.11825958 0.46212497 -0.09543114
v -0.12501797 0.45954704 -0.09904730
v -0.13502342 0.45419669 -0.10499796
v -0.13577855 0.45862290 -0.09529382
v -0.18984573 0.42992544 -0.11987458
v -0.19501835 0.42914721 -0.11822671
v -0.20509931 0.42778531 -0.11465631
v -0.18316284 0.43094689 -0.12184287
v -0.19501835 0.42574245 -0.12495552
v -0.13502342 0.44821399 -0.11653306
v -0.12713233 0.44933271 -0.11868445
v -0.17689528 0.42914721 -0.12852591
v -0.17025015 0.43002272 -0.13003644
v -0.19501835 0.42155939 -0.13205051
v -0.19501835 0.41761959 -0.13708568
v -0.19501835 0.41260970 -0.14317366
v -0.19501835 0.40842667 -0.14820883
v -0.19026104 0.40006065 -0.16011012
v -0.19694394 0.39869875 -0.15859959
v -0.20502380 0.40142256 -0.15159613
v -0.20502380 0.39685041 -0.15658551
v -0.21808752 0.37899962 -0.16894454
v -0.25150195 0.36071110 -0.17077550
v -0.25780725 0.34898889 -0.17924374
v -0.26501873 0.35215050 -0.17224029
v -0.27079546 0.36046788 -0.16052210
v -0.26501873 0.36192709 -0.16212419
v -0.28227341 0.36173251 -0.15164188
v -0.28559598 0.36542913 -0.14546236
v -0.29273194 0.36246210 -0.14248705
v -0.33120573 0.32111832 -0.15104681
v -0.34166425 0.31148764 -0.15150458
v -0.29941481 0.35939780 -0.13914552
v -0.29548815 0.36542913 -0.13562092
v -0.29824439 0.36834753 -0.12756464
v -0.34442046 0.31445467 -0.14422646
v -0.35076356 0.31070942 -0.14106804
v -0.34830937 0.30832607 -0.14775109
v -0.35136765 0.30166242 -0.15159613
v -0.36178842 0.30258656 -0.13498008
v -0.39180475 0.15501356 -0.19169435
v -0.39369258 0.14504240 -0.19329643
v -0.39497632 0.13507125 -0.19517317
v -0.39614674 0.12500283 -0.19714147
v -0.39116290 0.12500283 -0.20066607
v -0.39240885 0.11503167 -0.20135269
v -0.39916727 0.09504074 -0.19947594
v -0.39969584 0.08842573 -0.19979638
v -0.40245208 0.05501021 -0.20135269
v -0.40316945 0.04503907 -0.20176467
v -0.40347150 0.03501928 -0.20190200
v -0.40339598 -0.02495354 -0.20190200
v -0.40649199 -0.02865016 -0.20002523
v -0.39112514 0.21270031 -0.17109594
v -0.37734407 0.20501523 -0.18743733
v -0.37236020 0.20501523 -0.19201475
v -0.38115746 0.18502429 -0.19105351
v -0.37983596 0.24976380 -0.15978971
v -0.38780260 0.22495753 -0.16807485
v -0.36873561 0.21819660 -0.18885633
v -0.37092546 0.21153295 -0.19082463
v -0.38104418 0.21201935 -0.18102893
v -0.47230142 -0.02865016 -0.10806483
v -0.47290552 -0.02865016 -0.10499796
v -0.49340725 -0.02865016 0.03497962
v -0.13928989 -0.02865016 -0.12124781
v -0.11825958 0.13507125 -0.17173678
v -0.16028246 -0.02865016 -0.15946928
v -0.11825958 0.46076304 -0.09840646
v -0.11965656 0.45993617 -0.09987124
v -0.12044944 0.45006230 -0.12014922
v -0.13472137 0.44276634 -0.12550481
v -0.13785514 0.43941021 -0.12921253
v -0.16500200 0.43075234 -0.13090616
v -0.18142605 0.41037226 -0.15045175
v -0.18486188 0.40633518 -0.15425101
v -0.18501291 0.40079021 -0.16097984
v -0.15503432 0.43211424 -0.13255402
v -0.15503432 0.42802849 -0.13758922
v -0.19094066 0.39038134 -0.17031777
v -0.19396117 0.39456433 -0.16450444
v -0.19762355 0.38882485 -0.16889876
v -0.20502380 0.39184052 -0.16198686
v -0.20502380 0.38712245 -0.16702202
v -0.21140464 0.38065338 -0.17059243
v -0.25116214 0.35039943 -0.18025079
v -0.25471124 0.34538954 -0.18231061
v -0.26501873 0.34174156 -0.18093738
v -0.27004033 0.33999056 -0.17997614
v -0.26501873 0.34675145 -0.17727545
v -0.27060670 0.35044807 -0.17040932
v -0.28891855 0.35905731 -0.14917007
v -0.31017542 0.34013647 -0.15008557
v -0.32074720 0.33065170 -0.15058908
v -0.33754879 0.30793694 -0.15818760
v -0.34132445 0.30122465 -0.16107139
v -0.34479803 0.30477536 -0.15489185
v -0.33788860 0.31819993 -0.14733911
v -0.34796956 0.29738212 -0.15827915
v -0.35948527 0.27928811 -0.15951505
v -0.38304529 0.17500450 -0.19265559
v -0.38734952 0.14504240 -0.19833159
v -0.38889754 0.13740596 -0.19933864
v -0.39021900 0.13074231 -0.20011678
v -0.38497084 0.12500283 -0.20396182
v -0.37326637 0.11503167 -0.21174344
v -0.38497084 0.11503167 -0.20542660
v -0.39331502 0.10501189 -0.20181045
v -0.39497632 0.07500117 -0.20368719
v -0.39497632 0.05501021 -0.20551816
v -0.39497632 0.06503001 -0.20460266
v -0.38414022 0.04503907 -0.21229273
v -0.37028360 0.04226661 -0.22012013
v -0.38844445 0.05501021 -0.20913431
v -0.37417251 0.04537955 -0.21778566
v -0.39497632 0.03501928 -0.20661673
v -0.37084997 -0.02495354 -0.22048631
v -0.40332046 -0.02865016 -0.20185623
v -0.36443138 0.20482066 -0.19727880
v -0.36707431 0.19504407 -0.19837737
v -0.37081221 0.26119414 -0.16075096
v -0.37579605 0.24611582 -0.16569456
v -0.37024584 0.23035653 -0.18020502
v -0.37840122 0.23770113 -0.16857836
v -0.36941522 0.24918012 -0.16949382
v -0.37175611 0.24251647 -0.17150789
v -0.34460926 0.26401526 -0.18231061
v -0.35174522 0.25496826 -0.18153247
v -0.35789952 0.23497730 -0.18816972
v -0.35080129 0.24115457 -0.19054997
v -0.36477119 0.23419908 -0.18267682
v -0.36205271 0.22296329 -0.19146547
v -0.36522424 0.21493773 -0.19306755
v -0.11825958 0.17549089 -0.19306755
v -0.16334073 -0.02865016 -0.16477910
v -0.11825958 0.45930386 -0.10156489
v -0.11825958 0.45020825 -0.12033232
v -0.11825958 0.44874904 -0.12239216
v -0.12501797 0.44101530 -0.13127235
v -0.12426284 0.44641432 -0.12408581
v -0.13121001 0.44028571 -0.13035688
v -0.17500746 0.41124779 -0.15150458
v -0.16500200 0.41256106 -0.15310666
v -0.15454349 0.41324201 -0.15553269
v -0.15752624 0.40935081 -0.15924042
v -0.17500746 0.40210351 -0.16244462
v -0.18501291 0.39612082 -0.16596922
v -0.14502886 0.42934179 -0.13919130
v -0.17500746 0.39719090 -0.16743401
v -0.13502342 0.41222060 -0.16212419
v -0.16500200 0.39821231 -0.16857836
v -0.18501291 0.39111093 -0.17082128
v -0.17840554 0.37968057 -0.17979303
v -0.17100528 0.35039943 -0.20020834
v -0.19501835 0.37666494 -0.17791629
v -0.21502925 0.36766654 -0.17855713
v -0.24500784 0.35166407 -0.18102893
v -0.23930663 0.33969870 -0.18981761
v -0.24500784 0.33843407 -0.18908522
v -0.24500784 0.33347282 -0.19206053
v -0.24130771 0.32077783 -0.20043722
v -0.25240809 0.33157587 -0.19087040
v -0.26501873 0.33498067 -0.18450779
v -0.28729501 0.32768470 -0.17800784
v -0.29488406 0.32486358 -0.17489520
v -0.29186356 0.33152723 -0.17132482
v -0.27366495 0.34383309 -0.17397970
v -0.31074175 0.29052392 -0.19022956
v -0.31738687 0.28789735 -0.18876478
v -0.32297483 0.29251814 -0.18212754
v -0.30851412 0.30871516 -0.17887756
v -0.27725181 0.34767562 -0.16793752
v -0.28533170 0.35526341 -0.15521228
v -0.32693925 0.31742170 -0.15772986
v -0.31969002 0.30973661 -0.16976848
v -0.32497591 0.30248928 -0.17214873
v -0.32576880 0.29553381 -0.17755011
v -0.32961994 0.28955111 -0.17970148
v -0.34011623 0.29013479 -0.17008892
v -0.35049924 0.29071847 -0.16043055
v -0.36873561 0.18696988 -0.19933864
v -0.38232791 0.14504240 -0.20121539
v -0.38534841 0.13443893 -0.20190200
v -0.37054789 0.13137463 -0.21027866
v -0.36499771 0.12500283 -0.21448991
v -0.37677771 0.12500283 -0.20831037
v -0.36499771 0.11503167 -0.21613777
v -0.35963631 0.10817347 -0.21979970
v -0.36412930 0.10491461 -0.21769410
v -0.37417251 0.10501189 -0.21224695
v -0.37915635 0.10501189 -0.20954630
v -0.36847129 0.06503001 -0.21915886
v -0.38176155 0.07500117 -0.21096528
v -0.36983055 0.04893026 -0.21989125
v -0.36431810 0.05501021 -0.22199687
v -0.36590385 0.04537955 -0.22185954
v -0.36499771 0.03501928 -0.22254616
v -0.37043464 0.03501928 -0.22021168
v -0.37541848 0.03501928 -0.21746522
v -0.36499771 0.00500855 -0.22272927
v -0.36499771 -0.00496259 -0.22277504
v -0.36499771 -0.02495354 -0.22286659
v -0.36499771 -0.02865016 -0.22282082
v -0.36869785 -0.02865016 -0.22126448
v -0.37073669 -0.02865016 -0.22039476
v -0.37390822 -0.02865016 -0.21860957
v -0.38130850 -0.02865016 -0.21439835
v -0.39497632 -0.02865016 -0.20661673
v -0.36069348 0.20136724 -0.20034567
v -0.35876790 0.20803089 -0.19943017
v -0.36209047 0.19504407 -0.20107806
v -0.35548308 0.27568880 -0.16541994
v -0.35250035 0.28497899 -0.16226152
v -0.33871925 0.27812079 -0.17883179
v -0.33203638 0.28288746 -0.18180710
v -0.33936110 0.25919992 -0.18958873
v -0.35291564 0.23497730 -0.19187742
v -0.33029956 0.27048433 -0.19018379
v -0.35525656 0.21566734 -0.19842315
v -0.11825958 0.18463516 -0.19769076
v -0.16605918 -0.02865016 -0.16889876
v -0.11825958 0.44155034 -0.13195896
v -0.11825958 0.43882653 -0.13534626
v -0.11825958 0.43410847 -0.14111382
v -0.11825958 0.42472100 -0.15255737
v -0.12501797 0.43688095 -0.13626176
v -0.12501797 0.43187106 -0.14225817
v -0.12501797 0.42768800 -0.14724755
v -0.15503432 0.41888422 -0.14862078
v -0.12501797 0.42267811 -0.15319821
v -0.15088111 0.41017771 -0.16024745
v -0.14502886 0.41095597 -0.16097984
v -0.11825958 0.41922471 -0.15914887
v -0.12501797 0.41343659 -0.16294813
v -0.15503432 0.39913648 -0.16935652
v -0.17500746 0.39218098 -0.17155367
v -0.11825958 0.41479850 -0.16294813
v -0.12501797 0.40696749 -0.16793752
v -0.16500200 0.36868799 -0.18908522
v -0.16500200 0.36367810 -0.19251826
v -0.16500200 0.39320242 -0.17219451
v -0.11825958 0.40759981 -0.16839525
v -0.22446835 0.32534999 -0.20226818
v -0.19256419 0.34101197 -0.20062032
v -0.23560649 0.34461132 -0.18771198
v -0.18274751 0.36110020 -0.19064152
v -0.18565476 0.36465091 -0.18771198
v -0.16500200 0.35599303 -0.19750765
v -0.16500200 0.35103178 -0.20052877
v -0.22907463 0.30973661 -0.20991248
v -0.22745112 0.32894933 -0.19933864
v -0.23500240 0.32729557 -0.19842315
v -0.23500240 0.32233432 -0.20139846
v -0.23500240 0.31498972 -0.20547238
v -0.23500240 0.30798557 -0.20904276
v -0.24478130 0.31508699 -0.20213085
v -0.25909099 0.32928979 -0.18963450
v -0.26501873 0.32714963 -0.18853593
v -0.28823894 0.30871516 -0.18931407
v -0.30300170 0.33250001 -0.16221574
v -0.29284522 0.30205154 -0.19100773
v -0.27713853 0.29786852 -0.19892666
v -0.30500278 0.28497899 -0.19512740
v -0.31444189 0.28473580 -0.19164857
v -0.32104924 0.28123373 -0.19054997
v -0.32535347 0.28541672 -0.18528596
v -0.32769439 0.27714798 -0.18844438
v -0.35499227 0.19504407 -0.20478576
v -0.37118977 0.17500450 -0.20062032
v -0.37496540 0.14504240 -0.20506042
v -0.37432355 0.13482806 -0.20757800
v -0.36114657 0.15287340 -0.21059909
v -0.33437726 0.18502429 -0.21769410
v -0.34004071 0.16016936 -0.22002858
v -0.35080129 0.13200694 -0.22039476
v -0.35721990 0.12500283 -0.21851802
v -0.35884342 0.11503167 -0.21938774
v -0.36080676 0.09504074 -0.22044054
v -0.36024040 0.10150982 -0.22012013
v -0.35385957 0.11503167 -0.22181377
v -0.37583381 0.09513802 -0.21229273
v -0.36258131 0.07500117 -0.22135603
v -0.36344969 0.06503001 -0.22172222
v -0.35499227 0.05501021 -0.22506374
v -0.35499227 0.04503907 -0.22547573
v -0.35499227 0.06503001 -0.22460601
v -0.35499227 0.03501928 -0.22565880
v -0.35499227 0.02504814 -0.22575036
v -0.35499227 -0.02495354 -0.22588769
v -0.36133534 -0.02865016 -0.22396517
v -0.35499227 -0.00496259 -0.22584191
v -0.34072036 0.20102677 -0.21032444
v -0.33498138 0.19504407 -0.21481031
v -0.32897809 0.18833178 -0.21961662
v -0.34732771 0.19504407 -0.20867658
v -0.35208502 0.21274894 -0.20094073
v -0.34442046 0.20462611 -0.20734912
v -0.32463610 0.27427822 -0.19151124
v -0.33769983 0.23702018 -0.19892666
v -0.34951758 0.21941260 -0.19975060
v -0.34570420 0.21566734 -0.20286325
v -0.32497591 0.26498803 -0.19476122
v -0.11825958 0.18838042 -0.19920132
v -0.16821130 -0.02865016 -0.17196566
v -0.12501797 0.41839784 -0.15818760
v -0.14876676 0.39972016 -0.16981426
v -0.15416592 0.36562371 -0.19256404
v -0.14502886 0.36499137 -0.19412038
v -0.11825958 0.40263855 -0.17178255
v -0.11825958 0.37296832 -0.19196898
v -0.14502886 0.35706311 -0.19874355
v -0.15503432 0.35161543 -0.20075762
v -0.16500200 0.34495181 -0.20277169
v -0.22239175 0.31041756 -0.21014136
v -0.19883175 0.27972588 -0.21993703
v -0.20502380 0.27369455 -0.22089830
v -0.21502925 0.27656430 -0.21920463
v -0.23500240 0.29499876 -0.21279624
v -0.25501329 0.27495921 -0.21540537
v -0.26501873 0.26498803 -0.21668705
v -0.27502418 0.25496826 -0.21792296
v -0.27502418 0.26498803 -0.21503919
v -0.24126995 0.30088419 -0.21037021
v -0.17500746 0.33498067 -0.20538083
v -0.24474356 0.30453217 -0.20739490
v -0.26501873 0.31498972 -0.19471544
v -0.25920424 0.28940520 -0.20968360
v -0.26501873 0.29499876 -0.20478576
v -0.27426904 0.28415209 -0.20679983
v -0.29952809 0.27962860 -0.19979638
v -0.28827667 0.26863602 -0.20931742
v -0.30330375 0.27296495 -0.20144424
v -0.29205233 0.26197237 -0.21091950
v -0.30998662 0.26990065 -0.19993371
v -0.33063939 0.18166813 -0.22030324
v -0.34109789 0.15501356 -0.22053209
v -0.35219830 0.12500283 -0.22108138
v -0.34498683 0.11503167 -0.22465178
v -0.35499227 0.08502094 -0.22341588
v -0.34498683 0.12500283 -0.22350743
v -0.34498683 0.10501189 -0.22524685
v -0.33135676 0.04503907 -0.23028201
v -0.32497591 0.03501928 -0.23183835
v -0.33724675 0.02504814 -0.22941229
v -0.33264047 0.00500855 -0.23055667
v -0.33766207 0.00500855 -0.22950384
v -0.33282924 -0.01498239 -0.23060241
v -0.34498683 0.00500855 -0.22794753
v -0.33282924 -0.02495354 -0.23060241
v -0.35499227 -0.02865016 -0.22584191
v -0.32018086 0.20029716 -0.22007436
v -0.32690150 0.19504407 -0.21860957
v -0.32187989 0.19504407 -0.22062364
v -0.30130264 0.25166076 -0.21059909
v -0.30481398 0.24441342 -0.21156034
v -0.30598444 0.26596084 -0.20322943
v -0.11825958 0.19139609 -0.20034567
v -0.17145835 -0.02865016 -0.17516986
v -0.11825958 0.38084793 -0.18665916
v -0.12501797 0.37233597 -0.19160280
v -0.11825958 0.36499137 -0.19608867
v -0.13502342 0.35725766 -0.19906399
v -0.15503432 0.34495181 -0.20309213
v -0.16500200 0.33498067 -0.20588434
v -0.21502925 0.31109852 -0.21032444
v -0.21502925 0.30496991 -0.21206388
v -0.20502380 0.31698394 -0.20913431
v -0.20502380 0.29499876 -0.21535960
v -0.19501835 0.29499876 -0.21586314
v -0.16500200 0.29499876 -0.21732789
v -0.18501291 0.28099051 -0.22025746
v -0.19532040 0.27583471 -0.22108138
v -0.20502380 0.26498803 -0.22282082
v -0.22503470 0.25496826 -0.22314122
v -0.26913419 0.24952060 -0.21989125
v -0.27502418 0.24733181 -0.21952507
v -0.28416124 0.24412158 -0.21865535
v -0.28502965 0.25496826 -0.21595466
v -0.28495413 0.26518261 -0.21215540
v -0.25252137 0.29183719 -0.21078220
v -0.24791509 0.29850084 -0.20922586
v -0.27041790 0.28026092 -0.21014136
v -0.26501873 0.28726506 -0.20863080
v -0.28159380 0.27116528 -0.21055332
v -0.29526162 0.25496826 -0.21220118
v -0.32539123 0.18502429 -0.22131026
v -0.33192310 0.17500450 -0.22085252
v -0.34309900 0.14504240 -0.22135603
v -0.33498138 0.11503167 -0.22662008
v -0.31980330 0.10938947 -0.22996157
v -0.33498138 0.14504240 -0.22373629
v -0.33498138 0.13502261 -0.22478911
v -0.32497591 0.17500450 -0.22277504
v -0.33498138 0.10501189 -0.22721514
v -0.31497046 0.05501021 -0.23316577
v -0.32497591 0.04503907 -0.23156369
v -0.31497046 0.04503907 -0.23344043
v -0.31497046 0.03501928 -0.23357776
v -0.32497591 0.02504814 -0.23192987
v -0.32497591 -0.00496259 -0.23220453
v -0.32497591 -0.01498239 -0.23225030
v -0.32497591 -0.02495354 -0.23225030
v -0.32497591 -0.02865016 -0.23220453
v -0.32995975 -0.02865016 -0.23115173
v -0.33773759 -0.02865016 -0.22950384
v -0.35132989 -0.02865016 -0.22662008
v -0.31051522 0.21070607 -0.22016591
v -0.31429085 0.20418835 -0.22057787
v -0.31497046 0.19504407 -0.22208843
v -0.29503509 0.24499710 -0.21549693
v -0.31497046 0.18502429 -0.22364473
v -0.11825958 0.19553047 -0.20144424
v -0.17330842 -0.02865016 -0.17695504
v -0.17833002 -0.02865016 -0.18153247
v -0.18388021 -0.02865016 -0.18652186
v -0.18705174 -0.02865016 -0.18935984
v -0.18890181 -0.02865016 -0.19100773
v -0.19505611 -0.02865016 -0.19645485
v -0.19905829 -0.02865016 -0.19997948
v -0.19954912 -0.02865016 -0.20039144
v -0.20219207 -0.02865016 -0.20245129
v -0.20449522 -0.02865016 -0.20414492
v -0.11825958 0.35720903 -0.19910976
v -0.12501797 0.35720903 -0.19910976
v -0.12501797 0.35224777 -0.20071185
v -0.11825958 0.34733516 -0.20226818
v -0.14502886 0.33498067 -0.20625055
v -0.14502886 0.32651734 -0.20890546
v -0.14502886 0.32150745 -0.21046177
v -0.14502886 0.31498972 -0.21247584
v -0.15503432 0.33498067 -0.20615900
v -0.15503432 0.32116696 -0.21032444
v -0.16322745 0.32053465 -0.21014136
v -0.16594592 0.31596249 -0.21133149
v -0.17500746 0.31951320 -0.20986670
v -0.20502380 0.30496991 -0.21256739
v -0.18501291 0.31367645 -0.21105683
v -0.15503432 0.29499876 -0.21746522
v -0.17500746 0.30496991 -0.21403214
v -0.15503432 0.30496991 -0.21499342
v -0.14502886 0.30496991 -0.21531382
v -0.17500746 0.28128237 -0.22030324
v -0.18501291 0.27495921 -0.22140181
v -0.19501835 0.26498803 -0.22309545
v -0.22503470 0.24499710 -0.22529262
v -0.24500784 0.23497730 -0.22565880
v -0.25501329 0.24499710 -0.22236305
v -0.25501329 0.23497730 -0.22451445
v -0.26501873 0.23497730 -0.22318700
v -0.28027233 0.24023041 -0.22002858
v -0.28695521 0.23716611 -0.21952507
v -0.29722497 0.22738951 -0.21952507
v -0.26501873 0.28225514 -0.21101105
v -0.32497591 0.11503167 -0.22849682
v -0.30500278 0.10501189 -0.23293692
v -0.31587663 0.10564420 -0.23087707
v -0.31497046 0.09504074 -0.23151791
v -0.32059616 0.10272582 -0.23009890
v -0.30500278 0.11503167 -0.23215875
v -0.32497591 0.16503334 -0.22382784
v -0.32497591 0.14504240 -0.22570458
v -0.31497046 0.17500450 -0.22474334
v -0.31497046 0.06503001 -0.23275381
v -0.30500278 0.09504074 -0.23330310
v -0.30500278 0.06503001 -0.23371509
v -0.31497046 0.02504814 -0.23366931
v -0.31497046 -0.01498239 -0.23398972
v -0.31497046 -0.02865016 -0.23408127
v -0.31497046 0.01502834 -0.23376083
v -0.32131356 -0.02865016 -0.23293692
v -0.30432317 0.21445134 -0.22057787
v -0.30500278 0.20501523 -0.22204265
v -0.30500278 0.19504407 -0.22369051
v -0.30500278 0.18502429 -0.22524685
v -0.28291526 0.17310755 -0.23046511
v -0.28956041 0.16921636 -0.22991583
v -0.30500278 0.17500450 -0.22652853
v -0.11825958 0.19835158 -0.20217663
v -0.20955457 -0.02865016 -0.20766953
v -0.11825958 0.32306391 -0.20995826
v -0.12501797 0.33498067 -0.20620477
v -0.13502342 0.32651734 -0.20890546
v -0.13502342 0.31498972 -0.21252161
v -0.15503432 0.31498972 -0.21210966
v -0.13502342 0.30496991 -0.21508497
v -0.14502886 0.29499876 -0.21700749
v -0.16873989 0.28074732 -0.22012013
v -0.12501797 0.31498972 -0.21247584
v -0.11825958 0.31498972 -0.21233851
v -0.18501291 0.26498803 -0.22236305
v -0.20502380 0.24499710 -0.22483489
v -0.20502380 0.25496826 -0.22433135
v -0.23500240 0.23497730 -0.22652853
v -0.24500784 0.22495753 -0.22762710
v -0.25501329 0.22495753 -0.22634542
v -0.25501329 0.21503501 -0.22799331
v -0.29503509 0.21503501 -0.22195110
v -0.31485718 0.12573242 -0.22936651
v -0.30587119 0.12573242 -0.23101440
v -0.29503509 0.13502261 -0.23211297
v -0.29503509 0.12500283 -0.23279959
v -0.29503509 0.11503167 -0.23321155
v -0.29503509 0.10501189 -0.23353198
v -0.30500278 0.05501021 -0.23380661
v -0.31134585 -0.02865016 -0.23426437
v -0.28502965 0.20501523 -0.22510952
v -0.29503509 0.19504407 -0.22520107
v -0.29503509 0.18502429 -0.22680315
v -0.28574699 0.16551974 -0.23092285
v -0.28502965 0.18502429 -0.22831371
v -0.27974373 0.17977118 -0.22991583
v -0.27306086 0.18288413 -0.23041934
v -0.27585483 0.17588001 -0.23096862
v -0.11825958 0.22539528 -0.20908853
v -0.21174444 -0.02865016 -0.20913431
v -0.11825958 0.23536643 -0.21160612
v -0.11825958 0.32145879 -0.21046177
v -0.12501797 0.32150745 -0.21046177
v -0.12501797 0.30496991 -0.21448991
v -0.13502342 0.29499876 -0.21618354
v -0.11825958 0.30496991 -0.21398640
v -0.16768271 0.27495921 -0.22025746
v -0.17500746 0.26498803 -0.22126448
v -0.18501291 0.25496826 -0.22250038
v -0.17500746 0.23497730 -0.22158492
v -0.22503470 0.22495753 -0.22726092
v -0.22503470 0.23497730 -0.22675738
v -0.23500240 0.22495753 -0.22794753
v -0.24500784 0.21503501 -0.22881722
v -0.26275337 0.19256344 -0.23032779
v -0.26943624 0.18954778 -0.22991583
v -0.27502418 0.19504407 -0.22822216
v -0.28502965 0.15501356 -0.23188409
v -0.28502965 0.14504240 -0.23238763
v -0.28502965 0.13502261 -0.23279959
v -0.27502418 0.15501356 -0.23225030
v -0.28502965 0.12500283 -0.23293692
v -0.30500278 -0.02865016 -0.23440167
v -0.27502418 0.16503334 -0.23197564
v -0.21491599 -0.02865016 -0.21059909
v -0.11825958 0.24499710 -0.21375751
v -0.11825958 0.29499876 -0.21430680
v -0.11825958 0.28497899 -0.21448991
v -0.16692759 0.26498803 -0.22034901
v -0.14502886 0.25496826 -0.21801451
v -0.16130188 0.25496826 -0.21984547
v -0.15503432 0.23497730 -0.21934196
v -0.18501291 0.22495753 -0.22277504
v -0.20502380 0.21503501 -0.22506374
v -0.23500240 0.21503501 -0.22835949
v -0.24500784 0.20501523 -0.22932073
v -0.25701439 0.19256344 -0.23032779
v -0.26501873 0.17500450 -0.23128903
v -0.26501873 0.16503334 -0.23138058
v -0.30137816 -0.02865016 -0.23403549
v -0.22174990 -0.02865016 -0.21366596
v -0.11825958 0.25496826 -0.21481031
v -0.22503470 -0.02865016 -0.21513075
v -0.23617284 -0.02865016 -0.22007436
v -0.24500784 -0.02865016 -0.22396517
v -0.25135091 -0.02865016 -0.22657430
v -0.25531533 -0.02865016 -0.22803906
v -0.11825958 0.26819825 -0.21476454
v -0.13502342 0.26498803 -0.21673283
v -0.12501797 0.25496826 -0.21572581
v -0.14502886 0.24499710 -0.21810606
v -0.18501291 0.21503501 -0.22282082
v -0.26139411 -0.02865016 -0.22982427
v -0.21502925 0.20501523 -0.22616231
v -0.25565514 0.18502429 -0.23046511
v -0.27117303 -0.02865016 -0.23087707
v -0.21502925 0.19504407 -0.22611657
v -0.11825958 0.26498803 -0.21481031
v -0.12501797 0.26498803 -0.21558848
v -0.19501835 0.20501523 -0.22391939
v -0.20502380 0.19504407 -0.22501796
f 1 2 13
f 1 13 30
f 1 30 48
f 1 48 65
f 1 65 64
f 1 64 90
f 1 90 89
f 1 89 88
f 1 88 87
f 1 87 117
f 1 117 156
f 1 156 155
f 1 155 194
f 1 194 238
f 1 238 291
f 1 291 383
f 1 383 382
f 1 382 381
f 1 381 380
f 1 380 379
f 1 379 378
f 1 378 450
f 1 450 517
f 1 517 603
f 1 603 686
f 1 686 740
f 1 740 795
f 1 795 861
f 1 861 897
f 1 897 899
f 1 899 924
f 1 924 940
f 1 940 956
f 1 956 946
f 1 946 926
f 1 926 925
f 1 925 904
f 1 904 872
f 1 872 900
f 1 900 863
f 1 863 809
f 1 809 806
f 1 806 744
f 1 744 693
f 1 693 742
f 1 742 692
f 1 692 625
f 1 625 620
f 1 620 616
f 1 616 608
f 1 608 607
f 1 607 606
f 1 606 605
f 1 605 521
f 1 521 520
f 1 520 519
f 1 519 452
f 1 452 384
f 1 384 293
f 1 293 292
f 1 292 239
f 1 239 195
f 1 195 157
f 1 157 123
f 1 123 122
f 1 122 121
f 1 121 120
f 1 120 94
f 1 94 119
f 1 119 118
f 1 118 91
f 1 91 67
f 1 67 66
f 1 66 49
f 1 49 33
f 1 33 16
f 1 16 3
f 1 3 4
f 1 4 5
f 1 5 6
f 1 6 7
f 1 7 8
f 1 8 9
f 1 9 10
f 1 10 11
f 1 11 12
f 1 12 2
f 2 12 14
f 2 14 15
f 2 15 13
f 3 16 4
f 4 16 17
f 4 17 18
f 4 18 6
f 4 6 5
f 6 18 19
f 6 19 20
f 6 20 7
f 7 20 8
f 8 21 22
f 8 22 9
f 8 20 21
f 9 23 42
f 9 42 62
f 9 62 81
f 9 81 111
f 9 111 113
f 9 113 153
f 9 153 191
f 9 191 234
f 9 234 288
f 9 288 376
f 9 376 448
f 9 448 447
f 9 447 446
f 9 446 371
f 9 371 370
f 9 370 369
f 9 369 368
f 9 368 367
f 9 367 366
f 9 366 365
f 9 365 364
f 9 364 363
f 9 363 343
f 9 343 342
f 9 342 341
f 9 341 340
f 9 340 339
f 9 339 338
f 9 338 337
f 9 337 336
f 9 336 436
f 9 436 501
f 9 501 591
f 9 591 590
f 9 590 589
f 9 589 588
f 9 588 587
f 9 587 586
f 9 586 673
f 9 673 733
f 9 733 789
f 9 789 788
f 9 788 787
f 9 787 786
f 9 786 853
f 9 853 851
f 9 851 888
f 9 888 921
f 9 921 938
f 9 938 954
f 9 954 951
f 9 951 945
f 9 945 944
f 9 944 943
f 9 943 942
f 9 942 941
f 9 941 939
f 9 939 923
f 9 923 898
f 9 898 862
f 9 862 805
f 9 805 804
f 9 804 803
f 9 803 802
f 9 802 801
f 9 801 800
f 9 800 799
f 9 799 798
f 9 798 797
f 9 797 796
f 9 796 741
f 9 741 687
f 9 687 604
f 9 604 518
f 9 518 451
f 9 451 449
f 9 449 377
f 9 377 290
f 9 290 237
f 9 237 193
f 9 193 154
f 9 154 116
f 9 116 86
f 9 86 63
f 9 63 47
f 9 47 29
f 9 29 32
f 9 32 31
f 9 31 28
f 9 28 27
f 9 27 26
f 9 26 24
f 9 24 10
f 9 22 25
f 9 25 23
f 10 24 11
f 11 24 26
f 11 26 12
f 12 26 27
f 12 27 28
f 12 28 15
f 12 15 14
f 13 15 29
f 13 29 30
f 15 28 31
f 15 31 32
f 15 32 29
f 16 33 17
f 17 34 35
f 17 35 19
f 17 19 18
f 17 33 36
f 17 36 34
f 19 35 37
f 19 37 20
f 20 37 38
f 20 38 39
f 20 39 40
f 20 40 21
f 21 40 22
f 22 41 25
f 22 40 39
f 22 39 41
f 23 25 43
f 23 43 44
f 23 44 45
f 23 45 46
f 23 46 42
f 25 41 43
f 29 47 30
f 30 47 48
f 33 49 36
f 34 36 50
f 34 50 51
f 34 51 52
f 34 52 35
f 35 52 53
f 35 53 54
f 35 54 37
f 36 49 50
f 37 54 55
f 37 55 38
f 38 56 39
f 38 55 54
f 38 54 56
f 39 57 58
f 39 58 41
f 39 56 57
f 41 58 45
f 41 45 44
f 41 44 43
f 42 46 45
f 42 45 58
f 42 58 59
f 42 59 60
f 42 60 61
f 42 61 62
f 47 63 64
f 47 64 65
f 47 65 48
f 49 66 50
f 50 66 67
f 50 67 68
f 50 68 69
f 50 69 70
f 50 70 71
f 50 71 51
f 51 71 72
f 51 72 52
f 52 72 73
f 52 73 74
f 52 74 75
f 52 75 76
f 52 76 77
f 52 77 56
f 52 56 53
f 53 56 54
f 56 78 79
f 56 79 80
f 56 80 57
f 56 77 78
f 57 61 59
f 57 59 58
f 57 80 61
f 59 61 60
f 61 81 62
f 61 80 82
f 61 82 83
f 61 83 84
f 61 84 85
f 61 85 81
f 63 86 87
f 63 87 88
f 63 88 89
f 63 89 90
f 63 90 64
f 67 91 92
f 67 92 93
f 67 93 68
f 68 93 94
f 68 94 95
f 68 95 96
f 68 96 97
f 68 97 69
f 69 97 70
f 70 97 71
f 71 97 98
f 71 98 73
f 71 73 72
f 73 98 74
f 74 98 99
f 74 99 100
f 74 100 75
f 75 101 102
f 75 102 103
f 75 103 76
f 75 100 99
f 75 99 104
f 75 104 105
f 75 105 106
f 75 106 107
f 75 107 108
f 75 108 109
f 75 109 101
f 76 103 77
f 77 103 110
f 77 110 78
f 78 110 103
f 78 103 84
f 78 84 83
f 78 83 80
f 78 80 79
f 80 83 82
f 81 85 111
f 84 112 113
f 84 113 85
f 84 103 114
f 84 114 115
f 84 115 112
f 85 113 111
f 86 116 87
f 87 116 117
f 91 118 92
f 92 118 119
f 92 119 94
f 92 94 93
f 94 120 95
f 95 120 121
f 95 121 122
f 95 122 123
f 95 123 124
f 95 124 96
f 96 125 126
f 96 126 104
f 96 104 127
f 96 127 128
f 96 128 129
f 96 129 97
f 96 124 130
f 96 130 131
f 96 131 132
f 96 132 133
f 96 133 125
f 97 129 98
f 98 129 128
f 98 128 99
f 99 128 127
f 99 127 104
f 101 109 134
f 101 134 102
f 102 134 135
f 102 135 109
f 102 109 136
f 102 136 103
f 103 136 137
f 103 137 114
f 104 126 138
f 104 138 139
f 104 139 140
f 104 140 141
f 104 141 142
f 104 142 143
f 104 143 144
f 104 144 105
f 105 145 106
f 105 144 146
f 105 146 145
f 106 145 107
f 107 145 108
f 108 145 109
f 109 147 148
f 109 148 149
f 109 149 150
f 109 150 136
f 109 135 134
f 109 145 147
f 112 151 152
f 112 152 113
f 112 115 136
f 112 136 151
f 113 152 153
f 114 137 136
f 114 136 115
f 116 154 155
f 116 155 156
f 116 156 117
f 123 157 158
f 123 158 159
f 123 159 124
f 124 159 130
f 125 160 126
f 125 133 161
f 125 161 160
f 126 160 162
f 126 162 163
f 126 163 138
f 130 159 131
f 131 159 164
f 131 164 165
f 131 165 132
f 132 165 166
f 132 166 167
f 132 167 168
f 132 168 169
f 132 169 133
f 133 169 170
f 133 170 161
f 136 150 171
f 136 171 151
f 138 163 139
f 139 172 140
f 139 163 173
f 139 173 174
f 139 174 175
f 139 175 176
f 139 176 177
f 139 177 178
f 139 178 172
f 140 172 141
f 141 172 146
f 141 146 142
f 142 146 143
f 143 146 144
f 145 146 179
f 145 179 147
f 146 172 178
f 146 178 179
f 147 179 148
f 148 180 181
f 148 181 182
f 148 182 183
f 148 183 149
f 148 179 184
f 148 184 185
f 148 185 186
f 148 186 180
f 149 187 188
f 149 188 150
f 149 183 187
f 150 188 171
f 151 189 152
f 151 171 189
f 152 190 191
f 152 191 153
f 152 189 192
f 152 192 190
f 154 193 194
f 154 194 155
f 157 195 196
f 157 196 158
f 158 196 200
f 158 200 164
f 158 164 159
f 160 161 197
f 160 197 198
f 160 198 199
f 160 199 163
f 160 163 162
f 161 170 197
f 163 199 173
f 164 200 165
f 165 200 166
f 166 200 201
f 166 201 202
f 166 202 203
f 166 203 168
f 166 168 167
f 168 203 204
f 168 204 205
f 168 205 206
f 168 206 169
f 169 206 170
f 170 206 207
f 170 207 208
f 170 208 197
f 171 188 192
f 171 192 189
f 173 199 209
f 173 209 210
f 173 210 211
f 173 211 174
f 174 211 212
f 174 212 175
f 175 212 213
f 175 213 176
f 176 213 214
f 176 214 177
f 177 214 178
f 178 214 215
f 178 215 216
f 178 216 179
f 179 216 215
f 179 215 217
f 179 217 218
f 179 218 184
f 180 219 220
f 180 220 181
f 180 186 221
f 180 221 222
f 180 222 223
f 180 223 219
f 181 220 224
f 181 224 225
f 181 225 182
f 182 226 183
f 182 225 227
f 182 227 192
f 182 192 226
f 183 226 187
f 184 218 228
f 184 228 229
f 184 229 230
f 184 230 231
f 184 231 185
f 185 231 232
f 185 232 186
f 186 232 221
f 187 226 192
f 187 192 188
f 190 233 234
f 190 234 191
f 190 192 233
f 192 227 235
f 192 235 236
f 192 236 233
f 193 237 194
f 194 237 238
f 195 239 240
f 195 240 196
f 196 240 201
f 196 201 200
f 197 208 198
f 198 209 199
f 198 208 209
f 201 240 241
f 201 241 242
f 201 242 202
f 202 242 243
f 202 243 244
f 202 244 203
f 203 244 243
f 203 243 204
f 204 243 205
f 205 245 246
f 205 246 247
f 205 247 208
f 205 208 207
f 205 207 206
f 205 243 248
f 205 248 249
f 205 249 250
f 205 250 251
f 205 251 252
f 205 252 253
f 205 253 254
f 205 254 255
f 205 255 256
f 205 256 245
f 208 247 209
f 209 247 246
f 209 246 210
f 210 246 257
f 210 257 258
f 210 258 259
f 210 259 260
f 210 260 261
f 210 261 262
f 210 262 211
f 211 262 263
f 211 263 212
f 212 263 213
f 213 261 215
f 213 215 214
f 213 263 261
f 215 261 264
f 215 264 217
f 217 264 218
f 218 264 265
f 218 265 266
f 218 266 267
f 218 267 228
f 219 223 220
f 220 268 269
f 220 269 225
f 220 225 224
f 220 223 270
f 220 270 271
f 220 271 268
f 221 232 272
f 221 272 222
f 222 272 273
f 222 273 223
f 223 273 274
f 223 274 275
f 223 275 276
f 223 276 277
f 223 277 270
f 225 269 278
f 225 278 279
f 225 279 280
f 225 280 281
f 225 281 227
f 227 281 282
f 227 282 235
f 228 267 283
f 228 283 229
f 229 283 284
f 229 284 230
f 230 284 231
f 231 284 232
f 232 284 285
f 232 285 286
f 232 286 272
f 233 287 288
f 233 288 234
f 233 236 289
f 233 289 287
f 235 282 289
f 235 289 236
f 237 290 291
f 237 291 238
f 239 292 241
f 239 241 240
f 241 292 293
f 241 293 294
f 241 294 295
f 241 295 242
f 242 295 243
f 243 295 248
f 245 256 296
f 245 296 246
f 246 296 297
f 246 297 257
f 248 298 249
f 248 295 299
f 248 299 300
f 248 300 298
f 249 298 301
f 249 301 250
f 250 252 251
f 250 301 302
f 250 302 303
f 250 303 304
f 250 304 305
f 250 305 306
f 250 306 254
f 250 254 252
f 252 254 253
f 254 307 308
f 254 308 309
f 254 309 310
f 254 310 311
f 254 311 312
f 254 312 313
f 254 313 255
f 254 306 314
f 254 314 305
f 254 305 307
f 255 313 312
f 255 312 256
f 256 312 315
f 256 315 316
f 256 316 297
f 256 297 296
f 257 297 316
f 257 316 317
f 257 317 318
f 257 318 319
f 257 319 259
f 257 259 258
f 259 320 260
f 259 319 321
f 259 321 322
f 259 322 320
f 260 323 324
f 260 324 274
f 260 274 325
f 260 325 264
f 260 264 261
f 260 320 323
f 261 263 262
f 264 325 265
f 265 325 326
f 265 326 266
f 266 326 283
f 266 283 267
f 268 327 328
f 268 328 329
f 268 329 330
f 268 330 331
f 268 331 332
f 268 332 333
f 268 333 334
f 268 334 335
f 268 335 336
f 268 336 337
f 268 337 338
f 268 338 339
f 268 339 340
f 268 340 341
f 268 341 342
f 268 342 343
f 268 343 278
f 268 278 269
f 268 271 344
f 268 344 345
f 268 345 346
f 268 346 347
f 268 347 348
f 268 348 327
f 270 277 271
f 271 277 349
f 271 349 350
f 271 350 351
f 271 351 352
f 271 352 353
f 271 353 354
f 271 354 344
f 272 286 285
f 272 285 355
f 272 355 273
f 273 355 274
f 274 355 326
f 274 326 325
f 274 324 356
f 274 356 275
f 275 356 357
f 275 357 358
f 275 358 276
f 276 359 277
f 276 358 360
f 276 360 359
f 277 361 349
f 277 359 360
f 277 360 361
f 278 362 279
f 278 343 363
f 278 363 364
f 278 364 365
f 278 365 366
f 278 366 367
f 278 367 368
f 278 368 369
f 278 369 370
f 278 370 371
f 278 371 362
f 279 362 372
f 279 372 280
f 280 372 373
f 280 373 374
f 280 374 281
f 281 374 282
f 282 374 289
f 283 326 284
f 284 326 355
f 284 355 285
f 287 375 376
f 287 376 288
f 287 289 374
f 287 374 375
f 290 377 378
f 290 378 379
f 290 379 380
f 290 380 381
f 290 381 382
f 290 382 383
f 290 383 291
f 293 384 294
f 294 384 385
f 294 385 295
f 295 385 386
f 295 386 387
f 295 387 300
f 295 300 299
f 298 300 301
f 300 387 386
f 300 386 388
f 300 388 389
f 300 389 390
f 300 390 301
f 301 390 302
f 302 390 389
f 302 389 388
f 302 388 391
f 302 391 392
f 302 392 303
f 303 392 393
f 303 393 394
f 303 394 395
f 303 395 396
f 303 396 397
f 303 397 398
f 303 398 399
f 303 399 304
f 304 399 400
f 304 400 401
f 304 401 402
f 304 402 305
f 305 314 306
f 305 402 403
f 305 403 404
f 305 404 405
f 305 405 307
f 307 405 406
f 307 406 407
f 307 407 408
f 307 408 409
f 307 409 410
f 307 410 309
f 307 309 308
f 309 410 409
f 309 409 310
f 310 409 411
f 310 411 311
f 311 315 312
f 311 411 412
f 311 412 315
f 315 412 413
f 315 413 414
f 315 414 415
f 315 415 416
f 315 416 417
f 315 417 316
f 316 417 418
f 316 418 317
f 317 418 318
f 318 418 319
f 319 418 321
f 320 322 323
f 321 418 417
f 321 417 322
f 322 419 420
f 322 420 323
f 322 417 419
f 323 420 421
f 323 421 422
f 323 422 358
f 323 358 357
f 323 357 423
f 323 423 324
f 324 423 356
f 327 424 425
f 327 425 426
f 327 426 427
f 327 427 328
f 327 348 424
f 328 427 329
f 329 427 428
f 329 428 429
f 329 429 330
f 330 429 430
f 330 430 331
f 331 430 332
f 332 430 431
f 332 431 432
f 332 432 433
f 332 433 333
f 333 434 334
f 333 433 434
f 334 434 435
f 334 435 335
f 335 435 436
f 335 436 336
f 344 354 437
f 344 437 345
f 345 437 346
f 346 437 438
f 346 438 347
f 347 438 439
f 347 439 348
f 348 439 440
f 348 440 424
f 349 361 350
f 350 361 360
f 350 360 441
f 350 441 351
f 351 442 353
f 351 353 352
f 351 441 442
f 353 442 443
f 353 443 444
f 353 444 445
f 353 445 437
f 353 437 354
f 356 423 357
f 358 422 360
f 360 422 441
f 362 371 446
f 362 446 447
f 362 447 448
f 362 448 375
f 362 375 372
f 372 375 373
f 373 375 374
f 375 448 376
f 377 449 378
f 378 449 451
f 378 451 450
f 384 452 453
f 384 453 385
f 385 453 454
f 385 454 394
f 385 394 386
f 386 394 393
f 386 393 391
f 386 391 388
f 391 393 392
f 394 454 455
f 394 455 396
f 394 396 395
f 396 455 456
f 396 456 457
f 396 457 398
f 396 398 397
f 398 458 459
f 398 459 460
f 398 460 401
f 398 401 399
f 398 457 461
f 398 461 462
f 398 462 458
f 399 401 400
f 401 460 463
f 401 463 464
f 401 464 402
f 402 464 465
f 402 465 466
f 402 466 404
f 402 404 403
f 404 466 405
f 405 467 468
f 405 468 406
f 405 466 467
f 406 468 407
f 407 469 470
f 407 470 471
f 407 471 472
f 407 472 473
f 407 473 408
f 407 468 463
f 407 463 469
f 408 473 474
f 408 474 409
f 409 474 411
f 411 475 412
f 411 474 475
f 412 475 413
f 413 475 476
f 413 476 477
f 413 477 414
f 414 477 478
f 414 478 415
f 415 478 479
f 415 479 480
f 415 480 422
f 415 422 421
f 415 421 481
f 415 481 416
f 416 481 419
f 416 419 417
f 419 421 420
f 419 481 421
f 422 480 479
f 422 479 482
f 422 482 483
f 422 483 441
f 424 440 425
f 425 440 484
f 425 484 485
f 425 485 486
f 425 486 426
f 426 486 427
f 427 486 487
f 427 487 428
f 428 488 489
f 428 489 490
f 428 490 429
f 428 487 488
f 429 490 491
f 429 491 430
f 430 491 492
f 430 492 431
f 431 492 432
f 432 493 433
f 432 492 494
f 432 494 493
f 433 495 496
f 433 496 434
f 433 493 497
f 433 497 498
f 433 498 495
f 434 496 499
f 434 499 500
f 434 500 435
f 435 500 501
f 435 501 436
f 437 445 438
f 438 445 444
f 438 444 439
f 439 484 440
f 439 444 502
f 439 502 503
f 439 503 485
f 439 485 484
f 441 483 504
f 441 504 505
f 441 505 442
f 442 506 443
f 442 505 507
f 442 507 508
f 442 508 509
f 442 509 510
f 442 510 511
f 442 511 506
f 443 512 513
f 443 513 444
f 443 506 514
f 443 514 510
f 443 510 512
f 444 513 515
f 444 515 516
f 444 516 502
f 450 451 517
f 451 518 517
f 452 519 453
f 453 519 454
f 454 520 521
f 454 521 522
f 454 522 523
f 454 523 455
f 454 519 520
f 455 523 456
f 456 524 457
f 456 523 524
f 457 524 461
f 458 462 525
f 458 525 459
f 459 525 460
f 460 526 527
f 460 527 528
f 460 528 529
f 460 529 530
f 460 530 463
f 460 525 462
f 460 462 531
f 460 531 526
f 461 524 462
f 462 524 531
f 463 465 464
f 463 530 529
f 463 529 532
f 463 532 533
f 463 533 534
f 463 534 535
f 463 535 536
f 463 536 537
f 463 537 538
f 463 538 539
f 463 539 540
f 463 540 469
f 463 468 465
f 465 468 467
f 465 467 466
f 469 540 541
f 469 541 542
f 469 542 470
f 470 542 543
f 470 543 544
f 470 544 545
f 470 545 471
f 471 546 472
f 471 545 546
f 472 547 548
f 472 548 549
f 472 549 550
f 472 550 474
f 472 474 473
f 472 546 551
f 472 551 552
f 472 552 553
f 472 553 554
f 472 554 547
f 474 550 555
f 474 555 556
f 474 556 475
f 475 556 557
f 475 557 476
f 476 557 477
f 477 557 478
f 478 558 554
f 478 554 559
f 478 559 560
f 478 560 479
f 478 557 549
f 478 549 548
f 478 548 558
f 479 560 561
f 479 561 482
f 482 561 562
f 482 562 563
f 482 563 483
f 483 563 504
f 485 503 486
f 486 503 564
f 486 564 487
f 487 565 566
f 487 566 567
f 487 567 568
f 487 568 569
f 487 569 488
f 487 564 565
f 488 569 570
f 488 570 489
f 489 570 571
f 489 571 490
f 490 571 572
f 490 572 573
f 490 573 574
f 490 574 575
f 490 575 576
f 490 576 491
f 491 576 492
f 492 576 497
f 492 497 494
f 493 494 497
f 495 498 496
f 496 498 577
f 496 577 578
f 496 578 579
f 496 579 580
f 496 580 581
f 496 581 582
f 496 582 499
f 497 577 498
f 497 576 577
f 499 582 500
f 500 583 584
f 500 584 585
f 500 585 586
f 500 586 587
f 500 587 588
f 500 588 589
f 500 589 590
f 500 590 591
f 500 591 501
f 500 582 581
f 500 581 580
f 500 580 583
f 502 592 503
f 502 516 593
f 502 593 592
f 503 592 594
f 503 594 564
f 504 595 508
f 504 508 505
f 504 563 596
f 504 596 595
f 505 508 507
f 506 511 514
f 508 595 597
f 508 597 510
f 508 510 509
f 510 597 598
f 510 598 599
f 510 599 513
f 510 513 512
f 510 514 511
f 513 600 516
f 513 516 515
f 513 599 601
f 513 601 600
f 516 602 593
f 516 600 602
f 517 518 603
f 518 604 603
f 521 605 522
f 522 605 606
f 522 606 607
f 522 607 608
f 522 608 609
f 522 609 524
f 522 524 523
f 524 609 610
f 524 610 611
f 524 611 527
f 524 527 531
f 526 612 527
f 526 531 612
f 527 613 528
f 527 612 531
f 527 611 613
f 528 613 614
f 528 614 529
f 529 614 615
f 529 615 532
f 532 615 533
f 533 615 616
f 533 616 617
f 533 617 534
f 534 618 619
f 534 619 535
f 534 617 620
f 534 620 621
f 534 621 618
f 535 619 536
f 536 622 623
f 536 623 537
f 536 619 624
f 536 624 625
f 536 625 622
f 537 626 627
f 537 627 541
f 537 541 628
f 537 628 540
f 537 540 539
f 537 539 629
f 537 629 630
f 537 630 538
f 537 623 631
f 537 631 632
f 537 632 633
f 537 633 626
f 538 630 539
f 539 630 629
f 540 628 541
f 541 627 634
f 541 634 635
f 541 635 542
f 542 635 636
f 542 636 543
f 543 636 544
f 544 636 637
f 544 637 638
f 544 638 639
f 544 639 545
f 545 639 640
f 545 640 546
f 546 640 641
f 546 641 642
f 546 642 551
f 547 554 548
f 548 554 558
f 549 557 643
f 549 643 550
f 550 643 555
f 551 642 644
f 551 644 645
f 551 645 646
f 551 646 647
f 551 647 552
f 552 647 648
f 552 648 649
f 552 649 553
f 553 649 561
f 553 561 560
f 553 560 554
f 554 560 559
f 555 643 556
f 556 643 557
f 561 649 650
f 561 650 598
f 561 598 562
f 562 596 563
f 562 598 597
f 562 597 595
f 562 595 596
f 564 594 651
f 564 651 652
f 564 652 565
f 565 653 654
f 565 654 566
f 565 652 653
f 566 654 567
f 567 654 655
f 567 655 656
f 567 656 657
f 567 657 658
f 567 658 568
f 568 659 660
f 568 660 569
f 568 658 659
f 569 660 570
f 570 660 571
f 571 661 662
f 571 662 572
f 571 660 663
f 571 663 661
f 572 662 661
f 572 661 573
f 573 661 664
f 573 664 574
f 574 664 575
f 575 664 661
f 575 661 665
f 575 665 577
f 575 577 576
f 577 665 666
f 577 666 578
f 578 667 668
f 578 668 579
f 578 666 669
f 578 669 667
f 579 668 580
f 580 668 670
f 580 670 671
f 580 671 583
f 583 671 584
f 584 671 585
f 585 672 673
f 585 673 586
f 585 671 674
f 585 674 672
f 592 675 676
f 592 676 677
f 592 677 678
f 592 678 651
f 592 651 594
f 592 593 675
f 593 602 679
f 593 679 680
f 593 680 675
f 598 650 599
f 599 650 601
f 600 601 602
f 601 650 648
f 601 648 681
f 601 681 602
f 602 682 683
f 602 683 684
f 602 684 679
f 602 681 685
f 602 685 682
f 603 604 687
f 603 687 686
f 608 616 609
f 609 616 610
f 610 616 611
f 611 616 613
f 613 616 688
f 613 688 614
f 614 688 616
f 614 616 615
f 616 620 617
f 618 621 619
f 619 621 689
f 619 689 624
f 620 625 621
f 621 625 624
f 621 624 689
f 622 625 623
f 623 625 690
f 623 690 691
f 623 691 631
f 625 692 690
f 626 636 635
f 626 635 634
f 626 634 627
f 626 633 636
f 631 691 632
f 632 691 693
f 632 693 694
f 632 694 695
f 632 695 696
f 632 696 633
f 633 697 698
f 633 698 699
f 633 699 700
f 633 700 701
f 633 701 702
f 633 702 703
f 633 703 704
f 633 704 705
f 633 705 706
f 633 706 638
f 633 638 637
f 633 637 636
f 633 696 707
f 633 707 697
f 638 706 708
f 638 708 639
f 639 709 641
f 639 641 640
f 639 708 710
f 639 710 711
f 639 711 645
f 639 645 709
f 641 709 644
f 641 644 642
f 644 709 645
f 645 711 712
f 645 712 713
f 645 713 646
f 646 713 647
f 647 713 714
f 647 714 715
f 647 715 648
f 648 715 716
f 648 716 717
f 648 717 681
f 648 650 649
f 651 678 656
f 651 656 652
f 652 656 655
f 652 655 653
f 653 655 654
f 656 678 677
f 656 677 718
f 656 718 657
f 657 719 658
f 657 718 719
f 658 720 659
f 658 719 720
f 659 720 660
f 660 720 663
f 661 663 665
f 663 721 722
f 663 722 666
f 663 666 665
f 663 720 723
f 663 723 721
f 666 722 669
f 667 669 724
f 667 724 668
f 668 724 725
f 668 725 726
f 668 726 670
f 669 722 721
f 669 721 724
f 670 726 727
f 670 727 728
f 670 728 671
f 671 728 729
f 671 729 730
f 671 730 731
f 671 731 674
f 672 732 733
f 672 733 673
f 672 674 730
f 672 730 732
f 674 731 730
f 675 680 734
f 675 734 735
f 675 735 676
f 676 735 677
f 677 735 734
f 677 734 736
f 677 736 718
f 679 684 680
f 680 684 734
f 681 717 685
f 682 685 737
f 682 737 683
f 683 737 684
f 684 737 738
f 684 738 734
f 685 717 739
f 685 739 737
f 686 687 740
f 687 741 740
f 690 742 691
f 690 692 742
f 691 742 743
f 691 743 693
f 693 743 742
f 693 744 694
f 694 744 745
f 694 745 695
f 695 745 746
f 695 746 696
f 696 746 747
f 696 747 707
f 697 748 749
f 697 749 698
f 697 707 750
f 697 750 748
f 698 749 751
f 698 751 752
f 698 752 753
f 698 753 754
f 698 754 755
f 698 755 699
f 699 755 756
f 699 756 757
f 699 757 758
f 699 758 700
f 700 758 702
f 700 702 701
f 702 758 703
f 703 758 704
f 704 758 759
f 704 759 760
f 704 760 761
f 704 761 705
f 705 761 762
f 705 762 763
f 705 763 706
f 706 763 710
f 706 710 764
f 706 764 708
f 707 747 750
f 708 764 710
f 710 763 765
f 710 765 766
f 710 766 711
f 711 766 765
f 711 765 712
f 712 765 713
f 713 765 767
f 713 767 714
f 714 767 762
f 714 762 716
f 714 716 715
f 716 761 768
f 716 768 739
f 716 739 717
f 716 762 761
f 718 736 769
f 718 769 770
f 718 770 771
f 718 771 720
f 718 720 719
f 720 771 723
f 721 772 773
f 721 773 724
f 721 723 774
f 721 774 775
f 721 775 772
f 723 771 770
f 723 770 776
f 723 776 774
f 724 773 777
f 724 777 778
f 724 778 779
f 724 779 725
f 725 779 726
f 726 779 780
f 726 780 781
f 726 781 849
f 726 849 782
f 726 782 728
f 726 728 727
f 728 783 784
f 728 784 729
f 728 782 783
f 729 784 730
f 730 784 785
f 730 785 732
f 732 785 786
f 732 786 787
f 732 787 788
f 732 788 789
f 732 789 733
f 734 790 791
f 734 791 792
f 734 792 736
f 734 738 768
f 734 768 793
f 734 793 761
f 734 761 790
f 736 792 794
f 736 794 769
f 737 739 768
f 737 768 738
f 740 741 796
f 740 796 797
f 740 797 798
f 740 798 799
f 740 799 800
f 740 800 801
f 740 801 802
f 740 802 803
f 740 803 804
f 740 804 805
f 740 805 795
f 744 806 807
f 744 807 745
f 745 807 746
f 746 806 808
f 746 808 809
f 746 809 810
f 746 810 811
f 746 811 812
f 746 812 813
f 746 813 814
f 746 814 747
f 746 807 806
f 747 814 813
f 747 813 815
f 747 815 816
f 747 816 817
f 747 817 818
f 747 818 750
f 748 819 749
f 748 750 819
f 749 819 752
f 749 752 751
f 750 818 817
f 750 817 820
f 750 820 819
f 752 819 822
f 752 822 753
f 753 821 754
f 753 822 823
f 753 823 824
f 753 824 821
f 754 821 825
f 754 825 826
f 754 826 755
f 755 826 827
f 755 827 756
f 756 827 828
f 756 828 829
f 756 829 757
f 757 830 758
f 757 829 830
f 758 830 829
f 758 829 831
f 758 831 759
f 759 831 832
f 759 832 833
f 759 833 760
f 760 833 834
f 760 834 835
f 760 835 761
f 761 793 768
f 761 835 790
f 762 767 765
f 762 765 836
f 762 836 763
f 763 836 765
f 769 794 776
f 769 776 770
f 772 837 773
f 772 775 837
f 773 838 839
f 773 839 840
f 773 840 841
f 773 841 777
f 773 837 842
f 773 842 838
f 774 843 775
f 774 776 843
f 775 843 844
f 775 844 837
f 776 794 845
f 776 845 843
f 777 841 840
f 777 840 846
f 777 846 778
f 778 780 779
f 778 846 838
f 778 838 847
f 778 847 780
f 780 847 848
f 780 848 781
f 781 848 849
f 782 849 783
f 783 850 851
f 783 851 784
f 783 849 852
f 783 852 850
f 784 851 853
f 784 853 785
f 785 853 786
f 790 835 854
f 790 854 792
f 790 792 791
f 792 854 855
f 792 855 856
f 792 856 857
f 792 857 794
f 794 857 858
f 794 858 859
f 794 859 860
f 794 860 845
f 795 805 861
f 805 862 861
f 806 809 808
f 809 863 864
f 809 864 810
f 810 864 865
f 810 865 866
f 810 866 811
f 811 866 812
f 812 866 813
f 813 866 824
f 813 824 823
f 813 823 867
f 813 867 815
f 815 867 816
f 816 867 823
f 816 823 817
f 817 823 822
f 817 822 820
f 819 820 822
f 821 824 868
f 821 868 869
f 821 869 870
f 821 870 825
f 824 866 871
f 824 871 872
f 824 872 868
f 825 870 827
f 825 827 826
f 827 873 874
f 827 874 875
f 827 875 828
f 827 870 873
f 828 875 876
f 828 876 829
f 829 876 877
f 829 877 831
f 831 877 878
f 831 878 832
f 832 878 879
f 832 879 833
f 833 879 834
f 834 879 880
f 834 880 854
f 834 854 835
f 837 844 881
f 837 881 882
f 837 882 842
f 838 842 883
f 838 883 884
f 838 884 885
f 838 885 847
f 838 846 840
f 838 840 839
f 842 882 883
f 843 845 844
f 844 845 881
f 845 860 859
f 845 859 882
f 845 882 881
f 847 885 886
f 847 886 848
f 848 886 887
f 848 887 852
f 848 852 849
f 850 888 851
f 850 852 888
f 852 887 888
f 854 880 855
f 855 880 856
f 856 880 889
f 856 889 890
f 856 890 891
f 856 891 857
f 857 891 858
f 858 892 859
f 858 891 893
f 858 893 894
f 858 894 895
f 858 895 896
f 858 896 892
f 859 892 883
f 859 883 882
f 861 862 897
f 862 898 899
f 862 899 897
f 863 900 901
f 863 901 865
f 863 865 864
f 865 901 866
f 866 901 900
f 866 900 871
f 868 872 902
f 868 902 869
f 869 903 870
f 869 902 904
f 869 904 903
f 870 903 905
f 870 905 873
f 871 900 872
f 872 904 902
f 873 905 906
f 873 906 874
f 874 906 907
f 874 907 908
f 874 908 909
f 874 909 910
f 874 910 875
f 875 910 876
f 876 910 911
f 876 911 877
f 877 911 912
f 877 912 913
f 877 913 879
f 877 879 878
f 879 913 914
f 879 914 915
f 879 915 889
f 879 889 880
f 883 892 916
f 883 916 884
f 884 916 917
f 884 917 885
f 885 917 922
f 885 922 918
f 885 918 886
f 886 918 919
f 886 919 920
f 886 920 921
f 886 921 887
f 887 921 888
f 889 915 890
f 890 915 893
f 890 893 891
f 892 896 922
f 892 922 916
f 893 915 914
f 893 914 895
f 893 895 894
f 895 914 913
f 895 913 896
f 896 913 922
f 898 923 924
f 898 924 899
f 903 904 925
f 903 925 905
f 905 925 926
f 905 926 906
f 906 926 927
f 906 927 928
f 906 928 929
f 906 929 907
f 907 929 908
f 908 930 931
f 908 931 909
f 908 929 930
f 909 931 950
f 909 950 932
f 909 932 933
f 909 933 911
f 909 911 910
f 911 933 934
f 911 934 912
f 912 934 935
f 912 935 913
f 913 935 922
f 916 922 917
f 918 922 919
f 919 922 936
f 919 936 937
f 919 937 921
f 919 921 920
f 921 937 938
f 922 935 936
f 923 939 924
f 924 939 941
f 924 941 942
f 924 942 943
f 924 943 944
f 924 944 945
f 924 945 940
f 926 946 947
f 926 947 927
f 927 947 928
f 928 947 957
f 928 957 948
f 928 948 949
f 928 949 930
f 928 930 929
f 930 950 931
f 930 949 948
f 930 948 951
f 930 951 950
f 932 950 958
f 932 958 952
f 932 952 933
f 933 952 953
f 933 953 934
f 934 953 936
f 934 936 935
f 936 953 937
f 937 951 954
f 937 954 938
f 937 953 955
f 937 955 951
f 940 948 956
f 940 945 951
f 940 951 948
f 946 956 957
f 946 957 947
f 948 957 956
f 950 951 958
f 951 955 959
f 951 959 958
f 952 958 959
f 952 959 955
f 952 955 953

