# https://github.com/mikedh/trimesh
v 0.06016831 0.33490407 0.24273363
v 0.06016831 0.32013088 0.24259007
v 0.10221095 0.27936944 0.24033418
v 0.10174827 0.28499949 0.24029316
v 0.12124272 0.35044298 0.23026469
v 0.07021783 0.40025747 0.23014164
v 0.06500491 0.40084302 0.23044926
v 0.06016831 0.40088806 0.23046976
v 0.06016831 0.30540270 0.24148263
v 0.09825037 0.27936944 0.24033418
v 0.12318601 0.27495551 0.23428428
v 0.12318601 0.28315282 0.23430479
v 0.12318601 0.17627230 0.21149977
v 0.12318601 0.28499949 0.23424327
v 0.12318601 0.35255986 0.22862405
v 0.11025550 0.40025747 0.22021571
v 0.12318601 0.34674966 0.22962894
v 0.07018699 0.43061462 0.22005165
v 0.06974898 0.43061462 0.22005165
v 0.06585009 0.43435296 0.21841100
v 0.06016831 0.44336101 0.21262771
v 0.06016831 0.23946378 0.22033876
v 0.08500524 0.19685569 0.21158180
v 0.12318601 0.17388517 0.21057689
v 0.12318601 0.40503174 0.21190992
v 0.12318601 0.41498566 0.20871066
v 0.12318601 0.42498457 0.20423989
v 0.10206906 0.44273046 0.20305042
v 0.07266697 0.44241518 0.21291482
v 0.06500491 0.44403660 0.21367362
v 0.06016831 0.45313475 0.20319398
v 0.06016831 0.21595277 0.21158180
v 0.07846596 0.19892755 0.21069995
v 0.11499956 0.13735752 0.19168893
v 0.12318601 0.13614143 0.19244772
v 0.12318601 0.43052453 0.20050740
v 0.12318601 0.45295459 0.18163994
v 0.09499924 0.44372135 0.20454751
v 0.06500491 0.44903609 0.20778780
v 0.06016831 0.45840445 0.19661087
v 0.06016831 0.20050396 0.20456803
v 0.11499956 0.05759123 0.15227233
v 0.12318601 0.06367166 0.15711224
v 0.12318601 0.46993476 0.15971677
v 0.09124841 0.47083557 0.17081165
v 0.06016831 0.46038622 0.19394481
v 0.06016831 0.17136291 0.18943304
v 0.06138363 0.17073235 0.18965861
v 0.10959540 0.05948292 0.15048812
v 0.12318601 0.03308932 0.12786767
v 0.12318601 0.05646522 0.15333875
v 0.12318601 0.47209668 0.15526651
v 0.08079790 0.48015890 0.16020897
v 0.07953939 0.48015890 0.16020897
v 0.07572687 0.48164523 0.15499990
v 0.06723814 0.48114979 0.15167759
v 0.06016831 0.48209563 0.14470483
v 0.06016831 0.17005675 0.18838711
v 0.06016831 0.12371032 0.13215387
v 0.06016831 0.11735965 0.12286369
v 0.06016831 0.11578324 0.12017712
v 0.06016831 0.11276554 0.11496806
v 0.11769547 0.03308932 0.11529619
v 0.11820751 0.03308932 0.11687531
v 0.12093427 0.03308932 0.12390960
v 0.12167457 0.03308932 0.12559126
v 0.06016831 0.12970068 0.14023405
v 0.12318601 0.03308932 0.10340148
v 0.12318601 0.48362702 0.11681379
v 0.12318601 0.48416749 0.11500908
v 0.12318601 0.48646453 0.10682634
v 0.12318601 0.48695999 0.10500111
v 0.09946569 0.48988760 0.10953341
v 0.08102615 0.49015784 0.12068982
v 0.07500508 0.48443770 0.14499195
v 0.06016831 0.48867151 0.12485297
v 0.06016831 0.48556373 0.13500449
v 0.06016831 0.11285563 0.11320436
v 0.11769547 0.03308932 0.11457840
v 0.12318601 0.10718055 0.03324322
v 0.11803478 0.03308932 0.10776971
v 0.06016831 0.15014896 0.03324322
v 0.12318601 0.48754549 0.09681837
v 0.10321652 0.49038303 0.10286827
v 0.11499956 0.48826617 0.10500111
v 0.10593094 0.48957232 0.10571890
v 0.09567784 0.49096859 0.10571890
v 0.08500524 0.49245489 0.10500111
v 0.08461659 0.49078840 0.11496806
v 0.07500508 0.49159914 0.11500908
v 0.07500508 0.49033800 0.12126406
v 0.06500491 0.49020287 0.12077186
v 0.06016831 0.49006778 0.11978747
v 0.06990938 0.09992906 0.10980001
v 0.06016831 0.11506259 0.10537026
v 0.12318601 0.47705114 0.03324322
v 0.06016831 0.48331171 0.03324322
v 0.12318601 0.48754549 0.09501366
v 0.10321652 0.49038303 0.09880766
v 0.07500508 0.49322057 0.10500111
v 0.09499924 0.49092352 0.09770022
v 0.11499956 0.48497820 0.05500233
v 0.06500491 0.49317554 0.10500111
v 0.06500491 0.49146402 0.11500908
v 0.06016831 0.49110368 0.11523467
v 0.11578304 0.47790688 0.03324322
v 0.12318601 0.48105970 0.04314864
v 0.06016831 0.48412246 0.03500692
v 0.06500491 0.48367202 0.03500692
v 0.07678179 0.48173529 0.03324322
v 0.12318601 0.48430261 0.05500233
v 0.06016831 0.48750046 0.04501487
v 0.10499940 0.48565382 0.05500233
v 0.08500524 0.48565382 0.04501487
v 0.07500508 0.48646453 0.04501487
v 0.06016831 0.49299538 0.10500111
v 0.06016831 0.48795086 0.04983428
v 0.10815799 0.47867256 0.03324322
v 0.10499940 0.48087955 0.03783704
v 0.11499956 0.48272622 0.04501487
v 0.12318601 0.48160020 0.04458421
v 0.09499924 0.48475301 0.04501487
v 0.09499924 0.48137498 0.03662705
v 0.08500524 0.48191547 0.03554013
v 0.09090910 0.48038411 0.03324322
v 0.10499940 0.48376212 0.04501487
v 0.10499940 0.47898787 0.03324322
f 1 2 3
f 1 3 4
f 1 4 5
f 1 5 6
f 1 6 7
f 1 7 8
f 1 8 21
f 1 21 31
f 1 31 40
f 1 40 46
f 1 46 57
f 1 57 77
f 1 77 76
f 1 76 93
f 1 93 105
f 1 105 116
f 1 116 117
f 1 117 112
f 1 112 108
f 1 108 97
f 1 97 82
f 1 82 95
f 1 95 78
f 1 78 62
f 1 62 61
f 1 61 60
f 1 60 59
f 1 59 67
f 1 67 58
f 1 58 47
f 1 47 41
f 1 41 32
f 1 32 22
f 1 22 9
f 1 9 2
f 2 9 10
f 2 10 3
f 3 11 12
f 3 12 4
f 3 10 13
f 3 13 11
f 4 12 14
f 4 14 5
f 5 15 16
f 5 16 6
f 5 14 17
f 5 17 15
f 6 16 18
f 6 18 7
f 7 18 8
f 8 18 19
f 8 19 20
f 8 20 21
f 9 22 23
f 9 23 10
f 10 23 13
f 11 13 24
f 11 24 35
f 11 35 43
f 11 43 51
f 11 51 50
f 11 50 68
f 11 68 80
f 11 80 96
f 11 96 107
f 11 107 121
f 11 121 111
f 11 111 98
f 11 98 83
f 11 83 72
f 11 72 71
f 11 71 70
f 11 70 69
f 11 69 52
f 11 52 44
f 11 44 37
f 11 37 36
f 11 36 27
f 11 27 26
f 11 26 25
f 11 25 15
f 11 15 17
f 11 17 14
f 11 14 12
f 13 23 24
f 15 25 16
f 16 25 26
f 16 26 27
f 16 27 18
f 18 20 19
f 18 27 28
f 18 28 29
f 18 29 30
f 18 30 20
f 20 30 21
f 21 30 31
f 22 32 33
f 22 33 23
f 23 33 34
f 23 34 24
f 24 34 35
f 27 36 28
f 28 37 38
f 28 38 29
f 28 36 37
f 29 38 30
f 30 38 39
f 30 39 31
f 31 39 40
f 32 41 33
f 33 41 42
f 33 42 34
f 34 42 43
f 34 43 35
f 37 44 38
f 38 44 45
f 38 45 39
f 39 45 40
f 40 45 46
f 41 47 48
f 41 48 42
f 42 49 50
f 42 50 51
f 42 51 43
f 42 48 47
f 42 47 49
f 44 52 53
f 44 53 45
f 45 53 46
f 46 53 54
f 46 54 55
f 46 55 56
f 46 56 57
f 47 58 49
f 49 59 60
f 49 60 61
f 49 61 62
f 49 62 63
f 49 63 64
f 49 64 65
f 49 65 66
f 49 66 50
f 49 58 67
f 49 67 59
f 50 66 65
f 50 65 64
f 50 64 63
f 50 63 79
f 50 79 81
f 50 81 68
f 52 69 53
f 53 69 70
f 53 70 71
f 53 71 72
f 53 72 73
f 53 73 74
f 53 74 75
f 53 75 55
f 53 55 54
f 55 75 76
f 55 76 77
f 55 77 56
f 56 77 57
f 62 78 79
f 62 79 63
f 68 81 82
f 68 82 80
f 72 83 84
f 72 84 85
f 72 85 73
f 73 86 84
f 73 84 87
f 73 87 88
f 73 88 89
f 73 89 74
f 73 85 86
f 74 89 88
f 74 88 90
f 74 90 91
f 74 91 75
f 75 91 92
f 75 92 93
f 75 93 76
f 78 94 81
f 78 81 79
f 78 95 94
f 80 82 97
f 80 97 110
f 80 110 125
f 80 125 127
f 80 127 118
f 80 118 106
f 80 106 96
f 81 94 95
f 81 95 82
f 83 98 99
f 83 99 84
f 84 99 88
f 84 88 87
f 84 86 85
f 88 100 90
f 88 99 101
f 88 101 102
f 88 102 100
f 90 100 103
f 90 103 104
f 90 104 91
f 91 104 92
f 92 104 105
f 92 105 93
f 96 106 107
f 97 108 109
f 97 109 110
f 98 111 99
f 99 111 102
f 99 102 101
f 100 112 103
f 100 102 113
f 100 113 112
f 102 111 114
f 102 114 115
f 102 115 112
f 102 112 113
f 103 116 104
f 103 112 117
f 103 117 116
f 104 116 105
f 106 118 119
f 106 119 120
f 106 120 107
f 107 120 121
f 108 112 115
f 108 115 114
f 108 114 122
f 108 122 109
f 109 122 119
f 109 119 123
f 109 123 124
f 109 124 125
f 109 125 110
f 111 121 120
f 111 120 126
f 111 126 122
f 111 122 114
f 118 127 119
f 119 122 126
f 119 126 120
f 119 127 123
f 123 127 125
f 123 125 124

