# https://github.com/mikedh/trimesh
v 0.50214982 -0.03706835 0.01497449
v 0.50162476 -0.03706835 0.02495938
v 0.49757427 -0.07575726 0.02495938
v 0.50128722 -0.04500230 0.01497449
v 0.50034964 -0.05308017 0.00860404
v 0.49611160 -0.07575726 -0.07497987
v 0.49618661 -0.07499984 -0.07497987
v 0.49982452 -0.03706835 -0.07497987
v 0.50151223 -0.03706835 0.02699251
v 0.49997455 -0.05002020 0.02997442
v 0.50098717 -0.03706835 0.03476355
v 0.49749929 -0.07575726 0.02572745
v 0.49776179 -0.07575726 0.01574256
v 0.50034964 -0.05319378 0.01497449
v 0.49776179 -0.07575726 0.01497449
v 0.49558654 -0.07575726 -0.08496476
v 0.49644914 -0.06499813 -0.08496476
v 0.49873692 -0.03706835 -0.08446778
v 0.50076216 -0.03706835 0.03693222
v 0.50004959 -0.04055247 0.04018521
v 0.49663669 -0.07499984 0.03498945
v 0.49652416 -0.07575726 0.03498945
v 0.49341130 -0.07575726 -0.09499484
v 0.49408638 -0.06499813 -0.09499484
v 0.49577406 -0.03706835 -0.09499484
v 0.50027460 -0.03706835 0.04077256
v 0.47012106 -0.06106714 0.14026001
v 0.49629915 -0.07575726 0.03575752
v 0.49086100 -0.07575726 -0.10253998
v 0.49119854 -0.06499813 -0.10344359
v 0.49149856 -0.05500022 -0.10425683
v 0.48969835 -0.05500022 -0.10927187
v 0.48988587 -0.04784262 -0.10976885
v 0.49206114 -0.03706835 -0.10516044
v 0.47323394 -0.03706835 0.11513965
v 0.47012106 -0.05975302 0.14026001
v 0.46284521 -0.07499984 0.14337745
v 0.46262017 -0.07575726 0.14315155
v 0.49356133 -0.07575726 0.04501952
v 0.45189393 -0.05500022 0.17220262
v 0.45099381 -0.06120726 0.17138937
v 0.48924831 -0.07575726 -0.10714839
v 0.48913580 -0.07499984 -0.10760019
v 0.48943582 -0.06499813 -0.10845862
v 0.48553538 -0.07575726 -0.11496461
v 0.49003589 -0.04117734 -0.11003993
v 0.48170990 -0.07575726 -0.12187723
v 0.49011090 -0.03706835 -0.11017548
v 0.47042108 -0.03706835 0.12282033
v 0.46513295 -0.03706835 0.13678110
v 0.45151886 -0.04806227 0.17157009
v 0.46239513 -0.07575726 0.14346781
v 0.44120514 -0.06205557 0.18074173
v 0.41060156 -0.03706835 0.20247355
v 0.44120514 -0.05796551 0.18074173
v 0.43276668 -0.07575726 0.18218750
v 0.48909828 -0.07575726 -0.10750983
v 0.48729807 -0.03706835 -0.11500979
v 0.47402149 -0.07575726 -0.13497958
v 0.47848454 -0.07499984 -0.12743443
v 0.46217012 -0.03706835 0.14233831
v 0.44353044 -0.03706835 0.17351285
v 0.41172668 -0.03706835 0.20152476
v 0.40430081 -0.07575726 0.20297053
v 0.40921390 -0.07575726 0.19940129
v 0.43224162 -0.07575726 0.18259412
v 0.40032536 -0.05050116 0.21028978
v 0.40246311 -0.03706835 0.20644942
v 0.40032536 -0.04844098 0.21028978
v 0.48336011 -0.03706835 -0.12169651
v 0.47053361 -0.07575726 -0.14076269
v 0.47522163 -0.04500230 -0.13497958
v 0.47923464 -0.03706835 -0.12869948
v 0.47908461 -0.04500230 -0.12842840
v 0.39612484 -0.07575726 0.20843738
v 0.37388474 -0.05500022 0.22163007
v 0.38494855 -0.07575726 0.21480784
v 0.39098674 -0.07575726 0.21150964
v 0.33461761 -0.03706835 0.22718728
v 0.37257209 -0.04878939 0.22108790
v 0.46655813 -0.07575726 -0.14577770
v 0.47072113 -0.06499813 -0.14103377
v 0.47094613 -0.05500022 -0.14121449
v 0.47113365 -0.04500230 -0.14144039
v 0.47544667 -0.03706835 -0.13497958
v 0.47627178 -0.03706835 -0.13362417
v 0.38423595 -0.07575726 0.21512410
v 0.36499619 -0.05500022 0.22397947
v 0.35498253 -0.07499984 0.22587705
v 0.35498253 -0.07575726 0.22578669
v 0.31309009 -0.03706835 0.23233786
v 0.30502665 -0.04500230 0.23721734
v 0.30502665 -0.05500022 0.23911494
v 0.46157005 -0.07575726 -0.15165117
v 0.47120869 -0.03706835 -0.14148557
v 0.47207129 -0.03706835 -0.14017534
v 0.34665653 -0.07575726 0.22791016
v 0.35404491 -0.07575726 0.22605777
v 0.30450159 -0.03706835 0.23306075
v 0.29475045 -0.03706835 0.23193124
v 0.29501298 -0.05500022 0.23599747
v 0.29426289 -0.07575726 0.22800052
v 0.30551422 -0.07575726 0.23062101
v 0.31425273 -0.07575726 0.23229268
v 0.31504032 -0.07575726 0.23233786
v 0.32505399 -0.07575726 0.23179570
v 0.32685423 -0.07575726 0.23156980
v 0.34399372 -0.07575726 0.22854269
v 0.34421876 -0.07575726 0.22849751
v 0.26770976 -0.07575726 0.22117826
v 0.45680699 -0.07575726 -0.15666622
v 0.46164507 -0.05500022 -0.15174153
v 0.46670815 -0.03706835 -0.14650059
v 0.19502622 -0.03706835 0.19727778
v 0.21501607 -0.07575726 0.20116332
v 0.44705585 -0.07575726 -0.16692218
v 0.45695701 -0.03706835 -0.15680176
v 0.44214278 -0.05500022 -0.17225349
v 0.19356355 -0.03706835 0.19646454
v 0.20605251 -0.07575726 0.19700670
v 0.21190321 -0.07575726 0.19976273
v 0.44206774 -0.07575726 -0.17216313
v 0.44818097 -0.03706835 -0.16601858
v 0.44218028 -0.03706835 -0.17225349
v 0.44323039 -0.03706835 -0.17116916
v 0.43704218 -0.07499984 -0.17717814
v 0.18715030 -0.03706835 0.19275975
v 0.18805040 -0.04500230 0.19190133
v 0.19881417 -0.07575726 0.19122359
v 0.43741721 -0.07575726 -0.17677152
v 0.43689215 -0.06499813 -0.17722332
v 0.43674213 -0.05500022 -0.17722332
v 0.43651712 -0.04500230 -0.17726851
v 0.43632960 -0.03706835 -0.17726851
v 0.43704218 -0.07575726 -0.17713296
v 0.43242913 -0.07575726 -0.18124440
v 0.18092456 -0.03706835 0.18286520
v 0.13918217 -0.07575726 0.12110347
v 0.14158244 -0.07575726 0.12489863
v 0.14702058 -0.07575726 0.13235343
v 0.14750814 -0.07575726 0.13294077
v 0.17889933 -0.07575726 0.17066649
v 0.17927438 -0.07575726 0.17107311
v 0.43205407 -0.07499984 -0.18156067
v 0.43190408 -0.06499813 -0.18137994
v 0.43152902 -0.04500230 -0.18097332
v 0.43134150 -0.03706835 -0.18079260
v 0.43205407 -0.07575726 -0.18156067
v 0.14908333 -0.03706835 0.13131428
v 0.13610680 -0.07575726 0.11572700
v 0.42549080 -0.07575726 -0.18580762
v 0.42496574 -0.07499984 -0.18612388
v 0.41922757 -0.07499984 -0.18955761
v 0.42635339 -0.03706835 -0.18377450
v 0.14844576 -0.03706835 0.13013957
v 0.14593296 -0.03706835 0.12498900
v 0.14514536 -0.03706835 0.12291069
v 0.13554424 -0.07575726 0.11333243
v 0.42496574 -0.07575726 -0.18612388
v 0.41390195 -0.06499813 -0.19231361
v 0.41922757 -0.07575726 -0.18955761
v 0.41461453 -0.07575726 -0.19226843
v 0.39499974 -0.06499813 -0.20347321
v 0.40043786 -0.06499813 -0.20026538
v 0.40058789 -0.03706835 -0.19904551
v 0.14334515 -0.03706835 0.11495893
v 0.11900479 -0.07575726 -0.05496491
v 0.39597484 -0.05427689 -0.20247924
v 0.39976278 -0.04500230 -0.19985875
v 0.40632606 -0.07575726 -0.19710276
v 0.39499974 -0.07499984 -0.20369911
v 0.39477471 -0.04500230 -0.20275033
v 0.38588616 -0.07499984 -0.20830750
v 0.39950025 -0.03706835 -0.19967803
v 0.13813204 -0.03706835 -0.04498002
v 0.13820705 -0.03706835 -0.04615472
v 0.13914466 -0.03706835 -0.05496491
v 0.12046747 -0.07575726 -0.06499498
v 0.39541227 -0.07575726 -0.20342803
v 0.39499974 -0.07575726 -0.20365393
v 0.38592365 -0.07575726 -0.20826232
v 0.39451218 -0.03706835 -0.20252442
v 0.38423595 -0.06497541 -0.20848823
v 0.38498604 -0.05500022 -0.20762980
v 0.38093558 -0.07575726 -0.21034065
v 0.38089806 -0.07499984 -0.21034065
v 0.13966972 -0.03706835 -0.05717876
v 0.14199500 -0.03706835 -0.06680220
v 0.14645801 -0.03706835 -0.08519067
v 0.14878330 -0.03706835 -0.09413640
v 0.14900832 -0.03706835 -0.09499484
v 0.12328029 -0.07575726 -0.07479915
v 0.38498604 -0.04500230 -0.20695210
v 0.38498604 -0.03706835 -0.20640993
v 0.38037300 -0.06829290 -0.21011475
v 0.37497237 -0.07575726 -0.21192196
v 0.12620564 -0.07575726 -0.08482922
v 0.15133359 -0.03706835 -0.10290142
v 0.37943539 -0.06162763 -0.20984367
v 0.37673509 -0.04500230 -0.20921111
v 0.37485987 -0.03706835 -0.20903039
v 0.37497237 -0.07499984 -0.21187678
v 0.37564746 -0.06497541 -0.21101835
v 0.36499619 -0.07575726 -0.21427134
v 0.12924349 -0.07575726 -0.09499484
v 0.15215869 -0.03706835 -0.10516044
v 0.13246888 -0.07575726 -0.10570261
v 0.36702144 -0.03706835 -0.21092799
v 0.36499619 -0.07499984 -0.21422616
v 0.34496886 -0.06499813 -0.21829242
v 0.36499619 -0.06499813 -0.21354845
v 0.34496886 -0.05500022 -0.21756953
v 0.34496886 -0.04500230 -0.21680143
v 0.35573262 -0.07575726 -0.21643999
v 0.35498253 -0.07499984 -0.21657553
v 0.13666937 -0.07575726 -0.11473871
v 0.15729679 -0.03706835 -0.11500979
v 0.34496886 -0.03706835 -0.21616891
v 0.33971822 -0.07114837 -0.21991891
v 0.33851808 -0.06499813 -0.21973819
v 0.34298110 -0.07575726 -0.21942192
v 0.13741945 -0.07575726 -0.11595858
v 0.16847311 -0.03706835 -0.13258502
v 0.33349249 -0.06499813 -0.22068697
v 0.33499268 -0.04500230 -0.21851832
v 0.33499268 -0.03706835 -0.21775025
v 0.33638033 -0.07575726 -0.22095805
v 0.33581775 -0.07468551 -0.22100323
v 0.17657405 -0.03706835 -0.14528072
v 0.14300761 -0.07575726 -0.12427179
v 0.33574277 -0.07575726 -0.22109360
v 0.32497901 -0.07575726 -0.22244900
v 0.33161727 -0.05769663 -0.22023517
v 0.32497901 -0.03706835 -0.21770507
v 0.32497901 -0.07499984 -0.22235864
v 0.17754917 -0.03706835 -0.14672649
v 0.14413275 -0.07575726 -0.12589830
v 0.31496531 -0.07575726 -0.22204238
v 0.31706557 -0.03706835 -0.21711770
v 0.31496531 -0.07499984 -0.22195202
v 0.29265019 -0.07575726 -0.22046107
v 0.17856179 -0.03706835 -0.14812711
v 0.16434762 -0.07575726 -0.15431681
v 0.15729679 -0.07575726 -0.14451265
v 0.15167113 -0.07575726 -0.13660607
v 0.14612047 -0.07575726 -0.12874466
v 0.29501298 -0.03706835 -0.21540084
v 0.27543569 -0.07572696 -0.21915084
v 0.27543569 -0.07575726 -0.21915084
v 0.18182467 -0.03706835 -0.15241924
v 0.16491018 -0.07575726 -0.15508488
v 0.28709954 -0.03706835 -0.21476832
v 0.26500946 -0.07575726 -0.21693698
v 0.28503680 -0.03706835 -0.21458760
v 0.18437497 -0.03706835 -0.15558189
v 0.16584779 -0.07575726 -0.15616924
v 0.25428319 -0.07575726 -0.21291593
v 0.27449808 -0.03706835 -0.21210268
v 0.18853796 -0.03706835 -0.15978366
v 0.17368622 -0.07575726 -0.16416618
v 0.23568100 -0.07575726 -0.20550632
v 0.26815981 -0.03706835 -0.20966294
v 0.27078512 -0.03706835 -0.21070209
v 0.19030067 -0.03706835 -0.16145533
v 0.18921304 -0.03749251 -0.16064209
v 0.17492387 -0.07575726 -0.16525051
v 0.22514227 -0.07575726 -0.20125934
v 0.22514227 -0.07573075 -0.20125934
v 0.26497194 -0.03706835 -0.20835268
v 0.19573881 -0.03706835 -0.16615412
v 0.21617872 -0.03706835 -0.18345824
v 0.22202939 -0.03706835 -0.18833774
v 0.20800275 -0.07575726 -0.19159073
v 0.21584117 -0.07575726 -0.19669613
v 0.22191688 -0.07288665 -0.19918105
v 0.23515594 -0.03706835 -0.19601843
v 0.22686747 -0.03706835 -0.19186181
v 0.22900522 -0.03706835 -0.19294614
f 1 2 3
f 1 3 4
f 1 4 5
f 1 5 6
f 1 6 7
f 1 7 8
f 1 8 18
f 1 18 25
f 1 25 34
f 1 34 48
f 1 48 58
f 1 58 70
f 1 70 73
f 1 73 86
f 1 86 85
f 1 85 96
f 1 96 95
f 1 95 113
f 1 113 117
f 1 117 123
f 1 123 125
f 1 125 124
f 1 124 134
f 1 134 147
f 1 147 154
f 1 154 165
f 1 165 174
f 1 174 182
f 1 182 194
f 1 194 201
f 1 201 208
f 1 208 218
f 1 218 226
f 1 226 234
f 1 234 239
f 1 239 247
f 1 247 252
f 1 252 254
f 1 254 258
f 1 258 263
f 1 263 262
f 1 262 269
f 1 269 276
f 1 276 278
f 1 278 277
f 1 277 272
f 1 272 271
f 1 271 270
f 1 270 264
f 1 264 259
f 1 259 255
f 1 255 250
f 1 250 242
f 1 242 236
f 1 236 229
f 1 229 223
f 1 223 217
f 1 217 206
f 1 206 198
f 1 198 191
f 1 191 190
f 1 190 189
f 1 189 188
f 1 188 187
f 1 187 177
f 1 177 176
f 1 176 175
f 1 175 166
f 1 166 157
f 1 157 156
f 1 156 155
f 1 155 149
f 1 149 137
f 1 137 127
f 1 127 119
f 1 119 114
f 1 114 100
f 1 100 99
f 1 99 91
f 1 91 79
f 1 79 68
f 1 68 54
f 1 54 63
f 1 63 62
f 1 62 61
f 1 61 50
f 1 50 49
f 1 49 35
f 1 35 26
f 1 26 19
f 1 19 11
f 1 11 9
f 1 9 2
f 2 9 3
f 3 9 10
f 3 10 11
f 3 11 12
f 3 12 22
f 3 22 28
f 3 28 39
f 3 39 38
f 3 38 52
f 3 52 56
f 3 56 66
f 3 66 65
f 3 65 64
f 3 64 75
f 3 75 78
f 3 78 77
f 3 77 87
f 3 87 90
f 3 90 98
f 3 98 97
f 3 97 109
f 3 109 108
f 3 108 107
f 3 107 106
f 3 106 105
f 3 105 104
f 3 104 103
f 3 103 102
f 3 102 110
f 3 110 115
f 3 115 121
f 3 121 120
f 3 120 129
f 3 129 143
f 3 143 142
f 3 142 141
f 3 141 140
f 3 140 139
f 3 139 138
f 3 138 150
f 3 150 158
f 3 158 167
f 3 167 178
f 3 178 192
f 3 192 197
f 3 197 205
f 3 205 207
f 3 207 216
f 3 216 222
f 3 222 230
f 3 230 237
f 3 237 246
f 3 246 245
f 3 245 244
f 3 244 243
f 3 243 251
f 3 251 256
f 3 256 260
f 3 260 266
f 3 266 273
f 3 273 274
f 3 274 267
f 3 267 261
f 3 261 257
f 3 257 253
f 3 253 249
f 3 249 241
f 3 241 238
f 3 238 232
f 3 232 231
f 3 231 227
f 3 227 221
f 3 221 214
f 3 214 204
f 3 204 196
f 3 196 185
f 3 185 181
f 3 181 180
f 3 180 179
f 3 179 170
f 3 170 162
f 3 162 161
f 3 161 159
f 3 159 151
f 3 151 148
f 3 148 136
f 3 136 135
f 3 135 130
f 3 130 122
f 3 122 116
f 3 116 111
f 3 111 94
f 3 94 81
f 3 81 71
f 3 71 59
f 3 59 47
f 3 47 45
f 3 45 57
f 3 57 42
f 3 42 29
f 3 29 23
f 3 23 16
f 3 16 6
f 3 6 15
f 3 15 13
f 3 13 4
f 4 14 5
f 4 13 14
f 5 14 15
f 5 15 6
f 6 16 7
f 7 16 8
f 8 16 17
f 8 17 18
f 9 11 10
f 11 19 20
f 11 20 12
f 12 20 21
f 12 21 22
f 13 15 14
f 16 23 17
f 17 23 18
f 18 23 24
f 18 24 25
f 19 26 20
f 20 26 27
f 20 27 21
f 21 27 22
f 22 27 28
f 23 29 24
f 24 29 25
f 25 29 30
f 25 30 31
f 25 31 32
f 25 32 33
f 25 33 34
f 26 35 36
f 26 36 27
f 27 37 38
f 27 38 39
f 27 39 28
f 27 36 40
f 27 40 41
f 27 41 37
f 29 42 30
f 30 42 43
f 30 43 44
f 30 44 31
f 31 44 32
f 32 44 45
f 32 45 33
f 33 46 34
f 33 45 47
f 33 47 46
f 34 46 48
f 35 49 36
f 36 49 50
f 36 50 51
f 36 51 40
f 37 41 38
f 38 41 52
f 40 53 41
f 40 51 54
f 40 54 55
f 40 55 53
f 41 53 56
f 41 56 52
f 42 57 43
f 43 57 45
f 43 45 44
f 46 47 58
f 46 58 48
f 47 59 60
f 47 60 58
f 50 61 51
f 51 62 63
f 51 63 54
f 51 61 62
f 53 64 65
f 53 65 66
f 53 66 56
f 53 55 69
f 53 69 67
f 53 67 64
f 54 68 69
f 54 69 55
f 58 60 59
f 58 59 70
f 59 71 72
f 59 72 73
f 59 73 74
f 59 74 70
f 64 67 75
f 67 69 76
f 67 76 77
f 67 77 78
f 67 78 75
f 68 79 80
f 68 80 69
f 69 80 76
f 70 74 73
f 71 81 82
f 71 82 83
f 71 83 72
f 72 83 84
f 72 84 85
f 72 85 86
f 72 86 73
f 76 87 77
f 76 80 88
f 76 88 89
f 76 89 90
f 76 90 87
f 79 91 92
f 79 92 80
f 80 92 93
f 80 93 88
f 81 84 83
f 81 83 82
f 81 94 84
f 84 95 96
f 84 96 85
f 84 94 95
f 88 93 89
f 89 93 97
f 89 97 98
f 89 98 90
f 91 99 92
f 92 99 100
f 92 100 101
f 92 101 93
f 93 102 103
f 93 103 104
f 93 104 105
f 93 105 106
f 93 106 107
f 93 107 108
f 93 108 109
f 93 109 97
f 93 101 110
f 93 110 102
f 94 111 112
f 94 112 113
f 94 113 95
f 100 114 101
f 101 114 115
f 101 115 110
f 111 116 118
f 111 118 112
f 112 117 113
f 112 118 117
f 114 119 120
f 114 120 121
f 114 121 115
f 116 122 118
f 117 118 123
f 118 124 125
f 118 125 123
f 118 122 126
f 118 126 124
f 119 127 120
f 120 127 128
f 120 128 129
f 122 130 126
f 124 126 131
f 124 131 132
f 124 132 133
f 124 133 134
f 126 130 135
f 126 135 136
f 126 136 131
f 127 137 138
f 127 138 139
f 127 139 140
f 127 140 128
f 128 140 141
f 128 141 142
f 128 142 143
f 128 143 129
f 131 136 144
f 131 144 132
f 132 144 133
f 133 144 134
f 134 144 145
f 134 145 146
f 134 146 147
f 136 148 144
f 137 149 138
f 138 149 150
f 144 148 151
f 144 151 145
f 145 151 152
f 145 152 146
f 146 152 147
f 147 152 153
f 147 153 154
f 149 155 150
f 150 155 156
f 150 156 157
f 150 157 158
f 151 159 152
f 152 159 161
f 152 161 153
f 153 160 154
f 153 161 162
f 153 162 163
f 153 163 164
f 153 164 160
f 154 160 165
f 157 166 158
f 158 166 167
f 160 164 168
f 160 168 169
f 160 169 165
f 162 170 171
f 162 171 163
f 163 172 168
f 163 168 164
f 163 171 173
f 163 173 172
f 165 169 168
f 165 168 174
f 166 175 167
f 167 175 176
f 167 176 177
f 167 177 178
f 168 172 174
f 170 179 171
f 171 179 180
f 171 180 181
f 171 181 173
f 172 182 174
f 172 173 182
f 173 183 184
f 173 184 182
f 173 181 185
f 173 185 186
f 173 186 183
f 177 187 178
f 178 187 188
f 178 188 189
f 178 189 190
f 178 190 191
f 178 191 192
f 182 184 193
f 182 193 194
f 183 186 184
f 184 186 195
f 184 195 193
f 185 196 186
f 186 196 195
f 191 197 192
f 191 198 197
f 193 195 194
f 194 195 199
f 194 199 200
f 194 200 201
f 195 196 202
f 195 202 203
f 195 203 199
f 196 204 209
f 196 209 202
f 197 198 205
f 198 206 207
f 198 207 205
f 199 203 200
f 200 203 208
f 200 208 201
f 202 209 210
f 202 210 211
f 202 211 203
f 203 211 212
f 203 212 213
f 203 213 208
f 204 214 215
f 204 215 209
f 206 216 207
f 206 217 216
f 208 213 218
f 209 215 219
f 209 219 210
f 210 212 211
f 210 219 212
f 212 219 220
f 212 220 213
f 213 220 218
f 214 221 215
f 215 221 219
f 216 217 222
f 217 223 222
f 218 220 224
f 218 224 225
f 218 225 226
f 219 221 227
f 219 227 228
f 219 228 220
f 220 228 224
f 222 223 229
f 222 229 230
f 224 228 231
f 224 231 232
f 224 232 233
f 224 233 226
f 224 226 225
f 226 233 232
f 226 232 235
f 226 235 234
f 227 231 228
f 229 236 230
f 230 236 237
f 232 238 240
f 232 240 235
f 234 235 240
f 234 240 241
f 234 241 239
f 236 242 243
f 236 243 244
f 236 244 245
f 236 245 246
f 236 246 237
f 238 241 240
f 239 241 248
f 239 248 247
f 241 249 248
f 242 250 251
f 242 251 243
f 247 248 252
f 248 253 254
f 248 254 252
f 248 249 253
f 250 255 251
f 251 255 256
f 253 257 258
f 253 258 254
f 255 259 260
f 255 260 256
f 257 261 262
f 257 262 263
f 257 263 258
f 259 264 265
f 259 265 260
f 260 265 264
f 260 264 266
f 261 267 268
f 261 268 262
f 262 268 269
f 264 270 266
f 266 270 271
f 266 271 272
f 266 272 273
f 267 274 268
f 268 274 275
f 268 275 276
f 268 276 269
f 272 277 273
f 273 277 274
f 274 277 275
f 275 277 278
f 275 278 276

