# https://github.com/mikedh/trimesh
v 0.06016831 0.48333246 0.03322273
v 0.09090910 0.48038757 0.03322273
v 0.06016831 0.48008162 -0.05140483
v 0.06016831 0.15014388 0.03322273
v 0.10499940 0.47901076 0.03322273
v 0.06016831 0.47989041 -0.05466409
v 0.11578304 0.47790170 0.03322273
v 0.12318601 0.47706029 0.03322273
v 0.10499940 0.47423017 -0.05500360
v 0.06016831 0.14352754 -0.00468879
v 0.12318601 0.09583630 -0.02469702
v 0.12318601 0.09759556 -0.01500978
v 0.12318601 0.10298806 0.01389351
v 0.12318601 0.10516801 0.02464454
v 0.12318601 0.10715675 0.03322273
v 0.06016831 0.47973743 -0.05713117
v 0.12318601 0.47193551 -0.05500360
v 0.06016831 0.14195950 -0.01500978
v 0.12318601 0.09411527 -0.03501801
v 0.06016831 0.47950795 -0.05912294
v 0.12318601 0.47097939 -0.06091101
v 0.06016831 0.47870481 -0.06521142
v 0.06016831 0.14161530 -0.02501389
v 0.12318601 0.09262373 -0.04502212
v 0.12318601 0.47063518 -0.06276697
v 0.06016831 0.47706029 -0.07501183
v 0.06016831 0.14165354 -0.02716410
v 0.12318601 0.09342687 -0.05500360
v 0.06016831 0.14195950 -0.03501801
v 0.06016831 0.14253317 -0.04807768
v 0.06016831 0.14287737 -0.05500360
v 0.12318601 0.46757558 -0.07492130
v 0.09992837 0.46998501 -0.07994598
v 0.06016831 0.47403896 -0.08499331
v 0.12318601 0.09679241 -0.06509825
v 0.06016831 0.14322157 -0.05855710
v 0.06016831 0.14402471 -0.06525669
v 0.06016831 0.14509557 -0.07012294
v 0.06016831 0.14631940 -0.07494393
v 0.06016831 0.15404485 -0.10459413
v 0.12318601 0.46394235 -0.08499331
v 0.08500524 0.47117060 -0.08268467
v 0.06016831 0.47262388 -0.08804886
v 0.12318601 0.10757744 -0.09196450
v 0.06016831 0.15545991 -0.10860030
v 0.12318601 0.46145642 -0.08995010
v 0.07701005 0.46948785 -0.08902211
v 0.08500524 0.46883768 -0.08768672
v 0.06016831 0.47090286 -0.09169289
v 0.12318601 0.10887776 -0.09488425
v 0.06016831 0.15798406 -0.11398713
v 0.12318601 0.46076801 -0.09128549
v 0.06016831 0.46547210 -0.10169701
v 0.12318601 0.11021633 -0.09717026
v 0.06016831 0.15959035 -0.11656737
v 0.12318601 0.11514990 -0.10522787
v 0.12318601 0.45227766 -0.10540894
v 0.06190184 0.46034732 -0.11054680
v 0.06016831 0.46050030 -0.11079577
v 0.06016831 0.46141818 -0.10914351
v 0.06016831 0.16100541 -0.11858178
v 0.12318601 0.11564709 -0.10590689
v 0.06016831 0.16310886 -0.12147890
v 0.12318601 0.44975352 -0.10959619
v 0.10499940 0.45139804 -0.11208589
v 0.06016831 0.45897049 -0.11294598
v 0.12318601 0.11645024 -0.10697067
v 0.06016831 0.16570951 -0.12496449
v 0.10499940 0.44772655 -0.11708795
v 0.12318601 0.44673216 -0.11369289
v 0.11499956 0.44680867 -0.11572993
v 0.09499924 0.44868267 -0.11835544
v 0.09499924 0.45231593 -0.11335339
v 0.06016831 0.45721126 -0.11539042
v 0.12318601 0.11939508 -0.11050154
v 0.06016831 0.17595911 -0.13852210
v 0.06016831 0.18035726 -0.14433898
v 0.06016831 0.18234599 -0.14694186
v 0.12318601 0.44099545 -0.12109412
v 0.12318601 0.44187510 -0.11996244
v 0.08037222 0.45005947 -0.12007561
v 0.11499956 0.44179860 -0.12202211
v 0.06016831 0.45434290 -0.11921553
v 0.12318601 0.12467286 -0.11609207
v 0.06016831 0.18475541 -0.14981633
v 0.10499940 0.43831831 -0.12815586
v 0.12318601 0.43143427 -0.13157354
v 0.11499956 0.43227565 -0.13252416
v 0.09772599 0.42952204 -0.13947272
v 0.06016831 0.44971526 -0.12482870
v 0.06016831 0.45193347 -0.12224844
v 0.10499940 0.44275472 -0.12315379
v 0.08488803 0.44497293 -0.12496449
v 0.06016831 0.43828008 -0.13802417
v 0.12318601 0.14402471 -0.13650770
v 0.06016831 0.18735605 -0.15246449
v 0.09499924 0.43931270 -0.12924227
v 0.07500508 0.43185496 -0.14205298
v 0.06500491 0.43281108 -0.14318466
v 0.12318601 0.42764804 -0.13567026
v 0.11499956 0.42271447 -0.14298096
v 0.11499956 0.42772454 -0.13750359
v 0.10499940 0.42875713 -0.13865791
v 0.10499940 0.42374706 -0.14411265
v 0.06016831 0.43327004 -0.14372787
v 0.06500491 0.43782115 -0.13750359
v 0.12318601 0.14865233 -0.14121552
v 0.06016831 0.19022441 -0.15488631
v 0.12318601 0.15882544 -0.15065379
v 0.12318601 0.15415959 -0.14660236
v 0.12318601 0.15396836 -0.14642128
v 0.09885494 0.41973138 -0.14977108
v 0.06016831 0.42868066 -0.14872992
v 0.12318601 0.42179656 -0.14198507
v 0.10499940 0.41896647 -0.14911470
v 0.06016831 0.19347522 -0.15746655
v 0.12318601 0.19477555 -0.17317437
v 0.06016831 0.19588464 -0.15927725
v 0.06016831 0.20150663 -0.16335133
v 0.06016831 0.20766404 -0.16776490
v 0.06016831 0.21883151 -0.17570934
v 0.06016831 0.22254126 -0.17828959
v 0.06016831 0.22495067 -0.17987394
v 0.09218612 0.42038152 -0.15033692
v 0.06016831 0.42607999 -0.15090276
v 0.12318601 0.41169995 -0.15124227
v 0.11499956 0.41273257 -0.15194392
v 0.11580155 0.40439519 -0.15753445
v 0.09531386 0.41583037 -0.15298507
v 0.06016831 0.41671002 -0.15778342
v 0.12318601 0.41667178 -0.14698713
v 0.11499956 0.41774264 -0.14798301
v 0.12318601 0.41257960 -0.15051800
v 0.06016831 0.22751307 -0.18143567
v 0.12318601 0.19607587 -0.17396656
v 0.06016831 0.42367059 -0.15278137
v 0.12318601 0.40485415 -0.15585956
v 0.11967577 0.39992055 -0.15993363
v 0.06016831 0.39475751 -0.17276695
v 0.06016831 0.41173822 -0.16117848
v 0.06016831 0.23110810 -0.18290687
v 0.12318601 0.20510164 -0.17905915
v 0.12318601 0.20349535 -0.17826696
v 0.12318601 0.39930865 -0.15954885
v 0.12318601 0.39601958 -0.16169906
v 0.12318601 0.38657314 -0.16781017
v 0.12318601 0.38160130 -0.17102416
v 0.11499956 0.38290164 -0.17190687
v 0.11499956 0.38791171 -0.16862498
v 0.10499940 0.38408720 -0.17276695
v 0.07908905 0.37965083 -0.17987394
v 0.08500524 0.38496685 -0.17539248
v 0.07545543 0.38427845 -0.17736161
v 0.06016831 0.39089480 -0.17532456
v 0.06016831 0.23500906 -0.18444598
v 0.12318601 0.20850542 -0.18043980
v 0.12318601 0.37640002 -0.17423815
v 0.12318601 0.37483197 -0.17516613
v 0.11400633 0.37399060 -0.17727107
v 0.11668374 0.36875105 -0.17957970
v 0.11001491 0.36997491 -0.17998712
v 0.07242638 0.38049221 -0.18028137
v 0.06016831 0.38676435 -0.17801799
v 0.06016831 0.26059482 -0.19245830
v 0.12318601 0.20927033 -0.18071140
v 0.12318601 0.36741251 -0.17903650
v 0.12318601 0.36347330 -0.18041717
v 0.12318601 0.36255541 -0.18071140
v 0.11400633 0.36523253 -0.18102828
v 0.06016831 0.37498498 -0.18345007
v 0.06500491 0.37498498 -0.18295214
v 0.10842327 0.33941731 -0.18981016
v 0.10175443 0.34060290 -0.19019493
v 0.10499940 0.35498294 -0.18528342
v 0.08500524 0.33498091 -0.19374844
v 0.06016831 0.34496281 -0.19315997
v 0.06016831 0.38179255 -0.18091510
v 0.06016831 0.38420194 -0.17960235
v 0.06016831 0.26503122 -0.19383897
v 0.12318601 0.24720915 -0.19153033
v 0.06016831 0.26985005 -0.19528753
v 0.12318601 0.35498294 -0.18308794
v 0.11499956 0.35498294 -0.18412909
v 0.10504875 0.33563107 -0.19137189
v 0.11499956 0.33310694 -0.19096449
v 0.09499924 0.33498091 -0.19268465
v 0.11499956 0.32499903 -0.19334103
v 0.07500508 0.33498091 -0.19476695
v 0.06016831 0.33979976 -0.19474432
v 0.12318601 0.25501108 -0.19370317
v 0.06016831 0.27501309 -0.19671345
v 0.12318601 0.34679857 -0.18564555
v 0.12318601 0.33146241 -0.19039863
v 0.12318601 0.32779092 -0.19153033
v 0.12318601 0.32572567 -0.19214144
v 0.12318601 0.33739033 -0.18856531
v 0.10499940 0.32499903 -0.19422375
v 0.06500491 0.33498091 -0.19571757
v 0.12318601 0.31677639 -0.19411057
v 0.06016831 0.33498091 -0.19612497
v 0.12318601 0.25680858 -0.19406530
v 0.06016831 0.27983195 -0.19739246
v 0.12318601 0.31497890 -0.19440481
v 0.08500524 0.32499903 -0.19580811
v 0.07500508 0.32499903 -0.19657765
v 0.06016831 0.32981789 -0.19691716
v 0.12318601 0.26503122 -0.19519699
v 0.06016831 0.28503323 -0.19800359
v 0.11499956 0.31497890 -0.19492540
v 0.06500491 0.32499903 -0.19725667
v 0.12318601 0.30679452 -0.19494802
v 0.06016831 0.32499903 -0.19752827
v 0.12318601 0.26682872 -0.19526491
v 0.06016831 0.29497689 -0.19793567
v 0.12318601 0.27501309 -0.19528753
v 0.12318601 0.30499703 -0.19499329
v 0.06016831 0.31979775 -0.19761881
v 0.06016831 0.30499703 -0.19782251
v 0.06016831 0.31497890 -0.19768670
f 1 2 3
f 1 3 6
f 1 6 16
f 1 16 20
f 1 20 22
f 1 22 26
f 1 26 34
f 1 34 43
f 1 43 49
f 1 49 53
f 1 53 60
f 1 60 59
f 1 59 66
f 1 66 74
f 1 74 83
f 1 83 91
f 1 91 90
f 1 90 94
f 1 94 105
f 1 105 113
f 1 113 125
f 1 125 136
f 1 136 130
f 1 130 140
f 1 140 139
f 1 139 154
f 1 154 163
f 1 163 178
f 1 178 177
f 1 177 170
f 1 170 176
f 1 176 189
f 1 189 200
f 1 200 206
f 1 206 212
f 1 212 217
f 1 217 219
f 1 219 218
f 1 218 214
f 1 214 208
f 1 208 202
f 1 202 191
f 1 191 181
f 1 181 179
f 1 179 164
f 1 164 155
f 1 155 141
f 1 141 134
f 1 134 123
f 1 123 122
f 1 122 121
f 1 121 120
f 1 120 119
f 1 119 118
f 1 118 116
f 1 116 108
f 1 108 96
f 1 96 85
f 1 85 78
f 1 78 77
f 1 77 76
f 1 76 68
f 1 68 63
f 1 63 61
f 1 61 55
f 1 55 51
f 1 51 45
f 1 45 40
f 1 40 39
f 1 39 38
f 1 38 37
f 1 37 36
f 1 36 31
f 1 31 30
f 1 30 29
f 1 29 27
f 1 27 23
f 1 23 18
f 1 18 10
f 1 10 4
f 1 4 15
f 1 15 8
f 1 8 7
f 1 7 5
f 1 5 2
f 2 5 3
f 3 5 7
f 3 7 8
f 3 8 9
f 3 9 6
f 4 10 11
f 4 11 12
f 4 12 13
f 4 13 14
f 4 14 15
f 6 9 16
f 8 17 9
f 8 15 14
f 8 14 13
f 8 13 12
f 8 12 11
f 8 11 19
f 8 19 24
f 8 24 28
f 8 28 35
f 8 35 44
f 8 44 50
f 8 50 54
f 8 54 56
f 8 56 62
f 8 62 67
f 8 67 75
f 8 75 84
f 8 84 95
f 8 95 107
f 8 107 111
f 8 111 110
f 8 110 109
f 8 109 117
f 8 117 135
f 8 135 143
f 8 143 142
f 8 142 156
f 8 156 165
f 8 165 180
f 8 180 190
f 8 190 201
f 8 201 207
f 8 207 213
f 8 213 215
f 8 215 216
f 8 216 211
f 8 211 203
f 8 203 199
f 8 199 195
f 8 195 194
f 8 194 193
f 8 193 196
f 8 196 192
f 8 192 182
f 8 182 168
f 8 168 167
f 8 167 166
f 8 166 158
f 8 158 157
f 8 157 147
f 8 147 146
f 8 146 145
f 8 145 144
f 8 144 137
f 8 137 126
f 8 126 133
f 8 133 131
f 8 131 114
f 8 114 100
f 8 100 87
f 8 87 79
f 8 79 80
f 8 80 70
f 8 70 64
f 8 64 57
f 8 57 52
f 8 52 46
f 8 46 41
f 8 41 32
f 8 32 25
f 8 25 21
f 8 21 17
f 9 17 16
f 10 18 19
f 10 19 11
f 16 17 20
f 17 21 22
f 17 22 20
f 18 23 24
f 18 24 19
f 21 25 26
f 21 26 22
f 23 27 24
f 24 27 29
f 24 29 30
f 24 30 31
f 24 31 28
f 25 32 33
f 25 33 26
f 26 33 34
f 28 31 36
f 28 36 37
f 28 37 38
f 28 38 39
f 28 39 40
f 28 40 35
f 32 41 33
f 33 41 42
f 33 42 34
f 34 42 43
f 35 40 45
f 35 45 44
f 41 46 47
f 41 47 48
f 41 48 42
f 42 48 43
f 43 48 47
f 43 47 49
f 44 45 50
f 45 51 50
f 46 52 49
f 46 49 47
f 49 52 53
f 50 51 54
f 51 55 56
f 51 56 54
f 52 57 58
f 52 58 59
f 52 59 60
f 52 60 53
f 55 61 56
f 56 61 63
f 56 63 62
f 57 64 58
f 58 64 59
f 59 64 65
f 59 65 66
f 62 63 68
f 62 68 67
f 64 69 65
f 64 70 71
f 64 71 69
f 65 69 72
f 65 72 73
f 65 73 66
f 66 73 74
f 67 68 76
f 67 76 77
f 67 77 78
f 67 78 75
f 69 71 79
f 69 79 72
f 70 80 71
f 71 80 79
f 72 81 74
f 72 74 73
f 72 79 82
f 72 82 81
f 74 81 83
f 75 78 85
f 75 85 84
f 79 86 82
f 79 87 88
f 79 88 89
f 79 89 86
f 81 90 91
f 81 91 83
f 81 82 92
f 81 92 93
f 81 93 94
f 81 94 90
f 82 86 92
f 84 85 95
f 85 96 95
f 86 97 92
f 86 89 98
f 86 98 99
f 86 99 97
f 87 100 101
f 87 101 102
f 87 102 88
f 88 102 103
f 88 103 89
f 89 103 101
f 89 101 104
f 89 104 98
f 92 97 99
f 92 99 105
f 92 105 106
f 92 106 93
f 93 106 94
f 94 106 105
f 95 96 107
f 96 108 109
f 96 109 110
f 96 110 111
f 96 111 107
f 98 104 112
f 98 112 113
f 98 113 99
f 99 113 105
f 100 114 101
f 101 114 115
f 101 115 112
f 101 112 104
f 101 103 102
f 108 116 109
f 109 116 118
f 109 118 119
f 109 119 120
f 109 120 121
f 109 121 122
f 109 122 123
f 109 123 117
f 112 124 125
f 112 125 113
f 112 115 126
f 112 126 127
f 112 127 128
f 112 128 129
f 112 129 130
f 112 130 124
f 114 131 132
f 114 132 115
f 115 132 133
f 115 133 126
f 117 123 134
f 117 134 135
f 124 136 125
f 124 130 136
f 126 137 138
f 126 138 128
f 126 128 127
f 128 138 139
f 128 139 129
f 129 139 140
f 129 140 130
f 131 133 132
f 134 141 142
f 134 142 143
f 134 143 135
f 137 144 138
f 138 144 145
f 138 145 146
f 138 146 147
f 138 147 148
f 138 148 149
f 138 149 150
f 138 150 151
f 138 151 152
f 138 152 153
f 138 153 139
f 139 153 151
f 139 151 154
f 141 155 156
f 141 156 142
f 147 157 148
f 148 150 149
f 148 157 158
f 148 158 159
f 148 159 151
f 148 151 150
f 151 159 160
f 151 160 161
f 151 161 162
f 151 162 163
f 151 163 154
f 151 153 152
f 155 164 165
f 155 165 156
f 158 166 160
f 158 160 159
f 160 166 167
f 160 167 168
f 160 168 169
f 160 169 161
f 161 170 171
f 161 171 162
f 161 169 172
f 161 172 173
f 161 173 174
f 161 174 175
f 161 175 176
f 161 176 170
f 162 171 170
f 162 170 177
f 162 177 178
f 162 178 163
f 164 179 165
f 165 179 181
f 165 181 180
f 168 182 183
f 168 183 169
f 169 183 172
f 172 184 173
f 172 183 185
f 172 185 184
f 173 184 186
f 173 186 175
f 173 175 174
f 175 186 187
f 175 187 188
f 175 188 176
f 176 188 189
f 180 181 190
f 181 191 190
f 182 192 183
f 183 192 185
f 184 185 187
f 184 187 186
f 185 193 194
f 185 194 195
f 185 195 187
f 185 192 196
f 185 196 193
f 187 197 198
f 187 198 188
f 187 195 199
f 187 199 197
f 188 198 189
f 189 198 200
f 190 191 201
f 191 202 201
f 197 199 203
f 197 203 204
f 197 204 200
f 197 200 198
f 200 204 205
f 200 205 206
f 201 202 207
f 202 208 207
f 203 209 210
f 203 210 205
f 203 205 204
f 203 211 209
f 205 210 206
f 206 210 212
f 207 208 213
f 208 214 215
f 208 215 213
f 209 211 210
f 210 211 212
f 211 216 212
f 212 216 217
f 214 218 216
f 214 216 215
f 216 219 217
f 216 218 219

