# https://github.com/mikedh/trimesh
v -0.09500201 0.30499622 0.23490396
v -0.11499888 0.25497982 0.23450200
v -0.10508681 0.24591978 0.23238400
v -0.09500201 0.24972582 0.23011139
v -0.09500201 0.31496641 0.23386815
v -0.11821956 0.33217636 0.22930749
v -0.11821956 0.25497982 0.23321883
v -0.11821956 0.24649896 0.23204389
v -0.11516026 0.24488552 0.23300239
v -0.10847569 0.23921783 0.23127088
v -0.09500201 0.18758799 0.20115507
v -0.09500201 0.32601219 0.23184291
v -0.09500201 0.33279690 0.23052882
v -0.10123654 0.38057932 0.22040260
v -0.11034855 0.37085736 0.22024800
v -0.11821956 0.34268433 0.22505602
v -0.11821956 0.17513561 0.20433979
v -0.11193503 0.23921783 0.23127088
v -0.09500201 0.17501150 0.19518754
v -0.09500201 0.18262359 0.19880515
v -0.09500201 0.34421504 0.22754505
v -0.09922504 0.38057932 0.22040260
v -0.11821956 0.39778924 0.19892883
v -0.11821956 0.39361089 0.20168069
v -0.10790065 0.37751794 0.21828459
v -0.09500201 0.40846273 0.20002648
v -0.11119634 0.40047830 0.20066035
v -0.11786272 0.39816159 0.19885154
v -0.11821956 0.08767931 0.15230186
v -0.09500201 0.16876462 0.19136897
v -0.09500201 0.37499437 0.21932042
v -0.09500201 0.38446811 0.21457423
v -0.11821956 0.42021185 0.17999050
v -0.09500201 0.41392356 0.19537306
v -0.11317148 0.42112195 0.18166016
v -0.11821956 0.05843067 0.13076626
v -0.11821956 0.05325942 0.12688583
v -0.09500201 0.10203472 0.13664101
v -0.11120543 0.43117490 0.17116290
v -0.11821956 0.42149431 0.17790341
v -0.10500044 0.42252856 0.18311338
v -0.09500201 0.42889953 0.17804255
v -0.11821956 0.05172873 0.12543260
v -0.09500201 0.09210590 0.12789072
v -0.09500201 0.09653249 0.13197213
v -0.09500201 0.44089687 0.16085117
v -0.10013646 0.44002807 0.16006272
v -0.11821956 0.44201386 0.14324237
v -0.11821956 0.04949474 0.12311362
v -0.09500201 0.08714150 0.12291265
v -0.09500201 0.08925137 0.12507702
v -0.09500201 0.45897558 0.11747077
v -0.11821956 0.44404098 0.13741401
v -0.09500201 0.46091998 0.11246177
v -0.09500201 0.46365041 0.10501011
v -0.11821956 0.04833637 0.12189229
v -0.09500201 0.08259079 0.11773358
v -0.10227071 0.46087861 0.10501011
v -0.10726879 0.45893419 0.10501011
v -0.11499888 0.45591420 0.10501011
v -0.11821956 0.45463172 0.10502557
v -0.09500201 0.46518108 0.07698136
v -0.10500044 0.46319532 0.07698136
v -0.11406927 0.46129230 0.07698136
v -0.11653990 0.46067175 0.07698136
v -0.11821956 0.46021667 0.07698136
v -0.11821956 0.04320650 0.11491989
v -0.09500201 0.08035681 0.11510541
v -0.09500201 0.11705205 0.07698136
v -0.11821956 0.09227139 0.07698136
v -0.11821956 0.04254457 0.11366764
v -0.09985463 0.06980744 0.11029738
v -0.09500201 0.07940529 0.10936979
v -0.09500201 0.08590040 0.09820776
v -0.09879773 0.07853653 0.09925903
v -0.10831887 0.06819400 0.09907351
v -0.11821956 0.04353745 0.10804024
v -0.11641489 0.09417440 0.07698136
v -0.09985463 0.06980744 0.10955531
v -0.09500201 0.07890885 0.10538115
f 1 2 3
f 1 3 4
f 1 4 11
f 1 11 20
f 1 20 19
f 1 19 30
f 1 30 38
f 1 38 45
f 1 45 44
f 1 44 51
f 1 51 50
f 1 50 57
f 1 57 68
f 1 68 73
f 1 73 80
f 1 80 74
f 1 74 69
f 1 69 62
f 1 62 55
f 1 55 54
f 1 54 52
f 1 52 46
f 1 46 42
f 1 42 34
f 1 34 26
f 1 26 32
f 1 32 31
f 1 31 21
f 1 21 13
f 1 13 12
f 1 12 5
f 1 5 6
f 1 6 2
f 2 7 8
f 2 8 9
f 2 9 3
f 2 6 7
f 3 9 10
f 3 10 4
f 4 10 11
f 5 12 6
f 6 13 14
f 6 14 15
f 6 15 16
f 6 16 24
f 6 24 23
f 6 23 33
f 6 33 40
f 6 40 48
f 6 48 53
f 6 53 61
f 6 61 66
f 6 66 70
f 6 70 77
f 6 77 71
f 6 71 67
f 6 67 56
f 6 56 49
f 6 49 43
f 6 43 37
f 6 37 36
f 6 36 29
f 6 29 17
f 6 17 8
f 6 8 7
f 6 12 13
f 8 17 9
f 9 17 18
f 9 18 10
f 10 18 17
f 10 17 19
f 10 19 20
f 10 20 11
f 13 21 22
f 13 22 14
f 14 23 24
f 14 24 25
f 14 25 15
f 14 22 26
f 14 26 27
f 14 27 28
f 14 28 23
f 15 25 24
f 15 24 16
f 17 29 19
f 19 29 30
f 21 31 22
f 22 31 32
f 22 32 26
f 23 28 33
f 26 34 27
f 27 34 35
f 27 35 33
f 27 33 28
f 29 36 30
f 30 36 37
f 30 37 38
f 33 35 39
f 33 39 40
f 34 41 35
f 34 42 41
f 35 41 39
f 37 43 44
f 37 44 45
f 37 45 38
f 39 42 46
f 39 46 47
f 39 47 48
f 39 48 40
f 39 41 42
f 43 49 50
f 43 50 51
f 43 51 44
f 46 52 47
f 47 52 48
f 48 52 54
f 48 54 55
f 48 55 53
f 49 56 50
f 50 56 57
f 53 55 58
f 53 58 59
f 53 59 60
f 53 60 61
f 55 62 63
f 55 63 64
f 55 64 65
f 55 65 66
f 55 66 58
f 56 67 68
f 56 68 57
f 58 66 59
f 59 66 60
f 60 66 61
f 62 69 78
f 62 78 70
f 62 70 66
f 62 66 65
f 62 65 64
f 62 64 63
f 67 71 72
f 67 72 68
f 68 72 73
f 69 74 75
f 69 75 76
f 69 76 77
f 69 77 78
f 70 78 77
f 71 77 79
f 71 79 72
f 72 79 80
f 72 80 73
f 74 80 75
f 75 80 77
f 75 77 76
f 77 80 79

