# https://github.com/mikedh/trimesh
v -0.11822186 -0.48187870 -0.02486095
v -0.11822186 -0.48072523 -0.01569068
v -0.12540537 -0.48081398 -0.02466890
v -0.13129954 -0.48028159 -0.02778968
v -0.13129954 -0.48028159 -0.03105448
v -0.11822186 -0.48183435 -0.02745359
v -0.12897871 -0.47979358 -0.02111602
v -0.11822186 -0.48014849 -0.01180172
v -0.12540537 -0.47943866 -0.01449038
v -0.13502024 -0.47744226 -0.01497050
v -0.13479921 -0.47895065 -0.02466890
v -0.14500350 -0.47580075 -0.02495698
v -0.12500015 -0.48076957 -0.03263888
v -0.16069672 -0.47025520 -0.03076641
v -0.14500350 -0.47495782 -0.03499146
v -0.12028481 -0.46005133 -0.15031600
v -0.11822186 -0.46098298 -0.14825150
v -0.11822186 -0.46160409 -0.14498669
v -0.11822186 -0.48103577 -0.03441532
v -0.13502024 -0.47575641 -0.00498403
v -0.11822186 -0.47970486 -0.00916106
v -0.11921650 -0.47983795 -0.01084148
v -0.12500015 -0.47788590 -0.00498403
v -0.16500683 -0.45672399 0.06496929
v -0.17502692 -0.45388466 0.06496929
v -0.21079716 -0.45029113 -0.01794724
v -0.16069672 -0.47025520 -0.02798172
v -0.21610191 -0.44847217 -0.02495698
v -0.21064982 -0.45024675 -0.03071840
v -0.13502024 -0.45565924 -0.14498669
v -0.12687892 -0.45889786 -0.14498669
v -0.12415287 -0.45778874 -0.15420496
v -0.11822186 -0.45907533 -0.15655756
v -0.11822186 -0.46027315 -0.15166035
v -0.11822186 -0.47890627 -0.00479198
v -0.11822186 -0.46799260 0.05488679
v -0.14839265 -0.45969641 0.06746591
v -0.16500683 -0.45446140 0.07495576
v -0.17487957 -0.45166641 0.07476372
v -0.18121579 -0.45046860 0.07130686
v -0.18243147 -0.45100096 0.06496929
v -0.21448103 -0.44847217 -0.01473044
v -0.22501686 -0.44376951 -0.01497050
v -0.22501686 -0.44434628 -0.02495698
v -0.23068999 -0.44044220 -0.03129454
v -0.22531156 -0.44230551 -0.03475140
v -0.22004364 -0.41999012 -0.14004147
v -0.21831223 -0.41919154 -0.14671513
v -0.21164446 -0.42069995 -0.15305269
v -0.20987621 -0.41990137 -0.15972635
v -0.13502024 -0.45339665 -0.15497318
v -0.14003028 -0.44998056 -0.15996641
v -0.13502024 -0.45108968 -0.16222295
v -0.11822186 -0.45854294 -0.15804592
v -0.11822186 -0.46590745 0.06496929
v -0.14172485 -0.46031752 0.07087475
v -0.16007046 -0.44998056 0.08998349
v -0.16404903 -0.45104533 0.08489423
v -0.16673824 -0.44927073 0.08820704
v -0.17149042 -0.45055732 0.08153339
v -0.23032160 -0.43010524 0.07029861
v -0.20110863 -0.42056686 0.13074556
v -0.22044887 -0.42030066 0.11058058
v -0.24502020 -0.42460403 0.06496929
v -0.23094785 -0.44053093 -0.01497050
v -0.23142676 -0.44088584 -0.02495698
v -0.25224054 -0.42123234 0.06496929
v -0.25010392 -0.43001652 -0.02020380
v -0.30046222 -0.37034616 -0.13139933
v -0.29552585 -0.37269747 -0.13480818
v -0.27025461 -0.39013276 -0.13053513
v -0.22560626 -0.41275871 -0.15492517
v -0.21499676 -0.41848171 -0.15583739
v -0.22269602 -0.41164958 -0.16241500
v -0.21525463 -0.41360164 -0.16543975
v -0.20593446 -0.41812682 -0.16534373
v -0.20320842 -0.42136544 -0.16227096
v -0.12953129 -0.44980311 -0.16966480
v -0.16110195 -0.44044220 -0.16092664
v -0.12573692 -0.45308608 -0.16577584
v -0.11822186 -0.45583671 -0.16471958
v -0.11822186 -0.46306813 0.07514781
v -0.13502024 -0.46093863 0.07260318
v -0.12853666 -0.45974079 0.07927683
v -0.12190571 -0.46031752 0.08071719
v -0.11822186 -0.46062809 0.08138935
v -0.11822186 -0.44328153 0.12085513
v -0.24520439 -0.42207527 0.07505178
v -0.25113538 -0.42061120 0.07173897
v -0.11822186 -0.43866760 0.12762481
v -0.19503027 -0.42105487 0.13156179
v -0.21094452 -0.40020353 0.15023839
v -0.21761230 -0.39896131 0.14841396
v -0.33026463 -0.35020465 0.15019038
v -0.24520439 -0.41830426 0.08537434
v -0.24866721 -0.41936901 0.07841261
v -0.25010392 -0.43001652 -0.01972368
v -0.26999673 -0.40996373 0.06986650
v -0.25721377 -0.41830426 0.06496929
v -0.31051916 -0.39044333 -0.01160967
v -0.29777300 -0.39851767 -0.01497050
v -0.26664442 -0.41763878 -0.02495698
v -0.30506706 -0.36497805 -0.13495222
v -0.30363035 -0.36329219 -0.14498669
v -0.29920971 -0.36941451 -0.13802496
v -0.30565646 -0.39306080 -0.01497050
v -0.32072344 -0.38068309 -0.01247388
v -0.34028471 -0.36027539 -0.02082795
v -0.36997658 -0.32997438 -0.02990220
v -0.29276296 -0.37176582 -0.14498669
v -0.22932696 -0.40947571 -0.15823796
v -0.24067324 -0.40042534 -0.16054255
v -0.22560626 -0.40730184 -0.16543975
v -0.21871746 -0.40920952 -0.16908866
v -0.21204968 -0.41102847 -0.17134520
v -0.19834572 -0.41923591 -0.16894463
v -0.12286352 -0.45104533 -0.17148927
v -0.15027140 -0.44008726 -0.17014492
v -0.13483605 -0.44323716 -0.17528218
v -0.13137323 -0.44061965 -0.18080357
v -0.12500015 -0.44195059 -0.18262801
v -0.12573692 -0.44745180 -0.17489809
v -0.11822186 -0.45441705 -0.16750428
v -0.12514751 -0.46169281 0.07553191
v -0.11822186 -0.43392059 0.13266605
v -0.15078714 -0.41040736 0.15043044
v -0.11822186 -0.39119750 0.17064345
v -0.23164779 -0.38099366 0.16075301
v -0.41112527 -0.25246945 0.15316713
v -0.39933693 -0.29922974 0.08835108
v -0.40069997 -0.30069375 0.08172544
v -0.38198596 -0.32207748 0.07495576
v -0.37708643 -0.32709068 0.07495576
v -0.34371069 -0.36386892 0.06496929
v -0.33847964 -0.36883777 0.06496929
v -0.33181185 -0.37110037 0.07269920
v -0.31976563 -0.37984017 0.06933837
v -0.34102148 -0.30069375 0.19066441
v -0.34768927 -0.29678968 0.18687147
v -0.35008377 -0.30011702 0.18019781
v -0.31051916 -0.39044333 -0.00844089
v -0.27077034 -0.41040736 0.06319285
v -0.32079712 -0.38046128 0.06266472
v -0.33346957 -0.37216508 0.06496929
v -0.31586075 -0.38294569 0.06559344
v -0.28889492 -0.39931622 0.06496929
v -0.33873749 -0.36905956 0.05498282
v -0.30959818 -0.35960993 -0.13855311
v -0.30856672 -0.35845643 -0.14498669
v -0.30186209 -0.36165071 -0.15218848
v -0.29777300 -0.36830539 -0.14498669
v -0.36647692 -0.33662906 -0.01497050
v -0.34603152 -0.35619384 -0.01497050
v -0.34102148 -0.36098522 -0.01497050
v -0.37075019 -0.33072859 -0.02322855
v -0.37668121 -0.32660267 -0.01497050
v -0.37531817 -0.32531610 -0.02639733
v -0.37988615 -0.31985927 -0.02956612
v -0.36198264 -0.31196237 -0.12496573
v -0.34183192 -0.33179334 -0.12496573
v -0.33173817 -0.34168664 -0.12496573
v -0.29117891 -0.37074542 -0.15113223
v -0.27939057 -0.37952963 -0.14834753
v -0.28764242 -0.36826101 -0.15780586
v -0.25190902 -0.39137495 -0.16159880
v -0.24439393 -0.39452484 -0.16443151
v -0.23021108 -0.40011477 -0.17014492
v -0.22501686 -0.40202248 -0.17240149
v -0.21967526 -0.39975989 -0.17969927
v -0.21588089 -0.40552726 -0.17552224
v -0.20670809 -0.40849969 -0.17801887
v -0.20401886 -0.41218197 -0.17480206
v -0.19167796 -0.42074430 -0.17096111
v -0.11822186 -0.45171079 -0.17240149
v -0.11822186 -0.43924433 -0.18920565
v -0.20004031 -0.41000807 -0.17998737
v -0.15203966 -0.43090379 -0.18118766
v -0.12500015 -0.43786904 -0.18762124
v -0.12500015 -0.42260763 0.14226842
v -0.11822186 -0.35220104 0.18994424
v -0.11895862 -0.35149121 0.19080845
v -0.12500015 -0.35748041 0.18859988
v -0.13502024 -0.37123343 0.18087000
v -0.14131963 -0.37083417 0.18048590
v -0.19503027 -0.35366505 0.18341461
v -0.33497995 -0.30166978 0.19162464
v -0.43901205 -0.22829077 0.09497672
v -0.42018756 -0.27034840 0.08062117
v -0.40979910 -0.28969133 0.07831659
v -0.40342599 -0.29550311 0.08499025
v -0.39082724 -0.24102341 0.19181669
v -0.42158741 -0.22274520 0.17155567
v -0.42261890 -0.22434232 0.16497806
v -0.40158409 -0.30166978 0.07495576
v -0.39679506 -0.30668297 0.07495576
v -0.39178503 -0.31191799 0.07495576
v -0.38699600 -0.31688684 0.07495576
v -0.34868389 -0.35863391 0.06496929
v -0.34378439 -0.36404639 0.05498282
v -0.32448098 -0.37766629 0.06559344
v -0.33497995 -0.29497072 0.19565764
v -0.38069662 -0.24031356 0.20017076
v -0.37704960 -0.32709068 -0.00498403
v -0.37170801 -0.33161587 -0.01497050
v -0.35940394 -0.30938923 -0.13850510
v -0.29497328 -0.36493367 -0.15497318
v -0.31155065 -0.35166866 -0.15175638
v -0.30528808 -0.35526219 -0.15530926
v -0.29880449 -0.35885572 -0.15881410
v -0.38172811 -0.32207748 -0.00498403
v -0.38128603 -0.32158947 -0.01497050
v -0.38578033 -0.31497917 -0.01497050
v -0.38320163 -0.31591082 -0.02572517
v -0.42932352 -0.24905339 -0.01497050
v -0.42044544 -0.26063254 -0.02150012
v -0.37999669 -0.29000190 -0.12002051
v -0.37111861 -0.30158105 -0.12496573
v -0.36699268 -0.30659425 -0.12496573
v -0.29213670 -0.36156195 -0.16188687
v -0.28097463 -0.37070107 -0.16083062
v -0.28837919 -0.35876700 -0.16856053
v -0.22501686 -0.39780784 -0.17739472
v -0.23757881 -0.38813633 -0.17787483
v -0.23091102 -0.39062077 -0.18061152
v -0.22501686 -0.39279461 -0.18257999
v -0.21606508 -0.39576706 -0.18570077
v -0.21300748 -0.40180063 -0.18200386
v -0.11822186 -0.43884507 -0.18963775
v -0.20350313 -0.40428507 -0.18430844
v -0.19503027 -0.41111720 -0.18133169
v -0.13914616 -0.42957288 -0.18958974
v -0.11822186 -0.35007155 0.19095248
v -0.12500015 -0.34496963 0.19320905
v -0.12500015 -0.35246724 0.19109651
v -0.16500683 -0.33498758 0.19709802
v -0.19123590 -0.34142044 0.19047236
v -0.44070664 -0.22132553 0.10213049
v -0.44155392 -0.22327757 0.09497672
v -0.41013062 -0.29026809 0.07164294
v -0.44556934 -0.21502575 0.09497672
v -0.43945414 -0.22886750 0.08499025
v -0.43838578 -0.23436871 0.00543455
v -0.43842265 -0.23436871 -0.00541614
v -0.40714669 -0.29417217 0.07495576
v -0.38684866 -0.23503418 0.19791421
v -0.44008037 -0.12030737 0.18010178
v -0.45142666 -0.13179781 0.16152120
v -0.46137309 -0.14138055 0.14169228
v -0.44777966 -0.20446698 0.10438704
v -0.44273275 -0.21560249 0.10525126
v -0.41013062 -0.29026809 0.06890626
v -0.40151042 -0.30166978 0.06496929
v -0.39701611 -0.30668297 0.06496929
v -0.39200604 -0.31222856 0.06496929
v -0.38246489 -0.32269859 0.06496929
v -0.37285000 -0.33303553 0.06496929
v -0.36316144 -0.34332812 0.06496929
v -0.35343608 -0.35362071 0.06496929
v -0.30503020 -0.25167090 0.22168007
v -0.31114542 -0.25078362 0.22081587
v -0.31468192 -0.24435075 0.22144002
v -0.33509049 -0.14541772 0.23896438
v -0.38997993 -0.11001480 0.21999967
v -0.38183862 -0.23503418 0.20060286
v -0.36916614 -0.29869735 -0.13759285
v -0.36249837 -0.30273452 -0.14311424
v -0.36489287 -0.30486402 -0.13471216
v -0.32120234 -0.34133172 -0.15137228
v -0.30539858 -0.34541327 -0.16543975
v -0.30200943 -0.35220104 -0.16227096
v -0.29906237 -0.34896243 -0.16894463
v -0.29239458 -0.35211229 -0.17220944
v -0.38997993 -0.30996597 -0.00954516
v -0.43260217 -0.24404019 -0.01497050
v -0.43017080 -0.25029561 -0.00138314
v -0.40055260 -0.26085436 -0.11214656
v -0.42029807 -0.23050900 -0.11094627
v -0.37903887 -0.28849351 -0.12669417
v -0.37631282 -0.29399472 -0.12400550
v -0.37027130 -0.30033883 -0.13091922
v -0.28502688 -0.35504037 -0.17513815
v -0.28171140 -0.36120704 -0.17139322
v -0.25986612 -0.36985815 -0.17984334
v -0.24207310 -0.38148165 -0.18133169
v -0.21912268 -0.38928983 -0.18944570
v -0.21245490 -0.39177424 -0.19141418
v -0.20692912 -0.39842892 -0.18862951
v -0.12500015 -0.43290019 -0.19251847
v -0.11822186 -0.41768315 -0.20802629
v -0.18501016 -0.40872151 -0.18877354
v -0.17988960 -0.40991935 -0.18992582
v -0.11822186 -0.34452596 0.19200873
v -0.11822186 -0.33818182 0.19301701
v -0.12765253 -0.29319614 0.20132306
v -0.13502024 -0.33498758 0.19623378
v -0.14500350 -0.33498758 0.19724205
v -0.15502357 -0.33498758 0.19733807
v -0.16500683 -0.32806671 0.19949859
v -0.45021099 -0.20078473 0.10064212
v -0.44899529 -0.20641902 0.09497672
v -0.44019091 -0.23059772 0.00240980
v -0.43989617 -0.22979917 -0.00901703
v -0.43963832 -0.22904496 -0.01497050
v -0.43724382 -0.23503418 -0.01497050
v -0.43260217 -0.24581477 -0.00479198
v -0.44019091 -0.23059772 -0.00239139
v -0.39591095 -0.10500160 0.21745503
v -0.46019423 -0.05105427 0.17021134
v -0.41911924 -0.10500160 0.19906649
v -0.48034495 -0.07061905 0.13045749
v -0.48167109 -0.07288164 0.12498415
v -0.46402544 -0.13503641 0.13497064
v -0.41027799 -0.28041914 -0.00191127
v -0.16500683 -0.32305351 0.20093894
v -0.26502353 -0.21391664 0.23224270
v -0.30503020 -0.24501622 0.22345653
v -0.33184868 -0.14235657 0.24045274
v -0.38496989 -0.10500160 0.22307244
v -0.39090091 -0.10500160 0.22038376
v -0.37988615 -0.27979803 -0.13970539
v -0.37119228 -0.29204267 -0.14176989
v -0.36570331 -0.29590237 -0.14575487
v -0.37233427 -0.29523692 -0.13456813
v -0.38990626 -0.26986039 -0.12967090
v -0.40943068 -0.23911573 -0.12823054
v -0.35980916 -0.29980648 -0.14978787
v -0.33085403 -0.33095041 -0.15098819
v -0.35218358 -0.30419856 -0.15410894
v -0.31840262 -0.32824415 -0.16817644
v -0.30875090 -0.33862549 -0.16856053
v -0.30211997 -0.34230775 -0.17201740
v -0.29545218 -0.34545761 -0.17542621
v -0.28837919 -0.34856313 -0.17888308
v -0.42191896 -0.22522961 -0.11454716
v -0.42007703 -0.22021641 -0.13019904
v -0.41922975 -0.22869004 -0.11761992
v -0.41274616 -0.23547783 -0.12491772
v -0.40714669 -0.24452820 -0.12491772
v -0.27743813 -0.35796845 -0.17806688
v -0.28171140 -0.35131374 -0.18099561
v -0.27500677 -0.34244084 -0.19189429
v -0.27253860 -0.33192644 -0.20149669
v -0.21514411 -0.38507521 -0.19506308
v -0.21112871 -0.38086057 -0.20063248
v -0.20589763 -0.37527061 -0.20773822
v -0.20501351 -0.38276821 -0.20231289
v -0.19779316 -0.37877542 -0.20908257
v -0.20501351 -0.38778144 -0.19827989
v -0.19900882 -0.38951164 -0.19957620
v -0.20026134 -0.40011477 -0.19006985
v -0.12500015 -0.41129464 -0.21109906
v -0.11822186 -0.41271433 -0.21229935
v -0.11822186 -0.33498758 0.19344911
v -0.12765253 -0.28680766 0.20132306
v -0.25798738 -0.21245262 0.23147452
v -0.11822186 -0.29528129 0.19695395
v -0.46999329 -0.15007600 0.01009170
v -0.45706296 -0.18503530 0.00495443
v -0.44475889 -0.21502575 -0.01497050
v -0.44564301 -0.21502575 -0.00498403
v -0.44991627 -0.19980870 -0.01914754
v -0.42619222 -0.21502575 -0.11497926
v -0.45945746 -0.17855808 0.00495443
v -0.45916277 -0.17771515 -0.00498403
v -0.45651037 -0.18503530 -0.00498403
v -0.39123243 -0.09501956 0.22057581
v -0.39082724 -0.05114299 0.22105592
v -0.42040858 -0.03144512 0.20041081
v -0.46019423 -0.04972333 0.17021134
v -0.48034495 -0.06671496 0.13045749
v -0.48200268 -0.06405309 0.12599239
v -0.49360681 -0.02865015 0.06496929
v -0.49305421 -0.03503865 0.06496929
v -0.30915612 -0.05167538 0.24021268
v -0.32790697 -0.14235657 0.24045274
v -0.33184868 -0.13858558 0.24045274
v -0.38489622 -0.04524250 0.22336051
v -0.40965173 -0.22944425 -0.13941732
v -0.39045882 -0.26076564 -0.14061761
v -0.38183862 -0.27314335 -0.14253810
v -0.36887145 -0.28809422 -0.14844355
v -0.35988283 -0.28982443 -0.15982237
v -0.41805092 -0.22664928 -0.12496573
v -0.35800406 -0.29585803 -0.15588540
v -0.35026798 -0.30029449 -0.16030249
v -0.34061626 -0.31067580 -0.16073459
v -0.32809114 -0.31781849 -0.16774434
v -0.33103824 -0.31116381 -0.17091310
v -0.29847294 -0.33813748 -0.17869103
v -0.29180518 -0.34190845 -0.18137971
v -0.27920637 -0.32922018 -0.19948018
v -0.28042206 -0.34031135 -0.19026190
v -0.42081380 -0.22163609 -0.12496573
v -0.42346621 -0.21502575 -0.12496573
v -0.42917615 -0.19781230 -0.12703025
v -0.43945414 -0.16862041 -0.12813452
v -0.43039185 -0.19115761 -0.13077518
v -0.42103484 -0.21502575 -0.13202348
v -0.41830879 -0.21502575 -0.13706473
v -0.41156733 -0.22278956 -0.14220199
v -0.27552253 -0.32553792 -0.20384926
v -0.26598132 -0.32567102 -0.20869848
v -0.24881457 -0.33893603 -0.20946667
v -0.22074357 -0.36054158 -0.21033087
v -0.20980252 -0.36976942 -0.20985076
v -0.21503359 -0.36772865 -0.20831436
v -0.20313475 -0.37212074 -0.21133912
v -0.19466189 -0.37527061 -0.21239537
v -0.19112536 -0.38050562 -0.21037889
v -0.19506711 -0.38498646 -0.20500156
v -0.15049244 -0.40020353 -0.21018684
v -0.14500350 -0.40149009 -0.21124309
v -0.13409927 -0.40508363 -0.21239537
v -0.11822186 -0.40561599 -0.21734062
v -0.28160089 -0.02865015 0.22945800
v -0.16953798 -0.22957733 0.21025327
v -0.11822186 -0.28467816 0.19580168
v -0.11822186 -0.19940943 0.18043786
v -0.30915612 -0.04941277 0.24021268
v -0.46999329 -0.15007600 0.00975562
v -0.49456459 -0.02865015 0.05498282
v -0.45021099 -0.20065163 -0.01247388
v -0.46096784 -0.17270195 -0.00498403
v -0.46734092 -0.15500048 -0.00498403
v -0.46052578 -0.17154847 -0.01314605
v -0.46594107 -0.15500048 -0.01497050
v -0.45389485 -0.14501846 -0.10499279
v -0.45046884 -0.15136258 -0.11166644
v -0.44011724 -0.18042138 -0.11051416
v -0.46126255 -0.17354488 0.00495443
v -0.39082724 -0.04870294 0.22105592
v -0.42040858 -0.02865015 0.20041081
v -0.45039517 -0.02927126 0.17045140
v -0.47050905 -0.02865015 0.14034796
v -0.48137641 -0.02865015 0.12167133
v -0.48229736 -0.03503865 0.12311169
v -0.48443401 -0.03503865 0.11499768
v -0.48436034 -0.04502068 0.11499768
v -0.48307097 -0.02865015 0.11514171
v -0.32790697 -0.13858558 0.24045274
v -0.31085071 -0.04941277 0.24021268
v -0.37498665 -0.04502068 0.22643328
v -0.38496989 -0.02865015 0.21644679
v -0.39215341 -0.25504261 -0.14297020
v -0.37041867 -0.27070332 -0.16059056
v -0.36179844 -0.28312540 -0.16236699
v -0.35910922 -0.27842274 -0.16899264
v -0.35748833 -0.28587598 -0.16539174
v -0.35012060 -0.29013500 -0.17009690
v -0.35218358 -0.29408345 -0.16419145
v -0.33770603 -0.30734846 -0.16736025
v -0.30127269 -0.33148277 -0.18094760
v -0.29438385 -0.33423337 -0.18450049
v -0.28532159 -0.32553792 -0.19727165
v -0.28219029 -0.32256550 -0.20159271
v -0.45072672 -0.14209038 -0.12251713
v -0.45175821 -0.14524028 -0.11497926
v -0.44973207 -0.13916233 -0.12919077
v -0.44066978 -0.16196573 -0.13120729
v -0.41952446 -0.20868161 -0.13917726
v -0.41307771 -0.21502575 -0.14532277
v -0.40917283 -0.21835309 -0.14887565
v -0.40007371 -0.22017205 -0.16011044
v -0.26995990 -0.31990361 -0.20994678
v -0.25938722 -0.32944202 -0.20970672
v -0.25271946 -0.33228135 -0.21100304
v -0.21503359 -0.35499603 -0.21508405
v -0.20589763 -0.36586532 -0.21345165
v -0.19506711 -0.36466748 -0.21786875
v -0.18501016 -0.37496006 -0.21546814
v -0.18501016 -0.38196969 -0.21138713
v -0.16500683 -0.39172989 -0.21133912
v -0.12698944 -0.39838457 -0.21916506
v -0.11822186 -0.40264356 -0.21921307
v -0.28896859 -0.02865015 0.23123446
v -0.21952790 -0.04910223 0.20069888
v -0.21823856 -0.02865015 0.19460139
v -0.16924326 -0.02865015 0.16080102
v -0.20527138 -0.02865015 0.18634334
v -0.21488625 -0.02865015 0.19268090
v -0.11822186 -0.12682897 0.12219945
v -0.14901890 -0.02865015 0.12272760
v -0.15100817 -0.02865015 0.12772083
v -0.29983598 -0.02865015 0.23147452
v -0.47065639 -0.14315513 -0.00498403
v -0.46980911 -0.14914435 0.00308197
v -0.46955124 -0.14816833 -0.00498403
v -0.49438041 -0.02865015 0.04514038
v -0.47036168 -0.14173546 -0.01180172
v -0.46885130 -0.14506280 -0.01506653
v -0.45709980 -0.13503641 -0.10499279
v -0.45503682 -0.13503641 -0.11497926
v -0.45010048 -0.02865015 0.17025936
v -0.45065305 -0.02865015 0.16953918
v -0.48170796 -0.02865015 0.12051905
v -0.33291700 -0.02865015 0.23123446
v -0.38095450 -0.25167090 -0.16121471
v -0.39675823 -0.21502575 -0.16673607
v -0.36949769 -0.25907978 -0.16947275
v -0.36095116 -0.27172369 -0.17086509
v -0.35487279 -0.27478483 -0.17489809
v -0.34864706 -0.27784601 -0.17893109
v -0.35192570 -0.28498870 -0.17177734
v -0.34197930 -0.28237119 -0.18152374
v -0.33917955 -0.28902587 -0.17936319
v -0.32742804 -0.30499712 -0.17801887
v -0.31074017 -0.32087964 -0.18056351
v -0.34724721 -0.29678968 -0.16697612
v -0.34039524 -0.27052584 -0.19035792
v -0.30477235 -0.32451755 -0.18282005
v -0.29574689 -0.31582209 -0.19554320
v -0.30779311 -0.29736641 -0.19827989
v -0.32006034 -0.28010860 -0.20005631
v -0.30116215 -0.30131486 -0.20082453
v -0.28885809 -0.31861705 -0.19904807
v -0.28532159 -0.31515661 -0.20346516
v -0.27563304 -0.31595516 -0.20874649
v -0.45183188 -0.13552442 -0.12549387
v -0.45065305 -0.13250764 -0.13111126
v -0.44759545 -0.13552442 -0.13466415
v -0.44350636 -0.14563955 -0.13576841
v -0.42965508 -0.17904608 -0.13946533
v -0.42066646 -0.20202693 -0.14104971
v -0.41727731 -0.20522118 -0.14460260
v -0.41193572 -0.20504373 -0.15300468
v -0.41072005 -0.21169841 -0.15113223
v -0.40666780 -0.21502575 -0.15463707
v -0.40147358 -0.21502575 -0.16169482
v -0.27935374 -0.30912304 -0.20965871
v -0.27268595 -0.31324893 -0.21119508
v -0.25014076 -0.29009062 -0.23001575
v -0.24502020 -0.29749951 -0.22895947
v -0.24502020 -0.30499712 -0.22579071
v -0.26329213 -0.32278731 -0.21119508
v -0.22501686 -0.33764946 -0.21897301
v -0.21985945 -0.33982331 -0.21993324
v -0.20921311 -0.34931734 -0.21969318
v -0.20552924 -0.35526219 -0.21844488
v -0.19841941 -0.35876700 -0.21945313
v -0.18501016 -0.36799484 -0.21902102
v -0.19506711 -0.35526219 -0.22214180
v -0.19175163 -0.36111832 -0.22055739
v -0.17550582 -0.37478262 -0.21815681
v -0.12032166 -0.40015915 -0.22007728
v -0.11822186 -0.40064716 -0.22031733
v -0.11822186 -0.12194887 0.11816646
v -0.11822186 -0.11609274 0.11283714
v -0.11822186 -0.11125700 0.10496319
v -0.12886821 -0.02865015 -0.00512807
v -0.49342263 -0.02865015 0.03496186
v -0.48001337 -0.08024617 -0.01007329
v -0.46988279 -0.05935045 -0.10849766
v -0.45919961 -0.12487693 -0.10499279
v -0.45713663 -0.12501003 -0.11497926
v -0.45426321 -0.12501003 -0.12496573
v -0.39874750 -0.20690703 -0.16884860
v -0.39174819 -0.21502575 -0.17153728
v -0.39023781 -0.22048260 -0.17019293
v -0.38839588 -0.22713728 -0.16836849
v -0.37984931 -0.23978119 -0.16985685
v -0.37133962 -0.25246945 -0.17120117
v -0.34194246 -0.26498029 -0.19179827
v -0.33770603 -0.27722490 -0.18819740
v -0.32720703 -0.27496231 -0.19784778
v -0.33251178 -0.29297432 -0.18195584
v -0.33851647 -0.25743830 -0.19871199
v -0.33509049 -0.26564574 -0.19722363
v -0.32952785 -0.26941672 -0.19962421
v -0.32219699 -0.27496231 -0.20130464
v -0.30469868 -0.29439399 -0.20216885
v -0.32569665 -0.26564574 -0.20346516
v -0.28517422 -0.30548513 -0.20812231
v -0.45997322 -0.07997997 -0.12995896
v -0.45135298 -0.12501003 -0.13235956
v -0.44836906 -0.12501003 -0.13735279
v -0.43993303 -0.12962393 -0.14988390
v -0.44218016 -0.13503641 -0.14349833
v -0.44092768 -0.14271149 -0.14143381
v -0.43974882 -0.14941055 -0.13965738
v -0.40968856 -0.19927633 -0.15958232
v -0.40869391 -0.20504373 -0.15799791
v -0.40298396 -0.20415643 -0.16529572
v -0.29475224 -0.29492638 -0.20749816
v -0.28863704 -0.29820934 -0.20932263
v -0.27563304 -0.30548513 -0.21273145
v -0.25714007 -0.28498870 -0.22862339
v -0.26863372 -0.26817453 -0.22934356
v -0.27121240 -0.26151985 -0.23049587
v -0.25213003 -0.28498870 -0.23087996
v -0.24502020 -0.28498870 -0.23323253
v -0.24502020 -0.29248631 -0.23097599
v -0.23986280 -0.29985082 -0.22991973
v -0.22556943 -0.31528971 -0.22847936
v -0.21319167 -0.34266266 -0.22113356
v -0.20479247 -0.33463266 -0.22766316
v -0.19440401 -0.34430414 -0.22723106
v -0.20254533 -0.35211229 -0.22089347
v -0.19068331 -0.34053314 -0.23020780
v -0.18501016 -0.36302599 -0.22146964
v -0.18501016 -0.34244084 -0.23116803
v -0.18501016 -0.34745401 -0.22886345
v -0.18501016 -0.35499603 -0.22535861
v -0.11822186 -0.38032818 -0.23015979
v -0.11822186 -0.39177424 -0.22463840
v -0.17532162 -0.34563509 -0.23241633
v -0.14500350 -0.35499603 -0.23558512
v -0.11822186 -0.36488932 -0.23760161
v -0.11822186 -0.07634208 -0.03499146
v -0.12794724 -0.02865015 -0.01497050
v -0.47290355 -0.02865015 -0.10499279
v -0.47290355 -0.03503865 -0.10499279
v -0.47235096 -0.04502068 -0.10499279
v -0.47043535 -0.05269575 -0.11133036
v -0.45975217 -0.11862153 -0.10830561
v -0.46030474 -0.11196683 -0.11109030
v -0.40007371 -0.20025235 -0.17004889
v -0.39005363 -0.20016362 -0.18003538
v -0.37981248 -0.19958688 -0.18982980
v -0.38835904 -0.20681831 -0.17854699
v -0.34039524 -0.25078362 -0.20029637
v -0.33184868 -0.26271769 -0.20125663
v -0.32466516 -0.25517571 -0.20778623
v -0.31899202 -0.25854740 -0.20951468
v -0.31538185 -0.26577884 -0.20865044
v -0.46535164 -0.05500272 -0.12496573
v -0.46675152 -0.04502068 -0.12496573
v -0.46048895 -0.07328092 -0.13087121
v -0.45809442 -0.06502911 -0.13696870
v -0.44107503 -0.11502799 -0.15180439
v -0.44299063 -0.12580858 -0.14589891
v -0.43901205 -0.13503641 -0.14849156
v -0.43790692 -0.11502799 -0.15679762
v -0.43761218 -0.12580858 -0.15444502
v -0.43105495 -0.13321747 -0.16116670
v -0.42994976 -0.13991652 -0.15991840
v -0.41086739 -0.19257727 -0.16107067
v -0.27441737 -0.29448271 -0.21724460
v -0.29501012 -0.24501622 -0.22545463
v -0.28045890 -0.25056177 -0.23015979
v -0.27474892 -0.25437713 -0.23102400
v -0.24502020 -0.27496231 -0.23500898
v -0.23500010 -0.28498870 -0.23558512
v -0.22501686 -0.29497072 -0.23563313
v -0.21503359 -0.30499712 -0.23558512
v -0.23592106 -0.29590237 -0.23260838
v -0.23319501 -0.30264580 -0.23112002
v -0.22258550 -0.31213981 -0.23092797
v -0.20132965 -0.33108351 -0.23044786
v -0.20479247 -0.32496119 -0.23184019
v -0.19440401 -0.33463266 -0.23140809
v -0.18501016 -0.33498758 -0.23443285
v -0.17502692 -0.33498758 -0.23702547
v -0.16500683 -0.34496963 -0.23534507
v -0.11822186 -0.36293727 -0.23851386
v -0.11822186 -0.07687445 -0.04497793
v -0.11822186 -0.08228694 -0.09495831
v -0.11822186 -0.08366224 -0.10499279
v -0.12838930 -0.02865015 -0.02130807
v -0.47227728 -0.02865015 -0.10806555
v -0.47117212 -0.03503865 -0.11349089
v -0.47091424 -0.04502068 -0.11277071
v -0.46921968 -0.04502068 -0.11776395
v -0.41215676 -0.18503530 -0.16251102
v -0.42099801 -0.16289738 -0.16116670
v -0.41753519 -0.15500048 -0.16760030
v -0.41889822 -0.14683740 -0.16894463
v -0.42088747 -0.13503641 -0.17086509
v -0.39090091 -0.19501734 -0.18089959
v -0.38246489 -0.18503530 -0.19247046
v -0.38110185 -0.19293219 -0.19107810
v -0.37524450 -0.19568279 -0.19530314
v -0.36920297 -0.19847777 -0.19948018
v -0.37332889 -0.20504373 -0.19299859
v -0.35059953 -0.23121883 -0.20044044
v -0.33509049 -0.25446588 -0.20226488
v -0.33497995 -0.24501622 -0.20509759
v -0.32116550 -0.25193709 -0.21061894
v -0.30318829 -0.24501622 -0.22156566
v -0.46730408 -0.03503865 -0.12496573
v -0.46251506 -0.04502068 -0.13442409
v -0.46185195 -0.05500272 -0.13322377
v -0.45886803 -0.05500272 -0.13826501
v -0.43952781 -0.09501956 -0.15929425
v -0.43204957 -0.12501003 -0.16236699
v -0.42733425 -0.12501003 -0.16736025
v -0.42667115 -0.13596807 -0.16471958
v -0.30595118 -0.23592147 -0.22305402
v -0.28952119 -0.23929319 -0.22982371
v -0.28745821 -0.24501622 -0.22886345
v -0.28248501 -0.24501622 -0.23068792
v -0.25500345 -0.25504261 -0.23534507
v -0.24502020 -0.26498029 -0.23616126
v -0.23500010 -0.27496231 -0.23692945
v -0.25500345 -0.26498029 -0.23419279
v -0.22424324 -0.27420810 -0.23889795
v -0.22501686 -0.28498870 -0.23726553
v -0.21503359 -0.29497072 -0.23750558
v -0.20501351 -0.30499712 -0.23764962
v -0.19503027 -0.31497917 -0.23774567
v -0.18501016 -0.32496119 -0.23769766
v -0.20501351 -0.31497917 -0.23539308
v -0.19503027 -0.32496119 -0.23500898
v -0.21518096 -0.31528971 -0.23217627
v -0.15771280 -0.33813748 -0.23966613
v -0.13892514 -0.34905115 -0.23976216
v -0.11822186 -0.35983175 -0.23995420
v -0.11822186 -0.08654593 -0.11497926
v -0.13380457 -0.02865015 -0.09495831
v -0.12864718 -0.02865015 -0.02495698
v -0.47117212 -0.02865015 -0.11344288
v -0.41735098 -0.12501003 -0.17734671
v -0.41234094 -0.12501003 -0.18233994
v -0.40725723 -0.12501003 -0.18733317
v -0.40228403 -0.12501003 -0.19218239
v -0.38412261 -0.17500891 -0.19391081
v -0.37682855 -0.18503530 -0.19746369
v -0.37067652 -0.19177872 -0.20044044
v -0.36551914 -0.19510606 -0.20240891
v -0.36242470 -0.20504373 -0.20135266
v -0.32794380 -0.24501622 -0.20889053
v -0.32293376 -0.24501622 -0.21157917
v -0.30989289 -0.23986992 -0.21993324
v -0.46723038 -0.02865015 -0.12496573
v -0.46277294 -0.02865015 -0.13490421
v -0.46277294 -0.03503865 -0.13490421
v -0.45993638 -0.03503865 -0.13994545
v -0.45964164 -0.04502068 -0.13941732
v -0.45150036 -0.04502068 -0.15238053
v -0.43993303 -0.08982891 -0.15991840
v -0.44044876 -0.08317423 -0.16059056
v -0.43289685 -0.11502799 -0.16327924
v -0.42836571 -0.11502799 -0.16832048
v -0.41849297 -0.11502799 -0.17845097
v -0.40854657 -0.11502799 -0.18858150
v -0.31589758 -0.21582432 -0.22300601
v -0.30403557 -0.22403176 -0.22708702
v -0.29810455 -0.22669365 -0.22924754
v -0.29486278 -0.23556656 -0.22843134
v -0.30002016 -0.22003895 -0.22996774
v -0.29143679 -0.23263849 -0.23044786
v -0.26502353 -0.25504261 -0.23332855
v -0.27500677 -0.23503418 -0.23366466
v -0.27500677 -0.22500779 -0.23476893
v -0.22940063 -0.25885797 -0.23985818
v -0.23500010 -0.26498029 -0.23808175
v -0.21503359 -0.25504261 -0.24297896
v -0.22037520 -0.27039275 -0.24005023
v -0.20501351 -0.27496231 -0.24187469
v -0.20792376 -0.28756183 -0.23966613
v -0.20125598 -0.29142156 -0.24019426
v -0.19503027 -0.30513021 -0.23928204
v -0.17915285 -0.31906068 -0.23985818
v -0.17550582 -0.32536048 -0.23942608
v -0.16872753 -0.32895398 -0.23981017
v -0.16205975 -0.33148277 -0.24024227
v -0.12500015 -0.34496963 -0.24259487
v -0.15104502 -0.34040007 -0.24009824
v -0.13225736 -0.35104758 -0.24038631
v -0.11822186 -0.35490727 -0.24139455
v -0.13468869 -0.02865015 -0.10499279
v -0.11822186 -0.09155913 -0.12462965
v -0.40353653 -0.11502799 -0.19328666
v -0.39745817 -0.11502799 -0.19827989
v -0.39613199 -0.12501003 -0.19717562
v -0.38810116 -0.14501846 -0.19866398
v -0.37844947 -0.17500891 -0.19890404
v -0.37951779 -0.16848731 -0.19967222
v -0.37185538 -0.18503530 -0.20111260
v -0.36496654 -0.18503530 -0.20495355
v -0.34105831 -0.17279068 -0.22060540
v -0.33973214 -0.17944536 -0.21983722
v -0.34496322 -0.18503530 -0.21570820
v -0.46174145 -0.02865015 -0.13672864
v -0.45993638 -0.02865015 -0.13989744
v -0.45684195 -0.03503865 -0.14498669
v -0.45186871 -0.03503865 -0.15300468
v -0.44866377 -0.03503865 -0.15799791
v -0.44825852 -0.04502068 -0.15742177
v -0.44107503 -0.07501113 -0.16131073
v -0.43643337 -0.07501113 -0.16630396
v -0.43720698 -0.06502911 -0.16712016
v -0.43798059 -0.05500272 -0.16793638
v -0.43146014 -0.07501113 -0.17148927
v -0.40983593 -0.09910111 -0.18982980
v -0.40939385 -0.10500160 -0.18934968
v -0.33335906 -0.18503530 -0.22175771
v -0.33582726 -0.17567438 -0.22271794
v -0.31593442 -0.18503530 -0.22900748
v -0.31755531 -0.17500891 -0.22943962
v -0.30536175 -0.19413003 -0.23073593
v -0.28502688 -0.21502575 -0.23361665
v -0.28502688 -0.22500779 -0.23280042
v -0.29486278 -0.22403176 -0.23068792
v -0.32499671 -0.18503530 -0.22579071
v -0.32499671 -0.17500891 -0.22742310
v -0.28572682 -0.23556656 -0.23136008
v -0.27500677 -0.24501622 -0.23246434
v -0.25872412 -0.20726195 -0.23971415
v -0.25662434 -0.21502575 -0.23933005
v -0.25161430 -0.21502575 -0.24029028
v -0.22501686 -0.23503418 -0.24326703
v -0.22501686 -0.24501622 -0.24221078
v -0.22564310 -0.25530881 -0.24096245
v -0.21503359 -0.24501622 -0.24408323
v -0.20501351 -0.25504261 -0.24461135
v -0.19503027 -0.28498870 -0.24206674
v -0.18501016 -0.29497072 -0.24225879
v -0.16500683 -0.28498870 -0.24672389
v -0.17550582 -0.31542280 -0.24091443
v -0.17248505 -0.32229930 -0.24033830
v -0.16522786 -0.32536048 -0.24081841
v -0.13502024 -0.33498758 -0.24297896
v -0.11822186 -0.34177536 -0.24393919
v -0.11822186 -0.34496963 -0.24341106
v -0.11822186 -0.35273340 -0.24187469
v -0.11822186 -0.10863949 -0.15031600
v -0.11822186 -0.10921623 -0.15118024
v -0.13689901 -0.02865015 -0.11497926
v -0.40438381 -0.10500160 -0.19395882
v -0.39834228 -0.10500160 -0.19895205
v -0.39244813 -0.11502799 -0.20135266
v -0.39112192 -0.12501003 -0.20063248
v -0.39023781 -0.13091052 -0.20015234
v -0.38924316 -0.13760957 -0.19952819
v -0.38047558 -0.16183263 -0.20029637
v -0.37568659 -0.16511559 -0.20245692
v -0.37347627 -0.17500891 -0.20197681
v -0.36415610 -0.17460963 -0.20735413
v -0.35925657 -0.17767078 -0.20956269
v -0.35553586 -0.17460963 -0.21220332
v -0.34234768 -0.16502687 -0.22132561
v -0.45496315 -0.02865015 -0.14791542
v -0.45183188 -0.02865015 -0.15295666
v -0.44862694 -0.02865015 -0.15794989
v -0.44682184 -0.02865015 -0.16020647
v -0.44365370 -0.02865015 -0.16409543
v -0.44365370 -0.03503865 -0.16409543
v -0.44324851 -0.04502068 -0.16371134
v -0.44251174 -0.05500272 -0.16294312
v -0.43871737 -0.04502068 -0.16870457
v -0.43223375 -0.06502911 -0.17225745
v -0.41035166 -0.09244642 -0.19030991
v -0.43297052 -0.05500272 -0.17302564
v -0.33497995 -0.16502687 -0.22492647
v -0.32499671 -0.16502687 -0.22843134
v -0.31899202 -0.16502687 -0.22977570
v -0.31258211 -0.17500891 -0.23054388
v -0.26027137 -0.20060727 -0.24005023
v -0.33497995 -0.15500048 -0.22603077
v -0.25522447 -0.20437826 -0.24067438
v -0.24502020 -0.21502575 -0.24153858
v -0.24502020 -0.20504373 -0.24216276
v -0.21503359 -0.23503418 -0.24456334
v -0.20501351 -0.24501622 -0.24528351
v -0.23500010 -0.21502575 -0.24297896
v -0.19503027 -0.25504261 -0.24576363
v -0.17502692 -0.27496231 -0.24653184
v -0.18501016 -0.27496231 -0.24499545
v -0.15502357 -0.28498870 -0.24797219
v -0.15502357 -0.29497072 -0.24672389
v -0.16500683 -0.29497072 -0.24533153
v -0.16500683 -0.30499712 -0.24389118
v -0.15502357 -0.30499712 -0.24518749
v -0.15502357 -0.31497917 -0.24365112
v -0.13502024 -0.31497917 -0.24605173
v -0.12500015 -0.33498758 -0.24417925
v -0.14500350 -0.29497072 -0.24792418
v -0.12500015 -0.31497917 -0.24720401
v -0.12500015 -0.30499712 -0.24869236
v -0.11822186 -0.30535203 -0.24936453
v -0.11822186 -0.10992606 -0.15218848
v -0.13826203 -0.02865015 -0.11862817
v -0.11822186 -0.11307596 -0.15665358
v -0.11822186 -0.11999683 -0.16630396
v -0.11822186 -0.12163831 -0.16841650
v -0.41086739 -0.08503753 -0.19088605
v -0.41234094 -0.06502911 -0.19232643
v -0.41307771 -0.05500272 -0.19295058
v -0.40696251 -0.05500272 -0.19794381
v -0.40769929 -0.04502068 -0.19851995
v -0.39904222 -0.09501956 -0.19943216
v -0.39333224 -0.10500160 -0.20188078
v -0.37951779 -0.10673182 -0.20970672
v -0.38496989 -0.11502799 -0.20562571
v -0.37859681 -0.11502799 -0.20922661
v -0.38496989 -0.12501003 -0.20408931
v -0.37001342 -0.14009398 -0.20999479
v -0.37399200 -0.14408679 -0.20706606
v -0.37498665 -0.15500048 -0.20461747
v -0.34883127 -0.15500048 -0.21935710
v -0.34971538 -0.14905563 -0.21983722
v -0.35067320 -0.14240094 -0.22036535
v -0.34382123 -0.15500048 -0.22209379
v -0.43912256 -0.02865015 -0.16908866
v -0.43912256 -0.03503865 -0.16908866
v -0.41735098 -0.06502911 -0.18733317
v -0.41930342 -0.03503865 -0.18930167
v -0.41882452 -0.04502068 -0.18877354
v -0.34496322 -0.13503641 -0.22411028
v -0.35314137 -0.12501003 -0.22170970
v -0.35553586 -0.11445126 -0.22194976
v -0.33497995 -0.14501846 -0.22684696
v -0.34496322 -0.11502799 -0.22598276
v -0.33497995 -0.13503641 -0.22747111
v -0.31972879 -0.15850529 -0.22991973
v -0.30503020 -0.15500048 -0.23337656
v -0.31398198 -0.16502687 -0.23087996
v -0.30503020 -0.17500891 -0.23217627
v -0.26119232 -0.19501734 -0.24024227
v -0.35498330 -0.10500160 -0.22319806
v -0.34496322 -0.12501003 -0.22511852
v -0.25500345 -0.19501734 -0.24120250
v -0.26266587 -0.18503530 -0.24048233
v -0.26406574 -0.17500891 -0.24033830
v -0.31497663 -0.02865015 -0.23409677
v -0.13045226 -0.28973570 -0.25003669
v -0.13045226 -0.29026809 -0.25003669
v -0.16500683 -0.27496231 -0.24763611
v -0.14500350 -0.30499712 -0.24638781
v -0.13428347 -0.29417217 -0.24917248
v -0.11822186 -0.30237961 -0.24965259
v -0.13929352 -0.02865015 -0.12126882
v -0.11822186 -0.12461074 -0.17158529
v -0.41381449 -0.04502068 -0.19352672
v -0.40007371 -0.08073418 -0.20005631
v -0.39959478 -0.08738886 -0.19976825
v -0.40821502 -0.03503865 -0.19885603
v -0.40268925 -0.04502068 -0.20149669
v -0.40195248 -0.05500272 -0.20111260
v -0.37999669 -0.10003276 -0.20999479
v -0.36168793 -0.09501956 -0.22094148
v -0.36581385 -0.10500160 -0.21762869
v -0.36080378 -0.10500160 -0.22046137
v -0.36017755 -0.11068027 -0.22007728
v -0.36408243 -0.11445126 -0.21734062
v -0.43731749 -0.02865015 -0.17096111
v -0.42423981 -0.02865015 -0.18435645
v -0.41934025 -0.02865015 -0.18934968
v -0.41753519 -0.02865015 -0.19103009
v -0.41436708 -0.02865015 -0.19395882
v -0.41429338 -0.03503865 -0.19386280
v -0.34496322 -0.10500160 -0.22651088
v -0.35498330 -0.09501956 -0.22382221
v -0.29501012 -0.14501846 -0.23601723
v -0.28502688 -0.15500048 -0.23769766
v -0.29501012 -0.16502687 -0.23496097
v -0.28502688 -0.17500891 -0.23644933
v -0.26903895 -0.17500891 -0.23981017
v -0.28502688 -0.16502687 -0.23707348
v -0.36231416 -0.08503753 -0.22132561
v -0.28502688 -0.14501846 -0.23798573
v -0.31497663 -0.03503865 -0.23414478
v -0.32134968 -0.02865015 -0.23294446
v -0.31132960 -0.02865015 -0.23424080
v -0.12695260 -0.28973570 -0.25003669
v -0.30503020 -0.02865015 -0.23438483
v -0.12695260 -0.29026809 -0.25003669
v -0.11822186 -0.29417217 -0.24989265
v -0.16029149 -0.02865015 -0.15948629
v -0.11822186 -0.12953521 -0.17609841
v -0.36669797 -0.09501956 -0.21806079
v -0.40832555 -0.02865015 -0.19895205
v -0.40320498 -0.03503865 -0.20183277
v -0.39498997 -0.03503865 -0.20648992
v -0.37557605 -0.03503865 -0.21748465
v -0.37056601 -0.03503865 -0.22031733
v -0.38880110 -0.04502068 -0.20932263
v -0.35498330 -0.08503753 -0.22430232
v -0.35498330 -0.06502911 -0.22507051
v -0.34496322 -0.09501956 -0.22679895
v -0.32599136 -0.09599559 -0.23097599
v -0.33497995 -0.10500160 -0.22871941
v -0.36297727 -0.07501113 -0.22166169
v -0.36364037 -0.06502911 -0.22194976
v -0.29501012 -0.13503641 -0.23640132
v -0.29501012 -0.12501003 -0.23668939
v -0.30503020 -0.09501956 -0.23548910
v -0.29501012 -0.11502799 -0.23673740
v -0.31497663 -0.04502068 -0.23414478
v -0.32499671 -0.02865015 -0.23222429
v -0.11822186 -0.28529924 -0.24922049
v -0.11822186 -0.29190958 -0.24979663
v -0.29136309 -0.02865015 -0.23299247
v -0.16334909 -0.02865015 -0.16476759
v -0.11822186 -0.13530260 -0.18094760
v -0.40331548 -0.02865015 -0.20188078
v -0.37576026 -0.02865015 -0.21758068
v -0.37075019 -0.02865015 -0.22041336
v -0.36872408 -0.02865015 -0.22127759
v -0.36496654 -0.03503865 -0.22266993
v -0.36426663 -0.05500272 -0.22214180
v -0.35498330 -0.05500272 -0.22535861
v -0.35498330 -0.04502068 -0.22559866
v -0.31497663 -0.08503753 -0.23366466
v -0.31497663 -0.09501956 -0.23337656
v -0.30503020 -0.10500160 -0.23520103
v -0.31497663 -0.07501113 -0.23380870
v -0.31497663 -0.05500272 -0.23404875
v -0.33258545 -0.03503865 -0.23054388
v -0.35498330 -0.03503865 -0.22579071
v -0.32996991 -0.02865015 -0.23116803
v -0.11822186 -0.27496231 -0.24768412
v -0.26616552 -0.02865015 -0.23035184
v -0.26141334 -0.02865015 -0.22982371
v -0.16607516 -0.02865015 -0.16889662
v -0.11822186 -0.17017317 -0.20985076
v -0.36496654 -0.02865015 -0.22281396
v -0.36131954 -0.02865015 -0.22396624
v -0.35498330 -0.02865015 -0.22583872
v -0.11822186 -0.27176806 -0.24720401
v -0.25533497 -0.02865015 -0.22804725
v -0.11822186 -0.23587711 -0.24115449
v -0.11822186 -0.24146704 -0.24240282
v -0.11822186 -0.24501622 -0.24307498
v -0.11822186 -0.25180399 -0.24413124
v -0.11822186 -0.26174167 -0.24566761
v -0.16821179 -0.02865015 -0.17196938
v -0.11822186 -0.17163721 -0.21090701
v -0.25135642 -0.02865015 -0.22655889
v -0.11822186 -0.23339269 -0.24038631
v -0.17329551 -0.02865015 -0.17696261
v -0.11822186 -0.17323431 -0.21201128
v -0.24502020 -0.02865015 -0.22396624
v -0.11822186 -0.23108573 -0.23957011
v -0.23617893 -0.02865015 -0.22007728
v -0.17830555 -0.02865015 -0.18152374
v -0.11822186 -0.17509764 -0.21311557
v -0.11822186 -0.22953297 -0.23894596
v -0.22501686 -0.02865015 -0.21513206
v -0.21492308 -0.02865015 -0.21061894
v -0.21175498 -0.02865015 -0.20913059
v -0.18386817 -0.02865015 -0.18651697
v -0.11822186 -0.18192978 -0.21710056
v -0.11822186 -0.18893939 -0.22046137
v -0.20954466 -0.02865015 -0.20769021
v -0.18887822 -0.02865015 -0.19098207
v -0.11822186 -0.18423674 -0.21830085
v -0.20217694 -0.02865015 -0.20245692
v -0.19956140 -0.02865015 -0.20039240
v -0.19904566 -0.02865015 -0.19996029
v -0.19506711 -0.02865015 -0.19645545
v -0.20449777 -0.02865015 -0.20418534
f 1 2 3
f 1 3 4
f 1 4 5
f 1 5 6
f 1 6 19
f 1 19 18
f 1 18 17
f 1 17 34
f 1 34 33
f 1 33 54
f 1 54 81
f 1 81 123
f 1 123 174
f 1 174 175
f 1 175 228
f 1 228 289
f 1 289 352
f 1 352 414
f 1 414 474
f 1 474 545
f 1 545 604
f 1 604 603
f 1 603 607
f 1 607 654
f 1 654 706
f 1 706 759
f 1 759 815
f 1 815 814
f 1 814 813
f 1 813 870
f 1 870 921
f 1 921 958
f 1 958 982
f 1 982 981
f 1 981 1002
f 1 1002 1010
f 1 1010 1016
f 1 1016 1015
f 1 1015 1014
f 1 1014 1013
f 1 1013 1012
f 1 1012 1020
f 1 1020 1024
f 1 1024 1028
f 1 1028 1034
f 1 1034 1037
f 1 1037 1033
f 1 1033 1027
f 1 1027 1022
f 1 1022 1018
f 1 1018 1006
f 1 1006 985
f 1 985 960
f 1 960 923
f 1 923 875
f 1 875 874
f 1 874 873
f 1 873 871
f 1 871 817
f 1 817 816
f 1 816 761
f 1 761 707
f 1 707 657
f 1 657 656
f 1 656 655
f 1 655 608
f 1 608 548
f 1 548 547
f 1 547 546
f 1 546 481
f 1 481 418
f 1 418 417
f 1 417 356
f 1 356 353
f 1 353 293
f 1 293 292
f 1 292 232
f 1 232 180
f 1 180 127
f 1 127 125
f 1 125 90
f 1 90 87
f 1 87 86
f 1 86 82
f 1 82 55
f 1 55 36
f 1 36 35
f 1 35 21
f 1 21 8
f 1 8 2
f 2 7 3
f 2 8 9
f 2 9 7
f 3 7 4
f 4 7 10
f 4 10 11
f 4 11 12
f 4 12 5
f 5 13 6
f 5 12 14
f 5 14 15
f 5 15 16
f 5 16 17
f 5 17 18
f 5 18 13
f 6 13 19
f 7 9 20
f 7 20 10
f 8 21 22
f 8 22 9
f 9 22 23
f 9 23 20
f 10 20 24
f 10 24 25
f 10 25 11
f 11 25 12
f 12 26 27
f 12 27 14
f 12 25 26
f 13 18 19
f 14 27 28
f 14 28 29
f 14 29 30
f 14 30 31
f 14 31 15
f 15 31 16
f 16 31 32
f 16 32 33
f 16 33 34
f 16 34 17
f 20 23 24
f 21 23 22
f 21 35 23
f 23 35 36
f 23 36 37
f 23 37 24
f 24 37 38
f 24 38 25
f 25 38 39
f 25 39 40
f 25 40 41
f 25 41 42
f 25 42 26
f 26 42 28
f 26 28 27
f 28 42 43
f 28 43 44
f 28 44 29
f 29 44 45
f 29 45 46
f 29 46 47
f 29 47 48
f 29 48 49
f 29 49 50
f 29 50 51
f 29 51 30
f 30 51 31
f 31 51 32
f 32 51 52
f 32 52 53
f 32 53 33
f 33 53 54
f 36 55 56
f 36 56 37
f 37 56 38
f 38 56 57
f 38 57 58
f 38 58 59
f 38 59 60
f 38 60 39
f 39 60 40
f 40 61 41
f 40 60 62
f 40 62 63
f 40 63 61
f 41 61 42
f 42 61 64
f 42 64 43
f 43 65 66
f 43 66 44
f 43 64 67
f 43 67 65
f 44 66 45
f 45 66 68
f 45 68 69
f 45 69 70
f 45 70 71
f 45 71 72
f 45 72 47
f 45 47 46
f 47 72 48
f 48 72 73
f 48 73 50
f 48 50 49
f 50 73 74
f 50 74 75
f 50 75 76
f 50 76 77
f 50 77 78
f 50 78 79
f 50 79 52
f 50 52 51
f 52 79 53
f 53 79 78
f 53 78 80
f 53 80 54
f 54 80 81
f 55 82 56
f 56 83 84
f 56 84 57
f 56 82 83
f 57 59 58
f 57 84 85
f 57 85 86
f 57 86 87
f 57 87 62
f 57 62 59
f 59 62 60
f 61 63 88
f 61 88 89
f 61 89 64
f 62 87 90
f 62 90 91
f 62 91 92
f 62 92 93
f 62 93 94
f 62 94 63
f 63 94 95
f 63 95 96
f 63 96 88
f 64 89 67
f 65 97 66
f 65 67 97
f 66 97 68
f 67 89 98
f 67 98 99
f 67 99 97
f 68 97 141
f 68 141 100
f 68 100 101
f 68 101 102
f 68 102 69
f 69 103 104
f 69 104 105
f 69 105 70
f 69 102 101
f 69 101 106
f 69 106 100
f 69 100 107
f 69 107 108
f 69 108 109
f 69 109 103
f 70 105 110
f 70 110 111
f 70 111 72
f 70 72 71
f 72 111 73
f 73 111 74
f 74 111 112
f 74 112 113
f 74 113 114
f 74 114 75
f 75 114 115
f 75 115 76
f 76 115 116
f 76 116 77
f 77 116 78
f 78 117 80
f 78 116 118
f 78 118 119
f 78 119 120
f 78 120 121
f 78 121 122
f 78 122 117
f 80 117 81
f 81 117 123
f 82 86 85
f 82 85 84
f 82 84 124
f 82 124 83
f 83 124 84
f 88 96 89
f 89 96 94
f 89 94 98
f 90 125 91
f 91 125 92
f 92 94 93
f 92 125 126
f 92 126 127
f 92 127 128
f 92 128 94
f 94 129 130
f 94 130 131
f 94 131 132
f 94 132 133
f 94 133 134
f 94 134 135
f 94 135 136
f 94 136 137
f 94 137 98
f 94 96 95
f 94 128 138
f 94 138 139
f 94 139 140
f 94 140 129
f 97 99 142
f 97 142 143
f 97 143 144
f 97 144 141
f 98 137 145
f 98 145 143
f 98 143 146
f 98 146 99
f 99 146 142
f 100 106 101
f 100 141 147
f 100 147 107
f 103 148 104
f 103 109 148
f 104 149 150
f 104 150 151
f 104 151 105
f 104 148 149
f 105 151 110
f 107 152 153
f 107 153 154
f 107 154 108
f 107 147 152
f 108 154 109
f 109 154 155
f 109 155 156
f 109 156 157
f 109 157 158
f 109 158 159
f 109 159 160
f 109 160 161
f 109 161 148
f 110 151 162
f 110 162 163
f 110 163 111
f 111 163 162
f 111 162 112
f 112 164 165
f 112 165 166
f 112 166 167
f 112 167 168
f 112 168 113
f 112 162 164
f 113 168 114
f 114 168 169
f 114 169 170
f 114 170 115
f 115 170 171
f 115 171 172
f 115 172 116
f 116 172 173
f 116 173 119
f 116 119 118
f 117 174 123
f 117 122 121
f 117 121 175
f 117 175 174
f 119 173 120
f 120 173 171
f 120 171 176
f 120 176 177
f 120 177 178
f 120 178 121
f 121 178 175
f 125 179 126
f 125 127 179
f 126 179 127
f 127 180 181
f 127 181 182
f 127 182 183
f 127 183 184
f 127 184 128
f 128 184 185
f 128 185 186
f 128 186 138
f 129 187 188
f 129 188 189
f 129 189 190
f 129 190 131
f 129 131 130
f 129 140 191
f 129 191 192
f 129 192 193
f 129 193 187
f 131 190 189
f 131 189 194
f 131 194 195
f 131 195 196
f 131 196 197
f 131 197 132
f 132 197 134
f 132 134 133
f 134 197 196
f 134 196 195
f 134 195 194
f 134 194 198
f 134 198 199
f 134 199 147
f 134 147 135
f 135 147 141
f 135 141 144
f 135 144 136
f 136 144 137
f 137 144 200
f 137 200 145
f 138 186 201
f 138 201 202
f 138 202 191
f 138 191 139
f 139 191 140
f 142 146 143
f 143 145 200
f 143 200 144
f 147 199 203
f 147 203 204
f 147 204 152
f 148 161 160
f 148 160 159
f 148 159 149
f 149 159 205
f 149 205 150
f 150 206 162
f 150 162 151
f 150 205 207
f 150 207 208
f 150 208 209
f 150 209 206
f 152 204 155
f 152 155 153
f 153 155 154
f 155 204 156
f 156 204 203
f 156 203 210
f 156 210 211
f 156 211 158
f 156 158 157
f 158 211 212
f 158 212 213
f 158 213 214
f 158 214 215
f 158 215 216
f 158 216 217
f 158 217 218
f 158 218 159
f 159 218 205
f 162 206 164
f 164 219 220
f 164 220 165
f 164 206 219
f 165 220 166
f 166 220 221
f 166 221 167
f 167 221 168
f 168 222 169
f 168 221 222
f 169 222 221
f 169 221 223
f 169 223 224
f 169 224 225
f 169 225 226
f 169 226 227
f 169 227 170
f 170 227 171
f 171 227 176
f 171 173 172
f 175 178 228
f 176 227 229
f 176 229 230
f 176 230 231
f 176 231 178
f 176 178 177
f 178 231 228
f 180 232 181
f 181 232 233
f 181 233 234
f 181 234 182
f 182 234 235
f 182 235 183
f 183 235 184
f 184 235 185
f 185 235 236
f 185 236 201
f 185 201 186
f 187 193 237
f 187 237 238
f 187 238 188
f 188 239 189
f 188 238 240
f 188 240 241
f 188 241 242
f 188 242 243
f 188 243 239
f 189 239 244
f 189 244 194
f 191 202 245
f 191 245 192
f 192 245 246
f 192 246 247
f 192 247 248
f 192 248 249
f 192 249 250
f 192 250 193
f 193 250 237
f 194 244 239
f 194 239 251
f 194 251 252
f 194 252 253
f 194 253 254
f 194 254 255
f 194 255 256
f 194 256 257
f 194 257 258
f 194 258 198
f 198 258 199
f 199 258 257
f 199 257 256
f 199 256 210
f 199 210 203
f 201 236 259
f 201 259 260
f 201 260 202
f 202 260 261
f 202 261 262
f 202 262 263
f 202 263 264
f 202 264 245
f 205 265 266
f 205 266 207
f 205 218 267
f 205 267 265
f 206 209 219
f 207 266 268
f 207 268 208
f 208 269 270
f 208 270 209
f 208 268 269
f 209 270 271
f 209 271 272
f 209 272 221
f 209 221 219
f 210 273 211
f 210 256 255
f 210 255 254
f 210 254 253
f 210 253 252
f 210 252 251
f 210 251 273
f 211 273 212
f 212 273 214
f 212 214 213
f 214 274 215
f 214 273 275
f 214 275 274
f 215 274 216
f 216 276 277
f 216 277 278
f 216 278 279
f 216 279 217
f 216 274 276
f 217 279 280
f 217 280 218
f 218 280 267
f 219 221 220
f 221 272 281
f 221 281 282
f 221 282 223
f 223 283 224
f 223 282 283
f 224 283 284
f 224 284 225
f 225 284 285
f 225 285 226
f 226 285 286
f 226 286 287
f 226 287 227
f 227 287 229
f 228 231 288
f 228 288 289
f 229 287 290
f 229 290 231
f 229 231 230
f 231 290 291
f 231 291 288
f 232 292 233
f 233 292 293
f 233 293 294
f 233 294 295
f 233 295 296
f 233 296 234
f 234 296 297
f 234 297 235
f 235 297 298
f 235 298 259
f 235 259 236
f 237 250 238
f 238 250 240
f 239 243 251
f 240 250 249
f 240 249 299
f 240 299 300
f 240 300 301
f 240 301 241
f 241 301 242
f 242 301 243
f 243 302 303
f 243 303 304
f 243 304 305
f 243 305 251
f 243 301 306
f 243 306 302
f 245 264 263
f 245 263 307
f 245 307 246
f 246 308 247
f 246 307 309
f 246 309 308
f 247 308 310
f 247 310 248
f 248 310 311
f 248 311 312
f 248 312 299
f 248 299 249
f 251 305 275
f 251 275 313
f 251 313 273
f 259 298 314
f 259 314 315
f 259 315 316
f 259 316 260
f 260 316 317
f 260 317 261
f 261 317 262
f 262 317 318
f 262 318 263
f 263 318 319
f 263 319 307
f 265 320 321
f 265 321 322
f 265 322 266
f 265 267 280
f 265 280 323
f 265 323 324
f 265 324 325
f 265 325 320
f 266 322 326
f 266 326 327
f 266 327 268
f 268 327 328
f 268 328 269
f 269 329 330
f 269 330 271
f 269 271 270
f 269 328 329
f 271 330 331
f 271 331 332
f 271 332 272
f 272 332 333
f 272 333 281
f 273 313 275
f 274 275 305
f 274 305 304
f 274 304 277
f 274 277 276
f 277 334 335
f 277 335 336
f 277 336 337
f 277 337 338
f 277 338 324
f 277 324 278
f 277 304 334
f 278 324 280
f 278 280 279
f 280 324 323
f 281 333 339
f 281 339 283
f 281 283 282
f 283 339 333
f 283 333 340
f 283 340 285
f 283 285 284
f 285 341 342
f 285 342 343
f 285 343 286
f 285 340 341
f 286 343 344
f 286 344 345
f 286 345 346
f 286 346 347
f 286 347 348
f 286 348 287
f 287 348 347
f 287 347 349
f 287 349 350
f 287 350 290
f 288 291 350
f 288 350 351
f 288 351 289
f 289 351 352
f 290 350 291
f 293 353 294
f 294 354 355
f 294 355 295
f 294 353 356
f 294 356 354
f 295 355 315
f 295 315 296
f 296 315 314
f 296 314 298
f 296 298 297
f 299 312 311
f 299 311 357
f 299 357 300
f 300 357 358
f 300 358 301
f 301 358 306
f 302 359 303
f 302 306 360
f 302 360 359
f 303 359 361
f 303 361 362
f 303 362 304
f 304 362 334
f 306 358 363
f 306 363 364
f 306 364 365
f 306 365 360
f 307 319 366
f 307 366 367
f 307 367 368
f 307 368 308
f 307 308 309
f 308 368 432
f 308 432 369
f 308 369 370
f 308 370 310
f 310 370 371
f 310 371 311
f 311 371 372
f 311 372 373
f 311 373 357
f 315 355 374
f 315 374 375
f 315 375 317
f 315 317 316
f 317 375 440
f 317 440 376
f 317 376 377
f 317 377 318
f 318 377 367
f 318 367 366
f 318 366 319
f 320 378 379
f 320 379 380
f 320 380 381
f 320 381 321
f 320 325 335
f 320 335 378
f 321 381 382
f 321 382 322
f 322 382 326
f 324 338 325
f 325 338 337
f 325 337 383
f 325 383 335
f 326 328 327
f 326 382 384
f 326 384 385
f 326 385 328
f 328 385 386
f 328 386 329
f 329 387 388
f 329 388 330
f 329 386 385
f 329 385 387
f 330 388 331
f 331 389 332
f 331 388 389
f 332 389 390
f 332 390 333
f 333 390 391
f 333 391 392
f 333 392 340
f 334 362 393
f 334 393 335
f 335 383 336
f 335 393 362
f 335 362 394
f 335 394 395
f 335 395 396
f 335 396 397
f 335 397 398
f 335 398 399
f 335 399 400
f 335 400 378
f 336 383 337
f 340 392 341
f 341 392 342
f 342 401 402
f 342 402 403
f 342 403 404
f 342 404 405
f 342 405 406
f 342 406 343
f 342 392 391
f 342 391 401
f 343 406 405
f 343 405 344
f 344 405 345
f 345 405 347
f 345 347 346
f 347 405 407
f 347 407 408
f 347 408 409
f 347 409 410
f 347 410 349
f 349 410 411
f 349 411 350
f 350 411 351
f 351 411 409
f 351 409 412
f 351 412 413
f 351 413 414
f 351 414 352
f 354 415 416
f 354 416 355
f 354 356 417
f 354 417 418
f 354 418 415
f 355 419 374
f 355 416 419
f 357 420 358
f 357 373 421
f 357 421 420
f 358 420 363
f 359 360 422
f 359 422 361
f 360 365 422
f 361 422 364
f 361 364 423
f 361 423 424
f 361 424 425
f 361 425 426
f 361 426 427
f 361 427 428
f 361 428 429
f 361 429 362
f 362 429 394
f 363 430 423
f 363 423 364
f 363 420 430
f 364 422 365
f 367 431 432
f 367 432 368
f 367 377 431
f 369 432 433
f 369 433 434
f 369 434 435
f 369 435 436
f 369 436 370
f 370 436 371
f 371 436 437
f 371 437 438
f 371 438 372
f 372 421 373
f 372 438 437
f 372 437 439
f 372 439 495
f 372 495 435
f 372 435 434
f 372 434 494
f 372 494 493
f 372 493 432
f 372 432 443
f 372 443 496
f 372 496 484
f 372 484 475
f 372 475 415
f 372 415 477
f 372 477 480
f 372 480 479
f 372 479 478
f 372 478 483
f 372 483 482
f 372 482 549
f 372 549 609
f 372 609 658
f 372 658 709
f 372 709 708
f 372 708 760
f 372 760 818
f 372 818 872
f 372 872 922
f 372 922 959
f 372 959 984
f 372 984 1005
f 372 1005 1017
f 372 1017 1021
f 372 1021 1026
f 372 1026 1032
f 372 1032 1036
f 372 1036 1041
f 372 1041 1040
f 372 1040 1039
f 372 1039 1038
f 372 1038 1042
f 372 1042 1035
f 372 1035 1031
f 372 1031 1030
f 372 1030 1029
f 372 1029 1025
f 372 1025 1023
f 372 1023 1019
f 372 1019 1011
f 372 1011 1004
f 372 1004 1003
f 372 1003 983
f 372 983 956
f 372 956 954
f 372 954 915
f 372 915 953
f 372 953 980
f 372 980 1001
f 372 1001 1009
f 372 1009 1008
f 372 1008 1007
f 372 1007 989
f 372 989 988
f 372 988 987
f 372 987 986
f 372 986 962
f 372 962 940
f 372 940 939
f 372 939 938
f 372 938 937
f 372 937 936
f 372 936 894
f 372 894 836
f 372 836 835
f 372 835 834
f 372 834 833
f 372 833 832
f 372 832 774
f 372 774 773
f 372 773 724
f 372 724 723
f 372 723 710
f 372 710 659
f 372 659 610
f 372 610 550
f 372 550 488
f 372 488 421
f 374 419 440
f 374 440 375
f 376 440 419
f 376 419 441
f 376 441 442
f 376 442 377
f 377 442 443
f 377 443 432
f 377 432 431
f 378 400 382
f 378 382 444
f 378 444 379
f 379 444 382
f 379 382 380
f 380 382 381
f 382 445 446
f 382 446 447
f 382 447 448
f 382 448 449
f 382 449 450
f 382 450 451
f 382 451 385
f 382 385 384
f 382 400 445
f 385 451 387
f 387 451 388
f 388 451 449
f 388 449 389
f 389 452 453
f 389 453 390
f 389 449 452
f 390 453 454
f 390 454 391
f 391 454 455
f 391 455 401
f 394 429 428
f 394 428 395
f 395 456 396
f 395 428 457
f 395 457 456
f 396 458 397
f 396 456 458
f 397 458 459
f 397 459 460
f 397 460 398
f 398 460 399
f 399 460 461
f 399 461 400
f 400 461 462
f 400 462 463
f 400 463 445
f 401 455 464
f 401 464 402
f 402 464 465
f 402 465 403
f 403 465 466
f 403 466 467
f 403 467 404
f 404 407 405
f 404 467 468
f 404 468 407
f 407 468 469
f 407 469 408
f 408 469 470
f 408 470 471
f 408 471 409
f 409 471 414
f 409 414 472
f 409 472 412
f 409 411 410
f 412 472 413
f 413 472 414
f 414 473 474
f 414 471 473
f 415 475 419
f 415 419 416
f 415 418 476
f 415 476 477
f 418 478 479
f 418 479 480
f 418 480 476
f 418 481 482
f 418 482 483
f 418 483 478
f 419 475 484
f 419 484 441
f 420 485 486
f 420 486 487
f 420 487 424
f 420 424 430
f 420 421 488
f 420 488 485
f 423 430 424
f 424 487 426
f 424 426 425
f 426 487 489
f 426 489 490
f 426 490 491
f 426 491 427
f 427 491 492
f 427 492 457
f 427 457 428
f 432 493 433
f 433 493 494
f 433 494 434
f 435 495 436
f 436 495 437
f 437 495 439
f 441 484 496
f 441 496 442
f 442 496 443
f 445 463 497
f 445 497 446
f 446 497 447
f 447 498 499
f 447 499 500
f 447 500 501
f 447 501 502
f 447 502 503
f 447 503 449
f 447 449 448
f 447 497 463
f 447 463 498
f 449 504 505
f 449 505 506
f 449 506 507
f 449 507 452
f 449 451 508
f 449 508 450
f 449 503 509
f 449 509 504
f 450 508 451
f 452 507 510
f 452 510 453
f 453 510 454
f 454 511 512
f 454 512 513
f 454 513 514
f 454 514 515
f 454 515 455
f 454 510 506
f 454 506 511
f 455 514 516
f 455 516 517
f 455 517 464
f 455 515 514
f 456 457 492
f 456 492 458
f 458 492 518
f 458 518 519
f 458 519 520
f 458 520 521
f 458 521 459
f 459 521 522
f 459 522 460
f 460 522 523
f 460 523 524
f 460 524 525
f 460 525 526
f 460 526 461
f 461 526 462
f 462 526 527
f 462 527 463
f 463 528 498
f 463 527 528
f 464 517 529
f 464 529 530
f 464 530 531
f 464 531 532
f 464 532 533
f 464 533 534
f 464 534 466
f 464 466 465
f 466 534 533
f 466 533 535
f 466 535 467
f 467 535 536
f 467 536 537
f 467 537 538
f 467 538 539
f 467 539 468
f 468 539 469
f 469 540 470
f 469 539 541
f 469 541 542
f 469 542 540
f 470 540 543
f 470 543 544
f 470 544 473
f 470 473 471
f 473 544 474
f 474 544 545
f 476 480 477
f 481 546 482
f 482 546 547
f 482 547 548
f 482 548 549
f 485 489 487
f 485 487 486
f 485 488 489
f 488 550 489
f 489 551 552
f 489 552 553
f 489 553 491
f 489 491 490
f 489 550 551
f 491 553 554
f 491 554 492
f 492 554 555
f 492 555 518
f 498 556 557
f 498 557 558
f 498 558 559
f 498 559 499
f 498 528 556
f 499 560 561
f 499 561 500
f 499 559 560
f 500 561 501
f 501 561 562
f 501 562 509
f 501 509 502
f 502 509 503
f 504 509 563
f 504 563 564
f 504 564 513
f 504 513 505
f 505 565 506
f 505 513 512
f 505 512 565
f 506 565 511
f 506 510 507
f 509 562 566
f 509 566 567
f 509 567 568
f 509 568 563
f 511 565 512
f 513 564 568
f 513 568 569
f 513 569 570
f 513 570 516
f 513 516 514
f 516 570 517
f 517 570 569
f 517 569 571
f 517 571 572
f 517 572 529
f 518 555 519
f 519 555 573
f 519 573 574
f 519 574 575
f 519 575 576
f 519 576 520
f 520 576 577
f 520 577 578
f 520 578 521
f 521 578 579
f 521 579 522
f 522 524 523
f 522 579 578
f 522 578 580
f 522 580 525
f 522 525 524
f 525 580 581
f 525 581 526
f 526 581 527
f 527 581 528
f 528 581 582
f 528 582 556
f 529 572 583
f 529 583 571
f 529 571 584
f 529 584 585
f 529 585 530
f 530 585 531
f 531 585 586
f 531 586 587
f 531 587 639
f 531 639 588
f 531 588 589
f 531 589 590
f 531 590 591
f 531 591 532
f 532 591 592
f 532 592 533
f 533 592 593
f 533 593 536
f 533 536 535
f 536 594 537
f 536 593 594
f 537 594 595
f 537 595 596
f 537 596 597
f 537 597 538
f 538 597 596
f 538 596 539
f 539 596 598
f 539 598 541
f 540 542 599
f 540 599 544
f 540 544 543
f 541 598 600
f 541 600 542
f 542 601 602
f 542 602 599
f 542 600 601
f 544 603 604
f 544 604 545
f 544 599 605
f 544 605 606
f 544 606 607
f 544 607 603
f 548 608 609
f 548 609 549
f 550 610 611
f 550 611 612
f 550 612 613
f 550 613 552
f 550 552 551
f 552 613 614
f 552 614 553
f 553 614 554
f 554 614 615
f 554 615 613
f 554 613 555
f 555 613 573
f 556 616 617
f 556 617 618
f 556 618 619
f 556 619 557
f 556 582 616
f 557 619 618
f 557 618 620
f 557 620 566
f 557 566 558
f 558 561 560
f 558 560 559
f 558 566 562
f 558 562 561
f 563 568 564
f 566 620 621
f 566 621 567
f 567 621 568
f 568 621 571
f 568 571 569
f 571 583 572
f 571 621 622
f 571 622 623
f 571 623 624
f 571 624 584
f 573 625 626
f 573 626 627
f 573 627 575
f 573 575 574
f 573 613 625
f 575 628 629
f 575 629 630
f 575 630 576
f 575 627 628
f 576 631 577
f 576 630 629
f 576 629 632
f 576 632 633
f 576 633 634
f 576 634 635
f 576 635 631
f 577 631 578
f 578 631 635
f 578 635 580
f 580 635 636
f 580 636 582
f 580 582 581
f 582 636 616
f 584 624 585
f 585 637 586
f 585 624 637
f 586 637 624
f 586 624 587
f 587 638 639
f 587 624 638
f 588 639 590
f 588 590 589
f 590 640 641
f 590 641 642
f 590 642 643
f 590 643 644
f 590 644 645
f 590 645 591
f 590 639 640
f 591 645 646
f 591 646 592
f 592 646 647
f 592 647 593
f 593 647 594
f 594 647 595
f 595 648 598
f 595 598 596
f 595 647 649
f 595 649 648
f 598 648 649
f 598 649 650
f 598 650 651
f 598 651 600
f 599 602 605
f 600 651 605
f 600 605 601
f 601 605 602
f 605 651 652
f 605 652 653
f 605 653 606
f 606 653 607
f 607 653 654
f 608 655 609
f 609 655 656
f 609 656 657
f 609 657 658
f 610 659 660
f 610 660 611
f 611 660 661
f 611 661 612
f 612 661 613
f 613 615 614
f 613 661 662
f 613 662 626
f 613 626 625
f 616 636 663
f 616 663 664
f 616 664 635
f 616 635 634
f 616 634 665
f 616 665 666
f 616 666 667
f 616 667 668
f 616 668 617
f 617 668 669
f 617 669 670
f 617 670 618
f 618 670 671
f 618 671 672
f 618 672 673
f 618 673 620
f 620 673 672
f 620 672 674
f 620 674 675
f 620 675 621
f 621 675 622
f 622 675 676
f 622 676 677
f 622 677 623
f 623 677 678
f 623 678 638
f 623 638 624
f 626 679 680
f 626 680 681
f 626 681 627
f 626 662 679
f 627 681 682
f 627 682 628
f 628 682 629
f 629 682 683
f 629 683 632
f 632 683 684
f 632 684 633
f 633 684 634
f 634 684 685
f 634 685 667
f 634 667 686
f 634 686 665
f 635 664 636
f 636 664 663
f 638 678 687
f 638 687 688
f 638 688 689
f 638 689 639
f 639 690 640
f 639 689 688
f 639 688 690
f 640 690 641
f 641 691 692
f 641 692 745
f 641 745 693
f 641 693 642
f 641 690 694
f 641 694 691
f 642 693 695
f 642 695 696
f 642 696 697
f 642 697 698
f 642 698 699
f 642 699 643
f 643 699 644
f 644 699 700
f 644 700 701
f 644 701 645
f 645 701 702
f 645 702 646
f 646 703 649
f 646 649 647
f 646 702 703
f 649 703 651
f 649 651 650
f 651 703 702
f 651 702 700
f 651 700 652
f 652 700 704
f 652 704 705
f 652 705 653
f 653 705 706
f 653 706 654
f 657 707 708
f 657 708 709
f 657 709 658
f 659 710 660
f 660 710 679
f 660 679 661
f 661 679 662
f 665 686 666
f 666 686 667
f 667 685 711
f 667 711 712
f 667 712 713
f 667 713 714
f 667 714 669
f 667 669 668
f 669 714 715
f 669 715 716
f 669 716 670
f 670 716 671
f 671 716 717
f 671 717 672
f 672 717 718
f 672 718 719
f 672 719 674
f 674 719 676
f 674 676 675
f 676 719 720
f 676 720 677
f 677 720 721
f 677 721 722
f 677 722 678
f 678 722 687
f 679 723 724
f 679 724 725
f 679 725 680
f 679 710 723
f 680 725 726
f 680 726 727
f 680 727 681
f 681 727 682
f 682 727 728
f 682 728 729
f 682 729 683
f 683 729 684
f 684 729 730
f 684 730 731
f 684 731 732
f 684 732 685
f 685 732 733
f 685 733 734
f 685 734 711
f 687 735 736
f 687 736 737
f 687 737 738
f 687 738 688
f 687 722 718
f 687 718 735
f 688 737 739
f 688 739 740
f 688 740 690
f 688 738 737
f 690 740 741
f 690 741 694
f 691 694 742
f 691 742 743
f 691 743 744
f 691 744 692
f 692 744 745
f 693 745 744
f 693 744 746
f 693 746 695
f 694 741 742
f 695 697 696
f 695 746 747
f 695 747 697
f 697 747 748
f 697 748 749
f 697 749 750
f 697 750 751
f 697 751 752
f 697 752 698
f 698 752 699
f 699 752 753
f 699 753 700
f 700 702 701
f 700 753 704
f 704 753 754
f 704 754 755
f 704 755 756
f 704 756 757
f 704 757 758
f 704 758 705
f 705 758 706
f 706 758 759
f 707 760 708
f 707 761 760
f 711 734 712
f 712 734 713
f 713 734 714
f 714 734 762
f 714 762 763
f 714 763 764
f 714 764 765
f 714 765 766
f 714 766 715
f 715 766 716
f 716 766 717
f 717 766 767
f 717 767 768
f 717 768 769
f 717 769 770
f 717 770 771
f 717 771 718
f 718 721 719
f 718 771 772
f 718 772 735
f 718 722 721
f 719 721 720
f 724 773 726
f 724 726 725
f 726 773 774
f 726 774 775
f 726 775 727
f 727 775 776
f 727 776 728
f 728 776 777
f 728 777 778
f 728 778 729
f 729 778 730
f 730 779 732
f 730 732 731
f 730 778 779
f 732 779 780
f 732 780 781
f 732 781 782
f 732 782 783
f 732 783 733
f 733 783 784
f 733 784 785
f 733 785 734
f 734 785 762
f 735 772 786
f 735 786 736
f 736 787 739
f 736 739 737
f 736 786 787
f 739 788 789
f 739 789 790
f 739 790 791
f 739 791 792
f 739 792 793
f 739 793 740
f 739 787 794
f 739 794 795
f 739 795 788
f 740 793 792
f 740 792 796
f 740 796 741
f 741 796 797
f 741 797 792
f 741 792 742
f 742 792 743
f 743 792 798
f 743 798 799
f 743 799 800
f 743 800 801
f 743 801 802
f 743 802 744
f 744 802 803
f 744 803 746
f 746 803 804
f 746 804 805
f 746 805 747
f 747 805 748
f 748 805 806
f 748 806 750
f 748 750 749
f 750 806 751
f 751 806 752
f 752 806 807
f 752 807 808
f 752 808 809
f 752 809 810
f 752 810 753
f 753 810 754
f 754 810 811
f 754 811 755
f 755 811 812
f 755 812 813
f 755 813 756
f 756 813 814
f 756 814 815
f 756 815 758
f 756 758 757
f 758 815 759
f 760 761 816
f 760 816 817
f 760 817 818
f 762 785 784
f 762 784 819
f 762 819 820
f 762 820 763
f 763 820 821
f 763 821 822
f 763 822 823
f 763 823 824
f 763 824 764
f 764 824 765
f 765 824 767
f 765 767 766
f 767 824 823
f 767 823 825
f 767 825 826
f 767 826 827
f 767 827 768
f 768 827 828
f 768 828 829
f 768 829 769
f 769 829 770
f 770 830 831
f 770 831 787
f 770 787 771
f 770 829 830
f 771 787 786
f 771 786 772
f 774 832 776
f 774 776 775
f 776 832 833
f 776 833 834
f 776 834 777
f 777 834 835
f 777 835 836
f 777 836 837
f 777 837 838
f 777 838 778
f 778 838 839
f 778 839 779
f 779 839 782
f 779 782 781
f 779 781 780
f 782 840 841
f 782 841 783
f 782 839 838
f 782 838 840
f 783 841 784
f 784 842 819
f 784 841 840
f 784 840 843
f 784 843 842
f 787 844 794
f 787 831 844
f 788 795 845
f 788 845 789
f 789 846 847
f 789 847 790
f 789 845 846
f 790 847 848
f 790 848 791
f 791 848 792
f 792 848 798
f 792 797 796
f 794 844 795
f 795 844 849
f 795 849 845
f 798 848 850
f 798 850 800
f 798 800 799
f 800 850 851
f 800 851 801
f 801 852 804
f 801 804 802
f 801 851 852
f 802 804 803
f 804 853 854
f 804 854 805
f 804 852 855
f 804 855 853
f 805 807 806
f 805 854 856
f 805 856 857
f 805 857 808
f 805 808 858
f 805 858 807
f 807 858 808
f 808 857 859
f 808 859 860
f 808 860 861
f 808 861 809
f 809 861 862
f 809 862 810
f 810 862 860
f 810 860 811
f 811 860 863
f 811 863 864
f 811 864 812
f 812 864 863
f 812 863 865
f 812 865 866
f 812 866 813
f 813 866 865
f 813 865 867
f 813 867 868
f 813 868 869
f 813 869 870
f 817 871 818
f 818 871 873
f 818 873 874
f 818 874 875
f 818 875 872
f 819 842 876
f 819 876 877
f 819 877 820
f 820 877 878
f 820 878 879
f 820 879 880
f 820 880 881
f 820 881 882
f 820 882 821
f 821 882 883
f 821 883 884
f 821 884 822
f 822 884 885
f 822 885 886
f 822 886 823
f 823 886 887
f 823 887 888
f 823 888 889
f 823 889 828
f 823 828 826
f 823 826 825
f 826 828 827
f 828 889 888
f 828 888 831
f 828 831 830
f 828 830 829
f 831 890 891
f 831 891 892
f 831 892 893
f 831 893 844
f 831 888 887
f 831 887 890
f 836 894 895
f 836 895 837
f 837 895 840
f 837 840 838
f 840 896 842
f 840 842 843
f 840 895 897
f 840 897 898
f 840 898 896
f 842 896 876
f 844 899 849
f 844 893 900
f 844 900 901
f 844 901 899
f 845 849 902
f 845 902 903
f 845 903 904
f 845 904 905
f 845 905 906
f 845 906 846
f 846 907 847
f 846 906 907
f 847 907 908
f 847 908 848
f 848 908 909
f 848 909 850
f 849 899 910
f 849 910 911
f 849 911 903
f 849 903 902
f 850 912 852
f 850 852 851
f 850 909 912
f 852 912 913
f 852 913 914
f 852 914 915
f 852 915 855
f 853 916 854
f 853 855 915
f 853 915 916
f 854 916 917
f 854 917 918
f 854 918 856
f 856 918 857
f 857 918 859
f 859 918 917
f 859 917 867
f 859 867 860
f 860 862 861
f 860 867 919
f 860 919 863
f 863 919 865
f 865 919 867
f 867 917 920
f 867 920 869
f 867 869 868
f 869 920 870
f 870 920 917
f 870 917 921
f 872 875 922
f 875 923 922
f 876 896 898
f 876 898 877
f 877 898 878
f 878 898 924
f 878 924 880
f 878 880 879
f 880 925 926
f 880 926 881
f 880 924 927
f 880 927 963
f 880 963 928
f 880 928 929
f 880 929 925
f 881 926 882
f 882 926 883
f 883 885 884
f 883 926 925
f 883 925 930
f 883 930 931
f 883 931 932
f 883 932 933
f 883 933 885
f 885 887 886
f 885 933 934
f 885 934 935
f 885 935 892
f 885 892 891
f 885 891 887
f 887 891 890
f 892 935 934
f 892 934 900
f 892 900 893
f 894 936 895
f 895 936 937
f 895 937 897
f 897 937 938
f 897 938 939
f 897 939 940
f 897 940 941
f 897 941 924
f 897 924 898
f 899 901 910
f 900 934 901
f 901 934 933
f 901 933 910
f 903 942 904
f 903 911 910
f 903 910 943
f 903 943 942
f 904 942 905
f 905 942 906
f 906 944 945
f 906 945 907
f 906 942 944
f 907 945 946
f 907 946 908
f 908 946 947
f 908 947 909
f 909 948 913
f 909 913 912
f 909 947 946
f 909 946 949
f 909 949 945
f 909 945 948
f 910 933 931
f 910 931 950
f 910 950 943
f 913 948 914
f 914 948 951
f 914 951 952
f 914 952 915
f 915 952 953
f 915 954 916
f 916 955 957
f 916 957 917
f 916 954 956
f 916 956 955
f 917 957 921
f 921 957 958
f 922 923 959
f 923 960 959
f 924 941 927
f 925 929 931
f 925 931 961
f 925 961 930
f 927 941 962
f 927 962 963
f 928 963 964
f 928 964 965
f 928 965 966
f 928 966 967
f 928 967 950
f 928 950 931
f 928 931 929
f 930 961 931
f 931 933 932
f 940 962 941
f 942 943 968
f 942 968 969
f 942 969 970
f 942 970 971
f 942 971 972
f 942 972 944
f 943 950 973
f 943 973 974
f 943 974 968
f 944 975 945
f 944 972 975
f 945 975 951
f 945 951 948
f 945 949 946
f 950 966 973
f 950 967 966
f 951 975 976
f 951 976 977
f 951 977 978
f 951 978 952
f 952 979 953
f 952 978 977
f 952 977 979
f 953 979 980
f 955 981 982
f 955 982 958
f 955 958 957
f 955 956 981
f 956 983 981
f 959 960 984
f 960 985 984
f 962 986 963
f 963 986 987
f 963 987 964
f 964 987 965
f 965 987 988
f 965 988 966
f 966 988 989
f 966 989 990
f 966 990 991
f 966 991 974
f 966 974 973
f 968 974 991
f 968 991 990
f 968 990 969
f 969 992 970
f 969 990 992
f 970 992 993
f 970 993 994
f 970 994 971
f 971 994 995
f 971 995 996
f 971 996 975
f 971 975 972
f 975 996 977
f 975 977 976
f 977 996 995
f 977 995 994
f 977 994 997
f 977 997 998
f 977 998 979
f 979 998 980
f 980 998 999
f 980 999 1000
f 980 1000 1001
f 981 983 1003
f 981 1003 1004
f 981 1004 1002
f 984 985 1006
f 984 1006 1005
f 989 1007 990
f 990 1007 1008
f 990 1008 993
f 990 993 992
f 993 1008 1000
f 993 1000 994
f 994 1000 997
f 997 1000 998
f 998 1000 999
f 1000 1008 1009
f 1000 1009 1001
f 1002 1004 1010
f 1004 1011 1012
f 1004 1012 1013
f 1004 1013 1014
f 1004 1014 1015
f 1004 1015 1016
f 1004 1016 1010
f 1005 1006 1017
f 1006 1018 1017
f 1011 1019 1020
f 1011 1020 1012
f 1017 1018 1022
f 1017 1022 1021
f 1019 1023 1020
f 1020 1023 1025
f 1020 1025 1024
f 1021 1022 1027
f 1021 1027 1026
f 1024 1025 1029
f 1024 1029 1030
f 1024 1030 1031
f 1024 1031 1028
f 1026 1027 1032
f 1027 1033 1032
f 1028 1031 1035
f 1028 1035 1034
f 1032 1033 1036
f 1033 1037 1038
f 1033 1038 1039
f 1033 1039 1040
f 1033 1040 1041
f 1033 1041 1036
f 1034 1035 1037
f 1035 1042 1037
f 1037 1042 1038

