# https://github.com/mikedh/trimesh
v -0.02575596 -0.49259895 -0.01580935
v -0.02499668 -0.49259895 -0.01501937
v -0.02575596 -0.49259895 -0.01501937
v -0.02575596 -0.49241620 -0.02506967
v -0.02499668 -0.49241620 -0.02506967
v 0.04290169 -0.49011353 -0.02081256
v 0.04290169 -0.49011353 -0.01927648
v 0.00501375 -0.48558128 0.04497524
v -0.00499922 -0.48565438 0.04497524
v 0.06498717 -0.48817635 -0.12495828
v -0.02575596 -0.48386341 0.04497524
v -0.02575596 -0.48525232 -0.13496469
v -0.02499668 -0.48536199 -0.13496469
v -0.01499320 -0.48598334 -0.13496469
v 0.05499318 -0.48799360 -0.12495828
v 0.07118477 -0.48773775 -0.12495828
v 0.06498717 -0.48788396 -0.01501937
v 0.01500774 -0.48430201 0.04497524
v 0.01015786 -0.47001085 0.11028026
v 0.00501375 -0.47030324 0.11133356
v -0.00037712 -0.47033978 0.11146523
v -0.00158247 -0.47033978 0.11146523
v -0.00037712 -0.48620266 -0.13496469
v 0.03499572 -0.48656815 -0.13496469
v 0.06498717 -0.48686054 -0.13496469
v -0.02575596 -0.48145109 0.05498165
v -0.02575596 -0.48510611 -0.13575467
v -0.02499668 -0.48353446 -0.14492722
v -0.01499320 -0.48389995 -0.14492722
v 0.07118477 -0.48675090 -0.01501937
v 0.07118477 -0.48642194 -0.13496469
v 0.07118477 -0.47629750 0.04497524
v 0.07118477 -0.47520098 0.05116341
v 0.06498717 -0.47724780 0.04497524
v 0.03991204 -0.47995251 0.04993456
v 0.02500173 -0.48291311 0.04497524
v 0.06498717 -0.47542030 0.05498165
v 0.07118477 -0.47450653 0.05498165
v 0.07118477 -0.47300798 0.06055540
v 0.07118477 -0.47169214 0.06481252
v 0.07118477 -0.46982807 0.06964017
v 0.07118477 -0.46909708 0.07135180
v 0.07118477 -0.46759850 0.07473116
v 0.00501375 -0.46873158 0.11633678
v -0.00037712 -0.47008395 0.11234298
v -0.00495176 -0.46814677 0.11488847
v -0.02575596 -0.48009872 0.06024819
v -0.02575596 -0.48020840 0.05989708
v -0.01499320 -0.48119524 -0.15427531
v -0.01499320 -0.47973323 -0.15927853
v 0.06498717 -0.48368067 -0.14497110
v -0.02575596 -0.48338825 -0.14497110
v -0.02575596 -0.48320550 -0.14562942
v -0.02575596 -0.48097593 -0.15322201
v -0.02499668 -0.48101249 -0.15344146
v 0.07118477 -0.48521578 -0.13873905
v 0.07118477 -0.46237183 0.08535200
v -0.00037712 -0.46843916 0.11554679
v 0.05120628 -0.46072704 0.10141493
v 0.07118477 -0.44303668 0.11940892
v 0.01322344 -0.46226215 0.12226163
v 0.00501375 -0.46376073 0.12379770
v -0.00037712 -0.46343178 0.12349048
v -0.00499922 -0.46310282 0.12322716
v -0.01146257 -0.46138495 0.12142776
v -0.02575596 -0.47344658 0.07499448
v -0.02499668 -0.47947738 -0.15844466
v -0.02499668 -0.47578579 -0.16494004
v -0.01499320 -0.47633404 -0.16494004
v -0.00037712 -0.47607821 -0.16498394
v 0.06498717 -0.47487205 -0.16498394
v -0.00499922 -0.47966012 -0.15905909
v 0.06498717 -0.48097593 -0.15260759
v 0.07118477 -0.48075664 -0.15203704
v 0.07118477 -0.48320550 -0.14497110
v -0.02575596 -0.47940427 -0.15818132
v 0.07118477 -0.46054429 0.08868747
v 0.07118477 -0.45988640 0.08987244
v 0.07118477 -0.44153813 0.12186664
v 0.07118477 -0.43675005 0.12686984
v 0.07118477 -0.43170607 0.13165362
v 0.07118477 -0.40553606 0.15469471
v 0.07118477 -0.39420545 0.16421835
v 0.01293871 -0.40239272 0.17093319
v 0.00728209 -0.40239272 0.17093319
v 0.00501375 -0.45721823 0.12880091
v -0.00037712 -0.46039811 0.12581654
v -0.02307951 -0.43254673 0.14166003
v -0.02575596 -0.43554389 0.13687626
v -0.02575596 -0.43696934 0.13516463
v -0.02575596 -0.44530281 0.12498267
v -0.02575596 -0.44614348 0.12392937
v -0.02575596 -0.45144325 0.11717065
v -0.02575596 -0.45253980 0.11576624
v -0.02575596 -0.47059566 0.08100711
v -0.02575596 -0.47081494 0.08056823
v -0.02575596 -0.47900224 -0.15897131
v -0.02575596 -0.47560304 -0.16502783
v -0.02499668 -0.47129011 -0.17196210
v -0.01499320 -0.47154593 -0.17240097
v 0.04498971 -0.45974019 -0.18964887
v 0.06498717 -0.45959401 -0.18947332
v 0.06498717 -0.46273732 -0.18447012
v 0.07118477 -0.47436035 -0.16498394
v 0.06498717 -0.47896567 -0.15765467
v 0.01500774 -0.47947738 -0.15862021
v 0.07118477 -0.47998908 -0.15396810
v 0.07118477 -0.37519926 0.17382978
v 0.07118477 -0.34102473 0.19090213
v -0.02575596 -0.38583541 0.16922157
v -0.02575596 -0.39533851 0.16351615
v 0.06752126 -0.34098816 0.19081435
v -0.02575596 -0.33411670 0.18625002
v -0.02575596 -0.33565181 0.18581115
v -0.02575596 -0.35257462 0.18089572
v -0.02575596 -0.35326907 0.18067627
v -0.02575596 -0.42604080 0.14354721
v -0.02575596 -0.47121701 -0.17187431
v -0.02499668 -0.46800059 -0.17700920
v -0.01499320 -0.46832952 -0.17740418
v 0.02500173 -0.45984983 -0.18982442
v 0.06498717 -0.45458660 -0.19473986
v 0.07118477 -0.45425767 -0.19443265
v 0.07118477 -0.45926505 -0.18894666
v 0.07118477 -0.46127531 -0.18587452
v 0.07118477 -0.47282523 -0.16744165
v 0.07118477 -0.47870982 -0.15699637
v 0.07118477 -0.33802760 0.19169211
v 0.07118477 -0.33495736 0.19204322
v 0.07118477 -0.32479638 0.19129711
v 0.03499572 -0.25505835 0.18339732
v -0.02575596 -0.32585633 0.18554781
v -0.02575596 -0.46756196 -0.17744806
v -0.02575596 -0.46292007 -0.18429457
v -0.02499668 -0.46299317 -0.18438233
v -0.01499320 -0.46332213 -0.18490899
v 0.00501375 -0.45992297 -0.18991220
v 0.06498717 -0.44972539 -0.19974306
v 0.07118477 -0.44935989 -0.19943585
v 0.07118477 -0.27885261 0.18589891
v -0.02575596 -0.28502959 0.18023740
v 0.07118477 -0.24650556 0.18203679
v 0.07118477 -0.22885174 0.17580473
v 0.07118477 -0.21931210 0.17229371
v 0.03499572 -0.24873513 0.18102737
v -0.02575596 -0.22501396 0.16623719
v -0.02575596 -0.25451007 0.17404921
v -0.02575596 -0.45937470 -0.18929777
v -0.02499668 -0.45948434 -0.18938555
v -0.01499320 -0.45992297 -0.18991220
v 0.06498717 -0.43441081 -0.21413825
v 0.07118477 -0.44745928 -0.20123525
v 0.03499572 -0.44972539 -0.19974306
v 0.05499318 -0.42925721 -0.21931702
v 0.07118477 -0.20743325 0.16750994
v -0.02575596 -0.21631497 0.16294561
v -0.02575596 -0.21697289 0.16320893
v -0.02575596 -0.45900917 -0.18969277
v -0.02499668 -0.45447695 -0.19421320
v -0.01499320 -0.43938166 -0.20944226
v 0.00501375 -0.43945476 -0.20948616
v 0.02500173 -0.43949133 -0.20953004
v 0.06498717 -0.42907447 -0.21914147
v 0.07118477 -0.43901616 -0.20909116
v 0.04498971 -0.42925721 -0.21931702
v 0.05499318 -0.42428637 -0.22348636
v 0.06498717 -0.42406708 -0.22339858
v 0.07118477 -0.20520368 0.16632497
v 0.07118477 -0.19840533 0.16255061
v -0.02499668 -0.19840533 0.15184200
v -0.02575596 -0.19851497 0.15175422
v -0.02575596 -0.45440385 -0.19412543
v -0.02575596 -0.43886995 -0.20891561
v -0.02499668 -0.44416976 -0.20400017
v -0.02499668 -0.43389910 -0.21369939
v -0.01499320 -0.43437427 -0.21413825
v -0.00037712 -0.43441081 -0.21422604
v 0.07118477 -0.42355537 -0.22304748
v 0.07118477 -0.42859930 -0.21870258
v 0.02500173 -0.42918411 -0.21927314
v 0.00501375 -0.42907447 -0.21922924
v -0.00037712 -0.42907447 -0.21918535
v -0.01499320 -0.42892826 -0.21914147
v 0.03499572 -0.42424983 -0.22326691
v 0.05499318 -0.41708595 -0.22848956
v 0.06498717 -0.41686666 -0.22835790
v 0.07118477 -0.42085063 -0.22493465
v 0.07118477 -0.18729401 0.15184200
v 0.07118477 -0.15564142 0.11449349
v 0.07118477 -0.15099953 0.10900752
v 0.07118477 -0.15085334 0.10883197
v -0.02575596 -0.18393138 0.13345301
v -0.02575596 -0.43342394 -0.21400659
v -0.02499668 -0.42841655 -0.21870258
v -0.02499668 -0.42340916 -0.22221361
v -0.01499320 -0.42395741 -0.22256471
v 0.01500774 -0.42414016 -0.22300360
v 0.03499572 -0.41657424 -0.22827013
v 0.05499318 -0.41207856 -0.23103505
v 0.06498717 -0.41189581 -0.23090339
v 0.07118477 -0.41635495 -0.22800680
v 0.07118477 -0.41134757 -0.23064007
v 0.07118477 -0.14855066 0.10536483
v -0.02231074 -0.18038601 0.12915201
v -0.02575596 -0.17896055 0.12594821
v -0.02575596 -0.42834347 -0.21861482
v -0.02575596 -0.42797795 -0.21892203
v -0.02575596 -0.42333606 -0.22212583
v -0.02575596 -0.42278782 -0.22247694
v -0.02575596 -0.41416192 -0.22726071
v -0.02409504 -0.41397917 -0.22752403
v -0.01499320 -0.41514879 -0.22756793
v -0.00037712 -0.41558740 -0.22778736
v 0.01500774 -0.41602600 -0.22800680
v 0.02500173 -0.41631842 -0.22813846
v 0.04498971 -0.41185927 -0.23090339
v 0.00501375 -0.39076972 -0.24038315
v 0.02500173 -0.39120832 -0.24060260
v 0.03499572 -0.38495821 -0.24385029
v 0.05499318 -0.40495124 -0.23450220
v 0.05499318 -0.39182967 -0.24086592
v 0.05499318 -0.38495821 -0.24415751
v 0.06498717 -0.39636192 -0.23827654
v 0.06498717 -0.39135453 -0.24064648
v 0.07118477 -0.40169826 -0.23516051
v 0.07118477 -0.14756380 0.10387264
v -0.02575596 -0.16112398 0.09856223
v -0.02575596 -0.40937382 -0.22967453
v -0.02015629 -0.40999520 -0.22998175
v -0.01499320 -0.39022148 -0.24007595
v -0.00037712 -0.39292619 -0.23915429
v -0.01499320 -0.38495821 -0.24266532
v -0.00037712 -0.38495821 -0.24306031
v 0.00501375 -0.38495821 -0.24319197
v 0.04498971 -0.38495821 -0.24402584
v 0.04498971 -0.37541857 -0.24823907
v 0.05499318 -0.37567443 -0.24823907
v 0.06498717 -0.37538204 -0.24797574
v 0.06498717 -0.38495821 -0.24363086
v 0.07118477 -0.38963667 -0.24077815
v 0.07118477 -0.14507838 0.09891333
v -0.02575596 -0.16086812 0.09816724
v -0.02575596 -0.38945392 -0.23968095
v -0.02416148 -0.38557959 -0.24183145
v -0.02027967 -0.39003873 -0.23998816
v -0.02575596 -0.37497997 -0.24600080
v -0.01499320 -0.37497997 -0.24665911
v -0.00499922 -0.37497997 -0.24696632
v 0.04498971 -0.37037462 -0.25012624
v 0.05499318 -0.37066704 -0.25025791
v 0.06498717 -0.37037462 -0.25012624
v 0.07016924 -0.37000912 -0.24999458
v 0.07118477 -0.37103254 -0.24942404
v 0.07118477 -0.14350672 0.09562173
v -0.02575596 -0.15863855 0.09320791
v -0.02575596 -0.38769948 -0.24055870
v -0.02575596 -0.38521406 -0.24178757
v -0.02575596 -0.37421241 -0.24617635
v -0.02575596 -0.36496520 -0.24823907
v -0.02499668 -0.36496520 -0.24828295
v -0.01499320 -0.36496520 -0.24880961
v 0.03216740 -0.36942431 -0.24990681
v 0.03882057 -0.37008223 -0.25003847
v 0.04498971 -0.36496520 -0.25096011
v 0.05499318 -0.36496520 -0.25113565
v 0.06498717 -0.36496520 -0.25096011
v 0.07118477 -0.36511138 -0.25069678
v 0.07118477 -0.36872986 -0.25012624
v 0.07118477 -0.12270957 -0.03323280
v 0.07118477 -0.12245372 -0.03498831
v 0.07118477 -0.11952969 -0.05570335
v -0.02575596 -0.13718350 -0.06496367
v -0.02575596 -0.35151467 -0.25021404
v -0.02499668 -0.35670480 -0.24951181
v -0.01499320 -0.35853231 -0.24977514
v -0.00037712 -0.36500174 -0.24938016
v 0.00501375 -0.36606169 -0.24942404
v 0.03529943 -0.36565965 -0.25056511
v 0.03499572 -0.35495040 -0.25201342
v 0.04498971 -0.35495040 -0.25227675
v -0.00037712 -0.33959925 -0.25302285
v 0.06498717 -0.35495040 -0.25223285
v 0.04498971 -0.33495736 -0.25477836
v 0.04498971 -0.32497913 -0.25600719
v 0.05499318 -0.33495736 -0.25482225
v 0.07118477 -0.35495040 -0.25210118
v 0.07118477 -0.11927384 -0.05842439
v 0.07118477 -0.11923729 -0.06101377
v 0.07118477 -0.11923729 -0.06193541
v -0.02575596 -0.13743936 -0.07497008
v -0.02575596 -0.32494256 -0.25398839
v -0.02499668 -0.33499390 -0.25262785
v -0.01499320 -0.34497216 -0.25170618
v -0.00037712 -0.35805717 -0.25038958
v 0.00501375 -0.34493560 -0.25245231
v 0.00501375 -0.33495736 -0.25381282
v -0.00037712 -0.32497913 -0.25495392
v 0.03499572 -0.33495736 -0.25455892
v -0.01499320 -0.33499390 -0.25311062
v -0.01499320 -0.32494256 -0.25451502
v 0.05499318 -0.31496432 -0.25618276
v 0.06498717 -0.31496432 -0.25627053
v 0.07118477 -0.31496432 -0.25631443
v 0.05499318 -0.32497913 -0.25600719
v 0.02500173 -0.32497913 -0.25556833
v 0.04498971 -0.31496432 -0.25600719
v 0.07118477 -0.33495736 -0.25447112
v 0.07118477 -0.11960280 -0.06680696
v -0.02575596 -0.13930343 -0.08541538
v -0.02575596 -0.31496432 -0.25403225
v -0.02499668 -0.32494256 -0.25403225
v -0.00499922 -0.32494256 -0.25482225
v -0.00037712 -0.32494256 -0.25495392
v 0.00501375 -0.32497913 -0.25508556
v -0.02499668 -0.31496432 -0.25407612
v 0.07118477 -0.30505919 -0.25548056
v 0.07118477 -0.32497913 -0.25556833
v 0.07118477 -0.12069932 -0.07286347
v -0.02575596 -0.14007099 -0.08967249
v -0.02575596 -0.31423333 -0.25394449
v -0.02575596 -0.30502263 -0.25249618
v -0.02575596 -0.29051214 -0.24990681
v -0.02575596 -0.27424726 -0.24696632
v 0.07118477 -0.30122140 -0.25473446
v 0.07118477 -0.12110136 -0.07492620
v -0.02575596 -0.14478599 -0.11495186
v -0.02575596 -0.14273916 -0.10415547
v -0.02575596 -0.14109440 -0.09524624
v -0.02575596 -0.26503658 -0.24485971
v 0.07118477 -0.26503658 -0.24731742
v 0.07118477 -0.27019018 -0.24845850
v 0.07118477 -0.27684233 -0.24986291
v 0.07118477 -0.27874294 -0.25025791
v 0.07118477 -0.28283659 -0.25109178
v 0.07118477 -0.28502959 -0.25153065
v 0.07118477 -0.12274612 -0.08212379
v -0.02575596 -0.14690590 -0.12421218
v -0.02575596 -0.26434213 -0.24464028
v 0.07118477 -0.25505835 -0.24415751
v 0.07118477 -0.12468329 -0.09024303
v 0.07118477 -0.12563360 -0.09419294
v -0.02575596 -0.14708865 -0.12495828
v -0.02575596 -0.25663000 -0.24174367
v 0.07118477 -0.24815032 -0.24104147
v 0.07118477 -0.13118926 -0.11499575
v -0.02575596 -0.14898926 -0.13088313
v -0.02575596 -0.25118399 -0.23889098
v -0.02575596 -0.23681971 -0.23129839
v -0.02575596 -0.22501396 -0.22497854
v 0.07118477 -0.24621315 -0.23998816
v 0.07118477 -0.13466154 -0.12495828
v -0.02575596 -0.14924511 -0.13149756
v -0.02575596 -0.21755770 -0.22089697
v 0.07118477 -0.22066447 -0.22581241
v 0.07118477 -0.13875517 -0.13290197
v -0.02575596 -0.16686238 -0.16577391
v -0.02575596 -0.21298890 -0.21782483
v 0.07118477 -0.20951661 -0.21949257
v 0.07065327 -0.21013796 -0.21988755
v 0.07118477 -0.21072277 -0.22028255
v 0.07118477 -0.14295846 -0.14040677
v -0.02575596 -0.16956711 -0.17090879
v -0.02575596 -0.21251374 -0.21747373
v 0.07118477 -0.20524022 -0.21611321
v 0.07118477 -0.14917202 -0.15142262
v 0.07118477 -0.15695724 -0.16489616
v -0.02575596 -0.17051741 -0.17253263
v -0.02575596 -0.20717740 -0.21282162
v 0.07118477 -0.19899012 -0.21097834
v 0.07118477 -0.15929647 -0.16888995
v -0.02575596 -0.17205253 -0.17507812
v -0.02575596 -0.19723570 -0.20281520
v 0.07118477 -0.16887265 -0.18109076
v 0.07118477 -0.16072193 -0.17090879
v -0.02575596 -0.17716958 -0.18214406
v -0.02575596 -0.19186281 -0.19732924
v -0.02575596 -0.18195766 -0.18719116
v 0.07118477 -0.16393836 -0.17516591
f 1 2 3
f 1 3 11
f 1 11 26
f 1 26 48
f 1 48 47
f 1 47 66
f 1 66 96
f 1 96 95
f 1 95 94
f 1 94 93
f 1 93 92
f 1 92 91
f 1 91 90
f 1 90 89
f 1 89 117
f 1 117 111
f 1 111 110
f 1 110 116
f 1 116 115
f 1 115 114
f 1 114 113
f 1 113 132
f 1 132 141
f 1 141 147
f 1 147 146
f 1 146 157
f 1 157 156
f 1 156 171
f 1 171 192
f 1 192 205
f 1 205 227
f 1 227 242
f 1 242 255
f 1 255 272
f 1 272 290
f 1 290 309
f 1 309 319
f 1 319 328
f 1 328 327
f 1 327 326
f 1 326 337
f 1 337 342
f 1 342 346
f 1 346 352
f 1 352 356
f 1 356 362
f 1 362 367
f 1 367 371
f 1 371 375
f 1 375 377
f 1 377 376
f 1 376 372
f 1 372 368
f 1 368 363
f 1 363 357
f 1 357 353
f 1 353 349
f 1 349 348
f 1 348 347
f 1 347 343
f 1 343 338
f 1 338 329
f 1 329 323
f 1 323 322
f 1 322 321
f 1 321 320
f 1 320 310
f 1 310 291
f 1 291 273
f 1 273 259
f 1 259 258
f 1 258 246
f 1 246 257
f 1 257 256
f 1 256 243
f 1 243 228
f 1 228 210
f 1 210 209
f 1 209 208
f 1 208 207
f 1 207 206
f 1 206 193
f 1 193 173
f 1 173 172
f 1 172 158
f 1 158 148
f 1 148 134
f 1 134 133
f 1 133 118
f 1 118 98
f 1 98 97
f 1 97 76
f 1 76 54
f 1 54 53
f 1 53 52
f 1 52 27
f 1 27 12
f 1 12 4
f 1 4 5
f 1 5 2
f 2 6 7
f 2 7 8
f 2 8 9
f 2 9 3
f 2 5 10
f 2 10 6
f 3 9 11
f 4 12 13
f 4 13 14
f 4 14 15
f 4 15 10
f 4 10 5
f 6 10 16
f 6 16 7
f 7 17 8
f 7 16 17
f 8 18 19
f 8 19 20
f 8 20 21
f 8 21 9
f 8 17 18
f 9 21 22
f 9 22 11
f 10 15 14
f 10 14 23
f 10 23 24
f 10 24 25
f 10 25 31
f 10 31 16
f 11 22 26
f 12 27 28
f 12 28 13
f 13 28 14
f 14 28 29
f 14 29 23
f 16 30 17
f 16 31 56
f 16 56 75
f 16 75 74
f 16 74 107
f 16 107 127
f 16 127 104
f 16 104 126
f 16 126 125
f 16 125 124
f 16 124 123
f 16 123 139
f 16 139 152
f 16 152 164
f 16 164 179
f 16 179 178
f 16 178 187
f 16 187 201
f 16 201 202
f 16 202 225
f 16 225 240
f 16 240 253
f 16 253 268
f 16 268 267
f 16 267 286
f 16 286 307
f 16 307 317
f 16 317 303
f 16 303 316
f 16 316 324
f 16 324 335
f 16 335 334
f 16 334 333
f 16 333 332
f 16 332 331
f 16 331 330
f 16 330 339
f 16 339 344
f 16 344 350
f 16 350 354
f 16 354 360
f 16 360 358
f 16 358 364
f 16 364 369
f 16 369 373
f 16 373 378
f 16 378 374
f 16 374 370
f 16 370 366
f 16 366 365
f 16 365 361
f 16 361 355
f 16 355 351
f 16 351 345
f 16 345 341
f 16 341 340
f 16 340 336
f 16 336 325
f 16 325 318
f 16 318 308
f 16 308 289
f 16 289 288
f 16 288 287
f 16 287 271
f 16 271 270
f 16 270 269
f 16 269 254
f 16 254 241
f 16 241 226
f 16 226 203
f 16 203 191
f 16 191 190
f 16 190 189
f 16 189 188
f 16 188 169
f 16 169 168
f 16 168 155
f 16 155 144
f 16 144 143
f 16 143 142
f 16 142 140
f 16 140 130
f 16 130 129
f 16 129 128
f 16 128 109
f 16 109 108
f 16 108 83
f 16 83 82
f 16 82 81
f 16 81 80
f 16 80 79
f 16 79 60
f 16 60 78
f 16 78 77
f 16 77 57
f 16 57 43
f 16 43 42
f 16 42 41
f 16 41 40
f 16 40 39
f 16 39 38
f 16 38 33
f 16 33 32
f 16 32 30
f 17 30 32
f 17 32 33
f 17 33 34
f 17 34 35
f 17 35 36
f 17 36 18
f 18 36 35
f 18 35 19
f 19 35 37
f 19 37 38
f 19 38 39
f 19 39 40
f 19 40 41
f 19 41 42
f 19 42 43
f 19 43 44
f 19 44 20
f 20 44 45
f 20 45 21
f 21 45 22
f 22 45 46
f 22 46 47
f 22 47 48
f 22 48 26
f 23 29 24
f 24 29 25
f 25 29 49
f 25 49 50
f 25 50 51
f 25 51 31
f 27 52 28
f 28 52 53
f 28 53 54
f 28 54 55
f 28 55 50
f 28 50 49
f 28 49 29
f 31 51 56
f 33 38 34
f 34 38 37
f 34 37 35
f 43 57 44
f 44 58 45
f 44 57 59
f 44 59 60
f 44 60 61
f 44 61 62
f 44 62 63
f 44 63 64
f 44 64 58
f 45 58 46
f 46 58 64
f 46 64 65
f 46 65 47
f 47 65 66
f 50 67 68
f 50 68 69
f 50 69 70
f 50 70 71
f 50 71 72
f 50 72 73
f 50 73 51
f 50 55 67
f 51 73 74
f 51 74 75
f 51 75 56
f 54 76 67
f 54 67 55
f 57 77 59
f 59 77 78
f 59 78 60
f 60 79 61
f 61 79 80
f 61 80 62
f 62 80 81
f 62 81 82
f 62 82 83
f 62 83 84
f 62 84 85
f 62 85 86
f 62 86 87
f 62 87 63
f 63 87 64
f 64 87 85
f 64 85 88
f 64 88 65
f 65 88 89
f 65 89 90
f 65 90 91
f 65 91 92
f 65 92 93
f 65 93 94
f 65 94 95
f 65 95 96
f 65 96 66
f 67 76 97
f 67 97 98
f 67 98 68
f 68 98 99
f 68 99 69
f 69 99 100
f 69 100 101
f 69 101 102
f 69 102 70
f 70 102 103
f 70 103 71
f 71 104 105
f 71 105 72
f 71 103 104
f 72 105 106
f 72 106 73
f 73 105 107
f 73 107 74
f 73 106 105
f 83 108 84
f 84 108 109
f 84 109 85
f 85 110 111
f 85 111 88
f 85 87 86
f 85 109 112
f 85 112 113
f 85 113 114
f 85 114 115
f 85 115 116
f 85 116 110
f 88 111 117
f 88 117 89
f 98 118 99
f 99 118 119
f 99 119 120
f 99 120 100
f 100 120 101
f 101 121 122
f 101 122 102
f 101 120 121
f 102 122 123
f 102 123 124
f 102 124 125
f 102 125 103
f 103 125 126
f 103 126 104
f 104 127 105
f 105 127 107
f 109 128 112
f 112 128 113
f 113 128 129
f 113 129 130
f 113 130 131
f 113 131 132
f 118 133 119
f 119 133 134
f 119 134 135
f 119 135 136
f 119 136 120
f 120 136 137
f 120 137 121
f 121 137 138
f 121 138 122
f 122 138 123
f 123 138 139
f 130 140 131
f 131 141 132
f 131 140 142
f 131 142 143
f 131 143 144
f 131 144 145
f 131 145 146
f 131 146 147
f 131 147 141
f 134 148 149
f 134 149 135
f 135 149 150
f 135 150 136
f 136 150 137
f 137 150 153
f 137 153 138
f 138 151 152
f 138 152 139
f 138 153 162
f 138 162 165
f 138 165 154
f 138 154 151
f 144 155 156
f 144 156 157
f 144 157 145
f 145 157 146
f 148 158 149
f 149 158 159
f 149 159 150
f 150 159 160
f 150 160 161
f 150 161 162
f 150 162 153
f 151 154 163
f 151 163 152
f 152 163 164
f 154 165 166
f 154 166 167
f 154 167 163
f 155 168 156
f 156 168 169
f 156 169 170
f 156 170 171
f 158 172 159
f 159 172 173
f 159 173 174
f 159 174 160
f 160 174 175
f 160 175 176
f 160 176 177
f 160 177 161
f 161 177 165
f 161 165 162
f 163 167 178
f 163 178 179
f 163 179 164
f 165 177 180
f 165 180 166
f 166 180 181
f 166 181 182
f 166 182 183
f 166 183 184
f 166 184 185
f 166 185 167
f 167 185 186
f 167 186 187
f 167 187 178
f 169 188 170
f 170 188 189
f 170 189 190
f 170 190 191
f 170 191 192
f 170 192 171
f 173 193 175
f 173 175 174
f 175 193 194
f 175 194 183
f 175 183 176
f 176 183 182
f 176 182 177
f 177 182 181
f 177 181 180
f 183 194 195
f 183 195 196
f 183 196 197
f 183 197 184
f 184 197 185
f 185 198 199
f 185 199 200
f 185 200 186
f 185 197 196
f 185 196 198
f 186 201 187
f 186 200 202
f 186 202 201
f 191 203 204
f 191 204 192
f 192 204 205
f 193 206 194
f 194 206 207
f 194 207 195
f 195 208 209
f 195 209 210
f 195 210 211
f 195 211 212
f 195 212 196
f 195 207 208
f 196 212 213
f 196 213 214
f 196 214 215
f 196 215 198
f 198 215 216
f 198 216 199
f 199 216 217
f 199 217 218
f 199 218 219
f 199 219 220
f 199 220 200
f 200 220 221
f 200 221 222
f 200 222 223
f 200 223 202
f 202 223 224
f 202 224 225
f 203 226 204
f 204 226 227
f 204 227 205
f 210 228 229
f 210 229 211
f 211 229 212
f 212 229 230
f 212 230 213
f 213 230 231
f 213 231 214
f 214 231 215
f 215 231 217
f 215 217 216
f 217 231 230
f 217 230 232
f 217 232 233
f 217 233 234
f 217 234 219
f 217 219 218
f 219 235 220
f 219 234 236
f 219 236 235
f 220 235 221
f 221 235 222
f 222 235 236
f 222 236 237
f 222 237 238
f 222 238 239
f 222 239 224
f 222 224 223
f 224 239 225
f 225 239 240
f 226 241 242
f 226 242 227
f 228 243 244
f 228 244 229
f 229 244 245
f 229 245 230
f 230 245 232
f 232 245 244
f 232 244 246
f 232 246 247
f 232 247 248
f 232 248 236
f 232 236 233
f 233 236 234
f 236 248 249
f 236 249 250
f 236 250 237
f 237 250 251
f 237 251 238
f 238 251 252
f 238 252 239
f 239 252 253
f 239 253 240
f 241 254 242
f 242 254 255
f 243 256 244
f 244 256 257
f 244 257 246
f 246 258 247
f 247 258 259
f 247 259 260
f 247 260 261
f 247 261 262
f 247 262 263
f 247 263 249
f 247 249 248
f 249 263 264
f 249 264 250
f 250 264 265
f 250 265 266
f 250 266 251
f 251 266 252
f 252 266 267
f 252 267 268
f 252 268 253
f 254 269 255
f 255 269 270
f 255 270 271
f 255 271 272
f 259 273 274
f 259 274 260
f 260 274 275
f 260 275 261
f 261 276 277
f 261 277 262
f 261 275 276
f 262 278 263
f 262 277 278
f 263 278 264
f 264 279 280
f 264 280 265
f 264 278 281
f 264 281 279
f 265 282 266
f 265 280 283
f 265 283 284
f 265 284 285
f 265 285 282
f 266 282 286
f 266 286 267
f 271 287 272
f 272 287 288
f 272 288 289
f 272 289 290
f 273 291 292
f 273 292 274
f 274 292 275
f 275 292 293
f 275 293 281
f 275 281 294
f 275 294 276
f 276 294 277
f 277 294 278
f 278 294 295
f 278 295 281
f 279 281 296
f 279 296 280
f 280 296 297
f 280 297 298
f 280 298 283
f 281 299 300
f 281 300 296
f 281 295 294
f 281 293 299
f 282 285 286
f 283 298 305
f 283 305 284
f 284 301 302
f 284 302 303
f 284 303 304
f 284 304 285
f 284 305 306
f 284 306 301
f 285 304 286
f 286 304 307
f 289 308 290
f 290 308 309
f 291 310 315
f 291 315 311
f 291 311 292
f 292 311 300
f 292 300 299
f 292 299 293
f 296 300 312
f 296 312 297
f 297 312 313
f 297 313 314
f 297 314 298
f 298 314 305
f 300 311 315
f 300 315 312
f 301 306 316
f 301 316 302
f 302 316 303
f 303 317 304
f 304 317 307
f 305 314 306
f 306 314 313
f 306 313 315
f 306 315 316
f 308 318 319
f 308 319 309
f 310 320 315
f 312 315 313
f 315 320 316
f 316 320 321
f 316 321 322
f 316 322 323
f 316 323 324
f 318 325 326
f 318 326 327
f 318 327 328
f 318 328 319
f 323 329 330
f 323 330 331
f 323 331 332
f 323 332 333
f 323 333 334
f 323 334 335
f 323 335 324
f 325 336 326
f 326 336 337
f 329 338 330
f 330 338 339
f 336 340 337
f 337 340 341
f 337 341 342
f 338 343 339
f 339 343 344
f 341 345 342
f 342 345 346
f 343 347 344
f 344 347 348
f 344 348 349
f 344 349 350
f 345 351 346
f 346 351 352
f 349 353 350
f 350 353 354
f 351 355 356
f 351 356 352
f 353 357 358
f 353 358 359
f 353 359 360
f 353 360 354
f 355 361 362
f 355 362 356
f 357 363 358
f 358 360 359
f 358 363 364
f 361 365 362
f 362 366 367
f 362 365 366
f 363 368 369
f 363 369 364
f 366 370 367
f 367 370 371
f 368 372 373
f 368 373 369
f 370 374 371
f 371 374 375
f 372 376 373
f 373 376 377
f 373 377 375
f 373 375 378
f 374 378 375

