# https://github.com/mikedh/trimesh
v 0.33495665 -0.03706835 -0.21776420
v 0.32496417 -0.03706835 -0.21773550
v 0.32496417 0.08498319 -0.20714687
v 0.34052864 0.04137730 -0.21010250
v 0.34498626 -0.00498830 -0.21366075
v 0.34498626 -0.01499068 -0.21446422
v 0.34498626 -0.03706835 -0.21618594
v 0.31497172 0.09050260 -0.20634340
v 0.31946647 0.09050260 -0.20654427
v 0.29502392 -0.03706835 -0.21541117
v 0.27953374 0.09050260 -0.20401905
v 0.28503147 0.09050260 -0.20442079
v 0.32496417 0.09050260 -0.20660165
v 0.33495665 0.06499092 -0.20826599
v 0.33495665 0.07499330 -0.20726165
v 0.33495665 0.08498319 -0.20611383
v 0.34498626 0.06499092 -0.20648687
v 0.34498626 0.05500102 -0.20760600
v 0.34220025 0.03308569 -0.21056163
v 0.34498626 0.00500160 -0.21274249
v 0.35951060 -0.00136696 -0.20987295
v 0.36062500 -0.00802273 -0.21015990
v 0.35497871 -0.01499068 -0.21208249
v 0.35497871 -0.03706835 -0.21380422
v 0.28711167 -0.03706835 -0.21477987
v 0.28503147 -0.03706835 -0.21460770
v 0.27503902 0.09050260 -0.20355994
v 0.32945892 0.09050260 -0.20617121
v 0.33495665 0.09050260 -0.20536774
v 0.34498626 0.07499330 -0.20513819
v 0.36968881 0.06938647 -0.19991560
v 0.37470362 0.06562777 -0.19911213
v 0.35497871 0.05500102 -0.20513819
v 0.38495609 0.00500160 -0.20307212
v 0.35817331 0.00500160 -0.20955729
v 0.38495609 -0.00498830 -0.20401905
v 0.38495609 -0.01499068 -0.20482254
v 0.37433213 -0.03485809 -0.20898338
v 0.36898303 -0.03706835 -0.21044685
v 0.35702178 -0.03706835 -0.21331640
v 0.27448180 -0.03706835 -0.21211119
v 0.26998705 0.09050260 -0.20246950
v 0.33945137 0.09050260 -0.20430602
v 0.36311382 0.07499330 -0.20074777
v 0.37496364 0.08498319 -0.19641475
v 0.37496364 0.07499330 -0.19782084
v 0.38495609 0.06499092 -0.19632867
v 0.38763067 0.03308569 -0.19937040
v 0.38885650 0.02746637 -0.19968604
v 0.38391599 0.03308569 -0.20031734
v 0.38276446 0.03308569 -0.20060430
v 0.39015663 0.02081060 -0.20005909
v 0.39205110 0.00500160 -0.20091996
v 0.39305407 -0.00498830 -0.20140778
v 0.38495609 -0.02499306 -0.20556861
v 0.37485218 -0.03706835 -0.20901208
v 0.27080429 -0.03706835 -0.21073380
v 0.26326349 0.09050260 -0.20046082
v 0.26601237 0.09050260 -0.20146516
v 0.35713321 0.09050260 -0.20000169
v 0.36946592 0.09050260 -0.19695997
v 0.37496364 0.09050260 -0.19555390
v 0.38495609 0.07499330 -0.19480781
v 0.39401990 0.06499092 -0.19236869
v 0.39494857 0.04499864 -0.19446346
v 0.39706594 0.00500160 -0.19850953
v 0.39803174 -0.00498830 -0.19899735
v 0.39364842 -0.01499068 -0.20180951
v 0.38495609 -0.03706835 -0.20642948
v 0.38495609 -0.03498296 -0.20628600
v 0.26820400 -0.03706835 -0.20970076
v 0.22882850 0.09050260 -0.18737568
v 0.38008988 0.09050260 -0.19371739
v 0.38451034 0.09050260 -0.19208175
v 0.39249688 0.07499330 -0.19147913
v 0.39903471 0.06499092 -0.18941307
v 0.39584008 0.05537564 -0.19262695
v 0.40494102 0.00500160 -0.19403303
v 0.40494102 -0.00498830 -0.19503736
v 0.39862609 -0.01499068 -0.19925562
v 0.39405704 -0.02499306 -0.20215386
v 0.39446566 -0.03706835 -0.20252690
v 0.23518059 -0.03706835 -0.19601302
v 0.22503954 0.09050260 -0.18585482
v 0.38822502 0.09050260 -0.19021654
v 0.39101100 0.08252318 -0.19058958
v 0.40999299 0.08005068 -0.18000095
v 0.39751169 0.07499330 -0.18849480
v 0.40048343 0.05230375 -0.19030261
v 0.41088450 0.07499330 -0.18051746
v 0.42997789 0.07007328 -0.16998622
v 0.42496309 0.06499092 -0.17374533
v 0.42098841 0.03308569 -0.18060355
v 0.40360373 0.02500636 -0.19213913
v 0.40564680 0.01454195 -0.19234000
v 0.41582501 0.00500160 -0.18751916
v 0.42979217 -0.00112970 -0.17988616
v 0.40494102 -0.01499068 -0.19558260
v 0.41671652 -0.00498830 -0.18803567
v 0.43027508 -0.00778547 -0.18017311
v 0.39907184 -0.02499306 -0.19945648
v 0.39944333 -0.03498296 -0.19965735
v 0.39948046 -0.03706835 -0.19971474
v 0.22685972 -0.03706835 -0.19185218
v 0.21983901 0.09050260 -0.18355918
v 0.38933942 0.09050260 -0.18961394
v 0.39138249 0.09050260 -0.18843742
v 0.40861854 0.08671893 -0.17916878
v 0.42128557 0.09050260 -0.17073230
v 0.42239997 0.08498319 -0.17142099
v 0.42897493 0.07674153 -0.16932622
v 0.40768987 0.03308569 -0.18860959
v 0.42537171 0.07404426 -0.17202359
v 0.43049794 0.06499092 -0.17035925
v 0.42916068 0.00500160 -0.17951313
v 0.42689472 0.02500636 -0.17813574
v 0.43480697 0.07428151 -0.16487843
v 0.43547562 0.06499092 -0.16605493
v 0.43874452 0.03308569 -0.16895318
v 0.44004464 0.02054837 -0.17007230
v 0.42191708 0.02500636 -0.18114877
v 0.43495557 0.00500160 -0.17578271
v 0.43413833 -0.00466363 -0.17741835
v 0.41214749 -0.01499068 -0.19130696
v 0.43127805 -0.03498296 -0.18077572
v 0.43057224 -0.01499068 -0.18034530
v 0.42496309 -0.01499068 -0.18370266
v 0.43558705 -0.01499068 -0.17710270
v 0.41931680 -0.03706835 -0.18794960
v 0.22206780 -0.03706835 -0.18832263
v 0.21162958 0.09050260 -0.17873834
v 0.21330118 0.09050260 -0.17991486
v 0.21616149 0.09050260 -0.18169397
v 0.42247427 0.09050260 -0.16998622
v 0.42741477 0.08498319 -0.16826449
v 0.43354398 0.08498319 -0.16324279
v 0.43963605 0.07848977 -0.15962714
v 0.44056469 0.01500398 -0.17050274
v 0.44034183 0.07182151 -0.16037324
v 0.44097334 0.06499092 -0.16103323
v 0.44186485 0.05500102 -0.16195148
v 0.44361073 0.02433204 -0.16568190
v 0.44639674 0.00500160 -0.16619842
v 0.44138193 0.00500160 -0.17127752
v 0.44201344 -0.00498830 -0.17185143
v 0.43131518 -0.03706835 -0.18080442
v 0.42496309 -0.03706835 -0.18459222
v 0.43625569 -0.03498296 -0.17727487
v 0.44223630 -0.01499068 -0.17210969
v 0.21616149 -0.03706835 -0.18344441
v 0.17715745 0.09050260 -0.15219502
v 0.42589176 0.09050260 -0.16769058
v 0.43254101 0.09050260 -0.16238192
v 0.43855879 0.08498319 -0.15850803
v 0.44346213 0.08498319 -0.15354371
v 0.45330602 0.08498319 -0.14344290
v 0.44959137 0.07786539 -0.14958373
v 0.44598812 0.06499092 -0.15578195
v 0.45159727 0.05500102 -0.15167850
v 0.44873697 0.03308569 -0.15868020
v 0.46318704 0.03308569 -0.14338550
v 0.46489578 0.01455443 -0.14490637
v 0.45111436 0.00500160 -0.16120541
v 0.45679784 -0.00498830 -0.15661412
v 0.44702822 -0.00498830 -0.16688710
v 0.43632999 -0.03706835 -0.17727487
v 0.44219917 -0.02499306 -0.17219576
v 0.44725114 -0.01499068 -0.16711667
v 0.19483927 -0.03706835 -0.16536625
v 0.17440858 0.09050260 -0.14989938
v 0.43476981 0.09050260 -0.16025844
v 0.43751869 0.09050260 -0.15747499
v 0.44962850 0.09050260 -0.14516462
v 0.45234022 0.09050260 -0.14238116
v 0.45828369 0.08498319 -0.13816294
v 0.45943522 0.07691635 -0.13939685
v 0.45018572 0.07119714 -0.15021503
v 0.46218407 0.04499864 -0.14229508
v 0.47005922 0.01067086 -0.14011422
v 0.46582448 0.00500160 -0.14562376
v 0.46151546 -0.00498830 -0.15162110
v 0.45702070 -0.01499068 -0.15687239
v 0.46675313 -0.01499068 -0.14659941
v 0.44216204 -0.03498296 -0.17225316
v 0.44216204 -0.03706835 -0.17225316
v 0.44717681 -0.03706835 -0.16705927
v 0.19030738 -0.03706835 -0.16146366
v 0.17217979 0.09050260 -0.14763245
v 0.18856148 -0.03706835 -0.15979932
v 0.18436390 -0.03706835 -0.15560979
v 0.45456904 0.09050260 -0.13999945
v 0.45772648 0.09050260 -0.13649860
v 0.46155262 0.09050260 -0.13202210
v 0.46244413 0.08498319 -0.13316992
v 0.46281558 0.07414415 -0.13563773
v 0.46887052 0.02500636 -0.13856468
v 0.46950197 0.01733912 -0.13942553
v 0.47050494 0.00500160 -0.14063075
v 0.47236228 0.02500636 -0.13357165
v 0.47447965 0.00500160 -0.13494903
v 0.46649313 -0.00498830 -0.14634115
v 0.45698357 -0.02499306 -0.15684369
v 0.46667886 -0.03498296 -0.14654201
v 0.47117358 -0.00498830 -0.14134812
v 0.47139648 -0.01499068 -0.14160639
v 0.46170118 -0.03498296 -0.15179329
v 0.46667886 -0.03706835 -0.14651331
v 0.16969095 0.09050260 -0.14487767
v 0.18183793 -0.03706835 -0.15242457
v 0.16508476 0.09050260 -0.13919596
v 0.16783361 0.09050260 -0.14263943
v 0.46355852 0.09050260 -0.12898037
v 0.46779323 0.08560756 -0.12470475
v 0.46853620 0.07499330 -0.12743083
v 0.46976203 0.05865982 -0.12964037
v 0.47158220 0.03499626 -0.13245253
v 0.47570550 -0.00498830 -0.13494903
v 0.47890010 0.00500160 -0.12820560
v 0.47953159 -0.00498830 -0.12923864
v 0.47124791 -0.03498296 -0.14154899
v 0.47607696 -0.01499068 -0.13494903
v 0.47121075 -0.03706835 -0.14152029
v 0.17756605 -0.03706835 -0.14674288
v 0.14320536 0.09050260 -0.10892223
v 0.46589875 0.09050260 -0.12530735
v 0.46875906 0.09050260 -0.12077346
v 0.46979916 0.08935377 -0.11968304
v 0.47065353 0.08268552 -0.12117520
v 0.47566834 0.07499330 -0.11497698
v 0.49011841 0.00114300 -0.11029962
v 0.48729527 0.00468941 -0.11417350
v 0.47964305 -0.01499068 -0.12943950
v 0.48250335 -0.00498830 -0.12424562
v 0.47551978 -0.03498296 -0.13494903
v 0.47544545 -0.03706835 -0.13494903
v 0.17660025 -0.03706835 -0.14530811
v 0.14038220 0.09050260 -0.10476139
v 0.46961343 0.09050260 -0.11936739
v 0.47247374 0.09050260 -0.11443177
v 0.47303092 0.08560756 -0.11580915
v 0.47927159 0.07499330 -0.10831963
v 0.47975448 0.06868717 -0.10955353
v 0.48027456 0.06201892 -0.11052918
v 0.48963553 0.00781125 -0.10926658
v 0.49179000 0.00468941 -0.10556486
v 0.49309015 -0.00498830 -0.10499095
v 0.49041557 -0.00498830 -0.11078744
v 0.47945732 -0.02499306 -0.12909515
v 0.47626269 -0.03706835 -0.13362904
v 0.48261479 -0.01499068 -0.12444649
v 0.17221692 -0.03706835 -0.13847858
v 0.13878490 0.09050260 -0.10217880
v 0.15732110 -0.03706835 -0.11500567
v 0.47499973 0.09050260 -0.10926658
v 0.47849149 0.08543274 -0.10490487
v 0.48135179 0.07499330 -0.10332662
v 0.48202044 0.06521569 -0.10573703
v 0.49130711 0.01500398 -0.10303966
v 0.49602473 0.00500160 -0.09497623
v 0.49710199 -0.00498830 -0.09497623
v 0.49320158 -0.01499068 -0.10499095
v 0.49052703 -0.01499068 -0.11095961
v 0.47923443 -0.03498296 -0.12877950
v 0.48220617 -0.03498296 -0.12375779
v 0.47919726 -0.03706835 -0.12869342
v 0.48740670 -0.02499306 -0.11560828
v 0.13763335 0.09050260 -0.09953881
v 0.15219486 -0.03706835 -0.10516313
v 0.47700563 0.09050260 -0.10493356
v 0.47975448 0.08906657 -0.09870664
v 0.48053455 0.08239831 -0.10151879
v 0.49112138 0.03435940 -0.09511971
v 0.48952407 0.03725647 -0.09859186
v 0.48985839 0.03308569 -0.09959620
v 0.49004412 0.03058821 -0.10019881
v 0.49279296 0.02500636 -0.09497623
v 0.50055665 0.00284128 -0.08189109
v 0.49940509 -0.00498830 -0.08826149
v 0.49710199 -0.01499068 -0.09497623
v 0.49205005 -0.03706835 -0.10516313
v 0.49008125 -0.03706835 -0.11021353
v 0.13618463 0.09050260 -0.09483275
v 0.15130334 -0.03706835 -0.10292488
v 0.47875154 0.09050260 -0.10022750
v 0.47942019 0.09050260 -0.09781708
v 0.48057172 0.09050260 -0.09144668
v 0.48302341 0.08498319 -0.08499020
v 0.48120320 0.08543274 -0.09520579
v 0.48354346 0.07499330 -0.09497623
v 0.48551223 0.06499092 -0.09497623
v 0.49052703 0.04278837 -0.09190582
v 0.49134427 0.03308569 -0.09511971
v 0.50081664 0.00357804 -0.07497548
v 0.50204253 -0.00498830 -0.07497548
v 0.50100243 -0.00498830 -0.08326847
v 0.48985839 0.04945663 -0.08926583
v 0.49394453 0.03308569 -0.08499020
v 0.49041557 0.05202903 -0.08260848
v 0.49100995 0.09050260 0.02497088
v 0.49205005 0.08498319 0.02497088
v 0.49936795 -0.01499068 -0.08808932
v 0.49576473 -0.03706835 -0.09497623
v 0.12552352 0.09050260 -0.05500342
v 0.14940885 -0.03706835 -0.09635361
v 0.14903739 -0.03706835 -0.09497623
v 0.48157465 0.09050260 -0.08499020
v 0.48729527 0.06499092 -0.08499020
v 0.50401127 -0.00498830 0.01495616
v 0.50430846 -0.01499068 0.01495616
v 0.50189394 -0.01499068 -0.07497548
v 0.50089097 -0.01499068 -0.08306760
v 0.49231008 0.08498319 0.03495691
v 0.49123281 0.09050260 0.03495691
v 0.49910790 -0.02499306 -0.08668324
v 0.49869931 -0.03706835 -0.08447368
v 0.12485488 0.09050260 -0.04501740
v 0.14647426 -0.03706835 -0.08521976
v 0.14443119 -0.03706835 -0.07684068
v 0.13915636 -0.03706835 -0.05503212
v 0.13819055 -0.03706835 -0.04622260
v 0.50375128 -0.00498830 0.02497088
v 0.50404841 -0.01499068 0.02497088
v 0.50337982 -0.02499306 0.01495616
v 0.50096524 -0.02499306 -0.07497548
v 0.50011086 -0.03147401 -0.08057110
v 0.50040805 -0.02499306 -0.08166152
v 0.49082422 0.09050260 0.04497164
v 0.49182716 0.08498319 0.04497164
v 0.49895933 -0.03706835 -0.08232152
v 0.13811626 -0.03706835 -0.04504609
v 0.13908207 -0.03706835 -0.03503137
v 0.12797521 0.09050260 -0.01503062
v 0.50285971 -0.00498830 0.03495691
v 0.50326836 -0.01499068 0.03495691
v 0.50237679 -0.02499306 0.03495691
v 0.50308263 -0.02499306 0.02497088
v 0.50211680 -0.03706835 0.01495616
v 0.49977654 -0.03706835 -0.07497548
v 0.49026701 0.09050260 0.05056725
v 0.49294156 0.07499330 0.04497164
v 0.14372541 -0.03706835 0.00244493
v 0.13031545 0.09050260 0.00508492
v 0.12912676 0.09050260 -0.00501589
v 0.50022233 0.01253148 0.04083949
v 0.50066805 0.00500160 0.04201600
v 0.50122529 -0.00498830 0.04345077
v 0.50141102 -0.01499068 0.04388121
v 0.50103956 -0.02499306 0.04279078
v 0.50025946 -0.03706835 0.04075340
v 0.50074238 -0.03706835 0.03687951
v 0.50096524 -0.03706835 0.03472735
v 0.50163388 -0.03706835 0.02497088
v 0.49008125 0.09050260 0.05096899
v 0.49060130 0.08498319 0.05139942
v 0.13050118 0.09050260 0.00657708
v 0.14405973 -0.03706835 0.00485535
v 0.49936795 -0.00498830 0.04847249
v 0.49112138 0.07499330 0.05248985
v 0.49951655 -0.01499068 0.04887422
v 0.49914506 -0.02499306 0.04781249
v 0.49847642 -0.03498296 0.04611945
v 0.49836498 -0.03706835 0.04566032
v 0.48651516 0.09050260 0.05802809
v 0.48681235 0.08890422 0.05802809
v 0.48751813 0.08498319 0.05802809
v 0.48774102 0.08312257 0.05802809
v 0.13822770 0.09050260 0.05802809
v 0.15977278 -0.03706835 0.07498711
v 0.15973563 -0.03703089 0.07538885
v 0.49676767 -0.00498830 0.05498636
v 0.49710199 -0.01499068 0.05498636
v 0.48881829 0.07499330 0.05748287
v 0.48863256 0.07429400 0.05802809
v 0.49030414 -0.00498830 0.07053931
v 0.49268153 -0.00498830 0.06494369
v 0.49621046 -0.02499306 0.05498636
v 0.49498463 -0.03498296 0.05498636
v 0.49747348 -0.03706835 0.04795597
v 0.48447210 0.03308569 0.07538885
v 0.48450926 0.03278599 0.07538885
v 0.16174155 0.03308569 0.07538885
v 0.16003281 -0.03706835 0.07538885
v 0.49301586 -0.01499068 0.06494369
v 0.49019271 -0.02168391 0.07039583
v 0.48514074 0.02499387 0.07538885
v 0.48733240 -0.00480099 0.07538885
v 0.49045274 -0.01499068 0.07076888
v 0.49182716 -0.02500555 0.06566107
v 0.49468744 -0.03706835 0.05498636
v 0.49130711 -0.03706835 0.06304979
v 0.48443496 -0.03706835 0.07538885
v 0.48748100 -0.01499068 0.07538885
v 0.48718381 -0.01768795 0.07538885
v 0.48636660 -0.02500555 0.07538885
v 0.48970979 -0.02833968 0.06942019
v 0.48748100 -0.01419149 0.07538885
v 0.48915261 -0.03498296 0.06835845
v 0.48896688 -0.03706835 0.06801410
v 0.48785245 -0.03706835 0.06985062
f 1 2 3
f 1 3 4
f 1 4 5
f 1 5 6
f 1 6 7
f 1 7 24
f 1 24 40
f 1 40 39
f 1 39 56
f 1 56 69
f 1 69 82
f 1 82 103
f 1 103 129
f 1 129 147
f 1 147 146
f 1 146 166
f 1 166 185
f 1 185 186
f 1 186 207
f 1 207 222
f 1 222 235
f 1 235 249
f 1 249 265
f 1 265 281
f 1 281 280
f 1 280 302
f 1 302 315
f 1 315 329
f 1 329 338
f 1 338 337
f 1 337 352
f 1 352 351
f 1 351 350
f 1 350 349
f 1 349 362
f 1 362 378
f 1 378 389
f 1 389 390
f 1 390 398
f 1 398 399
f 1 399 391
f 1 391 382
f 1 382 368
f 1 368 356
f 1 356 341
f 1 341 331
f 1 331 330
f 1 330 320
f 1 320 319
f 1 319 318
f 1 318 317
f 1 317 305
f 1 305 304
f 1 304 283
f 1 283 268
f 1 268 253
f 1 253 251
f 1 251 236
f 1 236 223
f 1 223 209
f 1 209 190
f 1 190 189
f 1 189 187
f 1 187 169
f 1 169 150
f 1 150 130
f 1 130 104
f 1 104 83
f 1 83 71
f 1 71 57
f 1 57 41
f 1 41 26
f 1 26 25
f 1 25 10
f 1 10 2
f 2 8 9
f 2 9 3
f 2 10 11
f 2 11 12
f 2 12 8
f 3 9 13
f 3 13 14
f 3 14 4
f 4 14 15
f 4 15 16
f 4 16 17
f 4 17 18
f 4 18 19
f 4 19 20
f 4 20 5
f 5 20 21
f 5 21 22
f 5 22 23
f 5 23 6
f 6 23 24
f 6 24 7
f 8 12 11
f 8 11 27
f 8 27 42
f 8 42 59
f 8 59 58
f 8 58 72
f 8 72 84
f 8 84 105
f 8 105 133
f 8 133 132
f 8 132 131
f 8 131 151
f 8 151 170
f 8 170 188
f 8 188 208
f 8 208 211
f 8 211 210
f 8 210 224
f 8 224 237
f 8 237 252
f 8 252 267
f 8 267 282
f 8 282 303
f 8 303 316
f 8 316 332
f 8 332 343
f 8 343 342
f 8 342 355
f 8 355 367
f 8 367 363
f 8 363 353
f 8 353 339
f 8 339 327
f 8 327 313
f 8 313 299
f 8 299 306
f 8 306 286
f 8 286 285
f 8 285 284
f 8 284 269
f 8 269 254
f 8 254 239
f 8 239 238
f 8 238 226
f 8 226 225
f 8 225 212
f 8 212 193
f 8 193 192
f 8 192 191
f 8 191 174
f 8 174 173
f 8 173 172
f 8 172 171
f 8 171 153
f 8 153 152
f 8 152 134
f 8 134 109
f 8 109 107
f 8 107 106
f 8 106 85
f 8 85 74
f 8 74 73
f 8 73 62
f 8 62 61
f 8 61 60
f 8 60 43
f 8 43 29
f 8 29 28
f 8 28 13
f 8 13 9
f 10 25 11
f 11 26 27
f 11 25 26
f 13 28 15
f 13 15 14
f 15 28 16
f 16 28 29
f 16 29 30
f 16 30 17
f 17 30 31
f 17 31 32
f 17 32 18
f 18 32 33
f 18 33 34
f 18 34 19
f 19 34 35
f 19 35 20
f 20 35 21
f 21 35 34
f 21 34 36
f 21 36 22
f 22 36 37
f 22 37 38
f 22 38 23
f 23 38 39
f 23 39 40
f 23 40 24
f 26 41 42
f 26 42 27
f 29 43 30
f 30 43 44
f 30 44 31
f 31 44 45
f 31 45 46
f 31 46 32
f 32 46 47
f 32 47 48
f 32 48 49
f 32 49 50
f 32 50 51
f 32 51 33
f 33 51 34
f 34 51 50
f 34 50 49
f 34 49 52
f 34 52 36
f 36 52 53
f 36 53 54
f 36 54 37
f 37 55 38
f 37 54 55
f 38 56 39
f 38 55 56
f 41 57 58
f 41 58 59
f 41 59 42
f 43 60 44
f 44 60 45
f 45 60 61
f 45 61 62
f 45 62 63
f 45 63 47
f 45 47 46
f 47 63 64
f 47 64 52
f 47 52 49
f 47 49 48
f 52 64 65
f 52 65 66
f 52 66 53
f 53 66 54
f 54 66 67
f 54 67 68
f 54 68 69
f 54 69 70
f 54 70 55
f 55 70 56
f 56 70 69
f 57 71 72
f 57 72 58
f 62 73 63
f 63 73 74
f 63 74 75
f 63 75 64
f 64 75 76
f 64 76 77
f 64 77 65
f 65 77 66
f 66 78 67
f 66 77 78
f 67 78 79
f 67 79 80
f 67 80 68
f 68 80 81
f 68 81 69
f 69 81 82
f 71 83 84
f 71 84 72
f 74 85 86
f 74 86 75
f 75 86 87
f 75 87 88
f 75 88 76
f 76 89 77
f 76 88 90
f 76 90 91
f 76 91 92
f 76 92 93
f 76 93 89
f 77 89 94
f 77 94 78
f 78 94 95
f 78 95 96
f 78 96 97
f 78 97 79
f 79 98 80
f 79 97 99
f 79 99 100
f 79 100 98
f 80 98 101
f 80 101 82
f 80 82 81
f 82 101 102
f 82 102 103
f 83 104 105
f 83 105 84
f 85 106 86
f 86 106 107
f 86 107 87
f 87 108 109
f 87 109 110
f 87 110 111
f 87 111 90
f 87 90 88
f 87 107 108
f 89 112 95
f 89 95 94
f 89 93 112
f 90 111 113
f 90 113 91
f 91 114 115
f 91 115 116
f 91 116 92
f 91 113 111
f 91 111 117
f 91 117 118
f 91 118 119
f 91 119 120
f 91 120 114
f 92 116 93
f 93 116 115
f 93 115 121
f 93 121 112
f 95 112 96
f 96 115 97
f 96 112 115
f 97 100 99
f 97 115 122
f 97 122 123
f 97 123 100
f 98 102 101
f 98 100 124
f 98 124 125
f 98 125 102
f 100 126 127
f 100 127 124
f 100 123 128
f 100 128 126
f 102 125 129
f 102 129 103
f 104 130 131
f 104 131 132
f 104 132 133
f 104 133 105
f 107 109 108
f 109 134 110
f 110 134 135
f 110 135 111
f 111 135 136
f 111 136 137
f 111 137 117
f 112 121 115
f 114 120 138
f 114 138 122
f 114 122 115
f 117 137 139
f 117 139 118
f 118 139 119
f 119 139 120
f 120 139 140
f 120 140 141
f 120 141 142
f 120 142 143
f 120 143 138
f 122 138 144
f 122 144 123
f 123 144 145
f 123 145 128
f 124 127 125
f 125 146 147
f 125 147 129
f 125 127 126
f 125 126 128
f 125 128 148
f 125 148 146
f 128 145 149
f 128 149 148
f 130 150 151
f 130 151 131
f 134 152 135
f 135 152 153
f 135 153 136
f 136 153 137
f 137 154 155
f 137 155 156
f 137 156 157
f 137 157 139
f 137 153 154
f 138 143 144
f 139 157 140
f 140 157 158
f 140 158 141
f 141 158 159
f 141 159 160
f 141 160 142
f 142 160 161
f 142 161 162
f 142 162 163
f 142 163 143
f 143 163 181
f 143 181 164
f 143 164 165
f 143 165 144
f 144 165 145
f 145 165 149
f 146 148 166
f 148 149 166
f 149 167 166
f 149 165 168
f 149 168 167
f 150 169 170
f 150 170 151
f 153 171 154
f 154 171 155
f 155 171 172
f 155 172 173
f 155 173 156
f 156 173 174
f 156 174 175
f 156 175 157
f 157 175 176
f 157 176 177
f 157 177 158
f 158 177 159
f 159 177 176
f 159 176 178
f 159 178 160
f 160 178 161
f 161 178 179
f 161 179 162
f 162 179 180
f 162 180 163
f 163 180 181
f 164 182 165
f 164 181 183
f 164 183 182
f 165 182 168
f 166 167 184
f 166 184 185
f 167 168 184
f 168 186 185
f 168 185 184
f 168 182 186
f 169 187 170
f 170 187 189
f 170 189 190
f 170 190 188
f 174 191 175
f 175 192 193
f 175 193 194
f 175 194 176
f 175 191 192
f 176 194 195
f 176 195 196
f 176 196 197
f 176 197 179
f 176 179 178
f 179 198 180
f 179 197 199
f 179 199 200
f 179 200 198
f 180 198 204
f 180 204 201
f 180 201 181
f 181 201 183
f 182 202 186
f 182 183 202
f 183 203 202
f 183 201 204
f 183 204 205
f 183 205 203
f 186 202 206
f 186 206 207
f 188 190 208
f 190 209 210
f 190 210 211
f 190 211 208
f 193 212 194
f 194 212 213
f 194 213 214
f 194 214 195
f 195 214 215
f 195 215 196
f 196 215 197
f 197 215 216
f 197 216 199
f 198 200 217
f 198 217 204
f 199 216 218
f 199 218 200
f 200 218 219
f 200 219 217
f 202 203 206
f 203 205 220
f 203 220 207
f 203 207 206
f 204 217 205
f 205 217 221
f 205 221 220
f 207 220 222
f 209 223 210
f 210 223 224
f 212 225 213
f 213 225 226
f 213 226 227
f 213 227 228
f 213 228 214
f 214 228 229
f 214 229 230
f 214 230 231
f 214 231 215
f 215 231 218
f 215 218 216
f 217 219 221
f 218 231 230
f 218 230 219
f 219 232 221
f 219 230 233
f 219 233 250
f 219 250 232
f 220 221 222
f 221 232 222
f 222 232 234
f 222 234 235
f 223 236 237
f 223 237 224
f 226 238 227
f 227 238 239
f 227 239 240
f 227 240 228
f 228 240 229
f 229 240 241
f 229 241 242
f 229 242 243
f 229 243 230
f 230 244 245
f 230 245 246
f 230 246 247
f 230 247 233
f 230 243 244
f 232 248 249
f 232 249 235
f 232 235 234
f 232 250 248
f 233 247 250
f 236 251 237
f 237 251 253
f 237 253 252
f 239 254 255
f 239 255 240
f 240 255 241
f 241 255 256
f 241 256 257
f 241 257 242
f 242 257 258
f 242 258 244
f 242 244 243
f 244 258 245
f 245 258 259
f 245 259 246
f 246 259 260
f 246 260 261
f 246 261 262
f 246 262 247
f 247 262 250
f 248 263 249
f 248 250 264
f 248 264 263
f 249 263 265
f 250 262 266
f 250 266 264
f 252 253 268
f 252 268 267
f 254 269 255
f 255 269 270
f 255 270 271
f 255 271 256
f 256 271 272
f 256 272 273
f 256 273 274
f 256 274 275
f 256 275 257
f 257 275 258
f 258 275 259
f 259 275 274
f 259 274 276
f 259 276 277
f 259 277 278
f 259 278 260
f 260 279 261
f 260 278 279
f 261 279 280
f 261 280 281
f 261 281 262
f 262 281 266
f 263 264 265
f 264 266 281
f 264 281 265
f 267 268 283
f 267 283 282
f 269 284 270
f 270 284 285
f 270 285 286
f 270 286 287
f 270 287 288
f 270 288 289
f 270 289 271
f 271 289 290
f 271 290 291
f 271 291 272
f 272 291 277
f 272 277 292
f 272 292 273
f 273 292 276
f 273 276 274
f 276 292 277
f 277 293 294
f 277 294 295
f 277 295 278
f 277 291 296
f 277 296 297
f 277 297 298
f 277 298 299
f 277 299 300
f 277 300 293
f 278 295 301
f 278 301 279
f 279 302 280
f 279 301 302
f 282 283 304
f 282 304 305
f 282 305 303
f 286 306 287
f 287 289 288
f 287 306 299
f 287 299 298
f 287 298 307
f 287 307 289
f 289 307 298
f 289 298 296
f 289 296 290
f 290 296 291
f 293 300 294
f 294 308 309
f 294 309 310
f 294 310 311
f 294 311 295
f 294 300 312
f 294 312 308
f 295 311 301
f 296 298 297
f 299 313 312
f 299 312 300
f 301 311 302
f 302 311 314
f 302 314 315
f 303 305 317
f 303 317 318
f 303 318 319
f 303 319 320
f 303 320 316
f 308 321 322
f 308 322 309
f 308 312 321
f 309 322 323
f 309 323 324
f 309 324 310
f 310 324 325
f 310 325 326
f 310 326 311
f 311 326 315
f 311 315 314
f 312 313 327
f 312 327 328
f 312 328 321
f 315 326 325
f 315 325 329
f 316 320 330
f 316 330 331
f 316 331 332
f 321 333 334
f 321 334 322
f 321 328 333
f 322 334 335
f 322 335 336
f 322 336 323
f 323 336 337
f 323 337 338
f 323 338 324
f 324 338 325
f 325 338 329
f 327 339 328
f 328 339 340
f 328 340 333
f 331 341 342
f 331 342 343
f 331 343 332
f 333 344 345
f 333 345 346
f 333 346 334
f 333 340 344
f 334 346 347
f 334 347 348
f 334 348 335
f 335 348 349
f 335 349 350
f 335 350 351
f 335 351 336
f 336 351 352
f 336 352 337
f 339 353 354
f 339 354 344
f 339 344 340
f 341 355 342
f 341 356 355
f 344 354 345
f 345 354 346
f 346 357 347
f 346 354 358
f 346 358 357
f 347 357 359
f 347 359 360
f 347 360 348
f 348 360 349
f 349 360 361
f 349 361 362
f 353 363 364
f 353 364 365
f 353 365 354
f 354 365 366
f 354 366 358
f 355 356 367
f 356 368 369
f 356 369 367
f 357 370 371
f 357 371 359
f 357 358 370
f 358 366 372
f 358 372 373
f 358 373 374
f 358 374 375
f 358 375 370
f 359 371 360
f 360 371 376
f 360 376 377
f 360 377 361
f 361 377 378
f 361 378 362
f 363 379 364
f 363 367 381
f 363 381 379
f 364 379 365
f 365 379 380
f 365 380 366
f 366 380 373
f 366 373 372
f 367 369 381
f 368 382 369
f 369 382 391
f 369 391 394
f 369 394 393
f 369 393 392
f 369 392 396
f 369 396 386
f 369 386 385
f 369 385 380
f 369 380 379
f 369 379 381
f 370 375 383
f 370 383 371
f 371 383 384
f 371 384 376
f 373 380 374
f 374 380 385
f 374 385 386
f 374 386 387
f 374 387 383
f 374 383 375
f 376 384 388
f 376 388 377
f 377 389 378
f 377 388 390
f 377 390 389
f 383 387 384
f 384 387 392
f 384 392 393
f 384 393 394
f 384 394 391
f 384 391 395
f 384 395 388
f 386 396 387
f 387 396 392
f 388 395 390
f 390 395 397
f 390 397 398
f 391 399 395
f 395 399 397
f 397 399 398

