# https://github.com/mikedh/trimesh
v 0.06016831 0.11276321 0.11493419
v 0.06016831 0.11287488 0.11315968
v 0.06016831 0.11581564 0.12016901
v -0.00210205 0.14786614 0.14288279
v -0.00210205 0.14499985 0.13498621
v -0.00210205 0.14254302 0.12717834
v -0.00210205 0.14187297 0.12442785
v -0.00210205 0.14574434 -0.06495722
v -0.00210205 0.14641438 -0.07209964
v -0.00210205 0.14671218 -0.07511631
v 0.06016831 0.14403200 -0.06522340
v 0.06016831 0.11737907 0.12283078
v -0.00210205 0.17678979 0.17469096
v 0.06016831 0.12370728 0.13210261
v 0.06016831 0.12970047 0.14022103
v 0.06016831 0.17005211 0.18835473
v -0.00210205 0.14861065 -0.08212565
v 0.06016831 0.15404546 -0.10457326
v 0.06016831 0.14507429 -0.07010331
v -0.00210205 0.18092173 0.17917162
v 0.06016831 0.17135498 0.18941945
v 0.01843937 0.22730377 0.23120925
v -0.00210205 0.20746300 0.20521262
v -0.00210205 0.15218422 -0.09503524
v -0.00210205 0.15497608 -0.10497252
v -0.00210205 0.15825185 -0.11464363
v 0.06016831 0.15546000 -0.10861028
v 0.06016831 0.20050195 0.20454717
v 0.03041069 0.22897890 0.23041072
v 0.02500409 0.22722933 0.23120925
v 0.02677175 0.30882600 0.25068456
v -0.00210205 0.26501244 0.23462519
v -0.00210205 0.25522235 0.23129797
v -0.00210205 0.25176045 0.22983402
v -0.00210205 0.25105318 0.22952348
v -0.00210205 0.22525641 0.21723494
v -0.00210205 0.21639693 0.21239939
v -0.00210205 0.21137159 0.20876163
v -0.00210205 0.15996420 -0.11823701
v 0.06016831 0.15799129 -0.11397818
v 0.06016831 0.21595022 0.21155649
v 0.06016831 0.30540133 0.24145707
v 0.03221492 0.30882600 0.25068456
v 0.06016831 0.23943904 0.22034034
v 0.02677175 0.31176674 0.25068456
v -0.00210205 0.33499500 0.24549410
v -0.00210205 0.32498154 0.24451810
v -0.00210205 0.29769579 0.24096909
v -0.00210205 0.16100650 -0.12010025
v 0.06016831 0.15959194 -0.11655123
v 0.06016831 0.32014233 0.24256614
v 0.06016831 0.33488333 0.24269924
v 0.03221492 0.31176674 0.25068456
v 0.04499692 0.34497124 0.24536100
v -0.00210205 0.33841968 0.24482864
v -0.00210205 0.16260715 -0.12258457
v -0.00210205 0.16409615 -0.12484709
v 0.06016831 0.16100650 -0.11859193
v 0.05499943 0.33499500 0.24403012
v 0.06016831 0.40088281 0.23045510
v 0.05906505 0.40088281 0.23045510
v 0.00500516 0.37497437 0.23542371
v -0.00210205 0.38532287 0.23156416
v -0.00210205 0.16811642 -0.13017061
v 0.06016831 0.17597084 -0.13851085
v 0.06016831 0.16573404 -0.12493581
v 0.06016831 0.16312830 -0.12147551
v 0.06016831 0.44335628 0.21262121
v 0.02500409 0.44138336 0.21133471
v 0.00500516 0.40497753 0.22495410
v -0.00210205 0.39693698 0.22717223
v -0.00210205 0.17258339 -0.13607088
v 0.06016831 0.18233627 -0.14693978
v 0.06016831 0.45314637 0.20317194
v 0.05499943 0.45430034 0.20361555
v 0.01500158 0.44067609 0.21062487
v 0.00972298 0.44011772 0.21013689
v -0.00210205 0.40843946 0.22127196
v -0.00210205 0.17779486 -0.14290276
v 0.06016831 0.18475589 -0.14982337
v -0.00210205 0.18159178 -0.14787140
v -0.00210205 0.18657990 -0.15399349
v 0.06016831 0.45839506 0.19660622
v 0.05499943 0.45928848 0.19793710
v -0.00210205 0.46237811 0.18254319
v -0.00210205 0.43594855 0.20450282
v 0.06016831 0.18736163 -0.15244079
v -0.00210205 0.18981844 -0.15754253
v -0.00210205 0.19115853 -0.15896213
v 0.06016831 0.46036798 0.19394445
v 0.06016831 0.48207003 0.14470167
v 0.00500516 0.47026977 0.17043212
v -0.00010886 0.47004640 0.17016596
v -0.00210205 0.46330875 0.18107921
v 0.06016831 0.19022793 -0.15488073
v 0.06016831 0.19588608 -0.15927267
v 0.06016831 0.19346648 -0.15745378
v -0.00210205 0.19618389 -0.16268861
v 0.06016831 0.48553193 0.13498621
v 0.00500516 0.47213101 0.16497549
v -0.00210205 0.46833408 0.17216229
v 0.00500516 0.48921716 0.10734814
v -0.00148032 0.49029666 0.10109298
v -0.00210205 0.48999888 0.10171406
v 0.06016831 0.20150703 -0.16335404
v -0.00210205 0.21557799 -0.17630801
v 0.06016831 0.21542908 -0.17329133
v 0.06016831 0.48865879 0.12482711
v 0.04499692 0.48735595 0.12496020
v 0.00500516 0.49066892 0.10233514
v -0.00148032 0.49029666 0.09820939
v -0.00210205 0.49007332 0.09998391
v 0.06016831 0.21885377 -0.17568693
v -0.00210205 0.22332072 -0.18172029
v 0.06016831 0.48932883 0.12247588
v 0.05990621 0.48999888 0.11999156
v 0.04499692 0.49078059 0.11289350
v 0.04499692 0.49234402 0.10499691
v 0.05499943 0.49282795 0.10499691
v 0.00500516 0.49066892 0.09705596
v -0.00210205 0.49007332 0.09758831
v 0.03499441 0.49096674 0.06498161
v 0.02810664 0.49011058 0.05823845
v -0.00210205 0.48061824 -0.06433614
v -0.00210205 0.48765373 0.05499996
v 0.06016831 0.22253901 -0.17825997
v -0.00210205 0.22484694 -0.18278497
v 0.06016831 0.49007332 0.11976974
v 0.06016831 0.49111563 0.11520037
v 0.06016831 0.49301410 0.10499691
v 0.04078501 0.49007332 0.04936588
v 0.03848706 0.49007332 0.04936588
v 0.03509194 0.49029666 0.05491124
v 0.01500158 0.48072994 -0.06477977
v -0.00210205 0.47987375 -0.06934914
v 0.06016831 0.22495863 -0.17985705
v 0.06016831 0.22752713 -0.18140975
v -0.00210205 0.23538154 -0.18837470
v 0.06016831 0.47972485 -0.05710499
v 0.05905285 0.47983652 -0.05772607
v 0.05238452 0.48035768 -0.06229544
v 0.04499692 0.48139995 -0.05497558
v 0.03499441 0.48084158 -0.06495722
v 0.01500158 0.47994819 -0.06979277
v 0.00500516 0.47991097 -0.06957096
v -0.00210205 0.47898036 -0.07498322
v 0.06016831 0.23110071 -0.18291807
v -0.00210205 0.23817341 -0.18939504
v 0.06016831 0.23500931 -0.18442640
v 0.06016831 0.47950149 -0.05910132
v 0.06016831 0.47868258 -0.06517904
v 0.05543220 0.47938985 -0.06535649
v 0.05499943 0.47790083 -0.07498322
v 0.04699621 0.47979930 -0.06894988
v 0.04419843 0.48054379 -0.06535649
v 0.04033396 0.47998542 -0.07010331
v 0.03499441 0.47916648 -0.07507195
v 0.02564410 0.47931540 -0.07400724
v 0.02273661 0.47998542 -0.06988150
v -0.00210205 0.47644907 -0.08496487
v 0.01500158 0.47909203 -0.07498322
v -0.00210205 0.24182144 -0.19059286
v 0.06016831 0.24502277 -0.18757617
v 0.06016831 0.47708189 -0.07498322
v 0.05499943 0.47492284 -0.08496487
v 0.04499692 0.47603959 -0.08496487
v 0.04419843 0.47912925 -0.07405160
v 0.03499441 0.47633740 -0.08496487
v 0.02500409 0.47637463 -0.08496487
v 0.00500516 0.47644907 -0.08496487
v -0.00210205 0.47235435 -0.09441416
v -0.00210205 0.24338487 -0.19108084
v 0.06016831 0.26058272 -0.19245610
v 0.06016831 0.47406667 -0.08496487
v 0.06016831 0.47090256 -0.09170803
v 0.05499943 0.47134930 -0.09255092
v 0.04499692 0.47198212 -0.09365999
v 0.03499441 0.47216821 -0.09397053
v 0.01500158 0.47227991 -0.09419235
v -0.00210205 0.46688229 -0.10497252
v -0.00210205 0.26914442 -0.19897744
v 0.06016831 0.26501244 -0.19383132
v 0.06016831 0.46349484 -0.10532742
v 0.05499943 0.46464884 -0.10497252
v 0.04499692 0.46584001 -0.10497252
v 0.03499441 0.46617502 -0.10497252
v -0.00210205 0.46215475 -0.11375637
v -0.00210205 0.27625433 -0.20110685
v 0.06016831 0.26985168 -0.19529530
v 0.06016831 0.46141028 -0.10914262
v 0.05499943 0.46096358 -0.11149386
v 0.04499692 0.46155918 -0.11242548
v 0.03499441 0.46174529 -0.11278038
v -0.00210205 0.45913956 -0.11872501
v -0.00210205 0.28276867 -0.20212719
v 0.02123105 0.27964178 -0.20008650
v 0.06016831 0.27502590 -0.19671494
v 0.06016831 0.46047965 -0.11078406
v 0.06016831 0.45724112 -0.11539779
v 0.05499943 0.45742720 -0.11650687
v 0.04499692 0.45809728 -0.11743849
v 0.03499441 0.45835784 -0.11779339
v 0.00500516 0.45899066 -0.11854755
v -0.00210205 0.45768780 -0.12049953
v -0.00210205 0.28500214 -0.20243773
v 0.06016831 0.27986515 -0.19738036
v 0.06016831 0.45437479 -0.11921301
v 0.05499943 0.45243910 -0.12280639
v 0.04499692 0.45307192 -0.12356056
v 0.03499441 0.45336974 -0.12387110
v -0.00210205 0.43654412 -0.14578635
v 0.01500158 0.45377919 -0.12435909
v -0.00210205 0.29501560 -0.20252645
v 0.06016831 0.28500214 -0.19800144
v 0.06016831 0.45195520 -0.12222967
v 0.06016831 0.44261175 -0.13300985
v 0.06016831 0.44037828 -0.13558289
v 0.05499943 0.44808382 -0.12781939
v 0.04925149 0.42991811 -0.14991209
v 0.04258315 0.43021592 -0.15017828
v 0.03499441 0.43516684 -0.14498782
v -0.00210205 0.43155602 -0.15164226
v -0.00210205 0.32498154 -0.20208284
v 0.06016831 0.31496808 -0.19769090
v 0.06016831 0.30499184 -0.19782400
v 0.06016831 0.29501560 -0.19791272
v 0.06016831 0.43825647 -0.13802287
v 0.06016831 0.43568796 -0.14095080
v 0.06016831 0.43326837 -0.14370131
v 0.05499943 0.42924809 -0.14929101
v 0.06016831 0.42608398 -0.15088809
v 0.06016831 0.42366436 -0.15275133
v 0.05499943 0.42425996 -0.15319496
v 0.04499692 0.41830400 -0.15882903
v 0.04555160 0.42593509 -0.15319496
v 0.03499441 0.42496723 -0.15474766
v -0.00210205 0.42571172 -0.15665525
v 0.03499441 0.43043929 -0.15044445
v -0.00210205 0.33209148 -0.20137301
v 0.01500158 0.33183089 -0.20030832
v 0.02105428 0.33045357 -0.20004213
v 0.06016831 0.32498154 -0.19751346
v 0.06016831 0.42865247 -0.14871430
v 0.06016831 0.42005357 -0.15536875
v 0.05499943 0.41733617 -0.15816361
v 0.05178107 0.40039891 -0.17027465
v 0.04499692 0.40601984 -0.16725799
v 0.03499441 0.39496410 -0.17577565
v 0.03499441 0.41893682 -0.15927267
v 0.02500409 0.41945797 -0.15962756
v -0.00210205 0.42072362 -0.16051483
v -0.00210205 0.33503222 -0.20106247
v 0.00404209 0.33514389 -0.20057449
v 0.00673625 0.33860579 -0.19973159
v 0.05499943 0.33499500 -0.19653746
v 0.06016831 0.32982075 -0.19689238
v 0.06016831 0.41670334 -0.15776432
v 0.06016831 0.41413483 -0.15953884
v 0.05844942 0.39961717 -0.16974232
v 0.06016831 0.39477795 -0.17275897
v 0.05506648 0.39574581 -0.17289206
v 0.05499943 0.38737023 -0.17843741
v 0.04499692 0.38844976 -0.17910287
v 0.04499692 0.39496410 -0.17479968
v 0.02500409 0.40226012 -0.17156118
v 0.03499441 0.38926870 -0.17959085
v 0.02833826 0.38975263 -0.17985705
v 0.02166992 0.39016208 -0.18012321
v -0.00210205 0.39652753 -0.17759454
v 0.00500516 0.41499099 -0.16410822
v -0.00210205 0.41916019 -0.16162390
v -0.00210205 0.40159008 -0.17404550
v -0.00210205 0.40367466 -0.17258152
v -0.00210205 0.34024370 -0.20008650
v 0.00007400 0.33998311 -0.19999778
v 0.06016831 0.33499500 -0.19609386
v 0.06016831 0.40855113 -0.16335404
v 0.06016831 0.39086935 -0.17533201
v 0.06016831 0.38420612 -0.17959085
v 0.06016831 0.38677463 -0.17799380
v 0.06016831 0.38178653 -0.18092173
v 0.04499692 0.38342440 -0.18163154
v 0.01500158 0.39053434 -0.18038940
v -0.00210205 0.39150217 -0.18105483
v 0.03499441 0.38428056 -0.18203083
v 0.02500409 0.38584402 -0.18203083
v -0.00210205 0.38498783 -0.18451515
v -0.00210205 0.34240273 -0.19937670
v 0.04112636 0.36030784 -0.19010484
v 0.03499441 0.34497124 -0.19560584
v 0.04499692 0.34497124 -0.19471860
v 0.06016831 0.33979699 -0.19471860
v 0.06016831 0.37497437 -0.18345043
v 0.05499943 0.37497437 -0.18398279
v 0.04499692 0.37497437 -0.18491441
v 0.03499441 0.37497437 -0.18575731
v -0.00210205 0.37512329 -0.18850780
v -0.00210205 0.38975263 -0.18198645
v 0.02500409 0.37497437 -0.18651146
v 0.04467387 0.36417919 -0.18850780
v 0.04467387 0.35558030 -0.19130266
v 0.05499943 0.34497124 -0.19369826
v 0.05499943 0.35319790 -0.19103646
v 0.06016831 0.34497124 -0.19312152
v 0.06016831 0.35476133 -0.18997177
f 1 2 11
f 1 11 19
f 1 19 18
f 1 18 27
f 1 27 40
f 1 40 50
f 1 50 58
f 1 58 67
f 1 67 66
f 1 66 65
f 1 65 73
f 1 73 80
f 1 80 87
f 1 87 95
f 1 95 97
f 1 97 96
f 1 96 105
f 1 105 107
f 1 107 113
f 1 113 126
f 1 126 136
f 1 136 137
f 1 137 147
f 1 147 149
f 1 149 163
f 1 163 173
f 1 173 182
f 1 182 189
f 1 189 197
f 1 197 206
f 1 206 214
f 1 214 226
f 1 226 225
f 1 225 224
f 1 224 242
f 1 242 256
f 1 256 276
f 1 276 292
f 1 292 304
f 1 304 305
f 1 305 293
f 1 293 281
f 1 281 279
f 1 279 280
f 1 280 278
f 1 278 260
f 1 260 277
f 1 277 258
f 1 258 257
f 1 257 244
f 1 244 232
f 1 232 231
f 1 231 243
f 1 243 229
f 1 229 228
f 1 228 227
f 1 227 217
f 1 217 216
f 1 216 215
f 1 215 207
f 1 207 199
f 1 199 198
f 1 198 190
f 1 190 183
f 1 183 175
f 1 175 174
f 1 174 164
f 1 164 151
f 1 151 150
f 1 150 139
f 1 139 130
f 1 130 129
f 1 129 128
f 1 128 115
f 1 115 108
f 1 108 99
f 1 99 91
f 1 91 90
f 1 90 83
f 1 83 74
f 1 74 68
f 1 68 60
f 1 60 52
f 1 52 51
f 1 51 42
f 1 42 44
f 1 44 41
f 1 41 28
f 1 28 21
f 1 21 16
f 1 16 15
f 1 15 14
f 1 14 12
f 1 12 3
f 1 3 4
f 1 4 5
f 1 5 6
f 1 6 7
f 1 7 8
f 1 8 2
f 2 8 9
f 2 9 10
f 2 10 11
f 3 12 4
f 4 13 20
f 4 20 23
f 4 23 38
f 4 38 37
f 4 37 36
f 4 36 35
f 4 35 34
f 4 34 33
f 4 33 32
f 4 32 48
f 4 48 47
f 4 47 46
f 4 46 55
f 4 55 63
f 4 63 71
f 4 71 78
f 4 78 86
f 4 86 85
f 4 85 94
f 4 94 101
f 4 101 104
f 4 104 112
f 4 112 121
f 4 121 125
f 4 125 124
f 4 124 135
f 4 135 146
f 4 146 160
f 4 160 171
f 4 171 180
f 4 180 187
f 4 187 194
f 4 194 204
f 4 204 211
f 4 211 222
f 4 222 237
f 4 237 251
f 4 251 271
f 4 271 273
f 4 273 272
f 4 272 269
f 4 269 284
f 4 284 298
f 4 298 287
f 4 287 297
f 4 297 288
f 4 288 274
f 4 274 252
f 4 252 239
f 4 239 223
f 4 223 213
f 4 213 205
f 4 205 195
f 4 195 188
f 4 188 181
f 4 181 172
f 4 172 162
f 4 162 148
f 4 148 138
f 4 138 127
f 4 127 114
f 4 114 106
f 4 106 98
f 4 98 89
f 4 89 88
f 4 88 82
f 4 82 81
f 4 81 79
f 4 79 72
f 4 72 64
f 4 64 57
f 4 57 56
f 4 56 49
f 4 49 39
f 4 39 26
f 4 26 25
f 4 25 24
f 4 24 17
f 4 17 10
f 4 10 9
f 4 9 8
f 4 8 7
f 4 7 6
f 4 6 5
f 4 12 14
f 4 14 15
f 4 15 16
f 4 16 13
f 10 17 18
f 10 18 19
f 10 19 11
f 13 16 20
f 16 21 22
f 16 22 23
f 16 23 20
f 17 24 18
f 18 24 25
f 18 25 26
f 18 26 27
f 21 28 29
f 21 29 30
f 21 30 22
f 22 30 31
f 22 31 32
f 22 32 33
f 22 33 34
f 22 34 35
f 22 35 36
f 22 36 37
f 22 37 38
f 22 38 23
f 26 39 40
f 26 40 27
f 28 41 29
f 29 42 43
f 29 43 30
f 29 41 44
f 29 44 42
f 30 43 31
f 31 43 53
f 31 53 45
f 31 45 46
f 31 46 47
f 31 47 48
f 31 48 32
f 39 49 40
f 40 49 50
f 42 51 43
f 43 51 52
f 43 52 53
f 45 53 54
f 45 54 46
f 46 54 55
f 49 56 50
f 50 56 57
f 50 57 58
f 52 54 59
f 52 59 53
f 52 60 54
f 53 59 54
f 54 61 62
f 54 62 55
f 54 60 61
f 55 62 63
f 57 64 73
f 57 73 65
f 57 65 66
f 57 66 67
f 57 67 58
f 60 68 61
f 61 68 69
f 61 69 70
f 61 70 63
f 61 63 62
f 63 70 71
f 64 72 73
f 68 74 75
f 68 75 69
f 69 75 76
f 69 76 70
f 70 76 77
f 70 77 71
f 71 77 78
f 72 79 73
f 73 79 81
f 73 81 82
f 73 82 80
f 74 83 84
f 74 84 75
f 75 84 85
f 75 85 76
f 76 85 77
f 77 86 78
f 77 85 86
f 80 82 88
f 80 88 89
f 80 89 87
f 83 90 84
f 84 91 92
f 84 92 93
f 84 93 94
f 84 94 85
f 84 90 91
f 87 89 95
f 89 96 97
f 89 97 95
f 89 98 96
f 91 99 92
f 92 99 100
f 92 100 93
f 93 101 94
f 93 100 102
f 93 102 103
f 93 103 104
f 93 104 101
f 96 98 105
f 98 106 107
f 98 107 105
f 99 108 100
f 100 108 109
f 100 109 102
f 102 110 103
f 102 109 108
f 102 108 110
f 103 110 120
f 103 120 111
f 103 111 121
f 103 121 112
f 103 112 104
f 106 113 107
f 106 114 113
f 108 115 110
f 110 116 117
f 110 117 118
f 110 118 119
f 110 119 120
f 110 115 116
f 111 120 122
f 111 122 123
f 111 123 124
f 111 124 125
f 111 125 121
f 113 114 126
f 114 127 126
f 115 128 116
f 116 128 117
f 117 128 129
f 117 129 118
f 118 129 119
f 119 130 122
f 119 122 120
f 119 129 130
f 122 131 132
f 122 132 133
f 122 133 124
f 122 124 123
f 122 130 131
f 124 134 135
f 124 133 132
f 124 132 134
f 126 127 136
f 127 137 136
f 127 138 137
f 130 139 140
f 130 140 141
f 130 141 131
f 131 141 142
f 131 142 143
f 131 143 132
f 132 143 134
f 134 143 144
f 134 144 145
f 134 145 135
f 135 145 146
f 137 138 147
f 138 148 149
f 138 149 147
f 139 150 140
f 140 150 141
f 141 150 151
f 141 151 152
f 141 152 153
f 141 153 154
f 141 154 155
f 141 155 142
f 142 155 143
f 143 155 156
f 143 156 157
f 143 157 158
f 143 158 159
f 143 159 144
f 144 159 146
f 144 146 145
f 146 159 161
f 146 161 160
f 148 162 149
f 149 162 163
f 151 164 153
f 151 153 152
f 153 164 165
f 153 165 166
f 153 166 167
f 153 167 154
f 154 167 155
f 155 167 156
f 156 167 157
f 157 167 166
f 157 166 168
f 157 168 169
f 157 169 170
f 157 170 160
f 157 160 161
f 157 161 158
f 158 161 159
f 160 170 171
f 162 172 173
f 162 173 163
f 164 174 165
f 165 174 175
f 165 175 176
f 165 176 177
f 165 177 166
f 166 177 178
f 166 178 168
f 168 178 179
f 168 179 171
f 168 171 169
f 169 171 170
f 171 179 180
f 172 181 182
f 172 182 173
f 175 183 184
f 175 184 176
f 176 184 177
f 177 184 185
f 177 185 178
f 178 185 186
f 178 186 187
f 178 187 180
f 178 180 179
f 181 188 189
f 181 189 182
f 183 190 184
f 184 190 191
f 184 191 185
f 185 191 192
f 185 192 193
f 185 193 186
f 186 193 187
f 187 193 194
f 188 195 196
f 188 196 197
f 188 197 189
f 190 198 191
f 191 198 199
f 191 199 200
f 191 200 201
f 191 201 192
f 192 201 202
f 192 202 193
f 193 202 203
f 193 203 194
f 194 203 204
f 195 205 196
f 196 205 206
f 196 206 197
f 199 207 200
f 200 207 208
f 200 208 201
f 201 208 209
f 201 209 210
f 201 210 202
f 202 210 204
f 202 204 203
f 204 210 212
f 204 212 211
f 205 213 214
f 205 214 206
f 207 215 208
f 208 215 216
f 208 216 217
f 208 217 218
f 208 218 219
f 208 219 209
f 209 219 220
f 209 220 221
f 209 221 222
f 209 222 210
f 210 222 211
f 210 211 212
f 213 223 224
f 213 224 225
f 213 225 226
f 213 226 214
f 217 227 218
f 218 227 219
f 219 227 228
f 219 228 229
f 219 229 230
f 219 230 231
f 219 231 232
f 219 232 233
f 219 233 234
f 219 234 235
f 219 235 236
f 219 236 220
f 220 236 237
f 220 237 238
f 220 238 221
f 221 238 222
f 222 238 237
f 223 239 240
f 223 240 241
f 223 241 242
f 223 242 224
f 229 243 230
f 230 243 231
f 232 244 233
f 233 244 245
f 233 245 234
f 234 245 246
f 234 246 247
f 234 247 248
f 234 248 249
f 234 249 235
f 235 249 236
f 236 249 250
f 236 250 251
f 236 251 237
f 239 252 240
f 240 252 253
f 240 253 254
f 240 254 255
f 240 255 241
f 241 255 256
f 241 256 242
f 244 257 245
f 245 257 258
f 245 258 246
f 246 259 260
f 246 260 261
f 246 261 262
f 246 262 263
f 246 263 264
f 246 264 247
f 246 258 259
f 247 264 248
f 248 265 249
f 248 264 266
f 248 266 267
f 248 267 268
f 248 268 265
f 249 265 269
f 249 269 250
f 250 270 271
f 250 271 251
f 250 269 272
f 250 272 273
f 250 273 270
f 252 274 275
f 252 275 253
f 253 275 254
f 254 275 255
f 255 276 256
f 255 275 276
f 258 277 259
f 259 277 260
f 260 278 262
f 260 262 261
f 262 279 263
f 262 278 280
f 262 280 279
f 263 279 281
f 263 281 282
f 263 282 266
f 263 266 264
f 265 268 283
f 265 283 284
f 265 284 269
f 266 282 285
f 266 285 286
f 266 286 287
f 266 287 267
f 267 287 268
f 268 287 283
f 270 273 271
f 274 288 289
f 274 289 290
f 274 290 275
f 275 290 276
f 276 290 291
f 276 291 292
f 281 293 294
f 281 294 295
f 281 295 282
f 282 287 285
f 282 295 296
f 282 296 297
f 282 297 287
f 283 287 298
f 283 298 284
f 285 287 286
f 288 297 299
f 288 299 296
f 288 296 289
f 289 296 295
f 289 295 300
f 289 300 301
f 289 301 291
f 289 291 290
f 291 302 292
f 291 301 294
f 291 294 303
f 291 303 302
f 292 302 304
f 293 305 302
f 293 302 303
f 293 303 294
f 294 301 300
f 294 300 295
f 296 299 297
f 302 305 304

