# https://github.com/mikedh/trimesh
v 0.13825214 0.09050260 0.05805174
v 0.16378748 0.03308569 0.05805174
v 0.15975751 -0.03703089 0.07540570
v 0.11806566 0.03308569 0.10778379
v 0.12319471 0.09050260 0.08443388
v 0.48651472 0.09050260 0.05805174
v 0.16005060 -0.03706835 0.07540570
v 0.49197349 0.03308569 0.05805174
v 0.14396736 -0.03706835 0.11333433
v 0.12993574 -0.00013071 0.10992521
v 0.11909147 0.02759125 0.10879454
v 0.11769930 0.03308569 0.11460204
v 0.12319471 0.09050260 0.16125047
v 0.48153222 0.09050260 0.09536363
v 0.48750389 0.08498319 0.05805174
v 0.48442644 -0.03706835 0.07540570
v 0.48863959 0.07429400 0.05805174
v 0.48321748 0.06499092 0.09500387
v 0.48182529 0.05500102 0.10332967
v 0.48160547 0.04498615 0.10565951
v 0.48750389 -0.01499068 0.07540570
v 0.48636818 -0.02500555 0.07540570
v 0.14338119 -0.03706835 0.11501319
v 0.11909147 0.02759125 0.11294031
v 0.11769930 0.03308569 0.11528729
v 0.12319471 0.06499092 0.15773857
v 0.14788742 0.09050260 0.18132833
v 0.48039651 0.09050260 0.10106834
v 0.48772371 0.08312257 0.05805174
v 0.47321582 -0.03706835 0.11516737
v 0.48021331 0.04165202 0.11079890
v 0.48021331 0.03876744 0.11079890
v 0.48145893 0.03525849 0.10541968
v 0.47578034 0.02500636 0.12501785
v 0.46999186 -0.03005045 0.13010584
v 0.47358218 -0.03498296 0.11501319
v 0.14517635 -0.03706835 0.12294497
v 0.11824884 0.03308569 0.11688050
v 0.12319471 0.05644955 0.15333584
v 0.12319471 0.06365477 0.15710472
v 0.18716130 -0.03706835 0.19275488
v 0.18694149 -0.03498296 0.19299471
v 0.17115134 0.09050260 0.19875082
v 0.47772205 0.09050260 0.10564239
v 0.47010174 0.06048298 0.13022575
v 0.47226328 0.02500636 0.13310380
v 0.47043148 -0.03706835 0.12284218
v 0.46130908 0.02500636 0.15246214
v 0.46240819 -0.03498296 0.14250888
v 0.46215171 -0.03706835 0.14238895
v 0.46508259 -0.03706835 0.13682130
v 0.14594571 -0.03706835 0.12501785
v 0.12019055 0.03033847 0.11962150
v 0.14847361 -0.03706835 0.13020863
v 0.14905979 -0.03706835 0.13135642
v 0.18093318 -0.03706835 0.18287013
v 0.19360925 -0.03706835 0.19648948
v 0.19503805 -0.03498296 0.19768868
v 0.17653684 0.08498319 0.20188585
v 0.17547439 0.09050260 0.20178306
v 0.47523081 0.09050260 0.10932561
v 0.45991692 0.06946139 0.13987066
v 0.46083283 0.03136243 0.15157132
v 0.45735240 0.02500636 0.15744734
v 0.44350398 -0.03706835 0.17349933
v 0.19503805 -0.03706835 0.19726039
v 0.26889640 -0.02168391 0.23083767
v 0.22002387 -0.01999811 0.20998892
v 0.22987896 0.05979617 0.22011352
v 0.22987896 0.06106988 0.22011352
v 0.23101470 0.06772564 0.21949679
v 0.23768246 0.07218364 0.22059318
v 0.25523114 0.09050260 0.22246049
v 0.44236824 0.09050260 0.15333584
v 0.43841153 0.09050260 0.15832104
v 0.45075792 0.07094739 0.15059483
v 0.43328249 0.09050260 0.16455682
v 0.42115593 0.08128693 0.18124266
v 0.42998523 -0.00028056 0.18999675
v 0.42998523 0.00001914 0.18999675
v 0.41207021 -0.03498296 0.20174879
v 0.41170382 -0.03706835 0.20152608
v 0.29476148 -0.03706835 0.23191695
v 0.27505127 -0.02370686 0.23150580
v 0.26889640 -0.01847466 0.23083767
v 0.26504961 0.09050260 0.22446485
v 0.43104768 0.09050260 0.16685240
v 0.42437991 0.09050260 0.17307106
v 0.39514434 0.09050260 0.19493055
v 0.39184707 0.08141181 0.20102927
v 0.40085956 0.01179472 0.21067418
v 0.40085956 0.00727430 0.21067418
v 0.41056812 -0.03706835 0.20248544
v 0.30447003 -0.03706835 0.23304760
v 0.27505127 -0.01751313 0.23150580
v 0.28886306 0.02220919 0.23059784
v 0.29981726 0.05016841 0.23006678
v 0.27505127 0.09050260 0.22523576
v 0.36466312 0.09050260 0.20622005
v 0.32494959 0.06499092 0.22467043
v 0.37239331 0.06183161 0.21098253
v 0.37415186 0.00426484 0.21944538
v 0.40247154 -0.03706835 0.20642562
v 0.31304288 -0.03706835 0.23232810
v 0.33081138 -0.02866435 0.23070063
v 0.30025688 0.05016841 0.23006678
v 0.28505290 0.09050260 0.22523576
v 0.30817029 0.09050260 0.22062744
v 0.33081138 -0.03146152 0.23070063
v 0.36246493 -0.02259549 0.22098720
v 0.33458489 -0.03706835 0.22718872
f 1 2 3
f 1 3 4
f 1 4 5
f 1 5 13
f 1 13 27
f 1 27 43
f 1 43 60
f 1 60 73
f 1 73 86
f 1 86 98
f 1 98 107
f 1 107 108
f 1 108 99
f 1 99 89
f 1 89 88
f 1 88 87
f 1 87 77
f 1 77 75
f 1 75 74
f 1 74 61
f 1 61 44
f 1 44 28
f 1 28 14
f 1 14 6
f 1 6 15
f 1 15 29
f 1 29 17
f 1 17 8
f 1 8 2
f 2 7 3
f 2 8 16
f 2 16 7
f 3 7 9
f 3 9 10
f 3 10 11
f 3 11 4
f 4 11 12
f 4 12 5
f 5 12 25
f 5 25 13
f 6 14 15
f 7 16 30
f 7 30 47
f 7 47 51
f 7 51 50
f 7 50 65
f 7 65 82
f 7 82 93
f 7 93 103
f 7 103 111
f 7 111 104
f 7 104 94
f 7 94 83
f 7 83 66
f 7 66 57
f 7 57 41
f 7 41 56
f 7 56 55
f 7 55 54
f 7 54 52
f 7 52 37
f 7 37 23
f 7 23 9
f 8 17 14
f 8 14 18
f 8 18 19
f 8 19 20
f 8 20 21
f 8 21 22
f 8 22 16
f 9 23 10
f 10 23 11
f 11 24 25
f 11 25 12
f 11 23 24
f 13 25 26
f 13 26 27
f 14 28 18
f 14 17 29
f 14 29 15
f 16 22 30
f 18 28 19
f 19 28 31
f 19 31 20
f 20 31 32
f 20 32 33
f 20 33 21
f 21 33 32
f 21 32 34
f 21 34 35
f 21 35 22
f 22 35 36
f 22 36 30
f 23 37 24
f 24 37 25
f 25 38 39
f 25 39 40
f 25 40 26
f 25 37 38
f 26 40 41
f 26 41 42
f 26 42 27
f 27 42 43
f 28 44 45
f 28 45 46
f 28 46 34
f 28 34 31
f 30 36 35
f 30 35 47
f 31 34 32
f 34 46 35
f 35 48 49
f 35 49 50
f 35 50 51
f 35 51 47
f 35 46 48
f 37 52 39
f 37 39 53
f 37 53 38
f 38 53 39
f 39 52 54
f 39 54 55
f 39 55 56
f 39 56 41
f 39 41 40
f 41 57 58
f 41 58 42
f 42 58 59
f 42 59 43
f 43 59 60
f 44 61 45
f 45 61 62
f 45 62 63
f 45 63 48
f 45 48 46
f 48 63 64
f 48 64 65
f 48 65 49
f 49 65 50
f 57 66 58
f 58 66 67
f 58 67 68
f 58 68 59
f 59 68 67
f 59 67 60
f 60 67 69
f 60 69 70
f 60 70 71
f 60 71 72
f 60 72 73
f 61 74 62
f 62 74 75
f 62 75 76
f 62 76 63
f 63 76 77
f 63 77 78
f 63 78 64
f 64 79 65
f 64 78 80
f 64 80 79
f 65 79 81
f 65 81 82
f 66 83 67
f 67 83 84
f 67 84 95
f 67 95 85
f 67 85 70
f 67 70 69
f 70 85 86
f 70 86 73
f 70 73 72
f 70 72 71
f 75 77 76
f 77 87 78
f 78 87 88
f 78 88 89
f 78 89 90
f 78 90 91
f 78 91 80
f 79 92 81
f 79 80 91
f 79 91 92
f 81 92 93
f 81 93 82
f 83 94 84
f 84 94 95
f 85 95 86
f 86 95 96
f 86 96 97
f 86 97 98
f 89 99 90
f 90 99 100
f 90 100 101
f 90 101 91
f 91 101 100
f 91 100 102
f 91 102 92
f 92 102 103
f 92 103 93
f 94 104 105
f 94 105 106
f 94 106 97
f 94 97 95
f 95 97 96
f 97 106 107
f 97 107 98
f 99 108 100
f 100 108 107
f 100 107 106
f 100 106 105
f 100 105 102
f 102 105 109
f 102 109 110
f 102 110 103
f 103 110 109
f 103 109 111
f 104 109 105
f 104 111 109

