# https://github.com/mikedh/trimesh
v -0.09500201 0.46516904 0.07696591
v -0.09500201 0.47165412 0.05500010
v -0.10500044 0.46381271 0.07499498
v -0.10500044 0.46321929 0.07696591
v -0.09500201 0.11705226 0.07696591
v -0.09500201 0.47347671 0.04497409
v -0.10237981 0.47067922 0.05182948
v -0.11821956 0.46313453 0.06733981
v -0.11821956 0.46139669 0.07436657
v -0.11406927 0.46131191 0.07696591
v -0.11641489 0.09416378 0.07696591
v -0.11821956 0.04219846 -0.00229954
v -0.11821956 0.04050301 -0.00501313
v -0.09500201 0.08882314 -0.00521307
v -0.11081904 0.47012821 0.03868999
v -0.11081904 0.47012821 0.04126076
v -0.11821956 0.46792412 0.04483127
v -0.10904391 0.46970433 0.04791620
v -0.09500201 0.47173887 -0.06502636
v -0.10815749 0.46970433 -0.06502636
v -0.11821956 0.46809369 -0.06502636
v -0.11821956 0.46720356 0.04837322
v -0.11821956 0.46512663 0.05819929
v -0.11821956 0.46368551 0.06499754
v -0.11821956 0.46020988 0.07696591
v -0.11653990 0.46067613 0.07696591
v -0.11821956 0.09225641 0.07696591
v -0.11821956 0.04139312 -0.01483919
v -0.09500201 0.08742440 -0.02500802
v -0.09500201 0.08678859 -0.01749565
v -0.09500201 0.08670384 -0.01501057
v -0.09500201 0.08784826 -0.00955483
v -0.11821956 0.46822083 0.03511947
v -0.09500201 0.47080639 -0.07508093
v -0.10218888 0.47029775 -0.07182462
v -0.11821956 0.46737313 -0.07499523
v -0.09500201 0.09272265 -0.07499523
v -0.09500201 0.09149346 -0.06502636
v -0.11821956 0.07216541 -0.11498501
v -0.09500201 0.10221714 -0.11498501
v -0.09500201 0.10115749 -0.11118598
v -0.09500201 0.09946203 -0.10498757
v -0.09500201 0.09780899 -0.09864633
v -0.09500201 0.09679171 -0.09439027
v -0.09500201 0.09535059 -0.08822042
v -0.09500201 0.09458764 -0.08490699
v -0.09500201 0.46902618 -0.08467847
v -0.09827724 0.46970433 -0.07848006
v -0.10531411 0.46928048 -0.07508093
v -0.11821956 0.46550813 -0.08499268
v -0.11821956 0.07500528 -0.12164045
v -0.09500201 0.10666767 -0.12335430
v -0.09500201 0.46555051 -0.09499012
v -0.10500044 0.46415177 -0.09499012
v -0.11821956 0.46211725 -0.09544715
v -0.10500044 0.46745789 -0.08499268
v -0.11821956 0.07555629 -0.12258307
v -0.09500201 0.10802402 -0.12486820
v -0.09500201 0.46160862 -0.10335942
v -0.10500044 0.46093044 -0.10195976
v -0.11821956 0.45931977 -0.10158844
v -0.11578530 0.46224439 -0.09593274
v -0.11821956 0.08170228 -0.12838158
v -0.09500201 0.14579001 -0.16245860
v -0.09500201 0.13803336 -0.15508905
v -0.09500201 0.11637408 -0.13360882
v -0.09500201 0.11506011 -0.13223773
v -0.09500201 0.45919260 -0.10835813
v -0.11499888 0.45330095 -0.11498501
v -0.11578530 0.45826012 -0.10450198
v -0.11821956 0.45020676 -0.12035507
v -0.11821956 0.11806951 -0.15965930
v -0.11821956 0.12069745 -0.16185874
v -0.11821956 0.12523277 -0.16540068
v -0.09500201 0.15384337 -0.16845706
v -0.09500201 0.45584410 -0.11498501
v -0.10500044 0.45461491 -0.11498501
v -0.11499888 0.45041871 -0.12066928
v -0.11499888 0.44677347 -0.12566799
v -0.11821956 0.44872326 -0.12238312
v -0.11821956 0.12828456 -0.16748586
v -0.09500201 0.16418555 -0.17476973
v -0.11821956 0.13370998 -0.17102782
v -0.09500201 0.45160550 -0.12224030
v -0.10500044 0.45105448 -0.12152620
v -0.11499888 0.44177192 -0.13226631
v -0.11821956 0.44151762 -0.13195211
v -0.09500201 0.17546025 -0.18139660
v -0.09500201 0.18525144 -0.18713799
v -0.11821956 0.17550264 -0.19307932
v -0.09500201 0.19483069 -0.19259374
v -0.09500201 0.44774836 -0.12723902
v -0.11499888 0.43778765 -0.13726503
v -0.11063948 0.42011267 -0.16011633
v -0.11821956 0.43880492 -0.13532266
v -0.11821956 0.18461564 -0.19770671
v -0.11268508 0.19288093 -0.19907780
v -0.09500201 0.20576629 -0.19733538
v -0.09500201 0.42973429 -0.14969042
v -0.10500044 0.42036697 -0.16034484
v -0.10500044 0.41498393 -0.16437238
v -0.11499888 0.40794784 -0.16859987
v -0.11821956 0.40760875 -0.16837136
v -0.11821956 0.41481441 -0.16294417
v -0.11730586 0.41934970 -0.15928796
v -0.11821956 0.42473274 -0.15257540
v -0.11821956 0.43410003 -0.14112118
v -0.11821956 0.43749094 -0.13695082
v -0.11821956 0.18834563 -0.19922061
v -0.11821956 0.19139743 -0.20036319
v -0.10288665 0.20309597 -0.19913493
v -0.09500201 0.20805514 -0.19813518
v -0.09500201 0.42541093 -0.15497479
v -0.09500201 0.42062128 -0.16060191
v -0.09500201 0.41498393 -0.16471516
v -0.10500044 0.40854126 -0.16899976
v -0.11821956 0.38522893 -0.18365318
v -0.11821956 0.40260720 -0.17179906
v -0.10500044 0.39141726 -0.18099672
v -0.10500044 0.38497460 -0.18545270
v -0.10500044 0.37916771 -0.18945169
v -0.11499888 0.37827760 -0.18882328
v -0.11821956 0.37798089 -0.18859476
v -0.11821956 0.41922253 -0.15917371
v -0.11821956 0.41973117 -0.15857387
v -0.09500201 0.21576941 -0.20044887
v -0.09500201 0.21487930 -0.20019180
v -0.11821956 0.19555125 -0.20147718
v -0.09500201 0.24518535 -0.20850396
v -0.09500201 0.39184114 -0.18131091
v -0.09500201 0.38497460 -0.18619537
v -0.09500201 0.37976110 -0.18985158
v -0.10500044 0.37416616 -0.19242236
v -0.11499888 0.37327605 -0.19213670
v -0.11821956 0.37297934 -0.19196533
v -0.11821956 0.20822468 -0.20470493
v -0.09500201 0.25493413 -0.21104616
v -0.09500201 0.37475955 -0.19242236
v -0.11499888 0.36496836 -0.19624995
v -0.11821956 0.36496836 -0.19607857
v -0.11821956 0.22416185 -0.20876104
v -0.11821956 0.24501580 -0.21378832
v -0.09513611 0.25493413 -0.21107472
v -0.09500201 0.26481009 -0.21218874
v -0.11821956 0.23543654 -0.21161744
v -0.09500201 0.36496836 -0.19647846
v -0.10500044 0.36496836 -0.19650702
v -0.11821956 0.35721171 -0.19910637
v -0.11821956 0.25501892 -0.21484520
v -0.11499888 0.25501892 -0.21438816
v -0.10500044 0.25501892 -0.21276002
v -0.10500044 0.26497963 -0.21335986
v -0.09500201 0.26497963 -0.21218874
v -0.09500201 0.35708457 -0.19904923
v -0.11499888 0.35721171 -0.19910637
v -0.11821956 0.35382083 -0.20019180
v -0.11821956 0.26497963 -0.21481663
v -0.11499888 0.26497963 -0.21447386
v -0.09500201 0.27498275 -0.21210304
v -0.09500201 0.35208303 -0.20067738
v -0.11499888 0.35221016 -0.20070595
v -0.11821956 0.35221016 -0.20070595
v -0.11821956 0.29498899 -0.21430248
v -0.11499888 0.29498899 -0.21395971
v -0.10500044 0.30499208 -0.21267432
v -0.09500201 0.30499208 -0.21156032
v -0.09500201 0.33495903 -0.20613314
v -0.10500044 0.32643944 -0.20887530
v -0.11499888 0.33495903 -0.20619026
v -0.11821956 0.33495903 -0.20619026
v -0.11821956 0.30499208 -0.21395971
v -0.11499888 0.30499208 -0.21373120
v -0.09500201 0.31499520 -0.21113186
v -0.09500201 0.32631227 -0.20884673
v -0.10500044 0.32143790 -0.21044631
v -0.11821956 0.32309094 -0.20996073
v -0.11821956 0.31499520 -0.21233155
v -0.11499888 0.31499520 -0.21224585
v -0.09500201 0.32131073 -0.21038920
v -0.11499888 0.32148027 -0.21044631
v -0.11821956 0.32148027 -0.21044631
f 1 2 3
f 1 3 4
f 1 4 10
f 1 10 26
f 1 26 25
f 1 25 27
f 1 27 11
f 1 11 5
f 1 5 14
f 1 14 32
f 1 32 31
f 1 31 30
f 1 30 29
f 1 29 38
f 1 38 37
f 1 37 46
f 1 46 45
f 1 45 44
f 1 44 43
f 1 43 42
f 1 42 41
f 1 41 40
f 1 40 52
f 1 52 58
f 1 58 67
f 1 67 66
f 1 66 65
f 1 65 64
f 1 64 75
f 1 75 82
f 1 82 88
f 1 88 89
f 1 89 91
f 1 91 98
f 1 98 112
f 1 112 127
f 1 127 126
f 1 126 129
f 1 129 137
f 1 137 144
f 1 144 153
f 1 153 159
f 1 159 166
f 1 166 173
f 1 173 179
f 1 179 174
f 1 174 167
f 1 167 160
f 1 160 154
f 1 154 146
f 1 146 138
f 1 138 132
f 1 132 131
f 1 131 130
f 1 130 115
f 1 115 114
f 1 114 113
f 1 113 99
f 1 99 92
f 1 92 84
f 1 84 76
f 1 76 68
f 1 68 59
f 1 59 53
f 1 53 47
f 1 47 34
f 1 34 19
f 1 19 6
f 1 6 2
f 2 6 7
f 2 7 8
f 2 8 9
f 2 9 3
f 3 9 4
f 4 9 10
f 5 11 12
f 5 12 13
f 5 13 14
f 6 15 16
f 6 16 17
f 6 17 18
f 6 18 7
f 6 19 20
f 6 20 21
f 6 21 15
f 7 18 17
f 7 17 22
f 7 22 23
f 7 23 24
f 7 24 8
f 8 24 23
f 8 23 22
f 8 22 17
f 8 17 33
f 8 33 21
f 8 21 36
f 8 36 50
f 8 50 55
f 8 55 61
f 8 61 71
f 8 71 80
f 8 80 87
f 8 87 95
f 8 95 108
f 8 108 107
f 8 107 106
f 8 106 125
f 8 125 124
f 8 124 104
f 8 104 103
f 8 103 118
f 8 118 117
f 8 117 123
f 8 123 135
f 8 135 140
f 8 140 148
f 8 148 156
f 8 156 162
f 8 162 170
f 8 170 176
f 8 176 181
f 8 181 177
f 8 177 171
f 8 171 163
f 8 163 157
f 8 157 149
f 8 149 142
f 8 142 145
f 8 145 141
f 8 141 136
f 8 136 128
f 8 128 110
f 8 110 109
f 8 109 96
f 8 96 90
f 8 90 83
f 8 83 81
f 8 81 74
f 8 74 73
f 8 73 72
f 8 72 63
f 8 63 57
f 8 57 51
f 8 51 39
f 8 39 28
f 8 28 13
f 8 13 12
f 8 12 27
f 8 27 25
f 8 25 9
f 9 25 26
f 9 26 10
f 11 27 12
f 13 28 29
f 13 29 30
f 13 30 31
f 13 31 32
f 13 32 14
f 15 21 33
f 15 33 16
f 16 33 17
f 19 34 35
f 19 35 20
f 20 35 21
f 21 35 36
f 28 37 38
f 28 38 29
f 28 39 40
f 28 40 41
f 28 41 42
f 28 42 43
f 28 43 44
f 28 44 45
f 28 45 46
f 28 46 37
f 34 47 48
f 34 48 49
f 34 49 35
f 35 49 36
f 36 49 48
f 36 48 50
f 39 51 40
f 40 51 52
f 47 53 54
f 47 54 55
f 47 55 56
f 47 56 50
f 47 50 48
f 50 56 55
f 51 57 52
f 52 57 58
f 53 59 60
f 53 60 61
f 53 61 62
f 53 62 55
f 53 55 54
f 55 62 61
f 57 63 64
f 57 64 65
f 57 65 66
f 57 66 67
f 57 67 58
f 59 68 69
f 59 69 70
f 59 70 60
f 60 70 61
f 61 70 69
f 61 69 71
f 63 72 64
f 64 72 73
f 64 73 74
f 64 74 75
f 68 76 77
f 68 77 69
f 69 77 71
f 71 77 76
f 71 76 78
f 71 78 79
f 71 79 80
f 74 81 75
f 75 81 83
f 75 83 82
f 76 84 85
f 76 85 78
f 78 85 79
f 79 85 86
f 79 86 87
f 79 87 80
f 82 83 88
f 83 89 88
f 83 90 91
f 83 91 89
f 84 92 86
f 84 86 85
f 86 93 87
f 86 92 94
f 86 94 93
f 87 93 95
f 90 96 91
f 91 97 98
f 91 96 97
f 92 99 94
f 93 94 95
f 94 99 100
f 94 100 101
f 94 101 102
f 94 102 103
f 94 103 104
f 94 104 105
f 94 105 106
f 94 106 107
f 94 107 108
f 94 108 95
f 96 109 97
f 97 109 110
f 97 110 111
f 97 111 112
f 97 112 98
f 99 113 100
f 100 114 101
f 100 113 114
f 101 114 115
f 101 115 116
f 101 116 102
f 102 117 118
f 102 118 103
f 102 116 119
f 102 119 120
f 102 120 121
f 102 121 122
f 102 122 123
f 102 123 117
f 104 124 105
f 105 124 125
f 105 125 106
f 110 126 127
f 110 127 111
f 110 128 129
f 110 129 126
f 111 127 112
f 115 130 116
f 116 130 131
f 116 131 132
f 116 132 119
f 119 132 120
f 120 132 121
f 121 132 133
f 121 133 134
f 121 134 135
f 121 135 122
f 122 135 123
f 128 136 137
f 128 137 129
f 132 138 133
f 133 138 139
f 133 139 140
f 133 140 134
f 134 140 135
f 136 141 137
f 137 142 143
f 137 143 144
f 137 141 145
f 137 145 142
f 138 146 147
f 138 147 139
f 139 147 148
f 139 148 140
f 142 149 150
f 142 150 151
f 142 151 143
f 143 151 144
f 144 151 150
f 144 150 149
f 144 149 152
f 144 152 153
f 146 154 155
f 146 155 147
f 147 155 148
f 148 155 156
f 149 157 158
f 149 158 152
f 152 158 159
f 152 159 153
f 154 160 155
f 155 160 161
f 155 161 156
f 156 161 162
f 157 163 164
f 157 164 158
f 158 164 159
f 159 164 165
f 159 165 166
f 160 167 161
f 161 167 168
f 161 168 169
f 161 169 170
f 161 170 162
f 163 171 172
f 163 172 165
f 163 165 164
f 165 172 173
f 165 173 166
f 167 174 175
f 167 175 168
f 168 175 176
f 168 176 169
f 169 176 170
f 171 177 178
f 171 178 179
f 171 179 172
f 172 179 173
f 174 179 175
f 175 180 176
f 175 179 177
f 175 177 180
f 176 180 181
f 177 179 178
f 177 181 180

