# https://github.com/mikedh/trimesh
v 0.32495514 0.09054148 -0.20664135
v 0.31493902 0.12501615 -0.20405982
v 0.32495514 0.09501114 -0.20620379
v 0.32945877 0.09054148 -0.20616004
v 0.31944266 0.09054148 -0.20651008
v 0.12322816 0.30679521 -0.19491510
v 0.12322816 0.31495720 -0.19434629
v 0.31493902 0.13500486 -0.20296596
v 0.31551549 0.13446073 -0.20296596
v 0.32495514 0.11502743 -0.20410357
v 0.32495514 0.10503872 -0.20515369
v 0.29090762 0.18098405 -0.20012191
v 0.33497122 0.09054148 -0.20537245
v 0.31493902 0.09054148 -0.20629130
v 0.12322816 0.27504119 -0.19526514
v 0.12322816 0.30500734 -0.19495885
v 0.12322816 0.31674504 -0.19408377
v 0.12506565 0.31495720 -0.19425878
v 0.32495514 0.12501615 -0.20283470
v 0.30063549 0.17083986 -0.20012191
v 0.26503873 0.21503118 -0.19758414
v 0.25502264 0.23504747 -0.19565894
v 0.26503873 0.22501990 -0.19600897
v 0.27505481 0.21503118 -0.19622774
v 0.29458258 0.18463750 -0.19876552
v 0.21503031 0.26505250 -0.19482759
v 0.33497122 0.09501114 -0.20475990
v 0.34495127 0.09054148 -0.20296596
v 0.28503487 0.09054148 -0.20440985
v 0.12322816 0.26684034 -0.19522138
v 0.12322816 0.32572323 -0.19207105
v 0.13500968 0.31495720 -0.19351496
v 0.15504186 0.30500734 -0.19355871
v 0.17503801 0.29497975 -0.19355871
v 0.20505026 0.27504119 -0.19421503
v 0.32560363 0.13446073 -0.20108451
v 0.33122420 0.13166234 -0.20029692
v 0.33338594 0.12501615 -0.20082198
v 0.30499500 0.18502617 -0.19640276
v 0.32214487 0.19501489 -0.19049589
v 0.35086006 0.16120094 -0.19018960
v 0.24504256 0.24503618 -0.19504637
v 0.25502264 0.24503618 -0.19347119
v 0.26503873 0.23504747 -0.19386499
v 0.28503487 0.20504247 -0.19640276
v 0.29501495 0.19501489 -0.19649027
v 0.30499500 0.19501489 -0.19434629
v 0.33990720 0.11996350 -0.19999065
v 0.34188882 0.11327843 -0.20047194
v 0.35226518 0.09501114 -0.20055945
v 0.36062393 0.09054148 -0.19915929
v 0.27952242 0.09054148 -0.20401606
v 0.12322816 0.26505250 -0.19517763
v 0.12322816 0.32774431 -0.19150224
v 0.12603843 0.32595643 -0.19167726
v 0.14502577 0.31495720 -0.19250859
v 0.16502193 0.30500734 -0.19255236
v 0.19503418 0.28502992 -0.19338369
v 0.21503031 0.27504119 -0.19307742
v 0.22501040 0.26505250 -0.19377749
v 0.35496736 0.14503245 -0.19224606
v 0.35554382 0.13446073 -0.19395250
v 0.32009119 0.20018414 -0.18997084
v 0.32405439 0.20410967 -0.18826440
v 0.34815788 0.16784713 -0.18953328
v 0.36019158 0.15039603 -0.19001459
v 0.24504256 0.25502491 -0.19277112
v 0.25469837 0.26450837 -0.18857068
v 0.26503873 0.26505250 -0.18651421
v 0.26230052 0.25172123 -0.19040838
v 0.26896590 0.24915606 -0.18975206
v 0.27260482 0.24247099 -0.19053964
v 0.31396624 0.21402064 -0.18822065
v 0.31396624 0.20410967 -0.19045213
v 0.35428283 0.10461119 -0.19867800
v 0.36948711 0.09054148 -0.19697157
v 0.27501878 0.09054148 -0.20353477
v 0.12322816 0.25681278 -0.19399625
v 0.26997471 0.09054148 -0.20244090
v 0.15468158 0.31538472 -0.19119596
v 0.12322816 0.33139777 -0.19040838
v 0.18505411 0.29497975 -0.19237733
v 0.16502193 0.31219766 -0.19062714
v 0.17467773 0.30524054 -0.19115220
v 0.20595099 0.28600159 -0.19167726
v 0.21503031 0.28339753 -0.19093344
v 0.22508244 0.27535212 -0.19123971
v 0.36192098 0.14503245 -0.19053964
v 0.36541581 0.13446073 -0.19145849
v 0.36494744 0.12501615 -0.19298990
v 0.30499500 0.23504747 -0.18528908
v 0.31493902 0.22501990 -0.18537660
v 0.32495514 0.21503118 -0.18542035
v 0.33497122 0.19501489 -0.18734555
v 0.35756147 0.15708108 -0.18927075
v 0.36905473 0.13861945 -0.18966454
v 0.23985438 0.26991081 -0.18992707
v 0.26503873 0.27504119 -0.18388894
v 0.27505481 0.26505250 -0.18458901
v 0.28503487 0.25502491 -0.18498281
v 0.37499955 0.09054148 -0.19557142
v 0.12322816 0.25502491 -0.19368997
v 0.26597548 0.09054148 -0.20147830
v 0.14502577 0.32673377 -0.18900824
v 0.16502193 0.33497348 -0.18384518
v 0.15781611 0.31899932 -0.18966454
v 0.12322816 0.36256877 -0.18069485
v 0.12603843 0.33481801 -0.18900824
v 0.16502193 0.31721145 -0.18913950
v 0.17503801 0.34150308 -0.18043232
v 0.17503801 0.32494590 -0.18533283
v 0.17114687 0.31060413 -0.19014585
v 0.22501040 0.31320819 -0.18091363
v 0.22501040 0.30500734 -0.18323262
v 0.23524265 0.30543488 -0.18135117
v 0.22508244 0.28479671 -0.18874571
v 0.22180378 0.28125986 -0.19027711
v 0.36541581 0.13519919 -0.19132723
v 0.37499955 0.09501114 -0.19487135
v 0.37009960 0.13446073 -0.19010210
v 0.28600767 0.26602414 -0.18196374
v 0.29000688 0.27002740 -0.17995103
v 0.32520732 0.22517535 -0.18213876
v 0.33500725 0.21483684 -0.18191998
v 0.33497122 0.20504247 -0.18493906
v 0.36692902 0.14503245 -0.18874571
v 0.34293365 0.20504247 -0.18156995
v 0.35496736 0.17503744 -0.18515782
v 0.37499955 0.14503245 -0.18463276
v 0.37438706 0.13519919 -0.18752058
v 0.25008664 0.30003241 -0.17995103
v 0.27537906 0.27550760 -0.18165745
v 0.28334150 0.27255374 -0.18078236
v 0.38011569 0.09054148 -0.19373372
v 0.12322816 0.24721272 -0.19150224
v 0.26323727 0.09054148 -0.20047194
v 0.15504186 0.33497348 -0.18515782
v 0.16502193 0.34379619 -0.18113239
v 0.12322816 0.36346269 -0.18038857
v 0.13843244 0.35930398 -0.17973225
v 0.15983373 0.34985939 -0.17990726
v 0.12506565 0.35495090 -0.18283883
v 0.17503801 0.34651688 -0.17885716
v 0.18040635 0.34014276 -0.17999478
v 0.19993412 0.32992083 -0.17995103
v 0.21953396 0.31969893 -0.17986351
v 0.22501040 0.31822199 -0.17938222
v 0.23200002 0.31122601 -0.18030106
v 0.23866542 0.30904946 -0.17968850
v 0.38346639 0.09501114 -0.19176477
v 0.38022378 0.11067438 -0.19014585
v 0.38137668 0.10503872 -0.19075841
v 0.33169258 0.22194943 -0.18082611
v 0.31230891 0.24266532 -0.18100113
v 0.27894595 0.27923879 -0.17964473
v 0.28600767 0.27550760 -0.17876965
v 0.28586355 0.28588498 -0.17351909
v 0.29501495 0.28262019 -0.17133136
v 0.30679646 0.29735062 -0.15864253
v 0.31068760 0.29070443 -0.16030520
v 0.31735298 0.28712872 -0.15868628
v 0.30423838 0.27406955 -0.17111260
v 0.35550779 0.23551387 -0.16301799
v 0.34087998 0.21133885 -0.18047608
v 0.36408272 0.15428269 -0.18725805
v 0.36559597 0.16547626 -0.18297009
v 0.34790567 0.20504247 -0.17885716
v 0.37489146 0.15432157 -0.18174496
v 0.38022378 0.15051264 -0.18012604
v 0.38148481 0.14503245 -0.18086988
v 0.38371861 0.13446073 -0.18222627
v 0.24504256 0.30683407 -0.17872590
v 0.38454726 0.09054148 -0.19207105
v 0.22879344 0.09054148 -0.18738931
v 0.12322816 0.20931779 -0.18069485
v 0.16502193 0.34880999 -0.17955723
v 0.12322816 0.36738822 -0.17903218
v 0.14502577 0.35794365 -0.17925096
v 0.19597092 0.33501235 -0.17898843
v 0.18710777 0.33835489 -0.17946972
v 0.15590656 0.35475659 -0.17872590
v 0.16502193 0.35495090 -0.17693195
v 0.17503801 0.35495090 -0.17496300
v 0.18426147 0.34410715 -0.17785080
v 0.20505026 0.33497348 -0.17688820
v 0.22501040 0.32494590 -0.17645065
v 0.23524265 0.31472400 -0.17833211
v 0.38822222 0.09054148 -0.19023336
v 0.42129695 0.09054148 -0.17071880
v 0.39481556 0.09054148 -0.18642671
v 0.38933915 0.09054148 -0.18962079
v 0.33835796 0.21802390 -0.17916344
v 0.24504256 0.31495720 -0.17496300
v 0.24504256 0.32226411 -0.17124386
v 0.25037488 0.32024306 -0.17010623
v 0.30016711 0.30011016 -0.15999892
v 0.29501495 0.28759512 -0.16874984
v 0.30409428 0.30407456 -0.15623602
v 0.31411037 0.30438548 -0.15155427
v 0.31439859 0.29443562 -0.15667357
v 0.32059559 0.30065429 -0.15037291
v 0.33738518 0.26505250 -0.15868628
v 0.35251740 0.24282080 -0.16122405
v 0.35914674 0.23912847 -0.15951762
v 0.36195701 0.23248228 -0.16104902
v 0.35143653 0.22194943 -0.17076255
v 0.36516359 0.22478670 -0.16223040
v 0.35810190 0.21709111 -0.16892485
v 0.36746946 0.17503744 -0.17859463
v 0.37272972 0.21503118 -0.16153033
v 0.39445525 0.16481555 -0.16713092
v 0.40987572 0.15991835 -0.15991141
v 0.40594855 0.15595396 -0.16341178
v 0.39924714 0.14829724 -0.16949368
v 0.39553612 0.14499357 -0.17255649
v 0.41823447 0.10503872 -0.16896862
v 0.22504643 0.09054148 -0.18585789
v 0.12322816 0.20854047 -0.18043232
v 0.12322816 0.37481174 -0.17513801
v 0.12506565 0.37496722 -0.17470047
v 0.14502577 0.36497849 -0.17588185
v 0.19503418 0.34496221 -0.17478798
v 0.16502193 0.36357930 -0.17229396
v 0.17503801 0.36167485 -0.17106883
v 0.18109091 0.36046997 -0.17028125
v 0.18465778 0.35526186 -0.17229396
v 0.21593106 0.33590630 -0.17338783
v 0.23549485 0.32564551 -0.17299403
v 0.42587265 0.09054148 -0.16769972
v 0.23909777 0.32941556 -0.16962494
v 0.24979842 0.33983183 -0.15986766
v 0.26013875 0.35005373 -0.14997911
v 0.29274511 0.32210866 -0.15120424
v 0.31021923 0.31021547 -0.15011038
v 0.32726097 0.29684535 -0.14766012
v 0.33010727 0.29016030 -0.15006661
v 0.36148864 0.25183785 -0.15116048
v 0.36487538 0.24476412 -0.15291066
v 0.36516359 0.23551387 -0.15776743
v 0.35550779 0.24569692 -0.15829249
v 0.31688461 0.30733934 -0.14774762
v 0.34012339 0.32012644 -0.12009470
v 0.34945491 0.24950585 -0.15969263
v 0.36862239 0.22793490 -0.15916757
v 0.38162890 0.20271048 -0.16091776
v 0.37953922 0.20935667 -0.15969263
v 0.39546409 0.17527065 -0.16284297
v 0.40324637 0.16500987 -0.16196787
v 0.39034796 0.19077843 -0.16021769
v 0.39913905 0.17872977 -0.15938635
v 0.38170096 0.22299883 -0.15155427
v 0.37975538 0.22964501 -0.14971659
v 0.38346639 0.23504747 -0.14324090
v 0.38847443 0.23504747 -0.13851540
v 0.40011185 0.23022802 -0.13007076
v 0.42565647 0.17620346 -0.13562760
v 0.43163729 0.17301640 -0.13164592
v 0.43343878 0.16500987 -0.13352737
v 0.41981977 0.15964629 -0.14980409
v 0.42104474 0.15300010 -0.15107298
v 0.41953152 0.13446073 -0.15956137
v 0.43170935 0.09501114 -0.16166160
v 0.42129695 0.12501615 -0.16113654
v 0.40436327 0.14499357 -0.16726218
v 0.40710148 0.13446073 -0.16826855
v 0.40865073 0.12692061 -0.16923115
v 0.21985823 0.09054148 -0.18349515
v 0.21614723 0.09054148 -0.18170121
v 0.12322816 0.20512021 -0.17907593
v 0.12322816 0.37636641 -0.17421916
v 0.12506565 0.38130248 -0.17080630
v 0.13439719 0.37535587 -0.17229396
v 0.19503418 0.35180271 -0.17106883
v 0.20436570 0.34503993 -0.17194393
v 0.17503801 0.36668864 -0.16787475
v 0.18912539 0.38961992 -0.14971659
v 0.19193566 0.37100282 -0.16056773
v 0.18775630 0.35879871 -0.16927490
v 0.19503418 0.38324580 -0.15203558
v 0.23243238 0.33132002 -0.17076255
v 0.43253803 0.09054148 -0.16236167
v 0.23549485 0.33477914 -0.16769972
v 0.24590726 0.34503993 -0.15811747
v 0.24479036 0.35526186 -0.15242937
v 0.25502264 0.35168612 -0.15098546
v 0.24796093 0.35883757 -0.14914778
v 0.25502264 0.35666105 -0.14739759
v 0.26118362 0.36074203 -0.14074689
v 0.26399389 0.35417360 -0.14442228
v 0.26680416 0.34737194 -0.14805390
v 0.27206439 0.35160840 -0.14140320
v 0.29501495 0.33221397 -0.14192826
v 0.31389418 0.31406325 -0.14420350
v 0.32149634 0.31130373 -0.14109692
v 0.33900648 0.30889401 -0.12915191
v 0.35255343 0.27504119 -0.14214703
v 0.37096429 0.24126613 -0.15081045
v 0.36819005 0.24791232 -0.14844769
v 0.33497122 0.32226411 -0.12197615
v 0.32945877 0.32953218 -0.11956964
v 0.28020698 0.38009760 -0.11016241
v 0.32257721 0.34216380 -0.11230639
v 0.33976308 0.32980424 -0.10972486
v 0.34232116 0.32241958 -0.11497541
v 0.34967110 0.31954345 -0.10950609
v 0.34963506 0.30959362 -0.11961341
v 0.38270977 0.25323704 -0.13230224
v 0.35802984 0.28775057 -0.12832057
v 0.37305397 0.23504747 -0.15247312
v 0.37773776 0.21503118 -0.15846750
v 0.38829428 0.19742462 -0.15881754
v 0.37802601 0.23504747 -0.14827268
v 0.38130465 0.24188800 -0.14122818
v 0.38937515 0.24915606 -0.12945819
v 0.39146486 0.24247099 -0.13142715
v 0.39488763 0.23415354 -0.13287105
v 0.39816627 0.23691307 -0.12805805
v 0.42976379 0.17966259 -0.12972072
v 0.43520418 0.17542613 -0.12530151
v 0.43844682 0.16500987 -0.12783927
v 0.43963575 0.15906328 -0.12950195
v 0.42972776 0.15933535 -0.13974053
v 0.44785041 0.11502743 -0.13781533
v 0.45231801 0.09054148 -0.14240956
v 0.43754607 0.09054148 -0.15746115
v 0.43477184 0.09054148 -0.16026145
v 0.21330093 0.09054148 -0.17990726
v 0.12322816 0.20352668 -0.17824459
v 0.12322816 0.38246846 -0.17041251
v 0.12322816 0.39599404 -0.16170534
v 0.13165897 0.41049129 -0.15032914
v 0.13497365 0.40555522 -0.15273565
v 0.16041020 0.40011391 -0.15002286
v 0.17453361 0.37543362 -0.16240542
v 0.20260029 0.38134134 -0.15081045
v 0.24129555 0.36062545 -0.15037291
v 0.20724803 0.34838247 -0.16905612
v 0.21315682 0.34169739 -0.17102508
v 0.13832437 0.40932527 -0.14945406
v 0.16703956 0.39883131 -0.14910401
v 0.17503801 0.39727664 -0.14779139
v 0.19406138 0.39517784 -0.14297837
v 0.19503418 0.38825959 -0.14875399
v 0.22501040 0.33839375 -0.16905612
v 0.20926566 0.37951460 -0.14967282
v 0.21503031 0.37792107 -0.14844769
v 0.20505026 0.39160210 -0.14153446
v 0.22292070 0.38157454 -0.14157823
v 0.25502264 0.36256877 -0.14240956
v 0.25502264 0.36758256 -0.13755280
v 0.26824531 0.37893161 -0.11895709
v 0.26813722 0.36870968 -0.12884563
v 0.26784900 0.35825458 -0.13847165
v 0.27260482 0.36202464 -0.13182095
v 0.27984667 0.36979795 -0.11983217
v 0.32279336 0.33229169 -0.12197615
v 0.32581982 0.32568437 -0.12556404
v 0.35756147 0.27504119 -0.13790284
v 0.27318129 0.37228543 -0.12219493
v 0.27505481 0.38172999 -0.11186884
v 0.26147184 0.39074704 -0.11081873
v 0.26813722 0.38884258 -0.10832471
v 0.27519894 0.38689926 -0.10499936
v 0.27865773 0.38911465 -0.09869870
v 0.28874588 0.38899806 -0.08863513
v 0.28755692 0.37788221 -0.10495561
v 0.29750094 0.36781576 -0.10709959
v 0.31861401 0.34884888 -0.10841222
v 0.32920656 0.33932656 -0.10906854
v 0.31000304 0.36999229 -0.08999152
v 0.30229282 0.38196319 -0.08268451
v 0.34523952 0.33520669 -0.09532959
v 0.34913066 0.32910463 -0.09891747
v 0.39009574 0.26023301 -0.12013847
v 0.38076422 0.27103794 -0.12075102
v 0.35911071 0.29898304 -0.11895709
v 0.35514751 0.32517910 -0.09519833
v 0.36098424 0.32125357 -0.09139168
v 0.37125254 0.28172624 -0.12123233
v 0.37770173 0.26505250 -0.12797053
v 0.39200529 0.25502491 -0.12219493
v 0.39535600 0.24565805 -0.12543277
v 0.40115666 0.24212119 -0.12140734
v 0.41996387 0.21001738 -0.11996344
v 0.43185347 0.18502617 -0.12263247
v 0.44053650 0.17118967 -0.12092604
v 0.44172543 0.16500987 -0.12285125
v 0.44983202 0.12971900 -0.12976448
v 0.45098495 0.12307282 -0.13116463
v 0.43527624 0.15591510 -0.13527755
v 0.45455182 0.09054148 -0.14004681
v 0.21167961 0.09054148 -0.17872590
v 0.12322816 0.19610316 -0.17395665
v 0.12322816 0.39929771 -0.15951762
v 0.12506565 0.40497223 -0.15540469
v 0.12506565 0.41142407 -0.15102921
v 0.12322816 0.41259009 -0.15046041
v 0.12506565 0.41643786 -0.14674127
v 0.13191117 0.42067432 -0.14065938
v 0.14502577 0.41321194 -0.14332841
v 0.17503801 0.40275681 -0.14280336
v 0.18505411 0.40089124 -0.14096566
v 0.19006215 0.39999729 -0.13995931
v 0.19676358 0.39867583 -0.13864666
v 0.20555466 0.38480046 -0.14704755
v 0.20505026 0.39661592 -0.13663395
v 0.22958608 0.37970895 -0.13974053
v 0.24219626 0.37115830 -0.14114067
v 0.24886166 0.36929268 -0.13930298
v 0.25502264 0.38763773 -0.11768819
v 0.21038257 0.42013019 -0.11016241
v 0.22962211 0.40975282 -0.10963735
v 0.26489460 0.39292359 -0.10499936
v 0.27199233 0.39105797 -0.10167401
v 0.27505481 0.39840376 -0.08749752
v 0.28024301 0.40011391 -0.08014674
v 0.28204447 0.39129120 -0.09204800
v 0.29562744 0.38546121 -0.08570357
v 0.29281718 0.38231301 -0.09309810
v 0.29180834 0.39136893 -0.08198443
v 0.30045533 0.37034208 -0.10044888
v 0.29451054 0.37251863 -0.10425553
v 0.29948255 0.37947574 -0.08933521
v 0.29850975 0.38860938 -0.07682139
v 0.30892217 0.37904820 -0.07756522
v 0.31933460 0.36940929 -0.07839655
v 0.32967493 0.35973150 -0.07922789
v 0.32264927 0.36237442 -0.08495975
v 0.34134835 0.34119216 -0.09169796
v 0.35165268 0.33159208 -0.09226677
v 0.39697731 0.25521922 -0.11523794
v 0.39921111 0.24880625 -0.11882582
v 0.37024370 0.31037092 -0.09038532
v 0.40104860 0.26139903 -0.10163026
v 0.39892286 0.25863948 -0.10828096
v 0.35867837 0.32844388 -0.08495975
v 0.40962350 0.22941181 -0.11939463
v 0.43026820 0.19062296 -0.12048849
v 0.43686152 0.18494844 -0.11480039
v 0.43880710 0.17783585 -0.11799449
v 0.44078869 0.18152818 -0.11134379
v 0.44273427 0.18494844 -0.10495561
v 0.44226587 0.17472652 -0.11480039
v 0.44759822 0.17534839 -0.10499936
v 0.45087683 0.17223907 -0.10167401
v 0.44903934 0.16745847 -0.10832471
v 0.44680554 0.16450462 -0.11427534
v 0.45239007 0.13446073 -0.12302627
v 0.44849890 0.15502116 -0.11733817
v 0.44957981 0.14891911 -0.11926337
v 0.45995617 0.10002492 -0.12998325
v 0.46107310 0.09333988 -0.13142715
v 0.45772237 0.09054148 -0.13650268
v 0.20847303 0.09054148 -0.17631939
v 0.12322816 0.19478169 -0.17316906
v 0.12322816 0.41165727 -0.15120424
v 0.12322816 0.41667107 -0.14696003
v 0.12506565 0.42160714 -0.14175324
v 0.15504186 0.41138521 -0.14149071
v 0.13137074 0.43042985 -0.13046455
v 0.13497365 0.42494965 -0.13492753
v 0.15324041 0.43116832 -0.12123233
v 0.18289235 0.41103542 -0.13107711
v 0.19503418 0.40878114 -0.12871437
v 0.21038257 0.41014147 -0.12018222
v 0.20505026 0.42114073 -0.11134379
v 0.18145120 0.43046871 -0.11055620
v 0.18811658 0.42922497 -0.10889353
v 0.20443776 0.42634887 -0.10416802
v 0.20735613 0.42895293 -0.09843617
v 0.21222004 0.43109059 -0.09178547
v 0.21888544 0.42934158 -0.08898517
v 0.22097513 0.42048001 -0.10071141
v 0.19503418 0.41352287 -0.12368259
v 0.24021468 0.41006374 -0.10014260
v 0.25945422 0.39964750 -0.09944253
v 0.24518669 0.41705972 -0.08495975
v 0.27505481 0.40159082 -0.08250949
v 0.28701648 0.39813170 -0.07493994
v 0.28449443 0.39467257 -0.08439094
v 0.22274056 0.43151811 -0.08233447
v 0.22940594 0.42961365 -0.07918414
v 0.21967807 0.43975782 -0.06951436
v 0.22191188 0.44111815 -0.06286366
v 0.28204447 0.40112442 -0.07493994
v 0.29508698 0.39257377 -0.07406484
v 0.30013108 0.39004746 -0.07017069
v 0.33997926 0.34997600 -0.07997172
v 0.34801376 0.33827716 -0.08710372
v 0.35024756 0.34022048 -0.08045302
v 0.35312989 0.33493462 -0.08425967
v 0.40122873 0.25195444 -0.11217512
v 0.40987572 0.24989451 -0.09979256
v 0.40328240 0.24530825 -0.11523794
v 0.35993940 0.32995969 -0.07984046
v 0.40058023 0.27084360 -0.09091038
v 0.40288609 0.26485816 -0.09454200
v 0.40847057 0.25587997 -0.09585465
v 0.44089678 0.19178896 -0.10158650
v 0.45195770 0.16450462 -0.10499936
v 0.44943568 0.17888525 -0.09747357
v 0.45995617 0.14996850 -0.09957379
v 0.47065681 0.10204600 -0.11116876
v 0.45992017 0.13446073 -0.10989988
v 0.46046060 0.13142914 -0.11086248
v 0.47188181 0.09501114 -0.11309397
v 0.46874729 0.09054148 -0.12075102
v 0.46590099 0.09054148 -0.12530151
v 0.46154147 0.09054148 -0.13199596
v 0.17719977 0.09054148 -0.15221059
v 0.12322816 0.15883009 -0.15063544
v 0.12322816 0.42180145 -0.14197202
v 0.12506565 0.42662090 -0.13632767
v 0.13068619 0.44018537 -0.12018222
v 0.13735157 0.43905824 -0.11895709
v 0.17503801 0.42716503 -0.11694437
v 0.19503418 0.41849780 -0.11838828
v 0.14502577 0.43765903 -0.11738192
v 0.14502577 0.44181776 -0.11235014
v 0.15190732 0.44061291 -0.11081873
v 0.15857272 0.43944690 -0.10915606
v 0.18491000 0.43260637 -0.10534940
v 0.20069075 0.43019664 -0.10036137
v 0.20443776 0.43213999 -0.09506706
v 0.20958993 0.43979669 -0.07966544
v 0.21531856 0.43346143 -0.08539730
v 0.23491839 0.41659334 -0.09471703
v 0.28914219 0.39945316 -0.06780794
v 0.21582296 0.43866956 -0.07577128
v 0.21301270 0.44131249 -0.07301474
v 0.21582296 0.44306147 -0.06570771
v 0.21488622 0.44776434 -0.05476906
v 0.21812883 0.44916356 -0.04693698
v 0.22515450 0.44243962 -0.05459404
v 0.29674435 0.39754871 -0.05494408
v 0.30103180 0.39090252 -0.06496388
v 0.30603984 0.38631627 -0.06496388
v 0.33086389 0.36081976 -0.07257719
v 0.31641623 0.37667733 -0.06496388
v 0.30265310 0.39257377 -0.05494408
v 0.36073202 0.37073076 0.07898881
v 0.41164115 0.25312045 -0.09314186
v 0.40983969 0.25980550 -0.08666617
v 0.39067221 0.33093137 0.07898881
v 0.42003593 0.24017787 -0.09012279
v 0.46103704 0.14328344 -0.10206780
v 0.45840693 0.14596525 -0.10521813
v 0.45012024 0.18032330 -0.09077911
v 0.45148933 0.17534839 -0.09445450
v 0.45523638 0.16500987 -0.09497955
v 0.46035248 0.19089502 0.02893353
v 0.47036859 0.16155075 0.02818970
v 0.48096114 0.09279574 -0.08491599
v 0.48031265 0.09104675 -0.09204800
v 0.47941190 0.09054148 -0.09782360
v 0.47872734 0.09054148 -0.10018636
v 0.47087300 0.11285090 -0.10228658
v 0.47562885 0.09501114 -0.10499936
v 0.46946788 0.10869218 -0.10893728
v 0.47242224 0.09054148 -0.11440660
v 0.46957594 0.09054148 -0.11935088
v 0.47498029 0.09054148 -0.10924356
v 0.17442553 0.09054148 -0.14984785
v 0.17219172 0.09054148 -0.14761636
v 0.16970570 0.09054148 -0.14490357
v 0.12322816 0.15401062 -0.14639123
v 0.12322816 0.43140149 -0.13155842
v 0.12506565 0.43120718 -0.13133964
v 0.12322816 0.44096267 -0.12105730
v 0.12322816 0.44189548 -0.11996344
v 0.12409286 0.44632629 -0.11396906
v 0.12679504 0.44943559 -0.10906854
v 0.13443321 0.44286716 -0.11532545
v 0.12322816 0.43641531 -0.12608908
v 0.13500968 0.44842505 -0.10744962
v 0.14491768 0.44706476 -0.10447431
v 0.17114687 0.44037968 -0.10058015
v 0.19424152 0.43633756 -0.09406070
v 0.20577085 0.43789223 -0.08495975
v 0.20292455 0.44096267 -0.08159064
v 0.17993797 0.44994086 -0.07984046
v 0.20577085 0.44275057 -0.07577128
v 0.23070298 0.44037968 -0.05100616
v 0.22410965 0.44652063 -0.04413669
v 0.22014645 0.45005748 -0.04028628
v 0.29173627 0.40104669 -0.05494408
v 0.20739216 0.44924128 -0.05800690
v 0.21142742 0.45048499 -0.05131245
v 0.28085551 0.41056901 -0.04286780
v 0.29270908 0.40186289 -0.04496802
v 0.33187270 0.39129120 0.08778349
v 0.33187270 0.39129120 0.09312155
v 0.36065996 0.37069190 0.08493944
v 0.36512756 0.36497849 0.08493944
v 0.41138893 0.30197576 0.07767618
v 0.42007196 0.29019916 0.07973264
v 0.39067221 0.33093137 0.08248918
v 0.42947555 0.25898930 0.03492791
v 0.45080477 0.21192186 0.02832096
v 0.46017236 0.20053394 0.07890131
v 0.46935976 0.17845771 0.07496338
v 0.47116125 0.17344391 0.07496338
v 0.46644142 0.17503744 0.03492791
v 0.48157364 0.09054148 -0.08491599
v 0.48056483 0.09054148 -0.09143543
v 0.49065298 0.09236822 0.02499561
v 0.47696191 0.09054148 -0.10491185
v 0.16505796 0.09054148 -0.13921547
v 0.12322816 0.14868590 -0.14118443
v 0.12322816 0.44632629 -0.11414407
v 0.12322816 0.44974655 -0.10954984
v 0.12322816 0.45227286 -0.10539316
v 0.13061413 0.46012393 -0.09025405
v 0.14153095 0.45048499 -0.10079892
v 0.16073446 0.45021296 -0.09038532
v 0.19424152 0.44193435 -0.08495975
v 0.17597477 0.44819188 -0.08504725
v 0.14304417 0.46090126 -0.08185317
v 0.14970955 0.45985186 -0.07953417
v 0.14491768 0.45262265 -0.09532959
v 0.13727951 0.45915225 -0.08850387
v 0.14581841 0.45825833 -0.08509101
v 0.25062707 0.43035209 -0.04146766
v 0.27988270 0.40986943 -0.04951850
v 0.21488622 0.45091254 -0.04413669
v 0.21503031 0.45231175 -0.03494822
v 0.21503031 0.45382753 -0.02492841
v 0.21935382 0.45985186 0.03134003
v 0.22093910 0.45048499 -0.03494822
v 0.22591111 0.44733679 -0.03494822
v 0.23877349 0.43913597 -0.03494822
v 0.27595553 0.41321194 -0.04571185
v 0.17312847 0.46074578 -0.05227505
v 0.13500968 0.46525431 -0.07493994
v 0.24504256 0.43509382 -0.03494822
v 0.25141972 0.43093511 -0.03494822
v 0.23275664 0.45219514 0.03492791
v 0.29072747 0.42040226 0.09924719
v 0.36015555 0.37014776 0.09045252
v 0.29072747 0.42040226 0.10121616
v 0.30193251 0.41142407 0.10274757
v 0.42007196 0.29019916 0.08034521
v 0.41131687 0.30185914 0.08493944
v 0.46017236 0.20053394 0.08034521
v 0.47080094 0.17251113 0.08130781
v 0.47296268 0.16500987 0.07496338
v 0.49058092 0.09209615 0.04499147
v 0.49079710 0.09271801 0.03497166
v 0.49097723 0.09054148 0.02499561
v 0.49126548 0.09054148 0.03497166
v 0.12322816 0.14406078 -0.13650268
v 0.14326034 0.09054148 -0.10889353
v 0.12322816 0.46074578 -0.09126041
v 0.12506565 0.46062917 -0.09099788
v 0.12506565 0.46366078 -0.08495975
v 0.13439719 0.46167856 -0.08509101
v 0.17294833 0.48111188 0.08791475
v 0.22039866 0.46012393 0.03799073
v 0.22425377 0.45767534 0.03475289
v 0.22205600 0.45130122 -0.02492841
v 0.13061413 0.47011262 -0.06058843
v 0.13237956 0.47050130 -0.05494408
v 0.12506565 0.46727538 -0.07493994
v 0.22587508 0.45763648 0.04494772
v 0.26503873 0.43571571 0.10497905
v 0.23423383 0.45305020 0.05492377
v 0.22623537 0.45806399 0.05492377
v 0.35846218 0.36839876 0.09710322
v 0.36127245 0.36171371 0.10257255
v 0.40076035 0.30108181 0.12099324
v 0.32088384 0.38083607 0.14129539
v 0.27177617 0.43140149 0.11246109
v 0.41650507 0.29412469 0.08415186
v 0.43041232 0.25055525 0.11097343
v 0.43675345 0.23504747 0.11495510
v 0.43981591 0.22805148 0.11495510
v 0.49018461 0.09100787 0.05050455
v 0.47008038 0.15027943 0.11053589
v 0.48049277 0.10072453 0.10117240
v 0.49083310 0.09054148 0.04499147
v 0.12322816 0.11938049 -0.11051245
v 0.14041404 0.09054148 -0.10473683
v 0.12322816 0.46144539 -0.08994778
v 0.12322816 0.46393284 -0.08495975
v 0.16502193 0.48200583 0.08655836
v 0.15504186 0.48402688 0.09495924
v 0.16502193 0.48258883 0.09495924
v 0.17240790 0.48087868 0.09495924
v 0.17741594 0.47885764 0.09495924
v 0.22007440 0.45996845 0.09994727
v 0.22122733 0.46043485 0.05492377
v 0.22086704 0.46031827 0.04494772
v 0.12506565 0.47166729 -0.05494408
v 0.12322816 0.47193938 -0.05494408
v 0.12506565 0.48410460 0.05492377
v 0.12506565 0.47054017 -0.06216359
v 0.12322816 0.46754745 -0.07485243
v 0.25887775 0.43925256 0.10497905
v 0.35568795 0.36575583 0.10607292
v 0.35957909 0.35945946 0.10922325
v 0.37993553 0.30998227 0.13998275
v 0.38973546 0.27989954 0.14969628
v 0.40018389 0.26027191 0.15013382
v 0.43275422 0.23504747 0.12261216
v 0.29007894 0.40003616 0.15009007
v 0.29076350 0.39101911 0.16050367
v 0.31115597 0.38099152 0.15061513
v 0.35114828 0.30162594 0.18076205
v 0.25332928 0.44123477 0.11254860
v 0.26565123 0.43381125 0.11548016
v 0.24046686 0.44010764 0.14028904
v 0.44010413 0.22210491 0.12016191
v 0.49022061 0.09054148 0.05059206
v 0.46237013 0.15280576 0.12143079
v 0.46813479 0.14503245 0.11631150
v 0.47775456 0.09501114 0.10646671
v 0.48056483 0.09501114 0.10143493
v 0.13879274 0.09054148 -0.10215531
v 0.12322816 0.11646549 -0.10696832
v 0.14502577 0.48527062 0.09495924
v 0.12322816 0.48690301 0.10497905
v 0.17024614 0.48006248 0.10020980
v 0.12506565 0.48663092 0.10497905
v 0.13500968 0.47271669 0.15499058
v 0.12322816 0.47096771 -0.06085095
v 0.12322816 0.48429894 0.05492377
v 0.13500968 0.48639774 0.09495924
v 0.12322816 0.47061789 -0.06273240
v 0.43016011 0.20026188 0.14011401
v 0.43592477 0.22529197 0.12388105
v 0.40050817 0.20072827 0.17061098
v 0.25156385 0.41103542 0.17109229
v 0.24053892 0.41045243 0.18028075
v 0.22119130 0.40162969 0.20132673
v 0.40050817 0.13088500 0.19051933
v 0.33172861 0.23158835 0.21086523
v 0.15050219 0.47019038 0.15087765
v 0.14668311 0.46906322 0.15757211
v 0.16170725 0.46128991 0.16115998
v 0.22281261 0.44119591 0.15184025
v 0.22086704 0.43058532 0.17039222
v 0.48042071 0.09054148 0.10104114
v 0.43070054 0.10119092 0.17056723
v 0.46064073 0.11090757 0.13096929
v 0.46053267 0.10503872 0.13096929
v 0.43070054 0.09866460 0.17056723
v 0.47523254 0.09054148 0.10931076
v 0.47771853 0.09054148 0.10559162
v 0.12322816 0.11518291 -0.10521813
v 0.12322816 0.11564930 -0.10587446
v 0.13763981 0.09054148 -0.09948628
v 0.12322816 0.48752487 0.09675319
v 0.12322816 0.48647547 0.10677300
v 0.14405298 0.47088999 0.15450928
v 0.12322816 0.48414350 0.11495510
v 0.12477742 0.47221142 0.15560314
v 0.12798400 0.47046244 0.16037241
v 0.13500968 0.47034585 0.16024114
v 0.14005375 0.46995717 0.15997861
v 0.12322816 0.48752487 0.09495924
v 0.12506565 0.48736942 0.09495924
v 0.21503031 0.40310663 0.20268312
v 0.22501040 0.27504119 0.23409893
v 0.39189720 0.11145170 0.20097668
v 0.28053123 0.12058535 0.24035585
v 0.39730155 0.10503872 0.19738881
v 0.39117661 0.09916987 0.20053914
v 0.42435944 0.09054148 0.17306124
v 0.43106085 0.09054148 0.16684808
v 0.43325859 0.09054148 0.16452909
v 0.43841076 0.09054148 0.15831593
v 0.44233793 0.09054148 0.15332791
v 0.12322816 0.11020797 -0.09712353
v 0.13619864 0.09054148 -0.09480453
v 0.12322816 0.10756505 -0.09191673
v 0.12322816 0.10888651 -0.09480453
v 0.12322816 0.47209483 0.15525311
v 0.12322816 0.46991831 0.15971608
v 0.12322816 0.45293361 0.18163714
v 0.12506565 0.45281702 0.18146212
v 0.14034198 0.43019664 0.20040788
v 0.13500968 0.42494965 0.20491460
v 0.13500968 0.41694313 0.20950884
v 0.12322816 0.35258007 0.22858585
v 0.12322816 0.34671119 0.22959220
v 0.21503031 0.27504119 0.23453648
v 0.21503031 0.26505250 0.23571785
v 0.22501040 0.26505250 0.23501778
v 0.39229351 0.10503872 0.20115170
v 0.27700040 0.12058535 0.24035585
v 0.28053123 0.11840883 0.24035585
v 0.39510378 0.09054148 0.19493856
v 0.36069599 0.09913100 0.21034017
v 0.36465919 0.09054148 0.20622724
v 0.12553403 0.09054148 -0.05494408
v 0.12322816 0.09679900 -0.06500764
v 0.12322816 0.43050757 0.20045163
v 0.12322816 0.42494965 0.20421453
v 0.12322816 0.41496092 0.20867750
v 0.12322816 0.40501109 0.21187159
v 0.12322816 0.28502992 0.23418644
v 0.12575020 0.31495720 0.23230499
v 0.12686710 0.32494590 0.23156117
v 0.13500968 0.31495720 0.23265503
v 0.12322816 0.28324205 0.23423019
v 0.27700040 0.11840883 0.24035585
v 0.27422613 0.11506630 0.23878068
v 0.28503487 0.09054148 0.22526050
v 0.30816555 0.09054148 0.22062251
v 0.12322816 0.09345648 -0.05494408
v 0.12484947 0.09054148 -0.04492427
v 0.12322816 0.27504119 0.23423019
v 0.22821698 0.10861444 0.23090485
v 0.23506251 0.10775939 0.23121113
v 0.26503873 0.09054148 0.22447291
v 0.27501878 0.09054148 0.22521675
v 0.12322816 0.09264028 -0.04492427
v 0.12322816 0.09054148 0.08441439
v 0.12322816 0.17628118 0.21147780
v 0.12481344 0.17530952 0.21187159
v 0.25520277 0.09054148 0.22246021
v 0.12798400 0.16885766 0.21125902
v 0.16995791 0.10993591 0.21003389
v 0.17550640 0.09054148 0.20176427
v 0.12322816 0.09054148 0.16124749
v 0.12322816 0.17391032 0.21055895
v 0.12322816 0.13617086 0.19240078
v 0.15806831 0.10810918 0.20167676
v 0.17118290 0.09054148 0.19874521
v 0.14794412 0.09054148 0.18133086
v 0.12322816 0.09318441 0.16308519
f 1 2 3
f 1 3 4
f 1 4 13
f 1 13 28
f 1 28 51
f 1 51 76
f 1 76 101
f 1 101 134
f 1 134 173
f 1 173 188
f 1 188 191
f 1 191 190
f 1 190 189
f 1 189 229
f 1 229 281
f 1 281 326
f 1 326 325
f 1 325 324
f 1 324 391
f 1 391 453
f 1 453 509
f 1 509 508
f 1 508 507
f 1 507 561
f 1 561 560
f 1 560 562
f 1 562 607
f 1 607 556
f 1 556 555
f 1 555 605
f 1 605 604
f 1 604 649
f 1 649 650
f 1 650 680
f 1 680 713
f 1 713 742
f 1 742 748
f 1 748 747
f 1 747 772
f 1 772 771
f 1 771 770
f 1 770 769
f 1 769 768
f 1 768 792
f 1 792 794
f 1 794 809
f 1 809 808
f 1 808 816
f 1 816 815
f 1 815 821
f 1 821 824
f 1 824 829
f 1 829 830
f 1 830 825
f 1 825 818
f 1 818 811
f 1 811 795
f 1 795 774
f 1 774 751
f 1 751 718
f 1 718 682
f 1 682 652
f 1 652 608
f 1 608 565
f 1 565 564
f 1 564 563
f 1 563 510
f 1 510 454
f 1 454 392
f 1 392 327
f 1 327 268
f 1 268 267
f 1 267 217
f 1 217 174
f 1 174 136
f 1 136 103
f 1 103 79
f 1 79 77
f 1 77 52
f 1 52 29
f 1 29 14
f 1 14 5
f 1 5 6
f 1 6 7
f 1 7 2
f 2 8 9
f 2 9 10
f 2 10 11
f 2 11 3
f 2 7 12
f 2 12 8
f 3 11 4
f 4 11 10
f 4 10 13
f 5 14 15
f 5 15 16
f 5 16 6
f 6 16 15
f 6 15 30
f 6 30 53
f 6 53 78
f 6 78 102
f 6 102 135
f 6 135 175
f 6 175 218
f 6 218 269
f 6 269 328
f 6 328 393
f 6 393 455
f 6 455 511
f 6 511 566
f 6 566 609
f 6 609 651
f 6 651 681
f 6 681 719
f 6 719 750
f 6 750 749
f 6 749 773
f 6 773 776
f 6 776 775
f 6 775 796
f 6 796 810
f 6 810 817
f 6 817 818
f 6 818 825
f 6 825 831
f 6 831 827
f 6 827 826
f 6 826 819
f 6 819 812
f 6 812 805
f 6 805 801
f 6 801 785
f 6 785 784
f 6 784 800
f 6 800 799
f 6 799 798
f 6 798 797
f 6 797 779
f 6 779 778
f 6 778 777
f 6 777 755
f 6 755 753
f 6 753 721
f 6 721 752
f 6 752 760
f 6 760 726
f 6 726 694
f 6 694 725
f 6 725 728
f 6 728 697
f 6 697 684
f 6 684 683
f 6 683 653
f 6 653 612
f 6 612 611
f 6 611 610
f 6 610 570
f 6 570 569
f 6 569 574
f 6 574 567
f 6 567 512
f 6 512 457
f 6 457 397
f 6 397 456
f 6 456 394
f 6 394 330
f 6 330 329
f 6 329 270
f 6 270 219
f 6 219 177
f 6 177 139
f 6 139 107
f 6 107 81
f 6 81 54
f 6 54 31
f 6 31 17
f 6 17 7
f 7 17 18
f 7 18 12
f 8 12 9
f 9 19 10
f 9 12 20
f 9 20 19
f 10 19 13
f 12 21 22
f 12 22 23
f 12 23 24
f 12 24 25
f 12 25 20
f 12 18 26
f 12 26 21
f 13 19 27
f 13 27 28
f 14 29 30
f 14 30 15
f 17 31 32
f 17 32 18
f 18 32 33
f 18 33 34
f 18 34 35
f 18 35 26
f 19 20 36
f 19 36 37
f 19 37 38
f 19 38 27
f 20 37 36
f 20 25 39
f 20 39 40
f 20 40 41
f 20 41 37
f 21 26 22
f 22 26 35
f 22 35 42
f 22 42 43
f 22 43 44
f 22 44 23
f 23 44 24
f 24 44 45
f 24 45 25
f 25 45 46
f 25 46 47
f 25 47 39
f 27 38 48
f 27 48 49
f 27 49 50
f 27 50 51
f 27 51 28
f 29 52 30
f 30 52 53
f 31 54 55
f 31 55 56
f 31 56 32
f 32 56 33
f 33 56 57
f 33 57 34
f 34 57 58
f 34 58 35
f 35 58 59
f 35 59 60
f 35 60 42
f 37 41 61
f 37 61 62
f 37 62 38
f 38 62 48
f 39 47 63
f 39 63 40
f 40 63 64
f 40 64 41
f 41 64 65
f 41 65 66
f 41 66 61
f 42 60 43
f 43 67 68
f 43 68 69
f 43 69 70
f 43 70 71
f 43 71 44
f 43 60 59
f 43 59 67
f 44 72 73
f 44 73 45
f 44 71 72
f 45 73 74
f 45 74 46
f 46 74 47
f 47 74 63
f 48 75 51
f 48 51 49
f 48 62 76
f 48 76 75
f 49 51 50
f 51 75 76
f 52 77 53
f 53 77 79
f 53 79 78
f 54 80 55
f 54 81 80
f 55 80 56
f 56 80 57
f 57 82 58
f 57 80 83
f 57 83 84
f 57 84 82
f 58 82 59
f 59 82 85
f 59 85 86
f 59 86 87
f 59 87 67
f 61 88 62
f 61 66 88
f 62 88 89
f 62 89 90
f 62 90 76
f 63 74 64
f 64 73 91
f 64 91 92
f 64 92 93
f 64 93 94
f 64 94 65
f 64 74 73
f 65 94 66
f 66 94 95
f 66 95 96
f 66 96 88
f 67 87 97
f 67 97 68
f 68 97 69
f 69 97 98
f 69 98 99
f 69 99 70
f 70 99 71
f 71 99 100
f 71 100 72
f 72 100 73
f 73 100 91
f 76 90 101
f 78 79 103
f 78 103 102
f 80 81 104
f 80 104 105
f 80 105 106
f 80 106 83
f 81 107 108
f 81 108 104
f 82 84 85
f 83 106 109
f 83 109 110
f 83 110 111
f 83 111 112
f 83 112 84
f 84 112 113
f 84 113 85
f 85 113 114
f 85 114 86
f 86 114 115
f 86 115 116
f 86 116 117
f 86 117 87
f 87 117 116
f 87 116 98
f 87 98 97
f 88 118 89
f 88 96 118
f 89 119 101
f 89 101 90
f 89 118 120
f 89 120 119
f 91 100 121
f 91 121 122
f 91 122 92
f 92 122 93
f 93 123 124
f 93 124 125
f 93 125 94
f 93 122 123
f 94 125 95
f 95 126 96
f 95 125 127
f 95 127 128
f 95 128 126
f 96 120 118
f 96 126 129
f 96 129 130
f 96 130 120
f 98 116 115
f 98 115 131
f 98 131 132
f 98 132 99
f 99 132 133
f 99 133 121
f 99 121 100
f 101 119 134
f 102 103 136
f 102 136 135
f 104 108 137
f 104 137 105
f 105 137 138
f 105 138 110
f 105 110 106
f 106 110 109
f 107 139 140
f 107 140 141
f 107 141 138
f 107 138 142
f 107 142 108
f 108 142 138
f 108 138 137
f 110 138 176
f 110 176 143
f 110 143 144
f 110 144 111
f 111 144 145
f 111 145 113
f 111 113 112
f 113 145 146
f 113 146 147
f 113 147 148
f 113 148 114
f 114 148 115
f 115 148 149
f 115 149 131
f 119 150 134
f 119 120 150
f 120 130 151
f 120 151 152
f 120 152 150
f 121 133 122
f 122 153 154
f 122 154 123
f 122 133 131
f 122 131 155
f 122 155 156
f 122 156 157
f 122 157 158
f 122 158 159
f 122 159 160
f 122 160 161
f 122 161 162
f 122 162 163
f 122 163 153
f 123 154 153
f 123 153 124
f 124 153 164
f 124 164 127
f 124 127 125
f 126 128 165
f 126 165 166
f 126 166 129
f 127 164 167
f 127 167 166
f 127 166 165
f 127 165 128
f 129 166 168
f 129 168 169
f 129 169 170
f 129 170 130
f 130 170 171
f 130 171 151
f 131 149 172
f 131 172 155
f 131 133 132
f 134 150 173
f 135 136 174
f 135 174 175
f 138 141 176
f 139 177 140
f 140 176 141
f 140 177 178
f 140 178 176
f 143 179 180
f 143 180 144
f 143 176 178
f 143 178 181
f 143 181 182
f 143 182 183
f 143 183 184
f 143 184 179
f 144 180 145
f 145 180 146
f 146 180 147
f 147 180 179
f 147 179 184
f 147 184 185
f 147 185 186
f 147 186 187
f 147 187 149
f 147 149 148
f 149 187 172
f 150 152 188
f 150 188 173
f 151 171 189
f 151 189 190
f 151 190 191
f 151 191 188
f 151 188 152
f 153 163 192
f 153 192 164
f 155 172 193
f 155 193 156
f 156 193 194
f 156 194 157
f 157 194 195
f 157 195 196
f 157 196 197
f 157 197 158
f 158 197 159
f 159 198 199
f 159 199 200
f 159 200 160
f 159 197 196
f 159 196 198
f 160 200 161
f 161 200 201
f 161 201 202
f 161 202 203
f 161 203 162
f 162 203 163
f 163 203 204
f 163 204 205
f 163 205 192
f 164 192 206
f 164 206 207
f 164 207 208
f 164 208 167
f 166 167 209
f 166 209 168
f 167 208 210
f 167 210 209
f 168 209 169
f 169 209 211
f 169 211 212
f 169 212 213
f 169 213 214
f 169 214 170
f 170 214 215
f 170 215 171
f 171 215 216
f 171 216 189
f 172 187 193
f 174 217 175
f 175 217 218
f 177 219 220
f 177 220 221
f 177 221 183
f 177 183 182
f 177 182 181
f 177 181 178
f 183 222 184
f 183 221 220
f 183 220 223
f 183 223 224
f 183 224 225
f 183 225 226
f 183 226 222
f 184 222 185
f 185 222 186
f 186 222 227
f 186 227 228
f 186 228 187
f 187 228 193
f 189 216 229
f 192 205 206
f 193 228 194
f 194 228 230
f 194 230 231
f 194 231 195
f 195 231 198
f 195 198 196
f 198 231 232
f 198 232 233
f 198 233 234
f 198 234 199
f 199 234 201
f 199 201 200
f 201 235 236
f 201 236 237
f 201 237 238
f 201 238 239
f 201 239 240
f 201 240 202
f 201 234 241
f 201 241 242
f 201 242 235
f 202 240 204
f 202 204 243
f 202 243 203
f 203 243 204
f 204 240 239
f 204 239 205
f 205 239 244
f 205 244 206
f 206 244 207
f 207 210 208
f 207 244 210
f 209 210 245
f 209 245 211
f 210 244 246
f 210 246 245
f 211 245 247
f 211 247 248
f 211 248 212
f 212 249 250
f 212 250 251
f 212 251 252
f 212 252 253
f 212 253 254
f 212 254 255
f 212 255 256
f 212 256 257
f 212 257 258
f 212 258 259
f 212 259 260
f 212 260 261
f 212 261 262
f 212 262 263
f 212 263 229
f 212 229 216
f 212 216 213
f 212 248 247
f 212 247 249
f 213 216 264
f 213 264 214
f 214 264 215
f 215 264 265
f 215 265 266
f 215 266 216
f 216 266 265
f 216 265 264
f 217 267 218
f 218 267 268
f 218 268 269
f 219 270 220
f 220 270 271
f 220 271 272
f 220 272 223
f 222 226 273
f 222 273 274
f 222 274 227
f 223 272 224
f 224 272 271
f 224 271 275
f 224 275 276
f 224 276 225
f 225 277 278
f 225 278 226
f 225 276 279
f 225 279 277
f 226 278 273
f 227 274 228
f 228 274 280
f 228 280 230
f 229 263 281
f 230 280 282
f 230 282 231
f 231 283 284
f 231 284 285
f 231 285 232
f 231 282 283
f 232 234 233
f 232 285 286
f 232 286 287
f 232 287 288
f 232 288 289
f 232 289 290
f 232 290 234
f 234 290 291
f 234 291 292
f 234 292 293
f 234 293 294
f 234 294 241
f 235 295 296
f 235 296 236
f 235 242 295
f 236 297 237
f 236 296 298
f 236 298 297
f 237 297 238
f 238 297 239
f 239 297 244
f 241 294 242
f 242 299 300
f 242 300 301
f 242 301 302
f 242 302 303
f 242 303 304
f 242 304 305
f 242 305 306
f 242 306 307
f 242 307 308
f 242 308 296
f 242 296 295
f 242 294 299
f 244 297 309
f 244 309 310
f 244 310 246
f 245 246 249
f 245 249 247
f 246 310 311
f 246 311 250
f 246 250 249
f 250 311 251
f 251 309 252
f 251 311 309
f 252 309 312
f 252 312 253
f 253 312 313
f 253 313 314
f 253 314 315
f 253 315 254
f 254 315 316
f 254 316 255
f 255 317 318
f 255 318 257
f 255 257 256
f 255 316 315
f 255 315 317
f 257 318 319
f 257 319 320
f 257 320 321
f 257 321 258
f 258 321 322
f 258 322 259
f 259 322 260
f 260 322 323
f 260 323 324
f 260 324 261
f 261 325 326
f 261 326 262
f 261 324 325
f 262 281 263
f 262 326 281
f 268 327 269
f 269 327 328
f 270 329 271
f 271 329 330
f 271 330 331
f 271 331 332
f 271 332 333
f 271 333 276
f 271 276 334
f 271 334 275
f 273 278 277
f 273 277 335
f 273 335 336
f 273 336 284
f 273 284 337
f 273 337 280
f 273 280 338
f 273 338 274
f 274 338 280
f 275 334 276
f 276 333 339
f 276 339 340
f 276 340 341
f 276 341 342
f 276 342 343
f 276 343 279
f 277 279 335
f 279 343 335
f 280 337 344
f 280 344 282
f 282 344 284
f 282 284 283
f 284 336 286
f 284 286 285
f 284 344 337
f 286 345 346
f 286 346 347
f 286 347 348
f 286 348 349
f 286 349 287
f 286 336 345
f 287 349 288
f 288 291 289
f 288 349 350
f 288 350 351
f 288 351 352
f 288 352 353
f 288 353 291
f 289 291 290
f 291 353 354
f 291 354 355
f 291 355 356
f 291 356 292
f 292 356 357
f 292 357 293
f 293 357 299
f 293 299 294
f 296 308 358
f 296 358 298
f 297 298 307
f 297 307 314
f 297 314 313
f 297 313 312
f 297 312 309
f 298 358 307
f 299 356 300
f 299 357 356
f 300 356 355
f 300 355 301
f 301 303 302
f 301 355 359
f 301 359 351
f 301 351 360
f 301 360 361
f 301 361 362
f 301 362 363
f 301 363 364
f 301 364 365
f 301 365 366
f 301 366 367
f 301 367 368
f 301 368 369
f 301 369 303
f 303 305 304
f 303 369 370
f 303 370 371
f 303 371 372
f 303 372 373
f 303 373 305
f 305 374 375
f 305 375 376
f 305 376 306
f 305 373 377
f 305 377 378
f 305 378 374
f 306 376 375
f 306 375 379
f 306 379 380
f 306 380 307
f 307 380 314
f 307 358 308
f 309 311 310
f 314 380 375
f 314 375 374
f 314 374 381
f 314 381 382
f 314 382 317
f 314 317 315
f 317 382 383
f 317 383 318
f 318 383 384
f 318 384 385
f 318 385 319
f 319 385 386
f 319 386 320
f 320 386 387
f 320 387 321
f 321 387 388
f 321 388 389
f 321 389 323
f 321 323 390
f 321 390 322
f 322 390 323
f 323 389 391
f 323 391 324
f 327 392 328
f 328 392 393
f 330 394 395
f 330 395 331
f 331 395 396
f 331 396 397
f 331 397 398
f 331 398 339
f 331 339 332
f 332 339 333
f 335 343 345
f 335 345 336
f 339 398 399
f 339 399 400
f 339 400 401
f 339 401 341
f 339 341 340
f 341 401 402
f 341 402 342
f 342 402 403
f 342 403 404
f 342 404 347
f 342 347 343
f 343 347 405
f 343 405 345
f 345 405 346
f 346 405 347
f 347 404 406
f 347 406 348
f 348 406 407
f 348 407 409
f 348 409 408
f 348 408 349
f 349 408 409
f 349 409 350
f 350 409 351
f 351 410 361
f 351 361 360
f 351 359 352
f 351 409 407
f 351 407 410
f 352 359 353
f 353 359 354
f 354 359 355
f 361 411 412
f 361 412 362
f 361 410 411
f 362 412 413
f 362 413 414
f 362 414 364
f 362 364 363
f 364 415 416
f 364 416 417
f 364 417 365
f 364 414 415
f 365 418 419
f 365 419 366
f 365 417 420
f 365 420 418
f 366 421 422
f 366 422 367
f 366 419 421
f 367 422 368
f 368 422 421
f 368 421 369
f 369 421 423
f 369 423 370
f 370 423 418
f 370 418 371
f 371 420 424
f 371 424 425
f 371 425 426
f 371 426 427
f 371 427 428
f 371 428 429
f 371 429 372
f 371 418 420
f 372 429 430
f 372 430 373
f 373 430 377
f 374 431 432
f 374 432 381
f 374 378 433
f 374 433 434
f 374 434 435
f 374 435 431
f 375 380 379
f 377 430 378
f 378 436 433
f 378 430 436
f 381 432 382
f 382 432 383
f 383 432 437
f 383 437 384
f 384 438 385
f 384 437 439
f 384 439 440
f 384 440 438
f 385 438 386
f 386 438 440
f 386 440 441
f 386 441 442
f 386 442 443
f 386 443 444
f 386 444 445
f 386 445 446
f 386 446 447
f 386 447 387
f 387 448 388
f 387 447 449
f 387 449 450
f 387 450 448
f 388 448 451
f 388 451 389
f 389 452 453
f 389 453 391
f 389 451 452
f 392 454 393
f 393 454 455
f 394 456 395
f 395 456 396
f 396 456 397
f 397 457 398
f 398 457 458
f 398 458 399
f 399 402 459
f 399 459 400
f 399 458 460
f 399 460 461
f 399 461 462
f 399 462 463
f 399 463 402
f 400 459 401
f 401 459 402
f 402 463 403
f 403 463 464
f 403 464 404
f 404 464 411
f 404 411 406
f 406 411 465
f 406 465 410
f 406 410 407
f 410 465 411
f 411 466 467
f 411 467 468
f 411 468 469
f 411 469 470
f 411 470 471
f 411 471 472
f 411 472 473
f 411 473 412
f 411 464 474
f 411 474 466
f 412 473 475
f 412 475 413
f 413 475 476
f 413 476 414
f 414 476 415
f 415 476 477
f 415 477 478
f 415 478 416
f 416 479 420
f 416 420 480
f 416 480 417
f 416 478 481
f 416 481 482
f 416 482 483
f 416 483 484
f 416 484 485
f 416 485 479
f 417 480 420
f 418 423 421
f 418 421 419
f 420 479 486
f 420 486 424
f 424 486 487
f 424 487 425
f 425 487 426
f 426 487 427
f 427 488 489
f 427 489 428
f 427 487 488
f 428 489 429
f 429 489 430
f 430 489 490
f 430 490 491
f 430 491 436
f 431 492 432
f 431 435 492
f 432 492 493
f 432 493 494
f 432 494 437
f 433 436 495
f 433 495 496
f 433 496 434
f 434 496 497
f 434 497 498
f 434 498 435
f 435 498 492
f 436 491 495
f 437 494 493
f 437 493 442
f 437 442 439
f 439 442 441
f 439 441 440
f 442 499 445
f 442 445 444
f 442 444 443
f 442 493 499
f 445 500 446
f 445 499 501
f 445 501 502
f 445 502 500
f 446 500 447
f 447 500 449
f 448 450 503
f 448 503 451
f 449 500 504
f 449 504 505
f 449 505 450
f 450 505 503
f 451 503 506
f 451 506 507
f 451 507 508
f 451 508 452
f 452 509 453
f 452 508 509
f 454 510 455
f 455 510 511
f 457 512 458
f 458 512 513
f 458 513 514
f 458 514 460
f 460 514 515
f 460 515 461
f 461 515 462
f 462 515 516
f 462 516 517
f 462 517 463
f 463 474 464
f 463 517 474
f 466 474 517
f 466 517 516
f 466 516 467
f 467 516 515
f 467 515 518
f 467 518 519
f 467 519 520
f 467 520 521
f 467 521 468
f 468 521 522
f 468 522 523
f 468 523 469
f 469 523 470
f 470 524 525
f 470 525 471
f 470 523 524
f 471 525 526
f 471 526 481
f 471 481 472
f 472 481 527
f 472 527 473
f 473 527 475
f 475 527 476
f 476 527 481
f 476 481 477
f 477 481 478
f 479 485 528
f 479 528 486
f 481 525 529
f 481 529 482
f 481 526 525
f 482 529 483
f 483 530 531
f 483 531 532
f 483 532 533
f 483 533 484
f 483 529 530
f 484 534 485
f 484 533 534
f 485 534 528
f 486 528 487
f 487 528 535
f 487 535 536
f 487 536 537
f 487 537 488
f 488 537 538
f 488 538 490
f 488 490 489
f 490 495 491
f 490 538 539
f 490 539 540
f 490 540 541
f 490 541 495
f 492 498 493
f 493 498 542
f 493 542 499
f 495 543 496
f 495 541 544
f 495 544 543
f 496 543 542
f 496 542 498
f 496 498 497
f 499 542 545
f 499 545 501
f 500 502 546
f 500 546 547
f 500 547 504
f 501 545 548
f 501 548 549
f 501 549 502
f 502 549 550
f 502 550 551
f 502 551 552
f 502 552 553
f 502 553 554
f 502 554 555
f 502 555 556
f 502 556 557
f 502 557 558
f 502 558 559
f 502 559 546
f 503 505 504
f 503 504 547
f 503 547 546
f 503 546 559
f 503 559 558
f 503 558 506
f 506 560 561
f 506 561 507
f 506 558 562
f 506 562 560
f 510 563 511
f 511 563 564
f 511 564 565
f 511 565 566
f 512 567 513
f 513 567 568
f 513 568 514
f 514 569 570
f 514 570 571
f 514 571 572
f 514 572 573
f 514 573 515
f 514 568 574
f 514 574 569
f 515 573 519
f 515 519 518
f 519 573 575
f 519 575 520
f 520 575 576
f 520 576 521
f 521 576 577
f 521 577 523
f 521 523 522
f 523 577 578
f 523 578 524
f 524 578 579
f 524 579 525
f 525 580 581
f 525 581 582
f 525 582 530
f 525 530 529
f 525 579 580
f 528 534 583
f 528 583 584
f 528 584 585
f 528 585 586
f 528 586 535
f 530 587 588
f 530 588 532
f 530 532 531
f 530 582 587
f 532 588 533
f 533 583 534
f 533 588 585
f 533 585 584
f 533 584 583
f 535 540 536
f 535 586 589
f 535 589 590
f 535 590 541
f 535 541 540
f 536 540 537
f 537 540 539
f 537 539 538
f 541 590 589
f 541 589 591
f 541 591 592
f 541 592 593
f 541 593 594
f 541 594 544
f 542 543 545
f 543 544 595
f 543 595 596
f 543 596 545
f 544 594 597
f 544 597 642
f 544 642 596
f 544 596 595
f 545 596 598
f 545 598 548
f 548 550 549
f 548 598 599
f 548 599 551
f 548 551 550
f 551 599 596
f 551 596 600
f 551 600 601
f 551 601 602
f 551 602 603
f 551 603 552
f 552 603 602
f 552 602 553
f 553 604 605
f 553 605 554
f 553 602 606
f 553 606 604
f 554 605 555
f 556 607 558
f 556 558 557
f 558 607 562
f 565 608 566
f 566 608 609
f 567 574 568
f 570 610 571
f 571 610 611
f 571 611 572
f 572 611 612
f 572 612 613
f 572 613 575
f 572 575 573
f 575 614 576
f 575 613 614
f 576 614 577
f 577 614 615
f 577 615 616
f 577 616 578
f 578 616 580
f 578 580 579
f 580 616 617
f 580 617 581
f 581 618 619
f 581 619 588
f 581 588 587
f 581 587 582
f 581 617 615
f 581 615 620
f 581 620 621
f 581 621 622
f 581 622 618
f 585 623 624
f 585 624 586
f 585 588 625
f 585 625 626
f 585 626 627
f 585 627 628
f 585 628 629
f 585 629 630
f 585 630 631
f 585 631 623
f 586 624 632
f 586 632 589
f 588 633 625
f 588 619 634
f 588 634 633
f 589 632 623
f 589 623 635
f 589 635 636
f 589 636 637
f 589 637 591
f 591 638 640
f 591 640 592
f 591 637 638
f 592 639 593
f 592 640 641
f 592 641 639
f 593 639 594
f 594 639 597
f 596 642 644
f 596 644 600
f 596 599 598
f 597 639 643
f 597 643 642
f 600 644 601
f 601 644 645
f 601 645 602
f 602 645 646
f 602 646 647
f 602 647 648
f 602 648 606
f 604 606 649
f 606 648 650
f 606 650 649
f 608 651 609
f 608 652 651
f 612 653 654
f 612 654 613
f 613 654 655
f 613 655 656
f 613 656 621
f 613 621 614
f 614 621 620
f 614 620 615
f 615 617 616
f 618 634 619
f 618 622 621
f 618 621 656
f 618 656 634
f 623 631 635
f 623 632 624
f 625 633 626
f 626 633 627
f 627 633 657
f 627 657 628
f 628 658 659
f 628 659 660
f 628 660 629
f 628 657 658
f 629 660 630
f 630 660 631
f 631 660 635
f 633 634 661
f 633 661 662
f 633 662 657
f 634 656 655
f 634 655 663
f 634 663 661
f 635 660 637
f 635 637 636
f 637 660 659
f 637 659 664
f 637 664 638
f 638 665 640
f 638 664 666
f 638 666 667
f 638 667 665
f 639 668 669
f 639 669 670
f 639 670 643
f 639 641 671
f 639 671 668
f 640 665 672
f 640 672 641
f 641 672 671
f 642 643 673
f 642 673 670
f 642 670 674
f 642 674 675
f 642 675 644
f 643 670 673
f 644 675 676
f 644 676 645
f 645 677 647
f 645 647 646
f 645 676 678
f 645 678 679
f 645 679 677
f 647 677 680
f 647 680 650
f 647 650 648
f 651 652 681
f 652 682 681
f 653 683 654
f 654 683 655
f 655 684 663
f 655 683 684
f 657 685 686
f 657 686 687
f 657 687 688
f 657 688 689
f 657 689 690
f 657 690 691
f 657 691 692
f 657 692 658
f 657 662 661
f 657 661 693
f 657 693 694
f 657 694 695
f 657 695 685
f 658 692 664
f 658 664 659
f 661 663 696
f 661 696 694
f 661 694 693
f 663 697 696
f 663 684 697
f 664 692 667
f 664 667 666
f 665 698 672
f 665 667 698
f 667 692 691
f 667 691 690
f 667 690 698
f 668 699 700
f 668 700 669
f 668 671 699
f 669 700 670
f 670 701 702
f 670 702 703
f 670 703 704
f 670 704 675
f 670 675 674
f 670 700 671
f 670 671 701
f 671 705 706
f 671 706 707
f 671 707 708
f 671 708 701
f 671 700 699
f 671 672 705
f 672 698 709
f 672 709 710
f 672 710 711
f 672 711 705
f 675 704 712
f 675 712 676
f 676 712 678
f 677 713 680
f 677 679 713
f 678 712 714
f 678 714 715
f 678 715 679
f 679 715 716
f 679 716 717
f 679 717 713
f 681 682 718
f 681 718 719
f 685 695 686
f 686 695 720
f 686 720 721
f 686 721 687
f 687 722 688
f 687 721 723
f 687 723 724
f 687 724 722
f 688 722 711
f 688 711 689
f 689 711 690
f 690 709 698
f 690 711 709
f 694 696 725
f 694 726 695
f 695 726 727
f 695 727 720
f 696 728 725
f 696 697 728
f 701 708 702
f 702 708 703
f 703 729 730
f 703 730 704
f 703 708 731
f 703 731 729
f 704 730 712
f 705 711 732
f 705 732 706
f 706 732 733
f 706 733 734
f 706 734 708
f 706 708 707
f 708 735 731
f 708 734 736
f 708 736 735
f 709 711 710
f 711 737 738
f 711 738 739
f 711 739 740
f 711 740 741
f 711 741 732
f 711 722 737
f 712 730 714
f 713 717 742
f 714 730 729
f 714 729 743
f 714 743 715
f 715 743 744
f 715 744 716
f 716 744 745
f 716 745 746
f 716 746 747
f 716 747 748
f 716 748 742
f 716 742 717
f 718 749 750
f 718 750 719
f 718 751 749
f 720 727 721
f 721 753 723
f 721 727 752
f 722 724 754
f 722 754 737
f 723 753 724
f 724 755 756
f 724 756 757
f 724 757 758
f 724 758 759
f 724 759 754
f 724 753 755
f 726 760 761
f 726 761 727
f 727 761 752
f 729 731 743
f 731 735 743
f 732 741 733
f 733 741 734
f 734 762 763
f 734 763 736
f 734 741 762
f 735 736 764
f 735 764 743
f 736 763 765
f 736 765 764
f 737 754 738
f 738 754 759
f 738 759 739
f 739 741 740
f 739 759 762
f 739 762 741
f 743 764 766
f 743 766 746
f 743 746 744
f 744 746 745
f 746 766 767
f 746 767 768
f 746 768 769
f 746 769 770
f 746 770 771
f 746 771 772
f 746 772 747
f 749 751 773
f 751 774 775
f 751 775 776
f 751 776 773
f 752 761 760
f 755 777 756
f 756 777 778
f 756 778 757
f 757 778 779
f 757 779 758
f 758 779 759
f 759 779 780
f 759 780 781
f 759 781 762
f 762 781 782
f 762 782 783
f 762 783 784
f 762 784 763
f 763 784 785
f 763 785 786
f 763 786 787
f 763 787 788
f 763 788 765
f 764 765 789
f 764 789 766
f 765 788 787
f 765 787 790
f 765 790 806
f 765 806 791
f 765 791 789
f 766 789 767
f 767 792 768
f 767 789 791
f 767 791 793
f 767 793 794
f 767 794 792
f 774 795 796
f 774 796 775
f 779 797 782
f 779 782 781
f 779 781 780
f 782 797 798
f 782 798 783
f 783 798 799
f 783 799 800
f 783 800 784
f 785 801 802
f 785 802 803
f 785 803 804
f 785 804 787
f 785 787 786
f 787 804 801
f 787 801 790
f 790 801 805
f 790 805 812
f 790 812 806
f 791 806 807
f 791 807 808
f 791 808 809
f 791 809 794
f 791 794 793
f 795 810 796
f 795 811 810
f 801 804 802
f 802 804 803
f 806 812 813
f 806 813 807
f 807 813 814
f 807 814 815
f 807 815 816
f 807 816 808
f 810 811 817
f 811 818 817
f 812 819 820
f 812 820 813
f 813 821 815
f 813 815 814
f 813 820 822
f 813 822 823
f 813 823 824
f 813 824 821
f 819 826 822
f 819 822 820
f 822 826 827
f 822 827 828
f 822 828 823
f 823 828 824
f 824 828 829
f 825 830 831
f 827 831 828
f 828 831 830
f 828 830 829

