# https://github.com/mikedh/trimesh
v -0.09500200 0.07892545 0.10531104
v -0.09500200 0.08681367 -0.01746015
v -0.00210815 0.14577410 -0.06492864
v -0.00210815 0.14187023 0.12439866
v -0.09500200 0.07944864 0.10931989
v -0.09500200 0.08741736 -0.02493120
v -0.00210815 0.14641804 -0.07203525
v -0.00210815 0.14255442 0.12717752
v -0.09500200 0.08037430 0.11505985
v -0.09500200 0.09152246 -0.06497419
v -0.00210815 0.14674000 -0.07508744
v -0.00210815 0.14504968 0.13492191
v -0.00210815 0.14790714 0.14289406
v -0.09500200 0.08258784 0.11765648
v -0.09500200 0.09272984 -0.07495078
v -0.09500200 0.09462141 -0.08488180
v -0.09500200 0.09534582 -0.08816177
v -0.09500200 0.09679468 -0.09435727
v -0.09500200 0.09784108 -0.09863947
v -0.09500200 0.09949116 -0.10497163
v -0.00210815 0.14863157 -0.08210294
v -0.09500200 0.08713564 0.12289533
v -0.00210815 0.17680380 0.17469156
v -0.00812770 0.17889658 0.18065929
v -0.09500200 0.10118151 -0.11116713
v -0.00210815 0.15221347 -0.09499505
v -0.09500200 0.10222790 -0.11494821
v -0.09500200 0.08926868 0.12503642
v -0.00210815 0.18094912 0.17915598
v -0.00210815 0.20747127 0.20521353
v -0.09500200 0.09655321 0.13191526
v -0.09500200 0.09212615 0.12781529
v -0.00210815 0.15499045 -0.10497163
v -0.00210815 0.15998095 -0.11827374
v -0.00210815 0.15825038 -0.11458378
v -0.09500200 0.10665496 -0.12333037
v -0.00210815 0.21141538 0.20872128
v -0.09500200 0.10009485 0.13496745
v -0.06984174 0.16996196 0.19013476
v -0.00210815 0.16106759 -0.12005040
v -0.09500200 0.10802333 -0.12483369
v -0.00210815 0.18662381 -0.15398900
v -0.00210815 0.18159306 -0.14788461
v -0.00210815 0.16412629 -0.12478814
v -0.00210815 0.16263719 -0.12255593
v -0.00210815 0.21640588 0.21236569
v -0.03500654 0.24256580 0.23874213
v -0.09500200 0.10206692 0.13660744
v -0.07499745 0.16951926 0.19068143
v -0.09500200 0.11506638 -0.13221362
v -0.00210815 0.19117162 -0.15895452
v -0.00210815 0.22530025 0.21719454
v -0.02834139 0.24828073 0.24060990
v -0.03500654 0.24759656 0.24088323
v -0.04120795 0.24848196 0.24051878
v -0.09500200 0.17507321 0.19514583
v -0.09500200 0.16875458 0.19131920
v -0.09499291 0.16875458 0.19131920
v -0.08499064 0.17507321 0.19519138
v -0.08499064 0.16915704 0.19104587
v -0.09500200 0.11639450 -0.13358028
v -0.09500200 0.13804686 -0.15503676
v -0.09500200 0.14581434 -0.16241670
v -0.09500200 0.14911452 -0.16492224
v -0.00210815 0.19620237 -0.16264448
v -0.00210815 0.25109795 0.22949444
v -0.00210815 0.29766262 0.24097434
v -0.00210815 0.32494941 0.24448209
v -0.03804360 0.31754416 0.25172538
v -0.04499972 0.31633678 0.25204426
v -0.00210815 0.25178215 0.22981332
v -0.00210815 0.25524330 0.23127109
v -0.00210815 0.26502308 0.23459661
v -0.09500200 0.24976984 0.23008665
v -0.09500200 0.18762997 0.20111357
v -0.09500200 0.18263946 0.19874468
v -0.09500200 0.15390380 -0.16842999
v -0.00210815 0.20332593 -0.16765554
v -0.00210815 0.33493042 0.24548429
v -0.03741618 0.32494941 0.25231758
v -0.04499972 0.32494941 0.25318313
v -0.05096471 0.31754416 0.25095093
v -0.08027138 0.29979566 0.24006324
v -0.09500200 0.30494714 0.23486994
v -0.09500200 0.16485071 -0.17512660
v -0.00210815 0.22485754 -0.18277986
v -0.00500881 0.33493042 0.24603096
v -0.00210815 0.33839160 0.24480097
v -0.03851643 0.33110705 0.25131536
v -0.03500654 0.35493273 0.24457319
v -0.04509065 0.35545591 0.24265988
v -0.05305610 0.35243747 0.24197654
v -0.05015544 0.33022165 0.25008535
v -0.08029866 0.33026189 0.24010879
v -0.09500200 0.31496841 0.23382217
v -0.09500200 0.16694352 -0.17635658
v -0.09500200 0.18517497 -0.18706205
v -0.09500200 0.19483401 -0.19257422
v -0.00210815 0.23330921 -0.18724427
v -0.00210815 0.38531846 0.23154442
v -0.00730933 0.39059070 0.23026887
v -0.01071920 0.39059070 0.23026887
v -0.03500654 0.36201602 0.24170321
v -0.04181718 0.36109036 0.24092878
v -0.07036003 0.37038720 0.23017776
v -0.05582946 0.34575662 0.24338876
v -0.09500200 0.37497523 0.21924452
v -0.09500200 0.34422725 0.22749001
v -0.09500200 0.33279741 0.23049664
v -0.09500200 0.32543236 0.23190886
v -0.09500200 0.20578092 -0.19731197
v -0.00210815 0.23540200 -0.18833759
v -0.00210815 0.39694956 0.22717112
v -0.00210815 0.40837944 0.22124894
v -0.05250143 0.42206308 0.21086237
v -0.09500200 0.38443303 0.21455234
v -0.09500200 0.20807496 -0.19808640
v -0.00210815 0.23817898 -0.18938537
v -0.01295607 0.44138119 0.20125023
v -0.00210815 0.43590772 0.20448464
v -0.00682740 0.44138119 0.20125023
v -0.05550211 0.42524254 0.20721795
v -0.09188311 0.41167963 0.20152356
v -0.09500200 0.40841967 0.19997469
v -0.00210815 0.24188161 -0.19056980
v -0.09500200 0.21487653 -0.20013638
v -0.00210815 0.27480286 -0.20068304
v -0.00500881 0.46259084 0.18293704
v -0.05499290 0.43091720 0.20197912
v -0.00210815 0.46234936 0.18248150
v -0.06020318 0.43015254 0.20038468
v -0.09500200 0.42890489 0.17801709
v -0.09500200 0.41389316 0.19532806
v -0.09500200 0.21580219 -0.20040971
v -0.00210815 0.27629197 -0.20109305
v -0.00210815 0.46331525 0.18106928
v -0.00210815 0.46830577 0.17214048
v -0.01187401 0.46142370 0.18202594
v -0.06499518 0.46247011 0.15309840
v -0.07182401 0.46106148 0.15123065
v -0.09500200 0.44085798 0.16079724
v -0.09500200 0.24558425 -0.20856409
v -0.00210815 0.28281182 -0.20214081
v -0.09500200 0.25500181 -0.21102408
v -0.00210815 0.48999840 0.10171217
v -0.04499972 0.46564955 0.15496618
v -0.06444050 0.46255058 0.15323508
v -0.06499518 0.46488488 0.14494404
v -0.07848915 0.45856625 0.14831512
v -0.07509748 0.46194690 0.14498958
v -0.08107156 0.46073952 0.14161851
v -0.09500200 0.45896870 0.11742871
v -0.00210815 0.28498513 -0.20236859
v -0.09500200 0.26502308 -0.21220851
v -0.00210815 0.49003863 0.09993552
v -0.04499972 0.48384073 0.05497257
v -0.05499290 0.48211014 0.05497257
v -0.06234912 0.48046008 0.05497257
v -0.06735026 0.47921246 0.05497257
v -0.09500200 0.47345728 0.04495043
v -0.04095335 0.48021859 0.10070997
v -0.08019863 0.47003636 0.10011775
v -0.09500200 0.46363723 0.10494660
v -0.09500200 0.46090049 0.11241765
v -0.00210815 0.29496613 -0.20245969
v -0.09500200 0.27504435 -0.21207184
v -0.09499291 0.27504435 -0.21207184
v -0.00210815 0.30204943 -0.20236859
v -0.00210815 0.49003863 0.09756666
v -0.04196267 0.48021859 -0.06178533
v -0.05499290 0.48194918 0.04495043
v -0.06444960 0.48009786 0.04495043
v -0.07499745 0.47800505 0.04495043
v -0.08499064 0.47583178 0.04495043
v -0.09500200 0.47172669 -0.06497419
v -0.09500200 0.30498740 -0.21152517
v -0.09499291 0.30498740 -0.21152517
v -0.00210815 0.32494941 -0.20204970
v -0.00210815 0.48762387 0.05497257
v -0.03500654 0.48041981 -0.06296977
v -0.03500654 0.47864902 -0.07495078
v -0.04499972 0.47796482 -0.07495078
v -0.04517249 0.47933316 -0.06506530
v -0.05499290 0.47796482 -0.06492864
v -0.06499518 0.47643548 -0.06497419
v -0.09500200 0.47076076 -0.07513300
v -0.09500200 0.31496841 -0.21111518
v -0.09499291 0.31496841 -0.21111518
v -0.08620909 0.31496841 -0.21034074
v -0.03500654 0.32494941 -0.20505634
v -0.00210815 0.33207297 -0.20136638
v -0.08776399 0.32080409 -0.21015853
v -0.00210815 0.48058081 -0.06433642
v -0.00500881 0.48058081 -0.06424531
v -0.00210815 0.48041981 -0.06574863
v -0.00500881 0.47985637 -0.06921082
v -0.01501108 0.47885025 -0.07495078
v -0.03500654 0.47655621 -0.08497291
v -0.04499972 0.47595251 -0.08497291
v -0.05499290 0.47462440 -0.08497291
v -0.05499290 0.47659647 -0.07495078
v -0.06444960 0.47522807 -0.07495078
v -0.08499064 0.47224987 -0.07495078
v -0.09160123 0.47019732 -0.08123739
v -0.09496563 0.46898997 -0.08469958
v -0.09500200 0.46898997 -0.08465403
v -0.09500200 0.32132727 -0.21034074
v -0.09499291 0.32132727 -0.21034074
v -0.04499972 0.32494941 -0.20596744
v -0.00500881 0.33493042 -0.20132081
v -0.00210815 0.33501092 -0.20104748
v -0.06444960 0.33493042 -0.20523857
v -0.05499290 0.33493042 -0.20478301
v -0.04499972 0.33493042 -0.20423634
v -0.03500654 0.33493042 -0.20359857
v -0.02500427 0.33493042 -0.20286970
v -0.01501108 0.33493042 -0.20214081
v -0.00210815 0.47897097 -0.07495078
v -0.03500654 0.47265235 -0.09494949
v -0.04441777 0.47188765 -0.09558727
v -0.02500427 0.47655621 -0.08497291
v -0.05499290 0.47168642 -0.09340062
v -0.06444960 0.47104251 -0.09217063
v -0.08012589 0.46999609 -0.08998398
v -0.06444960 0.47329628 -0.08497291
v -0.08407225 0.47055954 -0.08469958
v -0.08679105 0.46951315 -0.08784289
v -0.09500200 0.46552879 -0.09494949
v -0.09500200 0.32631779 -0.20883742
v -0.09499291 0.32631779 -0.20883742
v -0.08499064 0.33493042 -0.20601299
v -0.07499745 0.33493042 -0.20569411
v -0.00210815 0.34024292 -0.20004527
v -0.06444050 0.35042515 -0.20013638
v -0.05548393 0.34575662 -0.20127526
v -0.02500427 0.34273815 -0.20086527
v -0.01501108 0.34177226 -0.20054638
v -0.00500881 0.34056488 -0.20018195
v -0.00210815 0.47643548 -0.08497291
v -0.00500881 0.47647572 -0.08497291
v -0.00500881 0.47237062 -0.09440283
v -0.03500654 0.47003636 -0.10014278
v -0.04068965 0.47003636 -0.10014278
v -0.07499745 0.46339577 -0.10497163
v -0.06444050 0.46862775 -0.09718170
v -0.06444050 0.47092175 -0.09244396
v -0.09500200 0.46158469 -0.10333165
v -0.09500200 0.34495169 -0.20291525
v -0.09499291 0.34495169 -0.20291525
v -0.09499291 0.35706574 -0.19904307
v -0.08499064 0.35670352 -0.19890639
v -0.00210815 0.34507245 -0.19845085
v -0.07499745 0.36495396 -0.19576308
v -0.04499972 0.37924132 -0.18974981
v -0.03500654 0.37859738 -0.18952203
v -0.03500654 0.36495396 -0.19403198
v -0.02500427 0.34772867 -0.19922528
v -0.01501108 0.34676278 -0.19890639
v -0.01501108 0.37678629 -0.18892981
v -0.00210815 0.37509596 -0.18847425
v -0.00210815 0.47233039 -0.09435727
v -0.02548619 0.46790332 -0.10396942
v -0.03500654 0.46750087 -0.10510829
v -0.03500654 0.46251035 -0.11453822
v -0.04499972 0.46222863 -0.11412822
v -0.04441777 0.46758133 -0.10406053
v -0.06499518 0.46102124 -0.11203268
v -0.06444960 0.46468365 -0.10497163
v -0.08744574 0.45965287 -0.10934493
v -0.09500200 0.45916992 -0.10829715
v -0.09500200 0.35706574 -0.19904307
v -0.09499291 0.36495396 -0.19644642
v -0.08499064 0.36495396 -0.19612753
v -0.05871193 0.38008648 -0.19002314
v -0.05203769 0.37968403 -0.18988647
v -0.02500427 0.38495624 -0.18605983
v -0.01501108 0.38495624 -0.18546762
v -0.02500427 0.37783271 -0.18924870
v -0.00500881 0.38495624 -0.18469319
v -0.00210815 0.38495624 -0.18446541
v -0.00210815 0.46685690 -0.10497163
v -0.00500881 0.46693742 -0.10497163
v -0.02500427 0.46242985 -0.11435600
v -0.03500654 0.45969313 -0.11954929
v -0.04499972 0.45945165 -0.11913928
v -0.05499290 0.45888820 -0.11818263
v -0.05499290 0.46162492 -0.11312601
v -0.09500200 0.45578927 -0.11494821
v -0.09500200 0.36495396 -0.19644642
v -0.09499291 0.37477401 -0.19239201
v -0.06444050 0.37988526 -0.19015980
v -0.06444050 0.38008648 -0.19006869
v -0.02500427 0.39256275 -0.18177766
v -0.01501108 0.39220053 -0.18150432
v -0.00500881 0.39167732 -0.18113987
v -0.00210815 0.38970527 -0.18195987
v -0.00210815 0.46214813 -0.11371823
v -0.01501108 0.46230912 -0.11408266
v -0.02500427 0.45957237 -0.11936706
v -0.02500427 0.43723583 -0.14660905
v -0.03500654 0.44138119 -0.14168911
v -0.04499972 0.45478311 -0.12492479
v -0.09500200 0.42970985 -0.14966126
v -0.08499064 0.44822299 -0.12788588
v -0.09500200 0.44769979 -0.12720256
v -0.09500200 0.45160365 -0.12223704
v -0.09500200 0.37477401 -0.19239201
v -0.07499745 0.38012671 -0.19002314
v -0.03500654 0.39260298 -0.18182321
v -0.03500654 0.40978804 -0.16984220
v -0.03500654 0.42194235 -0.16132338
v -0.02500427 0.42178136 -0.16123226
v -0.01501108 0.39719105 -0.17804213
v -0.00210815 0.39650685 -0.17758657
v -0.00210815 0.39147609 -0.18100321
v -0.00210815 0.45912969 -0.11868374
v -0.03500654 0.43723583 -0.14670017
v -0.00210815 0.43655166 -0.14578907
v -0.00500881 0.43164164 -0.15171124
v -0.02500427 0.43224531 -0.15239456
v -0.04499972 0.44105923 -0.14127910
v -0.09500200 0.42540351 -0.15494566
v -0.09500200 0.37976450 -0.18979536
v -0.08889152 0.37992549 -0.18993202
v -0.09500200 0.39183831 -0.18132210
v -0.05499290 0.42153990 -0.16109560
v -0.03500654 0.42693287 -0.15745118
v -0.02500427 0.42677188 -0.15740563
v -0.00500881 0.42085570 -0.16054894
v -0.00210815 0.41912514 -0.16159672
v -0.00210815 0.40721232 -0.17006998
v -0.03500654 0.43224531 -0.15248567
v -0.04499972 0.43184286 -0.15216678
v -0.04499972 0.43687361 -0.14624462
v -0.00210815 0.43510282 -0.14747460
v -0.00210815 0.43152091 -0.15162012
v -0.05499290 0.43140018 -0.15175679
v -0.09500200 0.42061424 -0.16059449
v -0.09500200 0.41493952 -0.16469446
v -0.06444960 0.42129841 -0.16100450
v -0.04499972 0.42677188 -0.15717785
v -0.00210815 0.42572546 -0.15658563
v -0.00210815 0.42069471 -0.16045783
f 1 2 3
f 1 3 4
f 1 4 5
f 1 5 9
f 1 9 14
f 1 14 22
f 1 22 28
f 1 28 32
f 1 32 31
f 1 31 38
f 1 38 48
f 1 48 57
f 1 57 56
f 1 56 76
f 1 76 75
f 1 75 74
f 1 74 84
f 1 84 95
f 1 95 110
f 1 110 109
f 1 109 108
f 1 108 107
f 1 107 116
f 1 116 124
f 1 124 133
f 1 133 132
f 1 132 141
f 1 141 152
f 1 152 164
f 1 164 163
f 1 163 160
f 1 160 175
f 1 175 186
f 1 186 206
f 1 206 228
f 1 228 247
f 1 247 270
f 1 270 288
f 1 288 306
f 1 306 305
f 1 305 303
f 1 303 322
f 1 322 338
f 1 338 339
f 1 339 325
f 1 325 323
f 1 323 307
f 1 307 289
f 1 289 271
f 1 271 248
f 1 248 229
f 1 229 207
f 1 207 187
f 1 187 176
f 1 176 166
f 1 166 154
f 1 154 144
f 1 144 142
f 1 142 134
f 1 134 126
f 1 126 117
f 1 117 111
f 1 111 98
f 1 98 97
f 1 97 96
f 1 96 85
f 1 85 77
f 1 77 64
f 1 64 63
f 1 63 62
f 1 62 61
f 1 61 50
f 1 50 41
f 1 41 36
f 1 36 27
f 1 27 25
f 1 25 20
f 1 20 19
f 1 19 18
f 1 18 17
f 1 17 16
f 1 16 15
f 1 15 10
f 1 10 6
f 1 6 2
f 2 6 3
f 3 6 7
f 3 7 11
f 3 11 21
f 3 21 26
f 3 26 33
f 3 33 35
f 3 35 34
f 3 34 40
f 3 40 45
f 3 45 44
f 3 44 43
f 3 43 42
f 3 42 51
f 3 51 65
f 3 65 78
f 3 78 86
f 3 86 99
f 3 99 112
f 3 112 118
f 3 118 125
f 3 125 127
f 3 127 135
f 3 135 143
f 3 143 153
f 3 153 165
f 3 165 168
f 3 168 178
f 3 178 191
f 3 191 211
f 3 211 233
f 3 233 252
f 3 252 260
f 3 260 280
f 3 280 296
f 3 296 315
f 3 315 314
f 3 314 331
f 3 331 330
f 3 330 343
f 3 343 342
f 3 342 336
f 3 336 335
f 3 335 318
f 3 318 316
f 3 316 297
f 3 297 281
f 3 281 261
f 3 261 239
f 3 239 218
f 3 218 195
f 3 195 193
f 3 193 179
f 3 179 169
f 3 169 155
f 3 155 145
f 3 145 137
f 3 137 136
f 3 136 130
f 3 130 120
f 3 120 114
f 3 114 113
f 3 113 100
f 3 100 88
f 3 88 79
f 3 79 68
f 3 68 67
f 3 67 73
f 3 73 72
f 3 72 71
f 3 71 66
f 3 66 52
f 3 52 46
f 3 46 37
f 3 37 30
f 3 30 29
f 3 29 23
f 3 23 13
f 3 13 12
f 3 12 8
f 3 8 4
f 4 8 9
f 4 9 5
f 6 10 7
f 7 10 11
f 8 12 9
f 9 12 13
f 9 13 14
f 10 15 11
f 11 15 16
f 11 16 17
f 11 17 18
f 11 18 19
f 11 19 20
f 11 20 21
f 13 22 14
f 13 23 24
f 13 24 22
f 20 25 21
f 21 25 27
f 21 27 26
f 22 24 28
f 23 29 24
f 24 29 30
f 24 30 31
f 24 31 32
f 24 32 28
f 26 27 33
f 27 34 35
f 27 35 33
f 27 36 34
f 30 37 31
f 31 37 39
f 31 39 38
f 34 36 40
f 36 41 42
f 36 42 43
f 36 43 44
f 36 44 45
f 36 45 40
f 37 46 47
f 37 47 39
f 38 39 49
f 38 49 48
f 39 47 49
f 41 50 51
f 41 51 42
f 46 52 53
f 46 53 47
f 47 53 54
f 47 54 55
f 47 55 56
f 47 56 57
f 47 57 58
f 47 58 59
f 47 59 49
f 48 49 60
f 48 60 58
f 48 58 57
f 49 59 60
f 50 61 51
f 51 61 62
f 51 62 63
f 51 63 64
f 51 64 65
f 52 66 53
f 53 67 68
f 53 68 69
f 53 69 70
f 53 70 54
f 53 66 71
f 53 71 72
f 53 72 73
f 53 73 67
f 54 70 55
f 55 70 74
f 55 74 75
f 55 75 76
f 55 76 56
f 58 60 59
f 64 77 65
f 65 77 78
f 68 79 69
f 69 80 81
f 69 81 70
f 69 79 80
f 70 81 82
f 70 82 74
f 74 82 83
f 74 83 84
f 77 85 86
f 77 86 78
f 79 87 80
f 79 88 87
f 80 87 89
f 80 89 81
f 81 89 90
f 81 90 91
f 81 91 92
f 81 92 93
f 81 93 94
f 81 94 84
f 81 84 82
f 82 84 83
f 84 94 95
f 85 96 86
f 86 96 97
f 86 97 98
f 86 98 99
f 87 88 89
f 88 90 89
f 88 100 90
f 90 100 101
f 90 101 102
f 90 102 103
f 90 103 91
f 91 103 104
f 91 104 105
f 91 105 92
f 92 106 93
f 92 105 106
f 93 106 94
f 94 105 107
f 94 107 108
f 94 108 109
f 94 109 110
f 94 110 95
f 94 106 105
f 98 111 112
f 98 112 99
f 100 113 101
f 101 113 102
f 102 113 114
f 102 114 115
f 102 115 103
f 103 115 104
f 104 115 105
f 105 115 107
f 107 115 116
f 111 117 118
f 111 118 112
f 114 119 115
f 114 120 121
f 114 121 119
f 115 119 122
f 115 122 123
f 115 123 116
f 116 123 124
f 117 125 118
f 117 126 127
f 117 127 125
f 119 121 128
f 119 128 129
f 119 129 122
f 120 130 121
f 121 130 128
f 122 129 131
f 122 131 123
f 123 131 132
f 123 132 133
f 123 133 124
f 126 134 127
f 127 134 135
f 128 130 136
f 128 136 137
f 128 137 138
f 128 138 129
f 129 138 131
f 131 138 139
f 131 139 140
f 131 140 132
f 132 140 141
f 134 142 135
f 135 142 144
f 135 144 143
f 137 145 146
f 137 146 147
f 137 147 138
f 138 147 139
f 139 147 148
f 139 148 140
f 140 149 141
f 140 148 150
f 140 150 151
f 140 151 149
f 141 149 151
f 141 151 152
f 143 144 154
f 143 154 153
f 145 155 156
f 145 156 157
f 145 157 158
f 145 158 159
f 145 159 160
f 145 160 161
f 145 161 148
f 145 148 147
f 145 147 146
f 148 161 162
f 148 162 150
f 150 162 151
f 151 162 163
f 151 163 164
f 151 164 152
f 153 154 165
f 154 166 167
f 154 167 168
f 154 168 165
f 155 169 156
f 156 169 170
f 156 170 171
f 156 171 157
f 157 171 172
f 157 172 173
f 157 173 174
f 157 174 158
f 158 174 160
f 158 160 159
f 160 163 162
f 160 162 161
f 160 174 175
f 166 176 177
f 166 177 167
f 167 177 178
f 167 178 168
f 169 179 180
f 169 180 170
f 170 180 181
f 170 181 182
f 170 182 183
f 170 183 184
f 170 184 185
f 170 185 175
f 170 175 171
f 171 175 172
f 172 175 173
f 173 175 174
f 175 185 186
f 176 187 188
f 176 188 177
f 177 188 189
f 177 189 178
f 178 190 191
f 178 189 192
f 178 192 190
f 179 193 194
f 179 194 180
f 180 194 195
f 180 195 181
f 181 195 196
f 181 196 197
f 181 197 198
f 181 198 199
f 181 199 182
f 182 199 200
f 182 200 201
f 182 201 183
f 183 201 184
f 184 201 202
f 184 202 203
f 184 203 186
f 184 186 185
f 186 203 204
f 186 204 205
f 186 205 206
f 187 207 208
f 187 208 188
f 188 208 192
f 188 192 189
f 190 209 191
f 190 192 209
f 191 210 211
f 191 209 210
f 192 208 212
f 192 212 213
f 192 213 214
f 192 214 215
f 192 215 216
f 192 216 217
f 192 217 210
f 192 210 209
f 193 195 194
f 195 218 196
f 196 218 197
f 197 218 198
f 198 219 220
f 198 220 199
f 198 218 221
f 198 221 219
f 199 220 222
f 199 222 223
f 199 223 224
f 199 224 200
f 200 225 201
f 200 224 225
f 201 204 202
f 201 225 204
f 202 204 203
f 204 225 226
f 204 226 227
f 204 227 205
f 205 227 228
f 205 228 206
f 207 229 230
f 207 230 208
f 208 230 231
f 208 231 232
f 208 232 212
f 210 217 233
f 210 233 211
f 212 232 234
f 212 234 235
f 212 235 236
f 212 236 213
f 213 236 214
f 214 236 237
f 214 237 215
f 215 237 238
f 215 238 233
f 215 233 216
f 216 233 217
f 218 239 240
f 218 240 221
f 219 241 242
f 219 242 243
f 219 243 220
f 219 221 240
f 219 240 239
f 219 239 241
f 220 243 244
f 220 244 245
f 220 245 222
f 222 246 223
f 222 245 246
f 223 246 224
f 224 227 225
f 224 246 247
f 224 247 228
f 224 228 227
f 225 227 226
f 229 248 249
f 229 249 230
f 230 249 231
f 231 249 250
f 231 250 251
f 231 251 232
f 232 251 234
f 233 238 252
f 234 251 253
f 234 253 254
f 234 254 255
f 234 255 256
f 234 256 235
f 235 256 236
f 236 256 257
f 236 257 258
f 236 258 237
f 237 258 238
f 238 258 259
f 238 259 260
f 238 260 252
f 239 261 241
f 241 261 262
f 241 262 242
f 242 262 263
f 242 263 243
f 243 263 264
f 243 264 265
f 243 265 266
f 243 266 267
f 243 267 268
f 243 268 244
f 244 268 269
f 244 269 245
f 245 247 246
f 245 269 270
f 245 270 247
f 248 271 250
f 248 250 249
f 250 271 289
f 250 289 272
f 250 272 251
f 251 272 273
f 251 273 253
f 253 273 274
f 253 274 254
f 254 274 275
f 254 275 276
f 254 276 255
f 255 276 277
f 255 277 278
f 255 278 257
f 255 257 256
f 257 278 258
f 258 278 259
f 259 278 277
f 259 277 279
f 259 279 280
f 259 280 260
f 261 281 282
f 261 282 262
f 262 282 283
f 262 283 263
f 263 283 264
f 264 284 285
f 264 285 265
f 264 283 284
f 265 285 286
f 265 286 287
f 265 287 266
f 266 287 267
f 267 269 268
f 267 287 286
f 267 286 288
f 267 288 269
f 269 288 270
f 272 289 307
f 272 307 290
f 272 290 291
f 272 291 274
f 272 274 273
f 274 276 275
f 274 291 292
f 274 292 293
f 274 293 276
f 276 293 294
f 276 294 277
f 277 294 295
f 277 295 296
f 277 296 279
f 279 296 280
f 281 297 282
f 282 297 298
f 282 298 283
f 283 298 299
f 283 299 284
f 284 300 301
f 284 301 302
f 284 302 285
f 284 299 300
f 285 302 303
f 285 303 304
f 285 304 305
f 285 305 306
f 285 306 286
f 286 306 288
f 290 307 291
f 291 307 308
f 291 308 292
f 292 308 309
f 292 309 293
f 293 309 310
f 293 310 311
f 293 311 312
f 293 312 313
f 293 313 294
f 294 313 314
f 294 314 295
f 295 314 315
f 295 315 296
f 297 316 299
f 297 299 298
f 299 316 300
f 300 317 301
f 300 316 318
f 300 318 319
f 300 319 320
f 300 320 332
f 300 332 317
f 301 317 302
f 302 317 321
f 302 321 322
f 302 322 303
f 303 305 304
f 307 323 324
f 307 324 308
f 308 324 311
f 308 311 310
f 308 310 309
f 311 324 325
f 311 325 326
f 311 326 327
f 311 327 328
f 311 328 312
f 312 328 329
f 312 329 330
f 312 330 331
f 312 331 313
f 313 331 314
f 317 332 333
f 317 333 334
f 317 334 321
f 318 335 319
f 319 336 328
f 319 328 320
f 319 335 336
f 320 328 327
f 320 327 332
f 321 334 322
f 322 337 338
f 322 334 337
f 323 325 324
f 325 339 340
f 325 340 326
f 326 340 327
f 327 340 338
f 327 338 341
f 327 341 332
f 328 342 329
f 328 336 342
f 329 343 330
f 329 342 343
f 332 341 338
f 332 338 333
f 333 338 337
f 333 337 334
f 338 340 339

