# https://github.com/mikedh/trimesh
v 0.49776930 -0.07579757 0.01499850
v 0.49760225 -0.07579757 0.02498381
v 0.49676716 -0.08503290 0.02498381
v 0.49584854 -0.09503445 0.02498381
v 0.49488813 -0.10503601 0.02498381
v 0.49480462 -0.10503601 0.01499850
v 0.49426180 -0.09503445 -0.07496528
v 0.49522218 -0.08503290 -0.07496528
v 0.49609905 -0.07579757 -0.07496528
v 0.49655837 -0.07579757 0.03496912
v 0.49438709 -0.09503445 0.03496912
v 0.49321792 -0.10503601 0.03496912
v 0.49129716 -0.11455363 0.03463307
v 0.49275860 -0.11503758 0.02498381
v 0.49267510 -0.11503758 0.01499850
v 0.49288386 -0.10503601 -0.07496528
v 0.49405304 -0.09503445 -0.08499859
v 0.49484640 -0.08503290 -0.08499859
v 0.49559799 -0.07579757 -0.08423048
v 0.49355197 -0.07579757 0.04505044
v 0.49025327 -0.11092402 0.04077788
v 0.46265283 -0.07579757 0.14312729
v 0.45672354 -0.13500036 0.13496619
v 0.49037856 -0.12116756 0.03112862
v 0.49054557 -0.12149020 0.02498381
v 0.49046206 -0.12120789 0.01499850
v 0.48273727 -0.13500036 -0.08499859
v 0.48904234 -0.11733632 -0.08499859
v 0.49100488 -0.11261784 -0.07496528
v 0.49263334 -0.10503601 -0.08499859
v 0.49100488 -0.10422944 -0.09479187
v 0.49217403 -0.09503445 -0.09498389
v 0.49555624 -0.07579757 -0.08499859
v 0.46240228 -0.07579757 0.14346331
v 0.45062721 -0.09878504 0.16088960
v 0.45062721 -0.10168871 0.16088960
v 0.45300728 -0.13500036 0.14317527
v 0.42018741 -0.22053792 0.16242582
v 0.46014750 -0.20037347 0.03050454
v 0.46081561 -0.20182532 0.02498381
v 0.46340442 -0.19500974 0.02498381
v 0.46081561 -0.20186564 0.01499850
v 0.46983480 -0.16964287 -0.09498389
v 0.49079609 -0.11233553 -0.08499859
v 0.49046206 -0.11136764 -0.09138342
v 0.48929289 -0.10705246 -0.09805629
v 0.49004447 -0.10035786 -0.10021657
v 0.49025327 -0.09503445 -0.10079265
v 0.49284214 -0.08503290 -0.09498389
v 0.49342668 -0.07579757 -0.09498389
v 0.43275583 -0.07579757 0.18215638
v 0.42073023 -0.11846553 0.20044678
v 0.42073023 -0.12080461 0.20044678
v 0.44365406 -0.12503913 0.16314590
v 0.44240138 -0.13290326 0.16204175
v 0.41876772 -0.21501285 0.16732246
v 0.41246262 -0.22501442 0.17183504
v 0.41630414 -0.22432883 0.16545019
v 0.40135562 -0.25187343 0.16112962
v 0.40244129 -0.25514010 0.15436074
v 0.40064579 -0.29111344 0.08225531
v 0.40164793 -0.29268628 0.07495835
v 0.40807828 -0.27659506 0.08499166
v 0.45826849 -0.20682609 0.02498381
v 0.45843554 -0.20686641 0.01499850
v 0.45881131 -0.19686487 -0.10496920
v 0.46774703 -0.17500661 -0.09498389
v 0.46073207 -0.19186407 -0.10496920
v 0.47158852 -0.16464210 -0.09498389
v 0.46311215 -0.18500817 -0.10496920
v 0.47092044 -0.16298860 -0.10290493
v 0.47225660 -0.15576974 -0.10573730
v 0.48069125 -0.13229834 -0.10189680
v 0.48169339 -0.12487783 -0.10511322
v 0.48457450 -0.11503758 -0.10496920
v 0.48774794 -0.10422944 -0.10410509
v 0.48854131 -0.09503445 -0.10578531
v 0.48912588 -0.07579757 -0.10751353
v 0.43225476 -0.07579757 0.18258846
v 0.38999814 -0.09995458 0.21998534
v 0.38999814 -0.10019654 0.21998534
v 0.37538368 -0.13403247 0.22171357
v 0.38306668 -0.19500974 0.20323116
v 0.34135288 -0.29260561 0.19127759
v 0.33930683 -0.29925987 0.18930933
v 0.40031174 -0.26022154 0.15061626
v 0.39968541 -0.28945997 0.08892819
v 0.39718008 -0.29466239 0.08532771
v 0.39818221 -0.29768705 0.07495835
v 0.41041660 -0.28070858 0.01250218
v 0.45050198 -0.22082022 0.02147935
v 0.45050198 -0.22082022 0.01759084
v 0.43246353 -0.24433196 -0.10496920
v 0.44357052 -0.22501442 -0.10496920
v 0.45108652 -0.21190754 -0.10496920
v 0.45492804 -0.20501129 -0.10496920
v 0.45054370 -0.21102029 -0.11145005
v 0.45233920 -0.20525327 -0.11485849
v 0.45743340 -0.19416283 -0.11413840
v 0.46006399 -0.19025093 -0.11020189
v 0.46073207 -0.18412094 -0.11413840
v 0.46983480 -0.15960097 -0.10957780
v 0.46002221 -0.18020904 -0.12013919
v 0.47087866 -0.15290639 -0.11231416
v 0.46958426 -0.14863153 -0.11898704
v 0.47943857 -0.12814446 -0.10856967
v 0.48039895 -0.12149020 -0.11092198
v 0.48131758 -0.11503758 -0.11274622
v 0.48244497 -0.10527799 -0.11562660
v 0.48449099 -0.09503445 -0.11495451
v 0.48507559 -0.08503290 -0.11495451
v 0.48553491 -0.07579757 -0.11495451
v 0.40427852 -0.07579757 0.20299113
v 0.39613619 -0.07579757 0.20841584
v 0.39100027 -0.07579757 0.21148822
v 0.38494569 -0.07579757 0.21480066
v 0.38423586 -0.07579757 0.21513671
v 0.37851533 -0.08160493 0.21960130
v 0.38127121 -0.08825921 0.22036940
v 0.35496518 -0.07579757 0.22579411
v 0.35404655 -0.07579757 0.22603413
v 0.34665582 -0.07579757 0.22790638
v 0.34398347 -0.07599922 0.22857848
v 0.33997494 -0.08003211 0.22997063
v 0.36498654 -0.11503758 0.22718629
v 0.36498654 -0.12503913 0.22589010
v 0.32014102 -0.18037036 0.23006666
v 0.30561009 -0.24542083 0.22233763
v 0.37229377 -0.14153364 0.22118551
v 0.37496611 -0.19500974 0.20663959
v 0.31174815 -0.24235584 0.22075343
v 0.33559060 -0.29554963 0.19329384
v 0.34151989 -0.30143765 0.18263644
v 0.33266771 -0.30139732 0.19132558
v 0.24878074 -0.38907230 0.13928679
v 0.25237173 -0.39165333 0.13261390
v 0.38060310 -0.30046976 0.12070834
v 0.39062446 -0.30063105 0.09108847
v 0.39171010 -0.30163929 0.08499166
v 0.39321330 -0.30305079 0.07495835
v 0.36005938 -0.34007269 0.06026843
v 0.34774148 -0.35745445 -0.10496920
v 0.35208404 -0.35245365 -0.10496920
v 0.38006029 -0.32006958 -0.10928977
v 0.40239954 -0.29284757 -0.10496920
v 0.40736845 -0.28627399 -0.10496920
v 0.41083413 -0.28135386 -0.11317828
v 0.44023007 -0.23045881 -0.11063394
v 0.42937362 -0.23888755 -0.12815624
v 0.43960375 -0.21928772 -0.12897235
v 0.44929105 -0.20872155 -0.11812292
v 0.40908042 -0.27836952 -0.12498782
v 0.41062540 -0.27123132 -0.13156468
v 0.45108652 -0.20206729 -0.12277953
v 0.45897835 -0.18690363 -0.11687476
v 0.45267326 -0.19569533 -0.12565991
v 0.45709932 -0.18412094 -0.12407570
v 0.46081561 -0.17500661 -0.12167539
v 0.47050288 -0.14193693 -0.12085928
v 0.45100302 -0.19279164 -0.13161269
v 0.47889575 -0.11503758 -0.11778688
v 0.47968912 -0.10878660 -0.11941909
v 0.48048246 -0.10209200 -0.12081128
v 0.48094177 -0.09503445 -0.12153137
v 0.48123407 -0.08503290 -0.12205943
v 0.48140109 -0.07579757 -0.12239548
v 0.34423399 -0.07579757 0.22848246
v 0.34398347 -0.07579757 0.22853047
v 0.32686368 -0.07579757 0.23160285
v 0.31496334 -0.12503913 0.23275501
v 0.30498376 -0.12503913 0.23366714
v 0.30176857 -0.18500817 0.23088276
v 0.26331168 -0.20674545 0.23198691
v 0.26260185 -0.21501285 0.23155487
v 0.30268720 -0.25155082 0.22161755
v 0.32498467 -0.29498503 0.19627023
v 0.25541988 -0.39338747 0.12498090
v 0.32185301 -0.35136479 0.11240326
v 0.32845038 -0.35886595 0.08777604
v 0.32845038 -0.36886752 0.06775741
v 0.20063657 -0.37060165 0.18018812
v 0.20502089 -0.38128883 0.17149898
v 0.23015775 -0.38007894 0.16007349
v 0.23500140 -0.38846734 0.14807191
v 0.24209985 -0.39068544 0.14144707
v 0.19984320 -0.41972223 0.12954149
v 0.33057994 -0.37044033 0.06108454
v 0.34055951 -0.36060011 0.06132457
v 0.35033032 -0.35035658 0.06098852
v 0.34273079 -0.36249554 -0.10496920
v 0.34256378 -0.36237457 -0.11495451
v 0.34757444 -0.35721248 -0.11495451
v 0.38006029 -0.32006958 -0.11029790
v 0.33078870 -0.37064201 0.05498774
v 0.40223250 -0.29260561 -0.11495451
v 0.40774423 -0.28478181 -0.11591464
v 0.40995729 -0.27994233 -0.11985115
v 0.41325599 -0.27599013 -0.11591464
v 0.40728492 -0.27473992 -0.13492513
v 0.40916392 -0.26840830 -0.13818955
v 0.44975036 -0.19944590 -0.12945241
v 0.40223250 -0.28312832 -0.13497314
v 0.47142151 -0.13500036 -0.12229947
v 0.45213044 -0.18500817 -0.13343692
v 0.44766259 -0.19569533 -0.13497314
v 0.43997955 -0.18996862 -0.14995110
v 0.44382107 -0.18601640 -0.14596656
v 0.44899875 -0.18500817 -0.13842958
v 0.44757909 -0.17545024 -0.14452639
v 0.44929105 -0.15726191 -0.14889497
v 0.46883267 -0.10503601 -0.13814154
v 0.46962601 -0.09777682 -0.13938969
v 0.47016883 -0.09112255 -0.14025381
v 0.47826940 -0.08503290 -0.12710010
v 0.47847819 -0.07579757 -0.12738813
v 0.32506818 -0.07579757 0.23179489
v 0.31500509 -0.07579757 0.23232296
v 0.29496241 -0.12503913 0.23409918
v 0.25500232 -0.20513228 0.23189089
v 0.25592095 -0.21448858 0.23155487
v 0.13503854 -0.33499128 0.19699034
v 0.12217781 -0.35233268 0.19118157
v 0.24418762 -0.41665724 0.08412755
v 0.25074327 -0.41044658 0.09080043
v 0.25274754 -0.41177744 0.08499166
v 0.28013918 -0.40008205 0.07015772
v 0.31024495 -0.38015962 0.07034975
v 0.10501628 -0.39250022 0.17111495
v 0.19504130 -0.37548146 0.17778781
v 0.19504130 -0.38233736 0.17279515
v 0.20907119 -0.39959812 0.14927208
v 0.19316231 -0.42097241 0.13131773
v 0.15967433 -0.44992855 0.07971098
v 0.18907025 -0.43964469 0.07855882
v 0.24026260 -0.42008519 0.08023904
v 0.26230955 -0.41133383 0.06497305
v 0.32498467 -0.37423125 0.05498774
v 0.26352045 -0.42214197 -0.10496920
v 0.33659273 -0.36749634 -0.10496920
v 0.33655098 -0.36737534 -0.11495451
v 0.33091396 -0.37068230 -0.12172339
v 0.34114408 -0.36108404 -0.12498782
v 0.35099840 -0.35120347 -0.12239548
v 0.35187528 -0.35221168 -0.11495451
v 0.36987191 -0.32986951 -0.11946710
v 0.26853114 -0.41891566 -0.10496920
v 0.28026444 -0.41016430 -0.09940047
v 0.40102160 -0.29119411 -0.12263551
v 0.40390274 -0.28579003 -0.12556389
v 0.40081280 -0.28119254 -0.14121395
v 0.41083413 -0.26171368 -0.14126197
v 0.42085549 -0.24175090 -0.14126197
v 0.43083507 -0.22174779 -0.14121395
v 0.43914443 -0.20827794 -0.13876563
v 0.44073117 -0.20162368 -0.14102191
v 0.39847451 -0.28812912 -0.13497314
v 0.39972717 -0.28966162 -0.12930839
v 0.43876863 -0.19500974 -0.14827088
v 0.43012524 -0.21029438 -0.15014312
v 0.40962327 -0.23925051 -0.15945634
v 0.41943580 -0.21896508 -0.15926430
v 0.42774516 -0.20501129 -0.15691200
v 0.42924836 -0.19835703 -0.15907228
v 0.43070981 -0.19170277 -0.16065648
v 0.43755773 -0.18601640 -0.15489572
v 0.44102344 -0.18331435 -0.15153530
v 0.44210911 -0.17500661 -0.15302348
v 0.45012617 -0.15056731 -0.15014312
v 0.45810148 -0.12503913 -0.14716673
v 0.45922887 -0.11503758 -0.14894295
v 0.45981345 -0.10923022 -0.14975905
v 0.46666136 -0.09467149 -0.14414233
v 0.46110788 -0.09503445 -0.15115124
v 0.46653610 -0.08503290 -0.14553452
v 0.47033584 -0.08503290 -0.14054185
v 0.47363454 -0.08503290 -0.13497314
v 0.47401035 -0.07579757 -0.13497314
v 0.31425351 -0.07579757 0.23227495
v 0.28498283 -0.12503913 0.23342711
v 0.27851072 -0.10761707 0.23069075
v 0.07119425 -0.32478806 0.19127759
v 0.07119425 -0.33499128 0.19199768
v 0.07503577 -0.33499128 0.19257376
v 0.07119425 -0.33805627 0.19166163
v 0.07119425 -0.34104058 0.19089353
v 0.11729242 -0.35233268 0.19118157
v 0.24711052 -0.41863334 0.07495835
v 0.25959542 -0.40968034 0.07927892
v 0.25575393 -0.41351157 0.07558244
v 0.26168323 -0.41097087 0.07260604
v 0.26502365 -0.40766388 0.07558244
v 0.07904430 -0.39100808 0.17063487
v 0.09503669 -0.40496185 0.16444206
v 0.09503669 -0.41129351 0.16103363
v 0.11503761 -0.43202254 0.13227785
v 0.08501534 -0.46166426 0.08307142
v 0.13315953 -0.45053351 0.09084843
v 0.13979867 -0.44992855 0.08988830
v 0.14501812 -0.44948494 0.08854413
v 0.15579106 -0.44875902 0.08489566
v 0.12205255 -0.46037376 0.07087782
v 0.12873344 -0.45972848 0.06775741
v 0.15579106 -0.45170301 0.07582247
v 0.16230494 -0.45073515 0.07303810
v 0.16539484 -0.44900101 0.07582247
v 0.17504039 -0.44573435 0.07495835
v 0.22034520 -0.43008673 0.07049377
v 0.23500140 -0.42351314 0.07495835
v 0.24209985 -0.42081112 0.07495835
v 0.25500232 -0.41564900 0.06497305
v 0.25500232 -0.42661846 -0.10496920
v 0.25500232 -0.42661846 -0.11495451
v 0.26339519 -0.42214197 -0.11495451
v 0.24844670 -0.41927862 0.06497305
v 0.28026444 -0.41016430 -0.10496920
v 0.31997401 -0.37999830 -0.11999517
v 0.33454672 -0.36648810 -0.12503582
v 0.34669757 -0.35471207 -0.12541988
v 0.34001669 -0.36003548 -0.13007650
v 0.36043516 -0.34051633 -0.12105130
v 0.34836781 -0.34805781 -0.13497314
v 0.36995545 -0.31994858 -0.13991776
v 0.26836410 -0.41879466 -0.11495451
v 0.27500325 -0.41411650 -0.10496920
v 0.37943396 -0.30930176 -0.13857359
v 0.39158481 -0.29192004 -0.14203006
v 0.39496702 -0.28494313 -0.14495844
v 0.39166835 -0.28207979 -0.15206337
v 0.38899598 -0.27877280 -0.15873623
v 0.39137605 -0.27207822 -0.16204867
v 0.40214899 -0.27433664 -0.14471841
v 0.38887072 -0.29861462 -0.13727742
v 0.40026999 -0.27058604 -0.15038314
v 0.39830747 -0.26502067 -0.15748808
v 0.41684696 -0.24505787 -0.14476642
v 0.42219168 -0.23433039 -0.14476642
v 0.41860068 -0.23723407 -0.14793482
v 0.43659735 -0.20497096 -0.14462239
v 0.39968541 -0.25945526 -0.15955234
v 0.42022917 -0.23053947 -0.15033513
v 0.40135562 -0.25276068 -0.16176063
v 0.38887072 -0.26780334 -0.16867355
v 0.42106426 -0.21227050 -0.16113657
v 0.39045742 -0.26110876 -0.17044976
v 0.43200421 -0.18500817 -0.16200066
v 0.39179361 -0.25501910 -0.17169794
v 0.37342116 -0.24501754 -0.19330075
v 0.36945438 -0.23884723 -0.19949359
v 0.42670128 -0.18500817 -0.16699332
v 0.43839282 -0.17500661 -0.15801615
v 0.45079425 -0.14500193 -0.15100724
v 0.46048152 -0.10253562 -0.15047917
v 0.43939498 -0.16500506 -0.15931231
v 0.43993780 -0.15972197 -0.15993640
v 0.45622247 -0.09503445 -0.15614390
v 0.44190031 -0.08503290 -0.17193797
v 0.45175463 -0.08503290 -0.16180864
v 0.46152544 -0.08503290 -0.15163130
v 0.46657786 -0.07579757 -0.14577454
v 0.47050288 -0.07579757 -0.14078188
v 0.30548483 -0.07579757 0.23059472
v 0.28936717 -0.08946906 0.23030668
v 0.26773778 -0.07579757 0.22118551
v 0.21500048 -0.08503290 0.20443130
v 0.15967433 -0.16936058 0.20015875
v 0.07119425 -0.24646938 0.18206036
v 0.07119425 -0.27881312 0.18590087
v 0.07119425 -0.37519914 0.17380330
v 0.07119425 -0.39423439 0.16425005
v 0.08134086 -0.40899473 0.15906537
v 0.08802176 -0.41129351 0.16084158
v 0.08960846 -0.42004484 0.15013620
v 0.09010953 -0.42004484 0.15013620
v 0.07503577 -0.44166112 0.12210052
v 0.07119425 -0.46057540 0.08868815
v 0.07119425 -0.46239018 0.08537572
v 0.07403363 -0.46194655 0.08551974
v 0.07503577 -0.46706831 0.07495835
v 0.08501534 -0.46549553 0.07495835
v 0.07503577 -0.46960905 0.06900557
v 0.07503577 -0.47154483 0.06401292
v 0.08317810 -0.47073826 0.06209267
v 0.08981724 -0.46993166 0.05969235
v 0.15503946 -0.45392114 0.06497305
v 0.08589222 -0.47158515 0.05580384
v 0.07503577 -0.48606324 -0.01495742
v 0.16898581 -0.44960594 0.06674928
v 0.15503946 -0.46606010 -0.01495742
v 0.16501904 -0.46307576 -0.01495742
v 0.17144939 -0.46069637 -0.01495742
v 0.18226409 -0.46105933 -0.11495451
v 0.20786026 -0.44896066 -0.11495451
v 0.24397886 -0.43186122 -0.11495451
v 0.24898952 -0.42948180 -0.11495451
v 0.18673195 -0.45839763 -0.12498782
v 0.20715043 -0.44859770 -0.12498782
v 0.24293496 -0.43137729 -0.12498782
v 0.25500232 -0.42552960 -0.12498782
v 0.26247656 -0.42153704 -0.12498782
v 0.27993041 -0.40992230 -0.11783489
v 0.26744547 -0.41810906 -0.12498782
v 0.27408463 -0.41310829 -0.12498782
v 0.26118216 -0.42073047 -0.13190073
v 0.27191332 -0.41149515 -0.13497314
v 0.30064118 -0.39052412 -0.13122864
v 0.32239583 -0.37189218 -0.13497314
v 0.33496428 -0.36237457 -0.13406101
v 0.34273079 -0.35503471 -0.13406101
v 0.33826295 -0.35842234 -0.13674936
v 0.34151989 -0.35176808 -0.14275014
v 0.33959913 -0.34954998 -0.14942303
v 0.34231323 -0.34289572 -0.15302348
v 0.33057994 -0.34067762 -0.17078581
v 0.33989143 -0.32986951 -0.16987368
v 0.37972623 -0.27970037 -0.16968167
v 0.38561380 -0.27586913 -0.16584116
v 0.40498838 -0.25501910 -0.15499175
v 0.38223159 -0.27300578 -0.17184195
v 0.38461167 -0.26421410 -0.17448229
v 0.38031083 -0.26062483 -0.18029106
v 0.43342394 -0.17500661 -0.16344085
v 0.41321421 -0.17500661 -0.18307543
v 0.40924746 -0.16726348 -0.18936425
v 0.42841327 -0.17500661 -0.16848153
v 0.36799294 -0.24501754 -0.19829342
v 0.36298227 -0.24501754 -0.20218194
v 0.37087405 -0.23219296 -0.20069373
v 0.40786952 -0.17500661 -0.18806809
v 0.45517859 -0.10600391 -0.15518376
v 0.45050198 -0.10277760 -0.16051248
v 0.45121181 -0.09503445 -0.16123256
v 0.43747422 -0.13500036 -0.16742536
v 0.41939405 -0.16710216 -0.17937893
v 0.42006212 -0.16044790 -0.18005103
v 0.42561564 -0.15500349 -0.17549044
v 0.43150318 -0.14500193 -0.17150590
v 0.44123220 -0.09503445 -0.17126587
v 0.43693137 -0.08503290 -0.17693061
v 0.43705666 -0.07579757 -0.17717066
v 0.44206733 -0.07579757 -0.17212999
v 0.44244313 -0.07579757 -0.17174596
v 0.45718285 -0.07579757 -0.15628791
v 0.46156719 -0.07579757 -0.15163130
v 0.46194297 -0.07579757 -0.15119925
v 0.29425257 -0.07579757 0.22800240
v 0.21500048 -0.07579757 0.20116687
v 0.21500048 -0.07728975 0.20222300
v 0.20923820 -0.07878192 0.20068681
v 0.07119425 -0.22884566 0.17581955
v 0.07119425 -0.40556681 0.15469679
v 0.07119425 -0.43174022 0.13165379
v 0.07119425 -0.43674099 0.12685314
v 0.07119425 -0.44158047 0.12186050
v 0.07119425 -0.44307265 0.11941218
v 0.07119425 -0.46763295 0.07476633
v 0.07119425 -0.46912509 0.07135788
v 0.07119425 -0.46985102 0.06962965
v 0.07119425 -0.47170615 0.06478102
v 0.07119425 -0.47303700 0.06055647
v 0.07503577 -0.47396457 0.05498774
v 0.10104950 -0.48025587 -0.01870191
v 0.14100958 -0.47021398 -0.01865390
v 0.07119425 -0.48674881 -0.01495742
v 0.07503577 -0.48747474 -0.12498782
v 0.08501534 -0.48557928 -0.12498782
v 0.11031923 -0.48005423 -0.11903504
v 0.15737778 -0.46936709 -0.11495451
v 0.16501904 -0.46759260 -0.11495451
v 0.17504039 -0.46428564 -0.11495451
v 0.18172127 -0.46077704 -0.12498782
v 0.18096969 -0.46041405 -0.13122864
v 0.20113763 -0.45053351 -0.13142067
v 0.24139000 -0.43065137 -0.13175671
v 0.25537813 -0.42250490 -0.13511714
v 0.25892735 -0.41939962 -0.13857359
v 0.26514894 -0.41262436 -0.14438236
v 0.26468962 -0.41681856 -0.13511714
v 0.26853114 -0.40883344 -0.14731073
v 0.27491975 -0.40492153 -0.14481440
v 0.30978563 -0.37983698 -0.13962975
v 0.32068384 -0.37056133 -0.14121395
v 0.33162382 -0.36124536 -0.14246210
v 0.33563235 -0.35563964 -0.14591855
v 0.32936901 -0.35947090 -0.14913499
v 0.33237541 -0.35229236 -0.15499175
v 0.33024588 -0.35019526 -0.16027245
v 0.32114315 -0.34104058 -0.18096316
v 0.32782406 -0.33737066 -0.17745870
v 0.33262596 -0.33442664 -0.17448229
v 0.33053818 -0.33071640 -0.18048307
v 0.33964089 -0.31954530 -0.17966697
v 0.36916208 -0.27885348 -0.17933095
v 0.37818128 -0.26727909 -0.17851484
v 0.36014289 -0.29018587 -0.18009904
v 0.36966315 -0.25953594 -0.18974829
v 0.36114502 -0.25175247 -0.20088574
v 0.37158391 -0.25288168 -0.19152454
v 0.40127212 -0.18307239 -0.19104448
v 0.40290058 -0.17500661 -0.19210061
v 0.41012430 -0.16060920 -0.19008434
v 0.36565462 -0.23533861 -0.20314205
v 0.33007887 -0.28018433 -0.21005496
v 0.33868051 -0.26752105 -0.20923886
v 0.35433885 -0.24473524 -0.20741460
v 0.37216848 -0.22501442 -0.20141384
v 0.37993503 -0.20981044 -0.19992563
v 0.44987562 -0.10943186 -0.15988839
v 0.42991644 -0.10959317 -0.17990702
v 0.43626332 -0.09503445 -0.17625853
v 0.42156535 -0.14500193 -0.18158722
v 0.43125263 -0.09503445 -0.18110716
v 0.43192071 -0.08503290 -0.18153924
v 0.43204600 -0.07579757 -0.18158722
v 0.21191056 -0.07579757 0.19977468
v 0.20606479 -0.07579757 0.19703832
v 0.07967064 -0.19984919 0.17015481
v 0.07119425 -0.21932805 0.17231509
v 0.07119425 -0.47452918 0.05498774
v 0.07119425 -0.47521478 0.05114724
v 0.07119425 -0.47630364 0.04495443
v 0.07119425 -0.48775703 -0.12498782
v 0.07503577 -0.48614389 -0.13497314
v 0.08501534 -0.48420811 -0.13497314
v 0.10985991 -0.47993326 -0.12868431
v 0.10593489 -0.48094147 -0.12522785
v 0.09503669 -0.48336118 -0.12498782
v 0.11031923 -0.48005423 -0.12201143
v 0.12501720 -0.47654563 -0.12498782
v 0.13503854 -0.47420654 -0.12498782
v 0.15144847 -0.47033498 -0.12498782
v 0.16501904 -0.46706831 -0.12498782
v 0.17504039 -0.46372104 -0.12498782
v 0.17499863 -0.46182558 -0.13473310
v 0.17169994 -0.46069637 -0.14198205
v 0.17833906 -0.45916387 -0.13790151
v 0.18460241 -0.45734906 -0.13473310
v 0.19186789 -0.45089644 -0.14231810
v 0.24965760 -0.41980290 -0.14951903
v 0.25224644 -0.42109340 -0.14284617
v 0.24485572 -0.42770734 -0.13502114
v 0.25537813 -0.41835105 -0.14567852
v 0.26189199 -0.41137415 -0.15225539
v 0.27947110 -0.39951748 -0.14899096
v 0.29036930 -0.39028215 -0.15043116
v 0.31195694 -0.37156954 -0.15206337
v 0.32272989 -0.36221325 -0.15283147
v 0.32561103 -0.35761577 -0.15571183
v 0.32043332 -0.35035658 -0.17044976
v 0.31721812 -0.34769487 -0.17712265
v 0.31057900 -0.35047755 -0.18048307
v 0.25099379 -0.39072576 -0.19066042
v 0.26147443 -0.38120815 -0.19090044
v 0.28886610 -0.35898694 -0.18922022
v 0.29926324 -0.34930801 -0.18950826
v 0.30961862 -0.33966941 -0.18974829
v 0.31588197 -0.33579785 -0.18835613
v 0.31984875 -0.32982916 -0.18989232
v 0.32469240 -0.33442664 -0.18278739
v 0.33266771 -0.32498971 -0.18221131
v 0.35838914 -0.27772427 -0.18869215
v 0.37150040 -0.27219921 -0.18120319
v 0.34452629 -0.30434132 -0.18461162
v 0.30978563 -0.30970505 -0.20981494
v 0.32536048 -0.29550928 -0.20530233
v 0.36778414 -0.26502067 -0.18821210
v 0.36277348 -0.26502067 -0.19224462
v 0.35884845 -0.25840673 -0.19906151
v 0.40553120 -0.16435978 -0.19238865
v 0.39421543 -0.17484529 -0.19747731
v 0.39621970 -0.16500506 -0.19790936
v 0.40498838 -0.15500349 -0.19373283
v 0.41050011 -0.15500349 -0.19037238
v 0.43054280 -0.10293891 -0.18048307
v 0.35680243 -0.23501597 -0.20837474
v 0.33158207 -0.27502224 -0.21072704
v 0.34043425 -0.26086679 -0.21019897
v 0.34089357 -0.28135386 -0.20074174
v 0.31880486 -0.29829198 -0.20899883
v 0.31212395 -0.30305079 -0.21149513
v 0.30586061 -0.30579317 -0.21403947
v 0.29738423 -0.30498657 -0.21893612
v 0.29955554 -0.29925987 -0.21980023
v 0.34882712 -0.24788089 -0.20943087
v 0.35058084 -0.24118629 -0.21024698
v 0.36498654 -0.22501442 -0.20559037
v 0.35843089 -0.22501442 -0.20914283
v 0.36423492 -0.21485154 -0.20760664
v 0.38845316 -0.18500817 -0.19915754
v 0.41776559 -0.11503758 -0.18864414
v 0.42498928 -0.09503445 -0.18537971
v 0.42498928 -0.08503290 -0.18609983
v 0.42498928 -0.07579757 -0.18614784
v 0.19879931 -0.07579757 0.19122958
v 0.07119425 -0.19839737 0.16252181
v 0.07119425 -0.20517261 0.16631430
v 0.07119425 -0.20743102 0.16751447
v 0.07119425 -0.48642617 -0.13497314
v 0.07119425 -0.48521632 -0.13876563
v 0.07503577 -0.48295790 -0.14495844
v 0.08088155 -0.48017520 -0.15047917
v 0.08451428 -0.48118344 -0.14491042
v 0.09215555 -0.48049784 -0.14150199
v 0.09528722 -0.48166740 -0.13545319
v 0.10317902 -0.48073983 -0.13242880
v 0.11420250 -0.47904599 -0.12522785
v 0.15057161 -0.47009301 -0.13041253
v 0.16501904 -0.46509221 -0.13497314
v 0.17499863 -0.45795399 -0.14519846
v 0.16806720 -0.45948648 -0.14865491
v 0.18556279 -0.45279193 -0.14539048
v 0.18923728 -0.44960594 -0.14899096
v 0.19512482 -0.44811374 -0.14539048
v 0.18255639 -0.45121908 -0.15273544
v 0.17942472 -0.44968659 -0.15936032
v 0.24581610 -0.41839138 -0.15556782
v 0.25533637 -0.41347125 -0.15537581
v 0.25888559 -0.40923673 -0.15892828
v 0.26590052 -0.40568778 -0.15604788
v 0.26986730 -0.39988041 -0.15984038
v 0.31955644 -0.35963219 -0.15950435
v 0.28064024 -0.39048380 -0.16065648
v 0.27750859 -0.38794309 -0.16728136
v 0.28160062 -0.38124847 -0.17164993
v 0.27842721 -0.37866744 -0.17832279
v 0.28911662 -0.36927080 -0.17909092
v 0.29984781 -0.35987419 -0.17981100
v 0.27174631 -0.38140979 -0.18173125
v 0.25767469 -0.38786241 -0.18768403
v 0.26101512 -0.39080644 -0.18101117
v 0.25387493 -0.39411339 -0.18389153
v 0.25011691 -0.40004173 -0.18005103
v 0.24502274 -0.39758167 -0.18696395
v 0.23888467 -0.39935616 -0.18922022
v 0.24502274 -0.39258090 -0.19229263
v 0.24293496 -0.38217604 -0.20179787
v 0.24143176 -0.37120658 -0.21087107
v 0.24957410 -0.37959498 -0.19968560
v 0.25462651 -0.38471675 -0.19277269
v 0.27182981 -0.37160987 -0.19114047
v 0.25600445 -0.37576377 -0.19834143
v 0.26489839 -0.37495717 -0.19320476
v 0.28222695 -0.36197129 -0.19138050
v 0.27446043 -0.36447167 -0.19459695
v 0.28076550 -0.35063887 -0.20045370
v 0.30143452 -0.33132133 -0.20093375
v 0.30485848 -0.32498971 -0.20323807
v 0.30811542 -0.32829666 -0.19877347
v 0.31145588 -0.32164240 -0.20117378
v 0.30586061 -0.31595603 -0.20856676
v 0.30310476 -0.31329432 -0.21207121
v 0.38945529 -0.17807160 -0.19968560
v 0.39037392 -0.17141734 -0.20016566
v 0.39120904 -0.16500506 -0.20064571
v 0.37312886 -0.15500349 -0.21173519
v 0.38498744 -0.15500349 -0.20520633
v 0.39212766 -0.15500349 -0.20117378
v 0.39709657 -0.15500349 -0.19834143
v 0.40498838 -0.14500193 -0.19435689
v 0.41108468 -0.14500193 -0.19075644
v 0.35342023 -0.22501442 -0.21183118
v 0.35179177 -0.23501597 -0.21091908
v 0.33989143 -0.21969101 -0.21994424
v 0.34197921 -0.25501910 -0.21091908
v 0.30135101 -0.29260561 -0.22061634
v 0.28723764 -0.31692392 -0.21874410
v 0.29024404 -0.31026965 -0.22008827
v 0.29237357 -0.30498657 -0.22095239
v 0.28038973 -0.29042786 -0.23012158
v 0.28222695 -0.28498346 -0.23098570
v 0.28552565 -0.27514321 -0.23213786
v 0.28920016 -0.27853084 -0.22964153
v 0.34531966 -0.24473524 -0.21187919
v 0.32498467 -0.22501442 -0.22604105
v 0.33379510 -0.22501442 -0.22186449
v 0.33880576 -0.22501442 -0.21941617
v 0.36039340 -0.21142358 -0.21019897
v 0.34448454 -0.21581943 -0.21807200
v 0.41826665 -0.10503601 -0.18898019
v 0.41872597 -0.09503445 -0.18926823
v 0.41918528 -0.08503290 -0.18950826
v 0.41922703 -0.07579757 -0.18955627
v 0.17888190 -0.07579757 0.17068288
v 0.07119425 -0.18726659 0.15186441
v 0.07119425 -0.48324022 -0.14495844
v 0.07119425 -0.48078015 -0.15206337
v 0.07503577 -0.48061883 -0.15167931
v 0.07503577 -0.47856206 -0.15667197
v 0.08451428 -0.47771513 -0.15427166
v 0.11503761 -0.47106087 -0.15254343
v 0.12125920 -0.47029465 -0.15071920
v 0.13950638 -0.46985102 -0.13958174
v 0.08752069 -0.47936863 -0.14817485
v 0.09879468 -0.47969127 -0.13910165
v 0.14501812 -0.47077858 -0.13252482
v 0.15437137 -0.46795556 -0.13425303
v 0.16485202 -0.46154326 -0.14519846
v 0.17566672 -0.45323551 -0.15561584
v 0.16138631 -0.46033341 -0.15086320
v 0.16485202 -0.45783302 -0.15451169
v 0.17274383 -0.45129973 -0.16200066
v 0.14501812 -0.46654406 -0.14495844
v 0.19270299 -0.44133851 -0.16195267
v 0.23926046 -0.41960126 -0.15931231
v 0.25224644 -0.41125315 -0.16180864
v 0.26005474 -0.40000141 -0.17001772
v 0.26243481 -0.40193719 -0.16497704
v 0.26744547 -0.39790431 -0.16497704
v 0.27462745 -0.38467643 -0.17457831
v 0.25679782 -0.39746070 -0.17669058
v 0.24802914 -0.40899473 -0.16848153
v 0.24502274 -0.40133226 -0.18197128
v 0.21900901 -0.40939802 -0.18922022
v 0.19236895 -0.42117405 -0.19128451
v 0.21232812 -0.41113219 -0.19118848
v 0.23224553 -0.40104997 -0.19104448
v 0.23504315 -0.39496028 -0.19502899
v 0.23784077 -0.38883030 -0.19901350
v 0.22848752 -0.36919016 -0.21932018
v 0.23600353 -0.36547989 -0.21812001
v 0.24489747 -0.36495560 -0.21322337
v 0.23997031 -0.35991451 -0.21994424
v 0.25333211 -0.37294072 -0.20208591
v 0.25997123 -0.36995640 -0.19997364
v 0.26222605 -0.35192940 -0.21139914
v 0.25032571 -0.35027590 -0.22018430
v 0.29993132 -0.31994858 -0.20995894
v 0.29329219 -0.32293293 -0.21207121
v 0.26072285 -0.34059697 -0.22032830
v 0.27074417 -0.33063576 -0.22032830
v 0.38498744 -0.16500506 -0.20400617
v 0.36273172 -0.19500974 -0.21144715
v 0.36912033 -0.18500817 -0.20952690
v 0.37446505 -0.17577286 -0.20803869
v 0.36498654 -0.15500349 -0.21610376
v 0.37396398 -0.14500193 -0.21226326
v 0.38498744 -0.14500193 -0.20592642
v 0.39262873 -0.14500193 -0.20150983
v 0.41229558 -0.12503913 -0.19128451
v 0.33592463 -0.21581943 -0.22258461
v 0.34197921 -0.20501129 -0.22104838
v 0.30953512 -0.23916985 -0.22978553
v 0.28059849 -0.32051319 -0.22018430
v 0.28435650 -0.31414124 -0.22095239
v 0.26502365 -0.32498971 -0.22440884
v 0.24502274 -0.33511224 -0.22834536
v 0.27500325 -0.31498814 -0.22407278
v 0.27446043 -0.30446231 -0.22772127
v 0.27500325 -0.28498346 -0.23381805
v 0.26452258 -0.28453985 -0.23780259
v 0.27007610 -0.27010211 -0.24001089
v 0.27404287 -0.27405432 -0.23732254
v 0.29274938 -0.26502067 -0.23127374
v 0.28498283 -0.26502067 -0.23473018
v 0.32498467 -0.23501597 -0.22364074
v 0.33141503 -0.23501597 -0.22066435
v 0.31128883 -0.23251559 -0.23055363
v 0.31813675 -0.22501442 -0.22916147
v 0.31955644 -0.21836016 -0.22983354
v 0.41375703 -0.09503445 -0.19214863
v 0.41421634 -0.07579757 -0.19248465
v 0.40047878 -0.08503290 -0.20026168
v 0.39538458 -0.07579757 -0.20343009
v 0.40102160 -0.07579757 -0.20016566
v 0.40632457 -0.07579757 -0.19709325
v 0.14748169 -0.07579757 0.13294995
v 0.14702238 -0.07579757 0.13237387
v 0.14159416 -0.07579757 0.12488490
v 0.07119425 -0.15560842 0.11451554
v 0.07119425 -0.48001391 -0.15393561
v 0.09503669 -0.47134319 -0.16214469
v 0.07119425 -0.47872338 -0.15705603
v 0.07503577 -0.47400489 -0.16497704
v 0.08409673 -0.47206911 -0.16521710
v 0.09503669 -0.47485179 -0.15499175
v 0.10205163 -0.47045594 -0.16075251
v 0.10873252 -0.46964937 -0.15931231
v 0.11503761 -0.46888313 -0.15753609
v 0.14898489 -0.45972848 -0.15940833
v 0.15503946 -0.45896223 -0.15772811
v 0.16430920 -0.45222729 -0.16516909
v 0.16719034 -0.44908166 -0.16867355
v 0.17032200 -0.44012862 -0.18019503
v 0.17566672 -0.44771045 -0.16516909
v 0.18493646 -0.44307265 -0.16516909
v 0.22502181 -0.41137415 -0.18201929
v 0.17909068 -0.42948180 -0.18931624
v 0.17240977 -0.43117565 -0.19133252
v 0.16501904 -0.42786866 -0.19810140
v 0.18501997 -0.41770577 -0.19805339
v 0.20502089 -0.40746224 -0.19786137
v 0.22502181 -0.39717838 -0.19766933
v 0.21149302 -0.40076765 -0.20059773
v 0.22589868 -0.38495874 -0.20741460
v 0.22982371 -0.37987730 -0.20991093
v 0.17504039 -0.39822695 -0.21855208
v 0.18247288 -0.39129037 -0.22104838
v 0.22180665 -0.37092429 -0.22076035
v 0.22510533 -0.36547989 -0.22311267
v 0.23328942 -0.36249554 -0.22176850
v 0.25441775 -0.35442978 -0.21461555
v 0.24502274 -0.35265529 -0.22143245
v 0.23600353 -0.35596228 -0.22388077
v 0.24502274 -0.34499282 -0.22484088
v 0.23521018 -0.34531546 -0.22853738
v 0.37688687 -0.16500506 -0.20832673
v 0.34836781 -0.19500974 -0.21912813
v 0.34936994 -0.18779087 -0.21965623
v 0.35613436 -0.17500661 -0.21792799
v 0.36498654 -0.16500506 -0.21466357
v 0.35112369 -0.17500661 -0.22056833
v 0.35826388 -0.15500349 -0.21936819
v 0.36498654 -0.14500193 -0.21687186
v 0.37442330 -0.13500036 -0.21255130
v 0.38010204 -0.12112723 -0.21005496
v 0.33496428 -0.20501129 -0.22464886
v 0.32419133 -0.21505319 -0.22824934
v 0.34335715 -0.19500974 -0.22176850
v 0.35028857 -0.18113661 -0.22013628
v 0.24172404 -0.33184561 -0.23060164
v 0.26752901 -0.27675638 -0.23909876
v 0.23846711 -0.30825323 -0.23943481
v 0.23178622 -0.31192315 -0.24063495
v 0.25116080 -0.29123443 -0.24039492
v 0.26084810 -0.28095058 -0.24025092
v 0.21500048 -0.31498814 -0.24519557
v 0.22502181 -0.30498657 -0.24457148
v 0.20502089 -0.31498814 -0.24745184
v 0.21500048 -0.30498657 -0.24668375
v 0.22502181 -0.29498503 -0.24567562
v 0.23500140 -0.28498346 -0.24461949
v 0.24502274 -0.25501910 -0.24428344
v 0.23500140 -0.24501754 -0.24610767
v 0.24502274 -0.24501754 -0.24457148
v 0.24502274 -0.23501597 -0.24471548
v 0.27015960 -0.26502067 -0.24001089
v 0.29496241 -0.22501442 -0.23521024
v 0.30498376 -0.21501285 -0.23324201
v 0.32034981 -0.21170589 -0.23007357
v 0.33496428 -0.19500974 -0.22560900
v 0.38628188 -0.09503445 -0.20784667
v 0.39496702 -0.08503290 -0.20338207
v 0.39496702 -0.07579757 -0.20367011
v 0.13917235 -0.07579757 0.12109239
v 0.07119425 -0.15084961 0.10885079
v 0.13503854 -0.46142229 -0.16228870
v 0.14230400 -0.46053505 -0.16084853
v 0.08681084 -0.46920577 -0.16872156
v 0.11503761 -0.46464860 -0.16497704
v 0.07119425 -0.47436786 -0.16497704
v 0.07119425 -0.47061729 -0.17097783
v 0.07119425 -0.46557617 -0.17904291
v 0.07503577 -0.46731031 -0.17568246
v 0.08012995 -0.47001234 -0.17001772
v 0.15503946 -0.45480835 -0.16497704
v 0.16050944 -0.45013022 -0.17020974
v 0.15691847 -0.43920106 -0.18878818
v 0.16501904 -0.43782991 -0.18677190
v 0.17700289 -0.43847516 -0.17774671
v 0.16501904 -0.43282911 -0.19310874
v 0.15775357 -0.42940116 -0.19949359
v 0.16501904 -0.42286789 -0.20242196
v 0.17211750 -0.42109340 -0.20088574
v 0.17879838 -0.41931894 -0.19944558
v 0.18501997 -0.41270500 -0.20222995
v 0.16280600 -0.40145326 -0.22119242
v 0.16501904 -0.41189843 -0.21159115
v 0.17504039 -0.39322615 -0.22258461
v 0.21500048 -0.37269875 -0.22205654
v 0.15595809 -0.39508128 -0.22824934
v 0.16501904 -0.38846734 -0.22925746
v 0.20502089 -0.36681074 -0.22863340
v 0.21429063 -0.36414903 -0.22719321
v 0.21713001 -0.35826102 -0.22930548
v 0.22531411 -0.35495406 -0.22839335
v 0.22882158 -0.34886441 -0.22959352
v 0.23203675 -0.34216979 -0.23069766
v 0.35843089 -0.14500193 -0.21960822
v 0.38127121 -0.09503445 -0.21067902
v 0.22502181 -0.33499128 -0.23554629
v 0.22209892 -0.32228768 -0.24073097
v 0.22527236 -0.31514946 -0.24188313
v 0.20502089 -0.32498971 -0.24509954
v 0.21541804 -0.32535267 -0.24202713
v 0.20502089 -0.30498657 -0.24821997
v 0.19504130 -0.32498971 -0.24701980
v 0.15921502 -0.33910480 -0.24990016
v 0.19504130 -0.31498814 -0.24874803
v 0.21500048 -0.29498503 -0.24716380
v 0.21500048 -0.25501910 -0.24865201
v 0.22502181 -0.24501754 -0.24749985
v 0.23500140 -0.23501597 -0.24620369
v 0.24502274 -0.22501442 -0.24452347
v 0.27007610 -0.19932492 -0.23996288
v 0.27007610 -0.20501129 -0.24001089
v 0.25500232 -0.22501442 -0.24284324
v 0.26502365 -0.22501442 -0.24097100
v 0.27015960 -0.23501597 -0.24001089
v 0.27517027 -0.24501754 -0.23905075
v 0.29496241 -0.20501129 -0.23521024
v 0.30498376 -0.20501129 -0.23324201
v 0.31496334 -0.20501129 -0.23117772
v 0.32026631 -0.20501129 -0.23007357
v 0.38636538 -0.08503290 -0.20813471
v 0.38594782 -0.07579757 -0.20827872
v 0.13612418 -0.07579757 0.11571569
v 0.07119425 -0.14754264 0.10385814
v 0.09841889 -0.45960748 -0.17937893
v 0.13503854 -0.45827663 -0.16728136
v 0.07119425 -0.46247083 -0.18398756
v 0.07503577 -0.46230954 -0.18365151
v 0.07503577 -0.45908320 -0.18864414
v 0.08501534 -0.45799434 -0.18696395
v 0.08501534 -0.46122062 -0.18197128
v 0.15503946 -0.45081580 -0.17126587
v 0.15416259 -0.44214508 -0.18523571
v 0.14501812 -0.44456482 -0.18499568
v 0.15027933 -0.44004798 -0.19003633
v 0.15399557 -0.43472457 -0.19478896
v 0.14501812 -0.44069326 -0.19085243
v 0.13503854 -0.44190311 -0.19224462
v 0.13503854 -0.43714431 -0.19723728
v 0.12501720 -0.43831384 -0.19843742
v 0.15107268 -0.43024808 -0.20021367
v 0.14823329 -0.40955937 -0.21960822
v 0.15503946 -0.40826881 -0.21855208
v 0.16501904 -0.41689920 -0.20741460
v 0.15503946 -0.40326804 -0.22282463
v 0.14501812 -0.39842859 -0.22920945
v 0.15328573 -0.39181465 -0.23074567
v 0.15992486 -0.38991919 -0.22997758
v 0.22214068 -0.35160676 -0.23060164
v 0.19140857 -0.37076297 -0.23031360
v 0.18501997 -0.36499596 -0.23415411
v 0.17504039 -0.35814005 -0.23924279
v 0.18193007 -0.35108247 -0.24044293
v 0.19504130 -0.33499128 -0.24375537
v 0.20451982 -0.33511224 -0.24145105
v 0.21500048 -0.34499282 -0.23501822
v 0.22531411 -0.34531546 -0.23194581
v 0.21896726 -0.32894194 -0.23962682
v 0.32398254 -0.19589697 -0.22896942
v 0.35342023 -0.14500193 -0.22076035
v 0.35245985 -0.13500036 -0.22056833
v 0.35742876 -0.13500036 -0.21936819
v 0.37496611 -0.08503290 -0.21240726
v 0.38135472 -0.08503290 -0.21063104
v 0.14100958 -0.35055822 -0.25018820
v 0.21232812 -0.33184561 -0.24073097
v 0.19458199 -0.30482528 -0.24946812
v 0.19241071 -0.29498503 -0.25028422
v 0.19408092 -0.28498346 -0.25057226
v 0.16894406 -0.32878062 -0.24990016
v 0.13503854 -0.34499282 -0.25143638
v 0.13503854 -0.33499128 -0.25230050
v 0.12501720 -0.30498657 -0.25556493
v 0.18827690 -0.30805159 -0.24985218
v 0.19094926 -0.30139732 -0.25009221
v 0.20502089 -0.28498346 -0.24898806
v 0.20163870 -0.26502067 -0.25018820
v 0.18501997 -0.27502224 -0.25215647
v 0.19587642 -0.27550617 -0.25066829
v 0.20151342 -0.25808409 -0.25018820
v 0.23500140 -0.22501442 -0.24533957
v 0.21500048 -0.24501754 -0.24841198
v 0.22502181 -0.23501597 -0.24692377
v 0.25500232 -0.20501129 -0.24193114
v 0.27500325 -0.18500817 -0.23847467
v 0.27404287 -0.19561467 -0.23919478
v 0.27011785 -0.21501285 -0.24001089
v 0.28498283 -0.19500974 -0.23713049
v 0.27508676 -0.20501129 -0.23905075
v 0.29496241 -0.19500974 -0.23516226
v 0.32001576 -0.19984919 -0.22997758
v 0.28498283 -0.18500817 -0.23703450
v 0.29496241 -0.18500817 -0.23492220
v 0.38093716 -0.07579757 -0.21034300
v 0.13558136 -0.07579757 0.11331537
v 0.07119425 -0.14346944 0.09564906
v 0.07119425 -0.14508259 0.09891349
v 0.10501628 -0.45440507 -0.18499568
v 0.07119425 -0.45928484 -0.18898019
v 0.09503669 -0.45182401 -0.19205260
v 0.10501628 -0.45061415 -0.19070843
v 0.11006869 -0.44996887 -0.18998834
v 0.07503577 -0.45408243 -0.19421288
v 0.08501534 -0.45299357 -0.19320476
v 0.09503669 -0.44686356 -0.19704527
v 0.08501534 -0.44803309 -0.19819739
v 0.14501812 -0.43097401 -0.20088574
v 0.14159416 -0.41036594 -0.22032830
v 0.14493461 -0.40572810 -0.22354472
v 0.07503577 -0.41605228 -0.22781730
v 0.10501628 -0.40782523 -0.22887343
v 0.13720983 -0.39935616 -0.22968954
v 0.13503854 -0.37854645 -0.23933879
v 0.14501812 -0.39342779 -0.23146576
v 0.11503761 -0.41351157 -0.22311267
v 0.07503577 -0.42327118 -0.22282463
v 0.14501812 -0.38499907 -0.23511425
v 0.14501812 -0.37169054 -0.24073097
v 0.14501812 -0.36499596 -0.24351534
v 0.15052986 -0.37027901 -0.24010688
v 0.15432961 -0.37415060 -0.23765856
v 0.16577065 -0.36499596 -0.23866671
v 0.15503946 -0.35499439 -0.24519557
v 0.32498467 -0.14500193 -0.22709718
v 0.33496428 -0.17500661 -0.22584903
v 0.34498560 -0.15500349 -0.22296864
v 0.32498467 -0.13500036 -0.22676113
v 0.32498467 -0.12503913 -0.22637710
v 0.33742785 -0.07579757 -0.22071236
v 0.34298134 -0.07579757 -0.21941617
v 0.35571679 -0.07579757 -0.21643978
v 0.37496611 -0.07579757 -0.21192721
v 0.14460057 -0.35430878 -0.24788392
v 0.13503854 -0.36499596 -0.24533957
v 0.13503854 -0.35660756 -0.24870002
v 0.12501720 -0.35797873 -0.24937209
v 0.13503854 -0.35160676 -0.25047624
v 0.18501997 -0.28498346 -0.25167641
v 0.12501720 -0.34499282 -0.25201246
v 0.12501720 -0.33499128 -0.25297257
v 0.12501720 -0.32498971 -0.25388470
v 0.12501720 -0.31498814 -0.25474882
v 0.11503761 -0.31498814 -0.25532487
v 0.11503761 -0.30498657 -0.25604498
v 0.13503854 -0.29498503 -0.25508484
v 0.16501904 -0.28498346 -0.25345263
v 0.17504039 -0.28498346 -0.25268453
v 0.17504039 -0.27502224 -0.25287655
v 0.18501997 -0.26502067 -0.25167641
v 0.32498467 -0.07579757 -0.22244057
v 0.19504130 -0.25715652 -0.25047624
v 0.28498283 -0.17500661 -0.23645842
v 0.32498467 -0.09503445 -0.22445685
v 0.29496241 -0.15500349 -0.23348203
v 0.31567317 -0.19589697 -0.23079368
v 0.31037024 -0.13697648 -0.23007357
v 0.29496241 -0.16500506 -0.23425013
v 0.30498376 -0.18500817 -0.23276192
v 0.11904615 -0.07579757 -0.05499466
v 0.07119425 -0.11951408 -0.05571475
v 0.07119425 -0.12241776 -0.03497604
v 0.07119425 -0.12270007 -0.03319981
v 0.07119425 -0.45428407 -0.19440490
v 0.07119425 -0.45242894 -0.19632515
v 0.07119425 -0.44940430 -0.19944558
v 0.07503577 -0.44916230 -0.19925353
v 0.09503669 -0.44186276 -0.20170185
v 0.07503577 -0.43875748 -0.20885479
v 0.08501534 -0.43258715 -0.21235925
v 0.08501534 -0.42710242 -0.21735191
v 0.12501720 -0.41734284 -0.21759194
v 0.10092422 -0.42020619 -0.22018430
v 0.12501720 -0.41234204 -0.22210455
v 0.07119425 -0.41637492 -0.22800931
v 0.07503577 -0.41105151 -0.23045763
v 0.09503669 -0.40887377 -0.22944951
v 0.07119425 -0.42085144 -0.22493690
v 0.13052893 -0.40008205 -0.23002556
v 0.07119425 -0.37104529 -0.24942011
v 0.13432869 -0.39560556 -0.23170578
v 0.13503854 -0.37354568 -0.24159509
v 0.08501534 -0.42210162 -0.22186449
v 0.07503577 -0.42827195 -0.21840805
v 0.07119425 -0.42859459 -0.21869609
v 0.07119425 -0.42359382 -0.22301665
v 0.32498467 -0.10503601 -0.22522494
v 0.33638394 -0.07579757 -0.22095239
v 0.12501720 -0.36499596 -0.24649173
v 0.11119610 -0.36023712 -0.25009221
v 0.12501720 -0.35297793 -0.25076428
v 0.10501628 -0.35499439 -0.25129235
v 0.11503761 -0.34499282 -0.25230050
v 0.11503761 -0.33499128 -0.25335664
v 0.11503761 -0.32498971 -0.25436476
v 0.10501628 -0.31498814 -0.25566092
v 0.09503669 -0.31498814 -0.25594896
v 0.08501534 -0.31498814 -0.25618899
v 0.07503577 -0.31498814 -0.25633302
v 0.10501628 -0.30498657 -0.25604498
v 0.12501720 -0.29498503 -0.25532487
v 0.15503946 -0.28498346 -0.25398070
v 0.16501904 -0.27502224 -0.25306860
v 0.17504039 -0.26502067 -0.25162840
v 0.31496334 -0.07579757 -0.22205654
v 0.33571586 -0.07579757 -0.22109640
v 0.15503946 -0.27502224 -0.25287655
v 0.13503854 -0.28498346 -0.25407672
v 0.11503761 -0.29498503 -0.25527689
v 0.07503577 -0.30498657 -0.25566092
v 0.12046584 -0.07579757 -0.06497997
v 0.07119425 -0.11959474 -0.06680420
v 0.07119425 -0.11927210 -0.06190756
v 0.07119425 -0.11927210 -0.06104345
v 0.07119425 -0.11931244 -0.05840310
v 0.07119425 -0.44440350 -0.20410219
v 0.07119425 -0.43710399 -0.21087107
v 0.07503577 -0.43375668 -0.21341538
v 0.07119425 -0.41137415 -0.23064965
v 0.07119425 -0.40871245 -0.23189783
v 0.07119425 -0.39068544 -0.24029893
v 0.07119425 -0.36874652 -0.25014019
v 0.10501628 -0.36080176 -0.25028422
v 0.09503669 -0.35499439 -0.25158039
v 0.09503669 -0.34499282 -0.25278056
v 0.07119425 -0.33116001 -0.25489283
v 0.10501628 -0.33499128 -0.25364468
v 0.09503669 -0.32498971 -0.25494084
v 0.07119425 -0.32498971 -0.25556493
v 0.08501534 -0.32498971 -0.25522888
v 0.07119425 -0.31498814 -0.25628501
v 0.08501534 -0.30498657 -0.25590095
v 0.09503669 -0.30498657 -0.25599697
v 0.29563051 -0.07579757 -0.22066435
v 0.07119425 -0.30115533 -0.25474882
v 0.07119425 -0.29119411 -0.25278056
v 0.07119425 -0.28280571 -0.25110033
v 0.07119425 -0.27683702 -0.24985218
v 0.07119425 -0.26502067 -0.24730784
v 0.07119425 -0.30498657 -0.25546890
v 0.12317996 -0.07579757 -0.07448521
v 0.07119425 -0.12564407 -0.09416778
v 0.07119425 -0.12467617 -0.09023127
v 0.07119425 -0.12342598 -0.08499859
v 0.07119425 -0.12274039 -0.08211821
v 0.07119425 -0.12108691 -0.07496528
v 0.07119425 -0.36511692 -0.25066829
v 0.08501534 -0.35499439 -0.25182042
v 0.07503577 -0.34499282 -0.25321260
v 0.07119425 -0.33499128 -0.25446078
v 0.28498283 -0.07579757 -0.21989626
v 0.07119425 -0.25501910 -0.24413943
v 0.27542081 -0.07579757 -0.21912813
v 0.12326346 -0.07579757 -0.07477324
v 0.12656215 -0.07579757 -0.08605473
v 0.12923451 -0.07579757 -0.09498389
v 0.13173984 -0.07579757 -0.10333699
v 0.13244969 -0.07579757 -0.10568929
v 0.07119425 -0.13116913 -0.11495451
v 0.07119425 -0.35499439 -0.25210845
v 0.07119425 -0.34116158 -0.25374067
v 0.07119425 -0.24812287 -0.24101901
v 0.26502365 -0.07579757 -0.21691987
v 0.13666700 -0.07579757 -0.11476249
v 0.07119425 -0.13463740 -0.12493981
v 0.07119425 -0.13318557 -0.12081128
v 0.07119425 -0.23961347 -0.23631439
v 0.25429249 -0.07579757 -0.21288732
v 0.07119425 -0.21069767 -0.22028029
v 0.13741860 -0.07579757 -0.11596264
v 0.07119425 -0.13871062 -0.13290885
v 0.25082678 -0.07579757 -0.21154314
v 0.07119425 -0.20952812 -0.21951219
v 0.22514708 -0.07579757 -0.20126981
v 0.14301385 -0.07579757 -0.12426773
v 0.14414126 -0.07579757 -0.12589994
v 0.07119425 -0.14528424 -0.14457437
v 0.07119425 -0.20521295 -0.21610376
v 0.21587734 -0.07579757 -0.19666120
v 0.15007055 -0.07579757 -0.13434905
v 0.07119425 -0.14915580 -0.15143928
v 0.07119425 -0.19900230 -0.21101508
v 0.20857012 -0.07579757 -0.19195658
v 0.15746129 -0.07579757 -0.14476642
v 0.07119425 -0.15201916 -0.15643194
v 0.07119425 -0.19396117 -0.20602244
v 0.20798554 -0.07579757 -0.19157255
v 0.16489378 -0.07579757 -0.15508777
v 0.07119425 -0.15697961 -0.16492906
v 0.07119425 -0.16887662 -0.18105915
v 0.17491512 -0.07579757 -0.16521710
v 0.16585416 -0.07579757 -0.15619192
v 0.07119425 -0.15927835 -0.16886556
v 0.07119425 -0.16391617 -0.17520240
v 0.17366245 -0.07579757 -0.16420895
v 0.07119425 -0.16073018 -0.17092985
f 1 2 3
f 1 3 4
f 1 4 5
f 1 5 6
f 1 6 7
f 1 7 8
f 1 8 9
f 1 9 19
f 1 19 33
f 1 33 50
f 1 50 78
f 1 78 112
f 1 112 166
f 1 166 215
f 1 215 277
f 1 277 360
f 1 360 359
f 1 359 444
f 1 444 443
f 1 443 442
f 1 442 441
f 1 441 440
f 1 440 439
f 1 439 513
f 1 513 592
f 1 592 681
f 1 681 760
f 1 760 764
f 1 764 763
f 1 763 762
f 1 762 842
f 1 842 904
f 1 904 976
f 1 976 1014
f 1 1014 1013
f 1 1013 1012
f 1 1012 1011
f 1 1011 1069
f 1 1069 1087
f 1 1087 1032
f 1 1032 1086
f 1 1086 1115
f 1 1115 1132
f 1 1132 1134
f 1 1134 1144
f 1 1144 1149
f 1 1149 1153
f 1 1153 1155
f 1 1155 1160
f 1 1160 1164
f 1 1164 1168
f 1 1168 1172
f 1 1172 1176
f 1 1176 1173
f 1 1173 1169
f 1 1169 1165
f 1 1165 1161
f 1 1161 1157
f 1 1157 1156
f 1 1156 1151
f 1 1151 1145
f 1 1145 1139
f 1 1139 1138
f 1 1138 1137
f 1 1137 1136
f 1 1136 1135
f 1 1135 1122
f 1 1122 1092
f 1 1092 1041
f 1 1041 977
f 1 977 905
f 1 905 843
f 1 843 767
f 1 767 766
f 1 766 765
f 1 765 682
f 1 682 593
f 1 593 515
f 1 515 514
f 1 514 446
f 1 446 363
f 1 363 445
f 1 445 361
f 1 361 278
f 1 278 217
f 1 217 216
f 1 216 169
f 1 169 168
f 1 168 167
f 1 167 122
f 1 122 121
f 1 121 120
f 1 120 117
f 1 117 116
f 1 116 115
f 1 115 114
f 1 114 113
f 1 113 79
f 1 79 51
f 1 51 34
f 1 34 22
f 1 22 20
f 1 20 10
f 1 10 2
f 2 10 3
f 3 10 4
f 4 10 5
f 5 10 11
f 5 11 12
f 5 12 13
f 5 13 14
f 5 14 15
f 5 15 6
f 6 15 16
f 6 16 17
f 6 17 7
f 7 17 8
f 8 17 9
f 9 17 18
f 9 18 19
f 10 20 11
f 11 20 12
f 12 21 13
f 12 20 22
f 12 22 23
f 12 23 21
f 13 24 14
f 13 21 23
f 13 23 24
f 14 24 25
f 14 25 15
f 15 25 26
f 15 26 27
f 15 27 28
f 15 28 29
f 15 29 30
f 15 30 16
f 16 30 17
f 17 30 31
f 17 31 32
f 17 32 18
f 18 33 19
f 18 32 33
f 22 34 35
f 22 35 36
f 22 36 23
f 23 36 37
f 23 37 38
f 23 38 24
f 24 39 40
f 24 40 41
f 24 41 25
f 24 38 39
f 25 41 42
f 25 42 26
f 26 42 43
f 26 43 27
f 27 43 28
f 28 44 29
f 28 43 69
f 28 69 44
f 29 44 30
f 30 44 45
f 30 45 31
f 31 45 46
f 31 46 47
f 31 47 32
f 32 47 48
f 32 48 49
f 32 49 33
f 33 49 50
f 34 51 35
f 35 51 52
f 35 52 53
f 35 53 36
f 36 53 54
f 36 54 37
f 37 54 55
f 37 55 56
f 37 56 38
f 38 56 57
f 38 57 58
f 38 58 59
f 38 59 60
f 38 60 61
f 38 61 62
f 38 62 63
f 38 63 64
f 38 64 40
f 38 40 39
f 40 64 65
f 40 65 42
f 40 42 41
f 42 65 66
f 42 66 67
f 42 67 43
f 43 67 66
f 43 66 68
f 43 68 69
f 44 69 45
f 45 69 70
f 45 70 71
f 45 71 72
f 45 72 73
f 45 73 74
f 45 74 75
f 45 75 46
f 46 75 76
f 46 76 47
f 47 76 77
f 47 77 48
f 48 77 50
f 48 50 49
f 50 77 78
f 51 79 52
f 52 80 81
f 52 81 53
f 52 79 80
f 53 81 82
f 53 82 83
f 53 83 57
f 53 57 56
f 53 56 54
f 54 56 55
f 57 84 85
f 57 85 59
f 57 59 58
f 57 83 84
f 59 86 60
f 59 85 86
f 60 86 61
f 61 87 88
f 61 88 89
f 61 89 62
f 61 86 87
f 62 89 90
f 62 90 91
f 62 91 64
f 62 64 63
f 64 91 65
f 65 91 92
f 65 92 93
f 65 93 94
f 65 94 95
f 65 95 96
f 65 96 66
f 66 96 97
f 66 97 98
f 66 98 99
f 66 99 100
f 66 100 68
f 68 70 69
f 68 100 70
f 70 100 71
f 71 100 101
f 71 101 102
f 71 102 72
f 72 102 73
f 73 102 103
f 73 103 104
f 73 104 74
f 74 104 105
f 74 105 106
f 74 106 75
f 75 106 105
f 75 105 107
f 75 107 108
f 75 108 76
f 76 108 109
f 76 109 110
f 76 110 77
f 77 110 78
f 78 110 111
f 78 111 112
f 79 113 80
f 80 113 114
f 80 114 115
f 80 115 116
f 80 116 117
f 80 117 118
f 80 118 119
f 80 119 120
f 80 120 121
f 80 121 122
f 80 122 123
f 80 123 124
f 80 124 125
f 80 125 81
f 81 125 82
f 82 125 126
f 82 126 127
f 82 127 128
f 82 128 129
f 82 129 83
f 83 129 130
f 83 130 131
f 83 131 132
f 83 132 84
f 84 132 85
f 85 133 86
f 85 132 134
f 85 134 135
f 85 135 136
f 85 136 133
f 86 133 137
f 86 137 88
f 86 88 87
f 88 137 138
f 88 138 89
f 89 138 139
f 89 139 140
f 89 140 141
f 89 141 142
f 89 142 143
f 89 143 144
f 89 144 145
f 89 145 146
f 89 146 90
f 90 146 147
f 90 147 91
f 91 147 92
f 92 147 93
f 93 147 148
f 93 148 94
f 94 148 95
f 95 148 96
f 96 148 97
f 97 149 150
f 97 150 151
f 97 151 98
f 97 148 152
f 97 152 153
f 97 153 149
f 98 151 154
f 98 154 99
f 99 155 100
f 99 154 156
f 99 156 155
f 100 155 101
f 101 155 103
f 101 103 102
f 103 156 157
f 103 157 158
f 103 158 105
f 103 105 104
f 103 155 156
f 105 159 108
f 105 108 107
f 105 158 157
f 105 157 160
f 105 160 159
f 108 159 109
f 109 161 162
f 109 162 163
f 109 163 110
f 109 159 161
f 110 163 164
f 110 164 111
f 111 164 165
f 111 165 112
f 112 165 166
f 117 120 118
f 118 120 119
f 122 167 123
f 123 167 168
f 123 168 169
f 123 169 124
f 124 169 125
f 125 169 170
f 125 170 127
f 125 127 126
f 127 170 171
f 127 171 172
f 127 172 173
f 127 173 174
f 127 174 128
f 128 175 131
f 128 131 129
f 128 174 175
f 129 131 130
f 131 175 132
f 132 175 176
f 132 176 134
f 133 136 177
f 133 177 178
f 133 178 179
f 133 179 180
f 133 180 137
f 134 176 181
f 134 181 182
f 134 182 183
f 134 183 184
f 134 184 185
f 134 185 135
f 135 185 186
f 135 186 136
f 136 186 177
f 137 180 187
f 137 187 188
f 137 188 139
f 137 139 138
f 139 188 140
f 140 188 189
f 140 189 141
f 141 189 142
f 142 190 191
f 142 191 192
f 142 192 193
f 142 193 143
f 142 189 188
f 142 188 194
f 142 194 190
f 143 193 144
f 144 193 145
f 145 193 195
f 145 195 147
f 145 147 146
f 147 195 196
f 147 196 197
f 147 197 198
f 147 198 148
f 148 198 197
f 148 197 152
f 149 153 150
f 150 154 151
f 150 153 199
f 150 199 200
f 150 200 201
f 150 201 154
f 152 197 202
f 152 202 199
f 152 199 153
f 154 201 156
f 156 201 160
f 156 160 157
f 159 203 162
f 159 162 161
f 159 160 204
f 159 204 203
f 160 201 205
f 160 205 206
f 160 206 207
f 160 207 208
f 160 208 204
f 162 203 163
f 163 203 204
f 163 204 209
f 163 209 210
f 163 210 211
f 163 211 212
f 163 212 213
f 163 213 164
f 164 213 165
f 165 213 214
f 165 214 215
f 165 215 166
f 169 216 170
f 170 216 171
f 171 216 217
f 171 217 218
f 171 218 173
f 171 173 172
f 173 218 219
f 173 219 220
f 173 220 174
f 174 220 221
f 174 221 175
f 175 221 222
f 175 222 181
f 175 181 176
f 177 186 223
f 177 223 224
f 177 224 225
f 177 225 226
f 177 226 227
f 177 227 187
f 177 187 180
f 177 180 178
f 178 180 179
f 181 222 228
f 181 228 229
f 181 229 230
f 181 230 182
f 182 231 183
f 182 230 232
f 182 232 231
f 183 231 184
f 184 231 185
f 185 231 186
f 186 232 233
f 186 233 234
f 186 234 235
f 186 235 223
f 186 231 232
f 187 227 226
f 187 226 236
f 187 236 237
f 187 237 238
f 187 238 194
f 187 194 188
f 190 239 240
f 190 240 191
f 190 194 239
f 191 240 241
f 191 241 242
f 191 242 192
f 192 242 243
f 192 243 244
f 192 244 193
f 193 244 245
f 193 245 195
f 194 238 246
f 194 246 247
f 194 247 239
f 195 245 248
f 195 248 196
f 196 248 197
f 197 248 249
f 197 249 202
f 199 202 250
f 199 250 200
f 200 250 251
f 200 251 201
f 201 251 252
f 201 252 253
f 201 253 254
f 201 254 255
f 201 255 206
f 201 206 205
f 202 256 250
f 202 249 257
f 202 257 256
f 204 208 209
f 206 258 259
f 206 259 260
f 206 260 261
f 206 261 262
f 206 262 263
f 206 263 264
f 206 264 265
f 206 265 266
f 206 266 207
f 206 255 258
f 207 266 208
f 208 266 209
f 209 266 210
f 210 266 267
f 210 267 268
f 210 268 211
f 211 268 269
f 211 269 270
f 211 270 212
f 212 270 271
f 212 271 272
f 212 272 213
f 213 272 273
f 213 273 274
f 213 274 275
f 213 275 276
f 213 276 214
f 214 276 215
f 215 276 277
f 217 278 218
f 218 278 279
f 218 279 219
f 219 279 280
f 219 280 281
f 219 281 282
f 219 282 220
f 220 282 283
f 220 283 284
f 220 284 221
f 221 284 285
f 221 285 286
f 221 286 222
f 222 286 228
f 223 235 287
f 223 287 225
f 223 225 224
f 225 288 226
f 225 287 289
f 225 289 290
f 225 290 288
f 226 291 290
f 226 290 236
f 226 288 291
f 228 292 293
f 228 293 294
f 228 294 229
f 228 286 292
f 229 294 230
f 230 294 232
f 232 295 296
f 232 296 297
f 232 297 298
f 232 298 299
f 232 299 300
f 232 300 233
f 232 294 295
f 233 300 299
f 233 299 301
f 233 301 302
f 233 302 303
f 233 303 304
f 233 304 305
f 233 305 234
f 234 305 306
f 234 306 307
f 234 307 308
f 234 308 235
f 235 308 309
f 235 309 287
f 236 290 310
f 236 310 238
f 236 238 237
f 238 311 312
f 238 312 313
f 238 313 246
f 238 310 314
f 238 314 311
f 239 247 315
f 239 315 316
f 239 316 240
f 240 316 241
f 241 317 242
f 241 316 317
f 242 318 243
f 242 317 319
f 242 319 318
f 243 257 248
f 243 248 320
f 243 320 244
f 243 318 321
f 243 321 322
f 243 322 257
f 244 320 245
f 245 320 248
f 246 313 323
f 246 323 324
f 246 324 247
f 247 324 315
f 248 257 249
f 250 325 326
f 250 326 327
f 250 327 328
f 250 328 329
f 250 329 330
f 250 330 331
f 250 331 251
f 250 256 332
f 250 332 325
f 251 331 333
f 251 333 334
f 251 334 252
f 252 334 335
f 252 335 336
f 252 336 253
f 253 336 337
f 253 337 254
f 254 338 255
f 254 337 339
f 254 339 340
f 254 340 260
f 254 260 338
f 255 338 258
f 256 257 332
f 257 322 325
f 257 325 332
f 258 338 259
f 259 338 260
f 260 339 341
f 260 341 342
f 260 342 261
f 260 340 339
f 261 343 263
f 261 263 262
f 261 342 343
f 263 343 344
f 263 344 264
f 264 345 265
f 264 344 346
f 264 346 347
f 264 347 348
f 264 348 349
f 264 349 345
f 265 345 350
f 265 350 266
f 266 350 267
f 267 350 268
f 268 351 270
f 268 270 269
f 268 350 351
f 270 351 350
f 270 350 271
f 271 352 272
f 271 350 353
f 271 353 354
f 271 354 352
f 272 352 273
f 273 352 355
f 273 355 356
f 273 356 357
f 273 357 358
f 273 358 274
f 274 359 360
f 274 360 275
f 274 358 359
f 275 360 277
f 275 277 276
f 278 361 362
f 278 362 279
f 279 362 280
f 280 362 363
f 280 363 364
f 280 364 365
f 280 365 366
f 280 366 367
f 280 367 281
f 281 367 366
f 281 366 449
f 281 449 517
f 281 517 596
f 281 596 595
f 281 595 594
f 281 594 683
f 281 683 768
f 281 768 844
f 281 844 906
f 281 906 979
f 281 979 978
f 281 978 1044
f 281 1044 1043
f 281 1043 1042
f 281 1042 1096
f 281 1096 1095
f 281 1095 1094
f 281 1094 1093
f 281 1093 1127
f 281 1127 1126
f 281 1126 1125
f 281 1125 1124
f 281 1124 1123
f 281 1123 1140
f 281 1140 1147
f 281 1147 1146
f 281 1146 1152
f 281 1152 1158
f 281 1158 1162
f 281 1162 1166
f 281 1166 1170
f 281 1170 1174
f 281 1174 1177
f 281 1177 1175
f 281 1175 1171
f 281 1171 1167
f 281 1167 1163
f 281 1163 1159
f 281 1159 1154
f 281 1154 1150
f 281 1150 1148
f 281 1148 1143
f 281 1143 1133
f 281 1133 1120
f 281 1120 1119
f 281 1119 1118
f 281 1118 1117
f 281 1117 1116
f 281 1116 1121
f 281 1121 1112
f 281 1112 1110
f 281 1110 1107
f 281 1107 1131
f 281 1131 1142
f 281 1142 1141
f 281 1141 1128
f 281 1128 1103
f 281 1103 1061
f 281 1061 1102
f 281 1102 1101
f 281 1101 1100
f 281 1100 1056
f 281 1056 1059
f 281 1059 1067
f 281 1067 1066
f 281 1066 1098
f 281 1098 1097
f 281 1097 1047
f 281 1047 1046
f 281 1046 1045
f 281 1045 981
f 281 981 909
f 281 909 851
f 281 851 850
f 281 850 849
f 281 849 771
f 281 771 769
f 281 769 685
f 281 685 684
f 281 684 598
f 281 598 597
f 281 597 521
f 281 521 463
f 281 463 520
f 281 520 519
f 281 519 518
f 281 518 459
f 281 459 458
f 281 458 457
f 281 457 456
f 281 456 455
f 281 455 376
f 281 376 375
f 281 375 454
f 281 454 453
f 281 453 452
f 281 452 451
f 281 451 450
f 281 450 369
f 281 369 368
f 281 368 285
f 281 285 284
f 281 284 282
f 282 284 283
f 285 368 292
f 285 292 286
f 287 290 289
f 287 309 314
f 287 314 290
f 288 290 291
f 290 314 310
f 292 368 369
f 292 369 370
f 292 370 371
f 292 371 293
f 293 371 294
f 294 371 372
f 294 372 373
f 294 373 295
f 295 374 375
f 295 375 376
f 295 376 377
f 295 377 296
f 295 373 374
f 296 377 378
f 296 378 297
f 297 378 379
f 297 379 298
f 298 379 380
f 298 380 381
f 298 381 301
f 298 301 299
f 301 381 382
f 301 382 383
f 301 383 302
f 302 384 304
f 302 304 303
f 302 383 385
f 302 385 386
f 302 386 384
f 304 387 306
f 304 306 305
f 304 384 388
f 304 388 389
f 304 389 387
f 306 387 307
f 307 309 308
f 307 387 389
f 307 389 390
f 307 390 309
f 309 390 314
f 311 390 391
f 311 391 392
f 311 392 393
f 311 393 394
f 311 394 312
f 311 314 390
f 312 394 395
f 312 395 396
f 312 396 397
f 312 397 398
f 312 398 313
f 313 398 399
f 313 399 323
f 315 324 316
f 316 324 323
f 316 323 400
f 316 400 401
f 316 401 402
f 316 402 403
f 316 403 404
f 316 404 405
f 316 405 317
f 317 405 406
f 317 406 407
f 317 407 319
f 318 319 408
f 318 408 321
f 319 407 409
f 319 409 408
f 321 408 410
f 321 410 322
f 322 326 325
f 322 410 411
f 322 411 326
f 323 399 401
f 323 401 400
f 326 411 412
f 326 412 327
f 327 412 413
f 327 413 414
f 327 414 328
f 328 414 415
f 328 415 329
f 329 415 416
f 329 416 330
f 330 334 333
f 330 333 331
f 330 416 342
f 330 342 334
f 334 342 339
f 334 339 417
f 334 417 335
f 335 417 336
f 336 417 337
f 337 417 339
f 339 342 341
f 342 416 415
f 342 415 418
f 342 418 419
f 342 419 344
f 342 344 343
f 344 419 420
f 344 420 347
f 344 347 346
f 345 421 350
f 345 349 422
f 345 422 423
f 345 423 424
f 345 424 421
f 347 420 425
f 347 425 348
f 348 425 426
f 348 426 427
f 348 427 349
f 349 427 428
f 349 428 422
f 350 421 353
f 352 429 430
f 352 430 431
f 352 431 355
f 352 354 432
f 352 432 429
f 353 421 354
f 354 421 433
f 354 433 434
f 354 434 435
f 354 435 436
f 354 436 432
f 355 431 356
f 356 437 509
f 356 509 438
f 356 438 439
f 356 439 440
f 356 440 441
f 356 441 357
f 356 431 437
f 357 441 358
f 358 442 443
f 358 443 444
f 358 444 359
f 358 441 442
f 361 445 362
f 362 445 363
f 363 446 447
f 363 447 448
f 363 448 364
f 364 448 366
f 364 366 365
f 366 448 449
f 369 450 370
f 370 450 451
f 370 451 371
f 371 451 452
f 371 452 453
f 371 453 374
f 371 374 372
f 372 374 373
f 374 453 454
f 374 454 375
f 376 455 378
f 376 378 377
f 378 455 456
f 378 456 380
f 378 380 379
f 380 456 457
f 380 457 381
f 381 457 458
f 381 458 459
f 381 459 460
f 381 460 382
f 382 460 383
f 383 460 385
f 384 386 461
f 384 461 462
f 384 462 388
f 385 460 386
f 386 463 464
f 386 464 465
f 386 465 466
f 386 466 467
f 386 467 461
f 386 460 463
f 388 462 468
f 388 468 389
f 389 468 469
f 389 469 390
f 390 469 391
f 391 469 470
f 391 470 392
f 392 470 393
f 393 470 395
f 393 395 394
f 395 470 471
f 395 471 396
f 396 471 397
f 397 471 398
f 398 471 472
f 398 472 473
f 398 473 403
f 398 403 399
f 399 403 401
f 401 403 402
f 403 473 474
f 403 474 475
f 403 475 476
f 403 476 477
f 403 477 404
f 404 477 476
f 404 476 478
f 404 478 479
f 404 479 480
f 404 480 406
f 404 406 405
f 406 480 407
f 407 480 481
f 407 481 482
f 407 482 409
f 408 409 410
f 409 482 483
f 409 483 410
f 410 483 411
f 411 483 484
f 411 484 485
f 411 485 486
f 411 486 413
f 411 413 412
f 413 487 488
f 413 488 489
f 413 489 414
f 413 486 487
f 414 489 415
f 415 489 488
f 415 488 490
f 415 490 491
f 415 491 418
f 418 492 493
f 418 493 420
f 418 420 419
f 418 491 494
f 418 494 492
f 420 493 495
f 420 495 496
f 420 496 497
f 420 497 425
f 421 424 433
f 422 428 423
f 423 428 498
f 423 498 427
f 423 427 499
f 423 499 500
f 423 500 433
f 423 433 424
f 425 496 426
f 425 497 496
f 426 501 427
f 426 496 502
f 426 502 503
f 426 503 504
f 426 504 501
f 427 501 505
f 427 505 506
f 427 506 499
f 427 498 428
f 429 507 430
f 429 432 507
f 430 507 508
f 430 508 509
f 430 509 437
f 430 437 431
f 432 436 510
f 432 510 507
f 433 500 434
f 434 500 510
f 434 510 436
f 434 436 435
f 438 509 511
f 438 511 512
f 438 512 439
f 439 512 513
f 446 514 448
f 446 448 447
f 448 514 515
f 448 515 516
f 448 516 449
f 449 516 517
f 459 518 460
f 460 518 519
f 460 519 520
f 460 520 463
f 461 467 468
f 461 468 462
f 463 521 464
f 464 521 597
f 464 597 522
f 464 522 465
f 465 522 523
f 465 523 524
f 465 524 525
f 465 525 526
f 465 526 527
f 465 527 466
f 466 527 467
f 467 527 528
f 467 528 468
f 468 528 529
f 468 529 530
f 468 530 531
f 468 531 469
f 469 531 532
f 469 532 470
f 470 532 471
f 471 533 534
f 471 534 535
f 471 535 536
f 471 536 472
f 471 532 533
f 472 536 537
f 472 537 538
f 472 538 539
f 472 539 540
f 472 540 473
f 473 540 474
f 474 540 539
f 474 539 475
f 475 539 538
f 475 538 541
f 475 541 542
f 475 542 476
f 476 542 478
f 478 542 543
f 478 543 479
f 479 543 480
f 480 543 481
f 481 543 544
f 481 544 482
f 482 544 484
f 482 484 483
f 484 544 545
f 484 545 546
f 484 546 547
f 484 547 486
f 484 486 485
f 486 547 548
f 486 548 549
f 486 549 487
f 487 549 550
f 487 550 551
f 487 551 552
f 487 552 553
f 487 553 554
f 487 554 555
f 487 555 556
f 487 556 557
f 487 557 558
f 487 558 490
f 487 490 488
f 490 558 557
f 490 557 559
f 490 559 491
f 491 559 494
f 492 560 561
f 492 561 493
f 492 494 562
f 492 562 563
f 492 563 564
f 492 564 560
f 493 561 495
f 494 559 562
f 495 561 565
f 495 565 566
f 495 566 567
f 495 567 496
f 496 567 502
f 499 568 500
f 499 506 569
f 499 569 568
f 500 568 570
f 500 570 571
f 500 571 572
f 500 572 511
f 500 511 573
f 500 573 508
f 500 508 510
f 501 504 574
f 501 574 505
f 502 575 576
f 502 576 503
f 502 567 577
f 502 577 564
f 502 564 578
f 502 578 563
f 502 563 579
f 502 579 580
f 502 580 581
f 502 581 582
f 502 582 575
f 503 576 504
f 504 576 583
f 504 583 584
f 504 584 574
f 505 574 506
f 506 574 585
f 506 585 586
f 506 586 587
f 506 587 588
f 506 588 569
f 507 510 508
f 508 573 509
f 509 573 511
f 511 572 512
f 512 572 589
f 512 589 590
f 512 590 591
f 512 591 513
f 513 591 592
f 515 593 594
f 515 594 516
f 516 594 595
f 516 595 596
f 516 596 517
f 522 597 598
f 522 598 599
f 522 599 600
f 522 600 523
f 523 600 601
f 523 601 602
f 523 602 603
f 523 603 604
f 523 604 524
f 524 530 529
f 524 529 528
f 524 528 605
f 524 605 527
f 524 527 525
f 524 604 606
f 524 606 530
f 525 527 526
f 527 605 528
f 530 606 531
f 531 606 607
f 531 607 533
f 531 533 532
f 533 607 534
f 534 608 535
f 534 607 609
f 534 609 608
f 535 608 610
f 535 610 536
f 536 610 537
f 537 610 611
f 537 611 612
f 537 612 538
f 538 611 613
f 538 613 614
f 538 614 615
f 538 615 616
f 538 616 542
f 538 542 541
f 538 612 611
f 542 544 543
f 542 616 617
f 542 617 618
f 542 618 544
f 544 618 617
f 544 617 619
f 544 619 545
f 545 619 546
f 546 620 547
f 546 619 621
f 546 621 622
f 546 622 623
f 546 623 624
f 546 624 620
f 547 620 548
f 548 624 625
f 548 625 626
f 548 626 549
f 548 620 624
f 549 626 550
f 550 626 627
f 550 627 628
f 550 628 551
f 551 628 629
f 551 629 630
f 551 630 631
f 551 631 632
f 551 632 633
f 551 633 634
f 551 634 635
f 551 635 636
f 551 636 637
f 551 637 638
f 551 638 552
f 552 639 554
f 552 554 553
f 552 638 640
f 552 640 641
f 552 641 639
f 554 639 642
f 554 642 643
f 554 643 644
f 554 644 555
f 555 644 645
f 555 645 646
f 555 646 647
f 555 647 556
f 556 647 557
f 557 562 559
f 557 647 648
f 557 648 563
f 557 563 562
f 560 566 565
f 560 565 561
f 560 564 577
f 560 577 566
f 563 648 649
f 563 649 650
f 563 650 580
f 563 580 579
f 563 578 564
f 566 577 567
f 568 569 570
f 569 588 570
f 570 588 651
f 570 651 652
f 570 652 653
f 570 653 654
f 570 654 655
f 570 655 656
f 570 656 657
f 570 657 571
f 571 657 658
f 571 658 659
f 571 659 572
f 572 659 589
f 574 660 586
f 574 586 585
f 574 584 661
f 574 661 662
f 574 662 660
f 575 582 576
f 576 663 583
f 576 582 664
f 576 664 663
f 580 650 581
f 581 665 666
f 581 666 667
f 581 667 582
f 581 650 665
f 582 667 668
f 582 668 669
f 582 669 670
f 582 670 671
f 582 671 664
f 583 663 672
f 583 672 584
f 584 672 673
f 584 673 674
f 584 674 675
f 584 675 661
f 586 660 662
f 586 662 587
f 587 676 651
f 587 651 588
f 587 662 677
f 587 677 676
f 589 659 678
f 589 678 591
f 589 591 590
f 591 678 679
f 591 679 680
f 591 680 681
f 591 681 592
f 593 682 594
f 594 682 683
f 598 684 599
f 599 684 685
f 599 685 686
f 599 686 600
f 600 686 687
f 600 687 688
f 600 688 689
f 600 689 690
f 600 690 691
f 600 691 692
f 600 692 601
f 601 691 602
f 601 692 691
f 602 691 693
f 602 693 603
f 603 694 604
f 603 693 694
f 604 694 606
f 606 694 695
f 606 695 607
f 607 695 691
f 607 691 696
f 607 696 609
f 608 609 697
f 608 697 613
f 608 613 611
f 608 611 610
f 609 698 699
f 609 699 700
f 609 700 697
f 609 696 701
f 609 701 698
f 613 697 614
f 614 700 702
f 614 702 703
f 614 703 615
f 614 697 700
f 615 703 704
f 615 704 616
f 616 704 617
f 617 704 631
f 617 631 705
f 617 705 706
f 617 706 619
f 619 706 705
f 619 705 707
f 619 707 622
f 619 622 621
f 622 708 623
f 622 707 708
f 623 708 624
f 624 708 629
f 624 629 625
f 625 629 627
f 625 627 626
f 627 629 628
f 629 705 709
f 629 709 631
f 629 631 630
f 629 708 707
f 629 707 705
f 631 710 711
f 631 711 633
f 631 633 632
f 631 709 705
f 631 704 710
f 633 712 713
f 633 713 714
f 633 714 715
f 633 715 634
f 633 711 712
f 634 715 716
f 634 716 717
f 634 717 635
f 635 717 718
f 635 718 719
f 635 719 636
f 636 720 637
f 636 719 721
f 636 721 720
f 637 720 638
f 638 720 722
f 638 722 640
f 639 641 643
f 639 643 642
f 640 722 723
f 640 723 641
f 641 723 643
f 643 723 644
f 644 723 720
f 644 720 724
f 644 724 646
f 644 646 645
f 646 648 647
f 646 724 725
f 646 725 726
f 646 726 648
f 648 726 649
f 649 726 650
f 650 726 727
f 650 727 728
f 650 728 729
f 650 729 665
f 651 730 652
f 651 676 677
f 651 677 731
f 651 731 732
f 651 732 733
f 651 733 730
f 652 730 653
f 653 730 654
f 654 734 735
f 654 735 655
f 654 730 734
f 655 735 656
f 656 735 657
f 657 735 736
f 657 736 737
f 657 737 658
f 658 737 738
f 658 738 659
f 659 738 678
f 661 675 662
f 662 675 674
f 662 674 739
f 662 739 740
f 662 740 677
f 663 664 672
f 664 671 741
f 664 741 672
f 665 729 742
f 665 742 666
f 666 742 743
f 666 743 744
f 666 744 745
f 666 745 746
f 666 746 747
f 666 747 668
f 666 668 667
f 668 748 669
f 668 747 749
f 668 749 748
f 669 748 750
f 669 750 751
f 669 751 670
f 670 752 671
f 670 751 750
f 670 750 753
f 670 753 752
f 671 752 741
f 672 741 754
f 672 754 755
f 672 755 673
f 673 755 754
f 673 754 741
f 673 741 756
f 673 756 757
f 673 757 758
f 673 758 739
f 673 739 674
f 677 740 731
f 678 738 737
f 678 737 736
f 678 736 759
f 678 759 679
f 679 759 680
f 680 760 681
f 680 759 761
f 680 761 842
f 680 842 762
f 680 762 763
f 680 763 764
f 680 764 760
f 682 765 683
f 683 765 766
f 683 766 767
f 683 767 768
f 685 769 686
f 686 769 687
f 687 770 688
f 687 769 771
f 687 771 772
f 687 772 773
f 687 773 770
f 688 774 689
f 688 770 775
f 688 775 776
f 688 776 774
f 689 698 690
f 689 774 776
f 689 776 777
f 689 777 778
f 689 778 779
f 689 779 698
f 690 698 701
f 690 701 691
f 691 701 696
f 691 695 694
f 691 694 693
f 698 779 699
f 699 779 780
f 699 780 700
f 700 780 781
f 700 781 782
f 700 782 783
f 700 783 784
f 700 784 702
f 702 784 710
f 702 710 703
f 703 710 704
f 710 784 711
f 711 785 786
f 711 786 712
f 711 784 785
f 712 786 713
f 713 786 787
f 713 787 788
f 713 788 714
f 714 788 789
f 714 789 715
f 715 789 790
f 715 790 791
f 715 791 716
f 716 791 717
f 717 791 790
f 717 790 792
f 717 792 793
f 717 793 794
f 717 794 718
f 718 795 796
f 718 796 797
f 718 797 798
f 718 798 799
f 718 799 719
f 718 794 795
f 719 799 721
f 720 800 724
f 720 723 722
f 720 721 725
f 720 725 800
f 721 799 725
f 724 800 725
f 725 799 801
f 725 801 728
f 725 728 727
f 725 727 726
f 728 801 802
f 728 802 803
f 728 803 729
f 729 803 804
f 729 804 742
f 730 733 805
f 730 805 734
f 731 740 806
f 731 806 732
f 732 806 733
f 733 806 807
f 733 807 808
f 733 808 805
f 734 809 808
f 734 808 810
f 734 810 811
f 734 811 812
f 734 812 735
f 734 805 809
f 735 812 813
f 735 813 814
f 735 814 736
f 736 814 759
f 739 815 740
f 739 758 816
f 739 816 815
f 740 815 817
f 740 817 818
f 740 818 807
f 740 807 806
f 741 752 756
f 742 804 743
f 743 804 744
f 744 804 745
f 745 804 819
f 745 819 747
f 745 747 746
f 747 819 749
f 748 749 820
f 748 820 750
f 749 821 822
f 749 822 823
f 749 823 824
f 749 824 820
f 749 819 821
f 750 820 824
f 750 824 825
f 750 825 826
f 750 826 827
f 750 827 828
f 750 828 829
f 750 829 830
f 750 830 831
f 750 831 832
f 750 832 833
f 750 833 834
f 750 834 835
f 750 835 836
f 750 836 837
f 750 837 838
f 750 838 758
f 750 758 756
f 750 756 753
f 752 753 756
f 756 758 757
f 758 838 839
f 758 839 816
f 759 814 761
f 761 814 840
f 761 840 841
f 761 841 842
f 767 843 844
f 767 844 768
f 770 845 846
f 770 846 775
f 770 773 847
f 770 847 848
f 770 848 845
f 771 849 772
f 772 849 850
f 772 850 851
f 772 851 852
f 772 852 853
f 772 853 773
f 773 853 847
f 775 846 778
f 775 778 776
f 776 778 777
f 778 846 854
f 778 854 780
f 778 780 779
f 780 854 855
f 780 855 781
f 781 855 856
f 781 856 857
f 781 857 782
f 782 857 787
f 782 787 786
f 782 786 858
f 782 858 783
f 783 858 784
f 784 858 785
f 785 858 786
f 787 857 859
f 787 859 788
f 788 859 860
f 788 860 861
f 788 861 862
f 788 862 863
f 788 863 789
f 789 863 790
f 790 863 862
f 790 862 864
f 790 864 792
f 792 864 795
f 792 795 793
f 793 795 794
f 795 865 796
f 795 864 866
f 795 866 865
f 796 865 867
f 796 867 797
f 797 867 868
f 797 868 798
f 798 868 869
f 798 869 870
f 798 870 871
f 798 871 872
f 798 872 873
f 798 873 874
f 798 874 799
f 799 874 802
f 799 802 801
f 802 874 875
f 802 875 803
f 803 875 804
f 804 875 876
f 804 876 819
f 805 808 809
f 807 818 808
f 808 818 810
f 810 818 817
f 810 817 815
f 810 815 839
f 810 839 811
f 811 839 838
f 811 838 877
f 811 877 812
f 812 878 813
f 812 877 878
f 813 878 814
f 814 878 840
f 815 816 839
f 819 876 879
f 819 879 880
f 819 880 822
f 819 822 821
f 822 880 881
f 822 881 823
f 823 881 824
f 824 881 825
f 825 882 827
f 825 827 826
f 825 881 883
f 825 883 882
f 827 884 828
f 827 882 885
f 827 885 886
f 827 886 887
f 827 887 884
f 828 884 829
f 829 884 888
f 829 888 830
f 830 888 831
f 831 888 889
f 831 889 832
f 832 889 890
f 832 890 891
f 832 891 834
f 832 834 833
f 834 892 893
f 834 893 894
f 834 894 895
f 834 895 896
f 834 896 897
f 834 897 835
f 834 891 892
f 835 897 898
f 835 898 836
f 836 898 899
f 836 899 900
f 836 900 837
f 837 900 838
f 838 900 901
f 838 901 902
f 838 902 877
f 840 878 841
f 841 878 842
f 842 878 903
f 842 903 904
f 843 905 844
f 844 905 906
f 845 848 908
f 845 908 854
f 845 854 846
f 847 853 907
f 847 907 848
f 848 907 908
f 851 909 910
f 851 910 852
f 852 910 853
f 853 910 911
f 853 911 912
f 853 912 913
f 853 913 907
f 854 908 914
f 854 914 855
f 855 914 856
f 856 914 915
f 856 915 916
f 856 916 917
f 856 917 918
f 856 918 860
f 856 860 859
f 856 859 857
f 860 918 919
f 860 919 920
f 860 920 921
f 860 921 922
f 860 922 923
f 860 923 924
f 860 924 925
f 860 925 861
f 861 926 862
f 861 925 927
f 861 927 926
f 862 926 866
f 862 866 864
f 865 927 867
f 865 866 927
f 866 926 927
f 867 927 869
f 867 869 868
f 869 928 929
f 869 929 930
f 869 930 870
f 869 927 928
f 870 930 871
f 871 930 873
f 871 873 872
f 873 931 874
f 873 930 932
f 873 932 933
f 873 933 934
f 873 934 935
f 873 935 936
f 873 936 937
f 873 937 938
f 873 938 931
f 874 931 875
f 875 931 939
f 875 939 883
f 875 883 940
f 875 940 879
f 875 879 876
f 877 902 941
f 877 941 942
f 877 942 943
f 877 943 944
f 877 944 945
f 877 945 946
f 877 946 878
f 878 946 903
f 879 940 880
f 880 883 881
f 880 940 883
f 882 947 885
f 882 883 948
f 882 948 937
f 882 937 936
f 882 936 947
f 883 939 948
f 884 887 949
f 884 949 950
f 884 950 951
f 884 951 888
f 885 947 886
f 886 952 887
f 886 947 953
f 886 953 954
f 886 954 952
f 887 952 955
f 887 955 956
f 887 956 957
f 887 957 949
f 888 951 958
f 888 958 889
f 889 959 960
f 889 960 890
f 889 958 961
f 889 961 959
f 890 962 891
f 890 960 962
f 891 963 892
f 891 962 964
f 891 964 965
f 891 965 963
f 892 966 967
f 892 967 893
f 892 963 966
f 893 967 968
f 893 968 894
f 894 969 896
f 894 896 895
f 894 968 970
f 894 970 971
f 894 971 969
f 896 969 897
f 897 969 971
f 897 971 898
f 898 971 899
f 899 971 970
f 899 970 900
f 900 970 972
f 900 972 901
f 901 972 902
f 902 973 941
f 902 972 974
f 902 974 975
f 902 975 973
f 903 946 904
f 904 946 976
f 905 977 978
f 905 978 979
f 905 979 906
f 907 913 980
f 907 980 916
f 907 916 908
f 908 916 914
f 909 981 910
f 910 981 911
f 911 982 983
f 911 983 984
f 911 984 912
f 911 981 985
f 911 985 986
f 911 986 982
f 912 984 913
f 913 984 980
f 914 916 915
f 916 980 917
f 917 980 984
f 917 984 919
f 917 919 918
f 919 984 983
f 919 983 920
f 920 983 982
f 920 982 921
f 921 987 922
f 921 982 987
f 922 987 988
f 922 988 989
f 922 989 923
f 923 989 924
f 924 990 991
f 924 991 927
f 924 927 925
f 924 989 990
f 927 991 928
f 928 992 993
f 928 993 994
f 928 994 995
f 928 995 1063
f 928 1063 996
f 928 996 929
f 928 991 997
f 928 997 998
f 928 998 992
f 929 996 999
f 929 999 1000
f 929 1000 1001
f 929 1001 1002
f 929 1002 930
f 930 933 932
f 930 1002 1003
f 930 1003 933
f 931 938 948
f 931 948 939
f 933 1003 1004
f 933 1004 1005
f 933 1005 934
f 934 1005 935
f 935 1005 936
f 936 1005 947
f 937 948 938
f 941 973 1006
f 941 1006 1007
f 941 1007 942
f 942 1007 1008
f 942 1008 1006
f 942 1006 1009
f 942 1009 1010
f 942 1010 943
f 943 1010 1011
f 943 1011 1012
f 943 1012 1013
f 943 1013 1014
f 943 1014 944
f 944 1014 945
f 945 1014 976
f 945 976 946
f 947 1005 1015
f 947 1015 1001
f 947 1001 1016
f 947 1016 1017
f 947 1017 1018
f 947 1018 1019
f 947 1019 953
f 949 957 950
f 950 1020 951
f 950 957 1020
f 951 961 958
f 951 1020 960
f 951 960 961
f 952 954 955
f 953 1019 1021
f 953 1021 1022
f 953 1022 1023
f 953 1023 1024
f 953 1024 954
f 954 1024 955
f 955 1024 1025
f 955 1025 1026
f 955 1026 1027
f 955 1027 1028
f 955 1028 1029
f 955 1029 956
f 956 1029 957
f 957 1029 1020
f 959 961 960
f 960 1020 1029
f 960 1029 1028
f 960 1028 1030
f 960 1030 962
f 962 1030 1031
f 962 1031 964
f 963 965 1032
f 963 1032 966
f 964 1031 1033
f 964 1033 965
f 965 1033 1032
f 966 1032 967
f 967 1034 974
f 967 974 968
f 967 1032 1035
f 967 1035 1036
f 967 1036 1034
f 968 974 970
f 970 974 972
f 973 975 1037
f 973 1037 1038
f 973 1038 1006
f 974 1034 1039
f 974 1039 1038
f 974 1038 975
f 975 1038 1040
f 975 1040 1037
f 977 1041 1042
f 977 1042 1043
f 977 1043 1044
f 977 1044 978
f 981 1045 985
f 982 986 988
f 982 988 987
f 985 1045 1046
f 985 1046 1047
f 985 1047 1048
f 985 1048 986
f 986 1048 988
f 988 1049 989
f 988 1048 1050
f 988 1050 1049
f 989 1049 1051
f 989 1051 1052
f 989 1052 1053
f 989 1053 990
f 990 1054 1055
f 990 1055 991
f 990 1053 1054
f 991 1055 997
f 992 1056 1100
f 992 1100 1057
f 992 1057 1058
f 992 1058 993
f 992 998 1059
f 992 1059 1056
f 993 1058 994
f 994 1058 1057
f 994 1057 1060
f 994 1060 1061
f 994 1061 1062
f 994 1062 995
f 995 1061 1063
f 995 1062 1061
f 996 1063 1016
f 996 1016 999
f 997 1055 1064
f 997 1064 998
f 998 1064 1065
f 998 1065 1066
f 998 1066 1067
f 998 1067 1059
f 999 1016 1000
f 1000 1016 1001
f 1001 1015 1005
f 1001 1005 1002
f 1002 1005 1004
f 1002 1004 1003
f 1006 1008 1007
f 1006 1038 1009
f 1009 1038 1010
f 1010 1038 1068
f 1010 1068 1069
f 1010 1069 1011
f 1016 1070 1071
f 1016 1071 1018
f 1016 1018 1017
f 1016 1063 1070
f 1018 1071 1019
f 1019 1072 1021
f 1019 1071 1072
f 1021 1072 1073
f 1021 1073 1105
f 1021 1105 1074
f 1021 1074 1075
f 1021 1075 1076
f 1021 1076 1025
f 1021 1025 1022
f 1022 1025 1023
f 1023 1025 1024
f 1025 1077 1026
f 1025 1076 1077
f 1026 1078 1079
f 1026 1079 1080
f 1026 1080 1081
f 1026 1081 1082
f 1026 1082 1027
f 1026 1077 1078
f 1027 1082 1083
f 1027 1083 1028
f 1028 1083 1030
f 1030 1083 1082
f 1030 1082 1084
f 1030 1084 1031
f 1031 1084 1085
f 1031 1085 1032
f 1031 1032 1033
f 1032 1087 1035
f 1032 1085 1088
f 1032 1088 1089
f 1032 1089 1090
f 1032 1090 1091
f 1032 1091 1086
f 1034 1036 1038
f 1034 1038 1039
f 1035 1087 1068
f 1035 1068 1038
f 1035 1038 1036
f 1037 1040 1038
f 1041 1092 1093
f 1041 1093 1094
f 1041 1094 1095
f 1041 1095 1096
f 1041 1096 1042
f 1047 1097 1048
f 1048 1097 1098
f 1048 1098 1050
f 1049 1050 1051
f 1050 1099 1051
f 1050 1098 1066
f 1050 1066 1099
f 1051 1099 1065
f 1051 1065 1052
f 1052 1065 1064
f 1052 1064 1054
f 1052 1054 1053
f 1054 1064 1055
f 1057 1100 1101
f 1057 1101 1102
f 1057 1102 1060
f 1060 1102 1061
f 1061 1103 1071
f 1061 1071 1063
f 1063 1071 1070
f 1065 1099 1066
f 1068 1087 1069
f 1071 1103 1104
f 1071 1104 1072
f 1072 1104 1073
f 1073 1104 1103
f 1073 1103 1105
f 1074 1105 1106
f 1074 1106 1107
f 1074 1107 1108
f 1074 1108 1075
f 1075 1108 1111
f 1075 1111 1109
f 1075 1109 1078
f 1075 1078 1076
f 1076 1078 1077
f 1078 1110 1079
f 1078 1109 1111
f 1078 1111 1110
f 1079 1110 1080
f 1080 1112 1113
f 1080 1113 1114
f 1080 1114 1081
f 1080 1110 1112
f 1081 1114 1090
f 1081 1090 1082
f 1082 1090 1084
f 1084 1089 1088
f 1084 1088 1085
f 1084 1090 1089
f 1086 1091 1116
f 1086 1116 1117
f 1086 1117 1118
f 1086 1118 1119
f 1086 1119 1120
f 1086 1120 1115
f 1090 1114 1113
f 1090 1113 1091
f 1091 1113 1112
f 1091 1112 1121
f 1091 1121 1116
f 1092 1122 1123
f 1092 1123 1124
f 1092 1124 1125
f 1092 1125 1126
f 1092 1126 1127
f 1092 1127 1093
f 1103 1128 1129
f 1103 1129 1105
f 1105 1129 1106
f 1106 1130 1131
f 1106 1131 1107
f 1106 1129 1130
f 1107 1110 1111
f 1107 1111 1108
f 1115 1120 1132
f 1120 1133 1134
f 1120 1134 1132
f 1122 1135 1123
f 1123 1135 1136
f 1123 1136 1137
f 1123 1137 1138
f 1123 1138 1139
f 1123 1139 1140
f 1128 1141 1129
f 1129 1141 1130
f 1130 1142 1131
f 1130 1141 1142
f 1133 1143 1144
f 1133 1144 1134
f 1139 1145 1146
f 1139 1146 1147
f 1139 1147 1140
f 1143 1148 1144
f 1144 1148 1150
f 1144 1150 1149
f 1145 1151 1152
f 1145 1152 1146
f 1149 1150 1153
f 1150 1154 1155
f 1150 1155 1153
f 1151 1156 1152
f 1152 1156 1157
f 1152 1157 1158
f 1154 1159 1160
f 1154 1160 1155
f 1157 1161 1162
f 1157 1162 1158
f 1159 1163 1160
f 1160 1163 1164
f 1161 1165 1162
f 1162 1165 1166
f 1163 1167 1168
f 1163 1168 1164
f 1165 1169 1166
f 1166 1169 1170
f 1167 1171 1168
f 1168 1171 1172
f 1169 1173 1174
f 1169 1174 1170
f 1171 1175 1176
f 1171 1176 1172
f 1173 1176 1175
f 1173 1175 1177
f 1173 1177 1174

