# https://github.com/mikedh/trimesh
v -0.03500566 -0.49275726 -0.01504201
v -0.02576546 -0.49263501 -0.01583673
v -0.02576546 -0.49263501 -0.01504201
v -0.02576546 -0.48383072 0.04495928
v -0.06024654 -0.47999924 0.05003665
v -0.04500608 -0.49177903 -0.01504201
v -0.06094340 -0.49010783 -0.02104655
v -0.05500650 -0.49059695 -0.02325411
v -0.03500566 -0.49239042 -0.02506430
v -0.02576546 -0.49239042 -0.02506430
v -0.02576546 -0.48146659 0.05498157
v -0.06414716 -0.47861338 0.05401024
v -0.07498924 -0.47734979 0.05493741
v -0.03670709 -0.47971392 0.05886686
v -0.06094340 -0.49010783 -0.01919221
v -0.11499092 -0.48232257 -0.02506430
v -0.11822183 -0.48179269 -0.02749261
v -0.02576546 -0.48521656 -0.13495627
v -0.02576546 -0.48012149 0.06023554
v -0.03003713 -0.47995847 0.05992648
v -0.06500693 -0.47514874 0.06495970
v -0.07498924 -0.47421122 0.06495970
v -0.08498966 -0.47258079 0.06495970
v -0.08498966 -0.47555631 0.05493741
v -0.11822183 -0.48016226 -0.01190729
v -0.10499050 -0.48268944 -0.01504201
v -0.11822183 -0.48183346 -0.02493185
v -0.11822183 -0.48097748 -0.03442432
v -0.03500566 -0.48366767 -0.13495627
v -0.02576546 -0.48513505 -0.13575101
v -0.02576546 -0.47347754 0.07493784
v -0.04743152 -0.46039343 0.11043529
v -0.05079818 -0.46039343 0.11043529
v -0.09043785 -0.47005367 0.07016953
v -0.11047490 -0.45028478 0.12072249
v -0.09709877 -0.46944225 0.06769707
v -0.11822183 -0.46304286 0.07511444
v -0.11822183 -0.46585530 0.06495970
v -0.08817531 -0.47486341 0.05498157
v -0.11822183 -0.47971392 -0.00921407
v -0.11822183 -0.48069215 -0.01574843
v -0.11822183 -0.48089597 -0.01733787
v -0.11822183 -0.46157545 -0.14493442
v -0.11499092 -0.46247220 -0.14493442
v -0.09004870 -0.46997213 -0.13998950
v -0.04333181 -0.48077369 -0.14259441
v -0.03541292 -0.48167041 -0.14555253
v -0.02576546 -0.48338234 -0.14502272
v -0.02576546 -0.47058356 0.08103069
v -0.02576546 -0.45252663 0.11573341
v -0.03694240 -0.45146686 0.12164965
v -0.04267114 -0.45146686 0.12164965
v -0.10499050 -0.44107291 0.13065648
v -0.11108126 -0.44086909 0.13039157
v -0.11774217 -0.43883109 0.12774250
v -0.11822183 -0.43862730 0.12756591
v -0.11822183 -0.44331473 0.12081079
v -0.11822183 -0.46059722 0.08138390
v -0.11822183 -0.46797487 0.05489326
v -0.11173287 -0.47037974 0.05144948
v -0.11822183 -0.46096405 -0.14824575
v -0.11822183 -0.46027112 -0.15164538
v -0.08817531 -0.47017592 -0.14126989
v -0.08024738 -0.47001290 -0.15018839
v -0.11052015 -0.46010810 -0.16025484
v -0.06551373 -0.47176558 -0.15557483
v -0.03902393 -0.47971392 -0.14926122
v -0.03235397 -0.48048836 -0.15164538
v -0.02576546 -0.48093671 -0.15323481
v -0.02576546 -0.45142609 0.11719041
v -0.02576546 -0.44612724 0.12394552
v -0.02576546 -0.43699688 0.13515988
v -0.02576546 -0.43557024 0.13688177
v -0.09499913 -0.41131771 0.16094410
v -0.10241121 -0.41103238 0.16089995
v -0.11822183 -0.43389904 0.13264327
v -0.11822183 -0.39118201 0.17061318
v -0.11822183 -0.45904833 -0.15654615
v -0.11719011 -0.45925212 -0.15698765
v -0.08691734 -0.46919769 -0.14670047
v -0.11822183 -0.45851845 -0.15804729
v -0.11822183 -0.45578748 -0.16471410
v -0.11431216 -0.45725483 -0.16414014
v -0.10499050 -0.45815158 -0.16656844
v -0.10499050 -0.46071950 -0.16153522
v -0.06252718 -0.47050202 -0.16100541
v -0.06918810 -0.46976835 -0.15932767
v -0.03541292 -0.47869489 -0.15495671
v -0.02576546 -0.47938782 -0.15817973
v -0.02576546 -0.42607304 0.14359273
v -0.03500566 -0.38873640 0.16950941
v -0.09499913 -0.40495908 0.16416712
v -0.10790465 -0.39224178 0.17092223
v -0.11499092 -0.39203799 0.17096639
v -0.11822183 -0.35005462 0.19092266
v -0.11822183 -0.45440161 -0.16749561
v -0.11499092 -0.45211902 -0.17301449
v -0.09499913 -0.45925212 -0.16864353
v -0.05500650 -0.47139877 -0.16241823
v -0.02576546 -0.47902095 -0.15893030
v -0.02576546 -0.39533961 0.16346072
v -0.02576546 -0.38580161 0.16920035
v -0.03715055 -0.36187518 0.18103284
v -0.06890754 -0.37031263 0.18028226
v -0.07507975 -0.36574745 0.18248981
v -0.07498924 -0.34190252 0.19101097
v -0.11822183 -0.34455198 0.19198230
v -0.11822183 -0.45167065 -0.17235222
v -0.08817531 -0.45994502 -0.16992392
v -0.11499092 -0.44853210 -0.17800356
v -0.09499913 -0.45073318 -0.18104999
v -0.08817531 -0.45146686 -0.18210961
v -0.05867182 -0.45970047 -0.17954884
v -0.04500608 -0.47245854 -0.16414014
v -0.05500650 -0.46838248 -0.16745146
v -0.03596498 -0.47323298 -0.16590618
v -0.02576546 -0.47559708 -0.16502315
v -0.02576546 -0.35331547 0.18063547
v -0.02982898 -0.33020425 0.19003965
v -0.08498966 -0.33497325 0.19264457
v -0.11822183 -0.33819333 0.19299777
v -0.11822183 -0.44824678 -0.17703223
v -0.03993800 -0.46997213 -0.16992392
v -0.04500608 -0.46944225 -0.16912919
v -0.11756116 -0.43936098 -0.18935038
v -0.11453842 -0.44294789 -0.18559754
v -0.08498966 -0.45183370 -0.18255112
v -0.03500566 -0.46214610 -0.18312508
v -0.03596498 -0.46768954 -0.17455977
v -0.03326803 -0.47062430 -0.17098354
v -0.02576546 -0.47531176 -0.16550881
v -0.02576546 -0.35258180 0.18085623
v -0.02576546 -0.33566618 0.18580115
v -0.02576546 -0.33411726 0.18619850
v -0.02982898 -0.32959285 0.19003965
v -0.04500608 -0.28500083 0.19502872
v -0.05500650 -0.28500083 0.19675061
v -0.11822183 -0.33497325 0.19339512
v -0.11822183 -0.43923870 -0.18921793
v -0.11822183 -0.43879032 -0.18961529
v -0.11499092 -0.41836929 -0.20855609
v -0.10787750 -0.41946983 -0.20952742
v -0.11090025 -0.44013542 -0.19014511
v -0.07498924 -0.44910276 -0.18895303
v -0.03500566 -0.45843691 -0.18811415
v -0.02576546 -0.45941514 -0.18926208
v -0.02576546 -0.46267599 -0.18467037
v -0.02576546 -0.46797487 -0.17681149
v -0.02576546 -0.47123569 -0.17186657
v -0.02576546 -0.33403575 0.18619850
v -0.02576546 -0.32584289 0.18553624
v -0.02576546 -0.28500083 0.18019396
v -0.03876148 -0.27766392 0.19101097
v -0.03831802 -0.28500083 0.19140834
v -0.04460788 -0.27464765 0.19268870
v -0.05500650 -0.27505526 0.19489627
v -0.11499092 -0.19928141 0.18054716
v -0.11822183 -0.28467473 0.19577928
v -0.11822183 -0.29527247 0.19692720
v -0.11822183 -0.41767639 -0.20798212
v -0.11499092 -0.41335577 -0.21288289
v -0.10472804 -0.41567910 -0.21336855
v -0.05900667 -0.41967362 -0.21977046
v -0.06905234 -0.44975489 -0.18970358
v -0.03500566 -0.43288004 -0.21270630
v -0.03500566 -0.44315171 -0.20299307
v -0.03500566 -0.45342335 -0.19323568
v -0.02576546 -0.45900756 -0.18965945
v -0.02576546 -0.25451195 0.17405696
v -0.02576546 -0.22504207 0.16619807
v -0.02576546 -0.21701226 0.16319580
v -0.02576546 -0.21631932 0.16293089
v -0.07822920 -0.21953940 0.18014981
v -0.10875537 -0.19952598 0.18037057
v -0.11822183 -0.12684993 0.12217948
v -0.11822183 -0.19944446 0.18041472
v -0.11822183 -0.41266280 -0.21230893
v -0.11499092 -0.40642646 -0.21787196
v -0.10499050 -0.40838295 -0.21906404
v -0.09782278 -0.40936121 -0.21963800
v -0.05235481 -0.42044806 -0.22034442
v -0.02576546 -0.42794803 -0.21893159
v -0.02576546 -0.42831486 -0.21862254
v -0.03500566 -0.42733663 -0.21773951
v -0.02576546 -0.43340993 -0.21403082
v -0.02576546 -0.43883109 -0.20890930
v -0.02576546 -0.45436084 -0.19416285
v -0.02576546 -0.19846621 0.15180483
v -0.11822183 -0.12195867 0.11816172
v -0.11822183 -0.40561125 -0.21734215
v -0.11822183 -0.40259498 -0.21919650
v -0.11499092 -0.40145367 -0.22069763
v -0.10499050 -0.40336943 -0.22166896
v -0.09469143 -0.40561125 -0.22202216
v -0.04500608 -0.41498619 -0.22427386
v -0.03500566 -0.41498619 -0.22568670
v -0.03500566 -0.42232305 -0.22158065
v -0.02576546 -0.42334208 -0.22215462
v -0.02576546 -0.18391469 0.13343799
v -0.11822183 -0.11608915 0.11281945
v -0.11822183 -0.40063846 -0.22030027
v -0.10499050 -0.39497274 -0.22586331
v -0.11315374 -0.38164407 -0.23076408
v -0.10499050 -0.37495932 -0.23575315
v -0.10499050 -0.38832879 -0.22917463
v -0.09831148 -0.36941588 -0.23972674
v -0.09498103 -0.37426639 -0.23782824
v -0.04500608 -0.38690215 -0.23844635
v -0.03500566 -0.39497274 -0.23575315
v -0.02683337 -0.40927970 -0.22961615
v -0.02576546 -0.41413021 -0.22727615
v -0.02576546 -0.17894191 0.12593231
v -0.02576546 -0.16112955 0.09851451
v -0.11822183 -0.11127941 0.10496056
v -0.11822183 -0.39497274 -0.22303765
v -0.11822183 -0.37312511 -0.23358974
v -0.11822183 -0.36485070 -0.23756334
v -0.11562443 -0.36480996 -0.23822559
v -0.11271028 -0.36138606 -0.24056561
v -0.10499050 -0.36811155 -0.23906447
v -0.10499050 -0.36309803 -0.24122788
v -0.08816627 -0.36953819 -0.24096297
v -0.08817531 -0.37092403 -0.24043316
v -0.04500608 -0.38188863 -0.24096297
v -0.03500566 -0.38327447 -0.24162523
v -0.02696008 -0.38930702 -0.23963843
v -0.02576546 -0.38942933 -0.23972674
v -0.02576546 -0.41107315 -0.22882143
v -0.02576546 -0.16092575 0.09816130
v -0.11822183 -0.07638839 -0.03499829
v -0.02576546 -0.15864316 0.09321638
v -0.11822183 -0.35979640 -0.23994750
v -0.11822183 -0.35486439 -0.24136032
v -0.11562443 -0.35567960 -0.24158108
v -0.10499050 -0.35494590 -0.24334712
v -0.06500693 -0.36497301 -0.24498071
v -0.08498966 -0.36497301 -0.24286146
v -0.08816627 -0.36517680 -0.24246411
v -0.09498103 -0.36562517 -0.24153693
v -0.07498924 -0.37271750 -0.24136032
v -0.04500608 -0.37495932 -0.24400939
v -0.06500693 -0.37410337 -0.24197844
v -0.03500566 -0.37495932 -0.24511316
v -0.02576546 -0.38523099 -0.24180184
v -0.02576546 -0.13720311 -0.06493270
v -0.02576546 -0.13740692 -0.07416028
v -0.11822183 -0.07687752 -0.04493228
v -0.11822183 -0.35270408 -0.24184600
v -0.11822183 -0.34495956 -0.24343543
v -0.10499050 -0.34495956 -0.24493656
v -0.09499913 -0.35494590 -0.24436259
v -0.05500650 -0.36497301 -0.24595204
v -0.02576546 -0.37418488 -0.24621694
v -0.02576546 -0.37495932 -0.24599619
v -0.02576546 -0.13744769 -0.07495499
v -0.11822183 -0.08229867 -0.09495542
v -0.11822183 -0.30534032 -0.24935167
v -0.11499092 -0.33497325 -0.24533392
v -0.09453757 -0.31495982 -0.25054374
v -0.09089941 -0.32054400 -0.25005808
v -0.08816627 -0.32119617 -0.25019056
v -0.04500608 -0.36497301 -0.24679090
v -0.03500566 -0.36497301 -0.24758562
v -0.02576546 -0.36497301 -0.24829204
v -0.02576546 -0.13903734 -0.08382936
v -0.11822183 -0.08368453 -0.10497771
v -0.11822183 -0.30236480 -0.24961658
v -0.11331664 -0.30244634 -0.25032300
v -0.11499092 -0.31495982 -0.24829204
v -0.10884587 -0.30909029 -0.24983732
v -0.08817531 -0.31495982 -0.25111771
v -0.08498966 -0.31495982 -0.25138262
v -0.02576546 -0.33497325 -0.25257468
v -0.02576546 -0.14103460 -0.09495542
v -0.02576546 -0.14286883 -0.10497771
v -0.02576546 -0.14462154 -0.11420529
v -0.02576546 -0.14478457 -0.11495585
v -0.02576546 -0.14690413 -0.12418342
v -0.02576546 -0.14710793 -0.12497814
v -0.11822183 -0.08653776 -0.11495585
v -0.11822183 -0.29417193 -0.24988148
v -0.11331664 -0.29698440 -0.25032300
v -0.09499913 -0.30497348 -0.25120601
v -0.07498924 -0.31495982 -0.25200075
v -0.02576546 -0.32498690 -0.25398755
v -0.02576546 -0.14898291 -0.13089439
v -0.11822183 -0.09155132 -0.12458079
v -0.02576546 -0.14922747 -0.13151249
v -0.02576546 -0.16687679 -0.16572957
v -0.02576546 -0.16956699 -0.17089523
v -0.11822183 -0.29188934 -0.24979317
v -0.10499050 -0.29559857 -0.25054374
v -0.08498966 -0.30493271 -0.25164753
v -0.08816627 -0.30493271 -0.25151509
v -0.08817531 -0.30497348 -0.25151509
v -0.06500693 -0.31495982 -0.25248641
v -0.02576546 -0.32417169 -0.25403166
v -0.11822183 -0.10924138 -0.15120387
v -0.02576546 -0.17160501 -0.17433903
v -0.02576546 -0.17205337 -0.17508960
v -0.11822183 -0.28528616 -0.24921921
v -0.02576546 -0.31495982 -0.25403166
v -0.03500566 -0.31495982 -0.25372261
v -0.04500608 -0.31495982 -0.25332528
v -0.11822183 -0.11311364 -0.15663445
v -0.11822183 -0.12004294 -0.16625938
v -0.02576546 -0.17718920 -0.18210961
v -0.11822183 -0.28178075 -0.24868940
v -0.02576546 -0.30493271 -0.25248641
v -0.11822183 -0.25182176 -0.24414185
v -0.11822183 -0.12163259 -0.16837864
v -0.02576546 -0.17755604 -0.18255112
v -0.02576546 -0.29543552 -0.25080866
v -0.11822183 -0.24505550 -0.24308221
v -0.11822183 -0.12464887 -0.17155750
v -0.02576546 -0.18199894 -0.18718699
v -0.02576546 -0.29005513 -0.24983732
v -0.11822183 -0.24146856 -0.24237581
v -0.02576546 -0.27428079 -0.24696751
v -0.11822183 -0.12954013 -0.17606091
v -0.02576546 -0.18733858 -0.19270587
v -0.02576546 -0.19724339 -0.20281646
v -0.02576546 -0.20678136 -0.21248554
v -0.02576546 -0.20714819 -0.21283874
v -0.11822183 -0.23592514 -0.24109542
v -0.02576546 -0.26502815 -0.24484827
v -0.11822183 -0.13532813 -0.18096168
v -0.02576546 -0.21252859 -0.21747461
v -0.11822183 -0.23343875 -0.24038900
v -0.02576546 -0.26433522 -0.24462751
v -0.11822183 -0.17017838 -0.20983647
v -0.02576546 -0.21297696 -0.21782781
v -0.02576546 -0.25663149 -0.24175769
v -0.11822183 -0.23111539 -0.23950598
v -0.11822183 -0.17164576 -0.21089610
v -0.11822183 -0.17323543 -0.21199988
v -0.02576546 -0.21758290 -0.22091839
v -0.11822183 -0.22956648 -0.23888786
v -0.11822183 -0.22178122 -0.23539993
v -0.11822183 -0.18884671 -0.22043273
v -0.11822183 -0.18428153 -0.21826932
v -0.11822183 -0.18199894 -0.21707724
v -0.02576546 -0.24436256 -0.23531163
v -0.02576546 -0.22504207 -0.22498028
v -0.02576546 -0.23682186 -0.23129389
f 1 2 3
f 1 3 4
f 1 4 5
f 1 5 6
f 1 6 7
f 1 7 8
f 1 8 9
f 1 9 10
f 1 10 2
f 2 10 18
f 2 18 30
f 2 30 48
f 2 48 69
f 2 69 89
f 2 89 100
f 2 100 117
f 2 117 131
f 2 131 149
f 2 149 148
f 2 148 147
f 2 147 146
f 2 146 168
f 2 168 187
f 2 187 186
f 2 186 185
f 2 185 183
f 2 183 182
f 2 182 198
f 2 198 211
f 2 211 228
f 2 228 227
f 2 227 244
f 2 244 254
f 2 254 253
f 2 253 264
f 2 264 273
f 2 273 285
f 2 285 297
f 2 297 302
f 2 302 309
f 2 309 313
f 2 313 317
f 2 317 319
f 2 319 326
f 2 326 330
f 2 330 333
f 2 333 343
f 2 343 345
f 2 345 344
f 2 344 337
f 2 337 332
f 2 332 328
f 2 328 324
f 2 324 323
f 2 323 322
f 2 322 321
f 2 321 316
f 2 316 312
f 2 312 307
f 2 307 300
f 2 300 299
f 2 299 290
f 2 290 289
f 2 289 288
f 2 288 286
f 2 286 279
f 2 279 278
f 2 278 277
f 2 277 276
f 2 276 275
f 2 275 274
f 2 274 265
f 2 265 255
f 2 255 246
f 2 246 245
f 2 245 231
f 2 231 229
f 2 229 213
f 2 213 212
f 2 212 199
f 2 199 188
f 2 188 172
f 2 172 171
f 2 171 170
f 2 170 169
f 2 169 152
f 2 152 151
f 2 151 150
f 2 150 134
f 2 134 133
f 2 133 132
f 2 132 118
f 2 118 102
f 2 102 101
f 2 101 90
f 2 90 73
f 2 73 72
f 2 72 71
f 2 71 70
f 2 70 50
f 2 50 49
f 2 49 31
f 2 31 19
f 2 19 11
f 2 11 4
f 2 4 3
f 4 11 5
f 5 12 13
f 5 13 6
f 5 11 14
f 5 14 12
f 6 13 15
f 6 15 7
f 7 15 16
f 7 16 17
f 7 17 18
f 7 18 8
f 8 18 9
f 9 18 10
f 11 19 20
f 11 20 14
f 12 14 13
f 13 14 21
f 13 21 22
f 13 22 23
f 13 23 24
f 13 24 25
f 13 25 26
f 13 26 15
f 14 20 21
f 15 27 16
f 15 26 27
f 16 27 17
f 17 28 29
f 17 29 30
f 17 30 18
f 17 27 42
f 17 42 41
f 17 41 25
f 17 25 40
f 17 40 59
f 17 59 38
f 17 38 37
f 17 37 58
f 17 58 57
f 17 57 56
f 17 56 76
f 17 76 77
f 17 77 95
f 17 95 107
f 17 107 121
f 17 121 138
f 17 138 159
f 17 159 158
f 17 158 176
f 17 176 175
f 17 175 189
f 17 189 200
f 17 200 214
f 17 214 230
f 17 230 247
f 17 247 256
f 17 256 266
f 17 266 280
f 17 280 287
f 17 287 298
f 17 298 305
f 17 305 306
f 17 306 311
f 17 311 315
f 17 315 320
f 17 320 327
f 17 327 331
f 17 331 335
f 17 335 336
f 17 336 342
f 17 342 341
f 17 341 340
f 17 340 339
f 17 339 338
f 17 338 334
f 17 334 329
f 17 329 325
f 17 325 318
f 17 318 314
f 17 314 310
f 17 310 308
f 17 308 301
f 17 301 291
f 17 291 281
f 17 281 267
f 17 267 257
f 17 257 249
f 17 249 248
f 17 248 233
f 17 233 232
f 17 232 217
f 17 217 216
f 17 216 215
f 17 215 201
f 17 201 191
f 17 191 190
f 17 190 177
f 17 177 160
f 17 160 140
f 17 140 139
f 17 139 122
f 17 122 108
f 17 108 96
f 17 96 82
f 17 82 81
f 17 81 78
f 17 78 62
f 17 62 61
f 17 61 43
f 17 43 28
f 19 31 32
f 19 32 33
f 19 33 20
f 20 33 21
f 21 33 22
f 22 34 23
f 22 33 35
f 22 35 34
f 23 34 24
f 24 34 36
f 24 36 37
f 24 37 38
f 24 38 39
f 24 39 40
f 24 40 25
f 25 41 26
f 26 41 42
f 26 42 27
f 28 43 44
f 28 44 45
f 28 45 46
f 28 46 29
f 29 46 47
f 29 47 30
f 30 47 48
f 31 49 32
f 32 50 51
f 32 51 52
f 32 52 33
f 32 49 50
f 33 52 35
f 34 35 37
f 34 37 36
f 35 52 53
f 35 53 54
f 35 54 55
f 35 55 56
f 35 56 57
f 35 57 58
f 35 58 37
f 38 59 60
f 38 60 39
f 39 60 40
f 40 60 59
f 43 61 44
f 44 61 45
f 45 61 62
f 45 62 63
f 45 63 46
f 46 63 64
f 46 64 65
f 46 65 47
f 47 65 66
f 47 66 67
f 47 67 68
f 47 68 48
f 48 68 69
f 50 70 51
f 51 70 71
f 51 71 72
f 51 72 73
f 51 73 74
f 51 74 52
f 52 74 53
f 53 74 75
f 53 75 54
f 54 76 55
f 54 75 77
f 54 77 76
f 55 76 56
f 62 78 79
f 62 79 80
f 62 80 63
f 63 80 64
f 64 79 65
f 64 80 79
f 65 79 81
f 65 81 82
f 65 82 83
f 65 83 84
f 65 84 85
f 65 85 86
f 65 86 87
f 65 87 66
f 66 68 67
f 66 87 68
f 68 88 89
f 68 89 69
f 68 87 88
f 73 90 74
f 74 91 92
f 74 92 93
f 74 93 94
f 74 94 75
f 74 90 91
f 75 94 77
f 77 94 95
f 78 81 79
f 82 96 83
f 83 96 97
f 83 97 84
f 84 97 98
f 84 98 86
f 84 86 85
f 86 99 89
f 86 89 88
f 86 88 87
f 86 98 99
f 89 99 100
f 90 101 91
f 91 101 102
f 91 102 103
f 91 103 104
f 91 104 92
f 92 104 93
f 93 104 95
f 93 95 94
f 95 105 106
f 95 106 107
f 95 104 105
f 96 108 97
f 97 109 98
f 97 108 110
f 97 110 111
f 97 111 112
f 97 112 113
f 97 113 109
f 98 109 99
f 99 114 100
f 99 109 115
f 99 115 114
f 100 114 116
f 100 116 117
f 102 118 119
f 102 119 103
f 103 119 106
f 103 106 105
f 103 105 104
f 106 120 107
f 106 119 120
f 107 120 121
f 108 122 110
f 109 123 124
f 109 124 115
f 109 113 123
f 110 122 125
f 110 125 126
f 110 126 111
f 111 126 112
f 112 126 127
f 112 127 113
f 113 127 128
f 113 128 129
f 113 129 123
f 114 115 124
f 114 124 116
f 116 124 123
f 116 123 130
f 116 130 131
f 116 131 117
f 118 132 119
f 119 133 134
f 119 134 150
f 119 150 135
f 119 135 136
f 119 136 137
f 119 137 120
f 119 132 133
f 120 137 138
f 120 138 121
f 122 139 125
f 123 129 130
f 125 139 140
f 125 140 141
f 125 141 142
f 125 142 143
f 125 143 144
f 125 144 126
f 126 144 127
f 127 144 145
f 127 145 128
f 128 145 146
f 128 146 147
f 128 147 148
f 128 148 130
f 128 130 129
f 130 148 149
f 130 149 131
f 135 150 151
f 135 151 152
f 135 152 153
f 135 153 154
f 135 154 136
f 136 154 153
f 136 153 155
f 136 155 156
f 136 156 137
f 137 156 157
f 137 157 158
f 137 158 159
f 137 159 138
f 140 160 141
f 141 160 177
f 141 177 161
f 141 161 142
f 142 161 162
f 142 162 163
f 142 163 143
f 143 164 144
f 143 163 165
f 143 165 166
f 143 166 164
f 144 164 145
f 145 164 146
f 146 164 167
f 146 167 168
f 152 169 153
f 153 169 170
f 153 170 155
f 155 170 171
f 155 171 172
f 155 172 173
f 155 173 174
f 155 174 156
f 156 174 157
f 157 175 176
f 157 176 158
f 157 174 175
f 161 177 178
f 161 178 179
f 161 179 162
f 162 179 163
f 163 179 180
f 163 180 181
f 163 181 182
f 163 182 183
f 163 183 184
f 163 184 165
f 164 166 167
f 165 184 185
f 165 185 186
f 165 186 166
f 166 186 187
f 166 187 167
f 167 187 168
f 172 174 173
f 172 188 174
f 174 188 189
f 174 189 175
f 177 190 178
f 178 190 191
f 178 191 192
f 178 192 179
f 179 192 193
f 179 193 180
f 180 193 194
f 180 194 195
f 180 195 181
f 181 195 196
f 181 196 197
f 181 197 182
f 182 197 198
f 183 185 184
f 188 199 200
f 188 200 189
f 191 201 192
f 192 202 193
f 192 201 203
f 192 203 204
f 192 204 205
f 192 205 202
f 193 202 206
f 193 206 207
f 193 207 194
f 194 196 195
f 194 207 196
f 196 198 197
f 196 207 208
f 196 208 209
f 196 209 210
f 196 210 211
f 196 211 198
f 199 212 200
f 200 213 214
f 200 212 213
f 201 215 203
f 202 205 206
f 203 216 217
f 203 217 218
f 203 218 219
f 203 219 220
f 203 220 204
f 203 215 216
f 204 220 206
f 204 206 205
f 206 220 219
f 206 219 221
f 206 221 222
f 206 222 223
f 206 223 207
f 207 223 224
f 207 224 208
f 208 224 225
f 208 225 209
f 209 225 226
f 209 226 210
f 210 226 227
f 210 227 228
f 210 228 211
f 213 229 214
f 214 229 231
f 214 231 230
f 217 232 219
f 217 219 218
f 219 232 233
f 219 233 234
f 219 234 235
f 219 235 221
f 221 235 236
f 221 236 237
f 221 237 238
f 221 238 239
f 221 239 222
f 222 240 223
f 222 239 241
f 222 241 240
f 223 240 224
f 224 240 225
f 225 242 241
f 225 241 243
f 225 243 244
f 225 244 227
f 225 227 226
f 225 240 242
f 230 245 246
f 230 246 247
f 230 231 245
f 233 248 234
f 234 248 235
f 235 248 249
f 235 249 250
f 235 250 251
f 235 251 236
f 236 251 252
f 236 252 243
f 236 243 238
f 236 238 237
f 238 243 241
f 238 241 239
f 240 241 242
f 243 252 253
f 243 253 254
f 243 254 244
f 246 255 247
f 247 255 256
f 249 257 258
f 249 258 250
f 250 258 259
f 250 259 260
f 250 260 251
f 251 260 261
f 251 261 262
f 251 262 252
f 252 262 253
f 253 262 263
f 253 263 264
f 255 265 266
f 255 266 256
f 257 267 268
f 257 268 269
f 257 269 258
f 258 269 270
f 258 270 259
f 259 271 260
f 259 270 268
f 259 268 271
f 260 271 261
f 261 271 272
f 261 272 264
f 261 264 263
f 261 263 262
f 264 272 273
f 265 274 266
f 266 275 276
f 266 276 277
f 266 277 278
f 266 278 279
f 266 279 280
f 266 274 275
f 267 281 268
f 268 270 269
f 268 281 282
f 268 282 283
f 268 283 284
f 268 284 272
f 268 272 271
f 272 284 285
f 272 285 273
f 279 286 280
f 280 286 288
f 280 288 289
f 280 289 290
f 280 290 287
f 281 291 282
f 282 292 293
f 282 293 294
f 282 294 295
f 282 295 283
f 282 291 292
f 283 295 296
f 283 296 284
f 284 296 297
f 284 297 285
f 287 290 299
f 287 299 300
f 287 300 298
f 291 301 292
f 292 302 293
f 292 301 302
f 293 302 303
f 293 303 304
f 293 304 295
f 293 295 294
f 295 304 296
f 296 304 297
f 297 304 303
f 297 303 302
f 298 300 305
f 300 306 305
f 300 307 306
f 301 308 302
f 302 308 310
f 302 310 309
f 306 307 311
f 307 312 311
f 309 310 314
f 309 314 313
f 311 312 315
f 312 316 315
f 313 314 317
f 314 318 319
f 314 319 317
f 315 316 321
f 315 321 322
f 315 322 323
f 315 323 324
f 315 324 320
f 318 325 326
f 318 326 319
f 320 324 328
f 320 328 327
f 325 329 326
f 326 329 330
f 327 328 331
f 328 332 331
f 329 333 330
f 329 334 333
f 331 332 335
f 332 336 335
f 332 337 336
f 333 334 338
f 333 338 339
f 333 339 340
f 333 340 341
f 333 341 342
f 333 342 343
f 336 337 342
f 337 344 342
f 342 344 345
f 342 345 343

