# https://github.com/mikedh/trimesh
v 0.37563664 -0.18366346 -0.01332629
v 0.36976582 -0.18366346 0.05295819
v 0.35479325 -0.21011144 -0.01516540
v 0.35491145 -0.21053375 -0.07961078
v 0.37512442 -0.18366346 -0.07846133
v 0.36058527 -0.18366346 0.09464462
v 0.30518675 -0.25107676 0.11679053
v 0.30956033 -0.25107676 0.09610058
v 0.31507653 -0.25107676 0.04973975
v 0.31740123 -0.25107676 0.02583136
v 0.31854385 -0.25107676 -0.01593170
v 0.37437579 -0.18366346 -0.10053062
v 0.31870148 -0.25107676 -0.03991672
v 0.31606156 -0.25107676 -0.08030044
v 0.31357926 -0.25107676 -0.10122029
v 0.34955284 -0.20844853 -0.14129749
v 0.36759871 -0.18366346 -0.16152768
v 0.35904860 -0.18366346 0.10146464
v 0.35424161 -0.18366346 0.11924267
v 0.27740869 -0.25107676 0.18161905
v 0.30365008 -0.25107676 -0.15715979
v 0.34234238 -0.20565064 -0.20053208
v 0.36649549 -0.18366346 -0.16834769
v 0.32496631 -0.18366346 0.18000984
v 0.27496582 -0.25107676 0.18690649
v 0.29553339 -0.25107676 -0.19846308
v 0.29206607 -0.25107676 -0.20903793
v 0.32926106 -0.20058937 -0.25654823
v 0.34021467 -0.18366346 -0.27294689
v 0.35688153 -0.18366346 -0.21945955
v 0.36105809 -0.18366346 -0.20175815
v 0.32145959 -0.18366346 0.18598694
v 0.20463413 -0.25107676 0.25211817
v 0.27626604 -0.25107676 -0.25118414
v 0.25510746 -0.25107676 -0.30053353
v 0.23205757 -0.25107676 -0.34804380
v 0.32035634 -0.18366346 -0.31164479
v 0.25589550 -0.18366346 0.23702216
v 0.16133188 -0.25107676 0.27181193
v 0.29163265 -0.18366346 -0.35938495
v 0.20033936 -0.25107676 -0.39041987
v 0.17677727 -0.18366346 0.25916806
v 0.13828200 -0.22396231 0.28284657
v 0.09202464 -0.25107676 0.27533689
v 0.17382215 -0.25107676 -0.42222109
v 0.29021418 -0.18366346 -0.36099416
v 0.10286006 -0.18366346 0.26759732
v 0.07945556 -0.25107676 0.27135214
v 0.16460221 -0.25107676 -0.43065035
v 0.25585610 -0.18366346 -0.39126280
v 0.08631142 -0.18366346 0.26154357
v 0.05301715 -0.20254262 0.25027904
v -0.02688909 -0.25107676 0.22100660
v 0.11594135 -0.25107676 -0.46965474
v 0.11310445 -0.25107676 -0.47157046
v 0.08997576 -0.21386614 -0.48658985
v 0.11334085 -0.18661311 -0.47042105
v 0.11259222 -0.18366346 -0.47034439
v -0.02688909 -0.19739555 0.20001012
v -0.02688909 -0.18366346 0.19066134
v -0.02688909 -0.23923852 0.21809468
v -0.02688909 -0.25107676 -0.48360130
v 0.06621666 -0.25107676 -0.48789254
v 0.05975481 -0.23389350 -0.49417618
v 0.04257576 -0.19112669 -0.50000000
v 0.05455381 -0.18366346 -0.49678156
v 0.07086603 -0.18366346 -0.49226043
v 0.11058275 -0.18366346 -0.47141722
v -0.02688909 -0.18366346 -0.49233705
v -0.02688909 -0.24439217 -0.48582354
v -0.01707812 -0.25107676 -0.48620671
v 0.02575132 -0.25107676 -0.49172401
v 0.02476628 -0.24519064 -0.49386966
v 0.01601915 -0.20006147 -0.49900383
v 0.01219720 -0.18366346 -0.49831414
v 0.03946304 -0.18366346 -0.49915707
v -0.02030905 -0.18366346 -0.49379301
v -0.02688909 -0.20093250 -0.49218380
v -0.02688909 -0.21802999 -0.48980829
v -0.01219232 -0.24734184 -0.48873547
v -0.01231053 -0.25107676 -0.48720288
v -0.01203473 -0.20330808 -0.49540225
v -0.01278335 -0.18366346 -0.49540225
f 1 2 3
f 1 3 4
f 1 4 5
f 1 5 12
f 1 12 17
f 1 17 23
f 1 23 31
f 1 31 30
f 1 30 29
f 1 29 37
f 1 37 40
f 1 40 46
f 1 46 50
f 1 50 58
f 1 58 68
f 1 68 67
f 1 67 66
f 1 66 76
f 1 76 75
f 1 75 83
f 1 83 77
f 1 77 69
f 1 69 60
f 1 60 51
f 1 51 47
f 1 47 42
f 1 42 38
f 1 38 32
f 1 32 24
f 1 24 19
f 1 19 18
f 1 18 6
f 1 6 2
f 2 6 7
f 2 7 8
f 2 8 9
f 2 9 10
f 2 10 3
f 3 11 4
f 3 10 11
f 4 12 5
f 4 11 13
f 4 13 14
f 4 14 15
f 4 15 16
f 4 16 17
f 4 17 12
f 6 18 7
f 7 18 19
f 7 19 20
f 7 20 25
f 7 25 33
f 7 33 39
f 7 39 44
f 7 44 48
f 7 48 53
f 7 53 62
f 7 62 71
f 7 71 81
f 7 81 72
f 7 72 63
f 7 63 55
f 7 55 54
f 7 54 49
f 7 49 45
f 7 45 41
f 7 41 36
f 7 36 35
f 7 35 34
f 7 34 27
f 7 27 26
f 7 26 21
f 7 21 15
f 7 15 14
f 7 14 13
f 7 13 11
f 7 11 10
f 7 10 9
f 7 9 8
f 15 21 22
f 15 22 16
f 16 22 23
f 16 23 17
f 19 24 25
f 19 25 20
f 21 26 22
f 22 26 27
f 22 27 28
f 22 28 29
f 22 29 30
f 22 30 31
f 22 31 23
f 24 32 25
f 25 32 33
f 27 34 28
f 28 34 35
f 28 35 29
f 29 35 36
f 29 36 37
f 32 38 33
f 33 38 39
f 36 40 37
f 36 41 40
f 38 42 43
f 38 43 39
f 39 43 44
f 40 41 45
f 40 45 46
f 42 47 43
f 43 47 44
f 44 47 48
f 45 49 46
f 46 49 50
f 47 51 48
f 48 51 52
f 48 52 53
f 49 54 50
f 50 54 55
f 50 55 56
f 50 56 57
f 50 57 58
f 51 59 52
f 51 60 59
f 52 59 61
f 52 61 53
f 53 61 59
f 53 59 60
f 53 60 69
f 53 69 78
f 53 78 79
f 53 79 70
f 53 70 62
f 55 63 64
f 55 64 56
f 56 64 65
f 56 65 66
f 56 66 67
f 56 67 57
f 57 67 68
f 57 68 58
f 62 70 71
f 63 72 73
f 63 73 64
f 64 73 65
f 65 73 74
f 65 74 75
f 65 75 76
f 65 76 66
f 69 77 78
f 70 79 80
f 70 80 71
f 71 80 81
f 72 80 73
f 72 81 80
f 73 80 82
f 73 82 74
f 74 82 83
f 74 83 75
f 77 83 82
f 77 82 78
f 78 82 79
f 79 82 80

