# https://github.com/mikedh/trimesh
v 0.31872597 -0.25107676 -0.03995178
v 0.25149176 -0.34667933 -0.07997471
v 0.31605288 -0.25107676 -0.08027507
v 0.31855166 -0.25107676 -0.01592300
v 0.31358317 -0.25107676 -0.10122516
v 0.31741849 -0.25107676 0.02582699
v 0.24922544 -0.34723002 -0.01367030
v 0.18626235 -0.41197103 -0.01194324
v 0.18966183 -0.41001052 -0.07974944
v 0.19079499 -0.40501010 -0.14305025
v 0.24539012 -0.33410120 -0.20056912
v 0.30364621 -0.25107676 -0.15709206
v 0.31509405 -0.25107676 0.04970559
v 0.24149668 -0.34460866 0.12855002
v 0.24655233 -0.34742826 0.05548751
v 0.10810329 -0.46100587 -0.01382048
v 0.18207838 -0.41357908 0.05984274
v 0.11251971 -0.45620373 -0.08162668
v 0.11597731 -0.45129144 -0.14470223
v 0.11716858 -0.44151089 -0.20432362
v 0.18913883 -0.39608866 -0.20259656
v 0.18629141 -0.38613188 -0.25921437
v 0.23917225 -0.32506961 -0.25568515
v 0.29553974 -0.25107676 -0.19846661
v 0.30957353 -0.25107676 0.09611116
v 0.30518615 -0.25107676 0.11676089
v 0.27740920 -0.25107676 0.18156351
v 0.27496853 -0.25107676 0.18689488
v 0.22107074 -0.32196364 0.20311432
v 0.17376852 -0.40857866 0.13613410
v 0.10133338 -0.46162266 0.05834094
v 0.02189589 -0.47611725 -0.01907678
v 0.02494670 -0.47257072 -0.08455519
v 0.03000234 -0.46534544 -0.14560330
v 0.03380860 -0.45371455 -0.20334746
v 0.03697564 -0.44151089 -0.25868875
v 0.11652936 -0.42783135 -0.26071617
v 0.17949244 -0.37018344 -0.31230295
v 0.29208216 -0.25107676 -0.20905429
v 0.22821836 -0.31145617 -0.30697155
v 0.20465443 -0.25107676 0.25207293
v 0.18280476 -0.27643126 0.26153427
v 0.15232563 -0.37879649 0.21302618
v 0.08927538 -0.44833964 0.13260487
v 0.02189589 -0.47404659 0.05113231
v 0.02189589 -0.47453123 -0.05346797
v 0.02189589 -0.47248259 -0.08463028
v 0.02189589 -0.46574196 -0.14042211
v 0.02189589 -0.46510315 -0.14560330
v 0.02189589 -0.45364845 -0.20319727
v 0.02189589 -0.44358155 -0.24885195
v 0.02189589 -0.44126856 -0.25823820
v 0.03918386 -0.42384425 -0.31110150
v 0.11315893 -0.40703669 -0.31290364
v 0.10900401 -0.38518468 -0.36321390
v 0.16958454 -0.34974125 -0.36208755
v 0.27627602 -0.25107676 -0.25117975
v 0.21316767 -0.29414195 -0.35442841
v 0.25512367 -0.25107676 -0.30051380
v 0.16133280 -0.25107676 0.27182162
v 0.11760441 -0.32037759 0.26506352
v 0.06876227 -0.40807202 0.20191287
v 0.02189589 -0.45911145 0.12457025
v 0.02189589 -0.41688332 0.19538005
v 0.02189589 -0.43225902 0.17022492
v 0.02189589 -0.42728066 -0.29953766
v 0.04066567 -0.40227860 -0.36126161
v 0.02189589 -0.42349178 -0.31035060
v 0.10235032 -0.35804588 -0.40999496
v 0.15546361 -0.32328534 -0.40661591
v 0.23205368 -0.25107676 -0.34804577
v 0.19399109 -0.27301687 -0.39685422
v 0.09200659 -0.25107676 0.27535081
v 0.08247641 -0.25667194 0.27377391
v 0.02189589 -0.34467474 0.23352574
v 0.02189589 -0.38320214 0.21527888
v 0.02189589 -0.40714684 -0.34819591
v 0.02189589 -0.40186006 -0.36006016
v 0.02189589 -0.37311321 -0.40556461
v 0.04054946 -0.37331146 -0.40699136
v 0.09168699 -0.32242623 -0.44934207
v 0.13686815 -0.29066151 -0.44340998
v 0.20035422 -0.25107676 -0.39047158
v 0.16458701 -0.25107676 -0.43064469
v 0.17376852 -0.25107676 -0.42223459
v 0.07942560 -0.25107676 0.27137107
v 0.02189589 -0.32526785 0.23420154
v 0.02189589 -0.33575332 -0.44363523
v 0.03787635 -0.33500436 -0.44461137
v 0.03264639 -0.29284230 -0.47674990
v 0.07681061 -0.27916276 -0.47772604
v 0.11437926 -0.25319147 -0.47066760
v 0.11594825 -0.25107676 -0.46969146
v 0.02189589 -0.25107676 0.21452798
v 0.02189589 -0.25156137 0.21467815
v 0.02189589 -0.30238053 -0.46924090
v 0.02189589 -0.29297447 -0.47509789
v 0.02189589 -0.25722265 -0.48883939
v 0.02573119 -0.25107676 -0.49176788
v 0.06620539 -0.25107676 -0.48793828
v 0.11307177 -0.25107676 -0.47156870
v 0.02189589 -0.25107676 -0.49116713
f 1 2 3
f 1 3 5
f 1 5 12
f 1 12 24
f 1 24 39
f 1 39 57
f 1 57 59
f 1 59 71
f 1 71 83
f 1 83 85
f 1 85 84
f 1 84 93
f 1 93 101
f 1 101 100
f 1 100 99
f 1 99 102
f 1 102 94
f 1 94 86
f 1 86 73
f 1 73 60
f 1 60 41
f 1 41 28
f 1 28 27
f 1 27 26
f 1 26 25
f 1 25 13
f 1 13 6
f 1 6 4
f 1 4 2
f 2 5 3
f 2 4 6
f 2 6 7
f 2 7 8
f 2 8 9
f 2 9 10
f 2 10 11
f 2 11 5
f 5 11 12
f 6 13 14
f 6 14 15
f 6 15 7
f 7 15 8
f 8 16 9
f 8 15 17
f 8 17 16
f 9 18 19
f 9 19 10
f 9 16 18
f 10 19 20
f 10 20 21
f 10 21 11
f 11 21 22
f 11 22 23
f 11 23 24
f 11 24 12
f 13 25 14
f 14 17 15
f 14 25 26
f 14 26 27
f 14 27 28
f 14 28 29
f 14 29 30
f 14 30 17
f 16 17 31
f 16 31 32
f 16 32 33
f 16 33 18
f 17 30 31
f 18 33 19
f 19 33 34
f 19 34 20
f 20 35 36
f 20 36 37
f 20 37 22
f 20 22 21
f 20 34 35
f 22 37 38
f 22 38 23
f 23 39 24
f 23 38 40
f 23 40 39
f 28 41 42
f 28 42 29
f 29 42 43
f 29 43 30
f 30 43 44
f 30 44 31
f 31 44 45
f 31 45 32
f 32 46 33
f 32 45 63
f 32 63 65
f 32 65 64
f 32 64 76
f 32 76 75
f 32 75 87
f 32 87 95
f 32 95 94
f 32 94 102
f 32 102 98
f 32 98 97
f 32 97 96
f 32 96 88
f 32 88 79
f 32 79 78
f 32 78 77
f 32 77 68
f 32 68 66
f 32 66 52
f 32 52 51
f 32 51 50
f 32 50 49
f 32 49 48
f 32 48 47
f 32 47 46
f 33 47 34
f 33 46 47
f 34 47 48
f 34 48 49
f 34 49 50
f 34 50 35
f 35 50 51
f 35 51 36
f 36 51 52
f 36 52 53
f 36 53 37
f 37 53 54
f 37 54 38
f 38 54 55
f 38 55 56
f 38 56 40
f 39 40 57
f 40 56 58
f 40 58 59
f 40 59 57
f 41 60 42
f 42 60 61
f 42 61 43
f 43 61 62
f 43 62 44
f 44 63 45
f 44 62 64
f 44 64 65
f 44 65 63
f 52 66 53
f 53 67 54
f 53 66 68
f 53 68 67
f 54 67 55
f 55 69 56
f 55 67 69
f 56 69 70
f 56 70 58
f 58 71 59
f 58 70 72
f 58 72 71
f 60 73 61
f 61 73 74
f 61 74 75
f 61 75 76
f 61 76 64
f 61 64 62
f 67 68 77
f 67 77 78
f 67 78 79
f 67 79 80
f 67 80 69
f 69 80 81
f 69 81 70
f 70 81 82
f 70 82 72
f 71 72 83
f 72 82 84
f 72 84 85
f 72 85 83
f 73 86 74
f 74 86 87
f 74 87 75
f 79 88 80
f 80 88 89
f 80 89 81
f 81 90 91
f 81 91 82
f 81 89 90
f 82 91 92
f 82 92 84
f 84 92 93
f 86 94 95
f 86 95 87
f 88 96 89
f 89 96 90
f 90 96 97
f 90 97 98
f 90 98 99
f 90 99 91
f 91 99 100
f 91 100 92
f 92 100 101
f 92 101 93
f 98 102 99

