# https://github.com/mikedh/trimesh
v -0.22983114 -0.13251489 0.22826296
v -0.22983114 -0.11271396 0.22612613
v -0.25269908 -0.11271396 0.23907664
v -0.23617408 -0.13966599 0.23091781
v -0.22983114 -0.25107676 0.21395263
v -0.22983114 -0.11271396 -0.40793157
v -0.27323017 -0.11271396 0.24483964
v -0.30304614 -0.13651031 0.25001985
v -0.35009652 -0.17206261 0.23389643
v -0.28122145 -0.25107676 0.20611757
v -0.22983114 -0.25107676 -0.35412213
v -0.22983114 -0.14333636 -0.40048504
v -0.28276545 -0.11271396 -0.40093830
v -0.29509661 -0.11271396 0.24969608
v -0.31414628 -0.11271396 0.25358123
v -0.33398882 -0.11271396 0.25021410
v -0.37799293 -0.11271396 0.24050120
v -0.41878384 -0.12820800 0.18973514
v -0.38487837 -0.19836454 0.18222386
v -0.30002072 -0.25107676 0.19485059
v -0.30855447 -0.22390802 0.21479443
v -0.24646048 -0.25107676 -0.32472444
v -0.40363592 -0.15950757 -0.21898341
v -0.34736323 -0.15281697 -0.32258761
v -0.34314853 -0.11271396 -0.37277091
v -0.22983114 -0.23601612 -0.36500058
v -0.38508701 -0.11271396 0.23324892
v -0.41494471 -0.11271396 0.19970706
v -0.42203879 -0.11271396 0.19005892
v -0.43451601 -0.11271396 0.14609188
v -0.43439081 -0.13881274 0.12666610
v -0.39708433 -0.21200308 0.11870152
v -0.33672214 -0.25107676 0.16564718
v -0.24721162 -0.25107676 -0.32304090
v -0.31535643 -0.25107676 -0.16646904
v -0.33298731 -0.25107676 -0.11129981
v -0.33930936 -0.25107676 -0.08617578
v -0.37701228 -0.22100967 -0.05198640
v -0.41521597 -0.15828863 -0.16064131
v -0.42579448 -0.11271396 -0.21438599
v -0.40313518 -0.11271396 -0.27000850
v -0.37930742 -0.11271396 -0.32465971
v -0.43962792 -0.11271396 0.12796114
v -0.44298714 -0.11271396 0.07020180
v -0.43628952 -0.14544916 0.06793547
v -0.35608476 -0.25107676 0.10860011
v -0.42886162 -0.15381920 -0.04544638
v -0.39234799 -0.21686529 0.05977663
v -0.35806695 -0.25107676 0.07544677
v -0.35239169 -0.25107676 -0.00089658
v -0.42410439 -0.15681237 -0.10268770
v -0.38506615 -0.21968238 0.00383037
v -0.43286768 -0.11271396 -0.15552585
v -0.44046250 -0.11271396 -0.04143172
v -0.43808392 -0.11271396 -0.09776650
v -0.35810867 -0.25107676 0.05356038
f 1 2 3
f 1 3 4
f 1 4 5
f 1 5 11
f 1 11 26
f 1 26 12
f 1 12 6
f 1 6 2
f 2 6 13
f 2 13 25
f 2 25 42
f 2 42 41
f 2 41 40
f 2 40 53
f 2 53 55
f 2 55 54
f 2 54 44
f 2 44 43
f 2 43 30
f 2 30 29
f 2 29 28
f 2 28 27
f 2 27 17
f 2 17 16
f 2 16 15
f 2 15 14
f 2 14 7
f 2 7 3
f 3 7 4
f 4 7 8
f 4 8 5
f 5 8 9
f 5 9 10
f 5 10 20
f 5 20 33
f 5 33 46
f 5 46 49
f 5 49 56
f 5 56 50
f 5 50 37
f 5 37 36
f 5 36 35
f 5 35 34
f 5 34 22
f 5 22 11
f 6 12 13
f 7 14 8
f 8 14 15
f 8 15 16
f 8 16 9
f 9 16 17
f 9 17 18
f 9 18 19
f 9 19 20
f 9 20 21
f 9 21 10
f 10 21 20
f 11 22 23
f 11 23 24
f 11 24 25
f 11 25 26
f 12 26 13
f 13 26 25
f 17 27 18
f 18 27 28
f 18 28 29
f 18 29 30
f 18 30 31
f 18 31 19
f 19 31 32
f 19 32 33
f 19 33 20
f 22 34 23
f 23 35 36
f 23 36 37
f 23 37 38
f 23 38 39
f 23 39 40
f 23 40 41
f 23 41 42
f 23 42 24
f 23 34 35
f 24 42 25
f 30 43 31
f 31 43 44
f 31 44 45
f 31 45 32
f 32 46 33
f 32 45 47
f 32 47 48
f 32 48 49
f 32 49 46
f 37 50 38
f 38 51 39
f 38 50 52
f 38 52 51
f 39 51 40
f 40 51 53
f 44 54 45
f 45 54 55
f 45 55 47
f 47 55 51
f 47 51 48
f 48 51 52
f 48 52 56
f 48 56 49
f 50 56 52
f 51 55 53

