# https://github.com/mikedh/trimesh
v 0.06427610 -0.01419551 0.22135197
v 0.06425851 -0.08783865 0.20970432
v 0.06427610 -0.05923922 0.20355894
v 0.06427610 0.01047882 0.21942259
v 0.03261506 0.00462282 0.25043535
v 0.03233363 -0.01430630 0.25043535
v 0.02197343 -0.03037073 0.25043535
v 0.01924707 -0.03307715 0.25043535
v 0.00915071 -0.04187698 0.25043535
v -0.00427005 -0.05012285 0.25043535
v -0.01827126 -0.05575727 0.25043535
v -0.03272980 -0.05708674 0.25043535
v -0.00949412 -0.08783865 0.20248707
v 0.06425851 -0.08783865 -0.47529209
v 0.06427610 -0.05923922 -0.47457749
v 0.06427610 0.07381856 0.19133963
v 0.02473498 0.02220664 0.25043535
v -0.04583396 -0.05483931 0.25043535
v -0.03068943 -0.08783865 0.19784229
v 0.05590352 -0.08783865 -0.47607815
v 0.06427610 -0.03839503 -0.47579229
v 0.06427610 -0.04412441 -0.47564936
v 0.05141820 0.07381856 0.19562711
v -0.02562366 0.05523764 0.25043535
v -0.01292407 0.05167656 0.25043535
v -0.00003099 0.04618458 0.25043535
v 0.01214092 0.03583371 0.25043535
v 0.06427610 0.07381856 -0.47193354
v -0.04761049 -0.05419040 0.25043535
v -0.09265711 -0.08783865 0.17247470
v 0.04186712 -0.08783865 -0.47700709
v 0.00883410 -0.08783865 -0.47900790
v 0.02188549 0.07381856 -0.47836477
v 0.06427610 -0.01952922 -0.47572082
v 0.02090048 0.07381856 0.20534538
v -0.03675779 0.05724767 0.25043535
v 0.02994146 0.07381856 -0.47715002
v -0.05691532 -0.05034443 0.25043535
v -0.09267470 -0.08782282 0.17247470
v -0.09267470 -0.08783865 0.17240323
v -0.05893811 -0.04915741 0.25043535
v -0.06622015 -0.04452009 0.25043535
v -0.06827812 -0.04298487 0.25043535
v -0.07411782 -0.03803101 0.25043535
v -0.00514952 -0.08783865 -0.47957957
v -0.01389149 -0.08783865 -0.47950810
v 0.00183349 0.07381856 -0.47793603
v -0.00240557 0.07381856 0.21077619
v -0.01976637 0.07381856 0.21342014
v -0.04850756 0.05803902 0.25043535
v -0.11541788 -0.05923922 0.16940202
v -0.08057315 -0.03048152 0.25043535
v -0.08643045 -0.02247304 0.25043535
v -0.09267470 -0.08783865 -0.46357298
v -0.02052272 -0.08783865 -0.47915083
v -0.07016019 0.07381856 -0.46971834
v -0.03443598 0.07381856 0.21420617
v -0.04903524 0.07381856 0.20856099
v -0.06008142 0.05632970 0.25043535
v -0.11541788 -0.05923922 -0.45078200
v -0.08738028 -0.02035222 0.25043535
v -0.09049361 -0.01338833 0.25043535
v -0.09130272 -0.01134665 0.25043535
v -0.09351899 -0.00420866 0.25043535
v -0.09562974 0.00440124 0.25043535
v -0.09700171 0.01185577 0.25043535
v -0.09723037 0.01836068 0.25043535
v -0.11541788 0.03038921 0.18104966
v -0.11541788 0.06258138 -0.45978570
v -0.11541788 0.07381856 -0.46042883
v -0.11244527 0.07381856 -0.46142924
v -0.06724034 -0.08783865 -0.47093314
v -0.04022292 -0.08783865 -0.47672123
v -0.11541788 0.07381856 0.17590468
v -0.07214780 0.05230964 0.25043535
v -0.09716002 0.01981676 0.25043535
v -0.11541788 0.05729515 0.18097819
v -0.11541788 0.04578891 0.18233590
v -0.11541788 0.03727397 0.18169279
v -0.06242082 -0.08783865 -0.47207648
v -0.09682582 0.02423250 0.25043535
v -0.09601671 0.02924967 0.25043535
v -0.09570009 0.03054748 0.25043535
v -0.09270988 0.03730562 0.25043535
v -0.08708125 0.04312997 0.25043535
v -0.08001029 0.04887518 0.25043535
f 1 2 3
f 1 3 15
f 1 15 22
f 1 22 21
f 1 21 34
f 1 34 28
f 1 28 16
f 1 16 4
f 1 4 5
f 1 5 6
f 1 6 2
f 2 6 7
f 2 7 8
f 2 8 9
f 2 9 10
f 2 10 11
f 2 11 12
f 2 12 13
f 2 13 19
f 2 19 30
f 2 30 40
f 2 40 54
f 2 54 72
f 2 72 80
f 2 80 73
f 2 73 55
f 2 55 46
f 2 46 45
f 2 45 32
f 2 32 31
f 2 31 20
f 2 20 14
f 2 14 15
f 2 15 3
f 4 16 17
f 4 17 5
f 5 17 27
f 5 27 26
f 5 26 25
f 5 25 24
f 5 24 36
f 5 36 50
f 5 50 59
f 5 59 75
f 5 75 86
f 5 86 85
f 5 85 84
f 5 84 83
f 5 83 82
f 5 82 81
f 5 81 76
f 5 76 67
f 5 67 66
f 5 66 65
f 5 65 64
f 5 64 63
f 5 63 62
f 5 62 61
f 5 61 53
f 5 53 52
f 5 52 44
f 5 44 43
f 5 43 42
f 5 42 41
f 5 41 38
f 5 38 29
f 5 29 18
f 5 18 12
f 5 12 11
f 5 11 10
f 5 10 9
f 5 9 8
f 5 8 7
f 5 7 6
f 12 18 19
f 12 19 13
f 14 20 21
f 14 21 22
f 14 22 15
f 16 23 24
f 16 24 25
f 16 25 26
f 16 26 27
f 16 27 17
f 16 28 37
f 16 37 33
f 16 33 47
f 16 47 56
f 16 56 71
f 16 71 70
f 16 70 74
f 16 74 58
f 16 58 57
f 16 57 49
f 16 49 48
f 16 48 35
f 16 35 23
f 18 29 30
f 18 30 19
f 20 31 21
f 21 31 32
f 21 32 33
f 21 33 34
f 23 35 24
f 24 35 36
f 28 34 37
f 29 38 30
f 30 39 40
f 30 38 41
f 30 41 42
f 30 42 43
f 30 43 44
f 30 44 39
f 32 45 33
f 33 45 46
f 33 46 47
f 33 37 34
f 35 48 36
f 36 48 49
f 36 49 50
f 39 51 40
f 39 44 52
f 39 52 53
f 39 53 51
f 40 51 60
f 40 60 54
f 46 55 47
f 47 55 56
f 49 57 50
f 50 57 58
f 50 58 59
f 51 53 61
f 51 61 62
f 51 62 63
f 51 63 64
f 51 64 65
f 51 65 66
f 51 66 67
f 51 67 68
f 51 68 79
f 51 79 78
f 51 78 77
f 51 77 74
f 51 74 70
f 51 70 69
f 51 69 60
f 54 60 69
f 54 69 70
f 54 70 71
f 54 71 72
f 55 73 56
f 56 73 71
f 58 74 59
f 59 74 75
f 67 76 77
f 67 77 78
f 67 78 79
f 67 79 68
f 71 73 80
f 71 80 72
f 74 77 81
f 74 81 82
f 74 82 83
f 74 83 84
f 74 84 85
f 74 85 86
f 74 86 75
f 76 81 77

