# https://github.com/mikedh/trimesh
v -0.26305857 0.03548303 0.46124291
v -0.26305857 0.03527414 0.45946360
v -0.34149560 0.02201416 0.46250990
v -0.29762575 0.03044473 0.47162798
v -0.26305857 0.03480624 0.46809706
v -0.26305857 0.03443861 0.45485264
v -0.34126136 0.02246535 0.46904558
v -0.34226525 0.01913990 0.44876006
v -0.37944251 0.01055058 0.45296255
v -0.38041294 0.01115216 0.45902050
v -0.34111077 0.02274943 0.47566432
v -0.29576856 0.03001025 0.47799057
v -0.26305857 0.03269233 0.47547045
v -0.26305857 0.03303490 0.45011011
v -0.34288430 0.01569749 0.44079125
v -0.37847209 0.00916358 0.44663459
v -0.26305857 0.03263384 0.44891238
v -0.39935297 -0.00321074 0.43922657
v -0.40278289 -0.00389588 0.44375446
v -0.40617937 -0.00465622 0.44853851
v -0.40860546 -0.00518260 0.45319796
v -0.41031206 -0.00540820 0.45766354
v -0.41160038 -0.00541656 0.46242681
v -0.38096508 0.01050044 0.46478769
v -0.34029093 0.02081098 0.48203382
v -0.38134992 0.00943931 0.47038177
v -0.29334250 0.02767910 0.48427701
v -0.26305857 0.02881543 0.48337004
v -0.34358704 0.01051715 0.43590334
v -0.37773591 0.00599689 0.43968350
v -0.26305857 0.03057842 0.44439140
v -0.26305857 0.03015229 0.44351906
v -0.26305857 0.02712765 0.43963504
v -0.26305857 0.02668481 0.43909502
v -0.26305857 0.02626704 0.43861037
v -0.40201324 -0.00758060 0.43528715
v -0.40981010 -0.00936865 0.43991891
v -0.41444471 -0.01115670 0.44568607
v -0.41754004 -0.01210086 0.45053938
v -0.41961473 -0.01246850 0.45496342
v -0.42041785 -0.01317870 0.45976824
v -0.41989917 -0.01352127 0.46610314
v -0.41139960 -0.00605156 0.46820784
v -0.33901936 0.01742705 0.48807794
v -0.38121605 0.00742566 0.47598279
v -0.38064718 0.00471852 0.48181921
v -0.29036430 0.02389412 0.49071574
v -0.26305857 0.02578243 0.48682481
v -0.40417162 -0.01372180 0.43032309
v -0.26305857 0.02244028 0.43548793
v -0.26305857 0.01677533 0.43309939
v -0.41332370 -0.01603624 0.43615258
v -0.41931358 -0.01769896 0.44253594
v -0.42317852 -0.01868490 0.44801232
v -0.42597270 -0.01892721 0.45292100
v -0.43182868 -0.02685646 0.45920745
v -0.42538708 -0.02054815 0.46626237
v -0.41593382 -0.01421477 0.47320652
v -0.40888989 -0.00730487 0.47440428
v -0.33731273 0.01271462 0.49381742
v -0.37962657 0.00024004 0.48719868
v -0.40504164 -0.00882555 0.47890446
v -0.28696781 0.01795344 0.49579751
v -0.26305857 0.02232330 0.48994032
v -0.40432221 -0.02074032 0.42927074
v -0.41459531 -0.02276232 0.43273935
v -0.26305857 0.00984872 0.43227550
v -0.42739487 -0.02513525 0.44455063
v -0.43119290 -0.02577026 0.45096171
v -0.43398705 -0.03593040 0.46023902
v -0.42871666 -0.02782568 0.46840170
v -0.41039571 -0.01983794 0.48176381
v -0.40813696 -0.01368838 0.48006067
v -0.41974860 -0.02109125 0.47382963
v -0.33500379 0.00644808 0.49786758
v -0.37878999 -0.00546669 0.49180964
v -0.28368846 0.01021636 0.49777067
v -0.26305857 0.01381753 0.49327740
v -0.40350235 -0.02677291 0.42953384
v -0.41392604 -0.02886175 0.43198472
v -0.42821470 -0.03296424 0.44236979
v -0.26305857 0.00217848 0.43269089
v -0.43269873 -0.03483585 0.44979164
v -0.42782986 -0.04263142 0.45052552
v -0.42883378 -0.04353380 0.45948437
v -0.42461744 -0.04086008 0.46825629
v -0.42824817 -0.03481078 0.46935710
v -0.41006109 -0.02584546 0.48199227
v -0.37736782 -0.01190033 0.49363741
v -0.33229330 -0.00069577 0.49914151
v -0.28057641 0.00227875 0.49910688
v -0.26305857 0.00497754 0.49538210
v -0.40179574 -0.03239608 0.43121621
v -0.26305857 -0.00580926 0.43405479
v -0.41175097 -0.03448492 0.43397173
v -0.41924664 -0.03715029 0.43818805
v -0.42463416 -0.04017494 0.44369215
v -0.41832641 -0.04583153 0.44636458
v -0.42013341 -0.04757780 0.45210406
v -0.42009994 -0.04722688 0.45861202
v -0.41774082 -0.04528007 0.46595082
v -0.40482414 -0.04612397 0.47158644
v -0.41185135 -0.04238911 0.47259727
v -0.40577781 -0.03536224 0.48042759
v -0.41958126 -0.03296424 0.47524199
v -0.40840468 -0.03082526 0.48171535
v -0.37541026 -0.01814180 0.49397665
v -0.32971665 -0.00778113 0.50000000
v -0.27799976 -0.00589281 0.49860841
v -0.26305857 -0.00392930 0.49553442
v -0.39893466 -0.03758477 0.43475407
v -0.40801984 -0.04005796 0.43665799
v -0.26305857 -0.01338759 0.43730187
v -0.26305857 -0.01996327 0.44050738
v -0.26305857 -0.02586217 0.44384447
v -0.41441125 -0.04298234 0.44096434
v -0.40713307 -0.04734385 0.44415602
v -0.40975991 -0.04927394 0.44923085
v -0.41071361 -0.04987553 0.45410490
v -0.41057974 -0.04917368 0.45920053
v -0.40887314 -0.04763629 0.46502307
v -0.39759615 -0.04868907 0.46614468
v -0.39493585 -0.04717674 0.47139260
v -0.39167321 -0.04490408 0.47513813
v -0.39664245 -0.04302412 0.47650206
v -0.40184593 -0.03966526 0.47838521
v -0.37064180 -0.02913748 0.49050114
v -0.37313476 -0.02397385 0.49311817
v -0.32724041 -0.01475787 0.49894765
v -0.27605891 -0.01375522 0.49768758
v -0.26305857 -0.01232645 0.49484900
v -0.39503625 -0.04149508 0.43861732
v -0.40229768 -0.04435262 0.44016123
v -0.26305857 -0.02653896 0.44428757
v -0.39421639 -0.04609054 0.44394830
v -0.39699382 -0.04831307 0.44777694
v -0.39849964 -0.04979198 0.45221484
v -0.39891794 -0.04984211 0.45659733
v -0.39876735 -0.04978362 0.46110445
v -0.36545503 -0.04668377 0.47223032
v -0.36486945 -0.04468684 0.47687590
v -0.36503676 -0.04212174 0.48152149
v -0.36630833 -0.03808609 0.48482394
v -0.36834958 -0.03382485 0.48773175
v -0.32364315 -0.02666428 0.49349201
v -0.32516572 -0.02115809 0.49677372
v -0.27498811 -0.02105783 0.49554828
v -0.26305857 -0.02000505 0.49301431
v -0.26305857 -0.03025710 0.44758308
v -0.26305857 -0.03100908 0.44831696
v -0.26305857 -0.03439301 0.45171633
v -0.26305857 -0.03679100 0.45518497
v -0.26305857 -0.03823648 0.45746276
v -0.26305857 -0.03940624 0.46352071
v -0.26305857 -0.03984908 0.46606159
v -0.26305857 -0.04008302 0.46887940
v -0.36619121 -0.04748589 0.46745318
v -0.26305857 -0.03973210 0.47123337
v -0.26305857 -0.03882972 0.47445273
v -0.28034216 -0.03857070 0.47769979
v -0.27786592 -0.03559618 0.48208228
v -0.32260579 -0.03558783 0.48611170
v -0.32277310 -0.03149369 0.49000958
v -0.27508849 -0.02688988 0.49104115
v -0.26305857 -0.02627994 0.48892951
v -0.26305857 -0.03788556 0.47640511
v -0.26305857 -0.03582178 0.47967297
v -0.26305857 -0.03279714 0.48301002
v -0.27609238 -0.03154383 0.48628479
f 1 2 3
f 1 3 4
f 1 4 5
f 1 5 13
f 1 13 28
f 1 28 48
f 1 48 64
f 1 64 78
f 1 78 92
f 1 92 110
f 1 110 131
f 1 131 148
f 1 148 165
f 1 165 168
f 1 168 167
f 1 167 166
f 1 166 159
f 1 159 158
f 1 158 156
f 1 156 155
f 1 155 154
f 1 154 153
f 1 153 152
f 1 152 151
f 1 151 150
f 1 150 149
f 1 149 134
f 1 134 115
f 1 115 114
f 1 114 113
f 1 113 94
f 1 94 82
f 1 82 67
f 1 67 51
f 1 51 50
f 1 50 35
f 1 35 34
f 1 34 33
f 1 33 32
f 1 32 31
f 1 31 17
f 1 17 14
f 1 14 6
f 1 6 2
f 2 6 3
f 3 7 4
f 3 6 8
f 3 8 9
f 3 9 10
f 3 10 7
f 4 7 11
f 4 11 12
f 4 12 5
f 5 12 13
f 6 14 8
f 7 10 11
f 8 15 16
f 8 16 9
f 8 14 17
f 8 17 15
f 9 16 18
f 9 18 19
f 9 19 20
f 9 20 10
f 10 20 21
f 10 21 22
f 10 22 23
f 10 23 24
f 10 24 11
f 11 25 12
f 11 24 26
f 11 26 25
f 12 25 27
f 12 27 13
f 13 27 28
f 15 29 30
f 15 30 16
f 15 17 31
f 15 31 32
f 15 32 33
f 15 33 34
f 15 34 35
f 15 35 29
f 16 30 18
f 18 36 37
f 18 37 19
f 18 30 36
f 19 37 20
f 20 37 38
f 20 38 39
f 20 39 21
f 21 39 40
f 21 40 22
f 22 40 23
f 23 40 41
f 23 41 42
f 23 42 43
f 23 43 24
f 24 43 26
f 25 44 27
f 25 26 45
f 25 45 46
f 25 46 44
f 26 43 45
f 27 44 47
f 27 47 28
f 28 47 48
f 29 49 30
f 29 35 50
f 29 50 51
f 29 51 49
f 30 49 36
f 36 49 37
f 37 52 53
f 37 53 54
f 37 54 55
f 37 55 38
f 37 49 52
f 38 55 39
f 39 55 40
f 40 55 41
f 41 55 56
f 41 56 42
f 42 56 57
f 42 57 58
f 42 58 59
f 42 59 43
f 43 59 45
f 44 60 47
f 44 46 61
f 44 61 60
f 45 59 46
f 46 59 62
f 46 62 61
f 47 60 63
f 47 63 48
f 48 63 64
f 49 65 66
f 49 66 52
f 49 51 65
f 51 67 65
f 52 66 68
f 52 68 53
f 53 68 54
f 54 68 55
f 55 68 69
f 55 69 56
f 56 69 70
f 56 70 71
f 56 71 57
f 57 71 58
f 58 72 73
f 58 73 59
f 58 71 74
f 58 74 72
f 59 73 62
f 60 75 63
f 60 61 76
f 60 76 75
f 61 62 76
f 62 73 76
f 63 75 77
f 63 77 78
f 63 78 64
f 65 79 80
f 65 80 66
f 65 67 79
f 66 80 81
f 66 81 68
f 67 82 79
f 68 81 69
f 69 81 83
f 69 83 70
f 70 83 84
f 70 84 85
f 70 85 86
f 70 86 87
f 70 87 71
f 71 87 72
f 71 72 74
f 72 87 88
f 72 88 89
f 72 89 76
f 72 76 73
f 75 90 77
f 75 76 89
f 75 89 90
f 77 90 91
f 77 91 92
f 77 92 78
f 79 93 80
f 79 82 94
f 79 94 93
f 80 95 96
f 80 96 81
f 80 93 95
f 81 96 97
f 81 97 83
f 83 97 84
f 84 97 98
f 84 98 99
f 84 99 85
f 85 99 100
f 85 100 101
f 85 101 86
f 86 101 102
f 86 102 103
f 86 103 104
f 86 104 105
f 86 105 87
f 87 105 88
f 88 106 107
f 88 107 89
f 88 105 106
f 89 107 108
f 89 108 90
f 90 108 91
f 91 108 109
f 91 109 110
f 91 110 92
f 93 111 112
f 93 112 95
f 93 94 113
f 93 113 114
f 93 114 115
f 93 115 111
f 95 112 96
f 96 112 116
f 96 116 97
f 97 116 98
f 98 116 117
f 98 117 118
f 98 118 99
f 99 119 100
f 99 118 119
f 100 119 120
f 100 120 121
f 100 121 101
f 101 121 102
f 102 121 122
f 102 122 123
f 102 123 124
f 102 124 125
f 102 125 126
f 102 126 103
f 103 126 104
f 104 106 105
f 104 126 127
f 104 127 128
f 104 128 106
f 106 128 107
f 107 128 108
f 108 129 130
f 108 130 109
f 108 128 129
f 109 130 110
f 110 130 131
f 111 132 133
f 111 133 112
f 111 115 134
f 111 134 132
f 112 117 116
f 112 133 117
f 117 133 135
f 117 135 136
f 117 136 118
f 118 136 137
f 118 137 119
f 119 138 139
f 119 139 120
f 119 137 138
f 120 139 122
f 120 122 121
f 122 139 140
f 122 140 123
f 123 140 141
f 123 141 142
f 123 142 124
f 124 142 125
f 125 142 143
f 125 143 126
f 126 143 144
f 126 144 127
f 127 144 145
f 127 145 146
f 127 146 128
f 128 146 129
f 129 146 147
f 129 147 130
f 130 147 148
f 130 148 131
f 132 134 149
f 132 149 133
f 133 149 150
f 133 150 151
f 133 151 135
f 135 151 152
f 135 152 153
f 135 153 136
f 136 153 137
f 137 153 154
f 137 154 155
f 137 155 156
f 137 156 138
f 138 156 157
f 138 157 139
f 139 157 140
f 140 157 158
f 140 158 159
f 140 159 141
f 141 159 160
f 141 160 142
f 142 160 161
f 142 161 162
f 142 162 163
f 142 163 143
f 143 163 145
f 143 145 144
f 145 163 147
f 145 147 146
f 147 163 164
f 147 164 165
f 147 165 148
f 156 158 157
f 159 166 160
f 160 166 161
f 161 166 167
f 161 167 168
f 161 168 169
f 161 169 162
f 162 169 164
f 162 164 163
f 164 169 168
f 164 168 165

