# https://github.com/mikedh/trimesh
v -0.09723897 0.01836483 0.25043541
v -0.09718108 0.01981894 0.25043541
v -0.09700742 0.01186082 0.25043541
v -0.26305857 0.00984311 0.43224719
v -0.09683376 0.02423761 0.25043541
v -0.26305857 -0.00579133 0.43402261
v -0.26305857 0.00218934 0.43267906
v -0.09564705 0.00439867 0.25043541
v -0.26305857 0.01676419 0.43306291
v -0.09602333 0.02926497 0.25043541
v -0.26305857 -0.01337747 0.43728554
v -0.09353415 -0.00419069 0.25043541
v -0.09133442 -0.01134848 0.25043541
v -0.09052399 -0.01340001 0.25043541
v -0.26305857 0.02243407 0.43546212
v -0.09570494 0.03055000 0.25043541
v -0.26305857 -0.01996038 0.44050047
v -0.08739804 -0.02036618 0.25043541
v -0.08644290 -0.02248534 0.25043541
v -0.26305857 0.02625532 0.43858111
v -0.09272372 0.03731327 0.25043541
v -0.26305857 -0.02585571 0.44383535
v -0.08059622 -0.03048855 0.25043541
v -0.26305857 -0.02653203 0.44424322
v -0.26305857 0.02712327 0.43958876
v -0.08710860 0.04314096 0.25043541
v -0.07414174 -0.03802960 0.25043541
v -0.26305857 -0.03025183 0.44755411
v -0.26305857 0.03014420 0.44349948
v -0.08001735 0.04888974 0.25043541
v -0.06829507 -0.04300060 0.25043541
v -0.26305857 -0.03438870 0.45168075
v -0.26305857 -0.03100707 0.44829789
v -0.26305857 0.03057254 0.44436318
v -0.07217355 0.05230519 0.25043541
v -0.26305857 0.03262407 0.44887370
v -0.26305857 0.03302986 0.45007330
v -0.06624006 -0.04453361 0.25043541
v -0.26305857 -0.03677839 0.45515960
v -0.06007500 0.05634061 0.25043541
v -0.26305857 0.03443888 0.45482373
v -0.05897513 -0.04916646 0.25043541
v -0.26305857 -0.03822123 0.45743886
v -0.04852638 0.05805397 0.25043541
v -0.26305857 0.03527302 0.45943019
v -0.26305857 0.03547591 0.46122959
v -0.24954179 0.03743726 0.45715094
v -0.05694906 -0.05036130 0.25043541
v -0.26305857 -0.03852557 0.45899832
v -0.04762913 -0.05420509 0.25043541
v -0.04583460 -0.05484761 0.25043541
v -0.03680410 0.05725366 0.25043541
v -0.18936741 0.04289297 0.43658975
v -0.13651584 0.04424563 0.40292892
v -0.26305857 0.03479959 0.46806735
v -0.24630007 0.03725691 0.46300501
v -0.26305857 -0.03939353 0.46350884
v -0.03275196 -0.05710203 0.25043541
v -0.26305857 -0.03984441 0.46602800
v -0.02568965 0.05524722 0.25043541
v -0.24230582 0.03610715 0.46943489
v -0.18386807 0.04149523 0.44229987
v -0.12980086 0.04195739 0.40698355
v -0.26305857 0.03269170 0.47545689
v -0.01828001 -0.05577192 0.25043541
v -0.17281149 -0.03983314 0.44299564
v -0.23518559 -0.04021639 0.46310097
v -0.26305857 -0.04006985 0.46885908
v -0.01295433 0.05168523 0.25043541
v -0.23758796 0.03340184 0.47651255
v -0.17767407 0.03851939 0.44848981
v -0.12273855 0.03853066 0.41139811
v -0.09130547 0.04107816 0.37044367
v -0.26305857 0.02881409 0.48335028
v -0.00430010 -0.05014713 0.25043541
v -0.08279596 -0.03992331 0.36797249
v -0.12024938 -0.03975423 0.40703154
v -0.16606757 -0.03607952 0.44762611
v -0.22548941 -0.03640641 0.47356153
v -0.23014936 -0.03932589 0.46825927
v -0.26305857 -0.03972042 0.47121030
v -0.00004535 0.04618443 0.25043541
v -0.08366428 0.03695256 0.37284288
v -0.26305857 0.02578189 0.48680514
v -0.23263854 0.02787850 0.48248655
v -0.17171162 0.03272552 0.45364809
v -0.11541574 0.03374001 0.41617250
v 0.00915881 -0.04188466 0.25043541
v -0.07422857 -0.03542574 0.36993983
v -0.11226086 -0.03531302 0.41022250
v -0.16051033 -0.03043219 0.45225656
v -0.22207402 -0.03099579 0.47788009
v -0.26305857 -0.02627277 0.48891643
v -0.26305857 -0.03279933 0.48299038
v -0.26305857 -0.03582026 0.47965550
v -0.26305857 -0.03788306 0.47639257
v -0.26305857 -0.03881865 0.47442523
v 0.01211109 0.03584789 0.25043541
v -0.04959731 0.03530683 0.33493543
v -0.04247711 0.02889299 0.33647090
v -0.07663091 0.03149685 0.37512213
v -0.26305857 0.02232135 0.48992410
v -0.22835484 0.01985275 0.48570150
v -0.16606757 0.02529719 0.45787072
v -0.10901914 0.02666111 0.41991529
v 0.01923128 -0.03309241 0.25043541
v -0.06693470 -0.02930498 0.37231505
v -0.10571954 -0.02910208 0.41343743
v -0.10169633 -0.02109887 0.41614854
v -0.15758701 -0.02236135 0.45520759
v -0.22010583 -0.02409725 0.48138291
v -0.26305857 -0.01999420 0.49299508
v 0.02473063 0.02220863 0.25043541
v -0.07023431 0.02488012 0.37725741
v -0.06470603 0.01700090 0.37898484
v -0.03660150 0.02092360 0.33755055
v -0.26305857 0.01381089 0.49325898
v -0.22473685 0.01088014 0.48721299
v -0.16192859 0.01590751 0.45952615
v -0.10470650 0.01727143 0.42101890
v -0.06007500 0.00787049 0.38023242
v 0.02195201 -0.03038710 0.25043541
v -0.06181164 -0.02135813 0.37485820
v -0.09967026 -0.01221644 0.41869169
v -0.05804893 -0.01250951 0.37814513
v -0.15666080 -0.01342255 0.45717496
v -0.21964273 -0.01618422 0.48380613
v -0.26305857 -0.01231789 0.49484247
v 0.03263231 0.00463539 0.25043541
v -0.03199942 0.01150011 0.33803040
v -0.26305857 0.00497355 0.49537030
v -0.22198719 0.00146792 0.48706904
v -0.15877371 0.00593168 0.45998201
v -0.10184105 0.00729561 0.42085096
v -0.05735428 -0.00235333 0.38020843
v 0.03234287 -0.01432432 0.25043541
v -0.09967026 -0.00260132 0.42049110
v -0.15689236 -0.00403288 0.45923826
v -0.22036633 -0.00766250 0.48553354
v -0.26305857 -0.00390888 0.49553823
f 1 2 5
f 1 5 10
f 1 10 16
f 1 16 21
f 1 21 26
f 1 26 30
f 1 30 35
f 1 35 40
f 1 40 44
f 1 44 52
f 1 52 60
f 1 60 69
f 1 69 82
f 1 82 98
f 1 98 113
f 1 113 129
f 1 129 136
f 1 136 122
f 1 122 106
f 1 106 88
f 1 88 75
f 1 75 65
f 1 65 58
f 1 58 51
f 1 51 50
f 1 50 48
f 1 48 42
f 1 42 38
f 1 38 31
f 1 31 27
f 1 27 23
f 1 23 19
f 1 19 18
f 1 18 14
f 1 14 13
f 1 13 12
f 1 12 8
f 1 8 3
f 1 3 4
f 1 4 2
f 2 4 5
f 3 6 7
f 3 7 4
f 3 8 6
f 4 7 6
f 4 6 11
f 4 11 17
f 4 17 22
f 4 22 24
f 4 24 28
f 4 28 33
f 4 33 32
f 4 32 39
f 4 39 43
f 4 43 49
f 4 49 57
f 4 57 59
f 4 59 68
f 4 68 81
f 4 81 97
f 4 97 96
f 4 96 95
f 4 95 94
f 4 94 93
f 4 93 112
f 4 112 128
f 4 128 140
f 4 140 131
f 4 131 117
f 4 117 102
f 4 102 84
f 4 84 74
f 4 74 64
f 4 64 55
f 4 55 46
f 4 46 45
f 4 45 41
f 4 41 37
f 4 37 36
f 4 36 34
f 4 34 29
f 4 29 25
f 4 25 20
f 4 20 15
f 4 15 9
f 4 9 5
f 5 9 10
f 6 8 12
f 6 12 13
f 6 13 14
f 6 14 11
f 9 15 16
f 9 16 10
f 11 14 18
f 11 18 19
f 11 19 17
f 15 20 21
f 15 21 16
f 17 19 22
f 19 23 24
f 19 24 22
f 20 25 26
f 20 26 21
f 23 27 28
f 23 28 24
f 25 29 26
f 26 29 30
f 27 31 32
f 27 32 33
f 27 33 28
f 29 34 30
f 30 34 36
f 30 36 37
f 30 37 35
f 31 38 39
f 31 39 32
f 35 37 41
f 35 41 40
f 38 42 43
f 38 43 39
f 40 41 45
f 40 45 46
f 40 46 47
f 40 47 44
f 42 48 43
f 43 48 50
f 43 50 51
f 43 51 49
f 44 47 53
f 44 53 54
f 44 54 52
f 46 55 56
f 46 56 47
f 47 56 53
f 49 51 57
f 51 58 59
f 51 59 57
f 52 54 60
f 53 56 61
f 53 61 62
f 53 62 54
f 54 62 63
f 54 63 60
f 55 64 61
f 55 61 56
f 58 65 66
f 58 66 67
f 58 67 68
f 58 68 59
f 60 63 69
f 61 64 70
f 61 70 62
f 62 71 63
f 62 70 71
f 63 71 72
f 63 72 73
f 63 73 69
f 64 74 70
f 65 75 76
f 65 76 77
f 65 77 66
f 66 77 78
f 66 78 79
f 66 79 80
f 66 80 67
f 67 80 68
f 68 80 81
f 69 73 83
f 69 83 82
f 70 74 84
f 70 84 85
f 70 85 71
f 71 86 87
f 71 87 72
f 71 85 86
f 72 87 73
f 73 87 83
f 75 88 89
f 75 89 76
f 76 89 90
f 76 90 77
f 77 90 78
f 78 90 91
f 78 91 79
f 79 92 93
f 79 93 94
f 79 94 95
f 79 95 96
f 79 96 80
f 79 91 92
f 80 96 97
f 80 97 81
f 82 83 99
f 82 99 100
f 82 100 98
f 83 87 101
f 83 101 99
f 84 102 85
f 85 103 104
f 85 104 86
f 85 102 103
f 86 104 105
f 86 105 87
f 87 105 101
f 88 106 107
f 88 107 89
f 89 107 90
f 90 108 91
f 90 107 108
f 91 108 109
f 91 109 110
f 91 110 111
f 91 111 92
f 92 111 112
f 92 112 93
f 98 100 113
f 99 101 100
f 100 101 114
f 100 114 115
f 100 115 116
f 100 116 113
f 101 105 114
f 102 117 103
f 103 117 118
f 103 118 119
f 103 119 104
f 104 119 105
f 105 119 120
f 105 120 121
f 105 121 115
f 105 115 114
f 106 122 107
f 107 122 123
f 107 123 108
f 108 123 109
f 109 124 110
f 109 123 125
f 109 125 124
f 110 126 127
f 110 127 111
f 110 124 126
f 111 127 112
f 112 127 128
f 113 116 121
f 113 121 130
f 113 130 129
f 115 121 116
f 117 131 118
f 118 131 132
f 118 132 133
f 118 133 119
f 119 133 120
f 120 133 134
f 120 134 121
f 121 135 129
f 121 129 130
f 121 134 135
f 122 136 125
f 122 125 123
f 124 137 138
f 124 138 126
f 124 125 135
f 124 135 137
f 125 136 135
f 126 138 127
f 127 138 139
f 127 139 128
f 128 139 132
f 128 132 140
f 129 135 136
f 131 140 132
f 132 139 138
f 132 138 133
f 133 138 137
f 133 137 134
f 134 137 135

