# https://github.com/mikedh/trimesh
v 0.06427610 0.16747516 0.20672768
v -0.15792549 0.16747516 0.22752434
v -0.01976726 0.07384741 0.21347064
v -0.00241048 0.07384741 0.21077347
v 0.02088415 0.07384741 0.20530811
v 0.05142164 0.07384741 0.19558409
v 0.06427610 0.07384741 0.19132540
v 0.06427610 0.16747516 -0.49432561
v -0.03447049 0.07384741 0.21425140
v -0.15792549 0.16747516 -0.45237741
v -0.15792549 0.07384741 0.17819437
v 0.06427610 0.07384741 -0.47196743
v 0.06427610 0.15550593 -0.49255115
v 0.01318453 0.13829440 -0.49631301
v 0.05725074 0.16747516 -0.49517736
v -0.14865984 0.16747516 -0.45983014
v -0.15792549 0.09401000 -0.45571339
v -0.15792549 0.07384741 -0.45578435
v 0.02995405 0.07384741 -0.47714883
v 0.04676707 0.11653712 -0.48886028
v 0.06427610 0.09743765 -0.47856840
v -0.02396507 0.14919136 -0.49297702
v -0.00717380 0.16747516 -0.49496442
v 0.02031864 0.16747516 -0.49759060
v 0.00531090 0.09643868 -0.48736972
v -0.02316031 0.09583381 -0.48495647
v -0.03386148 0.09643868 -0.48417571
v -0.04908673 0.09730934 -0.48304003
v -0.10059156 0.16747516 -0.48076874
v -0.09297894 0.14438900 -0.48190439
v -0.07014107 0.07384741 -0.46969610
v 0.02188466 0.07384741 -0.47828451
v 0.00341862 0.08640321 -0.48516941
v -0.06017941 0.15103349 -0.48836342
v -0.06250670 0.16747516 -0.48807952
v -0.08882462 0.14523216 -0.48282710
v -0.08882462 0.16747516 -0.48304003
v 0.00183084 0.07384741 -0.47785863
f 1 2 3
f 1 3 4
f 1 4 5
f 1 5 6
f 1 6 7
f 1 7 12
f 1 12 21
f 1 21 13
f 1 13 8
f 1 8 15
f 1 15 24
f 1 24 23
f 1 23 35
f 1 35 37
f 1 37 29
f 1 29 16
f 1 16 10
f 1 10 2
f 2 9 3
f 2 10 17
f 2 17 18
f 2 18 11
f 2 11 9
f 3 9 11
f 3 11 18
f 3 18 31
f 3 31 38
f 3 38 32
f 3 32 19
f 3 19 12
f 3 12 7
f 3 7 6
f 3 6 5
f 3 5 4
f 8 13 14
f 8 14 15
f 10 16 17
f 12 19 20
f 12 20 21
f 13 20 14
f 13 21 20
f 14 22 23
f 14 23 24
f 14 24 15
f 14 20 25
f 14 25 26
f 14 26 27
f 14 27 28
f 14 28 22
f 16 18 17
f 16 29 18
f 18 29 30
f 18 30 28
f 18 28 31
f 19 32 33
f 19 33 20
f 20 33 25
f 22 34 35
f 22 35 23
f 22 28 34
f 25 33 26
f 26 33 27
f 27 33 28
f 28 30 36
f 28 36 34
f 28 33 31
f 29 37 36
f 29 36 30
f 31 33 38
f 32 38 33
f 34 36 35
f 35 36 37

