# https://github.com/mikedh/trimesh
v -0.15792549 0.14053994 0.20912105
v -0.15795459 0.16747251 0.22745427
v -0.15792549 -0.11271396 0.18830073
v -0.15792549 0.14053994 -0.44888616
v -0.18184441 0.16747251 0.23420489
v -0.29978040 0.02540459 0.27008975
v -0.25269911 -0.11271396 0.23903692
v -0.21236867 -0.11271396 0.22098792
v -0.20582151 -0.10528143 0.21821660
v -0.16240664 -0.11271396 0.19107202
v -0.15795459 0.16747251 -0.45243910
v -0.15792549 -0.11271396 -0.43730351
v -0.15792549 0.09399762 -0.45570782
v -0.23148635 0.16747251 0.23974749
v -0.29308775 0.07244059 0.26611042
v -0.34200224 0.08173808 0.26618147
v -0.35175022 0.02441725 0.26987657
v -0.34456292 -0.03227279 0.26575512
v -0.31409684 -0.11271396 0.25353298
v -0.29294226 -0.01960187 0.26312596
v -0.27327171 -0.11271396 0.24472165
v -0.16872101 0.08316426 -0.45549464
v -0.25985733 0.04345106 -0.44419625
v -0.31287470 0.07076760 -0.41662532
v -0.35151744 0.09558834 -0.36965525
v -0.16444354 0.16747251 -0.44710967
v -0.28278691 -0.11271396 -0.40099230
v -0.30335951 -0.09623078 -0.40966153
v -0.26244709 -0.04881081 -0.43431902
v -0.15792549 -0.09228140 -0.44028798
v -0.15792549 0.07331824 -0.45584995
v -0.28278691 0.16747251 0.23839739
v -0.38989830 0.09185837 0.24344257
v -0.30146810 0.16747251 0.23626560
v -0.33679363 0.16747251 0.22773853
v -0.40380734 0.02466408 0.24642706
v -0.39787126 -0.04373696 0.24422422
v -0.37924826 -0.10999876 0.24074233
v -0.37796792 -0.11271396 0.24052915
v -0.33397108 -0.11271396 0.25019318
v -0.32666737 -0.08578139 0.25758332
v -0.29512465 -0.11271396 0.24962473
v -0.20262069 0.01857546 -0.44796237
v -0.32486326 0.01355646 -0.41392508
v -0.20855677 -0.01666726 -0.44426730
v -0.26716104 -0.00325583 -0.43879575
v -0.37185726 0.03154807 -0.37171596
v -0.20323175 0.16747251 -0.41335660
v -0.40011185 0.04783926 -0.31522399
v -0.37011135 0.11382679 -0.30875760
v -0.28150657 0.16747251 -0.32041132
v -0.34313709 -0.11271396 -0.37278184
v -0.35503834 -0.09842489 -0.37448728
v -0.32116777 -0.04379181 -0.41122481
v -0.15792549 -0.00015666 -0.44938356
v -0.15792549 0.05658823 -0.45464194
v -0.37505808 0.16747251 0.19547769
v -0.38311833 0.16335857 0.19171154
v -0.39790034 0.14053994 0.19327486
v -0.42446724 0.09948286 0.19597510
v -0.43910375 0.02480122 0.19426969
v -0.43482628 -0.05199226 0.19135627
v -0.42202297 -0.11271396 0.19000614
v -0.41492295 -0.11271396 0.19967017
v -0.38506794 -0.11271396 0.23328114
v -0.37179905 -0.03553651 -0.37228444
v -0.40799752 -0.02522425 -0.32062447
v -0.43025783 -0.01510397 -0.26207179
v -0.41480654 0.06100385 -0.25375789
v -0.30644393 0.16747251 -0.28360271
v -0.37913185 0.12743020 -0.24594139
v -0.36996585 0.14053994 -0.23201379
v -0.35111004 0.16747251 -0.20330593
v -0.37927735 -0.11271396 -0.32467484
v -0.39280814 -0.09573711 -0.32552755
v -0.37948105 0.16747251 0.19149837
v -0.39368108 0.16747251 0.15888226
v -0.40022823 0.16747251 0.14211231
v -0.41559219 0.14053994 0.14083324
v -0.43796891 0.10129300 0.13898571
v -0.45440954 0.02279910 0.13493535
v -0.45053944 -0.05830029 0.13052969
v -0.43962753 -0.11271396 0.12782943
v -0.43447709 -0.11271396 0.14602056
v -0.41917133 -0.09118436 -0.26981723
v -0.43791074 -0.08704299 -0.21183302
v -0.44221729 -0.00676639 -0.20181368
v -0.42315781 0.07090472 -0.19307342
v -0.38442779 0.13774247 -0.18532798
v -0.36533919 0.16747251 -0.15598057
v -0.40310898 -0.11271396 -0.26995936
v -0.40566963 0.16747251 0.09080765
v -0.41870573 0.14053994 0.08832058
v -0.43887097 0.09874236 0.08441234
v -0.45519519 0.01904171 0.07879867
v -0.45301282 -0.06356613 0.07354029
v -0.44297385 -0.11271396 0.07020052
v -0.42577666 -0.11271396 -0.21439114
v -0.43287671 -0.11271396 -0.15555422
v -0.43802711 -0.11271396 -0.09778318
v -0.44477797 -0.08196913 -0.15207233
v -0.44920093 -0.07760837 -0.09387492
v -0.44640747 -0.00010181 -0.14233723
v -0.45001566 0.00519145 -0.08527678
v -0.42612585 0.07809040 -0.13409437
v -0.39880240 0.16025943 -0.01542569
v -0.39315730 0.16747251 -0.01457299
v -0.40307987 0.16747251 0.06217083
v -0.40188685 0.16552526 0.03836603
v -0.45205256 0.00996362 -0.02992175
v -0.45379847 0.01462608 0.02443846
v -0.45315832 -0.06858514 0.01797208
v -0.45158699 -0.07322016 -0.03759613
v -0.44041318 -0.11271396 -0.04150438
v -0.40031552 0.16747251 0.03857921
f 1 2 3
f 1 3 12
f 1 12 30
f 1 30 55
f 1 55 56
f 1 56 31
f 1 31 13
f 1 13 4
f 1 4 11
f 1 11 2
f 2 5 6
f 2 6 7
f 2 7 8
f 2 8 9
f 2 9 10
f 2 10 3
f 2 11 26
f 2 26 48
f 2 48 51
f 2 51 70
f 2 70 73
f 2 73 90
f 2 90 107
f 2 107 115
f 2 115 108
f 2 108 92
f 2 92 78
f 2 78 77
f 2 77 76
f 2 76 57
f 2 57 35
f 2 35 34
f 2 34 32
f 2 32 14
f 2 14 5
f 3 10 8
f 3 8 7
f 3 7 21
f 3 21 42
f 3 42 19
f 3 19 40
f 3 40 39
f 3 39 65
f 3 65 64
f 3 64 63
f 3 63 84
f 3 84 83
f 3 83 97
f 3 97 114
f 3 114 100
f 3 100 99
f 3 99 98
f 3 98 91
f 3 91 74
f 3 74 52
f 3 52 27
f 3 27 12
f 4 13 11
f 5 14 15
f 5 15 6
f 6 15 16
f 6 16 17
f 6 17 18
f 6 18 19
f 6 19 20
f 6 20 7
f 7 20 21
f 8 10 9
f 11 13 22
f 11 22 23
f 11 23 24
f 11 24 25
f 11 25 26
f 12 27 28
f 12 28 29
f 12 29 30
f 13 31 22
f 14 32 16
f 14 16 15
f 16 33 17
f 16 32 34
f 16 34 35
f 16 35 33
f 17 33 36
f 17 36 37
f 17 37 18
f 18 37 38
f 18 38 39
f 18 39 40
f 18 40 41
f 18 41 19
f 19 41 40
f 19 42 20
f 20 42 21
f 22 43 23
f 22 31 43
f 23 44 24
f 23 43 45
f 23 45 46
f 23 46 44
f 24 44 47
f 24 47 25
f 25 48 26
f 25 47 49
f 25 49 50
f 25 50 51
f 25 51 48
f 27 52 28
f 28 52 53
f 28 53 54
f 28 54 29
f 29 46 45
f 29 45 30
f 29 54 46
f 30 45 55
f 31 56 43
f 33 35 57
f 33 57 58
f 33 58 59
f 33 59 60
f 33 60 36
f 36 60 61
f 36 61 62
f 36 62 37
f 37 62 63
f 37 63 64
f 37 64 65
f 37 65 38
f 38 65 39
f 43 56 55
f 43 55 45
f 44 54 66
f 44 66 47
f 44 46 54
f 47 66 67
f 47 67 49
f 49 67 68
f 49 68 69
f 49 69 50
f 50 70 51
f 50 69 71
f 50 71 72
f 50 72 73
f 50 73 70
f 52 74 53
f 53 74 75
f 53 75 66
f 53 66 54
f 57 76 58
f 58 76 77
f 58 77 59
f 59 77 60
f 60 77 78
f 60 78 79
f 60 79 80
f 60 80 81
f 60 81 61
f 61 81 82
f 61 82 62
f 62 82 83
f 62 83 84
f 62 84 63
f 66 75 67
f 67 85 68
f 67 75 85
f 68 85 86
f 68 86 87
f 68 87 69
f 69 87 88
f 69 88 71
f 71 88 89
f 71 89 90
f 71 90 72
f 72 90 73
f 74 91 75
f 75 91 85
f 78 92 79
f 79 92 80
f 80 92 93
f 80 93 94
f 80 94 81
f 81 94 95
f 81 95 96
f 81 96 82
f 82 96 83
f 83 96 97
f 85 91 98
f 85 98 86
f 86 98 99
f 86 99 100
f 86 100 101
f 86 101 87
f 87 101 102
f 87 102 103
f 87 103 88
f 88 103 104
f 88 104 94
f 88 94 105
f 88 105 106
f 88 106 89
f 89 106 107
f 89 107 90
f 92 108 109
f 92 109 93
f 93 109 94
f 94 110 111
f 94 111 95
f 94 109 105
f 94 104 110
f 95 111 112
f 95 112 96
f 96 112 97
f 97 112 113
f 97 113 102
f 97 102 114
f 100 114 102
f 100 102 101
f 102 113 104
f 102 104 103
f 104 113 110
f 105 109 106
f 106 109 107
f 107 109 115
f 108 115 109
f 110 113 111
f 111 113 112

