# https://github.com/mikedh/trimesh
v 0.02189589 -0.32526299 0.23423590
v -0.09189291 -0.25107676 0.25349939
v -0.09657986 -0.30448025 0.26006818
v 0.02189589 -0.34467641 0.23349781
v 0.02189589 -0.25156265 0.21467714
v -0.12830979 -0.25107676 0.25770634
v 0.02189589 -0.25107676 0.21452953
v -0.14277983 -0.25107676 0.25851822
v -0.15449721 -0.29769990 0.26272523
v -0.09922092 -0.37142232 0.23836906
v 0.02189589 -0.38319406 0.21526761
v 0.02189589 -0.25107676 -0.49113488
v -0.19474548 -0.25107676 0.24220701
v -0.20095755 -0.26600677 0.24442120
v -0.28119370 -0.25107676 0.20611559
v -0.22085850 -0.32042620 0.21571045
v -0.16643777 -0.35887760 0.23216932
v -0.09605909 -0.42946380 0.18434267
v -0.01418622 -0.42365527 0.19039480
v 0.02189589 -0.41687492 0.19541363
v 0.02189589 -0.25721663 -0.48884690
v -0.01236351 -0.25107676 -0.48722315
v -0.30001593 -0.25107676 0.19482319
v -0.33669317 -0.25107676 0.16559578
v -0.23428699 -0.36378065 0.16197927
v -0.17123632 -0.40673754 0.17194314
v -0.08817311 -0.46228331 0.11260270
v -0.00023694 -0.46263671 0.12197612
v 0.02189589 -0.43226871 0.17024560
v 0.02189589 -0.29297355 -0.47511888
v -0.01385143 -0.29337108 -0.46973097
v -0.10513541 -0.26591843 -0.46227652
v -0.01712486 -0.25107676 -0.48618984
v -0.35607335 -0.25107676 0.10861714
v -0.23570052 -0.38500509 0.09666048
v -0.16859525 -0.43282086 0.10197455
v -0.16208559 -0.44326746 0.03621291
v -0.07931997 -0.47374585 0.04241265
v 0.01043889 -0.47584403 0.05008854
v 0.02189589 -0.45910299 0.12455936
v 0.02189589 -0.30238211 -0.46921432
v -0.01786882 -0.33763105 -0.44138926
v -0.07374027 -0.32654396 -0.43710852
v -0.06008859 -0.28385210 -0.46375269
v -0.12737983 -0.25107676 -0.46087420
v -0.09765860 -0.25107676 -0.46825486
v -0.12697065 -0.30412686 -0.43423003
v -0.35804486 -0.25107676 0.07547799
v -0.23067877 -0.39379525 0.03569627
v -0.22394593 -0.39799154 -0.02290614
v -0.21676672 -0.39964798 -0.08047524
v -0.20995948 -0.39971423 -0.13730629
v -0.14560688 -0.44397420 -0.08593693
v -0.07065283 -0.47284034 -0.02416085
v 0.01851086 -0.47668326 -0.01928961
v 0.02189589 -0.47405505 0.05112183
v 0.02189589 -0.33575374 -0.44367731
v 0.02189589 -0.37312293 -0.40559310
v -0.02326253 -0.37270331 -0.40205038
v -0.08728036 -0.36154997 -0.39968860
v -0.15594792 -0.25107676 -0.44921279
v -0.17447254 -0.27196994 -0.43090874
v -0.14605325 -0.33354518 -0.39481735
v -0.35811925 -0.25107676 0.05355746
v -0.28424394 -0.33376601 0.04049370
v -0.26478937 -0.34056845 -0.12653053
v -0.25734976 -0.33886784 -0.18277112
v -0.20251986 -0.39686519 -0.19369450
v -0.13764650 -0.44017544 -0.14328462
v -0.06291564 -0.46994710 -0.08667500
v 0.02189589 -0.47454095 -0.05346205
v 0.02189589 -0.47610903 -0.01906820
v 0.02189589 -0.40185657 -0.36005446
v -0.02966060 -0.40070811 -0.35695457
v -0.09925812 -0.38683823 -0.35400233
v -0.18853340 -0.25107676 -0.42323285
v -0.19664258 -0.29440913 -0.38817477
v -0.16145323 -0.35370952 -0.34765494
v -0.35239077 -0.25107676 -0.00091179
v -0.33929706 -0.25107676 -0.08630596
v -0.33297336 -0.25107676 -0.11140019
v -0.24641354 -0.33277217 -0.23760939
v -0.19269958 -0.38902470 -0.24868037
v -0.12890495 -0.43156198 -0.19878715
v -0.05581082 -0.46290174 -0.14564642
v 0.02189589 -0.46575081 -0.14040616
v 0.02189589 -0.47248697 -0.08468222
v 0.02189589 -0.40715715 -0.34824541
v -0.03631905 -0.42230803 -0.30787322
v -0.11026874 -0.40609705 -0.30462575
v -0.17726240 -0.37204072 -0.29923785
v -0.21940777 -0.25107676 -0.37252778
v -0.24645075 -0.25107676 -0.32470113
v -0.23231548 -0.32312065 -0.29030728
v -0.31530431 -0.25107676 -0.16645987
v -0.12023781 -0.42118165 -0.25288737
v -0.04926396 -0.45333856 -0.20225605
v 0.02189589 -0.46511030 -0.14557262
v 0.02189589 -0.42350066 -0.31030884
v 0.02189589 -0.42729941 -0.29960689
v -0.04290310 -0.44019753 -0.25643006
v -0.24719471 -0.25107676 -0.32307738
v 0.02189589 -0.45364779 -0.20321554
v 0.02189589 -0.44357663 -0.24882798
v 0.02189589 -0.44125766 -0.25827521
f 1 2 3
f 1 3 4
f 1 4 11
f 1 11 20
f 1 20 29
f 1 29 40
f 1 40 56
f 1 56 72
f 1 72 71
f 1 71 87
f 1 87 86
f 1 86 98
f 1 98 103
f 1 103 104
f 1 104 105
f 1 105 100
f 1 100 99
f 1 99 88
f 1 88 73
f 1 73 58
f 1 58 57
f 1 57 41
f 1 41 30
f 1 30 21
f 1 21 12
f 1 12 7
f 1 7 5
f 1 5 2
f 2 6 3
f 2 5 7
f 2 7 12
f 2 12 22
f 2 22 33
f 2 33 46
f 2 46 45
f 2 45 61
f 2 61 76
f 2 76 92
f 2 92 93
f 2 93 102
f 2 102 95
f 2 95 81
f 2 81 80
f 2 80 79
f 2 79 64
f 2 64 48
f 2 48 34
f 2 34 24
f 2 24 23
f 2 23 15
f 2 15 13
f 2 13 8
f 2 8 6
f 3 6 8
f 3 8 9
f 3 9 10
f 3 10 4
f 4 10 11
f 8 13 14
f 8 14 9
f 9 14 15
f 9 15 16
f 9 16 17
f 9 17 10
f 10 17 18
f 10 18 19
f 10 19 20
f 10 20 11
f 12 21 22
f 13 15 14
f 15 23 16
f 16 23 24
f 16 24 25
f 16 25 17
f 17 25 26
f 17 26 18
f 18 26 27
f 18 27 28
f 18 28 19
f 19 28 29
f 19 29 20
f 21 30 22
f 22 30 31
f 22 31 32
f 22 32 33
f 24 34 25
f 25 34 35
f 25 35 36
f 25 36 26
f 26 36 27
f 27 36 37
f 27 37 38
f 27 38 39
f 27 39 28
f 28 40 29
f 28 39 40
f 30 41 42
f 30 42 31
f 31 42 43
f 31 43 44
f 31 44 32
f 32 45 46
f 32 46 33
f 32 44 43
f 32 43 47
f 32 47 45
f 34 48 35
f 35 48 49
f 35 49 37
f 35 37 36
f 37 49 50
f 37 50 51
f 37 51 52
f 37 52 53
f 37 53 38
f 38 54 55
f 38 55 39
f 38 53 54
f 39 55 56
f 39 56 40
f 41 57 42
f 42 57 58
f 42 58 59
f 42 59 60
f 42 60 43
f 43 60 47
f 45 47 61
f 47 62 61
f 47 60 63
f 47 63 62
f 48 64 49
f 49 65 50
f 49 64 65
f 50 65 64
f 50 64 66
f 50 66 51
f 51 66 52
f 52 66 67
f 52 67 68
f 52 68 53
f 53 68 69
f 53 69 70
f 53 70 54
f 54 70 55
f 55 70 71
f 55 71 72
f 55 72 56
f 58 73 59
f 59 73 74
f 59 74 60
f 60 74 75
f 60 75 63
f 61 62 76
f 62 63 77
f 62 77 76
f 63 75 78
f 63 78 77
f 64 79 66
f 66 79 80
f 66 80 67
f 67 80 81
f 67 81 82
f 67 82 68
f 68 82 83
f 68 83 69
f 69 83 84
f 69 84 85
f 69 85 70
f 70 85 86
f 70 86 87
f 70 87 71
f 73 88 74
f 74 88 89
f 74 89 75
f 75 89 90
f 75 90 91
f 75 91 78
f 76 77 92
f 77 93 92
f 77 78 91
f 77 91 94
f 77 94 93
f 81 95 82
f 82 94 83
f 82 95 94
f 83 94 91
f 83 91 90
f 83 90 96
f 83 96 84
f 84 97 85
f 84 96 97
f 85 97 98
f 85 98 86
f 88 99 89
f 89 99 100
f 89 100 101
f 89 101 90
f 90 101 96
f 93 94 102
f 94 95 102
f 96 101 97
f 97 103 98
f 97 101 104
f 97 104 103
f 100 105 101
f 101 105 104

