# https://github.com/mikedh/trimesh
v -0.02690895 -0.25107676 0.22099665
v -0.02690895 -0.11271396 0.19893551
v -0.09096768 -0.24049911 0.25217637
v -0.07869224 -0.25107676 0.24754351
v -0.02690895 -0.25107676 -0.48356202
v -0.22981128 -0.11271396 0.22607070
v -0.05209545 -0.11681771 0.20503908
v -0.02690895 -0.11271396 -0.48422387
v -0.13846055 -0.23395747 0.25695628
v -0.09190126 -0.25107676 0.25350001
v -0.09766158 -0.25107676 -0.46819279
v -0.02690895 -0.24872014 -0.48437095
v -0.22981128 -0.13251489 0.22827682
v -0.14275098 -0.25107676 0.25857410
v -0.22981128 -0.11271396 -0.40789238
v -0.02690895 -0.14144023 -0.49018037
v -0.02953089 -0.14274043 -0.49003330
v -0.04430909 -0.11271396 -0.48128238
v -0.12831046 -0.25107676 0.25769165
v -0.12737688 -0.25107676 -0.46083906
v -0.08445257 -0.22485608 -0.47878212
v -0.02690895 -0.24438615 -0.48584169
v -0.21123922 -0.25107676 0.23460099
v -0.19473290 -0.25107676 0.24217531
v -0.22981128 -0.25107676 0.21393707
v -0.20543917 -0.22593959 -0.41392243
v -0.22981128 -0.14333636 -0.40046513
v -0.12989952 -0.11271396 -0.45598564
v -0.12380151 -0.12488978 -0.46326581
v -0.13933451 -0.17460883 -0.46311873
v -0.17423412 -0.20295587 -0.44620520
v -0.02690895 -0.16501987 -0.49268064
v -0.05116189 -0.15407653 -0.48665059
v -0.06633735 -0.13874502 -0.48135591
v -0.04760638 -0.11597800 -0.48135591
v -0.03360284 -0.16466773 -0.49128342
v -0.04993037 -0.11271396 -0.48017931
v -0.15590040 -0.25107676 -0.44922021
v -0.14527361 -0.23910409 -0.45973602
v -0.11571720 -0.20268500 -0.47525233
v -0.02690895 -0.20092431 -0.49216586
v -0.02690895 -0.21801651 -0.48973915
v -0.22981128 -0.25107676 -0.35406324
v -0.18853560 -0.25107676 -0.42318809
v -0.21940297 -0.25107676 -0.37252104
v -0.22981128 -0.23601612 -0.36494672
v -0.10322326 -0.11271396 -0.46672204
v -0.10785139 -0.14716923 -0.47245795
v -0.13518311 -0.17099266 -0.46436885
v -0.02690895 -0.17099266 -0.49260709
v -0.08884233 -0.16818911 -0.47988516
v -0.07992376 -0.12238419 -0.47532588
v -0.06891956 -0.11271396 -0.47591418
v -0.09102727 -0.17099266 -0.47951749
v -0.08687587 -0.11271396 -0.47142842
f 1 2 3
f 1 3 4
f 1 4 10
f 1 10 19
f 1 19 14
f 1 14 24
f 1 24 23
f 1 23 25
f 1 25 43
f 1 43 45
f 1 45 44
f 1 44 38
f 1 38 20
f 1 20 11
f 1 11 5
f 1 5 12
f 1 12 22
f 1 22 42
f 1 42 41
f 1 41 50
f 1 50 32
f 1 32 16
f 1 16 8
f 1 8 2
f 2 6 7
f 2 7 3
f 2 8 18
f 2 18 37
f 2 37 53
f 2 53 55
f 2 55 47
f 2 47 28
f 2 28 15
f 2 15 6
f 3 9 10
f 3 10 4
f 3 7 9
f 5 11 12
f 6 13 14
f 6 14 9
f 6 9 7
f 6 15 27
f 6 27 46
f 6 46 43
f 6 43 25
f 6 25 13
f 8 16 17
f 8 17 18
f 9 14 19
f 9 19 10
f 11 20 21
f 11 21 22
f 11 22 12
f 13 23 24
f 13 24 14
f 13 25 23
f 15 26 27
f 15 28 29
f 15 29 30
f 15 30 31
f 15 31 26
f 16 32 17
f 17 33 34
f 17 34 35
f 17 35 18
f 17 32 36
f 17 36 33
f 18 35 37
f 20 38 39
f 20 39 21
f 21 39 40
f 21 40 41
f 21 41 42
f 21 42 22
f 26 31 44
f 26 44 45
f 26 45 46
f 26 46 27
f 28 47 29
f 29 47 48
f 29 48 49
f 29 49 30
f 30 49 40
f 30 40 31
f 31 40 39
f 31 39 38
f 31 38 44
f 32 40 36
f 32 50 40
f 33 36 51
f 33 51 34
f 34 51 48
f 34 48 52
f 34 52 35
f 35 52 53
f 35 53 37
f 36 40 54
f 36 54 51
f 40 49 48
f 40 48 54
f 40 50 41
f 43 46 45
f 47 55 48
f 48 55 52
f 48 51 54
f 52 55 53

