# https://github.com/mikedh/trimesh
v 0.06427610 -0.11271396 0.22288439
v 0.06427610 -0.10918351 0.22163552
v 0.06097005 -0.11271396 0.22260687
v 0.06427610 -0.11271396 -0.47758809
v 0.03874119 -0.11271396 0.22073355
v 0.06427610 -0.09404711 0.21324039
v 0.03282509 -0.10618591 0.21781957
v 0.05453194 -0.11271396 -0.47973892
v 0.06427610 -0.08785727 -0.47536790
v -0.15792549 -0.08785727 0.18784687
v -0.15792549 -0.10174792 0.18840194
v -0.15792549 -0.11205215 0.18840194
v -0.15792549 -0.11271396 0.18833256
v 0.06427610 -0.08785727 0.20977134
v 0.03948070 -0.11271396 -0.48202848
v 0.00837770 -0.11271396 -0.48487312
v 0.05592397 -0.08785727 -0.47613108
v -0.15792549 -0.08785727 -0.43949783
v -0.15792549 -0.11271396 -0.43727762
v -0.00828307 -0.11271396 -0.48584446
v 0.02018814 -0.08785727 -0.47835129
v 0.04187324 -0.08785727 -0.47703305
v -0.10257085 -0.08785727 -0.46072847
v -0.10317986 -0.11271396 -0.46676463
v -0.12991104 -0.11271396 -0.45601055
v -0.15792549 -0.09228797 -0.44026101
v -0.01915825 -0.11271396 -0.48501188
v -0.01872324 -0.09076484 -0.48008582
v -0.01387291 -0.08785727 -0.47953078
v -0.00515102 -0.08785727 -0.47953078
v 0.00885621 -0.08785727 -0.47897571
v -0.09969980 -0.08785727 -0.46163043
v -0.09171742 -0.10593531 -0.46870729
v -0.08684534 -0.11271396 -0.47148255
v -0.02579210 -0.11271396 -0.48445684
v -0.02055027 -0.08785727 -0.47918385
v -0.03205620 -0.10066275 -0.48105717
v -0.06724827 -0.08785727 -0.47099689
v -0.06587800 -0.09002761 -0.47182947
v -0.06887955 -0.11271396 -0.47592294
v -0.04430165 -0.11271396 -0.48133469
v -0.03895107 -0.08785727 -0.47689429
v -0.04023434 -0.08785727 -0.47668615
v -0.06241970 -0.08785727 -0.47210699
v -0.05722136 -0.10247541 -0.47654739
v -0.04989149 -0.11271396 -0.48022458
f 1 2 3
f 1 3 5
f 1 5 13
f 1 13 19
f 1 19 25
f 1 25 24
f 1 24 34
f 1 34 40
f 1 40 46
f 1 46 41
f 1 41 35
f 1 35 27
f 1 27 20
f 1 20 16
f 1 16 15
f 1 15 8
f 1 8 4
f 1 4 9
f 1 9 14
f 1 14 6
f 1 6 2
f 2 5 3
f 2 6 7
f 2 7 5
f 4 8 9
f 5 7 10
f 5 10 11
f 5 11 12
f 5 12 13
f 6 14 7
f 7 14 10
f 8 15 9
f 9 15 16
f 9 16 17
f 9 17 22
f 9 22 21
f 9 21 31
f 9 31 30
f 9 30 29
f 9 29 36
f 9 36 42
f 9 42 43
f 9 43 44
f 9 44 38
f 9 38 32
f 9 32 23
f 9 23 18
f 9 18 10
f 9 10 14
f 10 18 26
f 10 26 19
f 10 19 13
f 10 13 12
f 10 12 11
f 16 20 21
f 16 21 22
f 16 22 17
f 18 23 24
f 18 24 25
f 18 25 26
f 19 26 25
f 20 27 28
f 20 28 29
f 20 29 30
f 20 30 31
f 20 31 21
f 23 32 33
f 23 33 24
f 24 33 34
f 27 35 28
f 28 36 29
f 28 35 37
f 28 37 36
f 32 38 33
f 33 38 34
f 34 38 39
f 34 39 40
f 35 41 37
f 36 37 42
f 37 41 43
f 37 43 42
f 38 44 39
f 39 44 45
f 39 45 40
f 40 45 46
f 41 46 45
f 41 45 43
f 43 45 44

