# https://github.com/mikedh/trimesh
v -0.09271401 -0.08783865 -0.46360523
v -0.09972307 -0.08783865 -0.46160305
v -0.15792133 0.07332793 -0.45579022
v -0.15792133 0.07381856 -0.45579022
v -0.11542007 0.07381856 -0.46050507
v -0.09271401 -0.08503727 -0.46308854
v -0.09271401 -0.08783865 0.17238155
v -0.10258926 -0.08783865 -0.46069884
v -0.15792133 0.05658294 -0.45462766
v -0.15792133 0.07381856 0.17819434
v -0.09271401 -0.05925504 -0.45746949
v -0.11542007 0.07381856 0.17593381
v -0.09271401 -0.08782282 0.17244613
v -0.10238499 -0.08783865 0.17677346
v -0.15792133 -0.00017277 -0.44933155
v -0.15791494 -0.08783865 -0.43951434
v -0.15792133 0.04752988 0.19337228
v -0.11741810 0.07381856 0.17657968
v -0.09271401 -0.05925504 0.16818339
v -0.11542007 0.05729515 0.18103617
v -0.09271401 -0.06781746 0.17050853
v -0.11542007 0.04578891 0.18232793
v -0.15792133 0.03222515 0.19621408
v -0.12496977 -0.08783865 0.18239251
v -0.15792133 -0.05923922 -0.43983728
v -0.15791494 -0.08783865 0.18775320
v -0.15792133 0.04542489 0.19382438
v -0.09271401 -0.06637721 0.17012101
v -0.13838147 0.04037606 0.18969083
v -0.15052286 -0.08783865 0.18665522
v -0.15792133 -0.05923922 0.18562186
f 1 2 3
f 1 3 4
f 1 4 5
f 1 5 6
f 1 6 11
f 1 11 19
f 1 19 28
f 1 28 21
f 1 21 13
f 1 13 7
f 1 7 14
f 1 14 24
f 1 24 30
f 1 30 26
f 1 26 16
f 1 16 8
f 1 8 2
f 2 8 9
f 2 9 3
f 3 9 15
f 3 15 25
f 3 25 31
f 3 31 23
f 3 23 27
f 3 27 17
f 3 17 10
f 3 10 4
f 4 10 18
f 4 18 12
f 4 12 5
f 5 11 6
f 5 12 19
f 5 19 11
f 7 13 14
f 8 15 9
f 8 16 15
f 10 17 18
f 12 18 20
f 12 20 19
f 13 21 22
f 13 22 14
f 14 22 23
f 14 23 24
f 15 16 25
f 16 26 31
f 16 31 25
f 17 27 20
f 17 20 18
f 19 20 28
f 20 27 23
f 20 23 29
f 20 29 22
f 20 22 21
f 20 21 28
f 22 29 23
f 23 26 30
f 23 30 24
f 23 31 26

