# https://github.com/mikedh/trimesh
v -0.01549104 0.34068897 0.21914509
v -0.05678171 0.24800779 0.21712419
v -0.01549104 0.28614238 0.20589691
v -0.01549104 0.40042615 0.21038783
v -0.11273994 0.34566957 0.24219844
v -0.15070748 0.28149182 0.26083571
v -0.13516143 0.23660642 0.25088084
v -0.09513124 0.24689765 0.23531237
v -0.03008220 0.16747808 0.18231964
v -0.01549104 0.19718167 0.18231964
v -0.12862977 0.39709577 0.21802238
v -0.01549104 0.44759184 0.16802359
v -0.17205946 0.32928759 0.25327599
v -0.20124178 0.25796899 0.27123964
v -0.17668128 0.21659401 0.25679389
v -0.16648275 0.19718167 0.24676418
v -0.15918717 0.18325998 0.23950389
v -0.05112860 0.16747808 0.19070268
v -0.03008220 0.16747808 -0.49199018
v -0.01549104 0.19718167 -0.49341232
v -0.19650538 0.37414300 0.22303721
v -0.06694205 0.44492152 0.16615239
v -0.14337373 0.43168992 0.17004451
v -0.01549104 0.46919447 0.11271058
v -0.23084424 0.29970402 0.25859025
v -0.27908671 0.25412852 0.24646479
v -0.24539721 0.22043446 0.25881478
v -0.23137900 0.16747808 0.23980328
v -0.18183783 0.16747808 0.23418963
v -0.15200618 0.16747808 0.22573176
v -0.06258762 0.16747808 -0.48802322
v -0.06678925 0.19718167 -0.48764896
v -0.07034156 0.22238469 -0.48719987
v -0.01549104 0.21935433 -0.49303806
v -0.25773475 0.33414817 0.22019297
v -0.21361752 0.39997610 0.17124209
v -0.07324451 0.46418387 0.11300997
v -0.15120405 0.44300130 0.11518058
v -0.01549104 0.47399503 0.05679877
v -0.30551887 0.27999166 0.20814237
v -0.37946773 0.16747808 0.19152603
v -0.37507510 0.16747808 0.19549298
v -0.33676380 0.16747808 0.22767782
v -0.30143180 0.16747808 0.23628539
v -0.28271541 0.16747808 0.23845601
v -0.10063157 0.16747808 -0.48076293
v -0.10586452 0.19718167 -0.48016414
v -0.11510813 0.21131337 -0.47851747
v -0.07683501 0.30051413 -0.46197596
v -0.02057120 0.22058448 -0.49236444
v -0.01549104 0.22508502 -0.49124169
v -0.27454132 0.35377055 0.16824815
v -0.22137146 0.40825713 0.11622846
v -0.07763714 0.46730423 0.05881968
v -0.15464175 0.44285128 0.06069089
v -0.01549104 0.47174478 0.00148576
v -0.08031091 0.46487394 0.00432999
v -0.31957525 0.29316324 0.15821844
v -0.39367694 0.16747808 0.15889210
v -0.14868307 0.16747808 -0.45980534
v -0.15032552 0.18686041 -0.46107778
v -0.13542879 0.19718167 -0.46848777
v -0.11044813 0.19718167 -0.47926596
v -0.15490913 0.19718167 -0.45666170
v -0.17790356 0.24875787 -0.43428203
v -0.13359535 0.28326204 -0.45157203
v -0.01549104 0.29910395 -0.46773928
v -0.14402306 0.33909878 -0.39700750
v -0.07935598 0.36109143 -0.40666294
v -0.01549104 0.35521072 -0.42110869
v -0.01549104 0.27630121 -0.47499958
v -0.28160772 0.36004129 0.11390816
v -0.22293752 0.40585682 0.06076574
v -0.15574946 0.43826073 0.00552757
v -0.01549104 0.46799433 -0.05674635
v -0.08103664 0.45950329 -0.05322848
v -0.15555848 0.43334013 -0.05270454
v -0.32350951 0.29556352 0.10619876
v -0.40456301 0.16981836 0.09100452
v -0.39898628 0.16957833 0.14227572
v -0.40020859 0.16747808 0.14220089
v -0.16442013 0.16747808 -0.44715595
v -0.20322800 0.16747808 -0.41332445
v -0.19612341 0.29937398 -0.38413355
v -0.28145492 0.16747808 -0.32036266
v -0.20735325 0.33705851 -0.32118601
v -0.15040192 0.38086382 -0.32986841
v -0.07981434 0.40219638 -0.33480841
v -0.01549104 0.40003613 -0.35584083
v -0.01549104 0.36277163 -0.41422263
v -0.28164589 0.35692093 0.05829574
v -0.22251736 0.40063620 0.00440484
v -0.01549104 0.45977330 -0.11984361
v -0.08042550 0.45074224 -0.11527786
v -0.15387782 0.40855715 -0.25689113
v -0.15452716 0.42703938 -0.11520301
v -0.40570891 0.16747808 0.09077998
v -0.40307331 0.16747808 0.06211302
v -0.30635920 0.16747808 -0.28361207
v -0.35108757 0.16747808 -0.20329964
v -0.21426687 0.36355171 -0.25299904
v -0.01549104 0.42778945 -0.27971995
v -0.01549104 0.40735701 -0.34296688
v -0.07954697 0.42637929 -0.25681630
v -0.22079851 0.39418542 -0.05465059
v -0.21606211 0.37654328 -0.18294087
v -0.27809361 0.34926999 0.00156061
v -0.39314216 0.16747808 -0.01453181
v -0.40032315 0.16747808 0.03861059
v -0.01549104 0.45719302 -0.13503785
v -0.07958516 0.43958089 -0.18249178
v -0.36533496 0.16747808 -0.15592057
v -0.26247114 0.31689608 -0.18054572
v -0.27270788 0.33942881 -0.05712060
v -0.01549104 0.43271005 -0.26370236
v -0.01549104 0.44786188 -0.18818027
v -0.01549104 0.44495153 -0.20442238
f 1 2 3
f 1 3 10
f 1 10 20
f 1 20 34
f 1 34 51
f 1 51 71
f 1 71 67
f 1 67 70
f 1 70 90
f 1 90 89
f 1 89 103
f 1 103 102
f 1 102 115
f 1 115 117
f 1 117 116
f 1 116 110
f 1 110 93
f 1 93 75
f 1 75 56
f 1 56 39
f 1 39 24
f 1 24 12
f 1 12 4
f 1 4 5
f 1 5 6
f 1 6 7
f 1 7 8
f 1 8 2
f 2 8 9
f 2 9 3
f 3 9 10
f 4 11 5
f 4 12 11
f 5 13 6
f 5 11 13
f 6 13 14
f 6 14 7
f 7 14 15
f 7 15 16
f 7 16 17
f 7 17 18
f 7 18 9
f 7 9 8
f 9 18 30
f 9 30 29
f 9 29 28
f 9 28 45
f 9 45 44
f 9 44 43
f 9 43 42
f 9 42 41
f 9 41 59
f 9 59 81
f 9 81 97
f 9 97 98
f 9 98 109
f 9 109 108
f 9 108 112
f 9 112 100
f 9 100 99
f 9 99 85
f 9 85 83
f 9 83 82
f 9 82 60
f 9 60 46
f 9 46 31
f 9 31 19
f 9 19 20
f 9 20 10
f 11 21 13
f 11 12 22
f 11 22 23
f 11 23 21
f 12 24 22
f 13 25 14
f 13 21 25
f 14 25 26
f 14 26 27
f 14 27 15
f 15 27 28
f 15 28 16
f 16 28 17
f 17 28 29
f 17 29 30
f 17 30 18
f 19 31 32
f 19 32 33
f 19 33 20
f 20 33 34
f 21 35 25
f 21 23 36
f 21 36 35
f 22 24 37
f 22 37 23
f 23 37 38
f 23 38 36
f 24 39 37
f 25 35 26
f 26 35 40
f 26 40 41
f 26 41 42
f 26 42 43
f 26 43 27
f 27 43 44
f 27 44 45
f 27 45 28
f 31 46 32
f 32 46 47
f 32 47 33
f 33 48 49
f 33 49 50
f 33 50 34
f 33 47 48
f 34 50 51
f 35 36 52
f 35 52 40
f 36 38 53
f 36 53 52
f 37 39 54
f 37 54 38
f 38 54 55
f 38 55 53
f 39 56 57
f 39 57 54
f 40 52 58
f 40 58 41
f 41 58 59
f 46 60 61
f 46 61 62
f 46 62 63
f 46 63 47
f 47 63 48
f 48 63 62
f 48 62 64
f 48 64 65
f 48 65 66
f 48 66 49
f 49 67 50
f 49 66 68
f 49 68 69
f 49 69 70
f 49 70 67
f 50 67 71
f 50 71 51
f 52 53 72
f 52 72 58
f 53 55 73
f 53 73 72
f 54 57 55
f 55 57 74
f 55 74 73
f 56 75 57
f 57 75 76
f 57 76 77
f 57 77 74
f 58 72 78
f 58 78 79
f 58 79 80
f 58 80 59
f 59 80 81
f 60 82 61
f 61 83 64
f 61 64 62
f 61 82 83
f 64 83 65
f 65 84 66
f 65 83 85
f 65 85 84
f 66 84 68
f 68 84 86
f 68 86 87
f 68 87 69
f 69 87 88
f 69 88 89
f 69 89 90
f 69 90 70
f 72 73 91
f 72 91 78
f 73 74 77
f 73 77 92
f 73 92 91
f 75 93 76
f 76 93 94
f 76 94 95
f 76 95 96
f 76 96 77
f 77 96 92
f 78 91 79
f 79 97 81
f 79 81 80
f 79 91 98
f 79 98 97
f 84 85 99
f 84 99 100
f 84 100 86
f 86 100 101
f 86 101 87
f 87 101 95
f 87 95 88
f 88 102 103
f 88 103 89
f 88 95 104
f 88 104 102
f 91 92 105
f 91 105 106
f 91 106 107
f 91 107 108
f 91 108 109
f 91 109 98
f 92 96 105
f 93 110 111
f 93 111 94
f 94 111 95
f 95 101 106
f 95 106 105
f 95 105 96
f 95 111 104
f 100 112 101
f 101 112 113
f 101 113 114
f 101 114 107
f 101 107 106
f 102 104 115
f 104 111 116
f 104 116 117
f 104 117 115
f 107 114 112
f 107 112 108
f 110 116 111
f 112 114 113

