# https://github.com/mikedh/trimesh
v 0.41013700 0.16750832 0.09672214
v 0.40621594 0.17646793 0.09776016
v 0.39298773 0.16750832 0.16901287
v 0.40884435 0.16750832 0.02198464
v 0.27410609 0.34642792 0.11132857
v 0.40337208 0.17813271 0.02324510
v 0.27358902 0.35075638 0.04289335
v 0.39079019 0.16750832 0.17620486
v 0.40419078 0.16750832 -0.04926807
v 0.20253579 0.42225155 0.11681525
v 0.19288394 0.40233460 0.18851283
v 0.26074859 0.32914436 0.18169156
v 0.39953721 0.16750832 -0.12015005
v 0.39406493 0.17674035 -0.11881545
v 0.27022809 0.35105905 -0.02383655
v 0.20012283 0.42606544 0.04956634
v 0.33490419 0.16750832 0.22899562
v 0.10726675 0.46838140 0.05342184
v 0.10993825 0.46296325 0.11548065
v 0.10481069 0.44050372 0.18087596
v 0.15828374 0.35178551 0.24745756
v 0.22033142 0.28870508 0.24048799
v 0.38480085 0.16750832 -0.18977158
v 0.38234481 0.17144328 -0.18910429
v 0.26617777 0.34881917 -0.09167862
v 0.19533999 0.42455199 -0.01427194
v 0.31624681 0.16750832 0.24071044
v 0.00988635 0.47670534 0.05601689
v 0.01363507 0.47171098 0.11251488
v 0.10278553 0.46608096 -0.00596777
v 0.08378343 0.38710934 0.23240626
v 0.01462612 0.44916064 0.16916114
v 0.11433329 0.28812999 0.25820851
v 0.37463194 0.16750832 -0.21735328
v 0.25712913 0.33985955 -0.16070700
v 0.19154818 0.42146456 -0.07951895
v 0.26777205 0.16750832 0.24656785
v 0.00631000 0.47401142 0.00055693
v -0.01544978 0.47171098 0.00152081
v -0.01544978 0.47334549 0.04148461
v -0.01544978 0.47395086 0.05683248
v -0.01544978 0.46919864 0.11266316
v -0.01544978 0.44761690 0.16804898
v 0.09942462 0.46135899 -0.06721099
v 0.00450027 0.47059101 -0.05779466
v 0.05754243 0.32263654 0.24345377
v -0.01544978 0.40039739 0.21038541
v 0.03660133 0.26739576 0.22929221
v 0.08119810 0.23555285 0.24019143
v 0.35687941 0.16750832 -0.25546348
v 0.16668603 0.37769571 -0.29349953
v 0.18430929 0.41074938 -0.14743516
v 0.17651024 0.39694673 -0.21883616
v 0.09227189 0.43983781 -0.20393315
v 0.09584825 0.45218754 -0.13305116
v 0.05870582 0.19720213 0.21987587
v 0.05607741 0.19269206 0.21742910
v 0.05969685 0.16750832 0.20697477
v -0.01544978 0.46798790 -0.05668250
v -0.03005683 0.19720213 -0.49146488
v -0.03005683 0.19720213 0.18376759
v 0.00333688 0.46238816 -0.12103978
v -0.01544978 0.34070709 0.21913442
v -0.03005683 0.16750832 0.18228471
v 0.31460941 0.16750832 -0.31433406
v 0.15169117 0.34694248 -0.36579025
v 0.07951765 0.39255774 -0.35793093
v 0.08701508 0.42079866 -0.27993110
v 0.00243202 0.45015949 -0.18977158
v 0.00109626 0.43435913 -0.26554710
v -0.01544978 0.45978501 -0.11985347
v -0.01544978 0.36277312 -0.41413236
v -0.01544978 0.35520589 -0.42102778
v -0.01544978 0.29911759 -0.46773869
v -0.01544978 0.27626455 -0.47500485
v -0.01544978 0.21935898 -0.49302191
v 0.03026730 0.20812921 -0.49925005
v -0.01544978 0.19720213 -0.49339265
v -0.03005683 0.16750832 -0.49190974
v -0.01544978 0.45721215 -0.13497892
v -0.01544978 0.44785905 -0.18814041
v -0.01544978 0.44498351 -0.20437801
v -0.01544978 0.43272460 -0.26369348
v -0.01544978 0.42776048 -0.27963454
v -0.01544978 0.40732896 -0.34302792
v -0.01544978 0.40006444 -0.35570660
v -0.03005683 0.16920339 0.18243298
v 0.14884731 0.16750832 -0.44727486
v 0.14156532 0.18554860 -0.45305812
v 0.13484350 0.19720213 -0.45735848
v 0.10606027 0.24681289 -0.47515312
v 0.13303378 0.30571622 -0.43103725
v 0.06766827 0.34766895 -0.42710760
v -0.00166140 0.40844893 -0.34480739
v -0.00674586 0.36301529 -0.41524452
v -0.01338153 0.29905704 -0.46788698
v 0.05064824 0.28407395 -0.47671017
v 0.08322328 0.19720213 -0.48953712
v 0.04715806 0.19720213 -0.49754474
v 0.02039999 0.16750832 -0.49754474
v -0.00713366 0.16750832 -0.49487552
v 0.08270621 0.16750832 -0.48864740
v 0.07495025 0.17916186 -0.49472722
v 0.05728389 0.16750832 -0.49517211
v 0.06969343 0.16750832 -0.49368921
f 1 2 3
f 1 3 8
f 1 8 17
f 1 17 27
f 1 27 37
f 1 37 58
f 1 58 64
f 1 64 79
f 1 79 101
f 1 101 100
f 1 100 104
f 1 104 105
f 1 105 102
f 1 102 88
f 1 88 65
f 1 65 50
f 1 50 34
f 1 34 23
f 1 23 13
f 1 13 9
f 1 9 4
f 1 4 2
f 2 5 3
f 2 4 6
f 2 6 7
f 2 7 5
f 3 5 8
f 4 9 6
f 5 10 11
f 5 11 12
f 5 12 8
f 5 7 10
f 6 9 13
f 6 13 14
f 6 14 15
f 6 15 7
f 7 15 16
f 7 16 10
f 8 12 17
f 10 16 18
f 10 18 19
f 10 19 11
f 11 19 20
f 11 20 21
f 11 21 22
f 11 22 17
f 11 17 12
f 13 23 14
f 14 23 24
f 14 24 25
f 14 25 15
f 15 25 16
f 16 25 26
f 16 26 18
f 17 22 27
f 18 28 29
f 18 29 19
f 18 26 30
f 18 30 28
f 19 29 20
f 20 31 21
f 20 29 32
f 20 32 31
f 21 33 27
f 21 27 22
f 21 31 33
f 23 34 24
f 24 35 25
f 24 34 35
f 25 35 36
f 25 36 26
f 26 36 30
f 27 33 37
f 28 30 38
f 28 38 39
f 28 39 40
f 28 40 41
f 28 41 42
f 28 42 29
f 29 42 43
f 29 43 32
f 30 36 44
f 30 44 45
f 30 45 38
f 31 46 33
f 31 32 43
f 31 43 47
f 31 47 46
f 33 46 48
f 33 48 49
f 33 49 37
f 34 50 51
f 34 51 35
f 35 52 36
f 35 51 53
f 35 53 52
f 36 52 54
f 36 54 55
f 36 55 44
f 37 49 56
f 37 56 57
f 37 57 58
f 38 45 39
f 39 45 59
f 39 59 60
f 39 60 40
f 40 60 41
f 41 60 61
f 41 61 42
f 42 61 43
f 43 61 47
f 44 55 62
f 44 62 45
f 45 62 59
f 46 47 63
f 46 63 48
f 47 61 63
f 48 63 64
f 48 64 49
f 49 64 56
f 50 65 66
f 50 66 51
f 51 67 68
f 51 68 53
f 51 66 67
f 52 53 54
f 53 68 54
f 54 69 62
f 54 62 55
f 54 68 70
f 54 70 69
f 56 64 57
f 57 64 58
f 59 62 71
f 59 71 60
f 60 72 73
f 60 73 74
f 60 74 75
f 60 75 76
f 60 76 77
f 60 77 78
f 60 78 79
f 60 79 64
f 60 64 87
f 60 87 61
f 60 71 80
f 60 80 81
f 60 81 82
f 60 82 83
f 60 83 84
f 60 84 85
f 60 85 86
f 60 86 72
f 61 87 63
f 62 69 81
f 62 81 80
f 62 80 71
f 63 87 64
f 65 88 89
f 65 89 90
f 65 90 91
f 65 91 92
f 65 92 66
f 66 92 93
f 66 93 67
f 67 94 68
f 67 93 95
f 67 95 94
f 68 94 70
f 69 70 82
f 69 82 81
f 70 84 83
f 70 83 82
f 70 94 85
f 70 85 84
f 72 95 73
f 72 86 95
f 73 95 74
f 74 95 96
f 74 96 97
f 74 97 75
f 75 97 76
f 76 97 77
f 77 98 99
f 77 99 100
f 77 100 101
f 77 101 79
f 77 79 78
f 77 97 91
f 77 91 98
f 85 94 86
f 86 94 95
f 88 102 103
f 88 103 89
f 89 103 90
f 90 103 98
f 90 98 91
f 91 97 92
f 92 97 93
f 93 97 96
f 93 96 95
f 98 103 99
f 99 103 100
f 100 103 104
f 102 105 103
f 103 105 104

