# https://github.com/mikedh/trimesh
v 0.42310232 -0.11271396 -0.02125380
v 0.41420466 -0.13173530 -0.07642549
v 0.41209039 -0.13162419 -0.14090505
v 0.42129636 -0.11271396 -0.07522447
v 0.42305827 -0.11271396 -0.00811768
v 0.41631895 -0.13188115 -0.00984415
v 0.39936060 -0.15145111 -0.07717612
v 0.39773083 -0.15144417 -0.12544197
v 0.40605587 -0.13080472 -0.20463398
v 0.41878563 -0.11271396 -0.14037961
v 0.41869754 -0.11271396 0.06139113
v 0.41239873 -0.13073528 0.05913924
v 0.40099037 -0.15145111 -0.01112022
v 0.37509030 -0.18366030 -0.07852727
v 0.37434149 -0.18366030 -0.10052088
v 0.39103559 -0.15144417 -0.18774469
v 0.36103910 -0.18366030 -0.20163146
v 0.37821770 -0.15144417 -0.24727006
v 0.39301771 -0.12897134 -0.26663646
v 0.41217849 -0.11271396 -0.20493424
v 0.40151894 -0.11271396 0.13202591
v 0.36976054 -0.18366030 0.05298403
v 0.37557483 -0.18366030 -0.01337213
v 0.39654154 -0.12670739 0.12932363
v 0.39152011 -0.15145111 0.07572827
v 0.36755815 -0.18366030 -0.16139740
v 0.36645696 -0.18366030 -0.16822818
v 0.35685456 -0.18366030 -0.21942151
v 0.37702841 -0.12671433 -0.32803842
v 0.39825940 -0.11271396 -0.26761228
v 0.36539981 -0.11271396 0.19733119
v 0.36139148 -0.11776271 0.20055890
v 0.35905695 -0.18366030 0.10147506
v 0.35421169 -0.18366030 0.11926511
v 0.37817365 -0.15144417 0.12489487
v 0.32496402 -0.18366030 0.17999151
v 0.34020454 -0.18366030 -0.27286673
v 0.36108315 -0.15144417 -0.30409315
v 0.37561888 -0.11271396 -0.33839720
v 0.38055223 -0.11271396 -0.32923943
v 0.32033902 -0.18366030 -0.31159949
v 0.35240573 -0.15144417 -0.32090738
v 0.29161990 -0.18366030 -0.35933989
v 0.32139617 -0.15145111 -0.37210071
v 0.34795693 -0.12272117 -0.38336024
v 0.36249268 -0.11271396 0.20153475
v 0.34218669 -0.11271396 0.21534643
v 0.25589722 -0.18366030 0.23703977
v 0.34095335 -0.15145111 0.19312763
v 0.32144022 -0.18366030 0.18599659
v 0.35024738 -0.11271396 -0.38471138
v 0.29016632 -0.18366030 -0.36099130
v 0.31152946 -0.11760298 -0.43185127
v 0.29457110 -0.11271396 0.24559703
v 0.17687562 -0.18366030 0.25918353
v 0.31241041 -0.11271396 -0.43267697
v 0.25585318 -0.18366030 -0.39124191
v 0.28021154 -0.15145111 -0.41278514
v 0.27686393 -0.11271396 -0.45857388
v 0.26858294 -0.11271396 0.24559703
v 0.10287547 -0.18366030 0.26766568
v 0.22453524 -0.16151388 -0.43380293
v 0.23259598 -0.15145111 -0.44063371
v 0.26364961 -0.11271396 -0.46660569
v 0.26105079 -0.15144417 -0.42449504
v 0.25876030 -0.17459062 -0.39972410
v 0.11261001 -0.18366030 -0.47035885
v 0.26479486 -0.11271396 -0.46593010
v 0.21929356 -0.11271396 0.24364537
v 0.09736951 -0.17738929 0.26526368
v 0.08631353 -0.18366030 0.26151049
v 0.07089683 -0.18366030 -0.49220234
v 0.05459918 -0.18366030 -0.49678123
v 0.21436022 -0.11271396 -0.47989193
v 0.03878605 -0.11271396 0.22067595
v 0.01953721 -0.11271396 0.21624717
v 0.00588241 -0.11935303 0.21467084
v -0.02688909 -0.11271396 0.19883245
v -0.02688909 -0.12838104 0.19973320
v -0.02688909 -0.18366030 0.19065052
v 0.03953487 -0.18366030 -0.49918324
v 0.20638758 -0.11271396 -0.48124307
v -0.02688909 -0.11271396 -0.48417056
v -0.02688909 -0.18366030 -0.49227741
v 0.01222529 -0.18366030 -0.49828249
v 0.00689551 -0.16076386 -0.49730667
v 0.02662888 -0.15286086 -0.49580538
v -0.00200212 -0.12929079 -0.49017563
v -0.00825690 -0.11271396 -0.48574689
v -0.02574384 -0.11271396 -0.48439574
v -0.02688909 -0.11288758 -0.48424560
v -0.02688909 -0.16501397 -0.49265271
v -0.01279381 -0.18366030 -0.49535501
v -0.01345453 -0.16572233 -0.49535501
v -0.01534858 -0.15144417 -0.49310312
v -0.02688909 -0.14143001 -0.49017563
v -0.01728667 -0.13662432 -0.49062601
v 0.00425266 -0.15144417 -0.49520490
v -0.02398193 -0.11610294 -0.48537156
v -0.01913668 -0.11271396 -0.48492119
f 1 2 3
f 1 3 4
f 1 4 10
f 1 10 20
f 1 20 30
f 1 30 40
f 1 40 39
f 1 39 51
f 1 51 56
f 1 56 59
f 1 59 68
f 1 68 64
f 1 64 74
f 1 74 82
f 1 82 89
f 1 89 100
f 1 100 90
f 1 90 83
f 1 83 78
f 1 78 76
f 1 76 75
f 1 75 69
f 1 69 60
f 1 60 54
f 1 54 47
f 1 47 46
f 1 46 31
f 1 31 21
f 1 21 11
f 1 11 5
f 1 5 6
f 1 6 2
f 2 6 7
f 2 7 8
f 2 8 3
f 3 9 10
f 3 10 4
f 3 8 9
f 5 11 6
f 6 11 12
f 6 12 13
f 6 13 14
f 6 14 7
f 7 14 8
f 8 14 15
f 8 15 9
f 9 15 16
f 9 16 17
f 9 17 18
f 9 18 19
f 9 19 20
f 9 20 10
f 11 21 12
f 12 22 23
f 12 23 13
f 12 21 24
f 12 24 25
f 12 25 22
f 13 23 14
f 14 23 22
f 14 22 33
f 14 33 34
f 14 34 36
f 14 36 50
f 14 50 48
f 14 48 55
f 14 55 61
f 14 61 71
f 14 71 80
f 14 80 84
f 14 84 93
f 14 93 85
f 14 85 81
f 14 81 73
f 14 73 72
f 14 72 67
f 14 67 57
f 14 57 52
f 14 52 43
f 14 43 41
f 14 41 37
f 14 37 28
f 14 28 17
f 14 17 27
f 14 27 26
f 14 26 15
f 15 26 16
f 16 26 27
f 16 27 17
f 17 28 18
f 18 28 29
f 18 29 19
f 19 30 20
f 19 29 30
f 21 31 32
f 21 32 24
f 22 25 33
f 24 34 35
f 24 35 33
f 24 33 25
f 24 32 36
f 24 36 34
f 28 37 38
f 28 38 29
f 29 39 40
f 29 40 30
f 29 38 41
f 29 41 42
f 29 42 43
f 29 43 44
f 29 44 45
f 29 45 39
f 31 46 32
f 32 46 47
f 32 47 48
f 32 48 49
f 32 49 50
f 32 50 36
f 33 35 34
f 37 41 38
f 39 45 51
f 41 43 42
f 43 52 44
f 44 53 45
f 44 52 53
f 45 53 51
f 47 54 48
f 48 54 55
f 48 50 49
f 51 53 56
f 52 57 53
f 53 57 58
f 53 58 59
f 53 59 56
f 54 60 61
f 54 61 55
f 57 62 63
f 57 63 64
f 57 64 65
f 57 65 66
f 57 66 58
f 57 67 62
f 58 66 65
f 58 65 59
f 59 65 68
f 60 69 70
f 60 70 61
f 61 70 71
f 62 67 63
f 63 67 64
f 64 68 65
f 64 67 72
f 64 72 73
f 64 73 74
f 69 75 70
f 70 75 76
f 70 76 77
f 70 77 71
f 71 77 78
f 71 78 79
f 71 79 80
f 73 81 82
f 73 82 74
f 76 78 77
f 78 83 91
f 78 91 96
f 78 96 92
f 78 92 84
f 78 84 80
f 78 80 79
f 81 85 86
f 81 86 87
f 81 87 82
f 82 88 89
f 82 87 88
f 83 90 91
f 84 92 93
f 85 94 86
f 85 93 94
f 86 94 95
f 86 95 96
f 86 96 97
f 86 97 98
f 86 98 87
f 87 98 88
f 88 97 99
f 88 99 89
f 88 98 97
f 89 99 100
f 90 100 99
f 90 99 96
f 90 96 91
f 92 96 94
f 92 94 93
f 94 96 95
f 96 99 97

