# https://github.com/mikedh/trimesh
v 0.45519519 0.08061544 -0.06083456
v 0.45178956 -0.03057159 -0.07022011
v 0.45110080 0.08042345 -0.13216478
v 0.40881756 0.16747516 0.02198356
v 0.41008031 0.16747516 0.09669258
v 0.45412377 0.07905213 0.01154683
v 0.45163649 -0.03098299 -0.00069193
v 0.42309055 -0.11271396 -0.00812529
v 0.42309055 -0.11271396 -0.02126507
v 0.42125380 -0.11271396 -0.07532586
v 0.41876656 -0.11271396 -0.14042406
v 0.44780999 -0.03054417 -0.13809645
v 0.43992731 -0.03076358 -0.20597278
v 0.44046301 0.07825676 -0.20349500
v 0.39955735 0.16747516 -0.12000110
v 0.40418744 0.16747516 -0.04934665
v 0.44937885 0.07603522 0.08670636
v 0.39297569 0.16747516 0.16907397
v 0.44692987 -0.03175093 0.07161438
v 0.41869003 -0.11271396 0.06140290
v 0.41218489 -0.11271396 -0.20492159
v 0.39825630 -0.11271396 -0.26769218
v 0.42404717 -0.03161380 -0.27242249
v 0.38486344 0.16747516 -0.18975455
v 0.42102420 0.07321028 -0.27279791
v 0.39163640 0.16654266 0.17628208
v 0.43032271 0.06923344 0.16577026
v 0.42971045 -0.03298513 0.14729950
v 0.39102417 0.16747516 0.17553124
v 0.40150887 -0.11271396 0.13205735
v 0.38053945 -0.11271396 -0.32933649
v 0.40020785 -0.03328682 -0.33631936
v 0.37460831 0.16747516 -0.21738560
v 0.39301395 0.06522917 -0.33864695
v 0.36358789 0.16185273 -0.25755578
v 0.39075631 0.16747516 0.17613190
v 0.33488885 0.16747516 0.22899136
v 0.34116435 0.14213309 0.24813789
v 0.37384301 0.05472482 0.23672506
v 0.37996545 -0.03416447 0.21817920
v 0.36542463 -0.11271396 0.19738081
v 0.37564147 -0.11271396 -0.33842170
v 0.36798841 -0.03575520 -0.39526063
v 0.35685319 0.16747516 -0.25552851
v 0.35681492 0.05434085 -0.39803874
v 0.33871537 0.14844117 -0.32280415
v 0.31625360 0.16747516 0.24070454
v 0.26302648 0.11062003 0.27051306
v 0.29222295 0.03920142 0.26330495
v 0.30002910 -0.10160623 0.24798772
v 0.34219754 -0.11271396 0.21532598
v 0.36251646 -0.11271396 0.20151046
v 0.35027152 -0.11271396 -0.38474882
v 0.31246534 -0.11271396 -0.43265268
v 0.32581997 -0.03926580 -0.44474128
v 0.31464645 0.16747516 -0.31431961
v 0.30519491 0.12959917 -0.38054410
v 0.31372809 0.04087444 -0.44812006
v 0.26999077 0.10908414 -0.43242744
v 0.26777136 0.16747516 0.24648604
v 0.21936567 -0.11271396 0.24363282
v 0.26865149 -0.11271396 0.24558502
v 0.06427610 0.16747516 0.20669127
v 0.06427610 0.01054073 0.21938056
v 0.06427610 -0.01417055 0.22133273
v 0.06427610 -0.11271396 0.22290951
v 0.29455715 -0.11271396 0.24558502
v 0.27691680 -0.11271396 -0.45863190
v 0.26497799 -0.11101352 -0.46779218
v 0.27381730 -0.04406543 -0.48010606
v 0.14884257 0.16747516 -0.44729415
v 0.22525853 0.08228846 -0.46861812
v 0.25958258 0.02307464 -0.48070672
v 0.08268175 0.16747516 -0.48866567
v 0.06427610 0.16747516 -0.49437207
v 0.06427610 -0.11271396 -0.47747809
v 0.26482493 -0.11271396 -0.46599016
v 0.26367697 -0.11271396 -0.46666592
v 0.21243964 -0.10347123 -0.48866567
v 0.21500342 -0.04996213 -0.49654955
v 0.20115134 0.00308072 -0.49437207
v 0.06967151 0.16747516 -0.49362123
v 0.16013086 -0.05525544 -0.49534819
v 0.16016912 -0.09540784 -0.48889092
v 0.20647024 -0.11271396 -0.48130739
v 0.21439117 -0.11271396 -0.47995588
f 1 2 3
f 1 3 4
f 1 4 5
f 1 5 6
f 1 6 7
f 1 7 2
f 2 7 8
f 2 8 9
f 2 9 10
f 2 10 11
f 2 11 12
f 2 12 3
f 3 12 13
f 3 13 14
f 3 14 15
f 3 15 16
f 3 16 4
f 4 16 15
f 4 15 24
f 4 24 33
f 4 33 44
f 4 44 56
f 4 56 71
f 4 71 74
f 4 74 82
f 4 82 75
f 4 75 63
f 4 63 60
f 4 60 47
f 4 47 37
f 4 37 36
f 4 36 29
f 4 29 18
f 4 18 5
f 5 17 6
f 5 18 17
f 6 17 7
f 7 17 19
f 7 19 8
f 8 19 20
f 8 20 30
f 8 30 41
f 8 41 52
f 8 52 51
f 8 51 67
f 8 67 62
f 8 62 61
f 8 61 66
f 8 66 76
f 8 76 85
f 8 85 86
f 8 86 78
f 8 78 77
f 8 77 68
f 8 68 54
f 8 54 53
f 8 53 42
f 8 42 31
f 8 31 22
f 8 22 21
f 8 21 11
f 8 11 10
f 8 10 9
f 11 21 12
f 12 21 13
f 13 21 22
f 13 22 23
f 13 23 14
f 14 24 15
f 14 23 25
f 14 25 24
f 17 18 26
f 17 26 27
f 17 27 28
f 17 28 19
f 18 29 26
f 19 28 20
f 20 28 30
f 22 31 23
f 23 31 32
f 23 32 25
f 24 25 33
f 25 32 34
f 25 34 35
f 25 35 33
f 26 29 36
f 26 36 37
f 26 37 38
f 26 38 27
f 27 38 39
f 27 39 40
f 27 40 28
f 28 40 41
f 28 41 30
f 31 42 43
f 31 43 32
f 32 43 34
f 33 35 44
f 34 43 45
f 34 45 46
f 34 46 35
f 35 46 44
f 37 47 38
f 38 48 49
f 38 49 39
f 38 47 48
f 39 49 50
f 39 50 40
f 40 50 51
f 40 51 52
f 40 52 41
f 42 53 43
f 43 53 54
f 43 54 55
f 43 55 45
f 44 46 56
f 45 57 46
f 45 55 58
f 45 58 59
f 45 59 57
f 46 57 56
f 47 60 48
f 48 61 62
f 48 62 50
f 48 50 49
f 48 60 63
f 48 63 64
f 48 64 65
f 48 65 66
f 48 66 61
f 50 62 67
f 50 67 51
f 54 68 55
f 55 68 69
f 55 69 70
f 55 70 58
f 56 57 71
f 57 59 71
f 58 72 59
f 58 70 73
f 58 73 72
f 59 72 74
f 59 74 71
f 63 75 76
f 63 76 66
f 63 66 65
f 63 65 64
f 68 77 69
f 69 77 78
f 69 78 79
f 69 79 70
f 70 79 80
f 70 80 73
f 72 73 74
f 73 80 81
f 73 81 82
f 73 82 74
f 75 82 81
f 75 81 80
f 75 80 83
f 75 83 76
f 76 83 84
f 76 84 79
f 76 79 85
f 78 86 79
f 79 86 85
f 79 84 83
f 79 83 80

