# https://github.com/mikedh/trimesh
v -0.20781128 -0.01847833 -0.09905359
v -0.06842209 -0.02384361 -0.09885968
v -0.21055208 -0.02990300 -0.09781252
v -0.27711433 -0.01573941 -0.09849123
v -0.21182460 -0.00634079 -0.09721137
v 0.18118638 -0.01245646 -0.09860758
v 0.18089272 -0.02001663 -0.09887907
v -0.19117071 -0.03136626 -0.09765738
v 0.19870791 -0.02397493 -0.09839427
v 0.13978073 -0.04174038 -0.09585394
v -0.27564603 -0.03292331 -0.09639691
v -0.35601017 -0.02200516 -0.09558246
v -0.33770555 0.00440854 -0.09348813
v -0.28161708 0.00827304 -0.09403110
v 0.18157792 -0.00243876 -0.09566002
v 0.24001566 -0.01121831 -0.09773495
v 0.20007831 -0.01341320 -0.09853002
v 0.21965544 -0.02093585 -0.09814218
v -0.19273688 -0.04299729 -0.09381779
v 0.13929130 -0.04858768 -0.09403110
v 0.10698903 -0.04916923 -0.09366266
v 0.25234926 -0.03314843 -0.09610603
v 0.21006265 -0.03789464 -0.09602846
v 0.20820282 -0.04472318 -0.09465165
v 0.15338685 -0.04558613 -0.09476800
v -0.28739232 -0.05104521 -0.08947402
v -0.30745888 -0.04614892 -0.09092841
v -0.35679325 -0.03249184 -0.09391475
v -0.21476115 -0.04669295 -0.09224705
v -0.36433047 0.00123814 -0.09232462
v -0.39790526 -0.02538191 -0.09189800
v -0.37813234 -0.01984779 -0.09395353
v -0.38341817 0.00979258 -0.08854321
v -0.36403680 0.01874096 -0.08706943
v -0.34299138 0.01984779 -0.08796146
v -0.31176585 0.00898591 -0.09302273
v -0.28876272 0.03219169 -0.08555686
v -0.25890759 0.03851371 -0.08330741
v 0.24079874 -0.00290776 -0.09500070
v 0.25822240 -0.01189366 -0.09678475
v 0.28993735 -0.01761538 -0.09540793
v 0.23933046 -0.01887228 -0.09777373
v 0.32644871 -0.00423970 -0.09162652
v 0.30824196 -0.00793536 -0.09360448
v 0.12020360 -0.05080133 -0.09311969
v 0.20507048 -0.06108166 -0.08549869
v 0.29297182 -0.03221045 -0.09391475
v 0.27231795 -0.03554967 -0.09457408
v 0.29434222 -0.03939542 -0.09259611
v 0.28034455 -0.04175914 -0.09259611
v 0.26791307 -0.04380395 -0.09230523
v 0.25215349 -0.05926197 -0.08518842
v -0.21505481 -0.05509731 -0.08792267
v -0.29248238 -0.06684089 -0.07836249
v -0.31940094 -0.06787268 -0.07690810
v -0.32057557 -0.06201965 -0.08088343
v -0.40045029 -0.05307126 -0.08206633
v -0.40289742 -0.04376644 -0.08555686
v -0.42218089 -0.03069091 -0.08871774
v -0.39692640 -0.01408855 -0.09197557
v -0.44831637 -0.00084419 -0.08606105
v -0.42315975 -0.01915368 -0.09019152
v -0.40602976 0.00765397 -0.08714700
v -0.34338292 0.03202285 -0.08194998
v -0.31891152 0.02980920 -0.08526599
v -0.40955365 0.01913492 -0.08158153
v -0.38263509 0.02423756 -0.08210512
v -0.28944793 0.05609157 -0.07246736
v -0.32370791 0.05080133 -0.07359209
v -0.27026233 0.05740475 -0.07227344
v -0.24628034 0.05982476 -0.07054757
v 0.13978073 0.05093265 -0.06893805
v 0.26791307 0.04727450 -0.06880230
v 0.26664057 0.00960498 -0.08825233
v 0.28709868 0.01170607 -0.08654585
v 0.32488254 0.00532776 -0.08815537
v 0.30775255 0.00037519 -0.09083145
v 0.30863351 -0.01575817 -0.09418624
v 0.30833986 -0.03206037 -0.09292577
v 0.38165623 -0.00525272 -0.08493633
v 0.32752544 -0.01262529 -0.09226645
v 0.38929132 0.01320685 -0.08030167
v 0.17834769 -0.06382058 -0.08408308
v 0.10708692 -0.05429064 -0.09100597
v 0.20986688 -0.06697221 -0.08150396
v 0.30863351 -0.03907650 -0.09172347
v 0.26859829 -0.05808010 -0.08452909
v 0.32811275 -0.06126926 -0.07586094
v 0.30569693 -0.06258244 -0.07696627
v 0.23463196 -0.06301391 -0.08324923
v 0.02613547 -0.07156835 -0.07880850
v -0.09778778 -0.07350060 -0.07551188
v -0.29385278 -0.07539533 -0.06893805
v -0.31822631 -0.07342555 -0.07002399
v -0.44019186 -0.06699097 -0.06277143
v -0.39888412 -0.05978724 -0.07661722
v -0.43637431 -0.05826770 -0.07271945
v -0.42580268 -0.05029482 -0.08020471
v -0.45516837 -0.04309108 -0.07942904
v -0.45125294 -0.02662005 -0.08621619
v -0.44684809 -0.01300049 -0.08770936
v -0.46006265 -0.01093692 -0.08553747
v -0.46221614 -0.00347055 -0.08410247
v -0.44939312 0.01084312 -0.08049559
v -0.43510181 0.02153616 -0.07626817
v -0.25832027 0.06413949 -0.06738669
v -0.30843773 0.05541622 -0.07180804
v -0.34504700 0.04635528 -0.07322364
v -0.33359435 0.07021765 -0.05156294
v -0.22180893 0.06927966 -0.06271326
v 0.38684416 0.05719840 -0.05984326
v 0.32312059 0.05415932 -0.06343076
v 0.38889977 0.04643032 -0.06593230
v 0.36805013 0.01354452 -0.08163971
v 0.32331637 -0.03146006 -0.09139381
v 0.39692640 0.00195101 -0.08144579
v 0.39359829 -0.00887335 -0.08377282
v 0.37999216 -0.01140591 -0.08555686
v 0.41846123 0.02129229 -0.07436776
v 0.41258809 0.00360187 -0.07880850
v 0.15084182 -0.06980493 -0.07977809
v 0.20683242 -0.07419471 -0.07434838
v 0.17932655 -0.07248757 -0.07673357
v 0.30873141 -0.04674923 -0.08716639
v 0.29532108 -0.04567993 -0.08916375
v 0.32370791 -0.03819480 -0.09013334
v 0.32331637 -0.04573620 -0.08596409
v 0.33594361 -0.05218955 -0.08020471
v 0.37284651 -0.05205823 -0.07446472
v 0.35199687 -0.06258244 -0.07110994
v 0.35043070 -0.06879190 -0.06430339
v 0.32458889 -0.06830415 -0.06798784
v 0.29757243 -0.06822912 -0.07124568
v 0.12685983 -0.07325672 -0.07626817
v 0.02505873 -0.07644587 -0.07328182
v -0.09661315 -0.07931611 -0.06742548
v -0.26615113 -0.07779657 -0.06676616
v -0.29708302 -0.08205503 -0.05654665
v -0.42100626 -0.07119315 -0.05920333
v -0.44322631 -0.07282525 -0.05167929
v -0.45653877 -0.06502120 -0.06122009
v -0.45536414 -0.05584770 -0.07109054
v -0.42061472 -0.06130677 -0.07184682
v -0.46877447 -0.04603636 -0.07345635
v -0.46642521 -0.03541836 -0.07958417
v -0.46681675 -0.01875972 -0.08342376
v -0.47141740 -0.00763521 -0.08154275
v -0.46564212 0.00525272 -0.07909938
v -0.45037198 0.02155492 -0.07196318
v -0.41170713 0.03247308 -0.07132325
v -0.29072043 0.07959750 -0.04778153
v -0.24305011 0.06738493 -0.06455549
v -0.31205952 0.07597688 -0.04956558
v -0.36227486 0.04417915 -0.07138142
v -0.35395458 0.06447717 -0.05146598
v -0.33584574 0.07522649 -0.04281722
v -0.43657008 0.03301711 -0.06368285
v -0.21818715 0.08299302 -0.04624958
v 0.24657400 0.08473767 -0.03601068
v 0.38371181 0.06798524 -0.04970133
v 0.42061472 0.05952460 -0.05484017
v 0.42120203 0.04719947 -0.06273265
v 0.39212999 -0.01557057 -0.08313289
v 0.41141346 -0.01046793 -0.08072829
v 0.44714174 0.02570082 -0.06659163
v 0.44557557 0.01480142 -0.07014034
v 0.42824981 0.00842312 -0.07520162
v 0.20575568 -0.07847192 -0.06806541
v 0.15377839 -0.07880960 -0.06839507
v 0.07409945 -0.07618324 -0.07312669
v 0.37314019 -0.03755696 -0.08156214
v 0.37362960 -0.06035003 -0.06889926
v 0.38889977 -0.03930162 -0.07762560
v 0.39487079 -0.05551002 -0.06761940
v 0.37314019 -0.06691594 -0.06178245
v 0.37196556 -0.07211237 -0.05152416
v 0.34857088 -0.07376323 -0.05354091
v 0.07674237 -0.08248650 -0.06275205
v 0.00792874 -0.08014154 -0.06709582
v 0.02388410 -0.08224263 -0.06310110
v -0.26203993 -0.08526294 -0.05299794
v -0.29737666 -0.08993411 -0.04113013
v -0.31910729 -0.08768295 -0.04239060
v -0.33809710 -0.08329317 -0.04809180
v -0.42355129 -0.07783409 -0.04529937
v -0.44645655 -0.07498261 -0.04142100
v -0.45732185 -0.07057408 -0.05049639
v -0.46965545 -0.06066895 -0.05976570
v -0.46720830 -0.05415932 -0.06814298
v -0.47543070 -0.05203947 -0.06521481
v -0.47905245 -0.04532349 -0.06779393
v -0.47503915 -0.03436781 -0.07578337
v -0.47680110 -0.01819693 -0.07836249
v -0.47817150 -0.01014901 -0.07764499
v -0.47454974 -0.00039395 -0.07725715
v -0.46955755 0.01215630 -0.07173047
v -0.46231401 0.02710780 -0.05658543
v -0.31431088 0.08012278 -0.04111073
v -0.29287392 0.08449379 -0.03721297
v -0.21711041 0.09042187 -0.03455628
v -0.33711824 0.07734634 -0.03620459
v -0.41816759 0.04412287 -0.05460746
v -0.35610807 0.06901702 -0.04268147
v -0.44244322 0.03727557 -0.05158233
v -0.18999608 0.08809566 -0.03940425
v 0.24618246 0.08805814 -0.03071670
v 0.28230226 0.08428743 -0.03539013
v 0.26468286 0.08402480 -0.03628216
v 0.37333596 0.08087317 -0.03486656
v 0.41865700 0.07216866 -0.04273965
v 0.44459671 0.05817390 -0.04923592
v 0.44812059 0.04554861 -0.05621699
v 0.41023883 -0.02273678 -0.07754803
v 0.42913076 -0.00712870 -0.07686932
v 0.42952231 -0.01459506 -0.07514344
v 0.46397808 0.02226779 -0.06143340
v 0.45751762 0.01446375 -0.06632014
v 0.44733751 -0.00001876 -0.07136203
v 0.22797573 -0.08346201 -0.05014734
v 0.20663665 -0.08224263 -0.05741928
v 0.18725529 -0.08700760 -0.04727734
v 0.15465936 -0.08760791 -0.04847964
v 0.39731795 -0.06333283 -0.05902881
v 0.43705952 -0.03872007 -0.06377981
v 0.41366485 -0.04976955 -0.06585474
v 0.41552466 -0.05687948 -0.05982387
v 0.39418560 -0.06976741 -0.04756822
v 0.35591230 -0.08002898 -0.03048400
v 0.32860219 -0.08468139 -0.02396833
v 0.38508222 -0.07882836 -0.02354171
v 0.08007048 -0.09090962 -0.04306931
v -0.27437353 -0.09029055 -0.04180884
v -0.29551685 -0.09329210 -0.02645049
v -0.37216133 -0.08550682 -0.03257832
v -0.40133125 -0.08119208 -0.04068411
v -0.42590055 -0.07910975 -0.03310190
v -0.45125294 -0.07458866 -0.02986346
v -0.46250978 -0.07074292 -0.03971452
v -0.47445184 -0.06511500 -0.04303053
v -0.47171104 -0.06430833 -0.05162112
v -0.48081440 -0.05860538 -0.05175686
v -0.47866091 -0.05605405 -0.05819496
v -0.48472983 -0.05036986 -0.05778773
v -0.48531714 -0.04072736 -0.06414825
v -0.48042285 -0.03187277 -0.07237040
v -0.48247847 -0.01739026 -0.07359209
v -0.48384887 -0.00975506 -0.07235101
v -0.48071653 -0.00457737 -0.07421263
v -0.47866091 0.00587179 -0.06983007
v -0.47719264 0.01804685 -0.05726415
v -0.45232967 0.03858875 -0.03591372
v -0.47102585 0.02855230 -0.04126587
v -0.31577918 0.08280542 -0.03133724
v -0.29659358 0.08653861 -0.02736191
v -0.26869616 0.08794558 -0.03209352
v -0.21671887 0.09329210 -0.02586873
v -0.19361785 0.09235412 -0.03106575
v -0.35855520 0.07340680 -0.01155755
v -0.33506265 0.08062929 -0.01182903
v -0.42717305 0.04768722 -0.03686392
v -0.40338683 0.05622289 -0.03277224
v 0.37441269 0.08989660 -0.02067172
v 0.37362960 0.08721396 -0.02703224
v 0.33917385 0.08697008 -0.02889386
v 0.41904855 0.08363084 -0.02567482
v 0.44371575 0.07004881 -0.03696087
v 0.39310884 0.08166108 -0.03253953
v 0.39369616 0.08678248 -0.02519002
v 0.45937744 0.05764863 -0.04198337
v 0.46319500 0.04860644 -0.04696707
v 0.46505481 0.03245432 -0.05540253
v 0.44812059 -0.00787908 -0.07025669
v 0.44547769 -0.02917137 -0.06440035
v 0.47592014 0.02420004 -0.05321125
v 0.47073218 0.01108700 -0.06026988
v 0.46123728 0.00442729 -0.06608744
v 0.46339077 -0.00302032 -0.06476880
v 0.20232968 -0.08995287 -0.03215170
v 0.15720439 -0.09104094 -0.03579737
v 0.41855913 -0.06316399 -0.05063213
v 0.45898589 -0.03624379 -0.05369605
v 0.44058341 -0.05205823 -0.05328882
v 0.44028974 -0.05821142 -0.04628836
v 0.41669929 -0.06789144 -0.04052898
v 0.41748238 -0.07393207 -0.02074928
v 0.35326937 -0.08424992 -0.01530017
v 0.32958105 -0.08576945 -0.01396214
v 0.30305403 -0.08629473 -0.02261090
v 0.24569303 -0.08869597 -0.02652806
v 0.38243932 -0.08151100 -0.01116971
v 0.11687549 -0.09302947 -0.02992163
v 0.08232184 -0.09501800 -0.02226185
v -0.01947925 -0.09582467 -0.02024510
v 0.04776821 -0.09132233 -0.04144039
v -0.07312059 -0.09156621 -0.03917155
v -0.26115897 -0.09406126 -0.01307011
v -0.29287392 -0.09278559 -0.00155135
v -0.31891152 -0.09132233 -0.00457648
v -0.31803054 -0.09156621 -0.02548090
v -0.20154659 -0.09473661 -0.01417545
v -0.37431481 -0.08582573 -0.01580436
v -0.40740016 -0.08203627 -0.02129226
v -0.45595145 -0.07136199 -0.02030327
v -0.46711043 -0.06843547 -0.02831211
v -0.43118638 -0.07742138 -0.02049719
v -0.47689897 -0.06383934 -0.03422662
v -0.48306578 -0.05935577 -0.03752324
v -0.48208693 -0.05959964 -0.04479519
v -0.48776430 -0.05429064 -0.04510545
v -0.48698121 -0.05309002 -0.05074849
v -0.48893893 -0.04556737 -0.05610064
v -0.48541504 -0.01784050 -0.06950041
v -0.49177760 -0.04085868 -0.05348274
v -0.48854738 -0.03688161 -0.06044441
v -0.48649177 -0.01196870 -0.06864717
v -0.48727486 -0.00380822 -0.06618440
v -0.48404464 0.00075039 -0.06796845
v -0.48570868 0.01052420 -0.05664361
v -0.48306578 0.01958515 -0.04409708
v -0.45555991 0.03759449 -0.02517063
v -0.43382928 0.04584876 -0.02001239
v -0.47533283 0.02695772 -0.03036764
v -0.29933438 0.08820822 -0.00603087
v -0.27339467 0.09184761 -0.00750465
v -0.19733751 0.09484916 -0.01983787
v -0.35796788 0.07237501 0.00191979
v -0.33643305 0.07965378 -0.00095020
v -0.30373922 0.08697008 0.00166770
v 0.37333596 0.09141614 -0.01198417
v 0.39369616 0.08972776 -0.01671578
v 0.41826546 0.08779550 -0.01506747
v 0.44058341 0.07901596 -0.02447252
v 0.46339077 0.07184974 -0.01784051
v 0.46681675 0.06344538 -0.02912657
v 0.47396243 0.04933807 -0.03893885
v 0.47875881 0.03374874 -0.04564843
v 0.46123728 -0.02099213 -0.05990144
v 0.48541504 0.03003432 -0.04149857
v 0.48101017 0.01553305 -0.05133024
v 0.47543070 0.00170713 -0.05776834
v 0.47151527 -0.01382592 -0.05598428
v 0.19939311 -0.09186637 -0.01888767
v 0.24334377 -0.09014047 -0.01685152
v 0.15612765 -0.09368606 -0.01656064
v 0.44126859 -0.06295763 -0.03529318
v 0.47582224 -0.02735168 -0.04636592
v 0.45927957 -0.04633652 -0.04632714
v 0.45741972 -0.05440320 -0.03678635
v 0.41836336 -0.07562044 -0.00954079
v 0.44254112 -0.06800400 -0.01690970
v 0.36951840 -0.08256155 0.02550029
v 0.34700471 -0.08436248 0.02443374
v 0.32086924 -0.08605085 0.02528698
v 0.30168363 -0.08723272 -0.01403970
v 0.38684416 -0.08081689 0.02429799
v 0.04590838 -0.09537444 0.00634114
v 0.01478074 -0.09573087 -0.02001239
v 0.01155051 -0.09558079 0.00176466
v -0.05657792 -0.09565583 -0.00849363
v -0.17286609 -0.09505552 -0.00994802
v -0.23375098 -0.09404249 0.00343236
v -0.26008222 -0.08961520 0.02458887
v -0.29424432 -0.08965272 0.01667700
v -0.32243541 -0.08727023 0.01785990
v -0.37803444 -0.08220511 -0.00054297
v -0.40779170 -0.07777781 -0.00432438
v -0.34994128 -0.08344325 0.01462146
v -0.43578699 -0.07258137 -0.00754343
v -0.45986688 -0.06535888 -0.01206173
v -0.47024277 -0.06472105 -0.02138922
v -0.47915035 -0.06076274 -0.02753643
v -0.48600236 -0.05558506 -0.03269467
v -0.48766640 -0.05474087 -0.04019932
v -0.49109241 -0.04997590 -0.04339897
v -0.49079874 -0.04838132 -0.04931349
v -0.49344167 -0.04303481 -0.04723856
v -0.49804229 -0.01707135 -0.04409708
v -0.49657401 -0.00855443 -0.04911957
v -0.49070087 -0.00767273 -0.06075468
v -0.49285436 -0.00144450 -0.05557705
v -0.49060297 0.00393954 -0.05596489
v -0.49030933 0.01151847 -0.04566782
v -0.48629600 0.01842205 -0.03345095
v -0.45790917 0.03277324 -0.01221687
v -0.43657008 0.03988317 -0.00310270
v -0.47807360 0.02217399 -0.01929490
v -0.28553250 0.09023427 0.00036845
v -0.26399764 0.09272932 0.00100838
v -0.23404464 0.09462404 0.00102777
v -0.20262334 0.09582467 0.00197797
v -0.17090838 0.09494296 -0.01799564
v -0.36305794 0.06158817 0.02191280
v -0.33271340 0.07719626 0.01202295
v -0.29444009 0.08400604 0.01882949
v 0.35738057 0.09231660 -0.00180344
v 0.38743147 0.09171629 -0.00124108
v 0.41249022 0.09014047 -0.00219128
v 0.43128425 0.08715767 -0.00019392
v 0.43598276 0.08492526 -0.01146059
v 0.45751762 0.07869704 -0.00403351
v 0.47406030 0.06689718 -0.01134424
v 0.47875881 0.05774243 -0.02226185
v 0.48326156 0.04470442 -0.03267528
v 0.49109241 0.02738920 -0.03432358
v 0.48991778 0.00904219 -0.04068411
v 0.48394674 -0.00151954 -0.04892565
v 0.48012921 -0.01001769 -0.05024430
v 0.48228270 -0.01665863 -0.04578417
v 0.15270165 -0.09286063 0.00731073
v 0.29502741 -0.08713891 0.02278543
v 0.46074784 -0.05956212 -0.01656064
v 0.47660533 -0.03765076 -0.03822134
v 0.48688331 -0.02162996 -0.03754263
v 0.47729051 -0.04397279 -0.02862238
v 0.44244322 -0.06888571 -0.00572060
v 0.41014096 -0.07556417 0.02548090
v 0.46064997 -0.06110042 -0.00490614
v 0.36785436 -0.07927859 0.03620459
v 0.34494910 -0.08265534 0.03348973
v 0.38635474 -0.07843440 0.03213231
v 0.32057557 -0.08376216 0.03461446
v 0.16033673 -0.09051567 0.03180264
v 0.18519969 -0.09004667 0.02961136
v 0.16572043 -0.09160373 0.02282421
v 0.01380188 -0.09280435 0.02831211
v -0.13968284 -0.09481164 0.01130545
v -0.17756461 -0.09449273 0.01227504
v -0.20595145 -0.09423009 0.00820275
v -0.25176194 -0.08655737 0.03672817
v -0.23130384 -0.09006543 0.02614022
v -0.23198904 -0.08730775 0.03820195
v -0.32478467 -0.07852820 0.03922972
v -0.34436178 -0.07845316 0.03201595
v -0.26977292 -0.08121084 0.04873173
v -0.30334768 -0.08115456 0.04021871
v -0.44058341 -0.06203841 0.00550729
v -0.38547376 -0.07295656 0.02030327
v -0.40994519 -0.06791020 0.01592071
v -0.46750197 -0.05535994 -0.00657384
v -0.47288567 -0.06012492 -0.01721997
v -0.48071653 -0.05562258 -0.02129226
v -0.48825371 -0.05021978 -0.02780792
v -0.49011356 -0.05138288 -0.03742628
v -0.49373531 -0.04457310 -0.04076168
v -0.49774864 -0.02740796 -0.03963695
v -0.49970636 -0.01513910 -0.03864797
v -0.49735710 -0.00433350 -0.04597809
v -0.49481207 0.00384574 -0.04605566
v -0.49285436 0.01076808 -0.03589432
v -0.48815584 0.01444499 -0.02392955
v -0.46250978 0.02397493 -0.00250155
v -0.41141346 0.04462938 0.00957958
v -0.44332421 0.02930269 0.00727195
v -0.37793657 0.04387899 0.03717419
v -0.47924823 0.01515786 -0.01010316
v -0.26634690 0.08922125 0.01433058
v -0.22386453 0.09445520 0.00560425
v -0.20242757 0.09190389 0.01977969
v 0.38273296 0.09128481 0.00870694
v -0.35835943 0.05747979 0.03137602
v -0.33437744 0.06421454 0.03690270
v -0.31323415 0.06610926 0.04382559
v -0.30021536 0.07261889 0.03732932
v -0.26830462 0.08479395 0.02697407
v 0.40769380 0.08942760 0.01115032
v 0.43285042 0.08552558 0.01262410
v 0.44939312 0.08241147 0.00372324
v 0.45741972 0.07955999 0.00446013
v 0.46779561 0.07320044 -0.00009696
v 0.48130384 0.06048135 -0.00585634
v 0.48531714 0.05237715 -0.01595950
v 0.48962411 0.03943294 -0.02648927
v 0.49422476 0.02622609 -0.02691589
v 0.49667189 -0.00287024 -0.02660562
v 0.49314800 -0.00662218 -0.03461446
v 0.48825371 -0.01159351 -0.04097499
v 0.47817150 -0.04764970 -0.01562984
v 0.47777995 -0.04958195 -0.00300574
v 0.48776430 -0.02883369 -0.03124028
v 0.49373531 -0.01930376 -0.02827333
v 0.48854738 -0.03403014 -0.02290178
v 0.44410729 -0.06513376 0.01842226
v 0.43079484 -0.06901702 0.02800184
v 0.40720439 -0.07102431 0.04037384
v 0.43382928 -0.06453345 0.03857040
v 0.46544635 -0.05207699 0.02400712
v 0.45957321 -0.05898057 0.00851302
v 0.47650743 -0.04819373 0.00814458
v 0.38009006 -0.07184974 0.05272646
v 0.35062647 -0.07355688 0.05658543
v 0.16679718 -0.08440000 0.04822754
v 0.04532107 -0.08575070 0.04853781
v 0.04434221 -0.09132233 0.03325703
v -0.02505873 -0.09190389 0.03195778
v -0.06127643 -0.09179132 0.03145359
v -0.15495302 -0.09439893 0.01409788
v -0.09064213 -0.09124730 0.03209352
v -0.03230227 -0.08833954 0.04202215
v -0.10640173 -0.08494402 0.04855720
v -0.08868442 -0.08154852 0.05765199
v -0.10796789 -0.08121084 0.05767138
v -0.25205559 -0.08085441 0.05185382
v -0.33104932 -0.06655950 0.05511165
v -0.28690290 -0.08066681 0.04568721
v -0.30246672 -0.07779657 0.04648228
v -0.34857088 -0.06661578 0.04789788
v -0.25822240 -0.07098679 0.06600987
v -0.26693422 -0.06494616 0.07304912
v -0.27486297 -0.07305036 0.05951360
v -0.28758809 -0.06438337 0.06936467
v -0.41454580 -0.05363405 0.02984406
v -0.43559122 -0.04888784 0.02218428
v -0.45477682 -0.04841885 0.01018072
v -0.34925607 -0.06143809 0.05530557
v -0.36932263 -0.06239484 0.04396133
v -0.37020361 -0.05672940 0.05084544
v -0.47973767 -0.04425419 -0.00890086
v -0.49119028 -0.03671278 -0.01923672
v -0.49256068 -0.04583000 -0.03381940
v -0.49823806 -0.02808331 -0.03292737
v -0.50000000 -0.01791554 -0.03081366
v -0.49980423 -0.01003645 -0.03575858
v -0.49872750 -0.00358311 -0.03789169
v -0.49667189 0.00352683 -0.03694148
v -0.49363744 0.00789784 -0.02705164
v -0.49334377 0.00504637 -0.02084624
v -0.48903680 0.00851691 -0.01621159
v -0.45555991 0.01540173 0.01099518
v -0.47924823 0.00544032 -0.00182283
v -0.42443228 0.02984672 0.01977969
v -0.36736491 0.04314736 0.04396133
v -0.34954974 0.04847512 0.04803362
v -0.38518012 0.02710780 0.04708342
v -0.23375098 0.08653861 0.03087183
v -0.21172671 0.08772047 0.03236501
v -0.23355521 0.09188513 0.01262410
v -0.19283476 0.08781426 0.03319886
v 0.37969851 0.08670744 0.02530637
v 0.40436569 0.08569442 0.02509306
v -0.33320281 0.05245219 0.05148537
v -0.31049335 0.05363405 0.05819496
v -0.29424432 0.06776012 0.04776214
v -0.26898983 0.07867828 0.03746506
v 0.43099061 0.08115456 0.02755583
v 0.45164448 0.08029161 0.01444693
v 0.46329287 0.07503890 0.01334160
v 0.47513705 0.06590291 0.01109214
v 0.48414251 0.05258350 0.01667700
v 0.48551291 0.05415932 -0.00277304
v 0.48913470 0.04622396 -0.01000620
v 0.49295223 0.03464921 -0.02022571
v 0.49784651 0.01716515 -0.00327722
v 0.49716133 0.01031785 -0.02195158
v 0.50000000 -0.00896715 -0.00661262
v 0.49774864 -0.01300049 -0.02078807
v 0.48923257 -0.03718177 -0.01190660
v 0.48864526 -0.03894519 -0.00046540
v 0.48629600 -0.03890767 0.01008376
v 0.49442053 -0.02562578 -0.01981848
v 0.49735710 -0.01996035 -0.01646369
v 0.45281911 -0.05674816 0.03513804
v 0.41014096 -0.06235732 0.05906759
v 0.43872356 -0.05517235 0.05109754
v 0.42482382 -0.05978724 0.05437476
v 0.47533283 -0.04333496 0.02868055
v 0.38302663 -0.06665330 0.06319805
v 0.35718480 -0.06629686 0.06851143
v 0.31989038 -0.07218742 0.06153036
v 0.16572043 -0.08100449 0.05633334
v 0.14947142 -0.08143596 0.05573219
v -0.05217306 -0.08218635 0.05718658
v -0.13253720 -0.07261889 0.06864717
v -0.24647611 -0.06430833 0.07673357
v -0.33457321 -0.06080026 0.06104556
v -0.31098276 -0.06427081 0.06403191
v -0.26987079 -0.05834274 0.07824613
v -0.29199296 -0.05796754 0.07438716
v -0.31372356 -0.05894305 0.06901561
v -0.39124903 -0.05400924 0.04219668
v -0.43852779 -0.03757573 0.02641171
v -0.39173844 -0.04633652 0.04694768
v -0.41532889 -0.04339124 0.03632094
v -0.46153092 -0.03496812 0.01291498
v -0.34308928 -0.05361529 0.06335319
v -0.36990994 -0.04988210 0.05575158
v -0.48649177 -0.02571958 -0.00589512
v -0.47611588 -0.02371229 0.00504188
v -0.49393108 -0.02296190 -0.01448572
v -0.49628034 -0.03119742 -0.02652806
v -0.49814019 -0.02022298 -0.02247516
v -0.49765074 -0.01033661 -0.02051658
v -0.49941269 -0.00806668 -0.02988285
v -0.49716133 0.00073163 -0.02804062
v -0.49569303 -0.00146326 -0.01962456
v -0.49011356 -0.00135070 -0.01000620
v -0.47601801 -0.00435226 0.00525519
v -0.45741972 -0.00185721 0.01768537
v -0.42472592 0.01442623 0.03052278
v -0.48590446 -0.00765397 -0.00292817
v -0.36824590 0.02828966 0.05511165
v -0.35473767 0.02924641 0.06009536
v -0.33780345 0.03048455 0.06602927
v -0.40407205 0.01862841 0.04027688
v -0.41053250 -0.00140698 0.04469823
v -0.23375098 0.08001022 0.04120769
v -0.21113940 0.08199875 0.04097499
v -0.19156225 0.08295549 0.04091682
v 0.37783867 0.08226138 0.03364487
v 0.40201643 0.07961626 0.03564223
v 0.43069693 0.07487006 0.03860918
v -0.30804619 0.03487433 0.07308790
v -0.29688725 0.03423649 0.07626817
v -0.28553250 0.05346521 0.06416765
v -0.26830462 0.07003005 0.05100058
v 0.45066562 0.06974865 0.03940425
v 0.45213389 0.07565796 0.02835089
v 0.46348864 0.07093051 0.02782731
v 0.47180894 0.06505872 0.02621779
v 0.47973767 0.05490971 0.02687711
v 0.48893893 0.03616875 0.03025129
v 0.49344167 0.02904005 0.01962456
v 0.49001566 0.04170287 0.00630235
v 0.49902114 0.00662218 0.01066552
v 0.49823806 -0.01662111 0.00797005
v 0.49765074 -0.02275554 0.00029088
v 0.49833596 -0.02009166 -0.00800884
v 0.49520361 -0.02815834 -0.00973471
v 0.49471417 -0.02979044 0.00083385
v 0.49265859 -0.02731416 0.01557166
v 0.47993344 -0.03605619 0.03354791
v 0.45232967 -0.04592380 0.05303672
v 0.46994910 -0.04359760 0.03779472
v 0.41748238 -0.05389668 0.06672737
v 0.39007440 -0.05526615 0.07525979
v 0.43099061 -0.05263978 0.06052198
v 0.36658183 -0.05596026 0.07873093
v 0.34690681 -0.05483467 0.08101917
v 0.32938528 -0.06337035 0.07242858
v 0.18363352 -0.06969237 0.06986886
v 0.16004308 -0.07235625 0.06703764
v -0.03122553 -0.06580911 0.07745107
v -0.05070478 -0.06481484 0.07882789
v -0.08858653 -0.06455221 0.07875032
v -0.25039154 -0.05564134 0.08324923
v -0.08936962 -0.05824894 0.08476180
v -0.15221222 -0.05322133 0.08743788
v -0.31763899 -0.05211451 0.07256432
v -0.29659358 -0.04909420 0.07844006
v -0.43823415 -0.02178004 0.03089122
v -0.45810494 -0.01962267 0.01929490
v -0.41542679 -0.02812083 0.04118830
v -0.39036804 -0.02772687 0.05363787
v -0.36756068 -0.03194781 0.06317867
v -0.33809710 -0.03130998 0.07504648
v -0.48717698 -0.01478266 -0.00372324
v -0.47592014 -0.01371336 0.00637992
v -0.49353954 -0.01256901 -0.01186782
v -0.43206733 -0.00654714 0.03345095
v -0.35845733 -0.00163210 0.06903500
v -0.32918951 0.00067535 0.07818796
v -0.32165232 0.03115990 0.07095480
v -0.41474158 -0.01101196 0.04339897
v -0.38713783 -0.00917351 0.05790408
v -0.22425607 0.07123067 0.05460746
v -0.20046985 0.07378199 0.05325003
v -0.15994519 0.07357564 0.05328882
v 0.40162489 0.06415825 0.05425841
v -0.14506656 0.07320044 0.05356030
v 0.42962021 0.06265748 0.05359909
v -0.31029758 0.03031571 0.07456169
v -0.29718089 0.02999680 0.07770316
v -0.28200862 0.02898377 0.08047619
v -0.28220439 0.03511820 0.07820735
v -0.26370400 0.05325885 0.06765818
v 0.44792482 0.05774243 0.05421963
v 0.45781127 0.05477839 0.05239679
v 0.46241191 0.06331407 0.03928790
v 0.47014487 0.06216972 0.03319886
v 0.47572437 0.05474087 0.03426541
v 0.48296788 0.04087744 0.03826013
v 0.48962411 0.02772687 0.03696087
v 0.49471417 0.01907864 0.02703224
v 0.49598670 -0.00326419 0.02586873
v 0.49089664 -0.01176235 0.03661182
v 0.47856304 -0.02269926 0.04933288
v 0.46632734 -0.03568099 0.05175686
v 0.43422082 -0.04228442 0.06874412
v 0.39438137 -0.04419791 0.08266748
v 0.36844167 -0.04515465 0.08637132
v -0.02858262 -0.05138288 0.08860139
v -0.03054033 -0.05879297 0.08427700
v -0.01184417 -0.06385810 0.07929330
v -0.25371966 -0.04196550 0.08840746
v -0.27094755 -0.04836257 0.08319106
v -0.22533281 -0.05218955 0.08606105
v -0.22895458 -0.03804472 0.09168469
v -0.06969459 -0.05701080 0.08545990
v -0.15015662 -0.04371016 0.09261550
v -0.32233751 -0.03022191 0.08049559
v -0.32321849 -0.03748193 0.07716019
v -0.37176979 -0.01879724 0.06327562
v -0.32791698 -0.02633865 0.07939026
v -0.34426391 -0.01857213 0.07365026
v -0.31793267 -0.00836684 0.08196937
v -0.29492953 -0.00570296 0.08710821
v -0.30755678 0.00455861 0.08284201
v -0.21975332 0.05581018 0.06853081
v -0.19440094 0.05656056 0.06868595
v -0.17913078 0.07231873 0.05470442
v -0.12607674 0.07130571 0.05536374
v 0.40407205 0.05324009 0.06476880
v 0.43030539 0.05292118 0.06253874
v -0.28670713 0.01033661 0.08532416
v -0.26076743 0.00705366 0.09063753
v -0.24226703 0.01225010 0.09092841
v -0.25851604 0.03541836 0.08061194
v 0.44763118 0.04986335 0.06056076
v 0.46280345 0.04500458 0.05631395
v 0.47337511 0.04607388 0.04687011
v 0.48257634 0.03241680 0.04623018
v 0.48962411 0.01624592 0.04177006
v 0.49305013 0.00787908 0.03595250
v 0.48854738 0.00015008 0.04458188
v 0.47699687 -0.00750389 0.05648847
v 0.46339077 -0.02785819 0.06025049
v 0.43412295 -0.02247415 0.07799404
v 0.39506656 -0.02847726 0.08834929
v 0.36951840 -0.03318595 0.09079266
v -0.08819499 -0.03337355 0.09655204
v -0.25646046 -0.02326206 0.09327482
v -0.23688333 -0.02140484 0.09587333
v -0.21926390 -0.02320578 0.09608664
v -0.14741582 -0.03200409 0.09622239
v -0.10835943 -0.03288579 0.09649387
v -0.28474942 -0.01997911 0.08869834
v -0.30716524 -0.02324330 0.08394734
v -0.25949490 -0.00433350 0.09279002
v -0.23805794 0.03562472 0.08150396
v -0.21632732 0.03759449 0.08082525
v -0.19156225 0.04659915 0.07545371
v -0.13341817 0.05618537 0.06926771
v 0.37421691 0.04898164 0.06758062
v 0.36814800 0.01894732 0.08222146
v 0.41855913 0.03581231 0.07275824
v -0.14359827 0.03284828 0.08458727
v 0.42218089 0.01363832 0.08241539
v 0.44273689 0.03221045 0.06975250
v -0.23649178 -0.00146326 0.09484556
v -0.21378230 0.00367691 0.09422503
v -0.08907596 0.00219489 0.09707563
v -0.12646829 0.00939862 0.09403110
v -0.17629209 0.03025943 0.08534355
v -0.19616288 0.03206037 0.08418004
v 0.45888802 0.02545694 0.06664980
v 0.47474551 0.03069091 0.05489834
v 0.48482773 0.01497026 0.04948802
v 0.47220048 0.01380716 0.06162731
v 0.45487469 0.00168838 0.07343695
v 0.46045420 -0.01474514 0.06763879
v 0.43431872 0.00001876 0.08123248
v 0.39350039 -0.01076808 0.09112233
v 0.36844167 -0.01714639 0.09253793
v -0.07223962 -0.00851691 0.09905359
v -0.06920516 -0.03018440 0.09666840
v -0.12764291 -0.02907757 0.09676535
v -0.20125294 -0.02215523 0.09670718
v -0.21887235 -0.01453879 0.09639691
v -0.16885278 0.03386130 0.08396673
v 0.39056382 0.00245752 0.08935767
v -0.07135865 -0.00007504 0.09790947
v 0.44890368 0.01041165 0.07545371
v 0.43989819 0.01890980 0.07613242
v -0.08917385 -0.00455861 0.09876272
v -0.12803446 0.00050651 0.09684292
v 0.36540720 -0.00572172 0.09178165
f 1 2 3
f 1 3 4
f 1 4 5
f 1 5 6
f 1 6 7
f 1 7 2
f 2 8 3
f 2 7 9
f 2 9 10
f 2 10 8
f 3 8 11
f 3 11 4
f 4 11 12
f 4 12 13
f 4 13 14
f 4 14 5
f 5 14 6
f 6 15 16
f 6 16 17
f 6 17 7
f 6 14 15
f 7 17 18
f 7 18 9
f 8 19 11
f 8 10 20
f 8 20 21
f 8 21 19
f 9 18 22
f 9 22 23
f 9 23 10
f 10 23 24
f 10 24 25
f 10 25 20
f 11 26 27
f 11 27 28
f 11 28 12
f 11 19 29
f 11 29 26
f 12 30 13
f 12 28 31
f 12 31 32
f 12 32 30
f 13 30 33
f 13 33 34
f 13 34 35
f 13 35 36
f 13 36 14
f 14 36 37
f 14 37 38
f 14 38 15
f 15 39 16
f 15 38 39
f 16 40 41
f 16 41 42
f 16 42 17
f 16 39 43
f 16 43 44
f 16 44 40
f 17 42 18
f 18 42 22
f 19 21 29
f 20 45 21
f 20 25 24
f 20 24 46
f 20 46 45
f 21 45 29
f 22 24 23
f 22 42 41
f 22 41 47
f 22 47 48
f 22 48 49
f 22 49 50
f 22 50 24
f 24 50 51
f 24 51 52
f 24 52 46
f 26 53 54
f 26 54 55
f 26 55 56
f 26 56 57
f 26 57 27
f 26 29 45
f 26 45 53
f 27 57 28
f 28 57 58
f 28 58 59
f 28 59 31
f 30 32 60
f 30 60 61
f 30 61 33
f 31 59 62
f 31 62 32
f 32 62 60
f 33 61 63
f 33 63 34
f 34 64 65
f 34 65 35
f 34 63 61
f 34 61 66
f 34 66 67
f 34 67 64
f 35 65 37
f 35 37 36
f 37 68 38
f 37 65 69
f 37 69 68
f 38 68 70
f 38 70 71
f 38 71 72
f 38 72 73
f 38 73 74
f 38 74 39
f 39 74 75
f 39 75 76
f 39 76 77
f 39 77 43
f 40 44 41
f 41 44 78
f 41 78 79
f 41 79 47
f 43 80 81
f 43 81 44
f 43 77 76
f 43 76 82
f 43 82 80
f 44 81 78
f 45 46 83
f 45 83 84
f 45 84 53
f 46 52 85
f 46 85 83
f 47 79 86
f 47 86 49
f 47 49 48
f 49 86 50
f 50 86 87
f 50 87 52
f 50 52 51
f 52 87 88
f 52 88 89
f 52 89 90
f 52 90 85
f 53 84 91
f 53 91 54
f 54 92 55
f 54 91 92
f 55 93 94
f 55 94 95
f 55 95 96
f 55 96 57
f 55 57 56
f 55 92 93
f 57 96 97
f 57 97 98
f 57 98 59
f 57 59 58
f 59 98 99
f 59 99 100
f 59 100 62
f 60 62 101
f 60 101 61
f 61 101 102
f 61 102 103
f 61 103 104
f 61 104 66
f 62 100 101
f 64 67 69
f 64 69 65
f 66 104 105
f 66 105 69
f 66 69 67
f 68 106 70
f 68 69 107
f 68 107 106
f 69 108 109
f 69 109 107
f 69 105 108
f 70 106 71
f 71 106 110
f 71 110 111
f 71 111 112
f 71 112 72
f 72 112 73
f 73 112 113
f 73 113 74
f 74 113 75
f 75 113 76
f 76 113 114
f 76 114 82
f 78 81 115
f 78 115 79
f 79 115 86
f 80 82 116
f 80 116 117
f 80 117 81
f 81 117 118
f 81 118 115
f 82 113 119
f 82 119 120
f 82 120 116
f 82 114 113
f 83 85 121
f 83 121 91
f 83 91 84
f 85 122 123
f 85 123 121
f 85 90 122
f 86 124 125
f 86 125 87
f 86 115 126
f 86 126 127
f 86 127 124
f 87 125 124
f 87 124 88
f 88 124 127
f 88 127 128
f 88 128 129
f 88 129 130
f 88 130 131
f 88 131 132
f 88 132 89
f 89 132 133
f 89 133 122
f 89 122 90
f 91 121 123
f 91 123 134
f 91 134 135
f 91 135 92
f 92 136 137
f 92 137 93
f 92 135 136
f 93 137 138
f 93 138 94
f 94 138 139
f 94 139 95
f 95 139 140
f 95 140 141
f 95 141 142
f 95 142 97
f 95 97 143
f 95 143 96
f 96 143 97
f 97 142 98
f 98 142 99
f 99 142 144
f 99 144 145
f 99 145 100
f 100 145 146
f 100 146 102
f 100 102 101
f 102 146 147
f 102 147 103
f 103 148 104
f 103 147 148
f 104 148 149
f 104 149 105
f 105 149 150
f 105 150 108
f 106 151 152
f 106 152 110
f 106 107 153
f 106 153 151
f 107 109 153
f 108 154 109
f 108 150 154
f 109 155 156
f 109 156 153
f 109 154 150
f 109 150 157
f 109 157 155
f 110 152 158
f 110 158 159
f 110 159 160
f 110 160 111
f 111 160 161
f 111 161 162
f 111 162 113
f 111 113 112
f 113 162 119
f 115 118 163
f 115 163 126
f 116 120 117
f 117 120 164
f 117 164 163
f 117 163 118
f 119 162 165
f 119 165 166
f 119 166 167
f 119 167 120
f 120 167 164
f 122 168 169
f 122 169 170
f 122 170 135
f 122 135 123
f 122 133 132
f 122 132 131
f 122 131 168
f 123 135 134
f 126 171 129
f 126 129 127
f 126 163 171
f 127 129 128
f 129 172 130
f 129 171 173
f 129 173 174
f 129 174 172
f 130 172 175
f 130 175 131
f 131 175 176
f 131 176 177
f 131 177 168
f 135 170 169
f 135 169 178
f 135 178 179
f 135 179 136
f 136 179 180
f 136 180 181
f 136 181 137
f 137 181 138
f 138 181 182
f 138 182 183
f 138 183 184
f 138 184 139
f 139 185 140
f 139 184 183
f 139 183 185
f 140 186 187
f 140 187 141
f 140 185 186
f 141 187 188
f 141 188 189
f 141 189 142
f 142 189 144
f 144 189 190
f 144 190 191
f 144 191 192
f 144 192 145
f 145 192 146
f 146 192 193
f 146 193 147
f 147 193 194
f 147 194 195
f 147 195 148
f 148 195 196
f 148 196 149
f 149 196 197
f 149 197 157
f 149 157 150
f 151 153 198
f 151 198 199
f 151 199 200
f 151 200 158
f 151 158 152
f 153 156 198
f 155 157 156
f 156 201 198
f 156 157 202
f 156 202 203
f 156 203 201
f 157 197 204
f 157 204 202
f 158 200 205
f 158 205 159
f 159 206 207
f 159 207 208
f 159 208 160
f 159 205 206
f 160 208 207
f 160 207 209
f 160 209 210
f 160 210 161
f 161 210 211
f 161 211 162
f 162 211 212
f 162 212 165
f 163 164 171
f 164 213 173
f 164 173 171
f 164 167 214
f 164 214 215
f 164 215 213
f 165 212 216
f 165 216 217
f 165 217 166
f 166 217 218
f 166 218 214
f 166 214 167
f 168 219 220
f 168 220 221
f 168 221 222
f 168 222 178
f 168 178 169
f 168 177 219
f 172 174 223
f 172 223 175
f 173 213 215
f 173 215 224
f 173 224 225
f 173 225 174
f 174 225 226
f 174 226 223
f 175 223 227
f 175 227 176
f 176 228 229
f 176 229 177
f 176 227 230
f 176 230 228
f 177 229 219
f 178 231 180
f 178 180 179
f 178 222 231
f 180 231 232
f 180 232 181
f 181 232 182
f 182 232 233
f 182 233 234
f 182 234 235
f 182 235 183
f 183 235 185
f 185 235 236
f 185 236 186
f 186 236 237
f 186 237 238
f 186 238 187
f 187 238 239
f 187 239 240
f 187 240 188
f 188 240 241
f 188 241 242
f 188 242 190
f 188 190 189
f 190 242 243
f 190 243 191
f 191 243 244
f 191 244 245
f 191 245 192
f 192 245 193
f 193 245 246
f 193 246 194
f 194 246 247
f 194 247 248
f 194 248 195
f 195 248 249
f 195 249 196
f 196 249 250
f 196 250 197
f 197 251 204
f 197 250 252
f 197 252 251
f 198 253 199
f 198 201 253
f 199 253 254
f 199 254 255
f 199 255 200
f 200 256 257
f 200 257 205
f 200 255 256
f 201 258 259
f 201 259 253
f 201 203 260
f 201 260 261
f 201 261 258
f 202 204 203
f 203 204 260
f 204 251 260
f 205 257 206
f 206 262 263
f 206 263 264
f 206 264 207
f 206 257 262
f 207 264 263
f 207 263 209
f 209 263 210
f 210 265 266
f 210 266 211
f 210 263 267
f 210 267 268
f 210 268 265
f 211 266 269
f 211 269 270
f 211 270 212
f 212 270 271
f 212 271 216
f 214 218 272
f 214 272 215
f 215 272 273
f 215 273 224
f 216 271 274
f 216 274 275
f 216 275 217
f 217 275 276
f 217 276 218
f 218 276 277
f 218 277 272
f 219 221 220
f 219 229 221
f 221 278 279
f 221 279 222
f 221 229 278
f 222 279 231
f 223 226 280
f 223 280 227
f 224 273 281
f 224 281 282
f 224 282 225
f 225 282 226
f 226 282 283
f 226 283 280
f 227 280 284
f 227 284 285
f 227 285 230
f 228 230 229
f 229 230 286
f 229 286 287
f 229 287 288
f 229 288 289
f 229 289 278
f 230 285 290
f 230 290 286
f 231 279 291
f 231 291 292
f 231 292 293
f 231 293 294
f 231 294 232
f 232 295 293
f 232 293 233
f 232 294 295
f 233 296 297
f 233 297 298
f 233 298 299
f 233 299 234
f 233 293 300
f 233 300 296
f 234 299 301
f 234 301 302
f 234 302 236
f 234 236 235
f 236 302 237
f 237 303 304
f 237 304 238
f 237 302 305
f 237 305 303
f 238 304 239
f 239 304 306
f 239 306 307
f 239 307 308
f 239 308 241
f 239 241 240
f 241 308 309
f 241 309 310
f 241 310 243
f 241 243 242
f 243 310 311
f 243 311 244
f 244 312 246
f 244 246 245
f 244 311 313
f 244 313 314
f 244 314 312
f 246 312 315
f 246 315 247
f 247 315 316
f 247 316 248
f 248 316 317
f 248 317 249
f 249 317 318
f 249 318 250
f 250 318 319
f 250 319 252
f 251 252 320
f 251 320 321
f 251 321 260
f 252 319 322
f 252 322 320
f 253 259 323
f 253 323 254
f 254 323 324
f 254 324 256
f 254 256 255
f 256 325 257
f 256 324 325
f 257 325 262
f 258 326 327
f 258 327 259
f 258 261 260
f 258 260 321
f 258 321 326
f 259 327 328
f 259 328 323
f 262 329 330
f 262 330 268
f 262 268 263
f 262 325 329
f 263 268 267
f 265 268 331
f 265 331 332
f 265 332 266
f 266 332 333
f 266 333 334
f 266 334 269
f 268 330 331
f 269 334 335
f 269 335 270
f 270 335 336
f 270 336 271
f 271 336 274
f 272 277 337
f 272 337 273
f 273 337 281
f 274 336 338
f 274 338 339
f 274 339 275
f 275 339 340
f 275 340 276
f 276 340 277
f 277 340 341
f 277 341 337
f 278 342 279
f 278 289 343
f 278 343 342
f 279 344 291
f 279 342 344
f 280 283 345
f 280 345 284
f 281 337 346
f 281 346 347
f 281 347 282
f 282 347 283
f 283 347 348
f 283 348 345
f 284 345 285
f 285 349 290
f 285 345 350
f 285 350 349
f 286 290 351
f 286 351 352
f 286 352 353
f 286 353 287
f 287 353 354
f 287 354 343
f 287 343 288
f 288 343 289
f 290 349 355
f 290 355 351
f 291 344 292
f 292 356 357
f 292 357 293
f 292 344 356
f 293 358 359
f 293 359 360
f 293 360 300
f 293 295 294
f 293 357 358
f 296 300 360
f 296 360 361
f 296 361 297
f 297 361 362
f 297 362 363
f 297 363 298
f 298 364 301
f 298 301 299
f 298 363 364
f 301 364 302
f 302 365 366
f 302 366 305
f 302 364 367
f 302 367 365
f 303 305 368
f 303 368 369
f 303 369 370
f 303 370 304
f 304 370 371
f 304 371 306
f 305 366 368
f 306 371 307
f 307 372 373
f 307 373 309
f 307 309 308
f 307 371 372
f 309 373 374
f 309 374 375
f 309 375 310
f 310 375 311
f 311 375 313
f 312 314 315
f 313 315 314
f 313 375 376
f 313 376 377
f 313 377 378
f 313 378 315
f 315 378 379
f 315 379 316
f 316 379 380
f 316 380 381
f 316 381 317
f 317 381 318
f 318 381 382
f 318 382 319
f 319 382 383
f 319 383 322
f 320 384 385
f 320 385 321
f 320 322 384
f 321 385 326
f 322 386 384
f 322 383 386
f 323 328 387
f 323 387 324
f 324 387 388
f 324 388 389
f 324 389 325
f 325 389 390
f 325 390 391
f 325 391 329
f 326 392 393
f 326 393 327
f 326 385 392
f 327 393 328
f 328 394 387
f 328 393 394
f 329 395 396
f 329 396 330
f 329 391 395
f 330 396 397
f 330 397 331
f 331 397 398
f 331 398 399
f 331 399 332
f 332 399 400
f 332 400 333
f 333 401 402
f 333 402 334
f 333 400 401
f 334 402 335
f 335 402 403
f 335 403 338
f 335 338 336
f 337 341 346
f 338 403 404
f 338 404 405
f 338 405 339
f 339 405 406
f 339 406 340
f 340 406 407
f 340 407 341
f 341 407 408
f 341 408 346
f 342 343 344
f 343 354 353
f 343 353 344
f 344 409 356
f 344 353 410
f 344 410 409
f 345 348 411
f 345 411 350
f 346 412 347
f 346 408 413
f 346 413 412
f 347 412 414
f 347 414 348
f 348 414 411
f 349 350 415
f 349 415 416
f 349 416 355
f 350 411 417
f 350 417 415
f 351 418 419
f 351 419 353
f 351 353 352
f 351 355 420
f 351 420 418
f 353 419 421
f 353 421 422
f 353 422 423
f 353 423 424
f 353 424 410
f 355 416 420
f 356 425 426
f 356 426 358
f 356 358 357
f 356 409 424
f 356 424 422
f 356 422 425
f 358 426 359
f 359 426 360
f 360 426 427
f 360 427 361
f 361 427 428
f 361 428 362
f 362 429 363
f 362 428 427
f 362 427 430
f 362 430 431
f 362 431 429
f 363 429 364
f 364 432 433
f 364 433 367
f 364 429 434
f 364 434 435
f 364 435 432
f 365 367 366
f 366 367 433
f 366 433 368
f 368 436 369
f 368 433 437
f 368 437 438
f 368 438 436
f 369 436 439
f 369 439 440
f 369 440 370
f 370 440 371
f 371 441 372
f 371 440 441
f 372 441 442
f 372 442 443
f 372 443 373
f 373 443 374
f 374 443 444
f 374 444 376
f 374 376 375
f 376 444 445
f 376 445 377
f 377 445 446
f 377 446 378
f 378 446 447
f 378 447 380
f 378 380 379
f 380 447 448
f 380 448 381
f 381 448 382
f 382 448 449
f 382 449 383
f 383 449 450
f 383 450 386
f 384 451 385
f 384 386 451
f 385 452 392
f 385 451 453
f 385 453 454
f 385 454 452
f 386 450 455
f 386 455 451
f 387 394 456
f 387 456 388
f 388 456 457
f 388 457 389
f 389 457 390
f 390 457 458
f 390 458 459
f 390 459 395
f 390 395 391
f 392 454 460
f 392 460 461
f 392 461 393
f 392 452 454
f 393 461 394
f 394 461 462
f 394 462 463
f 394 463 464
f 394 464 456
f 395 459 396
f 396 459 397
f 397 459 465
f 397 465 398
f 398 466 467
f 398 467 399
f 398 465 466
f 399 467 400
f 400 467 468
f 400 468 469
f 400 469 401
f 401 469 470
f 401 470 402
f 402 470 471
f 402 471 403
f 403 471 472
f 403 472 404
f 404 473 474
f 404 474 405
f 404 472 473
f 405 474 475
f 405 475 406
f 406 476 408
f 406 408 407
f 406 475 476
f 408 476 413
f 409 410 424
f 411 414 477
f 411 477 478
f 411 478 417
f 412 413 479
f 412 479 414
f 413 476 480
f 413 480 479
f 414 479 481
f 414 481 477
f 415 482 483
f 415 483 416
f 415 417 482
f 416 484 420
f 416 483 485
f 416 485 484
f 417 486 487
f 417 487 482
f 417 478 488
f 417 488 486
f 418 420 489
f 418 489 490
f 418 490 419
f 419 490 421
f 420 484 489
f 421 490 491
f 421 491 422
f 422 424 423
f 422 491 492
f 422 492 493
f 422 493 425
f 425 493 494
f 425 494 495
f 425 495 496
f 425 496 426
f 426 496 427
f 427 431 430
f 427 496 497
f 427 497 431
f 429 431 434
f 431 497 498
f 431 498 499
f 431 499 500
f 431 500 501
f 431 501 502
f 431 502 434
f 432 503 433
f 432 435 504
f 432 504 505
f 432 505 503
f 433 503 506
f 433 506 437
f 434 502 507
f 434 507 508
f 434 508 509
f 434 509 510
f 434 510 505
f 434 505 504
f 434 504 435
f 436 438 511
f 436 511 512
f 436 512 513
f 436 513 439
f 437 506 438
f 438 506 514
f 438 514 515
f 438 515 516
f 438 516 511
f 439 517 441
f 439 441 440
f 439 513 517
f 441 517 518
f 441 518 442
f 442 518 519
f 442 519 443
f 443 519 444
f 444 520 445
f 444 519 520
f 445 520 521
f 445 521 446
f 446 521 522
f 446 522 447
f 447 522 523
f 447 523 448
f 448 523 524
f 448 524 449
f 449 524 525
f 449 525 450
f 450 525 526
f 450 526 527
f 450 527 455
f 451 528 453
f 451 455 529
f 451 529 528
f 453 528 530
f 453 530 454
f 454 531 532
f 454 532 460
f 454 530 533
f 454 533 531
f 455 527 529
f 456 464 534
f 456 534 535
f 456 535 536
f 456 536 457
f 457 536 458
f 458 536 535
f 458 535 537
f 458 537 538
f 458 538 459
f 459 538 539
f 459 539 465
f 460 532 461
f 461 540 462
f 461 532 540
f 462 540 541
f 462 541 542
f 462 542 463
f 463 542 543
f 463 543 464
f 464 543 534
f 465 539 466
f 466 539 544
f 466 544 545
f 466 545 467
f 467 545 468
f 468 545 546
f 468 546 469
f 469 546 547
f 469 547 470
f 470 548 549
f 470 549 471
f 470 547 548
f 471 549 550
f 471 550 551
f 471 551 472
f 472 551 473
f 473 551 552
f 473 552 553
f 473 553 474
f 474 553 554
f 474 554 555
f 474 555 475
f 475 480 476
f 475 555 480
f 477 481 556
f 477 556 478
f 478 556 557
f 478 557 558
f 478 558 488
f 479 480 559
f 479 559 481
f 480 555 560
f 480 560 559
f 481 559 556
f 482 487 561
f 482 561 483
f 483 561 485
f 484 485 562
f 484 562 489
f 485 563 564
f 485 564 562
f 485 561 563
f 486 488 565
f 486 565 561
f 486 561 487
f 488 558 565
f 489 562 566
f 489 566 490
f 490 566 567
f 490 567 568
f 490 568 569
f 490 569 491
f 491 569 492
f 492 569 570
f 492 570 571
f 492 571 498
f 492 498 493
f 493 498 494
f 494 498 495
f 495 498 497
f 495 497 496
f 498 571 499
f 499 571 500
f 500 571 572
f 500 572 501
f 501 572 573
f 501 573 502
f 502 573 507
f 503 574 514
f 503 514 506
f 503 505 575
f 503 575 574
f 505 510 575
f 507 573 508
f 508 576 577
f 508 577 510
f 508 510 509
f 508 573 576
f 510 577 578
f 510 578 575
f 511 516 579
f 511 579 512
f 512 580 513
f 512 579 581
f 512 581 582
f 512 582 580
f 513 580 583
f 513 583 517
f 514 584 516
f 514 516 515
f 514 574 584
f 516 584 585
f 516 585 579
f 517 586 518
f 517 583 587
f 517 587 586
f 518 588 589
f 518 589 519
f 518 586 588
f 519 589 520
f 520 589 590
f 520 590 521
f 521 590 591
f 521 591 592
f 521 592 522
f 522 592 523
f 523 592 593
f 523 593 524
f 524 593 525
f 525 593 526
f 526 593 594
f 526 594 595
f 526 595 527
f 527 595 529
f 528 529 596
f 528 596 597
f 528 597 598
f 528 598 533
f 528 533 530
f 529 595 599
f 529 599 596
f 531 533 600
f 531 600 532
f 532 600 601
f 532 601 602
f 532 602 540
f 533 598 603
f 533 603 604
f 533 604 600
f 534 605 535
f 534 543 605
f 535 606 607
f 535 607 537
f 535 605 606
f 537 607 608
f 537 608 538
f 538 608 539
f 539 608 609
f 539 609 610
f 539 610 544
f 540 602 611
f 540 611 541
f 541 611 612
f 541 612 613
f 541 613 542
f 542 613 614
f 542 614 543
f 543 614 605
f 544 610 615
f 544 615 616
f 544 616 545
f 545 616 617
f 545 617 546
f 546 617 618
f 546 618 547
f 547 618 619
f 547 619 548
f 548 620 621
f 548 621 622
f 548 622 549
f 548 619 620
f 549 622 550
f 550 622 552
f 550 552 551
f 552 623 554
f 552 554 553
f 552 622 621
f 552 621 623
f 554 623 624
f 554 624 625
f 554 625 626
f 554 626 560
f 554 560 555
f 556 559 627
f 556 627 628
f 556 628 557
f 557 628 558
f 558 628 629
f 558 629 630
f 558 630 565
f 559 560 627
f 560 626 627
f 561 631 563
f 561 565 632
f 561 632 631
f 562 633 634
f 562 634 566
f 562 564 633
f 563 635 564
f 563 631 635
f 564 635 633
f 565 630 632
f 566 634 567
f 567 634 636
f 567 636 637
f 567 637 638
f 567 638 639
f 567 639 569
f 567 569 568
f 569 639 640
f 569 640 641
f 569 641 571
f 569 571 570
f 571 641 642
f 571 642 572
f 572 642 643
f 572 643 573
f 573 644 576
f 573 643 645
f 573 645 646
f 573 646 644
f 574 575 578
f 574 578 647
f 574 647 584
f 576 644 648
f 576 648 577
f 577 648 647
f 577 647 578
f 579 585 581
f 580 649 650
f 580 650 583
f 580 582 651
f 580 651 649
f 581 652 582
f 581 585 653
f 581 653 652
f 582 652 651
f 583 650 587
f 584 654 585
f 584 647 654
f 585 654 653
f 586 587 655
f 586 655 588
f 587 656 655
f 587 650 656
f 588 657 590
f 588 590 589
f 588 655 657
f 590 657 591
f 591 657 594
f 591 594 592
f 592 594 593
f 594 657 595
f 595 657 599
f 596 599 656
f 596 656 650
f 596 650 597
f 597 650 658
f 597 658 604
f 597 604 598
f 598 604 603
f 599 657 655
f 599 655 656
f 600 659 601
f 600 604 659
f 601 659 602
f 602 660 661
f 602 661 611
f 602 659 660
f 604 658 662
f 604 662 663
f 604 663 659
f 605 664 606
f 605 614 664
f 606 664 665
f 606 665 607
f 607 665 666
f 607 666 608
f 608 667 609
f 608 666 668
f 608 668 667
f 609 667 669
f 609 669 610
f 610 669 615
f 611 661 670
f 611 670 612
f 612 670 671
f 612 671 672
f 612 672 673
f 612 673 613
f 613 673 674
f 613 674 614
f 614 674 664
f 615 669 675
f 615 675 676
f 615 676 677
f 615 677 617
f 615 617 616
f 617 677 678
f 617 678 618
f 618 678 679
f 618 679 619
f 619 679 680
f 619 680 620
f 620 680 681
f 620 681 682
f 620 682 621
f 621 682 623
f 623 682 683
f 623 683 624
f 624 683 684
f 624 684 629
f 624 629 625
f 625 627 626
f 625 629 628
f 625 628 627
f 629 684 630
f 630 685 686
f 630 686 632
f 630 684 685
f 631 687 635
f 631 632 686
f 631 686 687
f 633 688 634
f 633 635 687
f 633 687 688
f 634 688 689
f 634 689 636
f 636 689 637
f 637 639 638
f 637 689 690
f 637 690 691
f 637 691 692
f 637 692 639
f 639 692 641
f 639 641 640
f 641 692 642
f 642 692 691
f 642 691 645
f 642 645 643
f 644 693 694
f 644 694 648
f 644 646 695
f 644 695 696
f 644 696 693
f 645 691 697
f 645 697 690
f 645 690 646
f 646 690 698
f 646 698 695
f 647 648 699
f 647 699 700
f 647 700 654
f 648 694 699
f 649 651 652
f 649 652 663
f 649 663 662
f 649 662 658
f 649 658 650
f 652 653 663
f 653 701 663
f 653 654 701
f 654 700 699
f 654 699 702
f 654 702 701
f 659 663 703
f 659 703 702
f 659 702 660
f 660 702 704
f 660 704 705
f 660 705 706
f 660 706 670
f 660 670 661
f 663 701 703
f 664 707 665
f 664 674 707
f 665 708 709
f 665 709 666
f 665 707 708
f 666 710 668
f 666 709 710
f 667 711 669
f 667 668 710
f 667 710 711
f 669 712 675
f 669 711 712
f 670 706 671
f 671 706 713
f 671 713 714
f 671 714 672
f 672 714 715
f 672 715 673
f 673 715 716
f 673 716 674
f 674 716 707
f 675 717 676
f 675 712 717
f 676 718 719
f 676 719 677
f 676 717 718
f 677 719 678
f 678 719 679
f 679 719 680
f 680 720 681
f 680 719 720
f 681 720 721
f 681 721 682
f 682 721 722
f 682 722 683
f 683 722 684
f 684 722 723
f 684 723 685
f 685 724 725
f 685 725 686
f 685 723 724
f 686 725 687
f 687 726 688
f 687 725 726
f 688 727 728
f 688 728 689
f 688 726 727
f 689 728 729
f 689 729 690
f 690 729 698
f 690 697 691
f 693 730 699
f 693 699 694
f 693 696 731
f 693 731 730
f 695 698 696
f 696 732 731
f 696 698 733
f 696 733 732
f 698 729 734
f 698 734 733
f 699 730 735
f 699 735 736
f 699 736 705
f 699 705 702
f 701 702 703
f 702 705 704
f 705 736 735
f 705 735 730
f 705 730 737
f 705 737 714
f 705 714 706
f 706 714 713
f 707 716 738
f 707 738 739
f 707 739 740
f 707 740 708
f 708 740 741
f 708 741 709
f 709 741 710
f 710 741 711
f 711 742 743
f 711 743 744
f 711 744 712
f 711 741 745
f 711 745 742
f 712 744 746
f 712 746 747
f 712 747 717
f 714 737 748
f 714 748 715
f 715 748 749
f 715 749 750
f 715 750 751
f 715 751 752
f 715 752 753
f 715 753 738
f 715 738 716
f 717 747 754
f 717 754 718
f 718 754 755
f 718 755 719
f 719 755 720
f 720 756 721
f 720 755 756
f 721 756 723
f 721 723 722
f 723 756 724
f 724 757 758
f 724 758 759
f 724 759 725
f 724 756 757
f 725 759 726
f 726 759 758
f 726 758 760
f 726 760 727
f 727 760 761
f 727 761 728
f 728 761 762
f 728 762 763
f 728 763 764
f 728 764 729
f 729 764 763
f 729 763 765
f 729 765 734
f 730 731 737
f 731 732 766
f 731 766 767
f 731 767 748
f 731 748 737
f 732 733 766
f 733 734 765
f 733 765 766
f 738 753 768
f 738 768 739
f 739 768 740
f 740 768 741
f 741 768 745
f 742 745 743
f 743 769 744
f 743 745 769
f 744 769 746
f 745 768 752
f 745 752 751
f 745 751 750
f 745 750 770
f 745 770 769
f 746 760 771
f 746 771 772
f 746 772 747
f 746 769 761
f 746 761 760
f 747 772 754
f 748 767 773
f 748 773 774
f 748 774 749
f 749 774 750
f 750 774 773
f 750 773 770
f 752 768 753
f 754 757 755
f 754 772 771
f 754 771 757
f 755 757 756
f 757 771 758
f 758 771 760
f 761 769 775
f 761 775 762
f 762 775 763
f 763 770 773
f 763 773 766
f 763 766 765
f 763 775 770
f 766 773 767
f 769 770 775

