# Blender 3.6.5
# www.blender.org
mtllib apple.mtl
o apple_eaten
v -0.060384 0.015384 0.007235
v -0.061090 0.015384 0.006944
v -0.060360 0.019317 0.006014
v -0.061055 0.019365 0.005610
v -0.061115 0.019806 0.006158
v -0.061090 0.015384 0.007650
v -0.060658 0.017574 0.007512
v -0.061096 0.017705 0.007599
v -0.061076 0.017591 0.007196
v -0.060535 0.016844 0.007461
v -0.061057 0.016900 0.007672
v -0.061048 0.016853 0.007161
v -0.060632 0.018252 0.007138
v -0.061140 0.018283 0.006790
v -0.061177 0.018522 0.007242
v -0.064553 0.001213 0.011113
v -0.060737 0.001213 0.012884
v -0.056922 0.001213 0.011113
v -0.055151 0.001213 0.007297
v -0.056922 0.001213 0.003482
v -0.060737 0.001213 0.001711
v -0.064553 0.001213 0.003482
v -0.066324 0.001213 0.007297
v -0.060737 0.015417 0.007297
v -0.066900 0.011701 0.013460
v -0.069760 0.011701 0.007297
v -0.066900 0.011701 0.001134
v -0.060737 0.011701 -0.001726
v -0.051714 0.011701 0.007297
v -0.054574 0.011701 0.013460
v -0.060737 0.011701 0.016320
v -0.064650 0.015743 0.011210
v -0.066466 0.015743 0.007297
v -0.064650 0.015743 0.003384
v -0.060737 0.015743 0.001568
v -0.056824 0.015743 0.003384
v -0.055008 0.015743 0.007297
v -0.056824 0.015743 0.011210
v -0.060737 0.015743 0.013026
v -0.066680 0.005488 0.013240
v -0.069438 0.005488 0.007297
v -0.066680 0.005488 0.001355
v -0.060737 0.005488 -0.001403
v -0.054795 0.005488 0.001355
v -0.052037 0.005488 0.007297
v -0.054795 0.005488 0.013240
v -0.060737 0.005488 0.015998
v -0.060737 0.001634 0.007297
v -0.067025 0.008652 0.013586
v -0.069944 0.008652 0.007297
v -0.067025 0.008652 0.001009
v -0.060737 0.008652 -0.001910
v -0.054449 0.008652 0.001009
v -0.051530 0.008652 0.007297
v -0.054449 0.008652 0.013586
v -0.060737 0.008652 0.016504
v -0.066002 0.003497 0.012562
v -0.068445 0.003497 0.007297
v -0.066002 0.003497 0.002033
v -0.060737 0.003497 -0.000411
v -0.055472 0.003497 0.002033
v -0.053029 0.003497 0.007297
v -0.055472 0.003497 0.012562
v -0.060737 0.003497 0.015005
v -0.065970 0.014349 0.012530
v -0.068399 0.014349 0.007297
v -0.065970 0.014349 0.002064
v -0.060737 0.014349 -0.000364
v -0.053075 0.014349 0.007297
v -0.055504 0.014349 0.012530
v -0.060737 0.014349 0.014959
v -0.060737 0.016336 0.010432
v -0.060737 0.016336 0.004138
v -0.057638 0.016336 0.007297
v -0.063813 0.016336 0.007297
v -0.057895 -0.000008 0.007297
v -0.063580 -0.000008 0.007297
v -0.060737 -0.000008 0.010140
v -0.060737 -0.000008 0.004455
v -0.056133 0.015013 0.002693
v -0.054664 0.014349 0.003874
v -0.053227 0.011701 0.004037
v -0.054488 0.009612 0.001048
v -0.057322 0.011701 -0.000141
v -0.056916 0.014349 0.001409
v -0.053759 0.013146 0.004492
v -0.053436 0.010213 0.003395
v -0.056557 0.010026 0.000113
v -0.057638 0.013184 0.000475
v -0.056279 0.014349 0.002641
v -0.056187 0.013165 0.002484
v -0.056010 0.011701 0.001948
v -0.055485 0.010119 0.001754
vn 0.9913 0.1138 -0.0664
vn -0.4267 0.1715 -0.8880
vn -0.4567 0.1455 -0.8777
vn 0.9887 0.1086 0.1032
vn 0.9988 -0.0277 0.0415
vn -0.5379 -0.4428 -0.7173
vn -0.4808 0.7097 0.5149
vn -0.4513 -0.0341 0.8917
vn -0.4590 -0.0214 0.8882
vn 0.9653 0.0596 0.2543
vn -0.3181 0.5797 0.7502
vn -0.5025 -0.6071 -0.6155
vn 0.9620 0.1303 0.2400
vn -0.4928 0.2121 0.8439
vn -0.4355 -0.2786 -0.8560
vn -0.4748 -0.7410 0.4748
vn -0.0000 -0.7378 0.6750
vn -0.0000 -0.5578 0.8300
vn -0.5913 -0.5485 0.5913
vn 0.4748 -0.7410 0.4748
vn 0.5913 -0.5485 0.5913
vn 0.6750 -0.7378 -0.0000
vn 0.8300 -0.5578 -0.0000
vn 0.4749 -0.7410 -0.4749
vn 0.5913 -0.5485 -0.5913
vn -0.0000 -0.7378 -0.6750
vn -0.0000 -0.5578 -0.8300
vn -0.4748 -0.7410 -0.4748
vn -0.5913 -0.5485 -0.5913
vn -0.6750 -0.7378 -0.0000
vn -0.8300 -0.5578 -0.0000
vn -0.9713 0.2379 -0.0000
vn -0.6876 0.2333 0.6876
vn -0.5795 0.5730 0.5795
vn -0.8147 0.5798 -0.0000
vn -0.6876 0.2333 -0.6876
vn -0.5795 0.5730 -0.5795
vn -0.1615 0.2316 -0.9593
vn -0.1651 0.5743 -0.8018
vn 0.6876 0.2333 0.6876
vn 0.9563 0.2313 0.1789
vn 0.7997 0.5726 0.1808
vn 0.5795 0.5730 0.5795
vn -0.0000 0.2379 0.9713
vn -0.0000 0.5798 0.8147
vn -0.3526 0.8670 0.3520
vn -0.0691 0.9976 0.0002
vn -0.5094 0.8605 -0.0000
vn -0.0002 0.9973 -0.0732
vn -0.0759 0.8684 -0.4900
vn -0.3528 0.8669 -0.3521
vn -0.0002 0.9974 0.0725
vn -0.0000 0.8593 0.5115
vn -0.9652 -0.2614 -0.0000
vn -0.6836 -0.2555 0.6836
vn -0.7063 -0.0480 0.7063
vn -0.9988 -0.0494 -0.0000
vn -0.6836 -0.2555 -0.6836
vn -0.7063 -0.0480 -0.7063
vn -0.0000 -0.2614 -0.9652
vn -0.0743 -0.0667 -0.9950
vn 0.6836 -0.2555 -0.6836
vn 0.7069 -0.1050 -0.6994
vn 0.9652 -0.2614 -0.0000
vn 0.9945 -0.0680 0.0797
vn 0.6836 -0.2555 0.6836
vn 0.7063 -0.0480 0.7063
vn -0.0000 -0.2614 0.9652
vn -0.0000 -0.0493 0.9988
vn -0.1469 -0.9891 -0.0000
vn -0.0000 -0.9891 0.1469
vn -0.0000 -0.9891 -0.1469
vn -0.0000 -1.0000 -0.0000
vn 0.1469 -0.9891 -0.0000
vn 0.4863 0.8703 0.0786
vn 0.3526 0.8670 0.3523
vn -0.0000 1.0000 -0.0000
vn 0.0697 0.9976 0.0002
vn 0.3142 0.8976 -0.3093
vn 0.6606 0.5861 -0.4692
vn 0.8098 0.2452 -0.5329
vn 0.7553 0.3968 -0.5216
vn 0.7080 0.1943 -0.6789
vn 0.8472 0.1262 -0.5160
vn 0.5082 0.1247 -0.8522
vn 0.5144 0.2328 -0.8254
vn 0.4696 0.6005 -0.6472
vn 0.5177 0.3917 -0.7606
vn 0.4504 0.7685 -0.4545
vn 0.7277 0.0446 -0.6844
vn 0.6903 0.2630 -0.6740
vn 0.6881 0.3310 -0.6457
vn 0.6263 0.4648 -0.6259
vt 0.235108 0.894217
vt 0.248198 0.892332
vt 0.250215 0.918967
vt 0.239596 0.919758
vt 0.254407 0.991019
vt 0.249296 0.977712
vt 0.261603 0.976705
vt 0.260359 0.893058
vt 0.259195 0.919728
vt 0.274791 0.893582
vt 0.269224 0.919007
vt 0.269498 0.944190
vt 0.276917 0.971167
vt 0.259543 0.947768
vt 0.251000 0.948951
vt 0.241310 0.944615
vt 0.236547 0.971835
vt 0.266821 0.931125
vt 0.258895 0.933298
vt 0.251026 0.933238
vt 0.241642 0.932062
vt 0.626659 0.607757
vt 0.700307 0.592703
vt 0.727537 0.645652
vt 0.626760 0.657950
vt 0.308664 0.593007
vt 0.382375 0.607763
vt 0.382476 0.657957
vt 0.281648 0.646067
vt 0.456025 0.592710
vt 0.483255 0.645660
vt 0.059288 0.593012
vt 0.133000 0.607769
vt 0.133102 0.657962
vt 0.032272 0.646073
vt 0.206652 0.592714
vt 0.233883 0.645665
vt 0.798929 0.593008
vt 0.872639 0.607764
vt 0.872741 0.657957
vt 0.771913 0.646068
vt 0.946290 0.592709
vt 0.973520 0.645660
vt 0.552950 0.593002
vt 0.525934 0.646060
vt 0.510489 0.804891
vt 0.627041 0.796956
vt 0.627138 0.844866
vt 0.527577 0.859256
vt 0.873024 0.796965
vt 0.989610 0.804430
vt 0.972741 0.858865
vt 0.873121 0.844876
vt 0.756469 0.804900
vt 0.773558 0.859265
vt 0.382757 0.796965
vt 0.499343 0.804430
vt 0.482474 0.858865
vt 0.382854 0.844875
vt 0.266202 0.804900
vt 0.283291 0.859265
vt 0.743625 0.804417
vt 0.726757 0.858850
vt 0.627213 0.882314
vt 0.586517 0.938288
vt 0.551895 0.898462
vt 0.831384 0.937186
vt 0.797877 0.898468
vt 0.873199 0.882324
vt 0.668920 0.937331
vt 0.702598 0.898151
vt 0.513476 0.686588
vt 0.626834 0.694121
vt 0.626940 0.746734
vt 0.507883 0.747025
vt 0.872815 0.694129
vt 0.986143 0.686137
vt 0.991981 0.746553
vt 0.872921 0.746743
vt 0.759455 0.686596
vt 0.753862 0.747035
vt 0.133175 0.694134
vt 0.246506 0.686144
vt 0.252343 0.746561
vt 0.133282 0.746750
vt 0.019813 0.686602
vt 0.014220 0.747043
vt 0.382549 0.694128
vt 0.495878 0.686137
vt 0.501714 0.746553
vt 0.382655 0.746742
vt 0.269189 0.686595
vt 0.263596 0.747034
vt 0.740159 0.686128
vt 0.745997 0.746543
vt 0.909951 0.547883
vt 0.344822 0.548034
vt 0.170312 0.547887
vt 0.872425 0.501999
vt 0.835086 0.548035
vt 0.132786 0.502002
vt 0.095446 0.548038
vt 0.948582 0.898172
vt 0.458314 0.898169
vt 0.382930 0.882324
vt 0.307609 0.898470
vt 0.627440 0.979969
vt 0.424160 0.937830
vt 0.341448 0.937518
vt 0.383109 0.979966
vt 0.175588 0.937033
vt 0.133554 0.882331
vt 0.208941 0.898177
vt 0.092551 0.938014
vt 0.058234 0.898487
vt 0.133782 0.979962
vt 0.914119 0.938142
vt 0.873355 0.979966
vt 0.419686 0.547883
vt 0.382161 0.501999
vt 0.663969 0.547878
vt 0.589106 0.548030
vt 0.626444 0.501994
vt 0.033915 0.859279
vt 0.099043 0.849863
vt 0.016826 0.804911
vt 0.078482 0.800712
vt 0.079356 0.829042
vt 0.133314 0.762566
vt 0.089427 0.775457
vt 0.172141 0.771160
vt 0.249971 0.804438
vt 0.185365 0.800301
vt 0.160361 0.848659
vt 0.181699 0.828839
vt 0.233102 0.858873
vt 0.133515 0.862721
vt 0.502816 0.978743
vt 0.503641 0.958423
vt 0.554812 0.958321
vt 0.533475 0.978141
vt 0.506629 0.992204
vt 0.505038 0.929989
vt 0.558479 0.929784
vt 0.503898 0.902791
vt 0.545255 0.900643
vt 0.506427 0.892048
vt 0.472156 0.979345
vt 0.452469 0.958524
vt 0.451596 0.930194
vt 0.462541 0.904940
s 1
usemtl apple
f 1/1/1 2/2/2 12/3/3 10/4/4
f 3/5/5 4/6/6 5/7/7
f 2/2/2 6/8/8 11/9/9 12/3/3
f 6/8/8 1/10/1 10/11/4 11/9/9
f 13/12/10 3/13/5 5/7/7 15/14/11
f 14/15/12 15/14/11 5/7/7 4/6/6
f 13/16/10 14/15/12 4/6/6 3/17/5
f 10/11/4 7/18/13 8/19/14 11/9/9
f 12/3/3 11/9/9 8/19/14 9/20/15
f 10/4/4 12/3/3 9/20/15 7/21/13
f 8/19/14 7/18/13 13/12/10 15/14/11
f 7/21/13 9/20/15 14/15/12 13/16/10
f 9/20/15 8/19/14 15/14/11 14/15/12
f 16/22/16 17/23/17 64/24/18 57/25/19
f 17/26/17 18/27/20 63/28/21 64/29/18
f 18/27/20 19/30/22 62/31/23 63/28/21
f 19/32/22 20/33/24 61/34/25 62/35/23
f 20/33/24 21/36/26 60/37/27 61/34/25
f 21/38/26 22/39/28 59/40/29 60/41/27
f 22/39/28 23/42/30 58/43/31 59/40/29
f 23/44/30 16/22/16 57/25/19 58/45/31
f 26/46/32 25/47/33 65/48/34 66/49/35
f 27/50/36 26/51/32 66/52/35 67/53/37
f 28/54/38 27/50/36 67/53/37 68/55/39
f 30/56/40 29/57/41 69/58/42 70/59/43
f 31/60/44 30/56/40 70/59/43 71/61/45
f 25/47/33 31/62/44 71/63/45 65/48/34
f 32/64/46 75/65/47 33/66/48
f 73/67/49 35/68/50 34/69/51
f 72/70/52 32/64/46 39/71/53
f 41/72/54 40/73/55 49/74/56 50/75/57
f 42/76/58 41/77/54 50/78/57 51/79/59
f 43/80/60 42/76/58 51/79/59 52/81/61
f 44/82/62 43/83/60 52/84/61 53/85/63
f 45/86/64 44/82/62 53/85/63 54/87/65
f 46/88/66 45/89/64 54/90/65 55/91/67
f 47/92/68 46/88/66 55/91/67 56/93/69
f 40/73/55 47/94/68 56/95/69 49/74/56
f 77/96/70 23/42/30 22/39/28
f 78/97/71 18/27/20 17/26/17
f 79/98/72 21/36/26 20/33/24
f 48/99/73 77/96/70 79/100/72
f 48/101/73 79/98/72 76/102/74
f 50/75/57 49/74/56 25/47/33 26/46/32
f 51/79/59 50/78/57 26/51/32 27/50/36
f 52/81/61 51/79/59 27/50/36 28/54/38
f 55/91/67 54/90/65 29/57/41 30/56/40
f 56/93/69 55/91/67 30/56/40 31/60/44
f 49/74/56 56/95/69 31/62/44 25/47/33
f 58/45/31 57/25/19 40/73/55 41/72/54
f 59/40/29 58/43/31 41/77/54 42/76/58
f 60/41/27 59/40/29 42/76/58 43/80/60
f 61/34/25 60/37/27 43/83/60 44/82/62
f 62/35/23 61/34/25 44/82/62 45/86/64
f 63/28/21 62/31/23 45/89/64 46/88/66
f 64/29/18 63/28/21 46/88/66 47/92/68
f 57/25/19 64/24/18 47/94/68 40/73/55
f 66/49/35 65/48/34 32/64/46 33/66/48
f 67/53/37 66/52/35 33/103/48 34/69/51
f 68/55/39 67/53/37 34/69/51 35/68/50
f 70/59/43 69/58/42 37/104/75 38/105/76
f 71/61/45 70/59/43 38/105/76 39/106/53
f 65/48/34 71/63/45 39/71/53 32/64/46
f 24/107/77 75/65/47 72/70/52
f 37/104/75 74/108/78 38/105/76
f 72/109/52 39/106/53 38/105/76
f 24/110/77 72/109/52 74/108/78
f 73/111/49 36/112/79 35/113/50
f 36/112/79 74/114/78 37/115/75
f 24/116/77 74/114/78 73/111/49
f 73/67/49 75/117/47 24/118/77
f 33/103/48 75/117/47 34/69/51
f 76/102/74 20/33/24 19/32/22
f 76/119/74 19/30/22 18/27/20
f 48/120/73 76/119/74 78/97/71
f 78/121/71 77/122/70 48/123/73
f 77/122/70 16/22/16 23/44/30
f 78/121/71 17/23/17 16/22/16
f 79/100/72 22/39/28 21/38/26
f 79/98/72 20/33/24 76/102/74
f 77/96/70 22/39/28 79/100/72
f 16/22/16 77/122/70 78/121/71
f 76/119/74 18/27/20 78/97/71
f 72/109/52 38/105/76 74/108/78
f 75/65/47 32/64/46 72/70/52
f 34/69/51 75/117/47 73/67/49
f 74/114/78 36/112/79 73/111/49
f 69/124/42 81/125/80 37/115/75
f 29/126/41 82/127/81 86/128/82 69/124/42
f 54/87/65 53/85/63 83/129/83 87/130/84
f 88/131/85 52/84/61 28/132/38 84/133/86
f 85/134/87 89/135/88 68/136/39
f 80/137/89 85/134/87 35/113/50 36/112/79
f 37/115/75 81/125/80 80/137/89 36/112/79
f 35/113/50 85/134/87 68/136/39
f 69/124/42 86/128/82 81/125/80
f 68/136/39 89/135/88 84/133/86 28/132/38
f 54/87/65 87/130/84 82/127/81 29/126/41
f 53/85/63 52/84/61 88/131/85 83/129/83
f 90/138/90 91/139/91 89/140/88 85/141/87
f 80/142/89 90/138/90 85/141/87
f 91/139/91 92/143/92 84/144/86 89/140/88
f 92/143/92 93/145/93 88/146/85 84/144/86
f 83/147/83 88/146/85 93/145/93
f 81/148/80 90/138/90 80/142/89
f 81/148/80 86/149/82 91/139/91 90/138/90
f 86/149/82 82/150/81 92/143/92 91/139/91
f 82/150/81 87/151/84 93/145/93 92/143/92
f 83/147/83 93/145/93 87/151/84
