# https://github.com/mikedh/trimesh
v -0.13499385 -0.32630983 -0.05303338
v -0.13499385 -0.32310659 0.05452275
v -0.13499385 -0.32310659 -0.05309295
v -0.11913726 0.02532830 -0.06086149
v -0.11553439 0.01460722 -0.06086149
v -0.10955601 0.00597807 -0.06086149
v -0.10219190 -0.00147439 -0.06086149
v -0.09268983 -0.00657343 -0.06086149
v -0.08039653 -0.00899221 -0.06086149
v -0.06665811 -0.00899221 -0.06086149
v -0.05284052 -0.00676955 -0.06086149
v -0.09510494 -0.31892276 -0.05305721
v -0.08364306 -0.31232014 0.05285465
v -0.08364306 -0.31218940 0.05452275
v -0.01437692 0.04082156 0.06070660
v -0.01811836 0.05481125 0.06086149
v -0.02552206 0.06768961 0.06086149
v -0.03530128 0.07775696 0.06073043
v -0.04678295 0.08488255 0.06049213
v -0.05921482 0.08906639 0.06019425
v -0.07241875 0.08919713 0.05978915
v -0.08637491 0.08488255 0.05927680
v -0.09916312 0.07684175 0.05872872
v -0.10906111 0.06644754 0.05824021
v -0.11585113 0.05409215 0.05782318
v -0.11939462 0.04010246 0.05745382
v -0.13499385 0.26138803 0.05449891
v -0.13499385 -0.31754994 -0.05317636
v -0.11951339 0.03814129 -0.06086149
v -0.04019088 -0.00245497 -0.06086149
v -0.06267912 -0.30820167 -0.05306912
v -0.06269892 -0.30820167 -0.05141295
v -0.05119745 -0.30153370 0.05452275
v 0.06724192 -0.25838792 0.05452275
v 0.06724192 -0.11404566 0.05461806
v 0.06724192 0.32963681 0.05449891
v 0.06724192 0.34153458 0.05443934
v 0.04900981 0.34101161 0.05443934
v 0.01365419 0.33035591 0.05443934
v -0.05531501 0.30283412 0.05448700
v -0.08611757 0.28786385 0.05449891
v -0.08611757 0.28799459 0.05281891
v -0.13499385 0.26491815 -0.04456186
v -0.13499385 -0.30297190 -0.05318827
v -0.11618766 0.05193486 -0.06086149
v -0.13499385 0.24582940 -0.05317636
v -0.13499385 0.26504889 -0.05311678
v -0.02977820 0.00440913 -0.06086149
v 0.06724192 -0.26329085 -0.05303338
v 0.06724192 -0.26329085 -0.05197295
v 0.06724192 0.34140384 0.04857719
v 0.04902961 0.34101161 0.05278317
v 0.01365419 0.33035591 0.05279508
v -0.05598808 0.30244190 0.03935503
v -0.13499385 0.26504889 -0.05144869
v -0.10882356 0.06468248 -0.06086149
v -0.05729461 0.30165744 0.01409537
v -0.05834380 0.30106908 0.00063149
v -0.06018483 0.30002311 -0.01280856
v -0.06681648 0.29623151 -0.05153210
v -0.06681648 0.29616615 -0.05318827
v -0.08540491 0.08344436 -0.06086149
v -0.09827230 0.07546893 -0.06086149
v -0.02172123 0.01356127 -0.06086149
v -0.01607938 0.02519755 -0.06086149
v -0.01451549 0.03866427 -0.06086149
v 0.06724192 0.11809173 -0.05330742
v 0.06724192 0.34061939 0.01401196
v 0.04703022 0.33996564 0.01401196
v 0.01298113 0.32996368 0.03931929
v -0.02284960 0.31545100 0.01407154
v 0.00878438 0.32754490 -0.01286813
v 0.00656723 0.32630283 -0.02593881
v -0.03235167 0.31002510 -0.05157975
v 0.00215273 0.32375330 -0.05328359
v -0.07168630 0.08775894 -0.06086149
v 0.03752815 0.33440900 -0.05333125
v -0.01851428 0.05317694 -0.06086149
v 0.06724192 0.33637017 -0.05334317
v 0.06724192 0.34055400 0.01206983
v 0.06724192 0.34016177 0.00051234
v 0.04598103 0.33931193 0.00051234
v 0.01165480 0.32917920 0.01403579
v 0.01062541 0.32852548 0.00057192
v 0.03752815 0.33460513 -0.05166316
v -0.05858135 0.08743208 -0.06086149
v -0.02619512 0.06657828 -0.06086149
v -0.03553883 0.07651488 -0.06086149
v -0.04642662 0.08344436 -0.06086149
v 0.04414000 0.33820060 -0.01291579
v 0.06724192 0.33950806 -0.01012770
f 1 2 27
f 1 27 43
f 1 43 55
f 1 55 47
f 1 47 46
f 1 46 44
f 1 44 28
f 1 28 3
f 1 3 4
f 1 4 5
f 1 5 6
f 1 6 7
f 1 7 8
f 1 8 9
f 1 9 10
f 1 10 11
f 1 11 12
f 1 12 2
f 2 12 13
f 2 13 14
f 2 14 15
f 2 15 16
f 2 16 17
f 2 17 18
f 2 18 19
f 2 19 20
f 2 20 21
f 2 21 22
f 2 22 23
f 2 23 24
f 2 24 25
f 2 25 26
f 2 26 27
f 3 28 4
f 4 29 45
f 4 45 56
f 4 56 63
f 4 63 62
f 4 62 76
f 4 76 86
f 4 86 89
f 4 89 88
f 4 88 87
f 4 87 78
f 4 78 66
f 4 66 65
f 4 65 64
f 4 64 48
f 4 48 30
f 4 30 11
f 4 11 10
f 4 10 9
f 4 9 8
f 4 8 7
f 4 7 6
f 4 6 5
f 4 28 29
f 11 30 31
f 11 31 12
f 12 31 32
f 12 32 13
f 13 32 33
f 13 33 14
f 14 33 15
f 15 33 34
f 15 34 35
f 15 35 36
f 15 36 16
f 16 36 37
f 16 37 17
f 17 37 18
f 18 37 38
f 18 38 19
f 19 38 39
f 19 39 40
f 19 40 41
f 19 41 27
f 19 27 20
f 20 27 21
f 21 27 22
f 22 27 23
f 23 27 24
f 24 27 25
f 25 27 26
f 27 41 42
f 27 42 43
f 28 44 29
f 29 44 46
f 29 46 47
f 29 47 45
f 30 48 49
f 30 49 31
f 31 49 50
f 31 50 32
f 32 50 33
f 33 50 34
f 34 50 49
f 34 49 67
f 34 67 79
f 34 79 91
f 34 91 81
f 34 81 80
f 34 80 68
f 34 68 51
f 34 51 37
f 34 37 36
f 34 36 35
f 37 51 52
f 37 52 38
f 38 52 53
f 38 53 39
f 39 53 40
f 40 53 54
f 40 54 47
f 40 47 55
f 40 55 42
f 40 42 41
f 42 55 43
f 45 47 56
f 47 54 57
f 47 57 58
f 47 58 59
f 47 59 60
f 47 60 61
f 47 61 62
f 47 62 63
f 47 63 56
f 48 64 49
f 49 64 65
f 49 65 66
f 49 66 67
f 51 68 52
f 52 68 69
f 52 69 53
f 53 70 71
f 53 71 54
f 53 69 70
f 54 71 57
f 57 71 58
f 58 71 72
f 58 72 59
f 59 72 73
f 59 73 74
f 59 74 60
f 60 74 61
f 61 74 75
f 61 75 62
f 62 75 77
f 62 77 76
f 66 78 79
f 66 79 67
f 68 80 69
f 69 80 81
f 69 81 82
f 69 82 83
f 69 83 70
f 70 83 71
f 71 83 84
f 71 84 72
f 72 84 82
f 72 82 85
f 72 85 73
f 73 75 74
f 73 85 75
f 75 85 77
f 76 77 79
f 76 79 86
f 77 85 79
f 78 87 79
f 79 87 88
f 79 88 89
f 79 89 86
f 79 85 90
f 79 90 82
f 79 82 91
f 81 91 82
f 82 90 85
f 82 84 83

