# https://github.com/mikedh/trimesh
v 0.03724194 -0.26329160 -0.05304137
v 0.42371923 -0.11162877 -0.05335362
v 0.32429147 -0.19045748 -0.05318134
v 0.17644079 -0.23997268 -0.05307367
v 0.14156181 -0.25549865 -0.05301983
v 0.03724194 -0.26329160 -0.05197541
v 0.03724194 0.11808348 -0.05329978
v 0.36442494 0.24229115 -0.05413962
v 0.46140665 -0.05881653 -0.05346129
v 0.46154255 -0.05887648 -0.05180314
v 0.44700205 -0.08267495 -0.02603723
v 0.43028733 -0.10779223 -0.01293355
v 0.40727627 -0.13326919 -0.02595110
v 0.40283710 -0.13578692 -0.05329978
v 0.37801415 -0.15550908 -0.05325671
v 0.32433674 -0.19045748 -0.05151242
v 0.29661477 -0.20640305 -0.05313827
v 0.35119811 -0.17301326 -0.05321364
v 0.20638236 -0.24183100 -0.05304137
v 0.17494598 -0.25088283 -0.05301983
v 0.26717144 -0.21923146 -0.05310597
v 0.23673162 -0.23056120 -0.05307367
v 0.17494598 -0.25082287 -0.05136168
v 0.15297675 -0.24890462 0.05454448
v 0.03724194 -0.25831610 0.05453371
v 0.03724194 0.33628616 -0.05334285
v 0.37348440 0.25308138 -0.05415039
v 0.47621888 -0.03052212 -0.05351513
v 0.48283231 -0.02662564 -0.01305199
v 0.46584576 -0.05623886 -0.02608030
v 0.43214452 -0.10671321 0.00053621
v 0.40945053 -0.13195038 -0.01289048
v 0.46797475 -0.05492005 -0.01301969
v 0.46983194 -0.05390097 0.00047161
v 0.38462758 -0.15167254 -0.01285818
v 0.40510198 -0.13458800 -0.03817187
v 0.40288240 -0.13584687 -0.05164163
v 0.37805945 -0.15556903 -0.05159856
v 0.33095017 -0.18668088 -0.01280435
v 0.32488030 -0.19015774 -0.04732399
v 0.30322817 -0.20262647 -0.01277205
v 0.29661477 -0.20640305 -0.05148013
v 0.18640622 -0.24434873 0.05287556
v 0.26717144 -0.21923146 -0.05144782
v 0.21784261 -0.23523697 0.05453371
v 0.18640622 -0.24428880 0.05454448
v 0.11723711 -0.24530786 0.05489980
v 0.08249402 -0.24812531 0.05477059
v 0.03724194 -0.11402659 0.05461985
v 0.03724194 0.33832431 -0.02598340
v 0.08127099 0.34294012 -0.01294432
v 0.07687715 0.34054229 -0.03823647
v 0.07524644 0.33964312 -0.04751780
v 0.07465757 0.33910361 -0.05337515
v 0.11293386 0.33592647 -0.05345052
v 0.11325094 0.33107087 -0.05348282
v 0.15053070 0.34246057 -0.05345052
v 0.18740276 0.34144148 -0.05348282
v 0.22200996 0.33496734 -0.05352589
v 0.25557533 0.32585558 -0.05355819
v 0.28905010 0.31668386 -0.05359050
v 0.32130182 0.30379552 -0.05362280
v 0.35083571 0.28341395 -0.05364433
v 0.40732157 0.23515761 -0.05368740
v 0.43200862 0.21034005 -0.05369817
v 0.44949341 0.18414374 -0.05369817
v 0.46339971 0.15722808 -0.05369817
v 0.47730601 0.13037238 -0.05368740
v 0.48704493 0.10171828 -0.05367663
v 0.48849446 0.06946746 -0.05364433
v 0.48301348 0.00160882 -0.05355819
v 0.48464417 -0.02554662 0.00043931
v 0.48958158 0.00544535 -0.01308429
v 0.43318635 -0.10611375 0.01399521
v 0.41126242 -0.13087136 0.00056851
v 0.38639417 -0.15065347 0.00060082
v 0.48568603 -0.02494716 0.01390907
v 0.47087377 -0.05324157 0.01393061
v 0.35781151 -0.16917671 -0.01283665
v 0.38240799 -0.15299135 -0.02590803
v 0.40347129 -0.13554713 -0.04744243
v 0.33276206 -0.18560186 0.00065465
v 0.33448336 -0.18464273 0.02714196
v 0.30807498 -0.19980901 0.05449064
v 0.27854109 -0.21263742 0.05450141
v 0.24828245 -0.22396716 0.05286480
v 0.24606287 -0.21827233 0.05463062
v 0.15202551 -0.24308988 0.05477059
v 0.44056982 -0.07626075 0.05516898
v 0.48287761 0.04201228 0.05584731
v 0.46892601 0.04393055 0.05582578
v 0.03724194 0.31512529 0.05450141
v 0.03724194 0.33928344 -0.01292279
v 0.08312818 0.34395921 0.00052544
v 0.15714410 0.34629709 -0.01299816
v 0.15111956 0.34306002 -0.04759317
v 0.11261678 0.34096190 -0.05174930
v 0.15057600 0.34264040 -0.05179237
v 0.18744805 0.34162131 -0.05183544
v 0.18794632 0.34204093 -0.04763623
v 0.19179660 0.34401914 -0.02610184
v 0.22862338 0.33880386 -0.01305199
v 0.22205526 0.33520710 -0.05186774
v 0.26001447 0.32843325 -0.02615567
v 0.29348922 0.31926155 -0.02618797
v 0.29570881 0.32046047 -0.01310583
v 0.32791525 0.30757213 -0.01312736
v 0.38571471 0.26309234 -0.01315966
v 0.35744914 0.28719056 -0.01314890
v 0.41180599 0.23773527 -0.02626335
v 0.43857676 0.21417658 -0.01318120
v 0.45397788 0.18672141 -0.02627411
v 0.44976521 0.18432358 -0.05206155
v 0.48179045 0.13295004 -0.02627411
v 0.49365836 0.10549487 -0.01317043
v 0.48953632 0.10303709 -0.03853795
v 0.49297893 0.07204512 -0.02623104
v 0.48876625 0.06952740 -0.05199695
v 0.49139351 0.00652438 0.00040701
v 0.49234474 0.03943462 -0.01311660
v 0.49691978 0.07438301 0.00035317
v 0.47155327 -0.05288190 0.02701275
v 0.43499827 -0.10503472 0.04856868
v 0.41298372 -0.12991223 0.02708812
v 0.41230428 -0.13027190 0.01402751
v 0.38816077 -0.14963439 0.02710966
v 0.48636550 -0.02458748 0.02698045
v 0.49243534 0.00712384 0.01387677
v 0.36265832 -0.16635926 0.05281096
v 0.33579698 -0.18386343 0.05283250
v 0.33579698 -0.18386343 0.05449064
v 0.27672920 -0.20742214 0.05458755
v 0.42181671 -0.10191755 0.05493210
v 0.38947439 -0.14885509 0.05446911
v 0.41434264 -0.12913294 0.05444758
v 0.43513414 -0.10497478 0.05442604
v 0.47286689 -0.05210260 0.05440451
v 0.47798547 0.00664427 0.05539509
v 0.48772442 -0.02380819 0.05438297
v 0.49447373 0.00826281 0.05437221
v 0.50000000 0.07612143 0.05435067
v 0.48776972 0.07534214 0.05539509
v 0.44346887 0.21693408 0.05432913
v 0.41882709 0.24175164 0.05433990
v 0.36229596 0.29000801 0.05435067
v 0.33276206 0.31038958 0.05435067
v 0.30055562 0.32327792 0.05435067
v 0.23356080 0.34162131 0.05438297
v 0.19886300 0.34803551 0.05439374
v 0.16103968 0.34000278 0.05449064
v 0.03724194 0.33424798 0.05447988
v 0.03724194 0.32963216 0.05449064
v 0.03724194 0.34006274 0.00054698
v 0.08417003 0.34455866 0.01398444
v 0.15900129 0.34731618 0.00048238
v 0.19578278 0.34629709 0.00046084
v 0.19401617 0.34521806 -0.01303046
v 0.23048057 0.33982295 0.00042854
v 0.26218873 0.32963216 -0.01308429
v 0.29747540 0.32147953 0.00038547
v 0.26404592 0.33065125 0.00040701
v 0.32968184 0.30859119 0.00036394
v 0.35930634 0.28820962 0.00035317
v 0.41574687 0.24001321 0.00033164
v 0.41393498 0.23893419 -0.01317043
v 0.44043395 0.21519566 0.00032087
v 0.45606154 0.18798026 -0.01318120
v 0.47001314 0.16106461 -0.01318120
v 0.48387414 0.13420890 -0.01318120
v 0.49547029 0.10657389 0.00033164
v 0.49506259 0.07330398 -0.01314890
v 0.48573133 0.13522798 0.00033164
v 0.49796164 0.07498246 0.01383370
v 0.47282159 -0.05210260 0.05273559
v 0.45402315 -0.07853869 0.05275713
v 0.38947439 -0.14885509 0.05280019
v 0.49442843 0.00826281 0.05271406
v 0.49864107 0.07540208 0.02692662
v 0.36265832 -0.16635926 0.05447988
v 0.49827871 0.10819243 0.04847178
v 0.49855047 0.10837227 0.05433990
v 0.48881155 0.13702635 0.05432913
v 0.46095365 0.19079772 0.05432913
v 0.44337827 0.21693408 0.05267099
v 0.41855532 0.24157180 0.04847178
v 0.36098233 0.28922871 0.02692662
v 0.36225066 0.28994805 0.05268176
v 0.33208260 0.30991000 0.03919046
v 0.33076897 0.30919066 0.01384447
v 0.29919669 0.32249862 0.02695892
v 0.30032915 0.32309806 0.04849331
v 0.26708084 0.33238965 0.05271406
v 0.26576725 0.33167031 0.02695892
v 0.23152241 0.34042239 0.01389831
v 0.19686991 0.34689656 0.01391984
v 0.19822884 0.34761590 0.03923352
v 0.16203623 0.34911454 0.05274636
v 0.16203623 0.34911454 0.05440451
v 0.08620840 0.34575757 0.05442604
v 0.03724194 0.34144148 0.05444758
v 0.03724194 0.34048235 0.01206788
v 0.08484948 0.34497827 0.02705582
v 0.12276340 0.34665677 0.02703429
v 0.16004315 0.34791562 0.01394137
v 0.03724194 0.34060225 0.01580410
v 0.29851723 0.32207900 0.01386600
v 0.26508778 0.33125070 0.01388754
v 0.36034817 0.28880906 0.01383370
v 0.41678870 0.24061267 0.01381217
v 0.44147578 0.21579511 0.01381217
v 0.45896059 0.18959881 0.01380140
v 0.45791873 0.18899935 0.00032087
v 0.49651212 0.10717335 0.01381217
v 0.48677316 0.13582744 0.01381217
v 0.49719155 0.10759297 0.02690508
v 0.48745263 0.13624707 0.02690508
v 0.16190034 0.34899464 0.04854715
v 0.08552894 0.34533796 0.03928736
v 0.03724194 0.34114176 0.03929813
v 0.03724194 0.34144148 0.05277866
f 1 2 3
f 1 3 4
f 1 4 5
f 1 5 6
f 1 6 25
f 1 25 49
f 1 49 92
f 1 92 152
f 1 152 151
f 1 151 200
f 1 200 220
f 1 220 219
f 1 219 205
f 1 205 201
f 1 201 153
f 1 153 93
f 1 93 50
f 1 50 26
f 1 26 7
f 1 7 8
f 1 8 2
f 2 9 10
f 2 10 11
f 2 11 12
f 2 12 13
f 2 13 14
f 2 14 15
f 2 15 3
f 2 8 9
f 3 16 17
f 3 17 4
f 3 15 18
f 3 18 16
f 4 19 20
f 4 20 5
f 4 17 21
f 4 21 22
f 4 22 19
f 5 20 23
f 5 23 24
f 5 24 25
f 5 25 6
f 7 26 8
f 8 26 27
f 8 27 28
f 8 28 9
f 9 28 29
f 9 29 30
f 9 30 10
f 10 30 11
f 11 30 33
f 11 33 12
f 12 31 32
f 12 32 13
f 12 33 34
f 12 34 31
f 13 32 35
f 13 35 36
f 13 36 14
f 14 36 37
f 14 37 38
f 14 38 15
f 15 38 18
f 16 18 39
f 16 39 40
f 16 40 17
f 17 40 41
f 17 41 42
f 17 42 44
f 17 44 21
f 18 38 39
f 19 43 20
f 19 22 44
f 19 44 45
f 19 45 43
f 20 43 46
f 20 46 23
f 21 44 22
f 23 46 24
f 24 46 47
f 24 47 25
f 25 47 48
f 25 48 49
f 26 50 51
f 26 51 52
f 26 52 53
f 26 53 54
f 26 54 55
f 26 55 56
f 26 56 27
f 27 56 57
f 27 57 58
f 27 58 59
f 27 59 60
f 27 60 61
f 27 61 62
f 27 62 63
f 27 63 64
f 27 64 65
f 27 65 66
f 27 66 67
f 27 67 68
f 27 68 69
f 27 69 70
f 27 70 71
f 27 71 28
f 28 71 29
f 29 72 34
f 29 34 33
f 29 33 30
f 29 71 73
f 29 73 119
f 29 119 72
f 31 34 74
f 31 74 125
f 31 125 75
f 31 75 32
f 32 75 76
f 32 76 35
f 34 72 77
f 34 77 78
f 34 78 74
f 35 76 79
f 35 79 80
f 35 80 36
f 36 81 37
f 36 80 38
f 36 38 81
f 37 81 38
f 38 80 79
f 38 79 39
f 39 41 40
f 39 79 76
f 39 76 82
f 39 82 83
f 39 83 41
f 41 83 84
f 41 84 42
f 42 84 44
f 43 45 46
f 44 84 85
f 44 85 86
f 44 86 45
f 45 86 85
f 45 85 87
f 45 87 88
f 45 88 46
f 46 88 47
f 47 49 48
f 47 88 87
f 47 87 89
f 47 89 90
f 47 90 91
f 47 91 92
f 47 92 49
f 50 93 51
f 51 94 95
f 51 95 96
f 51 96 52
f 51 93 94
f 52 97 54
f 52 54 53
f 52 96 97
f 54 97 57
f 54 57 55
f 55 57 56
f 57 98 99
f 57 99 58
f 57 97 98
f 58 99 100
f 58 100 101
f 58 101 102
f 58 102 103
f 58 103 59
f 59 103 60
f 60 103 102
f 60 102 104
f 60 104 105
f 60 105 61
f 61 105 106
f 61 106 62
f 62 106 107
f 62 107 109
f 62 109 63
f 63 108 64
f 63 109 108
f 64 110 65
f 64 108 110
f 65 110 111
f 65 111 112
f 65 112 113
f 65 113 66
f 66 113 68
f 66 68 67
f 68 113 114
f 68 114 69
f 69 115 116
f 69 116 70
f 69 114 115
f 70 116 117
f 70 117 118
f 70 118 71
f 71 118 117
f 71 117 73
f 72 119 128
f 72 128 77
f 73 117 120
f 73 120 121
f 73 121 119
f 74 78 122
f 74 122 123
f 74 123 124
f 74 124 125
f 75 125 76
f 76 126 83
f 76 83 82
f 76 125 126
f 77 127 78
f 77 128 127
f 78 127 122
f 83 129 130
f 83 130 131
f 83 131 84
f 83 126 129
f 84 132 85
f 84 131 89
f 84 89 132
f 85 132 87
f 87 132 89
f 89 133 134
f 89 134 135
f 89 135 136
f 89 136 137
f 89 137 138
f 89 138 90
f 89 131 133
f 90 138 139
f 90 139 140
f 90 140 141
f 90 141 142
f 90 142 143
f 90 143 144
f 90 144 145
f 90 145 146
f 90 146 147
f 90 147 148
f 90 148 149
f 90 149 150
f 90 150 151
f 90 151 91
f 91 151 152
f 91 152 92
f 93 153 94
f 94 154 204
f 94 204 155
f 94 155 95
f 94 153 154
f 95 155 156
f 95 156 157
f 95 157 101
f 95 101 100
f 95 100 96
f 96 100 99
f 96 99 98
f 96 98 97
f 101 157 102
f 102 158 159
f 102 159 104
f 102 157 156
f 102 156 158
f 104 159 106
f 104 106 105
f 106 160 162
f 106 162 107
f 106 159 161
f 106 161 160
f 107 162 163
f 107 163 109
f 108 109 163
f 108 163 164
f 108 164 165
f 108 165 110
f 110 165 111
f 111 165 164
f 111 164 166
f 111 166 212
f 111 212 167
f 111 167 112
f 112 167 168
f 112 168 114
f 112 114 113
f 114 168 169
f 114 169 115
f 115 170 121
f 115 121 171
f 115 171 117
f 115 117 116
f 115 169 172
f 115 172 170
f 117 171 120
f 119 121 128
f 120 171 121
f 121 170 213
f 121 213 173
f 121 173 128
f 122 127 139
f 122 139 174
f 122 174 175
f 122 175 123
f 123 136 135
f 123 135 124
f 123 175 136
f 124 135 126
f 124 126 125
f 126 135 176
f 126 176 129
f 127 128 177
f 127 177 139
f 128 173 178
f 128 178 177
f 129 179 131
f 129 131 130
f 129 176 134
f 129 134 179
f 131 179 133
f 133 179 134
f 134 176 135
f 136 175 137
f 137 175 174
f 137 174 139
f 137 139 138
f 139 177 140
f 140 177 141
f 141 177 178
f 141 178 180
f 141 180 181
f 141 181 142
f 142 181 182
f 142 182 183
f 142 183 143
f 143 183 184
f 143 184 144
f 144 184 185
f 144 185 186
f 144 186 187
f 144 187 145
f 145 187 146
f 146 187 186
f 146 186 188
f 146 188 189
f 146 189 190
f 146 190 191
f 146 191 147
f 147 191 192
f 147 192 148
f 148 192 193
f 148 193 194
f 148 194 195
f 148 195 196
f 148 196 149
f 149 196 197
f 149 197 198
f 149 198 150
f 150 198 199
f 150 199 200
f 150 200 151
f 153 201 154
f 154 202 203
f 154 203 204
f 154 201 205
f 154 205 202
f 155 204 195
f 155 195 156
f 156 195 158
f 158 194 161
f 158 161 159
f 158 195 194
f 160 206 189
f 160 189 162
f 160 161 207
f 160 207 206
f 161 194 207
f 162 189 163
f 163 189 208
f 163 208 209
f 163 209 164
f 164 209 166
f 166 209 210
f 166 210 211
f 166 211 212
f 167 212 168
f 168 212 172
f 168 172 169
f 170 172 214
f 170 214 213
f 172 212 211
f 172 211 214
f 173 213 215
f 173 215 178
f 178 215 180
f 180 215 216
f 180 216 182
f 180 182 181
f 182 216 183
f 183 216 211
f 183 211 210
f 183 210 184
f 184 210 185
f 185 210 209
f 185 209 186
f 186 209 208
f 186 208 189
f 186 189 188
f 189 206 190
f 190 206 193
f 190 193 191
f 191 193 192
f 193 206 207
f 193 207 194
f 195 204 217
f 195 217 196
f 196 217 197
f 197 217 202
f 197 202 218
f 197 218 199
f 197 199 198
f 199 218 205
f 199 205 219
f 199 219 220
f 199 220 200
f 202 217 203
f 202 205 218
f 203 217 204
f 211 216 214
f 213 214 216
f 213 216 215

