# https://github.com/mikedh/trimesh
v -0.50000000 -0.18798321 -0.05268219
v -0.48484313 -0.18569852 -0.05317836
v -0.48225257 -0.20469758 -0.05317836
v -0.48963767 -0.20734301 -0.05292500
v -0.49706143 -0.20998845 -0.05266108
v -0.48565513 -0.20337486 0.05464929
v -0.48855501 -0.18130951 0.05463874
v -0.48778170 -0.15954477 0.05462818
v -0.49841473 -0.14439362 -0.05276664
v -0.48410851 -0.14830166 -0.05317836
v -0.30272892 -0.32512510 -0.05318892
v -0.47142625 -0.22604144 -0.05317836
v -0.48669910 -0.23259491 -0.05265052
v -0.47533146 -0.22598132 0.05465985
v -0.20304942 0.17414106 0.05455428
v -0.48696977 -0.13771991 0.05461762
v -0.49431619 -0.12298964 -0.05280887
v -0.48128593 -0.12888175 -0.05317836
v -0.23456177 -0.32560608 -0.05318892
v -0.30323160 -0.33919400 -0.05317836
v -0.33551723 -0.33636820 -0.05317836
v -0.36304700 -0.32590669 -0.05317836
v -0.41362143 -0.29999343 -0.05317836
v -0.43484873 -0.28628528 -0.05317836
v -0.44772434 -0.26842856 -0.05317836
v -0.47111690 -0.10970233 -0.05317836
v -0.44486308 -0.07086250 -0.05317836
v -0.42502773 -0.04753456 -0.05317836
v -0.16507997 0.20600656 -0.05317836
v -0.14849250 0.22121781 -0.05317836
v -0.12954643 0.23757142 -0.05317836
v -0.10499388 0.24574825 -0.05317836
v -0.10499388 -0.30293950 -0.05318892
v -0.45862800 -0.27834895 -0.05266108
v -0.46125722 -0.24888840 0.05465985
v -0.14907248 0.23486587 0.05453317
v -0.45831865 -0.07549201 0.05457539
v -0.47223821 -0.09575365 0.05458595
v -0.48287123 -0.11637604 0.05459651
v -0.48368317 -0.10242738 -0.05285110
v -0.47741938 -0.10609491 -0.05302001
v -0.20188947 -0.32404286 -0.05318892
v -0.20003352 -0.33805165 -0.05317836
v -0.23444577 -0.33967501 -0.05317836
v -0.23572174 -0.34911439 -0.05292500
v -0.30644080 -0.34707019 -0.05285110
v -0.33745050 -0.33991548 -0.05299890
v -0.36749354 -0.33486512 -0.05276664
v -0.36528963 -0.33035585 -0.05297778
v -0.39320606 -0.32362199 -0.05273497
v -0.41887993 -0.31243902 -0.05268219
v -0.44165385 -0.29824984 -0.05267163
v -0.43825132 -0.29229763 -0.05292500
v -0.45588273 -0.06196421 -0.05295667
v -0.43473274 -0.03815528 -0.05299890
v -0.42989957 -0.04284491 -0.05309391
v -0.12107870 0.26432642 -0.05311502
v -0.10499388 0.26348469 -0.05312558
v -0.10499388 -0.31748939 -0.05317836
v -0.44718301 -0.27173537 0.05464929
v -0.43024755 -0.29169637 0.05464929
v -0.10499388 -0.32302076 0.05453317
v -0.10499388 0.26138037 0.05451205
v -0.12935311 0.25290295 0.05452261
v -0.16055611 0.22819215 -0.05305168
v -0.17818755 0.21111706 -0.05302001
v -0.16674258 0.21773064 0.05453317
v -0.44439912 -0.05529049 0.05455428
v -0.46976364 -0.08216573 -0.05290388
v -0.16531196 -0.33967501 -0.05299890
v -0.20045885 -0.34725058 -0.05295667
v -0.10499388 -0.32187843 -0.05310446
v -0.10499388 -0.32620731 -0.05303057
v -0.18897521 -0.34063697 0.05455428
v -0.22427675 -0.34250081 0.05456484
v -0.29499584 -0.34051672 0.05459651
v -0.27110061 -0.34809229 -0.05287221
v -0.33934510 -0.34352291 -0.05280887
v -0.32786146 -0.33696944 0.05459651
v -0.35597125 -0.32831165 0.05461762
v -0.40743494 -0.30588555 0.05463874
v -0.42328778 -0.03154168 0.05453317
v -0.10499388 0.26510802 -0.05145760
v -0.10499388 0.26510802 -0.05311502
v -0.10499388 0.26144049 0.05363584
v -0.10499388 -0.32308090 0.05272795
f 1 2 3
f 1 3 4
f 1 4 5
f 1 5 6
f 1 6 7
f 1 7 8
f 1 8 9
f 1 9 2
f 2 10 11
f 2 11 3
f 2 9 10
f 3 12 13
f 3 13 4
f 3 11 12
f 4 13 5
f 5 14 6
f 5 13 14
f 6 14 15
f 6 15 7
f 7 16 8
f 7 15 16
f 8 16 9
f 9 16 17
f 9 17 10
f 10 17 18
f 10 18 11
f 11 19 20
f 11 20 21
f 11 21 22
f 11 22 23
f 11 23 24
f 11 24 25
f 11 25 12
f 11 18 26
f 11 26 27
f 11 27 28
f 11 28 29
f 11 29 30
f 11 30 31
f 11 31 32
f 11 32 33
f 11 33 42
f 11 42 19
f 12 25 13
f 13 25 34
f 13 34 14
f 14 34 35
f 14 35 15
f 15 36 37
f 15 37 38
f 15 38 16
f 15 35 36
f 16 38 39
f 16 39 17
f 17 39 38
f 17 38 40
f 17 40 18
f 18 40 41
f 18 41 26
f 19 42 43
f 19 43 44
f 19 44 20
f 20 44 45
f 20 45 46
f 20 46 21
f 21 46 47
f 21 47 48
f 21 48 49
f 21 49 22
f 22 50 51
f 22 51 23
f 22 49 50
f 23 52 53
f 23 53 24
f 23 51 52
f 24 53 34
f 24 34 25
f 26 41 54
f 26 54 27
f 27 54 55
f 27 55 56
f 27 56 28
f 28 56 57
f 28 57 29
f 29 57 30
f 30 57 31
f 31 57 32
f 32 57 58
f 32 58 84
f 32 84 83
f 32 83 85
f 32 85 63
f 32 63 62
f 32 62 86
f 32 86 73
f 32 73 72
f 32 72 59
f 32 59 33
f 33 59 42
f 34 60 35
f 34 53 52
f 34 52 61
f 34 61 60
f 35 60 61
f 35 61 62
f 35 62 36
f 36 63 64
f 36 64 57
f 36 57 65
f 36 65 66
f 36 66 67
f 36 67 68
f 36 68 37
f 36 62 63
f 37 69 40
f 37 40 38
f 37 68 54
f 37 54 69
f 40 69 54
f 40 54 41
f 42 59 43
f 43 70 71
f 43 71 44
f 43 59 72
f 43 72 73
f 43 73 70
f 44 71 45
f 45 71 74
f 45 74 75
f 45 75 76
f 45 76 77
f 45 77 46
f 46 77 76
f 46 76 78
f 46 78 47
f 47 78 48
f 48 79 80
f 48 80 81
f 48 81 51
f 48 51 50
f 48 50 49
f 48 78 79
f 51 81 61
f 51 61 52
f 54 68 55
f 55 68 82
f 55 82 67
f 55 67 66
f 55 66 65
f 55 65 57
f 55 57 56
f 57 83 84
f 57 84 58
f 57 64 63
f 57 63 85
f 57 85 83
f 61 81 80
f 61 80 76
f 61 76 62
f 62 76 74
f 62 74 71
f 62 71 70
f 62 70 86
f 67 82 68
f 70 73 86
f 74 76 75
f 76 80 79
f 76 79 78

