# https://github.com/mikedh/trimesh
v -0.00499366 0.02442117 -0.14489861
v -0.01489425 0.02445447 -0.14489861
v 0.00509973 0.02442117 -0.14489861
v -0.00203409 0.02959326 -0.04498546
v -0.01499066 0.02446557 -0.14489861
v -0.00539856 0.02924919 -0.05545254
v 0.01499068 0.02446557 -0.14489861
v 0.00203411 0.02959326 -0.04498546
v -0.00703741 0.03062545 -0.04498546
v -0.00899439 0.03022589 -0.05240758
v -0.00038560 0.02993732 -0.03933957
v -0.02019642 0.07993782 0.37052643
v -0.02037958 0.06989333 0.28101692
v -0.02458276 0.02737348 -0.14489861
v -0.01014159 0.02992622 -0.05906846
v 0.01506780 0.02448777 -0.14489861
v 0.01014161 0.02992622 -0.05906846
v 0.00539858 0.02924919 -0.05545254
v 0.00038562 0.02993732 -0.03933957
v 0.00899441 0.03022589 -0.05240758
v 0.00703743 0.03062545 -0.04498546
v 0.02037961 0.06989333 0.28101692
v 0.02019644 0.07993782 0.37052643
v -0.02499729 0.07482123 0.31495568
v -0.02499729 0.07374464 0.30499607
v -0.03335543 0.07870585 0.32497871
v -0.00126287 0.06987113 0.30118987
v -0.00499366 0.07503211 0.34496135
v -0.01499066 0.07395552 0.32497871
v -0.00499366 0.08823979 0.45496100
v -0.00767367 0.09021539 0.46821928
v -0.01054648 0.08979364 0.46155840
v -0.02219196 0.08909441 0.43497837
v -0.03015485 0.08989353 0.42051473
v -0.02412002 0.08178024 0.37433264
v -0.03180334 0.07931628 0.33493832
v -0.02499729 0.07596442 0.32497871
v -0.02505513 0.02751776 -0.14489861
v -0.03562090 0.07848386 0.31419444
v -0.03936134 0.08030409 0.31704909
v 0.02505515 0.02751776 -0.14489861
v 0.03936136 0.08030409 0.31704909
v 0.03562092 0.07848386 0.31419444
v 0.03335545 0.07870585 0.32497871
v 0.01499068 0.07395552 0.32497871
v 0.00499369 0.07503211 0.34496135
v 0.00126289 0.06987113 0.30118987
v 0.02499731 0.07374464 0.30499607
v 0.02499731 0.07482123 0.31495568
v 0.02499731 0.07596442 0.32497871
v 0.03180337 0.07931628 0.33493832
v 0.02412004 0.08178024 0.37433264
v 0.03015487 0.08989353 0.42051473
v 0.02219198 0.08909441 0.43497837
v 0.01054650 0.08979364 0.46155840
v 0.00767369 0.09021539 0.46821928
v 0.00499369 0.08823979 0.45496100
v -0.03835875 0.08077024 0.32497871
v -0.00100258 0.08990463 0.47062987
v -0.00459841 0.08949397 0.46492058
v -0.00459841 0.09074814 0.47437268
v -0.01499066 0.09338968 0.47494364
v -0.02880521 0.09054836 0.42717558
v -0.02322347 0.09771825 0.47494364
v -0.03281557 0.09738528 0.44493794
v -0.03408809 0.09366715 0.42432094
v -0.03584263 0.09303451 0.41499573
v -0.04035429 0.08971594 0.38143760
v -0.04106767 0.08914990 0.37496701
v -0.03499428 0.08597562 0.37496701
v -0.03499428 0.08456606 0.36494398
v -0.03499428 0.08324529 0.35498437
v -0.03680666 0.08139177 0.33493832
v -0.02840031 0.03433248 -0.14489861
v -0.04004580 0.07997112 0.31038821
v -0.04036393 0.07972694 0.30499607
v -0.04080738 0.07936068 0.29497305
v -0.04444177 0.08575364 0.32497871
v -0.04479847 0.08499891 0.30499607
v -0.04500091 0.08499891 0.29497305
v -0.04207990 0.08833968 0.36494398
v -0.04292825 0.08761825 0.35498437
v 0.02840034 0.03500951 -0.14489861
v 0.04924267 0.09499902 0.32497871
v 0.04500094 0.08499891 0.29497305
v 0.04479849 0.08499891 0.30499607
v 0.04444180 0.08575364 0.32497871
v 0.04081704 0.07934958 0.29497305
v 0.04036395 0.07972694 0.30499607
v 0.04004582 0.07997112 0.31038821
v 0.04292827 0.08761825 0.35498437
v 0.04207993 0.08832859 0.36494398
v 0.03835877 0.08077024 0.32497871
v 0.00100260 0.08990463 0.47062987
v 0.03680668 0.08139177 0.33493832
v 0.03499430 0.08324529 0.35498437
v 0.03499430 0.08456606 0.36494398
v 0.03499430 0.08597562 0.37496701
v 0.04106769 0.08914990 0.37496701
v 0.04035431 0.08971594 0.38150102
v 0.03584265 0.09302341 0.41499573
v 0.03408812 0.09366715 0.42432094
v 0.03281559 0.09738528 0.44493794
v 0.02322350 0.09771825 0.47494364
v 0.02881487 0.09054836 0.42717558
v 0.01499068 0.09338968 0.47494364
v 0.00459843 0.09074814 0.47437268
v 0.00459843 0.08949397 0.46492058
v -0.00499366 0.09363385 0.48496664
v -0.01561728 0.09691913 0.48560101
v -0.02164247 0.09878374 0.48268294
v -0.02718564 0.09131418 0.43497837
v -0.03032838 0.09960505 0.46130466
v -0.04008436 0.09988253 0.43034744
v -0.03549558 0.09698572 0.43421710
v -0.04066278 0.09917220 0.42495531
v -0.04157861 0.09802902 0.41499573
v -0.02840031 0.03500951 -0.14489861
v -0.04924265 0.09499902 0.32497871
v -0.04904984 0.09499902 0.31495568
v -0.04358379 0.08700781 0.34496135
v -0.04409473 0.08638628 0.33493832
v -0.04854855 0.09499902 0.34496135
v -0.04901128 0.09499902 0.33493832
v -0.04529976 0.09499902 0.37496701
v -0.04671689 0.09499902 0.36494398
v -0.04779660 0.09499902 0.35498437
v 0.02834250 0.03559776 -0.14489861
v 0.04904986 0.09499902 0.31495568
v 0.04757490 0.10499912 0.36494398
v 0.04738209 0.10499912 0.37496701
v 0.04901130 0.09499902 0.33493832
v 0.04854857 0.09499902 0.34496135
v 0.04409475 0.08638628 0.33493832
v 0.04358381 0.08700781 0.34496135
v 0.04779662 0.09499902 0.35498437
v 0.04671691 0.09499902 0.36494398
v 0.04529979 0.09499902 0.37496701
v 0.04157863 0.09802902 0.41499573
v 0.04066280 0.09917220 0.42495531
v 0.04008438 0.09988253 0.43034744
v 0.03549560 0.09697462 0.43421710
v 0.03032840 0.09960505 0.46136808
v 0.02164249 0.09877264 0.48268294
v 0.02719530 0.09130309 0.43497837
v 0.01561730 0.09691913 0.48560101
v 0.00499369 0.09363385 0.48496664
v -0.00499366 0.09786253 0.49340373
v -0.01269627 0.09876154 0.49194473
v -0.01936735 0.10045967 0.48940724
v -0.02822679 0.10279044 0.47494364
v -0.02931614 0.10098132 0.46802896
v -0.02504549 0.10493252 0.48496664
v -0.04255228 0.10499912 0.42495531
v -0.03027053 0.10939427 0.48052609
v -0.03915889 0.10210231 0.43700832
v -0.04035429 0.10877274 0.44157577
v -0.04087486 0.10526549 0.43421710
v -0.04401760 0.10499912 0.41499573
v -0.02580708 0.04424379 -0.14489861
v -0.04838466 0.09499902 0.30499607
v -0.04738207 0.10499912 0.37496701
v -0.04757487 0.10499912 0.36494398
v -0.04735315 0.10499912 0.35498437
v -0.04682293 0.10499912 0.34496135
v -0.04679401 0.10499912 0.38499004
v -0.04505876 0.10499912 0.40497267
v -0.04598422 0.10499912 0.39494964
v 0.02580710 0.04424379 -0.14489861
v 0.04838468 0.09499902 0.30499607
v 0.04682295 0.10499912 0.34496135
v 0.04735317 0.10499912 0.35498437
v 0.04315964 0.11302361 0.37496701
v 0.04314036 0.11333439 0.38499004
v 0.04299575 0.11361185 0.39494964
v 0.04275475 0.11387823 0.40497267
v 0.04243661 0.11405581 0.41499573
v 0.04679403 0.10499912 0.38499004
v 0.04598425 0.10499912 0.39494964
v 0.04505878 0.10499912 0.40497267
v 0.04401762 0.10499912 0.41499573
v 0.04255230 0.10499912 0.42495531
v 0.04087489 0.10525439 0.43421710
v 0.04035431 0.10877274 0.44157577
v 0.03915891 0.10210231 0.43700832
v 0.03027056 0.10939427 0.48052609
v 0.02931617 0.10098132 0.46802896
v 0.02822681 0.10279044 0.47494364
v 0.02504551 0.10493252 0.48496664
v 0.01936738 0.10045967 0.48940724
v 0.01269629 0.09875044 0.49194473
v 0.00499369 0.09786253 0.49340373
v 0.00499369 0.10198022 0.49835181
v -0.00499366 0.10199132 0.49835181
v -0.01167439 0.10835098 0.50076246
v -0.01552087 0.10441087 0.49543375
v -0.02177743 0.10713010 0.49226189
v -0.02281858 0.11499922 0.49353063
v -0.02782190 0.11499922 0.48591822
v -0.03046334 0.11499922 0.48090667
v -0.03198651 0.11499922 0.47494364
v -0.04035429 0.11102581 0.44157577
v -0.04101947 0.11250196 0.43497837
v -0.02556607 0.04477654 -0.14489861
v -0.04737243 0.09499902 0.29497305
v -0.04606135 0.10499912 0.33493832
v -0.04449962 0.10458846 0.31495568
v -0.04394048 0.10381153 0.30499607
v -0.04242695 0.11405581 0.41499573
v -0.04275472 0.11387823 0.40497267
v -0.04298609 0.11361185 0.39494964
v -0.04314034 0.11333439 0.38499004
v -0.04315962 0.11302361 0.37496701
v -0.04294753 0.11259076 0.36494398
v -0.04187746 0.11378944 0.42495531
v 0.02089054 0.05048137 -0.14489861
v 0.04317892 0.10296802 0.29497305
v 0.04394050 0.10381153 0.30499607
v 0.04737245 0.09499902 0.29497305
v 0.04449964 0.10458846 0.31495568
v 0.04606137 0.10499912 0.33493832
v 0.04294755 0.11259076 0.36494398
v 0.03866726 0.11888383 0.40497267
v 0.03905287 0.11905031 0.41499573
v 0.03908179 0.11878394 0.42495531
v 0.04187748 0.11378944 0.42495531
v 0.04102913 0.11251307 0.43497837
v 0.04035431 0.11102581 0.44157577
v 0.03198653 0.11499922 0.47494364
v 0.03046336 0.11499922 0.48090667
v 0.02782192 0.11499922 0.48591822
v 0.02281860 0.11499922 0.49353063
v 0.02177745 0.10713010 0.49226189
v 0.01552090 0.10441087 0.49543375
v 0.01167442 0.10835098 0.50076246
v 0.00499369 0.10698582 0.50139683
v -0.00499366 0.10698582 0.50139683
v -0.00499366 0.11499922 0.50310963
v -0.01276375 0.11499922 0.50126994
v -0.01776706 0.11499922 0.49854213
v -0.02154606 0.12499931 0.49194473
v -0.03033802 0.12064855 0.48071635
v -0.03093571 0.12159196 0.47494364
v -0.03867688 0.11750756 0.43497837
v -0.02089052 0.05048137 -0.14489861
v -0.04317890 0.10296802 0.29497305
v -0.04248479 0.11205801 0.35498437
v -0.04186781 0.11148087 0.34496135
v -0.04114479 0.11087043 0.33493832
v -0.04050853 0.11038208 0.32688183
v -0.03993012 0.10996032 0.32015753
v -0.03908177 0.11878394 0.42495531
v -0.03905285 0.11905031 0.41499573
v -0.03866724 0.11888383 0.40497267
v -0.03804062 0.11860636 0.39494964
v -0.03727903 0.11833999 0.38499004
v 0.02082306 0.05049247 -0.14489861
v 0.00081944 0.07015970 -0.05120227
v 0.00449239 0.06892772 -0.05469130
v 0.00783758 0.06954926 -0.04498546
v 0.00962103 0.06992662 -0.03933957
v 0.03112854 0.11043757 0.29693958
v 0.03914927 0.10958296 0.31495568
v 0.03993978 0.10996032 0.32015753
v 0.04050856 0.11038208 0.32681838
v 0.04114481 0.11087043 0.33493832
v 0.04186784 0.11148087 0.34496135
v 0.04248482 0.11205801 0.35498437
v 0.03727905 0.11833999 0.38499004
v 0.03804064 0.11860636 0.39494964
v 0.03366394 0.12214690 0.40497267
v 0.03404956 0.12253536 0.41499573
v 0.03407848 0.12289053 0.42495531
v 0.02238479 0.13171415 0.47494364
v 0.02747487 0.12746327 0.46498400
v 0.02738811 0.12658647 0.47494364
v 0.03172624 0.12246877 0.46498400
v 0.03867690 0.11750756 0.43497837
v 0.03093574 0.12159196 0.47494364
v 0.03033804 0.12064855 0.48071635
v 0.01776709 0.11499922 0.49854213
v 0.02154608 0.12499931 0.49194473
v 0.01277341 0.11499922 0.50126994
v 0.00499369 0.11499922 0.50317305
v -0.00499366 0.12320130 0.50171399
v -0.01202144 0.12182504 0.50095278
v -0.01521238 0.12509921 0.49682933
v -0.02008074 0.13006040 0.49010503
v -0.02116045 0.13089283 0.48496664
v -0.02738808 0.12658647 0.47494364
v -0.03172622 0.12246877 0.46498400
v -0.00962101 0.06992662 -0.03933957
v -0.00782791 0.06954926 -0.04498546
v -0.00449237 0.06892772 -0.05469130
v -0.00081941 0.07015970 -0.05120227
v -0.01499066 0.05096972 -0.14489861
v -0.03914925 0.10958296 0.31495568
v -0.03112852 0.11043757 0.29693958
v -0.03634392 0.11801812 0.37496701
v -0.03134061 0.12063745 0.37496701
v -0.03054046 0.12024899 0.36817926
v -0.03254564 0.11099252 0.30499607
v -0.02747485 0.12746327 0.46498400
v -0.02238477 0.13171415 0.47494364
v -0.03407845 0.12289053 0.42495531
v -0.03404953 0.12253536 0.41499573
v -0.03366392 0.12214690 0.40497267
v -0.03303730 0.12166965 0.39494964
v 0.01499068 0.05096972 -0.14489861
v 0.00499369 0.05099192 -0.14489861
v 0.00122433 0.12010471 0.32916555
v 0.00473340 0.12055976 0.33481145
v 0.01536665 0.12083723 0.34458071
v 0.01895284 0.11987163 0.34096482
v 0.02499731 0.11478834 0.31495568
v 0.02985602 0.10994922 0.29027870
v 0.02928725 0.11978284 0.36151838
v 0.03054048 0.12024899 0.36817926
v 0.03254567 0.11099252 0.30499607
v 0.03134063 0.12063745 0.37496701
v 0.03634395 0.11801812 0.37496701
v 0.03303732 0.12166965 0.39494964
v 0.02412004 0.12819579 0.42514563
v 0.02576854 0.12811810 0.43497837
v 0.02216306 0.13122579 0.45496100
v 0.02248119 0.13160315 0.46498400
v 0.01499068 0.13550997 0.47494364
v 0.02116047 0.13089283 0.48496664
v 0.02008076 0.13006040 0.49010503
v 0.01202147 0.12182504 0.50095278
v 0.01521241 0.12509921 0.49682933
v 0.00499369 0.12320130 0.50171399
v -0.00499366 0.12819579 0.49860561
v -0.01499066 0.13114810 0.49169093
v -0.01499066 0.13392283 0.48496664
v -0.01499066 0.13550997 0.47494364
v -0.02985600 0.10994922 0.29027870
v -0.02499729 0.11478834 0.31495568
v -0.01895282 0.11987163 0.34096482
v -0.00509971 0.05099192 -0.14489861
v -0.01536663 0.12083723 0.34458071
v -0.00473338 0.12055976 0.33481145
v -0.00122431 0.12010471 0.32916555
v -0.02928722 0.11978284 0.36151838
v -0.03227572 0.12117020 0.38499004
v -0.02412002 0.12819579 0.42514563
v -0.02019642 0.13007151 0.42857122
v -0.02557571 0.12133668 0.36488056
v -0.02247153 0.13160315 0.46498400
v -0.02216304 0.13122579 0.45496100
v -0.02576851 0.12811810 0.43497837
v 0.00499369 0.13587624 0.45496100
v 0.00499369 0.13709711 0.46498400
v 0.02019644 0.13007151 0.42857122
v 0.02091946 0.12028229 0.34762570
v 0.02499731 0.11616459 0.32497871
v 0.02557573 0.12133668 0.36488056
v 0.03228538 0.12117020 0.38499004
v 0.01499068 0.13499942 0.46498400
v 0.00499369 0.13779634 0.47494364
v 0.00499369 0.13632019 0.48496664
v 0.01499068 0.13392283 0.48496664
v 0.01499068 0.13114810 0.49169093
v 0.00499369 0.12819579 0.49860561
v -0.00499366 0.13238008 0.49359405
v -0.00499366 0.13632019 0.48496664
v -0.00499366 0.13778524 0.47494364
v -0.01499066 0.13499942 0.46498400
v -0.02499729 0.11616459 0.32497871
v -0.02091944 0.12028229 0.34762570
v -0.00499366 0.13709711 0.46498400
v -0.00499366 0.13587624 0.45496100
v -0.02265470 0.12079284 0.35498437
v 0.02265472 0.12079284 0.35498437
v 0.00499369 0.13238008 0.49359405
f 1 2 5
f 1 5 14
f 1 14 38
f 1 38 74
f 1 74 118
f 1 118 160
f 1 160 204
f 1 204 245
f 1 245 296
f 1 296 340
f 1 340 310
f 1 310 309
f 1 309 257
f 1 257 216
f 1 216 169
f 1 169 128
f 1 128 83
f 1 83 41
f 1 41 16
f 1 16 7
f 1 7 3
f 1 3 8
f 1 8 4
f 1 4 2
f 2 4 6
f 2 6 5
f 3 7 8
f 4 9 10
f 4 10 6
f 4 8 19
f 4 19 11
f 4 11 12
f 4 12 13
f 4 13 9
f 5 6 15
f 5 15 14
f 6 10 15
f 7 16 17
f 7 17 18
f 7 18 8
f 8 18 20
f 8 20 21
f 8 21 22
f 8 22 23
f 8 23 19
f 9 13 10
f 10 13 24
f 10 24 25
f 10 25 26
f 10 26 15
f 11 19 47
f 11 47 27
f 11 27 28
f 11 28 29
f 11 29 12
f 12 29 28
f 12 28 30
f 12 30 31
f 12 31 32
f 12 32 33
f 12 33 34
f 12 34 35
f 12 35 36
f 12 36 37
f 12 37 24
f 12 24 13
f 14 15 38
f 15 26 39
f 15 39 40
f 15 40 38
f 16 41 17
f 17 20 18
f 17 41 42
f 17 42 43
f 17 43 44
f 17 44 20
f 19 23 45
f 19 45 46
f 19 46 47
f 20 44 48
f 20 48 49
f 20 49 22
f 20 22 21
f 22 49 23
f 23 49 50
f 23 50 51
f 23 51 52
f 23 52 53
f 23 53 54
f 23 54 55
f 23 55 56
f 23 56 57
f 23 57 46
f 23 46 45
f 24 37 36
f 24 36 26
f 24 26 25
f 26 36 58
f 26 58 40
f 26 40 39
f 27 47 46
f 27 46 28
f 28 46 94
f 28 94 59
f 28 59 30
f 30 59 60
f 30 60 31
f 31 59 61
f 31 61 62
f 31 62 32
f 31 60 59
f 32 62 33
f 33 62 34
f 34 63 64
f 34 64 65
f 34 65 66
f 34 66 67
f 34 67 68
f 34 68 69
f 34 69 70
f 34 70 71
f 34 71 72
f 34 72 36
f 34 36 35
f 34 62 63
f 36 72 73
f 36 73 58
f 38 40 75
f 38 75 76
f 38 76 77
f 38 77 78
f 38 78 79
f 38 79 80
f 38 80 74
f 40 58 81
f 40 81 82
f 40 82 75
f 41 83 84
f 41 84 85
f 41 85 86
f 41 86 87
f 41 87 88
f 41 88 89
f 41 89 90
f 41 90 42
f 42 90 91
f 42 91 92
f 42 92 93
f 42 93 44
f 42 44 43
f 44 93 51
f 44 51 49
f 44 49 48
f 46 57 94
f 49 51 50
f 51 93 95
f 51 95 96
f 51 96 53
f 51 53 52
f 53 96 97
f 53 97 98
f 53 98 99
f 53 99 100
f 53 100 101
f 53 101 102
f 53 102 103
f 53 103 104
f 53 104 105
f 53 105 106
f 53 106 54
f 54 106 55
f 55 106 56
f 56 106 107
f 56 107 94
f 56 94 108
f 56 108 57
f 57 108 94
f 58 73 71
f 58 71 69
f 58 69 81
f 59 94 107
f 59 107 61
f 61 107 147
f 61 147 109
f 61 109 62
f 62 109 110
f 62 110 111
f 62 111 64
f 62 64 112
f 62 112 63
f 63 112 64
f 64 111 113
f 64 113 65
f 65 113 114
f 65 114 115
f 65 115 66
f 66 115 67
f 67 115 114
f 67 114 116
f 67 116 68
f 68 116 117
f 68 117 69
f 69 117 81
f 69 71 70
f 71 73 72
f 74 80 119
f 74 119 120
f 74 120 118
f 75 82 121
f 75 121 122
f 75 122 76
f 76 122 78
f 76 78 77
f 78 122 123
f 78 123 124
f 78 124 79
f 79 124 119
f 79 119 80
f 81 117 125
f 81 125 126
f 81 126 82
f 82 126 127
f 82 127 121
f 83 128 129
f 83 129 84
f 84 129 130
f 84 130 131
f 84 131 132
f 84 132 86
f 84 86 85
f 86 132 87
f 87 132 133
f 87 133 134
f 87 134 89
f 87 89 88
f 89 134 90
f 90 134 135
f 90 135 91
f 91 135 136
f 91 136 137
f 91 137 92
f 92 137 138
f 92 138 139
f 92 139 99
f 92 99 93
f 93 99 97
f 93 97 95
f 95 97 96
f 97 99 98
f 99 139 100
f 100 139 140
f 100 140 101
f 101 140 141
f 101 141 142
f 101 142 102
f 102 142 103
f 103 142 141
f 103 141 143
f 103 143 104
f 104 144 106
f 104 106 145
f 104 145 105
f 104 143 144
f 105 145 106
f 106 144 146
f 106 146 147
f 106 147 107
f 109 147 192
f 109 192 148
f 109 148 149
f 109 149 110
f 110 149 150
f 110 150 111
f 111 151 152
f 111 152 113
f 111 150 153
f 111 153 151
f 113 152 114
f 114 154 116
f 114 152 155
f 114 155 156
f 114 156 157
f 114 157 158
f 114 158 154
f 116 154 159
f 116 159 117
f 117 159 126
f 117 126 125
f 118 120 161
f 118 161 160
f 119 124 162
f 119 162 163
f 119 163 120
f 120 163 164
f 120 164 165
f 120 165 161
f 121 127 122
f 122 127 123
f 123 127 166
f 123 166 162
f 123 162 124
f 126 159 127
f 127 159 167
f 127 167 168
f 127 168 166
f 128 169 170
f 128 170 129
f 129 170 171
f 129 171 172
f 129 172 130
f 130 173 174
f 130 174 175
f 130 175 176
f 130 176 131
f 130 172 173
f 131 176 177
f 131 177 178
f 131 178 133
f 131 133 132
f 133 136 134
f 133 178 136
f 134 136 135
f 136 178 179
f 136 179 180
f 136 180 181
f 136 181 137
f 137 181 139
f 137 139 138
f 139 181 140
f 140 181 182
f 140 182 141
f 141 182 183
f 141 183 184
f 141 184 185
f 141 185 186
f 141 186 187
f 141 187 143
f 143 187 144
f 144 187 188
f 144 188 189
f 144 189 190
f 144 190 146
f 146 190 191
f 146 191 147
f 147 191 192
f 148 192 193
f 148 193 194
f 148 194 149
f 149 194 195
f 149 195 196
f 149 196 150
f 150 196 197
f 150 197 153
f 151 153 155
f 151 155 152
f 153 197 155
f 154 158 157
f 154 157 159
f 155 197 198
f 155 198 199
f 155 199 200
f 155 200 157
f 155 157 156
f 157 200 201
f 157 201 202
f 157 202 159
f 159 202 203
f 159 203 167
f 160 161 205
f 160 205 204
f 161 165 206
f 161 206 207
f 161 207 208
f 161 208 205
f 162 166 209
f 162 209 210
f 162 210 163
f 163 210 211
f 163 211 212
f 163 212 213
f 163 213 164
f 164 213 214
f 164 214 165
f 165 214 206
f 166 168 215
f 166 215 209
f 167 203 215
f 167 215 168
f 169 216 217
f 169 217 218
f 169 218 219
f 169 219 170
f 170 219 218
f 170 218 220
f 170 220 221
f 170 221 171
f 171 221 222
f 171 222 172
f 172 222 173
f 173 222 223
f 173 223 224
f 173 224 174
f 174 224 175
f 175 224 176
f 176 224 225
f 176 225 177
f 177 225 226
f 177 226 178
f 178 226 179
f 179 226 180
f 180 226 227
f 180 227 181
f 181 227 228
f 181 228 184
f 181 184 182
f 182 184 183
f 184 228 229
f 184 229 230
f 184 230 186
f 184 186 185
f 186 230 231
f 186 231 232
f 186 232 233
f 186 233 189
f 186 189 188
f 186 188 187
f 189 233 190
f 190 233 234
f 190 234 191
f 191 234 235
f 191 235 193
f 191 193 192
f 193 235 236
f 193 236 237
f 193 237 194
f 194 237 195
f 195 237 238
f 195 238 239
f 195 239 240
f 195 240 197
f 195 197 196
f 197 240 198
f 198 240 241
f 198 241 242
f 198 242 199
f 199 242 200
f 200 242 201
f 201 242 202
f 202 242 203
f 203 242 243
f 203 243 244
f 203 244 215
f 204 205 208
f 204 208 246
f 204 246 245
f 206 214 247
f 206 247 207
f 207 247 248
f 207 248 249
f 207 249 208
f 208 249 250
f 208 250 251
f 208 251 246
f 209 215 252
f 209 252 210
f 210 252 253
f 210 253 211
f 211 253 212
f 212 253 213
f 213 253 254
f 213 254 214
f 214 254 255
f 214 255 256
f 214 256 247
f 215 244 252
f 216 257 258
f 216 258 259
f 216 259 260
f 216 260 261
f 216 261 262
f 216 262 263
f 216 263 264
f 216 264 217
f 217 264 218
f 218 264 265
f 218 265 266
f 218 266 220
f 220 266 267
f 220 267 268
f 220 268 221
f 221 268 222
f 222 269 270
f 222 270 223
f 222 268 269
f 223 271 272
f 223 272 224
f 223 270 271
f 224 272 273
f 224 273 274
f 224 274 225
f 225 274 275
f 225 275 276
f 225 276 277
f 225 277 278
f 225 278 226
f 226 278 227
f 227 278 279
f 227 279 280
f 227 280 228
f 228 280 229
f 229 280 230
f 230 280 231
f 231 280 232
f 232 281 233
f 232 280 282
f 232 282 281
f 233 281 235
f 233 235 234
f 235 283 284
f 235 284 236
f 235 281 283
f 236 284 237
f 237 284 238
f 238 284 285
f 238 285 286
f 238 286 239
f 239 286 240
f 240 286 241
f 241 286 287
f 241 287 288
f 241 288 242
f 242 288 289
f 242 289 290
f 242 290 243
f 243 290 291
f 243 291 244
f 244 291 252
f 245 292 293
f 245 293 294
f 245 294 295
f 245 295 296
f 245 246 251
f 245 251 297
f 245 297 298
f 245 298 292
f 247 256 299
f 247 299 248
f 248 299 249
f 249 299 250
f 250 299 251
f 251 299 300
f 251 300 301
f 251 301 302
f 251 302 297
f 252 291 290
f 252 290 303
f 252 303 304
f 252 304 253
f 253 304 305
f 253 305 306
f 253 306 254
f 254 306 307
f 254 307 255
f 255 307 256
f 256 307 308
f 256 308 299
f 257 309 258
f 258 309 310
f 258 310 340
f 258 340 295
f 258 295 343
f 258 343 311
f 258 311 312
f 258 312 313
f 258 313 314
f 258 314 259
f 259 314 260
f 260 314 261
f 261 314 315
f 261 315 316
f 261 316 262
f 262 316 317
f 262 317 318
f 262 318 319
f 262 319 263
f 263 319 264
f 264 319 318
f 264 318 320
f 264 320 321
f 264 321 265
f 265 321 266
f 266 321 267
f 267 321 268
f 268 321 269
f 269 322 271
f 269 271 270
f 269 321 322
f 271 323 324
f 271 324 325
f 271 325 272
f 271 322 323
f 272 325 326
f 272 326 273
f 273 326 274
f 274 326 327
f 274 327 328
f 274 328 276
f 274 276 275
f 276 328 280
f 276 280 279
f 276 279 277
f 277 279 278
f 280 328 329
f 280 329 282
f 281 330 283
f 281 282 330
f 282 329 331
f 282 331 330
f 283 330 284
f 284 330 332
f 284 332 285
f 285 333 286
f 285 332 364
f 285 364 333
f 286 333 287
f 287 333 334
f 287 334 288
f 288 334 335
f 288 335 289
f 289 335 336
f 289 336 304
f 289 304 290
f 290 304 303
f 292 298 337
f 292 337 338
f 292 338 339
f 292 339 293
f 293 339 294
f 294 339 295
f 295 340 296
f 295 339 341
f 295 341 342
f 295 342 343
f 297 302 298
f 298 302 301
f 298 301 344
f 298 344 337
f 299 308 345
f 299 345 300
f 300 345 346
f 300 346 347
f 300 347 301
f 301 347 348
f 301 348 344
f 304 336 349
f 304 349 305
f 305 349 306
f 306 349 350
f 306 350 307
f 307 350 351
f 307 351 346
f 307 346 308
f 308 346 345
f 311 343 372
f 311 372 352
f 311 352 312
f 312 352 313
f 313 352 314
f 314 352 353
f 314 353 354
f 314 354 355
f 314 355 356
f 314 356 315
f 315 356 316
f 316 356 317
f 317 356 357
f 317 357 318
f 318 354 320
f 318 357 354
f 320 358 321
f 320 354 323
f 320 323 358
f 321 358 322
f 322 358 323
f 323 354 359
f 323 359 325
f 323 325 324
f 325 359 326
f 326 359 327
f 327 359 360
f 327 360 361
f 327 361 362
f 327 362 328
f 328 362 329
f 329 362 363
f 329 363 331
f 330 364 332
f 330 331 364
f 331 363 364
f 333 365 334
f 333 364 375
f 333 375 365
f 334 366 335
f 334 365 366
f 335 366 336
f 336 367 368
f 336 368 349
f 336 366 367
f 337 344 369
f 337 369 338
f 338 369 339
f 339 369 370
f 339 370 347
f 339 347 371
f 339 371 372
f 339 372 341
f 341 372 342
f 342 372 343
f 344 348 369
f 346 351 350
f 346 350 368
f 346 368 347
f 347 368 371
f 347 370 373
f 347 373 348
f 348 373 370
f 348 370 369
f 349 368 350
f 352 372 371
f 352 371 353
f 353 371 360
f 353 360 359
f 353 359 354
f 354 357 374
f 354 374 355
f 355 374 357
f 355 357 356
f 360 371 367
f 360 367 366
f 360 366 361
f 361 366 365
f 361 365 375
f 361 375 363
f 361 363 362
f 363 375 364
f 367 371 368

