# https://github.com/mikedh/trimesh
v 0.15299734 -0.11498795 -0.46497795
v 0.15123016 -0.12180503 -0.46497795
v 0.15105045 -0.12255235 -0.47497165
v 0.15257800 -0.11498795 -0.47497165
v 0.15290749 -0.10499928 -0.46497795
v 0.15296739 -0.10499928 -0.45498425
v 0.15164948 -0.10499928 -0.44499052
v 0.15078086 -0.11136068 -0.44499052
v 0.15164948 -0.11500617 -0.45522970
v 0.15063110 -0.12062024 -0.45873624
v 0.14218453 -0.13088232 -0.47823274
v 0.14233428 -0.13128331 -0.48496538
v 0.14733633 -0.12497661 -0.48475498
v 0.15039149 -0.12164098 -0.48128349
v 0.15099055 -0.11498795 -0.48251078
v 0.15087071 -0.10848073 -0.48209000
v 0.15146977 -0.10509042 -0.47451580
v 0.15114030 -0.09838270 -0.46497795
v 0.15114030 -0.09497416 -0.45414266
v 0.15024173 -0.08952415 -0.44499052
v 0.15024173 -0.08946946 -0.43741634
v 0.14991224 -0.09147449 -0.43071878
v 0.15045139 -0.09488302 -0.43443576
v 0.15009195 -0.09814575 -0.42952657
v 0.15009195 -0.10020545 -0.42952657
v 0.15012190 -0.11013944 -0.43969560
v 0.14497009 -0.12107593 -0.45782453
v 0.14053714 -0.08046509 -0.37910214
v 0.13499597 -0.13131978 -0.47735614
v 0.12499186 -0.13505641 -0.48496538
v 0.13499597 -0.13376226 -0.48496538
v 0.14089659 -0.13082764 -0.49078625
v 0.14251399 -0.12499484 -0.49253955
v 0.14805520 -0.11498795 -0.48752517
v 0.15045139 -0.09953104 -0.47090405
v 0.14305314 -0.11498795 -0.49264473
v 0.14161542 -0.10942856 -0.49092653
v 0.15009195 -0.08988869 -0.45021528
v 0.14038739 -0.04931431 -0.36497068
v 0.13050309 -0.00912270 -0.28502101
v 0.14026758 -0.04935076 -0.35697573
v 0.13023353 -0.00937789 -0.27502728
v 0.12999392 -0.00994294 -0.26994276
v 0.14556915 -0.07499684 -0.39498690
v 0.14011782 -0.05731618 -0.34943661
v 0.13074273 -0.01501018 -0.27502728
v 0.14011782 -0.06026903 -0.34943661
v 0.13014367 -0.02029615 -0.26948690
v 0.13966852 -0.06971087 -0.36013162
v 0.13020357 -0.04020057 -0.29967844
v 0.01497672 0.02445233 -0.14489864
v 0.11498776 -0.13520223 -0.48496538
v 0.11498776 -0.13456427 -0.49499416
v 0.13499597 -0.13241342 -0.49257463
v 0.12750787 -0.12858565 -0.49927217
v 0.13523558 -0.12514065 -0.49758899
v 0.13206062 -0.12191439 -0.50088519
v 0.14497009 -0.09916648 -0.47160536
v 0.13499597 -0.05879260 -0.39239204
v 0.14077675 -0.05924829 -0.39148033
v 0.13206062 -0.11848762 -0.50088519
v 0.12499186 -0.11730283 -0.50193715
v 0.12499186 -0.11229028 -0.49664223
v 0.13499597 -0.10913692 -0.49152264
v 0.14020768 -0.04973354 -0.37061626
v 0.13035333 -0.00959662 -0.29101723
v 0.12031928 0.02033292 -0.23123029
v 0.12217633 0.01559377 -0.23473686
v 0.12618995 0.00498537 -0.24501109
v 0.12535128 0.00498537 -0.23501737
v 0.13011372 -0.01501018 -0.26955706
v 0.12163719 -0.00163120 -0.22740813
v 0.13098234 -0.03137846 -0.28730026
v 0.11998980 -0.01001585 -0.23999670
v 0.01506658 0.02447056 -0.14489864
v 0.00509244 0.02439765 -0.14489864
v 0.10498366 -0.13522045 -0.48496538
v 0.10498366 -0.13463718 -0.49499416
v 0.10498366 -0.13075472 -0.50039423
v 0.11498776 -0.13068181 -0.50035918
v 0.12082847 -0.13040841 -0.50021893
v 0.12448267 -0.13323367 -0.49555519
v 0.12448267 -0.12514065 -0.50169170
v 0.11498776 -0.12499484 -0.50298911
v 0.13499597 -0.10574661 -0.48496538
v 0.13499597 -0.10159074 -0.47686520
v 0.13499597 -0.09147449 -0.45708817
v 0.13499597 -0.08529536 -0.44499052
v 0.13499597 -0.07129666 -0.41739386
v 0.13499597 -0.06878126 -0.41237944
v 0.12499186 -0.01856454 -0.31293327
v 0.13095239 -0.01911136 -0.31184623
v 0.11498776 -0.11684715 -0.50260341
v 0.11498776 -0.11185282 -0.49664223
v 0.12499186 -0.10913692 -0.49162784
v 0.12154733 0.01109158 -0.25219953
v 0.11498776 0.01905699 -0.23747197
v 0.11498776 0.02095266 -0.23249266
v 0.10168890 0.03059500 -0.21138312
v 0.10159904 0.03081372 -0.20500118
v 0.12031928 0.02033292 -0.22884582
v 0.12100819 0.01419026 -0.22530419
v 0.12004972 0.01030780 -0.21986902
v 0.12178695 0.00575093 -0.22446261
v 0.12004972 0.00957870 -0.21986902
v 0.11184276 0.00841214 -0.20801681
v 0.10010142 0.00994325 -0.19995171
v 0.11498776 -0.00245144 -0.22565484
v 0.02504073 0.02749632 -0.14489864
v -0.00497157 0.02439765 -0.14489864
v -0.10498260 -0.13522045 -0.48496538
v -0.10498260 -0.13463718 -0.49499416
v -0.10498260 -0.13075472 -0.50039423
v 0.10498366 -0.12499484 -0.50309432
v 0.03498492 -0.00010009 -0.27986634
v 0.08497546 0.00956047 -0.25910747
v 0.11498776 0.01169309 -0.25339177
v 0.11498776 0.01575782 -0.24501109
v 0.10498366 -0.11682892 -0.50267351
v 0.10498366 -0.11181636 -0.49664223
v -0.12499080 -0.10913692 -0.49162784
v 0.02498082 -0.00272485 -0.28502101
v 0.10498366 0.02507207 -0.22502366
v 0.09497956 0.03090486 -0.21204937
v 0.07212589 0.04027379 -0.19065931
v 0.07212589 0.04027379 -0.18809953
v 0.10043090 0.03046740 -0.19956601
v 0.11277128 0.02328577 -0.21502995
v 0.11100409 0.02195516 -0.20878826
v 0.11933085 0.01697906 -0.22218335
v 0.11732405 0.01419026 -0.21590659
v 0.11214228 0.01499227 -0.20759603
v 0.09129541 0.01874713 -0.18915150
v 0.02839540 0.03498782 -0.14489864
v -0.01497567 0.02445233 -0.14489864
v -0.11498670 -0.13520223 -0.48496538
v -0.11498670 -0.13456427 -0.49499416
v -0.11498670 -0.13068181 -0.50035918
v -0.10498260 -0.12499484 -0.50309432
v 0.09497956 -0.11681069 -0.50267351
v 0.02498082 -0.00008187 -0.27986634
v 0.03498492 0.00241530 -0.27485195
v 0.07497136 0.00959693 -0.25928280
v 0.08497546 0.01191182 -0.25412816
v 0.10498366 0.01595832 -0.24501109
v 0.10498366 0.01914813 -0.23817328
v 0.10498366 0.02140834 -0.23315889
v -0.10498260 -0.11181636 -0.49664223
v -0.11498670 -0.11185282 -0.49664223
v -0.13499489 -0.10913692 -0.49152264
v -0.13499489 -0.10574661 -0.48496538
v -0.03498386 -0.00010009 -0.27986634
v -0.02497976 -0.00272485 -0.28502101
v 0.07497136 0.03092309 -0.21208444
v 0.06499722 0.03817763 -0.19598930
v 0.09497956 0.02866288 -0.21706375
v 0.06499722 0.04041961 -0.19097491
v 0.05499312 0.04293501 -0.18501376
v 0.03498492 0.04714555 -0.17502004
v 0.03010268 0.05002549 -0.16029246
v 0.03010268 0.05002549 -0.15987167
v 0.02087734 0.05046295 -0.14489864
v 0.06296045 0.04154971 -0.17814088
v 0.09476990 0.02545484 -0.19293858
v 0.10153913 0.02499916 -0.19837376
v 0.02578954 0.04422916 -0.14489864
v 0.09129541 0.02242908 -0.18915150
v 0.02833549 0.03558932 -0.14489864
v -0.02503967 0.02751455 -0.14489864
v -0.10010036 0.00994325 -0.19995171
v -0.11498670 -0.00245144 -0.22565484
v -0.11998875 -0.01001585 -0.23999670
v -0.13023245 -0.04020057 -0.29967844
v -0.14053610 -0.08046509 -0.37910214
v -0.14499900 -0.12107593 -0.45782453
v -0.13499489 -0.13131978 -0.47735614
v -0.12499080 -0.13505641 -0.48496538
v -0.12448161 -0.13323367 -0.49555519
v -0.12082741 -0.13040841 -0.50021893
v -0.13499489 -0.13241342 -0.49257463
v -0.11498670 -0.12499484 -0.50298911
v -0.11498670 -0.11684715 -0.50260341
v -0.10498260 -0.11682892 -0.50267351
v -0.09497850 -0.11681069 -0.50267351
v -0.02497976 -0.00008187 -0.27986634
v 0.02498082 0.00241530 -0.27488703
v 0.02498082 0.00709976 -0.26503357
v 0.03498492 0.00708153 -0.26503357
v 0.07497136 0.01191182 -0.25426841
v -0.12499080 -0.11230850 -0.49664223
v -0.14161438 -0.10942856 -0.49092653
v -0.14499900 -0.09916648 -0.47160536
v -0.13499489 -0.10159074 -0.47686520
v -0.08497440 0.00956047 -0.25910747
v -0.03498386 0.00241530 -0.27485195
v -0.13499489 -0.09147449 -0.45708817
v -0.13499489 -0.08529536 -0.44499052
v -0.13499489 -0.07129666 -0.41739386
v 0.00497263 0.01918459 -0.23820835
v 0.00497263 0.03413112 -0.20500118
v 0.04498902 0.04311728 -0.18501376
v -0.03498386 0.04714555 -0.17502004
v -0.03010162 0.05002549 -0.16029246
v 0.00497263 0.05099155 -0.14489864
v 0.01497672 0.05095509 -0.14489864
v 0.02081744 0.05048119 -0.14489864
v -0.02839434 0.03431340 -0.14489864
v -0.09129436 0.01874713 -0.18915150
v -0.11184170 0.00841214 -0.20801681
v -0.12163613 -0.00163120 -0.22740813
v -0.13098127 -0.03137846 -0.28730026
v -0.13966748 -0.06971087 -0.36013162
v -0.15012085 -0.11013944 -0.43969560
v -0.15063006 -0.12062024 -0.45873624
v -0.14218348 -0.13088232 -0.47823274
v -0.13499489 -0.13376226 -0.48496538
v -0.12750679 -0.12858565 -0.49927217
v -0.12448161 -0.12514065 -0.50169170
v -0.14089552 -0.13082764 -0.49078625
v -0.12499080 -0.11730283 -0.50193715
v -0.13205957 -0.12191439 -0.50088519
v -0.02497976 0.00241530 -0.27488703
v -0.02497976 0.00709976 -0.26503357
v -0.13205957 -0.11848762 -0.50088519
v -0.14305210 -0.11498795 -0.49264473
v -0.15086967 -0.10848073 -0.48209000
v -0.15045032 -0.09953104 -0.47090405
v -0.13499489 -0.05879260 -0.39239204
v -0.13499489 -0.06878126 -0.41237944
v -0.11498670 0.01169309 -0.25339177
v -0.11498670 0.01575782 -0.24501109
v -0.10498260 0.01595832 -0.24501109
v -0.08497440 0.01191182 -0.25412816
v -0.07497030 0.00959693 -0.25928280
v -0.03498386 0.00708153 -0.26503357
v -0.00497157 0.01918459 -0.23820835
v -0.00497157 0.03413112 -0.20500118
v -0.04498796 0.04311728 -0.18501376
v -0.05499206 0.04293501 -0.18501376
v -0.07212483 0.04027379 -0.19065931
v -0.03010162 0.05002549 -0.15987167
v -0.01497567 0.05095509 -0.14489864
v -0.00497157 0.05099155 -0.14489864
v -0.02839434 0.03498782 -0.14489864
v -0.09129436 0.02242908 -0.18915150
v -0.11214122 0.01499227 -0.20759603
v -0.12004866 0.00957870 -0.21986902
v -0.12178589 0.00575093 -0.22446261
v -0.12535024 0.00498537 -0.23501737
v -0.13014260 -0.02029615 -0.26948690
v -0.15009090 -0.10020545 -0.42952657
v -0.15077981 -0.11136068 -0.44499052
v -0.14011675 -0.06026903 -0.34943661
v -0.15164843 -0.11500617 -0.45522970
v -0.15122908 -0.12180503 -0.46497795
v -0.14233324 -0.13128331 -0.48496538
v -0.13523450 -0.12514065 -0.49758899
v -0.14251295 -0.12499484 -0.49253955
v -0.14733529 -0.12497661 -0.48475498
v -0.07497030 0.01191182 -0.25426841
v -0.10498260 0.01914813 -0.23817328
v -0.10498260 0.02140834 -0.23315889
v -0.07497030 0.03092309 -0.21208444
v -0.06499616 0.03817763 -0.19598930
v -0.14805415 -0.11498795 -0.48752517
v -0.15095952 -0.11498795 -0.48251078
v -0.15257695 -0.11498795 -0.47497165
v -0.15290642 -0.10499928 -0.46497795
v -0.15146872 -0.10509042 -0.47451580
v -0.15113923 -0.09838270 -0.46497795
v -0.15009090 -0.08988869 -0.45021528
v -0.14077571 -0.05924829 -0.39148033
v -0.12499080 -0.01856454 -0.31293327
v -0.13095132 -0.01911136 -0.31184623
v -0.12154628 0.01109158 -0.25219953
v -0.11498670 0.01905699 -0.23747197
v -0.10498260 0.02507207 -0.22502366
v -0.06499616 0.04041961 -0.19097491
v -0.07212483 0.04027379 -0.18809953
v -0.09497850 0.03090486 -0.21204937
v -0.10168784 0.03059500 -0.21138312
v -0.10159798 0.03081372 -0.20500118
v -0.02087629 0.05046295 -0.14489864
v -0.02578848 0.04422916 -0.14489864
v -0.09476884 0.02545484 -0.19293858
v -0.10153808 0.02499916 -0.19837376
v -0.11100303 0.02195516 -0.20878826
v -0.11732299 0.01419026 -0.21590659
v -0.12004866 0.01030780 -0.21986902
v -0.12100713 0.01419026 -0.22530419
v -0.12031823 0.02033292 -0.22884582
v -0.12618890 0.00498537 -0.24501109
v -0.12999284 -0.00996117 -0.26994276
v -0.13011265 -0.01501018 -0.26955706
v -0.14011675 -0.05731618 -0.34943661
v -0.15009090 -0.09814575 -0.42952657
v -0.15296632 -0.10499928 -0.45498425
v -0.15164843 -0.10499928 -0.44499052
v -0.15299627 -0.11498795 -0.46497795
v -0.15104938 -0.12255235 -0.47497165
v -0.15039042 -0.12164098 -0.48128349
v -0.09497850 0.02866288 -0.21706375
v -0.15024066 -0.08952415 -0.44499052
v -0.15113923 -0.09497416 -0.45414266
v -0.14038631 -0.04931431 -0.36497068
v -0.13035229 -0.00959662 -0.29101723
v -0.14020661 -0.04973354 -0.37061626
v -0.12031823 0.02033292 -0.23123029
v -0.11498670 0.02095266 -0.23249266
v -0.10042984 0.03046740 -0.19956601
v -0.06295940 0.04154971 -0.17814088
v -0.02554886 0.04475775 -0.14489864
v -0.11277022 0.02328577 -0.21502995
v -0.11932980 0.01697906 -0.22218335
v -0.12217528 0.01559377 -0.23473686
v -0.13050205 -0.00912270 -0.28502101
v -0.13023245 -0.00939611 -0.27502728
v -0.13074166 -0.01501018 -0.27502728
v -0.15024066 -0.08946946 -0.43741634
v -0.14991120 -0.09147449 -0.43075386
v -0.15045032 -0.09488302 -0.43443576
v -0.14556810 -0.07499684 -0.39498690
v -0.14026651 -0.04935076 -0.35697573
f 1 2 3
f 1 3 4
f 1 4 5
f 1 5 6
f 1 6 7
f 1 7 8
f 1 8 9
f 1 9 2
f 2 9 10
f 2 10 11
f 2 11 12
f 2 12 3
f 3 12 13
f 3 13 14
f 3 14 4
f 4 14 15
f 4 15 16
f 4 16 5
f 5 16 17
f 5 17 18
f 5 18 19
f 5 19 20
f 5 20 6
f 6 20 21
f 6 21 22
f 6 22 23
f 6 23 24
f 6 24 25
f 6 25 7
f 7 25 8
f 8 25 26
f 8 26 10
f 8 10 9
f 10 27 11
f 10 26 28
f 10 28 27
f 11 29 30
f 11 30 31
f 11 31 12
f 11 27 29
f 12 31 32
f 12 32 13
f 13 32 33
f 13 33 14
f 14 33 34
f 14 34 15
f 15 34 16
f 16 35 17
f 16 34 36
f 16 36 37
f 16 37 35
f 17 35 18
f 18 38 19
f 18 35 38
f 19 38 20
f 20 38 39
f 20 39 21
f 21 39 40
f 21 40 41
f 21 41 42
f 21 42 43
f 21 43 22
f 22 43 23
f 23 43 44
f 23 44 24
f 24 45 47
f 24 47 25
f 24 44 46
f 24 46 45
f 25 47 26
f 26 47 48
f 26 48 49
f 26 49 50
f 26 50 28
f 27 28 51
f 27 51 29
f 28 50 51
f 29 52 30
f 29 51 52
f 30 52 53
f 30 53 54
f 30 54 31
f 31 54 32
f 32 54 55
f 32 55 56
f 32 56 33
f 33 36 34
f 33 56 57
f 33 57 36
f 35 37 58
f 35 58 59
f 35 59 60
f 35 60 38
f 36 57 61
f 36 61 37
f 37 61 62
f 37 62 63
f 37 63 64
f 37 64 58
f 38 60 65
f 38 65 66
f 38 66 39
f 39 66 40
f 40 66 67
f 40 67 68
f 40 68 69
f 40 69 42
f 40 42 41
f 42 69 43
f 43 69 70
f 43 70 71
f 43 71 46
f 43 46 44
f 45 46 71
f 45 71 48
f 45 48 47
f 48 71 70
f 48 70 72
f 48 72 73
f 48 73 49
f 49 73 50
f 50 73 72
f 50 72 74
f 50 74 51
f 51 74 75
f 51 75 109
f 51 109 134
f 51 134 168
f 51 168 166
f 51 166 162
f 51 162 206
f 51 206 205
f 51 205 204
f 51 204 243
f 51 243 242
f 51 242 283
f 51 283 312
f 51 312 284
f 51 284 244
f 51 244 207
f 51 207 169
f 51 169 135
f 51 135 110
f 51 110 76
f 51 76 52
f 52 77 78
f 52 78 53
f 52 76 77
f 53 78 79
f 53 79 80
f 53 80 81
f 53 81 82
f 53 82 54
f 54 82 81
f 54 81 55
f 55 81 83
f 55 83 57
f 55 57 56
f 57 83 84
f 57 84 62
f 57 62 61
f 58 64 85
f 58 85 86
f 58 86 87
f 58 87 88
f 58 88 89
f 58 89 90
f 58 90 59
f 59 90 91
f 59 91 60
f 60 91 92
f 60 92 66
f 60 66 65
f 62 84 93
f 62 93 63
f 63 94 64
f 63 93 94
f 64 94 95
f 64 95 85
f 66 92 96
f 66 96 67
f 67 96 97
f 67 97 98
f 67 98 99
f 67 99 100
f 67 100 101
f 67 101 68
f 68 101 69
f 69 101 70
f 70 101 102
f 70 102 103
f 70 103 104
f 70 104 72
f 72 104 105
f 72 105 106
f 72 106 107
f 72 107 108
f 72 108 74
f 74 108 75
f 75 108 107
f 75 107 109
f 76 110 111
f 76 111 77
f 77 111 112
f 77 112 78
f 78 112 113
f 78 113 79
f 79 113 139
f 79 139 114
f 79 114 80
f 80 114 84
f 80 84 81
f 81 84 83
f 84 114 93
f 85 95 115
f 85 115 86
f 86 115 87
f 87 115 88
f 88 115 89
f 89 115 116
f 89 116 117
f 89 117 90
f 90 117 91
f 91 117 118
f 91 118 92
f 92 118 96
f 93 114 119
f 93 119 94
f 94 119 120
f 94 120 95
f 95 120 148
f 95 148 121
f 95 121 153
f 95 153 122
f 95 122 115
f 96 118 97
f 97 123 98
f 97 118 123
f 98 123 99
f 99 124 125
f 99 125 100
f 99 123 124
f 100 125 126
f 100 126 127
f 100 127 101
f 101 128 129
f 101 129 130
f 101 130 102
f 101 127 128
f 102 130 103
f 103 105 104
f 103 130 131
f 103 131 132
f 103 132 105
f 105 132 106
f 106 132 133
f 106 133 107
f 107 133 109
f 109 133 134
f 110 135 136
f 110 136 111
f 111 136 112
f 112 136 137
f 112 137 113
f 113 138 139
f 113 137 138
f 114 139 184
f 114 184 140
f 114 140 119
f 115 122 141
f 115 141 142
f 115 142 116
f 116 142 143
f 116 143 144
f 116 144 145
f 116 145 118
f 116 118 117
f 118 145 146
f 118 146 147
f 118 147 123
f 119 140 120
f 120 140 184
f 120 184 148
f 121 148 149
f 121 149 150
f 121 150 151
f 121 151 152
f 121 152 153
f 122 153 185
f 122 185 141
f 123 147 154
f 123 154 155
f 123 155 156
f 123 156 124
f 124 157 125
f 124 156 155
f 124 155 157
f 125 157 158
f 125 158 159
f 125 159 160
f 125 160 161
f 125 161 126
f 126 161 162
f 126 162 163
f 126 163 127
f 127 164 165
f 127 165 129
f 127 129 128
f 127 163 162
f 127 162 166
f 127 166 164
f 129 165 132
f 129 132 131
f 129 131 130
f 132 165 167
f 132 167 133
f 133 167 134
f 134 167 168
f 135 169 170
f 135 170 171
f 135 171 172
f 135 172 173
f 135 173 174
f 135 174 175
f 135 175 176
f 135 176 136
f 136 176 177
f 136 177 137
f 137 178 179
f 137 179 138
f 137 177 180
f 137 180 178
f 138 179 181
f 138 181 139
f 139 181 182
f 139 182 183
f 139 183 184
f 141 185 222
f 141 222 186
f 141 186 142
f 142 186 187
f 142 187 188
f 142 188 143
f 143 189 146
f 143 146 144
f 143 188 189
f 144 146 145
f 146 189 187
f 146 187 147
f 147 187 154
f 148 184 183
f 148 183 149
f 149 190 150
f 149 183 182
f 149 182 190
f 150 191 192
f 150 192 151
f 150 190 191
f 151 192 193
f 151 193 152
f 152 194 195
f 152 195 185
f 152 185 153
f 152 193 196
f 152 196 197
f 152 197 198
f 152 198 194
f 154 187 155
f 155 199 200
f 155 200 201
f 155 201 157
f 155 187 199
f 157 201 158
f 158 201 159
f 159 201 238
f 159 238 202
f 159 202 203
f 159 203 160
f 160 203 243
f 160 243 204
f 160 204 205
f 160 205 161
f 161 205 206
f 161 206 162
f 164 167 165
f 164 166 167
f 166 168 167
f 169 207 208
f 169 208 170
f 170 208 209
f 170 209 210
f 170 210 171
f 171 210 172
f 172 210 173
f 173 210 211
f 173 211 212
f 173 212 213
f 173 213 174
f 174 213 214
f 174 214 175
f 175 214 215
f 175 215 176
f 176 215 177
f 177 215 216
f 177 216 180
f 178 180 179
f 179 180 217
f 179 217 218
f 179 218 181
f 180 216 219
f 180 219 217
f 181 220 182
f 181 218 221
f 181 221 220
f 182 220 190
f 185 195 222
f 186 222 223
f 186 223 187
f 187 223 236
f 187 236 199
f 187 189 188
f 190 220 191
f 191 220 224
f 191 224 225
f 191 225 226
f 191 226 227
f 191 227 192
f 192 197 196
f 192 196 193
f 192 227 228
f 192 228 229
f 192 229 198
f 192 198 197
f 194 230 231
f 194 231 232
f 194 232 233
f 194 233 234
f 194 234 195
f 194 198 230
f 195 235 223
f 195 223 222
f 195 234 235
f 198 229 230
f 199 236 237
f 199 237 200
f 200 237 238
f 200 238 201
f 202 238 239
f 202 239 240
f 202 240 203
f 203 241 242
f 203 242 243
f 203 240 279
f 203 279 241
f 207 244 245
f 207 245 208
f 208 245 246
f 208 246 209
f 209 246 247
f 209 247 210
f 210 247 248
f 210 248 249
f 210 249 250
f 210 250 211
f 211 250 212
f 212 250 213
f 213 251 252
f 213 252 214
f 213 250 253
f 213 253 251
f 214 252 254
f 214 254 255
f 214 255 215
f 215 255 256
f 215 256 216
f 216 256 219
f 217 257 221
f 217 221 218
f 217 219 257
f 219 258 257
f 219 256 259
f 219 259 258
f 220 221 224
f 221 257 258
f 221 258 225
f 221 225 224
f 223 235 260
f 223 260 261
f 223 261 262
f 223 262 263
f 223 263 264
f 223 264 236
f 225 258 265
f 225 265 226
f 226 266 267
f 226 267 268
f 226 268 269
f 226 269 227
f 226 265 266
f 227 269 270
f 227 270 271
f 227 271 272
f 227 272 228
f 228 272 273
f 228 273 229
f 229 273 230
f 230 273 231
f 231 261 232
f 231 273 274
f 231 274 275
f 231 275 276
f 231 276 277
f 231 277 262
f 231 262 261
f 232 261 233
f 233 261 234
f 234 261 260
f 234 260 235
f 236 264 237
f 237 264 238
f 238 264 278
f 238 278 239
f 239 278 240
f 240 278 280
f 240 280 281
f 240 281 282
f 240 282 279
f 241 283 242
f 241 279 283
f 244 284 245
f 245 284 285
f 245 285 286
f 245 286 246
f 246 286 287
f 246 287 288
f 246 288 289
f 246 289 247
f 247 289 248
f 248 289 249
f 249 289 290
f 249 290 291
f 249 291 292
f 249 292 293
f 249 293 294
f 249 294 250
f 250 294 295
f 250 295 253
f 251 296 297
f 251 297 298
f 251 298 252
f 251 253 295
f 251 295 296
f 252 298 299
f 252 299 254
f 254 299 255
f 255 299 300
f 255 300 256
f 256 300 259
f 258 259 301
f 258 301 265
f 259 300 301
f 262 277 263
f 263 277 264
f 264 277 302
f 264 302 280
f 264 280 278
f 265 301 266
f 266 301 267
f 267 300 299
f 267 299 268
f 267 301 300
f 268 299 297
f 268 297 303
f 268 303 304
f 268 304 270
f 268 270 269
f 270 304 271
f 271 304 303
f 271 303 305
f 271 305 306
f 271 306 307
f 271 307 272
f 272 307 306
f 272 306 274
f 272 274 273
f 274 306 275
f 275 308 276
f 275 306 308
f 276 308 309
f 276 309 277
f 277 309 281
f 277 281 280
f 277 280 302
f 279 282 310
f 279 310 311
f 279 311 283
f 281 309 308
f 281 308 282
f 282 308 291
f 282 291 310
f 283 311 310
f 283 310 312
f 284 312 285
f 285 310 286
f 285 312 310
f 286 310 287
f 287 310 313
f 287 313 291
f 287 291 314
f 287 314 288
f 288 314 289
f 289 314 290
f 290 314 291
f 291 308 315
f 291 315 292
f 291 313 310
f 292 315 316
f 292 316 317
f 292 317 293
f 293 318 294
f 293 317 319
f 293 319 320
f 293 320 321
f 293 321 322
f 293 322 318
f 294 318 295
f 295 318 296
f 296 322 321
f 296 321 297
f 296 318 322
f 297 321 320
f 297 320 319
f 297 319 303
f 297 299 298
f 303 319 305
f 305 319 316
f 305 316 306
f 306 316 308
f 308 316 315
f 316 319 323
f 316 323 317
f 317 323 319

