# https://github.com/mikedh/trimesh
v -0.00002257 0.39081213 -0.04893553
v -0.01920406 0.39081213 -0.04824603
v -0.01937765 0.39376083 -0.04437874
v -0.00002257 0.39424914 -0.04437874
v 0.01928911 0.39376083 -0.04437874
v 0.01915891 0.39081213 -0.04824603
v -0.27750316 0.30811691 0.02775061
v -0.03851574 0.39081213 -0.04638733
v -0.01981162 0.40309528 -0.03109807
v -0.03864593 0.39233342 -0.04437874
v -0.00002257 0.40358359 -0.03109807
v 0.01976647 0.40309528 -0.03109807
v 0.03860078 0.39233342 -0.04437874
v 0.03842720 0.39081213 -0.04638733
v -0.27750316 0.39755470 0.25172332
v -0.27750316 0.33843035 0.02775061
v -0.09783947 0.39081213 -0.03205739
v -0.07770325 0.39081213 -0.03832299
v -0.06090860 0.39081213 -0.04240012
v -0.05791420 0.39081213 -0.04311962
v -0.05075370 0.39081213 -0.04437874
v 0.05075195 0.39081213 -0.04437874
v 0.05791246 0.39081213 -0.04311962
v 0.07770151 0.39083090 -0.03832299
v 0.09783773 0.39083090 -0.03205739
v 0.09874906 0.39083090 -0.03172763
v 0.10035475 0.39083090 -0.03109807
v 0.11146440 0.39083090 -0.02660123
v 0.11849470 0.39083090 -0.02375323
v 0.13164401 0.39083090 -0.01745764
v 0.13615730 0.39083090 -0.01514927
v 0.13975926 0.39083090 -0.01323061
v 0.15638031 0.39083090 -0.00342750
v 0.16180494 0.39083090 0.00008004
v 0.16584086 0.39083090 0.00298800
v 0.16584086 0.39083090 0.04738682
v 0.16584086 0.45508263 0.24998453
v 0.16584086 0.45566484 0.25169334
v -0.02024559 0.41203529 -0.01745764
v -0.00002257 0.41254237 -0.01745764
v -0.03955726 0.40163031 -0.03109807
v -0.05917272 0.39918870 -0.03109807
v 0.02020044 0.41203529 -0.01745764
v 0.03951212 0.40163031 -0.03109807
v 0.05917098 0.39918870 -0.03109807
v -0.27750316 0.39823085 0.25310236
v 0.16584086 0.45628464 0.25310236
v -0.27750316 0.34590542 0.04013191
v -0.26418027 0.35627282 0.04013191
v -0.26335573 0.34943634 0.02775061
v -0.13980439 0.39081213 -0.01323061
v -0.13164575 0.39081213 -0.01745764
v -0.11849646 0.39081213 -0.02372324
v -0.11150953 0.39081213 -0.02657124
v -0.10031310 0.39081213 -0.03109807
v -0.09801306 0.39146948 -0.03109807
v -0.07865798 0.39580801 -0.03109807
v 0.06012571 0.39083090 -0.04260997
v 0.06012571 0.39903843 -0.03109807
v 0.07869963 0.39580801 -0.03109807
v 0.09801131 0.39145070 -0.03109807
v 0.10022455 0.40016535 -0.01745764
v 0.11970982 0.39475626 -0.01745764
v 0.12218346 0.40292624 -0.00342750
v 0.14179891 0.39644659 -0.00342750
v 0.16414838 0.39640903 0.01087246
v 0.16584086 0.39567655 0.01087246
v -0.04046860 0.41053277 -0.01745764
v -0.02067956 0.42054334 -0.00342750
v -0.00002257 0.42105043 -0.00342750
v 0.02059101 0.42054334 -0.00342750
v -0.08039387 0.40457901 -0.01745764
v -0.06047463 0.40803480 -0.01745764
v 0.04038006 0.41053277 -0.01745764
v 0.06012571 0.40548053 -0.02141486
v -0.27750316 0.39898211 0.25424153
v 0.16584086 0.45692322 0.25421157
v -0.27750316 0.35107034 0.04933545
v -0.26066512 0.35152110 0.02775061
v -0.26808602 0.36151290 0.05491153
v -0.25003284 0.37422800 0.05491153
v -0.24638750 0.36880013 0.04013191
v -0.24313273 0.36389816 0.02775061
v -0.15043667 0.39081213 -0.00696501
v -0.14180066 0.39644659 -0.00342750
v -0.11971157 0.39477503 -0.01745764
v -0.10018291 0.40016535 -0.01745764
v 0.08043551 0.40457901 -0.01745764
v 0.10226423 0.40839165 -0.00342750
v 0.08208460 0.41293681 -0.00342750
v 0.12452690 0.41055155 0.01087246
v 0.14448953 0.40397799 0.01087246
v 0.10421708 0.41616723 0.01087246
v 0.16584086 0.40039071 0.01923659
v -0.04129314 0.41900325 -0.00342750
v -0.06168975 0.41646773 -0.00342750
v -0.02107013 0.42854428 0.01090244
v -0.00002257 0.42905137 0.01090244
v 0.02102499 0.42854428 0.01090244
v 0.04124800 0.41900325 -0.00342750
v -0.08208635 0.41293681 -0.00342750
v 0.06177480 0.41646773 -0.00342750
v 0.06012571 0.40809116 -0.01745764
v 0.06047288 0.40803480 -0.01745764
v -0.27750316 0.39975214 0.25511092
v 0.16584086 0.45759934 0.25508094
v -0.27750316 0.35418808 0.05491153
v -0.27168798 0.36637732 0.06963120
v -0.25337440 0.37926146 0.06963120
v -0.23445332 0.39124408 0.06963120
v -0.23132873 0.38606039 0.05491153
v -0.22798716 0.38046348 0.04013191
v -0.22494936 0.37539247 0.02775061
v -0.15043667 0.39312226 -0.00342750
v -0.20628864 0.38598526 0.02775061
v -0.18710716 0.39563897 0.02775061
v -0.14449129 0.40399677 0.01090244
v -0.12218520 0.40292624 -0.00342750
v -0.15043667 0.39644659 0.00208863
v -0.10222258 0.40841043 -0.00342750
v 0.08369030 0.42076871 0.01087246
v 0.12669675 0.41774487 0.02544223
v 0.14700656 0.41102108 0.02544223
v 0.16584086 0.40382776 0.02544223
v 0.08512239 0.42814988 0.02544223
v 0.10603976 0.42345446 0.02544223
v -0.06290486 0.42439356 0.01090244
v -0.04207429 0.42696664 0.01090244
v -0.04281204 0.43444169 0.02544223
v -0.02146070 0.43601933 0.02544223
v -0.00002257 0.43656400 0.02544223
v 0.02137216 0.43601933 0.02544223
v 0.04272350 0.43444169 0.02544223
v 0.04198575 0.42696664 0.01090244
v 0.06012571 0.42473161 0.01087246
v -0.10421883 0.41616723 0.01090244
v -0.08364864 0.42078748 0.01090244
v 0.06294651 0.42437476 0.01087246
v -0.27750316 0.40059730 0.25577047
v 0.16584086 0.45829427 0.25574049
v -0.27750316 0.36185095 0.06963120
v -0.27498615 0.37084731 0.08426093
v -0.27750316 0.36769202 0.08171271
v -0.27750316 0.36891282 0.08426093
v -0.25645560 0.38388172 0.08426093
v -0.21761526 0.40717086 0.08426093
v -0.21496804 0.40226889 0.06963120
v -0.21214724 0.39693490 0.05491153
v -0.23731752 0.39599583 0.08426093
v -0.20906605 0.39118776 0.04013191
v -0.18962419 0.40097293 0.04013191
v -0.16974834 0.40978149 0.04013191
v -0.16744831 0.40433484 0.02775061
v -0.14705169 0.41103986 0.02547221
v -0.12665510 0.41774487 0.02547221
v -0.12448525 0.41057032 0.01090244
v -0.15043667 0.40170541 0.01090244
v -0.15043667 0.40974393 0.02547221
v 0.12873641 0.42444989 0.04016189
v 0.14939339 0.41763219 0.04016189
v 0.16584086 0.41130280 0.04016189
v 0.08651111 0.43500513 0.04016189
v 0.10773225 0.43025339 0.04016189
v 0.06403144 0.43181226 0.02544223
v 0.06502957 0.43874267 0.04016189
v -0.06398979 0.43181226 0.02547221
v -0.08512414 0.42814988 0.02544223
v -0.04346300 0.44142842 0.04016189
v -0.02176448 0.44304365 0.04016189
v -0.06503132 0.43874267 0.04016189
v -0.00002257 0.44356954 0.04016189
v 0.02171934 0.44304365 0.04016189
v 0.04341785 0.44142842 0.04016189
v 0.06012571 0.43230060 0.02544223
v -0.10599811 0.42345446 0.02547221
v -0.27750316 0.40119833 0.25610024
v 0.16584086 0.45912066 0.25625014
v -0.25931981 0.38814515 0.09868079
v -0.27750316 0.37417167 0.09598269
v -0.23996474 0.40039071 0.09868079
v -0.22000210 0.41165966 0.09868079
v -0.19956210 0.42198950 0.09868079
v -0.19739226 0.41736925 0.08426093
v -0.19500542 0.41233578 0.06963120
v -0.19244500 0.40687037 0.05491153
v -0.17222197 0.41582915 0.05491153
v -0.15043667 0.41723779 0.04013191
v -0.14939514 0.41765097 0.04016189
v -0.12869476 0.42444989 0.04016189
v -0.10773399 0.43025339 0.04016189
v 0.13060248 0.43068537 0.05491153
v 0.15156324 0.42377377 0.05491153
v 0.10929453 0.43658277 0.05491153
v 0.16584086 0.41830832 0.05491153
v 0.08776961 0.44142842 0.05491153
v 0.06012571 0.43936247 0.04016189
v 0.06598431 0.44518474 0.05491153
v 0.06012571 0.44090253 0.04360947
v -0.08646945 0.43502390 0.04016189
v -0.06598605 0.44520351 0.05491153
v -0.04411395 0.44788927 0.05491153
v -0.02206826 0.44952327 0.05491153
v -0.00002257 0.45008671 0.05491153
v 0.02202312 0.44952327 0.05491153
v 0.04406881 0.44788927 0.05491153
v 0.06012571 0.44591722 0.05491153
v -0.27750316 0.40149882 0.25625014
v 0.16584086 0.45992827 0.25660989
v -0.27750316 0.37554270 0.09916046
v -0.27750316 0.38102692 0.11277090
v -0.26188022 0.39199537 0.11277090
v -0.24235158 0.40433484 0.11277090
v -0.22221535 0.41575402 0.11277090
v -0.20155837 0.42617780 0.11277090
v -0.17864475 0.43126759 0.09868079
v -0.17669186 0.42655343 0.08426093
v -0.17456540 0.42140728 0.06963120
v -0.15364805 0.42946458 0.06963120
v -0.15160838 0.42375499 0.05491153
v -0.15043667 0.42052454 0.04708703
v -0.13060424 0.43070415 0.05491153
v -0.15043667 0.42383009 0.05416206
v -0.10933968 0.43658277 0.05491153
v 0.13233836 0.43648887 0.06963120
v 0.15360290 0.42946458 0.06963120
v 0.16584086 0.42478797 0.06963120
v 0.11081344 0.44244263 0.06963120
v 0.08894134 0.44732583 0.06963120
v 0.06689564 0.45115727 0.06963120
v -0.08772796 0.44142842 0.05491153
v -0.06689739 0.45115727 0.06966117
v -0.04472151 0.45389938 0.06966117
v -0.02241544 0.45557094 0.06966117
v -0.00002257 0.45611560 0.06966117
v 0.02232689 0.45557094 0.06966117
v 0.04467636 0.45389938 0.06966117
v -0.27750316 0.40243790 0.25663987
v 0.16584086 0.46000338 0.25663987
v -0.27750316 0.38615429 0.12656121
v -0.26422369 0.39546996 0.12656121
v -0.24447803 0.40795970 0.12656121
v -0.22416821 0.41947278 0.12656121
v -0.20333764 0.42997167 0.12656121
v -0.18202971 0.43943757 0.12656121
v -0.18038061 0.43556857 0.11277090
v -0.15725000 0.43951270 0.09868079
v -0.15551412 0.43470463 0.08426093
v -0.15043667 0.43639496 0.08429090
v -0.15043667 0.43147421 0.07199953
v -0.13238350 0.43648887 0.06966117
v -0.15043667 0.42416817 0.05491153
v -0.11077179 0.44244263 0.06966117
v 0.13398744 0.44182283 0.08429090
v 0.15551238 0.43470463 0.08429090
v 0.16584086 0.43074173 0.08429090
v 0.09002626 0.45279127 0.08429090
v 0.11215875 0.44783294 0.08429090
v 0.06772019 0.45666027 0.08429090
v 0.04519713 0.45945871 0.08429090
v 0.06012571 0.45575875 0.07946429
v -0.08894308 0.44732583 0.06966117
v -0.06767854 0.45666027 0.08429090
v -0.04524227 0.45945871 0.08429090
v -0.09002800 0.45279127 0.08429090
v -0.02267582 0.46113029 0.08429090
v -0.00002257 0.46169373 0.08429090
v 0.02263068 0.46113029 0.08429090
v -0.27750316 0.40348968 0.25693965
v 0.16584086 0.46086735 0.25693965
v -0.27750316 0.39075577 0.13987187
v -0.26630673 0.39860648 0.13987187
v -0.24643089 0.41119012 0.13987187
v -0.22594750 0.42279711 0.13987187
v -0.20494333 0.43338993 0.13987187
v -0.18346180 0.44293094 0.13987187
v -0.16024441 0.44783294 0.12656121
v -0.15881228 0.44387004 0.11277090
v -0.15043667 0.44176650 0.09868079
v -0.15043667 0.43776602 0.08794833
v -0.13398919 0.44180405 0.08429090
v -0.11211710 0.44783294 0.08429090
v 0.13546294 0.44668725 0.09868079
v 0.15720485 0.43953151 0.09868079
v 0.11337386 0.45279127 0.09868079
v 0.16584086 0.43622595 0.09868079
v 0.09102438 0.45780593 0.09868079
v 0.06845794 0.46171251 0.09868079
v 0.06012571 0.46276426 0.09868079
v 0.02284766 0.46623886 0.09868079
v 0.04567450 0.46452975 0.09868079
v -0.06841629 0.46171251 0.09868079
v -0.09102614 0.45780593 0.09868079
v -0.04576304 0.46452975 0.09868079
v -0.02293620 0.46623886 0.09868079
v -0.00002257 0.46680230 0.09868079
v -0.27750316 0.40457901 0.25714952
v 0.16584086 0.46184397 0.25714952
v -0.27750316 0.39486894 0.15264291
v -0.26817280 0.40140492 0.15264291
v -0.24816677 0.41408247 0.15264291
v -0.22755319 0.42576462 0.15264291
v -0.20641883 0.43641376 0.15264291
v -0.18472032 0.44604868 0.15264291
v -0.16263124 0.45455673 0.15264291
v -0.16150291 0.45138267 0.13987187
v -0.15043667 0.45502627 0.13981190
v -0.15043667 0.45316690 0.13357629
v -0.15043667 0.45106336 0.12656121
v -0.13681000 0.45111972 0.11277090
v -0.15043667 0.44663092 0.11277090
v -0.13546470 0.44668725 0.09868079
v -0.11337560 0.45277250 0.09868079
v 0.13680826 0.45111972 0.11277090
v 0.15881054 0.44388881 0.11277090
v 0.16584086 0.43945637 0.10773443
v 0.09193572 0.46235108 0.11277090
v 0.11450218 0.45728007 0.11277090
v 0.06910889 0.46631399 0.11277090
v 0.06012571 0.46563786 0.10728475
v -0.00002257 0.47144136 0.11277090
v 0.02306464 0.47085914 0.11277090
v 0.04615186 0.46915001 0.11277090
v -0.06911064 0.46631399 0.11277090
v -0.11450393 0.45728007 0.11277090
v -0.09193747 0.46235108 0.11277090
v -0.04619701 0.46915001 0.11277090
v -0.02315319 0.47085914 0.11277090
v -0.27750316 0.40568712 0.25726944
v 0.16584086 0.46283939 0.25726944
v -0.27750316 0.39851257 0.16481435
v -0.26986527 0.40390286 0.16481435
v -0.24968567 0.41663677 0.16481435
v -0.22894189 0.42839402 0.16481435
v -0.20767735 0.43911830 0.16481435
v -0.18589205 0.44879079 0.16481435
v -0.16362937 0.45737398 0.16481435
v -0.15043667 0.45857599 0.15264291
v -0.15043667 0.45673540 0.14595759
v -0.13915345 0.45874503 0.13981190
v -0.13802512 0.45513898 0.12653124
v 0.13806677 0.45513898 0.12653124
v 0.11554371 0.46137443 0.12653124
v 0.16019925 0.44783294 0.12653124
v 0.16584086 0.44255531 0.11690799
v 0.16584086 0.44120306 0.11277090
v 0.09276026 0.46646425 0.12653124
v 0.06975985 0.47046471 0.12653124
v 0.06012571 0.46913123 0.11822706
v -0.02337017 0.47506618 0.12653124
v -0.00002257 0.47564843 0.12653124
v 0.02328163 0.47506618 0.12653124
v 0.04654244 0.47333831 0.12653124
v -0.06971820 0.47046471 0.12653124
v -0.04663098 0.47333831 0.12653124
v -0.09271862 0.46648303 0.12653124
v -0.11550206 0.46135566 0.12653124
v -0.27750316 0.40685156 0.25732937
v 0.16584086 0.46381605 0.25732937
v -0.27750316 0.40065366 0.17239901
v -0.27129740 0.40606275 0.17632627
v -0.25107437 0.41889057 0.17632627
v -0.27750316 0.40174299 0.17632627
v -0.23020041 0.43072295 0.17632627
v -0.20880567 0.44150355 0.17632627
v -0.18689017 0.45121363 0.17632627
v -0.16454071 0.45985314 0.17632627
v -0.15043667 0.46340287 0.17173949
v -0.14097612 0.46483025 0.16481435
v -0.15043667 0.45994705 0.15794918
v -0.14010817 0.46197546 0.15264291
v -0.11645679 0.46501806 0.13981190
v 0.13910830 0.45874503 0.13981190
v 0.16150117 0.45138267 0.13981190
v 0.11645505 0.46501806 0.13981190
v 0.09349802 0.47016421 0.13981190
v 0.16584086 0.44567305 0.12653124
v 0.04693301 0.47709462 0.13981190
v 0.06012571 0.47546062 0.13981190
v 0.07028061 0.47418347 0.13981190
v -0.04697816 0.47709462 0.13981190
v -0.02354376 0.47882253 0.13981190
v -0.00002257 0.47942352 0.13981190
v 0.02349862 0.47882253 0.13981190
v -0.07028236 0.47418347 0.13981190
v -0.09345637 0.47016421 0.13981190
v -0.27364081 0.40955612 0.25732937
v -0.27750316 0.40799725 0.25726944
v 0.16584086 0.46481147 0.25726944
v 0.14297064 0.47136623 0.25732937
v -0.27259928 0.40797848 0.18705873
v -0.25224608 0.42088139 0.18705873
v -0.27750316 0.40454143 0.18705873
v -0.23128533 0.43275136 0.18705873
v -0.20980380 0.44358832 0.18705873
v -0.18775812 0.45335472 0.18705873
v -0.16532186 0.46201301 0.18705873
v -0.15043667 0.46691501 0.18705873
v -0.14175726 0.46734697 0.17632627
v -0.11862665 0.47373271 0.17632627
v -0.11797570 0.47117841 0.16481435
v -0.11723794 0.46828607 0.15264291
v -0.09410733 0.47346976 0.15264291
v 0.14010642 0.46197546 0.15264291
v 0.16258609 0.45455673 0.15264291
v 0.16584086 0.45333594 0.15264291
v 0.16584086 0.44971108 0.13981190
v 0.11727959 0.46828607 0.15264291
v 0.09414898 0.47346976 0.15264291
v 0.07080138 0.47752658 0.15264291
v 0.02362881 0.48220319 0.15264291
v 0.04728018 0.48043773 0.15264291
v 0.06012571 0.47886008 0.15264291
v -0.07075973 0.47752658 0.15264291
v -0.04732533 0.48043773 0.15264291
v -0.02371735 0.48220319 0.15264291
v -0.00002257 0.48278543 0.15264291
v -0.25320083 0.42249662 0.25732937
v -0.25367820 0.42330423 0.25726944
v -0.27416158 0.41032615 0.25726944
v -0.27750316 0.40912414 0.25714952
v -0.27468234 0.41111499 0.25714952
v 0.16584086 0.46580690 0.25714952
v 0.14323102 0.47226775 0.25726944
v 0.11966643 0.47780830 0.25732937
v -0.27368420 0.40963125 0.19698176
v -0.27750316 0.40696427 0.19698176
v -0.25324422 0.42257175 0.19698176
v -0.23224007 0.43449804 0.19698176
v -0.21062835 0.44539133 0.19698176
v -0.18853925 0.45519531 0.19698176
v -0.16597280 0.46389118 0.19698176
v -0.15043667 0.46832362 0.19365409
v -0.14240822 0.46954441 0.18705873
v -0.11919081 0.47596771 0.18705873
v -0.09566962 0.48124534 0.18705873
v -0.09523565 0.47897276 0.17632627
v -0.09471489 0.47639969 0.16481435
v -0.07119370 0.48049408 0.16481435
v 0.14097437 0.46484903 0.16481435
v 0.16362762 0.45737398 0.16481435
v 0.16584086 0.45652881 0.16481435
v 0.11797394 0.47119719 0.16481435
v 0.07123534 0.48049408 0.16481435
v 0.09471314 0.47639969 0.16481435
v 0.02380239 0.48517066 0.16481435
v 0.04758397 0.48342401 0.16481435
v -0.00002257 0.48577169 0.16481435
v 0.06012571 0.48024991 0.15824896
v -0.04758571 0.48342401 0.16481435
v -0.02384754 0.48517066 0.16481435
v -0.23219667 0.43442291 0.25732937
v -0.25415558 0.42409304 0.25714952
v -0.23263064 0.43524930 0.25726944
v -0.27750316 0.41010079 0.25696963
v -0.25463295 0.42484432 0.25693965
v -0.27515972 0.41184747 0.25693965
v 0.16584086 0.46674597 0.25693965
v 0.14375179 0.47401443 0.25693965
v 0.14349140 0.47315049 0.25714952
v 0.12010039 0.47961134 0.25714952
v 0.11988342 0.47870982 0.25726944
v 0.09623203 0.48400623 0.25726944
v 0.09605844 0.48308593 0.25732937
v -0.27463895 0.41105863 0.20594546
v -0.25415558 0.42403671 0.20594546
v -0.27750316 0.40906781 0.20594546
v -0.23302121 0.43600056 0.20594546
v -0.21136610 0.44693142 0.20594546
v -0.18919021 0.45679176 0.20594546
v -0.16653696 0.46548760 0.20594546
v -0.15043667 0.47080278 0.20588550
v -0.15043667 0.46901855 0.19698176
v -0.14297238 0.47146013 0.19692180
v -0.11966818 0.47790223 0.19692180
v -0.09606019 0.48319861 0.19692180
v -0.07197484 0.48535851 0.18705873
v -0.07162767 0.48308593 0.17632627
v -0.04788949 0.48603463 0.17632627
v 0.14171211 0.46734697 0.17632627
v 0.16449556 0.45985314 0.17632627
v 0.11862490 0.47375149 0.17632627
v 0.16584086 0.45934603 0.17632627
v 0.09527729 0.47899154 0.17632627
v 0.06012571 0.48451334 0.17632627
v 0.07162592 0.48308593 0.17632627
v 0.02393258 0.48780009 0.17632627
v 0.04784435 0.48603463 0.17632627
v -0.02397773 0.48780009 0.17632627
v -0.00002257 0.48840111 0.17632627
v -0.21058495 0.44529742 0.25732937
v -0.21101892 0.44616139 0.25726944
v -0.23306461 0.43605691 0.25714952
v -0.27750316 0.41021347 0.25693965
v -0.25506690 0.42557678 0.25663987
v -0.27563709 0.41256118 0.25663987
v -0.23345518 0.43684572 0.25693965
v -0.23388915 0.43761578 0.25663987
v -0.27750316 0.41126525 0.25663987
v 0.16584086 0.46762872 0.25663987
v 0.14401217 0.47482204 0.25663987
v 0.12053438 0.48130167 0.25663987
v 0.12031738 0.48047531 0.25693965
v 0.09662260 0.48580927 0.25693965
v 0.09644902 0.48492652 0.25714952
v 0.07236367 0.48815694 0.25726944
v 0.07223348 0.48723665 0.25732937
v -0.27546352 0.41226065 0.21391986
v -0.27750316 0.40931195 0.20702471
v -0.25489330 0.42527628 0.21391986
v -0.23371556 0.43729648 0.21391986
v -0.21201704 0.44824612 0.21391986
v -0.18975438 0.45812523 0.21391986
v -0.16705772 0.46685866 0.21391986
v -0.14349315 0.47309414 0.20588550
v -0.12005875 0.47955501 0.20588550
v -0.09640737 0.48487017 0.20588550
v -0.07249561 0.48902088 0.20588550
v -0.07223523 0.48733056 0.19692180
v -0.04828007 0.49031684 0.19692180
v -0.04810648 0.48832598 0.18705873
v -0.02410792 0.49011022 0.18705873
v 0.14240646 0.46954441 0.18705873
v 0.16527671 0.46201301 0.18705873
v 0.16584086 0.46180642 0.18705873
v 0.09571128 0.48124534 0.18705873
v 0.11918907 0.47596771 0.18705873
v 0.07197310 0.48537728 0.18705873
v 0.06012571 0.48569655 0.18175246
v 0.02406278 0.49011022 0.18705873
v 0.04801793 0.48832598 0.18705873
v 0.06012571 0.48684224 0.18705873
v -0.00002257 0.49071124 0.18705873
v -0.18849586 0.45510140 0.25732937
v -0.18884304 0.45596534 0.25726944
v -0.18923362 0.45682931 0.25714952
v -0.21140949 0.44698778 0.25714952
v -0.25545746 0.42625293 0.25625014
v -0.27607107 0.41319975 0.25625014
v -0.27750316 0.41227946 0.25625014
v -0.21175666 0.44779539 0.25693965
v -0.21214724 0.44856542 0.25663987
v -0.21249442 0.44927913 0.25625014
v -0.23423633 0.43831068 0.25625014
v 0.16584086 0.46841753 0.25628012
v 0.14422914 0.47557330 0.25625014
v 0.12070796 0.48207173 0.25625014
v 0.09675279 0.48663563 0.25663987
v 0.07279764 0.49080515 0.25663987
v 0.07266745 0.48995999 0.25693965
v 0.07249387 0.48907724 0.25714952
v 0.06012571 0.48969704 0.25726944
v 0.06012571 0.48873919 0.25732937
v -0.27611446 0.41325608 0.22093493
v -0.25550085 0.42632806 0.22093493
v -0.27750316 0.41098350 0.21457940
v -0.27750316 0.41229823 0.22093493
v -0.23427972 0.43834826 0.22093493
v -0.21249442 0.44933546 0.22093493
v -0.19023174 0.45923334 0.22093493
v -0.16744831 0.46800435 0.22093493
v -0.15043667 0.47234288 0.21391986
v -0.14388372 0.47448397 0.21385992
v -0.12044932 0.48096362 0.21385992
v -0.09671114 0.48629758 0.21385992
v -0.07271259 0.49044830 0.21385992
v -0.04858385 0.49345335 0.21385992
v -0.04845366 0.49200717 0.20588550
v -0.02423811 0.49381021 0.20588550
v -0.02419472 0.49210107 0.19692180
v 0.14297064 0.47146013 0.19692180
v 0.16584086 0.46347797 0.19470337
v 0.09610185 0.48319861 0.19692180
v 0.11966643 0.47790223 0.19692180
v 0.06012571 0.48885188 0.19692180
v 0.07223348 0.48733056 0.19692180
v 0.02414957 0.49210107 0.19692180
v 0.04823492 0.49031684 0.19692180
v -0.00002257 0.49268329 0.19692180
v -0.16592941 0.46379727 0.25732937
v -0.16627657 0.46467999 0.25726944
v -0.16658036 0.46556273 0.25714952
v -0.16688414 0.46640790 0.25693965
v -0.18953739 0.45765570 0.25693965
v -0.25584805 0.42689151 0.25577047
v -0.27646163 0.41380075 0.25577047
v -0.27750316 0.41310585 0.25577047
v -0.18988457 0.45842573 0.25663987
v -0.21279819 0.44991770 0.25577047
v -0.23458350 0.43893048 0.25577047
v -0.19018835 0.45915821 0.25625014
v -0.19044873 0.45983437 0.25577047
v 0.16584086 0.46920636 0.25577047
v 0.14440273 0.47624946 0.25577047
v 0.12088154 0.48276663 0.25577047
v 0.09692639 0.48740569 0.25625014
v 0.07288444 0.49159396 0.25625014
v 0.04866889 0.49458024 0.25625014
v 0.06012571 0.49236402 0.25663987
v 0.06012571 0.49151886 0.25693965
v 0.06012571 0.49061733 0.25714952
v 0.04840851 0.49206352 0.25711954
v 0.04832172 0.49114323 0.25723946
v 0.02414957 0.49294624 0.25723946
v 0.02410617 0.49198839 0.25726944
v -0.00002257 0.49258941 0.25726944
v -0.02419472 0.49198839 0.25726944
v -0.04828007 0.49020416 0.25726944
v -0.15043667 0.46890587 0.25732937
v -0.27667862 0.41406369 0.22711059
v -0.27750316 0.41350025 0.22711059
v -0.25602162 0.42715445 0.22711059
v -0.23475710 0.43921220 0.22711059
v -0.21292838 0.45021820 0.22711059
v -0.19057892 0.46013486 0.22711059
v -0.16779548 0.46890587 0.22711059
v -0.15043667 0.47388297 0.22255380
v -0.15043667 0.47360122 0.22090496
v -0.14427429 0.47562966 0.22090496
v -0.09692813 0.48748082 0.22090496
v -0.12070970 0.48212808 0.22090496
v -0.07288618 0.49165031 0.22090496
v -0.04871404 0.49465537 0.22090496
v -0.02441170 0.49645841 0.22090496
v -0.02436830 0.49523759 0.21385992
v -0.00002257 0.49585739 0.21385992
v -0.00002257 0.49439242 0.20588550
v 0.14344800 0.47309414 0.20588550
v 0.16584086 0.46394750 0.19692180
v 0.12010039 0.47955501 0.20588550
v 0.09644902 0.48487017 0.20588550
v 0.07249387 0.48902088 0.20588550
v 0.04840851 0.49200717 0.20588550
v 0.06012571 0.49056098 0.20588550
v 0.02423637 0.49381021 0.20588550
v -0.15043667 0.46990126 0.25726944
v -0.15043667 0.47087792 0.25714952
v -0.15043667 0.47181699 0.25693965
v -0.15043667 0.47245556 0.25672978
v -0.16714452 0.46719673 0.25663987
v -0.25615183 0.42743617 0.25508094
v -0.27685219 0.41432664 0.25508094
v -0.23488729 0.43949392 0.25508094
v -0.27750316 0.41387588 0.25508094
v -0.21305858 0.45049992 0.25508094
v -0.16740490 0.46792921 0.25625014
v -0.19070911 0.46041659 0.25508094
v -0.16766529 0.46860534 0.25577047
v -0.16788226 0.46920636 0.25508094
v 0.16584086 0.46988249 0.25505096
v 0.14461972 0.47686923 0.25505096
v 0.12105513 0.48338643 0.25505096
v 0.09718677 0.48873919 0.25505096
v 0.09705658 0.48810059 0.25577047
v 0.07301463 0.49228889 0.25577047
v 0.06012571 0.49388534 0.25577047
v 0.04871229 0.49529395 0.25574049
v 0.02432316 0.49638328 0.25625014
v 0.02427977 0.49559444 0.25660989
v 0.04858210 0.49379140 0.25660989
v 0.04849531 0.49294624 0.25687969
v 0.02427977 0.49474928 0.25687969
v 0.02423637 0.49384776 0.25711954
v -0.00002257 0.49446756 0.25711954
v -0.00002257 0.49352849 0.25723946
v -0.02423811 0.49294624 0.25723946
v -0.04836686 0.49114323 0.25723946
v -0.07223523 0.48723665 0.25726944
v -0.09606019 0.48308593 0.25726944
v -0.11962478 0.47780830 0.25726944
v -0.11988516 0.47870982 0.25723946
v -0.25641221 0.42781180 0.23247683
v -0.27750316 0.41442055 0.23247683
v -0.27706921 0.41470227 0.23247683
v -0.23510426 0.43988833 0.23247683
v -0.21323216 0.45089433 0.23247683
v -0.19088270 0.46082979 0.23247683
v -0.16801247 0.46961954 0.23247683
v -0.15043667 0.47542304 0.23244685
v -0.14453468 0.47656873 0.22705063
v -0.12097009 0.48306715 0.22705063
v -0.09714512 0.48841989 0.22705063
v -0.07301638 0.49260819 0.22705063
v -0.04880083 0.49561322 0.22705063
v -0.02445510 0.49743503 0.22705063
v -0.00002257 0.49705940 0.22090496
v 0.02432316 0.49645841 0.22090496
v 0.02427977 0.49523759 0.21385992
v 0.14388198 0.47448397 0.21385992
v 0.16584086 0.46727186 0.21385992
v 0.16584086 0.46573177 0.20588550
v 0.12044758 0.48096362 0.21385992
v 0.07271084 0.49046707 0.21385992
v 0.09670940 0.48629758 0.21385992
v 0.04853870 0.49345335 0.21385992
v -0.14318937 0.47226775 0.25723946
v -0.14349315 0.47315049 0.25711954
v -0.14375353 0.47401443 0.25687969
v -0.14401391 0.47482204 0.25660989
v -0.15043667 0.47269973 0.25663987
v -0.14423090 0.47557330 0.25625014
v -0.25645560 0.42788693 0.25415161
v -0.27711260 0.41479617 0.25415161
v -0.27750316 0.41453323 0.25415161
v -0.23514767 0.43996346 0.25415161
v -0.21327557 0.45098823 0.25415161
v -0.19092609 0.46092367 0.25415161
v -0.15043667 0.47429615 0.25577047
v -0.16805586 0.46971345 0.25415161
v -0.15043667 0.47495350 0.25508094
v -0.15043667 0.47553575 0.25415161
v 0.16584086 0.47046471 0.25415161
v 0.14474991 0.47739512 0.25415161
v 0.12118532 0.48391232 0.25415161
v 0.09731697 0.48928386 0.25415161
v 0.07310142 0.49292746 0.25505096
v 0.06012571 0.49452388 0.25505096
v 0.04879908 0.49591374 0.25502101
v 0.02436656 0.49773556 0.25502101
v 0.02436656 0.49709696 0.25574049
v -0.00002257 0.49698427 0.25625014
v -0.00002257 0.49621424 0.25660989
v -0.00002257 0.49535030 0.25687969
v -0.02432491 0.49474928 0.25687969
v -0.02428151 0.49384776 0.25711954
v -0.04845366 0.49206352 0.25711954
v -0.07249561 0.48907724 0.25711954
v -0.07236542 0.48815694 0.25723946
v -0.09623379 0.48400623 0.25723946
v -0.09640737 0.48492652 0.25711954
v -0.12010214 0.47961134 0.25711954
v -0.27750316 0.41509667 0.23709358
v -0.25667259 0.42828134 0.23709358
v -0.21349254 0.45140144 0.23709358
v -0.23536465 0.44035786 0.23709358
v -0.19109969 0.46133688 0.23709358
v -0.16822946 0.47014543 0.23709358
v -0.15043667 0.47587380 0.23598437
v -0.14475167 0.47728243 0.23244685
v -0.12114368 0.48381841 0.23244685
v -0.09723191 0.48917115 0.23244685
v -0.07314657 0.49335945 0.23244685
v -0.04888763 0.49636447 0.23244685
v -0.02449850 0.49816751 0.23244685
v -0.00002257 0.49878731 0.23244685
v -0.00002257 0.49801725 0.22705063
v 0.02436656 0.49743503 0.22705063
v 0.04866889 0.49465537 0.22090496
v 0.14422914 0.47564843 0.22090496
v 0.16584086 0.46853021 0.22090496
v 0.12075135 0.48212808 0.22090496
v 0.06012571 0.49266452 0.21754733
v 0.07288444 0.49165031 0.22090496
v 0.09692639 0.48748082 0.22090496
v -0.12031913 0.48047531 0.25687969
v -0.12049272 0.48130167 0.25660989
v -0.12070970 0.48207173 0.25625014
v -0.12088329 0.48276663 0.25574049
v -0.14444788 0.47624946 0.25574049
v -0.25667259 0.42826256 0.25295246
v -0.27750316 0.41507789 0.25295246
v -0.23536465 0.44035786 0.25295246
v -0.21349254 0.45138267 0.25295246
v -0.16822946 0.47014543 0.25295246
v -0.19109969 0.46133688 0.25295246
v -0.14462146 0.47686923 0.25502101
v -0.14479506 0.47739512 0.25412163
v -0.15043667 0.47589260 0.25325224
v 0.16584086 0.47091547 0.25295246
v 0.14492349 0.47780830 0.25295246
v 0.12131551 0.48434430 0.25295246
v 0.09740375 0.48971581 0.25295246
v 0.07323161 0.49390411 0.25295246
v 0.07314481 0.49345335 0.25415161
v 0.06012571 0.49482441 0.25457132
v 0.04884248 0.49645841 0.25412163
v -0.00002257 0.49833655 0.25502101
v 0.02440996 0.49828023 0.25412163
v -0.00002257 0.49769798 0.25574049
v -0.02445510 0.49709696 0.25574049
v -0.02441170 0.49638328 0.25625014
v -0.02436830 0.49559444 0.25660989
v -0.04862724 0.49379140 0.25660989
v -0.04854045 0.49294624 0.25687969
v -0.07262580 0.48995999 0.25687969
v -0.09658095 0.48579049 0.25687969
v -0.27750316 0.41530329 0.23877241
v -0.25688958 0.42860061 0.24105081
v -0.21366614 0.45173949 0.24105081
v -0.23553824 0.44069594 0.24105081
v -0.19122988 0.46167496 0.24105081
v -0.16835964 0.47050229 0.24105081
v -0.15043667 0.47632456 0.24012147
v -0.15043667 0.47600529 0.23706362
v -0.14488184 0.47782710 0.23706362
v -0.12127387 0.48434430 0.23706362
v -0.09736210 0.48971581 0.23706362
v -0.07323336 0.49390411 0.23706362
v -0.04893102 0.49692795 0.23706362
v -0.02449850 0.49873096 0.23706362
v -0.00002257 0.49935076 0.23706362
v 0.02445335 0.49873096 0.23706362
v 0.02440996 0.49816751 0.23244685
v 0.04884248 0.49636447 0.23244685
v 0.04879908 0.49561322 0.22705063
v 0.14453292 0.47656873 0.22708061
v 0.16584086 0.46954441 0.22708061
v 0.12096834 0.48306715 0.22708061
v 0.07301463 0.49260819 0.22708061
v 0.09709997 0.48841989 0.22708061
v -0.09675455 0.48663563 0.25660989
v -0.09692813 0.48740569 0.25625014
v -0.12101348 0.48338643 0.25502101
v -0.09705833 0.48810059 0.25574049
v -0.09718852 0.48873919 0.25502101
v -0.25684619 0.42856306 0.25142354
v -0.27750316 0.41530329 0.25220299
v -0.21362273 0.45170194 0.25142354
v -0.23549484 0.44065839 0.25142354
v -0.15043667 0.47600529 0.25295246
v -0.15043667 0.47636214 0.25142354
v -0.16831625 0.47046471 0.25142354
v -0.19118647 0.46163738 0.25142354
v -0.12118707 0.48391232 0.25412163
v -0.12127387 0.48434430 0.25295246
v -0.14488184 0.47780830 0.25295246
v 0.16584086 0.47097182 0.25277257
v 0.14501029 0.47812760 0.25145352
v 0.16584086 0.47129112 0.25145352
v 0.12135892 0.48466358 0.25145352
v 0.09744716 0.49003512 0.25145352
v 0.07327500 0.49424219 0.25145352
v 0.06012571 0.49506855 0.25415161
v 0.04888587 0.49690914 0.25295246
v -0.00002257 0.49888122 0.25412163
v -0.02449850 0.49828023 0.25412163
v -0.02445510 0.49773556 0.25502101
v 0.02445335 0.49873096 0.25295246
v -0.04875743 0.49529395 0.25574049
v -0.04871404 0.49458024 0.25625014
v -0.07275599 0.49080515 0.25660989
v -0.27750316 0.41554743 0.24105081
v -0.25697637 0.42878842 0.24437848
v -0.27750316 0.41579160 0.24437848
v -0.21375293 0.45192730 0.24437848
v -0.19131666 0.46188155 0.24437848
v -0.23562503 0.44088376 0.24437848
v -0.16840303 0.47069010 0.24437848
v -0.15043667 0.47662508 0.24437848
v -0.15043667 0.47639969 0.24102083
v -0.14501205 0.47818393 0.24102083
v -0.12136066 0.48470116 0.24102083
v -0.09744890 0.49009144 0.24102083
v -0.07327676 0.49427974 0.24102083
v -0.04897442 0.49730358 0.24102083
v -0.02454189 0.49910659 0.24102083
v -0.00002257 0.49972638 0.24102083
v 0.02445335 0.49910659 0.24102083
v 0.04892927 0.49730358 0.24102083
v 0.04888587 0.49692795 0.23706362
v 0.07323161 0.49392289 0.23706362
v 0.07314481 0.49335945 0.23247683
v 0.12114193 0.48381841 0.23247683
v 0.14474991 0.47728243 0.23247683
v 0.16584086 0.47027689 0.23196720
v 0.09727356 0.48917115 0.23247683
v -0.07288618 0.49157518 0.25625014
v -0.07297298 0.49228889 0.25574049
v -0.07305977 0.49290869 0.25502101
v -0.07314657 0.49345335 0.25412163
v -0.09727531 0.48926505 0.25412163
v -0.25697637 0.42875087 0.24953485
v -0.27750316 0.41549110 0.25142354
v -0.21370953 0.45188975 0.24953485
v -0.23562503 0.44084620 0.24953485
v -0.19127327 0.46184397 0.24953485
v -0.14501205 0.47812760 0.25142354
v -0.15043667 0.47658750 0.24953485
v -0.16840303 0.47065252 0.24953485
v -0.09736210 0.48971581 0.25295246
v -0.12136066 0.48466358 0.25142354
v 0.14505368 0.47833419 0.24950488
v 0.16584086 0.47151649 0.24950488
v 0.12140231 0.48487017 0.24950488
v 0.09749055 0.49024171 0.24950488
v 0.07331841 0.49444878 0.24950488
v 0.06012571 0.49608278 0.24950488
v 0.04892927 0.49724722 0.25142354
v -0.00002257 0.49933198 0.25295246
v -0.02449850 0.49873096 0.25295246
v -0.04893102 0.49690914 0.25295246
v -0.04888763 0.49645841 0.25412163
v -0.04884423 0.49591374 0.25502101
v 0.02445335 0.49906904 0.25142354
v -0.25701976 0.42880723 0.24719650
v -0.23566844 0.44092134 0.24719650
v -0.27750316 0.41586673 0.24716651
v -0.21375293 0.45196488 0.24719650
v -0.19131666 0.46191910 0.24719650
v -0.16844644 0.47074646 0.24719650
v -0.15043667 0.47668141 0.24719650
v -0.14509884 0.47842810 0.24719650
v -0.14505544 0.47837174 0.24437848
v -0.12144745 0.48490775 0.24437848
v -0.09749229 0.49027926 0.24437848
v -0.07332015 0.49448633 0.24437848
v -0.04897442 0.49749139 0.24437848
v -0.02458529 0.49931321 0.24437848
v -0.00002257 0.49993300 0.24437848
v 0.02449675 0.49931321 0.24437848
v 0.04897267 0.49749139 0.24437848
v 0.06012571 0.49612033 0.24437848
v 0.07331841 0.49448633 0.24440846
v 0.07327500 0.49427974 0.24105081
v 0.09744716 0.49009144 0.24105081
v 0.09740375 0.48971581 0.23706362
v 0.12131551 0.48436308 0.23706362
v 0.14492349 0.47782710 0.23706362
v 0.16584086 0.47040838 0.23292652
v -0.07323336 0.49390411 0.25295246
v -0.27750316 0.41586673 0.24722648
v -0.27750316 0.41573524 0.24953485
v -0.12144745 0.48487017 0.24950488
v -0.14505544 0.47833419 0.24950488
v -0.09744890 0.49003512 0.25142354
v 0.14509709 0.47842810 0.24719650
v 0.16584086 0.47161040 0.24719650
v 0.12144570 0.48496407 0.24719650
v 0.09753394 0.49033561 0.24719650
v 0.07331841 0.49454269 0.24719650
v 0.06012571 0.49617666 0.24719650
v 0.04897267 0.49745381 0.24950488
v -0.00002257 0.49967003 0.25142354
v -0.02454189 0.49906904 0.25142354
v -0.04897442 0.49724722 0.25142354
v 0.02449675 0.49927562 0.24950488
v -0.12144745 0.48496407 0.24719650
v -0.09749229 0.49033561 0.24719650
v -0.07332015 0.49452388 0.24719650
v -0.04897442 0.49754775 0.24719650
v -0.02458529 0.49935076 0.24719650
v -0.00002257 0.49998933 0.24719650
v 0.02449675 0.49935076 0.24719650
v 0.04897267 0.49754775 0.24719650
v 0.09749055 0.49027926 0.24440846
v 0.12140231 0.48471993 0.24105081
v 0.14505368 0.47818393 0.24105081
v 0.16584086 0.47134745 0.24105081
v 0.16584086 0.47093427 0.23706362
v -0.07327676 0.49422339 0.25142354
v -0.09744890 0.49024171 0.24950488
v -0.07332015 0.49444878 0.24950488
v 0.14505368 0.47837174 0.24440846
v 0.16584086 0.47155404 0.24470824
v 0.12140231 0.48490775 0.24440846
v -0.00002257 0.49987665 0.24950488
v -0.02458529 0.49927562 0.24950488
v -0.04897442 0.49745381 0.24950488
f 1 2 3
f 1 3 4
f 1 4 5
f 1 5 6
f 1 6 7
f 1 7 2
f 2 7 8
f 2 8 3
f 3 9 4
f 3 8 10
f 3 10 9
f 4 11 12
f 4 12 5
f 4 9 11
f 5 12 13
f 5 13 14
f 5 14 6
f 6 14 7
f 7 15 46
f 7 46 76
f 7 76 105
f 7 105 139
f 7 139 176
f 7 176 207
f 7 207 237
f 7 237 268
f 7 268 296
f 7 296 328
f 7 328 357
f 7 357 387
f 7 387 420
f 7 420 454
f 7 454 493
f 7 493 498
f 7 498 539
f 7 539 586
f 7 586 643
f 7 643 703
f 7 703 760
f 7 760 816
f 7 816 872
f 7 872 921
f 7 921 920
f 7 920 896
f 7 896 843
f 7 843 841
f 7 841 786
f 7 786 731
f 7 731 672
f 7 672 610
f 7 610 556
f 7 556 555
f 7 555 508
f 7 508 466
f 7 466 426
f 7 426 392
f 7 392 362
f 7 362 359
f 7 359 330
f 7 330 298
f 7 298 270
f 7 270 239
f 7 239 210
f 7 210 209
f 7 209 179
f 7 179 144
f 7 144 143
f 7 143 141
f 7 141 107
f 7 107 78
f 7 78 48
f 7 48 16
f 7 16 17
f 7 17 18
f 7 18 19
f 7 19 20
f 7 20 21
f 7 21 8
f 7 14 22
f 7 22 23
f 7 23 24
f 7 24 25
f 7 25 26
f 7 26 27
f 7 27 28
f 7 28 29
f 7 29 30
f 7 30 31
f 7 31 32
f 7 32 33
f 7 33 34
f 7 34 35
f 7 35 36
f 7 36 37
f 7 37 38
f 7 38 15
f 8 21 10
f 9 39 40
f 9 40 11
f 9 10 41
f 9 41 39
f 10 21 20
f 10 20 42
f 10 42 41
f 11 40 12
f 12 43 44
f 12 44 13
f 12 40 43
f 13 44 45
f 13 45 23
f 13 23 22
f 13 22 14
f 15 38 47
f 15 47 46
f 16 48 49
f 16 49 50
f 16 50 51
f 16 51 52
f 16 52 53
f 16 53 54
f 16 54 55
f 16 55 17
f 17 55 56
f 17 56 18
f 18 57 42
f 18 42 19
f 18 56 57
f 19 42 20
f 23 45 58
f 23 58 24
f 24 58 59
f 24 59 60
f 24 60 25
f 25 60 61
f 25 61 26
f 26 61 62
f 26 62 27
f 27 62 28
f 28 62 29
f 29 62 63
f 29 63 30
f 30 63 31
f 31 63 64
f 31 64 65
f 31 65 32
f 32 65 33
f 33 65 66
f 33 66 34
f 34 66 67
f 34 67 35
f 35 67 94
f 35 94 124
f 35 124 161
f 35 161 194
f 35 194 226
f 35 226 255
f 35 255 285
f 35 285 315
f 35 315 345
f 35 345 344
f 35 344 376
f 35 376 406
f 35 406 405
f 35 405 441
f 35 441 482
f 35 482 524
f 35 524 571
f 35 571 628
f 35 628 690
f 35 690 689
f 35 689 749
f 35 749 806
f 35 806 864
f 35 864 918
f 35 918 948
f 35 948 947
f 35 947 953
f 35 953 926
f 35 926 882
f 35 882 828
f 35 828 826
f 35 826 768
f 35 768 711
f 35 711 649
f 35 649 592
f 35 592 544
f 35 544 499
f 35 499 457
f 35 457 422
f 35 422 388
f 35 388 358
f 35 358 329
f 35 329 297
f 35 297 269
f 35 269 238
f 35 238 208
f 35 208 177
f 35 177 140
f 35 140 106
f 35 106 77
f 35 77 47
f 35 47 38
f 35 38 37
f 35 37 36
f 39 41 68
f 39 68 69
f 39 69 40
f 40 70 71
f 40 71 43
f 40 69 70
f 41 42 68
f 42 57 72
f 42 72 73
f 42 73 68
f 43 71 74
f 43 74 44
f 44 74 75
f 44 75 45
f 45 75 59
f 45 59 58
f 46 47 77
f 46 77 76
f 48 78 49
f 49 79 50
f 49 78 80
f 49 80 81
f 49 81 82
f 49 82 83
f 49 83 79
f 50 79 51
f 51 84 85
f 51 85 52
f 51 79 84
f 52 85 86
f 52 86 53
f 53 86 54
f 54 86 56
f 54 56 55
f 56 86 87
f 56 87 57
f 57 87 72
f 59 75 60
f 60 88 62
f 60 62 61
f 60 75 88
f 62 89 64
f 62 64 63
f 62 88 90
f 62 90 89
f 64 91 92
f 64 92 65
f 64 89 93
f 64 93 91
f 65 92 66
f 66 94 67
f 66 92 94
f 68 95 69
f 68 73 96
f 68 96 95
f 69 97 70
f 69 95 97
f 70 98 99
f 70 99 71
f 70 97 98
f 71 99 100
f 71 100 74
f 72 87 101
f 72 101 73
f 73 101 96
f 74 100 102
f 74 102 103
f 74 103 75
f 75 103 104
f 75 104 88
f 76 77 106
f 76 106 105
f 78 107 80
f 79 83 84
f 80 108 81
f 80 107 108
f 81 108 109
f 81 109 110
f 81 110 111
f 81 111 112
f 81 112 82
f 82 112 83
f 83 112 113
f 83 113 84
f 84 114 85
f 84 113 115
f 84 115 116
f 84 116 114
f 85 117 118
f 85 118 86
f 85 114 119
f 85 119 117
f 86 118 87
f 87 118 120
f 87 120 101
f 88 104 102
f 88 102 90
f 89 90 93
f 90 121 93
f 90 102 121
f 91 122 92
f 91 93 122
f 92 122 123
f 92 123 124
f 92 124 94
f 93 121 125
f 93 125 126
f 93 126 122
f 95 96 127
f 95 127 128
f 95 128 97
f 96 101 127
f 97 128 129
f 97 129 130
f 97 130 131
f 97 131 98
f 98 131 99
f 99 132 133
f 99 133 134
f 99 134 100
f 99 131 132
f 100 134 135
f 100 135 102
f 101 120 136
f 101 136 137
f 101 137 127
f 102 138 121
f 102 104 103
f 102 135 138
f 105 106 140
f 105 140 139
f 107 141 108
f 108 142 109
f 108 141 143
f 108 143 144
f 108 144 142
f 109 142 145
f 109 145 110
f 110 146 147
f 110 147 148
f 110 148 111
f 110 145 149
f 110 149 146
f 111 148 112
f 112 148 150
f 112 150 115
f 112 115 113
f 114 116 119
f 115 150 151
f 115 151 116
f 116 151 152
f 116 152 153
f 116 153 119
f 117 154 155
f 117 155 156
f 117 156 118
f 117 119 157
f 117 157 158
f 117 158 154
f 118 156 136
f 118 136 120
f 119 153 157
f 121 138 125
f 122 159 160
f 122 160 123
f 122 126 159
f 123 160 124
f 124 160 161
f 125 162 163
f 125 163 126
f 125 138 164
f 125 164 165
f 125 165 162
f 126 163 159
f 127 166 129
f 127 129 128
f 127 137 167
f 127 167 166
f 129 168 169
f 129 169 130
f 129 166 170
f 129 170 168
f 130 169 131
f 131 169 171
f 131 171 172
f 131 172 132
f 132 172 133
f 133 173 174
f 133 174 135
f 133 135 134
f 133 172 173
f 135 174 164
f 135 164 138
f 136 175 167
f 136 167 137
f 136 156 175
f 139 140 177
f 139 177 176
f 142 178 145
f 142 144 179
f 142 179 178
f 145 178 149
f 146 149 180
f 146 180 181
f 146 181 182
f 146 182 183
f 146 183 147
f 147 183 184
f 147 184 148
f 148 184 185
f 148 185 150
f 149 178 180
f 150 185 151
f 151 185 152
f 152 185 186
f 152 186 187
f 152 187 158
f 152 158 153
f 153 158 157
f 154 188 155
f 154 158 187
f 154 187 188
f 155 188 189
f 155 189 190
f 155 190 175
f 155 175 156
f 159 191 192
f 159 192 160
f 159 163 193
f 159 193 191
f 160 192 194
f 160 194 161
f 162 165 195
f 162 195 163
f 163 195 193
f 164 174 196
f 164 196 165
f 165 197 195
f 165 196 198
f 165 198 197
f 166 167 170
f 167 199 170
f 167 175 190
f 167 190 199
f 168 170 200
f 168 200 201
f 168 201 169
f 169 202 203
f 169 203 171
f 169 201 202
f 170 199 200
f 171 203 172
f 172 203 204
f 172 204 205
f 172 205 173
f 173 205 206
f 173 206 198
f 173 198 196
f 173 196 174
f 176 177 207
f 177 208 207
f 178 179 209
f 178 209 210
f 178 210 211
f 178 211 180
f 180 211 212
f 180 212 213
f 180 213 181
f 181 213 182
f 182 213 214
f 182 214 215
f 182 215 216
f 182 216 183
f 183 216 217
f 183 217 184
f 184 217 185
f 185 217 186
f 186 217 218
f 186 218 219
f 186 219 220
f 186 220 187
f 187 220 188
f 188 221 189
f 188 220 222
f 188 222 221
f 189 221 190
f 190 223 199
f 190 221 223
f 191 224 192
f 191 193 224
f 192 224 225
f 192 225 226
f 192 226 194
f 193 195 227
f 193 227 224
f 195 228 227
f 195 197 229
f 195 229 228
f 197 198 206
f 197 206 229
f 199 223 230
f 199 230 200
f 200 231 232
f 200 232 201
f 200 230 231
f 201 232 233
f 201 233 202
f 202 233 203
f 203 233 234
f 203 234 235
f 203 235 204
f 204 235 205
f 205 236 206
f 205 235 236
f 206 236 229
f 207 208 237
f 208 238 237
f 210 239 211
f 211 240 241
f 211 241 212
f 211 239 240
f 212 241 213
f 213 242 214
f 213 241 242
f 214 243 244
f 214 244 245
f 214 245 215
f 214 242 243
f 215 245 246
f 215 246 216
f 216 246 247
f 216 247 218
f 216 218 217
f 218 247 248
f 218 248 249
f 218 249 250
f 218 250 251
f 218 251 219
f 219 251 222
f 219 222 220
f 221 222 251
f 221 251 250
f 221 250 223
f 223 252 230
f 223 250 252
f 224 253 225
f 224 227 253
f 225 253 254
f 225 254 226
f 226 254 255
f 227 228 256
f 227 256 257
f 227 257 253
f 228 229 256
f 229 258 256
f 229 236 259
f 229 259 260
f 229 260 258
f 230 252 261
f 230 261 231
f 231 262 263
f 231 263 232
f 231 261 264
f 231 264 262
f 232 263 233
f 233 263 265
f 233 265 266
f 233 266 234
f 234 266 235
f 235 267 259
f 235 259 236
f 235 266 267
f 237 238 269
f 237 269 268
f 239 270 240
f 240 271 272
f 240 272 241
f 240 270 271
f 241 272 242
f 242 273 274
f 242 274 243
f 242 272 273
f 243 274 244
f 244 275 276
f 244 276 245
f 244 274 275
f 245 276 277
f 245 277 246
f 246 277 278
f 246 278 279
f 246 279 247
f 247 279 248
f 248 279 280
f 248 280 250
f 248 250 249
f 250 280 281
f 250 281 252
f 252 281 264
f 252 264 261
f 253 282 283
f 253 283 254
f 253 257 284
f 253 284 282
f 254 283 285
f 254 285 255
f 256 286 257
f 256 258 286
f 257 286 284
f 258 287 286
f 258 260 259
f 258 259 288
f 258 288 287
f 259 267 289
f 259 289 290
f 259 290 288
f 262 291 263
f 262 264 292
f 262 292 291
f 263 291 293
f 263 293 294
f 263 294 265
f 264 281 292
f 265 294 266
f 266 294 295
f 266 295 289
f 266 289 267
f 268 269 297
f 268 297 296
f 270 298 271
f 271 299 300
f 271 300 272
f 271 298 299
f 272 300 301
f 272 301 273
f 273 301 274
f 274 301 302
f 274 302 275
f 275 303 304
f 275 304 305
f 275 305 276
f 275 302 303
f 276 305 306
f 276 306 307
f 276 307 308
f 276 308 309
f 276 309 310
f 276 310 277
f 277 310 278
f 278 310 309
f 278 309 311
f 278 311 279
f 279 311 280
f 280 311 281
f 281 312 292
f 281 311 312
f 282 313 314
f 282 314 283
f 282 284 313
f 283 314 315
f 283 315 285
f 284 286 316
f 284 316 317
f 284 317 313
f 286 287 318
f 286 318 316
f 287 288 319
f 287 319 318
f 288 290 319
f 289 295 320
f 289 320 321
f 289 321 322
f 289 322 290
f 290 322 319
f 291 323 293
f 291 292 323
f 292 312 324
f 292 324 325
f 292 325 323
f 293 326 294
f 293 323 326
f 294 326 327
f 294 327 320
f 294 320 295
f 296 297 329
f 296 329 328
f 298 330 331
f 298 331 299
f 299 331 300
f 300 331 332
f 300 332 333
f 300 333 301
f 301 333 334
f 301 334 302
f 302 334 303
f 303 335 336
f 303 336 304
f 303 334 335
f 304 336 337
f 304 337 338
f 304 338 305
f 305 338 306
f 306 338 339
f 306 339 307
f 307 339 340
f 307 340 308
f 308 340 309
f 309 340 324
f 309 324 311
f 311 324 312
f 313 341 314
f 313 317 342
f 313 342 341
f 314 341 343
f 314 343 344
f 314 344 345
f 314 345 315
f 316 346 342
f 316 342 317
f 316 318 347
f 316 347 346
f 318 319 322
f 318 322 348
f 318 348 347
f 320 327 349
f 320 349 350
f 320 350 351
f 320 351 321
f 321 351 322
f 322 351 352
f 322 352 348
f 323 353 354
f 323 354 326
f 323 325 355
f 323 355 353
f 324 356 355
f 324 355 325
f 324 340 356
f 326 354 349
f 326 349 327
f 328 329 358
f 328 358 357
f 330 359 331
f 331 360 361
f 331 361 332
f 331 359 362
f 331 362 360
f 332 361 363
f 332 363 333
f 333 363 334
f 334 363 364
f 334 364 335
f 335 365 366
f 335 366 336
f 335 364 365
f 336 366 367
f 336 367 368
f 336 368 369
f 336 369 337
f 337 369 370
f 337 370 338
f 338 370 339
f 339 370 371
f 339 371 340
f 340 371 356
f 341 372 373
f 341 373 343
f 341 342 374
f 341 374 372
f 342 346 375
f 342 375 374
f 343 373 376
f 343 376 344
f 346 347 375
f 347 348 352
f 347 352 377
f 347 377 378
f 347 378 379
f 347 379 375
f 349 354 380
f 349 380 381
f 349 381 382
f 349 382 350
f 350 382 351
f 351 383 377
f 351 377 352
f 351 382 383
f 353 384 380
f 353 380 354
f 353 355 384
f 355 356 371
f 355 371 385
f 355 385 384
f 357 386 387
f 357 358 389
f 357 389 424
f 357 424 463
f 357 463 506
f 357 506 552
f 357 552 608
f 357 608 579
f 357 579 533
f 357 533 490
f 357 490 451
f 357 451 417
f 357 417 386
f 358 388 389
f 360 390 361
f 360 362 390
f 361 390 391
f 361 391 363
f 362 392 390
f 363 393 394
f 363 394 364
f 363 391 393
f 364 394 365
f 365 395 366
f 365 394 395
f 366 395 396
f 366 396 397
f 366 397 398
f 366 398 367
f 367 398 368
f 368 398 399
f 368 399 400
f 368 400 370
f 368 370 369
f 370 400 401
f 370 401 371
f 371 401 402
f 371 402 385
f 372 403 373
f 372 374 403
f 373 404 405
f 373 405 406
f 373 406 376
f 373 403 404
f 374 375 407
f 374 407 403
f 375 408 407
f 375 379 409
f 375 409 408
f 377 383 410
f 377 410 411
f 377 411 412
f 377 412 378
f 378 412 409
f 378 409 379
f 380 384 413
f 380 413 414
f 380 414 415
f 380 415 381
f 381 415 382
f 382 415 416
f 382 416 410
f 382 410 383
f 384 385 413
f 385 402 413
f 386 417 418
f 386 418 419
f 386 419 387
f 387 419 421
f 387 421 420
f 388 422 423
f 388 423 389
f 389 423 424
f 390 425 391
f 390 392 426
f 390 426 425
f 391 425 427
f 391 427 428
f 391 428 393
f 393 428 394
f 394 429 430
f 394 430 395
f 394 428 429
f 395 430 396
f 396 431 432
f 396 432 397
f 396 430 431
f 397 432 433
f 397 433 398
f 398 433 434
f 398 434 399
f 399 434 435
f 399 435 436
f 399 436 437
f 399 437 400
f 400 437 401
f 401 437 402
f 402 437 438
f 402 438 413
f 403 439 440
f 403 440 404
f 403 407 439
f 404 440 405
f 405 440 441
f 407 408 442
f 407 442 439
f 408 409 443
f 408 443 444
f 408 444 442
f 409 412 443
f 410 445 446
f 410 446 411
f 410 416 447
f 410 447 445
f 411 446 412
f 412 446 448
f 412 448 443
f 413 438 414
f 414 449 415
f 414 438 449
f 415 449 450
f 415 450 447
f 415 447 416
f 417 451 418
f 418 452 421
f 418 421 419
f 418 451 453
f 418 453 452
f 420 421 454
f 421 452 455
f 421 455 456
f 421 456 454
f 422 457 458
f 422 458 459
f 422 459 423
f 423 459 460
f 423 460 461
f 423 461 424
f 424 461 462
f 424 462 463
f 425 464 465
f 425 465 427
f 425 426 466
f 425 466 464
f 427 465 428
f 428 467 468
f 428 468 429
f 428 465 467
f 429 468 469
f 429 469 430
f 430 469 431
f 431 469 470
f 431 470 471
f 431 471 472
f 431 472 432
f 432 472 473
f 432 473 433
f 433 473 434
f 434 474 435
f 434 473 474
f 435 474 475
f 435 475 476
f 435 476 477
f 435 477 436
f 436 477 437
f 437 477 438
f 438 477 478
f 438 478 449
f 439 479 480
f 439 480 440
f 439 442 481
f 439 481 479
f 440 480 482
f 440 482 441
f 442 444 483
f 442 483 481
f 443 484 485
f 443 485 483
f 443 483 444
f 443 448 446
f 443 446 484
f 445 447 486
f 445 486 446
f 446 486 487
f 446 487 484
f 447 450 488
f 447 488 489
f 447 489 486
f 449 478 488
f 449 488 450
f 451 490 491
f 451 491 453
f 452 453 492
f 452 492 455
f 453 491 492
f 454 456 493
f 455 494 495
f 455 495 456
f 455 492 496
f 455 496 497
f 455 497 494
f 456 495 498
f 456 498 493
f 457 499 500
f 457 500 458
f 458 500 501
f 458 501 502
f 458 502 460
f 458 460 459
f 460 503 504
f 460 504 461
f 460 502 503
f 461 504 462
f 462 504 505
f 462 505 506
f 462 506 463
f 464 507 465
f 464 466 508
f 464 508 507
f 465 507 509
f 465 509 510
f 465 510 467
f 467 510 468
f 468 510 511
f 468 511 469
f 469 512 513
f 469 513 470
f 469 511 512
f 470 513 471
f 471 514 472
f 471 513 514
f 472 514 473
f 473 514 474
f 474 515 516
f 474 516 475
f 474 514 515
f 475 516 517
f 475 517 518
f 475 518 476
f 476 518 519
f 476 519 520
f 476 520 477
f 477 520 478
f 478 520 521
f 478 521 488
f 479 522 480
f 479 481 522
f 480 523 524
f 480 524 482
f 480 522 523
f 481 483 525
f 481 525 526
f 481 526 522
f 483 485 527
f 483 527 525
f 484 528 485
f 484 487 528
f 485 528 527
f 486 529 487
f 486 489 529
f 487 529 530
f 487 530 531
f 487 531 528
f 488 521 489
f 489 532 529
f 489 521 532
f 490 533 491
f 491 533 534
f 491 534 535
f 491 535 536
f 491 536 492
f 492 536 496
f 494 537 495
f 494 497 537
f 495 537 538
f 495 538 539
f 495 539 498
f 496 536 540
f 496 540 497
f 497 540 541
f 497 541 542
f 497 542 543
f 497 543 537
f 499 544 500
f 500 545 546
f 500 546 501
f 500 544 545
f 501 546 595
f 501 595 547
f 501 547 503
f 501 503 502
f 503 547 548
f 503 548 549
f 503 549 550
f 503 550 504
f 504 550 505
f 505 550 551
f 505 551 506
f 506 551 552
f 507 553 554
f 507 554 509
f 507 508 555
f 507 555 556
f 507 556 553
f 509 554 510
f 510 557 511
f 510 554 557
f 511 558 559
f 511 559 512
f 511 557 558
f 512 559 560
f 512 560 513
f 513 560 561
f 513 561 514
f 514 562 563
f 514 563 515
f 514 561 562
f 515 563 516
f 516 563 564
f 516 564 517
f 517 565 566
f 517 566 567
f 517 567 519
f 517 519 518
f 517 564 565
f 519 567 568
f 519 568 569
f 519 569 521
f 519 521 520
f 521 569 532
f 522 570 571
f 522 571 523
f 522 526 570
f 523 571 524
f 525 572 573
f 525 573 526
f 525 527 572
f 526 573 570
f 527 528 531
f 527 531 574
f 527 574 575
f 527 575 572
f 529 532 576
f 529 576 577
f 529 577 530
f 530 577 531
f 531 577 574
f 532 569 578
f 532 578 576
f 533 579 580
f 533 580 534
f 534 580 535
f 535 580 581
f 535 581 582
f 535 582 583
f 535 583 540
f 535 540 536
f 537 584 538
f 537 543 584
f 538 584 585
f 538 585 539
f 539 585 586
f 540 583 541
f 541 583 587
f 541 587 542
f 542 588 589
f 542 589 543
f 542 587 590
f 542 590 591
f 542 591 588
f 543 589 584
f 544 592 545
f 545 593 594
f 545 594 546
f 545 592 593
f 546 594 595
f 547 595 596
f 547 596 548
f 548 596 597
f 548 597 598
f 548 598 599
f 548 599 549
f 549 599 600
f 549 600 550
f 550 600 551
f 551 600 601
f 551 601 602
f 551 602 552
f 552 602 603
f 552 603 604
f 552 604 605
f 552 605 606
f 552 606 607
f 552 607 608
f 553 609 554
f 553 556 610
f 553 610 609
f 554 609 611
f 554 611 612
f 554 612 557
f 557 612 558
f 558 612 613
f 558 613 559
f 559 614 615
f 559 615 560
f 559 613 614
f 560 615 616
f 560 616 617
f 560 617 561
f 561 617 618
f 561 618 562
f 562 618 563
f 563 619 564
f 563 618 620
f 563 620 619
f 564 619 621
f 564 621 565
f 565 621 566
f 566 621 622
f 566 622 623
f 566 623 624
f 566 624 568
f 566 568 567
f 568 624 625
f 568 625 626
f 568 626 578
f 568 578 569
f 570 627 628
f 570 628 571
f 570 573 629
f 570 629 627
f 572 630 629
f 572 629 573
f 572 575 631
f 572 631 630
f 574 577 632
f 574 632 633
f 574 633 631
f 574 631 575
f 576 634 577
f 576 578 634
f 577 634 632
f 578 626 634
f 579 608 580
f 580 608 635
f 580 635 581
f 581 635 636
f 581 636 582
f 582 636 637
f 582 637 638
f 582 638 639
f 582 639 587
f 582 587 583
f 584 640 641
f 584 641 585
f 584 589 642
f 584 642 640
f 585 641 586
f 586 641 643
f 587 639 590
f 588 644 642
f 588 642 589
f 588 591 646
f 588 646 644
f 590 639 645
f 590 645 647
f 590 647 591
f 591 647 648
f 591 648 646
f 592 649 650
f 592 650 593
f 593 650 594
f 594 650 651
f 594 651 652
f 594 652 653
f 594 653 595
f 595 653 654
f 595 654 596
f 596 654 655
f 596 655 597
f 597 656 719
f 597 719 657
f 597 657 658
f 597 658 659
f 597 659 598
f 597 655 656
f 598 659 599
f 599 659 660
f 599 660 601
f 599 601 600
f 601 660 661
f 601 661 662
f 601 662 603
f 601 603 602
f 603 662 663
f 603 663 664
f 603 664 605
f 603 605 604
f 605 664 665
f 605 665 606
f 606 665 607
f 607 666 667
f 607 667 608
f 607 665 666
f 608 668 669
f 608 669 670
f 608 670 635
f 608 667 668
f 609 671 611
f 609 610 672
f 609 672 673
f 609 673 671
f 611 671 612
f 612 674 613
f 612 671 674
f 613 675 676
f 613 676 614
f 613 674 675
f 614 676 615
f 615 677 678
f 615 678 679
f 615 679 616
f 615 676 677
f 616 679 618
f 616 618 617
f 618 679 680
f 618 680 620
f 619 620 680
f 619 680 681
f 619 681 682
f 619 682 621
f 621 682 622
f 622 683 684
f 622 684 623
f 622 682 683
f 623 684 685
f 623 685 625
f 623 625 624
f 625 685 686
f 625 686 687
f 625 687 634
f 625 634 626
f 627 688 689
f 627 689 690
f 627 690 628
f 627 629 688
f 629 630 691
f 629 691 688
f 630 631 692
f 630 692 693
f 630 693 691
f 631 633 692
f 632 634 694
f 632 694 633
f 633 694 692
f 634 687 694
f 635 670 695
f 635 695 636
f 636 695 696
f 636 696 637
f 637 696 697
f 637 697 698
f 637 698 638
f 638 698 699
f 638 699 639
f 639 699 700
f 639 700 645
f 640 701 641
f 640 642 701
f 641 702 703
f 641 703 643
f 641 701 702
f 642 644 704
f 642 704 701
f 644 705 704
f 644 646 706
f 644 706 705
f 645 700 707
f 645 707 647
f 646 648 706
f 647 707 648
f 648 708 706
f 648 707 709
f 648 709 710
f 648 710 708
f 649 711 650
f 650 712 713
f 650 713 651
f 650 711 712
f 651 713 714
f 651 714 652
f 652 714 715
f 652 715 654
f 652 654 653
f 654 715 655
f 655 715 716
f 655 716 656
f 656 716 717
f 656 717 718
f 656 718 719
f 657 719 720
f 657 720 721
f 657 721 658
f 658 661 659
f 658 721 661
f 659 661 660
f 661 721 722
f 661 722 663
f 661 663 662
f 663 722 723
f 663 723 724
f 663 724 665
f 663 665 664
f 665 724 725
f 665 725 666
f 666 725 726
f 666 726 727
f 666 727 667
f 667 727 728
f 667 728 668
f 668 728 670
f 668 670 669
f 670 728 729
f 670 729 730
f 670 730 696
f 670 696 695
f 671 673 731
f 671 731 732
f 671 732 734
f 671 734 674
f 672 731 673
f 674 733 675
f 674 734 733
f 675 733 676
f 676 735 736
f 676 736 677
f 676 733 735
f 677 736 678
f 678 737 738
f 678 738 679
f 678 736 737
f 679 738 739
f 679 739 680
f 680 739 681
f 681 740 741
f 681 741 682
f 681 739 740
f 682 741 683
f 683 741 742
f 683 742 684
f 684 742 743
f 684 743 744
f 684 744 745
f 684 745 685
f 685 745 746
f 685 746 686
f 686 746 747
f 686 747 694
f 686 694 687
f 688 691 748
f 688 748 689
f 689 748 749
f 691 750 748
f 691 693 750
f 692 694 751
f 692 751 752
f 692 752 753
f 692 753 693
f 693 753 750
f 694 747 751
f 696 730 697
f 697 730 754
f 697 754 698
f 698 754 755
f 698 755 756
f 698 756 700
f 698 700 699
f 700 756 757
f 700 757 758
f 700 758 707
f 701 759 760
f 701 760 702
f 701 704 761
f 701 761 759
f 702 760 703
f 704 705 762
f 704 762 761
f 705 706 762
f 706 708 763
f 706 763 764
f 706 764 762
f 707 758 709
f 708 710 763
f 709 758 765
f 709 765 766
f 709 766 710
f 710 766 767
f 710 767 763
f 711 768 769
f 711 769 712
f 712 769 770
f 712 770 713
f 713 770 714
f 714 771 772
f 714 772 773
f 714 773 715
f 714 770 771
f 715 773 774
f 715 774 716
f 716 774 717
f 717 775 777
f 717 777 718
f 717 774 775
f 718 776 778
f 718 778 719
f 718 777 776
f 719 778 720
f 720 778 779
f 720 779 780
f 720 780 721
f 721 780 781
f 721 781 723
f 721 723 722
f 723 781 782
f 723 782 783
f 723 783 725
f 723 725 724
f 725 783 784
f 725 784 726
f 726 784 729
f 726 729 727
f 727 729 728
f 729 785 754
f 729 754 730
f 729 784 785
f 731 786 732
f 732 787 734
f 732 786 787
f 733 734 789
f 733 789 788
f 733 788 735
f 734 787 789
f 735 790 791
f 735 791 736
f 735 788 790
f 736 791 792
f 736 792 793
f 736 793 737
f 737 793 794
f 737 794 738
f 738 794 739
f 739 794 795
f 739 795 796
f 739 796 740
f 740 796 741
f 741 797 798
f 741 798 742
f 741 796 797
f 742 798 743
f 743 798 799
f 743 799 800
f 743 800 744
f 744 800 801
f 744 801 802
f 744 802 746
f 744 746 745
f 746 802 803
f 746 803 804
f 746 804 747
f 747 804 752
f 747 752 751
f 748 750 805
f 748 805 749
f 749 805 806
f 750 753 807
f 750 807 805
f 752 808 753
f 752 804 808
f 753 808 809
f 753 809 807
f 754 785 810
f 754 810 755
f 755 810 756
f 756 810 811
f 756 811 757
f 757 812 765
f 757 765 758
f 757 811 813
f 757 813 814
f 757 814 812
f 759 815 816
f 759 816 760
f 759 761 815
f 761 762 817
f 761 817 818
f 761 818 815
f 762 764 817
f 763 767 819
f 763 819 820
f 763 820 821
f 763 821 764
f 764 821 822
f 764 822 817
f 765 812 823
f 765 823 766
f 766 823 824
f 766 824 825
f 766 825 767
f 767 825 819
f 768 826 769
f 769 827 770
f 769 826 828
f 769 828 827
f 770 829 830
f 770 830 771
f 770 827 829
f 771 830 831
f 771 831 772
f 772 832 773
f 772 831 833
f 772 833 832
f 773 832 774
f 774 832 775
f 775 833 837
f 775 837 777
f 775 832 833
f 776 834 835
f 776 835 836
f 776 836 779
f 776 779 778
f 776 777 834
f 777 837 834
f 779 836 838
f 779 838 839
f 779 839 780
f 780 839 781
f 781 839 782
f 782 839 840
f 782 840 783
f 783 840 784
f 784 840 810
f 784 810 785
f 786 841 787
f 787 842 846
f 787 846 789
f 787 841 843
f 787 843 842
f 788 844 845
f 788 845 790
f 788 789 846
f 788 846 844
f 790 845 791
f 791 845 847
f 791 847 848
f 791 848 849
f 791 849 792
f 792 849 850
f 792 850 794
f 792 794 793
f 794 850 795
f 795 850 851
f 795 851 852
f 795 852 796
f 796 852 797
f 797 853 854
f 797 854 798
f 797 852 853
f 798 854 855
f 798 855 799
f 799 855 800
f 800 855 856
f 800 856 857
f 800 857 801
f 801 857 858
f 801 858 859
f 801 859 803
f 801 803 802
f 803 859 860
f 803 860 861
f 803 861 804
f 804 861 808
f 805 807 862
f 805 862 863
f 805 863 864
f 805 864 806
f 807 809 865
f 807 865 862
f 808 861 865
f 808 865 809
f 810 840 811
f 811 840 866
f 811 866 867
f 811 867 813
f 812 814 823
f 813 867 814
f 814 867 868
f 814 868 869
f 814 869 870
f 814 870 823
f 815 818 874
f 815 874 871
f 815 871 872
f 815 872 816
f 817 873 874
f 817 874 818
f 817 822 875
f 817 875 873
f 819 825 876
f 819 876 820
f 820 876 877
f 820 877 821
f 821 878 875
f 821 875 822
f 821 877 878
f 823 870 879
f 823 879 824
f 824 880 876
f 824 876 825
f 824 879 924
f 824 924 880
f 827 881 883
f 827 883 829
f 827 828 882
f 827 882 881
f 829 883 884
f 829 884 830
f 830 884 885
f 830 885 831
f 831 885 886
f 831 886 887
f 831 887 833
f 833 887 837
f 834 888 889
f 834 889 835
f 834 837 888
f 835 889 890
f 835 890 891
f 835 891 892
f 835 892 836
f 836 892 838
f 837 893 932
f 837 932 888
f 837 887 893
f 838 892 868
f 838 868 867
f 838 867 839
f 839 867 866
f 839 866 840
f 842 894 895
f 842 895 846
f 842 843 896
f 842 896 894
f 844 897 898
f 844 898 845
f 844 846 895
f 844 895 897
f 845 898 899
f 845 899 847
f 847 899 848
f 848 900 901
f 848 901 902
f 848 902 850
f 848 850 849
f 848 899 900
f 850 902 903
f 850 903 851
f 851 903 852
f 852 903 904
f 852 904 905
f 852 905 853
f 853 905 854
f 854 906 907
f 854 907 855
f 854 905 906
f 855 907 856
f 856 907 908
f 856 908 909
f 856 909 857
f 857 909 858
f 858 909 910
f 858 910 911
f 858 911 912
f 858 912 913
f 858 913 860
f 858 860 859
f 860 913 914
f 860 914 915
f 860 915 865
f 860 865 861
f 862 916 917
f 862 917 863
f 862 865 916
f 863 917 918
f 863 918 864
f 865 915 916
f 868 892 869
f 869 892 891
f 869 891 919
f 869 919 879
f 869 879 870
f 871 874 895
f 871 895 894
f 871 894 920
f 871 920 921
f 871 921 872
f 873 875 898
f 873 898 897
f 873 897 895
f 873 895 874
f 875 878 899
f 875 899 898
f 876 880 922
f 876 922 923
f 876 923 877
f 877 923 901
f 877 901 900
f 877 900 899
f 877 899 878
f 879 919 924
f 880 924 922
f 881 925 927
f 881 927 883
f 881 882 925
f 882 926 925
f 883 927 928
f 883 928 884
f 884 928 885
f 885 929 930
f 885 930 886
f 885 928 929
f 886 930 943
f 886 943 931
f 886 931 887
f 887 931 935
f 887 935 893
f 888 932 933
f 888 933 889
f 889 933 934
f 889 934 890
f 890 934 919
f 890 919 891
f 893 935 932
f 894 896 920
f 901 923 922
f 901 922 936
f 901 936 903
f 901 903 902
f 903 936 937
f 903 937 904
f 904 937 905
f 905 938 939
f 905 939 906
f 905 937 938
f 906 939 907
f 907 939 940
f 907 940 941
f 907 941 908
f 908 941 909
f 909 941 942
f 909 942 943
f 909 943 910
f 910 943 930
f 910 930 911
f 911 930 929
f 911 929 912
f 912 929 928
f 912 928 944
f 912 944 914
f 912 914 913
f 914 944 945
f 914 945 916
f 914 916 915
f 916 945 946
f 916 946 917
f 917 946 947
f 917 947 948
f 917 948 918
f 919 934 949
f 919 949 924
f 922 924 950
f 922 950 937
f 922 937 936
f 924 949 951
f 924 951 950
f 925 952 954
f 925 954 927
f 925 926 953
f 925 953 952
f 927 954 944
f 927 944 928
f 931 943 935
f 932 955 956
f 932 956 933
f 932 935 955
f 933 956 934
f 934 956 957
f 934 957 951
f 934 951 949
f 935 942 941
f 935 941 955
f 935 943 942
f 937 950 951
f 937 951 938
f 938 951 939
f 939 951 957
f 939 957 956
f 939 956 940
f 940 956 941
f 941 956 955
f 944 954 945
f 945 954 952
f 945 952 946
f 946 952 953
f 946 953 947

