# https://github.com/mikedh/trimesh
v 0.01670249 0.25200963 -0.17753580
v 0.01670249 0.25200963 -0.17647937
v 0.00010180 0.34667131 -0.10076776
v 0.01670249 0.25574407 -0.17507078
v 0.02516145 0.25511655 -0.17507078
v 0.02484424 0.25200963 -0.17711763
v 0.16586205 0.24900985 -0.14372969
v 0.01719594 0.25200963 -0.13413370
v 0.01670249 0.25204024 -0.13413370
v 0.00010180 0.34667131 -0.06388036
v 0.16586205 0.24900985 -0.10424521
v 0.01670249 0.26212627 -0.17073497
v 0.00010180 0.35435444 -0.09273440
v 0.01744266 0.35394120 -0.09273440
v 0.01709020 0.34665599 -0.10032757
v 0.01670249 0.34357968 -0.10351890
v 0.01670249 0.33343244 -0.11346706
v 0.01670249 0.32328519 -0.12288699
v 0.01670249 0.31330630 -0.13164665
v 0.01670249 0.30360293 -0.13979006
v 0.01670249 0.29425153 -0.14727318
v 0.01670249 0.28534400 -0.15411803
v 0.01670249 0.27695686 -0.16032462
v 0.01670249 0.26918188 -0.16587093
v 0.01670249 0.26410061 -0.16939241
v 0.02579588 0.26145285 -0.17073497
v 0.03855479 0.25986111 -0.17073497
v 0.03763841 0.25355545 -0.17507078
v 0.03739169 0.25200963 -0.17608321
v 0.04655555 0.25200963 -0.17507078
v 0.05018586 0.25200963 -0.17465261
v 0.06315625 0.25200963 -0.17273781
v 0.07566845 0.25200963 -0.17047086
v 0.09018966 0.25200963 -0.16732354
v 0.09604044 0.25200963 -0.16587093
v 0.10439365 0.25200963 -0.16371404
v 0.11613045 0.25200963 -0.16032462
v 0.11919682 0.25200963 -0.15937823
v 0.13470490 0.25200963 -0.15422808
v 0.15102363 0.25200963 -0.14802149
v 0.15282115 0.25200963 -0.14727318
v 0.15151706 0.25283611 -0.14727318
v 0.15634573 0.26084065 -0.13979006
v 0.16896367 0.25285143 -0.13979006
v 0.16744810 0.24900985 -0.14300339
v 0.33201000 0.24900985 0.02844819
v 0.00010180 0.39079571 -0.01119036
v 0.00010180 0.36450166 -0.08148771
v 0.01793610 0.36413434 -0.08142168
v 0.03577039 0.36280280 -0.08142168
v 0.03474826 0.35264027 -0.09273440
v 0.03418434 0.34667131 -0.09900703
v 0.03376138 0.34244710 -0.10338685
v 0.03277451 0.33223864 -0.11346706
v 0.03178763 0.32216793 -0.12288699
v 0.03080074 0.31226557 -0.13164665
v 0.02984911 0.30262339 -0.13979006
v 0.02893274 0.29334855 -0.14727318
v 0.02805158 0.28451753 -0.15411803
v 0.02724095 0.27619159 -0.16032462
v 0.02646554 0.26846254 -0.16587093
v 0.03961216 0.26685554 -0.16587093
v 0.05127847 0.25767249 -0.17073497
v 0.06386116 0.25484106 -0.17073497
v 0.06558820 0.26166713 -0.16587093
v 0.07834712 0.25816226 -0.16587093
v 0.09089457 0.25401461 -0.16587093
v 0.10619118 0.25640219 -0.16032462
v 0.10939853 0.26413122 -0.15411803
v 0.12222794 0.25845307 -0.15411803
v 0.13893437 0.25996825 -0.14727318
v 0.12603447 0.26648819 -0.14727318
v 0.14334008 0.26820236 -0.13979006
v 0.14792201 0.27674258 -0.13164665
v 0.16131535 0.26915127 -0.13164665
v 0.16586205 0.26087126 -0.13549826
v 0.17435625 0.26090187 -0.13164665
v 0.17922014 0.24900985 -0.13747908
v 0.17439149 0.24900985 -0.13979006
v 0.36017126 0.24900985 0.02844819
v 0.16586205 0.39079571 0.04731005
v 0.00010180 0.39079571 -0.04895813
v 0.16586205 0.40536612 0.02844819
v 0.00010180 0.37458768 -0.06966878
v 0.01839429 0.37418976 -0.06960275
v 0.03675726 0.37284291 -0.06960275
v 0.05349894 0.36061418 -0.08142168
v 0.05201863 0.35051286 -0.09273440
v 0.05145469 0.34665599 -0.09680611
v 0.05050306 0.34036562 -0.10338685
v 0.04902275 0.33021837 -0.11346706
v 0.04754244 0.32022420 -0.12288699
v 0.04609735 0.31036776 -0.13164665
v 0.04465228 0.30080211 -0.13979006
v 0.04327771 0.29157317 -0.14727318
v 0.04197362 0.28278807 -0.15411803
v 0.04074003 0.27450803 -0.16032462
v 0.05416861 0.27218169 -0.16032462
v 0.05265304 0.26457506 -0.16587093
v 0.06745622 0.26919720 -0.16032462
v 0.08060284 0.26555461 -0.16032462
v 0.09350275 0.26131511 -0.16032462
v 0.11281735 0.27235004 -0.14727318
v 0.09632239 0.26918188 -0.15411803
v 0.13001722 0.27492127 -0.13979006
v 0.13414097 0.28367576 -0.13164665
v 0.13844094 0.29267514 -0.12288699
v 0.15260969 0.28552768 -0.12288699
v 0.16586205 0.27671197 -0.12389942
v 0.16586205 0.26915127 -0.12951176
v 0.17988981 0.26918188 -0.12288699
v 0.18690370 0.25204024 -0.13164665
v 0.18464798 0.24900985 -0.13481596
v 0.35837373 0.24900985 0.02541091
v 0.35061970 0.26006007 0.02541091
v 0.35174757 0.26093248 0.02844819
v 0.34899840 0.26451385 0.02844819
v 0.33853042 0.27789044 0.02844819
v 0.33560506 0.28131878 0.02844819
v 0.32453793 0.29417503 0.02844819
v 0.30969951 0.30974025 0.02844819
v 0.29412094 0.32455552 0.02844819
v 0.28129151 0.33560577 0.02844819
v 0.27783746 0.33855963 0.02844819
v 0.26091954 0.35178319 0.02844819
v 0.24703276 0.36154780 0.02844819
v 0.24333197 0.36414966 0.02844819
v 0.23949020 0.36658317 0.02844819
v 0.22514522 0.37565905 0.02844819
v 0.22123295 0.37789357 0.02844819
v 0.20646502 0.38626543 0.02844819
v 0.18725616 0.39593822 0.02844819
v 0.16765958 0.40466207 0.02844819
v 0.01317793 0.39079571 -0.04853996
v 0.01888773 0.38409212 -0.05727760
v 0.00010180 0.38459718 -0.05718957
v 0.16709565 0.40331525 0.02541091
v 0.16586205 0.40377438 0.02541091
v 0.13985077 0.39079571 -0.01330325
v 0.13618521 0.39079571 -0.01519604
v 0.13170902 0.39079571 -0.01750700
v 0.11856240 0.39079571 -0.02377962
v 0.10037564 0.39079571 -0.03117470
v 0.09790845 0.39079571 -0.03209909
v 0.07778319 0.39079571 -0.03837171
v 0.05797514 0.39079571 -0.04319172
v 0.05078503 0.39079571 -0.04442424
v 0.03851955 0.39079571 -0.04642707
v 0.03506547 0.39079571 -0.04680123
v 0.01920493 0.39079571 -0.04831986
v 0.03770889 0.38268405 -0.05727760
v 0.05645958 0.38035768 -0.05727760
v 0.05497926 0.37056246 -0.06960275
v 0.07313076 0.36742494 -0.06960275
v 0.07115701 0.35753787 -0.08142168
v 0.06918325 0.34754369 -0.09273440
v 0.06713901 0.33747298 -0.10338685
v 0.06516525 0.32743287 -0.11346706
v 0.06319150 0.31751519 -0.12288699
v 0.06125298 0.30775058 -0.13164665
v 0.05938496 0.29824615 -0.13979006
v 0.05751695 0.28909373 -0.14727318
v 0.05578991 0.28038517 -0.15411803
v 0.06950046 0.27730885 -0.15411803
v 0.08299954 0.27357444 -0.15411803
v 0.11637717 0.28096676 -0.13979006
v 0.09931827 0.27753845 -0.14727318
v 0.10245514 0.28633884 -0.13979006
v 0.08557247 0.28208405 -0.14727318
v 0.12007796 0.28990492 -0.13164665
v 0.14274091 0.30182755 -0.11346706
v 0.15740310 0.29446581 -0.11346706
v 0.12388448 0.29911855 -0.12288699
v 0.12779675 0.30846992 -0.11346706
v 0.16646123 0.27769148 -0.12288699
v 0.17167757 0.28638476 -0.11346706
v 0.18545863 0.27761495 -0.11346706
v 0.19885197 0.26818705 -0.11346706
v 0.19282496 0.26002946 -0.12288699
v 0.19078071 0.24900985 -0.13164665
v 0.20537241 0.25026485 -0.12288699
v 0.19677247 0.24900985 -0.12841129
v 0.34920987 0.24900985 0.01084083
v 0.34455746 0.25559101 0.01084083
v 0.33162230 0.27219698 0.01084083
v 0.33740258 0.27695686 0.02541091
v 0.32344532 0.29319549 0.02541091
v 0.30867738 0.30871481 0.02541091
v 0.29313406 0.32348415 0.02541091
v 0.27692106 0.33742705 0.02541091
v 0.26003841 0.35060468 0.02541091
v 0.24252132 0.36294055 0.02541091
v 0.22440505 0.37440401 0.02541091
v 0.20576011 0.38497981 0.02541091
v 0.18662173 0.39462197 0.02541091
v 0.16586205 0.39564741 0.01084083
v 0.16586205 0.40034607 0.01920433
v 0.16586205 0.40334585 0.02461859
v 0.18344963 0.38784185 0.01084083
v 0.13900487 0.38839284 -0.01750700
v 0.15641621 0.39079571 -0.00348715
v 0.13597375 0.37995976 -0.03117470
v 0.11715257 0.38615829 -0.03117470
v 0.09575847 0.38237795 -0.04442424
v 0.11443866 0.37722015 -0.04442424
v 0.07693730 0.38660213 -0.04442424
v 0.05786940 0.38992333 -0.04442424
v 0.07506928 0.37712833 -0.05727760
v 0.09346750 0.37299597 -0.05727760
v 0.09103555 0.36339971 -0.06960275
v 0.08856836 0.35361978 -0.08142168
v 0.08684132 0.34665599 -0.08938901
v 0.08613641 0.34371743 -0.09273440
v 0.08363397 0.33376914 -0.10338685
v 0.08116677 0.32385150 -0.11346706
v 0.07869957 0.31402564 -0.12288699
v 0.07626763 0.30436817 -0.13164665
v 0.07390617 0.29498619 -0.13979006
v 0.07165045 0.28592560 -0.14727318
v 0.10573298 0.29546064 -0.13164665
v 0.08828639 0.29100686 -0.13979006
v 0.14714661 0.31108707 -0.10338685
v 0.16219650 0.30348048 -0.10338685
v 0.16586205 0.30144492 -0.10340886
v 0.10908132 0.30481201 -0.12288699
v 0.11250015 0.31436238 -0.11346706
v 0.13170902 0.31794375 -0.10338685
v 0.17692918 0.29516983 -0.10340886
v 0.19116841 0.28612456 -0.10340886
v 0.20498471 0.27640587 -0.10340886
v 0.21178712 0.25810105 -0.11346706
v 0.21460676 0.24900985 -0.11817703
v 0.20681748 0.24900985 -0.12288699
v 0.20435029 0.24900985 -0.12429558
v 0.33941159 0.24900985 -0.00348715
v 0.33814275 0.25083116 -0.00348715
v 0.32541907 0.26711571 -0.00348715
v 0.31195521 0.28277278 -0.00348715
v 0.31787652 0.28816015 0.01084083
v 0.30335528 0.30340394 0.01084083
v 0.28809392 0.31791314 0.01084083
v 0.27216291 0.33162645 0.01084083
v 0.25556219 0.34457451 0.01084083
v 0.23832709 0.35669610 0.01084083
v 0.22056328 0.36797592 0.01084083
v 0.20223555 0.37835273 0.01084083
v 0.16586205 0.39079571 0.00289552
v 0.16187929 0.39079571 0.00001232
v 0.18006603 0.38060257 -0.00348715
v 0.16113913 0.38897443 -0.00348715
v 0.15786129 0.38110763 -0.01750700
v 0.15444246 0.37284291 -0.03117470
v 0.13283688 0.37115937 -0.04442424
v 0.15088265 0.36421087 -0.04442424
v 0.11165425 0.36799121 -0.05727760
v 0.10876411 0.35850209 -0.06960275
v 0.10583872 0.34885991 -0.08142168
v 0.10516905 0.34665599 -0.08399676
v 0.10287809 0.33908001 -0.09273440
v 0.09988221 0.32926947 -0.10338685
v 0.09692157 0.31948954 -0.11346706
v 0.09396094 0.30978614 -0.12288699
v 0.09110604 0.30026641 -0.13164665
v 0.15151706 0.32036194 -0.09273440
v 0.16586205 0.31027591 -0.09541953
v 0.11595422 0.32400453 -0.10338685
v 0.13562128 0.32738695 -0.09273440
v 0.11940829 0.33363140 -0.09273440
v 0.18218078 0.30395493 -0.09273440
v 0.19684297 0.29464948 -0.09273440
v 0.21108221 0.28463998 -0.09273440
v 0.21830755 0.26601374 -0.10340886
v 0.22236080 0.24900985 -0.11346706
v 0.33571079 0.24900985 -0.00848323
v 0.31886339 0.26171303 -0.01750700
v 0.30564624 0.27704868 -0.01750700
v 0.29165375 0.29172620 -0.01750700
v 0.29768074 0.29774109 -0.00348715
v 0.28273660 0.31199008 -0.00348715
v 0.26705229 0.32547382 -0.00348715
v 0.25080404 0.33814639 -0.00348715
v 0.23388614 0.35003841 -0.00348715
v 0.21643955 0.36110395 -0.00348715
v 0.19846426 0.37129712 -0.00348715
v 0.16586205 0.38689294 -0.00348715
v 0.19444627 0.36378235 -0.01750700
v 0.17640050 0.37290412 -0.01750700
v 0.16586205 0.38092399 -0.01246690
v 0.16586205 0.37757218 -0.01750700
v 0.17255872 0.36479247 -0.03117470
v 0.16857596 0.35635939 -0.04444624
v 0.14718185 0.35528803 -0.05727760
v 0.12955904 0.36206818 -0.05727760
v 0.16586205 0.35063529 -0.05287576
v 0.12621070 0.35274741 -0.06960275
v 0.12406072 0.34665599 -0.07719592
v 0.11250015 0.34667131 -0.08142168
v 0.13953355 0.33681485 -0.08142168
v 0.15588753 0.32956028 -0.08142168
v 0.16586205 0.32457083 -0.08144369
v 0.16586205 0.31437767 -0.09152390
v 0.16586205 0.31315327 -0.09273440
v 0.16706041 0.31254107 -0.09273440
v 0.12282712 0.34324297 -0.08142168
v 0.17188905 0.32154042 -0.08144369
v 0.18743238 0.31270942 -0.08144369
v 0.20251751 0.30312845 -0.08144369
v 0.21717970 0.29282817 -0.08144369
v 0.22479276 0.27394176 -0.09273440
v 0.23110172 0.25499412 -0.10340886
v 0.22370014 0.24900985 -0.11260870
v 0.32873213 0.24900985 -0.01750700
v 0.31738305 0.24900985 -0.03117470
v 0.31191999 0.25603485 -0.03117470
v 0.32513708 0.24900985 -0.02184281
v 0.29898483 0.27103379 -0.03117470
v 0.28534478 0.28538993 -0.03117470
v 0.27699155 0.30566910 -0.01750700
v 0.26169494 0.31889266 -0.01750700
v 0.24572867 0.33130503 -0.01750700
v 0.22916321 0.34296748 -0.01750700
v 0.21206908 0.35380346 -0.01750700
v 0.19021678 0.35588494 -0.03117470
v 0.18581107 0.34765083 -0.04444624
v 0.16586205 0.34763551 -0.05644125
v 0.16441697 0.34763551 -0.05727760
v 0.16399403 0.34667131 -0.05859815
v 0.15394902 0.34667131 -0.06368227
v 0.14358680 0.34667131 -0.06889845
v 0.14200075 0.34667131 -0.06960275
v 0.14337534 0.34612033 -0.06960275
v 0.16018750 0.33868206 -0.06960275
v 0.17661196 0.33040205 -0.06960275
v 0.19257824 0.32135677 -0.06960275
v 0.20812157 0.31151563 -0.06960275
v 0.22317146 0.30093986 -0.06960275
v 0.23769265 0.28962943 -0.06960275
v 0.23127796 0.28182384 -0.08144369
v 0.24484754 0.27014610 -0.08144369
v 0.23797463 0.26258540 -0.09273440
v 0.25059256 0.25060159 -0.09273440
v 0.23737545 0.24900985 -0.10340886
v 0.23268779 0.24900985 -0.10660020
v 0.22567390 0.24900985 -0.11133216
v 0.30687988 0.24900985 -0.04294962
v 0.30469462 0.25011182 -0.04444624
v 0.29207668 0.26475874 -0.04444624
v 0.27871859 0.27877814 -0.04444624
v 0.26472607 0.29210883 -0.04444624
v 0.27099979 0.29902673 -0.03117470
v 0.25598514 0.31195948 -0.03117470
v 0.24037133 0.32414228 -0.03117470
v 0.22419359 0.33551392 -0.03117470
v 0.20745191 0.34610501 -0.03117470
v 0.20265850 0.33810049 -0.04444624
v 0.18126439 0.33912590 -0.05727760
v 0.19768886 0.32982045 -0.05727760
v 0.16586205 0.34691617 -0.05727760
v 0.16586205 0.34561524 -0.05873021
v 0.21361989 0.31974974 -0.05727760
v 0.22905748 0.30888316 -0.05727760
v 0.24396639 0.29728195 -0.05727760
v 0.25161469 0.27763027 -0.06960275
v 0.25778267 0.25782555 -0.08144369
v 0.25207287 0.24900985 -0.09273440
v 0.25094503 0.24900985 -0.09361477
v 0.24897127 0.24900985 -0.09506738
v 0.25993267 0.24900985 -0.08646178
v 0.30554050 0.24900985 -0.04444624
v 0.30335528 0.24900985 -0.04673520
v 0.29288733 0.24900985 -0.05727760
v 0.28492182 0.25828469 -0.05727760
v 0.27191618 0.27195209 -0.05727760
v 0.25824088 0.28496137 -0.05727760
v 0.25006390 0.30473548 -0.04444624
v 0.23483777 0.31664282 -0.04444624
v 0.21901247 0.32773897 -0.04444624
v 0.26490229 0.26495770 -0.06960275
v 0.26617116 0.24900985 -0.08144369
v 0.27984646 0.24900985 -0.06960275
v 0.27755547 0.25162700 -0.06960275
v 0.27470058 0.24900985 -0.07418066
f 1 2 10
f 1 10 3
f 1 3 4
f 1 4 5
f 1 5 6
f 1 6 7
f 1 7 11
f 1 11 2
f 2 8 9
f 2 9 10
f 2 11 8
f 3 12 4
f 3 10 47
f 3 47 82
f 3 82 136
f 3 136 84
f 3 84 48
f 3 48 13
f 3 13 14
f 3 14 15
f 3 15 16
f 3 16 17
f 3 17 18
f 3 18 19
f 3 19 20
f 3 20 21
f 3 21 22
f 3 22 23
f 3 23 24
f 3 24 25
f 3 25 12
f 4 12 26
f 4 26 5
f 5 26 27
f 5 27 28
f 5 28 6
f 6 28 29
f 6 29 7
f 7 29 30
f 7 30 31
f 7 31 32
f 7 32 33
f 7 33 34
f 7 34 35
f 7 35 36
f 7 36 37
f 7 37 38
f 7 38 39
f 7 39 40
f 7 40 41
f 7 41 42
f 7 42 43
f 7 43 44
f 7 44 45
f 7 45 79
f 7 79 78
f 7 78 113
f 7 113 180
f 7 180 182
f 7 182 234
f 7 234 233
f 7 233 232
f 7 232 273
f 7 273 311
f 7 311 344
f 7 344 343
f 7 343 342
f 7 342 367
f 7 367 366
f 7 366 365
f 7 365 368
f 7 368 379
f 7 379 382
f 7 382 380
f 7 380 371
f 7 371 370
f 7 370 369
f 7 369 345
f 7 345 313
f 7 313 315
f 7 315 312
f 7 312 274
f 7 274 235
f 7 235 183
f 7 183 114
f 7 114 80
f 7 80 46
f 7 46 11
f 8 11 46
f 8 46 9
f 9 47 10
f 9 46 47
f 12 25 26
f 13 48 14
f 14 49 50
f 14 50 51
f 14 51 52
f 14 52 15
f 14 48 49
f 15 52 53
f 15 53 16
f 16 53 54
f 16 54 17
f 17 54 55
f 17 55 18
f 18 55 56
f 18 56 19
f 19 56 20
f 20 56 57
f 20 57 58
f 20 58 21
f 21 58 59
f 21 59 22
f 22 59 60
f 22 60 23
f 23 60 24
f 24 60 61
f 24 61 25
f 25 61 26
f 26 61 62
f 26 62 27
f 27 62 63
f 27 63 28
f 28 63 31
f 28 31 30
f 28 30 29
f 31 63 32
f 32 64 33
f 32 63 64
f 33 64 65
f 33 65 66
f 33 66 67
f 33 67 34
f 34 67 35
f 35 67 36
f 36 67 68
f 36 68 37
f 37 68 69
f 37 69 70
f 37 70 38
f 38 70 39
f 39 71 40
f 39 70 72
f 39 72 71
f 40 71 42
f 40 42 41
f 42 71 43
f 43 71 73
f 43 73 74
f 43 74 75
f 43 75 76
f 43 76 44
f 44 77 78
f 44 78 79
f 44 79 45
f 44 76 77
f 46 80 81
f 46 81 47
f 47 81 83
f 47 83 82
f 48 84 49
f 49 84 85
f 49 85 86
f 49 86 50
f 50 86 87
f 50 87 88
f 50 88 51
f 51 88 52
f 52 88 89
f 52 89 90
f 52 90 53
f 53 90 54
f 54 90 91
f 54 91 92
f 54 92 55
f 55 92 56
f 56 92 93
f 56 93 94
f 56 94 57
f 57 94 58
f 58 94 95
f 58 95 59
f 59 95 96
f 59 96 60
f 60 96 97
f 60 97 62
f 60 62 61
f 62 97 98
f 62 98 99
f 62 99 63
f 63 99 65
f 63 65 64
f 65 100 66
f 65 99 100
f 66 100 101
f 66 101 102
f 66 102 67
f 67 102 68
f 68 102 69
f 69 103 70
f 69 102 104
f 69 104 103
f 70 103 72
f 71 72 73
f 72 103 105
f 72 105 73
f 73 105 74
f 74 105 106
f 74 106 107
f 74 107 108
f 74 108 109
f 74 109 75
f 75 109 110
f 75 110 77
f 75 77 76
f 77 111 112
f 77 112 78
f 77 110 109
f 77 109 111
f 78 112 113
f 80 114 115
f 80 115 116
f 80 116 81
f 81 116 117
f 81 117 118
f 81 118 119
f 81 119 120
f 81 120 121
f 81 121 122
f 81 122 123
f 81 123 124
f 81 124 125
f 81 125 126
f 81 126 127
f 81 127 128
f 81 128 129
f 81 129 130
f 81 130 131
f 81 131 132
f 81 132 133
f 81 133 83
f 82 83 134
f 82 134 135
f 82 135 136
f 83 133 137
f 83 137 138
f 83 138 139
f 83 139 140
f 83 140 141
f 83 141 142
f 83 142 143
f 83 143 144
f 83 144 145
f 83 145 146
f 83 146 147
f 83 147 148
f 83 148 149
f 83 149 150
f 83 150 134
f 84 136 135
f 84 135 85
f 85 135 86
f 86 135 151
f 86 151 152
f 86 152 153
f 86 153 87
f 87 153 154
f 87 154 155
f 87 155 156
f 87 156 88
f 88 156 89
f 89 156 157
f 89 157 90
f 90 157 158
f 90 158 91
f 91 158 92
f 92 158 159
f 92 159 160
f 92 160 93
f 93 160 94
f 94 160 161
f 94 161 95
f 95 161 162
f 95 162 163
f 95 163 96
f 96 163 98
f 96 98 97
f 98 163 164
f 98 164 100
f 98 100 99
f 100 164 165
f 100 165 101
f 101 165 102
f 102 165 104
f 103 166 105
f 103 104 167
f 103 167 168
f 103 168 166
f 104 165 169
f 104 169 167
f 105 166 106
f 106 166 170
f 106 170 107
f 107 171 172
f 107 172 108
f 107 170 173
f 107 173 174
f 107 174 171
f 108 172 175
f 108 175 109
f 109 175 111
f 111 175 176
f 111 176 177
f 111 177 178
f 111 178 179
f 111 179 112
f 112 180 113
f 112 179 181
f 112 181 182
f 112 182 180
f 114 183 115
f 115 183 184
f 115 184 185
f 115 185 186
f 115 186 117
f 115 117 116
f 117 186 118
f 118 186 119
f 119 187 120
f 119 186 187
f 120 187 188
f 120 188 121
f 121 188 122
f 122 188 189
f 122 189 123
f 123 190 124
f 123 189 190
f 124 190 125
f 125 191 192
f 125 192 126
f 125 190 191
f 126 192 127
f 127 192 128
f 128 192 193
f 128 193 129
f 129 193 130
f 130 193 194
f 130 194 131
f 131 194 195
f 131 195 132
f 132 195 137
f 132 137 133
f 134 150 135
f 135 150 149
f 135 149 151
f 137 196 197
f 137 197 198
f 137 198 138
f 137 195 199
f 137 199 196
f 138 198 139
f 139 200 140
f 139 198 197
f 139 197 201
f 139 201 200
f 140 200 141
f 141 200 202
f 141 202 203
f 141 203 142
f 142 203 143
f 143 204 144
f 143 203 205
f 143 205 204
f 144 204 145
f 145 206 146
f 145 204 206
f 146 207 147
f 146 206 207
f 147 207 148
f 148 151 149
f 148 207 151
f 151 207 152
f 152 207 208
f 152 208 154
f 152 154 153
f 154 208 209
f 154 209 210
f 154 210 155
f 155 210 211
f 155 211 156
f 156 211 212
f 156 212 213
f 156 213 214
f 156 214 157
f 157 214 215
f 157 215 158
f 158 215 159
f 159 215 216
f 159 216 160
f 160 216 217
f 160 217 218
f 160 218 161
f 161 218 219
f 161 219 162
f 162 219 163
f 163 219 164
f 164 219 169
f 164 169 165
f 166 168 220
f 166 220 170
f 167 169 168
f 168 169 221
f 168 221 220
f 169 219 218
f 169 218 221
f 170 220 173
f 171 222 172
f 171 174 222
f 172 222 223
f 172 223 224
f 172 224 176
f 172 176 175
f 173 220 225
f 173 225 226
f 173 226 174
f 174 226 227
f 174 227 222
f 176 224 228
f 176 228 229
f 176 229 177
f 177 229 230
f 177 230 178
f 178 230 231
f 178 231 181
f 178 181 179
f 181 231 232
f 181 232 233
f 181 233 234
f 181 234 182
f 183 235 236
f 183 236 184
f 184 236 185
f 185 237 238
f 185 238 239
f 185 239 187
f 185 187 186
f 185 236 237
f 187 239 188
f 188 240 241
f 188 241 189
f 188 239 240
f 189 241 242
f 189 242 190
f 190 242 191
f 191 242 243
f 191 243 192
f 192 244 245
f 192 245 193
f 192 243 244
f 193 245 194
f 194 246 199
f 194 199 195
f 194 245 246
f 196 247 248
f 196 248 201
f 196 201 197
f 196 199 249
f 196 249 247
f 199 246 249
f 200 201 250
f 200 250 251
f 200 251 252
f 200 252 202
f 201 248 250
f 202 253 205
f 202 205 203
f 202 252 254
f 202 254 253
f 204 205 255
f 204 255 209
f 204 209 208
f 204 208 206
f 205 253 255
f 206 208 207
f 209 255 210
f 210 255 256
f 210 256 257
f 210 257 211
f 211 257 258
f 211 258 212
f 212 258 213
f 213 258 259
f 213 259 260
f 213 260 214
f 214 260 261
f 214 261 215
f 215 261 216
f 216 261 262
f 216 262 263
f 216 263 217
f 217 263 218
f 218 263 221
f 220 221 263
f 220 263 262
f 220 262 225
f 222 227 264
f 222 264 265
f 222 265 223
f 223 265 224
f 224 265 228
f 225 262 261
f 225 261 226
f 226 266 227
f 226 261 266
f 227 267 264
f 227 266 268
f 227 268 267
f 228 269 270
f 228 270 229
f 228 265 269
f 229 270 271
f 229 271 230
f 230 271 272
f 230 272 231
f 231 272 273
f 231 273 232
f 235 274 236
f 236 274 275
f 236 275 237
f 237 275 238
f 238 275 276
f 238 276 277
f 238 277 278
f 238 278 240
f 238 240 239
f 240 278 279
f 240 279 241
f 241 279 242
f 242 280 243
f 242 279 280
f 243 280 281
f 243 281 244
f 244 282 245
f 244 281 282
f 245 282 283
f 245 283 284
f 245 284 246
f 246 284 249
f 247 285 248
f 247 249 285
f 248 285 250
f 249 284 286
f 249 286 287
f 249 287 288
f 249 288 285
f 250 285 251
f 251 285 288
f 251 288 289
f 251 289 252
f 252 289 287
f 252 287 290
f 252 290 291
f 252 291 254
f 253 254 292
f 253 292 293
f 253 293 255
f 254 291 294
f 254 294 292
f 255 293 295
f 255 295 256
f 256 295 296
f 256 296 297
f 256 297 257
f 257 297 258
f 258 297 268
f 258 268 259
f 259 268 266
f 259 266 260
f 260 266 261
f 264 267 298
f 264 298 299
f 264 299 300
f 264 300 301
f 264 301 302
f 264 302 265
f 265 302 303
f 265 303 269
f 267 268 298
f 268 297 304
f 268 304 298
f 269 303 305
f 269 305 306
f 269 306 270
f 270 307 308
f 270 308 271
f 270 306 307
f 271 308 309
f 271 309 272
f 272 309 310
f 272 310 311
f 272 311 273
f 274 312 275
f 275 313 314
f 275 314 276
f 275 312 315
f 275 315 313
f 276 316 317
f 276 317 277
f 276 314 316
f 277 317 318
f 277 318 279
f 277 279 278
f 279 318 319
f 279 319 280
f 280 319 281
f 281 319 320
f 281 320 321
f 281 321 282
f 282 321 283
f 283 322 284
f 283 321 322
f 284 322 286
f 286 322 323
f 286 323 287
f 287 289 288
f 287 323 290
f 290 323 291
f 291 323 324
f 291 324 325
f 291 325 294
f 292 294 326
f 292 326 327
f 292 327 328
f 292 328 329
f 292 329 293
f 293 329 295
f 294 325 326
f 295 329 330
f 295 330 296
f 296 304 297
f 296 330 298
f 296 298 304
f 298 330 331
f 298 331 332
f 298 332 299
f 299 332 300
f 300 305 301
f 300 332 305
f 301 305 302
f 302 305 303
f 305 333 334
f 305 334 306
f 305 332 333
f 306 334 335
f 306 335 307
f 307 335 308
f 308 335 336
f 308 336 337
f 308 337 338
f 308 338 309
f 309 338 339
f 309 339 340
f 309 340 310
f 310 340 341
f 310 341 342
f 310 342 343
f 310 343 344
f 310 344 311
f 313 345 346
f 313 346 314
f 314 346 347
f 314 347 316
f 316 347 317
f 317 347 348
f 317 348 349
f 317 349 350
f 317 350 318
f 318 350 319
f 319 350 351
f 319 351 352
f 319 352 320
f 320 352 321
f 321 352 353
f 321 353 322
f 322 354 323
f 322 353 354
f 323 354 355
f 323 355 324
f 324 356 325
f 324 355 357
f 324 357 356
f 325 358 326
f 325 356 358
f 326 358 327
f 327 332 328
f 327 358 359
f 327 359 332
f 328 332 329
f 329 331 330
f 329 332 331
f 332 359 333
f 333 359 356
f 333 356 334
f 334 357 360
f 334 360 335
f 334 356 357
f 335 360 336
f 336 361 362
f 336 362 337
f 336 360 361
f 337 362 363
f 337 363 339
f 337 339 338
f 339 363 364
f 339 364 341
f 339 341 340
f 341 365 366
f 341 366 367
f 341 367 342
f 341 364 368
f 341 368 365
f 345 369 346
f 346 369 370
f 346 370 371
f 346 371 372
f 346 372 347
f 347 372 373
f 347 373 348
f 348 373 349
f 349 373 374
f 349 374 362
f 349 362 375
f 349 375 351
f 349 351 350
f 351 375 376
f 351 376 352
f 352 376 353
f 353 376 377
f 353 377 355
f 353 355 354
f 355 377 360
f 355 360 357
f 356 359 358
f 360 377 376
f 360 376 361
f 361 376 362
f 362 374 363
f 362 376 375
f 363 374 373
f 363 373 378
f 363 378 364
f 364 378 379
f 364 379 368
f 371 380 372
f 372 380 381
f 372 381 378
f 372 378 373
f 378 381 382
f 378 382 379
f 380 382 381

