# https://github.com/mikedh/trimesh
v 0.48720095 -0.11151221 0.24720567
v 0.48496813 -0.12148854 0.24720567
v 0.48718008 -0.11151221 0.24558327
v 0.48715919 -0.11151221 0.24856848
v 0.47843653 -0.14514208 0.24720567
v 0.48492637 -0.12148854 0.24441513
v 0.48488462 -0.12146842 0.24954194
v 0.48715919 -0.11151221 0.24441513
v 0.48711747 -0.11151221 0.24954194
v 0.47075725 -0.16845369 0.24720567
v 0.47839481 -0.14514208 0.24441513
v 0.47835308 -0.14512196 0.24954194
v 0.48471770 -0.12142820 0.24106216
v 0.48695052 -0.11151221 0.24106216
v 0.48690879 -0.11151221 0.25144553
v 0.48467594 -0.12142820 0.25144553
v 0.46193025 -0.19134291 0.24720567
v 0.47071552 -0.16843358 0.24441513
v 0.47067377 -0.16843358 0.24954194
v 0.47818613 -0.14508173 0.24106216
v 0.47814441 -0.14506163 0.25144553
v 0.48436296 -0.12134775 0.23710349
v 0.48657492 -0.11151221 0.23710349
v 0.48670012 -0.11151221 0.25235409
v 0.48436296 -0.12134775 0.25298142
v 0.45197639 -0.21378964 0.24720567
v 0.46188849 -0.19132280 0.24441513
v 0.46184677 -0.19132280 0.24954194
v 0.46170071 -0.19126245 0.24106216
v 0.47050685 -0.16837323 0.24106216
v 0.47046509 -0.16835311 0.25144553
v 0.47783136 -0.14496106 0.23710349
v 0.47783136 -0.14496106 0.25298142
v 0.47730970 -0.14480016 0.23249587
v 0.48382038 -0.12120695 0.23249587
v 0.48599061 -0.11151221 0.23249587
v 0.48655406 -0.11151221 0.25298142
v 0.48609495 -0.11151221 0.25417119
v 0.48392472 -0.12122706 0.25417119
v 0.44093740 -0.23567319 0.24720567
v 0.45193464 -0.21376953 0.24441513
v 0.45189291 -0.21374941 0.24954194
v 0.46163809 -0.19124234 0.25144553
v 0.45170510 -0.21364884 0.25144553
v 0.45174685 -0.21366896 0.24106216
v 0.45141298 -0.21350804 0.23710349
v 0.46134594 -0.19110155 0.23710349
v 0.47015208 -0.16825256 0.23710349
v 0.47015208 -0.16823244 0.25298142
v 0.46134594 -0.19110155 0.25298142
v 0.47739315 -0.14484037 0.25417119
v 0.46973473 -0.16809164 0.25417119
v 0.46963039 -0.16805142 0.23249587
v 0.46892089 -0.16778994 0.22713111
v 0.47657931 -0.14457890 0.22713111
v 0.48309001 -0.12102593 0.22713111
v 0.48521852 -0.11151221 0.22713111
v 0.48553154 -0.11151221 0.25507975
v 0.48338217 -0.12110638 0.25507975
v 0.47687146 -0.14467946 0.25507975
v 0.42883417 -0.25701368 0.24720567
v 0.44089568 -0.23565307 0.24441513
v 0.44085395 -0.23563296 0.24954194
v 0.44066614 -0.23553239 0.25144553
v 0.45139208 -0.21350804 0.25298142
v 0.44037399 -0.23537149 0.25298142
v 0.44070786 -0.23555250 0.24106216
v 0.44037399 -0.23537149 0.23710349
v 0.43989402 -0.23511000 0.23249587
v 0.45091212 -0.21326669 0.23249587
v 0.46082425 -0.19090042 0.23249587
v 0.46092859 -0.19094063 0.25417119
v 0.45099562 -0.21332702 0.25417119
v 0.46921304 -0.16791062 0.25507975
v 0.46042776 -0.19071940 0.25507975
v 0.46013564 -0.19059871 0.22713111
v 0.45923832 -0.19023666 0.22096598
v 0.46800274 -0.16746813 0.22096598
v 0.47564027 -0.14429730 0.22096598
v 0.48215097 -0.12078457 0.22096598
v 0.48482203 -0.11151221 0.22468668
v 0.48528111 -0.11151221 0.25536096
v 0.48277700 -0.12094548 0.25577196
v 0.47626629 -0.14449844 0.25577196
v 0.46862876 -0.16768937 0.25577196
v 0.41568756 -0.27775073 0.24720567
v 0.42879245 -0.25699356 0.24441513
v 0.42875072 -0.25697345 0.24954194
v 0.41562498 -0.27771050 0.24954194
v 0.42856291 -0.25687286 0.25144553
v 0.43997750 -0.23517035 0.25417119
v 0.42789513 -0.25647059 0.25417119
v 0.42827076 -0.25669184 0.25298142
v 0.42860463 -0.25689298 0.24106216
v 0.42829162 -0.25669184 0.23710349
v 0.42781168 -0.25641024 0.23249587
v 0.42716476 -0.25602812 0.22713111
v 0.43922627 -0.23474796 0.22713111
v 0.45022351 -0.21294487 0.22713111
v 0.45049477 -0.21308567 0.25507975
v 0.43949753 -0.23490886 0.25507975
v 0.45984349 -0.19047803 0.25577196
v 0.44993135 -0.21280408 0.25577196
v 0.44934708 -0.21254259 0.22096598
v 0.44826195 -0.21201964 0.21391392
v 0.45811146 -0.18977405 0.21391392
v 0.46687588 -0.16706586 0.21391392
v 0.47449255 -0.14395538 0.21391392
v 0.48421687 -0.11151221 0.22096598
v 0.48098239 -0.12050298 0.21391392
v 0.48298568 -0.11151221 0.21391392
v 0.48488462 -0.11151221 0.25577196
v 0.48208839 -0.12076445 0.25629112
v 0.47557768 -0.14427719 0.25629112
v 0.46794012 -0.16744801 0.25629112
v 0.45917571 -0.19021656 0.25629112
v 0.40156019 -0.29782405 0.24720567
v 0.41564584 -0.27773061 0.24441513
v 0.41547889 -0.27760994 0.24106216
v 0.41543716 -0.27758983 0.25144553
v 0.40133065 -0.29764304 0.25144553
v 0.40149760 -0.29776371 0.24954194
v 0.41516590 -0.27740881 0.25298142
v 0.42743605 -0.25618902 0.25507975
v 0.41479027 -0.27714732 0.25417119
v 0.41516590 -0.27740881 0.23710349
v 0.41470680 -0.27708697 0.23249587
v 0.41408077 -0.27666461 0.22713111
v 0.41326693 -0.27614164 0.22096598
v 0.42633006 -0.25552526 0.22096598
v 0.43834981 -0.23430546 0.22096598
v 0.43893412 -0.23460716 0.25577196
v 0.42689350 -0.25586718 0.25577196
v 0.44928446 -0.21250238 0.25629112
v 0.43830809 -0.23426524 0.25629112
v 0.43730643 -0.23372217 0.21391392
v 0.43601266 -0.23305842 0.20595333
v 0.44694728 -0.21139613 0.20595333
v 0.45677593 -0.18921088 0.20595333
v 0.46551949 -0.16658312 0.20595333
v 0.47311530 -0.14353299 0.20595333
v 0.47956339 -0.12014093 0.20595333
v 0.48150408 -0.11151221 0.20595333
v 0.48244312 -0.11151221 0.21095034
v 0.48415428 -0.11151221 0.25629112
v 0.48131627 -0.12058343 0.25665888
v 0.47482646 -0.14405595 0.25665888
v 0.46720976 -0.16718653 0.25665888
v 0.45844534 -0.18991485 0.25665888
v 0.44857496 -0.21216044 0.25665888
v 0.38661897 -0.31699228 0.24720567
v 0.38655636 -0.31699228 0.24443677
v 0.40151846 -0.29778385 0.24441513
v 0.38651463 -0.31699228 0.24954194
v 0.40135151 -0.29766315 0.24106216
v 0.40105936 -0.29744190 0.23710349
v 0.40105936 -0.29744190 0.25298142
v 0.38624334 -0.31699228 0.25146717
v 0.40070462 -0.29718041 0.25417119
v 0.41433117 -0.27684563 0.25507975
v 0.41380948 -0.27650368 0.25577196
v 0.40026641 -0.29685861 0.25507975
v 0.40062115 -0.29712009 0.23249587
v 0.39999512 -0.29665747 0.22713111
v 0.39922303 -0.29609430 0.22096598
v 0.39826310 -0.29537022 0.21391392
v 0.41226530 -0.27545780 0.21391392
v 0.42528668 -0.25490174 0.21391392
v 0.42626747 -0.25548503 0.25629112
v 0.41320431 -0.27610141 0.25629112
v 0.43759859 -0.23390318 0.25665888
v 0.42559969 -0.25508276 0.25665888
v 0.42405549 -0.25415754 0.20595333
v 0.43451017 -0.23225388 0.19697602
v 0.44540310 -0.21067204 0.19697602
v 0.45521086 -0.18856724 0.19697602
v 0.46389180 -0.16599983 0.19697602
v 0.47146675 -0.14303015 0.19697602
v 0.47791484 -0.11971854 0.19697602
v 0.48037723 -0.11151221 0.20013431
v 0.48334044 -0.11151221 0.25665888
v 0.48248488 -0.11151221 0.25694010
v 0.48050243 -0.12038229 0.25694010
v 0.47401261 -0.14381459 0.25694010
v 0.46639591 -0.16690494 0.25694010
v 0.45765239 -0.18959303 0.25694010
v 0.44780284 -0.21179840 0.25694010
v 0.43686822 -0.23350091 0.25694010
v 0.38630596 -0.31699228 0.24106216
v 0.38624334 -0.31699228 0.24052136
v 0.38599294 -0.31677103 0.23710349
v 0.38580513 -0.31699228 0.25298142
v 0.38522083 -0.31614751 0.25507975
v 0.38563818 -0.31648946 0.25417119
v 0.39916041 -0.29605407 0.25629112
v 0.39974472 -0.29647645 0.25577196
v 0.38472000 -0.31574523 0.25577196
v 0.38555473 -0.31642911 0.23249587
v 0.38497043 -0.31594637 0.22713111
v 0.38421920 -0.31532285 0.22096598
v 0.38328016 -0.31455854 0.21391392
v 0.38217416 -0.31363332 0.20595333
v 0.39709452 -0.29450533 0.20595333
v 0.41105497 -0.27465326 0.20595333
v 0.41255742 -0.27565894 0.25665888
v 0.42486933 -0.25464025 0.25694010
v 0.41184792 -0.27519631 0.25694010
v 0.40963596 -0.27370793 0.19697602
v 0.42259476 -0.25327253 0.19697602
v 0.43275729 -0.23130855 0.18709017
v 0.44358760 -0.20982727 0.18709017
v 0.45335364 -0.18780293 0.18709017
v 0.46201372 -0.16533609 0.18709017
v 0.46956781 -0.14246698 0.18709017
v 0.47975120 -0.11151221 0.19697602
v 0.47597414 -0.11923582 0.18709017
v 0.47839481 -0.11151221 0.19037825
v 0.48156667 -0.11151221 0.25715640
v 0.47962600 -0.12016104 0.25715640
v 0.47315702 -0.14355311 0.25715640
v 0.46556121 -0.16660324 0.25715640
v 0.45683855 -0.18925110 0.25715640
v 0.44698903 -0.21141624 0.25715640
v 0.43607524 -0.23307854 0.25715640
v 0.38580513 -0.31699228 0.23706022
v 0.38522083 -0.31699228 0.25417119
v 0.38449046 -0.31699228 0.25507975
v 0.38365576 -0.31699228 0.25577196
v 0.38417745 -0.31528264 0.25629112
v 0.39853439 -0.29557133 0.25665888
v 0.38507476 -0.31699228 0.23249587
v 0.38413572 -0.31699228 0.22741233
v 0.38280019 -0.31699228 0.22096598
v 0.38121426 -0.31699228 0.21391392
v 0.37964919 -0.31699228 0.20731615
v 0.37931529 -0.31699228 0.20595333
v 0.38085949 -0.31256729 0.19697602
v 0.39571726 -0.29347953 0.19697602
v 0.42409724 -0.25417766 0.25715640
v 0.41111755 -0.27469349 0.25715640
v 0.39784575 -0.29506850 0.25694010
v 0.39713624 -0.29454556 0.25715640
v 0.40798742 -0.27260166 0.18709017
v 0.42088363 -0.25224674 0.18709017
v 0.43073314 -0.23022240 0.17633905
v 0.44152170 -0.20884170 0.17633905
v 0.45124602 -0.18691793 0.17633905
v 0.45986435 -0.16455166 0.17633905
v 0.46735582 -0.14178312 0.17633905
v 0.47374132 -0.11869276 0.17633905
v 0.47770616 -0.11151221 0.18709017
v 0.47609937 -0.11151221 0.17969202
v 0.48096153 -0.11151221 0.25724295
v 0.47872868 -0.11993980 0.25728619
v 0.47228059 -0.14327152 0.25728619
v 0.46468478 -0.16628143 0.25728619
v 0.45598298 -0.18888906 0.25728619
v 0.44615433 -0.21103407 0.25728619
v 0.43526143 -0.23263603 0.25728619
v 0.42330426 -0.25371504 0.25728619
v 0.38269585 -0.31699228 0.25629112
v 0.38355142 -0.31477979 0.25665888
v 0.38167334 -0.31699228 0.25665888
v 0.38290453 -0.31423673 0.25694010
v 0.37887707 -0.31699228 0.20420113
v 0.37706161 -0.31699228 0.19697602
v 0.37933618 -0.31130016 0.18709017
v 0.39411044 -0.29229283 0.18709017
v 0.41034546 -0.27417052 0.25728619
v 0.39638501 -0.29398239 0.25728619
v 0.38150638 -0.31309026 0.25728619
v 0.38221589 -0.31367356 0.25715640
v 0.39227408 -0.29092512 0.17633905
v 0.40606761 -0.27133453 0.17633905
v 0.41890121 -0.25108016 0.17633905
v 0.41664749 -0.24971244 0.16485241
v 0.42839596 -0.22897537 0.16485241
v 0.43914279 -0.20771535 0.16485241
v 0.44880450 -0.18591225 0.16485241
v 0.45738110 -0.16366667 0.16485241
v 0.46485171 -0.14101881 0.16485241
v 0.47534811 -0.11151221 0.17633905
v 0.47119546 -0.11804912 0.16485241
v 0.47342831 -0.11151221 0.16814049
v 0.48060676 -0.11151221 0.25728619
v 0.47998074 -0.11151221 0.25730783
v 0.47781050 -0.11969844 0.25730783
v 0.47138327 -0.14301005 0.25730783
v 0.46380833 -0.16595961 0.25730783
v 0.45510653 -0.18852702 0.25730783
v 0.44529873 -0.21063180 0.25730783
v 0.43442670 -0.23219354 0.25730783
v 0.42249042 -0.25323230 0.25730783
v 0.38056734 -0.31699228 0.25694010
v 0.38037956 -0.31699228 0.25698334
v 0.37443227 -0.31699228 0.18709017
v 0.37138560 -0.31699228 0.17633905
v 0.37754154 -0.30983186 0.17633905
v 0.40955248 -0.27364758 0.25730783
v 0.39563379 -0.29341918 0.25730783
v 0.38077602 -0.31248683 0.25730783
v 0.37816757 -0.31699228 0.25728619
v 0.37937790 -0.31699228 0.25715640
v 0.37551740 -0.30816242 0.16485241
v 0.39016646 -0.28935626 0.16485241
v 0.40387648 -0.26986623 0.16485241
v 0.41408077 -0.24818382 0.15265194
v 0.42576665 -0.22756742 0.15265194
v 0.43643001 -0.20642808 0.15265194
v 0.44604999 -0.18476579 0.15265194
v 0.45456398 -0.16266099 0.15265194
v 0.46199286 -0.14015391 0.15265194
v 0.46829486 -0.11732503 0.15265194
v 0.47182149 -0.11151221 0.16152108
v 0.47265619 -0.11151221 0.16485241
v 0.47931299 -0.11151221 0.25730783
v 0.36988312 -0.31699228 0.17132041
v 0.37691551 -0.31699228 0.25730783
v 0.36792156 -0.31699228 0.16485241
v 0.37320107 -0.30627176 0.15265194
v 0.38774583 -0.28758627 0.15265194
v 0.40139323 -0.26819679 0.15265194
v 0.41120103 -0.24645405 0.13988902
v 0.42280343 -0.22597845 0.13988902
v 0.43338332 -0.20497990 0.13988902
v 0.44294071 -0.18347850 0.13988902
v 0.45139208 -0.16153462 0.13988902
v 0.45875835 -0.13918847 0.13988902
v 0.46501866 -0.11650038 0.13988902
v 0.46614552 -0.11151221 0.13988902
v 0.46875396 -0.11151221 0.14953692
v 0.46958867 -0.11151221 0.15265194
v 0.47868696 -0.11151221 0.25728619
v 0.37568432 -0.31699228 0.25728619
v 0.36397758 -0.31699228 0.15265194
v 0.38505390 -0.28557491 0.13988902
v 0.37059262 -0.30413973 0.13988902
v 0.39859700 -0.26632625 0.13988902
v 0.39546683 -0.26423442 0.12656367
v 0.40796655 -0.24452315 0.12656367
v 0.41946462 -0.22420846 0.12656367
v 0.42998189 -0.20337081 0.12656367
v 0.43945581 -0.18203034 0.12656367
v 0.44784459 -0.16024736 0.12656367
v 0.45514828 -0.13808222 0.12656367
v 0.46136683 -0.11557516 0.12656367
v 0.46228498 -0.11151221 0.12656367
v 0.47772706 -0.11151221 0.25715640
v 0.37445313 -0.31699228 0.25715640
v 0.37482876 -0.31699228 0.25719967
v 0.35953277 -0.31699228 0.13988902
v 0.36769202 -0.30174619 0.12656367
v 0.38202810 -0.28332219 0.12656367
v 0.37866840 -0.28082812 0.11280568
v 0.39198196 -0.26190126 0.11280568
v 0.40435645 -0.24235088 0.11280568
v 0.41577104 -0.22221722 0.11280568
v 0.42618400 -0.20158070 0.11280568
v 0.43557441 -0.18044136 0.11280568
v 0.44387975 -0.15883940 0.11280568
v 0.45114169 -0.13687541 0.11280568
v 0.45729762 -0.11456948 0.11280568
v 0.45798627 -0.11151221 0.11280568
v 0.47743490 -0.11151221 0.25709152
v 0.37328455 -0.31699228 0.25694010
v 0.35454541 -0.31699228 0.12656367
v 0.35389853 -0.31699228 0.12491964
v 0.36443669 -0.29907110 0.11280568
v 0.36084744 -0.29613453 0.09865832
v 0.37493309 -0.27805245 0.09865832
v 0.38810056 -0.25932673 0.09865832
v 0.40037075 -0.23995736 0.09865832
v 0.41168100 -0.22002484 0.09865832
v 0.42198959 -0.19958946 0.09865832
v 0.43127570 -0.17865126 0.09865832
v 0.43951842 -0.15727055 0.09865832
v 0.44669688 -0.13552779 0.09865832
v 0.45279023 -0.11344312 0.09865832
v 0.45322844 -0.11151221 0.09865832
v 0.47682974 -0.11151221 0.25694010
v 0.37255418 -0.31699228 0.25676703
v 0.34974587 -0.31699228 0.11464441
v 0.34932852 -0.31661013 0.11280568
v 0.34588534 -0.31349254 0.09865832
v 0.35690346 -0.29289624 0.08425137
v 0.37084305 -0.27501529 0.08425137
v 0.38386443 -0.25649071 0.08425137
v 0.39598852 -0.23734261 0.08425137
v 0.40717357 -0.21763133 0.08425137
v 0.41737786 -0.19741720 0.08425137
v 0.42655963 -0.17670025 0.08425137
v 0.43469799 -0.15556090 0.08425137
v 0.44179296 -0.13403940 0.08425137
v 0.44784459 -0.11219608 0.08425137
v 0.44815761 -0.11151221 0.08470564
v 0.47653759 -0.11151221 0.25685358
v 0.37215769 -0.31699228 0.25665888
v 0.34909898 -0.31699228 0.11306527
v 0.34880683 -0.31699228 0.11239468
v 0.34256738 -0.31699228 0.09865832
v 0.34210831 -0.31005311 0.08425137
v 0.35260472 -0.28935626 0.06962810
v 0.36635649 -0.27169657 0.06962810
v 0.37925270 -0.25339323 0.06962810
v 0.39120984 -0.23448649 0.06962810
v 0.40224883 -0.21499646 0.06962810
v 0.41232789 -0.19502369 0.06962810
v 0.42140532 -0.17456821 0.06962810
v 0.42946023 -0.15367022 0.06962810
v 0.43647173 -0.13241020 0.06962810
v 0.44799066 -0.11151221 0.08425137
v 0.44225207 -0.11151221 0.06962810
v 0.44515267 -0.11151221 0.07700463
v 0.47595328 -0.11151221 0.25665888
v 0.37111431 -0.31699228 0.25629112
v 0.33551413 -0.31699228 0.08425137
v 0.33125713 -0.31699228 0.07611772
v 0.33797652 -0.30631196 0.06962810
v 0.33351085 -0.30224904 0.05489667
v 0.34793037 -0.28551456 0.05489667
v 0.36151519 -0.26809624 0.05489667
v 0.37422359 -0.25003427 0.05489667
v 0.38603467 -0.23136888 0.05489667
v 0.39692757 -0.21218055 0.05489667
v 0.40686056 -0.19244915 0.05489667
v 0.41583365 -0.17225514 0.05489667
v 0.42376333 -0.15163875 0.05489667
v 0.43069139 -0.13066033 0.05489667
v 0.43597090 -0.11151221 0.05489667
v 0.47513944 -0.11151221 0.25629112
v 0.37015441 -0.31699228 0.25577196
v 0.32783484 -0.31699228 0.06962810
v 0.32038510 -0.31699228 0.05647580
v 0.31948781 -0.31699228 0.05489667
v 0.31892437 -0.31699228 0.05396648
v 0.31700456 -0.31699228 0.05080821
v 0.31366575 -0.31365344 0.04014360
v 0.32866955 -0.29786429 0.04014360
v 0.34288043 -0.28139129 0.04014360
v 0.35627744 -0.26421431 0.04014360
v 0.36879802 -0.24641383 0.04014360
v 0.38046300 -0.22800992 0.04014360
v 0.39116812 -0.20910318 0.04014360
v 0.40097588 -0.18965337 0.04014360
v 0.40980291 -0.16976106 0.04014360
v 0.41762826 -0.14944637 0.04014360
v 0.42445198 -0.12876964 0.04014360
v 0.43031579 -0.11151221 0.04254476
v 0.47438821 -0.11151221 0.25577196
v 0.36975792 -0.31699228 0.25549075
v 0.31015998 -0.31699228 0.04014360
v 0.31239280 -0.31236616 0.03633635
v 0.32733402 -0.29665747 0.03633635
v 0.34148228 -0.28024483 0.03633635
v 0.34488371 -0.27588019 0.03633635
v 0.35481670 -0.26312819 0.03633635
v 0.36729553 -0.24540815 0.03633635
v 0.37595561 -0.23175104 0.03633635
v 0.37889794 -0.22708470 0.03633635
v 0.38958216 -0.20823829 0.03633635
v 0.39686498 -0.19381687 0.03633635
v 0.39934823 -0.18888906 0.03633635
v 0.40813351 -0.16907720 0.03633635
v 0.41011593 -0.16392814 0.03633635
v 0.41591713 -0.14884298 0.03633635
v 0.42271996 -0.12824669 0.03633635
v 0.42380509 -0.12432455 0.03633635
v 0.42920980 -0.11151221 0.04014360
v 0.47388738 -0.11151221 0.25531769
v 0.36925709 -0.31699228 0.25512299
v 0.30753064 -0.31699228 0.03633635
v 0.42733172 -0.11151221 0.03633635
v 0.47369957 -0.11151221 0.25512299
v 0.36840153 -0.31699228 0.25425771
v 0.27405897 -0.31699228 0.03633635
v 0.40389737 -0.11151221 0.03633635
v 0.47303182 -0.11151221 0.25425771
v 0.36760855 -0.31699228 0.25313285
v 0.36685732 -0.31699228 0.25172678
v 0.47242665 -0.11151221 0.25313285
v 0.47225973 -0.11151221 0.25274348
v 0.47184238 -0.11151221 0.25172678
v 0.47167543 -0.11151221 0.25125086
v 0.47127894 -0.11151221 0.24999620
v 0.36723295 -0.31699228 0.25244063
f 1 2 3
f 1 3 8
f 1 8 14
f 1 14 23
f 1 23 36
f 1 36 57
f 1 57 81
f 1 81 109
f 1 109 111
f 1 111 144
f 1 144 143
f 1 143 180
f 1 180 215
f 1 215 217
f 1 217 251
f 1 251 252
f 1 252 282
f 1 282 284
f 1 284 315
f 1 315 314
f 1 314 332
f 1 332 331
f 1 331 330
f 1 330 347
f 1 347 363
f 1 363 379
f 1 379 395
f 1 395 411
f 1 411 413
f 1 413 412
f 1 412 429
f 1 429 448
f 1 448 468
f 1 468 472
f 1 472 476
f 1 476 484
f 1 484 483
f 1 483 482
f 1 482 481
f 1 481 480
f 1 480 477
f 1 477 473
f 1 473 469
f 1 469 449
f 1 449 430
f 1 430 414
f 1 414 396
f 1 396 380
f 1 380 364
f 1 364 348
f 1 348 333
f 1 333 316
f 1 316 286
f 1 286 285
f 1 285 253
f 1 253 218
f 1 218 182
f 1 182 181
f 1 181 145
f 1 145 112
f 1 112 82
f 1 82 58
f 1 58 38
f 1 38 37
f 1 37 24
f 1 24 15
f 1 15 9
f 1 9 4
f 1 4 2
f 2 5 11
f 2 11 6
f 2 6 3
f 2 4 7
f 2 7 12
f 2 12 5
f 3 6 8
f 4 9 7
f 5 10 11
f 5 12 19
f 5 19 10
f 6 11 20
f 6 20 13
f 6 13 14
f 6 14 8
f 7 9 15
f 7 15 16
f 7 16 12
f 10 17 27
f 10 27 18
f 10 18 11
f 10 19 28
f 10 28 17
f 11 18 30
f 11 30 20
f 12 16 21
f 12 21 19
f 13 20 22
f 13 22 14
f 14 22 23
f 15 24 25
f 15 25 16
f 16 25 21
f 17 26 41
f 17 41 27
f 17 28 26
f 18 27 29
f 18 29 30
f 19 21 31
f 19 31 43
f 19 43 28
f 20 30 48
f 20 48 32
f 20 32 22
f 21 25 33
f 21 33 31
f 22 32 34
f 22 34 35
f 22 35 23
f 23 35 36
f 24 37 25
f 25 37 38
f 25 38 39
f 25 39 51
f 25 51 33
f 26 40 62
f 26 62 41
f 26 28 42
f 26 42 63
f 26 63 40
f 27 41 29
f 28 43 44
f 28 44 42
f 29 41 45
f 29 45 46
f 29 46 47
f 29 47 48
f 29 48 30
f 31 33 49
f 31 49 50
f 31 50 43
f 32 48 34
f 33 51 52
f 33 52 49
f 34 53 54
f 34 54 55
f 34 55 56
f 34 56 35
f 34 48 53
f 35 56 36
f 36 56 57
f 38 58 39
f 39 58 59
f 39 59 60
f 39 60 51
f 40 61 87
f 40 87 62
f 40 63 88
f 40 88 61
f 41 62 67
f 41 67 45
f 42 44 64
f 42 64 63
f 43 50 44
f 44 50 65
f 44 65 66
f 44 66 64
f 45 67 46
f 46 68 69
f 46 69 70
f 46 70 47
f 46 67 68
f 47 70 71
f 47 71 53
f 47 53 48
f 49 52 50
f 50 52 72
f 50 72 73
f 50 73 65
f 51 60 52
f 52 60 74
f 52 74 75
f 52 75 72
f 53 71 76
f 53 76 54
f 54 76 77
f 54 77 78
f 54 78 55
f 55 78 79
f 55 79 80
f 55 80 56
f 56 80 57
f 57 80 81
f 58 82 59
f 59 82 83
f 59 83 60
f 60 83 84
f 60 84 85
f 60 85 74
f 61 86 118
f 61 118 87
f 61 88 89
f 61 89 86
f 62 87 94
f 62 94 67
f 63 64 90
f 63 90 88
f 64 66 90
f 65 73 66
f 66 73 91
f 66 91 92
f 66 92 93
f 66 93 90
f 67 94 95
f 67 95 68
f 68 95 69
f 69 95 96
f 69 96 97
f 69 97 98
f 69 98 70
f 70 98 99
f 70 99 76
f 70 76 71
f 72 75 73
f 73 75 100
f 73 100 101
f 73 101 91
f 74 85 75
f 75 85 102
f 75 102 103
f 75 103 100
f 76 99 104
f 76 104 77
f 77 104 105
f 77 105 106
f 77 106 107
f 77 107 78
f 78 107 79
f 79 107 108
f 79 108 80
f 80 109 81
f 80 108 110
f 80 110 111
f 80 111 109
f 82 112 83
f 83 112 113
f 83 113 84
f 84 113 114
f 84 114 85
f 85 114 115
f 85 115 116
f 85 116 102
f 86 117 118
f 86 89 117
f 87 118 119
f 87 119 94
f 88 90 89
f 89 90 120
f 89 120 121
f 89 121 122
f 89 122 117
f 90 93 123
f 90 123 120
f 91 101 124
f 91 124 92
f 92 124 125
f 92 125 123
f 92 123 93
f 94 119 126
f 94 126 95
f 95 126 96
f 96 127 97
f 96 126 127
f 97 128 129
f 97 129 130
f 97 130 98
f 97 127 128
f 98 130 131
f 98 131 104
f 98 104 99
f 100 103 101
f 101 103 132
f 101 132 133
f 101 133 124
f 102 116 134
f 102 134 103
f 103 134 135
f 103 135 132
f 104 131 136
f 104 136 105
f 105 136 137
f 105 137 138
f 105 138 139
f 105 139 106
f 106 139 140
f 106 140 107
f 107 140 108
f 108 140 141
f 108 141 110
f 110 141 142
f 110 142 143
f 110 143 144
f 110 144 111
f 112 145 113
f 113 145 146
f 113 146 147
f 113 147 114
f 114 147 148
f 114 148 115
f 115 148 116
f 116 148 149
f 116 149 150
f 116 150 134
f 117 151 152
f 117 152 153
f 117 153 118
f 117 122 154
f 117 154 151
f 118 153 155
f 118 155 119
f 119 155 156
f 119 156 126
f 120 123 121
f 121 154 122
f 121 123 157
f 121 157 158
f 121 158 154
f 123 125 159
f 123 159 157
f 124 160 125
f 124 133 161
f 124 161 160
f 125 160 162
f 125 162 159
f 126 156 163
f 126 163 127
f 127 163 128
f 128 164 165
f 128 165 129
f 128 163 164
f 129 165 166
f 129 166 167
f 129 167 130
f 130 167 168
f 130 168 136
f 130 136 131
f 132 135 133
f 133 135 169
f 133 169 170
f 133 170 161
f 134 150 135
f 135 150 171
f 135 171 172
f 135 172 169
f 136 168 173
f 136 173 137
f 137 173 174
f 137 174 138
f 138 174 175
f 138 175 176
f 138 176 139
f 139 176 140
f 140 176 177
f 140 177 178
f 140 178 141
f 141 178 179
f 141 179 142
f 142 179 180
f 142 180 143
f 145 181 146
f 146 181 182
f 146 182 183
f 146 183 147
f 147 183 184
f 147 184 148
f 148 184 185
f 148 185 186
f 148 186 149
f 149 186 187
f 149 187 150
f 150 187 188
f 150 188 171
f 151 154 158
f 151 158 192
f 151 192 226
f 151 226 227
f 151 227 228
f 151 228 261
f 151 261 263
f 151 263 294
f 151 294 295
f 151 295 303
f 151 303 302
f 151 302 318
f 151 318 334
f 151 334 350
f 151 350 349
f 151 349 365
f 151 365 381
f 151 381 397
f 151 397 415
f 151 415 431
f 151 431 450
f 151 450 470
f 151 470 474
f 151 474 478
f 151 478 485
f 151 485 479
f 151 479 475
f 151 475 471
f 151 471 451
f 151 451 436
f 151 436 435
f 151 435 434
f 151 434 433
f 151 433 432
f 151 432 417
f 151 417 416
f 151 416 400
f 151 400 399
f 151 399 398
f 151 398 382
f 151 382 367
f 151 367 366
f 151 366 351
f 151 351 335
f 151 335 319
f 151 319 317
f 151 317 297
f 151 297 296
f 151 296 266
f 151 266 265
f 151 265 236
f 151 236 235
f 151 235 234
f 151 234 233
f 151 233 232
f 151 232 231
f 151 231 225
f 151 225 190
f 151 190 189
f 151 189 152
f 152 189 153
f 153 189 155
f 155 189 190
f 155 190 156
f 156 190 191
f 156 191 163
f 157 159 192
f 157 192 158
f 159 162 193
f 159 193 194
f 159 194 192
f 160 161 162
f 161 170 195
f 161 195 196
f 161 196 162
f 162 196 197
f 162 197 193
f 163 191 198
f 163 198 199
f 163 199 164
f 164 199 165
f 165 199 200
f 165 200 166
f 166 201 202
f 166 202 203
f 166 203 204
f 166 204 167
f 166 200 201
f 167 204 173
f 167 173 168
f 169 172 170
f 170 172 205
f 170 205 195
f 171 188 172
f 172 188 206
f 172 206 207
f 172 207 205
f 173 204 208
f 173 208 209
f 173 209 174
f 174 209 210
f 174 210 175
f 175 210 211
f 175 211 176
f 176 211 212
f 176 212 213
f 176 213 177
f 177 213 214
f 177 214 178
f 178 214 179
f 179 215 180
f 179 214 216
f 179 216 217
f 179 217 215
f 182 218 183
f 183 218 219
f 183 219 220
f 183 220 184
f 184 220 221
f 184 221 185
f 185 221 222
f 185 222 186
f 186 222 187
f 187 222 223
f 187 223 224
f 187 224 188
f 188 224 206
f 190 225 191
f 191 225 198
f 192 194 226
f 193 227 226
f 193 226 194
f 193 197 228
f 193 228 227
f 195 229 196
f 195 205 230
f 195 230 229
f 196 229 197
f 197 229 228
f 198 225 231
f 198 231 232
f 198 232 199
f 199 232 233
f 199 233 200
f 200 233 234
f 200 234 201
f 201 234 235
f 201 235 202
f 202 235 236
f 202 236 237
f 202 237 203
f 203 237 238
f 203 238 208
f 203 208 204
f 205 207 230
f 206 224 239
f 206 239 240
f 206 240 207
f 207 241 230
f 207 240 242
f 207 242 241
f 208 238 243
f 208 243 209
f 209 243 244
f 209 244 210
f 210 244 245
f 210 245 246
f 210 246 211
f 211 246 247
f 211 247 212
f 212 247 213
f 213 247 248
f 213 248 214
f 214 248 249
f 214 249 250
f 214 250 216
f 216 251 217
f 216 250 252
f 216 252 251
f 218 253 219
f 219 253 254
f 219 254 255
f 219 255 220
f 220 255 221
f 221 255 256
f 221 256 257
f 221 257 222
f 222 257 258
f 222 258 223
f 223 258 224
f 224 258 259
f 224 259 260
f 224 260 239
f 228 229 261
f 229 230 262
f 229 262 263
f 229 263 261
f 230 241 264
f 230 264 262
f 236 265 237
f 237 266 267
f 237 267 238
f 237 265 266
f 238 267 268
f 238 268 243
f 239 260 240
f 240 260 269
f 240 269 242
f 241 242 264
f 242 269 270
f 242 270 271
f 242 271 272
f 242 272 264
f 243 268 273
f 243 273 274
f 243 274 275
f 243 275 244
f 244 275 245
f 245 275 276
f 245 276 277
f 245 277 278
f 245 278 246
f 246 278 247
f 247 278 279
f 247 279 280
f 247 280 248
f 248 280 281
f 248 281 249
f 249 281 250
f 250 282 252
f 250 281 283
f 250 283 284
f 250 284 282
f 253 285 254
f 254 285 286
f 254 286 287
f 254 287 288
f 254 288 255
f 255 288 289
f 255 289 256
f 256 289 257
f 257 289 290
f 257 290 291
f 257 291 258
f 258 291 292
f 258 292 259
f 259 292 260
f 260 292 293
f 260 293 269
f 262 264 294
f 262 294 263
f 264 272 295
f 264 295 294
f 266 296 267
f 267 296 297
f 267 297 298
f 267 298 273
f 267 273 268
f 269 293 299
f 269 299 300
f 269 300 270
f 270 300 271
f 271 300 301
f 271 301 302
f 271 302 303
f 271 303 272
f 272 303 295
f 273 298 304
f 273 304 305
f 273 305 274
f 274 305 306
f 274 306 276
f 274 276 275
f 276 306 307
f 276 307 308
f 276 308 277
f 277 308 278
f 278 308 309
f 278 309 310
f 278 310 279
f 279 310 280
f 280 310 311
f 280 311 312
f 280 312 281
f 281 312 283
f 283 312 313
f 283 313 314
f 283 314 315
f 283 315 284
f 286 316 318
f 286 318 301
f 286 301 300
f 286 300 299
f 286 299 293
f 286 293 292
f 286 292 291
f 286 291 290
f 286 290 289
f 286 289 288
f 286 288 287
f 297 317 298
f 298 317 304
f 301 318 302
f 304 317 319
f 304 319 320
f 304 320 305
f 305 320 321
f 305 321 322
f 305 322 306
f 306 322 307
f 307 322 323
f 307 323 308
f 308 323 324
f 308 324 309
f 309 324 325
f 309 325 326
f 309 326 310
f 310 326 311
f 311 326 327
f 311 327 312
f 312 327 328
f 312 328 313
f 313 328 329
f 313 329 330
f 313 330 331
f 313 331 332
f 313 332 314
f 316 333 334
f 316 334 318
f 319 335 320
f 320 336 321
f 320 335 337
f 320 337 336
f 321 336 322
f 322 336 338
f 322 338 323
f 323 338 339
f 323 339 340
f 323 340 324
f 324 340 341
f 324 341 342
f 324 342 325
f 325 342 326
f 326 342 343
f 326 343 327
f 327 343 344
f 327 344 328
f 328 344 345
f 328 345 346
f 328 346 329
f 329 346 347
f 329 347 330
f 333 348 349
f 333 349 350
f 333 350 334
f 335 351 337
f 336 337 352
f 336 352 353
f 336 353 339
f 336 339 338
f 337 351 352
f 339 353 354
f 339 354 355
f 339 355 340
f 340 355 356
f 340 356 357
f 340 357 341
f 341 357 342
f 342 357 358
f 342 358 359
f 342 359 343
f 343 359 344
f 344 359 360
f 344 360 361
f 344 361 345
f 345 361 346
f 346 361 362
f 346 362 347
f 347 362 363
f 348 364 365
f 348 365 349
f 351 366 352
f 352 366 367
f 352 367 368
f 352 368 354
f 352 354 353
f 354 368 369
f 354 369 370
f 354 370 355
f 355 370 371
f 355 371 372
f 355 372 356
f 356 372 373
f 356 373 357
f 357 373 358
f 358 373 374
f 358 374 359
f 359 374 375
f 359 375 376
f 359 376 360
f 360 376 361
f 361 376 377
f 361 377 362
f 362 377 378
f 362 378 379
f 362 379 363
f 364 380 381
f 364 381 365
f 367 382 368
f 368 382 383
f 368 383 369
f 369 383 384
f 369 384 385
f 369 385 386
f 369 386 370
f 370 386 371
f 371 386 387
f 371 387 372
f 372 387 388
f 372 388 389
f 372 389 373
f 373 389 390
f 373 390 374
f 374 390 375
f 375 390 391
f 375 391 376
f 376 391 392
f 376 392 377
f 377 392 393
f 377 393 394
f 377 394 378
f 378 394 379
f 379 394 395
f 380 396 397
f 380 397 381
f 382 398 383
f 383 398 399
f 383 399 384
f 384 399 400
f 384 400 401
f 384 401 385
f 385 401 402
f 385 402 386
f 386 402 403
f 386 403 404
f 386 404 387
f 387 404 388
f 388 404 405
f 388 405 389
f 389 405 406
f 389 406 390
f 390 406 407
f 390 407 408
f 390 408 391
f 391 408 409
f 391 409 392
f 392 409 410
f 392 410 393
f 393 410 394
f 394 411 395
f 394 410 412
f 394 412 413
f 394 413 411
f 396 414 397
f 397 414 415
f 400 416 401
f 401 416 417
f 401 417 418
f 401 418 402
f 402 418 419
f 402 419 420
f 402 420 421
f 402 421 403
f 403 421 404
f 404 421 422
f 404 422 423
f 404 423 405
f 405 423 424
f 405 424 406
f 406 424 407
f 407 424 425
f 407 425 426
f 407 426 408
f 408 426 409
f 409 426 427
f 409 427 428
f 409 428 410
f 410 428 412
f 412 428 429
f 414 430 415
f 415 430 431
f 417 432 418
f 418 432 419
f 419 432 433
f 419 433 434
f 419 434 435
f 419 435 436
f 419 436 437
f 419 437 438
f 419 438 439
f 419 439 420
f 420 439 440
f 420 440 421
f 421 440 422
f 422 440 441
f 422 441 442
f 422 442 423
f 423 442 424
f 424 442 443
f 424 443 444
f 424 444 425
f 425 444 426
f 426 444 445
f 426 445 446
f 426 446 427
f 427 446 428
f 428 446 447
f 428 447 448
f 428 448 429
f 430 449 431
f 431 449 450
f 436 451 437
f 437 451 452
f 437 452 453
f 437 453 438
f 438 453 439
f 439 453 454
f 439 454 440
f 440 454 455
f 440 455 456
f 440 456 457
f 440 457 441
f 441 457 458
f 441 458 442
f 442 458 459
f 442 459 460
f 442 460 443
f 443 460 461
f 443 461 444
f 444 461 462
f 444 462 445
f 445 462 463
f 445 463 446
f 446 463 464
f 446 464 465
f 446 465 466
f 446 466 447
f 447 466 467
f 447 467 468
f 447 468 448
f 449 469 470
f 449 470 450
f 451 471 452
f 452 471 475
f 452 475 476
f 452 476 472
f 452 472 467
f 452 467 466
f 452 466 465
f 452 465 464
f 452 464 463
f 452 463 462
f 452 462 461
f 452 461 460
f 452 460 459
f 452 459 458
f 452 458 457
f 452 457 456
f 452 456 455
f 452 455 454
f 452 454 453
f 467 472 468
f 469 473 474
f 469 474 470
f 473 477 474
f 474 477 478
f 475 479 480
f 475 480 481
f 475 481 482
f 475 482 483
f 475 483 484
f 475 484 476
f 477 480 485
f 477 485 478
f 479 485 480

