# https://github.com/mikedh/trimesh
v -0.27750316 0.11265904 -0.14346549
v -0.27750316 0.11265904 -0.10403776
v -0.27750316 0.11496536 -0.14280549
v -0.19220449 0.11265904 -0.25199217
v -0.08752108 0.11265904 -0.16590542
v -0.27750316 0.30811244 0.02770363
v -0.27750316 0.11870219 -0.14160027
v -0.27750316 0.12416145 -0.13979244
v -0.27750316 0.13128477 -0.13738202
v -0.27750316 0.14637804 -0.13167159
v -0.27750316 0.14836323 -0.13089682
v -0.27750316 0.16672620 -0.12289076
v -0.27750316 0.18561468 -0.11347860
v -0.27750316 0.19486916 -0.10828470
v -0.27750316 0.20339379 -0.10349254
v -0.19112918 0.11458583 -0.25199217
v -0.19185574 0.11265904 -0.25233650
v -0.08752108 0.11265904 -0.20209055
v 0.01940015 0.18578985 -0.20777227
v 0.01666826 0.25206009 -0.13416812
v 0.00007354 0.39078969 -0.01120757
v -0.15044156 0.39078969 0.03582448
v -0.27750316 0.33835736 0.02770363
v -0.27750316 0.20578769 -0.10202907
v -0.18525854 0.12384032 -0.25199217
v -0.18459010 0.12340240 -0.25291041
v -0.19040261 0.11420631 -0.25291041
v -0.27750316 0.22020949 -0.09278909
v -0.18999574 0.11391437 -0.25345564
v -0.19115824 0.11265904 -0.25299650
v -0.17247100 0.11265904 -0.25560778
v 0.01940015 0.20339379 -0.25385737
v 0.01940015 0.20251797 -0.25259477
v 0.01940015 0.20158377 -0.25093043
v 0.01940015 0.20053279 -0.24872085
v 0.01940015 0.19942342 -0.24616694
v 0.01940015 0.19822647 -0.24303913
v 0.01940015 0.19694194 -0.23950957
v 0.01940015 0.22420907 -0.20777227
v 0.01666826 0.34661925 -0.06349091
v 0.00007354 0.39078969 -0.04897095
v -0.15044156 0.41090429 0.02770363
v -0.16744317 0.40430647 0.02770363
v -0.18708947 0.39560667 0.02770363
v -0.20627078 0.38594347 0.02770363
v -0.22495802 0.37531689 0.02770363
v -0.24309307 0.36384368 0.02770363
v -0.26067591 0.35146543 0.02770363
v -0.27750316 0.33809462 0.02724451
v -0.17898102 0.13277365 -0.25199217
v -0.17834164 0.13230656 -0.25291041
v -0.27750316 0.22774154 -0.08768128
v -0.18366009 0.12278934 -0.25400084
v -0.17793477 0.13201462 -0.25345564
v -0.18947262 0.11362244 -0.25400084
v -0.18999574 0.11265904 -0.25400084
v -0.19066417 0.11265904 -0.25345564
v -0.17360444 0.11265904 -0.25615299
v 0.01940015 0.20426962 -0.25486171
v 0.01940015 0.22371277 -0.22562093
v 0.01666826 0.34661925 -0.10033603
v -0.00004272 0.39078969 -0.04897095
v 0.00007354 0.38454217 -0.05726397
v -0.01922402 0.39078969 -0.04833964
v -0.03852157 0.39078969 -0.04644573
v -0.05081505 0.39078969 -0.04443704
v -0.05802257 0.39078969 -0.04317444
v -0.07775605 0.39078969 -0.03838228
v -0.08507982 0.39078969 -0.03611533
v -0.09789642 0.39078969 -0.03212664
v -0.10039580 0.39078969 -0.03117969
v -0.15044156 0.40970734 0.02537929
v -0.16703629 0.40331388 0.02537929
v -0.18662447 0.39461407 0.02537929
v -0.20574766 0.38498008 0.02537929
v -0.22437677 0.37438267 0.02537929
v -0.24248275 0.36293864 0.02537929
v -0.26000750 0.35058963 0.02537929
v -0.27692193 0.33739394 0.02537929
v -0.27750316 0.33692685 0.02537929
v -0.17223850 0.14141506 -0.25199217
v -0.17165725 0.14091876 -0.25291041
v -0.27750316 0.23629536 -0.08148304
v -0.18310791 0.12240981 -0.25457475
v -0.18892042 0.11330131 -0.25457475
v -0.17744070 0.13166429 -0.25400084
v -0.17691758 0.13125558 -0.25457475
v -0.17075631 0.14021811 -0.25400084
v -0.18924011 0.11265904 -0.25457475
v -0.17473789 0.11265904 -0.25655475
v 0.01940015 0.20514542 -0.25560778
v 0.01940015 0.22333325 -0.23890696
v 0.01940015 0.22309969 -0.24519131
v 0.01940015 0.22298291 -0.24734347
v 0.01940015 0.22283696 -0.24895042
v 0.01940015 0.22266179 -0.25012696
v 0.01940015 0.22248663 -0.25095910
v 0.01940015 0.22225307 -0.25156170
v 0.01940015 0.22196114 -0.25202084
v 0.00007354 0.37461624 -0.06963176
v -0.00004272 0.38454217 -0.05726397
v -0.01890433 0.38407505 -0.05726397
v -0.03773689 0.38267374 -0.05726397
v -0.05648225 0.38036743 -0.05726397
v -0.05787725 0.38991386 -0.04443704
v -0.07691324 0.38658574 -0.04443704
v -0.09580392 0.38235262 -0.04443704
v -0.11716491 0.38614783 -0.03117969
v -0.11855991 0.39078969 -0.02380493
v -0.15044156 0.40167901 0.01083063
v -0.16415910 0.39636570 0.01083063
v -0.18339853 0.38781190 0.01083063
v -0.20220202 0.37835306 0.01083063
v -0.22054051 0.36796001 0.01083063
v -0.23832680 0.35669115 0.01083063
v -0.25553185 0.34457567 0.01083063
v -0.27215564 0.33161354 0.01083063
v -0.27750316 0.32705930 0.01083063
v -0.16511817 0.14967695 -0.25199217
v -0.27750316 0.25170976 -0.06966045
v -0.16485661 0.14944339 -0.25239390
v -0.16415910 0.14883032 -0.25345564
v -0.18249759 0.12200110 -0.25514865
v -0.18828104 0.11289258 -0.25514865
v -0.17026225 0.13978019 -0.25457475
v -0.16968100 0.13931310 -0.25514865
v -0.17630726 0.13081767 -0.25514865
v -0.16322911 0.14798370 -0.25457475
v -0.18836823 0.11265904 -0.25514865
v -0.17598757 0.11265904 -0.25687039
v 0.01940015 0.20607963 -0.25618172
v 0.01940015 0.22114371 -0.25293911
v 0.01085575 0.22178596 -0.25293911
v 0.01091388 0.22257420 -0.25202084
v -0.00004272 0.37461624 -0.06963176
v -0.00001365 0.22286615 -0.25202084
v -0.01843933 0.37417832 -0.06963176
v -0.03677782 0.37283540 -0.06963176
v -0.05500005 0.37055826 -0.06963176
v -0.07310604 0.36740533 -0.06963176
v -0.07505323 0.37712690 -0.05726397
v -0.09344985 0.37298137 -0.05726397
v -0.11164302 0.36796001 -0.05726397
v -0.11443303 0.37718529 -0.04443704
v -0.13274245 0.37114215 -0.04443704
v -0.13591027 0.37995872 -0.03117969
v -0.12408181 0.39078969 -0.02116493
v -0.15044156 0.39639491 0.00202109
v -0.16110754 0.38895047 -0.00351715
v -0.13166714 0.39078969 -0.01752059
v -0.13977560 0.39078969 -0.01333104
v -0.17999820 0.38060099 -0.00351715
v -0.19845295 0.37128812 -0.00351715
v -0.21641362 0.36107025 -0.00351715
v -0.23385116 0.35003492 -0.00351715
v -0.25076559 0.33812380 -0.00351715
v -0.26706970 0.32545364 -0.00351715
v -0.27750316 0.31649110 -0.00351715
v -0.15756190 0.15761770 -0.25199217
v -0.15666096 0.15671268 -0.25345564
v -0.27750316 0.26607317 -0.05729266
v -0.27189410 0.27194116 -0.05729266
v -0.26489002 0.26493460 -0.06963176
v -0.18182915 0.12156318 -0.25566518
v -0.18738011 0.11265904 -0.25569388
v -0.18787417 0.11265904 -0.25543562
v -0.16904162 0.13878761 -0.25566518
v -0.16261879 0.14748740 -0.25514865
v -0.16203754 0.14693272 -0.25566518
v -0.17563882 0.13032137 -0.25566518
v -0.15622503 0.15627478 -0.25400084
v -0.15576002 0.15580767 -0.25457475
v -0.15520783 0.15528218 -0.25514865
v -0.17726633 0.11265904 -0.25709996
v 0.01940015 0.20695545 -0.25655475
v 0.01940015 0.22064741 -0.25345564
v 0.01085575 0.22128966 -0.25345564
v -0.00001365 0.22207791 -0.25293911
v -0.01094119 0.22257420 -0.25202084
v -0.02186871 0.22175677 -0.25202084
v -0.03270905 0.22044304 -0.25202084
v -0.04349127 0.21857464 -0.25202084
v -0.09106672 0.36340576 -0.06963176
v -0.10876583 0.35847199 -0.06963176
v -0.12623243 0.35272077 -0.06963176
v -0.12951651 0.36206284 -0.05726397
v -0.15044156 0.36433995 -0.04446574
v -0.13893278 0.38839576 -0.01752059
v -0.15442313 0.37283540 -0.03117969
v -0.15044156 0.37683496 -0.02767883
v -0.15044156 0.39306679 -0.00351715
v -0.15044156 0.38395828 -0.01752059
v -0.15782346 0.38109729 -0.01752059
v -0.17636539 0.37286460 -0.01752059
v -0.19444230 0.36378527 -0.01752059
v -0.21202517 0.35377175 -0.01752059
v -0.22914302 0.34294081 -0.01752059
v -0.24570870 0.33132163 -0.01752059
v -0.26166406 0.31885582 -0.01752059
v -0.27750316 0.30618563 -0.01637277
v -0.14910468 0.16456586 -0.25291041
v -0.25157934 0.27760479 -0.06963176
v -0.14834906 0.16374843 -0.25400084
v -0.14794219 0.16325213 -0.25457475
v -0.27750316 0.27751720 -0.04681878
v -0.25823468 0.28496164 -0.05729266
v -0.18110259 0.12106690 -0.25615299
v -0.18639198 0.11265904 -0.25615299
v -0.16834411 0.13823292 -0.25615299
v -0.16139816 0.14631964 -0.25615299
v -0.15462658 0.15469831 -0.25566518
v -0.17491226 0.12979588 -0.25615299
v -0.14738999 0.16269743 -0.25514865
v -0.14686687 0.16211356 -0.25566518
v -0.17793477 0.11265904 -0.25718606
v 0.01940015 0.20809402 -0.25689909
v 0.01940015 0.22006354 -0.25402954
v 0.01082669 0.22070579 -0.25402954
v -0.00001365 0.22155242 -0.25345564
v -0.01088306 0.22128966 -0.25345564
v -0.01091212 0.22178596 -0.25293911
v -0.02178153 0.22096854 -0.25293911
v -0.03259280 0.21965481 -0.25293911
v -0.04334596 0.21778640 -0.25293911
v -0.05395380 0.21539250 -0.25293911
v -0.05415724 0.21615154 -0.25202084
v -0.06473602 0.21323214 -0.25202084
v -0.07511136 0.20981646 -0.25202084
v -0.14335030 0.34609374 -0.06968915
v -0.08531232 0.20590447 -0.25202084
v -0.14712843 0.35526064 -0.05726397
v -0.15044156 0.36323059 -0.04584313
v -0.15084845 0.36416480 -0.04446574
v -0.16851848 0.35634083 -0.04446574
v -0.17252913 0.36477786 -0.03117969
v -0.19019917 0.35587370 -0.03117969
v -0.20746234 0.34609374 -0.03117969
v -0.22414427 0.33549637 -0.03117969
v -0.24036118 0.32411072 -0.03117969
v -0.25596780 0.31193686 -0.03117969
v -0.27700910 0.30566016 -0.01752059
v -0.27750316 0.30452159 -0.01829538
v -0.14959875 0.16514973 -0.25199217
v -0.14134498 0.17230225 -0.25199217
v -0.14085092 0.17168918 -0.25291041
v -0.14053123 0.17125127 -0.25345564
v -0.23762929 0.28963268 -0.06963176
v -0.14018248 0.17081335 -0.25400084
v -0.13971747 0.17028788 -0.25457475
v -0.13922341 0.16973318 -0.25514865
v -0.27750316 0.27994028 -0.04446574
v -0.26471561 0.29208496 -0.04446574
v -0.25003904 0.30475515 -0.04446574
v -0.24390683 0.29725230 -0.05729266
v -0.18028884 0.12051220 -0.25655475
v -0.18522948 0.11265904 -0.25655475
v -0.17415664 0.12921201 -0.25655475
v -0.16758849 0.13759066 -0.25655475
v -0.16067159 0.14567739 -0.25655475
v -0.15398720 0.15405604 -0.25615299
v -0.15331876 0.15338458 -0.25655475
v -0.14628562 0.16144210 -0.25615299
v -0.13872935 0.16909093 -0.25566518
v -0.17996915 0.11265904 -0.25730085
v 0.01940015 0.20920339 -0.25712866
v 0.01940015 0.21939206 -0.25460345
v -0.00001365 0.22093934 -0.25402954
v 0.01079762 0.22003433 -0.25460345
v -0.00001365 0.22029708 -0.25460345
v -0.01085400 0.22070579 -0.25402954
v -0.02172340 0.22047225 -0.25345564
v -0.02166528 0.21988836 -0.25402954
v -0.03253468 0.21912932 -0.25345564
v -0.04322971 0.21729010 -0.25345564
v -0.05383755 0.21489620 -0.25345564
v -0.06447446 0.21250230 -0.25293911
v -0.07482073 0.20908661 -0.25293911
v -0.15044156 0.34297001 -0.06968915
v -0.15044156 0.35380095 -0.05729266
v -0.08499263 0.20514542 -0.25293911
v -0.08752108 0.20403606 -0.25293911
v -0.09496110 0.20073715 -0.25291041
v -0.09533891 0.20143780 -0.25199217
v -0.16439161 0.34761184 -0.05729266
v -0.18581071 0.34764102 -0.04446574
v -0.20263796 0.33806542 -0.04446574
v -0.21897113 0.32778916 -0.04446574
v -0.23478118 0.31663707 -0.04446574
v -0.27099314 0.29900393 -0.03117969
v -0.27750316 0.29284400 -0.03117969
v -0.13253902 0.17872491 -0.25239390
v -0.13227746 0.17837459 -0.25291041
v -0.22315614 0.30093074 -0.06963176
v -0.13195777 0.17796588 -0.25345564
v -0.22905585 0.30887148 -0.05729266
v -0.13157995 0.17749877 -0.25400084
v -0.13117307 0.17694408 -0.25457475
v -0.13076620 0.17636020 -0.25514865
v -0.17941695 0.11992833 -0.25687039
v -0.18395072 0.11265904 -0.25687039
v -0.16677473 0.13694839 -0.25687039
v -0.17328475 0.12859893 -0.25687039
v -0.15991597 0.14497674 -0.25687039
v -0.15259220 0.15265474 -0.25687039
v -0.14558811 0.16071226 -0.25655475
v -0.14491968 0.15995321 -0.25687039
v -0.13817716 0.16839026 -0.25615299
v -0.13753778 0.16766042 -0.25655475
v -0.13027214 0.17568874 -0.25566518
v -0.12974901 0.17498809 -0.25615299
v -0.18177103 0.11265904 -0.25721473
v -0.17659789 0.11805992 -0.25730085
v -0.08752108 0.19349705 -0.25732952
v 0.01940015 0.21150970 -0.25732952
v 0.01940015 0.21034195 -0.25724345
v 0.01940015 0.21863303 -0.25514865
v 0.01073951 0.21927530 -0.25514865
v -0.00001365 0.21953803 -0.25514865
v -0.01082493 0.22003433 -0.25460345
v -0.02163621 0.21921691 -0.25460345
v -0.03233124 0.21790318 -0.25460345
v -0.03244749 0.21854544 -0.25402954
v -0.04314252 0.21670622 -0.25402954
v -0.05369224 0.21431231 -0.25402954
v -0.06415477 0.21145132 -0.25402954
v -0.06432914 0.21200600 -0.25345564
v -0.07447198 0.20803562 -0.25402954
v -0.08481826 0.20467833 -0.25345564
v -0.16017753 0.33864930 -0.06963176
v -0.08752108 0.20348138 -0.25345564
v -0.09475766 0.20027004 -0.25345564
v -0.10446456 0.19536546 -0.25345564
v -0.10510394 0.19653322 -0.25199217
v -0.17656882 0.33041662 -0.06963176
v -0.18124789 0.33911639 -0.05729266
v -0.19766825 0.32983273 -0.05729266
v -0.21362361 0.31973162 -0.05729266
v -0.12384930 0.18529356 -0.25199217
v -0.12341337 0.18462208 -0.25291041
v -0.20810172 0.31149894 -0.06963176
v -0.12312274 0.18418418 -0.25345564
v -0.12280305 0.18371707 -0.25400084
v -0.12242524 0.18313320 -0.25457475
v -0.12201836 0.18252012 -0.25514865
v -0.12158243 0.18187785 -0.25566518
v -0.17851602 0.11931525 -0.25709996
v -0.18267196 0.11265904 -0.25709996
v -0.16596098 0.13624774 -0.25709996
v -0.17241287 0.12792747 -0.25709996
v -0.15910222 0.14424688 -0.25709996
v -0.15177844 0.15186650 -0.25709996
v -0.14419311 0.15913579 -0.25709996
v -0.13686934 0.16684298 -0.25687039
v -0.13620090 0.16599636 -0.25709996
v -0.12919682 0.17419985 -0.25655475
v -0.12858650 0.17335322 -0.25687039
v -0.12108836 0.18114802 -0.25615299
v -0.17154101 0.12725601 -0.25721473
v -0.17061099 0.12658454 -0.25730085
v -0.08752108 0.19478157 -0.25724345
v -0.08130169 0.19627047 -0.25732952
v -0.16415910 0.13478804 -0.25730085
v -0.15738752 0.14269960 -0.25730085
v -0.15020907 0.15023163 -0.25730085
v -0.14265279 0.15741333 -0.25730085
v -0.13474777 0.16421553 -0.25730085
v -0.12661025 0.17063820 -0.25730085
v -0.11806585 0.17665215 -0.25730085
v -0.10925989 0.18219900 -0.25730085
v -0.10019237 0.18733713 -0.25730085
v -0.10071549 0.18835890 -0.25721473
v 0.01041982 0.21218117 -0.25732952
v 0.01940015 0.21250230 -0.25727212
v 0.01940015 0.21781559 -0.25569388
v 0.01071043 0.21845786 -0.25569388
v -0.00001365 0.21874981 -0.25569388
v -0.01079587 0.21927530 -0.25514865
v -0.02151996 0.21848705 -0.25514865
v -0.03221499 0.21717334 -0.25514865
v -0.04299721 0.21606396 -0.25460345
v -0.05354693 0.21367006 -0.25460345
v -0.06395133 0.21080905 -0.25460345
v -0.07421042 0.20742255 -0.25460345
v -0.08455670 0.20415284 -0.25402954
v -0.08752108 0.20283911 -0.25402954
v -0.09452516 0.19971535 -0.25400084
v -0.10417394 0.19483997 -0.25400084
v -0.11390990 0.19002298 -0.25345564
v -0.11420053 0.19046088 -0.25291041
v -0.11460741 0.19113234 -0.25199217
v -0.19258231 0.32136649 -0.06963176
v -0.11361928 0.18949747 -0.25400084
v -0.11329959 0.18894279 -0.25457475
v -0.11289271 0.18830052 -0.25514865
v -0.11248583 0.18759987 -0.25566518
v -0.16506004 0.13551790 -0.25721473
v -0.15102282 0.15107825 -0.25721473
v -0.15820128 0.14345863 -0.25721473
v -0.14343749 0.15828916 -0.25721473
v -0.13547434 0.16512054 -0.25721473
v -0.12791806 0.17247741 -0.25709996
v -0.12727869 0.17157240 -0.25721473
v -0.12050711 0.18033057 -0.25655475
v -0.11992586 0.17945477 -0.25687039
v -0.11931554 0.17854975 -0.25709996
v -0.11202084 0.18684083 -0.25615299
v -0.11155583 0.18599421 -0.25655475
v -0.08752108 0.19600773 -0.25712866
v -0.08220263 0.19837242 -0.25712866
v -0.08173762 0.19732144 -0.25724345
v -0.10123862 0.18935150 -0.25709996
v -0.07197260 0.20108747 -0.25724345
v -0.07156572 0.20000729 -0.25732952
v -0.11867616 0.17758635 -0.25721473
v -0.10984114 0.18319160 -0.25721473
v -0.11045146 0.18415499 -0.25709996
v -0.00001365 0.21241471 -0.25732952
v -0.00001365 0.21358247 -0.25724345
v 0.01044887 0.21331973 -0.25724345
v 0.01050700 0.21445829 -0.25712866
v 0.01940015 0.21381602 -0.25712866
v 0.01940015 0.21693978 -0.25618172
v 0.01068138 0.21758205 -0.25618172
v -0.00001365 0.21784478 -0.25618172
v -0.01070868 0.21758205 -0.25618172
v -0.01079587 0.21845786 -0.25569388
v -0.02146184 0.21766962 -0.25569388
v -0.03209874 0.21635589 -0.25569388
v -0.04267752 0.21451668 -0.25569388
v -0.04285190 0.21530491 -0.25514865
v -0.05334349 0.21296939 -0.25514865
v -0.06374789 0.21010840 -0.25514865
v -0.07397792 0.20672190 -0.25514865
v -0.08403357 0.20283911 -0.25514865
v -0.08432420 0.20351057 -0.25460345
v -0.08752108 0.20234281 -0.25443128
v -0.09420547 0.19913147 -0.25457475
v -0.10388331 0.19425610 -0.25457475
v -0.10350550 0.19361383 -0.25514865
v -0.10315675 0.19288397 -0.25566518
v -0.10274987 0.19209573 -0.25615299
v -0.11097458 0.18511838 -0.25687039
v -0.10225581 0.19124912 -0.25655475
v -0.10176174 0.19034410 -0.25687039
v -0.09182234 0.19411013 -0.25709996
v -0.08752108 0.19665000 -0.25701386
v -0.08260950 0.19939423 -0.25689909
v -0.07275729 0.20321862 -0.25689909
v -0.07235041 0.20216765 -0.25712866
v -0.06200413 0.20438638 -0.25724345
v -0.06168444 0.20327702 -0.25732952
v -0.01044712 0.21218117 -0.25732952
v -0.01050524 0.21331973 -0.25724345
v -0.01059243 0.21445829 -0.25712866
v -0.00001365 0.21472104 -0.25712866
v 0.01056513 0.21556766 -0.25689909
v 0.01940015 0.21489620 -0.25689909
v 0.01940015 0.21577202 -0.25664085
v 0.01062325 0.21661864 -0.25655475
v -0.00001365 0.21688139 -0.25655475
v -0.01065056 0.21661864 -0.25655475
v -0.02125840 0.21583042 -0.25655475
v -0.02137465 0.21676461 -0.25618172
v -0.03198249 0.21548009 -0.25618172
v -0.04253221 0.21364087 -0.25618172
v -0.05316911 0.21218117 -0.25569388
v -0.06351539 0.20929097 -0.25569388
v -0.07368729 0.20596287 -0.25569388
v -0.08371388 0.20208007 -0.25569388
v -0.08752108 0.20129183 -0.25514865
v -0.08752108 0.20210926 -0.25460345
v -0.09388579 0.19846001 -0.25514865
v -0.09356610 0.19773017 -0.25566518
v -0.09315922 0.19691274 -0.25615299
v -0.09275234 0.19603692 -0.25655475
v -0.09231640 0.19510272 -0.25687039
v -0.08752108 0.19723387 -0.25689909
v -0.08301638 0.20035762 -0.25655475
v -0.07307698 0.20418203 -0.25655475
v -0.06296320 0.20751014 -0.25655475
v -0.06267258 0.20651755 -0.25689909
v -0.06232382 0.20546657 -0.25712866
v -0.05189036 0.20718899 -0.25724345
v -0.05165786 0.20605044 -0.25732952
v -0.02096777 0.21256068 -0.25724345
v -0.02085152 0.21139292 -0.25732952
v -0.02117121 0.21477942 -0.25689909
v -0.01059243 0.21556766 -0.25689909
v -0.02105496 0.21367006 -0.25712866
v -0.00001365 0.21583042 -0.25689909
v -0.03183718 0.21451668 -0.25655475
v -0.04232877 0.21267746 -0.25655475
v -0.05293661 0.21130535 -0.25618172
v -0.06325383 0.20844434 -0.25618172
v -0.07339667 0.20511624 -0.25618172
v -0.08336513 0.20126264 -0.25618172
v -0.08752108 0.19942342 -0.25618172
v -0.08752108 0.20038682 -0.25569388
v -0.08752108 0.19837242 -0.25655475
v -0.05270411 0.21034195 -0.25655475
v -0.05247161 0.20934935 -0.25689909
v -0.05218098 0.20826918 -0.25712866
v -0.04192189 0.21057549 -0.25712866
v -0.04171845 0.20946613 -0.25724345
v -0.04145689 0.20832756 -0.25732952
v -0.03137217 0.21127616 -0.25724345
v -0.03151749 0.21238552 -0.25712866
v -0.03116874 0.21010840 -0.25732952
v -0.03169186 0.21346569 -0.25689909
v -0.04212533 0.21165568 -0.25689909
f 1 2 6
f 1 6 23
f 1 23 49
f 1 49 80
f 1 80 118
f 1 118 158
f 1 158 200
f 1 200 242
f 1 242 290
f 1 290 251
f 1 251 205
f 1 205 161
f 1 161 120
f 1 120 83
f 1 83 52
f 1 52 28
f 1 28 24
f 1 24 15
f 1 15 14
f 1 14 13
f 1 13 12
f 1 12 11
f 1 11 10
f 1 10 9
f 1 9 8
f 1 8 7
f 1 7 3
f 1 3 4
f 1 4 17
f 1 17 30
f 1 30 57
f 1 57 56
f 1 56 89
f 1 89 129
f 1 129 166
f 1 166 165
f 1 165 208
f 1 208 256
f 1 256 300
f 1 300 347
f 1 347 311
f 1 311 264
f 1 264 215
f 1 215 174
f 1 174 130
f 1 130 90
f 1 90 58
f 1 58 31
f 1 31 18
f 1 18 5
f 1 5 2
f 2 5 6
f 3 7 4
f 4 7 8
f 4 8 9
f 4 9 10
f 4 10 11
f 4 11 12
f 4 12 13
f 4 13 14
f 4 14 15
f 4 15 16
f 4 16 17
f 5 18 19
f 5 19 20
f 5 20 21
f 5 21 6
f 6 21 22
f 6 22 23
f 15 24 16
f 16 25 26
f 16 26 27
f 16 27 17
f 16 24 28
f 16 28 25
f 17 27 29
f 17 29 30
f 18 31 32
f 18 32 33
f 18 33 34
f 18 34 35
f 18 35 36
f 18 36 37
f 18 37 38
f 18 38 19
f 19 38 37
f 19 37 36
f 19 36 35
f 19 35 34
f 19 34 33
f 19 33 32
f 19 32 59
f 19 59 91
f 19 91 131
f 19 131 175
f 19 175 216
f 19 216 265
f 19 265 315
f 19 315 314
f 19 314 373
f 19 373 421
f 19 421 457
f 19 457 458
f 19 458 422
f 19 422 374
f 19 374 316
f 19 316 266
f 19 266 217
f 19 217 176
f 19 176 132
f 19 132 99
f 19 99 98
f 19 98 97
f 19 97 96
f 19 96 95
f 19 95 94
f 19 94 93
f 19 93 92
f 19 92 60
f 19 60 39
f 19 39 40
f 19 40 20
f 20 40 21
f 21 41 42
f 21 42 22
f 21 40 61
f 21 61 41
f 22 42 43
f 22 43 44
f 22 44 45
f 22 45 46
f 22 46 47
f 22 47 48
f 22 48 23
f 23 48 49
f 25 50 51
f 25 51 26
f 25 28 52
f 25 52 50
f 26 53 29
f 26 29 27
f 26 51 54
f 26 54 53
f 29 53 55
f 29 55 56
f 29 56 57
f 29 57 30
f 31 58 59
f 31 59 32
f 39 60 61
f 39 61 40
f 41 62 42
f 41 61 63
f 41 63 101
f 41 101 62
f 42 62 64
f 42 64 65
f 42 65 66
f 42 66 67
f 42 67 68
f 42 68 69
f 42 69 70
f 42 70 71
f 42 71 72
f 42 72 73
f 42 73 43
f 43 73 44
f 44 73 74
f 44 74 45
f 45 74 75
f 45 75 46
f 46 76 77
f 46 77 47
f 46 75 76
f 47 77 48
f 48 77 78
f 48 78 49
f 49 79 80
f 49 78 79
f 50 81 82
f 50 82 51
f 50 52 83
f 50 83 81
f 51 82 54
f 53 84 85
f 53 85 55
f 53 54 86
f 53 86 87
f 53 87 84
f 54 82 88
f 54 88 86
f 55 85 56
f 56 85 89
f 58 90 91
f 58 91 59
f 60 92 61
f 61 92 93
f 61 93 94
f 61 94 95
f 61 95 96
f 61 96 97
f 61 97 98
f 61 98 99
f 61 99 100
f 61 100 63
f 62 101 102
f 62 102 64
f 63 100 135
f 63 135 101
f 64 102 65
f 65 102 103
f 65 103 104
f 65 104 66
f 66 104 105
f 66 105 67
f 67 105 68
f 68 105 106
f 68 106 107
f 68 107 69
f 69 107 70
f 70 107 108
f 70 108 71
f 71 109 72
f 71 108 109
f 72 110 73
f 72 109 110
f 73 110 111
f 73 111 74
f 74 111 112
f 74 112 113
f 74 113 75
f 75 113 114
f 75 114 76
f 76 114 77
f 77 115 116
f 77 116 78
f 77 114 115
f 78 116 117
f 78 117 79
f 79 117 80
f 80 117 118
f 81 119 82
f 81 83 120
f 81 120 119
f 82 119 121
f 82 121 122
f 82 122 88
f 84 123 85
f 84 87 123
f 85 123 124
f 85 124 89
f 86 88 125
f 86 125 87
f 87 125 126
f 87 126 127
f 87 127 123
f 88 122 128
f 88 128 125
f 89 124 129
f 90 130 131
f 90 131 91
f 99 132 133
f 99 133 134
f 99 134 100
f 100 134 136
f 100 136 135
f 101 135 137
f 101 137 102
f 102 137 138
f 102 138 103
f 103 138 104
f 104 138 139
f 104 139 140
f 104 140 141
f 104 141 105
f 105 141 106
f 106 141 107
f 107 141 142
f 107 142 143
f 107 143 144
f 107 144 108
f 108 144 145
f 108 145 146
f 108 146 109
f 109 147 110
f 109 146 147
f 110 148 149
f 110 149 111
f 110 147 150
f 110 150 151
f 110 151 148
f 111 149 152
f 111 152 112
f 112 152 113
f 113 152 153
f 113 153 114
f 114 153 154
f 114 154 155
f 114 155 115
f 115 155 116
f 116 156 157
f 116 157 117
f 116 155 156
f 117 157 118
f 118 157 158
f 119 159 160
f 119 160 121
f 119 120 159
f 120 161 162
f 120 162 163
f 120 163 159
f 121 160 122
f 122 160 128
f 123 164 124
f 123 127 164
f 124 164 165
f 124 165 166
f 124 166 129
f 125 128 126
f 126 167 127
f 126 128 168
f 126 168 169
f 126 169 167
f 127 167 170
f 127 170 164
f 128 160 171
f 128 171 172
f 128 172 173
f 128 173 168
f 130 174 175
f 130 175 131
f 132 176 177
f 132 177 133
f 133 177 178
f 133 178 134
f 134 178 136
f 135 136 137
f 136 178 179
f 136 179 137
f 137 179 138
f 138 179 180
f 138 180 181
f 138 181 139
f 139 181 182
f 139 182 140
f 140 183 141
f 140 182 183
f 141 183 142
f 142 183 143
f 143 183 184
f 143 184 185
f 143 185 186
f 143 186 144
f 144 186 145
f 145 186 187
f 145 187 146
f 146 188 147
f 146 187 189
f 146 189 190
f 146 190 188
f 147 188 150
f 148 151 191
f 148 191 149
f 149 192 193
f 149 193 152
f 149 191 192
f 150 188 151
f 151 188 191
f 152 193 194
f 152 194 195
f 152 195 153
f 153 195 154
f 154 196 197
f 154 197 155
f 154 195 196
f 155 197 198
f 155 198 156
f 156 198 157
f 157 198 199
f 157 199 200
f 157 200 158
f 159 201 160
f 159 163 202
f 159 202 201
f 160 201 203
f 160 203 204
f 160 204 171
f 161 205 162
f 162 205 206
f 162 206 163
f 163 206 202
f 164 207 165
f 164 170 207
f 165 207 208
f 167 209 170
f 167 169 210
f 167 210 209
f 168 173 169
f 169 173 211
f 169 211 210
f 170 209 212
f 170 212 207
f 171 204 172
f 172 204 173
f 173 204 213
f 173 213 214
f 173 214 211
f 174 215 216
f 174 216 175
f 176 217 177
f 177 218 219
f 177 219 178
f 177 217 218
f 178 219 220
f 178 220 221
f 178 221 179
f 179 221 180
f 180 221 222
f 180 222 181
f 181 222 223
f 181 223 182
f 182 223 224
f 182 224 225
f 182 225 226
f 182 226 183
f 183 226 227
f 183 227 184
f 184 227 228
f 184 228 185
f 185 229 186
f 185 228 230
f 185 230 229
f 186 229 231
f 186 231 232
f 186 232 187
f 187 232 233
f 187 233 189
f 188 190 192
f 188 192 191
f 189 233 234
f 189 234 235
f 189 235 194
f 189 194 193
f 189 193 190
f 190 193 192
f 194 235 195
f 195 235 236
f 195 236 237
f 195 237 196
f 196 237 197
f 197 237 238
f 197 238 198
f 198 238 239
f 198 239 240
f 198 240 199
f 199 240 241
f 199 241 200
f 200 241 242
f 201 202 243
f 201 243 244
f 201 244 245
f 201 245 246
f 201 246 203
f 202 206 247
f 202 247 244
f 202 244 243
f 203 246 248
f 203 248 204
f 204 248 249
f 204 249 250
f 204 250 213
f 205 251 252
f 205 252 206
f 206 252 253
f 206 253 254
f 206 254 247
f 207 255 256
f 207 256 208
f 207 212 257
f 207 257 255
f 209 258 257
f 209 257 212
f 209 210 259
f 209 259 258
f 210 211 260
f 210 260 261
f 210 261 259
f 211 214 262
f 211 262 260
f 213 250 214
f 214 250 263
f 214 263 262
f 215 264 265
f 215 265 216
f 217 266 218
f 218 267 219
f 218 266 268
f 218 268 269
f 218 269 267
f 219 267 270
f 219 270 220
f 220 222 221
f 220 270 271
f 220 271 222
f 222 271 223
f 223 271 272
f 223 272 273
f 223 273 274
f 223 274 224
f 224 274 275
f 224 275 225
f 225 275 276
f 225 276 226
f 226 276 227
f 227 276 228
f 228 276 277
f 228 277 230
f 229 278 279
f 229 279 231
f 229 230 278
f 230 277 280
f 230 280 281
f 230 281 282
f 230 282 283
f 230 283 278
f 231 279 232
f 232 279 284
f 232 284 234
f 232 234 233
f 234 284 285
f 234 285 235
f 235 285 236
f 236 285 237
f 237 286 287
f 237 287 238
f 237 285 286
f 238 287 239
f 239 287 288
f 239 288 253
f 239 253 240
f 240 253 289
f 240 289 241
f 241 289 242
f 242 289 290
f 244 291 292
f 244 292 245
f 244 247 293
f 244 293 291
f 245 292 294
f 245 294 246
f 246 294 248
f 247 254 295
f 247 295 293
f 248 294 296
f 248 296 297
f 248 297 249
f 249 297 298
f 249 298 250
f 250 298 263
f 251 290 252
f 252 290 289
f 252 289 253
f 253 288 295
f 253 295 254
f 255 299 256
f 255 257 299
f 256 299 300
f 257 258 301
f 257 301 302
f 257 302 299
f 258 259 303
f 258 303 301
f 259 261 304
f 259 304 303
f 260 262 261
f 261 262 305
f 261 305 306
f 261 306 304
f 262 263 307
f 262 307 308
f 262 308 305
f 263 298 309
f 263 309 310
f 263 310 307
f 264 311 312
f 264 312 313
f 264 313 314
f 264 314 315
f 264 315 265
f 266 316 268
f 267 269 270
f 268 316 317
f 268 317 318
f 268 318 269
f 269 318 319
f 269 319 270
f 270 319 320
f 270 320 272
f 270 272 271
f 272 320 321
f 272 321 322
f 272 322 273
f 273 322 323
f 273 323 274
f 274 323 275
f 275 323 324
f 275 324 325
f 275 325 326
f 275 326 276
f 276 326 277
f 277 327 328
f 277 328 280
f 277 326 325
f 277 325 327
f 278 329 284
f 278 284 279
f 278 283 329
f 280 328 281
f 281 328 330
f 281 330 331
f 281 331 282
f 282 331 332
f 282 332 333
f 282 333 283
f 283 333 334
f 283 334 329
f 284 329 334
f 284 334 335
f 284 335 285
f 285 335 336
f 285 336 286
f 286 336 287
f 287 336 337
f 287 337 295
f 287 295 288
f 291 338 292
f 291 293 338
f 292 338 339
f 292 339 294
f 293 295 337
f 293 337 340
f 293 340 338
f 294 339 341
f 294 341 342
f 294 342 296
f 296 342 297
f 297 342 343
f 297 343 298
f 298 343 344
f 298 344 345
f 298 345 309
f 299 346 347
f 299 347 300
f 299 302 346
f 301 348 302
f 301 303 348
f 302 348 349
f 302 349 346
f 303 304 350
f 303 350 348
f 304 351 350
f 304 306 352
f 304 352 351
f 305 308 306
f 306 308 353
f 306 353 354
f 306 354 352
f 307 310 355
f 307 355 308
f 308 355 356
f 308 356 353
f 309 345 310
f 310 345 357
f 310 357 355
f 311 347 346
f 311 346 358
f 311 358 312
f 312 358 359
f 312 359 313
f 313 360 361
f 313 361 413
f 313 413 451
f 313 451 484
f 313 484 505
f 313 505 508
f 313 508 486
f 313 486 452
f 313 452 417
f 313 417 372
f 313 372 314
f 313 359 362
f 313 362 363
f 313 363 364
f 313 364 365
f 313 365 366
f 313 366 367
f 313 367 368
f 313 368 369
f 313 369 370
f 313 370 371
f 313 371 360
f 314 372 373
f 316 374 317
f 317 374 375
f 317 375 376
f 317 376 318
f 318 376 377
f 318 377 319
f 319 377 378
f 319 378 320
f 320 378 379
f 320 379 321
f 321 379 380
f 321 380 323
f 321 323 322
f 323 380 381
f 323 381 324
f 324 381 325
f 325 381 382
f 325 382 383
f 325 383 327
f 327 383 384
f 327 384 328
f 328 384 330
f 330 384 385
f 330 385 331
f 331 385 386
f 331 386 332
f 332 387 392
f 332 392 388
f 332 388 389
f 332 389 333
f 332 386 387
f 333 389 390
f 333 390 391
f 333 391 334
f 334 391 335
f 335 391 336
f 336 391 337
f 337 391 340
f 338 390 389
f 338 389 339
f 338 340 391
f 338 391 390
f 339 389 388
f 339 388 341
f 341 388 342
f 342 388 392
f 342 392 393
f 342 393 343
f 343 393 344
f 344 393 394
f 344 394 345
f 345 394 395
f 345 395 357
f 346 349 358
f 348 396 358
f 348 358 349
f 348 350 396
f 350 351 397
f 350 397 398
f 350 398 396
f 351 352 397
f 352 354 399
f 352 399 397
f 353 356 354
f 354 400 399
f 354 356 401
f 354 401 402
f 354 402 400
f 355 357 403
f 355 403 356
f 356 403 404
f 356 404 405
f 356 405 401
f 357 395 406
f 357 406 407
f 357 407 403
f 358 396 359
f 359 396 362
f 360 408 409
f 360 409 410
f 360 410 361
f 360 371 411
f 360 411 408
f 361 410 412
f 361 412 413
f 362 396 363
f 363 396 398
f 363 398 397
f 363 397 364
f 364 397 399
f 364 399 365
f 365 399 366
f 366 399 400
f 366 400 367
f 367 400 402
f 367 402 368
f 368 402 414
f 368 414 415
f 368 415 369
f 369 415 370
f 370 415 371
f 371 415 416
f 371 416 411
f 372 417 418
f 372 418 419
f 372 419 373
f 373 419 420
f 373 420 421
f 374 422 375
f 375 422 423
f 375 423 376
f 376 423 424
f 376 424 425
f 376 425 426
f 376 426 377
f 377 426 378
f 378 426 427
f 378 427 379
f 379 427 428
f 379 428 429
f 379 429 430
f 379 430 380
f 380 430 431
f 380 431 381
f 381 431 432
f 381 432 382
f 382 432 383
f 383 432 433
f 383 433 434
f 383 434 435
f 383 435 384
f 384 435 436
f 384 436 385
f 385 436 386
f 386 436 437
f 386 437 438
f 386 438 387
f 387 438 393
f 387 393 392
f 393 438 439
f 393 439 394
f 394 439 440
f 394 440 395
f 395 440 441
f 395 441 406
f 401 405 402
f 402 405 414
f 403 407 442
f 403 442 404
f 404 442 405
f 405 442 416
f 405 416 415
f 405 415 414
f 406 441 407
f 407 441 443
f 407 443 444
f 407 444 442
f 408 411 445
f 408 445 446
f 408 446 409
f 409 446 447
f 409 447 448
f 409 448 449
f 409 449 412
f 409 412 410
f 411 416 444
f 411 444 445
f 412 449 450
f 412 450 413
f 413 450 451
f 416 442 444
f 417 452 418
f 418 452 453
f 418 453 454
f 418 454 455
f 418 455 420
f 418 420 419
f 420 455 456
f 420 456 421
f 421 456 457
f 422 458 423
f 423 458 459
f 423 459 460
f 423 460 424
f 424 460 425
f 425 427 426
f 425 460 461
f 425 461 462
f 425 462 463
f 425 463 427
f 427 463 464
f 427 464 428
f 428 464 429
f 429 464 465
f 429 465 466
f 429 466 431
f 429 431 430
f 431 466 432
f 432 467 468
f 432 468 433
f 432 466 467
f 433 468 434
f 434 469 470
f 434 470 471
f 434 471 435
f 434 468 469
f 435 471 436
f 436 471 437
f 437 471 472
f 437 472 438
f 438 472 439
f 439 472 473
f 439 473 440
f 440 473 441
f 441 473 474
f 441 474 475
f 441 475 443
f 443 475 476
f 443 476 444
f 444 476 445
f 445 476 446
f 446 477 447
f 446 476 477
f 447 478 448
f 447 477 478
f 448 478 479
f 448 479 480
f 448 480 481
f 448 481 482
f 448 482 449
f 449 482 450
f 450 482 483
f 450 483 451
f 451 483 484
f 452 485 453
f 452 486 485
f 453 485 454
f 454 487 488
f 454 488 490
f 454 490 455
f 454 485 489
f 454 489 487
f 455 490 456
f 456 490 459
f 456 459 458
f 456 458 457
f 459 490 460
f 460 490 461
f 461 490 488
f 461 488 462
f 462 488 487
f 462 487 491
f 462 491 464
f 462 464 463
f 464 491 465
f 465 492 493
f 465 493 466
f 465 491 492
f 466 493 494
f 466 494 467
f 467 494 468
f 468 495 496
f 468 496 469
f 468 494 495
f 469 496 497
f 469 497 498
f 469 498 470
f 470 498 472
f 470 472 471
f 472 498 473
f 473 498 497
f 473 497 474
f 474 497 475
f 475 497 499
f 475 499 477
f 475 477 476
f 477 499 478
f 478 496 495
f 478 495 479
f 478 499 496
f 479 495 480
f 480 494 493
f 480 493 500
f 480 500 501
f 480 501 481
f 480 495 494
f 481 501 482
f 482 501 502
f 482 502 483
f 483 502 503
f 483 503 504
f 483 504 484
f 484 504 505
f 485 486 506
f 485 506 507
f 485 507 489
f 486 508 506
f 487 489 507
f 487 507 509
f 487 509 491
f 491 509 510
f 491 510 492
f 492 510 501
f 492 501 500
f 492 500 493
f 496 499 497
f 501 510 503
f 501 503 502
f 503 506 504
f 503 510 507
f 503 507 506
f 504 506 505
f 505 506 508
f 507 510 509

