# https://github.com/mikedh/trimesh
v -0.08738756 0.11264539 -0.16595557
v 0.16583656 0.07853577 -0.15870748
v -0.08738756 0.11264539 -0.20210598
v -0.23535335 0.11264539 -0.12938498
v -0.27750316 0.11261821 -0.10402417
v 0.16574362 -0.16501510 -0.14332592
v 0.19725141 -0.11149968 -0.19670367
v 0.16583656 0.07853577 -0.20491219
v -0.17247719 0.11264539 -0.25563380
v -0.27750316 0.11264539 -0.12938498
v -0.27750316 -0.15183330 -0.12938498
v -0.27132243 -0.16265053 -0.12938498
v -0.26978886 -0.16501510 -0.12938498
v -0.20212612 -0.16501510 -0.12938498
v 0.16574362 -0.16501510 -0.18971071
v 0.19441664 -0.11652780 -0.19670367
v 0.19399840 -0.11149968 -0.24733526
v 0.19385898 -0.11149968 -0.24895597
v 0.19367309 -0.11149968 -0.25011146
v 0.19344074 -0.11149968 -0.25093681
v 0.19325484 -0.11149968 -0.25134197
v 0.19316190 -0.11149968 -0.25153705
v 0.19283660 -0.11149968 -0.25200224
v 0.19241835 -0.11149968 -0.25243744
v 0.19190717 -0.11149968 -0.25293267
v 0.19134951 -0.11149968 -0.25345787
v 0.19065243 -0.11149968 -0.25402811
v 0.18986242 -0.11149968 -0.25459835
v 0.18916534 -0.11149968 -0.25507855
v 0.18902592 -0.11149968 -0.25516862
v 0.18809649 -0.11149968 -0.25569382
v 0.18707411 -0.11149968 -0.25617403
v 0.18595879 -0.11149968 -0.25657922
v 0.18479700 -0.11149968 -0.25687933
v -0.17596257 0.11264539 -0.25690934
v -0.17470783 0.11264539 -0.25659421
v -0.17359251 0.11264539 -0.25618905
v -0.27750316 0.11264539 -0.14347599
v -0.27750316 -0.14830002 -0.13091564
v -0.20979394 -0.07505266 -0.25201726
v -0.20584385 -0.08521761 -0.25201726
v -0.20537913 -0.08635912 -0.25201726
v -0.20142904 -0.09524664 -0.25201726
v -0.19650304 -0.10500391 -0.25201726
v -0.19111232 -0.11451654 -0.25201726
v -0.18525690 -0.12375741 -0.25201726
v -0.26667526 -0.16501510 -0.13169597
v -0.17893675 -0.13269928 -0.25201726
v -0.17219836 -0.14134221 -0.25201726
v -0.16508819 -0.14963180 -0.25201726
v -0.15755978 -0.15754089 -0.25201726
v -0.14975254 -0.16498792 -0.25201726
v -0.14919488 -0.16498792 -0.25245243
v -0.14859074 -0.16498792 -0.25290263
v 0.16560420 -0.15012102 -0.25011146
v 0.17280731 -0.14180425 -0.25011146
v 0.17954570 -0.13316134 -0.25011146
v 0.17968512 -0.13324286 -0.24895597
v 0.18586585 -0.12419227 -0.25011146
v 0.18595879 -0.12427381 -0.24895597
v 0.18609820 -0.12435535 -0.24733526
v 0.19186069 -0.11500578 -0.24895597
v 0.19204658 -0.11514166 -0.24520436
v 0.15291743 -0.16501510 -0.20780841
v 0.15012914 -0.16498792 -0.25153705
v 0.15050091 -0.16498792 -0.25095180
v 0.15077974 -0.16498792 -0.25011146
v 0.15807579 -0.15805729 -0.25011146
v 0.19172128 -0.11492424 -0.25011146
v 0.19158186 -0.11481552 -0.25093681
v 0.19134951 -0.11470680 -0.25153705
v 0.19111715 -0.11454372 -0.25200224
v 0.19079185 -0.11438066 -0.25243744
v 0.19042008 -0.11413604 -0.25293267
v 0.19000183 -0.11389144 -0.25345787
v 0.18949063 -0.11356528 -0.25402811
v 0.18888651 -0.11323914 -0.25459835
v 0.18823591 -0.11285862 -0.25516862
v 0.18753883 -0.11242376 -0.25569382
v 0.18679528 -0.11196172 -0.25617403
v 0.18107927 -0.12101233 -0.25617403
v 0.18028925 -0.12046875 -0.25657922
v 0.17940629 -0.11989799 -0.25689435
v 0.18340285 -0.11149968 -0.25711942
v -0.17726377 0.11264539 -0.25713444
v -0.20142904 0.09525084 -0.25201726
v -0.20584385 0.08524898 -0.25201726
v -0.20979394 0.07505687 -0.25201726
v -0.21318637 0.06467448 -0.25201726
v -0.21611409 0.05412905 -0.25201726
v -0.21853061 0.04344770 -0.25201726
v -0.27750316 0.09919180 -0.14736265
v -0.19218117 0.11264539 -0.25201726
v -0.19650304 0.10500810 -0.25201726
v -0.27750316 -0.14634314 -0.13169597
v -0.21318637 -0.06464311 -0.25201726
v -0.21286108 -0.06453440 -0.25245243
v -0.20946863 -0.07491677 -0.25245243
v -0.20551854 -0.08508171 -0.25245243
v -0.20496088 -0.08635912 -0.25245243
v -0.20110373 -0.09508358 -0.25245243
v -0.19617774 -0.10484083 -0.25245243
v -0.19078703 -0.11435348 -0.25245243
v -0.18460630 -0.12332253 -0.25293267
v -0.17865792 -0.13250904 -0.25245243
v -0.25515029 -0.16501510 -0.13982943
v -0.17196600 -0.14109759 -0.25245243
v -0.16480936 -0.14938718 -0.25245243
v -0.15728095 -0.15729627 -0.25245243
v -0.14938077 -0.16482484 -0.25245243
v -0.14910194 -0.16449870 -0.25293267
v -0.14877664 -0.16411820 -0.25347286
v -0.14784721 -0.16498792 -0.25341284
v 0.16546479 -0.14998512 -0.25095180
v 0.17262143 -0.14169553 -0.25093681
v 0.17940629 -0.13305262 -0.25093681
v 0.18567996 -0.12408355 -0.25093681
v 0.14952500 -0.16498792 -0.25218233
v 0.14971089 -0.16498792 -0.25200224
v 0.08753179 -0.16501510 -0.20780841
v -0.13371982 -0.16498792 -0.25731450
v 0.13367817 -0.16498792 -0.25729951
v 0.13549055 -0.16498792 -0.25725448
v 0.13730295 -0.16498792 -0.25711942
v 0.13897593 -0.16498792 -0.25689435
v 0.14055598 -0.16498792 -0.25657922
v 0.14208953 -0.16498792 -0.25617403
v 0.14343722 -0.16498792 -0.25569382
v 0.14464548 -0.16498792 -0.25515360
v 0.14603963 -0.16498792 -0.25446332
v 0.14682965 -0.16498792 -0.25402811
v 0.14785202 -0.16498792 -0.25339785
v 0.14854909 -0.16498792 -0.25291765
v 0.15756460 -0.15756807 -0.25200224
v 0.15775049 -0.15775831 -0.25153705
v 0.15793638 -0.15792139 -0.25095180
v 0.18549408 -0.12394765 -0.25153705
v 0.18526171 -0.12378459 -0.25200224
v 0.18461111 -0.12334971 -0.25293267
v 0.18368168 -0.12275179 -0.25402811
v 0.18312402 -0.12237127 -0.25459835
v 0.18247342 -0.12196359 -0.25516862
v 0.18177634 -0.12150155 -0.25569382
v 0.17564209 -0.13028036 -0.25569382
v 0.17494501 -0.12973678 -0.25617403
v 0.17415498 -0.12916602 -0.25657922
v 0.17331849 -0.12854090 -0.25689435
v 0.17847686 -0.11927287 -0.25711942
v 0.17243554 -0.12788860 -0.25711942
v 0.17754743 -0.11864775 -0.25725448
v 0.18205518 -0.11149968 -0.25725448
v -0.17796084 0.11264539 -0.25720948
v -0.20110373 0.09508777 -0.25245243
v -0.20551854 0.08511308 -0.25245243
v -0.20946863 0.07492097 -0.25245243
v -0.21286108 0.06456578 -0.25245243
v -0.21578878 0.05402033 -0.25245243
v -0.21815884 0.04339335 -0.25245243
v -0.22038949 0.03265765 -0.25201726
v -0.27750316 0.08416182 -0.15097919
v -0.19176292 0.11264539 -0.25245243
v -0.19617774 0.10484502 -0.25245243
v -0.27750316 -0.13123162 -0.13739839
v -0.21611409 -0.05409767 -0.25201726
v -0.21578878 -0.05401613 -0.25245243
v -0.21244283 -0.06442568 -0.25293267
v -0.20905039 -0.07478087 -0.25293267
v -0.21197811 -0.06426261 -0.25347286
v -0.20510030 -0.08494581 -0.25293267
v -0.20449618 -0.08635912 -0.25293267
v -0.20068549 -0.09492050 -0.25293267
v -0.19580597 -0.10465057 -0.25293267
v -0.18999700 -0.11386426 -0.25347286
v -0.18418805 -0.12305075 -0.25347286
v -0.17833261 -0.13223724 -0.25293267
v -0.24409004 -0.16501510 -0.14731762
v -0.17122245 -0.14049965 -0.25347286
v -0.16448405 -0.14908822 -0.25293267
v -0.15663035 -0.15661679 -0.25347286
v -0.14835839 -0.16368334 -0.25404313
v -0.14687130 -0.16498792 -0.25404313
v -0.15621211 -0.15620911 -0.25404313
v 0.16532537 -0.14982204 -0.25153705
v 0.17243554 -0.14153245 -0.25153705
v 0.17917393 -0.13288954 -0.25153705
v 0.14938559 -0.16482484 -0.25243744
v -0.08734109 -0.16501510 -0.20776339
v -0.13390571 -0.16498792 -0.25731450
v -0.18730165 0.10011588 -0.25732952
v 0.15012914 -0.15017538 -0.25731450
v 0.13474701 -0.16417256 -0.25729951
v 0.14339074 -0.15822035 -0.25725448
v 0.14418076 -0.15906291 -0.25711942
v 0.14492431 -0.15987827 -0.25689435
v 0.14562139 -0.16066647 -0.25657922
v 0.14627199 -0.16137312 -0.25617403
v 0.14687611 -0.16205259 -0.25569382
v 0.14738731 -0.16265053 -0.25515360
v 0.14785202 -0.16319411 -0.25459835
v 0.14836322 -0.16368334 -0.25402811
v 0.14873499 -0.16411820 -0.25345787
v 0.14910676 -0.16449870 -0.25291765
v 0.15700693 -0.15699731 -0.25291765
v 0.16481419 -0.14938718 -0.25243744
v 0.16504654 -0.14963180 -0.25200224
v 0.17894156 -0.13269928 -0.25200224
v 0.17866273 -0.13250904 -0.25243744
v 0.17833744 -0.13226442 -0.25293267
v 0.17740801 -0.13158496 -0.25402811
v 0.17685035 -0.13120444 -0.25459835
v 0.17629269 -0.13076958 -0.25516862
v 0.16969371 -0.13924943 -0.25516862
v 0.16904311 -0.13873303 -0.25569382
v 0.16834603 -0.13816227 -0.25617403
v 0.16760248 -0.13756433 -0.25657922
v 0.16681246 -0.13688485 -0.25689435
v 0.16588303 -0.13620538 -0.25711942
v 0.16574362 -0.13471054 -0.25725448
v 0.17150611 -0.12718195 -0.25725448
v 0.17657152 -0.11799546 -0.25731450
v 0.18070750 -0.11149968 -0.25731450
v -0.17861144 0.11264539 -0.25726950
v -0.19580597 0.10465477 -0.25293267
v -0.20068549 0.09492469 -0.25293267
v -0.20463559 0.08475976 -0.25347286
v -0.20905039 0.07478507 -0.25293267
v -0.21197811 0.06429398 -0.25347286
v -0.21537054 0.05393879 -0.25293267
v -0.21774060 0.04328463 -0.25293267
v -0.21959946 0.03254893 -0.25293267
v -0.22001770 0.03260329 -0.25245243
v -0.22136538 0.02178605 -0.25245243
v -0.22173716 0.02181323 -0.25201726
v -0.27750316 0.06951235 -0.15399547
v -0.19069408 0.11264539 -0.25347286
v -0.27750316 -0.12413791 -0.13982943
v -0.21853061 -0.04341633 -0.25201726
v -0.21815884 -0.04336197 -0.25245243
v -0.21537054 -0.05390742 -0.25293267
v -0.20853920 -0.07459062 -0.25347286
v -0.20463559 -0.08475556 -0.25347286
v -0.21142045 -0.06409954 -0.25404313
v -0.21485935 -0.05377152 -0.25347286
v -0.21430169 -0.05363563 -0.25404313
v -0.20403145 -0.08635912 -0.25338283
v -0.20022078 -0.09467588 -0.25347286
v -0.19534124 -0.10440597 -0.25347286
v -0.19483006 -0.10413417 -0.25404313
v -0.18948582 -0.11356528 -0.25404313
v -0.18367685 -0.12272461 -0.25404313
v -0.17744966 -0.13158496 -0.25404313
v -0.17791438 -0.13193828 -0.25347286
v -0.15305203 -0.16501510 -0.20492719
v -0.17075774 -0.14011915 -0.25404313
v -0.16369405 -0.14835438 -0.25404313
v -0.16411230 -0.14873488 -0.25347286
v -0.14794016 -0.16319411 -0.25461337
v -0.14584893 -0.16498792 -0.25461337
v -0.15574738 -0.15571989 -0.25461337
v 0.17224964 -0.14134221 -0.25200224
v -0.13557869 -0.16498792 -0.25726950
v -0.14343239 -0.15822035 -0.25726950
v -0.14264238 -0.15735063 -0.25731450
v -0.18730165 -0.10008451 -0.25731450
v -0.19199529 -0.09078930 -0.25731450
v -0.19622421 -0.08124948 -0.25731450
v -0.19998841 -0.07151940 -0.25731450
v -0.20324144 -0.06162625 -0.25731450
v -0.20602973 -0.05157002 -0.25731450
v -0.20830685 -0.04140508 -0.25731450
v -0.21007277 -0.03113143 -0.25731450
v -0.21137397 -0.02083059 -0.25731450
v -0.21211752 -0.01042104 -0.25731450
v -0.21239635 -0.00001149 -0.25731450
v -0.21211752 0.01042524 -0.25731450
v -0.21137397 0.02078043 -0.25731450
v -0.21007277 0.03113562 -0.25731450
v -0.20830685 0.04140928 -0.25731450
v -0.20602973 0.05160140 -0.25731450
v -0.20324144 0.06163044 -0.25731450
v -0.19998841 0.07155077 -0.25731450
v -0.19622421 0.08125366 -0.25731450
v -0.19199529 0.09079349 -0.25731450
v -0.19301766 0.09130989 -0.25726950
v -0.18832403 0.10065946 -0.25726950
v -0.18316567 0.10976441 -0.25726950
v -0.18214330 0.10919365 -0.25732952
v -0.17995913 0.11264539 -0.25732952
v 0.17053020 -0.12652966 -0.25731450
v 0.16416357 -0.13473772 -0.25731450
v 0.15737872 -0.14261961 -0.25731450
v -0.15017079 -0.15017538 -0.25731450
v -0.15737391 -0.14261961 -0.25731450
v -0.16415876 -0.13471054 -0.25731450
v -0.17057185 -0.12650248 -0.25731450
v -0.17656669 -0.11796828 -0.25731450
v -0.18214330 -0.10916229 -0.25731450
v 0.15101209 -0.15099074 -0.25725448
v 0.14260073 -0.15737781 -0.25729951
v 0.15180211 -0.15180612 -0.25711942
v 0.15259214 -0.15259431 -0.25689435
v 0.15333568 -0.15332814 -0.25657922
v 0.15398629 -0.15400761 -0.25617403
v 0.15463689 -0.15463273 -0.25569382
v 0.15519455 -0.15523067 -0.25515360
v 0.15575221 -0.15574707 -0.25459835
v 0.15621692 -0.15620911 -0.25402811
v 0.15663517 -0.15664397 -0.25345787
v 0.16448888 -0.14911540 -0.25291765
v 0.17159905 -0.14085299 -0.25293267
v 0.17122728 -0.14052683 -0.25345787
v 0.17076255 -0.14014633 -0.25402811
v 0.17025137 -0.13973865 -0.25459835
v 0.16318767 -0.14791952 -0.25459835
v 0.16263001 -0.14740312 -0.25515360
v 0.16202588 -0.14685954 -0.25569382
v 0.16137528 -0.14626160 -0.25617403
v 0.16067821 -0.14560930 -0.25657922
v 0.15984172 -0.14490265 -0.25689435
v 0.15905170 -0.14416882 -0.25711942
v 0.15821521 -0.14340781 -0.25725448
v -0.19534124 0.10441016 -0.25347286
v -0.20022078 0.09468009 -0.25347286
v -0.19970958 0.09446265 -0.25404313
v -0.20407793 0.08454232 -0.25404313
v -0.20853920 0.07462199 -0.25347286
v -0.21142045 0.06410372 -0.25404313
v -0.21430169 0.05366700 -0.25404313
v -0.21485935 0.05380290 -0.25347286
v -0.21722941 0.04320309 -0.25347286
v -0.21908827 0.03246739 -0.25347286
v -0.22043595 0.02167734 -0.25347286
v -0.22094715 0.02173169 -0.25293267
v -0.22178362 0.01088728 -0.25293267
v -0.22220187 0.01091446 -0.25245243
v -0.22252718 0.01091446 -0.25201726
v -0.22285248 0.01094164 -0.25155205
v -0.27750316 0.04113749 -0.15807721
v -0.27750316 0.05518902 -0.15630646
v -0.27750316 0.06850672 -0.15416054
v -0.18995054 0.11264539 -0.25410315
v -0.19483006 0.10413837 -0.25404313
v -0.27750316 -0.11489706 -0.14281571
v -0.22038949 -0.03265345 -0.25201726
v -0.27750316 -0.09913324 -0.14736265
v -0.21774060 -0.04325325 -0.25293267
v -0.22001770 -0.03259909 -0.25245243
v -0.21959946 -0.03251756 -0.25293267
v -0.21722941 -0.04317172 -0.25347286
v -0.20798154 -0.07440037 -0.25404313
v -0.20407793 -0.08451095 -0.25404313
v -0.20342731 -0.08635912 -0.25393808
v -0.21076985 -0.06390928 -0.25461337
v -0.20737742 -0.07415576 -0.25461337
v -0.21365109 -0.05347255 -0.25461337
v -0.21667175 -0.04303582 -0.25404313
v -0.21602114 -0.04292711 -0.25461337
v -0.19970958 -0.09443128 -0.25404313
v -0.19910546 -0.09415948 -0.25461337
v -0.19422594 -0.10380803 -0.25461337
v -0.18888170 -0.11321196 -0.25461337
v -0.18311921 -0.12234409 -0.25461337
v -0.17689200 -0.13117726 -0.25461337
v -0.17024654 -0.13971147 -0.25461337
v -0.14473361 -0.16498792 -0.25516862
v -0.14347887 -0.16498792 -0.25570884
v -0.14208472 -0.16498792 -0.25618905
v -0.14059763 -0.16498792 -0.25659421
v -0.14008644 -0.16498792 -0.25669926
v -0.13901758 -0.16498792 -0.25690934
v -0.13729814 -0.16498792 -0.25713444
v -0.13711226 -0.16498792 -0.25714946
v -0.16318285 -0.14789234 -0.25461337
v -0.14742896 -0.16262335 -0.25516862
v -0.15523620 -0.15520349 -0.25516862
v -0.14417595 -0.15906291 -0.25713444
v -0.15100728 -0.15099074 -0.25726950
v -0.18832403 -0.10065527 -0.25726950
v -0.18316567 -0.10976022 -0.25726950
v -0.19301766 -0.09127852 -0.25726950
v -0.19459771 -0.08635912 -0.25729951
v -0.19729306 -0.08168434 -0.25726950
v -0.20105727 -0.07189991 -0.25726950
v -0.20435676 -0.06195239 -0.25726950
v -0.20714505 -0.05184181 -0.25726950
v -0.20942217 -0.04162252 -0.25726950
v -0.21123455 -0.03126732 -0.25726950
v -0.21248929 -0.02093931 -0.25726950
v -0.21327931 -0.01047540 -0.25726950
v -0.21355814 -0.00001149 -0.25726950
v -0.21327931 0.01047960 -0.25726950
v -0.21123455 0.03129870 -0.25726950
v -0.21248929 0.02088914 -0.25726950
v -0.20942217 0.04162671 -0.25726950
v -0.20714505 0.05187319 -0.25726950
v -0.20435676 0.06198377 -0.25726950
v -0.20105727 0.07193127 -0.25726950
v -0.19729306 0.08171570 -0.25726950
v -0.19408652 0.09177193 -0.25713444
v -0.18934640 0.10120304 -0.25713444
v -0.18414158 0.11036235 -0.25713444
v -0.18135327 0.11264539 -0.25726950
v -0.15821040 -0.14340781 -0.25726950
v -0.16504171 -0.13544436 -0.25726950
v -0.17150128 -0.12718195 -0.25726950
v -0.17754260 -0.11862057 -0.25726950
v 0.16369887 -0.14835438 -0.25402811
v 0.16411711 -0.14876206 -0.25345787
v -0.19910546 0.09416369 -0.25461337
v -0.20347379 0.08427054 -0.25461337
v -0.20737742 0.07418713 -0.25461337
v -0.20798154 0.07440457 -0.25404313
v -0.21076985 0.06391348 -0.25461337
v -0.21365109 0.05350393 -0.25461337
v -0.21602114 0.04295848 -0.25461337
v -0.21667175 0.04306720 -0.25404313
v -0.21853061 0.03238586 -0.25404313
v -0.21983182 0.02162298 -0.25404313
v -0.22066832 0.01083292 -0.25404313
v -0.22127244 0.01086010 -0.25347286
v -0.22248070 -0.00001149 -0.25245243
v -0.22280601 -0.00001149 -0.25201726
v -0.22313131 -0.00001149 -0.25155205
v -0.27750316 0.01357800 -0.16010308
v -0.27750316 0.02526496 -0.15945780
v -0.27750316 0.02730339 -0.15933776
v -0.18925346 0.11264539 -0.25461337
v -0.19422594 0.10381222 -0.25461337
v -0.27750316 -0.08413044 -0.15097919
v -0.27750316 -0.06948097 -0.15399547
v -0.22173716 -0.02183622 -0.25201726
v -0.22136538 -0.02180904 -0.25245243
v -0.22094715 -0.02175468 -0.25293267
v -0.22043595 -0.02172750 -0.25347286
v -0.21908827 -0.03243602 -0.25347286
v -0.21853061 -0.03238166 -0.25404313
v -0.20347379 -0.08426633 -0.25461337
v -0.20240495 -0.08635912 -0.25473341
v -0.21007277 -0.06369185 -0.25516862
v -0.20668034 -0.07391115 -0.25516862
v -0.20282319 -0.08396737 -0.25516862
v -0.21290754 -0.05330948 -0.25516862
v -0.21788001 -0.03227295 -0.25461337
v -0.21713646 -0.03216423 -0.25516862
v -0.21527760 -0.04276403 -0.25516862
v -0.19845486 -0.09383334 -0.25516862
v -0.19357532 -0.10345471 -0.25516862
v -0.18827756 -0.11283146 -0.25516862
v -0.18251507 -0.12193641 -0.25516862
v -0.17628786 -0.13074240 -0.25516862
v -0.16968890 -0.13924943 -0.25516862
v -0.14687130 -0.16202542 -0.25570884
v -0.14626718 -0.16137312 -0.25618905
v -0.14561656 -0.16063929 -0.25659421
v -0.14491948 -0.15987827 -0.25690934
v -0.16262519 -0.14740312 -0.25516862
v -0.15463206 -0.15463273 -0.25570884
v -0.16202107 -0.14685954 -0.25570884
v -0.15258732 -0.15256713 -0.25690934
v -0.15179729 -0.15177894 -0.25713444
v -0.15904687 -0.14416882 -0.25713444
v -0.18934640 -0.10117167 -0.25713444
v -0.18414158 -0.11035816 -0.25713444
v -0.19404005 -0.09176774 -0.25713444
v -0.19524831 -0.08635912 -0.25726950
v -0.19836190 -0.08211920 -0.25713444
v -0.20212612 -0.07228041 -0.25713444
v -0.20542561 -0.06227854 -0.25713444
v -0.20821390 -0.05214078 -0.25713444
v -0.21053748 -0.04183995 -0.25713444
v -0.21234988 -0.03145758 -0.25713444
v -0.21365109 -0.02104802 -0.25713444
v -0.21444111 -0.01055694 -0.25713444
v -0.21467346 -0.00001149 -0.25713444
v -0.21444111 0.01053395 -0.25713444
v -0.21365109 0.02102504 -0.25713444
v -0.21053748 0.04187132 -0.25713444
v -0.21234988 0.03148895 -0.25713444
v -0.20542561 0.06230992 -0.25713444
v -0.20821390 0.05214498 -0.25713444
v -0.20212612 0.07231179 -0.25713444
v -0.19836190 0.08215058 -0.25713444
v -0.19938429 0.08255826 -0.25690934
v -0.19506241 0.09226115 -0.25690934
v -0.19027583 0.10169226 -0.25690934
v -0.18507101 0.11090593 -0.25690934
v -0.18400216 0.11264539 -0.25690934
v -0.18270096 0.11264539 -0.25713444
v -0.16592468 -0.13617820 -0.25713444
v -0.17243072 -0.12786143 -0.25713444
v -0.17847203 -0.11924569 -0.25713444
v -0.19845486 0.09383753 -0.25516862
v -0.20282319 0.08399874 -0.25516862
v -0.20668034 0.07394253 -0.25516862
v -0.21007277 0.06369604 -0.25516862
v -0.21290754 0.05331367 -0.25516862
v -0.21527760 0.04279541 -0.25516862
v -0.21713646 0.03219560 -0.25516862
v -0.21788001 0.03230432 -0.25461337
v -0.21918121 0.02156862 -0.25461337
v -0.21997124 0.01080574 -0.25461337
v -0.22025007 -0.00001149 -0.25461337
v -0.22094715 -0.00001149 -0.25404313
v -0.22150479 -0.00001149 -0.25347286
v -0.22127244 -0.01088309 -0.25347286
v -0.22178362 -0.01088309 -0.25293267
v -0.22220187 -0.01091026 -0.25245243
v -0.22252718 -0.01093744 -0.25201726
v -0.22285248 -0.01096462 -0.25155205
v -0.27750316 -0.01368252 -0.16010308
v -0.27750316 -0.00039200 -0.16034319
v -0.27750316 0.00031465 -0.16034319
v -0.18841697 0.11264539 -0.25516862
v -0.19357532 0.10348608 -0.25516862
v -0.27750316 -0.06850253 -0.15416054
v -0.27750316 -0.05513047 -0.15630646
v -0.27750316 -0.04107894 -0.15807721
v -0.22066832 -0.01085591 -0.25404313
v -0.21983182 -0.02167314 -0.25404313
v -0.21918121 -0.02159161 -0.25461337
v -0.21211752 -0.05309205 -0.25570884
v -0.20928276 -0.06344724 -0.25570884
v -0.20593679 -0.07363936 -0.25570884
v -0.20203318 -0.08364122 -0.25570884
v -0.20087138 -0.08635912 -0.25570884
v -0.21448758 -0.04262814 -0.25570884
v -0.21843767 -0.02153725 -0.25516862
v -0.21764766 -0.02142853 -0.25570884
v -0.21629997 -0.03202834 -0.25570884
v -0.19771130 -0.09348002 -0.25570884
v -0.19287825 -0.10307419 -0.25570884
v -0.18758048 -0.11242376 -0.25570884
v -0.18181799 -0.12147437 -0.25570884
v -0.17563726 -0.13025318 -0.25570884
v -0.16903828 -0.13870585 -0.25570884
v -0.15402794 -0.15400761 -0.25618905
v -0.15333086 -0.15332814 -0.25659421
v -0.16834120 -0.13816227 -0.25618905
v -0.16137046 -0.14626160 -0.25618905
v -0.15988337 -0.14490265 -0.25690934
v -0.16680765 -0.13688485 -0.25690934
v -0.19027583 -0.10168807 -0.25690934
v -0.19506241 -0.09222978 -0.25690934
v -0.18507101 -0.11092892 -0.25690934
v -0.17940147 -0.11987081 -0.25690934
v -0.19696775 -0.08635912 -0.25704440
v -0.19938429 -0.08255406 -0.25690934
v -0.20314848 -0.07266092 -0.25690934
v -0.20649445 -0.06260470 -0.25690934
v -0.20932922 -0.05241257 -0.25690934
v -0.21160634 -0.04205738 -0.25690934
v -0.21341872 -0.03162065 -0.25690934
v -0.21471994 -0.02115674 -0.25690934
v -0.21550995 -0.01061130 -0.25690934
v -0.21578878 -0.00001149 -0.25690934
v -0.21550995 0.01058831 -0.25690934
v -0.21471994 0.02110658 -0.25690934
v -0.21341872 0.03162484 -0.25690934
v -0.20932922 0.05241677 -0.25690934
v -0.21160634 0.04208875 -0.25690934
v -0.20649445 0.06260888 -0.25690934
v -0.20314848 0.07269229 -0.25690934
v -0.19599186 0.09269603 -0.25659421
v -0.20417087 0.07304561 -0.25659421
v -0.20031372 0.08296594 -0.25659421
v -0.19120528 0.10220866 -0.25659421
v -0.18595397 0.11144951 -0.25659421
v -0.18521042 0.11264539 -0.25659421
v -0.17331368 -0.12851372 -0.25690934
v -0.19287825 0.10307838 -0.25570884
v -0.19771130 0.09351139 -0.25570884
v -0.20203318 0.08367260 -0.25570884
v -0.20593679 0.07367073 -0.25570884
v -0.20928276 0.06347862 -0.25570884
v -0.21211752 0.05312342 -0.25570884
v -0.21448758 0.04265951 -0.25570884
v -0.21764766 0.02140555 -0.25570884
v -0.21843767 0.02148708 -0.25516862
v -0.21629997 0.03205971 -0.25570884
v -0.21922769 0.01077856 -0.25516862
v -0.21950652 -0.00001149 -0.25516862
v -0.21997124 -0.01082873 -0.25461337
v -0.27750316 -0.02724483 -0.15933776
v -0.27750316 -0.02534230 -0.15945780
v -0.18790579 0.11264539 -0.25545371
v -0.18758048 0.11242795 -0.25570884
v -0.21128103 -0.05287462 -0.25618905
v -0.20839979 -0.06320263 -0.25618905
v -0.20505382 -0.07334039 -0.25618905
v -0.20124315 -0.08331507 -0.25618905
v -0.19989547 -0.08635912 -0.25618905
v -0.21360461 -0.04243788 -0.25618905
v -0.21541701 -0.03191962 -0.25618905
v -0.21922769 -0.01077437 -0.25516862
v -0.21843767 -0.01074719 -0.25570884
v -0.21755470 -0.01069283 -0.25618905
v -0.21676469 -0.02134699 -0.25618905
v -0.19687481 -0.09309950 -0.25618905
v -0.19208823 -0.10263933 -0.25618905
v -0.18679047 -0.11196172 -0.25618905
v -0.18107444 -0.12098515 -0.25618905
v -0.17494018 -0.12970960 -0.25618905
v -0.16062692 -0.14560930 -0.25659421
v -0.16759767 -0.13753715 -0.25659421
v -0.17415017 -0.12913884 -0.25659421
v -0.19120528 -0.10220447 -0.25659421
v -0.19599186 -0.09269182 -0.25659421
v -0.18028443 -0.12044157 -0.25659421
v -0.18595397 -0.11144532 -0.25659421
v -0.20031372 -0.08296175 -0.25659421
v -0.20417087 -0.07301424 -0.25659421
v -0.20747036 -0.06290366 -0.25659421
v -0.21030512 -0.05265718 -0.25659421
v -0.21267518 -0.04227481 -0.25659421
v -0.21448758 -0.03175654 -0.25659421
v -0.21578878 -0.02126546 -0.25659421
v -0.21657880 -0.01063847 -0.25659421
v -0.21685763 -0.00001149 -0.25659421
v -0.21657880 0.01064267 -0.25659421
v -0.21578878 0.02124247 -0.25659421
v -0.21448758 0.03178792 -0.25659421
v -0.21267518 0.04227901 -0.25659421
v -0.21030512 0.05266138 -0.25659421
v -0.20747036 0.06293504 -0.25659421
v -0.20124315 0.08334646 -0.25618905
v -0.19687481 0.09310371 -0.25618905
v -0.19208823 0.10264352 -0.25618905
v -0.20839979 0.06320682 -0.25618905
v -0.20505382 0.07337177 -0.25618905
v -0.18679047 0.11193873 -0.25618905
v -0.18637222 0.11264539 -0.25618905
v -0.21128103 0.05290599 -0.25618905
v -0.21360461 0.04246926 -0.25618905
v -0.21541701 0.03192381 -0.25618905
v -0.21676469 0.02132401 -0.25618905
v -0.21755470 0.01066985 -0.25618905
v -0.21843767 0.01072421 -0.25570884
v -0.21867003 -0.00001149 -0.25570884
v -0.18739459 0.11264539 -0.25572383
v -0.21778707 -0.00001149 -0.25618905
f 1 2 8
f 1 8 3
f 1 3 9
f 1 9 37
f 1 37 36
f 1 36 35
f 1 35 85
f 1 85 152
f 1 152 222
f 1 222 288
f 1 288 402
f 1 402 488
f 1 488 487
f 1 487 568
f 1 568 631
f 1 631 639
f 1 639 585
f 1 585 513
f 1 513 427
f 1 427 341
f 1 341 235
f 1 235 161
f 1 161 93
f 1 93 38
f 1 38 10
f 1 10 4
f 1 4 5
f 1 5 2
f 2 6 7
f 2 7 8
f 2 5 6
f 3 8 9
f 4 10 5
f 5 10 38
f 5 38 92
f 5 92 160
f 5 160 234
f 5 234 340
f 5 340 339
f 5 339 338
f 5 338 426
f 5 426 425
f 5 425 424
f 5 424 512
f 5 512 511
f 5 511 510
f 5 510 584
f 5 584 583
f 5 583 517
f 5 517 516
f 5 516 515
f 5 515 430
f 5 430 429
f 5 429 345
f 5 345 343
f 5 343 236
f 5 236 163
f 5 163 95
f 5 95 39
f 5 39 11
f 5 11 12
f 5 12 13
f 5 13 14
f 5 14 6
f 6 15 16
f 6 16 7
f 6 14 13
f 6 13 47
f 6 47 106
f 6 106 176
f 6 176 253
f 6 253 187
f 6 187 120
f 6 120 64
f 6 64 15
f 7 16 17
f 7 17 8
f 8 17 18
f 8 18 19
f 8 19 20
f 8 20 21
f 8 21 22
f 8 22 23
f 8 23 24
f 8 24 25
f 8 25 26
f 8 26 27
f 8 27 28
f 8 28 29
f 8 29 30
f 8 30 31
f 8 31 32
f 8 32 33
f 8 33 34
f 8 34 35
f 8 35 36
f 8 36 37
f 8 37 9
f 11 39 40
f 11 40 41
f 11 41 42
f 11 42 43
f 11 43 44
f 11 44 45
f 11 45 12
f 12 45 46
f 12 46 13
f 13 46 48
f 13 48 49
f 13 49 50
f 13 50 51
f 13 51 52
f 13 52 53
f 13 53 54
f 13 54 47
f 15 55 56
f 15 56 57
f 15 57 58
f 15 58 59
f 15 59 60
f 15 60 61
f 15 61 62
f 15 62 63
f 15 63 16
f 15 64 65
f 15 65 66
f 15 66 67
f 15 67 68
f 15 68 55
f 16 63 17
f 17 63 62
f 17 62 18
f 18 62 69
f 18 69 19
f 19 69 70
f 19 70 20
f 20 70 21
f 21 70 22
f 22 70 71
f 22 71 72
f 22 72 23
f 23 72 73
f 23 73 24
f 24 73 74
f 24 74 25
f 25 74 75
f 25 75 26
f 26 75 76
f 26 76 27
f 27 76 77
f 27 77 28
f 28 77 29
f 29 77 78
f 29 78 30
f 30 78 31
f 31 79 80
f 31 80 32
f 31 78 79
f 32 80 33
f 33 81 82
f 33 82 34
f 33 80 81
f 34 82 83
f 34 83 84
f 34 84 85
f 34 85 35
f 38 86 87
f 38 87 88
f 38 88 89
f 38 89 90
f 38 90 91
f 38 91 92
f 38 93 94
f 38 94 86
f 39 95 96
f 39 96 40
f 40 96 97
f 40 97 98
f 40 98 99
f 40 99 41
f 41 99 42
f 42 99 100
f 42 100 101
f 42 101 43
f 43 101 102
f 43 102 44
f 44 102 103
f 44 103 45
f 45 103 46
f 46 103 104
f 46 104 105
f 46 105 48
f 47 54 106
f 48 105 107
f 48 107 49
f 49 107 50
f 50 107 108
f 50 108 109
f 50 109 51
f 51 109 52
f 52 109 110
f 52 110 53
f 53 110 54
f 54 110 111
f 54 111 112
f 54 112 113
f 54 113 106
f 55 68 136
f 55 136 114
f 55 114 56
f 56 114 115
f 56 115 116
f 56 116 57
f 57 116 59
f 57 59 58
f 59 116 117
f 59 117 70
f 59 70 69
f 59 69 62
f 59 62 60
f 60 62 61
f 64 118 119
f 64 119 65
f 64 120 188
f 64 188 121
f 64 121 122
f 64 122 123
f 64 123 124
f 64 124 125
f 64 125 126
f 64 126 127
f 64 127 128
f 64 128 129
f 64 129 130
f 64 130 131
f 64 131 132
f 64 132 133
f 64 133 118
f 65 119 134
f 65 134 135
f 65 135 66
f 66 135 136
f 66 136 68
f 66 68 67
f 70 117 137
f 70 137 71
f 71 137 138
f 71 138 72
f 72 138 73
f 73 138 139
f 73 139 74
f 74 139 75
f 75 139 140
f 75 140 76
f 76 140 141
f 76 141 77
f 77 141 78
f 78 141 142
f 78 142 79
f 79 142 143
f 79 143 81
f 79 81 80
f 81 143 144
f 81 144 145
f 81 145 82
f 82 145 146
f 82 146 147
f 82 147 83
f 83 148 84
f 83 147 149
f 83 149 148
f 84 148 150
f 84 150 151
f 84 151 152
f 84 152 85
f 86 153 154
f 86 154 87
f 86 94 162
f 86 162 153
f 87 154 155
f 87 155 88
f 88 155 156
f 88 156 89
f 89 156 157
f 89 157 90
f 90 157 91
f 91 157 158
f 91 158 231
f 91 231 159
f 91 159 92
f 92 159 160
f 93 161 162
f 93 162 94
f 95 163 164
f 95 164 96
f 96 164 165
f 96 165 97
f 97 166 98
f 97 165 239
f 97 239 166
f 98 167 169
f 98 169 99
f 98 166 168
f 98 168 167
f 99 169 170
f 99 170 100
f 100 170 101
f 101 170 171
f 101 171 172
f 101 172 102
f 102 172 103
f 103 172 173
f 103 173 104
f 104 174 175
f 104 175 105
f 104 173 174
f 105 175 107
f 106 113 176
f 107 177 178
f 107 178 108
f 107 175 177
f 108 178 109
f 109 179 111
f 109 111 110
f 109 178 179
f 111 179 112
f 112 180 181
f 112 181 113
f 112 179 182
f 112 182 180
f 113 181 176
f 114 183 115
f 114 136 183
f 115 183 184
f 115 184 116
f 116 184 185
f 116 185 137
f 116 137 117
f 118 186 134
f 118 134 119
f 118 133 186
f 120 187 188
f 121 188 189
f 121 189 190
f 121 190 122
f 122 190 191
f 122 191 123
f 123 191 192
f 123 192 124
f 124 192 193
f 124 193 194
f 124 194 125
f 125 194 195
f 125 195 126
f 126 195 127
f 127 195 196
f 127 196 197
f 127 197 128
f 128 197 198
f 128 198 129
f 129 198 130
f 130 198 199
f 130 199 200
f 130 200 131
f 131 200 132
f 132 200 201
f 132 201 202
f 132 202 133
f 133 202 186
f 134 186 203
f 134 203 204
f 134 204 205
f 134 205 183
f 134 183 135
f 135 183 136
f 137 185 138
f 138 185 206
f 138 206 207
f 138 207 208
f 138 208 139
f 139 208 140
f 140 208 209
f 140 209 210
f 140 210 141
f 141 210 211
f 141 211 142
f 142 211 144
f 142 144 143
f 144 211 212
f 144 212 213
f 144 213 145
f 145 213 214
f 145 214 215
f 145 215 146
f 146 215 216
f 146 216 147
f 147 216 149
f 148 149 150
f 149 216 217
f 149 217 218
f 149 218 219
f 149 219 150
f 150 220 221
f 150 221 151
f 150 219 289
f 150 289 220
f 151 221 288
f 151 288 222
f 151 222 152
f 153 162 223
f 153 223 224
f 153 224 225
f 153 225 154
f 154 225 226
f 154 226 155
f 155 226 227
f 155 227 156
f 156 227 228
f 156 228 157
f 157 228 158
f 158 228 229
f 158 229 230
f 158 230 231
f 159 231 232
f 159 232 233
f 159 233 234
f 159 234 160
f 161 235 223
f 161 223 162
f 163 236 164
f 164 236 237
f 164 237 165
f 165 237 238
f 165 238 346
f 165 346 239
f 166 239 168
f 167 168 240
f 167 240 241
f 167 241 169
f 168 242 240
f 168 239 243
f 168 243 244
f 168 244 242
f 169 241 170
f 170 245 171
f 170 241 245
f 171 245 246
f 171 246 247
f 171 247 172
f 172 247 173
f 173 247 248
f 173 248 249
f 173 249 174
f 174 250 251
f 174 251 252
f 174 252 175
f 174 249 250
f 175 252 177
f 176 181 253
f 177 254 255
f 177 255 256
f 177 256 178
f 177 252 251
f 177 251 254
f 178 256 179
f 179 256 255
f 179 255 182
f 180 257 181
f 180 182 257
f 181 257 258
f 181 258 253
f 182 259 257
f 182 255 259
f 183 205 260
f 183 260 184
f 184 260 185
f 185 260 206
f 186 202 203
f 187 261 188
f 187 253 261
f 188 261 262
f 188 262 263
f 188 263 189
f 189 264 265
f 189 265 266
f 189 266 267
f 189 267 268
f 189 268 269
f 189 269 270
f 189 270 271
f 189 271 272
f 189 272 273
f 189 273 274
f 189 274 275
f 189 275 276
f 189 276 277
f 189 277 278
f 189 278 279
f 189 279 280
f 189 280 281
f 189 281 282
f 189 282 283
f 189 283 284
f 189 284 285
f 189 285 286
f 189 286 287
f 189 287 288
f 189 288 221
f 189 221 220
f 189 220 289
f 189 289 290
f 189 290 291
f 189 291 190
f 189 263 292
f 189 292 293
f 189 293 294
f 189 294 295
f 189 295 296
f 189 296 297
f 189 297 264
f 190 291 298
f 190 298 192
f 190 192 299
f 190 299 191
f 191 299 192
f 192 298 193
f 193 298 300
f 193 300 301
f 193 301 194
f 194 301 195
f 195 301 302
f 195 302 196
f 196 302 303
f 196 303 197
f 197 303 304
f 197 304 305
f 197 305 198
f 198 305 306
f 198 306 199
f 199 306 200
f 200 306 307
f 200 307 308
f 200 308 201
f 201 308 202
f 202 308 203
f 203 308 408
f 203 408 309
f 203 309 204
f 204 309 310
f 204 310 260
f 204 260 205
f 206 260 207
f 207 260 208
f 208 260 310
f 208 310 311
f 208 311 209
f 209 311 312
f 209 312 313
f 209 313 210
f 210 313 211
f 211 313 212
f 212 313 314
f 212 314 315
f 212 315 316
f 212 316 213
f 213 316 317
f 213 317 214
f 214 317 215
f 215 317 318
f 215 318 216
f 216 318 319
f 216 319 320
f 216 320 217
f 217 320 218
f 218 320 321
f 218 321 291
f 218 291 290
f 218 290 289
f 218 289 219
f 223 235 322
f 223 322 323
f 223 323 224
f 224 323 225
f 225 323 324
f 225 324 325
f 225 325 412
f 225 412 326
f 225 326 226
f 226 326 227
f 227 326 327
f 227 327 328
f 227 328 329
f 227 329 228
f 228 330 229
f 228 329 330
f 229 330 331
f 229 331 230
f 230 331 332
f 230 332 333
f 230 333 232
f 230 232 231
f 232 334 335
f 232 335 233
f 232 333 334
f 233 335 336
f 233 336 337
f 233 337 338
f 233 338 339
f 233 339 340
f 233 340 234
f 235 341 342
f 235 342 322
f 236 343 237
f 237 344 347
f 237 347 238
f 237 343 345
f 237 345 344
f 238 347 348
f 238 348 346
f 239 346 349
f 239 349 243
f 240 242 350
f 240 350 241
f 241 350 351
f 241 351 352
f 241 352 245
f 242 353 354
f 242 354 350
f 242 244 355
f 242 355 353
f 243 349 356
f 243 356 244
f 244 356 357
f 244 357 355
f 245 352 358
f 245 358 246
f 246 358 247
f 247 358 248
f 248 358 359
f 248 359 360
f 248 360 249
f 249 360 361
f 249 361 362
f 249 362 250
f 250 362 251
f 251 363 364
f 251 364 254
f 251 362 363
f 253 258 365
f 253 365 366
f 253 366 367
f 253 367 368
f 253 368 369
f 253 369 370
f 253 370 371
f 253 371 372
f 253 372 261
f 254 364 255
f 255 364 373
f 255 373 259
f 257 374 365
f 257 365 258
f 257 259 375
f 257 375 374
f 259 373 375
f 261 372 262
f 262 372 376
f 262 376 377
f 262 377 292
f 262 292 263
f 264 378 265
f 264 297 379
f 264 379 378
f 265 378 380
f 265 380 381
f 265 381 266
f 266 381 382
f 266 382 267
f 267 383 384
f 267 384 268
f 267 382 383
f 268 384 269
f 269 384 385
f 269 385 270
f 270 386 387
f 270 387 271
f 270 385 386
f 271 387 272
f 272 387 388
f 272 388 389
f 272 389 273
f 273 389 274
f 274 389 390
f 274 390 391
f 274 391 275
f 275 391 276
f 276 392 277
f 276 391 393
f 276 393 392
f 277 392 278
f 278 392 394
f 278 394 395
f 278 395 279
f 279 395 396
f 279 396 280
f 280 396 281
f 281 396 397
f 281 397 398
f 281 398 282
f 282 398 283
f 283 398 284
f 284 399 285
f 284 398 399
f 285 399 400
f 285 400 286
f 286 401 402
f 286 402 287
f 286 400 401
f 287 402 288
f 291 321 298
f 292 377 293
f 293 377 403
f 293 403 294
f 294 404 405
f 294 405 295
f 294 403 404
f 295 405 406
f 295 406 296
f 296 406 379
f 296 379 297
f 298 321 300
f 300 321 320
f 300 320 301
f 301 320 319
f 301 319 318
f 301 318 302
f 302 318 317
f 302 317 303
f 303 317 304
f 304 317 316
f 304 316 305
f 305 316 315
f 305 315 314
f 305 314 306
f 306 314 407
f 306 407 307
f 307 407 308
f 308 407 408
f 309 408 311
f 309 311 310
f 311 408 407
f 311 407 312
f 312 407 313
f 313 407 314
f 322 342 324
f 322 324 323
f 324 342 409
f 324 409 410
f 324 410 325
f 325 410 411
f 325 411 412
f 326 412 327
f 327 412 411
f 327 411 413
f 327 413 414
f 327 414 328
f 328 414 415
f 328 415 416
f 328 416 330
f 328 330 329
f 330 416 417
f 330 417 331
f 331 417 332
f 332 418 419
f 332 419 420
f 332 420 333
f 332 417 418
f 333 420 334
f 334 420 421
f 334 421 335
f 335 421 422
f 335 422 336
f 336 422 337
f 337 422 423
f 337 423 424
f 337 424 425
f 337 425 426
f 337 426 338
f 341 427 342
f 342 427 428
f 342 428 409
f 344 345 429
f 344 429 430
f 344 430 431
f 344 431 432
f 344 432 347
f 346 348 435
f 346 435 349
f 347 432 433
f 347 433 348
f 348 433 434
f 348 434 435
f 349 435 436
f 349 436 356
f 350 354 437
f 350 437 351
f 351 437 352
f 352 437 438
f 352 438 359
f 352 359 358
f 353 355 439
f 353 439 354
f 354 440 441
f 354 441 437
f 354 439 440
f 355 442 439
f 355 357 445
f 355 445 442
f 356 436 443
f 356 443 357
f 357 443 444
f 357 444 445
f 359 446 360
f 359 438 446
f 360 447 448
f 360 448 361
f 360 446 447
f 361 448 362
f 362 449 363
f 362 448 449
f 363 449 450
f 363 450 451
f 363 451 364
f 364 451 373
f 365 374 452
f 365 452 366
f 366 452 453
f 366 453 367
f 367 453 368
f 368 453 454
f 368 454 369
f 369 454 455
f 369 455 370
f 370 455 376
f 370 376 371
f 371 376 372
f 373 456 375
f 373 451 456
f 374 375 452
f 375 457 452
f 375 456 458
f 375 458 457
f 376 455 459
f 376 459 460
f 376 460 377
f 377 460 461
f 377 461 403
f 378 462 380
f 378 379 462
f 379 406 463
f 379 463 462
f 380 462 464
f 380 464 465
f 380 465 381
f 381 465 382
f 382 465 466
f 382 466 383
f 383 467 384
f 383 466 467
f 384 467 468
f 384 468 385
f 385 468 469
f 385 469 470
f 385 470 386
f 386 470 387
f 387 470 471
f 387 471 472
f 387 472 388
f 388 472 389
f 389 472 473
f 389 473 390
f 390 473 474
f 390 474 475
f 390 475 391
f 391 475 476
f 391 476 393
f 392 477 394
f 392 393 476
f 392 476 478
f 392 478 477
f 394 477 395
f 395 479 396
f 395 477 480
f 395 480 479
f 396 481 397
f 396 479 481
f 397 481 482
f 397 482 398
f 398 482 399
f 399 482 483
f 399 483 484
f 399 484 400
f 400 484 485
f 400 485 486
f 400 486 401
f 401 486 487
f 401 487 488
f 401 488 402
f 403 461 489
f 403 489 404
f 404 489 490
f 404 490 405
f 405 490 406
f 406 491 463
f 406 490 491
f 409 428 514
f 409 514 492
f 409 492 493
f 409 493 410
f 410 493 411
f 411 493 494
f 411 494 495
f 411 495 413
f 413 495 414
f 414 496 497
f 414 497 415
f 414 495 496
f 415 498 499
f 415 499 416
f 415 497 498
f 416 499 417
f 417 500 418
f 417 499 500
f 418 500 419
f 419 500 501
f 419 501 502
f 419 502 503
f 419 503 420
f 420 504 421
f 420 503 504
f 421 504 505
f 421 505 506
f 421 506 507
f 421 507 508
f 421 508 422
f 422 509 423
f 422 508 509
f 423 509 510
f 423 510 511
f 423 511 512
f 423 512 424
f 427 513 514
f 427 514 428
f 430 515 431
f 431 515 516
f 431 516 517
f 431 517 509
f 431 509 508
f 431 508 507
f 431 507 432
f 432 507 506
f 432 506 433
f 433 506 505
f 433 505 434
f 434 505 518
f 434 518 519
f 434 519 436
f 434 436 435
f 436 519 520
f 436 520 443
f 437 441 438
f 438 441 446
f 439 442 521
f 439 521 522
f 439 522 523
f 439 523 440
f 440 523 441
f 441 523 524
f 441 524 525
f 441 525 446
f 442 445 526
f 442 526 521
f 443 520 527
f 443 527 444
f 444 527 528
f 444 528 529
f 444 529 526
f 444 526 445
f 446 530 531
f 446 531 447
f 446 525 530
f 447 531 448
f 448 532 449
f 448 531 532
f 449 533 534
f 449 534 450
f 449 532 533
f 450 534 451
f 451 535 458
f 451 458 456
f 451 534 535
f 452 457 536
f 452 536 453
f 453 536 537
f 453 537 454
f 454 537 455
f 455 537 459
f 457 458 536
f 458 535 538
f 458 538 539
f 458 539 536
f 459 537 540
f 459 540 461
f 459 461 460
f 461 540 541
f 461 541 489
f 462 542 543
f 462 543 464
f 462 463 544
f 462 544 542
f 463 491 545
f 463 545 544
f 464 543 546
f 464 546 466
f 464 466 465
f 466 546 547
f 466 547 467
f 467 548 549
f 467 549 468
f 467 547 548
f 468 549 550
f 468 550 469
f 469 550 470
f 470 550 551
f 470 551 471
f 471 552 472
f 471 551 552
f 472 552 553
f 472 553 473
f 473 553 554
f 473 554 555
f 473 555 474
f 474 555 475
f 475 555 556
f 475 556 557
f 475 557 476
f 476 558 478
f 476 557 558
f 477 559 480
f 477 478 560
f 477 560 559
f 478 558 560
f 479 480 559
f 479 559 561
f 479 561 481
f 481 561 562
f 481 562 483
f 481 483 482
f 483 563 484
f 483 562 564
f 483 564 565
f 483 565 563
f 484 563 566
f 484 566 485
f 485 566 486
f 486 567 487
f 486 566 567
f 487 567 568
f 489 541 490
f 490 541 569
f 490 569 545
f 490 545 491
f 492 514 570
f 492 570 571
f 492 571 493
f 493 572 573
f 493 573 494
f 493 571 572
f 494 573 495
f 495 574 575
f 495 575 496
f 495 573 574
f 496 575 576
f 496 576 497
f 497 576 498
f 498 577 578
f 498 578 499
f 498 576 579
f 498 579 577
f 499 578 500
f 500 578 580
f 500 580 501
f 501 580 581
f 501 581 502
f 502 581 582
f 502 582 518
f 502 518 503
f 503 518 505
f 503 505 504
f 509 517 583
f 509 583 584
f 509 584 510
f 513 585 586
f 513 586 570
f 513 570 514
f 518 582 520
f 518 520 519
f 520 582 594
f 520 594 527
f 521 526 587
f 521 587 522
f 522 587 588
f 522 588 523
f 523 589 590
f 523 590 524
f 523 588 589
f 524 590 525
f 525 590 591
f 525 591 530
f 526 592 587
f 526 529 593
f 526 593 592
f 527 594 595
f 527 595 528
f 528 596 597
f 528 597 529
f 528 595 596
f 529 597 593
f 530 591 598
f 530 598 599
f 530 599 531
f 531 599 532
f 532 599 600
f 532 600 601
f 532 601 533
f 533 601 602
f 533 602 534
f 534 602 538
f 534 538 535
f 536 539 537
f 537 539 603
f 537 603 540
f 538 604 539
f 538 602 604
f 539 604 603
f 540 603 541
f 541 603 604
f 541 604 605
f 541 605 569
f 542 606 543
f 542 544 606
f 543 607 547
f 543 547 546
f 543 606 607
f 544 545 608
f 544 608 609
f 544 609 606
f 545 569 608
f 547 607 610
f 547 610 611
f 547 611 548
f 548 611 549
f 549 611 612
f 549 612 550
f 550 613 614
f 550 614 551
f 550 612 613
f 551 614 552
f 552 614 615
f 552 615 553
f 553 615 616
f 553 616 554
f 554 616 617
f 554 617 555
f 555 617 618
f 555 618 619
f 555 619 556
f 556 619 620
f 556 620 557
f 557 621 558
f 557 620 621
f 558 622 560
f 558 621 622
f 559 560 622
f 559 622 623
f 559 623 624
f 559 624 561
f 561 624 564
f 561 564 562
f 563 565 625
f 563 625 626
f 563 626 627
f 563 627 566
f 564 625 565
f 564 624 628
f 564 628 629
f 564 629 625
f 566 627 567
f 567 630 631
f 567 631 568
f 567 627 630
f 569 605 608
f 570 586 627
f 570 627 571
f 571 627 626
f 571 626 625
f 571 625 572
f 572 625 573
f 573 625 629
f 573 629 628
f 573 628 574
f 574 628 632
f 574 632 575
f 575 632 576
f 576 632 633
f 576 633 634
f 576 634 579
f 577 579 635
f 577 635 636
f 577 636 637
f 577 637 578
f 578 637 580
f 579 634 635
f 580 637 581
f 581 637 638
f 581 638 595
f 581 595 594
f 581 594 582
f 585 639 586
f 586 639 631
f 586 631 630
f 586 630 627
f 587 613 612
f 587 612 588
f 587 592 614
f 587 614 613
f 588 612 611
f 588 611 589
f 589 611 590
f 590 610 591
f 590 611 610
f 591 607 598
f 591 610 607
f 592 593 615
f 592 615 614
f 593 597 615
f 595 638 640
f 595 640 596
f 596 640 618
f 596 618 617
f 596 617 597
f 597 617 616
f 597 616 615
f 598 607 599
f 599 606 609
f 599 609 600
f 599 607 606
f 600 609 608
f 600 608 601
f 601 608 602
f 602 605 604
f 602 608 605
f 618 640 636
f 618 636 619
f 619 636 635
f 619 635 620
f 620 635 621
f 621 633 622
f 621 635 634
f 621 634 633
f 622 633 632
f 622 632 623
f 623 632 624
f 624 632 628
f 636 640 637
f 637 640 638

