# https://github.com/mikedh/trimesh
v 0.38661653 -0.31701821 0.24721193
v 0.37042847 -0.33580080 0.24721193
v 0.37040687 -0.33575541 0.24439889
v 0.38642201 -0.31716955 0.24439889
v 0.38655168 -0.31701821 0.24443278
v 0.38648686 -0.31701821 0.24951661
v 0.38637879 -0.31715441 0.24951661
v 0.37036365 -0.33574027 0.24951661
v 0.35352719 -0.35356933 0.24721193
v 0.35348397 -0.35353908 0.24439889
v 0.37025559 -0.33561918 0.24104357
v 0.38629234 -0.31701821 0.24104357
v 0.38622749 -0.31701821 0.25144848
v 0.35346237 -0.35350880 0.24951661
v 0.37021235 -0.33558890 0.25141457
v 0.33573979 -0.37047520 0.24721193
v 0.33571818 -0.37044492 0.24439889
v 0.35333270 -0.35338771 0.24104357
v 0.35307333 -0.35313043 0.23711205
v 0.36997461 -0.33537701 0.23711205
v 0.38622749 -0.31701821 0.24050128
v 0.38577363 -0.31701821 0.25293973
v 0.36995301 -0.33536187 0.25293973
v 0.35331106 -0.35335746 0.25141457
v 0.33554527 -0.37026331 0.25141457
v 0.33567494 -0.37041464 0.24951661
v 0.35307333 -0.35311529 0.25293973
v 0.31715271 -0.38650319 0.24721193
v 0.31713110 -0.38645780 0.24439889
v 0.31700143 -0.38630643 0.24104357
v 0.33556688 -0.37029356 0.24104357
v 0.33532915 -0.37002113 0.23711205
v 0.35268429 -0.35272178 0.23246881
v 0.36956397 -0.33499864 0.23246881
v 0.38506040 -0.31701821 0.23246881
v 0.38579524 -0.31701821 0.23711205
v 0.38519007 -0.31701821 0.25415984
v 0.36962879 -0.33505917 0.25415984
v 0.33530754 -0.37000600 0.25293973
v 0.31674206 -0.38600373 0.25293973
v 0.31695819 -0.38626105 0.25141457
v 0.31708789 -0.38642752 0.24951661
v 0.35274914 -0.35279745 0.25415984
v 0.33500496 -0.36967304 0.25415984
v 0.29780918 -0.40156257 0.24721193
v 0.29776594 -0.40151718 0.24439889
v 0.29765788 -0.40135068 0.24104357
v 0.31676367 -0.38601887 0.23711205
v 0.31639627 -0.38557997 0.23246881
v 0.33494014 -0.36959735 0.23246881
v 0.33444303 -0.36903736 0.22711384
v 0.35214397 -0.35219204 0.22711384
v 0.36900204 -0.33448404 0.22711384
v 0.38410944 -0.31701821 0.22741887
v 0.38447684 -0.31701821 0.25507495
v 0.36921817 -0.33469594 0.25507495
v 0.35236010 -0.35241908 0.25507495
v 0.31646109 -0.38565564 0.25415984
v 0.29716080 -0.40068474 0.25415984
v 0.29742014 -0.40104797 0.25293973
v 0.29761466 -0.40132043 0.25141457
v 0.29774433 -0.40148690 0.24951661
v 0.33465916 -0.36927953 0.25507495
v 0.27773079 -0.41568357 0.24721193
v 0.27770919 -0.41563818 0.24439889
v 0.27768758 -0.41560790 0.24951661
v 0.27760112 -0.41547167 0.24104357
v 0.27738500 -0.41516897 0.23711205
v 0.29742014 -0.40104797 0.23711205
v 0.29709595 -0.40060908 0.23246881
v 0.31592077 -0.38498971 0.22711384
v 0.33379462 -0.36832601 0.22094545
v 0.35145235 -0.35151097 0.22094545
v 0.36826718 -0.33383325 0.22094545
v 0.38276944 -0.31701821 0.22094545
v 0.38363397 -0.31701821 0.25575280
v 0.36876428 -0.33427215 0.25575280
v 0.35192785 -0.35196504 0.25575280
v 0.31611529 -0.38523185 0.25507495
v 0.29683658 -0.40024582 0.25507495
v 0.27682307 -0.41433656 0.25507495
v 0.27712566 -0.41479060 0.25415984
v 0.27738500 -0.41515386 0.25293973
v 0.27755791 -0.41542628 0.25141457
v 0.33422691 -0.36881033 0.25575280
v 0.31572625 -0.38474753 0.25575280
v 0.25704727 -0.42882079 0.24721193
v 0.25702566 -0.42877540 0.24439889
v 0.25689599 -0.42856351 0.25141457
v 0.25700405 -0.42874512 0.24951661
v 0.25691760 -0.42859375 0.24104357
v 0.25672308 -0.42827594 0.23711205
v 0.25644210 -0.42780674 0.23246881
v 0.27708241 -0.41469979 0.23246881
v 0.27665016 -0.41406411 0.22711384
v 0.29664209 -0.39998853 0.22711384
v 0.29605854 -0.39921665 0.22094545
v 0.31529400 -0.38424808 0.22094545
v 0.31453755 -0.38330972 0.21389589
v 0.33297336 -0.36743304 0.21389589
v 0.35060948 -0.35064828 0.21389589
v 0.36738107 -0.33303109 0.21389589
v 0.38119170 -0.31701821 0.21389589
v 0.38268298 -0.31701821 0.25626117
v 0.36822397 -0.33378783 0.25626117
v 0.35140914 -0.35146558 0.25626117
v 0.29644758 -0.39973125 0.25575280
v 0.27647725 -0.41380683 0.25575280
v 0.25620437 -0.42741323 0.25507495
v 0.25648534 -0.42788243 0.25415984
v 0.25672308 -0.42827594 0.25293973
v 0.33372980 -0.36826548 0.25626117
v 0.31525078 -0.38418755 0.25626117
v 0.29601532 -0.39915609 0.25626117
v 0.23569374 -0.44092882 0.24721193
v 0.23567212 -0.44088343 0.24439889
v 0.23558567 -0.44070181 0.24104357
v 0.23554245 -0.44065639 0.25141457
v 0.23565051 -0.44085315 0.24951661
v 0.23539115 -0.44036883 0.23711205
v 0.23513180 -0.43986937 0.23246881
v 0.23478600 -0.43920344 0.22711384
v 0.25605309 -0.42715594 0.22711384
v 0.27615306 -0.41326198 0.22094545
v 0.27548307 -0.41226307 0.21389589
v 0.29534531 -0.39824799 0.21389589
v 0.31362981 -0.38218972 0.20593120
v 0.33200076 -0.36635846 0.20593120
v 0.34957206 -0.34963423 0.20593120
v 0.36630040 -0.33204731 0.20593120
v 0.37926817 -0.31701821 0.20593120
v 0.38177526 -0.31701821 0.25660008
v 0.36764044 -0.33325812 0.25663400
v 0.35084721 -0.35090557 0.25663400
v 0.33321109 -0.36769035 0.25663400
v 0.27610984 -0.41320142 0.25626117
v 0.25588018 -0.42686838 0.25575280
v 0.23493728 -0.43949100 0.25507495
v 0.23517503 -0.43996018 0.25415984
v 0.23539115 -0.44035369 0.25293973
v 0.31475368 -0.38358214 0.25663400
v 0.29556143 -0.39853558 0.25663400
v 0.21377827 -0.45196229 0.24721193
v 0.21375665 -0.45191687 0.24439889
v 0.21367019 -0.45173526 0.24104357
v 0.21351892 -0.45140228 0.23711205
v 0.21351892 -0.45138714 0.25293973
v 0.21364859 -0.45168984 0.25141457
v 0.21373504 -0.45188659 0.24951661
v 0.21328117 -0.45088768 0.23246881
v 0.21295698 -0.45020661 0.22711384
v 0.23431051 -0.43835586 0.22094545
v 0.25553438 -0.42630839 0.22094545
v 0.25492921 -0.42527920 0.21389589
v 0.27468339 -0.41105226 0.20593120
v 0.29448080 -0.39708260 0.20593120
v 0.29346499 -0.39572045 0.19694975
v 0.31252754 -0.38087296 0.19694975
v 0.33085528 -0.36508712 0.19694975
v 0.34838334 -0.34842342 0.19694975
v 0.36504686 -0.33091217 0.19694975
v 0.37883589 -0.31701821 0.20420270
v 0.38052171 -0.31701821 0.25693902
v 0.36701363 -0.33269811 0.25693902
v 0.35026366 -0.35030016 0.25693902
v 0.33264914 -0.36705467 0.25693902
v 0.31421337 -0.38293132 0.25693902
v 0.25551274 -0.42626297 0.25626117
v 0.27567759 -0.41255063 0.25663400
v 0.23463470 -0.43893102 0.25575280
v 0.21308666 -0.45049417 0.25507495
v 0.21332440 -0.45099363 0.25415984
v 0.29504272 -0.39785448 0.25693902
v 0.27520210 -0.41183928 0.25693902
v 0.19134408 -0.46192116 0.24721193
v 0.19132248 -0.46187574 0.24439889
v 0.19125764 -0.46167898 0.24104357
v 0.19110635 -0.46133089 0.23711205
v 0.19089022 -0.46081629 0.23246881
v 0.19110635 -0.46133089 0.25293973
v 0.19123602 -0.46163356 0.25141457
v 0.19132248 -0.46183032 0.24951661
v 0.19060925 -0.46012008 0.22711384
v 0.19024183 -0.45922711 0.22094545
v 0.21252471 -0.44932878 0.22094545
v 0.21202762 -0.44823906 0.21389589
v 0.23374858 -0.43729642 0.21389589
v 0.23307857 -0.43600994 0.20593120
v 0.25417274 -0.42403811 0.20593120
v 0.25330824 -0.42257002 0.19694975
v 0.27373242 -0.40962955 0.19694975
v 0.29227626 -0.39414641 0.18705323
v 0.31127399 -0.37932920 0.18705323
v 0.32951528 -0.36361900 0.18705323
v 0.34695688 -0.34701586 0.18705323
v 0.37702042 -0.31701821 0.19694975
v 0.36355558 -0.32956517 0.18705323
v 0.37438363 -0.31701821 0.18705323
v 0.38034880 -0.31701821 0.25697291
v 0.36634365 -0.33209270 0.25714236
v 0.34961528 -0.34966451 0.25714236
v 0.33204401 -0.36640388 0.25714236
v 0.31365141 -0.38223511 0.25714236
v 0.29452401 -0.39712802 0.25714236
v 0.23428890 -0.43829533 0.25626117
v 0.25510210 -0.42558190 0.25663400
v 0.23392148 -0.43759912 0.25663400
v 0.25466985 -0.42485541 0.25693902
v 0.21280569 -0.44991904 0.25575280
v 0.21250311 -0.44926825 0.25626117
v 0.19073893 -0.46040764 0.25507495
v 0.19093344 -0.46092224 0.25415984
v 0.27470499 -0.41109765 0.25714236
v 0.16845605 -0.47074488 0.24721193
v 0.16843443 -0.47069946 0.24439889
v 0.16836959 -0.47050270 0.24104357
v 0.16823992 -0.47015461 0.23711205
v 0.16804540 -0.46962488 0.23246881
v 0.16780765 -0.46891353 0.22711384
v 0.16823992 -0.47013947 0.25293973
v 0.16834798 -0.47045732 0.25141457
v 0.16843443 -0.47065407 0.24951661
v 0.16748346 -0.46799028 0.22094545
v 0.16707282 -0.46685517 0.21389589
v 0.18976635 -0.45810711 0.21389589
v 0.18922603 -0.45677522 0.20593120
v 0.21140085 -0.44693744 0.20593120
v 0.23225729 -0.43451157 0.19694975
v 0.23132794 -0.43274078 0.18705323
v 0.25227082 -0.42085975 0.18705323
v 0.27263016 -0.40797985 0.18705323
v 0.29091465 -0.39229992 0.17630938
v 0.30980432 -0.37755838 0.17630938
v 0.32798076 -0.36190876 0.17630938
v 0.34533590 -0.34538129 0.17630938
v 0.36186978 -0.32802138 0.17630938
v 0.37135783 -0.31701821 0.17630938
v 0.37933299 -0.31701821 0.25714236
v 0.37784171 -0.31701821 0.25727794
v 0.36567366 -0.33147216 0.25724405
v 0.34896690 -0.34901369 0.25724405
v 0.33141720 -0.36570764 0.25724405
v 0.31306788 -0.38152379 0.25724405
v 0.29396209 -0.39638638 0.25724405
v 0.27420789 -0.41032577 0.25724405
v 0.21217892 -0.44855690 0.25663400
v 0.23351084 -0.43684238 0.25693902
v 0.21181150 -0.44778502 0.25693902
v 0.25421599 -0.42408353 0.25714236
v 0.23310019 -0.43605536 0.25714236
v 0.19047958 -0.45981738 0.25575280
v 0.19022022 -0.45916656 0.25626117
v 0.16791572 -0.46920109 0.25507495
v 0.16769959 -0.46861082 0.25575280
v 0.16808861 -0.46971568 0.25415984
v 0.16586250 -0.47153190 0.24927938
v 0.16586250 -0.47160757 0.24721193
v 0.16586250 -0.47156218 0.24439889
v 0.16586250 -0.47133514 0.24104357
v 0.16586250 -0.47094163 0.23711205
v 0.16586250 -0.47041190 0.23290941
v 0.16586250 -0.47035137 0.23246881
v 0.16586250 -0.47027570 0.23196045
v 0.16586250 -0.46947354 0.22660547
v 0.16586250 -0.46853516 0.22094545
v 0.16586250 -0.47045732 0.25415984
v 0.16586250 -0.47092649 0.25293973
v 0.16586250 -0.47127461 0.25141457
v 0.16586250 -0.47130486 0.25124511
v 0.16586250 -0.46726382 0.21389589
v 0.16586250 -0.46718815 0.21348917
v 0.16657573 -0.46549302 0.20593120
v 0.16601378 -0.46388870 0.19694975
v 0.18857764 -0.45520118 0.19694975
v 0.21066600 -0.44539368 0.19694975
v 0.20982310 -0.44359261 0.18705323
v 0.23024729 -0.43071267 0.17630938
v 0.25110373 -0.41889220 0.17630938
v 0.27135500 -0.40605769 0.17630938
v 0.26988533 -0.40387824 0.16485381
v 0.28933692 -0.39018103 0.16485381
v 0.30814013 -0.37551516 0.16485381
v 0.32620850 -0.35995632 0.16485381
v 0.34347722 -0.34351969 0.16485381
v 0.35990301 -0.32625058 0.16485381
v 0.36984494 -0.31701821 0.17129333
v 0.37689072 -0.31701821 0.25731182
v 0.36496043 -0.33083650 0.25731182
v 0.34829688 -0.34834775 0.25731182
v 0.33079046 -0.36501142 0.25731182
v 0.31246272 -0.38079730 0.25731182
v 0.29340014 -0.39562964 0.25731182
v 0.27366757 -0.40955389 0.25731182
v 0.25374049 -0.42329651 0.25724405
v 0.18959343 -0.45765305 0.25693902
v 0.18991764 -0.45844007 0.25663400
v 0.21142247 -0.44698286 0.25714236
v 0.23266792 -0.43523806 0.25724405
v 0.21103343 -0.44615042 0.25724405
v 0.16744024 -0.46792975 0.25626117
v 0.16718088 -0.46718815 0.25663400
v 0.16586250 -0.46988219 0.25507495
v 0.16586250 -0.46915570 0.25582057
v 0.16584088 -0.42747378 0.07625950
v 0.16586250 -0.46573517 0.20593120
v 0.16586250 -0.46346492 0.19471288
v 0.16586250 -0.46181521 0.18705323
v 0.16586250 -0.46394923 0.19701755
v 0.18779957 -0.45335472 0.18705323
v 0.18691345 -0.45122066 0.17630938
v 0.20882893 -0.44150397 0.17630938
v 0.20770505 -0.43912777 0.16485381
v 0.22899374 -0.42839700 0.16485381
v 0.24974212 -0.41663709 0.16485381
v 0.24820760 -0.41407925 0.15265261
v 0.26822114 -0.40139610 0.15265261
v 0.28756467 -0.38777456 0.15265261
v 0.30623820 -0.37321463 0.15265261
v 0.32419851 -0.35774660 0.15265261
v 0.34135914 -0.34141591 0.15265261
v 0.35769850 -0.32425275 0.15265261
v 0.36787817 -0.31701821 0.16485381
v 0.37598300 -0.31701821 0.25727794
v 0.16586250 -0.46346492 0.25731182
v 0.25324339 -0.42249435 0.25731182
v 0.23221406 -0.43442076 0.25731182
v 0.18924764 -0.45682064 0.25714236
v 0.16659734 -0.46555355 0.25714236
v 0.16689992 -0.46638599 0.25693902
v 0.21062279 -0.44528773 0.25731182
v 0.18853441 -0.45509523 0.25731182
v 0.18888022 -0.45597306 0.25724405
v 0.16586250 -0.46845949 0.25626117
v 0.16586250 -0.46677950 0.25693902
v 0.16586250 -0.46762705 0.25663400
v 0.16584088 -0.40487716 0.07625950
v 0.16584088 -0.42476460 0.06961662
v 0.16586250 -0.43072781 0.08422418
v 0.16586250 -0.43620670 0.09866227
v 0.16586250 -0.44118613 0.11276144
v 0.16586250 -0.44568124 0.12655558
v 0.16586250 -0.44972229 0.13987523
v 0.16586250 -0.45332444 0.15265261
v 0.16586250 -0.45376337 0.15431333
v 0.16586250 -0.45653307 0.16485381
v 0.16586250 -0.45918170 0.17563154
v 0.16586250 -0.45934820 0.17630938
v 0.16586250 -0.46582597 0.25714236
v 0.16586250 -0.46484220 0.25724405
v 0.16586250 -0.46382815 0.25731182
v 0.18591926 -0.44879907 0.16485381
v 0.20642988 -0.43641859 0.15265261
v 0.22758891 -0.42576352 0.15265261
v 0.22601116 -0.42279705 0.13987523
v 0.24647857 -0.41118845 0.13987523
v 0.26636243 -0.39859611 0.13987523
v 0.28555468 -0.38508052 0.13987523
v 0.30412015 -0.37061140 0.13987523
v 0.32192916 -0.35524935 0.13987523
v 0.33898175 -0.33902457 0.13987523
v 0.35519141 -0.32198250 0.13987523
v 0.35949236 -0.31701821 0.13987523
v 0.36392301 -0.31701821 0.15265261
v 0.37442687 -0.31701821 0.25714236
v 0.16586250 -0.46183032 0.25714236
v 0.16629475 -0.46467572 0.25724405
v 0.16597056 -0.46379790 0.25731182
v 0.16586250 -0.46087682 0.25693902
v 0.16586250 -0.46001413 0.25666788
v 0.16586250 -0.45992333 0.25663400
v 0.16586250 -0.45912117 0.25626117
v 0.16586250 -0.45833415 0.25578669
v 0.16586250 -0.45760766 0.25510883
v 0.16586250 -0.45754713 0.25504106
v 0.16586250 -0.45692658 0.25422764
v 0.16584088 -0.31701821 -0.05225985
v 0.16584088 -0.41830194 0.05487350
v 0.17457250 -0.42140463 0.06961662
v 0.17063895 -0.42564243 0.07625950
v 0.16586250 -0.42747378 0.07625950
v 0.17669055 -0.42655054 0.08422418
v 0.17865732 -0.43127269 0.09866227
v 0.18042958 -0.43555588 0.11276144
v 0.18205056 -0.43943048 0.12655558
v 0.18347700 -0.44292665 0.13987523
v 0.18477377 -0.44602934 0.15265261
v 0.20498182 -0.43337643 0.13987523
v 0.20338246 -0.42997107 0.12655558
v 0.22421730 -0.41946733 0.12655558
v 0.24453340 -0.40794957 0.12655558
v 0.26426598 -0.39546314 0.12655558
v 0.28330693 -0.38205349 0.12655558
v 0.30172110 -0.36769035 0.12655558
v 0.31940046 -0.35244936 0.12655558
v 0.33632335 -0.33636078 0.12655558
v 0.35240334 -0.31945494 0.12655558
v 0.35449979 -0.31701821 0.12655558
v 0.37362719 -0.31701821 0.25700679
v 0.37323815 -0.31701821 0.25693902
v 0.37211430 -0.31701821 0.25663400
v 0.37107688 -0.31701821 0.25626117
v 0.37010428 -0.31701821 0.25578669
v 0.36921817 -0.31701821 0.25510883
v 0.36837524 -0.31701821 0.25422764
v 0.16586250 -0.45633632 0.25324476
v 0.16584088 -0.31701821 -0.08893126
v 0.36757559 -0.31701821 0.25310919
v 0.17225991 -0.41581979 0.05487350
v 0.16584088 -0.41129440 0.04013038
v 0.16977443 -0.40979603 0.04013038
v 0.19246796 -0.40685984 0.05487350
v 0.19503990 -0.41232359 0.06961662
v 0.19741732 -0.41736355 0.08422418
v 0.19960022 -0.42197976 0.09866227
v 0.20158860 -0.42617217 0.11276144
v 0.22225052 -0.41575927 0.11276144
v 0.24237213 -0.40434742 0.11276144
v 0.26193178 -0.39199722 0.11276144
v 0.28079984 -0.37867838 0.11276144
v 0.29906273 -0.36445144 0.11276144
v 0.31659079 -0.34934667 0.11276144
v 0.33334076 -0.33339432 0.11276144
v 0.34894526 -0.31701821 0.11276144
v 0.34970173 -0.31701821 0.11462551
v 0.35385138 -0.31701821 0.12489486
v 0.16945022 -0.31701821 -0.08713496
v 0.16584088 -0.32455546 -0.08144107
v 0.16584088 -0.41000792 0.03758846
v 0.16707282 -0.40331823 0.02542115
v 0.18665409 -0.39463073 0.02542115
v 0.18965828 -0.40097231 0.04013038
v 0.20910987 -0.39117992 0.04013038
v 0.21217892 -0.39693126 0.05487350
v 0.21503182 -0.40225878 0.06961662
v 0.21764697 -0.40716255 0.08422418
v 0.22004601 -0.41165766 0.09866227
v 0.23999470 -0.40036690 0.09866227
v 0.25933823 -0.38813779 0.09866227
v 0.27803338 -0.37494004 0.09866227
v 0.29610175 -0.36084929 0.09866227
v 0.31345689 -0.34589589 0.09866227
v 0.33005559 -0.33011001 0.09866227
v 0.34252626 -0.31701821 0.09866227
v 0.17986766 -0.31701821 -0.08144107
v 0.17187089 -0.32152843 -0.08144107
v 0.16584088 -0.33584619 -0.06957879
v 0.16584088 -0.40378743 0.02542115
v 0.16584088 -0.40036690 0.01921887
v 0.18345538 -0.38785022 0.01088138
v 0.20580311 -0.38500485 0.02542115
v 0.22804278 -0.38044918 0.04013038
v 0.23139277 -0.38603401 0.05487350
v 0.23450503 -0.39122534 0.06961662
v 0.23580180 -0.39340478 0.07625950
v 0.23735793 -0.39597774 0.08422418
v 0.25650695 -0.38388485 0.08422418
v 0.27502918 -0.37083843 0.08422418
v 0.29285982 -0.35691419 0.08422418
v 0.31004208 -0.34211212 0.08422418
v 0.32644626 -0.32649273 0.08422418
v 0.33548045 -0.31701821 0.08422418
v 0.19002570 -0.31701821 -0.07554383
v 0.17662571 -0.33042786 -0.06957879
v 0.16584088 -0.34694019 -0.05724201
v 0.16584088 -0.39564478 0.01088138
v 0.16584088 -0.39473668 0.00935623
v 0.18004054 -0.38061568 -0.00345504
v 0.19849795 -0.37132275 -0.00345504
v 0.20225859 -0.37837568 0.01088138
v 0.22058633 -0.36800817 0.01088138
v 0.22443342 -0.37442544 0.02542115
v 0.24254502 -0.36298335 0.02542115
v 0.24643534 -0.36881033 0.04013038
v 0.25004470 -0.37421355 0.05487350
v 0.25341630 -0.37923837 0.06961662
v 0.25482115 -0.38135728 0.07625950
v 0.27172241 -0.36635846 0.06961662
v 0.29095790 -0.35455313 0.07625950
v 0.30801046 -0.33985698 0.07625950
v 0.32251272 -0.32255763 0.06961662
v 0.32430658 -0.32434356 0.07625950
v 0.33122271 -0.31701821 0.07612394
v 0.19499667 -0.31701821 -0.07242573
v 0.19261925 -0.32136196 -0.06957879
v 0.19771990 -0.32985273 -0.05724201
v 0.18129410 -0.33916077 -0.05724201
v 0.16856411 -0.35638446 -0.04439685
v 0.16584088 -0.35066342 -0.05280214
v 0.16584088 -0.38691184 -0.00345504
v 0.16584088 -0.37758866 -0.01745253
v 0.17638797 -0.37291193 -0.01745253
v 0.19447796 -0.36381578 -0.01745253
v 0.21645826 -0.36113685 -0.00345504
v 0.21209246 -0.35382664 -0.01745253
v 0.23837373 -0.35673258 0.01088138
v 0.23392148 -0.35007316 -0.00345504
v 0.25557759 -0.34460938 0.01088138
v 0.26005146 -0.35063314 0.02542115
v 0.26422274 -0.35627851 0.04013038
v 0.26811308 -0.36150011 0.05487350
v 0.28551143 -0.34792396 0.05487350
v 0.28933692 -0.35260069 0.06961662
v 0.30630305 -0.33798024 0.06961662
v 0.30223981 -0.33350027 0.05487350
v 0.31823337 -0.31827441 0.05487350
v 0.31946528 -0.31701821 0.05487350
v 0.32778627 -0.31701821 0.06961662
v 0.19949216 -0.31701821 -0.06957879
v 0.21183310 -0.31701821 -0.06134298
v 0.21367019 -0.31974250 -0.05724201
v 0.21903020 -0.32777923 -0.04439685
v 0.20269085 -0.33813161 -0.04439685
v 0.18583280 -0.34766668 -0.04439685
v 0.16584088 -0.35758013 -0.04439685
v 0.16584088 -0.35624826 -0.04602369
v 0.19024183 -0.35591528 -0.03114499
v 0.17256248 -0.36482981 -0.03114499
v 0.16584088 -0.36464819 -0.03524595
v 0.16584088 -0.36779630 -0.03114499
v 0.22918826 -0.34298995 -0.01745253
v 0.20746730 -0.34613803 -0.03114499
v 0.22421730 -0.33554351 -0.03114499
v 0.25080115 -0.33817700 -0.00345504
v 0.24574372 -0.33133596 -0.01745253
v 0.27217630 -0.33166891 0.01088138
v 0.27693114 -0.33746564 0.02542115
v 0.28138340 -0.34288400 0.04013038
v 0.29787400 -0.32867220 0.04013038
v 0.31697983 -0.31701821 0.05080643
v 0.21756053 -0.31701821 -0.05724201
v 0.23463470 -0.31701821 -0.04415961
v 0.23513180 -0.31701821 -0.04375290
v 0.24040535 -0.32413167 -0.03114499
v 0.26709726 -0.32546356 -0.00345504
v 0.24954760 -0.31701821 -0.03114499
v 0.26015952 -0.31701821 -0.02118067
v 0.26169404 -0.31887981 -0.01745253
v 0.27690950 -0.31701821 -0.00345504
v 0.28728369 -0.31701821 0.00867838
v 0.28810498 -0.31792632 0.01088138
v 0.29316241 -0.32348087 0.02542115
v 0.31012851 -0.31701821 0.04013038
v 0.24397147 -0.31701821 -0.03602548
v 0.26389855 -0.31701821 -0.01745253
v 0.28907758 -0.31701821 0.01088138
v 0.29015821 -0.31701821 0.01230485
v 0.29994884 -0.31701821 0.02542115
f 1 2 3
f 1 3 4
f 1 4 5
f 1 5 12
f 1 12 21
f 1 21 36
f 1 36 35
f 1 35 54
f 1 54 75
f 1 75 103
f 1 103 131
f 1 131 162
f 1 162 196
f 1 196 198
f 1 198 237
f 1 237 286
f 1 286 322
f 1 322 363
f 1 363 362
f 1 362 397
f 1 397 425
f 1 425 424
f 1 424 423
f 1 423 443
f 1 443 461
f 1 461 482
f 1 482 507
f 1 507 506
f 1 506 529
f 1 529 542
f 1 542 547
f 1 547 546
f 1 546 545
f 1 545 539
f 1 539 538
f 1 538 544
f 1 544 536
f 1 536 535
f 1 535 543
f 1 543 532
f 1 532 531
f 1 531 530
f 1 530 509
f 1 509 508
f 1 508 483
f 1 483 462
f 1 462 444
f 1 444 426
f 1 426 406
f 1 406 376
f 1 376 407
f 1 407 404
f 1 404 403
f 1 403 402
f 1 402 401
f 1 401 400
f 1 400 399
f 1 399 398
f 1 398 364
f 1 364 323
f 1 323 287
f 1 287 239
f 1 239 238
f 1 238 199
f 1 199 163
f 1 163 132
f 1 132 104
f 1 104 76
f 1 76 55
f 1 55 37
f 1 37 22
f 1 22 13
f 1 13 6
f 1 6 7
f 1 7 8
f 1 8 2
f 2 9 3
f 2 8 14
f 2 14 9
f 3 10 11
f 3 11 12
f 3 12 4
f 3 9 10
f 4 12 5
f 6 13 7
f 7 13 8
f 8 13 15
f 8 15 24
f 8 24 14
f 9 16 17
f 9 17 10
f 9 14 26
f 9 26 16
f 10 17 31
f 10 31 18
f 10 18 11
f 11 18 19
f 11 19 20
f 11 20 21
f 11 21 12
f 13 22 23
f 13 23 15
f 14 24 25
f 14 25 26
f 15 23 27
f 15 27 24
f 16 28 17
f 16 26 28
f 17 29 30
f 17 30 31
f 17 28 29
f 18 31 32
f 18 32 19
f 19 32 33
f 19 33 34
f 19 34 20
f 20 34 35
f 20 35 36
f 20 36 21
f 22 37 23
f 23 37 38
f 23 38 27
f 24 27 25
f 25 27 39
f 25 39 40
f 25 40 41
f 25 41 42
f 25 42 26
f 26 42 28
f 27 38 43
f 27 43 44
f 27 44 39
f 28 45 29
f 28 42 62
f 28 62 45
f 29 46 47
f 29 47 30
f 29 45 46
f 30 47 48
f 30 48 32
f 30 32 31
f 32 48 49
f 32 49 50
f 32 50 33
f 33 50 51
f 33 51 52
f 33 52 34
f 34 52 53
f 34 53 35
f 35 53 54
f 37 55 38
f 38 55 56
f 38 56 57
f 38 57 43
f 39 44 58
f 39 58 40
f 40 58 59
f 40 59 60
f 40 60 41
f 41 60 61
f 41 61 62
f 41 62 42
f 43 57 63
f 43 63 44
f 44 63 58
f 45 64 65
f 45 65 46
f 45 62 66
f 45 66 64
f 46 65 67
f 46 67 47
f 47 67 68
f 47 68 69
f 47 69 48
f 48 69 70
f 48 70 49
f 49 70 71
f 49 71 51
f 49 51 50
f 51 71 72
f 51 72 52
f 52 72 73
f 52 73 53
f 53 73 74
f 53 74 75
f 53 75 54
f 55 76 77
f 55 77 56
f 56 77 57
f 57 77 78
f 57 78 63
f 58 63 79
f 58 79 80
f 58 80 59
f 59 80 81
f 59 81 82
f 59 82 83
f 59 83 60
f 60 83 61
f 61 83 84
f 61 84 66
f 61 66 62
f 63 78 85
f 63 85 86
f 63 86 79
f 64 66 90
f 64 90 87
f 64 87 88
f 64 88 65
f 65 88 67
f 66 84 89
f 66 89 90
f 67 91 68
f 67 88 91
f 68 91 92
f 68 92 93
f 68 93 94
f 68 94 70
f 68 70 69
f 70 94 95
f 70 95 96
f 70 96 71
f 71 96 97
f 71 97 98
f 71 98 72
f 72 98 99
f 72 99 100
f 72 100 101
f 72 101 73
f 73 101 102
f 73 102 74
f 74 102 103
f 74 103 75
f 76 104 77
f 77 104 105
f 77 105 106
f 77 106 78
f 78 106 85
f 79 86 80
f 80 86 107
f 80 107 108
f 80 108 81
f 81 109 110
f 81 110 82
f 81 108 109
f 82 110 111
f 82 111 83
f 83 111 89
f 83 89 84
f 85 106 112
f 85 112 113
f 85 113 86
f 86 113 114
f 86 114 107
f 87 115 116
f 87 116 88
f 87 90 119
f 87 119 115
f 88 116 117
f 88 117 91
f 89 111 118
f 89 118 119
f 89 119 90
f 91 117 92
f 92 120 93
f 92 117 120
f 93 120 121
f 93 121 122
f 93 122 123
f 93 123 94
f 94 123 95
f 95 123 124
f 95 124 96
f 96 124 97
f 97 124 125
f 97 125 126
f 97 126 98
f 98 126 99
f 99 126 127
f 99 127 100
f 100 127 128
f 100 128 101
f 101 128 129
f 101 129 102
f 102 129 130
f 102 130 131
f 102 131 103
f 104 132 105
f 105 132 133
f 105 133 106
f 106 133 134
f 106 134 135
f 106 135 112
f 107 114 136
f 107 136 108
f 108 137 109
f 108 136 168
f 108 168 137
f 109 138 110
f 109 137 138
f 110 138 139
f 110 139 111
f 111 139 140
f 111 140 118
f 112 135 113
f 113 135 141
f 113 141 142
f 113 142 114
f 114 142 136
f 115 119 149
f 115 149 143
f 115 143 144
f 115 144 116
f 116 144 145
f 116 145 117
f 117 145 146
f 117 146 120
f 118 140 147
f 118 147 148
f 118 148 119
f 119 148 149
f 120 146 121
f 121 150 122
f 121 146 150
f 122 150 151
f 122 151 152
f 122 152 123
f 123 152 153
f 123 153 124
f 124 153 154
f 124 154 125
f 125 154 155
f 125 155 126
f 126 155 156
f 126 156 127
f 127 156 157
f 127 157 158
f 127 158 159
f 127 159 128
f 128 159 160
f 128 160 129
f 129 160 161
f 129 161 130
f 130 161 131
f 131 161 162
f 132 163 164
f 132 164 133
f 133 164 165
f 133 165 134
f 134 165 135
f 135 165 166
f 135 166 167
f 135 167 141
f 136 142 169
f 136 169 168
f 137 170 138
f 137 168 170
f 138 171 172
f 138 172 139
f 138 170 171
f 139 172 140
f 140 172 147
f 141 167 142
f 142 167 173
f 142 173 174
f 142 174 169
f 143 149 175
f 143 175 176
f 143 176 144
f 144 176 145
f 145 177 146
f 145 176 177
f 146 177 178
f 146 178 179
f 146 179 150
f 147 172 180
f 147 180 181
f 147 181 148
f 148 181 182
f 148 182 149
f 149 182 175
f 150 179 183
f 150 183 151
f 151 183 184
f 151 184 185
f 151 185 152
f 152 185 186
f 152 186 187
f 152 187 154
f 152 154 153
f 154 187 188
f 154 188 189
f 154 189 155
f 155 189 190
f 155 190 191
f 155 191 157
f 155 157 156
f 157 191 192
f 157 192 158
f 158 192 193
f 158 193 194
f 158 194 159
f 159 194 160
f 160 194 195
f 160 195 161
f 161 196 162
f 161 195 197
f 161 197 198
f 161 198 196
f 163 199 164
f 164 199 200
f 164 200 165
f 165 200 201
f 165 201 202
f 165 202 166
f 166 202 167
f 167 202 203
f 167 203 204
f 167 204 173
f 168 205 170
f 168 169 206
f 168 206 207
f 168 207 205
f 169 174 208
f 169 208 206
f 170 209 171
f 170 205 210
f 170 210 209
f 171 211 172
f 171 209 211
f 172 211 212
f 172 212 180
f 173 204 213
f 173 213 174
f 174 213 208
f 175 182 222
f 175 222 214
f 175 214 215
f 175 215 176
f 176 215 216
f 176 216 177
f 177 216 217
f 177 217 178
f 178 217 179
f 179 217 218
f 179 218 219
f 179 219 183
f 180 212 220
f 180 220 221
f 180 221 181
f 181 221 222
f 181 222 182
f 183 219 184
f 184 219 223
f 184 223 224
f 184 224 225
f 184 225 186
f 184 186 185
f 186 225 226
f 186 226 227
f 186 227 187
f 187 227 188
f 188 227 228
f 188 228 190
f 188 190 189
f 190 228 229
f 190 229 230
f 190 230 231
f 190 231 191
f 191 231 192
f 192 231 232
f 192 232 193
f 193 232 233
f 193 233 234
f 193 234 194
f 194 234 195
f 195 234 235
f 195 235 236
f 195 236 197
f 197 236 198
f 198 236 237
f 199 238 200
f 200 238 239
f 200 239 240
f 200 240 201
f 201 240 241
f 201 241 202
f 202 241 242
f 202 242 243
f 202 243 203
f 203 243 204
f 204 243 244
f 204 244 245
f 204 245 213
f 205 207 246
f 205 246 210
f 206 208 207
f 207 208 247
f 207 247 248
f 207 248 246
f 208 213 249
f 208 249 250
f 208 250 247
f 209 251 211
f 209 210 252
f 209 252 251
f 210 246 252
f 211 253 212
f 211 251 254
f 211 254 253
f 212 253 255
f 212 255 220
f 213 245 249
f 214 222 256
f 214 256 257
f 214 257 258
f 214 258 215
f 215 258 216
f 216 258 259
f 216 259 217
f 217 259 260
f 217 260 261
f 217 261 218
f 218 261 262
f 218 262 219
f 219 262 263
f 219 263 264
f 219 264 265
f 219 265 223
f 220 255 266
f 220 266 267
f 220 267 221
f 221 268 269
f 221 269 222
f 221 267 268
f 222 269 256
f 223 265 270
f 223 270 224
f 224 271 272
f 224 272 226
f 224 226 225
f 224 270 271
f 226 272 273
f 226 273 274
f 226 274 227
f 227 274 275
f 227 275 228
f 228 275 276
f 228 276 229
f 229 276 277
f 229 277 278
f 229 278 230
f 230 278 231
f 231 278 279
f 231 279 232
f 232 279 280
f 232 280 281
f 232 281 282
f 232 282 233
f 233 282 234
f 234 282 283
f 234 283 284
f 234 284 235
f 235 284 236
f 236 284 285
f 236 285 286
f 236 286 237
f 239 287 288
f 239 288 240
f 240 288 289
f 240 289 241
f 241 289 290
f 241 290 242
f 242 290 243
f 243 290 291
f 243 291 292
f 243 292 244
f 244 292 293
f 244 293 245
f 245 293 294
f 245 294 249
f 246 248 295
f 246 295 296
f 246 296 252
f 247 250 248
f 248 250 297
f 248 297 295
f 249 294 250
f 250 294 298
f 250 298 299
f 250 299 297
f 251 252 254
f 252 300 254
f 252 296 301
f 252 301 300
f 253 302 266
f 253 266 255
f 253 254 303
f 253 303 302
f 254 300 303
f 256 269 304
f 256 304 257
f 257 304 258
f 258 304 259
f 259 304 260
f 260 304 261
f 261 304 262
f 262 304 263
f 263 304 264
f 264 304 265
f 265 304 270
f 266 302 304
f 266 304 267
f 267 304 268
f 268 304 269
f 270 304 271
f 271 304 305
f 271 305 272
f 272 305 273
f 273 306 307
f 273 307 274
f 273 305 308
f 273 308 306
f 274 307 309
f 274 309 276
f 274 276 275
f 276 309 310
f 276 310 311
f 276 311 277
f 277 311 312
f 277 312 313
f 277 313 278
f 278 313 314
f 278 314 280
f 278 280 279
f 280 314 315
f 280 315 316
f 280 316 281
f 281 316 317
f 281 317 318
f 281 318 282
f 282 318 283
f 283 318 319
f 283 319 320
f 283 320 284
f 284 320 321
f 284 321 285
f 285 321 322
f 285 322 286
f 287 323 324
f 287 324 350
f 287 350 367
f 287 367 331
f 287 331 330
f 287 330 326
f 287 326 325
f 287 325 293
f 287 293 292
f 287 292 291
f 287 291 290
f 287 290 289
f 287 289 288
f 293 325 294
f 294 325 326
f 294 326 298
f 295 297 327
f 295 327 328
f 295 328 329
f 295 329 296
f 296 329 301
f 297 299 327
f 298 326 299
f 299 326 330
f 299 330 331
f 299 331 332
f 299 332 327
f 300 301 333
f 300 333 303
f 301 329 334
f 301 334 335
f 301 335 333
f 302 303 304
f 303 333 304
f 304 336 376
f 304 376 406
f 304 406 427
f 304 427 446
f 304 446 464
f 304 464 488
f 304 488 515
f 304 515 514
f 304 514 518
f 304 518 519
f 304 519 490
f 304 490 489
f 304 489 466
f 304 466 465
f 304 465 448
f 304 448 447
f 304 447 428
f 304 428 409
f 304 409 377
f 304 377 337
f 304 337 338
f 304 338 339
f 304 339 340
f 304 340 341
f 304 341 342
f 304 342 343
f 304 343 344
f 304 344 345
f 304 345 346
f 304 346 347
f 304 347 307
f 304 307 306
f 304 306 308
f 304 308 305
f 304 333 335
f 304 335 334
f 304 334 348
f 304 348 349
f 304 349 350
f 304 350 324
f 304 324 336
f 307 347 309
f 309 347 310
f 310 347 351
f 310 351 311
f 311 351 312
f 312 351 352
f 312 352 353
f 312 353 313
f 313 353 315
f 313 315 314
f 315 353 354
f 315 354 355
f 315 355 356
f 315 356 316
f 316 356 317
f 317 356 357
f 317 357 358
f 317 358 318
f 318 358 319
f 319 358 359
f 319 359 360
f 319 360 320
f 320 360 321
f 321 360 361
f 321 361 362
f 321 362 363
f 321 363 322
f 323 364 365
f 323 365 324
f 324 365 336
f 327 332 328
f 328 332 366
f 328 366 349
f 328 349 348
f 328 348 334
f 328 334 329
f 331 367 332
f 332 367 366
f 336 365 368
f 336 368 369
f 336 369 370
f 336 370 371
f 336 371 372
f 336 372 373
f 336 373 374
f 336 374 375
f 336 375 376
f 337 377 378
f 337 378 379
f 337 379 380
f 337 380 338
f 338 381 382
f 338 382 339
f 338 380 379
f 338 379 381
f 339 382 340
f 340 383 384
f 340 384 341
f 340 382 383
f 341 384 385
f 341 385 342
f 342 385 386
f 342 386 343
f 343 386 344
f 344 386 351
f 344 351 345
f 345 351 346
f 346 351 347
f 349 366 367
f 349 367 350
f 351 386 352
f 352 386 385
f 352 385 387
f 352 387 354
f 352 354 353
f 354 387 388
f 354 388 389
f 354 389 390
f 354 390 355
f 355 390 391
f 355 391 356
f 356 391 357
f 357 391 392
f 357 392 358
f 358 392 393
f 358 393 394
f 358 394 359
f 359 394 395
f 359 395 360
f 360 395 361
f 361 395 396
f 361 396 362
f 362 396 397
f 364 398 368
f 364 368 365
f 368 398 399
f 368 399 369
f 369 399 370
f 370 399 400
f 370 400 371
f 371 400 401
f 371 401 372
f 372 401 402
f 372 402 373
f 373 402 403
f 373 403 374
f 374 403 375
f 375 403 404
f 375 404 405
f 375 405 376
f 376 405 407
f 377 408 378
f 377 409 410
f 377 410 408
f 378 408 411
f 378 411 412
f 378 412 413
f 378 413 381
f 378 381 379
f 381 413 382
f 382 414 415
f 382 415 383
f 382 413 414
f 383 415 388
f 383 388 384
f 384 388 385
f 385 388 387
f 388 415 416
f 388 416 389
f 389 416 390
f 390 416 417
f 390 417 418
f 390 418 391
f 391 418 392
f 392 418 419
f 392 419 420
f 392 420 393
f 393 420 421
f 393 421 394
f 394 421 395
f 395 421 422
f 395 422 423
f 395 423 396
f 396 423 424
f 396 424 425
f 396 425 397
f 404 407 405
f 406 426 427
f 408 410 411
f 409 428 410
f 410 428 429
f 410 429 430
f 410 430 431
f 410 431 411
f 411 431 432
f 411 432 433
f 411 433 434
f 411 434 412
f 412 434 413
f 413 435 414
f 413 434 435
f 414 436 416
f 414 416 415
f 414 435 436
f 416 436 437
f 416 437 417
f 417 437 418
f 418 437 438
f 418 438 419
f 419 438 439
f 419 439 420
f 420 439 440
f 420 440 441
f 420 441 421
f 421 441 442
f 421 442 422
f 422 442 423
f 423 442 443
f 426 444 445
f 426 445 427
f 427 445 446
f 428 447 429
f 429 447 448
f 429 448 449
f 429 449 430
f 430 450 431
f 430 449 450
f 431 450 432
f 432 451 433
f 432 450 451
f 433 452 453
f 433 453 434
f 433 451 452
f 434 453 454
f 434 454 435
f 435 455 437
f 435 437 436
f 435 454 455
f 437 455 456
f 437 456 438
f 438 456 457
f 438 457 439
f 439 457 440
f 440 457 458
f 440 458 459
f 440 459 441
f 441 459 442
f 442 459 460
f 442 460 461
f 442 461 443
f 444 462 463
f 444 463 445
f 445 463 446
f 446 463 464
f 448 465 449
f 449 465 466
f 449 466 467
f 449 467 468
f 449 468 469
f 449 469 450
f 450 469 470
f 450 470 471
f 450 471 451
f 451 471 472
f 451 472 473
f 451 473 452
f 452 473 474
f 452 474 453
f 453 475 476
f 453 476 454
f 453 474 475
f 454 476 456
f 454 456 455
f 456 476 477
f 456 477 457
f 457 477 478
f 457 478 458
f 458 478 459
f 459 478 479
f 459 479 480
f 459 480 481
f 459 481 460
f 460 481 482
f 460 482 461
f 462 483 484
f 462 484 463
f 463 484 485
f 463 485 486
f 463 486 464
f 464 486 487
f 464 487 488
f 466 489 467
f 467 489 490
f 467 490 491
f 467 491 492
f 467 492 468
f 468 493 470
f 468 470 469
f 468 492 494
f 468 494 493
f 470 495 472
f 470 472 471
f 470 493 496
f 470 496 495
f 472 495 497
f 472 497 498
f 472 498 499
f 472 499 473
f 473 499 500
f 473 500 474
f 474 500 477
f 474 477 475
f 475 477 476
f 477 500 501
f 477 501 502
f 477 502 478
f 478 502 503
f 478 503 479
f 479 503 480
f 480 503 504
f 480 504 505
f 480 505 506
f 480 506 507
f 480 507 482
f 480 482 481
f 483 508 484
f 484 508 485
f 485 508 509
f 485 509 510
f 485 510 511
f 485 511 512
f 485 512 486
f 486 512 513
f 486 513 487
f 487 514 515
f 487 515 488
f 487 513 516
f 487 516 517
f 487 517 518
f 487 518 514
f 490 519 517
f 490 517 491
f 491 517 492
f 492 517 516
f 492 516 494
f 493 494 496
f 494 520 496
f 494 516 521
f 494 521 522
f 494 522 520
f 495 496 497
f 496 523 497
f 496 520 524
f 496 524 523
f 497 523 525
f 497 525 498
f 498 525 526
f 498 526 499
f 499 526 527
f 499 527 501
f 499 501 500
f 501 504 503
f 501 503 502
f 501 527 528
f 501 528 504
f 504 528 529
f 504 529 505
f 505 529 506
f 509 530 510
f 510 530 511
f 511 531 522
f 511 522 512
f 511 530 531
f 512 522 521
f 512 521 516
f 512 516 513
f 517 519 518
f 520 522 524
f 522 531 532
f 522 532 533
f 522 533 524
f 523 534 525
f 523 524 534
f 524 533 535
f 524 535 536
f 524 536 537
f 524 537 534
f 525 534 538
f 525 538 539
f 525 539 540
f 525 540 541
f 525 541 526
f 526 541 527
f 527 541 528
f 528 541 542
f 528 542 529
f 532 543 533
f 533 543 535
f 534 537 544
f 534 544 538
f 536 544 537
f 539 545 540
f 540 545 546
f 540 546 541
f 541 546 547
f 541 547 542

