# https://github.com/mikedh/trimesh
v -0.27752107 0.19410090 -0.10865068
v -0.27929655 0.19410090 -0.10725340
v -0.27752107 0.19488239 -0.10822076
v -0.27752107 0.19410090 -0.07153317
v -0.28406695 0.19410090 -0.10341984
v -0.27752107 0.20341365 -0.10341984
v -0.37813026 0.19410090 0.04848967
v -0.27752107 0.39819986 0.25313759
v -0.44489819 0.19412261 0.25313759
v -0.44556174 0.19412261 0.25421238
v -0.44627908 0.19412261 0.25510809
v -0.29050523 0.19410090 -0.09790237
v -0.29464796 0.19687954 -0.09274319
v -0.27752107 0.20582324 -0.10195090
v -0.28462291 0.21112001 -0.09274319
v -0.40286112 0.19410090 0.04848967
v -0.44701439 0.19412261 0.25575298
v -0.44730133 0.19412261 0.25593215
v -0.44782141 0.19412261 0.25625458
v -0.44866431 0.19412261 0.25664869
v -0.44961479 0.19412261 0.25693530
v -0.45058322 0.19412261 0.25711444
v -0.45130056 0.19412261 0.25722194
v -0.45158753 0.19412261 0.25725776
v -0.45262769 0.19412261 0.25729358
v -0.27752107 0.39893794 0.25421238
v -0.27752107 0.39971942 0.25510809
v -0.27752107 0.40026212 0.25553805
v -0.29640549 0.19410090 -0.09274319
v -0.30847499 0.19410090 -0.08142163
v -0.30313069 0.20254533 -0.08142163
v -0.27752107 0.22023737 -0.09274319
v -0.27752107 0.22777006 -0.08761981
v -0.29281870 0.21717656 -0.08142163
v -0.45366785 0.19412261 0.25725776
v -0.45467216 0.19412261 0.25711444
v -0.45488736 0.19412261 0.25707862
v -0.45565853 0.19412261 0.25693530
v -0.45657313 0.19412261 0.25664869
v -0.45745191 0.19412261 0.25625458
v -0.45820513 0.19412261 0.25575298
v -0.45890456 0.19412261 0.25507227
v -0.45942464 0.19412261 0.25428405
v -0.45951432 0.19412261 0.25414073
v -0.45999852 0.19412261 0.25295842
v -0.46037513 0.19412261 0.25141785
v -0.46041101 0.19412261 0.25116706
v -0.46060827 0.19412261 0.24951898
v -0.46062621 0.19412261 0.24923235
v -0.46071589 0.19412261 0.24719016
v -0.46066207 0.19412261 0.24475388
v -0.46041101 0.19412261 0.24102780
v -0.46001646 0.19412261 0.23708676
v -0.45949638 0.19412261 0.23310988
v -0.45940670 0.19412261 0.23246498
v -0.45858175 0.19412261 0.22712664
v -0.45752364 0.19412261 0.22092846
v -0.45619655 0.19412261 0.21390623
v -0.45460042 0.19412261 0.20595247
v -0.45275322 0.19412261 0.19695970
v -0.45117503 0.19412261 0.18979417
v -0.45054734 0.19412261 0.18707126
v -0.44884363 0.19412261 0.17969075
v -0.44805455 0.19412261 0.17632295
v -0.44620734 0.19412261 0.16894245
v -0.44516718 0.19412261 0.16482225
v -0.44188529 0.19412261 0.15267666
v -0.43822676 0.19412261 0.13985035
v -0.43410197 0.19412261 0.12655826
v -0.42951089 0.19412261 0.11276458
v -0.42441767 0.19412261 0.09864847
v -0.41884023 0.19412261 0.08420990
v -0.41272476 0.19412261 0.06962802
v -0.41039336 0.19412261 0.06439717
v -0.40603542 0.19412261 0.05490283
v -0.40286112 0.19412261 0.04848967
v -0.39871839 0.19410090 0.04014181
v -0.27752107 0.40056604 0.25575298
v -0.27752107 0.40115213 0.25611126
v -0.27752107 0.40145606 0.25625458
v -0.27752107 0.40241122 0.25664869
v -0.27752107 0.40345320 0.25693530
v -0.27752107 0.40482080 0.25718611
v -0.27752107 0.40568912 0.25725776
v -0.27752107 0.40683967 0.25729358
v -0.44531065 0.21062073 0.25729358
v -0.32041898 0.19410090 -0.06959848
v -0.31152377 0.20816770 -0.06959848
v -0.28182521 0.23130848 -0.08142163
v -0.27752107 0.23630133 -0.08142163
v -0.30092484 0.22318968 -0.06959848
v -0.44615355 0.21103317 0.25725776
v -0.44699645 0.21142392 0.25711444
v -0.44780347 0.21181467 0.25693530
v -0.44857463 0.21216199 0.25664869
v -0.44927406 0.21250932 0.25625458
v -0.44991967 0.21281323 0.25575298
v -0.45051149 0.21309543 0.25507227
v -0.45097777 0.21331251 0.25414073
v -0.45140818 0.21350789 0.25295842
v -0.45171306 0.21365985 0.25141785
v -0.45189241 0.21374667 0.24951898
v -0.45198208 0.21379009 0.24719016
v -0.45192826 0.21376839 0.24439561
v -0.45173100 0.21368155 0.24102780
v -0.45140818 0.21350789 0.23708676
v -0.45090604 0.21326910 0.23246498
v -0.45022455 0.21294348 0.22712664
v -0.44932786 0.21253103 0.22092846
v -0.44825181 0.21201003 0.21390623
v -0.44692472 0.21140221 0.20595247
v -0.44540033 0.21066414 0.19695970
v -0.44360694 0.20981753 0.18707126
v -0.44150865 0.20884067 0.17632295
v -0.43914139 0.20771185 0.16482225
v -0.43643337 0.20643106 0.15267666
v -0.43336669 0.20499834 0.13985035
v -0.42997718 0.20337024 0.12655826
v -0.42619312 0.20159018 0.11276458
v -0.42197865 0.19959304 0.09864847
v -0.41736963 0.19742224 0.08420990
v -0.41233021 0.19503435 0.06962802
v -0.40225136 0.21502745 0.06962802
v -0.39692500 0.21218370 0.05490283
v -0.40006343 0.19967988 0.04848967
v -0.39116821 0.20910116 0.04014181
v -0.39088127 0.19410090 0.02545245
v -0.27752107 0.40799019 0.25725776
v -0.29402027 0.39637637 0.25725776
v -0.29344639 0.39561659 0.25729358
v -0.43440685 0.23222022 0.25729358
v -0.43524975 0.23265438 0.25725776
v -0.32386228 0.19410090 -0.06594405
v -0.32985219 0.19770443 -0.05723792
v -0.31975541 0.21365985 -0.05723792
v -0.30888748 0.22909427 -0.05723792
v -0.28962648 0.23769064 -0.06959848
v -0.27762869 0.25162721 -0.06959848
v -0.27752107 0.25173575 -0.06959848
v -0.43607470 0.23308854 0.25711444
v -0.43684584 0.23352270 0.25693530
v -0.43759906 0.23391345 0.25664869
v -0.43828058 0.23428248 0.25625458
v -0.43892619 0.23462981 0.25575298
v -0.43948215 0.23493372 0.25507227
v -0.43998429 0.23519421 0.25414073
v -0.44037884 0.23538959 0.25295842
v -0.44066578 0.23556325 0.25141785
v -0.44086304 0.23565009 0.24951898
v -0.44091684 0.23569350 0.24719016
v -0.44089893 0.23567179 0.24439561
v -0.44037884 0.23538959 0.23708676
v -0.44068372 0.23558496 0.24102780
v -0.43989462 0.23512909 0.23246498
v -0.43921313 0.23478177 0.22712664
v -0.43835229 0.23432589 0.22092846
v -0.43727627 0.23376149 0.21390623
v -0.43602091 0.23306683 0.20595247
v -0.43451446 0.23226362 0.19695970
v -0.43275693 0.23133019 0.18707126
v -0.43073040 0.23024479 0.17632295
v -0.42839900 0.22900742 0.16482225
v -0.42576271 0.22759640 0.15267666
v -0.42280361 0.22601172 0.13985035
v -0.41944999 0.22423166 0.12655826
v -0.41575557 0.22225623 0.11276458
v -0.41166666 0.22006372 0.09864847
v -0.40716526 0.21765412 0.08420990
v -0.39599243 0.23736502 0.08420990
v -0.39120409 0.23449956 0.06962802
v -0.38600326 0.23139530 0.05490283
v -0.38360012 0.22994086 0.04848967
v -0.38976938 0.21906514 0.04848967
v -0.39443219 0.21083781 0.04848967
v -0.38042581 0.22803056 0.04014181
v -0.37441796 0.22444874 0.02545245
v -0.38498101 0.20580155 0.02545245
v -0.38686407 0.19410090 0.01846604
v -0.27752107 0.40894532 0.25715029
v -0.29455829 0.39711446 0.25711444
v -0.31369376 0.38220105 0.25711444
v -0.31311989 0.38148469 0.25725776
v -0.31252804 0.38074660 0.25729358
v -0.42249873 0.25325531 0.25729358
v -0.42328781 0.25373289 0.25725776
v -0.42409486 0.25421047 0.25711444
v -0.33189666 0.19410090 -0.05723792
v -0.33813766 0.20267558 -0.04437577
v -0.32777187 0.21902174 -0.04437577
v -0.31663492 0.23484689 -0.04437577
v -0.29728425 0.24398598 -0.05723792
v -0.30474475 0.25010765 -0.04437577
v -0.28496367 0.25826985 -0.05723792
v -0.27752107 0.26608476 -0.05723792
v -0.42486602 0.25466633 0.25693530
v -0.42560130 0.25510049 0.25664869
v -0.42626485 0.25551295 0.25625458
v -0.42689255 0.25588197 0.25575298
v -0.42743057 0.25620759 0.25507227
v -0.42787892 0.25648981 0.25414073
v -0.42825550 0.25670689 0.25295842
v -0.42854246 0.25688055 0.25141785
v -0.42875767 0.25698909 0.24951898
v -0.42882940 0.25705421 0.24719016
v -0.42877561 0.25701079 0.24439561
v -0.42861420 0.25690225 0.24102780
v -0.42829138 0.25672859 0.23708676
v -0.42778924 0.25642467 0.23246498
v -0.42716154 0.25603393 0.22712664
v -0.42630070 0.25553465 0.22092846
v -0.42529643 0.25492683 0.21390623
v -0.42404103 0.25418875 0.20595247
v -0.42258841 0.25329873 0.19695970
v -0.42086676 0.25227845 0.18707126
v -0.41891196 0.25108451 0.17632295
v -0.41665229 0.24973860 0.16482225
v -0.41408774 0.24819733 0.15267666
v -0.41120037 0.24648240 0.13985035
v -0.40793639 0.24452868 0.12655826
v -0.40434963 0.24237958 0.11276458
v -0.40036830 0.23999169 0.09864847
v -0.38386911 0.25651151 0.08420990
v -0.37922424 0.25340727 0.06962802
v -0.37418482 0.25006422 0.05490283
v -0.37185341 0.24847953 0.04848967
v -0.36878669 0.24643898 0.04014181
v -0.36295819 0.24255323 0.02545245
v -0.35673511 0.23838529 0.01087057
v -0.36799762 0.22058471 0.01087057
v -0.37836340 0.20226312 0.01087057
v -0.38247028 0.19410090 0.01087057
v -0.27752107 0.41020441 0.25693530
v -0.29509631 0.39783081 0.25693530
v -0.31426764 0.38287398 0.25693530
v -0.33270371 0.36700541 0.25693530
v -0.33209395 0.36635417 0.25711444
v -0.33146626 0.36565951 0.25725776
v -0.33082062 0.36496484 0.25729358
v -0.40955046 0.27368256 0.25729358
v -0.41032162 0.27420357 0.25725776
v -0.41109276 0.27470285 0.25711444
v -0.33853221 0.19410090 -0.04953496
v -0.34296188 0.19410090 -0.04437577
v -0.34708667 0.19410090 -0.03932406
v -0.34613618 0.20749477 -0.03111951
v -0.33553725 0.22420995 -0.03111951
v -0.32414922 0.24040414 -0.03111951
v -0.29211926 0.26476055 -0.04437577
v -0.31195417 0.25603393 -0.03111951
v -0.29904175 0.27103418 -0.03111951
v -0.27752107 0.26997048 -0.05369097
v -0.41256335 0.27567971 0.25664869
v -0.41182807 0.27520213 0.25693530
v -0.41319105 0.27611387 0.25625458
v -0.41380078 0.27652633 0.25575298
v -0.41432089 0.27687365 0.25507227
v -0.41476923 0.27717757 0.25414073
v -0.41514584 0.27741635 0.25295842
v -0.41545072 0.27761173 0.25141785
v -0.41561210 0.27772027 0.24951898
v -0.41568387 0.27778539 0.24719016
v -0.41564798 0.27774197 0.24439561
v -0.41546863 0.27763343 0.24102780
v -0.41514584 0.27741635 0.23708676
v -0.41469750 0.27711242 0.23246498
v -0.41406980 0.27669999 0.22712664
v -0.41326278 0.27615729 0.22092846
v -0.41227642 0.27548432 0.21390623
v -0.41105691 0.27468112 0.20595247
v -0.40964013 0.27372599 0.19695970
v -0.40799022 0.27261886 0.18707126
v -0.40386540 0.26988366 0.16482225
v -0.40605333 0.27133811 0.17632295
v -0.40139052 0.26823384 0.15267666
v -0.39857492 0.26634526 0.13985035
v -0.39547235 0.26426128 0.12655826
v -0.39195731 0.26191682 0.11276458
v -0.38810152 0.25933355 0.09864847
v -0.37079531 0.27502847 0.08420990
v -0.36636561 0.27172884 0.06962802
v -0.37492010 0.27808928 0.09864847
v -0.36152348 0.26812530 0.05490283
v -0.35626885 0.26423958 0.04014181
v -0.35061967 0.26007164 0.02545245
v -0.34459388 0.25559977 0.01087057
v -0.33819148 0.25082400 -0.00346052
v -0.35006371 0.23391345 -0.00346052
v -0.36111099 0.21646018 -0.00346052
v -0.37129745 0.19848593 -0.00346052
v -0.37350333 0.19410090 -0.00346052
v -0.27752107 0.41124639 0.25664869
v -0.29559845 0.39852548 0.25664869
v -0.31480566 0.38354695 0.25664869
v -0.33325964 0.36763495 0.25664869
v -0.35031480 0.35024682 0.25693530
v -0.34966916 0.34961727 0.25711444
v -0.34900561 0.34896603 0.25725776
v -0.34836000 0.34829310 0.25729358
v -0.39563376 0.29343688 0.25729358
v -0.39638698 0.29400128 0.25725776
v -0.39714020 0.29456571 0.25711444
v -0.35370430 0.19410090 -0.03111951
v -0.35553354 0.19410090 -0.02871905
v -0.36380106 0.19446994 -0.01746915
v -0.35381189 0.21207516 -0.01746915
v -0.34297982 0.22918108 -0.01746915
v -0.33134073 0.24574432 -0.01746915
v -0.31889459 0.26169974 -0.01746915
v -0.27877647 0.27876225 -0.04437577
v -0.27752107 0.27750319 -0.04677623
v -0.28537613 0.28538319 -0.03111951
v -0.30567729 0.27704731 -0.01746915
v -0.29172474 0.29170024 -0.01746915
v -0.39783961 0.29508668 0.25693530
v -0.39852110 0.29560769 0.25664869
v -0.39916673 0.29606354 0.25625458
v -0.39972267 0.29649770 0.25575298
v -0.40024278 0.29686674 0.25507227
v -0.40069112 0.29719236 0.25414073
v -0.40104979 0.29745287 0.25295842
v -0.40130085 0.29766995 0.25141785
v -0.40149814 0.29780018 0.24951898
v -0.40156987 0.29784361 0.24719016
v -0.40151608 0.29782191 0.24439561
v -0.40135467 0.29769164 0.24102780
v -0.40106773 0.29747456 0.23708676
v -0.40061939 0.29712725 0.23246498
v -0.40000963 0.29669309 0.22712664
v -0.39920259 0.29610696 0.22092846
v -0.39825210 0.29539061 0.21390623
v -0.39706847 0.29452229 0.20595247
v -0.39572343 0.29350200 0.19695970
v -0.39412731 0.29232976 0.18707126
v -0.39226219 0.29094046 0.17632295
v -0.39014599 0.28937748 0.16482225
v -0.38774285 0.28759742 0.15267666
v -0.38503480 0.28560027 0.13985035
v -0.38202193 0.28334263 0.12655826
v -0.37863243 0.28084621 0.11276458
v -0.35689652 0.29291588 0.08420990
v -0.35259238 0.28937748 0.06962802
v -0.36446464 0.29910266 0.11276458
v -0.36085993 0.29615039 0.09864847
v -0.34792957 0.28553516 0.05490283
v -0.34574163 0.28375509 0.04848967
v -0.34287220 0.28138891 0.04014181
v -0.33745617 0.27693877 0.02545245
v -0.33166352 0.27220643 0.01087057
v -0.32547635 0.26710504 -0.00346052
v -0.37162027 0.19410090 -0.00625508
v -0.27752107 0.41220155 0.25625458
v -0.29606473 0.39915502 0.25625458
v -0.31530780 0.38415477 0.25625458
v -0.33377972 0.36822104 0.25625458
v -0.35146254 0.35141903 0.25625458
v -0.35088867 0.35085464 0.25664869
v -0.36767480 0.33320600 0.25664869
v -0.36704710 0.33264160 0.25693530
v -0.36638355 0.33203375 0.25711444
v -0.36570206 0.33142594 0.25725776
v -0.36502057 0.33079642 0.25729358
v -0.38074860 0.31247482 0.25729358
v -0.38148391 0.31306094 0.25725776
v -0.38221920 0.31364706 0.25711444
v -0.38290069 0.31423318 0.25693530
v -0.36313751 0.19410090 -0.01861564
v -0.36398041 0.19410090 -0.01746915
v -0.27752107 0.28204015 -0.04226194
v -0.27752107 0.27995619 -0.04437577
v -0.27752107 0.30452970 -0.01825736
v -0.27752107 0.29285076 -0.03111951
v -0.31199002 0.28275654 -0.00346052
v -0.29773259 0.29773507 -0.00346052
v -0.27752107 0.30615780 -0.01632266
v -0.38354629 0.31475416 0.25664869
v -0.38417399 0.31525347 0.25625458
v -0.38472995 0.31570932 0.25575298
v -0.38519621 0.31612179 0.25507227
v -0.38598531 0.31675130 0.25295842
v -0.38562664 0.31646910 0.25414073
v -0.38623640 0.31696838 0.25141785
v -0.38639778 0.31709865 0.24951898
v -0.38645160 0.31716377 0.24719016
v -0.38643366 0.31712034 0.24439561
v -0.38625431 0.31699011 0.24102780
v -0.38598531 0.31675130 0.23708676
v -0.38555491 0.31640399 0.23246498
v -0.38496307 0.31592640 0.22712664
v -0.38420984 0.31529686 0.22092846
v -0.38329524 0.31453708 0.21390623
v -0.38216540 0.31362537 0.20595247
v -0.38085622 0.31253994 0.19695970
v -0.37929597 0.31128088 0.18707126
v -0.37752050 0.30980474 0.17632295
v -0.37547603 0.30813321 0.16482225
v -0.37318051 0.30624461 0.15267666
v -0.37056217 0.30416065 0.13985035
v -0.36771068 0.30175105 0.12655826
v -0.34211898 0.31004351 0.08420990
v -0.33797625 0.30628803 0.06962802
v -0.33352864 0.30227205 0.05490283
v -0.35244891 0.31939968 0.12655826
v -0.34934634 0.31657764 0.11276458
v -0.34588510 0.31345168 0.09864847
v -0.33143038 0.30038345 0.04848967
v -0.32866856 0.29788703 0.04014181
v -0.32348567 0.29317638 0.02545245
v -0.31792617 0.28814012 0.01087057
v -0.27752107 0.41309157 0.25575298
v -0.29649514 0.39971942 0.25575298
v -0.31575614 0.38469747 0.25575298
v -0.33428186 0.36876374 0.25575298
v -0.35198262 0.35191834 0.25575298
v -0.36826661 0.33374870 0.25625458
v -0.30339968 0.30337915 0.01087057
v -0.28815588 0.31788012 0.01087057
v -0.28275779 0.31195384 -0.00346052
v -0.27752107 0.31646910 -0.00346052
v -0.36880463 0.33422628 0.25575298
v -0.36923504 0.33463871 0.25507227
v -0.36964753 0.33500776 0.25414073
v -0.36997035 0.33531168 0.25295842
v -0.37023935 0.33555046 0.25141785
v -0.37040076 0.33568072 0.24951898
v -0.37043661 0.33574584 0.24719016
v -0.37041870 0.33570242 0.24439561
v -0.37027523 0.33557218 0.24102780
v -0.36997035 0.33531168 0.23708676
v -0.36957580 0.33494264 0.23246498
v -0.36905572 0.33444336 0.22712664
v -0.36832041 0.33379212 0.22092846
v -0.36742371 0.33296722 0.21390623
v -0.36636561 0.33201206 0.20595247
v -0.36509231 0.33086154 0.19695970
v -0.36360380 0.32951564 0.18707126
v -0.36191803 0.32797435 0.17632295
v -0.35996321 0.32619432 0.16482225
v -0.35773942 0.32419717 0.15267666
v -0.35524660 0.32193953 0.13985035
v -0.33010328 0.33005834 0.09864847
v -0.32651651 0.32645479 0.08420990
v -0.32255310 0.32250392 0.06962802
v -0.31627625 0.31625202 0.04848967
v -0.31828484 0.31822747 0.05490283
v -0.33638015 0.33631024 0.12655826
v -0.33338517 0.33333623 0.11276458
v -0.31365788 0.31362537 0.04014181
v -0.30870813 0.30867592 0.02545245
v -0.27752107 0.41387308 0.25507227
v -0.29687175 0.40024042 0.25507227
v -0.31616864 0.38519675 0.25507227
v -0.33469436 0.36921963 0.25507227
v -0.35243100 0.35237420 0.25507227
v -0.29319531 0.32343739 0.02545245
v -0.27752107 0.33696148 0.02545245
v -0.27752107 0.32955906 0.01456082
v -0.27752107 0.32704091 0.01087057
v -0.35280758 0.35274324 0.25414073
v -0.35311246 0.35306886 0.25295842
v -0.35334560 0.35330763 0.25141785
v -0.35350701 0.35345960 0.24951898
v -0.35356081 0.35352471 0.24719016
v -0.35354289 0.35348129 0.24439561
v -0.35339943 0.35332936 0.24102780
v -0.35311246 0.35306886 0.23708676
v -0.35273585 0.35267812 0.23246498
v -0.35219786 0.35213542 0.22712664
v -0.35151637 0.35146245 0.22092846
v -0.35065553 0.35061586 0.21390623
v -0.34963331 0.34957385 0.20595247
v -0.34843174 0.34837991 0.19695970
v -0.34701493 0.34696889 0.18707126
v -0.34538296 0.34534079 0.17632295
v -0.34353578 0.34347391 0.16482225
v -0.34140164 0.34136823 0.15267666
v -0.33903435 0.33898035 0.13985035
v -0.31661698 0.34929165 0.11276458
v -0.31349647 0.34584007 0.09864847
v -0.31007111 0.34206289 0.08420990
v -0.30635878 0.33793837 0.06962802
v -0.30944341 0.32276443 0.04848967
v -0.30228782 0.33346650 0.05490283
v -0.31946847 0.35239589 0.12655826
v -0.29789400 0.32864732 0.04014181
v -0.27752107 0.41452432 0.25414073
v -0.29719457 0.40067458 0.25414073
v -0.31650937 0.38560921 0.25414073
v -0.33505303 0.36963210 0.25414073
v -0.27752107 0.33720028 0.02581073
v -0.33535790 0.36995772 0.25295842
v -0.33557311 0.37021822 0.25141785
v -0.33573452 0.37037015 0.24951898
v -0.33578831 0.37043530 0.24719016
v -0.33562693 0.37023991 0.24102780
v -0.33575246 0.37039188 0.24439561
v -0.33535790 0.36997941 0.23708676
v -0.33498129 0.36954525 0.23246498
v -0.33449709 0.36900255 0.22712664
v -0.33383352 0.36826450 0.22092846
v -0.33302650 0.36737445 0.21390623
v -0.33204013 0.36631075 0.20595247
v -0.33091030 0.36505169 0.19695970
v -0.32956526 0.36357555 0.18707126
v -0.32802296 0.36186060 0.17632295
v -0.32624748 0.35990688 0.16482225
v -0.32425684 0.35769266 0.15267666
v -0.32197922 0.35519624 0.13985035
v -0.29911351 0.36440045 0.11276458
v -0.29617232 0.36079693 0.09864847
v -0.29290837 0.35686776 0.08420990
v -0.28937539 0.35254785 0.06962802
v -0.28553754 0.34788063 0.05490283
v -0.30036888 0.33138251 0.04848967
v -0.28374416 0.34570983 0.04848967
v -0.30174977 0.36763495 0.12655826
v -0.30415291 0.37056553 0.13985035
v -0.28139481 0.34284437 0.04014181
v -0.27752107 0.41506702 0.25295842
v -0.29748151 0.40102190 0.25295842
v -0.31681424 0.38595653 0.25295842
v -0.27752107 0.33811203 0.02727966
v -0.31699359 0.38621703 0.25141785
v -0.31713706 0.38639069 0.24951898
v -0.31720880 0.38645580 0.24719016
v -0.31704739 0.38626045 0.24102780
v -0.31715500 0.38641238 0.24439561
v -0.31681424 0.38595653 0.23708676
v -0.31645557 0.38554406 0.23246498
v -0.31595343 0.38495797 0.22712664
v -0.31534368 0.38419819 0.22092846
v -0.31457251 0.38326472 0.21390623
v -0.31365788 0.38215762 0.20595247
v -0.31259978 0.38083345 0.19695970
v -0.31132647 0.37929216 0.18707126
v -0.30985591 0.37751210 0.17632295
v -0.30818805 0.37547153 0.16482225
v -0.30628705 0.37317050 0.15267666
v -0.28083885 0.37861919 0.11276458
v -0.27807704 0.37488544 0.09864847
v -0.28334960 0.38200566 0.12655826
v -0.27752107 0.37412566 0.09596139
v -0.27752107 0.36887228 0.08420990
v -0.27752107 0.36179549 0.06962802
v -0.27752107 0.35413253 0.05490283
v -0.27752107 0.35055071 0.04848967
v -0.27752107 0.34588349 0.04014181
v -0.28559133 0.38502309 0.13985035
v -0.28759992 0.38773659 0.15267666
v -0.27752107 0.41528410 0.25217021
v -0.29767877 0.40130413 0.25141785
v -0.29778638 0.40147778 0.24951898
v -0.29784018 0.40154290 0.24719016
v -0.29780433 0.40149948 0.24439561
v -0.29769671 0.40134752 0.24102780
v -0.29748151 0.40104359 0.23708676
v -0.29715872 0.40058774 0.23246498
v -0.29667449 0.39997992 0.22712664
v -0.29611853 0.39919841 0.22092846
v -0.29538324 0.39824328 0.21390623
v -0.29452240 0.39707103 0.20595247
v -0.29350019 0.39570343 0.19695970
v -0.29231656 0.39409703 0.18707126
v -0.29095358 0.39225185 0.17632295
v -0.28937539 0.39012447 0.16482225
v -0.27752107 0.38098538 0.11276458
v -0.27752107 0.37529787 0.09864847
v -0.27752107 0.38897395 0.13479863
v -0.27752107 0.38610849 0.12655826
v -0.27752107 0.38471916 0.12279634
v -0.27752107 0.39288139 0.14658594
v -0.27752107 0.39071059 0.13985035
v -0.27752107 0.39483511 0.15267666
v -0.27752107 0.39848205 0.16482225
v -0.27752107 0.39644152 0.15801498
v -0.27752107 0.41547945 0.25141785
v -0.27773631 0.41560972 0.24951898
v -0.27777216 0.41567484 0.24719016
v -0.27775422 0.41563141 0.24439561
v -0.27752107 0.41554457 0.24102780
v -0.27752107 0.41528410 0.23877065
v -0.27752107 0.41508871 0.23708676
v -0.27752107 0.41439405 0.23246498
v -0.27752107 0.41352573 0.22730578
v -0.27752107 0.41237521 0.22135839
v -0.27752107 0.41096419 0.21458694
v -0.27752107 0.40905386 0.20595247
v -0.27752107 0.40694821 0.19695970
v -0.27752107 0.40647063 0.19495335
v -0.27752107 0.40451691 0.18707126
v -0.27752107 0.40377882 0.18420506
v -0.27752107 0.40171656 0.17632295
v -0.27752107 0.40060943 0.17238191
v -0.27752107 0.41573995 0.24951898
v -0.27752107 0.41584849 0.24715434
v -0.27752107 0.41578338 0.24439561
f 1 2 3
f 1 3 6
f 1 6 14
f 1 14 32
f 1 32 33
f 1 33 90
f 1 90 139
f 1 139 194
f 1 194 251
f 1 251 310
f 1 310 369
f 1 369 368
f 1 368 371
f 1 371 370
f 1 370 374
f 1 374 418
f 1 418 457
f 1 457 456
f 1 456 455
f 1 455 489
f 1 489 521
f 1 521 546
f 1 546 545
f 1 545 544
f 1 544 543
f 1 543 542
f 1 542 541
f 1 541 566
f 1 566 565
f 1 565 569
f 1 569 568
f 1 568 567
f 1 567 571
f 1 571 570
f 1 570 572
f 1 572 574
f 1 574 573
f 1 573 592
f 1 592 591
f 1 591 590
f 1 590 589
f 1 589 588
f 1 588 587
f 1 587 586
f 1 586 585
f 1 585 584
f 1 584 583
f 1 583 582
f 1 582 581
f 1 581 580
f 1 580 579
f 1 579 595
f 1 595 594
f 1 594 593
f 1 593 575
f 1 575 549
f 1 549 518
f 1 518 485
f 1 485 449
f 1 449 409
f 1 409 351
f 1 351 291
f 1 291 232
f 1 232 179
f 1 179 128
f 1 128 85
f 1 85 84
f 1 84 83
f 1 83 82
f 1 82 81
f 1 81 80
f 1 80 79
f 1 79 78
f 1 78 28
f 1 28 27
f 1 27 26
f 1 26 8
f 1 8 4
f 1 4 7
f 1 7 16
f 1 16 77
f 1 77 127
f 1 127 178
f 1 178 231
f 1 231 290
f 1 290 350
f 1 350 367
f 1 367 366
f 1 366 303
f 1 303 302
f 1 302 244
f 1 244 243
f 1 243 242
f 1 242 187
f 1 187 133
f 1 133 87
f 1 87 30
f 1 30 29
f 1 29 12
f 1 12 5
f 1 5 2
f 2 5 6
f 2 6 3
f 4 8 9
f 4 9 10
f 4 10 11
f 4 11 7
f 5 12 13
f 5 13 6
f 6 13 15
f 6 15 14
f 7 11 17
f 7 17 18
f 7 18 19
f 7 19 20
f 7 20 21
f 7 21 22
f 7 22 23
f 7 23 24
f 7 24 25
f 7 25 16
f 8 26 9
f 9 26 10
f 10 26 27
f 10 27 11
f 11 27 28
f 11 28 17
f 12 29 13
f 13 30 31
f 13 31 15
f 13 29 30
f 14 15 32
f 15 33 32
f 15 31 34
f 15 34 33
f 16 25 35
f 16 35 36
f 16 36 37
f 16 37 38
f 16 38 39
f 16 39 40
f 16 40 41
f 16 41 42
f 16 42 43
f 16 43 44
f 16 44 45
f 16 45 46
f 16 46 47
f 16 47 48
f 16 48 49
f 16 49 50
f 16 50 51
f 16 51 52
f 16 52 53
f 16 53 54
f 16 54 55
f 16 55 56
f 16 56 57
f 16 57 58
f 16 58 59
f 16 59 60
f 16 60 61
f 16 61 62
f 16 62 63
f 16 63 64
f 16 64 65
f 16 65 66
f 16 66 67
f 16 67 68
f 16 68 69
f 16 69 70
f 16 70 71
f 16 71 72
f 16 72 73
f 16 73 74
f 16 74 75
f 16 75 76
f 16 76 77
f 17 28 78
f 17 78 79
f 17 79 18
f 18 79 19
f 19 79 80
f 19 80 81
f 19 81 20
f 20 81 82
f 20 82 21
f 21 82 83
f 21 83 22
f 22 83 23
f 23 83 24
f 24 83 84
f 24 84 85
f 24 85 25
f 25 85 130
f 25 130 183
f 25 183 238
f 25 238 298
f 25 298 361
f 25 361 362
f 25 362 299
f 25 299 239
f 25 239 184
f 25 184 131
f 25 131 86
f 25 86 35
f 30 87 88
f 30 88 31
f 31 88 34
f 33 34 89
f 33 89 90
f 34 88 91
f 34 91 89
f 35 86 92
f 35 92 93
f 35 93 36
f 36 93 37
f 37 93 94
f 37 94 38
f 38 94 95
f 38 95 39
f 39 95 40
f 40 95 96
f 40 96 97
f 40 97 41
f 41 97 98
f 41 98 42
f 42 98 43
f 43 98 44
f 44 98 99
f 44 99 100
f 44 100 45
f 45 100 46
f 46 100 101
f 46 101 47
f 47 101 48
f 48 102 49
f 48 101 102
f 49 102 103
f 49 103 50
f 50 103 51
f 51 103 104
f 51 104 52
f 52 105 53
f 52 104 105
f 53 106 54
f 53 105 106
f 54 106 107
f 54 107 55
f 55 107 56
f 56 108 57
f 56 107 108
f 57 108 109
f 57 109 110
f 57 110 58
f 58 110 59
f 59 111 60
f 59 110 111
f 60 112 113
f 60 113 61
f 60 111 112
f 61 113 62
f 62 113 63
f 63 113 64
f 64 114 115
f 64 115 65
f 64 113 114
f 65 115 66
f 66 115 116
f 66 116 67
f 67 116 68
f 68 117 118
f 68 118 69
f 68 116 117
f 69 119 70
f 69 118 119
f 70 119 71
f 71 120 121
f 71 121 72
f 71 119 120
f 72 122 73
f 72 121 122
f 73 122 74
f 74 122 123
f 74 123 75
f 75 124 125
f 75 125 76
f 75 123 124
f 76 126 77
f 76 125 126
f 77 126 127
f 85 128 129
f 85 129 130
f 86 131 132
f 86 132 92
f 87 133 134
f 87 134 88
f 88 134 135
f 88 135 136
f 88 136 91
f 89 91 137
f 89 137 138
f 89 138 90
f 90 138 139
f 91 136 137
f 92 132 140
f 92 140 93
f 93 140 94
f 94 140 141
f 94 141 142
f 94 142 95
f 95 142 96
f 96 143 144
f 96 144 97
f 96 142 143
f 97 144 98
f 98 144 145
f 98 145 146
f 98 146 99
f 99 146 100
f 100 146 147
f 100 147 101
f 101 147 148
f 101 148 149
f 101 149 102
f 102 149 103
f 103 150 151
f 103 151 104
f 103 149 150
f 104 151 105
f 105 152 106
f 105 151 153
f 105 153 152
f 106 152 154
f 106 154 107
f 107 154 108
f 108 154 155
f 108 155 156
f 108 156 109
f 109 156 110
f 110 156 157
f 110 157 158
f 110 158 111
f 111 158 112
f 112 158 159
f 112 159 113
f 113 159 160
f 113 160 161
f 113 161 114
f 114 161 115
f 115 161 162
f 115 162 163
f 115 163 116
f 116 163 164
f 116 164 117
f 117 164 118
f 118 164 165
f 118 165 119
f 119 165 166
f 119 166 167
f 119 167 120
f 120 167 121
f 121 167 168
f 121 168 123
f 121 123 122
f 123 168 169
f 123 169 170
f 123 170 124
f 124 170 171
f 124 171 172
f 124 172 173
f 124 173 174
f 124 174 125
f 125 174 126
f 126 174 173
f 126 173 172
f 126 172 175
f 126 175 176
f 126 176 177
f 126 177 127
f 127 177 178
f 128 179 129
f 129 179 180
f 129 180 181
f 129 181 182
f 129 182 183
f 129 183 130
f 131 184 132
f 132 184 185
f 132 185 186
f 132 186 140
f 133 187 134
f 134 187 188
f 134 188 135
f 135 188 189
f 135 189 190
f 135 190 136
f 136 191 137
f 136 190 192
f 136 192 191
f 137 191 138
f 138 191 193
f 138 193 194
f 138 194 139
f 140 186 195
f 140 195 141
f 141 195 196
f 141 196 142
f 142 196 197
f 142 197 143
f 143 197 144
f 144 197 198
f 144 198 145
f 145 198 199
f 145 199 146
f 146 199 200
f 146 200 147
f 147 200 201
f 147 201 202
f 147 202 148
f 148 202 203
f 148 203 149
f 149 203 204
f 149 204 150
f 150 204 151
f 151 204 205
f 151 205 206
f 151 206 153
f 152 153 206
f 152 206 207
f 152 207 154
f 154 207 208
f 154 208 209
f 154 209 155
f 155 209 156
f 156 209 210
f 156 210 211
f 156 211 157
f 157 211 158
f 158 211 212
f 158 212 213
f 158 213 159
f 159 213 160
f 160 213 214
f 160 214 215
f 160 215 161
f 161 215 216
f 161 216 162
f 162 216 163
f 163 216 217
f 163 217 164
f 164 217 218
f 164 218 165
f 165 218 219
f 165 219 220
f 165 220 166
f 166 220 167
f 167 220 221
f 167 221 169
f 167 169 168
f 169 221 222
f 169 222 170
f 170 222 223
f 170 223 224
f 170 224 171
f 171 224 172
f 172 224 225
f 172 225 226
f 172 226 175
f 175 226 176
f 176 226 227
f 176 227 228
f 176 228 229
f 176 229 177
f 177 229 230
f 177 230 178
f 178 230 231
f 179 232 233
f 179 233 180
f 180 233 181
f 181 233 234
f 181 234 235
f 181 235 236
f 181 236 182
f 182 236 237
f 182 237 183
f 183 237 238
f 184 239 240
f 184 240 185
f 185 240 186
f 186 240 241
f 186 241 195
f 187 242 188
f 188 242 243
f 188 243 244
f 188 244 245
f 188 245 246
f 188 246 189
f 189 246 247
f 189 247 190
f 190 247 192
f 191 192 248
f 191 248 193
f 192 247 249
f 192 249 250
f 192 250 248
f 193 251 194
f 193 248 251
f 195 252 196
f 195 241 253
f 195 253 252
f 196 252 197
f 197 254 255
f 197 255 198
f 197 252 254
f 198 255 199
f 199 255 256
f 199 256 257
f 199 257 200
f 200 257 258
f 200 258 201
f 201 258 259
f 201 259 202
f 202 259 203
f 203 259 260
f 203 260 261
f 203 261 204
f 204 261 262
f 204 262 205
f 205 262 206
f 206 262 263
f 206 263 207
f 207 264 265
f 207 265 208
f 207 263 264
f 208 265 209
f 209 265 266
f 209 266 267
f 209 267 210
f 210 267 211
f 211 267 268
f 211 268 212
f 212 268 269
f 212 269 213
f 213 270 271
f 213 271 214
f 213 269 270
f 214 271 215
f 215 272 216
f 215 271 273
f 215 273 272
f 216 272 274
f 216 274 217
f 217 274 218
f 218 274 275
f 218 275 276
f 218 276 219
f 219 276 220
f 220 276 277
f 220 277 278
f 220 278 221
f 221 278 222
f 222 279 280
f 222 280 223
f 222 278 281
f 222 281 279
f 223 280 282
f 223 282 224
f 224 282 225
f 225 282 226
f 226 283 227
f 226 282 283
f 227 283 284
f 227 284 228
f 228 284 285
f 228 285 286
f 228 286 287
f 228 287 288
f 228 288 229
f 229 288 289
f 229 289 230
f 230 289 231
f 231 289 290
f 232 291 292
f 232 292 233
f 233 292 293
f 233 293 234
f 234 293 235
f 235 293 294
f 235 294 295
f 235 295 236
f 236 295 296
f 236 296 297
f 236 297 237
f 237 297 298
f 237 298 238
f 239 299 300
f 239 300 240
f 240 300 301
f 240 301 241
f 241 301 253
f 244 302 245
f 245 302 303
f 245 303 304
f 245 304 305
f 245 305 306
f 245 306 246
f 246 306 307
f 246 307 247
f 247 307 308
f 247 308 249
f 248 309 310
f 248 310 251
f 248 250 311
f 248 311 309
f 249 308 250
f 250 308 312
f 250 312 313
f 250 313 311
f 252 253 314
f 252 314 315
f 252 315 316
f 252 316 254
f 253 301 314
f 254 316 255
f 255 316 317
f 255 317 318
f 255 318 256
f 256 318 319
f 256 319 257
f 257 319 258
f 258 319 320
f 258 320 259
f 259 321 322
f 259 322 260
f 259 320 321
f 260 322 261
f 261 322 323
f 261 323 262
f 262 323 324
f 262 324 325
f 262 325 263
f 263 325 326
f 263 326 264
f 264 326 265
f 265 326 327
f 265 327 328
f 265 328 266
f 266 328 267
f 267 329 330
f 267 330 268
f 267 328 329
f 268 330 269
f 269 330 331
f 269 331 332
f 269 332 270
f 270 332 333
f 270 333 271
f 271 333 273
f 272 273 334
f 272 334 335
f 272 335 274
f 273 333 334
f 274 335 336
f 274 336 337
f 274 337 275
f 275 337 276
f 276 338 339
f 276 339 277
f 276 337 338
f 277 339 281
f 277 281 278
f 279 281 340
f 279 340 280
f 280 340 341
f 280 341 282
f 281 339 342
f 281 342 343
f 281 343 340
f 282 341 344
f 282 344 345
f 282 345 283
f 283 346 347
f 283 347 284
f 283 345 346
f 284 347 348
f 284 348 285
f 285 348 286
f 286 348 349
f 286 349 308
f 286 308 307
f 286 307 306
f 286 306 287
f 287 306 305
f 287 305 288
f 288 305 304
f 288 304 289
f 289 304 350
f 289 350 290
f 291 351 352
f 291 352 292
f 292 352 353
f 292 353 293
f 293 353 294
f 294 353 354
f 294 354 355
f 294 355 356
f 294 356 295
f 295 356 357
f 295 357 358
f 295 358 359
f 295 359 296
f 296 359 360
f 296 360 297
f 297 361 298
f 297 360 361
f 299 362 300
f 300 362 363
f 300 363 301
f 301 363 364
f 301 364 365
f 301 365 314
f 303 366 304
f 304 366 367
f 304 367 350
f 308 349 312
f 309 311 368
f 309 368 369
f 309 369 310
f 311 313 370
f 311 370 371
f 311 371 368
f 312 349 372
f 312 372 373
f 312 373 313
f 313 373 374
f 313 374 370
f 314 365 315
f 315 375 376
f 315 376 316
f 315 365 375
f 316 376 377
f 316 377 317
f 317 377 318
f 318 377 378
f 318 378 319
f 319 379 320
f 319 378 380
f 319 380 379
f 320 379 381
f 320 381 321
f 321 381 322
f 322 381 382
f 322 382 323
f 323 382 383
f 323 383 384
f 323 384 324
f 324 384 325
f 325 385 386
f 325 386 326
f 325 384 385
f 326 386 387
f 326 387 327
f 327 387 328
f 328 388 389
f 328 389 329
f 328 387 388
f 329 389 390
f 329 390 330
f 330 390 391
f 330 391 331
f 331 391 332
f 332 392 333
f 332 391 392
f 333 392 393
f 333 393 394
f 333 394 334
f 334 394 335
f 335 395 396
f 335 396 336
f 335 394 395
f 336 396 397
f 336 397 337
f 337 397 398
f 337 398 338
f 338 398 342
f 338 342 339
f 340 343 399
f 340 399 341
f 341 399 400
f 341 400 401
f 341 401 344
f 342 398 402
f 342 402 403
f 342 403 343
f 343 403 404
f 343 404 399
f 344 401 345
f 345 401 405
f 345 405 346
f 346 406 407
f 346 407 347
f 346 405 406
f 347 407 348
f 348 407 408
f 348 408 372
f 348 372 349
f 351 409 352
f 352 409 410
f 352 410 353
f 353 410 411
f 353 411 412
f 353 412 354
f 354 412 355
f 355 412 413
f 355 413 414
f 355 414 357
f 355 357 356
f 357 414 375
f 357 375 365
f 357 365 358
f 358 365 364
f 358 364 359
f 359 364 360
f 360 364 363
f 360 363 361
f 361 363 362
f 372 408 373
f 373 408 415
f 373 415 416
f 373 416 417
f 373 417 374
f 374 417 418
f 375 414 376
f 376 414 419
f 376 419 377
f 377 419 378
f 378 419 420
f 378 420 421
f 378 421 380
f 379 422 423
f 379 423 381
f 379 380 421
f 379 421 422
f 381 423 424
f 381 424 382
f 382 424 383
f 383 424 425
f 383 425 426
f 383 426 384
f 384 426 427
f 384 427 385
f 385 427 386
f 386 428 429
f 386 429 387
f 386 427 428
f 387 429 430
f 387 430 388
f 388 430 389
f 389 431 390
f 389 430 431
f 390 431 432
f 390 432 433
f 390 433 391
f 391 433 392
f 392 434 393
f 392 433 434
f 393 434 435
f 393 435 436
f 393 436 394
f 394 436 395
f 395 437 396
f 395 436 437
f 396 437 438
f 396 438 397
f 397 438 439
f 397 439 398
f 398 439 402
f 399 404 440
f 399 440 441
f 399 441 400
f 400 441 442
f 400 442 401
f 401 443 405
f 401 442 444
f 401 444 443
f 402 445 403
f 402 439 445
f 403 446 440
f 403 440 404
f 403 445 446
f 405 443 447
f 405 447 406
f 406 447 448
f 406 448 407
f 407 448 415
f 407 415 408
f 409 449 450
f 409 450 410
f 410 450 451
f 410 451 411
f 411 451 412
f 412 451 452
f 412 452 453
f 412 453 413
f 413 419 414
f 413 453 419
f 415 448 454
f 415 454 416
f 416 454 455
f 416 455 456
f 416 456 457
f 416 457 418
f 416 418 417
f 419 453 420
f 420 453 421
f 421 458 459
f 421 459 422
f 421 453 458
f 422 459 423
f 423 460 461
f 423 461 424
f 423 459 460
f 424 461 462
f 424 462 425
f 425 462 463
f 425 463 426
f 426 463 427
f 427 463 464
f 427 464 465
f 427 465 428
f 428 465 429
f 429 465 466
f 429 466 430
f 430 467 468
f 430 468 431
f 430 466 467
f 431 468 469
f 431 469 432
f 432 469 433
f 433 469 470
f 433 470 471
f 433 471 434
f 434 471 472
f 434 472 435
f 435 472 436
f 436 473 474
f 436 474 437
f 436 472 473
f 437 474 438
f 438 474 475
f 438 475 476
f 438 476 439
f 439 476 445
f 440 446 477
f 440 477 478
f 440 478 441
f 441 479 480
f 441 480 442
f 441 478 479
f 442 480 444
f 443 444 481
f 443 481 447
f 444 480 482
f 444 482 481
f 445 483 477
f 445 477 446
f 445 476 483
f 447 484 448
f 447 481 484
f 448 484 454
f 449 485 486
f 449 486 450
f 450 486 451
f 451 486 487
f 451 487 488
f 451 488 452
f 452 488 453
f 453 488 458
f 454 489 455
f 454 484 489
f 458 488 490
f 458 490 459
f 459 490 491
f 459 491 460
f 460 491 492
f 460 492 461
f 461 492 493
f 461 493 462
f 462 493 463
f 463 494 464
f 463 493 495
f 463 495 494
f 464 494 496
f 464 496 465
f 465 496 466
f 466 497 498
f 466 498 467
f 466 496 497
f 467 498 468
f 468 499 500
f 468 500 469
f 468 498 499
f 469 501 470
f 469 500 501
f 470 501 502
f 470 502 471
f 471 502 503
f 471 503 472
f 472 503 473
f 473 504 474
f 473 503 504
f 474 505 506
f 474 506 475
f 474 504 505
f 475 506 476
f 476 507 483
f 476 506 507
f 477 508 509
f 477 509 478
f 477 483 508
f 478 509 479
f 479 510 480
f 479 509 510
f 480 511 512
f 480 512 482
f 480 510 511
f 481 513 484
f 481 482 513
f 482 512 514
f 482 514 513
f 483 515 508
f 483 507 516
f 483 516 515
f 484 517 489
f 484 513 514
f 484 514 517
f 485 518 519
f 485 519 486
f 486 519 520
f 486 520 487
f 487 520 488
f 488 520 490
f 489 517 521
f 490 520 491
f 491 522 523
f 491 523 492
f 491 520 522
f 492 523 524
f 492 524 493
f 493 524 495
f 494 495 525
f 494 525 496
f 495 524 526
f 495 526 525
f 496 527 528
f 496 528 497
f 496 525 527
f 497 528 498
f 498 529 530
f 498 530 499
f 498 528 529
f 499 530 500
f 500 530 531
f 500 531 532
f 500 532 501
f 501 532 502
f 502 533 503
f 502 532 533
f 503 533 534
f 503 534 504
f 504 535 536
f 504 536 505
f 504 534 535
f 505 536 506
f 506 536 537
f 506 537 516
f 506 516 507
f 508 538 539
f 508 539 509
f 508 515 540
f 508 540 538
f 509 539 541
f 509 541 542
f 509 542 510
f 510 542 511
f 511 543 512
f 511 542 543
f 512 544 514
f 512 543 544
f 514 545 546
f 514 546 517
f 514 544 545
f 515 516 540
f 516 547 540
f 516 537 548
f 516 548 547
f 517 546 521
f 518 549 519
f 519 549 550
f 519 550 520
f 520 550 522
f 522 550 523
f 523 550 551
f 523 551 524
f 524 551 552
f 524 552 553
f 524 553 526
f 525 554 555
f 525 555 527
f 525 526 553
f 525 553 554
f 527 555 528
f 528 555 556
f 528 556 529
f 529 557 558
f 529 558 530
f 529 556 557
f 530 558 559
f 530 559 531
f 531 559 532
f 532 560 533
f 532 559 560
f 533 561 562
f 533 562 534
f 533 560 561
f 534 562 563
f 534 563 535
f 535 563 536
f 536 564 548
f 536 548 537
f 536 563 564
f 538 565 566
f 538 566 539
f 538 540 565
f 539 566 541
f 540 547 567
f 540 567 568
f 540 568 569
f 540 569 565
f 547 548 570
f 547 570 571
f 547 571 567
f 548 572 570
f 548 564 573
f 548 573 574
f 548 574 572
f 549 575 550
f 550 575 576
f 550 576 551
f 551 576 552
f 552 577 578
f 552 578 553
f 552 576 577
f 553 578 554
f 554 579 580
f 554 580 555
f 554 578 579
f 555 580 581
f 555 581 556
f 556 582 583
f 556 583 557
f 556 581 582
f 557 583 558
f 558 583 584
f 558 584 585
f 558 585 559
f 559 585 586
f 559 586 560
f 560 586 561
f 561 587 588
f 561 588 562
f 561 586 587
f 562 589 590
f 562 590 563
f 562 588 589
f 563 591 592
f 563 592 573
f 563 573 564
f 563 590 591
f 575 593 576
f 576 593 594
f 576 594 577
f 577 594 578
f 578 595 579
f 578 594 595

