# https://github.com/mikedh/trimesh
v 0.16589205 -0.15447477 -0.19672719
v 0.16668551 -0.20306911 -0.17076534
v 0.16589205 -0.20206344 -0.17163225
v 0.16584086 -0.21895882 -0.16230150
v 0.16589205 -0.11151221 -0.19672719
v 0.16799086 -0.15224215 -0.19672719
v 0.20564151 -0.18635476 -0.16029391
v 0.19627362 -0.19623050 -0.16029391
v 0.19077066 -0.19073951 -0.16586041
v 0.18119803 -0.19987106 -0.16586041
v 0.17116468 -0.20849977 -0.16586041
v 0.16589205 -0.20369263 -0.17076534
v 0.16584086 -0.22245857 -0.16031671
v 0.16584086 -0.21895882 -0.12096329
v 0.16589205 -0.21262304 -0.16586041
v 0.17034563 -0.21895882 -0.16031671
v 0.16589205 -0.11151221 -0.15477301
v 0.19729744 -0.11151221 -0.19672719
v 0.17525992 -0.14381459 -0.19672719
v 0.21454865 -0.17603649 -0.16029391
v 0.21186115 -0.19196643 -0.15411142
v 0.19202483 -0.21181850 -0.15411142
v 0.18639386 -0.20562354 -0.16029391
v 0.20218614 -0.20214389 -0.15411142
v 0.17607898 -0.21449362 -0.16029391
v 0.16584086 -0.22360505 -0.15965512
v 0.16584086 -0.31699228 -0.05229441
v 0.18137719 -0.22097017 -0.15411142
v 0.27405766 -0.31699228 0.03633635
v 0.40385124 -0.11151221 0.03633635
v 0.19558257 -0.11456948 -0.19672719
v 0.24357368 -0.11151221 -0.16713798
v 0.24388082 -0.11535390 -0.16586041
v 0.23791713 -0.12718067 -0.16586041
v 0.18068612 -0.13685530 -0.19672719
v 0.22291830 -0.16529585 -0.16029391
v 0.22962427 -0.17028402 -0.15411142
v 0.22099866 -0.18134648 -0.15411142
v 0.22788379 -0.18699838 -0.14729016
v 0.21843913 -0.19794016 -0.14729016
v 0.18700814 -0.22784901 -0.14729016
v 0.20845698 -0.20841932 -0.14729016
v 0.19798851 -0.21837553 -0.14729016
v 0.19732304 -0.21895882 -0.14729016
v 0.17029443 -0.22959889 -0.15411142
v 0.16584086 -0.23271649 -0.15411142
v 0.16584086 -0.31699228 -0.08891021
v 0.17561826 -0.23673920 -0.14729016
v 0.30751064 -0.31699228 0.03633635
v 0.42732209 -0.11151221 0.03633635
v 0.19445637 -0.11654060 -0.19672719
v 0.23804510 -0.14266811 -0.16029391
v 0.24557011 -0.11151221 -0.16586041
v 0.25089392 -0.11867264 -0.16029391
v 0.24475107 -0.13084134 -0.16029391
v 0.18209386 -0.13504508 -0.19672719
v 0.23075046 -0.15419318 -0.16029391
v 0.23768677 -0.15883940 -0.15411142
v 0.24508381 -0.16376723 -0.14729016
v 0.23676534 -0.17557389 -0.14729016
v 0.22534984 -0.20421559 -0.13976167
v 0.24423915 -0.18114534 -0.13976167
v 0.23507605 -0.19291177 -0.13976167
v 0.19292066 -0.23504966 -0.13980730
v 0.18117243 -0.24422145 -0.13980730
v 0.20425935 -0.22531471 -0.13980730
v 0.21506056 -0.21499646 -0.13976167
v 0.21091412 -0.21895882 -0.13980730
v 0.16584086 -0.23728226 -0.15125972
v 0.16584086 -0.31311035 -0.09272008
v 0.16660872 -0.31699228 -0.08854519
v 0.16896348 -0.25283003 -0.13980730
v 0.16584086 -0.24359792 -0.14729016
v 0.29996005 -0.31699228 0.02540864
v 0.30866244 -0.30868539 0.02540864
v 0.31234816 -0.31236616 0.03633635
v 0.42414826 -0.12293672 0.03633635
v 0.41769826 -0.12675829 0.02540864
v 0.42189589 -0.11151221 0.02540864
v 0.18849267 -0.12595375 -0.19672719
v 0.24521178 -0.14697242 -0.15411142
v 0.25404215 -0.11151221 -0.16029391
v 0.26320526 -0.11151221 -0.15411142
v 0.25844455 -0.12225285 -0.15411142
v 0.25212249 -0.13478360 -0.15411142
v 0.25283918 -0.15155831 -0.14729016
v 0.25283918 -0.16893642 -0.13976167
v 0.23251653 -0.21071227 -0.13166286
v 0.22468437 -0.21895882 -0.13166286
v 0.21900222 -0.21895882 -0.13510771
v 0.25204572 -0.18689781 -0.13166286
v 0.24254987 -0.19904640 -0.13166286
v 0.18693136 -0.25200540 -0.13164005
v 0.19906351 -0.24253191 -0.13164005
v 0.21073496 -0.23249525 -0.13164005
v 0.22192009 -0.22187528 -0.13164005
v 0.16584086 -0.31025425 -0.09538926
v 0.16706944 -0.31250697 -0.09272008
v 0.16944979 -0.31699228 -0.08713075
v 0.17433849 -0.26087546 -0.13164005
v 0.16584086 -0.26624578 -0.13164005
v 0.16584086 -0.25478107 -0.13980730
v 0.16584086 -0.24818382 -0.14425595
v 0.29018265 -0.31699228 0.01226802
v 0.30336422 -0.30337539 0.01083076
v 0.32345650 -0.29315773 0.02540864
v 0.31616184 -0.30836356 0.03633635
v 0.42266375 -0.12824669 0.03633635
v 0.41590661 -0.14884298 0.03633635
v 0.41099232 -0.14709309 0.02540864
v 0.41053158 -0.12456591 0.01083076
v 0.41411495 -0.11151221 0.01083076
v 0.25998026 -0.13896722 -0.14729016
v 0.26922014 -0.11151221 -0.14986810
v 0.27234277 -0.11281960 -0.14729016
v 0.26648146 -0.12605432 -0.14729016
v 0.26819631 -0.14335197 -0.13976167
v 0.26082489 -0.15634532 -0.13976167
v 0.26914334 -0.16133349 -0.13166286
v 0.26090169 -0.17430674 -0.13166286
v 0.25025403 -0.20536205 -0.12287962
v 0.23988797 -0.21738996 -0.12287962
v 0.23840344 -0.21895882 -0.12287962
v 0.22893319 -0.22891504 -0.12287962
v 0.26919454 -0.17983796 -0.12287962
v 0.26003143 -0.19283131 -0.12287962
v 0.19286945 -0.26001057 -0.12287962
v 0.20538554 -0.25023541 -0.12287962
v 0.21744092 -0.23985681 -0.12287962
v 0.16584086 -0.30140427 -0.10341965
v 0.17692360 -0.29512885 -0.10341965
v 0.18219623 -0.30391848 -0.09272008
v 0.18744326 -0.31266788 -0.08145016
v 0.17984147 -0.31699228 -0.08145016
v 0.17986706 -0.26914215 -0.12287962
v 0.16645515 -0.27765018 -0.12287962
v 0.16584086 -0.27668473 -0.12388343
v 0.28908205 -0.31699228 0.01083076
v 0.29770768 -0.29770339 -0.00349616
v 0.31787673 -0.28812933 0.01083076
v 0.28731599 -0.31699228 0.00864066
v 0.28276002 -0.31196389 -0.00349616
v 0.32729578 -0.29665747 0.03633635
v 0.33743152 -0.27692607 0.02540864
v 0.34144998 -0.28024483 0.03633635
v 0.33090472 -0.29247385 0.03633635
v 0.40810004 -0.16905710 0.03633635
v 0.40328813 -0.16706586 0.02540864
v 0.40392801 -0.14457890 0.01083076
v 0.40285301 -0.12225285 -0.00349616
v 0.40582207 -0.11151221 -0.00349616
v 0.27490228 -0.13003680 -0.13976167
v 0.27285466 -0.11151221 -0.14729016
v 0.28096837 -0.11639981 -0.13976167
v 0.27674514 -0.14793786 -0.13166286
v 0.28552431 -0.15262432 -0.12287962
v 0.27766657 -0.16642222 -0.12287962
v 0.25808620 -0.21179840 -0.11348043
v 0.24160284 -0.21895882 -0.12073515
v 0.23612545 -0.23607546 -0.11345762
v 0.26817074 -0.19886538 -0.11348043
v 0.28636897 -0.17163163 -0.11348043
v 0.27761540 -0.18546975 -0.11348043
v 0.18549803 -0.27756971 -0.11345762
v 0.21183556 -0.25807968 -0.11345762
v 0.19890994 -0.26813644 -0.11345762
v 0.22424926 -0.24737927 -0.11345762
v 0.16584086 -0.28963786 -0.11345762
v 0.17167658 -0.28633922 -0.11345762
v 0.19118017 -0.28609785 -0.10341965
v 0.19688791 -0.29462600 -0.09272008
v 0.18480694 -0.31699228 -0.07859847
v 0.20257007 -0.30309382 -0.08145016
v 0.19000280 -0.31699228 -0.07558708
v 0.16584086 -0.28609785 -0.11635494
v 0.16584086 -0.27797198 -0.12287962
v 0.31193864 -0.28273889 -0.00349616
v 0.29171836 -0.29168943 -0.01752651
v 0.32542735 -0.26709056 -0.00349616
v 0.33162141 -0.27215916 0.01083076
v 0.27692431 -0.31699228 -0.00349616
v 0.27137014 -0.31699228 -0.00949614
v 0.27702668 -0.30564824 -0.01752651
v 0.34457260 -0.25556549 0.01083076
v 0.35061309 -0.26003069 0.02540864
v 0.35478511 -0.26312819 0.03633635
v 0.40587327 -0.17408548 0.03633635
v 0.39932087 -0.18886894 0.03633635
v 0.39458576 -0.18663634 0.02540864
v 0.38780302 -0.18343829 0.01083076
v 0.39635181 -0.16420972 0.01083076
v 0.38895479 -0.16115247 -0.00349616
v 0.39637741 -0.14186357 -0.00349616
v 0.39471373 -0.11977889 -0.01752651
v 0.39696610 -0.11151221 -0.01752651
v 0.28992671 -0.12010071 -0.13166286
v 0.28365588 -0.13418019 -0.13166286
v 0.28283682 -0.11151221 -0.13976167
v 0.29018265 -0.11151221 -0.13405828
v 0.29018265 -0.11945707 -0.13166286
v 0.29018265 -0.14341232 -0.12287962
v 0.29018265 -0.15511841 -0.11799752
v 0.29018265 -0.16497403 -0.11348043
v 0.25191775 -0.21895882 -0.11348043
v 0.26602072 -0.21827497 -0.10344246
v 0.26543203 -0.21895882 -0.10344246
v 0.24741298 -0.22420846 -0.11345762
v 0.24336892 -0.24331634 -0.10341965
v 0.27638680 -0.20497990 -0.10344246
v 0.29517373 -0.17690137 -0.10341965
v 0.29018265 -0.18478589 -0.10344246
v 0.28611302 -0.19116189 -0.10344246
v 0.21833676 -0.26600441 -0.10341965
v 0.20500162 -0.27636290 -0.10341965
v 0.23110878 -0.25498220 -0.10341965
v 0.21111888 -0.28460947 -0.09272008
v 0.21721056 -0.29279566 -0.08145016
v 0.20817542 -0.31148118 -0.06963273
v 0.19949864 -0.31699228 -0.06963273
v 0.30564219 -0.27702665 -0.01752651
v 0.27103740 -0.29901075 -0.03119185
v 0.28534517 -0.28535366 -0.03119185
v 0.29898742 -0.27101269 -0.03119185
v 0.31884935 -0.26168001 -0.01752651
v 0.33131427 -0.24572995 -0.01752651
v 0.33814818 -0.25079858 -0.00349616
v 0.26389632 -0.31699228 -0.01752651
v 0.35670477 -0.23834829 0.01083076
v 0.36292440 -0.24251179 0.02540864
v 0.36727560 -0.24540815 0.03633635
v 0.38954347 -0.20823829 0.03633635
v 0.38496193 -0.20576432 0.02540864
v 0.37833276 -0.20224446 0.01083076
v 0.38058513 -0.18001898 -0.00349616
v 0.38109705 -0.15789407 -0.01752651
v 0.38836610 -0.13898733 -0.01752651
v 0.37991965 -0.13597029 -0.03116904
v 0.38611370 -0.11716413 -0.03116904
v 0.38767502 -0.11151221 -0.03116904
v 0.39077204 -0.11151221 -0.02662914
v 0.29908982 -0.12392228 -0.12285681
v 0.29018265 -0.12179025 -0.13086438
v 0.29269099 -0.13844427 -0.12285681
v 0.29322851 -0.11151221 -0.13166286
v 0.30385053 -0.11151221 -0.12285681
v 0.30180290 -0.14276868 -0.11348043
v 0.29445708 -0.15741134 -0.11348043
v 0.30346662 -0.16223860 -0.10341965
v 0.25498918 -0.23108730 -0.10341965
v 0.27392966 -0.22479175 -0.09272008
v 0.26259097 -0.23798624 -0.09272008
v 0.28462848 -0.21109442 -0.09274289
v 0.27848563 -0.21895882 -0.09274289
v 0.23801951 -0.26256502 -0.09272008
v 0.25061238 -0.25057733 -0.09272008
v 0.29466182 -0.19687414 -0.09274289
v 0.29018265 -0.20323002 -0.09274289
v 0.29018265 -0.18913043 -0.10102422
v 0.31250173 -0.16704574 -0.09274289
v 0.30390173 -0.18217114 -0.09274289
v 0.22483796 -0.27390903 -0.09272008
v 0.23131356 -0.28179356 -0.08145016
v 0.22319984 -0.30090144 -0.06963273
v 0.21183556 -0.31699228 -0.06139703
v 0.31191304 -0.25600797 -0.03119185
v 0.26018500 -0.31699228 -0.02122232
v 0.25603858 -0.31192368 -0.03119185
v 0.25012606 -0.30470291 -0.04444654
v 0.26476657 -0.29209170 -0.04444654
v 0.27874157 -0.27875641 -0.04444654
v 0.29210231 -0.26473728 -0.04444654
v 0.33551186 -0.22418834 -0.03119185
v 0.34296009 -0.22915639 -0.01752651
v 0.35004997 -0.23390318 -0.00349616
v 0.32409638 -0.24037975 -0.03119185
v 0.36796668 -0.22054780 0.01083076
v 0.37441668 -0.22440960 0.02540864
v 0.37592679 -0.23175104 0.03633635
v 0.38347739 -0.21895882 0.03633635
v 0.37751371 -0.21895882 0.02540864
v 0.37126845 -0.19846311 -0.00349616
v 0.36376905 -0.19444039 -0.01752651
v 0.37288097 -0.17637843 -0.01752651
v 0.36476725 -0.17253673 -0.03116904
v 0.37280416 -0.15445465 -0.03116904
v 0.37114048 -0.13283259 -0.04444654
v 0.37718096 -0.11444879 -0.04444654
v 0.37974048 -0.11151221 -0.04207393
v 0.31434458 -0.11251789 -0.11348043
v 0.30843207 -0.12778407 -0.11348043
v 0.31163150 -0.11151221 -0.11614962
v 0.31790233 -0.13172634 -0.10341965
v 0.31106839 -0.14715344 -0.10341965
v 0.32033390 -0.15153819 -0.09274289
v 0.28181300 -0.23126832 -0.08145016
v 0.25783023 -0.25779808 -0.08145016
v 0.27014157 -0.24482486 -0.08145016
v 0.29018265 -0.21517748 -0.08510034
v 0.29018265 -0.21895882 -0.08254522
v 0.24485344 -0.27010760 -0.08145016
v 0.29284456 -0.21714860 -0.08142735
v 0.31265530 -0.18742077 -0.08142735
v 0.30308267 -0.20252605 -0.08142735
v 0.32954818 -0.15590283 -0.08142735
v 0.32148567 -0.17185289 -0.08142735
v 0.25163621 -0.27758983 -0.06963273
v 0.23768677 -0.28959763 -0.06963273
v 0.24398321 -0.29724076 -0.05726777
v 0.22908676 -0.30884629 -0.05726777
v 0.21756889 -0.31699228 -0.05726777
v 0.30469519 -0.25007448 -0.04444654
v 0.31659698 -0.23482841 -0.04444654
v 0.24956298 -0.31699228 -0.03119185
v 0.25829095 -0.28493127 -0.05726777
v 0.23512724 -0.31699228 -0.04378495
v 0.23484570 -0.31661013 -0.04444654
v 0.27195883 -0.27191782 -0.05726777
v 0.28496122 -0.25826070 -0.05726777
v 0.29724696 -0.24395996 -0.05726777
v 0.33809701 -0.20264673 -0.04444654
v 0.34610832 -0.20745386 -0.03116904
v 0.35378689 -0.21205987 -0.01752651
v 0.32770532 -0.21895882 -0.04451498
v 0.35949463 -0.21895882 -0.00349616
v 0.36108154 -0.21642451 -0.00349616
v 0.37887025 -0.22708470 0.03633635
v 0.35586011 -0.19023666 -0.03116904
v 0.35634643 -0.16855425 -0.04444654
v 0.36417857 -0.15087444 -0.04444654
v 0.35527143 -0.14719367 -0.05726777
v 0.36205417 -0.12957418 -0.05726777
v 0.36796668 -0.11165302 -0.05726777
v 0.37800002 -0.11151221 -0.04444654
v 0.31465173 -0.11151221 -0.11348043
v 0.31549639 -0.11151221 -0.11270477
v 0.32542735 -0.11151221 -0.10341965
v 0.32396841 -0.11595731 -0.10341965
v 0.33361784 -0.11941684 -0.09274289
v 0.32737258 -0.13564849 -0.09274289
v 0.29143682 -0.21895882 -0.08142735
v 0.29527611 -0.21895882 -0.07789125
v 0.28961957 -0.23766443 -0.06963273
v 0.27758980 -0.25160313 -0.06963273
v 0.26494575 -0.26491830 -0.06963273
v 0.33039284 -0.17659968 -0.06963273
v 0.32130650 -0.19258995 -0.06963273
v 0.31147793 -0.20813772 -0.06963273
v 0.33679163 -0.13955051 -0.08142735
v 0.34610832 -0.14341232 -0.06963273
v 0.33866009 -0.16020712 -0.06963273
v 0.23433378 -0.31699228 -0.04444654
v 0.30884162 -0.22907594 -0.05726777
v 0.23464093 -0.31699228 -0.04419559
v 0.33912081 -0.18126602 -0.05726777
v 0.34764403 -0.18581168 -0.04444654
v 0.32980412 -0.19767869 -0.05726777
v 0.31595710 -0.21895882 -0.05726777
v 0.31969401 -0.21362872 -0.05726777
v 0.34761843 -0.16443098 -0.05726777
v 0.35273749 -0.12625545 -0.06963273
v 0.35757500 -0.11151221 -0.06963273
v 0.36755714 -0.11151221 -0.05779248
v 0.36806905 -0.11151221 -0.05717652
v 0.33622855 -0.11151221 -0.09274289
v 0.34324163 -0.12285626 -0.08142735
v 0.30385053 -0.21895882 -0.06963273
v 0.30088148 -0.22316255 -0.06963273
v 0.34695297 -0.11151221 -0.08142735
f 1 2 3
f 1 3 4
f 1 4 5
f 1 5 18
f 1 18 31
f 1 31 51
f 1 51 80
f 1 80 56
f 1 56 35
f 1 35 19
f 1 19 6
f 1 6 7
f 1 7 8
f 1 8 9
f 1 9 10
f 1 10 2
f 2 11 12
f 2 12 3
f 2 10 11
f 3 12 4
f 4 13 26
f 4 26 46
f 4 46 69
f 4 69 73
f 4 73 103
f 4 103 102
f 4 102 101
f 4 101 137
f 4 137 176
f 4 176 175
f 4 175 168
f 4 168 130
f 4 130 97
f 4 97 70
f 4 70 47
f 4 47 27
f 4 27 14
f 4 14 17
f 4 17 5
f 4 12 15
f 4 15 16
f 4 16 13
f 5 17 30
f 5 30 50
f 5 50 79
f 5 79 112
f 5 112 151
f 5 151 195
f 5 195 240
f 5 240 239
f 5 239 288
f 5 288 333
f 5 333 363
f 5 363 362
f 5 362 361
f 5 361 368
f 5 368 364
f 5 364 336
f 5 336 335
f 5 335 334
f 5 334 291
f 5 291 245
f 5 245 244
f 5 244 199
f 5 199 198
f 5 198 153
f 5 153 114
f 5 114 83
f 5 83 82
f 5 82 53
f 5 53 32
f 5 32 18
f 6 19 20
f 6 20 7
f 7 20 21
f 7 21 8
f 8 22 23
f 8 23 10
f 8 10 9
f 8 21 24
f 8 24 22
f 10 23 11
f 11 25 16
f 11 16 15
f 11 15 12
f 11 23 25
f 13 16 26
f 14 27 17
f 16 25 28
f 16 28 26
f 17 27 29
f 17 29 30
f 18 32 33
f 18 33 34
f 18 34 31
f 19 35 20
f 20 35 36
f 20 36 37
f 20 37 38
f 20 38 21
f 21 38 39
f 21 39 40
f 21 40 24
f 22 41 28
f 22 28 25
f 22 25 23
f 22 24 42
f 22 42 43
f 22 43 44
f 22 44 41
f 24 40 42
f 26 45 46
f 26 28 45
f 27 47 71
f 27 71 99
f 27 99 134
f 27 134 172
f 27 172 174
f 27 174 219
f 27 219 264
f 27 264 310
f 27 310 351
f 27 351 353
f 27 353 315
f 27 315 313
f 27 313 266
f 27 266 227
f 27 227 182
f 27 182 181
f 27 181 141
f 27 141 138
f 27 138 104
f 27 104 74
f 27 74 49
f 27 49 29
f 28 41 48
f 28 48 45
f 29 49 76
f 29 76 107
f 29 107 143
f 29 143 146
f 29 146 145
f 29 145 186
f 29 186 230
f 29 230 278
f 29 278 326
f 29 326 279
f 29 279 231
f 29 231 188
f 29 188 187
f 29 187 147
f 29 147 109
f 29 109 108
f 29 108 77
f 29 77 50
f 29 50 30
f 31 34 52
f 31 52 51
f 32 53 33
f 33 53 54
f 33 54 34
f 34 54 55
f 34 55 52
f 35 56 36
f 36 57 37
f 36 56 57
f 37 39 38
f 37 57 58
f 37 58 59
f 37 59 60
f 37 60 39
f 39 61 40
f 39 60 62
f 39 62 63
f 39 63 61
f 40 61 42
f 41 64 65
f 41 65 48
f 41 44 66
f 41 66 64
f 42 67 68
f 42 68 66
f 42 66 43
f 42 61 67
f 43 66 44
f 45 48 69
f 45 69 46
f 47 70 71
f 48 72 73
f 48 73 69
f 48 65 72
f 49 74 75
f 49 75 76
f 50 77 78
f 50 78 79
f 51 52 57
f 51 57 80
f 52 55 81
f 52 81 57
f 53 82 54
f 54 82 83
f 54 83 84
f 54 84 85
f 54 85 55
f 55 85 81
f 56 80 57
f 57 81 58
f 58 81 86
f 58 86 59
f 59 62 60
f 59 86 87
f 59 87 62
f 61 63 88
f 61 88 89
f 61 89 90
f 61 90 67
f 62 87 91
f 62 91 63
f 63 91 92
f 63 92 88
f 64 93 65
f 64 66 94
f 64 94 93
f 65 93 72
f 66 95 94
f 66 68 96
f 66 96 95
f 67 90 68
f 68 90 96
f 70 97 98
f 70 98 71
f 71 98 99
f 72 93 100
f 72 100 101
f 72 101 102
f 72 102 103
f 72 103 73
f 74 104 75
f 75 104 105
f 75 105 106
f 75 106 107
f 75 107 76
f 77 108 78
f 78 108 109
f 78 109 110
f 78 110 111
f 78 111 79
f 79 111 112
f 81 85 113
f 81 113 86
f 83 114 115
f 83 115 116
f 83 116 84
f 84 116 113
f 84 113 85
f 86 113 117
f 86 117 118
f 86 118 87
f 87 118 119
f 87 119 120
f 87 120 91
f 88 92 121
f 88 121 122
f 88 122 123
f 88 123 89
f 89 96 90
f 89 123 124
f 89 124 96
f 91 120 125
f 91 125 126
f 91 126 121
f 91 121 92
f 93 94 127
f 93 127 100
f 94 95 128
f 94 128 127
f 95 129 128
f 95 96 129
f 96 124 129
f 97 130 98
f 98 130 131
f 98 131 132
f 98 132 99
f 99 132 133
f 99 133 134
f 100 135 136
f 100 136 101
f 100 127 135
f 101 136 137
f 104 138 105
f 105 139 140
f 105 140 106
f 105 138 141
f 105 141 142
f 105 142 139
f 106 143 107
f 106 140 144
f 106 144 145
f 106 145 146
f 106 146 143
f 109 147 148
f 109 148 110
f 110 149 111
f 110 148 149
f 111 149 150
f 111 150 151
f 111 151 112
f 113 116 152
f 113 152 117
f 114 153 115
f 115 153 154
f 115 154 116
f 116 154 152
f 117 152 155
f 117 155 118
f 118 155 119
f 119 155 156
f 119 156 157
f 119 157 125
f 119 125 120
f 121 126 158
f 121 158 159
f 121 159 122
f 122 159 123
f 123 159 124
f 124 159 160
f 124 160 129
f 125 161 126
f 125 157 162
f 125 162 163
f 125 163 161
f 126 161 158
f 127 164 135
f 127 128 165
f 127 165 166
f 127 166 164
f 128 129 165
f 129 160 167
f 129 167 165
f 130 168 169
f 130 169 131
f 131 169 170
f 131 170 171
f 131 171 132
f 132 171 133
f 133 172 134
f 133 171 173
f 133 173 174
f 133 174 172
f 135 169 136
f 135 164 169
f 136 169 175
f 136 175 176
f 136 176 137
f 139 177 140
f 139 142 178
f 139 178 177
f 140 179 180
f 140 180 144
f 140 177 179
f 141 181 142
f 142 181 182
f 142 182 183
f 142 183 178
f 144 180 184
f 144 184 185
f 144 185 145
f 145 185 186
f 147 187 148
f 148 188 189
f 148 189 190
f 148 190 191
f 148 191 149
f 148 187 188
f 149 191 192
f 149 192 193
f 149 193 150
f 150 193 194
f 150 194 151
f 151 194 195
f 152 154 196
f 152 196 197
f 152 197 155
f 153 198 154
f 154 198 199
f 154 199 200
f 154 200 196
f 155 197 201
f 155 201 156
f 156 201 202
f 156 202 157
f 157 202 203
f 157 203 162
f 158 204 159
f 158 161 205
f 158 205 206
f 158 206 204
f 159 207 160
f 159 204 207
f 160 207 208
f 160 208 167
f 161 163 209
f 161 209 205
f 162 203 210
f 162 210 211
f 162 211 163
f 163 211 212
f 163 212 209
f 164 166 170
f 164 170 169
f 165 167 213
f 165 213 166
f 166 213 214
f 166 214 170
f 167 208 215
f 167 215 213
f 168 175 169
f 170 214 216
f 170 216 171
f 171 216 217
f 171 217 173
f 173 217 218
f 173 218 219
f 173 219 174
f 177 178 220
f 177 220 179
f 178 183 221
f 178 221 222
f 178 222 223
f 178 223 220
f 179 220 224
f 179 224 225
f 179 225 226
f 179 226 180
f 180 226 184
f 182 227 183
f 183 227 221
f 184 226 228
f 184 228 185
f 185 228 229
f 185 229 230
f 185 230 186
f 188 231 232
f 188 232 189
f 189 232 190
f 190 232 233
f 190 233 234
f 190 234 191
f 191 234 192
f 192 234 235
f 192 235 193
f 193 235 236
f 193 236 194
f 194 236 237
f 194 237 238
f 194 238 239
f 194 239 240
f 194 240 195
f 196 200 241
f 196 241 242
f 196 242 197
f 197 242 243
f 197 243 201
f 199 244 200
f 200 244 245
f 200 245 241
f 201 243 246
f 201 246 202
f 202 246 247
f 202 247 203
f 203 247 248
f 203 248 210
f 204 206 249
f 204 249 207
f 205 250 251
f 205 251 206
f 205 209 252
f 205 252 253
f 205 253 250
f 206 251 249
f 207 249 208
f 208 254 215
f 208 249 251
f 208 251 255
f 208 255 254
f 209 212 256
f 209 256 257
f 209 257 252
f 210 256 258
f 210 258 211
f 210 248 259
f 210 259 260
f 210 260 256
f 211 258 212
f 212 258 256
f 213 215 254
f 213 254 261
f 213 261 216
f 213 216 214
f 216 261 217
f 217 261 262
f 217 262 263
f 217 263 218
f 218 263 264
f 218 264 219
f 220 223 265
f 220 265 224
f 221 227 266
f 221 266 267
f 221 267 268
f 221 268 269
f 221 269 270
f 221 270 222
f 222 270 271
f 222 271 223
f 223 271 265
f 224 265 225
f 225 272 273
f 225 273 274
f 225 274 226
f 225 265 275
f 225 275 272
f 226 274 228
f 228 274 276
f 228 276 277
f 228 277 229
f 229 277 230
f 230 277 278
f 231 279 280
f 231 280 232
f 232 280 233
f 233 281 234
f 233 280 276
f 233 276 281
f 234 281 282
f 234 282 283
f 234 283 235
f 235 283 284
f 235 284 285
f 235 285 237
f 235 237 236
f 237 285 286
f 237 286 238
f 238 286 287
f 238 287 288
f 238 288 239
f 241 245 289
f 241 289 290
f 241 290 243
f 241 243 242
f 243 290 246
f 245 291 289
f 246 290 292
f 246 292 293
f 246 293 247
f 247 293 248
f 248 293 294
f 248 294 259
f 250 253 295
f 250 295 251
f 251 296 255
f 251 295 297
f 251 297 296
f 252 257 298
f 252 298 299
f 252 299 253
f 253 299 295
f 254 255 296
f 254 296 300
f 254 300 262
f 254 262 261
f 256 301 257
f 256 260 302
f 256 302 303
f 256 303 301
f 257 301 298
f 259 294 304
f 259 304 305
f 259 305 302
f 259 302 260
f 262 300 306
f 262 306 307
f 262 307 263
f 263 307 308
f 263 308 309
f 263 309 310
f 263 310 264
f 265 271 311
f 265 311 312
f 265 312 275
f 266 313 267
f 267 313 268
f 268 314 269
f 268 313 315
f 268 315 316
f 268 316 308
f 268 308 314
f 269 317 270
f 269 314 317
f 270 317 271
f 271 317 318
f 271 318 319
f 271 319 311
f 272 320 321
f 272 321 322
f 272 322 273
f 272 275 312
f 272 312 323
f 272 323 320
f 273 322 274
f 274 322 324
f 274 324 276
f 276 324 325
f 276 325 281
f 276 280 277
f 277 280 326
f 277 326 278
f 279 326 280
f 281 325 322
f 281 322 282
f 282 322 321
f 282 321 327
f 282 327 283
f 283 327 284
f 284 327 328
f 284 328 285
f 285 328 329
f 285 329 286
f 286 329 330
f 286 330 331
f 286 331 332
f 286 332 287
f 287 333 288
f 287 332 333
f 289 334 335
f 289 335 336
f 289 336 337
f 289 337 292
f 289 292 290
f 289 291 334
f 292 337 338
f 292 338 339
f 292 339 294
f 292 294 293
f 294 339 304
f 295 299 340
f 295 340 341
f 295 341 342
f 295 342 297
f 296 306 300
f 296 297 343
f 296 343 344
f 296 344 306
f 297 342 343
f 298 301 299
f 299 301 340
f 301 303 341
f 301 341 340
f 302 305 345
f 302 345 346
f 302 346 347
f 302 347 303
f 303 347 341
f 304 339 348
f 304 348 349
f 304 349 350
f 304 350 345
f 304 345 305
f 306 344 314
f 306 314 307
f 307 314 308
f 308 316 309
f 309 316 351
f 309 351 310
f 311 319 312
f 312 319 352
f 312 352 323
f 314 344 317
f 315 353 316
f 316 353 351
f 317 344 318
f 318 343 342
f 318 342 319
f 318 344 343
f 319 342 352
f 320 354 355
f 320 355 321
f 320 323 356
f 320 356 354
f 321 355 327
f 322 325 324
f 323 352 357
f 323 357 358
f 323 358 356
f 327 355 328
f 328 330 329
f 328 355 359
f 328 359 330
f 330 359 350
f 330 350 349
f 330 349 360
f 330 360 331
f 331 360 332
f 332 360 361
f 332 361 362
f 332 362 363
f 332 363 333
f 336 364 337
f 337 364 338
f 338 364 365
f 338 365 339
f 339 365 348
f 341 347 366
f 341 366 367
f 341 367 342
f 342 367 352
f 345 350 359
f 345 359 354
f 345 354 356
f 345 356 346
f 346 356 347
f 347 352 366
f 347 356 358
f 347 358 357
f 347 357 352
f 348 365 360
f 348 360 349
f 352 367 366
f 354 359 355
f 360 365 361
f 361 365 368
f 364 368 365

