# https://github.com/mikedh/trimesh
v 0.37774146 0.24893577 0.06084388
v 0.35147488 0.24893577 0.06084388
v 0.38809657 0.23259829 0.06084388
v 0.38601995 0.23132800 0.05483297
v 0.37485102 0.24893577 0.05483297
v 0.22552997 0.24897106 -0.11147928
v 0.22552997 0.24897106 -0.07413688
v 0.16586889 0.24897106 -0.10425373
v 0.16586889 -0.11151220 -0.15480144
v 0.41601884 -0.11147691 0.06084388
v 0.39460707 0.22116558 0.06084388
v 0.38040739 0.22797580 0.04007043
v 0.39690822 0.21213233 0.05483297
v 0.36873338 0.24635988 0.04007043
v 0.37260601 0.24893577 0.05056615
v 0.22235888 0.24897106 -0.11347254
v 0.36693737 0.24893577 0.04007043
v 0.35837829 0.24893577 0.02537017
v 0.34920180 0.24893577 0.01082563
v 0.33940795 0.24893577 -0.00350089
v 0.33573177 0.24893577 -0.00848404
v 0.32877225 0.24893577 -0.01751597
v 0.31740689 0.24893577 -0.03118846
v 0.30562061 0.24893577 -0.04445607
v 0.30343172 0.24893577 -0.04672962
v 0.29296437 0.24893577 -0.05728765
v 0.27988720 0.24893577 -0.06965207
v 0.27475175 0.24893577 -0.07416803
v 0.26619267 0.24893577 -0.08145587
v 0.25213331 0.24893577 -0.09273022
v 0.24901836 0.24893577 -0.09509721
v 0.23742850 0.24893577 -0.10341282
v 0.16586889 0.14875841 -0.25206608
v 0.16586889 0.24897106 -0.14374511
v 0.16586889 -0.11151220 -0.24480939
v 0.22552997 -0.11151220 -0.13471317
v 0.43844086 -0.11147691 0.06084388
v 0.39906904 0.21326149 0.06084388
v 0.39112732 0.20906243 0.04007043
v 0.38495356 0.20574553 0.02537017
v 0.37437394 0.22437662 0.02537017
v 0.36295247 0.24247842 0.02537017
v 0.40499026 0.20154649 0.06084388
v 0.40684238 0.19240737 0.05483297
v 0.40094924 0.18961976 0.04007043
v 0.20684028 0.24897106 -0.12287821
v 0.35666645 0.23831464 0.01082563
v 0.35004368 0.23386860 -0.00350089
v 0.33132595 0.24568945 -0.01751597
v 0.32411385 0.24036124 -0.03118846
v 0.31662112 0.23478603 -0.04445607
v 0.30890393 0.22903439 -0.05728765
v 0.29728600 0.24392514 -0.05728765
v 0.28965297 0.23764421 -0.06965207
v 0.16744040 0.24897106 -0.14302878
v 0.17439993 0.24897106 -0.13982087
v 0.18469889 0.24897106 -0.13486889
v 0.19081654 0.24897106 -0.13169214
v 0.20434271 0.24897106 -0.12434201
v 0.20574585 0.24897106 -0.12353225
v 0.17226717 0.14134832 -0.25200379
v 0.17198654 0.14110132 -0.25243980
v 0.16586889 0.14826441 -0.25243980
v 0.16648628 -0.11151220 -0.24614860
v 0.16586889 0.13072719 -0.25726724
v 0.22552997 -0.11151220 -0.17815991
v 0.43591523 -0.11147691 0.05480182
v 0.43880567 -0.11017133 0.06084388
v 0.37833077 0.20221692 0.01082563
v 0.36797568 0.22053044 0.01082563
v 0.39460707 0.18662044 0.02537017
v 0.38784400 0.18340941 0.01082563
v 0.40905932 0.19343066 0.06084388
v 0.41806740 0.17314114 0.06084388
v 0.41579434 0.17222369 0.05483297
v 0.40976089 0.16971838 0.04007043
v 0.40330648 0.16703662 0.02537017
v 0.34294385 0.22914025 -0.01751597
v 0.36110035 0.21640195 -0.00350089
v 0.33553532 0.22416490 -0.03118846
v 0.32776198 0.21894255 -0.04445607
v 0.30096221 0.22314161 -0.06965207
v 0.31973609 0.21357906 -0.05728765
v 0.31151375 0.20810971 -0.06965207
v 0.17872156 0.13249150 -0.25243980
v 0.17164978 0.14085431 -0.25290698
v 0.16586889 0.14769983 -0.25284469
v 0.16780521 -0.11151220 -0.24873361
v 0.16586889 0.13263264 -0.25732952
v 0.17221104 -0.11151220 -0.25486910
v 0.17190236 -0.11151220 -0.25458878
v 0.17114466 -0.11151220 -0.25384134
v 0.17010635 -0.11151220 -0.25253326
v 0.16898385 -0.11151220 -0.25085145
v 0.19331411 -0.11151220 -0.25134975
v 0.43019044 -0.10766602 0.04007043
v 0.43650454 -0.10925388 0.05480182
v 0.42915213 -0.11147691 0.04007043
v 0.44135934 -0.08772933 0.05480182
v 0.44374466 -0.08818807 0.06084388
v 0.37128708 0.19844130 -0.00350089
v 0.38057578 0.17998666 -0.00350089
v 0.39637503 0.16417846 0.01082563
v 0.38896650 0.16110855 -0.00350089
v 0.42603719 0.15242818 0.06084388
v 0.42373604 0.15161659 0.05483297
v 0.41761839 0.14939356 0.04007043
v 0.41099563 0.14702940 0.02537017
v 0.40715104 0.14565322 0.01742829
v 0.40392387 0.14565322 0.01157310
v 0.35377601 0.21202648 -0.01751597
v 0.36376628 0.19441868 -0.01751597
v 0.34608686 0.20740399 -0.03118846
v 0.33808902 0.20260507 -0.04445607
v 0.32981056 0.19766501 -0.05728765
v 0.18500757 0.12359939 -0.25243980
v 0.32133564 0.19258380 -0.06965207
v 0.19115329 0.11456613 -0.25200379
v 0.17835675 0.13224450 -0.25290698
v 0.17748681 0.13157406 -0.25402820
v 0.17125691 0.14050145 -0.25343645
v 0.16586889 0.14695881 -0.25334302
v 0.16586889 0.13446751 -0.25726724
v 0.17156561 0.12723386 -0.25726724
v 0.17063953 0.12652814 -0.25732952
v 0.18736485 0.10013410 -0.25732952
v 0.18074207 -0.11151220 -0.25729838
v 0.17936701 -0.11151220 -0.25726724
v 0.17802000 -0.11151220 -0.25711149
v 0.17672911 -0.11151220 -0.25689352
v 0.17549436 -0.11151220 -0.25658205
v 0.17434379 -0.11151220 -0.25617719
v 0.17324936 -0.11151220 -0.25561655
v 0.19320187 -0.11151220 -0.25153661
v 0.40577599 -0.11147691 -0.00353204
v 0.41408253 -0.11147691 0.01079448
v 0.41663623 -0.11147691 0.01552846
v 0.42188391 -0.11147691 0.02533902
v 0.42337126 -0.10597228 0.02533902
v 0.42805770 -0.08508287 0.02533902
v 0.43493301 -0.08642375 0.04007043
v 0.43866533 -0.06496978 0.04007043
v 0.44511974 -0.06595778 0.05480182
v 0.44756120 -0.06631064 0.06084388
v 0.37288663 0.17635217 -0.01751597
v 0.40350291 0.14565322 0.01082563
v 0.39491576 0.14565322 -0.00350089
v 0.38579541 0.14565322 -0.01751597
v 0.38110897 0.15782696 -0.01751597
v 0.42828220 0.14565322 0.06084388
v 0.42572850 0.14565322 0.05483297
v 0.41099563 0.14565322 0.02446697
v 0.42438149 0.12871587 0.04007043
v 0.41767454 0.12666929 0.02533902
v 0.41049051 0.12448154 0.01079448
v 0.40389580 0.14448878 0.01079448
v 0.35588071 0.19018435 -0.03118846
v 0.34763029 0.18577358 -0.04445607
v 0.33912733 0.18125695 -0.05728765
v 0.19084460 0.11435442 -0.25243980
v 0.19047979 0.11414270 -0.25290698
v 0.18464276 0.12335239 -0.25290698
v 0.33039987 0.17656389 -0.06965207
v 0.19654131 0.10503887 -0.25200379
v 0.17695361 0.13115062 -0.25461996
v 0.17030278 0.13968986 -0.25461996
v 0.17080791 0.14011329 -0.25402820
v 0.18422183 0.12303481 -0.25343645
v 0.18371670 0.12271723 -0.25402820
v 0.18318352 0.12236437 -0.25461996
v 0.16586889 0.14590023 -0.25402820
v 0.16586889 0.13609068 -0.25714266
v 0.17246361 0.12790430 -0.25711149
v 0.17855319 0.11925919 -0.25711149
v 0.17759906 0.11865933 -0.25726724
v 0.17661686 0.11802418 -0.25732952
v 0.18220133 0.10920264 -0.25732952
v 0.18837509 0.10066339 -0.25726724
v 0.19308960 0.09131256 -0.25726724
v 0.19732706 0.08171473 -0.25726724
v 0.20111552 0.07190518 -0.25726724
v 0.20439884 0.06202506 -0.25726724
v 0.20717703 0.05193323 -0.25726724
v 0.20947817 0.04173553 -0.25726724
v 0.21220022 0.00895470 -0.25729838
v 0.21242473 0.00002731 -0.25729838
v 0.21217218 -0.01041739 -0.25729838
v 0.21138641 -0.02079152 -0.25729838
v 0.21012360 -0.03116565 -0.25729838
v 0.20832759 -0.04143392 -0.25729838
v 0.20605452 -0.05159633 -0.25729838
v 0.20327634 -0.06165288 -0.25729838
v 0.20002106 -0.07149771 -0.25729838
v 0.19626069 -0.08127198 -0.25729838
v 0.19205129 -0.09079924 -0.25729838
v 0.18736485 -0.10011478 -0.25729838
v 0.18107882 -0.11151220 -0.25729838
v 0.19289318 -0.11151220 -0.25200379
v 0.39696434 -0.11147691 -0.01751597
v 0.40114567 -0.11147691 -0.01091331
v 0.40832970 -0.10219666 -0.00353204
v 0.41610304 -0.10417269 0.01079448
v 0.42070529 -0.08360086 0.01079448
v 0.42432535 -0.06285261 0.01079448
v 0.43173391 -0.06394649 0.02533902
v 0.44135934 -0.04337466 0.04007043
v 0.44781375 -0.04400980 0.05480182
v 0.45028326 -0.04425681 0.06084388
v 0.37283051 0.15440419 -0.03118846
v 0.36477655 0.17250599 -0.03118846
v 0.39637503 0.14177176 -0.00350089
v 0.38837719 0.13891357 -0.01751597
v 0.37619802 0.14565322 -0.03118846
v 0.43296865 0.13132706 0.06084388
v 0.43063945 0.13062133 0.05483297
v 0.43019044 0.10772062 0.04007043
v 0.42337126 0.10602689 0.02533902
v 0.41610304 0.10419200 0.01079448
v 0.40282941 0.12218794 -0.00350089
v 0.35632971 0.16851866 -0.04445607
v 0.34760225 0.16439018 -0.05728765
v 0.33867833 0.16015583 -0.06965207
v 0.19620456 0.10486244 -0.25243980
v 0.18952566 0.11357813 -0.25402820
v 0.19583973 0.10465073 -0.25290698
v 0.19539073 0.10440372 -0.25343645
v 0.19488561 0.10412143 -0.25402820
v 0.20114356 0.09512347 -0.25243980
v 0.16909610 0.13873714 -0.25571001
v 0.17569080 0.13026847 -0.25571001
v 0.16586889 0.14374778 -0.25514939
v 0.16586889 0.14441821 -0.25483793
v 0.16586889 0.14484164 -0.25461996
v 0.18256614 0.12194094 -0.25514939
v 0.18896441 0.11322526 -0.25461996
v 0.18831897 0.11287240 -0.25514939
v 0.16586889 0.13803142 -0.25689352
v 0.16685109 0.13686699 -0.25689352
v 0.17336160 0.12853944 -0.25689352
v 0.17945118 0.11989434 -0.25689352
v 0.18419376 0.11036708 -0.25711149
v 0.18321158 0.10973193 -0.25726724
v 0.18938535 0.10115740 -0.25711149
v 0.19412792 0.09173600 -0.25711149
v 0.19839343 0.08217345 -0.25711149
v 0.20218189 0.07232862 -0.25711149
v 0.20546521 0.06234264 -0.25711149
v 0.20827147 0.05225080 -0.25711149
v 0.21057260 0.04191196 -0.25711149
v 0.21239668 0.03153783 -0.25711149
v 0.21127418 0.03136140 -0.25726724
v 0.21256505 0.02095199 -0.25726724
v 0.21332273 0.01050729 -0.25726724
v 0.21357530 0.00002731 -0.25726724
v 0.21332273 -0.01045268 -0.25726724
v 0.21256505 -0.02093267 -0.25726724
v 0.21127418 -0.03130680 -0.25726724
v 0.20947817 -0.04164563 -0.25726724
v 0.20717703 -0.05187862 -0.25726724
v 0.20439884 -0.06197046 -0.25726724
v 0.20111552 -0.07192115 -0.25726724
v 0.19732706 -0.08169541 -0.25726724
v 0.19308960 -0.09129325 -0.25726724
v 0.18837509 -0.10064407 -0.25726724
v 0.18321158 -0.10978319 -0.25726724
v 0.18211713 -0.11151220 -0.25726724
v 0.34993142 -0.11147691 -0.07815454
v 0.35759252 -0.11147691 -0.06965207
v 0.36797568 -0.11147691 -0.05731879
v 0.37799403 -0.11147691 -0.04445607
v 0.38767561 -0.11147691 -0.03118846
v 0.19247223 -0.11151220 -0.25243980
v 0.19654131 -0.10501955 -0.25200379
v 0.40007928 -0.10011478 -0.01751597
v 0.41287583 -0.08201298 -0.00353204
v 0.41641170 -0.06168817 -0.00353204
v 0.42690712 -0.04196321 0.01079448
v 0.43437177 -0.04266893 0.02533902
v 0.43597132 -0.02132081 0.02533902
v 0.44295892 -0.02167368 0.04007043
v 0.44949752 -0.02199125 0.05480182
v 0.45193896 -0.02209711 0.06084388
v 0.36418724 0.15084028 -0.04445607
v 0.36965942 0.14565322 -0.03987781
v 0.37990227 0.13591425 -0.03118846
v 0.39469126 0.11968262 -0.01751597
v 0.38610411 0.11707145 -0.03118846
v 0.37114674 0.13270321 -0.04445607
v 0.43888986 0.10990836 0.06084388
v 0.43650454 0.10927321 0.05483297
v 0.44135934 0.08774866 0.05483297
v 0.43496108 0.08651365 0.04007043
v 0.42805770 0.08510220 0.02533902
v 0.42070529 0.08365547 0.01079448
v 0.40832970 0.10221598 -0.00350089
v 0.41287583 0.08206759 -0.00350089
v 0.40010735 0.10016939 -0.01751597
v 0.35526332 0.14713526 -0.05728765
v 0.35172743 0.14565322 -0.06208392
v 0.34510466 0.14565322 -0.06965207
v 0.20075069 0.09494704 -0.25290698
v 0.20027363 0.09473532 -0.25343645
v 0.19974044 0.09441774 -0.25402820
v 0.19915113 0.09417074 -0.25461996
v 0.19429630 0.10380386 -0.25461996
v 0.20557746 0.08510220 -0.25243980
v 0.16839452 0.13817257 -0.25614601
v 0.16586889 0.14166591 -0.25599030
v 0.16586889 0.14247748 -0.25571001
v 0.17498924 0.12973918 -0.25614601
v 0.18186457 0.12151751 -0.25571001
v 0.19362280 0.10348628 -0.25514939
v 0.19292124 0.10309814 -0.25571001
v 0.18761741 0.11241367 -0.25571001
v 0.16586889 0.13958400 -0.25658205
v 0.16763684 0.13757271 -0.25658205
v 0.17420349 0.12910402 -0.25658205
v 0.18032113 0.12042363 -0.25658205
v 0.18601784 0.11146095 -0.25658205
v 0.18511984 0.11093166 -0.25689352
v 0.19033948 0.10168669 -0.25689352
v 0.19511011 0.09226529 -0.25689352
v 0.19940370 0.08252631 -0.25689352
v 0.20322020 0.07271677 -0.25689352
v 0.20653158 0.06273079 -0.25689352
v 0.20933786 0.05249780 -0.25689352
v 0.21166705 0.04212368 -0.25689352
v 0.21349111 0.03167898 -0.25689352
v 0.21368755 0.02105785 -0.25711149
v 0.21450137 0.00895470 -0.25711149
v 0.21472587 0.00002731 -0.25711149
v 0.21447331 -0.01052325 -0.25711149
v 0.21368755 -0.02103852 -0.25711149
v 0.21239668 -0.03148323 -0.25711149
v 0.21057260 -0.04185735 -0.25711149
v 0.20827147 -0.05216090 -0.25711149
v 0.20546521 -0.06232332 -0.25711149
v 0.20218189 -0.07230930 -0.25711149
v 0.19839343 -0.08215412 -0.25711149
v 0.19412792 -0.09178725 -0.25711149
v 0.18938535 -0.10117336 -0.25711149
v 0.18419376 -0.11034776 -0.25711149
v 0.18346414 -0.11151220 -0.25711149
v 0.20114356 -0.09510414 -0.25243980
v 0.20557746 -0.08511816 -0.25243980
v 0.20984298 -0.07506162 -0.25200379
v 0.21326661 -0.06465220 -0.25200379
v 0.35849053 -0.10865402 -0.06965207
v 0.37297082 -0.09333985 -0.05731879
v 0.38231567 -0.09570400 -0.04445607
v 0.39137989 -0.09792703 -0.03118846
v 0.19137779 -0.11151220 -0.25346759
v 0.19539073 -0.10441969 -0.25346759
v 0.19620456 -0.10484312 -0.25243980
v 0.39572960 -0.07862552 -0.03118846
v 0.40451318 -0.08038983 -0.01751597
v 0.40799293 -0.06041786 -0.01751597
v 0.41893736 -0.04118691 -0.00353204
v 0.42048079 -0.02057981 -0.00353204
v 0.42847863 -0.02096795 0.01079448
v 0.43650454 0.00006259 0.02533902
v 0.44352019 0.00006259 0.04007043
v 0.45003068 0.00006259 0.05480182
v 0.45252827 0.00006259 0.06084388
v 0.36617967 0.14565322 -0.04445607
v 0.35689095 0.14565322 -0.05597958
v 0.39140794 0.09798165 -0.03118846
v 0.37715214 0.11435442 -0.04445607
v 0.36797568 0.11153153 -0.05725650
v 0.36205447 0.12952746 -0.05725650
v 0.44088230 0.10108683 0.06084388
v 0.44374466 0.08820738 0.06084388
v 0.44478300 0.07194047 0.05642134
v 0.44511974 0.06604768 0.05480182
v 0.43748671 0.07194047 0.04007043
v 0.43173391 0.06407166 0.02533902
v 0.42432535 0.06294250 0.01079448
v 0.41641170 0.06181335 -0.00353204
v 0.40451318 0.08044443 -0.01751597
v 0.39572960 0.07868012 -0.03118846
v 0.35509494 0.14565322 -0.05815970
v 0.35273769 0.12614000 -0.06965207
v 0.34611493 0.14332435 -0.06965207
v 0.20467946 0.08478463 -0.25343645
v 0.20414627 0.08453763 -0.25402820
v 0.19847763 0.09385317 -0.25514939
v 0.20352890 0.08429062 -0.25461996
v 0.20984298 0.07508094 -0.25200379
v 0.20950623 0.07493979 -0.25243980
v 0.20908529 0.07479865 -0.25290698
v 0.18113494 0.12102350 -0.25614601
v 0.19774801 0.09346502 -0.25571001
v 0.19213548 0.10267471 -0.25614601
v 0.18685971 0.11195496 -0.25614601
v 0.19126554 0.10221598 -0.25658205
v 0.19606423 0.09272401 -0.25658205
v 0.20035782 0.08298504 -0.25658205
v 0.20420240 0.07303434 -0.25658205
v 0.20754185 0.06301308 -0.25658205
v 0.21034810 0.05270952 -0.25658205
v 0.21270536 0.04233539 -0.25658205
v 0.21452942 0.03185541 -0.25658205
v 0.21478200 0.02119899 -0.25689352
v 0.21556774 0.01061315 -0.25689352
v 0.21545550 0.00895470 -0.25692463
v 0.21582031 0.00002731 -0.25689352
v 0.21556774 -0.01059382 -0.25689352
v 0.21478200 -0.02114438 -0.25689352
v 0.21349111 -0.03165966 -0.25689352
v 0.21166705 -0.04210436 -0.25689352
v 0.20933786 -0.05240791 -0.25689352
v 0.20653158 -0.06264089 -0.25689352
v 0.20322020 -0.07269745 -0.25689352
v 0.19940370 -0.08257757 -0.25689352
v 0.19511011 -0.09224597 -0.25689352
v 0.19033948 -0.10170266 -0.25689352
v 0.18478307 -0.11151220 -0.25689352
v 0.20075069 -0.09492771 -0.25290698
v 0.20467946 -0.08476530 -0.25346759
v 0.20860822 -0.07460290 -0.25346759
v 0.20950623 -0.07492048 -0.25243980
v 0.21250892 -0.06444049 -0.25290698
v 0.21582031 -0.05403107 -0.25243980
v 0.36337343 -0.09090510 -0.06965207
v 0.36741441 -0.07297973 -0.06965207
v 0.37709603 -0.07492048 -0.05731879
v 0.38655311 -0.07682592 -0.04445607
v 0.19070429 -0.11151220 -0.25402820
v 0.19488561 -0.10413741 -0.25402820
v 0.20027363 -0.09468071 -0.25346759
v 0.39912516 -0.05911228 -0.03118846
v 0.41046244 -0.04034005 -0.01751597
v 0.41194975 -0.02015637 -0.01751597
v 0.41248295 0.00006259 -0.01751597
v 0.42098591 0.00006259 -0.00353204
v 0.42898375 0.00006259 0.01079448
v 0.42847863 0.02105785 0.01079448
v 0.43597132 0.02144599 0.02533902
v 0.44295892 0.02179886 0.04007043
v 0.44949752 0.02211643 0.05480182
v 0.45193896 0.02222229 0.06084388
v 0.38231567 0.09572333 -0.04445607
v 0.38655311 0.07684524 -0.04445607
v 0.35849053 0.10870863 -0.06965207
v 0.37297082 0.09335916 -0.05725650
v 0.36337343 0.09099499 -0.06965207
v 0.44756120 0.06643583 0.06084388
v 0.45028326 0.04438199 0.06084388
v 0.44781375 0.04413499 0.05480182
v 0.44135934 0.04349983 0.04007043
v 0.43866533 0.06513024 0.04007043
v 0.43437177 0.04279411 0.02533902
v 0.42690712 0.04205310 0.01079448
v 0.40799293 0.06054305 -0.01751597
v 0.41893736 0.04127681 -0.00353204
v 0.41046244 0.04046523 -0.01751597
v 0.39690822 0.07194047 -0.03118846
v 0.21326661 0.06474210 -0.25200379
v 0.20860822 0.07458693 -0.25343645
v 0.20804697 0.07437521 -0.25402820
v 0.20285539 0.08397304 -0.25514939
v 0.20209770 0.08365547 -0.25571001
v 0.20740153 0.07416350 -0.25461996
v 0.20672803 0.07395178 -0.25514939
v 0.21250892 0.06453038 -0.25290698
v 0.19693419 0.09307687 -0.25614601
v 0.20125583 0.08333790 -0.25614601
v 0.20510039 0.07338721 -0.25614601
v 0.20846790 0.06329536 -0.25614601
v 0.21130222 0.05295652 -0.25614601
v 0.21363142 0.04251182 -0.25614601
v 0.21548355 0.03199655 -0.25614601
v 0.21680251 0.02137542 -0.25614601
v 0.21582031 0.02126956 -0.25658205
v 0.21660605 0.01064843 -0.25658205
v 0.21649382 0.00895470 -0.25664434
v 0.21688668 0.00002731 -0.25658205
v 0.21660605 -0.01062911 -0.25658205
v 0.21582031 -0.02125024 -0.25658205
v 0.21452942 -0.03180080 -0.25658205
v 0.21270536 -0.04231607 -0.25658205
v 0.21034810 -0.05265491 -0.25658205
v 0.20754185 -0.06292318 -0.25658205
v 0.20420240 -0.07305031 -0.25658205
v 0.20035782 -0.08296572 -0.25658205
v 0.19606423 -0.09270468 -0.25658205
v 0.19126554 -0.10219666 -0.25658205
v 0.18598977 -0.11151220 -0.25658205
v 0.20414627 -0.08455358 -0.25402820
v 0.20804697 -0.07439117 -0.25402820
v 0.21144255 -0.06412292 -0.25402820
v 0.21200380 -0.06429935 -0.25346759
v 0.21489424 -0.05381936 -0.25346759
v 0.21820563 -0.04340994 -0.25243980
v 0.21857044 -0.04348052 -0.25200379
v 0.37055743 -0.05487794 -0.06965207
v 0.38032323 -0.05632468 -0.05731879
v 0.38986450 -0.05773611 -0.04445607
v 0.18994659 -0.11151220 -0.25461996
v 0.19429630 -0.10381982 -0.25461996
v 0.19915113 -0.09415142 -0.25461996
v 0.19974044 -0.09443371 -0.25402820
v 0.39224982 -0.03854045 -0.04445607
v 0.40153855 -0.03945789 -0.03118846
v 0.40302587 -0.01973294 -0.03118846
v 0.40353099 0.00006259 -0.03118846
v 0.40302587 0.01982283 -0.03118846
v 0.41194975 0.02024627 -0.01751597
v 0.42048079 0.02066970 -0.00353204
v 0.37709603 0.07501037 -0.05725650
v 0.39912516 0.05923746 -0.03118846
v 0.38986450 0.05786130 -0.04445607
v 0.37762922 0.07194047 -0.05731879
v 0.36744249 0.07306962 -0.06965207
v 0.21582031 0.05408568 -0.25243980
v 0.40153855 0.03958307 -0.03118846
v 0.21144255 0.06421281 -0.25402820
v 0.20594227 0.07370478 -0.25571001
v 0.21079710 0.06396580 -0.25461996
v 0.21009554 0.06375408 -0.25514939
v 0.20930979 0.06354237 -0.25571001
v 0.21539937 0.05397982 -0.25290698
v 0.21489424 0.05387396 -0.25343645
v 0.21433300 0.05373282 -0.25402820
v 0.21217218 0.05320353 -0.25571001
v 0.21452942 0.04268825 -0.25571001
v 0.21635351 0.03210241 -0.25571001
v 0.21767244 0.02148128 -0.25571001
v 0.21848625 0.01075429 -0.25571001
v 0.21758825 0.01071901 -0.25614601
v 0.21761632 0.00895470 -0.25617719
v 0.21666218 0.00895470 -0.25658205
v 0.21784082 0.00002731 -0.25617719
v 0.21758825 -0.01066440 -0.25617719
v 0.21680251 -0.02132081 -0.25617719
v 0.21548355 -0.03194194 -0.25617719
v 0.21363142 -0.04249250 -0.25617719
v 0.21130222 -0.05290192 -0.25617719
v 0.20846790 -0.06320547 -0.25617719
v 0.20510039 -0.07336788 -0.25617719
v 0.20125583 -0.08331858 -0.25617719
v 0.19693419 -0.09312811 -0.25617719
v 0.19213548 -0.10265538 -0.25617719
v 0.18716840 -0.11151220 -0.25614601
v 0.20352890 -0.08427130 -0.25461996
v 0.20740153 -0.07414417 -0.25461996
v 0.21079710 -0.06391120 -0.25461996
v 0.21368755 -0.05350178 -0.25461996
v 0.21433300 -0.05367821 -0.25402820
v 0.21727955 -0.04319823 -0.25346759
v 0.21966489 -0.03257710 -0.25290698
v 0.22008583 -0.03261238 -0.25243980
v 0.22176957 -0.02181482 -0.25200379
v 0.37277439 -0.03663500 -0.06965207
v 0.38265240 -0.03758772 -0.05731879
v 0.18907666 -0.11151220 -0.25514939
v 0.19362280 -0.10346696 -0.25514939
v 0.19847763 -0.09383385 -0.25514939
v 0.20285539 -0.08398901 -0.25514939
v 0.39368102 -0.01927422 -0.04445607
v 0.39415807 0.00006259 -0.04445607
v 0.39368102 0.01936411 -0.04445607
v 0.39224982 0.03866563 -0.04445607
v 0.38032323 0.05644985 -0.05731879
v 0.38265240 0.03771291 -0.05731879
v 0.37055743 0.05500312 -0.06965207
v 0.22008583 0.03266699 -0.25243980
v 0.21857044 0.04349983 -0.25200379
v 0.21820563 0.04342926 -0.25243980
v 0.21778469 0.04335869 -0.25290698
v 0.21368755 0.05355639 -0.25461996
v 0.21295792 0.05337996 -0.25514939
v 0.21727955 0.04325283 -0.25343645
v 0.21669024 0.04314698 -0.25402820
v 0.21604481 0.04304112 -0.25461996
v 0.21531518 0.04289997 -0.25514939
v 0.21716732 0.03224355 -0.25514939
v 0.21848625 0.02155185 -0.25514939
v 0.21930006 0.01078958 -0.25514939
v 0.21955264 0.00002731 -0.25514939
v 0.21873882 0.00002731 -0.25567886
v 0.21848625 -0.01073497 -0.25567886
v 0.21767244 -0.02142667 -0.25567886
v 0.21635351 -0.03208309 -0.25567886
v 0.21452942 -0.04266893 -0.25567886
v 0.21217218 -0.05311363 -0.25567886
v 0.20930979 -0.06341718 -0.25567886
v 0.20594227 -0.07365017 -0.25567886
v 0.20209770 -0.08367144 -0.25567886
v 0.19774801 -0.09348099 -0.25567886
v 0.19292124 -0.10307881 -0.25567886
v 0.18815058 -0.11151220 -0.25567886
v 0.20672803 -0.07393245 -0.25514939
v 0.21009554 -0.06366418 -0.25514939
v 0.21295792 -0.05332535 -0.25514939
v 0.21531518 -0.04281007 -0.25514939
v 0.21604481 -0.04295122 -0.25461996
v 0.21669024 -0.04309237 -0.25402820
v 0.21854238 -0.03240067 -0.25402820
v 0.21913169 -0.03247124 -0.25346759
v 0.22047870 -0.02170897 -0.25346759
v 0.22140476 -0.02177954 -0.25243980
v 0.22224665 -0.01091141 -0.25243980
v 0.37414944 -0.01832149 -0.06965207
v 0.38402748 -0.01878021 -0.05731879
v 0.38450456 0.00006259 -0.05731879
v 0.38402748 0.01890539 -0.05731879
v 0.37414944 0.01841139 -0.06965207
v 0.37277439 0.03676018 -0.06965207
v 0.22176957 0.02186943 -0.25200379
v 0.22140476 0.02183414 -0.25243980
v 0.22098383 0.02179886 -0.25290698
v 0.21966489 0.03259642 -0.25290698
v 0.21854238 0.03245527 -0.25402820
v 0.21789694 0.03234942 -0.25461996
v 0.21924394 0.02162243 -0.25461996
v 0.22002970 0.01082486 -0.25461996
v 0.22008583 0.00895470 -0.25461996
v 0.22031033 0.00002731 -0.25461996
v 0.21930006 -0.01077025 -0.25514939
v 0.21848625 -0.02149724 -0.25514939
v 0.21716732 -0.03218894 -0.25514939
v 0.21789694 -0.03229480 -0.25461996
v 0.21924394 -0.02156781 -0.25461996
v 0.21988939 -0.02163839 -0.25402820
v 0.22070320 -0.01084083 -0.25402820
v 0.22129251 -0.01087611 -0.25346759
v 0.22207826 0.00002731 -0.25290698
v 0.22249921 0.00002731 -0.25243980
v 0.22286402 0.00002731 -0.25200379
v 0.37459844 0.00006259 -0.06965207
v 0.22224665 0.01093072 -0.25243980
v 0.22129251 0.01089544 -0.25343645
v 0.22047870 0.02172828 -0.25343645
v 0.21988939 0.02169300 -0.25402820
v 0.22070320 0.01086015 -0.25402820
v 0.22061901 0.00895470 -0.25415277
v 0.22095576 0.00002731 -0.25402820
v 0.22002970 -0.01080554 -0.25461996
v 0.22154507 0.00002731 -0.25346759
v 0.22134864 0.00895470 -0.25346759
f 1 2 10
f 1 10 37
f 1 37 68
f 1 68 100
f 1 100 144
f 1 144 208
f 1 208 282
f 1 282 364
f 1 364 441
f 1 441 448
f 1 448 447
f 1 447 372
f 1 372 371
f 1 371 289
f 1 289 214
f 1 214 150
f 1 150 105
f 1 105 74
f 1 74 73
f 1 73 43
f 1 43 38
f 1 38 11
f 1 11 3
f 1 3 4
f 1 4 5
f 1 5 6
f 1 6 7
f 1 7 2
f 2 7 8
f 2 8 9
f 2 9 10
f 3 11 4
f 4 12 5
f 4 11 13
f 4 13 12
f 5 12 14
f 5 14 15
f 5 15 6
f 6 16 46
f 6 46 60
f 6 60 59
f 6 59 58
f 6 58 57
f 6 57 56
f 6 56 55
f 6 55 34
f 6 34 8
f 6 8 7
f 6 15 17
f 6 17 18
f 6 18 19
f 6 19 20
f 6 20 21
f 6 21 22
f 6 22 23
f 6 23 24
f 6 24 25
f 6 25 26
f 6 26 27
f 6 27 28
f 6 28 29
f 6 29 30
f 6 30 31
f 6 31 32
f 6 32 33
f 6 33 16
f 8 34 33
f 8 33 63
f 8 63 87
f 8 87 122
f 8 122 171
f 8 171 233
f 8 233 232
f 8 232 231
f 8 231 309
f 8 309 308
f 8 308 315
f 8 315 237
f 8 237 172
f 8 172 123
f 8 123 89
f 8 89 65
f 8 65 35
f 8 35 9
f 9 35 64
f 9 64 88
f 9 88 94
f 9 94 93
f 9 93 92
f 9 92 91
f 9 91 90
f 9 90 133
f 9 133 132
f 9 132 131
f 9 131 130
f 9 130 129
f 9 129 128
f 9 128 127
f 9 127 197
f 9 197 266
f 9 266 343
f 9 343 417
f 9 417 488
f 9 488 544
f 9 544 592
f 9 592 556
f 9 556 499
f 9 499 428
f 9 428 352
f 9 352 272
f 9 272 198
f 9 198 134
f 9 134 95
f 9 95 66
f 9 66 36
f 9 36 10
f 10 36 37
f 11 38 13
f 12 13 39
f 12 39 40
f 12 40 41
f 12 41 42
f 12 42 14
f 13 38 43
f 13 43 44
f 13 44 45
f 13 45 39
f 14 42 17
f 14 17 15
f 16 33 46
f 17 42 18
f 18 42 19
f 19 42 47
f 19 47 48
f 19 48 20
f 20 48 21
f 21 48 49
f 21 49 22
f 22 49 23
f 23 49 50
f 23 50 24
f 24 50 51
f 24 51 52
f 24 52 53
f 24 53 25
f 25 53 26
f 26 53 54
f 26 54 27
f 27 54 33
f 27 33 28
f 28 33 29
f 29 33 30
f 30 33 31
f 31 33 32
f 33 34 55
f 33 55 56
f 33 56 57
f 33 57 58
f 33 58 59
f 33 59 60
f 33 60 46
f 33 54 61
f 33 61 62
f 33 62 63
f 35 65 64
f 36 66 37
f 37 66 67
f 37 67 68
f 39 45 40
f 40 69 70
f 40 70 41
f 40 45 71
f 40 71 72
f 40 72 69
f 41 70 42
f 42 70 47
f 43 73 44
f 44 73 74
f 44 74 75
f 44 75 45
f 45 75 76
f 45 76 77
f 45 77 71
f 47 70 48
f 48 78 49
f 48 70 79
f 48 79 78
f 49 78 80
f 49 80 50
f 50 80 51
f 51 80 81
f 51 81 52
f 52 82 54
f 52 54 53
f 52 81 83
f 52 83 84
f 52 84 82
f 54 82 85
f 54 85 61
f 61 85 62
f 62 85 86
f 62 86 63
f 63 86 87
f 64 65 88
f 65 89 90
f 65 90 91
f 65 91 92
f 65 92 93
f 65 93 94
f 65 94 88
f 66 95 67
f 67 96 97
f 67 97 68
f 67 95 98
f 67 98 96
f 68 97 99
f 68 99 100
f 69 72 101
f 69 101 70
f 70 101 79
f 71 77 72
f 72 102 101
f 72 77 103
f 72 103 104
f 72 104 102
f 74 105 106
f 74 106 75
f 75 106 107
f 75 107 76
f 76 107 77
f 77 107 108
f 77 108 109
f 77 109 110
f 77 110 103
f 78 79 111
f 78 111 80
f 79 101 112
f 79 112 111
f 80 111 113
f 80 113 114
f 80 114 81
f 81 114 115
f 81 115 83
f 82 84 116
f 82 116 85
f 83 115 84
f 84 115 117
f 84 117 118
f 84 118 116
f 85 119 86
f 85 116 162
f 85 162 119
f 86 119 120
f 86 120 121
f 86 121 122
f 86 122 87
f 89 123 124
f 89 124 125
f 89 125 176
f 89 176 177
f 89 177 126
f 89 126 127
f 89 127 128
f 89 128 129
f 89 129 130
f 89 130 131
f 89 131 132
f 89 132 133
f 89 133 90
f 95 134 135
f 95 135 136
f 95 136 137
f 95 137 138
f 95 138 98
f 96 98 138
f 96 138 139
f 96 139 140
f 96 140 141
f 96 141 99
f 96 99 97
f 99 141 142
f 99 142 143
f 99 143 144
f 99 144 100
f 101 102 145
f 101 145 112
f 102 104 145
f 103 110 146
f 103 146 147
f 103 147 104
f 104 147 148
f 104 148 149
f 104 149 145
f 105 150 151
f 105 151 106
f 106 151 107
f 107 152 108
f 107 151 153
f 107 153 154
f 107 154 152
f 108 152 109
f 109 152 155
f 109 155 156
f 109 156 110
f 110 156 146
f 111 112 157
f 111 157 113
f 112 145 157
f 113 157 114
f 114 157 158
f 114 158 159
f 114 159 115
f 115 159 117
f 116 118 160
f 116 160 161
f 116 161 162
f 117 159 163
f 117 163 118
f 118 164 160
f 118 163 164
f 119 162 120
f 120 165 166
f 120 166 167
f 120 167 121
f 120 162 168
f 120 168 169
f 120 169 170
f 120 170 165
f 121 167 171
f 121 171 122
f 123 172 124
f 124 173 174
f 124 174 175
f 124 175 125
f 124 172 173
f 125 175 176
f 126 177 242
f 126 242 178
f 126 178 179
f 126 179 180
f 126 180 181
f 126 181 182
f 126 182 183
f 126 183 184
f 126 184 185
f 126 185 186
f 126 186 187
f 126 187 188
f 126 188 189
f 126 189 190
f 126 190 191
f 126 191 192
f 126 192 193
f 126 193 194
f 126 194 195
f 126 195 196
f 126 196 197
f 126 197 127
f 134 198 199
f 134 199 200
f 134 200 135
f 135 200 201
f 135 201 202
f 135 202 136
f 136 202 137
f 137 202 138
f 138 202 139
f 139 202 140
f 140 203 204
f 140 204 205
f 140 205 142
f 140 142 141
f 140 202 203
f 142 205 206
f 142 206 143
f 143 206 207
f 143 207 208
f 143 208 144
f 145 149 209
f 145 209 210
f 145 210 157
f 146 156 211
f 146 211 147
f 147 211 212
f 147 212 148
f 148 212 213
f 148 213 209
f 148 209 149
f 150 214 151
f 151 214 215
f 151 215 153
f 152 154 155
f 153 216 154
f 153 215 216
f 154 216 217
f 154 217 218
f 154 218 155
f 155 218 219
f 155 219 211
f 155 211 156
f 157 210 220
f 157 220 158
f 158 220 159
f 159 220 221
f 159 221 222
f 159 222 163
f 160 164 223
f 160 223 225
f 160 225 161
f 161 224 162
f 161 225 226
f 161 226 227
f 161 227 224
f 162 224 168
f 163 222 228
f 163 228 164
f 164 228 223
f 165 229 166
f 165 170 230
f 165 230 229
f 166 231 232
f 166 232 233
f 166 233 171
f 166 171 167
f 166 229 231
f 168 224 169
f 169 224 170
f 170 234 230
f 170 224 235
f 170 235 236
f 170 236 234
f 172 237 238
f 172 238 239
f 172 239 173
f 173 239 240
f 173 240 174
f 174 240 241
f 174 241 175
f 175 241 242
f 175 242 177
f 175 177 176
f 178 243 179
f 178 242 241
f 178 241 243
f 179 243 244
f 179 244 245
f 179 245 180
f 180 245 181
f 181 245 246
f 181 246 182
f 182 246 247
f 182 247 248
f 182 248 183
f 183 248 184
f 184 249 250
f 184 250 251
f 184 251 185
f 184 248 249
f 185 251 252
f 185 252 253
f 185 253 186
f 186 253 254
f 186 254 255
f 186 255 187
f 187 255 256
f 187 256 188
f 188 256 189
f 189 256 257
f 189 257 258
f 189 258 190
f 190 258 191
f 191 258 259
f 191 259 260
f 191 260 192
f 192 260 261
f 192 261 193
f 193 261 194
f 194 261 262
f 194 262 263
f 194 263 195
f 195 263 196
f 196 263 264
f 196 264 197
f 197 264 265
f 197 265 266
f 198 267 268
f 198 268 269
f 198 269 270
f 198 270 271
f 198 271 199
f 198 272 273
f 198 273 267
f 199 271 274
f 199 274 200
f 200 274 201
f 201 274 275
f 201 275 202
f 202 275 203
f 203 275 204
f 204 275 276
f 204 276 277
f 204 277 278
f 204 278 205
f 205 278 206
f 206 278 279
f 206 279 280
f 206 280 281
f 206 281 207
f 207 281 208
f 208 281 282
f 209 283 220
f 209 220 210
f 209 213 284
f 209 284 283
f 211 219 212
f 212 285 213
f 212 219 286
f 212 286 287
f 212 287 285
f 213 285 288
f 213 288 284
f 214 289 215
f 215 289 290
f 215 290 216
f 216 291 292
f 216 292 217
f 216 290 291
f 217 292 293
f 217 293 294
f 217 294 218
f 218 295 219
f 218 294 296
f 218 296 295
f 219 295 297
f 219 297 286
f 220 283 221
f 221 283 298
f 221 298 222
f 222 298 299
f 222 299 300
f 222 300 228
f 223 228 225
f 224 227 235
f 225 228 301
f 225 301 226
f 226 301 227
f 227 301 302
f 227 302 303
f 227 303 304
f 227 304 305
f 227 305 235
f 228 306 301
f 228 300 306
f 229 307 308
f 229 308 309
f 229 309 231
f 229 230 310
f 229 310 307
f 230 234 311
f 230 311 310
f 234 236 311
f 235 305 236
f 236 305 312
f 236 312 313
f 236 313 314
f 236 314 311
f 237 315 316
f 237 316 238
f 238 316 239
f 239 317 318
f 239 318 240
f 239 316 317
f 240 319 320
f 240 320 241
f 240 318 319
f 241 320 321
f 241 321 243
f 243 321 322
f 243 322 244
f 244 322 245
f 245 323 324
f 245 324 246
f 245 322 323
f 246 324 325
f 246 325 247
f 247 325 248
f 248 325 326
f 248 326 327
f 248 327 249
f 249 327 250
f 250 328 403
f 250 403 329
f 250 329 252
f 250 252 251
f 250 327 328
f 252 329 253
f 253 330 331
f 253 331 254
f 253 329 330
f 254 331 332
f 254 332 255
f 255 332 256
f 256 332 333
f 256 333 334
f 256 334 257
f 257 334 258
f 258 334 335
f 258 335 336
f 258 336 259
f 259 336 260
f 260 337 338
f 260 338 261
f 260 336 337
f 261 338 339
f 261 339 262
f 262 339 263
f 263 340 264
f 263 339 340
f 264 340 341
f 264 341 265
f 265 341 342
f 265 342 343
f 265 343 266
f 267 273 268
f 268 273 344
f 268 344 345
f 268 345 346
f 268 346 347
f 268 347 348
f 268 348 269
f 269 348 349
f 269 349 270
f 270 349 350
f 270 350 271
f 271 350 351
f 271 351 274
f 272 352 353
f 272 353 354
f 272 354 273
f 273 354 344
f 274 351 355
f 274 355 356
f 274 356 275
f 275 356 357
f 275 357 276
f 276 357 358
f 276 358 277
f 277 358 359
f 277 359 360
f 277 360 279
f 277 279 278
f 279 360 361
f 279 361 362
f 279 362 280
f 280 362 281
f 281 362 363
f 281 363 364
f 281 364 282
f 283 284 365
f 283 365 366
f 283 366 298
f 284 288 365
f 285 287 288
f 286 297 367
f 286 367 287
f 287 367 368
f 287 368 288
f 288 368 369
f 288 369 370
f 288 370 365
f 289 371 290
f 290 371 291
f 291 372 373
f 291 373 374
f 291 374 292
f 291 371 372
f 292 374 375
f 292 375 376
f 292 376 293
f 293 376 294
f 294 376 377
f 294 377 378
f 294 378 296
f 295 296 297
f 296 378 379
f 296 379 297
f 297 379 380
f 297 380 367
f 298 381 299
f 298 366 370
f 298 370 381
f 299 381 382
f 299 382 383
f 299 383 300
f 300 383 306
f 301 306 384
f 301 384 302
f 302 384 385
f 302 385 303
f 303 385 304
f 304 386 312
f 304 312 305
f 304 385 387
f 304 387 461
f 304 461 386
f 306 388 389
f 306 389 390
f 306 390 384
f 306 383 388
f 307 316 308
f 307 310 316
f 308 316 315
f 310 311 391
f 310 391 317
f 310 317 316
f 311 314 391
f 312 386 313
f 313 386 392
f 313 392 393
f 313 393 394
f 313 394 314
f 314 394 391
f 317 391 318
f 318 391 319
f 319 391 394
f 319 394 393
f 319 393 395
f 319 395 320
f 320 395 321
f 321 395 322
f 322 395 396
f 322 396 397
f 322 397 323
f 323 397 324
f 324 398 399
f 324 399 325
f 324 397 398
f 325 399 326
f 326 399 400
f 326 400 401
f 326 401 327
f 327 401 328
f 328 401 402
f 328 402 403
f 329 403 404
f 329 404 330
f 330 404 405
f 330 405 331
f 331 406 407
f 331 407 332
f 331 405 406
f 332 407 408
f 332 408 333
f 333 408 409
f 333 409 334
f 334 409 410
f 334 410 335
f 335 410 336
f 336 410 411
f 336 411 412
f 336 412 337
f 337 412 338
f 338 413 339
f 338 412 413
f 339 413 414
f 339 414 340
f 340 415 416
f 340 416 341
f 340 414 415
f 341 416 342
f 342 416 417
f 342 417 343
f 344 354 353
f 344 353 418
f 344 418 345
f 345 419 420
f 345 420 421
f 345 421 346
f 345 418 419
f 346 421 347
f 347 421 422
f 347 422 423
f 347 423 348
f 348 423 424
f 348 424 349
f 349 424 425
f 349 425 426
f 349 426 427
f 349 427 350
f 350 427 355
f 350 355 351
f 352 428 429
f 352 429 353
f 353 429 430
f 353 430 418
f 355 427 431
f 355 431 357
f 355 357 356
f 357 431 432
f 357 432 358
f 358 432 359
f 359 432 433
f 359 433 434
f 359 434 435
f 359 435 360
f 360 435 436
f 360 436 361
f 361 436 437
f 361 437 438
f 361 438 362
f 362 438 439
f 362 439 440
f 362 440 363
f 363 440 364
f 364 440 441
f 365 370 366
f 367 442 368
f 367 380 443
f 367 443 442
f 368 442 369
f 369 444 370
f 369 442 445
f 369 445 446
f 369 446 444
f 370 444 382
f 370 382 381
f 372 447 373
f 373 447 374
f 374 447 448
f 374 448 449
f 374 449 450
f 374 450 451
f 374 451 375
f 375 451 376
f 376 451 450
f 376 450 452
f 376 452 377
f 377 452 453
f 377 453 378
f 378 454 379
f 378 453 455
f 378 455 456
f 378 456 454
f 379 454 457
f 379 457 380
f 380 457 443
f 382 444 458
f 382 458 388
f 382 388 383
f 384 390 459
f 384 459 385
f 385 459 460
f 385 460 387
f 386 461 462
f 386 462 392
f 387 460 463
f 387 463 464
f 387 464 461
f 388 458 389
f 389 458 465
f 389 465 390
f 390 465 459
f 392 466 393
f 392 462 467
f 392 467 466
f 393 466 396
f 393 396 395
f 396 466 467
f 396 467 397
f 397 467 468
f 397 468 398
f 398 468 469
f 398 469 399
f 399 469 470
f 399 470 400
f 400 470 401
f 401 471 472
f 401 472 402
f 401 470 471
f 402 472 473
f 402 473 474
f 402 474 403
f 403 474 404
f 404 475 476
f 404 476 406
f 404 406 405
f 404 474 475
f 406 477 407
f 406 476 477
f 407 477 478
f 407 478 479
f 407 479 408
f 408 479 480
f 408 480 409
f 409 480 481
f 409 481 410
f 410 481 411
f 411 482 483
f 411 483 412
f 411 481 482
f 412 483 413
f 413 484 414
f 413 483 484
f 414 484 485
f 414 485 486
f 414 486 415
f 415 486 416
f 416 486 487
f 416 487 488
f 416 488 417
f 418 430 419
f 419 489 420
f 419 430 489
f 420 489 490
f 420 490 491
f 420 491 492
f 420 492 422
f 420 422 421
f 422 492 493
f 422 493 423
f 423 425 424
f 423 493 550
f 423 550 494
f 423 494 495
f 423 495 425
f 425 495 496
f 425 496 426
f 426 496 497
f 426 497 427
f 427 497 498
f 427 498 431
f 428 499 429
f 429 500 501
f 429 501 502
f 429 502 430
f 429 499 500
f 430 502 489
f 431 498 503
f 431 503 504
f 431 504 432
f 432 504 505
f 432 505 433
f 433 505 434
f 434 505 506
f 434 506 507
f 434 507 508
f 434 508 509
f 434 509 435
f 435 509 437
f 435 437 436
f 437 509 453
f 437 453 438
f 438 453 452
f 438 452 450
f 438 450 439
f 439 450 440
f 440 450 449
f 440 449 448
f 440 448 441
f 442 443 510
f 442 510 445
f 443 457 511
f 443 511 512
f 443 512 513
f 443 513 510
f 444 446 458
f 445 510 514
f 445 514 446
f 446 514 515
f 446 515 458
f 453 509 455
f 454 511 457
f 454 456 511
f 455 509 456
f 456 509 508
f 456 508 507
f 456 507 516
f 456 516 511
f 458 515 465
f 459 465 517
f 459 517 460
f 460 517 463
f 461 464 462
f 462 464 518
f 462 518 468
f 462 468 467
f 463 517 519
f 463 519 464
f 464 519 520
f 464 520 521
f 464 521 518
f 465 515 522
f 465 522 523
f 465 523 524
f 465 524 517
f 468 518 469
f 469 521 525
f 469 525 470
f 469 518 521
f 470 525 526
f 470 526 471
f 471 526 472
f 472 527 528
f 472 528 473
f 472 526 527
f 473 528 529
f 473 529 530
f 473 530 475
f 473 475 474
f 475 530 531
f 475 531 532
f 475 532 476
f 476 532 477
f 477 533 534
f 477 534 478
f 477 532 531
f 477 531 533
f 478 534 535
f 478 535 479
f 479 535 480
f 480 536 481
f 480 535 536
f 481 536 537
f 481 537 538
f 481 538 482
f 482 538 483
f 483 539 484
f 483 538 539
f 484 540 541
f 484 541 485
f 484 539 540
f 485 541 542
f 485 542 486
f 486 542 543
f 486 543 487
f 487 543 488
f 488 543 544
f 489 545 490
f 489 502 501
f 489 501 545
f 490 545 546
f 490 546 547
f 490 547 491
f 491 547 548
f 491 548 549
f 491 549 492
f 492 549 493
f 493 549 550
f 494 550 551
f 494 551 552
f 494 552 495
f 495 552 496
f 496 552 553
f 496 553 554
f 496 554 555
f 496 555 497
f 497 555 498
f 498 555 503
f 499 556 500
f 500 557 558
f 500 558 501
f 500 556 557
f 501 558 559
f 501 559 545
f 503 555 560
f 503 560 505
f 503 505 504
f 505 560 506
f 506 560 561
f 506 561 562
f 506 562 507
f 507 562 563
f 507 563 516
f 510 513 514
f 511 516 563
f 511 563 512
f 512 564 513
f 512 563 565
f 512 565 564
f 513 564 514
f 514 564 566
f 514 566 567
f 514 567 568
f 514 568 515
f 515 568 569
f 515 569 570
f 515 570 522
f 517 524 571
f 517 571 519
f 519 571 520
f 520 571 572
f 520 572 525
f 520 525 521
f 522 570 573
f 522 573 523
f 523 573 524
f 524 573 574
f 524 574 575
f 524 575 571
f 525 572 576
f 525 576 526
f 526 576 577
f 526 577 527
f 527 577 528
f 528 578 529
f 528 577 578
f 529 531 530
f 529 578 579
f 529 579 580
f 529 580 581
f 529 581 533
f 529 533 531
f 533 581 582
f 533 582 534
f 534 582 535
f 535 582 583
f 535 583 584
f 535 584 536
f 536 584 585
f 536 585 537
f 537 585 538
f 538 586 539
f 538 585 586
f 539 586 587
f 539 587 588
f 539 588 540
f 540 588 589
f 540 589 541
f 541 589 542
f 542 590 591
f 542 591 543
f 542 589 590
f 543 591 592
f 543 592 544
f 545 559 593
f 545 593 546
f 546 593 547
f 547 594 548
f 547 593 594
f 548 594 595
f 548 595 596
f 548 596 597
f 548 597 549
f 549 597 598
f 549 598 550
f 550 598 599
f 550 599 600
f 550 600 551
f 551 600 601
f 551 601 552
f 552 601 602
f 552 602 553
f 553 602 603
f 553 603 554
f 554 603 604
f 554 604 555
f 555 604 605
f 555 605 560
f 556 592 591
f 556 591 557
f 557 591 558
f 558 591 590
f 558 590 559
f 559 589 593
f 559 590 589
f 560 605 606
f 560 606 561
f 561 606 562
f 562 607 565
f 562 565 563
f 562 606 607
f 564 565 566
f 565 607 608
f 565 608 609
f 565 609 566
f 566 609 610
f 566 610 567
f 567 610 611
f 567 611 612
f 567 612 613
f 567 613 570
f 567 570 569
f 567 569 568
f 570 613 573
f 571 575 576
f 571 576 572
f 573 613 614
f 573 614 574
f 574 614 615
f 574 615 575
f 575 615 577
f 575 577 576
f 577 615 616
f 577 616 578
f 578 616 579
f 579 616 617
f 579 617 618
f 579 618 619
f 579 619 580
f 580 619 620
f 580 620 581
f 581 620 582
f 582 620 621
f 582 621 583
f 583 621 622
f 583 622 584
f 584 622 585
f 585 622 596
f 585 596 595
f 585 595 586
f 586 595 594
f 586 594 587
f 587 594 593
f 587 593 588
f 588 593 589
f 596 622 597
f 597 622 623
f 597 623 598
f 598 623 599
f 599 623 624
f 599 624 625
f 599 625 601
f 599 601 600
f 601 625 626
f 601 626 627
f 601 627 603
f 601 603 602
f 603 627 628
f 603 628 629
f 603 629 630
f 603 630 631
f 603 631 604
f 604 631 606
f 604 606 605
f 606 631 608
f 606 608 607
f 608 631 632
f 608 632 609
f 609 632 610
f 610 632 611
f 611 632 612
f 612 632 633
f 612 633 634
f 612 634 613
f 613 634 635
f 613 635 614
f 614 635 616
f 614 616 615
f 616 635 636
f 616 636 617
f 617 636 637
f 617 637 618
f 618 637 619
f 619 638 626
f 619 626 639
f 619 639 620
f 619 637 638
f 620 639 624
f 620 624 621
f 621 624 622
f 622 624 623
f 624 639 626
f 624 626 625
f 626 638 627
f 627 638 640
f 627 640 628
f 628 640 641
f 628 641 632
f 628 632 629
f 629 632 630
f 630 632 631
f 632 641 633
f 633 641 636
f 633 636 635
f 633 635 634
f 636 641 637
f 637 641 638
f 638 641 640

