# https://github.com/mikedh/trimesh
v -0.35187528 -0.16501507 -0.05179170
v -0.35797313 -0.16501507 -0.04435579
v -0.35531622 -0.14715770 -0.05722563
v -0.35187528 -0.15489121 -0.05722563
v -0.27750319 0.01383986 -0.16006172
v -0.35187528 -0.16501507 -0.01412190
v -0.36424524 -0.15081353 -0.04435579
v -0.36463723 -0.16501507 -0.03573506
v -0.36211097 -0.12954639 -0.05722563
v -0.35187528 -0.14571644 -0.06188329
v -0.28137970 0.01383986 -0.15720175
v -0.27750319 0.02733835 -0.15932630
v -0.27750319 0.01383986 -0.11891910
v -0.35187528 -0.12852697 -0.06956433
v -0.35187528 -0.12589055 -0.07070831
v -0.35187528 -0.10669740 -0.07773565
v -0.35187528 -0.09499168 -0.08141275
v -0.35187528 -0.08810182 -0.08345558
v -0.35187528 -0.08286413 -0.08472213
v -0.35187528 -0.06992808 -0.08782724
v -0.45597443 -0.16501507 0.25169119
v -0.37286934 -0.15439907 -0.03111826
v -0.37999076 -0.13594411 -0.03111826
v -0.37121421 -0.13274525 -0.04435579
v -0.36818704 -0.16501507 -0.03111826
v -0.37726849 -0.11439575 -0.04435579
v -0.36801282 -0.11161871 -0.05722563
v -0.35853937 -0.10870107 -0.06956433
v -0.35276818 -0.12620692 -0.06956433
v -0.28553930 0.01383986 -0.15409665
v -0.28553930 0.01405078 -0.15409665
v -0.28449395 0.02800624 -0.15409665
v -0.27750319 0.04115320 -0.15805973
v -0.28277349 0.04192656 -0.15409665
v -0.27750319 0.19410089 -0.07152544
v -0.36343944 -0.09101947 -0.06956433
v -0.35363930 -0.08855880 -0.08141275
v -0.35758114 -0.07108811 -0.08141275
v -0.35187528 -0.05217617 -0.09121832
v -0.45662779 -0.16501507 0.25316203
v -0.37798718 -0.16501507 -0.01743129
v -0.38114500 -0.15784399 -0.01743129
v -0.38619751 -0.11713763 -0.03111826
v -0.38844064 -0.13893205 -0.01743129
v -0.38242990 -0.09576502 -0.04435579
v -0.37304357 -0.09340982 -0.05722563
v -0.29486030 0.01383986 -0.14694674
v -0.29442474 0.01450776 -0.14727360
v -0.29335761 0.02888505 -0.14727360
v -0.27750319 0.04797275 -0.15720175
v -0.28037789 0.05574141 -0.15409665
v -0.29157183 0.04322719 -0.14727360
v -0.27750319 0.19410089 -0.10694812
v -0.44488940 0.19410089 0.25308031
v -0.36746839 -0.07305664 -0.06956433
v -0.37062621 -0.05495320 -0.06956433
v -0.36063007 -0.05347680 -0.08141275
v -0.35268107 -0.03477577 -0.09268917
v -0.35187528 -0.04120865 -0.09268917
v -0.30376753 0.01383986 -0.13979684
v -0.36282966 -0.03576004 -0.08141275
v -0.45723757 -0.16501507 0.25418344
v -0.38730818 -0.16501507 -0.00341748
v -0.38902867 -0.16107801 -0.00341748
v -0.39473450 -0.11973889 -0.01743129
v -0.40013549 -0.10019422 -0.01743129
v -0.39144602 -0.09804992 -0.03111826
v -0.39641142 -0.14181454 -0.00341748
v -0.40290129 -0.12219957 -0.00341748
v -0.38665485 -0.07685308 -0.04435579
v -0.37715963 -0.07499001 -0.05722563
v -0.39577985 -0.07868101 -0.03111826
v -0.30374575 0.01492958 -0.13979684
v -0.30263507 0.02979901 -0.13979684
v -0.30080572 0.04459813 -0.13979684
v -0.27750319 0.05517897 -0.15626204
v -0.27750319 0.06948596 -0.15393323
v -0.27750319 0.06850170 -0.15409665
v -0.28908911 0.05749903 -0.14727360
v -0.28593129 0.07163025 -0.14727360
v -0.29825768 0.05932694 -0.13979684
v -0.27750319 0.18559402 -0.11344433
v -0.27752498 0.19410089 -0.10866410
v -0.44556451 0.19410089 0.25418344
v -0.38040456 -0.05639444 -0.05722563
v -0.38271302 -0.03765827 -0.05722563
v -0.37286934 -0.03674430 -0.06956433
v -0.35398775 -0.01741054 -0.09268917
v -0.35187528 -0.03467032 -0.09354715
v -0.31245697 0.01383986 -0.13248350
v -0.37424135 -0.01839480 -0.06956433
v -0.36415812 -0.01790267 -0.08141275
v -0.44582585 0.19410089 0.25455117
v -0.45793447 -0.16501507 0.25508228
v -0.39601943 -0.16501507 0.01092320
v -0.39638963 -0.16413626 0.01092320
v -0.40394664 -0.14452127 0.01092320
v -0.40838936 -0.10226820 -0.00341748
v -0.41294098 -0.08209078 -0.00341748
v -0.40457821 -0.08043862 -0.01743129
v -0.41054538 -0.12451962 0.01092320
v -0.41616413 -0.10423673 0.01092320
v -0.38994333 -0.05780054 -0.04435579
v -0.39915547 -0.05917148 -0.03111826
v -0.40804091 -0.06050726 -0.01743129
v -0.31341523 0.01538656 -0.13162552
v -0.31228274 0.03074812 -0.13162552
v -0.31038806 0.04603937 -0.13162552
v -0.27750319 0.07015385 -0.15381065
v -0.29499096 0.07388000 -0.13979684
v -0.28207660 0.08555056 -0.14727360
v -0.27750319 0.08417962 -0.15095069
v -0.30775291 0.06119002 -0.13162552
v -0.30437732 0.07623520 -0.13162552
v -0.27750319 0.18541826 -0.11356689
v -0.27931076 0.19410089 -0.10723412
v -0.39231715 -0.03860738 -0.04435579
v -0.38410681 -0.01888693 -0.05722563
v -0.35440153 -0.00001015 -0.09268917
v -0.35187528 -0.00001015 -0.09534484
v -0.35187528 -0.01730508 -0.09489542
v -0.36461544 -0.00001015 -0.08141275
v -0.32341135 0.01383986 -0.12288220
v -0.31345877 0.01383986 -0.13162552
v -0.38458595 -0.00001015 -0.05722563
v -0.37467691 -0.00001015 -0.06956433
v -0.44626141 0.19410089 0.25508228
v -0.45863137 -0.16501507 0.25573599
v -0.39837146 -0.16501507 0.01509057
v -0.41106805 -0.14705224 0.02546815
v -0.41095918 -0.14251760 0.02252647
v -0.42078108 -0.08367264 0.01092320
v -0.42439625 -0.06293277 0.01092320
v -0.41644725 -0.06173760 -0.00341748
v -0.41629481 -0.12624207 0.02252647
v -0.42200065 -0.10567798 0.02252647
v -0.40161639 -0.03952134 -0.03111826
v -0.41899529 -0.04124380 -0.00341748
v -0.41050184 -0.04040014 -0.01743129
v -0.32334602 0.01587870 -0.12288220
v -0.32217002 0.03173238 -0.12288220
v -0.32023174 0.04748062 -0.12288220
v -0.31750950 0.06315854 -0.12288220
v -0.29100558 0.08825729 -0.13979684
v -0.27750319 0.09929512 -0.14731444
v -0.31402501 0.07866071 -0.12288220
v -0.30980006 0.09398711 -0.12288220
v -0.30026126 0.09106947 -0.13162552
v -0.27750319 0.16664693 -0.12288220
v -0.27767742 0.16640086 -0.12288220
v -0.28638864 0.17160341 -0.11344433
v -0.29516521 0.17687625 -0.10339360
v -0.28612730 0.19114809 -0.10339360
v -0.28405839 0.19410089 -0.10339360
v -0.39373273 -0.01934391 -0.04435579
v -0.39423361 -0.00001015 -0.04435579
v -0.35398775 0.01728479 -0.09268917
v -0.35187528 0.01717933 -0.09489542
v -0.34564674 0.01383986 -0.10147333
v -0.34379563 0.01383986 -0.10339360
v -0.34192270 0.01383986 -0.10523215
v -0.33353814 0.01383986 -0.11344433
v -0.37424135 0.01830420 -0.06956433
v -0.36415812 0.01777692 -0.08141275
v -0.33347282 0.01637083 -0.11344433
v -0.38410681 0.01876118 -0.05722563
v -0.44700187 0.19410089 0.25573599
v -0.44780767 0.19410089 0.25622627
v -0.45945892 -0.16501507 0.25622627
v -0.40250927 -0.16501507 0.02252647
v -0.40412086 -0.16501507 0.02546815
v -0.41008806 -0.16501507 0.03711228
v -0.41764504 -0.14940745 0.04017653
v -0.42448336 -0.12866758 0.04017653
v -0.41775393 -0.12666391 0.02546815
v -0.42348155 -0.10602950 0.02546815
v -0.42663938 -0.08483266 0.02252647
v -0.43180078 -0.06402250 0.02546815
v -0.43291146 -0.04261474 0.02252647
v -0.42694429 -0.04201715 0.01092320
v -0.41202629 -0.02025788 -0.01743129
v -0.40305373 -0.01980089 -0.03111826
v -0.42054152 -0.02067970 -0.00341748
v -0.33227503 0.03271665 -0.11344433
v -0.33024967 0.04895701 -0.11344433
v -0.32746208 0.06512707 -0.11344433
v -0.32386869 0.08112137 -0.11344433
v -0.28632331 0.10245882 -0.13979684
v -0.29544830 0.10569283 -0.13162552
v -0.28096589 0.11634398 -0.13979684
v -0.27750319 0.11490273 -0.14277937
v -0.31949130 0.09690475 -0.11344433
v -0.31437346 0.11244208 -0.11344433
v -0.30483466 0.10903230 -0.12288220
v -0.27750319 0.16629541 -0.12304562
v -0.27750319 0.14829743 -0.13084924
v -0.28551751 0.15258601 -0.12288220
v -0.29446828 0.15736672 -0.11344433
v -0.30350620 0.16218258 -0.10339360
v -0.30396354 0.18214910 -0.09273002
v -0.29050469 0.19410089 -0.09791881
v -0.28590953 0.19410089 -0.10184105
v -0.40357640 -0.00001015 -0.03111826
v -0.39373273 0.01925332 -0.04435579
v -0.35268107 0.03465003 -0.09268917
v -0.35187528 0.03457972 -0.09354715
v -0.36282966 0.03563429 -0.08141275
v -0.34246716 0.03370091 -0.10339360
v -0.34370852 0.01686296 -0.10339360
v -0.38271302 0.03760282 -0.05722563
v -0.37286934 0.03661855 -0.06956433
v -0.39231715 0.03858709 -0.04435579
v -0.44865701 0.19410089 0.25663483
v -0.46026471 -0.16501507 0.25659400
v -0.41163430 -0.16501507 0.04017653
v -0.42378646 -0.15162204 0.05488490
v -0.43066832 -0.13060096 0.05488490
v -0.43657017 -0.10933381 0.05488490
v -0.43025455 -0.10775196 0.04017653
v -0.43498039 -0.08648482 0.04017653
v -0.42812029 -0.08511388 0.02546815
v -0.43870443 -0.06504191 0.04017653
v -0.44140491 -0.04342324 0.04017653
v -0.43441415 -0.04275535 0.02546815
v -0.43602574 -0.02145305 0.02546815
v -0.42851231 -0.02106638 0.01092320
v -0.41250542 -0.00001015 -0.01743129
v -0.42104241 -0.00001015 -0.00341748
v -0.42903498 -0.00001015 0.01092320
v -0.34037647 0.05046856 -0.10339360
v -0.33750176 0.06713076 -0.10339360
v -0.33379948 0.08358204 -0.10339360
v -0.32929143 0.09989271 -0.10339360
v -0.28991669 0.12007013 -0.13162552
v -0.27750319 0.12411264 -0.13979684
v -0.28366637 0.13413104 -0.13162552
v -0.32402113 0.11592215 -0.10339360
v -0.31794506 0.13167039 -0.10339360
v -0.30847159 0.12773332 -0.11344433
v -0.29910702 0.12386657 -0.12288220
v -0.27750319 0.14632890 -0.13162552
v -0.29266071 0.13838448 -0.12288220
v -0.30182928 0.14274336 -0.11344433
v -0.31108496 0.14710225 -0.10339360
v -0.32036242 0.15149629 -0.09273002
v -0.31254411 0.16699846 -0.09273002
v -0.29640657 0.19410089 -0.09273002
v -0.32153845 0.17181432 -0.08145359
v -0.31271833 0.18738680 -0.08145359
v -0.40305373 0.01971030 -0.03111826
v -0.41202629 0.02013212 -0.01743129
v -0.40161639 0.03946589 -0.03111826
v -0.35185349 0.04122351 -0.09273002
v -0.37062621 0.05489776 -0.06956433
v -0.36063007 0.05342136 -0.08141275
v -0.35052505 0.05198011 -0.09273002
v -0.38040456 0.05633900 -0.05722563
v -0.38994333 0.05778024 -0.04435579
v -0.44931036 0.19410089 0.25683913
v -0.46113583 -0.16501507 0.25687999
v -0.41862506 -0.16501507 0.05488490
v -0.42115131 -0.16501507 0.06060483
v -0.42513669 -0.16501507 0.06963414
v -0.42947054 -0.15362573 0.06963414
v -0.43646130 -0.13235858 0.06963414
v -0.44240671 -0.11073990 0.06963414
v -0.44730675 -0.08894548 0.06963414
v -0.44140491 -0.08778545 0.05488490
v -0.44517252 -0.06599102 0.05488490
v -0.44301647 -0.02180457 0.04017653
v -0.44789478 -0.04409114 0.05488490
v -0.43654841 -0.00001015 0.02546815
v -0.43504572 -0.00001015 0.02252647
v -0.44356093 -0.00001015 0.04017653
v -0.42054152 0.02058910 -0.00341748
v -0.42851231 0.02094063 0.01092320
v -0.34754145 0.06913444 -0.09273002
v -0.34375206 0.08611300 -0.09273002
v -0.33911332 0.10288065 -0.09273002
v -0.27750319 0.13121340 -0.13734543
v -0.33366883 0.11936708 -0.09273002
v -0.32741851 0.13557228 -0.09273002
v -0.32957456 0.15585518 -0.08145359
v -0.30847159 0.19410089 -0.08145359
v -0.33869955 0.16017890 -0.06960518
v -0.33042389 0.17659503 -0.06960518
v -0.32134244 0.19258933 -0.06960518
v -0.32040596 0.19410089 -0.06960518
v -0.31859839 0.19410089 -0.07140287
v -0.41050184 0.04034470 -0.01743129
v -0.41899529 0.04115320 -0.00341748
v -0.39915547 0.05915118 -0.03111826
v -0.40804091 0.06041666 -0.01743129
v -0.36746839 0.07300119 -0.06956433
v -0.35758114 0.07103266 -0.08141275
v -0.35185349 0.06396705 -0.08901207
v -0.38665485 0.07679763 -0.04435579
v -0.37715963 0.07493457 -0.05722563
v -0.45057347 0.19410089 0.25712511
v -0.46213764 -0.16501507 0.25708425
v -0.43103856 -0.16501507 0.08417909
v -0.43469727 -0.15552394 0.08417909
v -0.44179690 -0.13401073 0.08417909
v -0.44782943 -0.11214601 0.08417909
v -0.45277306 -0.09003520 0.08417909
v -0.45667133 -0.06771348 0.08417909
v -0.45116147 -0.06686983 0.06963414
v -0.44950634 -0.02208579 0.05488490
v -0.45390552 -0.04465357 0.06963414
v -0.45556065 -0.02240216 0.06963414
v -0.43602574 0.02132730 0.02546815
v -0.44301647 0.02167883 0.04017653
v -0.45005080 -0.00001015 0.05488490
v -0.44950634 0.02199520 0.05488490
v -0.42694429 0.04196171 0.01092320
v -0.35185349 0.06997809 -0.08786808
v -0.35187528 0.08804638 -0.08345558
v -0.35294241 0.09113978 -0.08141275
v -0.35185349 0.09500653 -0.08145359
v -0.34886992 0.10579829 -0.08145359
v -0.34327295 0.12277685 -0.08145359
v -0.33682662 0.13947420 -0.08145359
v -0.34614766 0.14334095 -0.06960518
v -0.35531622 0.14713740 -0.05722563
v -0.34765035 0.16439718 -0.05722563
v -0.33915690 0.18127029 -0.05722563
v -0.32384691 0.19410089 -0.06596895
v -0.42439625 0.06287733 0.01092320
v -0.41644725 0.06168215 -0.00341748
v -0.39577985 0.07862556 -0.03111826
v -0.40457821 0.08041833 -0.01743129
v -0.41294098 0.08207048 -0.00341748
v -0.37304357 0.09338953 -0.05722563
v -0.36348298 0.09113978 -0.06948261
v -0.35363930 0.08853851 -0.08141275
v -0.38240814 0.09574473 -0.04435579
v -0.39299226 0.09113978 -0.03111826
v -0.45159703 0.19410089 0.25724769
v -0.46311763 -0.16501507 0.25724769
v -0.43652663 -0.16501507 0.09860148
v -0.43948844 -0.15724641 0.09860148
v -0.44665343 -0.13545197 0.09860148
v -0.45277306 -0.11337633 0.09860148
v -0.45780379 -0.09105462 0.09860148
v -0.46172383 -0.06845169 0.09860148
v -0.45945892 -0.04521601 0.08417909
v -0.46111405 -0.02268338 0.08417909
v -0.46170205 -0.00001015 0.08417909
v -0.45610511 -0.00001015 0.06963414
v -0.43441415 0.04269990 0.02546815
v -0.43291146 0.04255930 0.02252647
v -0.44140491 0.04336780 0.04017653
v -0.44789478 0.04403569 0.05488490
v -0.45556065 0.02227641 0.06963414
v -0.35429263 0.09113978 -0.07990104
v -0.35853937 0.10875109 -0.06956433
v -0.35185349 0.12587026 -0.07074916
v -0.35278997 0.12622178 -0.06956433
v -0.36211097 0.12956125 -0.05722563
v -0.36422345 0.15082839 -0.04435579
v -0.35638335 0.16854516 -0.04435579
v -0.35185349 0.16636571 -0.05105628
v -0.34767210 0.18580493 -0.04439665
v -0.33188301 0.19410089 -0.05722563
v -0.43180078 0.06396705 0.02546815
v -0.42663938 0.08481237 0.02252647
v -0.42078108 0.08358204 0.01092320
v -0.39658564 0.09113978 -0.02580690
v -0.40013549 0.10017392 -0.01743129
v -0.40841115 0.10224791 -0.00341748
v -0.41910416 0.09113978 0.01092320
v -0.41616413 0.10425159 0.01092320
v -0.37726849 0.11441061 -0.04435579
v -0.36801282 0.11159842 -0.05722563
v -0.39144602 0.09799448 -0.03111826
v -0.38619751 0.11711733 -0.03111826
v -0.45235926 0.19410089 0.25728855
v -0.46405411 -0.16501507 0.25728855
v -0.44149202 -0.16501507 0.11273786
v -0.44386584 -0.15879311 0.11273786
v -0.45111793 -0.13682292 0.11273786
v -0.45728111 -0.11450121 0.11273786
v -0.46235541 -0.09193342 0.11273786
v -0.46629724 -0.06915473 0.11273786
v -0.46915016 -0.04616512 0.11273786
v -0.46453321 -0.04570814 0.09860148
v -0.46623191 -0.02292945 0.09860148
v -0.46679813 -0.00001015 0.09860148
v -0.46623191 0.02280370 0.09860148
v -0.46111405 0.02255763 0.08417909
v -0.43870443 0.06498647 0.04017653
v -0.44517252 0.06597073 0.05488490
v -0.45390552 0.04463328 0.06963414
v -0.45116147 0.06688469 0.06963414
v -0.45945892 0.04516057 0.08417909
v -0.37119243 0.13276011 -0.04435579
v -0.37999076 0.13595897 -0.03111826
v -0.37286934 0.15437877 -0.03111826
v -0.36483324 0.17251736 -0.03111826
v -0.34296805 0.19410089 -0.04439665
v -0.35185349 0.18805468 -0.03765532
v -0.35185349 0.19410089 -0.03344708
v -0.42812029 0.08509358 0.02546815
v -0.43498039 0.08646452 0.04017653
v -0.42526737 0.09113978 0.02252647
v -0.39475629 0.11971860 -0.01743129
v -0.41056716 0.12453447 0.01092320
v -0.40290129 0.12217926 -0.00341748
v -0.42343801 0.10600921 0.02546815
v -0.41775393 0.12667876 0.02546815
v -0.45288193 0.19410089 0.25728855
v -0.47779605 0.11964830 0.25732940
v -0.48393747 0.09113978 0.25732940
v -0.46411943 -0.16501507 0.25728855
v -0.44600007 -0.16501507 0.12650654
v -0.44782943 -0.16019920 0.12650654
v -0.45514685 -0.13805325 0.12650654
v -0.46135360 -0.11552063 0.12650654
v -0.46647146 -0.09277708 0.12650654
v -0.47047862 -0.06975232 0.12650654
v -0.47330976 -0.04658695 0.12650654
v -0.47505203 -0.02335128 0.12650654
v -0.47087061 -0.02314036 0.11273786
v -0.47143686 -0.00001015 0.11273786
v -0.47087061 0.02301461 0.11273786
v -0.46453321 0.04568785 0.09860148
v -0.44140491 0.08769485 0.05488490
v -0.44730675 0.08889003 0.06963414
v -0.45667133 0.06765804 0.08417909
v -0.45277306 0.08997975 0.08417909
v -0.46172383 0.06839624 0.09860148
v -0.38841888 0.13894692 -0.01743129
v -0.38114500 0.15782370 -0.01743129
v -0.37295645 0.17631382 -0.01743129
v -0.36317810 0.19410089 -0.01857527
v -0.35592601 0.19016382 -0.03111826
v -0.35372642 0.19410089 -0.03111826
v -0.42677006 0.09113978 0.02546815
v -0.43395680 0.09113978 0.04017653
v -0.39643320 0.14182940 -0.00341748
v -0.40396842 0.14453614 0.01092320
v -0.43023276 0.10773167 0.04017653
v -0.41102451 0.14706710 0.02546815
v -0.42443979 0.12871760 0.04017653
v -0.41762325 0.14938715 0.04017653
v -0.45508152 0.18844137 0.25728855
v -0.45364419 0.19410089 0.25724769
v -0.45597443 0.18886319 0.25724769
v -0.46379274 0.16594389 0.25728855
v -0.47137153 0.14298943 0.25728855
v -0.47226441 0.14320034 0.25724769
v -0.47871074 0.11985921 0.25724769
v -0.48469970 0.09113978 0.25728855
v -0.48308814 0.09606110 0.25732940
v -0.48816240 0.07233330 0.25724769
v -0.49114600 0.04832427 0.25724769
v -0.49020955 0.04818366 0.25728855
v -0.49199536 0.02406918 0.25728855
v -0.49260515 -0.00001015 0.25728855
v -0.49199536 -0.02419493 0.25728855
v -0.49020955 -0.04823911 0.25728855
v -0.48722595 -0.07224813 0.25728855
v -0.48308814 -0.09608140 0.25728855
v -0.47779605 -0.11966859 0.25728855
v -0.47137153 -0.14297457 0.25728855
v -0.46509945 -0.16501507 0.25724769
v -0.45002902 -0.16501507 0.13982579
v -0.45137927 -0.16149983 0.13982579
v -0.45876202 -0.13910782 0.13982579
v -0.46501234 -0.11646973 0.13982579
v -0.47015196 -0.09348013 0.13982579
v -0.47420269 -0.07027961 0.13982579
v -0.47707736 -0.04693848 0.13982579
v -0.47881961 -0.02356219 0.13982579
v -0.47564003 -0.00001015 0.12650654
v -0.47505203 0.02326068 0.12650654
v -0.46915016 0.04610968 0.11273786
v -0.44682765 0.09113978 0.06963414
v -0.43657017 0.10934868 0.05488490
v -0.45253348 0.09113978 0.08417909
v -0.45776024 0.09113978 0.09860148
v -0.46629724 0.06906413 0.11273786
v -0.46235541 0.09191313 0.11269701
v -0.45847893 0.09113978 0.10068516
v -0.38900688 0.16105771 -0.00341748
v -0.38062233 0.18000481 -0.00341748
v -0.36383143 0.19410089 -0.01767644
v -0.37354445 0.19410089 -0.00341748
v -0.35555577 0.19410089 -0.02870771
v -0.39641142 0.16411597 0.01092320
v -0.40333685 0.16703361 0.02546815
v -0.40980494 0.16970518 0.04017653
v -0.43066832 0.13065097 0.05488490
v -0.42376468 0.15156659 0.05488490
v -0.41583747 0.17223614 0.05488490
v -0.45464596 0.19410089 0.25712511
v -0.45682377 0.18921471 0.25712511
v -0.46553501 0.16657662 0.25712511
v -0.46466389 0.16622511 0.25724769
v -0.47313553 0.14351672 0.25712511
v -0.47960365 0.12010528 0.25712511
v -0.48402458 0.09623686 0.25724769
v -0.48491749 0.09641263 0.25712511
v -0.48583215 0.09113978 0.25712511
v -0.48907709 0.07247391 0.25708425
v -0.49206069 0.04839458 0.25708425
v -0.49386826 0.02417464 0.25708425
v -0.49293181 0.02413949 0.25724769
v -0.49354160 -0.00001015 0.25724769
v -0.49293181 -0.02423009 0.25724769
v -0.49114600 -0.04834457 0.25724769
v -0.48816240 -0.07238875 0.25724769
v -0.48402458 -0.09625716 0.25724769
v -0.47871074 -0.11987951 0.25724769
v -0.47226441 -0.14322063 0.25724769
v -0.46612301 -0.16501507 0.25708425
v -0.45057347 -0.16501507 0.14170520
v -0.45364419 -0.16501507 0.15257305
v -0.45453709 -0.16262472 0.15257305
v -0.46196342 -0.14012724 0.15257305
v -0.46827903 -0.11727823 0.15257305
v -0.47346222 -0.09414802 0.15257305
v -0.47753471 -0.07080689 0.15257305
v -0.48043120 -0.04729000 0.15257305
v -0.48219523 -0.02370280 0.15257305
v -0.47940764 -0.00001015 0.13982579
v -0.47881961 0.02343644 0.13982579
v -0.47707736 0.04691818 0.13982579
v -0.47330976 0.04653151 0.12650654
v -0.47047862 0.06969687 0.12650654
v -0.44242847 0.11078992 0.06963414
v -0.44782943 0.11216086 0.08417909
v -0.43646130 0.13240859 0.06963414
v -0.45277306 0.11339119 0.09860148
v -0.45728111 0.11451606 0.11269701
v -0.46647146 0.09272163 0.12650654
v -0.46135360 0.11553548 0.12650654
v -0.38787442 0.18341458 0.01092320
v -0.38249525 0.19410089 0.01092320
v -0.39464739 0.18661344 0.02546815
v -0.40098482 0.18960139 0.04017653
v -0.42944875 0.15360543 0.06963414
v -0.42141265 0.17448589 0.06963414
v -0.41276675 0.19410089 0.06963414
v -0.41041473 0.19410089 0.06436364
v -0.40688667 0.19241357 0.05488490
v -0.45582199 0.19410089 0.25687999
v -0.45765135 0.18953109 0.25687999
v -0.46638435 0.16685784 0.25687999
v -0.47400668 0.14379793 0.25687999
v -0.48047477 0.12031619 0.25687999
v -0.48578861 0.09658839 0.25687999
v -0.48652905 0.09113978 0.25696170
v -0.48994821 0.07261451 0.25687999
v -0.49295360 0.04846488 0.25687999
v -0.49445629 -0.00001015 0.25708425
v -0.49473938 0.02420979 0.25687999
v -0.49534917 -0.00001015 0.25687999
v -0.49386826 -0.02426524 0.25708425
v -0.49206069 -0.04841487 0.25708425
v -0.48907709 -0.07252935 0.25708425
v -0.48491749 -0.09643292 0.25708425
v -0.47960365 -0.12009043 0.25708425
v -0.47315732 -0.14350185 0.25708425
v -0.47398490 -0.14378308 0.25687999
v -0.46701592 -0.16501507 0.25687999
v -0.45684555 -0.16501507 0.16478918
v -0.45734644 -0.16360897 0.16478918
v -0.46483812 -0.14100604 0.16478918
v -0.47117552 -0.11798128 0.16478918
v -0.47640225 -0.09474561 0.16478918
v -0.48047477 -0.07126387 0.16478918
v -0.48339301 -0.04757122 0.16478918
v -0.48517883 -0.02384341 0.16478918
v -0.48278323 -0.00001015 0.15257305
v -0.48219523 0.02361220 0.15257305
v -0.48043120 0.04723455 0.15257305
v -0.47420269 0.07029446 0.13982579
v -0.44179690 0.13399044 0.08417909
v -0.44667521 0.13546684 0.09860148
v -0.45514685 0.13806811 0.12650654
v -0.45111793 0.13680261 0.11269701
v -0.47017372 0.09349498 0.13986665
v -0.46501234 0.11644944 0.13986665
v -0.45876202 0.13915783 0.13986665
v -0.39090157 0.19410089 0.02546815
v -0.39874169 0.19410089 0.04017653
v -0.43467548 0.15550365 0.08417909
v -0.42655227 0.17666534 0.08417909
v -0.41884282 0.19410089 0.08417909
v -0.40603733 0.19410089 0.05488490
v -0.45656246 0.19410089 0.25663483
v -0.45841357 0.18988261 0.25663483
v -0.46716836 0.16710392 0.25663483
v -0.47481245 0.14400885 0.25663483
v -0.48130232 0.12052710 0.25663483
v -0.48663795 0.09676415 0.25663483
v -0.49079755 0.07271998 0.25663483
v -0.49380293 0.04853519 0.25663483
v -0.49558872 0.02424494 0.25663483
v -0.49473938 -0.02433554 0.25687999
v -0.49619853 -0.00001015 0.25663483
v -0.49558872 -0.02437069 0.25663483
v -0.49295360 -0.04852033 0.25687999
v -0.48994821 -0.07266996 0.25687999
v -0.48578861 -0.09660868 0.25687999
v -0.48047477 -0.12033649 0.25687999
v -0.47481245 -0.14399399 0.25663483
v -0.46788704 -0.16501507 0.25663483
v -0.45967671 -0.16501507 0.17626989
v -0.46734259 -0.14174424 0.17626989
v -0.47372356 -0.11864917 0.17626989
v -0.47897208 -0.09523774 0.17626989
v -0.48308814 -0.07161539 0.17626989
v -0.48602816 -0.04785243 0.17626989
v -0.48576683 -0.00001015 0.16478918
v -0.48779219 -0.02398402 0.17626989
v -0.48517883 0.02371766 0.16478918
v -0.47753471 0.07075144 0.15257305
v -0.48339301 0.04751577 0.16478918
v -0.47091419 0.09113978 0.14109235
v -0.43948844 0.15722612 0.09860148
v -0.44386584 0.15880796 0.11269701
v -0.45137927 0.16151470 0.13986665
v -0.44782943 0.16021407 0.12650654
v -0.47398490 0.09113978 0.15257305
v -0.47346222 0.09416288 0.15261391
v -0.46827903 0.11725795 0.15261391
v -0.46196342 0.14010695 0.15261391
v -0.45453709 0.16260442 0.15261391
v -0.43125632 0.17863387 0.09860148
v -0.42441803 0.19410089 0.09860148
v -0.45743358 0.19410089 0.25622627
v -0.45915404 0.19016382 0.25622627
v -0.46793059 0.16738513 0.25622627
v -0.47557470 0.14421976 0.25622627
v -0.48206455 0.12070287 0.25622627
v -0.48740017 0.09690475 0.25622627
v -0.48857620 0.09113978 0.25614455
v -0.49158156 0.07282543 0.25622627
v -0.49458694 0.04860549 0.25622627
v -0.49637276 0.02428010 0.25622627
v -0.49380293 -0.04859063 0.25663483
v -0.49698251 -0.00001015 0.25622627
v -0.49637276 -0.02440584 0.25622627
v -0.49458694 -0.04866093 0.25622627
v -0.49079755 -0.07277542 0.25663483
v -0.48663795 -0.09678444 0.25663483
v -0.48130232 -0.12054740 0.25663483
v -0.47557470 -0.14420490 0.25622627
v -0.46873638 -0.16501507 0.25622627
v -0.46211585 -0.16501507 0.18701518
v -0.46954218 -0.14241214 0.18701518
v -0.47598848 -0.11921161 0.18701518
v -0.48123699 -0.09569472 0.18701518
v -0.48535305 -0.07196692 0.18701518
v -0.48831487 -0.04806335 0.18701518
v -0.49010065 -0.02408947 0.18701518
v -0.48838019 -0.00001015 0.17626989
v -0.48779219 0.02389342 0.17626989
v -0.48602816 0.04779699 0.17626989
v -0.48047477 0.07117327 0.16478918
v -0.47703382 0.09113978 0.16478918
v -0.43554661 0.18035632 0.11269701
v -0.44290760 0.18341458 0.13986665
v -0.43942311 0.18197334 0.12650654
v -0.44604364 0.18471521 0.15261391
v -0.47640225 0.09472532 0.16478918
v -0.47117552 0.11799614 0.16478918
v -0.46483812 0.14095059 0.16478918
v -0.45736822 0.16362384 0.16478918
v -0.42947054 0.19410089 0.11269701
v -0.45808691 0.19410089 0.25581771
v -0.45982915 0.19044504 0.25573599
v -0.46860570 0.16766635 0.25573599
v -0.47624981 0.14446583 0.25573599
v -0.48276144 0.12087863 0.25573599
v -0.48809707 0.09704537 0.25573599
v -0.49230024 0.07296604 0.25573599
v -0.49528384 0.04871095 0.25573599
v -0.49711320 0.02435040 0.25573599
v -0.49158156 -0.07288087 0.25622627
v -0.49770120 -0.00001015 0.25573599
v -0.49711320 -0.02444100 0.25573599
v -0.49528384 -0.04876640 0.25573599
v -0.49230024 -0.07298633 0.25573599
v -0.48740017 -0.09692505 0.25622627
v -0.48206455 -0.12072316 0.25622627
v -0.48276144 -0.12089892 0.25573599
v -0.47624981 -0.14445096 0.25573599
v -0.46941149 -0.16501507 0.25577685
v -0.46427187 -0.16501507 0.19735190
v -0.47143686 -0.14300972 0.19694333
v -0.47788316 -0.11966859 0.19694333
v -0.48317525 -0.09608140 0.19694333
v -0.48733485 -0.07224813 0.19694333
v -0.49029666 -0.04823911 0.19694333
v -0.49068868 -0.00001015 0.18701518
v -0.49208248 -0.02419493 0.19694333
v -0.49269226 -0.00001015 0.19694333
v -0.49010065 0.02399888 0.18701518
v -0.48308814 0.07155995 0.17626989
v -0.48831487 0.04804305 0.18701518
v -0.47969073 0.09113978 0.17626989
v -0.47897208 0.09528776 0.17631075
v -0.43406570 0.19410089 0.12650654
v -0.43820354 0.19410089 0.13986665
v -0.43600395 0.19410089 0.13271675
v -0.44878766 0.18587524 0.16478918
v -0.44515073 0.19410089 0.16478918
v -0.44188404 0.19410089 0.15261391
v -0.44018534 0.19410089 0.14668971
v -0.47372356 0.11862888 0.17631075
v -0.46734259 0.14175910 0.17631075
v -0.45985094 0.16453779 0.17631075
v -0.45819581 0.19410089 0.25573599
v -0.45880559 0.19410089 0.25516400
v -0.46039540 0.19069111 0.25504142
v -0.46921551 0.16787726 0.25504142
v -0.47685960 0.14460644 0.25504142
v -0.48337126 0.12105439 0.25504142
v -0.48872864 0.09718598 0.25504142
v -0.49291003 0.07307149 0.25504142
v -0.49593717 0.04874610 0.25504142
v -0.49772298 0.02435040 0.25504142
v -0.49835455 -0.00001015 0.25504142
v -0.48811886 -0.09706566 0.25573599
v -0.49772298 -0.02447615 0.25504142
v -0.49593717 -0.04880155 0.25504142
v -0.49291003 -0.07309179 0.25504142
v -0.48339301 -0.12107469 0.25504142
v -0.47685960 -0.14462674 0.25504142
v -0.47015196 -0.16501507 0.25504142
v -0.46601412 -0.16501507 0.20589092
v -0.47309199 -0.14350185 0.20589092
v -0.47956008 -0.12009043 0.20589092
v -0.48487392 -0.09643292 0.20589092
v -0.48903352 -0.07249420 0.20589092
v -0.49199536 -0.04841487 0.20589092
v -0.49380293 -0.02426524 0.20589092
v -0.49439093 -0.00001015 0.20589092
v -0.49380293 0.02417464 0.20589092
v -0.49208248 0.02406918 0.19694333
v -0.49029666 0.04821882 0.19694333
v -0.48535305 0.07194662 0.18701518
v -0.48733485 0.07222784 0.19694333
v -0.48202100 0.09113978 0.18701518
v -0.48123699 0.09567443 0.18705603
v -0.47596669 0.11919132 0.18705603
v -0.45122683 0.18689466 0.17631075
v -0.44804722 0.19410089 0.17631075
v -0.46956396 0.14242700 0.18705603
v -0.46200696 0.16527599 0.18705603
v -0.45336106 0.18777347 0.18705603
v -0.45889270 0.19410089 0.25504142
v -0.46091807 0.19090202 0.25414258
v -0.46971640 0.16801786 0.25414258
v -0.47738227 0.14474705 0.25414258
v -0.48391569 0.12115985 0.25414258
v -0.48925132 0.09729143 0.25414258
v -0.48992643 0.09113978 0.25483716
v -0.49347627 0.07310665 0.25414258
v -0.49645984 0.04881641 0.25414258
v -0.49828923 0.02438555 0.25414258
v -0.49889898 -0.00001015 0.25414258
v -0.49828923 -0.02451130 0.25414258
v -0.48872864 -0.09717112 0.25504142
v -0.49645984 -0.04887185 0.25414258
v -0.49347627 -0.07319725 0.25414258
v -0.48925132 -0.09727658 0.25414258
v -0.48389393 -0.12118015 0.25414258
v -0.47738227 -0.14476734 0.25414258
v -0.47073996 -0.16501507 0.25414258
v -0.46751681 -0.16501507 0.21385796
v -0.47446400 -0.14388853 0.21385796
v -0.48097566 -0.12044194 0.21385796
v -0.48628950 -0.09671414 0.21385796
v -0.49044910 -0.07274026 0.21385796
v -0.49345449 -0.04859063 0.21385796
v -0.49524027 -0.02433554 0.21385796
v -0.49585009 -0.00001015 0.21385796
v -0.49524027 0.02424494 0.21385796
v -0.49345449 0.04850003 0.21385796
v -0.49199536 0.04839458 0.20589092
v -0.48903352 0.07247391 0.20589092
v -0.48319703 0.09606110 0.19694333
v -0.47788316 0.11968345 0.19694333
v -0.45055169 0.19410089 0.18705603
v -0.47145864 0.14298943 0.19694333
v -0.46387988 0.16594389 0.19694333
v -0.45519042 0.18851167 0.19694333
v -0.45272949 0.19410089 0.19694333
v -0.45950249 0.19410089 0.25414258
v -0.46000338 0.19410089 0.25291687
v -0.46131006 0.19104263 0.25291687
v -0.47013018 0.16819364 0.25291687
v -0.47781783 0.14488766 0.25291687
v -0.48432946 0.12130046 0.25291687
v -0.48970866 0.09736174 0.25291687
v -0.49034023 0.09113978 0.25414258
v -0.49391183 0.07317695 0.25291687
v -0.49691719 0.04885156 0.25291687
v -0.49872476 0.02442070 0.25291687
v -0.49933457 -0.00001015 0.25291687
v -0.49872476 -0.02451130 0.25291687
v -0.49691719 -0.04890700 0.25291687
v -0.49391183 -0.07323240 0.25291687
v -0.48970866 -0.09738203 0.25291687
v -0.48435125 -0.12128560 0.25291687
v -0.47779605 -0.14494310 0.25291687
v -0.47119731 -0.16501507 0.25291687
v -0.46867105 -0.16501507 0.22014989
v -0.47564003 -0.14424005 0.22092617
v -0.48212987 -0.12075831 0.22092617
v -0.48748729 -0.09692505 0.22092617
v -0.49164692 -0.07291603 0.22092617
v -0.49463052 -0.04866093 0.22092617
v -0.49643809 -0.02440584 0.22092617
v -0.49706966 -0.00001015 0.22092617
v -0.49643809 0.02428010 0.22092617
v -0.49463052 0.04867579 0.22092617
v -0.49164692 0.07282543 0.22092617
v -0.49044910 0.07268482 0.21385796
v -0.48726952 0.09113978 0.21385796
v -0.48578861 0.09113978 0.20589092
v -0.48487392 0.09641263 0.20593178
v -0.47953829 0.12007013 0.20593178
v -0.47309199 0.14344642 0.20593178
v -0.46549144 0.16650632 0.20593178
v -0.45675844 0.18914440 0.20593178
v -0.45460242 0.19410089 0.20593178
v -0.45318684 0.19410089 0.19910873
v -0.46035182 0.19410089 0.25140518
v -0.46163672 0.19118324 0.25140518
v -0.47045684 0.16833425 0.25140518
v -0.47812271 0.14502826 0.25140518
v -0.48465616 0.12137076 0.25140518
v -0.49003533 0.09743204 0.25140518
v -0.49423850 0.07321210 0.25140518
v -0.49724388 0.04888671 0.25140518
v -0.49907321 0.02442070 0.25140518
v -0.49968302 -0.00001015 0.25140518
v -0.49907321 -0.02451130 0.25140518
v -0.49724388 -0.04894216 0.25140518
v -0.49423850 -0.07326755 0.25140518
v -0.49003533 -0.09745234 0.25140518
v -0.48465616 -0.12139106 0.25140518
v -0.47814450 -0.14504856 0.25140518
v -0.47126263 -0.16501507 0.25271261
v -0.46880171 -0.16501507 0.22092617
v -0.46982527 -0.16501507 0.22705466
v -0.47655469 -0.14455642 0.22705466
v -0.48304456 -0.12096922 0.22705466
v -0.48842376 -0.09713597 0.22705466
v -0.49260515 -0.07302149 0.22705466
v -0.49561051 -0.04876640 0.22705466
v -0.49741811 -0.02444100 0.22705466
v -0.49802786 -0.00001015 0.22705466
v -0.49741811 0.02435040 0.22705466
v -0.49561051 0.04871095 0.22705466
v -0.48848909 0.09113978 0.22092617
v -0.49260515 0.07300119 0.22705466
v -0.48628950 0.09669384 0.21385796
v -0.48095387 0.12042165 0.21385796
v -0.47448578 0.14393854 0.21385796
v -0.46686345 0.16703361 0.21385796
v -0.45810869 0.18974200 0.21385796
v -0.45619223 0.19410089 0.21385796
v -0.46039540 0.19410089 0.25116006
v -0.46183273 0.19125354 0.24952579
v -0.47065285 0.16840455 0.24952579
v -0.47831872 0.14509857 0.24952579
v -0.48487392 0.12140591 0.24952579
v -0.49025309 0.09750235 0.24952579
v -0.49445629 0.07328241 0.24948493
v -0.49746165 0.04892186 0.24948493
v -0.49929100 0.02442070 0.24948493
v -0.49990079 -0.00001015 0.24948493
v -0.49929100 -0.02454646 0.24948493
v -0.49746165 -0.04894216 0.24948493
v -0.49445629 -0.07330270 0.24948493
v -0.49025309 -0.09748749 0.24948493
v -0.48487392 -0.12142621 0.24948493
v -0.47154576 -0.16501507 0.25140518
v -0.47834051 -0.14508371 0.24948493
v -0.47176352 -0.16501507 0.24948493
v -0.47052217 -0.16501507 0.23171231
v -0.47727337 -0.14476734 0.23240687
v -0.48378503 -0.12114500 0.23240687
v -0.48916420 -0.09727658 0.23240687
v -0.49334559 -0.07316209 0.23240687
v -0.49637276 -0.04883670 0.23240687
v -0.49818033 -0.02451130 0.23240687
v -0.49879012 -0.00001015 0.23240687
v -0.49818033 0.02438555 0.23240687
v -0.49637276 0.04878125 0.23240687
v -0.48746550 0.09690475 0.22092617
v -0.48946911 0.09113978 0.22705466
v -0.48842376 0.09711567 0.22705466
v -0.49334559 0.07310665 0.23240687
v -0.49023134 0.09113978 0.23240687
v -0.48212987 0.12073802 0.22092617
v -0.47564003 0.14425491 0.22092617
v -0.46799594 0.16745543 0.22092617
v -0.45921937 0.19016382 0.22092617
v -0.45749891 0.19410089 0.22092617
v -0.46059138 0.19410089 0.24952579
v -0.46061316 0.19410089 0.24919893
v -0.46191984 0.19132385 0.24719696
v -0.47073996 0.16840455 0.24719696
v -0.47842762 0.14509857 0.24719696
v -0.48496103 0.12144107 0.24719696
v -0.49034023 0.09753750 0.24719696
v -0.49454337 0.07328241 0.24715610
v -0.49754876 0.04892186 0.24715610
v -0.49937811 0.02442070 0.24715610
v -0.49998790 -0.00001015 0.24715610
v -0.49937811 -0.02454646 0.24715610
v -0.49754876 -0.04897731 0.24715610
v -0.49454337 -0.07330270 0.24715610
v -0.49034023 -0.09752264 0.24715610
v -0.48496103 -0.12146136 0.24715610
v -0.47842762 -0.14511886 0.24715610
v -0.47185063 -0.16501507 0.24715610
v -0.47121906 -0.16501507 0.23706453
v -0.47781783 -0.14494310 0.23706453
v -0.48435125 -0.12128560 0.23706453
v -0.48973042 -0.09738203 0.23706453
v -0.49391183 -0.07323240 0.23706453
v -0.49693897 -0.04890700 0.23706453
v -0.49874654 -0.02451130 0.23706453
v -0.49933457 -0.00001015 0.23706453
v -0.49874654 0.02442070 0.23706453
v -0.49693897 0.04885156 0.23706453
v -0.48308814 0.12094893 0.22705466
v -0.48916420 0.09725628 0.23244773
v -0.49391183 0.07317695 0.23706453
v -0.48973042 0.09736174 0.23706453
v -0.47655469 0.14453614 0.22705466
v -0.46891060 0.16773665 0.22705466
v -0.46011227 0.19058564 0.22705466
v -0.45856601 0.19410089 0.22705466
v -0.46070027 0.19410089 0.24719696
v -0.46063495 0.19410089 0.24437785
v -0.46187627 0.19125354 0.24437785
v -0.47069639 0.16840455 0.24437785
v -0.47836229 0.14509857 0.24437785
v -0.48491749 0.12144107 0.24437785
v -0.49027488 0.09750235 0.24437785
v -0.49138558 0.09113978 0.24437785
v -0.49447805 0.07328241 0.24437785
v -0.49750519 0.04892186 0.24437785
v -0.49933457 0.02442070 0.24437785
v -0.49992257 -0.00001015 0.24437785
v -0.49933457 -0.02454646 0.24437785
v -0.49750519 -0.04897731 0.24437785
v -0.49447805 -0.07330270 0.24437785
v -0.49029666 -0.09752264 0.24437785
v -0.48489571 -0.12142621 0.24437785
v -0.47836229 -0.14508371 0.24437785
v -0.47180709 -0.16501507 0.24437785
v -0.47158930 -0.16501507 0.24102761
v -0.47818807 -0.14504856 0.24102761
v -0.48472148 -0.12139106 0.24102761
v -0.49007887 -0.09745234 0.24102761
v -0.49428207 -0.07326755 0.24102761
v -0.49728742 -0.04894216 0.24102761
v -0.49911678 -0.02451130 0.24102761
v -0.49970478 -0.00001015 0.24102761
v -0.49911678 0.02442070 0.24102761
v -0.49728742 0.04888671 0.24102761
v -0.49428207 0.07324725 0.24102761
v -0.48378503 0.12115985 0.23244773
v -0.47727337 0.14474705 0.23244773
v -0.48435125 0.12130046 0.23706453
v -0.49007887 0.09743204 0.24102761
v -0.48472148 0.12137076 0.24102761
v -0.46960750 0.16801786 0.23244773
v -0.46080917 0.19083172 0.23244773
v -0.45939359 0.19410089 0.23244773
v -0.46039540 0.19410089 0.24102761
v -0.46168029 0.19118324 0.24102761
v -0.47050041 0.16833425 0.24102761
v -0.47818807 0.14502826 0.24102761
v -0.47781783 0.14488766 0.23706453
v -0.47015196 0.16819364 0.23706453
v -0.46133184 0.19104263 0.23706453
v -0.46000338 0.19410089 0.23706453
f 1 2 3
f 1 3 4
f 1 4 5
f 1 5 13
f 1 13 6
f 1 6 21
f 1 21 40
f 1 40 62
f 1 62 94
f 1 94 128
f 1 128 169
f 1 169 214
f 1 214 260
f 1 260 300
f 1 300 339
f 1 339 378
f 1 378 414
f 1 414 466
f 1 466 516
f 1 516 566
f 1 566 609
f 1 609 651
f 1 651 691
f 1 691 733
f 1 733 773
f 1 773 811
f 1 811 849
f 1 849 884
f 1 884 886
f 1 886 924
f 1 924 961
f 1 961 962
f 1 962 925
f 1 925 887
f 1 887 851
f 1 851 850
f 1 850 812
f 1 812 774
f 1 774 734
f 1 734 692
f 1 692 652
f 1 652 610
f 1 610 567
f 1 567 518
f 1 518 517
f 1 517 467
f 1 467 415
f 1 415 379
f 1 379 340
f 1 340 301
f 1 301 263
f 1 263 262
f 1 262 261
f 1 261 215
f 1 215 172
f 1 172 171
f 1 171 170
f 1 170 129
f 1 129 95
f 1 95 63
f 1 63 41
f 1 41 25
f 1 25 8
f 1 8 2
f 2 7 3
f 2 8 7
f 3 7 9
f 3 9 10
f 3 10 4
f 4 10 5
f 5 11 12
f 5 12 33
f 5 33 50
f 5 50 76
f 5 76 78
f 5 78 77
f 5 77 109
f 5 109 112
f 5 112 145
f 5 145 191
f 5 191 235
f 5 235 280
f 5 280 241
f 5 241 196
f 5 196 195
f 5 195 149
f 5 149 115
f 5 115 82
f 5 82 53
f 5 53 35
f 5 35 13
f 5 10 14
f 5 14 15
f 5 15 16
f 5 16 17
f 5 17 18
f 5 18 19
f 5 19 20
f 5 20 11
f 6 13 21
f 7 8 22
f 7 22 23
f 7 23 24
f 7 24 9
f 8 25 22
f 9 24 26
f 9 26 27
f 9 27 28
f 9 28 29
f 9 29 14
f 9 14 10
f 11 30 31
f 11 31 32
f 11 32 12
f 11 20 30
f 12 32 34
f 12 34 33
f 13 35 21
f 14 29 15
f 15 29 28
f 15 28 16
f 16 28 17
f 17 28 36
f 17 36 37
f 17 37 18
f 18 37 38
f 18 38 19
f 19 38 20
f 20 38 39
f 20 39 30
f 21 35 40
f 22 25 41
f 22 41 42
f 22 42 23
f 23 43 24
f 23 42 44
f 23 44 43
f 24 43 26
f 26 45 27
f 26 43 45
f 27 45 46
f 27 46 36
f 27 36 28
f 30 39 47
f 30 47 31
f 31 47 48
f 31 48 49
f 31 49 32
f 32 49 34
f 33 34 50
f 34 51 50
f 34 49 52
f 34 52 51
f 35 53 83
f 35 83 116
f 35 116 154
f 35 154 202
f 35 202 201
f 35 201 247
f 35 247 284
f 35 284 289
f 35 289 288
f 35 288 327
f 35 327 364
f 35 364 400
f 35 400 402
f 35 402 437
f 35 437 489
f 35 489 435
f 35 435 487
f 35 487 488
f 35 488 539
f 35 539 586
f 35 586 587
f 35 587 591
f 35 591 545
f 35 545 544
f 35 544 590
f 35 590 632
f 35 632 672
f 35 672 706
f 35 706 708
f 35 708 707
f 35 707 712
f 35 712 711
f 35 711 710
f 35 710 751
f 35 751 788
f 35 788 792
f 35 792 832
f 35 832 831
f 35 831 868
f 35 868 906
f 35 906 942
f 35 942 980
f 35 980 988
f 35 988 981
f 35 981 944
f 35 944 943
f 35 943 908
f 35 908 907
f 35 907 869
f 35 869 833
f 35 833 794
f 35 794 793
f 35 793 755
f 35 755 717
f 35 717 716
f 35 716 673
f 35 673 633
f 35 633 592
f 35 592 547
f 35 547 496
f 35 496 447
f 35 447 411
f 35 411 377
f 35 377 338
f 35 338 299
f 35 299 259
f 35 259 213
f 35 213 168
f 35 168 167
f 35 167 127
f 35 127 93
f 35 93 84
f 35 84 54
f 35 54 40
f 36 46 55
f 36 55 38
f 36 38 37
f 38 55 56
f 38 56 57
f 38 57 39
f 39 58 59
f 39 59 60
f 39 60 47
f 39 57 61
f 39 61 58
f 40 54 62
f 41 63 42
f 42 63 64
f 42 64 44
f 43 44 65
f 43 65 66
f 43 66 67
f 43 67 45
f 44 64 68
f 44 68 69
f 44 69 65
f 45 70 71
f 45 71 46
f 45 67 72
f 45 72 70
f 46 71 55
f 47 60 73
f 47 73 48
f 48 73 49
f 49 73 74
f 49 74 75
f 49 75 52
f 50 51 76
f 51 77 78
f 51 78 76
f 51 52 79
f 51 79 80
f 51 80 77
f 52 75 81
f 52 81 79
f 53 82 83
f 54 84 62
f 55 71 85
f 55 85 56
f 56 85 86
f 56 86 87
f 56 87 61
f 56 61 57
f 58 61 88
f 58 88 89
f 58 89 59
f 59 89 60
f 60 89 90
f 60 90 73
f 61 87 91
f 61 91 92
f 61 92 88
f 62 84 93
f 62 93 94
f 63 95 64
f 64 95 96
f 64 96 97
f 64 97 68
f 65 69 66
f 66 69 98
f 66 98 99
f 66 99 100
f 66 100 67
f 67 100 72
f 68 97 69
f 69 97 101
f 69 101 102
f 69 102 98
f 70 103 85
f 70 85 71
f 70 72 104
f 70 104 103
f 72 100 105
f 72 105 104
f 73 90 106
f 73 106 107
f 73 107 74
f 74 107 75
f 75 107 108
f 75 108 81
f 77 80 109
f 79 81 80
f 80 81 110
f 80 110 111
f 80 111 112
f 80 112 109
f 81 108 113
f 81 113 114
f 81 114 110
f 82 115 83
f 83 115 116
f 85 103 117
f 85 117 86
f 86 117 118
f 86 118 91
f 86 91 87
f 88 119 120
f 88 120 121
f 88 121 89
f 88 92 122
f 88 122 119
f 89 121 123
f 89 123 124
f 89 124 90
f 90 124 106
f 91 118 125
f 91 125 126
f 91 126 122
f 91 122 92
f 93 127 94
f 94 127 128
f 95 129 96
f 96 129 97
f 97 129 130
f 97 130 131
f 97 131 101
f 98 102 99
f 99 102 132
f 99 132 133
f 99 133 134
f 99 134 105
f 99 105 100
f 101 131 135
f 101 135 136
f 101 136 102
f 102 136 132
f 103 104 137
f 103 137 117
f 104 105 137
f 105 134 138
f 105 138 139
f 105 139 137
f 106 124 123
f 106 123 140
f 106 140 107
f 107 140 141
f 107 141 142
f 107 142 108
f 108 142 143
f 108 143 113
f 110 114 144
f 110 144 111
f 111 145 112
f 111 144 145
f 113 143 114
f 114 143 146
f 114 146 147
f 114 147 148
f 114 148 144
f 115 149 150
f 115 150 151
f 115 151 152
f 115 152 153
f 115 153 116
f 116 153 154
f 117 155 118
f 117 137 155
f 118 155 156
f 118 156 125
f 119 157 120
f 119 122 157
f 120 157 158
f 120 158 159
f 120 159 160
f 120 160 161
f 120 161 162
f 120 162 121
f 121 162 123
f 122 126 163
f 122 163 164
f 122 164 157
f 123 162 165
f 123 165 140
f 125 156 166
f 125 166 163
f 125 163 126
f 127 167 128
f 128 167 168
f 128 168 169
f 129 170 130
f 130 171 172
f 130 172 173
f 130 173 174
f 130 174 175
f 130 175 131
f 130 170 171
f 131 175 135
f 132 136 176
f 132 176 177
f 132 177 133
f 133 177 178
f 133 178 179
f 133 179 180
f 133 180 138
f 133 138 134
f 135 175 176
f 135 176 136
f 137 139 181
f 137 181 182
f 137 182 155
f 138 180 183
f 138 183 181
f 138 181 139
f 140 165 184
f 140 184 141
f 141 184 142
f 142 184 185
f 142 185 186
f 142 186 143
f 143 186 187
f 143 187 146
f 144 188 145
f 144 148 189
f 144 189 188
f 145 188 190
f 145 190 191
f 146 187 147
f 147 187 192
f 147 192 193
f 147 193 194
f 147 194 189
f 147 189 148
f 149 195 150
f 150 195 196
f 150 196 197
f 150 197 198
f 150 198 151
f 151 198 199
f 151 199 152
f 152 199 200
f 152 200 201
f 152 201 153
f 153 201 202
f 153 202 154
f 155 182 203
f 155 203 156
f 156 204 166
f 156 203 204
f 157 205 206
f 157 206 158
f 157 164 207
f 157 207 205
f 158 206 208
f 158 208 209
f 158 209 159
f 159 209 160
f 160 209 161
f 161 209 165
f 161 165 162
f 163 166 210
f 163 210 211
f 163 211 207
f 163 207 164
f 165 209 184
f 166 204 212
f 166 212 210
f 168 213 169
f 169 213 214
f 172 215 173
f 173 215 216
f 173 216 174
f 174 216 217
f 174 217 218
f 174 218 219
f 174 219 176
f 174 176 175
f 176 219 220
f 176 220 221
f 176 221 177
f 177 221 178
f 178 221 220
f 178 220 222
f 178 222 223
f 178 223 224
f 178 224 179
f 179 224 225
f 179 225 180
f 180 225 226
f 180 226 183
f 181 227 203
f 181 203 182
f 181 183 228
f 181 228 227
f 183 226 229
f 183 229 228
f 184 209 208
f 184 208 230
f 184 230 185
f 185 230 186
f 186 230 231
f 186 231 187
f 187 231 232
f 187 232 233
f 187 233 192
f 188 189 234
f 188 234 190
f 189 194 234
f 190 235 191
f 190 234 236
f 190 236 235
f 192 233 237
f 192 237 193
f 193 237 238
f 193 238 239
f 193 239 194
f 194 239 240
f 194 240 234
f 196 241 236
f 196 236 197
f 197 242 243
f 197 243 198
f 197 236 242
f 198 243 199
f 199 244 245
f 199 245 246
f 199 246 200
f 199 243 244
f 200 247 201
f 200 246 248
f 200 248 249
f 200 249 247
f 203 250 204
f 203 227 251
f 203 251 250
f 204 250 252
f 204 252 212
f 205 253 206
f 205 207 253
f 206 253 208
f 207 211 254
f 207 254 255
f 207 255 256
f 207 256 253
f 208 253 256
f 208 256 230
f 210 212 257
f 210 257 254
f 210 254 211
f 212 258 257
f 212 252 258
f 213 259 260
f 213 260 214
f 215 261 216
f 216 261 262
f 216 262 263
f 216 263 264
f 216 264 265
f 216 265 217
f 217 265 218
f 218 265 266
f 218 266 267
f 218 267 268
f 218 268 219
f 219 268 220
f 220 268 222
f 222 268 269
f 222 269 223
f 223 270 225
f 223 225 224
f 223 269 271
f 223 271 270
f 225 272 273
f 225 273 226
f 225 270 274
f 225 274 272
f 226 273 229
f 227 228 251
f 228 229 275
f 228 275 251
f 229 273 276
f 229 276 275
f 230 256 231
f 231 256 277
f 231 277 278
f 231 278 232
f 232 278 233
f 233 278 279
f 233 279 237
f 234 240 242
f 234 242 236
f 235 236 280
f 236 241 280
f 237 279 281
f 237 281 282
f 237 282 238
f 238 282 245
f 238 245 244
f 238 244 243
f 238 243 239
f 239 243 240
f 240 243 242
f 245 282 283
f 245 283 248
f 245 248 246
f 247 249 284
f 248 283 285
f 248 285 286
f 248 286 249
f 249 286 287
f 249 287 288
f 249 288 289
f 249 289 284
f 250 251 252
f 251 290 252
f 251 275 291
f 251 291 290
f 252 292 258
f 252 290 293
f 252 293 292
f 254 257 294
f 254 294 295
f 254 295 255
f 255 295 296
f 255 296 256
f 256 296 277
f 257 258 297
f 257 297 298
f 257 298 294
f 258 292 297
f 259 299 260
f 260 299 300
f 263 301 302
f 263 302 264
f 264 302 303
f 264 303 265
f 265 303 304
f 265 304 266
f 266 304 267
f 267 304 305
f 267 305 306
f 267 306 307
f 267 307 268
f 268 307 269
f 269 307 271
f 270 271 308
f 270 308 274
f 271 307 309
f 271 309 310
f 271 310 308
f 272 311 273
f 272 274 311
f 273 311 276
f 274 312 311
f 274 308 313
f 274 313 314
f 274 314 312
f 275 276 315
f 275 315 291
f 276 311 315
f 277 296 316
f 277 316 278
f 278 316 295
f 278 295 317
f 278 317 318
f 278 318 319
f 278 319 320
f 278 320 279
f 279 320 321
f 279 321 281
f 281 321 282
f 282 321 322
f 282 322 283
f 283 322 285
f 285 322 323
f 285 323 324
f 285 324 325
f 285 325 326
f 285 326 286
f 286 326 327
f 286 327 287
f 287 327 288
f 290 291 293
f 291 315 328
f 291 328 329
f 291 329 293
f 292 330 297
f 292 293 331
f 292 331 330
f 293 329 332
f 293 332 331
f 294 298 333
f 294 333 334
f 294 334 295
f 295 335 317
f 295 316 296
f 295 334 335
f 297 336 333
f 297 333 298
f 297 330 337
f 297 337 336
f 299 338 339
f 299 339 300
f 301 340 302
f 302 340 341
f 302 341 303
f 303 341 342
f 303 342 343
f 303 343 304
f 304 343 344
f 304 344 305
f 305 344 306
f 306 344 345
f 306 345 346
f 306 346 307
f 307 346 309
f 308 310 313
f 309 346 310
f 310 346 347
f 310 347 348
f 310 348 349
f 310 349 313
f 311 350 351
f 311 351 315
f 311 312 352
f 311 352 350
f 312 314 353
f 312 353 352
f 313 349 354
f 313 354 314
f 314 354 353
f 315 351 328
f 317 335 318
f 318 335 355
f 318 355 319
f 319 355 320
f 320 355 334
f 320 334 356
f 320 356 357
f 320 357 321
f 321 357 322
f 322 357 323
f 323 357 358
f 323 358 359
f 323 359 324
f 324 359 360
f 324 360 361
f 324 361 362
f 324 362 325
f 325 362 326
f 326 362 363
f 326 363 364
f 326 364 327
f 328 351 365
f 328 365 366
f 328 366 367
f 328 367 332
f 328 332 329
f 330 331 368
f 330 368 337
f 331 369 368
f 331 332 370
f 331 370 369
f 332 367 371
f 332 371 372
f 332 372 370
f 333 336 373
f 333 373 374
f 333 374 334
f 334 374 356
f 334 355 335
f 336 337 375
f 336 375 376
f 336 376 373
f 337 368 375
f 338 377 339
f 339 377 378
f 340 379 380
f 340 380 341
f 341 380 381
f 341 381 342
f 342 381 343
f 343 381 382
f 343 382 344
f 344 382 383
f 344 383 345
f 345 383 384
f 345 384 385
f 345 385 386
f 345 386 346
f 346 386 387
f 346 387 347
f 347 387 348
f 348 387 388
f 348 388 389
f 348 389 390
f 348 390 354
f 348 354 349
f 350 365 351
f 350 352 365
f 352 391 365
f 352 353 392
f 352 392 391
f 353 354 393
f 353 393 394
f 353 394 392
f 354 390 395
f 354 395 393
f 356 374 359
f 356 359 358
f 356 358 357
f 359 374 373
f 359 373 396
f 359 396 360
f 360 396 397
f 360 397 398
f 360 398 361
f 361 363 362
f 361 398 399
f 361 399 363
f 363 400 364
f 363 399 401
f 363 401 402
f 363 402 400
f 365 403 366
f 365 391 404
f 365 404 403
f 366 403 405
f 366 405 367
f 367 405 371
f 368 369 375
f 369 406 376
f 369 376 375
f 369 370 406
f 370 372 407
f 370 407 408
f 370 408 406
f 371 405 372
f 372 405 409
f 372 409 410
f 372 410 407
f 373 376 397
f 373 397 396
f 376 406 397
f 377 411 412
f 377 412 378
f 378 412 413
f 378 413 414
f 379 415 380
f 380 415 416
f 380 416 417
f 380 417 381
f 381 417 382
f 382 417 418
f 382 418 419
f 382 419 383
f 383 419 420
f 383 420 384
f 384 420 385
f 385 420 421
f 385 421 422
f 385 422 423
f 385 423 386
f 386 423 387
f 387 423 388
f 388 423 424
f 388 424 425
f 388 425 389
f 389 426 395
f 389 395 390
f 389 425 426
f 391 392 404
f 392 394 427
f 392 427 404
f 393 395 394
f 394 428 427
f 394 395 429
f 394 429 430
f 394 430 428
f 395 426 431
f 395 431 429
f 397 406 432
f 397 432 433
f 397 433 398
f 398 433 434
f 398 434 399
f 399 435 436
f 399 436 401
f 399 434 435
f 401 436 437
f 401 437 402
f 403 438 405
f 403 404 439
f 403 439 438
f 404 427 439
f 405 438 409
f 406 408 440
f 406 440 432
f 407 410 441
f 407 441 440
f 407 440 408
f 409 438 439
f 409 439 442
f 409 442 410
f 410 443 441
f 410 442 444
f 410 444 445
f 410 445 443
f 411 446 412
f 411 447 448
f 411 448 446
f 412 446 449
f 412 449 450
f 412 450 451
f 412 451 452
f 412 452 453
f 412 453 454
f 412 454 413
f 413 454 453
f 413 453 455
f 413 455 456
f 413 456 457
f 413 457 458
f 413 458 459
f 413 459 460
f 413 460 461
f 413 461 462
f 413 462 463
f 413 463 464
f 413 464 465
f 413 465 414
f 414 465 466
f 415 467 468
f 415 468 416
f 416 468 417
f 417 468 469
f 417 469 470
f 417 470 418
f 418 470 419
f 419 470 471
f 419 471 472
f 419 472 420
f 420 472 473
f 420 473 421
f 421 473 422
f 422 473 474
f 422 474 475
f 422 475 423
f 423 475 424
f 424 475 425
f 425 475 476
f 425 476 477
f 425 477 426
f 426 477 431
f 427 428 478
f 427 478 479
f 427 479 439
f 428 430 480
f 428 480 478
f 429 431 481
f 429 481 430
f 430 481 480
f 431 477 482
f 431 482 483
f 431 483 484
f 431 484 481
f 432 440 433
f 433 440 485
f 433 485 486
f 433 486 434
f 434 487 435
f 434 486 488
f 434 488 487
f 435 489 436
f 436 489 437
f 439 479 442
f 440 441 490
f 440 490 485
f 441 443 491
f 441 491 490
f 442 479 444
f 443 445 492
f 443 492 491
f 444 479 493
f 444 493 445
f 445 493 494
f 445 494 495
f 445 495 492
f 446 448 449
f 447 496 497
f 447 497 448
f 448 497 498
f 448 498 499
f 448 499 449
f 449 499 450
f 450 499 451
f 451 499 498
f 451 498 500
f 451 500 501
f 451 501 452
f 452 501 502
f 452 502 453
f 453 502 503
f 453 503 504
f 453 504 455
f 455 504 505
f 455 505 456
f 456 505 506
f 456 506 507
f 456 507 508
f 456 508 458
f 456 458 457
f 458 508 459
f 459 508 509
f 459 509 510
f 459 510 460
f 460 510 511
f 460 511 461
f 461 511 512
f 461 512 462
f 462 512 513
f 462 513 463
f 463 513 464
f 464 513 514
f 464 514 465
f 465 514 515
f 465 515 466
f 466 515 516
f 467 517 468
f 468 517 518
f 468 518 519
f 468 519 520
f 468 520 469
f 469 520 521
f 469 521 470
f 470 521 522
f 470 522 471
f 471 522 472
f 472 522 523
f 472 523 524
f 472 524 473
f 473 524 525
f 473 525 474
f 474 525 526
f 474 526 475
f 475 526 527
f 475 527 476
f 476 527 528
f 476 528 529
f 476 529 477
f 477 529 530
f 477 530 482
f 478 531 479
f 478 480 532
f 478 532 531
f 479 531 533
f 479 533 493
f 480 481 532
f 481 484 534
f 481 534 532
f 482 530 483
f 483 535 484
f 483 530 536
f 483 536 537
f 483 537 535
f 484 535 534
f 485 490 538
f 485 538 486
f 486 538 488
f 488 538 539
f 490 491 538
f 491 540 538
f 491 492 541
f 491 541 540
f 492 495 541
f 493 533 494
f 494 533 542
f 494 542 495
f 495 542 543
f 495 543 544
f 495 544 545
f 495 545 546
f 495 546 541
f 496 547 497
f 497 547 548
f 497 548 549
f 497 549 498
f 498 549 550
f 498 550 500
f 500 550 501
f 501 550 551
f 501 551 503
f 501 503 502
f 503 551 552
f 503 552 553
f 503 553 504
f 504 553 554
f 504 554 505
f 505 554 555
f 505 555 506
f 506 555 507
f 507 556 509
f 507 509 508
f 507 555 557
f 507 557 558
f 507 558 556
f 509 556 559
f 509 559 510
f 510 559 511
f 511 559 560
f 511 560 561
f 511 561 512
f 512 561 513
f 513 561 562
f 513 562 563
f 513 563 514
f 514 563 564
f 514 564 515
f 515 564 516
f 516 564 565
f 516 565 566
f 518 567 519
f 519 567 568
f 519 568 569
f 519 569 520
f 520 569 521
f 521 569 570
f 521 570 571
f 521 571 522
f 522 571 523
f 523 571 572
f 523 572 573
f 523 573 524
f 524 573 574
f 524 574 525
f 525 575 526
f 525 574 575
f 526 575 576
f 526 576 527
f 527 576 528
f 528 576 577
f 528 577 578
f 528 578 530
f 528 530 529
f 530 578 536
f 531 532 533
f 532 579 533
f 532 534 580
f 532 580 579
f 533 579 542
f 534 535 580
f 535 537 581
f 535 581 582
f 535 582 580
f 536 578 583
f 536 583 537
f 537 583 584
f 537 584 585
f 537 585 581
f 538 540 586
f 538 586 539
f 540 541 587
f 540 587 586
f 541 546 587
f 542 579 588
f 542 588 589
f 542 589 543
f 543 589 544
f 544 589 590
f 545 591 546
f 546 591 587
f 547 592 593
f 547 593 548
f 548 593 549
f 549 593 594
f 549 594 595
f 549 595 550
f 550 595 596
f 550 596 551
f 551 596 597
f 551 597 552
f 552 597 553
f 553 597 598
f 553 598 554
f 554 598 555
f 555 598 599
f 555 599 557
f 556 558 559
f 557 599 600
f 557 600 558
f 558 601 559
f 558 600 602
f 558 602 603
f 558 603 601
f 559 601 604
f 559 604 560
f 560 604 561
f 561 604 605
f 561 605 606
f 561 606 562
f 562 606 607
f 562 607 563
f 563 607 564
f 564 607 565
f 565 607 649
f 565 649 608
f 565 608 566
f 566 608 609
f 567 610 568
f 568 610 569
f 569 610 611
f 569 611 612
f 569 612 570
f 570 612 571
f 571 612 613
f 571 613 614
f 571 614 572
f 572 614 615
f 572 615 573
f 573 615 574
f 574 616 575
f 574 615 617
f 574 617 616
f 575 616 618
f 575 618 576
f 576 618 577
f 577 619 578
f 577 618 620
f 577 620 619
f 578 619 621
f 578 621 583
f 579 580 622
f 579 622 588
f 580 582 623
f 580 623 622
f 581 623 582
f 581 585 624
f 581 624 625
f 581 625 623
f 583 621 626
f 583 626 627
f 583 627 628
f 583 628 584
f 584 628 585
f 585 628 629
f 585 629 630
f 585 630 624
f 588 622 589
f 589 622 631
f 589 631 632
f 589 632 590
f 592 633 593
f 593 633 634
f 593 634 635
f 593 635 594
f 594 635 595
f 595 635 636
f 595 636 596
f 596 636 637
f 596 637 597
f 597 637 638
f 597 638 639
f 597 639 598
f 598 639 640
f 598 640 599
f 599 640 641
f 599 641 600
f 600 641 642
f 600 642 602
f 601 603 643
f 601 643 604
f 602 642 644
f 602 644 645
f 602 645 603
f 603 645 646
f 603 646 643
f 604 643 647
f 604 647 605
f 605 647 648
f 605 648 606
f 606 648 607
f 607 648 649
f 608 649 650
f 608 650 651
f 608 651 609
f 610 652 611
f 611 652 653
f 611 653 654
f 611 654 612
f 612 654 613
f 613 654 655
f 613 655 614
f 614 655 656
f 614 656 657
f 614 657 615
f 615 657 658
f 615 658 617
f 616 617 659
f 616 659 660
f 616 660 618
f 617 658 659
f 618 660 661
f 618 661 620
f 619 626 621
f 619 620 662
f 619 662 663
f 619 663 626
f 620 661 662
f 622 623 631
f 623 664 631
f 623 625 664
f 624 665 666
f 624 666 625
f 624 630 667
f 624 667 665
f 625 666 664
f 626 663 668
f 626 668 627
f 627 668 628
f 628 668 669
f 628 669 670
f 628 670 629
f 629 670 671
f 629 671 630
f 630 671 667
f 631 664 672
f 631 672 632
f 633 673 674
f 633 674 634
f 634 674 675
f 634 675 635
f 635 675 636
f 636 675 676
f 636 676 677
f 636 677 637
f 637 677 638
f 638 677 678
f 638 678 639
f 639 678 679
f 639 679 640
f 640 679 641
f 641 679 680
f 641 680 681
f 641 681 642
f 642 681 644
f 643 646 682
f 643 682 647
f 644 681 683
f 644 683 684
f 644 684 645
f 645 684 646
f 646 684 685
f 646 685 686
f 646 686 682
f 647 682 648
f 648 682 687
f 648 687 688
f 648 688 649
f 649 688 650
f 650 688 689
f 650 689 690
f 650 690 651
f 651 690 691
f 652 692 693
f 652 693 653
f 653 693 654
f 654 693 694
f 654 694 695
f 654 695 655
f 655 695 696
f 655 696 656
f 656 696 657
f 657 696 697
f 657 697 658
f 658 698 659
f 658 697 699
f 658 699 700
f 658 700 698
f 659 698 701
f 659 701 660
f 660 701 661
f 661 702 662
f 661 701 703
f 661 703 702
f 662 702 663
f 663 702 704
f 663 704 705
f 663 705 668
f 664 666 706
f 664 706 672
f 665 707 708
f 665 708 666
f 665 667 707
f 666 708 706
f 667 671 709
f 667 709 710
f 667 710 711
f 667 711 712
f 667 712 707
f 668 705 669
f 669 705 713
f 669 713 714
f 669 714 670
f 670 714 715
f 670 715 671
f 671 715 709
f 673 716 674
f 674 716 717
f 674 717 718
f 674 718 719
f 674 719 675
f 675 719 676
f 676 719 720
f 676 720 721
f 676 721 677
f 677 721 722
f 677 722 678
f 678 722 679
f 679 722 723
f 679 723 724
f 679 724 680
f 680 724 681
f 681 724 725
f 681 725 726
f 681 726 683
f 682 686 727
f 682 727 687
f 683 726 684
f 684 726 728
f 684 728 729
f 684 729 685
f 685 729 686
f 686 729 730
f 686 730 767
f 686 767 727
f 687 727 688
f 688 727 689
f 689 727 731
f 689 731 690
f 690 731 732
f 690 732 733
f 690 733 691
f 692 734 693
f 693 734 735
f 693 735 736
f 693 736 694
f 694 736 737
f 694 737 695
f 695 737 696
f 696 737 738
f 696 738 697
f 697 738 739
f 697 739 740
f 697 740 699
f 698 700 701
f 699 740 700
f 700 740 741
f 700 741 742
f 700 742 743
f 700 743 701
f 701 743 744
f 701 744 703
f 702 703 745
f 702 745 704
f 703 744 746
f 703 746 745
f 704 745 747
f 704 747 748
f 704 748 705
f 705 748 749
f 705 749 713
f 709 715 750
f 709 750 751
f 709 751 710
f 713 749 752
f 713 752 714
f 714 752 715
f 715 752 753
f 715 753 754
f 715 754 750
f 717 755 718
f 718 755 756
f 718 756 719
f 719 756 757
f 719 757 758
f 719 758 720
f 720 758 759
f 720 759 721
f 721 759 722
f 722 759 760
f 722 760 761
f 722 761 723
f 723 761 762
f 723 762 724
f 724 762 763
f 724 763 764
f 724 764 725
f 725 764 726
f 726 764 765
f 726 765 766
f 726 766 728
f 727 767 731
f 728 766 729
f 729 766 768
f 729 768 769
f 729 769 730
f 730 769 767
f 731 767 770
f 731 770 771
f 731 771 772
f 731 772 732
f 732 772 773
f 732 773 733
f 734 774 735
f 735 774 775
f 735 775 776
f 735 776 736
f 736 776 737
f 737 776 777
f 737 777 738
f 738 777 778
f 738 778 779
f 738 779 739
f 739 779 740
f 740 779 780
f 740 780 781
f 740 781 741
f 741 781 742
f 742 781 782
f 742 782 783
f 742 783 784
f 742 784 744
f 742 744 743
f 744 784 785
f 744 785 746
f 745 746 747
f 746 785 786
f 746 786 747
f 747 786 748
f 748 786 749
f 749 786 787
f 749 787 752
f 750 754 751
f 751 754 788
f 752 787 789
f 752 789 790
f 752 790 753
f 753 790 754
f 754 790 791
f 754 791 792
f 754 792 788
f 755 793 756
f 756 793 794
f 756 794 795
f 756 795 796
f 756 796 757
f 757 796 797
f 757 797 758
f 758 797 759
f 759 797 798
f 759 798 799
f 759 799 760
f 760 799 800
f 760 800 761
f 761 800 762
f 762 800 799
f 762 799 801
f 762 801 802
f 762 802 763
f 763 802 764
f 764 802 803
f 764 803 765
f 765 803 804
f 765 804 805
f 765 805 766
f 766 805 806
f 766 806 768
f 767 769 770
f 768 806 769
f 769 806 807
f 769 807 808
f 769 808 770
f 770 808 809
f 770 809 771
f 771 809 772
f 772 809 810
f 772 810 773
f 773 810 811
f 774 812 775
f 775 812 813
f 775 813 776
f 776 813 814
f 776 814 815
f 776 815 777
f 777 815 778
f 778 815 816
f 778 816 779
f 779 816 817
f 779 817 818
f 779 818 780
f 780 818 819
f 780 819 781
f 781 819 782
f 782 819 820
f 782 820 783
f 783 820 821
f 783 821 822
f 783 822 823
f 783 823 785
f 783 785 784
f 785 823 824
f 785 824 825
f 785 825 786
f 786 825 826
f 786 826 787
f 787 826 827
f 787 827 789
f 789 827 828
f 789 828 829
f 789 829 790
f 790 829 791
f 791 829 830
f 791 830 831
f 791 831 832
f 791 832 792
f 794 833 834
f 794 834 795
f 795 834 835
f 795 835 796
f 796 835 797
f 797 835 836
f 797 836 837
f 797 837 798
f 798 837 838
f 798 838 799
f 799 838 801
f 801 838 839
f 801 839 840
f 801 840 802
f 802 840 841
f 802 841 803
f 803 841 842
f 803 842 804
f 804 842 843
f 804 843 805
f 805 843 806
f 806 843 844
f 806 844 845
f 806 845 807
f 807 845 846
f 807 846 808
f 808 846 809
f 809 846 847
f 809 847 848
f 809 848 810
f 810 848 849
f 810 849 811
f 812 850 813
f 813 850 851
f 813 851 852
f 813 852 814
f 814 852 853
f 814 853 854
f 814 854 815
f 815 854 855
f 815 855 816
f 816 855 856
f 816 856 817
f 817 856 818
f 818 856 857
f 818 857 819
f 819 857 858
f 819 858 859
f 819 859 820
f 820 859 821
f 821 859 860
f 821 860 822
f 822 861 824
f 822 824 823
f 822 860 862
f 822 862 861
f 824 863 826
f 824 826 825
f 824 861 863
f 826 863 864
f 826 864 827
f 827 864 865
f 827 865 828
f 828 865 829
f 829 865 866
f 829 866 867
f 829 867 830
f 830 867 831
f 831 867 868
f 833 869 834
f 834 869 870
f 834 870 871
f 834 871 835
f 835 871 872
f 835 872 836
f 836 872 873
f 836 873 837
f 837 873 874
f 837 874 838
f 838 874 839
f 839 874 875
f 839 875 840
f 840 875 876
f 840 876 841
f 841 876 877
f 841 877 878
f 841 878 842
f 842 878 879
f 842 879 843
f 843 879 844
f 844 879 880
f 844 880 881
f 844 881 845
f 845 881 882
f 845 882 846
f 846 882 883
f 846 883 847
f 847 883 848
f 848 884 849
f 848 883 885
f 848 885 886
f 848 886 884
f 851 887 852
f 852 887 888
f 852 888 889
f 852 889 853
f 853 889 854
f 854 889 890
f 854 890 891
f 854 891 855
f 855 891 892
f 855 892 856
f 856 892 893
f 856 893 857
f 857 893 858
f 858 893 894
f 858 894 895
f 858 895 859
f 859 895 896
f 859 896 860
f 860 896 862
f 861 897 863
f 861 862 898
f 861 898 899
f 861 899 897
f 862 896 900
f 862 900 901
f 862 901 898
f 863 897 902
f 863 902 864
f 864 902 865
f 865 902 903
f 865 903 904
f 865 904 866
f 866 904 867
f 867 904 905
f 867 905 906
f 867 906 868
f 869 907 870
f 870 907 908
f 870 908 909
f 870 909 871
f 871 909 910
f 871 910 911
f 871 911 872
f 872 911 873
f 873 911 912
f 873 912 913
f 873 913 874
f 874 913 875
f 875 913 914
f 875 914 915
f 875 915 876
f 876 915 916
f 876 916 877
f 877 916 917
f 877 917 878
f 878 917 918
f 878 918 879
f 879 918 919
f 879 919 880
f 880 919 881
f 881 919 920
f 881 920 921
f 881 921 882
f 882 921 922
f 882 922 883
f 883 922 923
f 883 923 885
f 885 923 886
f 886 923 924
f 887 925 888
f 888 925 926
f 888 926 927
f 888 927 889
f 889 927 890
f 890 927 928
f 890 928 891
f 891 928 929
f 891 929 930
f 891 930 892
f 892 930 893
f 893 930 931
f 893 931 894
f 894 931 932
f 894 932 933
f 894 933 895
f 895 933 934
f 895 934 896
f 896 934 937
f 896 937 900
f 897 899 935
f 897 935 902
f 898 901 899
f 899 901 936
f 899 936 935
f 900 937 901
f 901 937 938
f 901 938 936
f 902 935 903
f 903 935 939
f 903 939 940
f 903 940 904
f 904 940 941
f 904 941 905
f 905 941 906
f 906 941 942
f 908 943 909
f 909 943 944
f 909 944 945
f 909 945 946
f 909 946 910
f 910 946 911
f 911 946 947
f 911 947 948
f 911 948 912
f 912 948 913
f 913 948 949
f 913 949 950
f 913 950 914
f 914 950 951
f 914 951 952
f 914 952 915
f 915 952 953
f 915 953 916
f 916 953 917
f 917 953 954
f 917 954 955
f 917 955 918
f 918 955 956
f 918 956 919
f 919 956 920
f 920 956 957
f 920 957 958
f 920 958 921
f 921 958 922
f 922 958 959
f 922 959 960
f 922 960 923
f 923 960 961
f 923 961 924
f 925 962 963
f 925 963 926
f 926 963 964
f 926 964 927
f 927 964 928
f 928 964 965
f 928 965 966
f 928 966 929
f 929 966 930
f 930 966 967
f 930 967 968
f 930 968 931
f 931 968 969
f 931 969 932
f 932 969 970
f 932 970 933
f 933 970 934
f 934 970 971
f 934 971 972
f 934 972 937
f 935 936 973
f 935 973 974
f 935 974 939
f 936 938 975
f 936 975 973
f 937 972 938
f 938 972 976
f 938 976 977
f 938 977 975
f 939 974 978
f 939 978 940
f 940 978 941
f 941 978 979
f 941 979 980
f 941 980 942
f 944 981 982
f 944 982 945
f 945 982 983
f 945 983 946
f 946 983 984
f 946 984 947
f 947 984 948
f 948 984 977
f 948 977 976
f 948 976 949
f 949 976 950
f 950 976 972
f 950 972 951
f 951 972 952
f 952 972 971
f 952 971 970
f 952 970 953
f 953 970 969
f 953 969 954
f 954 969 955
f 955 969 968
f 955 968 967
f 955 967 956
f 956 967 966
f 956 966 957
f 957 966 958
f 958 966 965
f 958 965 964
f 958 964 959
f 959 964 963
f 959 963 960
f 960 963 961
f 961 963 962
f 973 975 974
f 974 975 985
f 974 985 986
f 974 986 978
f 975 977 984
f 975 984 985
f 978 986 979
f 979 986 987
f 979 987 980
f 980 987 988
f 981 988 982
f 982 988 987
f 982 987 986
f 982 986 983
f 983 986 984
f 984 986 985

