# https://github.com/mikedh/trimesh
v 0.16584083 -0.46347171 0.25727916
v 0.16584083 -0.46383238 0.25727916
v 0.16584083 -0.46281588 0.25722873
v -0.22842136 -0.43635416 0.25732952
v 0.14299400 -0.47137415 0.25732952
v 0.16584083 -0.46481609 0.25722873
v 0.16584083 -0.46183217 0.25712800
v -0.22842136 -0.43425560 0.25712800
v -0.22842136 -0.43527210 0.25722873
v -0.21055298 -0.44530591 0.25732952
v -0.22842136 -0.43740347 0.25722873
v 0.11968406 -0.47780102 0.25732952
v 0.11987703 -0.47871915 0.25722873
v 0.14353430 -0.47314480 0.25712800
v 0.16584083 -0.46583259 0.25707763
v 0.16584083 -0.46088126 0.25692648
v -0.22842136 -0.43323910 0.25692648
v -0.18882532 -0.45596272 0.25722873
v -0.18847799 -0.45507741 0.25732952
v -0.21136342 -0.44697821 0.25712800
v -0.22842136 -0.43841997 0.25712800
v 0.09606537 -0.48308024 0.25732952
v 0.12010857 -0.47960448 0.25712800
v 0.09645130 -0.48491651 0.25712800
v 0.12034014 -0.48048982 0.25692648
v 0.14376585 -0.47399735 0.25692648
v 0.16584083 -0.46678349 0.25692648
v 0.16584083 -0.45993036 0.25662422
v -0.22842136 -0.43228820 0.25662422
v -0.16590132 -0.46379960 0.25732952
v -0.18917266 -0.45681527 0.25712800
v -0.16651879 -0.46553749 0.25712800
v -0.21178794 -0.44779795 0.25692648
v -0.22842136 -0.43940365 0.25692648
v 0.07225373 -0.48721182 0.25732952
v 0.07236951 -0.48816273 0.25722873
v 0.07252388 -0.48908085 0.25712800
v 0.09660567 -0.48580182 0.25692648
v 0.09676005 -0.48665437 0.25662422
v 0.12053309 -0.48130956 0.25662422
v 0.14403600 -0.47481710 0.25662422
v 0.16584083 -0.46763605 0.25662422
v 0.16584083 -0.45911059 0.25622118
v -0.22842136 -0.43140286 0.25622118
v -0.14297730 -0.47137415 0.25732952
v -0.18955860 -0.45763505 0.25692648
v -0.16682753 -0.46639001 0.25692648
v -0.14347900 -0.47314480 0.25712800
v -0.22842136 -0.44035459 0.25662422
v -0.21209668 -0.44855213 0.25662422
v -0.18982874 -0.45842201 0.25662422
v 0.04824913 -0.49019572 0.25732952
v 0.04836490 -0.49114662 0.25722873
v 0.04844209 -0.49206477 0.25712800
v 0.07263966 -0.48996618 0.25692648
v 0.07279403 -0.49078596 0.25662422
v 0.07287122 -0.49157292 0.25622118
v 0.09691441 -0.48740855 0.25622118
v 0.12072606 -0.48206374 0.25622118
v 0.14422897 -0.47557127 0.25622118
v 0.16584083 -0.46845579 0.25622118
v 0.16584083 -0.45832363 0.25576782
v -0.22842136 -0.43058309 0.25576782
v -0.11986032 -0.47871915 0.25722873
v -0.11966736 -0.47780102 0.25732952
v -0.12013047 -0.47960448 0.25712800
v -0.16713628 -0.46717697 0.25662422
v -0.14378774 -0.47399735 0.25692648
v -0.12036203 -0.48048982 0.25692648
v -0.22842136 -0.44146946 0.25612044
v -0.21248260 -0.44927353 0.25622118
v -0.19017607 -0.45917618 0.25622118
v 0.02416733 -0.49199918 0.25732952
v 0.02420592 -0.49295008 0.25722873
v 0.02424451 -0.49383545 0.25712800
v 0.02428311 -0.49475354 0.25692648
v 0.04855786 -0.49295008 0.25692648
v 0.04859646 -0.49376985 0.25662422
v 0.04871223 -0.49458963 0.25622118
v 0.07298699 -0.49229431 0.25576782
v 0.09706879 -0.48809713 0.25576782
v 0.12091902 -0.48275232 0.25576782
v 0.14446051 -0.47625989 0.25576782
v 0.16584083 -0.46920997 0.25576782
v 0.16584083 -0.45760223 0.25511289
v -0.22842136 -0.42982894 0.25511289
v -0.09624164 -0.48399836 0.25722873
v -0.09639601 -0.48491651 0.25712800
v -0.09604868 -0.48308024 0.25732952
v -0.14398071 -0.47481710 0.25662422
v -0.16736783 -0.46793115 0.25622118
v -0.09658897 -0.48580182 0.25692648
v -0.12055499 -0.48130956 0.25662422
v -0.22842136 -0.44202688 0.25576782
v -0.21275274 -0.44989654 0.25576782
v -0.19040762 -0.45979917 0.25576782
v -0.16759939 -0.46861976 0.25576782
v 0.00000835 -0.49258941 0.25732952
v 0.00000835 -0.49354032 0.25722873
v 0.00000835 -0.49445844 0.25712800
v 0.00000835 -0.49534380 0.25692648
v 0.02436029 -0.49560612 0.25662422
v 0.02436029 -0.49639308 0.25622118
v 0.04875083 -0.49527821 0.25576782
v 0.04882801 -0.49593401 0.25506252
v 0.07310276 -0.49291730 0.25506252
v 0.09718457 -0.48875296 0.25506252
v 0.12107340 -0.48337537 0.25506252
v 0.14461489 -0.47685009 0.25506252
v 0.16584083 -0.46983299 0.25511289
v 0.16584083 -0.45691365 0.25420606
v -0.22842136 -0.42910755 0.25420606
v -0.07235281 -0.48816273 0.25722873
v -0.07250718 -0.48908085 0.25712800
v -0.07223703 -0.48721182 0.25732952
v -0.14421226 -0.47557127 0.25622118
v -0.07262295 -0.48996618 0.25692648
v -0.09674335 -0.48662159 0.25662422
v -0.12074795 -0.48206374 0.25622118
v -0.09689771 -0.48740855 0.25622118
v -0.22842136 -0.44274828 0.25506252
v -0.21298431 -0.45048678 0.25506252
v -0.19063918 -0.46042222 0.25506252
v -0.14440522 -0.47625989 0.25576782
v -0.16786954 -0.46920997 0.25506252
v -0.02418922 -0.49199918 0.25732952
v -0.02422781 -0.49295008 0.25722873
v -0.02430500 -0.49386823 0.25712800
v -0.02434359 -0.49475354 0.25692648
v -0.02438219 -0.49560612 0.25662422
v 0.00000835 -0.49619633 0.25662422
v 0.00000835 -0.49698329 0.25622118
v 0.00000835 -0.49770468 0.25576782
v 0.02439889 -0.49708167 0.25576782
v 0.02443748 -0.49773747 0.25506252
v 0.02447607 -0.49829489 0.25415570
v 0.04890519 -0.49645865 0.25415570
v 0.07317995 -0.49347472 0.25415570
v 0.09730034 -0.48927760 0.25415570
v 0.12118918 -0.48390001 0.25415570
v 0.14480785 -0.47737473 0.25415570
v 0.16584083 -0.47045600 0.25415570
v 0.16584083 -0.16501510 -0.14327423
v -0.22842136 -0.16501510 -0.11627176
v -0.04830961 -0.49114662 0.25722873
v -0.04823242 -0.49019572 0.25732952
v -0.04838679 -0.49203199 0.25712800
v -0.04850257 -0.49295008 0.25692648
v -0.07273874 -0.49078596 0.25662422
v -0.04857976 -0.49380264 0.25662422
v -0.12090232 -0.48275232 0.25576782
v -0.07285451 -0.49157292 0.25622118
v -0.09705208 -0.48809713 0.25576782
v -0.07297029 -0.49229431 0.25576782
v -0.22842136 -0.44337130 0.25415570
v -0.21329305 -0.45097861 0.25415570
v -0.19090933 -0.46091405 0.25415570
v -0.14463678 -0.47685009 0.25506252
v -0.12101810 -0.48337537 0.25506252
v -0.16802391 -0.46970183 0.25415570
v -0.14475256 -0.47737473 0.25415570
v -0.04865694 -0.49458963 0.25622118
v -0.02442078 -0.49636027 0.25622118
v -0.02376470 -0.49639308 0.25622118
v -0.02376470 -0.49711445 0.25576782
v -0.02449796 -0.49773747 0.25506252
v 0.00000835 -0.49832767 0.25506252
v 0.00000835 -0.49888512 0.25415570
v 0.00000835 -0.49934417 0.25294667
v 0.02447607 -0.49872118 0.25294667
v 0.04894379 -0.49691772 0.25294667
v 0.07325714 -0.49390101 0.25294667
v 0.09737752 -0.48970386 0.25294667
v 0.12130494 -0.48432627 0.25294667
v 0.14492363 -0.47780102 0.25294667
v 0.16584083 -0.47091508 0.25294667
v 0.16584083 -0.16501510 -0.18972249
v -0.22842136 -0.16501510 -0.15707773
v -0.09716786 -0.48875296 0.25506252
v -0.04873413 -0.49527821 0.25576782
v -0.07308607 -0.49291730 0.25506252
v -0.04877272 -0.49593401 0.25506252
v -0.22842136 -0.44386315 0.25294667
v -0.21348602 -0.45140487 0.25294667
v -0.19106370 -0.46130753 0.25294667
v -0.16813968 -0.47012812 0.25294667
v -0.12117247 -0.48390001 0.25415570
v -0.14490694 -0.47780102 0.25294667
v -0.02442078 -0.49708167 0.25576782
v -0.02449796 -0.49829489 0.25415570
v -0.02376470 -0.49875396 0.25294667
v 0.00000835 -0.49967209 0.25143534
v 0.02451466 -0.49904907 0.25143534
v 0.04898238 -0.49724561 0.25143534
v 0.07329573 -0.49422890 0.25143534
v 0.09745471 -0.49003178 0.25143534
v 0.12138213 -0.48465419 0.25143534
v 0.14500082 -0.47812891 0.25143534
v 0.16584083 -0.47127575 0.25143534
v 0.16584083 -0.18301694 -0.18120867
v 0.15078971 -0.16501510 -0.25007504
v -0.22842136 -0.16944179 -0.15521376
v -0.14973101 -0.16501510 -0.25198936
v -0.09728364 -0.48927760 0.25415570
v -0.07316326 -0.49347472 0.25415570
v -0.04884990 -0.49645865 0.25415570
v -0.22842136 -0.44425660 0.25143534
v -0.21356320 -0.45170000 0.25143534
v -0.19117948 -0.46163544 0.25143534
v -0.16829406 -0.47045600 0.25143534
v -0.12128825 -0.48432627 0.25294667
v -0.14498413 -0.47812891 0.25143534
v -0.04888850 -0.49691772 0.25294667
v -0.02453655 -0.49872118 0.25294667
v -0.02376470 -0.49908185 0.25143534
v 0.00000835 -0.49990162 0.24952096
v 0.02451466 -0.49927860 0.24952096
v 0.04898238 -0.49744236 0.24952096
v 0.07329573 -0.49445844 0.24952096
v 0.09749331 -0.49026132 0.24952096
v 0.12142073 -0.48485091 0.24952096
v 0.14507800 -0.47832566 0.24952096
v 0.16584083 -0.47150528 0.24952096
v 0.16584083 -0.19537885 -0.17506258
v 0.16584083 -0.20206806 -0.17158651
v 0.16584083 -0.20492080 -0.17007518
v 0.16584083 -0.21265930 -0.16584346
v 0.16584083 -0.22249636 -0.16030191
v 0.16584083 -0.22364402 -0.15964699
v 0.16584083 -0.23275970 -0.15410544
v 0.16584083 -0.23600593 -0.15209033
v 0.16580224 -0.24367884 -0.14720370
v 0.16580224 -0.24826947 -0.14418103
v 0.16580224 -0.25486031 -0.13974778
v 0.16580224 -0.26630411 -0.13163698
v 0.15051956 -0.16501510 -0.25088108
v -0.22842136 -0.17183547 -0.15410544
v -0.14953804 -0.16501510 -0.25214052
v -0.14965382 -0.16514626 -0.25198936
v -0.22842136 -0.22941509 -0.12287125
v -0.22842136 -0.22843140 -0.12347578
v -0.22842136 -0.21502019 -0.13163698
v -0.22842136 -0.21174118 -0.13355133
v -0.22842136 -0.20705217 -0.13627173
v -0.22842136 -0.20331408 -0.13833721
v -0.22842136 -0.18747641 -0.14669992
v -0.22842136 -0.18629596 -0.14730445
v -0.09736083 -0.48970386 0.25294667
v -0.07320185 -0.49390101 0.25294667
v -0.22842136 -0.44448614 0.24952096
v -0.21364038 -0.45186394 0.24952096
v -0.19125666 -0.46183217 0.24952096
v -0.16837125 -0.47065276 0.24952096
v -0.14506130 -0.47835845 0.24952096
v -0.12136544 -0.48465419 0.25143534
v -0.07327903 -0.49422890 0.25143534
v -0.04892709 -0.49724561 0.25143534
v -0.02453655 -0.49904907 0.25143534
v -0.02457515 -0.49927860 0.24952096
v -0.02376470 -0.49931139 0.24952096
v 0.00000835 -0.50000000 0.24715321
v 0.02451466 -0.49934417 0.24715321
v 0.04898238 -0.49754071 0.24715321
v 0.07333432 -0.49452403 0.24715321
v 0.09753190 -0.49032688 0.24715321
v 0.12145932 -0.48494929 0.24715321
v 0.14511660 -0.47842401 0.24715321
v 0.16584083 -0.47160366 0.24715321
v 0.16580224 -0.35755926 -0.04443312
v 0.16580224 -0.34765664 -0.05632226
v 0.16580224 -0.34693524 -0.05717868
v 0.16580224 -0.33585215 -0.06957161
v 0.16580224 -0.32460511 -0.08141037
v 0.16580224 -0.31319410 -0.09264461
v 0.16580224 -0.31034136 -0.09531463
v 0.16580224 -0.30086499 -0.10392922
v 0.16580224 -0.29483157 -0.10911813
v 0.16580224 -0.28971630 -0.11345061
v 0.16580224 -0.27768230 -0.12312314
v 0.16580224 -0.27676418 -0.12382843
v 0.16584083 -0.43117332 0.08533993
v 0.15017222 -0.16501510 -0.25148559
v -0.14776278 -0.16501510 -0.25339997
v -0.14135641 -0.17229454 -0.25198936
v -0.22834417 -0.28407639 -0.08141037
v -0.22834417 -0.27840370 -0.08634739
v -0.22834417 -0.27328843 -0.09067988
v -0.22834417 -0.27086192 -0.09269498
v -0.22834417 -0.25731957 -0.10337506
v -0.22834417 -0.25207314 -0.10725415
v -0.22834417 -0.24344932 -0.11340024
v -0.22842136 -0.23600593 -0.11843801
v -0.14081612 -0.17170431 -0.25289619
v -0.09743801 -0.49003178 0.25143534
v -0.22842136 -0.44458452 0.24715321
v -0.21367897 -0.45196232 0.24715321
v -0.19129525 -0.46189776 0.24715321
v -0.16837125 -0.47075111 0.24715321
v -0.12140402 -0.48485091 0.24952096
v -0.14506130 -0.47842401 0.24715321
v -0.12144262 -0.48494929 0.24715321
v -0.09747660 -0.49026132 0.24952096
v -0.07327903 -0.49445844 0.24952096
v -0.04892709 -0.49744236 0.24952096
v -0.04892709 -0.49754071 0.24715321
v -0.02457515 -0.49934417 0.24715321
v -0.02376470 -0.49937698 0.24725395
v -0.02376470 -0.49937698 0.24710283
v -0.02376470 -0.49934417 0.24438243
v 0.00000835 -0.49993443 0.24438243
v 0.02451466 -0.49931139 0.24438243
v 0.04898238 -0.49750793 0.24438243
v 0.07329573 -0.49449122 0.24438243
v 0.09749331 -0.49029410 0.24438243
v 0.12145932 -0.48491651 0.24438243
v 0.14507800 -0.47835845 0.24438243
v 0.16584083 -0.47153807 0.24438243
v 0.16580224 -0.36460918 -0.03526437
v 0.15078971 -0.36418289 -0.04443312
v 0.16437431 -0.34765664 -0.05717868
v 0.16012911 -0.33870491 -0.06957161
v 0.10486449 -0.19626419 -0.25239241
v 0.11455125 -0.19118170 -0.25198936
v 0.12377487 -0.18534504 -0.25198936
v 0.13272837 -0.17901653 -0.25198936
v 0.14133452 -0.17229454 -0.25198936
v 0.14963193 -0.16514626 -0.25198936
v 0.14974771 -0.16501510 -0.25198936
v 0.16584083 -0.43622303 0.09863964
v 0.15553661 -0.43468189 0.08413086
v 0.16580224 -0.42471364 0.06952132
v 0.16580224 -0.41825396 0.05481102
v 0.16580224 -0.41126966 0.04005034
v 0.16580224 -0.40372792 0.02534004
v 0.16580224 -0.40028495 0.01909321
v 0.16580224 -0.39562872 0.01078088
v 0.16580224 -0.38687372 -0.00352640
v 0.16580224 -0.37756130 -0.01753141
v 0.16580224 -0.37287232 -0.02408051
v 0.16580224 -0.36775702 -0.03113339
v -0.14679797 -0.16501510 -0.25400448
v -0.14012145 -0.17085177 -0.25400448
v -0.22313416 -0.30096337 -0.06957161
v -0.22834417 -0.29689738 -0.06957161
v -0.13224855 -0.17839351 -0.25289619
v -0.22834417 -0.30004522 -0.06649856
v -0.22834417 -0.30939046 -0.05722906
v -0.22834417 -0.31014463 -0.05642302
v -0.22834417 -0.32112935 -0.04443312
v -0.22834417 -0.33254033 -0.03118377
v -0.22842136 -0.40153098 0.08533993
v -0.22842136 -0.44451892 0.24438243
v -0.21367897 -0.45189673 0.24438243
v -0.19125666 -0.46186495 0.24438243
v -0.16837125 -0.47068554 0.24438243
v -0.14506130 -0.47839123 0.24438243
v -0.09747660 -0.49032688 0.24715321
v -0.12144262 -0.48491651 0.24438243
v -0.07331762 -0.49452403 0.24715321
v -0.07331762 -0.49449122 0.24438243
v -0.04892709 -0.49747515 0.24438243
v -0.02457515 -0.49931139 0.24438243
v -0.02376470 -0.49914744 0.24105750
v 0.00000835 -0.49970490 0.24105750
v 0.02451466 -0.49911466 0.24105750
v 0.04898238 -0.49731117 0.24105750
v 0.07329573 -0.49426171 0.24105750
v 0.09745471 -0.49006456 0.24105750
v 0.12138213 -0.48471975 0.24105750
v 0.14503941 -0.47816169 0.24105750
v 0.16584083 -0.47134134 0.24105750
v 0.15437882 -0.37280673 -0.03113339
v 0.13276696 -0.37116721 -0.04443312
v 0.14708482 -0.35526395 -0.05717868
v 0.14330274 -0.34618106 -0.06957161
v 0.09510057 -0.20114993 -0.25239241
v 0.11412673 -0.19049311 -0.25289619
v 0.09471464 -0.20029739 -0.25345033
v 0.10440138 -0.19541164 -0.25345033
v 0.12335035 -0.18465646 -0.25289619
v 0.13226525 -0.17839351 -0.25289619
v 0.14083281 -0.17170431 -0.25289619
v 0.14855133 -0.16501510 -0.25289619
v 0.15881698 -0.44389594 0.11274541
v 0.15723467 -0.43950203 0.09863964
v 0.16584083 -0.44117433 0.11274541
v 0.13396333 -0.44176456 0.08413086
v 0.13234244 -0.43641976 0.06952132
v 0.15360697 -0.42940265 0.06952132
v 0.13546844 -0.44668311 0.09863964
v 0.15156156 -0.42372996 0.05481102
v 0.14936177 -0.41756538 0.04005034
v 0.14700763 -0.41097456 0.02534004
v 0.16414276 -0.39635012 0.01078088
v 0.16105534 -0.38893953 -0.00352640
v 0.15781356 -0.38106987 -0.01753141
v -0.14579457 -0.16501510 -0.25455862
v -0.13155389 -0.17750818 -0.25400448
v -0.13969693 -0.17032713 -0.25455862
v -0.12371958 -0.18534504 -0.25198936
v -0.20808305 -0.31155461 -0.06957161
v -0.12329506 -0.18465646 -0.25289619
v -0.12267758 -0.18373832 -0.25400448
v -0.21360178 -0.31975216 -0.05722906
v -0.21896616 -0.32778576 -0.04443312
v -0.22413757 -0.33552426 -0.03118377
v -0.22834417 -0.34185275 -0.01959689
v -0.22834417 -0.39461222 0.06957170
v -0.21757683 -0.40717089 0.08413086
v -0.22842136 -0.40694135 0.09863964
v -0.22834417 -0.34306601 -0.01798481
v -0.22834417 -0.35349330 -0.00347602
v -0.22834417 -0.36296967 0.01078088
v -0.22834417 -0.36929819 0.02115869
v -0.22834417 -0.37185583 0.02539042
v -0.22834417 -0.38015175 0.04005034
v -0.22834417 -0.38103709 0.04176319
v -0.22834417 -0.38766071 0.05481102
v -0.22842136 -0.44428942 0.24105750
v -0.21360178 -0.45173278 0.24105750
v -0.19121808 -0.46166822 0.24105750
v -0.16829406 -0.47048879 0.24105750
v -0.14498413 -0.47816169 0.24105750
v -0.12136544 -0.48471975 0.24105750
v -0.09747660 -0.49029410 0.24438243
v -0.07327903 -0.49426171 0.24105750
v -0.04892709 -0.49727839 0.24105750
v -0.04888850 -0.49691772 0.23707765
v -0.02453655 -0.49872118 0.23707765
v -0.02376470 -0.49875396 0.23707765
v 0.00000835 -0.49934417 0.23707765
v 0.02447607 -0.49872118 0.23707765
v 0.04894379 -0.49691772 0.23707765
v 0.07325714 -0.49390101 0.23707765
v 0.09737752 -0.48970386 0.23707765
v 0.12130494 -0.48435906 0.23707765
v 0.14492363 -0.47780102 0.23707765
v 0.16584083 -0.47094786 0.23707765
v 0.13589296 -0.37992221 -0.03113339
v 0.13890319 -0.38834929 -0.01753141
v 0.11439687 -0.37720063 -0.04443312
v 0.11161821 -0.36795378 -0.05717868
v 0.12948658 -0.36205155 -0.05717868
v 0.11705977 -0.38611954 -0.03113339
v 0.12612903 -0.35273913 -0.06957161
v 0.07507099 -0.20983934 -0.25198936
v 0.08498929 -0.20518313 -0.25289619
v 0.11385657 -0.19003405 -0.25345033
v 0.12304161 -0.18423018 -0.25345033
v 0.08475774 -0.20469128 -0.25345033
v 0.09444448 -0.19977275 -0.25400448
v 0.10413124 -0.19488700 -0.25400448
v 0.11354783 -0.18954219 -0.25400448
v 0.13195652 -0.17796725 -0.25345033
v 0.14052407 -0.17127804 -0.25345033
v 0.14785667 -0.16501510 -0.25339997
v 0.13681918 -0.45114255 0.11274541
v 0.16584083 -0.44566661 0.12654892
v 0.16020630 -0.44783074 0.12654892
v 0.13805415 -0.45514297 0.12654892
v 0.13238102 -0.44264990 0.08533993
v 0.11211990 -0.44783074 0.08413086
v 0.11080776 -0.44242036 0.06952132
v 0.13060577 -0.43064868 0.05481102
v 0.11335486 -0.45278209 0.09863964
v 0.12871473 -0.42438576 0.04005034
v 0.12666932 -0.41772932 0.02534004
v 0.14449911 -0.40389186 0.01078088
v 0.14179763 -0.39638290 -0.00352640
v -0.14467537 -0.16501510 -0.25511283
v -0.13070485 -0.17636052 -0.25511283
v -0.12233025 -0.18321368 -0.25455862
v -0.13919522 -0.16973689 -0.25511283
v -0.11434158 -0.19085380 -0.25239241
v -0.19253021 -0.32135889 -0.06957161
v -0.19762444 -0.32985154 -0.05722906
v -0.11353114 -0.18954219 -0.25400448
v -0.11383987 -0.19003405 -0.25339997
v -0.20260289 -0.33808190 -0.04443312
v -0.20738837 -0.34608269 -0.03118377
v -0.21201949 -0.35375562 -0.01748103
v -0.21495253 -0.40221956 0.06957170
v -0.19496155 -0.41228616 0.06957170
v -0.19735430 -0.41733587 0.08413086
v -0.19754726 -0.41772932 0.08533993
v -0.22000816 -0.41169593 0.09863964
v -0.22842136 -0.40894157 0.10392931
v -0.21638046 -0.36106783 -0.00347602
v -0.22050987 -0.36792099 0.01078088
v -0.22436912 -0.37438065 0.02539042
v -0.22795825 -0.38038129 0.04005034
v -0.20904785 -0.39110368 0.04005034
v -0.21209668 -0.39687476 0.05481102
v -0.22842136 -0.44415826 0.23974767
v -0.21348602 -0.45140487 0.23707765
v -0.19106370 -0.46134031 0.23707765
v -0.16813968 -0.47012812 0.23707765
v -0.14490694 -0.47780102 0.23707765
v -0.12128825 -0.48432627 0.23707765
v -0.09736083 -0.48970386 0.23707765
v -0.09743801 -0.49006456 0.24105750
v -0.07320185 -0.49390101 0.23707765
v -0.04884990 -0.49636027 0.23244292
v -0.02449796 -0.49816376 0.23244292
v -0.02376470 -0.49819654 0.23244292
v 0.00000835 -0.49878675 0.23244292
v 0.02443748 -0.49816376 0.23244292
v 0.04886661 -0.49636027 0.23244292
v 0.07314136 -0.49334359 0.23244292
v 0.09726174 -0.48917922 0.23244292
v 0.12118918 -0.48380160 0.23244292
v 0.14476927 -0.47727638 0.23244292
v 0.16584083 -0.47035766 0.23244292
v 0.11968406 -0.39467782 -0.01753141
v 0.09571804 -0.38231590 -0.04443312
v 0.09336390 -0.37297067 -0.05717868
v 0.09799501 -0.39139879 -0.03113339
v 0.09097115 -0.36339593 -0.06957161
v 0.10868517 -0.35851020 -0.06957161
v 0.10019478 -0.40008819 -0.01753141
v 0.06468958 -0.21328232 -0.25198936
v 0.07495522 -0.20951143 -0.25239241
v 0.07464647 -0.20862609 -0.25345033
v 0.12273288 -0.18373832 -0.25400448
v 0.08429462 -0.20354362 -0.25460905
v 0.09417434 -0.19918251 -0.25460905
v 0.10378391 -0.19432956 -0.25460905
v 0.11320050 -0.18898475 -0.25460905
v 0.12234695 -0.18321368 -0.25460905
v 0.13157058 -0.17750818 -0.25400448
v 0.14013815 -0.17085177 -0.25400448
v 0.14584985 -0.16501510 -0.25460905
v 0.11555465 -0.46134031 0.12654892
v 0.11451265 -0.45727435 0.11274541
v 0.16584083 -0.44969979 0.13984863
v 0.16147986 -0.45137209 0.13984863
v 0.13913473 -0.45874989 0.13984863
v 0.11644228 -0.46501285 0.13984863
v 0.09012211 -0.45317554 0.08533993
v 0.09000634 -0.45274928 0.08413086
v 0.08892574 -0.44730610 0.06952132
v 0.09104834 -0.45776618 0.09863964
v 0.08772937 -0.44137108 0.05481102
v 0.10930264 -0.43651813 0.05481102
v 0.10772035 -0.43018961 0.04005034
v 0.09193596 -0.46235681 0.11274541
v 0.10602227 -0.42340204 0.02534004
v 0.10420842 -0.41612262 0.01078088
v 0.12450814 -0.41051549 0.01078088
v 0.12219258 -0.40280980 -0.00352640
v -0.14340182 -0.16501510 -0.25566697
v -0.13865492 -0.16911389 -0.25566697
v -0.13020314 -0.17570472 -0.25566697
v -0.12144262 -0.18190207 -0.25566697
v -0.12190573 -0.18255788 -0.25511283
v -0.11279787 -0.18836175 -0.25511283
v -0.11318380 -0.18898475 -0.25455862
v -0.10480920 -0.19626419 -0.25239241
v -0.17655288 -0.33044177 -0.06957161
v -0.18122259 -0.33913118 -0.05722906
v -0.18577652 -0.34762385 -0.04443312
v -0.10407594 -0.19488700 -0.25400448
v -0.10434609 -0.19541164 -0.25339997
v -0.10376720 -0.19432956 -0.25455862
v -0.19017607 -0.35582140 -0.03118377
v -0.19442126 -0.36375663 -0.01748103
v -0.19237585 -0.40684298 0.05481102
v -0.17450747 -0.42136905 0.06957170
v -0.17682302 -0.42694339 0.08533993
v -0.19951548 -0.42199206 0.09863964
v -0.20152231 -0.42618921 0.11274541
v -0.22220795 -0.41576192 0.11274541
v -0.22842136 -0.41225338 0.11274541
v -0.19843489 -0.37126559 -0.00347602
v -0.20217837 -0.37834829 0.01078088
v -0.20572889 -0.38493910 0.02539042
v -0.18959717 -0.40094075 0.04005034
v -0.22842136 -0.44386315 0.23707765
v -0.22842136 -0.44369918 0.23561670
v -0.21325445 -0.45088023 0.23244292
v -0.19087073 -0.46081567 0.23244292
v -0.16802391 -0.46960348 0.23244292
v -0.14475256 -0.47727638 0.23244292
v -0.12117247 -0.48380160 0.23244292
v -0.09724505 -0.48914641 0.23244292
v -0.07312466 -0.49334359 0.23244292
v -0.04877272 -0.49560612 0.22710288
v -0.02445937 -0.49740958 0.22710288
v -0.02376470 -0.49747515 0.22725400
v 0.00000835 -0.49803257 0.22710288
v 0.02439889 -0.49740958 0.22710288
v 0.04878942 -0.49560612 0.22710288
v 0.07302558 -0.49258941 0.22710288
v 0.09710738 -0.48842505 0.22710288
v 0.12099621 -0.48308024 0.22710288
v 0.14453770 -0.47655499 0.22710288
v 0.16584083 -0.46957067 0.22710288
v 0.10224019 -0.40835133 -0.00352640
v 0.08518226 -0.38470960 -0.04443312
v 0.08518226 -0.37972546 -0.05093184
v 0.08518226 -0.37480694 -0.05717868
v 0.08518226 -0.36470756 -0.06957161
v 0.08518226 -0.39428434 -0.03113339
v 0.08518226 -0.40097353 -0.02125936
v 0.05415379 -0.21620065 -0.25198936
v 0.08043537 -0.40451488 -0.01753141
v 0.08205625 -0.41287637 -0.00352640
v 0.06445802 -0.21252814 -0.25289619
v 0.06430365 -0.21203628 -0.25345033
v 0.07441492 -0.20806867 -0.25400448
v 0.07418336 -0.20744565 -0.25460905
v 0.07368166 -0.20597009 -0.25566697
v 0.08367714 -0.20210084 -0.25566697
v 0.09351826 -0.19777253 -0.25566697
v 0.10308923 -0.19291958 -0.25566697
v 0.11285317 -0.18836175 -0.25511283
v 0.12149791 -0.18190207 -0.25566697
v 0.13076013 -0.17636052 -0.25511283
v 0.13118465 -0.17695075 -0.25460905
v 0.13971363 -0.17032713 -0.25460905
v 0.13874881 -0.16911389 -0.25566697
v 0.14345711 -0.16501510 -0.25566697
v 0.09351826 -0.47016090 0.13984863
v 0.09274641 -0.46645558 0.12654892
v 0.16584083 -0.45038840 0.14226677
v 0.16584083 -0.45333952 0.15264457
v 0.16263764 -0.45455274 0.15264457
v 0.14013815 -0.46196336 0.15264457
v 0.11729132 -0.46825907 0.15264457
v 0.09413575 -0.47347271 0.15264457
v 0.08518226 -0.45392972 0.08503766
v 0.06769980 -0.45661855 0.08413086
v 0.06685077 -0.45110977 0.06952132
v 0.06596313 -0.44514197 0.05481102
v 0.06847166 -0.46170104 0.09863964
v 0.08645581 -0.43497699 0.04005034
v 0.06916632 -0.46632445 0.11274541
v 0.08518226 -0.42805827 0.02544080
v 0.08518226 -0.42038533 0.01078088
v -0.14197388 -0.16501510 -0.25612032
v -0.13815323 -0.16842529 -0.25612032
v -0.12974003 -0.17501612 -0.25612032
v -0.11237335 -0.18764035 -0.25566697
v -0.12097951 -0.18114790 -0.25612032
v -0.10303394 -0.19291958 -0.25566697
v -0.10338128 -0.19364096 -0.25511283
v -0.09508386 -0.20114993 -0.25239241
v -0.09442779 -0.19977275 -0.25400448
v -0.09465934 -0.20029739 -0.25339997
v -0.16015102 -0.33867210 -0.06957161
v -0.16435760 -0.34759104 -0.05722906
v -0.16844843 -0.35631326 -0.04443312
v -0.17250066 -0.36477312 -0.03118377
v -0.09381030 -0.19849393 -0.25511283
v -0.09408046 -0.19918251 -0.25455862
v -0.17632133 -0.37287232 -0.01748103
v -0.16968340 -0.40976131 0.04005034
v -0.17219192 -0.41576192 0.05481102
v -0.15359026 -0.42940265 0.06957170
v -0.15548131 -0.43468189 0.08413086
v -0.15158346 -0.42372996 0.05481102
v -0.15721798 -0.43950203 0.09863964
v -0.17859828 -0.43127170 0.09863964
v -0.18041214 -0.43556720 0.11274541
v -0.20333615 -0.42999288 0.12654892
v -0.22417617 -0.41949999 0.12654892
v -0.22842136 -0.41710633 0.12654892
v -0.17994903 -0.38054523 -0.00347602
v -0.18334518 -0.38782465 0.01078088
v -0.18658696 -0.39461222 0.02539042
v -0.16702050 -0.40330163 0.02539042
v -0.22842136 -0.44324011 0.23244292
v -0.22842136 -0.44264990 0.22866458
v -0.21286853 -0.45019165 0.22710288
v -0.19052340 -0.46009430 0.22710288
v -0.16775376 -0.46891487 0.22710288
v -0.14455959 -0.47655499 0.22710288
v -0.12097951 -0.48308024 0.22710288
v -0.09712927 -0.48842505 0.22710288
v -0.07300888 -0.49258941 0.22710288
v -0.07289311 -0.49163848 0.22095679
v -0.04865694 -0.49462241 0.22095679
v -0.02442078 -0.49645865 0.22095679
v -0.02376470 -0.49649143 0.22105753
v 0.00000835 -0.49704885 0.22095679
v 0.02436029 -0.49645865 0.22095679
v 0.04871223 -0.49465519 0.22095679
v 0.07290980 -0.49163848 0.22095679
v 0.09695300 -0.48747414 0.22095679
v 0.12076466 -0.48212934 0.22095679
v 0.14426756 -0.47563684 0.22095679
v 0.16584083 -0.46852139 0.22095679
v 0.07684625 -0.38657862 -0.04443312
v 0.07491662 -0.37710226 -0.05717868
v 0.07306418 -0.36739635 -0.06957161
v 0.07866011 -0.39572710 -0.03113339
v 0.04327068 -0.21780735 -0.25289619
v 0.05396083 -0.21541367 -0.25289619
v 0.06171794 -0.41641772 -0.00352640
v 0.06044439 -0.40795785 -0.01753141
v 0.05913224 -0.39910448 -0.03113339
v 0.08363856 -0.42071325 0.01078088
v 0.05380646 -0.21492183 -0.25345033
v 0.05369068 -0.21436438 -0.25400448
v 0.06391773 -0.21082304 -0.25460905
v 0.06349321 -0.20931470 -0.25566697
v 0.06322306 -0.20849493 -0.25617075
v 0.07337292 -0.20515034 -0.25617075
v 0.08336841 -0.20128109 -0.25617075
v 0.09313234 -0.19695278 -0.25617075
v 0.10266471 -0.19213262 -0.25617075
v 0.11242865 -0.18764035 -0.25566697
v 0.11196554 -0.18688619 -0.25617075
v 0.13025844 -0.17570472 -0.25566697
v 0.12099621 -0.18114790 -0.25617075
v 0.12971814 -0.17501612 -0.25617075
v 0.13816991 -0.16842529 -0.25617075
v 0.14206778 -0.16501510 -0.25617075
v 0.07032410 -0.47419411 0.13984863
v 0.06978380 -0.47045600 0.12654892
v 0.07082580 -0.47753870 0.15264457
v 0.16584083 -0.45652017 0.16483599
v 0.16364105 -0.45737273 0.16483599
v 0.14098719 -0.46481609 0.16483599
v 0.11798598 -0.47117740 0.16483599
v 0.09471464 -0.47639102 0.16483599
v 0.07125032 -0.48048982 0.16483599
v 0.06777699 -0.45704481 0.08533993
v 0.04462142 -0.45386416 0.06952132
v 0.04705275 -0.45963523 0.08533993
v 0.04404253 -0.44783074 0.05481102
v 0.04338645 -0.44137108 0.04005034
v 0.06499832 -0.43868229 0.04005034
v 0.04574060 -0.46452099 0.09863964
v 0.06395632 -0.43176353 0.02534004
v 0.04662823 -0.47334152 0.12654892
v 0.04620371 -0.46914440 0.11274541
v -0.14058456 -0.16501510 -0.25652337
v -0.13753575 -0.16767111 -0.25652337
v -0.12912256 -0.17422916 -0.25652337
v -0.11191024 -0.18688619 -0.25612032
v -0.12040062 -0.18032815 -0.25652337
v -0.11144713 -0.18603364 -0.25652337
v -0.09346297 -0.19777253 -0.25566697
v -0.10260942 -0.19213262 -0.25612032
v -0.08524274 -0.20590451 -0.25198936
v -0.08489541 -0.20518313 -0.25289619
v -0.08423933 -0.20354362 -0.25455862
v -0.08450948 -0.20413384 -0.25400448
v -0.14332464 -0.34611550 -0.06957161
v -0.14714530 -0.35526395 -0.05722906
v -0.15081160 -0.36415011 -0.04443312
v -0.15436211 -0.37277395 -0.03118377
v -0.15783545 -0.38106987 -0.01748103
v -0.08396919 -0.20285502 -0.25511283
v -0.16103864 -0.38893953 -0.00347602
v -0.14934507 -0.41759819 0.04005034
v -0.13236433 -0.43641976 0.06957170
v -0.13398522 -0.44176456 0.08413086
v -0.13549033 -0.44668311 0.09863964
v -0.12865943 -0.42441854 0.04005034
v -0.13058907 -0.43061590 0.05481102
v -0.15880027 -0.44386315 0.11274541
v -0.16018961 -0.44783074 0.12654892
v -0.18199444 -0.43943647 0.12654892
v -0.20495704 -0.43340307 0.13984863
v -0.22595143 -0.42281181 0.13984863
v -0.22842136 -0.42143464 0.13984863
v -0.16416465 -0.39635012 0.01078088
v -0.14702952 -0.41097456 0.02539042
v -0.22842136 -0.44238758 0.22710288
v -0.21248260 -0.44930631 0.22095679
v -0.19017607 -0.45920897 0.22095679
v -0.16740642 -0.46799675 0.22095679
v -0.14425085 -0.47563684 0.22095679
v -0.12074795 -0.48212934 0.22095679
v -0.09693631 -0.48747414 0.22095679
v -0.07270014 -0.49045804 0.21390390
v -0.04854116 -0.49344194 0.21390390
v -0.02434359 -0.49524540 0.21390390
v 0.00000835 -0.49583563 0.21390390
v 0.02432170 -0.49524540 0.21390390
v 0.04859646 -0.49344194 0.21390390
v 0.07271684 -0.49045804 0.21390390
v 0.09668286 -0.48629367 0.21390390
v 0.12045591 -0.48094887 0.21390390
v 0.14392023 -0.47448921 0.21390390
v 0.16584083 -0.46717697 0.21350089
v 0.05778150 -0.38989043 -0.04443312
v 0.05635357 -0.38038129 -0.05717868
v 0.05492564 -0.37054420 -0.06957161
v 0.03373830 -0.21990594 -0.25239241
v 0.03373830 -0.21902061 -0.25339997
v 0.04319349 -0.21728271 -0.25345033
v 0.04118668 -0.41894257 -0.00352640
v 0.04033764 -0.41048270 -0.01753141
v 0.06287573 -0.42432016 0.01078088
v 0.04195853 -0.42691058 0.01078088
v 0.03948860 -0.40153098 -0.03113339
v 0.04307771 -0.21672529 -0.25400448
v 0.04296193 -0.21606949 -0.25460905
v 0.05349772 -0.21370858 -0.25460905
v 0.05334335 -0.21298720 -0.25511283
v 0.05311179 -0.21216744 -0.25566697
v 0.05291883 -0.21131490 -0.25617075
v 0.05268727 -0.21036398 -0.25652337
v 0.06295291 -0.20754403 -0.25652337
v 0.07306418 -0.20419942 -0.25652337
v 0.08298248 -0.20039575 -0.25652337
v 0.09270782 -0.19610023 -0.25652337
v 0.10216302 -0.19128007 -0.25652337
v 0.11146383 -0.18603364 -0.25652337
v 0.12045591 -0.18032815 -0.25652337
v 0.12913924 -0.17422916 -0.25652337
v 0.13755244 -0.16767111 -0.25652337
v 0.14121874 -0.16501510 -0.25642264
v 0.04697557 -0.47707963 0.13984863
v 0.04759305 -0.48340815 0.16483599
v 0.04732290 -0.48042423 0.15264457
v 0.16584083 -0.45934013 0.17632212
v 0.16452868 -0.45983195 0.17632212
v 0.14175904 -0.46734095 0.17632212
v 0.11864206 -0.47373503 0.17632212
v 0.09525493 -0.47898147 0.17632212
v 0.07163625 -0.48308024 0.17632212
v 0.04786319 -0.48603135 0.17632212
v 0.02262362 -0.46107799 0.08413086
v 0.02235347 -0.45550367 0.06952132
v 0.02204473 -0.44947028 0.05481102
v 0.04527749 -0.45983195 0.08533993
v 0.02266221 -0.46153706 0.08533993
v 0.02173599 -0.44294500 0.04005034
v 0.02138866 -0.43596071 0.02534004
v 0.04273038 -0.43438676 0.02534004
v 0.02312533 -0.47088230 0.11274541
v 0.02289377 -0.46622607 0.09863964
v 0.02351125 -0.47881752 0.13984863
v 0.02331829 -0.47504663 0.12654892
v -0.13896367 -0.16501510 -0.25687599
v -0.13684107 -0.16685136 -0.25687599
v -0.12846647 -0.17337662 -0.25687599
v -0.11982173 -0.17947559 -0.25687599
v -0.10214631 -0.19128007 -0.25652337
v -0.11086824 -0.18514830 -0.25687599
v -0.10164461 -0.19036195 -0.25687599
v -0.08366045 -0.20210084 -0.25566697
v -0.09307705 -0.19695278 -0.25612032
v -0.09269112 -0.19610023 -0.25652337
v -0.07509288 -0.20983934 -0.25198936
v -0.07439822 -0.20806867 -0.25400448
v -0.07455259 -0.20862609 -0.25339997
v -0.07489992 -0.20951143 -0.25239241
v -0.07416666 -0.20744565 -0.25455862
v -0.12615092 -0.35267353 -0.06957161
v -0.12946987 -0.36201876 -0.05722906
v -0.13275026 -0.37110165 -0.04443312
v -0.13591485 -0.37992221 -0.03118377
v -0.13892508 -0.38834929 -0.01748103
v -0.14181952 -0.39638290 -0.00347602
v -0.07362637 -0.20597009 -0.25566697
v -0.07389651 -0.20672427 -0.25511283
v -0.12669122 -0.41769654 0.02539042
v -0.11538358 -0.43484583 0.05481102
v -0.11075246 -0.44238758 0.06952132
v -0.11206461 -0.44779795 0.08413086
v -0.11538358 -0.44727331 0.08513842
v -0.13240293 -0.44264990 0.08533993
v -0.11337676 -0.45278209 0.09863964
v -0.11449595 -0.45727435 0.11274541
v -0.13676389 -0.45110977 0.11274541
v -0.10770365 -0.43018961 0.04005034
v -0.11538358 -0.42081162 0.02534004
v -0.13803744 -0.45514297 0.12654892
v -0.13915664 -0.45874989 0.13984863
v -0.16146316 -0.45137209 0.13984863
v -0.18346095 -0.44291222 0.13984863
v -0.20634638 -0.43645254 0.15264457
v -0.22753373 -0.42576295 0.15264457
v -0.22842136 -0.42530388 0.15264457
v -0.22842136 -0.42513990 0.15209042
v -0.14448240 -0.40389186 0.01078088
v -0.12449144 -0.41051549 0.01078088
v -0.22842136 -0.44130552 0.22095679
v -0.21194230 -0.44822425 0.21390390
v -0.18971296 -0.45809409 0.21390390
v -0.16702050 -0.46684909 0.21390390
v -0.14390352 -0.47445643 0.21390390
v -0.12043921 -0.48094887 0.21390390
v -0.09670475 -0.48629367 0.21390390
v -0.07246859 -0.48901528 0.20594423
v -0.04838679 -0.49199918 0.20594423
v -0.02426641 -0.49380264 0.20594423
v 0.00000835 -0.49439287 0.20594423
v 0.02424451 -0.49380264 0.20594423
v 0.04844209 -0.49199918 0.20594423
v 0.07252388 -0.48901528 0.20594423
v 0.09641270 -0.48485091 0.20594423
v 0.12010857 -0.47953892 0.20594423
v 0.14349571 -0.47307920 0.20594423
v 0.16584083 -0.46573421 0.20594423
v 0.03852379 -0.39225134 -0.04443312
v 0.03763615 -0.38264379 -0.05717868
v 0.03667134 -0.37280673 -0.06957161
v 0.02177459 -0.22144708 -0.25239241
v 0.03250334 -0.21967641 -0.25289619
v 0.02162022 -0.21990594 -0.25400448
v 0.03238755 -0.21856153 -0.25400448
v 0.03373830 -0.21767619 -0.25460905
v 0.02173599 -0.22102080 -0.25289619
v 0.02061681 -0.42048371 -0.00352640
v 0.02023088 -0.41195825 -0.01753141
v 0.01976777 -0.40300652 -0.03113339
v 0.02104133 -0.42845172 0.01078088
v 0.01934325 -0.39369410 -0.04443312
v 0.03373830 -0.21679085 -0.25521356
v 0.04280756 -0.21534809 -0.25511283
v 0.04265320 -0.21452834 -0.25566697
v 0.04246023 -0.21364301 -0.25617075
v 0.04230586 -0.21269208 -0.25652337
v 0.05241712 -0.20938027 -0.25687599
v 0.06264417 -0.20656031 -0.25687599
v 0.07271684 -0.20321572 -0.25687599
v 0.08259656 -0.19944485 -0.25687599
v 0.09224471 -0.19511653 -0.25687599
v 0.10169990 -0.19036195 -0.25687599
v 0.11092353 -0.18514830 -0.25687599
v 0.11987703 -0.17947559 -0.25687599
v 0.12852177 -0.17337662 -0.25687599
v 0.13689637 -0.16685136 -0.25687599
v 0.13898037 -0.16501510 -0.25687599
v 0.02366563 -0.48219490 0.15264457
v 0.02381999 -0.48517883 0.16483599
v 0.16584083 -0.46179938 0.18705256
v 0.16530053 -0.46199614 0.18705256
v 0.14241511 -0.46957067 0.18705256
v 0.11922094 -0.47596478 0.18705256
v 0.09567945 -0.48124397 0.18705256
v 0.07194499 -0.48534277 0.18705256
v 0.04809475 -0.48832667 0.18705256
v 0.02393577 -0.48780203 0.17632212
v 0.00000835 -0.46209449 0.08533993
v -0.00003024 -0.45606109 0.06952132
v -0.00003024 -0.45002770 0.05481102
v -0.00003024 -0.44350246 0.04005034
v -0.00003024 -0.43651813 0.02534004
v -0.00003024 -0.42900917 0.01078088
v 0.00000835 -0.47563684 0.12654892
v 0.00000835 -0.47143972 0.11274541
v 0.00000835 -0.46678349 0.09863964
v 0.00000835 -0.47940773 0.13984863
v -0.13699543 -0.16501510 -0.25712788
v -0.12781040 -0.17249128 -0.25707752
v -0.11920425 -0.17855747 -0.25707752
v -0.11028935 -0.18419738 -0.25707752
v -0.10110431 -0.18941103 -0.25707752
v -0.09176490 -0.19413282 -0.25707752
v -0.09222801 -0.19511653 -0.25687599
v -0.08327452 -0.20128109 -0.25612032
v -0.07331762 -0.20515034 -0.25612032
v -0.08296578 -0.20039575 -0.25652337
v -0.08254126 -0.19944485 -0.25687599
v -0.10866846 -0.35851020 -0.06957161
v -0.11538358 -0.35628045 -0.06957161
v -0.06440273 -0.21252814 -0.25289619
v -0.06409399 -0.21144606 -0.25400448
v -0.06366947 -0.21010166 -0.25511283
v -0.06386243 -0.21082304 -0.25455862
v -0.11538358 -0.36667496 -0.05722906
v -0.11434158 -0.37720063 -0.04443312
v -0.11538358 -0.38054523 -0.03949610
v -0.11712024 -0.38611954 -0.03118377
v -0.11970595 -0.39471060 -0.01748103
v -0.12217588 -0.40284258 -0.00347602
v -0.06339932 -0.20931470 -0.25566697
v -0.06316777 -0.20849493 -0.25612032
v -0.10924735 -0.43651813 0.05481102
v -0.08771268 -0.44137108 0.05481102
v -0.08887045 -0.44727331 0.06952132
v -0.09002823 -0.45274928 0.08413086
v -0.09010541 -0.45317554 0.08533993
v -0.09103164 -0.45776618 0.09863964
v -0.09191927 -0.46235681 0.11274541
v -0.09272971 -0.46648839 0.12654892
v -0.11557654 -0.46134031 0.12654892
v -0.10596698 -0.42340204 0.02534004
v -0.08647771 -0.43497699 0.04005034
v -0.11538358 -0.41304034 0.01078088
v -0.11646417 -0.46501285 0.13984863
v -0.11727461 -0.46829185 0.15264457
v -0.14008285 -0.46196336 0.15264457
v -0.16258235 -0.45455274 0.15264457
v -0.18469591 -0.44602728 0.15264457
v -0.20765853 -0.43914133 0.16483599
v -0.22842136 -0.42868125 0.16483599
v -0.22842136 -0.42733687 0.15994935
v -0.11538358 -0.40471160 -0.00352640
v -0.22842136 -0.44028902 0.21566713
v -0.22842136 -0.43838716 0.20594423
v -0.21132483 -0.44691265 0.20594423
v -0.18913408 -0.45674968 0.20594423
v -0.16648020 -0.46550468 0.20594423
v -0.14344041 -0.47307920 0.20594423
v -0.12013047 -0.47953892 0.20594423
v -0.09639601 -0.48485091 0.20594423
v -0.09608727 -0.48317862 0.19697699
v -0.07223703 -0.48731017 0.19697699
v -0.04823242 -0.49029410 0.19697699
v -0.02418922 -0.49209756 0.19697699
v 0.00000835 -0.49268776 0.19697699
v 0.02416733 -0.49209756 0.19697699
v 0.04828771 -0.49029410 0.19697699
v 0.07225373 -0.48734295 0.19697699
v 0.09606537 -0.48321140 0.19697699
v 0.11968406 -0.47789937 0.19697699
v 0.14299400 -0.47147250 0.19697699
v 0.16584083 -0.46347171 0.19470999
v 0.01884155 -0.38405377 -0.05717868
v 0.01837844 -0.37418392 -0.06957161
v 0.01089147 -0.22226682 -0.25239241
v 0.01081428 -0.22131592 -0.25339997
v 0.01081428 -0.22069290 -0.25400448
v 0.01077569 -0.22003710 -0.25455862
v 0.02154303 -0.21925013 -0.25455862
v 0.03227178 -0.21793851 -0.25455862
v 0.03219459 -0.21718435 -0.25511283
v -0.00003024 -0.42097557 -0.00352640
v -0.00003024 -0.41248289 -0.01753141
v -0.00003024 -0.40349838 -0.03113339
v -0.00003024 -0.39418596 -0.04443312
v 0.03204022 -0.21636459 -0.25566697
v 0.03373830 -0.21515135 -0.25617075
v 0.03373830 -0.21502019 -0.25622112
v 0.03373830 -0.21420044 -0.25652337
v 0.04203571 -0.21167558 -0.25687599
v 0.04184275 -0.21059352 -0.25712788
v 0.05214698 -0.20829821 -0.25712788
v 0.06233542 -0.20547824 -0.25712788
v 0.07233091 -0.20219922 -0.25712788
v 0.08213344 -0.19842835 -0.25712788
v 0.09178159 -0.19413282 -0.25712788
v 0.10119820 -0.18941103 -0.25712788
v 0.11034465 -0.18419738 -0.25712788
v 0.11925954 -0.17855747 -0.25712788
v 0.12786569 -0.17249128 -0.25712788
v 0.13620169 -0.16603160 -0.25712788
v 0.13732089 -0.16501510 -0.25712788
v 0.00000835 -0.48278514 0.15264457
v 0.00000835 -0.48576903 0.16483599
v 0.02405155 -0.49009734 0.18705256
v 0.00000835 -0.48839223 0.17632212
v 0.00000835 -0.49072036 0.18705256
v -0.00003024 -0.46209449 0.08533993
v -0.02237537 -0.45550367 0.06952132
v -0.02264552 -0.46107799 0.08413086
v -0.02206663 -0.44947028 0.05481102
v -0.02175789 -0.44294500 0.04005034
v -0.02141055 -0.43596071 0.02534004
v -0.02106322 -0.42845172 0.01078088
v -0.02063870 -0.42048371 -0.00352640
v -0.02376470 -0.47881752 0.13984863
v -0.02334018 -0.47504663 0.12654892
v -0.02314722 -0.47088230 0.11274541
v -0.02291567 -0.46622607 0.09863964
v -0.13552892 -0.16501510 -0.25722867
v -0.13545173 -0.16511348 -0.25722867
v -0.12719291 -0.17157315 -0.25722867
v -0.11858676 -0.17760655 -0.25722867
v -0.10971046 -0.18324646 -0.25722867
v -0.10060260 -0.18842733 -0.25722867
v -0.08207814 -0.19842835 -0.25707752
v -0.09126319 -0.19311632 -0.25722867
v -0.08165362 -0.19737905 -0.25722867
v -0.07297029 -0.20419942 -0.25652337
v -0.06285903 -0.20754403 -0.25652337
v -0.07266155 -0.20321572 -0.25687599
v -0.07231422 -0.20219922 -0.25707752
v -0.05402131 -0.21583995 -0.25239241
v -0.09099305 -0.36339593 -0.06957161
v -0.09338579 -0.37300348 -0.05717868
v -0.11156291 -0.36795378 -0.05717868
v -0.05363539 -0.21436438 -0.25400448
v -0.05328806 -0.21298720 -0.25511283
v -0.05348102 -0.21370858 -0.25455862
v -0.09570134 -0.38231590 -0.04443312
v -0.09797831 -0.39139879 -0.03113339
v -0.10013949 -0.40008819 -0.01753141
v -0.05309509 -0.21216744 -0.25566697
v -0.05263198 -0.21036398 -0.25652337
v -0.05290213 -0.21131490 -0.25612032
v -0.06590784 -0.44514197 0.05481102
v -0.06687266 -0.45110977 0.06952132
v -0.06768310 -0.45661855 0.08413086
v -0.06776029 -0.45704481 0.08533993
v -0.06845495 -0.46170104 0.09863964
v -0.06911103 -0.46629167 0.11274541
v -0.06972851 -0.47045600 0.12654892
v -0.07026881 -0.47419411 0.13984863
v -0.09350157 -0.47016090 0.13984863
v -0.10415313 -0.41612262 0.01078088
v -0.08362185 -0.42071325 0.01078088
v -0.08508837 -0.42805827 0.02534004
v -0.06390102 -0.43176353 0.02534004
v -0.06498162 -0.43868229 0.04005034
v -0.10214631 -0.40835133 -0.00352640
v -0.09415764 -0.47347271 0.15264457
v -0.09473652 -0.47639102 0.16483599
v -0.11796928 -0.47117740 0.16483599
v -0.14093189 -0.46481609 0.16483599
v -0.16362435 -0.45737273 0.16483599
v -0.18581511 -0.44878167 0.16483599
v -0.18689570 -0.45120814 0.17632212
v -0.20873912 -0.44150224 0.17632212
v -0.22842136 -0.43163240 0.17632212
v -0.22842136 -0.43645254 0.19697699
v -0.21063016 -0.44537148 0.19697699
v -0.18851659 -0.45517576 0.19697699
v -0.16593991 -0.46389794 0.19697699
v -0.14297730 -0.47147250 0.19697699
v -0.11966736 -0.47789937 0.19697699
v -0.09570134 -0.48124397 0.18705256
v -0.07192829 -0.48534277 0.18705256
v -0.04803946 -0.48832667 0.18705256
v -0.02376470 -0.49013013 0.18705256
v -0.00003024 -0.38451284 -0.05717868
v -0.00003024 -0.37461019 -0.06957161
v -0.00003024 -0.22252914 -0.25239241
v -0.00003024 -0.22210288 -0.25289619
v -0.00003024 -0.22098801 -0.25400448
v -0.00003024 -0.22029942 -0.25455862
v -0.00003024 -0.21957803 -0.25511283
v 0.01073710 -0.21928293 -0.25511283
v 0.02146585 -0.21849597 -0.25511283
v 0.02138866 -0.21770899 -0.25566697
v -0.02021418 -0.41195825 -0.01753141
v -0.01978966 -0.40300652 -0.03113339
v -0.01936514 -0.39369410 -0.04443312
v -0.01886344 -0.38405377 -0.05717868
v 0.02123429 -0.21583995 -0.25652337
v 0.03177007 -0.21452834 -0.25652337
v 0.02131148 -0.21679085 -0.25612032
v 0.03165430 -0.21347904 -0.25687599
v 0.03373830 -0.21311836 -0.25687599
v 0.03373830 -0.21203628 -0.25712788
v 0.04161119 -0.20951143 -0.25722867
v 0.05160668 -0.20606846 -0.25732940
v 0.06164076 -0.20331408 -0.25732940
v 0.07155906 -0.20003507 -0.25732940
v 0.08170892 -0.19737905 -0.25722867
v 0.09131848 -0.19311632 -0.25722867
v 0.10065790 -0.18842733 -0.25722867
v 0.10976575 -0.18324646 -0.25722867
v 0.10918687 -0.18226276 -0.25732940
v 0.11798598 -0.17662285 -0.25732940
v 0.12651496 -0.17065503 -0.25732940
v 0.12720962 -0.17157315 -0.25722867
v 0.13369317 -0.16501510 -0.25732940
v -0.02384189 -0.48517883 0.16483599
v -0.02368752 -0.48219490 0.15264457
v -0.02399626 -0.48780203 0.17632212
v -0.02268411 -0.46153706 0.08533993
v -0.02449796 -0.46140590 0.08533993
v -0.04456612 -0.45386416 0.06952132
v -0.04402583 -0.44783074 0.05481102
v -0.04340835 -0.44137108 0.04005034
v -0.04271368 -0.43438676 0.02534004
v -0.04194183 -0.42691058 0.01078088
v -0.04120857 -0.41894257 -0.00352640
v -0.04032094 -0.41048270 -0.01753141
v -0.04695886 -0.47707963 0.13984863
v -0.04657294 -0.47334152 0.12654892
v -0.02376470 -0.47494829 0.12629703
v -0.04614842 -0.46914440 0.11274541
v -0.04568531 -0.46452099 0.09863964
v -0.13359930 -0.16501510 -0.25732940
v -0.12649825 -0.17065503 -0.25732940
v -0.11793069 -0.17662285 -0.25732940
v -0.10913157 -0.18226276 -0.25732940
v -0.10006231 -0.18737803 -0.25732940
v -0.09072290 -0.19206704 -0.25732940
v -0.08130629 -0.19629698 -0.25732940
v -0.07192829 -0.20111714 -0.25722867
v -0.06255028 -0.20656031 -0.25687599
v -0.05236183 -0.20938027 -0.25687599
v -0.06224154 -0.20547824 -0.25707752
v -0.06197140 -0.20439616 -0.25722867
v -0.04333116 -0.21823364 -0.25239241
v -0.04321538 -0.21780735 -0.25289619
v -0.07297029 -0.36739635 -0.06957161
v -0.07493851 -0.37710226 -0.05717868
v -0.07682955 -0.38657862 -0.04443312
v -0.04290664 -0.21606949 -0.25455862
v -0.04302242 -0.21672529 -0.25400448
v -0.04279086 -0.21534809 -0.25511283
v -0.07864340 -0.39572710 -0.03113339
v -0.08038007 -0.40451488 -0.01753141
v -0.08200096 -0.41287637 -0.00352640
v -0.04259790 -0.21452834 -0.25566697
v -0.04225057 -0.21269208 -0.25652337
v -0.04240493 -0.21364301 -0.25612032
v -0.04522220 -0.45983195 0.08533993
v -0.04726761 -0.48042423 0.15264457
v -0.07077051 -0.47750592 0.15264457
v -0.06285903 -0.42432016 0.01078088
v -0.06170125 -0.41641772 -0.00352640
v -0.07123362 -0.48048982 0.16483599
v -0.09523823 -0.47898147 0.17632212
v -0.11862536 -0.47373503 0.17632212
v -0.14170374 -0.46734095 0.17632212
v -0.16451198 -0.45983195 0.17632212
v -0.18778333 -0.45333952 0.18705256
v -0.20974253 -0.44360083 0.18705256
v -0.22842136 -0.43422282 0.18705256
v -0.16528383 -0.46199614 0.18705256
v -0.14235982 -0.46953788 0.18705256
v -0.11920425 -0.47596478 0.18705256
v -0.07161955 -0.48308024 0.17632212
v -0.04780790 -0.48603135 0.17632212
v -0.01840033 -0.37418392 -0.06957161
v -0.01095195 -0.22226682 -0.25239241
v -0.01091336 -0.22131592 -0.25339997
v -0.01087477 -0.22069290 -0.25400448
v -0.01083617 -0.22003710 -0.25455862
v -0.01079758 -0.21928293 -0.25511283
v -0.01075899 -0.21849597 -0.25566697
v -0.00003024 -0.21875829 -0.25566697
v 0.01069850 -0.21849597 -0.25566697
v 0.01065991 -0.21761063 -0.25612032
v -0.03947190 -0.40153098 -0.03113339
v -0.03854568 -0.39225134 -0.04443312
v -0.03761945 -0.38264379 -0.05717868
v 0.01058273 -0.21662691 -0.25652337
v 0.01054414 -0.21557763 -0.25687599
v 0.02111851 -0.21479067 -0.25687599
v 0.02088696 -0.21259372 -0.25722867
v 0.03126837 -0.21128210 -0.25722867
v 0.03373830 -0.20970818 -0.25732940
v 0.02100274 -0.21370858 -0.25707752
v 0.04141823 -0.20833099 -0.25732940
v 0.08128440 -0.19629698 -0.25732940
v 0.09081678 -0.19206704 -0.25732940
v 0.10007901 -0.18737803 -0.25732940
v -0.04757635 -0.48340815 0.16483599
v -0.06038909 -0.40795785 -0.01753141
v -0.05911554 -0.39910448 -0.03113339
v -0.07154237 -0.20003507 -0.25732940
v -0.06162406 -0.20331408 -0.25732940
v -0.05209168 -0.20829821 -0.25707752
v -0.04182605 -0.21059352 -0.25707752
v -0.04205760 -0.21167558 -0.25687599
v -0.05186013 -0.20718333 -0.25722867
v -0.05490895 -0.37054420 -0.06957161
v -0.03248663 -0.21967641 -0.25289619
v -0.05637547 -0.38038129 -0.05717868
v -0.05776480 -0.38989043 -0.04443312
v -0.03225508 -0.21793851 -0.25455862
v -0.03237086 -0.21856153 -0.25400448
v -0.03206212 -0.21636459 -0.25566697
v -0.03213930 -0.21718435 -0.25511283
v -0.03175338 -0.21452834 -0.25652337
v -0.03186915 -0.21547925 -0.25612032
v -0.03661604 -0.37280673 -0.06957161
v -0.02187366 -0.22144708 -0.25239241
v -0.02183507 -0.22102080 -0.25289619
v -0.02171929 -0.21990594 -0.25400448
v -0.02164211 -0.21925013 -0.25455862
v -0.02156492 -0.21849597 -0.25511283
v -0.02152633 -0.21770899 -0.25566697
v -0.01072040 -0.21761063 -0.25612032
v -0.00003024 -0.21787295 -0.25612032
v -0.00003024 -0.21688923 -0.25652337
v -0.00003024 -0.21583995 -0.25687599
v -0.00003024 -0.21475787 -0.25707752
v 0.01050554 -0.21446276 -0.25707752
v 0.01042836 -0.21334788 -0.25722867
v 0.01038976 -0.21216744 -0.25732940
v 0.02077118 -0.21141326 -0.25732940
v 0.03111400 -0.21013445 -0.25732940
v -0.05155139 -0.20606846 -0.25732940
v -0.04163308 -0.20951143 -0.25722867
v -0.03144464 -0.21239698 -0.25707752
v -0.03156041 -0.21347904 -0.25687599
v -0.02121759 -0.21479067 -0.25687599
v -0.02125618 -0.21583995 -0.25652337
v -0.02137196 -0.21679085 -0.25612032
v -0.01068180 -0.21662691 -0.25652337
v -0.01064321 -0.21557763 -0.25687599
v -0.01056603 -0.21446276 -0.25707752
v -0.01052743 -0.21334788 -0.25722867
v -0.00003024 -0.21361022 -0.25722867
v -0.00003024 -0.21246256 -0.25732940
v -0.04136294 -0.20833099 -0.25732940
v -0.03129026 -0.21128210 -0.25722867
v -0.03121308 -0.21013445 -0.25732940
v -0.02106322 -0.21370858 -0.25707752
v -0.02098603 -0.21259372 -0.25722867
v -0.01045025 -0.21216744 -0.25732940
v -0.02083166 -0.21141326 -0.25732940
f 1 2 6
f 1 6 15
f 1 15 27
f 1 27 42
f 1 42 61
f 1 61 84
f 1 84 110
f 1 110 142
f 1 142 176
f 1 176 199
f 1 199 223
f 1 223 268
f 1 268 317
f 1 317 371
f 1 371 438
f 1 438 513
f 1 513 597
f 1 597 692
f 1 692 788
f 1 788 900
f 1 900 1016
f 1 1016 933
f 1 933 820
f 1 820 722
f 1 722 626
f 1 626 625
f 1 625 535
f 1 535 458
f 1 458 386
f 1 386 329
f 1 329 281
f 1 281 231
f 1 231 230
f 1 230 229
f 1 229 228
f 1 228 227
f 1 227 226
f 1 226 225
f 1 225 224
f 1 224 200
f 1 200 177
f 1 177 143
f 1 143 111
f 1 111 85
f 1 85 62
f 1 62 43
f 1 43 28
f 1 28 16
f 1 16 7
f 1 7 3
f 1 3 4
f 1 4 5
f 1 5 2
f 2 5 6
f 3 7 8
f 3 8 9
f 3 9 4
f 4 10 19
f 4 19 30
f 4 30 45
f 4 45 65
f 4 65 89
f 4 89 115
f 4 115 146
f 4 146 126
f 4 126 98
f 4 98 73
f 4 73 52
f 4 52 35
f 4 35 22
f 4 22 12
f 4 12 5
f 4 9 8
f 4 8 17
f 4 17 29
f 4 29 44
f 4 44 63
f 4 63 86
f 4 86 112
f 4 112 144
f 4 144 178
f 4 178 202
f 4 202 237
f 4 237 247
f 4 247 246
f 4 246 245
f 4 245 244
f 4 244 243
f 4 243 242
f 4 242 241
f 4 241 240
f 4 240 292
f 4 292 351
f 4 351 410
f 4 410 487
f 4 487 573
f 4 573 667
f 4 667 768
f 4 768 880
f 4 880 879
f 4 879 995
f 4 995 994
f 4 994 1113
f 4 1113 1212
f 4 1212 1114
f 4 1114 998
f 4 998 997
f 4 997 883
f 4 883 771
f 4 771 673
f 4 673 672
f 4 672 579
f 4 579 578
f 4 578 494
f 4 494 419
f 4 419 352
f 4 352 295
f 4 295 250
f 4 250 207
f 4 207 183
f 4 183 155
f 4 155 121
f 4 121 94
f 4 94 70
f 4 70 49
f 4 49 34
f 4 34 21
f 4 21 11
f 4 11 10
f 5 12 13
f 5 13 14
f 5 14 6
f 6 14 15
f 7 16 17
f 7 17 8
f 10 18 19
f 10 11 20
f 10 20 18
f 11 21 20
f 12 22 24
f 12 24 13
f 13 23 14
f 13 24 23
f 14 23 25
f 14 25 26
f 14 26 27
f 14 27 15
f 16 28 29
f 16 29 17
f 18 30 19
f 18 20 31
f 18 31 32
f 18 32 30
f 20 21 33
f 20 33 31
f 21 34 33
f 22 35 36
f 22 36 24
f 23 24 25
f 24 37 38
f 24 38 25
f 24 36 37
f 25 38 39
f 25 39 40
f 25 40 41
f 25 41 26
f 26 41 27
f 27 41 42
f 28 43 44
f 28 44 29
f 30 32 45
f 31 33 46
f 31 46 47
f 31 47 32
f 32 48 45
f 32 47 68
f 32 68 48
f 33 34 49
f 33 49 50
f 33 50 51
f 33 51 46
f 35 52 53
f 35 53 36
f 36 53 37
f 37 53 54
f 37 54 77
f 37 77 55
f 37 55 38
f 38 55 39
f 39 56 57
f 39 57 58
f 39 58 59
f 39 59 40
f 39 55 56
f 40 59 60
f 40 60 41
f 41 60 61
f 41 61 42
f 43 62 63
f 43 63 44
f 45 64 65
f 45 48 66
f 45 66 64
f 46 51 67
f 46 67 47
f 47 67 68
f 48 68 69
f 48 69 66
f 49 70 71
f 49 71 50
f 50 71 72
f 50 72 51
f 51 72 67
f 52 73 53
f 53 73 74
f 53 74 54
f 54 74 75
f 54 75 76
f 54 76 77
f 55 77 56
f 56 78 79
f 56 79 57
f 56 77 78
f 57 79 80
f 57 80 58
f 58 80 81
f 58 81 82
f 58 82 59
f 59 82 83
f 59 83 60
f 60 83 61
f 61 83 84
f 62 85 86
f 62 86 63
f 64 87 89
f 64 89 65
f 64 66 88
f 64 88 87
f 66 69 88
f 67 90 68
f 67 72 91
f 67 91 116
f 67 116 90
f 68 90 93
f 68 93 69
f 69 92 88
f 69 93 92
f 70 94 95
f 70 95 71
f 71 95 72
f 72 95 96
f 72 96 97
f 72 97 91
f 73 98 74
f 74 98 99
f 74 99 100
f 74 100 75
f 75 100 76
f 76 100 101
f 76 101 102
f 76 102 77
f 77 102 78
f 78 102 79
f 79 103 134
f 79 134 104
f 79 104 80
f 79 102 103
f 80 104 105
f 80 105 106
f 80 106 107
f 80 107 81
f 81 107 82
f 82 107 108
f 82 108 83
f 83 108 109
f 83 109 110
f 83 110 84
f 85 111 112
f 85 112 86
f 87 113 89
f 87 88 114
f 87 114 113
f 88 92 114
f 89 113 115
f 90 116 93
f 91 97 116
f 92 117 114
f 92 93 118
f 92 118 117
f 93 116 119
f 93 119 120
f 93 120 118
f 94 121 95
f 95 121 122
f 95 122 123
f 95 123 96
f 96 123 97
f 97 124 116
f 97 123 125
f 97 125 124
f 98 126 127
f 98 127 99
f 99 127 128
f 99 128 100
f 100 128 129
f 100 129 101
f 101 129 130
f 101 130 131
f 101 131 102
f 102 131 132
f 102 132 103
f 103 132 133
f 103 133 134
f 104 134 105
f 105 135 136
f 105 136 137
f 105 137 138
f 105 138 106
f 105 134 135
f 106 138 107
f 107 138 139
f 107 139 140
f 107 140 108
f 108 140 141
f 108 141 109
f 109 141 142
f 109 142 110
f 111 143 112
f 112 143 144
f 113 145 146
f 113 146 115
f 113 114 145
f 114 147 145
f 114 117 148
f 114 148 147
f 116 124 119
f 117 118 149
f 117 149 150
f 117 150 148
f 118 120 149
f 119 124 151
f 119 151 153
f 119 153 120
f 120 152 149
f 120 153 154
f 120 154 152
f 121 155 156
f 121 156 122
f 122 156 123
f 123 156 157
f 123 157 125
f 124 125 158
f 124 158 159
f 124 159 151
f 125 157 160
f 125 160 161
f 125 161 158
f 126 146 145
f 126 145 127
f 127 145 128
f 128 145 147
f 128 147 148
f 128 148 129
f 129 148 150
f 129 150 130
f 130 150 162
f 130 162 163
f 130 163 164
f 130 164 132
f 130 132 131
f 132 164 165
f 132 165 133
f 133 165 166
f 133 166 167
f 133 167 135
f 133 135 134
f 135 167 136
f 136 167 168
f 136 168 169
f 136 169 170
f 136 170 171
f 136 171 137
f 137 171 138
f 138 171 172
f 138 172 173
f 138 173 139
f 139 173 174
f 139 174 140
f 140 174 175
f 140 175 141
f 141 175 142
f 142 175 176
f 143 177 201
f 143 201 236
f 143 236 282
f 143 282 328
f 143 328 383
f 143 383 456
f 143 456 532
f 143 532 622
f 143 622 718
f 143 718 816
f 143 816 930
f 143 930 1046
f 143 1046 1156
f 143 1156 1174
f 143 1174 1064
f 143 1064 951
f 143 951 839
f 143 839 738
f 143 738 640
f 143 640 551
f 143 551 470
f 143 470 397
f 143 397 341
f 143 341 283
f 143 283 238
f 143 238 203
f 143 203 178
f 143 178 144
f 149 152 150
f 150 152 162
f 151 159 179
f 151 179 153
f 152 154 162
f 153 179 154
f 154 180 162
f 154 179 181
f 154 181 182
f 154 182 180
f 155 183 184
f 155 184 156
f 156 184 157
f 157 184 185
f 157 185 186
f 157 186 160
f 158 161 187
f 158 187 159
f 159 187 179
f 160 186 188
f 160 188 161
f 161 188 187
f 162 180 189
f 162 189 163
f 163 189 165
f 163 165 164
f 165 189 166
f 166 189 180
f 166 180 182
f 166 182 190
f 166 190 168
f 166 168 167
f 168 190 169
f 169 191 215
f 169 215 192
f 169 192 193
f 169 193 170
f 169 190 191
f 170 193 194
f 170 194 171
f 171 194 195
f 171 195 172
f 172 195 196
f 172 196 173
f 173 196 197
f 173 197 174
f 174 197 198
f 174 198 175
f 175 198 199
f 175 199 176
f 177 200 201
f 178 203 202
f 179 187 204
f 179 204 205
f 179 205 181
f 181 205 182
f 182 205 206
f 182 206 190
f 183 207 184
f 184 207 208
f 184 208 209
f 184 209 185
f 185 209 210
f 185 210 186
f 186 210 188
f 187 188 211
f 187 211 204
f 188 210 212
f 188 212 255
f 188 255 211
f 190 206 213
f 190 213 214
f 190 214 191
f 191 214 258
f 191 258 215
f 192 215 260
f 192 260 216
f 192 216 217
f 192 217 193
f 193 217 194
f 194 217 218
f 194 218 219
f 194 219 195
f 195 219 220
f 195 220 196
f 196 220 197
f 197 220 221
f 197 221 222
f 197 222 198
f 198 222 223
f 198 223 199
f 200 224 201
f 201 224 225
f 201 225 226
f 201 226 227
f 201 227 228
f 201 228 229
f 201 229 230
f 201 230 231
f 201 231 232
f 201 232 233
f 201 233 234
f 201 234 235
f 201 235 236
f 202 203 237
f 203 238 239
f 203 239 240
f 203 240 241
f 203 241 242
f 203 242 243
f 203 243 244
f 203 244 245
f 203 245 246
f 203 246 247
f 203 247 237
f 204 211 248
f 204 248 205
f 205 248 249
f 205 249 213
f 205 213 206
f 207 250 208
f 208 250 251
f 208 251 252
f 208 252 209
f 209 252 253
f 209 253 210
f 210 253 254
f 210 254 212
f 211 255 294
f 211 294 248
f 212 254 255
f 213 249 256
f 213 256 257
f 213 257 214
f 214 257 258
f 215 258 259
f 215 259 260
f 216 260 261
f 216 261 217
f 217 261 262
f 217 262 263
f 217 263 218
f 218 263 219
f 219 263 264
f 219 264 265
f 219 265 220
f 220 265 266
f 220 266 221
f 221 266 267
f 221 267 222
f 222 267 223
f 223 267 268
f 231 269 270
f 231 270 271
f 231 271 272
f 231 272 273
f 231 273 274
f 231 274 275
f 231 275 276
f 231 276 277
f 231 277 278
f 231 278 279
f 231 279 280
f 231 280 235
f 231 235 234
f 231 234 233
f 231 233 232
f 231 281 269
f 235 280 236
f 236 280 279
f 236 279 278
f 236 278 277
f 236 277 276
f 236 276 282
f 238 283 239
f 239 284 285
f 239 285 286
f 239 286 287
f 239 287 288
f 239 288 289
f 239 289 290
f 239 290 291
f 239 291 292
f 239 292 240
f 239 283 293
f 239 293 284
f 248 294 256
f 248 256 249
f 250 295 296
f 250 296 251
f 251 296 252
f 252 296 297
f 252 297 298
f 252 298 253
f 253 298 254
f 254 299 255
f 254 298 300
f 254 300 301
f 254 301 299
f 255 299 302
f 255 302 294
f 256 294 302
f 256 302 303
f 256 303 257
f 257 303 304
f 257 304 259
f 257 259 258
f 259 304 305
f 259 305 306
f 259 306 307
f 259 307 260
f 260 307 261
f 261 307 308
f 261 308 309
f 261 309 310
f 261 310 311
f 261 311 262
f 262 311 312
f 262 312 263
f 263 312 264
f 264 312 313
f 264 313 314
f 264 314 265
f 265 314 315
f 265 315 266
f 266 315 267
f 267 315 316
f 267 316 317
f 267 317 268
f 269 318 319
f 269 319 320
f 269 320 270
f 269 281 318
f 270 320 271
f 271 320 272
f 272 321 322
f 272 322 273
f 272 320 321
f 273 322 323
f 273 323 324
f 273 324 325
f 273 325 326
f 273 326 274
f 274 326 327
f 274 327 328
f 274 328 282
f 274 282 275
f 275 282 276
f 281 329 330
f 281 330 331
f 281 331 332
f 281 332 333
f 281 333 334
f 281 334 335
f 281 335 336
f 281 336 337
f 281 337 338
f 281 338 339
f 281 339 340
f 281 340 318
f 283 341 342
f 283 342 293
f 284 343 344
f 284 344 285
f 284 293 345
f 284 345 343
f 285 344 292
f 285 292 286
f 286 292 287
f 287 292 288
f 288 292 289
f 289 292 290
f 290 292 291
f 292 344 346
f 292 346 347
f 292 347 348
f 292 348 349
f 292 349 350
f 292 350 351
f 293 342 345
f 295 352 353
f 295 353 296
f 296 353 354
f 296 354 297
f 297 354 298
f 298 354 355
f 298 355 356
f 298 356 300
f 299 301 302
f 300 356 358
f 300 358 301
f 301 357 302
f 301 358 425
f 301 425 357
f 302 357 359
f 302 359 303
f 303 359 305
f 303 305 304
f 305 359 360
f 305 360 361
f 305 361 362
f 305 362 306
f 306 362 308
f 306 308 307
f 308 362 309
f 309 362 363
f 309 363 310
f 310 363 364
f 310 364 365
f 310 365 311
f 311 365 366
f 311 366 312
f 312 366 313
f 313 366 367
f 313 367 314
f 314 367 368
f 314 368 369
f 314 369 315
f 315 369 370
f 315 370 316
f 316 370 371
f 316 371 317
f 318 340 372
f 318 372 319
f 319 373 374
f 319 374 320
f 319 372 373
f 320 374 375
f 320 375 321
f 321 375 376
f 321 376 322
f 322 377 323
f 322 376 378
f 322 378 379
f 322 379 377
f 323 377 380
f 323 380 324
f 324 380 381
f 324 381 325
f 325 381 382
f 325 382 326
f 326 382 327
f 327 382 383
f 327 383 328
f 329 384 385
f 329 385 330
f 329 386 384
f 330 387 388
f 330 388 389
f 330 389 331
f 330 385 390
f 330 390 387
f 331 389 391
f 331 391 332
f 332 391 333
f 333 391 392
f 333 392 393
f 333 393 334
f 334 393 394
f 334 394 335
f 335 394 336
f 336 394 395
f 336 395 337
f 337 395 396
f 337 396 338
f 338 396 339
f 339 396 372
f 339 372 340
f 341 397 342
f 342 398 345
f 342 397 399
f 342 399 398
f 343 400 401
f 343 401 347
f 343 347 346
f 343 346 344
f 343 345 400
f 345 402 400
f 345 398 403
f 345 403 402
f 347 401 404
f 347 404 348
f 348 404 405
f 348 405 349
f 349 405 350
f 350 406 407
f 350 407 351
f 350 405 406
f 351 408 409
f 351 409 410
f 351 407 411
f 351 411 412
f 351 412 413
f 351 413 414
f 351 414 415
f 351 415 416
f 351 416 417
f 351 417 418
f 351 418 408
f 352 419 420
f 352 420 353
f 353 420 354
f 354 420 421
f 354 421 355
f 355 421 422
f 355 422 356
f 356 422 423
f 356 423 424
f 356 424 358
f 357 425 360
f 357 360 359
f 358 424 425
f 360 425 501
f 360 501 426
f 360 426 427
f 360 427 361
f 361 427 362
f 362 427 363
f 363 427 428
f 363 428 429
f 363 429 430
f 363 430 431
f 363 431 364
f 364 431 365
f 365 431 432
f 365 432 433
f 365 433 366
f 366 433 434
f 366 434 367
f 367 434 368
f 368 434 435
f 368 435 436
f 368 436 369
f 369 436 370
f 370 436 437
f 370 437 438
f 370 438 371
f 372 439 373
f 372 396 440
f 372 440 439
f 373 441 442
f 373 442 443
f 373 443 374
f 373 439 444
f 373 444 441
f 374 443 375
f 375 443 445
f 375 445 446
f 375 446 447
f 375 447 376
f 376 447 378
f 377 379 448
f 377 448 449
f 377 449 380
f 378 450 451
f 378 451 452
f 378 452 379
f 378 447 450
f 379 452 453
f 379 453 448
f 380 449 454
f 380 454 381
f 381 454 455
f 381 455 382
f 382 455 456
f 382 456 383
f 384 457 390
f 384 390 385
f 384 386 458
f 384 458 459
f 384 459 460
f 384 460 457
f 387 461 462
f 387 462 463
f 387 463 388
f 387 390 461
f 388 463 464
f 388 464 389
f 389 464 391
f 390 457 465
f 390 465 462
f 390 462 461
f 391 464 466
f 391 466 392
f 392 466 467
f 392 467 393
f 393 467 468
f 393 468 394
f 394 468 469
f 394 469 395
f 395 469 396
f 396 469 440
f 397 470 399
f 398 399 471
f 398 471 472
f 398 472 403
f 399 470 473
f 399 473 471
f 400 474 475
f 400 475 401
f 400 402 474
f 401 475 476
f 401 476 404
f 402 403 477
f 402 477 478
f 402 478 474
f 403 472 477
f 404 476 405
f 405 479 480
f 405 480 406
f 405 476 479
f 406 480 407
f 407 480 481
f 407 481 411
f 408 482 409
f 408 418 482
f 409 482 483
f 409 483 484
f 409 484 485
f 409 485 486
f 409 486 410
f 410 486 487
f 411 481 488
f 411 488 412
f 412 488 413
f 413 488 489
f 413 489 414
f 414 489 490
f 414 490 415
f 415 490 416
f 416 490 491
f 416 491 417
f 417 491 492
f 417 492 493
f 417 493 418
f 418 493 482
f 419 494 495
f 419 495 420
f 420 495 421
f 421 495 496
f 421 496 422
f 422 496 497
f 422 497 498
f 422 498 423
f 423 498 424
f 424 498 499
f 424 499 500
f 424 500 501
f 424 501 425
f 426 501 500
f 426 500 502
f 426 502 428
f 426 428 427
f 428 502 503
f 428 503 504
f 428 504 429
f 429 504 505
f 429 505 430
f 430 505 506
f 430 506 431
f 431 506 432
f 432 506 507
f 432 507 433
f 433 507 508
f 433 508 434
f 434 508 509
f 434 509 510
f 434 510 435
f 435 510 436
f 436 510 511
f 436 511 512
f 436 512 437
f 437 512 438
f 438 512 513
f 439 440 514
f 439 514 444
f 440 469 514
f 441 515 516
f 441 516 442
f 441 444 517
f 441 517 515
f 442 516 518
f 442 518 519
f 442 519 443
f 443 519 445
f 444 514 520
f 444 520 517
f 445 519 521
f 445 521 446
f 446 521 522
f 446 522 447
f 447 522 523
f 447 523 450
f 448 453 524
f 448 524 449
f 449 524 454
f 450 523 525
f 450 525 451
f 451 525 526
f 451 526 452
f 452 526 527
f 452 527 528
f 452 528 453
f 453 528 529
f 453 529 524
f 454 524 529
f 454 529 530
f 454 530 531
f 454 531 455
f 455 531 456
f 456 531 532
f 457 460 533
f 457 533 534
f 457 534 465
f 458 535 459
f 459 535 536
f 459 536 537
f 459 537 460
f 460 537 538
f 460 538 533
f 462 539 540
f 462 540 541
f 462 541 463
f 462 465 542
f 462 542 539
f 463 541 543
f 463 543 544
f 463 544 464
f 464 544 545
f 464 545 466
f 465 534 546
f 465 546 542
f 466 545 467
f 467 547 548
f 467 548 549
f 467 549 468
f 467 545 547
f 468 549 469
f 469 550 514
f 469 549 550
f 470 551 552
f 470 552 473
f 471 473 552
f 471 552 553
f 471 553 554
f 471 554 555
f 471 555 472
f 472 555 556
f 472 556 557
f 472 557 477
f 474 558 559
f 474 559 475
f 474 478 558
f 475 559 476
f 476 559 560
f 476 560 561
f 476 561 479
f 477 562 563
f 477 563 558
f 477 558 478
f 477 557 564
f 477 564 562
f 479 561 480
f 480 565 566
f 480 566 481
f 480 561 565
f 481 566 488
f 482 493 567
f 482 567 483
f 483 568 484
f 483 567 568
f 484 568 569
f 484 569 485
f 485 569 570
f 485 570 486
f 486 570 571
f 486 571 572
f 486 572 487
f 487 572 573
f 488 566 574
f 488 574 575
f 488 575 489
f 489 575 490
f 490 576 492
f 490 492 491
f 490 575 576
f 492 577 493
f 492 576 577
f 493 577 567
f 494 578 495
f 495 578 579
f 495 579 580
f 495 580 581
f 495 581 496
f 496 581 582
f 496 582 497
f 497 582 498
f 498 582 583
f 498 583 584
f 498 584 499
f 499 584 500
f 500 584 585
f 500 585 586
f 500 586 502
f 502 586 503
f 503 586 587
f 503 587 588
f 503 588 504
f 504 588 589
f 504 589 505
f 505 589 506
f 506 589 590
f 506 590 507
f 507 590 591
f 507 591 508
f 508 591 592
f 508 592 509
f 509 592 593
f 509 593 510
f 510 593 594
f 510 594 595
f 510 595 511
f 511 595 512
f 512 595 596
f 512 596 597
f 512 597 513
f 514 550 598
f 514 598 520
f 515 599 600
f 515 600 516
f 515 517 599
f 516 600 601
f 516 601 602
f 516 602 518
f 517 603 599
f 517 520 604
f 517 604 603
f 518 602 605
f 518 605 519
f 519 605 521
f 520 606 604
f 520 598 607
f 520 607 606
f 521 605 608
f 521 608 522
f 522 608 523
f 523 609 610
f 523 610 525
f 523 608 609
f 525 611 612
f 525 612 613
f 525 613 614
f 525 614 526
f 525 610 611
f 526 614 527
f 527 614 615
f 527 615 616
f 527 616 528
f 528 616 529
f 529 616 617
f 529 617 618
f 529 618 619
f 529 619 530
f 530 619 620
f 530 620 531
f 531 620 532
f 532 620 621
f 532 621 622
f 533 538 623
f 533 623 624
f 533 624 546
f 533 546 534
f 535 625 536
f 536 625 626
f 536 626 627
f 536 627 537
f 537 627 628
f 537 628 538
f 538 628 629
f 538 629 630
f 538 630 623
f 539 631 540
f 539 542 631
f 540 631 632
f 540 632 541
f 541 633 634
f 541 634 543
f 541 632 633
f 542 546 635
f 542 635 631
f 543 634 636
f 543 636 544
f 544 636 545
f 545 636 547
f 546 624 637
f 546 637 635
f 547 638 639
f 547 639 548
f 547 636 638
f 548 639 607
f 548 607 598
f 548 598 549
f 549 598 550
f 551 640 641
f 551 641 552
f 552 641 642
f 552 642 553
f 553 642 554
f 554 643 556
f 554 556 555
f 554 642 644
f 554 644 741
f 554 741 643
f 556 643 645
f 556 645 646
f 556 646 564
f 556 564 557
f 558 647 559
f 558 563 648
f 558 648 649
f 558 649 647
f 559 650 560
f 559 647 650
f 560 651 561
f 560 650 651
f 561 652 653
f 561 653 565
f 561 651 652
f 562 648 563
f 562 564 648
f 564 646 654
f 564 654 655
f 564 655 648
f 565 653 566
f 566 656 574
f 566 653 656
f 567 577 657
f 567 657 658
f 567 658 568
f 568 659 660
f 568 660 569
f 568 658 661
f 568 661 659
f 569 660 662
f 569 662 663
f 569 663 570
f 570 663 664
f 570 664 571
f 571 664 665
f 571 665 666
f 571 666 572
f 572 666 667
f 572 667 573
f 574 668 669
f 574 669 575
f 574 656 668
f 575 669 670
f 575 670 576
f 576 670 577
f 577 670 671
f 577 671 657
f 579 672 580
f 580 672 673
f 580 673 674
f 580 674 581
f 581 674 675
f 581 675 676
f 581 676 582
f 582 676 583
f 583 676 677
f 583 677 678
f 583 678 584
f 584 678 679
f 584 679 585
f 585 679 586
f 586 679 680
f 586 680 587
f 587 680 681
f 587 681 682
f 587 682 683
f 587 683 588
f 588 683 589
f 589 683 684
f 589 684 590
f 590 684 685
f 590 685 686
f 590 686 591
f 591 686 592
f 592 686 687
f 592 687 593
f 593 687 688
f 593 688 594
f 594 688 689
f 594 689 595
f 595 689 690
f 595 690 691
f 595 691 596
f 596 691 597
f 597 691 692
f 599 603 693
f 599 693 600
f 600 693 694
f 600 694 601
f 601 694 602
f 602 694 695
f 602 695 605
f 603 604 696
f 603 696 693
f 604 606 696
f 605 697 698
f 605 698 608
f 605 695 697
f 606 607 699
f 606 699 700
f 606 700 701
f 606 701 696
f 607 639 702
f 607 702 699
f 608 698 703
f 608 703 609
f 609 703 704
f 609 704 705
f 609 705 611
f 609 611 610
f 611 705 612
f 612 705 706
f 612 706 707
f 612 707 708
f 612 708 709
f 612 709 613
f 613 709 614
f 614 709 710
f 614 710 711
f 614 711 615
f 615 712 616
f 615 711 713
f 615 713 712
f 616 712 617
f 617 714 618
f 617 712 713
f 617 713 715
f 617 715 716
f 617 716 714
f 618 620 619
f 618 714 621
f 618 621 620
f 621 714 716
f 621 716 717
f 621 717 622
f 622 717 718
f 623 719 720
f 623 720 624
f 623 630 721
f 623 721 719
f 624 720 637
f 626 722 723
f 626 723 627
f 627 723 628
f 628 723 724
f 628 724 725
f 628 725 629
f 629 725 630
f 630 725 726
f 630 726 727
f 630 727 721
f 631 635 728
f 631 728 632
f 632 729 633
f 632 728 730
f 632 730 729
f 633 729 634
f 634 731 732
f 634 732 733
f 634 733 636
f 634 729 731
f 635 637 734
f 635 734 730
f 635 730 728
f 636 733 735
f 636 735 638
f 637 720 736
f 637 736 737
f 637 737 734
f 638 735 702
f 638 702 639
f 640 738 641
f 641 738 739
f 641 739 642
f 642 739 740
f 642 740 644
f 643 741 645
f 644 740 742
f 644 742 743
f 644 743 741
f 645 744 654
f 645 654 646
f 645 741 745
f 645 745 744
f 647 746 650
f 647 649 747
f 647 747 746
f 648 655 748
f 648 748 749
f 648 749 747
f 648 747 649
f 650 750 751
f 650 751 651
f 650 746 750
f 651 751 652
f 652 752 653
f 652 751 752
f 653 753 754
f 653 754 656
f 653 752 753
f 654 744 755
f 654 755 748
f 654 748 655
f 656 754 756
f 656 756 668
f 657 757 661
f 657 661 658
f 657 671 757
f 659 758 660
f 659 661 758
f 660 758 759
f 660 759 760
f 660 760 662
f 661 757 761
f 661 761 762
f 661 762 758
f 662 760 763
f 662 763 664
f 662 664 663
f 664 763 764
f 664 764 765
f 664 765 665
f 665 765 766
f 665 766 666
f 666 766 767
f 666 767 768
f 666 768 667
f 668 756 769
f 668 769 669
f 669 769 670
f 670 769 671
f 671 770 757
f 671 769 770
f 673 771 674
f 674 771 772
f 674 772 773
f 674 773 675
f 675 773 676
f 676 773 774
f 676 774 775
f 676 775 677
f 677 775 678
f 678 775 776
f 678 776 777
f 678 777 679
f 679 777 681
f 679 681 680
f 681 777 778
f 681 778 779
f 681 779 682
f 682 779 683
f 683 685 684
f 683 779 780
f 683 780 781
f 683 781 685
f 685 781 686
f 686 781 782
f 686 782 687
f 687 782 783
f 687 783 784
f 687 784 688
f 688 784 689
f 689 784 785
f 689 785 690
f 690 785 786
f 690 786 787
f 690 787 691
f 691 787 692
f 692 787 788
f 693 789 790
f 693 790 694
f 693 696 789
f 694 790 695
f 695 790 791
f 695 791 792
f 695 792 697
f 696 701 789
f 697 792 793
f 697 793 794
f 697 794 703
f 697 703 698
f 699 795 796
f 699 796 700
f 699 702 797
f 699 797 798
f 699 798 795
f 700 796 701
f 701 796 799
f 701 799 789
f 702 735 797
f 703 794 800
f 703 800 704
f 704 800 801
f 704 801 802
f 704 802 705
f 705 802 803
f 705 803 706
f 706 803 804
f 706 804 707
f 707 805 806
f 707 806 807
f 707 807 708
f 707 804 805
f 708 807 808
f 708 808 809
f 708 809 709
f 709 809 810
f 709 810 710
f 710 810 711
f 711 810 811
f 711 811 812
f 711 812 713
f 713 812 813
f 713 813 715
f 715 813 814
f 715 814 716
f 716 814 815
f 716 815 717
f 717 815 816
f 717 816 718
f 719 817 736
f 719 736 720
f 719 721 817
f 721 727 818
f 721 818 819
f 721 819 817
f 722 820 723
f 723 820 821
f 723 821 822
f 723 822 724
f 724 822 823
f 724 823 725
f 725 823 824
f 725 824 726
f 726 824 727
f 727 824 825
f 727 825 826
f 727 826 818
f 729 827 828
f 729 828 829
f 729 829 731
f 729 730 830
f 729 830 831
f 729 831 827
f 730 734 830
f 731 829 732
f 732 832 833
f 732 833 834
f 732 834 735
f 732 735 733
f 732 829 832
f 734 737 835
f 734 835 836
f 734 836 831
f 734 831 830
f 735 834 798
f 735 798 797
f 736 817 837
f 736 837 838
f 736 838 835
f 736 835 737
f 738 839 739
f 739 839 840
f 739 840 740
f 740 840 841
f 740 841 842
f 740 842 742
f 741 743 843
f 741 843 745
f 742 842 743
f 743 842 844
f 743 844 845
f 743 845 843
f 744 846 755
f 744 745 847
f 744 847 958
f 744 958 846
f 745 843 848
f 745 848 847
f 746 849 750
f 746 747 849
f 747 749 850
f 747 850 851
f 747 851 852
f 747 852 849
f 748 853 850
f 748 850 749
f 748 755 853
f 750 854 855
f 750 855 751
f 750 849 854
f 751 855 856
f 751 856 752
f 752 856 857
f 752 857 753
f 753 857 754
f 754 858 859
f 754 859 756
f 754 857 858
f 755 846 860
f 755 860 861
f 755 861 853
f 756 859 769
f 757 770 862
f 757 862 761
f 758 762 863
f 758 863 864
f 758 864 759
f 759 864 865
f 759 865 866
f 759 866 867
f 759 867 760
f 760 868 869
f 760 869 870
f 760 870 763
f 760 867 866
f 760 866 868
f 761 871 863
f 761 863 762
f 761 862 872
f 761 872 871
f 763 870 873
f 763 873 764
f 764 873 874
f 764 874 875
f 764 875 876
f 764 876 765
f 765 876 766
f 766 876 877
f 766 877 767
f 767 877 878
f 767 878 879
f 767 879 880
f 767 880 768
f 769 881 770
f 769 859 881
f 770 881 882
f 770 882 862
f 771 883 772
f 772 883 884
f 772 884 885
f 772 885 773
f 773 885 774
f 774 885 886
f 774 886 775
f 775 886 887
f 775 887 888
f 775 888 776
f 776 888 889
f 776 889 777
f 777 889 778
f 778 889 890
f 778 890 891
f 778 891 779
f 779 891 892
f 779 892 780
f 780 892 893
f 780 893 781
f 781 893 782
f 782 893 894
f 782 894 783
f 783 894 895
f 783 895 784
f 784 895 896
f 784 896 785
f 785 896 897
f 785 897 898
f 785 898 786
f 786 898 787
f 787 898 899
f 787 899 900
f 787 900 788
f 789 799 901
f 789 901 790
f 790 901 902
f 790 902 903
f 790 903 791
f 791 903 904
f 791 904 905
f 791 905 792
f 792 905 793
f 793 906 907
f 793 907 908
f 793 908 800
f 793 800 794
f 793 905 909
f 793 909 906
f 795 910 796
f 795 798 910
f 796 910 911
f 796 911 912
f 796 912 799
f 798 913 910
f 798 834 833
f 798 833 913
f 799 912 914
f 799 914 901
f 800 908 801
f 801 908 915
f 801 915 916
f 801 916 803
f 801 803 802
f 803 916 917
f 803 917 804
f 804 917 805
f 805 918 919
f 805 919 806
f 805 917 918
f 806 919 920
f 806 920 807
f 807 920 921
f 807 921 808
f 808 921 922
f 808 922 923
f 808 923 809
f 809 923 810
f 810 923 924
f 810 924 925
f 810 925 811
f 811 925 812
f 812 925 926
f 812 926 927
f 812 927 813
f 813 927 814
f 814 927 928
f 814 928 929
f 814 929 815
f 815 929 816
f 816 929 930
f 817 819 931
f 817 931 837
f 818 932 931
f 818 931 819
f 818 826 932
f 820 933 821
f 821 933 934
f 821 934 935
f 821 935 822
f 822 935 823
f 823 935 936
f 823 936 824
f 824 936 937
f 824 937 825
f 825 937 938
f 825 938 939
f 825 939 826
f 826 940 932
f 826 939 940
f 827 831 941
f 827 941 942
f 827 942 828
f 828 942 943
f 828 943 829
f 829 943 944
f 829 944 832
f 831 836 941
f 832 944 945
f 832 945 833
f 833 945 946
f 833 946 913
f 835 838 947
f 835 947 948
f 835 948 949
f 835 949 836
f 836 949 941
f 837 950 947
f 837 947 838
f 837 931 950
f 839 951 840
f 840 951 841
f 841 951 952
f 841 952 842
f 842 952 953
f 842 953 844
f 843 845 848
f 844 953 954
f 844 954 955
f 844 955 845
f 845 955 956
f 845 956 957
f 845 957 848
f 846 958 959
f 846 959 860
f 847 848 960
f 847 960 958
f 848 957 961
f 848 961 960
f 849 962 963
f 849 963 854
f 849 852 964
f 849 964 962
f 850 853 967
f 850 967 965
f 850 965 964
f 850 964 851
f 851 964 852
f 853 861 966
f 853 966 967
f 854 963 855
f 855 963 962
f 855 962 968
f 855 968 969
f 855 969 856
f 856 969 970
f 856 970 857
f 857 970 971
f 857 971 972
f 857 972 858
f 858 972 859
f 859 973 882
f 859 882 881
f 859 972 973
f 860 974 966
f 860 966 861
f 860 959 975
f 860 975 974
f 862 882 872
f 863 871 976
f 863 976 864
f 864 976 977
f 864 977 978
f 864 978 979
f 864 979 865
f 865 979 980
f 865 980 868
f 865 868 866
f 868 981 982
f 868 982 869
f 868 980 981
f 869 982 983
f 869 983 984
f 869 984 873
f 869 873 870
f 871 872 985
f 871 985 986
f 871 986 976
f 872 882 987
f 872 987 985
f 873 984 988
f 873 988 874
f 874 988 989
f 874 989 990
f 874 990 991
f 874 991 875
f 875 991 876
f 876 991 992
f 876 992 877
f 877 992 993
f 877 993 994
f 877 994 995
f 877 995 878
f 878 995 879
f 882 973 996
f 882 996 987
f 883 997 884
f 884 998 999
f 884 999 885
f 884 997 998
f 885 999 1000
f 885 1000 1001
f 885 1001 886
f 886 1001 887
f 887 1001 1002
f 887 1002 1003
f 887 1003 888
f 888 1003 889
f 889 1003 1004
f 889 1004 890
f 890 1004 1005
f 890 1005 1006
f 890 1006 1007
f 890 1007 891
f 891 1007 1008
f 891 1008 892
f 892 1008 1009
f 892 1009 893
f 893 1009 894
f 894 1009 1010
f 894 1010 895
f 895 1010 1011
f 895 1011 1012
f 895 1012 896
f 896 1012 1013
f 896 1013 897
f 897 1013 898
f 898 1013 1014
f 898 1014 1015
f 898 1015 899
f 899 1015 900
f 900 1015 1016
f 901 914 902
f 902 914 1017
f 902 1017 1018
f 902 1018 903
f 903 1018 1019
f 903 1019 904
f 904 1019 909
f 904 909 905
f 906 1020 1021
f 906 1021 1022
f 906 1022 1023
f 906 1023 1024
f 906 1024 907
f 906 909 1020
f 907 1024 908
f 908 1025 915
f 908 1024 1025
f 909 1019 1020
f 910 1026 1027
f 910 1027 911
f 910 913 946
f 910 946 1026
f 911 1027 912
f 912 1027 1028
f 912 1028 1029
f 912 1029 914
f 914 1029 1017
f 915 1030 917
f 915 917 916
f 915 1025 1030
f 917 1030 918
f 918 1031 1032
f 918 1032 1033
f 918 1033 919
f 918 1030 1031
f 919 1033 1034
f 919 1034 920
f 920 1034 1035
f 920 1035 1036
f 920 1036 921
f 921 1036 1037
f 921 1037 1038
f 921 1038 922
f 922 1038 923
f 923 1038 1039
f 923 1039 1040
f 923 1040 924
f 924 1040 1041
f 924 1041 925
f 925 1041 926
f 926 1041 1042
f 926 1042 1043
f 926 1043 927
f 927 1043 1044
f 927 1044 928
f 928 1044 1045
f 928 1045 929
f 929 1045 930
f 930 1045 1046
f 931 932 1047
f 931 1047 950
f 932 1048 1047
f 932 940 1048
f 933 1016 934
f 934 1016 935
f 935 1016 1015
f 935 1015 1014
f 935 1014 936
f 936 1014 1013
f 936 1013 937
f 937 1013 1012
f 937 1012 938
f 938 1012 939
f 939 1049 940
f 939 1012 1011
f 939 1011 1010
f 939 1010 1049
f 940 1050 1048
f 940 1049 1051
f 940 1051 1050
f 941 949 1052
f 941 1052 942
f 942 1053 943
f 942 1052 1054
f 942 1054 1053
f 943 1053 1055
f 943 1055 944
f 944 1056 945
f 944 1055 1056
f 945 1057 946
f 945 1056 1057
f 946 1058 1059
f 946 1059 1026
f 946 1057 1058
f 947 950 1060
f 947 1060 1061
f 947 1061 1062
f 947 1062 948
f 948 1062 949
f 949 1062 1063
f 949 1063 1052
f 950 1047 1060
f 951 1064 1065
f 951 1065 1066
f 951 1066 952
f 952 1066 953
f 953 1066 1067
f 953 1067 1068
f 953 1068 954
f 954 1068 1069
f 954 1069 955
f 955 1069 956
f 956 1070 961
f 956 961 957
f 956 1069 1071
f 956 1071 1072
f 956 1072 1070
f 958 960 959
f 959 960 1073
f 959 1073 1074
f 959 1074 975
f 960 961 1075
f 960 1075 1073
f 961 1070 1076
f 961 1076 1075
f 962 1077 1078
f 962 1078 1079
f 962 1079 1080
f 962 1080 968
f 962 964 1077
f 964 965 1081
f 964 1081 1077
f 965 967 1081
f 966 974 1082
f 966 1082 1083
f 966 1083 967
f 967 1083 1081
f 968 1080 969
f 969 1084 970
f 969 1080 1079
f 969 1079 1084
f 970 1085 971
f 970 1084 1085
f 971 1085 1086
f 971 1086 972
f 972 996 973
f 972 1086 996
f 974 1087 1082
f 974 975 1087
f 975 1074 1088
f 975 1088 1089
f 975 1089 1087
f 976 986 977
f 977 986 1090
f 977 1090 1091
f 977 1091 978
f 978 1091 979
f 979 1092 1093
f 979 1093 980
f 979 1091 1092
f 980 1093 1094
f 980 1094 981
f 981 1094 982
f 982 1095 983
f 982 1094 1095
f 983 1096 1097
f 983 1097 1098
f 983 1098 988
f 983 988 984
f 983 1095 1096
f 985 987 1099
f 985 1099 1100
f 985 1100 1101
f 985 1101 986
f 986 1101 1102
f 986 1102 1103
f 986 1103 1090
f 987 996 1104
f 987 1104 1099
f 988 1098 989
f 989 1105 1106
f 989 1106 1107
f 989 1107 1108
f 989 1108 990
f 989 1098 1105
f 990 1108 1109
f 990 1109 991
f 991 1109 992
f 992 1109 1110
f 992 1110 993
f 993 1110 1111
f 993 1111 1112
f 993 1112 1113
f 993 1113 994
f 996 1086 1104
f 998 1114 1115
f 998 1115 999
f 999 1115 1116
f 999 1116 1000
f 1000 1116 1001
f 1001 1116 1117
f 1001 1117 1118
f 1001 1118 1002
f 1002 1118 1003
f 1003 1118 1119
f 1003 1119 1005
f 1003 1005 1004
f 1005 1119 1120
f 1005 1120 1006
f 1006 1120 1121
f 1006 1121 1122
f 1006 1122 1007
f 1007 1122 1008
f 1008 1122 1123
f 1008 1123 1051
f 1008 1051 1009
f 1009 1051 1010
f 1010 1051 1049
f 1017 1029 1124
f 1017 1124 1018
f 1018 1124 1125
f 1018 1125 1126
f 1018 1126 1019
f 1019 1126 1127
f 1019 1127 1020
f 1020 1127 1128
f 1020 1128 1021
f 1021 1128 1022
f 1022 1129 1130
f 1022 1130 1131
f 1022 1131 1023
f 1022 1128 1129
f 1023 1131 1132
f 1023 1132 1025
f 1023 1025 1024
f 1025 1132 1133
f 1025 1133 1030
f 1026 1059 1027
f 1027 1059 1134
f 1027 1134 1135
f 1027 1135 1028
f 1028 1135 1029
f 1029 1135 1136
f 1029 1136 1137
f 1029 1137 1124
f 1030 1133 1031
f 1031 1138 1139
f 1031 1139 1032
f 1031 1133 1140
f 1031 1140 1138
f 1032 1139 1033
f 1033 1139 1141
f 1033 1141 1142
f 1033 1142 1034
f 1034 1142 1143
f 1034 1143 1035
f 1035 1143 1144
f 1035 1144 1036
f 1036 1144 1145
f 1036 1145 1146
f 1036 1146 1037
f 1037 1146 1038
f 1038 1146 1147
f 1038 1147 1148
f 1038 1148 1039
f 1039 1148 1149
f 1039 1149 1040
f 1040 1149 1041
f 1041 1149 1150
f 1041 1150 1151
f 1041 1151 1042
f 1042 1151 1043
f 1043 1151 1152
f 1043 1152 1153
f 1043 1153 1154
f 1043 1154 1155
f 1043 1155 1044
f 1044 1155 1045
f 1045 1155 1154
f 1045 1154 1156
f 1045 1156 1046
f 1047 1048 1157
f 1047 1157 1158
f 1047 1158 1060
f 1048 1050 1159
f 1048 1159 1157
f 1050 1051 1159
f 1051 1123 1159
f 1052 1063 1160
f 1052 1160 1054
f 1053 1054 1161
f 1053 1161 1162
f 1053 1162 1055
f 1054 1160 1161
f 1055 1163 1164
f 1055 1164 1056
f 1055 1162 1163
f 1056 1164 1057
f 1057 1165 1166
f 1057 1166 1058
f 1057 1164 1165
f 1058 1166 1059
f 1059 1167 1168
f 1059 1168 1134
f 1059 1166 1167
f 1060 1169 1170
f 1060 1170 1171
f 1060 1171 1061
f 1060 1158 1169
f 1061 1171 1062
f 1062 1171 1170
f 1062 1170 1172
f 1062 1172 1173
f 1062 1173 1063
f 1063 1173 1161
f 1063 1161 1160
f 1064 1174 1065
f 1065 1174 1175
f 1065 1175 1066
f 1066 1175 1067
f 1067 1175 1176
f 1067 1176 1177
f 1067 1177 1068
f 1068 1177 1069
f 1069 1177 1178
f 1069 1178 1179
f 1069 1179 1071
f 1070 1072 1076
f 1071 1179 1180
f 1071 1180 1072
f 1072 1181 1076
f 1072 1180 1181
f 1073 1075 1182
f 1073 1182 1074
f 1074 1182 1183
f 1074 1183 1088
f 1075 1076 1182
f 1076 1184 1182
f 1076 1181 1185
f 1076 1185 1184
f 1077 1186 1078
f 1077 1081 1187
f 1077 1187 1186
f 1078 1188 1189
f 1078 1189 1079
f 1078 1186 1188
f 1079 1189 1190
f 1079 1190 1084
f 1081 1083 1191
f 1081 1191 1192
f 1081 1192 1187
f 1082 1087 1197
f 1082 1197 1193
f 1082 1193 1083
f 1083 1193 1191
f 1084 1190 1085
f 1085 1190 1194
f 1085 1194 1195
f 1085 1195 1086
f 1086 1195 1196
f 1086 1196 1104
f 1087 1089 1197
f 1088 1198 1089
f 1088 1183 1198
f 1089 1199 1197
f 1089 1198 1199
f 1090 1163 1162
f 1090 1162 1091
f 1090 1103 1164
f 1090 1164 1163
f 1091 1162 1092
f 1092 1200 1093
f 1092 1162 1200
f 1093 1200 1173
f 1093 1173 1094
f 1094 1173 1172
f 1094 1172 1095
f 1095 1172 1170
f 1095 1170 1096
f 1096 1170 1097
f 1097 1170 1169
f 1097 1169 1201
f 1097 1201 1202
f 1097 1202 1105
f 1097 1105 1098
f 1099 1104 1196
f 1099 1196 1100
f 1100 1203 1102
f 1100 1102 1101
f 1100 1196 1204
f 1100 1204 1203
f 1102 1203 1166
f 1102 1166 1165
f 1102 1165 1164
f 1102 1164 1103
f 1105 1202 1205
f 1105 1205 1106
f 1106 1205 1206
f 1106 1206 1207
f 1106 1207 1107
f 1107 1207 1108
f 1108 1207 1208
f 1108 1208 1109
f 1109 1208 1209
f 1109 1209 1111
f 1109 1111 1110
f 1111 1209 1210
f 1111 1210 1211
f 1111 1211 1112
f 1112 1211 1113
f 1113 1211 1212
f 1114 1212 1211
f 1114 1211 1115
f 1115 1211 1210
f 1115 1210 1116
f 1116 1210 1117
f 1117 1210 1213
f 1117 1213 1118
f 1118 1213 1214
f 1118 1214 1215
f 1118 1215 1119
f 1119 1215 1120
f 1120 1215 1207
f 1120 1207 1206
f 1120 1206 1216
f 1120 1216 1121
f 1121 1216 1122
f 1122 1216 1217
f 1122 1217 1159
f 1122 1159 1123
f 1124 1137 1218
f 1124 1218 1125
f 1125 1218 1126
f 1126 1218 1219
f 1126 1219 1127
f 1127 1220 1128
f 1127 1219 1220
f 1128 1221 1222
f 1128 1222 1129
f 1128 1220 1221
f 1129 1222 1130
f 1130 1223 1224
f 1130 1224 1225
f 1130 1225 1226
f 1130 1226 1131
f 1130 1222 1223
f 1131 1226 1132
f 1132 1226 1133
f 1133 1226 1227
f 1133 1227 1140
f 1134 1168 1135
f 1135 1168 1228
f 1135 1228 1136
f 1136 1228 1229
f 1136 1229 1230
f 1136 1230 1137
f 1137 1230 1218
f 1138 1231 1232
f 1138 1232 1233
f 1138 1233 1141
f 1138 1141 1139
f 1138 1140 1227
f 1138 1227 1231
f 1141 1233 1143
f 1141 1143 1142
f 1143 1234 1235
f 1143 1235 1236
f 1143 1236 1144
f 1143 1233 1237
f 1143 1237 1234
f 1144 1236 1238
f 1144 1238 1145
f 1145 1238 1236
f 1145 1236 1277
f 1145 1277 1276
f 1145 1276 1275
f 1145 1275 1290
f 1145 1290 1296
f 1145 1296 1297
f 1145 1297 1293
f 1145 1293 1291
f 1145 1291 1278
f 1145 1278 1246
f 1145 1246 1245
f 1145 1245 1180
f 1145 1180 1179
f 1145 1179 1178
f 1145 1178 1177
f 1145 1177 1176
f 1145 1176 1175
f 1145 1175 1174
f 1145 1174 1156
f 1145 1156 1154
f 1145 1154 1153
f 1145 1153 1152
f 1145 1152 1241
f 1145 1241 1240
f 1145 1240 1239
f 1145 1239 1147
f 1145 1147 1146
f 1147 1239 1148
f 1148 1239 1149
f 1149 1239 1240
f 1149 1240 1150
f 1150 1240 1241
f 1150 1241 1152
f 1150 1152 1151
f 1157 1242 1158
f 1157 1159 1217
f 1157 1217 1242
f 1158 1242 1201
f 1158 1201 1169
f 1161 1173 1200
f 1161 1200 1162
f 1166 1203 1204
f 1166 1204 1167
f 1167 1204 1168
f 1168 1204 1243
f 1168 1243 1244
f 1168 1244 1228
f 1180 1245 1181
f 1181 1245 1246
f 1181 1246 1185
f 1182 1184 1247
f 1182 1247 1183
f 1183 1247 1248
f 1183 1248 1249
f 1183 1249 1198
f 1184 1185 1247
f 1185 1250 1247
f 1185 1246 1250
f 1186 1251 1188
f 1186 1187 1252
f 1186 1252 1251
f 1187 1192 1252
f 1188 1251 1253
f 1188 1253 1189
f 1189 1253 1190
f 1190 1254 1194
f 1190 1253 1254
f 1191 1193 1255
f 1191 1255 1192
f 1192 1255 1256
f 1192 1256 1252
f 1193 1197 1257
f 1193 1257 1258
f 1193 1258 1255
f 1194 1244 1195
f 1194 1254 1244
f 1195 1243 1204
f 1195 1204 1196
f 1195 1244 1243
f 1197 1199 1260
f 1197 1260 1257
f 1198 1249 1259
f 1198 1259 1199
f 1199 1259 1260
f 1201 1242 1205
f 1201 1205 1202
f 1205 1242 1217
f 1205 1217 1216
f 1205 1216 1206
f 1207 1215 1208
f 1208 1215 1214
f 1208 1214 1213
f 1208 1213 1209
f 1209 1213 1210
f 1218 1230 1261
f 1218 1261 1262
f 1218 1262 1219
f 1219 1262 1263
f 1219 1263 1220
f 1220 1263 1264
f 1220 1264 1221
f 1221 1264 1222
f 1222 1265 1223
f 1222 1264 1265
f 1223 1266 1267
f 1223 1267 1224
f 1223 1265 1266
f 1224 1267 1268
f 1224 1268 1269
f 1224 1269 1225
f 1225 1269 1226
f 1226 1269 1227
f 1227 1269 1270
f 1227 1270 1231
f 1228 1244 1254
f 1228 1254 1229
f 1229 1254 1253
f 1229 1253 1230
f 1230 1253 1261
f 1231 1270 1271
f 1231 1271 1232
f 1232 1271 1272
f 1232 1272 1273
f 1232 1273 1237
f 1232 1237 1233
f 1234 1274 1275
f 1234 1275 1276
f 1234 1276 1277
f 1234 1277 1235
f 1234 1237 1274
f 1235 1277 1236
f 1237 1273 1274
f 1246 1278 1250
f 1247 1250 1279
f 1247 1279 1248
f 1248 1280 1249
f 1248 1279 1280
f 1249 1280 1281
f 1249 1281 1259
f 1250 1278 1279
f 1251 1262 1261
f 1251 1261 1253
f 1251 1252 1262
f 1252 1263 1262
f 1252 1256 1264
f 1252 1264 1263
f 1255 1258 1266
f 1255 1266 1265
f 1255 1265 1264
f 1255 1264 1256
f 1257 1260 1267
f 1257 1267 1258
f 1258 1267 1266
f 1259 1281 1282
f 1259 1282 1283
f 1259 1283 1284
f 1259 1284 1260
f 1260 1284 1267
f 1267 1284 1268
f 1268 1284 1283
f 1268 1283 1285
f 1268 1285 1270
f 1268 1270 1269
f 1270 1285 1271
f 1271 1286 1272
f 1271 1285 1286
f 1272 1286 1287
f 1272 1287 1288
f 1272 1288 1289
f 1272 1289 1274
f 1272 1274 1273
f 1274 1289 1290
f 1274 1290 1275
f 1278 1291 1279
f 1279 1292 1280
f 1279 1291 1293
f 1279 1293 1292
f 1280 1294 1282
f 1280 1282 1281
f 1280 1292 1295
f 1280 1295 1294
f 1282 1294 1286
f 1282 1286 1285
f 1282 1285 1283
f 1286 1294 1287
f 1287 1294 1288
f 1288 1295 1296
f 1288 1296 1290
f 1288 1290 1289
f 1288 1294 1295
f 1292 1293 1295
f 1293 1297 1295
f 1295 1297 1296

