# https://github.com/mikedh/trimesh
v -0.40158218 -0.16505013 0.02085416
v -0.39836332 -0.16505013 0.01500122
v -0.40113348 -0.16617464 0.02085416
v -0.37608495 -0.16505013 0.02085416
v -0.35183623 0.01382105 -0.05823161
v -0.35183623 0.01382105 -0.09499878
v -0.35183623 -0.00001036 -0.09537124
v -0.35183623 -0.01729025 -0.09491010
v -0.35183623 -0.02040137 -0.09467953
v -0.35183623 -0.03468259 -0.09357988
v -0.35183623 -0.03580709 -0.09343799
v -0.35183623 -0.04124220 -0.09272854
v -0.35183623 -0.05222484 -0.09123870
v -0.35183623 -0.07002950 -0.08786882
v -0.39600283 -0.16505013 0.01085094
v -0.38784841 -0.18345451 0.01085094
v -0.39251086 -0.18562856 0.02085416
v -0.22842731 -0.34140992 0.02085416
v -0.27750996 0.01382105 -0.11894266
v -0.34375983 0.01382105 -0.10342348
v -0.34411100 -0.00001036 -0.10342348
v -0.34368181 -0.01691541 -0.10342348
v -0.34243327 -0.03374550 -0.10342348
v -0.34036541 -0.05050062 -0.10342348
v -0.35050967 -0.05199996 -0.09272854
v -0.34752494 -0.06916738 -0.09272854
v -0.35183623 -0.08813403 -0.08350571
v -0.39555413 -0.16505013 0.01010602
v -0.37130544 -0.19844791 -0.00349766
v -0.37836742 -0.20223375 0.01085094
v -0.38291281 -0.20467018 0.02085416
v -0.38724363 -0.16505013 -0.00349766
v -0.38061085 -0.18000604 -0.00349766
v -0.22842731 -0.36907274 0.02085416
v -0.20228630 -0.16505013 -0.12935382
v -0.26069388 -0.01380429 -0.12935382
v -0.27750996 0.01382105 -0.16003747
v -0.33351803 0.01382105 -0.11346218
v -0.33384967 -0.00001036 -0.11346218
v -0.33344001 -0.01642813 -0.11346218
v -0.33225000 -0.03273344 -0.11346218
v -0.33022115 -0.04900128 -0.11346218
v -0.32743147 -0.06515665 -0.11346218
v -0.33747819 -0.06714328 -0.10342348
v -0.33377165 -0.08359852 -0.10342348
v -0.34370133 -0.08610992 -0.09272854
v -0.33907789 -0.10286503 -0.09272854
v -0.34885150 -0.10586371 -0.08146605
v -0.35183623 -0.09499350 -0.08146605
v -0.36379477 -0.19443718 -0.01750927
v -0.35380659 -0.21205442 -0.01750927
v -0.36110264 -0.21643999 -0.00349766
v -0.36796954 -0.22056317 0.01085094
v -0.37239790 -0.22322449 0.02085416
v -0.35183623 -0.10672583 -0.07781239
v -0.37793821 -0.16505013 -0.01750927
v -0.37288558 -0.17640762 -0.01750927
v -0.24122469 -0.36097628 0.02085416
v -0.23835698 -0.35670316 0.01085094
v -0.22842731 -0.36296290 0.01085094
v -0.22842731 -0.35741538 0.00239076
v -0.22842731 -0.35351706 -0.00349766
v -0.22842731 -0.34343404 -0.01750927
v -0.22842731 -0.34305918 -0.01798814
v -0.22842731 -0.34182224 -0.01956667
v -0.22842731 -0.33252633 -0.03116615
v -0.22842731 -0.32109386 -0.04445057
v -0.22842731 -0.30928656 -0.05727385
v -0.22842731 -0.30797464 -0.05863954
v -0.22842731 -0.29680458 -0.06961825
v -0.22842731 -0.28402269 -0.08144831
v -0.22842731 -0.28218600 -0.08304457
v -0.22842731 -0.27828774 -0.08641445
v -0.22842731 -0.27322745 -0.09068888
v -0.22842731 -0.27079102 -0.09272854
v -0.22842731 -0.26423141 -0.09792525
v -0.22842731 -0.25725949 -0.10342348
v -0.22842731 -0.25201181 -0.10732545
v -0.22842731 -0.24335313 -0.11347991
v -0.22842731 -0.23087113 -0.12188688
v -0.22842731 -0.22937179 -0.12288010
v -0.22842731 -0.22839722 -0.12350087
v -0.22842731 -0.21501562 -0.13165954
v -0.22842731 -0.20703164 -0.13627094
v -0.22842731 -0.20328328 -0.13832834
v -0.22842731 -0.20058447 -0.13980046
v -0.22842731 -0.18746525 -0.14668210
v -0.22842731 -0.18626578 -0.14728513
v -0.22842731 -0.17183465 -0.15411358
v -0.22842731 -0.16936073 -0.15524870
v -0.22842731 -0.16505013 -0.15709326
v -0.27750996 0.01359615 -0.16005521
v -0.28137258 0.01382105 -0.15719968
v -0.32337376 0.01382105 -0.12288010
v -0.32372493 -0.00001036 -0.12288010
v -0.32333475 -0.01590335 -0.12288010
v -0.32214475 -0.03175887 -0.12288010
v -0.32019392 -0.04753941 -0.12288010
v -0.31400982 -0.07865071 -0.12288010
v -0.32384196 -0.08112462 -0.11346218
v -0.31748229 -0.06317003 -0.12288010
v -0.32926524 -0.09990384 -0.10342348
v -0.33363509 -0.11939525 -0.09272854
v -0.34323311 -0.12280625 -0.08146605
v -0.35183623 -0.12149432 -0.07238511
v -0.35589394 -0.19023903 -0.03116615
v -0.34610084 -0.20744395 -0.03116615
v -0.33550787 -0.22419906 -0.03116615
v -0.34296000 -0.22918436 -0.01750927
v -0.35004148 -0.23390728 -0.00349766
v -0.35669380 -0.23833033 0.01085094
v -0.36098561 -0.24121657 0.02085416
v -0.35183623 -0.12591738 -0.07075337
v -0.35183623 -0.12857871 -0.06963599
v -0.36814511 -0.16505013 -0.03116615
v -0.36480922 -0.17254683 -0.03116615
v -0.25866503 -0.34871918 0.02085416
v -0.25558275 -0.34459603 0.01085094
v -0.23392862 -0.35003111 -0.00349766
v -0.22918813 -0.34294674 -0.01750927
v -0.24042486 -0.32409254 -0.03116615
v -0.23484550 -0.31659585 -0.04445057
v -0.22909059 -0.30883676 -0.05727385
v -0.24397534 -0.29721689 -0.05727385
v -0.23771322 -0.28957027 -0.06961825
v -0.23129502 -0.28177369 -0.08144831
v -0.23800585 -0.26258215 -0.09272854
v -0.23109993 -0.25497299 -0.10342348
v -0.23611355 -0.23608133 -0.11347991
v -0.22893453 -0.22892198 -0.12288010
v -0.23989813 -0.21741456 -0.12288010
v -0.23252404 -0.21070501 -0.13165954
v -0.23507962 -0.19290036 -0.13980046
v -0.23675731 -0.17562047 -0.14728513
v -0.22961730 -0.17029782 -0.15411358
v -0.23332387 -0.16505013 -0.15411358
v -0.22998796 -0.16505013 -0.15615323
v -0.27750996 -0.11493471 -0.14278013
v -0.27750996 -0.09937907 -0.14726740
v -0.27750996 -0.08416077 -0.15093879
v -0.27750996 -0.07021692 -0.15381205
v -0.27750996 -0.06954222 -0.15393621
v -0.27750996 -0.06856765 -0.15411358
v -0.27750996 -0.05522353 -0.15625966
v -0.27750996 -0.04802670 -0.15718195
v -0.27750996 -0.04116723 -0.15803328
v -0.27750996 -0.03689411 -0.15844122
v -0.27750996 -0.02733582 -0.15929255
v -0.27750996 -0.02534920 -0.15941671
v -0.27750996 -0.01365435 -0.16005521
v -0.27750996 -0.01312958 -0.16007295
v -0.27750996 -0.00004785 -0.16033898
v -0.27750996 0.01307137 -0.16007295
v -0.28554735 0.01382105 -0.15411358
v -0.32208622 0.01382105 -0.12401523
v -0.31377572 -0.00001036 -0.13164179
v -0.31338558 -0.01541607 -0.13164179
v -0.31225407 -0.03078429 -0.13164179
v -0.31036180 -0.04607756 -0.13164179
v -0.30772817 -0.06125837 -0.13164179
v -0.30435327 -0.07625176 -0.13164179
v -0.30977654 -0.09398145 -0.12288010
v -0.31947213 -0.09690516 -0.11346218
v -0.31436098 -0.11249829 -0.11346218
v -0.32397851 -0.11594677 -0.10342348
v -0.32739246 -0.13562560 -0.09272854
v -0.33681491 -0.13952388 -0.08146605
v -0.35634264 -0.16857357 -0.04445057
v -0.34764197 -0.18581598 -0.04445057
v -0.33810246 -0.20264606 -0.04445057
v -0.31660441 -0.23480690 -0.04445057
v -0.32409558 -0.24039194 -0.03116615
v -0.33131361 -0.24571458 -0.01750927
v -0.32774359 -0.21898887 -0.04445057
v -0.33814147 -0.25081235 -0.00349766
v -0.34457919 -0.25557274 0.01085094
v -0.34871492 -0.25864637 0.02085416
v -0.34612033 -0.14338468 -0.06963599
v -0.35183623 -0.14574614 -0.06193848
v -0.35792279 -0.16505013 -0.04445057
v -0.27548110 -0.33559996 0.02085416
v -0.27220374 -0.33162671 0.01085094
v -0.25082272 -0.33814883 -0.00349766
v -0.24575061 -0.33128935 -0.01750927
v -0.26170832 -0.31884485 -0.01750927
v -0.25603142 -0.31191039 -0.03116615
v -0.25010094 -0.30471358 -0.04445057
v -0.25827485 -0.28492230 -0.05727385
v -0.25162256 -0.27757555 -0.06961825
v -0.24485323 -0.27011633 -0.08144831
v -0.25060815 -0.25058743 -0.09272854
v -0.24335109 -0.24331564 -0.10342348
v -0.25499749 -0.23109603 -0.10342348
v -0.24740879 -0.22419906 -0.11347991
v -0.25809929 -0.21179204 -0.11347991
v -0.25025699 -0.20538236 -0.12288010
v -0.24257076 -0.19904765 -0.13165954
v -0.25203225 -0.18690300 -0.13165954
v -0.24424846 -0.18113054 -0.13980046
v -0.25283208 -0.16898590 -0.13980046
v -0.24697961 -0.16505013 -0.14545831
v -0.24418995 -0.16505013 -0.14728513
v -0.27750996 -0.12415566 -0.13978271
v -0.28094339 -0.11639658 -0.13978271
v -0.28632766 -0.10245272 -0.13978271
v -0.28207487 -0.08558515 -0.14726740
v -0.28591800 -0.07164130 -0.14726740
v -0.28909785 -0.05754750 -0.14726740
v -0.28035817 -0.05582327 -0.15411358
v -0.28275767 -0.04195438 -0.15411358
v -0.28449389 -0.02804801 -0.15411358
v -0.28552783 -0.01406667 -0.15411358
v -0.28587899 -0.00001036 -0.15411358
v -0.29442358 0.01382105 -0.14726740
v -0.29477474 -0.00001036 -0.14726740
v -0.31342459 0.01382105 -0.13164179
v -0.30409965 -0.00001036 -0.13978271
v -0.30370948 -0.01492879 -0.13978271
v -0.30261704 -0.02984722 -0.13978271
v -0.30080277 -0.04465319 -0.13978271
v -0.29824719 -0.05934671 -0.13978271
v -0.29496980 -0.07392779 -0.13978271
v -0.30025655 -0.09105774 -0.13164179
v -0.29543802 -0.10571378 -0.13164179
v -0.30480194 -0.10908730 -0.12288010
v -0.29910555 -0.12389327 -0.12288010
v -0.30844998 -0.12775406 -0.11346218
v -0.31791148 -0.13168983 -0.10342348
v -0.31106409 -0.14713302 -0.10342348
v -0.32033047 -0.15151860 -0.09272854
v -0.32955787 -0.15586668 -0.08146605
v -0.33866820 -0.16021477 -0.06963599
v -0.34889051 -0.16505013 -0.05542929
v -0.34732985 -0.16505013 -0.05729159
v -0.33911690 -0.18124300 -0.05727385
v -0.32981148 -0.19769824 -0.05727385
v -0.30885965 -0.22907192 -0.05727385
v -0.30472392 -0.25010014 -0.04445057
v -0.31194195 -0.25598505 -0.03116615
v -0.31884786 -0.26168254 -0.01750927
v -0.31970623 -0.21362872 -0.05727385
v -0.32544163 -0.26708016 -0.00349766
v -0.33162573 -0.27214044 0.01085094
v -0.33560541 -0.27540150 0.02085416
v -0.34762245 -0.16445039 -0.05729159
v -0.35183623 -0.15492959 -0.05729159
v -0.29161441 -0.32169360 0.02085416
v -0.26711208 -0.32540447 -0.00349766
v -0.28814194 -0.31787029 0.01085094
v -0.28277719 -0.31194788 -0.00349766
v -0.27704176 -0.30561319 -0.01750927
v -0.27103323 -0.29897863 -0.03116615
v -0.26475158 -0.29204416 -0.04445057
v -0.27877799 -0.27873755 -0.04445057
v -0.27195013 -0.27191556 -0.05727385
v -0.26494667 -0.26494360 -0.06961825
v -0.25780666 -0.25778425 -0.08144831
v -0.27015537 -0.24481498 -0.08144831
v -0.26258618 -0.23799299 -0.09272854
v -0.26601964 -0.21831416 -0.10342348
v -0.26818505 -0.19889772 -0.11347991
v -0.26003060 -0.19282539 -0.12288010
v -0.26917997 -0.17985611 -0.12288010
v -0.26088896 -0.17434603 -0.13165954
v -0.26679996 -0.16505013 -0.13165954
v -0.25532913 -0.16505013 -0.13980046
v -0.27750996 -0.13124003 -0.13735285
v -0.28365505 -0.13416374 -0.13164179
v -0.28991717 -0.12010743 -0.13164179
v -0.29099014 -0.08828396 -0.13978271
v -0.29155588 -0.04326630 -0.14726740
v -0.29335064 -0.02891013 -0.14726740
v -0.29442358 -0.01447898 -0.14726740
v -0.30374852 0.01382105 -0.13978271
v -0.29266784 -0.13843685 -0.12288010
v -0.30181718 -0.14278494 -0.11346218
v -0.29446259 -0.15736602 -0.11346218
v -0.30345589 -0.16220139 -0.10342348
v -0.30872309 -0.16505013 -0.09721580
v -0.31252721 -0.16707423 -0.09272854
v -0.32495394 -0.16505013 -0.08144831
v -0.33156723 -0.16505013 -0.07453119
v -0.33624917 -0.16505013 -0.06961825
v -0.33039671 -0.17663252 -0.06961825
v -0.32132539 -0.19260049 -0.06961825
v -0.31151277 -0.20811865 -0.06961825
v -0.30093932 -0.22318701 -0.06961825
v -0.29727179 -0.24395287 -0.05727385
v -0.28496209 -0.25827155 -0.05727385
v -0.29212162 -0.26471871 -0.04445057
v -0.29902753 -0.27097845 -0.03116615
v -0.30566031 -0.27701330 -0.01750927
v -0.31196147 -0.28271079 -0.00349766
v -0.31789196 -0.28810841 0.01085094
v -0.32602689 -0.28657156 0.02085416
v -0.30224636 -0.31157306 0.02085416
v -0.30339736 -0.30336416 0.01085094
v -0.29773998 -0.29770416 -0.00349766
v -0.29171193 -0.29166934 -0.01750927
v -0.28539127 -0.28533462 -0.03116615
v -0.27762702 -0.25159949 -0.06961825
v -0.28962457 -0.23769312 -0.06961825
v -0.28182128 -0.23124596 -0.08144831
v -0.27393997 -0.22479880 -0.09272854
v -0.28464997 -0.21107985 -0.09272854
v -0.27639800 -0.20497003 -0.10342348
v -0.28613260 -0.19117612 -0.10342348
v -0.27760750 -0.18547863 -0.11347991
v -0.28638619 -0.17168471 -0.11347991
v -0.27766603 -0.16643701 -0.12288010
v -0.27534455 -0.16505013 -0.12530997
v -0.27138439 -0.16265118 -0.12935382
v -0.27750996 -0.14833249 -0.13087913
v -0.27750996 -0.14634587 -0.13164179
v -0.28550833 -0.15260562 -0.12288010
v -0.29013178 -0.16505013 -0.11347991
v -0.29475522 -0.16505013 -0.10954247
v -0.30189523 -0.16505013 -0.10342348
v -0.29516488 -0.17693239 -0.10342348
v -0.30394357 -0.18214260 -0.09272854
v -0.31270278 -0.18742777 -0.08144831
v -0.32150099 -0.17187212 -0.08144831
v -0.30312425 -0.20253362 -0.08144831
v -0.29282391 -0.21715218 -0.08144831
v -0.32169607 -0.29155689 0.02085416
v -0.31157130 -0.30223966 0.02085416
v -0.30702588 -0.30700007 0.02085416
v -0.29463816 -0.19687361 -0.09272854
v -0.27848536 -0.16505013 -0.12288010
f 1 2 3
f 1 3 17
f 1 17 31
f 1 31 54
f 1 54 112
f 1 112 177
f 1 177 244
f 1 244 295
f 1 295 325
f 1 325 326
f 1 326 327
f 1 327 296
f 1 296 247
f 1 247 181
f 1 181 117
f 1 117 58
f 1 58 34
f 1 34 18
f 1 18 4
f 1 4 5
f 1 5 6
f 1 6 7
f 1 7 8
f 1 8 9
f 1 9 10
f 1 10 11
f 1 11 12
f 1 12 13
f 1 13 14
f 1 14 2
f 2 14 15
f 2 15 16
f 2 16 17
f 2 17 3
f 4 18 5
f 5 18 19
f 5 19 37
f 5 37 93
f 5 93 154
f 5 154 214
f 5 214 274
f 5 274 216
f 5 216 155
f 5 155 94
f 5 94 38
f 5 38 20
f 5 20 6
f 6 20 7
f 7 20 21
f 7 21 22
f 7 22 8
f 8 22 9
f 9 22 10
f 10 22 23
f 10 23 11
f 11 23 24
f 11 24 25
f 11 25 12
f 12 25 13
f 13 25 14
f 14 25 26
f 14 26 27
f 14 27 15
f 15 27 28
f 15 28 16
f 16 29 30
f 16 30 31
f 16 31 17
f 16 28 32
f 16 32 33
f 16 33 29
f 18 34 35
f 18 35 19
f 19 35 36
f 19 36 37
f 20 38 21
f 21 38 39
f 21 39 40
f 21 40 22
f 22 41 23
f 22 40 41
f 23 41 24
f 24 41 42
f 24 42 43
f 24 43 44
f 24 44 25
f 25 44 26
f 26 44 45
f 26 45 46
f 26 46 27
f 27 46 47
f 27 47 48
f 27 48 49
f 27 49 32
f 27 32 28
f 29 33 50
f 29 50 51
f 29 51 52
f 29 52 30
f 30 52 53
f 30 53 54
f 30 54 31
f 32 49 55
f 32 55 56
f 32 56 33
f 33 57 50
f 33 56 57
f 34 58 59
f 34 59 60
f 34 60 35
f 35 60 61
f 35 61 62
f 35 62 63
f 35 63 64
f 35 64 65
f 35 65 66
f 35 66 67
f 35 67 68
f 35 68 69
f 35 69 70
f 35 70 71
f 35 71 72
f 35 72 73
f 35 73 74
f 35 74 75
f 35 75 76
f 35 76 77
f 35 77 78
f 35 78 79
f 35 79 80
f 35 80 81
f 35 81 82
f 35 82 83
f 35 83 84
f 35 84 85
f 35 85 86
f 35 86 87
f 35 87 88
f 35 88 89
f 35 89 90
f 35 90 91
f 35 91 37
f 35 37 36
f 37 91 92
f 37 92 93
f 38 94 95
f 38 95 39
f 39 95 96
f 39 96 40
f 40 96 41
f 41 96 97
f 41 97 98
f 41 98 42
f 42 98 43
f 43 99 100
f 43 100 44
f 43 98 101
f 43 101 99
f 44 100 45
f 45 100 102
f 45 102 47
f 45 47 46
f 47 102 103
f 47 103 48
f 48 55 49
f 48 103 104
f 48 104 105
f 48 105 55
f 50 57 106
f 50 106 51
f 51 107 108
f 51 108 109
f 51 109 52
f 51 106 107
f 52 109 110
f 52 110 53
f 53 110 111
f 53 111 112
f 53 112 54
f 55 105 56
f 56 105 113
f 56 113 114
f 56 114 115
f 56 115 57
f 57 116 106
f 57 115 116
f 58 117 59
f 59 61 60
f 59 117 118
f 59 118 119
f 59 119 61
f 61 119 62
f 62 119 63
f 63 119 120
f 63 120 64
f 64 120 65
f 65 120 66
f 66 120 121
f 66 121 122
f 66 122 67
f 67 122 123
f 67 123 68
f 68 123 69
f 69 123 124
f 69 124 125
f 69 125 70
f 70 125 71
f 71 125 126
f 71 126 72
f 72 126 73
f 73 126 74
f 74 126 127
f 74 127 75
f 75 127 76
f 76 127 128
f 76 128 77
f 77 128 78
f 78 128 79
f 79 128 129
f 79 129 130
f 79 130 80
f 80 130 81
f 81 130 82
f 82 130 83
f 83 130 131
f 83 131 132
f 83 132 84
f 84 132 85
f 85 132 133
f 85 133 86
f 86 133 87
f 87 133 88
f 88 133 134
f 88 134 89
f 89 134 135
f 89 135 90
f 90 135 136
f 90 136 137
f 90 137 91
f 91 137 138
f 91 138 139
f 91 139 140
f 91 140 141
f 91 141 142
f 91 142 143
f 91 143 144
f 91 144 145
f 91 145 146
f 91 146 147
f 91 147 148
f 91 148 149
f 91 149 150
f 91 150 151
f 91 151 152
f 91 152 153
f 91 153 92
f 92 153 93
f 93 153 154
f 94 155 95
f 95 156 96
f 95 155 156
f 96 157 158
f 96 158 97
f 96 156 157
f 97 158 98
f 98 159 160
f 98 160 101
f 98 158 159
f 99 101 160
f 99 160 161
f 99 161 162
f 99 162 100
f 100 162 163
f 100 163 102
f 102 164 165
f 102 165 103
f 102 163 164
f 103 165 166
f 103 166 167
f 103 167 104
f 104 113 105
f 104 167 113
f 106 116 168
f 106 168 169
f 106 169 170
f 106 170 107
f 107 170 108
f 108 171 172
f 108 172 173
f 108 173 109
f 108 170 174
f 108 174 171
f 109 173 175
f 109 175 110
f 110 175 176
f 110 176 111
f 111 176 112
f 112 176 177
f 113 167 114
f 114 167 178
f 114 178 179
f 114 179 115
f 115 179 180
f 115 180 116
f 116 180 168
f 117 181 118
f 118 181 182
f 118 182 183
f 118 183 119
f 119 183 120
f 120 183 184
f 120 184 121
f 121 185 186
f 121 186 187
f 121 187 122
f 121 184 185
f 122 187 123
f 123 187 124
f 124 187 188
f 124 188 125
f 125 188 189
f 125 189 190
f 125 190 126
f 126 190 127
f 127 191 192
f 127 192 128
f 127 190 191
f 128 192 129
f 129 193 194
f 129 194 131
f 129 131 130
f 129 192 193
f 131 195 196
f 131 196 197
f 131 197 132
f 131 194 195
f 132 197 133
f 133 197 198
f 133 198 199
f 133 199 134
f 134 200 201
f 134 201 202
f 134 202 136
f 134 136 135
f 134 199 200
f 136 202 203
f 136 203 138
f 136 138 137
f 138 203 204
f 138 204 205
f 138 205 139
f 139 205 206
f 139 206 140
f 140 206 141
f 141 206 207
f 141 207 142
f 142 207 143
f 143 207 208
f 143 208 209
f 143 209 144
f 144 209 145
f 145 209 210
f 145 210 146
f 146 210 147
f 147 210 211
f 147 211 148
f 148 211 149
f 149 211 150
f 150 211 212
f 150 212 151
f 151 212 152
f 152 212 213
f 152 213 154
f 152 154 153
f 154 213 215
f 154 215 214
f 155 216 156
f 156 217 157
f 156 216 274
f 156 274 217
f 157 218 219
f 157 219 158
f 157 217 218
f 158 219 220
f 158 220 159
f 159 220 160
f 160 220 221
f 160 221 222
f 160 222 161
f 161 222 223
f 161 223 162
f 162 223 224
f 162 224 225
f 162 225 164
f 162 164 163
f 164 225 226
f 164 226 227
f 164 227 228
f 164 228 165
f 165 228 166
f 166 228 229
f 166 229 230
f 166 230 231
f 166 231 167
f 167 231 232
f 167 232 178
f 168 180 233
f 168 233 234
f 168 234 169
f 169 235 236
f 169 236 170
f 169 234 235
f 170 236 174
f 171 174 237
f 171 237 238
f 171 238 172
f 172 238 239
f 172 239 173
f 173 239 240
f 173 240 242
f 173 242 175
f 174 236 241
f 174 241 237
f 175 242 176
f 176 242 243
f 176 243 177
f 177 243 244
f 178 232 179
f 179 232 245
f 179 245 246
f 179 246 180
f 180 246 233
f 181 247 182
f 182 248 183
f 182 247 249
f 182 249 250
f 182 250 248
f 183 248 185
f 183 185 184
f 185 250 251
f 185 251 252
f 185 252 186
f 185 248 250
f 186 252 187
f 187 252 253
f 187 253 188
f 188 254 255
f 188 255 256
f 188 256 189
f 188 253 254
f 189 256 190
f 190 256 257
f 190 257 191
f 191 258 259
f 191 259 193
f 191 193 192
f 191 257 258
f 193 259 260
f 193 260 194
f 194 260 195
f 195 260 261
f 195 261 196
f 196 261 262
f 196 262 198
f 196 198 197
f 198 262 263
f 198 263 264
f 198 264 200
f 198 200 199
f 200 264 265
f 200 265 266
f 200 266 201
f 201 266 267
f 201 267 202
f 202 267 203
f 203 267 268
f 203 268 269
f 203 269 204
f 204 269 205
f 205 269 224
f 205 224 270
f 205 270 206
f 206 270 222
f 206 222 207
f 207 222 208
f 208 221 220
f 208 220 271
f 208 271 210
f 208 210 209
f 208 222 221
f 210 271 272
f 210 272 211
f 211 272 273
f 211 273 212
f 212 273 213
f 213 273 215
f 214 215 217
f 214 217 274
f 215 273 217
f 217 273 218
f 218 273 219
f 219 273 272
f 219 272 220
f 220 272 271
f 222 270 223
f 223 270 224
f 224 269 225
f 225 269 226
f 226 269 275
f 226 275 276
f 226 276 227
f 227 276 228
f 228 276 229
f 229 276 277
f 229 277 278
f 229 278 279
f 229 279 280
f 229 280 230
f 230 280 231
f 231 281 282
f 231 282 232
f 231 280 281
f 232 282 283
f 232 283 234
f 232 234 245
f 233 246 245
f 233 245 234
f 234 283 284
f 234 284 235
f 235 284 236
f 236 284 285
f 236 285 286
f 236 286 241
f 237 241 287
f 237 287 288
f 237 288 238
f 238 288 289
f 238 289 290
f 238 290 291
f 238 291 239
f 239 291 292
f 239 292 240
f 240 292 242
f 241 286 287
f 242 292 293
f 242 293 294
f 242 294 243
f 243 294 295
f 243 295 244
f 247 296 297
f 247 297 249
f 249 297 250
f 250 297 298
f 250 298 299
f 250 299 251
f 251 299 300
f 251 300 252
f 252 300 254
f 252 254 253
f 254 300 290
f 254 290 289
f 254 289 255
f 255 289 256
f 256 289 301
f 256 301 258
f 256 258 257
f 258 301 302
f 258 302 303
f 258 303 304
f 258 304 259
f 259 304 260
f 260 305 306
f 260 306 261
f 260 304 305
f 261 307 308
f 261 308 263
f 261 263 262
f 261 306 307
f 263 309 310
f 263 310 311
f 263 311 264
f 263 308 309
f 264 311 265
f 265 311 312
f 265 312 313
f 265 313 266
f 266 313 314
f 266 314 267
f 267 314 268
f 268 314 313
f 268 313 275
f 268 275 269
f 275 313 315
f 275 315 277
f 275 277 276
f 277 315 316
f 277 316 317
f 277 317 318
f 277 318 278
f 278 318 279
f 279 318 280
f 280 319 320
f 280 320 321
f 280 321 322
f 280 322 281
f 280 318 319
f 281 322 282
f 282 322 284
f 282 284 283
f 284 322 321
f 284 321 285
f 285 321 286
f 286 323 287
f 286 321 323
f 287 302 288
f 287 323 324
f 287 324 302
f 288 302 289
f 289 302 301
f 290 300 291
f 291 300 292
f 292 300 299
f 292 299 298
f 292 298 293
f 293 298 294
f 294 325 295
f 294 298 297
f 294 297 326
f 294 326 325
f 296 327 297
f 297 327 326
f 302 324 303
f 303 324 305
f 303 305 304
f 305 324 323
f 305 323 328
f 305 328 307
f 305 307 306
f 307 328 319
f 307 319 309
f 307 309 308
f 309 319 317
f 309 317 316
f 309 316 329
f 309 329 310
f 310 329 311
f 311 329 315
f 311 315 313
f 311 313 312
f 315 329 316
f 317 319 318
f 319 328 320
f 320 328 321
f 321 328 323

