# https://github.com/mikedh/trimesh
v -0.47187114 -0.16502555 0.24719188
v -0.47179967 -0.16502555 0.24918237
v -0.47182348 -0.16502555 0.24439131
v -0.47075111 -0.16847357 0.24719188
v -0.47177583 -0.16502555 0.24952956
v -0.47065580 -0.16844620 0.24952956
v -0.47160900 -0.16502555 0.24103524
v -0.47051281 -0.16839147 0.24103524
v -0.47070345 -0.16844620 0.24439131
v -0.46186224 -0.19135086 0.24439131
v -0.46190989 -0.19135086 0.24719188
v -0.46183839 -0.19132349 0.24952956
v -0.47156134 -0.16502555 0.25142747
v -0.47046512 -0.16836411 0.25142747
v -0.47127539 -0.16502555 0.23763289
v -0.47015533 -0.16825464 0.23710054
v -0.46133795 -0.19113195 0.23710054
v -0.46167159 -0.19126877 0.24103524
v -0.45192480 -0.21376295 0.24439131
v -0.45197248 -0.21379033 0.24719188
v -0.46164775 -0.19124141 0.25142747
v -0.45190099 -0.21376295 0.24952956
v -0.47120389 -0.16502555 0.25295508
v -0.47013152 -0.16825464 0.25295508
v -0.47063196 -0.16502555 0.23247150
v -0.46963108 -0.16806309 0.23247150
v -0.46083751 -0.19091302 0.23247150
v -0.45140052 -0.21351667 0.23710054
v -0.45173416 -0.21368086 0.24103524
v -0.44089118 -0.23568247 0.24439131
v -0.44091499 -0.23568247 0.24719188
v -0.45171034 -0.21365350 0.25142747
v -0.45140052 -0.21351667 0.25295508
v -0.46131414 -0.19113195 0.25295508
v -0.44084352 -0.23565510 0.24952956
v -0.47079876 -0.16502555 0.25399661
v -0.46972638 -0.16809045 0.25413546
v -0.46093285 -0.19094038 0.25413546
v -0.46891615 -0.16781680 0.22710177
v -0.46982169 -0.16502555 0.22710177
v -0.46012259 -0.19061200 0.22710177
v -0.45020899 -0.21296936 0.22710177
v -0.45090008 -0.21327038 0.23247150
v -0.44036689 -0.23540881 0.23710054
v -0.44070053 -0.23557302 0.24103524
v -0.42859450 -0.25691786 0.24103524
v -0.42876133 -0.25702733 0.24439131
v -0.42880899 -0.25702733 0.24719188
v -0.44065288 -0.23554565 0.25142747
v -0.44036689 -0.23538145 0.25295508
v -0.45099542 -0.21332511 0.25413546
v -0.42873749 -0.25699997 0.24952956
v -0.42857069 -0.25689051 0.25142747
v -0.47065580 -0.16502555 0.25427434
v -0.46920210 -0.16789889 0.25506127
v -0.45049497 -0.21307883 0.25506127
v -0.46040857 -0.19072147 0.25506127
v -0.46801057 -0.16748841 0.22094513
v -0.46867782 -0.16502555 0.22020449
v -0.45921701 -0.19022889 0.22094513
v -0.44932726 -0.21253152 0.22094513
v -0.43834129 -0.23431422 0.22094513
v -0.43919921 -0.23477942 0.22710177
v -0.43986645 -0.23513517 0.23247150
v -0.42828470 -0.25672629 0.23710054
v -0.41548759 -0.27763331 0.24103524
v -0.41565442 -0.27777013 0.24439131
v -0.41944349 -0.27177715 0.24439131
v -0.41949117 -0.27177715 0.24638179
v -0.41949117 -0.27177715 0.24719188
v -0.41946733 -0.27177715 0.24786310
v -0.43996179 -0.23518990 0.25413546
v -0.42828470 -0.25672629 0.25295508
v -0.43948516 -0.23491624 0.25506127
v -0.41939583 -0.27177715 0.24952956
v -0.41932434 -0.27177715 0.25006190
v -0.41913369 -0.27177715 0.25142747
v -0.41515398 -0.27744177 0.25295508
v -0.47015533 -0.16502555 0.25506127
v -0.46860635 -0.16770734 0.25575563
v -0.44992304 -0.21283254 0.25575563
v -0.45981279 -0.19050255 0.25575563
v -0.46741480 -0.16502555 0.21321461
v -0.46686670 -0.16707794 0.21390897
v -0.45812082 -0.18979105 0.21390897
v -0.44825488 -0.21203895 0.21390897
v -0.43729272 -0.23373955 0.21390897
v -0.42630675 -0.25554961 0.22094513
v -0.42714083 -0.25604218 0.22710177
v -0.42778426 -0.25642529 0.23247150
v -0.41470116 -0.27714074 0.23247150
v -0.41875240 -0.27177715 0.23710054
v -0.41515398 -0.27744177 0.23710054
v -0.40104616 -0.29750043 0.23710054
v -0.40135595 -0.29771936 0.24103524
v -0.40149894 -0.29782882 0.24439131
v -0.40157044 -0.29785618 0.24719188
v -0.41567823 -0.27779749 0.24719188
v -0.42787957 -0.25648001 0.25413546
v -0.42742682 -0.25620636 0.25506127
v -0.41860944 -0.27177715 0.25327909
v -0.41479650 -0.27719548 0.25413546
v -0.43893707 -0.23461524 0.25575563
v -0.41560674 -0.27774277 0.24952956
v -0.41541612 -0.27763331 0.25142747
v -0.40104616 -0.29747307 0.25295508
v -0.46948808 -0.16502555 0.25575563
v -0.46793908 -0.16746105 0.25626484
v -0.46874931 -0.16502555 0.25626484
v -0.45916936 -0.19022889 0.25626484
v -0.44927961 -0.21250415 0.25626484
v -0.46600878 -0.16502555 0.20592386
v -0.46550834 -0.16658537 0.20592386
v -0.45676246 -0.18921638 0.20592386
v -0.44694418 -0.21140954 0.20592386
v -0.43600589 -0.23305541 0.20592386
v -0.42404282 -0.25418136 0.20592386
v -0.42528203 -0.25492021 0.21390897
v -0.41462970 -0.27177715 0.21390897
v -0.41603571 -0.27177715 0.22094513
v -0.41629785 -0.27177715 0.22228757
v -0.41408157 -0.27670288 0.22710177
v -0.41741788 -0.27177715 0.22839791
v -0.40061721 -0.29714468 0.23247150
v -0.38598514 -0.31679291 0.23710054
v -0.38627109 -0.31701183 0.24103524
v -0.38643792 -0.31714866 0.24439131
v -0.40147513 -0.29780146 0.24952956
v -0.38646173 -0.31717601 0.24719188
v -0.38639024 -0.31712130 0.24952956
v -0.41434371 -0.27686709 0.25506127
v -0.41698894 -0.27177715 0.25559363
v -0.42687869 -0.25587797 0.25575563
v -0.40068871 -0.29719943 0.25413546
v -0.40025973 -0.29687104 0.25506127
v -0.43829364 -0.23428684 0.25626484
v -0.42625910 -0.25552225 0.25626484
v -0.40130830 -0.29766464 0.25142747
v -0.38596129 -0.31679291 0.25295508
v -0.38562766 -0.31649187 0.25413546
v -0.46720034 -0.16718741 0.25663516
v -0.46791524 -0.16502555 0.25663516
v -0.44856468 -0.21217577 0.25663516
v -0.45843062 -0.18992788 0.25663516
v -0.46422148 -0.16502555 0.19696662
v -0.46388784 -0.16601069 0.19696662
v -0.45518962 -0.18858698 0.19696662
v -0.44539517 -0.21067068 0.19696662
v -0.43450454 -0.23226184 0.19696662
v -0.42258915 -0.25330567 0.19696662
v -0.41291386 -0.27177715 0.20592386
v -0.41227046 -0.27549884 0.21390897
v -0.41324750 -0.27615559 0.22094513
v -0.39921120 -0.29610482 0.22094513
v -0.39999762 -0.29667950 0.22710177
v -0.38496041 -0.31594458 0.22710177
v -0.38555616 -0.31643716 0.23247150
v -0.36999470 -0.33534649 0.23710054
v -0.37025684 -0.33559278 0.24103524
v -0.37042364 -0.33572960 0.24439131
v -0.37044749 -0.33575699 0.24719188
v -0.38622344 -0.31698444 0.25142747
v -0.37037599 -0.33570224 0.24952956
v -0.37023300 -0.33556542 0.25142747
v -0.41379562 -0.27651134 0.25575563
v -0.39973548 -0.29651529 0.25575563
v -0.41679829 -0.27177715 0.25575563
v -0.41596422 -0.27177715 0.25626484
v -0.38522255 -0.31613612 0.25506127
v -0.43760252 -0.23390374 0.25663516
v -0.41522545 -0.27177715 0.25656572
v -0.42556801 -0.25511175 0.25663516
v -0.36997086 -0.33534649 0.25295508
v -0.36966106 -0.33504549 0.25413546
v -0.46639007 -0.16691375 0.25691289
v -0.45764419 -0.18959948 0.25691289
v -0.46700966 -0.16502555 0.25691289
v -0.44780210 -0.21182004 0.25691289
v -0.46214819 -0.16502555 0.18719931
v -0.46200523 -0.16535394 0.18706045
v -0.45335466 -0.18782076 0.18706045
v -0.44358405 -0.20982237 0.18706045
v -0.43274105 -0.23133141 0.18706045
v -0.42087334 -0.25226578 0.18706045
v -0.40852901 -0.27177715 0.18706045
v -0.41088825 -0.27177715 0.19696662
v -0.41105509 -0.27470523 0.20592386
v -0.39709026 -0.29454499 0.20592386
v -0.39825797 -0.29539332 0.21390897
v -0.38329226 -0.31457633 0.21390897
v -0.38419783 -0.31531519 0.22094513
v -0.36827889 -0.33381405 0.22094513
v -0.36899382 -0.33447081 0.22710177
v -0.36956576 -0.33496338 0.23247150
v -0.35269356 -0.35269603 0.23247150
v -0.35307488 -0.35310650 0.23710054
v -0.35336083 -0.35335279 0.24103524
v -0.35347998 -0.35351700 0.24439131
v -0.35352764 -0.35354435 0.24719188
v -0.35347998 -0.35348964 0.24952956
v -0.35331318 -0.35332543 0.25142747
v -0.41319984 -0.27612823 0.25626484
v -0.38469827 -0.31575301 0.25575563
v -0.38417399 -0.31528783 0.25626484
v -0.39916354 -0.29607746 0.25626484
v -0.36923212 -0.33468974 0.25506127
v -0.36877933 -0.33425188 0.25575563
v -0.42485309 -0.25467393 0.25691289
v -0.43683994 -0.23352063 0.25691289
v -0.41253257 -0.27569038 0.25663516
v -0.41503483 -0.27177715 0.25663516
v -0.35307488 -0.35307914 0.25295508
v -0.35276505 -0.35277814 0.25413546
v -0.35238376 -0.35239503 0.25506127
v -0.46555600 -0.16661273 0.25712121
v -0.46612793 -0.16502555 0.25712121
v -0.45681012 -0.18924373 0.25712121
v -0.44699186 -0.21143691 0.25712121
v -0.46117115 -0.16502555 0.18282485
v -0.45123371 -0.18691771 0.17632103
v -0.44151077 -0.20883721 0.17632103
v -0.43071544 -0.23023680 0.17632103
v -0.41889539 -0.25108907 0.17632103
v -0.40798092 -0.27262548 0.18706045
v -0.40962523 -0.27374744 0.19696662
v -0.40607446 -0.27133933 0.17632103
v -0.39570808 -0.29350513 0.19696662
v -0.38083768 -0.31257865 0.19696662
v -0.38217220 -0.31364590 0.20592386
v -0.36632475 -0.33203530 0.20592386
v -0.36739713 -0.33302045 0.21390897
v -0.35147822 -0.35149196 0.22094513
v -0.35216931 -0.35217610 0.22710177
v -0.33498731 -0.36958036 0.23247150
v -0.33534479 -0.36996347 0.23710054
v -0.33560693 -0.37026447 0.24103524
v -0.33574992 -0.37040132 0.24439131
v -0.33577374 -0.37045604 0.24719188
v -0.33572608 -0.37037396 0.24952956
v -0.33558309 -0.37020975 0.25142747
v -0.39852011 -0.29561225 0.25663516
v -0.36823121 -0.33375931 0.25626484
v -0.36765927 -0.33323938 0.25663516
v -0.38355440 -0.31479526 0.25663516
v -0.35193098 -0.35192981 0.25575563
v -0.35140672 -0.35143724 0.25626484
v -0.41403392 -0.27177715 0.25691289
v -0.41384327 -0.27177715 0.25695920
v -0.42409050 -0.25420871 0.25712121
v -0.43605354 -0.23308277 0.25712121
v -0.41184148 -0.27522516 0.25691289
v -0.33534479 -0.36996347 0.25295508
v -0.33505881 -0.36963508 0.25413546
v -0.33467752 -0.36922461 0.25506127
v -0.33424857 -0.36875939 0.25575563
v -0.46467426 -0.16628435 0.25726008
v -0.45597604 -0.18888800 0.25726008
v -0.46510321 -0.16502555 0.25726008
v -0.44615775 -0.21102643 0.25726008
v -0.43524328 -0.23267230 0.25726008
v -0.45966980 -0.16502555 0.17632103
v -0.44880298 -0.18593255 0.16481782
v -0.43912768 -0.20771524 0.16481782
v -0.42840385 -0.22900537 0.16481782
v -0.41663146 -0.24972081 0.16481782
v -0.40388203 -0.26988897 0.16481782
v -0.40669405 -0.27177715 0.17986226
v -0.39227644 -0.29096016 0.17632103
v -0.39411142 -0.29232842 0.18706045
v -0.37931252 -0.31129250 0.18706045
v -0.36356041 -0.32954508 0.18706045
v -0.36503789 -0.33088598 0.19696662
v -0.34840405 -0.34839970 0.19696662
v -0.34961942 -0.34960377 0.20592386
v -0.35062030 -0.35064363 0.21390897
v -0.33381963 -0.36829418 0.22094513
v -0.33446306 -0.36900568 0.22710177
v -0.31597039 -0.38495958 0.22710177
v -0.31644699 -0.38553426 0.23247150
v -0.31680447 -0.38597211 0.23710054
v -0.31704277 -0.38627312 0.24103524
v -0.31716192 -0.38640994 0.24439131
v -0.31720960 -0.38646469 0.24719188
v -0.31716192 -0.38638258 0.24952956
v -0.31701893 -0.38624576 0.25142747
v -0.38288713 -0.31424794 0.25691289
v -0.39782900 -0.29509231 0.25691289
v -0.36703968 -0.33266473 0.25691289
v -0.35088244 -0.35086256 0.25663516
v -0.33377194 -0.36823946 0.25626484
v -0.41110274 -0.27473259 0.25712121
v -0.42330408 -0.25371614 0.25726008
v -0.41281855 -0.27177715 0.25714436
v -0.39713791 -0.29457235 0.25712121
v -0.31680447 -0.38597211 0.25295508
v -0.31651849 -0.38561636 0.25413546
v -0.31618488 -0.38520586 0.25506127
v -0.31575590 -0.38471329 0.25575563
v -0.31532696 -0.38416600 0.25626484
v -0.46379253 -0.16598333 0.25730637
v -0.44529986 -0.21064332 0.25730637
v -0.45509431 -0.18853225 0.25730637
v -0.46414998 -0.16502555 0.25728321
v -0.43440920 -0.23220709 0.25730637
v -0.42249385 -0.25325093 0.25730637
v -0.45685777 -0.16502555 0.16481782
v -0.44603860 -0.18478322 0.15264340
v -0.43643484 -0.20642909 0.15264340
v -0.42575866 -0.22758238 0.15264340
v -0.41408157 -0.24818836 0.15264340
v -0.40137979 -0.26821968 0.15264340
v -0.39890140 -0.27177715 0.15264340
v -0.39015549 -0.28940034 0.16481782
v -0.37752521 -0.30984214 0.17632103
v -0.36186841 -0.32801265 0.17632103
v -0.34699804 -0.34700406 0.18706045
v -0.33088845 -0.36506510 0.19696662
v -0.33203232 -0.36632389 0.20592386
v -0.33300936 -0.36739114 0.21390897
v -0.31458819 -0.38326296 0.21390897
v -0.31535080 -0.38419336 0.22094513
v -0.29611936 -0.39921686 0.22094513
v -0.29669130 -0.39998308 0.22710177
v -0.29714409 -0.40061247 0.23247150
v -0.29747772 -0.40105033 0.23710054
v -0.29769221 -0.40135133 0.24103524
v -0.29783517 -0.40151554 0.24439131
v -0.29785901 -0.40154290 0.24719188
v -0.29781136 -0.40148818 0.24952956
v -0.29766837 -0.40132397 0.25142747
v -0.29747772 -0.40105033 0.25295508
v -0.38219604 -0.31367326 0.25712121
v -0.35026285 -0.35028788 0.25691289
v -0.34966707 -0.34965849 0.25712121
v -0.36634859 -0.33206269 0.25712121
v -0.33324769 -0.36766478 0.25663516
v -0.41034016 -0.27421266 0.25726008
v -0.38148111 -0.31309861 0.25726008
v -0.39637533 -0.29402506 0.25726008
v -0.29721558 -0.40069458 0.25413546
v -0.29688197 -0.40025675 0.25506127
v -0.29650065 -0.39973679 0.25575563
v -0.29607171 -0.39916211 0.25626484
v -0.29559511 -0.39853272 0.25663516
v -0.31480268 -0.38353661 0.25663516
v -0.46310145 -0.16502555 0.25726008
v -0.46407849 -0.16502555 0.25728321
v -0.31253874 -0.38074535 0.25732952
v -0.22846387 -0.43632406 0.25732952
v -0.41074526 -0.27177715 0.25730637
v -0.45364064 -0.16502555 0.15264340
v -0.45004219 -0.16502555 0.13984406
v -0.44291678 -0.18349706 0.13984406
v -0.43338448 -0.20500609 0.13984406
v -0.42277980 -0.22599520 0.13984406
v -0.41119805 -0.24646436 0.13984406
v -0.39859161 -0.26635885 0.13984406
v -0.38505572 -0.28562394 0.13984406
v -0.38774860 -0.28759423 0.15264340
v -0.37316418 -0.30628467 0.15264340
v -0.37547576 -0.30817285 0.16481782
v -0.35991430 -0.32623389 0.16481782
v -0.34537753 -0.34536216 0.17632103
v -0.32955390 -0.36358738 0.18706045
v -0.31132340 -0.37929499 0.18706045
v -0.31258643 -0.38082746 0.19696662
v -0.31368265 -0.38216835 0.20592386
v -0.29540443 -0.39825907 0.21390897
v -0.27550578 -0.41227007 0.21390897
v -0.27617303 -0.41325521 0.22094513
v -0.27672115 -0.41407615 0.22710177
v -0.27712625 -0.41470554 0.23247150
v -0.27743608 -0.41514340 0.23710054
v -0.27765054 -0.41547179 0.24103524
v -0.27776968 -0.41563597 0.24439131
v -0.27779353 -0.41566333 0.24719188
v -0.27774587 -0.41560861 0.24952956
v -0.27760288 -0.41541705 0.25142747
v -0.27741224 -0.41514340 0.25295508
v -0.27717394 -0.41478765 0.25413546
v -0.36565751 -0.33146065 0.25726008
v -0.33267576 -0.36700803 0.25691289
v -0.33207998 -0.36635125 0.25712121
v -0.33146039 -0.36566713 0.25726008
v -0.34899980 -0.34900174 0.25726008
v -0.31427839 -0.38287985 0.25691289
v -0.38076618 -0.31249657 0.25728321
v -0.39563659 -0.29345039 0.25728321
v -0.27688795 -0.41432244 0.25506127
v -0.27653050 -0.41380250 0.25575563
v -0.27612537 -0.41320047 0.25626484
v -0.27567258 -0.41254371 0.25663516
v -0.27521980 -0.41183221 0.25691289
v -0.29509464 -0.39784861 0.25691289
v -0.46214819 -0.16502555 0.25712121
v -0.22846387 -0.43525681 0.25726008
v -0.36496642 -0.33080387 0.25728321
v -0.34833255 -0.34831759 0.25728321
v -0.31313452 -0.38148421 0.25726008
v -0.29402226 -0.39639825 0.25726008
v -0.29345033 -0.39563203 0.25732952
v -0.23222914 -0.43440849 0.25732952
v -0.23268192 -0.43522945 0.25726008
v -0.22846387 -0.43736392 0.25726008
v -0.44599095 -0.16502555 0.12658182
v -0.43943751 -0.18204670 0.12658182
v -0.42997670 -0.20339155 0.12658182
v -0.41946733 -0.22421646 0.12658182
v -0.40795708 -0.24452144 0.12658182
v -0.39544594 -0.26425174 0.12658182
v -0.39017934 -0.27177715 0.12658182
v -0.38200539 -0.28335264 0.12658182
v -0.36765927 -0.30176941 0.12658182
v -0.37056664 -0.30417755 0.13984406
v -0.35769802 -0.32423624 0.15264340
v -0.34139779 -0.34139422 0.15264340
v -0.34349489 -0.34350133 0.16481782
v -0.32624143 -0.35992044 0.16481782
v -0.32800493 -0.36186337 0.17632103
v -0.30986971 -0.37751627 0.17632103
v -0.29097193 -0.39226609 0.17632103
v -0.29233029 -0.39409956 0.18706045
v -0.29352182 -0.39571410 0.19696662
v -0.29454654 -0.39708239 0.20592386
v -0.27469552 -0.41106600 0.20592386
v -0.25493985 -0.42529589 0.21390897
v -0.25555944 -0.42630839 0.22094513
v -0.25605989 -0.42715672 0.22710177
v -0.25644118 -0.42778611 0.23247150
v -0.25672716 -0.42827868 0.23710054
v -0.25691777 -0.42860708 0.24103524
v -0.25703695 -0.42877126 0.24439131
v -0.25706077 -0.42882600 0.24719188
v -0.25701311 -0.42874390 0.24952956
v -0.25689396 -0.42855233 0.25142747
v -0.25672716 -0.42825133 0.25295508
v -0.25648883 -0.42789558 0.25413546
v -0.31370646 -0.38222307 0.25712121
v -0.25620288 -0.42743036 0.25506127
v -0.25589305 -0.42688307 0.25575563
v -0.25551176 -0.42625368 0.25626484
v -0.25510666 -0.42556953 0.25663516
v -0.25467771 -0.42485803 0.25691289
v -0.25422493 -0.42409182 0.25712121
v -0.27471936 -0.41109335 0.25712121
v -0.29457039 -0.39713711 0.25712121
v -0.46114731 -0.16502555 0.25691289
v -0.22846387 -0.43438113 0.25714436
v -0.22846387 -0.43424430 0.25712121
v -0.27419508 -0.41032714 0.25726008
v -0.27367079 -0.40956089 0.25732952
v -0.25324786 -0.42247728 0.25732952
v -0.25374830 -0.42329824 0.25726008
v -0.23311087 -0.43607777 0.25712121
v -0.22846387 -0.43840382 0.25712121
v -0.44270232 -0.16502555 0.11649047
v -0.43555307 -0.18043216 0.11281037
v -0.42616376 -0.20158544 0.11281037
v -0.41574973 -0.22224617 0.11281037
v -0.40435863 -0.24238694 0.11281037
v -0.39196664 -0.26192570 0.11281037
v -0.38741496 -0.27177715 0.11912903
v -0.37864527 -0.28086239 0.11281037
v -0.36441830 -0.29911500 0.11281037
v -0.34933344 -0.31660134 0.11281037
v -0.35243145 -0.31941995 0.12658182
v -0.35521963 -0.32196492 0.13984406
v -0.33901471 -0.33901343 0.13984406
v -0.32423967 -0.35773122 0.15264340
v -0.30820155 -0.37546387 0.16481782
v -0.28939909 -0.39013162 0.16481782
v -0.26990557 -0.40386894 0.16481782
v -0.27135924 -0.40605816 0.17632103
v -0.27262226 -0.40797371 0.18706045
v -0.27374232 -0.40964299 0.19696662
v -0.25331935 -0.42258674 0.19696662
v -0.25420108 -0.42403710 0.20592386
v -0.23306322 -0.43602306 0.20592386
v -0.23375431 -0.43728185 0.21390897
v -0.23432624 -0.43834907 0.22094513
v -0.23480286 -0.43922478 0.22710177
v -0.23513648 -0.43988153 0.23247150
v -0.23539862 -0.44037411 0.23710054
v -0.23558927 -0.44070250 0.24103524
v -0.23568460 -0.44086668 0.24439131
v -0.23570842 -0.44092143 0.24719188
v -0.23566076 -0.44083932 0.24952956
v -0.23556544 -0.44064775 0.25142747
v -0.23539862 -0.44037411 0.25295508
v -0.23518415 -0.43996364 0.25413546
v -0.23494583 -0.43947107 0.25506127
v -0.23463604 -0.43892375 0.25575563
v -0.23430240 -0.43829435 0.25626484
v -0.23392111 -0.43761021 0.25663516
v -0.23351599 -0.43684399 0.25691289
v -0.46028942 -0.16502555 0.25663516
v -0.22846387 -0.43323177 0.25691289
v -0.22846387 -0.43941632 0.25691289
v -0.44148695 -0.16502555 0.11281037
v -0.43653014 -0.16502555 0.09866861
v -0.43126357 -0.17865342 0.09866861
v -0.42196956 -0.19961515 0.09866861
v -0.41167468 -0.22005695 0.09866861
v -0.40035507 -0.23997882 0.09866861
v -0.38810608 -0.25932601 0.09866861
v -0.38505572 -0.27177715 0.11281037
v -0.37490383 -0.27809852 0.09866861
v -0.36081985 -0.29615954 0.09866861
v -0.34587798 -0.31348172 0.09866861
v -0.33010203 -0.33009237 0.09866861
v -0.33339065 -0.33337620 0.11281037
v -0.33634567 -0.33633164 0.12658182
v -0.31944966 -0.35242239 0.12658182
v -0.32199958 -0.35521364 0.13984406
v -0.30417415 -0.37056550 0.13984406
v -0.30629510 -0.37316519 0.15264340
v -0.28761178 -0.38775083 0.15264340
v -0.26823741 -0.40137869 0.15264340
v -0.24821956 -0.41407615 0.15264340
v -0.24976856 -0.41662112 0.16481782
v -0.25110310 -0.41889244 0.17632103
v -0.25227079 -0.42086273 0.18706045
v -0.23227680 -0.43451795 0.19696662
v -0.22846387 -0.43796599 0.20407222
v -0.22846387 -0.43834907 0.20592386
v -0.22846387 -0.44031936 0.21566801
v -0.22846387 -0.44130450 0.22094513
v -0.22846387 -0.44160554 0.22263473
v -0.22846387 -0.44239914 0.22710177
v -0.22846387 -0.44267279 0.22867566
v -0.22846387 -0.44324744 0.23247150
v -0.22846387 -0.44387686 0.23710054
v -0.22846387 -0.44417787 0.23976225
v -0.22846387 -0.44431469 0.24103524
v -0.22846387 -0.44453362 0.24439131
v -0.22846387 -0.44456097 0.24719188
v -0.22846387 -0.44456097 0.24795568
v -0.22846387 -0.44447887 0.24952956
v -0.22846387 -0.44423258 0.25142747
v -0.22846387 -0.44387686 0.25295508
v -0.22846387 -0.44338429 0.25413546
v -0.22846387 -0.44275486 0.25506127
v -0.22846387 -0.44226229 0.25554734
v -0.22846387 -0.44204336 0.25575563
v -0.22846387 -0.44146872 0.25612596
v -0.22846387 -0.44124979 0.25626484
v -0.22846387 -0.44037411 0.25663516
v -0.45945531 -0.16502555 0.25626484
v -0.22846387 -0.43227401 0.25663516
v -0.43104908 -0.16502555 0.08427224
v -0.42654505 -0.17671049 0.08427224
v -0.41737023 -0.19742593 0.08427224
v -0.40717065 -0.21764880 0.08427224
v -0.39597023 -0.23735175 0.08427224
v -0.38386419 -0.25650740 0.08427224
v -0.37314036 -0.27177715 0.08427224
v -0.37936017 -0.27177715 0.09866861
v -0.37080494 -0.27506098 0.08427224
v -0.35686395 -0.29293045 0.08427224
v -0.34211272 -0.31006107 0.08427224
v -0.32647973 -0.32648018 0.08427224
v -0.31008419 -0.34210569 0.08427224
v -0.31351581 -0.34588209 0.09866861
v -0.31663764 -0.34933013 0.11281037
v -0.30176726 -0.36766478 0.12658182
v -0.28561002 -0.38504168 0.13984406
v -0.26637858 -0.39858747 0.13984406
v -0.24647993 -0.41117543 0.13984406
v -0.22846387 -0.42141002 0.13984406
v -0.22846387 -0.42529589 0.15264340
v -0.22901198 -0.42838815 0.16481782
v -0.23025119 -0.43071419 0.17632103
v -0.23132357 -0.43273920 0.18706045
v -0.22846387 -0.43418956 0.18706045
v -0.22846387 -0.43643352 0.19696662
v -0.45866892 -0.16502555 0.25575563
v -0.22846387 -0.43139833 0.25626484
v -0.42509139 -0.16502555 0.06964442
v -0.42139763 -0.17457600 0.06964442
v -0.41231811 -0.19504517 0.06964442
v -0.40226153 -0.21502176 0.06964442
v -0.39120406 -0.23450577 0.06964442
v -0.37924102 -0.25341511 0.06964442
v -0.36630094 -0.27177715 0.06964442
v -0.35257441 -0.28937298 0.06964442
v -0.33796617 -0.30633941 0.06964442
v -0.32254767 -0.32253960 0.06964442
v -0.30634278 -0.33797356 0.06964442
v -0.28939909 -0.35258657 0.06964442
v -0.29292604 -0.35688290 0.08427224
v -0.29616705 -0.36082348 0.09866861
v -0.29909822 -0.36440834 0.11281037
v -0.28086770 -0.37863824 0.11281037
v -0.28334609 -0.38200414 0.12658182
v -0.26428148 -0.39546782 0.12658182
v -0.24454963 -0.40794635 0.12658182
v -0.22846387 -0.41708633 0.12658182
v -0.22846387 -0.42868918 0.16481782
v -0.22846387 -0.43164462 0.17632103
v -0.45793015 -0.16502555 0.25508443
v -0.22846387 -0.43057737 0.25575563
v -0.41860944 -0.16502555 0.05492402
v -0.41582122 -0.17224996 0.05492402
v -0.40686086 -0.19244547 0.05492402
v -0.38603279 -0.23138614 0.05492402
v -0.39692345 -0.21217577 0.05492402
v -0.37421274 -0.25004920 0.05492402
v -0.36148712 -0.26811022 0.05492402
v -0.35865125 -0.27177715 0.05492402
v -0.34792742 -0.28556922 0.05492402
v -0.33350983 -0.30228934 0.05492402
v -0.31828198 -0.31824327 0.05492402
v -0.30229154 -0.33348566 0.05492402
v -0.28556234 -0.34790713 0.05492402
v -0.26811823 -0.36148027 0.05492402
v -0.27174053 -0.36632389 0.06964442
v -0.27505299 -0.37081179 0.08427224
v -0.27810332 -0.37488919 0.09866861
v -0.25934851 -0.38810658 0.09866861
v -0.26192224 -0.39196509 0.11281037
v -0.24238104 -0.40433416 0.11281037
v -0.22846387 -0.41227007 0.11281037
v -0.45723906 -0.16502555 0.25422806
v -0.22846387 -0.42981112 0.25508443
v -0.41639316 -0.16502555 0.05022553
v -0.41162702 -0.16502555 0.04015733
v -0.40979204 -0.16975974 0.04015733
v -0.40097466 -0.18965423 0.04015733
v -0.38045639 -0.22802022 0.04015733
v -0.39115641 -0.20911087 0.04015733
v -0.36877933 -0.24640962 0.04015733
v -0.35624436 -0.26422438 0.04015733
v -0.35038200 -0.27177715 0.04015733
v -0.34287530 -0.28140971 0.04015733
v -0.32864836 -0.29791093 0.04015733
v -0.31368265 -0.31364590 0.04015733
v -0.29790667 -0.32866940 0.04015733
v -0.28141579 -0.34287193 0.04015733
v -0.26423383 -0.35625350 0.04015733
v -0.24645609 -0.36878675 0.04015733
v -0.25005454 -0.37417769 0.05492402
v -0.25341466 -0.37921292 0.06964442
v -0.25651267 -0.38383761 0.08427224
v -0.23737657 -0.39598775 0.08427224
v -0.23999795 -0.40036619 0.09866861
v -0.22846387 -0.40690649 0.09866861
v -0.45659563 -0.16502555 0.25311708
v -0.22846387 -0.42909965 0.25422806
v -0.41005418 -0.16502555 0.03707901
v -0.40331009 -0.16707794 0.02546007
v -0.39463568 -0.18667141 0.02546007
v -0.38500807 -0.20579968 0.02546007
v -0.37442723 -0.22443539 0.02546007
v -0.36296463 -0.24252377 0.02546007
v -0.35062030 -0.26006487 0.02546007
v -0.34640226 -0.27177715 0.03351463
v -0.32350090 -0.29317674 0.02546007
v -0.33744189 -0.27697656 0.02546007
v -0.30872583 -0.30869281 0.02546007
v -0.29318818 -0.32347000 0.02546007
v -0.27698329 -0.33745363 0.02546007
v -0.26006344 -0.35061628 0.02546007
v -0.22846387 -0.37187904 0.02546007
v -0.22846387 -0.37995178 0.03976386
v -0.22846387 -0.38017070 0.04015733
v -0.23141888 -0.38602683 0.05492402
v -0.24254784 -0.36293063 0.02546007
v -0.23451689 -0.39119887 0.06964442
v -0.22846387 -0.39464688 0.06964442
v -0.22846387 -0.40105033 0.08427224
v -0.22846387 -0.40389630 0.09121582
v -0.45597604 -0.16502555 0.25170523
v -0.22846387 -0.42841551 0.25311708
v -0.40409648 -0.16502555 0.02546007
v -0.40114149 -0.16617489 0.02087731
v -0.40338159 -0.16502555 0.02411765
v -0.39249092 -0.18565890 0.02087731
v -0.38953590 -0.19156978 0.02087731
v -0.38291097 -0.20467772 0.02087731
v -0.37966999 -0.21042439 0.02087731
v -0.37240160 -0.22320396 0.02087731
v -0.36101049 -0.24123761 0.02087731
v -0.34873766 -0.25864187 0.02087731
v -0.33853811 -0.27177715 0.02087731
v -0.34151694 -0.27177715 0.02546007
v -0.32173744 -0.29161692 0.02087731
v -0.31158555 -0.30228934 0.02087731
v -0.33563074 -0.27547145 0.02087731
v -0.30705768 -0.30702353 0.02087731
v -0.29161537 -0.32171863 0.02087731
v -0.27548194 -0.33562016 0.02087731
v -0.25865743 -0.34872809 0.02087731
v -0.25327170 -0.35253185 0.02087731
v -0.24123716 -0.36098769 0.02087731
v -0.22846387 -0.36908779 0.02087731
v -0.22846387 -0.38107374 0.04189322
v -0.22846387 -0.38769612 0.05492402
v -0.37611920 -0.16502555 0.02087731
v -0.22846387 -0.42778611 0.25170523
v -0.40157044 -0.16502555 0.02087731
v -0.22846387 -0.34144893 0.02087731
f 1 2 5
f 1 5 13
f 1 13 23
f 1 23 36
f 1 36 54
f 1 54 79
f 1 79 107
f 1 107 109
f 1 109 142
f 1 142 177
f 1 177 216
f 1 216 258
f 1 258 303
f 1 303 347
f 1 347 346
f 1 346 395
f 1 395 447
f 1 447 496
f 1 496 548
f 1 548 576
f 1 576 600
f 1 600 623
f 1 623 647
f 1 647 672
f 1 672 698
f 1 698 700
f 1 700 676
f 1 676 674
f 1 674 649
f 1 649 626
f 1 626 625
f 1 625 602
f 1 602 578
f 1 578 550
f 1 550 500
f 1 500 499
f 1 499 456
f 1 456 405
f 1 405 352
f 1 352 351
f 1 351 306
f 1 306 261
f 1 261 219
f 1 219 179
f 1 179 145
f 1 145 112
f 1 112 83
f 1 83 59
f 1 59 40
f 1 40 25
f 1 25 15
f 1 15 7
f 1 7 3
f 1 3 4
f 1 4 2
f 2 4 6
f 2 6 5
f 3 7 8
f 3 8 9
f 3 9 4
f 4 9 10
f 4 10 11
f 4 11 12
f 4 12 6
f 5 6 13
f 6 14 13
f 6 12 21
f 6 21 14
f 7 15 8
f 8 15 16
f 8 16 17
f 8 17 18
f 8 18 10
f 8 10 9
f 10 18 29
f 10 29 19
f 10 19 20
f 10 20 11
f 11 20 22
f 11 22 12
f 12 22 21
f 13 14 23
f 14 24 23
f 14 21 34
f 14 34 24
f 15 25 16
f 16 25 26
f 16 26 27
f 16 27 17
f 17 27 28
f 17 28 29
f 17 29 18
f 19 29 30
f 19 30 20
f 20 30 31
f 20 31 35
f 20 35 22
f 21 22 32
f 21 32 33
f 21 33 34
f 22 35 49
f 22 49 32
f 23 24 36
f 24 37 36
f 24 34 38
f 24 38 37
f 25 39 26
f 25 40 39
f 26 39 27
f 27 41 42
f 27 42 43
f 27 43 28
f 27 39 41
f 28 43 44
f 28 44 45
f 28 45 29
f 29 45 30
f 30 45 46
f 30 46 47
f 30 47 48
f 30 48 31
f 31 48 52
f 31 52 35
f 32 49 50
f 32 50 33
f 33 50 72
f 33 72 51
f 33 51 38
f 33 38 34
f 35 52 53
f 35 53 49
f 36 37 54
f 37 55 54
f 37 38 55
f 38 51 56
f 38 56 57
f 38 57 55
f 39 40 58
f 39 58 41
f 40 59 58
f 41 58 60
f 41 60 42
f 42 60 61
f 42 61 62
f 42 62 63
f 42 63 64
f 42 64 43
f 43 64 44
f 44 64 65
f 44 65 45
f 45 65 46
f 46 65 66
f 46 66 67
f 46 67 68
f 46 68 47
f 47 68 69
f 47 69 48
f 48 69 70
f 48 70 71
f 48 71 52
f 49 53 73
f 49 73 50
f 50 73 72
f 51 72 74
f 51 74 56
f 52 71 75
f 52 75 53
f 53 75 76
f 53 76 77
f 53 77 78
f 53 78 73
f 54 55 79
f 55 80 79
f 55 57 80
f 56 74 81
f 56 81 57
f 57 81 82
f 57 82 80
f 58 59 83
f 58 83 84
f 58 84 85
f 58 85 60
f 60 85 61
f 61 85 86
f 61 86 62
f 62 86 87
f 62 87 88
f 62 88 63
f 63 88 89
f 63 89 64
f 64 89 90
f 64 90 65
f 65 90 91
f 65 91 92
f 65 92 66
f 66 92 93
f 66 93 94
f 66 94 95
f 66 95 67
f 67 69 68
f 67 95 96
f 67 96 97
f 67 97 98
f 67 98 69
f 69 98 70
f 70 98 71
f 71 98 75
f 72 73 99
f 72 99 100
f 72 100 74
f 73 78 101
f 73 101 102
f 73 102 99
f 74 103 81
f 74 100 103
f 75 98 104
f 75 104 76
f 76 104 105
f 76 105 77
f 77 105 78
f 78 102 101
f 78 105 138
f 78 138 106
f 78 106 102
f 79 80 107
f 80 108 109
f 80 109 107
f 80 82 110
f 80 110 108
f 81 103 136
f 81 136 111
f 81 111 110
f 81 110 82
f 83 112 113
f 83 113 84
f 84 113 85
f 85 113 114
f 85 114 115
f 85 115 86
f 86 115 87
f 87 115 116
f 87 116 117
f 87 117 118
f 87 118 88
f 88 118 119
f 88 119 120
f 88 120 121
f 88 121 122
f 88 122 89
f 89 122 123
f 89 123 90
f 90 123 91
f 91 93 92
f 91 123 122
f 91 122 124
f 91 124 94
f 91 94 93
f 94 124 157
f 94 157 125
f 94 125 95
f 95 125 126
f 95 126 127
f 95 127 96
f 96 127 97
f 97 128 104
f 97 104 98
f 97 127 129
f 97 129 130
f 97 130 128
f 99 102 100
f 100 102 131
f 100 131 132
f 100 132 133
f 100 133 103
f 102 106 134
f 102 134 135
f 102 135 131
f 103 133 137
f 103 137 136
f 104 128 138
f 104 138 105
f 106 138 162
f 106 162 139
f 106 139 140
f 106 140 134
f 108 141 109
f 108 110 141
f 109 141 142
f 110 111 143
f 110 143 144
f 110 144 141
f 111 136 143
f 112 145 113
f 113 145 146
f 113 146 147
f 113 147 114
f 114 147 115
f 115 147 148
f 115 148 149
f 115 149 116
f 116 149 150
f 116 150 117
f 117 150 151
f 117 151 119
f 117 119 118
f 119 151 152
f 119 152 120
f 120 152 153
f 120 153 121
f 121 153 122
f 122 153 154
f 122 154 155
f 122 155 124
f 124 155 156
f 124 156 157
f 125 157 158
f 125 158 126
f 126 158 159
f 126 159 160
f 126 160 127
f 127 160 161
f 127 161 129
f 128 130 162
f 128 162 138
f 129 161 163
f 129 163 130
f 130 163 164
f 130 164 162
f 131 165 132
f 131 135 166
f 131 166 165
f 132 165 167
f 132 167 133
f 133 167 168
f 133 168 137
f 134 140 169
f 134 169 135
f 135 169 166
f 136 170 143
f 136 137 170
f 137 168 171
f 137 171 172
f 137 172 170
f 139 162 164
f 139 164 173
f 139 173 174
f 139 174 140
f 140 174 169
f 141 175 142
f 141 144 176
f 141 176 175
f 142 175 177
f 143 178 144
f 143 170 178
f 144 178 176
f 145 179 146
f 146 179 180
f 146 180 181
f 146 181 147
f 147 181 148
f 148 181 182
f 148 182 183
f 148 183 149
f 149 183 150
f 150 184 185
f 150 185 186
f 150 186 151
f 150 183 184
f 151 186 187
f 151 187 152
f 152 187 188
f 152 188 189
f 152 189 154
f 152 154 153
f 154 189 190
f 154 190 191
f 154 191 156
f 154 156 155
f 156 191 192
f 156 192 193
f 156 193 157
f 157 193 194
f 157 194 158
f 158 194 195
f 158 195 196
f 158 196 197
f 158 197 159
f 159 197 160
f 160 197 198
f 160 198 199
f 160 199 161
f 161 199 200
f 161 200 163
f 163 200 164
f 164 200 201
f 164 201 173
f 165 202 168
f 165 168 167
f 165 166 202
f 166 169 203
f 166 203 204
f 166 204 205
f 166 205 202
f 168 202 171
f 169 174 206
f 169 206 207
f 169 207 203
f 170 172 208
f 170 208 209
f 170 209 178
f 171 202 210
f 171 210 211
f 171 211 172
f 172 211 208
f 173 201 212
f 173 212 213
f 173 213 174
f 174 213 214
f 174 214 206
f 175 215 216
f 175 216 177
f 175 176 215
f 176 217 215
f 176 178 218
f 176 218 217
f 178 209 218
f 179 219 180
f 180 219 181
f 181 220 221
f 181 221 182
f 181 219 220
f 182 221 183
f 183 221 222
f 183 222 223
f 183 223 184
f 184 223 185
f 185 224 225
f 185 225 186
f 185 223 226
f 185 226 224
f 186 225 187
f 187 225 188
f 188 227 228
f 188 228 229
f 188 229 190
f 188 190 189
f 188 225 227
f 190 229 230
f 190 230 231
f 190 231 192
f 190 192 191
f 192 231 232
f 192 232 233
f 192 233 193
f 193 233 194
f 194 233 195
f 195 233 234
f 195 234 196
f 196 234 235
f 196 235 236
f 196 236 197
f 197 236 198
f 198 236 237
f 198 237 238
f 198 238 199
f 199 238 200
f 200 238 239
f 200 239 240
f 200 240 201
f 201 240 252
f 201 252 212
f 202 205 241
f 202 241 210
f 203 207 204
f 204 207 242
f 204 242 243
f 204 243 244
f 204 244 205
f 205 244 241
f 206 214 207
f 207 214 245
f 207 245 246
f 207 246 242
f 208 211 247
f 208 247 248
f 208 248 249
f 208 249 209
f 209 250 218
f 209 249 250
f 210 251 211
f 210 241 251
f 211 251 247
f 212 252 213
f 213 252 253
f 213 253 214
f 214 253 254
f 214 254 255
f 214 255 245
f 215 256 216
f 215 217 257
f 215 257 256
f 216 256 258
f 217 218 257
f 218 259 257
f 218 250 260
f 218 260 259
f 219 261 220
f 220 261 262
f 220 262 221
f 221 262 263
f 221 263 264
f 221 264 222
f 222 264 223
f 223 264 265
f 223 265 266
f 223 266 226
f 224 226 267
f 224 267 268
f 224 268 269
f 224 269 225
f 225 269 227
f 226 266 268
f 226 268 267
f 227 269 228
f 228 269 270
f 228 270 271
f 228 271 272
f 228 272 230
f 228 230 229
f 230 272 273
f 230 273 274
f 230 274 231
f 231 274 275
f 231 275 232
f 232 275 276
f 232 276 233
f 233 276 277
f 233 277 234
f 234 277 278
f 234 278 279
f 234 279 280
f 234 280 235
f 235 280 236
f 236 280 281
f 236 281 237
f 237 281 282
f 237 282 283
f 237 283 238
f 238 283 284
f 238 284 239
f 239 284 285
f 239 285 240
f 240 285 252
f 241 244 286
f 241 286 287
f 241 287 251
f 242 246 243
f 243 288 244
f 243 246 289
f 243 289 333
f 243 333 288
f 244 288 286
f 245 255 290
f 245 290 246
f 246 290 336
f 246 336 289
f 247 251 248
f 248 251 291
f 248 291 249
f 249 292 260
f 249 260 250
f 249 291 293
f 249 293 292
f 251 287 294
f 251 294 291
f 252 285 295
f 252 295 253
f 253 295 296
f 253 296 297
f 253 297 254
f 254 297 255
f 255 297 298
f 255 298 299
f 255 299 290
f 256 300 258
f 256 257 300
f 257 259 301
f 257 301 302
f 257 302 300
f 258 300 303
f 259 260 301
f 260 304 301
f 260 292 305
f 260 305 304
f 261 306 262
f 262 306 307
f 262 307 308
f 262 308 263
f 263 308 264
f 264 308 309
f 264 309 310
f 264 310 265
f 265 310 266
f 266 310 311
f 266 311 312
f 266 312 313
f 266 313 268
f 268 313 314
f 268 314 270
f 268 270 269
f 270 315 271
f 270 314 315
f 271 315 316
f 271 316 272
f 272 316 273
f 273 316 317
f 273 317 274
f 274 317 318
f 274 318 319
f 274 319 275
f 275 319 276
f 276 319 320
f 276 320 321
f 276 321 278
f 276 278 277
f 278 321 322
f 278 322 323
f 278 323 324
f 278 324 279
f 279 324 280
f 280 324 325
f 280 325 281
f 281 325 326
f 281 326 327
f 281 327 282
f 282 327 283
f 283 327 328
f 283 328 329
f 283 329 284
f 284 329 285
f 285 329 330
f 285 330 331
f 285 331 295
f 286 288 332
f 286 332 294
f 286 294 287
f 288 333 334
f 288 334 335
f 288 335 332
f 289 336 333
f 290 299 336
f 291 337 293
f 291 294 337
f 292 293 337
f 292 337 305
f 294 332 338
f 294 338 339
f 294 339 337
f 295 331 340
f 295 340 296
f 296 340 297
f 297 340 341
f 297 341 342
f 297 342 298
f 298 342 299
f 299 342 343
f 299 343 344
f 299 344 345
f 299 345 336
f 300 346 347
f 300 347 303
f 300 302 348
f 300 348 349
f 300 349 346
f 301 304 348
f 301 348 302
f 304 305 348
f 305 337 350
f 305 350 348
f 306 351 307
f 307 351 352
f 307 352 353
f 307 353 354
f 307 354 308
f 308 354 309
f 309 354 355
f 309 355 356
f 309 356 310
f 310 356 357
f 310 357 311
f 311 357 312
f 312 357 358
f 312 358 359
f 312 359 313
f 313 359 360
f 313 360 361
f 313 361 314
f 314 361 362
f 314 362 315
f 315 362 363
f 315 363 316
f 316 363 364
f 316 364 317
f 317 364 365
f 317 365 366
f 317 366 367
f 317 367 318
f 318 367 319
f 319 367 320
f 320 367 368
f 320 368 321
f 321 368 322
f 322 369 370
f 322 370 371
f 322 371 323
f 322 368 369
f 323 371 324
f 324 371 372
f 324 372 325
f 325 372 373
f 325 373 374
f 325 374 326
f 326 374 327
f 327 374 375
f 327 375 376
f 327 376 328
f 328 376 377
f 328 377 329
f 329 377 330
f 330 377 378
f 330 378 379
f 330 379 331
f 331 379 380
f 331 380 340
f 332 335 381
f 332 381 338
f 333 336 382
f 333 382 334
f 334 382 383
f 334 383 384
f 334 384 385
f 334 385 381
f 334 381 335
f 336 345 386
f 336 386 382
f 337 339 350
f 338 387 339
f 338 381 387
f 339 387 388
f 339 388 350
f 340 380 389
f 340 389 341
f 341 389 390
f 341 390 342
f 342 390 343
f 343 390 391
f 343 391 344
f 344 391 392
f 344 392 393
f 344 393 394
f 344 394 386
f 344 386 345
f 346 349 396
f 346 396 395
f 348 387 397
f 348 397 398
f 348 398 385
f 348 385 384
f 348 384 399
f 348 399 400
f 348 400 401
f 348 401 451
f 348 451 452
f 348 452 402
f 348 402 349
f 348 350 387
f 349 402 403
f 349 403 404
f 349 404 455
f 349 455 498
f 349 498 547
f 349 547 546
f 349 546 545
f 349 545 544
f 349 544 543
f 349 543 542
f 349 542 541
f 349 541 540
f 349 540 539
f 349 539 538
f 349 538 537
f 349 537 536
f 349 536 535
f 349 535 534
f 349 534 533
f 349 533 532
f 349 532 531
f 349 531 530
f 349 530 529
f 349 529 528
f 349 528 527
f 349 527 526
f 349 526 525
f 349 525 524
f 349 524 575
f 349 575 574
f 349 574 599
f 349 599 598
f 349 598 570
f 349 570 569
f 349 569 597
f 349 597 622
f 349 622 646
f 349 646 671
f 349 671 670
f 349 670 669
f 349 669 697
f 349 697 696
f 349 696 665
f 349 665 664
f 349 664 663
f 349 663 695
f 349 695 701
f 349 701 699
f 349 699 673
f 349 673 648
f 349 648 624
f 349 624 601
f 349 601 577
f 349 577 549
f 349 549 497
f 349 497 449
f 349 449 448
f 349 448 396
f 350 388 387
f 352 405 406
f 352 406 353
f 353 406 354
f 354 407 408
f 354 408 355
f 354 406 407
f 355 408 356
f 356 408 409
f 356 409 357
f 357 409 410
f 357 410 411
f 357 411 358
f 358 412 413
f 358 413 414
f 358 414 360
f 358 360 359
f 358 411 412
f 360 414 415
f 360 415 361
f 361 415 362
f 362 415 416
f 362 416 417
f 362 417 363
f 363 417 418
f 363 418 419
f 363 419 364
f 364 419 420
f 364 420 365
f 365 421 422
f 365 422 423
f 365 423 366
f 365 420 421
f 366 423 367
f 367 423 424
f 367 424 368
f 368 424 425
f 368 425 369
f 369 425 426
f 369 426 370
f 370 426 427
f 370 427 371
f 371 427 428
f 371 428 372
f 372 428 429
f 372 429 430
f 372 430 373
f 373 430 374
f 374 430 431
f 374 431 432
f 374 432 375
f 375 432 433
f 375 433 376
f 376 433 377
f 377 433 434
f 377 434 435
f 377 435 378
f 378 435 379
f 379 435 436
f 379 436 437
f 379 437 380
f 380 437 439
f 380 439 389
f 381 397 387
f 381 385 397
f 382 386 438
f 382 438 383
f 383 438 384
f 384 438 399
f 385 398 397
f 386 394 438
f 389 439 440
f 389 440 390
f 390 440 391
f 391 440 441
f 391 441 442
f 391 442 392
f 392 442 443
f 392 443 393
f 393 443 444
f 393 444 445
f 393 445 446
f 393 446 394
f 394 446 438
f 395 396 448
f 395 448 449
f 395 449 447
f 399 438 400
f 400 438 446
f 400 446 445
f 400 445 450
f 400 450 451
f 400 451 401
f 402 452 453
f 402 453 403
f 403 453 454
f 403 454 404
f 404 454 455
f 405 456 406
f 406 456 457
f 406 457 407
f 407 458 459
f 407 459 408
f 407 457 458
f 408 459 460
f 408 460 409
f 409 460 410
f 410 460 461
f 410 461 411
f 411 461 462
f 411 462 412
f 412 463 413
f 412 462 463
f 413 463 464
f 413 464 465
f 413 465 466
f 413 466 414
f 414 466 467
f 414 467 415
f 415 467 416
f 416 468 469
f 416 469 417
f 416 467 468
f 417 469 418
f 418 469 470
f 418 470 420
f 418 420 419
f 420 470 421
f 421 470 471
f 421 471 472
f 421 472 473
f 421 473 474
f 421 474 422
f 422 474 475
f 422 475 423
f 423 475 425
f 423 425 424
f 425 475 476
f 425 476 477
f 425 477 426
f 426 477 478
f 426 478 479
f 426 479 480
f 426 480 427
f 427 480 481
f 427 481 428
f 428 481 482
f 428 482 429
f 429 482 430
f 430 482 483
f 430 483 484
f 430 484 431
f 431 484 432
f 432 484 485
f 432 485 486
f 432 486 433
f 433 486 487
f 433 487 434
f 434 487 488
f 434 488 435
f 435 488 489
f 435 489 436
f 436 489 437
f 437 489 490
f 437 490 439
f 439 490 491
f 439 491 492
f 439 492 440
f 440 492 493
f 440 493 441
f 441 493 494
f 441 494 442
f 442 494 443
f 443 494 495
f 443 495 454
f 443 454 444
f 444 454 453
f 444 453 445
f 445 453 450
f 447 449 497
f 447 497 496
f 450 453 451
f 451 453 452
f 454 495 498
f 454 498 455
f 456 499 457
f 457 499 500
f 457 500 501
f 457 501 502
f 457 502 458
f 458 502 503
f 458 503 459
f 459 503 460
f 460 503 504
f 460 504 505
f 460 505 461
f 461 505 506
f 461 506 462
f 462 506 463
f 463 507 464
f 463 506 507
f 464 507 508
f 464 508 509
f 464 509 465
f 465 509 510
f 465 510 511
f 465 511 466
f 466 511 512
f 466 512 468
f 466 468 467
f 468 512 513
f 468 513 514
f 468 514 469
f 469 514 515
f 469 515 516
f 469 516 470
f 470 516 517
f 470 517 471
f 471 517 472
f 472 518 519
f 472 519 520
f 472 520 521
f 472 521 473
f 472 517 518
f 473 521 474
f 474 521 522
f 474 522 476
f 474 476 475
f 476 522 523
f 476 523 478
f 476 478 477
f 478 524 525
f 478 525 526
f 478 526 479
f 478 523 524
f 479 526 480
f 480 526 527
f 480 527 481
f 481 527 528
f 481 528 529
f 481 529 530
f 481 530 482
f 482 530 531
f 482 531 532
f 482 532 483
f 483 532 533
f 483 533 484
f 484 533 534
f 484 534 535
f 484 535 485
f 485 535 486
f 486 535 536
f 486 536 537
f 486 537 487
f 487 537 538
f 487 538 488
f 488 538 539
f 488 539 540
f 488 540 489
f 489 540 541
f 489 541 490
f 490 541 491
f 491 541 542
f 491 542 543
f 491 543 492
f 492 543 544
f 492 544 545
f 492 545 493
f 493 545 546
f 493 546 547
f 493 547 494
f 494 547 498
f 494 498 495
f 496 497 549
f 496 549 548
f 500 550 551
f 500 551 501
f 501 551 552
f 501 552 502
f 502 552 503
f 503 552 553
f 503 553 504
f 504 554 555
f 504 555 505
f 504 553 554
f 505 555 556
f 505 556 557
f 505 557 506
f 506 557 507
f 507 557 556
f 507 556 558
f 507 558 508
f 508 558 559
f 508 559 560
f 508 560 509
f 509 560 510
f 510 560 561
f 510 561 562
f 510 562 563
f 510 563 564
f 510 564 511
f 511 564 513
f 511 513 512
f 513 564 565
f 513 565 514
f 514 565 515
f 515 565 566
f 515 566 517
f 515 517 516
f 517 566 567
f 517 567 518
f 518 567 519
f 519 567 568
f 519 568 569
f 519 569 570
f 519 570 520
f 520 570 571
f 520 571 572
f 520 572 521
f 521 572 573
f 521 573 522
f 522 573 523
f 523 573 574
f 523 574 575
f 523 575 524
f 548 549 577
f 548 577 576
f 550 578 551
f 551 578 579
f 551 579 552
f 552 580 581
f 552 581 553
f 552 579 580
f 553 581 582
f 553 582 554
f 554 582 555
f 555 582 583
f 555 583 556
f 556 583 584
f 556 584 558
f 558 584 585
f 558 585 559
f 559 585 586
f 559 586 560
f 560 586 587
f 560 587 561
f 561 587 562
f 562 588 589
f 562 589 590
f 562 590 591
f 562 591 563
f 562 587 588
f 563 591 564
f 564 591 592
f 564 592 565
f 565 592 593
f 565 593 594
f 565 594 566
f 566 594 595
f 566 595 567
f 567 595 568
f 568 595 596
f 568 596 597
f 568 597 569
f 570 598 571
f 571 598 572
f 572 598 599
f 572 599 573
f 573 599 574
f 576 577 601
f 576 601 600
f 578 602 603
f 578 603 579
f 579 603 580
f 580 604 581
f 580 603 604
f 581 605 582
f 581 604 606
f 581 606 605
f 582 605 583
f 583 607 608
f 583 608 584
f 583 605 607
f 584 608 609
f 584 609 610
f 584 610 585
f 585 610 586
f 586 610 611
f 586 611 587
f 587 612 613
f 587 613 588
f 587 611 612
f 588 613 589
f 589 613 614
f 589 614 615
f 589 615 616
f 589 616 617
f 589 617 590
f 590 617 591
f 591 617 618
f 591 618 593
f 591 593 592
f 593 619 620
f 593 620 595
f 593 595 594
f 593 618 619
f 595 620 621
f 595 621 596
f 596 621 622
f 596 622 597
f 600 601 624
f 600 624 623
f 602 625 603
f 603 625 626
f 603 626 627
f 603 627 628
f 603 628 604
f 604 628 606
f 605 606 629
f 605 629 607
f 606 628 630
f 606 630 629
f 607 631 632
f 607 632 608
f 607 629 631
f 608 632 609
f 609 632 633
f 609 633 610
f 610 634 635
f 610 635 611
f 610 633 634
f 611 635 636
f 611 636 612
f 612 636 613
f 613 636 637
f 613 637 614
f 614 638 639
f 614 639 615
f 614 637 638
f 615 639 640
f 615 640 641
f 615 641 642
f 615 642 616
f 616 642 617
f 617 642 643
f 617 643 619
f 617 619 618
f 619 644 645
f 619 645 620
f 619 643 644
f 620 645 621
f 621 645 622
f 622 645 646
f 623 624 648
f 623 648 647
f 626 649 627
f 627 650 651
f 627 651 628
f 627 649 650
f 628 652 630
f 628 651 652
f 629 630 652
f 629 652 653
f 629 653 654
f 629 654 631
f 631 654 632
f 632 654 655
f 632 655 656
f 632 656 633
f 633 656 634
f 634 657 635
f 634 656 658
f 634 658 657
f 635 657 636
f 636 657 659
f 636 659 637
f 637 660 661
f 637 661 638
f 637 659 660
f 638 661 639
f 639 661 662
f 639 662 640
f 640 663 664
f 640 664 665
f 640 665 666
f 640 666 641
f 640 662 667
f 640 667 663
f 641 666 642
f 642 666 668
f 642 668 644
f 642 644 643
f 644 668 669
f 644 669 670
f 644 670 671
f 644 671 645
f 645 671 646
f 647 648 673
f 647 673 672
f 649 674 650
f 650 675 651
f 650 674 676
f 650 676 675
f 651 675 677
f 651 677 678
f 651 678 652
f 652 679 680
f 652 680 653
f 652 678 679
f 653 680 681
f 653 681 682
f 653 682 654
f 654 682 655
f 655 682 683
f 655 683 684
f 655 684 685
f 655 685 656
f 656 685 658
f 657 658 686
f 657 686 687
f 657 687 659
f 658 685 684
f 658 684 688
f 658 688 686
f 659 687 689
f 659 689 690
f 659 690 660
f 660 690 661
f 661 691 692
f 661 692 662
f 661 690 691
f 662 692 693
f 662 693 667
f 663 667 694
f 663 694 695
f 665 696 666
f 666 697 669
f 666 669 668
f 666 696 697
f 667 693 694
f 672 673 699
f 672 699 698
f 675 676 700
f 675 700 698
f 675 698 701
f 675 701 695
f 675 695 694
f 675 694 693
f 675 693 692
f 675 692 691
f 675 691 690
f 675 690 689
f 675 689 687
f 675 687 686
f 675 686 688
f 675 688 684
f 675 684 683
f 675 683 682
f 675 682 681
f 675 681 680
f 675 680 679
f 675 679 678
f 675 678 677
f 698 699 701

