# https://github.com/mikedh/trimesh
v 0.24724452 0.33343387 0.02847967
v 0.16587500 0.38039303 0.02850207
v 0.24724452 0.36141324 0.02847967
v 0.33201861 0.24899457 0.02847967
v 0.16587500 0.45515722 0.25018346
v 0.16587500 0.40534347 0.02850207
v 0.41613799 0.24899457 0.25172913
v 0.16668686 0.40503839 0.02850207
v 0.16762967 0.40464616 0.02850207
v 0.18315980 0.39780384 0.02850207
v 0.18729767 0.39595163 0.02850207
v 0.20243499 0.38832486 0.02850207
v 0.20649429 0.38627654 0.02850207
v 0.22519329 0.37566441 0.02850207
v 0.24334234 0.36418068 0.02850207
v 0.26094142 0.35180351 0.02847967
v 0.36017191 0.24899457 0.02847967
v 0.16587500 0.45568019 0.25170672
v 0.16587500 0.41129234 0.04012825
v 0.41679275 0.24899457 0.25314039
v 0.16977717 0.40978879 0.04012825
v 0.18965471 0.40098530 0.04012825
v 0.20908701 0.39117944 0.04012825
v 0.22802173 0.38043660 0.04012825
v 0.24643266 0.36877853 0.04012825
v 0.24724452 0.36821195 0.04012825
v 0.26424125 0.35627061 0.04012825
v 0.27788576 0.33859828 0.02847967
v 0.35176522 0.26093593 0.02847967
v 0.35624355 0.26424813 0.04012825
v 0.36695486 0.24899457 0.04012825
v 0.16587500 0.45629033 0.25311798
v 0.16587500 0.41632602 0.05074637
v 0.41747364 0.24899457 0.25426045
v 0.17226514 0.41582483 0.05489058
v 0.19245693 0.40686882 0.05489058
v 0.21217732 0.39693221 0.05489058
v 0.23140012 0.38603684 0.05489058
v 0.24724452 0.37599128 0.05489058
v 0.25004676 0.37418264 0.05489058
v 0.26814342 0.36147863 0.05489058
v 0.28555918 0.34792474 0.05489058
v 0.28142130 0.34286928 0.04012825
v 0.28131655 0.33565652 0.02847967
v 0.33859208 0.27788916 0.02847967
v 0.36148137 0.26812688 0.05489058
v 0.37418306 0.25006232 0.05489058
v 0.34283471 0.28141928 0.04012825
v 0.34788921 0.28555951 0.05489058
v 0.37261173 0.24899457 0.05061197
v 0.16587500 0.45692226 0.25423804
v 0.16587500 0.41828719 0.05489058
v 0.41820693 0.24899457 0.25511169
v 0.16587500 0.42053166 0.05997563
v 0.17456979 0.42140329 0.06963050
v 0.19504964 0.41231653 0.06963050
v 0.21500574 0.40227097 0.06963050
v 0.23449042 0.39122304 0.06963050
v 0.24721834 0.38316044 0.06963050
v 0.25342515 0.37921631 0.06963050
v 0.27173132 0.36633795 0.06963050
v 0.28938279 0.35258797 0.06963050
v 0.30632713 0.33798814 0.06963050
v 0.30226782 0.33349925 0.05489058
v 0.29792044 0.32868350 0.04012825
v 0.29417539 0.32456502 0.02847967
v 0.32455474 0.29418868 0.02847967
v 0.35255086 0.28939468 0.06963050
v 0.36632633 0.27172238 0.06963050
v 0.37921137 0.25341809 0.06963050
v 0.37486398 0.24899457 0.05489058
v 0.32864022 0.29789311 0.04012825
v 0.33348522 0.30229485 0.05489058
v 0.33796355 0.30634791 0.06963050
v 0.16587500 0.45755419 0.25502208
v 0.41899261 0.24899457 0.25578374
v 0.16587500 0.42475906 0.06963050
v 0.17671728 0.42654592 0.08423603
v 0.19743286 0.41735020 0.08423603
v 0.21765085 0.40715212 0.08423603
v 0.23737124 0.39599523 0.08423603
v 0.24721834 0.38697383 0.07807572
v 0.25651547 0.38385776 0.08423603
v 0.27503115 0.37080508 0.08423603
v 0.29291829 0.35690254 0.08423603
v 0.31007215 0.34210661 0.08423603
v 0.32649273 0.32650441 0.08423603
v 0.32253817 0.32256028 0.06963050
v 0.31826934 0.31828928 0.05489058
v 0.31366009 0.31366962 0.04012825
v 0.30973169 0.30974728 0.02847967
v 0.35687208 0.29292479 0.08423603
v 0.37080467 0.27505636 0.08423603
v 0.38384685 0.25651240 0.08423603
v 0.38861325 0.24899457 0.08423603
v 0.38201362 0.24899457 0.06963050
v 0.34207523 0.31007415 0.08423603
v 0.16587500 0.45761958 0.25508928
v 0.41975209 0.24899457 0.25623176
v 0.16587500 0.45829508 0.25573891
v 0.16587500 0.43072975 0.08423603
v 0.17865528 0.43127450 0.09866235
v 0.19960655 0.42196983 0.09866235
v 0.22006023 0.41166279 0.09866235
v 0.23999014 0.40037516 0.09866235
v 0.24721834 0.39579910 0.09866235
v 0.25934389 0.38808516 0.09866235
v 0.27809528 0.37490174 0.09866235
v 0.29616576 0.36082488 0.09866235
v 0.31347674 0.34587640 0.09866235
v 0.33008063 0.33012167 0.09866235
v 0.34584647 0.31351709 0.09866235
v 0.36082664 0.29614985 0.09866235
v 0.37489018 0.27808526 0.09866235
v 0.38808948 0.25934520 0.09866235
v 0.39463675 0.24899457 0.09866235
v 0.41983068 0.24899457 0.25627655
v 0.16587500 0.45912313 0.25625414
v 0.16587500 0.43619922 0.09866235
v 0.16587500 0.44118932 0.11279745
v 0.18043613 0.43554550 0.11279745
v 0.20159692 0.42617548 0.11279745
v 0.22223394 0.41575947 0.11279745
v 0.24237335 0.40434110 0.11279745
v 0.24721834 0.40129039 0.11279745
v 0.26193660 0.39196393 0.11279745
v 0.28084514 0.37864974 0.11279745
v 0.29912513 0.36442038 0.11279745
v 0.31659326 0.34934115 0.11279745
v 0.33338046 0.33339030 0.11279745
v 0.34930342 0.31663316 0.11279745
v 0.36441454 0.29911339 0.11279745
v 0.37863523 0.28085271 0.11279745
v 0.39196548 0.26193830 0.11279745
v 0.40013647 0.24899457 0.11279745
v 0.42074728 0.24899457 0.25665736
v 0.16587500 0.45992941 0.25661257
v 0.16587500 0.44567823 0.12657413
v 0.18205985 0.43944606 0.12657413
v 0.20337778 0.42996705 0.12657413
v 0.22422430 0.41946390 0.12657413
v 0.24452086 0.40795836 0.12657413
v 0.26426744 0.39545044 0.12659653
v 0.28335929 0.38200554 0.12659653
v 0.30174404 0.36766720 0.12659653
v 0.31942168 0.35243544 0.12659653
v 0.33633983 0.33637562 0.12659653
v 0.35241994 0.31946597 0.12659653
v 0.36766198 0.30177185 0.12659653
v 0.38201362 0.28335863 0.12659653
v 0.39544863 0.26426992 0.12659653
v 0.40511239 0.24899457 0.12659653
v 0.42171627 0.24899457 0.25694859
v 0.16587500 0.46088818 0.25692618
v 0.16587500 0.44665879 0.12977749
v 0.16587500 0.44973129 0.13988039
v 0.18350026 0.44293258 0.13988039
v 0.20500150 0.43338820 0.13988039
v 0.22600517 0.42279789 0.13988039
v 0.24645884 0.41118342 0.13988039
v 0.24724452 0.41070402 0.13990279
v 0.26636255 0.39858833 0.13990279
v 0.28561154 0.38505626 0.13990279
v 0.30412725 0.37056538 0.13990279
v 0.32196200 0.35522467 0.13990279
v 0.33901110 0.33903411 0.13990279
v 0.35519597 0.32197192 0.13990279
v 0.37056899 0.30416885 0.13990279
v 0.38502535 0.28560311 0.13990279
v 0.39859131 0.26636183 0.13990279
v 0.40959072 0.24899457 0.13990279
v 0.42273766 0.24899457 0.25712779
v 0.16587500 0.46184698 0.25712779
v 0.16587500 0.45332679 0.15262662
v 0.18478352 0.44604868 0.15262662
v 0.20644191 0.43641713 0.15262662
v 0.22757651 0.42576143 0.15262662
v 0.24724452 0.41462636 0.15262662
v 0.24724452 0.41244727 0.14545827
v 0.26822197 0.40137756 0.15262662
v 0.28762811 0.38775831 0.15262662
v 0.30627474 0.37318027 0.15262662
v 0.32421428 0.35773060 0.15262662
v 0.34136814 0.34140930 0.15262662
v 0.35771012 0.32425994 0.15262662
v 0.37316170 0.30630434 0.15262662
v 0.38774902 0.28760785 0.15262662
v 0.40139353 0.26823583 0.15262662
v 0.41338813 0.24899457 0.15206659
v 0.42381141 0.24899457 0.25726220
v 0.16587500 0.46282756 0.25726220
v 0.16587500 0.45653003 0.16481282
v 0.18590966 0.44879431 0.16481282
v 0.20769899 0.43911919 0.16481282
v 0.22899072 0.42839813 0.16481282
v 0.24724452 0.41806930 0.16481282
v 0.24975868 0.41663110 0.16481282
v 0.24821351 0.41405979 0.15262662
v 0.26989809 0.40386170 0.16481282
v 0.28938279 0.39015529 0.16481282
v 0.30816036 0.37549010 0.16481282
v 0.32623082 0.35995325 0.16481282
v 0.34348944 0.34350121 0.16481282
v 0.35991001 0.32624292 0.16481282
v 0.37549251 0.30817837 0.16481282
v 0.39013225 0.28939468 0.16481282
v 0.40388149 0.26989192 0.16481282
v 0.41663560 0.24975725 0.16481282
v 0.41540471 0.24899457 0.15901093
v 0.42488515 0.24899457 0.25732940
v 0.16587500 0.46345949 0.25730699
v 0.16587500 0.45936283 0.17632699
v 0.18693104 0.45123488 0.17632699
v 0.20882511 0.44151616 0.17632699
v 0.23024780 0.43072975 0.17632699
v 0.24724452 0.42109820 0.17632699
v 0.25112051 0.41889733 0.17632699
v 0.27136469 0.40606257 0.17632699
v 0.29098031 0.39226899 0.17632699
v 0.30983645 0.37751663 0.17632699
v 0.32798550 0.36187086 0.17632699
v 0.34534886 0.34537521 0.17632699
v 0.36187419 0.32802975 0.17632699
v 0.37753528 0.30985624 0.17632699
v 0.39225355 0.29096362 0.17632699
v 0.40605521 0.27135193 0.17632699
v 0.41888785 0.25110829 0.17632699
v 0.42009255 0.24899457 0.17632699
v 0.41705462 0.24899457 0.16481282
v 0.42595893 0.24899457 0.25726220
v 0.42328763 0.25374496 0.25726220
v 0.42247576 0.25324377 0.25732940
v 0.33081391 0.36496514 0.25732940
v 0.16587500 0.46382993 0.25730699
v 0.16587500 0.46182519 0.18705712
v 0.18779528 0.45337036 0.18705712
v 0.20982030 0.44358629 0.18705712
v 0.23132154 0.43275627 0.18705712
v 0.25227284 0.42088029 0.18705712
v 0.27264795 0.40795836 0.18705712
v 0.29234216 0.39409941 0.18705712
v 0.31130305 0.37930349 0.18705712
v 0.32953066 0.36357054 0.18705712
v 0.34697258 0.34698775 0.18705712
v 0.36357647 0.32957691 0.18705712
v 0.37928995 0.31133801 0.18705712
v 0.39411297 0.29233646 0.18705712
v 0.40796700 0.27263758 0.18705712
v 0.42085204 0.25228497 0.18705712
v 0.42271146 0.24899457 0.18705712
v 0.42409950 0.25422436 0.25712779
v 0.42703265 0.24899457 0.25712779
v 0.41032404 0.27420652 0.25726220
v 0.40953836 0.27368355 0.25732940
v 0.34830824 0.34833878 0.25732940
v 0.33146864 0.36568424 0.25726220
v 0.31311011 0.38148254 0.25726220
v 0.31250775 0.38076347 0.25730699
v 0.29346827 0.39562479 0.25730699
v 0.27369550 0.40954909 0.25730699
v 0.25326800 0.42249280 0.25730699
v 0.23221198 0.43441239 0.25730699
v 0.21063218 0.44530779 0.25730699
v 0.18852857 0.45511362 0.25730699
v 0.16629402 0.46467978 0.25726220
v 0.16587500 0.46481052 0.25726220
v 0.16587500 0.46396068 0.19700322
v 0.18858095 0.45520079 0.19695841
v 0.21065836 0.44539493 0.19695841
v 0.23226437 0.43449953 0.19695841
v 0.24724452 0.42602292 0.19695841
v 0.24724452 0.42539099 0.19422548
v 0.25332040 0.42257997 0.19695841
v 0.27374789 0.40963626 0.19695841
v 0.29352066 0.39571193 0.19695841
v 0.31256014 0.38082883 0.19695841
v 0.33089250 0.36505231 0.19695841
v 0.34838682 0.34840414 0.19695841
v 0.36506927 0.33090615 0.19695841
v 0.38083512 0.31258008 0.19695841
v 0.39571050 0.29353493 0.19695841
v 0.40964311 0.27374890 0.19695841
v 0.42258054 0.25330913 0.19695841
v 0.42457089 0.24899457 0.19500951
v 0.42805403 0.24899457 0.25694859
v 0.42485899 0.25468197 0.25694859
v 0.41184300 0.27520889 0.25694859
v 0.41108352 0.27472949 0.25712779
v 0.39639142 0.29401433 0.25726220
v 0.39563194 0.29344779 0.25732940
v 0.36496451 0.33084077 0.25732940
v 0.36567160 0.33147269 0.25726220
v 0.34896296 0.34901428 0.25726220
v 0.33207101 0.36635974 0.25712779
v 0.31368625 0.38220164 0.25712779
v 0.34961769 0.34966800 0.25712779
v 0.29456821 0.39712834 0.25712779
v 0.29401824 0.39638746 0.25726220
v 0.27419311 0.41033357 0.25726220
v 0.25373942 0.42327729 0.25726220
v 0.24724452 0.42698172 0.25726220
v 0.23265719 0.43524045 0.25726220
v 0.21102500 0.44615760 0.25726220
v 0.18889523 0.45596346 0.25726220
v 0.16660829 0.46555141 0.25712779
v 0.16587500 0.46579111 0.25712779
v 0.18926185 0.45683509 0.25712779
v 0.16587500 0.46574754 0.20591885
v 0.16658211 0.46548605 0.20591885
v 0.18923567 0.45676973 0.20591885
v 0.21139166 0.44694209 0.20591885
v 0.23307621 0.43602490 0.20591885
v 0.25418463 0.42403996 0.20594126
v 0.27469069 0.41105264 0.20594126
v 0.24724452 0.42798409 0.20594126
v 0.29454204 0.39708477 0.20594126
v 0.31366009 0.38215807 0.20594126
v 0.33204481 0.36631617 0.20594126
v 0.34959152 0.34962443 0.20594126
v 0.36632633 0.33206105 0.20594126
v 0.38214457 0.31366962 0.20594126
v 0.39707235 0.29453731 0.20594126
v 0.41105732 0.27468592 0.20594126
v 0.42404711 0.25420257 0.20594126
v 0.42698029 0.24899457 0.20594126
v 0.42876115 0.24899457 0.25674698
v 0.42559227 0.25511777 0.25665736
v 0.41255009 0.27568829 0.25665736
v 0.39785802 0.29510388 0.25694859
v 0.39712471 0.29455912 0.25712779
v 0.38222313 0.31371319 0.25712779
v 0.38148981 0.31312487 0.25726220
v 0.38075653 0.31253651 0.25732940
v 0.36635253 0.33208284 0.25712779
v 0.35027242 0.35029995 0.25694859
v 0.33267337 0.36701348 0.25694859
v 0.31426242 0.38287717 0.25694859
v 0.29511818 0.39784744 0.25694859
v 0.36703345 0.33269298 0.25694859
v 0.27474308 0.41111803 0.25712779
v 0.25421083 0.42408353 0.25712779
v 0.24724452 0.42770082 0.25719500
v 0.23310241 0.43604669 0.25712779
v 0.21141784 0.44698566 0.25712779
v 0.16689637 0.46637946 0.25692618
v 0.16587500 0.46674991 0.25692618
v 0.21181068 0.44779193 0.25692618
v 0.18960232 0.45764136 0.25692618
v 0.16587500 0.46727288 0.21389365
v 0.16707970 0.46685886 0.21389365
v 0.18978564 0.45809895 0.21389365
v 0.21202019 0.44824952 0.21389365
v 0.23375714 0.43728876 0.21389365
v 0.24724452 0.42966199 0.21391605
v 0.25494412 0.42528203 0.21391605
v 0.27550256 0.41225114 0.21391605
v 0.29540628 0.39823967 0.21391605
v 0.31455049 0.38329118 0.21391605
v 0.33301380 0.36738393 0.21391605
v 0.35061288 0.35064858 0.21391605
v 0.36740011 0.33304164 0.21391605
v 0.38329688 0.31458485 0.21391605
v 0.39825085 0.29538715 0.21391605
v 0.41226202 0.27549216 0.21391605
v 0.42527801 0.25494346 0.21391605
v 0.42865640 0.24899457 0.21391605
v 0.42904922 0.24899457 0.25665736
v 0.42624700 0.25551003 0.25627655
v 0.41320482 0.27612409 0.25627655
v 0.42993966 0.24899457 0.25627655
v 0.39916748 0.29608446 0.25627655
v 0.39851275 0.29560506 0.25665736
v 0.38353258 0.31480274 0.25665736
v 0.38287786 0.31427976 0.25694859
v 0.36766198 0.33328134 0.25665736
v 0.35087478 0.35088828 0.25665736
v 0.33324951 0.36766720 0.25665736
v 0.31478620 0.38355267 0.25665736
v 0.29561579 0.39852294 0.25665736
v 0.27521446 0.41185892 0.25694859
v 0.25468221 0.42486802 0.25694859
v 0.24724452 0.42907363 0.25694859
v 0.23352143 0.43685293 0.25692618
v 0.16718446 0.46720752 0.25663495
v 0.16587500 0.46764332 0.25663495
v 0.21217732 0.44855461 0.25663495
v 0.18991658 0.45842582 0.25663495
v 0.16587500 0.46853673 0.22092760
v 0.16747254 0.46799198 0.22092760
v 0.19025704 0.45923209 0.22092760
v 0.21254396 0.44933906 0.22092760
v 0.23430711 0.43835652 0.22092760
v 0.24724452 0.43103480 0.22095001
v 0.25557265 0.42630619 0.22095001
v 0.27618349 0.41325352 0.22095001
v 0.29611337 0.39922026 0.22095001
v 0.31533617 0.38420641 0.22095001
v 0.33379948 0.36827734 0.22095001
v 0.35147712 0.35149843 0.22095001
v 0.36829054 0.33382609 0.22095001
v 0.38421351 0.31534752 0.22095001
v 0.39921984 0.29612803 0.22095001
v 0.41325721 0.27614588 0.22095001
v 0.42632556 0.25555360 0.22095001
v 0.43001825 0.24899457 0.22095001
v 0.42687553 0.25588048 0.25578374
v 0.41378099 0.27651632 0.25578374
v 0.39974362 0.29649848 0.25578374
v 0.43077773 0.24899457 0.25578374
v 0.38471109 0.31578332 0.25578374
v 0.38416111 0.31532574 0.25627655
v 0.36823815 0.33380431 0.25627655
v 0.35142475 0.35143307 0.25627655
v 0.33377329 0.36823377 0.25627655
v 0.31528381 0.38416281 0.25627655
v 0.29606101 0.39917669 0.25627655
v 0.27613109 0.41320994 0.25627655
v 0.27568588 0.41253442 0.25665736
v 0.25512743 0.42558712 0.25665736
v 0.24724452 0.43005422 0.25665736
v 0.23391427 0.43759382 0.25663495
v 0.16744635 0.46792662 0.25625414
v 0.19020468 0.45916671 0.25625414
v 0.16587500 0.46844959 0.25625414
v 0.23428091 0.43829113 0.25625414
v 0.21249160 0.44927371 0.25625414
v 0.16587500 0.46956092 0.22711030
v 0.16781299 0.46892899 0.22711030
v 0.19062370 0.46012551 0.22711030
v 0.21293680 0.45021069 0.22711030
v 0.23477851 0.43920636 0.22711030
v 0.24724452 0.43214613 0.22713271
v 0.25604406 0.42715603 0.22713271
v 0.27670726 0.41405979 0.22713271
v 0.29668954 0.40000471 0.22713271
v 0.31593853 0.38494730 0.22713271
v 0.33445421 0.36899644 0.22713271
v 0.35215804 0.35217395 0.22713271
v 0.36899763 0.33447984 0.22713271
v 0.38497299 0.31597945 0.22713271
v 0.40000552 0.29669461 0.22713271
v 0.41406906 0.27669066 0.22713271
v 0.42716360 0.25605479 0.22713271
v 0.43038487 0.24899457 0.22289890
v 0.42742550 0.25620732 0.25508928
v 0.41433096 0.27688676 0.25508928
v 0.40024123 0.29689074 0.25508928
v 0.43151098 0.24899457 0.25508928
v 0.38520867 0.31617558 0.25508928
v 0.36923334 0.33469772 0.25508928
v 0.36876193 0.33426192 0.25578374
v 0.35192233 0.35195604 0.25578374
v 0.33424470 0.36875674 0.25578374
v 0.31575519 0.38472939 0.25578374
v 0.29650623 0.39972144 0.25578374
v 0.27652392 0.41379830 0.25578374
v 0.25588691 0.42687276 0.25578374
v 0.25552028 0.42626262 0.25627655
v 0.24724452 0.43040287 0.25652295
v 0.16770823 0.46860212 0.25576133
v 0.21280587 0.44992742 0.25576133
v 0.19049275 0.45982045 0.25576133
v 0.16587500 0.46921226 0.25576133
v 0.23462138 0.43892306 0.25576133
v 0.24724452 0.43096942 0.25627655
v 0.16587500 0.47028002 0.23197135
v 0.16804869 0.46962631 0.23246416
v 0.19091177 0.46082282 0.23246416
v 0.21327727 0.45090801 0.23246416
v 0.23511897 0.43988186 0.23246416
v 0.25646308 0.42780977 0.23248658
v 0.27712628 0.41469172 0.23248658
v 0.29713476 0.40059307 0.23248658
v 0.31640992 0.38555744 0.23248658
v 0.33497798 0.36956298 0.23248658
v 0.35268182 0.35271871 0.23248658
v 0.36957380 0.33500281 0.23248658
v 0.38554913 0.31643707 0.23248658
v 0.40060788 0.29713041 0.23248658
v 0.41469759 0.27712649 0.23248658
v 0.42779213 0.25644702 0.23248658
v 0.43200859 0.24899457 0.23248658
v 0.43114436 0.24899457 0.22713271
v 0.42787072 0.25649059 0.25417084
v 0.41477618 0.27719185 0.25417084
v 0.40068644 0.29721758 0.25417084
v 0.43211335 0.24899457 0.25417084
v 0.38562772 0.31652421 0.25417084
v 0.36962616 0.33506817 0.25417084
v 0.35276037 0.35278410 0.25417084
v 0.35236755 0.35239187 0.25508928
v 0.33468992 0.36923614 0.25508928
v 0.31614804 0.38520879 0.25508928
v 0.29689905 0.40024441 0.25508928
v 0.27689058 0.41432127 0.25508928
v 0.25622737 0.42741755 0.25508928
v 0.24724452 0.43177569 0.25578374
v 0.16791774 0.46921226 0.25508928
v 0.23493564 0.43948963 0.25508928
v 0.21309394 0.45049399 0.25508928
v 0.19072846 0.46040881 0.25508928
v 0.16587500 0.46988779 0.25508928
v 0.16587500 0.47034538 0.23246416
v 0.16587500 0.47099912 0.23750442
v 0.16825821 0.47014928 0.23707880
v 0.19112128 0.46134579 0.23707880
v 0.21351296 0.45140919 0.23707880
v 0.23540705 0.44038305 0.23710120
v 0.24724452 0.43367147 0.23712361
v 0.25672498 0.42826736 0.23710120
v 0.27744055 0.41514933 0.23712361
v 0.29747522 0.40105069 0.23710120
v 0.31677657 0.38597146 0.23710120
v 0.33534464 0.36997703 0.23710120
v 0.35310084 0.35311094 0.23710120
v 0.36999282 0.33537325 0.23710120
v 0.38599434 0.31680751 0.23712361
v 0.40105307 0.29747906 0.23710120
v 0.41516900 0.27743155 0.23712361
v 0.42828974 0.25673032 0.23710120
v 0.43266332 0.24899457 0.23710120
v 0.43245381 0.24899457 0.25340921
v 0.42826355 0.25670850 0.25296119
v 0.41516900 0.27743155 0.25296119
v 0.40102690 0.29745728 0.25296119
v 0.38596815 0.31678569 0.25296119
v 0.36996663 0.33535147 0.25296119
v 0.35307467 0.35311094 0.25296119
v 0.33505657 0.36962837 0.25417084
v 0.31648850 0.38562280 0.25417084
v 0.29721332 0.40068024 0.25417084
v 0.27720484 0.41477889 0.25417084
v 0.25648928 0.42789692 0.25417084
v 0.24724452 0.43314850 0.25417084
v 0.16810107 0.46971345 0.25417084
v 0.16587500 0.47045434 0.25417084
v 0.19093797 0.46093178 0.25417084
v 0.23517135 0.43996903 0.25417084
v 0.21330345 0.45099518 0.25417084
v 0.16587500 0.47134775 0.24104379
v 0.16838916 0.47049791 0.24104379
v 0.19125223 0.46167266 0.24104379
v 0.21367010 0.45173606 0.24104379
v 0.23556419 0.44068813 0.24104379
v 0.24724452 0.43391120 0.23929651
v 0.25693449 0.42859423 0.24106619
v 0.27765006 0.41545439 0.24106619
v 0.29768473 0.40133396 0.24106619
v 0.31701228 0.38625473 0.24106619
v 0.33558035 0.37026030 0.24106619
v 0.35333654 0.35337245 0.24106619
v 0.37025470 0.33563474 0.24106619
v 0.38628244 0.31704721 0.24106619
v 0.40134117 0.29769698 0.24106619
v 0.41545707 0.27764946 0.24106619
v 0.42857784 0.25692642 0.24106619
v 0.43308234 0.24899457 0.24106619
v 0.43263716 0.24899457 0.25296119
v 0.42855161 0.25690463 0.25143790
v 0.43289903 0.24899457 0.25199795
v 0.41543090 0.27760589 0.25143790
v 0.40131497 0.29765341 0.25143790
v 0.38623005 0.31700361 0.25143790
v 0.37022853 0.33559117 0.25143790
v 0.35333654 0.35335064 0.25143790
v 0.33534464 0.36997703 0.25296119
v 0.31677657 0.38597146 0.25296119
v 0.29747522 0.40102890 0.25296119
v 0.27744055 0.41514933 0.25296119
v 0.25672498 0.42826736 0.25296119
v 0.24724452 0.43364972 0.25296119
v 0.23540705 0.44036126 0.25293878
v 0.16823202 0.47012746 0.25293878
v 0.16587500 0.47093374 0.25293878
v 0.21351296 0.45140919 0.25293878
v 0.19112128 0.46132401 0.25293878
v 0.16587500 0.47156566 0.24438156
v 0.16844153 0.47069404 0.24438156
v 0.19133079 0.46186876 0.24438156
v 0.21374866 0.45193216 0.24438156
v 0.23566894 0.44088423 0.24438156
v 0.24724452 0.43408552 0.24106619
v 0.24724452 0.43432522 0.24440396
v 0.25703925 0.42876858 0.24440396
v 0.27775481 0.41565052 0.24440396
v 0.29781568 0.40150830 0.24440396
v 0.31714323 0.38642907 0.24440396
v 0.33573747 0.37041283 0.24440396
v 0.35349369 0.35352498 0.24440396
v 0.37041184 0.33576548 0.24440396
v 0.38641340 0.31717795 0.24440396
v 0.40149832 0.29782772 0.24440396
v 0.41564041 0.27775842 0.24440396
v 0.42876115 0.25703537 0.24440396
v 0.43331805 0.24899457 0.24440396
v 0.43302995 0.24899457 0.25143790
v 0.43318713 0.24899457 0.25022826
v 0.42873496 0.25701359 0.24953382
v 0.41561422 0.27773660 0.24953382
v 0.40149832 0.29780594 0.24953382
v 0.38641340 0.31715617 0.24953382
v 0.37038565 0.33574370 0.24953382
v 0.35346749 0.35348138 0.24953382
v 0.33571130 0.37039104 0.24953382
v 0.33558035 0.37021673 0.25143790
v 0.31698608 0.38623294 0.25143790
v 0.29768473 0.40131217 0.25143790
v 0.27762386 0.41543260 0.25143790
v 0.25688210 0.42855066 0.25143790
v 0.24724452 0.43386760 0.25213236
v 0.23556419 0.44066632 0.25143790
v 0.16836296 0.47045434 0.25143790
v 0.16587500 0.47128239 0.25143790
v 0.21364391 0.45169246 0.25143790
v 0.19125223 0.46165085 0.25143790
v 0.16587500 0.47158748 0.24720410
v 0.16846772 0.47073764 0.24720410
v 0.19135699 0.46193415 0.24720410
v 0.21377486 0.45197576 0.24720410
v 0.23569512 0.44092783 0.24720410
v 0.24724452 0.43439060 0.24722651
v 0.25706545 0.42881215 0.24722651
v 0.27778101 0.41567230 0.24722651
v 0.29786804 0.40155187 0.24722651
v 0.31719559 0.38645086 0.24722651
v 0.33576366 0.37045643 0.24722651
v 0.35351989 0.35356855 0.24722651
v 0.37043804 0.33578727 0.24722651
v 0.38646576 0.31719974 0.24722651
v 0.40155068 0.29784951 0.24722651
v 0.41569281 0.27778021 0.24722651
v 0.42881352 0.25703537 0.24722651
v 0.43339664 0.24899457 0.24722651
v 0.43326569 0.24899457 0.24953382
v 0.31714323 0.38640729 0.24953382
v 0.29781568 0.40148652 0.24953382
v 0.27772862 0.41560692 0.24953382
v 0.25701305 0.42874676 0.24953382
v 0.24724452 0.43428165 0.24953382
v 0.23564276 0.44084066 0.24951142
v 0.21374866 0.45188859 0.24951142
v 0.16844153 0.47067225 0.24951142
v 0.16587500 0.47152209 0.24951142
v 0.19133079 0.46184698 0.24951142
f 1 2 6
f 1 6 3
f 1 3 16
f 1 16 28
f 1 28 44
f 1 44 66
f 1 66 91
f 1 91 67
f 1 67 45
f 1 45 29
f 1 29 17
f 1 17 4
f 1 4 2
f 2 5 18
f 2 18 32
f 2 32 51
f 2 51 75
f 2 75 98
f 2 98 100
f 2 100 118
f 2 118 137
f 2 137 154
f 2 154 173
f 2 173 191
f 2 191 211
f 2 211 234
f 2 234 266
f 2 266 306
f 2 306 346
f 2 346 385
f 2 385 424
f 2 424 463
f 2 463 502
f 2 502 536
f 2 536 574
f 2 574 613
f 2 613 643
f 2 643 616
f 2 616 577
f 2 577 540
f 2 540 504
f 2 504 503
f 2 503 466
f 2 466 427
f 2 427 388
f 2 388 349
f 2 349 308
f 2 308 267
f 2 267 235
f 2 235 212
f 2 212 192
f 2 192 174
f 2 174 156
f 2 156 155
f 2 155 138
f 2 138 120
f 2 120 119
f 2 119 101
f 2 101 77
f 2 77 54
f 2 54 52
f 2 52 33
f 2 33 19
f 2 19 6
f 2 4 7
f 2 7 5
f 3 6 8
f 3 8 9
f 3 9 10
f 3 10 11
f 3 11 12
f 3 12 13
f 3 13 14
f 3 14 15
f 3 15 16
f 4 17 31
f 4 31 50
f 4 50 71
f 4 71 96
f 4 96 95
f 4 95 116
f 4 116 135
f 4 135 152
f 4 152 171
f 4 171 189
f 4 189 209
f 4 209 229
f 4 229 228
f 4 228 250
f 4 250 284
f 4 284 325
f 4 325 366
f 4 366 405
f 4 405 444
f 4 444 483
f 4 483 482
f 4 482 521
f 4 521 557
f 4 557 595
f 4 595 633
f 4 633 634
f 4 634 597
f 4 597 596
f 4 596 560
f 4 560 558
f 4 558 522
f 4 522 487
f 4 487 448
f 4 448 409
f 4 409 370
f 4 370 367
f 4 367 326
f 4 326 285
f 4 285 252
f 4 252 230
f 4 230 210
f 4 210 190
f 4 190 172
f 4 172 153
f 4 153 136
f 4 136 117
f 4 117 99
f 4 99 76
f 4 76 53
f 4 53 34
f 4 34 20
f 4 20 7
f 5 7 18
f 6 19 8
f 7 20 18
f 8 21 9
f 8 19 21
f 9 21 10
f 10 21 22
f 10 22 11
f 11 22 12
f 12 22 13
f 13 22 23
f 13 23 24
f 13 24 14
f 14 24 15
f 15 25 26
f 15 26 16
f 15 24 25
f 16 26 27
f 16 27 28
f 17 29 30
f 17 30 31
f 18 20 32
f 19 33 21
f 20 34 32
f 21 35 22
f 21 33 35
f 22 36 37
f 22 37 23
f 22 35 36
f 23 37 38
f 23 38 24
f 24 38 25
f 25 39 40
f 25 40 26
f 25 38 39
f 26 40 41
f 26 41 27
f 27 41 42
f 27 42 43
f 27 43 28
f 28 43 44
f 29 45 30
f 30 46 47
f 30 47 31
f 30 45 48
f 30 48 49
f 30 49 46
f 31 47 50
f 32 34 51
f 33 52 35
f 34 53 51
f 35 52 54
f 35 54 55
f 35 55 36
f 36 56 57
f 36 57 37
f 36 55 56
f 37 57 38
f 38 57 58
f 38 58 59
f 38 59 39
f 39 59 60
f 39 60 40
f 40 60 41
f 41 60 61
f 41 61 42
f 42 62 63
f 42 63 64
f 42 64 65
f 42 65 43
f 42 61 62
f 43 65 44
f 44 65 66
f 45 67 48
f 46 49 68
f 46 68 69
f 46 69 70
f 46 70 47
f 47 70 71
f 47 71 50
f 48 67 72
f 48 72 73
f 48 73 49
f 49 73 74
f 49 74 68
f 51 53 75
f 53 76 75
f 54 77 55
f 55 77 78
f 55 78 56
f 56 79 57
f 56 78 79
f 57 80 81
f 57 81 58
f 57 79 80
f 58 81 59
f 59 81 82
f 59 82 83
f 59 83 60
f 60 83 61
f 61 83 84
f 61 84 85
f 61 85 62
f 62 85 63
f 63 85 86
f 63 86 87
f 63 87 88
f 63 88 89
f 63 89 64
f 64 89 65
f 65 89 90
f 65 90 91
f 65 91 66
f 67 91 90
f 67 90 72
f 68 92 93
f 68 93 69
f 68 74 92
f 69 93 70
f 70 94 95
f 70 95 96
f 70 96 71
f 70 93 94
f 72 90 73
f 73 90 89
f 73 89 74
f 74 89 88
f 74 88 87
f 74 87 97
f 74 97 92
f 75 76 98
f 76 99 100
f 76 100 98
f 77 101 78
f 78 101 102
f 78 102 79
f 79 103 104
f 79 104 80
f 79 102 103
f 80 104 81
f 81 105 106
f 81 106 83
f 81 83 82
f 81 104 105
f 83 107 108
f 83 108 84
f 83 106 107
f 84 108 85
f 85 108 109
f 85 109 86
f 86 109 110
f 86 110 111
f 86 111 87
f 87 111 112
f 87 112 97
f 92 97 112
f 92 112 113
f 92 113 93
f 93 114 115
f 93 115 94
f 93 113 114
f 94 115 95
f 95 115 116
f 99 117 100
f 100 117 118
f 101 119 102
f 102 119 120
f 102 120 121
f 102 121 122
f 102 122 103
f 103 122 104
f 104 122 123
f 104 123 105
f 105 124 125
f 105 125 106
f 105 123 124
f 106 125 126
f 106 126 107
f 107 126 108
f 108 127 128
f 108 128 109
f 108 126 127
f 109 128 129
f 109 129 110
f 110 129 111
f 111 130 131
f 111 131 112
f 111 129 130
f 112 131 113
f 113 131 132
f 113 132 133
f 113 133 114
f 114 133 134
f 114 134 115
f 115 134 116
f 116 134 135
f 117 136 118
f 118 136 137
f 120 138 139
f 120 139 121
f 121 139 122
f 122 140 141
f 122 141 123
f 122 139 140
f 123 141 142
f 123 142 124
f 124 142 125
f 125 142 126
f 126 142 143
f 126 143 127
f 127 144 128
f 127 143 144
f 128 145 146
f 128 146 129
f 128 144 145
f 129 146 147
f 129 147 130
f 130 147 148
f 130 148 131
f 131 148 132
f 132 148 149
f 132 149 150
f 132 150 133
f 133 150 134
f 134 151 152
f 134 152 135
f 134 150 151
f 136 153 137
f 137 153 154
f 138 155 139
f 139 155 156
f 139 156 157
f 139 157 158
f 139 158 140
f 140 158 141
f 141 158 159
f 141 159 142
f 142 160 161
f 142 161 162
f 142 162 143
f 142 159 160
f 143 162 163
f 143 163 144
f 144 163 145
f 145 163 164
f 145 164 165
f 145 165 146
f 146 165 147
f 147 165 166
f 147 166 148
f 148 167 168
f 148 168 149
f 148 166 167
f 149 168 150
f 150 168 169
f 150 169 170
f 150 170 151
f 151 170 171
f 151 171 152
f 153 172 154
f 154 172 173
f 156 174 175
f 156 175 157
f 157 175 158
f 158 176 177
f 158 177 159
f 158 175 176
f 159 177 178
f 159 178 179
f 159 179 160
f 160 179 161
f 161 179 162
f 162 179 180
f 162 180 181
f 162 181 163
f 163 181 182
f 163 182 164
f 164 182 165
f 165 182 183
f 165 183 166
f 166 183 184
f 166 184 185
f 166 185 167
f 167 185 168
f 168 186 187
f 168 187 169
f 168 185 186
f 169 187 170
f 170 187 188
f 170 188 171
f 171 188 189
f 172 190 173
f 173 190 191
f 174 192 175
f 175 192 193
f 175 193 194
f 175 194 176
f 176 194 195
f 176 195 177
f 177 195 196
f 177 196 178
f 178 196 197
f 178 197 198
f 178 198 179
f 179 198 180
f 180 198 197
f 180 197 199
f 180 199 181
f 181 200 201
f 181 201 182
f 181 199 200
f 182 201 202
f 182 202 183
f 183 202 184
f 184 202 203
f 184 203 185
f 185 203 204
f 185 204 205
f 185 205 186
f 186 205 187
f 187 206 207
f 187 207 188
f 187 205 206
f 188 207 208
f 188 208 189
f 189 208 209
f 190 210 191
f 191 210 211
f 192 212 213
f 192 213 193
f 193 213 214
f 193 214 194
f 194 214 215
f 194 215 195
f 195 215 196
f 196 216 217
f 196 217 197
f 196 215 216
f 197 217 218
f 197 218 199
f 199 218 219
f 199 219 200
f 200 219 201
f 201 219 220
f 201 220 202
f 202 221 222
f 202 222 203
f 202 220 221
f 203 222 223
f 203 223 204
f 204 223 205
f 205 224 206
f 205 223 224
f 206 225 207
f 206 224 225
f 207 225 226
f 207 226 227
f 207 227 208
f 208 227 228
f 208 228 229
f 208 229 209
f 210 230 231
f 210 231 232
f 210 232 254
f 210 254 290
f 210 290 333
f 210 333 291
f 210 291 255
f 210 255 233
f 210 233 211
f 211 233 234
f 212 235 236
f 212 236 213
f 213 236 214
f 214 236 237
f 214 237 215
f 215 237 238
f 215 238 216
f 216 239 217
f 216 238 239
f 217 239 218
f 218 239 240
f 218 240 219
f 219 241 242
f 219 242 220
f 219 240 241
f 220 242 221
f 221 242 243
f 221 243 222
f 222 243 244
f 222 244 245
f 222 245 223
f 223 245 224
f 224 246 247
f 224 247 225
f 224 245 246
f 225 247 226
f 226 247 248
f 226 248 227
f 227 249 228
f 227 248 249
f 228 249 250
f 230 251 231
f 230 252 251
f 231 253 254
f 231 254 232
f 231 251 253
f 233 255 256
f 233 256 257
f 233 257 258
f 233 258 259
f 233 259 260
f 233 260 261
f 233 261 262
f 233 262 263
f 233 263 264
f 233 264 234
f 234 265 266
f 234 264 265
f 235 267 268
f 235 268 236
f 236 268 269
f 236 269 237
f 237 269 238
f 238 269 270
f 238 270 271
f 238 271 272
f 238 272 239
f 239 272 273
f 239 273 274
f 239 274 240
f 240 274 241
f 241 275 242
f 241 274 275
f 242 275 276
f 242 276 277
f 242 277 243
f 243 277 244
f 244 278 245
f 244 277 278
f 245 278 279
f 245 279 246
f 246 280 281
f 246 281 247
f 246 279 280
f 247 281 282
f 247 282 248
f 248 282 249
f 249 283 284
f 249 284 250
f 249 282 283
f 251 252 285
f 251 285 286
f 251 286 287
f 251 287 288
f 251 288 253
f 253 288 289
f 253 289 254
f 254 289 290
f 255 291 292
f 255 292 293
f 255 293 256
f 256 294 295
f 256 295 257
f 256 293 296
f 256 296 294
f 257 295 297
f 257 297 298
f 257 298 258
f 258 298 259
f 259 298 260
f 260 299 261
f 260 298 299
f 261 299 300
f 261 300 301
f 261 301 302
f 261 302 262
f 262 302 263
f 263 303 264
f 263 302 303
f 264 303 304
f 264 304 265
f 265 305 306
f 265 306 266
f 265 304 307
f 265 307 305
f 267 308 309
f 267 309 310
f 267 310 268
f 268 310 311
f 268 311 269
f 269 311 312
f 269 312 270
f 270 312 271
f 271 273 272
f 271 312 273
f 273 313 314
f 273 314 274
f 273 312 315
f 273 315 313
f 274 314 316
f 274 316 275
f 275 316 317
f 275 317 276
f 276 317 277
f 277 318 319
f 277 319 278
f 277 317 318
f 278 319 279
f 279 319 320
f 279 320 280
f 280 321 281
f 280 320 321
f 281 321 322
f 281 322 323
f 281 323 282
f 282 323 324
f 282 324 283
f 283 324 325
f 283 325 284
f 285 326 286
f 286 326 327
f 286 327 328
f 286 328 287
f 287 328 329
f 287 329 288
f 288 329 330
f 288 330 289
f 289 330 331
f 289 331 332
f 289 332 333
f 289 333 290
f 291 333 292
f 292 334 296
f 292 296 293
f 292 333 332
f 292 332 331
f 292 331 334
f 294 296 335
f 294 335 336
f 294 336 295
f 295 336 337
f 295 337 338
f 295 338 297
f 296 334 339
f 296 339 335
f 297 338 340
f 297 340 298
f 298 340 299
f 299 340 300
f 300 341 342
f 300 342 301
f 300 340 341
f 301 342 302
f 302 343 303
f 302 342 343
f 303 344 307
f 303 307 304
f 303 343 344
f 305 345 346
f 305 346 306
f 305 307 345
f 307 344 347
f 307 347 348
f 307 348 345
f 308 349 350
f 308 350 309
f 309 350 310
f 310 351 352
f 310 352 311
f 310 350 351
f 311 352 312
f 312 352 353
f 312 353 354
f 312 354 315
f 313 315 354
f 313 354 355
f 313 355 314
f 314 356 316
f 314 355 356
f 316 356 357
f 316 357 317
f 317 357 358
f 317 358 359
f 317 359 318
f 318 359 360
f 318 360 319
f 319 360 361
f 319 361 320
f 320 361 362
f 320 362 321
f 321 362 322
f 322 362 363
f 322 363 323
f 323 363 364
f 323 364 324
f 324 364 365
f 324 365 366
f 324 366 325
f 326 367 327
f 327 368 369
f 327 369 328
f 327 367 370
f 327 370 368
f 328 369 371
f 328 371 372
f 328 372 329
f 329 372 373
f 329 373 374
f 329 374 331
f 329 331 330
f 331 374 339
f 331 339 334
f 335 339 375
f 335 375 376
f 335 376 377
f 335 377 336
f 336 377 337
f 337 378 338
f 337 377 378
f 338 379 380
f 338 380 340
f 338 378 379
f 339 374 375
f 340 380 381
f 340 381 341
f 341 381 342
f 342 381 382
f 342 382 343
f 343 383 344
f 343 382 383
f 344 383 347
f 345 384 346
f 345 348 384
f 346 384 385
f 347 383 386
f 347 386 348
f 348 387 384
f 348 386 387
f 349 388 389
f 349 389 350
f 350 389 390
f 350 390 351
f 351 390 352
f 352 391 353
f 352 390 391
f 353 391 392
f 353 392 354
f 354 393 394
f 354 394 355
f 354 392 393
f 355 394 395
f 355 395 356
f 356 395 357
f 357 395 396
f 357 396 358
f 358 396 397
f 358 397 359
f 359 397 398
f 359 398 399
f 359 399 360
f 360 399 361
f 361 399 400
f 361 400 401
f 361 401 362
f 362 401 402
f 362 402 363
f 363 402 364
f 364 403 404
f 364 404 365
f 364 402 403
f 365 404 366
f 366 404 405
f 368 370 406
f 368 406 369
f 369 407 408
f 369 408 371
f 369 406 407
f 370 409 406
f 371 408 410
f 371 410 411
f 371 411 372
f 372 411 373
f 373 411 375
f 373 375 374
f 375 411 412
f 375 412 376
f 376 413 377
f 376 412 413
f 377 413 414
f 377 414 415
f 377 415 378
f 378 415 416
f 378 416 379
f 379 416 417
f 379 417 418
f 379 418 380
f 380 418 419
f 380 419 381
f 381 419 420
f 381 420 382
f 382 420 383
f 383 421 386
f 383 420 421
f 384 422 424
f 384 424 385
f 384 387 423
f 384 423 422
f 386 421 425
f 386 425 426
f 386 426 423
f 386 423 387
f 388 427 428
f 388 428 389
f 389 428 390
f 390 429 391
f 390 428 429
f 391 429 430
f 391 430 431
f 391 431 392
f 392 431 393
f 393 432 433
f 393 433 394
f 393 431 432
f 394 433 395
f 395 433 434
f 395 434 435
f 395 435 396
f 396 435 397
f 397 435 436
f 397 436 437
f 397 437 398
f 398 437 399
f 399 438 439
f 399 439 400
f 399 437 438
f 400 439 440
f 400 440 401
f 401 440 402
f 402 440 441
f 402 441 442
f 402 442 403
f 403 442 404
f 404 442 443
f 404 443 444
f 404 444 405
f 406 409 445
f 406 445 446
f 406 446 407
f 407 446 408
f 408 447 449
f 408 449 410
f 408 446 447
f 409 448 445
f 410 449 450
f 410 450 451
f 410 451 412
f 410 412 411
f 412 451 452
f 412 452 413
f 413 452 414
f 414 453 454
f 414 454 415
f 414 452 453
f 415 454 416
f 416 454 455
f 416 455 456
f 416 456 417
f 417 456 457
f 417 457 458
f 417 458 419
f 417 419 418
f 419 458 459
f 419 459 420
f 420 459 421
f 421 459 425
f 422 460 463
f 422 463 424
f 422 423 460
f 423 426 461
f 423 461 462
f 423 462 460
f 425 464 461
f 425 461 426
f 425 459 465
f 425 465 464
f 427 466 428
f 428 466 467
f 428 467 468
f 428 468 429
f 429 468 469
f 429 469 430
f 430 469 431
f 431 469 470
f 431 470 471
f 431 471 432
f 432 471 433
f 433 471 434
f 434 472 435
f 434 471 472
f 435 473 474
f 435 474 436
f 435 472 473
f 436 474 475
f 436 475 437
f 437 475 438
f 438 475 476
f 438 476 477
f 438 477 439
f 439 477 440
f 440 477 478
f 440 478 479
f 440 479 441
f 441 479 480
f 441 480 442
f 442 480 443
f 443 481 482
f 443 482 483
f 443 483 444
f 443 480 481
f 445 484 485
f 445 485 446
f 445 448 484
f 446 485 486
f 446 486 447
f 447 486 449
f 448 487 484
f 449 486 488
f 449 488 450
f 450 488 489
f 450 489 490
f 450 490 491
f 450 491 452
f 450 452 451
f 452 491 492
f 452 492 453
f 453 492 454
f 454 493 494
f 454 494 455
f 454 492 493
f 455 494 456
f 456 494 495
f 456 495 496
f 456 496 457
f 457 496 497
f 457 497 465
f 457 465 458
f 458 465 459
f 460 498 463
f 460 462 498
f 461 464 499
f 461 499 500
f 461 500 462
f 462 501 498
f 462 500 501
f 463 498 502
f 464 465 497
f 464 497 499
f 466 503 467
f 467 503 504
f 467 504 505
f 467 505 506
f 467 506 468
f 468 506 469
f 469 506 507
f 469 507 508
f 469 508 470
f 470 508 471
f 471 508 509
f 471 509 510
f 471 510 511
f 471 511 472
f 472 511 512
f 472 512 473
f 473 512 474
f 474 512 513
f 474 513 514
f 474 514 475
f 475 514 515
f 475 515 476
f 476 515 477
f 477 516 517
f 477 517 478
f 477 515 516
f 478 517 479
f 479 517 518
f 479 518 480
f 480 519 520
f 480 520 481
f 480 518 519
f 481 520 482
f 482 520 521
f 484 487 522
f 484 522 523
f 484 523 524
f 484 524 485
f 485 524 486
f 486 525 526
f 486 526 488
f 486 524 525
f 488 526 527
f 488 527 489
f 489 527 528
f 489 528 490
f 490 528 529
f 490 529 492
f 490 492 491
f 492 529 493
f 493 530 531
f 493 531 494
f 493 529 530
f 494 531 532
f 494 532 495
f 495 532 496
f 496 533 534
f 496 534 499
f 496 499 497
f 496 532 533
f 498 535 536
f 498 536 502
f 498 501 537
f 498 537 535
f 499 538 539
f 499 539 500
f 499 534 538
f 500 539 537
f 500 537 501
f 504 540 541
f 504 541 505
f 505 541 506
f 506 542 543
f 506 543 507
f 506 541 542
f 507 543 508
f 508 543 544
f 508 544 545
f 508 545 509
f 509 545 546
f 509 546 510
f 510 546 511
f 511 547 512
f 511 546 547
f 512 548 549
f 512 549 513
f 512 547 548
f 513 549 550
f 513 550 514
f 514 550 515
f 515 550 551
f 515 551 552
f 515 552 516
f 516 552 553
f 516 553 517
f 517 553 518
f 518 553 554
f 518 554 555
f 518 555 519
f 519 555 520
f 520 555 556
f 520 556 557
f 520 557 521
f 522 558 523
f 523 559 524
f 523 558 560
f 523 560 559
f 524 561 562
f 524 562 525
f 524 559 561
f 525 562 526
f 526 563 564
f 526 564 527
f 526 562 563
f 527 564 565
f 527 565 528
f 528 565 566
f 528 566 529
f 529 566 567
f 529 567 530
f 530 567 531
f 531 567 568
f 531 568 569
f 531 569 532
f 532 569 570
f 532 570 533
f 533 570 534
f 534 570 571
f 534 571 572
f 534 572 538
f 535 573 574
f 535 574 536
f 535 537 573
f 537 539 575
f 537 575 576
f 537 576 573
f 538 572 575
f 538 575 539
f 540 577 541
f 541 577 578
f 541 578 579
f 541 579 542
f 542 579 580
f 542 580 543
f 543 580 581
f 543 581 544
f 544 581 582
f 544 582 545
f 545 582 546
f 546 582 581
f 546 581 583
f 546 583 584
f 546 584 585
f 546 585 547
f 547 585 548
f 548 586 587
f 548 587 549
f 548 585 586
f 549 587 588
f 549 588 550
f 550 588 589
f 550 589 551
f 551 589 552
f 552 590 553
f 552 589 590
f 553 590 591
f 553 591 592
f 553 592 554
f 554 592 593
f 554 593 555
f 555 593 594
f 555 594 556
f 556 594 557
f 557 594 595
f 559 560 596
f 559 596 597
f 559 597 598
f 559 598 599
f 559 599 561
f 561 599 600
f 561 600 562
f 562 600 601
f 562 601 563
f 563 601 564
f 564 601 602
f 564 602 565
f 565 603 604
f 565 604 605
f 565 605 566
f 565 602 603
f 566 605 567
f 567 606 607
f 567 607 568
f 567 605 606
f 568 607 569
f 569 607 608
f 569 608 570
f 570 609 610
f 570 610 571
f 570 608 609
f 571 610 572
f 572 610 611
f 572 611 575
f 573 612 574
f 573 576 615
f 573 615 612
f 574 612 613
f 575 614 615
f 575 615 576
f 575 611 614
f 577 616 617
f 577 617 578
f 578 617 618
f 578 618 579
f 579 618 580
f 580 618 619
f 580 619 620
f 580 620 581
f 581 620 621
f 581 621 583
f 583 621 584
f 584 621 622
f 584 622 585
f 585 623 624
f 585 624 586
f 585 622 623
f 586 624 587
f 587 624 625
f 587 625 588
f 588 625 626
f 588 626 627
f 588 627 589
f 589 627 590
f 590 627 628
f 590 628 629
f 590 629 591
f 591 629 630
f 591 630 592
f 592 630 631
f 592 631 593
f 593 631 594
f 594 632 633
f 594 633 595
f 594 631 632
f 597 634 598
f 598 634 633
f 598 633 632
f 598 632 631
f 598 631 599
f 599 631 600
f 600 630 629
f 600 629 601
f 600 631 630
f 601 629 628
f 601 628 602
f 602 628 627
f 602 627 603
f 603 627 604
f 604 627 626
f 604 626 635
f 604 635 605
f 605 635 606
f 606 635 607
f 607 635 636
f 607 636 608
f 608 636 637
f 608 637 638
f 608 638 609
f 609 638 611
f 609 611 610
f 611 638 639
f 611 639 640
f 611 640 641
f 611 641 614
f 612 642 613
f 612 615 642
f 613 642 643
f 614 641 615
f 615 641 644
f 615 644 642
f 616 643 617
f 617 643 642
f 617 642 618
f 618 644 641
f 618 641 619
f 618 642 644
f 619 641 620
f 620 641 640
f 620 640 639
f 620 639 621
f 621 639 638
f 621 638 622
f 622 638 637
f 622 637 623
f 623 637 636
f 623 636 624
f 624 636 635
f 624 635 625
f 625 635 626

