# https://github.com/mikedh/trimesh
v 0.47781250 0.11969769 0.25732943
v 0.48310298 0.09608972 0.25732943
v 0.48426571 0.09450173 0.25729096
v 0.47872818 0.11990942 0.25727174
v 0.47227496 0.14327037 0.25727174
v 0.47137383 0.14298806 0.25731021
v 0.46380150 0.16596085 0.25731021
v 0.45511004 0.18851015 0.25731021
v 0.44529942 0.21060072 0.25731021
v 0.43442783 0.23216197 0.25731021
v 0.42492244 0.24895926 0.25731021
v 0.47964382 -0.11151220 0.25732943
v 0.48339364 0.09450173 0.25732943
v 0.48493427 0.09644260 0.25715634
v 0.48403317 0.09626616 0.25727174
v 0.48724523 0.07223473 0.25732943
v 0.48817542 0.07237588 0.25727174
v 0.48909107 0.07251704 0.25715634
v 0.47962928 0.12012115 0.25715634
v 0.47316155 0.14351739 0.25715634
v 0.46556014 0.16659603 0.25715634
v 0.46468809 0.16627844 0.25727174
v 0.45598209 0.18882775 0.25727174
v 0.44615695 0.21098889 0.25727174
v 0.43524173 0.23262072 0.25727174
v 0.42575088 0.24895926 0.25729096
v 0.42403585 0.24895926 0.25729096
v 0.47930953 -0.11151220 0.25731021
v 0.47999263 -0.11151220 0.25731021
v 0.48310298 -0.09605587 0.25732943
v 0.48611155 0.09450173 0.25696400
v 0.48582086 0.09661904 0.25694478
v 0.49021021 0.04827388 0.25732943
v 0.49114040 0.04837974 0.25727174
v 0.49207059 0.04848561 0.25715634
v 0.48997766 0.07265819 0.25694478
v 0.48048681 0.12033288 0.25694478
v 0.47401908 0.14379969 0.25694478
v 0.46640313 0.16687834 0.25694478
v 0.45682508 0.18921593 0.25715634
v 0.44698539 0.21137707 0.25715634
v 0.43605566 0.23307946 0.25715634
v 0.42598343 0.24895926 0.25727174
v 0.42383236 0.24895926 0.25727174
v 0.47868454 -0.11151220 0.25727174
v 0.48061761 -0.11151220 0.25727174
v 0.48403317 -0.09626760 0.25727174
v 0.48724523 -0.07223617 0.25732943
v 0.48705629 0.09446645 0.25665629
v 0.48664930 0.09679548 0.25665629
v 0.48131526 0.12054461 0.25665629
v 0.49201244 0.02417187 0.25732943
v 0.49294263 0.02420716 0.25727174
v 0.49387282 0.02427773 0.25715634
v 0.49295717 0.04855618 0.25694478
v 0.49381471 0.04862676 0.25665629
v 0.49082065 0.07276405 0.25665629
v 0.47481847 0.14404672 0.25665629
v 0.46718797 0.16716065 0.25665629
v 0.45843837 0.18988641 0.25665629
v 0.45765352 0.18953353 0.25694478
v 0.44779932 0.21176524 0.25694478
v 0.43685505 0.23346764 0.25694478
v 0.42781475 0.24895926 0.25700247
v 0.42704442 0.24895926 0.25715634
v 0.42293125 0.24895926 0.25717556
v 0.47773984 -0.11151220 0.25715634
v 0.42277136 0.24895926 0.25715634
v 0.48095191 -0.11151220 0.25723326
v 0.48493427 -0.09644404 0.25715634
v 0.48909107 -0.07251847 0.25715634
v 0.48817542 -0.07241261 0.25727174
v 0.49021021 -0.04824002 0.25732943
v 0.48785567 0.09450173 0.25629085
v 0.48741964 0.09693664 0.25629085
v 0.48208556 0.12075634 0.25629085
v 0.49260837 -0.00000072 0.25732943
v 0.49353856 -0.00000072 0.25727174
v 0.49446875 -0.00000072 0.25715634
v 0.49536985 -0.00000072 0.25694478
v 0.49475941 0.02431302 0.25694478
v 0.49458501 0.04869734 0.25629085
v 0.49159095 0.07290521 0.25629085
v 0.49561694 0.02434831 0.25665629
v 0.49640179 0.02438360 0.25629085
v 0.47558877 0.14425844 0.25629085
v 0.46794376 0.16744295 0.25629085
v 0.45917961 0.19016871 0.25629085
v 0.44928181 0.21247101 0.25629085
v 0.44856963 0.21211812 0.25665629
v 0.43761081 0.23389110 0.25665629
v 0.42806181 0.24895926 0.25694478
v 0.47680965 -0.11151220 0.25694478
v 0.42173943 0.24895926 0.25694478
v 0.48156235 -0.11151220 0.25715634
v 0.48582086 -0.09662049 0.25694478
v 0.48997766 -0.07265963 0.25694478
v 0.49207059 -0.04845175 0.25715634
v 0.49114040 -0.04834589 0.25727174
v 0.49201244 -0.02413802 0.25732943
v 0.48858237 0.09446645 0.25577155
v 0.48811728 0.09707779 0.25577155
v 0.49230313 0.07301107 0.25577155
v 0.48276868 0.12093279 0.25577155
v 0.47627187 0.14447019 0.25577155
v 0.49294263 -0.02417330 0.25727174
v 0.49387282 -0.02424388 0.25715634
v 0.49621284 -0.00000072 0.25665629
v 0.49475941 -0.02427917 0.25694478
v 0.49561694 -0.02431446 0.25665629
v 0.49529719 0.04880320 0.25577155
v 0.49699768 -0.00000072 0.25629085
v 0.49772441 -0.00000072 0.25577155
v 0.49711397 0.02441889 0.25577155
v 0.46861234 0.16765469 0.25577155
v 0.45983365 0.19045103 0.25577155
v 0.44992131 0.21275331 0.25577155
v 0.43893343 0.23459686 0.25577155
v 0.43829393 0.23424397 0.25629085
v 0.42995128 0.24895926 0.25629085
v 0.42905015 0.24895926 0.25665629
v 0.47595212 -0.11151220 0.25665629
v 0.42089644 0.24895926 0.25669473
v 0.48247799 -0.11151220 0.25694478
v 0.48664930 -0.09676163 0.25665629
v 0.49082065 -0.07276550 0.25665629
v 0.48335004 -0.11151220 0.25665629
v 0.49381471 -0.04859291 0.25665629
v 0.49295717 -0.04852233 0.25694478
v 0.48922187 0.09450173 0.25507915
v 0.48874223 0.09721895 0.25507915
v 0.49593669 0.04883849 0.25507915
v 0.49292809 0.07308165 0.25507915
v 0.48339364 0.12107393 0.25507915
v 0.47686779 0.14464661 0.25507915
v 0.46920824 0.16786641 0.25507915
v 0.49640179 -0.02434975 0.25629085
v 0.49836391 -0.00000072 0.25507915
v 0.49775347 0.02445417 0.25507915
v 0.49711397 -0.02438504 0.25577155
v 0.49775347 -0.02442032 0.25507915
v 0.46041504 0.19069804 0.25507915
v 0.45050269 0.21303563 0.25507915
v 0.43948573 0.23487917 0.25507915
v 0.43150643 0.24895926 0.25507915
v 0.43077973 0.24895926 0.25577155
v 0.47513822 -0.11151220 0.25629085
v 0.42067844 0.24895926 0.25661781
v 0.41986451 0.24895926 0.25629085
v 0.48741964 -0.09693807 0.25629085
v 0.49159095 -0.07290664 0.25629085
v 0.48414943 -0.11151220 0.25629085
v 0.49458501 -0.04869878 0.25629085
v 0.48928002 0.09450173 0.25498301
v 0.48928002 0.09732481 0.25415596
v 0.49647444 0.04890907 0.25415596
v 0.49346587 0.07318752 0.25415596
v 0.48391688 0.12121509 0.25415596
v 0.47740555 0.14482306 0.25415596
v 0.46973148 0.16807815 0.25415596
v 0.49529719 -0.04876935 0.25577155
v 0.49890167 -0.00000072 0.25415596
v 0.49829125 0.02448946 0.25415596
v 0.49829125 -0.02445561 0.25415596
v 0.49593669 -0.04880464 0.25507915
v 0.49647444 -0.04887521 0.25415596
v 0.46092373 0.19090977 0.25415596
v 0.45098230 0.21328264 0.25415596
v 0.43997988 0.23516148 0.25415596
v 0.43213141 0.24895926 0.25415596
v 0.47439694 -0.11151220 0.25577155
v 0.41903606 0.24895926 0.25577155
v 0.48813182 -0.09707923 0.25577155
v 0.48459998 -0.11151220 0.25598311
v 0.49230313 -0.07301252 0.25577155
v 0.48977417 0.09450173 0.25415596
v 0.49022475 0.09450173 0.25296351
v 0.48971605 0.09739539 0.25296351
v 0.49692503 0.04894435 0.25296351
v 0.49391645 0.07322281 0.25296351
v 0.48433837 0.12132096 0.25296351
v 0.47782704 0.14492893 0.25296351
v 0.47013843 0.16821930 0.25296351
v 0.49935225 -0.00000072 0.25296351
v 0.49874181 0.02448946 0.25296351
v 0.49874181 -0.02445561 0.25296351
v 0.49692503 -0.04891051 0.25296351
v 0.49292809 -0.07308309 0.25507915
v 0.49346587 -0.07315366 0.25415596
v 0.49391645 -0.07325953 0.25296351
v 0.46133068 0.19105092 0.25296351
v 0.45140380 0.21345909 0.25296351
v 0.44035777 0.23533793 0.25296351
v 0.43265465 0.24895926 0.25296351
v 0.47369933 -0.11151220 0.25511762
v 0.41896340 0.24895926 0.25571385
v 0.41825122 0.24895926 0.25511762
v 0.48489067 -0.11151220 0.25577155
v 0.48554471 -0.11151220 0.25507915
v 0.48874223 -0.09718509 0.25507915
v 0.49052995 0.09450173 0.25163645
v 0.49005032 0.09746597 0.25144410
v 0.49725932 0.04897964 0.25144410
v 0.49425071 0.07329338 0.25144410
v 0.48467267 0.12139153 0.25144410
v 0.47814679 0.14503479 0.25144410
v 0.47047272 0.16832516 0.25144410
v 0.49968654 -0.00000072 0.25144410
v 0.49907607 0.02452475 0.25144410
v 0.49907607 -0.02449090 0.25144410
v 0.49725932 -0.04894579 0.25144410
v 0.48928002 -0.09729096 0.25415596
v 0.49425071 -0.07329482 0.25144410
v 0.48971605 -0.09736153 0.25296351
v 0.49005032 -0.09746741 0.25144410
v 0.46163589 0.19119208 0.25144410
v 0.45169449 0.21360025 0.25144410
v 0.44066301 0.23551437 0.25144410
v 0.43290171 0.24895926 0.25200185
v 0.47304529 -0.11151220 0.25425214
v 0.41750997 0.24895926 0.25425214
v 0.48587900 -0.11151220 0.25454062
v 0.49076250 0.09450173 0.24979004
v 0.49025381 0.09750126 0.24954002
v 0.48489067 0.12146211 0.24954002
v 0.49747732 0.04897964 0.24954002
v 0.49445421 0.07332867 0.24954002
v 0.47835028 0.14510536 0.24954002
v 0.47066167 0.16839574 0.24954002
v 0.46185392 0.19126266 0.24954002
v 0.49990454 -0.00000072 0.24954002
v 0.49929410 0.02452475 0.24954002
v 0.49929410 -0.02449090 0.24954002
v 0.49747732 -0.04898108 0.24954002
v 0.48609701 -0.11151220 0.25415596
v 0.48656210 -0.11151220 0.25296351
v 0.49445421 -0.07333010 0.24954002
v 0.49025381 -0.09750269 0.24954002
v 0.48689640 -0.11151220 0.25144410
v 0.48712894 -0.11151220 0.24954002
v 0.45189798 0.21370611 0.24954002
v 0.44085196 0.23562023 0.24954002
v 0.43303254 0.24895926 0.25144410
v 0.47287086 -0.11151220 0.25394440
v 0.41682687 0.24895926 0.25313661
v 0.49079156 0.09446645 0.24954002
v 0.49034101 0.09753654 0.24721281
v 0.48497787 0.12146211 0.24721281
v 0.49756452 0.04901493 0.24721281
v 0.49454141 0.07332867 0.24721281
v 0.49087876 0.09450173 0.24721281
v 0.47843748 0.14510536 0.24721281
v 0.47074887 0.16843103 0.24721281
v 0.46192658 0.19129795 0.24721281
v 0.49999174 -0.00000072 0.24721281
v 0.49938130 0.02452475 0.24721281
v 0.49938130 -0.02449090 0.24721281
v 0.49756452 -0.04898108 0.24721281
v 0.49454141 -0.07333010 0.24721281
v 0.49034101 -0.09753798 0.24721281
v 0.48721614 -0.11151220 0.24721281
v 0.45197064 0.21374139 0.24721281
v 0.44093916 0.23565552 0.24721281
v 0.43335229 0.24895926 0.24809754
v 0.43327960 0.24895926 0.24954002
v 0.47242031 -0.11151220 0.25313661
v 0.41615829 0.24895926 0.25173259
v 0.49029741 0.09750126 0.24440478
v 0.48491973 0.12146211 0.24440478
v 0.49932316 0.02452475 0.24440478
v 0.49750638 0.04897964 0.24440478
v 0.49449781 0.07332867 0.24440478
v 0.49082065 0.09450173 0.24440478
v 0.47837934 0.14510536 0.24440478
v 0.47070527 0.16839574 0.24440478
v 0.46186846 0.19129795 0.24440478
v 0.45192704 0.21374139 0.24440478
v 0.49993360 -0.00000072 0.24440478
v 0.49932316 -0.02449090 0.24440478
v 0.49449781 -0.07333010 0.24440478
v 0.49750638 -0.04898108 0.24440478
v 0.49029741 -0.09750269 0.24440478
v 0.48718709 -0.11151220 0.24557799
v 0.44089556 0.23565552 0.24440478
v 0.43338135 0.24895926 0.24721281
v 0.47182441 -0.11151220 0.25173259
v 0.41553330 0.24895926 0.25000161
v 0.49009395 0.09746597 0.24105822
v 0.48473081 0.12139153 0.24105822
v 0.47819039 0.14507008 0.24105822
v 0.49911970 0.02452475 0.24105822
v 0.49730292 0.04897964 0.24105822
v 0.49429432 0.07329338 0.24105822
v 0.49061716 0.09446645 0.24105822
v 0.47051632 0.16836046 0.24105822
v 0.46167952 0.19122738 0.24105822
v 0.45173809 0.21363553 0.24105822
v 0.49973011 -0.00000072 0.24105822
v 0.49911970 -0.02449090 0.24105822
v 0.49429432 -0.07329482 0.24105822
v 0.49730292 -0.04894579 0.24105822
v 0.48715800 -0.11151220 0.24440478
v 0.48695454 -0.11151220 0.24105822
v 0.49009395 -0.09746741 0.24105822
v 0.44070661 0.23554966 0.24105822
v 0.43309066 0.24895926 0.24105822
v 0.43323600 0.24895926 0.24313539
v 0.43332320 0.24895926 0.24440478
v 0.47127211 -0.11151220 0.25000161
v 0.35151002 0.24895926 0.06084388
v 0.49023926 0.09450173 0.23709619
v 0.48971605 0.09739539 0.23709619
v 0.49057356 0.09446645 0.24057738
v 0.48435292 0.12132096 0.23709619
v 0.47784156 0.14492893 0.23709619
v 0.49936676 -0.00000072 0.23709619
v 0.49875635 0.02448946 0.23709619
v 0.49693954 0.04894435 0.23709619
v 0.49391645 0.07322281 0.23709619
v 0.47015297 0.16821930 0.23709619
v 0.46134523 0.19105092 0.23709619
v 0.45140380 0.21349438 0.23709619
v 0.49875635 -0.02445561 0.23709619
v 0.49391645 -0.07325953 0.23709619
v 0.49693954 -0.04891051 0.23709619
v 0.48973057 -0.09736153 0.23709619
v 0.48656210 -0.11151220 0.23709619
v 0.44037232 0.23537321 0.23709619
v 0.43266916 0.24895926 0.23709619
v 0.41610014 -0.11151220 0.06084388
v 0.37778792 0.24895926 0.06084388
v 0.48917827 0.09728952 0.23248024
v 0.49337867 0.07315223 0.23248024
v 0.48967242 0.09446645 0.23248024
v 0.48381513 0.12117980 0.23248024
v 0.47730380 0.14478777 0.23248024
v 0.46964425 0.16804287 0.23248024
v 0.49879992 -0.00000072 0.23248024
v 0.49818951 0.02448946 0.23248024
v 0.49637273 0.04890907 0.23248024
v 0.46082199 0.19083920 0.23248024
v 0.45090964 0.21324736 0.23248024
v 0.49818951 -0.02445561 0.23248024
v 0.49337867 -0.07315366 0.23248024
v 0.49637273 -0.04887521 0.23248024
v 0.48622781 -0.11151220 0.23436509
v 0.48917827 -0.09729096 0.23248024
v 0.43987817 0.23509091 0.23248024
v 0.43202966 0.24895926 0.23248024
v 0.43852648 -0.11151220 0.06084388
v 0.38204643 0.24895926 0.06961419
v 0.38444459 0.23847860 0.06084388
v 0.48890212 0.09450173 0.22713344
v 0.48843703 0.09714837 0.22713344
v 0.49262288 0.07304636 0.22713344
v 0.48307389 0.12100336 0.22713344
v 0.47656256 0.14457604 0.22713344
v 0.46891755 0.16776055 0.22713344
v 0.46012434 0.19055688 0.22713344
v 0.49804416 -0.00000072 0.22713344
v 0.49743372 0.02441889 0.22713344
v 0.49561694 0.04880320 0.22713344
v 0.45021200 0.21289447 0.22713344
v 0.43920958 0.23473802 0.22713344
v 0.49743372 -0.02438504 0.22713344
v 0.49262288 -0.07304780 0.22713344
v 0.48843703 -0.09714980 0.22713344
v 0.49561694 -0.04876935 0.22713344
v 0.48599529 -0.11151220 0.23248024
v 0.48522496 -0.11151220 0.22713344
v 0.43115762 0.24895926 0.22713344
v 0.43894798 -0.10992423 0.06084388
v 0.44243619 -0.11080644 0.06961419
v 0.44224724 -0.11151220 0.06961419
v 0.38639218 0.24895926 0.07924999
v 0.39123207 0.23445570 0.06961419
v 0.38815081 0.23262072 0.06084388
v 0.48801553 0.09450173 0.22159430
v 0.49166363 0.07290521 0.22095960
v 0.48747778 0.09693664 0.22095960
v 0.48212916 0.12075634 0.22095960
v 0.49465770 0.04869734 0.22095960
v 0.47564691 0.14425844 0.22095960
v 0.45922321 0.19020399 0.22095960
v 0.46800190 0.16744295 0.22095960
v 0.44933993 0.21250629 0.22095960
v 0.49707037 -0.00000072 0.22095960
v 0.49645993 0.02438360 0.22095960
v 0.43835205 0.23427927 0.22095960
v 0.49465770 -0.04869878 0.22095960
v 0.49645993 -0.02434975 0.22095960
v 0.49166363 -0.07290664 0.22095960
v 0.48422211 -0.11151220 0.22095960
v 0.48747778 -0.09693807 0.22095960
v 0.43003848 0.24895926 0.22095960
v 0.44093916 -0.10110211 0.06084388
v 0.44516861 -0.11151220 0.07699971
v 0.44733423 -0.08896288 0.06961419
v 0.38864499 0.24895926 0.08425059
v 0.39601386 0.23731408 0.08425059
v 0.40719068 0.21762313 0.08425059
v 0.40227810 0.21497649 0.06961419
v 0.39464763 0.22118726 0.06084388
v 0.48791379 0.09446645 0.22095960
v 0.49047181 0.07272877 0.21392028
v 0.48669291 0.09450173 0.21392028
v 0.48630050 0.09672491 0.21392028
v 0.48098096 0.12047403 0.21392028
v 0.49345133 0.04862676 0.21392028
v 0.49526811 0.02434831 0.21392028
v 0.47449869 0.14394085 0.21392028
v 0.45811862 0.18974525 0.21392028
v 0.46686822 0.16705477 0.21392028
v 0.44824988 0.21197698 0.21392028
v 0.43729106 0.23371466 0.21392028
v 0.49586403 -0.00000072 0.21392028
v 0.49526811 -0.02431446 0.21392028
v 0.49345133 -0.04859291 0.21392028
v 0.49047181 -0.07273020 0.21392028
v 0.48630050 -0.09672634 0.21392028
v 0.48298669 -0.11151220 0.21392028
v 0.42905015 0.24895926 0.21593976
v 0.44381693 -0.08825712 0.06084388
v 0.44800279 -0.11151220 0.08425059
v 0.45281363 -0.09005684 0.08425059
v 0.45117125 -0.06690761 0.06961419
v 0.39184251 0.24895926 0.09188614
v 0.40040317 0.23996072 0.09865620
v 0.41169629 0.22002274 0.09865620
v 0.41739368 0.19736755 0.08425059
v 0.41235033 0.19500323 0.06961419
v 0.39910963 0.21328264 0.06084388
v 0.49201244 0.04848561 0.20595777
v 0.48903292 0.07251704 0.20595777
v 0.48535576 0.09446645 0.20659247
v 0.48487616 0.09644260 0.20595777
v 0.47957113 0.12012115 0.20595777
v 0.49441060 -0.00000072 0.20595777
v 0.49381471 0.02424244 0.20595777
v 0.47310340 0.14351739 0.20595777
v 0.46550202 0.16656074 0.20595777
v 0.45678148 0.18918064 0.20595777
v 0.44694179 0.21137707 0.20595777
v 0.43602657 0.23304418 0.20595777
v 0.42864320 0.24895926 0.21392028
v 0.49381471 -0.02420859 0.20595777
v 0.49201244 -0.04841647 0.20595777
v 0.48903292 -0.07251847 0.20595777
v 0.48487616 -0.09644404 0.20595777
v 0.48243439 -0.11151220 0.21091992
v 0.44606975 -0.07530627 0.06084388
v 0.45323512 -0.11151220 0.09865620
v 0.45667973 -0.06771925 0.08425059
v 0.46172312 -0.06846030 0.09865620
v 0.45781341 -0.09104490 0.09865620
v 0.44761038 -0.06637828 0.06084388
v 0.45393276 -0.04467589 0.06961419
v 0.39467669 0.24895926 0.09865620
v 0.40018517 0.24895926 0.11279254
v 0.40438557 0.24232504 0.11279254
v 0.41579494 0.22221062 0.11279254
v 0.42200106 0.19955544 0.09865620
v 0.43127388 0.17862940 0.09865620
v 0.42655027 0.17665324 0.08425059
v 0.42141968 0.17453593 0.06961419
v 0.41810587 0.17315969 0.06084388
v 0.40910918 0.19345054 0.06084388
v 0.49211419 0.02417187 0.19695666
v 0.49031195 0.04827388 0.19695666
v 0.48734695 0.07223473 0.19695666
v 0.48349538 0.09446645 0.19695666
v 0.48320469 0.09608972 0.19695666
v 0.47789970 0.11969769 0.19695666
v 0.47146106 0.14302334 0.19695666
v 0.49271008 -0.00000072 0.19695666
v 0.46388870 0.16596085 0.19695666
v 0.45519724 0.18851015 0.19695666
v 0.44538662 0.21063600 0.19695666
v 0.42502418 0.24895926 0.19695666
v 0.42697176 0.24895926 0.20595777
v 0.43450049 0.23223254 0.19695666
v 0.49211419 -0.02413802 0.19695666
v 0.48734695 -0.07223617 0.19695666
v 0.49031195 -0.04824002 0.19695666
v 0.48320469 -0.09609115 0.19695666
v 0.48150420 -0.11151220 0.20595777
v 0.47976008 -0.11151220 0.19695666
v 0.45798782 -0.11151220 0.11279254
v 0.45945576 -0.04520522 0.08425059
v 0.46454275 -0.04569925 0.09865620
v 0.46631593 -0.06913078 0.11279254
v 0.46916464 -0.04619329 0.11279254
v 0.46236262 -0.09192713 0.11279254
v 0.45034280 -0.04432300 0.06084388
v 0.45198518 -0.02219715 0.06084388
v 0.45558965 -0.02233831 0.06961419
v 0.46114174 -0.02262061 0.08425059
v 0.40514135 0.24895926 0.12658268
v 0.40799004 0.24451292 0.12658268
v 0.41950116 0.22418678 0.12658268
v 0.42618692 0.20153159 0.11279254
v 0.43557602 0.18039382 0.11279254
v 0.43951479 0.15724459 0.09865620
v 0.43470398 0.15555075 0.08425059
v 0.42945710 0.15364517 0.06961419
v 0.42607063 0.15244538 0.06084388
v 0.49071890 -0.00000072 0.18709008
v 0.49012300 0.02406600 0.18709008
v 0.48833528 0.04809743 0.18709008
v 0.48537031 0.07195242 0.18709008
v 0.48146060 0.09450173 0.18709008
v 0.48124260 0.09570155 0.18709008
v 0.47598118 0.11920365 0.18709008
v 0.46957159 0.14245874 0.18709008
v 0.46202832 0.16532564 0.18709008
v 0.45336592 0.18776910 0.18709008
v 0.44359893 0.20978908 0.18709008
v 0.42458814 0.24895926 0.19501412
v 0.43274185 0.23127975 0.18709008
v 0.48833528 -0.04806358 0.18709008
v 0.49012300 -0.02403215 0.18709008
v 0.48537031 -0.07198915 0.18709008
v 0.48125711 -0.09570298 0.18709008
v 0.47771075 -0.11151220 0.18709008
v 0.46227542 -0.11151220 0.12658268
v 0.46649033 -0.09277405 0.12658268
v 0.46624327 -0.02286763 0.09865620
v 0.47047272 -0.06976597 0.12658268
v 0.47333595 -0.04658147 0.12658268
v 0.47087967 -0.02311465 0.11279254
v 0.47508007 -0.02332638 0.12658268
v 0.45231944 -0.00903456 0.06084388
v 0.45614195 -0.00000072 0.06961419
v 0.46170858 -0.00000072 0.08425059
v 0.40897837 0.24895926 0.13798793
v 0.41121665 0.24641849 0.13991123
v 0.42281497 0.22598648 0.13991123
v 0.42998034 0.20333131 0.12658268
v 0.43944213 0.18201709 0.12658268
v 0.44784293 0.16024411 0.12658268
v 0.44387507 0.15883258 0.11279254
v 0.45114219 0.13684787 0.11279254
v 0.44669470 0.13550691 0.09865620
v 0.44181120 0.13402480 0.08425059
v 0.43647715 0.13240153 0.06961419
v 0.43301800 0.13134287 0.06084388
v 0.48782659 -0.02392629 0.17631954
v 0.48840797 -0.00000072 0.17631954
v 0.48782659 0.02396014 0.17631954
v 0.48605341 0.04785042 0.17631954
v 0.48310298 0.07163482 0.17631954
v 0.47913513 0.09450173 0.17631954
v 0.47898978 0.09527808 0.17631954
v 0.47374290 0.11863904 0.17631954
v 0.46736240 0.14175296 0.17631954
v 0.45984820 0.16454929 0.17631954
v 0.45122939 0.18688688 0.17631954
v 0.44152051 0.20880102 0.17631954
v 0.43072158 0.23022109 0.17631954
v 0.42274231 0.24895926 0.18709008
v 0.48605341 -0.04781656 0.17631954
v 0.48310298 -0.07163626 0.17631954
v 0.47898978 -0.09524423 0.17631954
v 0.47609746 -0.11151220 0.17970456
v 0.47535622 -0.11151220 0.17631954
v 0.46532759 -0.11151220 0.13710320
v 0.47420800 -0.07033059 0.13991123
v 0.47018203 -0.09351510 0.13991123
v 0.46614152 -0.11151220 0.13991123
v 0.46681008 -0.00000072 0.09865620
v 0.47710031 -0.04696964 0.13991123
v 0.47144651 -0.00000072 0.11279254
v 0.47566143 -0.00000072 0.12658268
v 0.47884443 -0.02350283 0.13991123
v 0.45253748 -0.00000072 0.06084388
v 0.45231944 0.00906841 0.06084388
v 0.45558965 0.02237216 0.06961419
v 0.46114174 0.02265446 0.08425059
v 0.46624327 0.02290148 0.09865620
v 0.40960336 0.24895926 0.13991123
v 0.41410896 0.24818292 0.15270126
v 0.42576542 0.22757447 0.15270126
v 0.43643355 0.20640139 0.15270126
v 0.43338135 0.20495456 0.13991123
v 0.44293034 0.18342862 0.13991123
v 0.45138925 0.16151449 0.13991123
v 0.45875812 0.13917691 0.13991123
v 0.45515364 0.13804768 0.12658268
v 0.46137428 0.11556894 0.12658268
v 0.45729017 0.11454558 0.11279254
v 0.45278457 0.11341634 0.09865620
v 0.44784293 0.11218125 0.08425059
v 0.44243619 0.11080500 0.06961419
v 0.43893343 0.10995807 0.06084388
v 0.48519590 -0.02378513 0.16481812
v 0.48579180 -0.00000072 0.16481812
v 0.48519590 0.02381898 0.16481812
v 0.48342273 0.04763868 0.16481812
v 0.48050132 0.07124665 0.16481812
v 0.47646081 0.09450173 0.16481812
v 0.47119942 0.11800385 0.16481812
v 0.46483344 0.14101191 0.16481812
v 0.45737737 0.16363180 0.16481812
v 0.44880217 0.18586352 0.16481812
v 0.43913692 0.20767178 0.16481812
v 0.42841065 0.22895071 0.16481812
v 0.41708848 0.24895926 0.16481812
v 0.42011160 0.24895926 0.17631954
v 0.48050132 -0.07124808 0.16481812
v 0.48342273 -0.04760483 0.16481812
v 0.47641721 -0.09475020 0.16481812
v 0.47343770 -0.11151220 0.16814546
v 0.47753635 -0.07078934 0.15270126
v 0.47348130 -0.09415029 0.15270126
v 0.46960068 -0.11151220 0.15270126
v 0.47087967 0.02314850 0.11279254
v 0.48044321 -0.04728723 0.15270126
v 0.48220184 -0.02364398 0.15270126
v 0.47942579 -0.00000072 0.13991123
v 0.47508007 0.02336023 0.12658268
v 0.47884443 0.02353667 0.13991123
v 0.48279774 -0.00000072 0.15270126
v 0.45198518 0.02223100 0.06084388
v 0.45393276 0.04470974 0.06961419
v 0.45945576 0.04527435 0.08425059
v 0.46454275 0.04573311 0.09865620
v 0.46916464 0.04622714 0.11279254
v 0.41341132 0.24895926 0.15210503
v 0.41544610 0.24895926 0.15904820
v 0.44604066 0.18473428 0.15270126
v 0.45455772 0.16264373 0.15270126
v 0.46198472 0.14012970 0.15270126
v 0.46829259 0.11729807 0.15270126
v 0.46502239 0.11648644 0.13991123
v 0.46226087 0.09450173 0.11427349
v 0.46996403 0.09450173 0.13991123
v 0.46649033 0.09277260 0.12658268
v 0.46179578 0.09450173 0.11279254
v 0.45781341 0.09104347 0.09865620
v 0.45181075 0.09450173 0.08425059
v 0.44611335 0.09446645 0.06961419
v 0.44242164 0.09446645 0.06084388
v 0.48220184 0.02367783 0.15270126
v 0.48044321 0.04732109 0.15270126
v 0.47753635 0.07078790 0.15270126
v 0.47503647 0.09446645 0.15908666
v 0.47342315 0.09450173 0.15270126
v 0.47265285 -0.11151220 0.16481812
v 0.47182441 -0.11151220 0.16151004
v 0.47333595 0.04661532 0.12658268
v 0.47710031 0.04700349 0.13991123
v 0.45034280 0.04435686 0.06084388
v 0.44761038 0.06641214 0.06084388
v 0.45117125 0.06690618 0.06961419
v 0.45667973 0.06775310 0.08425059
v 0.46172312 0.06849416 0.09865620
v 0.46631593 0.06912935 0.11279254
v 0.47047272 0.06976454 0.12658268
v 0.46236262 0.09196097 0.11279254
v 0.47018203 0.09351366 0.13991123
v 0.47420800 0.07032915 0.13991123
v 0.45281363 0.09002011 0.08425059
v 0.44733423 0.08896145 0.06961419
v 0.44381693 0.08825568 0.06084388
v 0.44606975 0.07530482 0.06084388
f 1 2 3
f 1 3 4
f 1 4 5
f 1 5 6
f 1 6 7
f 1 7 8
f 1 8 9
f 1 9 10
f 1 10 11
f 1 11 12
f 1 12 30
f 1 30 48
f 1 48 73
f 1 73 100
f 1 100 77
f 1 77 52
f 1 52 33
f 1 33 16
f 1 16 13
f 1 13 2
f 2 13 3
f 3 14 15
f 3 15 4
f 3 13 16
f 3 16 17
f 3 17 18
f 3 18 14
f 4 19 5
f 4 15 19
f 5 19 20
f 5 20 21
f 5 21 22
f 5 22 7
f 5 7 6
f 7 22 8
f 8 23 24
f 8 24 9
f 8 22 23
f 9 24 10
f 10 24 25
f 10 25 26
f 10 26 11
f 11 26 43
f 11 43 65
f 11 65 64
f 11 64 92
f 11 92 121
f 11 121 120
f 11 120 146
f 11 146 145
f 11 145 170
f 11 170 194
f 11 194 219
f 11 219 243
f 11 243 265
f 11 265 264
f 11 264 285
f 11 285 308
f 11 308 307
f 11 307 306
f 11 306 329
f 11 329 349
f 11 349 371
f 11 371 395
f 11 395 422
f 11 422 445
f 11 445 480
f 11 480 479
f 11 479 518
f 11 518 560
f 11 560 608
f 11 608 607
f 11 607 629
f 11 629 628
f 11 628 580
f 11 580 535
f 11 535 498
f 11 498 459
f 11 459 458
f 11 458 427
f 11 427 399
f 11 399 375
f 11 375 351
f 11 351 331
f 11 331 310
f 11 310 287
f 11 287 267
f 11 267 245
f 11 245 221
f 11 221 197
f 11 197 196
f 11 196 172
f 11 172 149
f 11 149 148
f 11 148 123
f 11 123 94
f 11 94 68
f 11 68 66
f 11 66 44
f 11 44 27
f 11 27 12
f 12 28 45
f 12 45 67
f 12 67 93
f 12 93 122
f 12 122 147
f 12 147 171
f 12 171 195
f 12 195 220
f 12 220 244
f 12 244 266
f 12 266 286
f 12 286 309
f 12 309 330
f 12 330 350
f 12 350 374
f 12 374 397
f 12 397 424
f 12 424 452
f 12 452 488
f 12 488 525
f 12 525 566
f 12 566 569
f 12 569 615
f 12 615 649
f 12 649 648
f 12 648 612
f 12 612 565
f 12 565 564
f 12 564 524
f 12 524 487
f 12 487 486
f 12 486 450
f 12 450 421
f 12 421 393
f 12 393 370
f 12 370 369
f 12 369 346
f 12 346 327
f 12 327 303
f 12 303 302
f 12 302 283
f 12 283 261
f 12 261 240
f 12 240 239
f 12 239 236
f 12 236 235
f 12 235 222
f 12 222 199
f 12 199 198
f 12 198 174
f 12 174 152
f 12 152 127
f 12 127 124
f 12 124 95
f 12 95 69
f 12 69 46
f 12 46 29
f 12 29 30
f 12 27 28
f 14 31 32
f 14 32 19
f 14 19 15
f 14 18 31
f 16 33 17
f 17 33 34
f 17 34 35
f 17 35 18
f 18 35 36
f 18 36 31
f 19 37 38
f 19 38 20
f 19 32 37
f 20 38 21
f 21 38 39
f 21 39 40
f 21 40 23
f 21 23 22
f 23 40 24
f 24 41 42
f 24 42 25
f 24 40 41
f 25 42 43
f 25 43 26
f 27 44 45
f 27 45 28
f 29 46 47
f 29 47 30
f 30 47 48
f 31 36 32
f 32 49 50
f 32 50 51
f 32 51 37
f 32 36 49
f 33 52 34
f 34 52 53
f 34 53 35
f 35 53 54
f 35 54 55
f 35 55 36
f 36 55 56
f 36 56 57
f 36 57 49
f 37 51 38
f 38 58 39
f 38 51 58
f 39 59 60
f 39 60 61
f 39 61 40
f 39 58 59
f 40 61 62
f 40 62 41
f 41 62 42
f 42 62 63
f 42 63 64
f 42 64 65
f 42 65 43
f 44 66 45
f 45 66 68
f 45 68 67
f 46 69 47
f 47 70 71
f 47 71 72
f 47 72 48
f 47 69 70
f 48 72 73
f 49 74 50
f 49 57 74
f 50 74 75
f 50 75 76
f 50 76 51
f 51 76 86
f 51 86 58
f 52 77 53
f 53 77 78
f 53 78 54
f 54 78 79
f 54 79 80
f 54 80 81
f 54 81 55
f 55 81 56
f 56 82 83
f 56 83 57
f 56 81 84
f 56 84 85
f 56 85 82
f 57 83 74
f 58 86 87
f 58 87 59
f 59 87 60
f 60 87 88
f 60 88 89
f 60 89 90
f 60 90 62
f 60 62 61
f 62 90 91
f 62 91 63
f 63 91 92
f 63 92 64
f 67 68 94
f 67 94 93
f 69 95 70
f 70 95 96
f 70 96 71
f 71 96 97
f 71 97 98
f 71 98 72
f 72 98 99
f 72 99 73
f 73 99 100
f 74 101 102
f 74 102 75
f 74 83 103
f 74 103 101
f 75 102 76
f 76 104 105
f 76 105 86
f 76 102 104
f 77 100 106
f 77 106 78
f 78 106 107
f 78 107 79
f 79 107 80
f 80 108 84
f 80 84 81
f 80 107 109
f 80 109 110
f 80 110 108
f 82 111 103
f 82 103 83
f 82 85 111
f 84 108 85
f 85 108 112
f 85 112 113
f 85 113 114
f 85 114 111
f 86 105 87
f 87 115 116
f 87 116 88
f 87 105 115
f 88 116 89
f 89 116 117
f 89 117 118
f 89 118 119
f 89 119 91
f 89 91 90
f 91 119 120
f 91 120 121
f 91 121 92
f 93 94 123
f 93 123 122
f 95 124 96
f 96 125 126
f 96 126 97
f 96 124 127
f 96 127 125
f 97 126 128
f 97 128 129
f 97 129 98
f 98 129 107
f 98 107 106
f 98 106 99
f 99 106 100
f 101 130 131
f 101 131 102
f 101 103 130
f 102 131 134
f 102 134 104
f 103 111 132
f 103 132 133
f 103 133 130
f 104 134 105
f 105 134 135
f 105 135 136
f 105 136 115
f 107 129 109
f 108 110 137
f 108 137 112
f 109 129 128
f 109 128 110
f 110 128 137
f 111 114 139
f 111 139 132
f 112 137 113
f 113 138 139
f 113 139 114
f 113 137 140
f 113 140 141
f 113 141 138
f 115 136 116
f 116 136 142
f 116 142 143
f 116 143 117
f 117 143 118
f 118 143 144
f 118 144 145
f 118 145 146
f 118 146 120
f 118 120 119
f 122 123 148
f 122 148 149
f 122 149 147
f 125 127 150
f 125 150 126
f 126 150 151
f 126 151 128
f 127 152 150
f 128 151 153
f 128 153 137
f 130 154 131
f 130 133 154
f 131 155 134
f 131 154 155
f 132 156 157
f 132 157 133
f 132 139 156
f 133 157 154
f 134 155 158
f 134 158 159
f 134 159 135
f 135 159 136
f 136 160 142
f 136 159 160
f 137 153 161
f 137 161 140
f 138 162 163
f 138 163 139
f 138 141 164
f 138 164 162
f 139 163 156
f 140 161 165
f 140 165 141
f 141 165 166
f 141 166 164
f 142 160 167
f 142 167 143
f 143 167 168
f 143 168 169
f 143 169 144
f 144 169 145
f 145 169 170
f 147 149 172
f 147 172 171
f 150 173 151
f 150 152 174
f 150 174 173
f 151 175 153
f 151 173 175
f 153 175 161
f 154 176 155
f 154 157 176
f 155 176 177
f 155 177 178
f 155 178 158
f 156 163 179
f 156 179 180
f 156 180 157
f 157 180 176
f 158 178 181
f 158 181 182
f 158 182 159
f 159 182 160
f 160 182 183
f 160 183 191
f 160 191 167
f 161 175 165
f 162 184 185
f 162 185 163
f 162 164 186
f 162 186 184
f 163 185 179
f 164 166 187
f 164 187 186
f 165 175 188
f 165 188 189
f 165 189 166
f 166 189 190
f 166 190 187
f 167 191 192
f 167 192 168
f 168 192 169
f 169 192 193
f 169 193 194
f 169 194 170
f 171 172 196
f 171 196 197
f 171 197 195
f 173 174 198
f 173 198 199
f 173 199 200
f 173 200 188
f 173 188 175
f 176 180 177
f 177 201 178
f 177 180 201
f 178 202 205
f 178 205 181
f 178 201 202
f 179 203 204
f 179 204 180
f 179 185 209
f 179 209 203
f 180 204 201
f 181 205 182
f 182 205 206
f 182 206 207
f 182 207 183
f 183 207 191
f 184 208 209
f 184 209 185
f 184 186 210
f 184 210 208
f 186 187 211
f 186 211 210
f 187 190 213
f 187 213 211
f 188 200 212
f 188 212 189
f 189 212 190
f 190 212 214
f 190 214 215
f 190 215 213
f 191 207 216
f 191 216 192
f 192 216 217
f 192 217 218
f 192 218 193
f 193 218 194
f 194 218 219
f 195 197 221
f 195 221 220
f 199 222 200
f 200 222 212
f 201 204 202
f 202 223 224
f 202 224 225
f 202 225 205
f 202 204 223
f 203 209 232
f 203 232 226
f 203 226 204
f 204 226 227
f 204 227 223
f 205 225 206
f 206 225 228
f 206 228 207
f 207 229 230
f 207 230 216
f 207 228 229
f 208 231 232
f 208 232 209
f 208 210 233
f 208 233 231
f 210 211 234
f 210 234 233
f 211 213 234
f 212 222 235
f 212 235 236
f 212 236 214
f 213 237 234
f 213 215 238
f 213 238 237
f 214 236 215
f 215 236 239
f 215 239 240
f 215 240 238
f 216 230 241
f 216 241 217
f 217 241 218
f 218 242 243
f 218 243 219
f 218 241 242
f 220 221 245
f 220 245 244
f 223 227 246
f 223 246 224
f 224 247 225
f 224 246 251
f 224 251 247
f 225 247 248
f 225 248 252
f 225 252 228
f 226 249 227
f 226 232 249
f 227 250 251
f 227 251 246
f 227 249 250
f 228 252 253
f 228 253 229
f 229 253 230
f 230 253 254
f 230 254 262
f 230 262 241
f 231 255 256
f 231 256 232
f 231 233 257
f 231 257 255
f 232 256 249
f 233 234 258
f 233 258 257
f 234 237 259
f 234 259 258
f 237 238 260
f 237 260 259
f 238 240 260
f 240 261 260
f 241 262 263
f 241 263 242
f 242 263 264
f 242 264 265
f 242 265 243
f 244 245 266
f 245 267 266
f 247 251 268
f 247 268 248
f 248 268 269
f 248 269 274
f 248 274 252
f 249 256 270
f 249 270 271
f 249 271 272
f 249 272 250
f 250 272 251
f 251 273 268
f 251 272 273
f 252 274 275
f 252 275 253
f 253 275 254
f 254 275 276
f 254 276 277
f 254 277 262
f 255 278 270
f 255 270 256
f 255 257 279
f 255 279 278
f 257 258 281
f 257 281 279
f 258 259 280
f 258 280 281
f 259 260 280
f 260 282 280
f 260 261 283
f 260 283 282
f 262 277 284
f 262 284 263
f 263 284 285
f 263 285 264
f 266 267 286
f 267 287 286
f 268 288 289
f 268 289 269
f 268 273 294
f 268 294 288
f 269 289 290
f 269 290 274
f 270 278 298
f 270 298 291
f 270 291 292
f 270 292 271
f 271 292 272
f 272 292 293
f 272 293 294
f 272 294 273
f 274 290 295
f 274 295 275
f 275 295 276
f 276 295 296
f 276 296 277
f 277 296 297
f 277 297 305
f 277 305 284
f 278 279 299
f 278 299 298
f 279 281 299
f 280 300 301
f 280 301 281
f 280 282 304
f 280 304 300
f 281 301 299
f 282 283 302
f 282 302 303
f 282 303 304
f 284 305 306
f 284 306 307
f 284 307 308
f 284 308 285
f 286 287 310
f 286 310 309
f 288 311 312
f 288 312 314
f 288 314 289
f 288 294 313
f 288 313 311
f 289 314 315
f 289 315 290
f 290 315 295
f 291 298 316
f 291 316 317
f 291 317 318
f 291 318 292
f 292 318 293
f 293 313 294
f 293 318 319
f 293 319 311
f 293 311 313
f 295 315 320
f 295 320 321
f 295 321 296
f 296 321 322
f 296 322 297
f 297 322 305
f 298 299 316
f 299 323 316
f 299 301 325
f 299 325 323
f 300 324 325
f 300 325 301
f 300 304 326
f 300 326 324
f 303 327 326
f 303 326 304
f 305 328 329
f 305 329 306
f 305 322 328
f 309 310 330
f 310 331 352
f 310 352 377
f 310 377 403
f 310 403 432
f 310 432 467
f 310 467 466
f 310 466 506
f 310 506 546
f 310 546 594
f 310 594 642
f 310 642 664
f 310 664 665
f 310 665 653
f 310 653 652
f 310 652 623
f 310 623 576
f 310 576 575
f 310 575 532
f 310 532 495
f 310 495 494
f 310 494 456
f 310 456 451
f 310 451 423
f 310 423 396
f 310 396 372
f 310 372 350
f 310 350 330
f 311 332 312
f 311 319 333
f 311 333 334
f 311 334 332
f 312 332 314
f 314 332 335
f 314 335 336
f 314 336 315
f 315 336 337
f 315 337 320
f 316 338 339
f 316 339 317
f 316 323 343
f 316 343 338
f 317 339 318
f 318 340 333
f 318 333 319
f 318 339 340
f 320 337 321
f 321 337 341
f 321 341 342
f 321 342 322
f 322 342 328
f 323 325 343
f 324 344 325
f 324 326 344
f 325 344 345
f 325 345 343
f 326 327 346
f 326 346 347
f 326 347 344
f 328 342 348
f 328 348 349
f 328 349 329
f 331 351 352
f 332 353 354
f 332 354 335
f 332 334 353
f 333 340 362
f 333 362 355
f 333 355 353
f 333 353 334
f 335 354 356
f 335 356 336
f 336 356 357
f 336 357 337
f 337 357 358
f 337 358 359
f 337 359 341
f 338 360 339
f 338 343 360
f 339 360 361
f 339 361 340
f 340 361 362
f 341 359 342
f 342 359 363
f 342 363 364
f 342 364 348
f 343 365 360
f 343 345 365
f 344 366 368
f 344 368 345
f 344 347 367
f 344 367 366
f 345 368 365
f 346 369 347
f 347 369 370
f 347 370 367
f 348 364 349
f 349 364 371
f 350 372 373
f 350 373 374
f 351 375 376
f 351 376 352
f 352 376 377
f 353 378 354
f 353 355 379
f 353 379 378
f 354 378 380
f 354 380 381
f 354 381 356
f 355 362 382
f 355 382 379
f 356 381 383
f 356 383 357
f 357 383 385
f 357 385 358
f 358 384 359
f 358 385 384
f 359 384 386
f 359 386 363
f 360 387 361
f 360 365 387
f 361 387 388
f 361 388 382
f 361 382 362
f 363 386 364
f 364 386 389
f 364 389 371
f 365 368 390
f 365 390 391
f 365 391 387
f 366 392 390
f 366 390 368
f 366 367 392
f 367 370 393
f 367 393 394
f 367 394 392
f 371 389 395
f 372 396 373
f 373 397 374
f 373 396 398
f 373 398 397
f 375 399 376
f 376 399 400
f 376 400 401
f 376 401 402
f 376 402 403
f 376 403 377
f 378 379 404
f 378 404 380
f 379 382 405
f 379 405 406
f 379 406 404
f 380 407 408
f 380 408 381
f 380 404 406
f 380 406 407
f 381 408 383
f 382 409 405
f 382 388 410
f 382 410 409
f 383 411 385
f 383 408 411
f 384 385 412
f 384 412 386
f 385 411 413
f 385 413 412
f 386 412 414
f 386 414 415
f 386 415 389
f 387 416 410
f 387 410 388
f 387 391 417
f 387 417 416
f 389 415 395
f 390 418 417
f 390 417 391
f 390 392 419
f 390 419 418
f 392 394 420
f 392 420 419
f 393 421 420
f 393 420 394
f 395 415 422
f 396 423 398
f 397 398 425
f 397 425 424
f 398 423 426
f 398 426 425
f 399 427 428
f 399 428 400
f 400 428 401
f 401 429 430
f 401 430 431
f 401 431 402
f 401 428 429
f 402 431 432
f 402 432 403
f 405 409 433
f 405 433 434
f 405 434 435
f 405 435 406
f 406 435 407
f 407 436 408
f 407 435 436
f 408 437 411
f 408 436 437
f 409 410 433
f 410 416 438
f 410 438 439
f 410 439 433
f 411 437 440
f 411 440 441
f 411 441 413
f 412 442 443
f 412 443 414
f 412 413 442
f 413 441 442
f 414 443 444
f 414 444 415
f 415 444 445
f 415 445 422
f 416 417 438
f 417 446 438
f 417 418 447
f 417 447 446
f 418 419 447
f 419 448 447
f 419 420 449
f 419 449 448
f 420 421 450
f 420 450 449
f 423 451 426
f 424 425 452
f 425 426 453
f 425 453 454
f 425 454 455
f 425 455 452
f 426 451 456
f 426 456 457
f 426 457 453
f 427 458 428
f 428 458 459
f 428 459 460
f 428 460 461
f 428 461 429
f 429 461 462
f 429 462 430
f 430 462 463
f 430 463 464
f 430 464 465
f 430 465 431
f 431 465 466
f 431 466 467
f 431 467 432
f 433 439 468
f 433 468 469
f 433 469 470
f 433 470 434
f 434 470 435
f 435 470 471
f 435 471 472
f 435 472 436
f 436 472 437
f 437 473 474
f 437 474 440
f 437 472 473
f 438 475 439
f 438 446 475
f 439 475 468
f 440 474 441
f 441 474 476
f 441 476 477
f 441 477 442
f 442 477 443
f 443 477 478
f 443 478 444
f 444 479 480
f 444 480 445
f 444 478 481
f 444 481 479
f 446 447 482
f 446 482 475
f 447 448 483
f 447 483 484
f 447 484 482
f 448 449 485
f 448 485 483
f 449 450 486
f 449 486 487
f 449 487 485
f 452 455 488
f 453 457 489
f 453 489 490
f 453 490 454
f 454 491 455
f 454 490 492
f 454 492 491
f 455 491 493
f 455 493 488
f 456 494 457
f 457 494 495
f 457 495 496
f 457 496 497
f 457 497 489
f 459 498 499
f 459 499 460
f 460 499 461
f 461 500 501
f 461 501 462
f 461 499 500
f 462 501 502
f 462 502 463
f 463 502 503
f 463 503 504
f 463 504 464
f 464 504 465
f 465 504 505
f 465 505 466
f 466 505 506
f 468 475 507
f 468 507 508
f 468 508 509
f 468 509 469
f 469 509 470
f 470 510 471
f 470 509 510
f 471 510 511
f 471 511 472
f 472 511 512
f 472 512 513
f 472 513 473
f 473 513 514
f 473 514 474
f 474 514 515
f 474 515 476
f 475 482 507
f 476 515 477
f 477 516 478
f 477 515 516
f 478 517 481
f 478 516 517
f 479 481 518
f 481 517 519
f 481 519 518
f 482 484 520
f 482 520 521
f 482 521 507
f 483 522 520
f 483 520 484
f 483 485 523
f 483 523 522
f 485 487 523
f 487 524 523
f 488 493 526
f 488 526 525
f 489 497 490
f 490 497 527
f 490 527 492
f 491 528 526
f 491 526 493
f 491 492 528
f 492 529 528
f 492 527 530
f 492 530 531
f 492 531 529
f 495 532 496
f 496 532 533
f 496 533 534
f 496 534 497
f 497 534 527
f 498 535 499
f 499 535 536
f 499 536 537
f 499 537 500
f 500 537 538
f 500 538 501
f 501 538 502
f 502 538 539
f 502 539 540
f 502 540 541
f 502 541 503
f 503 541 542
f 503 542 543
f 503 543 504
f 504 543 544
f 504 544 545
f 504 545 505
f 505 545 506
f 506 545 546
f 507 521 547
f 507 547 548
f 507 548 549
f 507 549 508
f 508 549 550
f 508 550 509
f 509 550 551
f 509 551 510
f 510 551 511
f 511 552 512
f 511 551 552
f 512 552 553
f 512 553 513
f 513 554 514
f 513 553 554
f 514 554 555
f 514 555 556
f 514 556 515
f 515 556 557
f 515 557 516
f 516 557 558
f 516 558 517
f 517 558 559
f 517 559 519
f 518 519 560
f 519 559 560
f 520 561 521
f 520 522 562
f 520 562 561
f 521 561 547
f 522 523 562
f 523 563 562
f 523 524 564
f 523 564 565
f 523 565 563
f 525 526 566
f 526 528 567
f 526 567 568
f 526 568 569
f 526 569 566
f 527 534 570
f 527 570 530
f 528 529 571
f 528 571 567
f 529 531 571
f 530 570 572
f 530 572 573
f 530 573 531
f 531 573 574
f 531 574 571
f 532 575 533
f 533 575 576
f 533 576 577
f 533 577 534
f 534 577 578
f 534 578 579
f 534 579 570
f 535 580 536
f 536 580 581
f 536 581 537
f 537 582 583
f 537 583 584
f 537 584 538
f 537 581 582
f 538 584 539
f 539 584 585
f 539 585 586
f 539 586 540
f 540 586 587
f 540 587 588
f 540 588 542
f 540 542 541
f 542 589 590
f 542 590 591
f 542 591 543
f 542 588 589
f 543 591 592
f 543 592 544
f 544 592 545
f 545 592 593
f 545 593 594
f 545 594 546
f 547 595 596
f 547 596 548
f 547 561 595
f 548 596 549
f 549 596 597
f 549 597 550
f 550 598 599
f 550 599 551
f 550 597 598
f 551 599 552
f 552 600 553
f 552 599 600
f 553 600 601
f 553 601 554
f 554 601 555
f 555 602 556
f 555 601 602
f 556 602 603
f 556 603 604
f 556 604 557
f 557 604 558
f 558 605 606
f 558 606 559
f 558 604 605
f 559 606 607
f 559 607 608
f 559 608 560
f 561 562 609
f 561 609 610
f 561 610 595
f 562 563 611
f 562 611 609
f 563 565 611
f 565 612 611
f 567 613 614
f 567 614 568
f 567 571 613
f 568 614 615
f 568 615 569
f 570 579 616
f 570 616 572
f 571 617 613
f 571 574 618
f 571 618 617
f 572 616 573
f 573 619 574
f 573 616 620
f 573 620 621
f 573 621 619
f 574 619 622
f 574 622 618
f 576 623 577
f 577 624 578
f 577 623 624
f 578 624 625
f 578 625 626
f 578 626 579
f 579 626 627
f 579 627 616
f 580 628 581
f 581 628 629
f 581 629 607
f 581 607 606
f 581 606 582
f 582 606 605
f 582 605 583
f 583 605 630
f 583 630 585
f 583 585 584
f 585 630 586
f 586 631 587
f 586 630 631
f 587 632 633
f 587 633 634
f 587 634 589
f 587 589 588
f 587 631 632
f 589 635 590
f 589 634 636
f 589 636 637
f 589 637 635
f 590 635 638
f 590 638 591
f 591 638 639
f 591 639 592
f 592 639 640
f 592 640 641
f 592 641 593
f 593 641 642
f 593 642 594
f 595 618 622
f 595 622 596
f 595 610 617
f 595 617 618
f 596 622 597
f 597 643 644
f 597 644 598
f 597 622 643
f 598 644 599
f 599 644 645
f 599 645 646
f 599 646 600
f 600 646 601
f 601 633 632
f 601 632 602
f 601 646 647
f 601 647 633
f 602 632 603
f 603 631 630
f 603 630 604
f 603 632 631
f 604 630 605
f 609 611 614
f 609 614 613
f 609 613 617
f 609 617 610
f 611 612 648
f 611 648 649
f 611 649 615
f 611 615 614
f 616 627 620
f 619 621 622
f 620 627 650
f 620 650 651
f 620 651 621
f 621 643 622
f 621 651 643
f 623 652 624
f 624 652 653
f 624 653 654
f 624 654 655
f 624 655 625
f 625 655 626
f 626 655 656
f 626 656 627
f 627 656 657
f 627 657 658
f 627 658 650
f 633 647 634
f 634 647 636
f 635 637 659
f 635 659 638
f 636 647 660
f 636 660 637
f 637 660 661
f 637 661 658
f 637 658 657
f 637 657 659
f 638 659 639
f 639 659 656
f 639 656 655
f 639 655 662
f 639 662 640
f 640 662 641
f 641 662 663
f 641 663 664
f 641 664 642
f 643 651 644
f 644 651 645
f 645 651 661
f 645 661 647
f 645 647 646
f 647 661 660
f 650 658 651
f 651 658 661
f 653 665 654
f 654 665 664
f 654 664 663
f 654 663 662
f 654 662 655
f 656 659 657

