# Blender 3.6.5
# www.blender.org
mtllib body.mtl
o Cube
v -0.226538 0.072494 0.201730
v -0.226538 0.777990 0.201730
v -0.226538 0.777990 -0.235218
v -0.226538 0.072494 -0.235218
v 0.226538 0.072494 -0.235218
v 0.226538 0.777990 -0.235218
v 0.226538 0.777990 0.201730
v 0.226538 0.072494 0.201730
v -0.210149 0.079247 0.201730
v -0.210149 0.777899 0.201730
v 0.210149 0.777899 0.201730
v 0.210149 0.079247 0.201730
v -0.210149 0.079247 -0.219680
v -0.210149 0.778069 -0.219680
v 0.210149 0.778069 -0.219680
v 0.210149 0.079247 -0.219680
v -0.240000 0.774992 0.230628
v -0.224827 0.794992 0.215455
v -0.240000 0.774992 -0.249372
v -0.224827 0.794992 -0.234199
v 0.240000 0.774992 0.230628
v 0.224827 0.794992 0.215455
v 0.240000 0.774992 -0.249372
v 0.224827 0.794992 -0.234199
v -0.240000 0.787191 0.230628
v -0.240000 0.787191 -0.249372
v 0.240000 0.787191 -0.249372
v 0.240000 0.787191 0.230628
v 0.185216 0.057835 0.184076
v 0.185216 0.011232 0.198350
v 0.199621 0.057835 0.178110
v 0.209714 0.011232 0.188203
v 0.205587 0.057835 0.163705
v 0.219861 0.011232 0.163705
v 0.199621 0.057835 0.149300
v 0.209714 0.011232 0.139207
v 0.185216 0.057835 0.143334
v 0.185216 0.011232 0.129060
v 0.170811 0.057835 0.149300
v 0.160718 0.011232 0.139207
v 0.164845 0.057835 0.163705
v 0.150571 0.011232 0.163705
v 0.170811 0.057835 0.178110
v 0.160718 0.011232 0.188203
v 0.185216 0.046891 0.186580
v 0.185216 0.027806 0.198350
v 0.209714 0.027806 0.188203
v 0.201391 0.046891 0.179880
v 0.219861 0.027806 0.163705
v 0.208091 0.046891 0.163705
v 0.209714 0.027806 0.139207
v 0.201391 0.046891 0.147530
v 0.185216 0.027806 0.129060
v 0.185216 0.046891 0.140830
v 0.160718 0.027806 0.139207
v 0.169041 0.046891 0.147530
v 0.150571 0.027806 0.163705
v 0.162341 0.046891 0.163705
v 0.160718 0.027806 0.188203
v 0.169041 0.046891 0.179880
v 0.185216 0.000019 0.191978
v 0.205208 0.000019 0.183697
v 0.213489 0.000019 0.163705
v 0.205208 0.000019 0.143713
v 0.185216 0.000019 0.135432
v 0.165224 0.000019 0.143713
v 0.156943 0.000019 0.163705
v 0.165224 0.000019 0.183697
v 0.185216 0.057835 -0.176515
v 0.185216 0.011232 -0.162241
v 0.199621 0.057835 -0.182481
v 0.209714 0.011232 -0.172388
v 0.205587 0.057835 -0.196886
v 0.219861 0.011232 -0.196886
v 0.199621 0.057835 -0.211291
v 0.209714 0.011232 -0.221384
v 0.185216 0.057835 -0.217257
v 0.185216 0.011232 -0.231531
v 0.170811 0.057835 -0.211291
v 0.160718 0.011232 -0.221384
v 0.164845 0.057835 -0.196886
v 0.150571 0.011232 -0.196886
v 0.170811 0.057835 -0.182481
v 0.160718 0.011232 -0.172388
v 0.185216 0.046891 -0.174011
v 0.185216 0.027806 -0.162241
v 0.209714 0.027806 -0.172388
v 0.201391 0.046891 -0.180711
v 0.219861 0.027806 -0.196886
v 0.208091 0.046891 -0.196886
v 0.209714 0.027806 -0.221384
v 0.201391 0.046891 -0.213061
v 0.185216 0.027806 -0.231531
v 0.185216 0.046891 -0.219761
v 0.160718 0.027806 -0.221384
v 0.169041 0.046891 -0.213061
v 0.150571 0.027806 -0.196886
v 0.162341 0.046891 -0.196886
v 0.160718 0.027806 -0.172388
v 0.169041 0.046891 -0.180711
v 0.185216 0.000019 -0.168613
v 0.205208 0.000019 -0.176894
v 0.213489 0.000019 -0.196886
v 0.205208 0.000019 -0.216878
v 0.185216 0.000019 -0.225159
v 0.165224 0.000019 -0.216878
v 0.156943 0.000019 -0.196886
v 0.165224 0.000019 -0.176894
v -0.185216 0.057835 0.184076
v -0.185216 0.011232 0.198350
v -0.199621 0.057835 0.178110
v -0.209714 0.011232 0.188203
v -0.205587 0.057835 0.163705
v -0.219861 0.011232 0.163705
v -0.199621 0.057835 0.149300
v -0.209714 0.011232 0.139207
v -0.185216 0.057835 0.143334
v -0.185216 0.011232 0.129060
v -0.170811 0.057835 0.149300
v -0.160718 0.011232 0.139207
v -0.164845 0.057835 0.163705
v -0.150571 0.011232 0.163705
v -0.170811 0.057835 0.178110
v -0.160718 0.011232 0.188203
v -0.185216 0.046891 0.186580
v -0.185216 0.027806 0.198350
v -0.209714 0.027806 0.188203
v -0.201391 0.046891 0.179880
v -0.219861 0.027806 0.163705
v -0.208091 0.046891 0.163705
v -0.209714 0.027806 0.139207
v -0.201391 0.046891 0.147530
v -0.185216 0.027806 0.129060
v -0.185216 0.046891 0.140830
v -0.160718 0.027806 0.139207
v -0.169041 0.046891 0.147530
v -0.150571 0.027806 0.163705
v -0.162341 0.046891 0.163705
v -0.160718 0.027806 0.188203
v -0.169041 0.046891 0.179880
v -0.185216 0.000019 0.191978
v -0.205208 0.000019 0.183697
v -0.213489 0.000019 0.163705
v -0.205208 0.000019 0.143713
v -0.185216 0.000019 0.135432
v -0.165224 0.000019 0.143713
v -0.156943 0.000019 0.163705
v -0.165224 0.000019 0.183697
v -0.185216 0.057835 -0.176515
v -0.185216 0.011232 -0.162241
v -0.199621 0.057835 -0.182481
v -0.209714 0.011232 -0.172388
v -0.205587 0.057835 -0.196886
v -0.219861 0.011232 -0.196886
v -0.199621 0.057835 -0.211291
v -0.209714 0.011232 -0.221384
v -0.185216 0.057835 -0.217257
v -0.185216 0.011232 -0.231531
v -0.170811 0.057835 -0.211291
v -0.160718 0.011232 -0.221384
v -0.164845 0.057835 -0.196886
v -0.150571 0.011232 -0.196886
v -0.170811 0.057835 -0.182481
v -0.160718 0.011232 -0.172388
v -0.185216 0.046891 -0.174011
v -0.185216 0.027806 -0.162241
v -0.209714 0.027806 -0.172388
v -0.201391 0.046891 -0.180711
v -0.219861 0.027806 -0.196886
v -0.208091 0.046891 -0.196886
v -0.209714 0.027806 -0.221384
v -0.201391 0.046891 -0.213061
v -0.185216 0.027806 -0.231531
v -0.185216 0.046891 -0.219761
v -0.160718 0.027806 -0.221384
v -0.169041 0.046891 -0.213061
v -0.150571 0.027806 -0.196886
v -0.162341 0.046891 -0.196886
v -0.160718 0.027806 -0.172388
v -0.169041 0.046891 -0.180711
v -0.185216 0.000019 -0.168613
v -0.205208 0.000019 -0.176894
v -0.213489 0.000019 -0.196886
v -0.205208 0.000019 -0.216878
v -0.185216 0.000019 -0.225159
v -0.165224 0.000019 -0.216878
v -0.156943 0.000019 -0.196886
v -0.165224 0.000019 -0.176894
v 0.210705 0.515949 0.197221
v 0.210705 0.515949 -0.223076
v -0.210705 0.515949 0.197221
v -0.210705 0.515949 -0.223076
v 0.210705 0.530794 0.197221
v 0.210705 0.530794 -0.223076
v -0.210705 0.530794 0.197221
v -0.210705 0.530794 -0.223076
v 0.210705 0.266631 0.197221
v 0.210705 0.266631 -0.223076
v -0.210705 0.266631 0.197221
v -0.210705 0.266631 -0.223076
v 0.210705 0.281475 0.197221
v 0.210705 0.281475 -0.223076
v -0.210705 0.281475 0.197221
v -0.210705 0.281475 -0.223076
v -0.240000 0.052379 0.230628
v -0.224827 0.072379 0.215455
v -0.240000 0.052379 -0.249372
v -0.224827 0.072379 -0.234199
v 0.240000 0.052379 0.230628
v 0.224827 0.072379 0.215455
v 0.240000 0.052379 -0.249372
v 0.224827 0.072379 -0.234199
v -0.240000 0.064577 0.230628
v -0.240000 0.064577 -0.249372
v 0.240000 0.064577 -0.249372
v 0.240000 0.064577 0.230628
vn -1.0000 -0.0000 -0.0000
vn 1.0000 -0.0000 -0.0000
vn -0.0000 -0.0000 1.0000
vn -0.0000 -0.0000 -1.0000
vn -0.0000 -1.0000 -0.0000
vn -0.0000 1.0000 -0.0000
vn -0.4573 0.8893 -0.0000
vn -0.0000 0.8893 -0.4573
vn 0.4573 0.8893 -0.0000
vn -0.0000 0.8893 0.4573
vn -0.0000 0.2568 0.9665
vn -0.0000 -0.2413 0.9704
vn 0.6862 -0.2413 0.6862
vn 0.6834 0.2568 0.6834
vn 0.9704 -0.2413 -0.0000
vn 0.9665 0.2568 -0.0000
vn 0.6862 -0.2413 -0.6862
vn 0.6834 0.2568 -0.6834
vn -0.0000 -0.2413 -0.9704
vn -0.0000 0.2568 -0.9665
vn -0.6862 -0.2413 -0.6862
vn -0.6834 0.2568 -0.6834
vn -0.9704 -0.2413 -0.0000
vn -0.9665 0.2568 -0.0000
vn -0.4137 -0.8110 -0.4137
vn -0.5851 -0.8110 -0.0000
vn -0.6862 -0.2413 0.6862
vn -0.6834 0.2568 0.6834
vn 0.4137 -0.8110 -0.4137
vn -0.0000 -0.8110 -0.5851
vn -0.6893 0.2231 0.6893
vn -0.6500 0.3938 0.6500
vn -0.0000 0.3938 0.9192
vn -0.0000 0.2231 0.9748
vn -0.9748 0.2231 -0.0000
vn -0.9192 0.3938 -0.0000
vn -0.6893 0.2231 -0.6893
vn -0.6500 0.3938 -0.6500
vn -0.0000 0.2231 -0.9748
vn -0.0000 0.3938 -0.9192
vn 0.6893 0.2231 -0.6893
vn 0.6500 0.3938 -0.6500
vn 0.9748 0.2231 -0.0000
vn 0.9192 0.3938 -0.0000
vn 0.6893 0.2231 0.6893
vn 0.6500 0.3938 0.6500
vn -0.4137 -0.8110 0.4137
vn 0.4137 -0.8110 0.4137
vn 0.5851 -0.8110 -0.0000
vn -0.0000 -0.8110 0.5851
vt 0.770047 0.984108
vt 0.581609 0.984107
vt 0.581609 0.506417
vt 0.770047 0.506417
vt 0.788853 0.015720
vt 0.977291 0.016217
vt 0.976975 0.493907
vt 0.788537 0.493410
vt 0.792465 0.000238
vt 0.792465 0.401202
vt 0.782932 0.392362
vt 0.782933 0.000289
vt 0.782456 0.000238
vt 0.782456 0.401203
vt 0.772925 0.401152
vt 0.772924 0.009078
vt 0.785963 0.497229
vt 0.982006 0.497229
vt 0.982006 0.987392
vt 0.785916 0.987392
vt 0.577028 0.502501
vt 0.380985 0.502501
vt 0.380937 0.012338
vt 0.577028 0.012338
vt 0.581609 0.011094
vt 0.770047 0.011094
vt 0.576819 0.506617
vt 0.576819 0.995487
vt 0.380729 0.995487
vt 0.380729 0.506617
vt 0.367960 0.194195
vt 0.387319 0.194271
vt 0.387319 0.762067
vt 0.367960 0.761991
vt 0.078154 0.844329
vt 0.076984 0.811733
vt 0.360882 0.811098
vt 0.362052 0.843693
vt 0.750422 0.174394
vt 0.773076 0.174542
vt 0.772649 0.742337
vt 0.749996 0.742190
vt 0.360160 0.086948
vt 0.360096 0.118388
vt 0.076198 0.118179
vt 0.076262 0.086739
vt 0.466524 0.173541
vt 0.466098 0.741336
vt 0.353183 0.745507
vt 0.087234 0.745507
vt 0.087234 0.213608
vt 0.353183 0.213608
vt 0.073535 0.764153
vt 0.073535 0.196357
vt 0.361933 0.786273
vt 0.078035 0.786273
vt 0.367945 0.197284
vt 0.365926 0.759924
vt 0.074120 0.174838
vt 0.359220 0.182048
vt 1.000000 0.833333
vt 1.000000 1.000000
vt 0.875000 1.000000
vt 0.875000 0.833333
vt 0.750000 1.000000
vt 0.750000 0.833333
vt 0.625000 1.000000
vt 0.625000 0.833333
vt 0.500000 1.000000
vt 0.500000 0.833333
vt 0.375000 1.000000
vt 0.375000 0.833333
vt 0.250000 1.000000
vt 0.250000 0.833333
vt 0.125000 1.000000
vt 0.125000 0.833333
vt 0.000000 1.000000
vt 0.000000 0.833333
vt 0.125000 0.500000
vt 0.125000 0.666667
vt 0.000000 0.666667
vt 0.000000 0.500000
vt 0.250000 0.500000
vt 0.250000 0.666667
vt 0.375000 0.500000
vt 0.375000 0.666667
vt 0.500000 0.500000
vt 0.500000 0.666667
vt 0.625000 0.500000
vt 0.625000 0.666667
vt 0.750000 0.500000
vt 0.750000 0.666667
vt 0.875000 0.500000
vt 0.875000 0.666667
vt 1.000000 0.500000
vt 1.000000 0.666667
vt 0.906922 0.045987
vt 0.906922 0.890258
vt 0.485900 0.890258
vt 0.485900 0.045987
vt 0.485594 0.045987
vt 0.485593 0.888030
vt 0.063458 0.888030
vt 0.063458 0.045987
vt 0.468249 0.951214
vt 0.046122 0.951212
vt 0.046122 0.922514
vt 0.468249 0.922514
vt 0.492975 0.925308
vt 0.913990 0.925308
vt 0.913990 0.954007
vt 0.492975 0.954008
vt 0.921579 0.045987
vt 0.921579 0.890242
vt 0.907230 0.890242
vt 0.907228 0.045987
vt 0.049108 0.888030
vt 0.049109 0.045987
vt 0.485343 0.958058
vt 0.063216 0.958056
vt 0.063216 0.929358
vt 0.485343 0.929358
vt 0.063216 0.900045
vt 0.484231 0.900045
vt 0.484231 0.928744
vt 0.063216 0.928745
s 0
usemtl Main
f 1/1/1 2/2/1 3/3/1 4/4/1
f 5/5/2 6/6/2 7/7/2 8/8/2
f 2/9/3 1/10/3 9/11/3 10/12/3
f 8/13/3 7/14/3 11/15/3 12/16/3
f 10/17/2 9/18/2 13/19/2 14/20/2
f 12/21/1 11/22/1 15/23/1 16/24/1
f 4/4/4 3/3/4 6/25/4 5/26/4
f 13/27/3 16/28/3 15/29/3 14/30/3
f 189/97/5 191/98/5 192/99/5 190/100/5
f 193/101/6 194/102/6 196/103/6 195/104/6
f 191/105/3 189/106/3 193/107/3 195/108/3
f 189/109/2 190/110/2 194/111/2 193/112/2
f 190/113/4 192/114/4 196/115/4 194/116/4
f 192/117/1 191/118/1 195/104/1 196/103/1
f 197/97/5 199/98/5 200/99/5 198/100/5
f 201/101/6 202/102/6 204/103/6 203/104/6
f 199/119/3 197/120/3 201/121/3 203/122/3
f 197/123/2 198/124/2 202/125/2 201/126/2
f 198/113/4 200/114/4 204/115/4 202/116/4
f 200/117/1 199/118/1 203/104/1 204/103/1
usemtl Top
f 17/31/1 25/32/1 26/33/1 19/34/1
f 19/35/4 26/36/4 27/37/4 23/38/4
f 23/39/2 27/40/2 28/41/2 21/42/2
f 21/43/3 28/44/3 25/45/3 17/46/3
f 19/47/5 23/39/5 21/42/5 17/48/5
f 24/49/6 20/50/6 18/51/6 22/52/6
f 18/51/7 20/50/7 26/53/7 25/54/7
f 20/50/8 24/49/8 27/55/8 26/56/8
f 24/49/9 22/52/9 28/57/9 27/58/9
f 22/52/10 18/51/10 25/59/10 28/60/10
f 205/31/1 213/32/1 214/33/1 207/34/1
f 207/35/4 214/36/4 215/37/4 211/38/4
f 211/39/2 215/40/2 216/41/2 209/42/2
f 209/43/3 216/44/3 213/45/3 205/46/3
f 207/47/5 211/39/5 209/42/5 205/48/5
f 212/49/6 208/50/6 206/51/6 210/52/6
f 206/51/7 208/50/7 214/53/7 213/54/7
f 208/50/8 212/49/8 215/55/8 214/56/8
f 212/49/9 210/52/9 216/57/9 215/58/9
f 210/52/10 206/51/10 213/59/10 216/60/10
s 1
usemtl Handle/Feet
f 46/61/11 30/62/12 32/63/13 47/64/14
f 47/64/14 32/63/13 34/65/15 49/66/16
f 49/66/16 34/65/15 36/67/17 51/68/18
f 51/68/18 36/67/17 38/69/19 53/70/20
f 53/70/20 38/69/19 40/71/21 55/72/22
f 55/72/22 40/71/21 42/73/23 57/74/24
f 42/73/23 40/71/21 66/71/25 67/73/26
f 57/74/24 42/73/23 44/75/27 59/76/28
f 59/76/28 44/75/27 30/77/12 46/78/11
f 38/69/19 36/67/17 64/67/29 65/69/30
f 43/79/31 60/80/32 45/81/33 29/82/34
f 60/80/32 59/76/28 46/78/11 45/81/33
f 41/83/35 58/84/36 60/80/32 43/79/31
f 58/84/36 57/74/24 59/76/28 60/80/32
f 39/85/37 56/86/38 58/84/36 41/83/35
f 56/86/38 55/72/22 57/74/24 58/84/36
f 37/87/39 54/88/40 56/86/38 39/85/37
f 54/88/40 53/70/20 55/72/22 56/86/38
f 35/89/41 52/90/42 54/88/40 37/87/39
f 52/90/42 51/68/18 53/70/20 54/88/40
f 33/91/43 50/92/44 52/90/42 35/89/41
f 50/92/44 49/66/16 51/68/18 52/90/42
f 31/93/45 48/94/46 50/92/44 33/91/43
f 48/94/46 47/64/14 49/66/16 50/92/44
f 29/95/34 45/96/33 48/94/46 31/93/45
f 45/96/33 46/61/11 47/64/14 48/94/46
f 44/75/27 42/73/23 67/73/26 68/75/47
f 34/65/15 32/63/13 62/63/48 63/65/49
f 40/71/21 38/69/19 65/69/30 66/71/25
f 30/77/12 44/75/27 68/75/47 61/77/50
f 32/63/13 30/62/12 61/62/50 62/63/48
f 36/67/17 34/65/15 63/65/49 64/67/29
f 62/63/48 61/77/50 68/75/47 67/73/26 66/71/25 65/69/30 64/67/29 63/65/49
f 86/61/11 70/62/12 72/63/13 87/64/14
f 87/64/14 72/63/13 74/65/15 89/66/16
f 89/66/16 74/65/15 76/67/17 91/68/18
f 91/68/18 76/67/17 78/69/19 93/70/20
f 93/70/20 78/69/19 80/71/21 95/72/22
f 95/72/22 80/71/21 82/73/23 97/74/24
f 82/73/23 80/71/21 106/71/25 107/73/26
f 97/74/24 82/73/23 84/75/27 99/76/28
f 99/76/28 84/75/27 70/77/12 86/78/11
f 78/69/19 76/67/17 104/67/29 105/69/30
f 83/79/31 100/80/32 85/81/33 69/82/34
f 100/80/32 99/76/28 86/78/11 85/81/33
f 81/83/35 98/84/36 100/80/32 83/79/31
f 98/84/36 97/74/24 99/76/28 100/80/32
f 79/85/37 96/86/38 98/84/36 81/83/35
f 96/86/38 95/72/22 97/74/24 98/84/36
f 77/87/39 94/88/40 96/86/38 79/85/37
f 94/88/40 93/70/20 95/72/22 96/86/38
f 75/89/41 92/90/42 94/88/40 77/87/39
f 92/90/42 91/68/18 93/70/20 94/88/40
f 73/91/43 90/92/44 92/90/42 75/89/41
f 90/92/44 89/66/16 91/68/18 92/90/42
f 71/93/45 88/94/46 90/92/44 73/91/43
f 88/94/46 87/64/14 89/66/16 90/92/44
f 69/95/34 85/96/33 88/94/46 71/93/45
f 85/96/33 86/61/11 87/64/14 88/94/46
f 84/75/27 82/73/23 107/73/26 108/75/47
f 74/65/15 72/63/13 102/63/48 103/65/49
f 80/71/21 78/69/19 105/69/30 106/71/25
f 70/77/12 84/75/27 108/75/47 101/77/50
f 72/63/13 70/62/12 101/62/50 102/63/48
f 76/67/17 74/65/15 103/65/49 104/67/29
f 102/63/48 101/77/50 108/75/47 107/73/26 106/71/25 105/69/30 104/67/29 103/65/49
f 126/61/11 127/64/28 112/63/27 110/62/12
f 127/64/28 129/66/24 114/65/23 112/63/27
f 129/66/24 131/68/22 116/67/21 114/65/23
f 131/68/22 133/70/20 118/69/19 116/67/21
f 133/70/20 135/72/18 120/71/17 118/69/19
f 135/72/18 137/74/16 122/73/15 120/71/17
f 122/73/15 147/73/49 146/71/29 120/71/17
f 137/74/16 139/76/14 124/75/13 122/73/15
f 139/76/14 126/78/11 110/77/12 124/75/13
f 118/69/19 145/69/30 144/67/25 116/67/21
f 123/79/45 109/82/34 125/81/33 140/80/46
f 140/80/46 125/81/33 126/78/11 139/76/14
f 121/83/43 123/79/45 140/80/46 138/84/44
f 138/84/44 140/80/46 139/76/14 137/74/16
f 119/85/41 121/83/43 138/84/44 136/86/42
f 136/86/42 138/84/44 137/74/16 135/72/18
f 117/87/39 119/85/41 136/86/42 134/88/40
f 134/88/40 136/86/42 135/72/18 133/70/20
f 115/89/37 117/87/39 134/88/40 132/90/38
f 132/90/38 134/88/40 133/70/20 131/68/22
f 113/91/35 115/89/37 132/90/38 130/92/36
f 130/92/36 132/90/38 131/68/22 129/66/24
f 111/93/31 113/91/35 130/92/36 128/94/32
f 128/94/32 130/92/36 129/66/24 127/64/28
f 109/95/34 111/93/31 128/94/32 125/96/33
f 125/96/33 128/94/32 127/64/28 126/61/11
f 124/75/13 148/75/48 147/73/49 122/73/15
f 114/65/23 143/65/26 142/63/47 112/63/27
f 120/71/17 146/71/29 145/69/30 118/69/19
f 110/77/12 141/77/50 148/75/48 124/75/13
f 112/63/27 142/63/47 141/62/50 110/62/12
f 116/67/21 144/67/25 143/65/26 114/65/23
f 142/63/47 143/65/26 144/67/25 145/69/30 146/71/29 147/73/49 148/75/48 141/77/50
f 166/61/11 167/64/28 152/63/27 150/62/12
f 167/64/28 169/66/24 154/65/23 152/63/27
f 169/66/24 171/68/22 156/67/21 154/65/23
f 171/68/22 173/70/20 158/69/19 156/67/21
f 173/70/20 175/72/18 160/71/17 158/69/19
f 175/72/18 177/74/16 162/73/15 160/71/17
f 162/73/15 187/73/49 186/71/29 160/71/17
f 177/74/16 179/76/14 164/75/13 162/73/15
f 179/76/14 166/78/11 150/77/12 164/75/13
f 158/69/19 185/69/30 184/67/25 156/67/21
f 163/79/45 149/82/34 165/81/33 180/80/46
f 180/80/46 165/81/33 166/78/11 179/76/14
f 161/83/43 163/79/45 180/80/46 178/84/44
f 178/84/44 180/80/46 179/76/14 177/74/16
f 159/85/41 161/83/43 178/84/44 176/86/42
f 176/86/42 178/84/44 177/74/16 175/72/18
f 157/87/39 159/85/41 176/86/42 174/88/40
f 174/88/40 176/86/42 175/72/18 173/70/20
f 155/89/37 157/87/39 174/88/40 172/90/38
f 172/90/38 174/88/40 173/70/20 171/68/22
f 153/91/35 155/89/37 172/90/38 170/92/36
f 170/92/36 172/90/38 171/68/22 169/66/24
f 151/93/31 153/91/35 170/92/36 168/94/32
f 168/94/32 170/92/36 169/66/24 167/64/28
f 149/95/34 151/93/31 168/94/32 165/96/33
f 165/96/33 168/94/32 167/64/28 166/61/11
f 164/75/13 188/75/48 187/73/49 162/73/15
f 154/65/23 183/65/26 182/63/47 152/63/27
f 160/71/17 186/71/29 185/69/30 158/69/19
f 150/77/12 181/77/50 188/75/48 164/75/13
f 152/63/27 182/63/47 181/62/50 150/62/12
f 156/67/21 184/67/25 183/65/26 154/65/23
f 182/63/47 183/65/26 184/67/25 185/69/30 186/71/29 187/73/49 188/75/48 181/77/50
