# Blender 3.6.5
# www.blender.org
mtllib door.mtl
o Cube.002
v -0.168253 0.127516 0.221847
v -0.168253 0.713970 0.221847
v -0.168253 0.127516 0.202548
v -0.168253 0.713970 0.202548
v 0.168253 0.127516 0.221847
v 0.168253 0.713970 0.221847
v 0.168253 0.127516 0.202548
v 0.168253 0.713970 0.202548
v -0.221943 0.070743 0.221847
v -0.221943 0.770743 0.221847
v -0.221943 0.770743 0.202548
v -0.221943 0.070743 0.202548
v 0.221943 0.070743 0.202548
v 0.221943 0.770743 0.202548
v 0.221943 0.770743 0.221847
v 0.221943 0.070743 0.221847
v -0.171297 0.122211 0.222155
v -0.171297 0.719275 0.222155
v 0.171297 0.122211 0.222155
v 0.171297 0.719275 0.222155
vn -1.0000 -0.0000 -0.0000
vn 1.0000 -0.0000 -0.0000
vn -0.0000 -1.0000 -0.0000
vn -0.0000 1.0000 -0.0000
vn -0.0000 -0.0000 1.0000
vn -0.0000 -0.0000 -1.0000
vt 0.974947 0.088943
vt 0.202939 0.088943
vt 0.202939 0.066886
vt 0.974947 0.066886
vt 0.276125 0.348146
vt 0.276125 0.329354
vt 0.879138 0.329353
vt 0.879138 0.348146
vt 0.217749 0.258282
vt 0.937514 0.258281
vt 0.937514 0.277074
vt 0.217749 0.277074
vt 0.912333 0.150306
vt 0.912333 0.172364
vt 0.265553 0.172364
vt 0.265553 0.150306
vt 0.718090 0.291643
vt 0.178025 0.291644
vt 0.178025 0.268162
vt 0.718090 0.268163
vt 0.718090 0.472194
vt 0.178025 0.472194
vt 0.178026 0.448713
vt 0.718090 0.448714
vt 0.265553 0.005523
vt 0.912334 0.005523
vt 0.652767 0.358298
vt 0.243349 0.358299
vt 0.652767 0.538849
vt 0.243349 0.538849
vt 0.276126 0.206002
vt 0.879138 0.206002
vt 0.243348 0.201508
vt 0.652767 0.201508
vt 0.243349 0.382058
vt 0.652767 0.382059
vt 0.243349 0.178025
vt 0.652767 0.178027
vt 0.243349 0.358576
vt 0.652767 0.358578
vt 0.000000 0.000000
s 0
usemtl Door
f 9/1/1 10/2/1 11/3/1 12/4/1
f 7/5/1 5/6/1 6/7/1 8/8/1
f 13/9/2 14/10/2 15/11/2 16/12/2
f 1/13/2 3/14/2 4/15/2 2/16/2
f 12/17/3 13/18/3 16/19/3 9/20/3
f 14/21/4 11/22/4 10/23/4 15/24/4
f 1/13/5 2/16/5 10/2/5 9/1/5
f 4/25/6 3/26/6 12/4/6 11/3/6
f 3/27/6 7/28/6 13/18/6 12/17/6
f 8/29/6 4/30/6 11/22/6 14/21/6
f 7/31/6 8/32/6 14/10/6 13/9/6
f 6/7/5 5/6/5 16/12/5 15/11/5
f 5/33/5 1/34/5 9/20/5 16/19/5
f 2/35/5 6/36/5 15/24/5 10/23/5
f 7/37/4 3/38/4 1/34/4 5/33/4
f 4/39/3 8/40/3 6/36/3 2/35/3
f 17/41/5 19/41/5 20/41/5 18/41/5
