# Blender 3.6.5
# www.blender.org
mtllib handle.mtl
o Cylinder
v -0.193962 0.457772 0.221806
v -0.193962 0.466013 0.248709
v -0.185647 0.454328 0.221806
v -0.179820 0.460155 0.248709
v -0.182202 0.446013 0.221806
v -0.173962 0.446013 0.248709
v -0.185647 0.437697 0.221806
v -0.179820 0.431870 0.248709
v -0.193962 0.434253 0.221806
v -0.193962 0.426013 0.248709
v -0.202278 0.437697 0.221806
v -0.208104 0.431870 0.248709
v -0.205722 0.446013 0.221806
v -0.213962 0.446013 0.248709
v -0.202278 0.454328 0.221806
v -0.208104 0.460155 0.248709
v -0.193962 0.457772 0.228124
v -0.193962 0.466013 0.239141
v -0.179820 0.460155 0.239141
v -0.185647 0.454328 0.228124
v -0.173962 0.446013 0.239141
v -0.182202 0.446013 0.228124
v -0.179820 0.431870 0.239141
v -0.185647 0.437697 0.228124
v -0.193962 0.426013 0.239141
v -0.193962 0.434253 0.228124
v -0.208104 0.431870 0.239141
v -0.202278 0.437697 0.228124
v -0.213962 0.446013 0.239141
v -0.205722 0.446013 0.228124
v -0.208104 0.460155 0.239141
v -0.202278 0.454328 0.228124
v -0.193962 0.460092 0.255182
v -0.184007 0.455968 0.255182
v -0.179883 0.446013 0.255182
v -0.184007 0.436057 0.255182
v -0.193962 0.431933 0.255182
v -0.203918 0.436057 0.255182
v -0.208042 0.446013 0.255182
v -0.203918 0.455968 0.255182
vn -0.0000 0.9556 -0.2947
vn -0.0000 0.9421 0.3352
vn 0.6662 0.6662 0.3352
vn 0.6757 0.6757 -0.2947
vn 0.9421 -0.0000 0.3352
vn 0.9556 -0.0000 -0.2947
vn 0.6662 -0.6662 0.3352
vn 0.6757 -0.6757 -0.2947
vn -0.0000 -0.9421 0.3352
vn -0.0000 -0.9556 -0.2947
vn -0.6662 -0.6662 0.3352
vn -0.6757 -0.6757 -0.2947
vn -0.9421 -0.0000 0.3352
vn -0.9556 -0.0000 -0.2947
vn -0.3397 -0.3397 0.8771
vn -0.4803 -0.0000 0.8771
vn -0.6662 0.6662 0.3352
vn -0.6757 0.6757 -0.2947
vn 0.3397 -0.3397 0.8771
vn -0.0000 -0.4803 0.8771
vn -0.7071 0.7071 -0.0000
vn -0.6646 0.6646 -0.3413
vn -0.0000 0.9399 -0.3413
vn -0.0000 1.0000 -0.0000
vn -1.0000 -0.0000 -0.0000
vn -0.9399 -0.0000 -0.3413
vn -0.7071 -0.7071 -0.0000
vn -0.6646 -0.6646 -0.3413
vn -0.0000 -1.0000 -0.0000
vn -0.0000 -0.9399 -0.3413
vn 0.7071 -0.7071 -0.0000
vn 0.6646 -0.6646 -0.3413
vn 1.0000 -0.0000 -0.0000
vn 0.9399 -0.0000 -0.3413
vn 0.7071 0.7071 -0.0000
vn 0.6646 0.6646 -0.3413
vn -0.3397 0.3397 0.8771
vn 0.3397 0.3397 0.8771
vn 0.4803 -0.0000 0.8771
vn -0.0000 0.4803 0.8771
vt 1.000000 0.833333
vt 1.000000 1.000000
vt 0.875000 1.000000
vt 0.875000 0.833333
vt 0.750000 1.000000
vt 0.750000 0.833333
vt 0.625000 1.000000
vt 0.625000 0.833333
vt 0.500000 1.000000
vt 0.500000 0.833333
vt 0.375000 1.000000
vt 0.375000 0.833333
vt 0.250000 1.000000
vt 0.250000 0.833333
vt 0.125000 1.000000
vt 0.125000 0.833333
vt 0.000000 1.000000
vt 0.000000 0.833333
vt 0.125000 0.500000
vt 0.125000 0.666667
vt 0.000000 0.666667
vt 0.000000 0.500000
vt 0.250000 0.500000
vt 0.250000 0.666667
vt 0.375000 0.500000
vt 0.375000 0.666667
vt 0.500000 0.500000
vt 0.500000 0.666667
vt 0.625000 0.500000
vt 0.625000 0.666667
vt 0.750000 0.500000
vt 0.750000 0.666667
vt 0.875000 0.500000
vt 0.875000 0.666667
vt 1.000000 0.500000
vt 1.000000 0.666667
s 1
usemtl Handle/Feet
f 18/1/1 2/2/2 4/3/3 19/4/4
f 19/4/4 4/3/3 6/5/5 21/6/6
f 21/6/6 6/5/5 8/7/7 23/8/8
f 23/8/8 8/7/7 10/9/9 25/10/10
f 25/10/10 10/9/9 12/11/11 27/12/12
f 27/12/12 12/11/11 14/13/13 29/14/14
f 14/13/13 12/11/11 38/11/15 39/13/16
f 29/14/14 14/13/13 16/15/17 31/16/18
f 31/16/18 16/15/17 2/17/2 18/18/1
f 10/9/9 8/7/7 36/7/19 37/9/20
f 15/19/21 32/20/22 17/21/23 1/22/24
f 32/20/22 31/16/18 18/18/1 17/21/23
f 13/23/25 30/24/26 32/20/22 15/19/21
f 30/24/26 29/14/14 31/16/18 32/20/22
f 11/25/27 28/26/28 30/24/26 13/23/25
f 28/26/28 27/12/12 29/14/14 30/24/26
f 9/27/29 26/28/30 28/26/28 11/25/27
f 26/28/30 25/10/10 27/12/12 28/26/28
f 7/29/31 24/30/32 26/28/30 9/27/29
f 24/30/32 23/8/8 25/10/10 26/28/30
f 5/31/33 22/32/34 24/30/32 7/29/31
f 22/32/34 21/6/6 23/8/8 24/30/32
f 3/33/35 20/34/36 22/32/34 5/31/33
f 20/34/36 19/4/4 21/6/6 22/32/34
f 1/35/24 17/36/23 20/34/36 3/33/35
f 17/36/23 18/1/1 19/4/4 20/34/36
f 16/15/17 14/13/13 39/13/16 40/15/37
f 6/5/5 4/3/3 34/3/38 35/5/39
f 12/11/11 10/9/9 37/9/20 38/11/15
f 2/17/2 16/15/17 40/15/37 33/17/40
f 4/3/3 2/2/2 33/2/40 34/3/38
f 8/7/7 6/5/5 35/5/39 36/7/19
f 34/3/38 33/17/40 40/15/37 39/13/16 38/11/15 37/9/20 36/7/19 35/5/39
