# https://github.com/mikedh/trimesh
v 0.34266979 0.08698815 -0.00818288
v 0.34266979 0.09828135 0.00127351
v 0.34266979 0.08853298 -0.03061645
v 0.44933277 0.00788251 -0.00476026
v 0.34266979 0.10691106 0.00814493
v 0.34266979 0.10829607 -0.04503990
v 0.36547774 0.09151608 -0.04433313
v 0.42459977 0.04952173 -0.04261200
v 0.45218185 0.01146933 -0.02545961
v 0.45441490 0.00839745 -0.00588586
v 0.46049803 0.02191021 0.00898259
v 0.34266979 0.11866593 0.01057938
v 0.34266979 0.12473869 -0.05020329
v 0.37340891 0.11032033 -0.05182625
v 0.46193027 0.02368587 -0.04015792
v 0.43644267 0.06530735 -0.04949651
v 0.45707917 0.01177119 -0.02472666
v 0.46688920 0.01873179 -0.02267178
v 0.46517974 0.01658323 -0.01063042
v 0.47174031 0.02480454 -0.00267920
v 0.46467155 0.02127098 0.00655469
v 0.47289535 0.03746500 0.01128616
v 0.34266979 0.13404314 0.01252301
v 0.34266979 0.13588983 -0.05370444
v 0.46599597 0.02294010 -0.03808995
v 0.47539020 0.04055465 -0.04700971
v 0.34266979 0.16080233 -0.05433269
v 0.47258735 0.02586994 -0.03121198
v 0.48572385 0.04233031 -0.01661838
v 0.47894770 0.03386041 -0.00141617
v 0.47596002 0.03544074 0.00853759
v 0.48612428 0.04284525 -0.00782950
v 0.48521563 0.05293100 0.00037041
v 0.34266979 0.16357237 0.00558615
v 0.47828546 0.03835283 -0.04432004
v 0.48872691 0.05728136 -0.04511189
v 0.49045175 0.05362350 -0.04261854
v 0.34266979 0.16598727 -0.05406438
v 0.48044151 0.03572485 -0.03518432
v 0.48821872 0.04547323 -0.03410452
v 0.49431726 0.05312632 -0.02564285
v 0.49331623 0.05186560 -0.01414466
v 0.49842918 0.06363823 -0.01138955
v 0.49748975 0.06832597 -0.01057807
v 0.34266979 0.18928392 -0.00868679
v 0.49907598 0.07020817 -0.03038741
v 0.50000000 0.06559145 -0.02937960
v 0.34266979 0.18299809 -0.03424195
v 0.34266979 0.18363732 -0.03349591
f 1 2 5
f 1 5 12
f 1 12 23
f 1 23 34
f 1 34 45
f 1 45 49
f 1 49 48
f 1 48 38
f 1 38 27
f 1 27 24
f 1 24 13
f 1 13 6
f 1 6 3
f 1 3 4
f 1 4 2
f 2 4 5
f 3 6 7
f 3 7 8
f 3 8 9
f 3 9 4
f 4 9 10
f 4 10 11
f 4 11 5
f 5 11 12
f 6 13 14
f 6 14 7
f 7 14 8
f 8 15 9
f 8 14 16
f 8 16 15
f 9 15 17
f 9 17 10
f 10 17 18
f 10 18 19
f 10 19 20
f 10 20 21
f 10 21 11
f 11 21 22
f 11 22 23
f 11 23 12
f 13 24 14
f 14 24 16
f 15 25 17
f 15 16 26
f 15 26 25
f 16 24 27
f 16 27 26
f 17 25 18
f 18 25 28
f 18 28 19
f 19 28 29
f 19 29 20
f 20 30 31
f 20 31 21
f 20 29 32
f 20 32 30
f 21 31 22
f 22 31 33
f 22 33 34
f 22 34 23
f 25 26 35
f 25 35 28
f 26 36 37
f 26 37 35
f 26 27 36
f 27 38 36
f 28 35 39
f 28 39 40
f 28 40 29
f 29 40 41
f 29 41 42
f 29 42 32
f 30 32 42
f 30 42 31
f 31 42 43
f 31 43 33
f 33 43 44
f 33 44 34
f 34 44 45
f 35 37 40
f 35 40 39
f 36 38 46
f 36 46 47
f 36 47 37
f 37 47 40
f 38 48 46
f 40 47 41
f 41 47 42
f 42 47 43
f 43 47 44
f 44 47 46
f 44 46 45
f 45 46 49
f 46 48 49

