# https://github.com/mikedh/trimesh
v -0.00902507 0.26788673 0.09826063
v 0.12524435 0.26949590 0.08866523
v 0.05117011 0.27621526 0.09494515
v 0.04484830 0.33738530 0.07378455
v -0.00902507 0.28987142 0.09061552
v -0.00902507 0.20425946 0.08519372
v 0.12524435 0.20799968 0.07672948
v 0.12524435 0.31509617 0.07347251
v 0.12524435 0.32962215 0.06830426
v 0.12524435 0.36019629 0.03345266
v 0.04049795 0.37961501 0.02403278
v -0.00902507 0.35067177 0.05227291
v -0.00902507 0.33020929 0.07614440
v -0.00902507 0.15870267 0.03924501
v -0.00902507 0.15746319 0.03797732
v 0.12524435 0.16322574 0.03035171
v 0.12524435 0.37141696 0.02001519
v -0.00902507 0.37302613 0.02555400
v 0.12524435 0.36628503 -0.02628458
v 0.04141796 0.37076461 -0.03941000
v -0.00902507 0.36830735 -0.00785438
v -0.00902507 0.15826777 -0.02622607
v 0.12524435 0.16233417 -0.03110178
v 0.12524435 0.36406699 -0.04227692
v -0.00902507 0.36380604 -0.03837634
v 0.04530831 0.33292747 -0.09058548
v -0.00902507 0.32572973 -0.08984437
v -0.00902507 0.19240817 -0.07069257
v -0.00902507 0.19819248 -0.07798664
v 0.12524435 0.20228063 -0.07903979
v 0.12524435 0.32605588 -0.09212621
v 0.05194555 0.26869133 -0.10098050
v -0.00902507 0.26025409 -0.10066845
v -0.00902507 0.24224882 -0.09431052
v 0.12524435 0.20582514 -0.08032697
v 0.12524435 0.26260260 -0.09936176
f 1 2 3
f 1 3 4
f 1 4 5
f 1 5 13
f 1 13 12
f 1 12 18
f 1 18 21
f 1 21 25
f 1 25 27
f 1 27 33
f 1 33 34
f 1 34 29
f 1 29 28
f 1 28 22
f 1 22 15
f 1 15 14
f 1 14 6
f 1 6 7
f 1 7 2
f 2 8 3
f 2 7 16
f 2 16 23
f 2 23 30
f 2 30 35
f 2 35 36
f 2 36 31
f 2 31 24
f 2 24 19
f 2 19 17
f 2 17 10
f 2 10 9
f 2 9 8
f 3 8 9
f 3 9 4
f 4 10 11
f 4 11 12
f 4 12 13
f 4 13 5
f 4 9 10
f 6 14 7
f 7 14 15
f 7 15 16
f 10 17 11
f 11 18 12
f 11 17 19
f 11 19 20
f 11 20 21
f 11 21 18
f 15 22 23
f 15 23 16
f 19 24 20
f 20 25 21
f 20 24 26
f 20 26 27
f 20 27 25
f 22 28 23
f 23 28 29
f 23 29 30
f 24 31 26
f 26 31 32
f 26 32 33
f 26 33 27
f 29 34 30
f 30 34 35
f 31 36 32
f 32 36 33
f 33 36 35
f 33 35 34

