# https://github.com/mikedh/trimesh
v -0.47595441 -0.04986621 0.02864970
v -0.46639606 -0.04986621 -0.03447274
v -0.45216134 -0.04986621 0.05731113
v -0.45365164 0.02480632 0.02453259
v -0.42777732 -0.04986621 -0.08261128
v -0.44334817 0.02088704 -0.03942120
v -0.43499744 -0.04986621 0.07548185
v -0.41421065 0.00978243 0.07261175
v -0.39226758 0.13867162 0.02336476
v -0.40781271 0.00737585 -0.08736180
v -0.34848425 -0.01521157 -0.09805045
v -0.38879883 -0.04986621 -0.08989540
v -0.38265786 0.13165818 -0.04140058
v -0.35159329 0.10900201 -0.09062777
v -0.37148076 -0.04986621 0.09527566
v -0.35750300 -0.01177360 0.09420680
v -0.30709049 0.07644451 0.09476101
v -0.35678354 0.11278377 0.07203773
v -0.26135436 0.21918869 0.07805504
v -0.28681755 0.25518417 0.02684847
v -0.28003424 0.24559224 -0.03936182
v -0.36158842 -0.04986621 -0.09484385
v -0.29925367 0.07073749 -0.10107890
v -0.21348561 0.16290925 -0.10200921
v -0.25719187 0.21334416 -0.09015273
v -0.21888144 0.15923063 -0.10202901
v -0.34910092 -0.04986621 0.09141587
v -0.21348561 0.17463270 0.10018452
v -0.22458561 0.16727546 0.09990740
v -0.21348561 0.25016472 0.07886659
v -0.21348561 0.30132160 0.02760063
v -0.21348561 0.29399875 -0.01448100
v -0.21348561 0.28891057 -0.03860965
v -0.21348561 0.26429474 -0.06640016
v -0.21348561 0.24246369 -0.08985582
v -0.30965993 -0.04986621 -0.07744510
v -0.21348561 0.21523502 -0.09417087
v -0.21348561 0.07472552 -0.07772221
v -0.29825160 -0.04986621 -0.07354572
v -0.30616549 -0.04986621 0.08385463
v -0.21348561 0.08576138 0.08541834
v -0.21348561 0.05131301 -0.05630532
v -0.25819394 -0.04986621 -0.02348718
v -0.25562450 -0.04986621 0.03821011
v -0.21348561 0.01593637 0.03769547
v -0.21348561 0.01841171 -0.02546656
v -0.25806546 -0.04986621 -0.02330904
f 1 2 5
f 1 5 12
f 1 12 22
f 1 22 36
f 1 36 39
f 1 39 43
f 1 43 47
f 1 47 44
f 1 44 40
f 1 40 27
f 1 27 15
f 1 15 7
f 1 7 3
f 1 3 4
f 1 4 2
f 2 4 6
f 2 6 5
f 3 7 8
f 3 8 4
f 4 9 6
f 4 8 9
f 5 6 10
f 5 10 11
f 5 11 12
f 6 9 13
f 6 13 14
f 6 14 10
f 7 15 16
f 7 16 8
f 8 16 17
f 8 17 18
f 8 18 9
f 9 18 19
f 9 19 20
f 9 20 21
f 9 21 13
f 10 14 11
f 11 22 12
f 11 14 23
f 11 23 24
f 11 24 22
f 13 21 25
f 13 25 14
f 14 25 26
f 14 26 23
f 15 27 28
f 15 28 29
f 15 29 17
f 15 17 16
f 17 29 19
f 17 19 18
f 19 29 28
f 19 28 30
f 19 30 20
f 20 30 31
f 20 31 32
f 20 32 33
f 20 33 21
f 21 33 34
f 21 34 35
f 21 35 25
f 22 24 36
f 23 26 24
f 24 26 25
f 24 25 37
f 24 37 35
f 24 35 34
f 24 34 33
f 24 33 32
f 24 32 31
f 24 31 30
f 24 30 28
f 24 28 41
f 24 41 45
f 24 45 46
f 24 46 42
f 24 42 38
f 24 38 39
f 24 39 36
f 25 35 37
f 27 40 28
f 28 40 41
f 38 42 43
f 38 43 39
f 40 44 41
f 41 44 45
f 42 46 47
f 42 47 43
f 44 47 46
f 44 46 45

