# https://github.com/mikedh/trimesh
v -0.09218986 0.24309589 0.10105857
v -0.09218986 0.19137590 0.09117666
v -0.00902507 0.26786357 0.09824648
v -0.03864886 0.26376426 0.09987036
v -0.09218986 0.27829593 0.08937455
v -0.09218986 0.17416862 0.08773087
v -0.00902507 0.28988200 0.09062216
v -0.00902507 0.20426294 0.08519603
v -0.05439286 0.32417381 0.07814602
v -0.09218986 0.31015763 0.07874012
v -0.09218986 0.12227678 0.04024228
v -0.00902507 0.33021232 0.07614587
v -0.00902507 0.15870416 0.03923231
v -0.00902507 0.35068431 0.05226295
v -0.00902507 0.37304640 0.02554815
v -0.06518736 0.36558419 0.02729085
v -0.09218986 0.34248570 0.04242066
v -0.09218986 0.12384778 -0.02516839
v -0.00902507 0.15828687 -0.02621797
v -0.00902507 0.15747683 0.03798470
v -0.00902507 0.36830887 -0.00784040
v -0.00902507 0.36381680 -0.03837726
v -0.06279401 0.35640371 -0.03724847
v -0.09218986 0.35571638 0.02746908
v -0.09218986 0.16022606 -0.06974587
v -0.00902507 0.19819988 -0.07798409
v -0.00902507 0.19240686 -0.07069643
v -0.00902507 0.32572025 -0.08984633
v -0.05326945 0.31985357 -0.08921262
v -0.09218986 0.34552950 -0.03748611
v -0.09218986 0.34827873 -0.02019773
v -0.09218986 0.31865078 -0.07239953
v -0.09218986 0.16707461 -0.07804350
v -0.00902507 0.24226131 -0.09430210
v -0.00902507 0.26022953 -0.10067879
v -0.03672767 0.25637570 -0.10054018
v -0.09218986 0.23445544 -0.10121349
v -0.09218986 0.30495369 -0.08931164
v -0.09218986 0.21086600 -0.09317330
f 1 2 3
f 1 3 4
f 1 4 5
f 1 5 10
f 1 10 17
f 1 17 24
f 1 24 31
f 1 31 30
f 1 30 32
f 1 32 38
f 1 38 37
f 1 37 39
f 1 39 33
f 1 33 25
f 1 25 18
f 1 18 11
f 1 11 6
f 1 6 2
f 2 6 3
f 3 7 4
f 3 6 8
f 3 8 13
f 3 13 20
f 3 20 19
f 3 19 27
f 3 27 26
f 3 26 34
f 3 34 35
f 3 35 28
f 3 28 22
f 3 22 21
f 3 21 15
f 3 15 14
f 3 14 12
f 3 12 7
f 4 7 9
f 4 9 5
f 5 9 10
f 6 11 8
f 7 12 9
f 8 11 13
f 9 12 14
f 9 14 15
f 9 15 16
f 9 16 17
f 9 17 10
f 11 18 19
f 11 19 20
f 11 20 13
f 15 21 16
f 16 21 22
f 16 22 23
f 16 23 24
f 16 24 17
f 18 25 26
f 18 26 27
f 18 27 19
f 22 28 29
f 22 29 23
f 23 30 31
f 23 31 24
f 23 29 32
f 23 32 30
f 25 33 26
f 26 33 34
f 28 35 36
f 28 36 29
f 29 36 37
f 29 37 38
f 29 38 32
f 33 39 35
f 33 35 34
f 35 39 37
f 35 37 36

