# https://github.com/mikedh/trimesh
v 0.12524435 0.16234604 -0.03111572
v 0.34266979 0.08852978 -0.03060037
v 0.34266979 0.08697048 -0.00816387
v 0.12524435 0.16234604 -0.02997457
v 0.12524435 0.20227531 -0.07904405
v 0.34266979 0.10832735 -0.04503040
v 0.12524435 0.16320921 0.03034076
v 0.34266979 0.09827542 0.00125983
v 0.12524435 0.20801130 0.07674143
v 0.12524435 0.20583943 -0.08031405
v 0.19692494 0.18520652 -0.07716668
v 0.34266979 0.12475571 -0.05020239
v 0.25419703 0.16816556 -0.06997006
v 0.26492360 0.21497248 -0.08509952
v 0.34266979 0.10693511 0.00814354
v 0.19775496 0.18918830 0.06518268
v 0.13069275 0.20753795 0.07631810
v 0.12524435 0.26949236 0.08866829
v 0.12524435 0.26255903 -0.09936390
v 0.20841767 0.24086803 -0.09417351
v 0.34266979 0.13592142 -0.05369946
v 0.27605450 0.26345006 -0.08290924
v 0.34266979 0.11868557 0.01057309
v 0.25438860 0.16902876 0.04911454
v 0.20935410 0.24549025 0.07379653
v 0.13978052 0.26818365 0.08741671
v 0.14863418 0.32738146 0.06669194
v 0.12524435 0.31510195 0.07348362
v 0.13875896 0.26144525 -0.09905101
v 0.12524435 0.32604492 -0.09213047
v 0.14814468 0.32406795 -0.09257221
v 0.22037862 0.29892418 -0.09152309
v 0.34266979 0.16084242 -0.05432526
v 0.28324813 0.29477534 -0.04471751
v 0.32264262 0.23485358 -0.03796263
v 0.31429976 0.21438774 -0.06592082
v 0.34266979 0.16599369 -0.05406758
v 0.34266979 0.13405584 0.01250568
v 0.26558337 0.21781263 0.05470986
v 0.27618220 0.26397911 0.03829201
v 0.22052760 0.29967600 0.05288770
v 0.22904073 0.34094182 0.01125410
v 0.15480620 0.36856374 0.01861636
v 0.12524435 0.32963687 0.06829323
v 0.12524435 0.36408073 -0.04226955
v 0.15380591 0.36179748 -0.04324505
v 0.22784889 0.33515012 -0.04631880
v 0.28443995 0.30003798 0.00422314
v 0.32462195 0.23972639 -0.00297347
v 0.34266979 0.18367505 -0.03349005
v 0.34266979 0.16359904 0.00558516
v 0.31415078 0.21402575 0.01961027
v 0.12524435 0.37143174 0.02001519
v 0.12524435 0.36018246 0.03345132
v 0.12524435 0.36628047 -0.02629344
v 0.34266979 0.18929967 -0.00867923
f 1 2 3
f 1 3 4
f 1 4 7
f 1 7 9
f 1 9 18
f 1 18 28
f 1 28 44
f 1 44 54
f 1 54 53
f 1 53 55
f 1 55 45
f 1 45 30
f 1 30 19
f 1 19 10
f 1 10 5
f 1 5 2
f 2 6 12
f 2 12 21
f 2 21 33
f 2 33 37
f 2 37 50
f 2 50 56
f 2 56 51
f 2 51 38
f 2 38 23
f 2 23 15
f 2 15 8
f 2 8 3
f 2 5 6
f 3 7 4
f 3 8 9
f 3 9 7
f 5 10 11
f 5 11 6
f 6 11 13
f 6 13 14
f 6 14 12
f 8 15 9
f 9 16 17
f 9 17 18
f 9 15 16
f 10 19 11
f 11 19 20
f 11 20 14
f 11 14 13
f 12 14 21
f 14 20 22
f 14 22 21
f 15 23 24
f 15 24 16
f 16 25 26
f 16 26 17
f 16 24 25
f 17 26 18
f 18 26 27
f 18 27 28
f 19 29 20
f 19 30 31
f 19 31 29
f 20 29 32
f 20 32 22
f 21 22 33
f 22 32 34
f 22 34 35
f 22 35 36
f 22 36 37
f 22 37 33
f 23 38 39
f 23 39 24
f 24 39 25
f 25 39 40
f 25 40 41
f 25 41 27
f 25 27 26
f 27 42 43
f 27 43 44
f 27 44 28
f 27 41 42
f 29 31 32
f 30 45 46
f 30 46 31
f 31 46 47
f 31 47 32
f 32 47 34
f 34 47 48
f 34 48 49
f 34 49 35
f 35 49 50
f 35 50 37
f 35 37 36
f 38 51 52
f 38 52 39
f 39 52 40
f 40 48 41
f 40 52 49
f 40 49 48
f 41 48 42
f 42 48 47
f 42 47 43
f 43 46 53
f 43 53 54
f 43 54 44
f 43 47 46
f 45 55 46
f 46 55 53
f 49 56 50
f 49 52 51
f 49 51 56

