# https://github.com/mikedh/trimesh
v -0.50000000 -0.18477497 0.03654985
v -0.49430639 -0.18545271 -0.02276103
v -0.49138781 -0.26862365 -0.01084556
v -0.49313417 -0.26855910 0.03932886
v -0.46696270 -0.18864788 0.08105205
v -0.48779941 -0.08966254 0.03083956
v -0.46251303 -0.18916427 -0.06766295
v -0.47983313 -0.09114716 -0.03161198
v -0.46437901 -0.26991460 -0.04851444
v -0.45184350 -0.33071941 -0.02196159
v -0.46813488 -0.33100989 0.00678020
v -0.46418762 -0.26991460 0.07406646
v -0.46679521 -0.33097762 0.04248855
v -0.41112697 -0.19516729 0.09961049
v -0.45124543 -0.09650470 0.07774009
v -0.45217842 -0.04990058 0.05729724
v -0.47593370 -0.04990058 0.02865062
v -0.44445136 -0.09776340 -0.07864574
v -0.38392681 -0.10909168 -0.08936206
v -0.40442860 -0.19594187 -0.07653293
v -0.46638852 -0.04990058 -0.03448616
v -0.41454792 -0.27223837 -0.05313978
v -0.43268138 -0.37012637 -0.00288922
v -0.44679579 -0.37254694 0.01997098
v -0.44624558 -0.33062261 0.06774707
v -0.42856666 -0.36931950 0.07048801
v -0.41619861 -0.27217382 0.08877997
v -0.44315952 -0.37199828 0.04791333
v -0.35555443 -0.20168670 0.08820894
v -0.30615395 -0.04990058 0.08386913
v -0.34911919 -0.04990058 0.09142575
v -0.37151089 -0.04990058 0.09527068
v -0.39261076 -0.10747797 0.09686956
v -0.40139040 -0.36444610 0.07522756
v -0.43500188 -0.04990058 0.07549404
v -0.42777720 -0.04990058 -0.08260487
v -0.38880706 -0.04990058 -0.08989501
v -0.36160687 -0.04990058 -0.09484394
v -0.30967057 -0.04990058 -0.07744658
v -0.29823551 -0.04990058 -0.07354455
v -0.32675144 -0.11980676 -0.06730130
v -0.34993258 -0.20233218 -0.05481480
v -0.36806601 -0.27443302 -0.03530464
v -0.40548122 -0.36499476 -0.00420259
v -0.40366307 -0.37174010 0.00253556
v -0.42696384 -0.37593573 0.00394409
v -0.43918836 -0.37813038 0.02335908
v -0.40026605 -0.37112689 0.07088773
v -0.42342326 -0.37529027 0.06664309
v -0.43581524 -0.37751719 0.04707582
v -0.37720451 -0.36005676 0.07008830
v -0.25560516 -0.04990058 0.03820584
v -0.25818881 -0.04990058 -0.02348434
v -0.33629662 -0.27591765 0.00116509
v -0.36110449 -0.35715210 0.02432983
v -0.37952501 -0.36025041 0.00615207
v -0.40328032 -0.37474161 0.01070127
v -0.38167807 -0.36777034 0.01144361
v -0.42100707 -0.37793675 0.01178623
v -0.43033695 -0.37961501 0.02657588
v -0.37981209 -0.36744761 0.06605302
v -0.41832772 -0.37745264 0.05956232
v -0.40067273 -0.37425748 0.06279816
v -0.42775330 -0.37913090 0.04465846
v -0.35631996 -0.35640979 0.05139661
v -0.25806922 -0.04990058 -0.02331303
v -0.36655888 -0.36505932 0.02714691
v -0.38651046 -0.37170780 0.01751555
v -0.37500361 -0.36964226 0.02946909
v -0.40201241 -0.37451565 0.03689247
v -0.36285087 -0.36438155 0.04991193
v -0.38509902 -0.37144962 0.05912453
v -0.37218073 -0.36912584 0.04680934
v -0.39612740 -0.37345064 0.04463943
f 1 2 3
f 1 3 4
f 1 4 5
f 1 5 6
f 1 6 2
f 2 7 3
f 2 6 8
f 2 8 7
f 3 9 10
f 3 10 11
f 3 11 4
f 3 7 9
f 4 12 5
f 4 11 13
f 4 13 12
f 5 12 14
f 5 14 15
f 5 15 6
f 6 15 16
f 6 16 17
f 6 17 8
f 7 8 18
f 7 18 19
f 7 19 20
f 7 20 9
f 8 17 21
f 8 21 18
f 9 20 22
f 9 22 10
f 10 23 24
f 10 24 11
f 10 22 23
f 11 24 13
f 12 13 25
f 12 25 26
f 12 26 27
f 12 27 14
f 13 24 28
f 13 28 26
f 13 26 25
f 14 29 30
f 14 30 31
f 14 31 32
f 14 32 33
f 14 33 15
f 14 27 34
f 14 34 29
f 15 32 35
f 15 35 16
f 15 33 32
f 16 35 32
f 16 32 31
f 16 31 30
f 16 30 52
f 16 52 66
f 16 66 53
f 16 53 40
f 16 40 39
f 16 39 38
f 16 38 37
f 16 37 36
f 16 36 21
f 16 21 17
f 18 21 36
f 18 36 37
f 18 37 38
f 18 38 19
f 19 38 39
f 19 39 40
f 19 40 20
f 20 40 41
f 20 41 42
f 20 42 22
f 22 43 44
f 22 44 23
f 22 42 43
f 23 44 45
f 23 45 46
f 23 46 47
f 23 47 24
f 24 47 28
f 26 48 34
f 26 34 27
f 26 28 49
f 26 49 48
f 28 47 50
f 28 50 49
f 29 34 51
f 29 51 30
f 30 51 52
f 34 48 51
f 40 53 54
f 40 54 42
f 40 42 41
f 42 54 43
f 43 54 55
f 43 55 56
f 43 56 44
f 44 56 45
f 45 57 46
f 45 56 58
f 45 58 57
f 46 57 59
f 46 59 60
f 46 60 47
f 47 60 50
f 48 61 51
f 48 49 62
f 48 62 63
f 48 63 61
f 49 50 62
f 50 60 64
f 50 64 62
f 51 61 65
f 51 65 52
f 52 65 66
f 53 66 54
f 54 66 55
f 55 65 67
f 55 67 58
f 55 58 56
f 55 66 65
f 57 58 68
f 57 68 69
f 57 69 70
f 57 70 59
f 58 67 68
f 59 62 60
f 59 70 62
f 60 62 64
f 61 71 65
f 61 63 72
f 61 72 73
f 61 73 71
f 62 70 74
f 62 74 73
f 62 73 72
f 62 72 63
f 65 71 67
f 67 71 69
f 67 69 68
f 69 71 73
f 69 73 74
f 69 74 70

