# https://github.com/mikedh/trimesh
v -0.13479345 0.22660202 0.10202900
v -0.09218986 0.24306647 0.10107032
v -0.09218986 0.27829039 0.08936647
v -0.09218986 0.31015491 0.07874112
v -0.15887889 0.28544164 0.07979966
v -0.21345992 0.25015116 0.07886095
v -0.21345992 0.17464755 0.10017157
v -0.21345992 0.08573957 0.08541191
v -0.09218986 0.19134483 0.09116399
v -0.09218986 0.34248510 0.04241122
v -0.17522472 0.32535541 0.02801107
v -0.21345992 0.30130735 0.02761162
v -0.21345992 0.01595694 0.03769771
v -0.09218986 0.17418189 0.08774869
v -0.09218986 0.35568991 0.02745184
v -0.09218986 0.34827262 -0.02018247
v -0.17148548 0.31620851 -0.03813771
v -0.21345992 0.29402310 -0.01449032
v -0.09218986 0.12229396 0.04013436
v -0.09218986 0.12229396 0.04023422
v -0.21345992 0.01841828 -0.02547517
v -0.09218986 0.12385724 -0.02517558
v -0.09218986 0.34551191 -0.03749859
v -0.09218986 0.31866986 -0.07241045
v -0.15675406 0.28021955 -0.08944695
v -0.21345992 0.28890082 -0.03861705
v -0.21345992 0.05131391 -0.05631265
v -0.09218986 0.16709720 -0.07804268
v -0.09218986 0.16021207 -0.06973414
v -0.09218986 0.30496612 -0.08930714
v -0.13161212 0.21881884 -0.10171004
v -0.21345992 0.21525985 -0.09418043
v -0.21345992 0.24246776 -0.08984640
v -0.21345992 0.26428729 -0.06639874
v -0.21345992 0.07473001 -0.07772312
v -0.09218986 0.21083608 -0.09316183
v -0.09218986 0.23441848 -0.10123070
v -0.21345992 0.16293952 -0.10200963
f 1 2 3
f 1 3 4
f 1 4 5
f 1 5 6
f 1 6 7
f 1 7 8
f 1 8 2
f 2 8 9
f 2 9 14
f 2 14 20
f 2 20 19
f 2 19 22
f 2 22 29
f 2 29 28
f 2 28 36
f 2 36 37
f 2 37 30
f 2 30 24
f 2 24 23
f 2 23 16
f 2 16 15
f 2 15 10
f 2 10 4
f 2 4 3
f 4 10 5
f 5 10 11
f 5 11 12
f 5 12 6
f 6 12 18
f 6 18 26
f 6 26 34
f 6 34 33
f 6 33 32
f 6 32 38
f 6 38 35
f 6 35 27
f 6 27 21
f 6 21 13
f 6 13 8
f 6 8 7
f 8 13 14
f 8 14 9
f 10 15 11
f 11 15 16
f 11 16 17
f 11 17 18
f 11 18 12
f 13 19 20
f 13 20 14
f 13 21 22
f 13 22 19
f 16 23 17
f 17 24 25
f 17 25 26
f 17 26 18
f 17 23 24
f 21 27 28
f 21 28 29
f 21 29 22
f 24 30 25
f 25 30 31
f 25 31 32
f 25 32 33
f 25 33 34
f 25 34 26
f 27 35 28
f 28 35 36
f 30 37 31
f 31 37 38
f 31 38 32
f 35 38 37
f 35 37 36

