# https://github.com/mikedh/trimesh
v 0.32633311 -0.02591960 -0.11951840
v 0.31860283 0.06094266 -0.12470634
v 0.32013610 0.06808635 -0.06666014
v 0.32588589 -0.01744831 -0.05833986
v 0.31112808 -0.10089677 -0.04953015
v 0.31176695 -0.10829333 -0.11247063
v 0.31924167 -0.02977592 -0.17991386
v 0.31298080 0.05601161 -0.18148004
v 0.28455123 0.14660376 -0.12930697
v 0.28014305 0.14160949 -0.18353564
v 0.28634006 0.15159802 -0.07361002
v 0.31566402 0.07434499 -0.00685200
v 0.31962502 -0.00891381 0.00117463
v 0.30441999 -0.09217261 0.00851605
v 0.26596022 -0.17227048 0.01624902
v 0.27209333 -0.17916130 -0.04199295
v 0.27547932 -0.18516706 -0.10307361
v 0.27049616 -0.18611534 -0.16679718
v 0.30397278 -0.10987379 -0.17678152
v 0.30588937 -0.02825868 -0.24011354
v 0.30410054 0.05430472 -0.23717698
v 0.22756432 0.22398324 -0.13332029
v 0.22430609 0.21842000 -0.18833202
v 0.27132669 0.13528764 -0.23678544
v 0.22858651 0.22708094 -0.07948317
v 0.22775598 0.22758669 -0.02496085
v 0.28205964 0.15488538 -0.01664056
v 0.26902676 0.15633941 0.04062255
v 0.29988402 0.07952891 0.05148786
v 0.30493107 -0.00259196 0.05873140
v 0.27924863 -0.07472429 0.12147611
v 0.21210374 -0.25028214 -0.03563038
v 0.25267178 -0.15987965 0.07116288
v 0.19670705 -0.22872463 0.07840642
v 0.20507620 -0.24035683 0.02104542
v 0.21504253 -0.25458100 -0.09455755
v 0.21229540 -0.25426492 -0.15416993
v 0.20392625 -0.24920742 -0.21427172
v 0.25803825 -0.18289119 -0.22875881
v 0.28959829 -0.10728184 -0.23903680
v 0.28672338 -0.02313798 -0.29776821
v 0.28365681 0.05348287 -0.29346123
v 0.25752717 0.12732211 -0.29101411
v 0.14470331 0.27436841 -0.19048551
v 0.14540605 0.28087991 -0.13733360
v 0.14738655 0.28555807 -0.08359436
v 0.21798132 0.20836826 -0.23903680
v 0.14508663 0.26324195 -0.24314800
v 0.14706711 0.28271323 -0.03034456
v 0.14431998 0.27790865 0.02349256
v 0.21791743 0.22493151 0.03005090
v 0.20597062 0.22088553 0.08418167
v 0.25241622 0.15665551 0.09631950
v 0.20884553 0.09046571 0.31225529
v 0.21433978 0.03508628 0.32194597
v 0.28736225 0.00284483 0.11286218
v 0.20207353 -0.02029315 0.33124509
v 0.19146834 -0.09413239 0.28680500
v 0.22315614 -0.13079913 0.18010963
v 0.23970279 -0.14622445 0.12607674
v 0.12170411 -0.28732821 0.02447142
v 0.12521787 -0.29737994 -0.03171496
v 0.12758169 -0.30256388 -0.08809710
v 0.11755147 -0.27417874 0.08153876
v 0.18584633 -0.20963264 0.13273297
v 0.11186556 -0.25262123 0.13635474
v 0.12873164 -0.30161560 -0.14477290
v 0.12822054 -0.29763281 -0.20448317
v 0.19070171 -0.24155799 -0.27339467
v 0.23912780 -0.17644291 -0.28621769
v 0.26774904 -0.10001171 -0.29561472
v 0.25810215 -0.01561498 -0.34906030
v 0.25663275 0.05228172 -0.34778780
v 0.23586959 0.11625887 -0.34397024
v 0.19344884 0.17378773 -0.34406814
v 0.20686504 0.19250041 -0.29140565
v 0.05053436 0.30623055 -0.19606499
v 0.04995938 0.31571332 -0.14066170
v 0.05238707 0.32178229 -0.08613939
v 0.05513420 0.31798917 -0.03014879
v 0.14099789 0.24231660 -0.29571262
v 0.05526197 0.29118451 -0.24823806
v 0.06216173 0.26918447 -0.30207518
v 0.05762577 0.31008688 0.02466719
v 0.06024513 0.30003512 0.07850431
v 0.13914517 0.27076495 0.07684025
v 0.11601819 0.22284530 0.30021536
v 0.15926947 0.18990844 0.30285826
v 0.18782681 0.14186238 0.30550116
v 0.18980730 0.09331054 0.36403680
v 0.19312941 0.04608630 0.37314019
v 0.18380195 -0.00284483 0.38204777
v 0.17498559 -0.07282774 0.33888018
v 0.14061455 -0.12340257 0.34847298
v 0.02236033 -0.30408111 0.02603759
v 0.02325475 -0.31602940 -0.02946359
v 0.02657685 -0.32216161 -0.08584573
v 0.03245443 -0.32292023 -0.14330462
v 0.02319086 -0.28821325 0.08104934
v 0.02389362 -0.26735115 0.13518012
v 0.08912190 -0.15621297 0.35199687
v 0.02421305 -0.24345455 0.18921299
v 0.02989896 -0.16923599 0.35209474
v 0.03718204 -0.31628227 -0.20164448
v 0.04031249 -0.30306962 -0.26203993
v 0.12144856 -0.28530520 -0.26458496
v 0.11122669 -0.26412699 -0.32576352
v 0.17166348 -0.22392002 -0.33261549
v 0.21555363 -0.16304058 -0.33946750
v 0.24059720 -0.08907490 -0.34397024
v 0.22526440 -0.01131612 -0.39633909
v 0.22194229 0.04912079 -0.39849257
v 0.20590673 0.10291976 -0.39790526
v 0.17402729 0.14654054 -0.39907989
v 0.13671747 0.21715564 -0.34974551
v -0.04414569 0.31223631 -0.20037197
v -0.04772334 0.32216161 -0.14066170
v -0.04612618 0.32292023 -0.08183242
v -0.04063192 0.31893745 -0.02456930
v -0.03347661 0.31337422 0.03151919
v 0.07027534 0.23985109 -0.35728270
v -0.02101871 0.27297759 -0.31313625
v -0.03462657 0.29434547 -0.25783086
v -0.02466025 0.30275351 0.08760767
v 0.06184230 0.28675923 0.13400549
v 0.06586716 0.24250627 0.30001959
v 0.06625047 0.22474186 0.35415035
v 0.11007673 0.20678779 0.35297573
v 0.14617270 0.17701188 0.35326937
v 0.17185514 0.13705777 0.35601017
v 0.16450818 0.09723009 0.41249022
v 0.16565813 0.05828748 0.42071262
v 0.15767230 0.01757475 0.42922866
v 0.15869449 -0.05019551 0.38919342
v 0.13761188 -0.02256901 0.43657008
v 0.12707059 -0.09590250 0.40035239
v 0.08171105 -0.12814395 0.40720439
v -0.07921947 -0.29187992 0.02202428
v -0.07915559 -0.30224776 -0.03504307
v -0.07500295 -0.31052941 -0.09289350
v -0.06554772 -0.30951789 -0.15045027
v -0.07327801 -0.27607530 0.07870008
v -0.06586716 -0.25647756 0.13459280
v -0.05756189 -0.23397176 0.18989819
v -0.04005694 -0.18573603 0.29933438
v -0.03111281 -0.16158655 0.35238841
v 0.02906843 -0.13857500 0.40642130
v -0.02210479 -0.13471867 0.40691072
v -0.05462310 -0.30319604 -0.20712608
v -0.04484844 -0.29339719 -0.26282302
v 0.03992917 -0.28208107 -0.32184809
v 0.03628763 -0.24832237 -0.37646827
v 0.09806604 -0.23093727 -0.38234141
v 0.15115586 -0.19585100 -0.38566953
v 0.18999895 -0.14154628 -0.38547376
v 0.17952155 -0.06239669 -0.43647221
v 0.18520746 -0.00758622 -0.44009396
v 0.18143815 0.04754033 -0.44117072
v 0.17728551 0.08566111 -0.43255678
v 0.15141141 0.10399447 -0.44596711
v 0.11090726 0.12852326 -0.45330852
v 0.12713447 0.17827624 -0.40456146
v 0.07225582 0.19951767 -0.41023883
v -0.13071212 0.28947762 -0.20448317
v -0.11767925 0.27367300 -0.26556382
v -0.13703690 0.29744315 -0.14281519
v -0.13812298 0.30161560 -0.07918951
v -0.13039269 0.29687420 -0.01938136
v -0.11940418 0.29029948 0.04013313
v -0.00185271 0.24427639 -0.36462411
v 0.01373563 0.20817861 -0.41200078
v -0.09940766 0.25344306 -0.32312059
v -0.10502969 0.27885690 0.09729835
v 0.01003021 0.24636260 0.30246672
v 0.01814381 0.23049474 0.35728270
v 0.03021839 0.20583951 0.40847689
v 0.06950869 0.20071882 0.40368050
v 0.10617965 0.18687396 0.40142912
v 0.13198987 0.15987965 0.40035239
v 0.15166695 0.13041982 0.40348473
v 0.11857366 0.14723594 0.43314409
v 0.12221520 0.12631062 0.44440094
v 0.12815666 0.10336229 0.45330852
v 0.12892330 0.07617832 0.46250978
v 0.12259852 0.04355757 0.47014487
v 0.10809624 0.00954600 0.47592014
v 0.11001284 -0.06252312 0.44772905
v 0.06803931 -0.08888525 0.45575568
v 0.02299920 -0.09906343 0.45937744
v -0.16738307 -0.25243157 0.01536805
v -0.17070518 -0.26166147 -0.04678935
v -0.16597757 -0.26400056 -0.10747846
v -0.15620291 -0.26652929 -0.16493735
v -0.14125343 -0.26254654 -0.21945967
v -0.15728898 -0.23662694 0.07507831
v -0.14521439 -0.21924184 0.13263509
v -0.13026492 -0.19755790 0.18989819
v -0.08688587 -0.13503477 0.35356304
v -0.06803931 -0.11284507 0.40779170
v -0.01616333 -0.09331054 0.45869225
v -0.04829832 -0.08730479 0.44998044
v -0.12477066 -0.25635111 -0.27231795
v -0.10502969 -0.24288557 -0.32253328
v -0.03539322 -0.27354655 -0.31793267
v -0.02862123 -0.24440283 -0.37216133
v 0.03290163 -0.20640849 -0.42873922
v 0.08688587 -0.19047742 -0.43206733
v 0.13269261 -0.16006930 -0.43138215
v 0.16265546 -0.11531059 -0.43099061
v 0.12240686 -0.09470135 -0.46848083
v 0.13058436 -0.04772999 -0.47347298
v 0.13505642 0.00271840 -0.47572437
v 0.14035901 0.05607483 -0.46897024
v 0.09468004 0.07358637 -0.48247847
v 0.06318392 0.14761525 -0.45693031
v -0.21152876 0.24857524 -0.14565387
v -0.20443735 0.23997752 -0.21055208
v -0.18622965 0.22550048 -0.27133909
v -0.21370091 0.25300053 -0.08124511
v -0.20660949 0.25388560 -0.01566171
v -0.19421548 0.25028214 0.04610415
v -0.17626332 0.24174765 0.10649961
v -0.07417242 0.22309817 -0.37382537
v 0.00958300 0.15463251 -0.45673454
v -0.05334537 0.18902339 -0.41885278
v -0.13269261 0.18251188 -0.38038370
v -0.16265546 0.20710389 -0.32899374
v -0.02881289 0.21310966 0.36021927
v -0.01092462 0.19793721 0.41151136
v 0.01571612 0.16436817 0.45604932
v 0.04631783 0.17163830 0.45007831
v 0.07589737 0.17132221 0.44489038
v 0.09979098 0.15861528 0.43989819
v 0.09781049 0.13648880 0.45820281
v 0.09110239 0.11752324 0.47210258
v 0.08554425 0.09520710 0.48091230
v 0.07845283 0.07137372 0.49001566
v 0.06861428 0.04336791 0.49608457
v 0.08445818 -0.02332764 0.48218480
v 0.04938440 -0.04349434 0.49099451
v 0.00951911 -0.05164954 0.49109241
v -0.23829728 -0.19679926 0.00812451
v -0.22558384 -0.18257511 0.07135865
v -0.24174716 -0.20331077 -0.05657792
v -0.24443039 -0.20836826 -0.11961628
v -0.22973646 -0.20489123 -0.18285044
v -0.21063435 -0.20274182 -0.23874314
v -0.20910107 -0.16601186 0.13136257
v -0.19019061 -0.14622445 0.19097494
v -0.13007326 -0.09387951 0.35787001
v -0.15249749 -0.10740828 0.30530539
v -0.10260199 -0.07782201 0.41102192
v -0.02574633 -0.05360931 0.48159748
v -0.06324780 -0.05980473 0.45986688
v -0.18846567 -0.19945444 -0.29003525
v -0.16144161 -0.19433375 -0.33839077
v -0.08669421 -0.22139128 -0.37421691
v -0.02127426 -0.20362687 -0.42384496
v -0.01552446 -0.14850032 -0.46574003
v 0.03143224 -0.14868997 -0.46887237
v 0.07985834 -0.13952328 -0.46808928
v 0.11365438 -0.12940831 -0.45947534
v 0.07660012 -0.09002318 -0.48590446
v 0.07870838 -0.03748859 -0.49256068
v 0.08401097 0.01732188 -0.49353954
v 0.04727614 0.08768409 -0.48668754
v -0.26717407 0.18181647 -0.14751370
v -0.25765494 0.17277624 -0.21260768
v -0.23638068 0.15968999 -0.27672279
v -0.26691851 0.18485098 -0.08007048
v -0.25989097 0.18845442 -0.01409554
v -0.24558036 0.18794867 0.04894283
v -0.22456165 0.18124752 0.10943618
v -0.20335127 0.17347163 0.16718872
v -0.15831117 0.15551758 0.28347689
v -0.11953196 0.20299469 0.27407989
v -0.04127079 0.14173594 -0.45653877
v -0.00051109 0.09248871 -0.48590446
v -0.10183535 0.15185089 -0.42218089
v -0.07864449 0.12523590 -0.45281911
v -0.17147182 0.12725890 -0.38478857
v -0.20692892 0.14496008 -0.33594361
v -0.13409811 0.10696574 -0.42609632
v -0.09621333 0.19325903 0.32321849
v -0.07206416 0.18327050 0.37108457
v -0.10464636 0.14154628 0.38880187
v -0.04318739 0.16917278 0.41376272
v -0.01086073 0.14565548 0.45751762
v -0.04785112 0.09299445 0.47229835
v 0.04708448 0.12409797 0.47866091
v 0.06497274 0.13813248 0.47024277
v 0.08068886 0.14887963 0.46162882
v 0.02791847 0.00170690 0.50000000
v 0.05379258 0.01694256 0.49745497
v -0.01092462 0.07750591 0.48463196
v -0.00472761 -0.00954600 0.49823806
v -0.28448734 -0.12447727 0.00039154
v -0.29202595 -0.13023016 -0.06411511
v -0.27477658 -0.11613243 0.06538763
v -0.25593001 -0.10304619 0.12881754
v -0.29004547 -0.13301177 -0.13087314
v -0.27854589 -0.13256925 -0.19645654
v -0.25669664 -0.13193706 -0.25655833
v -0.15671401 -0.04621274 0.36090446
v -0.18412139 -0.05803461 0.30628425
v -0.12304573 -0.03546559 0.41415426
v -0.04031249 -0.01782762 0.48580658
v -0.08075275 -0.02560350 0.46123728
v -0.22884205 -0.13193706 -0.31000391
v -0.19344884 -0.13250603 -0.35777211
v -0.13077602 -0.18225901 -0.38273296
v -0.07085032 -0.18775903 -0.41934222
v -0.01597167 -0.08781053 -0.48796007
v -0.06312003 -0.13952328 -0.45458105
v 0.03079337 -0.08939099 -0.49040720
v 0.03219888 -0.03122995 -0.50000000
v 0.03622374 0.02756328 -0.49843383
v -0.30806151 0.10924161 -0.14692639
v -0.31068087 0.11385656 -0.07664448
v -0.29362312 0.10140251 -0.21574001
v -0.26953787 0.09033927 -0.28318325
v -0.30231172 0.11676462 -0.00802663
v -0.28480676 0.11758646 0.05393500
v -0.26672685 0.11796577 0.11667972
v -0.18757126 0.10544850 0.29267815
v -0.13326760 0.14742561 0.33897808
v -0.04650950 0.08964387 -0.47777995
v -0.00996632 0.03135639 -0.49588880
v -0.09097461 0.08983353 -0.45830071
v -0.19843200 0.06157484 -0.39261943
v -0.23638068 0.07668407 -0.34240407
v -0.15466963 0.04842539 -0.43148002
v -0.12202354 0.09805194 0.40133125
v -0.15658623 0.10184505 0.35003915
v -0.08758862 0.05487368 0.44861004
v -0.08682198 0.01466670 0.45467892
v -0.13269261 0.05373575 0.41160923
v -0.31476963 -0.04545412 -0.00430697
v -0.32058331 -0.04842539 -0.07057557
v -0.29898962 -0.03995411 0.06088489
v -0.27841809 -0.03186214 0.12343383
v -0.31745285 -0.05196563 -0.13860610
v -0.30384499 -0.05348287 -0.20546202
v -0.27803478 -0.05575874 -0.26850039
v -0.24781638 -0.06144841 -0.32693812
v -0.16770251 0.00303449 0.36021927
v -0.19824034 -0.00335058 0.30285826
v -0.13224541 0.00834485 0.41620988
v -0.25190514 -0.02193683 0.18333986
v -0.20884553 -0.06928750 -0.37685981
v -0.15403076 -0.13358074 -0.39956930
v -0.10605187 -0.16923599 -0.41258809
v -0.11199334 -0.13446580 -0.43255678
v -0.06446165 -0.02516097 -0.48247847
v -0.01584389 -0.02731040 -0.49608457
v -0.06446165 -0.08464961 -0.47406030
v -0.32601368 0.02914374 -0.14575176
v -0.32633311 0.03375869 -0.07449099
v -0.30985034 0.02503454 -0.21290134
v -0.25075519 0.00708047 -0.33927172
v -0.28314573 0.01820694 -0.27828896
v -0.31694177 0.03660353 -0.00626468
v -0.30435610 0.03906905 0.05785043
v -0.28282627 0.04343113 0.12000783
v -0.25714386 0.04678171 0.18030541
v -0.22967258 0.04956333 0.23952623
v -0.16904412 0.05329322 0.35806578
v -0.05743412 0.03369547 -0.48404464
v -0.10745738 0.03831043 -0.46192247
v -0.20839831 -0.00436208 -0.38978073
v -0.16508316 -0.01548854 -0.42893499
v -0.16399708 -0.07769557 -0.41679719
v -0.11569875 -0.08142546 -0.44919735
v -0.11627374 -0.02237936 -0.45967111
f 1 2 3
f 1 3 4
f 1 4 5
f 1 5 6
f 1 6 7
f 1 7 8
f 1 8 2
f 2 9 3
f 2 8 10
f 2 10 9
f 3 9 11
f 3 11 12
f 3 12 4
f 4 12 13
f 4 13 5
f 5 13 14
f 5 14 15
f 5 15 16
f 5 16 17
f 5 17 6
f 6 17 18
f 6 18 19
f 6 19 7
f 7 19 20
f 7 20 21
f 7 21 8
f 8 21 10
f 9 22 11
f 9 10 23
f 9 23 22
f 10 21 24
f 10 24 23
f 11 22 25
f 11 25 26
f 11 26 27
f 11 27 12
f 12 27 28
f 12 28 29
f 12 29 30
f 12 30 13
f 13 30 31
f 13 31 14
f 14 31 15
f 15 32 16
f 15 31 33
f 15 33 34
f 15 34 35
f 15 35 32
f 16 32 17
f 17 32 36
f 17 36 37
f 17 37 18
f 18 37 38
f 18 38 39
f 18 39 19
f 19 39 40
f 19 40 20
f 20 40 41
f 20 41 21
f 21 41 42
f 21 42 43
f 21 43 24
f 22 23 44
f 22 44 45
f 22 45 46
f 22 46 25
f 23 24 47
f 23 47 48
f 23 48 44
f 24 43 47
f 25 46 26
f 26 46 49
f 26 49 50
f 26 50 51
f 26 51 28
f 26 28 27
f 28 51 52
f 28 52 53
f 28 53 29
f 29 53 54
f 29 54 55
f 29 55 56
f 29 56 30
f 30 56 31
f 31 56 55
f 31 55 57
f 31 57 58
f 31 58 59
f 31 59 60
f 31 60 33
f 32 35 61
f 32 61 62
f 32 62 63
f 32 63 36
f 33 60 34
f 34 64 35
f 34 60 65
f 34 65 66
f 34 66 64
f 35 64 61
f 36 63 67
f 36 67 37
f 37 67 68
f 37 68 38
f 38 69 39
f 38 68 69
f 39 69 70
f 39 70 40
f 40 70 71
f 40 71 41
f 41 71 72
f 41 72 73
f 41 73 42
f 42 73 74
f 42 74 43
f 43 74 75
f 43 75 76
f 43 76 47
f 44 48 77
f 44 77 78
f 44 78 79
f 44 79 45
f 45 79 46
f 46 79 80
f 46 80 49
f 47 76 81
f 47 81 48
f 48 82 77
f 48 81 83
f 48 83 82
f 49 80 50
f 50 84 85
f 50 85 86
f 50 86 51
f 50 80 84
f 51 86 52
f 52 86 87
f 52 87 88
f 52 88 53
f 53 88 89
f 53 89 54
f 54 89 90
f 54 90 55
f 55 90 91
f 55 91 92
f 55 92 57
f 57 92 93
f 57 93 58
f 58 93 94
f 58 94 59
f 59 94 60
f 60 94 65
f 61 64 95
f 61 95 96
f 61 96 62
f 62 96 97
f 62 97 63
f 63 97 98
f 63 98 67
f 64 99 95
f 64 66 100
f 64 100 99
f 65 94 101
f 65 101 66
f 66 102 100
f 66 101 103
f 66 103 102
f 67 98 68
f 68 98 104
f 68 104 105
f 68 105 106
f 68 106 69
f 69 106 107
f 69 107 108
f 69 108 70
f 70 108 109
f 70 109 71
f 71 109 110
f 71 110 72
f 72 111 112
f 72 112 73
f 72 110 111
f 73 112 113
f 73 113 74
f 74 113 114
f 74 114 75
f 75 114 115
f 75 115 76
f 76 115 81
f 77 116 78
f 77 82 116
f 78 116 117
f 78 117 79
f 79 117 118
f 79 118 80
f 80 118 119
f 80 119 120
f 80 120 84
f 81 115 121
f 81 121 83
f 82 83 122
f 82 122 123
f 82 123 116
f 83 121 122
f 84 120 124
f 84 124 85
f 85 124 125
f 85 125 86
f 86 125 87
f 87 126 127
f 87 127 128
f 87 128 88
f 87 125 126
f 88 128 129
f 88 129 130
f 88 130 89
f 89 130 90
f 90 131 91
f 90 130 131
f 91 131 132
f 91 132 133
f 91 133 92
f 92 134 93
f 92 133 135
f 92 135 134
f 93 134 136
f 93 136 94
f 94 136 137
f 94 137 101
f 95 138 96
f 95 99 138
f 96 139 140
f 96 140 97
f 96 138 139
f 97 140 98
f 98 141 104
f 98 140 141
f 99 142 138
f 99 100 143
f 99 143 142
f 100 102 144
f 100 144 143
f 101 137 103
f 102 103 145
f 102 145 144
f 103 146 145
f 103 137 147
f 103 147 148
f 103 148 146
f 104 141 149
f 104 149 150
f 104 150 105
f 105 150 151
f 105 151 106
f 106 151 107
f 107 151 152
f 107 152 153
f 107 153 108
f 108 153 154
f 108 154 109
f 109 154 155
f 109 155 110
f 110 155 156
f 110 156 111
f 111 156 157
f 111 157 112
f 112 157 158
f 112 158 113
f 113 158 159
f 113 159 160
f 113 160 114
f 114 160 161
f 114 161 162
f 114 162 115
f 115 162 163
f 115 163 121
f 116 164 117
f 116 123 165
f 116 165 164
f 117 164 166
f 117 166 167
f 117 167 118
f 118 167 119
f 119 167 168
f 119 168 120
f 120 169 124
f 120 168 169
f 121 170 122
f 121 163 171
f 121 171 170
f 122 170 172
f 122 172 123
f 123 172 165
f 124 169 173
f 124 173 174
f 124 174 125
f 125 174 126
f 126 174 175
f 126 175 127
f 127 175 176
f 127 176 177
f 127 177 178
f 127 178 128
f 128 178 129
f 129 178 179
f 129 179 180
f 129 180 130
f 130 180 131
f 131 180 181
f 131 181 182
f 131 182 183
f 131 183 184
f 131 184 132
f 132 184 185
f 132 185 133
f 133 185 186
f 133 186 135
f 134 135 187
f 134 187 136
f 135 186 187
f 136 187 137
f 137 187 188
f 137 188 189
f 137 189 147
f 138 142 190
f 138 190 139
f 139 190 191
f 139 191 140
f 140 191 192
f 140 192 193
f 140 193 141
f 141 193 194
f 141 194 149
f 142 195 190
f 142 143 196
f 142 196 195
f 143 144 196
f 144 197 196
f 144 145 198
f 144 198 197
f 145 146 198
f 146 148 198
f 147 189 148
f 148 199 198
f 148 189 200
f 148 200 201
f 148 201 199
f 149 194 150
f 150 202 203
f 150 203 204
f 150 204 151
f 150 194 202
f 151 204 205
f 151 205 152
f 152 205 206
f 152 206 153
f 153 206 207
f 153 207 154
f 154 207 208
f 154 208 155
f 155 208 209
f 155 209 156
f 156 209 210
f 156 210 211
f 156 211 157
f 157 211 212
f 157 212 158
f 158 212 213
f 158 213 159
f 159 213 160
f 160 213 214
f 160 214 161
f 161 163 162
f 161 214 215
f 161 215 163
f 163 215 171
f 164 216 166
f 164 165 217
f 164 217 216
f 165 218 217
f 165 172 218
f 166 216 219
f 166 219 167
f 167 219 220
f 167 220 168
f 168 220 221
f 168 221 169
f 169 221 222
f 169 222 173
f 170 223 172
f 170 171 223
f 171 215 224
f 171 224 225
f 171 225 223
f 172 223 226
f 172 226 227
f 172 227 218
f 173 222 228
f 173 228 175
f 173 175 174
f 175 228 229
f 175 229 176
f 176 229 230
f 176 230 231
f 176 231 232
f 176 232 177
f 177 232 178
f 178 232 233
f 178 233 181
f 178 181 179
f 179 181 180
f 181 233 234
f 181 234 182
f 182 234 183
f 183 234 235
f 183 235 184
f 184 235 236
f 184 236 237
f 184 237 185
f 185 237 238
f 185 238 186
f 186 238 239
f 186 239 187
f 187 239 240
f 187 240 188
f 188 240 189
f 189 240 241
f 189 241 200
f 190 242 191
f 190 195 243
f 190 243 242
f 191 242 244
f 191 244 245
f 191 245 192
f 192 245 193
f 193 246 194
f 193 245 246
f 194 247 202
f 194 246 247
f 195 196 243
f 196 248 243
f 196 197 248
f 197 249 248
f 197 198 249
f 198 199 250
f 198 250 251
f 198 251 249
f 199 201 252
f 199 252 250
f 200 241 253
f 200 253 201
f 201 253 254
f 201 254 252
f 202 247 255
f 202 255 256
f 202 256 203
f 203 256 257
f 203 257 204
f 204 257 205
f 205 257 258
f 205 258 206
f 206 258 259
f 206 259 260
f 206 260 207
f 207 260 261
f 207 261 208
f 208 261 262
f 208 262 209
f 209 262 210
f 210 262 261
f 210 261 263
f 210 263 211
f 211 263 264
f 211 264 212
f 212 264 265
f 212 265 213
f 213 265 214
f 214 265 266
f 214 266 215
f 215 266 224
f 216 217 267
f 216 267 219
f 217 218 268
f 217 268 267
f 218 269 268
f 218 227 269
f 219 270 271
f 219 271 220
f 219 267 270
f 220 271 272
f 220 272 221
f 221 272 222
f 222 272 273
f 222 273 274
f 222 274 275
f 222 275 276
f 222 276 228
f 223 225 226
f 224 277 225
f 224 266 278
f 224 278 277
f 225 279 226
f 225 277 280
f 225 280 279
f 226 281 282
f 226 282 227
f 226 279 283
f 226 283 281
f 227 282 269
f 228 284 229
f 228 276 284
f 229 284 285
f 229 285 286
f 229 286 287
f 229 287 288
f 229 288 230
f 230 288 289
f 230 289 290
f 230 290 291
f 230 291 231
f 231 291 292
f 231 292 232
f 232 292 233
f 233 292 234
f 234 292 235
f 235 292 291
f 235 291 236
f 236 291 290
f 236 290 237
f 237 290 238
f 238 293 294
f 238 294 240
f 238 240 239
f 238 290 295
f 238 295 293
f 240 294 293
f 240 293 241
f 241 293 296
f 241 296 253
f 242 297 298
f 242 298 244
f 242 243 299
f 242 299 297
f 243 248 300
f 243 300 299
f 244 298 245
f 245 298 301
f 245 301 302
f 245 302 246
f 246 302 247
f 247 303 255
f 247 302 303
f 248 249 300
f 249 251 300
f 250 252 304
f 250 304 305
f 250 305 251
f 251 305 300
f 252 254 306
f 252 306 304
f 253 296 307
f 253 307 254
f 254 308 306
f 254 307 308
f 255 309 256
f 255 303 309
f 256 309 310
f 256 310 311
f 256 311 257
f 257 311 312
f 257 312 258
f 258 312 259
f 259 313 260
f 259 312 314
f 259 314 313
f 260 313 315
f 260 315 261
f 261 315 263
f 263 315 316
f 263 316 264
f 264 316 265
f 265 316 317
f 265 317 266
f 266 317 278
f 267 318 319
f 267 319 270
f 267 268 318
f 268 269 320
f 268 320 318
f 269 282 321
f 269 321 320
f 270 319 271
f 271 322 272
f 271 319 322
f 272 323 324
f 272 324 273
f 272 322 323
f 273 324 274
f 274 324 275
f 275 324 325
f 275 325 326
f 275 326 276
f 276 326 284
f 277 278 327
f 277 327 280
f 278 317 328
f 278 328 327
f 279 280 283
f 280 327 329
f 280 329 283
f 281 283 330
f 281 330 282
f 282 331 321
f 282 330 331
f 283 329 332
f 283 332 330
f 284 326 286
f 284 286 285
f 286 333 289
f 286 289 287
f 286 326 334
f 286 334 333
f 287 289 288
f 289 335 336
f 289 336 307
f 289 307 296
f 289 296 295
f 289 295 290
f 289 333 337
f 289 337 335
f 293 295 296
f 297 299 338
f 297 338 298
f 298 339 301
f 298 338 339
f 299 300 340
f 299 340 338
f 300 341 340
f 300 305 341
f 301 339 342
f 301 342 302
f 302 342 343
f 302 343 303
f 303 343 344
f 303 344 345
f 303 345 309
f 304 346 347
f 304 347 305
f 304 306 348
f 304 348 346
f 305 347 349
f 305 349 341
f 306 308 348
f 307 336 308
f 308 336 348
f 309 345 350
f 309 350 310
f 310 350 351
f 310 351 311
f 311 351 352
f 311 352 312
f 312 352 353
f 312 353 314
f 313 354 355
f 313 355 316
f 313 316 315
f 313 314 356
f 313 356 354
f 314 353 356
f 316 355 328
f 316 328 317
f 318 320 357
f 318 357 319
f 319 358 322
f 319 357 358
f 320 359 357
f 320 321 359
f 321 331 360
f 321 360 361
f 321 361 359
f 322 358 362
f 322 362 363
f 322 363 323
f 323 363 324
f 324 363 364
f 324 364 365
f 324 365 366
f 324 366 325
f 325 366 367
f 325 367 334
f 325 334 326
f 327 328 368
f 327 368 369
f 327 369 329
f 328 355 368
f 329 369 332
f 330 370 360
f 330 360 331
f 330 332 371
f 330 371 370
f 332 369 371
f 333 334 337
f 334 367 337
f 335 337 336
f 336 337 348
f 337 367 348
f 338 362 358
f 338 358 339
f 338 340 363
f 338 363 362
f 339 358 357
f 339 357 342
f 340 341 363
f 341 349 365
f 341 365 364
f 341 364 363
f 342 357 343
f 343 359 361
f 343 361 344
f 343 357 359
f 344 361 345
f 345 361 360
f 345 360 350
f 346 348 367
f 346 367 347
f 347 367 366
f 347 366 365
f 347 365 349
f 350 370 371
f 350 371 372
f 350 372 351
f 350 360 370
f 351 372 353
f 351 353 352
f 353 373 356
f 353 372 373
f 354 374 368
f 354 368 355
f 354 356 374
f 356 373 374
f 368 374 369
f 369 374 371
f 371 374 373
f 371 373 372

