# https://github.com/mikedh/trimesh
v 0.24778016 -0.07048555 -0.09038936
v 0.25099495 -0.07048555 -0.09027940
v 0.24195600 -0.07048555 -0.08817197
v 0.19848374 -0.04966180 -0.08972964
v 0.19848374 -0.03520639 -0.10142127
v 0.19848374 -0.03346053 -0.10283232
v 0.19848374 -0.02900088 -0.10609426
v 0.19848374 -0.02653134 -0.10783517
v 0.19848374 -0.02154703 -0.11074892
v 0.26245567 -0.07048555 -0.08210625
v 0.20500714 -0.02110378 -0.11052901
v 0.21500115 -0.02038915 -0.11018082
v 0.22004080 -0.02000922 -0.10999757
v 0.28559881 -0.02369091 -0.10239251
v 0.28559881 -0.02398943 -0.10219094
v 0.28037158 -0.06026363 -0.08021873
v 0.19848374 -0.05379579 -0.08531320
v 0.19848374 -0.05068399 -0.08866675
v 0.23575664 -0.07048555 -0.08203295
v 0.19848374 -0.05933191 -0.07721336
v 0.19848374 -0.01875183 -0.11074892
v 0.28166771 -0.06086972 -0.07499598
v 0.26530379 -0.07048555 -0.07499598
v 0.20500714 -0.01908653 -0.11052901
v 0.21500115 -0.01967452 -0.11018082
v 0.22004080 -0.02000017 -0.10999757
v 0.28559881 -0.01574858 -0.10239251
v 0.28559881 -0.02868427 -0.09891067
v 0.28559881 -0.05811975 -0.07499598
v 0.28559881 -0.05383198 -0.08082347
v 0.19848374 -0.07048555 -0.02527906
v 0.19848374 -0.06977092 -0.02892582
v 0.19848374 -0.06045360 -0.07221051
v 0.19848374 -0.05972993 -0.07547244
v 0.19848374 -0.01374943 -0.10717545
v 0.24754992 0.02192775 -0.08467181
v 0.25496870 0.02192775 -0.08472680
v 0.25884861 0.02192775 -0.08463517
v 0.28559881 -0.06099636 -0.06414732
v 0.28559881 -0.06106873 -0.06387244
v 0.26528674 -0.07048555 -0.04499723
v 0.28559881 -0.06899296 -0.02410623
v 0.28559881 -0.06909247 -0.02311665
v 0.28559881 -0.06977996 -0.01584145
v 0.28093436 -0.07000611 -0.02001965
v 0.28093436 -0.07000611 -0.01985473
v 0.28499338 -0.01571240 -0.10242917
v 0.28559881 -0.01104469 -0.09964369
v 0.19848374 -0.07048555 -0.00699027
v 0.19848374 -0.00730872 -0.10217261
v 0.19848374 0.00881114 -0.08901495
v 0.24519639 0.02192775 -0.08421367
v 0.19848374 -0.00404314 -0.09953375
v 0.19848374 -0.00230632 -0.09812269
v 0.19848374 0.00380873 -0.09311984
v 0.26941398 0.02192775 -0.08150151
v 0.28559881 -0.01074618 -0.09946044
v 0.26353011 -0.07048555 -0.04012267
v 0.25924087 -0.06997897 -0.01032550
v 0.24481265 -0.07048555 -0.01520006
v 0.28559881 -0.06833261 -0.00501112
v 0.25124225 -0.07048555 -0.01855362
v 0.26251537 -0.07048555 -0.03731887
v 0.19888452 -0.07048555 -0.00702692
v 0.19848374 -0.06800696 0.00499457
v 0.19848374 0.01338838 -0.08401209
v 0.19848374 0.01795658 -0.07499598
v 0.19848374 0.01955771 -0.06794068
v 0.22500369 0.02192775 -0.07257702
v 0.27192953 0.02123121 -0.08111668
v 0.27111089 0.02192775 -0.08047529
v 0.28559881 0.01153397 -0.08155648
v 0.25257251 -0.07004230 -0.00979406
v 0.23811871 -0.07048555 -0.01327589
v 0.26499683 -0.06879395 -0.00501112
v 0.28559881 -0.06819692 -0.00440638
v 0.22096175 -0.06002844 0.04012445
v 0.19848374 -0.06030887 0.04144388
v 0.20507535 -0.07048555 -0.00759501
v 0.19848374 -0.06591735 0.01498194
v 0.19848374 0.02025425 -0.06467876
v 0.19848374 0.02062513 -0.06293784
v 0.19848374 0.02192775 -0.05679882
v 0.28559881 0.01189580 -0.08124496
v 0.28559881 0.02000096 -0.06979156
v 0.28559881 0.01730527 -0.07461114
v 0.28559881 0.01707912 -0.07492268
v 0.27590325 0.02192775 -0.07418966
v 0.28559881 0.02114075 -0.06521019
v 0.28559881 0.02107743 -0.06546675
v 0.20580018 -0.07048555 -0.00766831
v 0.21389259 -0.07048555 -0.00891444
v 0.22239433 -0.07048555 -0.01028885
v 0.23057203 -0.07048555 -0.01168158
v 0.19848374 -0.06124060 0.03708242
v 0.19848374 -0.06380965 0.02498763
v 0.28559881 -0.06600781 0.00499457
v 0.22763011 -0.05991989 0.03964798
v 0.19848374 -0.05894293 0.04642839
v 0.19848374 0.02192775 0.02366820
v 0.28267395 0.02192775 -0.06524684
v 0.28559881 0.02192775 -0.06125190
v 0.28559881 -0.06127678 0.02529916
v 0.28559881 -0.06009176 0.03037531
v 0.28559881 -0.05889770 0.03537815
v 0.20500714 -0.05877106 0.04598859
v 0.23500624 -0.05746844 0.04499901
v 0.24499172 -0.05686236 0.04499901
v 0.25499427 -0.05624724 0.04499901
v 0.26499683 -0.05561402 0.04499901
v 0.22500369 -0.05308116 0.05271402
v 0.21500115 -0.05345204 0.05311718
v 0.19848374 -0.05719706 0.04904893
v 0.19848374 0.01961199 0.03464514
v 0.20314819 0.02192775 0.02399806
v 0.28559881 0.02192775 0.02808463
v 0.28559881 -0.05859918 0.03596457
v 0.27499935 -0.05491749 0.04499901
v 0.21500115 -0.05845445 0.04542049
v 0.24499172 -0.05225798 0.05194436
v 0.23500624 -0.05268314 0.05232919
v 0.19848374 -0.04847678 0.05874309
v 0.20500714 -0.05376866 0.05352034
v 0.19848374 -0.05394053 0.05374024
v 0.19848374 0.01924110 0.03638605
v 0.21500115 0.02192775 0.02482270
v 0.28499338 0.02192775 0.02813961
v 0.28559881 0.01969340 0.03803534
v 0.28559881 -0.05339777 0.04595194
v 0.26499683 -0.05138053 0.05113803
v 0.25499427 -0.05182378 0.05154120
v 0.20500714 -0.04817826 0.05852319
v 0.19848374 -0.04348342 0.06282967
v 0.20500714 0.01927729 0.03658763
v 0.21500115 0.02040803 0.03189632
v 0.19848374 0.01780280 0.04206694
v 0.27499935 0.02192775 0.02806630
v 0.28125840 0.02192775 0.02812128
v 0.27499935 0.01963913 0.03836520
v 0.28499338 0.01963008 0.03836520
v 0.28559881 0.01962103 0.03834688
v 0.28559881 -0.05302689 0.04646505
v 0.27499935 -0.05086491 0.05069822
v 0.24499172 -0.04620625 0.05692888
v 0.23500624 -0.04669473 0.05733204
v 0.24499172 -0.04121289 0.06096047
v 0.19848374 -0.03733218 0.06783251
v 0.21500115 0.01933156 0.03689917
v 0.19848374 0.01701580 0.04499901
v 0.22500369 0.01938584 0.03715572
v 0.20500714 0.01699771 0.04499901
v 0.21500115 0.01694343 0.04499901
v 0.22500369 0.01685298 0.04499901
v 0.23500624 0.01673538 0.04499901
v 0.24499172 0.01659969 0.04499901
v 0.25499427 0.01643686 0.04499901
v 0.26499683 0.01625594 0.04499901
v 0.27499935 0.01604789 0.04499901
v 0.28499338 0.01561368 0.04499901
v 0.28559881 0.01584888 0.04455920
v 0.28559881 -0.05024074 0.05018511
v 0.25499427 -0.04063395 0.06048401
v 0.19848374 -0.03558632 0.06924357
v 0.22500369 -0.03095480 0.07074626
v 0.21500115 -0.03147042 0.07118607
v 0.19848374 -0.03232978 0.07186411
v 0.19848374 0.01425679 0.05013013
v 0.19848374 0.01276421 0.05280565
v 0.20500714 0.01271898 0.05269570
v 0.24499172 0.01211291 0.05170612
v 0.25499427 0.01189580 0.05148622
v 0.26499683 0.01166061 0.05126632
v 0.27499935 0.01140732 0.05106473
v 0.21500115 0.01261043 0.05245746
v 0.23500624 0.01230287 0.05192603
v 0.28499338 0.01098216 0.05071655
v 0.28559881 0.01552322 0.04505399
v 0.28559881 -0.04611579 0.05324546
v 0.23500624 -0.03034872 0.07026979
v 0.21500115 -0.02499353 0.07512604
v 0.19848374 -0.02499353 0.07646379
v 0.19848374 0.00923630 0.05606757
v 0.20500714 0.00714668 0.05769854
v 0.20500714 -0.00905459 0.07076459
v 0.21500115 -0.00938024 0.07048970
v 0.22328117 -0.00971494 0.07021482
v 0.22994953 -0.01001346 0.06999491
v 0.19848374 0.00729142 0.05780849
v 0.28499338 0.00499375 0.05515131
v 0.28559881 0.01094598 0.05069822
v 0.27499935 -0.00530957 0.06348938
v 0.28559881 -0.04346533 0.05520628
v 0.28559881 -0.03349671 0.06257311
v 0.24002883 -0.02999593 0.06999491
v 0.27499935 -0.02236116 0.07135099
v 0.26499683 -0.02313911 0.07180913
v 0.25499427 -0.02389897 0.07226726
v 0.22500369 -0.02499353 0.07428306
v 0.19848374 -0.02151989 0.07617059
v 0.28559881 -0.02146561 0.07081956
v 0.28559881 -0.01829049 0.07081956
v 0.19848374 -0.00713685 0.06950013
v 0.19848374 -0.00888271 0.07091118
v 0.19848374 -0.01293529 0.07398985
v 0.19848374 -0.01500681 0.07549255
v 0.20500714 -0.01500681 0.07508938
v 0.21500115 -0.01500681 0.07444799
v 0.23500624 -0.01023056 0.06981166
v 0.28499338 -0.00577091 0.06312287
v 0.28559881 0.00504803 0.05505968
v 0.24499172 -0.01068286 0.06946348
v 0.28559881 -0.02639565 0.06761260
v 0.27499935 -0.02735452 0.06810740
v 0.26499683 -0.02813247 0.06865716
v 0.25499427 -0.02889233 0.06918859
v 0.27499935 -0.01738590 0.07135099
v 0.28499338 -0.01322476 0.06812572
v 0.28559881 -0.01334236 0.06812572
v 0.26499683 -0.01675268 0.07180913
v 0.25499427 -0.01618279 0.07226726
v 0.24499172 -0.01568526 0.07270707
v 0.27499935 -0.01238349 0.06849223
v 0.25499427 -0.01118038 0.06911530
v 0.28559881 -0.01281770 0.06779586
v 0.28559881 -0.00581614 0.06308623
v 0.28559881 -0.00551763 0.06286632
v 0.28559881 -0.00040667 0.05909127
f 1 2 10
f 1 10 23
f 1 23 41
f 1 41 58
f 1 58 63
f 1 63 62
f 1 62 60
f 1 60 74
f 1 74 94
f 1 94 93
f 1 93 92
f 1 92 91
f 1 91 79
f 1 79 64
f 1 64 49
f 1 49 31
f 1 31 19
f 1 19 3
f 1 3 4
f 1 4 5
f 1 5 6
f 1 6 7
f 1 7 8
f 1 8 9
f 1 9 2
f 2 9 11
f 2 11 12
f 2 12 13
f 2 13 14
f 2 14 15
f 2 15 16
f 2 16 10
f 3 17 18
f 3 18 4
f 3 19 20
f 3 20 17
f 4 18 17
f 4 17 20
f 4 20 34
f 4 34 33
f 4 33 32
f 4 32 31
f 4 31 49
f 4 49 65
f 4 65 80
f 4 80 96
f 4 96 95
f 4 95 78
f 4 78 99
f 4 99 113
f 4 113 124
f 4 124 122
f 4 122 133
f 4 133 147
f 4 147 163
f 4 163 166
f 4 166 181
f 4 181 199
f 4 199 205
f 4 205 204
f 4 204 203
f 4 203 202
f 4 202 188
f 4 188 182
f 4 182 168
f 4 168 167
f 4 167 149
f 4 149 136
f 4 136 125
f 4 125 114
f 4 114 100
f 4 100 83
f 4 83 82
f 4 82 81
f 4 81 68
f 4 68 67
f 4 67 66
f 4 66 51
f 4 51 55
f 4 55 54
f 4 54 53
f 4 53 50
f 4 50 35
f 4 35 21
f 4 21 9
f 4 9 8
f 4 8 7
f 4 7 6
f 4 6 5
f 9 21 24
f 9 24 11
f 10 16 22
f 10 22 23
f 11 24 25
f 11 25 12
f 12 25 26
f 12 26 13
f 13 26 27
f 13 27 14
f 14 27 48
f 14 48 57
f 14 57 72
f 14 72 84
f 14 84 87
f 14 87 86
f 14 86 85
f 14 85 90
f 14 90 89
f 14 89 102
f 14 102 116
f 14 116 128
f 14 128 141
f 14 141 160
f 14 160 177
f 14 177 190
f 14 190 210
f 14 210 227
f 14 227 226
f 14 226 225
f 14 225 224
f 14 224 218
f 14 218 201
f 14 201 200
f 14 200 212
f 14 212 193
f 14 193 192
f 14 192 178
f 14 178 161
f 14 161 142
f 14 142 129
f 14 129 117
f 14 117 105
f 14 105 104
f 14 104 103
f 14 103 97
f 14 97 76
f 14 76 61
f 14 61 44
f 14 44 43
f 14 43 42
f 14 42 40
f 14 40 39
f 14 39 29
f 14 29 30
f 14 30 28
f 14 28 15
f 15 28 16
f 16 29 22
f 16 28 30
f 16 30 29
f 19 31 32
f 19 32 33
f 19 33 34
f 19 34 20
f 21 35 36
f 21 36 37
f 21 37 38
f 21 38 24
f 22 29 39
f 22 39 40
f 22 40 23
f 23 40 42
f 23 42 43
f 23 43 44
f 23 44 45
f 23 45 46
f 23 46 41
f 24 38 25
f 25 38 26
f 26 47 27
f 26 38 47
f 27 47 38
f 27 38 48
f 35 50 36
f 36 51 52
f 36 52 69
f 36 69 83
f 36 83 100
f 36 100 115
f 36 115 126
f 36 126 137
f 36 137 138
f 36 138 127
f 36 127 116
f 36 116 102
f 36 102 101
f 36 101 88
f 36 88 71
f 36 71 56
f 36 56 38
f 36 38 37
f 36 50 53
f 36 53 54
f 36 54 55
f 36 55 51
f 38 56 57
f 38 57 48
f 41 46 58
f 44 59 60
f 44 60 46
f 44 46 45
f 44 61 59
f 46 60 62
f 46 62 63
f 46 63 58
f 49 64 65
f 51 66 52
f 52 66 67
f 52 67 68
f 52 68 69
f 56 70 57
f 56 71 70
f 57 70 72
f 59 73 74
f 59 74 60
f 59 61 73
f 61 75 73
f 61 76 77
f 61 77 78
f 61 78 75
f 64 79 73
f 64 73 65
f 65 73 80
f 68 81 69
f 69 81 82
f 69 82 83
f 70 84 72
f 70 71 85
f 70 85 86
f 70 86 87
f 70 87 84
f 71 88 89
f 71 89 90
f 71 90 85
f 73 79 91
f 73 91 92
f 73 92 93
f 73 93 94
f 73 94 74
f 73 75 80
f 75 78 95
f 75 95 96
f 75 96 80
f 76 97 98
f 76 98 77
f 77 98 99
f 77 99 78
f 88 101 89
f 89 101 102
f 97 103 98
f 98 103 104
f 98 104 105
f 98 105 99
f 99 106 107
f 99 107 108
f 99 108 109
f 99 109 110
f 99 110 111
f 99 111 112
f 99 112 113
f 99 105 106
f 100 114 115
f 105 117 118
f 105 118 110
f 105 110 109
f 105 109 108
f 105 108 107
f 105 107 119
f 105 119 106
f 106 119 107
f 110 118 120
f 110 120 121
f 110 121 111
f 111 121 122
f 111 122 112
f 112 122 123
f 112 123 113
f 113 123 124
f 114 125 126
f 114 126 115
f 116 127 128
f 117 129 118
f 118 129 130
f 118 130 131
f 118 131 120
f 120 132 121
f 120 131 132
f 121 132 122
f 122 124 123
f 122 132 133
f 125 134 135
f 125 135 126
f 125 136 134
f 126 135 137
f 127 138 139
f 127 139 140
f 127 140 128
f 128 140 141
f 129 142 143
f 129 143 130
f 130 144 145
f 130 145 132
f 130 132 131
f 130 143 146
f 130 146 144
f 132 145 147
f 132 147 133
f 134 136 148
f 134 148 135
f 135 148 137
f 136 149 139
f 136 139 150
f 136 150 148
f 137 148 150
f 137 150 139
f 137 139 138
f 139 149 140
f 140 149 151
f 140 151 152
f 140 152 153
f 140 153 154
f 140 154 155
f 140 155 156
f 140 156 157
f 140 157 158
f 140 158 141
f 141 158 159
f 141 159 160
f 142 161 143
f 143 161 162
f 143 162 146
f 144 146 163
f 144 163 147
f 144 147 145
f 146 162 164
f 146 164 165
f 146 165 166
f 146 166 163
f 149 167 151
f 151 167 152
f 152 167 153
f 153 167 168
f 153 168 154
f 154 168 155
f 155 168 156
f 156 168 169
f 156 169 157
f 157 169 158
f 158 170 171
f 158 171 172
f 158 172 173
f 158 173 159
f 158 169 174
f 158 174 175
f 158 175 170
f 159 173 176
f 159 176 177
f 159 177 160
f 161 178 179
f 161 179 162
f 162 179 164
f 164 179 180
f 164 180 181
f 164 181 165
f 165 181 166
f 168 182 169
f 169 182 174
f 170 175 174
f 170 174 183
f 170 183 171
f 171 183 173
f 171 173 172
f 173 183 184
f 173 184 185
f 173 185 186
f 173 186 187
f 173 187 176
f 174 182 188
f 174 188 183
f 176 189 190
f 176 190 177
f 176 187 191
f 176 191 189
f 178 192 179
f 179 193 194
f 179 194 195
f 179 195 196
f 179 196 197
f 179 197 198
f 179 198 180
f 179 192 193
f 180 198 195
f 180 195 181
f 181 195 200
f 181 200 201
f 181 201 199
f 183 188 202
f 183 202 203
f 183 203 184
f 184 203 204
f 184 204 185
f 185 204 205
f 185 205 206
f 185 206 186
f 186 206 207
f 186 207 187
f 187 207 208
f 187 208 191
f 189 191 209
f 189 209 190
f 190 209 210
f 191 208 211
f 191 211 209
f 193 212 213
f 193 213 214
f 193 214 215
f 193 215 194
f 194 215 195
f 195 198 196
f 195 215 214
f 195 214 200
f 196 198 197
f 199 201 216
f 199 216 205
f 200 214 212
f 201 217 216
f 201 218 217
f 205 216 206
f 206 216 219
f 206 219 220
f 206 220 207
f 207 220 221
f 207 221 222
f 207 222 223
f 207 223 211
f 207 211 208
f 209 211 223
f 209 223 222
f 209 222 217
f 209 217 224
f 209 224 225
f 209 225 226
f 209 226 227
f 209 227 210
f 212 214 213
f 216 217 222
f 216 222 219
f 217 218 224
f 219 222 220
f 220 222 221

