# https://github.com/mikedh/trimesh
v 0.15497151 -0.02060828 -0.11162519
v 0.16499138 -0.01504674 -0.10975365
v 0.19672099 -0.01691717 -0.10900886
v 0.17496487 -0.02422974 -0.11013560
v 0.16499138 -0.02598078 -0.11036477
v 0.12495828 -0.02621955 -0.11040296
v 0.14499803 -0.02067792 -0.11154880
v 0.12495828 -0.01542481 -0.10948630
v 0.15497151 -0.00961455 -0.10530398
v 0.16499138 0.00142893 -0.09617546
v 0.17496487 -0.01271866 -0.10776754
v 0.19672099 -0.00474945 -0.10018590
v 0.19713847 0.00509018 -0.09210774
v 0.19760236 -0.03035837 -0.10515121
v 0.18498474 -0.02742339 -0.10837865
v 0.15497151 -0.03179104 -0.10673628
v 0.12495828 -0.03498469 -0.10463557
v 0.10496491 -0.03451708 -0.10375710
v 0.04391791 -0.03007980 -0.10010951
v 0.11498480 -0.02454811 -0.11023109
v 0.10297021 -0.01796182 -0.10839774
v 0.11498480 -0.01322606 -0.10729010
v 0.13497815 0.00914941 -0.08922404
v 0.13497815 -0.00683876 -0.10263035
v 0.14499803 0.00425446 -0.09354004
v 0.17496487 0.00682133 -0.09149662
v 0.17496487 -0.00416245 -0.10068243
v 0.18498474 -0.00439128 -0.10047236
v 0.19848374 0.02657024 -0.03498766
v 0.18498474 0.00661239 -0.09134384
v 0.19672099 0.01338771 -0.08402957
v 0.19848374 -0.05125143 -0.08786813
v 0.17496487 -0.03709389 -0.10173278
v 0.16387807 -0.04149139 -0.09869631
v 0.14499803 -0.03757145 -0.10224841
v 0.12495828 -0.04529193 -0.09607998
v 0.11377870 -0.03850666 -0.10135084
v 0.10496491 -0.05052514 -0.09042718
v 0.02499148 -0.02715477 -0.09892548
v -0.02501511 -0.03109460 -0.09094280
v 0.01613132 -0.02238916 -0.09940291
v -0.03503498 -0.01544471 -0.08947231
v 0.06497820 -0.01095767 -0.09917374
v 0.09499143 -0.00863954 -0.10112167
v 0.10496491 -0.00536629 -0.09967028
v 0.10496491 0.00560754 -0.09048446
v 0.11498480 0.00726903 -0.08975877
v -0.02501511 -0.01456919 -0.09023620
v 0.17496487 0.01340761 -0.08441152
v 0.16499138 0.01137800 -0.08697056
v 0.08497155 0.01170632 -0.08198616
v 0.10496491 0.01439257 -0.07917885
v 0.19672099 0.01875027 -0.07144444
v 0.18498474 0.01950639 -0.06768227
v 0.17496487 0.01786480 -0.07497744
v 0.16499138 0.01772551 -0.07497744
v 0.15497151 0.01754643 -0.07497744
v 0.13497815 0.01717831 -0.07497744
v 0.12495828 0.01698928 -0.07497744
v 0.12495828 0.02722688 -0.02498067
v 0.19848374 0.02894807 -0.02085565
v 0.18498474 0.01341756 -0.08423964
v 0.18498474 0.01793444 -0.07497744
v 0.19848374 -0.05998672 -0.07427084
v 0.18498474 -0.05955891 -0.07809030
v 0.17496487 -0.05300247 -0.08773445
v 0.15497151 -0.05108229 -0.09088551
v 0.12495828 -0.05380834 -0.08825008
v 0.11498480 -0.05363921 -0.08815459
v 0.08497155 -0.05441523 -0.08410596
v 0.07499807 -0.05390783 -0.08345665
v 0.06497820 -0.05328104 -0.08280734
v 0.04498484 -0.05185832 -0.08156601
v 0.03496496 -0.05112209 -0.08093581
v -0.02501511 -0.02498587 -0.09329177
v -0.02501511 -0.04946060 -0.07455730
v -0.03939549 -0.04823686 -0.07329687
v -0.04347766 -0.03886483 -0.08082122
v -0.03526693 -0.03168160 -0.08853654
v -0.07655252 -0.03042801 -0.08036289
v -0.09770559 -0.01956362 -0.08034379
v -0.04570430 -0.01757381 -0.08853654
v -0.11041598 -0.00990307 -0.07006943
v -0.10874600 0.00107076 -0.06092182
v -0.03503498 -0.00734616 -0.08234901
v 0.09499143 0.00232434 -0.09193586
v -0.01504163 -0.01128599 -0.08884209
v 0.09499143 0.00731878 -0.08769625
v 0.09499143 0.01386527 -0.07883510
v 0.07499807 0.01116907 -0.08127955
v -0.00817616 0.01028360 -0.07035589
v 0.11498480 0.01670076 -0.07497744
v 0.11762892 0.02045156 -0.05719784
v 0.11498480 0.02693836 -0.02498067
v 0.11498480 0.02778403 -0.01497367
v 0.12495828 0.02803275 -0.01497367
v 0.19848374 0.02804270 -0.00502397
v 0.14499803 0.02840087 -0.01497367
v 0.15497151 0.02857995 -0.01497367
v 0.19848374 -0.07004523 -0.02742512
v 0.17496487 -0.05971809 -0.07877780
v 0.16499138 -0.05984743 -0.07935072
v 0.16499138 -0.05339048 -0.08786813
v 0.13497815 -0.05623592 -0.08525180
v 0.13497815 -0.06012600 -0.08024830
v 0.09930554 -0.05906145 -0.08040108
v -0.03503498 -0.05548973 -0.06497045
v -0.06495544 -0.05234583 -0.06294613
v -0.07492892 -0.05153000 -0.06180029
v -0.09084012 -0.04789859 -0.06172390
v -0.07492892 -0.04142174 -0.07123437
v -0.05493557 -0.03840717 -0.07856774
v -0.05493557 -0.03339284 -0.08296012
v -0.06495544 -0.03205966 -0.08175699
v -0.09496868 -0.03368136 -0.07314410
v -0.12368304 -0.02949280 -0.06964929
v -0.13829535 -0.01914576 -0.07075693
v -0.16496862 -0.01096762 -0.05924125
v -0.12498191 -0.01175360 -0.06850345
v -0.17350407 -0.00332673 -0.05133496
v -0.15865982 0.00100112 -0.05081934
v -0.09496868 0.00256312 -0.06220134
v -0.14497527 0.00249348 -0.05217525
v -0.04491569 0.00222485 -0.07196006
v -0.03503498 0.00324961 -0.07287674
v -0.02501511 0.00412513 -0.07367882
v -0.01504163 -0.00067033 -0.07938892
v 0.00499812 0.00092152 -0.08080213
v 0.06187018 0.01034330 -0.08036289
v -0.08499519 0.00355803 -0.06313711
v -0.06458434 0.00994533 -0.05975688
v 0.00499812 0.01280072 -0.06497045
v 0.01497161 0.01340761 -0.06497045
v 0.02499148 0.01395481 -0.06497045
v 0.08497155 0.01719821 -0.06497045
v 0.10496491 0.01895919 -0.06164752
v 0.10496491 0.02442124 -0.03498766
v 0.10496491 0.02647075 -0.02498067
v 0.01497161 0.02367506 -0.01497367
v 0.02499148 0.02411282 -0.01497367
v 0.03496496 0.02454063 -0.01497367
v 0.05495832 0.02537635 -0.01497367
v 0.10496491 0.02741591 -0.01497367
v 0.00499812 0.02328704 -0.00502397
v 0.01497161 0.02364521 -0.00502397
v 0.02499148 0.02396358 -0.00502397
v 0.03496496 0.02426205 -0.00502397
v 0.04498484 0.02456053 -0.00502397
v 0.08497155 0.02572457 -0.00502397
v 0.09499143 0.02601309 -0.00502397
v 0.10496491 0.02629166 -0.00502397
v 0.11498480 0.02656029 -0.00502397
v 0.12495828 0.02677917 -0.00502397
v 0.19848374 0.01832246 0.03995021
v 0.16499138 0.02748555 -0.00502397
v 0.16499138 0.02542609 0.00498302
v 0.15497151 0.01951635 0.03271233
v 0.17496487 0.01914823 0.03588248
v 0.15497151 0.02731642 -0.00502397
v 0.19848374 -0.06307093 0.02845363
v 0.19801986 -0.07061233 -0.00926358
v 0.17496487 -0.07174653 -0.01497367
v 0.12495828 -0.07184602 -0.02498067
v 0.12495828 -0.06563779 -0.05498255
v 0.14499803 -0.06114081 -0.07497744
v 0.15464678 -0.05917089 -0.08085942
v 0.12495828 -0.06085229 -0.07768926
v 0.11498480 -0.06085229 -0.07768926
v 0.03496496 -0.05959870 -0.06815970
v 0.02499148 -0.05934998 -0.06712845
v -0.00502175 -0.05813619 -0.06497045
v -0.01504163 -0.05739996 -0.06497045
v -0.04491569 -0.05824563 -0.05498255
v -0.05493557 -0.05713133 -0.05498255
v -0.06495544 -0.05591755 -0.05498255
v -0.02501511 -0.05797700 -0.06099821
v -0.12776521 -0.05061468 -0.04787835
v -0.18496199 -0.04234701 -0.04256929
v -0.15879899 -0.04131230 -0.05112489
v -0.10498855 -0.04306334 -0.06264058
v -0.08518074 -0.04004877 -0.07003124
v -0.10498855 -0.03726303 -0.06764407
v -0.16213894 -0.02967189 -0.05973778
v -0.21279497 -0.02131466 -0.05080024
v -0.27541918 -0.01196253 -0.03101542
v -0.20022374 -0.00992297 -0.05005544
v -0.18496199 -0.00497828 -0.05001725
v -0.19883209 0.00134933 -0.04119429
v -0.18496199 0.00512998 -0.03899810
v -0.11496203 0.00947773 -0.04780196
v -0.09919001 0.01048258 -0.04778286
v -0.05493557 0.01158693 -0.05498255
v -0.03995214 0.01246245 -0.05498255
v -0.19498186 0.00595575 -0.03498766
v -0.03503498 0.01691964 -0.03498766
v -0.03443194 0.02027247 -0.01909869
v -0.02501511 0.02163550 -0.01497367
v 0.05495832 0.02382429 -0.02498067
v -0.01504163 0.02216280 -0.01497367
v 0.00499812 0.02319750 -0.01497367
v -0.12498191 0.01766581 -0.00502397
v -0.11496203 0.01813342 -0.00502397
v -0.10498855 0.01858113 -0.00502397
v -0.03503498 0.02167529 -0.00502397
v -0.02501511 0.02209315 -0.00502397
v -0.00502175 0.02289903 -0.00502397
v -0.14497527 0.01675050 0.00498302
v -0.13495539 0.01712857 0.00498302
v -0.12498191 0.01745689 0.00498302
v -0.10498855 0.01807373 0.00498302
v -0.03503498 0.02060079 0.00288232
v 0.06497820 0.02307811 0.00498302
v 0.08497155 0.02365516 0.00498302
v 0.10496491 0.02056100 0.02270534
v 0.11498480 0.02449088 0.00498302
v 0.12495828 0.01850154 0.03498491
v 0.14592579 0.02078982 0.02579910
v 0.19848374 -0.01099747 0.07245384
v 0.17496487 0.01702908 0.04497280
v 0.18498474 0.01702908 0.04497280
v 0.19760236 0.01070146 0.05454056
v 0.16499138 0.01803393 0.04029396
v 0.19848374 -0.06077269 0.03924361
v 0.18498474 -0.06128010 0.03867069
v 0.19672099 -0.06595616 0.01497092
v 0.19672099 -0.06804547 0.00498302
v 0.18498474 -0.07067202 -0.00672363
v 0.16499138 -0.07192561 -0.01497367
v 0.14499803 -0.07228377 -0.01497367
v 0.12495828 -0.07264194 -0.01497367
v 0.11498480 -0.07269169 -0.01497367
v 0.11498480 -0.07184602 -0.02498067
v 0.11498480 -0.06355843 -0.06497045
v 0.10496491 -0.06325996 -0.06497045
v -0.01504163 -0.06064336 -0.05305372
v 0.01497161 -0.05906145 -0.06611629
v -0.03586997 -0.06010611 -0.05028461
v -0.03503498 -0.06549850 -0.02498067
v -0.04491569 -0.06454340 -0.02498067
v -0.05493557 -0.06345895 -0.02498067
v -0.10498855 -0.05591755 -0.03498766
v -0.10498855 -0.05381829 -0.04497556
v -0.11496203 -0.05271394 -0.04497556
v -0.15133047 -0.05039581 -0.03689739
v -0.17076716 -0.04933126 -0.03139737
v -0.18496199 -0.04624704 -0.03498766
v -0.22773200 -0.04129241 -0.02755880
v -0.27528000 -0.03398978 -0.01860216
v -0.24879229 -0.03182089 -0.03145466
v -0.20096596 -0.03792962 -0.04169082
v -0.17355046 -0.03655665 -0.05123948
v -0.18496199 -0.03447729 -0.04957801
v -0.19498186 -0.03000020 -0.04999815
v -0.20495534 -0.02797059 -0.04841308
v -0.25004476 -0.01999143 -0.03999116
v -0.27532640 -0.02356315 -0.02908659
v -0.27541918 -0.00832117 0.04865859
v -0.27541918 -0.00103845 -0.02431226
v -0.27541918 0.00546825 -0.01476360
v -0.15499514 0.00934839 -0.03693559
v -0.08499519 0.01399461 -0.03498766
v -0.17498849 0.01491987 -0.00502397
v -0.16496862 0.01553671 -0.00502397
v -0.04491569 0.02077988 -0.01377054
v -0.13495539 0.01718826 -0.00502397
v -0.17498849 0.01543722 0.00498302
v -0.16496862 0.01591478 0.00498302
v -0.15499514 0.01634259 0.00498302
v -0.27541918 0.00919915 0.02056643
v -0.17498849 0.01383542 0.01497092
v -0.16496862 0.01416374 0.01497092
v -0.15499514 0.01447216 0.01497092
v -0.12498191 0.01328822 0.02497791
v -0.08499519 0.01867067 0.00498302
v -0.10498855 0.01178591 0.03498491
v 0.02499148 0.01354690 0.04497280
v -0.01504163 0.02037197 0.00679727
v 0.10496491 0.01801403 0.03498491
v 0.11498480 0.01896914 0.03166198
v 0.11498480 0.01608391 0.04497280
v 0.12495828 0.01629284 0.04497280
v 0.19848374 -0.02325473 0.07629240
v 0.17496487 0.00786598 0.05822634
v 0.17496487 -0.01125615 0.07401983
v 0.13497815 -0.01818070 0.08148687
v 0.17946453 -0.02259809 0.07906152
v 0.17496487 0.01288031 0.05324195
v 0.15497151 0.01682014 0.04497280
v 0.13497815 0.01263158 0.05314646
v 0.19672099 -0.04578938 0.06107184
v 0.19672099 -0.05626576 0.05049193
v 0.18498474 -0.05926044 0.04735997
v 0.17496487 -0.05946936 0.04802838
v 0.18498474 -0.06415538 0.02497791
v 0.16499138 -0.06017575 0.04608045
v 0.17496487 -0.06145918 0.03901444
v 0.18498474 -0.06622478 0.01497092
v 0.17496487 -0.07076156 -0.00628439
v 0.16499138 -0.06249388 0.03498491
v 0.11498480 -0.07145800 -0.00502397
v 0.10496491 -0.07134856 -0.00502397
v 0.02499148 -0.07048299 -0.00762121
v 0.01497161 -0.07036360 -0.00813683
v 0.00128706 -0.07014473 -0.00939726
v 0.10496491 -0.07247281 -0.01497367
v 0.10496491 -0.07154754 -0.02498067
v 0.09448116 -0.07093070 -0.02587824
v 0.07499807 -0.06823450 -0.03498766
v -0.01504163 -0.06862251 -0.01497367
v -0.02501511 -0.06820466 -0.01497367
v -0.01504163 -0.06653321 -0.02498067
v -0.00502175 -0.06486176 -0.03498766
v -0.01504163 -0.06443395 -0.03498766
v -0.02501511 -0.06400614 -0.03498766
v -0.03503498 -0.06758781 -0.01497367
v -0.04491569 -0.06664265 -0.01497367
v -0.05493557 -0.06555820 -0.01497367
v -0.11185402 -0.06019565 -0.01100143
v -0.12498191 -0.05583795 -0.02498067
v -0.16496862 -0.05565887 -0.00502397
v -0.12498191 -0.05372875 -0.03498766
v -0.13495539 -0.05262440 -0.03498766
v -0.15499514 -0.05252491 -0.02498067
v -0.17498849 -0.05449483 -0.00502397
v -0.18315284 -0.04957999 -0.02284177
v -0.19498186 -0.04728175 -0.02498067
v -0.20495534 -0.04570979 -0.02498067
v -0.21497522 -0.04412789 -0.02498067
v -0.25208586 -0.03961101 -0.01841119
v -0.27481613 -0.04020795 0.00106807
v -0.27518725 -0.03374106 0.03834604
v -0.27528000 -0.02320498 0.04858220
v -0.26215214 -0.02910479 -0.02931576
v -0.26140991 -0.03980004 -0.01088685
v -0.23190695 -0.02889585 -0.03915088
v -0.27541918 0.00351823 0.03832694
v -0.20676449 -0.01936464 0.06067080
v -0.12321915 -0.02009092 0.07027675
v 0.00499812 -0.01819065 0.08232716
v -0.18496199 0.00116030 0.05089297
v -0.27541918 0.00925885 -0.00057430
v -0.17313297 0.00965681 -0.03006055
v -0.15499514 0.01611376 -0.00502397
v -0.14497527 0.01667091 -0.00502397
v -0.22499509 0.00765705 0.03498491
v -0.20495534 0.00847287 0.03498491
v -0.18496199 0.00907976 0.03569151
v -0.17498849 0.00978615 0.03401095
v -0.15499514 0.01065172 0.03303698
v -0.14497527 0.01081090 0.03380087
v -0.12975991 0.00998513 0.03995021
v -0.11496203 0.01148744 0.03498491
v -0.11496203 0.01021396 0.04096237
v 0.04498484 0.01413389 0.04497280
v -0.05757970 0.01000503 0.04991901
v 0.05495832 0.01442242 0.04497280
v 0.07499807 0.01499946 0.04497280
v 0.09499143 0.01556656 0.04497280
v 0.10496491 0.01583519 0.04497280
v -0.03503498 0.01034330 0.05051102
v -0.01504163 0.01065172 0.05093117
v 0.01497161 0.01109943 0.05150409
v 0.04498484 0.01153719 0.05201972
v 0.05495832 0.01167647 0.05219159
v 0.07499807 0.01195505 0.05247805
v 0.08497155 0.01209433 0.05261173
v 0.19672099 -0.03573087 0.06926459
v 0.16499138 0.01045274 0.05583918
v 0.12495828 -0.01797177 0.08179243
v 0.09499143 -0.02420984 0.08242264
v 0.13497815 -0.02568230 0.08015006
v 0.14499803 -0.02762237 0.07856499
v 0.18498474 -0.03550204 0.07039133
v 0.10496491 0.01233311 0.05284090
v 0.11498480 0.01245250 0.05295549
v 0.12495828 0.01255199 0.05305097
v 0.15497151 0.01040299 0.05580098
v 0.17496487 -0.03592985 0.07075419
v 0.18498474 -0.04653557 0.06126282
v 0.18498474 -0.05426600 0.05417771
v 0.15497151 -0.05974794 0.04902144
v 0.14314249 -0.06040458 0.04703531
v 0.12495828 -0.07078146 -0.00206389
v 0.12495828 -0.06320027 0.03498491
v 0.11498480 -0.06326991 0.03498491
v 0.10496491 -0.06315053 0.03498491
v 0.06497820 -0.07084116 -0.00592154
v 0.05495832 -0.07075161 -0.00634169
v 0.03496496 -0.07057253 -0.00718197
v -0.02501511 -0.06701076 0.00498302
v -0.02501511 -0.06865236 -0.00502397
v -0.03995214 -0.06776689 -0.00502397
v 0.06497820 -0.07046309 -0.02223065
v -0.12785798 -0.06017575 0.00070522
v -0.14497527 -0.05779792 -0.00502397
v -0.15499514 -0.05674332 -0.00502397
v -0.17498849 -0.05499228 0.00498302
v -0.18496199 -0.05373870 0.00498302
v -0.21061471 -0.05008738 -0.00049791
v -0.18496199 -0.05310196 -0.00502397
v -0.22499509 -0.04690368 -0.00502397
v -0.23496857 -0.04535162 -0.00502397
v -0.24498846 -0.04378962 -0.00502397
v -0.26498181 -0.04259573 0.00498302
v -0.27416670 -0.04012836 0.01882858
v -0.26498181 -0.03721328 0.03498491
v -0.23617467 -0.04013831 0.04012209
v -0.23557162 -0.03011959 0.05007179
v -0.26498181 -0.02435908 0.04947978
v -0.19498186 -0.02251850 0.06145379
v -0.17498849 0.00170750 0.05135131
v -0.17498849 0.00597565 0.04497280
v -0.16496862 0.00656265 0.04497280
v 0.00499812 -0.02459786 0.08232716
v 0.01497161 -0.02135446 0.08307195
v 0.02499148 -0.02131466 0.08347300
v -0.10498855 0.00398584 0.05356660
v -0.11496203 0.00371721 0.05326104
v -0.12498191 0.00341874 0.05297458
v -0.13495539 0.00311032 0.05268812
v -0.14497527 0.00280190 0.05238257
v -0.15499514 0.00247358 0.05207701
v -0.16496862 0.00213531 0.05173326
v -0.16496862 0.00941803 0.03727658
v -0.15499514 0.00957722 0.03804048
v 0.00499812 -0.02959229 0.07971083
v 0.07499807 -0.02929382 0.07950076
v 0.09499143 -0.02921423 0.07942437
v 0.12495828 -0.02612006 0.08041742
v 0.16499138 -0.03371121 0.07308406
v 0.15497151 -0.04979886 0.05981142
v 0.17496487 -0.05194786 0.05700412
v 0.16499138 -0.05216675 0.05721419
v 0.12621076 -0.05252491 0.05753884
v 0.12792712 -0.06030509 0.04877317
v 0.11498480 -0.06065330 0.04755094
v 0.10273828 -0.06022549 0.04900234
v -0.02501511 -0.05918084 0.04214640
v -0.03503498 -0.06248393 0.02497791
v -0.03995214 -0.06631432 0.00498302
v -0.05493557 -0.06518014 0.00498302
v -0.16496862 -0.05423615 0.01497092
v -0.17498849 -0.05337058 0.01497092
v -0.16496862 -0.05600709 0.00498302
v -0.08499519 -0.06278241 0.00498302
v -0.09496868 -0.06198648 0.00498302
v -0.11101903 -0.06058366 0.00553684
v -0.18496199 -0.05224634 0.01497092
v -0.21056832 -0.05005754 0.01029208
v -0.25496194 -0.04401845 0.00498302
v -0.26498181 -0.04230721 0.01497092
v -0.26498181 -0.03939213 0.02744147
v -0.18630725 -0.03766099 0.05240166
v -0.18018399 -0.04941085 0.03078350
v -0.16496862 -0.04945064 0.03744846
v -0.15397459 -0.04990830 0.03954917
v -0.11626091 -0.05097286 0.04757004
v -0.10498855 -0.05069428 0.05081658
v -0.19498186 -0.02752288 0.05824544
v -0.18496199 -0.02613996 0.06057531
v -0.17498849 -0.02708513 0.06120552
v 0.11498480 -0.05255476 0.05757704
v -0.17498849 -0.03821814 0.05350930
v -0.03503498 -0.05105245 0.05637390
v -0.02501511 -0.05127133 0.05656487
v -0.04491569 -0.05310196 0.05347111
v -0.09496868 -0.05109224 0.05127492
v -0.03995214 -0.05878288 0.04069501
v -0.04491569 -0.06390665 0.01497092
v -0.11496203 -0.05410681 0.03498491
v -0.08499519 -0.05652444 0.03498491
v -0.10498855 -0.05491269 0.03498491
v -0.09496868 -0.05344022 0.04497280
v -0.10498855 -0.05262440 0.04497280
f 1 2 3
f 1 3 4
f 1 4 5
f 1 5 6
f 1 6 7
f 1 7 8
f 1 8 2
f 2 9 10
f 2 10 11
f 2 11 3
f 2 8 9
f 3 11 12
f 3 12 13
f 3 13 14
f 3 14 15
f 3 15 4
f 4 15 5
f 5 15 16
f 5 16 6
f 6 17 18
f 6 18 19
f 6 19 20
f 6 20 7
f 6 16 17
f 7 20 8
f 8 20 21
f 8 21 22
f 8 22 23
f 8 23 24
f 8 24 9
f 9 24 25
f 9 25 10
f 10 25 23
f 10 23 26
f 10 26 27
f 10 27 11
f 11 27 28
f 11 28 12
f 12 28 13
f 13 29 14
f 13 28 30
f 13 30 31
f 13 31 29
f 14 29 32
f 14 32 33
f 14 33 15
f 15 33 16
f 16 33 34
f 16 34 35
f 16 35 17
f 17 35 36
f 17 36 37
f 17 37 18
f 18 37 38
f 18 38 19
f 19 39 20
f 19 38 40
f 19 40 39
f 20 39 41
f 20 41 21
f 21 41 42
f 21 42 22
f 22 43 44
f 22 44 45
f 22 45 46
f 22 46 47
f 22 47 23
f 22 42 48
f 22 48 43
f 23 49 50
f 23 50 26
f 23 25 24
f 23 47 51
f 23 51 52
f 23 52 49
f 26 31 30
f 26 30 27
f 26 50 31
f 27 30 28
f 29 31 53
f 29 53 54
f 29 54 55
f 29 55 56
f 29 56 57
f 29 57 58
f 29 58 59
f 29 59 60
f 29 60 61
f 29 61 97
f 29 97 154
f 29 154 218
f 29 218 282
f 29 282 223
f 29 223 160
f 29 160 100
f 29 100 64
f 29 64 32
f 31 50 62
f 31 62 63
f 31 63 53
f 32 64 65
f 32 65 66
f 32 66 67
f 32 67 34
f 32 34 33
f 34 67 35
f 35 67 36
f 36 67 68
f 36 68 69
f 36 69 38
f 36 38 37
f 38 69 70
f 38 70 71
f 38 71 72
f 38 72 73
f 38 73 74
f 38 74 40
f 39 40 75
f 39 75 41
f 40 76 77
f 40 77 78
f 40 78 79
f 40 79 80
f 40 80 81
f 40 81 75
f 40 74 76
f 41 75 82
f 41 82 42
f 42 82 81
f 42 81 83
f 42 83 84
f 42 84 85
f 42 85 48
f 43 86 46
f 43 46 44
f 43 48 87
f 43 87 86
f 44 46 45
f 46 86 87
f 46 87 88
f 46 88 47
f 47 88 51
f 48 85 87
f 49 55 63
f 49 63 62
f 49 62 50
f 49 52 59
f 49 59 58
f 49 58 57
f 49 57 56
f 49 56 55
f 51 89 52
f 51 88 90
f 51 90 91
f 51 91 89
f 52 89 92
f 52 92 59
f 53 63 54
f 54 63 55
f 59 92 93
f 59 93 60
f 60 93 94
f 60 94 95
f 60 95 96
f 60 96 61
f 61 96 98
f 61 98 99
f 61 99 97
f 64 100 101
f 64 101 65
f 65 101 66
f 66 101 102
f 66 102 103
f 66 103 67
f 67 103 104
f 67 104 68
f 68 104 105
f 68 105 69
f 69 105 106
f 69 106 70
f 70 106 71
f 71 106 72
f 72 106 76
f 72 76 73
f 73 76 74
f 75 81 82
f 76 107 77
f 76 106 107
f 77 107 108
f 77 108 109
f 77 109 110
f 77 110 78
f 78 110 111
f 78 111 112
f 78 112 113
f 78 113 79
f 79 113 114
f 79 114 80
f 80 114 115
f 80 115 116
f 80 116 81
f 81 116 117
f 81 117 118
f 81 118 119
f 81 119 83
f 83 119 120
f 83 120 121
f 83 121 84
f 84 122 85
f 84 121 123
f 84 123 122
f 85 122 124
f 85 124 125
f 85 125 126
f 85 126 87
f 87 126 127
f 87 127 128
f 87 128 88
f 88 129 90
f 88 128 129
f 89 91 92
f 90 129 91
f 91 126 125
f 91 125 130
f 91 130 131
f 91 131 132
f 91 132 92
f 91 129 126
f 92 132 133
f 92 133 134
f 92 134 135
f 92 135 136
f 92 136 137
f 92 137 138
f 92 138 94
f 92 94 93
f 94 138 139
f 94 139 140
f 94 140 141
f 94 141 142
f 94 142 143
f 94 143 95
f 95 143 144
f 95 144 145
f 95 145 146
f 95 146 147
f 95 147 148
f 95 148 149
f 95 149 150
f 95 150 151
f 95 151 152
f 95 152 96
f 96 152 153
f 96 153 98
f 97 99 155
f 97 155 156
f 97 156 157
f 97 157 158
f 97 158 154
f 98 153 99
f 99 153 159
f 99 159 155
f 100 160 161
f 100 161 162
f 100 162 163
f 100 163 164
f 100 164 165
f 100 165 102
f 100 102 101
f 102 165 105
f 102 105 166
f 102 166 103
f 103 166 104
f 104 166 105
f 105 165 167
f 105 167 168
f 105 168 106
f 106 168 169
f 106 169 170
f 106 170 171
f 106 171 172
f 106 172 107
f 107 173 174
f 107 174 175
f 107 175 109
f 107 109 108
f 107 172 176
f 107 176 173
f 109 175 177
f 109 177 178
f 109 178 179
f 109 179 110
f 110 180 181
f 110 181 111
f 110 179 180
f 111 181 112
f 112 181 113
f 113 181 114
f 114 181 115
f 115 181 182
f 115 182 179
f 115 179 116
f 116 179 183
f 116 183 184
f 116 184 117
f 117 184 185
f 117 185 186
f 117 186 118
f 118 120 119
f 118 186 187
f 118 187 120
f 120 187 188
f 120 188 121
f 121 188 123
f 122 130 125
f 122 125 124
f 122 123 130
f 123 188 189
f 123 189 131
f 123 131 130
f 126 129 128
f 126 128 127
f 131 190 191
f 131 191 192
f 131 192 193
f 131 193 133
f 131 133 132
f 131 189 194
f 131 194 190
f 133 193 195
f 133 195 196
f 133 196 134
f 134 196 135
f 135 196 197
f 135 197 136
f 136 197 198
f 136 198 137
f 137 198 138
f 138 198 197
f 138 197 199
f 138 199 200
f 138 200 139
f 139 200 265
f 139 265 201
f 139 201 202
f 139 202 203
f 139 203 204
f 139 204 140
f 140 204 141
f 141 204 142
f 142 204 205
f 142 205 143
f 143 205 206
f 143 206 144
f 144 206 207
f 144 207 208
f 144 208 145
f 145 208 209
f 145 209 146
f 146 209 210
f 146 210 211
f 146 211 147
f 147 211 148
f 148 211 149
f 149 211 212
f 149 212 213
f 149 213 150
f 150 214 151
f 150 213 214
f 151 214 152
f 152 214 215
f 152 215 153
f 153 215 216
f 153 216 217
f 153 217 159
f 154 158 219
f 154 219 220
f 154 220 221
f 154 221 218
f 155 159 156
f 156 159 217
f 156 217 157
f 157 222 158
f 157 217 216
f 157 216 222
f 158 222 219
f 160 223 224
f 160 224 225
f 160 225 226
f 160 226 161
f 161 226 227
f 161 227 162
f 162 227 228
f 162 228 163
f 163 228 229
f 163 229 230
f 163 230 231
f 163 231 232
f 163 232 164
f 164 232 233
f 164 233 167
f 164 167 165
f 167 233 168
f 168 233 234
f 168 234 169
f 169 234 235
f 169 235 170
f 170 236 171
f 170 235 236
f 171 176 172
f 171 236 176
f 173 176 237
f 173 237 238
f 173 238 239
f 173 239 240
f 173 240 241
f 173 241 242
f 173 242 243
f 173 243 174
f 174 243 177
f 174 177 175
f 176 236 237
f 177 244 245
f 177 245 246
f 177 246 178
f 177 243 244
f 178 246 247
f 178 247 248
f 178 248 249
f 178 249 250
f 178 250 251
f 178 251 179
f 179 251 183
f 179 182 180
f 180 182 181
f 183 251 252
f 183 252 253
f 183 253 184
f 184 253 254
f 184 254 255
f 184 255 185
f 185 256 248
f 185 248 257
f 185 257 336
f 185 336 269
f 185 269 341
f 185 341 259
f 185 259 258
f 185 258 186
f 185 255 256
f 186 258 187
f 187 258 188
f 188 258 259
f 188 259 189
f 189 259 194
f 190 194 259
f 190 259 260
f 190 260 191
f 191 261 192
f 191 260 262
f 191 262 263
f 191 263 261
f 192 261 264
f 192 264 193
f 193 264 196
f 193 196 195
f 196 264 197
f 197 264 199
f 199 264 200
f 200 264 265
f 201 265 266
f 201 266 267
f 201 267 202
f 202 267 203
f 203 267 204
f 204 267 268
f 204 268 205
f 205 268 207
f 205 207 206
f 207 268 269
f 207 269 208
f 208 269 270
f 208 270 209
f 209 270 271
f 209 271 272
f 209 272 210
f 210 272 273
f 210 273 274
f 210 274 211
f 211 274 273
f 211 273 275
f 211 275 276
f 211 276 277
f 211 277 212
f 212 278 214
f 212 214 213
f 212 277 278
f 214 278 279
f 214 279 215
f 215 279 216
f 216 279 278
f 216 278 280
f 216 280 281
f 216 281 222
f 218 221 283
f 218 283 284
f 218 284 285
f 218 285 286
f 218 286 282
f 219 287 220
f 219 222 288
f 219 288 289
f 219 289 287
f 220 287 221
f 221 287 283
f 222 281 288
f 223 282 290
f 223 290 291
f 223 291 292
f 223 292 293
f 223 293 224
f 224 294 225
f 224 293 295
f 224 295 296
f 224 296 294
f 225 294 226
f 226 294 297
f 226 297 227
f 227 298 230
f 227 230 229
f 227 229 228
f 227 297 299
f 227 299 298
f 230 298 300
f 230 300 231
f 231 300 301
f 231 301 302
f 231 302 303
f 231 303 304
f 231 304 305
f 231 305 232
f 232 305 304
f 232 304 306
f 232 306 234
f 232 234 233
f 234 306 307
f 234 307 308
f 234 308 309
f 234 309 310
f 234 310 311
f 234 311 312
f 234 312 235
f 235 312 313
f 235 313 314
f 235 314 237
f 235 237 236
f 237 314 238
f 238 315 316
f 238 316 239
f 238 314 310
f 238 310 315
f 239 316 317
f 239 317 240
f 240 317 241
f 241 317 318
f 241 318 319
f 241 319 242
f 242 319 320
f 242 320 321
f 242 321 322
f 242 322 243
f 243 322 244
f 244 322 323
f 244 323 320
f 244 320 245
f 245 320 324
f 245 324 325
f 245 325 326
f 245 326 246
f 246 326 327
f 246 327 328
f 246 328 247
f 247 329 248
f 247 328 329
f 248 330 331
f 248 331 332
f 248 332 257
f 248 256 333
f 248 333 249
f 248 329 334
f 248 334 330
f 249 333 335
f 249 335 253
f 249 253 252
f 249 252 250
f 250 252 251
f 253 335 254
f 254 335 255
f 255 335 333
f 255 333 256
f 257 332 337
f 257 337 338
f 257 338 339
f 257 339 340
f 257 340 336
f 259 341 260
f 260 341 342
f 260 342 262
f 261 263 264
f 262 342 341
f 262 341 263
f 263 341 266
f 263 266 343
f 263 343 264
f 264 343 344
f 264 344 265
f 265 344 266
f 266 344 343
f 266 341 269
f 266 269 267
f 267 269 268
f 269 336 345
f 269 345 346
f 269 346 347
f 269 347 348
f 269 348 270
f 270 348 349
f 270 349 271
f 271 349 350
f 271 350 351
f 271 351 272
f 272 351 273
f 273 352 275
f 273 351 352
f 275 352 353
f 275 353 276
f 276 354 278
f 276 278 277
f 276 353 355
f 276 355 354
f 278 354 356
f 278 356 357
f 278 357 358
f 278 358 359
f 278 359 280
f 280 359 355
f 280 355 360
f 280 360 361
f 280 361 362
f 280 362 363
f 280 363 364
f 280 364 281
f 281 364 365
f 281 365 366
f 281 366 288
f 282 286 367
f 282 367 290
f 283 287 368
f 283 368 339
f 283 339 369
f 283 369 284
f 284 369 285
f 285 369 370
f 285 370 286
f 286 370 371
f 286 371 372
f 286 372 373
f 286 373 367
f 287 289 368
f 288 366 374
f 288 374 375
f 288 375 376
f 288 376 289
f 289 376 377
f 289 377 368
f 290 373 378
f 290 378 379
f 290 379 380
f 290 380 291
f 290 367 373
f 291 380 293
f 291 293 292
f 293 380 381
f 293 381 295
f 294 296 297
f 295 381 382
f 295 382 296
f 296 382 299
f 296 299 297
f 298 299 383
f 298 383 300
f 299 382 384
f 299 384 383
f 300 385 301
f 300 383 384
f 300 384 385
f 301 385 386
f 301 386 387
f 301 387 388
f 301 388 389
f 301 389 302
f 302 389 390
f 302 390 303
f 303 390 391
f 303 391 304
f 304 391 392
f 304 392 315
f 304 315 310
f 304 310 309
f 304 309 306
f 306 393 307
f 306 309 393
f 307 393 308
f 308 393 309
f 310 314 313
f 310 313 311
f 311 313 312
f 315 392 394
f 315 394 316
f 316 394 395
f 316 395 396
f 316 396 317
f 317 396 318
f 318 396 320
f 318 320 319
f 320 397 324
f 320 323 322
f 320 322 321
f 320 396 394
f 320 394 397
f 324 397 398
f 324 398 399
f 324 399 400
f 324 400 325
f 325 400 401
f 325 401 326
f 326 401 402
f 326 402 403
f 326 403 327
f 327 403 328
f 328 403 329
f 329 403 334
f 330 334 403
f 330 403 404
f 330 404 405
f 330 405 331
f 331 405 406
f 331 406 407
f 331 407 408
f 331 408 332
f 332 408 409
f 332 409 410
f 332 410 337
f 336 340 411
f 336 411 412
f 336 412 413
f 336 413 345
f 337 410 338
f 338 410 414
f 338 414 339
f 339 414 415
f 339 415 416
f 339 416 369
f 339 368 377
f 339 377 376
f 339 376 375
f 339 375 374
f 339 374 366
f 339 366 365
f 339 365 364
f 339 364 363
f 339 363 362
f 339 362 361
f 339 361 360
f 339 360 355
f 339 355 417
f 339 417 418
f 339 418 419
f 339 419 420
f 339 420 421
f 339 421 422
f 339 422 423
f 339 423 411
f 339 411 340
f 345 347 346
f 345 413 355
f 345 355 347
f 347 355 424
f 347 424 348
f 348 424 349
f 349 351 350
f 349 424 351
f 351 424 425
f 351 425 355
f 351 355 353
f 351 353 352
f 354 355 356
f 355 425 424
f 355 413 412
f 355 412 423
f 355 423 422
f 355 422 421
f 355 421 420
f 355 420 419
f 355 419 418
f 355 418 417
f 355 359 358
f 355 358 357
f 355 357 356
f 369 416 370
f 370 416 414
f 370 414 426
f 370 426 427
f 370 427 428
f 370 428 429
f 370 429 371
f 371 429 372
f 372 429 428
f 372 428 430
f 372 430 373
f 373 430 378
f 378 430 431
f 378 431 379
f 379 432 380
f 379 431 432
f 380 432 433
f 380 433 381
f 381 434 435
f 381 435 382
f 381 433 434
f 382 435 384
f 384 435 436
f 384 436 385
f 385 436 437
f 385 437 386
f 386 437 390
f 386 390 389
f 386 389 388
f 386 388 387
f 390 438 439
f 390 439 440
f 390 440 391
f 390 437 438
f 391 440 392
f 392 440 441
f 392 441 394
f 394 442 443
f 394 443 444
f 394 444 397
f 394 396 395
f 394 441 445
f 394 445 446
f 394 446 447
f 394 447 442
f 397 444 443
f 397 443 448
f 397 448 449
f 397 449 398
f 398 449 450
f 398 450 399
f 399 450 404
f 399 404 403
f 399 403 402
f 399 402 401
f 399 401 400
f 404 450 451
f 404 451 405
f 405 451 452
f 405 452 406
f 406 452 407
f 407 453 408
f 407 452 451
f 407 451 454
f 407 454 455
f 407 455 456
f 407 456 457
f 407 457 458
f 407 458 453
f 408 453 459
f 408 459 409
f 409 459 410
f 410 459 460
f 410 460 461
f 410 461 426
f 410 426 414
f 411 423 412
f 414 416 415
f 426 462 434
f 426 434 427
f 426 461 463
f 426 463 458
f 426 458 464
f 426 464 465
f 426 465 462
f 427 434 428
f 428 434 431
f 428 431 430
f 431 434 433
f 431 433 432
f 434 462 435
f 435 462 437
f 435 437 436
f 437 462 465
f 437 465 466
f 437 466 438
f 438 466 467
f 438 467 458
f 438 458 468
f 438 468 439
f 439 468 469
f 439 469 440
f 440 469 441
f 441 469 445
f 442 455 443
f 442 447 470
f 442 470 455
f 443 454 448
f 443 455 454
f 445 469 446
f 446 469 471
f 446 471 447
f 447 471 472
f 447 472 470
f 448 451 449
f 448 454 451
f 449 451 450
f 453 460 459
f 453 458 463
f 453 463 460
f 455 470 456
f 456 470 473
f 456 473 474
f 456 474 457
f 457 474 473
f 457 473 458
f 458 473 468
f 458 467 464
f 460 463 461
f 464 467 466
f 464 466 465
f 468 473 471
f 468 471 469
f 470 472 473
f 471 473 472

