# https://github.com/mikedh/trimesh
v 0.26530635 -0.07048555 -0.07499966
v 0.26320016 -0.07174148 -0.07499966
v 0.24362302 -0.08209255 -0.08499780
v 0.26209474 -0.07114299 -0.08202764
v 0.26245448 -0.07048555 -0.08211131
v 0.26528674 -0.07048555 -0.04500524
v 0.24400239 -0.08218099 -0.07499966
v 0.24943140 -0.07963376 -0.04500524
v 0.24443410 -0.08235199 -0.04500524
v 0.22481771 -0.09261166 -0.07499966
v 0.23499547 -0.08667697 -0.08499780
v 0.24219054 -0.08135255 -0.09138155
v 0.25100124 -0.07104570 -0.09028551
v 0.25100124 -0.07048555 -0.09028551
v 0.26353374 -0.07048555 -0.04012749
v 0.21011358 -0.10005877 -0.02993692
v 0.21044718 -0.10023566 -0.03500711
v 0.21072844 -0.10038897 -0.04500524
v 0.21067612 -0.10037128 -0.05499502
v 0.22938985 -0.08958683 -0.08499780
v 0.21048643 -0.10024746 -0.06499316
v 0.21022479 -0.10010005 -0.07033107
v 0.22267227 -0.09065112 -0.09062855
v 0.23499547 -0.08325708 -0.09245248
v 0.23499547 -0.07704526 -0.09245248
v 0.24778308 -0.07048555 -0.09039428
v 0.26251990 -0.07048555 -0.03733303
v 0.25124326 -0.07048555 -0.01857502
v 0.24481347 -0.07048555 -0.01518653
v 0.23811552 -0.07048555 -0.01327894
v 0.23057377 -0.07048555 -0.01168090
v 0.22239101 -0.07048555 -0.01027531
v 0.21388774 -0.07048555 -0.00890318
v 0.20580310 -0.07048555 -0.00766492
v 0.20500509 -0.07048555 -0.00758962
v 0.19888273 -0.07048555 -0.00702905
v 0.19848374 -0.07048555 -0.00699558
v 0.20981270 -0.10005877 -0.02993692
v 0.20501164 -0.10060124 -0.04473751
v 0.20537792 -0.10058650 -0.05493645
v 0.22439255 -0.09178618 -0.08499780
v 0.20978655 -0.10010005 -0.07033107
v 0.21906164 -0.09065112 -0.09062855
v 0.22773498 -0.07872277 -0.09188354
v 0.24171305 -0.07067129 -0.08841975
v 0.24194853 -0.07048555 -0.08818549
v 0.19848374 -0.07048555 -0.02529343
v 0.19848374 -0.07055336 -0.00731352
v 0.19957608 -0.10048331 -0.04790010
v 0.19957608 -0.10048331 -0.05155633
v 0.20940062 -0.09124960 -0.08096507
v 0.21906164 -0.08835154 -0.09062855
v 0.20940062 -0.08933034 -0.08096507
v 0.23574768 -0.07048555 -0.08204437
v 0.19848374 -0.07077742 -0.02392967
v 0.19957608 -0.09893256 -0.05155633
v 0.19848374 -0.07108109 -0.01243391
v 0.19848374 -0.07133168 -0.01500246
f 1 2 3
f 1 3 4
f 1 4 5
f 1 5 14
f 1 14 26
f 1 26 46
f 1 46 54
f 1 54 47
f 1 47 37
f 1 37 36
f 1 36 35
f 1 35 34
f 1 34 33
f 1 33 32
f 1 32 31
f 1 31 30
f 1 30 29
f 1 29 28
f 1 28 27
f 1 27 15
f 1 15 6
f 1 6 2
f 2 7 3
f 2 6 8
f 2 8 9
f 2 9 7
f 3 7 10
f 3 10 11
f 3 11 12
f 3 12 4
f 4 12 5
f 5 12 13
f 5 13 14
f 6 15 16
f 6 16 8
f 7 9 10
f 8 16 17
f 8 17 9
f 9 17 18
f 9 18 19
f 9 19 10
f 10 20 11
f 10 19 21
f 10 21 22
f 10 22 20
f 11 20 12
f 12 20 23
f 12 23 24
f 12 24 13
f 13 24 25
f 13 25 14
f 14 25 26
f 15 27 16
f 16 28 29
f 16 29 30
f 16 30 31
f 16 31 32
f 16 32 33
f 16 33 34
f 16 34 35
f 16 35 36
f 16 36 37
f 16 37 38
f 16 38 39
f 16 39 17
f 16 27 28
f 17 39 18
f 18 39 40
f 18 40 19
f 19 40 21
f 20 22 41
f 20 41 23
f 21 40 22
f 22 40 42
f 22 42 43
f 22 43 23
f 22 23 41
f 23 43 24
f 24 43 44
f 24 44 25
f 25 44 26
f 26 44 45
f 26 45 46
f 37 47 55
f 37 55 58
f 37 58 57
f 37 57 48
f 37 48 49
f 37 49 38
f 38 49 39
f 39 49 50
f 39 50 40
f 40 50 42
f 42 50 51
f 42 51 43
f 43 51 53
f 43 53 52
f 43 52 44
f 44 52 53
f 44 53 47
f 44 47 54
f 44 54 45
f 45 54 46
f 47 53 56
f 47 56 50
f 47 50 55
f 48 57 49
f 49 57 58
f 49 58 50
f 50 58 55
f 50 56 53
f 50 53 51

