# https://github.com/mikedh/trimesh
v -0.50065595 0.09815668 -0.11060760
v -0.50119567 0.09488605 -0.10433836
v -0.50140870 0.10118774 -0.10499115
v -0.50065595 0.10053153 -0.11060760
v -0.49889487 0.09815668 -0.11060760
v -0.48075840 0.07958494 -0.10044627
v -0.49498922 0.08842813 -0.10266329
v -0.50013047 0.08989678 -0.10055712
v -0.50032932 0.08968846 -0.09498994
v -0.50031507 0.08967805 -0.08917642
v -0.50099683 0.09568809 -0.09409081
v -0.50120986 0.10104191 -0.09681281
v -0.49747461 0.10118774 -0.10499115
v -0.49889487 0.10053153 -0.11060760
v -0.47764808 0.08499085 -0.10072955
v -0.47736403 0.07958494 -0.10044627
v -0.48170996 0.07903290 -0.09498994
v -0.46140054 0.06957517 -0.09039578
v -0.35633126 -0.00046204 -0.01002885
v -0.35633126 -0.00208693 -0.00587810
v -0.35633126 -0.00236816 -0.00476959
v -0.35633126 -0.00417013 0.00338411
v -0.35633126 -0.00444095 0.00499761
v -0.39271778 0.01841176 -0.01500482
v -0.39330009 0.01791179 -0.00500361
v -0.39366934 0.01766181 0.00499761
v -0.39866859 0.02094285 0.00499761
v -0.39881063 0.02083869 0.01499883
v -0.42704496 0.04260813 0.01522053
v -0.43217203 0.04760782 0.01522053
v -0.48118448 0.07882458 -0.05785487
v -0.50031507 0.09281327 -0.08917642
v -0.39881063 0.02084911 0.01522053
v -0.40500286 0.02539048 0.01522053
v -0.41075483 0.02961938 0.01522053
v -0.41564044 0.03331706 0.01522053
v -0.42215934 0.03840007 0.01522053
v -0.49231917 0.09260495 -0.07679807
v -0.48304498 0.09100088 -0.06688306
v -0.49774447 0.10104191 -0.09681281
v -0.48499072 0.09545893 -0.08498871
v -0.48499072 0.09502146 -0.09498994
v -0.47949439 0.09036551 -0.10050786
v -0.45935541 0.07130422 -0.09039578
v -0.45935541 0.06957517 -0.09039578
v -0.35633126 0.00443349 -0.01462300
v -0.35633126 -0.00522215 0.01499883
v -0.39381137 0.01756806 0.01499883
v -0.39392498 0.01765139 0.01522053
v -0.43221465 0.04779531 0.01522053
v -0.48118448 0.08312638 -0.05785487
v -0.47256362 0.08201188 -0.04718855
v -0.47841501 0.09100088 -0.06688306
v -0.45108962 0.07072093 -0.01898314
v -0.46123013 0.08020991 -0.03942898
v -0.47774750 0.09144877 -0.07499982
v -0.35633126 0.02298439 0.01499883
v -0.35633126 0.02271357 0.00499761
v -0.47884110 0.09082381 -0.09498994
v -0.35633126 0.02120325 -0.00486812
v -0.44917229 0.07066885 -0.08094881
v -0.35633126 0.01997416 -0.00957313
v -0.35633126 0.01568277 -0.01431509
v -0.35633126 0.00501678 -0.01486934
v -0.35633126 -0.00520132 0.01522053
v -0.39381137 0.01757848 0.01522053
v -0.43221465 0.05375326 0.01522053
v -0.45963946 0.08020991 -0.03942898
v -0.42524126 0.05670099 0.01522053
v -0.42501402 0.05676349 0.01522053
v -0.35633126 0.02297397 0.01522053
v -0.35633126 0.01625565 -0.01400717
v -0.41534218 0.05312830 0.01522053
v -0.41510075 0.05301372 0.01522053
f 1 2 3
f 1 3 4
f 1 4 14
f 1 14 5
f 1 5 16
f 1 16 6
f 1 6 7
f 1 7 8
f 1 8 2
f 2 8 9
f 2 9 10
f 2 10 11
f 2 11 3
f 3 11 12
f 3 12 40
f 3 40 13
f 3 13 14
f 3 14 4
f 5 14 15
f 5 15 16
f 6 17 8
f 6 8 7
f 6 16 45
f 6 45 18
f 6 18 19
f 6 19 20
f 6 20 21
f 6 21 22
f 6 22 17
f 8 17 23
f 8 23 24
f 8 24 25
f 8 25 9
f 9 25 26
f 9 26 27
f 9 27 28
f 9 28 10
f 10 29 30
f 10 30 31
f 10 31 51
f 10 51 32
f 10 32 11
f 10 28 33
f 10 33 34
f 10 34 35
f 10 35 36
f 10 36 37
f 10 37 29
f 11 32 12
f 12 32 38
f 12 38 39
f 12 39 53
f 12 53 40
f 13 40 41
f 13 41 42
f 13 42 43
f 13 43 14
f 14 43 15
f 15 43 44
f 15 44 45
f 15 45 16
f 17 22 23
f 18 45 19
f 19 46 64
f 19 64 63
f 19 63 72
f 19 72 62
f 19 62 60
f 19 60 58
f 19 58 57
f 19 57 71
f 19 71 65
f 19 65 47
f 19 47 23
f 19 23 22
f 19 22 21
f 19 21 20
f 19 45 46
f 23 47 25
f 23 25 24
f 25 47 26
f 26 48 28
f 26 28 27
f 26 47 48
f 28 48 49
f 28 49 33
f 29 37 36
f 29 36 35
f 29 35 34
f 29 34 33
f 29 33 49
f 29 49 66
f 29 66 65
f 29 65 71
f 29 71 74
f 29 74 73
f 29 73 70
f 29 70 69
f 29 69 67
f 29 67 50
f 29 50 30
f 30 50 31
f 31 50 67
f 31 67 51
f 32 51 38
f 38 51 52
f 38 52 39
f 39 52 54
f 39 54 55
f 39 55 68
f 39 68 53
f 40 53 41
f 41 53 56
f 41 56 57
f 41 57 58
f 41 58 42
f 42 59 43
f 42 58 60
f 42 60 59
f 43 61 44
f 43 59 60
f 43 60 62
f 43 62 61
f 44 61 63
f 44 63 64
f 44 64 45
f 45 64 46
f 47 65 66
f 47 66 48
f 48 66 49
f 51 67 52
f 52 67 54
f 53 68 56
f 54 67 69
f 54 69 70
f 54 70 55
f 55 70 68
f 56 68 57
f 57 68 71
f 61 62 72
f 61 72 63
f 68 70 73
f 68 73 74
f 68 74 71

