# https://github.com/mikedh/trimesh
v 0.28559881 -0.02367879 -0.10240991
v 0.28559881 -0.01575325 -0.10240991
v 0.29503834 -0.02312608 -0.10200295
v 0.28559881 -0.02867297 -0.09889988
v 0.28559881 -0.01074921 -0.09947640
v 0.29503834 -0.01129205 -0.09912031
v 0.29503834 -0.01629610 -0.10200295
v 0.30501297 -0.01978018 -0.10154512
v 0.31503043 -0.01985914 -0.10103642
v 0.32286459 -0.01993810 -0.10051076
v 0.31503043 -0.02676808 -0.09764508
v 0.30501297 -0.02748858 -0.09803508
v 0.28559881 -0.05383138 -0.08082404
v 0.28559881 0.01171471 -0.08140057
v 0.30006847 -0.00001074 -0.08999761
v 0.30404976 -0.00425481 -0.09289721
v 0.31503043 -0.00595243 -0.09313460
v 0.32500505 -0.00659398 -0.09257503
v 0.30501297 -0.01207178 -0.09862857
v 0.31503043 -0.01296007 -0.09813683
v 0.32571143 -0.01537820 -0.09800117
v 0.36503208 -0.01441095 -0.09021804
v 0.37218127 -0.01996771 -0.09062501
v 0.36503208 -0.02279050 -0.09154067
v 0.36503208 -0.02778468 -0.08862412
v 0.36580265 -0.03591748 -0.08324885
v 0.36438993 -0.04269812 -0.07909445
v 0.35503602 -0.04667569 -0.07783966
v 0.28559881 -0.05811492 -0.07499094
v 0.35503602 -0.05315035 -0.07283744
v 0.28559881 0.01719251 -0.07477050
v 0.34501857 0.01381700 -0.07390571
v 0.31503043 0.01046123 -0.08038317
v 0.32108799 0.01012566 -0.08009490
v 0.30670395 -0.00042528 -0.08967543
v 0.31503043 -0.00094839 -0.08926848
v 0.32466260 0.00581250 -0.08307928
v 0.33500111 0.00422345 -0.08326580
v 0.32500505 -0.00158993 -0.08875977
v 0.34501857 0.00852673 -0.07890794
v 0.33500111 -0.00241900 -0.08826803
v 0.33500111 -0.00741318 -0.09181198
v 0.34501857 -0.00862718 -0.09089632
v 0.35158986 -0.00956482 -0.09028587
v 0.35659859 -0.01244683 -0.09093023
v 0.36503208 -0.00501479 -0.08457147
v 0.37412912 -0.00488648 -0.08207884
v 0.37530637 -0.01521041 -0.08782715
v 0.41402769 -0.01599013 -0.07655095
v 0.40625775 -0.02037237 -0.08056969
v 0.37530637 -0.02474474 -0.08770846
v 0.37500671 -0.03369676 -0.08241797
v 0.36963409 -0.03987532 -0.07990838
v 0.36503208 -0.05248906 -0.07210830
v 0.28559881 -0.06102654 -0.06400300
v 0.35503602 -0.05797674 -0.06498648
v 0.35503602 -0.05981254 -0.05932295
v 0.36503208 -0.05704897 -0.06498648
v 0.28559881 0.02054828 -0.06756391
v 0.33500111 0.01905793 -0.06688564
v 0.34501857 0.01882105 -0.06632607
v 0.35503602 0.01854469 -0.06574954
v 0.35503602 0.01354064 -0.07332918
v 0.33500111 0.00922749 -0.07939968
v 0.35503602 0.00753974 -0.07833140
v 0.34501857 0.00352268 -0.08260449
v 0.34501857 -0.00363300 -0.08760672
v 0.35503602 0.00254556 -0.08172274
v 0.35495040 -0.00574516 -0.08718280
v 0.36503208 0.00601977 -0.07741575
v 0.36760065 0.00055184 -0.08034925
v 0.37412912 0.00403592 -0.07629660
v 0.38446763 0.00527953 -0.07239656
v 0.39499882 0.00205207 -0.07132829
v 0.39444229 -0.00582412 -0.07658487
v 0.39069644 -0.00969313 -0.08019664
v 0.38502416 -0.00837056 -0.08104448
v 0.39731053 -0.01136114 -0.07919620
v 0.40497345 -0.01349304 -0.07802619
v 0.42121971 -0.00927859 -0.07046350
v 0.42629266 -0.01314760 -0.07068394
v 0.43230739 -0.01809242 -0.07093829
v 0.43230739 -0.02190221 -0.07093829
v 0.41402769 -0.02401437 -0.07660182
v 0.39718211 -0.02863349 -0.07917924
v 0.39056802 -0.03022254 -0.08014577
v 0.38502416 -0.03146615 -0.08095969
v 0.40497345 -0.02649172 -0.07804314
v 0.40788451 -0.03905611 -0.06937827
v 0.38425359 -0.04520507 -0.07222700
v 0.37500671 -0.04498793 -0.07504181
v 0.37772512 -0.05062366 -0.07049741
v 0.41167316 -0.05041638 -0.06049296
v 0.28559881 -0.06903104 -0.02361215
v 0.35777584 -0.07005751 -0.01949168
v 0.30796683 -0.06998841 -0.01993255
v 0.36503208 -0.05954605 -0.05830555
v 0.36432570 -0.06862637 -0.02410390
v 0.39499882 -0.05553887 -0.05499899
v 0.38502416 -0.05729571 -0.05499899
v 0.28559881 0.03049715 -0.02217084
v 0.30501297 0.03046754 -0.02201823
v 0.34501857 0.03038859 -0.02166213
v 0.35503602 0.02974704 -0.02403607
v 0.35503602 0.02697359 -0.03499009
v 0.35503602 0.02435807 -0.04499455
v 0.35503602 0.02019297 -0.06076427
v 0.36081532 0.02007453 -0.06030644
v 0.36449695 0.01811041 -0.06418952
v 0.36503208 0.01284975 -0.07241352
v 0.37500671 0.01136926 -0.07109090
v 0.38078600 0.01028357 -0.07022610
v 0.40127042 0.00060119 -0.07037872
v 0.40794873 -0.00096813 -0.06937827
v 0.41496950 -0.00767967 -0.07148090
v 0.42498696 0.00232843 -0.06154428
v 0.43098029 0.00059132 -0.06037427
v 0.43768001 -0.00143201 -0.05910252
v 0.44427270 -0.00647554 -0.05959426
v 0.44949546 -0.01034454 -0.05979774
v 0.41496950 -0.00267562 -0.06827608
v 0.44570681 -0.01421355 -0.06337561
v 0.46009085 -0.01999732 -0.06006905
v 0.42635685 -0.02685690 -0.07070090
v 0.45497510 -0.02498162 -0.05998426
v 0.44968811 -0.02979814 -0.05988252
v 0.42128393 -0.03079500 -0.07051437
v 0.41496950 -0.03239392 -0.07154873
v 0.40473801 -0.03542399 -0.07265091
v 0.41496950 -0.03738810 -0.06831000
v 0.41496950 -0.04554065 -0.06295168
v 0.42498696 -0.04239215 -0.06154428
v 0.41830865 -0.04924186 -0.05886512
v 0.43050939 -0.05010055 -0.05023417
v 0.41496950 -0.05157116 -0.05532117
v 0.40497345 -0.05370307 -0.05499899
v 0.28559881 -0.06977128 -0.01581208
v 0.37500671 -0.06800456 -0.01503207
v 0.36432570 -0.06947519 -0.01540511
v 0.35503602 -0.06981076 -0.01365858
v 0.37393647 -0.05969410 -0.05326941
v 0.36503208 -0.06569501 -0.03499009
v 0.37500671 -0.06696823 -0.02498565
v 0.41496950 -0.05465058 -0.04499455
v 0.40730658 -0.06066135 -0.02754611
v 0.28559881 0.03076364 -0.01503207
v 0.30501297 0.03068468 -0.01503207
v 0.35503602 0.03025041 -0.01238682
v 0.36471099 0.02996418 -0.01503207
v 0.36402604 0.02961873 -0.02276432
v 0.36503208 0.02631231 -0.03499009
v 0.36599529 0.02035088 -0.05715249
v 0.39499882 0.01567255 -0.05499899
v 0.41150191 0.01038227 -0.06045905
v 0.37500671 0.01547515 -0.06498648
v 0.41488388 0.00549667 -0.06290081
v 0.45262057 0.00127234 -0.05114983
v 0.45555303 -0.00433377 -0.05355768
v 0.45497510 -0.01514132 -0.05988252
v 0.46278787 -0.00722565 -0.05162461
v 0.46944475 -0.01055181 -0.04967459
v 0.47381133 -0.01577299 -0.04970851
v 0.49052849 -0.01999732 -0.04036537
v 0.47381133 -0.02449800 -0.04981025
v 0.46980864 -0.02977840 -0.04987807
v 0.46310893 -0.03303547 -0.05181114
v 0.45574567 -0.03581879 -0.05376116
v 0.44581383 -0.03513776 -0.05815294
v 0.43765861 -0.03857249 -0.05911947
v 0.45292023 -0.04150385 -0.05123461
v 0.43718770 -0.04927148 -0.04780936
v 0.45574567 -0.04393185 -0.04585934
v 0.44814697 -0.04960705 -0.03870361
v 0.44495764 -0.05417682 -0.02498565
v 0.42498696 -0.05269634 -0.04499455
v 0.28559881 -0.06833027 -0.00502762
v 0.37500671 -0.06639577 -0.00502762
v 0.36503208 -0.06779730 -0.00502762
v 0.42068458 -0.06012838 -0.01898298
v 0.40497345 -0.06279325 -0.01503207
v 0.41779494 -0.06039486 -0.01265813
v 0.35503602 -0.06835988 -0.00502762
v 0.34501857 -0.06836975 -0.00502762
v 0.39499882 -0.06348415 -0.02498565
v 0.41496950 -0.06064161 -0.02247606
v 0.28559881 0.03025041 -0.00889375
v 0.30501297 0.03021093 -0.00909723
v 0.36043003 0.03002340 -0.00987723
v 0.37500671 0.02848369 -0.01503207
v 0.42027789 0.02004492 -0.01961038
v 0.37500671 0.02745722 -0.02498565
v 0.37455723 0.01992648 -0.05382898
v 0.40240487 0.02044958 -0.03173441
v 0.40497345 0.01641279 -0.04499455
v 0.41496950 0.01445855 -0.04499455
v 0.40497345 0.01367882 -0.05499899
v 0.41488388 0.01147783 -0.05521943
v 0.43243581 0.00963216 -0.04891154
v 0.41818023 0.00916827 -0.05869555
v 0.45555303 0.00347333 -0.04572368
v 0.46499255 0.00165727 -0.04262061
v 0.47096449 0.00042353 -0.04060276
v 0.45927745 -0.00055359 -0.04955590
v 0.48153847 -0.00851861 -0.04097581
v 0.48819536 -0.01246657 -0.03887318
v 0.48492044 -0.01548677 -0.04240017
v 0.49500209 -0.01526963 -0.03480357
v 0.50050312 -0.02013549 -0.03071701
v 0.49962553 -0.02888024 -0.02936047
v 0.48832381 -0.02754780 -0.03894100
v 0.48496324 -0.02452761 -0.04246800
v 0.45961994 -0.03970753 -0.04977633
v 0.48164549 -0.03189056 -0.04111146
v 0.47505280 -0.03512789 -0.04324801
v 0.47179928 -0.04081296 -0.04106059
v 0.46499255 -0.04218488 -0.04312931
v 0.44487202 -0.04824501 -0.04467237
v 0.46499255 -0.04584661 -0.03499009
v 0.45386204 -0.04972549 -0.03361660
v 0.44495764 -0.05536121 -0.01503207
v 0.45717978 -0.05072235 -0.02725784
v 0.46188885 -0.05069274 -0.02242519
v 0.28559881 -0.06367168 0.01498128
v 0.41445577 -0.05987176 -0.00635024
v 0.38502416 -0.06466854 -0.00502762
v 0.37305889 -0.05943748 0.02267962
v 0.36503208 -0.06516203 0.00497683
v 0.35503602 -0.06577396 0.00497683
v 0.44495764 -0.05371293 -0.00502762
v 0.43498302 -0.05566718 -0.00502762
v 0.29503834 -0.05879594 0.03514279
v 0.28559881 -0.05937827 0.03315886
v 0.28559881 0.01965012 0.03819500
v 0.36428291 0.02861200 -0.00594328
v 0.37500671 0.02686503 -0.00502762
v 0.29503834 0.01950207 0.03788977
v 0.35503602 0.01983765 0.02941143
v 0.36503208 0.01952181 0.02822446
v 0.36503208 0.02302563 0.01498128
v 0.41404909 0.01977843 -0.00648589
v 0.41738823 0.02030154 -0.01392988
v 0.40497345 0.02276901 -0.01503207
v 0.44495764 0.01459673 -0.01503207
v 0.46101126 0.01039214 -0.02137387
v 0.44495764 0.01357026 -0.02498565
v 0.43498302 0.01569229 -0.02498565
v 0.42415217 0.01818937 -0.02412086
v 0.41496950 0.02055815 -0.02215388
v 0.39499882 0.02364744 -0.02498565
v 0.37592712 0.02175241 -0.04592716
v 0.39467773 0.02105165 -0.03504097
v 0.40722096 0.02065685 -0.02746132
v 0.41496950 0.01922571 -0.02715610
v 0.41496950 0.01713329 -0.03499009
v 0.42498696 0.01510996 -0.03499009
v 0.42595017 0.01193185 -0.04596108
v 0.43498302 0.01080668 -0.04289192
v 0.44071949 0.01016513 -0.04058580
v 0.44592085 0.01018487 -0.03632968
v 0.45304865 0.00935580 -0.03298920
v 0.44444394 0.00784571 -0.04435019
v 0.46499255 0.00481564 -0.03499009
v 0.47456050 0.00123286 -0.03429487
v 0.48044682 0.00017678 -0.03051353
v 0.49279740 -0.00793628 -0.03220920
v 0.50065297 -0.01311799 -0.02710523
v 0.50373524 -0.01501301 -0.01503207
v 0.50204426 -0.02532707 -0.02561304
v 0.50108105 -0.03162407 -0.02267954
v 0.49528036 -0.03537464 -0.02529087
v 0.49294722 -0.03245315 -0.03227703
v 0.47845617 -0.03856262 -0.03812709
v 0.48808834 -0.03911534 -0.02790220
v 0.47505280 -0.04189865 -0.03487140
v 0.49093518 -0.04042803 -0.02123822
v 0.45497510 -0.05310100 -0.01503207
v 0.46238115 -0.05089014 -0.01503207
v 0.42498696 -0.05757207 -0.00502762
v 0.41496950 -0.05676274 0.00497683
v 0.41496950 -0.05409786 0.01498128
v 0.40484503 -0.05867750 0.00455291
v 0.40807715 -0.05965462 -0.00128019
v 0.39499882 -0.06293143 -0.00502762
v 0.38973323 -0.05994085 0.00979253
v 0.36503208 -0.05993098 0.02478225
v 0.38585895 -0.05919074 0.01518476
v 0.38502416 -0.05671339 0.02498573
v 0.35503602 -0.06024682 0.02595226
v 0.35503602 -0.06313870 0.01498128
v 0.34501857 -0.05968423 0.02881794
v 0.33500111 -0.05977306 0.02915708
v 0.46131092 -0.05048548 -0.00831722
v 0.45662326 -0.05044600 -0.00331499
v 0.45328411 -0.04946887 0.00316246
v 0.44598508 -0.05024860 0.00650293
v 0.43498302 -0.05078157 0.01274300
v 0.43498302 -0.05296282 0.00497683
v 0.42498696 -0.05490720 0.00497683
v 0.31503043 -0.05838140 0.03499018
v 0.29503834 -0.05380176 0.04474028
v 0.28559881 -0.05319970 0.04619855
v 0.28559881 0.01568241 0.04479115
v 0.36503208 0.02566090 0.00497683
v 0.37372243 0.01965012 0.02322223
v 0.31503043 0.01909741 0.03675368
v 0.35503602 0.01736030 0.03499018
v 0.32500505 0.01882105 0.03622802
v 0.33500111 0.01847560 0.03560062
v 0.36503208 0.01609695 0.03499018
v 0.39499882 0.01173445 0.03193798
v 0.40276876 0.01074746 0.03080187
v 0.38502416 0.01699511 0.02498573
v 0.40797013 0.01961064 -0.00144976
v 0.40497345 0.01580086 0.01498128
v 0.41496950 0.01385648 0.01498128
v 0.41496950 0.01653123 0.00497683
v 0.42498696 0.01710368 -0.00502762
v 0.44495764 0.01279053 -0.00502762
v 0.46045473 0.01017500 -0.00940245
v 0.45497510 0.01220821 -0.01503207
v 0.45638782 0.01032305 -0.02642697
v 0.46109688 0.01043162 -0.01503207
v 0.48926562 -0.00028710 -0.01503207
v 0.48532712 0.00002874 -0.02498565
v 0.43498302 0.01298793 -0.03499009
v 0.49566564 -0.00611035 -0.02532478
v 0.50078142 -0.00891341 -0.02222171
v 0.50427037 -0.02499149 -0.01503207
v 0.50101686 -0.00857783 -0.01503207
v 0.50058877 -0.00919963 -0.00867331
v 0.50005364 -0.02000719 0.00005939
v 0.50150913 -0.03222614 -0.01503207
v 0.49615794 -0.03722031 -0.01503207
v 0.49117064 -0.04052673 -0.01503207
v 0.48496324 -0.04277707 -0.01503207
v 0.49059272 -0.04027011 -0.00923288
v 0.40497345 -0.05587444 0.01498128
v 0.42575753 -0.05179817 0.01582912
v 0.42963180 -0.04989328 0.01972916
v 0.36503208 -0.05555861 0.03499018
v 0.35503602 -0.05686144 0.03499018
v 0.39499882 -0.05481837 0.02498573
v 0.40276876 -0.05072235 0.03075100
v 0.39499882 -0.05165999 0.03185319
v 0.34501857 -0.05738454 0.03499018
v 0.33500111 -0.05780895 0.03499018
v 0.32500505 -0.05812478 0.03499018
v 0.46499255 -0.04509650 0.00497683
v 0.43498302 -0.04906420 0.01774522
v 0.44080511 -0.05016964 0.01058950
v 0.30501297 -0.05367346 0.04428245
v 0.28559881 -0.04835358 0.05157383
v 0.29503834 -0.04964653 0.04972555
v 0.28559881 0.01103369 0.05057338
v 0.31503043 0.01409336 0.04418071
v 0.32500505 0.01382687 0.04348548
v 0.34501857 0.01304715 0.04231547
v 0.35503602 0.01251417 0.04178981
v 0.36503208 0.01156666 0.04107763
v 0.37147492 0.01059941 0.04041632
v 0.39499882 0.01494217 0.02498573
v 0.40942565 0.00973086 0.02964882
v 0.42224714 0.01050071 0.02110265
v 0.40567982 0.01223782 0.02576574
v 0.42712742 0.01060928 0.01725348
v 0.45035166 0.01008618 0.00031374
v 0.45561725 0.00999735 -0.00419674
v 0.45422593 0.00793453 0.00417987
v 0.46499255 0.00408527 0.00497683
v 0.47967625 -0.00013905 -0.00043235
v 0.48387158 -0.00025749 -0.00567197
v 0.49519473 -0.00683085 -0.00521414
v 0.49498069 -0.00385014 -0.01503207
v 0.50031048 -0.02554421 -0.00319630
v 0.50090981 -0.03132797 -0.00814765
v 0.50005364 -0.01448004 -0.00360326
v 0.49198401 -0.00849887 0.00133114
v 0.49536598 -0.02415255 0.00284029
v 0.49519473 -0.01586182 0.00260289
v 0.48723215 -0.01501301 0.00819860
v 0.47115713 -0.02010589 0.02071264
v 0.48768166 -0.02499149 0.00850382
v 0.49478805 -0.03501932 -0.00536675
v 0.48770306 -0.03871067 -0.00256890
v 0.48102474 -0.04040829 0.00082244
v 0.46499255 -0.04175060 0.01213256
v 0.45127207 -0.04071426 0.02050916
v 0.40942565 -0.04973536 0.02964882
v 0.36503208 -0.05127507 0.04094198
v 0.35503602 -0.05226206 0.04180677
v 0.34501857 -0.05268646 0.04233243
v 0.33500111 -0.05301217 0.04280721
v 0.32500505 -0.05327866 0.04329896
v 0.37091839 -0.05034729 0.04021284
v 0.31503043 -0.05348593 0.04377375
v 0.47085747 -0.04044777 0.01048776
v 0.28559881 -0.03348948 0.06257872
v 0.30501297 -0.04901486 0.04928467
v 0.28559881 0.00537823 0.05479560
v 0.29328313 0.01045136 0.05031903
v 0.30501297 0.00962229 0.04970859
v 0.31503043 0.00887218 0.04919989
v 0.31503043 -0.00805472 0.06140871
v 0.32778770 -0.00949573 0.06035739
v 0.36503208 0.00498343 0.04514724
v 0.36503208 -0.00659398 0.05201470
v 0.37500671 -0.00358365 0.04786031
v 0.37489969 0.00544732 0.04255287
v 0.39174527 0.00081833 0.04048415
v 0.39502022 0.00448994 0.03727933
v 0.40567982 0.00583224 0.03331147
v 0.41496950 0.00334503 0.03202276
v 0.42216152 0.00139078 0.03083579
v 0.45088679 0.00047288 0.02033960
v 0.46762532 0.00070976 0.01092863
v 0.44495764 0.00925710 0.00741860
v 0.47248423 0.00100586 0.00497683
v 0.49226227 -0.03204848 0.00172115
v 0.47417521 -0.00586360 0.01153907
v 0.48018998 -0.00977209 0.01011471
v 0.48222342 -0.01501301 0.01150516
v 0.45185000 -0.02007627 0.03075100
v 0.46509957 -0.02498162 0.02264570
v 0.48267293 -0.02499149 0.01177647
v 0.46488553 -0.01515119 0.02254397
v 0.48078930 -0.03083448 0.01047080
v 0.45790756 -0.03848366 0.01903393
v 0.45473963 -0.03508841 0.02244223
v 0.44465798 -0.03440739 0.02685096
v 0.43498302 -0.03756576 0.02852968
v 0.42235416 -0.04142489 0.03083579
v 0.41496950 -0.04337914 0.03200580
v 0.40567982 -0.04583675 0.03315886
v 0.36503208 -0.04498793 0.04475724
v 0.35129017 -0.04037868 0.05021729
v 0.35477915 -0.04421808 0.04719900
v 0.34501857 -0.04108932 0.05074295
v 0.34501857 -0.04609336 0.04735161
v 0.33500111 -0.04693231 0.04780944
v 0.37278062 -0.03130823 0.05075990
v 0.36503208 -0.03296638 0.05170948
v 0.41173738 -0.03081474 0.04048415
v 0.46509957 -0.03508841 0.01720261
v 0.47451770 -0.03449622 0.01208169
v 0.28559881 -0.02624497 0.06768268
v 0.29503834 -0.03285781 0.06207002
v 0.28559881 -0.00582412 0.06308742
v 0.29503834 -0.00649528 0.06257872
v 0.30501297 -0.00726513 0.06200219
v 0.28559881 -0.01308838 0.06793703
v 0.29600155 -0.01550651 0.06807269
v 0.30501297 -0.01501301 0.06668224
v 0.31503043 -0.01501301 0.06539353
v 0.32500505 -0.01501301 0.06381655
v 0.33724862 -0.01088739 0.05945869
v 0.34501857 -0.01468730 0.06005217
v 0.35595644 -0.01523015 0.05830564
v 0.36503208 -0.01501301 0.05637257
v 0.37768233 -0.00921937 0.05045468
v 0.38423219 -0.00592282 0.04665639
v 0.40497345 -0.00737370 0.04156937
v 0.41186580 -0.00905158 0.04056893
v 0.40497345 -0.00237952 0.03853413
v 0.41509792 -0.00543920 0.03736412
v 0.41854411 -0.01079856 0.03951761
v 0.42528662 -0.00445220 0.03315886
v 0.44733357 -0.01179542 0.02897055
v 0.45602393 -0.00346521 0.02044133
v 0.44440112 -0.00573529 0.02656270
v 0.46488553 -0.00510362 0.01671086
v 0.46150357 -0.00848900 0.02086525
v 0.46813905 -0.01190399 0.01891523
v 0.42464447 -0.02402424 0.03997545
v 0.45508212 -0.02502110 0.02773272
v 0.45508212 -0.01508210 0.02751228
v 0.42464447 -0.01597039 0.03995849
v 0.46188885 -0.03181160 0.02105178
v 0.46852434 -0.02830778 0.01915263
v 0.44774026 -0.02837687 0.02914012
v 0.44108337 -0.03068643 0.03041187
v 0.43498302 -0.03256171 0.03154797
v 0.42539364 -0.03563125 0.03322668
v 0.41839427 -0.02919607 0.03951761
v 0.35636312 -0.03744732 0.05096339
v 0.33048469 -0.03012384 0.06006913
v 0.33500111 -0.04193813 0.05137035
v 0.36503208 -0.02499149 0.05606735
v 0.38502416 -0.02838674 0.04906423
v 0.38502416 -0.02339257 0.05174340
v 0.37564886 -0.02582056 0.05293036
v 0.35595644 -0.02472500 0.05816998
v 0.29334736 -0.01992823 0.07037880
v 0.28559881 -0.01986901 0.07081968
v 0.35323802 -0.01996771 0.06059479
v 0.37500671 -0.01501301 0.05391385
v 0.38423219 -0.01501301 0.05143818
v 0.38699341 -0.01168685 0.04911511
v 0.41509792 -0.01448004 0.04241721
v 0.44069809 -0.00955495 0.03025926
v 0.39268708 -0.01990849 0.05072599
v 0.41501230 -0.02551460 0.04238330
v 0.33716300 -0.02904803 0.05942477
v 0.34501857 -0.02520863 0.06003521
v 0.33431616 -0.02542577 0.06184958
v 0.32500505 -0.02499149 0.06356221
v 0.40497345 -0.01501301 0.04560507
f 1 2 7
f 1 7 3
f 1 3 4
f 1 4 13
f 1 13 29
f 1 29 55
f 1 55 94
f 1 94 137
f 1 137 176
f 1 176 223
f 1 223 232
f 1 232 301
f 1 301 352
f 1 352 397
f 1 397 445
f 1 445 493
f 1 493 450
f 1 450 447
f 1 447 399
f 1 399 354
f 1 354 302
f 1 302 233
f 1 233 186
f 1 186 146
f 1 146 101
f 1 101 59
f 1 59 31
f 1 31 14
f 1 14 5
f 1 5 2
f 2 5 6
f 2 6 7
f 3 7 8
f 3 8 9
f 3 9 10
f 3 10 11
f 3 11 12
f 3 12 4
f 4 12 13
f 5 14 15
f 5 15 6
f 6 15 16
f 6 16 17
f 6 17 18
f 6 18 19
f 6 19 7
f 7 19 20
f 7 20 10
f 7 10 9
f 7 9 8
f 10 20 21
f 10 21 22
f 10 22 23
f 10 23 24
f 10 24 25
f 10 25 11
f 11 13 12
f 11 25 26
f 11 26 27
f 11 27 28
f 11 28 13
f 13 28 30
f 13 30 29
f 14 31 32
f 14 32 33
f 14 33 15
f 15 33 34
f 15 34 35
f 15 35 16
f 16 35 36
f 16 36 17
f 17 36 37
f 17 37 38
f 17 38 39
f 17 39 18
f 18 39 38
f 18 38 40
f 18 40 41
f 18 41 42
f 18 42 20
f 18 20 19
f 20 42 21
f 21 42 43
f 21 43 44
f 21 44 45
f 21 45 22
f 22 45 46
f 22 46 47
f 22 47 48
f 22 48 23
f 23 48 49
f 23 49 50
f 23 50 24
f 24 50 51
f 24 51 25
f 25 51 52
f 25 52 53
f 25 53 26
f 26 53 27
f 27 53 54
f 27 54 28
f 28 54 30
f 29 30 56
f 29 56 57
f 29 57 55
f 30 54 58
f 30 58 56
f 31 59 60
f 31 60 61
f 31 61 62
f 31 62 63
f 31 63 32
f 32 63 33
f 33 63 34
f 34 63 64
f 34 64 37
f 34 37 36
f 34 36 35
f 37 64 38
f 38 64 40
f 40 63 65
f 40 65 66
f 40 66 41
f 40 64 63
f 41 66 65
f 41 65 42
f 42 65 67
f 42 67 43
f 43 67 68
f 43 68 69
f 43 69 44
f 44 69 46
f 44 46 45
f 46 70 71
f 46 71 47
f 46 69 70
f 47 72 73
f 47 73 74
f 47 74 75
f 47 75 76
f 47 76 77
f 47 77 48
f 47 71 72
f 48 77 76
f 48 76 78
f 48 78 79
f 48 79 49
f 49 79 80
f 49 80 81
f 49 81 82
f 49 82 50
f 50 82 83
f 50 83 84
f 50 84 51
f 51 85 86
f 51 86 87
f 51 87 52
f 51 84 88
f 51 88 85
f 52 87 89
f 52 89 90
f 52 90 91
f 52 91 53
f 53 91 92
f 53 92 54
f 54 92 93
f 54 93 58
f 55 57 95
f 55 95 96
f 55 96 94
f 56 58 97
f 56 97 57
f 57 97 98
f 57 98 95
f 58 99 100
f 58 100 97
f 58 93 99
f 59 101 102
f 59 102 103
f 59 103 104
f 59 104 105
f 59 105 106
f 59 106 107
f 59 107 60
f 60 107 61
f 61 107 62
f 62 107 108
f 62 108 109
f 62 109 110
f 62 110 63
f 63 110 65
f 65 110 70
f 65 70 68
f 65 68 67
f 68 70 69
f 70 110 111
f 70 111 72
f 70 72 71
f 72 111 112
f 72 112 73
f 73 112 74
f 74 113 75
f 74 112 113
f 75 113 114
f 75 114 76
f 76 114 115
f 76 115 78
f 78 115 80
f 78 80 79
f 80 116 117
f 80 117 118
f 80 118 119
f 80 119 120
f 80 120 81
f 80 115 121
f 80 121 116
f 81 120 82
f 82 120 122
f 82 122 123
f 82 123 83
f 83 124 84
f 83 123 125
f 83 125 126
f 83 126 124
f 84 124 127
f 84 127 88
f 85 88 128
f 85 128 86
f 86 128 129
f 86 129 87
f 87 129 89
f 88 127 128
f 89 129 128
f 89 128 130
f 89 130 131
f 89 131 90
f 90 92 91
f 90 131 92
f 92 131 93
f 93 131 132
f 93 132 133
f 93 133 134
f 93 134 135
f 93 135 136
f 93 136 99
f 94 96 137
f 95 98 138
f 95 138 139
f 95 139 140
f 95 140 96
f 96 140 137
f 97 100 141
f 97 141 142
f 97 142 98
f 98 142 143
f 98 143 138
f 99 136 144
f 99 144 145
f 99 145 100
f 100 145 141
f 101 146 102
f 102 146 103
f 103 146 147
f 103 147 148
f 103 148 149
f 103 149 150
f 103 150 104
f 104 150 105
f 105 150 108
f 105 108 106
f 106 108 107
f 108 150 151
f 108 151 152
f 108 152 109
f 109 152 153
f 109 153 154
f 109 154 155
f 109 155 110
f 110 155 154
f 110 154 111
f 111 154 112
f 112 154 156
f 112 156 114
f 112 114 113
f 114 156 121
f 114 121 115
f 116 121 156
f 116 156 154
f 116 154 157
f 116 157 117
f 117 157 118
f 118 157 158
f 118 158 119
f 119 158 120
f 120 158 159
f 120 159 122
f 122 159 123
f 123 159 160
f 123 160 161
f 123 161 162
f 123 162 163
f 123 163 164
f 123 164 165
f 123 165 166
f 123 166 125
f 124 126 127
f 125 166 126
f 126 166 167
f 126 167 168
f 126 168 127
f 127 168 169
f 127 169 132
f 127 132 131
f 127 131 130
f 127 130 128
f 132 169 170
f 132 170 133
f 133 171 134
f 133 170 172
f 133 172 171
f 134 171 173
f 134 173 174
f 134 174 175
f 134 175 136
f 134 136 135
f 136 175 144
f 137 140 176
f 138 177 178
f 138 178 139
f 138 143 179
f 138 179 180
f 138 180 181
f 138 181 177
f 139 178 140
f 140 178 182
f 140 182 183
f 140 183 176
f 141 145 184
f 141 184 143
f 141 143 142
f 143 184 185
f 143 185 179
f 144 185 145
f 144 175 174
f 144 174 185
f 145 185 184
f 146 186 187
f 146 187 147
f 147 187 148
f 148 188 149
f 148 187 188
f 149 188 189
f 149 189 150
f 150 189 190
f 150 190 191
f 150 191 151
f 151 191 152
f 152 191 192
f 152 192 153
f 153 192 193
f 153 193 194
f 153 194 195
f 153 195 196
f 153 196 154
f 154 196 197
f 154 197 198
f 154 198 199
f 154 199 157
f 157 200 201
f 157 201 202
f 157 202 203
f 157 203 158
f 157 199 200
f 158 203 160
f 158 160 159
f 160 203 161
f 161 203 204
f 161 204 162
f 162 204 205
f 162 205 206
f 162 206 163
f 163 207 208
f 163 208 209
f 163 209 210
f 163 210 211
f 163 211 164
f 163 206 205
f 163 205 207
f 164 211 210
f 164 210 165
f 165 212 166
f 165 210 213
f 165 213 214
f 165 214 212
f 166 212 167
f 167 212 168
f 168 212 169
f 169 212 170
f 170 212 215
f 170 215 216
f 170 216 172
f 171 172 216
f 171 216 217
f 171 217 173
f 173 218 219
f 173 219 174
f 173 217 218
f 174 220 179
f 174 179 185
f 174 219 221
f 174 221 222
f 174 222 220
f 176 183 223
f 177 181 224
f 177 224 225
f 177 225 226
f 177 226 178
f 178 226 227
f 178 227 289
f 178 289 228
f 178 228 182
f 179 220 181
f 179 181 180
f 181 220 229
f 181 229 230
f 181 230 224
f 182 228 231
f 182 231 232
f 182 232 183
f 183 232 223
f 186 233 187
f 187 233 188
f 188 234 235
f 188 235 189
f 188 233 236
f 188 236 237
f 188 237 238
f 188 238 239
f 188 239 234
f 189 235 240
f 189 240 241
f 189 241 242
f 189 242 190
f 190 243 244
f 190 244 245
f 190 245 246
f 190 246 247
f 190 247 248
f 190 248 191
f 190 242 241
f 190 241 243
f 191 249 250
f 191 250 192
f 191 248 249
f 192 250 249
f 192 249 251
f 192 251 193
f 193 251 249
f 193 249 252
f 193 252 194
f 194 252 253
f 194 253 254
f 194 254 195
f 195 254 247
f 195 247 255
f 195 255 256
f 195 256 196
f 196 256 198
f 196 198 197
f 198 256 257
f 198 257 258
f 198 258 259
f 198 259 260
f 198 260 261
f 198 261 200
f 198 200 199
f 200 261 201
f 201 262 202
f 201 261 262
f 202 262 263
f 202 263 264
f 202 264 265
f 202 265 204
f 202 204 203
f 204 265 205
f 205 265 207
f 207 265 266
f 207 266 208
f 208 266 267
f 208 267 268
f 208 268 209
f 209 268 269
f 209 269 270
f 209 270 271
f 209 271 210
f 210 271 213
f 212 214 215
f 213 271 272
f 213 272 214
f 214 272 215
f 215 272 273
f 215 273 274
f 215 274 218
f 215 218 216
f 216 218 217
f 218 222 221
f 218 221 219
f 218 274 275
f 218 275 222
f 220 222 276
f 220 276 229
f 222 275 277
f 222 277 276
f 224 230 278
f 224 278 279
f 224 279 280
f 224 280 281
f 224 281 282
f 224 282 283
f 224 283 225
f 225 283 284
f 225 284 226
f 226 285 227
f 226 284 286
f 226 286 287
f 226 287 285
f 227 285 288
f 227 288 289
f 228 289 290
f 228 290 291
f 228 291 231
f 229 276 292
f 229 292 293
f 229 293 294
f 229 294 295
f 229 295 296
f 229 296 297
f 229 297 230
f 230 297 298
f 230 298 278
f 231 291 290
f 231 290 299
f 231 299 300
f 231 300 301
f 231 301 232
f 233 302 236
f 234 239 303
f 234 303 235
f 235 303 304
f 235 304 240
f 236 302 305
f 236 305 237
f 237 306 238
f 237 305 307
f 237 307 308
f 237 308 306
f 238 306 309
f 238 309 310
f 238 310 311
f 238 311 312
f 238 312 304
f 238 304 239
f 239 304 303
f 240 313 312
f 240 312 314
f 240 314 315
f 240 315 316
f 240 316 317
f 240 317 318
f 240 318 243
f 240 243 241
f 240 304 313
f 243 318 319
f 243 319 320
f 243 320 244
f 244 262 321
f 244 321 245
f 244 320 322
f 244 322 323
f 244 323 324
f 244 324 262
f 245 259 258
f 245 258 257
f 245 257 325
f 245 325 246
f 245 321 260
f 245 260 259
f 246 325 255
f 246 255 247
f 247 254 253
f 247 253 248
f 248 253 252
f 248 252 249
f 255 325 256
f 256 325 257
f 260 321 262
f 260 262 261
f 262 324 264
f 262 264 263
f 264 324 326
f 264 326 265
f 265 326 327
f 265 327 266
f 266 327 267
f 267 328 268
f 267 327 329
f 267 329 330
f 267 330 331
f 267 331 328
f 268 328 269
f 269 328 332
f 269 332 333
f 269 333 275
f 269 275 270
f 270 275 273
f 270 273 271
f 271 273 272
f 273 275 274
f 275 333 334
f 275 334 335
f 275 335 277
f 276 277 292
f 277 335 336
f 277 336 292
f 278 298 280
f 278 280 279
f 280 337 281
f 280 298 338
f 280 338 339
f 280 339 287
f 280 287 337
f 281 337 286
f 281 286 284
f 281 284 282
f 282 284 283
f 285 287 340
f 285 340 341
f 285 341 288
f 286 337 287
f 287 342 343
f 287 343 344
f 287 344 340
f 287 339 342
f 288 341 345
f 288 345 290
f 288 290 289
f 290 345 346
f 290 346 347
f 290 347 299
f 292 348 293
f 292 336 348
f 293 348 294
f 294 348 349
f 294 349 339
f 294 339 295
f 295 339 350
f 295 350 296
f 296 350 339
f 296 339 338
f 296 338 297
f 297 338 298
f 299 347 300
f 300 347 346
f 300 346 351
f 300 351 301
f 301 351 353
f 301 353 352
f 302 354 355
f 302 355 307
f 302 307 305
f 304 312 313
f 306 308 307
f 306 307 356
f 306 356 357
f 306 357 358
f 306 358 309
f 307 355 356
f 309 358 359
f 309 359 310
f 310 359 360
f 310 360 311
f 311 361 312
f 311 360 362
f 311 362 363
f 311 363 364
f 311 364 361
f 312 361 315
f 312 315 314
f 315 361 363
f 315 363 365
f 315 365 318
f 315 318 317
f 315 317 316
f 318 365 366
f 318 366 367
f 318 367 319
f 319 367 368
f 319 368 369
f 319 369 370
f 319 370 371
f 319 371 323
f 319 323 322
f 319 322 320
f 323 371 372
f 323 372 373
f 323 373 326
f 323 326 324
f 326 373 327
f 327 373 329
f 328 331 374
f 328 374 375
f 328 375 332
f 329 373 330
f 330 376 331
f 330 373 372
f 330 372 377
f 330 377 376
f 331 378 374
f 331 376 377
f 331 377 379
f 331 379 380
f 331 380 381
f 331 381 382
f 331 382 378
f 332 375 333
f 333 375 336
f 333 336 334
f 334 336 335
f 336 375 383
f 336 383 384
f 336 384 385
f 336 385 348
f 339 349 386
f 339 386 387
f 339 387 388
f 339 388 343
f 339 343 342
f 340 389 390
f 340 390 341
f 340 344 389
f 341 390 391
f 341 391 392
f 341 392 393
f 341 393 345
f 343 394 389
f 343 389 344
f 343 388 394
f 345 393 395
f 345 395 351
f 345 351 346
f 348 396 386
f 348 386 349
f 348 385 396
f 351 395 393
f 351 393 353
f 352 353 398
f 352 398 397
f 353 393 392
f 353 392 391
f 353 391 390
f 353 390 398
f 354 399 400
f 354 400 358
f 354 358 357
f 354 357 356
f 354 356 355
f 358 400 401
f 358 401 402
f 358 402 403
f 358 403 359
f 359 403 404
f 359 404 405
f 359 405 360
f 360 405 406
f 360 406 407
f 360 407 408
f 360 408 409
f 360 409 410
f 360 410 411
f 360 411 362
f 361 364 363
f 362 411 412
f 362 412 413
f 362 413 414
f 362 414 415
f 362 415 363
f 363 415 368
f 363 368 365
f 365 368 416
f 365 416 366
f 366 368 367
f 366 416 368
f 368 415 369
f 369 415 417
f 369 417 370
f 370 417 415
f 370 415 377
f 370 377 372
f 370 372 371
f 374 378 418
f 374 418 375
f 375 418 383
f 377 419 420
f 377 420 380
f 377 380 379
f 377 415 419
f 378 382 418
f 380 420 421
f 380 421 381
f 381 422 423
f 381 423 424
f 381 424 382
f 381 421 425
f 381 425 422
f 382 424 426
f 382 426 418
f 383 418 384
f 384 418 396
f 384 396 385
f 386 396 387
f 387 396 427
f 387 427 428
f 387 428 429
f 387 429 430
f 387 430 431
f 387 431 388
f 388 431 432
f 388 432 433
f 388 433 394
f 389 394 434
f 389 434 435
f 389 435 436
f 389 436 390
f 390 436 437
f 390 437 438
f 390 438 439
f 390 439 398
f 394 440 441
f 394 441 434
f 394 433 442
f 394 442 440
f 396 443 427
f 396 418 426
f 396 426 444
f 396 444 443
f 397 398 439
f 397 439 446
f 397 446 445
f 399 447 400
f 400 447 401
f 401 447 402
f 402 447 448
f 402 448 449
f 402 449 403
f 403 449 450
f 403 450 451
f 403 451 452
f 403 452 453
f 403 453 404
f 404 453 454
f 404 454 455
f 404 455 406
f 404 406 405
f 406 455 456
f 406 456 457
f 406 457 458
f 406 458 459
f 406 459 407
f 407 459 408
f 408 459 460
f 408 460 409
f 409 460 461
f 409 461 462
f 409 462 463
f 409 463 410
f 410 463 411
f 411 463 462
f 411 462 412
f 412 462 464
f 412 464 465
f 412 465 413
f 413 465 466
f 413 466 414
f 414 467 468
f 414 468 415
f 414 466 469
f 414 469 467
f 415 468 470
f 415 470 419
f 419 470 471
f 419 471 472
f 419 472 420
f 420 472 421
f 421 472 425
f 422 473 474
f 422 474 423
f 422 425 475
f 422 475 476
f 422 476 473
f 423 474 477
f 423 477 478
f 423 478 424
f 424 478 426
f 425 472 471
f 425 471 475
f 426 478 444
f 427 443 477
f 427 477 428
f 428 479 429
f 428 477 474
f 428 474 479
f 429 480 481
f 429 481 430
f 429 479 480
f 430 481 482
f 430 482 431
f 431 482 483
f 431 483 432
f 432 483 442
f 432 442 433
f 434 441 484
f 434 484 435
f 435 485 437
f 435 437 436
f 435 484 485
f 437 485 438
f 438 485 486
f 438 486 446
f 438 446 439
f 440 487 441
f 440 442 488
f 440 488 489
f 440 489 490
f 440 490 487
f 441 487 491
f 441 491 484
f 442 483 489
f 442 489 488
f 443 444 477
f 444 478 477
f 445 446 485
f 445 485 492
f 445 492 493
f 446 486 485
f 447 450 448
f 448 450 449
f 450 493 492
f 450 492 451
f 451 492 453
f 451 453 452
f 453 492 454
f 454 492 494
f 454 494 457
f 454 457 456
f 454 456 455
f 457 494 458
f 458 495 459
f 458 494 495
f 459 495 496
f 459 496 497
f 459 497 462
f 459 462 461
f 459 461 460
f 462 498 465
f 462 465 464
f 462 497 498
f 465 498 476
f 465 476 467
f 465 467 499
f 465 499 466
f 466 499 469
f 467 475 468
f 467 469 499
f 467 476 475
f 468 475 471
f 468 471 470
f 473 500 501
f 473 501 483
f 473 483 480
f 473 480 479
f 473 479 474
f 473 476 500
f 476 498 500
f 480 483 481
f 481 483 482
f 483 501 489
f 484 491 502
f 484 502 485
f 485 502 503
f 485 503 504
f 485 504 505
f 485 505 492
f 487 490 489
f 487 489 494
f 487 494 491
f 489 500 494
f 489 501 500
f 491 494 503
f 491 503 502
f 492 505 494
f 494 505 504
f 494 504 503
f 494 500 495
f 495 500 496
f 496 500 506
f 496 506 497
f 497 506 498
f 498 506 500

