# https://github.com/mikedh/trimesh
v 0.28559881 0.02192775 0.02808927
v 0.28559881 0.03026089 -0.00887085
v 0.28499338 0.02192775 0.02814771
v 0.28559881 0.02192775 -0.06124856
v 0.28559881 0.03029136 -0.00922152
v 0.23500624 0.03390121 -0.02839122
v 0.28499338 0.03026323 -0.00885916
v 0.28125840 0.02192775 0.02812434
v 0.28267395 0.02192775 -0.06524613
v 0.24844529 0.03390121 -0.08498859
v 0.28559881 0.03051053 -0.02218444
v 0.28559881 0.03077306 -0.01500749
v 0.23039296 0.03390121 -0.02863668
v 0.27499935 0.03023041 -0.00897605
v 0.24454831 0.03390121 -0.03316027
v 0.27499935 0.02910995 -0.00397323
v 0.27499935 0.02192775 0.02807758
v 0.27590325 0.02192775 -0.07419980
v 0.24697860 0.03390121 -0.08692894
v 0.25241050 0.03390121 -0.07527517
v 0.28559881 0.03075900 -0.01542829
v 0.25643539 0.03390121 -0.05499502
v 0.25643539 0.03390121 -0.04691803
v 0.25635865 0.03390121 -0.04498937
v 0.25499427 0.03390121 -0.04282694
v 0.24734527 0.03390121 -0.03531101
v 0.22602697 0.03390121 -0.03146538
v 0.19848374 0.02805278 -0.00500184
v 0.19848374 0.02239070 0.02150845
v 0.19848374 0.02192775 0.02367089
v 0.20580870 0.02192775 0.02419689
v 0.21517169 0.02192775 0.02482808
v 0.27111089 0.02192775 -0.08047670
v 0.25026160 0.03020815 -0.09012000
v 0.24401961 0.03390121 -0.08957062
v 0.19848374 0.02936194 -0.01500749
v 0.19848374 0.02850870 -0.00848512
v 0.22578821 0.03390121 -0.03434084
v 0.19848374 0.02192775 -0.05679511
v 0.26941398 0.02192775 -0.08150531
v 0.25026160 0.02969597 -0.09012000
v 0.24499172 0.03249829 -0.09065768
v 0.24042109 0.03390121 -0.09103172
v 0.22507191 0.03390121 -0.07499463
v 0.22582231 0.03390121 -0.08346904
v 0.19848374 0.02914511 -0.01849077
v 0.19848374 0.02658306 -0.03499541
v 0.22612077 0.03390121 -0.08498859
v 0.22851695 0.03390121 -0.08840173
v 0.23819545 0.02919668 -0.09075119
v 0.22325559 0.02192775 -0.07154642
v 0.25884861 0.02192775 -0.08464961
v 0.24499172 0.02916973 -0.09065768
v 0.23788847 0.03390121 -0.09124212
v 0.19848374 0.02865052 -0.02500145
v 0.23630239 0.03390121 -0.09126550
v 0.25496870 0.02192775 -0.08474313
v 0.24754992 0.02192775 -0.08467299
v 0.24519639 0.02192775 -0.08421713
v 0.22500369 0.02192775 -0.07258673
f 1 2 3
f 1 3 8
f 1 8 17
f 1 17 32
f 1 32 31
f 1 31 30
f 1 30 39
f 1 39 51
f 1 51 60
f 1 60 59
f 1 59 58
f 1 58 57
f 1 57 52
f 1 52 40
f 1 40 33
f 1 33 18
f 1 18 9
f 1 9 4
f 1 4 11
f 1 11 21
f 1 21 12
f 1 12 5
f 1 5 2
f 2 5 6
f 2 6 7
f 2 7 3
f 3 7 8
f 4 9 10
f 4 10 11
f 5 12 6
f 6 13 14
f 6 14 7
f 6 12 15
f 6 15 26
f 6 26 25
f 6 25 24
f 6 24 23
f 6 23 22
f 6 22 20
f 6 20 10
f 6 10 19
f 6 19 35
f 6 35 43
f 6 43 54
f 6 54 56
f 6 56 49
f 6 49 48
f 6 48 45
f 6 45 44
f 6 44 38
f 6 38 27
f 6 27 13
f 7 14 16
f 7 16 17
f 7 17 8
f 9 18 19
f 9 19 10
f 10 20 11
f 11 20 21
f 12 21 20
f 12 20 22
f 12 22 23
f 12 23 24
f 12 24 25
f 12 25 26
f 12 26 15
f 13 27 28
f 13 28 29
f 13 29 30
f 13 30 31
f 13 31 32
f 13 32 14
f 14 32 16
f 16 32 17
f 18 33 19
f 19 34 35
f 19 33 34
f 27 36 37
f 27 37 28
f 27 38 36
f 28 37 36
f 28 36 46
f 28 46 55
f 28 55 47
f 28 47 39
f 28 39 30
f 28 30 29
f 33 40 34
f 34 41 53
f 34 53 42
f 34 42 35
f 34 40 41
f 35 42 43
f 36 38 44
f 36 44 45
f 36 45 46
f 39 47 48
f 39 48 49
f 39 49 50
f 39 50 51
f 40 52 41
f 41 52 53
f 42 53 54
f 42 54 43
f 45 48 46
f 46 48 55
f 47 55 48
f 49 56 50
f 50 56 53
f 50 53 57
f 50 57 58
f 50 58 59
f 50 59 60
f 50 60 51
f 52 57 53
f 53 56 54

