# https://github.com/mikedh/trimesh
v -0.48575816 0.09254902 0.09431379
v -0.47768128 0.09147735 0.08762223
v -0.48293850 0.09147735 0.08762223
v -0.49092317 0.09139123 0.09718294
v -0.49092317 0.09139123 0.10224836
v -0.48513889 0.09208973 0.10534181
v -0.47678530 0.09212801 0.09499604
v -0.45914263 0.08052139 0.06850077
v -0.42875874 0.06076240 0.02741677
v -0.42500359 0.05676276 0.01522053
v -0.48023742 0.08087543 0.07971570
v -0.42522758 0.05670535 0.01522053
v -0.43221086 0.05374867 0.01522053
v -0.49092317 0.08865464 0.09718294
v -0.49092317 0.08865464 0.10224836
v -0.48191077 0.09072143 0.11068758
v -0.47890663 0.09072143 0.11068758
v -0.47770762 0.09156346 0.10499601
v -0.35633022 0.02230652 0.02500556
v -0.35633022 0.02292847 0.01632334
v -0.35633022 0.02297632 0.01522053
v -0.41509524 0.05301190 0.01522053
v -0.41533241 0.05312672 0.01522053
v -0.48023742 0.07972720 0.07971570
v -0.43221086 0.04778749 0.01522053
v -0.48094893 0.07932533 0.08499606
v -0.48117292 0.07929662 0.09499604
v -0.48052728 0.07968893 0.10176237
v -0.47841913 0.08092327 0.10843526
v -0.48191077 0.08759253 0.11068758
v -0.46932769 0.07951669 0.11025769
v -0.46932769 0.08056924 0.11025769
v -0.44889170 0.07091460 0.10079975
v -0.45986730 0.08008124 0.10020163
v -0.35633022 0.02101477 0.03291208
v -0.35633022 0.02206731 0.02652892
v -0.35633022 -0.00520297 0.01522053
v -0.43217134 0.04760569 0.01522053
v -0.42703268 0.04261092 0.01522053
v -0.42215756 0.03840077 0.01522053
v -0.41563544 0.03331989 0.01522053
v -0.41064173 0.02954032 0.01522053
v -0.40500242 0.02538758 0.01522053
v -0.39880967 0.02084254 0.01522053
v -0.39851981 0.02103391 0.02500556
v -0.39351293 0.01777104 0.02500556
v -0.39299905 0.01812508 0.03500553
v -0.39710999 0.02178982 0.04500551
v -0.39211628 0.01875660 0.04500551
v -0.46293733 0.06821628 0.09499604
v -0.46171194 0.06896262 0.10141658
v -0.47175205 0.07951669 0.11025769
v -0.45499218 0.06789094 0.10166892
v -0.44889170 0.06822585 0.10079975
v -0.42998412 0.06000648 0.09000540
v -0.35633022 0.01924459 0.03794010
v -0.35633022 -0.00438965 0.02500556
v -0.39359197 0.01744571 0.01522053
v -0.39392138 0.01764665 0.01522053
v -0.39099631 0.01948381 0.05177184
v -0.45002481 0.05997778 0.09007081
v -0.42499042 0.04756741 0.08343532
v -0.35633022 -0.00148082 0.03604291
v -0.35880733 0.00053814 0.03841674
v -0.42998412 0.05982468 0.09000540
v -0.35633022 0.00464303 0.04354756
v -0.35633022 0.01433594 0.04382794
v -0.35633022 -0.00197838 0.03442609
v -0.36081007 -0.00050483 0.03174385
v -0.35633022 0.00320776 0.04208963
f 1 2 3
f 1 3 4
f 1 4 5
f 1 5 6
f 1 6 7
f 1 7 2
f 2 7 8
f 2 8 9
f 2 9 10
f 2 10 3
f 3 11 4
f 3 10 12
f 3 12 13
f 3 13 11
f 4 14 15
f 4 15 5
f 4 11 24
f 4 24 14
f 5 15 30
f 5 30 16
f 5 16 6
f 6 16 17
f 6 17 18
f 6 18 7
f 7 18 19
f 7 19 20
f 7 20 21
f 7 21 22
f 7 22 8
f 8 22 23
f 8 23 9
f 9 23 10
f 10 23 22
f 10 22 21
f 10 21 37
f 10 37 58
f 10 58 59
f 10 59 44
f 10 44 43
f 10 43 42
f 10 42 41
f 10 41 40
f 10 40 39
f 10 39 38
f 10 38 25
f 10 25 13
f 10 13 12
f 11 13 25
f 11 25 24
f 14 24 26
f 14 26 27
f 14 27 15
f 15 27 28
f 15 28 29
f 15 29 30
f 16 30 17
f 17 30 31
f 17 31 32
f 17 32 33
f 17 33 34
f 17 34 18
f 18 34 35
f 18 35 36
f 18 36 19
f 19 36 35
f 19 35 56
f 19 56 67
f 19 67 66
f 19 66 70
f 19 70 63
f 19 63 68
f 19 68 57
f 19 57 37
f 19 37 21
f 19 21 20
f 24 25 38
f 24 38 39
f 24 39 26
f 26 39 40
f 26 40 41
f 26 41 42
f 26 42 43
f 26 43 44
f 26 44 27
f 27 44 45
f 27 45 46
f 27 46 47
f 27 47 48
f 27 48 28
f 28 48 49
f 28 49 50
f 28 50 51
f 28 51 29
f 29 52 30
f 29 51 52
f 30 52 31
f 31 52 53
f 31 53 54
f 31 54 33
f 31 33 32
f 33 54 65
f 33 65 55
f 33 55 34
f 34 55 35
f 35 55 56
f 37 57 47
f 37 47 46
f 37 46 58
f 44 59 45
f 45 59 46
f 46 59 58
f 47 57 49
f 47 49 48
f 49 57 60
f 49 60 61
f 49 61 50
f 50 61 51
f 51 62 53
f 51 53 52
f 51 61 60
f 51 60 63
f 51 63 64
f 51 64 62
f 53 62 54
f 54 62 66
f 54 66 65
f 55 65 67
f 55 67 56
f 57 68 69
f 57 69 60
f 60 69 68
f 60 68 63
f 62 64 70
f 62 70 66
f 63 70 64
f 65 66 67

