# https://github.com/mikedh/trimesh
v 0.25643417 0.03390121 -0.04692488
v 0.25643417 0.03390121 -0.05500037
v 0.24215840 0.04100722 -0.04500334
v 0.25635505 0.03390121 -0.04500334
v 0.25241026 0.03390121 -0.07527702
v 0.23489054 0.04260204 -0.08499776
v 0.22027004 0.05013872 -0.08139957
v 0.21500282 0.05317358 -0.06499740
v 0.21500282 0.05349658 -0.05500037
v 0.21500282 0.05361546 -0.04500334
v 0.22088607 0.05041013 -0.03832190
v 0.24142936 0.04066404 -0.03900637
v 0.25499868 0.03390121 -0.04283690
v 0.24844855 0.03390121 -0.08499776
v 0.23989214 0.03980495 -0.08499776
v 0.23323464 0.04174744 -0.09207480
v 0.22416395 0.04772743 -0.08484077
v 0.21500282 0.05119520 -0.08252990
v 0.21500282 0.05270702 -0.07499444
v 0.20500527 0.05650003 -0.05500037
v 0.20500527 0.05681630 -0.04500334
v 0.21534191 0.05212606 -0.03499375
v 0.21223922 0.05117052 -0.02924796
v 0.24734651 0.03390121 -0.03531400
v 0.24697916 0.03390121 -0.08692557
v 0.24401775 0.03390121 -0.08957554
v 0.24041773 0.03390121 -0.09103240
v 0.22500037 0.03749460 -0.09252693
v 0.22500037 0.04336917 -0.09252693
v 0.20836228 0.05145539 -0.08197102
v 0.19870383 0.05384425 -0.04500334
v 0.20632207 0.05249393 -0.07499444
v 0.19878858 0.05355938 -0.05500037
v 0.19911073 0.05218663 -0.03500003
v 0.20500527 0.05453960 -0.03500003
v 0.20500527 0.05155633 -0.02910353
v 0.23499793 0.03390121 -0.02838766
v 0.24454901 0.03390121 -0.03317267
v 0.23788020 0.03390121 -0.09123962
v 0.21877238 0.03910062 -0.09129614
v 0.23629212 0.03390121 -0.09126474
v 0.22850996 0.03390121 -0.08840127
v 0.21877238 0.04274559 -0.09129614
v 0.19931418 0.05163259 -0.06317006
v 0.20836228 0.04781042 -0.08197102
v 0.19870383 0.04884896 -0.04500334
v 0.19878858 0.04889606 -0.05500037
v 0.19911073 0.04908448 -0.03500003
v 0.19960806 0.05090584 -0.02956194
v 0.20500527 0.04869867 -0.02910353
v 0.23038627 0.03390121 -0.02863257
v 0.22611937 0.03390121 -0.08499776
v 0.21771555 0.03859594 -0.08499776
v 0.19931418 0.04928635 -0.06317006
v 0.22578593 0.03390121 -0.03434695
v 0.22507384 0.03390121 -0.07499444
v 0.21723518 0.03851967 -0.07499444
v 0.22602330 0.03390121 -0.03147092
v 0.19960806 0.04955552 -0.02956194
v 0.22582549 0.03390121 -0.08346555
f 1 2 3
f 1 3 4
f 1 4 13
f 1 13 24
f 1 24 38
f 1 38 37
f 1 37 51
f 1 51 58
f 1 58 55
f 1 55 56
f 1 56 60
f 1 60 52
f 1 52 42
f 1 42 41
f 1 41 39
f 1 39 27
f 1 27 26
f 1 26 25
f 1 25 14
f 1 14 5
f 1 5 2
f 2 5 6
f 2 6 7
f 2 7 3
f 3 7 8
f 3 8 9
f 3 9 10
f 3 10 11
f 3 11 12
f 3 12 4
f 4 12 13
f 5 14 15
f 5 15 6
f 6 15 16
f 6 16 17
f 6 17 7
f 7 17 18
f 7 18 19
f 7 19 8
f 8 19 20
f 8 20 9
f 9 20 21
f 9 21 10
f 10 21 22
f 10 22 11
f 11 22 12
f 12 22 23
f 12 23 24
f 12 24 13
f 14 25 16
f 14 16 15
f 16 25 26
f 16 26 27
f 16 27 28
f 16 28 29
f 16 29 18
f 16 18 17
f 18 29 30
f 18 30 19
f 19 30 20
f 20 31 21
f 20 30 32
f 20 32 33
f 20 33 31
f 21 31 34
f 21 34 35
f 21 35 22
f 22 35 23
f 23 36 37
f 23 37 38
f 23 38 24
f 23 35 36
f 27 39 28
f 28 40 43
f 28 43 29
f 28 39 41
f 28 41 42
f 28 42 40
f 29 43 30
f 30 44 32
f 30 43 40
f 30 40 45
f 30 45 54
f 30 54 44
f 31 33 47
f 31 47 46
f 31 46 48
f 31 48 34
f 32 44 33
f 33 44 54
f 33 54 47
f 34 48 59
f 34 59 49
f 34 49 35
f 35 49 36
f 36 50 37
f 36 49 59
f 36 59 50
f 37 50 51
f 40 42 52
f 40 52 53
f 40 53 54
f 40 54 45
f 46 55 48
f 46 47 56
f 46 56 55
f 47 54 53
f 47 53 57
f 47 57 56
f 48 55 58
f 48 58 59
f 50 59 51
f 51 59 58
f 52 60 53
f 53 60 56
f 53 56 57

