# https://github.com/mikedh/trimesh
v -0.27541918 -0.01499177 0.05087151
v -0.29500225 -0.00863377 0.05073439
v -0.29500225 -0.01161252 0.05073439
v -0.27541918 -0.02064889 0.05044402
v -0.27541918 -0.00941601 0.05040370
v -0.28500086 -0.00904679 0.05061340
v -0.30170152 -0.00914692 0.05037143
v -0.35630918 0.01432637 0.04381407
v -0.30170152 -0.01064881 0.05037143
v -0.28014669 -0.02005439 0.05003268
v -0.27541918 -0.02566770 0.04676609
v -0.27541918 -0.00442222 0.04670157
v -0.34499329 0.00499588 0.04563691
v -0.35630918 0.00463292 0.04353984
v -0.27541918 0.00149147 0.04191058
v -0.27541918 0.00174804 0.04170088
v -0.34499329 0.01296841 0.04312849
v -0.35630918 0.01923254 0.03793423
v -0.30501947 -0.01438476 0.04666930
v -0.34499329 -0.00258867 0.04250744
v -0.28473955 -0.02487921 0.04499166
v -0.28266484 -0.03096186 0.04092658
v -0.27541918 -0.02598686 0.04651606
v -0.35630918 0.00319987 0.04207996
v -0.35212809 -0.00098665 0.04103950
v -0.27541918 0.00529000 0.03499833
v -0.31131485 0.00979567 0.03955542
v -0.35630918 0.02100352 0.03290933
v -0.31422105 -0.01520454 0.04292686
v -0.29500225 -0.02342113 0.04285426
v -0.33133346 -0.01054242 0.04057975
v -0.31035671 -0.02013574 0.04015227
v -0.30500361 -0.02124964 0.04116854
v -0.27541918 -0.03186926 0.04178960
v -0.28933242 -0.02969778 0.03933764
v -0.28560269 -0.03239492 0.03560326
v -0.27541918 -0.03549882 0.03502253
v -0.35630918 -0.00148728 0.03603073
v -0.33800104 -0.00912814 0.03811167
v -0.27541918 0.00822494 0.02499694
v -0.27541918 0.00963922 0.01875414
v -0.27541918 0.01075312 0.01355181
v -0.35630918 0.02206110 0.02651328
v -0.34116060 -0.01050488 0.03144945
v -0.31996214 -0.01998555 0.02993311
v -0.29198521 -0.03082419 0.03266736
v -0.28500086 -0.03573037 0.02499694
v -0.27541918 -0.03563024 0.03457892
v -0.35527974 -0.00232584 0.03503866
v -0.34469238 -0.00749484 0.03486928
v -0.35630918 -0.00198165 0.03441761
v -0.27541918 0.01075312 0.00630080
v -0.35630918 0.02298101 0.01499556
v -0.35630918 0.02291843 0.01631026
v -0.35630918 0.02229890 0.02499694
v -0.34770149 -0.00898421 0.02499694
v -0.34269685 -0.01118698 0.02499694
v -0.33499983 -0.01453495 0.02499694
v -0.29519230 -0.03159391 0.02456140
v -0.29865280 -0.02942869 0.02760215
v -0.30052161 -0.03021718 0.02093187
v -0.27791360 -0.03966657 0.01850411
v -0.28089896 -0.04037996 0.01183383
v -0.27541918 -0.03895317 0.02319024
v -0.35630918 -0.00439093 0.02499694
v -0.35499465 -0.00517317 0.02499694
v -0.27541918 0.00977063 0.00151788
v -0.35630918 0.02119751 -0.00485397
v -0.35630918 0.02270566 0.00500223
v -0.34880221 -0.00946607 0.01499556
v -0.27541918 -0.04084931 0.01474552
v -0.27541918 -0.04064279 0.01582632
v -0.28089896 -0.04037996 0.00811557
v -0.27541918 -0.04094943 0.00508289
v -0.35630918 -0.00522323 0.01499556
v -0.35499465 -0.00604301 0.01499556
v -0.27541918 0.00826874 -0.00499109
v -0.35630918 0.01996471 -0.00956430
v -0.35499465 -0.00527329 0.00500223
v -0.34801823 -0.00912814 0.00500223
v -0.27839664 -0.03967908 0.00145335
v -0.34139025 -0.01060500 -0.00331344
v -0.33998865 -0.00999173 -0.00998372
v -0.28500086 -0.03558018 -0.00499915
v -0.27541918 -0.04083679 0.00447797
v -0.35630918 -0.00445351 0.00500223
v -0.27541918 0.00554657 -0.01455693
v -0.27541918 0.00540264 -0.01499248
v -0.27541918 0.00202339 -0.02167082
v -0.27541918 0.00186068 -0.02195312
v -0.35630918 0.01624753 -0.01399234
v -0.35630918 -0.00417817 0.00339717
v -0.35560441 -0.00267628 -0.00520886
v -0.34483489 -0.00838346 -0.00599123
v -0.27541918 -0.03897195 -0.00410387
v -0.27541918 -0.03996069 0.00019512
v -0.27541918 -0.03586804 -0.01500054
v -0.35630918 -0.00210055 -0.00586218
v -0.35630918 -0.00046725 -0.01001598
v -0.35267445 -0.00148102 -0.01162104
v -0.28207886 -0.03096812 -0.02092072
v -0.28874645 -0.02924095 -0.01865427
v -0.28525427 -0.03235111 -0.01519412
v -0.29155758 -0.03071155 -0.01199206
v -0.27541918 -0.00387153 -0.02674411
v -0.27541918 -0.00414062 -0.02695381
v -0.27541918 -0.00893415 -0.03047849
v -0.27541918 -0.00913440 -0.03062368
v -0.35630918 0.01567181 -0.01430690
v -0.35630918 -0.00237590 -0.00476525
v -0.27541918 -0.03571785 -0.01534736
v -0.35630918 0.00442641 -0.01461339
v -0.34499329 -0.00360870 -0.01371004
v -0.33332106 -0.00158115 -0.02104977
v -0.28447825 -0.02467896 -0.02475190
v -0.28021002 -0.02011697 -0.03008328
v -0.27541918 -0.02579912 -0.02746195
v -0.27541918 -0.02622465 -0.02712319
v -0.27541918 -0.03210080 -0.02215476
v -0.27541918 -0.01477275 -0.03152703
v -0.29078156 -0.00977896 -0.03012361
v -0.34499329 0.00499588 -0.01791224
v -0.35630918 0.00500839 -0.01486343
v -0.33332106 0.00205468 -0.02104977
v -0.29078156 -0.01034843 -0.03012361
v -0.27541918 -0.02120584 -0.03086565
v -0.27541918 -0.01496048 -0.03151897
v -0.27541918 -0.02097430 -0.03089791
f 1 2 3
f 1 3 4
f 1 4 11
f 1 11 23
f 1 23 34
f 1 34 37
f 1 37 48
f 1 48 64
f 1 64 72
f 1 72 71
f 1 71 74
f 1 74 85
f 1 85 96
f 1 96 95
f 1 95 97
f 1 97 111
f 1 111 119
f 1 119 118
f 1 118 117
f 1 117 126
f 1 126 128
f 1 128 127
f 1 127 120
f 1 120 108
f 1 108 107
f 1 107 106
f 1 106 105
f 1 105 90
f 1 90 89
f 1 89 88
f 1 88 87
f 1 87 77
f 1 77 67
f 1 67 52
f 1 52 42
f 1 42 41
f 1 41 40
f 1 40 26
f 1 26 16
f 1 16 15
f 1 15 12
f 1 12 5
f 1 5 6
f 1 6 2
f 2 7 9
f 2 9 3
f 2 6 8
f 2 8 7
f 3 9 4
f 4 9 10
f 4 10 11
f 5 12 8
f 5 8 6
f 7 8 13
f 7 13 9
f 8 14 13
f 8 12 15
f 8 15 16
f 8 16 17
f 8 17 18
f 8 18 28
f 8 28 43
f 8 43 55
f 8 55 54
f 8 54 53
f 8 53 69
f 8 69 68
f 8 68 78
f 8 78 91
f 8 91 109
f 8 109 123
f 8 123 112
f 8 112 99
f 8 99 98
f 8 98 110
f 8 110 92
f 8 92 86
f 8 86 75
f 8 75 65
f 8 65 51
f 8 51 38
f 8 38 24
f 8 24 14
f 9 19 10
f 9 13 14
f 9 14 20
f 9 20 19
f 10 19 21
f 10 21 22
f 10 22 11
f 11 22 23
f 14 24 25
f 14 25 20
f 16 26 27
f 16 27 18
f 16 18 17
f 18 27 26
f 18 26 28
f 19 29 30
f 19 30 21
f 19 20 29
f 20 25 31
f 20 31 32
f 20 32 33
f 20 33 29
f 21 30 22
f 22 34 23
f 22 30 33
f 22 33 32
f 22 32 35
f 22 35 36
f 22 36 37
f 22 37 34
f 24 38 25
f 25 38 39
f 25 39 31
f 26 40 28
f 28 40 41
f 28 41 42
f 28 42 43
f 29 33 30
f 31 39 32
f 32 39 35
f 35 39 44
f 35 44 45
f 35 45 46
f 35 46 36
f 36 46 47
f 36 47 37
f 37 47 48
f 38 49 44
f 38 44 50
f 38 50 39
f 38 51 49
f 39 50 44
f 42 52 53
f 42 53 54
f 42 54 55
f 42 55 43
f 44 49 51
f 44 51 56
f 44 56 57
f 44 57 58
f 44 58 45
f 45 59 60
f 45 60 46
f 45 58 61
f 45 61 59
f 46 60 47
f 47 62 48
f 47 60 59
f 47 59 61
f 47 61 63
f 47 63 62
f 48 62 64
f 51 65 66
f 51 66 56
f 52 67 68
f 52 68 69
f 52 69 53
f 56 66 70
f 56 70 63
f 56 63 57
f 57 63 58
f 58 63 61
f 62 71 72
f 62 72 64
f 62 63 71
f 63 73 74
f 63 74 71
f 63 70 73
f 65 75 76
f 65 76 66
f 66 76 70
f 67 77 68
f 68 77 78
f 70 76 79
f 70 79 80
f 70 80 73
f 73 81 74
f 73 80 82
f 73 82 83
f 73 83 84
f 73 84 81
f 74 81 85
f 75 86 79
f 75 79 76
f 77 87 78
f 78 87 88
f 78 88 89
f 78 89 90
f 78 90 91
f 79 86 92
f 79 92 93
f 79 93 80
f 80 93 94
f 80 94 83
f 80 83 82
f 81 95 96
f 81 96 85
f 81 84 97
f 81 97 95
f 83 94 93
f 83 93 98
f 83 98 99
f 83 99 100
f 83 100 101
f 83 101 102
f 83 102 103
f 83 103 104
f 83 104 84
f 84 104 103
f 84 103 97
f 90 105 91
f 91 105 106
f 91 106 107
f 91 107 108
f 91 108 109
f 92 110 93
f 93 110 98
f 97 103 111
f 99 112 100
f 100 112 113
f 100 113 101
f 101 113 114
f 101 114 115
f 101 115 116
f 101 116 117
f 101 117 118
f 101 118 119
f 101 119 111
f 101 111 103
f 101 103 102
f 108 120 121
f 108 121 109
f 109 122 123
f 109 121 124
f 109 124 122
f 112 123 114
f 112 114 113
f 114 124 121
f 114 121 125
f 114 125 116
f 114 116 115
f 114 123 122
f 114 122 124
f 116 125 126
f 116 126 117
f 120 127 125
f 120 125 121
f 125 127 128
f 125 128 126

