# https://github.com/mikedh/trimesh
v 0.43284619 -0.20014603 0.01868901
v 0.43212926 -0.20014603 0.01435586
v 0.43221888 -0.20014603 0.02266569
v 0.46630362 -0.24414815 0.02211118
v 0.43200976 -0.20014603 0.01374589
v 0.43045640 -0.20014603 0.02479662
v 0.46573603 -0.24425453 0.02575514
v 0.46585554 -0.24476519 0.01759582
v 0.48578060 -0.27351126 0.02425003
v 0.42956021 -0.20014603 0.00919093
v 0.48592997 -0.38892105 0.03412835
v 0.49465281 -0.37302667 0.03392239
v 0.49808815 -0.35370660 0.03332826
v 0.46451125 -0.24491414 0.02784646
v 0.42964983 -0.20014603 0.02475701
v 0.19482064 -0.31649205 0.01873654
v 0.48521304 -0.27357510 0.02768011
v 0.46409303 -0.24623336 0.01287450
v 0.48524290 -0.27402192 0.01995648
v 0.49372673 -0.29234195 0.02539075
v 0.42926148 -0.20014603 0.00869186
v 0.47230804 -0.40085781 0.03393823
v 0.48712486 -0.38987857 0.03216378
v 0.49584770 -0.37392032 0.03195781
v 0.49937266 -0.35423854 0.03136369
v 0.49940255 -0.33296093 0.03054775
v 0.49799854 -0.33285454 0.03251233
v 0.49617630 -0.31236419 0.03164887
v 0.49175513 -0.29268241 0.03072203
v 0.48389864 -0.27406448 0.02970806
v 0.19482064 -0.20014603 0.01088616
v 0.19482064 -0.30310842 0.01800775
v 0.19482064 -0.31685376 0.01828501
v 0.22218402 -0.34102514 0.01843552
v 0.22296071 -0.33983359 0.02075657
v 0.49312928 -0.29236323 0.02872577
v 0.45602742 -0.24459499 0.00848590
v 0.48327130 -0.27523476 0.01531438
v 0.49312928 -0.29274622 0.02118434
v 0.49758032 -0.31223652 0.02966845
v 0.49817777 -0.31227908 0.02638888
v 0.42609498 -0.20014603 0.00686196
v 0.45420519 -0.40841135 0.03335202
v 0.45498186 -0.40956035 0.03139538
v 0.47344318 -0.40185785 0.03197366
v 0.28222811 -0.37226069 0.02445599
v 0.48766258 -0.39030409 0.02905848
v 0.49638540 -0.37430334 0.02883667
v 0.49994028 -0.35449389 0.02818710
v 0.49997014 -0.33308858 0.02731572
v 0.19482064 -0.20014603 -0.02644868
v 0.19482064 -0.31827936 0.01641549
v 0.22209440 -0.34155709 0.01399938
v 0.28160080 -0.37409055 0.01820579
v 0.28163067 -0.37353733 0.02224584
v 0.19482064 -0.31842831 0.01544113
v 0.47111312 -0.27431983 0.00839084
v 0.42806658 -0.21446587 0.00301994
v 0.49097845 -0.29366118 0.01657393
v 0.48330116 -0.29159725 0.01224077
v 0.49755043 -0.31257698 0.02223792
v 0.49937266 -0.33321625 0.02320437
v 0.41468361 -0.20014603 0.00092862
v 0.43380213 -0.41285837 0.03255194
v 0.43422034 -0.41419888 0.03058737
v 0.37333980 -0.41183704 0.02978727
v 0.41342896 -0.41551808 0.03170432
v 0.43448919 -0.41473082 0.02735532
v 0.45537022 -0.41004974 0.02821879
v 0.47392115 -0.40228340 0.02885252
v 0.34036037 -0.40058118 0.02583436
v 0.34071884 -0.39924070 0.02792568
v 0.47344318 -0.40183657 0.02484415
v 0.48712486 -0.38987857 0.02506596
v 0.49584770 -0.37394160 0.02482831
v 0.49937266 -0.35436621 0.02413912
v 0.19858460 -0.20014603 -0.02810431
v 0.21606012 -0.21482760 -0.03426737
v 0.19482064 -0.24563758 -0.02167191
v 0.22281134 -0.34121665 0.00863641
v 0.19482064 -0.31887513 0.01186053
v 0.19482064 -0.31868365 0.01068020
v 0.19482064 -0.31796020 0.00632328
v 0.34036037 -0.40113443 0.02219831
v 0.28219825 -0.37364373 0.01325474
v 0.40978450 -0.29223555 -0.01904191
v 0.32596174 -0.21970016 -0.04170582
v 0.34343725 -0.20014603 -0.02983915
v 0.49533987 -0.31315148 0.01764335
v 0.47998530 -0.30234244 0.01013361
v 0.49713224 -0.33330137 0.01860980
v 0.49728161 -0.35366404 0.01954455
v 0.41360819 -0.41692239 0.02972390
v 0.41378742 -0.41749689 0.02645225
v 0.37316057 -0.41322011 0.02775141
v 0.39320517 -0.41687983 0.02878915
v 0.39320517 -0.41547552 0.03078541
v 0.43445933 -0.41411376 0.02324397
v 0.45510137 -0.40951779 0.02417081
v 0.37322032 -0.41379458 0.02432924
v 0.47168070 -0.40024075 0.02024166
v 0.48518315 -0.38830400 0.02046347
v 0.49390596 -0.37253729 0.02022582
v 0.21859930 -0.20014603 -0.03406140
v 0.25059295 -0.20014603 -0.03836288
v 0.30203372 -0.24142462 -0.04679945
v 0.28605181 -0.26944724 -0.04168206
v 0.19482064 -0.25202087 -0.02027769
v 0.22439459 -0.33972722 0.00353485
v 0.19482064 -0.31517285 0.00104745
v 0.34086820 -0.40055990 0.01768296
v 0.28351265 -0.37185642 0.00832746
v 0.39012825 -0.31206632 -0.02446034
v 0.48912632 -0.32606697 0.01407860
v 0.47153133 -0.35151500 0.00795515
v 0.30221295 -0.20014603 -0.03913920
v 0.31750777 -0.20014603 -0.03680230
v 0.39332464 -0.41745436 0.02545412
v 0.39359349 -0.41679475 0.02124771
v 0.41390693 -0.41681603 0.02229337
v 0.43407097 -0.41192216 0.01864940
v 0.45396620 -0.40764537 0.01956832
v 0.37360868 -0.41315627 0.02002778
v 0.44628891 -0.38298461 0.00797099
v 0.46009010 -0.36817539 0.00677482
v 0.37498280 -0.33557808 -0.01901815
v 0.37080064 -0.39930454 0.00845421
v 0.30307925 -0.37026060 0.00310708
v 0.26098865 -0.30427870 -0.02224227
v 0.19482064 -0.29806563 -0.00671579
v 0.23455131 -0.32983312 -0.00539287
v 0.19482064 -0.31306636 -0.00007743
v 0.34191376 -0.39853853 0.01295372
v 0.33856800 -0.39102754 0.00856511
v 0.37435549 -0.41096467 0.01538567
v 0.39401171 -0.41451803 0.01663730
v 0.41399655 -0.41451803 0.01769880
v 0.42525855 -0.40564525 0.01411821
v 0.40010574 -0.40190041 0.01018114
v 0.39033738 -0.40745386 0.01230414
f 1 2 5
f 1 5 10
f 1 10 21
f 1 21 42
f 1 42 63
f 1 63 88
f 1 88 117
f 1 117 116
f 1 116 105
f 1 105 104
f 1 104 77
f 1 77 51
f 1 51 31
f 1 31 15
f 1 15 6
f 1 6 3
f 1 3 4
f 1 4 2
f 2 4 5
f 3 6 7
f 3 7 4
f 4 8 5
f 4 7 9
f 4 9 8
f 5 8 10
f 6 11 12
f 6 12 13
f 6 13 14
f 6 14 7
f 6 15 16
f 6 16 11
f 7 14 17
f 7 17 9
f 8 18 10
f 8 9 19
f 8 19 18
f 9 17 20
f 9 20 19
f 10 18 21
f 11 22 23
f 11 23 12
f 11 16 22
f 12 23 24
f 12 24 25
f 12 25 13
f 13 25 26
f 13 26 27
f 13 27 28
f 13 28 29
f 13 29 30
f 13 30 14
f 14 30 17
f 15 31 32
f 15 32 16
f 16 32 31
f 16 31 51
f 16 51 79
f 16 79 108
f 16 108 130
f 16 130 132
f 16 132 110
f 16 110 83
f 16 83 82
f 16 82 81
f 16 81 56
f 16 56 52
f 16 52 33
f 16 33 34
f 16 34 35
f 16 35 22
f 17 30 36
f 17 36 20
f 18 37 21
f 18 19 38
f 18 38 37
f 19 20 39
f 19 39 38
f 20 36 40
f 20 40 41
f 20 41 39
f 21 37 42
f 22 43 44
f 22 44 45
f 22 45 23
f 22 35 46
f 22 46 43
f 23 45 47
f 23 47 24
f 24 48 25
f 24 47 48
f 25 49 26
f 25 48 49
f 26 49 50
f 26 50 41
f 26 41 40
f 26 40 27
f 27 40 28
f 28 36 29
f 28 40 36
f 29 36 30
f 33 52 34
f 34 53 54
f 34 54 55
f 34 55 35
f 34 52 56
f 34 56 53
f 35 55 46
f 37 38 57
f 37 57 58
f 37 58 42
f 38 39 59
f 38 59 60
f 38 60 57
f 39 41 61
f 39 61 59
f 41 50 62
f 41 62 61
f 42 58 63
f 43 64 65
f 43 65 44
f 43 46 66
f 43 66 67
f 43 67 64
f 44 65 68
f 44 68 69
f 44 69 45
f 45 69 70
f 45 70 47
f 46 55 71
f 46 71 72
f 46 72 66
f 47 70 73
f 47 73 74
f 47 74 75
f 47 75 48
f 48 75 76
f 48 76 49
f 49 76 50
f 50 76 62
f 51 77 78
f 51 78 79
f 53 80 54
f 53 56 81
f 53 81 82
f 53 82 83
f 53 83 80
f 54 84 55
f 54 80 85
f 54 85 84
f 55 84 71
f 57 60 86
f 57 86 87
f 57 87 58
f 58 87 88
f 58 88 63
f 59 61 89
f 59 89 60
f 60 90 86
f 60 89 90
f 61 62 91
f 61 91 89
f 62 76 92
f 62 92 91
f 64 93 65
f 64 67 93
f 65 93 94
f 65 94 68
f 66 95 96
f 66 96 97
f 66 97 67
f 66 72 95
f 67 97 93
f 68 94 98
f 68 98 99
f 68 99 69
f 69 99 70
f 70 99 73
f 71 84 100
f 71 100 95
f 71 95 72
f 73 99 101
f 73 101 74
f 74 101 102
f 74 102 103
f 74 103 75
f 75 103 76
f 76 103 92
f 77 104 78
f 78 104 105
f 78 105 106
f 78 106 107
f 78 107 79
f 79 107 108
f 80 109 85
f 80 83 110
f 80 110 109
f 84 111 100
f 84 85 111
f 85 109 112
f 85 112 111
f 86 113 87
f 86 90 114
f 86 114 115
f 86 115 113
f 87 113 106
f 87 106 116
f 87 116 117
f 87 117 88
f 89 91 114
f 89 114 90
f 91 92 114
f 92 103 115
f 92 115 114
f 93 97 96
f 93 96 94
f 94 96 118
f 94 118 119
f 94 119 120
f 94 120 98
f 95 100 118
f 95 118 96
f 98 121 122
f 98 122 99
f 98 120 121
f 99 122 101
f 100 123 118
f 100 111 123
f 101 122 124
f 101 124 125
f 101 125 102
f 102 125 103
f 103 125 115
f 105 116 106
f 106 113 107
f 107 113 126
f 107 126 127
f 107 127 128
f 107 128 129
f 107 129 130
f 107 130 108
f 109 131 112
f 109 110 132
f 109 132 131
f 111 133 123
f 111 112 133
f 112 131 128
f 112 128 134
f 112 134 133
f 113 115 125
f 113 125 124
f 113 124 126
f 118 123 119
f 119 123 135
f 119 135 136
f 119 136 120
f 120 137 121
f 120 136 137
f 121 137 138
f 121 138 122
f 122 138 124
f 123 133 135
f 124 138 126
f 126 138 139
f 126 139 140
f 126 140 127
f 127 140 135
f 127 135 134
f 127 134 128
f 128 131 129
f 129 131 130
f 130 131 132
f 133 134 135
f 135 140 136
f 136 140 137
f 137 140 139
f 137 139 138

