# https://github.com/mikedh/trimesh
v 0.07225437 -0.10107951 0.02816530
v 0.07225437 -0.10063602 0.03945220
v 0.07225437 -0.10014664 0.01511853
v 0.15059792 -0.16523288 0.00850976
v 0.15059792 -0.16523288 0.00960875
v 0.07225437 -0.09996314 0.04193234
v 0.07225437 -0.09867854 0.01199979
v 0.15530093 -0.16523288 -0.00668300
v 0.15510897 -0.16523288 -0.00613350
v 0.15471305 -0.16523288 0.01748730
v 0.07225437 -0.09932084 0.04424912
v 0.07225437 -0.09707279 0.00873253
v 0.16824621 -0.16523288 -0.01603924
v 0.15797637 -0.16523288 0.02078426
v 0.07225437 -0.08820295 0.04634314
v 0.10238004 -0.12076136 0.03888042
v 0.10777891 -0.11426192 0.03994228
v 0.07225437 -0.09286726 0.00789344
v 0.16968592 -0.16523288 -0.01662586
v 0.16421506 -0.16523288 0.02162335
v 0.07225437 -0.07849202 0.04735302
v 0.14848636 -0.15342683 0.02624949
v 0.12186395 -0.09678223 0.04028386
v 0.15581682 -0.14968008 0.02632375
v 0.07225437 -0.08548083 0.00698751
v 0.18071160 -0.16523288 -0.02070251
v 0.17549269 -0.16523288 0.01984864
v 0.07225437 -0.05700561 0.04953615
v 0.13586502 -0.07927195 0.03992001
v 0.07784519 -0.02843862 0.05112522
v 0.18084356 -0.11849803 0.02630890
v 0.07225437 -0.07985307 0.00698751
v 0.19480863 -0.16523288 -0.02459352
v 0.18716624 -0.16523288 -0.02248465
v 0.19480863 -0.16523288 0.01486607
v 0.19480863 -0.12987588 0.02165305
v 0.07225437 -0.03542744 0.05125146
v 0.14103593 -0.07258899 0.03885815
v 0.08377194 -0.02094514 0.05004852
v 0.18290713 -0.11051518 0.02622722
v 0.07225437 -0.02628233 0.05117720
v 0.07225437 -0.02222974 0.05105097
v 0.07225437 -0.02363668 0.05115493
v 0.19480863 -0.12245887 0.02243274
v 0.07225437 -0.05702090 0.00839838
v 0.19480863 -0.16474351 -0.02454154
v 0.07225437 -0.02669524 0.01112357
v 0.19480863 -0.12076136 0.02252927
v 0.19480863 -0.11355845 0.01662593
v 0.08504368 -0.02068516 0.04443476
v 0.07225437 -0.00939906 0.04441991
v 0.07225437 -0.01080600 0.05010792
v 0.19480863 -0.15536901 -0.02329404
v 0.07225437 -0.01328344 0.01397499
v 0.19480863 -0.11158568 0.00748503
v 0.07225437 -0.00932260 0.04174670
v 0.19480863 -0.14123845 -0.01986342
v 0.07225437 -0.00998019 0.01971498
v 0.19480863 -0.11380313 -0.00262863
v 0.19480863 -0.12345290 -0.01375959
v 0.19480863 -0.12426342 -0.01418285
v 0.19480863 -0.13726231 -0.01885354
v 0.19480863 -0.11161626 0.00711375
v 0.07225437 -0.00900145 0.03019991
v 0.07225437 -0.00978138 0.02151939
f 1 2 6
f 1 6 11
f 1 11 15
f 1 15 21
f 1 21 28
f 1 28 37
f 1 37 41
f 1 41 43
f 1 43 42
f 1 42 52
f 1 52 51
f 1 51 56
f 1 56 64
f 1 64 65
f 1 65 58
f 1 58 54
f 1 54 47
f 1 47 45
f 1 45 32
f 1 32 25
f 1 25 18
f 1 18 12
f 1 12 7
f 1 7 3
f 1 3 4
f 1 4 5
f 1 5 2
f 2 5 6
f 3 7 8
f 3 8 9
f 3 9 4
f 4 9 8
f 4 8 13
f 4 13 19
f 4 19 26
f 4 26 34
f 4 34 33
f 4 33 35
f 4 35 27
f 4 27 20
f 4 20 14
f 4 14 10
f 4 10 5
f 5 10 11
f 5 11 6
f 7 12 8
f 8 12 13
f 10 14 11
f 11 14 16
f 11 16 17
f 11 17 15
f 12 18 19
f 12 19 13
f 14 20 16
f 15 17 21
f 16 20 22
f 16 22 17
f 17 23 21
f 17 22 24
f 17 24 23
f 18 25 26
f 18 26 19
f 20 27 24
f 20 24 22
f 21 23 28
f 23 29 30
f 23 30 28
f 23 24 31
f 23 31 29
f 24 27 31
f 25 32 33
f 25 33 34
f 25 34 26
f 27 35 36
f 27 36 31
f 28 30 37
f 29 38 39
f 29 39 30
f 29 31 40
f 29 40 38
f 30 41 37
f 30 39 42
f 30 42 43
f 30 43 41
f 31 36 44
f 31 44 40
f 32 45 33
f 33 46 53
f 33 53 57
f 33 57 62
f 33 62 61
f 33 61 60
f 33 60 59
f 33 59 63
f 33 63 55
f 33 55 49
f 33 49 48
f 33 48 44
f 33 44 36
f 33 36 35
f 33 45 47
f 33 47 46
f 38 40 48
f 38 48 49
f 38 49 39
f 39 50 51
f 39 51 52
f 39 52 42
f 39 49 50
f 40 44 48
f 46 47 53
f 47 54 53
f 49 55 50
f 50 55 51
f 51 55 56
f 53 54 57
f 54 58 59
f 54 59 60
f 54 60 61
f 54 61 62
f 54 62 57
f 55 63 64
f 55 64 56
f 58 65 63
f 58 63 59
f 63 65 64

