# https://github.com/mikedh/trimesh
v 0.16422196 -0.16523290 0.02162470
v 0.17549251 -0.16523290 0.01985237
v 0.15798225 -0.16523290 0.02078592
v 0.18804465 -0.31086344 0.01825063
v 0.19482061 -0.31648892 0.01873874
v 0.19482061 -0.16523290 0.01487183
v 0.15471469 -0.16523290 0.01749242
v 0.14975655 -0.22798549 0.01635983
v 0.15090178 -0.24729860 0.01573904
v 0.15690517 -0.26569420 0.01584803
v 0.16890742 -0.28593987 0.01668681
v 0.18713118 -0.31190127 0.01584803
v 0.19482061 -0.31829387 0.01641670
v 0.19482061 -0.31684989 0.01828855
v 0.19482061 -0.16523290 -0.02459810
v 0.15061094 -0.16523290 0.00960222
v 0.14852951 -0.22810581 0.01313741
v 0.14967929 -0.24767464 0.01287677
v 0.15575995 -0.26631090 0.01321797
v 0.16787580 -0.28678221 0.01419891
v 0.18700849 -0.31239766 0.01124661
v 0.19482061 -0.31842923 0.01544049
v 0.18716754 -0.16523290 -0.02248931
v 0.19482061 -0.17135473 -0.02535158
v 0.15061094 -0.16523290 0.00850281
v 0.14839771 -0.22837657 0.00628976
v 0.14950205 -0.24799050 0.00709537
v 0.15557817 -0.26667190 0.00810474
v 0.16771674 -0.28721839 0.00944584
v 0.16861202 -0.28705293 0.00382082
v 0.18780833 -0.31212690 0.00574005
v 0.19482061 -0.31796294 0.00632293
v 0.19482061 -0.31868494 0.01067794
v 0.19482061 -0.31888050 0.01186266
v 0.18071878 -0.16523290 -0.02070750
v 0.18266840 -0.16861719 -0.02166001
v 0.19482061 -0.19697018 -0.02678745
v 0.15511915 -0.16523290 -0.00613552
v 0.14952478 -0.22870748 -0.00138718
v 0.15057003 -0.24812588 0.00047993
v 0.15656434 -0.26664180 0.00213852
v 0.17073435 -0.28607526 -0.00129715
v 0.18966252 -0.31089351 0.00061735
v 0.15891843 -0.26607025 -0.00305052
v 0.19482061 -0.31516528 0.00104859
v 0.16968909 -0.16523290 -0.01662735
v 0.17973715 -0.18429030 -0.02147045
v 0.16091804 -0.21437305 -0.01275096
v 0.19482061 -0.24561398 -0.02166949
v 0.16343574 -0.23479922 -0.01251876
v 0.15530549 -0.16523290 -0.00668522
v 0.15208338 -0.22906846 -0.00708803
v 0.15307865 -0.24800555 -0.00490342
v 0.17576064 -0.28270599 -0.00542943
v 0.19482061 -0.31305948 -0.00007452
v 0.19117132 -0.29511511 -0.00684161
v 0.15976372 -0.24805067 -0.00870398
v 0.16843933 -0.26193386 -0.00953328
v 0.16825753 -0.16523290 -0.01604446
v 0.15489647 -0.20939435 -0.00954749
v 0.19482061 -0.25200656 -0.02027626
v 0.19093046 -0.25125450 -0.01936640
v 0.16048177 -0.18919379 -0.01220125
v 0.19482061 -0.29803315 -0.00671840
f 1 2 6
f 1 6 15
f 1 15 23
f 1 23 35
f 1 35 46
f 1 46 59
f 1 59 51
f 1 51 38
f 1 38 25
f 1 25 16
f 1 16 7
f 1 7 3
f 1 3 4
f 1 4 5
f 1 5 2
f 2 5 6
f 3 7 8
f 3 8 9
f 3 9 10
f 3 10 11
f 3 11 4
f 4 11 12
f 4 12 13
f 4 13 14
f 4 14 5
f 5 14 13
f 5 13 22
f 5 22 34
f 5 34 33
f 5 33 32
f 5 32 45
f 5 45 55
f 5 55 64
f 5 64 61
f 5 61 49
f 5 49 37
f 5 37 24
f 5 24 15
f 5 15 6
f 7 16 8
f 8 16 17
f 8 17 18
f 8 18 9
f 9 18 19
f 9 19 10
f 10 19 20
f 10 20 11
f 11 20 12
f 12 21 22
f 12 22 13
f 12 20 21
f 15 24 23
f 16 25 26
f 16 26 17
f 17 26 27
f 17 27 18
f 18 27 28
f 18 28 19
f 19 28 29
f 19 29 20
f 20 29 21
f 21 29 30
f 21 30 31
f 21 31 32
f 21 32 33
f 21 33 34
f 21 34 22
f 23 24 36
f 23 36 35
f 24 37 36
f 25 38 39
f 25 39 26
f 26 39 27
f 27 39 40
f 27 40 28
f 28 40 41
f 28 41 29
f 29 41 30
f 30 42 43
f 30 43 31
f 30 41 44
f 30 44 42
f 31 43 32
f 32 43 45
f 35 36 46
f 36 37 47
f 36 47 46
f 37 48 47
f 37 49 50
f 37 50 48
f 38 51 39
f 39 51 52
f 39 52 40
f 40 52 53
f 40 53 41
f 41 53 44
f 42 54 43
f 42 44 54
f 43 55 45
f 43 54 56
f 43 56 55
f 44 53 57
f 44 57 58
f 44 58 54
f 46 47 59
f 47 48 59
f 48 60 59
f 48 50 52
f 48 52 60
f 49 61 62
f 49 62 50
f 50 62 58
f 50 58 57
f 50 57 52
f 51 59 63
f 51 63 60
f 51 60 52
f 52 57 53
f 54 58 56
f 55 56 64
f 56 58 62
f 56 62 61
f 56 61 64
f 59 60 63

