# https://github.com/mikedh/trimesh
v 0.27544487 -0.09103432 0.00701485
v 0.27518854 -0.09127992 0.01279198
v 0.29501837 -0.09292439 0.00801004
v 0.27581769 -0.09204876 0.00039273
v 0.25661701 -0.09524161 -0.00145995
v 0.25603446 -0.09421648 0.00621368
v 0.25582474 -0.09439801 0.01306112
v 0.27507204 -0.09255065 0.01565238
v 0.29469216 -0.09316999 0.01312371
v 0.25596455 -0.09562603 0.01629081
v 0.31766772 -0.10032452 0.00934948
v 0.29518148 -0.09389612 0.00204513
v 0.27623713 -0.09453683 -0.00499008
v 0.25750247 -0.09766559 -0.00716198
v 0.19484392 -0.11381133 -0.00263666
v 0.19484392 -0.11163294 0.00710247
v 0.19484392 -0.11160091 0.00747802
v 0.19484392 -0.11356573 0.01662880
v 0.29434261 -0.09441937 0.01575879
v 0.19484392 -0.12076296 0.02253112
v 0.31729490 -0.10055944 0.01410013
v 0.31769103 -0.10123219 0.00371631
v 0.34642214 -0.11369386 0.01113958
v 0.29513487 -0.09632012 -0.00314991
v 0.27772844 -0.10105065 -0.00877682
v 0.26556489 -0.10751107 -0.01258235
v 0.24508262 -0.10947590 -0.01280142
v 0.23890764 -0.10467063 -0.00959677
v 0.19484392 -0.12346460 -0.01375906
v 0.31668904 -0.10175543 0.01659125
v 0.19484392 -0.12247150 0.02243723
v 0.43044847 -0.20011410 0.02480317
v 0.42550847 -0.19363232 0.02435877
v 0.38102531 -0.14282452 0.02065339
v 0.34516385 -0.11503934 0.01814350
v 0.34597942 -0.11391811 0.01574001
v 0.31720170 -0.10351735 -0.00139736
v 0.34632894 -0.11453746 0.00563785
v 0.34553668 -0.11661974 0.00051166
v 0.38251665 -0.14161786 0.01389358
v 0.31498802 -0.10916623 -0.00552836
v 0.29315424 -0.10651799 -0.00961554
v 0.28760839 -0.13078997 -0.01942353
v 0.25745586 -0.16320957 -0.03429511
v 0.21980014 -0.13433520 -0.02142644
v 0.19484392 -0.12427615 -0.01417841
v 0.19484392 -0.12989299 0.02165484
v 0.43221939 -0.20011410 0.02266882
v 0.42665026 -0.19278872 0.02215557
v 0.19484392 -0.20011410 0.01088922
v 0.38200402 -0.14181007 0.01833127
v 0.38233024 -0.14238670 0.00853580
v 0.38121176 -0.14425543 0.00343465
v 0.37375516 -0.15631133 -0.00548455
v 0.33046043 -0.12152113 -0.00693665
v 0.42716289 -0.19262855 0.01810594
v 0.31748131 -0.20011410 -0.03679875
v 0.30221862 -0.20011410 -0.03913965
v 0.25060514 -0.20011410 -0.03836352
v 0.22250316 -0.17757201 -0.03375683
v 0.20516661 -0.14044324 -0.02139514
v 0.19484392 -0.13727176 -0.01885395
v 0.43287185 -0.20011410 0.01868804
v 0.19484392 -0.20011410 -0.02645248
v 0.42685997 -0.19332264 0.01315501
v 0.42541528 -0.19500983 0.00823537
v 0.35450786 -0.18768445 -0.02230271
v 0.42611432 -0.20011410 0.00686463
v 0.41467315 -0.20011410 0.00092476
v 0.34341621 -0.20011410 -0.02983864
v 0.21861176 -0.20011410 -0.03406353
v 0.19484392 -0.17134652 -0.02535088
v 0.19484392 -0.16474727 -0.02453720
v 0.19484392 -0.15536095 -0.02329790
v 0.19484392 -0.14125480 -0.01986792
v 0.43212619 -0.20011410 0.01435675
v 0.19484392 -0.19696397 -0.02678421
v 0.19859551 -0.20011410 -0.02810488
v 0.43200967 -0.20011410 0.01374336
v 0.42956299 -0.20011410 0.00919301
v 0.42926008 -0.20011410 0.00869854
f 1 2 3
f 1 3 4
f 1 4 5
f 1 5 6
f 1 6 7
f 1 7 2
f 2 8 9
f 2 9 3
f 2 7 10
f 2 10 8
f 3 9 11
f 3 11 12
f 3 12 4
f 4 13 14
f 4 14 5
f 4 12 13
f 5 15 16
f 5 16 6
f 5 14 15
f 6 16 17
f 6 17 7
f 7 17 18
f 7 18 10
f 8 19 9
f 8 10 20
f 8 20 19
f 9 19 21
f 9 21 11
f 10 18 20
f 11 22 12
f 11 21 23
f 11 23 22
f 12 22 24
f 12 24 13
f 13 25 14
f 13 24 25
f 14 25 26
f 14 26 27
f 14 27 28
f 14 28 15
f 15 29 46
f 15 46 62
f 15 62 75
f 15 75 74
f 15 74 73
f 15 73 72
f 15 72 77
f 15 77 64
f 15 64 50
f 15 50 47
f 15 47 31
f 15 31 20
f 15 20 18
f 15 18 17
f 15 17 16
f 15 28 29
f 19 20 30
f 19 30 21
f 20 31 32
f 20 32 33
f 20 33 34
f 20 34 35
f 20 35 30
f 21 30 36
f 21 36 23
f 22 37 24
f 22 23 38
f 22 38 39
f 22 39 37
f 23 36 40
f 23 40 38
f 24 37 41
f 24 41 42
f 24 42 25
f 25 42 26
f 26 42 43
f 26 43 44
f 26 44 27
f 27 44 45
f 27 45 46
f 27 46 28
f 28 46 29
f 30 35 36
f 31 47 32
f 32 48 49
f 32 49 33
f 32 47 50
f 32 50 64
f 32 64 78
f 32 78 71
f 32 71 59
f 32 59 58
f 32 58 57
f 32 57 70
f 32 70 69
f 32 69 68
f 32 68 81
f 32 81 80
f 32 80 79
f 32 79 76
f 32 76 63
f 32 63 48
f 33 49 34
f 34 49 51
f 34 51 35
f 35 51 36
f 36 51 40
f 37 39 41
f 38 40 52
f 38 52 39
f 39 52 53
f 39 53 54
f 39 54 55
f 39 55 41
f 40 51 56
f 40 56 52
f 41 55 42
f 42 55 43
f 43 55 57
f 43 57 58
f 43 58 44
f 44 59 60
f 44 60 61
f 44 61 45
f 44 58 59
f 45 61 62
f 45 62 46
f 48 63 49
f 49 56 51
f 49 63 56
f 52 56 65
f 52 65 53
f 53 65 66
f 53 66 54
f 54 67 55
f 54 66 68
f 54 68 69
f 54 69 67
f 55 70 57
f 55 67 70
f 56 63 65
f 59 71 60
f 60 71 72
f 60 72 73
f 60 73 74
f 60 74 75
f 60 75 61
f 61 75 62
f 63 76 65
f 64 77 78
f 65 76 79
f 65 79 80
f 65 80 66
f 66 80 81
f 66 81 68
f 67 69 70
f 71 78 72
f 72 78 77

