# https://github.com/mikedh/trimesh
v -0.43065280 0.41744620 -0.04525697
v -0.44577700 0.39013642 -0.05181066
v -0.45826846 0.40866441 -0.04799613
v -0.44572097 0.39064404 -0.03836849
v -0.41104740 0.38054246 -0.03084088
v -0.37206060 0.37739527 -0.02681331
v -0.37038013 0.37734449 -0.03413802
v -0.37306887 0.37643078 -0.04329898
v -0.41171956 0.37993336 -0.04981209
v -0.44510481 0.35805508 -0.05157732
v -0.47658554 0.35176063 -0.05179037
v -0.48201904 0.38764912 -0.04889903
v -0.44572097 0.35856271 -0.03299163
v -0.47703364 0.35160837 -0.03834821
v -0.33581856 0.27038980 -0.00784211
v -0.35111082 0.34673524 -0.01903207
v -0.22765264 0.25358769 0.00569136
v -0.33234560 0.34556773 -0.02109151
v -0.33256966 0.34495860 -0.03347859
v -0.35239917 0.34536469 -0.04202070
v 0.07225436 -0.01326609 0.01396970
v 0.07225436 -0.02666716 0.01110881
v 0.07225436 -0.07981455 0.00697978
v 0.07225436 -0.08544910 0.00697978
v -0.45922071 0.32069454 -0.04978165
v -0.50000000 0.33104992 -0.04520625
v -0.49736726 0.35993326 -0.04796569
v -0.45966884 0.31993312 -0.03081045
v -0.30579427 0.19475499 0.00300293
v -0.25543633 0.25749633 0.00297249
v -0.41368014 0.26876542 -0.01899149
v -0.22636428 0.25389224 0.00185654
v -0.08363678 0.11013538 0.03676558
v -0.07142539 0.11561763 0.03664384
v -0.22558007 0.25373998 -0.00701021
v -0.22602819 0.25302932 -0.01644509
v 0.07225436 -0.00996658 0.01971179
v 0.07225436 -0.05697183 0.00838994
v 0.07225436 -0.09286030 0.00788269
v -0.44745746 0.28374010 -0.04324825
v -0.44773754 0.28089744 -0.03408729
v -0.44812965 0.28257257 -0.02676258
v -0.29593554 0.16846047 0.00574209
v -0.12469614 0.05896768 0.03679601
v -0.11797428 0.09566832 0.03434092
v -0.07120134 0.11683591 0.03167278
v 0.02044003 0.03632800 0.04432363
v -0.00185415 0.00247000 0.05181066
v 0.01607081 0.02480511 0.05144544
v 0.02262463 0.03297773 0.05037006
v 0.01203769 0.04414529 0.02908579
v 0.07225436 -0.00895135 0.03020175
v 0.07225436 -0.00976354 0.02151760
v 0.07225436 -0.09707351 0.00872472
v -0.40791053 0.25110036 -0.03343801
v -0.40847069 0.25074506 -0.02104079
v -0.29599154 0.16714066 0.00189712
v -0.12738489 0.04587118 0.03667428
v -0.01972309 -0.01986510 0.05146573
v 0.07225436 -0.00935745 0.04441493
v 0.06172344 -0.04854541 0.05149616
v 0.07225436 -0.03539816 0.05125268
v 0.07225436 -0.02362145 0.05115123
v 0.07225436 -0.02220014 0.05104978
v 0.07225436 -0.01077877 0.05010629
v 0.07225436 -0.09864713 0.01199142
v -0.29515132 0.16698839 -0.01640451
v -0.29571146 0.16643001 -0.00696963
v 0.07225436 -0.10011922 0.01511609
v -0.02672502 -0.02910371 0.04539900
v -0.12772098 0.04480519 0.03196698
v -0.02627690 -0.02803771 0.05040050
v 0.04553497 -0.06859624 0.05115123
v 0.07225436 -0.05697183 0.04953817
v -0.02622089 -0.02991590 0.03328584
v 0.07225436 -0.10108368 0.02816260
v 0.04279020 -0.08011913 0.03288003
v 0.03982139 -0.07758105 0.04505407
v 0.03954130 -0.07600744 0.05007586
v 0.07225436 -0.08819023 0.04634249
v 0.07225436 -0.07844400 0.04734685
v 0.07225436 -0.10062681 0.03945401
v 0.07225436 -0.09996693 0.04192940
v 0.07225436 -0.09930702 0.04424247
f 1 2 3
f 1 3 4
f 1 4 5
f 1 5 6
f 1 6 7
f 1 7 8
f 1 8 9
f 1 9 2
f 2 9 10
f 2 10 11
f 2 11 12
f 2 12 3
f 3 12 4
f 4 13 5
f 4 12 14
f 4 14 13
f 5 15 16
f 5 16 6
f 5 13 15
f 6 16 17
f 6 17 18
f 6 18 7
f 7 18 19
f 7 19 8
f 8 20 9
f 8 19 21
f 8 21 22
f 8 22 20
f 9 20 23
f 9 23 24
f 9 24 10
f 10 25 11
f 10 24 25
f 11 25 26
f 11 26 27
f 11 27 12
f 12 27 14
f 13 14 28
f 13 28 15
f 14 27 26
f 14 26 28
f 15 29 30
f 15 30 16
f 15 28 31
f 15 31 29
f 16 30 17
f 17 32 18
f 17 30 33
f 17 33 34
f 17 34 32
f 18 32 35
f 18 35 19
f 19 35 36
f 19 36 37
f 19 37 21
f 20 22 38
f 20 38 23
f 21 37 53
f 21 53 52
f 21 52 60
f 21 60 65
f 21 65 64
f 21 64 63
f 21 63 62
f 21 62 74
f 21 74 81
f 21 81 80
f 21 80 84
f 21 84 83
f 21 83 82
f 21 82 76
f 21 76 69
f 21 69 66
f 21 66 54
f 21 54 39
f 21 39 24
f 21 24 23
f 21 23 38
f 21 38 22
f 24 39 25
f 25 40 26
f 25 39 40
f 26 40 41
f 26 41 42
f 26 42 28
f 28 42 31
f 29 31 43
f 29 43 44
f 29 44 45
f 29 45 30
f 30 45 33
f 31 42 43
f 32 34 46
f 32 46 47
f 32 47 35
f 33 45 44
f 33 44 48
f 33 48 49
f 33 49 34
f 34 49 50
f 34 50 46
f 35 47 51
f 35 51 52
f 35 52 53
f 35 53 37
f 35 37 36
f 39 54 40
f 40 55 41
f 40 54 55
f 41 56 42
f 41 55 56
f 42 56 43
f 43 57 58
f 43 58 44
f 43 56 57
f 44 58 59
f 44 59 48
f 46 50 47
f 47 50 60
f 47 60 52
f 47 52 51
f 48 59 61
f 48 61 49
f 49 61 62
f 49 62 63
f 49 63 64
f 49 64 50
f 50 64 65
f 50 65 60
f 54 66 55
f 55 67 68
f 55 68 56
f 55 66 69
f 55 69 67
f 56 68 57
f 57 68 70
f 57 70 71
f 57 71 58
f 58 71 70
f 58 70 72
f 58 72 59
f 59 72 73
f 59 73 61
f 61 73 74
f 61 74 62
f 67 69 68
f 68 75 70
f 68 69 76
f 68 76 77
f 68 77 75
f 70 75 78
f 70 78 79
f 70 79 72
f 72 79 73
f 73 79 80
f 73 80 81
f 73 81 74
f 75 77 78
f 76 82 78
f 76 78 77
f 78 82 83
f 78 83 79
f 79 83 84
f 79 84 80

