# https://github.com/mikedh/trimesh
v 0.10446751 0.06896102 -0.33593732
v 0.10446751 0.12502284 -0.34453785
v 0.15321925 0.06896102 -0.31398964
v 0.10446751 0.06896102 0.06768087
v 0.10446751 0.12580943 -0.34461901
v 0.13133228 0.12502284 -0.33070394
v 0.13633391 0.12502284 -0.32778299
v 0.14593633 0.13474786 -0.32259020
v 0.15321925 0.13399702 -0.31804651
v 0.15321925 0.06896102 0.06768087
v 0.10446751 0.39313996 0.06768087
v 0.10446751 0.13503389 -0.34551153
v 0.10500203 0.13503389 -0.34522754
v 0.13177134 0.13503389 -0.33098793
v 0.13676822 0.13503389 -0.32814813
v 0.15020299 0.13789418 -0.32011551
v 0.15321925 0.13546294 -0.31812763
v 0.15321925 0.40093428 0.06768087
v 0.11273359 0.39614326 0.06768087
v 0.10446751 0.42732048 -0.05516122
v 0.10446751 0.13585623 -0.34555209
v 0.10446751 0.14590302 -0.34599835
v 0.10446751 0.16503125 -0.34660688
v 0.10446751 0.17500654 -0.34676915
v 0.15020299 0.14114778 -0.32011551
v 0.11299130 0.17500654 -0.34173864
v 0.15321925 0.14390081 -0.31816822
v 0.14499612 0.40111303 0.06768087
v 0.15321925 0.41237545 -0.07503989
v 0.10446751 0.43393493 -0.09443173
v 0.10446751 0.43304110 -0.08485751
v 0.10446751 0.43293384 -0.08372159
v 0.10446751 0.43171820 -0.07503989
v 0.10446751 0.42978752 -0.06501941
v 0.11500056 0.39692986 0.06768087
v 0.12279415 0.39918232 0.06768087
v 0.12650721 0.39979014 0.06768087
v 0.10446751 0.23500127 -0.34470016
v 0.11201771 0.22502598 -0.34117067
v 0.11726275 0.21501495 -0.33833086
v 0.15321925 0.16503125 -0.31731626
v 0.14449501 0.40111303 0.06768087
v 0.15321925 0.41248271 -0.08501979
v 0.10446751 0.43422097 -0.10502017
v 0.10446751 0.43397069 -0.09504026
v 0.12898417 0.40011191 0.06768087
v 0.13499761 0.40068400 0.06768087
v 0.10446751 0.23564485 -0.34465957
v 0.10500203 0.23500127 -0.34441617
v 0.11139250 0.23500127 -0.34088668
v 0.11701936 0.22502598 -0.33804688
v 0.15321925 0.16774854 -0.31707287
v 0.12444546 0.22502598 -0.33301634
v 0.12944233 0.22502598 -0.32960859
v 0.15321925 0.41205364 -0.09451286
v 0.10446751 0.43354166 -0.11500007
v 0.10446751 0.24501231 -0.34396991
v 0.10500203 0.24501231 -0.34368593
v 0.11066706 0.24501231 -0.34048098
v 0.15321925 0.17500654 -0.31618035
v 0.14033332 0.23113987 -0.32031834
v 0.11020890 0.25091168 -0.34011588
v 0.15321925 0.41123134 -0.10489846
v 0.10446751 0.43261206 -0.12412803
v 0.10446751 0.25452280 -0.34255001
v 0.10552225 0.25452280 -0.34202260
v 0.15321925 0.17743780 -0.31585580
v 0.10920189 0.25752610 -0.33946678
v 0.13919269 0.23782581 -0.31934470
v 0.14963028 0.23718224 -0.30960822
v 0.15321925 0.23507278 -0.30636269
v 0.15321925 0.41115981 -0.10558812
v 0.10446751 0.43200424 -0.12859058
v 0.15321925 0.41040897 -0.11276879
v 0.10446751 0.26263890 -0.34064329
v 0.10730241 0.26499864 -0.33820915
v 0.11059071 0.28108782 -0.33046055
v 0.14334959 0.24501231 -0.31301600
v 0.14835124 0.24501231 -0.30839115
v 0.15321925 0.24501231 -0.30372572
v 0.10446751 0.43136066 -0.13309371
v 0.15321925 0.41008723 -0.11500007
v 0.10446751 0.26499864 -0.33987248
v 0.10446751 0.27397281 -0.33670813
v 0.10446751 0.26739413 -0.33906108
v 0.10446751 0.27447337 -0.33650526
v 0.10486363 0.28462744 -0.33212385
v 0.10810420 0.28773800 -0.32879722
v 0.11474284 0.28448442 -0.32469976
v 0.15321925 0.27965766 -0.29005408
v 0.15293290 0.27497393 -0.29252878
v 0.15321925 0.27472365 -0.29236650
v 0.15321925 0.26739413 -0.29565257
v 0.15321925 0.26585674 -0.29630166
v 0.15321925 0.25834844 -0.29901975
v 0.10446751 0.43103889 -0.13500045
v 0.15321925 0.40955091 -0.11861069
v 0.10446751 0.28462744 -0.33232668
v 0.10446751 0.28537825 -0.33196157
v 0.11222769 0.29217148 -0.32210338
v 0.11889497 0.28788102 -0.31873617
v 0.10446751 0.28952569 -0.32981142
v 0.10446751 0.33897308 -0.28916156
v 0.10745990 0.33765018 -0.28806621
v 0.14912917 0.28852457 -0.28924271
v 0.15321925 0.28637937 -0.28652459
v 0.10446751 0.42917970 -0.14498036
v 0.15321925 0.40840679 -0.12368178
v 0.11476193 0.33478987 -0.28482074
v 0.12188260 0.33192959 -0.28157520
v 0.13233452 0.33250165 -0.27204156
v 0.13900179 0.32874751 -0.26903948
v 0.15053231 0.30068085 -0.28052044
v 0.15236019 0.29499599 -0.28234601
v 0.10446751 0.34394282 -0.28465843
v 0.11180771 0.34151158 -0.28141296
v 0.11847498 0.33857977 -0.27873540
v 0.15321925 0.29499599 -0.28149408
v 0.10446751 0.42867914 -0.14704935
v 0.15321925 0.40619004 -0.13293144
v 0.12550974 0.33554071 -0.27540877
v 0.12913689 0.33915186 -0.26916119
v 0.14241894 0.33250165 -0.26234564
v 0.14908144 0.32892627 -0.25901902
v 0.15321925 0.32156101 -0.26116917
v 0.15321925 0.31687728 -0.26506376
v 0.15321925 0.30314785 -0.27589560
v 0.15321925 0.29842836 -0.27930337
v 0.10446751 0.34430039 -0.28433388
v 0.10446751 0.34944892 -0.27942508
v 0.10771763 0.34816179 -0.27812690
v 0.11511032 0.34512269 -0.27512479
v 0.12247439 0.34204790 -0.27208215
v 0.10446751 0.42703447 -0.15382433
v 0.15321925 0.40568951 -0.13500045
v 0.11837476 0.35863763 -0.25861332
v 0.12201623 0.36178395 -0.25191951
v 0.12845442 0.36861289 -0.23853181
v 0.15321925 0.34251270 -0.24254811
v 0.15321925 0.32670954 -0.25670660
v 0.10446751 0.35434717 -0.27435398
v 0.11170749 0.36131915 -0.26133144
v 0.10446751 0.42685568 -0.15455458
v 0.15321925 0.40322250 -0.14485864
v 0.11151181 0.37115142 -0.25127038
v 0.11817908 0.36843413 -0.24830887
v 0.12178715 0.37147319 -0.24165560
v 0.13175704 0.37154472 -0.23183797
v 0.15321925 0.34912711 -0.23536745
v 0.10446751 0.35920969 -0.26924235
v 0.10717832 0.36800510 -0.25796422
v 0.10446751 0.42646241 -0.15593390
v 0.15321925 0.40086275 -0.15220158
v 0.10955029 0.41974071 -0.16919988
v 0.11143545 0.42077756 -0.16254660
v 0.10446751 0.37254581 -0.25496215
v 0.10446751 0.37411898 -0.25317711
v 0.10500203 0.37830216 -0.24798432
v 0.11092001 0.38059038 -0.24076310
v 0.11455194 0.37465528 -0.24453598
v 0.11758728 0.37812340 -0.23772043
v 0.12476522 0.37483406 -0.23475891
v 0.12774330 0.37823063 -0.22757825
v 0.15321925 0.36632466 -0.21479911
v 0.15321925 0.35777953 -0.22550926
v 0.10446751 0.36893469 -0.25893790
v 0.10446751 0.42406690 -0.16408822
v 0.15321925 0.40029070 -0.15370263
v 0.10446751 0.41959769 -0.17800328
v 0.10784648 0.41873962 -0.17496064
v 0.10446751 0.42063457 -0.17496064
v 0.10446751 0.42109936 -0.17358130
v 0.10446751 0.37873119 -0.24786262
v 0.10500203 0.38241383 -0.24299437
v 0.10446751 0.38806292 -0.23613825
v 0.10446751 0.38967183 -0.23402870
v 0.10963620 0.38974333 -0.22964726
v 0.11455194 0.38266411 -0.23463722
v 0.12107603 0.38076916 -0.23102659
v 0.10446751 0.38302165 -0.24262926
v 0.11979221 0.38985062 -0.21974850
v 0.13077866 0.38059038 -0.22088441
v 0.15321925 0.36990005 -0.20980915
v 0.15321925 0.39893204 -0.15715097
v 0.11986380 0.40990844 -0.17970717
v 0.10446751 0.41691619 -0.18473770
v 0.11307722 0.41183913 -0.18498111
v 0.10446751 0.38259262 -0.24315664
v 0.10446751 0.39131650 -0.23179740
v 0.10446751 0.39546394 -0.22542812
v 0.10446751 0.39564270 -0.22514415
v 0.11312494 0.39185280 -0.22295342
v 0.12555270 0.38791990 -0.21585390
v 0.10745990 0.39850301 -0.21747665
v 0.11532986 0.39517790 -0.21528594
v 0.11753479 0.39853877 -0.20725334
v 0.12258416 0.39185280 -0.21309522
v 0.13209589 0.39153105 -0.20242566
v 0.13525532 0.38713333 -0.20546831
v 0.14017583 0.38012558 -0.21021485
v 0.15321925 0.37336814 -0.20453523
v 0.15321925 0.39521366 -0.16542698
v 0.12973346 0.39982590 -0.18956538
v 0.10446751 0.41244698 -0.19471760
v 0.11091047 0.41051626 -0.19114755
v 0.10490658 0.41223243 -0.19467703
v 0.10446751 0.39936107 -0.21897769
v 0.10446751 0.40204263 -0.21451513
v 0.11087229 0.40046948 -0.21082339
v 0.10490658 0.40715539 -0.20498148
v 0.11452330 0.40186387 -0.20433238
v 0.12050810 0.40029070 -0.20060006
v 0.12487976 0.39503491 -0.20485978
v 0.12768126 0.39850301 -0.19496101
v 0.13525532 0.39324722 -0.19487987
v 0.13876316 0.38899252 -0.19812536
v 0.15321925 0.37901723 -0.19536670
v 0.15321925 0.39156678 -0.17305391
v 0.15321925 0.39128077 -0.17362186
v 0.12268439 0.40161359 -0.19496101
v 0.10446751 0.40997994 -0.19995096
v 0.10818056 0.40894309 -0.19784139
v 0.10446751 0.40740567 -0.20498148
v 0.15321925 0.39013666 -0.17581257
v 0.15321925 0.38913554 -0.17767873
v 0.15321925 0.38498810 -0.18510282
f 1 2 3
f 1 3 10
f 1 10 4
f 1 4 11
f 1 11 20
f 1 20 34
f 1 34 33
f 1 33 32
f 1 32 31
f 1 31 30
f 1 30 45
f 1 45 44
f 1 44 56
f 1 56 64
f 1 64 73
f 1 73 81
f 1 81 96
f 1 96 107
f 1 107 119
f 1 119 134
f 1 134 143
f 1 143 152
f 1 152 167
f 1 167 172
f 1 172 171
f 1 171 169
f 1 169 186
f 1 186 204
f 1 204 221
f 1 221 223
f 1 223 208
f 1 208 207
f 1 207 191
f 1 191 190
f 1 190 189
f 1 189 176
f 1 176 175
f 1 175 180
f 1 180 188
f 1 188 173
f 1 173 157
f 1 157 156
f 1 156 166
f 1 166 150
f 1 150 141
f 1 141 130
f 1 130 129
f 1 129 115
f 1 115 103
f 1 103 102
f 1 102 99
f 1 99 98
f 1 98 86
f 1 86 84
f 1 84 85
f 1 85 83
f 1 83 75
f 1 75 65
f 1 65 57
f 1 57 48
f 1 48 38
f 1 38 24
f 1 24 23
f 1 23 22
f 1 22 21
f 1 21 12
f 1 12 5
f 1 5 2
f 2 5 3
f 3 5 6
f 3 6 7
f 3 7 8
f 3 8 9
f 3 9 17
f 3 17 27
f 3 27 41
f 3 41 52
f 3 52 60
f 3 60 67
f 3 67 71
f 3 71 80
f 3 80 95
f 3 95 94
f 3 94 93
f 3 93 92
f 3 92 90
f 3 90 106
f 3 106 118
f 3 118 128
f 3 128 127
f 3 127 126
f 3 126 125
f 3 125 140
f 3 140 139
f 3 139 149
f 3 149 165
f 3 165 164
f 3 164 183
f 3 183 201
f 3 201 217
f 3 217 226
f 3 226 225
f 3 225 224
f 3 224 219
f 3 219 218
f 3 218 202
f 3 202 184
f 3 184 168
f 3 168 153
f 3 153 144
f 3 144 135
f 3 135 120
f 3 120 108
f 3 108 97
f 3 97 82
f 3 82 74
f 3 74 72
f 3 72 63
f 3 63 55
f 3 55 43
f 3 43 29
f 3 29 18
f 3 18 10
f 4 10 18
f 4 18 28
f 4 28 42
f 4 42 47
f 4 47 46
f 4 46 37
f 4 37 36
f 4 36 35
f 4 35 19
f 4 19 11
f 5 12 6
f 6 12 13
f 6 13 14
f 6 14 15
f 6 15 7
f 7 15 8
f 8 15 16
f 8 16 17
f 8 17 9
f 11 19 20
f 12 21 13
f 13 21 14
f 14 21 22
f 14 22 23
f 14 23 24
f 14 24 15
f 15 25 16
f 15 24 26
f 15 26 25
f 16 25 27
f 16 27 17
f 18 29 30
f 18 30 31
f 18 31 32
f 18 32 33
f 18 33 34
f 18 34 28
f 19 35 20
f 20 35 36
f 20 36 37
f 20 37 34
f 24 38 39
f 24 39 40
f 24 40 26
f 25 26 40
f 25 40 27
f 27 40 41
f 28 34 42
f 29 43 44
f 29 44 45
f 29 45 30
f 34 37 46
f 34 46 47
f 34 47 42
f 38 48 49
f 38 49 39
f 39 49 50
f 39 50 51
f 39 51 40
f 40 51 41
f 41 51 53
f 41 53 54
f 41 54 52
f 43 55 44
f 44 55 56
f 48 57 58
f 48 58 49
f 49 58 50
f 50 58 59
f 50 59 51
f 51 59 53
f 52 54 61
f 52 61 60
f 53 59 54
f 54 59 62
f 54 62 61
f 55 63 56
f 56 63 64
f 57 65 66
f 57 66 62
f 57 62 58
f 58 62 59
f 60 61 67
f 61 62 68
f 61 68 69
f 61 69 70
f 61 70 71
f 61 71 67
f 62 66 68
f 63 72 64
f 64 72 74
f 64 74 73
f 65 75 66
f 66 75 68
f 68 75 76
f 68 76 77
f 68 77 69
f 69 78 79
f 69 79 70
f 69 77 78
f 70 79 80
f 70 80 71
f 73 74 81
f 74 82 81
f 75 83 76
f 76 84 77
f 76 83 85
f 76 85 84
f 77 84 86
f 77 86 87
f 77 87 88
f 77 88 89
f 77 89 90
f 77 90 91
f 77 91 92
f 77 92 93
f 77 93 94
f 77 94 79
f 77 79 78
f 79 94 95
f 79 95 80
f 81 82 97
f 81 97 96
f 86 98 87
f 87 98 99
f 87 99 88
f 88 100 101
f 88 101 89
f 88 99 102
f 88 102 103
f 88 103 104
f 88 104 100
f 89 101 105
f 89 105 106
f 89 106 90
f 90 92 91
f 96 97 107
f 97 108 107
f 100 104 109
f 100 109 110
f 100 110 111
f 100 111 112
f 100 112 113
f 100 113 101
f 101 113 114
f 101 114 105
f 103 115 116
f 103 116 104
f 104 116 117
f 104 117 109
f 105 114 106
f 106 114 118
f 107 108 120
f 107 120 135
f 107 135 119
f 109 117 110
f 110 117 121
f 110 121 111
f 111 121 122
f 111 122 112
f 112 122 123
f 112 123 124
f 112 124 125
f 112 125 126
f 112 126 113
f 113 126 127
f 113 127 128
f 113 128 114
f 114 128 118
f 115 129 116
f 116 129 130
f 116 130 131
f 116 131 132
f 116 132 133
f 116 133 117
f 117 133 122
f 117 122 121
f 119 135 134
f 122 136 137
f 122 137 138
f 122 138 139
f 122 139 123
f 122 133 136
f 123 139 124
f 124 140 125
f 124 139 140
f 130 141 142
f 130 142 131
f 131 142 136
f 131 136 132
f 132 136 133
f 134 135 143
f 135 144 143
f 136 142 145
f 136 145 146
f 136 146 137
f 137 146 138
f 138 147 148
f 138 148 149
f 138 149 139
f 138 146 147
f 141 150 151
f 141 151 145
f 141 145 142
f 143 144 152
f 144 153 154
f 144 154 155
f 144 155 152
f 145 151 156
f 145 156 157
f 145 157 158
f 145 158 159
f 145 159 160
f 145 160 147
f 145 147 146
f 147 161 162
f 147 162 148
f 147 160 161
f 148 163 164
f 148 164 165
f 148 165 149
f 148 162 163
f 150 166 151
f 151 166 156
f 152 155 167
f 153 168 169
f 153 169 170
f 153 170 154
f 154 167 155
f 154 170 171
f 154 171 172
f 154 172 167
f 157 173 158
f 158 173 174
f 158 174 159
f 159 175 176
f 159 176 177
f 159 177 178
f 159 178 179
f 159 179 161
f 159 161 160
f 159 174 180
f 159 180 175
f 161 179 162
f 162 179 163
f 163 179 181
f 163 181 182
f 163 182 164
f 164 182 183
f 168 184 185
f 168 185 169
f 169 171 170
f 169 185 187
f 169 187 186
f 173 188 174
f 174 188 180
f 176 189 177
f 177 179 178
f 177 189 190
f 177 190 191
f 177 191 192
f 177 192 181
f 177 181 179
f 181 193 182
f 181 192 191
f 181 191 194
f 181 194 195
f 181 195 196
f 181 196 197
f 181 197 198
f 181 198 193
f 182 193 199
f 182 199 200
f 182 200 183
f 183 200 201
f 184 202 203
f 184 203 185
f 185 203 187
f 186 187 205
f 186 205 206
f 186 206 204
f 187 203 205
f 191 207 194
f 193 198 199
f 194 207 208
f 194 208 195
f 195 208 209
f 195 209 196
f 196 209 210
f 196 210 211
f 196 211 212
f 196 212 213
f 196 213 197
f 197 213 198
f 198 213 212
f 198 212 214
f 198 214 215
f 198 215 216
f 198 216 199
f 199 216 201
f 199 201 200
f 201 216 217
f 202 218 203
f 203 218 219
f 203 219 215
f 203 215 214
f 203 214 212
f 203 212 220
f 203 220 205
f 204 206 221
f 205 220 212
f 205 212 222
f 205 222 206
f 206 222 221
f 208 223 209
f 209 223 210
f 210 223 222
f 210 222 211
f 211 222 212
f 215 219 224
f 215 224 216
f 216 224 225
f 216 225 226
f 216 226 217
f 221 222 223

