# https://github.com/mikedh/trimesh
v 0.07188079 0.06896102 0.06768087
v 0.40468994 0.06896102 0.06768087
v 0.07188079 0.06896102 0.39137694
v 0.07188079 0.40738362 0.06768087
v 0.40459222 0.07233956 0.06768087
v 0.40397322 0.06896102 0.07104576
v 0.08820200 0.06896102 0.38982147
v 0.07500821 0.09501927 0.39169437
v 0.07188079 0.09501927 0.39198008
v 0.07188079 0.40353677 0.14812079
v 0.07500821 0.40450686 0.14500985
v 0.08500943 0.40671462 0.14500985
v 0.09501064 0.40791881 0.14500985
v 0.10501185 0.40892237 0.14500985
v 0.11768440 0.41016003 0.14154972
v 0.11742378 0.41022694 0.13501041
v 0.12501428 0.41059488 0.12501097
v 0.13501549 0.41069525 0.11501154
v 0.13501549 0.41032732 0.10694849
v 0.14169383 0.41026038 0.10688501
v 0.14501670 0.40825334 0.09501266
v 0.14501670 0.40607905 0.08501323
v 0.15501793 0.40296811 0.07501379
v 0.15501793 0.40089417 0.06774434
v 0.15501793 0.40086070 0.06768087
v 0.40312624 0.06896102 0.07501379
v 0.40446189 0.07501563 0.06768087
v 0.40244210 0.08501744 0.07501379
v 0.40289819 0.07501563 0.07501379
v 0.08852777 0.06896102 0.38978973
v 0.08520488 0.09521997 0.39067858
v 0.09054756 0.09869885 0.39017066
v 0.09054756 0.10117422 0.39017066
v 0.09533641 0.06896102 0.38912308
v 0.07188079 0.10562319 0.39175788
v 0.07188079 0.40296811 0.15500928
v 0.07500821 0.40370402 0.15500928
v 0.08500943 0.40587834 0.15500928
v 0.09501064 0.40738362 0.15500928
v 0.10501185 0.40825334 0.15500928
v 0.11462214 0.40969175 0.14494637
v 0.12501428 0.40969175 0.14716846
v 0.12501428 0.41019350 0.14218462
v 0.12501428 0.41056144 0.13501041
v 0.13579735 0.41046110 0.12555063
v 0.14185672 0.41029385 0.11501154
v 0.14687362 0.40945756 0.11501154
v 0.15501793 0.40785193 0.10501210
v 0.14501670 0.40955794 0.10412326
v 0.15501793 0.40688187 0.09501266
v 0.15501793 0.40517586 0.08501323
v 0.16534491 0.40129554 0.07456936
v 0.16225007 0.40042585 0.06885540
v 0.16325997 0.39982373 0.06768087
v 0.40100873 0.06896102 0.08415613
v 0.40071553 0.08501744 0.08298159
v 0.40394065 0.08501744 0.06768087
v 0.40348458 0.09234320 0.06768087
v 0.40038973 0.09501927 0.08161658
v 0.10501185 0.06896102 0.38807553
v 0.10898627 0.06896102 0.38759938
v 0.11501306 0.06896102 0.38677403
v 0.09432651 0.10472001 0.38867867
v 0.09501064 0.11502289 0.38658357
v 0.07188079 0.11843488 0.39039287
v 0.07188079 0.11502289 0.39093253
v 0.11898749 0.06896102 0.38604391
v 0.12501428 0.06896102 0.38486937
v 0.12501428 0.07501563 0.38420275
v 0.13566704 0.07518288 0.38131404
v 0.07188079 0.40270048 0.15789801
v 0.08500943 0.40437305 0.16500872
v 0.07188079 0.40179732 0.16472302
v 0.07188079 0.40132901 0.16808791
v 0.09501064 0.40581143 0.16500872
v 0.10501185 0.40644699 0.16500872
v 0.11501306 0.40852094 0.15500928
v 0.13139942 0.41012660 0.14135927
v 0.12501428 0.40808609 0.15500928
v 0.13485262 0.40935722 0.14481938
v 0.13325632 0.41032732 0.13501041
v 0.14081424 0.41012660 0.12259841
v 0.14449547 0.40935722 0.12555063
v 0.15501793 0.40738362 0.12501097
v 0.15501793 0.40788537 0.11501154
v 0.16501914 0.40574452 0.10501210
v 0.16501914 0.40504205 0.09501266
v 0.16501914 0.40357023 0.08501323
v 0.17254448 0.40055963 0.07758507
v 0.16889584 0.39975682 0.07091878
v 0.17225128 0.39815116 0.06768087
v 0.39977077 0.06896102 0.08913997
v 0.39817446 0.07501563 0.09501266
v 0.39947757 0.08501744 0.08799718
v 0.40328911 0.09501927 0.06768087
v 0.39911923 0.09501927 0.08663218
v 0.40270272 0.10234500 0.06768087
v 0.40009654 0.10094006 0.08047380
v 0.13944599 0.07859488 0.37982202
v 0.17502035 0.13502651 0.35610908
v 0.16527975 0.13569555 0.35912478
v 0.15967646 0.13947549 0.35985491
v 0.13501549 0.14502832 0.36563236
v 0.08992858 0.13997725 0.37994903
v 0.08595416 0.13599660 0.38223460
v 0.07188079 0.12164617 0.38972622
v 0.13752395 0.08501744 0.37921888
v 0.13527611 0.06896102 0.38213938
v 0.07188079 0.40049273 0.17294478
v 0.07536656 0.40079379 0.17475420
v 0.08500943 0.40249979 0.17500816
v 0.09501064 0.40357023 0.17500816
v 0.10501185 0.40363711 0.17500816
v 0.11501306 0.40634662 0.16500872
v 0.13827321 0.40982553 0.13501041
v 0.13501549 0.40714946 0.15500928
v 0.14501670 0.40755087 0.14500985
v 0.14501670 0.40868819 0.13501041
v 0.13964146 0.40995932 0.12926470
v 0.15501793 0.40661424 0.13501041
v 0.16501914 0.40517586 0.12501097
v 0.16501914 0.40574452 0.11501154
v 0.17502035 0.40333605 0.10501210
v 0.17502035 0.40280086 0.09501266
v 0.17554158 0.40129554 0.08469579
v 0.17922282 0.39979029 0.08117217
v 0.17554158 0.39918816 0.07456936
v 0.17515066 0.39748216 0.06768087
v 0.39830479 0.06896102 0.09501266
v 0.39553571 0.07501563 0.10501210
v 0.39762068 0.08501744 0.09501266
v 0.39410233 0.09501927 0.10501210
v 0.39494932 0.08501744 0.10501210
v 0.39582890 0.10502107 0.09501266
v 0.40244210 0.10488728 0.06768087
v 0.40159512 0.11227992 0.06768087
v 0.40038973 0.11502289 0.07164890
v 0.39967304 0.10759680 0.07866438
v 0.39468873 0.11502289 0.09501266
v 0.14114001 0.06896102 0.38039345
v 0.14586371 0.06896102 0.37864751
v 0.14439774 0.07518288 0.37839353
v 0.15501793 0.06896102 0.37518740
v 0.15501793 0.07501563 0.37433028
v 0.16143563 0.08327800 0.37055272
v 0.20502400 0.13502651 0.34541127
v 0.19003846 0.14004415 0.34998244
v 0.19844338 0.19831559 0.32953915
v 0.18850733 0.20848466 0.32957089
v 0.18182901 0.21146178 0.33045974
v 0.07188079 0.15017977 0.38080609
v 0.17023149 0.25013101 0.32004762
v 0.07188079 0.40012479 0.17475420
v 0.07891747 0.40019166 0.18062690
v 0.07188079 0.39948922 0.17776991
v 0.08500943 0.40069345 0.18167445
v 0.09501064 0.40112829 0.18259504
v 0.10501185 0.40102795 0.18262678
v 0.11501306 0.40333605 0.17500816
v 0.12501428 0.40243289 0.17500816
v 0.12501428 0.40541002 0.16500872
v 0.13019407 0.40002441 0.18011898
v 0.13501549 0.40400508 0.16500872
v 0.14566825 0.40186423 0.16580233
v 0.14501670 0.40534312 0.15500928
v 0.15501793 0.40524274 0.14500985
v 0.16501914 0.40430614 0.13501041
v 0.17502035 0.40260014 0.12501097
v 0.17502035 0.40316880 0.11501154
v 0.18313208 0.40099448 0.10501210
v 0.18248054 0.40076035 0.09501266
v 0.18121003 0.40032548 0.08783846
v 0.18472837 0.39875329 0.08469579
v 0.18502156 0.39681315 0.07501379
v 0.18235023 0.39564234 0.06768087
v 0.39560089 0.06896102 0.10501210
v 0.39253861 0.07501563 0.11501154
v 0.39266893 0.06896102 0.11501154
v 0.39384171 0.06896102 0.11104351
v 0.39201736 0.08501744 0.11501154
v 0.39113778 0.09438370 0.11558293
v 0.39309245 0.10502107 0.10501210
v 0.39084458 0.10502107 0.11294816
v 0.40126932 0.11502289 0.06768087
v 0.40003139 0.12030813 0.07025215
v 0.39159387 0.11535740 0.10571047
v 0.39309245 0.12502471 0.09501266
v 0.39094234 0.12502471 0.10279000
v 0.15814534 0.06896102 0.37394935
v 0.16296677 0.07501563 0.37118760
v 0.21352665 0.13502651 0.34172893
v 0.21215841 0.14275368 0.34103057
v 0.16795109 0.07501563 0.36915597
v 0.17502035 0.07501563 0.36614025
v 0.20466565 0.19500396 0.32817414
v 0.20502400 0.20500576 0.32490450
v 0.19505537 0.20510612 0.32845986
v 0.19818278 0.22822069 0.31934926
v 0.19153702 0.23136507 0.32049203
v 0.18511930 0.21487378 0.32833287
v 0.15749380 0.25869444 0.31953973
v 0.15081546 0.26030007 0.32011110
v 0.07188079 0.26816103 0.33052322
v 0.17690983 0.24748839 0.31909528
v 0.17414077 0.25407821 0.31719065
v 0.16501914 0.25662050 0.31865087
v 0.07188079 0.39935541 0.17827782
v 0.07188079 0.39761597 0.18459493
v 0.07188079 0.39654553 0.18792807
v 0.07188079 0.39316699 0.19719739
v 0.07188079 0.39042401 0.20405415
v 0.07188079 0.38898563 0.20748252
v 0.07188079 0.38791519 0.20999032
v 0.09501064 0.39892054 0.18761063
v 0.10501185 0.39902091 0.18761063
v 0.11501306 0.40082723 0.18215062
v 0.11501306 0.39882019 0.18716621
v 0.12501428 0.40039238 0.18097608
v 0.14944722 0.39985716 0.16967513
v 0.12501428 0.39828497 0.18599167
v 0.13563445 0.39223036 0.19586413
v 0.13934827 0.38988882 0.19976868
v 0.14501670 0.39139408 0.19332460
v 0.14501670 0.39483953 0.18500760
v 0.14566825 0.39868641 0.17488119
v 0.15501793 0.40079379 0.16256443
v 0.15501793 0.40300155 0.15500928
v 0.16501914 0.40276739 0.14500985
v 0.17964631 0.39989060 0.13916890
v 0.17580220 0.40136248 0.13551831
v 0.18094942 0.40025860 0.13250262
v 0.18186158 0.40055963 0.12501097
v 0.18270859 0.40086070 0.11501154
v 0.18814898 0.39935541 0.10501210
v 0.18746486 0.39918816 0.09501266
v 0.18772548 0.39925504 0.11501154
v 0.19502278 0.39534131 0.08501323
v 0.19502278 0.39333424 0.07501379
v 0.18502156 0.39493990 0.06768087
v 0.39048624 0.07501563 0.12145562
v 0.39022565 0.08501744 0.12066201
v 0.39055139 0.06896102 0.12158259
v 0.39003018 0.09060374 0.12015411
v 0.38937861 0.10502107 0.11796375
v 0.38976955 0.09729393 0.11926527
v 0.40025944 0.12198067 0.06768087
v 0.39775097 0.13465856 0.06768087
v 0.39569861 0.14502832 0.06768087
v 0.39403719 0.14502832 0.07501379
v 0.39364624 0.13502651 0.08501323
v 0.38885739 0.11535740 0.11482107
v 0.39035594 0.11224647 0.11132921
v 0.39117038 0.13492617 0.09507614
v 0.39032337 0.13151418 0.10091709
v 0.38400340 0.12502471 0.12501097
v 0.38576257 0.11502289 0.12501097
v 0.16381377 0.06896102 0.37163204
v 0.21851097 0.13502651 0.33918941
v 0.18551022 0.07414591 0.36160085
v 0.19007105 0.07023215 0.36001363
v 0.21026893 0.07100153 0.35010943
v 0.22574313 0.14546320 0.33306277
v 0.23079260 0.18172395 0.32042855
v 0.22900085 0.18838069 0.31950796
v 0.22017242 0.20022228 0.32004762
v 0.21502522 0.19500396 0.32388866
v 0.16580099 0.06896102 0.37080669
v 0.17502035 0.06896102 0.36683863
v 0.21450397 0.20413604 0.32125390
v 0.21085532 0.21106037 0.32036507
v 0.20479596 0.22494249 0.31785727
v 0.20131019 0.22153051 0.32049203
v 0.20544749 0.23544608 0.31312737
v 0.19492504 0.23484395 0.31792074
v 0.18762775 0.23805524 0.31925401
v 0.18098199 0.24083167 0.32026982
v 0.16501914 0.26498321 0.31490505
v 0.15449668 0.26418039 0.31769854
v 0.07188079 0.27167338 0.32899949
v 0.18531476 0.25538281 0.31274644
v 0.18459806 0.24447781 0.31773031
v 0.17466199 0.26505011 0.31198460
v 0.07188079 0.38567400 0.21500590
v 0.09501064 0.39564234 0.19500703
v 0.10501185 0.39574271 0.19500703
v 0.11501306 0.39530784 0.19500703
v 0.12501428 0.39427087 0.19500703
v 0.16045833 0.40012479 0.16040581
v 0.15501793 0.39631137 0.17500816
v 0.15501793 0.39912125 0.16754827
v 0.13270250 0.39042401 0.20084798
v 0.13563445 0.38791519 0.20453031
v 0.14501670 0.38560709 0.20500648
v 0.14501670 0.38925326 0.19834018
v 0.15179278 0.39052439 0.19135645
v 0.16426986 0.40079379 0.15431091
v 0.17052469 0.40012479 0.15053335
v 0.17264222 0.40069345 0.14500985
v 0.17762654 0.39925504 0.14500985
v 0.18502156 0.39654553 0.14500985
v 0.18456548 0.39865294 0.13551831
v 0.18684590 0.39895397 0.12501097
v 0.19502278 0.39651209 0.11501154
v 0.19502278 0.39671278 0.10501210
v 0.19502278 0.39647862 0.09501266
v 0.21007347 0.39002261 0.08983834
v 0.20521946 0.39139408 0.08590207
v 0.20166853 0.39065817 0.07501379
v 0.19463184 0.39152789 0.06768087
v 0.20020255 0.39005607 0.06974424
v 0.38514358 0.08501744 0.13501041
v 0.38559967 0.07501563 0.13501041
v 0.38576257 0.06896102 0.13501041
v 0.38452461 0.09501927 0.13501041
v 0.38706565 0.10502107 0.12501097
v 0.38361245 0.10502107 0.13501041
v 0.39403719 0.15232062 0.06768087
v 0.39152873 0.15553191 0.07555343
v 0.39058399 0.15255478 0.08231497
v 0.39146358 0.14529595 0.08539416
v 0.39045370 0.14215156 0.09180649
v 0.38954151 0.13820435 0.09847279
v 0.38296092 0.14502832 0.11501154
v 0.37983349 0.13924134 0.12955040
v 0.38175553 0.13552828 0.12574109
v 0.38116914 0.12502471 0.13342319
v 0.38045245 0.13255116 0.13142331
v 0.37993121 0.11960566 0.13983554
v 0.38191843 0.11579226 0.13589925
v 0.22502643 0.13502651 0.33528486
v 0.23098806 0.14241916 0.33071369
v 0.22812127 0.08501744 0.33896720
v 0.17958117 0.06896102 0.36480701
v 0.18886568 0.06896102 0.36064851
v 0.19013619 0.06896102 0.36004537
v 0.21043181 0.06896102 0.35020465
v 0.24193402 0.15325725 0.32134914
v 0.23447382 0.18503559 0.31722239
v 0.23554887 0.19520466 0.31312737
v 0.22688332 0.19500396 0.31833345
v 0.22411425 0.20413604 0.31633353
v 0.22137778 0.22193192 0.31077832
v 0.21535099 0.22517665 0.31271470
v 0.21450397 0.21463962 0.31722239
v 0.21225615 0.23236859 0.31122273
v 0.20241782 0.24257112 0.31125447
v 0.19554402 0.24551480 0.31303215
v 0.17111108 0.27066985 0.31039739
v 0.16501914 0.27220860 0.31125447
v 0.15475731 0.27535298 0.31217504
v 0.14501670 0.28190935 0.31100053
v 0.14501670 0.27498502 0.31433365
v 0.13501549 0.28374916 0.31188935
v 0.07188079 0.27461705 0.32750753
v 0.18218735 0.26173848 0.31090528
v 0.19254690 0.25233877 0.31122273
v 0.07500821 0.38574088 0.21500590
v 0.09501064 0.38928670 0.20859358
v 0.09501064 0.39169514 0.20360972
v 0.07188079 0.38169333 0.22275151
v 0.10501185 0.39172861 0.20360972
v 0.11501306 0.39149445 0.20303833
v 0.12501428 0.39095923 0.20195903
v 0.16426986 0.39758253 0.16424686
v 0.16713667 0.39912125 0.15719964
v 0.15508308 0.39206311 0.18535678
v 0.16280389 0.39095923 0.18227759
v 0.16570327 0.39266521 0.17573828
v 0.12501428 0.38835007 0.20694287
v 0.12579614 0.38303137 0.21595824
v 0.13501549 0.38249618 0.21402183
v 0.14501670 0.38132536 0.21211718
v 0.15133670 0.38042220 0.21072043
v 0.15482247 0.38249618 0.20532392
v 0.15508308 0.38791519 0.19481657
v 0.15847111 0.38952082 0.18894389
v 0.17433622 0.39768285 0.15431091
v 0.18560795 0.39283249 0.15554893
v 0.19199310 0.39102614 0.15256497
v 0.19521824 0.39206311 0.14481938
v 0.20095184 0.39042401 0.14132752
v 0.19502278 0.39450502 0.13501041
v 0.19502278 0.39580959 0.12501097
v 0.20997573 0.38995570 0.11929701
v 0.20596874 0.39186239 0.11558293
v 0.20502400 0.39249796 0.10501210
v 0.20502400 0.39236417 0.09501266
v 0.21502522 0.38467047 0.07501379
v 0.20867264 0.38942051 0.08317205
v 0.21020378 0.39008951 0.09501266
v 0.22590601 0.38216165 0.10545652
v 0.22981527 0.37988698 0.10244082
v 0.22440745 0.38242924 0.09501266
v 0.23502764 0.37657535 0.09501266
v 0.23502764 0.37560529 0.08501323
v 0.22196417 0.38105777 0.07501379
v 0.20665285 0.38861766 0.07501379
v 0.19720545 0.39059126 0.06768087
v 0.20228751 0.38855076 0.06768087
v 0.38169038 0.08501744 0.14437497
v 0.38142979 0.09501927 0.14351787
v 0.38191843 0.07501563 0.14481938
v 0.38185328 0.06896102 0.14561298
v 0.38309121 0.06896102 0.14227983
v 0.38097370 0.10502107 0.14237508
v 0.38045245 0.11294894 0.14120054
v 0.39338565 0.15516394 0.06768087
v 0.38980213 0.15924495 0.07923576
v 0.38970441 0.14884174 0.08898126
v 0.38599059 0.14502832 0.10501210
v 0.37012547 0.19052154 0.12047154
v 0.37227559 0.14569736 0.14577171
v 0.37074444 0.14278713 0.15183486
v 0.37507722 0.13502651 0.14500985
v 0.37869328 0.13552828 0.13485169
v 0.37944257 0.12502471 0.13843879
v 0.37862813 0.11579226 0.14472415
v 0.37699926 0.12502471 0.14500985
v 0.23502764 0.08501744 0.33464998
v 0.24336742 0.14502832 0.32223797
v 0.21893448 0.06896102 0.34544301
v 0.22385365 0.07501563 0.34217337
v 0.22887054 0.07501563 0.33931637
v 0.23502764 0.07501563 0.33550707
v 0.25336862 0.15503015 0.31258774
v 0.24910101 0.17764294 0.30931807
v 0.24258555 0.18500215 0.31185761
v 0.24838431 0.14502832 0.31884134
v 0.24102186 0.19199337 0.31074655
v 0.23919752 0.19865011 0.30941331
v 0.23216084 0.20500576 0.31134969
v 0.23036909 0.21052517 0.31020689
v 0.22483096 0.21433857 0.31185761
v 0.21893448 0.22858864 0.30931807
v 0.22802353 0.21721534 0.30868319
v 0.21176748 0.25180355 0.30106455
v 0.20544749 0.24551480 0.30808005
v 0.19922525 0.24922784 0.30960375
v 0.17775685 0.26839519 0.30909586
v 0.17466199 0.27438289 0.30658805
v 0.17502035 0.28197625 0.30141374
v 0.16492140 0.28538823 0.30296922
v 0.15501793 0.29268053 0.30173120
v 0.16501914 0.27722624 0.30827051
v 0.15791729 0.27896568 0.30934981
v 0.15123896 0.28060478 0.31033388
v 0.14501670 0.28689355 0.30823874
v 0.13501549 0.28876677 0.30931807
v 0.12924932 0.28973687 0.30985773
v 0.07188079 0.28144103 0.32398391
v 0.18531476 0.26505011 0.30760390
v 0.18886568 0.25899550 0.30944505
v 0.08500943 0.38590816 0.21500590
v 0.07500821 0.38172680 0.22281499
v 0.09501064 0.38600850 0.21500590
v 0.10501185 0.38928670 0.20862532
v 0.07188079 0.38072327 0.22430697
v 0.11501306 0.38898563 0.20805392
v 0.17293541 0.39119339 0.17291304
v 0.17576963 0.39293283 0.16577059
v 0.16570327 0.38858423 0.18535678
v 0.16948223 0.38978845 0.17957933
v 0.11501306 0.38507187 0.21500590
v 0.12296192 0.38055599 0.22084685
v 0.12964025 0.37992042 0.21989453
v 0.13501549 0.37931833 0.21900569
v 0.14501670 0.37811410 0.21713278
v 0.15501793 0.37159115 0.22237058
v 0.15482247 0.37684298 0.21443452
v 0.15801503 0.37928486 0.20884752
v 0.16316223 0.38122502 0.20218123
v 0.16589873 0.38343281 0.19592762
v 0.18264343 0.39122683 0.16294535
v 0.19463184 0.38149261 0.17443676
v 0.20062608 0.38025495 0.17072269
v 0.20798853 0.37905073 0.16500872
v 0.21000831 0.37998736 0.15999314
v 0.21267965 0.38119158 0.15332684
v 0.21932541 0.37965283 0.14888264
v 0.21502522 0.38513878 0.13501041
v 0.20743471 0.38875148 0.13501041
v 0.20245039 0.39109302 0.13501041
v 0.22118232 0.38058946 0.14221635
v 0.20420957 0.39182895 0.12501097
v 0.20919389 0.38962120 0.12501097
v 0.21502522 0.38681132 0.12501097
v 0.22411425 0.38219512 0.12501097
v 0.22981527 0.37985355 0.11758282
v 0.22590601 0.38209474 0.11456712
v 0.21411304 0.38804901 0.11558293
v 0.21020378 0.39005607 0.11263072
v 0.21030150 0.39012295 0.10501210
v 0.22066107 0.38035530 0.06891888
v 0.21531841 0.38764760 0.10501210
v 0.23007590 0.38002080 0.10910711
v 0.24278103 0.37189221 0.09501266
v 0.24219464 0.37142390 0.08501323
v 0.24095669 0.37062109 0.07501379
v 0.23502764 0.37393272 0.07501379
v 0.24004453 0.37001896 0.06987122
v 0.21873902 0.38092399 0.06768087
v 0.21509036 0.38262996 0.06768087
v 0.20463307 0.38748035 0.06768087
v 0.37973577 0.08501744 0.14935881
v 0.37937742 0.09501927 0.14850172
v 0.37888876 0.06896102 0.15278718
v 0.37989867 0.07501563 0.14983498
v 0.37452340 0.11502289 0.15500928
v 0.37888876 0.10502107 0.14739066
v 0.39097491 0.16389462 0.06768087
v 0.39058399 0.16195449 0.07256947
v 0.37077701 0.20273110 0.10266303
v 0.36768216 0.19430149 0.12428086
v 0.36005911 0.20018885 0.14015298
v 0.36869207 0.14569736 0.15510452
v 0.36475024 0.14502832 0.16500872
v 0.36934364 0.13703358 0.15850115
v 0.37129825 0.13422370 0.15510452
v 0.37302485 0.12502471 0.15500928
v 0.37006032 0.13034339 0.16018359
v 0.24173856 0.07501563 0.33118987
v 0.24092412 0.08501744 0.33068195
v 0.24916616 0.13502651 0.31944448
v 0.22613405 0.06896102 0.34128451
v 0.22916374 0.06896102 0.33947510
v 0.23160702 0.06896102 0.33798313
v 0.23502764 0.06896102 0.33588800
v 0.23769897 0.06896102 0.33417380
v 0.25838551 0.15503015 0.30871493
v 0.25646347 0.16503197 0.30734992
v 0.25955829 0.14833997 0.30963552
v 0.25421563 0.17459892 0.30630237
v 0.24760246 0.18500215 0.30814353
v 0.26040530 0.14168325 0.31033388
v 0.25571418 0.14502832 0.31328610
v 0.25499749 0.13502651 0.31515902
v 0.25516039 0.18403207 0.30252481
v 0.25861356 0.18670814 0.29877898
v 0.25154430 0.19500396 0.30122328
v 0.24460535 0.19520466 0.30661982
v 0.25007832 0.20022228 0.30008048
v 0.24818884 0.20687902 0.29855677
v 0.24151051 0.21233152 0.30115980
v 0.23717773 0.20500576 0.30795306
v 0.22483096 0.22517665 0.30700073
v 0.23046683 0.23062915 0.30033445
v 0.22470064 0.23437564 0.30227083
v 0.21844582 0.24812396 0.29893771
v 0.23486476 0.21477343 0.30490562
v 0.23235631 0.22500940 0.30176294
v 0.20505658 0.25508174 0.30296922
v 0.21004090 0.29000446 0.27998638
v 0.20502400 0.29722986 0.27852616
v 0.19554402 0.25538281 0.30801654
v 0.19916010 0.29963833 0.27982765
v 0.16150080 0.29084074 0.30058840
v 0.15501793 0.29766470 0.29836631
v 0.14850247 0.29937071 0.29957259
v 0.15475731 0.28435126 0.30703247
v 0.14511445 0.29562423 0.30287397
v 0.13501549 0.29498863 0.30560398
v 0.07188079 0.28789705 0.32046029
v 0.07500821 0.28388295 0.32214275
v 0.12553552 0.29441997 0.30776259
v 0.10501185 0.29324919 0.31192109
v 0.07188079 0.37854895 0.22776709
v 0.07500821 0.37854895 0.22783059
v 0.08500943 0.37861586 0.22792582
v 0.08500943 0.38176024 0.22294196
v 0.10501185 0.38574088 0.21500590
v 0.09501064 0.38169333 0.22271976
v 0.17958117 0.38982189 0.16961163
v 0.19108093 0.38045567 0.18100782
v 0.17502035 0.38145918 0.19288017
v 0.18075395 0.38028842 0.19065808
v 0.10501185 0.38142574 0.22230709
v 0.11501306 0.38105777 0.22170395
v 0.11501306 0.37777960 0.22668779
v 0.12501428 0.37205946 0.23297316
v 0.12579614 0.37761235 0.22452918
v 0.13501549 0.37537113 0.22500534
v 0.13501549 0.37102252 0.23148118
v 0.14459321 0.37262815 0.22544977
v 0.14762288 0.36931652 0.22906861
v 0.15501793 0.36814573 0.22735442
v 0.16143563 0.37048727 0.22075161
v 0.16485626 0.37269503 0.21535510
v 0.17326118 0.37139046 0.21224415
v 0.16589873 0.37834823 0.20532392
v 0.16980800 0.37992042 0.19986391
v 0.19772670 0.37891692 0.17738898
v 0.20440502 0.37694332 0.17443676
v 0.21502522 0.37543803 0.16500872
v 0.21561161 0.37878311 0.15599336
v 0.22561282 0.37339753 0.15542196
v 0.23150930 0.37102252 0.15234277
v 0.22470064 0.37764579 0.14532730
v 0.22261570 0.38135883 0.13501041
v 0.22763260 0.37861586 0.13501041
v 0.22909857 0.37945211 0.12501097
v 0.23007590 0.38002080 0.11091653
v 0.23502764 0.37580597 0.12501097
v 0.24177113 0.37132359 0.12501097
v 0.26014468 0.36011752 0.11044037
v 0.23405032 0.37724435 0.11456712
v 0.22196417 0.37925142 0.06768087
v 0.23724289 0.37092215 0.06768087
v 0.23405032 0.37747854 0.10545652
v 0.26014468 0.36011752 0.10853571
v 0.24776535 0.36837989 0.09501266
v 0.24721153 0.36804539 0.08501323
v 0.24258555 0.37192568 0.10501210
v 0.24597359 0.36720911 0.07501379
v 0.24225979 0.36781120 0.06768087
v 0.27903950 0.34202060 0.06768087
v 0.37664092 0.09501927 0.15500928
v 0.37077701 0.07501563 0.17170677
v 0.37201494 0.06896102 0.16938943
v 0.37116796 0.11502289 0.16269138
v 0.36960423 0.10502107 0.16910373
v 0.37175435 0.10502107 0.16411988
v 0.37566361 0.10502107 0.15500928
v 0.37048382 0.12502471 0.16110417
v 0.38950893 0.16857776 0.06768087
v 0.37768340 0.20169413 0.06768087
v 0.37641287 0.20480506 0.06768087
v 0.36527145 0.21500759 0.10501210
v 0.36888754 0.20564133 0.10561524
v 0.38755429 0.17456546 0.06768087
v 0.38494813 0.18232608 0.06768087
v 0.38152751 0.19189303 0.06768087
v 0.36286074 0.20584205 0.12577283
v 0.36113417 0.20243005 0.13501041
v 0.35895148 0.20744768 0.13501041
v 0.32992515 0.22985977 0.17983329
v 0.32999030 0.22002521 0.19002318
v 0.33904678 0.19721171 0.18799156
v 0.34152266 0.19433494 0.18481714
v 0.34458491 0.18500215 0.18500760
v 0.34950408 0.17827851 0.17884922
v 0.35504222 0.16503197 0.17500816
v 0.35957044 0.15834180 0.16897675
v 0.36201376 0.15503015 0.16538966
v 0.36621618 0.15503015 0.15500928
v 0.36041746 0.15168506 0.17097664
v 0.36123189 0.14502832 0.17269084
v 0.36745414 0.13422370 0.16411988
v 0.36400095 0.12502471 0.17500816
v 0.36817086 0.12502471 0.16608803
v 0.35963559 0.13800365 0.17929363
v 0.36198115 0.13482581 0.17557955
v 0.24675545 0.07501563 0.32766622
v 0.25157687 0.10502107 0.32115868
v 0.24203175 0.06896102 0.33138031
v 0.26281604 0.16503197 0.30233434
v 0.26102427 0.17500032 0.30084234
v 0.26424941 0.14502832 0.30633411
v 0.27079746 0.14502832 0.30071539
v 0.26907086 0.15676960 0.29915991
v 0.26167583 0.12502471 0.31131795
v 0.26669273 0.12502471 0.30731818
v 0.27278465 0.12502471 0.30233434
v 0.27197024 0.13502651 0.30166769
v 0.25659376 0.10502107 0.31741285
v 0.26001438 0.18005142 0.29998526
v 0.26203418 0.19500396 0.29198572
v 0.25652862 0.19500396 0.29696956
v 0.27037394 0.18085423 0.29033500
v 0.26053563 0.20099166 0.29052547
v 0.25154430 0.21500759 0.29144606
v 0.25007832 0.22015902 0.29004931
v 0.24489854 0.21540900 0.29684258
v 0.23932783 0.21902169 0.29947734
v 0.23734063 0.22500940 0.29789013
v 0.24124989 0.23183338 0.29103339
v 0.23466928 0.23457634 0.29471570
v 0.22782807 0.23728587 0.29839805
v 0.21186522 0.30208024 0.27154243
v 0.20499142 0.30522463 0.27332008
v 0.20163596 0.31084436 0.27081230
v 0.15452927 0.30525807 0.29290628
v 0.14182414 0.30064183 0.30046141
v 0.15088060 0.31037605 0.29033500
v 0.14501670 0.31154683 0.29125559
v 0.14511445 0.30438834 0.29674733
v 0.13501549 0.30184609 0.30125502
v 0.12501428 0.30338481 0.30230260
v 0.07188079 0.28933546 0.31963494
v 0.11501306 0.29682845 0.30814353
v 0.09745394 0.29930380 0.30957201
v 0.09445682 0.29559076 0.31227028
v 0.07188079 0.37707710 0.23005268
v 0.09501064 0.37848204 0.22770362
v 0.07188079 0.37272850 0.23668723
v 0.07188079 0.37025315 0.24040131
v 0.07500821 0.37025315 0.24040131
v 0.08500943 0.37018624 0.24027433
v 0.10501185 0.37821445 0.22732268
v 0.18743229 0.37881655 0.18767411
v 0.19463184 0.37704366 0.18462667
v 0.17502035 0.37888348 0.19789577
v 0.18446776 0.37670916 0.19440389
v 0.11501306 0.37276196 0.23389374
v 0.11501306 0.36918271 0.23890933
v 0.12501428 0.36848024 0.23795700
v 0.13501549 0.36744326 0.23646502
v 0.14097713 0.37025315 0.23033838
v 0.15449668 0.36265978 0.23532222
v 0.14459321 0.36647320 0.23421118
v 0.15084803 0.36025131 0.24033782
v 0.15749380 0.35914743 0.23884584
v 0.16485626 0.36657354 0.22446570
v 0.16808140 0.36924961 0.21891046
v 0.17596510 0.36817920 0.21535510
v 0.17993951 0.36995208 0.20995858
v 0.17596510 0.37393272 0.20599055
v 0.20476338 0.37209293 0.18469015
v 0.21101820 0.37055421 0.18113481
v 0.21460171 0.37169152 0.17427805
v 0.22033530 0.37018624 0.17043699
v 0.22932662 0.36955068 0.15900907
v 0.23492990 0.36727601 0.15542196
v 0.24245524 0.36192387 0.15500928
v 0.25095791 0.36082000 0.14193065
v 0.23835051 0.36881477 0.14500985
v 0.23336619 0.37232709 0.14500985
v 0.23580949 0.37333062 0.13551831
v 0.24098927 0.37072146 0.13253435
v 0.27001560 0.35001534 0.12005887
v 0.27047169 0.35041678 0.10501210
v 0.27574921 0.34583399 0.09501266
v 0.27073228 0.35065091 0.09501266
v 0.25203297 0.36175662 0.13501041
v 0.28122216 0.34105051 0.07501379
v 0.27043909 0.35034984 0.08501323
v 0.25946057 0.35958230 0.09501266
v 0.25392243 0.36302775 0.08501323
v 0.25447625 0.36336225 0.09501266
v 0.28083125 0.34068257 0.06768087
v 0.36993003 0.09903337 0.16989733
v 0.36377293 0.08501744 0.18500760
v 0.36839887 0.07501563 0.17672235
v 0.37090731 0.06896102 0.17202421
v 0.36892012 0.11502289 0.16767524
v 0.36549950 0.11502289 0.17500816
v 0.36677003 0.10502107 0.17500816
v 0.37152630 0.21587731 0.06768087
v 0.36113417 0.23792145 0.06768087
v 0.36142737 0.22300234 0.10501210
v 0.36051518 0.22143015 0.11145618
v 0.35986364 0.20975579 0.12961389
v 0.35530281 0.21500759 0.13501041
v 0.32018456 0.25036517 0.18046817
v 0.32878494 0.22741786 0.18500760
v 0.32129219 0.24424365 0.18427747
v 0.32018456 0.24043025 0.19040412
v 0.32122701 0.23407459 0.19424517
v 0.32002169 0.23012738 0.20011786
v 0.32122701 0.22500940 0.20218123
v 0.31966332 0.21925585 0.20948242
v 0.32324684 0.21554279 0.20570484
v 0.32829630 0.21500759 0.19678470
v 0.32946908 0.20861846 0.19903855
v 0.33090246 0.21500759 0.19180086
v 0.33976349 0.17928204 0.19957821
v 0.35139355 0.16503197 0.18303946
v 0.34986243 0.15941221 0.18976924
v 0.35794157 0.15503015 0.17459549
v 0.35891891 0.14502832 0.17767468
v 0.36080837 0.12502471 0.18170619
v 0.35536799 0.14502832 0.18500760
v 0.35774612 0.13482581 0.18430923
v 0.24701607 0.06896102 0.32785672
v 0.25392243 0.06896102 0.32284111
v 0.25362924 0.07501563 0.32265064
v 0.25864613 0.07501563 0.31896833
v 0.26780036 0.16503197 0.29801711
v 0.26600859 0.17500032 0.29642990
v 0.27578178 0.14502832 0.29614419
v 0.28034258 0.15128365 0.29036674
v 0.27695456 0.13502651 0.29716003
v 0.26235995 0.11502289 0.31188935
v 0.26737684 0.11502289 0.30785784
v 0.26929891 0.08501744 0.30944505
v 0.27340364 0.11502289 0.30287397
v 0.27956074 0.09501927 0.29963607
v 0.27776897 0.12502471 0.29795364
v 0.26705107 0.19500396 0.28693837
v 0.26884282 0.18751095 0.28884304
v 0.27148157 0.17500032 0.29141432
v 0.27649847 0.17500032 0.28639871
v 0.28027743 0.18068698 0.28030384
v 0.27457643 0.18409896 0.28455755
v 0.27030879 0.22059388 0.27033612
v 0.26027501 0.22052698 0.28027207
v 0.25418305 0.22367136 0.28424013
v 0.24792823 0.22681575 0.28820813
v 0.24473566 0.22410622 0.29236662
v 0.25164205 0.23236859 0.28154185
v 0.23883918 0.23849010 0.28900176
v 0.22118232 0.29137596 0.27090752
v 0.21854356 0.29806614 0.26874891
v 0.22522189 0.29522282 0.26519355
v 0.22261570 0.30318412 0.26208264
v 0.21991180 0.30987430 0.25986052
v 0.20828173 0.30873695 0.26903462
v 0.15270494 0.33121595 0.27116150
v 0.15211855 0.32087964 0.28077999
v 0.15879688 0.31944126 0.27951023
v 0.21323346 0.31231621 0.26236832
v 0.20443761 0.31492537 0.26462215
v 0.16501914 0.34864387 0.24836911
v 0.16404182 0.34292376 0.25503540
v 0.16006739 0.34001353 0.26001924
v 0.13501549 0.30683026 0.29763618
v 0.14501670 0.32231802 0.28201801
v 0.14501670 0.31653100 0.28700185
v 0.13501549 0.31325284 0.29262060
v 0.13501549 0.32412437 0.28351000
v 0.13501549 0.31823701 0.28852558
v 0.12501428 0.30840245 0.29881072
v 0.11142957 0.31037605 0.30027097
v 0.11485018 0.30562603 0.30268353
v 0.09077559 0.30017352 0.31011167
v 0.07188079 0.29224569 0.31785727
v 0.10501185 0.30499047 0.30474690
v 0.09497806 0.37282884 0.23589362
v 0.09159003 0.37005243 0.24011561
v 0.07188079 0.36918271 0.24195677
v 0.07500821 0.36674079 0.24538516
v 0.08500943 0.36664045 0.24525818
v 0.09826836 0.36988518 0.23986165
v 0.10501185 0.37319681 0.23452862
v 0.20127761 0.37065455 0.19126122
v 0.18502156 0.37172496 0.20300658
v 0.19088547 0.37038696 0.20072100
v 0.19453412 0.37192568 0.19475308
v 0.10501185 0.36965102 0.23954421
v 0.10501185 0.36570382 0.24497248
v 0.10501185 0.36102068 0.25132132
v 0.11501306 0.36470029 0.24497248
v 0.12051862 0.36008406 0.25011504
v 0.12433016 0.36286050 0.24551213
v 0.13501549 0.36242563 0.24309957
v 0.14501670 0.36108759 0.24144886
v 0.14501670 0.35714039 0.24643272
v 0.15951359 0.34981465 0.24979761
v 0.16501914 0.35265797 0.24338527
v 0.16501914 0.35767561 0.23681420
v 0.17423850 0.36229181 0.22491011
v 0.18221992 0.36108759 0.22154522
v 0.17039439 0.36015096 0.23021141
v 0.18534733 0.36366332 0.21554556
v 0.18502156 0.36874783 0.20799044
v 0.20030029 0.36015096 0.21024427
v 0.20795594 0.36884820 0.18780109
v 0.21460171 0.36654007 0.18469015
v 0.21766397 0.36858058 0.17710328
v 0.23203053 0.36132175 0.17284955
v 0.22724168 0.36817920 0.16500872
v 0.22965239 0.35974956 0.17951584
v 0.23522310 0.36286050 0.16478652
v 0.24076124 0.36055237 0.16129464
v 0.25196782 0.35148719 0.16297710
v 0.24747215 0.35814393 0.15500928
v 0.24460535 0.36724257 0.13551831
v 0.23962103 0.36971793 0.13920066
v 0.25388986 0.35312629 0.15500928
v 0.25890675 0.34897837 0.15500928
v 0.25988409 0.34991500 0.14977148
v 0.26102427 0.35105234 0.14310519
v 0.28011453 0.34014735 0.11075781
v 0.28040773 0.34044841 0.10501210
v 0.28079867 0.34084982 0.09501266
v 0.26991788 0.33991319 0.14983498
v 0.28083125 0.33091491 0.14253379
v 0.28197145 0.33218604 0.13501041
v 0.28698835 0.32653284 0.13501041
v 0.28822628 0.32800466 0.12501097
v 0.28917101 0.32904166 0.11501154
v 0.28112444 0.34108397 0.08501323
v 0.29011577 0.33282161 0.06768087
v 0.28584814 0.33646774 0.06768087
v 0.26499870 0.35453123 0.08501323
v 0.25893933 0.35918090 0.08501323
v 0.36067808 0.08501744 0.19126122
v 0.36435932 0.07501563 0.18500760
v 0.36852920 0.06896102 0.17703979
v 0.36155766 0.11502289 0.18319818
v 0.35904920 0.11502289 0.18821377
v 0.36214405 0.10502107 0.18424574
v 0.36005911 0.24009575 0.06768087
v 0.35891891 0.22798653 0.10501210
v 0.35758322 0.22484215 0.11488456
v 0.35318530 0.22584566 0.12570935
v 0.34982985 0.22975942 0.12951866
v 0.32324684 0.25578421 0.16573885
v 0.32129219 0.25253949 0.17500816
v 0.31979364 0.25966451 0.16954815
v 0.31865343 0.25752366 0.17500816
v 0.31373426 0.26588637 0.17589700
v 0.30989015 0.26980013 0.17980154
v 0.31621015 0.25421202 0.18427747
v 0.31858826 0.24708699 0.18713446
v 0.31624269 0.24424365 0.19424517
v 0.31839281 0.23678412 0.19707042
v 0.31829506 0.22500940 0.20716508
v 0.31132355 0.24497958 0.20230821
v 0.31490704 0.23484395 0.20487949
v 0.30975986 0.23956053 0.20964113
v 0.31138870 0.23290381 0.21211718
v 0.30914086 0.22822069 0.21878347
v 0.31070459 0.22156397 0.22100557
v 0.30982500 0.20962200 0.22979873
v 0.32099900 0.21256568 0.21154580
v 0.33070701 0.20196174 0.20129240
v 0.33008805 0.19025393 0.21018079
v 0.33259648 0.20517302 0.19541971
v 0.33161917 0.19416767 0.20478426
v 0.33093506 0.18500215 0.21154580
v 0.33784142 0.17556900 0.20475252
v 0.34070823 0.17262530 0.20126066
v 0.34165296 0.16503197 0.20307007
v 0.33973092 0.15877664 0.20951416
v 0.34510615 0.14502832 0.20500648
v 0.34885252 0.14502832 0.19780053
v 0.35142612 0.14502832 0.19281667
v 0.35829994 0.12502471 0.18669005
v 0.34963438 0.13746843 0.19932425
v 0.25890675 0.06896102 0.31915879
v 0.26135007 0.06896102 0.31719065
v 0.26483580 0.07501563 0.31395274
v 0.27324075 0.16503197 0.29303327
v 0.28112444 0.14502832 0.29112861
v 0.29011577 0.15058118 0.28014511
v 0.28480566 0.15426078 0.28474802
v 0.27933270 0.15797383 0.28935093
v 0.28614134 0.14502832 0.28579557
v 0.28213432 0.13502651 0.29217619
v 0.26982012 0.07501563 0.30985773
v 0.27499992 0.07501563 0.30541351
v 0.27991909 0.08909845 0.29992175
v 0.29018092 0.09157382 0.29017627
v 0.28584814 0.09495236 0.29382688
v 0.28943163 0.10502107 0.28944618
v 0.28871495 0.11502289 0.28871605
v 0.27187249 0.19500396 0.28195453
v 0.27877888 0.18737715 0.27865312
v 0.27822506 0.16503197 0.28817639
v 0.28131992 0.17500032 0.28141487
v 0.29005060 0.18015176 0.27005044
v 0.27170962 0.21500759 0.27176464
v 0.27731290 0.21597765 0.26506659
v 0.27995166 0.21992487 0.25992402
v 0.28304648 0.22500940 0.25347993
v 0.28115702 0.23220134 0.25135309
v 0.27930012 0.23885806 0.24928969
v 0.28050548 0.25080004 0.24056002
v 0.26835415 0.22725061 0.26827276
v 0.26167583 0.23280345 0.27166939
v 0.26431459 0.22390552 0.27433592
v 0.25832036 0.22718370 0.27833569
v 0.25962347 0.23946019 0.26960602
v 0.23154187 0.29241294 0.26160645
v 0.22929405 0.29906964 0.25913042
v 0.26262057 0.29435307 0.22443396
v 0.26056820 0.30067530 0.22071987
v 0.25766882 0.30736548 0.21725975
v 0.26047048 0.31050986 0.21059346
v 0.25079504 0.32077926 0.21091090
v 0.24050061 0.33044660 0.21056172
v 0.23965360 0.33971247 0.19964169
v 0.23580949 0.33807337 0.20599055
v 0.22994559 0.33994663 0.20995858
v 0.22329983 0.34242201 0.21313301
v 0.21870644 0.34907871 0.20872055
v 0.21206068 0.35135338 0.21183148
v 0.20828173 0.34884459 0.21849778
v 0.14501670 0.33272123 0.27258998
v 0.14501670 0.32730222 0.27757382
v 0.20723924 0.31900638 0.25824156
v 0.20160338 0.35098544 0.22129127
v 0.17215356 0.35105234 0.24138539
v 0.15501793 0.34091669 0.26093984
v 0.14501670 0.33773887 0.26776484
v 0.12481882 0.31559438 0.29325548
v 0.13501549 0.32910854 0.27919278
v 0.12801139 0.31934088 0.28944618
v 0.12133306 0.32037789 0.29033500
v 0.12993345 0.32994482 0.27995464
v 0.10501185 0.31111199 0.30077887
v 0.11501306 0.32118070 0.29100165
v 0.10501185 0.31609616 0.29693782
v 0.08500943 0.30080909 0.31052434
v 0.07188079 0.29933727 0.31328610
v 0.08500943 0.36165625 0.25217843
v 0.09497806 0.36704186 0.24405190
v 0.07188079 0.36674079 0.24541689
v 0.07188079 0.36520207 0.24754377
v 0.07500821 0.36175662 0.25224191
v 0.09501064 0.36138865 0.25182924
v 0.19756380 0.36881477 0.19792750
v 0.20476338 0.36670732 0.19475308
v 0.19453412 0.36640629 0.20443508
v 0.09501064 0.35744146 0.25684482
v 0.10501185 0.35700658 0.25630519
v 0.11501306 0.36048549 0.25062296
v 0.11501306 0.35637102 0.25563854
v 0.11501306 0.35135338 0.26154298
v 0.12299449 0.35061747 0.26068589
v 0.12964025 0.34991500 0.25989228
v 0.12716438 0.35934815 0.24919446
v 0.13501549 0.35847843 0.24808341
v 0.14501670 0.35212275 0.25246412
v 0.14501670 0.34767377 0.25744796
v 0.17704014 0.35864568 0.22821152
v 0.18502156 0.35168791 0.23221129
v 0.18534733 0.35700658 0.22491011
v 0.18889827 0.35941505 0.21919616
v 0.19502278 0.35780942 0.21710104
v 0.19055970 0.35028297 0.23037012
v 0.19433865 0.35242382 0.22478314
v 0.20694605 0.35801011 0.20703810
v 0.21036667 0.36018443 0.20037182
v 0.20417699 0.36148900 0.20421287
v 0.21421078 0.36148900 0.19414994
v 0.22020499 0.36011752 0.19024539
v 0.22238767 0.36152247 0.18500760
v 0.23864371 0.35901365 0.16796094
v 0.22740456 0.35814393 0.18500760
v 0.23154187 0.35111922 0.19186436
v 0.23492990 0.35282522 0.18453144
v 0.24274844 0.35215622 0.17500816
v 0.23522310 0.35757524 0.17570654
v 0.24971998 0.34974775 0.16964339
v 0.25516039 0.34717202 0.16577059
v 0.26148036 0.34161919 0.16500872
v 0.26385850 0.34396073 0.15500928
v 0.28969225 0.32964376 0.10682152
v 0.29027864 0.33034623 0.09501266
v 0.29076731 0.33088145 0.08501323
v 0.29112566 0.33124942 0.07501379
v 0.29141885 0.33148357 0.06768087
v 0.26884282 0.33877587 0.15500928
v 0.27353394 0.33375823 0.15500928
v 0.27969104 0.32967722 0.14920008
v 0.28503370 0.32506099 0.14516857
v 0.29034379 0.32044476 0.14113705
v 0.29125595 0.32151520 0.13501041
v 0.29246134 0.32298702 0.12501097
v 0.29330832 0.32402402 0.11501154
v 0.29900935 0.31877223 0.10501210
v 0.32894784 0.28863299 0.06768087
v 0.32233465 0.29659429 0.06768087
v 0.34999275 0.09000163 0.21002206
v 0.35025334 0.08331145 0.21046649
v 0.35852796 0.06896102 0.19716564
v 0.35960302 0.06896102 0.19519749
v 0.35650820 0.10502107 0.19500703
v 0.35191479 0.10502107 0.20360972
v 0.35386944 0.12502471 0.19500703
v 0.35536799 0.11502289 0.19500703
v 0.35904920 0.24206935 0.06768087
v 0.35758322 0.24481232 0.06768087
v 0.35214284 0.25464687 0.06768087
v 0.34963438 0.25892860 0.06768087
v 0.34947151 0.25912929 0.06787133
v 0.32666743 0.27398148 0.12402690
v 0.32054290 0.28087237 0.13196295
v 0.32279074 0.27558714 0.13520087
v 0.32158539 0.27267691 0.14500985
v 0.32051033 0.27090400 0.15145393
v 0.32230207 0.26521736 0.15488231
v 0.32106414 0.26203954 0.16288185
v 0.31930497 0.26869625 0.15812021
v 0.31826252 0.26521736 0.16573885
v 0.31132355 0.27237585 0.17313525
v 0.30940148 0.27903259 0.16859582
v 0.30829388 0.27541989 0.17589700
v 0.30112687 0.28187591 0.18234108
v 0.29946542 0.27913293 0.18900737
v 0.30848932 0.26739168 0.18500760
v 0.31002045 0.26003247 0.19008668
v 0.31119323 0.25404477 0.19405471
v 0.31002045 0.25006410 0.20008612
v 0.30083367 0.24150069 0.22125953
v 0.30787036 0.23574713 0.21525986
v 0.30829388 0.24497958 0.20729207
v 0.29936770 0.25892860 0.20913322
v 0.30125719 0.25227186 0.21183148
v 0.30314666 0.24491267 0.21510114
v 0.30653471 0.22494249 0.22462441
v 0.30207160 0.23414148 0.22475140
v 0.30861962 0.21500759 0.22811629
v 0.30330956 0.21490723 0.23532222
v 0.30067080 0.21149524 0.24081399
v 0.29956317 0.17888063 0.25944784
v 0.31008559 0.17028375 0.25011504
v 0.31894663 0.18724334 0.22862419
v 0.32135734 0.19329795 0.22195791
v 0.32784021 0.18500215 0.21656138
v 0.32907814 0.17714119 0.21856126
v 0.33012062 0.17045102 0.22024371
v 0.33204266 0.17429785 0.21513289
v 0.33888391 0.16503197 0.20808567
v 0.33477917 0.16503197 0.21500590
v 0.33090246 0.16503197 0.22141825
v 0.33758080 0.15526430 0.21449800
v 0.34044760 0.15211992 0.21081567
v 0.34122947 0.14502832 0.21211718
v 0.34748429 0.13449129 0.20414938
v 0.26727912 0.06896102 0.31236553
v 0.28711864 0.13502651 0.28690663
v 0.29180977 0.13502651 0.28192279
v 0.29884645 0.15503015 0.26865369
v 0.28923619 0.15723792 0.27916104
v 0.29073474 0.14502832 0.28081173
v 0.30054048 0.14205121 0.27059010
v 0.28301391 0.16503197 0.28319255
v 0.29268935 0.12502471 0.28281161
v 0.28060320 0.07501563 0.30052492
v 0.27633560 0.06896102 0.30458817
v 0.29050669 0.08501744 0.29049373
v 0.28562009 0.07501563 0.29589024
v 0.30073595 0.07501563 0.28077999
v 0.30034500 0.08247519 0.28039905
v 0.29415533 0.10502107 0.28443056
v 0.29343864 0.11502289 0.28370047
v 0.28158051 0.21326813 0.26179692
v 0.28630424 0.17500032 0.27601835
v 0.28803080 0.16503197 0.27782777
v 0.29089761 0.17500032 0.27100277
v 0.30073595 0.17222390 0.26087636
v 0.29119080 0.21249877 0.25138482
v 0.28956196 0.21915549 0.24948016
v 0.28904071 0.23812215 0.23884584
v 0.28216690 0.24497958 0.24236944
v 0.28978997 0.24966270 0.22976698
v 0.28275329 0.25447962 0.23475084
v 0.27832279 0.25745675 0.23789351
v 0.27164447 0.26230714 0.24173456
v 0.26841933 0.25755709 0.24840085
v 0.29174462 0.24300598 0.23217955
v 0.26177356 0.26247439 0.25176576
v 0.26920116 0.26896387 0.23913154
v 0.26965725 0.27956778 0.22967175
v 0.27255663 0.28328085 0.22300546
v 0.26047048 0.29060659 0.23049711
v 0.26995045 0.28997102 0.21998976
v 0.27001560 0.30000627 0.21005380
v 0.26385850 0.30368587 0.21364091
v 0.26763746 0.30726513 0.20500648
v 0.26968983 0.30964014 0.19960995
v 0.26213190 0.31428981 0.20405415
v 0.26004696 0.32004336 0.20008612
v 0.25744078 0.31720003 0.20675240
v 0.25447625 0.32248527 0.20405415
v 0.24998060 0.32997829 0.19999088
v 0.24786307 0.32807156 0.20500648
v 0.24287875 0.33265436 0.20500648
v 0.24887297 0.33897656 0.18846773
v 0.24219464 0.34188679 0.19297540
v 0.23561403 0.34546602 0.19573715
v 0.22867508 0.34901184 0.19853064
v 0.23304042 0.34235510 0.20329228
v 0.25255421 0.33231983 0.19332460
v 0.22597116 0.34573364 0.20602229
v 0.22199674 0.35135338 0.20205426
v 0.21453655 0.35469848 0.20453031
v 0.13706785 0.33907691 0.26909810
v 0.17883189 0.34937978 0.23922677
v 0.14501670 0.34265617 0.26274925
v 0.12325511 0.33088145 0.28081173
v 0.11501306 0.32619834 0.28668442
v 0.12595902 0.33452758 0.27662149
v 0.13042210 0.34011388 0.27011392
v 0.09501064 0.31204861 0.30147725
v 0.07500821 0.30181262 0.31125447
v 0.09501064 0.31706622 0.29773140
v 0.10501185 0.32228458 0.29195395
v 0.07188079 0.30204678 0.31144494
v 0.08500943 0.35777596 0.25719401
v 0.07188079 0.36175662 0.25227365
v 0.07500821 0.35780942 0.25725749
v 0.08500943 0.35279179 0.26325718
v 0.09501064 0.35245726 0.26284450
v 0.10501185 0.35198897 0.26233658
v 0.10501185 0.34757343 0.26732042
v 0.11501306 0.34680408 0.26652682
v 0.12501428 0.34078291 0.27078056
v 0.12579614 0.34656990 0.26439995
v 0.13501549 0.35346079 0.25411481
v 0.13501549 0.34917909 0.25909868
v 0.13426623 0.34342551 0.26544753
v 0.21701242 0.35801011 0.19691169
v 0.23818763 0.34854352 0.18754713
v 0.24059835 0.35048366 0.18088084
v 0.24473566 0.34479702 0.18469015
v 0.25121853 0.34105051 0.18180142
v 0.25470430 0.34258926 0.17411932
v 0.26011211 0.34011388 0.17021477
v 0.26988530 0.32987791 0.16986559
v 0.27167705 0.33175117 0.16319931
v 0.32028228 0.29896930 0.06768087
v 0.31536311 0.30462250 0.06768087
v 0.30927119 0.31154683 0.06768087
v 0.30611119 0.31512606 0.06768087
v 0.29972604 0.32235146 0.06768087
v 0.29643574 0.32599762 0.06768087
v 0.27851826 0.32833919 0.15500928
v 0.28288361 0.32335499 0.15500928
v 0.28923619 0.31903982 0.14780334
v 0.29301512 0.31542712 0.14469241
v 0.29953060 0.30937254 0.13847053
v 0.29672894 0.31439015 0.13510564
v 0.30050790 0.31067711 0.13180424
v 0.29744565 0.31669825 0.12501097
v 0.29832524 0.31786907 0.11501154
v 0.33174947 0.28498682 0.06768087
v 0.30220193 0.31285143 0.11501154
v 0.34660470 0.09501927 0.21500590
v 0.34794039 0.08598752 0.21430753
v 0.34921089 0.10502107 0.20859358
v 0.35051396 0.07501563 0.21094264
v 0.35419521 0.06896102 0.20500648
v 0.35598695 0.06896102 0.20176856
v 0.34787521 0.12502471 0.20605403
v 0.34859192 0.11502289 0.20748252
v 0.34595317 0.26468214 0.06768087
v 0.32145506 0.28221041 0.12501097
v 0.31200767 0.29308194 0.13501041
v 0.31735033 0.28451851 0.13520087
v 0.31959817 0.27930018 0.13862926
v 0.31862086 0.27769455 0.14500985
v 0.31200767 0.28318048 0.15500928
v 0.31718746 0.27455017 0.15488231
v 0.31282210 0.27541989 0.16516745
v 0.31073716 0.28117344 0.16192953
v 0.30715364 0.28468579 0.16516745
v 0.30057305 0.29080728 0.17132583
v 0.30269057 0.28512064 0.17481770
v 0.29904193 0.28853261 0.17799212
v 0.29744565 0.28512064 0.18542027
v 0.29777142 0.27545333 0.19551495
v 0.29949802 0.26923147 0.19919728
v 0.30142006 0.27244276 0.19253099
v 0.29057184 0.29077384 0.19091202
v 0.29242873 0.28455198 0.19456261
v 0.30480808 0.26464871 0.19462611
v 0.30819613 0.25672084 0.19675297
v 0.30155039 0.26257473 0.20246693
v 0.30474293 0.25447962 0.20462555
v 0.29842296 0.23688446 0.22792582
v 0.29891163 0.24819086 0.21849778
v 0.29532811 0.24558169 0.22551325
v 0.29770625 0.26551843 0.20548263
v 0.29060441 0.27087057 0.21081567
v 0.29216814 0.26424730 0.21449800
v 0.29024607 0.26040044 0.22037069
v 0.29190752 0.25498140 0.22259279
v 0.29715246 0.25534934 0.21510114
v 0.30008441 0.23022774 0.23011617
v 0.30132234 0.22500940 0.23173513
v 0.29907450 0.21815197 0.23887758
v 0.29513267 0.21534209 0.24516295
v 0.30682790 0.16503197 0.25608295
v 0.31083488 0.16503197 0.25106737
v 0.32005423 0.16028193 0.24011561
v 0.31904435 0.16693866 0.23862363
v 0.32116187 0.17500032 0.23167165
v 0.32239980 0.18436657 0.22516407
v 0.32637423 0.17429785 0.22414826
v 0.32767731 0.16503197 0.22643384
v 0.33217299 0.15503015 0.22344989
v 0.33054411 0.14231881 0.23084629
v 0.33826494 0.14502832 0.21710104
v 0.34214163 0.13502651 0.21357742
v 0.29679409 0.13502651 0.27646276
v 0.29767367 0.12502471 0.27741510
v 0.30181098 0.16503197 0.26211438
v 0.29246134 0.16503197 0.27284393
v 0.30125719 0.13502651 0.27144718
v 0.31135613 0.12502471 0.26166996
v 0.30989015 0.13954239 0.25986052
v 0.30806583 0.15503015 0.25757495
v 0.29845554 0.11502289 0.27830392
v 0.28076610 0.06896102 0.30068362
v 0.29089761 0.07501563 0.29087466
v 0.29588193 0.07501563 0.28579557
v 0.28275329 0.06896102 0.29884246
v 0.28578299 0.06896102 0.29598549
v 0.28786793 0.06896102 0.29401734
v 0.30998787 0.08010016 0.26998696
v 0.30093139 0.06896102 0.28100219
v 0.30878252 0.10502107 0.26855844
v 0.30376562 0.10502107 0.27408195
v 0.29913965 0.10502107 0.27909756
v 0.29233101 0.22500940 0.24275038
v 0.29734790 0.22500940 0.23675072
v 0.28806341 0.25498140 0.22760838
v 0.28096154 0.26147085 0.23122722
v 0.27923495 0.27883187 0.21900569
v 0.27519539 0.26521736 0.23519525
v 0.27206796 0.27291107 0.23246525
v 0.27594465 0.28619108 0.21618044
v 0.27200282 0.29498863 0.21252985
v 0.27933270 0.28906783 0.20910148
v 0.27711743 0.29535660 0.20548263
v 0.27916980 0.29893586 0.19881634
v 0.27190506 0.30224749 0.20500648
v 0.27197024 0.31231621 0.19294366
v 0.26727912 0.31539369 0.19576889
v 0.27558631 0.30565947 0.19586413
v 0.26907086 0.31897295 0.18856296
v 0.26183870 0.32195008 0.19500703
v 0.25919995 0.32924235 0.18894389
v 0.25519297 0.33519661 0.18535678
v 0.11501306 0.33676881 0.27684370
v 0.11501306 0.33178461 0.28166884
v 0.10501185 0.32726875 0.28754151
v 0.08500943 0.31281796 0.30211213
v 0.07500821 0.30679682 0.30769911
v 0.07188079 0.30549222 0.30900061
v 0.09501064 0.32315430 0.29274756
v 0.08500943 0.31783560 0.29833454
v 0.07500821 0.35282522 0.26338413
v 0.07188079 0.35780942 0.25728926
v 0.07500821 0.34864387 0.26839975
v 0.07500821 0.34362623 0.27433592
v 0.07500821 0.33941144 0.27931976
v 0.08500943 0.34349242 0.27408195
v 0.09501064 0.34810865 0.26786008
v 0.08500943 0.33914381 0.27909756
v 0.10501185 0.34255582 0.27271694
v 0.11501306 0.34178644 0.27185985
v 0.25786430 0.33807337 0.17688107
v 0.26141521 0.33138320 0.18227759
v 0.26848447 0.32833919 0.17500816
v 0.27311045 0.32335499 0.17500816
v 0.27965847 0.31960851 0.16938943
v 0.28125474 0.32144830 0.16269138
v 0.28790051 0.31733385 0.15500928
v 0.29177719 0.31234965 0.15500928
v 0.29852068 0.30796760 0.14500985
v 0.30216932 0.30298340 0.14500985
v 0.30324438 0.30562603 0.13510564
v 0.30868480 0.29806614 0.13501041
v 0.30956438 0.29937071 0.12789971
v 0.30676273 0.30418766 0.12475702
v 0.30125719 0.31168064 0.12501097
v 0.33275938 0.28364879 0.06768087
v 0.34188101 0.09501927 0.22313243
v 0.34243482 0.08501744 0.22386256
v 0.34767973 0.07501563 0.21592650
v 0.34429172 0.11502289 0.21500590
v 0.33780885 0.11502289 0.22624338
v 0.33839524 0.10502107 0.22719570
v 0.34781006 0.06896102 0.21618044
v 0.34025213 0.12141201 0.22043417
v 0.34201130 0.27070332 0.06768087
v 0.31819734 0.28722805 0.12501097
v 0.31090003 0.29137596 0.14281949
v 0.31344107 0.28582311 0.14570822
v 0.30982500 0.28970340 0.14948580
v 0.30881509 0.28816468 0.15500928
v 0.29969347 0.29957142 0.15926301
v 0.30187613 0.29281434 0.16500872
v 0.29845554 0.29779851 0.16500872
v 0.29154915 0.30211368 0.17313525
v 0.29529554 0.29532316 0.17557955
v 0.28985515 0.29983902 0.17980154
v 0.29220071 0.29298159 0.18500760
v 0.29063699 0.28093928 0.20097496
v 0.29246134 0.27451670 0.20459379
v 0.28832400 0.28762946 0.19761007
v 0.28838918 0.29796576 0.18500760
v 0.28311166 0.30499047 0.18469015
v 0.28131992 0.30167884 0.19215006
v 0.28167826 0.29227912 0.20243520
v 0.28829142 0.27756074 0.20764124
v 0.28164569 0.28241110 0.21233940
v 0.31923983 0.13502651 0.24903575
v 0.32972968 0.14900899 0.22964001
v 0.32894784 0.15503015 0.22846547
v 0.32217178 0.16416225 0.23516351
v 0.32292104 0.13502651 0.24402015
v 0.32793793 0.13502651 0.23690943
v 0.33119565 0.13502651 0.23189385
v 0.33533299 0.13502651 0.22500534
v 0.30803323 0.11502289 0.26776484
v 0.30304891 0.11502289 0.27328834
v 0.30715364 0.12502471 0.26668555
v 0.31699198 0.12555993 0.25436878
v 0.31985879 0.12927297 0.24979761
v 0.31220314 0.11502289 0.26274925
v 0.32044518 0.12261624 0.25062296
v 0.29099536 0.06896102 0.29100165
v 0.29597968 0.06896102 0.28598604
v 0.30291861 0.06896102 0.27871662
v 0.30764231 0.06896102 0.27312964
v 0.31005305 0.07501563 0.27005044
v 0.31910950 0.06896102 0.25884470
v 0.31904435 0.07501563 0.25871775
v 0.31868601 0.08501744 0.25824156
v 0.32165053 0.10502107 0.25211492
v 0.31272435 0.10502107 0.26354286
v 0.28500113 0.28502029 0.20503822
v 0.27864856 0.30833554 0.18780109
v 0.27490219 0.31489193 0.18484887
v 0.27112323 0.32124758 0.18189666
v 0.26522675 0.32522824 0.18542027
v 0.10501185 0.33770543 0.27773255
v 0.10501185 0.33272123 0.28255767
v 0.09501064 0.32813847 0.28830338
v 0.07188079 0.31168064 0.30442944
v 0.07188079 0.30706441 0.30785784
v 0.08500943 0.32389021 0.29331896
v 0.08500943 0.32890785 0.28896999
v 0.07500821 0.31850463 0.29877898
v 0.07188079 0.35282522 0.26338413
v 0.07188079 0.34362623 0.27430415
v 0.07188079 0.33937797 0.27928799
v 0.07188079 0.33783925 0.28100219
v 0.07188079 0.33292195 0.28608128
v 0.07500821 0.33442724 0.28446233
v 0.09501064 0.33847481 0.27843091
v 0.07500821 0.32940960 0.28947791
v 0.08500943 0.33412617 0.28398615
v 0.09501064 0.33349061 0.28328779
v 0.27809477 0.31780216 0.17500816
v 0.28063577 0.31077746 0.18113481
v 0.28226465 0.31281796 0.17500816
v 0.28907329 0.30880386 0.16799268
v 0.28516403 0.31515953 0.16535792
v 0.29053926 0.31074402 0.16132639
v 0.29725018 0.30475631 0.15554893
v 0.30089882 0.30124396 0.15259671
v 0.30760974 0.29482138 0.14570822
v 0.34126204 0.27184063 0.06768087
v 0.34054533 0.27291107 0.06768087
v 0.33790657 0.27662411 0.06768087
v 0.33002287 0.11030632 0.24005212
v 0.33920968 0.08501744 0.22884640
v 0.33585420 0.07501563 0.23497304
v 0.33950287 0.07501563 0.22929083
v 0.33966574 0.06896102 0.22951303
v 0.34266287 0.07501563 0.22427523
v 0.33227071 0.11418661 0.23548095
v 0.33201009 0.12502471 0.23313187
v 0.34279317 0.06896102 0.22449744
v 0.30360276 0.29575801 0.15554893
v 0.28773761 0.30525807 0.17589700
v 0.31718746 0.11502289 0.25633693
v 0.32103157 0.11502289 0.25135309
v 0.31008559 0.06896102 0.27011392
v 0.32288846 0.06896102 0.25382912
v 0.32275817 0.07501563 0.25370213
v 0.32239980 0.08501744 0.25322598
v 0.32666743 0.10502107 0.24535342
v 0.07188079 0.31709969 0.30017573
v 0.07500821 0.32439196 0.29379514
v 0.07188079 0.31867188 0.29890597
v 0.07188079 0.32947651 0.28950965
v 0.07188079 0.32790431 0.29093814
v 0.07188079 0.32271942 0.29547757
v 0.33060926 0.09501927 0.24087748
v 0.33132598 0.07501563 0.24189329
v 0.33614740 0.06896102 0.23497304
v 0.32787278 0.06896102 0.24706760
v 0.32777506 0.07501563 0.24690887
v 0.32705835 0.09501927 0.24586132
v 0.33145627 0.06896102 0.24208376
f 1 2 6
f 1 6 26
f 1 26 55
f 1 55 92
f 1 92 129
f 1 129 176
f 1 176 179
f 1 179 178
f 1 178 242
f 1 242 313
f 1 313 404
f 1 404 403
f 1 403 506
f 1 506 618
f 1 618 743
f 1 743 888
f 1 888 1058
f 1 1058 1057
f 1 1057 1226
f 1 1226 1225
f 1 1225 1358
f 1 1358 1450
f 1 1450 1446
f 1 1446 1468
f 1 1468 1472
f 1 1472 1469
f 1 1469 1456
f 1 1456 1402
f 1 1402 1455
f 1 1455 1400
f 1 1400 1399
f 1 1399 1294
f 1 1294 1398
f 1 1398 1397
f 1 1397 1292
f 1 1292 1291
f 1 1291 1290
f 1 1290 1287
f 1 1287 1122
f 1 1122 1112
f 1 1112 931
f 1 931 930
f 1 930 774
f 1 774 773
f 1 773 654
f 1 654 528
f 1 528 527
f 1 527 526
f 1 526 525
f 1 525 524
f 1 524 421
f 1 421 336
f 1 336 335
f 1 335 334
f 1 334 333
f 1 333 268
f 1 268 267
f 1 267 257
f 1 257 189
f 1 189 143
f 1 143 141
f 1 141 140
f 1 140 108
f 1 108 68
f 1 68 67
f 1 67 62
f 1 62 61
f 1 61 60
f 1 60 34
f 1 34 30
f 1 30 7
f 1 7 3
f 1 3 9
f 1 9 35
f 1 35 66
f 1 66 65
f 1 65 106
f 1 106 151
f 1 151 203
f 1 203 279
f 1 279 354
f 1 354 450
f 1 450 562
f 1 562 688
f 1 688 825
f 1 825 995
f 1 995 1181
f 1 1181 1323
f 1 1323 1416
f 1 1416 1415
f 1 1415 1460
f 1 1460 1462
f 1 1462 1465
f 1 1465 1464
f 1 1464 1463
f 1 1463 1424
f 1 1424 1423
f 1 1423 1422
f 1 1422 1421
f 1 1421 1420
f 1 1420 1327
f 1 1327 1183
f 1 1183 999
f 1 999 998
f 1 998 829
f 1 829 695
f 1 695 694
f 1 694 692
f 1 692 566
f 1 566 457
f 1 457 360
f 1 360 283
f 1 283 213
f 1 213 212
f 1 212 211
f 1 211 210
f 1 210 209
f 1 209 208
f 1 208 207
f 1 207 155
f 1 155 153
f 1 153 109
f 1 109 74
f 1 74 73
f 1 73 71
f 1 71 36
f 1 36 10
f 1 10 4
f 1 4 25
f 1 25 54
f 1 54 91
f 1 91 128
f 1 128 175
f 1 175 239
f 1 239 309
f 1 309 398
f 1 398 399
f 1 399 503
f 1 503 502
f 1 502 501
f 1 501 606
f 1 606 607
f 1 607 614
f 1 614 615
f 1 615 739
f 1 739 883
f 1 883 882
f 1 882 1043
f 1 1043 1209
f 1 1209 1208
f 1 1208 1207
f 1 1207 1206
f 1 1206 1205
f 1 1205 1204
f 1 1204 1054
f 1 1054 1053
f 1 1053 1219
f 1 1219 1351
f 1 1351 1441
f 1 1441 1440
f 1 1440 1439
f 1 1439 1360
f 1 1360 1229
f 1 1229 1066
f 1 1066 1065
f 1 1065 1064
f 1 1064 1063
f 1 1063 892
f 1 892 748
f 1 748 747
f 1 747 626
f 1 626 625
f 1 625 631
f 1 631 630
f 1 630 629
f 1 629 624
f 1 624 510
f 1 510 407
f 1 407 317
f 1 317 248
f 1 248 247
f 1 247 246
f 1 246 184
f 1 184 136
f 1 136 135
f 1 135 97
f 1 97 95
f 1 95 58
f 1 58 57
f 1 57 27
f 1 27 5
f 1 5 2
f 2 5 6
f 3 7 8
f 3 8 9
f 4 10 11
f 4 11 12
f 4 12 13
f 4 13 14
f 4 14 15
f 4 15 16
f 4 16 17
f 4 17 18
f 4 18 19
f 4 19 20
f 4 20 21
f 4 21 22
f 4 22 23
f 4 23 24
f 4 24 25
f 5 26 6
f 5 27 28
f 5 28 29
f 5 29 26
f 7 30 8
f 8 31 32
f 8 32 33
f 8 33 9
f 8 30 34
f 8 34 31
f 9 33 35
f 10 36 37
f 10 37 11
f 11 37 12
f 12 37 38
f 12 38 39
f 12 39 13
f 13 39 14
f 14 39 40
f 14 40 41
f 14 41 15
f 15 41 42
f 15 42 43
f 15 43 44
f 15 44 16
f 16 44 17
f 17 44 18
f 18 44 45
f 18 45 46
f 18 46 20
f 18 20 19
f 20 46 47
f 20 47 48
f 20 48 49
f 20 49 21
f 21 49 50
f 21 50 51
f 21 51 22
f 22 51 23
f 23 52 53
f 23 53 24
f 23 51 52
f 24 53 54
f 24 54 25
f 26 29 56
f 26 56 55
f 27 57 28
f 28 56 29
f 28 57 58
f 28 58 59
f 28 59 56
f 31 34 32
f 32 34 60
f 32 60 61
f 32 61 62
f 32 62 33
f 33 63 64
f 33 64 65
f 33 65 66
f 33 66 35
f 33 62 67
f 33 67 68
f 33 68 69
f 33 69 70
f 33 70 63
f 36 71 37
f 37 71 38
f 38 72 39
f 38 71 73
f 38 73 74
f 38 74 72
f 39 72 75
f 39 75 40
f 40 75 76
f 40 76 77
f 40 77 41
f 41 77 42
f 42 78 43
f 42 77 79
f 42 79 80
f 42 80 78
f 43 78 44
f 44 81 45
f 44 78 81
f 45 81 82
f 45 82 46
f 46 82 47
f 47 83 84
f 47 84 85
f 47 85 48
f 47 82 83
f 48 85 86
f 48 86 87
f 48 87 50
f 48 50 49
f 50 87 88
f 50 88 51
f 51 88 52
f 52 88 89
f 52 89 90
f 52 90 53
f 53 90 91
f 53 91 54
f 55 56 93
f 55 93 92
f 56 59 94
f 56 94 93
f 58 95 59
f 59 96 94
f 59 95 97
f 59 97 98
f 59 98 96
f 63 70 99
f 63 99 64
f 64 100 101
f 64 101 102
f 64 102 103
f 64 103 104
f 64 104 105
f 64 105 106
f 64 106 65
f 64 99 107
f 64 107 100
f 68 108 69
f 69 108 70
f 70 108 99
f 72 74 109
f 72 109 110
f 72 110 111
f 72 111 75
f 75 111 112
f 75 112 76
f 76 112 113
f 76 113 114
f 76 114 77
f 77 114 79
f 78 80 115
f 78 115 81
f 79 114 161
f 79 161 116
f 79 116 80
f 80 116 117
f 80 117 118
f 80 118 115
f 81 115 119
f 81 119 82
f 82 119 83
f 83 118 84
f 83 119 118
f 84 118 120
f 84 120 121
f 84 121 122
f 84 122 85
f 85 122 86
f 86 122 123
f 86 123 124
f 86 124 87
f 87 124 125
f 87 125 88
f 88 125 89
f 89 126 127
f 89 127 90
f 89 125 126
f 90 127 91
f 91 127 128
f 92 93 129
f 93 94 130
f 93 130 129
f 94 131 130
f 94 96 131
f 96 132 133
f 96 133 131
f 96 98 134
f 96 134 132
f 97 135 98
f 98 135 136
f 98 136 137
f 98 137 138
f 98 138 139
f 98 139 134
f 99 108 140
f 99 140 141
f 99 141 142
f 99 142 143
f 99 143 144
f 99 144 145
f 99 145 146
f 99 146 147
f 99 147 107
f 100 147 101
f 100 107 147
f 101 147 102
f 102 147 148
f 102 148 149
f 102 149 103
f 103 149 150
f 103 150 104
f 104 151 105
f 104 150 152
f 104 152 151
f 105 151 106
f 109 153 110
f 110 154 111
f 110 153 155
f 110 155 154
f 111 154 156
f 111 156 112
f 112 156 157
f 112 157 113
f 113 157 158
f 113 158 159
f 113 159 114
f 114 159 160
f 114 160 161
f 115 118 119
f 116 161 160
f 116 160 162
f 116 162 163
f 116 163 164
f 116 164 165
f 116 165 117
f 117 165 166
f 117 166 167
f 117 167 120
f 117 120 118
f 120 167 121
f 121 167 168
f 121 168 169
f 121 169 122
f 122 169 123
f 123 169 170
f 123 170 171
f 123 171 124
f 124 171 172
f 124 172 125
f 125 172 126
f 126 172 173
f 126 173 174
f 126 174 127
f 127 174 175
f 127 175 128
f 129 130 176
f 130 177 178
f 130 178 179
f 130 179 176
f 130 131 133
f 130 133 180
f 130 180 177
f 132 181 133
f 132 134 182
f 132 182 183
f 132 183 181
f 133 181 180
f 134 139 182
f 136 184 137
f 137 184 185
f 137 185 138
f 138 185 139
f 139 186 183
f 139 183 182
f 139 185 187
f 139 187 188
f 139 188 186
f 141 143 142
f 143 189 190
f 143 190 144
f 144 190 145
f 145 190 146
f 146 191 192
f 146 192 147
f 146 190 193
f 146 193 194
f 146 194 191
f 147 192 148
f 148 195 196
f 148 196 197
f 148 197 149
f 148 192 195
f 149 197 198
f 149 198 199
f 149 199 200
f 149 200 150
f 150 200 152
f 151 152 201
f 151 201 202
f 151 202 203
f 152 204 205
f 152 205 206
f 152 206 201
f 152 200 204
f 154 155 207
f 154 207 208
f 154 208 209
f 154 209 156
f 156 209 210
f 156 210 211
f 156 211 157
f 157 211 212
f 157 212 213
f 157 213 214
f 157 214 215
f 157 215 158
f 158 216 159
f 158 215 217
f 158 217 216
f 159 216 218
f 159 218 160
f 160 218 162
f 162 219 164
f 162 164 163
f 162 218 220
f 162 220 221
f 162 221 222
f 162 222 223
f 162 223 224
f 162 224 225
f 162 225 219
f 164 219 165
f 165 219 226
f 165 226 227
f 165 227 166
f 166 227 228
f 166 228 167
f 167 228 229
f 167 229 230
f 167 230 168
f 168 230 231
f 168 231 232
f 168 232 169
f 169 232 233
f 169 233 170
f 170 234 235
f 170 235 171
f 170 233 236
f 170 236 234
f 171 235 172
f 172 235 173
f 173 235 237
f 173 237 174
f 174 237 238
f 174 238 239
f 174 239 175
f 177 240 178
f 177 180 241
f 177 241 240
f 178 240 242
f 180 181 243
f 180 243 241
f 181 183 244
f 181 244 245
f 181 245 243
f 183 186 244
f 184 246 185
f 185 246 247
f 185 247 248
f 185 248 249
f 185 249 250
f 185 250 187
f 186 251 252
f 186 252 244
f 186 188 251
f 187 250 253
f 187 253 254
f 187 254 188
f 188 255 256
f 188 256 251
f 188 254 255
f 189 257 193
f 189 193 190
f 191 258 192
f 191 194 259
f 191 259 260
f 191 260 261
f 191 261 258
f 192 258 262
f 192 262 263
f 192 263 264
f 192 264 265
f 192 265 266
f 192 266 195
f 193 257 267
f 193 267 194
f 194 267 268
f 194 268 259
f 195 266 196
f 196 266 269
f 196 269 270
f 196 270 271
f 196 271 272
f 196 272 198
f 196 198 197
f 198 272 271
f 198 271 273
f 198 273 274
f 198 274 199
f 199 274 275
f 199 275 204
f 199 204 276
f 199 276 200
f 200 276 204
f 201 206 277
f 201 277 278
f 201 278 202
f 202 278 279
f 202 279 203
f 204 280 205
f 204 275 281
f 204 281 280
f 205 280 282
f 205 282 277
f 205 277 206
f 213 283 284
f 213 284 214
f 214 284 285
f 214 285 215
f 215 285 217
f 216 217 218
f 217 285 286
f 217 286 287
f 217 287 220
f 217 220 218
f 219 288 226
f 219 225 224
f 219 224 289
f 219 289 290
f 219 290 288
f 220 287 221
f 221 287 222
f 222 287 291
f 222 291 292
f 222 292 293
f 222 293 294
f 222 294 223
f 223 294 295
f 223 295 224
f 224 295 289
f 226 288 227
f 227 288 296
f 227 296 297
f 227 297 228
f 228 297 298
f 228 298 229
f 229 231 230
f 229 298 299
f 229 299 300
f 229 300 301
f 229 301 231
f 231 301 302
f 231 302 232
f 232 302 236
f 232 236 233
f 234 236 303
f 234 303 304
f 234 304 305
f 234 305 235
f 235 305 237
f 236 302 303
f 237 305 306
f 237 306 307
f 237 307 308
f 237 308 238
f 238 309 239
f 238 308 310
f 238 310 309
f 240 311 312
f 240 312 313
f 240 313 242
f 240 241 311
f 241 243 314
f 241 314 311
f 243 245 314
f 244 252 251
f 244 251 256
f 244 256 315
f 244 315 245
f 245 315 316
f 245 316 314
f 248 317 318
f 248 318 249
f 249 318 319
f 249 319 320
f 249 320 250
f 250 320 253
f 253 320 321
f 253 321 322
f 253 322 254
f 254 322 323
f 254 323 324
f 254 324 325
f 254 325 255
f 255 326 256
f 255 325 324
f 255 324 327
f 255 327 326
f 256 328 329
f 256 329 315
f 256 326 328
f 258 330 331
f 258 331 262
f 258 261 332
f 258 332 330
f 259 268 260
f 260 268 333
f 260 333 334
f 260 334 335
f 260 335 336
f 260 336 261
f 261 336 332
f 262 331 337
f 262 337 263
f 263 337 338
f 263 338 264
f 264 338 339
f 264 339 340
f 264 340 265
f 265 340 341
f 265 341 342
f 265 342 343
f 265 343 344
f 265 344 270
f 265 270 269
f 265 269 266
f 270 344 343
f 270 343 271
f 271 343 345
f 271 345 273
f 273 345 346
f 273 346 347
f 273 347 274
f 274 281 275
f 274 347 280
f 274 280 281
f 277 282 348
f 277 348 349
f 277 349 350
f 277 350 278
f 278 350 351
f 278 351 352
f 278 352 279
f 279 352 351
f 279 351 353
f 279 353 354
f 280 355 282
f 280 347 356
f 280 356 355
f 282 355 348
f 283 357 358
f 283 358 359
f 283 359 284
f 283 360 357
f 284 359 285
f 285 359 361
f 285 361 286
f 286 361 362
f 286 362 287
f 287 362 363
f 287 363 291
f 288 290 364
f 288 364 365
f 288 365 297
f 288 297 296
f 289 295 366
f 289 366 367
f 289 367 368
f 289 368 364
f 289 364 290
f 291 363 369
f 291 369 292
f 292 369 370
f 292 370 371
f 292 371 293
f 293 371 372
f 293 372 373
f 293 373 374
f 293 374 294
f 294 374 375
f 294 375 295
f 295 375 376
f 295 376 366
f 297 365 377
f 297 377 299
f 297 299 298
f 299 377 300
f 300 377 378
f 300 378 379
f 300 379 380
f 300 380 381
f 300 381 382
f 300 382 301
f 301 382 383
f 301 383 302
f 302 383 303
f 303 383 384
f 303 384 385
f 303 385 386
f 303 386 304
f 304 386 387
f 304 387 305
f 305 387 306
f 306 388 389
f 306 389 307
f 306 387 390
f 306 390 391
f 306 391 392
f 306 392 393
f 306 393 394
f 306 394 395
f 306 395 396
f 306 396 388
f 307 389 397
f 307 397 308
f 308 397 310
f 309 310 398
f 310 397 399
f 310 399 398
f 311 400 312
f 311 314 401
f 311 401 400
f 312 402 403
f 312 403 404
f 312 404 313
f 312 400 402
f 314 316 405
f 314 405 401
f 315 329 316
f 316 329 406
f 316 406 405
f 317 407 318
f 318 407 408
f 318 408 319
f 319 408 409
f 319 409 320
f 320 409 321
f 321 409 322
f 322 410 323
f 322 409 410
f 323 410 411
f 323 411 324
f 324 412 413
f 324 413 414
f 324 414 415
f 324 415 416
f 324 416 327
f 324 411 412
f 326 416 328
f 326 327 416
f 328 417 406
f 328 406 329
f 328 416 418
f 328 418 417
f 330 332 419
f 330 419 331
f 331 419 420
f 331 420 337
f 332 336 421
f 332 421 422
f 332 422 423
f 332 423 424
f 332 424 419
f 337 425 426
f 337 426 427
f 337 427 338
f 337 420 428
f 337 428 425
f 338 427 429
f 338 429 339
f 339 430 431
f 339 431 340
f 339 429 430
f 340 431 341
f 341 431 432
f 341 432 433
f 341 433 342
f 342 434 343
f 342 433 432
f 342 432 435
f 342 435 434
f 343 434 345
f 345 434 436
f 345 436 437
f 345 437 438
f 345 438 346
f 346 438 356
f 346 356 347
f 348 439 440
f 348 440 441
f 348 441 442
f 348 442 443
f 348 443 444
f 348 444 445
f 348 445 446
f 348 446 349
f 348 355 439
f 349 446 350
f 350 446 351
f 351 446 447
f 351 447 448
f 351 448 353
f 353 448 449
f 353 449 354
f 354 449 450
f 355 451 439
f 355 356 452
f 355 452 451
f 356 438 452
f 357 453 358
f 357 360 454
f 357 454 453
f 358 453 455
f 358 455 456
f 358 456 361
f 358 361 359
f 360 457 454
f 361 456 362
f 362 456 458
f 362 458 363
f 363 458 369
f 364 377 365
f 364 368 459
f 364 459 460
f 364 460 377
f 366 376 367
f 367 376 461
f 367 461 462
f 367 462 368
f 368 462 459
f 369 458 463
f 369 463 370
f 370 463 464
f 370 464 465
f 370 465 371
f 371 465 466
f 371 466 372
f 372 466 467
f 372 467 373
f 373 467 468
f 373 468 469
f 373 469 470
f 373 470 374
f 374 470 471
f 374 471 375
f 375 471 472
f 375 472 376
f 376 472 461
f 377 460 378
f 378 460 473
f 378 473 474
f 378 474 475
f 378 475 476
f 378 476 379
f 379 476 477
f 379 477 478
f 379 478 479
f 379 479 380
f 380 479 381
f 381 480 481
f 381 481 482
f 381 482 382
f 381 479 483
f 381 483 480
f 382 484 383
f 382 482 485
f 382 485 484
f 383 484 384
f 384 485 486
f 384 486 487
f 384 487 488
f 384 488 489
f 384 489 490
f 384 490 491
f 384 491 385
f 384 484 485
f 385 491 386
f 386 491 492
f 386 492 390
f 386 390 387
f 388 397 389
f 388 396 493
f 388 493 397
f 390 492 494
f 390 494 391
f 391 495 392
f 391 494 495
f 392 495 394
f 392 394 393
f 394 495 496
f 394 496 497
f 394 497 395
f 395 497 498
f 395 498 499
f 395 499 396
f 396 499 500
f 396 500 493
f 397 493 501
f 397 501 502
f 397 502 503
f 397 503 399
f 400 401 504
f 400 504 403
f 400 403 402
f 401 505 504
f 401 405 505
f 403 504 507
f 403 507 506
f 405 406 508
f 405 508 509
f 405 509 505
f 406 417 508
f 407 510 511
f 407 511 408
f 408 511 512
f 408 512 411
f 408 411 409
f 409 411 410
f 411 512 513
f 411 513 413
f 411 413 412
f 413 513 514
f 413 514 515
f 413 515 516
f 413 516 517
f 413 517 518
f 413 518 414
f 414 518 418
f 414 418 416
f 414 416 415
f 417 418 519
f 417 519 508
f 418 518 520
f 418 520 519
f 419 424 521
f 419 521 522
f 419 522 420
f 420 522 523
f 420 523 428
f 421 524 423
f 421 423 422
f 423 524 525
f 423 525 526
f 423 526 527
f 423 527 424
f 424 527 528
f 424 528 521
f 425 529 530
f 425 530 426
f 425 428 531
f 425 531 529
f 426 532 533
f 426 533 427
f 426 530 532
f 427 533 429
f 428 534 535
f 428 535 531
f 428 523 536
f 428 536 534
f 429 533 537
f 429 537 538
f 429 538 539
f 429 539 540
f 429 540 430
f 430 540 539
f 430 539 541
f 430 541 542
f 430 542 543
f 430 543 544
f 430 544 432
f 430 432 431
f 432 544 435
f 434 435 545
f 434 545 546
f 434 546 547
f 434 547 548
f 434 548 436
f 435 544 549
f 435 549 550
f 435 550 546
f 435 546 545
f 436 551 438
f 436 438 437
f 436 548 552
f 436 552 551
f 438 551 552
f 438 552 553
f 438 553 554
f 438 554 452
f 439 451 555
f 439 555 440
f 440 555 441
f 441 556 442
f 441 555 556
f 442 556 443
f 443 557 558
f 443 558 559
f 443 559 444
f 443 556 557
f 444 559 445
f 445 559 446
f 446 559 560
f 446 560 447
f 447 560 561
f 447 561 448
f 448 561 449
f 449 562 563
f 449 563 450
f 449 561 564
f 449 564 565
f 449 565 562
f 450 563 562
f 451 452 553
f 451 553 555
f 452 554 553
f 453 454 455
f 454 457 566
f 454 566 567
f 454 567 568
f 454 568 569
f 454 569 455
f 455 570 456
f 455 569 571
f 455 571 570
f 456 570 458
f 458 570 463
f 459 572 460
f 459 462 573
f 459 573 572
f 460 572 473
f 461 472 574
f 461 574 575
f 461 575 462
f 462 575 573
f 463 570 576
f 463 576 577
f 463 577 464
f 464 577 578
f 464 578 579
f 464 579 580
f 464 580 465
f 465 580 581
f 465 581 466
f 466 581 467
f 467 581 582
f 467 582 583
f 467 583 584
f 467 584 468
f 468 584 585
f 468 585 586
f 468 586 469
f 469 586 470
f 470 586 587
f 470 587 588
f 470 588 589
f 470 589 471
f 471 589 590
f 471 590 472
f 472 590 574
f 473 572 573
f 473 573 474
f 474 573 591
f 474 591 475
f 475 591 592
f 475 592 476
f 476 592 593
f 476 593 594
f 476 594 477
f 477 594 479
f 477 479 478
f 479 594 593
f 479 593 595
f 479 595 596
f 479 596 597
f 479 597 483
f 480 486 485
f 480 485 481
f 480 483 598
f 480 598 486
f 481 485 482
f 483 597 599
f 483 599 598
f 486 598 487
f 487 598 599
f 487 599 600
f 487 600 488
f 488 601 489
f 488 600 602
f 488 602 603
f 488 603 604
f 488 604 605
f 488 605 601
f 489 601 494
f 489 494 490
f 490 494 491
f 491 494 492
f 493 606 501
f 493 500 607
f 493 607 606
f 494 601 495
f 495 608 496
f 495 601 608
f 496 609 610
f 496 610 611
f 496 611 497
f 496 608 601
f 496 601 612
f 496 612 604
f 496 604 609
f 497 611 498
f 498 611 613
f 498 613 500
f 498 500 499
f 500 614 607
f 500 613 615
f 500 615 614
f 504 505 616
f 504 616 617
f 504 617 618
f 504 618 507
f 505 509 616
f 506 507 618
f 508 619 620
f 508 620 621
f 508 621 622
f 508 622 509
f 508 519 623
f 508 623 619
f 509 622 616
f 510 624 511
f 511 624 512
f 512 625 626
f 512 626 627
f 512 627 628
f 512 628 513
f 512 624 629
f 512 629 630
f 512 630 631
f 512 631 625
f 513 628 632
f 513 632 633
f 513 633 514
f 514 633 634
f 514 634 635
f 514 635 636
f 514 636 637
f 514 637 638
f 514 638 639
f 514 639 640
f 514 640 641
f 514 641 642
f 514 642 643
f 514 643 644
f 514 644 515
f 515 644 643
f 515 643 516
f 516 643 645
f 516 645 646
f 516 646 647
f 516 647 520
f 516 520 517
f 517 520 518
f 519 520 623
f 520 648 649
f 520 649 623
f 520 647 650
f 520 650 651
f 520 651 648
f 521 652 653
f 521 653 522
f 521 528 654
f 521 654 652
f 522 653 523
f 523 653 536
f 529 655 530
f 529 531 655
f 530 655 656
f 530 656 532
f 531 535 534
f 531 534 657
f 531 657 658
f 531 658 659
f 531 659 655
f 532 656 533
f 533 656 537
f 534 658 657
f 534 536 660
f 534 660 661
f 534 661 662
f 534 662 663
f 534 663 658
f 536 653 664
f 536 664 660
f 537 656 665
f 537 665 538
f 538 666 667
f 538 667 539
f 538 665 668
f 538 668 666
f 539 667 541
f 541 667 542
f 542 667 669
f 542 669 670
f 542 670 671
f 542 671 672
f 542 672 543
f 543 672 673
f 543 673 550
f 543 550 549
f 543 549 544
f 546 550 673
f 546 673 674
f 546 674 675
f 546 675 676
f 546 676 677
f 546 677 548
f 546 548 547
f 548 678 552
f 548 677 678
f 552 678 553
f 553 678 679
f 553 679 555
f 555 679 680
f 555 680 557
f 555 557 556
f 557 680 681
f 557 681 558
f 558 682 560
f 558 560 559
f 558 681 683
f 558 683 684
f 558 684 685
f 558 685 682
f 560 682 561
f 561 682 686
f 561 686 687
f 561 687 564
f 562 565 688
f 564 687 689
f 564 689 565
f 565 689 690
f 565 690 691
f 565 691 688
f 566 692 567
f 567 692 568
f 568 693 571
f 568 571 569
f 568 692 694
f 568 694 695
f 568 695 696
f 568 696 697
f 568 697 693
f 570 571 576
f 571 693 698
f 571 698 576
f 573 575 699
f 573 699 700
f 573 700 591
f 574 590 701
f 574 701 575
f 575 701 702
f 575 702 699
f 576 698 577
f 577 698 578
f 578 698 833
f 578 833 703
f 578 703 579
f 579 703 704
f 579 704 705
f 579 705 706
f 579 706 582
f 579 582 580
f 580 582 581
f 582 706 707
f 582 707 583
f 583 707 584
f 584 708 585
f 584 707 709
f 584 709 710
f 584 710 708
f 585 708 711
f 585 711 586
f 586 712 713
f 586 713 587
f 586 711 712
f 587 713 588
f 588 713 714
f 588 714 715
f 588 715 716
f 588 716 589
f 589 716 590
f 590 716 701
f 591 700 717
f 591 717 592
f 592 717 718
f 592 718 719
f 592 719 593
f 593 719 720
f 593 720 595
f 595 720 721
f 595 721 596
f 596 721 722
f 596 722 723
f 596 723 724
f 596 724 725
f 596 725 726
f 596 726 597
f 597 726 599
f 599 726 727
f 599 727 728
f 599 728 602
f 599 602 600
f 601 605 604
f 601 604 612
f 602 728 603
f 603 728 604
f 604 729 730
f 604 730 731
f 604 731 732
f 604 732 609
f 604 728 733
f 604 733 729
f 609 732 734
f 609 734 735
f 609 735 736
f 609 736 737
f 609 737 738
f 609 738 610
f 610 738 737
f 610 737 611
f 611 737 739
f 611 739 615
f 611 615 613
f 616 622 740
f 616 740 617
f 617 740 741
f 617 741 742
f 617 742 888
f 617 888 743
f 617 743 618
f 619 744 620
f 619 623 744
f 620 744 745
f 620 745 746
f 620 746 740
f 620 740 621
f 621 740 622
f 623 649 744
f 626 747 627
f 627 632 628
f 627 747 748
f 627 748 749
f 627 749 750
f 627 750 632
f 632 750 751
f 632 751 633
f 633 751 634
f 634 751 752
f 634 752 753
f 634 753 635
f 635 754 636
f 635 753 754
f 636 755 756
f 636 756 757
f 636 757 758
f 636 758 759
f 636 759 760
f 636 760 761
f 636 761 762
f 636 762 763
f 636 763 764
f 636 764 637
f 636 754 753
f 636 753 755
f 637 764 765
f 637 765 638
f 638 765 639
f 639 765 640
f 640 765 766
f 640 766 641
f 641 766 767
f 641 767 768
f 641 768 642
f 642 768 645
f 642 645 643
f 645 768 646
f 646 769 650
f 646 650 647
f 646 768 767
f 646 767 769
f 648 770 745
f 648 745 649
f 648 651 770
f 649 745 744
f 650 769 771
f 650 771 772
f 650 772 770
f 650 770 651
f 652 654 773
f 652 773 774
f 652 774 775
f 652 775 653
f 653 775 776
f 653 776 664
f 655 659 777
f 655 777 656
f 656 777 778
f 656 778 665
f 658 779 780
f 658 780 659
f 658 663 781
f 658 781 779
f 659 780 777
f 660 664 782
f 660 782 661
f 661 782 783
f 661 783 662
f 662 783 784
f 662 784 785
f 662 785 786
f 662 786 787
f 662 787 663
f 663 787 781
f 664 776 782
f 665 778 668
f 666 788 669
f 666 669 667
f 666 668 789
f 666 789 788
f 668 778 790
f 668 790 791
f 668 791 792
f 668 792 793
f 668 793 789
f 669 794 795
f 669 795 670
f 669 788 794
f 670 795 671
f 671 795 796
f 671 796 797
f 671 797 798
f 671 798 672
f 672 798 673
f 673 798 674
f 674 798 675
f 675 798 797
f 675 797 799
f 675 799 800
f 675 800 676
f 676 800 801
f 676 801 677
f 677 801 678
f 678 801 802
f 678 802 803
f 678 803 804
f 678 804 805
f 678 805 806
f 678 806 679
f 679 806 680
f 680 807 808
f 680 808 809
f 680 809 683
f 680 683 681
f 680 806 810
f 680 810 811
f 680 811 812
f 680 812 813
f 680 813 814
f 680 814 807
f 682 685 815
f 682 815 686
f 683 809 808
f 683 808 816
f 683 816 817
f 683 817 684
f 684 818 815
f 684 815 685
f 684 817 819
f 684 819 820
f 684 820 818
f 686 815 821
f 686 821 687
f 687 821 822
f 687 822 823
f 687 823 689
f 688 691 690
f 688 690 824
f 688 824 825
f 689 823 826
f 689 826 690
f 690 826 824
f 693 827 698
f 693 697 828
f 693 828 827
f 695 829 696
f 696 829 830
f 696 830 697
f 697 830 831
f 697 831 828
f 698 827 832
f 698 832 833
f 699 702 834
f 699 834 700
f 700 834 717
f 701 716 835
f 701 835 702
f 702 835 836
f 702 836 837
f 702 837 834
f 703 833 838
f 703 838 704
f 704 838 839
f 704 839 840
f 704 840 841
f 704 841 705
f 705 841 842
f 705 842 843
f 705 843 844
f 705 844 706
f 706 844 845
f 706 845 709
f 706 709 707
f 708 710 711
f 709 845 710
f 710 846 847
f 710 847 711
f 710 845 846
f 711 847 848
f 711 848 849
f 711 849 712
f 712 849 713
f 713 850 851
f 713 851 714
f 713 849 852
f 713 852 850
f 714 851 853
f 714 853 715
f 715 854 836
f 715 836 835
f 715 835 716
f 715 853 855
f 715 855 854
f 717 834 856
f 717 856 718
f 718 856 857
f 718 857 858
f 718 858 720
f 718 720 719
f 720 859 860
f 720 860 721
f 720 858 861
f 720 861 859
f 721 860 859
f 721 859 862
f 721 862 722
f 722 862 863
f 722 863 723
f 723 863 864
f 723 864 865
f 723 865 724
f 724 733 866
f 724 866 728
f 724 728 867
f 724 867 725
f 724 865 864
f 724 864 868
f 724 868 869
f 724 869 870
f 724 870 871
f 724 871 729
f 724 729 733
f 725 867 726
f 726 867 728
f 726 728 727
f 728 866 733
f 729 872 873
f 729 873 874
f 729 874 731
f 729 731 730
f 729 871 870
f 729 870 875
f 729 875 876
f 729 876 877
f 729 877 878
f 729 878 879
f 729 879 880
f 729 880 872
f 731 874 881
f 731 881 732
f 732 881 734
f 734 882 883
f 734 883 739
f 734 739 735
f 734 881 882
f 735 884 736
f 735 739 884
f 736 884 885
f 736 885 737
f 737 885 739
f 739 885 884
f 740 886 741
f 740 746 886
f 741 886 887
f 741 887 742
f 742 887 888
f 745 889 746
f 745 770 889
f 746 889 890
f 746 890 891
f 746 891 886
f 748 892 749
f 749 892 893
f 749 893 750
f 750 893 894
f 750 894 751
f 751 894 752
f 752 894 895
f 752 895 896
f 752 896 897
f 752 897 898
f 752 898 753
f 753 898 899
f 753 899 900
f 753 900 901
f 753 901 902
f 753 902 903
f 753 903 904
f 753 904 755
f 755 904 756
f 756 904 905
f 756 905 906
f 756 906 758
f 756 758 757
f 758 907 760
f 758 760 759
f 758 906 905
f 758 905 908
f 758 908 909
f 758 909 907
f 760 907 910
f 760 910 911
f 760 911 912
f 760 912 913
f 760 913 914
f 760 914 915
f 760 915 761
f 761 916 763
f 761 763 762
f 761 915 917
f 761 917 916
f 763 916 918
f 763 918 764
f 764 918 765
f 765 919 917
f 765 917 920
f 765 920 921
f 765 921 922
f 765 922 767
f 765 767 766
f 765 918 916
f 765 916 919
f 767 922 923
f 767 923 924
f 767 924 925
f 767 925 926
f 767 926 927
f 767 927 771
f 767 771 769
f 770 928 890
f 770 890 889
f 770 772 928
f 771 927 772
f 772 927 929
f 772 929 928
f 774 930 776
f 774 776 775
f 776 930 931
f 776 931 932
f 776 932 784
f 776 784 782
f 777 780 933
f 777 933 778
f 778 933 790
f 779 781 934
f 779 934 780
f 780 935 936
f 780 936 937
f 780 937 933
f 780 934 938
f 780 938 935
f 781 939 934
f 781 787 939
f 782 784 783
f 784 932 940
f 784 940 941
f 784 941 942
f 784 942 786
f 784 786 785
f 786 942 943
f 786 943 944
f 786 944 945
f 786 945 787
f 787 945 946
f 787 946 939
f 788 947 794
f 788 789 948
f 788 948 947
f 789 793 948
f 790 933 949
f 790 949 791
f 791 950 792
f 791 949 950
f 792 950 951
f 792 951 948
f 792 948 793
f 794 952 953
f 794 953 954
f 794 954 955
f 794 955 956
f 794 956 957
f 794 957 958
f 794 958 959
f 794 959 960
f 794 960 961
f 794 961 795
f 794 947 952
f 795 961 962
f 795 962 796
f 796 962 799
f 796 799 797
f 799 962 963
f 799 963 964
f 799 964 800
f 800 964 803
f 800 803 801
f 801 803 802
f 803 964 965
f 803 965 804
f 804 965 805
f 805 810 806
f 805 965 966
f 805 966 967
f 805 967 968
f 805 968 969
f 805 969 970
f 805 970 971
f 805 971 972
f 805 972 973
f 805 973 974
f 805 974 975
f 805 975 976
f 805 976 977
f 805 977 978
f 805 978 810
f 807 979 980
f 807 980 808
f 807 814 979
f 808 980 816
f 810 981 811
f 810 978 982
f 810 982 981
f 811 981 812
f 812 983 848
f 812 848 847
f 812 847 813
f 812 981 983
f 813 847 814
f 814 847 984
f 814 984 985
f 814 985 979
f 815 818 986
f 815 986 821
f 816 819 817
f 816 980 987
f 816 987 819
f 818 820 988
f 818 988 989
f 818 989 986
f 819 987 990
f 819 990 820
f 820 990 988
f 821 986 989
f 821 989 822
f 822 991 824
f 822 824 826
f 822 826 823
f 822 989 992
f 822 992 993
f 822 993 991
f 824 994 825
f 824 991 994
f 825 994 995
f 827 828 832
f 828 831 996
f 828 996 997
f 828 997 832
f 829 998 830
f 830 998 999
f 830 999 1000
f 830 1000 996
f 830 996 831
f 832 997 1001
f 832 1001 839
f 832 839 838
f 832 838 833
f 834 1002 855
f 834 855 1003
f 834 1003 856
f 834 837 1002
f 836 854 1004
f 836 1004 1002
f 836 1002 837
f 839 1001 840
f 840 1001 1005
f 840 1005 1006
f 840 1006 1007
f 840 1007 841
f 841 1007 842
f 842 1007 1008
f 842 1008 1009
f 842 1009 1010
f 842 1010 1011
f 842 1011 1012
f 842 1012 844
f 842 844 843
f 844 1012 1013
f 844 1013 846
f 844 846 845
f 846 1013 1192
f 846 1192 1014
f 846 1014 847
f 847 1014 1015
f 847 1015 984
f 848 983 849
f 849 1016 852
f 849 983 1016
f 850 852 1016
f 850 1016 851
f 851 1016 1017
f 851 1017 1018
f 851 1018 1019
f 851 1019 855
f 851 855 853
f 854 855 1004
f 855 1019 1020
f 855 1020 1021
f 855 1021 1022
f 855 1022 982
f 855 982 978
f 855 978 977
f 855 977 1023
f 855 1023 1024
f 855 1024 1025
f 855 1025 1003
f 855 1002 1004
f 856 1003 1024
f 856 1024 1026
f 856 1026 1027
f 856 1027 857
f 857 1028 858
f 857 1027 1028
f 858 1028 861
f 859 861 1029
f 859 1029 862
f 861 1027 1030
f 861 1030 1031
f 861 1031 1032
f 861 1032 1033
f 861 1033 1034
f 861 1034 1029
f 861 1028 1027
f 862 1029 863
f 863 1029 864
f 864 1029 1035
f 864 1035 1036
f 864 1036 869
f 864 869 868
f 869 1036 1037
f 869 1037 1038
f 869 1038 875
f 869 875 870
f 872 880 1039
f 872 1039 1040
f 872 1040 873
f 873 1040 1041
f 873 1041 874
f 874 1041 1042
f 874 1042 1043
f 874 1043 881
f 875 1038 1044
f 875 1044 1045
f 875 1045 1046
f 875 1046 876
f 876 1046 1047
f 876 1047 1048
f 876 1048 878
f 876 878 877
f 878 1048 1049
f 878 1049 879
f 879 1049 1050
f 879 1050 880
f 880 1050 1051
f 880 1051 1052
f 880 1052 1053
f 880 1053 1054
f 880 1054 1039
f 881 1043 882
f 886 1055 1056
f 886 1056 1057
f 886 1057 1058
f 886 1058 887
f 886 891 890
f 886 890 1059
f 886 1059 1060
f 886 1060 1055
f 887 1058 888
f 890 928 929
f 890 929 1061
f 890 1061 1062
f 890 1062 1060
f 890 1060 1059
f 892 1063 893
f 893 1063 1064
f 893 1064 1065
f 893 1065 1066
f 893 1066 1067
f 893 1067 1068
f 893 1068 1069
f 893 1069 1070
f 893 1070 1071
f 893 1071 894
f 894 1071 1072
f 894 1072 1073
f 894 1073 896
f 894 896 895
f 896 1073 1074
f 896 1074 897
f 897 1074 899
f 897 899 898
f 899 1074 1075
f 899 1075 1076
f 899 1076 1077
f 899 1077 901
f 899 901 900
f 901 1077 902
f 902 1077 1078
f 902 1078 1079
f 902 1079 1080
f 902 1080 1081
f 902 1081 1082
f 902 1082 1083
f 902 1083 903
f 903 1083 904
f 904 1083 1084
f 904 1084 905
f 905 1084 1085
f 905 1085 908
f 907 909 910
f 908 1085 910
f 908 910 909
f 910 1086 1087
f 910 1087 911
f 910 1085 1088
f 910 1088 1089
f 910 1089 1090
f 910 1090 1091
f 910 1091 1086
f 911 1087 912
f 912 1092 913
f 912 1087 1093
f 912 1093 1092
f 913 1092 1094
f 913 1094 914
f 914 1094 1095
f 914 1095 1096
f 914 1096 1097
f 914 1097 1098
f 914 1098 1099
f 914 1099 1100
f 914 1100 915
f 915 1100 917
f 916 917 919
f 917 1100 1101
f 917 1101 920
f 920 1101 1102
f 920 1102 1103
f 920 1103 1104
f 920 1104 921
f 921 1104 1103
f 921 1103 1105
f 921 1105 922
f 922 1105 924
f 922 924 923
f 924 1105 1106
f 924 1106 1107
f 924 1107 1108
f 924 1108 1109
f 924 1109 925
f 925 1110 929
f 925 929 926
f 925 1109 1110
f 926 929 927
f 929 1110 1111
f 929 1111 1061
f 931 1112 932
f 932 1112 940
f 933 937 949
f 934 939 1113
f 934 1113 1114
f 934 1114 938
f 935 1115 1116
f 935 1116 936
f 935 938 1117
f 935 1117 1118
f 935 1118 1115
f 936 1116 937
f 937 1116 1119
f 937 1119 949
f 938 1114 1117
f 939 1120 1113
f 939 946 1120
f 940 1112 941
f 941 1121 942
f 941 1112 1122
f 941 1122 1121
f 942 1123 943
f 942 1121 1124
f 942 1124 1123
f 943 1123 1125
f 943 1125 1126
f 943 1126 1127
f 943 1127 945
f 943 945 944
f 945 1127 1128
f 945 1128 946
f 946 1128 1120
f 947 948 952
f 948 951 1129
f 948 1129 953
f 948 953 952
f 949 1119 950
f 950 1130 951
f 950 1119 1131
f 950 1131 1130
f 951 1130 1131
f 951 1131 1132
f 951 1132 1133
f 951 1133 1097
f 951 1097 1096
f 951 1096 1134
f 951 1134 1129
f 953 1129 954
f 954 1129 1134
f 954 1134 1135
f 954 1135 955
f 955 1135 1136
f 955 1136 956
f 956 1136 1137
f 956 1137 957
f 957 1137 958
f 958 1138 1139
f 958 1139 1140
f 958 1140 1141
f 958 1141 1142
f 958 1142 963
f 958 963 959
f 958 1137 1136
f 958 1136 1143
f 958 1143 1138
f 959 963 960
f 960 963 962
f 960 962 961
f 963 1142 1144
f 963 1144 964
f 964 1144 1141
f 964 1141 965
f 965 1141 1145
f 965 1145 1146
f 965 1146 1147
f 965 1147 1148
f 965 1148 1149
f 965 1149 966
f 966 1149 967
f 967 1150 1151
f 967 1151 968
f 967 1149 1150
f 968 1151 969
f 969 1151 1150
f 969 1150 1152
f 969 1152 1153
f 969 1153 1154
f 969 1154 1155
f 969 1155 1156
f 969 1156 970
f 970 1156 1155
f 970 1155 1157
f 970 1157 1158
f 970 1158 1159
f 970 1159 1160
f 970 1160 971
f 971 1160 972
f 972 1161 1162
f 972 1162 1163
f 972 1163 1164
f 972 1164 1165
f 972 1165 974
f 972 974 973
f 972 1160 1158
f 972 1158 1166
f 972 1166 1161
f 974 1165 1167
f 974 1167 976
f 974 976 975
f 976 1167 1164
f 976 1164 1168
f 976 1168 1169
f 976 1169 1023
f 976 1023 977
f 979 987 980
f 979 985 1170
f 979 1170 987
f 981 982 1021
f 981 1021 1171
f 981 1171 983
f 982 1022 1021
f 983 1171 1017
f 983 1017 1016
f 984 1015 1172
f 984 1172 985
f 985 1172 1170
f 987 1170 990
f 988 990 989
f 989 990 1173
f 989 1173 1174
f 989 1174 992
f 990 1175 1173
f 990 1170 1176
f 990 1176 1175
f 991 1177 1178
f 991 1178 994
f 991 993 1179
f 991 1179 1177
f 992 1180 993
f 992 1174 1180
f 993 1180 1179
f 994 1178 995
f 995 1178 1181
f 996 1001 997
f 996 1000 1182
f 996 1182 1001
f 999 1183 1000
f 1000 1183 1327
f 1000 1327 1184
f 1000 1184 1182
f 1001 1182 1005
f 1003 1025 1024
f 1005 1182 1185
f 1005 1185 1186
f 1005 1186 1006
f 1006 1008 1007
f 1006 1186 1187
f 1006 1187 1008
f 1008 1187 1009
f 1009 1187 1188
f 1009 1188 1189
f 1009 1189 1010
f 1010 1189 1190
f 1010 1190 1191
f 1010 1191 1011
f 1011 1192 1013
f 1011 1013 1012
f 1011 1191 1190
f 1011 1190 1176
f 1011 1176 1193
f 1011 1193 1192
f 1014 1192 1193
f 1014 1193 1015
f 1015 1193 1194
f 1015 1194 1172
f 1017 1171 1021
f 1017 1021 1018
f 1018 1021 1019
f 1019 1021 1020
f 1023 1169 1024
f 1024 1169 1168
f 1024 1168 1195
f 1024 1195 1027
f 1024 1027 1026
f 1027 1195 1168
f 1027 1168 1164
f 1027 1164 1031
f 1027 1031 1030
f 1029 1034 1035
f 1031 1164 1163
f 1031 1163 1196
f 1031 1196 1032
f 1032 1196 1197
f 1032 1197 1033
f 1033 1197 1035
f 1033 1035 1034
f 1035 1197 1196
f 1035 1196 1198
f 1035 1198 1161
f 1035 1161 1199
f 1035 1199 1200
f 1035 1200 1201
f 1035 1201 1036
f 1036 1201 1037
f 1037 1201 1202
f 1037 1202 1203
f 1037 1203 1044
f 1037 1044 1038
f 1039 1054 1204
f 1039 1204 1040
f 1040 1204 1205
f 1040 1205 1041
f 1041 1205 1206
f 1041 1206 1207
f 1041 1207 1208
f 1041 1208 1209
f 1041 1209 1042
f 1042 1209 1043
f 1044 1203 1045
f 1045 1203 1210
f 1045 1210 1046
f 1046 1210 1211
f 1046 1211 1212
f 1046 1212 1047
f 1047 1212 1048
f 1048 1212 1213
f 1048 1213 1214
f 1048 1214 1215
f 1048 1215 1049
f 1049 1215 1216
f 1049 1216 1217
f 1049 1217 1050
f 1050 1217 1218
f 1050 1218 1051
f 1051 1218 1053
f 1051 1053 1052
f 1053 1218 1220
f 1053 1220 1219
f 1055 1221 1222
f 1055 1222 1056
f 1055 1060 1223
f 1055 1223 1221
f 1056 1222 1224
f 1056 1224 1225
f 1056 1225 1226
f 1056 1226 1057
f 1060 1062 1223
f 1061 1111 1227
f 1061 1227 1062
f 1062 1228 1223
f 1062 1227 1228
f 1066 1229 1067
f 1067 1229 1230
f 1067 1230 1068
f 1068 1230 1069
f 1069 1230 1231
f 1069 1231 1232
f 1069 1232 1233
f 1069 1233 1070
f 1070 1233 1071
f 1071 1233 1234
f 1071 1234 1072
f 1072 1234 1235
f 1072 1235 1236
f 1072 1236 1075
f 1072 1075 1073
f 1073 1075 1074
f 1075 1236 1237
f 1075 1237 1076
f 1076 1237 1077
f 1077 1237 1078
f 1078 1237 1238
f 1078 1238 1239
f 1078 1239 1240
f 1078 1240 1241
f 1078 1241 1079
f 1079 1241 1242
f 1079 1242 1080
f 1080 1242 1243
f 1080 1243 1081
f 1081 1244 1245
f 1081 1245 1246
f 1081 1246 1083
f 1081 1083 1082
f 1081 1243 1247
f 1081 1247 1248
f 1081 1248 1244
f 1083 1249 1250
f 1083 1250 1084
f 1083 1246 1249
f 1084 1250 1085
f 1085 1250 1251
f 1085 1251 1252
f 1085 1252 1088
f 1086 1253 1093
f 1086 1093 1087
f 1086 1091 1090
f 1086 1090 1089
f 1086 1089 1254
f 1086 1254 1255
f 1086 1255 1253
f 1088 1252 1089
f 1089 1252 1251
f 1089 1251 1256
f 1089 1256 1257
f 1089 1257 1258
f 1089 1258 1259
f 1089 1259 1260
f 1089 1260 1261
f 1089 1261 1254
f 1092 1093 1262
f 1092 1262 1094
f 1093 1253 1262
f 1094 1262 1263
f 1094 1263 1095
f 1095 1263 1264
f 1095 1264 1096
f 1096 1264 1265
f 1096 1265 1134
f 1097 1133 1098
f 1098 1133 1266
f 1098 1266 1267
f 1098 1267 1268
f 1098 1268 1269
f 1098 1269 1270
f 1098 1270 1271
f 1098 1271 1099
f 1099 1271 1100
f 1100 1271 1101
f 1101 1271 1272
f 1101 1272 1102
f 1102 1272 1103
f 1103 1272 1273
f 1103 1273 1107
f 1103 1107 1106
f 1103 1106 1105
f 1107 1273 1384
f 1107 1384 1274
f 1107 1274 1108
f 1108 1274 1275
f 1108 1275 1276
f 1108 1276 1110
f 1108 1110 1109
f 1110 1276 1277
f 1110 1277 1111
f 1111 1277 1227
f 1113 1120 1114
f 1114 1278 1117
f 1114 1120 1279
f 1114 1279 1278
f 1115 1280 1116
f 1115 1118 1280
f 1116 1280 1281
f 1116 1281 1131
f 1116 1131 1119
f 1117 1278 1118
f 1118 1278 1282
f 1118 1282 1283
f 1118 1283 1284
f 1118 1284 1285
f 1118 1285 1266
f 1118 1266 1280
f 1120 1128 1286
f 1120 1286 1279
f 1121 1122 1287
f 1121 1287 1124
f 1123 1288 1289
f 1123 1289 1125
f 1123 1124 1288
f 1124 1287 1290
f 1124 1290 1291
f 1124 1291 1292
f 1124 1292 1288
f 1125 1293 1126
f 1125 1289 1294
f 1125 1294 1293
f 1126 1293 1295
f 1126 1295 1296
f 1126 1296 1297
f 1126 1297 1127
f 1127 1297 1128
f 1128 1297 1286
f 1131 1281 1132
f 1132 1281 1133
f 1133 1281 1280
f 1133 1280 1266
f 1134 1265 1135
f 1135 1298 1136
f 1135 1265 1264
f 1135 1264 1298
f 1136 1298 1264
f 1136 1264 1299
f 1136 1299 1262
f 1136 1262 1253
f 1136 1253 1143
f 1138 1255 1260
f 1138 1260 1259
f 1138 1259 1300
f 1138 1300 1139
f 1138 1143 1255
f 1139 1300 1259
f 1139 1259 1140
f 1140 1259 1301
f 1140 1301 1302
f 1140 1302 1303
f 1140 1303 1141
f 1141 1144 1142
f 1141 1303 1145
f 1143 1253 1255
f 1145 1303 1304
f 1145 1304 1146
f 1146 1304 1302
f 1146 1302 1147
f 1147 1149 1148
f 1147 1302 1149
f 1149 1302 1305
f 1149 1305 1306
f 1149 1306 1150
f 1150 1306 1307
f 1150 1307 1308
f 1150 1308 1309
f 1150 1309 1310
f 1150 1310 1153
f 1150 1153 1152
f 1153 1311 1312
f 1153 1312 1155
f 1153 1155 1154
f 1153 1310 1309
f 1153 1309 1313
f 1153 1313 1311
f 1155 1312 1314
f 1155 1314 1315
f 1155 1315 1316
f 1155 1316 1158
f 1155 1158 1157
f 1158 1160 1159
f 1158 1316 1166
f 1161 1198 1162
f 1161 1166 1316
f 1161 1316 1317
f 1161 1317 1199
f 1162 1198 1196
f 1162 1196 1163
f 1164 1167 1165
f 1170 1172 1194
f 1170 1194 1176
f 1173 1175 1190
f 1173 1190 1318
f 1173 1318 1319
f 1173 1319 1174
f 1174 1319 1320
f 1174 1320 1180
f 1175 1176 1190
f 1176 1194 1193
f 1177 1321 1322
f 1177 1322 1178
f 1177 1179 1321
f 1178 1322 1323
f 1178 1323 1181
f 1179 1180 1324
f 1179 1324 1325
f 1179 1325 1321
f 1180 1320 1324
f 1182 1184 1326
f 1182 1326 1185
f 1184 1327 1326
f 1185 1326 1328
f 1185 1328 1329
f 1185 1329 1330
f 1185 1330 1331
f 1185 1331 1186
f 1186 1331 1333
f 1186 1333 1332
f 1186 1332 1187
f 1187 1332 1188
f 1188 1332 1333
f 1188 1333 1334
f 1188 1334 1189
f 1189 1334 1335
f 1189 1335 1190
f 1190 1335 1318
f 1199 1317 1336
f 1199 1336 1201
f 1199 1201 1200
f 1201 1336 1337
f 1201 1337 1338
f 1201 1338 1202
f 1202 1338 1339
f 1202 1339 1340
f 1202 1340 1203
f 1203 1340 1341
f 1203 1341 1210
f 1210 1341 1211
f 1211 1341 1342
f 1211 1342 1212
f 1212 1342 1343
f 1212 1343 1344
f 1212 1344 1213
f 1213 1344 1214
f 1214 1344 1345
f 1214 1345 1346
f 1214 1346 1216
f 1214 1216 1215
f 1216 1346 1347
f 1216 1347 1348
f 1216 1348 1349
f 1216 1349 1350
f 1216 1350 1217
f 1217 1350 1220
f 1217 1220 1218
f 1219 1220 1351
f 1220 1350 1351
f 1221 1352 1222
f 1221 1223 1352
f 1222 1352 1353
f 1222 1353 1354
f 1222 1354 1224
f 1223 1228 1355
f 1223 1355 1356
f 1223 1356 1357
f 1223 1357 1352
f 1224 1354 1225
f 1225 1354 1358
f 1227 1277 1228
f 1228 1359 1355
f 1228 1277 1359
f 1229 1360 1361
f 1229 1361 1230
f 1230 1361 1231
f 1231 1348 1347
f 1231 1347 1362
f 1231 1362 1232
f 1231 1361 1348
f 1232 1362 1233
f 1233 1362 1363
f 1233 1363 1234
f 1234 1363 1235
f 1235 1363 1364
f 1235 1364 1365
f 1235 1365 1238
f 1235 1238 1236
f 1236 1238 1237
f 1238 1365 1366
f 1238 1366 1367
f 1238 1367 1239
f 1239 1367 1240
f 1240 1242 1241
f 1240 1367 1366
f 1240 1366 1368
f 1240 1368 1369
f 1240 1369 1370
f 1240 1370 1242
f 1242 1370 1371
f 1242 1371 1372
f 1242 1372 1243
f 1243 1372 1247
f 1244 1248 1245
f 1245 1248 1373
f 1245 1373 1374
f 1245 1374 1256
f 1245 1256 1251
f 1245 1251 1246
f 1246 1251 1249
f 1247 1375 1248
f 1247 1372 1376
f 1247 1376 1377
f 1247 1377 1378
f 1247 1378 1309
f 1247 1309 1379
f 1247 1379 1375
f 1248 1375 1373
f 1249 1251 1250
f 1254 1261 1260
f 1254 1260 1255
f 1256 1374 1257
f 1257 1374 1380
f 1257 1380 1381
f 1257 1381 1302
f 1257 1302 1258
f 1258 1302 1259
f 1259 1302 1301
f 1262 1299 1264
f 1262 1264 1263
f 1266 1285 1267
f 1267 1285 1284
f 1267 1284 1382
f 1267 1382 1268
f 1268 1383 1384
f 1268 1384 1273
f 1268 1273 1385
f 1268 1385 1269
f 1268 1382 1386
f 1268 1386 1387
f 1268 1387 1275
f 1268 1275 1383
f 1269 1385 1273
f 1269 1273 1272
f 1269 1272 1270
f 1270 1272 1271
f 1274 1384 1383
f 1274 1383 1275
f 1275 1387 1388
f 1275 1388 1389
f 1275 1389 1276
f 1276 1389 1277
f 1277 1389 1359
f 1278 1279 1390
f 1278 1390 1282
f 1279 1286 1391
f 1279 1391 1390
f 1282 1392 1283
f 1282 1390 1392
f 1283 1393 1394
f 1283 1394 1284
f 1283 1392 1390
f 1283 1390 1395
f 1283 1395 1396
f 1283 1396 1393
f 1284 1394 1382
f 1286 1297 1296
f 1286 1296 1391
f 1288 1292 1397
f 1288 1397 1398
f 1288 1398 1294
f 1288 1294 1289
f 1293 1294 1399
f 1293 1399 1400
f 1293 1400 1401
f 1293 1401 1402
f 1293 1402 1403
f 1293 1403 1404
f 1293 1404 1405
f 1293 1405 1406
f 1293 1406 1295
f 1295 1406 1395
f 1295 1395 1390
f 1295 1390 1391
f 1295 1391 1296
f 1302 1381 1307
f 1302 1307 1305
f 1302 1304 1303
f 1305 1307 1306
f 1307 1381 1407
f 1307 1407 1375
f 1307 1375 1379
f 1307 1379 1308
f 1308 1379 1309
f 1309 1378 1313
f 1311 1313 1408
f 1311 1408 1314
f 1311 1314 1312
f 1313 1378 1408
f 1314 1408 1409
f 1314 1409 1410
f 1314 1410 1411
f 1314 1411 1316
f 1314 1316 1315
f 1316 1337 1336
f 1316 1336 1317
f 1316 1411 1337
f 1318 1412 1413
f 1318 1413 1319
f 1318 1335 1412
f 1319 1413 1320
f 1320 1413 1414
f 1320 1414 1324
f 1321 1415 1416
f 1321 1416 1322
f 1321 1325 1415
f 1322 1416 1323
f 1324 1417 1325
f 1324 1414 1418
f 1324 1418 1417
f 1325 1417 1419
f 1325 1419 1415
f 1326 1327 1420
f 1326 1420 1328
f 1328 1421 1329
f 1328 1420 1421
f 1329 1421 1330
f 1330 1421 1422
f 1330 1422 1423
f 1330 1423 1424
f 1330 1424 1425
f 1330 1425 1333
f 1330 1333 1331
f 1333 1426 1334
f 1333 1425 1427
f 1333 1427 1428
f 1333 1428 1429
f 1333 1429 1426
f 1334 1426 1412
f 1334 1412 1335
f 1337 1411 1410
f 1337 1410 1338
f 1338 1410 1339
f 1339 1410 1340
f 1340 1410 1430
f 1340 1430 1431
f 1340 1431 1432
f 1340 1432 1433
f 1340 1433 1434
f 1340 1434 1341
f 1341 1434 1435
f 1341 1435 1342
f 1342 1435 1343
f 1343 1435 1436
f 1343 1436 1437
f 1343 1437 1344
f 1344 1437 1345
f 1345 1437 1438
f 1345 1438 1362
f 1345 1362 1347
f 1345 1347 1346
f 1348 1361 1360
f 1348 1360 1439
f 1348 1439 1440
f 1348 1440 1441
f 1348 1441 1349
f 1349 1441 1350
f 1350 1441 1351
f 1352 1357 1442
f 1352 1442 1353
f 1353 1443 1444
f 1353 1444 1445
f 1353 1445 1446
f 1353 1446 1447
f 1353 1447 1354
f 1353 1442 1443
f 1354 1447 1358
f 1355 1359 1356
f 1356 1448 1442
f 1356 1442 1357
f 1356 1359 1389
f 1356 1389 1388
f 1356 1388 1449
f 1356 1449 1448
f 1358 1447 1450
f 1362 1438 1364
f 1362 1364 1363
f 1364 1438 1437
f 1364 1437 1451
f 1364 1451 1365
f 1365 1451 1366
f 1366 1451 1437
f 1366 1437 1436
f 1366 1436 1435
f 1366 1435 1433
f 1366 1433 1368
f 1368 1433 1369
f 1369 1371 1370
f 1369 1433 1452
f 1369 1452 1371
f 1371 1376 1372
f 1371 1452 1431
f 1371 1431 1376
f 1373 1375 1407
f 1373 1407 1380
f 1373 1380 1374
f 1376 1431 1377
f 1377 1431 1408
f 1377 1408 1378
f 1380 1407 1381
f 1382 1394 1386
f 1386 1394 1387
f 1387 1394 1396
f 1387 1396 1442
f 1387 1442 1388
f 1388 1442 1448
f 1388 1448 1449
f 1393 1396 1394
f 1395 1406 1405
f 1395 1405 1453
f 1395 1453 1396
f 1396 1453 1454
f 1396 1454 1442
f 1400 1455 1401
f 1401 1455 1402
f 1402 1456 1403
f 1403 1457 1458
f 1403 1458 1404
f 1403 1456 1457
f 1404 1458 1459
f 1404 1459 1405
f 1405 1459 1442
f 1405 1442 1454
f 1405 1454 1453
f 1408 1431 1409
f 1409 1431 1410
f 1410 1431 1430
f 1412 1429 1413
f 1412 1426 1429
f 1413 1429 1414
f 1414 1429 1418
f 1415 1419 1460
f 1417 1461 1419
f 1417 1418 1427
f 1417 1427 1461
f 1418 1429 1428
f 1418 1428 1427
f 1419 1462 1460
f 1419 1461 1462
f 1424 1463 1427
f 1424 1427 1425
f 1427 1463 1464
f 1427 1464 1465
f 1427 1465 1461
f 1431 1452 1432
f 1432 1452 1433
f 1433 1435 1434
f 1442 1459 1466
f 1442 1466 1443
f 1443 1467 1444
f 1443 1466 1467
f 1444 1467 1468
f 1444 1468 1446
f 1444 1446 1445
f 1446 1450 1447
f 1456 1469 1470
f 1456 1470 1457
f 1457 1470 1458
f 1458 1470 1471
f 1458 1471 1459
f 1459 1471 1466
f 1461 1465 1462
f 1466 1471 1470
f 1466 1470 1467
f 1467 1470 1472
f 1467 1472 1468
f 1469 1472 1470

