# https://github.com/mikedh/trimesh
v 0.07188398 0.06896102 -0.35642916
v 0.07188398 0.11500707 -0.36144894
v 0.07243581 0.11500707 -0.36119586
v 0.07743738 0.11500707 -0.35862267
v 0.10446431 0.12500243 -0.34453350
v 0.10446431 0.06896102 -0.33592811
v 0.07188398 0.06896102 0.06768087
v 0.07188398 0.12500243 -0.36208171
v 0.07315670 0.12500243 -0.36149114
v 0.07815827 0.12500243 -0.35908669
v 0.08500033 0.12500243 -0.35537457
v 0.09820279 0.13503523 -0.34900492
v 0.10446431 0.12578858 -0.34461784
v 0.10446431 0.06896102 0.06768087
v 0.07188398 0.40738070 0.06768087
v 0.07188398 0.12657474 -0.36216605
v 0.07866225 0.13503523 -0.35933977
v 0.08500033 0.13503523 -0.35604951
v 0.09320123 0.13503523 -0.35170463
v 0.09866531 0.14503059 -0.34921581
v 0.10446431 0.13585880 -0.34554589
v 0.10446431 0.13503523 -0.34550369
v 0.09366374 0.14503059 -0.35195774
v 0.10446431 0.39315510 0.06768087
v 0.07188398 0.41082481 0.06384219
v 0.07188398 0.13503523 -0.36254573
v 0.07898761 0.14503059 -0.35950851
v 0.08500033 0.14503059 -0.35647133
v 0.09923628 0.16502130 -0.34955329
v 0.10446431 0.14503059 -0.34596771
v 0.09423472 0.16502130 -0.35229519
v 0.07188398 0.42748374 0.03384992
v 0.07188398 0.42684734 0.03608564
v 0.07188398 0.42347813 0.04498629
v 0.07188398 0.42310375 0.04582997
v 0.07188398 0.41861147 0.05392914
v 0.07188398 0.41677710 0.05662887
v 0.10446431 0.42729658 -0.05511447
v 0.07188398 0.43264988 0.01537368
v 0.07188398 0.14735161 -0.36292535
v 0.07398605 0.14503059 -0.36187077
v 0.07426356 0.15502594 -0.36203951
v 0.07947883 0.16502130 -0.35971946
v 0.08500033 0.16502130 -0.35701972
v 0.08500033 0.15502594 -0.35676661
v 0.09940852 0.17501667 -0.34967983
v 0.10446431 0.16502130 -0.34660047
v 0.09441015 0.17501667 -0.35225302
v 0.10446431 0.42980474 -0.06502752
v 0.07188398 0.43452168 0.00744323
v 0.07188398 0.15502594 -0.36313629
v 0.07448046 0.16502130 -0.36208171
v 0.07932891 0.17501667 -0.35967726
v 0.08500033 0.17501667 -0.35693535
v 0.10446431 0.23562524 -0.34466004
v 0.10446431 0.17591512 -0.34672701
v 0.10446431 0.17501667 -0.34672701
v 0.08500033 0.18501203 -0.35651350
v 0.09685033 0.23502627 -0.34849870
v 0.07188398 0.44444215 -0.04140493
v 0.10446431 0.43171400 -0.07502494
v 0.07188398 0.16502130 -0.36326283
v 0.07432735 0.17501667 -0.36199734
v 0.07897485 0.18501203 -0.35950851
v 0.09646118 0.24502163 -0.34820342
v 0.10446431 0.24502163 -0.34398508
v 0.09146281 0.24502163 -0.35065004
v 0.07188398 0.44627652 -0.05106488
v 0.10446431 0.43291193 -0.08371469
v 0.09036871 0.44017446 -0.07848397
v 0.08953618 0.43972525 -0.07181902
v 0.07188398 0.17501667 -0.36305192
v 0.07397328 0.18501203 -0.36182860
v 0.10446431 0.25456774 -0.34255087
v 0.09059837 0.25112367 -0.35027039
v 0.07340232 0.19500738 -0.36153331
v 0.07188398 0.19500738 -0.36216605
v 0.07188398 0.19684175 -0.36203951
v 0.07188398 0.20500275 -0.36136460
v 0.07188398 0.20590121 -0.36128020
v 0.07188398 0.21432427 -0.36047876
v 0.08500033 0.24502163 -0.35284358
v 0.07188398 0.44687551 -0.05503010
v 0.10446431 0.43306166 -0.08489581
v 0.09095882 0.44051141 -0.08502237
v 0.08500033 0.44365603 -0.08502237
v 0.07188398 0.44762421 -0.06038737
v 0.07188398 0.17763717 -0.36296755
v 0.07188398 0.18501203 -0.36271447
v 0.10446431 0.25797442 -0.34174937
v 0.09435911 0.25468007 -0.34757066
v 0.08500033 0.25468007 -0.35132498
v 0.08832726 0.25782466 -0.34938455
v 0.10229846 0.26497492 -0.34115881
v 0.07188398 0.18733305 -0.36258790
v 0.07188398 0.22001451 -0.35980380
v 0.07188398 0.24517137 -0.35642916
v 0.07188398 0.22274733 -0.35946634
v 0.10446431 0.43392271 -0.09442922
v 0.08500033 0.44440472 -0.09501979
v 0.07667821 0.44852269 -0.09501979
v 0.07582335 0.44811088 -0.08502237
v 0.07188398 0.44863498 -0.07076444
v 0.10446431 0.26265389 -0.34061044
v 0.08166382 0.26175544 -0.35056567
v 0.07188398 0.25501698 -0.35465747
v 0.08500033 0.26504979 -0.34820342
v 0.09468447 0.27444616 -0.34132755
v 0.10053132 0.27077746 -0.34027296
v 0.10446431 0.26497492 -0.33989334
v 0.10446431 0.43396014 -0.09501979
v 0.10446431 0.43418473 -0.10438446
v 0.08500033 0.44462934 -0.10501721
v 0.07748204 0.44870985 -0.11501463
v 0.07709926 0.44863498 -0.10501721
v 0.07248047 0.45118061 -0.11501463
v 0.07188398 0.45061907 -0.09501979
v 0.07188398 0.45058164 -0.09451359
v 0.07188398 0.44987035 -0.08502237
v 0.07188398 0.44889700 -0.07363290
v 0.07188398 0.25812414 -0.35389817
v 0.07188398 0.26501235 -0.35221082
v 0.07188398 0.27152619 -0.35035476
v 0.07834965 0.26841900 -0.34946892
v 0.09114064 0.28095999 -0.34044170
v 0.09780726 0.27744102 -0.33904967
v 0.10446431 0.28462872 -0.33234254
v 0.10446431 0.27725387 -0.33537972
v 0.10446431 0.27448359 -0.33651868
v 0.10446431 0.26740822 -0.33904967
v 0.10446431 0.43418473 -0.10501721
v 0.07727151 0.44852269 -0.12501206
v 0.07227314 0.45106828 -0.12501206
v 0.07188398 0.45140523 -0.11501463
v 0.07188398 0.45121804 -0.12501206
v 0.07188398 0.27598104 -0.34849870
v 0.07500996 0.27478307 -0.34807688
v 0.08500033 0.28313127 -0.34145409
v 0.08500033 0.28814769 -0.33904967
v 0.09468447 0.28455383 -0.33710924
v 0.10143084 0.29103023 -0.33069739
v 0.10446431 0.28537741 -0.33196288
v 0.10446431 0.43354833 -0.11501463
v 0.08500033 0.44406781 -0.12501206
v 0.09041337 0.44021192 -0.13133954
v 0.08557449 0.44223344 -0.13479856
v 0.07188398 0.45028216 -0.13117079
v 0.07188398 0.45088112 -0.12745868
v 0.07188398 0.28526512 -0.34432256
v 0.07588077 0.28590152 -0.34293053
v 0.07980100 0.28986973 -0.33993551
v 0.09499707 0.29308921 -0.33213162
v 0.10446431 0.28953281 -0.32981154
v 0.07188398 0.33722600 -0.31078690
v 0.07188398 0.33917266 -0.30935270
v 0.08901306 0.33924755 -0.29939747
v 0.10078970 0.34063268 -0.29053897
v 0.10446431 0.43261245 -0.12412620
v 0.10446431 0.43201348 -0.12859762
v 0.10305125 0.43197602 -0.13500947
v 0.09424748 0.43736678 -0.13479856
v 0.08928419 0.43961293 -0.13800448
v 0.07188398 0.44998264 -0.13264722
v 0.07188398 0.29166663 -0.34103227
v 0.07313438 0.29140458 -0.34086353
v 0.07188398 0.29911637 -0.33618122
v 0.07188398 0.32663167 -0.31808460
v 0.08568612 0.29582202 -0.33381894
v 0.08947238 0.29975277 -0.32976937
v 0.10446431 0.33898550 -0.28918910
v 0.07188398 0.35006648 -0.30007237
v 0.07438795 0.35459623 -0.29463077
v 0.08287594 0.35201317 -0.29176229
v 0.08953937 0.34965470 -0.28969532
v 0.09499707 0.34272909 -0.29247940
v 0.09499707 0.35306138 -0.28286165
v 0.10104488 0.35077778 -0.28075248
v 0.10446431 0.34463829 -0.28404278
v 0.10446431 0.43137705 -0.13306904
v 0.10446431 0.43104014 -0.13500947
v 0.10446431 0.42916834 -0.14500690
v 0.10156800 0.43100271 -0.14500690
v 0.09499707 0.43489605 -0.14500690
v 0.08774991 0.43886423 -0.14500690
v 0.07188398 0.44365603 -0.15504649
v 0.08104501 0.44051141 -0.15179838
v 0.07546929 0.44219601 -0.15508868
v 0.07188398 0.29245278 -0.34052607
v 0.07188398 0.29608408 -0.33816382
v 0.07188398 0.35178855 -0.29855376
v 0.07188398 0.35979980 -0.29146701
v 0.07805619 0.35867673 -0.28872508
v 0.08638788 0.35598135 -0.28585663
v 0.08989982 0.35991210 -0.27990881
v 0.09499707 0.35804033 -0.27796838
v 0.10084711 0.36062339 -0.27071285
v 0.10446431 0.35407212 -0.27463591
v 0.10446431 0.34943008 -0.27940261
v 0.10446431 0.42868167 -0.14707386
v 0.10048029 0.43029141 -0.15095472
v 0.09521717 0.43220067 -0.15454030
v 0.08462712 0.43774116 -0.15508868
v 0.07188398 0.44152218 -0.16238637
v 0.07911201 0.43953806 -0.15846333
v 0.07244539 0.44111037 -0.16297694
v 0.07188398 0.36066082 -0.29066551
v 0.07188398 0.36144698 -0.28986406
v 0.08323638 0.36193365 -0.28206015
v 0.07766704 0.36859721 -0.27843237
v 0.08627623 0.36575210 -0.27585924
v 0.08931608 0.36957055 -0.26948956
v 0.10430483 0.37282747 -0.25476760
v 0.10446431 0.37256542 -0.25493634
v 0.10446431 0.36893415 -0.25890157
v 0.10446431 0.35463366 -0.27404535
v 0.10446431 0.36414236 -0.26400572
v 0.10446431 0.35920084 -0.26923645
v 0.10446431 0.42680991 -0.15475121
v 0.10446431 0.42407709 -0.16411589
v 0.10284391 0.42153144 -0.17499915
v 0.09155530 0.43089038 -0.16495955
v 0.08500033 0.43433452 -0.16495955
v 0.07188398 0.43141448 -0.19195680
v 0.07905778 0.42954272 -0.18853997
v 0.07239116 0.43104014 -0.19246301
v 0.07188398 0.36912131 -0.28163832
v 0.07188398 0.37031928 -0.28033063
v 0.07188398 0.37170440 -0.27881205
v 0.07188398 0.37511104 -0.27501553
v 0.07188398 0.37784386 -0.27193618
v 0.07188398 0.37975308 -0.26970047
v 0.09318528 0.38192436 -0.25219443
v 0.09985191 0.37990284 -0.24987435
v 0.10446431 0.37874234 -0.24784955
v 0.10446431 0.37279004 -0.25468326
v 0.10446431 0.42063299 -0.17499915
v 0.10091091 0.42052066 -0.18115790
v 0.09402419 0.42658529 -0.17402893
v 0.08786155 0.42890632 -0.17672867
v 0.07188398 0.43115246 -0.19271611
v 0.09171480 0.42100734 -0.19208336
v 0.08536715 0.42314118 -0.19524710
v 0.07543420 0.42830732 -0.19550020
v 0.07188398 0.42901862 -0.19752499
v 0.07188398 0.39817148 -0.24687934
v 0.07974678 0.39985612 -0.23979257
v 0.08746921 0.38862538 -0.24827139
v 0.09600823 0.38559306 -0.24574040
v 0.10446431 0.38259822 -0.24316722
v 0.10446431 0.41958478 -0.17799416
v 0.10446431 0.41696429 -0.18461692
v 0.10446431 0.41265917 -0.19423470
v 0.10446431 0.41000122 -0.19992943
v 0.08227945 0.42130685 -0.20241824
v 0.07545653 0.42332837 -0.20545544
v 0.07188398 0.42680991 -0.20195423
v 0.07188398 0.40176535 -0.24240792
v 0.07308015 0.40154073 -0.24194391
v 0.07188398 0.40633249 -0.23612264
v 0.07770213 0.40891558 -0.22840309
v 0.08500033 0.40210226 -0.23291671
v 0.09088864 0.40052998 -0.23072317
v 0.08500033 0.39835870 -0.23789433
v 0.09216136 0.39128333 -0.24160644
v 0.10446431 0.38301000 -0.24266103
v 0.10446431 0.40738070 -0.20499142
v 0.09841332 0.40910277 -0.20832390
v 0.10150740 0.41078737 -0.20165895
v 0.07909287 0.41950992 -0.20908320
v 0.07242624 0.42123199 -0.21212038
v 0.07188398 0.42175606 -0.21157199
v 0.07188398 0.41026327 -0.23042789
v 0.07462081 0.41250944 -0.22502846
v 0.08186797 0.41108686 -0.22173816
v 0.10446431 0.40202740 -0.21448264
v 0.10446431 0.39936945 -0.21895406
v 0.09755526 0.39847100 -0.22743288
v 0.10446431 0.39547613 -0.22540809
v 0.10446431 0.39405358 -0.22760162
v 0.10446431 0.39132077 -0.23177776
v 0.10296512 0.39180744 -0.23241051
v 0.10446431 0.38967359 -0.23401347
v 0.10446431 0.38806385 -0.23612264
v 0.09882799 0.38926178 -0.23907545
v 0.10446431 0.40726840 -0.20520234
v 0.07188398 0.41539198 -0.22237089
v 0.07188398 0.42134428 -0.21233130
v 0.07188398 0.41093713 -0.22937331
f 1 2 3
f 1 3 4
f 1 4 5
f 1 5 6
f 1 6 14
f 1 14 7
f 1 7 15
f 1 15 25
f 1 25 37
f 1 37 36
f 1 36 35
f 1 35 34
f 1 34 33
f 1 33 32
f 1 32 39
f 1 39 50
f 1 50 60
f 1 60 68
f 1 68 83
f 1 83 87
f 1 87 103
f 1 103 120
f 1 120 119
f 1 119 118
f 1 118 117
f 1 117 134
f 1 134 135
f 1 135 148
f 1 148 147
f 1 147 163
f 1 163 185
f 1 185 203
f 1 203 223
f 1 223 240
f 1 240 244
f 1 244 256
f 1 256 271
f 1 271 287
f 1 287 286
f 1 286 288
f 1 288 272
f 1 272 259
f 1 259 257
f 1 257 245
f 1 245 231
f 1 231 230
f 1 230 229
f 1 229 228
f 1 228 227
f 1 227 226
f 1 226 207
f 1 207 206
f 1 206 191
f 1 191 190
f 1 190 171
f 1 171 155
f 1 155 154
f 1 154 167
f 1 167 166
f 1 166 189
f 1 189 188
f 1 188 164
f 1 164 149
f 1 149 136
f 1 136 123
f 1 123 122
f 1 122 121
f 1 121 106
f 1 106 97
f 1 97 98
f 1 98 96
f 1 96 81
f 1 81 80
f 1 80 79
f 1 79 78
f 1 78 77
f 1 77 95
f 1 95 89
f 1 89 88
f 1 88 72
f 1 72 62
f 1 62 51
f 1 51 40
f 1 40 26
f 1 26 16
f 1 16 8
f 1 8 2
f 2 8 3
f 3 8 9
f 3 9 10
f 3 10 4
f 4 10 11
f 4 11 12
f 4 12 13
f 4 13 5
f 5 13 22
f 5 22 21
f 5 21 30
f 5 30 47
f 5 47 57
f 5 57 56
f 5 56 55
f 5 55 66
f 5 66 74
f 5 74 90
f 5 90 104
f 5 104 110
f 5 110 130
f 5 130 129
f 5 129 128
f 5 128 127
f 5 127 142
f 5 142 153
f 5 153 170
f 5 170 178
f 5 178 198
f 5 198 197
f 5 197 215
f 5 215 217
f 5 217 216
f 5 216 214
f 5 214 213
f 5 213 235
f 5 235 234
f 5 234 249
f 5 249 265
f 5 265 283
f 5 283 282
f 5 282 280
f 5 280 279
f 5 279 278
f 5 278 276
f 5 276 275
f 5 275 285
f 5 285 266
f 5 266 253
f 5 253 252
f 5 252 251
f 5 251 250
f 5 250 236
f 5 236 219
f 5 219 218
f 5 218 199
f 5 199 181
f 5 181 180
f 5 180 179
f 5 179 159
f 5 159 158
f 5 158 143
f 5 143 131
f 5 131 112
f 5 112 111
f 5 111 99
f 5 99 84
f 5 84 69
f 5 69 61
f 5 61 49
f 5 49 38
f 5 38 24
f 5 24 14
f 5 14 6
f 7 14 24
f 7 24 15
f 8 16 9
f 9 16 17
f 9 17 10
f 10 17 18
f 10 18 19
f 10 19 12
f 10 12 11
f 12 20 21
f 12 21 22
f 12 22 13
f 12 19 23
f 12 23 20
f 15 24 25
f 16 26 17
f 17 26 27
f 17 27 28
f 17 28 18
f 18 28 23
f 18 23 19
f 20 29 30
f 20 30 21
f 20 23 31
f 20 31 29
f 23 28 31
f 24 32 33
f 24 33 34
f 24 34 35
f 24 35 36
f 24 36 37
f 24 37 25
f 24 38 39
f 24 39 32
f 26 40 41
f 26 41 27
f 27 41 42
f 27 42 43
f 27 43 44
f 27 44 45
f 27 45 28
f 28 45 31
f 29 46 47
f 29 47 30
f 29 31 46
f 31 48 46
f 31 45 44
f 31 44 48
f 38 49 39
f 39 49 50
f 40 51 42
f 40 42 41
f 42 52 43
f 42 51 52
f 43 52 53
f 43 53 54
f 43 54 44
f 44 54 48
f 46 55 56
f 46 56 57
f 46 57 47
f 46 48 55
f 48 54 58
f 48 58 59
f 48 59 55
f 49 60 50
f 49 61 60
f 51 62 52
f 52 62 63
f 52 63 53
f 53 64 54
f 53 63 73
f 53 73 64
f 54 64 58
f 55 59 65
f 55 65 66
f 58 64 59
f 59 64 67
f 59 67 65
f 60 61 68
f 61 69 70
f 61 70 71
f 61 71 68
f 62 72 63
f 63 72 73
f 64 73 67
f 65 74 66
f 65 67 75
f 65 75 74
f 67 73 76
f 67 76 77
f 67 77 78
f 67 78 79
f 67 79 80
f 67 80 81
f 67 81 82
f 67 82 75
f 68 71 83
f 69 84 70
f 70 84 85
f 70 85 86
f 70 86 87
f 70 87 71
f 71 87 83
f 72 88 73
f 73 88 89
f 73 89 76
f 74 75 91
f 74 91 90
f 75 82 92
f 75 92 93
f 75 93 94
f 75 94 91
f 76 89 95
f 76 95 77
f 81 96 82
f 82 97 92
f 82 96 98
f 82 98 97
f 84 99 85
f 85 99 100
f 85 100 86
f 86 100 101
f 86 101 102
f 86 102 103
f 86 103 87
f 90 94 104
f 90 91 94
f 92 105 93
f 92 97 106
f 92 106 105
f 93 107 108
f 93 108 109
f 93 109 94
f 93 105 107
f 94 109 110
f 94 110 104
f 99 111 100
f 100 111 112
f 100 112 113
f 100 113 114
f 100 114 115
f 100 115 101
f 101 115 116
f 101 116 117
f 101 117 118
f 101 118 119
f 101 119 102
f 102 119 120
f 102 120 103
f 105 106 121
f 105 121 122
f 105 122 123
f 105 123 124
f 105 124 107
f 107 124 125
f 107 125 108
f 108 125 126
f 108 126 109
f 109 126 127
f 109 127 128
f 109 128 129
f 109 129 130
f 109 130 110
f 112 131 114
f 112 114 113
f 114 116 115
f 114 131 132
f 114 132 133
f 114 133 116
f 116 134 117
f 116 133 135
f 116 135 134
f 123 136 137
f 123 137 124
f 124 137 125
f 125 138 139
f 125 139 140
f 125 140 126
f 125 137 138
f 126 140 127
f 127 141 142
f 127 140 141
f 131 143 132
f 132 143 144
f 132 144 145
f 132 145 146
f 132 146 147
f 132 147 148
f 132 148 133
f 133 148 135
f 136 149 150
f 136 150 138
f 136 138 137
f 138 150 151
f 138 151 139
f 139 151 152
f 139 152 141
f 139 141 140
f 141 153 142
f 141 152 154
f 141 154 155
f 141 155 156
f 141 156 157
f 141 157 153
f 143 158 145
f 143 145 144
f 145 159 160
f 145 160 161
f 145 161 162
f 145 162 146
f 145 158 159
f 146 162 147
f 147 162 163
f 149 164 165
f 149 165 151
f 149 151 150
f 151 166 167
f 151 167 168
f 151 168 152
f 151 165 166
f 152 168 169
f 152 169 154
f 153 157 170
f 154 169 167
f 155 171 156
f 156 171 172
f 156 172 173
f 156 173 174
f 156 174 175
f 156 175 157
f 157 175 176
f 157 176 177
f 157 177 178
f 157 178 170
f 159 179 160
f 160 179 180
f 160 180 181
f 160 181 182
f 160 182 161
f 161 182 183
f 161 183 162
f 162 184 163
f 162 183 184
f 163 184 186
f 163 186 187
f 163 187 185
f 164 188 165
f 165 188 189
f 165 189 166
f 167 169 168
f 171 190 172
f 172 190 191
f 172 191 192
f 172 192 173
f 173 192 174
f 174 192 193
f 174 193 194
f 174 194 175
f 175 194 176
f 176 194 177
f 177 194 195
f 177 195 196
f 177 196 197
f 177 197 198
f 177 198 178
f 181 199 200
f 181 200 182
f 182 200 183
f 183 200 184
f 184 200 201
f 184 201 202
f 184 202 186
f 185 187 203
f 186 202 204
f 186 204 187
f 187 204 205
f 187 205 203
f 191 206 192
f 192 206 194
f 192 194 193
f 194 196 195
f 194 206 207
f 194 207 208
f 194 208 209
f 194 209 210
f 194 210 211
f 194 211 212
f 194 212 213
f 194 213 214
f 194 214 196
f 196 215 197
f 196 214 216
f 196 216 217
f 196 217 215
f 199 218 200
f 200 218 219
f 200 219 201
f 201 219 220
f 201 220 221
f 201 221 202
f 202 221 222
f 202 222 204
f 203 205 223
f 204 222 224
f 204 224 205
f 205 224 225
f 205 225 223
f 207 226 208
f 208 226 209
f 209 226 227
f 209 227 228
f 209 228 229
f 209 229 210
f 210 229 230
f 210 230 211
f 211 230 231
f 211 231 232
f 211 232 233
f 211 233 234
f 211 234 212
f 212 235 213
f 212 234 235
f 219 236 220
f 220 236 237
f 220 237 238
f 220 238 221
f 221 238 222
f 222 238 239
f 222 239 224
f 223 225 240
f 224 239 238
f 224 238 237
f 224 237 241
f 224 241 242
f 224 242 243
f 224 243 225
f 225 243 244
f 225 244 240
f 231 245 246
f 231 246 247
f 231 247 232
f 232 247 233
f 233 247 248
f 233 248 249
f 233 249 234
f 236 250 237
f 237 250 251
f 237 251 241
f 241 252 253
f 241 253 242
f 241 251 252
f 242 253 254
f 242 254 243
f 243 254 255
f 243 255 256
f 243 256 244
f 245 257 258
f 245 258 246
f 246 258 259
f 246 259 260
f 246 260 261
f 246 261 262
f 246 262 263
f 246 263 264
f 246 264 247
f 247 264 248
f 248 264 249
f 249 264 265
f 253 266 267
f 253 267 268
f 253 268 254
f 254 268 267
f 254 267 269
f 254 269 255
f 255 269 270
f 255 270 256
f 256 270 271
f 257 259 258
f 259 272 260
f 260 272 273
f 260 273 274
f 260 274 262
f 260 262 261
f 262 274 275
f 262 275 276
f 262 276 277
f 262 277 278
f 262 278 279
f 262 279 280
f 262 280 281
f 262 281 282
f 262 282 283
f 262 283 284
f 262 284 264
f 262 264 263
f 264 284 265
f 265 284 283
f 266 285 267
f 267 285 275
f 267 275 274
f 267 274 269
f 269 274 270
f 270 274 286
f 270 286 287
f 270 287 271
f 272 288 273
f 273 288 286
f 273 286 274
f 276 278 277
f 280 282 281

