# https://github.com/mikedh/trimesh
v 0.15322404 0.06896102 -0.31396818
v 0.15322404 0.13399938 -0.31804758
v 0.19030604 0.06896102 -0.30010581
v 0.15322404 0.06896102 0.06768087
v 0.15322404 0.13544542 -0.31812310
v 0.19542955 0.07501423 -0.29802835
v 0.19469400 0.06896102 -0.29817945
v 0.40468165 0.06896102 0.06768087
v 0.15322404 0.40091217 0.06768087
v 0.15322404 0.14388627 -0.31819865
v 0.19573392 0.09502345 -0.29802835
v 0.20501709 0.08500202 -0.29357126
v 0.20501709 0.07501423 -0.29345793
v 0.20554975 0.06896102 -0.29289138
v 0.40455484 0.07340005 0.06768087
v 0.40521431 0.06896102 0.06499904
v 0.40506211 0.07501423 0.06499904
v 0.15322404 0.41237962 -0.07502203
v 0.15368058 0.40091217 0.06768087
v 0.15322404 0.16500524 -0.31729212
v 0.20501709 0.09502345 -0.29345793
v 0.21095225 0.08500202 -0.29051173
v 0.21080007 0.07501423 -0.29043618
v 0.21049571 0.06896102 -0.29024732
v 0.40447873 0.07501423 0.06768087
v 0.40600058 0.06896102 0.06103298
v 0.40450412 0.08500202 0.06499904
v 0.40397146 0.08500202 0.06768087
v 0.40698975 0.07501423 0.05498946
v 0.40645713 0.08500202 0.05498946
v 0.16103610 0.41026101 -0.06814751
v 0.16161948 0.41039550 -0.07502203
v 0.15322404 0.41251415 -0.08503163
v 0.15502487 0.40087855 0.06768087
v 0.16326813 0.39980242 0.06768087
v 0.17224696 0.39815459 0.06768087
v 0.21077470 0.09502345 -0.29043618
v 0.15322404 0.16772918 -0.31706548
v 0.15502487 0.16500524 -0.31631005
v 0.26096985 0.13500825 -0.26052070
v 0.21041961 0.10185012 -0.29020953
v 0.26596653 0.13500825 -0.25768781
v 0.21594894 0.08500202 -0.28760326
v 0.21579675 0.07501423 -0.28752774
v 0.23958808 0.06896102 -0.27332544
v 0.40711659 0.06896102 0.05498946
v 0.40384465 0.09502345 0.06499904
v 0.40348956 0.09233314 0.06768087
v 0.40863842 0.06896102 0.04497986
v 0.40848625 0.07501423 0.04497986
v 0.40815651 0.08500202 0.04497986
v 0.40577230 0.09502345 0.05498946
v 0.17501162 0.40632641 -0.06501243
v 0.16661617 0.40905035 -0.07502203
v 0.17516381 0.39748201 0.06768087
v 0.18234178 0.39563245 0.06768087
v 0.18500498 0.39492622 0.06768087
v 0.15322404 0.41207695 -0.09451243
v 0.15322404 0.17502666 -0.31615895
v 0.26043719 0.14085968 -0.26021850
v 0.27382934 0.13500825 -0.25266409
v 0.27418444 0.12502044 -0.25270188
v 0.26609334 0.12502044 -0.25772557
v 0.24258102 0.06896102 -0.27155012
v 0.40303302 0.10501124 0.06499904
v 0.40270329 0.10232092 0.06768087
v 0.40328664 0.09502345 0.06768087
v 0.41036317 0.06896102 0.03259061
v 0.41018564 0.08308518 0.03130636
v 0.40747169 0.09502345 0.04497986
v 0.40955153 0.08584274 0.03478140
v 0.40896815 0.09502345 0.03497025
v 0.40668541 0.10501124 0.04497986
v 0.40496066 0.10501124 0.05498946
v 0.18500498 0.40266088 -0.05500283
v 0.18500498 0.40323257 -0.06501243
v 0.17501162 0.40652817 -0.07502203
v 0.16595671 0.40874770 -0.08503163
v 0.19464326 0.39152968 0.06768087
v 0.19152351 0.40050861 -0.05500283
v 0.15322404 0.41120261 -0.10501306
v 0.15322404 0.17744794 -0.31585678
v 0.27502143 0.17502666 -0.24480751
v 0.28136241 0.17502666 -0.24091700
v 0.15322404 0.23505430 -0.30633822
v 0.28498945 0.12502044 -0.24552518
v 0.27918112 0.12502044 -0.24941570
v 0.28633374 0.17502666 -0.23744196
v 0.29110214 0.13218340 -0.24072812
v 0.29655540 0.12502044 -0.23763081
v 0.29153335 0.12502044 -0.24106807
v 0.27890211 0.06896102 -0.24926461
v 0.27390543 0.06896102 -0.25243747
v 0.26578897 0.06896102 -0.25746116
v 0.24559933 0.06896102 -0.26973706
v 0.40186626 0.11503266 0.06499904
v 0.40244964 0.10491036 0.06768087
v 0.40394610 0.11503266 0.05498946
v 0.41120017 0.06896102 0.02499843
v 0.41054070 0.08584274 0.02586718
v 0.40995735 0.08974370 0.02979548
v 0.41102263 0.07501423 0.02499843
v 0.40977979 0.09502345 0.02771801
v 0.40815651 0.10501124 0.03497025
v 0.40574694 0.11503266 0.04497986
v 0.19210687 0.40074402 -0.06501243
v 0.18500498 0.40316531 -0.07502203
v 0.17501162 0.40575475 -0.08503163
v 0.19720502 0.39058810 0.06768087
v 0.19652019 0.39869267 -0.05500283
v 0.15322404 0.41039550 -0.11279411
v 0.15332548 0.41116899 -0.10501306
v 0.28047469 0.18094535 -0.24027486
v 0.15322404 0.24497484 -0.30373195
v 0.26642308 0.22503288 -0.23781967
v 0.29143187 0.06896102 -0.24095476
v 0.28260526 0.06896102 -0.24680942
v 0.28887013 0.06896102 -0.24265450
v 0.29295370 0.17502666 -0.23245604
v 0.30243981 0.13500825 -0.23207831
v 0.30302319 0.12502044 -0.23264490
v 0.30837497 0.06896102 -0.22871661
v 0.30639657 0.06896102 -0.23022750
v 0.30335292 0.06896102 -0.23249382
v 0.30063897 0.06896102 -0.23449573
v 0.29642856 0.06896102 -0.23751751
v 0.40026835 0.12199385 0.06768087
v 0.40125751 0.11503266 0.06768087
v 0.40158725 0.11227509 0.06768087
v 0.40250036 0.12502044 0.05498946
v 0.40440264 0.12502044 0.04497986
v 0.41191036 0.06896102 0.01498882
v 0.41178355 0.07501423 0.01498882
v 0.41023636 0.09502345 0.02273209
v 0.41140309 0.08500202 0.01498882
v 0.41003343 0.10050496 0.02050355
v 0.40932325 0.10430503 0.02428076
v 0.40714195 0.11503266 0.03497025
v 0.19710356 0.39892805 -0.06501243
v 0.19185324 0.40071040 -0.07502203
v 0.19078796 0.40030685 -0.08503163
v 0.18500498 0.40232459 -0.08503163
v 0.20227781 0.38853672 0.06768087
v 0.20501709 0.39529616 -0.05500283
v 0.15322404 0.41005921 -0.11502266
v 0.19007777 0.40000418 -0.09016864
v 0.27598527 0.21595307 -0.23377806
v 0.27996740 0.21992128 -0.22996309
v 0.29122898 0.18501446 -0.23105848
v 0.15322404 0.25499624 -0.30021915
v 0.26033574 0.23044714 -0.24016154
v 0.27357569 0.22503288 -0.23279598
v 0.29795039 0.17502666 -0.22811225
v 0.31182444 0.14502966 -0.22169100
v 0.30743650 0.13500825 -0.22754568
v 0.31205273 0.06896102 -0.22569484
v 0.30801988 0.12502044 -0.22792339
v 0.31915462 0.09502345 -0.21923581
v 0.31928143 0.08500202 -0.21934913
v 0.31745523 0.06896102 -0.22116220
v 0.39856896 0.13450381 0.06435692
v 0.39775732 0.13467196 0.06768087
v 0.39953279 0.13749678 0.05767126
v 0.40252572 0.13500825 0.04497986
v 0.40019226 0.14102782 0.05098560
v 0.40579766 0.12502044 0.03497025
v 0.40404755 0.13500825 0.03497025
v 0.41231620 0.06896102 0.00497922
v 0.41213864 0.07501423 0.00497922
v 0.41076899 0.09502345 0.01498882
v 0.41155529 0.08500202 0.00497922
v 0.40813115 0.11503266 0.02499843
v 0.41023636 0.10201827 0.01498882
v 0.20501709 0.39569968 -0.06501243
v 0.19684993 0.39869267 -0.07502203
v 0.19581001 0.39818823 -0.08503163
v 0.20463663 0.38746059 0.06768087
v 0.21326037 0.39159697 -0.05500283
v 0.15322404 0.40952116 -0.11857323
v 0.20501709 0.39418638 -0.08503163
v 0.21105370 0.39048719 -0.09262381
v 0.20582876 0.39233679 -0.09557004
v 0.19405991 0.39768380 -0.09413470
v 0.18858129 0.39943248 -0.09685429
v 0.29127970 0.21501146 -0.22131328
v 0.28468508 0.21595307 -0.22701687
v 0.30066434 0.19184113 -0.22063339
v 0.29622567 0.18501446 -0.22671469
v 0.27147049 0.23202769 -0.23143619
v 0.27857238 0.22503288 -0.22871661
v 0.29029050 0.22059385 -0.22029343
v 0.15322404 0.25832552 -0.29904822
v 0.25825590 0.23710567 -0.23868844
v 0.15322404 0.26585838 -0.29629084
v 0.15322404 0.26740533 -0.29564872
v 0.30185643 0.18501446 -0.22169100
v 0.30332756 0.17502666 -0.22308856
v 0.32087937 0.15501745 -0.21096373
v 0.31682113 0.14502966 -0.21689394
v 0.31243318 0.13500825 -0.22255975
v 0.32881826 0.10501124 -0.20877296
v 0.32379621 0.10501124 -0.21379665
v 0.32417667 0.09502345 -0.21421212
v 0.32945237 0.08500202 -0.20941508
v 0.32443029 0.08500202 -0.21436322
v 0.31943363 0.06896102 -0.21946245
v 0.39570284 0.14502966 0.06768087
v 0.39872116 0.14462611 0.05457395
v 0.39631158 0.14502966 0.06499904
v 0.39065543 0.20155989 0.03232621
v 0.40678686 0.12502044 0.02499843
v 0.40511283 0.13500825 0.02499843
v 0.40308374 0.14502966 0.02499843
v 0.41231620 0.06896102 -0.00503038
v 0.41201180 0.07501423 -0.00503038
v 0.41089582 0.09502345 0.00497922
v 0.41031244 0.10329616 0.00497922
v 0.41018564 0.10258995 -0.01500221
v 0.41023636 0.10366608 -0.00503038
v 0.40967834 0.10699534 0.01498882
v 0.40871453 0.11503266 0.01498882
v 0.40983051 0.10827324 0.00497922
v 0.21364082 0.39176512 -0.06501243
v 0.20501709 0.39519525 -0.07502203
v 0.21305746 0.38359326 0.06768087
v 0.21825705 0.38907480 -0.05500283
v 0.21863751 0.38927656 -0.06501243
v 0.21873897 0.38090295 0.06768087
v 0.15322404 0.40841141 -0.12367246
v 0.19502373 0.39519525 -0.10501306
v 0.21214435 0.39099163 -0.08503163
v 0.21714103 0.38857037 -0.08503163
v 0.21465537 0.38806593 -0.09557004
v 0.20970942 0.38984823 -0.09930947
v 0.20334309 0.39152968 -0.10501306
v 0.31058162 0.19150484 -0.21058601
v 0.30685312 0.18501446 -0.21678063
v 0.25120476 0.26175568 -0.23098293
v 0.24889663 0.26841420 -0.22901878
v 0.28103268 0.25143158 -0.21096373
v 0.28181896 0.23266664 -0.22165322
v 0.28506553 0.22436030 -0.22316411
v 0.24037437 0.26047778 -0.24023709
v 0.24463549 0.26444599 -0.23468459
v 0.28843895 0.22728601 -0.21840483
v 0.29982734 0.23969509 -0.19982097
v 0.29987806 0.21971951 -0.20986834
v 0.31233174 0.20502368 -0.20261610
v 0.30786768 0.20502368 -0.20763978
v 0.30926269 0.19816336 -0.20918845
v 0.25158522 0.24204911 -0.24099253
v 0.15322404 0.27473643 -0.29240033
v 0.30832422 0.17502666 -0.21832928
v 0.31304193 0.17502666 -0.21334338
v 0.31164691 0.18501446 -0.21179472
v 0.32262945 0.17502666 -0.20284274
v 0.32762617 0.17502666 -0.19695029
v 0.32881826 0.16500524 -0.19846117
v 0.34733391 0.11503266 -0.18652520
v 0.34233722 0.11503266 -0.19279537
v 0.32166564 0.14502966 -0.21190804
v 0.33356130 0.10501124 -0.20378703
v 0.32919872 0.09502345 -0.20915067
v 0.33921745 0.08500202 -0.19914107
v 0.33954719 0.06896102 -0.19951880
v 0.33756879 0.06896102 -0.20155849
v 0.33262283 0.06896102 -0.20654440
v 0.32955381 0.06896102 -0.20956618
v 0.32455713 0.06896102 -0.21447653
v 0.39339471 0.15515196 0.06768087
v 0.39139098 0.19537216 0.03538574
v 0.39402881 0.15501745 0.06499904
v 0.40379393 0.14502966 0.01498882
v 0.40430120 0.14502966 0.00497922
v 0.40201846 0.15501745 0.00497922
v 0.40227211 0.15501745 -0.00503038
v 0.39075688 0.20182893 0.02499843
v 0.38860095 0.20683962 0.02499843
v 0.38281798 0.21602033 0.03595233
v 0.38203171 0.21376719 0.04497986
v 0.38588703 0.20502368 0.04497986
v 0.38969159 0.19893683 0.03901187
v 0.40737024 0.12502044 0.01498882
v 0.40574694 0.13500825 0.01498882
v 0.41218936 0.06896102 -0.00899644
v 0.41168207 0.07501423 -0.01500221
v 0.40990663 0.10867679 -0.00503038
v 0.41003343 0.10077399 -0.02070579
v 0.40980518 0.10760066 -0.01500221
v 0.40904427 0.11503266 0.00497922
v 0.40777606 0.12502044 0.00497922
v 0.40924716 0.11503266 -0.00503038
v 0.21813023 0.38904116 -0.07502203
v 0.21313354 0.39146245 -0.07502203
v 0.22500384 0.38547647 -0.05500283
v 0.22196019 0.37925512 0.06768087
v 0.22500384 0.38574553 -0.06501243
v 0.15322404 0.40572110 -0.13496631
v 0.20141542 0.39062172 -0.11260524
v 0.19575928 0.39237040 -0.11555147
v 0.22500384 0.38419861 -0.08503163
v 0.22551113 0.38228172 -0.09462574
v 0.22284791 0.38160914 -0.10501306
v 0.21501046 0.38581276 -0.10501306
v 0.20833978 0.38917565 -0.10501306
v 0.32016918 0.19049597 -0.20019868
v 0.31664360 0.18501446 -0.20620444
v 0.24222593 0.27295411 -0.23173837
v 0.23974027 0.27961263 -0.22977422
v 0.24534568 0.27577892 -0.22739458
v 0.25026628 0.28031883 -0.22021788
v 0.25828126 0.28731364 -0.20839523
v 0.26165468 0.29232436 -0.20174734
v 0.29105142 0.25146520 -0.20099190
v 0.29318199 0.24497484 -0.20310715
v 0.28808385 0.24497484 -0.20809305
v 0.28975788 0.23962784 -0.20975503
v 0.23119263 0.27147442 -0.24080367
v 0.23786333 0.26713631 -0.23838626
v 0.15322404 0.27964625 -0.29002070
v 0.19910732 0.27867103 -0.25938755
v 0.21057180 0.28072238 -0.25036001
v 0.30944026 0.21874426 -0.19932994
v 0.30304855 0.22503288 -0.20352262
v 0.29817867 0.24497484 -0.19812122
v 0.30089262 0.25133070 -0.19102007
v 0.30269346 0.24497484 -0.19313532
v 0.30933878 0.23841719 -0.18909371
v 0.31088600 0.21205211 -0.20095414
v 0.31732842 0.20502368 -0.19676143
v 0.31887561 0.19715449 -0.19865003
v 0.32108226 0.18501446 -0.20121855
v 0.32648477 0.18487994 -0.19438179
v 0.33046693 0.18144979 -0.19064236
v 0.33140537 0.17502666 -0.19192660
v 0.33247066 0.16500524 -0.19347526
v 0.34981954 0.12922406 -0.17976400
v 0.35047901 0.12253191 -0.18063276
v 0.35113847 0.11503266 -0.18153928
v 0.35182330 0.10501124 -0.18233250
v 0.34789190 0.10501124 -0.18731841
v 0.34289521 0.10501124 -0.19339973
v 0.33800000 0.11503266 -0.19778128
v 0.33855799 0.10501124 -0.19838563
v 0.33888772 0.09502345 -0.19876334
v 0.34898254 0.07501423 -0.18875375
v 0.34396049 0.07501423 -0.19434401
v 0.34401122 0.06896102 -0.19453287
v 0.39098516 0.16389549 0.06768087
v 0.40620351 0.13500825 0.00497922
v 0.40645713 0.13500825 -0.00503038
v 0.40445340 0.14502966 -0.00503038
v 0.40057272 0.16201228 -0.00503038
v 0.40430120 0.14502966 -0.01500221
v 0.40209454 0.15501745 -0.01500221
v 0.40047124 0.16174324 -0.01500221
v 0.39910161 0.16675395 -0.01500221
v 0.39615938 0.17502666 -0.02501181
v 0.39303964 0.18501446 -0.02501181
v 0.39070615 0.19204290 -0.02501181
v 0.39035106 0.19106767 -0.03502140
v 0.38852486 0.19607837 -0.03502140
v 0.38499928 0.20502368 -0.03502140
v 0.38182878 0.21437252 -0.02501181
v 0.37972358 0.21938322 -0.02501181
v 0.36998385 0.24003138 -0.02010144
v 0.37005994 0.24013227 -0.01500221
v 0.38418764 0.21501146 0.02499843
v 0.38050985 0.22076200 0.03327051
v 0.37698430 0.22503288 -0.02501181
v 0.37997723 0.21998854 0.03991839
v 0.35212767 0.25465995 0.06768087
v 0.38099179 0.21171582 0.05189215
v 0.38494855 0.18232414 0.06768087
v 0.38756102 0.17455587 0.06768087
v 0.38953942 0.16856991 0.06768087
v 0.41198647 0.06896102 -0.01500221
v 0.41005880 0.09088708 -0.03071539
v 0.41018564 0.09455264 -0.02444522
v 0.40939933 0.10447317 -0.02444522
v 0.40901887 0.11503266 -0.01500221
v 0.40802968 0.12502044 -0.00503038
v 0.40782678 0.12502044 -0.01500221
v 0.22500384 0.38520747 -0.07502203
v 0.23230866 0.38137376 -0.05500283
v 0.23725460 0.37091517 0.06768087
v 0.23238474 0.38144100 -0.06501243
v 0.15322404 0.40387151 -0.14225632
v 0.20486492 0.38823408 -0.11555147
v 0.19956386 0.38978100 -0.11925314
v 0.23098972 0.38063392 -0.08503163
v 0.23033026 0.38019675 -0.09099962
v 0.22918889 0.37949055 -0.09768528
v 0.22784460 0.37868345 -0.10501306
v 0.22130072 0.38070118 -0.11256748
v 0.21574603 0.38278615 -0.11555147
v 0.32138664 0.20502368 -0.19173774
v 0.33084738 0.20223247 -0.18108602
v 0.23760970 0.28499326 -0.22803670
v 0.24110992 0.29138276 -0.22093555
v 0.24468623 0.28418615 -0.22255975
v 0.23545377 0.27554351 -0.23532672
v 0.23261301 0.28499326 -0.23196501
v 0.23040636 0.29044116 -0.23030303
v 0.24778062 0.28697735 -0.21798934
v 0.25541514 0.29541823 -0.20533569
v 0.25161058 0.29185355 -0.21130368
v 0.25921974 0.29901651 -0.19917884
v 0.28952959 0.26932219 -0.18950918
v 0.29480529 0.25472721 -0.19483505
v 0.22855479 0.27813295 -0.23895285
v 0.21490902 0.28489238 -0.24492082
v 0.15322404 0.28637204 -0.28654563
v 0.20788322 0.28738090 -0.24854694
v 0.32011843 0.23031262 -0.18014172
v 0.32024527 0.21063970 -0.19034018
v 0.30769014 0.24497484 -0.18694070
v 0.29556620 0.26575750 -0.18558089
v 0.29924396 0.26881775 -0.17904633
v 0.31009969 0.25015369 -0.18014172
v 0.31849515 0.23697114 -0.17791316
v 0.33201411 0.19500224 -0.18267244
v 0.33858335 0.18501446 -0.17798871
v 0.33959791 0.17842318 -0.17942405
v 0.34040955 0.17176466 -0.18059498
v 0.35017467 0.16086888 -0.17024544
v 0.35324368 0.12552488 -0.17583570
v 0.35986367 0.14919965 -0.15978257
v 0.35869694 0.12502044 -0.16809243
v 0.36004120 0.11025736 -0.17005658
v 0.35681999 0.10501124 -0.17560907
v 0.36044702 0.10501124 -0.17062315
v 0.36097968 0.09502345 -0.17137860
v 0.35725117 0.09502345 -0.17636451
v 0.35225451 0.09502345 -0.18282354
v 0.34824699 0.09502345 -0.18780945
v 0.34325030 0.09502345 -0.19377744
v 0.35258421 0.08500202 -0.18327680
v 0.35288858 0.07501423 -0.18373007
v 0.35605907 0.06896102 -0.17995286
v 0.35304078 0.06896102 -0.18380561
v 0.35149357 0.06896102 -0.18576977
v 0.34900790 0.06896102 -0.18879151
v 0.40630496 0.13500825 -0.01500221
v 0.40376854 0.14502966 -0.02501181
v 0.40024298 0.16100341 -0.02251885
v 0.39902550 0.16460170 -0.02554061
v 0.39529702 0.17502666 -0.03502140
v 0.39230406 0.18501446 -0.03502140
v 0.39009741 0.19029421 -0.04076276
v 0.38380718 0.20502368 -0.04503100
v 0.38089031 0.21211937 -0.04503100
v 0.38144833 0.21343090 -0.03502140
v 0.37929240 0.21844161 -0.03502140
v 0.37617263 0.22503288 -0.03502140
v 0.37181005 0.23569325 -0.02406751
v 0.36970484 0.23945969 -0.02678709
v 0.36742210 0.24399960 -0.02406751
v 0.36199424 0.25318030 -0.02501181
v 0.36729527 0.24510935 -0.01500221
v 0.37011069 0.24023315 -0.00503038
v 0.36734602 0.24521023 -0.00503038
v 0.36229861 0.25371835 0.00497922
v 0.36199424 0.25334844 0.01498882
v 0.35897592 0.25835913 0.01498882
v 0.35857010 0.25768656 0.02499843
v 0.35793599 0.25664407 0.03497025
v 0.35200086 0.26310083 0.04497986
v 0.35027611 0.26044413 0.06118406
v 0.34948984 0.25916624 0.06768087
v 0.35129067 0.25610602 0.06768087
v 0.35758090 0.24484032 0.06768087
v 0.36006656 0.24013227 0.06768087
v 0.36113185 0.23791276 0.06768087
v 0.37153104 0.21588582 0.06768087
v 0.37642628 0.20478827 0.06768087
v 0.37769449 0.20169440 0.06768087
v 0.38152441 0.19187476 0.06768087
v 0.41145381 0.06896102 -0.02501181
v 0.41066754 0.06896102 -0.03505918
v 0.41033781 0.06896102 -0.03891193
v 0.40993199 0.06896102 -0.04336903
v 0.40962762 0.06896102 -0.04631525
v 0.40932325 0.09455264 -0.03445482
v 0.40825796 0.10501124 -0.03502140
v 0.40721804 0.11503266 -0.03502140
v 0.40823260 0.11503266 -0.02501181
v 0.40714195 0.12502044 -0.02501181
v 0.40577230 0.13500825 -0.02501181
v 0.23180138 0.38113835 -0.07502203
v 0.23730534 0.37817901 -0.05500283
v 0.24227665 0.36778766 0.06768087
v 0.23740679 0.37821263 -0.06501243
v 0.15322404 0.40319893 -0.14482483
v 0.21285453 0.38147464 -0.12503226
v 0.20501709 0.38537562 -0.12503226
v 0.19776303 0.38887301 -0.12503226
v 0.19078796 0.39035267 -0.13103803
v 0.19276634 0.39119339 -0.12503226
v 0.23598641 0.37727103 -0.08503163
v 0.23679805 0.37780911 -0.07502203
v 0.24207374 0.37148684 -0.09500346
v 0.23421094 0.37690109 -0.09462574
v 0.23588496 0.37337008 -0.10565519
v 0.23357683 0.37232757 -0.11502266
v 0.22477557 0.37770820 -0.11555147
v 0.21960133 0.37975955 -0.11925314
v 0.32686523 0.20532632 -0.18463659
v 0.32957917 0.20889099 -0.17938627
v 0.33343449 0.20532632 -0.17560907
v 0.33865944 0.20502368 -0.16794133
v 0.33741662 0.19540580 -0.17470254
v 0.23834525 0.29804128 -0.21851814
v 0.23438849 0.29424122 -0.22444835
v 0.22513066 0.28539681 -0.23725310
v 0.21924624 0.28902873 -0.23944387
v 0.22444585 0.29427484 -0.23219164
v 0.22738805 0.29713330 -0.22799894
v 0.24876982 0.29851207 -0.20888627
v 0.24209911 0.30214399 -0.21183249
v 0.22845334 0.30839899 -0.21866924
v 0.25257438 0.30234578 -0.20223838
v 0.25582099 0.30570868 -0.19574159
v 0.25906757 0.30907157 -0.18894261
v 0.26211122 0.30237940 -0.19249319
v 0.26878193 0.29837757 -0.18845157
v 0.15322404 0.29198807 -0.28325948
v 0.20123789 0.29121462 -0.25077552
v 0.21257554 0.29276153 -0.24186128
v 0.15322404 0.29424122 -0.28193748
v 0.32087937 0.24171282 -0.17122751
v 0.32202074 0.23417994 -0.17474031
v 0.33138001 0.23273391 -0.16197336
v 0.32902116 0.22785771 -0.16865900
v 0.33277503 0.22473022 -0.16518398
v 0.33051765 0.22116555 -0.17069870
v 0.33181119 0.21501146 -0.17258731
v 0.31144398 0.24497484 -0.18191701
v 0.28077903 0.29094559 -0.18085939
v 0.29008758 0.29010487 -0.17013212
v 0.29929468 0.27904093 -0.16899896
v 0.30167890 0.27238241 -0.17236067
v 0.30832422 0.26740533 -0.16767693
v 0.31048018 0.26074681 -0.17062315
v 0.31182444 0.25408828 -0.17436260
v 0.31912926 0.24837135 -0.16869678
v 0.34198213 0.18501446 -0.17296502
v 0.34844992 0.17502666 -0.16745031
v 0.34302205 0.17506030 -0.17564684
v 0.34941375 0.16756104 -0.16907451
v 0.35920420 0.15501745 -0.15868717
v 0.36222249 0.15501745 -0.15370126
v 0.37049115 0.15202448 -0.14089653
v 0.37120134 0.14502966 -0.14202969
v 0.36823374 0.14502966 -0.14701560
v 0.37033895 0.12185933 -0.15056619
v 0.36199424 0.12502044 -0.16306874
v 0.36229861 0.11415830 -0.16548616
v 0.36407405 0.10501124 -0.16499512
v 0.36524081 0.09502345 -0.16499512
v 0.36970484 0.08500202 -0.15951817
v 0.36602709 0.08500202 -0.16499512
v 0.36130941 0.08500202 -0.17179409
v 0.35758090 0.08500202 -0.17678000
v 0.35791063 0.07501423 -0.17711996
v 0.35803747 0.06896102 -0.17730881
v 0.40285546 0.14502966 -0.03502140
v 0.40087706 0.15370592 -0.03502140
v 0.40120679 0.15582454 -0.02554061
v 0.39965960 0.15871663 -0.03502140
v 0.39803630 0.16500524 -0.03502140
v 0.39686957 0.16500524 -0.04503100
v 0.39407957 0.17502666 -0.04503100
v 0.39111197 0.18528348 -0.04446442
v 0.38961551 0.18878090 -0.04744842
v 0.38809368 0.19419515 -0.04446442
v 0.38033232 0.21090873 -0.05235878
v 0.37982506 0.20963083 -0.05900668
v 0.37875974 0.21713008 -0.04503100
v 0.37513274 0.22503288 -0.04503100
v 0.37135351 0.23259939 -0.04503100
v 0.37186077 0.23364188 -0.03502140
v 0.36924830 0.23865259 -0.03502140
v 0.36572272 0.24497484 -0.03502140
v 0.36146158 0.25250772 -0.03502140
v 0.35849401 0.25751841 -0.03502140
v 0.35884911 0.25819099 -0.02501181
v 0.36227322 0.25358385 -0.01500221
v 0.36234933 0.25378561 -0.00503038
v 0.35917884 0.25872907 0.00497922
v 0.35466406 0.26498404 0.01498882
v 0.35037756 0.27056643 0.02499843
v 0.35397923 0.26498404 0.02499843
v 0.35007319 0.27012926 0.03055091
v 0.35240668 0.26555574 0.03432812
v 0.34954056 0.26928854 0.03719880
v 0.34010518 0.28015068 0.05041903
v 0.34697881 0.26424420 0.06469688
v 0.34596425 0.26468140 0.06768087
v 0.40906960 0.06896102 -0.05054573
v 0.40863842 0.08500202 -0.04503100
v 0.40787750 0.09502345 -0.04503100
v 0.40696442 0.10501124 -0.04503100
v 0.40600058 0.11503266 -0.04503100
v 0.40610203 0.12502044 -0.03502140
v 0.40473238 0.13500825 -0.03502140
v 0.24389994 0.37316829 -0.05500283
v 0.24402677 0.37323555 -0.06501243
v 0.27907968 0.34202790 0.06768087
v 0.28088051 0.34068274 0.06768087
v 0.24372239 0.37279838 -0.07502203
v 0.15322404 0.40141660 -0.15049064
v 0.21785122 0.37881798 -0.12503226
v 0.21090153 0.38043213 -0.13096248
v 0.18175840 0.39085710 -0.14255850
v 0.24308830 0.37226033 -0.08503163
v 0.24707043 0.36775404 -0.09500346
v 0.24098310 0.37067977 -0.10274674
v 0.23979099 0.36983904 -0.10943239
v 0.23857352 0.36899832 -0.11502266
v 0.23164919 0.37101606 -0.12306811
v 0.22591695 0.37367272 -0.12582548
v 0.33708689 0.21511234 -0.16469294
v 0.34071392 0.21185035 -0.16114236
v 0.34182993 0.20502368 -0.16295543
v 0.34079000 0.19234556 -0.17118974
v 0.23167455 0.30174047 -0.22131328
v 0.22071734 0.30073160 -0.23052967
v 0.21554312 0.29565364 -0.23778191
v 0.23223256 0.31206453 -0.21198358
v 0.23887789 0.30880255 -0.20888627
v 0.21752149 0.30739012 -0.22807449
v 0.22178262 0.31159374 -0.22138882
v 0.24230203 0.31216544 -0.20223838
v 0.24559933 0.31556195 -0.19555272
v 0.25242221 0.31226632 -0.19230433
v 0.24889663 0.31892484 -0.18879151
v 0.25551662 0.31542742 -0.18554312
v 0.25861099 0.31862217 -0.17825311
v 0.26183221 0.31196365 -0.18225695
v 0.26530707 0.30533874 -0.18535426
v 0.27141976 0.30160594 -0.18176591
v 0.20948115 0.29945371 -0.23963273
v 0.15322404 0.29498106 -0.28148419
v 0.15322404 0.29844484 -0.27929342
v 0.32313675 0.24500845 -0.16522175
v 0.32965526 0.23939243 -0.15944262
v 0.33485487 0.23471801 -0.15472111
v 0.33997837 0.23000996 -0.14999960
v 0.33807608 0.22503288 -0.15672302
v 0.33936962 0.21850887 -0.15898935
v 0.28983396 0.29978999 -0.15974480
v 0.29191381 0.29245889 -0.16499512
v 0.29711339 0.28526229 -0.16541061
v 0.30160281 0.28213480 -0.16235107
v 0.31065771 0.27096999 -0.16099128
v 0.31230637 0.26444599 -0.16457963
v 0.31740451 0.25536618 -0.16522175
v 0.32131055 0.25230592 -0.16204889
v 0.34733391 0.18508172 -0.16450408
v 0.35793599 0.16500524 -0.15657194
v 0.35930565 0.17738068 -0.14879090
v 0.36092895 0.16500524 -0.15158603
v 0.36757427 0.15521923 -0.14452265
v 0.36965412 0.15871663 -0.13931011
v 0.37246951 0.15521923 -0.13557068
v 0.37896267 0.14502966 -0.12778962
v 0.37518346 0.14502966 -0.13496631
v 0.37964749 0.13695872 -0.12930050
v 0.37444788 0.11503266 -0.14497592
v 0.37082088 0.11503266 -0.15143494
v 0.36861420 0.10501124 -0.15762956
v 0.36782792 0.11503266 -0.15642086
v 0.36924830 0.09502345 -0.15872495
v 0.37267244 0.08500202 -0.15449448
v 0.37302750 0.07501423 -0.15487219
v 0.36990777 0.07501423 -0.15985811
v 0.36648363 0.07501423 -0.16499512
v 0.36156303 0.07501423 -0.17213404
v 0.36163914 0.06896102 -0.17232290
v 0.40135899 0.14590400 -0.04582421
v 0.40044588 0.15192360 -0.04302908
v 0.39925379 0.15515196 -0.04582421
v 0.39527166 0.16500524 -0.05500283
v 0.39014816 0.18047455 -0.06063087
v 0.39057934 0.18195422 -0.05500283
v 0.38898140 0.18693131 -0.05500283
v 0.38608992 0.19500224 -0.05500283
v 0.37832856 0.21454066 -0.05541833
v 0.37926704 0.20808390 -0.06501243
v 0.37642628 0.21501146 -0.06501243
v 0.37373769 0.22503288 -0.05500283
v 0.37069404 0.23138875 -0.05500283
v 0.36869031 0.23761010 -0.04503100
v 0.36813229 0.23639946 -0.05500283
v 0.36346534 0.24497484 -0.05500283
v 0.36087823 0.25153247 -0.04503100
v 0.35793599 0.25654319 -0.04503100
v 0.35233060 0.26353800 -0.05500283
v 0.35293931 0.26431146 -0.04503100
v 0.35291395 0.26585838 -0.03517249
v 0.35425824 0.26498404 -0.02501181
v 0.35476553 0.26498404 -0.01500221
v 0.35907739 0.25859454 -0.01500221
v 0.35922956 0.25879633 -0.00503038
v 0.35494307 0.26498404 0.00497922
v 0.35068193 0.27100363 0.01498882
v 0.34680125 0.27557716 0.02499843
v 0.34129730 0.28173125 0.03497025
v 0.34053639 0.28078964 0.04497986
v 0.33675715 0.28576672 0.04497986
v 0.33176047 0.29198807 0.04497986
v 0.33084738 0.29097921 0.05302531
v 0.32894507 0.28862518 0.06768087
v 0.33176047 0.28499326 0.06768087
v 0.33277503 0.28364810 0.06768087
v 0.33792388 0.27661964 0.06768087
v 0.34127194 0.27184436 0.06768087
v 0.34162703 0.27234879 0.06499904
v 0.34203285 0.27070096 0.06768087
v 0.40841013 0.06896102 -0.05500283
v 0.40800434 0.07501423 -0.05500283
v 0.40648249 0.09502345 -0.05500283
v 0.40562013 0.10501124 -0.05500283
v 0.40480846 0.12502044 -0.04503100
v 0.40447873 0.11503266 -0.05500283
v 0.40341347 0.13500825 -0.04503100
v 0.29315662 0.33267906 0.02499843
v 0.24902345 0.36913282 -0.06501243
v 0.25995529 0.35995212 -0.07502203
v 0.25495860 0.36398759 -0.07502203
v 0.24871908 0.36899832 -0.07502203
v 0.28585184 0.33647913 0.06768087
v 0.24808499 0.36852750 -0.08503163
v 0.15322404 0.40087855 -0.15219039
v 0.22984836 0.36987266 -0.12971599
v 0.22297473 0.37182313 -0.13496631
v 0.21452856 0.37680024 -0.13458860
v 0.17942494 0.38968009 -0.14920639
v 0.25346214 0.36274332 -0.09500346
v 0.25460351 0.36351681 -0.08503163
v 0.25960019 0.35964948 -0.08503163
v 0.25188959 0.36156631 -0.10501306
v 0.24458477 0.36714873 -0.10565519
v 0.25069746 0.36055744 -0.11184981
v 0.24565005 0.36351681 -0.11513598
v 0.24940391 0.35951495 -0.11853547
v 0.24296148 0.36230615 -0.12503226
v 0.23499721 0.36778766 -0.12582548
v 0.34289521 0.21511234 -0.15536323
v 0.34938836 0.20805027 -0.14890420
v 0.34710562 0.20485553 -0.15441893
v 0.34956592 0.18847823 -0.15925376
v 0.21452856 0.30443078 -0.23245604
v 0.22515604 0.31515840 -0.21511866
v 0.22852942 0.31872308 -0.20865963
v 0.23547913 0.31546107 -0.20544901
v 0.21087617 0.31071937 -0.23060521
v 0.21437638 0.31448582 -0.22444835
v 0.21787658 0.31825227 -0.21825373
v 0.23875108 0.31885758 -0.19880113
v 0.23829453 0.32857633 -0.18822494
v 0.24146502 0.33126664 -0.18157706
v 0.25196567 0.32168242 -0.18210587
v 0.24222593 0.32191783 -0.19215325
v 0.24047582 0.34038010 -0.17054760
v 0.24983510 0.33984202 -0.15974480
v 0.26124886 0.32104346 -0.17156745
v 0.27111539 0.31122380 -0.17141637
v 0.26850292 0.30826446 -0.17806426
v 0.15322404 0.30315286 -0.27589393
v 0.32853925 0.24588281 -0.15566541
v 0.32990891 0.24981740 -0.14981075
v 0.35121459 0.21292646 -0.14221856
v 0.34104365 0.22503288 -0.15173712
v 0.33830434 0.23670211 -0.14678897
v 0.34005445 0.24013227 -0.14010333
v 0.34101829 0.23401180 -0.14406939
v 0.34992102 0.22987545 -0.12982932
v 0.34883037 0.22594085 -0.13575953
v 0.34979421 0.21958499 -0.13961229
v 0.28004348 0.31001318 -0.16004696
v 0.28722146 0.30523786 -0.15585427
v 0.29183769 0.30207676 -0.15305914
v 0.29850841 0.29810855 -0.14735556
v 0.30117160 0.29145002 -0.15185043
v 0.29909179 0.28879333 -0.15853609
v 0.30824813 0.27762851 -0.15710075
v 0.31935751 0.25896448 -0.15895158
v 0.31025189 0.28038609 -0.15045287
v 0.31207809 0.27456829 -0.15426785
v 0.31917998 0.26875049 -0.14852649
v 0.32131055 0.26209196 -0.15230370
v 0.32354257 0.25536618 -0.15536323
v 0.35813892 0.18501446 -0.14690229
v 0.36021876 0.19073138 -0.14040549
v 0.36105576 0.18501446 -0.14187860
v 0.36765039 0.17509392 -0.13455082
v 0.37046576 0.17179829 -0.13092470
v 0.37135351 0.16500524 -0.13270000
v 0.38048452 0.15172182 -0.12114174
v 0.38129616 0.14502966 -0.12284148
v 0.38172734 0.10501124 -0.13349320
v 0.37860757 0.11503266 -0.13715710
v 0.38177806 0.13416752 -0.12556107
v 0.38581091 0.10501124 -0.12503226
v 0.37574145 0.10501124 -0.14497592
v 0.37148032 0.10501124 -0.15264365
v 0.37924168 0.10501124 -0.13847911
v 0.37211442 0.09502345 -0.15370126
v 0.37766910 0.08500202 -0.14569359
v 0.37802422 0.07501423 -0.14641126
v 0.37619799 0.06896102 -0.15007515
v 0.37140423 0.06896102 -0.15770510
v 0.36694020 0.06896102 -0.16442853
v 0.40067416 0.14314644 -0.05330309
v 0.39993861 0.14980498 -0.04971474
v 0.39780805 0.15501745 -0.05500283
v 0.39329326 0.16500524 -0.06501243
v 0.38411152 0.19500224 -0.06501243
v 0.39030033 0.17105845 -0.07139592
v 0.38953942 0.16836813 -0.07804380
v 0.38588703 0.17502666 -0.08503163
v 0.38286871 0.18501446 -0.08503163
v 0.38002795 0.19015968 -0.09016864
v 0.38063669 0.19197564 -0.08503163
v 0.37898803 0.19698635 -0.08503163
v 0.37969822 0.19917223 -0.07868592
v 0.38114396 0.20307319 -0.06501243
v 0.37183541 0.22550368 -0.06471026
v 0.38040841 0.20115635 -0.07203804
v 0.37837929 0.20472100 -0.07521089
v 0.37434644 0.21501146 -0.07502203
v 0.37115058 0.22254434 -0.07502203
v 0.36960340 0.22916923 -0.06788311
v 0.37021214 0.23044714 -0.06119745
v 0.36770111 0.23428084 -0.06471026
v 0.36196887 0.24551289 -0.06410590
v 0.35958466 0.24921207 -0.06686327
v 0.36001584 0.25001916 -0.06017761
v 0.35732728 0.25553432 -0.05500283
v 0.35167113 0.26263002 -0.06501243
v 0.34844992 0.26760709 -0.06501243
v 0.34903330 0.26854870 -0.05500283
v 0.35017467 0.27023014 -0.03196187
v 0.34025738 0.28035247 -0.06202844
v 0.35040292 0.27056643 -0.02501181
v 0.35065657 0.27093637 -0.01500221
v 0.35501915 0.26498404 -0.00503038
v 0.35075802 0.27107087 0.00497922
v 0.34702954 0.27598071 0.01498882
v 0.34180456 0.28220206 0.02499843
v 0.33736590 0.28670833 0.03497025
v 0.33236921 0.29262704 0.03497025
v 0.32770225 0.29763773 0.03497025
v 0.32706815 0.29696515 0.04497986
v 0.29143187 0.33146843 0.06768087
v 0.29975122 0.32235500 0.06768087
v 0.30928805 0.31156009 0.06768087
v 0.31971261 0.29965547 0.06768087
v 0.32232511 0.29659525 0.06768087
v 0.40764922 0.06896102 -0.05896890
v 0.40612739 0.07501423 -0.06501243
v 0.40541720 0.08500202 -0.06501243
v 0.40463093 0.09502345 -0.06501243
v 0.40381929 0.10501124 -0.06501243
v 0.40313447 0.12502044 -0.05500283
v 0.40267789 0.11503266 -0.06501243
v 0.40138435 0.13598348 -0.05598491
v 0.29011297 0.33281359 0.06768087
v 0.29282689 0.33237642 0.03497025
v 0.29815331 0.32817280 0.02499843
v 0.30812132 0.31831953 -0.04503100
v 0.30312464 0.32275856 -0.04503100
v 0.29744312 0.32776925 -0.04503100
v 0.29237035 0.33207375 -0.05500283
v 0.28666347 0.33708447 -0.05500283
v 0.28169215 0.34142259 -0.05500283
v 0.26500270 0.35554674 -0.07502203
v 0.15322404 0.39892805 -0.15713853
v 0.24121137 0.36092737 -0.13213341
v 0.23555523 0.36355042 -0.13526849
v 0.22797142 0.36872929 -0.13496631
v 0.22079344 0.37044436 -0.14085875
v 0.17945030 0.37969232 -0.16937667
v 0.15322404 0.39156333 -0.17304057
v 0.15322404 0.39193326 -0.17228512
v 0.15322404 0.39522886 -0.16544838
v 0.25845882 0.35867423 -0.09500346
v 0.27037984 0.35033426 -0.08242536
v 0.26591581 0.35393256 -0.08548489
v 0.26987258 0.34982982 -0.08911102
v 0.26419106 0.35366353 -0.09500346
v 0.26776737 0.34808111 -0.10501306
v 0.26109666 0.35090595 -0.11502266
v 0.26018357 0.35013250 -0.12038630
v 0.24795817 0.35830432 -0.12503226
v 0.34834844 0.21575129 -0.14531587
v 0.35907739 0.19738990 -0.13817695
v 0.22495311 0.32491079 -0.20492020
v 0.22807288 0.32844183 -0.19819677
v 0.23208037 0.32174969 -0.20197397
v 0.22185872 0.32141340 -0.21156809
v 0.15322404 0.32154790 -0.26116282
v 0.15322404 0.32669312 -0.25670570
v 0.16004692 0.34001017 -0.24001046
v 0.21120590 0.32084170 -0.22086000
v 0.15322404 0.31687349 -0.26509112
v 0.21430027 0.32447362 -0.21440099
v 0.23520014 0.32517982 -0.19517501
v 0.23162383 0.33126664 -0.19154888
v 0.23454067 0.33459592 -0.18448551
v 0.23745751 0.33792520 -0.17723326
v 0.23446459 0.34226331 -0.17432481
v 0.22923961 0.34949353 -0.16918781
v 0.23530158 0.34740853 -0.16548616
v 0.23882717 0.34912363 -0.15853609
v 0.24273321 0.34212881 -0.16499512
v 0.23078682 0.34054825 -0.18074608
v 0.24565005 0.34545806 -0.15581650
v 0.24813572 0.34845105 -0.14709115
v 0.25199103 0.34179252 -0.15305914
v 0.26888338 0.32887900 -0.14814878
v 0.26221266 0.33207375 -0.15324800
v 0.27015159 0.32013547 -0.16019806
v 0.26791954 0.31788236 -0.16688372
v 0.32858998 0.25570247 -0.14588244
v 0.33163366 0.25287762 -0.14316286
v 0.35326904 0.21575129 -0.13575953
v 0.35950857 0.20875648 -0.12888502
v 0.35788527 0.20525907 -0.13489076
v 0.33865944 0.24742974 -0.13496631
v 0.33990228 0.24978377 -0.12975377
v 0.34124658 0.24241903 -0.13496631
v 0.35139212 0.22321692 -0.13292663
v 0.34875429 0.23569325 -0.12590101
v 0.35136676 0.23280115 -0.12321920
v 0.35955930 0.21901330 -0.11891318
v 0.35829109 0.21541500 -0.12533444
v 0.28166679 0.31172824 -0.15498552
v 0.28881940 0.30873528 -0.14799768
v 0.29462773 0.30459893 -0.14433379
v 0.30038533 0.30046257 -0.14070767
v 0.30274418 0.29484653 -0.14440933
v 0.30814669 0.28744817 -0.14497592
v 0.30472255 0.28458971 -0.15449448
v 0.30966851 0.28956679 -0.13934788
v 0.31172299 0.28243744 -0.14497592
v 0.31872344 0.27816659 -0.13742150
v 0.32100618 0.27147442 -0.14184083
v 0.32323819 0.26525307 -0.14508924
v 0.32973135 0.25953615 -0.13942342
v 0.36955267 0.17845681 -0.12914942
v 0.37033895 0.19086589 -0.12068847
v 0.37117594 0.18501446 -0.12238821
v 0.37419426 0.18501446 -0.11502266
v 0.38187951 0.15505108 -0.11532484
v 0.38446665 0.14502966 -0.11502266
v 0.38631821 0.13500825 -0.11502266
v 0.38190490 0.09431724 -0.13560843
v 0.38705376 0.09502345 -0.12503226
v 0.38971695 0.09502345 -0.11925314
v 0.37751693 0.09431724 -0.14403161
v 0.37967286 0.09717570 -0.13938566
v 0.38038304 0.08500202 -0.14070767
v 0.38076350 0.07501423 -0.14138757
v 0.38091570 0.06896102 -0.14172752
v 0.37817639 0.06896102 -0.14671344
v 0.39998934 0.13995169 -0.05998874
v 0.39595649 0.14502966 -0.07502203
v 0.39955816 0.14590400 -0.05598491
v 0.39582968 0.15501745 -0.06501243
v 0.39374983 0.15501745 -0.07502203
v 0.39045250 0.16170961 -0.08197209
v 0.38872778 0.16503888 -0.08518273
v 0.38329989 0.17502666 -0.09500346
v 0.38078886 0.18434188 -0.09413470
v 0.37911487 0.18726760 -0.09685429
v 0.37424499 0.19500224 -0.10501306
v 0.37759301 0.19409427 -0.09413470
v 0.37353480 0.20502368 -0.09500346
v 0.37604582 0.20502368 -0.08503163
v 0.37188613 0.21538138 -0.08495609
v 0.37041503 0.22089651 -0.08159438
v 0.36524081 0.23502067 -0.07502203
v 0.35983831 0.23969509 -0.08929987
v 0.36143622 0.24278896 -0.07502203
v 0.35887447 0.24776603 -0.07502203
v 0.35466406 0.25499624 -0.07502203
v 0.35709900 0.25402102 -0.06410590
v 0.35078338 0.26121759 -0.07502203
v 0.34763825 0.26622832 -0.07502203
v 0.34261620 0.27396297 -0.07502203
v 0.33980083 0.27974713 -0.06871410
v 0.34292057 0.27584618 -0.06523906
v 0.34101829 0.28136134 -0.04503100
v 0.34139875 0.28179851 -0.03502140
v 0.34058711 0.28078964 -0.05500283
v 0.33696008 0.28421980 -0.06523906
v 0.33132929 0.29161817 -0.06501243
v 0.33683324 0.28580034 -0.05500283
v 0.34700418 0.27594706 -0.01500221
v 0.35078338 0.27110451 -0.00503038
v 0.34713098 0.27611521 -0.00503038
v 0.34203285 0.28247109 0.01498882
v 0.34208357 0.28260559 0.00497922
v 0.33761954 0.28721276 0.02499843
v 0.33262283 0.29292968 0.02499843
v 0.32808271 0.29794040 0.02499843
v 0.30279490 0.32282579 0.03497025
v 0.32308602 0.30311924 0.02499843
v 0.40564549 0.06896102 -0.06897850
v 0.40414903 0.07501423 -0.07502203
v 0.40338808 0.08500202 -0.07502203
v 0.40075025 0.09502345 -0.08276531
v 0.40125751 0.10595284 -0.07600410
v 0.39996397 0.10988744 -0.07997017
v 0.40082633 0.11503266 -0.07362446
v 0.39986253 0.12908955 -0.06935622
v 0.40031907 0.12243102 -0.07154700
v 0.29782358 0.32783651 0.03497025
v 0.30317536 0.32316208 0.02499843
v 0.31841907 0.30843261 0.01498882
v 0.31857124 0.30860075 0.00497922
v 0.31867272 0.30870163 -0.03502140
v 0.31359991 0.31334245 -0.04503100
v 0.30292171 0.32262403 -0.05500283
v 0.29214206 0.33193922 -0.06501243
v 0.28651127 0.33694994 -0.06501243
v 0.28153998 0.34132171 -0.06501243
v 0.27065885 0.35056967 -0.07502203
v 0.25168666 0.35134313 -0.13496631
v 0.25026628 0.35019976 -0.14044327
v 0.23925835 0.35944769 -0.13881907
v 0.23200428 0.36133093 -0.14497592
v 0.23007663 0.36001939 -0.15003738
v 0.22421756 0.36136454 -0.15404122
v 0.22036225 0.36018753 -0.16034915
v 0.18188524 0.37115055 -0.18195477
v 0.17567107 0.37824625 -0.17553353
v 0.15322404 0.38497204 -0.18512763
v 0.15322404 0.38914204 -0.17768654
v 0.29097533 0.33089674 -0.08503163
v 0.29176161 0.33160293 -0.07502203
v 0.29599738 0.32622230 -0.08503163
v 0.27958694 0.33960664 -0.09500346
v 0.27459025 0.34424743 -0.09500346
v 0.26918775 0.34925812 -0.09500346
v 0.27347425 0.34307042 -0.10501306
v 0.27187631 0.34165800 -0.11502266
v 0.26611871 0.34663507 -0.11502266
v 0.27065885 0.34061551 -0.12136837
v 0.25863636 0.34875369 -0.12703419
v 0.25518689 0.35272193 -0.12423905
v 0.36077675 0.20206432 -0.13152906
v 0.22140217 0.33103126 -0.20118076
v 0.21739468 0.32807189 -0.20786643
v 0.15322404 0.34249872 -0.24254119
v 0.17092803 0.35060328 -0.22067115
v 0.22721051 0.33792520 -0.18739396
v 0.22429365 0.33449504 -0.19434401
v 0.22703296 0.35813618 -0.15672302
v 0.23215647 0.35144401 -0.16250215
v 0.22556186 0.34771121 -0.17549574
v 0.18059167 0.36042294 -0.20065196
v 0.23443922 0.35460514 -0.15430562
v 0.24146502 0.35107410 -0.15185043
v 0.22053981 0.34034646 -0.19045350
v 0.24488914 0.35245287 -0.14425825
v 0.27101395 0.33082947 -0.14150089
v 0.27499607 0.32497805 -0.14493814
v 0.28105804 0.32111073 -0.14168975
v 0.27895284 0.31892484 -0.14833763
v 0.36095431 0.21235478 -0.12223712
v 0.36896929 0.19755805 -0.11762893
v 0.33127856 0.26215923 -0.13277553
v 0.33282575 0.26528671 -0.12507004
v 0.34134802 0.25223869 -0.12314366
v 0.34824699 0.24524386 -0.11562701
v 0.34360540 0.24588281 -0.12586324
v 0.34971809 0.23945969 -0.11936645
v 0.35309151 0.23569325 -0.11562701
v 0.35818964 0.22516739 -0.11536261
v 0.36082751 0.22193901 -0.11222753
v 0.37038967 0.20095457 -0.11098105
v 0.29074705 0.31082028 -0.14131203
v 0.29231963 0.31256896 -0.13496631
v 0.29731631 0.30702019 -0.13496631
v 0.30180570 0.30200949 -0.13496631
v 0.30867934 0.29834393 -0.12692086
v 0.30725896 0.29501468 -0.13560843
v 0.31126645 0.29168540 -0.13266222
v 0.32037207 0.28052062 -0.13077362
v 0.32240120 0.27487093 -0.13443750
v 0.32927480 0.26881775 -0.12835620
v 0.32800663 0.26528671 -0.13564621
v 0.37135351 0.19453144 -0.11460717
v 0.37931776 0.17502666 -0.10788374
v 0.38246289 0.16594686 -0.10595736
v 0.37787202 0.18434188 -0.10437094
v 0.38096642 0.17502666 -0.10286005
v 0.38563338 0.15501745 -0.10501306
v 0.38819513 0.14425620 -0.10418207
v 0.38910824 0.13500825 -0.10693944
v 0.38966623 0.12673552 -0.10897913
v 0.38997060 0.08981097 -0.11997080
v 0.38317308 0.08500202 -0.13496631
v 0.39151779 0.09502345 -0.11426722
v 0.38385791 0.07501423 -0.13496631
v 0.38297015 0.06896102 -0.13753481
v 0.39765584 0.13500825 -0.07502203
v 0.39537311 0.13500825 -0.08503163
v 0.39364836 0.14502966 -0.08503163
v 0.39136562 0.15515196 -0.08518273
v 0.38964087 0.15854849 -0.08861998
v 0.38616601 0.16500524 -0.09500346
v 0.38015479 0.18057543 -0.10059373
v 0.37109986 0.20458649 -0.10429539
v 0.37016141 0.21040429 -0.10051818
v 0.37087160 0.21201849 -0.09500346
v 0.36501253 0.22503288 -0.09500346
v 0.36136013 0.23303656 -0.09500346
v 0.35902667 0.23804727 -0.09500346
v 0.35542497 0.24497484 -0.09500346
v 0.35811356 0.24467218 -0.08559822
v 0.35230523 0.25543344 -0.08450282
v 0.34943908 0.25906536 -0.08752459
v 0.35017467 0.26027599 -0.08083893
v 0.34160167 0.27244967 -0.08503163
v 0.33926818 0.27897367 -0.07502203
v 0.33480415 0.28499326 -0.07502203
v 0.33051765 0.29064292 -0.07502203
v 0.33726442 0.28637204 -0.04503100
v 0.34200749 0.28253835 -0.01500221
v 0.32714424 0.29662886 -0.06501243
v 0.32772762 0.29726782 -0.05500283
v 0.33183655 0.29229075 -0.05500283
v 0.34210894 0.28267285 -0.00503038
v 0.33787316 0.28744817 0.01498882
v 0.33802536 0.28761631 0.00497922
v 0.33285111 0.29323235 0.01498882
v 0.32836169 0.29820943 0.01498882
v 0.32336503 0.30342191 0.01498882
v 0.40437728 0.06896102 -0.07502203
v 0.40214527 0.06896102 -0.08503163
v 0.40184090 0.07501423 -0.08503163
v 0.40097854 0.08416131 -0.08552267
v 0.39976108 0.08691888 -0.08918656
v 0.39549994 0.11503266 -0.09500346
v 0.39816314 0.11503266 -0.08503163
v 0.39968497 0.11503266 -0.07861038
v 0.39912695 0.12545763 -0.07494649
v 0.39686957 0.12502044 -0.08503163
v 0.32359329 0.30362368 0.00497922
v 0.32333964 0.30369094 -0.03502140
v 0.31859660 0.30856714 -0.04503100
v 0.32858998 0.29844484 0.00497922
v 0.32853925 0.29841119 -0.00503038
v 0.31316873 0.31307340 -0.05500283
v 0.30791840 0.31808412 -0.05500283
v 0.30256662 0.32235500 -0.06501243
v 0.27273870 0.33241004 -0.13496631
v 0.23700097 0.35790077 -0.14497592
v 0.17851183 0.36913282 -0.18860266
v 0.17511308 0.37300014 -0.18516541
v 0.15322404 0.37901974 -0.19536386
v 0.29675829 0.32692853 -0.07502203
v 0.30124772 0.32124525 -0.08503163
v 0.30056289 0.32053903 -0.09186838
v 0.27847093 0.33853051 -0.10501306
v 0.27687299 0.33688268 -0.11502266
v 0.28065223 0.33062771 -0.12163277
v 0.27930793 0.32931620 -0.12824288
v 0.27773538 0.32780290 -0.13496631
v 0.17455506 0.35305822 -0.21477872
v 0.18125114 0.35120863 -0.21130368
v 0.17501162 0.35837156 -0.20797974
v 0.21668449 0.33768979 -0.19713914
v 0.15322404 0.34912363 -0.23536450
v 0.16998956 0.35998577 -0.20994389
v 0.15322404 0.35776627 -0.22550598
v 0.15322404 0.36990631 -0.20979279
v 0.15322404 0.37337008 -0.20454249
v 0.17511308 0.36708146 -0.19494838
v 0.28278279 0.32282579 -0.13496631
v 0.28777948 0.31757969 -0.13496631
v 0.33072054 0.27113813 -0.12174609
v 0.33934426 0.25889722 -0.11842215
v 0.34281912 0.25533253 -0.11506043
v 0.34933764 0.24877490 -0.10799705
v 0.35106239 0.24211638 -0.11268079
v 0.35935637 0.22859755 -0.10818592
v 0.36894393 0.20761310 -0.10716607
v 0.29899031 0.30890343 -0.12778962
v 0.30459574 0.30449802 -0.12405019
v 0.31009969 0.30012628 -0.12027298
v 0.31243318 0.29501468 -0.12416350
v 0.31796253 0.28724641 -0.12503226
v 0.32166564 0.28223568 -0.12503226
v 0.32689059 0.27466917 -0.12507004
v 0.38872778 0.15515196 -0.09492791
v 0.38943797 0.14708102 -0.09817632
v 0.39095980 0.14425620 -0.09492791
v 0.39263380 0.13500825 -0.09500346
v 0.39420637 0.12502044 -0.09500346
v 0.39230406 0.11503266 -0.10501306
v 0.39169535 0.08587638 -0.11600474
v 0.39024961 0.08311881 -0.12053739
v 0.39342010 0.10501124 -0.10501306
v 0.39448535 0.09502345 -0.10501306
v 0.39534774 0.08500202 -0.10501306
v 0.38418764 0.06896102 -0.13496631
v 0.39042714 0.15188996 -0.09152843
v 0.36047238 0.23105246 -0.10153803
v 0.35758090 0.23461713 -0.10493752
v 0.35220376 0.24524386 -0.10482420
v 0.35040292 0.25072539 -0.10134917
v 0.35136676 0.25233957 -0.09500346
v 0.34068856 0.27103725 -0.09254828
v 0.34695345 0.26414332 -0.08450282
v 0.34847528 0.25735027 -0.09500346
v 0.34319958 0.26575750 -0.09553227
v 0.33825362 0.27746037 -0.08503163
v 0.33259746 0.28546405 -0.08408733
v 0.33001035 0.29000396 -0.08012126
v 0.32633260 0.29561999 -0.07502203
v 0.31989017 0.29989088 -0.08960205
v 0.32057500 0.30066434 -0.08295417
v 0.33226776 0.29279518 -0.04503100
v 0.33797461 0.28754905 -0.01500221
v 0.32133591 0.30153868 -0.07502203
v 0.32214755 0.30241305 -0.06501243
v 0.32273093 0.30305198 -0.05500283
v 0.32815880 0.29780588 -0.04503100
v 0.33805072 0.28768358 -0.00503038
v 0.33302867 0.29346776 0.00497922
v 0.40153652 0.06896102 -0.08737350
v 0.40044588 0.06896102 -0.09152843
v 0.40026835 0.07501423 -0.09092408
v 0.32833636 0.29800764 -0.03502140
v 0.32316211 0.30355641 -0.04503100
v 0.33305404 0.29343411 -0.00503038
v 0.33297795 0.29329962 -0.01500221
v 0.31816542 0.30806270 -0.05500283
v 0.31266147 0.31270349 -0.06501243
v 0.30756330 0.31768057 -0.06501243
v 0.30203399 0.32191783 -0.07502203
v 0.30624440 0.31603277 -0.08503163
v 0.30703068 0.31704164 -0.07502203
v 0.31192592 0.31203091 -0.07502203
v 0.31096208 0.31102204 -0.08503163
v 0.31030262 0.31031585 -0.09126402
v 0.30944026 0.30937421 -0.09791191
v 0.29952297 0.31949654 -0.09855404
v 0.28856575 0.32854271 -0.10501306
v 0.28356907 0.33351979 -0.10501306
v 0.28192043 0.33187199 -0.11502266
v 0.29062024 0.32057267 -0.12159500
v 0.28932667 0.31926113 -0.12824288
v 0.15322404 0.36630800 -0.21477872
v 0.32874218 0.27813295 -0.11502266
v 0.33201411 0.27315587 -0.11502266
v 0.34066319 0.26108310 -0.11173649
v 0.34713098 0.25442457 -0.10482420
v 0.30051216 0.31055123 -0.12117951
v 0.31935751 0.28912961 -0.11845992
v 0.30662486 0.30621311 -0.11502266
v 0.31106353 0.30120239 -0.11502266
v 0.31781033 0.29730144 -0.10501306
v 0.32070181 0.29087833 -0.11181203
v 0.32341576 0.28546405 -0.11509821
v 0.39593112 0.07501423 -0.10501306
v 0.39255771 0.07501423 -0.11502266
v 0.39037642 0.07501423 -0.12087733
v 0.38824585 0.06896102 -0.12605211
v 0.39986253 0.06896102 -0.09349258
v 0.39780805 0.06896102 -0.10014047
v 0.33975008 0.26962483 -0.09923393
v 0.33744198 0.27460191 -0.09553227
v 0.34190601 0.26303357 -0.10501306
v 0.33198875 0.28270650 -0.09500346
v 0.32930017 0.28909600 -0.08680692
v 0.31671968 0.30439714 -0.08578707
v 0.31925607 0.29905015 -0.09500346
v 0.31357455 0.30560780 -0.09477682
v 0.31694797 0.30654940 -0.07502203
v 0.31765816 0.30742374 -0.06501243
v 0.31281364 0.30315286 -0.10501306
v 0.30832422 0.30812997 -0.10501306
v 0.30330217 0.31344333 -0.10501306
v 0.29845768 0.31842041 -0.10501306
v 0.29178697 0.32185057 -0.11502266
v 0.28689176 0.32682765 -0.11502266
v 0.32980746 0.27971351 -0.10947017
v 0.33878627 0.26804426 -0.10501306
v 0.29678366 0.31670535 -0.11502266
v 0.30162817 0.31169462 -0.11502266
v 0.32323819 0.29407308 -0.09500346
v 0.32176709 0.29232436 -0.10501306
v 0.32729644 0.28469059 -0.10569296
v 0.33087274 0.28115955 -0.10278451
v 0.39621013 0.06896102 -0.10501306
v 0.39486584 0.06896102 -0.10897913
v 0.39273527 0.06896102 -0.11502266
v 0.39187288 0.06896102 -0.11732676
v 0.39045250 0.06896102 -0.12106619
v 0.32823488 0.28771719 -0.09500346
f 1 2 3
f 1 3 7
f 1 7 14
f 1 14 24
f 1 24 45
f 1 45 64
f 1 64 95
f 1 95 94
f 1 94 93
f 1 93 92
f 1 92 117
f 1 117 118
f 1 118 116
f 1 116 126
f 1 126 125
f 1 125 124
f 1 124 123
f 1 123 122
f 1 122 156
f 1 156 160
f 1 160 206
f 1 206 269
f 1 269 268
f 1 268 267
f 1 267 266
f 1 266 265
f 1 265 348
f 1 348 443
f 1 443 442
f 1 442 441
f 1 441 440
f 1 440 566
f 1 566 680
f 1 680 815
f 1 815 814
f 1 814 813
f 1 813 968
f 1 968 967
f 1 967 1110
f 1 1110 1212
f 1 1212 1275
f 1 1275 1306
f 1 1306 1305
f 1 1305 1304
f 1 1304 1303
f 1 1303 1302
f 1 1302 1277
f 1 1277 1276
f 1 1276 1238
f 1 1238 1237
f 1 1237 1145
f 1 1145 1144
f 1 1144 1012
f 1 1012 862
f 1 862 721
f 1 721 600
f 1 600 483
f 1 483 482
f 1 482 481
f 1 481 480
f 1 480 479
f 1 479 377
f 1 377 285
f 1 285 214
f 1 214 168
f 1 168 132
f 1 132 99
f 1 99 68
f 1 68 49
f 1 49 46
f 1 46 26
f 1 26 16
f 1 16 8
f 1 8 4
f 1 4 9
f 1 9 18
f 1 18 33
f 1 33 58
f 1 58 81
f 1 81 111
f 1 111 145
f 1 145 179
f 1 179 229
f 1 229 298
f 1 298 388
f 1 388 494
f 1 494 612
f 1 612 735
f 1 735 880
f 1 880 888
f 1 888 887
f 1 887 886
f 1 886 1042
f 1 1042 1041
f 1 1041 1166
f 1 1166 1183
f 1 1183 1182
f 1 1182 1260
f 1 1260 1181
f 1 1181 1179
f 1 1179 1058
f 1 1058 905
f 1 905 904
f 1 904 908
f 1 908 771
f 1 771 645
f 1 645 644
f 1 644 530
f 1 530 527
f 1 527 413
f 1 413 320
f 1 320 252
f 1 252 195
f 1 195 194
f 1 194 192
f 1 192 150
f 1 150 114
f 1 114 85
f 1 85 82
f 1 82 59
f 1 59 38
f 1 38 20
f 1 20 10
f 1 10 5
f 1 5 2
f 2 5 3
f 3 6 7
f 3 5 6
f 4 8 15
f 4 15 25
f 4 25 28
f 4 28 48
f 4 48 67
f 4 67 66
f 4 66 97
f 4 97 129
f 4 129 128
f 4 128 127
f 4 127 162
f 4 162 207
f 4 207 270
f 4 270 349
f 4 349 376
f 4 376 375
f 4 375 374
f 4 374 478
f 4 478 477
f 4 477 476
f 4 476 475
f 4 475 474
f 4 474 473
f 4 473 472
f 4 472 372
f 4 372 471
f 4 471 470
f 4 470 599
f 4 599 720
f 4 720 718
f 4 718 717
f 4 717 716
f 4 716 715
f 4 715 714
f 4 714 861
f 4 861 860
f 4 860 859
f 4 859 858
f 4 858 857
f 4 857 870
f 4 870 733
f 4 733 610
f 4 610 609
f 4 609 492
f 4 492 386
f 4 386 296
f 4 296 228
f 4 228 225
f 4 225 177
f 4 177 143
f 4 143 109
f 4 109 79
f 4 79 57
f 4 57 56
f 4 56 55
f 4 55 36
f 4 36 35
f 4 35 34
f 4 34 19
f 4 19 9
f 5 10 6
f 6 11 12
f 6 12 13
f 6 13 7
f 6 10 11
f 7 13 14
f 8 16 17
f 8 17 15
f 9 19 18
f 10 20 21
f 10 21 11
f 11 21 12
f 12 21 22
f 12 22 13
f 13 22 23
f 13 23 14
f 14 23 24
f 15 17 25
f 16 26 17
f 17 27 28
f 17 28 25
f 17 26 29
f 17 29 30
f 17 30 27
f 18 31 32
f 18 32 33
f 18 19 34
f 18 34 35
f 18 35 36
f 18 36 31
f 20 37 21
f 20 38 39
f 20 39 40
f 20 40 41
f 20 41 37
f 21 37 22
f 22 37 42
f 22 42 43
f 22 43 44
f 22 44 23
f 23 44 45
f 23 45 24
f 26 46 29
f 27 47 48
f 27 48 28
f 27 30 47
f 29 46 49
f 29 49 50
f 29 50 51
f 29 51 30
f 30 51 70
f 30 70 52
f 30 52 47
f 31 53 54
f 31 54 32
f 31 36 55
f 31 55 56
f 31 56 57
f 31 57 53
f 32 54 33
f 33 54 58
f 37 41 40
f 37 40 42
f 38 59 60
f 38 60 40
f 38 40 39
f 40 60 42
f 42 60 61
f 42 61 62
f 42 62 63
f 42 63 43
f 43 64 45
f 43 45 44
f 43 63 64
f 47 65 66
f 47 66 67
f 47 67 48
f 47 52 74
f 47 74 65
f 49 68 50
f 50 68 69
f 50 69 51
f 51 69 71
f 51 71 72
f 51 72 70
f 52 70 73
f 52 73 74
f 53 75 76
f 53 76 77
f 53 77 54
f 53 57 75
f 54 77 78
f 54 78 58
f 57 79 80
f 57 80 75
f 58 78 81
f 59 82 60
f 60 83 84
f 60 84 61
f 60 82 85
f 60 85 83
f 61 86 87
f 61 87 62
f 61 84 88
f 61 88 89
f 61 89 90
f 61 90 91
f 61 91 86
f 62 87 92
f 62 92 93
f 62 93 63
f 63 93 94
f 63 94 95
f 63 95 64
f 65 96 97
f 65 97 66
f 65 74 98
f 65 98 96
f 68 99 69
f 69 100 101
f 69 101 72
f 69 72 71
f 69 99 102
f 69 102 100
f 70 72 73
f 72 101 103
f 72 103 104
f 72 104 73
f 73 105 74
f 73 104 105
f 74 105 98
f 75 80 76
f 76 106 107
f 76 107 77
f 76 80 106
f 77 107 108
f 77 108 78
f 78 108 81
f 79 109 110
f 79 110 80
f 80 110 139
f 80 139 106
f 81 108 112
f 81 112 111
f 83 113 84
f 83 85 113
f 84 113 88
f 85 114 115
f 85 115 113
f 86 91 116
f 86 116 87
f 87 117 92
f 87 116 118
f 87 118 117
f 88 119 120
f 88 120 89
f 88 113 119
f 89 120 90
f 90 121 122
f 90 122 123
f 90 123 124
f 90 124 125
f 90 125 126
f 90 126 116
f 90 116 91
f 90 120 121
f 96 127 128
f 96 128 129
f 96 129 97
f 96 98 130
f 96 130 127
f 98 105 131
f 98 131 130
f 99 132 133
f 99 133 102
f 100 134 101
f 100 102 135
f 100 135 134
f 101 134 103
f 102 133 135
f 103 134 136
f 103 136 137
f 103 137 104
f 104 138 105
f 104 137 138
f 105 138 166
f 105 166 131
f 106 139 140
f 106 140 107
f 107 140 141
f 107 141 142
f 107 142 108
f 108 142 112
f 109 143 144
f 109 144 110
f 110 144 139
f 111 112 142
f 111 142 146
f 111 146 145
f 113 115 147
f 113 147 148
f 113 148 149
f 113 149 119
f 114 150 151
f 114 151 115
f 115 152 148
f 115 148 147
f 115 151 152
f 119 149 188
f 119 188 153
f 119 153 120
f 120 153 154
f 120 154 155
f 120 155 121
f 121 156 122
f 121 155 157
f 121 157 158
f 121 158 159
f 121 159 160
f 121 160 156
f 127 161 162
f 127 130 163
f 127 163 161
f 130 131 164
f 130 164 165
f 130 165 163
f 131 166 167
f 131 167 164
f 132 168 133
f 133 168 169
f 133 169 135
f 134 135 170
f 134 170 136
f 135 169 171
f 135 171 170
f 136 172 137
f 136 170 173
f 136 173 172
f 137 172 138
f 138 172 211
f 138 211 166
f 139 174 175
f 139 175 140
f 139 144 174
f 140 175 141
f 141 176 146
f 141 146 142
f 141 175 176
f 143 177 178
f 143 178 144
f 144 178 174
f 145 146 179
f 146 176 180
f 146 180 181
f 146 181 182
f 146 182 183
f 146 183 184
f 146 184 179
f 148 185 186
f 148 186 187
f 148 187 188
f 148 188 149
f 148 152 189
f 148 189 190
f 148 190 191
f 148 191 185
f 150 192 151
f 151 193 189
f 151 189 152
f 151 192 194
f 151 194 195
f 151 195 193
f 153 188 196
f 153 196 197
f 153 197 154
f 154 197 198
f 154 198 199
f 154 199 155
f 155 199 200
f 155 200 157
f 157 200 201
f 157 201 202
f 157 202 158
f 158 202 201
f 158 201 203
f 158 203 204
f 158 204 205
f 158 205 159
f 159 206 160
f 159 205 206
f 161 207 162
f 161 163 207
f 163 165 208
f 163 208 209
f 163 209 207
f 164 167 210
f 164 210 165
f 165 210 208
f 166 211 212
f 166 212 167
f 167 212 213
f 167 213 210
f 168 214 169
f 169 214 215
f 169 215 171
f 170 171 216
f 170 216 217
f 170 217 173
f 171 215 218
f 171 218 219
f 171 219 287
f 171 287 216
f 172 173 220
f 172 220 221
f 172 221 283
f 172 283 211
f 173 217 222
f 173 222 220
f 174 223 224
f 174 224 175
f 174 178 223
f 175 224 176
f 176 224 180
f 177 225 178
f 178 226 227
f 178 227 223
f 178 225 228
f 178 228 226
f 179 184 230
f 179 230 229
f 180 231 181
f 180 224 231
f 181 231 232
f 181 232 233
f 181 233 234
f 181 234 182
f 182 234 235
f 182 235 230
f 182 230 183
f 183 230 184
f 185 191 187
f 185 187 186
f 187 191 236
f 187 236 237
f 187 237 196
f 187 196 188
f 189 238 239
f 189 239 240
f 189 240 241
f 189 241 242
f 189 242 190
f 189 193 243
f 189 243 244
f 189 244 238
f 190 242 191
f 191 245 246
f 191 246 247
f 191 247 248
f 191 248 249
f 191 249 250
f 191 250 236
f 191 242 245
f 193 195 251
f 193 251 243
f 195 252 251
f 196 237 253
f 196 253 197
f 197 253 198
f 198 253 254
f 198 254 255
f 198 255 256
f 198 256 257
f 198 257 258
f 198 258 259
f 198 259 260
f 198 260 261
f 198 261 199
f 199 261 200
f 200 261 201
f 201 261 262
f 201 262 263
f 201 263 203
f 203 263 204
f 204 263 264
f 204 264 265
f 204 265 266
f 204 266 267
f 204 267 205
f 205 268 269
f 205 269 206
f 205 267 268
f 207 209 270
f 208 210 271
f 208 271 209
f 209 272 270
f 209 271 272
f 210 213 273
f 210 273 274
f 210 274 275
f 210 275 276
f 210 276 277
f 210 277 278
f 210 278 279
f 210 279 280
f 210 280 281
f 210 281 282
f 210 282 270
f 210 270 272
f 210 272 271
f 211 283 284
f 211 284 212
f 212 284 273
f 212 273 213
f 214 285 215
f 215 285 286
f 215 286 218
f 216 287 217
f 217 287 222
f 218 286 288
f 218 288 289
f 218 289 287
f 218 287 219
f 220 222 290
f 220 290 221
f 221 290 291
f 221 291 283
f 222 287 292
f 222 292 290
f 223 227 293
f 223 293 294
f 223 294 224
f 224 294 231
f 226 295 227
f 226 228 296
f 226 296 295
f 227 297 293
f 227 295 297
f 229 230 298
f 230 235 299
f 230 299 300
f 230 300 298
f 231 294 293
f 231 293 232
f 232 301 302
f 232 302 233
f 232 293 301
f 233 302 303
f 233 303 304
f 233 304 234
f 234 304 305
f 234 305 235
f 235 305 299
f 236 255 237
f 236 250 306
f 236 306 307
f 236 307 255
f 237 255 253
f 238 244 239
f 239 244 308
f 239 308 309
f 239 309 310
f 239 310 311
f 239 311 240
f 240 311 312
f 240 312 313
f 240 313 314
f 240 314 315
f 240 315 316
f 240 316 317
f 240 317 241
f 241 317 245
f 241 245 242
f 243 318 319
f 243 319 308
f 243 308 244
f 243 251 252
f 243 252 320
f 243 320 321
f 243 321 322
f 243 322 318
f 245 317 246
f 246 323 324
f 246 324 247
f 246 317 315
f 246 315 325
f 246 325 326
f 246 326 327
f 246 327 328
f 246 328 323
f 247 324 323
f 247 323 329
f 247 329 248
f 248 329 330
f 248 330 331
f 248 331 306
f 248 306 250
f 248 250 249
f 253 255 254
f 255 307 256
f 256 307 332
f 256 332 257
f 257 333 334
f 257 334 335
f 257 335 258
f 257 332 306
f 257 306 333
f 258 335 336
f 258 336 337
f 258 337 338
f 258 338 259
f 259 338 339
f 259 339 340
f 259 340 341
f 259 341 260
f 260 341 342
f 260 342 344
f 260 344 343
f 260 343 261
f 261 343 344
f 261 344 262
f 262 344 345
f 262 345 264
f 262 264 263
f 264 345 346
f 264 346 347
f 264 347 265
f 265 347 346
f 265 346 348
f 270 282 349
f 273 284 274
f 274 284 350
f 274 350 351
f 274 351 352
f 274 352 276
f 274 276 275
f 276 353 277
f 276 352 354
f 276 354 355
f 276 355 356
f 276 356 353
f 277 353 356
f 277 356 357
f 277 357 358
f 277 358 359
f 277 359 360
f 277 360 361
f 277 361 362
f 277 362 363
f 277 363 364
f 277 364 365
f 277 365 278
f 278 366 367
f 278 367 368
f 278 368 369
f 278 369 279
f 278 365 370
f 278 370 366
f 279 371 280
f 279 369 371
f 280 371 372
f 280 372 373
f 280 373 281
f 281 373 374
f 281 374 375
f 281 375 376
f 281 376 349
f 281 349 282
f 283 291 350
f 283 350 284
f 285 377 286
f 286 377 378
f 286 378 379
f 286 379 288
f 287 289 292
f 288 379 378
f 288 378 380
f 288 380 289
f 289 380 381
f 289 381 292
f 290 292 382
f 290 382 291
f 291 382 351
f 291 351 350
f 292 381 383
f 292 383 382
f 293 297 384
f 293 384 301
f 295 385 297
f 295 296 386
f 295 386 385
f 297 387 384
f 297 385 387
f 298 300 388
f 299 389 390
f 299 390 300
f 299 305 389
f 300 390 388
f 301 391 392
f 301 392 302
f 301 384 391
f 302 393 303
f 302 392 393
f 303 393 394
f 303 394 395
f 303 395 304
f 304 395 396
f 304 396 305
f 305 396 389
f 306 332 307
f 306 331 397
f 306 397 398
f 306 398 333
f 308 319 309
f 309 399 400
f 309 400 401
f 309 401 310
f 309 319 402
f 309 402 403
f 309 403 404
f 309 404 399
f 310 401 311
f 311 400 405
f 311 405 312
f 311 401 400
f 312 406 313
f 312 405 407
f 312 407 406
f 313 406 408
f 313 408 409
f 313 409 326
f 313 326 410
f 313 410 314
f 314 410 326
f 314 326 325
f 314 325 315
f 315 317 316
f 318 411 319
f 318 322 412
f 318 412 411
f 319 411 402
f 320 413 321
f 321 414 322
f 321 413 414
f 322 414 412
f 323 328 415
f 323 415 416
f 323 416 330
f 323 330 329
f 326 417 327
f 326 409 418
f 326 418 419
f 326 419 420
f 326 420 417
f 327 417 328
f 328 417 421
f 328 421 415
f 330 416 397
f 330 397 331
f 333 398 334
f 334 398 422
f 334 422 423
f 334 423 424
f 334 424 335
f 335 424 425
f 335 425 336
f 336 425 426
f 336 426 337
f 337 427 338
f 337 426 428
f 337 428 427
f 338 427 429
f 338 429 430
f 338 430 339
f 339 431 340
f 339 430 432
f 339 432 431
f 340 431 433
f 340 433 434
f 340 434 435
f 340 435 341
f 341 436 342
f 341 435 436
f 342 436 346
f 342 346 437
f 342 437 344
f 344 437 346
f 344 346 345
f 346 436 435
f 346 435 438
f 346 438 439
f 346 439 440
f 346 440 441
f 346 441 442
f 346 442 443
f 346 443 348
f 351 382 444
f 351 444 354
f 351 354 352
f 354 444 489
f 354 489 445
f 354 445 355
f 355 445 446
f 355 446 356
f 356 446 357
f 357 446 358
f 358 447 448
f 358 448 449
f 358 449 359
f 358 446 447
f 359 449 361
f 359 361 360
f 361 449 450
f 361 450 362
f 362 450 451
f 362 451 363
f 363 451 452
f 363 452 453
f 363 453 365
f 363 365 364
f 365 453 454
f 365 454 455
f 365 455 370
f 366 456 457
f 366 457 458
f 366 458 459
f 366 459 460
f 366 460 367
f 366 370 456
f 367 460 462
f 367 462 461
f 367 461 368
f 368 461 462
f 368 462 463
f 368 463 369
f 369 463 464
f 369 464 465
f 369 465 466
f 369 466 467
f 369 467 371
f 370 455 456
f 371 468 469
f 371 469 470
f 371 470 471
f 371 471 372
f 371 467 468
f 372 472 373
f 373 472 473
f 373 473 474
f 373 474 475
f 373 475 476
f 373 476 477
f 373 477 478
f 373 478 374
f 377 479 378
f 378 479 480
f 378 480 481
f 378 481 482
f 378 482 483
f 378 483 484
f 378 484 380
f 380 484 485
f 380 485 486
f 380 486 487
f 380 487 381
f 381 487 488
f 381 488 383
f 382 383 444
f 383 488 489
f 383 489 444
f 384 387 490
f 384 490 391
f 385 491 387
f 385 386 492
f 385 492 491
f 387 493 490
f 387 491 493
f 388 390 494
f 389 396 495
f 389 495 496
f 389 496 390
f 390 496 497
f 390 497 498
f 390 498 499
f 390 499 494
f 391 500 392
f 391 490 501
f 391 501 500
f 392 500 502
f 392 502 503
f 392 503 393
f 393 503 504
f 393 504 394
f 394 504 505
f 394 505 506
f 394 506 395
f 395 506 507
f 395 507 396
f 396 507 495
f 397 416 508
f 397 508 398
f 398 508 509
f 398 509 510
f 398 510 511
f 398 511 512
f 398 512 423
f 398 423 422
f 399 404 400
f 400 513 406
f 400 406 407
f 400 407 405
f 400 404 514
f 400 514 513
f 402 411 403
f 403 411 515
f 403 515 516
f 403 516 404
f 404 516 517
f 404 517 518
f 404 518 514
f 406 513 519
f 406 519 408
f 408 519 520
f 408 520 521
f 408 521 522
f 408 522 523
f 408 523 524
f 408 524 525
f 408 525 526
f 408 526 419
f 408 419 409
f 409 419 418
f 411 516 515
f 411 412 516
f 412 414 516
f 413 527 414
f 414 528 529
f 414 529 516
f 414 527 530
f 414 530 528
f 415 509 416
f 415 421 531
f 415 531 532
f 415 532 533
f 415 533 534
f 415 534 535
f 415 535 536
f 415 536 537
f 415 537 509
f 416 509 508
f 417 420 538
f 417 538 421
f 419 526 539
f 419 539 540
f 419 540 541
f 419 541 542
f 419 542 543
f 419 543 544
f 419 544 420
f 420 421 538
f 420 544 545
f 420 545 546
f 420 546 531
f 420 531 421
f 423 512 547
f 423 547 424
f 424 547 548
f 424 548 549
f 424 549 550
f 424 550 425
f 425 550 426
f 426 550 428
f 427 428 429
f 428 550 551
f 428 551 552
f 428 552 553
f 428 553 554
f 428 554 555
f 428 555 556
f 428 556 557
f 428 557 430
f 428 430 429
f 430 557 558
f 430 558 559
f 430 559 432
f 431 432 433
f 432 559 560
f 432 560 433
f 433 560 561
f 433 561 562
f 433 562 563
f 433 563 564
f 433 564 434
f 434 564 439
f 434 439 438
f 434 438 435
f 439 564 565
f 439 565 440
f 440 565 566
f 445 489 567
f 445 567 568
f 445 568 569
f 445 569 446
f 446 569 568
f 446 568 570
f 446 570 571
f 446 571 447
f 447 571 448
f 448 571 572
f 448 572 573
f 448 573 450
f 448 450 449
f 450 573 574
f 450 574 575
f 450 575 576
f 450 576 451
f 451 577 452
f 451 576 578
f 451 578 577
f 452 577 579
f 452 579 453
f 453 579 454
f 454 579 580
f 454 580 455
f 455 580 581
f 455 581 582
f 455 582 457
f 455 457 456
f 457 582 581
f 457 581 583
f 457 583 584
f 457 584 458
f 458 584 585
f 458 585 459
f 459 585 586
f 459 586 587
f 459 587 588
f 459 588 460
f 460 588 589
f 460 589 462
f 462 589 463
f 463 589 705
f 463 705 590
f 463 590 465
f 463 465 464
f 465 591 592
f 465 592 593
f 465 593 466
f 465 590 591
f 466 593 594
f 466 594 467
f 467 594 595
f 467 595 596
f 467 596 468
f 468 596 597
f 468 597 469
f 469 597 598
f 469 598 599
f 469 599 470
f 483 600 601
f 483 601 484
f 484 601 602
f 484 602 603
f 484 603 485
f 485 603 604
f 485 604 486
f 486 605 488
f 486 488 487
f 486 604 605
f 488 605 606
f 488 606 489
f 489 606 567
f 490 493 501
f 491 607 608
f 491 608 493
f 491 492 609
f 491 609 610
f 491 610 607
f 493 608 611
f 493 611 501
f 494 499 498
f 494 498 612
f 495 507 613
f 495 613 614
f 495 614 496
f 496 614 498
f 496 498 497
f 498 614 615
f 498 615 612
f 500 616 502
f 500 501 616
f 501 611 616
f 502 616 734
f 502 734 617
f 502 617 618
f 502 618 503
f 503 618 504
f 504 619 505
f 504 618 619
f 505 619 620
f 505 620 621
f 505 621 506
f 506 621 507
f 507 621 622
f 507 622 613
f 509 537 623
f 509 623 624
f 509 624 510
f 510 624 511
f 511 624 625
f 511 625 626
f 511 626 512
f 512 626 547
f 513 514 627
f 513 627 521
f 513 521 520
f 513 520 519
f 514 518 627
f 516 529 517
f 517 628 518
f 517 529 629
f 517 629 628
f 518 628 627
f 521 630 631
f 521 631 522
f 521 627 632
f 521 632 633
f 521 633 630
f 522 631 630
f 522 630 634
f 522 634 523
f 523 635 636
f 523 636 524
f 523 634 635
f 524 636 637
f 524 637 638
f 524 638 639
f 524 639 640
f 524 640 641
f 524 641 525
f 525 641 642
f 525 642 526
f 526 642 540
f 526 540 539
f 528 643 529
f 528 530 644
f 528 644 645
f 528 645 643
f 529 643 629
f 531 546 646
f 531 646 533
f 531 533 532
f 533 647 648
f 533 648 649
f 533 649 650
f 533 650 535
f 533 535 534
f 533 646 647
f 535 623 537
f 535 537 536
f 535 650 651
f 535 651 623
f 540 652 653
f 540 653 654
f 540 654 541
f 540 642 652
f 541 654 655
f 541 655 656
f 541 656 542
f 542 656 543
f 543 657 544
f 543 656 657
f 544 657 658
f 544 658 545
f 545 658 546
f 546 658 659
f 546 659 646
f 547 626 660
f 547 660 548
f 548 661 550
f 548 550 549
f 548 660 662
f 548 662 661
f 550 661 551
f 551 661 552
f 552 661 663
f 552 663 664
f 552 664 553
f 553 664 665
f 553 665 666
f 553 666 667
f 553 667 668
f 553 668 554
f 554 556 555
f 554 668 556
f 556 668 669
f 556 669 670
f 556 670 671
f 556 671 672
f 556 672 673
f 556 673 557
f 557 673 558
f 558 673 559
f 559 673 672
f 559 672 674
f 559 674 560
f 560 674 561
f 561 674 675
f 561 675 676
f 561 676 677
f 561 677 678
f 561 678 562
f 562 678 679
f 562 679 563
f 563 679 565
f 563 565 564
f 565 679 566
f 566 679 680
f 567 606 681
f 567 681 682
f 567 682 568
f 568 682 570
f 570 682 572
f 570 572 571
f 572 682 683
f 572 683 684
f 572 684 685
f 572 685 573
f 573 685 686
f 573 686 574
f 574 686 575
f 575 686 685
f 575 685 687
f 575 687 688
f 575 688 576
f 576 688 578
f 577 578 689
f 577 689 579
f 578 688 690
f 578 690 691
f 578 691 689
f 579 689 692
f 579 692 580
f 580 692 693
f 580 693 581
f 581 694 583
f 581 693 695
f 581 695 694
f 583 694 696
f 583 696 584
f 584 696 585
f 585 696 697
f 585 697 698
f 585 698 586
f 586 698 699
f 586 699 700
f 586 700 701
f 586 701 587
f 587 702 703
f 587 703 704
f 587 704 588
f 587 701 702
f 588 704 705
f 588 705 589
f 590 706 707
f 590 707 591
f 590 705 706
f 591 707 592
f 592 708 594
f 592 594 593
f 592 707 708
f 594 708 709
f 594 709 710
f 594 710 597
f 594 597 596
f 594 596 595
f 597 710 711
f 597 711 712
f 597 712 713
f 597 713 714
f 597 714 715
f 597 715 716
f 597 716 717
f 597 717 718
f 597 718 719
f 597 719 598
f 598 719 599
f 599 719 720
f 600 721 722
f 600 722 601
f 601 722 602
f 602 722 723
f 602 723 724
f 602 724 603
f 603 724 604
f 604 725 605
f 604 724 726
f 604 726 725
f 605 725 606
f 606 725 727
f 606 727 681
f 607 610 728
f 607 728 608
f 608 729 730
f 608 730 731
f 608 731 732
f 608 732 611
f 608 728 729
f 610 733 728
f 611 732 734
f 611 734 616
f 612 615 735
f 613 622 736
f 613 736 737
f 613 737 614
f 614 737 738
f 614 738 739
f 614 739 615
f 615 739 735
f 617 740 618
f 617 734 741
f 617 741 742
f 617 742 740
f 618 740 743
f 618 743 744
f 618 744 619
f 619 744 745
f 619 745 746
f 619 746 620
f 620 746 747
f 620 747 748
f 620 748 749
f 620 749 621
f 621 749 736
f 621 736 622
f 623 651 624
f 624 651 750
f 624 750 751
f 624 751 752
f 624 752 753
f 624 753 625
f 625 753 626
f 626 753 660
f 627 628 632
f 628 629 643
f 628 643 754
f 628 754 632
f 630 633 755
f 630 755 756
f 630 756 757
f 630 757 634
f 632 754 758
f 632 758 633
f 633 758 759
f 633 759 760
f 633 760 755
f 634 757 761
f 634 761 635
f 635 637 636
f 635 761 637
f 637 762 763
f 637 763 764
f 637 764 638
f 637 761 765
f 637 765 762
f 638 764 639
f 639 764 766
f 639 766 767
f 639 767 768
f 639 768 769
f 639 769 640
f 640 769 770
f 640 770 641
f 641 770 642
f 642 770 769
f 642 769 652
f 643 758 754
f 643 645 758
f 645 771 758
f 646 659 647
f 647 659 772
f 647 772 648
f 648 772 773
f 648 773 649
f 649 774 775
f 649 775 650
f 649 773 776
f 649 776 777
f 649 777 778
f 649 778 779
f 649 779 780
f 649 780 781
f 649 781 774
f 650 775 651
f 651 775 750
f 652 769 782
f 652 782 783
f 652 783 784
f 652 784 785
f 652 785 786
f 652 786 787
f 652 787 653
f 653 787 655
f 653 655 654
f 655 787 788
f 655 788 656
f 656 789 657
f 656 788 790
f 656 790 791
f 656 791 792
f 656 792 793
f 656 793 789
f 657 789 658
f 658 789 659
f 659 789 794
f 659 794 773
f 659 773 772
f 660 753 662
f 661 662 663
f 662 795 796
f 662 796 797
f 662 797 665
f 662 665 664
f 662 664 663
f 662 753 795
f 665 798 799
f 665 799 800
f 665 800 666
f 665 797 798
f 666 800 667
f 667 801 802
f 667 802 669
f 667 669 668
f 667 800 799
f 667 799 801
f 669 803 804
f 669 804 670
f 669 802 805
f 669 805 806
f 669 806 803
f 670 807 808
f 670 808 671
f 670 804 809
f 670 809 807
f 671 808 672
f 672 808 674
f 674 808 810
f 674 810 675
f 675 810 811
f 675 811 812
f 675 812 676
f 676 812 813
f 676 813 677
f 677 813 814
f 677 814 815
f 677 815 678
f 678 680 679
f 678 815 680
f 681 727 816
f 681 816 817
f 681 817 682
f 682 817 683
f 683 817 818
f 683 818 684
f 684 818 972
f 684 972 819
f 684 819 685
f 685 820 687
f 685 819 821
f 685 821 822
f 685 822 823
f 685 823 824
f 685 824 825
f 685 825 826
f 685 826 827
f 685 827 828
f 685 828 820
f 687 820 688
f 688 820 829
f 688 829 690
f 689 691 830
f 689 830 692
f 690 829 831
f 690 831 832
f 690 832 833
f 690 833 691
f 691 833 834
f 691 834 835
f 691 835 830
f 692 830 836
f 692 836 693
f 693 836 695
f 694 695 696
f 695 836 837
f 695 837 838
f 695 838 696
f 696 838 839
f 696 839 840
f 696 840 697
f 697 840 698
f 698 840 841
f 698 841 842
f 698 842 699
f 699 842 843
f 699 843 844
f 699 844 700
f 700 844 701
f 701 845 702
f 701 844 846
f 701 846 845
f 702 847 848
f 702 848 703
f 702 845 847
f 703 848 849
f 703 849 705
f 703 705 704
f 705 849 706
f 706 850 707
f 706 849 850
f 707 851 708
f 707 850 851
f 708 852 709
f 708 851 852
f 709 852 853
f 709 853 711
f 709 711 710
f 711 853 712
f 712 853 854
f 712 854 855
f 712 855 856
f 712 856 857
f 712 857 858
f 712 858 713
f 713 858 859
f 713 859 860
f 713 860 861
f 713 861 714
f 718 720 719
f 721 862 863
f 721 863 722
f 722 863 864
f 722 864 723
f 723 864 865
f 723 865 866
f 723 866 724
f 724 866 868
f 724 868 726
f 725 726 867
f 725 867 727
f 726 868 867
f 727 867 869
f 727 869 816
f 728 733 870
f 728 870 871
f 728 871 872
f 728 872 873
f 728 873 874
f 728 874 875
f 728 875 876
f 728 876 877
f 728 877 878
f 728 878 730
f 728 730 729
f 730 878 877
f 730 877 879
f 730 879 742
f 730 742 731
f 731 742 732
f 732 742 741
f 732 741 734
f 735 739 880
f 736 881 882
f 736 882 883
f 736 883 737
f 736 749 881
f 737 883 884
f 737 884 738
f 738 884 739
f 739 884 885
f 739 885 886
f 739 886 887
f 739 887 888
f 739 888 880
f 740 889 743
f 740 742 889
f 742 879 890
f 742 890 891
f 742 891 892
f 742 892 893
f 742 893 889
f 743 889 894
f 743 894 895
f 743 895 896
f 743 896 745
f 743 745 744
f 745 896 747
f 745 747 746
f 747 896 897
f 747 897 748
f 748 897 881
f 748 881 749
f 750 775 751
f 751 775 898
f 751 898 774
f 751 774 899
f 751 899 796
f 751 796 752
f 752 796 753
f 753 796 795
f 755 760 756
f 756 900 901
f 756 901 902
f 756 902 765
f 756 765 761
f 756 761 757
f 756 760 903
f 756 903 900
f 758 904 905
f 758 905 906
f 758 906 907
f 758 907 759
f 758 771 908
f 758 908 904
f 759 907 760
f 760 907 909
f 760 909 903
f 762 765 910
f 762 910 911
f 762 911 912
f 762 912 763
f 763 912 913
f 763 913 766
f 763 766 764
f 765 902 910
f 766 914 915
f 766 915 916
f 766 916 917
f 766 917 918
f 766 918 767
f 766 913 919
f 766 919 914
f 767 917 920
f 767 920 921
f 767 921 922
f 767 922 923
f 767 923 924
f 767 924 925
f 767 925 926
f 767 926 768
f 767 918 917
f 768 926 769
f 769 926 782
f 773 793 927
f 773 927 928
f 773 928 777
f 773 777 776
f 773 794 793
f 774 898 775
f 774 781 929
f 774 929 930
f 774 930 931
f 774 931 899
f 777 932 933
f 777 933 934
f 777 934 779
f 777 779 778
f 777 928 932
f 779 935 780
f 779 934 933
f 779 933 936
f 779 936 937
f 779 937 938
f 779 938 939
f 779 939 935
f 780 935 781
f 781 935 929
f 782 925 940
f 782 940 783
f 782 926 925
f 783 940 941
f 783 941 784
f 784 941 942
f 784 942 943
f 784 943 785
f 785 943 944
f 785 944 786
f 786 944 945
f 786 945 790
f 786 790 946
f 786 946 787
f 787 946 788
f 788 946 790
f 789 793 794
f 790 945 947
f 790 947 948
f 790 948 949
f 790 949 950
f 790 950 792
f 790 792 791
f 792 950 951
f 792 951 793
f 793 951 952
f 793 952 927
f 796 953 797
f 796 899 954
f 796 954 955
f 796 955 953
f 797 953 798
f 798 953 799
f 799 953 955
f 799 955 801
f 801 955 954
f 801 954 956
f 801 956 957
f 801 957 958
f 801 958 802
f 802 958 959
f 802 959 805
f 803 960 809
f 803 809 804
f 803 806 961
f 803 961 960
f 805 959 962
f 805 962 806
f 806 962 961
f 807 809 963
f 807 963 810
f 807 810 808
f 809 960 964
f 809 964 963
f 810 963 811
f 811 963 965
f 811 965 966
f 811 966 812
f 812 966 967
f 812 967 968
f 812 968 813
f 816 869 969
f 816 969 970
f 816 970 971
f 816 971 818
f 816 818 817
f 818 971 972
f 819 972 973
f 819 973 821
f 820 831 829
f 820 828 831
f 821 973 974
f 821 974 822
f 822 974 975
f 822 975 823
f 823 975 976
f 823 976 977
f 823 977 825
f 823 825 824
f 825 827 826
f 825 977 978
f 825 978 979
f 825 979 980
f 825 980 981
f 825 981 827
f 827 981 982
f 827 982 828
f 828 982 832
f 828 832 831
f 830 835 836
f 832 982 833
f 833 982 983
f 833 983 984
f 833 984 834
f 834 985 835
f 834 984 986
f 834 986 985
f 835 985 987
f 835 987 837
f 835 837 836
f 837 987 988
f 837 988 839
f 837 839 838
f 839 988 989
f 839 989 842
f 839 842 990
f 839 990 840
f 840 990 841
f 841 990 842
f 842 989 991
f 842 991 992
f 842 992 843
f 843 992 993
f 843 993 994
f 843 994 995
f 843 995 844
f 844 995 846
f 845 996 997
f 845 997 847
f 845 846 998
f 845 998 996
f 846 995 994
f 846 994 999
f 846 999 1000
f 846 1000 1001
f 846 1001 998
f 847 997 1002
f 847 1002 848
f 848 1002 1004
f 848 1004 1003
f 848 1003 849
f 849 1003 850
f 850 1003 1004
f 850 1004 851
f 851 1005 852
f 851 1004 1006
f 851 1006 1005
f 852 1007 853
f 852 1005 1007
f 853 1007 854
f 854 1007 1008
f 854 1008 1009
f 854 1009 855
f 855 1010 870
f 855 870 857
f 855 857 856
f 855 1009 1011
f 855 1011 1010
f 862 1012 1013
f 862 1013 863
f 863 1013 864
f 864 1013 1014
f 864 1014 865
f 865 1014 866
f 866 1014 1015
f 866 1015 1016
f 866 1016 1017
f 866 1017 1018
f 866 1018 868
f 867 868 1019
f 867 1019 869
f 868 1018 1020
f 868 1020 1019
f 869 1019 969
f 870 1010 1021
f 870 1021 872
f 870 872 871
f 872 1021 1022
f 872 1022 1023
f 872 1023 1024
f 872 1024 1025
f 872 1025 1026
f 872 1026 873
f 873 1026 1027
f 873 1027 1028
f 873 1028 876
f 873 876 874
f 874 876 875
f 876 1028 1029
f 876 1029 1030
f 876 1030 877
f 877 1030 879
f 879 1030 1029
f 879 1029 1031
f 879 1031 890
f 881 1032 1033
f 881 1033 1034
f 881 1034 882
f 881 897 1032
f 882 1034 883
f 883 1034 1035
f 883 1035 884
f 884 1035 1036
f 884 1036 1037
f 884 1037 885
f 885 1037 1038
f 885 1038 1039
f 885 1039 1040
f 885 1040 1041
f 885 1041 1042
f 885 1042 886
f 889 893 894
f 890 1043 892
f 890 892 891
f 890 1031 1028
f 890 1028 1044
f 890 1044 1043
f 892 1043 1045
f 892 1045 1046
f 892 1046 1047
f 892 1047 1048
f 892 1048 893
f 893 1048 1049
f 893 1049 894
f 894 1049 1050
f 894 1050 1051
f 894 1051 895
f 895 1051 896
f 896 1051 1050
f 896 1050 1052
f 896 1052 1053
f 896 1053 1032
f 896 1032 1054
f 896 1054 897
f 897 1054 1032
f 899 931 1055
f 899 1055 954
f 900 903 1056
f 900 1056 901
f 901 911 910
f 901 910 902
f 901 1056 911
f 903 909 1057
f 903 1057 1056
f 905 1058 906
f 906 1058 1059
f 906 1059 907
f 907 1059 909
f 909 1059 1057
f 911 1060 919
f 911 919 912
f 911 1056 1061
f 911 1061 1060
f 912 919 913
f 914 919 915
f 915 1038 1062
f 915 1062 1036
f 915 1036 1063
f 915 1063 917
f 915 917 916
f 915 919 1064
f 915 1064 1065
f 915 1065 1039
f 915 1039 1038
f 917 1063 1066
f 917 1066 1067
f 917 1067 920
f 919 1060 1068
f 919 1068 1065
f 919 1065 1064
f 920 1067 921
f 921 1067 1069
f 921 1069 1033
f 921 1033 922
f 922 1033 1070
f 922 1070 923
f 923 1070 1071
f 923 1071 925
f 923 925 924
f 925 1071 1072
f 925 1072 1073
f 925 1073 940
f 927 952 928
f 928 952 933
f 928 933 932
f 929 935 930
f 930 1055 931
f 930 935 939
f 930 939 1074
f 930 1074 1075
f 930 1075 954
f 930 954 1055
f 933 952 1076
f 933 1076 1077
f 933 1077 1078
f 933 1078 1079
f 933 1079 1080
f 933 1080 936
f 936 1080 1081
f 936 1081 937
f 937 1081 1082
f 937 1082 1083
f 937 1083 938
f 938 1083 1084
f 938 1084 1085
f 938 1085 1074
f 938 1074 939
f 940 1073 1072
f 940 1072 941
f 941 1072 1086
f 941 1086 942
f 942 1086 943
f 943 1087 1088
f 943 1088 1089
f 943 1089 1090
f 943 1090 1091
f 943 1091 947
f 943 947 944
f 943 1086 1087
f 944 947 945
f 947 1091 1092
f 947 1092 1093
f 947 1093 949
f 947 949 948
f 949 1093 1094
f 949 1094 950
f 950 1094 1095
f 950 1095 1096
f 950 1096 952
f 950 952 951
f 952 1096 1076
f 954 1075 1085
f 954 1085 1097
f 954 1097 956
f 956 1098 1099
f 956 1099 957
f 956 1097 1100
f 956 1100 1101
f 956 1101 1098
f 957 1099 1102
f 957 1102 958
f 958 1102 1103
f 958 1103 1104
f 958 1104 959
f 959 1104 1105
f 959 1105 962
f 960 965 964
f 960 961 965
f 961 962 1106
f 961 1106 1107
f 961 1107 965
f 962 1105 1108
f 962 1108 1106
f 963 964 965
f 965 1107 966
f 966 1107 1109
f 966 1109 1110
f 966 1110 967
f 969 1019 970
f 970 973 972
f 970 972 971
f 970 1019 1111
f 970 1111 1112
f 970 1112 1113
f 970 1113 973
f 973 1113 1114
f 973 1114 974
f 974 1114 1115
f 974 1115 975
f 975 1115 1116
f 975 1116 976
f 976 1116 1117
f 976 1117 977
f 977 1117 978
f 978 1117 1100
f 978 1100 979
f 979 1097 1085
f 979 1085 1118
f 979 1118 1119
f 979 1119 980
f 979 1100 1097
f 980 1119 981
f 981 1119 982
f 982 1119 1120
f 982 1120 983
f 983 1120 984
f 984 1120 1119
f 984 1119 1121
f 984 1121 986
f 985 986 987
f 986 1121 1122
f 986 1122 1123
f 986 1123 1124
f 986 1124 1125
f 986 1125 987
f 987 1125 988
f 988 1125 1126
f 988 1126 989
f 989 1126 1127
f 989 1127 1128
f 989 1128 991
f 991 1128 992
f 992 1128 1129
f 992 1129 993
f 993 1130 994
f 993 1129 1223
f 993 1223 1130
f 994 1130 1131
f 994 1131 1132
f 994 1132 999
f 996 1133 997
f 996 998 1001
f 996 1001 1133
f 997 1133 1134
f 997 1134 1002
f 999 1132 1000
f 1000 1135 1136
f 1000 1136 1137
f 1000 1137 1001
f 1000 1132 1135
f 1001 1137 1133
f 1002 1134 1004
f 1004 1134 1138
f 1004 1138 1006
f 1005 1139 1007
f 1005 1006 1140
f 1005 1140 1139
f 1006 1138 1235
f 1006 1235 1140
f 1007 1139 1141
f 1007 1141 1008
f 1008 1141 1142
f 1008 1142 1009
f 1009 1142 1143
f 1009 1143 1011
f 1010 1011 1021
f 1011 1143 1023
f 1011 1023 1022
f 1011 1022 1021
f 1012 1144 1013
f 1013 1144 1145
f 1013 1145 1146
f 1013 1146 1014
f 1014 1146 1015
f 1015 1146 1147
f 1015 1147 1148
f 1015 1148 1149
f 1015 1149 1150
f 1015 1150 1017
f 1015 1017 1016
f 1017 1150 1151
f 1017 1151 1018
f 1018 1151 1020
f 1019 1020 1152
f 1019 1152 1112
f 1019 1112 1111
f 1020 1151 1153
f 1020 1153 1152
f 1023 1143 1154
f 1023 1154 1024
f 1024 1154 1025
f 1025 1155 1156
f 1025 1156 1026
f 1025 1154 1157
f 1025 1157 1158
f 1025 1158 1155
f 1026 1156 1159
f 1026 1159 1160
f 1026 1160 1027
f 1027 1160 1028
f 1028 1160 1161
f 1028 1161 1044
f 1028 1031 1029
f 1032 1053 1033
f 1033 1162 1070
f 1033 1069 1034
f 1033 1053 1052
f 1033 1052 1162
f 1034 1069 1067
f 1034 1067 1163
f 1034 1163 1035
f 1035 1163 1036
f 1036 1163 1067
f 1036 1067 1066
f 1036 1066 1063
f 1036 1062 1037
f 1037 1062 1038
f 1039 1065 1164
f 1039 1164 1165
f 1039 1165 1040
f 1040 1165 1041
f 1041 1165 1166
f 1043 1044 1045
f 1044 1161 1246
f 1044 1246 1167
f 1044 1167 1045
f 1045 1168 1169
f 1045 1169 1046
f 1045 1167 1168
f 1046 1169 1170
f 1046 1170 1047
f 1047 1170 1048
f 1048 1170 1049
f 1049 1170 1050
f 1050 1170 1171
f 1050 1171 1052
f 1052 1171 1172
f 1052 1172 1173
f 1052 1173 1174
f 1052 1174 1162
f 1056 1057 1059
f 1056 1059 1175
f 1056 1175 1176
f 1056 1176 1177
f 1056 1177 1065
f 1056 1065 1178
f 1056 1178 1068
f 1056 1068 1061
f 1058 1179 1059
f 1059 1180 1177
f 1059 1177 1175
f 1059 1179 1181
f 1059 1181 1180
f 1060 1061 1068
f 1065 1177 1180
f 1065 1180 1182
f 1065 1182 1183
f 1065 1183 1184
f 1065 1184 1164
f 1065 1068 1178
f 1070 1162 1174
f 1070 1174 1072
f 1070 1072 1071
f 1072 1174 1185
f 1072 1185 1186
f 1072 1186 1086
f 1074 1085 1075
f 1076 1095 1077
f 1076 1096 1095
f 1077 1187 1188
f 1077 1188 1078
f 1077 1095 1187
f 1078 1188 1189
f 1078 1189 1190
f 1078 1190 1079
f 1079 1081 1080
f 1079 1190 1191
f 1079 1191 1081
f 1081 1191 1082
f 1082 1191 1192
f 1082 1192 1083
f 1083 1192 1084
f 1084 1192 1119
f 1084 1119 1193
f 1084 1193 1085
f 1085 1193 1119
f 1085 1119 1118
f 1086 1186 1087
f 1087 1186 1194
f 1087 1194 1088
f 1088 1194 1089
f 1089 1194 1195
f 1089 1195 1090
f 1090 1195 1196
f 1090 1196 1197
f 1090 1197 1092
f 1090 1092 1091
f 1092 1197 1198
f 1092 1198 1093
f 1093 1095 1094
f 1093 1198 1199
f 1093 1199 1200
f 1093 1200 1095
f 1095 1200 1187
f 1098 1101 1099
f 1099 1101 1116
f 1099 1116 1102
f 1100 1117 1101
f 1101 1117 1116
f 1102 1116 1201
f 1102 1201 1103
f 1103 1201 1202
f 1103 1202 1203
f 1103 1203 1104
f 1104 1203 1204
f 1104 1204 1205
f 1104 1205 1105
f 1105 1206 1108
f 1105 1205 1149
f 1105 1149 1206
f 1106 1108 1207
f 1106 1207 1208
f 1106 1208 1107
f 1107 1208 1109
f 1108 1206 1209
f 1108 1209 1210
f 1108 1210 1211
f 1108 1211 1207
f 1109 1212 1110
f 1109 1208 1212
f 1112 1153 1205
f 1112 1205 1204
f 1112 1204 1113
f 1112 1152 1153
f 1113 1204 1203
f 1113 1203 1213
f 1113 1213 1114
f 1114 1213 1115
f 1115 1213 1201
f 1115 1201 1116
f 1119 1214 1121
f 1119 1192 1214
f 1121 1214 1122
f 1122 1214 1123
f 1123 1214 1215
f 1123 1215 1216
f 1123 1216 1124
f 1124 1216 1217
f 1124 1217 1218
f 1124 1218 1125
f 1125 1218 1126
f 1126 1218 1127
f 1127 1219 1129
f 1127 1129 1220
f 1127 1220 1128
f 1127 1218 1221
f 1127 1221 1222
f 1127 1222 1219
f 1128 1220 1129
f 1129 1219 1223
f 1130 1223 1224
f 1130 1224 1131
f 1131 1224 1225
f 1131 1225 1132
f 1132 1226 1135
f 1132 1225 1227
f 1132 1227 1228
f 1132 1228 1226
f 1133 1229 1134
f 1133 1137 1229
f 1134 1230 1138
f 1134 1229 1230
f 1135 1226 1231
f 1135 1231 1232
f 1135 1232 1233
f 1135 1233 1136
f 1136 1233 1234
f 1136 1234 1137
f 1137 1234 1229
f 1138 1230 1235
f 1139 1140 1236
f 1139 1236 1141
f 1140 1235 1236
f 1141 1236 1157
f 1141 1157 1142
f 1142 1157 1143
f 1143 1157 1154
f 1145 1237 1146
f 1146 1237 1238
f 1146 1238 1239
f 1146 1239 1147
f 1147 1239 1148
f 1148 1239 1211
f 1148 1211 1210
f 1148 1210 1149
f 1149 1205 1153
f 1149 1153 1150
f 1149 1210 1209
f 1149 1209 1206
f 1150 1153 1151
f 1155 1240 1241
f 1155 1241 1156
f 1155 1158 1242
f 1155 1242 1243
f 1155 1243 1240
f 1156 1241 1233
f 1156 1233 1244
f 1156 1244 1245
f 1156 1245 1159
f 1157 1236 1242
f 1157 1242 1158
f 1159 1245 1246
f 1159 1246 1160
f 1160 1246 1161
f 1164 1184 1183
f 1164 1183 1166
f 1164 1166 1165
f 1167 1246 1247
f 1167 1247 1168
f 1168 1248 1169
f 1168 1247 1249
f 1168 1249 1250
f 1168 1250 1248
f 1169 1248 1251
f 1169 1251 1252
f 1169 1252 1253
f 1169 1253 1254
f 1169 1254 1255
f 1169 1255 1256
f 1169 1256 1170
f 1170 1256 1171
f 1171 1256 1257
f 1171 1257 1172
f 1172 1257 1258
f 1172 1258 1259
f 1172 1259 1173
f 1173 1259 1185
f 1173 1185 1174
f 1175 1177 1176
f 1180 1260 1182
f 1180 1181 1260
f 1185 1259 1186
f 1186 1259 1194
f 1187 1200 1261
f 1187 1261 1262
f 1187 1262 1263
f 1187 1263 1189
f 1187 1189 1188
f 1189 1263 1190
f 1190 1263 1264
f 1190 1264 1217
f 1190 1217 1216
f 1190 1216 1215
f 1190 1215 1191
f 1191 1215 1192
f 1192 1215 1214
f 1194 1265 1195
f 1194 1259 1265
f 1195 1265 1196
f 1196 1266 1197
f 1196 1265 1267
f 1196 1267 1268
f 1196 1268 1269
f 1196 1269 1270
f 1196 1270 1266
f 1197 1266 1198
f 1198 1266 1199
f 1199 1266 1271
f 1199 1271 1261
f 1199 1261 1200
f 1201 1213 1202
f 1202 1213 1203
f 1207 1211 1272
f 1207 1272 1273
f 1207 1273 1208
f 1208 1273 1274
f 1208 1274 1275
f 1208 1275 1212
f 1211 1239 1276
f 1211 1276 1277
f 1211 1277 1272
f 1217 1264 1221
f 1217 1221 1218
f 1219 1222 1278
f 1219 1278 1279
f 1219 1279 1223
f 1221 1264 1280
f 1221 1280 1278
f 1221 1278 1222
f 1223 1279 1281
f 1223 1281 1282
f 1223 1282 1224
f 1224 1282 1225
f 1225 1282 1227
f 1226 1228 1231
f 1227 1252 1283
f 1227 1283 1228
f 1227 1282 1284
f 1227 1284 1285
f 1227 1285 1252
f 1228 1283 1286
f 1228 1286 1231
f 1229 1234 1230
f 1230 1243 1242
f 1230 1242 1235
f 1230 1234 1240
f 1230 1240 1243
f 1231 1286 1232
f 1232 1286 1287
f 1232 1287 1233
f 1233 1241 1234
f 1233 1287 1244
f 1234 1241 1240
f 1235 1242 1236
f 1238 1276 1239
f 1244 1287 1245
f 1245 1287 1250
f 1245 1250 1249
f 1245 1249 1246
f 1246 1249 1247
f 1248 1250 1251
f 1250 1287 1286
f 1250 1286 1251
f 1251 1283 1252
f 1251 1286 1283
f 1252 1285 1253
f 1253 1285 1284
f 1253 1284 1288
f 1253 1288 1289
f 1253 1289 1290
f 1253 1290 1254
f 1254 1290 1291
f 1254 1291 1255
f 1255 1291 1292
f 1255 1292 1293
f 1255 1293 1257
f 1255 1257 1256
f 1257 1293 1258
f 1258 1293 1292
f 1258 1292 1265
f 1258 1265 1259
f 1261 1271 1294
f 1261 1294 1262
f 1262 1294 1295
f 1262 1295 1280
f 1262 1280 1263
f 1263 1280 1264
f 1265 1292 1296
f 1265 1296 1297
f 1265 1297 1267
f 1266 1270 1271
f 1267 1297 1289
f 1267 1289 1288
f 1267 1288 1268
f 1268 1288 1269
f 1269 1288 1284
f 1269 1284 1298
f 1269 1298 1299
f 1269 1299 1270
f 1270 1299 1300
f 1270 1300 1301
f 1270 1301 1294
f 1270 1294 1271
f 1272 1277 1302
f 1272 1302 1273
f 1273 1302 1303
f 1273 1303 1304
f 1273 1304 1274
f 1274 1304 1305
f 1274 1305 1306
f 1274 1306 1275
f 1278 1301 1279
f 1278 1280 1295
f 1278 1295 1294
f 1278 1294 1301
f 1279 1301 1281
f 1281 1301 1307
f 1281 1307 1282
f 1282 1307 1298
f 1282 1298 1284
f 1289 1297 1290
f 1290 1297 1296
f 1290 1296 1292
f 1290 1292 1291
f 1298 1307 1299
f 1299 1307 1301
f 1299 1301 1300

