# Created by Open3D 
# object name: Basket040_collision_0_0
# number of vertices: 23
# number of triangles: 42
v -0.0986322 0.0504935 -0.0008313
v -0.0993645 -1.303e-05 -0.00041562
v -0.0986322 -1.303e-05 -0.0008313
v -0.0989833 0.0504935 -0.00063204
v -0.100196 -1.303e-05 0.017392
v -0.0968905 -1.303e-05 0.0223618
v -0.0991716 0.0504935 0.0223618
v -0.10073 0.0504935 0.0196127
v -0.10073 -1.303e-05 0.0155892
v -0.100513 0.0504935 0.0203445
v -0.0997561 0.0504935 -0.00019203
v -0.100117 -1.303e-05 1.384e-05
v -0.100117 0.0504935 1.384e-05
v -0.0966332 0.0504935 -0.0011
v -0.0966332 -1.303e-05 -0.0011
v -0.0333434 -1.303e-05 -0.0011
v -0.0333434 0.0504935 -0.0011
v -0.0333434 0.0504935 0.0223618
v -0.0333434 -1.303e-05 0.0223618
v -0.10073 -1.303e-05 0.00359419
v -0.10073 0.0504935 0.00359419
v -0.100671 -1.303e-05 0.00159618
v -0.100671 0.0504935 0.00159618
f 2 1 3
f 1 2 4
f 5 6 7
f 5 8 9
f 10 5 7
f 10 8 5
f 11 2 12
f 13 11 12
f 2 11 4
f 15 14 16
f 14 17 16
f 18 19 16
f 17 18 16
f 18 6 19
f 6 18 7
f 1 14 15
f 3 1 15
f 9 8 20
f 8 21 20
f 19 22 16
f 5 22 6
f 22 15 16
f 22 3 15
f 6 22 19
f 22 9 20
f 2 22 12
f 22 2 3
f 22 5 9
f 23 22 21
f 21 22 20
f 22 13 12
f 13 22 23
f 11 18 17
f 11 10 7
f 14 11 17
f 11 1 4
f 18 11 7
f 11 23 21
f 1 11 14
f 8 11 21
f 11 13 23
f 10 11 8
