# Created by Open3D 
# object name: Basket040_collision_2_3
# number of vertices: 27
# number of triangles: 50
v 0.0437621 -0.035609 -0.0011
v 0.0853453 -1.303e-05 -0.0011
v 0.0437621 -1.303e-05 0.0005144
v 0.101225 -0.0505035 0.0203456
v 0.0975989 -1.303e-05 0.0223618
v 0.100897 -1.303e-05 0.0173938
v 0.0998871 -0.0505035 0.0223618
v 0.10145 -1.303e-05 0.0155908
v 0.10145 -0.0505035 0.0196138
v 0.0806358 -1.303e-05 0.0223618
v 0.0437621 -1.303e-05 0.0222552
v 0.0437621 -0.0313149 0.0223618
v 0.100818 -0.0505035 1.165e-05
v 0.1011 -1.303e-05 0.00081553
v 0.100818 -1.303e-05 1.165e-05
v 0.101371 -0.0505035 0.00159414
v 0.101371 -1.303e-05 0.00159414
v 0.101241 -0.0505035 0.00122091
v 0.100953 -0.0505035 0.000397
v 0.0437621 -0.0505035 0.0223618
v 0.0437621 -0.0505035 -0.0011
v 0.0973391 -1.303e-05 -0.0011
v 0.0973391 -0.0505035 -0.0011
v 0.10145 -1.303e-05 0.00359235
v 0.0993494 -1.303e-05 -0.00083357
v 0.10145 -0.0505035 0.00359235
v 0.0993494 -0.0505035 -0.00083357
f 2 1 3
f 5 4 6
f 4 5 7
f 6 4 8
f 4 9 8
f 10 11 12
f 14 13 15
f 16 14 17
f 14 16 18
f 19 14 18
f 19 13 14
f 1 11 3
f 1 20 12
f 11 1 12
f 20 1 21
f 22 23 21
f 1 22 21
f 22 1 2
f 10 20 7
f 20 10 12
f 5 10 7
f 11 24 3
f 14 24 17
f 24 2 3
f 22 24 25
f 24 15 25
f 24 6 8
f 24 5 6
f 10 24 11
f 24 22 2
f 24 10 5
f 24 14 15
f 26 24 9
f 9 24 8
f 24 16 17
f 16 24 26
f 27 20 21
f 27 4 7
f 23 27 21
f 16 27 18
f 20 27 7
f 27 26 9
f 4 27 9
f 27 19 18
f 27 16 26
f 19 27 13
f 27 22 25
f 22 27 23
f 15 27 25
f 13 27 15
