# Created by Open3D 
# object name: Basket040_collision_13_1
# number of vertices: 34
# number of triangles: 64
v 0.00430319 0.0861561 0.175959
v 0.0803433 0.0807674 0.177147
v 0.0803433 0.0978332 0.177147
v 0.00430319 0.0973504 0.176001
v 0.00430319 0.0977784 0.176296
v 0.0803433 0.100481 0.179672
v 0.00430319 0.101 0.181594
v 0.0803433 0.101 0.181594
v 0.0803433 0.0808268 0.195592
v 0.00430319 0.0815081 0.197075
v 0.0803433 0.0813576 0.197106
v 0.0803433 0.0993126 0.178169
v 0.00430319 0.100491 0.17976
v 0.0803433 0.0830053 0.197917
v 0.00430319 0.0830053 0.197903
v 0.00430319 0.0821815 0.197498
v 0.00430319 0.0850052 0.198284
v 0.0803433 0.0850037 0.198271
v 0.0803433 0.0969994 0.198282
v 0.00430319 0.097001 0.198284
v 0.00430319 0.081063 0.176001
v 0.00430319 0.0809754 0.176341
v 0.00430319 0.0809763 0.193589
v 0.0803433 0.0990017 0.19797
v 0.00430319 0.0990017 0.19797
v 0.00430319 0.0821888 0.175966
v 0.0803433 0.0807694 0.19359
v 0.00430319 0.0810377 0.195591
v 0.00430319 0.100927 0.195592
v 0.0803433 0.100428 0.197126
v 0.0803433 0.100927 0.195592
v 0.00430319 0.100428 0.197126
v 0.0803433 0.101 0.19359
v 0.00430319 0.101 0.19359
f 2 1 3
f 3 4 5
f 1 4 3
f 6 7 8
f 10 9 11
f 12 3 5
f 6 13 7
f 12 13 6
f 13 12 5
f 14 15 11
f 16 10 11
f 15 16 11
f 17 18 19
f 17 19 20
f 17 14 18
f 14 17 15
f 22 21 2
f 23 22 2
f 24 25 20
f 19 24 20
f 26 1 2
f 21 26 2
f 27 23 2
f 23 27 9
f 28 9 10
f 28 23 9
f 29 30 31
f 30 29 32
f 33 7 34
f 7 33 8
f 29 33 34
f 33 29 31
f 25 24 32
f 24 30 32
f 12 27 3
f 27 2 3
f 18 27 19
f 27 24 19
f 33 27 8
f 27 6 8
f 27 14 11
f 9 27 11
f 27 12 6
f 30 27 31
f 27 33 31
f 14 27 18
f 24 27 30
f 28 17 20
f 25 28 20
f 4 28 5
f 28 4 1
f 28 13 5
f 16 28 10
f 7 28 34
f 28 25 32
f 28 29 34
f 26 28 1
f 13 28 7
f 29 28 32
f 28 16 15
f 17 28 15
f 28 21 22
f 23 28 22
f 28 26 21
