# Created by Open3D 
# object name: Basket040_collision_13_0
# number of vertices: 34
# number of triangles: 64
v -0.0266458 0.0971539 0.175534
v 0.00430319 0.0977784 0.176296
v -0.0717369 0.0971539 0.175534
v -0.0717369 0.0811833 0.175534
v 0.00430319 0.081063 0.176001
v 0.00430319 0.0809754 0.176341
v 0.00430319 0.0965762 0.175975
v -0.023181 0.0838565 0.175534
v -0.0717369 0.0811833 0.193588
v -0.0266458 0.0811833 0.175534
v 0.00430319 0.100927 0.195592
v 0.00430319 0.100428 0.197126
v -0.0717369 0.100428 0.197124
v 0.00430319 0.0830053 0.197903
v 0.00430319 0.0850052 0.198284
v -0.0717369 0.0850056 0.198284
v 0.00430319 0.0973504 0.176001
v 0.00430319 0.0809763 0.193589
v 0.00430319 0.0810377 0.195591
v -0.0717369 0.0816586 0.197044
v 0.00430319 0.0815081 0.197075
v 0.00430319 0.100491 0.17976
v -0.0717369 0.100501 0.179848
v -0.0717369 0.101 0.181596
v -0.0717369 0.0990017 0.19797
v 0.00430319 0.097001 0.198284
v -0.0717369 0.0970014 0.198284
v -0.0717369 0.0812487 0.195589
v -0.0717369 0.0830053 0.19789
v 0.00430319 0.101 0.181594
v -0.0717369 0.100925 0.195589
v -0.0717369 0.101 0.193588
v 0.00430319 0.0990017 0.19797
v 0.00430319 0.101 0.19359
f 2 1 3
f 4 5 6
f 1 7 8
f 7 5 8
f 9 4 6
f 5 10 8
f 4 10 5
f 12 11 13
f 14 15 16
f 17 1 2
f 17 7 1
f 18 9 6
f 9 18 19
f 21 20 19
f 23 22 3
f 22 2 3
f 22 23 24
f 25 12 13
f 26 27 16
f 15 26 16
f 28 9 19
f 20 28 19
f 14 29 21
f 29 20 21
f 29 14 16
f 30 22 24
f 11 31 13
f 32 31 11
f 33 25 27
f 26 33 27
f 25 33 12
f 34 32 11
f 10 4 3
f 1 10 3
f 10 1 8
f 31 23 3
f 4 31 3
f 27 31 16
f 28 31 9
f 9 31 4
f 23 31 24
f 31 29 16
f 31 25 13
f 31 32 24
f 25 31 27
f 31 28 20
f 29 31 20
f 34 18 6
f 34 17 2
f 14 34 15
f 5 34 6
f 22 34 2
f 34 21 19
f 7 34 5
f 34 11 12
f 34 14 21
f 17 34 7
f 18 34 19
f 34 26 15
f 33 34 12
f 30 34 22
f 34 33 26
f 32 34 24
f 34 30 24
