# Created by Open3D 
# object name: Basket040_collision_4_1
# number of vertices: 34
# number of triangles: 64
v 0.0803454 0.0974602 0.0223641
v 0.0823019 0.100051 0.0223641
v 0.0803454 0.101 0.193583
v 0.0853514 0.101 0.0223641
v 0.0973489 0.0504935 0.198284
v 0.0803454 0.0850017 0.198267
v 0.0818733 0.0504935 0.198102
v 0.0803454 0.0969955 0.198284
v 0.0973489 0.0969955 0.198284
v 0.0973489 0.10096 0.194582
v 0.0803454 0.100427 0.197113
v 0.080858 0.0504935 0.196425
v 0.100578 0.100219 0.0223641
v 0.0993488 0.100723 0.193583
v 0.0993488 0.100723 0.0223641
v 0.0973489 0.101 0.0223641
v 0.0804592 0.0504935 0.13071
v 0.0803454 0.0799292 0.0223641
v 0.0804565 0.0504935 0.0223641
v 0.101371 0.0969955 0.19558
v 0.100822 0.0504935 0.197165
v 0.10145 0.0504935 0.193583
v 0.100822 0.0969955 0.197165
v 0.10145 0.0850017 0.0223641
v 0.10145 0.0504935 0.0869914
v 0.0998876 0.0504935 0.0223641
v 0.0978489 0.0997146 0.197466
v 0.0993488 0.0969955 0.198008
v 0.10145 0.0969955 0.193583
v 0.100523 0.100164 0.195159
v 0.101128 0.0990027 0.193583
v 0.101128 0.0990027 0.0223641
v 0.0993488 0.0504935 0.198008
v 0.10145 0.0969955 0.0223641
f 2 1 3
f 4 2 3
f 5 6 7
f 6 5 8
f 8 5 9
f 11 10 3
f 6 12 7
f 14 13 15
f 16 4 3
f 10 16 3
f 16 14 15
f 16 10 14
f 17 12 6
f 17 18 19
f 18 17 6
f 20 21 22
f 20 23 21
f 24 25 26
f 27 28 23
f 28 27 9
f 27 10 11
f 27 11 8
f 27 8 9
f 29 20 22
f 30 13 14
f 20 30 23
f 30 27 23
f 10 30 14
f 27 30 10
f 31 32 13
f 30 31 13
f 29 31 20
f 31 30 20
f 18 11 3
f 1 18 3
f 11 18 8
f 18 6 8
f 17 5 7
f 26 17 19
f 21 17 22
f 17 25 22
f 17 21 33
f 5 17 33
f 12 17 7
f 25 17 26
f 28 5 33
f 5 28 9
f 21 28 33
f 23 28 21
f 25 29 22
f 29 24 34
f 24 29 25
f 4 32 2
f 32 1 2
f 18 32 19
f 13 32 15
f 32 26 19
f 32 16 15
f 32 18 1
f 32 24 26
f 16 32 4
f 24 32 34
f 31 29 34
f 32 31 34
