# Created by Open3D 
# object name: Basket040_collision_0_3
# number of vertices: 26
# number of triangles: 48
v -0.0333434 0.0990027 -0.00078537
v 0.0340434 0.0995202 -0.00047835
v -0.0333434 0.0996987 -0.00037241
v 0.0340434 0.0990027 -0.00078537
v -0.0139204 0.0999124 -0.00024567
v 0.0340434 0.10013 -0.00011399
v -0.0333434 0.100666 0.00080837
v 0.0340434 0.100602 0.00061633
v -0.0139204 0.100743 0.00103811
v 0.0340434 0.10082 0.00127871
v -0.0333434 0.100921 0.00159618
v 0.0340434 0.100921 0.00159618
v -0.0333434 0.100417 5.977e-05
v 0.0340434 0.100417 5.977e-05
v -0.0333434 0.100785 0.00116916
v -0.0333434 0.100031 -0.00017395
v 0.0340434 0.0504935 -0.0011
v -0.0333434 0.0504935 0.0223618
v -0.0333434 0.0504935 -0.0011
v 0.0340434 0.0504935 0.0223618
v -0.0333434 0.101 0.0223618
v 0.0340434 0.101 0.0223618
v 0.0340434 0.0969955 -0.0011
v -0.0333434 0.0969955 -0.0011
v -0.0333434 0.101 0.00359419
v 0.0340434 0.101 0.00359419
f 2 1 3
f 4 1 2
f 5 2 3
f 5 6 2
f 8 7 9
f 10 8 9
f 10 11 12
f 10 9 11
f 13 8 14
f 13 7 8
f 9 15 11
f 7 15 9
f 6 16 14
f 16 13 14
f 16 6 5
f 16 5 3
f 17 18 19
f 18 17 20
f 22 21 20
f 21 18 20
f 24 23 19
f 23 17 19
f 1 4 24
f 4 23 24
f 25 21 22
f 26 25 22
f 25 26 12
f 11 25 12
f 10 22 20
f 10 26 22
f 17 10 20
f 10 4 2
f 23 10 17
f 6 10 2
f 26 10 12
f 4 10 23
f 10 6 14
f 8 10 14
f 18 16 19
f 1 16 3
f 16 24 19
f 16 1 24
f 21 16 18
f 25 16 21
f 16 25 11
f 15 16 11
f 13 16 7
f 16 15 7
