# Created by Open3D 
# object name: Basket040_collision_8_0
# number of vertices: 34
# number of triangles: 64
v 0.0803433 0.0807682 0.157974
v 0.0803433 0.0799326 0.0223641
v -0.0139167 0.0802946 0.0223641
v -0.0139167 0.0811834 0.15358
v 0.0803433 0.0974582 0.157974
v -0.0139167 0.0971528 0.0223641
v 0.0803433 0.0974599 0.0223641
v -0.0139167 0.0971459 0.15358
v 0.031354 0.0811834 0.157974
v 0.031354 0.0971459 0.157974
v -0.0139167 0.0815935 0.155305
v -0.0139167 0.0834792 0.156752
v -0.0139167 0.0824789 0.156314
v -0.0139167 0.0965746 0.155505
v -0.0139167 0.0957801 0.156513
v -0.0139167 0.0819144 0.155677
v 0.0271739 0.0829422 0.157974
v 0.0267217 0.0850046 0.157974
v -0.0139167 0.0850046 0.156925
v 0.0280413 0.0818372 0.157974
v -0.0139167 0.0967805 0.154814
v -0.0139167 0.0947798 0.156752
v 0.0282627 0.0817582 0.157974
v -0.0139167 0.0840317 0.156819
v 0.0293516 0.0967788 0.157974
v -0.0139167 0.0910015 0.156925
v 0.0293516 0.0814271 0.157974
v -0.0139167 0.0936456 0.156859
v -0.0139167 0.0930022 0.156912
v 0.0279213 0.0962074 0.157974
v 0.0272384 0.0953718 0.157974
v 0.0271462 0.0951212 0.157974
v 0.0269063 0.0930296 0.157974
v 0.0267402 0.0870036 0.157974
f 2 1 3
f 1 4 3
f 6 5 7
f 5 6 8
f 9 4 1
f 10 5 8
f 9 11 4
f 9 12 13
f 10 14 15
f 16 9 13
f 16 11 9
f 17 18 19
f 20 17 19
f 21 10 8
f 21 14 10
f 22 10 15
f 24 23 19
f 23 20 19
f 22 25 10
f 18 26 19
f 27 24 12
f 27 23 24
f 27 12 9
f 25 28 29
f 28 25 22
f 31 30 29
f 30 25 29
f 26 32 29
f 32 31 29
f 33 32 26
f 34 26 18
f 34 33 26
f 6 7 2
f 6 2 3
f 7 5 2
f 5 1 2
f 28 6 3
f 6 28 8
f 4 28 3
f 28 16 13
f 11 28 4
f 28 24 19
f 28 22 15
f 12 28 13
f 14 28 15
f 28 21 8
f 16 28 11
f 24 28 12
f 21 28 14
f 26 28 19
f 28 26 29
f 5 34 1
f 34 9 1
f 10 34 5
f 17 34 18
f 34 30 31
f 34 17 20
f 25 34 10
f 23 34 20
f 34 27 9
f 27 34 23
f 30 34 25
f 32 34 31
f 33 34 32
