# Created by Open3D 
# object name: Basket040_collision_9_0
# number of vertices: 34
# number of triangles: 64
v -0.080768 0.0793045 0.194582
v -0.0717369 0.0802942 0.0223641
v -0.0717369 0.0812158 0.194582
v -0.0799132 0.0793045 0.0223641
v -0.0717369 0.100926 0.19558
v -0.0717369 0.0980014 0.19812
v -0.0966491 0.100427 0.197113
v -0.0976488 0.0970011 0.198146
v -0.0717369 0.0850045 0.198284
v -0.0966491 0.0793045 0.198284
v -0.100122 0.0793045 0.197165
v -0.100122 0.0970011 0.197165
v -0.100712 0.0970011 0.194582
v -0.10075 0.0793045 0.187582
v -0.083297 0.0793045 0.197845
v -0.0966491 0.0990016 0.197957
v -0.0997986 0.0818636 0.0223641
v -0.0969984 0.0793045 0.0223641
v -0.0826509 0.100552 0.0223641
v -0.0717369 0.0971519 0.0223641
v -0.0717369 0.101 0.181581
v -0.0846502 0.101 0.0223641
v -0.0966491 0.100963 0.194582
v -0.10075 0.0970011 0.0223641
v -0.10075 0.0850045 0.0223641
v -0.0717369 0.0823308 0.197457
v -0.10035 0.083004 0.0223641
v -0.0966491 0.101 0.0223641
v -0.0998228 0.100172 0.195159
v -0.100398 0.0990016 0.194582
v -0.100429 0.0990016 0.0223641
v -0.0998781 0.100225 0.0223641
v -0.0986484 0.100724 0.193583
v -0.0986484 0.100724 0.0223641
f 1 2 3
f 2 1 4
f 6 5 7
f 8 9 6
f 9 8 10
f 8 11 10
f 11 8 12
f 11 13 14
f 13 11 12
f 15 9 10
f 15 1 3
f 16 6 7
f 16 8 6
f 12 16 7
f 8 16 12
f 17 18 14
f 20 19 21
f 19 22 21
f 23 5 21
f 5 23 7
f 24 25 14
f 13 24 14
f 26 15 3
f 15 26 9
f 25 27 14
f 27 17 14
f 22 28 21
f 28 23 21
f 23 29 7
f 29 12 7
f 24 30 31
f 30 24 13
f 30 13 12
f 29 30 12
f 30 32 31
f 32 30 29
f 28 33 23
f 33 29 23
f 33 32 29
f 34 33 28
f 33 34 32
f 4 15 18
f 18 15 14
f 1 15 4
f 15 11 14
f 11 15 10
f 26 20 21
f 5 26 21
f 2 26 3
f 26 2 20
f 26 5 6
f 9 26 6
f 34 4 18
f 2 34 20
f 17 34 18
f 34 2 4
f 34 19 20
f 34 27 25
f 34 24 31
f 19 34 22
f 24 34 25
f 27 34 17
f 34 28 22
f 32 34 31
