# Created by Open3D 
# object name: Basket040_collision_12_0
# number of vertices: 34
# number of triangles: 64
v -0.080045 -0.0803639 0.0234774
v -0.0139259 -0.080807 0.0234774
v -0.080045 -0.0806082 0.175516
v -0.0139259 -0.0811777 0.153579
v -0.078731 -0.097187 0.0234774
v -0.080045 -0.0975711 0.0234923
v -0.0266513 -0.0811777 0.175516
v -0.0139259 -0.0971415 0.0234774
v -0.080045 -0.0975745 0.175516
v -0.0139259 -0.0971398 0.153579
v -0.0266513 -0.0971499 0.175516
v -0.0139259 -0.0929968 0.156913
v -0.0139259 -0.0947743 0.156749
v -0.0228583 -0.0849972 0.175516
v -0.0139259 -0.0844463 0.156868
v -0.0139259 -0.0849972 0.156928
v -0.0139259 -0.0834724 0.156749
v -0.0232337 -0.0831995 0.175516
v -0.0139259 -0.0831102 0.1566
v -0.0139259 -0.0824733 0.156303
v -0.0139259 -0.0815871 0.155306
v -0.0238098 -0.0822004 0.175516
v -0.0248066 -0.0815871 0.175516
v -0.0139259 -0.0889953 0.156928
v -0.0228647 -0.0849332 0.175516
v -0.0238421 -0.0821734 0.175516
v -0.0232984 -0.0929193 0.175516
v -0.0233049 -0.0929968 0.175516
v -0.0139259 -0.0957734 0.156511
v -0.0139259 -0.0965687 0.155514
v -0.0237709 -0.0956302 0.175516
v -0.0235088 -0.0946496 0.175516
v -0.0247742 -0.0965737 0.175516
v -0.0229683 -0.0869971 0.175516
f 2 1 3
f 4 2 3
f 5 6 1
f 7 4 3
f 5 8 6
f 6 8 9
f 8 10 9
f 10 11 9
f 13 12 14
f 15 14 16
f 15 17 14
f 18 19 20
f 18 21 22
f 21 18 20
f 7 23 4
f 23 21 4
f 14 24 16
f 12 24 14
f 18 25 19
f 19 25 17
f 17 25 14
f 21 26 22
f 23 26 21
f 27 28 13
f 30 29 31
f 29 32 31
f 32 29 28
f 28 29 13
f 33 30 31
f 30 33 10
f 33 11 10
f 34 13 14
f 34 27 13
f 1 6 3
f 6 9 3
f 8 5 1
f 8 1 2
f 21 29 4
f 4 29 2
f 29 8 2
f 19 29 20
f 8 29 10
f 24 29 16
f 29 15 16
f 29 12 13
f 15 29 17
f 29 19 17
f 29 21 20
f 29 24 12
f 29 30 10
f 9 34 3
f 34 7 3
f 11 34 9
f 34 23 7
f 26 34 22
f 32 34 31
f 34 18 22
f 25 34 14
f 33 34 11
f 34 25 18
f 34 26 23
f 27 34 28
f 34 32 28
f 34 33 31
