# Created by Open3D 
# object name: Basket040_collision_0_1
# number of vertices: 34
# number of triangles: 64
v -0.100513 0.0504935 0.0203445
v -0.0991716 0.0504935 0.0223618
v -0.10073 0.0850017 0.0223618
v -0.10073 0.0504935 0.0196127
v -0.0966332 0.101 0.0223618
v -0.0966332 0.101 0.00359419
v -0.0986322 0.100713 0.0223618
v -0.0998494 0.100209 0.00259519
v -0.0998593 0.100219 0.0223618
v -0.0986322 0.100664 0.00159618
v -0.100414 0.0990027 0.0223618
v -0.0966332 0.100921 0.00159618
v -0.0966332 0.100417 5.977e-05
v -0.0997604 0.10011 0.00044559
v -0.0966332 0.0990027 -0.00078537
v -0.10073 0.0969955 0.00359419
v -0.10073 0.0969955 0.0223618
v -0.100671 0.0504935 0.00159618
v -0.100671 0.0969955 0.00159618
v -0.0986322 0.0969955 -0.0008313
v -0.0966332 0.0969955 -0.0011
v -0.100354 0.0990027 0.00159618
v -0.100117 0.0969955 1.384e-05
v -0.0966332 0.0504935 -0.0011
v -0.0333434 0.0969955 -0.0011
v -0.0333434 0.0504935 -0.0011
v -0.0333434 0.101 0.00359419
v -0.0333434 0.101 0.0223618
v -0.0986322 0.0504935 -0.0008313
v -0.0333434 0.0504935 0.0223618
v -0.100117 0.0504935 1.384e-05
v -0.0333434 0.0990027 -0.00078537
v -0.0333434 0.100417 5.977e-05
v -0.0333434 0.100921 0.00159618
f 1 2 3
f 4 1 3
f 5 6 7
f 8 9 7
f 6 10 7
f 10 8 7
f 8 11 9
f 10 12 13
f 12 10 6
f 15 14 13
f 14 10 13
f 10 14 8
f 11 16 17
f 4 16 18
f 16 19 18
f 20 15 21
f 20 14 15
f 14 22 8
f 16 22 19
f 22 11 8
f 22 16 11
f 20 23 14
f 22 23 19
f 23 22 14
f 24 25 26
f 25 24 21
f 27 5 28
f 5 27 6
f 29 30 2
f 30 29 26
f 29 24 26
f 29 4 18
f 1 29 2
f 29 1 4
f 31 29 18
f 15 25 21
f 15 32 25
f 32 15 33
f 15 13 33
f 34 30 26
f 34 32 33
f 25 34 26
f 30 34 28
f 32 34 25
f 34 27 28
f 11 30 28
f 2 11 3
f 11 17 3
f 30 11 2
f 5 11 28
f 11 5 7
f 9 11 7
f 13 12 33
f 12 34 33
f 27 12 6
f 34 12 27
f 17 16 3
f 16 4 3
f 24 20 21
f 29 20 24
f 23 29 31
f 23 20 29
f 23 31 18
f 19 23 18
