# Created by Open3D 
# object name: Basket040_collision_3_1
# number of vertices: 32
# number of triangles: 60
v -0.0139259 -1.303e-05 0.0220868
v -0.0139259 -0.0505035 0.0229559
v -0.0805058 -1.303e-05 0.0234774
v -0.0426264 -0.0505035 -0.0010976
v -0.0846447 -1.303e-05 -0.0010976
v -0.0139259 -1.303e-05 0.00275404
v -0.0139259 -0.0505035 0.00046555
v -0.0388944 -0.0505035 0.0234774
v -0.100674 -1.303e-05 0.00159206
v -0.100539 -0.0505035 0.00120688
v -0.100674 -0.0505035 0.00159206
v -0.100393 -1.303e-05 0.00078853
v -0.100526 -0.0505035 0.0210082
v -0.100198 -1.303e-05 0.0173932
v -0.0968915 -1.303e-05 0.0234774
v -0.0991841 -0.0505035 0.0234774
v -0.100251 -0.0505035 0.00038396
v -0.100121 -0.0505035 1.146e-05
v -0.100478 -1.303e-05 0.016479
v -0.0989927 -0.0505035 -0.00063586
v -0.0986423 -1.303e-05 -0.00083537
v -0.0986423 -0.0505035 -0.00083537
v -0.0993732 -1.303e-05 -0.00041917
v -0.0997626 -0.0505035 -0.00019497
v -0.100121 -1.303e-05 1.146e-05
v -0.10064 -0.0505035 0.0206371
v -0.10075 -0.0505035 0.0202769
v -0.10075 -1.303e-05 0.0155912
v -0.0966451 -1.303e-05 -0.0010976
v -0.0966451 -0.0505035 -0.0010976
v -0.10075 -1.303e-05 0.00359366
v -0.10075 -0.0505035 0.00359366
f 2 1 3
f 4 5 6
f 4 6 7
f 8 2 3
f 9 10 11
f 10 9 12
f 14 13 15
f 13 16 15
f 18 17 12
f 17 10 12
f 19 13 14
f 20 21 22
f 20 23 21
f 23 20 24
f 25 24 18
f 25 23 24
f 25 18 12
f 19 26 13
f 27 26 28
f 26 19 28
f 1 2 7
f 6 1 7
f 29 4 30
f 4 29 5
f 31 27 28
f 27 31 32
f 15 8 3
f 16 8 15
f 22 21 30
f 21 29 30
f 9 11 32
f 31 9 32
f 25 14 15
f 1 25 3
f 25 15 3
f 5 25 6
f 25 1 6
f 9 25 12
f 29 25 5
f 25 31 28
f 19 25 28
f 21 25 29
f 25 9 31
f 23 25 21
f 25 19 14
f 26 22 30
f 26 4 7
f 2 26 7
f 11 26 32
f 26 27 32
f 8 26 2
f 13 26 16
f 4 26 30
f 24 26 18
f 26 8 16
f 10 26 11
f 26 17 18
f 26 20 22
f 17 26 10
f 20 26 24
