# Created by Open3D 
# object name: Basket040_collision_2_0
# number of vertices: 33
# number of triangles: 62
v 0.0263622 -0.0505035 -0.0011
v -0.0139259 -0.0505035 0.00046412
v -0.0139259 -0.0849909 -0.0011
v -0.0139259 -0.0977123 -0.00098745
v 0.0437621 -0.0969907 -0.0011
v 0.0437621 -0.0973382 -0.0010458
v -0.0139259 -0.0969907 -0.0011
v -0.0139259 -0.10049 0.0173341
v -0.0139259 -0.100994 0.0155908
v 0.0437621 -0.100994 0.0195255
v -0.0139259 -0.0802858 0.0223618
v -0.0139259 -0.0505035 0.0222603
v 0.0211578 -0.0505035 0.0223618
v 0.0437621 -0.0983734 -0.00088385
v -0.0139259 -0.0989874 -0.00078763
v 0.0437621 -0.0989874 -0.00078763
v -0.0139259 -0.0995113 -0.00048216
v -0.0139259 -0.100421 5.759e-05
v 0.0437621 -0.100421 5.759e-05
v 0.0437621 -0.100783 0.0202557
v 0.0437621 -0.0993792 0.0223618
v -0.0139259 -0.097139 0.0223618
v -0.0139259 -0.100945 0.00231764
v 0.0437621 -0.10097 0.00297854
v 0.0437621 -0.100994 0.00359235
v -0.0139259 -0.100994 0.00359235
v 0.0437621 -0.100929 0.00194252
v 0.0437621 -0.100915 0.00159414
v -0.0139259 -0.100915 0.00159414
v 0.0437621 -0.0999828 -0.00020231
v 0.0437621 -0.0992397 -0.00064054
v 0.0437621 -0.0505035 0.0223618
v 0.0437621 -0.0505035 -0.0011
f 2 1 3
f 4 5 6
f 4 7 5
f 8 9 10
f 12 11 13
f 4 14 15
f 14 16 15
f 14 4 6
f 18 17 19
f 20 21 22
f 8 20 22
f 20 8 10
f 23 24 25
f 26 23 25
f 23 27 24
f 28 23 29
f 27 23 28
f 17 30 19
f 31 17 15
f 16 31 15
f 31 30 17
f 12 32 33
f 1 12 33
f 32 12 13
f 12 1 2
f 5 7 33
f 7 1 33
f 1 7 3
f 18 19 28
f 18 28 29
f 26 25 10
f 9 26 10
f 11 32 13
f 11 21 32
f 21 11 22
f 23 12 2
f 23 2 3
f 7 23 3
f 23 8 22
f 23 4 15
f 23 18 29
f 17 23 15
f 23 7 4
f 11 23 22
f 8 23 9
f 23 26 9
f 23 11 12
f 23 17 18
f 5 31 6
f 31 27 28
f 31 5 33
f 32 31 33
f 25 31 10
f 31 14 6
f 19 31 28
f 21 31 32
f 24 31 25
f 31 20 10
f 27 31 24
f 14 31 16
f 20 31 21
f 30 31 19
