# Created by Open3D 
# object name: Basket040_collision_14_0
# number of vertices: 31
# number of triangles: 58
v 0.0313541 0.0975753 0.177145
v 0.0803433 0.0974584 0.157974
v 0.0803433 0.0978343 0.177145
v 0.0313541 0.097146 0.157974
v 0.0293503 0.081322 0.177145
v 0.0313541 0.0811834 0.177145
v 0.0313541 0.0811834 0.157974
v 0.0267159 0.085004 0.157974
v 0.0271701 0.0829425 0.157974
v 0.0257541 0.0830043 0.177145
v 0.0280358 0.0818366 0.157974
v 0.0275121 0.0816445 0.177145
v 0.0294999 0.0973598 0.177145
v 0.0270899 0.0948222 0.177145
v 0.0271167 0.0950026 0.177145
v 0.0271434 0.0951212 0.157974
v 0.025877 0.085004 0.177145
v 0.0275495 0.096461 0.177145
v 0.0269029 0.0930029 0.157974
v 0.0293503 0.0814256 0.157974
v 0.0272342 0.0953718 0.157974
v 0.0279182 0.0962071 0.157974
v 0.0276457 0.096715 0.177145
v 0.0293503 0.0967801 0.157974
v 0.0293503 0.0973297 0.177145
v 0.0267426 0.0870038 0.157974
v 0.0282548 0.0817581 0.157974
v 0.029735 0.0813755 0.157974
v 0.0278968 0.0968419 0.177145
v 0.0803433 0.0807674 0.157974
v 0.0803433 0.0807674 0.177145
f 2 1 3
f 4 1 2
f 6 5 7
f 8 9 10
f 11 12 10
f 9 11 10
f 4 13 1
f 14 15 16
f 17 14 16
f 15 18 16
f 17 19 10
f 19 17 16
f 20 5 12
f 22 21 23
f 21 18 23
f 18 21 16
f 13 24 25
f 24 13 4
f 26 8 10
f 19 26 10
f 11 27 12
f 27 20 12
f 5 28 7
f 20 28 5
f 24 29 25
f 29 24 22
f 29 22 23
f 31 30 3
f 30 2 3
f 6 30 31
f 30 6 7
f 30 28 2
f 28 30 7
f 28 27 11
f 28 4 2
f 28 19 16
f 8 28 9
f 28 11 9
f 21 28 16
f 28 24 4
f 26 28 8
f 28 21 22
f 24 28 22
f 28 26 19
f 27 28 20
f 29 31 3
f 12 29 10
f 1 29 3
f 29 6 31
f 29 18 15
f 29 5 6
f 29 17 10
f 5 29 12
f 29 13 25
f 14 29 15
f 13 29 1
f 29 14 17
f 18 29 23
