# Created by Open3D 
# object name: Basket040_collision_11_0
# number of vertices: 34
# number of triangles: 64
v -0.0266513 -0.0971506 0.175518
v -0.0139259 -0.100495 0.179848
v -0.080045 -0.0975756 0.175518
v -0.0237709 -0.09563 0.175518
v -0.0139259 -0.0829982 0.177245
v -0.0228583 -0.0849977 0.175518
v -0.080045 -0.100467 0.179601
v -0.0139259 -0.0987979 0.178684
v -0.0243082 -0.0818936 0.175518
v -0.0139259 -0.0811782 0.19359
v -0.080045 -0.0806634 0.195592
v -0.080045 -0.0806095 0.175518
v -0.080045 -0.0969969 0.198282
v -0.0139259 -0.0969969 0.198282
v -0.0139259 -0.0849977 0.198282
v -0.080045 -0.0849977 0.198271
v -0.0139259 -0.100994 0.181594
v -0.080045 -0.100994 0.181594
v -0.080045 -0.0829982 0.197932
v -0.0139259 -0.0811782 0.179592
v -0.0266513 -0.0811782 0.175518
v -0.0139259 -0.0816512 0.197043
v -0.080045 -0.0812361 0.197134
v -0.0139259 -0.0815873 0.177947
v -0.0139259 -0.0812421 0.195592
v -0.0139259 -0.0829982 0.19789
v -0.080045 -0.100994 0.19359
v -0.0139259 -0.100994 0.19359
v -0.080045 -0.0989965 0.197972
v -0.0139259 -0.0989965 0.197972
v -0.0139259 -0.100421 0.197125
v -0.080045 -0.100421 0.197125
v -0.0139259 -0.10092 0.195592
v -0.080045 -0.10092 0.195592
f 1 2 3
f 5 4 6
f 2 7 3
f 8 4 5
f 4 8 1
f 1 8 2
f 9 5 6
f 11 10 12
f 13 14 15
f 16 13 15
f 7 17 18
f 17 7 2
f 19 16 15
f 20 21 12
f 10 20 12
f 23 22 11
f 20 24 21
f 24 9 21
f 9 24 5
f 25 10 11
f 22 25 11
f 19 26 23
f 26 22 23
f 26 19 15
f 12 9 3
f 4 9 6
f 9 1 3
f 9 4 1
f 21 9 12
f 17 27 18
f 27 17 28
f 30 29 31
f 31 29 32
f 29 30 14
f 13 29 14
f 8 26 2
f 26 30 31
f 14 26 15
f 33 26 31
f 25 26 10
f 26 8 5
f 26 17 2
f 30 26 14
f 17 26 28
f 26 20 10
f 24 26 5
f 26 33 28
f 26 24 20
f 26 25 22
f 34 11 12
f 34 12 3
f 7 34 3
f 19 34 16
f 34 23 11
f 34 7 18
f 29 34 32
f 34 13 16
f 27 34 18
f 34 19 23
f 34 29 13
f 34 31 32
f 34 33 31
f 34 27 28
f 33 34 28
