# Created by Open3D 
# object name: Basket040_collision_6_1
# number of vertices: 34
# number of triangles: 64
v 0.0998874 -0.0505035 0.0223641
v 0.0975997 -1.303e-05 0.0223641
v 0.10145 -0.0505035 0.0869804
v 0.10145 -1.303e-05 0.181581
v 0.0804737 -0.0505035 0.129439
v 0.0806466 -1.303e-05 0.0223641
v 0.0804711 -0.0505035 0.0223641
v 0.0804741 -0.0505035 0.130743
v 0.080846 -0.0505035 0.195162
v 0.0808497 -0.0505035 0.195764
v 0.081635 -1.303e-05 0.193583
v 0.0815802 -0.0505035 0.198092
v 0.0833517 -1.303e-05 0.197836
v 0.0853512 -1.303e-05 0.198284
v 0.0820497 -1.303e-05 0.196993
v 0.0810518 -0.0505035 0.19775
v 0.080906 -0.0505035 0.197177
v 0.0808872 -0.0505035 0.196995
v 0.0816907 -1.303e-05 0.19558
v 0.0808777 -0.0505035 0.196778
v 0.101093 -1.303e-05 0.19639
v 0.101372 -0.0505035 0.19558
v 0.101372 -1.303e-05 0.19558
v 0.100823 -0.0505035 0.197165
v 0.100074 -1.303e-05 0.197595
v 0.0993494 -0.0505035 0.198008
v 0.0993494 -1.303e-05 0.198008
v 0.0823916 -0.0505035 0.198274
v 0.0824596 -0.0505035 0.198284
v 0.100823 -1.303e-05 0.197165
v 0.10145 -1.303e-05 0.193583
v 0.10145 -0.0505035 0.193583
v 0.09735 -0.0505035 0.198284
v 0.09735 -1.303e-05 0.198284
f 1 2 3
f 2 4 3
f 5 6 7
f 5 8 6
f 9 10 11
f 9 11 6
f 8 9 6
f 13 12 14
f 12 13 15
f 12 15 16
f 18 17 19
f 19 17 15
f 15 17 16
f 20 18 19
f 20 19 11
f 10 20 11
f 21 22 23
f 21 24 22
f 24 25 26
f 25 27 26
f 28 29 14
f 12 28 14
f 21 30 24
f 30 25 24
f 6 1 7
f 1 6 2
f 32 31 22
f 22 31 23
f 31 32 3
f 4 31 3
f 34 33 27
f 27 33 26
f 33 34 14
f 29 33 14
f 24 28 22
f 1 28 7
f 28 1 3
f 28 5 7
f 32 28 3
f 5 28 8
f 28 9 8
f 28 32 22
f 28 12 16
f 9 28 10
f 28 20 10
f 17 28 16
f 28 24 26
f 33 28 26
f 28 17 18
f 20 28 18
f 28 33 29
f 6 30 2
f 30 4 2
f 31 30 23
f 11 30 6
f 19 30 11
f 30 13 14
f 13 30 15
f 30 19 15
f 30 31 4
f 34 30 14
f 30 34 27
f 30 21 23
f 25 30 27
