# Created by Open3D 
# object name: Basket040_collision_3_0
# number of vertices: 34
# number of triangles: 64
v -0.10075 -0.0849909 0.0234774
v -0.0991841 -0.0505035 0.0234774
v -0.10075 -0.0505035 0.0202769
v -0.10075 -0.0969907 0.0234774
v -0.0139259 -0.0849909 -0.0010976
v -0.0139259 -0.0505035 0.00046555
v -0.0426264 -0.0505035 -0.0010976
v -0.0139259 -0.10049 0.0173354
v -0.0139259 -0.097139 0.0234774
v -0.0846447 -0.100994 0.0234774
v -0.0139259 -0.100994 0.0155912
v -0.0139259 -0.0807998 0.0234774
v -0.0388944 -0.0505035 0.0234774
v -0.0139259 -0.0505035 0.0229559
v -0.100674 -0.0969907 0.00159206
v -0.100674 -0.0505035 0.00159206
v -0.100393 -0.0989874 0.00259286
v -0.0998746 -0.100213 0.0234774
v -0.0966451 -0.0989874 -0.00078725
v -0.0966451 -0.0969907 -0.0010976
v -0.0986423 -0.0969907 -0.00083537
v -0.0966451 -0.100994 0.00359366
v -0.0966451 -0.100994 0.0234774
v -0.0139259 -0.100915 0.00159206
v -0.0997641 -0.100104 0.0004445
v -0.100121 -0.0969907 1.146e-05
v -0.0966451 -0.100421 5.717e-05
v -0.0966451 -0.100915 0.00159206
v -0.0139259 -0.100421 5.717e-05
v -0.0139259 -0.0989874 -0.00078725
v -0.0139259 -0.0969907 -0.0010976
v -0.100121 -0.0505035 1.146e-05
v -0.0966451 -0.0505035 -0.0010976
v -0.0986423 -0.0505035 -0.00083537
f 1 2 3
f 4 1 3
f 6 5 7
f 8 9 10
f 11 8 10
f 13 12 14
f 16 15 3
f 15 4 3
f 17 18 4
f 15 17 4
f 20 19 21
f 22 23 18
f 22 24 11
f 26 25 15
f 25 17 15
f 25 26 21
f 17 25 18
f 25 22 18
f 25 19 27
f 19 25 21
f 28 25 27
f 25 28 22
f 22 28 24
f 12 6 14
f 12 24 29
f 12 5 6
f 8 12 9
f 30 12 29
f 5 12 31
f 12 30 31
f 12 8 11
f 24 12 11
f 2 32 3
f 6 32 14
f 32 13 14
f 32 6 7
f 32 16 3
f 13 32 2
f 33 32 7
f 32 33 34
f 20 33 7
f 20 5 31
f 5 20 7
f 33 20 34
f 34 20 21
f 1 23 2
f 9 23 10
f 23 13 2
f 12 23 9
f 23 1 4
f 18 23 4
f 23 12 13
f 26 32 34
f 26 34 21
f 32 26 16
f 26 15 16
f 19 30 29
f 27 19 29
f 30 19 31
f 19 20 31
f 23 22 10
f 22 11 10
f 24 28 29
f 28 27 29
