# Created by Open3D 
# object name: Basket040_collision_15_0
# number of vertices: 32
# number of triangles: 60
v 0.0803701 -0.0976773 0.176937
v 0.0313543 -0.0975132 0.176937
v 0.0803701 -0.0974602 0.157179
v 0.0313543 -0.0971404 0.157179
v 0.0277185 -0.0966367 0.176937
v 0.0258168 -0.0942738 0.157179
v 0.0271998 -0.0949963 0.176937
v 0.0309383 -0.0971073 0.157179
v 0.0293554 -0.0972448 0.176937
v 0.0288692 -0.0967295 0.157179
v 0.0260761 -0.0831887 0.157179
v 0.027524 -0.0819576 0.157179
v 0.0275888 -0.0816643 0.176937
v 0.0266758 -0.0829981 0.176937
v 0.0251793 -0.0849981 0.157179
v 0.0266704 -0.0849368 0.176937
v 0.0254657 -0.0929963 0.157179
v 0.0269891 -0.0929963 0.176937
v 0.0293554 -0.0968239 0.157179
v 0.0277022 -0.0962871 0.157179
v 0.0264111 -0.0953823 0.157179
v 0.026141 -0.0949814 0.157179
v 0.0278535 -0.0817736 0.157179
v 0.0300091 -0.08125 0.176937
v 0.0313543 -0.0811771 0.176937
v 0.0313543 -0.0811771 0.157179
v 0.0293554 -0.0813876 0.157179
v 0.0252171 -0.0871323 0.157179
v 0.0279832 -0.0815383 0.176937
v 0.0293554 -0.0813296 0.176937
v 0.0803701 -0.0807529 0.157179
v 0.0803701 -0.0807529 0.176937
f 1 2 3
f 2 4 3
f 6 5 7
f 8 4 2
f 9 5 10
f 9 8 2
f 12 11 13
f 11 14 13
f 14 11 15
f 16 14 15
f 18 17 7
f 17 6 7
f 19 9 10
f 9 19 8
f 5 20 10
f 21 20 5
f 22 5 6
f 22 21 5
f 23 12 13
f 24 25 26
f 27 24 26
f 16 28 18
f 28 17 18
f 28 16 15
f 23 29 27
f 29 23 13
f 30 24 27
f 29 30 27
f 31 1 3
f 1 31 32
f 31 25 32
f 26 25 31
f 28 31 3
f 4 28 3
f 28 27 26
f 28 26 31
f 28 19 10
f 23 28 12
f 11 28 15
f 8 28 4
f 20 28 10
f 28 11 12
f 28 22 6
f 17 28 6
f 19 28 8
f 28 20 21
f 22 28 21
f 28 23 27
f 30 1 32
f 30 18 7
f 1 30 2
f 14 30 13
f 25 30 32
f 5 30 7
f 16 30 14
f 30 9 2
f 9 30 5
f 30 16 18
f 24 30 25
f 30 29 13
