# Created by Open3D 
# object name: Basket040_collision_7_1
# number of vertices: 34
# number of triangles: 64
v -0.0991848 -0.0505035 0.0234774
v -0.0968964 -1.303e-05 0.0234774
v -0.100748 -0.0505035 0.0876431
v -0.100748 -1.303e-05 0.181584
v -0.0802225 -0.0505035 0.130049
v -0.0805094 -1.303e-05 0.0234774
v -0.0802216 -0.0505035 0.0234774
v -0.0802227 -0.0505035 0.131224
v -0.082651 -1.303e-05 0.197839
v -0.0813482 -1.303e-05 0.196984
v -0.0805777 -0.0505035 0.197746
v -0.0803818 -0.0505035 0.194832
v -0.0803856 -0.0505035 0.195781
v -0.0809349 -1.303e-05 0.193578
v -0.0811064 -0.0505035 0.198093
v -0.080433 -0.0505035 0.197177
v -0.0809916 -1.303e-05 0.19558
v -0.0809632 -1.303e-05 0.194605
v -0.0976643 -1.303e-05 0.198147
v -0.098649 -1.303e-05 0.19801
v -0.098649 -0.0505035 0.19801
v -0.0966492 -0.0505035 0.198284
v -0.0966492 -1.303e-05 0.198284
v -0.100402 -1.303e-05 0.196368
v -0.100673 -0.0505035 0.19558
v -0.100673 -1.303e-05 0.19558
v -0.100122 -0.0505035 0.197172
v -0.081918 -0.0505035 0.198274
v -0.0846507 -1.303e-05 0.198284
v -0.0819808 -0.0505035 0.198284
v -0.0804196 -0.0505035 0.197007
v -0.100122 -1.303e-05 0.197172
v -0.100748 -1.303e-05 0.193578
v -0.100748 -0.0505035 0.193578
f 2 1 3
f 4 2 3
f 6 5 7
f 8 5 6
f 10 9 11
f 13 12 14
f 14 12 6
f 12 8 6
f 9 15 11
f 16 17 10
f 16 10 11
f 18 13 14
f 19 20 21
f 19 22 23
f 22 19 21
f 25 24 26
f 27 24 25
f 28 9 29
f 28 15 9
f 30 28 29
f 16 31 17
f 31 18 17
f 18 31 13
f 32 24 27
f 1 6 7
f 6 1 2
f 33 34 25
f 33 25 26
f 34 33 3
f 33 4 3
f 23 22 29
f 22 30 29
f 15 31 11
f 1 31 3
f 31 1 7
f 31 34 3
f 5 31 7
f 34 31 25
f 12 31 8
f 31 5 8
f 31 27 25
f 31 16 11
f 31 12 13
f 27 31 21
f 31 22 21
f 31 28 30
f 22 31 30
f 28 31 15
f 32 6 2
f 4 32 2
f 32 33 26
f 32 23 29
f 32 14 6
f 9 32 29
f 33 32 4
f 19 32 20
f 32 9 10
f 17 32 10
f 32 18 14
f 18 32 17
f 32 19 23
f 24 32 26
f 32 27 21
f 20 32 21
