# Created by Open3D 
# object name: Basket040_collision_2_1
# number of vertices: 12
# number of triangles: 20
v 0.0263622 -0.0505035 -0.0011
v 0.0437621 -0.035609 -0.0011
v -0.0139259 -1.303e-05 0.00275403
v -0.0139259 -0.0505035 0.00046412
v 0.0437621 -0.0313149 0.0223618
v 0.0211578 -0.0505035 0.0223618
v 0.0437621 -0.0505035 0.0223618
v 0.0437621 -1.303e-05 0.0222552
v 0.0437621 -1.303e-05 0.0005144
v -0.0139259 -1.303e-05 0.0220884
v -0.0139259 -0.0505035 0.0222603
v 0.0437621 -0.0505035 -0.0011
f 2 1 3
f 1 4 3
f 5 6 7
f 5 8 6
f 9 2 3
f 10 11 6
f 8 10 6
f 12 1 2
f 9 10 8
f 10 9 3
f 11 10 4
f 4 10 3
f 11 12 6
f 6 12 7
f 12 11 4
f 1 12 4
f 12 5 7
f 9 12 2
f 5 12 8
f 12 9 8
