# Created by Open3D 
# object name: Basket040_collision_6_0
# number of vertices: 34
# number of triangles: 64
v 0.09735 -0.100994 0.193583
v 0.0803701 -0.100421 0.197113
v 0.0803701 -0.100994 0.181581
v 0.09735 -0.0989874 0.197957
v 0.0803701 -0.0969907 0.198284
v 0.10145 -0.0969907 0.0223641
v 0.100579 -0.100213 0.0223641
v 0.101128 -0.0989874 0.193583
v 0.0803701 -0.0813434 0.197096
v 0.0808779 -0.0505035 0.19647
v 0.09735 -0.0969907 0.198284
v 0.09735 -0.100421 0.197113
v 0.0993494 -0.100717 0.193583
v 0.0823035 -0.100045 0.0223641
v 0.0803701 -0.0974553 0.0223641
v 0.0853512 -0.100994 0.0223641
v 0.10145 -0.0505035 0.0869804
v 0.0998874 -0.0505035 0.0223641
v 0.10145 -0.0849909 0.0223641
v 0.0804741 -0.0505035 0.130743
v 0.0803701 -0.0795543 0.0223641
v 0.0804711 -0.0505035 0.0223641
v 0.100524 -0.100159 0.195159
v 0.100823 -0.0969907 0.197165
v 0.0993494 -0.100717 0.0223641
v 0.081316 -0.0505035 0.197921
v 0.0824596 -0.0505035 0.198284
v 0.0993494 -0.0969907 0.198008
v 0.101411 -0.0969907 0.194582
v 0.10145 -0.0505035 0.193583
v 0.100823 -0.0505035 0.197165
v 0.09735 -0.100994 0.0223641
v 0.09735 -0.0505035 0.198284
v 0.0993494 -0.0505035 0.198008
f 1 2 3
f 2 4 5
f 7 6 8
f 10 9 5
f 4 11 5
f 1 12 2
f 12 4 2
f 13 12 1
f 15 14 3
f 14 16 3
f 18 17 19
f 20 9 10
f 21 20 22
f 9 20 21
f 23 12 13
f 23 7 8
f 23 13 7
f 23 24 12
f 13 25 7
f 26 10 5
f 27 26 5
f 28 11 4
f 12 28 4
f 24 28 12
f 30 29 6
f 6 29 8
f 29 23 8
f 23 29 24
f 31 29 30
f 24 29 31
f 2 9 3
f 9 15 3
f 9 2 5
f 9 21 15
f 32 1 3
f 16 32 3
f 17 6 19
f 17 30 6
f 25 22 18
f 25 18 19
f 21 25 15
f 6 25 19
f 25 21 22
f 25 6 7
f 25 14 15
f 14 25 16
f 25 32 16
f 32 25 1
f 25 13 1
f 22 33 18
f 31 33 34
f 26 33 10
f 33 17 18
f 20 33 22
f 17 33 30
f 33 31 30
f 33 20 10
f 33 26 27
f 11 33 5
f 33 27 5
f 33 28 34
f 28 33 11
f 28 31 34
f 28 24 31
