# Created by Open3D 
# object name: Basket040_collision_16_0
# number of vertices: 34
# number of triangles: 64
v -0.0139259 0.0811843 0.153584
v -0.0266527 0.0811843 0.175534
v -0.0139259 0.0802946 0.0223641
v -0.0139259 0.0971456 0.153584
v -0.0139259 0.0971522 0.0223641
v -0.0266527 0.0971571 0.175534
v -0.0139259 0.0834789 0.156763
v -0.0228556 0.0850042 0.175534
v -0.0139259 0.0850042 0.156928
v -0.0232291 0.0832049 0.175534
v -0.0139259 0.0828401 0.156478
v -0.0139259 0.0824786 0.156313
v -0.0248079 0.0815937 0.175534
v -0.0139259 0.0815937 0.155309
v -0.0238063 0.0822045 0.175534
v -0.0265961 0.0971406 0.175534
v -0.0247739 0.0965794 0.175534
v -0.0139259 0.0965744 0.155503
v -0.0237723 0.0956368 0.175534
v -0.0232404 0.0831768 0.175534
v -0.0235007 0.0946381 0.175534
v -0.0139259 0.0957804 0.156508
v -0.0139259 0.09478 0.156748
v -0.0233026 0.0930022 0.175534
v -0.0139259 0.0960676 0.156148
v -0.0139259 0.0967808 0.154814
v -0.0229631 0.0870033 0.175534
v -0.0228556 0.085062 0.175534
v -0.0139259 0.0930022 0.156913
v -0.0139259 0.0890024 0.156928
v -0.0717369 0.0811843 0.175534
v -0.0717369 0.0802946 0.0223641
v -0.0717369 0.0971522 0.0223641
v -0.0717369 0.0971571 0.175534
f 1 2 3
f 4 5 6
f 8 7 9
f 11 10 12
f 10 11 7
f 10 7 8
f 1 13 2
f 14 13 1
f 13 14 15
f 16 4 6
f 16 17 4
f 18 17 19
f 14 20 15
f 20 14 12
f 10 20 12
f 21 22 19
f 23 21 24
f 21 23 22
f 22 25 19
f 25 18 19
f 17 26 4
f 18 26 17
f 27 23 24
f 27 28 23
f 23 28 29
f 28 30 29
f 3 31 32
f 2 31 3
f 33 31 34
f 31 33 32
f 33 3 32
f 33 5 3
f 33 34 6
f 5 33 6
f 26 1 3
f 5 26 3
f 7 26 9
f 4 26 5
f 26 11 12
f 26 14 1
f 26 25 22
f 11 26 7
f 14 26 12
f 26 30 9
f 23 26 22
f 30 26 29
f 26 23 29
f 25 26 18
f 34 28 6
f 28 31 2
f 31 28 34
f 28 10 8
f 28 16 6
f 13 28 2
f 17 28 19
f 28 21 19
f 28 13 15
f 16 28 17
f 20 28 15
f 28 20 10
f 21 28 24
f 28 27 24
f 30 28 9
f 28 8 9
