# Created by Open3D 
# object name: Basket040_collision_7_0
# number of vertices: 34
# number of triangles: 64
v -0.0966492 -0.100954 0.194579
v -0.0800515 -0.100915 0.19558
v -0.0800515 -0.100994 0.181584
v -0.100748 -0.0505035 0.0876431
v -0.0991848 -0.0505035 0.0234774
v -0.100748 -0.0849909 0.0234774
v -0.0816035 -0.100045 0.0234774
v -0.0800515 -0.080355 0.0234774
v -0.0800515 -0.097564 0.0234945
v -0.0846507 -0.100994 0.0234774
v -0.0998241 -0.100159 0.195153
v -0.0998788 -0.100213 0.0234774
v -0.100428 -0.0989874 0.193578
v -0.0971491 -0.0997041 0.197471
v -0.0966492 -0.100994 0.0234774
v -0.0800515 -0.100421 0.19712
v -0.0800515 -0.0969907 0.198284
v -0.0800515 -0.0849909 0.198267
v -0.0802227 -0.0505035 0.131224
v -0.0803856 -0.0505035 0.195781
v -0.0819808 -0.0505035 0.198284
v -0.0802216 -0.0505035 0.0234774
v -0.0976491 -0.0969907 0.198147
v -0.100428 -0.0989874 0.0234774
v -0.100748 -0.0969907 0.0234774
v -0.098649 -0.100717 0.193578
v -0.0805777 -0.0505035 0.197746
v -0.0966492 -0.0505035 0.198284
v -0.100122 -0.0969907 0.197172
v -0.098649 -0.100717 0.0234774
v -0.098649 -0.0505035 0.19801
v -0.100122 -0.0505035 0.197172
v -0.100711 -0.0969907 0.194579
v -0.100748 -0.0505035 0.193578
f 2 1 3
f 4 5 6
f 7 8 9
f 7 9 3
f 10 7 3
f 12 11 13
f 14 11 1
f 15 10 3
f 1 15 3
f 14 16 17
f 16 1 2
f 16 14 1
f 19 18 8
f 18 19 20
f 18 21 17
f 22 19 8
f 23 14 17
f 24 12 13
f 25 24 13
f 11 26 1
f 26 11 12
f 26 15 1
f 27 18 20
f 18 27 21
f 21 28 17
f 28 23 17
f 29 11 14
f 23 29 14
f 30 26 12
f 26 30 15
f 28 31 23
f 29 31 32
f 31 29 23
f 34 33 32
f 33 29 32
f 25 33 34
f 33 25 13
f 11 33 13
f 29 33 11
f 25 34 4
f 25 4 6
f 9 18 3
f 16 18 17
f 8 18 9
f 18 2 3
f 18 16 2
f 15 30 10
f 5 30 6
f 7 30 8
f 30 7 10
f 30 25 6
f 22 30 5
f 24 30 12
f 30 22 8
f 30 24 25
f 31 34 32
f 4 31 5
f 31 27 20
f 19 31 20
f 31 22 5
f 34 31 4
f 22 31 19
f 27 31 21
f 31 28 21
