# Created by Open3D 
# object name: Basket040_collision_1_0
# number of vertices: 34
# number of triangles: 64
v 0.0313576 -0.0975126 0.176937
v -0.0139259 -0.0982992 0.178519
v -0.0139259 -0.0849976 0.177297
v 0.0803701 -0.0984201 0.177426
v -0.0139259 -0.100495 0.17985
v 0.0803701 -0.0808107 0.195591
v 0.0803701 -0.0813437 0.19711
v -0.0139259 -0.0816509 0.197043
v 0.0803701 -0.097677 0.176937
v 0.0313576 -0.0811773 0.176937
v -0.0139259 -0.0811773 0.179593
v 0.0803701 -0.0807513 0.176937
v -0.0139259 -0.0992979 0.178849
v 0.0803701 -0.100475 0.179668
v -0.0139259 -0.0812407 0.195591
v -0.0139259 -0.0849976 0.198282
v 0.0803701 -0.0829983 0.197918
v 0.0803701 -0.0849976 0.198271
v 0.0803701 -0.0969954 0.198282
v -0.0139259 -0.0815875 0.177946
v -0.0139259 -0.100994 0.181593
v 0.0803701 -0.100994 0.181593
v 0.0803701 -0.0807533 0.193591
v -0.0139259 -0.0829983 0.197889
v -0.0139259 -0.0969954 0.198282
v -0.0139259 -0.0829983 0.177246
v -0.0139259 -0.100921 0.195591
v 0.0803701 -0.100421 0.197126
v 0.0803701 -0.100921 0.195591
v -0.0139259 -0.100421 0.197126
v 0.0803701 -0.100994 0.193591
v -0.0139259 -0.100994 0.193591
v 0.0803701 -0.0989967 0.197973
v -0.0139259 -0.0989967 0.197973
f 1 2 3
f 1 4 5
f 7 6 8
f 1 9 4
f 10 11 12
f 13 1 5
f 1 13 2
f 4 14 5
f 6 15 8
f 17 16 18
f 18 16 19
f 10 20 11
f 21 14 22
f 14 21 5
f 15 23 11
f 23 15 6
f 11 23 12
f 24 16 17
f 24 17 7
f 24 7 8
f 16 25 19
f 26 20 10
f 26 10 1
f 26 1 3
f 9 10 12
f 10 9 1
f 28 27 29
f 27 28 30
f 27 31 29
f 31 27 32
f 31 21 22
f 21 31 32
f 9 23 4
f 23 18 19
f 23 14 4
f 33 23 19
f 17 23 7
f 23 6 7
f 31 23 29
f 23 9 12
f 14 23 22
f 23 28 29
f 23 17 18
f 23 31 22
f 23 33 28
f 34 13 5
f 34 27 30
f 2 34 3
f 21 34 5
f 15 34 8
f 13 34 2
f 34 26 3
f 34 15 11
f 34 24 8
f 20 34 11
f 27 34 32
f 34 21 32
f 24 34 16
f 34 25 16
f 26 34 20
f 28 34 30
f 33 34 28
f 34 33 19
f 25 34 19
