# Created by Open3D 
# object name: Basket040_collision_0_4
# number of vertices: 20
# number of triangles: 36
v 0.100896 -1.303e-05 0.017392
v 0.0998716 0.0504935 0.0223618
v 0.0975905 -1.303e-05 0.0223618
v 0.101213 0.0504935 0.0203445
v 0.10143 -1.303e-05 0.0155892
v 0.10143 0.0504935 0.0196127
v 0.0340434 -1.303e-05 -0.0011
v 0.0973332 0.0504935 -0.0011
v 0.0340434 0.0504935 -0.0011
v 0.0973332 -1.303e-05 -0.0011
v 0.0340434 0.0504935 0.0223618
v 0.0340434 -1.303e-05 0.0223618
v 0.10143 0.0504935 0.00359419
v 0.10143 -1.303e-05 0.00359419
v 0.0993322 -1.303e-05 -0.0008313
v 0.0993322 0.0504935 -0.0008313
v 0.100817 0.0504935 1.384e-05
v 0.100817 -1.303e-05 1.384e-05
v 0.101371 -1.303e-05 0.00159618
v 0.101371 0.0504935 0.00159618
f 1 2 3
f 4 5 6
f 4 1 5
f 1 4 2
f 8 7 9
f 7 8 10
f 7 11 9
f 11 7 12
f 2 11 12
f 3 2 12
f 6 5 13
f 5 14 13
f 8 15 10
f 16 15 8
f 15 16 17
f 18 15 17
f 7 19 12
f 19 7 10
f 19 3 12
f 15 19 10
f 19 1 3
f 5 19 14
f 19 15 18
f 1 19 5
f 14 19 13
f 19 20 13
f 19 18 17
f 20 19 17
f 4 16 8
f 4 8 9
f 11 4 9
f 2 4 11
f 4 6 13
f 20 4 13
f 16 4 17
f 4 20 17
