# Created by Open3D 
# object name: Basket040_collision_5_0
# number of vertices: 34
# number of triangles: 64
v -0.0969008 -5.27e-06 0.0223641
v -0.0969987 0.0793045 0.0223641
v -0.10075 -5.27e-06 0.181581
v -0.10075 0.0793045 0.181581
v -0.0807328 0.0793045 0.193583
v -0.0799475 -5.27e-06 0.0223641
v -0.0799107 0.0793045 0.0223641
v -0.0808022 0.0793045 0.19558
v -0.0809919 -5.27e-06 0.19558
v -0.0809348 -5.27e-06 0.193583
v -0.0846514 0.0793045 0.198267
v -0.0846514 0.0769986 0.198284
v -0.0866505 0.0793045 0.198284
v -0.0809633 -5.27e-06 0.194599
v -0.0813489 -5.27e-06 0.196993
v -0.0811224 0.0793045 0.196717
v -0.0812346 0.0793045 0.19701
v -0.0843495 0.0793045 0.198215
v -0.0826503 0.0793045 0.197836
v -0.0976657 -5.27e-06 0.198146
v -0.0966499 0.0793045 0.198284
v -0.0966499 -5.27e-06 0.198284
v -0.0986489 0.0793045 0.198008
v -0.0986489 -5.27e-06 0.198008
v -0.0826503 -5.27e-06 0.197836
v -0.0823647 0.0793045 0.197716
v -0.0811734 -5.27e-06 0.196304
v -0.100672 -5.27e-06 0.19558
v -0.100122 0.0793045 0.197165
v -0.100672 0.0793045 0.19558
v -0.100122 -5.27e-06 0.197165
v -0.10075 -5.27e-06 0.193583
v -0.10075 0.0793045 0.193583
v -0.0846514 -5.27e-06 0.198284
f 2 1 3
f 4 2 3
f 5 6 7
f 5 8 9
f 5 10 6
f 12 11 13
f 14 5 9
f 14 10 5
f 15 16 17
f 16 15 8
f 18 11 12
f 19 18 12
f 21 20 22
f 20 23 24
f 23 20 21
f 19 25 26
f 25 17 26
f 25 15 17
f 8 27 9
f 15 27 8
f 6 2 7
f 6 1 2
f 28 29 30
f 28 31 29
f 32 33 4
f 32 4 3
f 33 32 30
f 32 28 30
f 21 34 13
f 34 12 13
f 34 21 22
f 11 23 13
f 2 23 7
f 4 23 2
f 23 16 8
f 23 5 7
f 29 23 30
f 23 33 30
f 5 23 8
f 33 23 4
f 17 23 26
f 23 21 13
f 16 23 17
f 18 23 11
f 23 19 26
f 23 18 19
f 31 23 29
f 24 23 31
f 34 25 12
f 25 19 12
f 6 27 1
f 1 27 3
f 27 32 3
f 27 14 9
f 10 27 6
f 28 27 31
f 27 24 31
f 14 27 10
f 32 27 28
f 27 34 22
f 27 25 34
f 20 27 22
f 27 20 24
f 25 27 15
