# Created by Open3D 
# object name: Basket040_collision_2_2
# number of vertices: 34
# number of triangles: 64
v 0.0437621 -0.100994 0.0195255
v 0.0853453 -0.100994 0.0223618
v 0.0437621 -0.0993792 0.0223618
v 0.10145 -0.0849909 0.0223618
v 0.0998871 -0.0505035 0.0223618
v 0.10145 -0.0505035 0.0196138
v 0.0993494 -0.100717 0.0223618
v 0.0973391 -0.100994 0.00359235
v 0.0973391 -0.100994 0.0223618
v 0.0973391 -0.0989874 -0.00078763
v 0.0973391 -0.0969907 -0.0011
v 0.0993494 -0.0969907 -0.00083357
v 0.100467 -0.100104 0.00044345
v 0.0973391 -0.100421 5.759e-05
v 0.0973391 -0.100915 0.00159414
v 0.100818 -0.0969907 1.165e-05
v 0.101066 -0.0989874 0.00159414
v 0.101371 -0.0969907 0.00159414
v 0.10145 -0.0969907 0.00359235
v 0.100569 -0.100213 0.0223618
v 0.10145 -0.0969907 0.0223618
v 0.0993494 -0.100683 0.00259325
v 0.0973391 -0.0505035 -0.0011
v 0.0437621 -0.0505035 -0.0011
v 0.0437621 -0.0969907 -0.0011
v 0.0993494 -0.0505035 -0.00083357
v 0.0437621 -0.100994 0.00359235
v 0.0437621 -0.0505035 0.0223618
v 0.0437621 -0.0989874 -0.00078763
v 0.0437621 -0.100421 5.759e-05
v 0.0437621 -0.100915 0.00159414
v 0.10145 -0.0505035 0.00359235
v 0.100818 -0.0505035 1.165e-05
v 0.101371 -0.0505035 0.00159414
f 1 2 3
f 5 4 6
f 8 7 9
f 10 11 12
f 14 13 15
f 16 13 12
f 10 13 14
f 13 10 12
f 17 16 18
f 17 13 16
f 17 18 19
f 13 17 20
f 17 21 20
f 21 17 19
f 7 22 20
f 22 13 20
f 22 7 8
f 15 22 8
f 13 22 15
f 24 23 25
f 23 11 25
f 11 23 12
f 23 26 12
f 27 24 25
f 28 27 3
f 27 1 3
f 27 28 24
f 29 27 25
f 27 30 31
f 27 29 30
f 27 9 2
f 1 27 2
f 27 8 9
f 15 27 31
f 27 15 8
f 32 28 5
f 28 32 24
f 32 5 6
f 32 33 26
f 32 23 24
f 23 32 26
f 33 32 34
f 21 4 5
f 2 21 3
f 21 28 3
f 28 21 5
f 21 7 20
f 9 21 2
f 7 21 9
f 21 32 6
f 4 21 6
f 32 21 19
f 32 18 34
f 18 32 19
f 30 14 31
f 14 15 31
f 26 16 12
f 33 16 26
f 16 33 34
f 18 16 34
f 11 10 25
f 10 29 25
f 29 10 30
f 10 14 30
