# Created by Open3D 
# object name: Basket040_collision_0_5
# number of vertices: 34
# number of triangles: 64
v 0.101213 0.0504935 0.0203445
v 0.0998716 0.0504935 0.0223618
v 0.10143 0.0850017 0.0223618
v 0.10143 0.0504935 0.0196127
v 0.0973332 0.101 0.00359419
v 0.0973332 0.101 0.0223618
v 0.0993322 0.100713 0.0223618
v 0.10046 0.10011 0.00044559
v 0.0993322 0.0969955 -0.0008313
v 0.100817 0.0969955 1.384e-05
v 0.10143 0.0969955 0.00359419
v 0.101114 0.0990027 0.0223618
v 0.10143 0.0969955 0.0223618
v 0.101371 0.0504935 0.00159618
v 0.101371 0.0969955 0.00159618
v 0.0973332 0.0990027 -0.00078537
v 0.0973332 0.0969955 -0.0011
v 0.101054 0.0990027 0.00159618
v 0.0993322 0.100679 0.00259519
v 0.0973332 0.100921 0.00159618
v 0.0973332 0.100417 5.977e-05
v 0.100549 0.100209 0.00259519
v 0.100559 0.100219 0.0223618
v 0.0973332 0.0504935 -0.0011
v 0.0340434 0.0969955 -0.0011
v 0.0340434 0.0504935 -0.0011
v 0.0340434 0.100921 0.00159618
v 0.0340434 0.0990027 -0.00078537
v 0.0340434 0.100417 5.977e-05
v 0.0340434 0.0504935 0.0223618
v 0.0340434 0.101 0.00359419
v 0.0340434 0.101 0.0223618
v 0.100817 0.0504935 1.384e-05
v 0.0993322 0.0504935 -0.0008313
f 2 1 3
f 1 4 3
f 5 6 7
f 9 8 10
f 11 12 13
f 14 11 4
f 15 11 14
f 16 9 17
f 16 8 9
f 11 18 12
f 18 11 15
f 10 18 15
f 8 18 10
f 19 5 7
f 19 20 5
f 20 19 8
f 16 21 8
f 21 20 8
f 12 22 23
f 18 22 12
f 22 18 8
f 19 22 8
f 23 22 7
f 22 19 7
f 25 24 26
f 24 25 17
f 28 27 29
f 30 27 26
f 27 25 26
f 31 27 32
f 27 30 32
f 27 28 25
f 5 31 32
f 6 5 32
f 30 33 2
f 24 33 26
f 33 30 26
f 33 24 34
f 33 1 2
f 33 14 4
f 1 33 4
f 33 15 14
f 33 10 15
f 24 9 34
f 9 24 17
f 9 33 34
f 33 9 10
f 12 6 32
f 12 2 3
f 30 12 32
f 12 30 2
f 6 12 7
f 13 12 3
f 12 23 7
f 11 13 3
f 4 11 3
f 28 16 25
f 25 16 17
f 20 27 31
f 5 20 31
f 21 28 29
f 21 16 28
f 27 21 29
f 20 21 27
