# Created by Open3D 
# object name: Basket040_collision_4_0
# number of vertices: 34
# number of triangles: 64
v 0.0998876 0.0504935 0.0223641
v 0.097601 -1.303e-05 0.0223641
v 0.10145 0.0504935 0.0869914
v 0.10145 -1.303e-05 0.181581
v 0.0804584 0.0504935 0.129426
v 0.080647 -1.303e-05 0.0223641
v 0.0804565 0.0504935 0.0223641
v 0.0804592 0.0504935 0.13071
v 0.0808343 0.0504935 0.195763
v 0.0816346 -1.303e-05 0.193583
v 0.101411 -1.303e-05 0.194599
v 0.10145 0.0504935 0.193583
v 0.101371 0.0504935 0.19558
v 0.101371 -1.303e-05 0.19558
v 0.10145 -1.303e-05 0.193583
v 0.0815656 0.0504935 0.198092
v 0.0833515 -1.303e-05 0.197836
v 0.0853514 -1.303e-05 0.198284
v 0.0820478 -1.303e-05 0.196993
v 0.0810364 0.0504935 0.19775
v 0.0808913 0.0504935 0.197176
v 0.080872 0.0504935 0.196995
v 0.0816904 -1.303e-05 0.19558
v 0.0808555 0.0504935 0.196521
v 0.101093 -1.303e-05 0.19639
v 0.100822 0.0504935 0.197165
v 0.100074 -1.303e-05 0.197595
v 0.0993488 0.0504935 0.198008
v 0.0993488 -1.303e-05 0.198008
v 0.0823774 0.0504935 0.198274
v 0.0824456 0.0504935 0.198284
v 0.100822 -1.303e-05 0.197165
v 0.0973489 0.0504935 0.198284
v 0.0973489 -1.303e-05 0.198284
f 2 1 3
f 4 2 3
f 6 5 7
f 8 5 6
f 10 9 6
f 9 8 6
f 11 12 13
f 11 13 14
f 11 15 12
f 16 17 18
f 17 16 19
f 19 16 20
f 21 22 23
f 21 23 19
f 21 19 20
f 22 24 23
f 23 24 10
f 24 9 10
f 26 25 13
f 13 25 14
f 27 26 28
f 29 27 28
f 31 30 18
f 30 16 18
f 32 25 26
f 27 32 26
f 1 6 7
f 6 1 2
f 12 15 3
f 15 4 3
f 33 34 29
f 33 29 28
f 34 33 18
f 33 31 18
f 30 26 13
f 30 1 7
f 1 30 3
f 5 30 7
f 30 12 3
f 30 5 8
f 9 30 8
f 12 30 13
f 16 30 20
f 24 30 9
f 30 21 20
f 26 30 28
f 30 33 28
f 21 30 22
f 30 24 22
f 33 30 31
f 32 6 2
f 4 32 2
f 32 11 14
f 32 10 6
f 32 23 10
f 17 32 18
f 32 17 19
f 23 32 19
f 15 32 4
f 32 34 18
f 11 32 15
f 34 32 29
f 25 32 14
f 32 27 29
