# Created by Open3D 
# object name: Basket040_collision_10_0
# number of vertices: 34
# number of triangles: 64
v 0.0803701 -0.0807516 0.157166
v 0.0803701 -0.0795636 0.0223773
v -0.0139259 -0.0811774 0.15359
v 0.0803701 -0.0974595 0.157166
v -0.0139259 -0.0971459 0.0223773
v 0.0803701 -0.097463 0.0223773
v -0.0139259 -0.0802872 0.0223773
v -0.0139259 -0.0971406 0.15359
v 0.0313576 -0.0811774 0.157166
v -0.0139259 -0.0815874 0.155305
v 0.0313576 -0.0971406 0.157166
v 0.0260779 -0.083189 0.157166
v 0.0251826 -0.0849973 0.157166
v -0.0139259 -0.0849973 0.156928
v 0.0278594 -0.0817732 0.157166
v 0.0293547 -0.0813877 0.157166
v -0.0139259 -0.0834729 0.156757
v -0.0139259 -0.0831102 0.156598
v -0.0139259 -0.0824723 0.156308
v -0.0139259 -0.0821517 0.155952
v -0.0139259 -0.0929965 0.156915
v 0.0264102 -0.0953813 0.157166
v 0.025981 -0.0946278 0.157166
v -0.0139259 -0.0965676 0.155503
v 0.0277024 -0.0962873 0.157166
v 0.0288747 -0.0967306 0.157166
v 0.0309422 -0.0971073 0.157166
v -0.0139259 -0.0957738 0.156506
v -0.0139259 -0.088996 0.156928
v 0.0254687 -0.0929965 0.157166
v -0.0139259 -0.0962802 0.155873
v -0.0139259 -0.0954111 0.156598
v -0.0139259 -0.0947733 0.156744
v -0.0139259 -0.0941302 0.15681
f 1 2 3
f 4 5 6
f 2 7 3
f 4 8 5
f 9 1 3
f 10 9 3
f 11 8 4
f 13 12 14
f 12 15 14
f 15 16 14
f 16 17 14
f 17 16 9
f 18 9 19
f 18 17 9
f 9 20 19
f 10 20 9
f 21 22 23
f 11 24 8
f 25 21 26
f 21 25 22
f 21 27 26
f 11 27 28
f 30 29 23
f 29 21 23
f 29 30 13
f 29 13 14
f 31 11 28
f 31 24 11
f 27 32 28
f 33 32 27
f 34 27 21
f 34 33 27
f 1 4 2
f 4 6 2
f 6 7 2
f 5 7 6
f 27 4 1
f 9 27 1
f 16 27 9
f 27 11 4
f 27 12 13
f 30 27 13
f 27 25 26
f 12 27 15
f 27 16 15
f 27 30 23
f 22 27 23
f 25 27 22
f 34 7 5
f 7 34 3
f 17 34 14
f 8 34 5
f 34 10 3
f 20 34 19
f 34 18 19
f 24 34 8
f 18 34 17
f 34 20 10
f 34 31 28
f 34 29 14
f 29 34 21
f 31 34 24
f 32 34 28
f 34 32 33
