# Blender 3.6.5
# www.blender.org
mtllib body.mtl
o pCube5
v 1.010769 -0.970000 -0.013881
v 1.012978 -0.969560 -0.013881
v 1.012978 -0.969560 2.399570
v 1.010769 -0.970000 2.399570
v 1.014851 -0.968309 -0.013881
v 1.014851 -0.968309 2.399570
v 1.016103 -0.966435 -0.013881
v 1.016103 -0.966435 2.399570
v 1.016543 -0.964225 -0.013881
v 1.016543 -0.964226 2.399570
v 1.010769 -0.964225 -0.019656
v 1.010769 -0.966435 -0.019216
v -0.902682 -0.966435 -0.019216
v -0.902682 -0.964225 -0.019656
v 1.010769 -0.968309 -0.017965
v -0.902682 -0.968309 -0.017965
v 1.010769 -0.969560 -0.016091
v -0.902682 -0.969560 -0.016091
v -0.902682 -0.970000 -0.013881
v 1.016103 -0.964225 -0.016091
v 1.016103 0.964226 -0.016091
v 1.016543 0.964226 -0.013881
v 1.014851 -0.964225 -0.017965
v 1.014851 0.964226 -0.017964
v 1.012978 -0.964225 -0.019216
v 1.012978 0.964226 -0.019216
v 1.010769 0.964226 -0.019656
v -0.908457 -0.964225 -0.013881
v -0.908018 -0.966435 -0.013881
v -0.908018 -0.966435 2.399570
v -0.908457 -0.964226 2.399570
v -0.906766 -0.968309 -0.013881
v -0.906766 -0.968309 2.399570
v -0.904892 -0.969560 -0.013881
v -0.904892 -0.969560 2.399570
v -0.902682 -0.970000 2.399570
v -0.904892 -0.964225 -0.019216
v -0.904892 0.964226 -0.019216
v -0.902682 0.964226 -0.019656
v -0.906766 -0.964225 -0.017965
v -0.906766 0.964226 -0.017964
v -0.908018 -0.964225 -0.016091
v -0.908018 0.964226 -0.016091
v -0.908457 0.964226 -0.013881
v -0.902682 0.970000 -0.013881
v -0.904892 0.969560 -0.013881
v -0.904892 0.969560 2.399570
v -0.902682 0.970000 2.399570
v -0.906766 0.968309 -0.013881
v -0.906766 0.968309 2.399570
v -0.908018 0.966435 -0.013881
v -0.908018 0.966435 2.399570
v -0.908457 0.964225 2.399570
v -0.902682 0.966435 -0.019216
v 1.010769 0.966435 -0.019216
v -0.902682 0.968309 -0.017964
v 1.010769 0.968309 -0.017964
v -0.902682 0.969560 -0.016091
v 1.010769 0.969560 -0.016091
v 1.010769 0.970000 -0.013881
v 1.016103 0.966435 -0.013881
v 1.016103 0.966435 2.399570
v 1.016543 0.964225 2.399570
v 1.014851 0.968309 -0.013881
v 1.014851 0.968309 2.399570
v 1.012978 0.969560 -0.013881
v 1.012978 0.969560 2.399570
v 1.010769 0.970000 2.399570
v 1.010769 -0.964226 2.405344
v 1.012978 -0.964226 2.404905
v 1.012978 0.964225 2.404905
v 1.010769 0.964225 2.405344
v 1.014851 -0.964226 2.403653
v 1.014851 0.964225 2.403653
v 1.016103 -0.964226 2.401780
v 1.016103 0.964225 2.401780
v 1.010769 -0.969560 2.401780
v -0.902682 -0.969560 2.401780
v 1.010769 -0.968309 2.403653
v -0.902682 -0.968309 2.403653
v 1.010769 -0.966435 2.404905
v -0.902682 -0.966435 2.404905
v -0.902682 -0.964226 2.405344
v -0.908018 -0.964226 2.401780
v -0.908018 0.964225 2.401780
v -0.906766 -0.964226 2.403653
v -0.906766 0.964225 2.403653
v -0.904892 -0.964226 2.404905
v -0.904892 0.964225 2.404905
v -0.902682 0.964225 2.405344
v 1.010769 0.966435 2.404905
v -0.902682 0.966435 2.404905
v 1.010769 0.968309 2.403653
v -0.902682 0.968309 2.403653
v 1.010769 0.969560 2.401780
v -0.902682 0.969560 2.401780
v 1.015807 -0.966219 -0.015875
v 1.014669 -0.968126 -0.015574
v 1.012762 -0.969263 -0.015875
v 1.012461 -0.968126 -0.017782
v 1.012762 -0.966219 -0.018919
v 1.014669 -0.965918 -0.017782
v 1.014101 -0.967558 -0.017214
v -0.904675 -0.969263 -0.015875
v -0.906583 -0.968126 -0.015574
v -0.907721 -0.966219 -0.015875
v -0.906583 -0.965918 -0.017782
v -0.904675 -0.966219 -0.018919
v -0.904375 -0.968126 -0.017782
v -0.906015 -0.967558 -0.017214
v -0.907721 0.966219 -0.015874
v -0.906583 0.968126 -0.015573
v -0.904675 0.969264 -0.015874
v -0.904375 0.968126 -0.017782
v -0.904675 0.966219 -0.018919
v -0.906583 0.965918 -0.017782
v -0.906015 0.967558 -0.017214
v 1.012762 0.969264 -0.015874
v 1.014669 0.968126 -0.015573
v 1.015807 0.966219 -0.015874
v 1.014669 0.965918 -0.017782
v 1.012762 0.966219 -0.018919
v 1.012461 0.968126 -0.017782
v 1.014101 0.967558 -0.017214
v 1.015807 -0.966219 2.401563
v 1.014669 -0.965918 2.403470
v 1.012762 -0.966219 2.404608
v 1.012461 -0.968126 2.403470
v 1.012762 -0.969264 2.401563
v 1.014669 -0.968126 2.401262
v 1.014101 -0.967559 2.402903
v -0.904675 -0.966219 2.404608
v -0.906583 -0.965918 2.403470
v -0.907721 -0.966219 2.401563
v -0.906583 -0.968126 2.401262
v -0.904675 -0.969264 2.401563
v -0.904375 -0.968126 2.403470
v -0.906015 -0.967559 2.402903
v 1.012762 0.969263 2.401563
v 1.012461 0.968126 2.403470
v 1.012762 0.966219 2.404608
v 1.014669 0.965918 2.403470
v 1.015807 0.966219 2.401563
v 1.014669 0.968126 2.401262
v 1.014101 0.967558 2.402903
v -0.904675 0.969263 2.401563
v -0.906583 0.968126 2.401262
v -0.907721 0.966219 2.401563
v -0.906583 0.965918 2.403470
v -0.904675 0.966219 2.404608
v -0.904375 0.968126 2.403470
v -0.906015 0.967558 2.402903
v 0.802802 0.951821 0.260742
v 0.805193 0.958777 0.259284
v -0.695074 0.958997 0.259383
v -0.695071 0.952176 0.260742
v 0.812003 0.964675 0.255131
v -0.695079 0.964779 0.255512
v 0.822195 0.968616 0.248917
v -0.695082 0.968643 0.249720
v 0.820981 0.949252 0.278575
v 0.819624 0.949832 0.271730
v 0.819624 -0.651568 0.271745
v 0.820981 -0.651568 0.278566
v 0.815689 0.950525 0.265933
v 0.815760 -0.651568 0.265962
v 0.809780 0.951223 0.262073
v 0.809978 -0.651568 0.262098
v 0.803157 -0.651568 0.260742
v 0.829153 0.968421 0.255742
v 0.824858 0.963923 0.267742
v 0.826177 0.964779 2.137563
v 0.831932 0.968643 2.137552
v 0.821989 0.957192 0.275760
v 0.822331 0.958997 2.137574
v 0.820981 0.952176 2.137584
v -0.712895 0.952176 0.278566
v -0.714247 0.958997 0.278573
v -0.714007 0.957687 2.140335
v -0.712895 0.950054 2.137545
v -0.718098 0.964779 0.278580
v -0.717174 0.964158 2.148283
v -0.723861 0.968643 0.278588
v -0.721915 0.968481 2.160177
v -0.701892 0.952180 0.262098
v -0.701892 -0.651568 0.262098
v -0.695071 -0.651568 0.260742
v -0.707674 0.952181 0.265962
v -0.707674 -0.651568 0.265962
v -0.711538 0.952180 0.271745
v -0.711538 -0.651568 0.271745
v -0.712895 -0.651568 0.278566
v -0.695071 -0.669392 0.278566
v -0.701892 -0.668035 0.278566
v -0.701892 -0.668035 2.137584
v -0.695071 -0.669392 2.137584
v -0.707674 -0.664171 0.278566
v -0.707674 -0.664171 2.137584
v -0.711538 -0.658389 0.278566
v -0.711538 -0.658389 2.137584
v -0.712895 -0.651568 2.137584
v -0.695071 -0.658389 0.262098
v 0.803157 -0.658389 0.262098
v -0.695071 -0.664171 0.265962
v 0.803157 -0.664171 0.265962
v -0.695071 -0.668035 0.271745
v 0.803157 -0.668035 0.271745
v 0.803157 -0.669392 0.278566
v 0.819624 -0.658389 0.278566
v 0.819624 -0.658389 2.137584
v 0.820981 -0.651568 2.137584
v 0.815760 -0.664171 0.278566
v 0.815760 -0.664171 2.137584
v 0.809978 -0.668035 0.278566
v 0.809978 -0.668035 2.137584
v 0.803157 -0.669392 2.137584
v 0.819624 -0.651568 2.144405
v 0.819624 0.952180 2.144405
v 0.815760 -0.651568 2.150188
v 0.815760 0.952182 2.150188
v 0.809978 -0.651568 2.154052
v 0.809978 0.952180 2.154051
v 0.803157 -0.651568 2.155408
v 0.803157 0.952176 2.155408
v 0.803157 -0.658389 2.154052
v -0.695071 -0.658389 2.154052
v -0.695071 -0.651568 2.155408
v 0.803157 -0.664171 2.150188
v -0.695072 -0.664171 2.150188
v 0.803157 -0.668035 2.144405
v -0.695071 -0.668035 2.144405
v -0.701892 -0.651568 2.154052
v -0.701746 0.951487 2.154062
v -0.694815 0.951921 2.155408
v -0.707674 -0.651568 2.150188
v -0.707617 0.950980 2.150193
v -0.711538 -0.651568 2.144405
v -0.711532 0.950477 2.144392
v 0.803166 0.968643 2.166425
v 0.803162 0.964779 2.160635
v -0.704390 0.964704 2.160914
v -0.714996 0.968624 2.167013
v 0.803159 0.958997 2.156767
v -0.697303 0.958839 2.156839
v -0.727507 0.970000 2.174207
v -0.730659 0.970000 0.278595
v -0.730719 0.970000 0.242918
v -0.695086 0.970000 0.242887
v 0.834218 0.970000 0.241587
v 0.838720 0.970000 2.137542
v 0.838805 0.970000 2.173232
v 0.803168 0.970000 2.173254
v -0.727970 0.970000 0.264942
v -0.720263 0.970000 0.253360
v -0.708716 0.970000 0.245615
v 0.836039 0.970000 2.151197
v 0.828339 0.970000 2.162782
v 0.816795 0.970000 2.170528
v 0.822205 0.967530 0.256993
v 0.815043 0.963931 0.258314
v 0.810729 0.957717 0.260914
v 0.816373 0.956250 0.265020
v 0.820499 0.956793 0.270449
v 0.822105 0.963466 0.265203
v 0.818029 0.961798 0.262724
v -0.721647 0.968647 0.267455
v -0.716304 0.964785 0.269631
v -0.712755 0.959002 0.271137
v -0.708631 0.959000 0.265003
v -0.702502 0.959002 0.260878
v -0.704013 0.964784 0.257316
v -0.706195 0.968647 0.251956
v -0.715443 0.968644 0.258182
v -0.711359 0.964781 0.262271
v -0.710622 -0.657720 0.272413
v -0.707110 -0.663607 0.273342
v -0.701223 -0.667118 0.272413
v -0.700294 -0.663607 0.266526
v -0.701223 -0.657720 0.263015
v -0.707110 -0.656791 0.266526
v -0.705357 -0.661855 0.268278
v 0.809309 -0.667118 0.272413
v 0.815197 -0.663607 0.273342
v 0.818708 -0.657720 0.272413
v 0.815197 -0.656791 0.266526
v 0.809309 -0.657720 0.263015
v 0.808381 -0.663607 0.266526
v 0.813444 -0.661855 0.268278
v 0.809309 -0.657720 2.153135
v 0.815196 -0.656791 2.149624
v 0.818708 -0.657720 2.143736
v 0.815196 -0.663607 2.142807
v 0.809309 -0.667119 2.143736
v 0.808380 -0.663607 2.149624
v 0.813444 -0.661855 2.147871
v -0.710622 -0.657720 2.143736
v -0.707111 -0.656791 2.149624
v -0.701224 -0.657720 2.153135
v -0.700294 -0.663607 2.149624
v -0.701224 -0.667119 2.143736
v -0.707111 -0.663607 2.142807
v -0.705358 -0.661855 2.147871
v 0.810587 0.959002 2.155271
v 0.812096 0.964785 2.158832
v 0.814275 0.968647 2.164189
v 0.823521 0.968644 2.157962
v 0.829722 0.968647 2.148687
v 0.824384 0.964785 2.146515
v 0.820839 0.959002 2.145011
v 0.816715 0.959000 2.151146
v 0.819440 0.964781 2.153876
v -0.714710 0.967590 2.159002
v -0.707306 0.964018 2.157758
v -0.702770 0.957888 2.155216
v -0.708362 0.956575 2.151101
v -0.712486 0.957217 2.145653
v -0.714326 0.963680 2.150850
v -0.710173 0.961995 2.153364
vn 0.0002 -1.0000 0.0002
vn 0.0003 -1.0000 -0.0002
vn 0.3827 -0.9239 -0.0001
vn 0.3827 -0.9239 0.0001
vn 0.7071 -0.7071 -0.0001
vn 0.7071 -0.7071 0.0001
vn 0.9239 -0.3827 -0.0002
vn 0.9239 -0.3827 0.0002
vn 1.0000 -0.0002 -0.0002
vn 1.0000 -0.0002 0.0002
vn -0.0002 -0.3827 -0.9239
vn -0.0002 -0.0002 -1.0000
vn 0.0002 -0.0002 -1.0000
vn 0.0002 -0.3827 -0.9239
vn -0.0002 -0.7071 -0.7071
vn 0.0002 -0.7071 -0.7071
vn -0.0002 -0.9239 -0.3826
vn 0.0002 -0.9239 -0.3826
vn -0.0002 -1.0000 -0.0002
vn 0.9239 -0.0002 -0.3827
vn 0.9239 0.0002 -0.3827
vn 1.0000 0.0002 -0.0002
vn 0.7071 -0.0002 -0.7071
vn 0.7071 0.0002 -0.7071
vn 0.3827 -0.0002 -0.9239
vn 0.3827 0.0002 -0.9239
vn 0.0002 0.0002 -1.0000
vn -1.0000 -0.0002 0.0002
vn -1.0000 -0.0002 -0.0002
vn -0.9239 -0.3826 -0.0002
vn -0.9239 -0.3826 0.0001
vn -0.7070 -0.7072 -0.0001
vn -0.7071 -0.7071 0.0001
vn -0.3826 -0.9239 -0.0002
vn -0.3826 -0.9239 0.0002
vn -0.0002 -1.0000 0.0002
vn -0.3827 -0.0002 -0.9239
vn -0.3827 0.0002 -0.9239
vn -0.0002 0.0002 -1.0000
vn -0.7071 -0.0002 -0.7072
vn -0.7071 0.0002 -0.7071
vn -0.9239 -0.0002 -0.3826
vn -0.9239 0.0002 -0.3826
vn -1.0000 0.0002 -0.0002
vn -0.3826 0.9239 -0.0002
vn -0.3826 0.9239 0.0001
vn -0.0013 1.0000 0.0011
vn -0.0013 1.0000 -0.0010
vn -0.7070 0.7072 -0.0001
vn -0.7071 0.7071 0.0001
vn -0.9239 0.3826 -0.0001
vn -0.9239 0.3826 0.0001
vn -1.0000 0.0002 0.0002
vn -0.0002 0.3827 -0.9239
vn 0.0002 0.3827 -0.9239
vn -0.0002 0.7071 -0.7071
vn 0.0002 0.7071 -0.7071
vn -0.0002 0.9239 -0.3826
vn 0.0002 0.9239 -0.3826
vn 0.0013 1.0000 -0.0010
vn 0.9239 0.3827 -0.0002
vn 0.9239 0.3827 0.0001
vn 1.0000 0.0002 0.0002
vn 0.7071 0.7071 -0.0001
vn 0.7071 0.7071 0.0001
vn 0.3827 0.9239 -0.0001
vn 0.3827 0.9239 0.0001
vn 0.0014 1.0000 0.0011
vn 0.0002 0.0002 1.0000
vn 0.0002 -0.0002 1.0000
vn 0.3826 -0.0002 0.9239
vn 0.3826 0.0002 0.9239
vn 0.7071 -0.0002 0.7071
vn 0.7071 0.0002 0.7071
vn 0.9239 -0.0002 0.3827
vn 0.9239 0.0002 0.3827
vn -0.0002 -0.9239 0.3826
vn 0.0002 -0.9239 0.3826
vn -0.0001 -0.7071 0.7071
vn 0.0002 -0.7071 0.7071
vn -0.0002 -0.3826 0.9239
vn 0.0002 -0.3826 0.9239
vn -0.0002 -0.0002 1.0000
vn -0.9239 -0.0002 0.3826
vn -0.9239 0.0002 0.3826
vn -0.7070 -0.0002 0.7072
vn -0.7071 0.0002 0.7071
vn -0.3826 -0.0002 0.9239
vn -0.3826 0.0002 0.9239
vn -0.0002 0.0002 1.0000
vn -0.0002 0.3826 0.9239
vn 0.0002 0.3826 0.9239
vn -0.0002 0.7071 0.7071
vn 0.0002 0.7071 0.7071
vn -0.0002 0.9239 0.3826
vn 0.0002 0.9239 0.3826
vn 0.8788 -0.3375 -0.3375
vn 0.6732 -0.6731 -0.3062
vn 0.3375 -0.8788 -0.3375
vn 0.3062 -0.6731 -0.6731
vn 0.3375 -0.3375 -0.8787
vn 0.6732 -0.3062 -0.6731
vn 0.5773 -0.5774 -0.5774
vn -0.3375 -0.8788 -0.3375
vn -0.6731 -0.6732 -0.3063
vn -0.8787 -0.3375 -0.3375
vn -0.6731 -0.3063 -0.6732
vn -0.3375 -0.3375 -0.8788
vn -0.3063 -0.6731 -0.6731
vn -0.5773 -0.5774 -0.5774
vn -0.8787 0.3375 -0.3375
vn -0.6731 0.6732 -0.3062
vn -0.3375 0.8788 -0.3375
vn -0.3062 0.6731 -0.6731
vn -0.3375 0.3375 -0.8788
vn -0.6731 0.3063 -0.6732
vn -0.5773 0.5773 -0.5774
vn 0.3375 0.8788 -0.3375
vn 0.6732 0.6731 -0.3062
vn 0.8788 0.3375 -0.3375
vn 0.6732 0.3062 -0.6731
vn 0.3375 0.3375 -0.8788
vn 0.3062 0.6731 -0.6731
vn 0.5773 0.5773 -0.5774
vn 0.8788 -0.3375 0.3374
vn 0.6732 -0.3062 0.6731
vn 0.3375 -0.3374 0.8788
vn 0.3062 -0.6731 0.6732
vn 0.3375 -0.8788 0.3375
vn 0.6731 -0.6731 0.3062
vn 0.5773 -0.5773 0.5774
vn -0.3374 -0.3375 0.8788
vn -0.6731 -0.3063 0.6732
vn -0.8787 -0.3375 0.3375
vn -0.6731 -0.6732 0.3063
vn -0.3375 -0.8788 0.3374
vn -0.3063 -0.6731 0.6731
vn -0.5773 -0.5774 0.5773
vn 0.3375 0.8788 0.3375
vn 0.3062 0.6731 0.6732
vn 0.3374 0.3375 0.8788
vn 0.6732 0.3062 0.6731
vn 0.8788 0.3375 0.3375
vn 0.6731 0.6731 0.3062
vn 0.5773 0.5773 0.5774
vn -0.3375 0.8788 0.3375
vn -0.6731 0.6731 0.3063
vn -0.8787 0.3375 0.3375
vn -0.6731 0.3063 0.6731
vn -0.3374 0.3374 0.8788
vn -0.3063 0.6731 0.6731
vn -0.5773 0.5773 0.5774
vn 0.0011 0.3921 0.9199
vn 0.0009 0.0009 1.0000
vn -0.0008 0.0010 1.0000
vn -0.0006 0.4474 0.8943
vn 0.0011 0.7172 0.6969
vn -0.0010 0.7839 0.6208
vn 0.0007 0.9278 0.3730
vn -0.0008 0.9655 0.2604
vn -0.9187 0.0008 0.3951
vn -0.9232 0.0006 0.3844
vn -1.0000 0.0008 0.0007
vn -1.0000 0.0009 0.0008
vn -0.6947 0.0008 0.7193
vn -0.7037 0.0006 0.7105
vn -0.3674 0.0009 0.9301
vn -0.3781 0.0006 0.9258
vn -0.0009 0.0009 1.0000
vn -0.7044 0.7098 0.0010
vn -0.7788 0.6273 -0.0004
vn -0.4564 0.8898 -0.0000
vn -0.3044 0.9525 0.0015
vn -0.9302 0.3670 0.0006
vn -0.9487 0.3162 -0.0008
vn -1.0000 0.0007 -0.0007
vn 0.9422 0.3351 0.0008
vn 0.9213 0.3888 -0.0006
vn 1.0000 0.0009 -0.0008
vn 1.0000 0.0008 0.0007
vn 0.7585 0.6517 0.0005
vn 0.6811 0.7322 -0.0008
vn 0.4335 0.9012 0.0002
vn 0.2895 0.9572 -0.0013
vn 0.3826 0.0009 0.9239
vn 0.3826 0.0006 0.9239
vn 0.0009 0.0008 1.0000
vn 0.7072 0.0009 0.7070
vn 0.7071 0.0006 0.7071
vn 0.9240 0.0009 0.3825
vn 0.9239 0.0006 0.3826
vn 0.3827 0.9239 0.0006
vn 0.3827 0.9239 -0.0005
vn 0.0009 1.0000 -0.0007
vn 0.0009 1.0000 0.0007
vn 0.7071 0.7071 0.0005
vn 0.7071 0.7071 -0.0005
vn 0.9239 0.3827 0.0006
vn 0.9239 0.3827 -0.0006
vn 1.0000 0.0008 -0.0007
vn 0.0007 0.3826 0.9239
vn -0.0007 0.3826 0.9239
vn 0.0006 0.7071 0.7071
vn -0.0006 0.7071 0.7071
vn 0.0007 0.9239 0.3826
vn -0.0007 0.9239 0.3826
vn -0.0009 1.0000 0.0007
vn -0.9239 0.3826 0.0005
vn -0.9239 0.3826 -0.0006
vn -1.0000 0.0008 -0.0007
vn -0.7071 0.7071 0.0005
vn -0.7071 0.7071 -0.0005
vn -0.3826 0.9239 0.0005
vn -0.3826 0.9239 -0.0006
vn -0.0009 1.0000 -0.0007
vn -0.9239 0.0006 -0.3826
vn -0.9239 0.0009 -0.3827
vn -0.7071 0.0006 -0.7071
vn -0.7071 0.0009 -0.7071
vn -0.3826 0.0006 -0.9239
vn -0.3827 0.0009 -0.9239
vn -0.0009 0.0008 -1.0000
vn -0.0009 0.0009 -1.0000
vn 0.0007 0.3826 -0.9239
vn 0.0009 0.0008 -1.0000
vn -0.0007 0.3826 -0.9239
vn 0.0006 0.7071 -0.7071
vn -0.0006 0.7071 -0.7071
vn 0.0007 0.9239 -0.3826
vn -0.0007 0.9239 -0.3826
vn 0.3799 0.0006 -0.9250
vn 0.3721 0.0009 -0.9282
vn 0.0009 0.0011 -1.0000
vn 0.7050 0.0006 -0.7092
vn 0.6985 0.0008 -0.7156
vn 0.9234 0.0006 -0.3839
vn 0.9201 0.0008 -0.3917
vn 0.0011 0.7837 -0.6211
vn 0.0008 0.9659 -0.2591
vn -0.0007 0.9269 -0.3752
vn -0.0010 0.7148 -0.6994
vn 0.0006 0.4467 -0.8947
vn -0.0010 0.3898 -0.9209
vn 0.0003 1.0000 -0.0003
vn 0.0016 1.0000 -0.0000
vn -0.0000 1.0000 -0.0000
vn -0.0000 1.0000 0.0013
vn -0.0003 1.0000 0.0003
vn -0.0018 1.0000 -0.0000
vn -0.0000 1.0000 -0.0014
vn 0.0405 0.9990 0.0166
vn 0.0309 0.9990 0.0308
vn 0.0167 0.9990 0.0404
vn -0.0167 0.9990 -0.0404
vn -0.0405 0.9990 -0.0166
vn -0.0309 0.9990 -0.0308
vn -0.2113 0.9430 0.2570
vn -0.3622 0.7887 0.4968
vn -0.3631 0.4286 0.8273
vn -0.6350 0.3620 0.6825
vn -0.8222 0.3809 0.4230
vn -0.4535 0.7778 0.4351
vn -0.1744 0.9197 0.3517
vn -0.5157 0.6294 0.5814
vn 0.3169 0.9394 0.1308
vn 0.6294 0.7321 0.2606
vn 0.8457 0.4024 0.3506
vn 0.6475 0.4027 0.6469
vn 0.3510 0.4035 0.8449
vn 0.2612 0.7331 0.6279
vn 0.1312 0.9397 0.3157
vn 0.2424 0.9396 0.2417
vn 0.4820 0.7323 0.4810
vn 0.8787 0.3375 0.3375
vn 0.6732 0.6731 0.3062
vn 0.3062 0.6732 0.6731
vn 0.3375 0.3375 0.8788
vn 0.5773 0.5774 0.5774
vn -0.3375 0.8788 0.3374
vn -0.6732 0.6731 0.3062
vn -0.8788 0.3374 0.3374
vn -0.6732 0.3062 0.6731
vn -0.3375 0.3374 0.8788
vn -0.3062 0.6731 0.6731
vn -0.5774 0.5774 0.5773
vn -0.6731 0.3062 -0.6731
vn -0.8788 0.3375 -0.3375
vn -0.6731 0.6731 -0.3062
vn -0.3062 0.6732 -0.6731
vn -0.5774 0.5774 -0.5773
vn 0.3375 0.3374 -0.8788
vn 0.5774 0.5774 -0.5773
vn -0.3511 0.4033 -0.8450
vn -0.2613 0.7330 -0.6281
vn -0.1313 0.9397 -0.3158
vn -0.2426 0.9395 -0.2418
vn -0.3172 0.9393 -0.1308
vn -0.6299 0.7317 -0.2606
vn -0.8459 0.4020 -0.3506
vn -0.6477 0.4024 -0.6470
vn -0.4823 0.7321 -0.4811
vn 0.2100 0.9470 -0.2429
vn 0.3639 0.8001 -0.4768
vn 0.3702 0.4397 -0.8183
vn 0.6369 0.3789 -0.6714
vn 0.8146 0.4057 -0.4145
vn 0.4452 0.7927 -0.4164
vn 0.1727 0.9258 -0.3362
vn 0.5147 0.6474 -0.5622
vt 0.467365 0.288732
vt 0.467365 0.576340
vt 0.467101 0.576340
vt 0.467101 0.288732
vt 0.233551 0.626490
vt 0.233551 0.338515
vt 0.233700 0.338515
vt 0.233700 0.626490
vt 0.233924 0.338515
vt 0.233924 0.626490
vt 0.234187 0.338515
vt 0.234187 0.626490
vt 0.695754 0.576976
vt 0.695754 0.577240
vt 0.467566 0.577240
vt 0.467566 0.576976
vt 0.695754 0.576753
vt 0.467566 0.576753
vt 0.695754 0.576604
vt 0.467566 0.576604
vt 0.695389 0.576340
vt 0.695389 0.576604
vt 0.467365 0.576604
vt 0.234187 0.338251
vt 0.464292 0.338251
vt 0.464292 0.338515
vt 0.234187 0.338027
vt 0.464292 0.338027
vt 0.234187 0.337878
vt 0.464292 0.337878
vt 0.467566 0.807216
vt 0.467303 0.807216
vt 0.467303 0.577240
vt 0.230742 0.626490
vt 0.230742 0.338515
vt 0.231005 0.338515
vt 0.231005 0.626490
vt 0.231229 0.338515
vt 0.231229 0.626490
vt 0.231378 0.338515
vt 0.231378 0.626490
vt 0.695652 0.288732
vt 0.695652 0.576340
vt 0.695389 0.288732
vt 0.696017 0.577240
vt 0.696017 0.807216
vt 0.695754 0.807216
vt 0.230742 0.338027
vt 0.000637 0.338027
vt 0.000637 0.337878
vt 0.230742 0.337878
vt 0.230742 0.338251
vt 0.000637 0.338251
vt 0.000637 0.338515
vt 0.688383 0.000264
vt 0.688383 0.288205
vt 0.688119 0.288205
vt 0.688119 0.000264
vt 0.000149 0.338515
vt 0.000149 0.626490
vt 0.000000 0.626490
vt 0.000000 0.338515
vt 0.000373 0.338515
vt 0.000373 0.626490
vt 0.000637 0.626490
vt 0.695754 0.807479
vt 0.467566 0.807479
vt 0.695754 0.807703
vt 0.467566 0.807703
vt 0.695754 0.807852
vt 0.467566 0.807852
vt 0.688119 0.000000
vt 0.459831 0.000264
vt 0.459831 0.000000
vt 0.464556 0.338515
vt 0.464556 0.626490
vt 0.464292 0.626490
vt 0.464779 0.338515
vt 0.464779 0.626490
vt 0.464929 0.338515
vt 0.464929 0.626490
vt 0.459831 0.288205
vt 0.459567 0.288205
vt 0.459567 0.000264
vt 0.000465 0.627763
vt 0.000465 0.857739
vt 0.000202 0.857739
vt 0.000202 0.627763
vt 0.464292 0.627127
vt 0.234187 0.627127
vt 0.234187 0.626977
vt 0.464292 0.626977
vt 0.234187 0.626754
vt 0.464292 0.626754
vt 0.695389 0.288469
vt 0.467365 0.288469
vt 0.228652 0.858226
vt 0.228652 0.858375
vt 0.000465 0.858375
vt 0.000465 0.858226
vt 0.228652 0.858003
vt 0.000465 0.858003
vt 0.228652 0.857739
vt 0.230742 0.626754
vt 0.000637 0.626754
vt 0.230742 0.626978
vt 0.000637 0.626978
vt 0.230742 0.627127
vt 0.000637 0.627127
vt 0.228916 0.627763
vt 0.228916 0.857739
vt 0.228652 0.627763
vt 0.228652 0.627500
vt 0.000465 0.627500
vt 0.228652 0.627276
vt 0.000465 0.627276
vt 0.228652 0.627127
vt 0.000465 0.627127
vt 0.688119 0.288469
vt 0.459831 0.288469
vt 0.233949 0.338277
vt 0.233722 0.338313
vt 0.233586 0.338277
vt 0.467127 0.576578
vt 0.467365 0.576775
vt 0.467329 0.576639
vt 0.467329 0.577002
vt 0.233949 0.337913
vt 0.233985 0.338049
vt 0.233790 0.338117
vt 0.696927 0.000042
vt 0.697191 0.000000
vt 0.697112 0.000227
vt 0.696885 0.000305
vt 0.467101 0.577038
vt 0.467169 0.576842
vt 0.695626 0.576578
vt 0.231207 0.338313
vt 0.231343 0.338277
vt 0.230979 0.338277
vt 0.230943 0.338049
vt 0.230979 0.337913
vt 0.695991 0.577002
vt 0.695956 0.576775
vt 0.695991 0.576639
vt 0.704724 0.000000
vt 0.704646 0.000227
vt 0.704419 0.000305
vt 0.704461 0.000042
vt 0.231139 0.338117
vt 0.696151 0.576842
vt 0.696219 0.577038
vt 0.000399 0.338277
vt 0.000171 0.338313
vt 0.000035 0.338277
vt 0.688357 0.000026
vt 0.695956 0.807681
vt 0.695991 0.807817
vt 0.695991 0.807454
vt 0.000435 0.338049
vt 0.000399 0.337913
vt 0.000239 0.338117
vt 0.700879 0.000078
vt 0.700957 0.000305
vt 0.700694 0.000264
vt 0.700652 0.000000
vt 0.696219 0.807418
vt 0.696151 0.807613
vt 0.459593 0.000026
vt 0.464893 0.338277
vt 0.464758 0.338313
vt 0.464530 0.338277
vt 0.464494 0.338049
vt 0.464530 0.337913
vt 0.467329 0.807454
vt 0.467365 0.807681
vt 0.467329 0.807817
vt 0.000000 0.000000
vt 0.000264 0.000042
vt 0.000305 0.000305
vt 0.000078 0.000227
vt 0.464690 0.338117
vt 0.467169 0.807613
vt 0.467101 0.807418
vt 0.233949 0.626728
vt 0.233985 0.626956
vt 0.233949 0.627091
vt 0.000227 0.857977
vt 0.000263 0.858204
vt 0.000227 0.858340
vt 0.467127 0.288494
vt 0.233586 0.626728
vt 0.233722 0.626692
vt 0.233790 0.626888
vt 0.000068 0.858137
vt 0.000000 0.857941
vt 0.693424 0.000000
vt 0.693382 0.000264
vt 0.693118 0.000305
vt 0.693197 0.000078
vt 0.228890 0.857977
vt 0.230943 0.626956
vt 0.230979 0.627091
vt 0.230979 0.626728
vt 0.231207 0.626692
vt 0.231343 0.626728
vt 0.695626 0.288494
vt 0.228854 0.858204
vt 0.228890 0.858340
vt 0.229118 0.857941
vt 0.229050 0.858137
vt 0.231139 0.626888
vt 0.708413 0.000078
vt 0.708491 0.000305
vt 0.708227 0.000264
vt 0.708186 0.000000
vt 0.459593 0.288443
vt 0.000263 0.627298
vt 0.000227 0.627162
vt 0.000227 0.627525
vt 0.464530 0.627091
vt 0.464494 0.626956
vt 0.464530 0.626728
vt 0.464758 0.626692
vt 0.464893 0.626728
vt 0.004031 0.000042
vt 0.004072 0.000305
vt 0.003845 0.000227
vt 0.003767 0.000000
vt 0.000000 0.627561
vt 0.000068 0.627366
vt 0.464690 0.626888
vt 0.688357 0.288443
vt 0.000171 0.626692
vt 0.000035 0.626728
vt 0.000399 0.626728
vt 0.000435 0.626956
vt 0.000399 0.627091
vt 0.228890 0.627525
vt 0.228854 0.627298
vt 0.228890 0.627162
vt 0.712258 0.000000
vt 0.712180 0.000227
vt 0.711953 0.000305
vt 0.711994 0.000042
vt 0.000239 0.626888
vt 0.229050 0.627366
vt 0.229118 0.627561
vt 0.878206 0.424005
vt 0.878206 0.424820
vt 0.699203 0.424862
vt 0.698917 0.424031
vt 0.878207 0.423314
vt 0.698103 0.423326
vt 0.878207 0.422852
vt 0.696885 0.422855
vt 0.691604 0.001914
vt 0.883324 0.001916
vt 0.883324 0.002732
vt 0.691673 0.002734
vt 0.691521 0.001220
vt 0.883324 0.001224
vt 0.691437 0.000758
vt 0.883324 0.000761
vt 0.699160 0.616476
vt 0.698345 0.616476
vt 0.698369 0.424934
vt 0.689917 0.001437
vt 0.689814 0.225292
vt 0.689352 0.225291
vt 0.689378 0.000000
vt 0.690723 0.002397
vt 0.690507 0.225294
vt 0.691323 0.225295
vt 0.424587 0.629240
vt 0.424430 0.852148
vt 0.423517 0.851814
vt 0.423771 0.629240
vt 0.425280 0.629241
vt 0.425205 0.853100
vt 0.425742 0.629242
vt 0.425723 0.854524
vt 0.879021 0.424819
vt 0.879021 0.616476
vt 0.878206 0.616476
vt 0.423771 0.627731
vt 0.231755 0.627731
vt 0.231755 0.627268
vt 0.423771 0.627268
vt 0.423771 0.628423
vt 0.231755 0.628423
vt 0.231755 0.629240
vt 0.662358 0.034517
vt 0.662358 0.256081
vt 0.661546 0.256081
vt 0.661546 0.034517
vt 0.230246 0.629240
vt 0.230246 0.851819
vt 0.229784 0.851819
vt 0.229784 0.629240
vt 0.230939 0.629240
vt 0.230939 0.851819
vt 0.231755 0.851819
vt 0.878206 0.617291
vt 0.699160 0.617291
vt 0.878206 0.617982
vt 0.699160 0.617982
vt 0.878206 0.618444
vt 0.699160 0.618444
vt 0.661546 0.033704
vt 0.482982 0.034517
vt 0.482982 0.033704
vt 0.884140 0.002732
vt 0.884140 0.225295
vt 0.883324 0.225295
vt 0.884833 0.002732
vt 0.884833 0.225295
vt 0.885295 0.002732
vt 0.885295 0.225295
vt 0.482982 0.256081
vt 0.482169 0.256081
vt 0.482169 0.034517
vt 0.883324 0.226111
vt 0.691323 0.226111
vt 0.883324 0.226804
vt 0.691322 0.226804
vt 0.883324 0.227266
vt 0.691323 0.227266
vt 0.698831 0.229234
vt 0.698831 0.420886
vt 0.698016 0.420887
vt 0.698016 0.229234
vt 0.877874 0.228419
vt 0.877874 0.229234
vt 0.698831 0.228419
vt 0.877874 0.227728
vt 0.698831 0.227728
vt 0.877874 0.227266
vt 0.698831 0.227266
vt 0.661546 0.256894
vt 0.482982 0.256894
vt 0.878689 0.229234
vt 0.878671 0.420804
vt 0.877843 0.420855
vt 0.231755 0.853328
vt 0.423627 0.853328
vt 0.423688 0.853792
vt 0.231755 0.853790
vt 0.231755 0.852635
vt 0.423567 0.852634
vt 0.878987 0.422383
vt 0.880255 0.422852
vt 0.698830 0.422854
vt 0.698830 0.422392
vt 0.878140 0.421682
vt 0.698831 0.421701
vt 0.667219 0.261318
vt 0.667596 0.035158
vt 0.667603 0.030902
vt 0.663351 0.030898
vt 0.480895 0.030743
vt 0.480358 0.256943
vt 0.480348 0.261201
vt 0.484599 0.261204
vt 0.663351 0.031713
vt 0.482329 0.031617
vt 0.666552 0.259644
vt 0.666784 0.035157
vt 0.667275 0.033529
vt 0.666355 0.032147
vt 0.664977 0.031223
vt 0.665727 0.260459
vt 0.484600 0.260389
vt 0.481499 0.032432
vt 0.481168 0.256944
vt 0.482974 0.260879
vt 0.480678 0.258572
vt 0.481596 0.259955
vt 0.482328 0.032581
vt 0.483545 0.032359
vt 0.483182 0.032738
vt 0.698255 0.424158
vt 0.697740 0.423415
vt 0.690660 0.000619
vt 0.690835 0.001111
vt 0.690770 0.001761
vt 0.689972 0.001133
vt 0.482340 0.033560
vt 0.482011 0.033863
vt 0.482826 0.033265
vt 0.697581 0.424333
vt 0.697383 0.423670
vt 0.690171 0.000836
vt 0.666520 0.033829
vt 0.425743 0.627909
vt 0.425280 0.628170
vt 0.424588 0.628350
vt 0.424588 0.627616
vt 0.424588 0.627122
vt 0.879094 0.424004
vt 0.879275 0.423313
vt 0.879535 0.422852
vt 0.664677 0.031980
vt 0.665780 0.032723
vt 0.665883 0.034089
vt 0.665293 0.033211
vt 0.425280 0.627289
vt 0.880153 0.423314
vt 0.879827 0.424004
vt 0.664416 0.032619
vt 0.231019 0.628503
vt 0.230314 0.628614
vt 0.229893 0.628503
vt 0.662279 0.033784
vt 0.878830 0.617914
vt 0.878941 0.618334
vt 0.878941 0.617211
vt 0.231130 0.627798
vt 0.231019 0.627378
vt 0.230524 0.628008
vt 0.904768 0.000242
vt 0.905010 0.000943
vt 0.904196 0.000814
vt 0.904067 0.000000
vt 0.879645 0.617100
vt 0.879435 0.617705
vt 0.482249 0.033784
vt 0.885186 0.001996
vt 0.884765 0.002107
vt 0.884060 0.001996
vt 0.883949 0.001291
vt 0.884060 0.000871
vt 0.698425 0.617211
vt 0.698536 0.617914
vt 0.698425 0.618334
vt 0.901243 0.000000
vt 0.901115 0.000814
vt 0.900300 0.000943
vt 0.900543 0.000242
vt 0.884555 0.001501
vt 0.697931 0.617705
vt 0.697721 0.617100
vt 0.698096 0.228499
vt 0.884060 0.227156
vt 0.883949 0.226736
vt 0.884060 0.226031
vt 0.884765 0.225920
vt 0.885186 0.226031
vt 0.482249 0.256814
vt 0.698207 0.227795
vt 0.698096 0.227376
vt 0.697392 0.228610
vt 0.697602 0.228005
vt 0.884555 0.226526
vt 0.886047 0.000129
vt 0.886175 0.000943
vt 0.885475 0.000701
vt 0.885232 0.000000
vt 0.231019 0.852555
vt 0.231130 0.853260
vt 0.231019 0.853681
vt 0.878609 0.228499
vt 0.878498 0.227795
vt 0.878609 0.227376
vt 0.662279 0.256814
vt 0.230314 0.852444
vt 0.229893 0.852555
vt 0.230524 0.853050
vt 0.879103 0.228005
vt 0.879312 0.228610
vt 0.897476 0.000000
vt 0.897234 0.000701
vt 0.896533 0.000943
vt 0.896662 0.000129
vt 0.697943 0.421702
vt 0.697763 0.422393
vt 0.697502 0.422854
vt 0.483274 0.260122
vt 0.482171 0.259380
vt 0.481431 0.258273
vt 0.689814 0.226364
vt 0.689351 0.226624
vt 0.690506 0.226184
vt 0.690506 0.226918
vt 0.690506 0.227412
vt 0.696885 0.422392
vt 0.697211 0.421702
vt 0.483534 0.259483
vt 0.482658 0.258892
vt 0.482068 0.258014
vt 0.689814 0.227245
vt 0.665693 0.259504
vt 0.664461 0.259732
vt 0.664809 0.259355
vt 0.879336 0.422301
vt 0.878794 0.421569
vt 0.424297 0.853437
vt 0.424455 0.853930
vt 0.424374 0.852785
vt 0.425148 0.853407
vt 0.665987 0.258225
vt 0.665647 0.258531
vt 0.665151 0.258831
vt 0.879462 0.421412
vt 0.879678 0.422059
vt 0.424946 0.853708
s 1
usemtl fridge1
f 4/1/1 1/2/2 2/3/3 3/4/4
f 3/5/4 2/6/3 5/7/5 6/8/6
f 6/8/6 5/7/5 7/9/7 8/10/8
f 8/10/8 7/9/7 9/11/9 10/12/10
f 13/13/11 14/14/12 11/15/13 12/16/14
f 16/17/15 13/13/11 12/16/14 15/18/16
f 18/19/17 16/17/15 15/18/16 17/20/18
f 19/21/19 18/22/17 17/23/18 1/2/2
f 20/24/20 21/25/21 22/26/22 9/11/9
f 23/27/23 24/28/24 21/25/21 20/24/20
f 25/29/25 26/30/26 24/28/24 23/27/23
f 11/15/13 27/31/27 26/32/26 25/33/25
f 31/34/28 28/35/29 29/36/30 30/37/31
f 30/37/31 29/36/30 32/38/32 33/39/33
f 33/39/33 32/38/32 34/40/34 35/41/35
f 35/42/35 34/43/34 19/21/19 36/44/36
f 37/45/37 38/46/38 39/47/39 14/14/12
f 40/48/40 41/49/41 38/50/38 37/51/37
f 42/52/42 43/53/43 41/49/41 40/48/40
f 28/35/29 44/54/44 43/53/43 42/52/42
f 46/55/45 47/56/46 48/57/47 45/58/48
f 49/59/49 50/60/50 47/61/46 46/62/45
f 51/63/51 52/64/52 50/60/50 49/59/49
f 44/54/44 53/65/53 52/64/52 51/63/51
f 39/47/39 54/66/54 55/67/55 27/31/27
f 54/66/54 56/68/56 57/69/57 55/67/55
f 56/68/56 58/70/58 59/71/59 57/69/57
f 58/72/58 45/58/48 60/73/60 59/74/59
f 61/75/61 62/76/62 63/77/63 22/26/22
f 64/78/64 65/79/65 62/76/62 61/75/61
f 66/80/66 67/81/67 65/79/65 64/78/64
f 60/73/60 68/82/68 67/83/67 66/84/66
f 72/85/69 69/86/70 70/87/71 71/88/72
f 71/89/72 70/90/71 73/91/73 74/92/74
f 74/92/74 73/91/73 75/93/75 76/94/76
f 76/94/76 75/93/75 10/12/10 63/77/63
f 78/95/77 36/44/36 4/1/1 77/96/78
f 80/97/79 78/98/77 77/99/78 79/100/80
f 82/101/81 80/97/79 79/100/80 81/102/82
f 83/103/83 82/101/81 81/102/82 69/86/70
f 53/65/53 31/34/28 84/104/84 85/105/85
f 85/105/85 84/104/84 86/106/86 87/107/87
f 87/107/87 86/106/86 88/108/88 89/109/89
f 89/110/89 88/111/88 83/103/83 90/112/90
f 92/113/91 90/112/90 72/85/69 91/114/92
f 94/115/93 92/113/91 91/114/92 93/116/94
f 96/117/95 94/115/93 93/116/94 95/118/96
f 48/57/47 96/119/95 95/120/96 68/82/68
f 14/14/12 39/47/39 27/31/27 11/15/13
f 36/44/36 19/21/19 1/2/2 4/1/1
f 63/77/63 10/12/10 9/11/9 22/26/22
f 31/34/28 53/65/53 44/54/44 28/35/29
f 90/112/90 83/103/83 69/86/70 72/85/69
f 7/9/7 97/121/97 20/24/20 9/11/9
f 5/7/5 98/122/98 97/121/97 7/9/7
f 2/6/3 99/123/99 98/122/98 5/7/5
f 1/2/2 17/23/18 99/124/99 2/3/3
f 17/20/18 15/18/16 100/125/100 99/126/99
f 15/18/16 12/16/14 101/127/101 100/125/100
f 12/16/14 11/15/13 25/33/25 101/127/101
f 101/128/101 25/29/25 23/27/23 102/129/102
f 102/129/102 23/27/23 20/24/20 97/121/97
f 98/122/98 103/130/103 102/129/102 97/121/97
f 99/131/99 100/132/100 103/133/103 98/134/98
f 100/125/100 101/127/101 102/135/102 103/136/103
f 34/43/34 104/137/104 18/22/17 19/21/19
f 32/38/32 105/138/105 104/139/104 34/40/34
f 29/36/30 106/140/106 105/138/105 32/38/32
f 29/36/30 28/35/29 42/52/42 106/140/106
f 106/140/106 42/52/42 40/48/40 107/141/107
f 107/141/107 40/48/40 37/51/37 108/142/108
f 108/143/108 37/45/37 14/14/12 13/13/11
f 109/144/109 108/143/108 13/13/11 16/17/15
f 104/145/104 109/144/109 16/17/15 18/19/17
f 105/146/105 110/147/110 109/148/109 104/149/104
f 105/138/105 106/140/106 107/141/107 110/150/110
f 110/151/110 107/152/107 108/143/108 109/144/109
f 44/54/44 51/63/51 111/153/111 43/53/43
f 111/153/111 51/63/51 49/59/49 112/154/112
f 112/154/112 49/59/49 46/62/45 113/155/113
f 113/156/113 46/55/45 45/58/48 58/72/58
f 114/157/114 113/158/113 58/70/58 56/68/56
f 115/159/115 114/157/114 56/68/56 54/66/54
f 38/46/38 115/159/115 54/66/54 39/47/39
f 41/49/41 116/160/116 115/161/115 38/50/38
f 43/53/43 111/153/111 116/160/116 41/49/41
f 111/153/111 112/154/112 117/162/117 116/160/116
f 117/163/117 112/164/112 113/165/113 114/166/114
f 116/167/116 117/168/117 114/157/114 115/159/115
f 59/74/59 60/73/60 66/84/66 118/169/118
f 118/170/118 66/80/66 64/78/64 119/171/119
f 119/171/119 64/78/64 61/75/61 120/172/120
f 120/172/120 61/75/61 22/26/22 21/25/21
f 24/28/24 121/173/121 120/172/120 21/25/21
f 26/30/26 122/174/122 121/173/121 24/28/24
f 27/31/27 55/67/55 122/175/122 26/32/26
f 55/67/55 57/69/57 123/176/123 122/175/122
f 57/69/57 59/71/59 118/177/118 123/176/123
f 123/178/123 118/179/118 119/180/119 124/181/124
f 124/182/124 119/171/119 120/172/120 121/173/121
f 122/175/122 123/176/123 124/183/124 121/184/121
f 75/93/75 125/185/125 8/10/8 10/12/10
f 73/91/73 126/186/126 125/185/125 75/93/75
f 70/90/71 127/187/127 126/186/126 73/91/73
f 69/86/70 81/102/82 127/188/127 70/87/71
f 81/102/82 79/100/80 128/189/128 127/188/127
f 79/100/80 77/99/78 129/190/129 128/189/128
f 77/96/78 4/1/1 3/4/4 129/191/129
f 129/192/129 3/5/4 6/8/6 130/193/130
f 130/193/130 6/8/6 8/10/8 125/185/125
f 126/186/126 131/194/131 130/193/130 125/185/125
f 127/188/127 128/189/128 131/195/131 126/196/126
f 128/197/128 129/198/129 130/199/130 131/200/131
f 88/111/88 132/201/132 82/101/81 83/103/83
f 86/106/86 133/202/133 132/203/132 88/108/88
f 84/104/84 134/204/134 133/202/133 86/106/86
f 84/104/84 31/34/28 30/37/31 134/204/134
f 134/204/134 30/37/31 33/39/33 135/205/135
f 135/205/135 33/39/33 35/41/35 136/206/136
f 136/207/136 35/42/35 36/44/36 78/95/77
f 137/208/137 136/209/136 78/98/77 80/97/79
f 132/201/132 137/208/137 80/97/79 82/101/81
f 133/210/133 138/211/138 137/208/137 132/201/132
f 133/202/133 134/204/134 135/205/135 138/212/138
f 138/213/138 135/214/135 136/215/136 137/216/137
f 68/82/68 95/120/96 139/217/139 67/83/67
f 95/118/96 93/116/94 140/218/140 139/219/139
f 93/116/94 91/114/92 141/220/141 140/218/140
f 91/114/92 72/85/69 71/88/72 141/220/141
f 141/221/141 71/89/72 74/92/74 142/222/142
f 142/222/142 74/92/74 76/94/76 143/223/143
f 143/223/143 76/94/76 63/77/63 62/76/62
f 65/79/65 144/224/144 143/223/143 62/76/62
f 67/81/67 139/225/139 144/224/144 65/79/65
f 139/226/139 140/227/140 145/228/145 144/229/144
f 140/218/140 141/220/141 142/230/142 145/231/145
f 145/232/145 142/222/142 143/223/143 144/224/144
f 47/56/46 146/233/146 96/119/95 48/57/47
f 50/60/50 147/234/147 146/235/146 47/61/46
f 52/64/52 148/236/148 147/234/147 50/60/50
f 53/65/53 85/105/85 148/236/148 52/64/52
f 148/236/148 85/105/85 87/107/87 149/237/149
f 149/237/149 87/107/87 89/109/89 150/238/150
f 150/239/150 89/110/89 90/112/90 92/113/91
f 151/240/151 150/239/150 92/113/91 94/115/93
f 146/241/146 151/240/151 94/115/93 96/117/95
f 147/242/147 152/243/152 151/244/151 146/245/146
f 148/236/148 149/237/149 152/246/152 147/234/147
f 152/247/152 149/248/149 150/239/150 151/240/151
f 155/249/153 156/250/154 153/251/155 154/252/156
f 158/253/157 155/249/153 154/252/156 157/254/158
f 160/255/159 158/253/157 157/254/158 159/256/160
f 162/257/161 163/258/162 164/259/163 161/260/164
f 165/261/165 166/262/166 163/258/162 162/257/161
f 167/263/167 168/264/168 166/262/166 165/261/165
f 153/251/155 169/265/169 168/266/168 167/267/167
f 171/268/170 172/269/171 173/270/172 170/271/173
f 174/272/174 175/273/175 172/269/171 171/268/170
f 161/260/164 176/274/176 175/273/175 174/272/174
f 178/275/177 179/276/178 180/277/179 177/278/180
f 181/279/181 182/280/182 179/276/178 178/275/177
f 183/281/183 184/282/184 182/280/182 181/279/181
f 185/283/185 186/284/186 187/285/187 156/250/154
f 188/286/188 189/287/189 186/288/186 185/289/185
f 190/290/190 191/291/191 189/287/189 188/286/188
f 177/278/180 192/292/180 191/291/191 190/290/190
f 194/293/192 195/294/193 196/295/194 193/296/195
f 197/297/196 198/298/197 195/299/193 194/300/192
f 199/301/198 200/302/199 198/298/197 197/297/196
f 192/292/180 201/303/200 200/302/199 199/301/198
f 187/285/187 202/304/201 203/305/202 169/265/169
f 202/304/201 204/306/203 205/307/204 203/305/202
f 204/306/203 206/308/205 207/309/206 205/307/204
f 206/310/205 193/296/195 208/311/207 207/312/206
f 209/313/208 210/314/209 211/315/210 164/259/163
f 212/316/211 213/317/212 210/314/209 209/313/208
f 214/318/213 215/319/214 213/317/212 212/316/211
f 208/311/207 216/320/215 215/321/214 214/322/213
f 217/323/216 218/324/217 176/274/176 211/315/210
f 219/325/218 220/326/219 218/324/217 217/323/216
f 221/327/220 222/328/221 220/326/219 219/325/218
f 223/329/222 224/330/223 222/331/221 221/332/220
f 226/333/224 227/334/225 223/329/222 225/335/226
f 229/336/227 226/333/224 225/335/226 228/337/228
f 231/338/229 229/336/227 228/337/228 230/339/230
f 196/295/194 231/340/229 230/341/230 216/320/215
f 232/342/231 233/343/232 234/344/233 227/334/225
f 235/345/234 236/346/235 233/347/232 232/348/231
f 237/349/236 238/350/237 236/346/235 235/345/234
f 201/303/200 180/277/179 238/350/237 237/349/236
f 241/351/238 242/352/239 239/353/240 240/354/241
f 244/355/242 241/351/238 240/354/241 243/356/243
f 234/344/233 244/355/242 243/356/243 224/330/223
f 156/250/154 187/285/187 169/265/169 153/251/155
f 193/296/195 196/295/194 216/320/215 208/311/207
f 211/315/210 176/274/176 161/260/164 164/259/163
f 180/277/179 201/303/200 192/292/180 177/278/180
f 227/334/225 234/344/233 224/330/223 223/329/222
f 45/58/48 48/57/47 245/357/244 246/358/245 247/359/246 248/360/247 249/361/248 60/73/60
f 245/357/244 48/57/47 68/82/68 60/73/60 249/361/248 250/362/249 251/363/246 252/364/250
f 248/360/247 160/365/159 159/366/160 249/361/248
f 246/358/245 245/357/244 184/367/184 183/368/183
f 247/359/246 246/358/245 253/369/251 254/370/252 255/371/253 248/360/247
f 242/372/239 245/357/244 252/364/250 239/373/240
f 170/374/173 173/375/172 250/362/249 249/361/248
f 258/376/254 252/364/250 251/363/246 250/362/249 256/377/255 257/378/256
f 159/366/160 259/379/257 170/374/173 249/361/248
f 157/380/158 260/381/258 259/379/257 159/366/160
f 154/252/156 261/382/259 260/383/258 157/254/158
f 154/252/156 153/251/155 167/267/167 261/382/259
f 261/384/259 167/263/167 165/261/165 262/385/260
f 262/385/260 165/261/165 162/257/161 263/386/261
f 263/386/261 162/257/161 161/260/164 174/272/174
f 263/386/261 174/272/174 171/268/170 264/387/262
f 259/379/257 264/388/262 171/389/263 170/374/173
f 260/381/258 265/390/264 264/388/262 259/379/257
f 260/383/258 261/382/259 262/391/260 265/392/264
f 265/393/264 262/385/260 263/386/261 264/387/262
f 253/369/251 246/358/245 183/368/183 266/394/265
f 266/395/265 183/281/183 181/279/181 267/396/266
f 267/396/266 181/279/181 178/275/177 268/397/267
f 178/275/177 177/278/180 190/290/190 268/397/267
f 268/397/267 190/290/190 188/286/188 269/398/268
f 269/398/268 188/286/188 185/289/185 270/399/269
f 270/400/269 185/283/185 156/250/154 155/249/153
f 271/401/270 270/400/269 155/249/153 158/253/157
f 272/402/271 271/401/270 158/253/157 160/255/159
f 255/371/253 272/403/271 160/365/159 248/360/247
f 254/370/252 273/404/272 272/403/271 255/371/253
f 253/369/251 266/394/265 273/404/272 254/370/252
f 266/394/265 267/405/266 274/406/273 273/404/272
f 267/396/266 268/397/267 269/398/268 274/407/273
f 274/408/273 269/409/268 270/400/269 271/401/270
f 273/404/272 274/406/273 271/410/270 272/403/271
f 192/292/180 199/301/198 275/411/274 191/291/191
f 275/411/274 199/301/198 197/297/196 276/412/275
f 276/412/275 197/297/196 194/300/192 277/413/139
f 277/414/139 194/293/192 193/296/195 206/310/205
f 278/415/276 277/416/139 206/308/205 204/306/203
f 279/417/277 278/415/276 204/306/203 202/304/201
f 186/284/186 279/417/277 202/304/201 187/285/187
f 189/287/189 280/418/142 279/419/277 186/288/186
f 191/291/191 275/411/274 280/418/142 189/287/189
f 275/411/274 276/412/275 281/420/278 280/418/142
f 281/421/278 276/422/275 277/423/139 278/424/276
f 280/425/142 281/426/278 278/415/276 279/417/277
f 207/312/206 208/311/207 214/322/213 282/427/279
f 282/428/279 214/318/213 212/316/211 283/429/280
f 283/429/280 212/316/211 209/313/208 284/430/281
f 284/430/281 209/313/208 164/259/163 163/258/162
f 166/262/166 285/431/282 284/430/281 163/258/162
f 168/264/168 286/432/283 285/431/282 166/262/166
f 169/265/169 203/305/202 286/433/283 168/266/168
f 203/305/202 205/307/204 287/434/284 286/433/283
f 205/307/204 207/309/206 282/435/279 287/434/284
f 287/436/284 282/437/279 283/438/280 288/439/285
f 288/440/285 283/429/280 284/430/281 285/431/282
f 286/433/283 287/434/284 288/441/285 285/442/282
f 225/335/226 223/329/222 221/332/220 289/443/115
f 289/444/115 221/327/220 219/325/218 290/445/286
f 290/445/286 219/325/218 217/323/216 291/446/287
f 291/446/287 217/323/216 211/315/210 210/314/209
f 213/317/212 292/447/288 291/446/287 210/314/209
f 215/319/214 293/448/113 292/447/288 213/317/212
f 216/320/215 230/341/230 293/449/113 215/321/214
f 230/339/230 228/337/228 294/450/289 293/451/113
f 228/337/228 225/335/226 289/443/115 294/450/289
f 294/450/289 289/443/115 290/452/286 295/453/290
f 295/454/290 290/445/286 291/446/287 292/447/288
f 293/455/113 294/456/289 295/457/290 292/458/288
f 201/303/200 237/349/236 296/459/120 200/302/199
f 296/459/120 237/349/236 235/345/234 297/460/121
f 297/460/121 235/345/234 232/348/231 298/461/291
f 298/462/291 232/342/231 227/334/225 226/333/224
f 299/463/123 298/462/291 226/333/224 229/336/227
f 300/464/118 299/463/123 229/336/227 231/338/229
f 195/294/193 300/465/118 231/340/229 196/295/194
f 198/298/197 301/466/119 300/467/118 195/299/193
f 200/302/199 296/459/120 301/466/119 198/298/197
f 296/459/120 297/460/121 302/468/292 301/466/119
f 302/469/292 297/470/121 298/462/291 299/463/123
f 301/471/119 302/472/292 299/473/123 300/474/118
f 224/330/223 243/356/243 303/475/293 222/331/221
f 243/356/243 240/354/241 304/476/294 303/475/293
f 240/354/241 239/353/240 305/477/295 304/476/294
f 239/373/240 252/364/250 258/376/254 305/478/295
f 305/478/295 258/376/254 257/378/256 306/479/296
f 306/479/296 257/378/256 256/377/255 307/480/297
f 173/375/172 307/480/297 256/377/255 250/362/249
f 172/269/171 308/481/298 307/482/297 173/270/172
f 175/273/175 309/483/299 308/481/298 172/269/171
f 218/324/217 309/483/299 175/273/175 176/274/176
f 220/326/219 310/484/300 309/483/299 218/324/217
f 222/328/221 303/485/293 310/484/300 220/326/219
f 303/475/293 304/476/294 311/486/301 310/487/300
f 304/488/294 305/478/295 306/479/296 311/489/301
f 311/489/301 306/479/296 307/480/297 308/490/298
f 310/484/300 311/491/301 308/481/298 309/483/299
f 184/367/184 245/357/244 242/372/239 312/492/302
f 312/492/302 242/372/239 241/493/238 313/494/303
f 313/495/303 241/351/238 244/355/242 314/496/304
f 233/343/232 314/496/304 244/355/242 234/344/233
f 236/346/235 315/497/305 314/498/304 233/347/232
f 238/350/237 316/499/306 315/497/305 236/346/235
f 180/277/179 179/276/178 316/499/306 238/350/237
f 182/280/182 317/500/307 316/499/306 179/276/178
f 182/501/308 184/367/184 312/492/302 317/502/307
f 317/502/307 312/492/302 313/494/303 318/503/309
f 315/504/305 318/505/309 313/495/303 314/496/304
f 316/499/306 317/500/307 318/506/309 315/497/305
