# Blender 3.6.5
# www.blender.org
mtllib door_outer.mtl
o pCube2
v 0.990297 1.306279 -0.020201
v 0.994079 1.306232 -0.019449
v 0.990189 0.990948 -0.019449
v 0.986406 0.990995 -0.020202
v 0.997285 1.306192 -0.017307
v 0.993395 0.990909 -0.017307
v 0.999428 1.306166 -0.014100
v 0.995537 0.990883 -0.014100
v 1.000180 1.306157 -0.010318
v 0.996289 0.990873 -0.010318
v 0.990419 1.316162 -0.010318
v 0.990410 1.315410 -0.014100
v -0.914678 1.338920 -0.014100
v -0.914668 1.339672 -0.010318
v 0.990384 1.313267 -0.017307
v -0.914704 1.336777 -0.017307
v 0.990344 1.310061 -0.019449
v -0.914743 1.333571 -0.019449
v -0.914790 1.329789 -0.020202
v 0.999475 1.309948 -0.010318
v 0.999475 1.309947 2.394914
v 1.000180 1.306156 2.394914
v 0.997372 1.313180 -0.010318
v 0.997371 1.313180 2.394914
v 0.994192 1.315363 -0.010318
v 0.994192 1.315362 2.394914
v 0.990419 1.316162 2.394914
v -0.924673 1.329911 -0.010318
v -0.923921 1.329902 -0.014100
v -0.927812 1.014618 -0.014100
v -0.928564 1.014627 -0.010318
v -0.921779 1.329875 -0.017307
v -0.925670 1.014592 -0.017307
v -0.918572 1.329836 -0.019449
v -0.922463 1.014552 -0.019449
v -0.918681 1.014505 -0.020202
v -0.918460 1.338967 -0.010318
v -0.918460 1.338967 2.394914
v -0.914668 1.339672 2.394914
v -0.921692 1.336864 -0.010318
v -0.921692 1.336863 2.394914
v -0.923874 1.333683 -0.010318
v -0.923874 1.333683 2.394914
v -0.924673 1.329911 2.394914
v 0.999428 1.306166 2.398697
v 0.995537 0.990882 2.398697
v 0.996289 0.990873 2.394914
v 0.997285 1.306192 2.401903
v 0.993395 0.990908 2.401903
v 0.994079 1.306232 2.404046
v 0.990188 0.990948 2.404046
v 0.990297 1.306278 2.404798
v 0.986406 0.990995 2.404798
v 0.990344 1.310061 2.404046
v -0.914743 1.333570 2.404046
v -0.914790 1.329788 2.404798
v 0.990384 1.313266 2.401903
v -0.914704 1.336777 2.401903
v 0.990410 1.315409 2.398697
v -0.914678 1.338919 2.398697
v -0.918573 1.329836 2.404046
v -0.922463 1.014551 2.404046
v -0.918681 1.014505 2.404798
v -0.921779 1.329875 2.401903
v -0.925670 1.014591 2.401903
v -0.923921 1.329902 2.398697
v -0.927812 1.014617 2.398697
v -0.928564 1.014627 2.394914
v 0.995490 0.987100 2.394914
v 0.995490 0.987100 -0.010318
v 0.993308 0.983921 2.394914
v 0.993308 0.983921 -0.010318
v 0.990076 0.981817 2.394914
v 0.990076 0.981818 -0.010318
v 0.986285 0.981112 2.394914
v 0.986285 0.981112 -0.010318
v 0.986294 0.981864 2.398697
v -0.918794 1.005374 2.398697
v -0.918803 1.004622 2.394914
v 0.986320 0.984007 2.401903
v -0.918768 1.007517 2.401903
v 0.986360 0.987213 2.404046
v -0.918728 1.010723 2.404046
v -0.922576 1.005421 2.394914
v -0.922576 1.005421 -0.010318
v -0.918803 1.004622 -0.010318
v -0.925756 1.007603 2.394914
v -0.925756 1.007603 -0.010318
v -0.927858 1.010836 2.394914
v -0.927858 1.010836 -0.010318
v 0.986360 0.987213 -0.019449
v -0.918727 1.010723 -0.019449
v 0.986320 0.984007 -0.017307
v -0.918768 1.007517 -0.017307
v 0.986294 0.981865 -0.014100
v -0.918794 1.005375 -0.014100
v 0.998962 1.309584 -0.013729
v 0.997009 1.309093 -0.016994
v 0.993751 1.309648 -0.018941
v 0.993276 1.312919 -0.016994
v 0.993815 1.314859 -0.013729
v 0.997055 1.312871 -0.013214
v 0.996071 1.311912 -0.016022
v -0.918159 1.333242 -0.018941
v -0.921430 1.332767 -0.016994
v -0.923371 1.333307 -0.013729
v -0.921384 1.336548 -0.013214
v -0.918096 1.338454 -0.013729
v -0.917604 1.336500 -0.016994
v -0.920424 1.335563 -0.016022
v 0.993750 1.309648 2.403538
v 0.997008 1.309092 2.401591
v 0.998962 1.309584 2.398326
v 0.997055 1.312871 2.397811
v 0.993815 1.314859 2.398326
v 0.993276 1.312918 2.401591
v 0.996071 1.311912 2.400619
v -0.923371 1.333306 2.398326
v -0.921430 1.332767 2.401591
v -0.918159 1.333241 2.403538
v -0.917604 1.336500 2.401591
v -0.918096 1.338454 2.398326
v -0.921384 1.336547 2.397811
v -0.920424 1.335563 2.400619
v 0.989711 0.982331 2.398326
v 0.992999 0.984237 2.397811
v 0.994987 0.987477 2.398326
v 0.993046 0.988016 2.401591
v 0.989776 0.987541 2.403538
v 0.989220 0.984284 2.401591
v 0.992040 0.985221 2.400619
v -0.927346 1.011200 2.398326
v -0.925439 1.007911 2.397811
v -0.922199 1.005924 2.398326
v -0.921660 1.007865 2.401591
v -0.922134 1.011136 2.403538
v -0.925392 1.011691 2.401591
v -0.924456 1.008871 2.400619
v 0.989776 0.987542 -0.018941
v 0.993046 0.988017 -0.016994
v 0.994987 0.987477 -0.013729
v 0.993000 0.984237 -0.013214
v 0.989712 0.982331 -0.013729
v 0.989220 0.984284 -0.016994
v 0.992040 0.985221 -0.016022
v -0.927346 1.011200 -0.013730
v -0.925392 1.011691 -0.016994
v -0.922134 1.011136 -0.018941
v -0.921659 1.007865 -0.016994
v -0.922199 1.005925 -0.013730
v -0.925439 1.007911 -0.013214
v -0.924455 1.008872 -0.016022
vn 0.0004 0.0023 -1.0000
vn 0.3825 -0.0029 -0.9240
vn 0.3825 -0.0065 -0.9239
vn 0.0003 -0.0023 -1.0000
vn 0.7071 -0.0071 -0.7071
vn 0.7071 -0.0104 -0.7071
vn 0.9239 -0.0096 -0.3825
vn 0.9239 -0.0132 -0.3825
vn 1.0000 -0.0100 -0.0003
vn 0.9999 -0.0147 -0.0003
vn 0.0111 0.9238 -0.3827
vn 0.0120 0.9999 -0.0003
vn 0.0127 0.9999 -0.0003
vn 0.0117 0.9238 -0.3827
vn 0.0084 0.7070 -0.7071
vn 0.0090 0.7070 -0.7071
vn 0.0044 0.3827 -0.9239
vn 0.0050 0.3827 -0.9239
vn -0.0004 0.0023 -1.0000
vn 0.9285 0.3713 -0.0002
vn 0.9285 0.3713 0.0002
vn 1.0000 -0.0100 0.0003
vn 0.7158 0.6983 -0.0002
vn 0.7158 0.6983 0.0002
vn 0.3941 0.9191 -0.0002
vn 0.3941 0.9191 0.0002
vn 0.0127 0.9999 0.0003
vn -0.9999 0.0147 -0.0003
vn -0.9239 0.0132 -0.3825
vn -0.9239 0.0096 -0.3825
vn -1.0000 0.0100 -0.0003
vn -0.7070 0.0104 -0.7071
vn -0.7071 0.0071 -0.7071
vn -0.3825 0.0065 -0.9239
vn -0.3825 0.0030 -0.9239
vn -0.0004 -0.0024 -1.0000
vn -0.3712 0.9285 -0.0002
vn -0.3712 0.9285 0.0002
vn 0.0120 0.9999 0.0003
vn -0.6984 0.7157 -0.0002
vn -0.6984 0.7157 0.0002
vn -0.9191 0.3940 -0.0002
vn -0.9191 0.3941 0.0002
vn -0.9999 0.0147 0.0003
vn 0.9239 -0.0096 0.3825
vn 0.9239 -0.0132 0.3825
vn 0.9999 -0.0147 0.0003
vn 0.7070 -0.0071 0.7071
vn 0.7070 -0.0104 0.7071
vn 0.3825 -0.0029 0.9240
vn 0.3825 -0.0065 0.9239
vn 0.0004 0.0023 1.0000
vn 0.0004 -0.0023 1.0000
vn 0.0044 0.3826 0.9239
vn -0.0004 0.0024 1.0000
vn 0.0050 0.3826 0.9239
vn 0.0084 0.7070 0.7071
vn 0.0090 0.7070 0.7072
vn 0.0111 0.9238 0.3827
vn 0.0117 0.9238 0.3827
vn -0.3825 0.0065 0.9240
vn -0.3825 0.0030 0.9240
vn -0.0004 -0.0023 1.0000
vn -0.7070 0.0104 0.7072
vn -0.7071 0.0071 0.7071
vn -0.9239 0.0132 0.3825
vn -0.9239 0.0096 0.3825
vn -1.0000 0.0100 0.0003
vn 0.9191 -0.3941 0.0002
vn 0.9191 -0.3941 -0.0002
vn 0.6983 -0.7158 0.0002
vn 0.6984 -0.7157 -0.0002
vn 0.3712 -0.9285 0.0003
vn 0.3712 -0.9285 -0.0003
vn -0.0119 -0.9999 0.0003
vn -0.0120 -0.9999 -0.0003
vn -0.0117 -0.9238 0.3826
vn -0.0127 -0.9999 0.0003
vn -0.0111 -0.9238 0.3827
vn -0.0090 -0.7071 0.7071
vn -0.0084 -0.7070 0.7071
vn -0.0050 -0.3826 0.9239
vn -0.0044 -0.3826 0.9239
vn -0.3940 -0.9191 0.0002
vn -0.3940 -0.9191 -0.0002
vn -0.0128 -0.9999 -0.0003
vn -0.7158 -0.6983 0.0002
vn -0.7158 -0.6983 -0.0002
vn -0.9285 -0.3712 0.0002
vn -0.9285 -0.3712 -0.0003
vn -0.0050 -0.3826 -0.9239
vn -0.0044 -0.3826 -0.9239
vn -0.0090 -0.7071 -0.7071
vn -0.0084 -0.7071 -0.7071
vn -0.0117 -0.9238 -0.3826
vn -0.0111 -0.9238 -0.3826
vn 0.8829 0.3266 -0.3375
vn 0.6769 0.2979 -0.6732
vn 0.3416 0.3333 -0.8788
vn 0.3145 0.6693 -0.6731
vn 0.3483 0.8745 -0.3374
vn 0.6814 0.6648 -0.3062
vn 0.5845 0.5702 -0.5773
vn -0.3332 0.3416 -0.8788
vn -0.6693 0.3145 -0.6732
vn -0.8746 0.3483 -0.3374
vn -0.6648 0.6814 -0.3061
vn -0.3266 0.8828 -0.3375
vn -0.2979 0.6768 -0.6732
vn -0.5701 0.5844 -0.5775
vn 0.3416 0.3333 0.8788
vn 0.6768 0.2978 0.6732
vn 0.8829 0.3266 0.3375
vn 0.6814 0.6648 0.3062
vn 0.3483 0.8746 0.3374
vn 0.3145 0.6693 0.6731
vn 0.5844 0.5702 0.5773
vn -0.8745 0.3483 0.3375
vn -0.6693 0.3145 0.6732
vn -0.3333 0.3416 0.8788
vn -0.2978 0.6768 0.6732
vn -0.3266 0.8829 0.3375
vn -0.6648 0.6814 0.3061
vn -0.5701 0.5844 0.5775
vn 0.3266 -0.8829 0.3375
vn 0.6648 -0.6814 0.3062
vn 0.8746 -0.3483 0.3374
vn 0.6693 -0.3145 0.6732
vn 0.3333 -0.3416 0.8788
vn 0.2978 -0.6769 0.6732
vn 0.5702 -0.5845 0.5774
vn -0.8829 -0.3266 0.3375
vn -0.6814 -0.6648 0.3062
vn -0.3483 -0.8746 0.3374
vn -0.3144 -0.6694 0.6731
vn -0.3416 -0.3332 0.8788
vn -0.6769 -0.2979 0.6731
vn -0.5844 -0.5701 0.5774
vn 0.3333 -0.3416 -0.8788
vn 0.6693 -0.3145 -0.6732
vn 0.8745 -0.3483 -0.3374
vn 0.6648 -0.6814 -0.3062
vn 0.3266 -0.8829 -0.3375
vn 0.2979 -0.6769 -0.6732
vn 0.5702 -0.5844 -0.5773
vn -0.8829 -0.3266 -0.3375
vn -0.6769 -0.2979 -0.6731
vn -0.3416 -0.3332 -0.8788
vn -0.3145 -0.6693 -0.6731
vn -0.3483 -0.8746 -0.3374
vn -0.6814 -0.6648 -0.3062
vn -0.5844 -0.5702 -0.5774
vt 0.725551 0.813232
vt 0.725247 0.813567
vt 0.697374 0.788227
vt 0.697678 0.787892
vt 0.724989 0.813850
vt 0.697116 0.788510
vt 0.457867 0.000299
vt 0.458088 0.000746
vt 0.428517 0.000746
vt 0.428296 0.000299
vt 0.458166 0.001273
vt 0.428595 0.001273
vt 0.196935 0.000746
vt 0.196865 0.001273
vt 0.000320 0.001273
vt 0.000390 0.000746
vt 0.197136 0.000299
vt 0.000591 0.000299
vt 0.879000 0.645114
vt 0.879283 0.645372
vt 0.726168 0.813794
vt 0.725885 0.813536
vt 0.878665 0.644810
vt 0.458443 0.001273
vt 0.458443 0.336608
vt 0.458166 0.336608
vt 0.893226 0.000804
vt 0.893226 0.290430
vt 0.892766 0.290430
vt 0.892766 0.000804
vt 0.893676 0.000804
vt 0.893676 0.290430
vt 0.000320 0.336608
vt 0.000000 0.336608
vt 0.000000 0.001273
vt 0.198811 0.001273
vt 0.198734 0.000746
vt 0.228305 0.000746
vt 0.228382 0.001273
vt 0.198512 0.000299
vt 0.228084 0.000299
vt 0.879227 0.644193
vt 0.878969 0.644476
vt 0.851096 0.619136
vt 0.851354 0.618853
vt 0.850792 0.619471
vt 0.197325 0.001273
vt 0.197325 0.336608
vt 0.196865 0.336608
vt 0.197857 0.001273
vt 0.197857 0.336608
vt 0.198379 0.001273
vt 0.198379 0.336608
vt 0.198811 0.336608
vt 0.458088 0.337136
vt 0.428517 0.337136
vt 0.428595 0.336608
vt 0.457867 0.337583
vt 0.428296 0.337583
vt 0.845531 0.691257
vt 0.845789 0.691540
vt 0.817916 0.716880
vt 0.817658 0.716597
vt 0.846093 0.691875
vt 0.818220 0.717214
vt 0.999542 0.859993
vt 0.999207 0.860296
vt 0.846427 0.691571
vt 0.999825 0.859735
vt 0.846711 0.691313
vt 0.196935 0.337136
vt 0.197136 0.337583
vt 0.000591 0.337583
vt 0.000390 0.337136
vt 0.999511 0.860631
vt 0.971638 0.885971
vt 0.971334 0.885636
vt 0.999769 0.860914
vt 0.971896 0.886254
vt 0.198512 0.337583
vt 0.198734 0.337136
vt 0.228305 0.337136
vt 0.228084 0.337583
vt 0.228382 0.336608
vt 0.428162 0.336608
vt 0.428162 0.001273
vt 0.427641 0.336608
vt 0.427641 0.001273
vt 0.427109 0.336608
vt 0.427109 0.001273
vt 0.426648 0.336608
vt 0.426648 0.001273
vt 0.230174 0.337136
vt 0.230103 0.336608
vt 0.426719 0.337136
vt 0.230375 0.337583
vt 0.426920 0.337583
vt 0.971000 0.885940
vt 0.970717 0.886198
vt 0.817602 0.717776
vt 0.817886 0.717518
vt 0.229784 0.336608
vt 0.229784 0.001273
vt 0.230103 0.001273
vt 0.889450 0.000804
vt 0.889450 0.290432
vt 0.888999 0.290432
vt 0.888999 0.000804
vt 0.889909 0.000804
vt 0.889909 0.290432
vt 0.228659 0.001273
vt 0.228659 0.336608
vt 0.850458 0.619167
vt 0.697343 0.787588
vt 0.850174 0.618909
vt 0.697060 0.787331
vt 0.230174 0.000746
vt 0.230375 0.000299
vt 0.426920 0.000299
vt 0.426719 0.000746
vt 0.458356 0.000797
vt 0.725270 0.814055
vt 0.725159 0.814269
vt 0.724817 0.814039
vt 0.725578 0.813808
vt 0.725908 0.814025
vt 0.000086 0.000797
vt 0.000322 0.000342
vt 0.893661 0.000393
vt 0.893223 0.000455
vt 0.892774 0.000393
vt 0.893215 0.000117
vt 0.892886 0.000000
vt 0.725597 0.814195
vt 0.893529 0.000000
vt 0.879241 0.644783
vt 0.879458 0.644453
vt 0.198361 0.000797
vt 0.198209 0.000342
vt 0.197854 0.000869
vt 0.197335 0.000797
vt 0.197464 0.000342
vt 0.197437 0.000000
vt 0.197824 0.000071
vt 0.197845 0.000478
vt 0.846120 0.691299
vt 0.845812 0.691052
vt 0.845702 0.690838
vt 0.845359 0.691068
vt 0.458356 0.337084
vt 0.893223 0.290779
vt 0.892774 0.290841
vt 0.893661 0.290841
vt 0.000086 0.337084
vt 0.000322 0.337539
vt 0.846450 0.691082
vt 0.846139 0.690912
vt 0.893215 0.291117
vt 0.892886 0.291234
vt 0.893529 0.291234
vt 0.198361 0.337084
vt 0.198209 0.337539
vt 0.999783 0.860324
vt 1.000000 0.860654
vt 0.197464 0.337539
vt 0.197824 0.337811
vt 0.197437 0.337881
vt 0.197335 0.337084
vt 0.197854 0.337012
vt 0.197845 0.337404
vt 0.427118 0.337084
vt 0.427638 0.337012
vt 0.428145 0.337084
vt 0.427992 0.337539
vt 0.817644 0.717187
vt 0.817427 0.716857
vt 0.427607 0.337811
vt 0.427221 0.337881
vt 0.427248 0.337539
vt 0.427629 0.337404
vt 0.228572 0.337084
vt 0.889901 0.000393
vt 0.889452 0.000455
vt 0.889015 0.000393
vt 0.229870 0.337084
vt 0.230105 0.337539
vt 0.971307 0.886212
vt 0.970977 0.886429
vt 0.971615 0.886459
vt 0.972068 0.886443
vt 0.971726 0.886673
vt 0.889789 0.000000
vt 0.889460 0.000117
vt 0.889146 0.000000
vt 0.971288 0.886599
vt 0.697102 0.787920
vt 0.696885 0.788250
vt 0.428145 0.000797
vt 0.427992 0.000342
vt 0.427638 0.000869
vt 0.427118 0.000797
vt 0.427248 0.000342
vt 0.427221 0.000000
vt 0.427607 0.000071
vt 0.427629 0.000478
vt 0.228572 0.000797
vt 0.851526 0.618663
vt 0.851073 0.618648
vt 0.851184 0.618434
vt 0.850765 0.618895
vt 0.850435 0.618678
vt 0.229870 0.000797
vt 0.230105 0.000342
vt 0.889452 0.290781
vt 0.889015 0.290843
vt 0.889901 0.290843
vt 0.889789 0.291236
vt 0.889460 0.291119
vt 0.850746 0.618508
vt 0.889146 0.291236
s 1
usemtl fridge1
f 1/1/1 2/2/2 3/3/3 4/4/4
f 2/2/2 5/5/5 6/6/6 3/3/3
f 5/7/5 7/8/7 8/9/8 6/10/6
f 7/8/7 9/11/9 10/12/10 8/9/8
f 13/13/11 14/14/12 11/15/13 12/16/14
f 16/17/15 13/13/11 12/16/14 15/18/16
f 18/19/17 16/20/15 15/21/16 17/22/18
f 19/23/19 18/19/17 17/22/18 1/1/1
f 20/24/20 21/25/21 22/26/22 9/11/9
f 23/27/23 24/28/24 21/29/21 20/30/20
f 25/31/25 26/32/26 24/28/24 23/27/23
f 11/15/13 27/33/27 26/34/26 25/35/25
f 28/36/28 29/37/29 30/38/30 31/39/31
f 29/37/29 32/40/32 33/41/33 30/38/30
f 32/42/32 34/43/34 35/44/35 33/45/33
f 34/43/34 19/23/19 36/46/36 35/44/35
f 37/47/37 38/48/38 39/49/39 14/14/12
f 40/50/40 41/51/41 38/48/38 37/47/37
f 41/51/41 40/50/40 42/52/42 43/53/43
f 43/53/43 42/52/42 28/36/28 44/54/44
f 22/26/22 45/55/45 46/56/46 47/57/47
f 45/55/45 48/58/48 49/59/49 46/56/46
f 48/60/48 50/61/50 51/62/51 49/63/49
f 50/61/50 52/64/52 53/65/53 51/62/51
f 55/66/54 56/67/55 52/64/52 54/68/56
f 58/69/57 55/66/54 54/68/56 57/70/58
f 60/71/59 58/72/57 57/73/58 59/74/60
f 39/49/39 60/71/59 59/74/60 27/33/27
f 56/67/55 61/75/61 62/76/62 63/77/63
f 61/75/61 64/78/64 65/79/65 62/76/62
f 64/80/64 66/81/66 67/82/67 65/83/65
f 66/81/66 44/54/44 68/84/68 67/82/67
f 10/12/10 47/57/47 69/85/69 70/86/70
f 70/86/70 69/85/69 71/87/71 72/88/72
f 73/89/73 74/90/74 72/88/72 71/87/71
f 75/91/75 76/92/76 74/90/74 73/89/73
f 78/93/77 79/94/78 75/91/75 77/95/79
f 81/96/80 78/93/77 77/95/79 80/97/81
f 83/98/82 81/99/80 80/100/81 82/101/83
f 63/77/63 83/98/82 82/101/83 53/65/53
f 84/102/84 85/103/85 86/104/86 79/94/78
f 87/105/87 88/106/88 85/107/85 84/108/84
f 89/109/89 90/110/90 88/106/88 87/105/87
f 68/84/68 31/39/31 90/111/90 89/112/89
f 92/113/91 36/46/36 4/4/4 91/114/92
f 94/115/93 92/113/91 91/114/92 93/116/94
f 96/117/95 94/118/93 93/119/94 95/120/96
f 86/104/86 96/117/95 95/120/96 76/92/76
f 14/14/12 39/49/39 27/33/27 11/15/13
f 56/67/55 63/77/63 53/65/53 52/64/52
f 79/94/78 86/104/86 76/92/76 75/91/75
f 36/46/36 19/23/19 1/1/1 4/4/4
f 44/54/44 28/36/28 31/39/31 68/84/68
f 9/11/9 22/26/22 47/57/47 10/12/10
f 97/121/97 20/24/20 9/11/9 7/8/7
f 98/122/98 97/123/97 7/124/7 5/5/5
f 99/125/99 98/122/98 5/5/5 2/2/2
f 17/22/18 99/125/99 2/2/2 1/1/1
f 15/21/16 100/126/100 99/125/99 17/22/18
f 15/18/16 12/16/14 101/127/101 100/128/100
f 12/16/14 11/15/13 25/35/25 101/127/101
f 101/129/101 25/31/25 23/27/23 102/130/102
f 102/130/102 23/27/23 20/30/20 97/131/97
f 103/132/103 102/130/102 97/131/97 98/133/98
f 100/126/100 103/134/103 98/122/98 99/125/99
f 100/135/100 101/129/101 102/130/102 103/132/103
f 104/136/104 18/19/17 19/23/19 34/43/34
f 105/137/105 104/136/104 34/43/34 32/42/32
f 106/138/106 105/139/105 32/40/32 29/37/29
f 42/52/42 106/138/106 29/37/29 28/36/28
f 40/50/40 107/140/107 106/138/106 42/52/42
f 107/140/107 40/50/40 37/47/37 108/141/108
f 108/141/108 37/47/37 14/14/12 13/13/11
f 109/142/109 108/141/108 13/13/11 16/17/15
f 109/142/109 16/17/15 18/143/17 104/144/104
f 110/145/110 109/142/109 104/144/104 105/139/105
f 106/138/106 107/140/107 110/145/110 105/139/105
f 107/140/107 108/141/108 109/142/109 110/145/110
f 111/146/111 54/68/56 52/64/52 50/61/50
f 112/147/112 111/146/111 50/61/50 48/60/48
f 113/148/113 112/147/112 48/60/48 45/149/45
f 21/25/21 113/150/113 45/55/45 22/26/22
f 24/28/24 114/151/114 113/152/113 21/29/21
f 26/32/26 115/153/115 114/151/114 24/28/24
f 27/33/27 59/74/60 115/154/115 26/34/26
f 59/74/60 57/73/58 116/155/116 115/154/115
f 116/156/116 57/70/58 54/68/56 111/146/111
f 117/157/117 116/156/116 111/146/111 112/147/112
f 114/151/114 117/158/117 112/159/112 113/152/113
f 115/153/115 116/160/116 117/158/117 114/151/114
f 118/161/118 43/53/43 44/54/44 66/81/66
f 119/162/119 118/161/118 66/81/66 64/80/64
f 120/163/120 119/164/119 64/78/64 61/75/61
f 55/66/54 120/163/120 61/75/61 56/67/55
f 58/72/57 121/165/121 120/166/120 55/167/54
f 122/168/122 121/165/121 58/72/57 60/71/59
f 38/48/38 122/168/122 60/71/59 39/49/39
f 41/51/41 123/169/123 122/168/122 38/48/38
f 123/169/123 41/51/41 43/53/43 118/161/118
f 123/169/123 118/161/118 119/162/119 124/170/124
f 121/165/121 124/170/124 119/162/119 120/166/120
f 122/168/122 123/169/123 124/170/124 121/165/121
f 77/95/79 75/91/75 73/89/73 125/171/125
f 125/171/125 73/89/73 71/87/71 126/172/126
f 69/85/69 127/173/127 126/172/126 71/87/71
f 47/57/47 46/56/46 127/173/127 69/85/69
f 46/56/46 49/59/49 128/174/128 127/173/127
f 49/63/49 51/62/51 129/175/129 128/176/128
f 51/62/51 53/65/53 82/101/83 129/175/129
f 129/177/129 82/178/83 80/97/81 130/179/130
f 80/97/81 77/95/79 125/171/125 130/179/130
f 131/180/131 130/179/130 125/171/125 126/172/126
f 128/174/128 131/180/131 126/172/126 127/173/127
f 128/174/128 129/177/129 130/179/130 131/180/131
f 67/82/67 68/84/68 89/112/89 132/181/132
f 132/182/132 89/109/89 87/105/87 133/183/133
f 133/183/133 87/105/87 84/108/84 134/184/134
f 134/185/134 84/102/84 79/94/78 78/93/77
f 135/186/135 134/185/134 78/93/77 81/96/80
f 83/98/82 136/187/136 135/188/135 81/99/80
f 63/77/63 62/76/62 136/187/136 83/98/82
f 62/76/62 65/79/65 137/189/137 136/187/136
f 65/79/65 67/190/67 132/191/132 137/189/137
f 137/192/137 132/182/132 133/183/133 138/193/138
f 138/193/138 133/183/133 134/184/134 135/194/135
f 136/187/136 137/189/137 138/195/138 135/188/135
f 4/4/4 3/3/3 139/196/139 91/114/92
f 3/3/3 6/6/6 140/197/140 139/196/139
f 6/10/6 8/9/8 141/198/141 140/199/140
f 8/9/8 10/12/10 70/86/70 141/198/141
f 141/198/141 70/86/70 72/88/72 142/200/142
f 74/90/74 143/201/143 142/200/142 72/88/72
f 76/92/76 95/120/96 143/201/143 74/90/74
f 95/120/96 93/119/94 144/202/144 143/201/143
f 91/203/92 139/204/139 144/202/144 93/119/94
f 139/204/139 140/199/140 145/205/145 144/202/144
f 145/205/145 140/199/140 141/198/141 142/200/142
f 144/202/144 145/205/145 142/200/142 143/201/143
f 31/39/31 30/38/30 146/206/146 90/111/90
f 30/207/30 33/45/33 147/208/147 146/209/146
f 33/45/33 35/44/35 148/210/148 147/208/147
f 35/44/35 36/46/36 92/113/91 148/210/148
f 148/210/148 92/113/91 94/115/93 149/211/149
f 150/212/150 149/213/149 94/118/93 96/117/95
f 85/103/85 150/212/150 96/117/95 86/104/86
f 88/106/88 151/214/151 150/215/150 85/107/85
f 90/110/90 146/216/146 151/214/151 88/106/88
f 146/216/146 147/217/147 152/218/152 151/214/151
f 147/208/147 148/210/148 149/211/149 152/219/152
f 151/214/151 152/218/152 149/220/149 150/215/150
