# Blender 3.6.5
# www.blender.org
mtllib door_inner.mtl
o pCube4
v 0.790981 1.033601 0.246059
v -0.742682 1.059211 0.246059
v -0.742682 1.059211 2.140724
v 0.790980 1.033601 2.140724
v 0.703942 0.708556 2.055058
v 0.729229 0.712915 2.080330
v -0.691671 0.736642 2.080330
v -0.666543 0.731440 2.055058
v 0.751025 0.726182 2.102071
v -0.713012 0.750629 2.102071
v 0.766193 0.746539 2.117153
v -0.727491 0.771481 2.117153
v 0.772702 0.771395 2.123558
v -0.733168 0.796540 2.123558
v -0.666942 0.731447 0.331326
v 0.703942 0.708556 0.331725
v 0.772702 0.771395 0.263226
v -0.733168 0.796541 0.263226
v -0.727521 0.771483 0.269601
v -0.713126 0.750631 0.284599
v -0.691916 0.736646 0.306209
v 0.766193 0.746539 0.269631
v 0.751025 0.726182 0.284713
v 0.729230 0.712916 0.306454
vn 0.0167 0.9999 -0.0000
vn -0.2799 -0.9364 0.2117
vn -0.0217 -0.9998 0.0040
vn -0.0117 -0.9999 0.0040
vn 0.2481 -0.9454 0.2113
vn -0.0113 -0.6748 0.7379
vn -0.0113 -0.6747 0.7380
vn -0.0063 -0.3785 0.9256
vn -0.0013 -0.0789 0.9969
vn -0.0011 -0.0653 0.9979
vn -0.0217 -0.9998 -0.0040
vn -0.0117 -0.9999 -0.0040
vn -0.0013 -0.0789 -0.9969
vn -0.0011 -0.0653 -0.9979
vn -0.0013 -0.0788 -0.9969
vn -0.9993 -0.0362 -0.0000
vn -0.9988 -0.0496 -0.0000
vn 0.9976 -0.0695 -0.0000
vn 0.9966 -0.0830 -0.0000
vn -0.9363 -0.3512 -0.0000
vn -0.9364 -0.3510 -0.0000
vn -0.7549 -0.6559 -0.0000
vn -0.7550 -0.6558 -0.0000
vn -0.2802 -0.9363 -0.2119
vn 0.9238 -0.3829 -0.0000
vn 0.7317 -0.6817 -0.0000
vn 0.2484 -0.9453 -0.2116
vn -0.0063 -0.3778 -0.9259
vn -0.0063 -0.3776 -0.9259
vn -0.0112 -0.6738 -0.7388
vn -0.0112 -0.6737 -0.7389
vt 0.351566 0.001992
vt 0.351566 0.588054
vt 0.001890 0.588054
vt 0.001890 0.001992
vt 0.361062 0.569373
vt 0.365809 0.561556
vt 0.678280 0.561556
vt 0.685027 0.569373
vt 0.358993 0.576097
vt 0.692794 0.576097
vt 0.487758 0.997053
vt 0.479961 0.997982
vt 0.173831 0.664181
vt 0.175430 0.656493
vt 0.494723 0.993224
vt 0.179846 0.649885
vt 0.557465 0.941517
vt 0.236776 0.591841
vt 0.365718 0.028367
vt 0.678280 0.028490
vt 0.884177 0.596625
vt 0.946919 0.648332
vt 0.626231 0.998008
vt 0.569301 0.939964
vt 0.856456 0.001992
vt 0.856456 0.588054
vt 0.793714 0.582744
vt 0.793714 0.007302
vt 0.765134 0.001992
vt 0.765134 0.588054
vt 0.707090 0.582744
vt 0.707090 0.007302
vt 0.786756 0.580772
vt 0.786750 0.009283
vt 0.778976 0.576133
vt 0.778952 0.013949
vt 0.361006 0.020598
vt 0.771387 0.569448
vt 0.771335 0.020673
vt 0.700483 0.580763
vt 0.700483 0.009283
vt 0.692794 0.013949
vt 0.685027 0.020674
vt 0.877219 0.592789
vt 0.564884 0.933356
vt 0.869439 0.591841
vt 0.563286 0.925668
vt 0.358967 0.013913
s 1
usemtl door
f 2/1/1 3/2/1 4/3/1 1/4/1
f 7/5/2 8/6/3 5/7/4 6/8/5
f 10/9/6 7/5/2 6/8/5 9/10/7
f 12/11/8 10/12/6 9/13/7 11/14/8
f 14/15/9 12/11/8 11/14/8 13/16/9
f 3/17/10 14/15/9 13/16/9 4/18/10
f 8/6/3 15/19/11 16/20/12 5/7/4
f 18/21/13 2/22/14 1/23/14 17/24/15
f 3/25/16 2/26/16 18/27/17 14/28/17
f 1/29/18 4/30/18 13/31/19 17/32/19
f 14/28/17 18/27/17 19/33/20 12/34/21
f 12/34/21 19/33/20 20/35/22 10/36/23
f 7/5/2 21/37/24 15/19/11 8/6/3
f 10/36/23 20/35/22 21/38/24 7/39/2
f 17/32/19 13/31/19 11/40/25 22/41/25
f 22/41/25 11/40/25 9/10/26 23/42/26
f 6/8/5 24/43/27 23/42/26 9/10/26
f 5/7/4 16/20/12 24/43/27 6/8/5
f 19/44/28 18/21/13 17/24/15 22/45/29
f 20/46/30 19/44/28 22/45/29 23/47/31
f 21/37/24 20/48/30 23/42/31 24/43/27
f 15/19/11 21/37/24 24/43/27 16/20/12
