# Blender 3.6.5
# www.blender.org
mtllib tray.mtl
o rist
v -0.831827 -0.660323 1.107341
v -0.831827 -0.672269 1.101254
v 0.818275 -0.672269 1.101254
v 0.818275 -0.660323 1.107341
v -0.831827 -0.681750 1.091773
v 0.818275 -0.681750 1.091773
v -0.831827 -0.687837 1.079826
v 0.818275 -0.687837 1.079826
v -0.831827 -0.689935 1.066584
v 0.818275 -0.689935 1.066584
v -0.831827 -0.687837 1.053341
v 0.818275 -0.687837 1.053341
v -0.831827 -0.681750 1.041394
v 0.818275 -0.681750 1.041394
v -0.831827 -0.672269 1.031913
v 0.818275 -0.672269 1.031913
v -0.831827 -0.660323 1.025826
v 0.818275 -0.660323 1.025826
v -0.831827 -0.647080 1.023728
v 0.818275 -0.647080 1.023728
v -0.831827 -0.633837 1.025826
v 0.818275 -0.633837 1.025826
v -0.831827 -0.621890 1.031913
v 0.818275 -0.621890 1.031913
v -0.831827 -0.612410 1.041394
v 0.818275 -0.612410 1.041394
v -0.831827 -0.606323 1.053341
v 0.818275 -0.606323 1.053341
v -0.831827 -0.604225 1.066584
v 0.818275 -0.604225 1.066584
v -0.831827 -0.606323 1.079826
v 0.818275 -0.606323 1.079826
v -0.831827 -0.612410 1.091773
v 0.818275 -0.612410 1.091773
v -0.831827 -0.621890 1.101254
v 0.818275 -0.621890 1.101254
v -0.831827 -0.633837 1.107341
v 0.818275 -0.633837 1.107341
v -0.831827 -0.647080 1.109438
v 0.818275 -0.647080 1.109438
v -0.831827 -0.647080 1.066584
v 0.818275 -0.647080 1.066584
v 0.657335 -0.649745 1.074198
v 0.660835 -0.649745 1.081067
v 0.660835 0.430078 1.081067
v 0.657335 0.430078 1.074198
v 0.666286 -0.649745 1.086518
v 0.666286 0.430078 1.086518
v 0.673155 -0.649745 1.090018
v 0.673155 0.430078 1.090018
v 0.680770 -0.649745 1.091224
v 0.680770 0.430078 1.091224
v 0.688384 -0.649745 1.090018
v 0.688384 0.430078 1.090018
v 0.695253 -0.649745 1.086518
v 0.695253 0.430078 1.086518
v 0.700704 -0.649745 1.081067
v 0.700704 0.430078 1.081067
v 0.704204 -0.649745 1.074198
v 0.704204 0.430078 1.074198
v 0.705410 -0.649745 1.066584
v 0.705410 0.430078 1.066584
v 0.704204 -0.649745 1.058969
v 0.704204 0.430078 1.058969
v 0.700704 -0.649745 1.052100
v 0.700704 0.430078 1.052100
v 0.695253 -0.649745 1.046649
v 0.695253 0.430078 1.046649
v 0.688384 -0.649745 1.043149
v 0.688384 0.430078 1.043149
v 0.680770 -0.649745 1.041943
v 0.680770 0.430078 1.041943
v 0.673155 -0.649745 1.043149
v 0.673155 0.430078 1.043149
v 0.666286 -0.649745 1.046649
v 0.666286 0.430078 1.046649
v 0.660835 -0.649745 1.052100
v 0.660835 0.430078 1.052100
v 0.657335 -0.649745 1.058969
v 0.657335 0.430078 1.058969
v 0.656129 -0.649745 1.066584
v 0.656129 0.430078 1.066584
v 0.680770 -0.649745 1.066584
v 0.680770 0.430078 1.066584
v 0.507111 -0.649745 1.074198
v 0.510611 -0.649745 1.081067
v 0.510611 0.430078 1.081067
v 0.507111 0.430078 1.074198
v 0.516062 -0.649745 1.086518
v 0.516062 0.430078 1.086518
v 0.522931 -0.649745 1.090018
v 0.522931 0.430078 1.090018
v 0.530545 -0.649745 1.091224
v 0.530545 0.430078 1.091224
v 0.538160 -0.649745 1.090018
v 0.538160 0.430078 1.090018
v 0.545029 -0.649745 1.086518
v 0.545029 0.430078 1.086518
v 0.550480 -0.649745 1.081067
v 0.550480 0.430078 1.081067
v 0.553980 -0.649745 1.074198
v 0.553980 0.430078 1.074198
v 0.555186 -0.649745 1.066584
v 0.555186 0.430078 1.066584
v 0.553980 -0.649745 1.058969
v 0.553980 0.430078 1.058969
v 0.550480 -0.649745 1.052100
v 0.550480 0.430078 1.052100
v 0.545029 -0.649745 1.046649
v 0.545029 0.430078 1.046649
v 0.538160 -0.649745 1.043149
v 0.538160 0.430078 1.043149
v 0.530545 -0.649745 1.041943
v 0.530545 0.430078 1.041943
v 0.522931 -0.649745 1.043149
v 0.522931 0.430078 1.043149
v 0.516062 -0.649745 1.046649
v 0.516062 0.430078 1.046649
v 0.510611 -0.649745 1.052100
v 0.510611 0.430078 1.052100
v 0.507111 -0.649745 1.058969
v 0.507111 0.430078 1.058969
v 0.505905 -0.649745 1.066584
v 0.505905 0.430078 1.066584
v 0.530545 -0.649745 1.066584
v 0.530545 0.430078 1.066584
v 0.341815 -0.649745 1.074198
v 0.345315 -0.649745 1.081067
v 0.345315 0.430078 1.081067
v 0.341815 0.430078 1.074198
v 0.350766 -0.649745 1.086518
v 0.350766 0.430078 1.086518
v 0.357635 -0.649745 1.090018
v 0.357635 0.430078 1.090018
v 0.365250 -0.649745 1.091224
v 0.365250 0.430078 1.091224
v 0.372864 -0.649745 1.090018
v 0.372864 0.430078 1.090018
v 0.379733 -0.649745 1.086518
v 0.379733 0.430078 1.086518
v 0.385184 -0.649745 1.081067
v 0.385184 0.430078 1.081067
v 0.388684 -0.649745 1.074198
v 0.388684 0.430078 1.074198
v 0.389890 -0.649745 1.066584
v 0.389890 0.430078 1.066584
v 0.388684 -0.649745 1.058969
v 0.388684 0.430078 1.058969
v 0.385184 -0.649745 1.052100
v 0.385184 0.430078 1.052100
v 0.379733 -0.649745 1.046649
v 0.379733 0.430078 1.046649
v 0.372864 -0.649745 1.043149
v 0.372864 0.430078 1.043149
v 0.365250 -0.649745 1.041943
v 0.365250 0.430078 1.041943
v 0.357635 -0.649745 1.043149
v 0.357635 0.430078 1.043149
v 0.350766 -0.649745 1.046649
v 0.350766 0.430078 1.046649
v 0.345315 -0.649745 1.052100
v 0.345315 0.430078 1.052100
v 0.341815 -0.649745 1.058969
v 0.341815 0.430078 1.058969
v 0.340609 -0.649745 1.066584
v 0.340609 0.430078 1.066584
v 0.365250 -0.649745 1.066584
v 0.365250 0.430078 1.066584
v 0.178296 -0.649745 1.074198
v 0.181796 -0.649745 1.081067
v 0.181796 0.430078 1.081067
v 0.178296 0.430078 1.074198
v 0.187247 -0.649745 1.086518
v 0.187247 0.430078 1.086518
v 0.194116 -0.649745 1.090018
v 0.194116 0.430078 1.090018
v 0.201731 -0.649745 1.091224
v 0.201731 0.430078 1.091224
v 0.209345 -0.649745 1.090018
v 0.209345 0.430078 1.090018
v 0.216214 -0.649745 1.086518
v 0.216214 0.430078 1.086518
v 0.221665 -0.649745 1.081067
v 0.221665 0.430078 1.081067
v 0.225165 -0.649745 1.074198
v 0.225165 0.430078 1.074198
v 0.226371 -0.649745 1.066584
v 0.226371 0.430078 1.066584
v 0.225165 -0.649745 1.058969
v 0.225165 0.430078 1.058969
v 0.221665 -0.649745 1.052100
v 0.221665 0.430078 1.052100
v 0.216214 -0.649745 1.046649
v 0.216214 0.430078 1.046649
v 0.209345 -0.649745 1.043149
v 0.209345 0.430078 1.043149
v 0.201731 -0.649745 1.041943
v 0.201731 0.430078 1.041943
v 0.194116 -0.649745 1.043149
v 0.194116 0.430078 1.043149
v 0.187247 -0.649745 1.046649
v 0.187247 0.430078 1.046649
v 0.181796 -0.649745 1.052100
v 0.181796 0.430078 1.052100
v 0.178296 -0.649745 1.058969
v 0.178296 0.430078 1.058969
v 0.177090 -0.649745 1.066584
v 0.177090 0.430078 1.066584
v 0.201731 -0.649745 1.066584
v 0.201731 0.430078 1.066584
v 0.007847 -0.649745 1.074198
v 0.011347 -0.649745 1.081067
v 0.011347 0.430078 1.081067
v 0.007847 0.430078 1.074198
v 0.016798 -0.649745 1.086518
v 0.016798 0.430078 1.086518
v 0.023667 -0.649745 1.090018
v 0.023667 0.430078 1.090018
v 0.031281 -0.649745 1.091224
v 0.031281 0.430078 1.091224
v 0.038895 -0.649745 1.090018
v 0.038895 0.430078 1.090018
v 0.045764 -0.649745 1.086518
v 0.045764 0.430078 1.086518
v 0.051216 -0.649745 1.081067
v 0.051216 0.430078 1.081067
v 0.054715 -0.649745 1.074198
v 0.054715 0.430078 1.074198
v 0.055921 -0.649745 1.066584
v 0.055921 0.430078 1.066584
v 0.054715 -0.649745 1.058969
v 0.054715 0.430078 1.058969
v 0.051216 -0.649745 1.052100
v 0.051216 0.430078 1.052100
v 0.045764 -0.649745 1.046649
v 0.045764 0.430078 1.046649
v 0.038895 -0.649745 1.043149
v 0.038895 0.430078 1.043149
v 0.031281 -0.649745 1.041943
v 0.031281 0.430078 1.041943
v 0.023667 -0.649745 1.043149
v 0.023667 0.430078 1.043149
v 0.016798 -0.649745 1.046649
v 0.016798 0.430078 1.046649
v 0.011347 -0.649745 1.052100
v 0.011347 0.430078 1.052100
v 0.007847 -0.649745 1.058969
v 0.007847 0.430078 1.058969
v 0.006641 -0.649745 1.066584
v 0.006641 0.430078 1.066584
v 0.031281 -0.649745 1.066584
v 0.031281 0.430078 1.066584
v -0.155295 -0.649745 1.074198
v -0.151795 -0.649745 1.081067
v -0.151795 0.430078 1.081067
v -0.155295 0.430078 1.074198
v -0.146344 -0.649745 1.086518
v -0.146344 0.430078 1.086518
v -0.139475 -0.649745 1.090018
v -0.139475 0.430078 1.090018
v -0.131861 -0.649745 1.091224
v -0.131861 0.430078 1.091224
v -0.124246 -0.649745 1.090018
v -0.124246 0.430078 1.090018
v -0.117378 -0.649745 1.086518
v -0.117378 0.430078 1.086518
v -0.111926 -0.649745 1.081067
v -0.111926 0.430078 1.081067
v -0.108426 -0.649745 1.074198
v -0.108426 0.430078 1.074198
v -0.107220 -0.649745 1.066584
v -0.107220 0.430078 1.066584
v -0.108426 -0.649745 1.058969
v -0.108426 0.430078 1.058969
v -0.111926 -0.649745 1.052100
v -0.111926 0.430078 1.052100
v -0.117378 -0.649745 1.046649
v -0.117378 0.430078 1.046649
v -0.124247 -0.649745 1.043149
v -0.124247 0.430078 1.043149
v -0.131861 -0.649745 1.041943
v -0.131861 0.430078 1.041943
v -0.139475 -0.649745 1.043149
v -0.139475 0.430078 1.043149
v -0.146344 -0.649745 1.046649
v -0.146344 0.430078 1.046649
v -0.151795 -0.649745 1.052100
v -0.151795 0.430078 1.052100
v -0.155295 -0.649745 1.058969
v -0.155295 0.430078 1.058969
v -0.156501 -0.649745 1.066584
v -0.156501 0.430078 1.066584
v -0.131861 -0.649745 1.066584
v -0.131861 0.430078 1.066584
v -0.307932 -0.649745 1.074198
v -0.304432 -0.649745 1.081067
v -0.304432 0.430078 1.081067
v -0.307932 0.430078 1.074198
v -0.298981 -0.649745 1.086518
v -0.298981 0.430078 1.086518
v -0.292112 -0.649745 1.090018
v -0.292112 0.430078 1.090018
v -0.284498 -0.649745 1.091224
v -0.284498 0.430078 1.091224
v -0.276883 -0.649745 1.090018
v -0.276883 0.430078 1.090018
v -0.270014 -0.649745 1.086518
v -0.270014 0.430078 1.086518
v -0.264563 -0.649745 1.081067
v -0.264563 0.430078 1.081067
v -0.261063 -0.649745 1.074198
v -0.261063 0.430078 1.074198
v -0.259857 -0.649745 1.066584
v -0.259857 0.430078 1.066584
v -0.261063 -0.649745 1.058969
v -0.261063 0.430078 1.058969
v -0.264563 -0.649745 1.052100
v -0.264563 0.430078 1.052100
v -0.270014 -0.649745 1.046649
v -0.270014 0.430078 1.046649
v -0.276883 -0.649745 1.043149
v -0.276883 0.430078 1.043149
v -0.284498 -0.649745 1.041943
v -0.284498 0.430078 1.041943
v -0.292112 -0.649745 1.043149
v -0.292112 0.430078 1.043149
v -0.298981 -0.649745 1.046649
v -0.298981 0.430078 1.046649
v -0.304432 -0.649745 1.052100
v -0.304432 0.430078 1.052100
v -0.307932 -0.649745 1.058969
v -0.307932 0.430078 1.058969
v -0.309138 -0.649745 1.066584
v -0.309138 0.430078 1.066584
v -0.284498 -0.649745 1.066584
v -0.284498 0.430078 1.066584
v -0.585328 -0.649745 1.074198
v -0.581828 -0.649745 1.081067
v -0.581828 0.430078 1.081067
v -0.585328 0.430078 1.074198
v -0.576377 -0.649745 1.086518
v -0.576377 0.430078 1.086518
v -0.569508 -0.649745 1.090018
v -0.569508 0.430078 1.090018
v -0.561893 -0.649745 1.091224
v -0.561893 0.430078 1.091224
v -0.554279 -0.649745 1.090018
v -0.554279 0.430078 1.090018
v -0.547410 -0.649745 1.086518
v -0.547410 0.430078 1.086518
v -0.541959 -0.649745 1.081067
v -0.541959 0.430078 1.081067
v -0.538459 -0.649745 1.074198
v -0.538459 0.430078 1.074198
v -0.537253 -0.649745 1.066584
v -0.537253 0.430078 1.066584
v -0.538459 -0.649745 1.058969
v -0.538459 0.430078 1.058969
v -0.541959 -0.649745 1.052100
v -0.541959 0.430078 1.052100
v -0.547410 -0.649745 1.046649
v -0.547410 0.430078 1.046649
v -0.554279 -0.649745 1.043149
v -0.554279 0.430078 1.043149
v -0.561893 -0.649745 1.041943
v -0.561893 0.430078 1.041943
v -0.569508 -0.649745 1.043149
v -0.569508 0.430078 1.043149
v -0.576377 -0.649745 1.046649
v -0.576377 0.430078 1.046649
v -0.581828 -0.649745 1.052100
v -0.581828 0.430078 1.052100
v -0.585328 -0.649745 1.058969
v -0.585328 0.430078 1.058969
v -0.586534 -0.649745 1.066584
v -0.586534 0.430078 1.066584
v -0.561893 -0.649745 1.066584
v -0.561893 0.430078 1.066584
v -0.712013 -0.649745 1.074198
v -0.708513 -0.649745 1.081067
v -0.708513 0.430078 1.081067
v -0.712013 0.430078 1.074198
v -0.703062 -0.649745 1.086518
v -0.703062 0.430078 1.086518
v -0.696193 -0.649745 1.090018
v -0.696193 0.430078 1.090018
v -0.688578 -0.649745 1.091224
v -0.688578 0.430078 1.091224
v -0.680964 -0.649745 1.090018
v -0.680964 0.430078 1.090018
v -0.674095 -0.649745 1.086518
v -0.674095 0.430078 1.086518
v -0.668644 -0.649745 1.081067
v -0.668644 0.430078 1.081067
v -0.665144 -0.649745 1.074198
v -0.665144 0.430078 1.074198
v -0.663938 -0.649745 1.066584
v -0.663938 0.430078 1.066584
v -0.665144 -0.649745 1.058969
v -0.665144 0.430078 1.058969
v -0.668644 -0.649745 1.052100
v -0.668644 0.430078 1.052100
v -0.674095 -0.649745 1.046649
v -0.674095 0.430078 1.046649
v -0.680964 -0.649745 1.043149
v -0.680964 0.430078 1.043149
v -0.688578 -0.649745 1.041943
v -0.688578 0.430078 1.041943
v -0.696193 -0.649745 1.043149
v -0.696193 0.430078 1.043149
v -0.703062 -0.649745 1.046649
v -0.703062 0.430078 1.046649
v -0.708513 -0.649745 1.052100
v -0.708513 0.430078 1.052100
v -0.712013 -0.649745 1.058969
v -0.712013 0.430078 1.058969
v -0.713219 -0.649745 1.066584
v -0.713219 0.430078 1.066584
v -0.688578 -0.649745 1.066584
v -0.688578 0.430078 1.066584
v -0.825300 -0.649745 1.074198
v -0.821800 -0.649745 1.081067
v -0.821800 0.430078 1.081067
v -0.825300 0.430078 1.074198
v -0.816349 -0.649745 1.086518
v -0.816349 0.430078 1.086518
v -0.809480 -0.649745 1.090018
v -0.809480 0.430078 1.090018
v -0.801866 -0.649745 1.091224
v -0.801866 0.430078 1.091224
v -0.794252 -0.649745 1.090018
v -0.794252 0.430078 1.090018
v -0.787383 -0.649745 1.086518
v -0.787383 0.430078 1.086518
v -0.781931 -0.649745 1.081067
v -0.781931 0.430078 1.081067
v -0.778431 -0.649745 1.074198
v -0.778431 0.430078 1.074198
v -0.777225 -0.649745 1.066584
v -0.777225 0.430078 1.066584
v -0.778431 -0.649745 1.058969
v -0.778431 0.430078 1.058969
v -0.781931 -0.649745 1.052100
v -0.781931 0.430078 1.052100
v -0.787383 -0.649745 1.046649
v -0.787383 0.430078 1.046649
v -0.794252 -0.649745 1.043149
v -0.794252 0.430078 1.043149
v -0.801866 -0.649745 1.041943
v -0.801866 0.430078 1.041943
v -0.809480 -0.649745 1.043149
v -0.809480 0.430078 1.043149
v -0.816349 -0.649745 1.046649
v -0.816349 0.430078 1.046649
v -0.821800 -0.649745 1.052100
v -0.821800 0.430078 1.052100
v -0.825300 -0.649745 1.058969
v -0.825300 0.430078 1.058969
v -0.826506 -0.649745 1.066584
v -0.826506 0.430078 1.066584
v -0.801866 -0.649745 1.066584
v -0.801866 0.430078 1.066584
v -0.456208 -0.649745 1.074198
v -0.452708 -0.649745 1.081067
v -0.452708 0.430078 1.081067
v -0.456208 0.430078 1.074198
v -0.447256 -0.649745 1.086518
v -0.447256 0.430078 1.086518
v -0.440387 -0.649745 1.090018
v -0.440387 0.430078 1.090018
v -0.432773 -0.649745 1.091224
v -0.432773 0.430078 1.091224
v -0.425159 -0.649745 1.090018
v -0.425159 0.430078 1.090018
v -0.418290 -0.649745 1.086518
v -0.418290 0.430078 1.086518
v -0.412839 -0.649745 1.081067
v -0.412839 0.430078 1.081067
v -0.409339 -0.649745 1.074198
v -0.409339 0.430078 1.074198
v -0.408133 -0.649745 1.066584
v -0.408133 0.430078 1.066584
v -0.409339 -0.649745 1.058969
v -0.409339 0.430078 1.058969
v -0.412839 -0.649745 1.052100
v -0.412839 0.430078 1.052100
v -0.418290 -0.649745 1.046649
v -0.418290 0.430078 1.046649
v -0.425159 -0.649745 1.043149
v -0.425159 0.430078 1.043149
v -0.432773 -0.649745 1.041943
v -0.432773 0.430078 1.041943
v -0.440387 -0.649745 1.043149
v -0.440387 0.430078 1.043149
v -0.447256 -0.649745 1.046649
v -0.447256 0.430078 1.046649
v -0.452708 -0.649745 1.052100
v -0.452708 0.430078 1.052100
v -0.456208 -0.649745 1.058969
v -0.456208 0.430078 1.058969
v -0.457414 -0.649745 1.066584
v -0.457414 0.430078 1.066584
v -0.432773 -0.649745 1.066584
v -0.432773 0.430078 1.066584
v 0.777002 -0.649745 1.074198
v 0.780502 -0.649745 1.081067
v 0.780502 0.430078 1.081067
v 0.777002 0.430078 1.074198
v 0.785953 -0.649745 1.086518
v 0.785953 0.430078 1.086518
v 0.792822 -0.649745 1.090018
v 0.792822 0.430078 1.090018
v 0.800436 -0.649745 1.091224
v 0.800436 0.430078 1.091224
v 0.808051 -0.649745 1.090018
v 0.808051 0.430078 1.090018
v 0.814920 -0.649745 1.086518
v 0.814920 0.430078 1.086518
v 0.820371 -0.649745 1.081067
v 0.820371 0.430078 1.081067
v 0.823871 -0.649745 1.074198
v 0.823871 0.430078 1.074198
v 0.825077 -0.649745 1.066584
v 0.825077 0.430078 1.066584
v 0.823871 -0.649745 1.058969
v 0.823871 0.430078 1.058969
v 0.820371 -0.649745 1.052100
v 0.820371 0.430078 1.052100
v 0.814920 -0.649745 1.046649
v 0.814920 0.430078 1.046649
v 0.808051 -0.649745 1.043149
v 0.808051 0.430078 1.043149
v 0.800436 -0.649745 1.041943
v 0.800436 0.430078 1.041943
v 0.792822 -0.649745 1.043149
v 0.792822 0.430078 1.043149
v 0.785953 -0.649745 1.046649
v 0.785953 0.430078 1.046649
v 0.780502 -0.649745 1.052100
v 0.780502 0.430078 1.052100
v 0.777002 -0.649745 1.058969
v 0.777002 0.430078 1.058969
v 0.775796 -0.649745 1.066584
v 0.775796 0.430078 1.066584
v 0.800436 -0.649745 1.066584
v 0.800436 0.430078 1.066584
v -0.770699 0.413192 1.096430
v -0.770699 0.404444 1.091972
v 0.865142 0.404444 1.091972
v 0.865142 0.413192 1.096430
v -0.770699 0.397501 1.085030
v 0.865142 0.397501 1.085030
v -0.770699 0.393043 1.076281
v 0.865142 0.393043 1.076281
v -0.770699 0.391507 1.066584
v 0.865142 0.391507 1.066584
v -0.770699 0.393043 1.056886
v 0.865142 0.393043 1.056886
v -0.770699 0.397501 1.048137
v 0.865142 0.397501 1.048137
v -0.770699 0.404444 1.041194
v 0.865142 0.404444 1.041194
v -0.770699 0.413192 1.036737
v 0.865142 0.413192 1.036737
v -0.770699 0.422890 1.035201
v 0.865142 0.422890 1.035201
v -0.770699 0.432588 1.036737
v 0.865142 0.432588 1.036737
v -0.770699 0.441336 1.041194
v 0.865142 0.441336 1.041194
v -0.770699 0.448279 1.048137
v 0.865142 0.448279 1.048137
v -0.770699 0.452736 1.056886
v 0.865142 0.452736 1.056886
v -0.770699 0.454272 1.066584
v 0.865142 0.454272 1.066584
v -0.770699 0.452736 1.076281
v 0.865142 0.452736 1.076281
v -0.770699 0.448279 1.085030
v 0.865142 0.448279 1.085030
v -0.770699 0.441336 1.091972
v 0.865142 0.441336 1.091972
v -0.770699 0.432588 1.096430
v 0.865142 0.432588 1.096430
v -0.770699 0.422890 1.097966
v 0.865142 0.422890 1.097966
v -0.770699 0.422890 1.066584
v 0.865142 0.422890 1.066584
vn -0.0000 -0.3090 0.9511
vn -0.0000 -0.5878 0.8090
vn -0.0000 -0.8090 0.5878
vn -0.0000 -0.9511 0.3090
vn -0.0000 -1.0000 -0.0000
vn -0.0000 -0.9511 -0.3090
vn -0.0000 -0.8090 -0.5878
vn -0.0000 -0.5878 -0.8090
vn -0.0000 -0.3090 -0.9511
vn -0.0000 -0.0000 -1.0000
vn -0.0000 0.3090 -0.9511
vn -0.0000 0.5878 -0.8090
vn -0.0000 0.8090 -0.5878
vn -0.0000 0.9511 -0.3090
vn -0.0000 1.0000 -0.0000
vn -0.0000 0.9511 0.3090
vn -0.0000 0.8090 0.5878
vn -0.0000 0.5878 0.8090
vn -0.0000 0.3090 0.9511
vn -0.0000 -0.0000 1.0000
vn -1.0000 -0.0000 -0.0000
vn 1.0000 -0.0000 -0.0000
vn -0.9511 -0.0000 0.3090
vn -0.8090 -0.0000 0.5878
vn -0.5878 -0.0000 0.8090
vn -0.3090 -0.0000 0.9511
vn 0.3090 -0.0000 0.9511
vn 0.5878 -0.0000 0.8090
vn 0.8090 -0.0000 0.5878
vn 0.9511 -0.0000 0.3090
vn 0.9511 -0.0000 -0.3090
vn 0.8090 -0.0000 -0.5878
vn 0.5878 -0.0000 -0.8090
vn 0.3090 -0.0000 -0.9511
vn -0.3090 -0.0000 -0.9511
vn -0.5878 -0.0000 -0.8090
vn -0.8090 -0.0000 -0.5878
vn -0.9511 -0.0000 -0.3090
vt 0.023872 0.001992
vt 0.029361 0.001992
vt 0.029361 0.760166
vt 0.023872 0.760166
vt 0.033717 0.001992
vt 0.033717 0.760166
vt 0.040202 0.001992
vt 0.045691 0.001992
vt 0.045691 0.760166
vt 0.040202 0.760166
vt 0.051776 0.001992
vt 0.051776 0.760166
vt 0.057860 0.001992
vt 0.057860 0.760166
vt 0.063350 0.001992
vt 0.063350 0.760166
vt 0.069278 0.001992
vt 0.073635 0.001992
vt 0.073635 0.760166
vt 0.069278 0.760166
vt 0.079124 0.001992
vt 0.079124 0.760166
vt 0.085208 0.001992
vt 0.085208 0.760166
vt 0.091293 0.001992
vt 0.091293 0.760166
vt 0.096782 0.001992
vt 0.096782 0.760166
vt 0.101138 0.001992
vt 0.101138 0.760166
vt 0.107441 0.001992
vt 0.112930 0.001992
vt 0.112930 0.760166
vt 0.107441 0.760166
vt 0.119015 0.001992
vt 0.119015 0.760166
vt 0.125100 0.001992
vt 0.125100 0.760166
vt 0.130589 0.001992
vt 0.130589 0.760166
vt 0.001857 0.001992
vt 0.006214 0.001992
vt 0.006214 0.760166
vt 0.001857 0.760166
vt 0.011703 0.001992
vt 0.011703 0.760166
vt 0.017787 0.001992
vt 0.017787 0.760166
vt 0.534837 0.537482
vt 0.529348 0.540278
vt 0.523263 0.521552
vt 0.539193 0.533125
vt 0.541990 0.527636
vt 0.542954 0.521552
vt 0.541990 0.515467
vt 0.539193 0.509978
vt 0.534837 0.505622
vt 0.529348 0.502825
vt 0.523263 0.501861
vt 0.517179 0.502825
vt 0.511689 0.505622
vt 0.507333 0.509978
vt 0.504537 0.515467
vt 0.503573 0.521552
vt 0.504537 0.527636
vt 0.507333 0.533125
vt 0.511689 0.537482
vt 0.517179 0.540278
vt 0.523263 0.541242
vt 0.472077 0.540278
vt 0.466588 0.537482
vt 0.478161 0.521552
vt 0.462231 0.533125
vt 0.459435 0.527636
vt 0.458471 0.521552
vt 0.459435 0.515467
vt 0.462231 0.509978
vt 0.466588 0.505622
vt 0.472077 0.502825
vt 0.478161 0.501861
vt 0.484246 0.502825
vt 0.489735 0.505622
vt 0.494091 0.509978
vt 0.496888 0.515467
vt 0.497852 0.521552
vt 0.496888 0.527636
vt 0.494091 0.533125
vt 0.489735 0.537482
vt 0.484246 0.540278
vt 0.478161 0.541242
vt 0.254577 0.498139
vt 0.254577 0.001992
vt 0.257733 0.001992
vt 0.257733 0.498139
vt 0.260238 0.001992
vt 0.260238 0.498139
vt 0.280671 0.001992
vt 0.280671 0.498139
vt 0.277515 0.498139
vt 0.277515 0.001992
vt 0.274016 0.498139
vt 0.274016 0.001992
vt 0.270517 0.498139
vt 0.270517 0.001992
vt 0.267361 0.498139
vt 0.267361 0.001992
vt 0.305670 0.001992
vt 0.305670 0.498139
vt 0.303165 0.498139
vt 0.303165 0.001992
vt 0.300009 0.498139
vt 0.300009 0.001992
vt 0.296511 0.498139
vt 0.296511 0.001992
vt 0.293012 0.498139
vt 0.293012 0.001992
vt 0.289856 0.498139
vt 0.289856 0.001992
vt 0.287351 0.498139
vt 0.287351 0.001992
vt 0.315949 0.001992
vt 0.315949 0.498139
vt 0.312793 0.498139
vt 0.312793 0.001992
vt 0.319448 0.001992
vt 0.319448 0.498139
vt 0.322946 0.001992
vt 0.322946 0.498139
vt 0.326103 0.001992
vt 0.326103 0.498139
vt 0.244424 0.001992
vt 0.244424 0.498139
vt 0.241920 0.498139
vt 0.241920 0.001992
vt 0.247580 0.001992
vt 0.247580 0.498139
vt 0.251079 0.001992
vt 0.251079 0.498139
vt 0.365655 0.504023
vt 0.368811 0.502415
vt 0.372309 0.513183
vt 0.363150 0.506528
vt 0.361542 0.509684
vt 0.360988 0.513183
vt 0.361542 0.516681
vt 0.363150 0.519837
vt 0.365655 0.522342
vt 0.368811 0.523950
vt 0.372309 0.524504
vt 0.375808 0.523950
vt 0.378964 0.522342
vt 0.381469 0.519837
vt 0.383077 0.516681
vt 0.383631 0.513183
vt 0.383077 0.509684
vt 0.381469 0.506528
vt 0.378964 0.504023
vt 0.375808 0.502415
vt 0.372309 0.501861
vt 0.347444 0.502415
vt 0.350600 0.504023
vt 0.343945 0.513183
vt 0.353105 0.506528
vt 0.354713 0.509684
vt 0.355267 0.513183
vt 0.354713 0.516681
vt 0.353105 0.519837
vt 0.350600 0.522342
vt 0.347444 0.523950
vt 0.343945 0.524504
vt 0.340447 0.523950
vt 0.337291 0.522342
vt 0.334786 0.519837
vt 0.333178 0.516681
vt 0.332624 0.513183
vt 0.333178 0.509684
vt 0.334786 0.506528
vt 0.337291 0.504023
vt 0.340447 0.502415
vt 0.343945 0.501861
vt 0.345441 0.498139
vt 0.345441 0.001992
vt 0.348597 0.001992
vt 0.348597 0.498139
vt 0.351102 0.001992
vt 0.351102 0.498139
vt 0.371534 0.001992
vt 0.371534 0.498139
vt 0.368378 0.498139
vt 0.368378 0.001992
vt 0.364880 0.498139
vt 0.364880 0.001992
vt 0.361381 0.498139
vt 0.361381 0.001992
vt 0.358225 0.498139
vt 0.358225 0.001992
vt 0.396534 0.001992
vt 0.396534 0.498139
vt 0.394029 0.498139
vt 0.394029 0.001992
vt 0.390873 0.498139
vt 0.390873 0.001992
vt 0.387374 0.498139
vt 0.387374 0.001992
vt 0.383876 0.498139
vt 0.383876 0.001992
vt 0.380720 0.498139
vt 0.380720 0.001992
vt 0.378215 0.498139
vt 0.378215 0.001992
vt 0.406813 0.001992
vt 0.406813 0.498139
vt 0.403657 0.498139
vt 0.403657 0.001992
vt 0.410312 0.001992
vt 0.410312 0.498139
vt 0.413810 0.001992
vt 0.413810 0.498139
vt 0.416966 0.001992
vt 0.416966 0.498139
vt 0.335288 0.001992
vt 0.335288 0.498139
vt 0.332783 0.498139
vt 0.332783 0.001992
vt 0.338444 0.001992
vt 0.338444 0.498139
vt 0.341943 0.001992
vt 0.341943 0.498139
vt 0.268013 0.506528
vt 0.269621 0.509684
vt 0.258854 0.513182
vt 0.265508 0.504023
vt 0.262352 0.502415
vt 0.258854 0.501861
vt 0.255355 0.502415
vt 0.252199 0.504023
vt 0.249695 0.506528
vt 0.248086 0.509684
vt 0.247532 0.513182
vt 0.248086 0.516681
vt 0.249695 0.519837
vt 0.252199 0.522342
vt 0.255355 0.523950
vt 0.258854 0.524504
vt 0.262352 0.523950
vt 0.265508 0.522342
vt 0.268013 0.519837
vt 0.269621 0.516681
vt 0.270175 0.513182
vt 0.241257 0.772154
vt 0.239649 0.775310
vt 0.230490 0.768656
vt 0.237145 0.777815
vt 0.233989 0.779423
vt 0.230490 0.779977
vt 0.226991 0.779423
vt 0.223835 0.777815
vt 0.221331 0.775310
vt 0.219723 0.772154
vt 0.219168 0.768656
vt 0.219723 0.765157
vt 0.221331 0.762001
vt 0.223835 0.759497
vt 0.226991 0.757888
vt 0.230490 0.757334
vt 0.233989 0.757888
vt 0.237145 0.759497
vt 0.239649 0.762001
vt 0.241257 0.765157
vt 0.241812 0.768656
vt 0.436305 0.498139
vt 0.436305 0.001992
vt 0.439461 0.001992
vt 0.439461 0.498139
vt 0.441966 0.001992
vt 0.441966 0.498139
vt 0.462398 0.001992
vt 0.462398 0.498139
vt 0.459242 0.498139
vt 0.459242 0.001992
vt 0.455744 0.498139
vt 0.455744 0.001992
vt 0.452245 0.498139
vt 0.452245 0.001992
vt 0.449089 0.498139
vt 0.449089 0.001992
vt 0.487398 0.001992
vt 0.487398 0.498139
vt 0.484893 0.498139
vt 0.484893 0.001992
vt 0.481737 0.498139
vt 0.481737 0.001992
vt 0.478238 0.498139
vt 0.478238 0.001992
vt 0.474740 0.498139
vt 0.474740 0.001992
vt 0.471584 0.498139
vt 0.471584 0.001992
vt 0.469079 0.498139
vt 0.469079 0.001992
vt 0.497677 0.001992
vt 0.497677 0.498139
vt 0.494521 0.498139
vt 0.494521 0.001992
vt 0.501175 0.001992
vt 0.501175 0.498139
vt 0.504674 0.001992
vt 0.504674 0.498139
vt 0.507830 0.001992
vt 0.507830 0.498139
vt 0.426152 0.001992
vt 0.426152 0.498139
vt 0.423647 0.498139
vt 0.423647 0.001992
vt 0.429308 0.001992
vt 0.429308 0.498139
vt 0.432806 0.001992
vt 0.432806 0.498139
vt 0.211285 0.762001
vt 0.212894 0.765157
vt 0.202126 0.768656
vt 0.208781 0.759497
vt 0.205625 0.757888
vt 0.202126 0.757334
vt 0.198628 0.757888
vt 0.195471 0.759497
vt 0.192967 0.762001
vt 0.191359 0.765157
vt 0.190805 0.768656
vt 0.191359 0.772154
vt 0.192967 0.775311
vt 0.195471 0.777815
vt 0.198628 0.779423
vt 0.202126 0.779977
vt 0.205625 0.779423
vt 0.208781 0.777815
vt 0.211285 0.775311
vt 0.212894 0.772154
vt 0.213448 0.768656
vt 0.184530 0.772154
vt 0.182922 0.775310
vt 0.173762 0.768656
vt 0.180417 0.777815
vt 0.177261 0.779423
vt 0.173762 0.779977
vt 0.170264 0.779423
vt 0.167108 0.777815
vt 0.164603 0.775310
vt 0.162995 0.772154
vt 0.162441 0.768656
vt 0.162995 0.765157
vt 0.164603 0.762001
vt 0.167108 0.759497
vt 0.170264 0.757888
vt 0.173762 0.757334
vt 0.177261 0.757888
vt 0.180417 0.759497
vt 0.182922 0.762001
vt 0.184530 0.765157
vt 0.185084 0.768656
vt 0.527169 0.498139
vt 0.527169 0.001992
vt 0.530325 0.001992
vt 0.530325 0.498139
vt 0.532830 0.001992
vt 0.532830 0.498139
vt 0.553262 0.001992
vt 0.553262 0.498139
vt 0.550106 0.498139
vt 0.550106 0.001992
vt 0.546607 0.498139
vt 0.546607 0.001992
vt 0.543109 0.498139
vt 0.543109 0.001992
vt 0.539953 0.498139
vt 0.539953 0.001992
vt 0.578261 0.001992
vt 0.578261 0.498139
vt 0.575757 0.498139
vt 0.575757 0.001992
vt 0.572601 0.498139
vt 0.572601 0.001992
vt 0.569102 0.498139
vt 0.569102 0.001992
vt 0.565603 0.498139
vt 0.565603 0.001992
vt 0.562447 0.498139
vt 0.562447 0.001992
vt 0.559943 0.498139
vt 0.559943 0.001992
vt 0.588541 0.001992
vt 0.588541 0.498139
vt 0.585385 0.498139
vt 0.585385 0.001992
vt 0.592039 0.001992
vt 0.592039 0.498139
vt 0.595538 0.001992
vt 0.595538 0.498139
vt 0.598694 0.001992
vt 0.598694 0.498139
vt 0.517015 0.001992
vt 0.517015 0.498139
vt 0.514511 0.498139
vt 0.514511 0.001992
vt 0.520172 0.001992
vt 0.520172 0.498139
vt 0.523670 0.001992
vt 0.523670 0.498139
vt 0.154558 0.768554
vt 0.156166 0.771710
vt 0.145398 0.775209
vt 0.152053 0.766050
vt 0.148897 0.764441
vt 0.145398 0.763887
vt 0.141900 0.764441
vt 0.138744 0.766050
vt 0.136239 0.768554
vt 0.134631 0.771710
vt 0.134077 0.775209
vt 0.134631 0.778707
vt 0.136239 0.781864
vt 0.138744 0.784368
vt 0.141900 0.785976
vt 0.145398 0.786530
vt 0.148897 0.785976
vt 0.152053 0.784368
vt 0.154558 0.781864
vt 0.156166 0.778707
vt 0.156720 0.775209
vt 0.127802 0.778707
vt 0.126194 0.781864
vt 0.117035 0.775209
vt 0.123689 0.784368
vt 0.120533 0.785976
vt 0.117035 0.786530
vt 0.113536 0.785976
vt 0.110380 0.784368
vt 0.107875 0.781864
vt 0.106267 0.778707
vt 0.105713 0.775209
vt 0.106267 0.771710
vt 0.107875 0.768554
vt 0.110380 0.766050
vt 0.113536 0.764441
vt 0.117035 0.763887
vt 0.120533 0.764441
vt 0.123689 0.766050
vt 0.126194 0.768554
vt 0.127802 0.771710
vt 0.128356 0.775209
vt 0.618032 0.498139
vt 0.618032 0.001992
vt 0.621188 0.001992
vt 0.621188 0.498139
vt 0.623693 0.001992
vt 0.623693 0.498139
vt 0.644126 0.001992
vt 0.644126 0.498139
vt 0.640970 0.498139
vt 0.640970 0.001992
vt 0.637471 0.498139
vt 0.637471 0.001992
vt 0.633973 0.498139
vt 0.633973 0.001992
vt 0.630816 0.498139
vt 0.630816 0.001992
vt 0.669125 0.001992
vt 0.669125 0.498139
vt 0.666620 0.498139
vt 0.666620 0.001992
vt 0.663464 0.498139
vt 0.663464 0.001992
vt 0.659966 0.498139
vt 0.659966 0.001992
vt 0.656467 0.498139
vt 0.656467 0.001992
vt 0.653311 0.498139
vt 0.653311 0.001992
vt 0.650806 0.498139
vt 0.650806 0.001992
vt 0.679404 0.001992
vt 0.679404 0.498139
vt 0.676248 0.498139
vt 0.676248 0.001992
vt 0.682903 0.001992
vt 0.682903 0.498139
vt 0.686402 0.001992
vt 0.686402 0.498139
vt 0.689558 0.001992
vt 0.689558 0.498139
vt 0.607879 0.001992
vt 0.607879 0.498139
vt 0.605375 0.498139
vt 0.605375 0.001992
vt 0.611035 0.001992
vt 0.611035 0.498139
vt 0.614534 0.001992
vt 0.614534 0.498139
vt 0.097830 0.768554
vt 0.099438 0.771710
vt 0.088671 0.775209
vt 0.095325 0.766050
vt 0.092169 0.764441
vt 0.088671 0.763887
vt 0.085172 0.764441
vt 0.082016 0.766050
vt 0.079511 0.768554
vt 0.077903 0.771710
vt 0.077349 0.775209
vt 0.077903 0.778707
vt 0.079511 0.781864
vt 0.082016 0.784368
vt 0.085172 0.785976
vt 0.088671 0.786530
vt 0.092169 0.785976
vt 0.095325 0.784368
vt 0.097830 0.781864
vt 0.099438 0.778707
vt 0.099992 0.775209
vt 0.071074 0.778707
vt 0.069466 0.781864
vt 0.060307 0.775209
vt 0.066962 0.784368
vt 0.063805 0.785976
vt 0.060307 0.786530
vt 0.056808 0.785976
vt 0.053652 0.784368
vt 0.051148 0.781864
vt 0.049539 0.778707
vt 0.048985 0.775209
vt 0.049539 0.771710
vt 0.051148 0.768554
vt 0.053652 0.766050
vt 0.056808 0.764441
vt 0.060307 0.763887
vt 0.063805 0.764441
vt 0.066962 0.766050
vt 0.069466 0.768554
vt 0.071074 0.771710
vt 0.071628 0.775209
vt 0.708896 0.498139
vt 0.708896 0.001992
vt 0.712052 0.001992
vt 0.712052 0.498139
vt 0.714557 0.001992
vt 0.714557 0.498139
vt 0.734990 0.001992
vt 0.734990 0.498139
vt 0.731833 0.498139
vt 0.731833 0.001992
vt 0.728335 0.498139
vt 0.728335 0.001992
vt 0.724836 0.498139
vt 0.724836 0.001992
vt 0.721680 0.498139
vt 0.721680 0.001992
vt 0.759989 0.001992
vt 0.759989 0.498139
vt 0.757484 0.498139
vt 0.757484 0.001992
vt 0.754328 0.498139
vt 0.754328 0.001992
vt 0.750830 0.498139
vt 0.750830 0.001992
vt 0.747331 0.498139
vt 0.747331 0.001992
vt 0.744175 0.498139
vt 0.744175 0.001992
vt 0.741670 0.498139
vt 0.741670 0.001992
vt 0.770268 0.001992
vt 0.770268 0.498139
vt 0.767112 0.498139
vt 0.767112 0.001992
vt 0.773767 0.001992
vt 0.773767 0.498139
vt 0.777265 0.001992
vt 0.777265 0.498139
vt 0.780421 0.001992
vt 0.780421 0.498139
vt 0.698743 0.001992
vt 0.698743 0.498139
vt 0.696238 0.498139
vt 0.696238 0.001992
vt 0.701899 0.001992
vt 0.701899 0.498139
vt 0.705398 0.001992
vt 0.705398 0.498139
vt 0.041102 0.768554
vt 0.042710 0.771710
vt 0.031943 0.775209
vt 0.038598 0.766050
vt 0.035442 0.764441
vt 0.031943 0.763887
vt 0.028444 0.764441
vt 0.025288 0.766050
vt 0.022784 0.768554
vt 0.021176 0.771710
vt 0.020621 0.775209
vt 0.021176 0.778707
vt 0.022784 0.781864
vt 0.025288 0.784368
vt 0.028444 0.785976
vt 0.031943 0.786530
vt 0.035442 0.785976
vt 0.038598 0.784368
vt 0.041102 0.781864
vt 0.042710 0.778707
vt 0.043265 0.775209
vt 0.023946 0.805072
vt 0.022338 0.808228
vt 0.013179 0.801574
vt 0.019834 0.810733
vt 0.016678 0.812341
vt 0.013179 0.812895
vt 0.009680 0.812341
vt 0.006524 0.810733
vt 0.004020 0.808228
vt 0.002412 0.805072
vt 0.001857 0.801574
vt 0.002412 0.798075
vt 0.004020 0.794919
vt 0.006524 0.792414
vt 0.009680 0.790806
vt 0.013179 0.790252
vt 0.016678 0.790806
vt 0.019834 0.792414
vt 0.022338 0.794919
vt 0.023946 0.798075
vt 0.024501 0.801574
vt 0.799760 0.498139
vt 0.799760 0.001992
vt 0.802916 0.001992
vt 0.802916 0.498139
vt 0.805421 0.001992
vt 0.805421 0.498139
vt 0.825853 0.001992
vt 0.825853 0.498139
vt 0.822697 0.498139
vt 0.822697 0.001992
vt 0.819199 0.498139
vt 0.819199 0.001992
vt 0.815700 0.498139
vt 0.815700 0.001992
vt 0.812544 0.498139
vt 0.812544 0.001992
vt 0.850853 0.001992
vt 0.850853 0.498139
vt 0.848348 0.498139
vt 0.848348 0.001992
vt 0.845192 0.498139
vt 0.845192 0.001992
vt 0.841693 0.498139
vt 0.841693 0.001992
vt 0.838195 0.498139
vt 0.838195 0.001992
vt 0.835039 0.498139
vt 0.835039 0.001992
vt 0.832534 0.498139
vt 0.832534 0.001992
vt 0.861132 0.001992
vt 0.861132 0.498139
vt 0.857976 0.498139
vt 0.857976 0.001992
vt 0.864631 0.001992
vt 0.864631 0.498139
vt 0.868129 0.001992
vt 0.868129 0.498139
vt 0.871285 0.001992
vt 0.871285 0.498139
vt 0.789607 0.001992
vt 0.789607 0.498139
vt 0.787102 0.498139
vt 0.787102 0.001992
vt 0.792763 0.001992
vt 0.792763 0.498139
vt 0.796261 0.001992
vt 0.796261 0.498139
vt 0.051596 0.794919
vt 0.053205 0.798075
vt 0.042437 0.801574
vt 0.049092 0.792414
vt 0.045936 0.790806
vt 0.042437 0.790252
vt 0.038939 0.790806
vt 0.035782 0.792414
vt 0.033278 0.794919
vt 0.031670 0.798075
vt 0.031116 0.801574
vt 0.031670 0.805072
vt 0.033278 0.808228
vt 0.035782 0.810733
vt 0.038939 0.812341
vt 0.042437 0.812895
vt 0.045936 0.812341
vt 0.049092 0.810733
vt 0.051596 0.808228
vt 0.053205 0.805072
vt 0.053759 0.801574
vt 0.082281 0.805072
vt 0.080673 0.808228
vt 0.071514 0.801574
vt 0.078168 0.810733
vt 0.075012 0.812341
vt 0.071514 0.812895
vt 0.068015 0.812341
vt 0.064859 0.810733
vt 0.062354 0.808228
vt 0.060746 0.805072
vt 0.060192 0.801574
vt 0.060746 0.798075
vt 0.062354 0.794919
vt 0.064859 0.792414
vt 0.068015 0.790806
vt 0.071514 0.790252
vt 0.075012 0.790806
vt 0.078168 0.792414
vt 0.080673 0.794919
vt 0.082281 0.798075
vt 0.082835 0.801574
vt 0.890624 0.498139
vt 0.890624 0.001992
vt 0.893780 0.001992
vt 0.893780 0.498139
vt 0.896285 0.001992
vt 0.896285 0.498139
vt 0.916717 0.001992
vt 0.916717 0.498139
vt 0.913561 0.498139
vt 0.913561 0.001992
vt 0.910062 0.498139
vt 0.910062 0.001992
vt 0.906564 0.498139
vt 0.906564 0.001992
vt 0.903408 0.498139
vt 0.903408 0.001992
vt 0.930580 0.501861
vt 0.930580 0.998008
vt 0.928075 0.998008
vt 0.928075 0.501861
vt 0.924919 0.998008
vt 0.924919 0.501861
vt 0.921420 0.998008
vt 0.921420 0.501861
vt 0.917922 0.998008
vt 0.917922 0.501861
vt 0.914766 0.998008
vt 0.914766 0.501861
vt 0.912261 0.998008
vt 0.912261 0.501861
vt 0.896387 0.501861
vt 0.896387 0.998008
vt 0.893231 0.998008
vt 0.893231 0.501861
vt 0.899886 0.501861
vt 0.899886 0.998008
vt 0.903384 0.501861
vt 0.903384 0.998008
vt 0.906540 0.501861
vt 0.906540 0.998008
vt 0.880471 0.001992
vt 0.880471 0.498139
vt 0.877966 0.498139
vt 0.877966 0.001992
vt 0.883627 0.001992
vt 0.883627 0.498139
vt 0.887125 0.001992
vt 0.887125 0.498139
vt 0.109749 0.794919
vt 0.111357 0.798075
vt 0.100590 0.801574
vt 0.107245 0.792414
vt 0.104088 0.790806
vt 0.100590 0.790252
vt 0.097091 0.790806
vt 0.093935 0.792414
vt 0.091431 0.794919
vt 0.089822 0.798075
vt 0.089268 0.801574
vt 0.089822 0.805072
vt 0.091431 0.808228
vt 0.093935 0.810733
vt 0.097091 0.812341
vt 0.100590 0.812895
vt 0.104088 0.812341
vt 0.107245 0.810733
vt 0.109749 0.808228
vt 0.111357 0.805072
vt 0.111911 0.801574
vt 0.140434 0.805072
vt 0.138826 0.808228
vt 0.129666 0.801574
vt 0.136321 0.810733
vt 0.133165 0.812341
vt 0.129666 0.812895
vt 0.126168 0.812341
vt 0.123012 0.810733
vt 0.120507 0.808228
vt 0.118899 0.805072
vt 0.118345 0.801574
vt 0.118899 0.798075
vt 0.120507 0.794919
vt 0.123012 0.792414
vt 0.126168 0.790806
vt 0.129666 0.790252
vt 0.133165 0.790806
vt 0.136321 0.792414
vt 0.138826 0.794919
vt 0.140434 0.798075
vt 0.140988 0.801574
vt 0.881849 0.998008
vt 0.881849 0.501861
vt 0.885005 0.501861
vt 0.885005 0.998008
vt 0.887510 0.501861
vt 0.887510 0.998008
vt 0.863471 0.501861
vt 0.863471 0.998008
vt 0.860314 0.998008
vt 0.860314 0.501861
vt 0.856816 0.998008
vt 0.856816 0.501861
vt 0.853317 0.998008
vt 0.853317 0.501861
vt 0.850161 0.998008
vt 0.850161 0.501861
vt 0.844440 0.501861
vt 0.844440 0.998008
vt 0.841936 0.998008
vt 0.841936 0.501861
vt 0.838780 0.998008
vt 0.838780 0.501861
vt 0.835281 0.998008
vt 0.835281 0.501861
vt 0.831783 0.998008
vt 0.831783 0.501861
vt 0.828626 0.998008
vt 0.828626 0.501861
vt 0.826122 0.998008
vt 0.826122 0.501861
vt 0.810248 0.501861
vt 0.810248 0.998008
vt 0.807092 0.998008
vt 0.807092 0.501861
vt 0.813746 0.501861
vt 0.813746 0.998008
vt 0.817245 0.501861
vt 0.817245 0.998008
vt 0.820401 0.501861
vt 0.820401 0.998008
vt 0.871696 0.501861
vt 0.871696 0.998008
vt 0.869191 0.998008
vt 0.869191 0.501861
vt 0.874852 0.501861
vt 0.874852 0.998008
vt 0.878351 0.501861
vt 0.878351 0.998008
vt 0.167902 0.794919
vt 0.169510 0.798075
vt 0.158743 0.801574
vt 0.165397 0.792414
vt 0.162241 0.790806
vt 0.158743 0.790252
vt 0.155244 0.790806
vt 0.152088 0.792414
vt 0.149583 0.794919
vt 0.147975 0.798075
vt 0.147421 0.801574
vt 0.147975 0.805072
vt 0.149583 0.808228
vt 0.152088 0.810733
vt 0.155244 0.812341
vt 0.158743 0.812895
vt 0.162241 0.812341
vt 0.165397 0.810733
vt 0.167902 0.808228
vt 0.169510 0.805072
vt 0.170064 0.801574
vt 0.198587 0.798519
vt 0.196978 0.801675
vt 0.187819 0.795021
vt 0.194474 0.804180
vt 0.191318 0.805788
vt 0.187819 0.806342
vt 0.184321 0.805788
vt 0.181165 0.804180
vt 0.178660 0.801675
vt 0.177052 0.798519
vt 0.176498 0.795021
vt 0.177052 0.791522
vt 0.178660 0.788366
vt 0.181165 0.785861
vt 0.184321 0.784253
vt 0.187819 0.783699
vt 0.191318 0.784253
vt 0.194474 0.785861
vt 0.196978 0.788366
vt 0.198587 0.791522
vt 0.199141 0.795021
vt 0.795710 0.998008
vt 0.795710 0.501861
vt 0.798866 0.501861
vt 0.798866 0.998008
vt 0.801371 0.501861
vt 0.801371 0.998008
vt 0.777331 0.501861
vt 0.777331 0.998008
vt 0.774175 0.998008
vt 0.774175 0.501861
vt 0.770677 0.998008
vt 0.770677 0.501861
vt 0.767178 0.998008
vt 0.767178 0.501861
vt 0.764022 0.998008
vt 0.764022 0.501861
vt 0.758301 0.501861
vt 0.758301 0.998008
vt 0.755797 0.998008
vt 0.755797 0.501861
vt 0.752641 0.998008
vt 0.752641 0.501861
vt 0.749142 0.998008
vt 0.749142 0.501861
vt 0.745643 0.998008
vt 0.745643 0.501861
vt 0.742487 0.998008
vt 0.742487 0.501861
vt 0.739983 0.998008
vt 0.739983 0.501861
vt 0.724109 0.501861
vt 0.724109 0.998008
vt 0.720953 0.998008
vt 0.720953 0.501861
vt 0.727607 0.501861
vt 0.727607 0.998008
vt 0.731106 0.501861
vt 0.731106 0.998008
vt 0.734262 0.501861
vt 0.734262 0.998008
vt 0.785557 0.501861
vt 0.785557 0.998008
vt 0.783052 0.998008
vt 0.783052 0.501861
vt 0.788713 0.501861
vt 0.788713 0.998008
vt 0.792212 0.501861
vt 0.792212 0.998008
vt 0.226055 0.788366
vt 0.227663 0.791522
vt 0.216896 0.795021
vt 0.223550 0.785861
vt 0.220394 0.784253
vt 0.216896 0.783699
vt 0.213397 0.784253
vt 0.210241 0.785861
vt 0.207736 0.788366
vt 0.206128 0.791522
vt 0.205574 0.795021
vt 0.206128 0.798519
vt 0.207736 0.801675
vt 0.210241 0.804180
vt 0.213397 0.805788
vt 0.216896 0.806342
vt 0.220394 0.805788
vt 0.223550 0.804180
vt 0.226055 0.801675
vt 0.227663 0.798519
vt 0.228217 0.795021
vt 0.256739 0.798519
vt 0.255131 0.801675
vt 0.245972 0.795021
vt 0.252627 0.804180
vt 0.249471 0.805788
vt 0.245972 0.806342
vt 0.242473 0.805788
vt 0.239317 0.804180
vt 0.236813 0.801675
vt 0.235205 0.798519
vt 0.234650 0.795021
vt 0.235205 0.791522
vt 0.236813 0.788366
vt 0.239317 0.785861
vt 0.242473 0.784253
vt 0.245972 0.783699
vt 0.249471 0.784253
vt 0.252627 0.785861
vt 0.255131 0.788366
vt 0.256739 0.791522
vt 0.257293 0.795021
vt 0.709571 0.998008
vt 0.709571 0.501861
vt 0.712727 0.501861
vt 0.712727 0.998008
vt 0.715232 0.501861
vt 0.715232 0.998008
vt 0.691192 0.501861
vt 0.691192 0.998008
vt 0.688036 0.998008
vt 0.688036 0.501861
vt 0.684538 0.998008
vt 0.684538 0.501861
vt 0.681039 0.998008
vt 0.681039 0.501861
vt 0.677883 0.998008
vt 0.677883 0.501861
vt 0.672162 0.501861
vt 0.672162 0.998008
vt 0.669658 0.998008
vt 0.669658 0.501861
vt 0.666502 0.998008
vt 0.666502 0.501861
vt 0.663003 0.998008
vt 0.663003 0.501861
vt 0.659504 0.998008
vt 0.659504 0.501861
vt 0.656348 0.998008
vt 0.656348 0.501861
vt 0.653844 0.998008
vt 0.653844 0.501861
vt 0.637970 0.501861
vt 0.637970 0.998008
vt 0.634814 0.998008
vt 0.634814 0.501861
vt 0.641468 0.501861
vt 0.641468 0.998008
vt 0.644967 0.501861
vt 0.644967 0.998008
vt 0.648123 0.501861
vt 0.648123 0.998008
vt 0.699418 0.501861
vt 0.699418 0.998008
vt 0.696913 0.998008
vt 0.696913 0.501861
vt 0.702574 0.501861
vt 0.702574 0.998008
vt 0.706073 0.501861
vt 0.706073 0.998008
vt 0.284208 0.532893
vt 0.285816 0.536049
vt 0.275048 0.539547
vt 0.281703 0.530388
vt 0.278547 0.528780
vt 0.275048 0.528226
vt 0.271550 0.528780
vt 0.268394 0.530388
vt 0.265889 0.532893
vt 0.264281 0.536049
vt 0.263727 0.539547
vt 0.264281 0.543046
vt 0.265889 0.546202
vt 0.268394 0.548707
vt 0.271550 0.550315
vt 0.275048 0.550869
vt 0.278547 0.550315
vt 0.281703 0.548707
vt 0.284208 0.546202
vt 0.285816 0.543046
vt 0.286370 0.539547
vt 0.314892 0.543046
vt 0.313284 0.546202
vt 0.304125 0.539547
vt 0.310779 0.548707
vt 0.307623 0.550315
vt 0.304125 0.550869
vt 0.300626 0.550315
vt 0.297470 0.548707
vt 0.294965 0.546202
vt 0.293357 0.543046
vt 0.292803 0.539547
vt 0.293357 0.536049
vt 0.294965 0.532893
vt 0.297470 0.530388
vt 0.300626 0.528780
vt 0.304125 0.528226
vt 0.307623 0.528780
vt 0.310779 0.530388
vt 0.313284 0.532893
vt 0.314892 0.536049
vt 0.315446 0.539547
vt 0.623432 0.998008
vt 0.623432 0.501861
vt 0.626588 0.501861
vt 0.626588 0.998008
vt 0.629093 0.501861
vt 0.629093 0.998008
vt 0.605053 0.501861
vt 0.605053 0.998008
vt 0.601897 0.998008
vt 0.601897 0.501861
vt 0.598399 0.998008
vt 0.598399 0.501861
vt 0.594900 0.998008
vt 0.594900 0.501861
vt 0.591744 0.998008
vt 0.591744 0.501861
vt 0.586023 0.501861
vt 0.586023 0.998008
vt 0.583519 0.998008
vt 0.583519 0.501861
vt 0.580363 0.998008
vt 0.580363 0.501861
vt 0.576864 0.998008
vt 0.576864 0.501861
vt 0.573365 0.998008
vt 0.573365 0.501861
vt 0.570209 0.998008
vt 0.570209 0.501861
vt 0.567705 0.998008
vt 0.567705 0.501861
vt 0.551831 0.501861
vt 0.551831 0.998008
vt 0.548675 0.998008
vt 0.548675 0.501861
vt 0.555329 0.501861
vt 0.555329 0.998008
vt 0.558828 0.501861
vt 0.558828 0.998008
vt 0.561984 0.501861
vt 0.561984 0.998008
vt 0.613279 0.501861
vt 0.613279 0.998008
vt 0.610774 0.998008
vt 0.610774 0.501861
vt 0.616435 0.501861
vt 0.616435 0.998008
vt 0.619933 0.501861
vt 0.619933 0.998008
vt 0.308927 0.504023
vt 0.312083 0.502415
vt 0.315582 0.513183
vt 0.306422 0.506528
vt 0.304814 0.509684
vt 0.304260 0.513183
vt 0.304814 0.516681
vt 0.306422 0.519837
vt 0.308927 0.522342
vt 0.312083 0.523950
vt 0.315582 0.524504
vt 0.319080 0.523950
vt 0.322236 0.522342
vt 0.324741 0.519837
vt 0.326349 0.516681
vt 0.326903 0.513183
vt 0.326349 0.509684
vt 0.324741 0.506528
vt 0.322236 0.504023
vt 0.319080 0.502415
vt 0.315582 0.501861
vt 0.290716 0.502415
vt 0.293872 0.504023
vt 0.287218 0.513183
vt 0.296377 0.506528
vt 0.297985 0.509684
vt 0.298539 0.513183
vt 0.297985 0.516681
vt 0.296377 0.519837
vt 0.293872 0.522342
vt 0.290716 0.523950
vt 0.287218 0.524504
vt 0.283719 0.523950
vt 0.280563 0.522342
vt 0.278058 0.519837
vt 0.276450 0.516681
vt 0.275896 0.513183
vt 0.276450 0.509684
vt 0.278058 0.506528
vt 0.280563 0.504023
vt 0.283719 0.502415
vt 0.287218 0.501861
vt 0.176263 0.001992
vt 0.180283 0.001992
vt 0.180283 0.753613
vt 0.176263 0.753613
vt 0.183473 0.001992
vt 0.183473 0.753613
vt 0.189219 0.001992
vt 0.193238 0.001992
vt 0.193238 0.753613
vt 0.189219 0.753613
vt 0.197694 0.001992
vt 0.197694 0.753613
vt 0.202150 0.001992
vt 0.202150 0.753613
vt 0.206170 0.001992
vt 0.206170 0.753613
vt 0.212843 0.001992
vt 0.216033 0.001992
vt 0.216033 0.753613
vt 0.212843 0.753613
vt 0.220053 0.001992
vt 0.220053 0.753613
vt 0.224509 0.001992
vt 0.224509 0.753613
vt 0.228964 0.001992
vt 0.228964 0.753613
vt 0.232984 0.001992
vt 0.232984 0.753613
vt 0.236174 0.001992
vt 0.236174 0.753613
vt 0.136518 0.001992
vt 0.140537 0.001992
vt 0.140537 0.753613
vt 0.136518 0.753613
vt 0.144993 0.001992
vt 0.144993 0.753613
vt 0.149449 0.001992
vt 0.149449 0.753613
vt 0.153469 0.001992
vt 0.153469 0.753613
vt 0.160142 0.001992
vt 0.163332 0.001992
vt 0.163332 0.753613
vt 0.160142 0.753613
vt 0.167352 0.001992
vt 0.167352 0.753613
vt 0.171808 0.001992
vt 0.171808 0.753613
vt 0.446806 0.527946
vt 0.442786 0.529994
vt 0.438331 0.516280
vt 0.449996 0.524756
vt 0.452044 0.520736
vt 0.452750 0.516280
vt 0.452044 0.511825
vt 0.449996 0.507805
vt 0.446806 0.504615
vt 0.442786 0.502567
vt 0.438331 0.501861
vt 0.433875 0.502567
vt 0.429855 0.504615
vt 0.426665 0.507805
vt 0.424617 0.511825
vt 0.423911 0.516280
vt 0.424617 0.520736
vt 0.426665 0.524756
vt 0.429855 0.527946
vt 0.433875 0.529994
vt 0.438331 0.530700
vt 0.399315 0.529994
vt 0.395296 0.527946
vt 0.403771 0.516280
vt 0.392106 0.524756
vt 0.390057 0.520736
vt 0.389352 0.516280
vt 0.390057 0.511825
vt 0.392106 0.507805
vt 0.395296 0.504615
vt 0.399315 0.502567
vt 0.403771 0.501861
vt 0.408227 0.502567
vt 0.412247 0.504615
vt 0.415437 0.507805
vt 0.417485 0.511825
vt 0.418190 0.516280
vt 0.417485 0.520736
vt 0.415437 0.524756
vt 0.412247 0.527946
vt 0.408227 0.529994
vt 0.403771 0.530700
s 1
usemtl grate
f 1/1/1 2/2/2 3/3/2 4/4/1
f 2/2/2 5/5/3 6/6/3 3/3/2
f 5/7/3 7/8/4 8/9/4 6/10/3
f 7/8/4 9/11/5 10/12/5 8/9/4
f 9/11/5 11/13/6 12/14/6 10/12/5
f 11/13/6 13/15/7 14/16/7 12/14/6
f 13/17/7 15/18/8 16/19/8 14/20/7
f 15/18/8 17/21/9 18/22/9 16/19/8
f 17/21/9 19/23/10 20/24/10 18/22/9
f 19/23/10 21/25/11 22/26/11 20/24/10
f 21/25/11 23/27/12 24/28/12 22/26/11
f 23/27/12 25/29/13 26/30/13 24/28/12
f 25/31/13 27/32/14 28/33/14 26/34/13
f 27/32/14 29/35/15 30/36/15 28/33/14
f 29/35/15 31/37/16 32/38/16 30/36/15
f 31/37/16 33/39/17 34/40/17 32/38/16
f 33/41/17 35/42/18 36/43/18 34/44/17
f 35/42/18 37/45/19 38/46/19 36/43/18
f 37/45/19 39/47/20 40/48/20 38/46/19
f 39/47/20 1/1/1 4/4/1 40/48/20
f 2/49/21 1/50/21 41/51/21
f 5/52/21 2/49/21 41/51/21
f 7/53/21 5/52/21 41/51/21
f 9/54/21 7/53/21 41/51/21
f 11/55/21 9/54/21 41/51/21
f 13/56/21 11/55/21 41/51/21
f 15/57/21 13/56/21 41/51/21
f 17/58/21 15/57/21 41/51/21
f 19/59/21 17/58/21 41/51/21
f 21/60/21 19/59/21 41/51/21
f 23/61/21 21/60/21 41/51/21
f 25/62/21 23/61/21 41/51/21
f 27/63/21 25/62/21 41/51/21
f 29/64/21 27/63/21 41/51/21
f 31/65/21 29/64/21 41/51/21
f 33/66/21 31/65/21 41/51/21
f 35/67/21 33/66/21 41/51/21
f 37/68/21 35/67/21 41/51/21
f 39/69/21 37/68/21 41/51/21
f 1/50/21 39/69/21 41/51/21
f 4/70/22 3/71/22 42/72/22
f 3/71/22 6/73/22 42/72/22
f 6/73/22 8/74/22 42/72/22
f 8/74/22 10/75/22 42/72/22
f 10/75/22 12/76/22 42/72/22
f 12/76/22 14/77/22 42/72/22
f 14/77/22 16/78/22 42/72/22
f 16/78/22 18/79/22 42/72/22
f 18/79/22 20/80/22 42/72/22
f 20/80/22 22/81/22 42/72/22
f 22/81/22 24/82/22 42/72/22
f 24/82/22 26/83/22 42/72/22
f 26/83/22 28/84/22 42/72/22
f 28/84/22 30/85/22 42/72/22
f 30/85/22 32/86/22 42/72/22
f 32/86/22 34/87/22 42/72/22
f 34/87/22 36/88/22 42/72/22
f 36/88/22 38/89/22 42/72/22
f 38/89/22 40/90/22 42/72/22
f 40/90/22 4/70/22 42/72/22
f 46/91/23 43/92/23 44/93/24 45/94/24
f 45/94/24 44/93/24 47/95/25 48/96/25
f 48/97/25 47/98/25 49/99/26 50/100/26
f 50/100/26 49/99/26 51/101/20 52/102/20
f 52/102/20 51/101/20 53/103/27 54/104/27
f 54/104/27 53/103/27 55/105/28 56/106/28
f 56/107/28 55/108/28 57/109/29 58/110/29
f 58/110/29 57/109/29 59/111/30 60/112/30
f 60/112/30 59/111/30 61/113/22 62/114/22
f 63/115/31 64/116/31 62/114/22 61/113/22
f 65/117/32 66/118/32 64/116/31 63/115/31
f 67/119/33 68/120/33 66/118/32 65/117/32
f 69/121/34 70/122/34 68/123/33 67/124/33
f 71/125/10 72/126/10 70/122/34 69/121/34
f 73/127/35 74/128/35 72/126/10 71/125/10
f 75/129/36 76/130/36 74/128/35 73/127/35
f 77/131/37 78/132/37 76/133/36 75/134/36
f 79/135/38 80/136/38 78/132/37 77/131/37
f 81/137/21 82/138/21 80/136/38 79/135/38
f 82/138/21 81/137/21 43/92/23 46/91/23
f 44/139/5 43/140/5 83/141/5
f 47/142/5 44/139/5 83/141/5
f 49/143/5 47/142/5 83/141/5
f 51/144/5 49/143/5 83/141/5
f 53/145/5 51/144/5 83/141/5
f 55/146/5 53/145/5 83/141/5
f 57/147/5 55/146/5 83/141/5
f 59/148/5 57/147/5 83/141/5
f 61/149/5 59/148/5 83/141/5
f 63/150/5 61/149/5 83/141/5
f 65/151/5 63/150/5 83/141/5
f 67/152/5 65/151/5 83/141/5
f 69/153/5 67/152/5 83/141/5
f 71/154/5 69/153/5 83/141/5
f 73/155/5 71/154/5 83/141/5
f 75/156/5 73/155/5 83/141/5
f 77/157/5 75/156/5 83/141/5
f 79/158/5 77/157/5 83/141/5
f 81/159/5 79/158/5 83/141/5
f 43/140/5 81/159/5 83/141/5
f 46/160/15 45/161/15 84/162/15
f 45/161/15 48/163/15 84/162/15
f 48/163/15 50/164/15 84/162/15
f 50/164/15 52/165/15 84/162/15
f 52/165/15 54/166/15 84/162/15
f 54/166/15 56/167/15 84/162/15
f 56/167/15 58/168/15 84/162/15
f 58/168/15 60/169/15 84/162/15
f 60/169/15 62/170/15 84/162/15
f 62/170/15 64/171/15 84/162/15
f 64/171/15 66/172/15 84/162/15
f 66/172/15 68/173/15 84/162/15
f 68/173/15 70/174/15 84/162/15
f 70/174/15 72/175/15 84/162/15
f 72/175/15 74/176/15 84/162/15
f 74/176/15 76/177/15 84/162/15
f 76/177/15 78/178/15 84/162/15
f 78/178/15 80/179/15 84/162/15
f 80/179/15 82/180/15 84/162/15
f 82/180/15 46/160/15 84/162/15
f 88/181/23 85/182/23 86/183/24 87/184/24
f 87/184/24 86/183/24 89/185/25 90/186/25
f 90/187/25 89/188/25 91/189/26 92/190/26
f 92/190/26 91/189/26 93/191/20 94/192/20
f 94/192/20 93/191/20 95/193/27 96/194/27
f 96/194/27 95/193/27 97/195/28 98/196/28
f 98/197/28 97/198/28 99/199/29 100/200/29
f 100/200/29 99/199/29 101/201/30 102/202/30
f 102/202/30 101/201/30 103/203/22 104/204/22
f 105/205/31 106/206/31 104/204/22 103/203/22
f 107/207/32 108/208/32 106/206/31 105/205/31
f 109/209/33 110/210/33 108/208/32 107/207/32
f 111/211/34 112/212/34 110/213/33 109/214/33
f 113/215/10 114/216/10 112/212/34 111/211/34
f 115/217/35 116/218/35 114/216/10 113/215/10
f 117/219/36 118/220/36 116/218/35 115/217/35
f 119/221/37 120/222/37 118/223/36 117/224/36
f 121/225/38 122/226/38 120/222/37 119/221/37
f 123/227/21 124/228/21 122/226/38 121/225/38
f 124/228/21 123/227/21 85/182/23 88/181/23
f 86/229/5 85/230/5 125/231/5
f 89/232/5 86/229/5 125/231/5
f 91/233/5 89/232/5 125/231/5
f 93/234/5 91/233/5 125/231/5
f 95/235/5 93/234/5 125/231/5
f 97/236/5 95/235/5 125/231/5
f 99/237/5 97/236/5 125/231/5
f 101/238/5 99/237/5 125/231/5
f 103/239/5 101/238/5 125/231/5
f 105/240/5 103/239/5 125/231/5
f 107/241/5 105/240/5 125/231/5
f 109/242/5 107/241/5 125/231/5
f 111/243/5 109/242/5 125/231/5
f 113/244/5 111/243/5 125/231/5
f 115/245/5 113/244/5 125/231/5
f 117/246/5 115/245/5 125/231/5
f 119/247/5 117/246/5 125/231/5
f 121/248/5 119/247/5 125/231/5
f 123/249/5 121/248/5 125/231/5
f 85/230/5 123/249/5 125/231/5
f 88/250/15 87/251/15 126/252/15
f 87/251/15 90/253/15 126/252/15
f 90/253/15 92/254/15 126/252/15
f 92/254/15 94/255/15 126/252/15
f 94/255/15 96/256/15 126/252/15
f 96/256/15 98/257/15 126/252/15
f 98/257/15 100/258/15 126/252/15
f 100/258/15 102/259/15 126/252/15
f 102/259/15 104/260/15 126/252/15
f 104/260/15 106/261/15 126/252/15
f 106/261/15 108/262/15 126/252/15
f 108/262/15 110/263/15 126/252/15
f 110/263/15 112/264/15 126/252/15
f 112/264/15 114/265/15 126/252/15
f 114/265/15 116/266/15 126/252/15
f 116/266/15 118/267/15 126/252/15
f 118/267/15 120/268/15 126/252/15
f 120/268/15 122/269/15 126/252/15
f 122/269/15 124/270/15 126/252/15
f 124/270/15 88/250/15 126/252/15
f 130/271/23 127/272/23 128/273/24 129/274/24
f 129/274/24 128/273/24 131/275/25 132/276/25
f 132/277/25 131/278/25 133/279/26 134/280/26
f 134/280/26 133/279/26 135/281/20 136/282/20
f 136/282/20 135/281/20 137/283/27 138/284/27
f 138/284/27 137/283/27 139/285/28 140/286/28
f 140/287/28 139/288/28 141/289/29 142/290/29
f 142/290/29 141/289/29 143/291/30 144/292/30
f 144/292/30 143/291/30 145/293/22 146/294/22
f 147/295/31 148/296/31 146/294/22 145/293/22
f 149/297/32 150/298/32 148/296/31 147/295/31
f 151/299/33 152/300/33 150/298/32 149/297/32
f 153/301/34 154/302/34 152/303/33 151/304/33
f 155/305/10 156/306/10 154/302/34 153/301/34
f 157/307/35 158/308/35 156/306/10 155/305/10
f 159/309/36 160/310/36 158/308/35 157/307/35
f 161/311/37 162/312/37 160/313/36 159/314/36
f 163/315/38 164/316/38 162/312/37 161/311/37
f 165/317/21 166/318/21 164/316/38 163/315/38
f 166/318/21 165/317/21 127/272/23 130/271/23
f 128/319/5 127/320/5 167/321/5
f 131/322/5 128/319/5 167/321/5
f 133/323/5 131/322/5 167/321/5
f 135/324/5 133/323/5 167/321/5
f 137/325/5 135/324/5 167/321/5
f 139/326/5 137/325/5 167/321/5
f 141/327/5 139/326/5 167/321/5
f 143/328/5 141/327/5 167/321/5
f 145/329/5 143/328/5 167/321/5
f 147/330/5 145/329/5 167/321/5
f 149/331/5 147/330/5 167/321/5
f 151/332/5 149/331/5 167/321/5
f 153/333/5 151/332/5 167/321/5
f 155/334/5 153/333/5 167/321/5
f 157/335/5 155/334/5 167/321/5
f 159/336/5 157/335/5 167/321/5
f 161/337/5 159/336/5 167/321/5
f 163/338/5 161/337/5 167/321/5
f 165/339/5 163/338/5 167/321/5
f 127/320/5 165/339/5 167/321/5
f 130/340/15 129/341/15 168/342/15
f 129/341/15 132/343/15 168/342/15
f 132/343/15 134/344/15 168/342/15
f 134/344/15 136/345/15 168/342/15
f 136/345/15 138/346/15 168/342/15
f 138/346/15 140/347/15 168/342/15
f 140/347/15 142/348/15 168/342/15
f 142/348/15 144/349/15 168/342/15
f 144/349/15 146/350/15 168/342/15
f 146/350/15 148/351/15 168/342/15
f 148/351/15 150/352/15 168/342/15
f 150/352/15 152/353/15 168/342/15
f 152/353/15 154/354/15 168/342/15
f 154/354/15 156/355/15 168/342/15
f 156/355/15 158/356/15 168/342/15
f 158/356/15 160/357/15 168/342/15
f 160/357/15 162/358/15 168/342/15
f 162/358/15 164/359/15 168/342/15
f 164/359/15 166/360/15 168/342/15
f 166/360/15 130/340/15 168/342/15
f 172/361/23 169/362/23 170/363/24 171/364/24
f 171/364/24 170/363/24 173/365/25 174/366/25
f 174/367/25 173/368/25 175/369/26 176/370/26
f 176/370/26 175/369/26 177/371/20 178/372/20
f 178/372/20 177/371/20 179/373/27 180/374/27
f 180/374/27 179/373/27 181/375/28 182/376/28
f 182/377/28 181/378/28 183/379/29 184/380/29
f 184/380/29 183/379/29 185/381/30 186/382/30
f 186/382/30 185/381/30 187/383/22 188/384/22
f 189/385/31 190/386/31 188/384/22 187/383/22
f 191/387/32 192/388/32 190/386/31 189/385/31
f 193/389/33 194/390/33 192/388/32 191/387/32
f 195/391/34 196/392/34 194/393/33 193/394/33
f 197/395/10 198/396/10 196/392/34 195/391/34
f 199/397/35 200/398/35 198/396/10 197/395/10
f 201/399/36 202/400/36 200/398/35 199/397/35
f 203/401/37 204/402/37 202/403/36 201/404/36
f 205/405/38 206/406/38 204/402/37 203/401/37
f 207/407/21 208/408/21 206/406/38 205/405/38
f 208/408/21 207/407/21 169/362/23 172/361/23
f 170/409/5 169/410/5 209/411/5
f 173/412/5 170/409/5 209/411/5
f 175/413/5 173/412/5 209/411/5
f 177/414/5 175/413/5 209/411/5
f 179/415/5 177/414/5 209/411/5
f 181/416/5 179/415/5 209/411/5
f 183/417/5 181/416/5 209/411/5
f 185/418/5 183/417/5 209/411/5
f 187/419/5 185/418/5 209/411/5
f 189/420/5 187/419/5 209/411/5
f 191/421/5 189/420/5 209/411/5
f 193/422/5 191/421/5 209/411/5
f 195/423/5 193/422/5 209/411/5
f 197/424/5 195/423/5 209/411/5
f 199/425/5 197/424/5 209/411/5
f 201/426/5 199/425/5 209/411/5
f 203/427/5 201/426/5 209/411/5
f 205/428/5 203/427/5 209/411/5
f 207/429/5 205/428/5 209/411/5
f 169/410/5 207/429/5 209/411/5
f 172/430/15 171/431/15 210/432/15
f 171/431/15 174/433/15 210/432/15
f 174/433/15 176/434/15 210/432/15
f 176/434/15 178/435/15 210/432/15
f 178/435/15 180/436/15 210/432/15
f 180/436/15 182/437/15 210/432/15
f 182/437/15 184/438/15 210/432/15
f 184/438/15 186/439/15 210/432/15
f 186/439/15 188/440/15 210/432/15
f 188/440/15 190/441/15 210/432/15
f 190/441/15 192/442/15 210/432/15
f 192/442/15 194/443/15 210/432/15
f 194/443/15 196/444/15 210/432/15
f 196/444/15 198/445/15 210/432/15
f 198/445/15 200/446/15 210/432/15
f 200/446/15 202/447/15 210/432/15
f 202/447/15 204/448/15 210/432/15
f 204/448/15 206/449/15 210/432/15
f 206/449/15 208/450/15 210/432/15
f 208/450/15 172/430/15 210/432/15
f 214/451/23 211/452/23 212/453/24 213/454/24
f 213/454/24 212/453/24 215/455/25 216/456/25
f 216/457/25 215/458/25 217/459/26 218/460/26
f 218/460/26 217/459/26 219/461/20 220/462/20
f 220/462/20 219/461/20 221/463/27 222/464/27
f 222/464/27 221/463/27 223/465/28 224/466/28
f 224/467/28 223/468/28 225/469/29 226/470/29
f 226/470/29 225/469/29 227/471/30 228/472/30
f 228/472/30 227/471/30 229/473/22 230/474/22
f 231/475/31 232/476/31 230/474/22 229/473/22
f 233/477/32 234/478/32 232/476/31 231/475/31
f 235/479/33 236/480/33 234/478/32 233/477/32
f 237/481/34 238/482/34 236/483/33 235/484/33
f 239/485/10 240/486/10 238/482/34 237/481/34
f 241/487/35 242/488/35 240/486/10 239/485/10
f 243/489/36 244/490/36 242/488/35 241/487/35
f 245/491/37 246/492/37 244/493/36 243/494/36
f 247/495/38 248/496/38 246/492/37 245/491/37
f 249/497/21 250/498/21 248/496/38 247/495/38
f 250/498/21 249/497/21 211/452/23 214/451/23
f 212/499/5 211/500/5 251/501/5
f 215/502/5 212/499/5 251/501/5
f 217/503/5 215/502/5 251/501/5
f 219/504/5 217/503/5 251/501/5
f 221/505/5 219/504/5 251/501/5
f 223/506/5 221/505/5 251/501/5
f 225/507/5 223/506/5 251/501/5
f 227/508/5 225/507/5 251/501/5
f 229/509/5 227/508/5 251/501/5
f 231/510/5 229/509/5 251/501/5
f 233/511/5 231/510/5 251/501/5
f 235/512/5 233/511/5 251/501/5
f 237/513/5 235/512/5 251/501/5
f 239/514/5 237/513/5 251/501/5
f 241/515/5 239/514/5 251/501/5
f 243/516/5 241/515/5 251/501/5
f 245/517/5 243/516/5 251/501/5
f 247/518/5 245/517/5 251/501/5
f 249/519/5 247/518/5 251/501/5
f 211/500/5 249/519/5 251/501/5
f 214/520/15 213/521/15 252/522/15
f 213/521/15 216/523/15 252/522/15
f 216/523/15 218/524/15 252/522/15
f 218/524/15 220/525/15 252/522/15
f 220/525/15 222/526/15 252/522/15
f 222/526/15 224/527/15 252/522/15
f 224/527/15 226/528/15 252/522/15
f 226/528/15 228/529/15 252/522/15
f 228/529/15 230/530/15 252/522/15
f 230/530/15 232/531/15 252/522/15
f 232/531/15 234/532/15 252/522/15
f 234/532/15 236/533/15 252/522/15
f 236/533/15 238/534/15 252/522/15
f 238/534/15 240/535/15 252/522/15
f 240/535/15 242/536/15 252/522/15
f 242/536/15 244/537/15 252/522/15
f 244/537/15 246/538/15 252/522/15
f 246/538/15 248/539/15 252/522/15
f 248/539/15 250/540/15 252/522/15
f 250/540/15 214/520/15 252/522/15
f 256/541/23 253/542/23 254/543/24 255/544/24
f 255/544/24 254/543/24 257/545/25 258/546/25
f 258/547/25 257/548/25 259/549/26 260/550/26
f 260/550/26 259/549/26 261/551/20 262/552/20
f 262/552/20 261/551/20 263/553/27 264/554/27
f 264/554/27 263/553/27 265/555/28 266/556/28
f 266/557/28 265/558/28 267/559/29 268/560/29
f 268/560/29 267/559/29 269/561/30 270/562/30
f 270/562/30 269/561/30 271/563/22 272/564/22
f 273/565/31 274/566/31 272/564/22 271/563/22
f 275/567/32 276/568/32 274/566/31 273/565/31
f 277/569/33 278/570/33 276/568/32 275/567/32
f 279/571/34 280/572/34 278/573/33 277/574/33
f 281/575/10 282/576/10 280/572/34 279/571/34
f 283/577/35 284/578/35 282/576/10 281/575/10
f 285/579/36 286/580/36 284/578/35 283/577/35
f 287/581/37 288/582/37 286/583/36 285/584/36
f 289/585/38 290/586/38 288/582/37 287/581/37
f 291/587/21 292/588/21 290/586/38 289/585/38
f 292/588/21 291/587/21 253/542/23 256/541/23
f 254/589/5 253/590/5 293/591/5
f 257/592/5 254/589/5 293/591/5
f 259/593/5 257/592/5 293/591/5
f 261/594/5 259/593/5 293/591/5
f 263/595/5 261/594/5 293/591/5
f 265/596/5 263/595/5 293/591/5
f 267/597/5 265/596/5 293/591/5
f 269/598/5 267/597/5 293/591/5
f 271/599/5 269/598/5 293/591/5
f 273/600/5 271/599/5 293/591/5
f 275/601/5 273/600/5 293/591/5
f 277/602/5 275/601/5 293/591/5
f 279/603/5 277/602/5 293/591/5
f 281/604/5 279/603/5 293/591/5
f 283/605/5 281/604/5 293/591/5
f 285/606/5 283/605/5 293/591/5
f 287/607/5 285/606/5 293/591/5
f 289/608/5 287/607/5 293/591/5
f 291/609/5 289/608/5 293/591/5
f 253/590/5 291/609/5 293/591/5
f 256/610/15 255/611/15 294/612/15
f 255/611/15 258/613/15 294/612/15
f 258/613/15 260/614/15 294/612/15
f 260/614/15 262/615/15 294/612/15
f 262/615/15 264/616/15 294/612/15
f 264/616/15 266/617/15 294/612/15
f 266/617/15 268/618/15 294/612/15
f 268/618/15 270/619/15 294/612/15
f 270/619/15 272/620/15 294/612/15
f 272/620/15 274/621/15 294/612/15
f 274/621/15 276/622/15 294/612/15
f 276/622/15 278/623/15 294/612/15
f 278/623/15 280/624/15 294/612/15
f 280/624/15 282/625/15 294/612/15
f 282/625/15 284/626/15 294/612/15
f 284/626/15 286/627/15 294/612/15
f 286/627/15 288/628/15 294/612/15
f 288/628/15 290/629/15 294/612/15
f 290/629/15 292/630/15 294/612/15
f 292/630/15 256/610/15 294/612/15
f 298/631/23 295/632/23 296/633/24 297/634/24
f 297/634/24 296/633/24 299/635/25 300/636/25
f 300/637/25 299/638/25 301/639/26 302/640/26
f 302/640/26 301/639/26 303/641/20 304/642/20
f 304/642/20 303/641/20 305/643/27 306/644/27
f 306/644/27 305/643/27 307/645/28 308/646/28
f 308/647/28 307/648/28 309/649/29 310/650/29
f 310/650/29 309/649/29 311/651/30 312/652/30
f 312/652/30 311/651/30 313/653/22 314/654/22
f 315/655/31 316/656/31 314/654/22 313/653/22
f 317/657/32 318/658/32 316/656/31 315/655/31
f 319/659/33 320/660/33 318/658/32 317/657/32
f 321/661/34 322/662/34 320/663/33 319/664/33
f 323/665/10 324/666/10 322/662/34 321/661/34
f 325/667/35 326/668/35 324/666/10 323/665/10
f 327/669/36 328/670/36 326/668/35 325/667/35
f 329/671/37 330/672/37 328/673/36 327/674/36
f 331/675/38 332/676/38 330/672/37 329/671/37
f 333/677/21 334/678/21 332/676/38 331/675/38
f 334/678/21 333/677/21 295/632/23 298/631/23
f 296/679/5 295/680/5 335/681/5
f 299/682/5 296/679/5 335/681/5
f 301/683/5 299/682/5 335/681/5
f 303/684/5 301/683/5 335/681/5
f 305/685/5 303/684/5 335/681/5
f 307/686/5 305/685/5 335/681/5
f 309/687/5 307/686/5 335/681/5
f 311/688/5 309/687/5 335/681/5
f 313/689/5 311/688/5 335/681/5
f 315/690/5 313/689/5 335/681/5
f 317/691/5 315/690/5 335/681/5
f 319/692/5 317/691/5 335/681/5
f 321/693/5 319/692/5 335/681/5
f 323/694/5 321/693/5 335/681/5
f 325/695/5 323/694/5 335/681/5
f 327/696/5 325/695/5 335/681/5
f 329/697/5 327/696/5 335/681/5
f 331/698/5 329/697/5 335/681/5
f 333/699/5 331/698/5 335/681/5
f 295/680/5 333/699/5 335/681/5
f 298/700/15 297/701/15 336/702/15
f 297/701/15 300/703/15 336/702/15
f 300/703/15 302/704/15 336/702/15
f 302/704/15 304/705/15 336/702/15
f 304/705/15 306/706/15 336/702/15
f 306/706/15 308/707/15 336/702/15
f 308/707/15 310/708/15 336/702/15
f 310/708/15 312/709/15 336/702/15
f 312/709/15 314/710/15 336/702/15
f 314/710/15 316/711/15 336/702/15
f 316/711/15 318/712/15 336/702/15
f 318/712/15 320/713/15 336/702/15
f 320/713/15 322/714/15 336/702/15
f 322/714/15 324/715/15 336/702/15
f 324/715/15 326/716/15 336/702/15
f 326/716/15 328/717/15 336/702/15
f 328/717/15 330/718/15 336/702/15
f 330/718/15 332/719/15 336/702/15
f 332/719/15 334/720/15 336/702/15
f 334/720/15 298/700/15 336/702/15
f 340/721/23 337/722/23 338/723/24 339/724/24
f 339/724/24 338/723/24 341/725/25 342/726/25
f 342/727/25 341/728/25 343/729/26 344/730/26
f 344/730/26 343/729/26 345/731/20 346/732/20
f 346/732/20 345/731/20 347/733/27 348/734/27
f 348/734/27 347/733/27 349/735/28 350/736/28
f 350/737/28 349/738/28 351/739/29 352/740/29
f 352/740/29 351/739/29 353/741/30 354/742/30
f 354/742/30 353/741/30 355/743/22 356/744/22
f 357/745/31 358/746/31 356/744/22 355/743/22
f 359/747/32 360/748/32 358/746/31 357/745/31
f 361/749/33 362/750/33 360/748/32 359/747/32
f 363/751/34 364/752/34 362/753/33 361/754/33
f 365/755/10 366/756/10 364/752/34 363/751/34
f 367/757/35 368/758/35 366/756/10 365/755/10
f 369/759/36 370/760/36 368/758/35 367/757/35
f 371/761/37 372/762/37 370/763/36 369/764/36
f 373/765/38 374/766/38 372/762/37 371/761/37
f 375/767/21 376/768/21 374/766/38 373/765/38
f 376/768/21 375/767/21 337/722/23 340/721/23
f 338/769/5 337/770/5 377/771/5
f 341/772/5 338/769/5 377/771/5
f 343/773/5 341/772/5 377/771/5
f 345/774/5 343/773/5 377/771/5
f 347/775/5 345/774/5 377/771/5
f 349/776/5 347/775/5 377/771/5
f 351/777/5 349/776/5 377/771/5
f 353/778/5 351/777/5 377/771/5
f 355/779/5 353/778/5 377/771/5
f 357/780/5 355/779/5 377/771/5
f 359/781/5 357/780/5 377/771/5
f 361/782/5 359/781/5 377/771/5
f 363/783/5 361/782/5 377/771/5
f 365/784/5 363/783/5 377/771/5
f 367/785/5 365/784/5 377/771/5
f 369/786/5 367/785/5 377/771/5
f 371/787/5 369/786/5 377/771/5
f 373/788/5 371/787/5 377/771/5
f 375/789/5 373/788/5 377/771/5
f 337/770/5 375/789/5 377/771/5
f 340/790/15 339/791/15 378/792/15
f 339/791/15 342/793/15 378/792/15
f 342/793/15 344/794/15 378/792/15
f 344/794/15 346/795/15 378/792/15
f 346/795/15 348/796/15 378/792/15
f 348/796/15 350/797/15 378/792/15
f 350/797/15 352/798/15 378/792/15
f 352/798/15 354/799/15 378/792/15
f 354/799/15 356/800/15 378/792/15
f 356/800/15 358/801/15 378/792/15
f 358/801/15 360/802/15 378/792/15
f 360/802/15 362/803/15 378/792/15
f 362/803/15 364/804/15 378/792/15
f 364/804/15 366/805/15 378/792/15
f 366/805/15 368/806/15 378/792/15
f 368/806/15 370/807/15 378/792/15
f 370/807/15 372/808/15 378/792/15
f 372/808/15 374/809/15 378/792/15
f 374/809/15 376/810/15 378/792/15
f 376/810/15 340/790/15 378/792/15
f 382/811/23 379/812/23 380/813/24 381/814/24
f 381/814/24 380/813/24 383/815/25 384/816/25
f 384/817/25 383/818/25 385/819/26 386/820/26
f 386/820/26 385/819/26 387/821/20 388/822/20
f 388/822/20 387/821/20 389/823/27 390/824/27
f 390/824/27 389/823/27 391/825/28 392/826/28
f 392/827/28 391/828/28 393/829/29 394/830/29
f 394/830/29 393/829/29 395/831/30 396/832/30
f 396/832/30 395/831/30 397/833/22 398/834/22
f 399/835/31 400/836/31 398/834/22 397/833/22
f 401/837/32 402/838/32 400/836/31 399/835/31
f 403/839/33 404/840/33 402/838/32 401/837/32
f 405/841/34 406/842/34 404/843/33 403/844/33
f 407/845/10 408/846/10 406/842/34 405/841/34
f 409/847/35 410/848/35 408/846/10 407/845/10
f 411/849/36 412/850/36 410/848/35 409/847/35
f 413/851/37 414/852/37 412/853/36 411/854/36
f 415/855/38 416/856/38 414/852/37 413/851/37
f 417/857/21 418/858/21 416/856/38 415/855/38
f 418/858/21 417/857/21 379/812/23 382/811/23
f 380/859/5 379/860/5 419/861/5
f 383/862/5 380/859/5 419/861/5
f 385/863/5 383/862/5 419/861/5
f 387/864/5 385/863/5 419/861/5
f 389/865/5 387/864/5 419/861/5
f 391/866/5 389/865/5 419/861/5
f 393/867/5 391/866/5 419/861/5
f 395/868/5 393/867/5 419/861/5
f 397/869/5 395/868/5 419/861/5
f 399/870/5 397/869/5 419/861/5
f 401/871/5 399/870/5 419/861/5
f 403/872/5 401/871/5 419/861/5
f 405/873/5 403/872/5 419/861/5
f 407/874/5 405/873/5 419/861/5
f 409/875/5 407/874/5 419/861/5
f 411/876/5 409/875/5 419/861/5
f 413/877/5 411/876/5 419/861/5
f 415/878/5 413/877/5 419/861/5
f 417/879/5 415/878/5 419/861/5
f 379/860/5 417/879/5 419/861/5
f 382/880/15 381/881/15 420/882/15
f 381/881/15 384/883/15 420/882/15
f 384/883/15 386/884/15 420/882/15
f 386/884/15 388/885/15 420/882/15
f 388/885/15 390/886/15 420/882/15
f 390/886/15 392/887/15 420/882/15
f 392/887/15 394/888/15 420/882/15
f 394/888/15 396/889/15 420/882/15
f 396/889/15 398/890/15 420/882/15
f 398/890/15 400/891/15 420/882/15
f 400/891/15 402/892/15 420/882/15
f 402/892/15 404/893/15 420/882/15
f 404/893/15 406/894/15 420/882/15
f 406/894/15 408/895/15 420/882/15
f 408/895/15 410/896/15 420/882/15
f 410/896/15 412/897/15 420/882/15
f 412/897/15 414/898/15 420/882/15
f 414/898/15 416/899/15 420/882/15
f 416/899/15 418/900/15 420/882/15
f 418/900/15 382/880/15 420/882/15
f 424/901/23 421/902/23 422/903/24 423/904/24
f 423/904/24 422/903/24 425/905/25 426/906/25
f 426/907/25 425/908/25 427/909/26 428/910/26
f 428/910/26 427/909/26 429/911/20 430/912/20
f 430/912/20 429/911/20 431/913/27 432/914/27
f 432/914/27 431/913/27 433/915/28 434/916/28
f 434/917/28 433/918/28 435/919/29 436/920/29
f 436/920/29 435/919/29 437/921/30 438/922/30
f 438/922/30 437/921/30 439/923/22 440/924/22
f 441/925/31 442/926/31 440/924/22 439/923/22
f 443/927/32 444/928/32 442/926/31 441/925/31
f 445/929/33 446/930/33 444/928/32 443/927/32
f 447/931/34 448/932/34 446/933/33 445/934/33
f 449/935/10 450/936/10 448/932/34 447/931/34
f 451/937/35 452/938/35 450/936/10 449/935/10
f 453/939/36 454/940/36 452/938/35 451/937/35
f 455/941/37 456/942/37 454/943/36 453/944/36
f 457/945/38 458/946/38 456/942/37 455/941/37
f 459/947/21 460/948/21 458/946/38 457/945/38
f 460/948/21 459/947/21 421/902/23 424/901/23
f 422/949/5 421/950/5 461/951/5
f 425/952/5 422/949/5 461/951/5
f 427/953/5 425/952/5 461/951/5
f 429/954/5 427/953/5 461/951/5
f 431/955/5 429/954/5 461/951/5
f 433/956/5 431/955/5 461/951/5
f 435/957/5 433/956/5 461/951/5
f 437/958/5 435/957/5 461/951/5
f 439/959/5 437/958/5 461/951/5
f 441/960/5 439/959/5 461/951/5
f 443/961/5 441/960/5 461/951/5
f 445/962/5 443/961/5 461/951/5
f 447/963/5 445/962/5 461/951/5
f 449/964/5 447/963/5 461/951/5
f 451/965/5 449/964/5 461/951/5
f 453/966/5 451/965/5 461/951/5
f 455/967/5 453/966/5 461/951/5
f 457/968/5 455/967/5 461/951/5
f 459/969/5 457/968/5 461/951/5
f 421/950/5 459/969/5 461/951/5
f 424/970/15 423/971/15 462/972/15
f 423/971/15 426/973/15 462/972/15
f 426/973/15 428/974/15 462/972/15
f 428/974/15 430/975/15 462/972/15
f 430/975/15 432/976/15 462/972/15
f 432/976/15 434/977/15 462/972/15
f 434/977/15 436/978/15 462/972/15
f 436/978/15 438/979/15 462/972/15
f 438/979/15 440/980/15 462/972/15
f 440/980/15 442/981/15 462/972/15
f 442/981/15 444/982/15 462/972/15
f 444/982/15 446/983/15 462/972/15
f 446/983/15 448/984/15 462/972/15
f 448/984/15 450/985/15 462/972/15
f 450/985/15 452/986/15 462/972/15
f 452/986/15 454/987/15 462/972/15
f 454/987/15 456/988/15 462/972/15
f 456/988/15 458/989/15 462/972/15
f 458/989/15 460/990/15 462/972/15
f 460/990/15 424/970/15 462/972/15
f 466/991/23 463/992/23 464/993/24 465/994/24
f 465/994/24 464/993/24 467/995/25 468/996/25
f 468/997/25 467/998/25 469/999/26 470/1000/26
f 470/1000/26 469/999/26 471/1001/20 472/1002/20
f 472/1002/20 471/1001/20 473/1003/27 474/1004/27
f 474/1004/27 473/1003/27 475/1005/28 476/1006/28
f 476/1007/28 475/1008/28 477/1009/29 478/1010/29
f 478/1010/29 477/1009/29 479/1011/30 480/1012/30
f 480/1012/30 479/1011/30 481/1013/22 482/1014/22
f 483/1015/31 484/1016/31 482/1014/22 481/1013/22
f 485/1017/32 486/1018/32 484/1016/31 483/1015/31
f 487/1019/33 488/1020/33 486/1018/32 485/1017/32
f 489/1021/34 490/1022/34 488/1023/33 487/1024/33
f 491/1025/10 492/1026/10 490/1022/34 489/1021/34
f 493/1027/35 494/1028/35 492/1026/10 491/1025/10
f 495/1029/36 496/1030/36 494/1028/35 493/1027/35
f 497/1031/37 498/1032/37 496/1033/36 495/1034/36
f 499/1035/38 500/1036/38 498/1032/37 497/1031/37
f 501/1037/21 502/1038/21 500/1036/38 499/1035/38
f 502/1038/21 501/1037/21 463/992/23 466/991/23
f 464/1039/5 463/1040/5 503/1041/5
f 467/1042/5 464/1039/5 503/1041/5
f 469/1043/5 467/1042/5 503/1041/5
f 471/1044/5 469/1043/5 503/1041/5
f 473/1045/5 471/1044/5 503/1041/5
f 475/1046/5 473/1045/5 503/1041/5
f 477/1047/5 475/1046/5 503/1041/5
f 479/1048/5 477/1047/5 503/1041/5
f 481/1049/5 479/1048/5 503/1041/5
f 483/1050/5 481/1049/5 503/1041/5
f 485/1051/5 483/1050/5 503/1041/5
f 487/1052/5 485/1051/5 503/1041/5
f 489/1053/5 487/1052/5 503/1041/5
f 491/1054/5 489/1053/5 503/1041/5
f 493/1055/5 491/1054/5 503/1041/5
f 495/1056/5 493/1055/5 503/1041/5
f 497/1057/5 495/1056/5 503/1041/5
f 499/1058/5 497/1057/5 503/1041/5
f 501/1059/5 499/1058/5 503/1041/5
f 463/1040/5 501/1059/5 503/1041/5
f 466/1060/15 465/1061/15 504/1062/15
f 465/1061/15 468/1063/15 504/1062/15
f 468/1063/15 470/1064/15 504/1062/15
f 470/1064/15 472/1065/15 504/1062/15
f 472/1065/15 474/1066/15 504/1062/15
f 474/1066/15 476/1067/15 504/1062/15
f 476/1067/15 478/1068/15 504/1062/15
f 478/1068/15 480/1069/15 504/1062/15
f 480/1069/15 482/1070/15 504/1062/15
f 482/1070/15 484/1071/15 504/1062/15
f 484/1071/15 486/1072/15 504/1062/15
f 486/1072/15 488/1073/15 504/1062/15
f 488/1073/15 490/1074/15 504/1062/15
f 490/1074/15 492/1075/15 504/1062/15
f 492/1075/15 494/1076/15 504/1062/15
f 494/1076/15 496/1077/15 504/1062/15
f 496/1077/15 498/1078/15 504/1062/15
f 498/1078/15 500/1079/15 504/1062/15
f 500/1079/15 502/1080/15 504/1062/15
f 502/1080/15 466/1060/15 504/1062/15
f 508/1081/23 505/1082/23 506/1083/24 507/1084/24
f 507/1084/24 506/1083/24 509/1085/25 510/1086/25
f 510/1087/25 509/1088/25 511/1089/26 512/1090/26
f 512/1090/26 511/1089/26 513/1091/20 514/1092/20
f 514/1092/20 513/1091/20 515/1093/27 516/1094/27
f 516/1094/27 515/1093/27 517/1095/28 518/1096/28
f 518/1097/28 517/1098/28 519/1099/29 520/1100/29
f 520/1100/29 519/1099/29 521/1101/30 522/1102/30
f 522/1102/30 521/1101/30 523/1103/22 524/1104/22
f 525/1105/31 526/1106/31 524/1104/22 523/1103/22
f 527/1107/32 528/1108/32 526/1106/31 525/1105/31
f 529/1109/33 530/1110/33 528/1108/32 527/1107/32
f 531/1111/34 532/1112/34 530/1113/33 529/1114/33
f 533/1115/10 534/1116/10 532/1112/34 531/1111/34
f 535/1117/35 536/1118/35 534/1116/10 533/1115/10
f 537/1119/36 538/1120/36 536/1118/35 535/1117/35
f 539/1121/37 540/1122/37 538/1123/36 537/1124/36
f 541/1125/38 542/1126/38 540/1122/37 539/1121/37
f 543/1127/21 544/1128/21 542/1126/38 541/1125/38
f 544/1128/21 543/1127/21 505/1082/23 508/1081/23
f 506/1129/5 505/1130/5 545/1131/5
f 509/1132/5 506/1129/5 545/1131/5
f 511/1133/5 509/1132/5 545/1131/5
f 513/1134/5 511/1133/5 545/1131/5
f 515/1135/5 513/1134/5 545/1131/5
f 517/1136/5 515/1135/5 545/1131/5
f 519/1137/5 517/1136/5 545/1131/5
f 521/1138/5 519/1137/5 545/1131/5
f 523/1139/5 521/1138/5 545/1131/5
f 525/1140/5 523/1139/5 545/1131/5
f 527/1141/5 525/1140/5 545/1131/5
f 529/1142/5 527/1141/5 545/1131/5
f 531/1143/5 529/1142/5 545/1131/5
f 533/1144/5 531/1143/5 545/1131/5
f 535/1145/5 533/1144/5 545/1131/5
f 537/1146/5 535/1145/5 545/1131/5
f 539/1147/5 537/1146/5 545/1131/5
f 541/1148/5 539/1147/5 545/1131/5
f 543/1149/5 541/1148/5 545/1131/5
f 505/1130/5 543/1149/5 545/1131/5
f 508/1150/15 507/1151/15 546/1152/15
f 507/1151/15 510/1153/15 546/1152/15
f 510/1153/15 512/1154/15 546/1152/15
f 512/1154/15 514/1155/15 546/1152/15
f 514/1155/15 516/1156/15 546/1152/15
f 516/1156/15 518/1157/15 546/1152/15
f 518/1157/15 520/1158/15 546/1152/15
f 520/1158/15 522/1159/15 546/1152/15
f 522/1159/15 524/1160/15 546/1152/15
f 524/1160/15 526/1161/15 546/1152/15
f 526/1161/15 528/1162/15 546/1152/15
f 528/1162/15 530/1163/15 546/1152/15
f 530/1163/15 532/1164/15 546/1152/15
f 532/1164/15 534/1165/15 546/1152/15
f 534/1165/15 536/1166/15 546/1152/15
f 536/1166/15 538/1167/15 546/1152/15
f 538/1167/15 540/1168/15 546/1152/15
f 540/1168/15 542/1169/15 546/1152/15
f 542/1169/15 544/1170/15 546/1152/15
f 544/1170/15 508/1150/15 546/1152/15
f 547/1171/1 548/1172/2 549/1173/2 550/1174/1
f 548/1172/2 551/1175/3 552/1176/3 549/1173/2
f 551/1177/3 553/1178/4 554/1179/4 552/1180/3
f 553/1178/4 555/1181/5 556/1182/5 554/1179/4
f 555/1181/5 557/1183/6 558/1184/6 556/1182/5
f 557/1183/6 559/1185/7 560/1186/7 558/1184/6
f 559/1187/7 561/1188/8 562/1189/8 560/1190/7
f 561/1188/8 563/1191/9 564/1192/9 562/1189/8
f 563/1191/9 565/1193/10 566/1194/10 564/1192/9
f 565/1193/10 567/1195/11 568/1196/11 566/1194/10
f 567/1195/11 569/1197/12 570/1198/12 568/1196/11
f 569/1197/12 571/1199/13 572/1200/13 570/1198/12
f 571/1201/13 573/1202/14 574/1203/14 572/1204/13
f 573/1202/14 575/1205/15 576/1206/15 574/1203/14
f 575/1205/15 577/1207/16 578/1208/16 576/1206/15
f 577/1207/16 579/1209/17 580/1210/17 578/1208/16
f 579/1211/17 581/1212/18 582/1213/18 580/1214/17
f 581/1212/18 583/1215/19 584/1216/19 582/1213/18
f 583/1215/19 585/1217/20 586/1218/20 584/1216/19
f 585/1217/20 547/1171/1 550/1174/1 586/1218/20
f 548/1219/21 547/1220/21 587/1221/21
f 551/1222/21 548/1219/21 587/1221/21
f 553/1223/21 551/1222/21 587/1221/21
f 555/1224/21 553/1223/21 587/1221/21
f 557/1225/21 555/1224/21 587/1221/21
f 559/1226/21 557/1225/21 587/1221/21
f 561/1227/21 559/1226/21 587/1221/21
f 563/1228/21 561/1227/21 587/1221/21
f 565/1229/21 563/1228/21 587/1221/21
f 567/1230/21 565/1229/21 587/1221/21
f 569/1231/21 567/1230/21 587/1221/21
f 571/1232/21 569/1231/21 587/1221/21
f 573/1233/21 571/1232/21 587/1221/21
f 575/1234/21 573/1233/21 587/1221/21
f 577/1235/21 575/1234/21 587/1221/21
f 579/1236/21 577/1235/21 587/1221/21
f 581/1237/21 579/1236/21 587/1221/21
f 583/1238/21 581/1237/21 587/1221/21
f 585/1239/21 583/1238/21 587/1221/21
f 547/1220/21 585/1239/21 587/1221/21
f 550/1240/22 549/1241/22 588/1242/22
f 549/1241/22 552/1243/22 588/1242/22
f 552/1243/22 554/1244/22 588/1242/22
f 554/1244/22 556/1245/22 588/1242/22
f 556/1245/22 558/1246/22 588/1242/22
f 558/1246/22 560/1247/22 588/1242/22
f 560/1247/22 562/1248/22 588/1242/22
f 562/1248/22 564/1249/22 588/1242/22
f 564/1249/22 566/1250/22 588/1242/22
f 566/1250/22 568/1251/22 588/1242/22
f 568/1251/22 570/1252/22 588/1242/22
f 570/1252/22 572/1253/22 588/1242/22
f 572/1253/22 574/1254/22 588/1242/22
f 574/1254/22 576/1255/22 588/1242/22
f 576/1255/22 578/1256/22 588/1242/22
f 578/1256/22 580/1257/22 588/1242/22
f 580/1257/22 582/1258/22 588/1242/22
f 582/1258/22 584/1259/22 588/1242/22
f 584/1259/22 586/1260/22 588/1242/22
f 586/1260/22 550/1240/22 588/1242/22
