# Created by Open3D 
# object name: Pot054_collision_17_0
# number of vertices: 34
# number of triangles: 64
v 0.119456 -0.00153959 0.158268
v 0.0983564 2.06e-05 0.0182913
v 0.0894099 -0.0408211 0.0182913
v 0.113214 -0.0409535 0.159371
v 0.118779 2.06e-05 0.10506
v 0.122458 -0.00153959 0.161738
v 0.12713 -0.00153959 0.165296
v 0.116027 -0.0141174 0.0366905
v 0.110925 2.06e-05 0.0182913
v 0.117776 2.06e-05 0.0416788
v 0.118263 -0.0153346 0.0463548
v 0.11581 -0.0173962 0.0374529
v 0.127962 2.06e-05 0.10506
v 0.136138 -0.00153959 0.166066
v 0.137694 -0.00153959 0.163452
v 0.103411 -0.0408211 0.0182913
v 0.110528 -0.0408211 0.0397692
v 0.131617 -0.0409535 0.163452
v 0.118467 -0.0408211 0.0772792
v 0.134623 -0.0296952 0.162421
v 0.120998 -0.0409535 0.165398
v 0.124799 -0.0409535 0.166385
v 0.132719 -0.00153959 0.16656
v 0.124775 2.06e-05 0.0763062
v 0.124316 -0.0141174 0.0763062
v 0.110859 -0.0395738 0.0389559
v 0.123404 -0.0193093 0.0750283
v 0.115937 -0.0409535 0.162043
v 0.134875 -0.0289813 0.165616
v 0.131244 -0.0409535 0.165848
v 0.132719 -0.021048 0.166578
v 0.110015 -0.0161308 0.0182913
v 0.13654 -0.01808 0.163452
v 0.13758 -0.0061961 0.163452
f 1 2 3
f 4 1 3
f 1 5 2
f 6 1 4
f 6 5 1
f 5 6 7
f 8 9 10
f 8 11 12
f 11 8 10
f 13 14 15
f 16 17 18
f 16 4 3
f 16 18 4
f 17 19 18
f 19 20 18
f 21 22 7
f 22 23 7
f 23 5 7
f 23 13 5
f 13 23 14
f 24 13 15
f 24 11 10
f 11 24 25
f 16 26 17
f 11 26 12
f 26 19 17
f 19 27 20
f 27 11 25
f 27 26 11
f 26 27 19
f 28 6 4
f 6 28 7
f 28 21 7
f 29 30 18
f 20 29 18
f 30 31 22
f 31 23 22
f 29 31 30
f 23 31 14
f 31 29 14
f 26 32 12
f 32 26 16
f 32 8 12
f 8 32 9
f 33 29 20
f 33 27 25
f 27 33 20
f 34 33 25
f 34 24 15
f 24 34 25
f 33 34 29
f 14 34 15
f 29 34 14
f 9 24 10
f 24 9 2
f 5 24 2
f 13 24 5
f 30 28 18
f 18 28 4
f 21 28 22
f 28 30 22
f 9 32 2
f 2 32 3
f 32 16 3
