# Created by Open3D 
# object name: Pot054_collision_10_0
# number of vertices: 34
# number of triangles: 64
v -0.0662407 -0.101786 0.159119
v -0.114053 -0.0343412 0.105072
v -0.0662407 -0.0986022 0.105072
v -0.117345 -0.0343412 0.159763
v -0.123727 -0.0343412 0.105072
v -0.134996 -0.0343412 0.165727
v -0.140319 -0.0351155 0.144004
v -0.140319 -0.035279 0.140541
v -0.140319 -0.038144 0.138523
v -0.0716724 -0.119285 0.16242
v -0.0662407 -0.109417 0.105072
v -0.0662407 -0.122237 0.163462
v -0.114901 -0.079502 0.165456
v -0.107519 -0.0881315 0.165811
v -0.140319 -0.051127 0.143625
v -0.108944 -0.0814722 0.166483
v -0.140319 -0.0493159 0.139541
v -0.113095 -0.0605782 0.105072
v -0.0978464 -0.0831134 0.105072
v -0.0662407 -0.111284 0.165691
v -0.124655 -0.0343412 0.16542
v -0.128752 -0.0343412 0.166462
v -0.0662407 -0.117117 0.166564
v -0.0767088 -0.102852 0.105072
v -0.125203 -0.0606126 0.165778
v -0.0717594 -0.119337 0.165661
v -0.08358 -0.11143 0.165661
v -0.0962637 -0.100482 0.163462
v -0.0802514 -0.100202 0.105072
v -0.0812232 -0.109193 0.16651
v -0.125783 -0.0497762 0.166596
v -0.130892 -0.048262 0.165594
v -0.0833842 -0.111293 0.161372
v -0.140319 -0.0492686 0.146733
f 2 1 3
f 4 1 2
f 6 5 7
f 5 8 7
f 9 8 5
f 10 11 12
f 14 13 15
f 16 13 14
f 17 18 19
f 15 17 19
f 18 17 5
f 17 9 5
f 21 20 4
f 20 1 4
f 22 20 21
f 20 22 23
f 10 24 11
f 16 25 13
f 23 26 12
f 26 10 12
f 26 27 10
f 29 28 19
f 28 15 19
f 28 14 15
f 28 27 14
f 30 26 23
f 26 30 27
f 27 30 14
f 30 16 14
f 22 31 23
f 31 30 23
f 30 31 16
f 31 25 16
f 31 22 6
f 31 6 32
f 25 31 32
f 24 33 29
f 33 28 29
f 28 33 27
f 27 33 10
f 33 24 10
f 13 34 15
f 25 34 13
f 34 25 32
f 6 34 32
f 34 6 7
f 5 22 2
f 22 4 2
f 22 5 6
f 22 21 4
f 20 11 3
f 1 20 3
f 11 20 12
f 20 23 12
f 11 24 3
f 24 2 3
f 24 5 2
f 24 29 19
f 18 24 19
f 24 18 5
f 34 17 15
f 8 34 7
f 9 34 8
f 17 34 9
