# Created by Open3D 
# object name: Pot054_collision_9_0
# number of vertices: 34
# number of triangles: 64
v -0.0662334 -0.09862 0.105072
v -0.00057457 -0.12152 0.159426
v -0.0662334 -0.1018 0.159119
v -0.00057457 -0.119064 0.105072
v -0.00057457 -0.123149 0.161409
v -0.00057457 -0.127832 0.165054
v -0.0662334 -0.111292 0.165693
v -0.00057457 -0.129814 0.165898
v -0.00057457 -0.13297 0.166513
v -0.0662334 -0.117126 0.166573
v -0.0237763 -0.13297 0.166624
v -0.0662334 -0.103762 0.161053
v -0.00057457 -0.136933 0.166169
v -0.0082292 -0.138938 0.165476
v -0.032742 -0.135169 0.165669
v -0.00057457 -0.139005 0.165554
v -0.0662334 -0.120907 0.166079
v -0.0640675 -0.123414 0.165741
v -0.0662334 -0.122236 0.163469
v -0.0559919 -0.127229 0.162415
v -0.0473057 -0.130921 0.162096
v -0.0562072 -0.115548 0.105072
v -0.0476785 -0.13104 0.165506
v -0.00594759 -0.128267 0.105072
v -0.00057457 -0.138859 0.162156
v -0.00057457 -0.128271 0.105072
v -0.0325588 -0.135123 0.162418
v -0.0338475 -0.123759 0.105072
v -0.0297149 -0.124909 0.105072
v -0.0415985 -0.129007 0.166597
v -0.0642153 -0.123486 0.163469
v -0.0662334 -0.109425 0.105072
v -0.00594759 -0.138843 0.162361
v -0.0178312 -0.13751 0.163469
f 2 1 3
f 4 1 2
f 5 2 3
f 6 7 8
f 9 10 11
f 10 9 7
f 7 9 8
f 6 12 7
f 12 6 5
f 12 5 3
f 13 9 11
f 15 14 11
f 13 14 16
f 14 13 11
f 18 17 19
f 21 20 22
f 23 20 21
f 25 24 26
f 23 27 15
f 27 23 21
f 28 21 22
f 28 27 21
f 27 28 29
f 17 30 10
f 10 30 11
f 30 15 11
f 30 23 15
f 30 17 18
f 23 30 18
f 31 18 19
f 20 31 22
f 31 23 18
f 23 31 20
f 32 31 19
f 31 32 22
f 33 24 25
f 33 25 16
f 14 33 16
f 24 34 29
f 34 27 29
f 33 34 24
f 34 33 14
f 34 14 15
f 27 34 15
f 5 25 2
f 25 4 2
f 4 25 26
f 25 13 16
f 25 6 8
f 6 25 5
f 9 25 8
f 13 25 9
f 17 12 3
f 1 17 3
f 32 17 1
f 17 10 7
f 17 32 19
f 12 17 7
f 28 4 26
f 4 28 1
f 28 32 1
f 32 28 22
f 24 28 26
f 28 24 29
