# Created by Open3D 
# object name: Pot054_collision_18_0
# number of vertices: 34
# number of triangles: 64
v 0.0780347 -0.101501 0.105072
v 0.0938124 -0.101501 0.163467
v 0.137775 -0.0600494 0.141056
v 0.110823 -0.043567 0.157726
v 0.111892 -0.0409651 0.105072
v 0.0619303 -0.101501 0.105072
v 0.113206 -0.0409651 0.15937
v 0.110236 -0.0657213 0.105078
v 0.119792 -0.0460325 0.105072
v 0.0947665 -0.0864769 0.105072
v 0.09059 -0.0909102 0.105072
v 0.137775 -0.0599723 0.146032
v 0.122814 -0.0636529 0.165443
v 0.115211 -0.0760102 0.165702
v 0.122814 -0.0537374 0.166603
v 0.131241 -0.0409651 0.165853
v 0.121106 -0.0409651 0.165473
v 0.0655833 -0.101501 0.159431
v 0.0690915 -0.101501 0.161536
v 0.107355 -0.0702346 0.105078
v 0.101026 -0.089384 0.166503
v 0.0869407 -0.101501 0.166494
v 0.0670385 -0.0990773 0.15787
v 0.130847 -0.044213 0.165564
v 0.121589 -0.0409651 0.105072
v 0.137775 -0.0437329 0.141423
v 0.137775 -0.0458844 0.14649
v 0.115935 -0.0409651 0.162051
v 0.124796 -0.0409651 0.166401
v 0.0779029 -0.101501 0.165378
v 0.107103 -0.0875615 0.165558
v 0.137775 -0.0456947 0.13949
v 0.0994849 -0.0957998 0.16575
v 0.137775 -0.0576609 0.139411
f 2 1 3
f 4 5 6
f 4 7 5
f 9 8 10
f 8 9 3
f 11 10 3
f 1 11 3
f 12 2 3
f 14 13 15
f 13 16 15
f 12 13 14
f 17 18 19
f 10 20 3
f 20 8 3
f 8 20 10
f 21 14 15
f 22 21 15
f 18 23 6
f 23 4 6
f 4 23 7
f 23 18 7
f 24 12 16
f 13 24 16
f 24 13 12
f 26 25 16
f 12 27 16
f 27 26 16
f 18 28 7
f 17 28 18
f 16 29 15
f 29 22 15
f 30 17 19
f 30 29 17
f 29 30 22
f 21 31 14
f 31 12 14
f 32 25 26
f 33 22 2
f 12 33 2
f 31 33 12
f 33 21 22
f 33 31 21
f 32 34 25
f 25 34 9
f 9 34 3
f 11 25 10
f 5 25 6
f 25 9 10
f 25 1 6
f 25 11 1
f 29 25 5
f 7 29 5
f 28 29 7
f 25 29 16
f 29 28 17
f 1 30 6
f 30 1 2
f 22 30 2
f 30 18 6
f 18 30 19
f 34 27 12
f 34 12 3
f 27 34 26
f 34 32 26
