# Created by Open3D 
# object name: Pot054_collision_25_0
# number of vertices: 34
# number of triangles: 64
v -0.0495989 0.108081 0.105072
v -0.100384 0.0640792 0.105072
v -0.0495989 0.084838 0.0182913
v -0.0747326 0.0640792 0.0182913
v -0.0985665 0.0640792 0.0392091
v -0.107502 0.0640792 0.0763006
v -0.105167 0.0672154 0.0743214
v -0.0870557 0.0788583 0.039001
v -0.0905998 0.0640792 0.0182913
v -0.0802082 0.0769923 0.0182913
v -0.0831927 0.0829547 0.0386782
v -0.0666876 0.106363 0.0802675
v -0.0714472 0.10681 0.105072
v -0.0495989 0.118418 0.105072
v -0.0495989 0.114486 0.0743214
v -0.0947577 0.0864978 0.105072
v -0.0909909 0.0867745 0.0790783
v -0.0908766 0.0906634 0.105072
v -0.103043 0.0711176 0.0781014
v -0.0918454 0.0838857 0.0723421
v -0.0871038 0.0828962 0.050732
v -0.087874 0.0885394 0.0743214
v -0.107063 0.0672393 0.0854662
v -0.106858 0.0709314 0.105072
v -0.11107 0.0640792 0.105072
v -0.0495989 0.106762 0.0406575
v -0.0634143 0.0988083 0.0386443
v -0.0495989 0.0991648 0.0182913
v -0.0652691 0.106194 0.0746569
v -0.0637994 0.091206 0.0182913
v -0.0672713 0.0987445 0.0468075
v -0.0712366 0.102697 0.0746017
v -0.0679392 0.0953237 0.037438
v -0.071721 0.10308 0.0787555
f 1 2 3
f 2 4 3
f 5 6 7
f 5 8 9
f 8 10 9
f 10 8 11
f 12 13 14
f 15 12 14
f 17 16 18
f 19 20 7
f 19 17 20
f 19 16 17
f 21 17 22
f 17 21 20
f 8 21 11
f 21 8 5
f 21 5 7
f 20 21 7
f 23 19 7
f 6 23 7
f 16 23 24
f 19 23 16
f 23 6 25
f 24 23 25
f 27 26 28
f 29 12 15
f 30 27 28
f 30 10 11
f 26 31 15
f 31 29 15
f 31 26 27
f 21 31 11
f 31 21 22
f 29 32 12
f 31 32 29
f 32 31 22
f 30 33 27
f 33 31 27
f 33 30 11
f 31 33 11
f 12 34 13
f 32 34 12
f 13 34 18
f 34 17 18
f 17 34 22
f 34 32 22
f 5 2 25
f 4 5 9
f 5 4 2
f 6 5 25
f 2 16 25
f 16 1 14
f 1 16 2
f 13 16 14
f 16 13 18
f 16 24 25
f 1 26 14
f 26 1 3
f 28 26 3
f 26 15 14
f 30 28 3
f 4 30 3
f 30 4 9
f 10 30 9
