# Created by Open3D 
# object name: Pot054_collision_0_7
# number of vertices: 34
# number of triangles: 64
v 0.106946 0.0254384 0.0149878
v 0.105528 0.0347628 0.0182913
v 0.111003 0.0086666 0.0182913
v 0.101413 0.0347628 0.0102023
v 0.0854172 0.0347628 -0.00223704
v 0.0370369 0.0347628 -0.00223704
v 0.0370369 -0.0349449 -0.00223704
v 0.106196 0.00570431 0.00828234
v 0.107838 -0.0124506 0.0123715
v 0.102498 -0.0101527 0.00355012
v 0.106979 -0.0242235 0.014813
v 0.105448 -0.0349449 0.0182913
v 0.110329 -0.0141169 0.0182913
v 0.108567 0.00964677 0.0129141
v 0.102781 -0.0170901 0.00514109
v 0.0876203 -0.0349449 -0.00209271
v 0.096059 -0.0141169 -0.00157192
v 0.0914398 -0.0349449 -0.00118036
v 0.0962045 0.0347628 0.00299235
v 0.0953357 0.0216702 -0.00115446
v 0.0930789 0.0116289 -0.00221494
v 0.0982995 0.00570431 -0.00047075
v 0.109644 0.00570431 0.014608
v 0.0976578 -0.019595 0.000504825
v 0.102977 -0.0344306 0.0123741
v 0.0990174 0.0274859 0.00301561
v 0.0930572 -0.016099 -0.00214361
v 0.0962113 0.0086666 -0.00158197
v 0.0993519 -0.0349449 0.00645111
v 0.102607 0.00964677 0.00344563
v 0.102759 0.00570431 0.00326679
v 0.102639 0.0280304 0.00855009
v 0.0370369 -0.0349449 0.0182913
v 0.0370369 0.0347628 0.0182913
f 1 2 3
f 2 1 4
f 6 5 7
f 8 9 10
f 12 11 13
f 11 9 13
f 14 1 3
f 9 15 10
f 11 15 9
f 16 17 18
f 19 20 5
f 20 21 5
f 5 21 7
f 17 22 10
f 23 14 3
f 13 23 3
f 9 23 13
f 8 23 9
f 14 23 8
f 24 17 10
f 15 24 10
f 17 24 18
f 25 11 12
f 19 26 20
f 26 19 4
f 27 16 7
f 21 27 7
f 16 27 17
f 27 21 17
f 28 21 20
f 22 28 20
f 21 28 17
f 28 22 17
f 29 25 12
f 24 29 18
f 29 24 15
f 29 15 11
f 25 29 11
f 30 22 20
f 26 30 20
f 30 14 8
f 22 31 10
f 30 31 22
f 31 8 10
f 31 30 8
f 14 32 1
f 30 32 14
f 32 30 26
f 1 32 4
f 32 26 4
f 6 33 34
f 33 6 7
f 2 12 3
f 12 13 3
f 12 2 34
f 33 12 34
f 2 19 34
f 19 2 4
f 19 6 34
f 19 5 6
f 29 33 7
f 29 12 33
f 16 29 7
f 29 16 18
