# Created by Open3D 
# object name: Pot054_collision_0_1
# number of vertices: 34
# number of triangles: 64
v -0.0930582 0.00964677 -0.00223704
v -0.037038 0.0349352 -0.00223704
v -0.0883684 0.0349352 -0.0020225
v -0.037038 -0.0347664 -0.00223704
v -0.0864508 -0.0347664 -0.0022243
v -0.0953857 -0.0210979 -0.00118812
v -0.0989967 -0.0277957 0.00304777
v -0.102738 -0.00618842 0.00328287
v -0.0956033 0.0191762 -0.00133782
v -0.0962015 0.0037113 -0.00158499
v -0.106806 -0.0270769 0.0153535
v -0.106964 -0.0306219 0.0182913
v -0.110982 -0.00906359 0.0182913
v -0.105512 -0.0347664 0.0182913
v -0.0977813 -0.0347664 0.00482948
v -0.0910487 -0.0347664 -0.00129761
v -0.0930799 -0.016099 -0.0021215
v -0.0983006 -0.00618842 -0.0004587
v -0.0914479 0.0349352 -0.00119797
v -0.101101 0.0165842 0.00305128
v -0.0993478 0.0349352 0.00645397
v -0.103499 0.0175753 0.00617645
v -0.107404 0.0207336 0.0140816
v -0.110395 0.013611 0.0182913
v -0.105453 0.0349352 0.0182913
v -0.109634 -0.00618842 0.014608
v -0.106762 -0.0101527 0.00997629
v -0.102608 -0.0259879 0.00762525
v -0.102521 0.00964677 0.00354007
v -0.107415 0.0144714 0.0117717
v -0.105196 -0.00618842 0.00678531
v -0.0992251 0.013611 0.000836385
v -0.037038 -0.0347664 0.0182913
v -0.037038 0.0349352 0.0182913
f 2 1 3
f 1 2 4
f 5 1 4
f 6 7 8
f 1 9 3
f 9 1 10
f 11 12 13
f 12 11 14
f 11 15 14
f 16 15 7
f 6 16 7
f 17 1 5
f 16 17 5
f 17 16 6
f 1 17 10
f 17 6 10
f 18 6 8
f 6 18 10
f 9 19 3
f 21 20 22
f 19 20 21
f 20 19 9
f 23 24 25
f 21 23 25
f 23 21 22
f 24 26 13
f 26 11 13
f 11 26 27
f 15 28 7
f 11 28 15
f 28 11 27
f 7 28 8
f 20 29 22
f 30 23 22
f 23 30 24
f 30 26 24
f 29 30 22
f 26 31 27
f 28 31 8
f 31 28 27
f 31 29 8
f 30 31 26
f 31 30 29
f 32 18 8
f 29 32 8
f 32 9 10
f 18 32 10
f 32 20 9
f 32 29 20
f 33 2 34
f 2 33 4
f 12 24 13
f 24 33 34
f 25 24 34
f 33 24 14
f 24 12 14
f 33 16 4
f 16 5 4
f 16 33 14
f 15 16 14
f 19 25 34
f 19 2 3
f 2 19 34
f 19 21 25
