# Created by Open3D 
# object name: Pot054_collision_0_6
# number of vertices: 34
# number of triangles: 64
v 0.0866343 -0.0349449 -0.00222274
v 0.0370369 -0.0857048 -0.00222725
v 0.0370369 -0.0349449 -0.00223704
v 0.0634736 -0.0914414 0.0182913
v 0.0460389 -0.0995224 0.0145226
v 0.0370369 -0.104653 0.0182913
v 0.0614397 -0.0913434 0.0150401
v 0.0390672 -0.103073 0.0153274
v 0.0370369 -0.0972715 0.00510199
v 0.09303 -0.0427379 0.00308193
v 0.0993519 -0.0349449 0.00645111
v 0.0912918 -0.0349449 -0.00124975
v 0.0910233 -0.0535742 0.00710179
v 0.102846 -0.0395796 0.0152109
v 0.105448 -0.0349449 0.0182913
v 0.0946016 -0.0585948 0.0182913
v 0.0678676 -0.0858545 0.0142976
v 0.0833772 -0.0520386 -0.00109167
v 0.0752527 -0.0576909 -0.00197783
v 0.0534674 -0.0774795 -0.00218681
v 0.0561647 -0.0800715 -0.00131069
v 0.0795488 -0.0758676 0.0144051
v 0.0804298 -0.0766627 0.0182913
v 0.0915997 -0.0602938 0.0142041
v 0.0950149 -0.0556108 0.0149999
v 0.0370369 -0.090851 -0.00102375
v 0.0594494 -0.0874336 0.00691793
v 0.0713263 -0.0676342 -0.00098115
v 0.0747415 -0.0709886 0.00340343
v 0.0868577 -0.0552623 0.00326076
v 0.0760466 -0.0724044 0.00603981
v 0.0415796 -0.0953621 0.00489845
v 0.0571654 -0.0852881 0.00315225
v 0.0370369 -0.0349449 0.0182913
f 1 2 3
f 5 4 6
f 4 5 7
f 8 6 9
f 8 5 6
f 11 10 12
f 10 11 13
f 14 11 15
f 16 14 15
f 11 14 13
f 17 4 7
f 18 1 12
f 18 19 1
f 10 18 12
f 1 20 2
f 19 20 1
f 20 21 2
f 22 16 23
f 22 24 16
f 4 22 23
f 17 22 4
f 24 25 16
f 25 14 16
f 25 24 13
f 14 25 13
f 21 26 2
f 5 27 7
f 27 17 7
f 27 22 17
f 18 28 19
f 28 20 19
f 20 28 21
f 21 28 29
f 30 10 13
f 30 18 10
f 24 30 13
f 28 30 29
f 30 28 18
f 22 31 24
f 30 31 29
f 31 30 24
f 31 27 29
f 27 31 22
f 26 32 9
f 32 27 5
f 32 8 9
f 8 32 5
f 33 26 21
f 33 32 26
f 32 33 27
f 33 21 29
f 27 33 29
f 34 11 3
f 11 34 15
f 11 1 3
f 1 11 12
f 16 34 6
f 34 16 15
f 4 16 6
f 16 4 23
f 6 26 9
f 26 34 3
f 34 26 6
f 2 26 3
