# Created by Open3D 
# object name: Pot054_collision_13_0
# number of vertices: 34
# number of triangles: 64
v 0.137694 -0.00152931 0.163468
v 0.127912 -0.00152931 0.105072
v 0.137736 0.0381824 0.137275
v 0.137736 0.0492884 0.145499
v 0.12809 0.0076827 0.105072
v 0.137736 0.0514574 0.140806
v 0.115135 0.0563966 0.105072
v 0.123497 0.0563966 0.130506
v 0.137337 0.0096646 0.163468
v 0.107572 0.0563966 0.160943
v 0.12713 -0.00152931 0.165307
v 0.114527 0.0563966 0.165602
v 0.13614 -0.00152931 0.166072
v 0.11885 -0.00091687 0.15755
v 0.105771 0.0563966 0.156405
v 0.106022 0.0563966 0.159183
v 0.118734 -0.00152931 0.105072
v 0.104874 0.0563966 0.105072
v 0.137736 0.0478452 0.137461
v 0.12749 0.0136227 0.105072
v 0.123206 0.0364358 0.105072
v 0.125695 0.0563966 0.163468
v 0.132721 -0.00152931 0.166566
v 0.132721 0.020558 0.166589
v 0.126779 0.0433257 0.166608
v 0.120841 0.0563966 0.166584
v 0.135397 0.0215503 0.166024
v 0.130842 0.0436319 0.165554
v 0.119461 -0.00152931 0.158279
v 0.124303 0.0563966 0.166072
v 0.127201 0.0523874 0.165801
v 0.129108 -0.00152931 0.165939
v 0.134889 0.0283608 0.165638
v 0.122456 -0.00152931 0.161745
f 1 2 3
f 4 1 3
f 2 5 3
f 6 7 8
f 4 9 1
f 10 11 12
f 9 13 1
f 15 14 16
f 17 14 18
f 14 15 18
f 19 5 20
f 5 19 3
f 19 20 21
f 7 19 21
f 6 19 7
f 6 22 4
f 22 6 8
f 23 13 24
f 25 23 24
f 23 25 26
f 23 26 12
f 13 27 24
f 25 27 28
f 27 25 24
f 27 13 9
f 29 14 17
f 14 29 16
f 25 30 26
f 4 31 28
f 22 31 4
f 30 31 22
f 31 25 28
f 31 30 25
f 11 32 12
f 32 23 12
f 33 4 28
f 27 33 28
f 33 9 4
f 33 27 9
f 10 34 11
f 34 10 16
f 29 34 16
f 5 17 18
f 7 5 18
f 20 5 21
f 5 7 21
f 17 5 2
f 19 6 4
f 19 4 3
f 30 7 18
f 26 30 12
f 15 30 18
f 7 30 8
f 30 10 12
f 30 15 16
f 10 30 16
f 30 22 8
f 34 17 2
f 1 34 2
f 34 29 17
f 13 34 1
f 23 34 13
f 34 32 11
f 32 34 23
