# Created by Open3D 
# object name: Pot054_collision_23_0
# number of vertices: 34
# number of triangles: 64
v -0.194516 0.0365766 0.148806
v -0.19101 0.037383 0.145227
v -0.191454 0.037383 0.154778
v -0.175258 0.037383 0.154243
v -0.172082 0.037383 0.151394
v -0.169791 0.0056972 0.150461
v -0.173475 0.037383 0.145244
v -0.176308 0.00371995 0.143832
v -0.180267 0.037383 0.143546
v -0.1951 0.0254977 0.15472
v -0.198343 -0.017087 0.150243
v -0.198174 0.00832735 0.153668
v -0.199074 0.0056972 0.147966
v -0.18819 0.0254977 0.143569
v -0.183252 -0.0259886 0.143751
v -0.174336 -0.0259886 0.145672
v -0.194214 0.00891665 0.157573
v -0.171492 0.037383 0.147625
v -0.198257 0.0208763 0.149173
v -0.197509 0.00767601 0.146038
v -0.19844 -0.0155983 0.148798
v -0.193629 -0.0141095 0.144682
v -0.177355 -0.0259886 0.15421
v -0.173512 -0.0259886 0.150653
v -0.190168 5.02377e-06 0.143729
v -0.180267 0.037383 0.156203
v -0.195655 -0.0141095 0.155206
v -0.188187 -0.0259886 0.156575
v -0.170545 0.0056972 0.145837
v -0.194061 0.03024 0.145731
v -0.193799 -0.0259886 0.145913
v -0.180267 0.00669126 0.156721
v -0.195175 -0.0259886 0.151854
v -0.184233 0.00767601 0.157362
f 2 1 3
f 5 4 6
f 7 8 9
f 1 10 3
f 11 12 13
f 14 2 9
f 16 15 8
f 8 15 9
f 15 14 9
f 10 17 3
f 17 10 12
f 18 5 6
f 10 19 12
f 19 10 1
f 12 19 13
f 19 20 13
f 21 11 13
f 20 21 13
f 21 20 22
f 23 24 6
f 25 15 22
f 15 25 14
f 20 25 22
f 14 25 20
f 17 26 3
f 11 27 12
f 27 17 12
f 17 27 28
f 29 18 6
f 29 24 16
f 24 29 6
f 18 29 7
f 29 16 8
f 7 29 8
f 19 30 20
f 14 30 2
f 30 14 20
f 30 1 2
f 30 19 1
f 21 31 11
f 15 31 22
f 31 21 22
f 23 32 28
f 26 32 4
f 4 32 6
f 32 23 6
f 31 33 11
f 27 33 28
f 33 27 11
f 34 17 28
f 32 34 28
f 34 26 17
f 34 32 26
f 2 26 9
f 26 2 3
f 18 26 5
f 26 4 5
f 26 7 9
f 26 18 7
f 24 33 16
f 33 23 28
f 33 15 16
f 23 33 24
f 33 31 15
