# Created by Open3D 
# object name: Pot054_collision_20_0
# number of vertices: 34
# number of triangles: 64
v -0.106893 0.0550729 0.157671
v -0.111833 0.0410092 0.105078
v -0.102317 0.0609013 0.105078
v -0.112614 0.0609013 0.105078
v -0.119511 0.0466185 0.105078
v -0.139419 0.0596667 0.141005
v -0.139419 0.0571488 0.139644
v -0.139419 0.0602684 0.143656
v -0.124019 0.0609013 0.166028
v -0.12194 0.0609013 0.133848
v -0.105226 0.0609013 0.159406
v -0.113976 0.0410092 0.158785
v -0.121596 0.0410092 0.105078
v -0.139419 0.0597797 0.146494
v -0.130935 0.0477976 0.165642
v -0.139419 0.0569949 0.148031
v -0.110791 0.0469486 0.157803
v -0.132762 0.0410092 0.163467
v -0.139419 0.0440003 0.143656
v -0.139419 0.0455932 0.140047
v -0.128759 0.0453148 0.166492
v -0.120841 0.0609013 0.166582
v -0.128759 0.0410092 0.166618
v -0.117005 0.0609013 0.166296
v -0.127146 0.0562004 0.165763
v -0.122483 0.0410092 0.165606
v -0.112294 0.0609013 0.164823
v -0.114161 0.0609013 0.165714
v -0.107129 0.0609013 0.161346
v -0.131843 0.0410092 0.166058
v -0.139419 0.0456926 0.146976
v -0.139419 0.0492757 0.138999
v -0.115738 0.0410092 0.160831
v -0.139419 0.0493458 0.14788
f 1 2 3
f 4 5 6
f 5 7 6
f 8 9 10
f 4 8 10
f 8 4 6
f 11 1 3
f 11 12 1
f 13 7 5
f 8 14 9
f 15 14 16
f 17 12 2
f 1 17 2
f 12 17 1
f 13 18 19
f 20 13 19
f 21 22 9
f 22 21 23
f 24 22 23
f 14 25 9
f 25 14 15
f 25 21 9
f 21 25 15
f 26 27 28
f 27 26 29
f 24 26 28
f 26 24 23
f 21 30 23
f 30 21 15
f 30 15 16
f 18 31 19
f 30 31 18
f 13 32 7
f 20 32 13
f 26 33 29
f 33 11 29
f 33 12 11
f 34 30 16
f 34 31 30
f 13 4 3
f 2 13 3
f 4 13 5
f 4 24 3
f 22 24 9
f 9 24 10
f 24 4 10
f 24 11 3
f 11 24 29
f 24 27 29
f 27 24 28
f 33 13 2
f 12 33 2
f 33 26 23
f 33 18 13
f 30 33 23
f 33 30 18
f 14 34 16
f 7 34 6
f 31 34 19
f 34 8 6
f 34 14 8
f 34 20 19
f 32 34 7
f 34 32 20
