# Created by Open3D 
# object name: Pot054_collision_2_0
# number of vertices: 34
# number of triangles: 64
v 0.044526 -0.110526 0.105072
v 0.044526 -0.087663 0.0182913
v -0.00012078 -0.11903 0.105072
v -0.00012078 -0.0985225 0.0182913
v 0.044526 -0.116901 0.0763006
v 0.0240119 -0.123137 0.0778551
v 0.044526 -0.120261 0.105072
v 0.044526 -0.107575 0.0348727
v 0.0422218 -0.110742 0.0432802
v 0.044526 -0.101815 0.0182913
v 0.0405535 -0.103603 0.0182913
v 0.0257513 -0.125691 0.105072
v 0.0218137 -0.126529 0.105072
v 0.041598 -0.117048 0.0723421
v 0.0178323 -0.124277 0.0802675
v 0.0423081 -0.108113 0.0339807
v 0.0235356 -0.115082 0.0388991
v 0.0266625 -0.115398 0.0438089
v 0.0184267 -0.126899 0.105072
v -0.00012078 -0.125576 0.0802675
v -0.00012078 -0.128237 0.105072
v 0.0217918 -0.109064 0.0182913
v 0.0257513 -0.121632 0.0723421
v 0.0194406 -0.11115 0.0229209
v 0.0178892 -0.109791 0.0182913
v -0.00012078 -0.111146 0.0182913
v 0.0178323 -0.115602 0.0371662
v -0.00012078 -0.116746 0.0366905
v -0.00012078 -0.117842 0.0406575
v 0.0178323 -0.117445 0.0446159
v -0.00012078 -0.124686 0.0743214
v 0.0208959 -0.1154 0.0378203
v 0.0184387 -0.123345 0.0742746
v 0.0209615 -0.118011 0.0494111
f 1 2 3
f 2 4 3
f 6 5 7
f 8 5 9
f 11 10 8
f 12 6 7
f 12 13 6
f 5 14 9
f 14 5 6
f 13 15 6
f 16 11 8
f 16 8 9
f 17 16 9
f 18 17 9
f 14 18 9
f 19 15 13
f 20 19 21
f 19 20 15
f 16 22 11
f 22 16 17
f 23 14 6
f 23 18 14
f 25 24 26
f 24 27 26
f 22 24 25
f 24 22 17
f 27 28 26
f 28 27 29
f 29 30 31
f 27 30 29
f 32 24 17
f 24 32 27
f 32 30 27
f 30 33 31
f 33 20 31
f 20 33 15
f 15 33 6
f 34 23 6
f 33 34 6
f 34 33 30
f 32 34 30
f 34 32 17
f 18 34 17
f 23 34 18
f 7 10 1
f 1 10 2
f 10 5 8
f 5 10 7
f 21 19 3
f 19 1 3
f 19 7 1
f 19 12 7
f 12 19 13
f 22 26 4
f 22 4 2
f 10 22 2
f 22 10 11
f 22 25 26
f 28 21 3
f 4 28 3
f 26 28 4
f 28 20 21
f 28 29 31
f 20 28 31
