# Created by Open3D 
# object name: Pot054_collision_26_0
# number of vertices: 34
# number of triangles: 64
v -0.0443882 -0.11019 0.105072
v -0.00012078 -0.119032 0.105072
v -0.0443882 -0.0880528 0.0182913
v -0.00012078 -0.0985253 0.0182913
v -0.00012078 -0.125573 0.0802675
v -0.00012078 -0.121533 0.0584748
v -0.00198404 -0.12446 0.0723421
v -0.00012078 -0.128237 0.105072
v -0.00594453 -0.128265 0.105072
v -0.00594453 -0.125593 0.0802675
v -0.03385 -0.123757 0.105072
v -0.0297119 -0.12491 0.105072
v -0.0297119 -0.121606 0.0763006
v -0.0246139 -0.122936 0.0794054
v -0.0336724 -0.120714 0.0782841
v -0.0443882 -0.119952 0.105072
v -0.00537689 -0.123759 0.069093
v -0.0443882 -0.116827 0.0781779
v -0.0443882 -0.115803 0.0723421
v -0.0317094 -0.119111 0.0663705
v -0.0443882 -0.109854 0.044497
v -0.0279223 -0.115199 0.0423989
v -0.0257514 -0.121618 0.0723421
v -0.0290424 -0.112215 0.0333607
v -0.025682 -0.10824 0.0182913
v -0.0443882 -0.101817 0.0182913
v -0.00468359 -0.119202 0.046111
v -0.00012078 -0.117295 0.038674
v -0.00594453 -0.117828 0.0406575
v -0.0443882 -0.107865 0.0369708
v -0.00406828 -0.115156 0.0307018
v -0.00012078 -0.111145 0.0182913
v -0.00500424 -0.111224 0.0182913
v -0.0257514 -0.114867 0.0397485
f 1 2 3
f 2 4 3
f 6 5 7
f 5 8 9
f 10 5 9
f 5 10 7
f 12 11 13
f 12 14 9
f 14 10 9
f 14 12 13
f 15 11 16
f 11 15 13
f 10 17 7
f 18 15 16
f 15 18 19
f 20 15 19
f 21 20 19
f 20 21 22
f 20 22 13
f 15 20 13
f 14 23 10
f 23 17 10
f 23 14 13
f 22 23 13
f 25 24 26
f 27 28 6
f 28 27 29
f 27 6 7
f 17 27 7
f 29 27 22
f 27 23 22
f 23 27 17
f 24 30 26
f 21 30 22
f 30 24 22
f 28 31 32
f 31 33 32
f 31 28 29
f 33 34 25
f 31 34 33
f 24 34 22
f 34 24 25
f 34 29 22
f 34 31 29
f 11 8 2
f 1 11 2
f 8 11 9
f 16 11 1
f 11 12 9
f 8 28 2
f 28 4 2
f 4 28 32
f 5 28 8
f 28 5 6
f 33 4 32
f 4 33 3
f 33 26 3
f 33 25 26
f 26 30 3
f 30 16 1
f 30 1 3
f 30 18 16
f 30 21 19
f 18 30 19
