# Created by Open3D 
# object name: Pot054_collision_0_3
# number of vertices: 34
# number of triangles: 64
v -0.037038 -0.0370892 -0.00223704
v 0.0370369 -0.0856554 -0.00222928
v 0.0370369 -0.0370892 -0.00223704
v -0.037038 -0.0856469 -0.00222876
v 0.0158354 -0.0933364 -0.00214059
v 0.0370369 -0.090851 -0.00102375
v 0.0158354 -0.0961027 -0.00149556
v -0.00198001 -0.0965383 -0.00159202
v -0.00198001 -0.102942 0.00332708
v -0.0239284 -0.0953839 -0.00099923
v -0.037038 -0.0967881 0.00472185
v -0.0245375 -0.0995006 0.00280261
v -0.0054713 -0.0933255 -0.00221393
v 0.0198052 -0.109286 0.0179382
v 0.0370369 -0.104653 0.0182913
v -0.00500362 -0.111197 0.0182913
v 0.0178149 -0.107908 0.0136154
v 0.0228506 -0.107386 0.0145447
v 0.0370369 -0.099023 0.00736464
v -0.00198001 -0.10768 0.0106495
v -0.037038 -0.0883302 -0.00178355
v -0.00593898 -0.102855 0.00344161
v -0.0237217 -0.108529 0.0182913
v -0.0242329 -0.107298 0.0147266
v -0.037038 -0.104468 0.0182913
v 0.0178149 -0.100176 0.00221586
v 0.0370369 -0.0957287 0.00307298
v -0.0257339 -0.102811 0.00767951
v -0.00593898 -0.108801 0.0129141
v 0.0204469 -0.103421 0.00667278
v -0.0230148 -0.103138 0.00715705
v 0.0158354 -0.103759 0.00614932
v 0.0370369 -0.0370892 0.0182913
v -0.037038 -0.0370892 0.0182913
f 2 1 3
f 1 2 4
f 5 2 6
f 7 5 6
f 8 7 9
f 5 7 8
f 11 10 12
f 2 13 4
f 5 13 2
f 13 5 8
f 10 13 8
f 14 15 16
f 17 14 16
f 18 19 15
f 14 18 15
f 18 14 17
f 20 17 16
f 21 10 11
f 13 21 4
f 21 13 10
f 22 8 9
f 22 10 8
f 10 22 12
f 20 22 9
f 23 24 16
f 24 23 25
f 27 26 6
f 26 7 6
f 7 26 9
f 28 11 12
f 11 28 25
f 28 24 25
f 29 22 20
f 24 29 16
f 29 20 16
f 30 27 19
f 30 26 27
f 18 30 19
f 30 18 17
f 29 31 22
f 22 31 12
f 31 28 12
f 28 31 24
f 31 29 24
f 26 32 9
f 30 32 26
f 32 20 9
f 20 32 17
f 32 30 17
f 3 1 33
f 1 34 33
f 27 3 33
f 2 27 6
f 15 27 33
f 27 2 3
f 19 27 15
f 21 25 34
f 21 1 4
f 1 21 34
f 21 11 25
f 23 15 33
f 34 23 33
f 15 23 16
f 25 23 34
