# Created by Open3D 
# object name: Pot054_collision_28_0
# number of vertices: 34
# number of triangles: 64
v 0.110895 0.0424364 0.105063
v 0.0428724 0.110735 0.105072
v 0.120813 0.0424364 0.105072
v 0.0886405 0.0424364 0.0182913
v 0.0428724 0.0886209 0.0182913
v 0.114443 0.058086 0.105072
v 0.11091 0.0591558 0.0783733
v 0.0985967 0.0823855 0.105072
v 0.11714 0.0424364 0.0753938
v 0.0694795 0.0868672 0.0182913
v 0.0844596 0.072383 0.0182913
v 0.0871185 0.0769754 0.0348302
v 0.0428762 0.109661 0.0416598
v 0.0428724 0.116745 0.074436
v 0.0428724 0.102368 0.0182913
v 0.0516079 0.106769 0.0424328
v 0.098448 0.0770041 0.0766956
v 0.102823 0.0589265 0.0433757
v 0.0911162 0.0750154 0.0406405
v 0.110106 0.0424364 0.0426579
v 0.0492581 0.0997467 0.0182913
v 0.0534923 0.113165 0.0763006
v 0.0428724 0.120493 0.105072
v 0.077105 0.102612 0.105072
v 0.0754418 0.0910356 0.042161
v 0.0894854 0.0793366 0.048585
v 0.0795883 0.097183 0.0802675
v 0.103289 0.0556942 0.0377948
v 0.102396 0.0424364 0.0182913
v 0.0695863 0.09499 0.0402752
v 0.0942709 0.0821888 0.0763027
v 0.0742478 0.100874 0.0777978
v 0.0754571 0.0989291 0.0717603
v 0.0568969 0.111195 0.0752324
f 2 1 3
f 4 2 5
f 4 1 2
f 7 6 3
f 6 7 8
f 9 7 3
f 11 10 12
f 14 13 15
f 13 16 15
f 13 14 16
f 7 17 8
f 18 17 7
f 19 11 12
f 19 17 18
f 9 20 7
f 16 21 15
f 22 14 23
f 24 22 23
f 14 22 16
f 10 25 12
f 25 19 12
f 19 25 26
f 27 24 8
f 28 20 29
f 11 28 29
f 28 18 7
f 20 28 7
f 19 28 11
f 28 19 18
f 30 25 10
f 21 30 10
f 30 21 16
f 17 31 8
f 31 27 8
f 31 19 26
f 19 31 17
f 25 31 26
f 27 32 24
f 33 31 25
f 31 33 27
f 33 32 27
f 30 33 25
f 33 30 16
f 34 22 24
f 32 34 24
f 33 34 32
f 22 34 16
f 34 33 16
f 14 2 23
f 2 14 5
f 14 15 5
f 2 24 23
f 24 2 3
f 6 24 3
f 24 6 8
f 20 4 29
f 1 20 3
f 4 20 1
f 20 9 3
f 15 21 5
f 21 4 5
f 4 21 29
f 21 11 29
f 21 10 11
