# Created by Open3D 
# object name: Pot054_collision_0_0
# number of vertices: 34
# number of triangles: 64
v -0.0772223 -0.0537376 -0.0021426
v -0.0910487 -0.0347664 -0.00129761
v -0.037038 -0.0347664 -0.00223704
v -0.0554479 -0.0755082 -0.00218982
v -0.037038 -0.0856469 -0.00222876
v -0.0874025 -0.0443715 -0.00115597
v -0.0962581 -0.0347664 0.00304539
v -0.0440278 -0.087695 -0.00115798
v -0.037038 -0.0902772 -0.00123571
v -0.037038 -0.0968446 0.00486131
v -0.045197 -0.0922092 0.00318742
v -0.0751123 -0.0634957 -0.00088067
v -0.0561658 -0.0799626 -0.00126649
v -0.0476605 -0.0993264 0.0147708
v -0.037038 -0.103099 0.014606
v -0.0498358 -0.0994135 0.0182913
v -0.037038 -0.104468 0.0182913
v -0.0990184 -0.0477912 0.0148954
v -0.0988444 -0.051102 0.0182913
v -0.105512 -0.0347664 0.0182913
v -0.0638879 -0.0799408 0.00269008
v -0.0638227 -0.0837961 0.0064859
v -0.0785927 -0.0668501 0.003524
v -0.0493028 -0.0932602 0.00709376
v -0.102967 -0.0347664 0.0126998
v -0.091057 -0.0477258 0.00304375
v -0.0834436 -0.0640185 0.0066125
v -0.0949724 -0.055589 0.0150983
v -0.0672814 -0.0873683 0.0149336
v -0.0763196 -0.0803546 0.0182913
v -0.0861626 -0.0702044 0.0182913
v -0.0941023 -0.0487931 0.00793119
v -0.0833783 -0.0717509 0.014602
v -0.037038 -0.0347664 0.0182913
f 1 2 3
f 4 3 5
f 4 1 3
f 1 6 2
f 6 7 2
f 8 4 5
f 9 8 5
f 9 10 11
f 8 9 11
f 4 12 1
f 12 6 1
f 8 13 4
f 13 12 4
f 15 14 10
f 16 14 17
f 14 15 17
f 18 19 20
f 21 22 23
f 12 21 23
f 13 21 12
f 22 21 11
f 21 8 11
f 21 13 8
f 24 22 11
f 10 24 11
f 14 24 10
f 25 18 20
f 26 7 6
f 27 26 23
f 12 26 6
f 26 12 23
f 18 28 19
f 30 29 16
f 29 14 16
f 24 29 22
f 29 24 14
f 28 31 19
f 32 28 18
f 25 32 18
f 32 26 27
f 28 32 27
f 32 25 7
f 26 32 7
f 33 28 27
f 33 31 28
f 33 27 23
f 22 33 23
f 29 33 22
f 31 33 30
f 33 29 30
f 34 15 3
f 3 15 5
f 15 34 17
f 15 9 5
f 9 15 10
f 25 34 3
f 34 25 20
f 2 25 3
f 7 25 2
f 34 31 17
f 31 34 20
f 31 16 17
f 19 31 20
f 31 30 16
