# Created by Open3D 
# object name: Pot054_collision_7_0
# number of vertices: 34
# number of triangles: 64
v -0.00058107 0.118982 0.105072
v -0.00058107 0.12102 0.159427
v -0.0670592 0.0985543 0.105072
v -0.0670592 0.10105 0.159397
v -0.0257536 0.13524 0.166043
v -0.00058107 0.138514 0.165555
v -0.0237752 0.132474 0.166625
v -0.0226428 0.126418 0.105072
v -0.0321248 0.134539 0.161391
v -0.0455571 0.11996 0.105072
v -0.00058107 0.132474 0.166513
v -0.00058107 0.129313 0.165899
v -0.0670592 0.109803 0.165555
v -0.00058107 0.127334 0.165055
v -0.0471385 0.130389 0.162795
v -0.00980926 0.138217 0.163669
v -0.00058107 0.128191 0.105072
v -0.0670592 0.106685 0.163796
v -0.0670592 0.103022 0.161277
v -0.00058107 0.122651 0.161409
v -0.0670592 0.114941 0.166507
v -0.047542 0.130495 0.165447
v -0.0559958 0.126761 0.162398
v -0.00058107 0.138369 0.162126
v -0.0257536 0.135909 0.163464
v -0.00842308 0.13844 0.165471
v -0.049387 0.118526 0.105072
v -0.0574438 0.122567 0.166556
v -0.0670592 0.120187 0.166037
v -0.0326259 0.134649 0.165646
v -0.0642933 0.122972 0.163464
v -0.0670592 0.109179 0.105072
v -0.0670592 0.121431 0.163464
v -0.0641306 0.122906 0.165742
f 1 2 3
f 2 4 3
f 6 5 7
f 9 8 10
f 12 11 13
f 11 6 7
f 14 12 13
f 15 9 10
f 8 16 17
f 18 14 13
f 14 18 19
f 20 14 19
f 20 19 4
f 20 4 2
f 21 11 7
f 11 21 13
f 15 22 9
f 23 22 15
f 16 24 17
f 25 8 9
f 25 16 8
f 26 5 6
f 24 26 6
f 26 24 16
f 25 26 16
f 27 15 10
f 27 23 15
f 21 28 29
f 28 21 7
f 5 28 7
f 30 28 5
f 28 30 22
f 26 30 5
f 30 26 25
f 22 30 9
f 30 25 9
f 31 32 33
f 31 27 32
f 27 31 23
f 31 22 23
f 28 34 29
f 34 28 22
f 31 34 22
f 29 34 33
f 34 31 33
f 19 21 4
f 4 21 3
f 21 18 13
f 21 32 3
f 32 21 33
f 21 29 33
f 18 21 19
f 17 24 1
f 1 24 2
f 24 20 2
f 11 24 6
f 24 11 12
f 14 24 12
f 20 24 14
f 8 27 10
f 27 1 3
f 27 17 1
f 27 8 17
f 32 27 3
