# Created by Open3D 
# object name: Pot054_collision_11_0
# number of vertices: 34
# number of triangles: 64
v 0.169944 0.0440881 0.153964
v 0.169944 0.0472321 0.14573
v 0.169803 -0.00717967 0.149178
v 0.169944 0.0393596 0.154521
v 0.198233 -0.0212034 0.149221
v 0.198156 -0.00866127 0.153641
v 0.199046 -0.00421015 0.147991
v 0.195068 -0.025995 0.154681
v 0.19136 -0.0379067 0.154705
v 0.194202 -0.00921609 0.157571
v 0.169944 0.038582 0.14367
v 0.173348 -0.0379067 0.145203
v 0.180268 -0.0379067 0.143554
v 0.171354 -0.0379067 0.147506
v 0.197502 -0.00519999 0.146043
v 0.190925 -0.0379067 0.145267
v 0.194461 -0.0369064 0.148888
v 0.17195 -0.0379067 0.151446
v 0.184227 0.0047026 0.143375
v 0.190168 0.0225281 0.144152
v 0.181681 0.0430709 0.145838
v 0.191143 0.0327249 0.14575
v 0.196053 0.0146052 0.145907
v 0.175208 -0.0379067 0.154317
v 0.188186 -0.0170823 0.143509
v 0.188186 0.0294612 0.156316
v 0.18225 -0.00668475 0.157049
v 0.195504 0.015595 0.155067
v 0.190217 0.0354465 0.1536
v 0.18328 0.0439284 0.14959
v 0.180268 -0.0379067 0.156221
v 0.181286 0.0430962 0.153342
v 0.198363 0.0167425 0.150292
v 0.194389 0.0321344 0.149603
f 1 2 3
f 4 1 3
f 6 5 7
f 9 8 10
f 8 6 10
f 8 5 6
f 12 11 13
f 14 11 12
f 2 11 3
f 11 14 3
f 5 15 7
f 15 5 16
f 16 17 9
f 5 17 16
f 17 8 9
f 8 17 5
f 18 4 3
f 14 18 3
f 11 19 13
f 19 11 20
f 21 11 2
f 11 21 20
f 21 22 20
f 23 15 20
f 22 23 20
f 15 23 7
f 18 24 4
f 25 19 20
f 15 25 20
f 25 15 16
f 25 16 13
f 19 25 13
f 26 27 10
f 27 26 4
f 26 1 4
f 6 28 10
f 28 26 10
f 26 28 29
f 30 21 2
f 31 9 10
f 27 31 10
f 31 27 4
f 24 31 4
f 26 32 1
f 32 26 29
f 30 32 29
f 1 32 2
f 32 30 2
f 33 6 7
f 33 28 6
f 23 33 7
f 34 23 22
f 34 33 23
f 34 30 29
f 28 34 29
f 33 34 28
f 21 34 22
f 30 34 21
f 31 12 13
f 31 16 9
f 16 31 13
f 31 14 12
f 31 18 14
f 31 24 18
