# Created by Open3D 
# object name: Pot054_collision_8_0
# number of vertices: 34
# number of triangles: 64
v -0.0670592 0.101045 0.159394
v -0.102777 0.0627559 0.1579
v -0.0670592 0.0985449 0.105078
v -0.102311 0.0609013 0.105078
v -0.0714466 0.106811 0.105078
v -0.0670592 0.109175 0.105078
v -0.0670592 0.121434 0.163466
v -0.111256 0.0834057 0.165707
v -0.111308 0.0834887 0.163466
v -0.100799 0.095566 0.163466
v -0.0999446 0.09576 0.165876
v -0.0670592 0.110016 0.165647
v -0.118984 0.0609013 0.166448
v -0.113274 0.0609013 0.165301
v -0.107124 0.0609013 0.161346
v -0.105223 0.0609013 0.159406
v -0.0811323 0.112609 0.162427
v -0.11872 0.0668859 0.131775
v -0.121223 0.0678399 0.165761
v -0.124016 0.0609013 0.166026
v -0.125037 0.0609013 0.163466
v -0.108952 0.0809763 0.166539
v -0.0772586 0.110681 0.166551
v -0.0670592 0.114934 0.166508
v -0.0670592 0.120184 0.166039
v -0.071702 0.118827 0.165647
v -0.122392 0.0609013 0.135727
v -0.112607 0.0609013 0.105078
v -0.107536 0.069976 0.105078
v -0.119254 0.0717743 0.163466
v -0.0835303 0.110929 0.165647
v -0.0947626 0.0864987 0.105078
v -0.0908804 0.0906643 0.105078
v -0.0900291 0.105738 0.163466
f 1 2 3
f 2 4 3
f 6 5 7
f 9 8 10
f 8 11 10
f 12 13 14
f 15 12 14
f 12 15 1
f 16 4 2
f 1 16 2
f 15 16 1
f 5 17 7
f 18 9 10
f 20 19 21
f 22 13 23
f 11 22 23
f 22 11 8
f 13 22 20
f 22 19 20
f 19 22 8
f 24 25 23
f 13 24 23
f 12 24 13
f 26 25 7
f 17 26 7
f 27 18 28
f 18 29 28
f 19 30 21
f 30 27 21
f 27 30 18
f 18 30 9
f 30 8 9
f 30 19 8
f 31 26 17
f 31 11 23
f 25 31 23
f 26 31 25
f 32 29 18
f 32 10 33
f 32 18 10
f 34 31 17
f 10 34 33
f 11 34 10
f 31 34 11
f 34 5 33
f 34 17 5
f 6 24 3
f 24 1 3
f 24 6 7
f 25 24 7
f 24 12 1
f 27 20 21
f 27 15 14
f 27 28 4
f 13 27 14
f 16 27 4
f 27 13 20
f 27 16 15
f 32 6 3
f 4 32 3
f 5 32 33
f 32 5 6
f 28 32 4
f 29 32 28
