# Created by Open3D 
# object name: Pot054_collision_19_0
# number of vertices: 34
# number of triangles: 64
v -0.118778 2.06e-05 0.105072
v -0.0983551 2.06e-05 0.0182913
v -0.074727 0.0640739 0.0182913
v -0.100387 0.0640739 0.105072
v -0.0947384 0.0585564 0.0182913
v -0.090611 0.0640739 0.0182913
v -0.0993947 0.0640739 0.0419019
v -0.117985 0.0397248 0.0730323
v -0.110893 0.0392451 0.0387887
v -0.112875 0.0432328 0.0546713
v -0.107712 0.063947 0.0775429
v -0.111065 0.0640739 0.105072
v -0.127518 0.01362 0.105072
v -0.12504 2.06e-05 0.0782841
v -0.127961 2.06e-05 0.105072
v -0.105065 0.0514181 0.0384404
v -0.103546 0.0405179 0.0182913
v -0.105875 0.0335395 0.0182913
v -0.109789 0.0176829 0.0182913
v -0.118856 0.0433519 0.0861373
v -0.12684 0.0198021 0.105072
v -0.120506 0.0439836 0.105072
v -0.11596 0.0152925 0.0370515
v -0.110914 2.06e-05 0.0182913
v -0.118051 2.06e-05 0.0426919
v -0.117598 0.01362 0.0426409
v -0.118961 0.0161468 0.0500355
v -0.124405 0.0156013 0.0782841
v -0.102949 0.0610268 0.0488335
v -0.123347 0.0220907 0.0787513
v -0.122979 0.020216 0.0735484
v -0.116002 0.045932 0.0746633
v -0.112749 0.0373892 0.0446244
v -0.123273 0.0149492 0.0710679
f 1 2 3
f 4 1 3
f 6 5 7
f 9 8 10
f 11 12 7
f 13 14 15
f 16 9 10
f 5 16 7
f 16 5 17
f 9 16 17
f 18 9 17
f 9 18 19
f 20 21 22
f 12 20 22
f 11 20 12
f 23 19 24
f 25 23 24
f 23 25 26
f 23 9 19
f 23 27 9
f 27 23 26
f 13 28 14
f 28 13 21
f 29 16 10
f 29 11 7
f 16 29 7
f 20 30 21
f 28 30 31
f 30 28 21
f 30 8 31
f 30 20 8
f 32 20 11
f 32 29 10
f 29 32 11
f 8 32 10
f 20 32 8
f 33 27 31
f 27 33 9
f 8 33 31
f 33 8 9
f 28 34 14
f 34 27 26
f 27 34 31
f 34 28 31
f 34 25 14
f 25 34 26
f 6 12 3
f 12 4 3
f 12 6 7
f 1 13 15
f 4 13 1
f 12 13 4
f 13 12 22
f 21 13 22
f 24 18 2
f 2 18 3
f 18 6 3
f 5 18 17
f 19 18 24
f 18 5 6
f 1 25 2
f 25 1 15
f 25 24 2
f 14 25 15
