# Created by Open3D 
# object name: Pot054_collision_12_0
# number of vertices: 34
# number of triangles: 64
v 0.169942 0.0300489 0.147431
v 0.169942 0.0303928 0.150876
v 0.137736 0.035052 0.142889
v 0.137736 0.0350897 0.140127
v 0.169942 0.0333619 0.153377
v 0.150153 0.0352596 0.149733
v 0.137764 0.0383336 0.146021
v 0.137736 0.048451 0.146225
v 0.137736 0.0362158 0.138581
v 0.169942 0.0316902 0.14531
v 0.169942 0.03661 0.143809
v 0.137736 0.038191 0.137279
v 0.169942 0.041351 0.143749
v 0.137736 0.0478492 0.137469
v 0.169942 0.0453581 0.14477
v 0.137736 0.0498999 0.138823
v 0.142773 0.051286 0.141635
v 0.137736 0.0514663 0.141774
v 0.160253 0.0363416 0.152613
v 0.14166 0.0350772 0.146092
v 0.146282 0.0389878 0.149709
v 0.152534 0.041351 0.151607
v 0.142212 0.0513216 0.145744
v 0.146307 0.047455 0.149682
v 0.155504 0.0485695 0.150673
v 0.169942 0.03739 0.154565
v 0.158475 0.045312 0.152501
v 0.169942 0.0440937 0.153963
v 0.169942 0.0472369 0.14573
v 0.169942 0.0479708 0.147733
v 0.164918 0.0426028 0.153823
v 0.164419 0.0483923 0.151028
v 0.169942 0.0479394 0.150547
v 0.158475 0.0499912 0.147621
f 1 2 3
f 4 1 3
f 5 6 2
f 7 8 3
f 4 9 1
f 11 10 12
f 10 9 12
f 9 10 1
f 14 13 12
f 13 11 12
f 13 14 15
f 17 16 18
f 5 19 6
f 20 7 3
f 7 20 6
f 2 20 3
f 6 20 2
f 21 7 6
f 21 19 22
f 19 21 6
f 7 21 8
f 8 23 18
f 23 17 18
f 24 21 22
f 21 24 8
f 24 23 8
f 23 24 25
f 26 19 5
f 19 26 22
f 27 24 22
f 25 27 28
f 24 27 25
f 30 29 17
f 29 16 17
f 16 29 14
f 14 29 15
f 31 26 28
f 27 31 28
f 26 31 22
f 31 27 22
f 33 32 28
f 32 25 28
f 32 23 25
f 32 34 23
f 34 32 33
f 34 33 30
f 23 34 17
f 34 30 17
f 8 16 3
f 9 16 12
f 16 14 12
f 16 8 18
f 16 4 3
f 16 9 4
f 10 29 1
f 1 29 2
f 29 13 15
f 29 5 2
f 29 33 28
f 29 10 11
f 13 29 11
f 26 29 28
f 29 26 5
f 33 29 30
