# Created by Open3D 
# object name: Pot054_collision_4_0
# number of vertices: 34
# number of triangles: 64
v 0.104873 0.0564023 0.105078
v 0.105765 0.0564023 0.156405
v 0.0724559 0.094542 0.105078
v 0.0741445 0.0939135 0.15852
v 0.0724559 0.096601 0.159809
v 0.122792 0.0591317 0.131781
v 0.106969 0.0869164 0.161483
v 0.0986088 0.0823914 0.105078
v 0.0781003 0.101952 0.105078
v 0.0724559 0.105555 0.105078
v 0.0724559 0.11755 0.163465
v 0.123482 0.0564277 0.130487
v 0.11513 0.0564023 0.105078
v 0.125695 0.0564023 0.163465
v 0.11132 0.0637226 0.105078
v 0.114583 0.0766423 0.163465
v 0.107094 0.087078 0.165561
v 0.0956641 0.0993603 0.163465
v 0.0805081 0.0999708 0.105078
v 0.0724559 0.102141 0.163846
v 0.11452 0.0564023 0.165603
v 0.0724559 0.107132 0.165962
v 0.106015 0.0564023 0.159182
v 0.122828 0.0631719 0.165459
v 0.124303 0.0564023 0.166073
v 0.0914608 0.103074 0.165673
v 0.0850372 0.108602 0.162459
v 0.0724559 0.11266 0.166549
v 0.0724559 0.116162 0.166031
v 0.107568 0.0564023 0.160941
v 0.115208 0.0755559 0.165712
v 0.0758644 0.115036 0.165748
v 0.120837 0.0564023 0.166585
v 0.0980563 0.0918649 0.166528
f 1 2 3
f 4 5 3
f 2 4 3
f 7 6 8
f 9 10 11
f 13 12 14
f 12 6 14
f 6 12 13
f 6 15 8
f 15 6 13
f 16 6 7
f 17 16 7
f 18 17 7
f 19 18 8
f 18 7 8
f 20 21 22
f 23 4 2
f 4 23 5
f 6 24 14
f 16 24 6
f 24 25 14
f 18 26 17
f 9 27 19
f 27 18 19
f 27 9 11
f 27 26 18
f 28 26 29
f 30 20 5
f 23 30 5
f 20 30 21
f 31 16 17
f 31 24 16
f 24 31 25
f 29 32 11
f 26 32 29
f 32 27 11
f 27 32 26
f 33 28 22
f 21 33 22
f 31 33 25
f 33 34 28
f 34 33 31
f 34 31 17
f 26 34 17
f 28 34 26
f 10 15 3
f 15 1 3
f 15 13 1
f 9 15 10
f 15 19 8
f 15 9 19
f 28 10 3
f 5 28 3
f 10 28 11
f 28 29 11
f 20 28 5
f 28 20 22
f 13 33 1
f 33 13 14
f 1 33 2
f 25 33 14
f 30 33 21
f 33 23 2
f 33 30 23
