# Created by Open3D 
# object name: Pot054_collision_22_0
# number of vertices: 34
# number of triangles: 64
v -0.139419 0.0440001 0.143661
v -0.174886 0.037383 0.144701
v -0.139419 0.0455927 0.140053
v -0.139419 0.059667 0.141009
v -0.162695 0.0592268 0.145593
v -0.152535 0.0603296 0.147624
v -0.177615 0.0550198 0.145818
v -0.139419 0.0571491 0.139649
v -0.171782 0.037383 0.14951
v -0.180262 0.0507723 0.144746
v -0.184223 0.043333 0.143992
v -0.139419 0.0492741 0.139002
v -0.146542 0.0542909 0.150722
v -0.14541 0.0466663 0.149952
v -0.180262 0.037383 0.156203
v -0.139419 0.0456937 0.146977
v -0.1763 0.037383 0.154849
v -0.190097 0.0431129 0.145695
v -0.190432 0.0475872 0.1496
v -0.193691 0.037383 0.149637
v -0.182242 0.037383 0.143611
v -0.139419 0.0597793 0.146498
v -0.149743 0.0588955 0.150153
v -0.182296 0.0552578 0.149597
v -0.186886 0.0479107 0.154016
v -0.177327 0.0550355 0.153355
v -0.16172 0.0554712 0.153688
v -0.184556 0.049574 0.145515
v -0.189596 0.037383 0.144752
v -0.167136 0.0593413 0.149907
v -0.190331 0.0436879 0.153728
v -0.18982 0.037383 0.15555
v -0.184223 0.0453141 0.155939
v -0.1763 0.0492741 0.155609
f 1 2 3
f 4 5 6
f 7 4 8
f 5 4 7
f 1 9 2
f 10 7 8
f 11 10 8
f 12 11 8
f 14 13 15
f 16 13 14
f 17 9 1
f 16 17 1
f 17 14 15
f 17 16 14
f 19 18 20
f 21 12 3
f 2 21 3
f 12 21 11
f 22 13 16
f 13 22 23
f 23 22 6
f 22 4 6
f 24 5 7
f 25 24 19
f 24 25 26
f 27 13 23
f 13 27 15
f 28 10 11
f 18 28 11
f 10 28 7
f 28 24 7
f 28 18 19
f 24 28 19
f 18 29 20
f 29 18 11
f 21 29 11
f 5 30 6
f 24 30 5
f 30 24 26
f 30 23 6
f 30 27 23
f 27 30 26
f 31 25 19
f 32 31 20
f 31 19 20
f 33 32 15
f 25 33 26
f 33 31 32
f 31 33 25
f 27 34 15
f 34 33 15
f 34 27 26
f 33 34 26
f 22 1 3
f 22 16 1
f 4 22 8
f 22 12 8
f 12 22 3
f 29 17 15
f 29 32 20
f 9 29 2
f 32 29 15
f 17 29 9
f 29 21 2
