# Created by Open3D 
# object name: Pot054_collision_1_0
# number of vertices: 34
# number of triangles: 64
v -0.118781 2.06e-05 0.105072
v -0.0983506 2.06e-05 0.0182913
v -0.0645185 -0.0743658 0.0182913
v -0.0929736 -0.0743658 0.105072
v -0.0874408 -0.0685844 0.0182913
v -0.0825747 -0.0743658 0.0182913
v -0.0917243 -0.0743658 0.0413243
v -0.123382 -0.0195499 0.0778084
v -0.123123 -0.0367066 0.105072
v -0.127989 -0.0101587 0.105072
v -0.103198 -0.056024 0.0381091
v -0.106444 -0.032498 0.0182913
v -0.0988677 -0.0511091 0.0182913
v -0.107952 -0.06182 0.072597
v -0.110734 -0.0592552 0.0783881
v -0.111865 -0.0628066 0.105072
v -0.114332 -0.058325 0.105072
v -0.104095 -0.0743658 0.105072
v -0.119622 -0.0382284 0.0800382
v -0.119142 -0.0366119 0.073353
v -0.117776 2.06e-05 0.0417002
v -0.124416 2.06e-05 0.0743214
v -0.118949 -0.00881897 0.046111
v -0.125142 -0.00817821 0.0782841
v -0.127958 2.06e-05 0.105072
v -0.120778 -0.0339251 0.0782841
v -0.100422 -0.0743658 0.0776321
v -0.107869 -0.0535147 0.0529278
v -0.113327 -0.0354151 0.0445958
v -0.111899 -0.0307832 0.0338236
v -0.110992 -0.00906654 0.0182913
v -0.116402 -0.00870975 0.0361787
v -0.110918 2.06e-05 0.0182913
v -0.11479 -0.0313439 0.0451171
f 2 1 3
f 1 4 3
f 5 6 7
f 8 9 10
f 11 12 13
f 11 14 15
f 14 11 7
f 5 11 13
f 11 5 7
f 15 16 17
f 16 15 18
f 9 19 17
f 19 15 17
f 15 19 20
f 22 21 23
f 25 24 10
f 22 24 25
f 24 8 10
f 24 22 23
f 8 24 23
f 8 26 9
f 19 26 20
f 26 19 9
f 27 14 7
f 15 27 18
f 14 27 15
f 28 15 20
f 28 11 15
f 29 28 20
f 28 29 11
f 30 31 12
f 11 30 12
f 29 30 11
f 30 32 31
f 21 32 23
f 32 21 33
f 31 32 33
f 34 30 29
f 32 34 23
f 34 32 30
f 34 8 23
f 34 26 8
f 26 34 20
f 34 29 20
f 16 4 1
f 16 25 10
f 25 16 1
f 16 18 4
f 9 16 10
f 16 9 17
f 21 25 1
f 33 21 2
f 21 1 2
f 21 22 25
f 31 33 2
f 31 2 3
f 31 5 13
f 6 31 3
f 5 31 6
f 12 31 13
f 27 6 3
f 4 27 3
f 6 27 7
f 18 27 4
