# Created by Open3D 
# object name: Pot054_collision_16_0
# number of vertices: 34
# number of triangles: 64
v -0.0929687 -0.0743658 0.105072
v -0.0458379 -0.08678 0.0182913
v -0.0443882 -0.110189 0.105072
v -0.0645137 -0.0743658 0.0182913
v -0.0443882 -0.0880518 0.0182913
v -0.0683628 -0.0878555 0.0182913
v -0.082564 -0.0743658 0.0182913
v -0.0715806 -0.0915949 0.0341082
v -0.0873104 -0.0796358 0.042195
v -0.0443882 -0.116644 0.0772414
v -0.0548514 -0.116104 0.105072
v -0.0443882 -0.119953 0.105072
v -0.092425 -0.0743658 0.0437155
v -0.100252 -0.0743658 0.0763006
v -0.0952016 -0.0796314 0.0698787
v -0.075269 -0.0913673 0.0426537
v -0.0709494 -0.0951023 0.0436051
v -0.0754502 -0.0994218 0.0737862
v -0.0943043 -0.0826747 0.0782841
v -0.0973936 -0.0836832 0.105072
v -0.0802434 -0.100212 0.105072
v -0.0534894 -0.113166 0.0763006
v -0.0762277 -0.0999841 0.0802675
v -0.0767041 -0.102858 0.105072
v -0.0971612 -0.0794908 0.0792758
v -0.104104 -0.0743658 0.105072
v -0.0512039 -0.107097 0.0431549
v -0.0787222 -0.0988607 0.0861861
v -0.0565421 -0.111833 0.0775047
v -0.0443882 -0.109395 0.0425772
v -0.0443882 -0.101814 0.0182913
v -0.0534105 -0.103222 0.034809
v -0.079805 -0.0958832 0.0746866
v -0.0488833 -0.0999663 0.0182913
f 2 1 3
f 4 1 2
f 5 2 3
f 7 6 8
f 9 7 8
f 11 10 12
f 9 13 7
f 14 13 15
f 13 9 15
f 16 17 18
f 16 9 8
f 17 16 8
f 20 19 21
f 22 10 11
f 23 24 21
f 25 19 20
f 14 25 26
f 25 20 26
f 25 14 15
f 19 25 15
f 17 27 18
f 22 27 10
f 19 28 21
f 28 23 21
f 24 29 11
f 23 29 24
f 29 22 11
f 29 23 18
f 27 29 18
f 29 27 22
f 30 27 31
f 27 30 10
f 6 32 8
f 32 17 8
f 32 27 17
f 33 28 19
f 33 19 15
f 23 33 18
f 28 33 23
f 33 16 18
f 9 33 15
f 16 33 9
f 34 32 6
f 27 34 31
f 32 34 27
f 1 13 26
f 13 4 7
f 4 13 1
f 13 14 26
f 24 12 3
f 24 1 26
f 1 24 3
f 24 11 12
f 20 24 26
f 24 20 21
f 12 30 3
f 5 30 31
f 30 5 3
f 10 30 12
f 5 34 2
f 34 4 2
f 4 34 7
f 34 5 31
f 34 6 7
