# Created by Open3D 
# object name: Pot054_collision_21_0
# number of vertices: 34
# number of triangles: 64
v -0.113979 0.0410073 0.158779
v -0.114052 -0.0343412 0.105072
v -0.111837 0.0410073 0.105078
v -0.117355 -0.0343412 0.159767
v -0.128163 -0.00618877 0.105072
v -0.121602 0.0410073 0.105078
v -0.138721 -0.0127014 0.161418
v -0.139323 0.00371288 0.163464
v -0.138697 0.0159452 0.16548
v -0.138589 0.0147282 0.162304
v -0.126843 0.0198026 0.105078
v -0.11676 0.0410073 0.161659
v -0.138683 -0.016249 0.165468
v -0.127522 0.0136145 0.105078
v -0.134703 0.0354092 0.161478
v -0.13276 0.0410073 0.163461
v -0.123693 -0.0343412 0.164998
v -0.122486 0.0410073 0.165601
v -0.134997 -0.0343412 0.165727
v -0.134967 -0.0343412 0.162235
v -0.136682 0.00372025 0.166456
v -0.127994 -0.0101494 0.105072
v -0.138562 -0.0153418 0.162539
v -0.123731 -0.0343412 0.105072
v -0.12736 -0.0143387 0.105072
v -0.134808 0.035778 0.165558
v -0.131844 0.0410073 0.166052
v -0.120225 -0.0343412 0.162509
v -0.125633 -0.0343412 0.165848
v -0.13272 -0.0279724 0.16661
v -0.128759 -0.0343412 0.166462
v -0.128759 0.0410073 0.166613
v -0.124969 0.0410073 0.166179
v -0.13272 0.0294646 0.166595
f 1 2 3
f 1 4 2
f 2 5 3
f 5 6 3
f 5 7 8
f 9 10 8
f 11 6 5
f 12 4 1
f 7 13 8
f 13 9 8
f 14 11 5
f 11 14 10
f 14 5 8
f 10 14 8
f 6 15 16
f 11 15 6
f 15 11 10
f 9 15 10
f 17 12 18
f 19 13 20
f 13 21 9
f 22 7 5
f 23 24 20
f 23 25 24
f 13 23 20
f 23 13 7
f 23 22 25
f 22 23 7
f 15 26 16
f 26 15 9
f 26 27 16
f 12 28 4
f 17 28 12
f 29 17 18
f 30 19 31
f 32 30 31
f 19 30 13
f 30 21 13
f 33 32 31
f 29 33 31
f 33 29 18
f 30 34 21
f 34 30 32
f 34 32 27
f 21 34 9
f 34 26 9
f 26 34 27
f 24 22 2
f 22 5 2
f 25 22 24
f 29 24 2
f 4 29 2
f 24 29 20
f 29 19 20
f 28 29 4
f 19 29 31
f 29 28 17
f 6 33 3
f 33 1 3
f 33 6 16
f 33 12 1
f 12 33 18
f 27 33 16
f 32 33 27
