# Created by Open3D 
# object name: Pot054_collision_0_8
# number of vertices: 34
# number of triangles: 64
v 0.103546 0.0347628 0.013657
v 0.0989086 0.0509882 0.0182913
v 0.105528 0.0347628 0.0182913
v 0.0932964 0.0515763 0.00866513
v 0.0911212 0.0473724 0.00298346
v 0.0961 0.0347628 0.00289731
v 0.0874885 0.0440181 -0.00120218
v 0.0835295 0.071441 0.014389
v 0.0703692 0.0860347 0.0182913
v 0.0674978 0.0870366 0.0146723
v 0.0892186 0.0347628 -0.00171783
v 0.0580681 0.0943879 0.0182913
v 0.0877278 0.0680867 0.0182913
v 0.0950802 0.0552574 0.0148592
v 0.047964 0.0989947 0.0144995
v 0.0370369 0.10447 0.0182913
v 0.0767373 0.0552029 -0.00203384
v 0.0370369 0.0347628 -0.00223704
v 0.0370369 0.103385 0.0151777
v 0.044266 0.0873416 -0.00126046
v 0.0370369 0.0903891 -0.00109828
v 0.0370369 0.0850932 -0.00223704
v 0.0542994 0.0867753 0.00312613
v 0.0563605 0.0795873 -0.0013328
v 0.0370369 0.0954949 0.00310829
v 0.0554469 0.0750023 -0.00221996
v 0.0753288 0.0632076 -0.00099923
v 0.0472027 0.0946602 0.00721734
v 0.0787657 0.0665184 0.0033753
v 0.0831053 0.0650046 0.00709677
v 0.0787875 0.0706351 0.00750669
v 0.065377 0.0789775 0.00304877
v 0.0657141 0.0822393 0.00660647
v 0.0370369 0.0347628 0.0182913
f 1 2 3
f 1 4 2
f 4 1 5
f 5 6 7
f 1 6 5
f 9 8 10
f 6 11 7
f 12 9 10
f 13 8 9
f 4 14 2
f 14 13 2
f 13 14 8
f 12 15 16
f 15 12 10
f 17 11 18
f 11 17 7
f 15 19 16
f 21 20 22
f 20 23 24
f 20 21 25
f 20 26 22
f 26 20 24
f 26 18 22
f 26 17 18
f 27 5 7
f 17 27 7
f 27 26 24
f 26 27 17
f 19 28 25
f 28 19 15
f 28 20 25
f 20 28 23
f 28 15 10
f 27 29 5
f 30 4 5
f 29 30 5
f 30 14 4
f 14 30 8
f 8 31 10
f 30 31 8
f 31 30 29
f 32 27 24
f 32 29 27
f 23 32 24
f 33 31 29
f 32 33 29
f 31 33 10
f 33 32 23
f 33 28 10
f 28 33 23
f 34 11 3
f 18 11 34
f 11 1 3
f 11 6 1
f 13 34 3
f 2 13 3
f 34 13 16
f 13 12 16
f 12 13 9
f 19 34 16
f 18 19 22
f 19 18 34
f 19 21 22
f 21 19 25
