# Created by Open3D 
# object name: Pot054_collision_29_0
# number of vertices: 34
# number of triangles: 64
v 0.0428724 0.0886247 0.0182913
v 0.0428724 0.11074 0.105072
v 0.00011347 0.119028 0.105072
v 0.00011347 0.0985401 0.0182913
v 0.0297132 0.124908 0.105072
v 0.0272856 0.122507 0.0788575
v 0.00594385 0.128267 0.105072
v 0.00198438 0.125177 0.0763006
v 0.00011347 0.124951 0.0763048
v 0.00011347 0.118472 0.0433078
v 0.00392435 0.122581 0.062378
v 0.00011347 0.128239 0.105072
v 0.0319441 0.122659 0.0893737
v 0.0428724 0.120499 0.105072
v 0.00594385 0.12434 0.0723421
v 0.00396412 0.111175 0.0182913
v 0.00594385 0.116725 0.0366905
v 0.0259588 0.108175 0.0182913
v 0.00011347 0.116744 0.0366905
v 0.00011347 0.11114 0.0182913
v 0.00594385 0.118464 0.0433333
v 0.0428724 0.108331 0.0367075
v 0.0292193 0.107307 0.0182913
v 0.0428724 0.102377 0.0182913
v 0.0297132 0.121608 0.0763006
v 0.0428724 0.117413 0.078403
v 0.0329193 0.119606 0.070949
v 0.0428724 0.109957 0.0426409
v 0.00594385 0.125593 0.0802675
v 0.0257495 0.121616 0.0723421
v 0.0269592 0.114534 0.0390945
v 0.027566 0.110654 0.0268708
v 0.0257495 0.115993 0.0446159
v 0.028445 0.114868 0.0417363
f 1 2 3
f 4 1 3
f 5 6 7
f 9 8 10
f 10 8 11
f 8 12 7
f 8 9 12
f 13 5 14
f 5 13 6
f 8 15 11
f 16 17 18
f 19 16 20
f 16 19 17
f 21 10 11
f 21 19 10
f 19 21 17
f 15 21 11
f 23 22 24
f 13 25 6
f 27 26 28
f 26 13 14
f 26 25 13
f 25 26 27
f 29 8 7
f 29 15 8
f 6 29 7
f 15 29 6
f 30 15 6
f 30 21 15
f 25 30 6
f 21 31 17
f 17 32 18
f 31 32 17
f 32 23 18
f 32 22 23
f 30 33 21
f 33 31 21
f 33 34 31
f 34 25 27
f 34 30 25
f 34 33 30
f 34 27 28
f 22 34 28
f 32 34 22
f 34 32 31
f 5 12 3
f 2 5 3
f 12 5 7
f 14 5 2
f 12 19 3
f 19 4 3
f 4 19 20
f 9 19 12
f 19 9 10
f 16 4 20
f 4 16 1
f 16 24 1
f 16 23 24
f 23 16 18
f 24 26 1
f 26 14 2
f 1 26 2
f 22 26 24
f 26 22 28
