# Created by Open3D 
# object name: Pot054_collision_15_0
# number of vertices: 34
# number of triangles: 64
v 0.137778 -0.0576533 0.139416
v 0.137778 -0.0498795 0.138715
v 0.135278 -0.0601551 0.143541
v 0.137778 -0.0437304 0.141429
v 0.137778 -0.0458783 0.146502
v 0.189761 -0.0379089 0.155474
v 0.18422 -0.0458124 0.155816
v 0.18024 -0.0379089 0.156217
v 0.176301 -0.0497696 0.155567
v 0.162907 -0.0491892 0.154025
v 0.161913 -0.0558725 0.153648
v 0.190272 -0.0440338 0.153667
v 0.193595 -0.0379089 0.151457
v 0.190283 -0.0479185 0.149338
v 0.18323 -0.0448209 0.144083
v 0.177026 -0.0553493 0.146024
v 0.145361 -0.0470479 0.149962
v 0.137778 -0.0456936 0.139504
v 0.138658 -0.0438249 0.145652
v 0.13886 -0.0600194 0.141305
v 0.159126 -0.0597616 0.145535
v 0.193304 -0.0379089 0.147792
v 0.18253 -0.052012 0.153733
v 0.142597 -0.0557516 0.149613
v 0.149894 -0.0598166 0.149765
v 0.171654 -0.0379089 0.149472
v 0.174819 -0.0379089 0.144664
v 0.182241 -0.0379089 0.143622
v 0.189555 -0.0379089 0.144795
v 0.190038 -0.0434468 0.145739
v 0.179372 -0.0561539 0.149569
v 0.173591 -0.0555691 0.153379
v 0.137778 -0.0599727 0.146044
v 0.163728 -0.059788 0.149812
f 2 1 3
f 5 4 3
f 7 6 8
f 9 7 8
f 10 9 8
f 9 10 11
f 6 12 13
f 12 6 7
f 12 14 13
f 1 15 16
f 15 1 2
f 17 10 8
f 18 2 3
f 4 18 3
f 19 4 5
f 19 17 8
f 17 19 5
f 20 1 16
f 21 20 16
f 1 20 3
f 20 21 3
f 14 22 13
f 23 12 7
f 23 14 12
f 9 23 7
f 10 24 11
f 17 24 10
f 24 25 11
f 24 17 5
f 26 19 8
f 19 26 4
f 26 27 4
f 18 28 2
f 28 18 4
f 27 28 4
f 28 15 2
f 15 28 29
f 22 30 29
f 30 22 14
f 30 15 29
f 30 14 16
f 15 30 16
f 14 31 16
f 23 31 14
f 31 21 16
f 32 9 11
f 32 23 9
f 32 31 23
f 25 33 3
f 24 33 25
f 33 5 3
f 33 24 5
f 31 34 21
f 34 25 3
f 21 34 3
f 32 34 31
f 25 34 11
f 34 32 11
f 28 6 13
f 22 28 13
f 6 28 8
f 28 26 8
f 28 22 29
f 26 28 27
