# Created by Open3D 
# object name: Pot054_collision_14_0
# number of vertices: 34
# number of triangles: 64
v 0.11878 2.061e-05 0.105072
v 0.0983545 2.061e-05 0.0182913
v 0.0886425 0.0424364 0.0182913
v 0.110901 0.0424344 0.105067
v 0.120811 0.0424364 0.105072
v 0.119704 0.0374438 0.07842
v 0.117475 0.0424364 0.0773582
v 0.111014 0.00866486 0.0182913
v 0.116417 0.00820712 0.0361808
v 0.110921 2.061e-05 0.0182913
v 0.118324 0.0123372 0.0457924
v 0.114823 0.0309813 0.0449642
v 0.121955 0.0214392 0.0714906
v 0.110901 0.031272 0.0308463
v 0.106662 0.0319944 0.0182913
v 0.117596 2.061e-05 0.0406575
v 0.125288 0.00767671 0.0792758
v 0.127966 2.061e-05 0.105072
v 0.12809 0.00767671 0.105072
v 0.124421 2.061e-05 0.0743214
v 0.12749 0.0136222 0.105072
v 0.122822 0.0354197 0.0980466
v 0.123947 0.0334268 0.105072
v 0.120917 0.0334268 0.0782841
v 0.118912 0.0355484 0.0700911
v 0.11058 0.0424364 0.0445904
v 0.11578 0.0162016 0.0380475
v 0.108476 0.0424364 0.0367839
v 0.102408 0.0424364 0.0182913
v 0.118757 0.00705185 0.0451086
v 0.123668 0.0185588 0.0783032
v 0.112203 0.0348364 0.0391454
v 0.124605 0.00569625 0.0743214
v 0.123508 0.00911327 0.0691227
f 2 1 3
f 1 4 3
f 5 4 1
f 4 5 3
f 6 7 5
f 8 9 10
f 11 12 13
f 14 8 15
f 9 16 10
f 18 17 19
f 20 17 18
f 17 21 19
f 21 22 23
f 22 24 6
f 23 22 5
f 22 6 5
f 24 25 6
f 12 25 13
f 25 24 13
f 25 26 7
f 6 25 7
f 27 11 9
f 11 27 12
f 27 14 12
f 8 27 9
f 14 27 8
f 29 28 15
f 11 30 9
f 30 16 9
f 16 30 20
f 17 31 21
f 31 22 21
f 22 31 24
f 24 31 13
f 32 14 15
f 28 32 15
f 14 32 12
f 32 28 26
f 32 25 12
f 25 32 26
f 33 17 20
f 30 33 20
f 34 30 11
f 34 33 30
f 33 34 17
f 34 31 17
f 34 11 13
f 31 34 13
f 18 21 1
f 21 18 19
f 21 5 1
f 21 23 5
f 8 10 2
f 8 2 3
f 29 8 3
f 8 29 15
f 16 18 1
f 10 16 2
f 16 1 2
f 16 20 18
f 28 29 3
f 5 28 3
f 7 28 5
f 26 28 7
