# Created by Open3D 
# object name: Pot054_collision_5_0
# number of vertices: 34
# number of triangles: 64
v 0.0724559 0.0966096 0.159809
v 0.0724559 0.0945472 0.105072
v -0.00057457 0.121022 0.159423
v -0.00057457 0.118981 0.105072
v -0.00057457 0.132471 0.16651
v -0.00057457 0.138512 0.165558
v 0.0237737 0.132471 0.16661
v -0.00057457 0.12364 0.162241
v 0.0336817 0.123821 0.105072
v 0.0297213 0.12491 0.105072
v 0.031823 0.134486 0.161442
v 0.00594498 0.128264 0.105072
v -0.00057457 0.138365 0.162123
v -0.00057457 0.128187 0.105072
v 0.00410063 0.13835 0.162527
v 0.0178332 0.136867 0.163467
v 0.0322234 0.134589 0.165588
v 0.0724559 0.117548 0.163467
v 0.0724559 0.105557 0.105072
v 0.0566359 0.1153 0.105072
v 0.00507285 0.138499 0.16554
v 0.0724559 0.10557 0.165661
v -0.00057457 0.128325 0.165477
v 0.0724559 0.1087 0.166257
v 0.0448389 0.130537 0.162394
v 0.0534834 0.116665 0.105072
v 0.0724559 0.0998991 0.162406
v 0.0444547 0.130753 0.165703
v 0.0514996 0.124549 0.166495
v 0.0553134 0.12649 0.162033
v 0.0724559 0.112669 0.166553
v 0.0724559 0.116166 0.166034
v 0.0633771 0.122564 0.161533
v 0.059599 0.124633 0.165531
f 2 1 3
f 4 2 3
f 6 5 7
f 1 8 3
f 9 10 11
f 13 12 14
f 12 13 15
f 16 17 11
f 16 12 15
f 12 16 10
f 10 16 11
f 18 19 20
f 16 21 17
f 21 6 7
f 17 21 7
f 21 16 15
f 21 13 6
f 13 21 15
f 22 5 23
f 22 24 5
f 25 26 9
f 25 9 11
f 17 25 11
f 27 22 23
f 8 27 23
f 27 8 1
f 28 25 17
f 28 17 7
f 29 28 7
f 26 30 20
f 25 30 26
f 28 30 25
f 29 31 32
f 31 29 7
f 5 31 7
f 24 31 5
f 33 18 20
f 30 33 20
f 34 30 28
f 34 32 18
f 33 34 18
f 34 33 30
f 34 29 32
f 34 28 29
f 8 13 3
f 13 5 6
f 13 4 3
f 4 13 14
f 5 13 23
f 13 8 23
f 26 4 14
f 4 26 2
f 26 19 2
f 19 26 20
f 12 26 14
f 9 26 10
f 26 12 10
f 19 31 2
f 31 1 2
f 18 31 19
f 31 27 1
f 22 31 24
f 32 31 18
f 27 31 22
