# Created by Open3D 
# object name: Pot054_collision_0_2
# number of vertices: 34
# number of triangles: 64
v -0.103521 0.0405112 0.0182913
v -0.103632 0.0349352 0.0137456
v -0.105453 0.0349352 0.0182913
v -0.086391 0.0349352 -0.00223067
v -0.037038 0.0349352 -0.00223704
v -0.037038 0.0851001 -0.00223704
v -0.0515433 0.0968275 0.0148492
v -0.0637792 0.0911751 0.0182913
v -0.037038 0.104637 0.0182913
v -0.0596679 0.0870802 0.00670493
v -0.039612 0.0948127 0.00300959
v -0.037038 0.0987976 0.00695517
v -0.0796803 0.075536 0.0142262
v -0.0946897 0.0585464 0.0182913
v -0.0787232 0.0785418 0.0182913
v -0.081203 0.0492674 -0.00207227
v -0.0909901 0.0349352 -0.00137786
v -0.0967796 0.0349352 0.00338374
v -0.0989205 0.0372004 0.0071239
v -0.0950812 0.0553009 0.0148371
v -0.037038 0.090754 -0.00116802
v -0.056318 0.0796963 -0.00135289
v -0.039612 0.102763 0.0148793
v -0.0749165 0.0747083 0.00735398
v -0.0748948 0.0706569 0.00327684
v -0.0613864 0.0710381 -0.00211849
v -0.0574274 0.0849456 0.00301059
v -0.0715014 0.0673243 -0.00108564
v -0.083487 0.0516852 -0.001164
v -0.0916878 0.0599622 0.0140253
v -0.0835197 0.0635452 0.00656327
v -0.0869892 0.0549742 0.00314623
v -0.0910787 0.0532534 0.00698525
v -0.037038 0.0349352 0.0182913
f 1 2 3
f 5 4 6
f 7 8 9
f 8 7 10
f 7 11 10
f 7 12 11
f 13 14 15
f 8 13 15
f 13 8 10
f 16 4 17
f 19 18 2
f 20 1 14
f 1 20 2
f 20 19 2
f 12 21 11
f 22 21 6
f 12 23 9
f 23 7 9
f 23 12 7
f 25 24 10
f 24 13 10
f 4 26 6
f 16 26 4
f 26 22 6
f 27 25 10
f 27 22 25
f 11 27 10
f 21 27 11
f 27 21 22
f 22 28 25
f 28 26 16
f 26 28 22
f 18 29 17
f 29 16 17
f 29 28 16
f 13 30 14
f 30 20 14
f 31 30 13
f 31 24 25
f 24 31 13
f 32 31 25
f 28 32 25
f 29 32 28
f 32 18 19
f 32 29 18
f 31 32 30
f 30 33 20
f 32 33 30
f 20 33 19
f 33 32 19
f 8 34 9
f 34 8 3
f 8 1 3
f 14 8 15
f 1 8 14
f 18 34 3
f 18 5 34
f 2 18 3
f 18 4 5
f 4 18 17
f 34 21 9
f 21 5 6
f 5 21 34
f 21 12 9
