# Created by Open3D 
# object name: Pot054_collision_6_0
# number of vertices: 34
# number of triangles: 64
v 0.0634349 -0.123088 0.161461
v 0.0710111 -0.10705 0.105072
v 0.0478575 -0.119249 0.105072
v 0.0553321 -0.126983 0.162004
v 0.0596237 -0.125146 0.165548
v -0.00056533 -0.13297 0.166512
v -0.00056533 -0.128822 0.165475
v 0.0849439 -0.101507 0.166482
v 0.0442404 -0.13119 0.16241
v 0.0316334 -0.134941 0.161618
v 0.0218121 -0.126528 0.105072
v 0.0077777 -0.138675 0.163345
v -0.00056533 -0.128272 0.105072
v 0.0655692 -0.101507 0.159436
v -0.00056533 -0.119065 0.105072
v -0.00056533 -0.121521 0.159424
v 0.0619104 -0.101507 0.105072
v 0.0872259 -0.107274 0.161437
v 0.0780237 -0.101507 0.105072
v 0.0938135 -0.101507 0.163468
v 0.0237754 -0.13297 0.166617
v -0.00056533 -0.139005 0.165554
v 0.0321139 -0.135041 0.165548
v -0.00056533 -0.138858 0.162154
v 0.0257573 -0.125691 0.105072
v 0.0816501 -0.111474 0.165683
v 0.0927048 -0.101507 0.165969
v 0.0773261 -0.101507 0.165282
v -0.00056533 -0.123151 0.161407
v 0.0770443 -0.114939 0.163468
v 0.0534819 -0.124056 0.166521
v 0.0889075 -0.101507 0.16653
v 0.0443559 -0.131234 0.165686
v 0.00807336 -0.138924 0.165463
f 2 1 3
f 1 4 3
f 1 5 4
f 7 6 8
f 4 9 3
f 9 10 3
f 11 12 13
f 12 11 10
f 14 15 16
f 14 17 15
f 19 18 2
f 18 19 20
f 21 6 22
f 9 23 10
f 12 24 13
f 10 25 3
f 11 25 10
f 27 26 20
f 26 18 20
f 29 28 16
f 28 14 16
f 28 29 7
f 28 7 8
f 30 1 2
f 18 30 2
f 26 30 18
f 1 30 5
f 30 26 5
f 26 31 5
f 6 32 8
f 21 32 6
f 31 32 21
f 32 26 27
f 32 31 26
f 33 23 9
f 5 33 4
f 33 9 4
f 31 33 5
f 23 33 21
f 33 31 21
f 34 12 10
f 23 34 10
f 24 34 22
f 34 24 12
f 34 21 22
f 34 23 21
f 15 24 16
f 6 24 22
f 13 24 15
f 24 29 16
f 29 24 7
f 24 6 7
f 25 13 15
f 17 25 15
f 25 2 3
f 25 19 2
f 25 11 13
f 19 25 17
f 32 27 20
f 32 19 17
f 32 28 8
f 14 32 17
f 19 32 20
f 28 32 14
