# Created by Open3D 
# object name: Pot054_collision_24_0
# number of vertices: 34
# number of triangles: 64
v 0.0894014 -0.0408313 0.0182913
v 0.111937 -0.0408313 0.105072
v 0.044526 -0.110519 0.105072
v 0.044526 -0.0876577 0.0182913
v 0.0635071 -0.0914602 0.0182913
v 0.0824354 -0.0745554 0.0182913
v 0.0832505 -0.0834899 0.0405046
v 0.0956127 -0.0568185 0.0182913
v 0.0989561 -0.0635136 0.0389585
v 0.110933 -0.0408313 0.0413753
v 0.103401 -0.0408313 0.0182913
v 0.044526 -0.108384 0.0377948
v 0.044526 -0.116903 0.0763006
v 0.0478619 -0.115293 0.0735908
v 0.044526 -0.10181 0.0182913
v 0.0487336 -0.118831 0.105072
v 0.0710241 -0.107043 0.105072
v 0.044526 -0.120262 0.105072
v 0.0713864 -0.103303 0.0780335
v 0.0903222 -0.0911297 0.105072
v 0.118466 -0.0408313 0.077269
v 0.107107 -0.0639024 0.0736928
v 0.110666 -0.0648627 0.105072
v 0.107356 -0.070232 0.105072
v 0.102994 -0.0636147 0.0545885
v 0.0912354 -0.0875333 0.0853218
v 0.0677411 -0.0956591 0.0378543
v 0.119786 -0.0460334 0.105072
v 0.121628 -0.0408313 0.105072
v 0.0945561 -0.0867402 0.105072
v 0.104209 -0.0691511 0.0763006
v 0.0910392 -0.0854105 0.0743214
v 0.0675071 -0.0993993 0.0501034
v 0.0873411 -0.0797263 0.0420506
f 2 1 3
f 3 1 4
f 5 6 7
f 6 8 9
f 10 8 11
f 8 10 9
f 13 12 14
f 5 12 15
f 17 16 14
f 13 16 18
f 16 13 14
f 17 19 20
f 19 17 14
f 21 22 10
f 22 23 24
f 10 25 9
f 22 25 10
f 19 26 20
f 27 5 7
f 27 12 5
f 28 21 29
f 21 28 22
f 28 23 22
f 26 30 20
f 30 26 24
f 31 22 24
f 26 31 24
f 31 25 22
f 32 19 7
f 32 26 19
f 32 31 26
f 19 33 7
f 33 27 7
f 33 19 14
f 12 33 14
f 27 33 12
f 34 32 7
f 6 34 7
f 34 6 9
f 25 34 9
f 31 34 25
f 32 34 31
f 8 15 4
f 1 8 4
f 8 1 11
f 8 5 15
f 5 8 6
f 3 12 18
f 12 3 4
f 15 12 4
f 12 13 18
f 21 2 29
f 1 21 11
f 21 1 2
f 21 10 11
f 30 3 18
f 2 30 29
f 30 2 3
f 16 30 18
f 30 28 29
f 30 17 20
f 30 16 17
f 23 30 24
f 28 30 23
