# Created by Open3D 
# object name: Pot054_collision_3_0
# number of vertices: 34
# number of triangles: 64
v -0.0495989 0.108084 0.105072
v 0.00011347 0.119029 0.105072
v -0.0495989 0.0848377 0.0182913
v 0.00011347 0.0985406 0.0182913
v -0.0435552 0.106716 0.0307698
v -0.0495989 0.106406 0.0396912
v -0.043088 0.11054 0.0433163
v -0.0203048 0.11082 0.0223772
v -0.0376379 0.104493 0.0182913
v -0.0495989 0.0991694 0.0182913
v -0.041599 0.117045 0.0723421
v -0.0238327 0.122585 0.0742449
v -0.04556 0.116864 0.0782841
v -0.0178328 0.124276 0.0802675
v -0.0226454 0.126418 0.105072
v 0.00011347 0.128241 0.105072
v -0.0260517 0.114731 0.0403517
v -0.0178328 0.109809 0.0182913
v -0.0475989 0.114674 0.070227
v -0.0495989 0.114843 0.076891
v -0.0475405 0.118608 0.0980891
v -0.04556 0.119959 0.105072
v -0.0495989 0.118421 0.105072
v -0.0258425 0.122942 0.0806498
v 0.00011347 0.125572 0.0802675
v -0.0217938 0.123818 0.0802675
v -0.0188693 0.115611 0.0376461
v 0.00011347 0.111139 0.0182913
v -0.0178328 0.123745 0.0763006
v 0.00011347 0.124327 0.0723421
v 0.00011347 0.117295 0.038674
v 0.00011347 0.118472 0.0433078
v -0.0193121 0.11857 0.0507405
v -0.0217938 0.116399 0.0426367
f 2 1 3
f 4 2 3
f 5 6 7
f 5 8 9
f 5 10 6
f 10 5 9
f 11 12 7
f 11 13 12
f 14 15 16
f 12 17 7
f 17 5 7
f 5 17 8
f 8 18 9
f 19 11 7
f 11 19 13
f 19 20 13
f 20 19 6
f 6 19 7
f 22 21 23
f 21 20 23
f 20 21 13
f 24 22 15
f 24 21 22
f 13 24 12
f 21 24 13
f 25 14 16
f 14 26 15
f 24 26 12
f 26 24 15
f 18 27 28
f 27 18 8
f 26 29 12
f 29 26 14
f 29 25 30
f 25 29 14
f 27 31 28
f 31 27 32
f 32 33 30
f 33 29 30
f 27 33 32
f 29 33 12
f 34 33 27
f 17 34 8
f 34 27 8
f 34 17 12
f 33 34 12
f 23 20 1
f 1 20 3
f 20 10 3
f 10 20 6
f 22 1 2
f 16 22 2
f 22 23 1
f 15 22 16
f 18 28 4
f 18 4 3
f 10 18 3
f 18 10 9
f 31 16 2
f 4 31 2
f 28 31 4
f 31 25 16
f 31 32 30
f 25 31 30
