# Created by Open3D 
# object name: Pot054_collision_0_5
# number of vertices: 34
# number of triangles: 64
v 0.0370369 0.0370843 -0.00223704
v -0.037038 0.0851495 -0.00223636
v -0.037038 0.0370843 -0.00223704
v 0.0370369 0.0857576 -0.00220516
v -0.0194038 0.103242 0.00618951
v -0.0197845 0.100715 0.00319043
v -0.037038 0.095729 0.00313826
v 0.00195722 0.106139 0.00795681
v -0.0197845 0.107479 0.0135229
v -0.0158255 0.0928305 -0.00220087
v 0.023079 0.0952156 -0.00124941
v 0.0029524 0.0972032 -0.00110272
v 0.00394758 0.102643 0.00311106
v 0.0275818 0.107718 0.0182913
v 0.0276471 0.106684 0.0149336
v 0.00394758 0.11116 0.0182913
v 0.0370369 0.10447 0.0182913
v 0.0370369 0.103385 0.0151777
v 0.00195722 0.110386 0.015675
v -0.0197628 0.109428 0.0182913
v -0.037038 0.103505 0.0148981
v -0.037038 0.104637 0.0182913
v -0.0138569 0.102175 0.00368074
v -0.0177942 0.0956839 -0.00152771
v 0.0370369 0.0905145 -0.00107993
v 0.0370369 0.0954949 0.00310829
v 0.00593794 0.105061 0.00662656
v 0.0240144 0.102807 0.0068677
v 0.0234162 0.0993432 0.00250622
v 0.0370369 0.0986654 0.00727679
v -0.037038 0.090754 -0.00116802
v 0.00593794 0.109559 0.0144282
v -0.037038 0.0370843 0.0182913
v 0.0370369 0.0370843 0.0182913
f 2 1 3
f 1 2 4
f 5 6 7
f 8 5 9
f 2 10 4
f 10 11 4
f 11 10 12
f 11 12 13
f 14 15 16
f 15 14 17
f 18 15 17
f 19 8 9
f 19 20 16
f 20 19 9
f 21 5 7
f 5 21 9
f 20 21 22
f 21 20 9
f 23 8 13
f 23 5 8
f 5 23 6
f 10 24 12
f 23 24 6
f 12 24 13
f 24 23 13
f 24 10 2
f 11 25 4
f 25 11 26
f 8 27 13
f 27 28 13
f 11 29 26
f 29 28 26
f 29 11 13
f 28 29 13
f 28 30 26
f 18 30 15
f 30 28 15
f 6 31 7
f 24 31 6
f 31 24 2
f 19 32 8
f 32 27 8
f 15 32 16
f 32 19 16
f 28 32 15
f 27 32 28
f 1 33 3
f 33 1 34
f 20 33 34
f 17 20 34
f 20 14 16
f 20 22 33
f 14 20 17
f 1 30 34
f 30 1 4
f 30 17 34
f 30 18 17
f 25 30 4
f 30 25 26
f 31 2 3
f 31 21 7
f 33 31 3
f 22 31 33
f 21 31 22
