# Created by Open3D 
# object name: Pot054_collision_27_0
# number of vertices: 34
# number of triangles: 64
v -0.19402 -0.0259886 0.146644
v -0.193818 -0.0259886 0.153416
v -0.194344 -0.0324465 0.149596
v -0.140323 -0.03528 0.140547
v -0.180275 -0.0259886 0.143756
v -0.140323 -0.0381406 0.138532
v -0.173503 -0.0259886 0.150654
v -0.141376 -0.0354254 0.146256
v -0.167129 -0.0479766 0.145471
v -0.140323 -0.0492973 0.139536
v -0.140323 -0.0511181 0.143632
v -0.183306 -0.0407524 0.145236
v -0.191356 -0.0315435 0.154595
v -0.186205 -0.0259886 0.156473
v -0.189056 -0.0387825 0.150774
v -0.181039 -0.0422609 0.153728
v -0.188185 -0.0260009 0.143874
v -0.188185 -0.0299629 0.144107
v -0.140323 -0.0461139 0.138542
v -0.190335 -0.0342279 0.145577
v -0.178807 -0.0259886 0.154879
v -0.174331 -0.0259886 0.145672
v -0.140323 -0.0492603 0.146739
v -0.183042 -0.0442684 0.149569
v -0.153528 -0.0398666 0.151666
v -0.180264 -0.0378868 0.155588
v -0.169574 -0.0443004 0.15382
v -0.171294 -0.0480604 0.15006
v -0.189056 -0.0387825 0.148466
v -0.147367 -0.0377162 0.149661
v -0.146326 -0.0479199 0.149677
v -0.164748 -0.0398666 0.15386
v -0.157489 -0.0500192 0.147622
v -0.154519 -0.0488415 0.150517
f 2 1 3
f 5 4 6
f 4 7 8
f 9 10 11
f 10 9 12
f 2 13 14
f 13 15 16
f 13 2 3
f 15 13 3
f 17 5 6
f 17 1 5
f 17 18 1
f 19 10 12
f 18 19 12
f 19 17 6
f 17 19 18
f 20 18 12
f 1 20 3
f 18 20 1
f 7 21 8
f 22 4 5
f 22 7 4
f 23 4 8
f 15 24 16
f 9 24 12
f 25 21 14
f 27 26 16
f 13 26 14
f 26 13 16
f 28 24 9
f 28 27 16
f 24 28 16
f 29 24 15
f 29 15 3
f 20 29 3
f 29 20 12
f 24 29 12
f 21 30 8
f 25 30 21
f 30 25 31
f 30 23 8
f 23 30 31
f 32 26 27
f 32 27 31
f 25 32 31
f 32 25 14
f 26 32 14
f 33 9 11
f 33 28 9
f 33 34 28
f 27 34 31
f 28 34 27
f 34 23 31
f 23 34 11
f 34 33 11
f 22 2 14
f 1 22 5
f 22 1 2
f 21 22 14
f 22 21 7
f 23 19 6
f 10 23 11
f 4 23 6
f 19 23 10
