# https://github.com/mikedh/trimesh
v -0.19552848 -0.01498588 0.16543682
v -0.19552848 0.03729773 0.16231024
v -0.19552848 -0.01555090 0.16540088
v -0.11056998 0.00565636 0.14606641
v -0.16571191 0.06494627 0.15911178
v -0.19552848 0.04769418 0.16155556
v -0.19552848 -0.01717064 0.16514932
v -0.11056998 -0.11529657 0.12321004
v -0.11056998 0.05982338 0.14606641
v -0.16571191 0.07436334 0.15397270
v -0.19552848 0.11564781 0.13276947
v -0.18499079 0.06498393 0.15842897
v -0.19443895 0.06423057 0.15846491
v -0.19552848 0.06370322 0.15868054
v -0.19552848 0.06283684 0.15907586
v -0.19552848 0.05978571 0.15968679
v -0.19552848 0.05496417 0.16058524
v -0.11056998 0.11530879 0.12321004
v -0.19552848 -0.02534466 0.16335243
v -0.13873146 -0.11017369 0.13007414
v -0.14500250 -0.11073871 0.13043351
v -0.19552848 -0.12004278 0.13003820
v -0.11056998 -0.11925174 0.12022722
v -0.13873146 0.11018591 0.13007414
v -0.14500250 0.11075093 0.13043351
v -0.19552848 0.11625050 0.13241009
v -0.11056998 0.11745588 0.12159285
v -0.19552848 -0.11567326 0.13284133
v -0.11056998 -0.11977910 0.11979596
v -0.19552848 -0.12512800 0.12515068
v -0.11056998 -0.15070479 0.09072237
v -0.11056998 -0.14810567 0.09316614
v -0.19186066 0.11948998 0.12953508
v -0.19552848 0.12431152 0.12572567
v -0.11056998 0.11982899 0.11979596
v -0.19552848 -0.13526078 0.11526781
v -0.19552848 -0.14599624 0.10477401
v -0.19552848 -0.15044111 0.10042555
v -0.19552848 -0.15277654 0.09762241
v -0.19552848 -0.15432094 0.09571771
v -0.11056998 -0.15522498 0.08493640
v -0.11056998 0.14502908 0.09607708
v -0.11056998 0.15071701 0.09072237
v -0.19552848 0.12581825 0.12428817
v -0.19552848 -0.15507430 0.09474739
v -0.19552848 -0.15948150 0.08903330
v -0.11056998 -0.15944383 0.07900669
v -0.19552848 0.14713851 0.10348025
v -0.11056998 0.15263808 0.08824267
v -0.19552848 0.15425782 0.09571771
v -0.19552848 0.15369280 0.09640053
v -0.19552848 0.15278876 0.09744272
v -0.19552848 -0.16238196 0.08353484
v -0.11056998 -0.18027440 0.04051742
v -0.11056998 -0.17759995 0.04551277
v -0.11056998 -0.16735417 0.06445193
v -0.11056998 0.15516186 0.08493640
v -0.19552848 0.15945604 0.08899736
v -0.19552848 -0.16727884 0.07411916
v -0.19552848 -0.18170580 0.04572839
v -0.19552848 -0.18189414 0.04526120
v -0.11056998 -0.18219548 0.03494708
v -0.19552848 -0.17172369 0.06553005
v -0.19552848 -0.17986006 0.04975341
v -0.11056998 0.15715829 0.08216920
v -0.11056998 0.15938070 0.07893481
v -0.11056998 0.18021129 0.04044555
v -0.19552848 0.16205516 0.08400203
v -0.19552848 -0.18502061 0.03498302
v -0.11056998 -0.18471926 0.02495641
v -0.19552848 0.17749916 0.05424562
v -0.19552848 0.16721572 0.07408322
v -0.11056998 0.18107766 0.03810960
v -0.19539541 0.18179335 0.04547682
v -0.11056998 -0.18566097 0.01942200
v -0.19552848 -0.18826008 0.01500167
v -0.11056998 -0.19146189 -0.01504224
v -0.11056998 -0.18946546 -0.00307499
v -0.11056998 -0.18810941 0.00497505
v -0.19552848 0.18175568 0.04554870
v -0.11056998 0.18217003 0.03494708
v -0.19552848 0.18488215 0.03552208
v -0.19552848 0.18179335 0.04544089
v -0.19552848 -0.18957847 0.00684381
v -0.19552848 -0.19146189 -0.00501562
v -0.19552848 -0.19240360 -0.01504224
v -0.11056998 -0.19157489 -0.02499698
v -0.11056998 0.18333775 0.03052675
v -0.11501128 0.18232071 0.03494708
v -0.19552848 0.18503283 0.03498302
v -0.19552848 -0.19168790 -0.02496104
v -0.12500836 -0.19161256 -0.02499698
v -0.11056998 -0.19040717 -0.03261577
v -0.11056998 0.18465614 0.02495641
v -0.11056998 0.18540952 0.02053607
v -0.11056998 0.18944001 -0.00318280
v -0.11056998 0.18981670 -0.00544688
v -0.11056998 0.19139877 -0.01504224
v -0.19552848 0.18827230 0.01500167
v -0.11056998 -0.18995516 -0.03538297
v -0.19552848 -0.18498294 -0.06499562
v -0.19552848 0.19136110 -0.00444062
v -0.11056998 0.19151178 -0.01942664
v -0.11501128 0.19147411 -0.01504224
v -0.11056998 -0.18833542 -0.04497833
v -0.19552848 -0.18215781 -0.07498630
v -0.11056998 -0.18268517 -0.07495037
v -0.11056998 -0.18494527 -0.06495969
v -0.11056998 -0.18569864 -0.06053935
v -0.19552848 0.19143644 -0.00501562
v -0.11056998 0.19158711 -0.02499698
v -0.19552848 0.19241582 -0.01504224
v -0.19552848 0.19237815 -0.01450317
v -0.19552848 -0.18008606 -0.08016133
v -0.11056998 -0.18065108 -0.08123945
v -0.12500836 0.19162478 -0.02499698
v -0.11056998 0.19041939 -0.03268764
v -0.19552848 0.19170012 -0.02496104
v -0.19552848 -0.17718560 -0.08569573
v -0.11056998 -0.15978284 -0.11965685
v -0.19552848 -0.16697749 -0.10499427
v -0.19552848 -0.15951917 -0.11908184
v -0.11056998 0.18959069 -0.03768298
v -0.19552848 0.19053240 -0.03207670
v -0.11056998 -0.15778643 -0.12263967
v -0.19552848 -0.15929316 -0.11940528
v -0.11056998 -0.15620436 -0.12493969
v -0.19552848 0.18838531 -0.04494239
v -0.11056998 0.18495749 -0.06495969
v -0.19552848 0.18510817 -0.06445656
v -0.19552848 -0.15533799 -0.12497562
v -0.16571191 -0.15563934 -0.12497562
v -0.11056998 -0.15142047 -0.13137253
v -0.11056998 0.18401578 -0.06941596
v -0.19499618 0.18499516 -0.06499562
v -0.19552848 0.18499516 -0.06499562
v -0.19552848 -0.15081778 -0.13076159
v -0.19499618 -0.15081778 -0.13079754
v -0.19499618 -0.12026879 -0.16026643
v -0.11056998 -0.14610925 -0.13640380
v -0.11056998 0.18273506 -0.07495037
v -0.19552848 0.18220770 -0.07498630
v -0.19552848 -0.14561956 -0.13579287
v -0.19552848 -0.12493966 -0.15573828
v -0.19552848 -0.12026879 -0.16023049
v -0.19499618 -0.11499523 -0.16454302
v -0.11056998 -0.11744367 -0.16292582
v -0.11056998 -0.12045714 -0.16044612
v -0.11056998 0.18183102 -0.07778944
v -0.11056998 0.18066330 -0.08123945
v -0.11501128 0.18062563 -0.08123945
v -0.19552848 0.18024895 -0.07994570
v -0.19552848 -0.11503290 -0.16447113
v -0.11056998 -0.11495756 -0.16493833
v -0.19552848 -0.10855395 -0.16925085
v -0.19499618 -0.10859162 -0.16925085
v -0.17500204 -0.10866695 -0.16932273
v -0.11056998 -0.10896830 -0.16946648
v -0.11056998 0.17587943 -0.09011607
v -0.11501128 0.17795119 -0.08623479
v -0.19552848 0.17761217 -0.08497698
v -0.14500250 0.17015384 -0.10028643
v -0.19552848 0.16246951 -0.11361931
v -0.19552848 0.17245162 -0.09475203
v -0.19552848 -0.10829027 -0.16939460
v -0.19552848 -0.10358173 -0.17173055
v -0.19499618 -0.09499336 -0.17597120
v -0.19499618 -0.06821119 -0.18912439
v -0.11056998 -0.09898620 -0.17428213
v -0.11056998 0.16755474 -0.10549740
v -0.12500836 0.17022918 -0.10043018
v -0.16571191 0.16235651 -0.11437400
v -0.19552848 0.15968205 -0.11886621
v -0.19552848 -0.07499149 -0.18578219
v -0.19552848 -0.06794751 -0.18923220
v -0.19552848 -0.06320131 -0.19149628
v -0.18499079 -0.06320131 -0.19149628
v -0.11056998 -0.09137720 -0.17791183
v -0.11056998 0.15979506 -0.11969278
v -0.11501128 0.15979506 -0.11969278
v -0.16571191 0.15964440 -0.11936934
v -0.18499079 0.15956905 -0.11922559
v -0.19552848 0.15953138 -0.11911778
v -0.19552848 -0.05498962 -0.19390410
v -0.18499079 -0.05498962 -0.19390410
v -0.11056998 -0.06305064 -0.19138847
v -0.11056998 -0.06527306 -0.19034627
v -0.11056998 0.15828833 -0.12202873
v -0.11501128 0.15625425 -0.12493969
v -0.16571191 0.15572688 -0.12497562
v -0.19552848 0.15561388 -0.12468812
v -0.19552848 -0.04496985 -0.19559318
v -0.19499618 -0.04496985 -0.19559318
v -0.11056998 -0.04941471 -0.19465880
v -0.11056998 -0.05498962 -0.19372441
v -0.11056998 0.15629190 -0.12493969
v -0.11056998 0.15143269 -0.13140847
v -0.15499125 0.15113135 -0.13112096
v -0.16571191 0.15105602 -0.13104910
v -0.19552848 0.15105602 -0.13051003
v -0.19552848 -0.02496798 -0.19864787
v -0.19499618 -0.03498775 -0.19713850
v -0.11056998 -0.04496985 -0.19537754
v -0.11056998 0.14619680 -0.13643974
v -0.11501128 0.14619680 -0.13640380
v -0.13500543 0.14612147 -0.13626006
v -0.16571191 0.14627214 -0.13568506
v -0.19552848 0.15083000 -0.13079754
v -0.19552848 -0.01268811 -0.20051664
v -0.18499079 -0.01298946 -0.20044476
v -0.11056998 -0.02052312 -0.19900726
v -0.16571191 -0.01268811 -0.20040883
v -0.11056998 0.12054469 -0.16048205
v -0.16571191 0.12043168 -0.16041018
v -0.19499618 0.12031868 -0.16030237
v -0.16571191 0.13105415 -0.15034764
v -0.19552848 0.14092325 -0.14039290
v -0.19552848 0.14593312 -0.13554130
v -0.19552848 -0.00496611 -0.20166664
v -0.19499618 -0.00496611 -0.20166664
v -0.18499079 -0.00496611 -0.20163071
v -0.17500204 -0.00496611 -0.20159477
v -0.11056998 -0.00809258 -0.20084007
v -0.11056998 0.11805858 -0.16249457
v -0.11501128 0.11496978 -0.16497427
v -0.18499079 0.11496978 -0.16468677
v -0.19552848 0.12028101 -0.16026643
v -0.19552848 0.12054469 -0.16001487
v -0.19552848 0.13075280 -0.15020388
v -0.19552848 0.11527112 -0.16436332
v -0.19499618 0.00497833 -0.20170258
v -0.19552848 0.00497833 -0.20166664
v -0.16571191 -0.00425041 -0.20155883
v -0.11056998 -0.00492844 -0.20127133
v -0.11056998 0.11496978 -0.16497427
v -0.11056998 0.11229533 -0.16698678
v -0.11501128 0.10898051 -0.16946648
v -0.14500250 0.10886751 -0.16939460
v -0.18499079 0.10867917 -0.16932273
v -0.19552848 0.10860384 -0.16928679
v -0.19499618 0.01319002 -0.20048070
v -0.16571191 0.01789855 -0.19969007
v -0.16571191 0.01326535 -0.20037289
v -0.16571191 0.00554335 -0.20148696
v -0.16570359 0.00497833 -0.20155883
v -0.19552848 0.01315235 -0.20048070
v -0.11501128 0.00497833 -0.20130727
v -0.11056998 0.00497833 -0.20127133
v -0.11056998 0.10898051 -0.16946648
v -0.11056998 0.10679576 -0.17054461
v -0.11056998 0.10400830 -0.17191024
v -0.16571191 0.08860196 -0.17931341
v -0.15499125 0.09496791 -0.17622276
v -0.16571191 0.10378229 -0.17183836
v -0.18499079 0.10366929 -0.17180243
v -0.19499618 0.10363162 -0.17176649
v -0.19552848 0.10359395 -0.17176649
v -0.19499618 0.01816223 -0.19972602
v -0.17500204 0.02498020 -0.19864787
v -0.11501128 0.01710752 -0.19954632
v -0.11056998 0.04498206 -0.19541349
v -0.11056998 0.00889583 -0.20073226
v -0.19552848 0.03499997 -0.19713850
v -0.19499618 0.04498206 -0.19562912
v -0.11056998 0.08856430 -0.17931341
v -0.17500204 0.06826108 -0.18916033
v -0.14500250 0.08860196 -0.17934935
v -0.16571191 0.08359208 -0.18175717
v -0.19499618 0.06826108 -0.18916033
v -0.18499079 0.08351674 -0.18172123
v -0.19499618 0.08845129 -0.17924152
v -0.19552848 0.09541993 -0.17579152
v -0.18499079 0.03499997 -0.19713850
v -0.17500204 0.04498206 -0.19559318
v -0.16570359 0.04569776 -0.19544943
v -0.11056998 0.05051931 -0.19447911
v -0.19552848 0.04550942 -0.19552130
v -0.19499618 0.05496417 -0.19394004
v -0.11056998 0.06807274 -0.18905252
v -0.16571191 0.06822341 -0.18916033
v -0.18499079 0.06325120 -0.19149628
v -0.19552848 0.06325120 -0.19149628
v -0.19552848 0.06860010 -0.18894470
v -0.19552848 0.08344141 -0.18168528
v -0.17500204 0.05496417 -0.19390410
v -0.13500543 0.05496417 -0.19379629
v -0.11056998 0.05496417 -0.19372441
v -0.19552848 0.05496417 -0.19390410
v -0.19552848 0.05541619 -0.19379629
v -0.11056998 0.06306285 -0.19138847
v -0.13500543 0.06313819 -0.19142440
v -0.16571191 0.06355254 -0.19131659
f 1 2 6
f 1 6 17
f 1 17 16
f 1 16 15
f 1 15 14
f 1 14 11
f 1 11 26
f 1 26 34
f 1 34 44
f 1 44 48
f 1 48 52
f 1 52 51
f 1 51 50
f 1 50 58
f 1 58 68
f 1 68 72
f 1 72 71
f 1 71 80
f 1 80 83
f 1 83 82
f 1 82 90
f 1 90 99
f 1 99 102
f 1 102 110
f 1 110 113
f 1 113 112
f 1 112 118
f 1 118 124
f 1 124 128
f 1 128 130
f 1 130 136
f 1 136 142
f 1 142 152
f 1 152 161
f 1 161 164
f 1 164 163
f 1 163 173
f 1 173 183
f 1 183 191
f 1 191 200
f 1 200 208
f 1 208 218
f 1 218 217
f 1 217 229
f 1 229 228
f 1 228 227
f 1 227 230
f 1 230 240
f 1 240 257
f 1 257 272
f 1 272 284
f 1 284 283
f 1 283 282
f 1 282 289
f 1 289 288
f 1 288 277
f 1 277 263
f 1 263 246
f 1 246 232
f 1 232 219
f 1 219 209
f 1 209 201
f 1 201 192
f 1 192 184
f 1 184 176
f 1 176 175
f 1 175 174
f 1 174 166
f 1 166 165
f 1 165 155
f 1 155 153
f 1 153 145
f 1 145 144
f 1 144 143
f 1 143 137
f 1 137 131
f 1 131 126
f 1 126 122
f 1 122 121
f 1 121 119
f 1 119 114
f 1 114 106
f 1 106 101
f 1 101 91
f 1 91 86
f 1 86 85
f 1 85 84
f 1 84 76
f 1 76 69
f 1 69 61
f 1 61 60
f 1 60 64
f 1 64 63
f 1 63 59
f 1 59 53
f 1 53 46
f 1 46 45
f 1 45 40
f 1 40 39
f 1 39 38
f 1 38 37
f 1 37 36
f 1 36 30
f 1 30 22
f 1 22 28
f 1 28 19
f 1 19 7
f 1 7 3
f 1 3 4
f 1 4 5
f 1 5 2
f 2 5 6
f 3 7 4
f 4 7 8
f 4 8 23
f 4 23 29
f 4 29 32
f 4 32 31
f 4 31 41
f 4 41 47
f 4 47 56
f 4 56 55
f 4 55 54
f 4 54 62
f 4 62 70
f 4 70 75
f 4 75 79
f 4 79 78
f 4 78 77
f 4 77 87
f 4 87 93
f 4 93 100
f 4 100 105
f 4 105 109
f 4 109 108
f 4 108 107
f 4 107 115
f 4 115 120
f 4 120 125
f 4 125 127
f 4 127 133
f 4 133 140
f 4 140 148
f 4 148 147
f 4 147 154
f 4 154 158
f 4 158 169
f 4 169 178
f 4 178 187
f 4 187 186
f 4 186 195
f 4 195 194
f 4 194 203
f 4 203 211
f 4 211 223
f 4 223 234
f 4 234 248
f 4 248 262
f 4 262 261
f 4 261 276
f 4 276 287
f 4 287 290
f 4 290 279
f 4 279 265
f 4 265 251
f 4 251 250
f 4 250 249
f 4 249 236
f 4 236 235
f 4 235 224
f 4 224 213
f 4 213 204
f 4 204 197
f 4 197 196
f 4 196 188
f 4 188 179
f 4 179 170
f 4 170 159
f 4 159 150
f 4 150 149
f 4 149 141
f 4 141 134
f 4 134 129
f 4 129 123
f 4 123 117
f 4 117 111
f 4 111 103
f 4 103 98
f 4 98 97
f 4 97 96
f 4 96 95
f 4 95 94
f 4 94 88
f 4 88 81
f 4 81 73
f 4 73 67
f 4 67 66
f 4 66 65
f 4 65 57
f 4 57 49
f 4 49 43
f 4 43 42
f 4 42 35
f 4 35 27
f 4 27 18
f 4 18 9
f 4 9 5
f 5 10 11
f 5 11 12
f 5 12 13
f 5 13 14
f 5 14 15
f 5 15 16
f 5 16 17
f 5 17 6
f 5 9 18
f 5 18 10
f 7 19 8
f 8 20 21
f 8 21 22
f 8 22 23
f 8 19 20
f 10 18 24
f 10 24 25
f 10 25 11
f 11 25 26
f 11 14 13
f 11 13 12
f 18 27 26
f 18 26 25
f 18 25 24
f 19 28 21
f 19 21 20
f 21 28 22
f 22 29 23
f 22 30 31
f 22 31 32
f 22 32 29
f 26 27 33
f 26 33 34
f 27 35 33
f 30 36 31
f 31 36 37
f 31 37 38
f 31 38 39
f 31 39 40
f 31 40 41
f 33 35 34
f 34 42 43
f 34 43 44
f 34 35 42
f 40 45 41
f 41 45 46
f 41 46 47
f 43 48 44
f 43 49 50
f 43 50 51
f 43 51 52
f 43 52 48
f 46 53 54
f 46 54 55
f 46 55 56
f 46 56 47
f 49 57 58
f 49 58 50
f 53 59 54
f 54 60 61
f 54 61 62
f 54 59 63
f 54 63 64
f 54 64 60
f 57 65 58
f 58 65 66
f 58 66 67
f 58 67 68
f 61 69 62
f 62 69 70
f 67 71 72
f 67 72 68
f 67 73 74
f 67 74 71
f 69 75 70
f 69 76 77
f 69 77 78
f 69 78 79
f 69 79 75
f 71 74 80
f 73 81 74
f 74 81 82
f 74 82 83
f 74 83 80
f 76 84 77
f 77 85 86
f 77 86 87
f 77 84 85
f 81 88 89
f 81 89 82
f 82 89 90
f 86 91 92
f 86 92 87
f 87 92 93
f 88 94 90
f 88 90 89
f 90 94 95
f 90 95 96
f 90 96 97
f 90 97 98
f 90 98 99
f 91 100 93
f 91 93 92
f 91 101 100
f 98 102 99
f 98 103 104
f 98 104 102
f 100 101 105
f 101 106 107
f 101 107 108
f 101 108 109
f 101 109 105
f 102 104 110
f 103 111 112
f 103 112 104
f 104 112 113
f 104 113 110
f 106 114 115
f 106 115 107
f 111 116 112
f 111 117 116
f 112 116 118
f 114 119 115
f 115 119 121
f 115 121 122
f 115 122 120
f 116 117 118
f 117 123 124
f 117 124 118
f 120 122 125
f 122 126 127
f 122 127 125
f 123 128 124
f 123 129 130
f 123 130 128
f 126 131 132
f 126 132 127
f 127 132 133
f 129 134 135
f 129 135 130
f 130 135 136
f 131 137 138
f 131 138 133
f 131 133 132
f 133 138 139
f 133 139 140
f 134 136 135
f 134 141 136
f 136 141 142
f 137 143 138
f 138 143 139
f 139 143 144
f 139 144 145
f 139 145 146
f 139 146 147
f 139 147 148
f 139 148 140
f 141 149 142
f 142 149 150
f 142 150 151
f 142 151 152
f 145 153 146
f 146 154 147
f 146 153 155
f 146 155 156
f 146 156 157
f 146 157 158
f 146 158 154
f 150 159 160
f 150 160 151
f 151 161 152
f 151 160 162
f 151 162 163
f 151 163 164
f 151 164 161
f 155 165 156
f 156 165 166
f 156 166 157
f 157 166 167
f 157 167 158
f 158 167 168
f 158 168 169
f 159 170 171
f 159 171 160
f 160 171 162
f 162 171 172
f 162 172 173
f 162 173 163
f 166 174 167
f 167 174 168
f 168 175 176
f 168 176 177
f 168 177 169
f 168 174 175
f 169 177 178
f 170 179 180
f 170 180 171
f 171 180 181
f 171 181 172
f 172 181 173
f 173 181 182
f 173 182 183
f 176 184 185
f 176 185 177
f 177 185 186
f 177 186 187
f 177 187 178
f 179 188 180
f 180 188 181
f 181 188 189
f 181 189 182
f 182 189 190
f 182 190 191
f 182 191 183
f 184 192 193
f 184 193 185
f 185 193 194
f 185 194 195
f 185 195 186
f 188 196 189
f 189 197 190
f 189 196 197
f 190 197 191
f 191 197 198
f 191 198 199
f 191 199 200
f 192 201 202
f 192 202 193
f 193 202 203
f 193 203 194
f 197 204 205
f 197 205 206
f 197 206 198
f 198 206 199
f 199 206 207
f 199 207 208
f 199 208 200
f 201 209 202
f 202 209 210
f 202 210 203
f 203 210 212
f 203 212 211
f 204 213 214
f 204 214 215
f 204 215 205
f 205 215 216
f 205 216 206
f 206 216 215
f 206 215 207
f 207 217 218
f 207 218 208
f 207 215 217
f 209 219 220
f 209 220 210
f 210 220 221
f 210 221 222
f 210 222 212
f 211 212 222
f 211 222 223
f 213 224 214
f 214 224 225
f 214 225 226
f 214 226 215
f 215 227 228
f 215 228 229
f 215 229 217
f 215 226 230
f 215 230 227
f 219 231 220
f 219 232 231
f 220 231 221
f 221 231 222
f 222 231 233
f 222 233 234
f 222 234 223
f 224 235 225
f 225 235 236
f 225 236 237
f 225 237 226
f 226 237 238
f 226 238 239
f 226 239 240
f 226 240 230
f 231 241 242
f 231 242 243
f 231 243 244
f 231 244 245
f 231 245 233
f 231 232 246
f 231 246 241
f 233 245 247
f 233 247 234
f 234 247 248
f 236 249 237
f 237 250 251
f 237 251 252
f 237 252 253
f 237 253 254
f 237 254 239
f 237 239 238
f 237 249 250
f 239 254 255
f 239 255 256
f 239 256 240
f 240 256 257
f 241 246 258
f 241 258 259
f 241 259 242
f 242 260 243
f 242 259 261
f 242 261 260
f 243 260 262
f 243 262 244
f 244 262 247
f 244 247 245
f 246 263 264
f 246 264 258
f 247 262 248
f 251 265 266
f 251 266 267
f 251 267 268
f 251 268 252
f 252 268 269
f 252 269 270
f 252 270 255
f 252 255 254
f 252 254 253
f 255 270 271
f 255 271 256
f 256 271 272
f 256 272 257
f 258 264 273
f 258 273 259
f 259 273 274
f 259 274 261
f 260 261 262
f 261 274 275
f 261 275 276
f 263 277 264
f 264 278 285
f 264 285 274
f 264 274 273
f 264 277 278
f 265 279 280
f 265 280 266
f 266 280 281
f 266 281 282
f 266 282 269
f 266 269 267
f 267 269 268
f 269 282 283
f 269 283 284
f 269 284 271
f 269 271 270
f 271 284 272
f 274 285 275
f 275 285 286
f 275 286 276
f 276 286 287
f 277 288 278
f 278 281 285
f 278 288 289
f 278 289 282
f 278 282 281
f 279 290 280
f 280 290 291
f 280 291 292
f 280 292 281
f 281 292 291
f 281 291 285
f 285 291 290
f 285 290 286
f 286 290 287

