# https://github.com/mikedh/trimesh
v 0.34543777 -0.08505091 0.12726390
v 0.34050569 -0.08980294 0.13007993
v 0.34050569 -0.09039694 0.13007993
v 0.34543777 -0.09324595 0.12678391
v 0.34543777 -0.08261991 0.12723190
v 0.12054398 -0.08325791 0.14220798
v 0.31498662 -0.09693097 0.13286394
v 0.32498288 -0.09621596 0.13203193
v 0.32498288 -0.10289299 0.13203193
v 0.33134612 -0.10093498 0.13068792
v 0.34543777 -0.09430195 0.12639990
v 0.34530568 -0.08261991 0.12723190
v 0.34543777 -0.08261991 -0.12284946
v 0.12054398 -0.11057103 0.13027193
v 0.12501368 -0.11108802 0.13052791
v 0.13500993 -0.11215504 0.13107193
v 0.17501698 -0.11501504 0.13375995
v 0.18499123 -0.11501504 0.13423994
v 0.31498662 -0.10466400 0.13286394
v 0.34455705 -0.08261991 0.12716790
v 0.22982025 -0.08261991 0.10716780
v 0.12054398 -0.08325791 -0.18361779
v 0.31498662 -0.10965802 0.12966391
v 0.32498288 -0.10789801 0.12809591
v 0.33200669 -0.11136302 0.12115186
v 0.33500114 -0.10503800 0.12499189
v 0.34543777 -0.10183699 0.12159987
v 0.34543777 -0.10163899 0.12172787
v 0.34543777 -0.08501792 -0.12179346
v 0.34372035 -0.08501792 -0.12342546
v 0.34195888 -0.08261991 -0.12608148
v 0.12054398 -0.11523505 0.12729590
v 0.12501368 -0.11608205 0.12739190
v 0.13500993 -0.11717105 0.12803191
v 0.14502820 -0.11813906 0.12870391
v 0.16151983 -0.11970107 0.12979192
v 0.16819134 -0.12026206 0.13023992
v 0.17501698 -0.12072407 0.13068792
v 0.18499123 -0.12098807 0.13091192
v 0.19500950 -0.12069107 0.13062392
v 0.19500950 -0.11501504 0.13375995
v 0.26500532 -0.11238603 0.13167992
v 0.27500159 -0.11184703 0.13142392
v 0.29499412 -0.11076903 0.13065591
v 0.30959216 -0.10995502 0.12995192
v 0.22982025 -0.08261991 -0.17971377
v 0.13500993 -0.08325791 -0.18393779
v 0.12054398 -0.08500692 -0.18281779
v 0.31936824 -0.11994307 0.11990386
v 0.32051319 -0.13028312 0.11020781
v 0.32421225 -0.13458413 0.10454378
v 0.32718468 -0.12845710 0.10857581
v 0.33326173 -0.13221912 0.10191976
v 0.33262318 -0.12179107 0.11155182
v 0.34543777 -0.12312208 0.10275177
v 0.34497538 -0.11263903 0.11231983
v 0.34176072 -0.09278394 -0.12153745
v 0.34543777 -0.09589696 -0.11587343
v 0.33848003 -0.08261991 -0.12896150
v 0.12054398 -0.11866706 0.12483189
v 0.12054398 -0.12218708 0.12207988
v 0.12054398 -0.14771819 0.09785574
v 0.12054398 -0.15007219 0.09561573
v 0.12054398 -0.15291020 0.09286372
v 0.17501698 -0.13087711 0.12083186
v 0.18499123 -0.15148020 0.10143976
v 0.18499123 -0.13116312 0.12108786
v 0.19500950 -0.13094312 0.12086387
v 0.19500950 -0.12568510 0.12588790
v 0.19500950 -0.15132619 0.10127976
v 0.20500575 -0.12024006 0.13020793
v 0.20500575 -0.13060211 0.12054387
v 0.21304239 -0.13028312 0.12025586
v 0.21002591 -0.12000906 0.12998392
v 0.26500532 -0.11739105 0.12758391
v 0.28499785 -0.12180208 0.12163188
v 0.31269673 -0.12030607 0.12025586
v 0.26522550 -0.08261991 -0.17376174
v 0.20544612 -0.08325791 -0.18361779
v 0.20267183 -0.08325791 -0.18393779
v 0.19500950 -0.08325791 -0.18464179
v 0.18499123 -0.08325791 -0.18470579
v 0.16502073 -0.08325791 -0.18444979
v 0.15502447 -0.08500692 -0.18345779
v 0.12501368 -0.09555596 -0.17785776
v 0.12501368 -0.09055094 -0.18025777
v 0.12501368 -0.08500692 -0.18291380
v 0.12054398 -0.09322394 -0.17888176
v 0.31498662 -0.13569513 0.10604779
v 0.32123977 -0.14053516 0.10054376
v 0.32788926 -0.13886315 0.09859174
v 0.33993322 -0.12997511 0.09993576
v 0.34543777 -0.12776411 0.09836774
v 0.33947083 -0.09944998 -0.11958544
v 0.33502316 -0.09515996 -0.12508947
v 0.33764333 -0.08501792 -0.12841749
v 0.34543777 -0.09606196 -0.11574543
v 0.28290612 -0.08261991 -0.16528170
v 0.12054398 -0.15790422 0.08684769
v 0.12501368 -0.15814623 0.08713569
v 0.13500993 -0.15863024 0.08780769
v 0.14502820 -0.15908124 0.08851169
v 0.12501368 -0.15315221 0.09311972
v 0.17501698 -0.15116119 0.10111976
v 0.17501698 -0.15615523 0.09542373
v 0.18499123 -0.15648523 0.09571173
v 0.20500575 -0.15099619 0.10095976
v 0.22979824 -0.15016019 0.10015976
v 0.19500950 -0.15632021 0.09551973
v 0.22979824 -0.12451909 0.12415989
v 0.25498706 -0.12334208 0.12307188
v 0.23831928 -0.14987420 0.09987175
v 0.24499080 -0.13423213 0.11388783
v 0.22979824 -0.13990815 0.10991980
v 0.23499453 -0.13967715 0.10969581
v 0.27500159 -0.12234107 0.12211187
v 0.20546813 -0.08582091 -0.18240179
v 0.27227134 -0.08261991 -0.17164972
v 0.26894659 -0.08965993 -0.16979371
v 0.20245165 -0.09088094 -0.18041778
v 0.19500950 -0.09139794 -0.18067378
v 0.18499123 -0.10501600 -0.17398573
v 0.16502073 -0.10501600 -0.17379373
v 0.13500993 -0.10501600 -0.17344174
v 0.15502447 -0.09107894 -0.18051377
v 0.12054398 -0.10501600 -0.17318574
v 0.29499412 -0.13675113 0.10697579
v 0.29499412 -0.14215216 0.10198376
v 0.30499035 -0.14162415 0.10150376
v 0.31498662 -0.14107415 0.10102376
v 0.31498662 -0.14552918 0.09497572
v 0.31498662 -0.14943419 0.08892769
v 0.32293516 -0.15118320 0.08217566
v 0.32471865 -0.14270216 0.09513573
v 0.34497538 -0.12828110 0.09817574
v 0.33209476 -0.14123915 0.09190371
v 0.34543777 -0.13237312 0.09299172
v 0.34543777 -0.12811610 0.09798374
v 0.28195933 -0.11158302 -0.15120162
v 0.32157004 -0.10130899 -0.13097751
v 0.32824156 -0.09755797 -0.12864149
v 0.34217909 -0.10501600 -0.11232141
v 0.34017542 -0.11023002 -0.11014539
v 0.33059752 -0.09089194 -0.13033751
v 0.34543777 -0.10552201 -0.10825738
v 0.27936119 -0.09915297 -0.15952165
v 0.27729148 -0.08261991 -0.16886571
v 0.32493883 -0.09453295 -0.13228951
v 0.30968022 -0.09958197 -0.13977756
v 0.12054398 -0.15933424 0.08457567
v 0.15502447 -0.15949923 0.08918370
v 0.12054398 -0.16097324 0.08182365
v 0.16235653 -0.15980724 0.08966370
v 0.16902804 -0.16006024 0.09007970
v 0.17501698 -0.16026923 0.09043171
v 0.18499123 -0.16045624 0.09071971
v 0.19500950 -0.16034624 0.09052771
v 0.24499080 -0.15403222 0.09462372
v 0.20309018 -0.16014823 0.09020770
v 0.20973967 -0.15997224 0.08995170
v 0.25498706 -0.13875315 0.10883181
v 0.26500532 -0.12785210 0.11798385
v 0.24499080 -0.14961019 0.09961575
v 0.25498706 -0.14914820 0.09919975
v 0.26984933 -0.10996602 -0.15993766
v 0.27273372 -0.08261991 -0.17145772
v 0.27260160 -0.08299391 -0.17139372
v 0.20938738 -0.10980102 -0.16988972
v 0.20562227 -0.10587400 -0.17244974
v 0.20271586 -0.11075802 -0.17040172
v 0.19500950 -0.10501600 -0.17395374
v 0.18499123 -0.11129703 -0.17075372
v 0.12054398 -0.11065903 -0.17040172
v 0.27500159 -0.13776314 0.10790379
v 0.26500532 -0.14866419 0.09868775
v 0.27500159 -0.14816919 0.09804774
v 0.26500532 -0.15305321 0.09369572
v 0.27500159 -0.15233821 0.09305572
v 0.28499785 -0.15161221 0.09228771
v 0.29499412 -0.15088619 0.09139170
v 0.30245826 -0.15034720 0.09059171
v 0.30910775 -0.14987420 0.08972770
v 0.26500532 -0.17561430 0.05497551
v 0.30499035 -0.17104928 0.05193549
v 0.31498662 -0.15214020 0.08393567
v 0.31762880 -0.15965323 0.06931159
v 0.32498288 -0.16130324 0.06236755
v 0.33046541 -0.16028024 0.06047954
v 0.32575351 -0.14825718 0.08527967
v 0.32958466 -0.14980820 0.07967965
v 0.33876628 -0.13927014 0.08867169
v 0.34543777 -0.13711414 0.08550368
v 0.28863084 -0.10820602 -0.14892960
v 0.33691674 -0.12743410 -0.09776133
v 0.33024523 -0.13020611 -0.10012934
v 0.27768779 -0.11824906 -0.14825760
v 0.27103829 -0.12073506 -0.15062562
v 0.27462727 -0.11494905 -0.15312162
v 0.34543777 -0.12334208 -0.09334530
v 0.34543777 -0.12402408 -0.09276929
v 0.34422678 -0.12402408 -0.09408130
v 0.34121028 -0.13110812 -0.09110529
v 0.27561808 -0.10597301 -0.15846565
v 0.28517398 -0.10492800 -0.15289763
v 0.27268967 -0.10329999 -0.16153768
v 0.12054398 -0.16253525 0.07894364
v 0.12054398 -0.17904632 0.04822347
v 0.12054398 -0.18171933 0.04323144
v 0.17501698 -0.16318426 0.08499167
v 0.18499123 -0.16355824 0.08499167
v 0.19500950 -0.16339326 0.08499167
v 0.20584245 -0.16235925 0.08598368
v 0.21500202 -0.15982923 0.08972770
v 0.22979824 -0.15944424 0.08905569
v 0.24499080 -0.15903723 0.08831969
v 0.25498706 -0.15365821 0.09420773
v 0.21500202 -0.16260125 0.08473567
v 0.23499453 -0.16210625 0.08380767
v 0.26319984 -0.11080202 -0.16048166
v 0.26500532 -0.12152708 -0.15139362
v 0.26590806 -0.11447604 -0.15708965
v 0.19500950 -0.11123103 -0.17068972
v 0.25498706 -0.11174803 -0.16115367
v 0.20562227 -0.11445404 -0.16720170
v 0.19500950 -0.11622505 -0.16710570
v 0.18499123 -0.11629105 -0.16713770
v 0.12054398 -0.11342004 -0.16832171
v 0.25498706 -0.15865223 0.08761568
v 0.26500532 -0.15805823 0.08646368
v 0.25498706 -0.16146824 0.08262366
v 0.25677052 -0.17972833 0.04940748
v 0.26500532 -0.17920032 0.04809547
v 0.31267470 -0.17043328 0.05081549
v 0.32498288 -0.16525227 0.05497551
v 0.31560314 -0.16796927 0.05449551
v 0.31934622 -0.16987228 0.04927948
v 0.33427456 -0.16147925 0.05414350
v 0.34021947 -0.16013724 0.05027148
v 0.33713692 -0.15825623 0.05692752
v 0.34543777 -0.13731214 0.08518367
v 0.31928015 -0.13944615 -0.09929733
v 0.27119243 -0.13087711 -0.14076956
v 0.26500532 -0.14702518 -0.12713748
v 0.26500532 -0.13679513 -0.13689753
v 0.26500532 -0.12653209 -0.14665759
v 0.34543777 -0.12510209 -0.09174529
v 0.34543777 -0.13154812 -0.08496126
v 0.34543777 -0.13250512 -0.08380925
v 0.34473318 -0.13283512 -0.08428925
v 0.33991122 -0.13993014 -0.07987323
v 0.33594793 -0.13852215 -0.08579326
v 0.32965073 -0.13982014 -0.08966528
v 0.12501368 -0.18186232 0.04348744
v 0.12054398 -0.18307233 0.03967943
v 0.17501698 -0.18077332 0.05145549
v 0.18499123 -0.18101533 0.05190349
v 0.18499123 -0.17837532 0.05692752
v 0.18499123 -0.17411830 0.06499156
v 0.19500950 -0.18099332 0.05187149
v 0.19500950 -0.17403030 0.06499156
v 0.19500950 -0.16803527 0.07628763
v 0.20500575 -0.17051028 0.07097559
v 0.21500202 -0.17033428 0.07062359
v 0.22330287 -0.17015828 0.07027159
v 0.24499080 -0.16184224 0.08332767
v 0.22982025 -0.16542827 0.07827163
v 0.24499080 -0.16647327 0.07497562
v 0.25498706 -0.11675305 -0.15724964
v 0.24499080 -0.11786406 -0.15811366
v 0.25498706 -0.14800419 -0.12809749
v 0.22112307 -0.12020706 -0.16016166
v 0.22982025 -0.11939307 -0.15942566
v 0.24499080 -0.11285903 -0.16195367
v 0.20500575 -0.12165907 -0.16153768
v 0.19500950 -0.12219808 -0.16211368
v 0.18499123 -0.12228607 -0.16214567
v 0.16502073 -0.12215407 -0.16201767
v 0.13500993 -0.12187907 -0.16176167
v 0.16502073 -0.11609305 -0.16697770
v 0.12501368 -0.11571905 -0.16662569
v 0.12054398 -0.11566405 -0.16659370
v 0.25009900 -0.17999232 0.04998348
v 0.25406229 -0.17745131 0.05398350
v 0.25498706 -0.16571426 0.07497562
v 0.25406229 -0.18158734 0.04563146
v 0.26500532 -0.18125734 0.04307144
v 0.27238142 -0.18048733 0.04134344
v 0.26500532 -0.18339133 0.03494340
v 0.26137233 -0.19029936 0.00172722
v 0.26482919 -0.19081637 -0.00547282
v 0.27068603 -0.19015637 -0.00912084
v 0.32128382 -0.17036729 0.04262344
v 0.32476270 -0.16873927 0.04553546
v 0.34543777 -0.15453821 0.05452751
v 0.34543777 -0.15404321 0.05542351
v 0.33497912 -0.16407526 0.04495946
v 0.33072960 -0.17042229 0.02262333
v 0.33819377 -0.16889328 0.00495924
v 0.34543777 -0.15783823 0.04495946
v 0.34543777 -0.15776123 0.04540746
v 0.28962165 -0.14974219 -0.10963339
v 0.27145666 -0.15101820 -0.12102545
v 0.27130252 -0.14097516 -0.13088150
v 0.26500532 -0.15211821 -0.12214546
v 0.34543777 -0.15175520 -0.05337708
v 0.33323970 -0.14187716 -0.08304124
v 0.34440291 -0.15212920 -0.05408109
v 0.33550757 -0.15769523 -0.05542509
v 0.32881403 -0.15943323 -0.05910511
v 0.33116999 -0.15065520 -0.07100917
v 0.17501698 -0.18390834 0.04499146
v 0.13500993 -0.18214834 0.04406345
v 0.12054398 -0.18481034 0.03497540
v 0.16502073 -0.18335834 0.04499146
v 0.18499123 -0.18428235 0.04499146
v 0.19500950 -0.18420534 0.04499146
v 0.20500575 -0.18081734 0.05155149
v 0.22499827 -0.18046533 0.05087949
v 0.22979824 -0.18037733 0.05071948
v 0.23499453 -0.18028933 0.05052748
v 0.24499080 -0.18010232 0.05017548
v 0.22979824 -0.16990528 0.07014360
v 0.25498706 -0.15300921 -0.12310546
v 0.20500575 -0.15209620 -0.13196951
v 0.19500950 -0.15267920 -0.13257751
v 0.19500950 -0.13736714 -0.14742559
v 0.18499123 -0.15283321 -0.13273752
v 0.18499123 -0.13748814 -0.14755359
v 0.18499123 -0.12729110 -0.15734565
v 0.17501698 -0.12723610 -0.15734565
v 0.14502820 -0.13730115 -0.14742559
v 0.12054398 -0.13483714 -0.14934561
v 0.12054398 -0.12174708 -0.16163367
v 0.24499080 -0.18239033 0.04495946
v 0.25498706 -0.18486534 0.03494340
v 0.25498706 -0.18665835 0.02499134
v 0.25498706 -0.18967237 0.00819125
v 0.25498706 -0.19056337 0.00319923
v 0.25498706 -0.19197138 -0.00502482
v 0.25498706 -0.19252138 -0.01504087
v 0.26537964 -0.19102538 -0.01475287
v 0.27068603 -0.19015637 -0.01126485
v 0.32498288 -0.17498730 -0.00502482
v 0.32498288 -0.17488830 0.00495924
v 0.32962871 -0.16987228 0.02931137
v 0.32819754 -0.16938828 0.03494340
v 0.33178648 -0.17102729 0.01497529
v 0.33319566 -0.17180829 0.00495924
v 0.33310759 -0.17178629 -0.00502482
v 0.33810571 -0.16876128 -0.00502482
v 0.34497538 -0.16470225 0.00495924
v 0.34543777 -0.16440526 0.00495924
v 0.26934290 -0.15986224 -0.10972939
v 0.27486947 -0.15344921 -0.11513742
v 0.26562184 -0.15761822 -0.11452942
v 0.25498706 -0.15801422 -0.11676943
v 0.34543777 -0.15555021 -0.04467303
v 0.33918461 -0.15944424 -0.04768105
v 0.33251309 -0.16130324 -0.05244908
v 0.12501368 -0.18501934 0.03497540
v 0.13500993 -0.18547034 0.03497540
v 0.14502820 -0.18591034 0.03497540
v 0.15502447 -0.18632835 0.03497540
v 0.16502073 -0.18673536 0.03497540
v 0.12054398 -0.18581134 0.03049538
v 0.17501698 -0.18710935 0.03497540
v 0.18499123 -0.18736236 0.03497540
v 0.22979824 -0.18295133 0.04499146
v 0.19500950 -0.18725236 0.03497540
v 0.20500575 -0.18691134 0.03497540
v 0.20500575 -0.15710123 -0.12617749
v 0.24499080 -0.15861923 -0.11766543
v 0.19500950 -0.15767322 -0.12681748
v 0.18499123 -0.15782723 -0.12700948
v 0.17501698 -0.15280020 -0.13270551
v 0.16502073 -0.14259216 -0.14249757
v 0.15502447 -0.13737814 -0.14745760
v 0.12501368 -0.14742118 -0.13753754
v 0.12054398 -0.14237216 -0.14224157
v 0.24499080 -0.18543735 0.03494340
v 0.24499080 -0.18717536 0.02499134
v 0.23296885 -0.19010137 0.01059127
v 0.24499080 -0.19231237 -0.00502482
v 0.19500950 -0.19489738 -0.01500887
v 0.20500575 -0.19450139 -0.01500887
v 0.23499453 -0.19331339 -0.01504087
v 0.19500950 -0.19422638 -0.02496093
v 0.25498706 -0.19137737 -0.02496093
v 0.26201084 -0.19056337 -0.02496093
v 0.26896858 -0.18968336 -0.01788889
v 0.27440709 -0.18857236 -0.01475287
v 0.30212799 -0.18064132 -0.01292886
v 0.27581626 -0.18176334 -0.05552109
v 0.27966943 -0.17988232 -0.05923311
v 0.32498288 -0.17317230 -0.01504087
v 0.33033329 -0.17016928 -0.02083290
v 0.33141220 -0.17081828 -0.01504087
v 0.34030753 -0.16020323 -0.04102501
v 0.34543777 -0.16377825 -0.00572882
v 0.26993740 -0.16997129 -0.08995328
v 0.26500532 -0.18083933 -0.07158518
v 0.26500532 -0.17821032 -0.07660921
v 0.26326588 -0.17076328 -0.09139329
v 0.26269341 -0.16047823 -0.11088140
v 0.30175370 -0.17074129 -0.06128113
v 0.25498706 -0.16094024 -0.11177740
v 0.34543777 -0.15591322 -0.04326503
v 0.33550757 -0.16209525 -0.04460903
v 0.30842519 -0.16924527 -0.05769711
v 0.32498288 -0.16659427 -0.04496104
v 0.12054398 -0.18697736 0.02499134
v 0.12054398 -0.19198237 -0.00502482
v 0.17501698 -0.18877035 0.02499134
v 0.18499123 -0.18902336 0.02499134
v 0.19500950 -0.18894637 0.02499134
v 0.21500202 -0.18654835 0.03497540
v 0.22979824 -0.18599835 0.03497540
v 0.20500575 -0.18861637 0.02499134
v 0.23499453 -0.15918024 -0.11859344
v 0.22499827 -0.15971923 -0.11952145
v 0.21995610 -0.15998323 -0.11993744
v 0.21328460 -0.16030224 -0.12048145
v 0.20500575 -0.16069824 -0.12115345
v 0.19500950 -0.16105025 -0.12179346
v 0.18499123 -0.16114925 -0.12198546
v 0.17501698 -0.16110525 -0.12192146
v 0.15502447 -0.15771723 -0.12675348
v 0.12054398 -0.15534122 -0.12918550
v 0.12054398 -0.15258020 -0.13251352
v 0.14502820 -0.15269020 -0.13260952
v 0.12054398 -0.14737718 -0.13747354
v 0.22499827 -0.19023336 0.01142327
v 0.22979824 -0.19281837 -0.00502482
v 0.19500950 -0.19391838 -0.00502482
v 0.18499123 -0.19499639 -0.01500887
v 0.18499123 -0.19441339 -0.02496093
v 0.19285172 -0.19011237 -0.05068907
v 0.19571409 -0.19078337 -0.04588904
v 0.19952323 -0.18996936 -0.04982506
v 0.26038152 -0.19009036 -0.03059296
v 0.20500575 -0.18724135 -0.06499314
v 0.21500202 -0.18673536 -0.06499314
v 0.25498706 -0.18635035 -0.05497709
v 0.26500532 -0.18497534 -0.05497709
v 0.26703101 -0.18914436 -0.02496093
v 0.28499785 -0.18540435 -0.01504087
v 0.27244747 -0.18085033 -0.06499314
v 0.30503440 -0.17146729 -0.05459309
v 0.27024564 -0.18010232 -0.07017718
v 0.34543777 -0.15704623 -0.03833700
v 0.34543777 -0.15781623 -0.03497698
v 0.25498706 -0.18170834 -0.07331319
v 0.26500532 -0.18294033 -0.06499314
v 0.25498706 -0.18446934 -0.06499314
v 0.25498706 -0.17907932 -0.07830521
v 0.12054398 -0.19271937 -0.00950484
v 0.18499123 -0.19073936 0.01452729
v 0.17501698 -0.19365439 -0.00502482
v 0.18499123 -0.19394039 -0.00502482
v 0.18499123 -0.19230138 0.00499124
v 0.20500575 -0.16402026 -0.11494542
v 0.19500950 -0.16474625 -0.11494542
v 0.18499123 -0.16495526 -0.11494542
v 0.17501698 -0.16490026 -0.11494542
v 0.14502820 -0.16094024 -0.12166546
v 0.12054398 -0.15757422 -0.12643349
v 0.14502820 -0.15768422 -0.12665749
v 0.16502073 -0.16481225 -0.11494542
v 0.15502447 -0.16471326 -0.11494542
v 0.17501698 -0.19479838 -0.01500887
v 0.12054398 -0.19357738 -0.02496093
v 0.12501368 -0.19365439 -0.02496093
v 0.14502820 -0.19391838 -0.02496093
v 0.16502073 -0.19417138 -0.02496093
v 0.18499123 -0.19014537 -0.05088107
v 0.18499123 -0.18781336 -0.06499314
v 0.19500950 -0.18769236 -0.06499314
v 0.19500950 -0.18501934 -0.07494520
v 0.22499827 -0.18621835 -0.06499314
v 0.23499453 -0.18565735 -0.06499314
v 0.20500575 -0.18442534 -0.07494520
v 0.24499080 -0.18206033 -0.07408120
v 0.19500950 -0.18157633 -0.08294524
v 0.20500575 -0.18119133 -0.08224124
v 0.12054398 -0.19358838 -0.01500887
v 0.12501368 -0.19369838 -0.01500887
v 0.13500993 -0.19392939 -0.01500887
v 0.15502447 -0.19436939 -0.01500887
v 0.19500950 -0.17894731 -0.08800127
v 0.18499123 -0.17909032 -0.08825728
v 0.17501698 -0.16878328 -0.10764938
v 0.13500993 -0.17899132 -0.08809727
v 0.12501368 -0.17895833 -0.08803327
v 0.12054398 -0.17893632 -0.08800127
v 0.12054398 -0.16080824 -0.12144145
v 0.14502820 -0.16865128 -0.10748938
v 0.12054398 -0.17122528 -0.10227335
v 0.12054398 -0.19286238 -0.02944095
v 0.12054398 -0.19359937 -0.01948890
v 0.13500993 -0.19214737 -0.03494498
v 0.16017672 -0.18999137 -0.04995307
v 0.17501698 -0.18768136 -0.06499314
v 0.12054398 -0.18463434 -0.07494520
v 0.12501368 -0.18467835 -0.07494520
v 0.14502820 -0.18486534 -0.07494520
v 0.18499123 -0.18521735 -0.07494520
v 0.18499123 -0.18171933 -0.08323324
v 0.17501698 -0.18170834 -0.08320124
v 0.14502820 -0.18165334 -0.08310524
v 0.13500993 -0.18163133 -0.08307324
v 0.12501368 -0.18160933 -0.08300924
v 0.12054398 -0.18159834 -0.08297724
v 0.12054398 -0.17517430 -0.09497731
v 0.12501368 -0.19201538 -0.03494498
v 0.12054398 -0.19194937 -0.03494498
v 0.15502447 -0.18995836 -0.04972906
v 0.13500993 -0.18981537 -0.04889706
v 0.15502447 -0.18739536 -0.06499314
v 0.12054398 -0.18328133 -0.07856122
v 0.12054398 -0.18588835 -0.06944117
v 0.12054398 -0.18858336 -0.05494509
v 0.12054398 -0.18688935 -0.06499314
f 1 2 3
f 1 3 4
f 1 4 11
f 1 11 28
f 1 28 27
f 1 27 55
f 1 55 93
f 1 93 138
f 1 138 137
f 1 137 192
f 1 192 240
f 1 240 295
f 1 295 294
f 1 294 300
f 1 300 299
f 1 299 352
f 1 352 399
f 1 399 451
f 1 451 450
f 1 450 407
f 1 407 357
f 1 357 305
f 1 305 248
f 1 248 247
f 1 247 246
f 1 246 200
f 1 200 199
f 1 199 145
f 1 145 97
f 1 97 58
f 1 58 29
f 1 29 13
f 1 13 5
f 1 5 2
f 2 5 6
f 2 6 7
f 2 7 8
f 2 8 9
f 2 9 3
f 3 9 10
f 3 10 4
f 4 10 11
f 5 12 6
f 5 13 31
f 5 31 59
f 5 59 98
f 5 98 147
f 5 147 166
f 5 166 118
f 5 118 78
f 5 78 46
f 5 46 21
f 5 21 20
f 5 20 12
f 6 14 15
f 6 15 16
f 6 16 17
f 6 17 18
f 6 18 19
f 6 19 7
f 6 12 20
f 6 20 21
f 6 21 46
f 6 46 22
f 6 22 48
f 6 48 88
f 6 88 126
f 6 126 173
f 6 173 227
f 6 227 281
f 6 281 333
f 6 333 332
f 6 332 379
f 6 379 431
f 6 431 429
f 6 429 428
f 6 428 466
f 6 466 495
f 6 495 497
f 6 497 513
f 6 513 494
f 6 494 512
f 6 512 519
f 6 519 503
f 6 503 520
f 6 520 522
f 6 522 521
f 6 521 515
f 6 515 498
f 6 498 471
f 6 471 499
f 6 499 485
f 6 485 456
f 6 456 412
f 6 412 411
f 6 411 365
f 6 365 313
f 6 313 254
f 6 254 208
f 6 208 207
f 6 207 206
f 6 206 152
f 6 152 150
f 6 150 99
f 6 99 64
f 6 64 63
f 6 63 62
f 6 62 61
f 6 61 60
f 6 60 32
f 6 32 14
f 7 19 9
f 7 9 8
f 9 19 23
f 9 23 24
f 9 24 10
f 10 24 25
f 10 25 26
f 10 26 27
f 10 27 28
f 10 28 11
f 13 29 30
f 13 30 31
f 14 32 33
f 14 33 34
f 14 34 15
f 15 34 35
f 15 35 36
f 15 36 16
f 16 36 37
f 16 37 17
f 17 37 38
f 17 38 18
f 18 38 39
f 18 39 40
f 18 40 41
f 18 41 42
f 18 42 19
f 19 42 43
f 19 43 44
f 19 44 45
f 19 45 23
f 22 46 47
f 22 47 48
f 23 45 49
f 23 49 24
f 24 49 50
f 24 50 51
f 24 51 52
f 24 52 53
f 24 53 54
f 24 54 25
f 25 54 26
f 26 54 55
f 26 55 56
f 26 56 27
f 27 56 55
f 29 57 30
f 29 58 57
f 30 57 31
f 31 57 59
f 32 60 33
f 33 60 34
f 34 60 35
f 35 60 61
f 35 61 36
f 36 61 37
f 37 61 62
f 37 62 63
f 37 63 38
f 38 63 64
f 38 64 65
f 38 65 66
f 38 66 67
f 38 67 39
f 39 68 69
f 39 69 40
f 39 67 70
f 39 70 68
f 40 71 43
f 40 43 42
f 40 42 41
f 40 69 72
f 40 72 73
f 40 73 71
f 43 71 74
f 43 74 75
f 43 75 44
f 44 75 76
f 44 76 77
f 44 77 45
f 45 77 49
f 46 78 79
f 46 79 80
f 46 80 81
f 46 81 82
f 46 82 83
f 46 83 47
f 47 83 84
f 47 84 85
f 47 85 86
f 47 86 87
f 47 87 48
f 48 87 88
f 49 77 89
f 49 89 50
f 50 89 90
f 50 90 51
f 51 90 91
f 51 91 53
f 51 53 52
f 53 91 92
f 53 92 55
f 53 55 54
f 55 92 93
f 57 58 94
f 57 94 95
f 57 95 96
f 57 96 59
f 58 97 94
f 59 96 98
f 64 99 100
f 64 100 101
f 64 101 102
f 64 102 103
f 64 103 104
f 64 104 65
f 65 104 66
f 66 104 105
f 66 105 106
f 66 106 70
f 66 70 67
f 68 72 69
f 68 70 107
f 68 107 108
f 68 108 72
f 70 106 109
f 70 109 107
f 71 73 110
f 71 110 111
f 71 111 74
f 72 108 112
f 72 112 73
f 73 113 110
f 73 112 114
f 73 114 115
f 73 115 113
f 74 111 75
f 75 111 116
f 75 116 76
f 76 116 89
f 76 89 77
f 78 117 79
f 78 118 119
f 78 119 117
f 79 117 120
f 79 120 80
f 80 120 81
f 81 120 121
f 81 121 82
f 82 121 122
f 82 122 123
f 82 123 124
f 82 124 125
f 82 125 83
f 83 125 84
f 84 125 124
f 84 124 85
f 85 124 126
f 85 126 88
f 85 88 86
f 86 88 87
f 89 127 128
f 89 128 129
f 89 129 130
f 89 130 90
f 89 116 127
f 90 130 131
f 90 131 132
f 90 132 133
f 90 133 134
f 90 134 91
f 91 135 92
f 91 134 136
f 91 136 137
f 91 137 135
f 92 135 93
f 93 135 138
f 94 139 140
f 94 140 141
f 94 141 95
f 94 97 142
f 94 142 143
f 94 143 139
f 95 141 96
f 96 141 144
f 96 144 98
f 97 145 142
f 98 146 147
f 98 144 148
f 98 148 149
f 98 149 146
f 99 150 100
f 100 150 101
f 101 150 102
f 102 151 105
f 102 105 103
f 102 150 152
f 102 152 151
f 103 105 104
f 105 151 153
f 105 153 154
f 105 154 155
f 105 155 106
f 106 155 156
f 106 156 157
f 106 157 109
f 107 109 158
f 107 158 108
f 108 158 112
f 109 157 159
f 109 159 160
f 109 160 158
f 110 113 111
f 111 113 161
f 111 161 162
f 111 162 116
f 112 163 114
f 112 158 163
f 113 115 164
f 113 164 161
f 114 163 115
f 115 163 164
f 116 162 127
f 117 119 165
f 117 165 120
f 118 166 167
f 118 167 119
f 119 167 165
f 120 168 169
f 120 169 170
f 120 170 171
f 120 171 121
f 120 165 168
f 121 171 122
f 122 171 172
f 122 172 123
f 123 172 173
f 123 173 124
f 124 173 126
f 127 174 128
f 127 162 174
f 128 174 164
f 128 164 175
f 128 175 129
f 129 175 130
f 130 175 176
f 130 176 177
f 130 177 178
f 130 178 179
f 130 179 131
f 131 179 180
f 131 180 181
f 131 181 182
f 131 182 132
f 132 182 183
f 132 183 184
f 132 184 185
f 132 185 186
f 132 186 133
f 133 186 187
f 133 187 188
f 133 188 189
f 133 189 134
f 134 189 136
f 135 137 138
f 136 189 190
f 136 190 191
f 136 191 137
f 137 191 192
f 139 193 140
f 139 143 194
f 139 194 195
f 139 195 196
f 139 196 197
f 139 197 198
f 139 198 165
f 139 165 193
f 140 193 141
f 141 193 149
f 141 149 148
f 141 148 144
f 142 145 199
f 142 199 143
f 143 199 200
f 143 200 201
f 143 201 202
f 143 202 194
f 146 203 147
f 146 149 204
f 146 204 203
f 147 203 205
f 147 205 167
f 147 167 166
f 149 193 204
f 151 152 153
f 152 206 153
f 153 206 207
f 153 207 154
f 154 207 208
f 154 208 209
f 154 209 155
f 155 209 210
f 155 210 156
f 156 210 211
f 156 211 157
f 157 211 212
f 157 212 159
f 158 160 213
f 158 213 214
f 158 214 215
f 158 215 216
f 158 216 163
f 159 212 160
f 160 212 217
f 160 217 218
f 160 218 213
f 161 164 174
f 161 174 162
f 163 216 164
f 164 216 175
f 165 219 170
f 165 170 168
f 165 167 205
f 165 205 203
f 165 203 193
f 165 198 197
f 165 197 220
f 165 220 221
f 165 221 219
f 168 170 169
f 170 222 171
f 170 219 223
f 170 223 224
f 170 224 225
f 170 225 222
f 171 222 172
f 172 222 225
f 172 225 226
f 172 226 173
f 173 226 227
f 175 216 177
f 175 177 176
f 177 216 228
f 177 228 178
f 178 228 179
f 179 228 180
f 180 228 229
f 180 229 181
f 181 229 182
f 182 229 183
f 183 230 231
f 183 231 232
f 183 232 184
f 183 229 230
f 184 232 233
f 184 233 186
f 184 186 185
f 186 234 187
f 186 233 235
f 186 235 236
f 186 236 234
f 187 234 188
f 188 234 237
f 188 237 238
f 188 238 239
f 188 239 240
f 188 240 191
f 188 191 190
f 188 190 189
f 191 240 192
f 193 203 204
f 194 202 195
f 195 202 241
f 195 241 196
f 196 241 197
f 197 241 242
f 197 242 243
f 197 243 244
f 197 244 245
f 197 245 220
f 200 246 202
f 200 202 201
f 202 247 248
f 202 248 249
f 202 249 250
f 202 250 251
f 202 251 252
f 202 252 241
f 202 246 247
f 208 253 209
f 208 254 253
f 209 253 255
f 209 255 256
f 209 256 257
f 209 257 258
f 209 258 210
f 210 258 259
f 210 259 260
f 210 260 261
f 210 261 211
f 211 261 262
f 211 262 263
f 211 263 264
f 211 264 212
f 212 264 217
f 213 218 214
f 214 218 265
f 214 265 215
f 215 228 216
f 215 265 230
f 215 230 228
f 217 264 266
f 217 266 218
f 218 266 267
f 218 267 265
f 219 221 268
f 219 268 269
f 219 269 223
f 220 245 270
f 220 270 271
f 220 271 272
f 220 272 269
f 220 269 268
f 220 268 221
f 223 269 273
f 223 273 224
f 224 273 269
f 224 269 272
f 224 272 271
f 224 271 274
f 224 274 225
f 225 274 275
f 225 275 276
f 225 276 226
f 226 276 277
f 226 277 278
f 226 278 279
f 226 279 227
f 227 279 280
f 227 280 281
f 228 230 229
f 230 265 282
f 230 282 283
f 230 283 284
f 230 284 231
f 231 283 282
f 231 282 285
f 231 285 286
f 231 286 232
f 231 284 283
f 232 286 233
f 233 236 235
f 233 286 236
f 234 236 237
f 236 286 287
f 236 287 288
f 236 288 289
f 236 289 290
f 236 290 291
f 236 291 292
f 236 292 293
f 236 293 237
f 237 293 238
f 238 294 295
f 238 295 240
f 238 240 239
f 238 293 296
f 238 296 297
f 238 297 298
f 238 298 299
f 238 299 300
f 238 300 294
f 241 301 302
f 241 302 242
f 241 252 301
f 242 302 303
f 242 303 243
f 243 302 304
f 243 304 270
f 243 270 244
f 243 303 302
f 244 270 245
f 248 305 249
f 249 305 250
f 250 306 252
f 250 252 251
f 250 305 307
f 250 307 308
f 250 308 309
f 250 309 310
f 250 310 306
f 252 306 310
f 252 310 309
f 252 309 301
f 253 254 311
f 253 311 312
f 253 312 255
f 254 313 311
f 255 312 314
f 255 314 311
f 255 311 256
f 256 311 315
f 256 315 259
f 256 259 257
f 257 259 258
f 259 315 316
f 259 316 317
f 259 317 262
f 259 262 260
f 260 262 261
f 262 317 318
f 262 318 319
f 262 319 263
f 263 319 320
f 263 320 321
f 263 321 282
f 263 282 264
f 264 322 266
f 264 282 322
f 265 267 282
f 266 322 282
f 266 282 267
f 270 304 323
f 270 323 324
f 270 324 274
f 270 274 271
f 274 324 325
f 274 325 326
f 274 326 275
f 275 326 327
f 275 327 328
f 275 328 329
f 275 329 276
f 276 329 330
f 276 330 277
f 277 330 331
f 277 331 332
f 277 332 278
f 278 333 279
f 278 332 333
f 279 333 280
f 280 333 281
f 282 321 334
f 282 334 285
f 285 334 335
f 285 335 286
f 286 335 288
f 286 288 287
f 288 335 289
f 289 335 336
f 289 336 337
f 289 337 338
f 289 338 339
f 289 339 290
f 290 339 340
f 290 340 291
f 291 340 341
f 291 341 342
f 291 342 343
f 291 343 344
f 291 344 292
f 292 344 345
f 292 345 293
f 293 345 346
f 293 346 296
f 296 346 345
f 296 345 297
f 297 345 344
f 297 344 347
f 297 347 348
f 297 348 298
f 298 348 349
f 298 349 350
f 298 350 351
f 298 351 299
f 299 351 352
f 301 309 353
f 301 353 354
f 301 354 302
f 302 354 353
f 302 353 355
f 302 355 304
f 304 355 356
f 304 356 323
f 305 357 358
f 305 358 307
f 307 358 308
f 308 358 359
f 308 359 309
f 309 359 353
f 311 314 312
f 311 313 360
f 311 360 361
f 311 361 362
f 311 362 363
f 311 363 364
f 311 364 315
f 313 365 360
f 315 364 366
f 315 366 367
f 315 367 316
f 316 368 321
f 316 321 320
f 316 320 319
f 316 319 318
f 316 318 317
f 316 367 369
f 316 369 370
f 316 370 368
f 321 368 334
f 323 371 324
f 323 356 372
f 323 372 371
f 324 371 373
f 324 373 325
f 325 327 326
f 325 373 374
f 325 374 327
f 327 375 328
f 327 374 375
f 328 375 376
f 328 376 377
f 328 377 330
f 328 330 329
f 330 377 331
f 331 377 378
f 331 378 379
f 331 379 332
f 334 368 417
f 334 417 380
f 334 380 335
f 335 380 336
f 336 380 337
f 337 380 338
f 338 380 381
f 338 381 382
f 338 382 339
f 339 382 383
f 339 383 384
f 339 384 385
f 339 385 340
f 340 386 387
f 340 387 388
f 340 388 389
f 340 389 341
f 340 385 384
f 340 384 386
f 341 389 342
f 342 389 390
f 342 390 391
f 342 391 392
f 342 392 343
f 343 349 348
f 343 348 344
f 343 392 393
f 343 393 394
f 343 394 395
f 343 395 396
f 343 396 397
f 343 397 349
f 344 348 347
f 349 397 350
f 350 352 351
f 350 397 398
f 350 398 399
f 350 399 352
f 353 400 401
f 353 401 402
f 353 402 403
f 353 403 404
f 353 404 355
f 353 359 405
f 353 405 400
f 355 404 356
f 356 404 406
f 356 406 372
f 357 407 358
f 358 407 398
f 358 398 397
f 358 397 396
f 358 396 408
f 358 408 359
f 359 409 405
f 359 408 410
f 359 410 409
f 360 365 361
f 361 365 362
f 362 365 411
f 362 411 363
f 363 411 364
f 364 411 366
f 366 411 412
f 366 412 413
f 366 413 414
f 366 414 367
f 367 414 415
f 367 415 369
f 368 370 416
f 368 416 417
f 369 415 418
f 369 418 370
f 370 418 382
f 370 382 416
f 371 372 419
f 371 419 420
f 371 420 421
f 371 421 422
f 371 422 423
f 371 423 373
f 372 406 419
f 373 423 424
f 373 424 374
f 374 424 425
f 374 425 426
f 374 426 427
f 374 427 428
f 374 428 429
f 374 429 430
f 374 430 375
f 375 430 376
f 376 430 377
f 377 430 378
f 378 430 429
f 378 429 431
f 378 431 379
f 380 417 381
f 381 417 416
f 381 416 382
f 382 418 432
f 382 432 383
f 383 432 433
f 383 433 384
f 384 433 434
f 384 434 435
f 384 435 436
f 384 436 387
f 384 387 386
f 387 436 437
f 387 437 438
f 387 438 439
f 387 439 388
f 388 440 389
f 388 439 441
f 388 441 442
f 388 442 443
f 388 443 440
f 389 440 444
f 389 444 445
f 389 445 390
f 390 445 393
f 390 393 391
f 391 393 446
f 391 446 392
f 392 446 393
f 393 445 444
f 393 444 447
f 393 447 394
f 394 409 448
f 394 448 410
f 394 410 396
f 394 396 395
f 394 447 449
f 394 449 405
f 394 405 409
f 396 410 408
f 398 407 450
f 398 450 451
f 398 451 399
f 400 405 449
f 400 449 401
f 401 452 402
f 401 449 453
f 401 453 454
f 401 454 452
f 402 452 403
f 403 452 455
f 403 455 404
f 404 455 406
f 406 455 420
f 406 420 419
f 409 410 448
f 412 456 413
f 413 457 414
f 413 456 458
f 413 458 459
f 413 459 460
f 413 460 457
f 414 457 434
f 414 434 415
f 415 432 418
f 415 434 433
f 415 433 432
f 420 455 421
f 421 455 422
f 422 455 423
f 423 455 461
f 423 461 462
f 423 462 424
f 424 462 463
f 424 463 425
f 425 463 464
f 425 464 426
f 426 465 466
f 426 466 467
f 426 467 427
f 426 464 468
f 426 468 469
f 426 469 465
f 427 467 428
f 428 467 466
f 434 460 459
f 434 459 435
f 434 457 460
f 435 470 471
f 435 471 472
f 435 472 473
f 435 473 474
f 435 474 436
f 435 459 470
f 436 474 475
f 436 475 437
f 437 475 476
f 437 476 477
f 437 477 438
f 438 477 439
f 439 477 441
f 440 443 444
f 441 477 478
f 441 478 442
f 442 479 443
f 442 478 479
f 443 479 480
f 443 480 454
f 443 454 444
f 444 454 453
f 444 453 447
f 447 453 449
f 452 481 482
f 452 482 483
f 452 483 484
f 452 484 461
f 452 461 455
f 452 454 481
f 454 480 478
f 454 478 481
f 456 485 458
f 458 485 459
f 459 485 486
f 459 486 487
f 459 487 488
f 459 488 470
f 461 484 489
f 461 489 462
f 462 489 490
f 462 490 463
f 463 490 491
f 463 491 492
f 463 492 464
f 464 492 493
f 464 493 494
f 464 494 468
f 465 469 495
f 465 495 466
f 468 494 496
f 468 496 469
f 469 496 497
f 469 497 495
f 470 488 471
f 471 498 472
f 471 488 499
f 472 498 473
f 473 498 500
f 473 500 474
f 474 500 501
f 474 501 475
f 475 501 476
f 476 501 502
f 476 502 503
f 476 503 504
f 476 504 505
f 476 505 506
f 476 506 477
f 477 506 478
f 478 506 507
f 478 507 483
f 478 483 481
f 478 480 479
f 481 483 482
f 483 507 489
f 483 489 484
f 485 499 486
f 486 499 487
f 487 499 488
f 489 507 490
f 490 507 508
f 490 508 509
f 490 509 492
f 490 492 491
f 492 509 510
f 492 510 511
f 492 511 512
f 492 512 493
f 493 512 494
f 494 513 496
f 496 513 497
f 498 514 500
f 498 515 514
f 500 514 501
f 501 514 516
f 501 516 502
f 502 516 514
f 502 514 517
f 502 517 518
f 502 518 503
f 503 519 504
f 503 518 520
f 504 519 505
f 505 519 506
f 506 519 512
f 506 512 511
f 506 511 510
f 506 510 509
f 506 509 508
f 506 508 507
f 514 515 517
f 515 521 517
f 517 521 522
f 517 522 518
f 518 522 520

