# https://github.com/mikedh/trimesh
v 0.22983587 -0.08261988 -0.17967722
v 0.22983587 -0.06559031 -0.18810828
v 0.26525658 -0.08261988 -0.17374562
v 0.22983587 -0.08261988 0.10716549
v 0.22983587 -0.06085986 -0.19038391
v 0.27227506 -0.08261988 -0.17165650
v 0.26808661 -0.06932059 -0.17963991
v 0.34455416 -0.08261988 0.12712398
v 0.34545976 -0.06283313 0.16607101
v 0.34545976 -0.05621052 0.17487514
v 0.34545976 -0.05534552 0.17565855
v 0.22983587 -0.05477787 0.12708667
v 0.22983587 -0.05907581 -0.19079427
v 0.23156784 -0.06053549 -0.19023469
v 0.27273920 -0.08261988 -0.17146999
v 0.27247882 -0.06264392 -0.18116944
v 0.26486036 -0.06559031 -0.18191555
v 0.34530127 -0.08261988 0.12719859
v 0.34545976 -0.08261988 0.12719859
v 0.34545976 -0.05464272 0.17606892
v 0.22983587 -0.05018259 0.13003381
v 0.22983587 -0.05234508 0.12872812
v 0.22983587 -0.05488599 -0.19157769
v 0.23822409 -0.05799457 -0.18963781
v 0.26501885 -0.05499412 -0.18538497
v 0.27548999 -0.06559031 -0.17814769
v 0.27927092 -0.07902475 -0.16949278
v 0.27730119 -0.08261988 -0.16885859
v 0.27548999 -0.05450756 -0.18187824
v 0.27914640 -0.05750801 -0.17941608
v 0.34545976 -0.08261988 -0.12286080
v 0.34545976 -0.04466825 0.18110517
v 0.34206372 -0.04701995 0.17860569
v 0.22983587 -0.04547918 0.13257059
v 0.22983587 -0.04496559 -0.19310722
v 0.23495257 -0.05480490 -0.19071966
v 0.26501885 -0.04496559 -0.18702641
v 0.26986387 -0.01982669 -0.18993625
v 0.28504419 -0.06467125 -0.17270106
v 0.28173870 -0.07237510 -0.17113423
v 0.28291601 -0.08261988 -0.16527726
v 0.33847523 -0.08261988 -0.12894160
v 0.28025576 -0.05083134 -0.18016218
v 0.27500322 -0.04496559 -0.18370621
v 0.29080614 -0.06110315 -0.17053734
v 0.32917008 -0.04685777 -0.14942238
v 0.34085247 -0.05172336 -0.14058095
v 0.34195054 -0.08261988 -0.12606907
v 0.34140715 -0.07275353 -0.13114265
v 0.34545976 -0.06499562 -0.13076958
v 0.34545976 -0.04423575 0.18121709
v 0.34523335 -0.04420872 0.18114248
v 0.33972046 -0.04037031 0.18009792
v 0.22983587 -0.03044991 0.14014363
v 0.22983587 -0.04099203 0.13488354
v 0.22983587 -0.01460970 -0.19773312
v 0.22983587 -0.00498664 -0.19918804
v 0.25502318 -0.00498664 -0.19474867
v 0.26501885 -0.00498664 -0.19295800
v 0.27109778 -0.01315002 -0.19042122
v 0.33958462 -0.07940318 -0.12965041
v 0.27500322 -0.03499113 -0.18523574
v 0.27739176 -0.00498664 -0.18863055
v 0.28099158 -0.04496559 -0.18060985
v 0.31989890 -0.01961045 -0.15990524
v 0.30426577 -0.03518034 -0.16736637
v 0.29884344 -0.04496559 -0.16923164
v 0.30879384 -0.04496559 -0.16285239
v 0.33899596 -0.05840004 -0.13927525
v 0.33401510 -0.04410060 -0.14677368
v 0.34545976 -0.04499262 -0.13811879
v 0.34545976 -0.05523740 -0.13494781
v 0.34322971 -0.06499562 -0.13285869
v 0.34178072 -0.04499262 -0.14136437
v 0.34545976 -0.03499113 0.18188858
v 0.34499565 -0.03499113 0.18181397
v 0.33854318 -0.03499113 0.18039636
v 0.27971241 0.01955758 0.17010002
v 0.22983587 -0.02766571 0.14077783
v 0.22983587 0.00501486 -0.19922534
v 0.26501885 0.00501486 -0.19299531
v 0.27238828 -0.00498664 -0.19105542
v 0.28499889 0.00501486 -0.18426579
v 0.28499889 -0.00498664 -0.18407927
v 0.28561020 -0.01436641 -0.18236321
v 0.28342539 -0.02498963 -0.18213938
v 0.27741441 0.00501486 -0.18866786
v 0.32441562 -0.01574500 -0.15762961
v 0.33332458 -0.01498814 -0.15207107
v 0.29013824 -0.01063613 -0.18008757
v 0.33832806 -0.01498814 -0.14886279
v 0.33702627 -0.02496260 -0.14804207
v 0.34545976 -0.02926054 -0.14080478
v 0.34370515 -0.02496260 -0.14304312
v 0.34545976 -0.02663853 0.18084402
v 0.34499565 -0.02658447 0.18084402
v 0.26500753 0.04502085 0.16823474
v 0.27860302 0.02501786 0.17032385
v 0.25501186 0.04502085 0.16558604
v 0.23760147 0.05502235 0.16081093
v 0.22983587 0.06491572 0.15943062
v 0.23503181 0.01501636 -0.19683778
v 0.22983587 0.03018079 -0.19545747
v 0.23503181 0.02499083 -0.19534557
v 0.27242222 0.00501486 -0.19105542
v 0.26427174 0.03428952 -0.18881708
v 0.26988652 0.01985492 -0.18993625
v 0.27113172 0.01320528 -0.19042122
v 0.28575736 0.01501636 -0.18251243
v 0.29038727 0.01171857 -0.18019949
v 0.29088536 0.00501486 -0.18053524
v 0.32137051 -0.00495960 -0.16083789
v 0.32070261 -0.01293377 -0.16039021
v 0.27500322 0.04502085 -0.18381813
v 0.28120667 0.04502085 -0.18068446
v 0.28247452 0.03504638 -0.18146788
v 0.33918840 -0.00495960 -0.14942238
v 0.34545976 -0.01420423 -0.14330426
v 0.34545976 0.02504489 0.16603372
v 0.26500753 0.05499532 0.16674252
v 0.25501186 0.05499532 0.16607101
v 0.24500485 0.05499532 0.16342232
v 0.23070751 0.06491572 0.15972906
v 0.22983587 0.07467394 0.15816222
v 0.25761548 0.03715481 -0.18956320
v 0.22983587 0.04020932 -0.19392794
v 0.24800469 0.04775099 -0.18963781
v 0.25458169 0.04464242 -0.18896630
v 0.26501885 0.04502085 -0.18706372
v 0.26501885 0.05502235 -0.18542227
v 0.28872323 0.02499083 -0.17922954
v 0.31910649 0.03501935 -0.15942028
v 0.31981966 0.02896439 -0.15983063
v 0.33720738 0.03501935 -0.14822860
v 0.30799010 0.01501636 -0.16870937
v 0.33293968 0.02501786 -0.15184724
v 0.33793187 0.02501786 -0.14863896
v 0.30363184 0.00501486 -0.17232801
v 0.27553526 0.05469798 -0.18191555
v 0.28038028 0.05121097 -0.18016218
v 0.28621015 0.04502085 -0.17770001
v 0.30076787 0.03504638 -0.17046273
v 0.33910918 0.00501486 -0.14938506
v 0.34498432 0.00501486 -0.14472187
v 0.34498432 -0.00495960 -0.14472187
v 0.32637399 0.00501486 -0.15762961
v 0.34545976 -0.00547319 -0.14427420
v 0.34545976 0.03223515 0.16342232
v 0.34545976 0.03534373 0.16222854
v 0.26449811 0.06256402 0.16342232
v 0.25502318 0.06491572 0.16316117
v 0.25501186 0.06423995 0.16342232
v 0.23696755 0.07083553 0.16036326
v 0.23571101 0.06491572 0.16092284
v 0.23419411 0.07448472 0.15849797
v 0.22983587 0.08405373 0.15320058
v 0.22983587 0.04502085 -0.19318184
v 0.24133712 0.05142722 -0.19019739
v 0.26496226 0.06559150 -0.18195285
v 0.27255806 0.06259105 -0.18120673
v 0.23822409 0.05802280 -0.18963781
v 0.23156784 0.06053669 -0.19023469
v 0.29923964 0.04712927 -0.16953009
v 0.31281248 0.04502085 -0.16165861
v 0.33118507 0.04326383 -0.15065347
v 0.33221519 0.03501935 -0.15136227
v 0.33470562 0.04596694 -0.14789285
v 0.34322971 0.04502085 -0.14237162
v 0.34423718 0.03501935 -0.14322965
v 0.33852053 0.01504339 -0.14901201
v 0.27922562 0.05780655 -0.17952798
v 0.34545976 0.03501935 -0.14225970
v 0.34545976 0.00501486 -0.14431150
v 0.34545976 -0.00495960 -0.14431150
v 0.26432833 0.06529416 0.16215393
v 0.34545976 0.03991198 0.15984099
v 0.32071394 0.11011168 0.13007112
v 0.24502748 0.07118693 0.16058709
v 0.25502318 0.07064631 0.16040057
v 0.22983587 0.11884272 0.12898925
v 0.23503181 0.08375638 0.15320058
v 0.22983587 0.05491422 -0.19157769
v 0.23495257 0.05488719 -0.19071966
v 0.22983587 0.06561853 -0.18818289
v 0.26158884 0.07056522 -0.18023680
v 0.26825643 0.06926773 -0.17963991
v 0.26907146 0.08964916 -0.16979124
v 0.26987520 0.10989543 -0.15990524
v 0.27572772 0.07564706 -0.17348449
v 0.27553526 0.06559150 -0.17833421
v 0.22983587 0.06086106 -0.19038391
v 0.31143144 0.05272471 -0.16083789
v 0.31781599 0.04502085 -0.15856224
v 0.32995117 0.04991348 -0.14990735
v 0.34121472 0.05499532 -0.14084210
v 0.34545976 0.05499532 -0.13759650
v 0.34545976 0.04502085 -0.14061825
v 0.28541774 0.06510494 -0.17296220
v 0.29115707 0.06186121 -0.17072387
v 0.26053607 0.07010569 0.16006482
v 0.34545976 0.04418289 0.15760264
v 0.31498596 0.11043605 0.13025765
v 0.34545976 0.04480460 0.15726690
v 0.33497733 0.11243635 0.12227425
v 0.32801545 0.11949146 0.11951363
v 0.32134786 0.12024833 0.12022243
v 0.31498596 0.12070785 0.12067011
v 0.31498596 0.11540977 0.12566906
v 0.30497894 0.12127551 0.12111777
v 0.22983587 0.12146473 0.12663901
v 0.22983587 0.08126952 -0.18064715
v 0.24502748 0.09397413 -0.17191765
v 0.27474284 0.11511242 -0.15319024
v 0.28229338 0.11186869 -0.15136227
v 0.28893831 0.10878716 -0.14927316
v 0.27580693 0.10592186 -0.15867417
v 0.27966711 0.09959659 -0.15971872
v 0.27954260 0.07943141 -0.16971661
v 0.25502318 0.10500281 -0.16482958
v 0.22983587 0.10608405 -0.16844822
v 0.26323026 0.11078745 -0.16046484
v 0.26593578 0.11440962 -0.15710732
v 0.27123362 0.12068082 -0.15065347
v 0.28234997 0.07278176 -0.17135806
v 0.30879384 0.06007716 -0.16005448
v 0.32860407 0.05499532 -0.14908662
v 0.33497733 0.05499532 -0.14494571
v 0.34001479 0.05999607 -0.13994676
v 0.34335423 0.07494425 -0.13241103
v 0.34545976 0.07297099 -0.13151568
v 0.28899491 0.06853788 -0.16938087
v 0.30120933 0.07156537 -0.16076328
v 0.30879384 0.06502385 -0.15837573
v 0.30879384 0.06261808 -0.15919644
v 0.32979268 0.07962063 -0.13983484
v 0.29497194 0.12168097 0.12156545
v 0.26501885 0.12292440 0.12268461
v 0.34545976 0.10419187 0.12205042
v 0.34053552 0.11035496 0.12033436
v 0.34545976 0.11135511 0.11596961
v 0.34545976 0.13435856 0.09436966
v 0.33497733 0.12768188 0.10779968
v 0.32828712 0.12965514 0.10966496
v 0.32840031 0.13971071 0.09970437
v 0.30879384 0.12105927 0.12096855
v 0.32174408 0.14017023 0.10015203
v 0.31498596 0.14060272 0.10059970
v 0.28499889 0.14754972 0.09746603
v 0.27500322 0.14814439 0.09810022
v 0.26501885 0.14865799 0.09869712
v 0.25502318 0.14914455 0.09918209
v 0.28499889 0.12711422 0.11731261
v 0.22983587 0.15000954 0.09996551
v 0.25502318 0.12833062 0.11843178
v 0.24502748 0.14952299 0.09955514
v 0.22983587 0.09946144 -0.17173111
v 0.27788985 0.11851834 -0.14867626
v 0.29003635 0.12003209 -0.13998406
v 0.30870327 0.11892381 -0.12916544
v 0.30066597 0.11062527 -0.14039442
v 0.30733353 0.10751669 -0.13823070
v 0.31092203 0.10081299 -0.14050634
v 0.28537247 0.10527311 -0.15337677
v 0.29199475 0.10213751 -0.15113844
v 0.29866230 0.09840722 -0.14916123
v 0.30144706 0.09173055 -0.15083998
v 0.22983587 0.11486915 -0.16292700
v 0.23503181 0.11395009 -0.16277778
v 0.24502748 0.11289588 -0.16199437
v 0.25502318 0.11178760 -0.16113633
v 0.25502318 0.11678836 -0.15729386
v 0.26501885 0.12151879 -0.15139957
v 0.26501885 0.13181762 -0.14166281
v 0.26501885 0.13681838 -0.13692500
v 0.26501885 0.14706315 -0.12718824
v 0.27164114 0.14100820 -0.13091880
v 0.28499889 0.12159988 -0.14151359
v 0.28541774 0.07564706 -0.16814978
v 0.31091070 0.08105327 -0.15050423
v 0.33824885 0.06669977 -0.13882759
v 0.34150904 0.08256701 -0.13103071
v 0.34545976 0.07494425 -0.13080689
v 0.33947140 0.08924369 -0.12961310
v 0.33494335 0.07575518 -0.13782033
v 0.34545976 0.10594890 0.12059550
v 0.34545976 0.13562901 0.09287744
v 0.34138453 0.14087304 0.09093755
v 0.33497733 0.13784556 0.09802561
v 0.33497733 0.14281927 0.09302667
v 0.32692870 0.14955002 0.08918419
v 0.32433638 0.14484660 0.09485464
v 0.30879384 0.14600894 0.09582458
v 0.30879384 0.14779299 0.09392200
v 0.32026112 0.15000954 0.08996761
v 0.30879384 0.15065829 0.09082563
v 0.28499889 0.15203688 0.09242978
v 0.27500322 0.15257749 0.09310128
v 0.26501885 0.15311812 0.09373547
v 0.25502318 0.15363170 0.09414583
v 0.22983587 0.15187469 0.09791370
v 0.24502748 0.15401015 0.09448158
v 0.27829736 0.13892680 -0.12890430
v 0.32121202 0.13073638 -0.11069917
v 0.34002611 0.13000655 -0.09995516
v 0.32056677 0.12041052 -0.12032402
v 0.32723433 0.11738303 -0.11816029
v 0.33488676 0.11489618 -0.11491470
v 0.32931724 0.09929925 -0.12953851
v 0.33567917 0.09556895 -0.12793435
v 0.32047623 0.09051415 -0.14020790
v 0.31454447 0.08459435 -0.14662446
v 0.22983587 0.11943740 -0.15945758
v 0.23503181 0.11892381 -0.15900992
v 0.24502748 0.11789663 -0.15815188
v 0.25502318 0.12249191 -0.15229490
v 0.25502318 0.13279074 -0.14263275
v 0.25502318 0.14809033 -0.12815818
v 0.26501885 0.15217203 -0.12222660
v 0.27183357 0.15100969 -0.12103282
v 0.27505982 0.14498176 -0.12498721
v 0.34490508 0.08551340 -0.12718824
v 0.34545976 0.07816095 -0.12961310
v 0.34096566 0.10092111 -0.12065976
v 0.34457681 0.09435256 -0.12245043
v 0.34545976 0.09378491 -0.12215199
v 0.34545976 0.14171100 0.08522980
v 0.34482583 0.14249490 0.08459560
v 0.33543012 0.14790112 0.08552824
v 0.33239633 0.15117188 0.08254379
v 0.32684946 0.15941636 0.06885264
v 0.32410997 0.15744309 0.07400081
v 0.32415527 0.15182063 0.08552824
v 0.28978732 0.16995847 0.05989930
v 0.30497894 0.15868652 0.07747024
v 0.27500322 0.17098565 0.06168997
v 0.26501885 0.16879614 0.06777078
v 0.26501885 0.16098416 0.08176038
v 0.26501885 0.15814589 0.08675933
v 0.25502318 0.15865949 0.08765466
v 0.24502748 0.15895683 0.08821424
v 0.22983587 0.15406421 0.09537692
v 0.23503181 0.15922713 0.08866191
v 0.33848655 0.13911602 -0.08883809
v 0.34109020 0.15071236 -0.07096872
v 0.34232408 0.14157584 -0.08216039
v 0.34545976 0.13122295 -0.09316555
v 0.34545976 0.12733047 -0.09741838
v 0.34545976 0.12305956 -0.10122355
v 0.34399948 0.12400565 -0.10163391
v 0.33896202 0.11903194 -0.10924426
v 0.33230576 0.12184316 -0.11148259
v 0.29017222 0.15006360 -0.11006498
v 0.22983587 0.12224863 -0.15684620
v 0.22983587 0.12933077 -0.15020579
v 0.24502748 0.13370980 -0.14349079
v 0.24502748 0.13873759 -0.13875298
v 0.22983587 0.13495323 -0.14487110
v 0.22983587 0.14030538 -0.13972293
v 0.23739772 0.14957705 -0.12957580
v 0.25502318 0.15295593 -0.12319654
v 0.25502318 0.15801074 -0.11681729
v 0.26583391 0.15768637 -0.11450434
v 0.26969406 0.15990292 -0.10984115
v 0.27510509 0.15368576 -0.11536237
v 0.28499889 0.15144219 -0.11181834
v 0.34545976 0.08548637 -0.12674057
v 0.34223354 0.11235526 -0.11163181
v 0.34545976 0.09851535 -0.11890640
v 0.34545976 0.14227866 0.08425985
v 0.33906388 0.14938782 0.07888784
v 0.33912048 0.15952449 0.05911588
v 0.33546409 0.16295743 0.05545993
v 0.33245292 0.16101119 0.06217494
v 0.32499295 0.16930974 0.04844648
v 0.32499295 0.16628225 0.05497496
v 0.31909516 0.16982332 0.04960296
v 0.31498596 0.16047058 0.07090445
v 0.28314239 0.17041801 0.06075733
v 0.29497194 0.17187768 0.05393040
v 0.27500322 0.17858139 0.04646929
v 0.26501885 0.17928420 0.04840918
v 0.26501885 0.17590532 0.05490035
v 0.25502318 0.17201284 0.06362986
v 0.25502318 0.16144368 0.08269302
v 0.24930650 0.17993294 0.04986409
v 0.22983587 0.15933527 0.08884844
v 0.33022285 0.15009063 -0.08014590
v 0.33689043 0.14825252 -0.07760911
v 0.34545976 0.14046757 -0.08063086
v 0.34539184 0.13708869 -0.08529406
v 0.33412832 0.15200984 -0.07455005
v 0.33555466 0.15771340 -0.06511174
v 0.33926764 0.15965964 -0.05914284
v 0.34464473 0.15263155 -0.06451485
v 0.34545976 0.15238827 -0.06406718
v 0.34545976 0.14911751 -0.06876768
v 0.34545976 0.11538274 -0.10693131
v 0.34533525 0.11538274 -0.10704322
v 0.29408896 0.15192875 -0.10454375
v 0.30879384 0.15211797 -0.09335207
v 0.31243891 0.15130703 -0.09174793
v 0.22983587 0.14738753 -0.13285869
v 0.22983587 0.15014470 -0.13013539
v 0.24502748 0.15360467 -0.12394266
v 0.22983587 0.15944339 -0.11913024
v 0.24502748 0.15863246 -0.11774993
v 0.25502318 0.16098416 -0.11185565
v 0.26304916 0.16049761 -0.11092301
v 0.26501885 0.17401314 -0.08495831
v 0.26501885 0.17833811 -0.07682569
v 0.27071288 0.18025732 -0.07048374
v 0.27028272 0.17006660 -0.09014379
v 0.27500322 0.16152479 -0.10297691
v 0.28108212 0.16036244 -0.10073858
v 0.27500322 0.15882167 -0.10797586
v 0.28464797 0.15657809 -0.10443183
v 0.34545976 0.10532717 -0.11409398
v 0.34545976 0.14733347 0.07485884
v 0.34505224 0.14738753 0.07530651
v 0.34175807 0.15111782 0.07221015
v 0.34195054 0.16125447 0.05243818
v 0.33511317 0.16793114 0.04493976
v 0.33187559 0.17058019 0.04158225
v 0.32499295 0.17131002 0.04341023
v 0.27500322 0.18055466 0.04147034
v 0.26501885 0.18136559 0.04333562
v 0.25502318 0.18193324 0.04452940
v 0.25502318 0.17979778 0.04952835
v 0.24559349 0.18179809 0.04587240
v 0.23503181 0.18269011 0.04490245
v 0.22983587 0.18287933 0.04490245
v 0.23503181 0.18020326 0.05034907
v 0.22983587 0.18028435 0.05049829
v 0.32804939 0.15911901 -0.06854385
v 0.33260009 0.16093010 -0.06186615
v 0.31001639 0.16998550 -0.06000087
v 0.33555466 0.16217352 -0.05544959
v 0.33822620 0.16933677 -0.02780615
v 0.34138453 0.16074088 -0.05246514
v 0.34482583 0.15744309 -0.05544959
v 0.34545976 0.15703762 -0.05541229
v 0.34545976 0.15674028 -0.05604648
v 0.22983587 0.15465888 -0.12491260
v 0.23444316 0.15338843 -0.12573332
v 0.22983587 0.16995847 -0.09991786
v 0.25502318 0.16871504 -0.09764221
v 0.25502318 0.17555390 -0.08495831
v 0.25502318 0.17909499 -0.07835522
v 0.26501885 0.18093309 -0.07178944
v 0.29269660 0.17103972 -0.07193866
v 0.26501885 0.18314964 -0.06496252
v 0.27442589 0.18093309 -0.06436563
v 0.28059536 0.18020326 -0.06056046
v 0.32138184 0.16049761 -0.07096872
v 0.31016356 0.16001104 -0.08007128
v 0.28771573 0.15903792 -0.09827641
v 0.34545976 0.15236124 0.06515939
v 0.34545976 0.15768637 0.05482574
v 0.34516543 0.16271415 0.04471592
v 0.33856580 0.16941786 0.03494186
v 0.28066328 0.18006809 0.04023925
v 0.33357361 0.17117487 0.03494186
v 0.32499295 0.17341845 0.03494186
v 0.31498596 0.17531063 0.03494186
v 0.26501885 0.18369026 0.03490455
v 0.25502318 0.18490666 0.03490455
v 0.24502748 0.18533915 0.03490455
v 0.22983587 0.18587978 0.03490455
v 0.32528728 0.17182362 -0.03508074
v 0.33497733 0.16549835 -0.04492941
v 0.33493203 0.17141816 -0.02467248
v 0.34055814 0.17028284 -0.02112845
v 0.34545976 0.16047058 -0.04492941
v 0.34545976 0.15955152 -0.04795117
v 0.22983587 0.18020326 -0.08040703
v 0.23847313 0.17985184 -0.07973553
v 0.25502318 0.18166293 -0.07335627
v 0.25502318 0.18447417 -0.06496252
v 0.26501885 0.18523103 -0.05492731
v 0.27500322 0.18298745 -0.05492731
v 0.28999108 0.17995997 -0.04996567
v 0.34545976 0.16257899 0.04452940
v 0.34498432 0.16544428 0.03494186
v 0.33953935 0.16979629 0.02845069
v 0.30879384 0.17636484 0.03494186
v 0.28439894 0.18058169 0.03445689
v 0.33572444 0.17144519 0.02505588
v 0.33497733 0.17263456 0.01490876
v 0.32499295 0.17455375 0.02498126
v 0.31498596 0.17677030 0.02498126
v 0.30097163 0.18017623 0.02098957
v 0.27500322 0.18747461 0.00491086
v 0.26501885 0.18736649 0.01490876
v 0.26190582 0.19023179 0.00166527
v 0.25502318 0.18966413 0.00804453
v 0.22983587 0.19269161 -0.00508704
v 0.25502318 0.19190770 -0.00508704
v 0.33497733 0.17385095 -0.01501033
v 0.34187129 0.17112081 -0.01501033
v 0.34545976 0.16871504 -0.01501033
v 0.22983587 0.18258199 -0.07537077
v 0.24502748 0.18509588 -0.06496252
v 0.25502318 0.18631227 -0.05492731
v 0.26054740 0.19004257 -0.03060407
v 0.26766777 0.18947491 -0.02493362
v 0.27500322 0.18466339 -0.04492941
v 0.29890004 0.17971669 -0.03821441
v 0.34545976 0.16511992 0.03494186
v 0.34416926 0.16720131 0.02505588
v 0.34029779 0.17014769 0.02177298
v 0.33497733 0.17447266 -0.00501243
v 0.32499295 0.17701359 -0.00501243
v 0.31638965 0.17909499 -0.00501243
v 0.28499889 0.18666369 -0.00508704
v 0.27095062 0.19015069 -0.00848185
v 0.26515469 0.19085351 -0.00512435
v 0.26857337 0.18971819 -0.00180415
v 0.22983587 0.19352958 -0.01501033
v 0.25502318 0.19244833 -0.01501033
v 0.32499295 0.17663515 -0.01501033
v 0.34255049 0.17155331 -0.00501243
v 0.34545976 0.16933677 -0.00870568
v 0.22983587 0.18590681 -0.06496252
v 0.23503181 0.18563651 -0.06496252
v 0.22983587 0.18971819 -0.04269108
v 0.25502318 0.19139412 -0.02493362
v 0.26266426 0.19050209 -0.02493362
v 0.26968277 0.18985336 -0.01915125
v 0.27500322 0.18769087 -0.02493362
v 0.30879384 0.17968966 -0.02243414
v 0.34545976 0.16763380 0.01386420
v 0.34545976 0.16866098 0.00494816
v 0.34089774 0.17052613 0.01490876
v 0.34178072 0.17106675 0.00494816
v 0.31148803 0.18033841 -0.01277199
v 0.27095062 0.19015069 -0.01258546
v 0.26583391 0.19104272 -0.01553261
v 0.22983587 0.19255646 -0.02493362
v 0.24502748 0.19188067 -0.02493362
v 0.31489539 0.17912202 -0.01564452
v 0.34545976 0.16963410 -0.00501243
v 0.30879384 0.18001403 -0.02015850
f 1 2 3
f 1 3 6
f 1 6 15
f 1 15 28
f 1 28 41
f 1 41 42
f 1 42 48
f 1 48 31
f 1 31 19
f 1 19 18
f 1 18 8
f 1 8 4
f 1 4 12
f 1 12 22
f 1 22 21
f 1 21 34
f 1 34 55
f 1 55 54
f 1 54 79
f 1 79 101
f 1 101 124
f 1 124 156
f 1 156 180
f 1 180 210
f 1 210 253
f 1 253 300
f 1 300 341
f 1 341 386
f 1 386 433
f 1 433 431
f 1 431 468
f 1 468 496
f 1 496 518
f 1 518 538
f 1 538 525
f 1 525 523
f 1 523 501
f 1 501 475
f 1 475 445
f 1 445 405
f 1 405 443
f 1 443 403
f 1 403 402
f 1 402 358
f 1 358 357
f 1 357 354
f 1 354 353
f 1 353 312
f 1 312 267
f 1 267 220
f 1 220 256
f 1 256 211
f 1 211 184
f 1 184 191
f 1 191 182
f 1 182 157
f 1 157 126
f 1 126 103
f 1 103 80
f 1 80 57
f 1 57 56
f 1 56 35
f 1 35 23
f 1 23 13
f 1 13 5
f 1 5 2
f 2 5 3
f 3 5 7
f 3 7 6
f 4 8 9
f 4 9 10
f 4 10 11
f 4 11 12
f 5 13 14
f 5 14 7
f 6 7 16
f 6 16 15
f 7 14 17
f 7 17 16
f 8 18 9
f 9 18 19
f 9 19 31
f 9 31 50
f 9 50 72
f 9 72 71
f 9 71 93
f 9 93 118
f 9 118 147
f 9 147 174
f 9 174 173
f 9 173 172
f 9 172 197
f 9 197 196
f 9 196 230
f 9 230 282
f 9 282 322
f 9 322 366
f 9 366 325
f 9 325 368
f 9 368 417
f 9 417 397
f 9 397 348
f 9 348 347
f 9 347 346
f 9 346 389
f 9 389 396
f 9 396 395
f 9 395 442
f 9 442 441
f 9 441 474
f 9 474 473
f 9 473 500
f 9 500 522
f 9 522 541
f 9 541 532
f 9 532 531
f 9 531 508
f 9 508 482
f 9 482 458
f 9 458 457
f 9 457 418
f 9 418 369
f 9 369 326
f 9 326 286
f 9 286 241
f 9 241 240
f 9 240 285
f 9 285 238
f 9 238 203
f 9 203 201
f 9 201 176
f 9 176 149
f 9 149 148
f 9 148 119
f 9 119 95
f 9 95 75
f 9 75 51
f 9 51 32
f 9 32 20
f 9 20 11
f 9 11 10
f 11 20 21
f 11 21 22
f 11 22 12
f 13 23 24
f 13 24 14
f 14 24 25
f 14 25 17
f 15 16 26
f 15 26 27
f 15 27 28
f 16 29 30
f 16 30 26
f 16 17 25
f 16 25 29
f 20 32 33
f 20 33 34
f 20 34 21
f 23 35 36
f 23 36 24
f 24 36 37
f 24 37 25
f 25 37 38
f 25 38 29
f 26 39 40
f 26 40 27
f 26 30 39
f 27 41 28
f 27 40 42
f 27 42 41
f 29 43 30
f 29 38 44
f 29 44 43
f 30 45 39
f 30 43 46
f 30 46 47
f 30 47 45
f 31 48 49
f 31 49 50
f 32 51 52
f 32 52 53
f 32 53 54
f 32 54 33
f 33 54 55
f 33 55 34
f 35 56 37
f 35 37 36
f 37 56 57
f 37 57 38
f 38 57 58
f 38 58 59
f 38 59 60
f 38 60 44
f 39 45 42
f 39 42 40
f 42 61 48
f 42 45 61
f 43 44 62
f 43 62 63
f 43 63 64
f 43 64 65
f 43 65 66
f 43 66 67
f 43 67 68
f 43 68 46
f 44 60 62
f 45 47 69
f 45 69 61
f 46 70 47
f 46 68 70
f 47 71 72
f 47 72 73
f 47 73 49
f 47 49 69
f 47 70 74
f 47 74 71
f 48 61 49
f 49 61 69
f 49 73 50
f 50 73 72
f 51 75 76
f 51 76 77
f 51 77 53
f 51 53 52
f 53 77 78
f 53 78 79
f 53 79 54
f 57 80 58
f 58 80 81
f 58 81 59
f 59 81 82
f 59 82 60
f 60 82 62
f 62 82 63
f 63 83 84
f 63 84 85
f 63 85 86
f 63 86 64
f 63 82 87
f 63 87 83
f 64 86 65
f 65 88 89
f 65 89 66
f 65 86 90
f 65 90 88
f 66 89 67
f 67 89 68
f 68 89 91
f 68 91 92
f 68 92 70
f 70 92 74
f 71 74 93
f 74 92 91
f 74 91 94
f 74 94 93
f 75 95 96
f 75 96 97
f 75 97 76
f 76 97 98
f 76 98 77
f 77 98 78
f 78 98 99
f 78 99 100
f 78 100 79
f 79 100 101
f 80 102 81
f 80 103 104
f 80 104 102
f 81 105 82
f 81 102 106
f 81 106 107
f 81 107 108
f 81 108 105
f 82 105 87
f 83 109 110
f 83 110 111
f 83 111 84
f 83 87 109
f 84 111 112
f 84 112 113
f 84 113 90
f 84 90 85
f 85 90 86
f 87 105 114
f 87 114 115
f 87 115 116
f 87 116 109
f 88 113 89
f 88 90 113
f 89 113 117
f 89 117 91
f 91 117 118
f 91 118 94
f 93 94 118
f 95 119 120
f 95 120 96
f 96 120 97
f 97 120 121
f 97 121 122
f 97 122 99
f 97 99 98
f 99 122 101
f 99 101 100
f 101 122 123
f 101 123 124
f 102 104 125
f 102 125 106
f 103 126 127
f 103 127 104
f 104 127 128
f 104 128 125
f 105 108 114
f 106 125 129
f 106 129 107
f 107 129 130
f 107 130 114
f 107 114 108
f 109 116 131
f 109 131 132
f 109 132 110
f 110 132 133
f 110 133 134
f 110 134 111
f 111 134 135
f 111 135 136
f 111 136 137
f 111 137 138
f 111 138 117
f 111 117 112
f 112 117 113
f 114 130 139
f 114 139 140
f 114 140 115
f 115 140 141
f 115 141 116
f 116 141 142
f 116 142 131
f 117 143 144
f 117 144 145
f 117 145 118
f 117 138 146
f 117 146 143
f 118 145 147
f 119 148 120
f 120 148 149
f 120 149 150
f 120 150 151
f 120 151 152
f 120 152 153
f 120 153 121
f 121 153 154
f 121 154 123
f 121 123 122
f 123 154 124
f 124 154 153
f 124 153 155
f 124 155 156
f 125 128 129
f 126 157 127
f 127 157 158
f 127 158 130
f 127 130 129
f 127 129 128
f 130 159 160
f 130 160 139
f 130 158 161
f 130 161 162
f 130 162 159
f 131 142 132
f 132 142 163
f 132 163 164
f 132 164 165
f 132 165 166
f 132 166 133
f 133 166 134
f 134 137 136
f 134 136 135
f 134 166 165
f 134 165 167
f 134 167 168
f 134 168 169
f 134 169 137
f 137 169 170
f 137 170 146
f 137 146 138
f 139 160 171
f 139 171 140
f 140 171 163
f 140 163 141
f 141 163 142
f 143 170 169
f 143 169 172
f 143 172 144
f 143 146 170
f 144 172 173
f 144 173 174
f 144 174 145
f 145 174 147
f 149 175 150
f 149 176 177
f 149 177 175
f 150 175 151
f 151 178 152
f 151 175 179
f 151 179 178
f 152 178 153
f 153 178 155
f 155 178 156
f 156 178 181
f 156 181 180
f 157 182 183
f 157 183 158
f 158 183 161
f 159 162 184
f 159 184 185
f 159 185 186
f 159 186 160
f 160 186 187
f 160 187 188
f 160 188 189
f 160 189 190
f 160 190 171
f 161 183 182
f 161 182 162
f 162 182 191
f 162 191 184
f 163 171 164
f 164 171 192
f 164 192 193
f 164 193 165
f 165 193 167
f 167 193 192
f 167 192 194
f 167 194 195
f 167 195 168
f 168 195 196
f 168 196 197
f 168 197 169
f 169 197 172
f 171 190 198
f 171 198 199
f 171 199 192
f 175 177 200
f 175 200 179
f 176 201 177
f 177 202 179
f 177 179 200
f 177 201 203
f 177 203 204
f 177 204 205
f 177 205 206
f 177 206 207
f 177 207 208
f 177 208 209
f 177 209 202
f 178 179 181
f 179 202 181
f 180 181 202
f 180 202 210
f 184 211 212
f 184 212 187
f 184 187 185
f 185 187 186
f 187 212 188
f 188 213 214
f 188 214 215
f 188 215 216
f 188 216 217
f 188 217 218
f 188 218 189
f 188 212 219
f 188 219 220
f 188 220 221
f 188 221 222
f 188 222 223
f 188 223 213
f 189 218 190
f 190 218 224
f 190 224 198
f 192 199 225
f 192 225 226
f 192 226 194
f 194 226 227
f 194 227 195
f 195 227 228
f 195 228 229
f 195 229 230
f 195 230 196
f 198 224 231
f 198 231 232
f 198 232 199
f 199 233 234
f 199 234 225
f 199 232 235
f 199 235 233
f 202 209 236
f 202 236 237
f 202 237 210
f 203 238 204
f 204 238 239
f 204 239 240
f 204 240 241
f 204 241 242
f 204 242 205
f 205 242 243
f 205 243 206
f 206 243 244
f 206 244 207
f 207 245 208
f 207 244 246
f 207 246 247
f 207 247 248
f 207 248 249
f 207 249 250
f 207 250 245
f 208 245 209
f 209 245 251
f 209 251 252
f 209 252 236
f 210 237 254
f 210 254 251
f 210 251 255
f 210 255 253
f 211 256 212
f 212 256 219
f 213 223 257
f 213 257 214
f 214 257 258
f 214 258 259
f 214 259 260
f 214 260 215
f 215 260 261
f 215 261 262
f 215 262 263
f 215 263 216
f 216 263 264
f 216 264 217
f 217 224 218
f 217 264 265
f 217 265 266
f 217 266 224
f 219 256 220
f 220 267 268
f 220 268 269
f 220 269 270
f 220 270 221
f 221 270 271
f 221 271 222
f 222 271 272
f 222 272 223
f 223 273 274
f 223 274 275
f 223 275 276
f 223 276 277
f 223 277 258
f 223 258 257
f 223 272 273
f 224 232 231
f 224 266 278
f 224 278 279
f 224 279 232
f 225 234 226
f 226 235 280
f 226 280 227
f 226 234 233
f 226 233 235
f 227 280 228
f 228 280 281
f 228 281 229
f 229 281 282
f 229 282 230
f 232 279 283
f 232 283 235
f 235 283 281
f 235 281 284
f 235 284 280
f 236 252 237
f 237 252 251
f 237 251 254
f 238 285 239
f 239 285 240
f 241 286 287
f 241 287 242
f 242 287 288
f 242 288 243
f 243 288 244
f 244 288 289
f 244 289 290
f 244 290 291
f 244 291 292
f 244 292 246
f 245 250 251
f 246 292 248
f 246 248 247
f 248 292 293
f 248 293 294
f 248 294 295
f 248 295 296
f 248 296 249
f 249 296 297
f 249 297 298
f 249 298 250
f 250 298 251
f 251 298 299
f 251 299 255
f 253 255 300
f 255 299 301
f 255 301 300
f 258 277 276
f 258 276 302
f 258 302 303
f 258 303 304
f 258 304 259
f 259 304 305
f 259 305 306
f 259 306 260
f 260 306 307
f 260 307 261
f 261 308 262
f 261 307 308
f 262 308 309
f 262 309 283
f 262 283 265
f 262 265 264
f 262 264 263
f 265 283 310
f 265 310 266
f 266 310 311
f 266 311 279
f 266 279 278
f 267 312 269
f 267 269 268
f 269 312 313
f 269 313 314
f 269 314 271
f 269 271 270
f 271 314 272
f 272 314 313
f 272 313 315
f 272 315 316
f 272 316 273
f 273 316 317
f 273 317 274
f 274 317 275
f 275 317 318
f 275 318 276
f 276 318 319
f 276 319 320
f 276 320 302
f 279 311 283
f 280 284 281
f 281 283 321
f 281 321 322
f 281 322 282
f 283 311 310
f 283 309 323
f 283 323 324
f 283 324 325
f 283 325 321
f 286 326 287
f 287 289 288
f 287 326 327
f 287 327 328
f 287 328 289
f 289 328 290
f 290 294 291
f 290 328 329
f 290 329 330
f 290 330 331
f 290 331 332
f 290 332 333
f 290 333 334
f 290 334 294
f 291 294 292
f 292 294 293
f 294 334 335
f 294 335 336
f 294 336 337
f 294 337 338
f 294 338 339
f 294 339 295
f 295 339 296
f 296 339 297
f 297 339 298
f 298 339 299
f 299 339 340
f 299 340 301
f 300 301 341
f 301 340 342
f 301 342 341
f 302 320 304
f 302 304 303
f 304 343 344
f 304 344 345
f 304 345 346
f 304 346 347
f 304 347 348
f 304 348 349
f 304 349 350
f 304 350 351
f 304 351 305
f 304 320 319
f 304 319 352
f 304 352 343
f 305 351 350
f 305 350 306
f 306 350 307
f 307 350 323
f 307 323 309
f 307 309 308
f 312 353 315
f 312 315 313
f 315 353 354
f 315 354 355
f 315 355 316
f 316 355 356
f 316 356 317
f 317 356 357
f 317 357 358
f 317 358 359
f 317 359 360
f 317 360 318
f 318 360 361
f 318 361 362
f 318 362 319
f 319 362 363
f 319 363 364
f 319 364 365
f 319 365 352
f 321 366 322
f 321 325 366
f 323 350 367
f 323 367 368
f 323 368 324
f 324 368 325
f 326 369 327
f 327 369 370
f 327 370 328
f 328 370 329
f 329 370 371
f 329 371 372
f 329 372 373
f 329 373 330
f 330 373 374
f 330 374 375
f 330 375 376
f 330 376 377
f 330 377 331
f 331 377 332
f 332 377 333
f 333 378 334
f 333 377 376
f 333 376 379
f 333 379 380
f 333 380 381
f 333 381 378
f 334 378 382
f 334 382 335
f 335 382 336
f 336 382 383
f 336 383 384
f 336 384 337
f 337 384 339
f 337 339 338
f 339 384 340
f 340 384 383
f 340 383 385
f 340 385 342
f 341 342 386
f 342 385 386
f 343 387 388
f 343 388 344
f 343 352 387
f 344 389 390
f 344 390 345
f 344 388 391
f 344 391 392
f 344 392 393
f 344 393 394
f 344 394 395
f 344 395 396
f 344 396 389
f 345 390 346
f 346 390 389
f 348 397 398
f 348 398 350
f 348 350 349
f 350 398 367
f 352 365 399
f 352 399 400
f 352 400 401
f 352 401 387
f 354 357 356
f 354 356 355
f 358 402 359
f 359 402 403
f 359 403 360
f 360 404 405
f 360 405 406
f 360 406 361
f 360 403 404
f 361 407 408
f 361 408 362
f 361 406 407
f 362 408 363
f 363 408 409
f 363 409 410
f 363 410 411
f 363 411 412
f 363 412 413
f 363 413 414
f 363 414 415
f 363 415 364
f 364 415 365
f 365 415 416
f 365 416 399
f 367 398 417
f 367 417 368
f 369 418 419
f 369 419 370
f 370 419 420
f 370 420 421
f 370 421 371
f 371 421 372
f 372 421 422
f 372 422 373
f 373 422 423
f 373 423 374
f 374 423 424
f 374 424 380
f 374 380 376
f 374 376 375
f 376 380 379
f 378 381 382
f 380 424 425
f 380 425 426
f 380 426 381
f 381 426 427
f 381 427 428
f 381 428 382
f 382 428 383
f 383 428 385
f 385 428 427
f 385 427 429
f 385 429 430
f 385 430 431
f 385 431 432
f 385 432 386
f 386 432 433
f 387 391 388
f 387 401 400
f 387 400 391
f 391 400 392
f 392 434 393
f 392 400 399
f 392 399 434
f 393 395 394
f 393 434 435
f 393 435 411
f 393 411 436
f 393 436 437
f 393 437 438
f 393 438 439
f 393 439 440
f 393 440 441
f 393 441 442
f 393 442 395
f 397 417 398
f 399 416 434
f 403 443 444
f 403 444 404
f 404 444 443
f 404 443 405
f 405 407 406
f 405 445 407
f 407 445 446
f 407 446 408
f 408 446 447
f 408 447 448
f 408 448 409
f 409 448 410
f 410 448 449
f 410 449 411
f 411 450 413
f 411 413 412
f 411 449 451
f 411 451 452
f 411 452 453
f 411 453 436
f 411 435 450
f 413 450 414
f 414 450 454
f 414 454 455
f 414 455 456
f 414 456 415
f 415 456 434
f 415 434 416
f 418 457 419
f 419 457 421
f 419 421 420
f 421 457 458
f 421 458 459
f 421 459 422
f 422 459 460
f 422 460 423
f 423 461 424
f 423 460 462
f 423 462 463
f 423 463 464
f 423 464 461
f 424 461 425
f 425 461 465
f 425 465 426
f 426 465 466
f 426 466 427
f 427 430 429
f 427 466 430
f 430 466 467
f 430 467 431
f 431 467 468
f 431 433 432
f 434 456 455
f 434 455 454
f 434 454 435
f 435 454 450
f 436 453 469
f 436 469 470
f 436 470 437
f 437 470 438
f 438 470 469
f 438 469 471
f 438 471 472
f 438 472 439
f 439 473 474
f 439 474 441
f 439 441 440
f 439 472 473
f 445 475 476
f 445 476 448
f 445 448 447
f 445 447 446
f 448 476 477
f 448 477 449
f 449 477 478
f 449 478 451
f 451 478 479
f 451 479 480
f 451 480 452
f 452 480 453
f 453 480 481
f 453 481 469
f 458 482 459
f 459 482 483
f 459 483 460
f 460 483 484
f 460 484 462
f 461 464 485
f 461 485 486
f 461 486 465
f 462 484 487
f 462 487 488
f 462 488 489
f 462 489 463
f 463 489 490
f 463 490 491
f 463 491 464
f 464 491 492
f 464 492 485
f 465 486 493
f 465 493 494
f 465 494 466
f 466 494 495
f 466 495 467
f 467 495 468
f 468 495 497
f 468 497 496
f 469 481 471
f 471 498 472
f 471 481 498
f 472 498 499
f 472 499 473
f 473 499 500
f 475 501 477
f 475 477 476
f 477 501 478
f 478 502 503
f 478 503 479
f 478 501 502
f 479 503 504
f 479 504 505
f 479 505 506
f 479 506 480
f 480 506 507
f 480 507 481
f 481 507 498
f 482 508 483
f 483 508 509
f 483 509 510
f 483 510 484
f 484 510 487
f 485 492 486
f 486 492 493
f 487 510 511
f 487 511 488
f 488 511 489
f 489 511 512
f 489 512 513
f 489 513 514
f 489 514 515
f 489 515 490
f 490 515 491
f 491 515 516
f 491 516 517
f 491 517 492
f 492 517 494
f 492 494 493
f 494 517 516
f 494 516 497
f 494 497 495
f 496 497 518
f 497 516 519
f 497 519 518
f 498 520 511
f 498 511 521
f 498 521 499
f 498 507 520
f 499 521 522
f 499 522 500
f 501 523 524
f 501 524 502
f 502 524 503
f 503 525 526
f 503 526 504
f 503 524 525
f 504 526 527
f 504 527 505
f 505 527 528
f 505 528 529
f 505 529 506
f 506 529 530
f 506 530 507
f 507 530 520
f 508 531 509
f 509 531 532
f 509 532 510
f 510 532 533
f 510 533 511
f 511 534 521
f 511 520 535
f 511 535 512
f 511 533 534
f 512 535 515
f 512 515 513
f 513 515 514
f 515 535 536
f 515 536 537
f 515 537 516
f 516 537 519
f 518 519 538
f 519 537 527
f 519 527 526
f 519 526 539
f 519 539 538
f 520 530 540
f 520 540 535
f 521 534 532
f 521 532 541
f 521 541 522
f 523 525 524
f 525 538 539
f 525 539 526
f 527 537 528
f 528 542 530
f 528 530 529
f 528 537 536
f 528 536 535
f 528 535 540
f 528 540 542
f 530 542 540
f 532 534 533

