# https://github.com/mikedh/trimesh
v -0.00066813 -0.11500645 0.11480486
v -0.00066813 -0.11087994 0.11438493
v -0.02983037 -0.10997826 0.11999410
v -0.02983037 -0.11003130 0.11999410
v -0.03500448 -0.11045562 0.12023407
v -0.04500850 -0.11123000 0.12065402
v -0.05500175 -0.11191952 0.12110394
v -0.06499501 -0.11253479 0.12152389
v -0.07499902 -0.11308640 0.12197381
v -0.00066813 -0.12095753 0.11084545
v -0.00066813 -0.10473791 0.11354505
v -0.03500448 -0.10958576 0.12023407
v -0.10498954 -0.11455031 0.12329362
v -0.11056167 -0.11533530 0.12323363
v -0.11056167 -0.11931329 0.12023407
v -0.11056167 -0.11984369 0.11981413
v -0.00066813 -0.12595390 0.10631612
v -0.10913099 -0.09991127 0.12008409
v -0.09499629 -0.10071748 0.11936420
v -0.05500175 -0.10817491 0.12110394
v -0.00066813 -0.08480550 0.09782736
v -0.09499629 -0.10571384 0.12284368
v -0.11056167 -0.10462122 0.12350360
v -0.07499902 -0.10690194 0.12197381
v -0.11056167 -0.12217745 0.11762445
v -0.00066813 -0.15236780 0.08222964
v -0.00066813 -0.15002343 0.08438933
v -0.00066813 -0.14694712 0.08720891
v -0.00066813 -0.14478308 0.08918862
v -0.00066813 -0.14195074 0.09176825
v -0.11056167 -0.09982641 0.12014408
v -0.11056167 -0.10115241 0.12107395
v -0.09457676 -0.08480550 0.10667606
v -0.00066813 -0.08480550 -0.18293145
v -0.11056167 -0.12492492 0.11504483
v -0.00066813 -0.15736416 0.07623053
v -0.11056167 -0.15075538 0.09071840
v -0.09563094 -0.08480550 0.10676605
v -0.11056167 -0.08480550 0.10790588
v -0.00066813 -0.09057625 -0.18026184
v -0.00500320 -0.08500705 -0.18281147
v -0.00500320 -0.08480550 -0.18290146
v -0.11056167 -0.15523195 0.08498923
v -0.11056167 -0.15947515 0.07902011
v -0.00066813 -0.15926298 0.07341094
v -0.11056167 -0.08480550 -0.18107173
v -0.00066813 -0.10500311 -0.17357282
v -0.00500320 -0.10500311 -0.17354283
v -0.01500722 -0.09540288 -0.17786220
v -0.03987741 -0.09000342 -0.17999189
v -0.03582202 -0.08480550 -0.18245152
v -0.00066813 -0.16850255 0.05733329
v -0.00066813 -0.16069508 0.07125126
v -0.11056167 -0.16948909 0.06057282
v -0.00066813 -0.18065931 0.03558649
v -0.00066813 -0.17911054 0.03840607
v -0.00066813 -0.17361560 0.04821463
v -0.06499501 -0.08480550 -0.18194160
v -0.01500722 -0.10500311 -0.17339285
v -0.11056167 -0.08574961 -0.18062179
v -0.00066813 -0.10761268 -0.17228301
v -0.00500320 -0.11098602 -0.17060326
v -0.04500850 -0.08490097 -0.18227154
v -0.04509455 -0.08480550 -0.18230154
v -0.11056167 -0.17115454 0.05748327
v -0.00066813 -0.18184741 0.03339681
v -0.01500722 -0.11084811 -0.17051327
v -0.04500850 -0.11030711 -0.17018332
v -0.06050934 -0.11002070 -0.17000334
v -0.11056167 -0.10900232 -0.16946343
v -0.11056167 -0.10400596 -0.17189308
v -0.00066813 -0.11100724 -0.17060326
v -0.00066813 -0.11317126 -0.16901349
v -0.00500320 -0.11599299 -0.16691379
v -0.11056167 -0.17760420 0.04551503
v -0.11056167 -0.17908932 0.04275544
v -0.11056167 -0.18027742 0.04053576
v -0.00066813 -0.18353407 0.02868750
v -0.01500722 -0.11584448 -0.16679382
v -0.11056167 -0.11500645 -0.16496408
v -0.11056167 -0.11165433 -0.16748372
v -0.00066813 -0.11600360 -0.16691379
v -0.00066813 -0.11865560 -0.16475412
v -0.00500320 -0.12211380 -0.16190453
v -0.01500722 -0.12198651 -0.16178454
v -0.11056167 -0.18223989 0.03498657
v -0.00066813 -0.18484947 0.02499804
v -0.05500175 -0.12139246 -0.16124463
v -0.07499902 -0.12108482 -0.16097467
v -0.11056167 -0.11746750 -0.16295438
v -0.00066813 -0.12212441 -0.16190453
v -0.00066813 -0.12429905 -0.15995482
v -0.00066813 -0.12951818 -0.15521552
v -0.00500320 -0.13261572 -0.15236594
v -0.01500722 -0.12698287 -0.15725522
v -0.04500850 -0.18481764 0.02499804
v -0.11056167 -0.18475398 0.02499804
v -0.00066813 -0.18600574 0.01932887
v -0.05500175 -0.12638882 -0.15671529
v -0.11056167 -0.12051199 -0.16046475
v -0.00066813 -0.13480096 -0.15041623
v -0.00500320 -0.14310701 -0.14282733
v -0.01500722 -0.14299034 -0.14270735
v -0.02500047 -0.13734688 -0.14756665
v -0.11056167 -0.18812734 0.00499098
v -0.00066813 -0.19210532 -0.01501609
v -0.00066813 -0.19062021 -0.00643735
v -0.00066813 -0.18862590 0.00499098
v -0.00066813 -0.18687560 0.01497951
v -0.01500722 -0.14798670 -0.13814802
v -0.05500175 -0.13187316 -0.15170604
v -0.11056167 -0.12273967 -0.15839505
v -0.00066813 -0.14812461 -0.13829800
v -0.00500320 -0.14811400 -0.13826801
v -0.11056167 -0.18995191 -0.00583743
v -0.11056167 -0.19146885 -0.01501609
v -0.00066813 -0.19272059 -0.02068526
v -0.11056167 -0.19032319 -0.00805711
v -0.00500320 -0.15324825 -0.13328874
v -0.01500722 -0.15309975 -0.13313876
v -0.02500047 -0.14781697 -0.13796805
v -0.03500448 -0.14763664 -0.13778807
v -0.11056167 -0.14616212 -0.13640828
v -0.00066813 -0.15325886 -0.13328874
v -0.11056167 -0.19158554 -0.02500462
v -0.00500320 -0.19314492 -0.02500462
v -0.00066813 -0.19316614 -0.02500462
v -0.00066813 -0.15542290 -0.13070911
v -0.00500320 -0.15824462 -0.12731962
v -0.11056167 -0.15143429 -0.13139902
v -0.11056167 -0.19043988 -0.03262351
v -0.01500722 -0.19226445 -0.03499316
v -0.00500320 -0.19246601 -0.03499316
v -0.00066813 -0.19279486 -0.03064380
v -0.00066813 -0.15825523 -0.12731962
v -0.00066813 -0.15958123 -0.12515993
v -0.00500320 -0.16129972 -0.12231034
v -0.01500722 -0.16117242 -0.12210038
v -0.01500722 -0.15810671 -0.12707965
v -0.11056167 -0.15626092 -0.12497996
v -0.11056167 -0.18960184 -0.03763277
v -0.11056167 -0.18498737 -0.06498876
v -0.01500722 -0.18982461 -0.04903110
v -0.00500320 -0.19080055 -0.04459175
v -0.00066813 -0.19248721 -0.03499316
v -0.00066813 -0.16131033 -0.12231034
v -0.00066813 -0.16542622 -0.11499143
v -0.00500320 -0.16540502 -0.11499143
v -0.01500722 -0.17638429 -0.09498435
v -0.01500722 -0.16516103 -0.11499143
v -0.02500047 -0.17164251 -0.10293318
v -0.03500448 -0.16088602 -0.12159045
v -0.11056167 -0.15782030 -0.12264030
v -0.11056167 -0.15981461 -0.11964074
v -0.00500320 -0.18544352 -0.07497729
v -0.01500722 -0.18704532 -0.06498876
v -0.11056167 -0.18273848 -0.07497729
v -0.01500722 -0.18522075 -0.07497729
v -0.00500320 -0.18723626 -0.06498876
v -0.00066813 -0.18726808 -0.06498876
v -0.00066813 -0.18994130 -0.04966100
v -0.00066813 -0.19081116 -0.04465174
v -0.00066813 -0.17972580 -0.08949516
v -0.00500320 -0.17971520 -0.08946517
v -0.01500722 -0.17958790 -0.08925520
v -0.11056167 -0.16102391 -0.11742106
v -0.00066813 -0.18546472 -0.07497729
v -0.01500722 -0.18213382 -0.08424594
v -0.00500320 -0.18225050 -0.08448590
v -0.11056167 -0.18066992 -0.08124638
v -0.02500047 -0.18198530 -0.08394597
v -0.00066813 -0.18226111 -0.08448590
v -0.02500047 -0.17942879 -0.08892524
v -0.00066813 -0.18365076 -0.08037650
f 1 2 3
f 1 3 4
f 1 4 5
f 1 5 6
f 1 6 7
f 1 7 8
f 1 8 9
f 1 9 10
f 1 10 17
f 1 17 30
f 1 30 29
f 1 29 28
f 1 28 27
f 1 27 26
f 1 26 36
f 1 36 45
f 1 45 53
f 1 53 52
f 1 52 57
f 1 57 56
f 1 56 55
f 1 55 66
f 1 66 78
f 1 78 87
f 1 87 98
f 1 98 109
f 1 109 108
f 1 108 107
f 1 107 106
f 1 106 117
f 1 117 127
f 1 127 134
f 1 134 145
f 1 145 162
f 1 162 161
f 1 161 160
f 1 160 167
f 1 167 174
f 1 174 172
f 1 172 163
f 1 163 147
f 1 147 146
f 1 146 136
f 1 136 135
f 1 135 128
f 1 128 124
f 1 124 113
f 1 113 101
f 1 101 93
f 1 93 92
f 1 92 91
f 1 91 83
f 1 83 82
f 1 82 73
f 1 73 72
f 1 72 61
f 1 61 47
f 1 47 40
f 1 40 34
f 1 34 21
f 1 21 11
f 1 11 2
f 2 11 3
f 3 12 5
f 3 5 4
f 3 11 12
f 5 12 13
f 5 13 7
f 5 7 6
f 7 13 9
f 7 9 8
f 9 13 14
f 9 14 10
f 10 14 15
f 10 15 16
f 10 16 17
f 11 18 19
f 11 19 20
f 11 20 12
f 11 21 18
f 12 20 13
f 13 22 23
f 13 23 14
f 13 20 24
f 13 24 22
f 14 23 32
f 14 32 31
f 14 31 39
f 14 39 46
f 14 46 60
f 14 60 71
f 14 71 70
f 14 70 81
f 14 81 80
f 14 80 90
f 14 90 100
f 14 100 112
f 14 112 123
f 14 123 130
f 14 130 140
f 14 140 153
f 14 153 154
f 14 154 166
f 14 166 170
f 14 170 157
f 14 157 142
f 14 142 141
f 14 141 131
f 14 131 125
f 14 125 116
f 14 116 118
f 14 118 115
f 14 115 105
f 14 105 97
f 14 97 86
f 14 86 77
f 14 77 76
f 14 76 75
f 14 75 65
f 14 65 54
f 14 54 44
f 14 44 43
f 14 43 37
f 14 37 35
f 14 35 25
f 14 25 16
f 14 16 15
f 16 25 26
f 16 26 27
f 16 27 28
f 16 28 29
f 16 29 30
f 16 30 17
f 18 31 32
f 18 32 23
f 18 23 24
f 18 24 20
f 18 20 19
f 18 21 33
f 18 33 31
f 21 34 42
f 21 42 51
f 21 51 64
f 21 64 58
f 21 58 46
f 21 46 39
f 21 39 38
f 21 38 33
f 22 24 23
f 25 35 26
f 26 35 37
f 26 37 36
f 31 33 38
f 31 38 39
f 34 40 41
f 34 41 42
f 36 43 44
f 36 44 45
f 36 37 43
f 40 47 48
f 40 48 41
f 41 49 50
f 41 50 51
f 41 51 42
f 41 48 49
f 44 52 53
f 44 53 45
f 44 54 55
f 44 55 56
f 44 56 57
f 44 57 52
f 46 58 50
f 46 50 59
f 46 59 60
f 47 61 62
f 47 62 48
f 48 62 59
f 48 59 49
f 49 59 50
f 50 58 63
f 50 63 51
f 51 63 64
f 54 65 66
f 54 66 55
f 58 64 63
f 59 62 67
f 59 67 68
f 59 68 69
f 59 69 70
f 59 70 71
f 59 71 60
f 61 72 62
f 62 72 73
f 62 73 74
f 62 74 67
f 65 75 66
f 66 75 76
f 66 76 77
f 66 77 78
f 67 74 79
f 67 79 68
f 68 79 69
f 69 79 80
f 69 80 81
f 69 81 70
f 73 82 74
f 74 82 83
f 74 83 84
f 74 84 85
f 74 85 79
f 77 86 87
f 77 87 78
f 79 85 88
f 79 88 89
f 79 89 80
f 80 89 90
f 83 91 84
f 84 91 92
f 84 92 93
f 84 93 94
f 84 94 95
f 84 95 85
f 85 95 99
f 85 99 88
f 86 96 87
f 86 97 96
f 87 96 98
f 88 99 89
f 89 99 100
f 89 100 90
f 93 101 94
f 94 101 102
f 94 102 103
f 94 103 95
f 95 103 104
f 95 104 99
f 96 97 98
f 97 105 106
f 97 106 107
f 97 107 108
f 97 108 109
f 97 109 98
f 99 104 103
f 99 103 110
f 99 110 111
f 99 111 100
f 100 111 110
f 100 110 112
f 101 113 102
f 102 113 114
f 102 114 103
f 103 114 110
f 105 115 106
f 106 116 117
f 106 115 118
f 106 118 116
f 110 114 119
f 110 119 120
f 110 120 121
f 110 121 112
f 112 121 122
f 112 122 123
f 113 124 119
f 113 119 114
f 116 125 126
f 116 126 117
f 117 126 127
f 119 124 128
f 119 128 129
f 119 129 120
f 120 129 130
f 120 130 121
f 121 130 122
f 122 130 123
f 125 131 132
f 125 132 133
f 125 133 126
f 126 133 134
f 126 134 127
f 128 135 129
f 129 135 136
f 129 136 137
f 129 137 138
f 129 138 139
f 129 139 130
f 130 139 140
f 131 141 132
f 132 141 142
f 132 142 143
f 132 143 144
f 132 144 133
f 133 145 134
f 133 144 145
f 136 146 137
f 137 146 147
f 137 147 148
f 137 148 149
f 137 149 150
f 137 150 138
f 138 150 151
f 138 151 152
f 138 152 139
f 139 153 140
f 139 152 154
f 139 154 153
f 142 155 156
f 142 156 143
f 142 157 158
f 142 158 155
f 143 156 144
f 144 156 159
f 144 159 160
f 144 160 161
f 144 161 162
f 144 162 145
f 147 163 148
f 148 163 164
f 148 164 149
f 149 164 165
f 149 165 154
f 149 154 151
f 149 151 150
f 151 154 152
f 154 165 166
f 155 167 160
f 155 160 159
f 155 159 156
f 155 158 168
f 155 168 169
f 155 169 167
f 157 170 158
f 158 170 171
f 158 171 168
f 163 172 169
f 163 169 164
f 164 169 165
f 165 169 168
f 165 168 171
f 165 171 170
f 165 170 173
f 165 173 166
f 166 173 170
f 167 169 174
f 169 172 174

