# https://github.com/mikedh/trimesh
v 0.12051126 -0.04764485 0.15652566
v 0.12048965 -0.04768275 0.15652566
v 0.12051126 -0.06132860 0.15652566
v 0.12051126 0.11053330 0.13027214
v 0.11858749 0.11034378 0.13013136
v 0.07634674 0.01717294 0.13917580
v 0.07634674 0.01171460 0.14005561
v 0.07634674 0.01103231 0.14016120
v 0.07634674 0.00496749 0.14104101
v 0.07634674 -0.07497445 0.14800911
v 0.11960342 -0.06064631 0.15652566
v 0.12051126 -0.06496750 0.15568104
v 0.07634674 -0.08361683 0.14698853
v 0.07634674 -0.08498141 0.14674218
v 0.09887860 -0.08016746 0.15008545
v 0.12051126 0.11519564 0.12735116
v 0.07634674 0.11955473 0.11967923
v 0.07634674 0.11572631 0.12200192
v 0.07634674 0.11466497 0.12260020
v 0.12051126 -0.06917497 0.15459007
v 0.07634674 -0.09153900 0.14294140
v 0.07634674 -0.09252454 0.14234312
v 0.10155459 -0.08016746 0.15008545
v 0.12051126 0.12228390 0.12214269
v 0.07634674 0.12565747 0.11411883
v 0.12051126 -0.07383730 0.15233776
v 0.07634674 -0.11947509 0.11957365
v 0.12051126 -0.12216636 0.12207231
v 0.12051126 -0.11864118 0.12485251
v 0.12051126 -0.11519181 0.12728079
v 0.12051126 -0.11052947 0.13027214
v 0.12051126 -0.07607371 0.15103565
v 0.12051126 0.13020608 0.11468190
v 0.07634674 0.13426194 0.10605977
v 0.07634674 0.13001657 0.11003651
v 0.07634674 -0.12569153 0.11380209
v 0.07634674 -0.15055731 0.09050473
v 0.12051126 -0.12440276 0.11996077
v 0.12051126 0.13755968 0.10771380
v 0.07634674 0.15063694 0.09061031
v 0.07634674 0.14605042 0.09493897
v 0.07634674 -0.15461317 0.08578895
v 0.12051126 -0.15290743 0.09286262
v 0.12051126 -0.15006453 0.09560763
v 0.12051126 -0.14771444 0.09785994
v 0.12051126 0.14282849 0.10271649
v 0.12051126 0.14559555 0.10007706
v 0.12051126 0.14783198 0.09793033
v 0.12051126 0.15291125 0.09293301
v 0.07634674 0.15552670 0.08487394
v 0.07634674 -0.15537125 0.08487394
v 0.12051126 -0.15791091 0.08684472
v 0.12051126 0.15567833 0.08962492
v 0.12051126 0.15791473 0.08687992
v 0.07634674 0.15977210 0.07959509
v 0.07634674 -0.15931338 0.08005259
v 0.07634674 -0.15973035 0.07948951
v 0.12051126 -0.15931338 0.08459241
v 0.12051126 0.16102296 0.08188260
v 0.07634674 0.16322145 0.07336604
v 0.12051126 -0.16253534 0.07892644
v 0.12051126 -0.16094333 0.08184740
v 0.07634674 -0.18061608 0.04109462
v 0.12051126 0.16318354 0.07790586
v 0.07634674 0.16754264 0.06548294
v 0.12051126 -0.18023703 0.04598635
v 0.07634674 -0.18289039 0.03585095
v 0.12051126 -0.18171534 0.04320616
v 0.12051126 0.16686034 0.07111372
v 0.07634674 0.17322841 0.05499561
v 0.07634674 -0.18323153 0.03497114
v 0.12051126 -0.18304202 0.03965172
v 0.12051126 0.17554063 0.05499561
v 0.07634674 0.17796656 0.04623270
v 0.07634674 -0.18573329 0.02631381
v 0.12051126 -0.18478566 0.03497114
v 0.12051126 0.17910370 0.04830905
v 0.07634674 0.18065783 0.04123538
v 0.07634674 -0.18607444 0.02497650
v 0.12051126 -0.18580908 0.03050170
v 0.12051126 0.18054411 0.04556405
v 0.12051126 0.18171915 0.04331173
v 0.07634674 0.18331119 0.03497114
v 0.07634674 -0.18755272 0.01631917
v 0.12051126 -0.18694624 0.02497650
v 0.12051126 0.18482739 0.03497114
v 0.07634674 0.18611616 0.02497650
v 0.07634674 -0.18778017 0.01498186
v 0.12051126 -0.18770435 0.02050706
v 0.12051126 0.18698797 0.02497650
v 0.07634674 0.18638149 0.02363919
v 0.07634674 -0.19285944 -0.01500206
v 0.12051126 -0.19198763 -0.00500742
v 0.12051126 0.18793562 0.01948648
v 0.07634674 0.18785980 0.01498186
v 0.07634674 -0.19323850 -0.02362419
v 0.12051126 -0.19357964 -0.01500206
v 0.12051126 -0.19270784 -0.00951205
v 0.12051126 0.18869370 0.01498186
v 0.07634674 0.19123337 -0.00500742
v 0.07634674 -0.19327641 -0.02499670
v 0.12051126 -0.19361755 -0.01950669
v 0.12051126 0.19202936 -0.00500742
v 0.07634674 0.19290119 -0.01500206
v 0.12051126 -0.19357964 -0.02499670
v 0.07634674 -0.19213924 -0.03361883
v 0.12051126 0.19362137 -0.01500206
v 0.07634674 0.19324234 -0.02499670
v 0.12051126 -0.19285944 -0.02946613
v 0.07634674 -0.19194973 -0.03499134
v 0.12051126 0.19354558 -0.02499670
v 0.07634674 0.19191566 -0.03499134
v 0.12051126 -0.19194973 -0.03499134
v 0.07634674 -0.19073677 -0.04227616
v 0.12051126 0.19191566 -0.03499134
v 0.12051126 0.18907276 -0.05184849
v 0.07634674 0.18683636 -0.06497525
v 0.07634674 -0.18861407 -0.05498062
v 0.12051126 -0.19134325 -0.03861615
v 0.12051126 0.18854210 -0.05498062
v 0.12051126 0.18683636 -0.06497525
v 0.07634674 0.18478948 -0.07496990
v 0.07634674 -0.18690833 -0.06497525
v 0.12051126 -0.18781805 -0.05948524
v 0.12051126 -0.18971333 -0.04829406
v 0.12051126 0.18459997 -0.07496990
v 0.07634674 0.18179497 -0.08327530
v 0.07634674 -0.18482354 -0.07496990
v 0.12051126 -0.18687043 -0.06497525
v 0.12051126 0.18293214 -0.07936895
v 0.12051126 0.18156755 -0.08292338
v 0.12051126 0.18008924 -0.08570357
v 0.12051126 0.17679149 -0.09182705
v 0.12051126 0.16075763 -0.12142386
v 0.07634674 0.16087133 -0.12163500
v 0.07634674 -0.18220809 -0.08228991
v 0.12051126 -0.18463403 -0.07496990
v 0.12051126 -0.18588489 -0.06947988
v 0.12051126 0.15753567 -0.12642117
v 0.07634674 0.15772521 -0.12663233
v 0.07634674 0.16045439 -0.12230366
v 0.07634674 -0.18179116 -0.08341607
v 0.12051126 -0.18160161 -0.08299376
v 0.12051126 0.15480652 -0.12972926
v 0.12051126 0.15253219 -0.13247427
v 0.07634674 0.15272173 -0.13261503
v 0.07634674 -0.17913780 -0.08841339
v 0.12051126 -0.17891034 -0.08802627
v 0.12051126 0.14730129 -0.13747159
v 0.07634674 0.14741501 -0.13761234
v 0.07634674 -0.17197371 -0.10164573
v 0.12051126 -0.17341411 -0.09823207
v 0.12051126 0.12167742 -0.16157837
v 0.07634674 0.12607440 -0.15756644
v 0.07634674 -0.16871387 -0.10766362
v 0.12051126 -0.16662908 -0.11076055
v 0.12051126 0.11834177 -0.16435857
v 0.07634674 0.12091932 -0.16231741
v 0.08500154 0.12171532 -0.16161357
v 0.07634674 0.12171532 -0.16161357
v 0.07634674 -0.16469592 -0.11498365
v 0.12051126 -0.16276276 -0.11786942
v 0.12051126 0.11561260 -0.16657569
v 0.07634674 0.11565050 -0.16661088
v 0.07634674 -0.16143608 -0.12082558
v 0.12051126 -0.16079170 -0.12145904
v 0.07634674 0.11496821 -0.16713877
v 0.12051126 0.11284553 -0.16868724
v 0.07634674 -0.16094333 -0.12170539
v 0.07634674 -0.15775928 -0.12670271
v 0.12051126 -0.15935129 -0.12371136
v 0.12051126 0.11060912 -0.17037646
v 0.07634674 0.11064702 -0.17037646
v 0.07634674 -0.15343809 -0.13191119
v 0.12051126 -0.15256628 -0.13250946
v 0.12051126 -0.15533337 -0.12916619
v 0.12051126 -0.15756977 -0.12645636
v 0.12051126 0.10750090 -0.17192493
v 0.07634674 0.10988892 -0.17076358
v 0.07634674 -0.15275580 -0.13272062
v 0.07634674 -0.14828300 -0.13704927
v 0.12051126 -0.14737329 -0.13750678
v 0.12051126 0.10499915 -0.17315666
v 0.07634674 0.10499915 -0.17312148
v 0.07634674 -0.14324161 -0.14180025
v 0.12051126 -0.14513686 -0.13961832
v 0.12051126 0.09260418 -0.17910418
v 0.12051126 0.07444761 -0.18779670
v 0.12051126 0.07061920 -0.18962671
v 0.07634674 0.10367247 -0.17375495
v 0.07634674 -0.13797280 -0.14676237
v 0.12051126 -0.13998178 -0.14447486
v 0.12051126 0.06546409 -0.19201979
v 0.07634674 0.06974737 -0.18987305
v 0.07634674 -0.13293141 -0.15147816
v 0.12051126 -0.12447857 -0.15904452
v 0.12051126 -0.13205960 -0.15193565
v 0.12051126 0.05939927 -0.19402575
v 0.11499935 0.06485761 -0.19223094
v 0.07634674 0.06474390 -0.19216056
v 0.07634674 0.06906509 -0.19018978
v 0.07634674 -0.12190102 -0.16171914
v 0.12051126 -0.12171149 -0.16161357
v 0.07634674 0.06341722 -0.19258288
v 0.12051126 0.05496437 -0.19543345
v 0.07634674 -0.11651849 -0.16604781
v 0.12051126 -0.11564668 -0.16661088
v 0.12051126 -0.11898232 -0.16386588
v 0.07634674 0.05496437 -0.19518711
v 0.12051126 0.04946813 -0.19631326
v 0.07634674 -0.11568458 -0.16671646
v 0.12051126 -0.11337236 -0.16833530
v 0.07634674 0.05363769 -0.19539826
v 0.12051126 0.04499532 -0.19701710
v 0.07634674 -0.11136339 -0.16991897
v 0.12051126 -0.11064319 -0.17037646
v 0.07634674 0.04363073 -0.19694673
v 0.12051126 0.03946117 -0.19786173
v 0.07634674 -0.11068110 -0.17041166
v 0.12051126 -0.10499533 -0.17322706
v 0.12051126 0.03498836 -0.19853038
v 0.12051126 0.01827219 -0.20102905
v 0.07634674 0.02589113 -0.19958615
v 0.07634674 -0.10575343 -0.17287514
v 0.12051126 -0.09320683 -0.17889303
v 0.07634674 0.01497445 -0.20120500
v 0.12051126 0.00947820 -0.20233116
v 0.07634674 -0.09673201 -0.17720379
v 0.12051126 -0.07455750 -0.18783189
v 0.07634674 0.00496749 -0.20264789
v 0.12051126 0.00496749 -0.20296462
v 0.07634674 -0.08498141 -0.18283458
v 0.12051126 -0.07061537 -0.18969709
v 0.07634674 -0.00496366 -0.20268309
v 0.12051126 -0.00496366 -0.20299982
v 0.07634674 -0.07633904 -0.18691689
v 0.07634674 -0.07057746 -0.18962671
v 0.08500154 -0.06993307 -0.18994343
v 0.12051126 -0.07000888 -0.18997863
v 0.07634674 -0.01497062 -0.20127539
v 0.12051126 -0.01049781 -0.20219038
v 0.07634674 -0.06989516 -0.18994343
v 0.12051126 -0.06542236 -0.19209017
v 0.12051126 -0.01936761 -0.20088828
v 0.07634674 -0.03498453 -0.19831923
v 0.07634674 -0.06557398 -0.19187902
v 0.07634674 -0.06489169 -0.19216056
v 0.12051126 -0.06049469 -0.19370903
v 0.12051126 -0.02266536 -0.20039558
v 0.07634674 -0.04499149 -0.19680595
v 0.12051126 -0.04499149 -0.19705230
v 0.07634674 -0.05499845 -0.19522230
v 0.12051126 -0.05499845 -0.19543345
v 0.12051126 -0.05048773 -0.19617249
f 1 2 11
f 1 11 3
f 1 3 12
f 1 12 20
f 1 20 26
f 1 26 32
f 1 32 31
f 1 31 30
f 1 30 29
f 1 29 28
f 1 28 38
f 1 38 45
f 1 45 44
f 1 44 43
f 1 43 52
f 1 52 58
f 1 58 62
f 1 62 61
f 1 61 66
f 1 66 68
f 1 68 72
f 1 72 76
f 1 76 80
f 1 80 85
f 1 85 89
f 1 89 93
f 1 93 98
f 1 98 97
f 1 97 102
f 1 102 105
f 1 105 109
f 1 109 113
f 1 113 119
f 1 119 125
f 1 125 124
f 1 124 129
f 1 129 138
f 1 138 137
f 1 137 143
f 1 143 148
f 1 148 152
f 1 152 156
f 1 156 162
f 1 162 166
f 1 166 171
f 1 171 177
f 1 177 176
f 1 176 175
f 1 175 182
f 1 182 186
f 1 186 192
f 1 192 197
f 1 197 196
f 1 196 203
f 1 203 208
f 1 208 207
f 1 207 212
f 1 212 216
f 1 216 220
f 1 220 225
f 1 225 229
f 1 229 233
f 1 233 239
f 1 239 243
f 1 243 248
f 1 248 253
f 1 253 254
f 1 254 251
f 1 251 249
f 1 249 244
f 1 244 241
f 1 241 235
f 1 235 231
f 1 231 227
f 1 227 222
f 1 222 221
f 1 221 218
f 1 218 214
f 1 214 210
f 1 210 205
f 1 205 198
f 1 198 193
f 1 193 189
f 1 189 188
f 1 188 187
f 1 187 183
f 1 183 178
f 1 178 172
f 1 172 168
f 1 168 163
f 1 163 157
f 1 157 153
f 1 153 149
f 1 149 145
f 1 145 144
f 1 144 139
f 1 139 134
f 1 134 133
f 1 133 132
f 1 132 131
f 1 131 130
f 1 130 126
f 1 126 121
f 1 121 120
f 1 120 116
f 1 116 115
f 1 115 111
f 1 111 107
f 1 107 103
f 1 103 99
f 1 99 94
f 1 94 90
f 1 90 86
f 1 86 82
f 1 82 81
f 1 81 77
f 1 77 73
f 1 73 69
f 1 69 64
f 1 64 59
f 1 59 54
f 1 54 53
f 1 53 49
f 1 49 48
f 1 48 47
f 1 47 46
f 1 46 39
f 1 39 33
f 1 33 24
f 1 24 16
f 1 16 4
f 1 4 5
f 1 5 6
f 1 6 7
f 1 7 8
f 1 8 9
f 1 9 2
f 2 10 11
f 2 9 10
f 3 11 13
f 3 13 14
f 3 14 15
f 3 15 12
f 4 16 17
f 4 17 18
f 4 18 19
f 4 19 5
f 5 19 6
f 6 19 18
f 6 18 17
f 6 17 25
f 6 25 35
f 6 35 34
f 6 34 41
f 6 41 40
f 6 40 50
f 6 50 55
f 6 55 60
f 6 60 65
f 6 65 70
f 6 70 74
f 6 74 78
f 6 78 83
f 6 83 87
f 6 87 91
f 6 91 95
f 6 95 100
f 6 100 104
f 6 104 108
f 6 108 112
f 6 112 117
f 6 117 122
f 6 122 127
f 6 127 135
f 6 135 141
f 6 141 140
f 6 140 146
f 6 146 150
f 6 150 154
f 6 154 160
f 6 160 158
f 6 158 164
f 6 164 167
f 6 167 173
f 6 173 179
f 6 179 184
f 6 184 190
f 6 190 194
f 6 194 201
f 6 201 200
f 6 200 204
f 6 204 209
f 6 209 213
f 6 213 217
f 6 217 223
f 6 223 226
f 6 226 230
f 6 230 234
f 6 234 240
f 6 240 245
f 6 245 250
f 6 250 252
f 6 252 247
f 6 247 246
f 6 246 242
f 6 242 237
f 6 237 236
f 6 236 232
f 6 232 228
f 6 228 224
f 6 224 219
f 6 219 215
f 6 215 211
f 6 211 206
f 6 206 202
f 6 202 195
f 6 195 191
f 6 191 185
f 6 185 181
f 6 181 180
f 6 180 174
f 6 174 170
f 6 170 169
f 6 169 165
f 6 165 161
f 6 161 155
f 6 155 151
f 6 151 147
f 6 147 142
f 6 142 136
f 6 136 128
f 6 128 123
f 6 123 118
f 6 118 114
f 6 114 110
f 6 110 106
f 6 106 101
f 6 101 96
f 6 96 92
f 6 92 88
f 6 88 84
f 6 84 79
f 6 79 75
f 6 75 71
f 6 71 67
f 6 67 63
f 6 63 57
f 6 57 56
f 6 56 51
f 6 51 42
f 6 42 37
f 6 37 36
f 6 36 27
f 6 27 22
f 6 22 21
f 6 21 14
f 6 14 13
f 6 13 10
f 6 10 9
f 6 9 8
f 6 8 7
f 10 13 11
f 12 15 20
f 14 21 15
f 15 21 22
f 15 22 23
f 15 23 20
f 16 24 17
f 17 24 25
f 20 23 26
f 22 27 28
f 22 28 29
f 22 29 30
f 22 30 23
f 23 30 31
f 23 31 32
f 23 32 26
f 24 33 34
f 24 34 35
f 24 35 25
f 27 36 28
f 28 36 37
f 28 37 38
f 33 39 40
f 33 40 41
f 33 41 34
f 37 42 43
f 37 43 44
f 37 44 45
f 37 45 38
f 39 46 40
f 40 46 47
f 40 47 48
f 40 48 49
f 40 49 50
f 42 51 52
f 42 52 43
f 49 53 50
f 50 53 54
f 50 54 55
f 51 56 52
f 52 56 57
f 52 57 58
f 54 59 55
f 55 59 60
f 57 61 62
f 57 62 58
f 57 63 61
f 59 64 65
f 59 65 60
f 61 63 66
f 63 67 68
f 63 68 66
f 64 69 70
f 64 70 65
f 67 71 68
f 68 71 72
f 69 73 78
f 69 78 74
f 69 74 70
f 71 75 76
f 71 76 72
f 73 77 78
f 75 79 76
f 76 79 80
f 77 81 78
f 78 81 82
f 78 82 83
f 79 84 85
f 79 85 80
f 82 86 83
f 83 86 87
f 84 88 85
f 85 88 89
f 86 90 87
f 87 90 91
f 88 92 89
f 89 92 93
f 90 94 91
f 91 94 95
f 92 96 97
f 92 97 98
f 92 98 93
f 94 99 100
f 94 100 95
f 96 101 97
f 97 101 102
f 99 103 104
f 99 104 100
f 101 105 102
f 101 106 105
f 103 107 104
f 104 107 108
f 105 106 110
f 105 110 109
f 107 111 108
f 108 111 112
f 109 110 113
f 110 114 113
f 111 115 112
f 112 115 116
f 112 116 117
f 113 114 118
f 113 118 119
f 116 120 117
f 117 121 122
f 117 120 121
f 118 123 124
f 118 124 125
f 118 125 119
f 121 126 122
f 122 126 127
f 123 128 129
f 123 129 124
f 126 130 127
f 127 130 131
f 127 131 132
f 127 132 133
f 127 133 134
f 127 134 135
f 128 136 137
f 128 137 138
f 128 138 129
f 134 139 140
f 134 140 141
f 134 141 135
f 136 142 137
f 137 142 143
f 139 144 140
f 140 144 145
f 140 145 146
f 142 147 143
f 143 147 148
f 145 149 146
f 146 149 150
f 147 151 152
f 147 152 148
f 149 153 150
f 150 153 154
f 151 155 156
f 151 156 152
f 153 157 158
f 153 158 159
f 153 159 154
f 154 159 160
f 155 161 162
f 155 162 156
f 157 163 164
f 157 164 158
f 158 160 159
f 161 165 166
f 161 166 162
f 163 167 164
f 163 168 167
f 165 169 166
f 166 169 170
f 166 170 171
f 167 168 172
f 167 172 173
f 170 174 175
f 170 175 176
f 170 176 177
f 170 177 171
f 172 178 179
f 172 179 173
f 174 180 175
f 175 181 182
f 175 180 181
f 178 183 179
f 179 183 184
f 181 185 186
f 181 186 182
f 183 187 184
f 184 187 188
f 184 188 189
f 184 189 190
f 185 191 192
f 185 192 186
f 189 193 201
f 189 201 194
f 189 194 190
f 191 195 196
f 191 196 197
f 191 197 192
f 193 198 199
f 193 199 200
f 193 200 201
f 195 202 203
f 195 203 196
f 198 204 200
f 198 200 199
f 198 205 204
f 202 206 207
f 202 207 208
f 202 208 203
f 204 205 209
f 205 210 209
f 206 211 207
f 207 211 212
f 209 210 213
f 210 214 213
f 211 215 216
f 211 216 212
f 213 214 217
f 214 218 217
f 215 219 216
f 216 219 220
f 217 218 221
f 217 221 222
f 217 222 223
f 219 224 220
f 220 224 225
f 222 226 223
f 222 227 226
f 224 228 225
f 225 228 229
f 226 227 230
f 227 231 230
f 228 232 229
f 229 232 233
f 230 231 235
f 230 235 234
f 232 236 233
f 233 237 238
f 233 238 239
f 233 236 237
f 234 235 240
f 235 241 240
f 237 242 238
f 238 242 243
f 238 243 239
f 240 241 244
f 240 244 245
f 242 246 243
f 243 246 247
f 243 247 248
f 244 249 245
f 245 249 251
f 245 251 250
f 247 252 253
f 247 253 248
f 250 251 252
f 251 254 252
f 252 254 253

