# https://github.com/mikedh/trimesh
v -0.26294178 -0.20031521 -0.00502147
v -0.26294178 -0.20023125 -0.01148458
v -0.25749117 -0.20023125 -0.01141071
v -0.25766274 -0.20025924 -0.00502147
v -0.25939164 -0.20009132 0.00059220
v -0.26294178 -0.20023125 -0.00295328
v -0.26294178 -0.19964352 -0.01506698
v -0.19552848 -0.19158331 -0.02551875
v -0.19552848 -0.19166726 -0.02496477
v -0.19552848 -0.19239493 -0.01499312
v -0.26294178 -0.19830015 -0.02300737
v -0.26294178 -0.19662094 -0.03290515
v -0.26294178 -0.19491374 -0.04291373
v -0.26294178 -0.19315057 -0.05292231
v -0.19552848 -0.18497840 -0.06499908
v -0.19552848 -0.18657365 -0.05550755
v -0.19552848 -0.18825287 -0.04549897
v -0.25266746 -0.19961554 -0.00502147
v -0.26294178 -0.20006333 0.00051833
v -0.24499965 -0.19858003 -0.00502147
v -0.23499587 -0.19720867 -0.00502147
v -0.19552848 -0.19147135 -0.00502147
v -0.25499684 -0.19718067 0.01499568
v -0.25499684 -0.19404615 0.03497591
v -0.25499684 -0.19236694 0.04498449
v -0.26294178 -0.19371031 0.03704410
v -0.26294178 -0.19275875 -0.05499050
v -0.24765237 -0.19021195 -0.06078883
v -0.25499684 -0.19054779 -0.06178600
v -0.22500530 -0.18732929 -0.06499908
v -0.19552848 -0.18483846 -0.06551613
v -0.19552848 -0.18956825 0.00683371
v -0.24499965 -0.19256285 0.03497591
v -0.24502605 -0.19088364 0.04502142
v -0.24838483 -0.19029590 0.05063509
v -0.25499684 -0.19074370 0.05155839
v -0.26294178 -0.19197512 0.04635097
v -0.26294178 -0.19228297 0.04498449
v -0.26294178 -0.19093961 -0.06259850
v -0.23499587 -0.18811293 -0.06499908
v -0.19552848 -0.18217972 -0.07497073
v -0.19552848 -0.18511833 0.03445886
v -0.23109598 -0.18982013 0.03889071
v -0.19552848 -0.18503438 0.03497591
v -0.19891366 -0.18022063 0.05041350
v -0.23499587 -0.18531424 0.05499307
v -0.24502605 -0.18769313 0.05436523
v -0.24921629 -0.18013668 0.07028293
v -0.25499684 -0.18819690 0.05658115
v -0.19552848 -0.18184388 0.04546461
v -0.19552848 -0.18173192 0.04572313
v -0.19552848 -0.17985681 0.04974872
v -0.26294178 -0.19068772 0.05155839
v -0.26294178 -0.18828085 0.05654421
v -0.26294178 -0.18906449 -0.06758432
v -0.25499684 -0.18892455 -0.06677182
v -0.19552848 -0.18206777 -0.07526618
v -0.19552848 -0.17753389 0.05429136
v -0.19552848 -0.17185256 0.06529710
v -0.23499587 -0.18136810 0.06260107
v -0.24255151 -0.17949298 0.06902724
v -0.24552755 -0.18198381 0.06540790
v -0.23499587 -0.16841017 0.08701313
v -0.24499965 -0.16938971 0.08885974
v -0.24499965 -0.16611525 0.09499045
v -0.25220555 -0.16992146 0.08985690
v -0.26294178 -0.18735729 0.05828002
v -0.25499684 -0.18366301 0.06496472
v -0.26294178 -0.18377496 0.06496472
v -0.26294178 -0.18534222 -0.07497073
v -0.19552848 -0.18010868 -0.08017814
v -0.19552848 -0.16211313 0.08405858
v -0.20016743 -0.15995814 0.08993077
v -0.23499587 -0.17873733 0.06758689
v -0.23499587 -0.17106892 0.08202732
v -0.25532016 -0.16773848 0.09403022
v -0.22959806 -0.16007008 0.10008708
v -0.23499587 -0.16065781 0.10082571
v -0.24499965 -0.16172130 0.10211834
v -0.25887033 -0.17000543 0.09004156
v -0.26040125 -0.17000543 0.09004156
v -0.26294178 -0.18310328 0.06618347
v -0.19552848 -0.16673096 -0.10547658
v -0.26294178 -0.18206777 -0.08084292
v -0.23499587 -0.15990216 -0.11984314
v -0.19552848 -0.15951034 -0.11910450
v -0.19552848 -0.15948236 0.08904440
v -0.26294178 -0.16754258 0.09403022
v -0.25499684 -0.16222507 0.10282005
v -0.26294178 -0.16208513 0.10278311
v -0.19552848 -0.15044260 0.10041946
v -0.22640425 -0.15461265 0.10459278
v -0.22986861 -0.15002279 0.11002178
v -0.23499587 -0.15570413 0.10581154
v -0.24499965 -0.15701951 0.10710416
v -0.19552848 -0.15433277 0.09572910
v -0.25499684 -0.15777516 0.10780587
v -0.26294178 -0.16835420 0.09266374
v -0.26294178 -0.17143275 0.08719780
v -0.26294178 -0.16790640 -0.10621522
v -0.24499965 -0.15993015 -0.11988007
v -0.19552848 -0.15080643 -0.13077502
v -0.19552848 -0.15534030 -0.12497669
v -0.26294178 -0.15785912 0.10776894
v -0.19552848 -0.14599268 0.10477744
v -0.23499587 -0.15072246 0.11068656
v -0.19552848 -0.13020809 0.12021502
v -0.19552848 -0.12410694 0.12612414
v -0.24499965 -0.15203784 0.11190532
v -0.25499684 -0.15276551 0.11257010
v -0.26294178 -0.15284947 0.11260702
v -0.26294178 -0.16292474 -0.11445107
v -0.25499684 -0.15973423 -0.11969541
v -0.20500435 -0.15063851 -0.13062729
v -0.20316988 -0.12016079 -0.16017291
v -0.19552848 -0.13015211 -0.15071830
v -0.19552848 -0.12004885 0.13003895
v -0.19833957 -0.12041268 0.13040826
v -0.23047569 -0.13986355 0.11988264
v -0.23498268 -0.12500252 0.13498783
v -0.24499965 -0.14173868 0.12161844
v -0.25499684 -0.14238237 0.12220936
v -0.26294178 -0.15175799 0.11364112
v -0.24499965 -0.12601005 0.13628045
v -0.26294178 -0.15953833 -0.11947382
v -0.20984127 -0.11996488 -0.15998825
v -0.20590179 -0.11599075 -0.16334906
v -0.19552848 -0.11503920 -0.16449395
v -0.19552848 -0.12027274 -0.16024679
v -0.19552848 -0.12494655 -0.15574107
v -0.19552848 -0.11565490 0.13284579
v -0.23870440 -0.12032871 0.14026913
v -0.20500435 -0.12128027 0.13122076
v -0.21500152 -0.12757732 0.12771222
v -0.22500530 -0.12886471 0.12893099
v -0.25499684 -0.13698091 0.12719518
v -0.25499684 -0.13197125 0.13181168
v -0.26294178 -0.14638449 0.11859002
v -0.24499965 -0.12100039 0.14086002
v -0.26294178 -0.15556419 -0.12320396
v -0.21500152 -0.11979696 -0.15980360
v -0.22500530 -0.11940515 -0.15947121
v -0.23499587 -0.11895736 -0.15913883
v -0.21500152 -0.11478731 -0.16364452
v -0.20500435 -0.10815442 -0.16907352
v -0.19552848 -0.10857423 -0.16925818
v -0.19552848 -0.02539722 0.16335163
v -0.19668987 -0.02564910 0.16586301
v -0.20029281 -0.02942733 0.16977781
v -0.20695759 -0.03253388 0.17129201
v -0.26294178 -0.07496198 0.16220674
v -0.26294178 -0.13085178 0.13284579
v -0.26294178 -0.13698091 0.12723210
v -0.25499684 -0.12651381 0.13679752
v -0.25499684 -0.12150416 0.14130321
v -0.26294178 -0.15024669 -0.12815285
v -0.26294178 -0.12332331 -0.15319276
v -0.24499965 -0.11845359 -0.15880644
v -0.25499684 -0.11783788 -0.15847403
v -0.26294178 -0.11727814 -0.15817860
v -0.26294178 -0.11229648 -0.16124395
v -0.21500152 -0.10720287 -0.16863036
v -0.20500435 -0.10317276 -0.17154798
v -0.19552848 -0.10314477 -0.17195424
v -0.19552848 -0.01719707 0.16516131
v -0.19935578 -0.02273847 0.17055339
v -0.20417950 -0.02564910 0.17232612
v -0.21500152 -0.02500541 0.17446816
v -0.21500152 -0.03396121 0.17177212
v -0.26294178 -0.06499866 0.16497666
v -0.26294178 -0.12150416 0.14134014
v -0.22500530 -0.10611138 -0.16815022
v -0.26294178 -0.10499191 -0.16482636
v -0.21500152 -0.06692975 -0.18846285
v -0.20500435 -0.06788130 -0.18894297
v -0.20500435 -0.08302221 -0.18148270
v -0.19552848 -0.06793728 -0.18923843
v -0.19552848 -0.01557383 0.16538289
v -0.19917761 -0.01501409 0.17073804
v -0.20500435 -0.01501409 0.17372954
v -0.19552848 -0.01501409 0.16541982
v -0.21500152 -0.01501409 0.17546535
v -0.21500152 -0.00502278 0.17553920
v -0.21500152 0.01498784 0.17561308
v -0.22500530 0.02497916 0.17317554
v -0.23042952 0.03052056 0.17033178
v -0.26294178 -0.06315152 0.16464424
v -0.26294178 -0.07157557 -0.18074405
v -0.22500530 -0.06071666 -0.19030944
v -0.21500152 -0.06192010 -0.19086343
v -0.20500435 -0.06287166 -0.19134355
v -0.19552848 -0.06320750 -0.19149128
v -0.19948116 -0.00502278 0.17047951
v -0.20415971 0.01420421 0.17221531
v -0.20500435 0.00499653 0.17299089
v -0.19552848 0.03732137 0.16231754
v -0.20591497 0.02497916 0.17225224
v -0.21500152 0.02497916 0.17487442
v -0.22500530 0.03247964 0.17143974
v -0.26294178 0.03505443 0.14307594
v -0.26294178 0.02497916 0.14643678
v -0.26294178 0.08559874 0.12416675
v -0.26294178 -0.06499866 -0.18369862
v -0.23017216 -0.06004498 -0.19001400
v -0.20500435 -0.05500734 -0.19355947
v -0.19552848 -0.05500734 -0.19389185
v -0.19980450 0.00499653 0.17018405
v -0.19997607 0.01037000 0.16999939
v -0.20025982 0.01703088 0.16974089
v -0.19552848 0.04767651 0.16154197
v -0.20807938 0.03499846 0.17095962
v -0.20091969 0.02497916 0.16929770
v -0.19552848 0.05498109 0.16058174
v -0.19552848 0.05976685 0.15965843
v -0.19552848 0.06281741 0.15906751
v -0.21436805 0.03564216 0.17169827
v -0.20980828 0.04014805 0.17003632
v -0.21727151 0.03942038 0.16963008
v -0.20931336 0.05990678 0.15991697
v -0.26294178 0.08559874 -0.17428094
v -0.20500435 0.07213704 0.15212429
v -0.19552848 0.07311659 0.15304759
v -0.19552848 0.07784638 0.14628905
v -0.19552848 0.07812624 0.14588279
v -0.19552848 0.08033721 0.14089698
v -0.19552848 0.08559874 0.11781444
v -0.26294178 -0.05500734 -0.18665317
v -0.23409843 -0.05441962 -0.19038332
v -0.21065292 -0.01056418 -0.20005950
v -0.21500152 -0.03502471 -0.19573846
v -0.21500152 -0.04501602 -0.19418731
v -0.21500152 -0.05500734 -0.19259924
v -0.20500435 -0.04501602 -0.19522139
v -0.19552848 -0.04501602 -0.19559073
v -0.19552848 -0.05447559 -0.19400266
v -0.19552848 0.06371300 0.15866128
v -0.21060672 0.04014805 0.17003632
v -0.20264858 0.06041055 0.16013855
v -0.20559165 0.06424475 0.15766409
v -0.25499684 0.08559874 -0.17520425
v -0.26294178 0.08498302 -0.17457640
v -0.19552848 0.07272477 0.15334305
v -0.19552848 0.08559874 -0.18063325
v -0.26294178 -0.04496005 -0.18816739
v -0.21439444 -0.00460297 -0.20046577
v -0.20500435 -0.00502278 -0.20131519
v -0.20500435 -0.01702915 -0.19954246
v -0.20500435 -0.03502471 -0.19677255
v -0.19552848 -0.01311098 -0.20046577
v -0.19552848 0.06424475 0.15836582
v -0.24571893 0.08559874 -0.17623836
v -0.23210560 0.08047713 -0.18022701
v -0.23877040 0.07969351 -0.17985767
v -0.25499684 0.08498302 -0.17549971
v -0.25499684 0.07275276 -0.18129805
v -0.26294178 0.08349973 -0.17527810
v -0.19552848 0.07499172 -0.18584067
v -0.20500435 0.06791103 -0.18897989
v -0.20500435 0.08307992 -0.18151963
v -0.20500435 0.08559874 -0.18026394
v -0.26294178 -0.00706582 -0.19378105
v -0.23499587 -0.00502278 -0.19773278
v -0.22465557 -0.00460297 -0.19913620
v -0.22109221 -0.00099267 -0.20013335
v -0.20500435 0.00499653 -0.20135212
v -0.19552848 -0.00502278 -0.20164758
v -0.23653340 0.08559874 -0.17723551
v -0.22832449 0.08559874 -0.17808494
v -0.22500530 0.08120480 -0.18059632
v -0.21500152 0.07499172 -0.18465886
v -0.21500152 0.06698745 -0.18853670
v -0.22500530 0.06572805 -0.18798274
v -0.22500530 0.06071840 -0.19030944
v -0.26294178 0.07017797 -0.18155655
v -0.26294178 0.07177322 -0.18081790
v -0.26294178 0.07678287 -0.17845428
v -0.19552848 0.06824687 -0.18912762
v -0.19552848 0.06351709 -0.19138047
v -0.20500435 0.06290138 -0.19134355
v -0.21500152 0.08559874 -0.17941451
v -0.26294178 -0.00502278 -0.19407651
v -0.22109221 0.00099440 -0.20013335
v -0.26294178 0.00292550 -0.19411343
v -0.19552848 0.01339259 -0.20042881
v -0.19552848 0.00499653 -0.20168450
v -0.21444063 0.00460471 -0.20046577
v -0.21073210 0.01059390 -0.20005950
v -0.20500435 0.01705887 -0.19954246
v -0.19552848 0.01857016 -0.19965324
v -0.22500530 0.08559874 -0.17841733
v -0.21500152 0.06197781 -0.19086343
v -0.20500435 0.05498109 -0.19359639
v -0.23017216 0.06004671 -0.19001400
v -0.26294178 0.06497240 -0.18380940
v -0.19552848 0.06323722 -0.19149128
v -0.19552848 0.05498109 -0.19392878
v -0.21740349 0.00765528 -0.19965324
v -0.26294178 0.00499653 -0.19411343
v -0.25499684 0.00499653 -0.19514754
v -0.21444063 0.01434414 -0.19902539
v -0.21500152 0.04498978 -0.19426116
v -0.20500435 0.04498978 -0.19525835
v -0.19552848 0.03499846 -0.19714189
v -0.21500152 0.05498109 -0.19263616
v -0.19552848 0.04552152 -0.19551685
v -0.26294178 0.05288207 -0.18702251
v -0.26294178 0.05498109 -0.18669012
v -0.26294178 0.06292936 -0.18440032
v -0.23499587 0.02497916 -0.19481516
v -0.25499684 0.01498784 -0.19370720
v -0.26294178 0.03634183 -0.18953386
v -0.25837541 0.03858078 -0.18979239
v -0.26294178 0.01498784 -0.19267309
v -0.22500530 0.02497916 -0.19607085
v -0.21500152 0.02497916 -0.19732654
v -0.22500530 0.04498978 -0.19300547
v -0.26294178 0.04496179 -0.18824124
v -0.23499587 0.04498978 -0.19174978
v -0.25171062 0.04140745 -0.19019866
v -0.26294178 0.04300271 -0.18853670
f 1 2 3
f 1 3 4
f 1 4 5
f 1 5 6
f 1 6 19
f 1 19 26
f 1 26 38
f 1 38 37
f 1 37 53
f 1 53 54
f 1 54 67
f 1 67 69
f 1 69 82
f 1 82 99
f 1 99 98
f 1 98 88
f 1 88 90
f 1 90 104
f 1 104 111
f 1 111 123
f 1 123 138
f 1 138 153
f 1 153 152
f 1 152 171
f 1 171 151
f 1 151 170
f 1 170 187
f 1 187 201
f 1 201 200
f 1 200 202
f 1 202 220
f 1 220 241
f 1 241 256
f 1 256 276
f 1 276 275
f 1 275 274
f 1 274 294
f 1 294 308
f 1 308 307
f 1 307 306
f 1 306 317
f 1 317 320
f 1 320 311
f 1 311 313
f 1 313 298
f 1 298 283
f 1 283 281
f 1 281 261
f 1 261 244
f 1 244 227
f 1 227 203
f 1 203 188
f 1 188 173
f 1 173 161
f 1 161 160
f 1 160 157
f 1 157 156
f 1 156 140
f 1 140 125
f 1 125 112
f 1 112 100
f 1 100 84
f 1 84 70
f 1 70 55
f 1 55 39
f 1 39 27
f 1 27 14
f 1 14 13
f 1 13 12
f 1 12 11
f 1 11 7
f 1 7 2
f 2 7 3
f 3 8 9
f 3 9 10
f 3 10 4
f 3 7 11
f 3 11 12
f 3 12 13
f 3 13 14
f 3 14 15
f 3 15 16
f 3 16 17
f 3 17 8
f 4 18 5
f 4 10 18
f 5 19 6
f 5 18 20
f 5 20 21
f 5 21 22
f 5 22 23
f 5 23 24
f 5 24 25
f 5 25 26
f 5 26 19
f 8 17 16
f 8 16 15
f 8 15 31
f 8 31 41
f 8 41 57
f 8 57 71
f 8 71 83
f 8 83 86
f 8 86 103
f 8 103 102
f 8 102 116
f 8 116 130
f 8 130 129
f 8 129 128
f 8 128 146
f 8 146 164
f 8 164 177
f 8 177 192
f 8 192 206
f 8 206 235
f 8 235 234
f 8 234 249
f 8 249 266
f 8 266 285
f 8 285 284
f 8 284 289
f 8 289 303
f 8 303 305
f 8 305 296
f 8 296 295
f 8 295 278
f 8 278 277
f 8 277 257
f 8 257 243
f 8 243 226
f 8 226 225
f 8 225 224
f 8 224 223
f 8 223 222
f 8 222 242
f 8 242 250
f 8 250 236
f 8 236 215
f 8 215 214
f 8 214 213
f 8 213 210
f 8 210 196
f 8 196 181
f 8 181 178
f 8 178 165
f 8 165 147
f 8 147 131
f 8 131 117
f 8 117 108
f 8 108 107
f 8 107 105
f 8 105 91
f 8 91 96
f 8 96 87
f 8 87 72
f 8 72 59
f 8 59 58
f 8 58 52
f 8 52 51
f 8 51 50
f 8 50 44
f 8 44 42
f 8 42 32
f 8 32 22
f 8 22 10
f 8 10 9
f 10 22 21
f 10 21 20
f 10 20 18
f 14 27 15
f 15 28 29
f 15 29 30
f 15 30 31
f 15 27 28
f 22 32 33
f 22 33 23
f 23 33 24
f 24 33 34
f 24 34 25
f 25 34 35
f 25 35 36
f 25 36 37
f 25 37 38
f 25 38 26
f 27 39 29
f 27 29 28
f 29 39 40
f 29 40 30
f 30 40 41
f 30 41 31
f 32 42 43
f 32 43 33
f 33 43 34
f 34 43 44
f 34 44 35
f 35 45 46
f 35 46 47
f 35 47 48
f 35 48 49
f 35 49 36
f 35 44 50
f 35 50 51
f 35 51 52
f 35 52 45
f 36 53 37
f 36 49 54
f 36 54 53
f 39 55 56
f 39 56 41
f 39 41 40
f 41 56 57
f 42 44 43
f 45 58 46
f 45 52 58
f 46 58 59
f 46 59 60
f 46 60 47
f 47 60 61
f 47 61 62
f 47 62 48
f 48 62 61
f 48 61 63
f 48 63 64
f 48 64 65
f 48 65 66
f 48 66 49
f 49 67 54
f 49 66 68
f 49 68 69
f 49 69 67
f 55 70 71
f 55 71 57
f 55 57 56
f 59 72 60
f 60 72 73
f 60 73 74
f 60 74 61
f 61 74 73
f 61 73 75
f 61 75 63
f 63 75 73
f 63 73 65
f 63 65 64
f 65 76 66
f 65 73 77
f 65 77 78
f 65 78 79
f 65 79 76
f 66 76 68
f 68 76 80
f 68 80 69
f 69 80 81
f 69 81 82
f 70 83 71
f 70 84 85
f 70 85 86
f 70 86 83
f 72 87 73
f 73 87 77
f 76 88 81
f 76 81 80
f 76 79 89
f 76 89 90
f 76 90 88
f 77 91 92
f 77 92 93
f 77 93 94
f 77 94 95
f 77 95 78
f 77 87 96
f 77 96 91
f 78 95 79
f 79 95 97
f 79 97 89
f 81 88 98
f 81 98 99
f 81 99 82
f 84 100 85
f 85 101 102
f 85 102 103
f 85 103 86
f 85 100 101
f 89 97 104
f 89 104 90
f 91 105 93
f 91 93 92
f 93 106 94
f 93 105 107
f 93 107 108
f 93 108 106
f 94 106 95
f 95 106 109
f 95 109 97
f 97 109 110
f 97 110 111
f 97 111 104
f 100 112 101
f 101 112 113
f 101 113 114
f 101 114 102
f 102 114 115
f 102 115 116
f 106 108 117
f 106 117 118
f 106 118 119
f 106 119 109
f 109 119 120
f 109 120 121
f 109 121 110
f 110 122 123
f 110 123 111
f 110 121 124
f 110 124 122
f 112 125 113
f 113 125 115
f 113 115 114
f 115 126 127
f 115 127 128
f 115 128 129
f 115 129 130
f 115 130 116
f 115 125 126
f 117 131 132
f 117 132 118
f 118 133 119
f 118 132 133
f 119 133 134
f 119 134 135
f 119 135 120
f 120 135 133
f 120 133 132
f 120 132 121
f 121 132 124
f 122 136 123
f 122 124 136
f 123 136 137
f 123 137 138
f 124 132 139
f 124 139 137
f 124 137 136
f 125 140 126
f 126 141 127
f 126 140 141
f 127 141 142
f 127 142 143
f 127 143 144
f 127 144 145
f 127 145 146
f 127 146 128
f 131 147 148
f 131 148 149
f 131 149 150
f 131 150 132
f 132 150 151
f 132 151 139
f 133 135 134
f 137 152 153
f 137 153 138
f 137 139 154
f 137 154 152
f 139 155 154
f 139 151 155
f 140 156 141
f 141 156 157
f 141 157 142
f 142 157 143
f 143 157 158
f 143 158 144
f 144 158 145
f 145 158 159
f 145 159 160
f 145 160 161
f 145 161 162
f 145 162 163
f 145 163 146
f 146 163 164
f 147 165 148
f 148 165 166
f 148 166 149
f 149 166 167
f 149 167 150
f 150 167 168
f 150 168 169
f 150 169 151
f 151 169 168
f 151 168 170
f 151 171 155
f 152 154 171
f 154 155 171
f 157 160 159
f 157 159 158
f 161 172 162
f 161 173 174
f 161 174 172
f 162 172 174
f 162 174 175
f 162 175 176
f 162 176 163
f 163 176 164
f 164 176 175
f 164 175 177
f 165 178 166
f 166 179 180
f 166 180 167
f 166 178 181
f 166 181 179
f 167 180 168
f 168 180 182
f 168 182 170
f 170 182 183
f 170 183 184
f 170 184 185
f 170 185 186
f 170 186 187
f 173 188 189
f 173 189 190
f 173 190 174
f 174 190 191
f 174 191 175
f 175 191 177
f 177 191 192
f 179 193 194
f 179 194 195
f 179 195 180
f 179 181 196
f 179 196 193
f 180 195 184
f 180 184 183
f 180 183 182
f 184 195 197
f 184 197 198
f 184 198 185
f 185 198 199
f 185 199 186
f 186 200 201
f 186 201 187
f 186 199 202
f 186 202 200
f 188 203 204
f 188 204 189
f 189 204 205
f 189 205 190
f 190 205 191
f 191 205 206
f 191 206 192
f 193 207 194
f 193 196 207
f 194 197 195
f 194 207 208
f 194 208 209
f 194 209 197
f 196 210 207
f 197 211 198
f 197 209 212
f 197 212 213
f 197 213 214
f 197 214 215
f 197 215 211
f 198 216 199
f 198 211 217
f 198 217 216
f 199 216 218
f 199 218 219
f 199 219 202
f 202 219 221
f 202 221 222
f 202 222 223
f 202 223 224
f 202 224 225
f 202 225 226
f 202 226 243
f 202 243 260
f 202 260 280
f 202 280 290
f 202 290 268
f 202 268 267
f 202 267 251
f 202 251 240
f 202 240 220
f 203 227 204
f 204 228 229
f 204 229 230
f 204 230 231
f 204 231 232
f 204 232 205
f 204 227 228
f 205 232 233
f 205 233 234
f 205 234 235
f 205 235 206
f 207 210 208
f 208 210 209
f 209 210 212
f 210 213 212
f 211 215 217
f 215 236 217
f 216 237 218
f 216 217 237
f 217 236 237
f 218 237 219
f 219 237 238
f 219 238 239
f 219 239 221
f 220 240 254
f 220 254 241
f 221 239 242
f 221 242 222
f 227 244 229
f 227 229 228
f 229 245 246
f 229 246 247
f 229 247 248
f 229 248 233
f 229 233 231
f 229 231 230
f 229 244 245
f 231 233 232
f 233 248 234
f 234 248 247
f 234 247 249
f 236 250 238
f 236 238 237
f 238 250 239
f 239 250 242
f 240 251 252
f 240 252 253
f 240 253 254
f 241 254 255
f 241 255 256
f 243 257 258
f 243 258 259
f 243 259 260
f 244 261 262
f 244 262 263
f 244 263 245
f 245 263 264
f 245 264 246
f 246 264 265
f 246 265 285
f 246 285 266
f 246 266 249
f 246 249 247
f 251 267 252
f 252 267 268
f 252 268 269
f 252 269 270
f 252 270 271
f 252 271 253
f 253 255 254
f 253 271 255
f 255 271 272
f 255 272 273
f 255 273 274
f 255 274 275
f 255 275 276
f 255 276 256
f 257 277 258
f 258 277 278
f 258 278 279
f 258 279 271
f 258 271 270
f 258 270 259
f 259 270 280
f 259 280 260
f 261 281 262
f 262 281 264
f 262 264 263
f 264 282 265
f 264 281 283
f 264 283 298
f 264 298 282
f 265 284 285
f 265 282 286
f 265 286 287
f 265 287 288
f 265 288 289
f 265 289 284
f 268 290 269
f 269 290 280
f 269 280 270
f 271 279 291
f 271 291 273
f 271 273 272
f 273 291 292
f 273 292 293
f 273 293 274
f 274 293 294
f 278 295 279
f 279 292 291
f 279 295 296
f 279 296 292
f 282 297 286
f 282 298 299
f 282 299 297
f 286 297 287
f 287 297 300
f 287 300 301
f 287 301 302
f 287 302 288
f 288 302 303
f 288 303 289
f 292 304 293
f 292 296 305
f 292 305 302
f 292 302 304
f 293 304 301
f 293 301 306
f 293 306 307
f 293 307 308
f 293 308 294
f 297 309 300
f 297 299 310
f 297 310 311
f 297 311 312
f 297 312 309
f 298 313 310
f 298 310 299
f 300 309 314
f 300 314 315
f 300 315 301
f 301 315 314
f 301 314 316
f 301 316 306
f 301 304 302
f 302 305 303
f 306 316 318
f 306 318 317
f 309 312 319
f 309 319 314
f 310 313 311
f 311 320 312
f 312 320 317
f 312 317 319
f 314 319 316
f 316 319 318
f 317 318 319

