# https://github.com/mikedh/trimesh
v -0.42499122 0.06990513 0.15509996
v -0.42499122 0.06864110 0.15751866
v -0.42070818 0.06963427 0.15509996
v -0.43576941 0.06824985 0.15509996
v -0.43581647 0.06823480 0.15511447
v -0.43499282 0.06286266 0.16398139
v -0.42499122 0.06364515 0.16447480
v -0.41498962 0.06799404 0.15687528
v -0.41190678 0.06883673 0.15509996
v -0.43584001 0.06823480 0.15509996
v -0.46499762 0.05228389 0.16354603
v -0.44313529 0.06126756 0.16207063
v -0.43499282 0.05920599 0.16898324
v -0.44588870 0.05812252 0.16524395
v -0.46499762 0.03211952 0.19278799
v -0.42499122 0.05949190 0.16947666
v -0.41498962 0.06299809 0.16340575
v -0.40367016 0.06752755 0.15509996
v -0.44504148 0.06471356 0.15509996
v -0.47135156 0.05077909 0.16150948
v -0.46499762 0.04885294 0.16854788
v -0.45979679 0.04990630 0.16988784
v -0.45586675 0.05404451 0.16593570
v -0.45499602 0.03347385 0.19457783
v -0.45499602 0.02938078 0.19957969
v -0.47069263 0.03056958 0.19079983
v -0.46499762 0.02704834 0.19778985
v -0.42499122 0.05449595 0.17452689
v -0.41498962 0.05348773 0.17359811
v -0.41498962 0.05848368 0.16840276
v -0.40498802 0.06186949 0.16200773
v -0.39411569 0.06537568 0.15509996
v -0.46502116 0.05636191 0.15509996
v -0.47459915 0.05198293 0.15509996
v -0.47803500 0.04787482 0.15779921
v -0.46499762 0.02203734 0.20104057
v -0.45499602 0.02438484 0.20199353
v -0.44499442 0.02283489 0.20125826
v -0.44499442 0.02784589 0.19829777
v -0.41498962 0.04785977 0.17859995
v -0.42499122 0.04939467 0.17952873
v -0.47193992 0.02399359 0.19448107
v -0.46998665 0.02000586 0.20000052
v -0.48180032 0.04515112 0.15509996
v -0.48227096 0.04448901 0.15509996
v -0.48947212 0.02915506 0.15904242
v -0.50020325 0.01037512 0.16032434
v -0.40498802 0.05211836 0.17198725
v -0.40498802 0.05711430 0.16700475
v -0.39708087 0.06081612 0.16086611
v -0.38594967 0.06319371 0.15509996
v -0.47523457 0.05148634 0.15509996
v -0.46589190 0.01589775 0.20169845
v -0.45499602 0.01499487 0.20437837
v -0.44499442 0.01499487 0.20366727
v -0.41498962 -0.00500397 0.20355600
v -0.42444995 0.00568013 0.20223057
v -0.40557635 -0.00519959 0.20153882
v -0.41498962 0.00244481 0.20116150
v -0.41924912 0.03047929 0.19026773
v -0.41498962 0.04286382 0.18172975
v -0.39771628 0.05092956 0.17080210
v -0.34213090 0.04698698 0.15509996
v -0.34942621 0.05065870 0.15509996
v -0.46998665 0.01984033 0.20000052
v -0.50135636 0.00498792 0.16181909
v -0.48537734 0.03935763 0.15509996
v -0.48806012 0.03488836 0.15509996
v -0.49314329 0.02619060 0.15509996
v -0.49836767 0.01699625 0.15509996
v -0.50090927 0.01209060 0.15509996
v -0.50335670 0.00498792 0.15509996
v -0.37110025 0.05882978 0.15509996
v -0.38498482 0.05904046 0.15907145
v -0.39042097 0.05986810 0.15987930
v -0.37886620 0.06117728 0.15509996
v -0.46290317 0.00498792 0.20129211
v -0.45499602 0.00498792 0.20345442
v -0.46984544 0.01317405 0.19989894
v -0.44499442 0.00498792 0.20446059
v -0.42499122 -0.00500397 0.20451865
v -0.43499282 0.00498792 0.20416068
v -0.40498802 -0.01499586 0.20410746
v -0.39472756 -0.01463471 0.20200321
v -0.39788100 -0.00864559 0.20078419
v -0.32951713 0.03028367 0.16014534
v -0.32078633 0.03484322 0.15509996
v -0.32330436 0.03630288 0.15509996
v -0.33001134 0.04018527 0.15509996
v -0.33438849 0.04269829 0.15509996
v -0.33641234 0.04385699 0.15509996
v -0.33895394 0.04530160 0.15509996
v -0.35707447 0.05374355 0.15509996
v -0.36039266 0.05503768 0.15509996
v -0.50128579 -0.00500397 0.16169815
v -0.50321549 -0.00500397 0.15509996
v -0.46791574 0.00498792 0.19881053
v -0.46069103 -0.00047451 0.20027626
v -0.45499602 -0.00217494 0.20106959
v -0.42499122 -0.01499586 0.20321739
v -0.40498802 -0.02498776 0.20379788
v -0.43499282 -0.00500397 0.20399621
v -0.49674386 -0.00500397 0.16670001
v -0.49062526 -0.01112852 0.17054088
v -0.41498962 -0.01499586 0.20436868
v -0.39498642 -0.02498776 0.20361406
v -0.38783234 -0.01771956 0.20090996
v -0.30843139 0.02498676 0.15509996
v -0.31174958 0.02769540 0.15509996
v -0.50008559 -0.01018049 0.16016954
v -0.50079155 -0.01182073 0.15509996
v -0.47017491 -0.03035990 0.18017210
v -0.46459755 -0.02533386 0.18678480
v -0.46099699 -0.02223397 0.19073211
v -0.45499602 -0.02906577 0.18965821
v -0.42499122 -0.02160195 0.20086159
v -0.43412209 -0.01469490 0.20131630
v -0.41480136 -0.02519843 0.20188227
v -0.40498802 -0.03240643 0.20138402
v -0.39498642 -0.03365542 0.20169361
v -0.48881319 -0.01779480 0.16859141
v -0.48172972 -0.02498776 0.17167282
v -0.38498482 -0.03264720 0.20081805
v -0.37945452 -0.03108221 0.20016500
v -0.37945452 -0.02915606 0.20016500
v -0.38470241 -0.02548434 0.20120020
v -0.33980113 -0.04971167 0.19006455
v -0.27934441 -0.05950794 0.17024580
v -0.29226410 0.00498792 0.15509996
v -0.48935446 -0.02897548 0.15882958
v -0.48062366 -0.04101391 0.16090965
v -0.49140185 -0.02230921 0.16192551
v -0.48015299 -0.03026962 0.17018291
v -0.49813235 -0.01681667 0.15509996
v -0.49304917 -0.02578530 0.15509996
v -0.49031931 -0.03058562 0.15509996
v -0.48754239 -0.03520537 0.15509996
v -0.48749533 -0.03511508 0.15529829
v -0.48615396 -0.03749267 0.15509996
v -0.47415203 -0.03365542 0.17427534
v -0.47146925 -0.04170612 0.17169702
v -0.46735093 -0.03702618 0.17836292
v -0.46440929 -0.03421220 0.18207319
v -0.46069103 -0.04038189 0.18033174
v -0.45499602 -0.03499470 0.18569639
v -0.41136551 -0.03078125 0.20051329
v -0.40498802 -0.03740238 0.19748993
v -0.39498642 -0.03865137 0.19913948
v -0.35500357 -0.05308243 0.19153512
v -0.36500517 -0.04498659 0.19506156
v -0.34500197 -0.05187859 0.19066438
v -0.33980113 -0.05043398 0.19006455
v -0.30859613 -0.05854487 0.18049622
v -0.26294178 -0.06498542 0.16501659
v -0.26294178 -0.06316461 0.16468281
v -0.26294178 -0.05618232 0.16238989
v -0.26294178 -0.05515906 0.16178039
v -0.26294178 -0.05118638 0.15877637
v -0.26294178 -0.05041893 0.15774600
v -0.26294178 -0.04867336 0.15509996
v -0.48201209 -0.04427933 0.15509996
v -0.47878808 -0.04867336 0.15509996
v -0.47784674 -0.04768019 0.15751866
v -0.47812915 -0.03693589 0.16757557
v -0.47118685 -0.05068979 0.16127245
v -0.46499762 -0.04873355 0.16839792
v -0.46440929 -0.04321092 0.17502029
v -0.45984384 -0.04993739 0.16992652
v -0.45318395 -0.05114124 0.17129067
v -0.44499442 -0.05252565 0.17258710
v -0.44499442 -0.04745447 0.17758894
v -0.45499602 -0.04119449 0.18103799
v -0.39498642 -0.04379779 0.19414246
v -0.38244325 -0.05061455 0.19064987
v -0.37500677 -0.05153248 0.19138515
v -0.33500037 -0.07100464 0.18094608
v -0.36500517 -0.05260089 0.19181569
v -0.32502228 -0.07151627 0.18128471
v -0.33500037 -0.06498542 0.18491274
v -0.32502228 -0.06498542 0.18436128
v -0.31438529 -0.06552716 0.18172975
v -0.30859613 -0.06254764 0.18049622
v -0.27941501 -0.07034253 0.17019258
v -0.26294178 -0.07497732 0.16223994
v -0.26294178 -0.08198970 0.15509996
v -0.47438735 -0.05181840 0.15509996
v -0.46443284 -0.05658862 0.15509996
v -0.46262076 -0.05737112 0.15509996
v -0.45671394 -0.05880068 0.15736869
v -0.46499762 -0.05211936 0.16340090
v -0.45005405 -0.06001958 0.16003892
v -0.44499442 -0.06093751 0.16146596
v -0.44499442 -0.05752160 0.16646297
v -0.43499282 -0.05896621 0.16873170
v -0.43499282 -0.05397027 0.17383997
v -0.33500037 -0.07481179 0.17500095
v -0.32822281 -0.07982279 0.16912836
v -0.32492816 -0.07709909 0.17415440
v -0.43499282 -0.06271318 0.16373469
v -0.31779760 -0.08013880 0.17025547
v -0.31113774 -0.07991307 0.16980560
v -0.31730342 -0.07089930 0.18071389
v -0.31064352 -0.06921392 0.17982382
v -0.28501588 -0.07157646 0.17102462
v -0.26294178 -0.07943153 0.15951648
v -0.26294178 -0.07855875 0.16007763
v -0.26294178 -0.07995822 0.15864092
v -0.26334184 -0.08207999 0.15509996
v -0.45805532 -0.05931232 0.15509996
v -0.45464301 -0.06072683 0.15509996
v -0.44499442 -0.06465437 0.15509996
v -0.43562821 -0.06793484 0.15509996
v -0.32492816 -0.08093634 0.16548097
v -0.32153937 -0.08013880 0.17025547
v -0.43454570 -0.06810036 0.15509996
v -0.42760339 -0.06915373 0.15509996
v -0.31469125 -0.08129749 0.16588248
v -0.28501588 -0.08370517 0.15509996
v -0.27501428 -0.08325373 0.15509996
v -0.30501908 -0.07938639 0.16902193
v -0.28501588 -0.08116206 0.16188681
v -0.27501428 -0.08062033 0.16087095
v -0.26896626 -0.08016889 0.16020823
v -0.26538923 -0.08218533 0.15566593
v -0.26522449 -0.08236590 0.15509996
v -0.33102325 -0.08046985 0.16246246
v -0.31499717 -0.08302801 0.15509996
v -0.30501908 -0.08358479 0.15509996
v -0.29501748 -0.08382556 0.15509996
v -0.27355525 -0.08313335 0.15509996
v -0.26536569 -0.08238095 0.15509996
f 1 2 3
f 1 3 9
f 1 9 18
f 1 18 32
f 1 32 51
f 1 51 76
f 1 76 73
f 1 73 94
f 1 94 93
f 1 93 64
f 1 64 63
f 1 63 92
f 1 92 91
f 1 91 90
f 1 90 89
f 1 89 88
f 1 88 87
f 1 87 109
f 1 109 108
f 1 108 129
f 1 129 160
f 1 160 185
f 1 185 208
f 1 208 225
f 1 225 231
f 1 231 230
f 1 230 219
f 1 219 218
f 1 218 229
f 1 229 228
f 1 228 227
f 1 227 216
f 1 216 215
f 1 215 212
f 1 212 211
f 1 211 210
f 1 210 209
f 1 209 188
f 1 188 187
f 1 187 186
f 1 186 162
f 1 162 161
f 1 161 139
f 1 139 137
f 1 137 136
f 1 136 135
f 1 135 134
f 1 134 111
f 1 111 96
f 1 96 72
f 1 72 71
f 1 71 70
f 1 70 69
f 1 69 68
f 1 68 67
f 1 67 45
f 1 45 44
f 1 44 52
f 1 52 34
f 1 34 33
f 1 33 19
f 1 19 10
f 1 10 4
f 1 4 2
f 2 4 5
f 2 5 6
f 2 6 7
f 2 7 8
f 2 8 9
f 2 9 3
f 4 10 5
f 5 10 11
f 5 11 12
f 5 12 6
f 6 13 7
f 6 12 14
f 6 14 15
f 6 15 13
f 7 13 16
f 7 16 17
f 7 17 8
f 8 17 18
f 8 18 9
f 10 19 11
f 11 20 21
f 11 21 22
f 11 22 23
f 11 23 12
f 11 19 20
f 12 23 14
f 13 15 24
f 13 24 25
f 13 25 16
f 14 23 22
f 14 22 15
f 15 21 20
f 15 20 26
f 15 26 27
f 15 27 25
f 15 25 24
f 15 22 21
f 16 25 28
f 16 28 29
f 16 29 30
f 16 30 17
f 17 30 31
f 17 31 32
f 17 32 18
f 19 33 20
f 20 33 34
f 20 34 35
f 20 35 26
f 25 27 36
f 25 36 37
f 25 37 38
f 25 38 39
f 25 39 40
f 25 40 41
f 25 41 28
f 26 42 43
f 26 43 27
f 26 35 44
f 26 44 45
f 26 45 46
f 26 46 47
f 26 47 42
f 27 43 36
f 28 41 29
f 29 41 40
f 29 40 48
f 29 48 49
f 29 49 30
f 30 49 31
f 31 49 50
f 31 50 51
f 31 51 32
f 34 52 35
f 35 52 44
f 36 43 53
f 36 53 54
f 36 54 37
f 37 54 55
f 37 55 38
f 38 55 56
f 38 56 57
f 38 57 58
f 38 58 59
f 38 59 60
f 38 60 39
f 39 60 61
f 39 61 40
f 40 62 48
f 40 61 63
f 40 63 64
f 40 64 62
f 42 47 43
f 43 65 53
f 43 47 66
f 43 66 65
f 45 67 47
f 45 47 46
f 47 67 68
f 47 68 69
f 47 69 70
f 47 70 71
f 47 71 72
f 47 72 66
f 48 62 73
f 48 73 74
f 48 74 49
f 49 74 75
f 49 75 50
f 50 75 76
f 50 76 51
f 53 77 78
f 53 78 54
f 53 65 79
f 53 79 77
f 54 78 80
f 54 80 81
f 54 81 82
f 54 82 55
f 55 82 83
f 55 83 56
f 56 83 84
f 56 84 58
f 56 58 57
f 58 84 85
f 58 85 59
f 59 85 60
f 60 85 86
f 60 86 87
f 60 87 88
f 60 88 89
f 60 89 61
f 61 89 90
f 61 90 91
f 61 91 92
f 61 92 63
f 62 64 93
f 62 93 94
f 62 94 73
f 65 66 95
f 65 95 79
f 66 72 95
f 72 96 95
f 73 76 74
f 74 76 75
f 77 79 97
f 77 97 98
f 77 98 78
f 78 98 99
f 78 99 100
f 78 100 101
f 78 101 102
f 78 102 80
f 79 95 103
f 79 103 104
f 79 104 97
f 80 102 105
f 80 105 81
f 81 105 83
f 81 83 82
f 83 105 106
f 83 106 84
f 84 106 107
f 84 107 85
f 85 107 108
f 85 108 109
f 85 109 86
f 86 109 87
f 95 96 110
f 95 110 104
f 95 104 103
f 96 111 110
f 97 112 113
f 97 113 114
f 97 114 98
f 97 104 112
f 98 114 115
f 98 115 116
f 98 116 99
f 99 116 117
f 99 117 100
f 100 117 118
f 100 118 101
f 101 105 102
f 101 118 119
f 101 119 120
f 101 120 106
f 101 106 105
f 104 110 121
f 104 121 122
f 104 122 112
f 106 120 123
f 106 123 124
f 106 124 125
f 106 125 126
f 106 126 107
f 107 126 125
f 107 125 127
f 107 127 128
f 107 128 129
f 107 129 108
f 110 130 131
f 110 131 132
f 110 132 133
f 110 133 121
f 110 111 134
f 110 134 135
f 110 135 136
f 110 136 137
f 110 137 138
f 110 138 139
f 110 139 130
f 112 140 141
f 112 141 142
f 112 142 143
f 112 143 113
f 112 122 140
f 113 143 114
f 114 144 115
f 114 143 144
f 115 144 145
f 115 145 119
f 115 119 146
f 115 146 116
f 116 146 118
f 116 118 117
f 118 146 119
f 119 147 148
f 119 148 120
f 119 145 144
f 119 144 147
f 120 148 149
f 120 149 150
f 120 150 123
f 121 133 122
f 122 133 140
f 123 150 151
f 123 151 152
f 123 152 124
f 124 152 127
f 124 127 125
f 127 152 182
f 127 182 153
f 127 153 128
f 128 153 154
f 128 154 155
f 128 155 129
f 129 155 156
f 129 156 157
f 129 157 158
f 129 158 159
f 129 159 160
f 130 139 161
f 130 161 131
f 131 161 162
f 131 162 163
f 131 163 141
f 131 141 164
f 131 164 132
f 132 164 133
f 133 164 141
f 133 141 140
f 137 139 138
f 141 165 166
f 141 166 167
f 141 167 144
f 141 144 142
f 141 163 165
f 142 144 143
f 144 168 169
f 144 169 170
f 144 170 171
f 144 171 172
f 144 172 148
f 144 148 147
f 144 167 168
f 148 172 171
f 148 171 173
f 148 173 174
f 148 174 175
f 148 175 176
f 148 176 177
f 148 177 149
f 149 177 178
f 149 178 179
f 149 179 180
f 149 180 151
f 149 151 150
f 151 180 152
f 152 180 181
f 152 181 182
f 153 182 154
f 154 183 184
f 154 184 206
f 154 206 205
f 154 205 207
f 154 207 185
f 154 185 160
f 154 160 159
f 154 159 158
f 154 158 157
f 154 157 156
f 154 156 155
f 154 182 183
f 162 186 165
f 162 165 163
f 165 186 187
f 165 187 188
f 165 188 189
f 165 189 190
f 165 190 166
f 166 190 168
f 166 168 167
f 168 191 192
f 168 192 193
f 168 193 169
f 168 190 191
f 169 193 194
f 169 194 170
f 170 194 195
f 170 195 171
f 171 195 173
f 173 195 174
f 174 176 175
f 174 195 194
f 174 194 176
f 176 196 197
f 176 197 198
f 176 198 178
f 176 178 177
f 176 194 199
f 176 199 196
f 178 198 200
f 178 200 201
f 178 201 202
f 178 202 180
f 178 180 179
f 180 202 203
f 180 203 181
f 181 203 183
f 181 183 182
f 183 204 205
f 183 205 206
f 183 206 184
f 183 203 202
f 183 202 204
f 185 207 208
f 188 209 189
f 189 209 210
f 189 210 211
f 189 211 191
f 189 191 190
f 191 211 212
f 191 212 192
f 192 212 199
f 192 199 193
f 193 199 194
f 196 199 197
f 197 213 214
f 197 214 198
f 197 199 212
f 197 212 215
f 197 215 216
f 197 216 213
f 198 214 200
f 200 214 217
f 200 217 218
f 200 218 219
f 200 219 201
f 201 220 202
f 201 219 221
f 201 221 222
f 201 222 223
f 201 223 220
f 202 220 223
f 202 223 205
f 202 205 204
f 205 223 207
f 207 223 224
f 207 224 208
f 208 224 225
f 213 216 226
f 213 226 227
f 213 227 228
f 213 228 217
f 213 217 214
f 216 227 226
f 217 228 229
f 217 229 218
f 219 230 221
f 221 230 224
f 221 224 222
f 222 224 223
f 224 230 231
f 224 231 225

