# https://github.com/mikedh/trimesh
v 0.42847329 0.01028014 0.02107507
v 0.34548077 0.01028014 0.02107507
v 0.43747294 -0.02461329 0.02107507
v 0.43845138 0.06522011 0.02105888
v 0.43504137 0.07499812 0.02105888
v 0.40971833 0.11950604 0.02105888
v 0.40476805 0.12486923 0.02105888
v 0.39980808 0.12987268 0.02105888
v 0.38250625 0.14167824 0.02105888
v 0.37285754 0.14825141 0.02105888
v 0.34782514 0.16522396 0.02105888
v 0.34548077 0.16679367 0.02105888
v 0.34548077 -0.16163620 0.02107507
v 0.43846107 -0.05469947 0.02107507
v 0.44035980 0.06257122 0.01202193
v 0.43942979 0.06554714 0.01519620
v 0.43849012 -0.06068400 0.02107507
v 0.43850949 -0.06526233 0.02107507
v 0.43610701 0.07499812 0.01496946
v 0.40986365 0.11976766 0.01905067
v 0.43163139 0.08281399 0.01496946
v 0.41031897 0.12045441 0.01237823
v 0.40612429 0.12617733 0.00499319
v 0.40112558 0.13075566 0.00499319
v 0.39499339 0.13497427 0.00499319
v 0.38301000 0.14203796 0.01496946
v 0.37067786 0.15044248 0.01496946
v 0.34679827 0.16780743 0.00499319
v 0.34548077 0.16751310 0.01496946
v 0.34548077 -0.16441590 0.00499319
v 0.39926559 -0.12955520 0.02107507
v 0.44336292 0.05498427 -0.00501548
v 0.44112509 0.06397742 0.00499319
v 0.44036949 -0.05708674 0.01210291
v 0.44342104 -0.05499379 -0.00501548
v 0.43968168 0.06894818 0.00499319
v 0.43659139 -0.07121416 0.02107507
v 0.43947825 -0.06565475 0.01526098
v 0.44036949 -0.06274424 0.01210291
v 0.43658167 0.07499812 0.00499319
v 0.41427144 0.11499311 0.00499319
v 0.41076460 0.12114116 0.00499319
v 0.41080335 0.12114116 -0.00501548
v 0.40101901 0.13069025 -0.00315302
v 0.34758294 0.16826525 -0.00501548
v 0.37151098 0.15099841 0.00499319
v 0.35917884 0.15940294 0.00499319
v 0.35417044 0.16280398 0.00499319
v 0.34548077 0.16967148 -0.00501548
v 0.34548077 0.16898471 0.00185131
v 0.34548077 0.16865769 0.00499319
v 0.34548077 -0.16376185 -0.00571187
v 0.35135138 -0.16081864 -0.00291009
v 0.37008694 -0.15002686 -0.00015690
v 0.37008694 -0.15002686 0.00024798
v 0.40574649 -0.12621954 0.00499319
v 0.40189087 -0.12723333 0.02107507
v 0.40073806 -0.13043815 0.00499319
v 0.44413790 0.04501005 -0.01500795
v 0.44365352 0.05498427 -0.01500795
v 0.44191948 0.06394472 -0.00501548
v 0.44426385 -0.04498686 -0.01500795
v 0.44113481 -0.06421585 0.00499319
v 0.44191948 -0.06418315 -0.00501548
v 0.44375041 -0.05499379 -0.01500795
v 0.43942010 0.06894818 -0.00501548
v 0.43529326 -0.07497493 0.02107507
v 0.43629107 -0.07497493 0.01498566
v 0.43976885 -0.06921931 0.00499319
v 0.41425207 0.11499311 -0.00501548
v 0.41035771 0.12045441 -0.01168792
v 0.40461305 0.12686408 -0.00590621
v 0.41994831 0.09988462 -0.02940553
v 0.39992431 0.12993810 -0.00982546
v 0.37096849 0.15067139 -0.01270822
v 0.35379261 0.16277128 -0.01500795
v 0.34689513 0.16777474 -0.01500795
v 0.34548077 0.16872311 -0.01500795
v 0.34548077 -0.15781003 -0.03502528
v 0.40083495 -0.13050357 -0.00167925
v 0.41082272 -0.12111797 -0.00501548
v 0.41081303 -0.12121608 0.00499319
v 0.41035771 -0.12052933 0.01266974
v 0.40470994 -0.12468252 0.02107507
v 0.44429290 0.03497042 -0.02501661
v 0.44400227 0.04501005 -0.02501661
v 0.44442853 -0.03501264 -0.02500042
v 0.44130915 0.06247311 -0.01500795
v 0.44160947 0.05478806 -0.02454695
v 0.44405073 -0.04498686 -0.02500042
v 0.43957511 -0.06918661 -0.00501548
v 0.44135761 -0.06271154 -0.01500795
v 0.44164824 -0.05486298 -0.02470890
v 0.43503168 0.07499812 -0.01500795
v 0.43121484 0.08209454 -0.01500795
v 0.43127295 -0.08223486 0.02107507
v 0.43176702 -0.08308512 0.01498566
v 0.43203828 -0.08364106 0.00499319
v 0.43682387 -0.07497493 0.00499319
v 0.40944710 0.11940793 -0.01834417
v 0.41242114 0.11335800 -0.02501661
v 0.41149116 0.11172288 -0.03500908
v 0.41914424 0.09788977 -0.03500908
v 0.41563737 0.10498619 -0.03500908
v 0.43071109 0.08121157 -0.02210147
v 0.37146255 0.14112231 -0.04501775
v 0.35942101 0.14952680 -0.04846734
v 0.36070946 0.15050790 -0.04181109
v 0.38095626 0.14066446 -0.02247396
v 0.38233188 0.14167824 -0.01500795
v 0.40315995 0.12248196 -0.02501661
v 0.39434433 0.12630813 -0.03483094
v 0.34953013 0.15963185 -0.03873399
v 0.36977693 0.14982113 -0.01938067
v 0.34820294 0.15878159 -0.04501775
v 0.34548077 0.16048211 -0.04501775
v 0.34548077 -0.15591329 -0.04331725
v 0.41035771 -0.12039852 -0.01160694
v 0.34548077 -0.15552086 -0.04471004
v 0.40930179 -0.11938474 -0.01827939
v 0.41796237 -0.10437436 -0.02592355
v 0.41439739 -0.11496992 -0.00501548
v 0.41444582 -0.11496992 0.00499319
v 0.40977648 -0.11961366 0.02107507
v 0.40824586 -0.12121608 0.02107507
v 0.42489859 -0.09498878 0.01498566
v 0.41269240 -0.11588559 0.01560108
v 0.44235542 0.03497042 -0.03400498
v 0.44144478 0.04501005 -0.03238545
v 0.44058260 0.05132161 -0.03097646
v 0.44236511 -0.03501264 -0.03410215
v 0.44223917 0.02499620 -0.03457181
v 0.44032106 0.06073989 -0.02090302
v 0.43909073 0.05799289 -0.02757546
v 0.42024863 0.09059715 -0.04064503
v 0.42135298 0.09288631 -0.03500908
v 0.44058260 -0.05142923 -0.03100886
v 0.44145447 -0.04498686 -0.03248262
v 0.43893576 -0.06771500 -0.01500795
v 0.43640733 -0.07497493 -0.00501548
v 0.43137953 -0.08249648 -0.01500795
v 0.43533200 -0.07497493 -0.01500795
v 0.43073046 -0.08131919 -0.02244157
v 0.43250325 -0.07562898 -0.02547008
v 0.44038886 -0.06091291 -0.02117834
v 0.43921667 -0.05810051 -0.02785078
v 0.42549923 -0.09243800 0.02107507
v 0.42057800 -0.10100602 0.02107507
v 0.42888984 -0.08808858 0.01498566
v 0.42143050 -0.10254303 0.00499319
v 0.42923859 -0.08864452 0.00499319
v 0.42132393 -0.10241222 -0.00501548
v 0.43182513 -0.08331404 -0.00501548
v 0.40815866 0.11836146 -0.02501661
v 0.41055146 0.11057829 -0.04077459
v 0.41701302 0.09435792 -0.04440233
v 0.40111586 0.12087954 -0.03500908
v 0.40005994 0.12002928 -0.04012678
v 0.37030005 0.14020663 -0.05039457
v 0.35264951 0.15207759 -0.05501022
v 0.34548077 0.15773511 -0.05356884
v 0.35565260 0.15335298 -0.04509873
v 0.36196885 0.15142354 -0.03500908
v 0.34548077 0.15956643 -0.04803006
v 0.41142336 -0.11156888 -0.03502528
v 0.41246960 -0.11326940 -0.02500042
v 0.34548077 -0.15172738 -0.05343928
v 0.35021794 -0.15012497 -0.05023262
v 0.39959493 -0.11964636 -0.03892833
v 0.41043523 -0.11042430 -0.04054786
v 0.41803989 -0.10646731 -0.01500795
v 0.41996768 -0.09992684 -0.02985899
v 0.42035517 -0.10064629 -0.02320274
v 0.42444330 -0.09498878 -0.01500795
v 0.41800112 -0.10545354 0.02107507
v 0.44017574 -0.01499879 -0.04025634
v 0.43974948 0.02499620 -0.03959234
v 0.43935230 0.03497042 -0.03902551
v 0.43832543 0.04501005 -0.03738979
v 0.41959956 0.06799981 -0.05939913
v 0.41889238 0.07499812 -0.05758527
v 0.42146924 0.07499812 -0.05258093
v 0.42027768 0.08068833 -0.05071848
v 0.41893113 0.08735961 -0.04733367
v 0.43942010 -0.03501264 -0.03910648
v 0.43987542 -0.02863568 -0.03986766
v 0.44014668 -0.02196440 -0.04024015
v 0.44194853 -0.02516923 -0.03591602
v 0.43291014 -0.06568746 -0.03572167
v 0.42979077 -0.06948093 -0.03952756
v 0.42035517 -0.08086136 -0.05089663
v 0.42153704 -0.07497493 -0.05275908
v 0.41892144 -0.07497493 -0.05774722
v 0.43229982 -0.05499379 -0.04378691
v 0.43846107 -0.04498686 -0.03748696
v 0.42971328 -0.07935705 -0.02911401
v 0.43759888 -0.06454287 -0.02470890
v 0.43114701 -0.07268577 -0.03287131
v 0.40611461 0.11672634 -0.03500908
v 0.41198522 0.10439754 -0.04448330
v 0.41051272 0.10070218 -0.05071848
v 0.40777117 0.10737346 -0.04744704
v 0.37911564 0.11898280 -0.06885716
v 0.38177970 0.12156629 -0.06218472
v 0.39107966 0.12094495 -0.05136629
v 0.38075283 0.13062483 -0.05096141
v 0.41699362 0.08441640 -0.05442719
v 0.35078949 0.15067139 -0.06100246
v 0.34548077 0.15704834 -0.05547988
v 0.41562769 -0.10496300 -0.03502528
v 0.34548077 -0.13246569 -0.08382157
v 0.39057592 -0.10048278 -0.07047668
v 0.41034803 -0.10038467 -0.05042696
v 0.41184959 -0.10424355 -0.04433755
v 0.41696456 -0.09449825 -0.04453189
v 0.34548077 -0.13151732 -0.08497144
v 0.34791231 -0.12723333 -0.08719018
v 0.36080635 -0.12069284 -0.08074448
v 0.41919270 -0.09806281 -0.03502528
v 0.42764017 -0.02500572 -0.05688887
v 0.41021240 -0.00499187 -0.08027481
v 0.41021240 0.00498235 -0.08027481
v 0.41020271 0.01028014 -0.08025862
v 0.41018334 0.01498928 -0.08022623
v 0.41012523 0.02499620 -0.08016144
v 0.43585512 0.02499620 -0.04501775
v 0.43095326 0.03497042 -0.05133390
v 0.43532231 0.03497042 -0.04501775
v 0.43051735 0.04216494 -0.05076706
v 0.41770083 0.05498427 -0.06644407
v 0.41703239 0.06479498 -0.06424151
v 0.41348678 0.07512893 -0.06566670
v 0.41204333 0.08500504 -0.06252482
v 0.43308452 -0.04554280 -0.04587610
v 0.43051735 -0.04256689 -0.05078326
v 0.43100172 -0.03501264 -0.05141487
v 0.42735922 -0.03501264 -0.05641920
v 0.43136984 -0.02500572 -0.05190073
v 0.42033580 -0.09080288 -0.04087176
v 0.41896018 -0.08753264 -0.04754421
v 0.41688707 -0.08449132 -0.05454056
v 0.41187865 -0.08498186 -0.06208754
v 0.41345772 -0.07477872 -0.06548855
v 0.41962862 -0.06827094 -0.05946391
v 0.42922890 -0.05499379 -0.04877505
v 0.42506328 -0.08498186 -0.03502528
v 0.42145956 -0.09309205 -0.03502528
v 0.41194648 0.09435792 -0.05442719
v 0.41046429 0.09059715 -0.06062997
v 0.38866749 0.10838723 -0.06843609
v 0.36005071 0.12002928 -0.09000815
v 0.36960256 0.11950604 -0.07949744
v 0.40769365 0.09726843 -0.05737473
v 0.35017920 0.13013431 -0.09018631
v 0.38458908 0.12460761 -0.05449197
v 0.34548077 0.15240461 -0.06409576
v 0.34548077 0.15675405 -0.05609530
v 0.36110663 0.14099151 -0.06140734
v 0.34902638 0.13919285 -0.07891441
v 0.34778640 0.14828411 -0.06764252
v 0.34548077 -0.12507495 -0.09178963
v 0.34548077 -0.12399577 -0.09280994
v 0.34548077 -0.10548624 -0.10826021
v 0.34548077 -0.09626418 -0.11559665
v 0.41025117 -0.09024694 -0.06032226
v 0.41174302 -0.09413852 -0.05426524
v 0.41012523 -0.02500572 -0.08016144
v 0.41018334 -0.01499879 -0.08022623
v 0.41005740 -0.03095755 -0.08006427
v 0.40573680 0.00498235 -0.08527914
v 0.41004771 0.03091533 -0.08006427
v 0.40073806 0.00498235 -0.09073695
v 0.40067026 0.01028014 -0.09065597
v 0.40060243 0.01498928 -0.09059119
v 0.42729139 0.03497042 -0.05633823
v 0.41832080 0.04501005 -0.06757773
v 0.41158801 0.06499119 -0.07191806
v 0.41270208 0.05498427 -0.07340802
v 0.40944710 0.07859538 -0.06944019
v 0.41062897 0.07192410 -0.07068722
v 0.40772274 0.08500504 -0.06752915
v 0.42982954 -0.04923817 -0.04977915
v 0.42100424 -0.05499379 -0.06156930
v 0.41771051 -0.05499379 -0.06654124
v 0.42185673 -0.04498686 -0.06265438
v 0.41834021 -0.04498686 -0.06765871
v 0.42236048 -0.03501264 -0.06318882
v 0.41865018 -0.03501264 -0.06819315
v 0.40654087 -0.08498186 -0.06707568
v 0.40872055 -0.07791814 -0.06914867
v 0.41053209 -0.07127956 -0.07050908
v 0.41152990 -0.06500071 -0.07169133
v 0.41700333 -0.06496801 -0.06430630
v 0.42031643 -0.06159966 -0.06053280
v 0.42524734 -0.05499379 -0.05502642
v 0.40084463 0.09102228 -0.07081679
v 0.35008231 0.12009468 -0.10006541
v 0.34548077 0.13124618 -0.09318243
v 0.34548077 0.13703451 -0.08537631
v 0.34548077 0.14435983 -0.07536765
v 0.34671107 0.12673327 -0.09685875
v 0.34548077 0.12735461 -0.09744178
v 0.34548077 0.14913440 -0.06879238
v 0.34548077 -0.09587175 -0.11588817
v 0.39999214 -0.08998532 -0.06999083
v 0.41295397 -0.03458751 -0.07586970
v 0.40977648 -0.03762883 -0.07978895
v 0.35031483 -0.00499187 -0.14027822
v 0.40057337 -0.00499187 -0.09055880
v 0.40015683 0.03137316 -0.09013772
v 0.40980554 0.03761932 -0.07977276
v 0.41293460 0.03457800 -0.07585351
v 0.40038931 0.02499620 -0.09038065
v 0.39070186 0.00498235 -0.10068083
v 0.38564500 0.00498235 -0.10568516
v 0.39062434 0.01028014 -0.10059986
v 0.39055654 0.01498928 -0.10051888
v 0.41332209 0.04501005 -0.07434735
v 0.40845898 0.05498427 -0.07839616
v 0.40684116 0.06499119 -0.07692239
v 0.40940836 0.04501005 -0.07933549
v 0.39929464 0.07820295 -0.07931929
v 0.35187450 0.08500504 -0.12175085
v 0.35047951 0.09062985 -0.12043904
v 0.40272400 0.08500504 -0.07261446
v 0.40185213 0.06499119 -0.08174858
v 0.40058306 0.07153167 -0.08056632
v 0.41271177 -0.05499379 -0.07326227
v 0.41334146 -0.04498686 -0.07428257
v 0.34548077 -0.08498186 -0.12181564
v 0.34548077 -0.06500071 -0.13080400
v 0.34548077 -0.05617107 -0.13460988
v 0.34548077 -0.05525541 -0.13499857
v 0.35105106 -0.05234490 -0.13103074
v 0.40808117 -0.05499379 -0.07825041
v 0.39078903 0.09105498 -0.08074448
v 0.34892949 0.10868156 -0.10906997
v 0.34548077 0.11061100 -0.11041418
v 0.34548077 0.11518933 -0.10714273
v 0.34548077 0.12310330 -0.10126386
v 0.37062943 0.09085876 -0.10059986
v 0.40920490 -0.04498686 -0.07927071
v 0.35007262 -0.01032235 -0.14005148
v 0.34548077 -0.00499187 -0.14437562
v 0.35034388 0.00498235 -0.14031062
v 0.35534260 0.00498235 -0.13543583
v 0.36046728 0.00498235 -0.13043150
v 0.37057132 0.00498235 -0.12055241
v 0.38064626 0.00498235 -0.11062472
v 0.39009154 0.03068641 -0.10006541
v 0.38971373 0.03732499 -0.09969292
v 0.39434433 0.04501005 -0.09425132
v 0.40441930 0.04501005 -0.08432363
v 0.39030465 0.02499620 -0.10025975
v 0.37532786 0.01498928 -0.11541851
v 0.40346023 0.05498427 -0.08333571
v 0.39827746 0.05498427 -0.08835624
v 0.37901878 0.07741810 -0.09904511
v 0.34548077 0.08549558 -0.12677138
v 0.36886632 0.07689486 -0.10890801
v 0.35892698 0.07499812 -0.11896527
v 0.35391855 0.07499812 -0.12366189
v 0.34837732 0.07499812 -0.12868242
v 0.34548077 0.09380198 -0.12218812
v 0.34548077 0.09520818 -0.12123261
v 0.34766045 0.09730113 -0.11809073
v 0.39161247 0.06499119 -0.09149812
v 0.38030720 0.07074681 -0.10025975
v 0.39045966 0.07113924 -0.09041304
v 0.39328840 0.05498427 -0.09315003
v 0.38807654 0.05498427 -0.09815437
v 0.38307783 0.05498427 -0.10291578
v 0.34548077 -0.04498686 -0.13815664
v 0.34681764 -0.04498686 -0.13697439
v 0.34548077 0.10534591 -0.11412289
v 0.34779608 -0.03501264 -0.13784893
v 0.34874544 -0.02500572 -0.13873968
v 0.34948170 -0.01699364 -0.13945226
v 0.34548077 -0.02500572 -0.14157385
v 0.34569389 -0.01418123 -0.14317717
v 0.34548077 -0.00548240 -0.14432703
v 0.34548077 0.00498235 -0.14435942
v 0.35016951 0.01028014 -0.14014865
v 0.37031943 0.01498928 -0.12029328
v 0.35446104 0.03497042 -0.13431837
v 0.35946947 0.03497042 -0.12945980
v 0.38923904 0.04501005 -0.09923945
v 0.35982791 0.02499620 -0.12979989
v 0.36987379 0.02803752 -0.11985601
v 0.37908658 0.04501005 -0.10910236
v 0.35868478 0.04501005 -0.12871481
v 0.34548077 0.08386046 -0.12743539
v 0.38134375 0.06499119 -0.10124767
v 0.35086700 0.06237501 -0.13078780
v 0.34963670 0.06904629 -0.12965414
v 0.34624606 0.05498427 -0.13702297
v 0.34548077 0.05563832 -0.13739547
v 0.34548077 0.07499812 -0.13085258
v 0.34548077 0.07823566 -0.12967034
v 0.37780783 0.05498427 -0.10792011
v 0.35367638 0.04501005 -0.13350861
v 0.34548077 -0.03501264 -0.13988954
v 0.34548077 -0.01535852 -0.14316097
v 0.34548077 -0.01421394 -0.14333913
v 0.34548077 -0.01136883 -0.14366303
v 0.34548077 0.01001852 -0.14401932
v 0.34926856 0.03497042 -0.13930650
v 0.34964639 0.02499620 -0.13964660
v 0.36750036 0.05498427 -0.11762106
v 0.36249197 0.05498427 -0.12233388
v 0.35218450 0.05498427 -0.13201864
v 0.34825137 0.04501005 -0.13849674
v 0.34548077 0.04501005 -0.14066690
v 0.34548077 0.05498427 -0.13760601
v 0.34548077 0.02499620 -0.14299902
v 0.34548077 0.03497042 -0.14231883
f 1 2 13
f 1 13 31
f 1 31 57
f 1 57 84
f 1 84 125
f 1 125 124
f 1 124 175
f 1 175 148
f 1 148 147
f 1 147 96
f 1 96 67
f 1 67 37
f 1 37 18
f 1 18 17
f 1 17 14
f 1 14 3
f 1 3 4
f 1 4 5
f 1 5 6
f 1 6 7
f 1 7 8
f 1 8 9
f 1 9 10
f 1 10 11
f 1 11 12
f 1 12 2
f 2 12 29
f 2 29 51
f 2 51 50
f 2 50 49
f 2 49 78
f 2 78 116
f 2 116 164
f 2 164 161
f 2 161 209
f 2 209 257
f 2 257 256
f 2 256 303
f 2 303 300
f 2 300 299
f 2 299 298
f 2 298 302
f 2 302 340
f 2 340 339
f 2 339 338
f 2 338 375
f 2 375 365
f 2 365 364
f 2 364 359
f 2 359 392
f 2 392 399
f 2 399 398
f 2 398 397
f 2 397 414
f 2 414 413
f 2 413 416
f 2 416 415
f 2 415 406
f 2 406 382
f 2 382 344
f 2 344 381
f 2 381 405
f 2 405 404
f 2 404 403
f 2 403 379
f 2 379 402
f 2 402 373
f 2 373 333
f 2 333 332
f 2 332 331
f 2 331 330
f 2 330 304
f 2 304 264
f 2 264 263
f 2 263 262
f 2 262 261
f 2 261 216
f 2 216 211
f 2 211 167
f 2 167 119
f 2 119 117
f 2 117 79
f 2 79 52
f 2 52 30
f 2 30 13
f 3 14 4
f 4 15 16
f 4 16 5
f 4 14 17
f 4 17 18
f 4 18 15
f 5 16 19
f 5 19 6
f 6 20 7
f 6 19 21
f 6 21 20
f 7 20 22
f 7 22 23
f 7 23 8
f 8 24 25
f 8 25 26
f 8 26 9
f 8 23 24
f 9 26 27
f 9 27 10
f 10 27 28
f 10 28 11
f 11 28 29
f 11 29 12
f 13 30 31
f 15 32 33
f 15 33 16
f 15 18 34
f 15 34 35
f 15 35 32
f 16 36 19
f 16 33 36
f 18 37 38
f 18 38 39
f 18 39 34
f 19 36 40
f 19 40 41
f 19 41 42
f 19 42 21
f 20 21 22
f 21 42 22
f 22 42 23
f 23 42 43
f 23 43 44
f 23 44 24
f 24 44 45
f 24 45 25
f 25 45 46
f 25 46 26
f 26 46 47
f 26 47 27
f 27 47 48
f 27 48 28
f 28 45 49
f 28 49 50
f 28 50 51
f 28 51 29
f 28 48 45
f 30 52 53
f 30 53 54
f 30 54 55
f 30 55 31
f 31 56 57
f 31 55 58
f 31 58 56
f 32 59 60
f 32 60 61
f 32 61 33
f 32 35 62
f 32 62 59
f 33 61 36
f 34 39 35
f 35 39 63
f 35 63 64
f 35 64 65
f 35 65 62
f 36 61 66
f 36 66 40
f 37 67 38
f 38 63 39
f 38 67 68
f 38 68 69
f 38 69 63
f 40 66 70
f 40 70 41
f 41 70 43
f 41 43 42
f 43 71 72
f 43 72 44
f 43 70 73
f 43 73 71
f 44 72 71
f 44 71 74
f 44 74 75
f 44 75 76
f 44 76 77
f 44 77 45
f 45 77 78
f 45 78 49
f 45 48 47
f 45 47 46
f 52 79 53
f 53 79 54
f 54 80 55
f 54 79 80
f 55 80 58
f 56 81 82
f 56 82 83
f 56 83 84
f 56 84 57
f 56 58 80
f 56 80 81
f 59 85 86
f 59 86 60
f 59 62 87
f 59 87 85
f 60 88 61
f 60 86 89
f 60 89 88
f 61 88 66
f 62 65 90
f 62 90 87
f 63 69 64
f 64 69 91
f 64 91 92
f 64 92 65
f 65 93 90
f 65 92 93
f 66 88 94
f 66 94 95
f 66 95 70
f 67 96 68
f 68 96 97
f 68 97 98
f 68 98 99
f 68 99 69
f 69 99 91
f 70 95 73
f 71 100 74
f 71 73 101
f 71 101 102
f 71 102 100
f 73 103 104
f 73 104 102
f 73 102 101
f 73 95 94
f 73 94 105
f 73 105 103
f 74 106 107
f 74 107 108
f 74 108 109
f 74 109 110
f 74 110 75
f 74 100 111
f 74 111 112
f 74 112 106
f 75 110 76
f 76 113 77
f 76 110 114
f 76 114 113
f 77 113 78
f 78 113 115
f 78 115 116
f 79 117 80
f 80 118 81
f 80 117 119
f 80 119 120
f 80 120 118
f 81 118 121
f 81 121 122
f 81 122 123
f 81 123 82
f 82 123 83
f 83 124 125
f 83 125 84
f 83 123 126
f 83 126 127
f 83 127 124
f 85 128 86
f 85 87 128
f 86 129 130
f 86 130 89
f 86 128 129
f 87 90 131
f 87 131 132
f 87 132 128
f 88 89 133
f 88 133 105
f 88 105 94
f 89 130 134
f 89 134 135
f 89 135 136
f 89 136 133
f 90 93 137
f 90 137 138
f 90 138 131
f 91 139 92
f 91 99 140
f 91 140 141
f 91 141 142
f 91 142 139
f 92 139 143
f 92 143 144
f 92 144 145
f 92 145 93
f 93 145 146
f 93 146 137
f 96 147 97
f 97 147 148
f 97 148 149
f 97 149 123
f 97 123 150
f 97 150 151
f 97 151 98
f 98 151 122
f 98 122 99
f 99 122 152
f 99 152 153
f 99 153 140
f 100 102 154
f 100 154 111
f 102 104 155
f 102 155 154
f 103 136 135
f 103 135 156
f 103 156 155
f 103 155 104
f 103 105 133
f 103 133 136
f 106 112 157
f 106 157 158
f 106 158 159
f 106 159 107
f 107 159 160
f 107 160 161
f 107 161 115
f 107 115 162
f 107 162 108
f 108 110 109
f 108 162 113
f 108 113 163
f 108 163 110
f 110 163 114
f 111 154 157
f 111 157 112
f 113 114 163
f 113 162 115
f 115 161 164
f 115 164 116
f 118 120 165
f 118 165 166
f 118 166 121
f 119 167 168
f 119 168 169
f 119 169 120
f 120 170 165
f 120 169 170
f 121 171 122
f 121 166 165
f 121 165 172
f 121 172 173
f 121 173 171
f 122 171 174
f 122 174 141
f 122 141 152
f 122 151 150
f 122 150 123
f 123 149 126
f 124 127 175
f 126 148 175
f 126 175 127
f 126 149 148
f 128 132 176
f 128 176 177
f 128 177 178
f 128 178 129
f 129 178 179
f 129 179 180
f 129 180 181
f 129 181 130
f 130 181 182
f 130 182 183
f 130 183 184
f 130 184 135
f 130 135 134
f 131 138 185
f 131 185 186
f 131 186 187
f 131 187 188
f 131 188 132
f 132 188 176
f 135 184 156
f 137 146 189
f 137 189 190
f 137 190 191
f 137 191 192
f 137 192 193
f 137 193 194
f 137 194 138
f 138 194 195
f 138 195 185
f 139 142 143
f 140 153 141
f 141 153 152
f 141 174 173
f 141 173 172
f 141 172 142
f 142 172 143
f 143 172 144
f 144 172 196
f 144 196 145
f 145 196 197
f 145 197 146
f 146 197 196
f 146 196 198
f 146 198 189
f 154 199 157
f 154 155 199
f 155 156 200
f 155 200 201
f 155 201 202
f 155 202 203
f 155 203 204
f 155 204 205
f 155 205 206
f 155 206 159
f 155 159 158
f 155 158 199
f 156 184 207
f 156 207 200
f 157 199 158
f 159 206 208
f 159 208 160
f 160 208 209
f 160 209 161
f 165 170 210
f 165 210 172
f 167 211 170
f 167 170 168
f 168 170 169
f 170 212 213
f 170 213 214
f 170 214 215
f 170 215 210
f 170 211 216
f 170 216 217
f 170 217 218
f 170 218 212
f 171 173 174
f 172 210 219
f 172 219 196
f 176 188 187
f 176 187 220
f 176 220 221
f 176 221 222
f 176 222 223
f 176 223 224
f 176 224 225
f 176 225 226
f 176 226 177
f 177 226 227
f 177 227 228
f 177 228 178
f 178 229 179
f 178 228 229
f 179 229 180
f 180 230 231
f 180 231 232
f 180 232 181
f 180 229 230
f 181 232 233
f 181 233 207
f 181 207 182
f 182 207 183
f 183 207 184
f 185 195 234
f 185 234 235
f 185 235 186
f 186 235 236
f 186 236 187
f 187 236 237
f 187 237 238
f 187 238 220
f 189 198 190
f 190 198 239
f 190 239 240
f 190 240 191
f 191 240 241
f 191 241 193
f 191 193 192
f 193 241 242
f 193 242 243
f 193 243 244
f 193 244 194
f 194 244 195
f 195 244 245
f 195 245 234
f 196 246 198
f 196 219 247
f 196 247 246
f 198 246 239
f 200 207 248
f 200 248 201
f 201 248 249
f 201 249 202
f 202 250 251
f 202 251 252
f 202 252 203
f 202 249 253
f 202 253 250
f 203 252 254
f 203 254 204
f 204 254 205
f 205 254 255
f 205 255 206
f 206 255 208
f 207 233 249
f 207 249 248
f 208 256 257
f 208 257 209
f 208 255 258
f 208 258 254
f 208 254 259
f 208 259 260
f 208 260 256
f 210 215 219
f 212 218 261
f 212 261 262
f 212 262 263
f 212 263 264
f 212 264 265
f 212 265 213
f 213 265 266
f 213 266 214
f 214 266 241
f 214 241 215
f 215 241 240
f 215 240 239
f 215 239 219
f 216 261 217
f 217 261 218
f 219 239 247
f 220 267 268
f 220 268 221
f 220 238 269
f 220 269 267
f 221 268 270
f 221 270 222
f 222 270 223
f 223 270 224
f 224 270 225
f 225 271 226
f 225 270 272
f 225 272 273
f 225 273 274
f 225 274 271
f 226 271 227
f 227 271 275
f 227 275 276
f 227 276 229
f 227 229 228
f 229 276 230
f 230 277 231
f 230 276 278
f 230 278 277
f 231 277 232
f 232 279 233
f 232 277 280
f 232 280 279
f 233 281 249
f 233 279 281
f 234 245 282
f 234 282 235
f 235 282 283
f 235 283 284
f 235 284 285
f 235 285 286
f 235 286 236
f 236 286 237
f 237 286 287
f 237 287 238
f 238 287 288
f 238 288 269
f 239 246 247
f 241 266 265
f 241 265 242
f 242 289 290
f 242 290 291
f 242 291 243
f 242 265 289
f 243 291 292
f 243 292 293
f 243 293 244
f 244 293 284
f 244 284 294
f 244 294 295
f 244 295 282
f 244 282 245
f 249 281 296
f 249 296 251
f 249 251 253
f 250 253 251
f 251 296 297
f 251 297 254
f 251 254 252
f 254 298 299
f 254 299 300
f 254 300 259
f 254 258 255
f 254 297 301
f 254 301 302
f 254 302 298
f 256 260 303
f 259 300 303
f 259 303 260
f 264 304 305
f 264 305 265
f 265 305 289
f 267 269 272
f 267 272 268
f 268 272 270
f 269 288 306
f 269 306 307
f 269 307 308
f 269 308 309
f 269 309 272
f 271 310 311
f 271 311 312
f 271 312 275
f 271 274 313
f 271 313 310
f 272 309 314
f 272 314 273
f 273 314 274
f 274 314 315
f 274 315 316
f 274 316 317
f 274 317 313
f 275 312 276
f 276 318 278
f 276 312 318
f 277 278 319
f 277 319 320
f 277 320 280
f 278 318 321
f 278 321 319
f 279 322 323
f 279 323 324
f 279 324 325
f 279 325 281
f 279 280 320
f 279 320 326
f 279 326 327
f 279 327 322
f 281 325 296
f 282 295 283
f 283 295 294
f 283 294 284
f 284 328 286
f 284 286 285
f 284 293 292
f 284 292 328
f 286 329 307
f 286 307 306
f 286 306 288
f 286 288 287
f 286 328 329
f 289 305 304
f 289 304 290
f 290 304 330
f 290 330 331
f 290 331 291
f 291 331 332
f 291 332 333
f 291 333 334
f 291 334 335
f 291 335 292
f 292 335 328
f 296 336 297
f 296 325 336
f 297 337 338
f 297 338 339
f 297 339 340
f 297 340 302
f 297 302 301
f 297 336 341
f 297 341 324
f 297 324 337
f 307 329 342
f 307 342 343
f 307 343 308
f 308 343 344
f 308 344 345
f 308 345 346
f 308 346 347
f 308 347 348
f 308 348 349
f 308 349 315
f 308 315 309
f 309 315 314
f 310 313 350
f 310 350 351
f 310 351 352
f 310 352 353
f 310 353 321
f 310 321 311
f 311 321 318
f 311 318 312
f 313 354 350
f 313 317 354
f 315 349 316
f 316 349 317
f 317 349 348
f 317 348 355
f 317 355 354
f 319 356 320
f 319 321 353
f 319 353 356
f 320 356 357
f 320 357 326
f 322 358 323
f 322 327 358
f 323 359 324
f 323 358 360
f 323 360 361
f 323 361 362
f 323 362 363
f 323 363 359
f 324 359 364
f 324 364 365
f 324 365 366
f 324 366 337
f 324 341 325
f 325 341 336
f 326 367 368
f 326 368 369
f 326 369 327
f 326 357 370
f 326 370 371
f 326 371 372
f 326 372 367
f 327 369 358
f 328 335 342
f 328 342 329
f 333 373 334
f 334 373 374
f 334 374 335
f 335 374 342
f 337 366 338
f 338 366 375
f 342 374 376
f 342 376 377
f 342 377 378
f 342 378 343
f 343 378 379
f 343 379 380
f 343 380 381
f 343 381 344
f 344 382 345
f 345 382 383
f 345 383 384
f 345 384 355
f 345 355 346
f 346 355 347
f 347 355 348
f 350 354 385
f 350 385 386
f 350 386 351
f 351 386 387
f 351 387 352
f 352 387 356
f 352 356 353
f 354 388 389
f 354 389 385
f 354 355 384
f 354 384 383
f 354 383 388
f 356 387 390
f 356 390 357
f 357 390 391
f 357 391 370
f 358 369 368
f 358 368 360
f 359 363 392
f 360 368 361
f 361 368 393
f 361 393 394
f 361 394 362
f 362 394 395
f 362 395 363
f 363 395 396
f 363 396 397
f 363 397 398
f 363 398 399
f 363 399 392
f 365 375 366
f 367 393 368
f 367 372 400
f 367 400 393
f 370 391 371
f 371 391 401
f 371 401 372
f 372 401 400
f 373 402 376
f 373 376 374
f 376 402 377
f 377 402 378
f 378 402 379
f 379 403 380
f 380 403 404
f 380 404 405
f 380 405 381
f 382 406 407
f 382 407 408
f 382 408 383
f 383 408 385
f 383 385 388
f 385 389 388
f 385 408 407
f 385 407 391
f 385 391 390
f 385 390 386
f 386 390 387
f 391 407 401
f 393 400 409
f 393 409 410
f 393 410 394
f 394 410 411
f 394 411 412
f 394 412 396
f 394 396 395
f 396 412 413
f 396 413 414
f 396 414 397
f 400 401 409
f 401 407 412
f 401 412 411
f 401 411 410
f 401 410 409
f 406 415 407
f 407 416 412
f 407 415 416
f 412 416 413

