# https://github.com/mikedh/trimesh
v -0.42498383 0.06986077 0.15509996
v -0.43583718 0.06821323 0.15509996
v -0.42071831 0.06958618 0.15509996
v -0.31500471 0.11497202 0.14419577
v -0.32500497 0.11497202 0.14395648
v -0.31500471 0.12215059 0.14197391
v -0.44503173 0.06468278 0.15509996
v -0.32500497 0.12128759 0.14118773
v -0.36917672 0.13968512 0.10963736
v -0.38495910 0.13187893 0.11179086
v -0.39114410 0.13066289 0.11069702
v -0.41187921 0.06880163 0.15509996
v -0.26294178 0.12164063 0.14142701
v -0.26500344 0.12167986 0.14146119
v -0.30502814 0.12215059 0.14190555
v -0.40365627 0.06750714 0.15509996
v -0.30502814 0.12717167 0.13732511
v -0.31500471 0.12717167 0.13718837
v -0.46500856 0.05632740 0.15509996
v -0.32500497 0.13140820 0.13141155
v -0.33261180 0.15090410 0.11090211
v -0.33121365 0.16039708 0.10064739
v -0.37502995 0.13866523 0.10809916
v -0.47460595 0.05193396 0.15509996
v -0.38495910 0.13709614 0.10468092
v -0.38827673 0.13933209 0.09880154
v -0.39943814 0.13964590 0.08953811
v -0.26294178 0.12666172 0.13694909
v -0.39417735 0.06534965 0.15509996
v -0.38593069 0.06319215 0.15509996
v -0.37889260 0.06115234 0.15509996
v -0.37111989 0.05879871 0.15509996
v -0.36040872 0.05499367 0.15509996
v -0.35709110 0.05369918 0.15509996
v -0.34943688 0.05063946 0.15509996
v -0.34216180 0.04695211 0.15509996
v -0.33896267 0.04526534 0.15509996
v -0.26294178 0.11634497 0.14204228
v -0.26500344 0.12670094 0.13698328
v -0.28502765 0.12195445 0.14166626
v -0.29500419 0.12705398 0.13729092
v -0.30502814 0.13234966 0.13230029
v -0.28502765 0.13238887 0.13219774
v -0.26500344 0.14756979 0.11777278
v -0.26500344 0.15290469 0.11278214
v -0.28502765 0.14262716 0.12255832
v -0.32500497 0.13642928 0.12655765
v -0.29500419 0.14250949 0.12248995
v -0.31500471 0.14717752 0.11715750
v -0.32500497 0.15172787 0.11172249
v -0.32500497 0.15674895 0.10635585
v -0.33474454 0.16208385 0.09504148
v -0.33787259 0.15914181 0.09842554
v -0.38166517 0.14058736 0.10116012
v -0.32500497 0.16094625 0.10133104
v -0.32500497 0.16439825 0.09497311
v -0.33142692 0.17036077 0.08085578
v -0.33810955 0.17953993 0.05911577
v -0.34277794 0.17130223 0.07196835
v -0.48060137 0.05056100 0.15110061
v -0.47524577 0.05146323 0.15509996
v -0.39495936 0.15145329 0.07196835
v -0.39604944 0.15102178 0.07196835
v -0.40031496 0.15015879 0.07039597
v -0.26294178 0.12779930 0.13592362
v -0.33002880 0.04016580 0.15509996
v -0.32329875 0.03628232 0.15509996
v -0.32081056 0.03479168 0.15509996
v -0.31175819 0.02765234 0.15509996
v -0.30844057 0.02498489 0.15509996
v -0.29227901 0.00497903 0.15509996
v -0.26294178 -0.04864451 0.15509996
v -0.27500370 0.15278700 0.11278214
v -0.26294178 0.13823372 0.12631837
v -0.26294178 0.14753057 0.11773860
v -0.26294178 0.15290469 0.11274796
v -0.26294178 0.15392460 0.11175667
v -0.26500344 0.15788653 0.10789406
v -0.29500419 0.15247318 0.11250869
v -0.31500471 0.15215938 0.11216686
v -0.31500471 0.15714122 0.10683440
v -0.38325289 0.16118161 0.06219219
v -0.38988814 0.15992635 0.05979943
v -0.31500471 0.16129930 0.10180959
v -0.31500471 0.16526124 0.09497311
v -0.31500471 0.16894861 0.08782899
v -0.32500497 0.16843864 0.08680352
v -0.33145064 0.18024603 0.06055143
v -0.33486304 0.18173666 0.05545826
v -0.34249356 0.18099134 0.05245020
v -0.36107224 0.17032155 0.06068817
v -0.34578750 0.17338127 0.06581552
v -0.48164403 0.05114941 0.14498198
v -0.48754466 0.04730515 0.13496652
v -0.49157321 0.04232330 0.13496652
v -0.49060160 0.04114648 0.14156371
v -0.48925087 0.03867517 0.14822930
v -0.48237866 0.04467693 0.15465558
v -0.48228386 0.04444157 0.15509996
v -0.48178622 0.04514765 0.15509996
v -0.40216333 0.15157096 0.06496096
v -0.40922514 0.14913888 0.05737247
v -0.41014934 0.15015879 0.05070690
v -0.39498305 0.15517986 0.06496096
v -0.26294178 -0.08194837 0.15509996
v -0.27500370 0.15780808 0.10768897
v -0.26294178 0.15784732 0.10789406
v -0.26294178 0.15882799 0.10686859
v -0.26500344 0.16224076 0.10290343
v -0.30502814 0.16149543 0.10204887
v -0.39476979 0.15859263 0.05586845
v -0.34917620 0.17957917 0.04725448
v -0.37026680 0.17004696 0.05036508
v -0.27500370 0.16690879 0.09497311
v -0.30502814 0.16581042 0.09497311
v -0.30502814 0.16926241 0.08861519
v -0.28429303 0.17934380 0.07196835
v -0.28322667 0.18020679 0.07043015
v -0.28988558 0.17993221 0.06995159
v -0.30502814 0.17608795 0.07497641
v -0.30502814 0.17753935 0.07196835
v -0.32500497 0.17412658 0.07497641
v -0.32502866 0.18059906 0.06137181
v -0.32502866 0.18338419 0.05497970
v -0.32502866 0.18624778 0.04496426
v -0.33502892 0.18467869 0.04496426
v -0.34550312 0.18150130 0.04434898
v -0.42003110 0.15000188 0.01020076
v -0.49226043 0.04251944 0.12498526
v -0.49754491 0.03400714 0.12402815
v -0.49536476 0.03498782 0.13496652
v -0.49958289 0.01910082 0.14812675
v -0.50093365 0.01211838 0.15496323
v -0.50090992 0.01207915 0.15509996
v -0.49837431 0.01698255 0.15509996
v -0.49117035 0.03200655 0.15236536
v -0.48538822 0.03930281 0.15509996
v -0.40552834 0.15270855 0.05439860
v -0.41083655 0.15086487 0.04496426
v -0.26336834 -0.08206605 0.15509996
v -0.29827443 -0.11023116 0.15014350
v -0.26294178 -0.11497765 0.14409322
v -0.26294178 0.16224076 0.10290343
v -0.26294178 0.16337834 0.10112595
v -0.26571435 0.16777179 0.09408437
v -0.39270812 0.16114239 0.04496426
v -0.39770824 0.15894566 0.04496426
v -0.40495962 0.15486604 0.04496426
v -0.35502943 0.18275656 0.00497085
v -0.35111937 0.18040293 0.03494881
v -0.35768354 0.17895153 0.02496755
v -0.35412893 0.17785317 0.04434898
v -0.37116727 0.17043923 0.04496426
v -0.38498279 0.16447671 0.04496426
v -0.26294178 0.17016464 0.09001666
v -0.26500344 0.18020679 0.07196835
v -0.27500370 0.17981452 0.07196835
v -0.26502714 0.18840528 0.05679137
v -0.28592813 0.18220738 0.06595226
v -0.29502791 0.18208970 0.06441405
v -0.31500471 0.18110903 0.06239729
v -0.27502739 0.18805224 0.05573171
v -0.27502739 0.19024895 0.05070690
v -0.28035927 0.18997437 0.05005744
v -0.31500471 0.18738537 0.04496426
v -0.30502814 0.19056277 0.03334224
v -0.31147382 0.19017050 0.03132548
v -0.32502866 0.18758151 0.03494881
v -0.33502892 0.18581629 0.03494881
v -0.34500548 0.18522787 0.01498629
v -0.34500548 0.18409029 0.02496755
v -0.34500548 0.18287425 0.03494881
v -0.41204509 0.15200247 0.03494881
v -0.41325366 0.15290469 0.02496755
v -0.41552860 0.15294391 0.01409755
v -0.41498357 0.15396382 0.00497085
v -0.42005479 0.15004110 0.00497085
v -0.46313643 0.08472787 0.01498629
v -0.49998572 0.03000597 0.11985790
v -0.44012639 0.12018923 0.02069476
v -0.44012639 0.12018923 0.01720815
v -0.46005580 0.09006276 0.02804397
v -0.49998572 0.03000597 0.12006300
v -0.49953550 0.02875070 0.12672856
v -0.49882457 0.02706393 0.13496652
v -0.50029379 0.02070913 0.14146119
v -0.50157344 0.01545269 0.14487943
v -0.50337446 0.00497903 0.15496323
v -0.50332707 0.00497903 0.15509996
v -0.49313721 0.02616171 0.15509996
v -0.48804229 0.03487014 0.15509996
v -0.26535890 -0.08237987 0.15509996
v -0.30502814 -0.11058421 0.15038279
v -0.26294178 -0.12145013 0.14132446
v -0.26294178 0.16777179 0.09408437
v -0.39917749 0.15961254 0.03494881
v -0.36502969 0.17444040 0.03494881
v -0.35898688 0.17950071 0.01666123
v -0.36076418 0.18028525 0.00497085
v -0.40706867 0.15867108 0.01498629
v -0.40495962 0.15663126 0.03494881
v -0.36100113 0.18036370 -0.00248091
v -0.34500548 0.18636546 0.00497085
v -0.34500548 0.18640469 -0.00501041
v -0.26294178 0.18397261 0.06496096
v -0.26294178 0.18491405 0.06325185
v -0.26502714 0.18405105 0.06496096
v -0.26294178 0.18887600 0.05573171
v -0.26502714 0.19075890 0.05180074
v -0.26502714 0.19248490 0.04496426
v -0.30502814 0.18966055 0.03833287
v -0.28701821 0.18962131 0.04831413
v -0.27073818 0.20005575 0.00056132
v -0.28500396 0.19730984 0.00497085
v -0.31351179 0.19056277 0.02496755
v -0.32502866 0.18856218 0.02496755
v -0.31853563 0.18969977 0.02496755
v -0.33502892 0.18679696 0.02496755
v -0.42003110 0.15004110 -0.00056670
v -0.40761372 0.15882799 0.00497085
v -0.45967665 0.08947436 0.00497085
v -0.46278101 0.08449250 0.00497085
v -0.49948809 0.02910374 0.11322651
v -0.50114691 0.02541639 0.11592693
v -0.50380099 0.01494274 0.11496981
v -0.46816027 0.07405808 0.00541522
v -0.46984279 0.06942927 0.00240717
v -0.50346923 0.01494274 0.12498526
v -0.50098103 0.02522025 0.12402815
v -0.50076777 0.02208208 0.13496652
v -0.50282943 0.01494274 0.13496652
v -0.50425124 0.00497903 0.14498198
v -0.50415647 -0.00494544 0.14498198
v -0.50325596 -0.00494544 0.15496323
v -0.50320858 -0.00494544 0.15509996
v -0.27355817 -0.08312519 0.15509996
v -0.27488521 -0.08320364 0.15509996
v -0.28486177 -0.08367436 0.15509996
v -0.29488572 -0.08379205 0.15509996
v -0.29500419 -0.08379205 0.15509996
v -0.30502814 -0.08355668 0.15509996
v -0.31256390 -0.11050575 0.15034860
v -0.30502814 -0.11556605 0.14624670
v -0.27500370 -0.12145013 0.14132446
v -0.26294178 -0.12545130 0.13773531
v -0.37498254 0.17393045 0.00497085
v -0.38183105 0.17079228 0.00497085
v -0.40263727 0.16118161 0.00497085
v -0.35581145 0.18220738 -0.00548897
v -0.35969779 0.17977530 -0.00914648
v -0.36460313 0.17816699 -0.00548897
v -0.38149929 0.17067459 -0.00302783
v -0.33502892 0.18773842 0.01498629
v -0.33408102 0.18891522 0.00408211
v -0.33009988 0.18997437 0.00015113
v -0.33009988 0.18997437 -0.00029324
v -0.33408102 0.18899368 -0.00419003
v -0.32910460 0.18977822 -0.00699299
v -0.33502892 0.18734615 -0.01502586
v -0.34500548 0.18460023 -0.01502586
v -0.35329953 0.18150130 -0.01502586
v -0.26294178 0.19075890 0.05173238
v -0.26294178 0.19244568 0.04496426
v -0.26502714 0.19428936 0.03494881
v -0.27502739 0.19699602 0.01498629
v -0.29502791 0.19562307 0.00497085
v -0.26502714 0.19601534 0.02496755
v -0.26502714 0.20009497 0.00090314
v -0.26502714 0.20044802 -0.00501041
v -0.27128321 0.20017342 -0.00501041
v -0.30502814 0.19389708 0.00497085
v -0.31595260 0.19099426 0.01584085
v -0.41562340 0.15239473 -0.00436095
v -0.41939127 0.14949192 -0.00723227
v -0.42728245 0.13619392 -0.02500712
v -0.43043420 0.13062365 -0.03276652
v -0.43076596 0.13121206 -0.02500712
v -0.40164199 0.16075012 -0.00336966
v -0.40495962 0.15835726 -0.00603588
v -0.44259089 0.11391288 -0.01502586
v -0.45069540 0.10104637 -0.01273564
v -0.45910791 0.08810140 -0.00501041
v -0.50105214 0.02243512 0.10792824
v -0.50313747 0.00497903 0.10498856
v -0.50503325 0.00497903 0.11496981
v -0.50486737 0.00497903 0.12498526
v -0.50460672 0.00497903 0.13496652
v -0.47034043 0.06076007 -0.01088978
v -0.47088546 0.05495445 -0.01256472
v -0.46161982 0.08308033 -0.00501041
v -0.46562466 0.07496031 -0.00501041
v -0.46896598 0.06762482 -0.00501041
v -0.50458300 -0.00494544 0.13496652
v -0.50337446 -0.01498759 0.12498526
v -0.50268722 -0.01498759 0.13496652
v -0.50147867 -0.01530141 0.14467433
v -0.50076777 -0.01181019 0.15509996
v -0.31500471 -0.08300751 0.15509996
v -0.32462582 -0.11548760 0.14337540
v -0.31554976 -0.11427156 0.14655435
v -0.31500471 -0.12090095 0.14081171
v -0.31500471 -0.13153151 0.13137737
v -0.31500471 -0.14714393 0.11749931
v -0.30502814 -0.12137168 0.14125609
v -0.42759052 -0.06912109 0.15509996
v -0.43562391 -0.06790505 0.15509996
v -0.30502814 -0.13690564 0.12720713
v -0.29500419 -0.13694486 0.12720713
v -0.27500370 -0.13698409 0.12724131
v -0.26294178 -0.13196301 0.13178757
v -0.35827595 0.17910844 -0.01502586
v -0.39998320 0.15996557 -0.01003522
v -0.27628335 0.19931042 -0.00501041
v -0.27097517 0.20013420 -0.01119743
v -0.32547891 0.18934673 -0.01577787
v -0.32244566 0.19040586 -0.01297491
v -0.33502892 0.18483560 -0.02500712
v -0.31021786 0.18997437 -0.03020284
v -0.30064416 0.19009204 -0.04062847
v -0.29085720 0.19017050 -0.05081483
v -0.34917620 0.17969684 -0.02907482
v -0.35138005 0.18055984 -0.02240925
v -0.35986367 0.16989005 -0.04972100
v -0.26294178 0.19421090 0.03494881
v -0.26294178 0.19593689 0.02496755
v -0.26294178 0.19954579 0.00394538
v -0.26294178 0.20005575 0.00076642
v -0.26294178 0.20040879 -0.00501041
v -0.26294178 0.20040879 -0.00678790
v -0.26502714 0.20029111 -0.01201780
v -0.41773245 0.14855047 -0.01502586
v -0.42123964 0.14094040 -0.03331344
v -0.42228234 0.14215644 -0.02500712
v -0.42986548 0.12976065 -0.03943209
v -0.43472341 0.12497494 -0.02500712
v -0.41273233 0.15149251 -0.01502586
v -0.47060108 -0.03495422 -0.02131542
v -0.50309008 -0.00494544 0.10498856
v -0.47133571 0.04510843 -0.01550441
v -0.47036412 0.04185257 -0.02076850
v -0.47216511 0.03498782 -0.01502586
v -0.47060108 0.03498782 -0.02131542
v -0.50498587 -0.00494544 0.11496981
v -0.50481999 -0.00494544 0.12498526
v -0.43119252 0.12266054 -0.04500382
v -0.43552911 0.10496908 -0.05498508
v -0.45060059 0.08135433 -0.04120957
v -0.45979512 0.06903700 -0.02948501
v -0.46891859 0.05495445 -0.01755535
v -0.46965319 0.04852119 -0.01919611
v -0.50370622 -0.01498759 0.11496981
v -0.50114691 -0.02373525 0.12498526
v -0.50064927 -0.02181312 0.13496652
v -0.50019902 -0.02051863 0.14111936
v -0.49948809 -0.01891031 0.14778492
v -0.49050683 -0.04095598 0.14132446
v -0.49818474 -0.01683127 0.15496323
v -0.49813735 -0.01679204 0.15509996
v -0.32097644 -0.12027331 0.14026481
v -0.32246935 -0.13074698 0.13069373
v -0.30502814 -0.14741851 0.11767023
v -0.32500497 -0.14608479 0.11654221
v -0.32500497 -0.15138046 0.11158576
v -0.31500471 -0.15232190 0.11250869
v -0.30502814 -0.15263572 0.11267959
v -0.44496062 -0.06464919 0.15509996
v -0.38495910 -0.13168842 0.11175667
v -0.36192533 -0.14051454 0.11062866
v -0.35502943 -0.13619955 0.11667893
v -0.32500497 -0.14110294 0.12095173
v -0.29500419 -0.14745775 0.11767023
v -0.26500344 -0.13698409 0.12720713
v -0.26500344 -0.15287109 0.11264541
v -0.26294178 -0.14639860 0.11855897
v -0.36988762 0.16989005 -0.02969011
v -0.39860874 0.15922026 -0.01502586
v -0.26502714 0.19644685 -0.03498838
v -0.27502739 0.19421090 -0.04500382
v -0.27502739 0.19577998 -0.03498838
v -0.31969678 0.18989591 -0.01960630
v -0.30502814 0.19177881 -0.02500712
v -0.32502866 0.18491405 -0.03498838
v -0.33261180 0.18067752 -0.04261106
v -0.33555025 0.17902999 -0.04558492
v -0.34500548 0.17651944 -0.04500382
v -0.34550312 0.17899075 -0.03550112
v -0.31242171 0.19040586 -0.02500712
v -0.28500396 0.19236723 -0.04500382
v -0.29450655 0.19064122 -0.04438854
v -0.28092802 0.19020973 -0.06062518
v -0.28761065 0.18922904 -0.05751458
v -0.28455371 0.19075890 -0.05450653
v -0.35592994 0.17243981 -0.04582420
v -0.34998190 0.16992928 -0.05997571
v -0.35592994 0.16883092 -0.05597637
v -0.37263653 0.16137776 -0.05252395
v -0.37929547 0.15953408 -0.04876389
v -0.38114384 0.16059321 -0.04206413
v -0.35318103 0.17122377 -0.05331014
v -0.26294178 0.20025188 -0.01188107
v -0.41995999 0.13995972 -0.03997901
v -0.42325392 0.13317342 -0.04500382
v -0.42825404 0.12768161 -0.04500382
v -0.43022093 0.12042459 -0.05050719
v -0.41090763 0.15047260 -0.02169142
v -0.39488828 0.15804344 -0.02565658
v -0.46853942 -0.01498759 -0.02623768
v -0.46832615 -0.02499052 -0.02640859
v -0.46801808 -0.03495422 -0.02630605
v -0.47036412 -0.04189743 -0.02076850
v -0.47216511 -0.03495422 -0.01502586
v -0.47133571 -0.04511406 -0.01553859
v -0.47088546 -0.05496008 -0.01259890
v -0.46799439 0.03498782 -0.02630605
v -0.43977094 0.08884672 -0.05953134
v -0.43432057 0.07496031 -0.07498179
v -0.44000790 0.06021089 -0.07005952
v -0.46832615 0.02498489 -0.02640859
v -0.46853942 0.01498196 -0.02623768
v -0.43145317 0.11457974 -0.05433562
v -0.43052900 0.11101007 -0.06106955
v -0.43190342 0.10469450 -0.06462452
v -0.43062377 0.10116405 -0.07077736
v -0.43531585 0.09496616 -0.06496634
v -0.47034043 -0.06080493 -0.01092397
v -0.50098103 -0.02228385 0.10799661
v -0.50138390 -0.02400984 0.11496981
v -0.49953550 -0.02875633 0.12498526
v -0.49870607 -0.02679497 0.13496652
v -0.49515149 -0.03495422 0.13496652
v -0.49140731 -0.04205434 0.13496652
v -0.48043549 -0.05040973 0.15082717
v -0.48915607 -0.03852389 0.14799002
v -0.49105185 -0.03185528 0.15212607
v -0.49029353 -0.03056078 0.15509996
v -0.29500419 -0.15279263 0.11264541
v -0.28502765 -0.15287109 0.11264541
v -0.33149803 -0.15043901 0.11052611
v -0.32045507 -0.16008890 0.10023721
v -0.31500471 -0.15730377 0.10567220
v -0.30502814 -0.15761758 0.10632167
v -0.29500419 -0.15781371 0.10686859
v -0.28502765 -0.15789217 0.10727877
v -0.27500370 -0.15789217 0.10755224
v -0.26500344 -0.15785295 0.10779152
v -0.45462912 -0.06068725 0.15509996
v -0.39114410 -0.13062929 0.11069702
v -0.36858428 -0.13945541 0.10919299
v -0.26294178 -0.15283187 0.11261123
v -0.26294178 -0.15173350 0.11363671
v -0.26294178 -0.15785295 0.10779152
v -0.26294178 0.19628994 -0.03498838
v -0.26502714 0.19472085 -0.04500382
v -0.27502739 0.19252412 -0.05498508
v -0.29502791 0.19209263 -0.03498838
v -0.32934156 0.17973608 -0.04931080
v -0.31552607 0.18185434 -0.05553200
v -0.31919914 0.17969684 -0.05918952
v -0.33502892 0.17628407 -0.05498508
v -0.34600076 0.17263596 -0.05597637
v -0.27502739 0.18864064 -0.06705147
v -0.28476697 0.18208970 -0.07522106
v -0.28455371 0.18742460 -0.06435106
v -0.31251651 0.18067752 -0.06144556
v -0.27502739 0.19075890 -0.06206084
v -0.31208995 0.17059614 -0.08120298
v -0.28746846 0.16918397 -0.09846510
v -0.28450632 0.16694802 -0.10424192
v -0.29479092 0.16267225 -0.10519903
v -0.29130742 0.16051476 -0.11070240
v -0.30986241 0.15988712 -0.09986658
v -0.34417608 0.16208385 -0.07481088
v -0.34910512 0.14953116 -0.08937258
v -0.35502943 0.14815819 -0.08739000
v -0.36055091 0.15027647 -0.08045097
v -0.35863143 0.15922026 -0.06893151
v -0.36251777 0.16153467 -0.06226593
v -0.36550364 0.16373138 -0.05553200
v -0.30687654 0.17899075 -0.06811112
v -0.36920041 0.15941639 -0.05918952
v -0.37559867 0.15780808 -0.05553200
v -0.39142847 0.15082565 -0.05132757
v -0.41007823 0.14003818 -0.05009700
v -0.41754287 0.13819450 -0.04500382
v -0.42109746 0.13093747 -0.05105411
v -0.42794597 0.11767869 -0.05717276
v -0.46410805 -0.00498467 -0.03498838
v -0.46401325 -0.01498759 -0.03498838
v -0.46363410 -0.02499052 -0.03498838
v -0.46247292 -0.03495422 -0.03587712
v -0.45986623 -0.03828853 -0.03980809
v -0.45614576 -0.04495715 -0.04500382
v -0.46237814 -0.04495715 -0.03413382
v -0.44000790 -0.06021652 -0.07005952
v -0.45467651 -0.05496008 -0.04500382
v -0.45870507 -0.05496008 -0.03758624
v -0.46135914 -0.05496008 -0.03256143
v -0.46534032 -0.05496008 -0.02500712
v -0.46967691 -0.04856605 -0.01923029
v -0.46244922 0.03475245 -0.03587712
v -0.46361041 0.02498489 -0.03498838
v -0.45986623 0.03796908 -0.03977391
v -0.43145317 0.09496616 -0.07217883
v -0.43019724 0.08068747 -0.08024588
v -0.43782777 0.08531628 -0.06448779
v -0.43081334 0.07496031 -0.08123717
v -0.44019747 0.05495445 -0.07033298
v -0.43164277 0.06495737 -0.08267283
v -0.43214041 0.05495445 -0.08349320
v -0.46398956 0.01498196 -0.03498838
v -0.46410805 0.00497903 -0.03498838
v -0.42811185 0.10783267 -0.06773512
v -0.42424920 0.10414532 -0.07433233
v -0.42038655 0.10045797 -0.08028006
v -0.42690331 0.09496616 -0.07716946
v -0.42882279 0.08735609 -0.07874185
v -0.45979512 -0.06912109 -0.02951919
v -0.45060059 -0.08143841 -0.04127794
v -0.45164326 -0.08485118 -0.03454401
v -0.45960557 -0.07912402 -0.01882010
v -0.46576685 -0.07496594 -0.00501041
v -0.46901339 -0.06766968 -0.00501041
v -0.46984279 -0.06943490 0.00237299
v -0.46894228 -0.05496008 -0.01758954
v -0.49951178 -0.02903092 0.11496981
v -0.49664441 -0.03495422 0.12498526
v -0.49209455 -0.04236816 0.12498526
v -0.42003110 -0.15000752 0.01020076
v -0.48726028 -0.04703619 0.13496652
v -0.47436896 -0.05182191 0.15509996
v -0.47880036 -0.04864451 0.15509996
v -0.48199949 -0.04425106 0.15509996
v -0.48214167 -0.04456488 0.15448466
v -0.48135966 -0.05099814 0.14498198
v -0.41017303 -0.15016441 0.05070690
v -0.40922514 -0.14914452 0.05737247
v -0.40211594 -0.15149814 0.06496096
v -0.40026754 -0.15012519 0.07032760
v -0.39939076 -0.13965154 0.08953811
v -0.48614651 -0.03746476 0.15509996
v -0.48771054 -0.03487577 0.15509996
v -0.33500522 -0.17142554 0.07244691
v -0.33021837 -0.18001629 0.06010706
v -0.32502866 -0.17781956 0.06612317
v -0.32178214 -0.17040564 0.08082160
v -0.31500471 -0.17852566 0.06742210
v -0.31500471 -0.17605434 0.07196835
v -0.31500471 -0.16032426 0.10068157
v -0.30502814 -0.16067730 0.10133104
v -0.29500419 -0.16103034 0.10187796
v -0.28502765 -0.16134416 0.10228815
v -0.27500370 -0.16169721 0.10256161
v -0.26500344 -0.16205025 0.10276670
v -0.26294178 -0.16205025 0.10280088
v -0.45806524 -0.05927507 0.15509996
v -0.38758951 -0.13918081 0.09856226
v -0.38455626 -0.13690564 0.10430491
v -0.46443981 -0.05656839 0.15509996
v -0.26294178 0.19456394 -0.04500382
v -0.26502714 0.19295563 -0.05498508
v -0.26502714 0.19099426 -0.06288122
v -0.26502714 0.18911137 -0.06787185
v -0.27502739 0.18463947 -0.07498179
v -0.28125978 0.18032448 -0.08069025
v -0.28789502 0.17930457 -0.07874185
v -0.30021760 0.18001066 -0.07009371
v -0.28080952 0.17020386 -0.10041349
v -0.28500396 0.16177003 -0.11241151
v -0.28500396 0.15749426 -0.11740215
v -0.31147382 0.15066874 -0.11070240
v -0.35111937 0.14043045 -0.10051604
v -0.33055013 0.15019801 -0.10027677
v -0.33434170 0.15231627 -0.09491013
v -0.34545574 0.14721675 -0.09491013
v -0.35467398 0.14282331 -0.09511522
v -0.36220971 0.14129345 -0.09186789
v -0.36472163 0.14474544 -0.08468959
v -0.36434245 0.15204169 -0.07443487
v -0.37251803 0.14152882 -0.08226264
v -0.36889234 0.13913596 -0.08892821
v -0.41076544 0.13062365 -0.06069354
v -0.41744807 0.12776007 -0.05771967
v -0.42126334 0.12109146 -0.06113791
v -0.42469946 0.11446206 -0.06445361
v -0.46050605 -0.00498467 -0.04083357
v -0.45233050 -0.01498759 -0.05375452
v -0.43792254 -0.02499052 -0.07665673
v -0.46029279 -0.02499052 -0.04045756
v -0.46007949 -0.03161991 -0.04018410
v -0.45161957 -0.04495715 -0.05269486
v -0.43166646 -0.06496301 -0.08267283
v -0.43081334 -0.07496594 -0.08123717
v -0.43436795 -0.07496594 -0.07498179
v -0.44183260 -0.06410001 -0.06527399
v -0.45031622 -0.06158947 -0.05060974
v -0.44022119 -0.05496008 -0.07033298
v -0.43216410 -0.05496008 -0.08349320
v -0.44962901 -0.06825809 -0.04934499
v -0.43979463 -0.08900926 -0.05959971
v -0.45799413 -0.06547296 -0.03464656
v -0.46052974 -0.06245247 -0.03105740
v -0.45718843 0.02498489 -0.04544819
v -0.43244848 0.04499075 -0.08400594
v -0.43773296 0.03498782 -0.07631490
v -0.42152402 0.07288127 -0.09118424
v -0.42792228 0.06495737 -0.08766346
v -0.42882279 0.05495445 -0.08848383
v -0.42929673 0.04499075 -0.08903076
v -0.46043497 0.01498196 -0.04073102
v -0.44100320 0.02498489 -0.07163191
v -0.45737803 0.00497903 -0.04579002
v -0.42145294 0.11120620 -0.07118754
v -0.41744807 0.10712658 -0.07785311
v -0.41443852 0.10426300 -0.08229682
v -0.40282685 0.10300773 -0.09220972
v -0.39187872 0.10194860 -0.10143897
v -0.40950948 0.09912424 -0.08961186
v -0.42192686 0.09496616 -0.08151063
v -0.42526817 0.08441405 -0.08308302
v -0.43536323 -0.09497179 -0.06496634
v -0.43062377 -0.10116968 -0.07074317
v -0.44133496 -0.09301043 -0.05289996
v -0.43562391 -0.10497472 -0.05498508
v -0.44289896 -0.09579556 -0.04579002
v -0.45031622 -0.09069603 -0.03092067
v -0.44067141 -0.11144720 -0.03201451
v -0.44988966 -0.09975751 -0.01960630
v -0.46062455 -0.08139919 -0.01215453
v -0.46171463 -0.08324287 -0.00501041
v -0.46818396 -0.07406371 0.00541522
v -0.46282840 -0.08461582 0.00497085
v -0.46252033 -0.08591031 0.01539648
v -0.46007949 -0.09010762 0.02496755
v -0.44015008 -0.12023409 0.01498629
v -0.42007849 -0.15008596 0.00497085
v -0.41498357 -0.15365563 0.00497085
v -0.41552860 -0.15283187 0.01413173
v -0.41325366 -0.15283187 0.02496755
v -0.41204509 -0.15196887 0.03494881
v -0.41086024 -0.15087050 0.04496426
v -0.40552834 -0.15255727 0.05443279
v -0.39417735 -0.15828444 0.05463788
v -0.38927200 -0.15969662 0.05771430
v -0.39498305 -0.15475400 0.06496096
v -0.38261306 -0.16083421 0.06171364
v -0.39522004 -0.15102741 0.07196835
v -0.39898789 -0.14969370 0.07196835
v -0.39273182 -0.14098527 0.09189670
v -0.35976890 -0.16985646 0.05918414
v -0.33502892 -0.18440974 0.02496755
v -0.33502892 -0.18609650 0.01498629
v -0.32502866 -0.18527274 0.03494881
v -0.32502866 -0.18366443 0.04496426
v -0.32502866 -0.18197764 0.05497970
v -0.31500471 -0.18350752 0.05497970
v -0.32502866 -0.18052624 0.06113254
v -0.31500471 -0.18123233 0.06239729
v -0.29502791 -0.18209533 0.06376458
v -0.28500396 -0.18248761 0.06448241
v -0.26502714 -0.18374288 0.06496096
v -0.26294178 -0.17142554 0.08721371
v -0.26424512 -0.16750282 0.09401601
v -0.26500344 -0.17766266 0.07586515
v -0.26294178 -0.16754206 0.09401601
v -0.26294178 0.19279872 -0.05498508
v -0.26294178 0.19248490 -0.05642074
v -0.26294178 0.19091581 -0.06264194
v -0.26294178 0.19056277 -0.06370160
v -0.26294178 0.18907213 -0.06766675
v -0.26294178 0.18828759 -0.06934169
v -0.26502714 0.18550247 -0.07498179
v -0.27502739 0.17389122 -0.09497849
v -0.27502739 0.16788946 -0.10608777
v -0.27502739 0.16286838 -0.11405227
v -0.27502739 0.15910257 -0.11904290
v -0.28500396 0.15247318 -0.12239278
v -0.29159179 0.15078641 -0.12075202
v -0.33121365 0.14058736 -0.11056567
v -0.33787259 0.13882214 -0.10885655
v -0.32502866 0.13203584 -0.12198259
v -0.33085820 0.13046674 -0.12044438
v -0.35777831 0.13854754 -0.09853346
v -0.36550364 0.13552704 -0.09542286
v -0.37967461 0.12964298 -0.08968022
v -0.39003032 0.12999602 -0.08000660
v -0.40382215 0.12395503 -0.07392213
v -0.42986548 -0.00498467 -0.08981695
v -0.43796992 -0.01498759 -0.07675927
v -0.44924983 0.00497903 -0.05881351
v -0.42986548 0.00497903 -0.08981695
v -0.42979437 -0.02499052 -0.08968022
v -0.42962849 -0.03495422 -0.08944094
v -0.43775666 -0.03495422 -0.07631490
v -0.44887069 -0.03495422 -0.05819823
v -0.45192763 -0.03495422 -0.05320760
v -0.44858631 -0.04495715 -0.05768549
v -0.42865691 -0.05496008 -0.08848383
v -0.42763790 -0.06496301 -0.08766346
v -0.43019724 -0.08069310 -0.08024588
v -0.43787515 -0.08540037 -0.06452197
v -0.44759104 -0.06496301 -0.05436980
v -0.43744859 -0.04495715 -0.07587053
v -0.43244848 -0.04495715 -0.08400594
v -0.42924935 -0.04495715 -0.08903076
v -0.43147689 -0.09497179 -0.07211047
v -0.42965218 0.03498782 -0.08944094
v -0.37529060 0.08445328 -0.12290552
v -0.41055217 0.07111604 -0.10041349
v -0.40109697 0.06244684 -0.11087331
v -0.41178444 0.06495737 -0.10147315
v -0.42292216 0.06495737 -0.09241481
v -0.41832489 0.08496323 -0.08865475
v -0.40706867 0.08496323 -0.09764472
v -0.38965118 0.08931745 -0.10971111
v -0.37882152 0.08747377 -0.11900872
v -0.42384636 0.05495445 -0.09347447
v -0.42022067 0.03177119 -0.10017422
v -0.43292242 0.02498489 -0.08465540
v -0.42979437 0.02498489 -0.08968022
v -0.40052822 0.12046382 -0.08045097
v -0.41076544 0.11069626 -0.08058770
v -0.38088316 0.10085023 -0.11063403
v -0.39969882 0.10967635 -0.08978277
v -0.36984023 0.09971265 -0.11982910
v -0.37216258 0.09304403 -0.12164076
v -0.41133419 0.09245562 -0.09104752
v -0.36145139 -0.10148350 -0.12102548
v -0.42095527 -0.11058421 -0.07064062
v -0.42763790 -0.10783830 -0.06773512
v -0.43052900 -0.11101570 -0.06106955
v -0.43192711 -0.10470013 -0.06462452
v -0.42832515 -0.08736172 -0.07874185
v -0.36076418 -0.06123643 -0.14057782
v -0.35882100 -0.08834240 -0.12919508
v -0.43150058 -0.11458538 -0.05433562
v -0.43022093 -0.12046945 -0.05054137
v -0.43121621 -0.12270540 -0.04500382
v -0.42988917 -0.12976629 -0.03953464
v -0.45915532 -0.08826394 -0.00501041
v -0.45543483 -0.09497179 -0.00501041
v -0.45124042 -0.10187577 -0.00501041
v -0.45977145 -0.08963690 0.00497085
v -0.45991361 -0.08987226 0.01232007
v -0.46000841 -0.08998994 0.01898563
v -0.45730692 -0.09399112 0.01539648
v -0.44005531 -0.12007718 0.00821818
v -0.42846733 -0.13761172 0.00497085
v -0.42353830 -0.14494720 0.00497085
v -0.42005479 -0.15004674 -0.00063507
v -0.40645254 -0.15855902 0.00497085
v -0.40609708 -0.15851980 0.01498629
v -0.40495962 -0.15620540 0.03494881
v -0.40495962 -0.15455785 0.04496426
v -0.35135636 -0.18048702 0.01276444
v -0.34588227 -0.18213455 0.01566994
v -0.33502892 -0.18684182 0.00497085
v -0.32467321 -0.18931313 0.00592796
v -0.32502866 -0.18833245 0.01498629
v -0.29502791 -0.19496185 0.00497085
v -0.27009836 -0.19994369 0.00001440
v -0.26502714 -0.19225517 0.04496426
v -0.27843982 -0.18974464 0.04851923
v -0.27178085 -0.19017613 0.05057018
v -0.26502714 -0.19064686 0.05152728
v -0.26502714 -0.18825400 0.05651791
v -0.26294178 -0.18374288 0.06496096
v -0.26294178 -0.16832660 0.09268289
v -0.26294178 0.18542401 -0.07498179
v -0.26294178 0.18463947 -0.07648581
v -0.26502714 0.17855926 -0.08749255
v -0.26502714 0.16298607 -0.11446247
v -0.26502714 0.16796792 -0.10642960
v -0.26502714 0.15949485 -0.11945309
v -0.26502714 0.15451300 -0.12427281
v -0.27502739 0.15408151 -0.12386262
v -0.28500396 0.14729521 -0.12741759
v -0.29121265 0.13058443 -0.14057782
v -0.29483831 0.14486311 -0.12488809
v -0.31111836 0.13050598 -0.13052818
v -0.29085720 0.12046382 -0.15042233
v -0.33751714 0.12803467 -0.11856435
v -0.35007671 0.12999602 -0.11001875
v -0.35393935 0.13427179 -0.10431029
v -0.31012309 0.12003232 -0.14003089
v -0.36209121 0.13187893 -0.10143897
v -0.36877385 0.12866230 -0.09897783
v -0.42586061 0.00497903 -0.09497849
v -0.42574215 -0.00498467 -0.09497849
v -0.42083681 -0.00498467 -0.10072114
v -0.42003110 -0.03016851 -0.10000330
v -0.42263779 -0.06496301 -0.09166280
v -0.42128706 -0.07147472 -0.09077406
v -0.41927278 -0.03683713 -0.09942220
v -0.36846578 -0.04495715 -0.13869777
v -0.42048132 0.02498489 -0.10041349
v -0.42529190 0.02498489 -0.09497849
v -0.36943740 0.07876534 -0.12950271
v -0.37100139 0.07209672 -0.13073328
v -0.39322945 0.07496031 -0.11247988
v -0.36784968 0.08496323 -0.12840888
v -0.39486456 0.06476124 -0.11490683
v -0.39017251 0.06040702 -0.12010255
v -0.36984023 0.04914883 -0.13982581
v -0.38059881 0.05150246 -0.13049400
v -0.40718716 0.05495445 -0.10769434
v -0.41318259 0.05495445 -0.10270371
v -0.41818270 0.05495445 -0.09846510
v -0.41915429 0.04499075 -0.09928548
v -0.41974673 0.03843981 -0.09976403
v -0.39804000 0.03498782 -0.11835925
v -0.39303988 0.03498782 -0.12252951
v -0.39853764 0.02498489 -0.11876944
v -0.40953320 0.02498489 -0.10960856
v -0.42095527 0.00497903 -0.10085787
v -0.37095401 0.11089239 -0.11066821
v -0.35799161 0.09794743 -0.12881908
v -0.36543253 0.09551534 -0.12526411
v -0.36756530 0.11756101 -0.10817290
v -0.36090636 0.12077764 -0.11059985
v -0.36315760 0.10292927 -0.12215350
v -0.36104855 0.09127881 -0.13059655
v -0.35531381 -0.09556020 -0.12796451
v -0.34943688 -0.09924755 -0.12963945
v -0.32043141 -0.11023116 -0.14016762
v -0.33922336 -0.10925048 -0.12946853
v -0.35116678 -0.11078034 -0.12071784
v -0.35782570 -0.10815212 -0.11839344
v -0.39927226 -0.11917496 -0.07932295
v -0.35991108 -0.13984767 -0.08985113
v -0.42050505 -0.13031547 -0.05033628
v -0.42721137 -0.11768432 -0.05720694
v -0.34851268 -0.05672530 -0.14912343
v -0.31014678 -0.06013807 -0.17004305
v -0.35500574 -0.06472764 -0.14232111
v -0.35832337 -0.06790505 -0.13893706
v -0.36204383 -0.05496008 -0.14153492
v -0.35403416 -0.05401863 -0.14669648
v -0.42780381 -0.12768725 -0.04500382
v -0.41972303 -0.13980845 -0.03956882
v -0.42114487 -0.14082836 -0.03290325
v -0.42223495 -0.14200516 -0.02500712
v -0.43045789 -0.13070774 -0.03286907
v -0.45071906 -0.10109123 -0.01297491
v -0.44266200 -0.11407542 -0.01502586
v -0.45631164 -0.09497179 0.00497085
v -0.43941545 -0.11909650 -0.01502586
v -0.43116882 -0.13176687 -0.01502586
v -0.43972352 -0.11956722 -0.00501041
v -0.44825456 -0.10732835 0.00497085
v -0.43991312 -0.11984181 0.00155261
v -0.43083704 -0.13129614 -0.02500712
v -0.42721137 -0.13627800 -0.02500712
v -0.41924909 -0.14949755 -0.00730063
v -0.41552860 -0.15200810 -0.00436095
v -0.40052822 -0.16016735 -0.00073761
v -0.35071653 -0.18025166 -0.00131871
v -0.34500548 -0.18327215 0.00497085
v -0.33502892 -0.18578269 -0.00501041
v -0.32107121 -0.19017613 -0.00118198
v -0.32107121 -0.19017613 0.00329591
v -0.31602371 -0.19099990 0.00592796
v -0.32000485 -0.18994077 0.00996148
v -0.30502814 -0.19319662 0.00497085
v -0.27035904 -0.20002215 -0.00501041
v -0.26502714 -0.20029674 -0.00501041
v -0.26502714 -0.20002215 0.00045877
v -0.26502714 -0.19915915 0.00548359
v -0.26502714 -0.19578561 0.02496755
v -0.26294178 -0.19225517 0.04496426
v -0.26294178 -0.19366735 0.03703394
v -0.26294178 -0.19064686 0.05152728
v -0.26294178 -0.18825400 0.05651791
v -0.26294178 0.16796792 -0.10642960
v -0.26294178 0.16694802 -0.10813872
v -0.26294178 0.16231921 -0.11552212
v -0.26294178 0.15953408 -0.11948728
v -0.26294178 0.15851417 -0.12051275
v -0.26294178 0.15349309 -0.12536666
v -0.26502714 0.14921734 -0.12929761
v -0.27502739 0.14878583 -0.12885326
v -0.28500396 0.13207506 -0.14194511
v -0.29450655 0.11473665 -0.15216565
v -0.30156836 0.11124543 -0.15076417
v -0.29753983 0.11791405 -0.14857650
v -0.28500396 0.12677939 -0.14693573
v -0.28500396 0.12179754 -0.15161872
v -0.28453001 0.11430515 -0.15674609
v -0.28751588 0.10814649 -0.15907049
v -0.34514767 0.12481803 -0.11665013
v -0.35405785 0.12446499 -0.11186460
v -0.35675934 0.12744625 -0.10810453
v -0.32111862 0.11077471 -0.14057782
v -0.35133266 0.10096791 -0.13066491
v -0.35543227 0.10528290 -0.12519574
v -0.36484012 0.12473958 -0.10478884
v -0.41014934 -0.00102272 -0.11012129
v -0.37235215 -0.00498467 -0.14197929
v -0.37159383 -0.01498759 -0.14132982
v -0.36441356 -0.01557600 -0.14700410
v -0.36346567 -0.04495715 -0.14262876
v -0.39894050 0.01498196 -0.11911127
v -0.38832411 0.00497903 -0.12857980
v -0.39422473 0.00497903 -0.12358917
v -0.41398829 0.01404051 -0.10642960
v -0.36846578 0.05495445 -0.13883451
v -0.37266022 0.06495737 -0.13203222
v -0.38863218 0.06707564 -0.11890617
v -0.36284953 0.08496323 -0.13186130
v -0.36346567 0.05495445 -0.14228693
v -0.35765982 0.04499075 -0.14867905
v -0.36593020 0.04546147 -0.14317568
v -0.37052745 0.04248021 -0.14037272
v -0.38135710 0.04499075 -0.13107511
v -0.38633355 0.04499075 -0.12690485
v -0.39730540 0.04499075 -0.11770979
v -0.40322971 0.04499075 -0.11271916
v -0.37100139 0.03498782 -0.14078291
v -0.38796866 0.01498196 -0.12830633
v -0.41510206 0.00497903 -0.10584850
v -0.35953191 0.10959789 -0.11969237
v -0.33827546 0.09822202 -0.13907379
v -0.35479245 0.09473079 -0.13227150
v -0.34827572 0.08763068 -0.13910797
v -0.35443699 0.08457096 -0.13695449
v -0.35953191 0.06923313 -0.13968907
v -0.35216206 -0.09261816 -0.13114348
v -0.29467243 -0.07441676 -0.17192307
v -0.29109415 -0.08120306 -0.17058995
v -0.30088115 -0.11074112 -0.15042233
v -0.29424590 -0.11442847 -0.15175545
v -0.29038322 -0.12019486 -0.15021726
v -0.29111785 -0.10120891 -0.16060871
v -0.34787285 -0.13859241 -0.09880693
v -0.35325214 -0.14200516 -0.09214135
v -0.34720933 -0.14867379 -0.08803947
v -0.42280367 -0.13259065 -0.04500382
v -0.35005301 -0.05009591 -0.14997798
v -0.31099987 -0.05496008 -0.17048740
v -0.29182875 -0.05496008 -0.18094724
v -0.29073870 -0.06092261 -0.18033195
v -0.29445916 -0.06453151 -0.17667443
v -0.35585883 -0.04495715 -0.14761940
v -0.35135636 -0.15079205 -0.08137390
v -0.34998190 -0.16993491 -0.04996027
v -0.35244644 -0.17111173 -0.04326052
v -0.41259015 -0.15106665 -0.01331674
v -0.43486559 -0.12494135 -0.02500712
v -0.40431979 -0.15742144 -0.00446349
v -0.34500548 -0.17644662 -0.03498838
v -0.33960250 -0.17985938 -0.02948501
v -0.34123760 -0.18048702 -0.02281944
v -0.34273055 -0.18123233 -0.01502586
v -0.34543204 -0.18185997 -0.00480532
v -0.28059626 -0.19009767 -0.06035172
v -0.32467321 -0.18860704 -0.00470277
v -0.27502739 -0.19229440 -0.05498508
v -0.27502739 -0.19382426 -0.04500382
v -0.27038273 -0.20002215 -0.01061633
v -0.26502714 -0.20017906 -0.01153925
v -0.26294178 -0.20025751 -0.00972758
v -0.26294178 -0.20029674 -0.00501041
v -0.26294178 -0.20002215 0.00049295
v -0.26294178 0.14823665 -0.13028891
v -0.26294178 0.14317635 -0.13500609
v -0.26294178 0.12348431 -0.15322530
v -0.26502714 0.12340586 -0.15315694
v -0.27502739 0.12803467 -0.14816630
v -0.27502739 0.13842987 -0.13852687
v -0.27502739 0.14380398 -0.13353625
v -0.29493311 0.10485140 -0.15732720
v -0.30825099 0.10818572 -0.14902088
v -0.33161652 0.10132096 -0.14078291
v -0.27502739 0.12301359 -0.15274674
v -0.27502739 0.11630574 -0.15777156
v -0.28083324 0.11050012 -0.16023269
v -0.28701821 0.08806217 -0.16901758
v -0.29144961 0.08139356 -0.17065832
v -0.29152071 0.10147787 -0.16071126
v -0.37739968 0.00497903 -0.13777485
v -0.37237585 0.00497903 -0.14197929
v -0.36616716 -0.00498467 -0.14696991
v -0.36066937 -0.01267319 -0.15042233
v -0.35981628 -0.01930258 -0.14987543
v -0.36147508 0.06256452 -0.14088546
v -0.35121417 0.05177705 -0.15062743
v -0.35472137 0.05507213 -0.14748266
v -0.35265970 0.04499075 -0.15137947
v -0.35889208 0.03498782 -0.14936268
v -0.36502969 0.03498782 -0.14515826
v -0.36602497 0.00497903 -0.14696991
v -0.37194929 0.01498196 -0.14156911
v -0.33498153 0.09492693 -0.14238948
v -0.34159309 0.09155340 -0.14074874
v -0.34498179 0.09492693 -0.13733049
v -0.31156862 0.10151710 -0.15076417
v -0.33130845 0.08147201 -0.15069580
v -0.33799109 0.07688244 -0.14884996
v -0.34410498 0.07409731 -0.14649138
v -0.34903401 0.05844567 -0.14943105
v -0.28500396 -0.07496594 -0.17581987
v -0.28694713 -0.08787167 -0.16891503
v -0.28076214 -0.11050575 -0.16023269
v -0.28742108 -0.10787753 -0.15893376
v -0.28445891 -0.11427156 -0.15650681
v -0.28500396 -0.12156781 -0.15141365
v -0.28500396 -0.13180611 -0.14167166
v -0.28500396 -0.14702624 -0.12707576
v -0.28500396 -0.15714686 -0.11723123
v -0.32934156 -0.14949755 -0.09942220
v -0.29095197 -0.16036348 -0.11046312
v -0.33896267 -0.16954264 -0.05936043
v -0.34877336 -0.15938281 -0.06899987
v -0.35088241 -0.04495715 -0.15042233
v -0.32502866 -0.04495715 -0.16453966
v -0.28500396 -0.05496008 -0.18320328
v -0.33325163 -0.03495422 -0.16173673
v -0.34036082 -0.02110703 -0.16016433
v -0.33502892 -0.01498759 -0.16399276
v -0.29327431 -0.04495715 -0.18173343
v -0.29024106 -0.00078736 -0.19007394
v -0.28851116 -0.00741675 -0.18959537
v -0.28500396 -0.06300165 -0.18118650
v -0.28500396 -0.06798350 -0.17910138
v -0.34329927 -0.17158245 -0.05269486
v -0.34600076 -0.17315154 -0.04596093
v -0.33502892 -0.17762344 -0.04500382
v -0.32149777 -0.18033011 -0.05095156
v -0.31014678 -0.17997706 -0.06004408
v -0.28436413 -0.18688105 -0.06418015
v -0.28050146 -0.18013397 -0.08034842
v -0.27502739 -0.18845013 -0.06688055
v -0.27502739 -0.19068608 -0.06188993
v -0.26502714 -0.19292203 -0.05498508
v -0.26502714 -0.19468725 -0.04500382
v -0.26502714 -0.19637403 -0.03498838
v -0.26502714 -0.19939451 -0.01649570
v -0.26294178 -0.20017906 -0.01147089
v -0.26294178 0.12226827 -0.15425077
v -0.30495706 0.10489063 -0.15233657
v -0.26294178 0.11732565 -0.15821594
v -0.26502714 0.11716874 -0.15814757
v -0.26294178 0.11630574 -0.15886539
v -0.26502714 0.11218689 -0.16115561
v -0.27502739 0.11128466 -0.16064289
v -0.27502739 0.10496908 -0.16371930
v -0.28035927 0.09018044 -0.17007723
v -0.28500396 0.07496031 -0.17595661
v -0.28500396 0.06809555 -0.17916974
v -0.29080978 0.06099543 -0.18040031
v -0.29488572 0.07480340 -0.17223072
v -0.36116701 -0.00498467 -0.15076417
v -0.34626144 -0.01498759 -0.15794247
v -0.35590622 -0.01557600 -0.15261003
v -0.35502943 -0.00498467 -0.15425077
v -0.31031266 0.06040702 -0.17011142
v -0.34500548 0.04499075 -0.15537879
v -0.33924705 0.03718454 -0.15958324
v -0.34014753 0.03051592 -0.16006178
v -0.34410498 0.03428173 -0.15742975
v -0.35389197 0.03498782 -0.15206310
v -0.34062147 0.02498489 -0.16030106
v -0.35574034 0.02412189 -0.15206310
v -0.35953191 0.02686779 -0.14970452
v -0.36005324 0.02019918 -0.14997798
v -0.36102486 0.00497903 -0.15062743
v -0.30133137 0.07139063 -0.17065832
v -0.30799031 0.06703641 -0.16891503
v -0.28028819 -0.09010762 -0.17004305
v -0.27502739 -0.11125106 -0.16060871
v -0.27502739 -0.11623292 -0.15777156
v -0.27502739 -0.10497472 -0.16361675
v -0.27502739 -0.12294076 -0.15274674
v -0.27502739 -0.12796184 -0.14813212
v -0.27502739 -0.13337518 -0.14310732
v -0.27502739 -0.14875224 -0.12881908
v -0.27502739 -0.15404791 -0.12382844
v -0.27502739 -0.15902975 -0.11900872
v -0.28500396 -0.16157952 -0.11224061
v -0.28424564 -0.16652215 -0.10413937
v -0.33538437 -0.17311232 -0.05560037
v -0.27502739 -0.05496008 -0.18511748
v -0.28182852 -0.01263396 -0.19038159
v -0.27924550 -0.01930258 -0.18986884
v -0.30258733 -0.01498759 -0.18135741
v -0.29502791 -0.01498759 -0.18539095
v -0.28509873 -0.00443549 -0.19079176
v -0.29024106 0.00078173 -0.19007394
v -0.27502739 -0.00498467 -0.19253507
v -0.27543026 -0.06582601 -0.18190435
v -0.27905592 -0.06974872 -0.17985341
v -0.32491019 -0.17738807 -0.05454071
v -0.28038299 -0.17009182 -0.10027677
v -0.26502714 -0.18907776 -0.06780349
v -0.27502739 -0.18433128 -0.07498179
v -0.26502714 -0.19099990 -0.06277867
v -0.26294178 -0.19088222 -0.06257357
v -0.26294178 -0.19272590 -0.05498508
v -0.26294178 -0.19488339 -0.04295288
v -0.26294178 -0.19825692 -0.02302454
v -0.26294178 -0.19959065 -0.01512840
v -0.26294178 0.11230457 -0.16125816
v -0.26294178 0.11069626 -0.16214693
v -0.26502714 0.10496908 -0.16481313
v -0.26294178 0.09731979 -0.16870993
v -0.26502714 0.08496323 -0.17435002
v -0.26294178 0.07178290 -0.18084469
v -0.27929291 0.06978232 -0.17988759
v -0.28500396 0.06311370 -0.18122068
v -0.28500396 0.05495445 -0.18327165
v -0.28853485 0.00745035 -0.18959537
v -0.29197097 0.05495445 -0.18094724
v -0.33808586 0.04499075 -0.15896794
v -0.35502943 0.00497903 -0.15404567
v -0.34718564 0.00497903 -0.15842104
v -0.33308575 0.04499075 -0.16153163
v -0.29848772 0.04499075 -0.17920393
v -0.32038400 0.03114356 -0.17014560
v -0.29502791 0.01498196 -0.18556187
v -0.33555025 0.03428173 -0.16190764
v -0.32123709 0.02498489 -0.17062414
v -0.31500471 0.00497903 -0.17612752
v -0.35502943 0.01498196 -0.15322530
v -0.26502714 -0.11211406 -0.16112143
v -0.26294178 -0.10497472 -0.16481313
v -0.26502714 -0.11709592 -0.15811339
v -0.26294178 -0.11227097 -0.16122398
v -0.26294178 -0.07155317 -0.18074214
v -0.26502714 -0.12321535 -0.15312275
v -0.26294178 -0.11725283 -0.15818176
v -0.26502714 -0.15444018 -0.12413608
v -0.26502714 -0.15946126 -0.11938473
v -0.27502739 -0.16279556 -0.11398391
v -0.27502739 -0.16781664 -0.10591686
v -0.27502739 -0.03495422 -0.18809137
v -0.26294178 -0.04491792 -0.18815973
v -0.26294178 -0.05496008 -0.18665570
v -0.28512245 0.00446908 -0.19079176
v -0.27502739 0.00497903 -0.19253507
v -0.29348758 0.04499075 -0.18173343
v -0.26294178 -0.00498467 -0.19407329
v -0.26294178 0.00293922 -0.19410744
v -0.26502714 -0.06496301 -0.18347672
v -0.27502739 -0.17366149 -0.09497849
v -0.26502714 -0.18539041 -0.07498179
v -0.26294178 -0.18531196 -0.07498179
v -0.26294178 -0.18903854 -0.06756420
v -0.26294178 0.10496908 -0.16501823
v -0.26294178 0.06495737 -0.18378437
v -0.26502714 0.06495737 -0.18354508
v -0.27559614 0.06585960 -0.18193853
v -0.27502739 0.05495445 -0.18518585
v -0.27934030 0.01937540 -0.18986884
v -0.28187591 0.01270679 -0.19038159
v -0.28500396 0.04499075 -0.18477565
v -0.26294178 -0.06496301 -0.18368182
v -0.26294178 -0.12329381 -0.15315694
v -0.26294178 -0.15451863 -0.12417027
v -0.26294178 -0.15553854 -0.12321316
v -0.26294178 -0.15950048 -0.11945309
v -0.26502714 -0.16291325 -0.11439410
v -0.26502714 -0.16789509 -0.10625868
v -0.26502714 -0.17421067 -0.09497849
v -0.26294178 0.00497903 -0.19410744
v -0.27561983 0.01560960 -0.19092849
v -0.26294178 0.01498196 -0.19267181
v -0.26294178 -0.16789509 -0.10622450
v -0.26294178 0.06291756 -0.18439966
v -0.26502714 0.05495445 -0.18641642
v -0.26294178 0.05287541 -0.18699750
v -0.26294178 0.04495152 -0.18822807
v -0.26294178 0.03514473 -0.18969792
v -0.27502739 0.03498782 -0.18815973
v -0.26294178 -0.16287401 -0.11446247
v -0.26294178 0.05495445 -0.18665570
f 1 2 7
f 1 7 19
f 1 19 24
f 1 24 61
f 1 61 100
f 1 100 99
f 1 99 137
f 1 137 191
f 1 191 190
f 1 190 135
f 1 135 134
f 1 134 189
f 1 189 235
f 1 235 297
f 1 297 358
f 1 358 435
f 1 435 541
f 1 541 540
f 1 540 532
f 1 532 531
f 1 531 530
f 1 530 558
f 1 558 555
f 1 555 446
f 1 446 366
f 1 366 306
f 1 306 305
f 1 305 298
f 1 298 241
f 1 241 240
f 1 240 239
f 1 239 238
f 1 238 237
f 1 237 236
f 1 236 192
f 1 192 140
f 1 140 105
f 1 105 72
f 1 72 71
f 1 71 70
f 1 70 69
f 1 69 68
f 1 68 67
f 1 67 66
f 1 66 37
f 1 37 36
f 1 36 35
f 1 35 34
f 1 34 33
f 1 33 32
f 1 32 31
f 1 31 30
f 1 30 29
f 1 29 16
f 1 16 12
f 1 12 3
f 1 3 4
f 1 4 5
f 1 5 6
f 1 6 2
f 2 6 8
f 2 8 9
f 2 9 10
f 2 10 11
f 2 11 7
f 3 12 4
f 4 13 14
f 4 14 15
f 4 15 6
f 4 6 5
f 4 12 16
f 4 16 13
f 6 15 17
f 6 17 18
f 6 18 8
f 7 11 19
f 8 18 20
f 8 20 21
f 8 21 9
f 9 21 22
f 9 22 23
f 9 23 11
f 9 11 10
f 11 24 19
f 11 23 25
f 11 25 26
f 11 26 27
f 11 27 24
f 13 28 39
f 13 39 14
f 13 16 29
f 13 29 30
f 13 30 31
f 13 31 32
f 13 32 33
f 13 33 34
f 13 34 35
f 13 35 36
f 13 36 37
f 13 37 38
f 13 38 72
f 13 72 105
f 13 105 142
f 13 142 194
f 13 194 245
f 13 245 310
f 13 310 374
f 13 374 450
f 13 450 449
f 13 449 451
f 13 451 554
f 13 554 664
f 13 664 767
f 13 767 661
f 13 661 766
f 13 766 872
f 13 872 871
f 13 871 869
f 13 869 870
f 13 870 962
f 13 962 961
f 13 961 960
f 13 960 1037
f 13 1037 1100
f 13 1100 1099
f 13 1099 1098
f 13 1098 1097
f 13 1097 1096
f 13 1096 1146
f 13 1146 1145
f 13 1145 1166
f 13 1166 1173
f 13 1173 1159
f 13 1159 1158
f 13 1158 1157
f 13 1157 1156
f 13 1156 1129
f 13 1129 1126
f 13 1126 1124
f 13 1124 1127
f 13 1127 1155
f 13 1155 1136
f 13 1136 1135
f 13 1135 1140
f 13 1140 1141
f 13 1141 1163
f 13 1163 1165
f 13 1165 1171
f 13 1171 1170
f 13 1170 1169
f 13 1169 1174
f 13 1174 1167
f 13 1167 1148
f 13 1148 1106
f 13 1106 1104
f 13 1104 1147
f 13 1147 1102
f 13 1102 1101
f 13 1101 1042
f 13 1042 1040
f 13 1040 1038
f 13 1038 965
f 13 965 964
f 13 964 963
f 13 963 878
f 13 878 877
f 13 877 876
f 13 876 875
f 13 875 874
f 13 874 873
f 13 873 769
f 13 769 768
f 13 768 670
f 13 670 669
f 13 669 668
f 13 668 667
f 13 667 666
f 13 666 665
f 13 665 559
f 13 559 452
f 13 452 400
f 13 400 329
f 13 329 328
f 13 328 327
f 13 327 326
f 13 326 325
f 13 325 324
f 13 324 263
f 13 263 262
f 13 262 208
f 13 208 206
f 13 206 205
f 13 205 155
f 13 155 195
f 13 195 144
f 13 144 143
f 13 143 108
f 13 108 107
f 13 107 77
f 13 77 76
f 13 76 75
f 13 75 74
f 13 74 65
f 13 65 28
f 14 39 40
f 14 40 15
f 15 40 41
f 15 41 17
f 17 42 18
f 17 41 43
f 17 43 44
f 17 44 45
f 17 45 46
f 17 46 42
f 18 47 20
f 18 42 48
f 18 48 49
f 18 49 50
f 18 50 47
f 20 47 21
f 21 50 51
f 21 51 22
f 21 47 50
f 22 52 53
f 22 53 54
f 22 54 25
f 22 25 23
f 22 51 55
f 22 55 56
f 22 56 57
f 22 57 58
f 22 58 59
f 22 59 52
f 24 60 61
f 24 27 60
f 25 54 26
f 26 54 53
f 26 53 62
f 26 62 63
f 26 63 64
f 26 64 27
f 27 64 60
f 28 65 39
f 37 66 38
f 38 66 67
f 38 67 68
f 38 68 69
f 38 69 70
f 38 70 71
f 38 71 72
f 39 43 41
f 39 41 40
f 39 65 74
f 39 74 44
f 39 44 43
f 42 46 73
f 42 73 48
f 44 74 75
f 44 75 76
f 44 76 45
f 45 73 46
f 45 76 77
f 45 77 78
f 45 78 73
f 48 73 79
f 48 79 80
f 48 80 49
f 49 80 50
f 50 80 51
f 51 81 55
f 51 80 81
f 52 59 53
f 53 82 83
f 53 83 62
f 53 59 82
f 55 81 84
f 55 84 85
f 55 85 56
f 56 85 86
f 56 86 87
f 56 87 57
f 57 87 88
f 57 88 58
f 58 88 89
f 58 89 90
f 58 90 91
f 58 91 92
f 58 92 59
f 59 92 91
f 59 91 82
f 60 93 94
f 60 94 95
f 60 95 96
f 60 96 97
f 60 97 98
f 60 98 99
f 60 99 100
f 60 100 61
f 60 64 101
f 60 101 102
f 60 102 103
f 60 103 93
f 62 83 104
f 62 104 63
f 63 104 64
f 64 104 101
f 73 78 106
f 73 106 79
f 77 107 78
f 78 107 108
f 78 108 109
f 78 109 106
f 79 106 80
f 80 106 81
f 81 106 109
f 81 109 110
f 81 110 84
f 82 91 83
f 83 111 101
f 83 101 104
f 83 91 90
f 83 90 112
f 83 112 113
f 83 113 111
f 84 110 114
f 84 114 115
f 84 115 85
f 85 115 116
f 85 116 86
f 86 116 117
f 86 117 118
f 86 118 119
f 86 119 120
f 86 120 121
f 86 121 122
f 86 122 87
f 87 122 88
f 88 122 123
f 88 123 124
f 88 124 89
f 89 124 125
f 89 125 126
f 89 126 90
f 90 126 127
f 90 127 112
f 93 103 128
f 93 128 94
f 94 128 95
f 95 129 130
f 95 130 131
f 95 131 96
f 95 128 129
f 96 131 132
f 96 132 133
f 96 133 134
f 96 134 135
f 96 135 97
f 97 135 136
f 97 136 98
f 98 136 137
f 98 137 99
f 101 111 138
f 101 138 102
f 102 138 103
f 103 138 139
f 103 139 128
f 105 140 141
f 105 141 142
f 108 143 109
f 109 143 144
f 109 144 145
f 109 145 110
f 110 145 114
f 111 113 146
f 111 146 147
f 111 147 148
f 111 148 138
f 112 127 149
f 112 149 150
f 112 150 151
f 112 151 152
f 112 152 153
f 112 153 113
f 113 153 154
f 113 154 146
f 114 145 115
f 115 145 155
f 115 155 156
f 115 156 157
f 115 157 116
f 116 157 117
f 117 157 158
f 117 158 118
f 118 158 119
f 119 158 159
f 119 159 160
f 119 160 121
f 119 121 120
f 121 160 161
f 121 161 122
f 122 161 123
f 123 161 162
f 123 162 163
f 123 163 124
f 124 163 164
f 124 164 125
f 125 164 165
f 125 165 166
f 125 166 167
f 125 167 168
f 125 168 126
f 126 168 169
f 126 169 203
f 126 203 170
f 126 170 171
f 126 171 172
f 126 172 127
f 127 172 149
f 128 139 173
f 128 173 174
f 128 174 175
f 128 175 176
f 128 176 177
f 128 177 129
f 129 178 179
f 129 179 130
f 129 177 180
f 129 180 181
f 129 181 182
f 129 182 178
f 130 179 183
f 130 183 184
f 130 184 131
f 131 184 185
f 131 185 186
f 131 186 132
f 132 186 133
f 133 187 188
f 133 188 134
f 133 186 187
f 134 188 189
f 135 190 136
f 136 191 137
f 136 190 191
f 138 173 139
f 138 148 173
f 140 192 193
f 140 193 141
f 141 193 194
f 141 194 142
f 144 195 145
f 145 195 155
f 146 196 147
f 146 154 197
f 146 197 151
f 146 151 198
f 146 198 199
f 146 199 196
f 147 200 201
f 147 201 148
f 147 196 200
f 148 201 173
f 149 202 199
f 149 199 198
f 149 198 151
f 149 151 150
f 149 172 171
f 149 171 170
f 149 170 203
f 149 203 204
f 149 204 202
f 151 197 152
f 152 197 153
f 153 197 154
f 155 205 156
f 156 205 206
f 156 206 207
f 156 207 157
f 157 207 158
f 158 162 159
f 158 207 206
f 158 206 208
f 158 208 209
f 158 209 162
f 159 162 160
f 160 162 161
f 162 209 163
f 163 209 210
f 163 210 164
f 164 210 211
f 164 211 212
f 164 212 165
f 165 212 211
f 165 211 166
f 166 213 167
f 166 211 213
f 167 213 214
f 167 214 215
f 167 215 168
f 168 216 218
f 168 218 169
f 168 215 217
f 168 217 216
f 169 218 203
f 173 201 200
f 173 200 174
f 174 200 175
f 175 200 176
f 176 219 177
f 176 200 220
f 176 220 219
f 177 219 181
f 177 181 180
f 178 182 181
f 178 181 221
f 178 221 222
f 178 222 179
f 179 223 224
f 179 224 225
f 179 225 183
f 179 222 226
f 179 226 227
f 179 227 223
f 181 219 221
f 183 225 228
f 183 228 229
f 183 229 230
f 183 230 184
f 184 230 186
f 184 186 185
f 186 230 187
f 187 231 188
f 187 230 231
f 188 232 233
f 188 233 234
f 188 234 235
f 188 235 189
f 188 231 232
f 192 236 193
f 193 236 237
f 193 237 238
f 193 238 239
f 193 239 240
f 193 240 241
f 193 241 242
f 193 242 243
f 193 243 194
f 194 243 244
f 194 244 245
f 196 199 200
f 199 202 246
f 199 246 200
f 200 246 247
f 200 247 248
f 200 248 220
f 202 204 249
f 202 249 250
f 202 250 251
f 202 251 252
f 202 252 248
f 202 248 247
f 202 247 246
f 203 218 253
f 203 253 254
f 203 254 255
f 203 255 204
f 204 255 256
f 204 256 257
f 204 257 258
f 204 258 259
f 204 259 260
f 204 260 261
f 204 261 249
f 208 262 209
f 209 262 210
f 210 262 263
f 210 263 264
f 210 264 213
f 210 213 265
f 210 265 211
f 211 265 213
f 213 266 214
f 213 264 267
f 213 267 268
f 213 268 269
f 213 269 270
f 213 270 255
f 213 255 266
f 214 266 215
f 215 266 217
f 216 253 218
f 216 217 253
f 217 255 254
f 217 254 253
f 217 266 271
f 217 271 272
f 217 272 255
f 219 220 273
f 219 273 274
f 219 274 275
f 219 275 276
f 219 276 277
f 219 277 221
f 220 248 252
f 220 252 278
f 220 278 279
f 220 279 273
f 221 277 280
f 221 280 222
f 222 280 276
f 222 276 281
f 222 281 282
f 222 282 226
f 223 283 224
f 223 227 283
f 224 283 225
f 225 284 285
f 225 285 286
f 225 286 287
f 225 287 228
f 225 283 288
f 225 288 289
f 225 289 284
f 226 282 290
f 226 290 227
f 227 290 291
f 227 291 292
f 227 292 288
f 227 288 283
f 228 287 232
f 228 232 231
f 228 231 229
f 229 231 230
f 232 287 293
f 232 293 233
f 233 293 294
f 233 294 295
f 233 295 234
f 234 295 296
f 234 296 297
f 234 297 235
f 241 298 242
f 242 299 300
f 242 300 301
f 242 301 302
f 242 302 303
f 242 303 304
f 242 304 243
f 242 298 305
f 242 305 306
f 242 306 299
f 243 304 244
f 244 304 307
f 244 307 308
f 244 308 309
f 244 309 245
f 245 309 310
f 249 261 250
f 250 261 311
f 250 311 252
f 250 252 251
f 252 312 278
f 252 311 312
f 255 272 271
f 255 271 266
f 255 270 313
f 255 313 256
f 256 258 257
f 256 313 314
f 256 314 258
f 258 315 259
f 258 314 316
f 258 316 315
f 259 317 260
f 259 315 318
f 259 318 319
f 259 319 320
f 259 320 317
f 260 321 322
f 260 322 261
f 260 317 321
f 261 322 323
f 261 323 311
f 263 324 264
f 264 324 325
f 264 325 267
f 267 325 326
f 267 326 268
f 268 326 327
f 268 327 328
f 268 328 269
f 269 328 329
f 269 329 330
f 269 330 314
f 269 314 270
f 270 314 313
f 273 279 274
f 274 331 332
f 274 332 333
f 274 333 275
f 274 279 331
f 275 334 276
f 275 333 334
f 276 334 281
f 276 280 335
f 276 335 277
f 277 335 280
f 278 312 279
f 279 312 336
f 279 336 331
f 281 334 282
f 282 334 290
f 284 337 338
f 284 338 343
f 284 343 285
f 284 289 339
f 284 339 340
f 284 340 341
f 284 341 342
f 284 342 337
f 285 343 344
f 285 344 286
f 286 344 293
f 286 293 287
f 288 292 291
f 288 291 334
f 288 334 345
f 288 345 346
f 288 346 347
f 288 347 348
f 288 348 349
f 288 349 350
f 288 350 289
f 289 350 340
f 289 340 339
f 290 334 291
f 293 344 351
f 293 351 294
f 294 351 352
f 294 352 295
f 295 352 353
f 295 353 296
f 296 354 297
f 296 353 354
f 297 354 355
f 297 355 356
f 297 356 357
f 297 357 358
f 299 359 300
f 299 306 359
f 300 359 301
f 301 359 360
f 301 360 302
f 302 360 303
f 303 361 307
f 303 307 304
f 303 360 362
f 303 362 363
f 303 363 364
f 303 364 365
f 303 365 361
f 306 366 367
f 306 367 368
f 306 368 369
f 306 369 362
f 306 362 370
f 306 370 359
f 307 361 371
f 307 371 308
f 308 371 309
f 309 372 310
f 309 371 373
f 309 373 372
f 310 372 374
f 311 323 375
f 311 375 312
f 312 376 336
f 312 375 323
f 312 323 376
f 314 330 377
f 314 377 378
f 314 378 379
f 314 379 316
f 315 316 380
f 315 380 318
f 316 379 381
f 316 381 380
f 317 320 382
f 317 382 383
f 317 383 384
f 317 384 385
f 317 385 386
f 317 386 321
f 318 380 387
f 318 387 388
f 318 388 319
f 319 388 389
f 319 389 320
f 320 390 391
f 320 391 384
f 320 384 383
f 320 383 382
f 320 389 392
f 320 392 390
f 321 386 385
f 321 385 393
f 321 393 323
f 321 323 322
f 323 394 395
f 323 395 396
f 323 396 397
f 323 397 398
f 323 398 376
f 323 393 399
f 323 399 394
f 329 400 330
f 330 400 377
f 331 336 401
f 331 401 332
f 332 401 334
f 332 334 333
f 334 402 403
f 334 403 404
f 334 404 345
f 334 401 402
f 336 405 401
f 336 376 406
f 336 406 405
f 337 407 408
f 337 408 409
f 337 409 410
f 337 410 411
f 337 411 338
f 337 342 419
f 337 419 407
f 338 351 343
f 338 411 410
f 338 410 412
f 338 412 413
f 338 413 351
f 340 414 342
f 340 342 341
f 340 350 348
f 340 348 415
f 340 415 416
f 340 416 417
f 340 417 414
f 342 414 418
f 342 418 419
f 343 351 344
f 345 404 346
f 346 404 420
f 346 420 421
f 346 421 422
f 346 422 347
f 347 422 423
f 347 423 424
f 347 424 415
f 347 415 348
f 348 350 349
f 351 413 425
f 351 425 426
f 351 426 427
f 351 427 352
f 352 427 428
f 352 428 353
f 353 428 354
f 354 428 429
f 354 429 430
f 354 430 355
f 355 430 356
f 356 430 431
f 356 431 432
f 356 432 433
f 356 433 357
f 357 433 434
f 357 434 435
f 357 435 358
f 359 370 360
f 360 370 362
f 361 365 436
f 361 436 437
f 361 437 371
f 362 369 368
f 362 368 438
f 362 438 363
f 363 439 440
f 363 440 364
f 363 438 439
f 364 440 441
f 364 441 442
f 364 442 365
f 365 442 443
f 365 443 444
f 365 444 445
f 365 445 436
f 366 446 447
f 366 447 367
f 367 447 368
f 368 447 448
f 368 448 438
f 371 437 373
f 372 373 374
f 373 449 450
f 373 450 374
f 373 437 445
f 373 445 451
f 373 451 449
f 376 398 406
f 377 400 452
f 377 452 559
f 377 559 453
f 377 453 454
f 377 454 378
f 378 454 388
f 378 388 455
f 378 455 379
f 379 455 381
f 380 381 455
f 380 455 387
f 384 391 385
f 385 391 456
f 385 456 457
f 385 457 458
f 385 458 459
f 385 459 460
f 385 460 399
f 385 399 393
f 387 455 388
f 388 454 389
f 389 454 392
f 390 461 462
f 390 462 463
f 390 463 464
f 390 464 458
f 390 458 457
f 390 457 391
f 390 392 454
f 390 454 465
f 390 465 461
f 391 457 456
f 394 466 467
f 394 467 468
f 394 468 469
f 394 469 470
f 394 470 471
f 394 471 472
f 394 472 473
f 394 473 474
f 394 474 475
f 394 475 476
f 394 476 477
f 394 477 478
f 394 478 395
f 394 399 460
f 394 460 458
f 394 458 464
f 394 464 479
f 394 479 466
f 395 478 396
f 396 477 480
f 396 480 481
f 396 481 482
f 396 482 397
f 396 478 477
f 397 482 401
f 397 401 398
f 398 401 405
f 398 405 406
f 401 482 483
f 401 483 484
f 401 484 485
f 401 485 402
f 402 485 403
f 403 485 486
f 403 486 421
f 403 421 404
f 404 421 420
f 407 419 511
f 407 511 487
f 407 487 488
f 407 488 408
f 408 488 409
f 409 488 489
f 409 489 490
f 409 490 491
f 409 491 492
f 409 492 493
f 409 493 410
f 410 493 494
f 410 494 495
f 410 495 496
f 410 496 497
f 410 497 498
f 410 498 499
f 410 499 413
f 410 413 412
f 413 499 425
f 414 500 501
f 414 501 418
f 414 417 502
f 414 502 500
f 415 424 503
f 415 503 504
f 415 504 505
f 415 505 416
f 416 504 506
f 416 506 417
f 416 505 504
f 417 507 500
f 417 500 502
f 417 506 508
f 417 508 509
f 417 509 507
f 418 501 510
f 418 510 419
f 419 510 511
f 421 512 423
f 421 423 422
f 421 486 512
f 423 512 513
f 423 513 514
f 423 514 515
f 423 515 516
f 423 516 504
f 423 504 503
f 423 503 424
f 425 517 518
f 425 518 519
f 425 519 520
f 425 520 521
f 425 521 522
f 425 522 523
f 425 523 426
f 425 499 524
f 425 524 517
f 426 523 427
f 427 523 525
f 427 525 428
f 428 525 526
f 428 526 430
f 428 430 429
f 430 526 431
f 431 527 528
f 431 528 529
f 431 529 432
f 431 526 527
f 432 530 531
f 432 531 532
f 432 532 533
f 432 533 433
f 432 529 534
f 432 534 535
f 432 535 536
f 432 536 537
f 432 537 538
f 432 538 539
f 432 539 530
f 433 533 540
f 433 540 541
f 433 541 434
f 434 541 435
f 436 445 437
f 438 448 439
f 439 542 543
f 439 543 544
f 439 544 545
f 439 545 546
f 439 546 547
f 439 547 548
f 439 548 440
f 439 448 542
f 440 548 549
f 440 549 441
f 441 549 550
f 441 550 551
f 441 551 442
f 442 551 552
f 442 552 553
f 442 553 443
f 443 553 444
f 444 553 445
f 445 553 554
f 445 554 451
f 446 555 447
f 447 539 556
f 447 556 557
f 447 557 448
f 447 555 558
f 447 558 530
f 447 530 539
f 448 557 556
f 448 556 543
f 448 543 542
f 453 559 665
f 453 665 560
f 453 560 454
f 454 560 561
f 454 561 465
f 458 460 459
f 461 465 562
f 461 562 563
f 461 563 564
f 461 564 462
f 462 564 565
f 462 565 566
f 462 566 464
f 462 464 463
f 464 566 479
f 465 561 562
f 466 479 566
f 466 566 565
f 466 565 467
f 467 565 564
f 467 564 567
f 467 567 468
f 468 568 469
f 468 567 568
f 469 568 470
f 470 569 570
f 470 570 571
f 470 571 572
f 470 572 471
f 470 568 569
f 471 572 573
f 471 573 472
f 472 573 473
f 473 573 572
f 473 572 574
f 473 574 575
f 473 575 474
f 474 575 576
f 474 576 475
f 475 576 577
f 475 577 578
f 475 578 477
f 475 477 476
f 477 578 483
f 477 483 482
f 477 482 480
f 480 482 481
f 483 578 579
f 483 579 580
f 483 580 485
f 483 485 484
f 485 581 582
f 485 582 583
f 485 583 584
f 485 584 512
f 485 512 486
f 485 580 581
f 487 585 488
f 487 511 585
f 488 585 586
f 488 586 587
f 488 587 588
f 488 588 489
f 489 588 589
f 489 589 490
f 490 589 590
f 490 590 491
f 491 590 494
f 491 494 492
f 492 494 493
f 494 591 592
f 494 592 593
f 494 593 594
f 494 594 595
f 494 595 495
f 494 590 596
f 494 596 597
f 494 597 591
f 495 595 496
f 496 595 598
f 496 598 599
f 496 599 497
f 497 599 498
f 498 599 600
f 498 600 601
f 498 601 517
f 498 517 499
f 499 517 524
f 500 507 501
f 501 602 510
f 501 507 603
f 501 603 604
f 501 604 602
f 504 605 606
f 504 606 506
f 504 516 605
f 506 606 508
f 507 509 603
f 508 606 607
f 508 607 509
f 509 607 608
f 509 608 603
f 510 609 511
f 510 602 610
f 510 610 609
f 511 609 611
f 511 611 585
f 512 584 612
f 512 612 513
f 513 612 613
f 513 613 514
f 514 613 614
f 514 614 615
f 514 615 616
f 514 616 617
f 514 617 618
f 514 618 515
f 515 618 516
f 516 618 619
f 516 619 605
f 517 601 599
f 517 599 518
f 518 599 620
f 518 620 621
f 518 621 622
f 518 622 623
f 518 623 624
f 518 624 519
f 519 624 625
f 519 625 520
f 520 625 626
f 520 626 627
f 520 627 628
f 520 628 521
f 521 628 627
f 521 627 629
f 521 629 630
f 521 630 523
f 521 523 522
f 523 630 525
f 525 630 631
f 525 631 526
f 526 631 632
f 526 632 527
f 527 632 633
f 527 633 634
f 527 634 635
f 527 635 528
f 528 635 636
f 528 636 637
f 528 637 638
f 528 638 639
f 528 639 640
f 528 640 535
f 528 535 534
f 528 534 529
f 532 540 533
f 535 640 641
f 535 641 536
f 536 641 537
f 537 641 642
f 537 642 643
f 537 643 644
f 537 644 538
f 538 644 645
f 538 645 543
f 538 543 646
f 538 646 647
f 538 647 648
f 538 648 539
f 539 648 556
f 543 645 649
f 543 649 650
f 543 650 651
f 543 651 652
f 543 652 653
f 543 653 654
f 543 654 655
f 543 655 656
f 543 656 544
f 543 556 646
f 544 656 545
f 545 656 657
f 545 657 546
f 546 657 658
f 546 658 547
f 547 658 659
f 547 659 548
f 548 659 660
f 548 660 549
f 549 661 662
f 549 662 550
f 549 660 663
f 549 663 661
f 550 662 551
f 551 662 552
f 552 662 553
f 553 662 664
f 553 664 554
f 556 648 647
f 556 647 646
f 560 665 666
f 560 666 561
f 561 666 667
f 561 667 668
f 561 668 669
f 561 669 562
f 562 669 670
f 562 670 671
f 562 671 563
f 563 672 567
f 563 567 564
f 563 671 672
f 567 673 568
f 567 672 673
f 568 673 674
f 568 674 675
f 568 675 569
f 569 675 676
f 569 676 677
f 569 677 570
f 570 677 678
f 570 678 571
f 571 678 679
f 571 679 680
f 571 680 681
f 571 681 682
f 571 682 575
f 571 575 572
f 572 575 574
f 575 682 576
f 576 682 580
f 576 580 579
f 576 579 577
f 577 579 578
f 580 682 683
f 580 683 684
f 580 684 685
f 580 685 581
f 581 685 582
f 582 685 684
f 582 684 686
f 582 686 612
f 582 612 583
f 583 612 584
f 585 687 688
f 585 688 691
f 585 691 586
f 585 611 689
f 585 689 690
f 585 690 687
f 586 691 587
f 587 691 692
f 587 692 693
f 587 693 588
f 588 693 694
f 588 694 695
f 588 695 589
f 589 695 696
f 589 696 590
f 590 696 596
f 591 597 697
f 591 697 698
f 591 698 592
f 592 699 593
f 592 698 699
f 593 699 700
f 593 700 599
f 593 599 701
f 593 701 595
f 593 595 594
f 595 701 598
f 596 696 597
f 597 696 702
f 597 702 703
f 597 703 692
f 597 692 704
f 597 704 697
f 598 701 599
f 599 601 600
f 599 700 699
f 599 699 705
f 599 705 620
f 602 604 706
f 602 706 610
f 603 608 706
f 603 706 604
f 605 707 708
f 605 708 709
f 605 709 710
f 605 710 711
f 605 711 606
f 605 619 618
f 605 618 712
f 605 712 713
f 605 713 714
f 605 714 715
f 605 715 707
f 606 711 716
f 606 716 607
f 607 716 717
f 607 717 608
f 608 717 706
f 609 610 718
f 609 718 719
f 609 719 611
f 610 706 718
f 611 719 689
f 612 686 720
f 612 720 721
f 612 721 613
f 613 721 614
f 614 721 615
f 615 721 616
f 616 722 617
f 616 721 723
f 616 723 722
f 617 724 725
f 617 725 714
f 617 714 618
f 617 722 724
f 618 726 712
f 618 714 726
f 620 705 621
f 621 727 728
f 621 728 729
f 621 729 730
f 621 730 731
f 621 731 622
f 621 705 699
f 621 699 732
f 621 732 733
f 621 733 734
f 621 734 727
f 622 731 623
f 623 731 730
f 623 730 735
f 623 735 736
f 623 736 737
f 623 737 624
f 624 737 625
f 625 737 626
f 626 737 738
f 626 738 627
f 627 738 739
f 627 739 629
f 629 739 631
f 629 631 630
f 631 739 740
f 631 740 741
f 631 741 742
f 631 742 632
f 632 742 743
f 632 743 744
f 632 744 633
f 633 744 745
f 633 745 634
f 634 745 743
f 634 743 746
f 634 746 747
f 634 747 748
f 634 748 635
f 635 748 749
f 635 749 636
f 636 750 751
f 636 751 637
f 636 749 750
f 637 751 638
f 638 751 752
f 638 752 639
f 639 752 753
f 639 753 641
f 639 641 640
f 641 753 642
f 642 751 754
f 642 754 643
f 642 753 752
f 642 752 751
f 643 649 645
f 643 645 644
f 643 754 755
f 643 755 651
f 643 651 650
f 643 650 649
f 651 755 754
f 651 754 756
f 651 756 757
f 651 757 758
f 651 758 652
f 652 758 759
f 652 759 760
f 652 760 653
f 653 760 654
f 654 760 655
f 655 760 761
f 655 761 762
f 655 762 763
f 655 763 656
f 656 763 764
f 656 764 657
f 657 764 765
f 657 765 658
f 658 765 659
f 659 765 660
f 660 765 872
f 660 872 766
f 660 766 661
f 660 661 663
f 661 767 662
f 662 767 664
f 670 768 671
f 671 768 769
f 671 769 770
f 671 770 673
f 671 673 672
f 673 771 674
f 673 770 772
f 673 772 771
f 674 771 773
f 674 773 675
f 675 773 774
f 675 774 775
f 675 775 776
f 675 776 676
f 676 776 777
f 676 777 677
f 677 777 778
f 677 778 678
f 678 778 777
f 678 777 680
f 678 680 679
f 680 777 779
f 680 779 780
f 680 780 681
f 681 781 782
f 681 782 783
f 681 783 682
f 681 780 784
f 681 784 781
f 682 783 785
f 682 785 683
f 683 785 684
f 684 720 686
f 684 785 786
f 684 786 721
f 684 721 720
f 687 690 787
f 687 787 691
f 687 691 688
f 689 719 690
f 690 719 787
f 691 787 788
f 691 788 789
f 691 789 692
f 692 789 790
f 692 790 704
f 692 703 693
f 693 703 702
f 693 702 694
f 694 702 695
f 695 702 696
f 697 704 790
f 697 790 698
f 698 791 792
f 698 792 699
f 698 790 793
f 698 793 794
f 698 794 791
f 699 792 733
f 699 733 732
f 706 717 795
f 706 795 796
f 706 796 719
f 706 719 718
f 707 797 798
f 707 798 799
f 707 799 708
f 707 715 800
f 707 800 797
f 708 799 801
f 708 801 709
f 709 802 803
f 709 803 804
f 709 804 711
f 709 711 710
f 709 801 802
f 711 804 805
f 711 805 806
f 711 806 807
f 711 807 716
f 712 726 714
f 712 714 713
f 714 725 715
f 715 725 800
f 716 807 808
f 716 808 809
f 716 809 717
f 717 809 810
f 717 810 811
f 717 811 812
f 717 812 813
f 717 813 795
f 719 796 814
f 719 814 787
f 721 786 723
f 722 723 815
f 722 815 724
f 723 786 815
f 724 816 817
f 724 817 725
f 724 815 818
f 724 818 819
f 724 819 820
f 724 820 816
f 725 817 821
f 725 821 800
f 727 734 822
f 727 822 823
f 727 823 824
f 727 824 825
f 727 825 826
f 727 826 827
f 727 827 728
f 728 827 828
f 728 828 829
f 728 829 830
f 728 830 729
f 729 830 831
f 729 831 730
f 730 831 736
f 730 736 735
f 733 832 833
f 733 833 834
f 733 834 835
f 733 835 822
f 733 822 734
f 733 792 836
f 733 836 837
f 733 837 832
f 736 831 838
f 736 838 738
f 736 738 737
f 738 838 839
f 738 839 840
f 738 840 841
f 738 841 842
f 738 842 843
f 738 843 739
f 739 843 740
f 740 843 842
f 740 842 844
f 740 844 741
f 741 845 742
f 741 844 846
f 741 846 847
f 741 847 848
f 741 848 845
f 742 845 743
f 743 745 744
f 743 845 849
f 743 849 746
f 746 849 747
f 747 749 748
f 747 849 850
f 747 850 749
f 749 850 848
f 749 848 847
f 749 847 851
f 749 851 842
f 749 842 852
f 749 852 853
f 749 853 750
f 750 853 854
f 750 854 855
f 750 855 856
f 750 856 857
f 750 857 751
f 751 857 754
f 754 857 756
f 756 857 858
f 756 858 859
f 756 859 860
f 756 860 757
f 757 860 861
f 757 861 862
f 757 862 758
f 758 862 759
f 759 863 760
f 759 862 863
f 760 863 864
f 760 864 865
f 760 865 866
f 760 866 867
f 760 867 868
f 760 868 761
f 761 869 871
f 761 871 764
f 761 764 763
f 761 763 762
f 761 868 870
f 761 870 869
f 764 871 872
f 764 872 765
f 769 873 770
f 770 873 772
f 771 874 875
f 771 875 773
f 771 772 874
f 772 873 874
f 773 876 877
f 773 877 774
f 773 875 876
f 774 877 878
f 774 878 879
f 774 879 775
f 775 879 880
f 775 880 885
f 775 885 881
f 775 881 776
f 776 881 780
f 776 780 777
f 777 780 779
f 780 882 883
f 780 883 884
f 780 884 784
f 780 881 885
f 780 885 886
f 780 886 887
f 780 887 888
f 780 888 882
f 781 784 782
f 782 784 889
f 782 889 890
f 782 890 891
f 782 891 785
f 782 785 783
f 784 890 889
f 784 884 892
f 784 892 893
f 784 893 894
f 784 894 890
f 785 891 819
f 785 819 895
f 785 895 786
f 786 895 818
f 786 818 815
f 787 814 788
f 788 814 789
f 789 814 896
f 789 896 790
f 790 794 793
f 790 896 897
f 790 897 898
f 790 898 899
f 790 899 794
f 791 794 836
f 791 836 792
f 794 899 900
f 794 900 836
f 795 813 901
f 795 901 902
f 795 902 903
f 795 903 904
f 795 904 814
f 795 814 796
f 797 905 798
f 797 800 905
f 798 906 907
f 798 907 799
f 798 905 906
f 799 907 801
f 800 821 908
f 800 908 909
f 800 909 905
f 801 907 802
f 802 907 906
f 802 906 905
f 802 905 803
f 803 905 909
f 803 909 910
f 803 910 911
f 803 911 912
f 803 912 913
f 803 913 804
f 804 913 806
f 804 806 805
f 806 913 914
f 806 914 915
f 806 915 916
f 806 916 808
f 806 808 807
f 808 916 809
f 809 916 915
f 809 915 914
f 809 914 913
f 809 913 810
f 810 913 811
f 811 913 912
f 811 912 917
f 811 917 812
f 812 918 813
f 812 917 918
f 813 918 901
f 814 904 919
f 814 919 896
f 816 820 920
f 816 920 894
f 816 894 893
f 816 893 921
f 816 921 922
f 816 922 821
f 816 821 817
f 818 895 819
f 819 891 920
f 819 920 820
f 821 922 923
f 821 923 924
f 821 924 925
f 821 925 908
f 822 926 823
f 822 835 834
f 822 834 926
f 823 926 833
f 823 833 927
f 823 927 928
f 823 928 824
f 824 929 930
f 824 930 931
f 824 931 825
f 824 928 932
f 824 932 929
f 825 931 933
f 825 933 826
f 826 933 829
f 826 829 827
f 827 829 828
f 829 934 935
f 829 935 839
f 829 839 830
f 829 933 934
f 830 839 936
f 830 936 838
f 830 838 831
f 832 837 833
f 833 837 937
f 833 937 938
f 833 938 939
f 833 939 940
f 833 940 941
f 833 941 927
f 833 926 834
f 836 900 942
f 836 942 837
f 837 942 937
f 838 936 839
f 839 935 943
f 839 943 944
f 839 944 945
f 839 945 946
f 839 946 853
f 839 853 840
f 840 853 841
f 841 853 852
f 841 852 842
f 842 851 947
f 842 947 844
f 844 947 851
f 844 851 846
f 845 848 850
f 845 850 849
f 846 851 847
f 853 946 948
f 853 948 855
f 853 855 854
f 855 948 945
f 855 945 949
f 855 949 950
f 855 950 951
f 855 951 952
f 855 952 953
f 855 953 856
f 856 953 857
f 857 953 858
f 858 953 952
f 858 952 951
f 858 951 950
f 858 950 954
f 858 954 955
f 858 955 859
f 859 955 954
f 859 954 956
f 859 956 957
f 859 957 958
f 859 958 860
f 860 958 864
f 860 864 863
f 860 863 861
f 861 863 862
f 864 958 865
f 865 959 960
f 865 960 961
f 865 961 962
f 865 962 866
f 865 958 959
f 866 962 867
f 867 962 868
f 868 962 870
f 878 963 879
f 879 963 964
f 879 964 965
f 879 965 966
f 879 966 967
f 879 967 968
f 879 968 969
f 879 969 880
f 880 969 886
f 880 886 885
f 882 888 883
f 883 888 970
f 883 970 971
f 883 971 921
f 883 921 972
f 883 972 893
f 883 893 892
f 883 892 884
f 886 969 968
f 886 968 967
f 886 967 973
f 886 973 974
f 886 974 975
f 886 975 887
f 887 975 888
f 888 975 976
f 888 976 977
f 888 977 978
f 888 978 970
f 890 894 920
f 890 920 891
f 893 972 921
f 896 919 903
f 896 903 902
f 896 902 897
f 897 902 979
f 897 979 980
f 897 980 981
f 897 981 898
f 898 981 982
f 898 982 899
f 899 982 900
f 900 982 983
f 900 983 942
f 901 918 979
f 901 979 902
f 903 919 904
f 908 925 984
f 908 984 909
f 909 985 910
f 909 984 986
f 909 986 985
f 910 985 987
f 910 987 1060
f 910 1060 988
f 910 988 911
f 911 988 989
f 911 989 912
f 912 989 917
f 917 989 990
f 917 990 991
f 917 991 918
f 918 991 980
f 918 980 979
f 921 992 993
f 921 993 994
f 921 994 922
f 921 971 995
f 921 995 992
f 922 994 993
f 922 993 923
f 923 993 996
f 923 996 924
f 924 996 997
f 924 997 998
f 924 998 925
f 925 998 999
f 925 999 985
f 925 985 986
f 925 986 984
f 927 941 940
f 927 940 928
f 928 940 1000
f 928 1000 1001
f 928 1001 1002
f 928 1002 1003
f 928 1003 932
f 929 932 1003
f 929 1003 930
f 930 1003 931
f 931 1003 1004
f 931 1004 1005
f 931 1005 1006
f 931 1006 1007
f 931 1007 1008
f 931 1008 1009
f 931 1009 933
f 933 1009 934
f 934 1009 935
f 935 1009 1010
f 935 1010 1011
f 935 1011 1012
f 935 1012 943
f 937 942 1013
f 937 1013 938
f 938 1013 1014
f 938 1014 939
f 939 1015 940
f 939 1014 1016
f 939 1016 1017
f 939 1017 1018
f 939 1018 1019
f 939 1019 1020
f 939 1020 1021
f 939 1021 1015
f 940 1022 1023
f 940 1023 1000
f 940 1015 1022
f 942 983 1013
f 943 1012 944
f 944 1012 1024
f 944 1024 1025
f 944 1025 945
f 945 1025 949
f 945 948 946
f 949 1025 1026
f 949 1026 950
f 950 1026 1027
f 950 1027 954
f 954 1027 1028
f 954 1028 1029
f 954 1029 1030
f 954 1030 1031
f 954 1031 1032
f 954 1032 956
f 956 1032 1033
f 956 1033 1034
f 956 1034 1035
f 956 1035 958
f 956 958 957
f 958 1035 1036
f 958 1036 959
f 959 1036 1037
f 959 1037 960
f 965 1038 966
f 966 1038 973
f 966 973 967
f 970 978 995
f 970 995 1039
f 970 1039 971
f 971 1039 995
f 973 1038 1040
f 973 1040 1041
f 973 1041 974
f 974 1041 1042
f 974 1042 1043
f 974 1043 1044
f 974 1044 975
f 975 1044 1045
f 975 1045 1046
f 975 1046 1047
f 975 1047 976
f 976 1047 977
f 977 1047 1048
f 977 1048 1049
f 977 1049 1050
f 977 1050 978
f 978 1050 995
f 980 991 990
f 980 990 981
f 981 990 1051
f 981 1051 982
f 982 1052 1053
f 982 1053 983
f 982 1051 1054
f 982 1054 1020
f 982 1020 1052
f 983 1053 1017
f 983 1017 1016
f 983 1016 1014
f 983 1014 1013
f 985 999 1055
f 985 1055 1049
f 985 1049 987
f 987 1056 1057
f 987 1057 1058
f 987 1058 1059
f 987 1059 1060
f 987 1049 1056
f 988 1060 1058
f 988 1058 1061
f 988 1061 1062
f 988 1062 1063
f 988 1063 989
f 989 1063 1064
f 989 1064 1065
f 989 1065 990
f 990 1065 1051
f 992 995 1050
f 992 1050 993
f 993 1050 1066
f 993 1066 996
f 996 1066 1067
f 996 1067 997
f 997 1067 1055
f 997 1055 998
f 998 1055 999
f 1000 1023 1068
f 1000 1068 1002
f 1000 1002 1001
f 1002 1069 1070
f 1002 1070 1005
f 1002 1005 1004
f 1002 1004 1003
f 1002 1068 1071
f 1002 1071 1069
f 1005 1070 1072
f 1005 1072 1073
f 1005 1073 1074
f 1005 1074 1075
f 1005 1075 1076
f 1005 1076 1006
f 1006 1076 1007
f 1007 1076 1077
f 1007 1077 1008
f 1008 1077 1078
f 1008 1078 1010
f 1008 1010 1009
f 1010 1078 1079
f 1010 1079 1080
f 1010 1080 1024
f 1010 1024 1011
f 1011 1024 1012
f 1015 1081 1022
f 1015 1021 1082
f 1015 1082 1083
f 1015 1083 1081
f 1017 1053 1052
f 1017 1052 1018
f 1018 1052 1020
f 1018 1020 1084
f 1018 1084 1019
f 1019 1084 1085
f 1019 1085 1020
f 1020 1086 1021
f 1020 1085 1084
f 1020 1054 1087
f 1020 1087 1138
f 1020 1138 1088
f 1020 1088 1086
f 1021 1086 1082
f 1022 1081 1089
f 1022 1089 1090
f 1022 1090 1023
f 1023 1090 1068
f 1024 1080 1027
f 1024 1027 1026
f 1024 1026 1025
f 1027 1080 1091
f 1027 1091 1028
f 1028 1030 1029
f 1028 1091 1080
f 1028 1080 1092
f 1028 1092 1030
f 1030 1092 1031
f 1031 1093 1032
f 1031 1092 1094
f 1031 1094 1093
f 1032 1095 1033
f 1032 1093 1095
f 1033 1095 1096
f 1033 1096 1097
f 1033 1097 1098
f 1033 1098 1034
f 1034 1098 1099
f 1034 1099 1100
f 1034 1100 1035
f 1035 1100 1036
f 1036 1100 1037
f 1040 1042 1041
f 1042 1101 1043
f 1043 1101 1102
f 1043 1102 1044
f 1044 1102 1103
f 1044 1103 1045
f 1045 1103 1104
f 1045 1104 1105
f 1045 1105 1106
f 1045 1106 1107
f 1045 1107 1046
f 1046 1107 1048
f 1046 1048 1047
f 1048 1108 1049
f 1048 1107 1108
f 1049 1055 1067
f 1049 1067 1066
f 1049 1066 1050
f 1049 1108 1109
f 1049 1109 1110
f 1049 1110 1087
f 1049 1087 1111
f 1049 1111 1112
f 1049 1112 1056
f 1051 1065 1113
f 1051 1113 1054
f 1054 1113 1114
f 1054 1114 1087
f 1056 1112 1057
f 1057 1112 1115
f 1057 1115 1116
f 1057 1116 1117
f 1057 1117 1118
f 1057 1118 1119
f 1057 1119 1058
f 1058 1120 1087
f 1058 1087 1061
f 1058 1060 1059
f 1058 1119 1120
f 1061 1087 1121
f 1061 1121 1062
f 1062 1121 1114
f 1062 1114 1122
f 1062 1122 1064
f 1062 1064 1063
f 1064 1122 1113
f 1064 1113 1065
f 1068 1090 1071
f 1069 1123 1070
f 1069 1071 1124
f 1069 1124 1123
f 1070 1125 1072
f 1070 1123 1126
f 1070 1126 1125
f 1071 1090 1127
f 1071 1127 1124
f 1072 1128 1073
f 1072 1125 1129
f 1072 1129 1128
f 1073 1128 1074
f 1074 1128 1130
f 1074 1130 1075
f 1075 1130 1076
f 1076 1130 1131
f 1076 1131 1077
f 1077 1131 1132
f 1077 1132 1078
f 1078 1132 1133
f 1078 1133 1092
f 1078 1092 1079
f 1079 1092 1080
f 1081 1083 1134
f 1081 1134 1135
f 1081 1135 1136
f 1081 1136 1089
f 1082 1086 1088
f 1082 1088 1083
f 1083 1088 1134
f 1087 1110 1137
f 1087 1137 1138
f 1087 1114 1121
f 1087 1120 1118
f 1087 1118 1139
f 1087 1139 1111
f 1088 1140 1135
f 1088 1135 1134
f 1088 1138 1163
f 1088 1163 1141
f 1088 1141 1140
f 1089 1142 1090
f 1089 1136 1142
f 1090 1142 1127
f 1092 1133 1143
f 1092 1143 1094
f 1093 1094 1144
f 1093 1144 1145
f 1093 1145 1146
f 1093 1146 1095
f 1094 1143 1144
f 1095 1146 1096
f 1102 1147 1103
f 1103 1147 1104
f 1104 1106 1105
f 1106 1148 1107
f 1107 1148 1149
f 1107 1149 1150
f 1107 1150 1108
f 1108 1150 1151
f 1108 1151 1109
f 1109 1151 1152
f 1109 1152 1153
f 1109 1153 1154
f 1109 1154 1110
f 1110 1153 1137
f 1110 1154 1153
f 1111 1139 1116
f 1111 1116 1115
f 1111 1115 1112
f 1113 1122 1114
f 1116 1139 1118
f 1116 1118 1117
f 1118 1120 1119
f 1123 1124 1126
f 1125 1126 1129
f 1127 1142 1155
f 1128 1129 1156
f 1128 1156 1157
f 1128 1157 1130
f 1130 1157 1158
f 1130 1158 1131
f 1131 1158 1159
f 1131 1159 1132
f 1132 1160 1133
f 1132 1159 1160
f 1133 1161 1162
f 1133 1162 1144
f 1133 1144 1143
f 1133 1160 1161
f 1136 1155 1142
f 1137 1153 1138
f 1138 1153 1152
f 1138 1152 1164
f 1138 1164 1165
f 1138 1165 1163
f 1144 1162 1166
f 1144 1166 1145
f 1148 1167 1149
f 1149 1167 1151
f 1149 1151 1150
f 1151 1167 1168
f 1151 1168 1169
f 1151 1169 1170
f 1151 1170 1171
f 1151 1171 1172
f 1151 1172 1152
f 1152 1172 1164
f 1159 1173 1160
f 1160 1173 1161
f 1161 1173 1166
f 1161 1166 1162
f 1164 1172 1165
f 1165 1172 1171
f 1167 1174 1168
f 1168 1174 1169

