# https://github.com/mikedh/trimesh
v 0.07634674 -0.19328517 -0.02503045
v 0.07634674 -0.19323118 -0.02367314
v 0.05499843 -0.19325817 -0.02503045
v 0.00500478 -0.19250229 -0.03496019
v 0.04173865 -0.19225933 -0.03499591
v 0.07499740 -0.19198936 -0.03499591
v 0.07634674 -0.19215134 -0.03363861
v 0.07634674 -0.19285323 -0.01502926
v 0.07499740 -0.19285323 -0.01502926
v 0.01500049 -0.19320418 -0.02495901
v -0.00066398 -0.19277224 -0.03063825
v -0.00066398 -0.19244829 -0.03496019
v -0.00066398 -0.19028862 -0.04746167
v -0.00066398 -0.18991067 -0.04964050
v 0.00500478 -0.18901980 -0.05496256
v 0.04173865 -0.18710309 -0.06496374
v 0.04173865 -0.18985668 -0.04914044
v 0.00500478 -0.19317718 -0.02495901
v 0.07634674 -0.18861486 -0.05496256
v 0.07634674 -0.19074754 -0.04224677
v 0.07634674 -0.19196236 -0.03499591
v 0.07634674 -0.19263726 -0.01370768
v 0.07634674 -0.18610424 0.02497547
v 0.05499843 -0.19266427 -0.01502926
v -0.00066398 -0.19315019 -0.02495901
v -0.00066398 -0.18799396 -0.06064180
v -0.00066398 -0.18723807 -0.06496374
v 0.00500478 -0.18726507 -0.06496374
v 0.00500478 -0.18545634 -0.07496493
v 0.07499740 -0.18691412 -0.06496374
v 0.07634674 -0.18713009 -0.06360644
v 0.07634674 -0.18572630 0.02633277
v 0.05499843 -0.18583429 0.02497547
v -0.00066398 -0.19142245 -0.01124310
v -0.00066398 -0.19207035 -0.01502926
v 0.04173865 -0.19252928 -0.01502926
v -0.00066398 -0.19269125 -0.02063707
v -0.00066398 -0.18621223 -0.07064298
v 0.04173865 -0.18515939 -0.07496493
v -0.00066398 -0.18542935 -0.07496493
v -0.00066398 -0.18224382 -0.08450177
v 0.00500478 -0.18224382 -0.08450177
v 0.05499843 -0.18505140 -0.07496493
v 0.07634674 -0.18483543 -0.07496493
v 0.07634674 -0.18688713 -0.06496374
v 0.07634674 -0.18324268 0.03497665
v 0.04499517 -0.18569930 0.02497547
v -0.00066398 -0.18686013 0.01497428
v -0.00066398 -0.18972170 -0.00145623
v -0.00066398 -0.17967921 -0.08946664
v 0.00500478 -0.17970620 -0.08946664
v 0.01500049 -0.18218984 -0.08439461
v 0.02500375 -0.18213584 -0.08425173
v 0.04173865 -0.18205485 -0.08396599
v 0.04499517 -0.18202786 -0.08393027
v 0.07634674 -0.18221682 -0.08228722
v 0.07634674 -0.18289173 0.03583389
v 0.07499740 -0.18321568 0.03497665
v -0.00066398 -0.18480843 0.02497547
v 0.04173865 -0.18564531 0.02497547
v -0.00066398 -0.17795147 -0.09257415
v 0.00500478 -0.16542535 -0.11496966
v 0.04173865 -0.16769300 -0.11032625
v 0.07634674 -0.16097102 -0.12172045
v 0.01500049 -0.17965221 -0.08935948
v 0.07634674 -0.18181188 -0.08339449
v 0.03499946 -0.17949024 -0.08907373
v 0.04499517 -0.17940925 -0.08893086
v 0.07634674 -0.18059707 0.04108451
v 0.03499946 -0.18229781 0.03458374
v 0.05499843 -0.18267576 0.03497665
v 0.06499414 -0.18294571 0.03497665
v -0.00066398 -0.18181188 0.03340504
v -0.00066398 -0.18351263 0.02865447
v -0.00066398 -0.16539836 -0.11496966
v 0.00500478 -0.16129497 -0.12232766
v 0.07634674 -0.16469646 -0.11496966
v 0.07499740 -0.16472346 -0.11496966
v 0.05499843 -0.16885383 -0.10796882
v 0.04499517 -0.17168841 -0.10307539
v 0.00500478 -0.15824443 -0.12732825
v 0.04499517 -0.15797447 -0.12700680
v 0.07634674 -0.15773150 -0.12672104
v 0.04173865 -0.17619672 -0.09496729
v 0.05499843 -0.17932826 -0.08875227
v 0.06499414 -0.17924727 -0.08857367
v 0.07634674 -0.17913929 -0.08839508
v 0.04499517 -0.17614274 -0.09496729
v 0.06499414 -0.17579180 -0.09496729
v 0.07634674 -0.15970221 0.07951763
v -0.00066398 -0.18062407 0.03558386
v -0.00066398 -0.16126797 -0.12229194
v 0.07634674 -0.16909680 -0.10693299
v 0.07499740 -0.16874585 -0.10764736
v -0.00066398 -0.15821743 -0.12729254
v -0.00066398 -0.15538286 -0.13068581
v -0.00066398 -0.15322319 -0.13325754
v 0.00500478 -0.15322319 -0.13329324
v 0.02500375 -0.15311520 -0.13315037
v 0.03499946 -0.15306121 -0.13307893
v 0.05499843 -0.15292622 -0.13290034
v 0.07634674 -0.15343915 -0.13190022
v 0.07634674 -0.15538286 0.08483969
v 0.06499414 -0.15943225 0.07898185
v -0.00066398 -0.16067407 0.07119521
v -0.00066398 -0.16664016 0.06058682
v -0.00066398 -0.17128347 0.05230013
v -0.00066398 -0.17908530 0.03836991
v -0.00066398 -0.14812094 -0.13825813
v 0.00500478 -0.14814794 -0.13829383
v 0.02500375 -0.14803997 -0.13815096
v 0.04173865 -0.15136045 -0.13465056
v 0.07499740 -0.15276425 -0.13272175
v 0.07634674 -0.15276425 -0.13268603
v 0.07634674 -0.15462697 0.08576837
v 0.04499517 -0.15883833 0.07808889
v -0.00066398 -0.15924329 0.07337405
v -0.00066398 -0.13262528 -0.15236694
v 0.00500478 -0.13764653 -0.14783068
v 0.02500375 -0.12206986 -0.16186805
v 0.03499946 -0.13254428 -0.15229550
v 0.04499517 -0.13751154 -0.14768781
v 0.04499517 -0.14288373 -0.14268722
v 0.03499946 -0.14795896 -0.13807952
v 0.07499740 -0.14758103 -0.13772234
v 0.07634674 -0.14825591 -0.13704368
v -0.00066398 -0.15235931 0.08219652
v -0.00066398 -0.15732656 0.07619581
v 0.07634674 -0.15052359 0.09048321
v 0.07499740 -0.15049659 0.09041177
v -0.00066398 -0.12711810 -0.15736753
v -0.00066398 -0.12428352 -0.15993926
v 0.00500478 -0.12212384 -0.16190377
v 0.00500478 -0.11599576 -0.16690436
v 0.02500375 -0.11591478 -0.16686864
v 0.07634674 -0.11650869 -0.16604713
v 0.07499740 -0.12188088 -0.16168946
v 0.03499946 -0.12703711 -0.15729609
v 0.07499740 -0.12690213 -0.15711749
v 0.06499414 -0.13737656 -0.14750922
v 0.07634674 -0.14326167 -0.14179425
v 0.04173865 -0.14628522 -0.13954398
v 0.07634674 -0.12517439 0.11427175
v -0.00066398 -0.15001066 0.08437534
v -0.00066398 -0.12209685 -0.16190377
v -0.00066398 -0.11599576 -0.16690436
v 0.00500478 -0.11100152 -0.17061909
v 0.04499517 -0.11583379 -0.16679721
v 0.01500049 -0.11097452 -0.17058337
v 0.03499946 -0.11086654 -0.17054765
v 0.07499740 -0.11569881 -0.16669005
v 0.07634674 -0.11567181 -0.16669005
v 0.07634674 -0.12185389 -0.16168946
v 0.07634674 -0.12760402 -0.15643884
v 0.07634674 -0.13292223 -0.15147397
v 0.07634674 -0.11945125 0.11955808
v -0.00066398 -0.14693312 0.08719711
v -0.00066398 -0.11316119 -0.16901176
v -0.00066398 -0.11097452 -0.17058337
v -0.00066398 -0.10760003 -0.17226215
v 0.00500478 -0.10498142 -0.17358373
v 0.01500049 -0.10498142 -0.17358373
v 0.02500375 -0.10498142 -0.17354801
v 0.04499517 -0.10498142 -0.17344086
v 0.07634674 -0.11065057 -0.17040478
v 0.07634674 -0.09250929 0.14234649
v 0.07499740 -0.09256329 0.14238220
v 0.02500375 -0.08041511 0.15034743
v -0.00066398 -0.13956323 0.09391219
v 0.01971190 -0.08011815 0.15009740
v -0.00066398 -0.10498142 -0.17354801
v -0.00066398 -0.09960923 -0.17604831
v 0.00500478 -0.09059258 -0.18026309
v 0.03499946 -0.08497743 -0.18290626
v 0.07499740 -0.06991369 -0.18994281
v 0.03499946 -0.09564082 -0.17794138
v 0.06499414 -0.09053859 -0.18022737
v 0.07634674 -0.09045760 -0.18019165
v 0.07634674 -0.10498142 -0.17322654
v 0.07634674 -0.09153744 0.14291798
v 0.04499517 -0.08079305 0.15049031
v 0.04173865 -0.08079305 0.15052603
v 0.03499946 -0.08073906 0.15052603
v 0.02500375 -0.07498892 0.15299061
v -0.00066398 -0.12377060 0.10827103
v -0.00066398 -0.05717160 0.15870556
v 0.00500478 -0.06497343 0.15538374
v -0.00066398 -0.06486544 0.15363353
v 0.00500478 -0.07134447 0.15106180
v -0.00066398 -0.12093603 0.11084276
v -0.00066398 -0.07199237 -0.18883553
v 0.00500478 -0.07498892 -0.18747823
v 0.01500049 -0.07498892 -0.18751395
v 0.04173865 -0.07498892 -0.18754967
v 0.07634674 -0.06991369 -0.18994281
v 0.01500049 -0.06980570 -0.18990709
v 0.00500478 -0.06478445 -0.19212162
v 0.01500049 -0.06481145 -0.19212162
v 0.06499414 -0.06486544 -0.19215736
v 0.07634674 -0.06489244 -0.19215736
v 0.07634674 -0.07631172 -0.18690673
v 0.07634674 -0.08495043 0.14670414
v 0.05499843 -0.08046910 0.15024027
v 0.01500049 -0.06497343 0.15659817
v -0.00066398 -0.05220434 0.16084868
v -0.00066398 -0.06921179 0.15041886
v -0.00066398 -0.06975171 -0.18987137
v -0.00066398 -0.06473047 -0.19208591
v -0.00066398 -0.05503892 -0.19505055
v 0.00500478 -0.05503892 -0.19508627
v 0.01500049 -0.05503892 -0.19512199
v 0.03499946 -0.05503892 -0.19515771
v 0.07634674 -0.05630773 -0.19480053
v 0.07634674 -0.08362763 0.14695418
v 0.06071242 -0.08014515 0.15006168
v 0.00500478 -0.05193438 0.16056293
v -0.00066398 -0.04534737 0.16224170
v -0.00066398 -0.04936977 -0.19594352
v 0.00500478 -0.04502342 -0.19665788
v 0.03499946 -0.04502342 -0.19676504
v 0.07634674 -0.04637322 -0.19658644
v 0.04173865 -0.05503892 -0.19515771
v 0.07634674 -0.05501192 -0.19515771
v 0.07634674 -0.07496193 0.14799002
v 0.00530631 -0.04577931 0.16102727
v -0.00066398 -0.03503492 0.16159876
v -0.00066398 -0.04502342 -0.19662216
v -0.00066398 -0.03935427 -0.19744369
v 0.00500478 -0.02599128 -0.19940820
v 0.02500375 -0.03503492 -0.19819377
v 0.03499946 -0.03503492 -0.19822949
v 0.07499740 -0.04502342 -0.19680075
v 0.07499740 -0.01500393 -0.20126557
v 0.07634674 -0.02688215 -0.19951536
v 0.07634674 -0.04502342 -0.19680075
v 0.07634674 0.00497307 0.14106062
v -0.00066398 -0.03068857 0.16045576
v 0.07634674 0.01104716 0.14013194
v 0.07634674 0.01604141 0.13934614
v 0.07634674 0.02497707 0.13773879
v -0.00066398 -0.02302172 -0.19980112
v 0.00500478 -0.01503092 -0.20097983
v 0.03499946 -0.02140197 -0.20019402
v 0.06499414 -0.01500393 -0.20122986
v 0.04173865 -0.00501543 -0.20255144
v 0.07634674 -0.00636522 -0.20248000
v 0.07634674 -0.01500393 -0.20126557
v -0.00066398 -0.02952775 0.16013430
v 0.07634674 0.02632686 0.13731018
v -0.00066398 -0.01503092 -0.20094411
v 0.00500478 -0.00501543 -0.20237285
v 0.02500375 -0.00501543 -0.20248000
v 0.06499414 0.00497307 -0.20262288
v 0.07499740 0.00497307 -0.20265859
v 0.07499740 -0.00501543 -0.20265859
v 0.00500478 0.00497307 -0.20237285
v 0.07634674 -0.00501543 -0.20265859
v 0.07634674 0.03499257 0.13430983
v -0.00066398 0.03499257 0.13263105
v -0.00066398 -0.00501543 -0.20233713
v -0.00066398 0.01064222 -0.20155132
v 0.00500478 0.02087369 -0.20012258
v 0.07499740 0.01498857 -0.20119414
v 0.07634674 0.00497307 -0.20265859
v 0.00500478 0.03499257 -0.19808662
v -0.00066398 0.04498106 -0.19662216
v -0.00066398 0.00497307 -0.20233713
v 0.07634674 0.03593742 0.13384548
v 0.07634674 0.04182254 0.13091657
v -0.00066398 0.04014879 0.13005932
v -0.00066398 0.02360027 -0.19969396
v 0.07634674 0.01498857 -0.20119414
v 0.01500049 0.04498106 -0.19665788
v 0.03499946 0.04498106 -0.19669360
v 0.07634674 0.04363127 -0.19694363
v -0.00066398 0.05499656 -0.19505055
v 0.00500478 0.05499656 -0.19508627
v 0.07634674 0.04681679 0.12834483
v 0.07499740 0.04678980 0.12834483
v -0.00066398 0.04514304 0.12752330
v 0.04173865 0.04824758 -0.19619355
v 0.07499740 0.05499656 -0.19515771
v 0.07634674 0.05499656 -0.19515771
v -0.00066398 0.06471510 -0.19208591
v 0.03499946 0.05499656 -0.19512199
v 0.01500049 0.06468811 -0.19212162
v 0.07634674 0.05472660 0.12334424
v 0.07499740 0.05469961 0.12334424
v -0.00066398 0.05353878 0.12252271
v 0.07499740 0.06474210 -0.19215736
v 0.07634674 0.06474210 -0.19215736
v -0.00066398 0.06970936 -0.18983565
v 0.00500478 0.06973635 -0.18987137
v 0.00500478 0.06474210 -0.19208591
v 0.07634674 0.05540150 0.12287989
v 0.07499740 0.05972085 0.11973667
v -0.00066398 0.05853304 0.11866511
v 0.06499414 0.06973635 -0.18987137
v 0.07634674 0.06908844 -0.19015712
v -0.00066398 0.07497357 -0.18740679
v 0.00174072 0.08250543 -0.18394209
v 0.00500478 0.07497357 -0.18744251
v 0.07634674 0.05972085 0.11973667
v 0.07634674 0.08250543 0.09848416
v 0.00036876 0.08250543 0.09809125
v -0.00066398 0.08250543 0.09805553
v 0.00749994 0.08250543 -0.18394209
v 0.07634674 0.07497357 -0.18737108
v -0.00066398 0.08250543 -0.18390638
v 0.07634674 0.08250543 -0.18372779
f 1 2 3
f 1 3 4
f 1 4 5
f 1 5 6
f 1 6 7
f 1 7 21
f 1 21 20
f 1 20 19
f 1 19 31
f 1 31 45
f 1 45 44
f 1 44 56
f 1 56 66
f 1 66 87
f 1 87 93
f 1 93 77
f 1 77 64
f 1 64 83
f 1 83 102
f 1 102 114
f 1 114 126
f 1 126 141
f 1 141 155
f 1 155 154
f 1 154 153
f 1 153 136
f 1 136 152
f 1 152 165
f 1 165 179
f 1 179 178
f 1 178 201
f 1 201 195
f 1 195 200
f 1 200 213
f 1 213 223
f 1 223 221
f 1 221 235
f 1 235 234
f 1 234 247
f 1 247 246
f 1 246 257
f 1 257 264
f 1 264 272
f 1 272 275
f 1 275 283
f 1 283 291
f 1 291 299
f 1 299 308
f 1 308 310
f 1 310 304
f 1 304 303
f 1 303 295
f 1 295 287
f 1 287 278
f 1 278 269
f 1 269 268
f 1 268 258
f 1 258 249
f 1 249 240
f 1 240 239
f 1 239 238
f 1 238 236
f 1 236 224
f 1 224 214
f 1 214 202
f 1 202 180
f 1 180 166
f 1 166 156
f 1 156 143
f 1 143 129
f 1 129 115
f 1 115 103
f 1 103 90
f 1 90 69
f 1 69 57
f 1 57 46
f 1 46 32
f 1 32 23
f 1 23 22
f 1 22 8
f 1 8 2
f 2 8 9
f 2 9 10
f 2 10 3
f 3 10 4
f 4 11 12
f 4 12 13
f 4 13 14
f 4 14 15
f 4 15 16
f 4 16 17
f 4 17 5
f 4 10 18
f 4 18 11
f 5 17 19
f 5 19 6
f 6 20 21
f 6 21 7
f 6 19 20
f 8 22 9
f 9 22 23
f 9 23 24
f 9 24 25
f 9 25 18
f 9 18 10
f 11 18 25
f 11 25 37
f 11 37 35
f 11 35 34
f 11 34 49
f 11 49 48
f 11 48 59
f 11 59 74
f 11 74 73
f 11 73 91
f 11 91 108
f 11 108 107
f 11 107 106
f 11 106 105
f 11 105 117
f 11 117 128
f 11 128 127
f 11 127 144
f 11 144 157
f 11 157 169
f 11 169 185
f 11 185 190
f 11 190 206
f 11 206 188
f 11 188 186
f 11 186 205
f 11 205 217
f 11 217 226
f 11 226 237
f 11 237 248
f 11 248 259
f 11 259 270
f 11 270 280
f 11 280 289
f 11 289 297
f 11 297 306
f 11 306 309
f 11 309 300
f 11 300 292
f 11 292 284
f 11 284 276
f 11 276 266
f 11 266 271
f 11 271 261
f 11 261 267
f 11 267 260
f 11 260 250
f 11 250 241
f 11 241 228
f 11 228 227
f 11 227 218
f 11 218 209
f 11 209 208
f 11 208 207
f 11 207 191
f 11 191 172
f 11 172 171
f 11 171 160
f 11 160 159
f 11 159 158
f 11 158 146
f 11 146 145
f 11 145 132
f 11 132 131
f 11 131 118
f 11 118 109
f 11 109 97
f 11 97 96
f 11 96 95
f 11 95 92
f 11 92 75
f 11 75 61
f 11 61 50
f 11 50 41
f 11 41 40
f 11 40 38
f 11 38 27
f 11 27 26
f 11 26 14
f 11 14 13
f 11 13 12
f 14 26 15
f 15 26 27
f 15 27 28
f 15 28 16
f 16 28 29
f 16 29 30
f 16 30 17
f 17 30 19
f 19 30 31
f 23 32 33
f 23 33 34
f 23 34 35
f 23 35 36
f 23 36 24
f 24 36 25
f 25 36 37
f 27 38 28
f 28 38 29
f 29 39 30
f 29 38 40
f 29 40 41
f 29 41 42
f 29 42 39
f 30 39 43
f 30 43 44
f 30 44 45
f 30 45 31
f 32 46 33
f 33 46 47
f 33 47 48
f 33 48 49
f 33 49 34
f 35 37 36
f 39 42 43
f 41 50 51
f 41 51 42
f 42 52 43
f 42 51 65
f 42 65 52
f 43 52 44
f 44 52 53
f 44 53 54
f 44 54 55
f 44 55 56
f 46 57 58
f 46 58 59
f 46 59 60
f 46 60 47
f 47 60 48
f 48 60 59
f 50 61 51
f 51 61 62
f 51 62 63
f 51 63 64
f 51 64 65
f 52 65 53
f 53 65 54
f 54 65 55
f 55 66 56
f 55 65 67
f 55 67 68
f 55 68 66
f 57 69 70
f 57 70 71
f 57 71 72
f 57 72 58
f 58 72 70
f 58 70 73
f 58 73 74
f 58 74 59
f 61 75 62
f 62 75 76
f 62 76 63
f 63 76 64
f 64 77 78
f 64 78 79
f 64 79 80
f 64 80 65
f 64 76 81
f 64 81 82
f 64 82 83
f 65 80 84
f 65 84 67
f 66 68 85
f 66 85 86
f 66 86 87
f 67 84 68
f 68 84 88
f 68 88 89
f 68 89 85
f 69 73 70
f 69 90 73
f 70 72 71
f 73 90 91
f 75 92 76
f 76 92 95
f 76 95 81
f 77 93 94
f 77 94 78
f 78 94 84
f 78 84 80
f 78 80 79
f 81 95 96
f 81 96 97
f 81 97 98
f 81 98 99
f 81 99 100
f 81 100 82
f 82 100 101
f 82 101 102
f 82 102 83
f 84 94 88
f 85 89 86
f 86 89 87
f 87 89 94
f 87 94 93
f 88 94 89
f 90 103 104
f 90 104 105
f 90 105 106
f 90 106 107
f 90 107 108
f 90 108 91
f 97 109 110
f 97 110 98
f 98 110 111
f 98 111 99
f 99 111 100
f 100 111 112
f 100 112 101
f 101 113 102
f 101 112 113
f 102 113 114
f 103 115 104
f 104 116 117
f 104 117 105
f 104 115 116
f 109 118 110
f 110 118 119
f 110 119 120
f 110 120 121
f 110 121 122
f 110 122 111
f 111 122 123
f 111 123 124
f 111 124 112
f 112 124 113
f 113 124 125
f 113 125 126
f 113 126 114
f 115 127 128
f 115 128 116
f 115 129 130
f 115 130 127
f 116 128 117
f 118 131 119
f 119 131 132
f 119 132 133
f 119 133 120
f 120 133 134
f 120 134 135
f 120 135 136
f 120 136 137
f 120 137 138
f 120 138 121
f 121 138 137
f 121 137 139
f 121 139 122
f 122 139 123
f 123 139 140
f 123 140 141
f 123 141 142
f 123 142 124
f 124 142 141
f 124 141 125
f 125 141 126
f 127 130 143
f 127 143 144
f 129 143 130
f 132 145 133
f 133 145 146
f 133 146 134
f 134 146 147
f 134 147 135
f 135 148 136
f 135 147 149
f 135 149 150
f 135 150 148
f 136 148 151
f 136 151 152
f 136 153 137
f 137 153 139
f 139 153 154
f 139 154 155
f 139 155 140
f 140 155 141
f 143 156 144
f 144 156 157
f 146 158 147
f 147 158 159
f 147 159 160
f 147 160 161
f 147 161 162
f 147 162 163
f 147 163 150
f 147 150 149
f 148 150 151
f 150 163 164
f 150 164 165
f 150 165 151
f 151 165 152
f 156 166 167
f 156 167 168
f 156 168 157
f 157 168 170
f 157 170 169
f 160 171 161
f 161 171 172
f 161 172 173
f 161 173 174
f 161 174 175
f 161 175 176
f 161 176 162
f 162 176 163
f 163 176 177
f 163 177 164
f 164 177 178
f 164 178 179
f 164 179 165
f 166 180 167
f 167 180 181
f 167 181 182
f 167 182 183
f 167 183 168
f 168 183 184
f 168 184 170
f 169 170 185
f 170 184 186
f 170 186 187
f 170 187 188
f 170 188 189
f 170 189 190
f 170 190 185
f 172 191 173
f 173 191 192
f 173 192 193
f 173 193 194
f 173 194 174
f 174 194 175
f 175 195 176
f 175 194 193
f 175 193 196
f 175 196 197
f 175 197 198
f 175 198 199
f 175 199 200
f 175 200 195
f 176 195 177
f 177 195 201
f 177 201 178
f 180 202 203
f 180 203 181
f 181 203 204
f 181 204 184
f 181 184 182
f 182 184 183
f 184 204 186
f 186 188 187
f 186 204 205
f 188 206 189
f 189 206 190
f 191 207 192
f 192 207 196
f 192 196 193
f 196 207 197
f 197 207 208
f 197 208 209
f 197 209 210
f 197 210 211
f 197 211 212
f 197 212 199
f 197 199 198
f 199 212 213
f 199 213 200
f 202 214 215
f 202 215 203
f 203 215 204
f 204 215 205
f 205 216 217
f 205 215 216
f 209 218 210
f 210 218 219
f 210 219 211
f 211 219 220
f 211 220 212
f 212 220 221
f 212 221 222
f 212 222 213
f 213 222 223
f 214 224 215
f 215 224 217
f 215 217 216
f 217 225 226
f 217 224 225
f 218 227 219
f 219 227 228
f 219 228 229
f 219 229 230
f 219 230 231
f 219 231 220
f 220 232 221
f 220 231 233
f 220 233 234
f 220 234 232
f 221 223 222
f 221 232 235
f 224 226 225
f 224 236 226
f 226 236 238
f 226 238 239
f 226 239 240
f 226 240 237
f 228 241 229
f 229 241 242
f 229 242 243
f 229 243 230
f 230 243 244
f 230 244 231
f 231 244 233
f 232 234 235
f 233 244 245
f 233 245 246
f 233 246 247
f 233 247 234
f 237 240 248
f 240 249 248
f 241 250 242
f 242 250 260
f 242 260 251
f 242 251 252
f 242 252 245
f 242 245 244
f 242 244 243
f 245 253 254
f 245 254 255
f 245 255 246
f 245 252 256
f 245 256 253
f 246 255 257
f 248 258 259
f 248 249 258
f 251 260 267
f 251 267 256
f 251 256 252
f 253 256 261
f 253 261 262
f 253 262 254
f 254 263 272
f 254 272 264
f 254 264 257
f 254 257 255
f 254 262 265
f 254 265 266
f 254 266 263
f 256 267 261
f 258 268 259
f 259 268 269
f 259 269 270
f 261 271 262
f 262 271 266
f 262 266 265
f 263 266 273
f 263 273 274
f 263 274 275
f 263 275 272
f 266 276 277
f 266 277 273
f 269 278 279
f 269 279 280
f 269 280 270
f 273 277 274
f 274 277 281
f 274 281 275
f 275 281 282
f 275 282 283
f 276 284 277
f 277 285 281
f 277 284 286
f 277 286 285
f 278 287 288
f 278 288 279
f 279 288 289
f 279 289 280
f 281 285 282
f 282 285 286
f 282 286 290
f 282 290 291
f 282 291 283
f 284 292 293
f 284 293 294
f 284 294 286
f 286 294 293
f 286 293 290
f 287 295 288
f 288 295 289
f 289 295 296
f 289 296 297
f 290 293 298
f 290 298 291
f 291 298 299
f 292 300 293
f 293 300 301
f 293 301 302
f 293 302 298
f 295 303 296
f 296 304 305
f 296 305 297
f 296 303 304
f 297 305 306
f 298 302 307
f 298 307 299
f 299 307 308
f 300 309 301
f 301 309 306
f 301 306 305
f 301 305 304
f 301 304 310
f 301 310 307
f 301 307 302
f 307 310 308

