# https://github.com/mikedh/trimesh
v -0.19552848 0.08559872 -0.18063739
v -0.19961312 0.08559872 -0.18047941
v -0.20500435 0.09500669 -0.17564473
v -0.19552848 0.10388637 -0.17163163
v -0.19552848 0.08559872 0.11781657
v -0.20500435 0.08559872 -0.18025821
v -0.21106865 0.08559872 -0.17975262
v -0.21500152 0.08723979 -0.17861506
v -0.21500152 0.09500669 -0.17479154
v -0.21500152 0.10235772 -0.17115766
v -0.20500435 0.10823629 -0.16910371
v -0.19552848 0.10861845 -0.16926169
v -0.19552848 0.10644911 0.13314214
v -0.22797476 0.10984363 0.14012557
v -0.26294178 0.08559872 0.12416800
v -0.21500152 0.08559872 -0.17940503
v -0.22343479 0.08559872 -0.17858344
v -0.24499965 0.09933414 -0.16967249
v -0.23567556 0.10434721 -0.16812414
v -0.22500530 0.10634796 -0.16818732
v -0.21500152 0.10735956 -0.16866133
v -0.26294178 0.11237265 -0.16129872
v -0.26294178 0.11634041 -0.15889719
v -0.26294178 0.11737449 -0.15823361
v -0.25499684 0.11792526 -0.15851799
v -0.24499965 0.11852098 -0.15886557
v -0.21450661 0.11590204 -0.16297346
v -0.20500435 0.11500283 -0.16426903
v -0.19552848 0.10897814 -0.16900891
v -0.19552848 0.11567724 0.13279456
v -0.22797476 0.11088896 0.14012557
v -0.24499965 0.11500283 0.14135793
v -0.25499684 0.11500283 0.14198992
v -0.23499587 0.10966378 0.14031518
v -0.24499965 0.10952890 0.14050475
v -0.25499684 0.10942774 0.14063114
v -0.26294178 0.10933782 0.14069435
v -0.26294178 0.08559872 -0.17428598
v -0.22500530 0.08559872 -0.17842546
v -0.23653340 0.08559872 -0.17725629
v -0.25499684 0.09827756 -0.16916689
v -0.26294178 0.10361661 -0.16572261
v -0.25499684 0.10501038 -0.16584900
v -0.24499965 0.10501038 -0.16686016
v -0.26294178 0.11074284 -0.16215190
v -0.26294178 0.12230889 -0.15425211
v -0.26294178 0.12352283 -0.15324095
v -0.23499587 0.11904927 -0.15921319
v -0.22500530 0.11951011 -0.15956077
v -0.21750906 0.11982483 -0.15981355
v -0.19552848 0.11528383 -0.16436383
v -0.19552848 0.11500283 -0.16458502
v -0.21084428 0.12006088 -0.16003475
v -0.20500435 0.12018452 -0.16016114
v -0.20500435 0.11500283 0.13488010
v -0.19552848 0.11626172 0.13241538
v -0.23879018 0.12030816 0.14025196
v -0.22478753 0.11454199 0.13879842
v -0.24499965 0.12100504 0.14085236
v -0.25499684 0.12161201 0.14135793
v -0.26294178 0.11500283 0.14217952
v -0.26294178 0.09064554 -0.17191604
v -0.25584146 0.08559872 -0.17510754
v -0.24499965 0.08559872 -0.17633992
v -0.25499684 0.09327571 -0.17156845
v -0.26294178 0.09632178 -0.16923010
v -0.26294178 0.10501038 -0.16502741
v -0.25499684 0.12382631 -0.15352532
v -0.26294178 0.12852468 -0.14862746
v -0.24499965 0.12420847 -0.15387291
v -0.23499587 0.12958124 -0.14960703
v -0.19552848 0.12031940 -0.16028756
v -0.24499965 0.13959618 -0.13959010
v -0.25499684 0.14957738 -0.12957317
v -0.23499587 0.13987717 -0.13987449
v -0.22046533 0.13003084 -0.15001783
v -0.20500435 0.13036805 -0.15033382
v -0.19552848 0.12435460 0.12571636
v -0.19853753 0.12037560 0.13032982
v -0.24499965 0.12600689 0.13623887
v -0.24499965 0.15197152 0.11184432
v -0.24499965 0.14168683 0.12154526
v -0.24499965 0.13634779 0.12656954
v -0.25499684 0.13205406 0.13187820
v -0.25499684 0.12661386 0.13687086
v -0.26294178 0.12171318 0.14145273
v -0.26294178 0.13893300 -0.13898972
v -0.25499684 0.13923649 -0.13927412
v -0.26294178 0.14931886 -0.12935197
v -0.19552848 0.13050294 -0.15046021
v -0.26294178 0.15459047 -0.12435931
v -0.25499684 0.15477031 -0.12458050
v -0.24499965 0.14982466 -0.12982596
v -0.22314444 0.14014694 -0.14012729
v -0.20500435 0.14054035 -0.14050648
v -0.19552848 0.14094499 -0.14038008
v -0.19552848 0.13577454 -0.14537275
v -0.19552848 0.12505148 0.12505278
v -0.24499965 0.15697338 0.10710446
v -0.25499684 0.14745301 0.11762697
v -0.25499684 0.13704467 0.12726471
v -0.25499684 0.15281454 0.11260270
v -0.26294178 0.12670378 0.13696566
v -0.26294178 0.14257480 0.12236684
v -0.26294178 0.14431702 -0.13399705
v -0.26294178 0.15855822 -0.12053581
v -0.25499684 0.15977216 -0.11971424
v -0.20500435 0.15070139 -0.13067915
v -0.19552848 0.15083627 -0.13080554
v -0.19552848 0.14713828 0.10350215
v -0.22959806 0.16008687 0.10008945
v -0.25499684 0.15781638 0.10786284
v -0.23499587 0.16067137 0.10078463
v -0.24499965 0.16171670 0.10211179
v -0.26294178 0.14866693 0.11671060
v -0.26294178 0.15393855 0.11174954
v -0.26294178 0.15290445 0.11272911
v -0.26294178 0.15959232 -0.11952464
v -0.26294178 0.16235738 -0.11554315
v -0.24499965 0.15992951 -0.11990383
v -0.19552848 0.15108356 -0.13052115
v -0.19552848 0.15281454 0.09743512
v -0.19753452 0.15064520 0.10059503
v -0.19552848 0.15426451 0.09572876
v -0.19552848 0.15945743 0.08899815
v -0.20027301 0.15994075 0.08988292
v -0.24499965 0.16608909 0.09497038
v -0.26294178 0.15790629 0.10789443
v -0.25499684 0.16230118 0.10287017
v -0.25480548 0.16778634 0.09408560
v -0.26294178 0.16300930 -0.11450038
v -0.26294178 0.16697706 -0.10814895
v -0.23499587 0.15991828 -0.11987223
v -0.19552848 0.15538852 -0.12499130
v -0.19552848 0.16181785 0.08451106
v -0.24503264 0.18764761 0.05436548
v -0.24935485 0.18012798 0.07022825
v -0.25134769 0.16992196 0.08985132
v -0.26294178 0.15882799 0.10685166
v -0.26294178 0.16779760 0.09408560
v -0.26294178 0.16226746 0.10287017
v -0.25801909 0.17010181 0.09016731
v -0.26294178 0.16862935 0.09269524
v -0.26294178 0.16799991 -0.10641100
v -0.26294178 0.17022544 -0.10246110
v -0.23499587 0.16271706 -0.11487957
v -0.19552848 0.15954736 -0.11914545
v -0.19552848 0.17179906 0.06526718
v -0.24838483 0.19028904 0.05060518
v -0.25499684 0.18819837 0.05657741
v -0.25499684 0.18367985 0.06498279
v -0.25499684 0.18047643 0.07086023
v -0.25480548 0.17225991 0.08590142
v -0.26294178 0.17010181 0.09016731
v -0.26294178 0.17001189 0.09032531
v -0.26294178 0.18401706 0.06498279
v -0.26294178 0.17858809 -0.08745150
v -0.26294178 0.18080239 -0.08347002
v -0.26294178 0.18136439 -0.08245884
v -0.25499684 0.18127447 -0.08230084
v -0.26294178 0.18466899 -0.07648660
v -0.25499684 0.18525347 -0.07496984
v -0.19552848 0.17246222 -0.09475091
v -0.19552848 0.17758772 0.05408108
v -0.19901264 0.18019542 0.05035239
v -0.19552848 0.18173531 0.04564411
v -0.19552848 0.18178028 0.04554931
v -0.19552848 0.18181399 0.04545452
v -0.19552848 0.18489379 0.03550078
v -0.19552848 0.18503991 0.03499520
v -0.24503264 0.19089600 0.04501213
v -0.25499684 0.19237968 0.04498053
v -0.25499684 0.19074987 0.05158475
v -0.26294178 0.18891774 0.05572424
v -0.26294178 0.18838945 0.05673541
v -0.26294178 0.18494998 0.06324483
v -0.26294178 0.18548951 -0.07496984
v -0.26294178 0.18835573 -0.06934519
v -0.24499965 0.18486007 -0.07496984
v -0.19552848 0.18012798 -0.08024690
v -0.19552848 0.18826582 0.01502454
v -0.23107620 0.18982819 0.03891349
v -0.24499965 0.19257078 0.03499520
v -0.25499684 0.19405447 0.03499520
v -0.26294178 0.19427927 0.03499520
v -0.26294178 0.19250333 0.04498053
v -0.25938502 0.20009039 0.00058372
v -0.26294178 0.19079483 0.05174275
v -0.26294178 0.18912005 -0.06767043
v -0.19552848 0.18025163 -0.07996251
v -0.19552848 0.18949097 0.00737754
v -0.19552848 0.19137932 -0.00444054
v -0.19552848 0.19146924 -0.00500933
v -0.25499684 0.19563931 0.02497827
v -0.26294178 0.19958459 0.00393323
v -0.23499587 0.19722417 -0.00500933
v -0.24499965 0.19859546 -0.00500933
v -0.25262126 0.19961831 -0.00500933
v -0.25762314 0.20027024 -0.00500933
v -0.26294178 0.20041636 -0.00500933
v -0.26294178 0.20012411 0.00077332
v -0.26294178 0.19062623 -0.06368895
v -0.25499684 0.18897393 -0.06691206
v -0.19552848 0.18222988 -0.07496984
v -0.19552848 0.19236845 -0.01448907
v -0.19552848 0.19241340 -0.01502626
v -0.25743839 0.20025900 -0.01148715
v -0.26294178 0.20042761 -0.00677888
v -0.26294178 0.19096343 -0.06267777
v -0.19552848 0.18238723 -0.07446425
v -0.19552848 0.19177273 -0.02444280
v -0.25499684 0.19760634 -0.02497999
v -0.26294178 0.19282930 -0.05499918
v -0.26294178 0.19461647 -0.04498225
v -0.26294178 0.19633621 -0.03499692
v -0.26294178 0.20030396 -0.01186634
v -0.19552848 0.19171652 -0.02497999
v -0.19552848 0.18964835 -0.03739845
v -0.19552848 0.18670344 -0.05499918
v -0.19552848 0.18502866 -0.06498452
v -0.23499587 0.18818712 -0.06498452
v -0.26294178 0.19252580 -0.05642114
v -0.25499684 0.19059251 -0.06188779
v -0.22500530 0.18740033 -0.06498452
v -0.24730924 0.19024408 -0.06087662
f 1 2 3
f 1 3 4
f 1 4 12
f 1 12 29
f 1 29 52
f 1 52 51
f 1 51 72
f 1 72 90
f 1 90 97
f 1 97 96
f 1 96 109
f 1 109 121
f 1 121 134
f 1 134 147
f 1 147 163
f 1 163 180
f 1 180 190
f 1 190 204
f 1 204 210
f 1 210 220
f 1 220 219
f 1 219 218
f 1 218 217
f 1 217 211
f 1 211 206
f 1 206 205
f 1 205 193
f 1 193 192
f 1 192 191
f 1 191 181
f 1 181 170
f 1 170 169
f 1 169 168
f 1 168 167
f 1 167 166
f 1 166 164
f 1 164 148
f 1 148 135
f 1 135 125
f 1 125 124
f 1 124 122
f 1 122 110
f 1 110 98
f 1 98 78
f 1 78 56
f 1 56 30
f 1 30 13
f 1 13 5
f 1 5 15
f 1 15 38
f 1 38 63
f 1 63 64
f 1 64 40
f 1 40 39
f 1 39 17
f 1 17 16
f 1 16 7
f 1 7 6
f 1 6 2
f 2 6 3
f 3 6 7
f 3 7 8
f 3 8 9
f 3 9 10
f 3 10 11
f 3 11 4
f 4 11 12
f 5 13 14
f 5 14 15
f 7 16 8
f 8 16 17
f 8 17 9
f 9 18 19
f 9 19 10
f 9 17 18
f 10 19 20
f 10 20 21
f 10 21 11
f 11 21 22
f 11 22 23
f 11 23 24
f 11 24 25
f 11 25 26
f 11 26 27
f 11 27 28
f 11 28 29
f 11 29 12
f 13 30 31
f 13 31 14
f 14 31 32
f 14 32 33
f 14 33 34
f 14 34 15
f 15 34 35
f 15 35 36
f 15 36 37
f 15 37 61
f 15 61 86
f 15 86 103
f 15 103 104
f 15 104 115
f 15 115 117
f 15 117 116
f 15 116 128
f 15 128 139
f 15 139 141
f 15 141 140
f 15 140 143
f 15 143 155
f 15 155 154
f 15 154 156
f 15 156 176
f 15 176 175
f 15 175 174
f 15 174 188
f 15 188 186
f 15 186 185
f 15 185 195
f 15 195 201
f 15 201 200
f 15 200 208
f 15 208 216
f 15 216 215
f 15 215 214
f 15 214 213
f 15 213 222
f 15 222 209
f 15 209 202
f 15 202 189
f 15 189 178
f 15 178 177
f 15 177 161
f 15 161 159
f 15 159 158
f 15 158 157
f 15 157 145
f 15 145 144
f 15 144 132
f 15 132 131
f 15 131 119
f 15 119 118
f 15 118 106
f 15 106 91
f 15 91 89
f 15 89 105
f 15 105 87
f 15 87 69
f 15 69 47
f 15 47 46
f 15 46 24
f 15 24 23
f 15 23 22
f 15 22 45
f 15 45 67
f 15 67 42
f 15 42 66
f 15 66 62
f 15 62 38
f 17 39 18
f 18 39 40
f 18 40 41
f 18 41 42
f 18 42 43
f 18 43 44
f 18 44 19
f 19 44 20
f 20 44 45
f 20 45 21
f 21 45 22
f 24 46 25
f 25 46 26
f 26 46 47
f 26 47 48
f 26 48 27
f 27 48 49
f 27 49 50
f 27 50 28
f 28 51 52
f 28 52 29
f 28 50 53
f 28 53 54
f 28 54 51
f 30 55 31
f 30 56 57
f 30 57 55
f 31 55 58
f 31 58 57
f 31 57 59
f 31 59 32
f 32 59 33
f 33 59 60
f 33 60 61
f 33 61 34
f 34 61 35
f 35 61 36
f 36 61 37
f 38 62 63
f 40 64 41
f 41 64 65
f 41 65 66
f 41 66 42
f 42 67 43
f 43 67 45
f 43 45 44
f 47 68 50
f 47 50 49
f 47 49 48
f 47 69 68
f 50 68 70
f 50 70 71
f 50 71 53
f 51 54 72
f 53 71 73
f 53 73 74
f 53 74 75
f 53 75 76
f 53 76 54
f 54 76 77
f 54 77 90
f 54 90 72
f 55 57 58
f 56 78 79
f 56 79 57
f 57 80 59
f 57 79 81
f 57 81 82
f 57 82 83
f 57 83 80
f 59 80 84
f 59 84 85
f 59 85 60
f 60 86 61
f 60 85 86
f 62 66 64
f 62 64 63
f 64 66 65
f 68 69 70
f 69 87 88
f 69 88 71
f 69 71 70
f 71 88 89
f 71 89 73
f 73 89 74
f 74 89 91
f 74 91 92
f 74 92 93
f 74 93 75
f 75 93 94
f 75 94 76
f 76 94 95
f 76 95 77
f 77 95 96
f 77 96 97
f 77 97 90
f 78 98 79
f 79 98 99
f 79 99 81
f 80 83 100
f 80 100 101
f 80 101 84
f 81 99 112
f 81 112 102
f 81 102 82
f 82 102 83
f 83 102 100
f 84 103 85
f 84 101 104
f 84 104 103
f 85 103 86
f 87 105 88
f 88 105 89
f 91 106 92
f 92 106 107
f 92 107 93
f 93 107 108
f 93 108 94
f 94 108 95
f 95 108 96
f 96 108 109
f 98 110 111
f 98 111 99
f 99 111 113
f 99 113 114
f 99 114 112
f 100 102 115
f 100 115 104
f 100 104 101
f 102 112 116
f 102 116 117
f 102 117 115
f 106 118 107
f 107 118 119
f 107 119 120
f 107 120 108
f 108 120 109
f 109 120 121
f 110 122 123
f 110 123 111
f 111 123 122
f 111 122 124
f 111 124 125
f 111 125 126
f 111 126 127
f 111 127 113
f 112 128 116
f 112 114 129
f 112 129 128
f 113 127 114
f 114 127 130
f 114 130 129
f 119 131 120
f 120 131 132
f 120 132 133
f 120 133 121
f 121 133 134
f 125 135 136
f 125 136 126
f 126 136 137
f 126 137 127
f 127 137 138
f 127 138 130
f 128 129 139
f 129 130 140
f 129 140 141
f 129 141 139
f 130 142 143
f 130 143 140
f 130 138 142
f 132 144 133
f 133 144 145
f 133 145 146
f 133 146 147
f 133 147 134
f 135 148 149
f 135 149 136
f 136 149 137
f 137 149 150
f 137 150 138
f 138 150 151
f 138 151 152
f 138 152 153
f 138 153 142
f 142 154 155
f 142 155 143
f 142 153 152
f 142 152 151
f 142 151 156
f 142 156 154
f 145 157 147
f 145 147 146
f 147 157 158
f 147 158 159
f 147 159 160
f 147 160 161
f 147 161 162
f 147 162 163
f 148 164 149
f 149 164 165
f 149 165 166
f 149 166 167
f 149 167 168
f 149 168 169
f 149 169 170
f 149 170 171
f 149 171 172
f 149 172 173
f 149 173 150
f 150 173 174
f 150 174 175
f 150 175 176
f 150 176 156
f 150 156 151
f 159 161 160
f 161 177 162
f 162 177 178
f 162 178 179
f 162 179 180
f 162 180 163
f 164 166 165
f 170 181 182
f 170 182 171
f 171 182 183
f 171 183 184
f 171 184 172
f 172 185 186
f 172 186 173
f 172 184 187
f 172 187 185
f 173 188 174
f 173 186 188
f 178 189 180
f 178 180 179
f 180 189 190
f 181 183 182
f 181 191 183
f 183 191 192
f 183 192 193
f 183 193 194
f 183 194 184
f 184 194 187
f 185 187 195
f 187 193 196
f 187 196 197
f 187 197 198
f 187 198 199
f 187 199 200
f 187 200 201
f 187 201 195
f 187 194 193
f 189 202 203
f 189 203 190
f 190 203 204
f 193 205 196
f 196 205 206
f 196 206 197
f 197 206 198
f 198 206 199
f 199 206 207
f 199 207 208
f 199 208 200
f 202 209 204
f 202 204 203
f 204 209 210
f 206 211 207
f 207 212 213
f 207 213 214
f 207 214 215
f 207 215 216
f 207 216 208
f 207 211 217
f 207 217 218
f 207 218 219
f 207 219 220
f 207 220 212
f 209 221 210
f 209 222 223
f 209 223 221
f 210 221 224
f 210 224 220
f 212 220 213
f 213 220 222
f 220 224 225
f 220 225 222
f 221 223 224
f 222 225 223
f 223 225 224

