# https://github.com/mikedh/trimesh
v -0.00075419 -0.08480548 -0.18289275
v -0.00066813 -0.08480548 -0.18289275
v -0.00519683 -0.08480548 -0.18285865
v -0.00066813 -0.07932017 -0.18545096
v -0.00066813 -0.08480548 0.09779379
v -0.03582202 -0.08480548 -0.18244933
v -0.00500320 -0.06972496 -0.18985108
v -0.00066813 -0.07200096 -0.18882780
v -0.00066813 -0.07565238 0.13497306
v -0.09562019 -0.08480548 0.10676457
v -0.04936508 -0.08480548 -0.18221056
v -0.05500175 -0.08467449 -0.18217646
v -0.11056167 -0.06807118 -0.18906656
v -0.11056167 -0.06306072 -0.19138600
v -0.02500047 -0.06943022 -0.18971464
v -0.01500722 -0.06957760 -0.18978286
v -0.00066813 -0.06975771 -0.18985108
v -0.00500320 -0.06473087 -0.19206819
v -0.11056167 -0.08480548 0.10789017
v -0.00066813 -0.07231206 0.14493302
v -0.05500175 -0.08480548 -0.18210824
v -0.06431732 -0.08480548 -0.18193769
v -0.11056167 -0.08480548 -0.18105085
v -0.01500722 -0.06458350 -0.19199997
v -0.11056167 -0.05859059 -0.19268216
v -0.01500722 -0.05498829 -0.19489928
v -0.00066813 -0.06474724 -0.19206819
v -0.00500320 -0.05498829 -0.19500160
v -0.00066813 -0.05498829 -0.19503571
v -0.11056167 -0.04734160 0.12859461
v -0.00066813 -0.07146061 0.14609274
v -0.00157172 -0.07113313 0.14609274
v -0.11056167 -0.05498829 -0.19370544
v -0.11056167 -0.04943748 -0.19466051
v -0.11056167 -0.04498373 -0.19537681
v -0.01500722 -0.04498373 -0.19650242
v -0.00500320 -0.04498373 -0.19660474
v -0.00066813 -0.04498373 -0.19660474
v -0.11056167 -0.03913819 0.13279006
v -0.00066813 -0.01662384 0.14609274
v -0.01696499 -0.06112857 0.14609274
v -0.11056167 -0.02497461 0.13838401
v -0.11056167 -0.03301429 0.13558704
v -0.11056167 -0.03499555 0.13487074
v -0.11056167 -0.01703319 -0.19953816
v -0.11056167 -0.00499824 -0.20127775
v -0.01500722 -0.02038987 -0.20004980
v -0.00066813 -0.02083197 -0.20011802
v -0.00774624 -0.00778184 0.14609274
v -0.00066813 0.02498269 0.13616690
v -0.01927775 -0.05954029 0.14609274
v -0.08303450 -0.01546128 0.14609274
v -0.10789393 0.00225547 0.14609274
v -0.11056167 0.00567765 0.14609274
v -0.11056167 0.00498994 -0.20127775
v -0.00500320 -0.00499824 -0.20233513
v -0.00066813 -0.00499824 -0.20236924
v -0.02587179 0.00562853 0.14609274
v -0.00066813 0.02665284 0.13558704
v -0.09324290 0.05173793 0.14609274
v -0.08674566 0.04744792 0.14609274
v -0.03661803 0.01306236 0.14609274
v -0.11056167 0.05984310 0.14609274
v -0.00500320 0.00498994 -0.20230103
v -0.11056167 0.00895247 -0.20073199
v -0.00066813 0.00498994 -0.20233513
v -0.00066813 0.03498725 0.13265362
v -0.10498954 0.05740336 0.14609274
v -0.11056167 0.08247206 0.10488854
v -0.11046486 0.05981035 0.14609274
v -0.00066813 0.05355545 0.12248902
v -0.00066813 0.05854954 0.11866875
v -0.00066813 0.08247206 0.09803255
v -0.00500320 0.01499450 -0.20090254
v -0.11056167 0.01486351 -0.19987926
v -0.00066813 0.03104110 -0.19861721
v -0.00066813 0.04016146 0.13006131
v -0.00066813 0.04515555 0.12746899
v -0.11056167 0.08247206 -0.18221056
v -0.00066813 0.04879059 0.12532009
v -0.00066813 0.08247206 -0.18391603
v -0.00500320 0.04499181 -0.19657063
v -0.00066813 0.04499181 -0.19660474
v -0.11056167 0.04499181 -0.19541092
v -0.01500722 0.04499181 -0.19646831
v -0.00500320 0.08247206 -0.18391603
v -0.11056167 0.06588513 -0.19012396
v -0.00066813 0.06971666 -0.18985108
v -0.00500320 0.05499637 -0.19500160
v -0.00066813 0.05499637 -0.19503571
v -0.11056167 0.05055900 -0.19448996
v -0.00500320 0.06968392 -0.18981697
v -0.11056167 0.06310154 -0.19138600
v -0.00066813 0.06470620 -0.19206819
v -0.00500320 0.06468982 -0.19206819
v -0.11056167 0.05499637 -0.19370544
f 1 2 5
f 1 5 10
f 1 10 19
f 1 19 23
f 1 23 22
f 1 22 21
f 1 21 11
f 1 11 6
f 1 6 3
f 1 3 4
f 1 4 2
f 2 4 8
f 2 8 17
f 2 17 27
f 2 27 29
f 2 29 38
f 2 38 48
f 2 48 57
f 2 57 66
f 2 66 76
f 2 76 83
f 2 83 90
f 2 90 94
f 2 94 88
f 2 88 81
f 2 81 73
f 2 73 72
f 2 72 71
f 2 71 80
f 2 80 78
f 2 78 77
f 2 77 67
f 2 67 59
f 2 59 50
f 2 50 40
f 2 40 31
f 2 31 20
f 2 20 9
f 2 9 5
f 3 6 7
f 3 7 4
f 4 7 8
f 5 9 10
f 6 11 12
f 6 12 13
f 6 13 14
f 6 14 15
f 6 15 16
f 6 16 7
f 7 17 8
f 7 16 24
f 7 24 18
f 7 18 17
f 9 19 10
f 9 20 19
f 11 21 12
f 12 21 22
f 12 22 13
f 13 22 23
f 13 23 19
f 13 19 30
f 13 30 39
f 13 39 44
f 13 44 43
f 13 43 42
f 13 42 54
f 13 54 63
f 13 63 69
f 13 69 79
f 13 79 87
f 13 87 93
f 13 93 96
f 13 96 91
f 13 91 84
f 13 84 75
f 13 75 65
f 13 65 55
f 13 55 46
f 13 46 45
f 13 45 35
f 13 35 34
f 13 34 33
f 13 33 25
f 13 25 14
f 14 24 15
f 14 25 26
f 14 26 18
f 14 18 24
f 15 24 16
f 17 18 27
f 18 26 28
f 18 28 29
f 18 29 27
f 19 20 31
f 19 31 32
f 19 32 30
f 25 33 26
f 26 34 35
f 26 35 36
f 26 36 37
f 26 37 28
f 26 33 34
f 28 37 29
f 29 37 38
f 30 32 39
f 31 40 49
f 31 49 58
f 31 58 62
f 31 62 61
f 31 61 60
f 31 60 68
f 31 68 70
f 31 70 63
f 31 63 54
f 31 54 53
f 31 53 52
f 31 52 51
f 31 51 41
f 31 41 32
f 32 41 42
f 32 42 43
f 32 43 44
f 32 44 39
f 35 45 36
f 36 45 46
f 36 46 47
f 36 47 37
f 37 47 48
f 37 48 38
f 40 50 49
f 41 51 42
f 42 51 52
f 42 52 53
f 42 53 54
f 46 55 56
f 46 56 47
f 47 56 48
f 48 56 57
f 49 50 58
f 50 59 60
f 50 60 61
f 50 61 62
f 50 62 58
f 55 64 56
f 55 65 64
f 56 64 66
f 56 66 57
f 59 67 60
f 60 67 68
f 63 70 71
f 63 71 72
f 63 72 73
f 63 73 69
f 64 65 74
f 64 74 66
f 65 75 74
f 66 74 76
f 67 77 68
f 68 77 78
f 68 78 70
f 69 73 81
f 69 81 86
f 69 86 79
f 70 78 80
f 70 80 71
f 74 75 82
f 74 82 83
f 74 83 76
f 75 84 85
f 75 85 82
f 79 86 87
f 81 88 86
f 82 85 89
f 82 89 90
f 82 90 83
f 84 91 89
f 84 89 85
f 86 88 92
f 86 92 87
f 87 92 93
f 88 94 95
f 88 95 92
f 89 91 96
f 89 96 93
f 89 93 95
f 89 95 90
f 90 95 94
f 92 95 93

