# https://github.com/mikedh/trimesh
v -0.16571288 0.08037348 0.14609276
v -0.16571288 0.03885526 0.14609276
v -0.16571288 0.07936266 0.14854021
v -0.16498588 0.07936266 0.14850855
v -0.16498588 0.08034375 0.14609276
v -0.01695289 -0.06114228 0.14609276
v -0.03065276 -0.05043941 0.15074004
v -0.06986220 -0.01987676 0.15955664
v -0.06318997 -0.02225518 0.16305219
v -0.06592026 -0.01804835 0.16583078
v -0.05929649 -0.01966865 0.16971791
v -0.07065382 -0.01054148 0.17038593
v -0.16571288 0.04645132 0.15355606
v -0.16571288 0.07436799 0.15399948
v -0.16498588 0.07436799 0.15401100
v -0.14498535 0.07152875 0.15230642
v -0.13871701 0.07042873 0.15080051
v -0.15828134 0.07847075 0.14609276
v -0.16277257 0.07977888 0.14609276
v -0.15498561 0.07319364 0.15370867
v -0.11994430 0.06000829 0.16002311
v -0.00157283 -0.07114649 0.14609276
v -0.01887539 -0.05928415 0.14778006
v -0.00068428 -0.07047756 0.14843079
v -0.03952214 -0.03973654 0.15957680
v -0.05168724 -0.03109991 0.16135626
v -0.05264042 -0.02108083 0.17067674
v -0.05558072 -0.01580372 0.17251377
v -0.06501555 -0.01265232 0.17151175
v -0.00068428 -0.06921403 0.15044059
v -0.01992550 -0.04996372 0.15997703
v -0.07440190 -0.00461030 0.17173058
v -0.08121952 -0.00101295 0.17069978
v -0.16571288 0.05459740 0.15879074
v -0.10239941 0.01799952 0.17123534
v -0.11955657 0.03075378 0.16974671
v -0.16571288 0.06495838 0.15912187
v -0.15498561 0.06773815 0.15871012
v -0.13498509 0.06180697 0.16160387
v -0.13737610 0.07103820 0.14609276
v -0.14498535 0.07386257 0.14609276
v -0.15516332 0.07743019 0.14609276
v -0.09758507 0.05114869 0.16193500
v -0.10498429 0.05650013 0.15500151
v -0.12498482 0.06066236 0.16068824
v -0.10498429 0.04862163 0.16860072
v -0.10498429 0.05256088 0.16359927
v -0.00068428 -0.07148840 0.14609276
v -0.04501501 -0.02231464 0.17110865
v -0.01326942 -0.05121239 0.16070840
v -0.05501528 -0.00499679 0.17545071
v -0.06501555 -0.00499679 0.17445447
v -0.04501501 -0.01498614 0.17334591
v -0.00068428 -0.06488828 0.15367123
v -0.00501396 -0.05739627 0.15828973
v -0.08472528 0.00509661 0.17214809
v -0.16261101 0.05767448 0.16050108
v -0.12194759 0.03741334 0.17063355
v -0.09506480 0.01480352 0.17252816
v -0.10543665 0.02449557 0.17277579
v -0.11290050 0.02749832 0.17128716
v -0.16261101 0.06161373 0.16050108
v -0.15498561 0.06272861 0.16118924
v -0.14498535 0.06268401 0.16174784
v -0.11498456 0.04897839 0.16950484
v -0.12498482 0.06602866 0.14609276
v -0.09454783 0.04722431 0.16515988
v -0.09091283 0.04945407 0.15772538
v -0.09454783 0.05199601 0.15463582
v -0.11491993 0.06176238 0.14609276
v -0.10498429 0.04362695 0.17213657
v -0.09498402 0.04193233 0.17139946
v -0.00068428 -0.01663617 0.14609276
v -0.03501475 -0.02759175 0.16929176
v -0.00501396 -0.05238674 0.16107120
v -0.06501555 0.00499256 0.17550831
v -0.09498402 0.02498612 0.17537010
v -0.08499992 0.01499677 0.17511095
v -0.07501581 0.00499256 0.17482878
v -0.04501501 -0.00499679 0.17361656
v -0.03501475 -0.02259707 0.17077176
v -0.02929570 -0.02146733 0.17022756
v -0.00068428 -0.05717330 0.15872452
v -0.11572771 0.03444032 0.17192638
v -0.10498429 0.03499033 0.17467906
v -0.12194759 0.04264586 0.17063355
v -0.11498456 0.04396885 0.17144264
v -0.08949115 0.04038636 0.17030817
v -0.08569460 0.04203639 0.16419530
v -0.08968502 0.05021219 0.15105966
v -0.07973322 0.04019311 0.16032831
v -0.00774424 -0.00779143 0.14609276
v -0.01304325 -0.00386705 0.14609276
v -0.02587073 0.00563175 0.14609276
v -0.10498429 0.05742177 0.14609276
v -0.11046101 0.05981505 0.14609276
v -0.09498402 0.03499033 0.17434217
v -0.08569460 0.03460384 0.17172195
v -0.00068428 -0.01916323 0.14926581
v -0.00068428 -0.05217863 0.16086388
v -0.00501396 -0.04499878 0.16311266
v -0.05409442 0.00592906 0.17308101
v -0.07501581 0.01499677 0.17521462
v -0.08499992 0.02498612 0.17487197
v -0.03782581 -0.00499679 0.17098194
v -0.03968370 0.00033978 0.17021029
v -0.04501501 0.00265873 0.17137930
v -0.02929570 -0.01861323 0.17022756
v -0.00068428 -0.04531095 0.16224021
v -0.07869927 0.03100648 0.17074008
v -0.05015247 0.00986831 0.16990219
v -0.04680828 0.01248457 0.16323647
v -0.05779403 0.02170093 0.16237554
v -0.06876363 0.03094702 0.16141096
v -0.08968502 0.05021219 0.14875905
v -0.04013605 0.00988317 0.15958832
v -0.02966728 0.00031005 0.16037726
v -0.01944084 -0.00948605 0.16050972
v -0.00965059 -0.01962405 0.16026784
v -0.00068428 -0.02397953 0.15477403
v -0.03661415 0.01307917 0.14609276
v -0.09323923 0.05175817 0.14609276
v -0.07522583 0.02497125 0.17225175
v -0.05682470 0.01235078 0.17138219
v -0.03076585 -0.01193880 0.16958834
v -0.00068428 -0.02947962 0.16016132
v -0.03580637 0.00231684 0.16422409
v -0.00501396 -0.03499457 0.16331421
v -0.00068428 -0.03499457 0.16162115
v -0.04409415 0.00805477 0.16594020
v -0.08674471 0.04744729 0.14609276
v -0.00068428 -0.03065396 0.16047804
f 1 2 13
f 1 13 34
f 1 34 37
f 1 37 14
f 1 14 3
f 1 3 4
f 1 4 5
f 1 5 19
f 1 19 18
f 1 18 42
f 1 42 41
f 1 41 40
f 1 40 66
f 1 66 70
f 1 70 96
f 1 96 95
f 1 95 122
f 1 122 131
f 1 131 121
f 1 121 94
f 1 94 93
f 1 93 92
f 1 92 73
f 1 73 48
f 1 48 22
f 1 22 6
f 1 6 2
f 2 6 7
f 2 7 8
f 2 8 9
f 2 9 10
f 2 10 11
f 2 11 12
f 2 12 13
f 3 14 15
f 3 15 4
f 4 16 17
f 4 17 18
f 4 18 19
f 4 19 5
f 4 15 20
f 4 20 21
f 4 21 16
f 6 22 23
f 6 23 7
f 7 23 22
f 7 22 24
f 7 24 25
f 7 25 26
f 7 26 8
f 8 26 9
f 9 11 10
f 9 26 11
f 11 27 28
f 11 28 29
f 11 29 12
f 11 26 25
f 11 25 30
f 11 30 31
f 11 31 27
f 12 29 32
f 12 32 33
f 12 33 13
f 13 33 35
f 13 35 36
f 13 36 34
f 14 37 38
f 14 38 15
f 15 38 39
f 15 39 20
f 16 21 17
f 17 40 41
f 17 41 42
f 17 42 18
f 17 21 43
f 17 43 44
f 17 44 40
f 20 39 45
f 20 45 21
f 21 46 47
f 21 47 43
f 21 45 46
f 22 48 24
f 24 48 73
f 24 73 99
f 24 99 120
f 24 120 126
f 24 126 132
f 24 132 129
f 24 129 109
f 24 109 100
f 24 100 83
f 24 83 54
f 24 54 30
f 24 30 25
f 27 49 28
f 27 31 50
f 27 50 49
f 28 51 52
f 28 52 29
f 28 49 53
f 28 53 51
f 29 52 32
f 30 54 55
f 30 55 31
f 31 55 50
f 32 52 56
f 32 56 35
f 32 35 33
f 34 57 37
f 34 36 58
f 34 58 57
f 35 56 59
f 35 59 60
f 35 60 61
f 35 61 36
f 36 61 58
f 37 57 62
f 37 62 63
f 37 63 38
f 38 63 64
f 38 64 39
f 39 64 65
f 39 65 46
f 39 46 45
f 40 44 66
f 43 47 46
f 43 46 67
f 43 67 68
f 43 68 69
f 43 69 44
f 44 69 70
f 44 70 66
f 46 71 72
f 46 72 67
f 46 65 71
f 49 74 53
f 49 50 75
f 49 75 74
f 50 55 75
f 51 76 77
f 51 77 78
f 51 78 79
f 51 79 52
f 51 53 80
f 51 80 76
f 52 79 60
f 52 60 59
f 52 59 56
f 53 74 75
f 53 75 81
f 53 81 82
f 53 82 80
f 54 83 55
f 55 83 75
f 57 58 86
f 57 86 62
f 58 61 84
f 58 84 85
f 58 85 86
f 60 79 78
f 60 78 77
f 60 77 85
f 60 85 84
f 60 84 61
f 62 86 87
f 62 87 63
f 63 87 65
f 63 65 64
f 65 87 71
f 67 72 88
f 67 88 89
f 67 89 68
f 68 90 69
f 68 89 91
f 68 91 92
f 68 92 93
f 68 93 94
f 68 94 90
f 69 90 95
f 69 95 96
f 69 96 70
f 71 87 85
f 71 85 97
f 71 97 72
f 72 97 98
f 72 98 88
f 73 92 99
f 75 83 100
f 75 100 101
f 75 101 81
f 76 80 102
f 76 102 103
f 76 103 77
f 77 103 104
f 77 104 97
f 77 97 85
f 80 105 106
f 80 106 107
f 80 107 102
f 80 82 108
f 80 108 105
f 81 101 82
f 82 101 109
f 82 109 108
f 85 87 86
f 88 98 110
f 88 110 111
f 88 111 112
f 88 112 113
f 88 113 89
f 89 113 114
f 89 114 91
f 90 115 95
f 90 94 115
f 91 114 116
f 91 116 92
f 92 116 117
f 92 117 118
f 92 118 119
f 92 119 120
f 92 120 99
f 94 121 115
f 95 115 122
f 97 104 102
f 97 102 123
f 97 123 98
f 98 123 124
f 98 124 110
f 100 109 101
f 102 107 124
f 102 124 123
f 102 104 103
f 105 108 125
f 105 125 126
f 105 126 106
f 106 127 111
f 106 111 107
f 106 126 119
f 106 119 118
f 106 118 117
f 106 117 127
f 107 111 124
f 108 109 128
f 108 128 129
f 108 129 125
f 109 129 128
f 110 124 111
f 111 127 130
f 111 130 112
f 112 130 116
f 112 116 113
f 113 116 114
f 115 131 122
f 115 121 131
f 116 130 117
f 117 130 127
f 119 126 120
f 125 129 132
f 125 132 126

