# https://github.com/mikedh/trimesh
v 0.07634675 0.10719471 0.12265481
v 0.07634675 0.11469826 0.12259457
v -0.11056168 0.10924409 0.12373912
v -0.11056168 0.10462487 0.12337768
v -0.11056168 0.09997310 0.12003438
v -0.11056168 0.08248290 0.10488410
v 0.07634675 0.08251543 0.09849870
v -0.11056168 0.11534885 0.12322709
v -0.10498150 0.11455730 0.12328732
v 0.07634675 0.11573921 0.12199217
v -0.00067797 0.08248290 0.09807701
v -0.11056168 0.08248290 -0.18221822
v 0.07634675 0.08251543 -0.18375434
v 0.07634675 0.11958858 0.11964282
v -0.11056168 0.11748498 0.12163073
v -0.00067797 0.08248290 -0.18396518
v -0.11056168 0.08359976 -0.18170619
v -0.00501404 0.08248290 -0.18393506
v 0.00748190 0.08251543 -0.18393506
v 0.00499369 0.08502023 -0.18279050
v 0.00499369 0.10500438 -0.17354371
v 0.07634675 0.08366482 -0.18321218
v 0.07634675 0.12567165 0.11410077
v -0.11056168 0.11983797 0.11982355
v -0.00501404 0.09050693 -0.18023032
v -0.00501404 0.10500438 -0.17351359
v -0.11056168 0.08859850 -0.17932673
v -0.00501404 0.11096817 -0.17059197
v -0.00067797 0.11098986 -0.17059197
v 0.00499369 0.11100070 -0.17059197
v 0.01500141 0.11095733 -0.17056185
v 0.04498799 0.11081637 -0.17047149
v 0.06498514 0.11071878 -0.17041124
v 0.07499287 0.11066456 -0.17038113
v 0.07634675 0.10990553 -0.17074257
v 0.01500141 0.10500438 -0.17348348
v 0.03499856 0.10500438 -0.17336300
v 0.07634675 0.10369234 -0.17372443
v 0.07634675 0.13006318 0.11000447
v 0.07634675 0.13428120 0.10605878
v -0.11056168 0.12057531 0.11913079
v -0.11056168 0.09501772 -0.17625450
v -0.11056168 0.10403933 -0.17191724
v -0.01502176 0.11081637 -0.17050160
v -0.00501404 0.11597776 -0.16688722
v 0.00499369 0.11601029 -0.16688722
v 0.07634675 0.11499102 -0.16712819
v 0.07634675 0.11066456 -0.17035101
v 0.07634675 0.14534134 0.09560719
v -0.11056168 0.14780276 0.09349880
v -0.11056168 0.10682604 -0.17056185
v -0.11056168 0.10904892 -0.16947754
v -0.11056168 0.11501271 -0.16501980
v -0.11056168 0.11809220 -0.16251986
v -0.11056168 0.12056447 -0.16050182
v -0.00501404 0.12208252 -0.16188733
v -0.00067797 0.12209337 -0.16188733
v 0.00499369 0.12210421 -0.16188733
v 0.07634675 0.11566331 -0.16661614
v 0.07634675 0.15064369 0.09057718
v -0.11056168 0.15075213 0.09069766
v -0.11056168 0.12334035 -0.15791151
v -0.01502176 0.14790036 -0.13809267
v -0.00501404 0.14807384 -0.13824326
v -0.00501404 0.13758840 -0.14779124
v -0.00501404 0.12709212 -0.15733923
v -0.00067797 0.14591603 -0.14023116
v 0.00499369 0.14809553 -0.13824326
v 0.07634675 0.12175722 -0.16161625
v 0.07634675 0.15552317 0.08485441
v 0.07634675 0.15976289 0.07958344
v -0.11056168 0.15264970 0.08828807
v -0.11056168 0.12556322 -0.15583324
v -0.11056168 0.14621964 -0.13643607
v -0.11056168 0.15146779 -0.13143617
v -0.01502176 0.15307260 -0.13309276
v -0.11056168 0.13090895 -0.15083335
v -0.00501404 0.15321356 -0.13324337
v 0.00499369 0.15324609 -0.13327348
v -0.00067797 0.14808469 -0.13824326
v 0.01500141 0.15318102 -0.13318312
v 0.02499084 0.15311596 -0.13309276
v 0.04498799 0.15297501 -0.13291204
v 0.05499572 0.15289910 -0.13282168
v 0.07499287 0.15274729 -0.13264096
v 0.07634675 0.15202080 -0.13330361
v 0.07634675 0.16006650 0.07904128
v -0.11056168 0.15942675 0.07892080
v -0.11056168 0.15718219 0.08220387
v -0.11056168 0.15517619 0.08497488
v -0.11056168 0.15630388 -0.12499053
v -0.01502176 0.15807134 -0.12703869
v -0.00501404 0.15822314 -0.12727964
v -0.00067797 0.15823399 -0.12730975
v 0.00499369 0.15824483 -0.12727964
v 0.01500141 0.15817977 -0.12718928
v 0.07634675 0.15706292 -0.12743023
v 0.07634675 0.15273646 -0.13261086
v 0.07634675 0.16248456 0.07470402
v 0.07634675 0.16754836 0.06545723
v -0.11056168 0.17873861 0.04325891
v -0.11056168 0.15828821 -0.12203878
v -0.11056168 0.15983880 -0.11971956
v -0.00501404 0.16127010 -0.12227974
v -0.00067797 0.16128094 -0.12230986
v 0.00499369 0.16129179 -0.12230986
v 0.07499287 0.16089059 -0.12164722
v 0.07634675 0.16045685 -0.12230986
v 0.07634675 0.15773520 -0.12661700
v 0.07634675 0.18066871 0.04121076
v -0.11056168 0.18024582 0.04042764
v -0.11056168 0.16256045 -0.11471966
v -0.01502176 0.17953017 -0.08917804
v -0.00501404 0.17968197 -0.08944912
v -0.00067797 0.17969282 -0.08944912
v 0.00499369 0.17970365 -0.08944912
v 0.07634675 0.16089059 -0.12161711
v 0.07634675 0.18330362 0.03497595
v -0.11056168 0.18109161 0.03810842
v -0.11056168 0.16534717 -0.10959928
v -0.11056168 0.17193988 -0.09746099
v -0.11056168 0.17799042 -0.08628653
v -0.11056168 0.18067956 -0.08128664
v -0.01502176 0.18212171 -0.08417814
v -0.00501404 0.18225183 -0.08444922
v -0.00067797 0.18226267 -0.08444922
v 0.00499369 0.18227351 -0.08444922
v 0.02499084 0.18215424 -0.08411790
v 0.04498799 0.18202412 -0.08378658
v 0.06498514 0.18188316 -0.08345526
v 0.07634675 0.18179642 -0.08327454
v 0.07634675 0.18614456 0.02497616
v -0.11056168 0.18219762 0.03497595
v -0.11056168 0.18183979 -0.07779273
v -0.01502176 0.18519035 -0.07499159
v -0.00501404 0.18542890 -0.07499159
v -0.00067797 0.18545060 -0.07499159
v 0.00499369 0.18547228 -0.07496147
v 0.03499856 0.18520120 -0.07496147
v 0.07634675 0.18480000 -0.07496147
v 0.05499572 0.18195906 -0.08360587
v -0.11056168 0.18335783 0.03051822
v 0.07634675 0.18785781 0.01497637
v -0.11056168 0.18472409 0.02497616
v -0.11056168 0.18276146 -0.07499159
v -0.11056168 0.18401928 -0.06941942
v -0.11056168 0.18500602 -0.06499180
v -0.00501404 0.18721804 -0.06499180
v -0.00067797 0.18646985 -0.06932906
v 0.00499369 0.18727227 -0.06496169
v 0.07499287 0.18684937 -0.06496169
v 0.07634675 0.18683854 -0.06496169
v 0.07634675 0.18935417 0.00615126
v 0.07634675 0.19034091 0.00027789
v 0.07634675 0.19291076 -0.01502299
v -0.11056168 0.19029754 -0.00821590
v -0.11056168 0.18594939 -0.05941963
v -0.01502176 0.19222763 -0.03499244
v -0.00501404 0.19244450 -0.03499244
v -0.00067797 0.18723974 -0.06499180
v -0.00067797 0.19247703 -0.03499244
v -0.00067797 0.18823731 -0.05929915
v 0.00499369 0.18901803 -0.05496190
v 0.00499369 0.19249871 -0.03499244
v 0.01500141 0.19242281 -0.03499244
v 0.07634675 0.19191319 -0.03499244
v -0.11056168 0.19143608 -0.01505311
v -0.11056168 0.19078548 -0.01113753
v 0.07634675 0.19325775 -0.02505289
v 0.06498514 0.19325775 -0.02505289
v 0.04498799 0.19324690 -0.02505289
v 0.00499369 0.19321437 -0.02505289
v -0.00501404 0.19313848 -0.02505289
v -0.11056168 0.19044934 -0.03273345
v -0.11056168 0.19109994 -0.02848656
v -0.11056168 0.19158788 -0.02505289
v -0.11056168 0.19152282 -0.01948072
f 1 2 3
f 1 3 4
f 1 4 5
f 1 5 6
f 1 6 7
f 1 7 13
f 1 13 22
f 1 22 38
f 1 38 35
f 1 35 48
f 1 48 47
f 1 47 59
f 1 59 69
f 1 69 86
f 1 86 98
f 1 98 97
f 1 97 109
f 1 109 108
f 1 108 117
f 1 117 131
f 1 131 140
f 1 140 152
f 1 152 166
f 1 166 169
f 1 169 155
f 1 155 154
f 1 154 153
f 1 153 143
f 1 143 132
f 1 132 118
f 1 118 110
f 1 110 100
f 1 100 99
f 1 99 87
f 1 87 71
f 1 71 70
f 1 70 60
f 1 60 49
f 1 49 40
f 1 40 39
f 1 39 23
f 1 23 14
f 1 14 10
f 1 10 2
f 2 8 9
f 2 9 3
f 2 10 8
f 3 9 8
f 3 8 15
f 3 15 24
f 3 24 41
f 3 41 50
f 3 50 61
f 3 61 72
f 3 72 90
f 3 90 89
f 3 89 88
f 3 88 101
f 3 101 111
f 3 111 119
f 3 119 133
f 3 133 142
f 3 142 144
f 3 144 156
f 3 156 168
f 3 168 167
f 3 167 177
f 3 177 176
f 3 176 175
f 3 175 174
f 3 174 157
f 3 157 147
f 3 147 146
f 3 146 145
f 3 145 134
f 3 134 123
f 3 123 122
f 3 122 121
f 3 121 120
f 3 120 112
f 3 112 103
f 3 103 102
f 3 102 91
f 3 91 75
f 3 75 74
f 3 74 77
f 3 77 73
f 3 73 62
f 3 62 55
f 3 55 54
f 3 54 53
f 3 53 52
f 3 52 51
f 3 51 43
f 3 43 42
f 3 42 27
f 3 27 17
f 3 17 12
f 3 12 6
f 3 6 5
f 3 5 4
f 6 11 7
f 6 12 18
f 6 18 16
f 6 16 11
f 7 11 16
f 7 16 13
f 8 10 14
f 8 14 15
f 12 17 18
f 13 16 19
f 13 19 20
f 13 20 21
f 13 21 22
f 14 23 24
f 14 24 15
f 16 18 25
f 16 25 26
f 16 26 21
f 16 21 20
f 16 20 19
f 17 27 26
f 17 26 25
f 17 25 18
f 21 26 28
f 21 28 29
f 21 29 30
f 21 30 31
f 21 31 32
f 21 32 33
f 21 33 34
f 21 34 35
f 21 35 36
f 21 36 22
f 22 36 37
f 22 37 38
f 23 39 24
f 24 39 40
f 24 40 41
f 26 27 42
f 26 42 43
f 26 43 44
f 26 44 28
f 28 44 45
f 28 45 29
f 29 45 46
f 29 46 30
f 30 46 31
f 31 46 32
f 32 46 33
f 33 46 34
f 34 46 47
f 34 47 48
f 34 48 35
f 35 38 37
f 35 37 36
f 40 49 50
f 40 50 41
f 43 51 44
f 44 51 52
f 44 52 53
f 44 53 45
f 45 53 54
f 45 54 55
f 45 55 56
f 45 56 46
f 46 56 57
f 46 57 58
f 46 58 69
f 46 69 59
f 46 59 47
f 49 60 50
f 50 60 61
f 55 62 63
f 55 63 64
f 55 64 65
f 55 65 66
f 55 66 56
f 56 66 57
f 57 66 58
f 58 66 67
f 58 67 68
f 58 68 69
f 60 70 61
f 61 70 71
f 61 71 72
f 62 73 63
f 63 74 75
f 63 75 76
f 63 76 64
f 63 73 77
f 63 77 74
f 64 67 65
f 64 76 78
f 64 78 79
f 64 79 80
f 64 80 67
f 65 67 66
f 67 80 68
f 68 80 79
f 68 79 81
f 68 81 82
f 68 82 83
f 68 83 84
f 68 84 85
f 68 85 86
f 68 86 69
f 71 87 88
f 71 88 89
f 71 89 90
f 71 90 72
f 75 91 92
f 75 92 93
f 75 93 76
f 76 93 78
f 78 93 94
f 78 94 79
f 79 94 95
f 79 95 96
f 79 96 81
f 81 96 82
f 82 96 83
f 83 96 97
f 83 97 84
f 84 97 85
f 85 97 98
f 85 98 86
f 87 99 88
f 88 99 100
f 88 100 101
f 91 102 92
f 92 102 103
f 92 103 93
f 93 103 104
f 93 104 105
f 93 105 94
f 94 105 106
f 94 106 95
f 95 106 107
f 95 107 96
f 96 107 108
f 96 108 109
f 96 109 97
f 100 110 101
f 101 110 111
f 103 112 113
f 103 113 114
f 103 114 104
f 104 114 105
f 105 114 115
f 105 115 116
f 105 116 106
f 106 116 107
f 107 117 108
f 107 116 117
f 110 118 111
f 111 118 119
f 112 120 113
f 113 120 121
f 113 121 122
f 113 122 123
f 113 123 124
f 113 124 114
f 114 124 125
f 114 125 126
f 114 126 115
f 115 126 127
f 115 127 116
f 116 127 128
f 116 128 129
f 116 129 130
f 116 130 131
f 116 131 117
f 118 132 133
f 118 133 119
f 123 134 135
f 123 135 124
f 124 135 136
f 124 136 125
f 125 136 137
f 125 137 126
f 126 137 138
f 126 138 127
f 127 138 139
f 127 139 140
f 127 140 128
f 128 140 129
f 129 140 141
f 129 141 130
f 130 141 140
f 130 140 131
f 132 142 133
f 132 143 144
f 132 144 142
f 134 145 135
f 135 145 146
f 135 146 147
f 135 147 136
f 136 147 148
f 136 148 149
f 136 149 137
f 137 149 150
f 137 150 138
f 138 150 151
f 138 151 152
f 138 152 139
f 139 152 140
f 143 153 144
f 144 153 154
f 144 154 155
f 144 155 156
f 147 157 158
f 147 158 159
f 147 159 148
f 148 160 149
f 148 159 161
f 148 161 162
f 148 162 160
f 149 160 150
f 150 160 162
f 150 162 163
f 150 163 151
f 151 163 164
f 151 164 165
f 151 165 152
f 152 165 166
f 155 167 168
f 155 168 156
f 155 169 170
f 155 170 171
f 155 171 172
f 155 172 173
f 155 173 167
f 157 174 158
f 158 174 175
f 158 175 159
f 159 175 176
f 159 176 173
f 159 173 172
f 159 172 161
f 161 164 163
f 161 163 162
f 161 172 164
f 164 172 171
f 164 171 170
f 164 170 169
f 164 169 165
f 165 169 166
f 167 173 177
f 173 176 177

