# https://github.com/mikedh/trimesh
v 0.18499562 -0.08325151 -0.18465956
v 0.19498454 -0.08325151 -0.18465956
v 0.17476939 -0.08325151 -0.18454818
v 0.18499562 -0.07622413 -0.18814932
v 0.19498454 -0.07625137 -0.18814932
v 0.20265421 -0.08325151 -0.18391706
v 0.20227666 -0.07080379 -0.19037682
v 0.12052076 -0.08322427 -0.18362005
v 0.17476939 -0.07606070 -0.18807507
v 0.17476939 -0.08325151 0.10499014
v 0.17500672 -0.07104893 -0.19048819
v 0.18499562 -0.07115789 -0.19056244
v 0.19498454 -0.07123959 -0.19059956
v 0.20542651 -0.08325151 -0.18362005
v 0.19498454 -0.06494764 -0.19349532
v 0.20535100 -0.06573754 -0.19219595
v 0.22498363 -0.06173357 -0.19078520
v 0.22980550 -0.06086196 -0.19037682
v 0.22980550 -0.06557411 -0.18811218
v 0.22980550 -0.08325151 -0.17938781
v 0.12052076 -0.07954715 -0.18540207
v 0.12052076 -0.08322427 0.14215232
v 0.11960384 -0.06061681 0.15651971
v 0.20473613 -0.08325151 0.10706914
v 0.12052076 -0.07058589 -0.18967144
v 0.12052076 -0.06543792 -0.19204745
v 0.13501871 -0.06497488 -0.19253007
v 0.16500701 -0.06497488 -0.19308695
v 0.18499562 -0.06494764 -0.19342107
v 0.20499502 -0.05492409 -0.19579707
v 0.19498454 -0.05492409 -0.19665095
v 0.21498394 -0.06355851 -0.19160195
v 0.22980550 -0.05909149 -0.19082232
v 0.22980550 -0.08325151 0.10718051
v 0.20753001 -0.08325151 0.10714339
v 0.12052076 -0.08248885 0.14360020
v 0.12054233 -0.07881173 0.14861208
v 0.12054233 -0.07606070 0.15102521
v 0.12054233 -0.07379995 0.15232459
v 0.12054233 -0.06914228 0.15458921
v 0.12054233 -0.06492040 0.15570296
v 0.12842774 -0.05247269 0.16071485
v 0.12783444 -0.04495503 0.16123460
v 0.14172831 -0.01496611 0.16936499
v 0.14116737 -0.00496980 0.16940211
v 0.14084376 0.00502651 0.16940211
v 0.14090849 0.01499557 0.16917937
v 0.12049918 -0.04767881 0.15651971
v 0.12052076 0.11054610 0.13023518
v 0.12052076 0.11520378 0.12730229
v 0.12052076 0.12223116 0.12210479
v 0.12052076 0.13530535 0.10981639
v 0.12052076 0.14282301 0.10268839
v 0.12052076 0.14778030 0.09789925
v 0.12052076 0.15287378 0.09292449
v 0.12052076 0.15562481 0.08958324
v 0.12052076 0.15788555 0.08683598
v 0.12052076 0.16101792 0.08182410
v 0.12052076 0.17142279 0.06263044
v 0.12052076 0.17741513 0.05145580
v 0.12052076 0.17910388 0.04830018
v 0.12052076 0.18171872 0.04328829
v 0.12052076 0.18479660 0.03493515
v 0.12052076 0.18697563 0.02494851
v 0.12052076 0.19198741 -0.00504853
v 0.12052076 0.19359444 -0.01503517
v 0.12052076 0.19353996 -0.02505894
v 0.12052076 0.19190569 -0.03493420
v 0.12052076 0.18760210 -0.06047624
v 0.12052076 0.18683945 -0.06496838
v 0.12052076 0.18457870 -0.07495502
v 0.12052076 0.18152805 -0.08289978
v 0.12052076 0.17885874 -0.08791166
v 0.12052076 0.17678866 -0.09177267
v 0.12052076 0.16071829 -0.12139846
v 0.12052076 0.15753147 -0.12641034
v 0.12052076 0.15254694 -0.13242459
v 0.12052076 0.14729002 -0.13743648
v 0.12052076 0.12165917 -0.16156778
v 0.12052076 0.11833614 -0.16431503
v 0.12052076 0.11558512 -0.16654253
v 0.12052076 0.11057334 -0.17036641
v 0.12052076 0.10493509 -0.17315079
v 0.12052076 0.06987993 -0.18993132
v 0.12052076 0.06544016 -0.19197319
v 0.12052076 0.05939334 -0.19397795
v 0.12052076 0.05506252 -0.19538870
v 0.12052076 0.04501173 -0.19702220
v 0.12052076 0.01831860 -0.20099458
v 0.12052076 0.00505374 -0.20296220
v 0.12052076 -0.00499704 -0.20296220
v 0.12052076 -0.01496611 -0.20151433
v 0.12052076 -0.02763173 -0.19962096
v 0.12052076 -0.04495503 -0.19702220
v 0.12052076 -0.05497857 -0.19538870
v 0.12052076 -0.06048062 -0.19364382
v 0.12052076 -0.08085456 0.14601332
v 0.12501900 -0.06497488 -0.19230732
v 0.18499562 -0.05492409 -0.19653958
v 0.22980550 -0.05489686 -0.19156481
v 0.20118716 -0.03133608 -0.20017783
v 0.20499502 -0.04495503 -0.19739345
v 0.19498454 -0.04495503 -0.19824733
v 0.22980550 -0.05476067 0.12715380
v 0.15089740 -0.05064775 0.16049209
v 0.13317409 -0.07186607 0.15150784
v 0.12501900 -0.07843040 0.14801808
v 0.12054233 -0.08088180 0.14601332
v 0.12054233 -0.08060943 0.14638458
v 0.12501900 -0.07341863 0.15236171
v 0.12511608 -0.06492040 0.15651971
v 0.12510529 -0.06492040 0.15651971
v 0.13501871 -0.05350772 0.16142023
v 0.13501871 -0.04495503 0.16387048
v 0.14484580 -0.02586126 0.16940211
v 0.14672276 -0.01496611 0.17099848
v 0.14617263 -0.00496980 0.17151824
v 0.14584900 0.00502651 0.17196374
v 0.14589216 0.01499557 0.17229787
v 0.14749944 0.02499188 0.17151824
v 0.13501871 0.11215314 0.13105193
v 0.16119914 0.11967080 0.12978968
v 0.14500761 0.11814548 0.12871304
v 0.13501871 0.11711043 0.12808192
v 0.12501900 0.11604816 0.12741368
v 0.14929011 0.03109317 0.17040449
v 0.15467291 0.05541661 0.16242260
v 0.15777960 0.06168132 0.16082622
v 0.16974257 0.07012507 0.16004659
v 0.17500672 0.08349888 0.15288146
v 0.12501900 0.12258525 0.12240179
v 0.16785482 0.12024280 0.13023518
v 0.14500761 0.12895891 0.11902341
v 0.12501900 0.14807992 0.09819625
v 0.13501871 0.13854666 0.10862839
v 0.12501900 0.15314618 0.09318437
v 0.15170644 0.14976868 0.09975550
v 0.17476939 0.15115780 0.10112913
v 0.13501871 0.15859374 0.08783836
v 0.14500761 0.15905678 0.08850661
v 0.16216999 0.15979221 0.08965749
v 0.16883646 0.16006459 0.09006587
v 0.16529827 0.16213468 0.08575936
v 0.14500761 0.16959786 0.06923871
v 0.12501900 0.17586258 0.05494556
v 0.12501900 0.17926732 0.04856005
v 0.17476939 0.18073815 0.05164143
v 0.12501900 0.18185490 0.04354817
v 0.17500672 0.18395223 0.04495892
v 0.12501900 0.18501450 0.03493515
v 0.14500761 0.18591335 0.03493515
v 0.17500672 0.18713906 0.03497228
v 0.12501900 0.18713906 0.02494851
v 0.14500761 0.19277731 -0.00504853
v 0.14500761 0.18931809 0.01596425
v 0.17476939 0.18880057 0.02494851
v 0.12501900 0.19370340 -0.01503517
v 0.17476939 0.19364892 -0.00482578
v 0.18499562 0.19394854 -0.00504853
v 0.12501900 0.19362168 -0.02505894
v 0.17475861 0.19479291 -0.01503517
v 0.18499562 0.19501081 -0.01499805
v 0.17476939 0.18765658 -0.06496838
v 0.17476939 0.18509622 -0.07499214
v 0.18499562 0.18517794 -0.07499214
v 0.18499562 0.18169148 -0.08315966
v 0.18499562 0.17904940 -0.08817153
v 0.18499562 0.16488570 -0.11497582
v 0.18499562 0.16109964 -0.12195534
v 0.17476939 0.15785833 -0.12678160
v 0.18499562 0.15279207 -0.13268447
v 0.18499562 0.12718846 -0.15729839
v 0.18499562 0.15780385 -0.12693009
v 0.18499562 0.12220392 -0.16205040
v 0.17500672 0.12209497 -0.16201328
v 0.18499562 0.11623883 -0.16709940
v 0.12501900 0.11563959 -0.16657965
v 0.17476939 0.11111810 -0.17066342
v 0.18499562 0.10498957 -0.17393042
v 0.18499562 0.07110564 -0.19052532
v 0.18499562 0.06497711 -0.19338395
v 0.17476939 0.06497711 -0.19319832
v 0.12484640 0.06595767 -0.19182469
v 0.13501871 0.06497711 -0.19245583
v 0.18499562 0.05506252 -0.19650245
v 0.17476939 0.04506621 -0.19795033
v 0.18499562 0.02504636 -0.20118020
v 0.17476939 0.01529519 -0.20247959
v 0.16500701 0.00505374 -0.20381609
v 0.17475861 -0.00499704 -0.20400171
v 0.17475861 -0.01496611 -0.20255384
v 0.13501871 -0.02858505 -0.19976945
v 0.12501900 -0.04495503 -0.19713357
v 0.17475861 -0.04476436 -0.19802459
v 0.18499562 -0.04495503 -0.19813596
v 0.20470378 -0.02452661 -0.20062333
v 0.20499502 -0.01496611 -0.20203409
v 0.22420695 -0.01423068 -0.19876708
v 0.22980550 -0.00791150 -0.19872996
v 0.19498454 -0.03190808 -0.20028920
v 0.19498454 -0.00496980 -0.20437296
v 0.20499502 -0.00496980 -0.20351909
v 0.22980550 -0.05233650 0.12875018
v 0.15453267 -0.04481884 0.16245973
v 0.14500761 -0.04495503 0.16487285
v 0.14500761 -0.05214583 0.16123460
v 0.22980550 -0.05015747 0.13008668
v 0.13501871 -0.05851950 0.15926696
v 0.14500761 -0.03498596 0.16817698
v 0.14806038 -0.02311024 0.17047873
v 0.15501809 0.00502651 0.17404275
v 0.15501809 0.01499557 0.17489661
v 0.15501809 0.02499188 0.17348586
v 0.15501809 0.03291811 0.17096137
v 0.15501809 0.03790265 0.16917937
v 0.15501809 0.04501173 0.16658060
v 0.17069185 0.07012507 0.16004659
v 0.22980550 0.07472827 0.15819034
v 0.17441341 0.07407457 0.15815322
v 0.17788689 0.07737035 0.15651971
v 0.18496326 0.08401640 0.15317847
v 0.17500672 0.12073307 0.13071780
v 0.17476939 0.14592813 0.10625239
v 0.17500672 0.13089281 0.12087967
v 0.17475861 0.15603338 0.09556037
v 0.18499562 0.15145743 0.10138901
v 0.18499562 0.15646920 0.09567175
v 0.17476939 0.16017354 0.09051137
v 0.17476939 0.16308799 0.08516536
v 0.15885833 0.17006090 0.07009258
v 0.17476939 0.16793635 0.07603259
v 0.17476939 0.17049670 0.07116921
v 0.18499562 0.18101053 0.05190130
v 0.15500732 0.18286271 0.04492179
v 0.18499562 0.18427908 0.04495892
v 0.18499562 0.18735696 0.03497228
v 0.14500761 0.18782000 0.02494851
v 0.18499562 0.18901847 0.02494851
v 0.17476939 0.19479291 -0.01499805
v 0.19498454 0.19389406 -0.00504853
v 0.18499562 0.19438434 -0.02502181
v 0.18499562 0.19013523 -0.05078660
v 0.19498454 0.19482015 -0.01499805
v 0.19498454 0.19422092 -0.02502181
v 0.18499562 0.18773830 -0.06496838
v 0.19498454 0.18771106 -0.06496838
v 0.19498454 0.18504174 -0.07499214
v 0.19498454 0.18158253 -0.08301115
v 0.19498454 0.17529058 -0.09496542
v 0.19498454 0.16867176 -0.10751369
v 0.19498454 0.16472226 -0.11497582
v 0.19498454 0.16104516 -0.12184396
v 0.19498454 0.15268312 -0.13257310
v 0.19498454 0.12217668 -0.16205040
v 0.19498454 0.15766767 -0.12681872
v 0.19498454 0.11117257 -0.17070054
v 0.18499562 0.11117257 -0.17073767
v 0.19498454 0.11621159 -0.16706228
v 0.19498454 0.07121459 -0.19056244
v 0.19498454 0.10498957 -0.17393042
v 0.19498454 0.06497711 -0.19349532
v 0.19498454 0.05506252 -0.19665095
v 0.19498454 0.04506621 -0.19824733
v 0.19498454 0.01505005 -0.20285083
v 0.18499562 0.00505374 -0.20418733
v 0.18499562 -0.02493518 -0.20121734
v 0.17476939 -0.03583033 -0.19939820
v 0.21498394 -0.00496980 -0.20177421
v 0.22262125 -0.00496980 -0.20043771
v 0.22980550 -0.00496980 -0.19917546
v 0.19498454 0.00505374 -0.20433584
v 0.20499502 0.00505374 -0.20351909
v 0.22269675 0.00505374 -0.20043771
v 0.15501809 -0.03498596 0.16672911
v 0.22980550 -0.04547255 0.13257405
v 0.22980550 -0.03544901 0.13766019
v 0.22980550 -0.03046447 0.14018469
v 0.15211636 -0.02311024 0.17047873
v 0.15501809 -0.00496980 0.17266911
v 0.16225629 -0.00496980 0.17114699
v 0.16534141 0.00540784 0.17181525
v 0.16500701 0.01499557 0.17296612
v 0.22980550 0.06497711 0.15948972
v 0.22496206 0.08437049 0.15332696
v 0.22980550 0.07761549 0.15651971
v 0.22979471 0.08407088 0.15328984
v 0.20945013 0.09000874 0.15002283
v 0.18499562 0.12092374 0.13086630
v 0.17500672 0.15616956 0.09541187
v 0.19498454 0.15118504 0.10112913
v 0.19498454 0.15622404 0.09544900
v 0.19498454 0.16025525 0.09047424
v 0.18499562 0.16044593 0.09069699
v 0.17500672 0.16022801 0.09043711
v 0.18499562 0.16352381 0.08494261
v 0.19498454 0.18092883 0.05175281
v 0.19498454 0.18414289 0.04495892
v 0.19498454 0.18716630 0.03497228
v 0.19498454 0.18986285 0.01915700
v 0.22980550 0.19275007 -0.00504853
v 0.20499502 0.19449329 -0.01499805
v 0.19310758 0.19010799 -0.05071235
v 0.22498363 0.19370340 -0.01499805
v 0.22980550 0.19351272 -0.01499805
v 0.22980550 0.19255941 -0.02502181
v 0.22980550 0.19095236 -0.03526833
v 0.20499502 0.18986285 -0.04911597
v 0.19977404 0.18997180 -0.04989560
v 0.19585830 0.19078894 -0.04588610
v 0.20499502 0.18727525 -0.06496838
v 0.21498394 0.18678497 -0.06496838
v 0.22498363 0.18624021 -0.06496838
v 0.22980550 0.18596783 -0.06496838
v 0.20499502 0.18446974 -0.07499214
v 0.20499502 0.17463687 -0.09496542
v 0.20499502 0.16837215 -0.10691969
v 0.20499502 0.18120120 -0.08234290
v 0.20499502 0.16409580 -0.11497582
v 0.20499502 0.16071829 -0.12121283
v 0.20499502 0.15213837 -0.13205335
v 0.20499502 0.14699040 -0.13706523
v 0.20499502 0.12667093 -0.15677863
v 0.20499502 0.12165917 -0.16160490
v 0.20499502 0.15712291 -0.12622473
v 0.20282680 0.11073677 -0.17044066
v 0.20568541 0.11444113 -0.16724791
v 0.20248161 0.07080602 -0.19037682
v 0.20265421 0.09085311 -0.18042730
v 0.20546965 0.06582148 -0.19219595
v 0.20499502 0.05506252 -0.19579707
v 0.20121951 0.03139279 -0.20017783
v 0.22980550 0.00505374 -0.19917546
v 0.20499502 0.01505005 -0.20203409
v 0.21450931 0.01436910 -0.20051196
v 0.22044224 0.01058304 -0.20002933
v 0.22426090 0.01436910 -0.19880420
v 0.15878282 -0.01858874 0.16962487
v 0.15526620 -0.02586126 0.16899374
v 0.22980550 -0.02763173 0.14077869
v 0.16078924 -0.01191546 0.17040449
v 0.15526620 -0.01512954 0.17107274
v 0.21031310 0.09000874 0.15002283
v 0.22980550 0.11882643 0.12901005
v 0.21498394 0.11958908 0.12967829
v 0.19498454 0.12056965 0.13053218
v 0.22498363 0.15020448 0.10016388
v 0.22498363 0.15475321 0.09496637
v 0.20922360 0.15995565 0.08988024
v 0.19498454 0.16327867 0.08494261
v 0.22980550 0.18030235 0.05056480
v 0.22498363 0.18305337 0.04495892
v 0.20499502 0.18686669 0.03497228
v 0.22498363 0.18613125 0.03497228
v 0.22980550 0.18594059 0.03497228
v 0.22980550 0.18972667 -0.04265621
v 0.21498394 0.18844648 -0.05494461
v 0.22980550 0.18768382 -0.05494461
v 0.22980550 0.18259034 -0.07532626
v 0.22498363 0.18310785 -0.07499214
v 0.22980550 0.17918560 -0.08238003
v 0.21498394 0.16796358 -0.10614006
v 0.22980550 0.18022063 -0.08037528
v 0.21498394 0.16322419 -0.11497582
v 0.22017255 0.15998289 -0.11998771
v 0.22980550 0.15469873 -0.12496246
v 0.22980550 0.15017724 -0.13012284
v 0.22258888 0.13042977 -0.15039313
v 0.22925535 0.12985778 -0.14983626
v 0.21498394 0.12081479 -0.16075101
v 0.22980550 0.15949260 -0.11913383
v 0.22980550 0.11484969 -0.16290428
v 0.20949328 0.10981068 -0.16988379
v 0.20568541 0.10588843 -0.17244542
v 0.22143465 0.12024280 -0.16019414
v 0.22980550 0.11945289 -0.15948877
v 0.20546965 0.07448313 -0.18807507
v 0.21498394 0.07497342 -0.18625593
v 0.20913729 0.06968927 -0.18981995
v 0.22498363 0.10727756 -0.16862154
v 0.22980550 0.09940581 -0.17174004
v 0.21498394 0.06361522 -0.19160195
v 0.21498394 0.06865422 -0.18933731
v 0.22498363 0.06179028 -0.19078520
v 0.22980550 0.06091866 -0.19037682
v 0.22980550 0.05500804 -0.19160195
v 0.20499502 0.04506621 -0.19743058
v 0.20471455 0.02463779 -0.20062333
v 0.22980550 0.01472320 -0.19776471
v 0.22980550 0.03506990 -0.19472045
v 0.22980550 0.02504636 -0.19624257
v 0.22980550 0.12146850 0.12663405
v 0.22980550 0.12427400 0.12403528
v 0.22980550 0.15001380 0.09997825
v 0.22980550 0.15186599 0.09789925
v 0.22980550 0.15401778 0.09541187
v 0.22980550 0.15693223 0.09195925
v 0.22498363 0.15954708 0.08917486
v 0.22980550 0.18286271 0.04495892
v 0.22980550 0.15941089 0.08891499
v 0.22980550 0.16995195 -0.09990305
v 0.22581425 0.17240337 -0.09593067
v 0.22980550 0.14028987 -0.13970111
v 0.22980550 0.12931302 -0.15024462
v 0.22533962 0.12503666 -0.15503377
v 0.22980550 0.10605185 -0.16839878
v 0.22980550 0.08314478 -0.17975906
v 0.22980550 0.06560358 -0.18814932
v 0.22980550 0.07535475 -0.18350868
v 0.22980550 0.04506621 -0.19316119
f 1 2 6
f 1 6 14
f 1 14 20
f 1 20 34
f 1 34 35
f 1 35 24
f 1 24 10
f 1 10 3
f 1 3 4
f 1 4 5
f 1 5 2
f 2 5 7
f 2 7 6
f 3 8 9
f 3 9 4
f 3 10 22
f 3 22 8
f 4 11 12
f 4 12 13
f 4 13 5
f 4 9 11
f 5 13 7
f 6 7 14
f 7 13 15
f 7 15 16
f 7 16 17
f 7 17 18
f 7 18 19
f 7 19 20
f 7 20 14
f 8 21 9
f 8 22 23
f 8 23 21
f 9 21 11
f 10 24 22
f 11 21 25
f 11 25 26
f 11 26 27
f 11 27 28
f 11 28 29
f 11 29 12
f 12 29 13
f 13 29 15
f 15 30 16
f 15 29 31
f 15 31 30
f 16 30 32
f 16 32 17
f 17 32 30
f 17 30 18
f 18 30 33
f 18 33 100
f 18 100 199
f 18 199 270
f 18 270 332
f 18 332 388
f 18 388 390
f 18 390 389
f 18 389 409
f 18 409 385
f 18 385 384
f 18 384 407
f 18 407 408
f 18 408 406
f 18 406 380
f 18 380 405
f 18 405 371
f 18 371 375
f 18 375 403
f 18 403 402
f 18 402 366
f 18 366 365
f 18 365 370
f 18 370 400
f 18 400 360
f 18 360 362
f 18 362 358
f 18 358 313
f 18 313 357
f 18 357 355
f 18 355 306
f 18 306 305
f 18 305 304
f 18 304 300
f 18 300 354
f 18 354 398
f 18 398 350
f 18 350 399
f 18 399 396
f 18 396 395
f 18 395 394
f 18 394 393
f 18 393 392
f 18 392 391
f 18 391 343
f 18 343 285
f 18 285 218
f 18 218 283
f 18 283 339
f 18 339 277
f 18 277 276
f 18 276 275
f 18 275 207
f 18 207 203
f 18 203 104
f 18 104 34
f 18 34 20
f 18 20 19
f 21 23 25
f 22 24 35
f 22 35 34
f 22 34 36
f 22 36 23
f 23 37 38
f 23 38 39
f 23 39 40
f 23 40 41
f 23 41 42
f 23 42 43
f 23 43 44
f 23 44 45
f 23 45 46
f 23 46 47
f 23 47 48
f 23 48 49
f 23 49 50
f 23 50 51
f 23 51 52
f 23 52 53
f 23 53 54
f 23 54 55
f 23 55 56
f 23 56 57
f 23 57 58
f 23 58 59
f 23 59 60
f 23 60 61
f 23 61 62
f 23 62 63
f 23 63 64
f 23 64 65
f 23 65 66
f 23 66 67
f 23 67 68
f 23 68 69
f 23 69 70
f 23 70 71
f 23 71 72
f 23 72 73
f 23 73 74
f 23 74 75
f 23 75 76
f 23 76 77
f 23 77 78
f 23 78 79
f 23 79 80
f 23 80 81
f 23 81 82
f 23 82 83
f 23 83 84
f 23 84 85
f 23 85 86
f 23 86 87
f 23 87 88
f 23 88 89
f 23 89 90
f 23 90 91
f 23 91 92
f 23 92 93
f 23 93 94
f 23 94 95
f 23 95 96
f 23 96 26
f 23 26 25
f 23 36 97
f 23 97 37
f 26 96 98
f 26 98 27
f 27 98 96
f 27 96 95
f 27 95 28
f 28 95 99
f 28 99 29
f 29 99 31
f 30 100 33
f 30 31 101
f 30 101 102
f 30 102 100
f 31 99 195
f 31 195 103
f 31 103 101
f 34 104 105
f 34 105 106
f 34 106 107
f 34 107 108
f 34 108 36
f 36 108 97
f 37 107 38
f 37 97 109
f 37 109 107
f 38 107 110
f 38 110 39
f 39 110 111
f 39 111 40
f 40 111 112
f 40 112 113
f 40 113 42
f 40 42 41
f 42 113 114
f 42 114 115
f 42 115 44
f 42 44 43
f 44 115 116
f 44 116 117
f 44 117 118
f 44 118 119
f 44 119 45
f 45 119 46
f 46 119 47
f 47 119 120
f 47 120 49
f 47 49 48
f 49 121 122
f 49 122 123
f 49 123 124
f 49 124 125
f 49 125 50
f 49 120 126
f 49 126 127
f 49 127 128
f 49 128 129
f 49 129 130
f 49 130 121
f 50 125 51
f 51 131 52
f 51 125 124
f 51 124 123
f 51 123 122
f 51 122 132
f 51 132 131
f 52 131 133
f 52 133 53
f 53 134 54
f 53 133 135
f 53 135 134
f 54 134 55
f 55 136 56
f 55 134 137
f 55 137 138
f 55 138 136
f 56 136 57
f 57 136 139
f 57 139 58
f 58 139 140
f 58 140 141
f 58 141 142
f 58 142 59
f 59 142 143
f 59 143 144
f 59 144 145
f 59 145 60
f 60 145 61
f 61 145 144
f 61 144 146
f 61 146 62
f 62 146 147
f 62 147 148
f 62 148 149
f 62 149 63
f 63 150 64
f 63 149 150
f 64 150 151
f 64 151 152
f 64 152 153
f 64 153 65
f 65 154 66
f 65 153 155
f 65 155 156
f 65 156 154
f 66 157 67
f 66 154 158
f 66 158 159
f 66 159 157
f 67 160 68
f 67 157 161
f 67 161 162
f 67 162 160
f 68 160 163
f 68 163 69
f 69 163 70
f 70 163 71
f 71 163 164
f 71 164 72
f 72 164 165
f 72 165 166
f 72 166 167
f 72 167 168
f 72 168 73
f 73 168 74
f 74 168 75
f 75 168 169
f 75 169 76
f 76 170 77
f 76 169 170
f 77 171 172
f 77 172 78
f 77 170 173
f 77 173 171
f 78 172 174
f 78 174 175
f 78 175 79
f 79 175 176
f 79 176 80
f 80 177 81
f 80 176 177
f 81 177 82
f 82 176 178
f 82 178 179
f 82 179 83
f 82 177 176
f 83 179 180
f 83 180 84
f 84 180 181
f 84 181 182
f 84 182 183
f 84 183 85
f 85 183 184
f 85 184 86
f 86 184 87
f 87 184 182
f 87 182 181
f 87 181 185
f 87 185 88
f 88 185 186
f 88 186 187
f 88 187 188
f 88 188 89
f 89 188 189
f 89 189 90
f 90 189 91
f 91 189 190
f 91 190 191
f 91 191 92
f 92 191 192
f 92 192 193
f 92 193 93
f 93 193 94
f 94 193 95
f 95 193 99
f 97 108 109
f 99 193 194
f 99 194 195
f 100 102 101
f 100 101 196
f 100 196 197
f 100 197 198
f 100 198 199
f 101 200 201
f 101 201 202
f 101 202 197
f 101 197 196
f 101 103 200
f 103 195 200
f 104 203 105
f 105 204 205
f 105 205 206
f 105 206 106
f 105 203 207
f 105 207 204
f 106 206 110
f 106 110 107
f 107 109 108
f 110 206 208
f 110 208 111
f 111 208 113
f 111 113 112
f 113 205 209
f 113 209 114
f 113 208 205
f 114 209 115
f 115 209 210
f 115 210 116
f 116 210 211
f 116 211 212
f 116 212 117
f 117 212 118
f 118 212 119
f 119 212 120
f 120 212 213
f 120 213 126
f 121 130 122
f 122 130 132
f 126 213 214
f 126 214 215
f 126 215 216
f 126 216 127
f 127 216 128
f 128 216 129
f 129 216 215
f 129 215 214
f 129 214 213
f 129 213 217
f 129 217 218
f 129 218 219
f 129 219 130
f 130 219 220
f 130 220 221
f 130 221 222
f 130 222 132
f 131 132 222
f 131 222 133
f 133 222 135
f 134 223 137
f 134 135 222
f 134 222 224
f 134 224 223
f 136 141 140
f 136 140 139
f 136 138 225
f 136 225 141
f 137 223 138
f 138 223 226
f 138 226 227
f 138 227 225
f 141 225 142
f 142 225 228
f 142 228 229
f 142 229 143
f 143 229 144
f 144 230 146
f 144 229 230
f 146 230 231
f 146 231 232
f 146 232 147
f 147 233 149
f 147 149 234
f 147 234 148
f 147 232 233
f 148 234 149
f 149 152 151
f 149 151 150
f 149 233 235
f 149 235 152
f 152 235 236
f 152 236 156
f 152 156 155
f 152 155 237
f 152 237 153
f 153 237 155
f 154 156 158
f 156 238 159
f 156 159 158
f 156 236 238
f 157 239 161
f 157 159 239
f 159 240 162
f 159 162 239
f 159 238 240
f 160 241 242
f 160 242 163
f 160 162 241
f 161 239 162
f 162 243 244
f 162 244 241
f 162 240 243
f 163 242 245
f 163 245 165
f 163 165 164
f 165 245 246
f 165 246 247
f 165 247 166
f 166 248 249
f 166 249 167
f 166 247 248
f 167 249 250
f 167 250 168
f 168 250 251
f 168 251 252
f 168 252 169
f 169 173 170
f 169 252 173
f 171 173 253
f 171 253 254
f 171 254 172
f 172 254 174
f 173 252 255
f 173 255 253
f 174 176 175
f 174 254 176
f 176 256 257
f 176 257 178
f 176 254 258
f 176 258 256
f 178 257 179
f 179 259 180
f 179 257 260
f 179 260 259
f 180 259 261
f 180 261 181
f 181 261 262
f 181 262 185
f 182 184 183
f 185 262 186
f 186 262 263
f 186 263 187
f 187 264 188
f 187 263 264
f 188 264 265
f 188 265 189
f 189 265 190
f 190 265 201
f 190 201 191
f 191 201 266
f 191 266 267
f 191 267 193
f 191 193 192
f 193 267 194
f 194 267 200
f 194 200 195
f 197 268 269
f 197 269 270
f 197 270 198
f 197 202 268
f 198 270 199
f 200 266 201
f 200 267 266
f 201 265 271
f 201 271 272
f 201 272 202
f 202 272 273
f 202 273 268
f 204 274 205
f 204 207 275
f 204 275 276
f 204 276 277
f 204 277 274
f 205 208 206
f 205 274 209
f 209 274 278
f 209 278 210
f 210 278 211
f 211 279 280
f 211 280 281
f 211 281 282
f 211 282 212
f 211 278 279
f 212 282 283
f 212 283 218
f 212 218 213
f 213 218 217
f 218 284 219
f 218 285 286
f 218 286 284
f 219 284 220
f 220 284 221
f 221 284 287
f 221 287 288
f 221 288 222
f 222 288 226
f 222 226 224
f 223 224 226
f 225 227 289
f 225 289 228
f 226 290 291
f 226 291 227
f 226 288 290
f 227 291 292
f 227 292 293
f 227 293 228
f 227 228 289
f 228 293 294
f 228 294 229
f 229 294 293
f 229 293 295
f 229 295 231
f 229 231 230
f 231 295 233
f 231 233 232
f 233 296 297
f 233 297 235
f 233 295 296
f 235 297 236
f 236 298 299
f 236 299 240
f 236 240 238
f 236 297 298
f 240 299 300
f 240 300 301
f 240 301 243
f 241 244 302
f 241 302 242
f 242 302 246
f 242 246 245
f 243 301 244
f 244 301 303
f 244 303 304
f 244 304 305
f 244 305 306
f 244 306 307
f 244 307 308
f 244 308 309
f 244 309 302
f 246 302 309
f 246 309 308
f 246 308 310
f 246 310 247
f 247 310 311
f 247 311 312
f 247 312 313
f 247 313 314
f 247 314 248
f 248 315 316
f 248 316 249
f 248 314 317
f 248 317 315
f 249 316 250
f 250 316 251
f 251 318 252
f 251 316 318
f 252 318 319
f 252 319 255
f 253 320 321
f 253 321 322
f 253 322 254
f 253 255 320
f 254 322 323
f 254 323 258
f 255 324 320
f 255 319 324
f 256 325 260
f 256 260 257
f 256 258 325
f 258 323 326
f 258 326 325
f 259 327 261
f 259 260 327
f 260 325 328
f 260 328 327
f 261 327 329
f 261 329 330
f 261 330 262
f 262 331 263
f 262 330 331
f 263 331 264
f 264 271 265
f 264 331 271
f 268 273 269
f 269 273 270
f 270 273 332
f 271 331 272
f 272 331 333
f 272 333 334
f 272 334 335
f 272 335 273
f 273 335 336
f 273 336 332
f 274 337 338
f 274 338 278
f 274 277 337
f 277 339 340
f 277 340 337
f 278 341 279
f 278 338 337
f 278 337 340
f 278 340 341
f 279 341 340
f 279 340 280
f 280 340 283
f 280 283 281
f 281 283 282
f 283 340 339
f 284 286 288
f 284 288 342
f 284 342 287
f 285 343 286
f 286 343 344
f 286 344 345
f 286 345 288
f 287 342 288
f 288 345 346
f 288 346 290
f 290 346 291
f 291 346 347
f 291 347 348
f 291 348 292
f 292 348 349
f 292 349 293
f 293 349 295
f 295 349 296
f 296 350 297
f 296 349 350
f 297 350 351
f 297 351 352
f 297 352 298
f 298 352 299
f 299 352 300
f 300 304 303
f 300 303 301
f 300 352 353
f 300 353 354
f 306 355 311
f 306 311 356
f 306 356 307
f 307 356 310
f 307 310 308
f 310 356 311
f 311 355 357
f 311 357 312
f 312 357 313
f 313 358 359
f 313 359 314
f 314 359 317
f 315 317 360
f 315 360 361
f 315 361 316
f 316 361 318
f 317 359 358
f 317 358 362
f 317 362 360
f 318 361 363
f 318 363 319
f 319 363 364
f 319 364 324
f 320 324 365
f 320 365 366
f 320 366 321
f 321 366 322
f 322 367 323
f 322 366 367
f 323 367 368
f 323 368 369
f 323 369 326
f 324 364 370
f 324 370 365
f 325 326 371
f 325 371 372
f 325 372 373
f 325 373 328
f 326 369 374
f 326 374 375
f 326 375 371
f 327 328 376
f 327 376 377
f 327 377 378
f 327 378 329
f 328 373 372
f 328 372 379
f 328 379 380
f 328 380 376
f 329 381 330
f 329 378 382
f 329 382 383
f 329 383 381
f 330 381 383
f 330 383 384
f 330 384 385
f 330 385 386
f 330 386 331
f 331 387 333
f 331 386 387
f 332 336 388
f 333 387 334
f 334 336 335
f 334 387 389
f 334 389 390
f 334 390 336
f 336 390 388
f 343 391 344
f 344 391 345
f 345 391 392
f 345 392 393
f 345 393 346
f 346 393 394
f 346 394 347
f 347 395 396
f 347 396 397
f 347 397 348
f 347 394 395
f 348 397 350
f 348 350 349
f 350 398 351
f 350 397 399
f 351 398 354
f 351 354 353
f 351 353 352
f 360 400 401
f 360 401 361
f 361 401 400
f 361 400 363
f 363 370 364
f 363 400 370
f 366 402 367
f 367 402 368
f 368 402 403
f 368 403 375
f 368 375 404
f 368 404 369
f 369 404 374
f 371 405 379
f 371 379 372
f 374 404 375
f 376 380 377
f 377 380 406
f 377 406 382
f 377 382 378
f 379 405 380
f 382 407 384
f 382 384 383
f 382 406 408
f 382 408 407
f 385 409 386
f 386 409 389
f 386 389 387
f 396 399 397

