# https://github.com/mikedh/trimesh
v 0.40501013 -0.05494006 0.20450222
v 0.41500619 -0.05494006 0.20446631
v 0.43499833 -0.04497266 0.20441246
v 0.42501789 -0.04497266 0.20435858
v 0.39502969 -0.05494006 0.20435858
v 0.39502969 -0.06497177 0.20338903
v 0.42501789 -0.05494006 0.20371222
v 0.40501013 -0.06497177 0.20274267
v 0.44549420 -0.04474759 0.20182696
v 0.44516620 -0.03532679 0.20162946
v 0.45497483 0.00496079 0.19602761
v 0.43499833 -0.03497311 0.20335312
v 0.43487337 -0.05529374 0.20186287
v 0.44246414 -0.05217491 0.20110878
v 0.42501789 0.00496079 0.19712284
v 0.38762635 -0.04805934 0.20110878
v 0.38576770 -0.05494006 0.20211425
v 0.38626751 -0.06497177 0.20184493
v 0.42501789 0.01499250 0.19552487
v 0.38829798 -0.07114512 0.20076764
v 0.39502969 -0.07133804 0.20092922
v 0.41453764 -0.06555052 0.20170128
v 0.42501789 -0.06249599 0.20127037
v 0.40501013 -0.07056637 0.20042650
v 0.44914901 -0.04793073 0.19943899
v 0.45030481 -0.04127508 0.20024696
v 0.45030481 -0.03889576 0.20024696
v 0.46328408 0.00496079 0.19232893
v 0.46228448 0.01499250 0.19162869
v 0.45497483 0.01499250 0.19444758
v 0.44497877 0.00496079 0.19739217
v 0.43499833 0.00496079 0.19741011
v 0.43149972 -0.06069543 0.20046240
v 0.43813771 -0.05883056 0.19918764
v 0.44549420 -0.05529374 0.19730237
v 0.43499833 0.01499250 0.19586600
v 0.34547108 -0.02661336 0.18085586
v 0.41500619 0.01499250 0.19313689
v 0.41556847 0.02415607 0.19105414
v 0.34547108 -0.03497311 0.18187928
v 0.38076967 -0.05494006 0.19958264
v 0.38126948 -0.06497177 0.19924149
v 0.42501789 0.02495990 0.19284961
v 0.41930139 0.03045804 0.19026414
v 0.37733352 -0.07275277 0.19234687
v 0.38469002 -0.07529285 0.19505805
v 0.38775131 -0.08069453 0.19109005
v 0.39502969 -0.07632174 0.19599169
v 0.41091406 -0.07011623 0.20010331
v 0.41758332 -0.06928025 0.19951081
v 0.45011738 -0.06011668 0.19017436
v 0.45174176 -0.05494006 0.19222119
v 0.50008208 -0.01015107 0.16013610
v 0.50126910 -0.00497445 0.16168022
v 0.49675527 -0.00497445 0.16668957
v 0.49175724 -0.00497445 0.17130394
v 0.48035547 -0.00214500 0.18026334
v 0.46326846 -0.00497445 0.19231096
v 0.46828210 0.00496079 0.18873799
v 0.47984004 0.00910852 0.17988631
v 0.48035547 0.00248502 0.18026334
v 0.46728250 0.01499250 0.18794797
v 0.46105057 0.02245197 0.19076687
v 0.44497877 0.01499250 0.19572237
v 0.45497483 0.02425253 0.19170052
v 0.42501789 -0.06751185 0.19773330
v 0.43462348 -0.06474670 0.19500418
v 0.44497877 -0.06166002 0.19202369
v 0.43499833 0.02495990 0.19293939
v 0.34547108 0.02499205 0.16604322
v 0.34547108 -0.04420099 0.18119699
v 0.37439719 -0.06522899 0.19390893
v 0.34547108 -0.04468329 0.18110722
v 0.34875104 -0.05143540 0.18060449
v 0.42501789 0.03094034 0.19049755
v 0.34547108 0.03576327 0.16203931
v 0.34547108 0.03528098 0.16227272
v 0.34547108 0.02544219 0.16588162
v 0.42501789 0.03595619 0.18785819
v 0.42501789 0.04438025 0.18284884
v 0.41500619 0.04283691 0.18171769
v 0.34547108 0.04454101 0.15744290
v 0.34547108 0.03981454 0.15992065
v 0.38109767 -0.07940842 0.18902525
v 0.37067991 -0.06873365 0.18929458
v 0.36069947 -0.06915165 0.17907834
v 0.39502969 -0.08063023 0.19098231
v 0.34547108 -0.13229994 0.09305727
v 0.34547108 -0.13705857 0.08555220
v 0.34547108 -0.13763732 0.08456469
v 0.34547108 -0.15438898 0.05484963
v 0.41453764 -0.07313860 0.19568646
v 0.42501789 -0.07210971 0.19274189
v 0.48046482 -0.05040650 0.15083557
v 0.48213601 -0.04458683 0.15449832
v 0.48060536 -0.04098570 0.16089021
v 0.43110925 -0.07056637 0.19080278
v 0.43805963 -0.06892657 0.18498544
v 0.44497877 -0.06484316 0.18498544
v 0.49948856 -0.01892881 0.14778326
v 0.50080055 -0.01182302 0.15498310
v 0.50323707 -0.00497445 0.15498310
v 0.48935193 -0.02892837 0.15880746
v 0.49107000 -0.03185428 0.15214625
v 0.48914889 -0.03850993 0.14798076
v 0.49049211 -0.04095355 0.14131956
v 0.50337768 0.00496079 0.15498310
v 0.50134718 0.00496079 0.16180590
v 0.49681774 0.00496079 0.16679731
v 0.49181971 0.00496079 0.17135781
v 0.47591972 0.00544308 0.18315406
v 0.49071077 0.01129491 0.17060371
v 0.47885606 0.01499250 0.17900652
v 0.47385803 0.01499250 0.18295656
v 0.46462730 0.02544219 0.18690661
v 0.46450233 0.03428424 0.18222041
v 0.46084753 0.04045760 0.18040699
v 0.45497483 0.02923623 0.18972549
v 0.44540048 0.02589233 0.19196983
v 0.43499833 0.03081172 0.19040777
v 0.34547108 -0.05465069 0.17604399
v 0.34547108 -0.05532590 0.17566694
v 0.43499833 0.03579542 0.18782228
v 0.43499833 0.04380149 0.18281293
v 0.42501789 0.04936395 0.17950925
v 0.41500619 0.04785276 0.17857561
v 0.34547108 0.10418464 0.12210801
v 0.34547108 -0.12808791 0.09804869
v 0.34547108 -0.05622618 0.17485899
v 0.34793887 -0.06194939 0.17216578
v 0.40082428 -0.08011578 0.19021027
v 0.34547108 -0.15451759 0.05459826
v 0.40749353 -0.07950488 0.18841480
v 0.41556847 -0.07895828 0.18503931
v 0.42501789 -0.07571083 0.18498544
v 0.39643538 -0.12786284 0.04501044
v 0.39748186 -0.12850590 0.03867242
v 0.48140195 -0.05101741 0.14498232
v 0.48724338 -0.04706260 0.13498154
v 0.49144486 -0.04204675 0.13498154
v 0.43306160 -0.07162742 0.18498544
v 0.34547108 -0.15773289 0.04545931
v 0.35912195 -0.14943744 0.04705728
v 0.50022268 -0.02053646 0.14112206
v 0.49513090 -0.03497311 0.13498154
v 0.50147218 -0.01532769 0.14465913
v 0.50269043 -0.01497401 0.13498154
v 0.50418985 -0.00497445 0.14498232
v 0.50426793 0.00496079 0.14498232
v 0.50283098 0.01499250 0.13498154
v 0.50158149 0.01544264 0.14487460
v 0.50090986 0.01209874 0.15498310
v 0.50020707 0.01036248 0.16029771
v 0.48891461 0.01795056 0.16871846
v 0.47026569 0.03052235 0.18024540
v 0.47168702 0.02495990 0.18135859
v 0.46751678 0.03721015 0.17846787
v 0.47157767 0.04184017 0.17180668
v 0.46450233 0.04331920 0.17507443
v 0.46498653 0.04884950 0.16852096
v 0.45980108 0.04987839 0.16986758
v 0.45313182 0.05119666 0.17135781
v 0.44497877 0.05270785 0.17265055
v 0.43499833 0.05418688 0.17392534
v 0.43499833 0.04881735 0.17891675
v 0.45497483 0.04122926 0.18110722
v 0.45497483 0.03495945 0.18584727
v 0.44900844 0.02984714 0.18992299
v 0.44497877 0.04241892 0.18207678
v 0.42501789 0.05447626 0.17451784
v 0.34547108 0.13434406 0.09442183
v 0.34547108 0.11135474 0.11602136
v 0.34547108 0.10598520 0.12065368
v 0.39809099 -0.12885958 0.03500966
v 0.48226097 -0.05156401 0.13498154
v 0.40472901 -0.12467970 0.02107680
v 0.48697788 -0.04735198 0.12498077
v 0.49208522 -0.04236828 0.12498077
v 0.49666154 -0.03497311 0.12498077
v 0.34547108 -0.15782934 0.04501044
v 0.50067562 -0.02182257 0.13498154
v 0.49870762 -0.02680627 0.13498154
v 0.49956667 -0.02873545 0.12498077
v 0.50337768 -0.01497401 0.12498077
v 0.50114417 -0.02375175 0.12498077
v 0.50459594 -0.00497445 0.13498154
v 0.50464278 0.00496079 0.13498154
v 0.50348699 0.01499250 0.12498077
v 0.50098801 0.02521712 0.12404712
v 0.50000399 0.03000790 0.12009709
v 0.50076932 0.02209829 0.13498154
v 0.50028515 0.02068356 0.14148116
v 0.49959791 0.01910807 0.14814235
v 0.48947689 0.02913977 0.15902291
v 0.48073032 0.04119711 0.16105181
v 0.49150735 0.02248412 0.16203931
v 0.47824693 0.03711369 0.16771300
v 0.48027739 0.03042589 0.17028053
v 0.49060145 0.04116496 0.14157093
v 0.48925823 0.03868918 0.14823213
v 0.48238593 0.04470178 0.15465993
v 0.48188612 0.02495990 0.17180668
v 0.47424850 0.03383410 0.17437421
v 0.47802827 0.04785276 0.15776609
v 0.47135901 0.05077868 0.16148272
v 0.46498653 0.05225771 0.16351160
v 0.45586511 0.05402612 0.16591753
v 0.44588467 0.05810954 0.16521730
v 0.43499833 0.06283601 0.16396046
v 0.43499833 0.05917058 0.16895187
v 0.42501789 0.05945996 0.16945460
v 0.34547108 0.13569449 0.09294955
v 0.34547108 -0.16165555 0.02107680
v 0.39895004 -0.12937403 0.02500888
v 0.39929363 -0.12953480 0.02107680
v 0.40190199 -0.12721978 0.02107680
v 0.40825886 -0.12123934 0.02107680
v 0.49139801 -0.04137154 0.11675750
v 0.49950418 -0.02902482 0.11499795
v 0.40978950 -0.11963170 0.02107680
v 0.50137842 -0.02404112 0.11499795
v 0.50370568 -0.01497401 0.11499795
v 0.50484586 -0.00497445 0.12498077
v 0.50487709 0.00496079 0.12498077
v 0.50381500 0.01499250 0.11499795
v 0.49955106 0.02872179 0.12674034
v 0.50117540 0.02544219 0.11593159
v 0.50000399 0.03000790 0.11989958
v 0.49224141 0.04254753 0.12498077
v 0.49753621 0.03396271 0.12404712
v 0.49539644 0.03495945 0.13498154
v 0.49881697 0.02708199 0.13498154
v 0.48060536 0.05058576 0.15112284
v 0.49156982 0.04232246 0.13498154
v 0.47479516 0.05203264 0.15465993
v 0.34547108 0.16238140 0.04502840
v 0.34547108 0.15771922 0.05488554
v 0.34547108 0.15283199 0.06438358
v 0.43973085 0.06987750 0.14979419
v 0.43581051 0.06820555 0.15509084
v 0.44315138 0.06122837 0.16205727
v 0.34547108 0.14173923 0.08528288
v 0.34547108 0.16681850 0.02107680
v 0.49445930 -0.03593770 0.11404634
v 0.50098801 -0.02227272 0.10803151
v 0.41983244 -0.10233343 0.02107680
v 0.50159711 -0.01420234 0.10481761
v 0.50311214 -0.00497445 0.10501511
v 0.50500202 -0.00497445 0.11499795
v 0.50503325 0.00496079 0.11499795
v 0.50312775 0.00496079 0.10501511
v 0.50162834 0.01425298 0.10476375
v 0.50105047 0.02241982 0.10795970
v 0.49948856 0.02907547 0.11322042
v 0.49152297 0.04145433 0.11673955
v 0.40972704 0.11948942 0.02107680
v 0.40477586 0.12485896 0.02107680
v 0.40198007 0.12772056 0.02107680
v 0.39984030 0.12984265 0.02107680
v 0.48754016 0.04730616 0.13498154
v 0.48165184 0.05116451 0.14498232
v 0.35076588 0.16045222 0.04125790
v 0.34547108 0.16257431 0.04457953
v 0.34547108 0.14714092 0.07531801
v 0.34547108 0.14231798 0.08429537
v 0.34547108 0.16511439 0.03500966
v 0.35656047 0.15762277 0.03500966
v 0.36575997 0.15267122 0.02457797
v 0.37286654 0.14823411 0.02107680
v 0.49916059 -0.01703179 0.10137031
v 0.42059776 -0.10101517 0.02107680
v 0.42550206 -0.09246249 0.02107680
v 0.43128106 -0.08223788 0.02107680
v 0.43304598 -0.07905474 0.02107680
v 0.43529510 -0.07497132 0.02107680
v 0.50008208 -0.01037614 0.09986211
v 0.50056624 -0.00497445 0.09917983
v 0.50058186 0.00496079 0.09916188
v 0.50009769 0.01042678 0.09984416
v 0.49919182 0.01708243 0.10128053
v 0.43845010 0.06518318 0.02107680
v 0.43502957 0.07495765 0.02107680
v 0.39801291 0.13109662 0.02107680
v 0.39951229 0.12961759 0.02500888
v 0.48252648 0.05171111 0.13498154
v 0.39868450 0.12903884 0.03500966
v 0.38061351 0.14035666 0.04118609
v 0.35109386 0.16070944 0.03867242
v 0.34547108 0.16414981 0.03867242
v 0.38089463 0.14058173 0.03867242
v 0.38633001 0.13746290 0.03500966
v 0.43659145 -0.07120943 0.02107680
v 0.43849695 -0.06526114 0.02107680
v 0.48016804 -0.00130902 0.06973410
v 0.48016804 0.00126321 0.06973410
v 0.46275303 0.00496079 0.04612363
v 0.45903575 0.00496079 0.04111427
v 0.45902014 -0.00497445 0.04113222
v 0.46275303 -0.00497445 0.04614159
f 1 2 3
f 1 3 4
f 1 4 5
f 1 5 6
f 1 6 2
f 2 7 3
f 2 6 8
f 2 8 7
f 3 9 10
f 3 10 11
f 3 11 12
f 3 12 4
f 3 7 13
f 3 13 14
f 3 14 9
f 4 12 15
f 4 15 5
f 5 16 17
f 5 17 18
f 5 18 6
f 5 15 19
f 5 19 16
f 6 18 20
f 6 20 21
f 6 21 8
f 7 8 22
f 7 22 23
f 7 23 13
f 8 21 24
f 8 24 22
f 9 14 25
f 9 25 26
f 9 26 27
f 9 27 10
f 10 27 11
f 11 28 29
f 11 29 30
f 11 30 31
f 11 31 12
f 11 27 28
f 12 31 32
f 12 32 15
f 13 23 33
f 13 33 14
f 14 33 34
f 14 34 35
f 14 35 25
f 15 32 36
f 15 36 19
f 16 37 17
f 16 19 38
f 16 38 39
f 16 39 37
f 17 37 40
f 17 40 41
f 17 41 18
f 18 42 20
f 18 41 42
f 19 36 43
f 19 43 44
f 19 44 39
f 19 39 38
f 20 42 45
f 20 45 46
f 20 46 47
f 20 47 48
f 20 48 21
f 21 48 24
f 22 24 49
f 22 49 50
f 22 50 23
f 23 50 33
f 24 48 49
f 25 35 51
f 25 51 52
f 25 52 53
f 25 53 54
f 25 54 55
f 25 55 26
f 26 55 56
f 26 56 57
f 26 57 58
f 26 58 28
f 26 28 27
f 28 59 60
f 28 60 29
f 28 58 57
f 28 57 61
f 28 61 59
f 29 60 62
f 29 62 63
f 29 63 30
f 30 64 31
f 30 63 65
f 30 65 64
f 31 64 36
f 31 36 32
f 33 50 34
f 34 51 35
f 34 50 66
f 34 66 67
f 34 67 68
f 34 68 51
f 36 64 69
f 36 69 43
f 37 39 70
f 37 70 78
f 37 78 77
f 37 77 76
f 37 76 83
f 37 83 82
f 37 82 127
f 37 127 173
f 37 173 172
f 37 172 171
f 37 171 212
f 37 212 242
f 37 242 265
f 37 265 264
f 37 264 238
f 37 238 237
f 37 237 236
f 37 236 263
f 37 263 289
f 37 289 266
f 37 266 243
f 37 243 213
f 37 213 180
f 37 180 142
f 37 142 132
f 37 132 91
f 37 91 90
f 37 90 89
f 37 89 88
f 37 88 128
f 37 128 129
f 37 129 122
f 37 122 121
f 37 121 73
f 37 73 71
f 37 71 40
f 39 44 70
f 40 71 42
f 40 42 41
f 42 72 45
f 42 71 73
f 42 73 74
f 42 74 72
f 43 69 75
f 43 75 44
f 44 76 77
f 44 77 78
f 44 78 70
f 44 75 79
f 44 79 80
f 44 80 81
f 44 81 82
f 44 82 83
f 44 83 76
f 45 84 46
f 45 72 85
f 45 85 86
f 45 86 84
f 46 84 47
f 47 87 48
f 47 84 88
f 47 88 89
f 47 89 90
f 47 90 91
f 47 91 87
f 48 87 49
f 49 87 92
f 49 92 50
f 50 92 93
f 50 93 66
f 51 94 95
f 51 95 96
f 51 96 53
f 51 53 52
f 51 68 97
f 51 97 98
f 51 98 99
f 51 99 94
f 53 100 101
f 53 101 102
f 53 102 54
f 53 96 103
f 53 103 95
f 53 95 104
f 53 104 105
f 53 105 106
f 53 106 100
f 54 102 107
f 54 107 108
f 54 108 55
f 55 108 109
f 55 109 56
f 56 109 110
f 56 110 57
f 57 110 61
f 59 111 60
f 59 61 111
f 60 111 61
f 60 61 110
f 60 110 112
f 60 112 113
f 60 113 114
f 60 114 62
f 62 114 63
f 63 115 116
f 63 116 117
f 63 117 118
f 63 118 65
f 63 114 113
f 63 113 115
f 64 65 119
f 64 119 69
f 65 118 119
f 66 93 97
f 66 97 67
f 67 97 68
f 69 119 120
f 69 120 75
f 72 74 85
f 73 121 74
f 74 121 122
f 74 122 85
f 75 120 123
f 75 123 79
f 79 123 80
f 80 123 124
f 80 124 125
f 80 125 126
f 80 126 81
f 81 126 127
f 81 127 82
f 84 86 128
f 84 128 88
f 85 122 86
f 86 122 129
f 86 129 130
f 86 130 128
f 87 131 92
f 87 91 132
f 87 132 131
f 92 131 133
f 92 133 93
f 93 133 134
f 93 134 135
f 93 135 97
f 94 99 136
f 94 136 137
f 94 137 138
f 94 138 139
f 94 139 140
f 94 140 106
f 94 106 105
f 94 105 95
f 95 105 104
f 95 103 96
f 97 135 141
f 97 141 98
f 98 141 142
f 98 142 143
f 98 143 99
f 99 143 136
f 100 144 101
f 100 106 145
f 100 145 144
f 101 144 146
f 101 146 102
f 102 146 147
f 102 147 148
f 102 148 107
f 106 140 145
f 107 149 150
f 107 150 151
f 107 151 152
f 107 152 153
f 107 153 108
f 107 148 149
f 108 153 112
f 108 112 109
f 109 112 110
f 112 153 154
f 112 154 155
f 112 155 156
f 112 156 113
f 113 156 115
f 115 155 116
f 115 156 155
f 116 155 157
f 116 157 117
f 117 157 158
f 117 158 159
f 117 159 160
f 117 160 161
f 117 161 162
f 117 162 163
f 117 163 164
f 117 164 165
f 117 165 166
f 117 166 167
f 117 167 118
f 118 167 124
f 118 124 123
f 118 123 168
f 118 168 119
f 119 168 120
f 120 168 123
f 124 169 165
f 124 165 125
f 124 167 169
f 125 165 164
f 125 164 170
f 125 170 171
f 125 171 172
f 125 172 173
f 125 173 127
f 125 127 126
f 128 130 129
f 131 132 133
f 132 142 135
f 132 135 134
f 132 134 133
f 135 142 141
f 136 143 137
f 137 143 174
f 137 174 138
f 138 175 139
f 138 174 175
f 139 175 176
f 139 176 177
f 139 177 178
f 139 178 140
f 140 178 179
f 140 179 145
f 142 180 143
f 143 180 174
f 144 181 146
f 144 145 182
f 144 182 183
f 144 183 181
f 145 179 183
f 145 183 182
f 146 181 147
f 147 184 148
f 147 181 185
f 147 185 184
f 148 184 186
f 148 186 149
f 149 187 188
f 149 188 150
f 149 186 187
f 150 188 189
f 150 189 190
f 150 190 191
f 150 191 151
f 151 191 192
f 151 192 152
f 152 192 193
f 152 193 153
f 153 194 195
f 153 195 196
f 153 196 197
f 153 197 198
f 153 198 154
f 153 193 199
f 153 199 200
f 153 200 201
f 153 201 194
f 154 198 202
f 154 202 155
f 155 203 158
f 155 158 157
f 155 202 203
f 158 203 198
f 158 198 197
f 158 197 195
f 158 195 204
f 158 204 205
f 158 205 160
f 158 160 159
f 160 205 206
f 160 206 161
f 161 206 207
f 161 207 208
f 161 208 162
f 162 208 209
f 162 209 210
f 162 210 163
f 163 210 164
f 164 210 170
f 165 169 166
f 166 169 167
f 170 210 211
f 170 211 171
f 171 211 210
f 171 210 212
f 174 180 213
f 174 213 214
f 174 214 175
f 175 214 215
f 175 215 216
f 175 216 176
f 176 216 215
f 176 215 213
f 176 213 243
f 176 243 269
f 176 269 283
f 176 283 259
f 176 259 258
f 176 258 257
f 176 257 256
f 176 256 282
f 176 282 281
f 176 281 293
f 176 293 292
f 176 292 275
f 176 275 274
f 176 274 273
f 176 273 272
f 176 272 271
f 176 271 246
f 176 246 220
f 176 220 217
f 176 217 177
f 177 217 178
f 178 218 219
f 178 219 179
f 178 217 220
f 178 220 218
f 179 219 183
f 181 183 185
f 183 219 221
f 183 221 185
f 184 185 222
f 184 222 186
f 185 221 222
f 186 222 223
f 186 223 187
f 187 224 225
f 187 225 188
f 187 223 224
f 188 225 190
f 188 190 189
f 190 226 191
f 190 225 227
f 190 227 228
f 190 228 229
f 190 229 230
f 190 230 231
f 190 231 226
f 191 226 192
f 192 226 232
f 192 232 231
f 192 231 193
f 193 231 199
f 194 201 195
f 195 201 233
f 195 233 204
f 195 197 196
f 198 203 202
f 199 231 234
f 199 234 233
f 199 233 200
f 200 233 201
f 204 233 205
f 205 233 235
f 205 235 236
f 205 236 237
f 205 237 238
f 205 238 239
f 205 239 206
f 206 239 240
f 206 240 241
f 206 241 207
f 207 241 208
f 208 241 209
f 209 241 240
f 209 240 242
f 209 242 210
f 210 242 212
f 213 215 214
f 218 244 219
f 218 220 244
f 219 245 221
f 219 244 220
f 219 220 245
f 220 246 245
f 221 245 222
f 222 245 247
f 222 247 248
f 222 248 249
f 222 249 223
f 223 249 250
f 223 250 224
f 224 250 225
f 225 250 251
f 225 251 252
f 225 252 253
f 225 253 227
f 226 231 232
f 227 253 254
f 227 254 228
f 228 254 229
f 229 255 256
f 229 256 257
f 229 257 258
f 229 258 259
f 229 259 260
f 229 260 234
f 229 234 230
f 229 254 255
f 230 234 231
f 233 234 260
f 233 260 261
f 233 261 262
f 233 262 263
f 233 263 235
f 235 263 236
f 238 264 239
f 239 264 265
f 239 265 240
f 240 265 242
f 243 266 267
f 243 267 268
f 243 268 269
f 245 270 247
f 245 246 271
f 245 271 272
f 245 272 273
f 245 273 274
f 245 274 275
f 245 275 270
f 247 276 248
f 247 270 276
f 248 276 277
f 248 277 278
f 248 278 251
f 248 251 250
f 248 250 249
f 251 278 279
f 251 279 252
f 252 279 280
f 252 280 253
f 253 280 281
f 253 281 282
f 253 282 254
f 254 282 256
f 254 256 255
f 259 283 284
f 259 284 285
f 259 285 260
f 260 285 261
f 261 285 286
f 261 286 287
f 261 287 262
f 262 287 288
f 262 288 266
f 262 266 289
f 262 289 263
f 266 288 287
f 266 287 290
f 266 290 267
f 267 290 291
f 267 291 268
f 268 291 269
f 269 291 283
f 270 275 292
f 270 292 293
f 270 293 276
f 276 293 277
f 277 293 294
f 277 294 278
f 278 294 295
f 278 295 281
f 278 281 279
f 279 281 280
f 281 295 296
f 281 296 297
f 281 297 293
f 283 291 286
f 283 286 284
f 284 286 285
f 286 291 290
f 286 290 287
f 293 297 298
f 293 298 299
f 293 299 294
f 294 296 295
f 294 299 296
f 296 299 297
f 297 299 298

