# Blender 3.6.5
# www.blender.org
mtllib body.mtl
o wooden_drawer_small
v -0.000000 -0.100000 0.016249
v -0.000000 -0.100000 0.016249
v -0.000000 -0.100000 0.016249
v -0.000000 -0.100000 0.016249
v -0.000000 -0.100000 0.016249
v -0.000000 -0.100000 0.016249
v -0.011512 -0.100000 0.015116
v -0.011512 -0.100000 0.015116
v -0.011512 -0.100000 0.015116
v -0.011512 -0.100000 0.015116
v -0.022582 -0.100000 0.011758
v -0.022582 -0.100000 0.011758
v -0.022582 -0.100000 0.011758
v -0.022582 -0.100000 0.011758
v -0.032784 -0.100000 0.006304
v -0.032784 -0.100000 0.006304
v -0.032784 -0.100000 0.006304
v -0.032784 -0.100000 0.006304
v -0.041726 -0.100000 -0.001034
v -0.041726 -0.100000 -0.001034
v -0.041726 -0.100000 -0.001034
v -0.041726 -0.100000 -0.001034
v -0.041726 -0.100000 -0.001034
v 0.041726 -0.100000 -0.001034
v 0.041726 -0.100000 -0.001034
v 0.041726 -0.100000 -0.001034
v 0.041726 -0.100000 -0.001034
v 0.032784 -0.100000 0.006304
v 0.032784 -0.100000 0.006304
v 0.032784 -0.100000 0.006304
v 0.032784 -0.100000 0.006304
v 0.022582 -0.100000 0.011758
v 0.022582 -0.100000 0.011758
v 0.022582 -0.100000 0.011758
v 0.022582 -0.100000 0.011758
v 0.011512 -0.100000 0.015116
v 0.011512 -0.100000 0.015116
v 0.011512 -0.100000 0.015116
v 0.011512 -0.100000 0.015116
v -0.100142 0.000089 0.016249
v -0.100142 0.000089 0.016249
v -0.100142 0.000089 0.016249
v -0.100142 0.000089 0.016249
v -0.100142 0.000089 0.016249
v -0.100142 0.000089 0.016249
v -0.100136 -0.011423 0.015116
v -0.100136 -0.011423 0.015116
v -0.100136 -0.011423 0.015116
v -0.100136 -0.011423 0.015116
v -0.100130 -0.022493 0.011758
v -0.100130 -0.022493 0.011758
v -0.100130 -0.022493 0.011758
v -0.100130 -0.022493 0.011758
v -0.100125 -0.032695 0.006304
v -0.100125 -0.032695 0.006304
v -0.100125 -0.032695 0.006304
v -0.100125 -0.032695 0.006304
v -0.100120 -0.041637 -0.001034
v -0.100120 -0.041637 -0.001034
v -0.100120 -0.041637 -0.001034
v -0.100120 -0.041637 -0.001034
v -0.100164 0.041815 -0.001034
v -0.100164 0.041815 -0.001034
v -0.100164 0.041815 -0.001034
v -0.100164 0.041815 -0.001034
v -0.100164 0.041815 -0.001034
v -0.100160 0.032873 0.006304
v -0.100160 0.032873 0.006304
v -0.100160 0.032873 0.006304
v -0.100160 0.032873 0.006304
v -0.100154 0.022671 0.011758
v -0.100154 0.022671 0.011758
v -0.100154 0.022671 0.011758
v -0.100154 0.022671 0.011758
v -0.100148 0.011601 0.015116
v -0.100148 0.011601 0.015116
v -0.100148 0.011601 0.015116
v -0.100148 0.011601 0.015116
v 0.100142 0.000196 0.016249
v 0.100142 0.000196 0.016249
v 0.100142 0.000196 0.016249
v 0.100142 0.000196 0.016249
v 0.100142 0.000196 0.016249
v 0.100142 0.000196 0.016249
v 0.100148 -0.011317 0.015116
v 0.100148 -0.011317 0.015116
v 0.100148 -0.011317 0.015116
v 0.100148 -0.011317 0.015116
v 0.100154 -0.022387 0.011758
v 0.100154 -0.022387 0.011758
v 0.100154 -0.022387 0.011758
v 0.100154 -0.022387 0.011758
v 0.100160 -0.032589 0.006304
v 0.100160 -0.032589 0.006304
v 0.100160 -0.032589 0.006304
v 0.100160 -0.032589 0.006304
v 0.100164 -0.041531 -0.001034
v 0.100164 -0.041531 -0.001034
v 0.100164 -0.041531 -0.001034
v 0.100164 -0.041531 -0.001034
v 0.100164 -0.041531 -0.001034
v 0.100120 0.041922 -0.001034
v 0.100120 0.041922 -0.001034
v 0.100120 0.041922 -0.001034
v 0.100120 0.041922 -0.001034
v 0.100120 0.041922 -0.001034
v 0.100125 0.032980 0.006304
v 0.100125 0.032980 0.006304
v 0.100125 0.032980 0.006304
v 0.100125 0.032980 0.006304
v 0.100130 0.022778 0.011758
v 0.100130 0.022778 0.011758
v 0.100130 0.022778 0.011758
v 0.100130 0.022778 0.011758
v 0.100136 0.011708 0.015116
v 0.100136 0.011708 0.015116
v 0.100136 0.011708 0.015116
v 0.100136 0.011708 0.015116
v -0.000000 0.100285 0.016249
v -0.000000 0.100285 0.016249
v -0.000000 0.100285 0.016249
v -0.000000 0.100285 0.016249
v -0.000000 0.100285 0.016249
v -0.000000 0.100285 0.016249
v -0.011512 0.100285 0.015116
v -0.011512 0.100285 0.015116
v -0.011512 0.100285 0.015116
v -0.011512 0.100285 0.015116
v -0.022582 0.100285 0.011758
v -0.022582 0.100285 0.011758
v -0.022582 0.100285 0.011758
v -0.022582 0.100285 0.011758
v -0.032784 0.100285 0.006304
v -0.032784 0.100285 0.006304
v -0.032784 0.100285 0.006304
v -0.032784 0.100285 0.006304
v -0.041726 0.100285 -0.001034
v -0.041726 0.100285 -0.001034
v -0.041726 0.100285 -0.001034
v -0.041726 0.100285 -0.001034
v 0.041726 0.100285 -0.001034
v 0.041726 0.100285 -0.001034
v 0.041726 0.100285 -0.001034
v 0.041726 0.100285 -0.001034
v 0.032784 0.100285 0.006304
v 0.032784 0.100285 0.006304
v 0.032784 0.100285 0.006304
v 0.032784 0.100285 0.006304
v 0.022582 0.100285 0.011758
v 0.022582 0.100285 0.011758
v 0.022582 0.100285 0.011758
v 0.022582 0.100285 0.011758
v 0.011512 0.100285 0.015116
v 0.011512 0.100285 0.015116
v 0.011512 0.100285 0.015116
v 0.011512 0.100285 0.015116
v 0.100013 0.100223 0.000687
v 0.100013 0.100223 0.000687
v 0.100013 0.100223 0.000687
v 0.100013 0.100223 0.200713
v 0.100013 0.100223 0.200713
v 0.100013 -0.099804 0.000687
v 0.100013 -0.099804 0.000687
v 0.100013 -0.099804 0.000687
v 0.100013 -0.099804 0.200713
v 0.100013 -0.099804 0.200713
v -0.100013 0.100223 0.000687
v -0.100013 0.100223 0.000687
v -0.100013 0.100223 0.000687
v -0.100013 0.100223 0.200713
v -0.100013 -0.099804 0.000687
v -0.100013 -0.099804 0.000687
v -0.100013 -0.099804 0.000687
v -0.100013 -0.099804 0.200713
v 0.090384 -0.099804 0.000687
v 0.090384 -0.099804 0.000687
v 0.090384 -0.099804 0.000687
v 0.090384 -0.099804 0.000687
v 0.090384 -0.099804 0.000687
v 0.090384 -0.099804 0.200713
v 0.090384 0.100223 0.000687
v 0.090384 0.100223 0.000687
v 0.090384 0.100223 0.000687
v 0.090384 0.100223 0.000687
v 0.090384 0.100223 0.000687
v 0.090384 0.100223 0.200713
v -0.090050 -0.099804 0.200713
v -0.090050 0.100223 0.000687
v -0.090050 0.100223 0.000687
v -0.090050 0.100223 0.000687
v -0.090050 0.100223 0.000687
v -0.090050 0.100223 0.000687
v -0.090050 -0.099804 0.000687
v -0.090050 -0.099804 0.000687
v -0.090050 -0.099804 0.000687
v -0.090050 -0.099804 0.000687
v 0.100013 0.100223 0.020041
v 0.100013 0.100223 0.020041
v 0.100013 -0.099804 0.020041
v 0.100013 -0.099804 0.020041
v -0.100013 -0.099804 0.020041
v -0.100013 -0.099804 0.020041
v -0.100013 0.100223 0.020041
v -0.100013 0.100223 0.020041
v 0.090384 0.100223 0.020041
v 0.090384 0.100223 0.020041
v 0.090384 0.100223 0.020041
v 0.090384 0.100223 0.020041
v 0.090384 0.100223 0.020041
v 0.090384 0.100223 0.020041
v 0.090384 0.100223 0.020041
v 0.090384 0.100223 0.020041
v 0.090384 -0.099804 0.020041
v 0.090384 -0.099804 0.020041
v 0.090384 -0.099804 0.020041
v 0.090384 -0.099804 0.020041
v 0.090384 -0.099804 0.020041
v 0.090384 -0.099804 0.020041
v 0.090384 -0.099804 0.020041
v -0.090050 0.100223 0.020041
v -0.090050 0.100223 0.020041
v -0.090050 0.100223 0.020041
v -0.090050 0.100223 0.020041
v -0.090050 0.100223 0.020041
v -0.090050 0.100223 0.020041
v -0.090050 0.100223 0.020041
v -0.090050 0.100223 0.020041
v -0.090050 -0.099804 0.020041
v -0.090050 -0.099804 0.020041
v -0.090050 -0.099804 0.020041
v -0.090050 -0.099804 0.020041
v -0.090050 -0.099804 0.020041
v -0.090050 -0.099804 0.020041
v -0.090050 -0.099804 0.020041
v 0.100013 0.100223 0.110377
v 0.100013 0.100223 0.110377
v 0.100013 -0.099804 0.110377
v 0.100013 -0.099804 0.110377
v -0.100013 -0.099804 0.110377
v -0.100013 -0.099804 0.110377
v -0.100013 0.100223 0.110377
v -0.100013 0.100223 0.110377
v 0.090384 0.100223 0.110377
v 0.090384 -0.099804 0.110377
v -0.090050 0.100223 0.110377
v -0.090050 -0.099804 0.110377
v 0.100013 -0.099804 0.100676
v 0.100013 -0.099804 0.100676
v -0.100013 -0.099804 0.100676
v -0.100013 -0.099804 0.100676
v -0.100013 0.100223 0.100676
v -0.100013 0.100223 0.100676
v 0.090384 0.100223 0.100676
v 0.090384 -0.099804 0.100676
v -0.090050 0.100223 0.100676
v -0.090050 -0.099804 0.100676
v 0.100013 0.100223 0.100676
v 0.100013 0.100223 0.100676
v 0.100013 0.100223 0.189868
v 0.100013 0.100223 0.189868
v 0.100013 0.100223 0.189868
v 0.100013 -0.099804 0.189868
v 0.100013 -0.099804 0.189868
v 0.100013 -0.099804 0.189868
v -0.100013 -0.099804 0.189868
v -0.100013 -0.099804 0.189868
v -0.100013 -0.099804 0.189868
v -0.100013 0.100223 0.189868
v -0.100013 0.100223 0.189868
v -0.100013 0.100223 0.189868
v 0.090384 0.100223 0.189868
v 0.090384 0.100223 0.189868
v 0.090384 -0.099804 0.189868
v 0.090384 -0.099804 0.189868
v -0.090050 0.100223 0.189868
v -0.090050 0.100223 0.189868
v -0.090050 -0.099804 0.189868
v -0.090050 -0.099804 0.189868
v 0.000167 -0.099804 0.200713
v 0.000167 -0.099804 0.020041
v 0.000167 -0.099804 0.020041
v 0.000167 0.100223 0.020041
v 0.000167 0.100223 0.020041
v 0.000167 -0.099804 0.110377
v 0.000167 0.100223 0.110377
v 0.000167 0.100223 0.100676
v 0.000167 -0.099804 0.100676
v 0.000167 -0.099804 0.189868
v 0.000167 -0.099804 0.189868
v 0.000167 0.100223 0.189868
v 0.000167 0.100223 0.189868
v 0.100013 0.090022 0.000687
v 0.100013 0.090022 0.000687
v 0.100013 0.090022 0.000687
v 0.100013 0.090022 0.000687
v 0.100013 0.090022 0.200713
v 0.100013 0.090022 0.200713
v -0.100013 0.090022 0.000687
v -0.100013 0.090022 0.000687
v -0.100013 0.090022 0.000687
v -0.100013 0.090022 0.000687
v -0.100013 0.090022 0.200713
v 0.090384 0.090022 0.200713
v -0.090050 0.090022 0.200713
v 0.100013 0.090022 0.020041
v 0.100013 0.090022 0.020041
v 0.100013 0.090022 0.020041
v 0.100013 0.090022 0.020041
v 0.100013 0.090022 0.020041
v 0.100013 0.090022 0.020041
v 0.100013 0.090022 0.020041
v 0.100013 0.090022 0.110377
v 0.100013 0.090022 0.100676
v 0.100013 0.090022 0.189868
v 0.000167 0.090022 0.200713
v 0.100013 -0.090127 0.200713
v 0.100013 -0.090127 0.200713
v -0.100013 -0.090127 0.000687
v -0.100013 -0.090127 0.000687
v -0.100013 -0.090127 0.000687
v -0.100013 -0.090127 0.000687
v -0.100013 -0.090127 0.000687
v 0.100013 -0.090127 0.020041
v 0.100013 -0.090127 0.020041
v 0.100013 -0.090127 0.020041
v 0.100013 -0.090127 0.020041
v 0.100013 -0.090127 0.020041
v 0.100013 -0.090127 0.020041
v 0.100013 -0.090127 0.020041
v 0.100013 -0.090127 0.110377
v 0.100013 -0.090127 0.100676
v 0.100013 -0.090127 0.189868
v 0.100013 -0.090127 0.000687
v 0.100013 -0.090127 0.000687
v 0.100013 -0.090127 0.000687
v 0.100013 -0.090127 0.000687
v -0.100013 -0.090127 0.200713
v 0.090384 -0.090127 0.200713
v -0.090050 -0.090127 0.200713
v 0.000167 -0.090127 0.200713
v -0.100013 0.090022 0.189868
v -0.100013 0.090022 0.189868
v -0.100013 0.090022 0.110377
v -0.100013 0.090022 0.100676
v -0.100013 0.090022 0.020041
v -0.100013 0.090022 0.020041
v -0.100013 0.090022 0.020041
v -0.100013 0.090022 0.020041
v -0.100013 0.090022 0.020041
v -0.100013 0.090022 0.020041
v -0.100013 0.090022 0.020041
v -0.100013 -0.090127 0.100676
v -0.100013 -0.090127 0.020041
v -0.100013 -0.090127 0.020041
v -0.100013 -0.090127 0.020041
v -0.100013 -0.090127 0.020041
v -0.100013 -0.090127 0.020041
v -0.100013 -0.090127 0.020041
v -0.100013 -0.090127 0.020041
v -0.100013 -0.090127 0.189868
v -0.100013 -0.090127 0.189868
v -0.100013 -0.090127 0.110377
v 0.079987 0.079982 0.179829
v 0.079987 0.079982 0.179829
v 0.079987 0.079982 0.179829
v 0.079987 0.079982 0.120417
v 0.079987 0.079982 0.120417
v 0.079987 0.079982 0.120417
v 0.079987 0.079982 0.090636
v 0.079987 0.079982 0.090636
v 0.079987 0.079982 0.090636
v 0.079987 0.079982 0.030080
v 0.079987 0.079982 0.030080
v 0.079987 0.079982 0.030080
v 0.079987 -0.080087 0.090636
v 0.079987 -0.080087 0.090636
v 0.079987 -0.080087 0.090636
v 0.079987 -0.080087 0.030080
v 0.079987 -0.080087 0.030080
v 0.079987 -0.080087 0.030080
v 0.079987 -0.080087 0.179829
v 0.079987 -0.080087 0.179829
v 0.079987 -0.080087 0.179829
v 0.079987 -0.080087 0.120417
v 0.079987 -0.080087 0.120417
v 0.079987 -0.080087 0.120417
v 0.100013 0.110223 0.189868
v 0.100013 0.110223 0.189868
v 0.100013 0.110223 0.189868
v 0.100013 0.110223 0.200713
v 0.100013 0.110223 0.200713
v 0.100013 0.110223 0.200713
v 0.090384 0.110223 0.200713
v 0.090384 0.110223 0.200713
v 0.090384 0.110223 0.200713
v 0.000167 0.110223 0.200713
v 0.000167 0.110223 0.200713
v -0.100013 0.110223 0.200713
v -0.100013 0.110223 0.200713
v -0.100013 0.110223 0.200713
v -0.090050 0.110223 0.200713
v -0.090050 0.110223 0.200713
v -0.100013 0.110223 0.189868
v -0.100013 0.110223 0.189868
v -0.100013 0.110223 0.189868
v 0.090384 0.110223 0.189868
v 0.090384 0.110223 0.189868
v -0.090050 0.110223 0.189868
v -0.090050 0.110223 0.189868
v 0.000167 0.110223 0.189868
v 0.000167 0.110223 0.189868
v -0.090050 -0.109804 0.200713
v -0.090050 -0.109804 0.200713
v -0.100013 -0.109804 0.200713
v -0.100013 -0.109804 0.200713
v 0.100013 -0.109804 0.200713
v 0.100013 -0.109804 0.200713
v 0.100013 -0.109804 0.200713
v 0.090384 -0.109804 0.200713
v 0.090384 -0.109804 0.200713
v 0.000167 -0.109804 0.200713
v 0.000167 -0.109804 0.200713
v 0.100013 -0.109804 0.189868
v 0.100013 -0.109804 0.189868
v 0.100013 -0.109804 0.189868
v -0.100013 -0.109804 0.189868
v -0.100013 -0.109804 0.189868
v 0.090384 -0.109804 0.189868
v 0.090384 -0.109804 0.189868
v -0.090050 -0.109804 0.189868
v -0.090050 -0.109804 0.189868
v 0.000167 -0.109804 0.189868
v 0.000167 -0.109804 0.189868
v 0.090384 0.100223 0.200713
v 0.000167 0.100223 0.200713
v -0.090050 0.100223 0.200713
v -0.110013 0.090022 0.200713
v -0.110013 0.090022 0.200713
v -0.110013 0.090022 0.200713
v -0.110013 0.100223 0.200713
v -0.110013 0.100223 0.200713
v -0.110013 -0.099804 0.200713
v -0.110013 -0.099804 0.200713
v -0.110013 -0.099804 0.189868
v -0.110013 -0.099804 0.189868
v -0.110013 0.100223 0.189868
v -0.110013 0.100223 0.189868
v -0.110013 0.110223 0.200713
v -0.110013 0.110223 0.200713
v -0.110013 0.110223 0.200713
v -0.110013 0.090022 0.189868
v -0.110013 0.090022 0.189868
v -0.110013 0.110223 0.189868
v -0.110013 0.110223 0.189868
v -0.110013 0.110223 0.189868
v -0.110013 -0.090127 0.200713
v -0.110013 -0.090127 0.200713
v -0.110013 -0.090127 0.189868
v -0.110013 -0.090127 0.189868
v -0.110013 -0.109804 0.200713
v -0.110013 -0.109804 0.200713
v -0.110013 -0.109804 0.200713
v -0.110013 -0.109804 0.189868
v -0.110013 -0.109804 0.189868
v -0.110013 -0.109804 0.189868
v -0.100013 0.079982 0.179829
v -0.100013 0.079982 0.179829
v -0.100013 0.079982 0.179829
v -0.100013 0.079982 0.120417
v -0.100013 0.079982 0.120417
v -0.100013 0.079982 0.120417
v -0.100013 0.079982 0.090636
v -0.100013 0.079982 0.090636
v -0.100013 0.079982 0.090636
v -0.100013 0.079982 0.030080
v -0.100013 0.079982 0.030080
v -0.100013 0.079982 0.030080
v -0.100013 -0.080087 0.090636
v -0.100013 -0.080087 0.090636
v -0.100013 -0.080087 0.090636
v -0.100013 -0.080087 0.030080
v -0.100013 -0.080087 0.030080
v -0.100013 -0.080087 0.030080
v -0.100013 -0.080087 0.179829
v -0.100013 -0.080087 0.179829
v -0.100013 -0.080087 0.179829
v -0.100013 -0.080087 0.120417
v -0.100013 -0.080087 0.120417
v -0.100013 -0.080087 0.120417
vn -0.0000 -0.0000 -1.0000
vn 0.0976 -0.0975 -0.9904
vn 0.2788 -0.2786 -0.9190
vn 0.4264 -0.4262 -0.7978
vn 0.5358 -0.5355 -0.6528
vn -0.0975 -0.0976 -0.9904
vn -0.2788 -0.2789 -0.9190
vn -0.4264 -0.4266 -0.7977
vn -0.5356 -0.5359 -0.6526
vn 0.0975 0.0976 -0.9904
vn 0.2788 0.2789 -0.9190
vn 0.4264 0.4266 -0.7977
vn 0.5356 0.5359 -0.6526
vn -0.0976 0.0975 -0.9904
vn -0.2788 0.2786 -0.9190
vn -0.4264 0.4262 -0.7978
vn -0.5358 0.5355 -0.6528
vn 1.0000 -0.0000 -0.0000
vn -0.0000 1.0000 -0.0000
vn -0.0000 -0.0000 1.0000
vn 0.0357 -0.0355 -0.9987
vn 0.0355 -0.0354 -0.9987
vn -0.0355 -0.0359 -0.9987
vn -0.0355 -0.0357 -0.9987
vn -0.0355 -0.0355 -0.9987
vn 0.0015 -0.9999 0.0154
vn -0.0000 -1.0000 -0.0000
vn 0.0040 -1.0000 -0.0000
vn -1.0000 -0.0000 -0.0000
vn 0.0026 -1.0000 0.0032
vn -0.0000 -0.9987 0.0516
vn -1.0000 -0.0022 -0.0000
vn -0.0015 -0.9999 0.0155
vn -0.0024 -1.0000 0.0044
vn -0.0366 0.0358 -0.9987
vn -0.0356 0.0356 -0.9987
vn 0.0354 0.0354 -0.9987
vn 0.0359 0.0354 -0.9987
vn 0.0024 -1.0000 0.0044
vn 0.0021 -1.0000 0.0068
vn -0.0026 -1.0000 0.0032
vn -0.0021 -1.0000 0.0068
vn -0.0041 -1.0000 -0.0000
vn -1.0000 -0.0016 0.0013
vn -1.0000 -0.0015 0.0018
vn -1.0000 -0.0014 0.0028
vn -1.0000 -0.0012 0.0064
vn -0.9999 0.0008 0.0140
vn -0.9994 -0.0000 0.0340
vn -1.0000 0.0013 0.0062
vn -1.0000 0.0016 0.0040
vn -1.0000 0.0019 0.0029
vn -1.0000 0.0031 -0.0000
vn 0.0005 1.0000 0.0048
vn -0.0000 0.9999 0.0163
vn 1.0000 0.0001 -0.0000
vn -1.0000 -0.0001 -0.0000
vn -0.0005 1.0000 0.0049
vn -0.0007 1.0000 0.0022
vn -0.0007 1.0000 0.0014
vn -0.0008 1.0000 0.0010
vn -0.0013 1.0000 -0.0000
vn 0.0006 1.0000 0.0021
vn 0.0007 1.0000 0.0014
vn 0.0008 1.0000 0.0010
vn 0.0013 1.0000 -0.0000
vn 0.9994 -0.0000 0.0340
vn 0.9999 -0.0008 0.0139
vn 1.0000 -0.0013 0.0061
vn 1.0000 -0.0016 0.0040
vn 1.0000 -0.0018 0.0029
vn 1.0000 -0.0031 -0.0000
vn 1.0000 0.0012 0.0064
vn 1.0000 0.0014 0.0028
vn 1.0000 0.0015 0.0018
vn 1.0000 0.0016 0.0013
vn 1.0000 0.0022 -0.0000
vt 0.872836 0.789831
vt 0.872836 0.975294
vt 0.687472 0.975294
vt 0.687472 0.789831
vt 0.262482 0.764610
vt 0.251719 0.753956
vt 0.251719 0.589802
vt 0.262482 0.579147
vt 0.227382 0.765722
vt 0.238536 0.775967
vt 0.238536 0.919630
vt 0.227382 0.929875
vt 0.898763 0.789831
vt 0.910604 0.799273
vt 0.910604 0.924052
vt 0.898763 0.933494
vt 0.000605 0.932518
vt 0.000605 0.824291
vt 0.013289 0.816015
vt 0.013289 0.940794
vt 0.227778 0.753851
vt 0.227778 0.589808
vt 0.238536 0.579147
vt 0.238536 0.764512
vt 0.897553 0.800081
vt 0.897553 0.943624
vt 0.886404 0.953874
vt 0.886404 0.789831
vt 0.263692 0.937587
vt 0.263692 0.812939
vt 0.275529 0.803492
vt 0.275529 0.947034
vt 0.041073 0.932383
vt 0.028392 0.940663
vt 0.028392 0.816015
vt 0.041073 0.824295
vt 0.936360 0.289876
vt 0.947118 0.300536
vt 0.947118 0.464580
vt 0.936360 0.475240
vt 0.885195 0.953874
vt 0.874046 0.943624
vt 0.874046 0.800081
vt 0.885195 0.789831
vt 0.936702 0.933373
vt 0.924865 0.923926
vt 0.924865 0.799278
vt 0.936702 0.789831
vt 0.042282 0.816015
vt 0.054963 0.824295
vt 0.054963 0.932383
vt 0.042282 0.940663
vt 0.239746 0.764610
vt 0.239746 0.579147
vt 0.250509 0.589802
vt 0.250509 0.753956
vt 0.239746 0.929974
vt 0.239746 0.765820
vt 0.250899 0.776065
vt 0.250899 0.919728
vt 0.911814 0.933494
vt 0.911814 0.789831
vt 0.923655 0.799273
vt 0.923655 0.924052
vt 0.014498 0.824291
vt 0.027182 0.816015
vt 0.027182 0.940794
vt 0.014498 0.932518
vt 0.014803 0.315637
vt 0.000605 0.315637
vt 0.000605 0.302968
vt 0.014803 0.302968
vt 0.568371 0.262482
vt 0.568371 0.249876
vt 0.582570 0.249876
vt 0.582570 0.262482
vt 0.262482 0.275574
vt 0.275574 0.275574
vt 0.275574 0.288666
vt 0.262482 0.288666
vt 0.551753 0.275574
vt 0.551753 0.288666
vt 0.539147 0.288666
vt 0.539147 0.275574
vt 0.568371 0.279112
vt 0.577703 0.269998
vt 0.577703 0.288666
vt 0.539147 0.262219
vt 0.551753 0.262219
vt 0.421033 0.288666
vt 0.421033 0.275574
vt 0.421033 0.262219
vt 0.937912 0.789831
vt 0.948256 0.852648
vt 0.937912 0.867223
vt 0.066157 0.816015
vt 0.111089 0.879027
vt 0.066157 0.924242
vt 0.262482 0.262219
vt 0.275574 0.262219
vt 0.249438 0.275574
vt 0.249438 0.288666
vt 0.131325 0.288666
vt 0.131325 0.275574
vt 0.468191 0.816050
vt 0.478513 0.878510
vt 0.468191 0.893480
vt 0.279100 0.816050
vt 0.323959 0.879161
vt 0.279100 0.924138
vt 0.225846 0.594144
vt 0.223731 0.697583
vt 0.223731 0.579147
vt 0.279100 0.289876
vt 0.304439 0.289876
vt 0.304439 0.302920
vt 0.279100 0.302920
vt 0.279100 0.552963
vt 0.304439 0.552963
vt 0.304439 0.565570
vt 0.279100 0.565570
vt 0.455261 0.964112
vt 0.455261 0.894690
vt 0.478513 0.954042
vt 0.279100 0.539147
vt 0.304439 0.539147
vt 0.304439 0.551753
vt 0.279100 0.551753
vt 0.527989 0.538398
vt 0.553327 0.538398
vt 0.553327 0.551753
vt 0.527989 0.551753
vt 0.279100 0.801797
vt 0.304439 0.801797
vt 0.304439 0.814840
vt 0.279100 0.814840
vt 0.262482 0.315637
vt 0.237144 0.315637
vt 0.237144 0.302968
vt 0.262482 0.302968
vt 0.410007 0.683683
vt 0.422708 0.683683
vt 0.422708 0.801797
vt 0.410007 0.801797
vt 0.410007 0.289876
vt 0.422708 0.289876
vt 0.422708 0.302920
vt 0.410007 0.302920
vt 0.410007 0.552963
vt 0.422708 0.552963
vt 0.422708 0.565570
vt 0.410007 0.565570
vt 0.410007 0.421033
vt 0.422708 0.421033
vt 0.422708 0.539147
vt 0.410007 0.539147
vt 0.422708 0.551753
vt 0.410007 0.551753
vt 0.658896 0.538398
vt 0.671597 0.538398
vt 0.671597 0.551753
vt 0.658896 0.551753
vt 0.422708 0.814840
vt 0.410007 0.814840
vt 0.131575 0.315637
vt 0.118874 0.315637
vt 0.118874 0.302968
vt 0.131575 0.302968
vt 0.304439 0.421033
vt 0.304439 0.683683
vt 0.526779 0.683683
vt 0.526779 0.801797
vt 0.526779 0.289876
vt 0.526779 0.302920
vt 0.526779 0.552963
vt 0.526779 0.565570
vt 0.526779 0.421033
vt 0.526779 0.539147
vt 0.526779 0.551753
vt 0.775667 0.538398
vt 0.775667 0.551753
vt 0.526779 0.814840
vt 0.492996 0.884417
vt 0.505058 0.816050
vt 0.505058 0.893576
vt 0.263692 0.684169
vt 0.263692 0.566055
vt 0.268662 0.683950
vt 0.263692 0.802282
vt 0.592868 0.253655
vt 0.583780 0.262482
vt 0.583780 0.244298
vt 0.277890 0.551753
vt 0.277890 0.564845
vt 0.263692 0.564845
vt 0.263692 0.551753
vt 0.302920 0.275574
vt 0.302920 0.262219
vt 0.302920 0.288666
vt 0.421033 0.026366
vt 0.539147 0.026366
vt 0.118874 0.564845
vt 0.014803 0.564845
vt 0.014803 0.551490
vt 0.118874 0.551490
vt 0.658896 0.302545
vt 0.671597 0.302545
vt 0.737553 0.552963
vt 0.737553 0.788621
vt 0.527989 0.788621
vt 0.527989 0.552963
vt 0.237144 0.564845
vt 0.131575 0.564845
vt 0.131575 0.551490
vt 0.237144 0.551490
vt 0.276784 0.275574
vt 0.289876 0.275574
vt 0.289876 0.288666
vt 0.276784 0.288666
vt 0.262482 0.564845
vt 0.262482 0.551490
vt 0.972775 0.612083
vt 0.949537 0.622183
vt 0.949537 0.552963
vt 0.258760 0.883820
vt 0.258760 0.765820
vt 0.260878 0.868823
vt 0.302920 0.026366
vt 0.551753 0.026366
vt 0.000605 0.551490
vt 0.419080 0.816050
vt 0.419080 0.905044
vt 0.410366 0.828437
vt 0.289876 0.026366
vt 0.289876 0.262219
vt 0.000605 0.564845
vt 0.262482 0.000605
vt 0.275574 0.000605
vt 0.275574 0.013697
vt 0.262482 0.013697
vt 0.506267 0.816050
vt 0.516850 0.878310
vt 0.506267 0.893688
vt 0.112299 0.816015
vt 0.157046 0.879461
vt 0.112299 0.924242
vt 0.539147 0.013697
vt 0.551753 0.013697
vt 0.421033 0.013697
vt 0.158256 0.924102
vt 0.158256 0.816015
vt 0.203289 0.861129
vt 0.453411 0.893468
vt 0.453411 0.816050
vt 0.463655 0.831293
vt 0.289876 0.013697
vt 0.302920 0.013697
vt 0.588080 0.270301
vt 0.588080 0.288666
vt 0.578913 0.280013
vt 0.527989 0.289876
vt 0.553327 0.289876
vt 0.553327 0.302545
vt 0.527989 0.302545
vt 0.658896 0.289876
vt 0.671597 0.289876
vt 0.775667 0.289876
vt 0.775667 0.302545
vt 0.594078 0.249813
vt 0.606684 0.249813
vt 0.594078 0.262482
vt 0.379403 0.828442
vt 0.370697 0.905478
vt 0.370697 0.816050
vt 0.209789 0.830205
vt 0.204498 0.919476
vt 0.204498 0.816015
vt 0.937912 0.945533
vt 0.937912 0.868432
vt 0.949986 0.936390
vt 0.344674 0.919075
vt 0.344674 0.816050
vt 0.349969 0.904886
vt 0.949537 0.623393
vt 0.972763 0.633522
vt 0.949537 0.692415
vt 0.213779 0.818439
vt 0.225846 0.827590
vt 0.213779 0.895751
vt 0.400446 0.816050
vt 0.409156 0.828440
vt 0.400446 0.905259
vt 0.338172 0.816050
vt 0.343465 0.830240
vt 0.338172 0.919292
vt 0.255435 0.765820
vt 0.257551 0.780816
vt 0.255435 0.884036
vt 0.061618 0.918864
vt 0.059500 0.933860
vt 0.059500 0.816015
vt 0.217555 0.579147
vt 0.222522 0.696888
vt 0.217555 0.815000
vt 0.362980 0.904733
vt 0.357684 0.918921
vt 0.357684 0.816050
vt 0.438929 0.892505
vt 0.430213 0.904891
vt 0.430213 0.816050
vt 0.960405 0.435999
vt 0.948328 0.445137
vt 0.948328 0.368186
vt 0.951195 0.868432
vt 0.974412 0.878582
vt 0.951195 0.937313
vt 0.225846 0.802233
vt 0.223731 0.817229
vt 0.223731 0.698793
vt 0.269872 0.566055
vt 0.274836 0.684387
vt 0.269872 0.802282
vt 0.276046 0.802264
vt 0.276046 0.566055
vt 0.277076 0.684160
vt 0.056173 0.816015
vt 0.058290 0.831011
vt 0.056173 0.934014
vt 0.351179 0.816050
vt 0.356474 0.830239
vt 0.351179 0.919075
vt 0.420290 0.816050
vt 0.429003 0.828437
vt 0.420290 0.905043
vt 0.948328 0.289876
vt 0.960401 0.299019
vt 0.948328 0.366976
vt 0.949537 0.762646
vt 0.949537 0.693624
vt 0.972763 0.752517
vt 0.330460 0.905321
vt 0.325169 0.919511
vt 0.325169 0.816050
vt 0.389319 0.893085
vt 0.380613 0.905477
vt 0.380613 0.816050
vt 0.452201 0.884416
vt 0.440139 0.893576
vt 0.440139 0.816050
vt 0.481806 0.894786
vt 0.505058 0.904856
vt 0.481806 0.964208
vt 0.211379 0.579147
vt 0.216345 0.697398
vt 0.211379 0.815000
vt 0.254225 0.765820
vt 0.254225 0.884175
vt 0.252109 0.780816
vt 0.331670 0.919431
vt 0.331670 0.816050
vt 0.336962 0.905240
vt 0.390529 0.905397
vt 0.390529 0.816050
vt 0.399237 0.893006
vt 0.479723 0.893497
vt 0.479723 0.816050
vt 0.491786 0.884341
vt 0.972713 0.859179
vt 0.949466 0.849098
vt 0.972713 0.789831
vt 0.064947 0.831011
vt 0.062828 0.933721
vt 0.062828 0.816015
vt 0.369487 0.830238
vt 0.364190 0.918782
vt 0.364190 0.816050
vt 0.526779 0.828434
vt 0.518060 0.904752
vt 0.518060 0.816050
vt 0.960409 0.455479
vt 0.948328 0.523161
vt 0.948328 0.446347
vt 0.430213 0.974853
vt 0.430213 0.906101
vt 0.453422 0.964684
vt 0.583780 0.236263
vt 0.583780 0.000605
vt 0.793344 0.000605
vt 0.793344 0.236263
vt 0.762523 0.525254
vt 0.684741 0.525254
vt 0.645752 0.525254
vt 0.566471 0.525254
vt 0.566471 0.315689
vt 0.645752 0.315689
vt 0.684741 0.315689
vt 0.762523 0.315689
vt 0.608479 0.789831
vt 0.686262 0.789831
vt 0.686262 0.999395
vt 0.608479 0.999395
vt 0.607269 0.999395
vt 0.527989 0.999395
vt 0.527989 0.789831
vt 0.607269 0.789831
vt 0.873834 0.000605
vt 0.873834 0.236263
vt 0.794554 0.236263
vt 0.794554 0.000605
vt 0.935150 0.289876
vt 0.935150 0.525534
vt 0.857368 0.525534
vt 0.857368 0.289876
vt 0.738763 0.788621
vt 0.738763 0.552963
vt 0.948327 0.552963
vt 0.948327 0.788621
vt 0.000605 0.814805
vt 0.000605 0.579147
vt 0.210169 0.579147
vt 0.210169 0.814805
vt 0.952827 0.000605
vt 0.952827 0.236263
vt 0.875044 0.236263
vt 0.875044 0.000605
vt 0.856158 0.289876
vt 0.856158 0.525534
vt 0.776877 0.525534
vt 0.776877 0.289876
vt 0.000605 0.289876
vt 0.014803 0.289876
vt 0.131325 0.013697
vt 0.131325 0.000605
vt 0.249438 0.000605
vt 0.249438 0.013697
vt 0.014803 0.577937
vt 0.000605 0.577937
vt 0.013211 0.288666
vt 0.013211 0.275574
vt 0.000605 0.288666
vt 0.000605 0.275574
vt 0.263692 0.538710
vt 0.277890 0.538710
vt 0.263692 0.289876
vt 0.277890 0.289876
vt 0.277890 0.302483
vt 0.263692 0.302483
vt 0.263692 0.420596
vt 0.277890 0.420596
vt 0.568371 0.131762
vt 0.582570 0.131762
vt 0.568371 0.013649
vt 0.582570 0.013649
vt 0.568371 0.000605
vt 0.582570 0.000605
vt 0.000605 0.013697
vt 0.000605 0.000605
vt 0.013211 0.000605
vt 0.013211 0.013697
vt 0.302920 0.000605
vt 0.421033 0.000605
vt 0.539147 0.000605
vt 0.289876 0.000605
vt 0.551753 0.000605
vt 0.552963 0.262219
vt 0.567162 0.262219
vt 0.567162 0.275574
vt 0.552963 0.275574
vt 0.552963 0.013697
vt 0.552963 0.000605
vt 0.567162 0.000605
vt 0.567162 0.013697
vt 0.567162 0.288666
vt 0.552963 0.288666
vt 0.552963 0.026366
vt 0.567162 0.026366
vt 0.589290 0.270301
vt 0.602382 0.270301
vt 0.602382 0.284499
vt 0.589290 0.284499
vt 0.276784 0.262219
vt 0.275574 0.026366
vt 0.262482 0.026366
vt 0.276784 0.013697
vt 0.276784 0.000605
vt 0.276784 0.026366
vt 0.276784 0.262219
s 0
usemtl Material.005
f 42/1/1 121/2/1 82/3/1
f 42/1/1 82/3/1 3/4/1
f 40/5/2 76/6/2 126/7/2
f 40/5/2 126/7/2 119/8/2
f 75/9/3 72/10/3 130/11/3
f 75/9/3 130/11/3 125/12/3
f 71/13/4 68/14/4 134/15/4
s 1
f 71/13/4 134/15/4 129/16/4
f 62/17/5 137/18/5 133/19/5
s 0
f 62/17/5 133/19/5 67/20/5
f 155/21/6 117/22/6 83/23/6
f 155/21/6 83/23/6 124/24/6
f 151/25/7 113/26/7 118/27/7
f 151/25/7 118/27/7 156/28/7
f 147/29/8 109/30/8 114/31/8
f 147/29/8 114/31/8 152/32/8
f 106/33/9 110/34/9 148/35/9
f 106/33/9 148/35/9 144/36/9
f 1/37/10 8/38/10 47/39/10
f 1/37/10 47/39/10 41/40/10
f 7/41/11 12/42/11 51/43/11
f 7/41/11 51/43/11 46/44/11
f 11/45/12 16/46/12 55/47/12
f 11/45/12 55/47/12 50/48/12
f 15/49/13 19/50/13 58/51/13
f 15/49/13 58/51/13 54/52/13
f 6/53/14 84/54/14 87/55/14
f 6/53/14 87/55/14 38/56/14
f 39/57/15 88/58/15 91/59/15
f 39/57/15 91/59/15 34/60/15
f 35/61/16 92/62/16 95/63/16
f 35/61/16 95/63/16 30/64/16
f 27/65/17 31/66/17 96/67/17
f 27/65/17 96/67/17 101/68/17
f 332/69/18 316/70/18 165/71/18
f 332/69/18 165/71/18 262/72/18
f 389/73/19 407/74/19 393/75/19
f 389/73/19 393/75/19 391/76/19
f 268/77/1 446/78/1 453/79/1
f 268/77/1 453/79/1 403/80/1
f 161/81/20 392/82/20 395/83/20
f 161/81/20 395/83/20 186/84/20
f 167/85/1 188/86/1 298/87/1
f 303/88/20 297/89/20 161/81/20
f 303/88/20 161/81/20 186/84/20
f 397/90/20 435/91/20 434/84/20
f 397/90/20 434/84/20 394/83/20
f 315/92/20 303/88/20 434/84/20
f 315/92/20 434/84/20 435/91/20
f 99/93/21 335/94/21 175/95/21
f 100/96/22 176/97/22 24/98/22
f 341/99/1 451/100/1 446/78/1
f 341/99/1 446/78/1 268/77/1
f 275/101/1 408/102/1 410/103/1
f 275/101/1 410/103/1 290/104/1
s 1
f 22/105/23 196/106/24 319/107/24
s 0
f 23/108/25 320/109/25 59/110/25
f 37/111/26 217/112/26 2/113/26
f 168/114/19 203/115/19 220/116/19
f 168/114/19 220/116/19 189/117/19
f 164/118/27 200/119/27 218/120/27
f 164/118/27 218/120/27 179/121/27
f 213/122/28 25/123/28 177/124/28
f 185/125/19 210/126/19 198/127/19
f 185/125/19 198/127/19 159/128/19
f 301/129/29 351/130/29 204/131/29
f 301/129/29 204/131/29 169/132/29
f 194/133/27 228/134/27 201/135/27
f 194/133/27 201/135/27 172/136/27
f 333/137/18 323/138/18 199/139/18
f 333/137/18 199/139/18 162/140/18
f 287/141/27 284/142/27 246/143/27
f 287/141/27 246/143/27 256/144/27
f 251/145/19 241/146/19 245/147/19
f 251/145/19 245/147/19 255/148/19
f 248/149/27 238/150/27 244/151/27
f 248/149/27 244/151/27 254/152/27
f 286/153/19 285/154/19 243/155/19
f 286/153/19 243/155/19 253/156/19
f 253/156/19 243/155/19 236/157/19
f 253/156/19 236/157/19 258/158/19
f 344/159/29 343/160/29 242/161/29
f 344/159/29 242/161/29 252/162/29
f 256/144/27 246/143/27 239/163/27
f 256/144/27 239/163/27 249/164/27
f 331/165/18 330/166/18 237/167/18
f 331/165/18 237/167/18 247/168/18
f 323/138/18 331/165/18 247/168/18
f 323/138/18 247/168/18 199/139/18
f 228/134/27 256/144/27 249/164/27
f 228/134/27 249/164/27 201/135/27
f 351/130/29 344/159/29 252/162/29
f 351/130/29 252/162/29 204/131/29
f 210/126/19 253/156/19 258/158/19
f 210/126/19 258/158/19 198/127/19
f 282/169/19 286/153/19 253/156/19
f 282/169/19 253/156/19 210/126/19
f 200/119/27 248/149/27 254/152/27
f 200/119/27 254/152/27 218/120/27
f 203/115/19 251/145/19 255/148/19
f 203/115/19 255/148/19 220/116/19
f 280/170/27 287/141/27 256/144/27
f 280/170/27 256/144/27 228/134/27
f 284/142/27 289/171/27 278/172/27
f 284/142/27 278/172/27 246/143/27
f 241/146/19 269/173/19 276/174/19
f 241/146/19 276/174/19 245/147/19
f 238/150/27 264/175/27 274/176/27
f 238/150/27 274/176/27 244/151/27
f 285/154/19 291/177/19 272/178/19
f 285/154/19 272/178/19 243/155/19
f 243/155/19 272/178/19 261/179/19
f 243/155/19 261/179/19 236/157/19
f 343/160/29 342/180/29 270/181/29
f 343/160/29 270/181/29 242/161/29
f 246/143/27 278/172/27 266/182/27
f 246/143/27 266/182/27 239/163/27
f 330/166/18 332/69/18 262/72/18
f 330/166/18 262/72/18 237/167/18
f 245/147/19 276/174/19 291/177/19
f 245/147/19 291/177/19 285/154/19
f 244/151/27 274/176/27 289/171/27
f 244/151/27 289/171/27 284/142/27
f 218/120/27 254/152/27 287/141/27
f 218/120/27 287/141/27 280/170/27
f 220/116/19 255/148/19 286/153/19
f 220/116/19 286/153/19 282/169/19
f 255/148/19 245/147/19 285/154/19
f 255/148/19 285/154/19 286/153/19
f 254/152/27 244/151/27 284/142/27
f 254/152/27 284/142/27 287/141/27
f 26/183/30 214/184/30 28/185/30
f 281/186/31 229/187/31 4/188/31
f 281/186/31 4/188/31 219/189/31
f 171/190/1 318/191/1 193/192/1
f 414/193/27 460/194/27 464/195/27
f 414/193/27 464/195/27 427/196/27
f 315/92/20 435/91/20 436/197/20
f 315/92/20 436/197/20 304/198/20
f 397/90/20 402/199/20 436/197/20
f 397/90/20 436/197/20 435/91/20
f 340/200/20 338/201/20 303/88/20
f 340/200/20 303/88/20 315/92/20
f 235/202/18 259/203/18 314/204/18
f 235/202/18 314/204/18 312/205/18
f 352/206/29 362/207/29 343/160/29
f 352/206/29 343/160/29 344/159/29
f 482/208/20 379/209/20 373/210/20
f 482/208/20 373/210/20 476/211/20
f 197/212/18 257/213/18 313/214/18
f 197/212/18 313/214/18 305/215/18
f 257/213/18 235/202/18 312/205/18
f 257/213/18 312/205/18 313/214/18
f 440/216/20 170/217/20 400/218/20
f 440/216/20 400/218/20 449/219/20
f 157/220/18 197/212/18 305/215/18
f 157/220/18 305/215/18 292/221/18
f 321/222/32 357/223/32 60/224/32
f 5/225/33 230/226/33 9/227/33
f 339/228/20 340/200/20 315/92/20
f 339/228/20 315/92/20 304/198/20
f 338/201/20 317/229/20 297/89/20
f 338/201/20 297/89/20 303/88/20
f 314/204/18 296/230/18 316/70/18
f 314/204/18 316/70/18 332/69/18
f 14/231/34 232/232/34 17/233/34
f 337/234/20 339/228/20 304/198/20
f 337/234/20 304/198/20 302/235/20
f 259/203/18 160/236/18 296/230/18
f 259/203/18 296/230/18 314/204/18
f 426/237/1 463/238/1 444/239/1
f 426/237/1 444/239/1 265/240/1
f 64/241/35 299/242/35 192/243/35
f 63/244/36 191/245/36 140/246/36
f 180/247/20 166/248/20 317/229/20
f 180/247/20 317/229/20 338/201/20
f 279/249/20 180/247/20 338/201/20
f 279/249/20 338/201/20 340/200/20
f 105/250/37 141/251/37 182/252/37
s 1
f 104/253/38 181/254/38 294/255/38
s 0
f 174/256/20 187/257/20 339/228/20
f 174/256/20 339/228/20 337/234/20
f 295/258/1 184/259/1 158/260/1
f 173/261/29 202/262/29 359/263/29
f 173/261/29 359/263/29 322/264/29
f 250/265/29 240/266/29 362/207/29
f 250/265/29 362/207/29 352/206/29
f 202/262/29 250/265/29 352/206/29
f 202/262/29 352/206/29 359/263/29
f 240/266/29 267/267/29 361/268/29
f 240/266/29 361/268/29 362/207/29
f 163/269/1 178/270/1 336/271/1
f 187/257/20 279/249/20 340/200/20
f 187/257/20 340/200/20 339/228/20
f 313/214/18 312/205/18 330/166/18
f 313/214/18 330/166/18 331/165/18
f 305/215/18 313/214/18 331/165/18
f 305/215/18 331/165/18 323/138/18
f 29/272/39 215/273/39 32/274/39
f 312/205/18 314/204/18 332/69/18
f 312/205/18 332/69/18 330/166/18
f 33/275/40 216/276/40 36/277/40
f 18/278/41 233/279/41 20/280/41
f 10/281/42 231/282/42 13/283/42
f 234/284/43 195/285/43 21/286/43
f 57/287/44 61/288/44 358/289/44
f 53/290/45 56/291/45 356/292/45
f 49/293/46 52/294/46 355/295/46
f 45/296/47 48/297/47 354/298/47
f 77/299/48 44/300/48 346/301/48
f 345/302/49 43/303/49 353/304/49
f 73/305/50 78/306/50 347/307/50
f 69/308/51 74/309/51 348/310/51
f 65/311/52 70/312/52 349/313/52
f 350/314/53 300/315/53 66/316/53
f 154/317/54 120/318/54 209/319/54
f 212/320/55 122/321/55 221/322/55
s 1
f 211/323/56 222/324/57 283/325/29
s 0
f 123/326/58 127/327/58 223/328/58
f 128/329/59 131/330/59 224/331/59
f 132/332/60 135/333/60 225/334/60
f 136/335/61 138/336/61 226/337/61
f 227/338/62 139/339/62 190/340/62
f 150/341/63 153/342/63 208/343/63
f 146/344/64 149/345/64 207/346/64
f 143/347/65 145/348/65 206/349/65
f 205/350/66 183/351/66 142/352/66
f 329/353/67 81/354/67 311/355/67
f 80/356/68 328/357/68 86/358/68
f 85/359/69 327/360/69 90/361/69
f 89/362/70 326/363/70 94/364/70
f 93/365/71 325/366/71 98/367/71
f 324/368/72 334/369/72 97/370/72
f 116/371/73 310/372/73 79/373/73
f 112/374/74 309/375/74 115/376/74
f 108/377/75 308/378/75 111/379/75
f 102/380/76 306/381/76 107/382/76
f 307/383/77 103/384/77 293/385/77
f 472/386/1 369/387/1 375/388/1
f 472/386/1 375/388/1 478/389/1
f 468/390/29 342/180/29 343/160/29
f 468/390/29 343/160/29 471/391/29
f 474/392/29 344/159/29 351/130/29
f 474/392/29 351/130/29 477/393/29
f 483/394/29 359/263/29 352/206/29
f 483/394/29 352/206/29 480/395/29
f 489/396/29 362/207/29 361/268/29
f 489/396/29 361/268/29 486/397/29
f 477/393/29 351/130/29 359/263/29
f 477/393/29 359/263/29 483/394/29
f 471/391/29 343/160/29 362/207/29
f 471/391/29 362/207/29 489/396/29
f 480/395/29 352/206/29 344/159/29
f 480/395/29 344/159/29 474/392/29
f 486/397/29 361/268/29 342/180/29
f 486/397/29 342/180/29 468/390/29
f 386/398/29 383/399/29 365/400/29
f 386/398/29 365/400/29 368/401/29
f 380/402/29 377/403/29 371/404/29
f 380/402/29 371/404/29 374/405/29
f 479/406/19 376/407/19 378/408/19
f 479/406/19 378/408/19 481/409/19
f 469/410/27 366/411/27 364/412/27
f 469/410/27 364/412/27 467/413/27
f 466/414/1 363/415/1 381/416/1
f 466/414/1 381/416/1 484/417/1
f 488/418/20 385/419/20 367/420/20
f 488/418/20 367/420/20 470/421/20
f 485/422/19 382/423/19 384/424/19
f 485/422/19 384/424/19 487/425/19
f 475/426/27 372/427/27 370/428/27
f 475/426/27 370/428/27 473/429/27
f 165/71/18 416/430/18 423/431/18
f 165/71/18 423/431/18 262/72/18
f 288/432/1 432/433/1 430/434/1
f 288/432/1 430/434/1 277/435/1
f 259/203/18 387/436/18 390/437/18
f 259/203/18 390/437/18 160/236/18
f 290/104/1 410/103/1 406/438/1
f 290/104/1 406/438/1 271/439/1
f 400/218/20 170/217/20 436/197/20
f 400/218/20 436/197/20 402/199/20
f 271/439/1 406/438/1 388/440/1
f 271/439/1 388/440/1 260/441/1
f 268/77/1 403/80/1 408/102/1
f 268/77/1 408/102/1 275/101/1
f 431/442/27 412/443/27 414/193/27
f 431/442/27 414/193/27 427/196/27
f 425/444/27 417/445/27 419/446/27
f 425/444/27 419/446/27 429/447/27
f 433/448/27 421/449/27 412/443/27
f 433/448/27 412/443/27 431/442/27
f 429/447/27 419/446/27 421/449/27
f 429/447/27 421/449/27 433/448/27
f 411/450/19 396/451/19 393/75/19
f 411/450/19 393/75/19 407/74/19
f 409/452/19 401/453/19 396/451/19
f 409/452/19 396/451/19 411/450/19
f 404/454/19 398/455/19 401/453/19
f 404/454/19 401/453/19 409/452/19
f 263/456/1 424/457/1 428/458/1
f 263/456/1 428/458/1 273/459/1
f 187/257/20 413/460/20 422/461/20
f 187/257/20 422/461/20 279/249/20
f 279/249/20 422/461/20 420/462/20
f 279/249/20 420/462/20 180/247/20
f 273/459/1 428/458/1 432/433/1
f 273/459/1 432/433/1 288/432/1
f 174/256/20 415/463/20 413/460/20
f 174/256/20 413/460/20 187/257/20
f 180/247/20 420/462/20 418/464/20
f 180/247/20 418/464/20 166/248/20
f 277/435/1 430/434/1 426/237/1
f 277/435/1 426/237/1 265/240/1
f 452/465/29 439/466/29 441/467/29
f 452/465/29 441/467/29 447/468/29
f 445/469/29 465/470/29 462/471/29
f 445/469/29 462/471/29 443/472/29
f 441/467/29 450/473/29 455/474/29
f 441/467/29 455/474/29 447/468/29
f 459/475/29 457/476/29 439/466/29
f 459/475/29 439/466/29 452/465/29
f 445/469/29 443/472/29 457/476/29
f 445/469/29 457/476/29 459/475/29
f 405/477/19 454/478/19 448/479/19
f 405/477/19 448/479/19 399/480/19
f 302/235/20 170/217/20 440/216/20
f 302/235/20 440/216/20 438/481/20
f 304/198/20 436/197/20 170/217/20
f 304/198/20 170/217/20 302/235/20
f 265/240/1 444/239/1 458/482/1
f 265/240/1 458/482/1 360/483/1
f 174/256/20 442/484/20 461/485/20
f 174/256/20 461/485/20 415/463/20
f 337/234/20 456/486/20 442/484/20
f 337/234/20 442/484/20 174/256/20
f 302/235/20 437/487/20 456/486/20
f 302/235/20 456/486/20 337/234/20
f 360/483/1 458/482/1 451/100/1
f 360/483/1 451/100/1 341/99/1
