# Blender 3.6.5
# www.blender.org
mtllib drawer_bottom.mtl
o Cube.001
v -0.099735 -0.080046 0.089240
v -0.099735 -0.080046 0.089240
v -0.099735 -0.080046 0.089240
v -0.099735 -0.080046 0.089240
v -0.099735 -0.080046 0.031137
v -0.099735 -0.080046 0.031137
v -0.099735 -0.080046 0.031137
v -0.099735 -0.080046 0.031137
v -0.099735 0.080111 0.089240
v -0.099735 0.080111 0.089240
v -0.099735 0.080111 0.089240
v -0.099735 0.080111 0.089240
v -0.099735 0.080111 0.031137
v -0.099735 0.080111 0.031137
v -0.099735 0.080111 0.031137
v -0.099735 0.080111 0.031137
v 0.070216 -0.080046 0.089240
v 0.070216 -0.080046 0.089240
v 0.070216 -0.080046 0.089240
v 0.070216 -0.080046 0.031137
v 0.070216 -0.080046 0.031137
v 0.070216 -0.080046 0.031137
v 0.070216 0.080111 0.089240
v 0.070216 0.080111 0.089240
v 0.070216 0.080111 0.089240
v 0.070216 0.080111 0.031137
v 0.070216 0.080111 0.031137
v 0.070216 0.080111 0.031137
v -0.104735 0.080111 0.089240
v -0.104735 -0.080046 0.089240
v -0.104735 -0.080046 0.031137
v -0.104735 0.080111 0.031137
v -0.099735 0.074323 0.089240
v -0.099735 0.074323 0.089240
v -0.099735 0.074323 0.089240
v -0.099735 0.074323 0.031137
v -0.099735 0.074323 0.031137
v 0.070216 0.074323 0.089240
v 0.070216 0.074323 0.089240
v 0.070216 0.074323 0.031137
v 0.070216 0.074323 0.031137
v -0.104735 0.074323 0.089240
v -0.104735 0.074323 0.031137
v -0.099735 -0.073415 0.089240
v -0.099735 -0.073415 0.089240
v -0.099735 -0.073415 0.089240
v 0.070216 -0.073415 0.031137
v 0.070216 -0.073415 0.031137
v -0.104735 -0.073415 0.089240
v -0.099735 -0.073415 0.031137
v -0.099735 -0.073415 0.031137
v 0.070216 -0.073415 0.089240
v 0.070216 -0.073415 0.089240
v -0.104735 -0.073415 0.031137
v 0.062945 0.080111 0.089240
v 0.062945 0.080111 0.089240
v 0.062945 0.080111 0.031137
v 0.062945 0.080111 0.031137
v 0.062945 -0.080046 0.089240
v 0.062945 -0.080046 0.089240
v 0.062945 -0.080046 0.031137
v 0.062945 -0.080046 0.031137
v 0.062945 0.074323 0.031137
v 0.062945 0.074323 0.089240
v 0.062945 0.074323 0.089240
v 0.062945 0.074323 0.089240
v 0.062945 -0.073415 0.031137
v 0.062945 -0.073415 0.089240
v 0.062945 -0.073415 0.089240
v 0.062945 -0.073415 0.089240
v 0.062945 0.074323 0.032988
v 0.062945 0.074323 0.032988
v 0.062945 0.074323 0.032988
v -0.099735 0.074323 0.032988
v -0.099735 0.074323 0.032988
v -0.099735 0.074323 0.032988
v -0.099735 -0.073415 0.032988
v -0.099735 -0.073415 0.032988
v -0.099735 -0.073415 0.032988
v 0.062945 -0.073415 0.032988
v 0.062945 -0.073415 0.032988
v 0.062945 -0.073415 0.032988
v -0.099735 -0.073415 0.090934
v -0.099735 -0.073415 0.090934
v -0.099735 -0.080046 0.090934
v -0.099735 -0.080046 0.090934
v -0.104735 -0.073415 0.090934
v -0.104735 -0.073415 0.090934
v -0.104735 -0.080046 0.090934
v -0.104735 -0.080046 0.090934
v -0.104735 0.080111 0.090934
v -0.104735 0.080111 0.090934
v -0.099735 0.080111 0.090934
v -0.099735 0.080111 0.090934
v -0.099735 0.074323 0.090934
v -0.099735 0.074323 0.090934
v -0.104735 0.074323 0.090934
v -0.104735 0.074323 0.090934
v -0.099735 0.074323 0.029137
v -0.099735 0.074323 0.029137
v -0.099735 0.080111 0.029137
v -0.099735 0.080111 0.029137
v -0.104735 0.074323 0.029137
v -0.104735 0.074323 0.029137
v -0.104735 0.080111 0.029137
v -0.104735 0.080111 0.029137
v -0.104735 -0.080046 0.029137
v -0.104735 -0.080046 0.029137
v -0.099735 -0.080046 0.029137
v -0.099735 -0.080046 0.029137
v -0.099735 -0.073415 0.029137
v -0.099735 -0.073415 0.029137
v -0.104735 -0.073415 0.029137
v -0.104735 -0.073415 0.029137
v -0.099735 -0.082046 0.089240
v -0.099735 -0.082046 0.089240
v -0.099735 -0.082046 0.089240
v -0.099735 -0.082046 0.031137
v -0.099735 -0.082046 0.031137
v -0.099735 -0.082046 0.031137
v -0.104735 -0.082046 0.089240
v -0.104735 -0.082046 0.089240
v -0.104735 -0.082046 0.031137
v -0.104735 -0.082046 0.031137
v -0.099735 -0.082046 0.090934
v -0.099735 -0.082046 0.090934
v -0.099735 -0.082046 0.090934
v -0.104735 -0.082046 0.090934
v -0.104735 -0.082046 0.090934
v -0.104735 -0.082046 0.090934
v -0.104735 -0.082046 0.029137
v -0.104735 -0.082046 0.029137
v -0.104735 -0.082046 0.029137
v -0.099735 -0.082046 0.029137
v -0.099735 -0.082046 0.029137
v -0.099735 -0.082046 0.029137
v -0.099735 0.082111 0.031137
v -0.099735 0.082111 0.031137
v -0.099735 0.082111 0.031137
v -0.099735 0.082111 0.089240
v -0.099735 0.082111 0.089240
v -0.099735 0.082111 0.089240
v -0.104735 0.082111 0.031137
v -0.104735 0.082111 0.031137
v -0.104735 0.082111 0.089240
v -0.104735 0.082111 0.089240
v -0.104735 0.082111 0.029137
v -0.104735 0.082111 0.029137
v -0.104735 0.082111 0.029137
v -0.099735 0.082111 0.029137
v -0.099735 0.082111 0.029137
v -0.099735 0.082111 0.029137
v -0.099735 0.082111 0.090934
v -0.099735 0.082111 0.090934
v -0.099735 0.082111 0.090934
v -0.104735 0.082111 0.090934
v -0.104735 0.082111 0.090934
v -0.104735 0.082111 0.090934
vn -1.0000 -0.0000 -0.0000
vn -0.0000 1.0000 -0.0000
vn 1.0000 -0.0000 -0.0000
vn -0.0000 -1.0000 -0.0000
vn -0.0000 -0.0000 1.0000
vn -0.0000 -0.0000 -1.0000
vt 0.625000 0.125000
vt 0.625000 0.250000
vt 0.375000 0.375000
vt 0.375000 0.500000
vt 0.625000 0.500000
vt 0.625000 0.375000
vt 0.375000 0.687500
vt 0.375000 0.750000
vt 0.625000 0.750000
vt 0.625000 0.687500
vt 0.375000 0.875000
vt 0.375000 1.000000
vt 0.625000 1.000000
vt 0.625000 0.875000
vt 0.250000 0.687500
vt 0.250000 0.750000
vt 0.750000 0.687500
vt 0.750000 0.750000
vt 0.875000 0.750000
vt 0.875000 0.687500
vt 0.375000 0.125000
vt 0.375000 0.250000
vt 0.375000 0.062500
vt 0.125000 0.500000
vt 0.625000 0.000000
vt 0.125000 0.750000
vt 0.625000 0.062500
vt 0.750000 0.500000
vt 0.750000 0.625000
vt 0.875000 0.625000
vt 0.875000 0.500000
vt 0.250000 0.500000
vt 0.250000 0.625000
vt 0.375000 0.625000
vt 0.625000 0.625000
vt 0.375000 0.000000
vt 0.125000 0.625000
vt 0.125000 0.687500
vt 0.125000 0.687500
s 0
usemtl Material.003
f 43/1/1 32/2/1 106/2/1
f 43/1/1 106/2/1 104/1/1
f 55/3/2 24/4/2 28/5/2
f 55/3/2 28/5/2 58/6/2
f 52/7/3 17/8/3 20/9/3
f 52/7/3 20/9/3 47/10/3
f 59/11/4 3/12/4 8/13/4
f 59/11/4 8/13/4 62/14/4
f 69/15/5 60/16/5 19/8/5
f 69/15/5 19/8/5 53/7/5
f 67/17/6 61/18/6 7/19/6
f 67/17/6 7/19/6 51/20/6
f 42/21/1 29/22/1 32/2/1
f 42/21/1 32/2/1 43/1/1
f 42/21/1 49/23/1 88/23/1
f 42/21/1 88/23/1 98/21/1
f 93/24/3 9/24/3 140/24/3
f 93/24/3 140/24/3 153/24/3
f 31/25/1 108/25/1 133/25/1
f 31/25/1 133/25/1 124/25/1
f 1/26/3 85/26/3 125/26/3
f 1/26/3 125/26/3 115/26/3
f 49/23/1 42/21/1 43/1/1
f 49/23/1 43/1/1 54/27/1
f 57/28/6 63/29/6 37/30/6
f 57/28/6 37/30/6 15/31/6
f 56/32/5 65/33/5 39/34/5
f 56/32/5 39/34/5 25/4/5
f 23/4/3 38/34/3 40/35/3
f 23/4/3 40/35/3 26/5/3
f 54/27/1 43/1/1 104/1/1
f 54/27/1 104/1/1 114/27/1
f 106/2/1 32/2/1 144/2/1
f 106/2/1 144/2/1 149/2/1
f 30/36/1 49/23/1 54/27/1
f 30/36/1 54/27/1 31/25/1
f 33/37/3 9/24/3 93/24/3
f 33/37/3 93/24/3 95/37/3
f 63/29/6 67/17/6 51/20/6
f 63/29/6 51/20/6 37/30/6
f 65/33/5 69/15/5 53/7/5
f 65/33/5 53/7/5 39/34/5
f 38/34/3 52/7/3 47/10/3
f 38/34/3 47/10/3 40/35/3
f 66/33/1 73/33/1 82/15/1
f 66/33/1 82/15/1 70/15/1
f 41/35/6 48/10/6 67/17/6
f 41/35/6 67/17/6 63/29/6
f 12/24/5 35/37/5 65/33/5
f 12/24/5 65/33/5 56/32/5
f 27/5/6 41/35/6 63/29/6
f 27/5/6 63/29/6 57/28/6
f 48/10/6 21/9/6 61/18/6
f 48/10/6 61/18/6 67/17/6
f 46/38/5 4/26/5 60/16/5
f 46/38/5 60/16/5 69/15/5
f 18/8/4 59/11/4 62/14/4
f 18/8/4 62/14/4 22/9/4
f 11/22/2 55/3/2 58/6/2
f 11/22/2 58/6/2 16/2/2
f 76/37/5 79/38/5 81/15/5
f 76/37/5 81/15/5 72/33/5
f 68/15/2 80/15/2 78/38/2
f 68/15/2 78/38/2 45/38/2
f 34/37/4 75/37/4 71/33/4
f 34/37/4 71/33/4 64/33/4
f 44/38/3 77/38/3 74/37/3
f 44/38/3 74/37/3 33/37/3
f 84/38/5 87/39/5 89/26/5
f 84/38/5 89/26/5 86/26/5
f 94/24/5 91/24/5 97/37/5
f 94/24/5 97/37/5 96/37/5
f 96/37/5 97/37/5 87/39/5
f 96/37/5 87/39/5 84/38/5
f 49/23/1 30/36/1 90/36/1
f 49/23/1 90/36/1 88/23/1
f 44/38/3 33/37/3 95/37/3
f 44/38/3 95/37/3 83/38/3
f 102/31/6 105/31/6 147/31/6
f 102/31/6 147/31/6 151/31/6
f 29/22/1 42/21/1 98/21/1
f 29/22/1 98/21/1 92/22/1
f 1/26/3 44/38/3 83/38/3
f 1/26/3 83/38/3 85/26/3
f 100/30/6 103/30/6 105/31/6
f 100/30/6 105/31/6 102/31/6
f 112/20/6 113/20/6 103/30/6
f 112/20/6 103/30/6 100/30/6
f 110/19/6 107/19/6 113/20/6
f 110/19/6 113/20/6 112/20/6
f 36/30/3 50/20/3 111/20/3
f 36/30/3 111/20/3 99/30/3
f 5/13/3 2/12/3 116/12/3
f 5/13/3 116/12/3 118/13/3
f 31/25/1 54/27/1 114/27/1
f 31/25/1 114/27/1 108/25/1
f 50/20/3 6/19/3 109/19/3
f 50/20/3 109/19/3 111/20/3
f 14/31/3 36/30/3 99/30/3
f 14/31/3 99/30/3 101/31/3
f 117/12/4 121/12/4 123/13/4
f 117/12/4 123/13/4 120/13/4
f 121/12/4 117/12/4 126/12/4
f 121/12/4 126/12/4 128/12/4
f 120/13/4 123/13/4 132/13/4
f 120/13/4 132/13/4 136/13/4
f 107/19/6 110/19/6 135/19/6
f 107/19/6 135/19/6 131/19/6
f 86/26/5 89/26/5 129/26/5
f 86/26/5 129/26/5 127/26/5
f 90/36/1 30/36/1 122/36/1
f 90/36/1 122/36/1 130/36/1
f 30/36/1 31/25/1 124/25/1
f 30/36/1 124/25/1 122/36/1
f 109/19/3 6/19/3 119/19/3
f 109/19/3 119/19/3 134/19/3
f 139/2/2 143/2/2 145/22/2
f 139/2/2 145/22/2 142/22/2
f 143/2/2 139/2/2 152/2/2
f 143/2/2 152/2/2 148/2/2
f 142/22/2 145/22/2 156/22/2
f 142/22/2 156/22/2 154/22/2
f 91/24/5 94/24/5 155/24/5
f 91/24/5 155/24/5 157/24/5
f 14/31/3 101/31/3 150/31/3
f 14/31/3 150/31/3 138/31/3
f 10/22/3 13/2/3 137/2/3
f 10/22/3 137/2/3 141/22/3
f 29/22/1 92/22/1 158/22/1
f 29/22/1 158/22/1 146/22/1
f 32/2/1 29/22/1 146/22/1
f 32/2/1 146/22/1 144/2/1
