# Blender 3.6.5
# www.blender.org
mtllib handle_top.mtl
o Sphere
v -0.125183 0.007093 0.149681
v -0.120755 0.009650 0.149650
v -0.115643 0.009650 0.149615
v -0.113261 0.008663 0.149598
v -0.127748 0.002323 0.148421
v -0.126770 0.004386 0.147223
v -0.125207 0.006158 0.146189
v -0.123167 0.007517 0.145390
v -0.120789 0.008371 0.144880
v -0.118234 0.008663 0.144694
v -0.115676 0.008371 0.144845
v -0.113291 0.007517 0.145321
v -0.111240 0.006158 0.146092
v -0.109663 0.004386 0.147104
v -0.108668 0.002323 0.148288
v -0.127755 0.001388 0.147485
v -0.126782 0.002579 0.145416
v -0.125225 0.003601 0.143633
v -0.123189 0.004386 0.142260
v -0.120813 0.004880 0.141389
v -0.118259 0.005048 0.141079
v -0.115701 0.004880 0.141353
v -0.113313 0.004386 0.142191
v -0.111258 0.003601 0.143536
v -0.109676 0.002579 0.145296
v -0.108675 0.001388 0.147352
v -0.127757 0.000109 0.147143
v -0.126787 0.000109 0.144754
v -0.125232 0.000109 0.142698
v -0.123197 0.000109 0.141114
v -0.120822 0.000109 0.140110
v -0.118268 0.000109 0.139756
v -0.115710 0.000109 0.140075
v -0.113321 0.000109 0.141045
v -0.111264 0.000109 0.142600
v -0.109680 0.000109 0.144635
v -0.108677 0.000109 0.147010
v -0.127755 -0.001169 0.147485
v -0.126782 -0.002360 0.145416
v -0.125225 -0.003383 0.143633
v -0.123189 -0.004167 0.142260
v -0.120813 -0.004661 0.141389
v -0.118259 -0.004829 0.141079
v -0.115701 -0.004661 0.141353
v -0.113313 -0.004167 0.142191
v -0.111258 -0.003383 0.143536
v -0.109676 -0.002360 0.145296
v -0.108675 -0.001169 0.147352
v -0.127748 -0.002104 0.148421
v -0.126770 -0.004167 0.147223
v -0.125207 -0.005939 0.146189
v -0.123167 -0.007298 0.145390
v -0.120789 -0.008153 0.144880
v -0.118234 -0.008444 0.144694
v -0.115676 -0.008153 0.144845
v -0.113291 -0.007298 0.145321
v -0.111240 -0.005939 0.146092
v -0.109663 -0.004167 0.147104
v -0.108668 -0.002104 0.148288
v -0.127739 -0.002447 0.149699
v -0.126752 -0.004829 0.149692
v -0.125183 -0.006874 0.149681
v -0.123137 -0.008444 0.149667
v -0.120755 -0.009431 0.149650
v -0.118199 -0.009767 0.149633
v -0.115643 -0.009431 0.149615
v -0.113261 -0.008444 0.149598
v -0.111215 -0.006874 0.149584
v -0.109646 -0.004829 0.149573
v -0.108659 -0.002447 0.149566
v -0.127730 -0.002104 0.150977
v -0.126735 -0.004167 0.152161
v -0.125159 -0.005939 0.153173
v -0.123108 -0.007298 0.153944
v -0.120722 -0.008153 0.154420
v -0.118165 -0.008444 0.154571
v -0.115610 -0.008153 0.154385
v -0.113231 -0.007298 0.153875
v -0.111191 -0.005939 0.153076
v -0.109629 -0.004167 0.152042
v -0.108650 -0.002104 0.150844
v -0.127724 -0.001169 0.151913
v -0.126723 -0.002360 0.153969
v -0.125141 -0.003383 0.155729
v -0.123086 -0.004167 0.157074
v -0.120698 -0.004661 0.157912
v -0.118139 -0.004829 0.158186
v -0.115585 -0.004661 0.157877
v -0.113209 -0.004167 0.157005
v -0.111173 -0.003383 0.155632
v -0.109616 -0.002360 0.153849
v -0.108644 -0.001169 0.151780
v -0.128076 0.000109 0.149702
v -0.128076 0.000109 0.149702
v -0.128076 0.000109 0.149702
v -0.128076 0.000109 0.149702
v -0.128076 0.000109 0.149702
v -0.128076 0.000109 0.149702
v -0.128076 0.000109 0.149702
v -0.128076 0.000109 0.149702
v -0.128076 0.000109 0.149702
v -0.128076 0.000109 0.149702
v -0.128076 0.000109 0.149702
v -0.128076 0.000109 0.149702
v -0.127721 0.000109 0.152255
v -0.127721 0.000109 0.152255
v -0.126718 0.000109 0.154631
v -0.126718 0.000109 0.154631
v -0.125134 0.000109 0.156665
v -0.125134 0.000109 0.156665
v -0.123078 0.000109 0.158220
v -0.123078 0.000109 0.158220
v -0.120689 0.000109 0.159190
v -0.120689 0.000109 0.159190
v -0.118130 0.000109 0.159509
v -0.118130 0.000109 0.159509
v -0.115576 0.000109 0.159155
v -0.115576 0.000109 0.159155
v -0.113201 0.000109 0.158151
v -0.113201 0.000109 0.158151
v -0.111167 0.000109 0.156568
v -0.111167 0.000109 0.156568
v -0.109611 0.000109 0.154511
v -0.109611 0.000109 0.154511
v -0.108641 0.000109 0.152122
v -0.108641 0.000109 0.152122
v -0.127724 0.001388 0.151913
v -0.126723 0.002579 0.153969
v -0.125141 0.003601 0.155729
v -0.123086 0.004386 0.157074
v -0.120698 0.004880 0.157912
v -0.118139 0.005048 0.158186
v -0.115585 0.004880 0.157877
v -0.113209 0.004386 0.157005
v -0.111173 0.003601 0.155632
v -0.109616 0.002579 0.153849
v -0.108644 0.001388 0.151780
v -0.127730 0.002323 0.150977
v -0.126735 0.004386 0.152161
v -0.125159 0.006158 0.153173
v -0.123108 0.007517 0.153944
v -0.120722 0.008371 0.154420
v -0.118165 0.008663 0.154571
v -0.115610 0.008371 0.154385
v -0.113231 0.007517 0.153875
v -0.111191 0.006158 0.153076
v -0.109629 0.004386 0.152042
v -0.108650 0.002323 0.150844
v -0.127739 0.002666 0.149699
v -0.126752 0.005048 0.149692
v -0.123137 0.008663 0.149667
v -0.118199 0.009986 0.149633
v -0.111215 0.007093 0.149584
v -0.109646 0.005048 0.149573
v -0.108659 0.002666 0.149566
v -0.103668 0.002323 0.148288
v -0.103675 0.001388 0.147352
v -0.103677 0.000109 0.147010
v -0.103675 -0.001169 0.147352
v -0.103668 -0.002104 0.148288
v -0.103659 -0.002447 0.149566
v -0.103650 -0.002104 0.150844
v -0.103644 -0.001169 0.151780
v -0.103641 0.000109 0.152122
v -0.103641 0.000109 0.152122
v -0.103644 0.001388 0.151780
v -0.103650 0.002323 0.150844
v -0.103659 0.002666 0.149566
v -0.103643 0.000109 0.149564
v -0.103643 0.000109 0.149564
v -0.103643 0.000109 0.149564
v -0.103643 0.000109 0.149564
v -0.103643 0.000109 0.149564
v -0.103643 0.000109 0.149564
v -0.103643 0.000109 0.149564
v -0.103643 0.000109 0.149564
v -0.103643 0.000109 0.149564
v -0.103643 0.000109 0.149564
v -0.103643 0.000109 0.149564
v -0.103643 0.000109 0.149564
vn -0.6964 0.7176 0.0049
vn -0.6989 0.6215 -0.3539
vn -0.8584 0.4468 -0.2520
vn -0.8566 0.5159 0.0060
vn 0.8566 0.5159 -0.0060
vn 0.8548 0.4468 -0.2639
vn 0.6939 0.6215 -0.3637
vn 0.6964 0.7176 -0.0049
vn 0.2536 0.9673 -0.0018
vn 0.2502 0.8377 -0.4854
vn -0.0035 0.8660 -0.5000
vn -0.0000 1.0000 -0.0000
vn -0.4909 0.8712 0.0034
vn -0.4939 0.7545 -0.4322
vn 0.6023 0.7982 -0.0048
vn 0.6009 0.6901 -0.4033
vn -0.9603 0.2789 0.0067
vn -0.9613 0.2415 -0.1327
vn -1.0000 -0.0000 0.0070
vn 0.4909 0.8712 -0.0034
vn 0.4878 0.7545 -0.4390
vn -0.2536 0.9673 0.0018
vn -0.2570 0.8377 -0.4819
vn 0.5999 0.3979 -0.6941
vn 0.6489 0.3788 -0.6599
vn 0.6485 -0.0000 -0.7612
vn 0.5995 -0.0000 -0.8004
vn 0.4856 0.4356 -0.7579
vn 0.2477 0.4837 -0.8395
vn -0.2594 0.4837 -0.8359
vn -0.4961 0.4356 -0.7511
vn 0.6499 0.6566 -0.3828
vn -0.8597 0.2580 -0.4408
vn -0.9620 0.1394 -0.2348
vn 0.6921 0.3588 -0.6263
vn -0.0061 0.5000 -0.8660
vn -0.7008 0.3588 -0.6166
vn 0.8535 0.2580 -0.4528
vn 0.2468 -0.0000 -0.9691
vn -0.0070 -0.0000 -1.0000
vn -0.4970 -0.0000 -0.8678
vn -0.7015 -0.0000 -0.7127
vn 0.8530 -0.0000 -0.5219
vn -0.9623 -0.0000 -0.2721
vn 0.4848 -0.0000 -0.8746
vn -0.2603 -0.0000 -0.9655
vn 0.6038 -0.6925 0.3949
vn 0.6526 -0.6578 0.3761
vn 0.6536 -0.3800 0.6545
vn 0.6048 -0.4003 0.6885
vn -0.8602 -0.0000 -0.5099
vn 0.6914 -0.0000 -0.7224
vn 0.6921 -0.3588 -0.6263
vn 0.4856 -0.4356 -0.7579
vn -0.0061 -0.5000 -0.8660
vn -0.2594 -0.4837 -0.8359
vn -0.7008 -0.3588 -0.6166
vn -0.8597 -0.2580 -0.4408
vn 0.8535 -0.2580 -0.4528
vn 0.2477 -0.4837 -0.8395
vn -0.4961 -0.4356 -0.7511
vn 0.5999 -0.3979 -0.6941
vn -0.9620 -0.1394 -0.2348
vn 0.6489 -0.3788 -0.6599
vn -0.9613 -0.2415 -0.1327
vn 0.4878 -0.7545 -0.4390
vn 0.2502 -0.8377 -0.4854
vn -0.2570 -0.8377 -0.4819
vn -0.4939 -0.7545 -0.4322
vn 0.6499 -0.6566 -0.3828
vn 0.6009 -0.6901 -0.4033
vn -0.8584 -0.4468 -0.2520
vn 0.6939 -0.6215 -0.3637
vn -0.0035 -0.8660 -0.5000
vn -0.6989 -0.6215 -0.3539
vn 0.8548 -0.4468 -0.2639
vn 0.8566 -0.5159 -0.0060
vn 0.6964 -0.7176 -0.0049
vn 0.2536 -0.9673 -0.0018
vn -0.0000 -1.0000 -0.0000
vn -0.4909 -0.8712 0.0034
vn -0.6964 -0.7176 0.0049
vn 0.6023 -0.7982 -0.0048
vn -0.9603 -0.2789 0.0067
vn 0.4909 -0.8712 -0.0034
vn -0.2536 -0.9673 0.0018
vn 0.6512 -0.7589 -0.0037
vn -0.8566 -0.5159 0.0060
vn -0.8548 -0.4468 0.2639
vn -0.9593 -0.2415 0.1461
vn 0.6989 -0.6215 0.3539
vn 0.4939 -0.7545 0.4322
vn 0.0035 -0.8660 0.5000
vn -0.2502 -0.8377 0.4854
vn -0.6939 -0.6215 0.3637
vn 0.8584 -0.4468 0.2520
vn 0.2570 -0.8377 0.4819
vn -0.4878 -0.7545 0.4390
vn 0.6038 0.6925 0.3949
vn 0.6526 0.6578 0.3761
vn 0.6512 0.7589 -0.0037
vn 0.8597 -0.2580 0.4408
vn -0.9586 -0.1394 0.2482
vn 0.4961 -0.4356 0.7511
vn 0.2594 -0.4837 0.8359
vn -0.2477 -0.4837 0.8395
vn -0.4856 -0.4356 0.7579
vn 0.6052 -0.0000 0.7961
vn 0.6539 -0.0000 0.7566
vn 0.6536 0.3800 0.6545
vn 0.6048 0.4003 0.6885
vn -0.8535 -0.2580 0.4528
vn 0.7008 -0.3588 0.6166
vn 0.0061 -0.5000 0.8660
vn -0.6921 -0.3588 0.6263
vn -0.6914 -0.0000 0.7224
vn -0.8530 -0.0000 0.5219
vn 0.8602 -0.0000 0.5099
vn 0.7015 -0.0000 0.7127
vn 0.2603 -0.0000 0.9655
vn 0.0070 -0.0000 1.0000
vn -0.4848 -0.0000 0.8746
vn -0.9584 -0.0000 0.2856
vn 0.4970 -0.0000 0.8678
vn -0.2468 -0.0000 0.9691
vn -0.8535 0.2580 0.4528
vn -0.9586 0.1394 0.2482
vn 0.7008 0.3588 0.6166
vn 0.4961 0.4356 0.7511
vn 0.0061 0.5000 0.8660
vn -0.2477 0.4837 0.8395
vn -0.6921 0.3588 0.6263
vn 0.8597 0.2580 0.4408
vn 0.2594 0.4837 0.8359
vn -0.4856 0.4356 0.7579
vn -0.4878 0.7545 0.4390
vn -0.6939 0.6215 0.3637
vn 0.8584 0.4468 0.2520
vn -0.9593 0.2415 0.1461
vn 0.4939 0.7545 0.4322
vn 0.2570 0.8377 0.4819
vn -0.2502 0.8377 0.4854
vn -0.8548 0.4468 0.2639
vn 0.6989 0.6215 0.3539
vn 0.0035 0.8660 0.5000
vn 1.0000 -0.0000 -0.0070
vt 0.750000 0.750000
vt 0.666667 0.750000
vt 0.666667 0.833333
vt 0.750000 0.833333
vt 0.750000 0.166667
vt 0.666667 0.166667
vt 0.666667 0.250000
vt 0.750000 0.250000
vt 0.750000 0.416667
vt 0.666667 0.416667
vt 0.666667 0.500000
vt 0.750000 0.500000
vt 0.750000 0.666667
vt 0.666667 0.666667
vt 0.750000 0.083333
vt 0.666667 0.083333
vt 0.750000 0.916667
vt 0.666667 0.916667
vt 0.708333 1.000000
vt 0.750000 0.333333
vt 0.666667 0.333333
vt 0.750000 0.583333
vt 0.666667 0.583333
vt 0.583333 0.083333
vt 0.500000 0.083333
vt 0.583333 0.333333
vt 0.583333 0.416667
vt 0.583333 0.583333
vt 0.583333 0.666667
vt 0.583333 0.833333
vt 0.583333 0.916667
vt 0.583333 0.250000
vt 0.583333 0.500000
vt 0.583333 0.750000
vt 0.583333 0.166667
vt 0.625000 1.000000
vt 0.500000 0.416667
vt 0.500000 0.500000
vt 0.500000 0.666667
vt 0.500000 0.750000
vt 0.500000 0.166667
vt 0.500000 0.916667
vt 0.541667 1.000000
vt 0.500000 0.333333
vt 0.500000 0.583333
vt 0.166667 0.083333
vt 0.083333 0.083333
vt 0.500000 0.833333
vt 0.500000 0.250000
vt 0.416667 0.250000
vt 0.416667 0.333333
vt 0.416667 0.500000
vt 0.416667 0.583333
vt 0.416667 0.750000
vt 0.416667 0.833333
vt 0.416667 0.166667
vt 0.416667 0.416667
vt 0.416667 0.666667
vt 0.416667 0.083333
vt 0.416667 0.916667
vt 0.458333 1.000000
vt 0.333333 0.916667
vt 0.375000 1.000000
vt 0.333333 0.333333
vt 0.333333 0.416667
vt 0.333333 0.583333
vt 0.333333 0.666667
vt 0.333333 0.083333
vt 0.333333 0.833333
vt 0.333333 0.250000
vt 0.333333 0.500000
vt 0.333333 0.750000
vt 0.333333 0.166667
vt 0.250000 0.166667
vt 0.250000 0.250000
vt 0.250000 0.416667
vt 0.250000 0.500000
vt 0.250000 0.666667
vt 0.250000 0.750000
vt 0.250000 0.083333
vt 0.250000 0.916667
vt 0.291667 1.000000
vt 0.250000 0.333333
vt 0.250000 0.583333
vt 0.250000 0.833333
vt 0.166667 0.833333
vt 0.166667 0.916667
vt 0.166667 0.250000
vt 0.166667 0.333333
vt 0.166667 0.500000
vt 0.166667 0.583333
vt 0.166667 0.750000
vt 0.166667 0.166667
vt 0.166667 0.416667
vt 0.166667 0.666667
vt 0.208333 1.000000
vt 0.833333 0.083333
vt 0.083333 0.166667
vt 0.083333 0.916667
vt 0.125000 1.000000
vt 0.083333 0.333333
vt 0.083333 0.416667
vt 0.083333 0.583333
vt 0.083333 0.666667
vt 1.000000 0.083333
vt 0.916667 0.083333
vt 0.083333 0.833333
vt 0.083333 0.250000
vt 0.083333 0.500000
vt 0.083333 0.750000
vt 0.000000 0.750000
vt 0.000000 0.833333
vt 0.000000 0.166667
vt 0.000000 0.250000
vt 0.000000 0.416667
vt 0.000000 0.500000
vt 0.000000 0.666667
vt 0.000000 0.083333
vt 0.000000 0.916667
vt 0.041667 1.000000
vt 0.000000 0.333333
vt 0.000000 0.583333
vt 1.000000 0.833333
vt 0.916667 0.833333
vt 0.916667 0.916667
vt 1.000000 0.916667
vt 1.000000 0.250000
vt 0.916667 0.250000
vt 0.916667 0.333333
vt 1.000000 0.333333
vt 1.000000 0.500000
vt 0.916667 0.500000
vt 0.916667 0.583333
vt 1.000000 0.583333
vt 1.000000 0.750000
vt 0.916667 0.750000
vt 1.000000 0.166667
vt 0.916667 0.166667
vt 1.000000 0.416667
vt 0.916667 0.416667
vt 1.000000 0.666667
vt 0.916667 0.666667
vt 0.958333 1.000000
vt 0.833333 0.666667
vt 0.833333 0.750000
vt 0.833333 0.166667
vt 0.833333 0.916667
vt 0.875000 1.000000
vt 0.833333 0.333333
vt 0.833333 0.416667
vt 0.833333 0.583333
vt 0.833333 0.833333
vt 0.833333 0.250000
vt 0.833333 0.500000
vt 0.791667 1.000000
vt 0.708333 0.000000
vt 0.625000 0.000000
vt 0.541667 0.000000
vt 0.458333 0.000000
vt 0.375000 0.000000
vt 0.291667 0.000000
vt 0.208333 0.000000
vt 0.125000 0.000000
vt 0.041667 0.000000
vt 0.958333 0.000000
vt 0.875000 0.000000
vt 0.791667 0.000000
s 1
usemtl Material.001
f 1/1/1 7/2/2 6/3/3
f 1/1/1 6/3/3 150/4/4
f 154/5/5 14/6/6 13/7/7
f 154/5/5 13/7/7 153/8/8
f 3/9/9 11/10/10 10/11/11
f 3/9/9 10/11/11 152/12/12
f 151/13/13 8/14/14 7/2/2
f 151/13/13 7/2/2 1/1/1
f 155/15/15 15/16/16 14/6/6
f 155/15/15 14/6/6 154/5/5
f 149/17/17 5/18/18 101/19/19
f 4/20/20 12/21/21 11/10/10
f 4/20/20 11/10/10 3/9/9
f 2/22/22 9/23/23 8/14/14
f 2/22/22 8/14/14 151/13/13
f 26/24/24 157/24/25 158/25/26
f 26/24/24 158/25/26 37/25/27
f 150/4/4 6/3/3 5/18/18
f 150/4/4 5/18/18 149/17/17
f 153/8/8 13/7/7 12/21/21
f 153/8/8 12/21/21 4/20/20
f 152/12/12 10/11/11 9/23/23
f 152/12/12 9/23/23 2/22/22
f 12/21/21 23/26/28 22/27/29
f 12/21/21 22/27/29 11/10/10
f 9/23/23 20/28/30 19/29/31
f 9/23/23 19/29/31 8/14/14
f 15/16/16 156/16/32 157/24/25
f 15/16/16 157/24/25 26/24/24
f 6/3/3 17/30/33 16/31/34
f 6/3/3 16/31/34 5/18/18
f 13/7/7 24/32/35 23/26/28
f 13/7/7 23/26/28 12/21/21
f 10/11/11 21/33/36 20/28/30
f 10/11/11 20/28/30 9/23/23
f 7/2/2 18/34/37 17/30/33
f 7/2/2 17/30/33 6/3/3
f 14/6/6 25/35/38 24/32/35
f 14/6/6 24/32/35 13/7/7
f 11/10/10 22/27/29 21/33/36
f 11/10/10 21/33/36 10/11/11
f 8/14/14 19/29/31 18/34/37
f 8/14/14 18/34/37 7/2/2
f 15/16/16 26/24/24 25/35/38
f 15/16/16 25/35/38 14/6/6
f 5/18/18 16/31/34 100/36/19
f 22/27/29 33/37/39 32/38/40
f 22/27/29 32/38/40 21/33/36
f 19/29/31 30/39/41 29/40/42
f 19/29/31 29/40/42 18/34/37
f 26/24/24 37/25/27 36/41/43
f 26/24/24 36/41/43 25/35/38
f 16/31/34 27/42/44 99/43/19
f 23/26/28 34/44/45 33/37/39
f 23/26/28 33/37/39 22/27/29
f 20/28/30 31/45/46 30/39/41
f 20/28/30 30/39/41 19/29/31
f 81/46/47 162/46/48 163/47/49
f 81/46/47 163/47/49 92/47/50
f 17/30/33 28/48/51 27/42/44
f 17/30/33 27/42/44 16/31/34
f 24/32/35 35/49/52 34/44/45
f 24/32/35 34/44/45 23/26/28
f 21/33/36 32/38/40 31/45/46
f 21/33/36 31/45/46 20/28/30
f 18/34/37 29/40/42 28/48/51
f 18/34/37 28/48/51 17/30/33
f 25/35/38 36/41/43 35/49/52
f 25/35/38 35/49/52 24/32/35
f 35/49/52 46/50/53 45/51/54
f 35/49/52 45/51/54 34/44/45
f 32/38/40 43/52/55 42/53/56
f 32/38/40 42/53/56 31/45/46
f 29/40/42 40/54/57 39/55/58
f 29/40/42 39/55/58 28/48/51
f 36/41/43 47/56/59 46/50/53
f 36/41/43 46/50/53 35/49/52
f 33/37/39 44/57/60 43/52/55
f 33/37/39 43/52/55 32/38/40
f 30/39/41 41/58/61 40/54/57
f 30/39/41 40/54/57 29/40/42
f 37/25/27 48/59/62 47/56/59
f 37/25/27 47/56/59 36/41/43
f 27/42/44 38/60/63 98/61/19
f 34/44/45 45/51/54 44/57/60
f 34/44/45 44/57/60 33/37/39
f 31/45/46 42/53/56 41/58/61
f 31/45/46 41/58/61 30/39/41
f 37/25/27 158/25/26 159/59/64
f 37/25/27 159/59/64 48/59/62
f 28/48/51 39/55/58 38/60/63
f 28/48/51 38/60/63 27/42/44
f 38/60/63 49/62/65 97/63/19
f 45/51/54 56/64/66 55/65/67
f 45/51/54 55/65/67 44/57/60
f 42/53/56 53/66/68 52/67/69
f 42/53/56 52/67/69 41/58/61
f 48/59/62 159/59/64 160/68/70
f 48/59/62 160/68/70 59/68/71
f 39/55/58 50/69/72 49/62/65
f 39/55/58 49/62/65 38/60/63
f 46/50/53 57/70/73 56/64/66
f 46/50/53 56/64/66 45/51/54
f 43/52/55 54/71/74 53/66/68
f 43/52/55 53/66/68 42/53/56
f 40/54/57 51/72/75 50/69/72
f 40/54/57 50/69/72 39/55/58
f 47/56/59 58/73/76 57/70/73
f 47/56/59 57/70/73 46/50/53
f 44/57/60 55/65/67 54/71/74
f 44/57/60 54/71/74 43/52/55
f 41/58/61 52/67/69 51/72/75
f 41/58/61 51/72/75 40/54/57
f 48/59/62 59/68/71 58/73/76
f 48/59/62 58/73/76 47/56/59
f 58/73/76 69/74/77 68/75/78
f 58/73/76 68/75/78 57/70/73
f 55/65/67 66/76/79 65/77/80
f 55/65/67 65/77/80 54/71/74
f 52/67/69 63/78/81 62/79/82
f 52/67/69 62/79/82 51/72/75
f 59/68/71 70/80/83 69/74/77
f 59/68/71 69/74/77 58/73/76
f 49/62/65 60/81/84 96/82/19
f 56/64/66 67/83/85 66/76/79
f 56/64/66 66/76/79 55/65/67
f 53/66/68 64/84/86 63/78/81
f 53/66/68 63/78/81 52/67/69
f 70/80/83 161/80/87 162/46/48
f 70/80/83 162/46/48 81/46/47
f 50/69/72 61/85/88 60/81/84
f 50/69/72 60/81/84 49/62/65
f 57/70/73 68/75/78 67/83/85
f 57/70/73 67/83/85 56/64/66
f 54/71/74 65/77/80 64/84/86
f 54/71/74 64/84/86 53/66/68
f 51/72/75 62/79/82 61/85/88
f 51/72/75 61/85/88 50/69/72
f 61/85/88 72/86/89 71/87/90
f 61/85/88 71/87/90 60/81/84
f 68/75/78 79/88/91 78/89/92
f 68/75/78 78/89/92 67/83/85
f 65/77/80 76/90/93 75/91/94
f 65/77/80 75/91/94 64/84/86
f 62/79/82 73/92/95 72/86/89
f 62/79/82 72/86/89 61/85/88
f 69/74/77 80/93/96 79/88/91
f 69/74/77 79/88/91 68/75/78
f 66/76/79 77/94/97 76/90/93
f 66/76/79 76/90/93 65/77/80
f 63/78/81 74/95/98 73/92/95
f 63/78/81 73/92/95 62/79/82
f 70/80/83 81/46/47 80/93/96
f 70/80/83 80/93/96 69/74/77
f 60/81/84 71/87/90 95/96/19
f 67/83/85 78/89/92 77/94/97
f 67/83/85 77/94/97 66/76/79
f 64/84/86 75/91/94 74/95/98
f 64/84/86 74/95/98 63/78/81
f 148/97/99 167/97/100 168/15/101
f 148/97/99 168/15/101 155/15/15
f 81/46/47 92/47/50 91/98/102
f 81/46/47 91/98/102 80/93/96
f 71/87/90 82/99/103 94/100/19
f 78/89/92 89/101/104 88/102/105
f 78/89/92 88/102/105 77/94/97
f 75/91/94 86/103/106 85/104/107
f 75/91/94 85/104/107 74/95/98
f 126/105/108 165/105/109 166/106/110
f 126/105/108 166/106/110 137/106/111
f 72/86/89 83/107/112 82/99/103
f 72/86/89 82/99/103 71/87/90
f 79/88/91 90/108/113 89/101/104
f 79/88/91 89/101/104 78/89/92
f 76/90/93 87/109/114 86/103/106
f 76/90/93 86/103/106 75/91/94
f 73/92/95 84/110/115 83/107/112
f 73/92/95 83/107/112 72/86/89
f 80/93/96 91/98/102 90/108/113
f 80/93/96 90/108/113 79/88/91
f 77/94/97 88/102/105 87/109/114
f 77/94/97 87/109/114 76/90/93
f 74/95/98 85/104/107 84/110/115
f 74/95/98 84/110/115 73/92/95
f 84/110/115 109/111/116 107/112/117
f 84/110/115 107/112/117 83/107/112
f 91/98/102 123/113/118 121/114/119
f 91/98/102 121/114/119 90/108/113
f 88/102/105 117/115/120 115/116/121
f 88/102/105 115/116/121 87/109/114
f 85/104/107 111/117/122 109/111/116
f 85/104/107 109/111/116 84/110/115
f 92/47/50 125/118/108 123/113/118
f 92/47/50 123/113/118 91/98/102
f 82/99/103 105/119/123 93/120/19
f 89/101/104 119/121/124 117/115/120
f 89/101/104 117/115/120 88/102/105
f 86/103/106 113/122/125 111/117/122
f 86/103/106 111/117/122 85/104/107
f 92/47/50 163/47/49 164/118/109
f 92/47/50 164/118/109 125/118/108
f 83/107/112 107/112/117 105/119/123
f 83/107/112 105/119/123 82/99/103
f 90/108/113 121/114/119 119/121/124
f 90/108/113 119/121/124 89/101/104
f 87/109/114 115/116/121 113/122/125
f 87/109/114 113/122/125 86/103/106
f 59/68/71 160/68/70 161/80/87
f 59/68/71 161/80/87 70/80/83
f 108/123/117 128/124/126 127/125/127
f 108/123/117 127/125/127 106/126/123
f 122/127/119 135/128/128 134/129/129
f 122/127/119 134/129/129 120/130/124
f 116/131/121 132/132/130 131/133/131
f 116/131/121 131/133/131 114/134/125
f 110/135/116 129/136/132 128/124/126
f 110/135/116 128/124/126 108/123/117
f 124/137/118 136/138/133 135/128/128
f 124/137/118 135/128/128 122/127/119
f 118/139/120 133/140/134 132/132/130
f 118/139/120 132/132/130 116/131/121
f 112/141/122 130/142/135 129/136/132
f 112/141/122 129/136/132 110/135/116
f 126/105/108 137/106/111 136/138/133
f 126/105/108 136/138/133 124/137/118
f 106/126/123 127/125/127 104/143/19
f 120/130/124 134/129/129 133/140/134
f 120/130/124 133/140/134 118/139/120
f 114/134/125 131/133/131 130/142/135
f 114/134/125 130/142/135 112/141/122
f 130/142/135 141/144/136 140/145/137
f 130/142/135 140/145/137 129/136/132
f 137/106/111 148/97/99 147/146/138
f 137/106/111 147/146/138 136/138/133
f 127/125/127 138/147/139 103/148/19
f 134/129/129 145/149/140 144/150/141
f 134/129/129 144/150/141 133/140/134
f 131/133/131 142/151/142 141/144/136
f 131/133/131 141/144/136 130/142/135
f 137/106/111 166/106/110 167/97/100
f 137/106/111 167/97/100 148/97/99
f 128/124/126 139/152/143 138/147/139
f 128/124/126 138/147/139 127/125/127
f 135/128/128 146/153/144 145/149/140
f 135/128/128 145/149/140 134/129/129
f 132/132/130 143/154/145 142/151/142
f 132/132/130 142/151/142 131/133/131
f 129/136/132 140/145/137 139/152/143
f 129/136/132 139/152/143 128/124/126
f 136/138/133 147/146/138 146/153/144
f 136/138/133 146/153/144 135/128/128
f 133/140/134 144/150/141 143/154/145
f 133/140/134 143/154/145 132/132/130
f 140/145/137 1/1/1 150/4/4
f 140/145/137 150/4/4 139/152/143
f 147/146/138 154/5/5 153/8/8
f 147/146/138 153/8/8 146/153/144
f 144/150/141 3/9/9 152/12/12
f 144/150/141 152/12/12 143/154/145
f 141/144/136 151/13/13 1/1/1
f 141/144/136 1/1/1 140/145/137
f 148/97/99 155/15/15 154/5/5
f 148/97/99 154/5/5 147/146/138
f 138/147/139 149/17/17 102/155/19
f 145/149/140 4/20/20 3/9/9
f 145/149/140 3/9/9 144/150/141
f 142/151/142 2/22/22 151/13/13
f 142/151/142 151/13/13 141/144/136
f 155/15/15 168/15/101 156/16/32
f 155/15/15 156/16/32 15/16/16
f 139/152/143 150/4/4 149/17/17
f 139/152/143 149/17/17 138/147/139
f 146/153/144 153/8/8 4/20/20
f 146/153/144 4/20/20 145/149/140
f 143/154/145 152/12/12 2/22/22
f 143/154/145 2/22/22 142/151/142
f 177/156/146 156/16/32 168/15/101
f 176/157/146 157/24/25 156/16/32
f 175/158/146 158/25/26 157/24/25
f 174/159/146 159/59/64 158/25/26
f 173/160/146 160/68/70 159/59/64
f 172/161/146 161/80/87 160/68/70
f 171/162/146 162/46/48 161/80/87
f 170/163/146 163/47/49 162/46/48
f 169/164/146 164/118/109 163/47/49
f 180/165/146 166/106/110 165/105/109
f 179/166/146 167/97/100 166/106/110
f 178/167/146 168/15/101 167/97/100
