# Blender 4.0.2
# www.blender.org
o Basket040
v -0.099650 0.098939 0.000960
v 0.099389 0.098939 -0.000000
v -0.098690 0.098939 0.197184
v 0.099389 0.098939 0.197184
v -0.082034 0.082283 -0.000000
v 0.082733 0.082283 -0.000000
v -0.082034 0.081323 0.196223
v 0.100350 0.082266 0.016656
v 0.100350 0.083244 0.179568
v 0.082733 0.098939 0.017616
v -0.082034 0.099900 0.016656
v -0.082995 0.099900 0.179568
v 0.082733 0.098939 0.179568
v -0.098690 0.082283 0.017616
v -0.098690 0.082283 0.179568
v -0.082034 0.082283 0.003853
v 0.082733 0.082283 0.003853
v 0.096497 0.082283 0.017616
v 0.096497 0.082283 0.179568
v 0.082733 0.096047 0.017616
v -0.082034 0.096047 0.017616
v -0.082034 0.096047 0.179568
v 0.082733 0.096047 0.179568
v -0.095798 0.082283 0.017616
v -0.095798 0.082283 0.179568
v 0.082733 0.081323 0.021949
v -0.081073 0.081323 0.020989
v -0.082034 0.081323 0.178115
v 0.082733 0.081323 0.178115
v -0.098690 0.082283 -0.000000
v 0.100350 0.082266 0.000960
v -0.099650 0.082283 0.196223
v 0.082733 0.098939 -0.000000
v -0.082034 0.099900 0.000960
v 0.082733 0.099900 0.196223
v -0.082034 0.098939 0.197184
v -0.099650 0.098939 0.017616
v 0.099389 0.099900 0.017616
v 0.099389 0.082283 0.197184
v 0.100350 0.098939 0.179568
v -0.098690 0.099900 0.179568
v -0.098690 0.099900 0.000960
v -0.098690 0.098939 -0.000000
v 0.099389 0.099900 0.000960
v 0.100350 0.098939 0.000960
v -0.098690 0.099900 0.196223
v -0.099650 0.098939 0.196223
v 0.100350 0.098939 0.196223
v 0.099389 0.099900 0.196223
v 0.082733 0.083244 0.197184
v 0.083694 0.082283 0.197184
v -0.082995 0.082283 0.197184
v 0.100350 0.083244 0.017616
v 0.099389 0.082283 0.017616
v 0.100350 0.082283 0.180529
v 0.099389 0.082283 0.179568
v 0.083694 0.099900 0.017616
v 0.082733 0.099900 0.016656
v -0.082995 0.099900 0.017616
v -0.082034 0.098939 0.017616
v -0.082034 0.099900 0.180529
v -0.082034 0.098939 0.179568
v 0.082733 0.099900 0.180529
v 0.083694 0.099900 0.179568
v -0.099650 0.083244 0.017616
v -0.099650 0.082283 0.016656
v -0.099650 0.082283 0.180529
v -0.099650 0.083244 0.179568
v -0.099650 0.082283 0.000960
v 0.099389 0.082266 -0.000000
v -0.098690 0.082283 0.197184
v 0.082733 0.099900 0.000960
v -0.082034 0.098939 -0.000000
v 0.082733 0.098939 0.197184
v -0.082034 0.099900 0.196223
v -0.098690 0.099900 0.017616
v 0.100350 0.098939 0.017616
v 0.100350 0.082283 0.196223
v 0.099389 0.099900 0.179568
v -0.099650 0.098939 0.179568
v 0.100350 0.098939 0.180529
v 0.099389 0.099900 0.180529
v 0.100350 0.098939 0.016656
v 0.099389 0.099900 0.016656
v -0.098690 0.099900 0.016656
v -0.099650 0.098939 0.016656
v -0.098690 0.099900 0.180529
v -0.099650 0.098939 0.180529
v -0.081073 0.082283 0.196223
v -0.082034 0.083244 0.197184
v 0.081773 0.082283 0.021949
v 0.081773 0.081323 0.020989
v -0.081073 0.082283 0.021949
v -0.082034 0.081323 0.021949
v -0.081073 0.082283 0.178115
v 0.081773 0.082283 0.178115
v 0.081773 0.082283 0.196223
v 0.082733 0.081323 0.196223
v -0.081073 0.082283 0.155838
v 0.081773 0.082283 0.155838
v 0.082733 0.081323 0.155838
v -0.082034 0.081323 0.155838
v -0.025203 0.082283 0.154878
v -0.024243 0.082283 0.196223
v -0.024532 0.083244 0.197184
v -0.024532 0.098939 0.197184
v -0.024532 0.099900 0.196223
v -0.024532 0.099900 0.180529
v -0.024532 0.098939 0.179568
v -0.025494 0.096047 0.179568
v -0.024243 0.081323 0.020989
v -0.024243 0.082283 0.021949
v 0.028666 0.098939 0.179568
v 0.028666 0.099900 0.180529
v 0.028666 0.099900 0.196223
v 0.028666 0.098939 0.197184
v 0.028666 0.083244 0.197184
v 0.028335 0.082283 0.196223
v 0.029297 0.082283 0.178115
v 0.029297 0.082283 0.154878
v 0.028335 0.082283 0.021949
v 0.028335 0.081323 0.020989
v 0.029626 0.096047 0.154858
v -0.023552 0.095086 0.155820
v -0.023301 0.083244 0.155837
v -0.024263 0.083244 0.156798
v -0.024263 0.083239 0.178216
v -0.025203 0.082283 0.178115
v -0.024512 0.095092 0.179467
v 0.028643 0.095092 0.179467
v 0.029626 0.096047 0.179568
v 0.028358 0.083239 0.178216
v 0.028358 0.083244 0.156798
v 0.027398 0.083244 0.155837
v 0.027681 0.095086 0.155820
v 0.028643 0.095086 0.156781
v -0.025494 0.096047 0.154858
v -0.024512 0.095086 0.156781
v -0.095798 -0.082277 0.017616
v -0.095798 -0.082277 0.179568
v -0.098690 -0.099894 0.016656
v -0.098690 -0.099894 0.017616
v -0.082995 -0.099894 0.017616
v -0.082034 -0.099894 0.016656
v -0.098690 -0.099894 0.180529
v -0.098690 -0.099894 0.196223
v -0.082034 -0.099894 0.196223
v -0.082034 -0.099894 0.180529
v 0.082733 -0.099894 0.196223
v 0.099389 -0.099894 0.196223
v 0.099389 -0.099894 0.180529
v 0.082733 -0.099894 0.180529
v 0.099389 -0.099894 0.017616
v 0.099389 -0.099894 0.016656
v 0.082733 -0.099894 0.016656
v 0.083694 -0.099894 0.017616
v -0.099650 -0.082277 0.196223
v -0.099650 -0.098932 0.196223
v -0.099650 -0.098932 0.180529
v -0.099650 -0.082277 0.180529
v -0.082034 -0.082277 0.000000
v 0.082733 -0.082277 0.000000
v 0.082733 -0.082277 0.003853
v -0.082034 -0.082277 0.003853
v 0.099389 -0.082277 0.017616
v 0.099389 -0.082277 0.179568
v 0.096497 -0.082277 0.179568
v 0.096497 -0.082277 0.017616
v 0.082733 -0.098932 0.017616
v -0.082034 -0.098932 0.017616
v -0.082034 -0.096041 0.017616
v 0.082733 -0.096041 0.017616
v -0.082034 -0.098932 0.179568
v -0.082034 -0.096041 0.179568
v -0.024532 -0.098932 0.179568
v -0.025494 -0.096041 0.179568
v 0.082733 -0.098932 0.179568
v 0.082733 -0.096041 0.179568
v -0.098690 -0.082277 0.017616
v -0.098690 -0.082277 0.179568
v 0.081773 -0.082277 0.196223
v 0.028335 -0.082277 0.196223
v 0.029297 -0.082277 0.178115
v 0.081773 -0.082277 0.178115
v -0.082034 -0.081316 0.196223
v -0.082034 -0.081316 0.178115
v 0.082733 -0.081316 0.178115
v 0.082733 -0.081316 0.155838
v -0.081073 -0.082277 0.178115
v -0.081073 -0.082277 0.155838
v -0.025203 -0.082277 0.178115
v -0.098690 -0.082277 0.000000
v -0.098690 -0.098932 0.000000
v -0.082034 -0.098932 0.000000
v 0.100350 -0.098932 0.016656
v 0.100350 -0.098932 0.017616
v 0.100350 -0.083238 0.017616
v 0.100350 -0.082260 0.016656
v -0.098690 -0.082277 0.197184
v -0.082995 -0.082277 0.197184
v 0.082733 -0.098932 0.000000
v 0.099389 -0.098932 0.000000
v 0.099389 -0.082260 0.000000
v 0.082733 -0.099894 0.000960
v -0.082034 -0.099894 0.000960
v 0.028666 -0.099894 0.180529
v 0.028666 -0.099894 0.196223
v 0.082733 -0.098932 0.197184
v 0.028666 -0.098932 0.197184
v 0.028666 -0.083238 0.197184
v 0.082733 -0.083238 0.197184
v -0.082034 -0.098932 0.197184
v -0.082034 -0.083238 0.197184
v -0.099650 -0.098932 0.017616
v -0.099650 -0.098932 0.016656
v -0.099650 -0.082277 0.016656
v -0.099650 -0.083238 0.017616
v 0.100350 -0.098932 0.180529
v 0.100350 -0.098932 0.196223
v 0.100350 -0.082277 0.196223
v 0.100350 -0.082277 0.180529
v 0.099389 -0.082277 0.197184
v 0.083694 -0.082277 0.197184
v 0.100350 -0.083238 0.179568
v 0.100350 -0.098932 0.179568
v 0.099389 -0.099894 0.179568
v 0.083694 -0.099894 0.179568
v -0.082995 -0.099894 0.179568
v -0.098690 -0.099894 0.179568
v -0.099650 -0.098932 0.179568
v -0.099650 -0.083238 0.179568
v -0.099650 -0.098932 0.000960
v -0.098690 -0.099894 0.000960
v 0.099389 -0.099894 0.000960
v 0.100350 -0.098932 0.000960
v -0.098690 -0.098932 0.197184
v 0.099389 -0.098932 0.197184
v 0.100350 -0.082260 0.000960
v 0.082733 -0.081316 0.196223
v -0.081073 -0.082277 0.196223
v -0.024243 -0.082277 0.196223
v -0.024532 -0.083238 0.197184
v -0.024532 -0.099894 0.180529
v -0.099650 -0.082277 0.000960
v 0.082733 -0.081316 0.021949
v 0.081773 -0.082277 0.021949
v 0.081773 -0.081316 0.020989
v -0.081073 -0.081316 0.020989
v -0.081073 -0.082277 0.021949
v -0.082034 -0.081316 0.021949
v -0.024243 -0.081316 0.020989
v -0.024243 -0.082277 0.021949
v -0.082034 -0.081316 0.155838
v 0.081773 -0.082277 0.155838
v -0.025203 -0.082277 0.154878
v -0.024512 -0.095085 0.179467
v -0.024532 -0.099894 0.196223
v -0.024532 -0.098932 0.197184
v 0.028666 -0.098932 0.179568
v 0.028335 -0.081316 0.020989
v 0.028335 -0.082277 0.021949
v 0.029297 -0.082277 0.154878
v 0.029626 -0.096041 0.179568
v 0.029626 -0.096041 0.154858
v -0.024512 -0.095080 0.156781
v -0.024263 -0.083233 0.178216
v -0.024263 -0.083238 0.156798
v 0.027681 -0.095080 0.155820
v -0.023552 -0.095080 0.155820
v -0.023301 -0.083238 0.155837
v 0.027398 -0.083238 0.155837
v 0.028643 -0.095085 0.179467
v 0.028643 -0.095080 0.156781
v 0.028358 -0.083238 0.156798
v 0.028358 -0.083233 0.178216
v -0.025494 -0.096041 0.154858
vn 0.0068 1.0000 -0.0000
vn -0.0163 0.9999 -0.0000
vn -0.0000 1.0000 0.0047
vn -0.0000 0.9999 0.0165
vn -0.0160 0.9997 0.0162
vn -0.0000 1.0000 -0.0046
vn 0.0160 0.9997 0.0162
vn 0.0163 0.9999 -0.0000
vn -0.0068 1.0000 -0.0000
vn 0.0162 0.9999 -0.0000
vn -0.0000 1.0000 0.0046
vn -0.9997 0.0160 0.0162
vn -0.9999 0.0163 -0.0000
vn -0.9999 -0.0000 0.0165
vn -1.0000 -0.0000 -0.0047
vn -0.0000 -1.0000 -0.0000
vn -0.0000 -0.0000 1.0000
vn 1.0000 -0.0000 -0.0000
vn -0.0009 0.0003 -1.0000
vn -0.0000 -0.0000 -1.0000
vn -1.0000 -0.0000 -0.0000
vn -0.0002 -1.0000 -0.0000
vn -0.0007 -1.0000 0.0058
vn -0.0000 -1.0000 0.0058
vn -0.0031 -1.0000 -0.0000
vn -1.0000 -0.0053 -0.0000
vn -1.0000 0.0059 -0.0000
vn -1.0000 -0.0029 -0.0000
vn 0.0055 -1.0000 -0.0000
vn 0.0003 -1.0000 -0.0000
vn 0.0031 -1.0000 -0.0000
vn 0.0003 -1.0000 0.0006
vn -0.0155 -0.0000 -0.9999
vn -0.0000 0.0078 -1.0000
vn -0.0155 0.0013 -0.9999
vn 1.0000 -0.0068 -0.0000
vn 0.9999 0.0162 -0.0000
vn 0.9999 0.0163 -0.0000
vn 1.0000 -0.0000 0.0046
vn -1.0000 -0.0000 -0.0046
vn 0.0153 0.0140 -0.9998
vn 0.0155 0.0004 -0.9999
vn -0.0000 0.0142 -0.9999
vn -0.0000 0.9999 -0.0151
vn -0.0000 1.0000 -0.0083
vn -0.0000 0.9999 -0.0137
vn -0.0000 0.0109 0.9999
vn -0.0000 0.0164 0.9999
vn -0.0000 -0.0136 0.9999
vn -0.0000 -0.0068 1.0000
vn -0.0000 0.0110 0.9999
vn -0.0110 -0.0000 0.9999
vn 0.0069 -0.0000 1.0000
vn 0.0001 -0.0069 1.0000
vn -1.0000 -0.0068 -0.0000
vn -1.0000 -0.0000 0.0046
vn 0.9999 -0.0000 0.0165
vn 0.9997 0.0160 0.0162
vn 1.0000 -0.0000 -0.0047
vn -0.0069 -0.0001 1.0000
vn 0.0110 -0.0000 0.9999
vn -1.0000 -0.0069 -0.0000
vn -0.9997 0.0160 -0.0163
vn -0.0163 0.9999 -0.0014
vn 0.0160 0.9998 -0.0149
vn 0.9997 0.0160 -0.0163
vn -0.0162 0.0161 0.9997
vn 0.0161 0.0162 0.9997
vn 0.8161 -0.4054 0.4119
vn 0.8161 -0.4054 -0.4119
vn -0.4051 0.8161 0.4122
vn 0.4051 0.8161 0.4122
vn 0.4051 0.8161 -0.4122
vn -0.4051 0.8161 -0.4121
vn -0.8161 -0.4054 0.4119
vn -0.8161 -0.4054 -0.4119
vn 0.9999 -0.0001 -0.0165
vn -1.0000 0.0058 0.0056
vn -1.0000 -0.0007 0.0055
vn -0.0068 -0.0000 1.0000
vn 0.0007 -1.0000 0.0058
vn 0.8161 0.4054 -0.4119
vn 1.0000 -0.0000 -0.0046
vn -0.0000 0.7071 -0.7071
vn -0.9999 -0.0000 -0.0165
vn 0.9999 -0.0000 -0.0165
vn 0.0155 -0.0000 -0.9999
vn -0.0109 -0.0000 0.9999
vn 1.0000 -0.0007 0.0056
vn -1.0000 -0.0052 0.0055
vn -0.0055 -1.0000 0.0057
vn -0.0059 -0.0058 1.0000
vn 0.0058 -0.0059 1.0000
vn 0.0055 -1.0000 0.0057
vn 1.0000 -0.0053 0.0055
vn 1.0000 -0.0030 -0.0000
vn -0.0000 -0.0059 1.0000
vn -0.0000 -1.0000 0.0057
vn 1.0000 -0.0053 -0.0000
vn -0.0055 -1.0000 -0.0000
vn -0.0774 0.0257 -0.9967
vn -0.0000 0.0163 0.9999
vn -0.0003 -1.0000 0.0006
vn -0.0000 0.0059 1.0000
vn -0.0001 0.0059 1.0000
vn -0.0000 1.0000 -0.0000
vn -0.0005 1.0000 0.0010
vn -0.0009 1.0000 -0.0001
vn 0.9985 -0.0547 -0.0000
vn 0.9940 0.1022 0.0398
vn 0.9949 0.1007 -0.0000
vn 0.9976 -0.0563 0.0401
vn 0.0177 0.0803 0.9966
vn -0.0178 -0.0759 0.9970
vn -0.0177 0.0803 0.9966
vn 0.0177 -0.0760 0.9970
vn -0.9987 -0.0518 -0.0000
vn -0.9937 0.1050 0.0398
vn -0.9978 -0.0534 0.0401
vn -0.9946 0.1036 -0.0000
vn -0.0000 0.1050 -0.9945
vn 0.0004 1.0000 0.0010
vn 0.0009 1.0000 -0.0000
vn 0.0009 0.0003 -1.0000
vn 0.0772 0.0257 -0.9967
vn -0.0000 0.0868 -0.9962
vn -0.0001 0.0868 -0.9962
vn -0.0000 0.0262 -0.9997
vn 1.0000 0.0029 -0.0000
vn 1.0000 0.0053 0.0001
vn 1.0000 0.0053 0.0054
vn 0.0058 0.0059 1.0000
vn 0.0068 -1.0000 -0.0000
vn -0.0163 -0.9999 -0.0000
vn -0.0000 -1.0000 0.0047
vn -0.0000 -0.9999 0.0165
vn -0.0160 -0.9997 0.0162
vn -0.0000 -1.0000 -0.0046
vn 0.0160 -0.9997 0.0162
vn 0.0163 -0.9999 -0.0000
vn -0.0000 -1.0000 -0.0047
vn -0.0068 -1.0000 -0.0000
vn 0.0162 -0.9999 -0.0000
vn -0.0000 -1.0000 0.0046
vn -0.9997 -0.0160 0.0162
vn -0.9999 -0.0163 -0.0000
vn -0.0009 -0.0003 -1.0000
vn -0.0061 1.0000 -0.0000
vn -0.0002 1.0000 -0.0000
vn -0.0062 1.0000 0.0058
vn -0.0000 1.0000 0.0058
vn 1.0000 0.0006 0.0056
vn 0.0003 1.0000 -0.0000
vn 0.0055 1.0000 -0.0000
vn 0.0031 1.0000 -0.0000
vn 0.0003 1.0000 0.0006
vn -0.0000 -0.0155 -0.9999
vn -0.0153 -0.0153 -0.9998
vn 1.0000 0.0068 -0.0000
vn 0.9999 -0.0163 -0.0000
vn 0.9999 -0.0162 -0.0000
vn 1.0000 -0.0000 0.0047
vn 0.0153 -0.0153 -0.9998
vn -0.0000 -0.9999 -0.0165
vn -0.0000 -0.9999 -0.0164
vn -0.0000 -0.9999 -0.0137
vn -0.0000 0.0136 0.9999
vn -0.0000 -0.0109 0.9999
vn -0.0000 0.0068 1.0000
vn -0.0000 -0.0164 0.9999
vn -0.0000 -0.0110 0.9999
vn -0.0000 0.0069 1.0000
vn -1.0000 0.0068 -0.0000
vn 0.9997 -0.0160 0.0162
vn 0.0109 -0.0000 0.9999
vn 0.0068 -1.0000 -0.0001
vn -0.9997 -0.0160 -0.0162
vn -0.0160 -0.9997 -0.0163
vn 0.9997 -0.0160 -0.0163
vn 0.0160 -0.9997 -0.0162
vn -0.0161 -0.0161 0.9997
vn 0.0162 -0.0161 0.9997
vn 0.8161 0.4054 0.4119
vn -0.4051 -0.8161 0.4122
vn 0.4051 -0.8161 0.4122
vn 0.4051 -0.8161 -0.4122
vn -0.4051 -0.8161 -0.4121
vn -0.8161 0.4054 0.4119
vn -0.8161 0.4054 -0.4119
vn 0.0007 1.0000 0.0058
vn -0.0000 -0.7071 -0.7071
vn -0.9999 -0.0000 -0.0164
vn -1.0000 0.0058 0.0055
vn -0.0058 0.0059 1.0000
vn -0.0061 1.0000 0.0057
vn 0.0055 1.0000 0.0058
vn -0.0000 1.0000 0.0057
vn -0.0774 -0.0257 -0.9967
vn -0.0000 0.9999 0.0114
vn -0.0004 1.0000 0.0010
vn -0.0004 -1.0000 0.0010
vn -0.0009 -1.0000 -0.0000
vn 0.9949 -0.1007 -0.0000
vn 0.9940 -0.1022 0.0398
vn 0.9985 0.0547 -0.0000
vn 0.9976 0.0563 0.0401
vn -0.0177 0.0759 0.9970
vn 0.0177 -0.0802 0.9966
vn -0.0177 -0.0803 0.9966
vn 0.0177 0.0760 0.9970
vn -0.9987 0.0518 -0.0000
vn -0.9937 -0.1050 0.0398
vn -0.9946 -0.1036 -0.0000
vn -0.9978 0.0534 0.0401
vn -0.0000 -0.1050 -0.9945
vn 0.0005 -1.0000 0.0010
vn 0.0009 -1.0000 -0.0001
vn 0.0009 -0.0003 -1.0000
vn 0.0772 -0.0257 -0.9967
vn -0.0000 -0.0868 -0.9962
vn 0.0001 -0.0868 -0.9962
vn -0.0000 -0.0262 -0.9997
vt 0.919169 0.053743
vt 0.917763 0.030802
vt 0.919169 0.030802
vt 0.917777 0.055185
vt 0.821659 0.296243
vt 0.844628 0.320606
vt 0.821703 0.320602
vt 0.844623 0.296230
vt 0.821722 0.030860
vt 0.844649 0.030862
vt 0.821678 0.055223
vt 0.844644 0.055241
vt 0.917765 0.320561
vt 0.919170 0.297625
vt 0.919171 0.320561
vt 0.917778 0.296183
vt 0.819646 0.322566
vt 0.819817 0.345491
vt 0.795353 0.322630
vt 0.795442 0.345613
vt 0.862835 0.296177
vt 0.862835 0.055191
vt 0.868470 0.055191
vt 0.868470 0.296177
vt 0.829980 0.752038
vt 0.825751 0.988904
vt 0.825751 0.752038
vt 0.829980 0.988904
vt 0.923994 0.055191
vt 0.919766 0.296177
vt 0.919765 0.055191
vt 0.923995 0.296177
vt 0.967733 0.752092
vt 0.963504 0.988959
vt 0.963504 0.752092
vt 0.967733 0.988959
vt 0.850815 0.213530
vt 0.850842 0.296211
vt 0.846613 0.296212
vt 0.846585 0.212125
vt 0.769650 0.988904
vt 0.769650 0.752038
vt 0.773879 0.752038
vt 0.773879 0.988904
vt 0.907403 0.988959
vt 0.907403 0.752092
vt 0.911632 0.752092
vt 0.911632 0.988959
vt 0.768231 0.133393
vt 0.794702 0.056610
vt 0.794717 0.134793
vt 0.768212 0.056675
vt 0.003906 0.670283
vt 0.241779 0.670283
vt 0.003906 0.702864
vt 0.241779 0.702864
vt 0.906665 0.741960
vt 0.939320 0.660328
vt 0.939245 0.742002
vt 0.905303 0.660229
vt 0.868447 0.030836
vt 0.892832 0.055187
vt 0.892802 0.030826
vt 0.919113 0.345512
vt 0.917772 0.322548
vt 0.919177 0.322551
vt 0.917703 0.346938
vt 0.584022 0.991953
vt 0.584022 0.751271
vt 0.606977 0.751271
vt 0.606977 0.991953
vt 0.892804 0.320544
vt 0.868424 0.320533
vt 0.892832 0.296181
vt 0.894819 0.296181
vt 0.894819 0.055187
vt 0.821645 0.134312
vt 0.844601 0.134318
vt 0.819690 0.055222
vt 0.819658 0.134312
vt 0.796704 0.134309
vt 0.796714 0.055195
vt 0.819670 0.296244
vt 0.795357 0.320639
vt 0.795365 0.297680
vt 0.796700 0.296262
vt 0.917766 0.028812
vt 0.919082 0.005828
vt 0.919171 0.028808
vt 0.917672 0.004427
vt 0.795366 0.028811
vt 0.819850 0.005966
vt 0.819667 0.028893
vt 0.795474 0.005829
vt 0.795378 0.053753
vt 0.795369 0.030799
vt 0.800809 0.988904
vt 0.800809 0.752038
vt 0.823763 0.752038
vt 0.823763 0.988904
vt 0.775866 0.752038
vt 0.798821 0.988904
vt 0.775866 0.988904
vt 0.798821 0.752038
vt 0.938561 0.988959
vt 0.938561 0.752092
vt 0.961516 0.752092
vt 0.961516 0.988959
vt 0.913619 0.988959
vt 0.913619 0.752092
vt 0.936574 0.752092
vt 0.936574 0.988959
vt 0.894868 0.028866
vt 0.894788 0.030824
vt 0.892905 0.028963
vt 0.892909 0.322411
vt 0.894790 0.320546
vt 0.894868 0.322507
vt 0.819719 0.320605
vt 0.821607 0.322462
vt 0.819738 0.030856
vt 0.821624 0.029000
vt 0.919629 0.347431
vt 0.796888 0.004432
vt 0.794971 0.003906
vt 0.846017 0.297670
vt 0.846633 0.055259
vt 0.846037 0.053800
vt 0.919590 0.003906
vt 0.794938 0.347536
vt 0.796855 0.347011
vt 0.892753 0.346870
vt 0.894743 0.346882
vt 0.463907 0.752658
vt 0.465894 0.991935
vt 0.463907 0.990530
vt 0.465894 0.751252
vt 0.794688 0.294854
vt 0.796700 0.212129
vt 0.794713 0.211705
vt 0.515778 0.751252
vt 0.515778 0.991935
vt 0.513791 0.751252
vt 0.513791 0.991935
vt 0.844597 0.212125
vt 0.894700 0.004536
vt 0.892712 0.004552
vt 0.652966 0.751310
vt 0.654953 0.991943
vt 0.652966 0.991943
vt 0.654953 0.751310
vt 0.582035 0.751271
vt 0.582035 0.991953
vt 0.821841 0.005983
vt 0.821805 0.345474
vt 0.819859 0.004561
vt 0.821849 0.004576
vt 0.846055 0.030863
vt 0.846033 0.320605
vt 0.819825 0.346897
vt 0.821815 0.346881
vt 0.794441 0.296840
vt 0.710842 0.501790
vt 0.710855 0.503773
vt 0.708877 0.503743
vt 0.708885 0.741956
vt 0.710863 0.741927
vt 0.710851 0.743911
vt 0.794500 0.054672
vt 0.768205 0.054696
vt 0.768179 0.296750
vt 0.768187 0.294771
vt 0.708876 0.658816
vt 0.710864 0.658815
vt 0.939242 0.743989
vt 0.906665 0.743947
vt 0.939230 0.503672
vt 0.906651 0.503722
vt 0.939227 0.501685
vt 0.906650 0.501734
vt 0.852213 0.212094
vt 0.768231 0.213102
vt 0.821642 0.212128
vt 0.819655 0.212128
vt 0.846588 0.134319
vt 0.710864 0.581922
vt 0.708876 0.581922
vt 0.905295 0.580488
vt 0.241779 0.317418
vt 0.003906 0.394317
vt 0.003906 0.317418
vt 0.241779 0.394317
vt 0.939314 0.580381
vt 0.487895 0.494054
vt 0.451791 0.416357
vt 0.487974 0.416459
vt 0.251051 0.494013
vt 0.964124 0.391867
vt 0.982178 0.360927
vt 0.981417 0.394098
vt 0.964858 0.360550
vt 0.982193 0.358939
vt 0.964922 0.284411
vt 0.982243 0.284007
vt 0.964874 0.358563
vt 0.964124 0.251108
vt 0.982228 0.282020
vt 0.964907 0.282424
vt 0.981415 0.248850
vt 0.907269 0.657408
vt 0.908206 0.658320
vt 0.766826 0.211727
vt 0.766826 0.134765
vt 0.908198 0.582393
vt 0.907260 0.583304
vt 0.453760 0.413474
vt 0.454697 0.414400
vt 0.453751 0.338593
vt 0.451783 0.335715
vt 0.454687 0.337668
vt 0.939470 0.658367
vt 0.487962 0.335616
vt 0.487818 0.337618
vt 0.939464 0.582339
vt 0.487830 0.414454
vt 0.251051 0.253041
vt 0.487885 0.252994
vt 0.850818 0.132915
vt 0.850863 0.055262
vt 0.852217 0.134354
vt 0.749392 0.212092
vt 0.749392 0.134348
vt 0.623794 0.991967
vt 0.623794 0.751285
vt 0.628023 0.991967
vt 0.628023 0.751285
vt 0.437422 0.990530
vt 0.437422 0.752657
vt 0.241779 0.003906
vt 0.003906 0.036487
vt 0.003906 0.003906
vt 0.241779 0.036487
vt 0.726717 0.752025
vt 0.726717 0.992707
vt 0.702356 0.752025
vt 0.702356 0.992707
vt 0.679313 0.751285
vt 0.679313 0.991967
vt 0.003906 0.232311
vt 0.241779 0.232311
vt 0.003906 0.234298
vt 0.241779 0.234298
vt 0.498196 0.252994
vt 0.735062 0.493677
vt 0.498196 0.493677
vt 0.735062 0.252994
vt 0.420828 0.795788
vt 0.420827 0.818729
vt 0.419421 0.818729
vt 0.419436 0.794346
vt 0.281610 0.794405
vt 0.281564 0.818767
vt 0.258639 0.818768
vt 0.258645 0.794391
vt 0.281542 0.529025
vt 0.281585 0.553385
vt 0.258615 0.529026
vt 0.258620 0.553403
vt 0.420829 0.551906
vt 0.419426 0.528971
vt 0.420831 0.528970
vt 0.419437 0.553348
vt 0.283618 0.820734
vt 0.307915 0.820808
vt 0.283439 0.843660
vt 0.307815 0.843791
vt 0.364494 0.553354
vt 0.370129 0.794340
vt 0.364494 0.794340
vt 0.370129 0.553354
vt 0.684948 0.991967
vt 0.684948 0.751285
vt 0.842756 0.752051
vt 0.842756 0.988917
vt 0.838526 0.752051
vt 0.838526 0.988917
vt 0.520008 0.751252
vt 0.520008 0.991935
vt 0.425653 0.794340
vt 0.421425 0.553354
vt 0.425654 0.553354
vt 0.421424 0.794340
vt 0.939993 0.003906
vt 0.939993 0.240773
vt 0.935763 0.003906
vt 0.935763 0.240773
vt 0.252426 0.794373
vt 0.252453 0.711690
vt 0.256656 0.794374
vt 0.256683 0.710285
vt 0.898857 0.752051
vt 0.898857 0.988917
vt 0.894627 0.752051
vt 0.894627 0.988917
vt 0.753646 0.992707
vt 0.757876 0.752025
vt 0.757876 0.992707
vt 0.753646 0.752025
vt 0.996094 0.003906
vt 0.996094 0.240773
vt 0.991864 0.003906
vt 0.991864 0.240773
vt 0.335062 0.554841
vt 0.335038 0.631554
vt 0.308571 0.554764
vt 0.308552 0.632953
vt 0.530608 0.990548
vt 0.530608 0.752676
vt 0.557093 0.990548
vt 0.557093 0.752676
vt 0.004057 0.869605
vt 0.036713 0.951236
vt 0.004133 0.951279
vt 0.038073 0.869506
vt 0.394491 0.794344
vt 0.394462 0.818705
vt 0.370107 0.818695
vt 0.420767 0.504017
vt 0.420836 0.526977
vt 0.419431 0.526980
vt 0.419358 0.502591
vt 0.559080 0.751271
vt 0.559080 0.991953
vt 0.394463 0.528987
vt 0.370083 0.528998
vt 0.394491 0.553350
vt 0.396478 0.794344
vt 0.396478 0.553350
vt 0.281623 0.632472
vt 0.258667 0.632479
vt 0.306565 0.632469
vt 0.283574 0.553383
vt 0.306557 0.553357
vt 0.283610 0.632471
vt 0.307933 0.795892
vt 0.283598 0.794406
vt 0.306567 0.794422
vt 0.307911 0.818821
vt 0.420748 0.843700
vt 0.419426 0.820716
vt 0.420831 0.820720
vt 0.419337 0.845101
vt 0.307894 0.526992
vt 0.283599 0.527061
vt 0.283424 0.504135
vt 0.307800 0.504009
vt 0.307840 0.551946
vt 0.307891 0.528983
vt 0.867698 0.988917
vt 0.844743 0.752051
vt 0.867698 0.752051
vt 0.844743 0.988917
vt 0.892640 0.752051
vt 0.869685 0.988917
vt 0.869685 0.752051
vt 0.892640 0.988917
vt 0.964935 0.240773
vt 0.941980 0.003906
vt 0.964935 0.003906
vt 0.941980 0.240773
vt 0.989877 0.003906
vt 0.989877 0.240773
vt 0.966922 0.003906
vt 0.966922 0.240773
vt 0.396526 0.820668
vt 0.394563 0.820571
vt 0.396447 0.818707
vt 0.394569 0.527123
vt 0.396528 0.527026
vt 0.396449 0.528985
vt 0.283548 0.818771
vt 0.281661 0.820627
vt 0.283526 0.529022
vt 0.281638 0.527165
vt 0.421283 0.502098
vt 0.306387 0.502611
vt 0.308304 0.502087
vt 0.257251 0.795832
vt 0.256630 0.553422
vt 0.257226 0.551963
vt 0.421256 0.845621
vt 0.308319 0.845714
vt 0.306402 0.845189
vt 0.394407 0.502663
vt 0.396398 0.502651
vt 0.306568 0.710289
vt 0.308577 0.793008
vt 0.308555 0.709864
vt 0.258671 0.710285
vt 0.751659 0.992707
vt 0.751659 0.752025
vt 0.394377 0.844982
vt 0.396365 0.844998
vt 0.281437 0.504153
vt 0.281448 0.843644
vt 0.283417 0.502730
vt 0.281427 0.502746
vt 0.257209 0.529026
vt 0.257233 0.818767
vt 0.283431 0.845065
vt 0.281441 0.845050
vt 0.308781 0.794946
vt 0.232527 0.711059
vt 0.234493 0.713012
vt 0.232515 0.713043
vt 0.234494 0.951229
vt 0.232528 0.953184
vt 0.232516 0.951200
vt 0.308811 0.552777
vt 0.335069 0.552862
vt 0.335083 0.794918
vt 0.335076 0.792938
vt 0.003906 0.472473
vt 0.241779 0.474460
vt 0.003906 0.474460
vt 0.241779 0.472473
vt 0.234502 0.868089
vt 0.232514 0.868089
vt 0.036714 0.953224
vt 0.004136 0.953267
vt 0.036722 0.713002
vt 0.004143 0.712955
vt 0.004146 0.710967
vt 0.036723 0.711015
vt 0.251055 0.710254
vt 0.335038 0.711263
vt 0.281626 0.710288
vt 0.283613 0.710289
vt 0.256680 0.632479
vt 0.232514 0.791194
vt 0.234502 0.791194
vt 0.038083 0.789768
vt 0.004065 0.789664
vt 0.698576 0.502122
vt 0.662472 0.579820
vt 0.461732 0.502164
vt 0.698654 0.579717
vt 0.953056 0.248850
vt 0.953817 0.282021
vt 0.935763 0.251081
vt 0.936497 0.282398
vt 0.936562 0.358536
vt 0.953833 0.284008
vt 0.953882 0.358940
vt 0.936513 0.284385
vt 0.935763 0.391840
vt 0.953868 0.360928
vt 0.953054 0.394098
vt 0.936546 0.360524
vt 0.035170 0.867597
vt 0.036108 0.866685
vt 0.336443 0.709887
vt 0.336443 0.632926
vt 0.036118 0.792584
vt 0.035180 0.791674
vt 0.665377 0.581776
vt 0.664440 0.582703
vt 0.664431 0.657584
vt 0.665368 0.658508
vt 0.662463 0.660462
vt 0.003906 0.867645
vt 0.698499 0.658558
vt 0.698643 0.660561
vt 0.003914 0.791622
vt 0.698510 0.581723
vt 0.461732 0.743136
vt 0.698565 0.743182
vt 0.252450 0.631076
vt 0.252401 0.553425
vt 0.251051 0.632515
vt 0.353877 0.710253
vt 0.353877 0.632509
vt 0.251051 0.244891
vt 0.251051 0.003906
vt 0.491733 0.003906
vt 0.491733 0.244891
vt 0.739114 0.244589
vt 0.502247 0.003906
vt 0.739114 0.003906
vt 0.502247 0.244589
vt 0.696722 0.752025
vt 0.696722 0.992707
vt 0.608964 0.991953
vt 0.608964 0.751271
vt 0.613193 0.991953
vt 0.613193 0.751271
vt 0.728704 0.992707
vt 0.728704 0.752025
vt 0.630011 0.751310
vt 0.630011 0.991943
vt 0.490836 0.751252
vt 0.490836 0.991935
vt 0.488849 0.991935
vt 0.488849 0.751252
s 1
f 59/1/1 85/2/2 76/3/2
f 85/2/2 59/1/1 11/4/3
f 75/5/4 87/6/2 46/7/5
f 87/6/2 75/5/4 61/8/6
f 49/9/7 82/10/8 35/11/4
f 35/11/4 82/10/8 63/12/6
f 84/13/8 57/14/9 38/15/10
f 57/14/9 84/13/8 58/16/11
f 47/17/12 88/18/13 32/19/14
f 32/19/14 88/18/13 67/20/15
f 17/21/16 16/22/16 5/23/16
f 17/21/16 5/23/16 6/24/16
f 19/25/16 54/26/16 56/27/16
f 54/26/16 19/25/16 18/28/16
f 21/29/17 10/30/17 60/31/17
f 10/30/17 21/29/17 20/32/17
f 22/33/18 60/34/18 62/35/18
f 60/34/18 22/33/18 21/36/18
f 110/37/19 22/38/20 62/39/20
f 62/39/20 109/40/19 110/37/19
f 20/41/21 23/42/21 13/43/21
f 13/43/21 10/44/21 20/41/21
f 24/45/16 25/46/16 15/47/16
f 15/47/16 14/48/16 24/45/16
f 119/49/22 97/50/23 118/51/24
f 97/50/23 119/49/22 96/52/25
f 101/53/26 188/54/27 29/55/28
f 187/56/27 29/55/28 188/54/27
f 99/57/29 128/58/30 95/59/31
f 128/58/30 99/57/29 103/60/32
f 5/23/20 30/61/33 73/62/34
f 30/61/33 43/63/35 73/62/34
f 53/64/36 83/65/37 77/66/38
f 83/65/37 53/64/36 8/67/39
f 157/68/14 32/69/14 67/70/15
f 157/68/14 67/70/15 160/71/40
f 6/24/20 2/72/41 70/73/42
f 2/72/41 6/24/20 33/74/43
f 11/4/3 58/16/11 72/75/44
f 11/4/3 72/75/44 34/76/45
f 5/23/20 33/74/43 6/24/20
f 33/74/43 5/23/20 73/62/34
f 115/77/4 35/11/4 63/12/6
f 115/77/4 63/12/6 114/78/46
f 74/79/47 116/80/48 117/81/49
f 74/79/47 117/81/49 50/82/50
f 36/83/51 71/84/52 52/85/53
f 36/83/51 52/85/53 90/86/54
f 86/87/13 65/88/55 37/89/13
f 65/88/55 86/87/13 66/90/56
f 78/91/57 81/92/38 48/93/58
f 81/92/38 78/91/57 55/94/59
f 74/79/47 51/95/60 39/96/61
f 51/95/60 74/79/47 50/82/50
f 77/97/38 40/98/38 9/99/36
f 9/99/36 53/100/36 77/97/38
f 64/101/9 38/102/10 57/103/9
f 38/102/10 64/101/9 79/104/10
f 76/105/2 41/106/2 12/107/1
f 12/107/1 59/108/1 76/105/2
f 65/109/55 68/110/62 80/111/13
f 80/111/13 37/112/13 65/109/55
f 1/113/63 42/114/64 43/115/35
f 2/116/41 44/117/65 45/118/66
f 3/119/67 46/120/5 47/17/12
f 4/121/68 48/93/58 49/122/7
f 8/67/39 53/64/36 54/123/69
f 9/124/36 55/94/59 56/125/70
f 10/30/71 57/14/9 58/16/11
f 11/4/3 59/1/1 60/31/72
f 12/126/1 61/8/6 62/39/73
f 13/127/74 63/12/6 64/128/9
f 14/129/75 65/88/55 66/90/56
f 15/130/76 67/20/15 68/131/62
f 42/114/64 34/76/45 43/63/35
f 73/62/34 43/63/35 34/76/45
f 70/132/42 45/118/66 31/133/77
f 45/118/66 70/132/42 2/116/41
f 49/9/7 35/11/4 4/121/68
f 74/79/47 4/121/68 35/11/4
f 47/17/12 32/19/14 3/119/67
f 3/119/67 32/19/14 71/84/52
f 38/15/10 83/65/37 84/13/8
f 83/65/37 38/15/10 77/66/38
f 76/3/2 86/87/13 37/89/13
f 86/87/13 76/3/2 85/2/2
f 239/134/78 51/135/60 98/136/79
f 223/137/80 51/135/60 239/134/78
f 89/138/81 105/139/49 90/86/54
f 105/139/49 89/138/81 104/140/24
f 56/27/70 54/26/69 9/99/36
f 9/99/36 54/26/69 53/100/36
f 166/141/82 56/142/70 221/143/83
f 221/143/83 56/142/70 55/144/59
f 11/4/3 10/30/71 58/16/11
f 10/30/71 11/4/3 60/31/72
f 62/35/73 60/34/72 12/107/1
f 12/107/1 60/34/72 59/108/1
f 108/145/46 62/39/73 61/8/6
f 62/39/73 108/145/46 109/40/84
f 64/101/9 57/103/9 13/43/74
f 13/43/74 57/103/9 10/44/71
f 68/110/62 65/109/55 15/47/76
f 15/47/76 65/109/55 14/48/75
f 69/146/85 1/113/63 30/147/33
f 30/147/33 1/113/63 43/115/35
f 238/148/86 70/149/42 31/150/77
f 70/149/42 238/148/86 203/151/87
f 32/69/14 157/68/14 71/152/52
f 71/152/52 157/68/14 199/153/88
f 72/75/44 44/117/65 33/74/43
f 2/72/41 33/74/43 44/117/65
f 34/76/45 72/75/44 73/62/34
f 33/74/43 73/62/34 72/75/44
f 35/11/4 115/77/4 74/79/47
f 116/80/48 74/79/47 115/77/4
f 75/5/4 46/7/5 36/83/51
f 3/119/67 36/83/51 46/7/5
f 41/106/2 76/105/2 80/111/13
f 80/111/13 76/105/2 37/112/13
f 40/98/38 77/97/38 79/104/10
f 79/104/10 77/97/38 38/102/10
f 4/121/68 39/96/61 48/93/58
f 48/93/58 39/96/61 78/91/57
f 48/93/58 82/154/8 49/122/7
f 82/154/8 48/93/58 81/92/38
f 46/120/5 88/18/13 47/17/12
f 88/18/13 46/120/5 87/155/2
f 9/124/36 81/92/38 55/94/59
f 81/92/38 9/124/36 40/156/38
f 82/154/8 81/92/38 79/157/10
f 81/92/38 40/156/38 79/157/10
f 79/158/10 64/128/9 82/10/8
f 63/12/6 82/10/8 64/128/9
f 83/65/37 8/67/39 45/118/66
f 8/67/39 31/133/77 45/118/66
f 84/13/8 45/118/66 44/117/65
f 45/118/66 84/13/8 83/65/37
f 58/16/11 44/117/65 72/75/44
f 44/117/65 58/16/11 84/13/8
f 85/2/2 34/76/45 42/114/64
f 34/76/45 85/2/2 11/4/3
f 1/113/63 86/87/13 85/2/2
f 85/2/2 42/114/64 1/113/63
f 66/90/56 86/87/13 69/146/85
f 86/87/13 1/113/63 69/146/85
f 12/126/1 87/6/2 61/8/6
f 87/6/2 12/126/1 41/159/2
f 88/18/13 87/155/2 80/160/13
f 87/155/2 41/161/2 80/160/13
f 80/160/13 68/131/62 88/18/13
f 67/20/15 88/18/13 68/131/62
f 39/96/61 4/121/68 74/79/47
f 36/83/51 3/119/67 71/84/52
f 7/162/89 89/138/81 90/86/54
f 7/162/89 90/86/54 52/85/53
f 26/163/90 91/164/91 92/165/92
f 27/166/93 93/167/94 94/168/95
f 97/50/23 98/169/79 51/95/60
f 51/95/60 50/82/50 97/50/23
f 97/50/23 29/170/28 98/169/79
f 29/170/28 97/50/23 96/52/25
f 7/162/89 28/171/96 89/138/81
f 89/138/81 28/171/96 95/172/31
f 27/166/93 111/173/97 93/167/94
f 112/174/98 93/167/94 111/173/97
f 28/175/96 102/176/99 95/59/31
f 95/59/31 102/176/99 99/57/29
f 96/177/25 100/178/100 29/179/28
f 29/179/28 100/178/100 101/180/26
f 103/60/32 93/167/94 112/174/98
f 93/167/94 103/60/32 99/57/29
f 93/167/94 99/57/29 102/176/99
f 102/176/99 94/168/95 93/167/94
f 26/163/90 101/180/26 100/178/100
f 100/178/100 91/164/91 26/163/90
f 109/40/19 129/181/101 110/37/19
f 89/138/81 128/182/30 104/140/24
f 128/182/30 89/138/81 95/172/31
f 75/5/4 107/183/4 108/145/46
f 75/5/4 108/145/46 61/8/6
f 36/83/51 105/139/49 106/184/102
f 105/139/49 36/83/51 90/86/54
f 105/139/49 118/51/24 117/81/49
f 118/51/24 105/139/49 104/140/24
f 108/145/46 114/78/46 113/185/84
f 108/145/46 113/185/84 109/40/84
f 36/83/51 106/184/102 107/183/4
f 36/83/51 107/183/4 75/5/4
f 121/186/98 112/174/98 111/173/97
f 121/186/98 111/173/97 122/187/97
f 103/60/32 121/186/98 120/188/103
f 121/186/98 103/60/32 112/174/98
f 104/140/24 119/49/22 118/51/24
f 119/49/22 104/140/24 128/182/30
f 251/189/104 122/190/97 111/191/97
f 122/190/97 251/189/104 260/192/105
f 107/183/4 115/77/4 114/78/46
f 107/183/4 114/78/46 108/145/46
f 106/184/102 117/81/49 116/80/48
f 117/81/49 106/184/102 105/139/49
f 106/184/102 116/80/48 115/77/4
f 106/184/102 115/77/4 107/183/4
f 119/193/22 100/178/100 96/177/25
f 100/178/100 119/193/22 120/188/103
f 117/81/49 97/50/23 50/82/50
f 97/50/23 117/81/49 118/51/24
f 114/78/46 63/12/6 13/127/74
f 114/78/46 13/127/74 113/185/84
f 91/164/91 121/186/98 122/187/97
f 91/164/91 122/187/97 92/165/92
f 23/194/106 123/195/107 131/196/108
f 123/195/107 23/194/106 20/197/106
f 127/198/109 138/199/110 129/200/111
f 138/199/110 127/198/109 126/201/112
f 124/202/113 134/203/114 135/204/115
f 134/203/114 124/202/113 125/205/116
f 132/206/117 136/207/118 133/208/119
f 136/207/118 132/206/117 130/209/120
f 103/60/32 125/210/116 126/211/112
f 119/49/121 128/182/121 127/212/121
f 119/49/121 127/212/121 132/213/121
f 120/188/103 133/214/119 134/215/114
f 123/195/107 135/216/115 136/217/118
f 124/218/113 137/219/122 138/220/110
f 125/210/116 120/188/103 134/215/114
f 103/60/32 120/188/103 125/210/116
f 128/58/30 126/211/112 127/221/109
f 126/211/112 128/58/30 103/60/32
f 138/220/110 110/222/123 129/223/111
f 137/219/122 110/222/123 138/220/110
f 132/224/117 133/214/119 119/193/22
f 120/188/103 119/193/22 133/214/119
f 131/196/108 136/217/118 130/225/120
f 136/217/118 131/196/108 123/195/107
f 135/216/115 137/219/122 124/218/113
f 123/195/107 137/219/122 135/216/115
f 138/199/110 126/201/112 124/202/113
f 126/201/112 125/205/116 124/202/113
f 135/204/115 133/208/119 136/207/118
f 133/208/119 135/204/115 134/203/114
f 20/197/106 21/226/106 137/219/122
f 20/197/106 137/219/122 123/195/107
f 22/227/106 137/219/122 21/226/106
f 137/219/122 22/227/106 110/222/123
f 131/228/124 13/127/20 23/229/20
f 13/127/20 131/228/124 113/185/124
f 113/185/124 131/228/124 130/230/125
f 130/230/126 129/181/127 109/40/128
f 130/230/126 109/40/128 113/185/128
f 129/231/127 132/213/121 127/212/121
f 132/213/121 129/231/127 130/232/126
f 18/233/17 168/234/17 54/235/17
f 54/235/17 168/234/17 165/236/17
f 29/237/28 187/238/27 98/136/79
f 239/134/78 98/136/79 187/238/27
f 186/239/129 102/240/99 28/241/96
f 102/240/99 186/239/129 253/242/130
f 192/243/33 30/244/33 161/245/20
f 161/245/20 30/244/33 5/246/20
f 162/247/20 6/248/20 203/151/87
f 203/151/87 6/248/20 70/149/42
f 94/249/95 250/250/131 27/251/93
f 27/251/93 250/250/131 248/252/132
f 253/242/130 94/249/95 102/240/99
f 94/249/95 253/242/130 250/250/131
f 25/253/21 139/254/21 140/255/21
f 139/254/21 25/253/21 24/256/21
f 143/257/133 142/258/134 141/259/134
f 141/259/134 144/260/135 143/257/133
f 147/261/136 146/262/137 145/263/134
f 147/261/136 145/263/134 148/264/138
f 150/265/139 149/266/136 151/267/140
f 149/266/136 152/268/141 151/267/140
f 156/269/142 154/270/140 153/271/143
f 154/270/140 156/269/142 155/272/144
f 158/273/145 157/274/14 159/275/146
f 157/274/14 160/276/40 159/275/146
f 163/277/106 161/278/106 164/279/106
f 161/278/106 163/277/106 162/280/106
f 17/281/21 162/247/21 163/282/21
f 162/247/21 17/281/21 6/248/21
f 166/283/106 165/284/106 167/285/106
f 167/285/106 165/284/106 168/286/106
f 167/287/20 19/288/20 166/141/20
f 166/141/20 19/288/20 56/142/20
f 171/289/17 169/290/17 172/291/17
f 169/290/17 171/289/17 170/292/17
f 173/293/18 170/294/18 174/295/18
f 174/295/18 170/294/18 171/296/18
f 174/297/20 176/298/147 173/299/20
f 175/300/147 173/299/20 176/298/147
f 178/301/21 172/302/21 177/303/21
f 177/303/21 172/302/21 169/304/21
f 14/305/17 139/306/17 24/307/17
f 139/306/17 14/305/17 179/308/17
f 140/309/106 139/310/106 180/311/106
f 180/311/106 139/310/106 179/312/106
f 184/313/148 183/314/149 181/315/150
f 182/316/151 181/315/150 183/314/149
f 186/317/129 28/318/96 185/319/152
f 7/320/89 185/319/152 28/318/96
f 191/321/153 190/322/154 189/323/155
f 190/322/154 191/321/153 255/324/156
f 194/325/157 193/326/158 192/327/33
f 194/325/157 192/327/33 161/278/20
f 197/328/159 196/329/160 195/330/161
f 195/330/161 198/331/162 197/328/159
f 71/152/52 199/153/88 52/332/53
f 52/332/53 199/153/88 200/333/53
f 202/334/163 162/280/20 203/335/87
f 162/280/20 202/334/163 201/336/157
f 205/337/164 204/338/165 144/260/135
f 155/272/144 144/260/135 204/338/165
f 161/278/20 201/336/157 194/325/157
f 201/336/157 161/278/20 162/280/20
f 207/339/136 152/268/141 149/266/136
f 152/268/141 207/339/136 206/340/166
f 210/341/167 208/342/168 211/343/169
f 208/342/168 210/341/167 209/344/170
f 200/345/53 212/346/171 213/347/172
f 199/348/88 212/346/171 200/345/53
f 217/349/173 215/350/146 214/351/146
f 215/350/146 217/349/173 216/352/56
f 220/353/57 219/354/174 218/355/160
f 220/353/57 218/355/160 221/356/83
f 223/357/80 208/342/168 222/358/175
f 208/342/168 223/357/80 211/343/169
f 196/359/160 224/360/159 225/361/160
f 224/360/159 196/359/160 197/362/159
f 227/363/142 153/364/143 226/365/143
f 153/364/143 227/363/142 156/366/142
f 142/367/134 228/368/176 229/369/134
f 228/368/176 142/367/134 143/370/133
f 231/371/173 217/372/173 230/373/146
f 230/373/146 217/372/173 214/374/146
f 232/375/177 193/376/158 233/377/178
f 202/378/163 235/379/179 234/380/180
f 236/381/181 158/273/145 146/382/137
f 237/383/182 150/384/139 219/354/174
f 198/331/162 165/385/183 197/328/159
f 224/386/159 166/387/82 221/356/83
f 169/290/184 155/272/144 156/269/142
f 144/260/135 170/292/185 143/257/133
f 228/388/176 173/299/186 148/264/138
f 177/389/187 227/390/142 152/268/141
f 179/391/188 216/352/56 217/349/173
f 180/392/189 231/393/173 160/276/40
f 205/337/164 233/377/178 193/326/158
f 205/337/164 193/326/158 194/325/157
f 235/379/179 203/394/87 238/395/86
f 203/394/87 235/379/179 202/378/163
f 237/383/182 208/342/168 149/266/136
f 237/383/182 149/266/136 150/265/139
f 157/274/14 236/381/181 199/348/88
f 236/381/181 157/274/14 158/273/145
f 153/271/143 195/330/161 196/329/160
f 195/330/161 153/271/143 154/270/140
f 142/258/134 214/351/146 215/350/146
f 142/258/134 215/350/146 141/259/134
f 242/396/167 240/397/190 213/347/172
f 240/397/190 242/396/167 241/398/151
f 224/360/159 165/284/183 166/283/82
f 165/284/183 224/360/159 197/362/159
f 169/290/184 170/292/185 144/260/135
f 169/290/184 144/260/135 155/272/144
f 228/368/176 170/294/185 173/293/186
f 170/294/185 228/368/176 143/370/133
f 243/399/166 148/264/138 173/299/186
f 243/399/166 173/299/186 175/300/191
f 156/366/142 227/363/142 177/303/187
f 177/303/187 169/304/184 156/366/142
f 66/400/56 179/308/188 14/305/75
f 179/308/188 66/400/56 216/401/56
f 217/372/173 231/371/173 180/311/189
f 180/311/189 179/312/188 217/372/173
f 232/375/177 192/402/33 193/376/158
f 192/402/33 232/375/177 244/403/192
f 234/380/180 204/338/165 201/336/157
f 234/380/180 201/336/157 202/334/163
f 204/338/165 205/337/164 194/325/157
f 204/338/165 194/325/157 201/336/157
f 208/342/168 209/344/170 207/339/136
f 208/342/168 207/339/136 149/266/136
f 212/346/171 236/381/181 146/262/137
f 212/346/171 146/262/137 147/261/136
f 230/373/146 142/367/134 229/369/134
f 142/367/134 230/373/146 214/374/146
f 226/365/143 196/359/160 225/361/160
f 196/359/160 226/365/143 153/364/143
f 219/354/174 220/353/57 222/358/175
f 222/358/175 237/383/182 219/354/174
f 150/384/139 151/404/140 219/354/174
f 219/354/174 151/404/140 218/355/160
f 158/273/145 159/275/146 146/382/137
f 146/382/137 159/275/146 145/405/134
f 218/355/160 224/386/159 221/356/83
f 224/386/159 218/355/160 225/406/160
f 151/404/140 226/407/143 218/355/160
f 218/355/160 226/407/143 225/406/160
f 151/267/140 152/268/141 227/390/142
f 151/267/140 227/390/142 226/408/143
f 235/379/179 198/331/162 195/330/161
f 198/331/162 235/379/179 238/395/86
f 154/270/140 235/379/179 195/330/161
f 235/379/179 154/270/140 234/380/180
f 155/272/144 234/380/180 154/270/140
f 234/380/180 155/272/144 204/338/165
f 141/259/134 205/337/164 144/260/135
f 205/337/164 141/259/134 233/377/178
f 215/350/146 232/375/177 141/259/134
f 141/259/134 232/375/177 233/377/178
f 244/403/192 215/350/146 216/352/56
f 215/350/146 244/403/192 232/375/177
f 145/263/134 228/388/176 148/264/138
f 228/388/176 145/263/134 229/409/134
f 159/275/146 230/410/146 145/405/134
f 145/405/134 230/410/146 229/411/134
f 159/275/146 160/276/40 231/393/173
f 159/275/146 231/393/173 230/410/146
f 222/358/175 208/342/168 237/383/182
f 212/346/171 199/348/88 236/381/181
f 185/412/152 213/347/172 240/397/190
f 213/347/172 185/412/152 200/345/53
f 245/413/193 247/414/194 246/415/195
f 248/416/132 250/417/131 249/418/196
f 181/315/150 211/343/169 223/357/80
f 223/357/80 239/419/78 181/315/150
f 181/315/150 187/420/27 184/313/148
f 187/420/27 181/315/150 239/419/78
f 186/421/129 185/412/152 240/397/190
f 240/397/190 189/422/155 186/421/129
f 92/423/92 245/424/193 26/425/90
f 245/424/193 92/423/92 247/426/194
f 251/427/104 249/418/196 252/428/197
f 249/418/196 251/427/104 248/416/132
f 253/429/130 186/430/129 189/323/155
f 189/323/155 190/322/154 253/429/130
f 254/431/148 184/432/148 187/433/27
f 187/433/27 188/434/27 254/431/148
f 26/425/90 188/54/27 101/53/26
f 188/54/27 26/425/90 245/424/193
f 255/324/156 249/418/196 190/322/154
f 249/418/196 255/324/156 252/428/197
f 190/322/154 249/418/196 253/429/130
f 253/429/130 249/418/196 250/417/131
f 188/434/27 245/413/193 254/431/148
f 254/431/148 245/413/193 246/415/195
f 175/300/147 176/298/147 256/435/198
f 191/436/153 240/397/190 241/398/151
f 240/397/190 191/436/153 189/422/155
f 147/261/136 243/399/166 257/437/136
f 243/399/166 147/261/136 148/264/138
f 213/347/172 258/438/170 242/396/167
f 258/438/170 213/347/172 212/346/171
f 242/396/167 182/316/151 241/398/151
f 182/316/151 242/396/167 210/341/167
f 175/300/191 259/439/191 243/399/166
f 206/340/166 243/399/166 259/439/191
f 212/346/171 257/437/136 258/438/170
f 257/437/136 212/346/171 147/261/136
f 261/440/199 251/427/104 252/428/197
f 251/427/104 261/440/199 260/441/105
f 262/442/200 261/440/199 255/324/156
f 246/415/195 262/442/200 254/431/148
f 255/324/156 261/440/199 252/428/197
f 262/442/200 246/415/195 261/440/199
f 183/314/149 241/398/151 182/316/151
f 241/398/151 183/314/149 191/436/153
f 257/437/136 206/340/166 207/339/136
f 206/340/166 257/437/136 243/399/166
f 242/396/167 209/344/170 210/341/167
f 209/344/170 242/396/167 258/438/170
f 258/438/170 207/339/136 209/344/170
f 207/339/136 258/438/170 257/437/136
f 183/443/149 254/431/148 262/442/200
f 254/431/148 183/443/149 184/432/148
f 181/315/150 210/341/167 211/343/169
f 210/341/167 181/315/150 182/316/151
f 259/439/191 177/389/187 206/340/166
f 152/268/141 206/340/166 177/389/187
f 246/415/195 260/441/105 261/440/199
f 260/441/105 246/415/195 247/414/194
f 178/444/16 264/445/201 172/446/16
f 264/445/201 178/444/16 263/447/202
f 256/448/203 265/449/204 266/450/205
f 266/450/205 265/449/204 267/451/206
f 271/452/207 269/453/208 268/454/209
f 269/453/208 271/452/207 270/455/210
f 275/456/211 273/457/212 272/458/213
f 273/457/212 275/456/211 274/459/214
f 267/460/206 270/461/210 255/324/156
f 183/314/215 266/462/215 191/436/215
f 266/462/215 183/314/215 275/463/215
f 262/442/200 271/464/207 274/465/214
f 264/445/201 273/466/212 268/467/209
f 269/468/208 265/469/204 276/470/216
f 270/461/210 262/442/200 255/324/156
f 262/442/200 270/461/210 271/464/207
f 191/321/153 267/460/206 255/324/156
f 267/460/206 191/321/153 266/471/205
f 265/469/204 256/472/203 176/473/217
f 176/473/217 276/470/216 265/469/204
f 274/465/214 275/474/211 183/443/149
f 183/443/149 262/442/200 274/465/214
f 263/447/202 273/466/212 264/445/201
f 273/466/212 263/447/202 272/475/213
f 276/470/216 264/445/201 268/467/209
f 276/470/216 268/467/209 269/468/208
f 269/453/208 270/455/210 267/451/206
f 267/451/206 265/449/204 269/453/208
f 274/459/214 268/454/209 273/457/212
f 268/454/209 274/459/214 271/452/207
f 172/446/16 276/470/216 171/476/16
f 276/470/216 172/446/16 264/445/201
f 174/477/16 276/470/216 176/473/217
f 276/470/216 174/477/16 171/476/16
f 263/478/218 177/389/20 259/439/218
f 177/389/20 263/478/218 178/479/20
f 259/439/218 272/480/219 263/478/218
f 256/435/220 272/480/221 175/300/222
f 259/439/222 175/300/222 272/480/221
f 256/481/220 275/463/215 272/482/221
f 275/463/215 256/481/220 266/462/215
f 163/483/20 164/484/20 16/485/20
f 163/483/20 16/485/20 17/486/20
f 167/487/18 18/488/18 19/489/18
f 18/488/18 167/487/18 168/490/18
f 164/491/18 5/246/18 16/492/18
f 5/246/18 164/491/18 161/245/18
f 180/493/20 15/494/20 140/495/20
f 140/495/20 15/494/20 25/496/20
f 122/190/97 260/192/105 92/423/92
f 92/423/92 260/192/105 247/426/194
f 69/497/85 244/498/192 66/400/56
f 216/401/56 66/400/56 244/498/192
f 198/499/162 31/150/77 8/500/39
f 31/150/77 198/499/162 238/148/86
f 220/501/57 55/144/59 78/502/57
f 55/144/59 220/501/57 221/143/83
f 223/137/80 39/503/61 51/135/60
f 39/503/61 223/137/80 222/504/175
f 52/332/53 200/333/53 7/320/89
f 7/320/89 200/333/53 185/319/152
f 54/235/69 165/236/183 8/500/39
f 8/500/39 165/236/183 198/499/162
f 160/71/40 67/70/15 180/493/189
f 180/493/189 67/70/15 15/494/76
f 244/498/192 69/497/85 192/243/33
f 192/243/33 69/497/85 30/244/33
f 39/503/61 222/504/175 78/502/57
f 78/502/57 222/504/175 220/501/57
f 251/189/104 111/191/97 27/251/93
f 27/251/93 248/252/132 251/189/104
f 120/188/103 91/164/91 100/178/100
f 91/164/91 120/188/103 121/186/98
