# https://github.com/mikedh/trimesh
v -0.24522299 -0.30064893 0.17932853
v -0.24005516 -0.29979438 0.15974097
v -0.24005516 -0.30045903 0.15974097
v -0.24504103 -0.30496919 0.17932853
v -0.24471349 -0.29461956 0.17932853
v -0.22280481 -0.20493849 0.11235848
v -0.22335070 -0.21495581 0.11235848
v -0.24100138 -0.30425707 0.16495907
v -0.24384005 -0.30496919 0.17499541
v -0.22309595 -0.22492564 0.11235848
v -0.23095688 -0.29884487 0.13772136
v -0.23084770 -0.30496919 0.13803601
v -0.23841748 -0.30335504 0.15673204
v -0.23950927 -0.30710560 0.16160271
v -0.24296662 -0.31512892 0.17932853
v -0.22411497 -0.20066571 0.17932853
v -0.21592651 -0.15513678 0.11235848
v -0.21811010 -0.16510662 0.11235848
v -0.21949303 -0.17398453 0.11235848
v -0.22007532 -0.17901692 0.11235848
v -0.22178580 -0.19511108 0.11235848
v -0.24049188 -0.31213799 0.16827612
v -0.21843764 -0.30544394 0.11235848
v -0.21869239 -0.30496919 0.11256826
v -0.23019262 -0.31052381 0.13977320
v -0.23157556 -0.31422690 0.14509618
v -0.23557881 -0.31489155 0.15499486
v -0.23357718 -0.30492172 0.14500441
v -0.23816273 -0.30473182 0.15673204
v -0.23663421 -0.31289759 0.15673204
v -0.23881780 -0.31527138 0.16495907
v -0.24158368 -0.31527138 0.17454308
v -0.24067385 -0.32272500 0.17757824
v -0.24158368 -0.32087347 0.17932853
v -0.21457995 -0.16861980 0.17932853
v -0.21308784 -0.14511947 0.11235848
v -0.21556258 -0.31455922 0.11235848
v -0.23081130 -0.32225025 0.14847878
v -0.23616110 -0.31503397 0.15673204
v -0.23241261 -0.32533616 0.15443765
v -0.23332243 -0.32528868 0.15673204
v -0.23641585 -0.32495636 0.16499841
v -0.23969123 -0.31883201 0.17090483
v -0.23907255 -0.32562101 0.17454308
v -0.23677978 -0.33497366 0.17499541
v -0.23903616 -0.33079582 0.17932853
v -0.24020074 -0.32628566 0.17932853
v -0.21363375 -0.16586623 0.17932853
v -0.20693740 -0.12522727 0.11235848
v -0.21017639 -0.13562438 0.11235848
v -0.21148655 -0.32343712 0.11235848
v -0.22047566 -0.35102034 0.14907533
v -0.22695363 -0.34432632 0.15673204
v -0.22957394 -0.32899177 0.15073384
v -0.23088409 -0.33497366 0.15796445
v -0.23142999 -0.33160290 0.15673204
v -0.23357718 -0.33497366 0.16499841
v -0.23375915 -0.34494349 0.17499541
v -0.23608831 -0.34029090 0.17932853
v -0.21268752 -0.16410963 0.17932853
v -0.19419980 -0.09484300 0.11235848
v -0.19878533 -0.10348353 0.11235848
v -0.20085974 -0.10794622 0.11235848
v -0.20326169 -0.11454530 0.11235848
v -0.20948492 -0.32766244 0.11235848
v -0.22145827 -0.35728711 0.15673204
v -0.22204056 -0.35458100 0.15524396
v -0.20875706 -0.32908672 0.11235848
v -0.20562725 -0.33478376 0.11235848
v -0.21869239 -0.35761943 0.15207770
v -0.22338711 -0.35306180 0.15673204
v -0.22884607 -0.34679502 0.16279580
v -0.23001066 -0.34010100 0.15988520
v -0.22735396 -0.34323436 0.15673204
v -0.23092048 -0.34404147 0.16567361
v -0.23015623 -0.35030821 0.16945608
v -0.23099327 -0.35154259 0.17499541
v -0.23295850 -0.34869406 0.17932853
v -0.23448701 -0.34494349 0.17932853
v -0.18113467 -0.11772615 0.17932853
v -0.17203638 -0.05710004 0.11235848
v -0.17705864 -0.06474359 0.11235848
v -0.18098909 -0.07115278 0.11235848
v -0.18328185 -0.07518817 0.11235848
v -0.19074245 -0.08843382 0.11235848
v -0.22065762 -0.36084777 0.15873799
v -0.20115089 -0.34233236 0.11235848
v -0.21174130 -0.35282442 0.13738702
v -0.21199605 -0.36317405 0.14703660
v -0.20988524 -0.36986810 0.15009797
v -0.22160384 -0.36217707 0.16499841
v -0.22771789 -0.35652751 0.17499541
v -0.22808182 -0.35714468 0.17932853
v -0.23128441 -0.35211229 0.17932853
v -0.17949697 -0.11554229 0.17932853
v -0.17043507 -0.05486870 0.11235848
v -0.21778256 -0.36720946 0.16499841
v -0.20071417 -0.38092986 0.14859022
v -0.21137737 -0.37157720 0.15673204
v -0.20322530 -0.38183188 0.15673204
v -0.20882985 -0.37855607 0.16499841
v -0.19365390 -0.35386887 0.11235848
v -0.18975984 -0.36963069 0.12028397
v -0.18986902 -0.37983793 0.13011709
v -0.19601946 -0.38017026 0.13977320
v -0.18954147 -0.38957039 0.14061229
v -0.21072228 -0.38097733 0.17727669
v -0.21916550 -0.36882365 0.17499541
v -0.22273202 -0.36383873 0.17499541
v -0.22076680 -0.36773169 0.17932853
v -0.17734978 -0.11297861 0.17932853
v -0.16104564 -0.04337965 0.11235848
v -0.17003475 -0.05999605 0.12014630
v -0.16825148 -0.05211513 0.11235848
v -0.20977607 -0.37974298 0.17060983
v -0.19128835 -0.39118457 0.14727259
v -0.19780272 -0.38748145 0.15499486
v -0.19816665 -0.38790876 0.15673204
v -0.20202433 -0.38249654 0.15499486
v -0.20136926 -0.38411072 0.15673204
v -0.20329809 -0.38539255 0.16526063
v -0.20708297 -0.38458547 0.17436609
v -0.19121556 -0.35747701 0.11235848
v -0.18772182 -0.36255687 0.11235848
v -0.18528348 -0.36545289 0.11235848
v -0.18331826 -0.36763674 0.11235848
v -0.18306351 -0.37304896 0.11698005
v -0.17971534 -0.37974298 0.12021841
v -0.18917754 -0.38914311 0.13977320
v -0.19012377 -0.38809866 0.13977320
v -0.19212539 -0.38287634 0.13677737
v -0.18790379 -0.39023504 0.13977320
v -0.17185441 -0.40134430 0.13809501
v -0.17851436 -0.39882809 0.14186437
v -0.18091631 -0.40072709 0.14851812
v -0.20988524 -0.38259149 0.17932853
v -0.21094064 -0.38126218 0.17932853
v -0.21956582 -0.36944079 0.17932853
v -0.17254588 -0.10751894 0.17932853
v -0.14219400 -0.02125610 0.11235848
v -0.18244481 -0.40219885 0.15499486
v -0.18746707 -0.39773616 0.15499486
v -0.18783100 -0.39806849 0.15673204
v -0.19314440 -0.39308357 0.15673204
v -0.19441816 -0.39184922 0.15673204
v -0.19914927 -0.38904816 0.16210091
v -0.20035024 -0.39042494 0.16876777
v -0.20413513 -0.38957039 0.17932853
v -0.20144203 -0.39156437 0.17499541
v -0.17764091 -0.37361866 0.11235848
v -0.16763280 -0.38263899 0.11235848
v -0.16504890 -0.38477537 0.11235848
v -0.17927861 -0.38938048 0.13060218
v -0.17560290 -0.37556514 0.11235848
v -0.17341931 -0.37755913 0.11235848
v -0.16846985 -0.39873314 0.13144128
v -0.16177350 -0.40139174 0.12833402
v -0.16453938 -0.40471506 0.13532864
v -0.16064532 -0.41036463 0.13922255
v -0.16788755 -0.40846562 0.14500441
v -0.17509340 -0.40324330 0.14511585
v -0.16985279 -0.40984237 0.15013731
v -0.17196359 -0.41131413 0.15676482
v -0.16945246 -0.10410071 0.17932853
v -0.13891861 -0.01783788 0.11235848
v -0.16777837 -0.10229664 0.17932853
v -0.15318473 -0.08681966 0.17932853
v -0.18182613 -0.40338573 0.15673204
v -0.18397333 -0.40148669 0.15673204
v -0.18899558 -0.39906546 0.16252702
v -0.19470930 -0.39474520 0.16564083
v -0.20198794 -0.39199162 0.17932853
v -0.19623782 -0.39654928 0.17499541
v -0.16144598 -0.38762391 0.11235848
v -0.15744272 -0.39070982 0.11235848
v -0.15791583 -0.39844829 0.12165405
v -0.15416734 -0.40447766 0.12569219
v -0.15696961 -0.40808579 0.13255569
v -0.15034606 -0.41012722 0.12971064
v -0.11115064 -0.42061931 0.11235848
v -0.16009942 -0.41088685 0.13977320
v -0.16286531 -0.41159898 0.14500441
v -0.16584954 -0.41373539 0.15407054
v -0.15937155 -0.41971728 0.16102584
v -0.16461217 -0.41791320 0.16461164
v -0.17367406 -0.41264343 0.16499841
v -0.17862353 -0.40889287 0.16499841
v -0.13233146 -0.01133375 0.11235848
v -0.14929065 -0.08283173 0.17932853
v -0.18539266 -0.40324330 0.16551629
v -0.19026934 -0.40020490 0.16918075
v -0.19656536 -0.39697653 0.17932853
v -0.19121556 -0.40096450 0.17499541
v -0.19376308 -0.39949274 0.17932853
v -0.15358505 -0.39336842 0.11235848
v -0.15121949 -0.40082204 0.11897944
v -0.12796427 -0.41098180 0.11235848
v -0.12541676 -0.41250101 0.11235848
v -0.10514577 -0.42337286 0.11235848
v -0.15402177 -0.41648895 0.14588939
v -0.15711519 -0.41857785 0.15499486
v -0.15424013 -0.42061931 0.15673204
v -0.14135695 -0.43068409 0.16790245
v -0.16104564 -0.42052436 0.16768612
v -0.16766919 -0.41867280 0.17499541
v -0.17571208 -0.41311818 0.17492330
v -0.17956975 -0.40969998 0.17154726
v -0.12810984 -0.00777309 0.11235848
v -0.14819887 -0.08178727 0.17932853
v -0.14303103 -0.07727710 0.17932853
v -0.18040679 -0.41026968 0.17820756
v -0.18120745 -0.40969998 0.17932853
v -0.13862747 -0.42949721 0.16122904
v -0.15009131 -0.42000213 0.14982264
v -0.09495569 -0.42489210 0.11235848
v -0.09884976 -0.43984687 0.16049485
v -0.11497192 -0.43752056 0.16499841
v -0.12498003 -0.43519425 0.16499841
v -0.13517012 -0.43196595 0.16474275
v -0.15081917 -0.42223346 0.15673204
v -0.14241235 -0.43106389 0.17499541
v -0.14736181 -0.42873761 0.17499541
v -0.15496799 -0.42508200 0.17499541
v -0.16268334 -0.42128396 0.17499541
v -0.13495176 -0.43405485 0.17499541
v -0.16796035 -0.41886270 0.17932853
v -0.16515806 -0.42038193 0.17932853
v -0.12476168 -0.00501952 0.11235848
v -0.13895500 -0.07409625 0.17932853
v -0.12225055 -0.00302555 0.11235848
v -0.17949697 -0.41098180 0.17932853
v -0.08756788 -0.42389512 0.11235848
v -0.06489495 -0.43448213 0.14500441
v -0.07493946 -0.43514678 0.14500441
v -0.08491118 -0.43856502 0.15438521
v -0.09215342 -0.44013172 0.15935421
v -0.09531962 -0.44093877 0.16429698
v -0.09495569 -0.44307518 0.17499541
v -0.10314415 -0.44055897 0.16715513
v -0.10583724 -0.43937209 0.16429698
v -0.10980409 -0.43994182 0.17018373
v -0.12498003 -0.43709326 0.17499541
v -0.14445037 -0.43011439 0.17932853
v -0.15496799 -0.42527190 0.17932853
v -0.16297448 -0.42147386 0.17932853
v -0.13062097 -0.43528920 0.17932853
v -0.13495176 -0.43386495 0.17932853
v -0.14230317 -0.43096894 0.17932853
v -0.13677141 -0.07252955 0.17932853
v -0.10318054 0.01131202 0.11235848
v -0.08491118 -0.42327791 0.11235848
v -0.05761632 -0.43054166 0.13893411
v -0.06489495 -0.43130130 0.13771480
v -0.06165596 -0.43163359 0.13977320
v -0.05714321 -0.43082654 0.13977320
v -0.05466847 -0.43234575 0.14430298
v -0.04506068 -0.43509930 0.15499486
v -0.05506880 -0.43685591 0.15499486
v -0.06260218 -0.43818521 0.15673204
v -0.06489495 -0.43780541 0.15499486
v -0.07621322 -0.43899229 0.15673204
v -0.08491118 -0.43932462 0.15673204
v -0.08491118 -0.44013172 0.15938042
v -0.08491118 -0.44141352 0.16499841
v -0.08491118 -0.44345498 0.17499541
v -0.08065318 -0.44421458 0.17932853
v -0.09058851 -0.44383478 0.17932853
v -0.09495569 -0.44345498 0.17932853
v -0.10583724 -0.44136608 0.17411698
v -0.11169654 -0.44046402 0.17685714
v -0.12148629 -0.43794784 0.17932853
v -0.12498003 -0.43699831 0.17932853
v -0.11173293 -0.44046402 0.17932853
v -0.12952918 -0.06778201 0.17932853
v -0.09604748 0.01634443 0.11235848
v -0.03072178 -0.42973459 0.15039952
v -0.01503634 -0.40438271 0.11235848
v -0.03738173 -0.43054166 0.14878689
v -0.04506068 -0.43144369 0.14695792
v -0.04498790 -0.43576396 0.15673204
v -0.03443389 -0.43225080 0.15423442
v -0.04462397 -0.43880239 0.16516885
v -0.05503241 -0.43932462 0.16242214
v -0.07908828 -0.43998927 0.15982619
v -0.06496774 -0.44279033 0.17499541
v -0.07493946 -0.44321761 0.17499541
v -0.07541257 -0.44084382 0.16432320
v -0.07493946 -0.44402468 0.17932853
v -0.10063302 -0.44255295 0.17932853
v -0.10543691 -0.44174588 0.17932853
v -0.10965852 -0.44093877 0.17932853
v -0.11315227 -0.05743237 0.17932853
v -0.09262653 0.01857577 0.11235848
v -0.02704608 -0.43082654 0.15673204
v -0.02821066 -0.43120635 0.15673204
v -0.02504445 -0.42484462 0.14500441
v -0.01587338 -0.42137891 0.14571239
v -0.02446216 -0.42883256 0.15423442
v -0.00757574 -0.40134430 0.11235848
v -0.01976745 -0.42009708 0.13977320
v -0.03505257 -0.43614376 0.16499841
v -0.04094826 -0.43979937 0.17236014
v -0.04760820 -0.44032162 0.16861700
v -0.05503241 -0.44060647 0.16741735
v -0.05503241 -0.44203073 0.17499541
v -0.06496774 -0.44350246 0.17932853
v -0.10751133 -0.05425152 0.17932853
v -0.08480200 0.02308594 0.11235848
v -0.01503634 -0.42512947 0.15499486
v -0.02071367 -0.42968711 0.16123560
v -0.02741001 -0.43106389 0.15706636
v -0.00957737 -0.42019203 0.14950143
v 0.00952904 -0.38966534 0.11235848
v 0.00923789 -0.39944527 0.13099551
v 0.00712709 -0.40803832 0.14500441
v 0.00024878 -0.42014456 0.15964919
v -0.02446216 -0.43201339 0.16474275
v -0.02504445 -0.43457708 0.17499541
v -0.03982007 -0.44003677 0.17917776
v -0.04462397 -0.44060647 0.17540839
v -0.05503241 -0.44245800 0.17932853
v -0.03588961 -0.43851754 0.17540839
v -0.03144965 -0.43752056 0.17932853
v -0.10481823 -0.05277978 0.17932853
v -0.07650436 0.02693143 0.11235848
v -0.09899533 -0.04983631 0.17932853
v -0.01070555 -0.42968711 0.17932853
v -0.00502822 -0.42384762 0.16499841
v -0.00502822 -0.42631635 0.17499541
v 0.03809766 -0.36868119 0.11235848
v 0.00934707 -0.40951008 0.15089773
v 0.01142148 -0.41112423 0.15757114
v 0.01484244 -0.41212121 0.16598828
v 0.00654480 -0.41762835 0.16499841
v 0.00155894 -0.42085668 0.16499841
v -0.02504445 -0.43528920 0.17932853
v -0.02005859 -0.43339020 0.17932853
v -0.04473314 -0.44084382 0.17932853
v -0.07301062 0.02826075 0.11235848
v -0.09357275 -0.04779486 0.17932853
v -0.00513740 -0.42726588 0.17932853
v 0.00370613 -0.42204356 0.17499541
v 0.00472514 -0.42247087 0.17932853
v 0.04195533 -0.36569023 0.11235848
v 0.01236770 -0.40998483 0.15673204
v 0.01808143 -0.40841812 0.16332023
v 0.01997387 -0.40993732 0.16998708
v 0.02113845 -0.41074443 0.17499541
v 0.01495162 -0.41496974 0.17499541
v 0.00869200 -0.41914755 0.17499541
v 0.00956543 -0.41971728 0.17932853
v -0.06700575 0.03049210 0.11235848
v -0.08942393 -0.04651304 0.17932853
v -0.04738985 0.03728108 0.11235848
v -0.05397701 0.03519216 0.11235848
v 0.04388417 -0.36407608 0.11235848
v 0.04908839 -0.36925089 0.13219514
v 0.02441383 -0.40452516 0.16598828
v 0.03063706 -0.40053719 0.16865632
v 0.02612431 -0.40685144 0.17499541
v 0.02681578 -0.40742114 0.17932853
v 0.02182992 -0.41126665 0.17932853
v -0.08491118 -0.04518372 0.17932853
v -0.04480593 0.03799321 0.11235848
v 0.05072608 -0.36089522 0.11833701
v 0.08111435 -0.29950953 0.11235848
v 0.05192705 -0.36260435 0.12500386
v 0.05025297 -0.37034285 0.13886856
v 0.03951699 -0.38952291 0.16162238
v 0.03180164 -0.40186653 0.17499541
v 0.03238393 -0.40238875 0.17932853
v -0.06773362 -0.04062608 0.17932853
v -0.06158317 -0.03901191 0.17932853
v -0.03494339 0.04008213 0.11235848
v 0.08493564 -0.29272053 0.11235848
v 0.09523490 -0.27282834 0.11235848
v 0.10091223 -0.26181406 0.11235848
v 0.05665816 -0.36493063 0.15499486
v 0.05236377 -0.36554784 0.13532208
v 0.05960601 -0.36834890 0.17932853
v 0.05538440 -0.37509039 0.17932853
v 0.05272770 -0.37860358 0.17932853
v 0.05061690 -0.38073996 0.17741436
v 0.04901560 -0.38320869 0.17932853
v 0.04475760 -0.38833600 0.17932853
v 0.04166418 -0.39203912 0.17932853
v 0.03736980 -0.39697653 0.17932853
v 0.03678750 -0.39640683 0.17499541
v -0.05983630 -0.03872706 0.17932853
v -0.02657297 0.04069930 0.11235848
v -0.05503241 -0.03801493 0.17932853
v 0.10185845 -0.25991502 0.11235848
v 0.10506104 -0.25265127 0.11235848
v 0.10891873 -0.24220669 0.11235848
v 0.11816257 -0.21234466 0.11235848
v 0.09166837 -0.26395044 0.17932853
v 0.05083526 -0.38097733 0.17932853
v -0.02500806 0.04074678 0.11235848
v -0.05208456 -0.03782503 0.17932853
v -0.04502429 -0.03754018 0.17932853
v 0.09436145 -0.25493011 0.17932853
v 0.12078288 -0.20256472 0.11235848
v -0.01678321 0.04046193 0.11235848
v -0.04193087 -0.03768261 0.17932853
v 0.09552604 -0.24928053 0.17932853
v 0.12227501 -0.19482623 0.11235848
v -0.01503634 0.04036698 0.11235848
v -0.03505257 -0.03815736 0.17932853
v 0.09599915 -0.23926322 0.17932853
v 0.12278451 -0.19178781 0.11235848
v 0.12358516 -0.18509378 0.11235848
v 0.12387630 -0.18243514 0.11235848
v 0.12573235 -0.16206819 0.11235848
v 0.12627825 -0.15513678 0.11235848
v 0.12646021 -0.15171856 0.11235848
v -0.00506461 0.03965485 0.11235848
v -0.02442577 -0.03915434 0.17932853
v 0.00166812 0.03903767 0.11235848
v 0.09690899 -0.19881417 0.17932853
v 0.12656939 -0.14511947 0.11235848
v -0.02016777 -0.03958161 0.17932853
v 0.00497989 0.03865787 0.11235848
v -0.01507273 -0.04015133 0.17932853
v 0.09672701 -0.19506361 0.17932853
v 0.12649661 -0.14170124 0.11235848
v 0.00872838 0.03794573 0.11235848
v -0.01179735 -0.04081598 0.17932853
v 0.09629029 -0.18903422 0.17932853
v 0.12143797 -0.14511947 0.12299791
v 0.12598711 -0.13510215 0.11235848
v 0.01429654 0.03666390 0.11235848
v -0.00502822 -0.04224025 0.17932853
v 0.09578079 -0.18504629 0.17932853
v 0.11885405 -0.14511947 0.12799969
v 0.12464055 -0.13510215 0.11500686
v 0.12569596 -0.13201626 0.11235848
v 0.01498801 0.03642653 0.11235848
v 0.00123140 -0.04466149 0.17932853
v 0.09505293 -0.17991894 0.17932853
v 0.11816257 -0.13510215 0.12683937
v 0.12092845 -0.13510215 0.12183104
v 0.12427662 -0.12138176 0.11235848
v 0.02495973 0.03253354 0.11235848
v 0.00494350 -0.04618070 0.17932853
v 0.11070198 -0.13415265 0.13977320
v 0.10957380 -0.12517980 0.13935365
v 0.09996600 -0.13994464 0.16004252
v 0.09028544 -0.15114886 0.17932853
v 0.12041895 -0.12726870 0.12080185
v 0.12169272 -0.10457546 0.11235848
v 0.03067345 0.02973250 0.11235848
v 0.01102115 -0.04917166 0.17932853
v 0.11616096 -0.11511501 0.12500386
v 0.12045535 -0.09669454 0.11235848
v 0.11164820 -0.11511501 0.13290313
v 0.09931093 -0.13329810 0.15901332
v 0.09010346 -0.15015186 0.17932853
v 0.03631439 0.02655163 0.11235848
v 0.02499612 -0.05634044 0.17932853
v 0.03067345 -0.05937886 0.17932853
v 0.12016420 -0.09512786 0.11235848
v 0.10859118 -0.11511501 0.13790491
v 0.11936355 -0.09095002 0.11235848
v 0.10011157 -0.13040209 0.15673204
v 0.08912085 -0.14507200 0.17879754
v 0.08897528 -0.14597403 0.17932853
v 0.04948871 0.01905052 0.11235848
v 0.03602324 -0.06331933 0.17932853
v 0.05451097 0.01553734 0.11235848
v 0.11750750 -0.08420851 0.11235848
v 0.09818274 -0.12508485 0.15749902
v 0.08868413 -0.14502452 0.17932853
v 0.09115887 -0.13505468 0.17171115
v 0.09028544 -0.12935764 0.17040007
v 0.08635497 -0.13785574 0.17932853
v 0.04188254 -0.06816182 0.17932853
v 0.06087977 0.01055242 0.11235848
v 0.11696160 -0.08240444 0.11235848
v 0.10062109 -0.11801101 0.15096983
v 0.08198780 -0.12726870 0.17932853
v 0.08526318 -0.13505468 0.17932853
v 0.11470523 -0.07566294 0.11235848
v 0.11372262 -0.07295683 0.11235848
v 0.11095673 -0.06607290 0.11235848
v 0.10225877 -0.04494634 0.11235848
v 0.04679562 -0.07347907 0.17932853
v 0.06593841 0.00589983 0.11235848
v 0.07663800 -0.11506753 0.17932853
v 0.10000239 -0.03991395 0.11235848
v 0.04876085 -0.07561547 0.17932853
v 0.07052395 0.00091492 0.11235848
v 0.07267115 -0.10652196 0.17932853
v 0.09669062 -0.03378962 0.11235848
v 0.06957772 -0.10063501 0.17932853
v 0.05443818 -0.08188222 0.17932853
v 0.07390851 -0.00316797 0.11235848
v 0.06091616 -0.08914595 0.17932853
v 0.09552604 -0.03189060 0.11235848
v 0.06925020 -0.10016025 0.17932853
v 0.09166837 -0.02567132 0.11235848
v 0.07492752 -0.00440234 0.11235848
v 0.06306335 -0.09175710 0.17932853
v 0.06699382 -0.09697939 0.17932853
v 0.08861135 -0.02135105 0.11235848
f 1 2 3
f 1 3 4
f 1 4 15
f 1 15 34
f 1 34 47
f 1 47 46
f 1 46 59
f 1 59 79
f 1 79 78
f 1 78 94
f 1 94 93
f 1 93 110
f 1 110 138
f 1 138 137
f 1 137 136
f 1 136 148
f 1 148 172
f 1 172 192
f 1 192 194
f 1 194 212
f 1 212 231
f 1 231 226
f 1 226 227
f 1 227 245
f 1 245 244
f 1 244 243
f 1 243 248
f 1 248 247
f 1 247 246
f 1 246 272
f 1 272 271
f 1 271 273
f 1 273 291
f 1 291 290
f 1 290 289
f 1 289 268
f 1 268 267
f 1 267 266
f 1 266 288
f 1 288 306
f 1 306 321
f 1 321 338
f 1 338 323
f 1 323 336
f 1 336 337
f 1 337 327
f 1 327 341
f 1 341 343
f 1 343 351
f 1 351 362
f 1 362 361
f 1 361 371
f 1 371 387
f 1 387 386
f 1 386 385
f 1 385 384
f 1 384 397
f 1 397 382
f 1 382 381
f 1 381 380
f 1 380 396
f 1 396 401
f 1 401 405
f 1 405 409
f 1 409 419
f 1 419 424
f 1 424 428
f 1 428 433
f 1 433 439
f 1 439 448
f 1 448 457
f 1 457 466
f 1 466 472
f 1 472 475
f 1 475 481
f 1 481 480
f 1 480 488
f 1 488 492
f 1 492 494
f 1 494 499
f 1 499 503
f 1 503 502
f 1 502 497
f 1 497 495
f 1 495 490
f 1 490 486
f 1 486 476
f 1 476 468
f 1 468 460
f 1 460 459
f 1 459 452
f 1 452 444
f 1 444 438
f 1 438 432
f 1 432 427
f 1 427 423
f 1 423 421
f 1 421 417
f 1 417 408
f 1 408 404
f 1 404 400
f 1 400 399
f 1 399 391
f 1 391 389
f 1 389 373
f 1 373 372
f 1 372 363
f 1 363 353
f 1 353 340
f 1 340 326
f 1 326 324
f 1 324 307
f 1 307 292
f 1 292 274
f 1 274 249
f 1 249 229
f 1 229 210
f 1 210 209
f 1 209 189
f 1 189 167
f 1 167 166
f 1 166 164
f 1 164 139
f 1 139 111
f 1 111 95
f 1 95 80
f 1 80 60
f 1 60 48
f 1 48 35
f 1 35 16
f 1 16 5
f 1 5 6
f 1 6 7
f 1 7 2
f 2 7 3
f 3 8 9
f 3 9 4
f 3 7 10
f 3 10 11
f 3 11 12
f 3 12 13
f 3 13 14
f 3 14 8
f 4 9 15
f 5 16 17
f 5 17 18
f 5 18 19
f 5 19 20
f 5 20 21
f 5 21 6
f 6 21 20
f 6 20 19
f 6 19 18
f 6 18 17
f 6 17 36
f 6 36 50
f 6 50 49
f 6 49 64
f 6 64 63
f 6 63 62
f 6 62 61
f 6 61 85
f 6 85 84
f 6 84 83
f 6 83 82
f 6 82 81
f 6 81 96
f 6 96 114
f 6 114 112
f 6 112 140
f 6 140 165
f 6 165 188
f 6 188 208
f 6 208 228
f 6 228 230
f 6 230 250
f 6 250 275
f 6 275 293
f 6 293 308
f 6 308 325
f 6 325 339
f 6 339 352
f 6 352 355
f 6 355 354
f 6 354 364
f 6 364 374
f 6 374 390
f 6 390 398
f 6 398 403
f 6 403 407
f 6 407 416
f 6 416 418
f 6 418 422
f 6 422 426
f 6 426 431
f 6 431 437
f 6 437 443
f 6 443 451
f 6 451 458
f 6 458 467
f 6 467 469
f 6 469 477
f 6 477 487
f 6 487 491
f 6 491 496
f 6 496 501
f 6 501 504
f 6 504 500
f 6 500 498
f 6 498 493
f 6 493 489
f 6 489 485
f 6 485 484
f 6 484 483
f 6 483 482
f 6 482 478
f 6 478 470
f 6 470 463
f 6 463 461
f 6 461 454
f 6 454 450
f 6 450 442
f 6 442 436
f 6 436 430
f 6 430 425
f 6 425 420
f 6 420 415
f 6 415 414
f 6 414 413
f 6 413 412
f 6 412 411
f 6 411 410
f 6 410 406
f 6 406 402
f 6 402 395
f 6 395 394
f 6 394 393
f 6 393 392
f 6 392 377
f 6 377 376
f 6 376 375
f 6 375 366
f 6 366 356
f 6 356 344
f 6 344 330
f 6 330 313
f 6 313 299
f 6 299 277
f 6 277 251
f 6 251 232
f 6 232 215
f 6 215 199
f 6 199 180
f 6 180 198
f 6 198 197
f 6 197 195
f 6 195 175
f 6 175 174
f 6 174 152
f 6 152 151
f 6 151 155
f 6 155 154
f 6 154 150
f 6 150 126
f 6 126 125
f 6 125 124
f 6 124 123
f 6 123 102
f 6 102 87
f 6 87 69
f 6 69 68
f 6 68 65
f 6 65 51
f 6 51 37
f 6 37 23
f 6 23 10
f 6 10 7
f 8 14 9
f 9 14 22
f 9 22 15
f 10 23 24
f 10 24 12
f 10 12 11
f 12 24 25
f 12 25 26
f 12 26 27
f 12 27 28
f 12 28 13
f 13 28 29
f 13 29 14
f 14 29 30
f 14 30 31
f 14 31 22
f 15 32 33
f 15 33 34
f 15 22 32
f 16 35 36
f 16 36 17
f 22 31 32
f 23 37 24
f 24 37 38
f 24 38 25
f 25 38 26
f 26 38 27
f 27 39 30
f 27 30 28
f 27 38 40
f 27 40 41
f 27 41 42
f 27 42 39
f 28 30 29
f 30 39 31
f 31 39 42
f 31 42 43
f 31 43 32
f 32 43 33
f 33 43 44
f 33 44 45
f 33 45 46
f 33 46 47
f 33 47 34
f 35 48 49
f 35 49 50
f 35 50 36
f 37 51 52
f 37 52 53
f 37 53 54
f 37 54 38
f 38 54 55
f 38 55 56
f 38 56 40
f 40 56 41
f 41 56 57
f 41 57 42
f 42 57 45
f 42 45 44
f 42 44 43
f 45 57 58
f 45 58 46
f 46 58 59
f 48 60 61
f 48 61 62
f 48 62 63
f 48 63 64
f 48 64 49
f 51 65 52
f 52 66 67
f 52 67 53
f 52 65 68
f 52 68 69
f 52 69 70
f 52 70 66
f 53 67 71
f 53 71 72
f 53 72 73
f 53 73 74
f 53 74 54
f 54 74 73
f 54 73 55
f 55 73 57
f 55 57 56
f 57 73 75
f 57 75 58
f 58 76 77
f 58 77 78
f 58 78 79
f 58 79 59
f 58 75 76
f 60 80 81
f 60 81 82
f 60 82 83
f 60 83 84
f 60 84 85
f 60 85 61
f 66 76 71
f 66 71 67
f 66 70 86
f 66 86 76
f 69 87 88
f 69 88 70
f 70 89 90
f 70 90 86
f 70 88 89
f 71 76 72
f 72 76 75
f 72 75 73
f 76 86 77
f 77 86 91
f 77 91 92
f 77 92 93
f 77 93 94
f 77 94 78
f 80 95 96
f 80 96 81
f 86 97 91
f 86 90 98
f 86 98 99
f 86 99 100
f 86 100 101
f 86 101 97
f 87 102 103
f 87 103 89
f 87 89 88
f 89 103 90
f 90 103 104
f 90 104 105
f 90 105 106
f 90 106 98
f 91 97 107
f 91 107 108
f 91 108 109
f 91 109 92
f 92 109 93
f 93 109 110
f 95 111 112
f 95 112 113
f 95 113 96
f 96 113 114
f 97 101 115
f 97 115 107
f 98 106 116
f 98 116 117
f 98 117 118
f 98 118 119
f 98 119 99
f 99 119 100
f 100 119 120
f 100 120 101
f 101 120 121
f 101 121 122
f 101 122 115
f 102 123 103
f 103 123 124
f 103 124 125
f 103 125 126
f 103 126 127
f 103 127 104
f 104 128 129
f 104 129 106
f 104 106 130
f 104 130 131
f 104 131 105
f 104 127 128
f 105 131 130
f 105 130 106
f 106 129 132
f 106 132 133
f 106 133 134
f 106 134 135
f 106 135 116
f 107 136 137
f 107 137 108
f 107 115 122
f 107 122 136
f 108 138 109
f 108 137 138
f 109 138 110
f 111 139 140
f 111 140 112
f 112 114 113
f 116 135 141
f 116 141 142
f 116 142 143
f 116 143 144
f 116 144 145
f 116 145 118
f 116 118 117
f 118 146 120
f 118 120 119
f 118 145 146
f 120 146 147
f 120 147 121
f 121 147 122
f 122 148 136
f 122 147 149
f 122 149 148
f 126 150 127
f 127 150 128
f 128 151 152
f 128 152 153
f 128 153 132
f 128 132 129
f 128 150 154
f 128 154 155
f 128 155 151
f 132 156 133
f 132 153 156
f 133 156 157
f 133 157 158
f 133 158 159
f 133 159 134
f 134 159 160
f 134 160 161
f 134 161 135
f 135 161 162
f 135 162 163
f 135 163 141
f 139 164 140
f 140 164 166
f 140 166 167
f 140 167 165
f 141 168 169
f 141 169 143
f 141 143 142
f 141 163 168
f 143 170 144
f 143 169 170
f 144 171 147
f 144 147 145
f 144 170 171
f 145 147 146
f 147 171 149
f 148 149 172
f 149 171 173
f 149 173 172
f 152 174 157
f 152 157 153
f 153 157 156
f 157 175 176
f 157 176 177
f 157 177 178
f 157 178 158
f 157 174 175
f 158 178 159
f 159 178 179
f 159 179 180
f 159 180 181
f 159 181 182
f 159 182 162
f 159 162 160
f 160 162 161
f 162 182 183
f 162 183 163
f 163 183 184
f 163 184 185
f 163 185 186
f 163 186 187
f 163 187 168
f 165 167 189
f 165 189 188
f 168 187 190
f 168 190 170
f 168 170 169
f 170 191 171
f 170 190 191
f 171 191 173
f 172 173 192
f 173 191 193
f 173 193 194
f 173 194 192
f 175 195 196
f 175 196 176
f 176 196 177
f 177 196 197
f 177 197 178
f 178 197 179
f 179 197 198
f 179 198 180
f 180 199 181
f 181 199 200
f 181 200 182
f 182 200 183
f 183 200 201
f 183 201 184
f 184 202 203
f 184 203 204
f 184 204 185
f 184 201 202
f 185 205 186
f 185 204 205
f 186 206 207
f 186 207 187
f 186 205 206
f 187 207 193
f 187 193 191
f 187 191 190
f 188 189 209
f 188 209 210
f 188 210 208
f 193 207 211
f 193 211 194
f 194 211 212
f 195 197 196
f 199 213 214
f 199 214 200
f 199 215 216
f 199 216 217
f 199 217 218
f 199 218 219
f 199 219 213
f 200 214 201
f 201 214 202
f 202 214 220
f 202 220 203
f 203 221 222
f 203 222 223
f 203 223 224
f 203 224 204
f 203 220 213
f 203 213 219
f 203 219 218
f 203 218 225
f 203 225 221
f 204 224 205
f 205 226 211
f 205 211 206
f 205 224 227
f 205 227 226
f 206 211 207
f 208 210 228
f 210 229 230
f 210 230 228
f 211 226 231
f 211 231 212
f 213 220 214
f 215 232 233
f 215 233 234
f 215 234 235
f 215 235 236
f 215 236 216
f 216 236 237
f 216 237 238
f 216 238 239
f 216 239 240
f 216 240 217
f 217 240 241
f 217 241 218
f 218 241 242
f 218 242 225
f 221 243 244
f 221 244 222
f 221 225 243
f 222 244 245
f 222 245 223
f 223 245 224
f 224 245 227
f 225 242 246
f 225 246 247
f 225 247 248
f 225 248 243
f 229 249 250
f 229 250 230
f 232 251 252
f 232 252 253
f 232 253 233
f 233 253 254
f 233 254 255
f 233 255 256
f 233 256 257
f 233 257 258
f 233 258 259
f 233 259 260
f 233 260 234
f 234 260 261
f 234 261 235
f 235 261 262
f 235 262 236
f 236 262 263
f 236 263 264
f 236 264 265
f 236 265 238
f 236 238 237
f 238 265 266
f 238 266 267
f 238 267 268
f 238 268 269
f 238 269 239
f 239 241 240
f 239 269 241
f 241 269 270
f 241 270 242
f 242 271 272
f 242 272 246
f 242 270 273
f 242 273 271
f 249 274 275
f 249 275 250
f 251 276 252
f 251 277 276
f 252 276 278
f 252 278 279
f 252 279 255
f 252 255 254
f 252 254 253
f 255 279 256
f 256 279 257
f 257 280 258
f 257 279 278
f 257 278 276
f 257 276 281
f 257 281 280
f 258 282 283
f 258 283 259
f 258 280 282
f 259 283 261
f 259 261 260
f 261 283 284
f 261 284 263
f 261 263 262
f 263 284 264
f 264 285 286
f 264 286 265
f 264 284 287
f 264 287 285
f 265 286 266
f 266 286 288
f 268 289 269
f 269 289 290
f 269 290 270
f 270 290 291
f 270 291 273
f 274 292 293
f 274 293 275
f 276 294 295
f 276 295 281
f 276 277 296
f 276 296 297
f 276 297 298
f 276 298 294
f 277 299 300
f 277 300 296
f 280 281 282
f 281 301 282
f 281 295 301
f 282 301 302
f 282 302 303
f 282 303 283
f 283 303 304
f 283 304 284
f 284 304 287
f 285 287 304
f 285 304 303
f 285 303 305
f 285 305 306
f 285 306 288
f 285 288 286
f 292 307 308
f 292 308 293
f 294 298 309
f 294 309 310
f 294 310 311
f 294 311 295
f 295 311 301
f 296 300 297
f 297 300 299
f 297 299 312
f 297 312 309
f 297 309 298
f 299 313 314
f 299 314 315
f 299 315 316
f 299 316 312
f 301 311 310
f 301 310 317
f 301 317 318
f 301 318 302
f 302 319 320
f 302 320 321
f 302 321 305
f 302 305 303
f 302 318 322
f 302 322 323
f 302 323 319
f 305 321 306
f 307 324 308
f 308 324 326
f 308 326 325
f 309 312 316
f 309 316 310
f 310 327 318
f 310 318 317
f 310 316 328
f 310 328 329
f 310 329 327
f 313 330 314
f 314 331 315
f 314 330 331
f 315 331 316
f 316 331 332
f 316 332 333
f 316 333 334
f 316 334 335
f 316 335 329
f 316 329 328
f 318 336 322
f 318 327 337
f 318 337 336
f 319 338 320
f 319 323 338
f 320 338 321
f 322 336 323
f 325 326 339
f 326 340 339
f 327 329 341
f 329 335 342
f 329 342 343
f 329 343 341
f 330 344 332
f 330 332 331
f 332 344 345
f 332 345 346
f 332 346 347
f 332 347 333
f 333 347 334
f 334 347 348
f 334 348 349
f 334 349 350
f 334 350 335
f 335 350 351
f 335 351 342
f 339 340 352
f 340 353 354
f 340 354 355
f 340 355 352
f 342 351 343
f 344 356 357
f 344 357 345
f 345 357 346
f 346 357 347
f 347 357 358
f 347 358 359
f 347 359 360
f 347 360 348
f 348 360 361
f 348 361 362
f 348 362 351
f 348 351 349
f 349 351 350
f 353 363 354
f 354 363 364
f 356 365 357
f 356 366 365
f 357 365 367
f 357 367 368
f 357 368 369
f 357 369 359
f 357 359 358
f 359 370 360
f 359 369 370
f 360 370 361
f 361 370 371
f 363 372 364
f 364 372 373
f 364 373 374
f 365 366 375
f 365 375 367
f 367 375 376
f 367 376 377
f 367 377 378
f 367 378 379
f 367 379 368
f 368 379 380
f 368 380 381
f 368 381 382
f 368 382 383
f 368 383 384
f 368 384 385
f 368 385 386
f 368 386 369
f 369 386 387
f 369 387 388
f 369 388 370
f 370 388 387
f 370 387 371
f 373 389 374
f 374 389 391
f 374 391 390
f 377 392 380
f 377 380 378
f 378 380 379
f 380 392 393
f 380 393 394
f 380 394 395
f 380 395 396
f 382 397 383
f 383 397 384
f 390 391 399
f 390 399 400
f 390 400 398
f 395 401 396
f 395 402 401
f 398 400 403
f 400 404 403
f 401 402 405
f 402 406 405
f 403 404 407
f 404 408 407
f 405 406 410
f 405 410 411
f 405 411 412
f 405 412 413
f 405 413 414
f 405 414 415
f 405 415 409
f 407 408 416
f 408 417 418
f 408 418 416
f 409 415 419
f 415 420 419
f 417 421 418
f 418 421 423
f 418 423 422
f 419 420 425
f 419 425 424
f 422 423 426
f 423 427 426
f 424 425 429
f 424 429 428
f 425 430 429
f 426 427 432
f 426 432 431
f 428 429 434
f 428 434 433
f 429 430 435
f 429 435 434
f 430 436 435
f 431 432 437
f 432 438 437
f 433 434 440
f 433 440 439
f 434 435 436
f 434 436 441
f 434 441 440
f 436 442 441
f 437 438 443
f 438 444 443
f 439 440 445
f 439 445 446
f 439 446 447
f 439 447 448
f 440 441 442
f 440 442 449
f 440 449 445
f 442 450 449
f 443 444 451
f 444 452 451
f 445 449 446
f 446 453 454
f 446 454 455
f 446 455 447
f 446 449 453
f 447 456 457
f 447 457 448
f 447 455 456
f 449 450 453
f 450 454 453
f 451 452 459
f 451 459 460
f 451 460 458
f 454 461 455
f 455 462 456
f 455 461 463
f 455 463 462
f 456 462 463
f 456 463 464
f 456 464 457
f 457 465 466
f 457 464 465
f 458 460 467
f 460 468 469
f 460 469 467
f 463 470 471
f 463 471 464
f 464 471 465
f 465 472 466
f 465 471 473
f 465 473 474
f 465 474 475
f 465 475 472
f 468 476 477
f 468 477 469
f 470 478 471
f 471 478 479
f 471 479 473
f 473 479 474
f 474 480 481
f 474 481 475
f 474 479 478
f 474 478 482
f 474 482 483
f 474 483 484
f 474 484 485
f 474 485 480
f 476 486 487
f 476 487 477
f 480 485 488
f 485 489 488
f 486 490 491
f 486 491 487
f 488 489 492
f 489 493 494
f 489 494 492
f 490 495 491
f 491 495 497
f 491 497 496
f 493 498 494
f 494 498 500
f 494 500 499
f 496 497 501
f 497 502 501
f 499 500 504
f 499 504 503
f 501 502 504
f 502 503 504

