# https://github.com/mikedh/trimesh
v -0.05744554 -0.38800851 0.32573548
v -0.05632667 -0.38748291 0.32573548
v -0.05744554 -0.38767999 0.32619050
v -0.05744554 -0.17617343 0.32573548
v -0.05381677 -0.38619083 0.32573548
v -0.04941183 -0.38029984 0.33034003
v -0.05744554 -0.38253361 0.33261514
v -0.05744554 -0.18799923 0.35161066
v -0.04499682 -0.17726842 0.34235740
v -0.03247755 -0.16802678 0.33255064
v -0.02574416 -0.16513602 0.32573548
v -0.04623666 -0.38222700 0.32573548
v -0.05744554 -0.37751859 0.33772907
v -0.04274900 -0.37832886 0.32814303
v -0.02499824 -0.36970043 0.32573548
v -0.01804309 -0.36534238 0.32573548
v -0.03752759 -0.37164947 0.33147079
v -0.05744554 -0.37270066 0.34251019
v -0.05744554 -0.18975121 0.35313532
v -0.05499611 -0.18762693 0.35182798
v -0.03499753 -0.17569163 0.34292448
v -0.02499824 -0.16710699 0.33299887
v -0.02486720 -0.16500463 0.32573548
v -0.04488594 -0.38146052 0.32573548
v -0.03511849 -0.37581041 0.32573548
v -0.00164304 -0.35489628 0.32573548
v -0.05744554 -0.36772946 0.34634054
v 0.00480811 -0.35069156 0.32573548
v -0.05744554 -0.19737227 0.35803530
v -0.04499682 -0.18727654 0.35151556
v -0.03499753 -0.18364120 0.34791952
v -0.02499824 -0.17750931 0.34178692
v -0.02499824 -0.17251620 0.33799732
v -0.01777093 -0.16813627 0.33145043
v -0.01451511 -0.16428193 0.32573548
v -0.05744554 -0.36621839 0.34741017
v -0.05744554 -0.35780892 0.35330170
v 0.01369861 -0.34361798 0.32573548
v 0.01016056 -0.34015781 0.33009896
v 0.00499963 -0.34699050 0.32816678
v -0.05744554 -0.20059150 0.35973993
v -0.04499682 -0.19500712 0.35527799
v -0.03499753 -0.18863432 0.35071418
v -0.02911085 -0.18959790 0.35020483
v -0.02546192 -0.18576548 0.34705362
v -0.01900068 -0.17915177 0.34065276
v -0.01110810 -0.17104892 0.32920927
v -0.00817484 -0.16940644 0.32573548
v -0.01426312 -0.16436954 0.32573548
v 0.00400172 -0.33400404 0.33614668
v -0.00000001 -0.32999641 0.34000418
v -0.05744554 -0.34773511 0.35756329
v 0.01541220 -0.34155941 0.32573548
v 0.01728707 -0.33498952 0.32816678
v 0.01228742 -0.33498952 0.33153871
v -0.05744554 -0.20227778 0.36042586
v -0.05499611 -0.20302238 0.36042586
v -0.04499682 -0.20652631 0.36042586
v -0.05499611 -0.20102951 0.35954976
v -0.03499753 -0.19500712 0.35364127
v -0.02243794 -0.19185357 0.34937969
v -0.03890854 -0.20904477 0.36042586
v -0.03862631 -0.20917617 0.36042586
v -0.01232777 -0.18221773 0.33837423
v -0.01540215 -0.18532747 0.34250000
v -0.00884011 -0.18887521 0.34080216
v -0.00225792 -0.17494705 0.32573548
v -0.00759020 -0.17772830 0.33170849
v -0.00093745 -0.18090376 0.32933831
v 0.00667290 -0.18337840 0.32573548
v 0.00719706 -0.32498139 0.33881229
v 0.00219741 -0.32498139 0.34103987
v -0.00490894 -0.31506085 0.34810290
v -0.00151200 -0.30800918 0.34940684
v -0.05744554 -0.34269819 0.35924077
v 0.02067392 -0.33468291 0.32573548
v 0.01954497 -0.32920802 0.32965410
v 0.01572468 -0.32550699 0.33365083
v -0.05744554 -0.33888763 0.36042586
v -0.02499824 -0.20501524 0.35480937
v -0.01882933 -0.19853294 0.35045952
v -0.01529127 -0.19511661 0.34759015
v -0.03846503 -0.20928568 0.36042586
v -0.03190299 -0.21173842 0.35946828
v -0.00488878 -0.18488948 0.33508381
v -0.00531214 -0.19529180 0.34242868
v 0.00118942 -0.19881764 0.34077838
v -0.00217728 -0.19216016 0.33845913
v 0.00919288 -0.19080238 0.32942998
v 0.00251997 -0.18756124 0.33179340
v 0.00786233 -0.20212449 0.33848968
v 0.00551371 -0.18453908 0.32743672
v 0.00827561 -0.18491139 0.32573548
v 0.00958600 -0.31928748 0.33980042
v 0.00066526 -0.30132979 0.35038480
v -0.00490894 -0.30478993 0.35165140
v -0.05744554 -0.33989501 0.36016780
v -0.05744554 -0.33998263 0.36014062
v 0.02486718 -0.32815683 0.32573548
v 0.02653036 -0.32539749 0.32573548
v 0.02859675 -0.32169643 0.32573548
v 0.03227592 -0.31490755 0.32573548
v 0.02837499 -0.31499517 0.32874405
v 0.02140976 -0.32252863 0.33100221
v -0.01909140 -0.29110268 0.36033419
v -0.01993812 -0.29156256 0.36042586
v -0.02866734 -0.21833020 0.36042586
v -0.02525024 -0.21504527 0.35807943
v -0.01529127 -0.20565033 0.35127786
v -0.00953563 -0.20941706 0.35018107
v -0.01215641 -0.20275958 0.34913859
v 0.01106775 -0.20880388 0.34072745
v -0.03343514 -0.21331519 0.36042586
v 0.00519115 -0.19481000 0.33514154
v 0.01550292 -0.19448152 0.32752842
v 0.01675283 -0.19323325 0.32573548
v 0.01172294 -0.18824013 0.32573548
v 0.01917201 -0.20102951 0.32938245
v 0.02337535 -0.31499517 0.33222803
v 0.01470660 -0.31556454 0.33766115
v 0.01118871 -0.31263000 0.34076142
v 0.01935345 -0.29826385 0.33958989
v 0.01560372 -0.29495698 0.34270036
v 0.02182304 -0.28499267 0.34112814
v 0.02864715 -0.27500644 0.33916885
v 0.02364750 -0.27500644 0.34205857
v 0.00168333 -0.29497889 0.35086700
v -0.00500974 -0.29497889 0.35392651
v 0.01290230 -0.30498701 0.34184125
v 0.03725541 -0.30544692 0.32573548
v 0.02974586 -0.30943266 0.32983747
v -0.01299305 -0.28499267 0.35881290
v -0.01716614 -0.28499267 0.36042586
v -0.01885957 -0.28976679 0.36042586
v -0.02158115 -0.22825074 0.36042586
v -0.01965588 -0.22956473 0.36012024
v -0.02208514 -0.22288534 0.35917285
v -0.00419327 -0.22426501 0.35253426
v -0.00032257 -0.22043258 0.34987205
v -0.00738860 -0.21500146 0.35102659
v -0.00239904 -0.21500146 0.34905708
v 0.00499963 -0.21500146 0.34595004
v 0.01281158 -0.21500146 0.34189558
v 0.01781122 -0.21500146 0.33819768
v 0.02153072 -0.20770890 0.33142325
v 0.02093600 -0.19791976 0.32573548
v 0.02521997 -0.20396405 0.32573548
v 0.03125785 -0.30277517 0.33080524
v 0.01790194 -0.30498701 0.33866966
v 0.03789045 -0.29497889 0.32864559
v 0.03289080 -0.29497889 0.33182395
v 0.03926132 -0.28797102 0.32954204
v 0.02060336 -0.29160637 0.34038109
v 0.02682268 -0.28499267 0.33801770
v 0.04037011 -0.28131354 0.33030269
v 0.02969546 -0.26819566 0.33982760
v 0.00795305 -0.28499267 0.34896541
v 0.00295341 -0.28499267 0.35142729
v -0.00500974 -0.28499267 0.35524404
v 0.03475559 -0.30566591 0.32748765
v 0.03919076 -0.30128598 0.32573548
v 0.04201314 -0.29497889 0.32573548
v -0.00500974 -0.27500644 0.35615748
v -0.01203545 -0.27500644 0.35924757
v -0.01671254 -0.28284651 0.36042586
v -0.02044211 -0.23035310 0.36042586
v -0.01579526 -0.22573228 0.35752255
v -0.01845637 -0.23501772 0.36042586
v -0.01344664 -0.23501772 0.35881969
v -0.00500974 -0.23501772 0.35580772
v 0.00174381 -0.22711197 0.35085681
v 0.00503995 -0.22426501 0.34850359
v 0.00856793 -0.23501772 0.34922346
v 0.01560372 -0.22516289 0.34278184
v 0.01934337 -0.22192174 0.33950841
v 0.03015914 -0.21973178 0.33013290
v 0.02491757 -0.21585555 0.33263552
v 0.02819355 -0.21307430 0.32832980
v 0.03224568 -0.21508907 0.32573548
v 0.02957450 -0.21081865 0.32573548
v 0.02577437 -0.20481814 0.32573548
v 0.02542157 -0.20427066 0.32573548
v 0.04447264 -0.28659135 0.32573548
v 0.04484560 -0.28479558 0.32573548
v 0.04066243 -0.27500644 0.33062527
v 0.03017930 -0.26151627 0.34014001
v 0.02581469 -0.26491070 0.34219441
v 0.01499892 -0.27500644 0.34659860
v 0.00904168 -0.27500644 0.34953928
v 0.00404204 -0.27500644 0.35190946
v 0.00969688 -0.26821756 0.34985846
v 0.00581611 -0.26493260 0.35192305
v 0.00499963 -0.25501209 0.35304701
v -0.00500974 -0.26502022 0.35682982
v -0.01539207 -0.27500644 0.36042586
v -0.00500974 -0.25501209 0.35731542
v -0.01155161 -0.26502022 0.35951242
v -0.01536183 -0.24500395 0.36042586
v -0.01187417 -0.24500395 0.35950223
v -0.00500974 -0.24500395 0.35729504
v 0.00356828 -0.23501772 0.35198417
v 0.00580603 -0.24471927 0.35243240
v 0.01499892 -0.23501772 0.34524712
v 0.00967672 -0.24119341 0.34980074
v 0.02044209 -0.22860113 0.34033695
v 0.02426238 -0.22516289 0.33638775
v 0.03104617 -0.22500959 0.33085617
v 0.03604582 -0.22500959 0.32660478
v 0.03702357 -0.22500959 0.32573548
v 0.03669093 -0.22417741 0.32573548
v 0.03333431 -0.21692863 0.32573548
v 0.04553103 -0.27500644 0.32573548
v 0.04068259 -0.26502022 0.33071697
v 0.03017930 -0.25930440 0.34014001
v 0.01063431 -0.25501209 0.35034066
v 0.01415221 -0.26493260 0.34802479
v 0.01025128 -0.26153818 0.35011655
v 0.01058391 -0.24785091 0.35033387
v -0.01491831 -0.27113020 0.36042586
v -0.01137018 -0.25501209 0.35961089
v -0.01457559 -0.26502022 0.36042586
v -0.01462599 -0.25111395 0.36042586
v -0.01427320 -0.25501209 0.36042586
v 0.01435381 -0.24471927 0.34749848
v 0.02297215 -0.24500395 0.34202462
v 0.02141984 -0.23501772 0.34102628
v 0.02918138 -0.25264692 0.33940992
v 0.02797179 -0.24500395 0.33846253
v 0.03262872 -0.23501772 0.33216351
v 0.03762837 -0.23501772 0.32800040
v 0.03905972 -0.23146999 0.32573548
v 0.04536976 -0.26502022 0.32573548
v 0.04039027 -0.25779334 0.33042154
v 0.03977539 -0.25111395 0.32979673
v 0.03903956 -0.24500395 0.32914475
v 0.03403991 -0.24500395 0.33346409
v -0.01436392 -0.26077169 0.36042586
v 0.04011811 -0.23501772 0.32573548
v 0.04449280 -0.25496829 0.32573548
v 0.04300097 -0.24673402 0.32573548
v 0.04259777 -0.24500395 0.32573548
v 0.04129746 -0.23946334 0.32573548
f 1 2 3
f 1 3 7
f 1 7 13
f 1 13 18
f 1 18 27
f 1 27 36
f 1 36 37
f 1 37 52
f 1 52 75
f 1 75 98
f 1 98 97
f 1 97 79
f 1 79 56
f 1 56 41
f 1 41 29
f 1 29 19
f 1 19 8
f 1 8 4
f 1 4 11
f 1 11 23
f 1 23 35
f 1 35 49
f 1 49 48
f 1 48 67
f 1 67 70
f 1 70 93
f 1 93 117
f 1 117 116
f 1 116 146
f 1 146 147
f 1 147 182
f 1 182 181
f 1 181 180
f 1 180 179
f 1 179 211
f 1 211 210
f 1 210 209
f 1 209 231
f 1 231 238
f 1 238 242
f 1 242 241
f 1 241 240
f 1 240 239
f 1 239 232
f 1 232 212
f 1 212 184
f 1 184 183
f 1 183 162
f 1 162 161
f 1 161 130
f 1 130 102
f 1 102 101
f 1 101 100
f 1 100 99
f 1 99 76
f 1 76 53
f 1 53 38
f 1 38 28
f 1 28 26
f 1 26 16
f 1 16 15
f 1 15 25
f 1 25 24
f 1 24 12
f 1 12 5
f 1 5 2
f 2 5 6
f 2 6 7
f 2 7 3
f 4 8 9
f 4 9 10
f 4 10 11
f 5 12 6
f 6 13 7
f 6 12 14
f 6 14 15
f 6 15 16
f 6 16 17
f 6 17 18
f 6 18 13
f 8 19 20
f 8 20 9
f 9 21 10
f 9 20 21
f 10 22 23
f 10 23 11
f 10 21 22
f 12 24 14
f 14 24 25
f 14 25 15
f 16 18 17
f 16 26 18
f 18 26 28
f 18 28 27
f 19 29 20
f 20 29 30
f 20 30 21
f 21 31 32
f 21 32 33
f 21 33 22
f 21 30 31
f 22 33 34
f 22 34 35
f 22 35 23
f 27 28 36
f 28 37 36
f 28 38 39
f 28 39 40
f 28 40 37
f 29 41 30
f 30 41 42
f 30 42 43
f 30 43 31
f 31 43 44
f 31 44 45
f 31 45 32
f 32 45 46
f 32 46 33
f 33 46 34
f 34 47 48
f 34 48 49
f 34 49 35
f 34 46 47
f 37 40 39
f 37 39 50
f 37 50 51
f 37 51 52
f 38 53 39
f 39 53 54
f 39 54 55
f 39 55 50
f 41 56 57
f 41 57 58
f 41 58 59
f 41 59 42
f 42 60 44
f 42 44 43
f 42 59 58
f 42 58 60
f 44 61 45
f 44 60 62
f 44 62 63
f 44 63 61
f 45 61 46
f 46 64 47
f 46 61 65
f 46 65 66
f 46 66 64
f 47 67 48
f 47 64 68
f 47 68 69
f 47 69 70
f 47 70 67
f 50 55 71
f 50 71 51
f 51 71 72
f 51 72 73
f 51 73 52
f 52 73 74
f 52 74 75
f 53 76 54
f 54 76 77
f 54 77 55
f 55 77 78
f 55 78 71
f 56 79 106
f 56 106 134
f 56 134 133
f 56 133 165
f 56 165 195
f 56 195 219
f 56 219 221
f 56 221 237
f 56 237 223
f 56 223 222
f 56 222 198
f 56 198 168
f 56 168 166
f 56 166 135
f 56 135 107
f 56 107 113
f 56 113 83
f 56 83 63
f 56 63 62
f 56 62 58
f 56 58 57
f 58 62 60
f 61 80 81
f 61 81 82
f 61 82 65
f 61 63 83
f 61 83 84
f 61 84 80
f 64 85 68
f 64 66 85
f 65 82 86
f 65 86 87
f 65 87 66
f 66 88 89
f 66 89 90
f 66 90 85
f 66 87 91
f 66 91 88
f 68 85 69
f 69 85 90
f 69 90 92
f 69 92 93
f 69 93 70
f 71 78 94
f 71 94 74
f 71 74 72
f 72 74 73
f 74 94 95
f 74 95 96
f 74 96 97
f 74 97 98
f 74 98 75
f 76 99 77
f 77 99 100
f 77 100 101
f 77 101 102
f 77 102 103
f 77 103 104
f 77 104 78
f 78 104 94
f 79 97 105
f 79 105 106
f 80 84 107
f 80 107 81
f 81 107 108
f 81 108 109
f 81 109 110
f 81 110 111
f 81 111 82
f 82 111 112
f 82 112 86
f 83 113 84
f 84 113 107
f 86 112 87
f 87 112 91
f 88 114 89
f 88 91 114
f 89 114 91
f 89 91 115
f 89 115 116
f 89 116 117
f 89 117 92
f 89 92 90
f 91 118 115
f 91 112 118
f 92 117 93
f 94 104 119
f 94 119 120
f 94 120 121
f 94 121 95
f 95 122 123
f 95 123 124
f 95 124 125
f 95 125 126
f 95 126 127
f 95 127 128
f 95 128 105
f 95 105 96
f 95 121 129
f 95 129 122
f 96 105 97
f 102 130 103
f 103 130 131
f 103 131 104
f 104 131 119
f 105 128 132
f 105 132 133
f 105 133 134
f 105 134 106
f 107 135 136
f 107 136 137
f 107 137 138
f 107 138 139
f 107 139 140
f 107 140 110
f 107 110 108
f 108 110 109
f 110 140 141
f 110 141 111
f 111 141 142
f 111 142 112
f 112 142 143
f 112 143 144
f 112 144 145
f 112 145 118
f 115 118 116
f 116 118 146
f 118 147 146
f 118 145 147
f 119 131 120
f 120 131 121
f 121 131 148
f 121 148 149
f 121 149 129
f 122 150 151
f 122 151 152
f 122 152 153
f 122 153 123
f 122 129 148
f 122 148 150
f 123 153 124
f 124 153 125
f 125 153 154
f 125 154 152
f 125 152 155
f 125 155 156
f 125 156 126
f 126 156 127
f 127 156 157
f 127 157 158
f 127 158 159
f 127 159 128
f 128 159 132
f 129 149 148
f 130 160 131
f 130 161 160
f 131 160 162
f 131 162 150
f 131 150 148
f 132 159 163
f 132 163 164
f 132 164 165
f 132 165 133
f 135 166 136
f 136 138 167
f 136 167 137
f 136 166 168
f 136 168 169
f 136 169 170
f 136 170 138
f 137 167 138
f 138 170 171
f 138 171 139
f 139 171 142
f 139 142 141
f 139 141 140
f 142 171 172
f 142 172 143
f 143 172 173
f 143 173 174
f 143 174 175
f 143 175 144
f 144 175 176
f 144 176 177
f 144 177 145
f 145 177 176
f 145 176 178
f 145 178 179
f 145 179 180
f 145 180 181
f 145 181 182
f 145 182 147
f 150 162 152
f 150 152 151
f 152 162 155
f 152 154 153
f 155 162 183
f 155 183 184
f 155 184 185
f 155 185 186
f 155 186 156
f 156 186 187
f 156 187 188
f 156 188 157
f 157 188 189
f 157 189 158
f 158 189 159
f 159 189 190
f 159 190 163
f 160 161 162
f 163 190 191
f 163 191 192
f 163 192 193
f 163 193 194
f 163 194 164
f 164 195 165
f 164 194 196
f 164 196 197
f 164 197 195
f 168 198 199
f 168 199 169
f 169 199 200
f 169 200 170
f 170 201 171
f 170 200 202
f 170 202 201
f 171 201 172
f 172 201 173
f 173 203 174
f 173 201 204
f 173 204 203
f 174 205 175
f 174 203 205
f 175 205 206
f 175 206 207
f 175 207 176
f 176 207 208
f 176 208 209
f 176 209 210
f 176 210 211
f 176 211 179
f 176 179 178
f 184 212 185
f 185 212 213
f 185 213 186
f 186 213 214
f 186 214 215
f 186 215 187
f 187 216 188
f 187 215 216
f 188 216 189
f 189 216 191
f 189 191 190
f 191 216 217
f 191 217 192
f 192 217 193
f 193 196 194
f 193 217 215
f 193 215 218
f 193 218 202
f 193 202 200
f 193 200 196
f 195 197 219
f 196 220 197
f 196 200 220
f 197 220 221
f 197 221 219
f 198 222 199
f 199 222 223
f 199 223 220
f 199 220 200
f 201 202 204
f 202 218 204
f 203 204 224
f 203 224 214
f 203 214 225
f 203 225 226
f 203 226 205
f 204 218 224
f 205 226 214
f 205 214 227
f 205 227 228
f 205 228 206
f 206 228 229
f 206 229 207
f 207 229 230
f 207 230 208
f 208 230 231
f 208 231 209
f 212 232 213
f 213 232 233
f 213 233 214
f 214 226 225
f 214 224 218
f 214 218 215
f 214 233 234
f 214 234 235
f 214 235 236
f 214 236 227
f 215 217 216
f 220 223 237
f 220 237 221
f 227 236 230
f 227 230 229
f 227 229 228
f 230 238 231
f 230 236 235
f 230 235 238
f 232 239 233
f 233 239 240
f 233 240 234
f 234 240 235
f 235 240 241
f 235 241 242
f 235 242 238

