# https://github.com/mikedh/trimesh
v 0.09571542 -0.23617521 0.17932853
v 0.09422563 -0.23617521 0.19591551
v 0.11064872 -0.23943028 0.20091307
v 0.11068420 -0.23943028 0.19500832
v 0.11022307 -0.23981926 0.18983361
v 0.11068420 -0.24501918 0.18939881
v 0.09603466 -0.23934840 0.17932853
v -0.22859626 -0.23617521 0.17932853
v 0.08223642 -0.23617521 0.22276601
v 0.11064872 -0.24321763 0.20091307
v 0.11096796 -0.24594043 0.19593698
v 0.07535504 -0.23617521 0.23416755
v 0.09096231 -0.24925692 0.23102193
v 0.09174266 -0.25468203 0.23416755
v 0.09202643 -0.25543952 0.23416755
v 0.09273586 -0.26418114 0.23416755
v 0.11068420 -0.25161123 0.18937197
v 0.09553806 -0.24933881 0.17932853
v -0.24473558 -0.29470512 0.17932853
v -0.24235903 -0.23617521 0.20441298
v 0.10993931 -0.24987109 0.19989316
v 0.11068420 -0.25161123 0.19322079
v 0.09270038 -0.26500002 0.23416755
v 0.08808914 -0.29415238 0.23416755
v -0.24427445 -0.23617521 0.23416755
v 0.09170718 -0.26399687 0.17932853
v 0.09436752 -0.25500959 0.17932853
v 0.08010817 -0.33036762 0.22499909
v 0.08003722 -0.33016288 0.21989416
v 0.06127304 -0.37251979 0.20500882
v 0.06081192 -0.37153712 0.19500832
v 0.06031533 -0.37057492 0.18778843
v 0.05978326 -0.36887574 0.18112142
v 0.05960590 -0.36838442 0.17932853
v -0.24519670 -0.30070347 0.17932853
v -0.24697025 -0.29501221 0.18500783
v -0.25005624 -0.25951347 0.20987219
v -0.24523218 -0.23617521 0.21499859
v 0.08620918 -0.30418372 0.23416755
v 0.08603182 -0.30502307 0.23416755
v 0.08390357 -0.31419462 0.23416755
v 0.08099493 -0.32510626 0.23416755
v 0.08088852 -0.32547477 0.23416755
v 0.08007269 -0.33032668 0.23069985
v -0.24505483 -0.23617521 0.22499909
v -0.24718308 -0.24501918 0.23416755
v 0.06148587 -0.37272450 0.21499859
v 0.05854177 -0.37751499 0.20500882
v 0.05772594 -0.37653232 0.19500832
v 0.05712293 -0.37432134 0.18467501
v 0.05534938 -0.37511975 0.17932853
v -0.24501935 -0.30502307 0.17932853
v -0.24661554 -0.30502307 0.18500783
v -0.24938229 -0.29570824 0.19491707
v -0.25023359 -0.29282168 0.19819689
v -0.25016266 -0.28502178 0.19863169
v -0.24994983 -0.28000611 0.19998442
v -0.25073019 -0.27617782 0.20541678
v -0.25037548 -0.26500002 0.20933002
v -0.25140414 -0.27501088 0.21499859
v -0.25058830 -0.26500002 0.21499859
v -0.25005624 -0.25943160 0.21499859
v -0.24771515 -0.24501918 0.22499909
v -0.24743138 -0.24501918 0.21499859
v 0.07801537 -0.33392978 0.23416755
v 0.06137946 -0.37225366 0.22499909
v -0.24941775 -0.25584894 0.22426367
v -0.24846004 -0.25507101 0.23416755
v 0.05857724 -0.37771970 0.21499859
v 0.05354036 -0.38429129 0.20500882
v 0.05272453 -0.38332909 0.19500832
v 0.05272453 -0.37864095 0.17932853
v -0.24296203 -0.31519774 0.17932853
v -0.24459369 -0.31501350 0.18500783
v -0.24842457 -0.30502307 0.19500832
v -0.24973699 -0.29845151 0.20500882
v -0.25041094 -0.29345632 0.20500882
v -0.25101393 -0.28502178 0.20500882
v -0.25112039 -0.28502178 0.21499859
v -0.25044644 -0.27619827 0.22269623
v -0.25044644 -0.27501088 0.22280896
v -0.24966605 -0.26500002 0.22679734
v -0.25023359 -0.26500002 0.22179441
v -0.25002077 -0.25973868 0.22044706
v 0.06357867 -0.36498603 0.23416755
v 0.06070551 -0.37114814 0.23416755
v 0.05751312 -0.37614337 0.23416755
v 0.05811612 -0.37726933 0.22499909
v -0.24860193 -0.26616693 0.23416755
v 0.05357583 -0.38427082 0.21499859
v 0.04931930 -0.38928649 0.20500882
v 0.04857441 -0.38834476 0.19500832
v 0.05155398 -0.38187557 0.18500783
v 0.05084456 -0.38103619 0.17932853
v -0.24157865 -0.32095042 0.17932853
v -0.24622536 -0.31501350 0.19500832
v -0.23966323 -0.32854560 0.17932853
v -0.23980510 -0.32942590 0.18082082
v -0.24154319 -0.32565901 0.18449250
v -0.24849550 -0.30502307 0.20500882
v -0.24636725 -0.31501350 0.20500882
v -0.24778609 -0.30502307 0.21499859
v -0.24934682 -0.29671139 0.21499859
v -0.25026906 -0.29169571 0.21499859
v -0.25005624 -0.29048786 0.22072619
v -0.25026906 -0.28502178 0.22188567
v -0.24955964 -0.28502178 0.22688323
v -0.24838910 -0.28502178 0.23416755
v -0.24970153 -0.27617782 0.22711405
v 0.05293735 -0.38238737 0.23416755
v 0.05251170 -0.38294011 0.23416755
v 0.05311470 -0.38369757 0.22499909
v 0.04931930 -0.38928649 0.21499859
v 0.04431789 -0.39462972 0.21499859
v 0.03963571 -0.39962491 0.21499859
v 0.03956477 -0.39954305 0.20500882
v 0.03899723 -0.39890841 0.19500832
v 0.04357299 -0.39389271 0.19500832
v 0.03814593 -0.39784384 0.18500783
v 0.04240245 -0.39284864 0.18500783
v 0.04740386 -0.38687077 0.18500783
v 0.04708463 -0.38558102 0.17932853
v -0.24040811 -0.33137074 0.18749319
v -0.24317485 -0.32500392 0.19500832
v -0.24363598 -0.32500392 0.20500882
v -0.23902474 -0.33085895 0.17932853
v -0.23608065 -0.34037849 0.17932853
v -0.23891833 -0.33483055 0.18449250
v -0.24579971 -0.31501350 0.21499859
v -0.24356504 -0.32500392 0.21499859
v -0.24704120 -0.30502307 0.22499909
v -0.24899210 -0.29429567 0.22443545
v -0.24782155 -0.29497126 0.23416755
v 0.05215698 -0.38334957 0.23416755
v 0.04875176 -0.38869280 0.22499909
v 0.04375035 -0.39385179 0.22499909
v 0.03878441 -0.39884698 0.22499909
v 0.03378299 -0.40339181 0.22499909
v 0.03463429 -0.40414926 0.21499859
v 0.03456336 -0.40421069 0.20500882
v 0.03399581 -0.40380126 0.19500832
v 0.03314451 -0.40320754 0.18500783
v 0.03239962 -0.40245008 0.17932853
v 0.03740104 -0.39702496 0.17932853
v 0.04165756 -0.39202976 0.17932853
v 0.04477901 -0.38834476 0.17932853
v -0.23554859 -0.34498474 0.18500783
v -0.23909569 -0.33745098 0.19500832
v -0.24076283 -0.33245578 0.19500832
v -0.24104659 -0.33302900 0.20500882
v -0.24115300 -0.33294711 0.21499859
v -0.23451993 -0.34498474 0.17932853
v -0.24491294 -0.31501350 0.22499909
v -0.24072735 -0.33180067 0.22247078
v -0.24587065 -0.30586243 0.23416755
v -0.24604800 -0.30502307 0.23416755
v 0.04786499 -0.38793531 0.23416755
v 0.03757839 -0.39776194 0.23416755
v 0.03257698 -0.40240914 0.23416755
v 0.04243793 -0.39317620 0.23416755
v 0.02668878 -0.40740433 0.23416755
v 0.02771744 -0.40840748 0.22499909
v 0.02867516 -0.40914446 0.21499859
v 0.02892346 -0.40920588 0.20500882
v 0.02842686 -0.40879646 0.19500832
v 0.02771744 -0.40820277 0.18500783
v 0.02683067 -0.40746576 0.17932853
v -0.23586783 -0.34498474 0.19500832
v -0.23920210 -0.33802420 0.20500882
v -0.23295920 -0.34873113 0.17932853
v -0.23132753 -0.35217047 0.17932853
v -0.23175319 -0.35290745 0.18500783
v -0.23895380 -0.33794230 0.21499859
v -0.24196884 -0.32559761 0.22548220
v -0.24104659 -0.32267007 0.23280945
v -0.23508745 -0.34498474 0.21499859
v -0.23256901 -0.34535325 0.22475752
v -0.23810250 -0.33507621 0.22548220
v -0.23966323 -0.32932353 0.22914314
v -0.24239449 -0.31720403 0.23416755
v 0.02211302 -0.41082320 0.23416755
v 0.02168737 -0.41110981 0.23416755
v 0.02271603 -0.41164207 0.22499909
v 0.02367374 -0.41221529 0.21499859
v 0.01111700 -0.42069077 0.20500882
v 0.01611841 -0.41759947 0.20500882
v 0.02392204 -0.41258380 0.20500882
v 0.01136529 -0.42091596 0.19500832
v 0.01636671 -0.41749713 0.19500832
v 0.02342544 -0.41248143 0.19500832
v 0.02271603 -0.41192868 0.18500783
v 0.02182925 -0.41127360 0.17932853
v -0.23175319 -0.35319406 0.19500832
v -0.23586783 -0.34498474 0.20500882
v -0.22806419 -0.35716566 0.17932853
v -0.22856079 -0.35790268 0.18500783
v -0.22891550 -0.35818928 0.19500832
v -0.23161130 -0.35309172 0.20500882
v -0.22891550 -0.35808691 0.20500882
v -0.24172054 -0.31939453 0.23416755
v -0.23888285 -0.32647792 0.23416755
v -0.23991153 -0.32404172 0.23416755
v -0.24076283 -0.32201499 0.23416755
v -0.23107924 -0.35198620 0.21499859
v -0.23040529 -0.35065553 0.22126836
v -0.22313371 -0.35538459 0.23416755
v -0.22848985 -0.34668392 0.23416755
v -0.23118564 -0.34207767 0.23416755
v -0.23487464 -0.33503526 0.23416755
v 0.02104889 -0.41147831 0.23416755
v 0.00987551 -0.41991282 0.21939494
v 0.01494787 -0.41622785 0.22499909
v 0.01427392 -0.41772231 0.21563737
v 0.01047852 -0.42028132 0.21272257
v 0.00494504 -0.42433482 0.20500882
v 0.00494504 -0.42478520 0.19500832
v 0.01079776 -0.42058840 0.18720332
v 0.01448674 -0.41747665 0.18432610
v 0.00980457 -0.41987190 0.18053095
v 0.00955627 -0.41972858 0.17932853
v -0.22526199 -0.36126009 0.17932853
v -0.22075716 -0.36777025 0.17932853
v -0.21976398 -0.36973557 0.18148644
v -0.22295636 -0.36584586 0.18489510
v -0.22018963 -0.37028831 0.18815345
v -0.22054434 -0.37075919 0.19500832
v -0.22448161 -0.36498603 0.19500832
v -0.22465898 -0.36498603 0.20500882
v -0.22040245 -0.37047258 0.21135911
v -0.22809966 -0.35698143 0.21499859
v -0.22274354 -0.36543643 0.21481608
v -0.22160846 -0.36240655 0.22499909
v -0.22685818 -0.35440192 0.22475752
v -0.22008321 -0.36015460 0.23416755
v -0.22224694 -0.35677668 0.23416755
v 0.01448674 -0.41506094 0.23416755
v 0.00905968 -0.41958529 0.22499909
v 0.00590275 -0.42265612 0.21563737
v -0.00239746 -0.42865443 0.20500882
v 0.00583182 -0.42296320 0.18432610
v -0.00739888 -0.43139771 0.20500882
v -0.00257482 -0.42883870 0.19500832
v 0.00473221 -0.42249233 0.17932853
v -0.21958661 -0.36944896 0.17932853
v -0.21142828 -0.38201886 0.18500783
v -0.21678440 -0.37575439 0.19500832
v -0.22068621 -0.37088200 0.20500882
v -0.21178299 -0.38218266 0.19500832
v -0.20734911 -0.38717785 0.19500832
v -0.21125092 -0.38128188 0.20500882
v -0.21043509 -0.38046297 0.21195495
v -0.20965473 -0.37964410 0.21862195
v -0.20883889 -0.37864095 0.22499909
v -0.20245411 -0.38263303 0.23416755
v -0.20784570 -0.37645045 0.23416755
v -0.21930285 -0.36908045 0.21802074
v -0.21681988 -0.36469942 0.23416755
v 0.00324243 -0.42026085 0.23416755
v 0.00224924 -0.42097738 0.23326036
v -0.00998827 -0.43000561 0.22009277
v -0.00881772 -0.43066072 0.21499859
v -0.00381631 -0.42808121 0.21499859
v -0.00523515 -0.42849067 0.18441735
v -0.00757623 -0.43109062 0.19500832
v -0.01506063 -0.43465278 0.20500882
v -0.00516421 -0.42732376 0.17932853
v -0.21089621 -0.38128188 0.17932853
v -0.20990302 -0.38261256 0.17932853
v -0.20759740 -0.38701409 0.18500783
v -0.20263146 -0.39260298 0.18500783
v -0.20234770 -0.39225495 0.19500832
v -0.20621404 -0.38627708 0.20500882
v -0.20124809 -0.39119041 0.20500882
v -0.19961642 -0.38961405 0.21846628
v -0.20383748 -0.38384089 0.22499909
v -0.19763005 -0.38764870 0.23416755
v -0.19880059 -0.38883609 0.22499909
v -0.21142828 -0.37186468 0.23416755
v 0.00012098 -0.42157108 0.23416755
v -0.00434837 -0.42343405 0.23416755
v -0.00576721 -0.42400727 0.23416755
v -0.01268407 -0.42900246 0.22676514
v -0.01562816 -0.43086544 0.22405432
v -0.01506063 -0.43317878 0.21499859
v -0.00874678 -0.43047646 0.18735899
v -0.01034298 -0.42984182 0.18069199
v -0.01506063 -0.43407956 0.19500832
v -0.02502799 -0.43610632 0.21499859
v -0.02502799 -0.43743700 0.20500882
v -0.02502799 -0.43725276 0.19500832
v -0.01073316 -0.42969853 0.17932853
v -0.20412125 -0.38959357 0.17932853
v -0.20195751 -0.39202976 0.17932853
v -0.19706251 -0.39759818 0.18500783
v -0.19656591 -0.39702496 0.17932853
v -0.19660139 -0.39725015 0.19500832
v -0.19011018 -0.40011626 0.21067739
v -0.18936530 -0.39946115 0.21733901
v -0.18847853 -0.39862180 0.22499909
v -0.19379917 -0.39362657 0.22499909
v -0.19262862 -0.39245966 0.23416755
v -0.01552175 -0.42779461 0.23416755
v -0.01935262 -0.43021032 0.23077500
v -0.02502799 -0.43350634 0.22499909
v -0.02502799 -0.43620867 0.18500783
v -0.02006204 -0.43342447 0.17932853
v -0.03503082 -0.43608582 0.22499909
v -0.03503082 -0.43815354 0.21499859
v -0.04074166 -0.43987319 0.20879860
v -0.03538553 -0.43927950 0.20528258
v -0.03896810 -0.44018027 0.20213696
v -0.03371839 -0.43927950 0.19500832
v -0.03978394 -0.44003695 0.17932853
v -0.03524365 -0.43870628 0.17932853
v -0.03148372 -0.43758029 0.17932853
v -0.19376370 -0.39952257 0.17932853
v -0.18124244 -0.40969723 0.17932853
v -0.19206110 -0.40159026 0.18500783
v -0.19159997 -0.40124223 0.19500832
v -0.18496689 -0.40482485 0.20500882
v -0.18560536 -0.40292093 0.21440811
v -0.18347710 -0.40279812 0.22499909
v -0.18691780 -0.39745489 0.23416755
v -0.01594740 -0.42793792 0.23416755
v -0.02520534 -0.43084496 0.23416755
v -0.02566646 -0.43096781 0.23416755
v -0.03503082 -0.43342447 0.23416755
v -0.02502799 -0.43526694 0.17932853
v -0.04503365 -0.43796927 0.22499909
v -0.04443064 -0.43962753 0.21586283
v -0.04741021 -0.44038498 0.21310370
v -0.05503649 -0.44243222 0.20500882
v -0.04443064 -0.44079444 0.20528258
v -0.06503931 -0.44474557 0.19500832
v -0.05503649 -0.44314873 0.19500832
v -0.04503365 -0.44138813 0.19500832
v -0.03871981 -0.44024169 0.19500832
v -0.04503365 -0.44122434 0.18500783
v -0.03935829 -0.44011885 0.18500783
v -0.05503649 -0.44306684 0.18500783
v -0.04474988 -0.44087631 0.17932853
v -0.18042660 -0.41033185 0.17932853
v -0.18053301 -0.41041374 0.18500783
v -0.18032017 -0.41022950 0.19177145
v -0.17964622 -0.40975863 0.19844382
v -0.17897227 -0.40928778 0.20500882
v -0.17787269 -0.40857124 0.21499859
v -0.18191639 -0.40152884 0.23416755
v -0.18649215 -0.39780289 0.23416755
v -0.17656025 -0.40779331 0.22499909
v -0.04503365 -0.43524647 0.23416755
v -0.05500101 -0.43620867 0.23416755
v -0.05450442 -0.43905431 0.22424757
v -0.05085090 -0.43995509 0.21977606
v -0.06503931 -0.44347629 0.20500882
v -0.06503931 -0.44452035 0.18500783
v -0.07500668 -0.44529831 0.19500832
v -0.07500668 -0.44513452 0.18500783
v -0.05503649 -0.44251409 0.17932853
v -0.17950435 -0.41100743 0.17932853
v -0.17496406 -0.41456962 0.18500783
v -0.17577988 -0.41301370 0.19506200
v -0.16840191 -0.41913489 0.18500783
v -0.17397086 -0.41274756 0.20500882
v -0.16755061 -0.41860262 0.19500832
v -0.17287126 -0.41188776 0.21499859
v -0.17056563 -0.41035235 0.23091456
v -0.17389992 -0.40695396 0.23416755
v -0.17155883 -0.41098696 0.22499909
v -0.06503931 -0.43688425 0.23416755
v -0.07500668 -0.43747795 0.23416755
v -0.06503931 -0.43911570 0.22602972
v -0.05751945 -0.44007790 0.22040948
v -0.06503931 -0.44149047 0.21499859
v -0.07500668 -0.44169521 0.21499859
v -0.07500668 -0.44364005 0.20500882
v -0.06503931 -0.44355819 0.17932853
v -0.08497404 -0.44273928 0.20500882
v -0.08497404 -0.44437706 0.19500832
v -0.09497687 -0.44388574 0.18500783
v -0.08497404 -0.44480699 0.18500783
v -0.07500668 -0.44406998 0.17932853
v -0.09064940 -0.44386524 0.17932853
v -0.08064657 -0.44419283 0.17932853
v -0.17255202 -0.41577744 0.17932853
v -0.16340050 -0.42165297 0.18500783
v -0.16254920 -0.42126399 0.19500832
v -0.16797626 -0.41888922 0.17932853
v -0.16513857 -0.42038369 0.17932853
v -0.16297483 -0.42148918 0.17932853
v -0.16130771 -0.42073172 0.20500882
v -0.16045640 -0.42028132 0.21176708
v -0.16630912 -0.41774279 0.20500882
v -0.16425180 -0.41733333 0.21506301
v -0.16943058 -0.40969723 0.23416755
v -0.16496122 -0.41506094 0.22499909
v -0.15832815 -0.41905302 0.22499909
v -0.15155317 -0.42085457 0.23193985
v -0.16549328 -0.41196963 0.23416755
v -0.15953416 -0.41970810 0.21843944
v -0.08497404 -0.43717086 0.23416755
v -0.07500668 -0.43932045 0.22674903
v -0.06503931 -0.44020075 0.22103754
v -0.07500668 -0.44034404 0.22175147
v -0.08195900 -0.44026217 0.22136497
v -0.08518686 -0.44089681 0.21534750
v -0.09497687 -0.43784645 0.22499909
v -0.09933981 -0.43989366 0.20941055
v -0.09497687 -0.44286212 0.19500832
v -0.10065223 -0.44257551 0.17932853
v -0.09497687 -0.44345582 0.17932853
v -0.10497970 -0.44216606 0.18500783
v -0.10544083 -0.44175664 0.17932853
v -0.15495840 -0.42546079 0.18500783
v -0.15495840 -0.42527655 0.17932853
v -0.14449444 -0.43010795 0.17932853
v -0.15495840 -0.42468286 0.19500832
v -0.15495840 -0.42372066 0.20500882
v -0.15570328 -0.42220572 0.21506301
v -0.15332672 -0.42181674 0.22499909
v -0.15055999 -0.42034274 0.23416755
v -0.15389426 -0.41856167 0.23416755
v -0.14495556 -0.42560410 0.22499909
v -0.13002226 -0.42998514 0.23002885
v -0.14708382 -0.42183721 0.23416755
v -0.08578987 -0.43706849 0.23416755
v -0.08518686 -0.43917713 0.22482194
v -0.09579270 -0.43561497 0.23416755
v -0.10497970 -0.43633151 0.22499909
v -0.10497970 -0.43809211 0.21499859
v -0.11498253 -0.43655670 0.21499859
v -0.10565365 -0.43952516 0.20565835
v -0.10948452 -0.43991414 0.19915238
v -0.11079695 -0.44020075 0.19249076
v -0.11189655 -0.44050783 0.18500783
v -0.10966188 -0.44097868 0.17932853
v -0.14715476 -0.42879775 0.18500783
v -0.14229524 -0.43100876 0.17932853
v -0.14215335 -0.43090639 0.18500783
v -0.14616157 -0.42838830 0.19500832
v -0.14424613 -0.42830640 0.20523964
v -0.14495556 -0.42713952 0.21499859
v -0.13899642 -0.42959616 0.21499859
v -0.13399501 -0.43158197 0.21499859
v -0.13672628 -0.42877728 0.22499909
v -0.13399501 -0.42691430 0.23416755
v -0.13399501 -0.42697573 0.23401187
v -0.13541386 -0.42638204 0.23416755
v -0.13172486 -0.43068120 0.22499909
v -0.12494989 -0.43258509 0.22499909
v -0.12494989 -0.43061978 0.23163387
v -0.12686533 -0.42914578 0.23416755
v -0.10579553 -0.43375200 0.23416755
v -0.11498253 -0.43465278 0.22499909
v -0.12494989 -0.43446854 0.21499859
v -0.12494989 -0.43541026 0.20500882
v -0.12494989 -0.43618819 0.19500832
v -0.11689797 -0.43913621 0.18500783
v -0.12147373 -0.43798974 0.17932853
v -0.11175467 -0.44046688 0.17932853
v -0.13495272 -0.43389532 0.17932853
v -0.13495272 -0.43369061 0.18500783
v -0.13495272 -0.43289217 0.19500832
v -0.14116016 -0.43047646 0.19500832
v -0.14041527 -0.43016937 0.20206718
v -0.13967037 -0.42988276 0.20872882
v -0.11785568 -0.43127489 0.23416755
v -0.12246692 -0.43023080 0.23416755
v -0.12494989 -0.43692520 0.18500783
v -0.12494989 -0.43702757 0.17932853
v -0.13062526 -0.43530789 0.17932853
f 1 2 3
f 1 3 4
f 1 4 5
f 1 5 6
f 1 6 7
f 1 7 18
f 1 18 27
f 1 27 26
f 1 26 34
f 1 34 51
f 1 51 72
f 1 72 94
f 1 94 122
f 1 122 146
f 1 146 145
f 1 145 144
f 1 144 143
f 1 143 167
f 1 167 192
f 1 192 220
f 1 220 243
f 1 243 266
f 1 266 291
f 1 291 306
f 1 306 328
f 1 328 315
f 1 315 314
f 1 314 313
f 1 313 341
f 1 341 359
f 1 359 377
f 1 377 382
f 1 382 384
f 1 384 383
f 1 383 411
f 1 411 410
f 1 410 413
f 1 413 436
f 1 436 460
f 1 460 459
f 1 459 470
f 1 470 471
f 1 471 461
f 1 461 438
f 1 438 416
f 1 416 415
f 1 415 390
f 1 390 389
f 1 389 388
f 1 388 385
f 1 385 360
f 1 360 342
f 1 342 317
f 1 317 316
f 1 316 295
f 1 295 293
f 1 293 292
f 1 292 268
f 1 268 267
f 1 267 244
f 1 244 222
f 1 222 221
f 1 221 195
f 1 195 171
f 1 171 170
f 1 170 152
f 1 152 127
f 1 127 126
f 1 126 97
f 1 97 95
f 1 95 73
f 1 73 52
f 1 52 35
f 1 35 19
f 1 19 8
f 1 8 20
f 1 20 38
f 1 38 45
f 1 45 25
f 1 25 12
f 1 12 9
f 1 9 2
f 2 9 3
f 3 10 11
f 3 11 4
f 3 9 12
f 3 12 13
f 3 13 14
f 3 14 15
f 3 15 16
f 3 16 10
f 4 11 6
f 4 6 5
f 6 11 17
f 6 17 7
f 7 17 18
f 8 19 20
f 10 21 22
f 10 22 11
f 10 16 23
f 10 23 24
f 10 24 21
f 11 22 17
f 12 14 13
f 12 25 46
f 12 46 68
f 12 68 89
f 12 89 108
f 12 108 133
f 12 133 156
f 12 156 155
f 12 155 180
f 12 180 200
f 12 200 203
f 12 203 202
f 12 202 201
f 12 201 209
f 12 209 208
f 12 208 207
f 12 207 206
f 12 206 235
f 12 235 234
f 12 234 257
f 12 257 278
f 12 278 255
f 12 255 254
f 12 254 276
f 12 276 301
f 12 301 323
f 12 323 349
f 12 349 348
f 12 348 368
f 12 368 395
f 12 395 399
f 12 399 422
f 12 422 421
f 12 421 425
f 12 425 448
f 12 448 446
f 12 446 452
f 12 452 468
f 12 468 467
f 12 467 453
f 12 453 428
f 12 428 426
f 12 426 401
f 12 401 371
f 12 371 370
f 12 370 352
f 12 352 351
f 12 351 327
f 12 327 326
f 12 326 325
f 12 325 324
f 12 324 302
f 12 302 281
f 12 281 280
f 12 280 279
f 12 279 258
f 12 258 236
f 12 236 210
f 12 210 182
f 12 182 181
f 12 181 161
f 12 161 159
f 12 159 158
f 12 158 160
f 12 160 157
f 12 157 134
f 12 134 111
f 12 111 110
f 12 110 87
f 12 87 86
f 12 86 85
f 12 85 65
f 12 65 43
f 12 43 42
f 12 42 41
f 12 41 40
f 12 40 39
f 12 39 24
f 12 24 23
f 12 23 16
f 12 16 15
f 12 15 14
f 17 26 27
f 17 27 18
f 17 22 28
f 17 28 29
f 17 29 30
f 17 30 31
f 17 31 32
f 17 32 33
f 17 33 34
f 17 34 26
f 19 35 36
f 19 36 37
f 19 37 20
f 20 37 38
f 21 24 39
f 21 39 40
f 21 40 41
f 21 41 42
f 21 42 43
f 21 43 22
f 22 43 44
f 22 44 28
f 25 45 46
f 28 44 47
f 28 47 30
f 28 30 29
f 30 47 48
f 30 48 31
f 31 48 49
f 31 49 32
f 32 49 50
f 32 50 51
f 32 51 33
f 33 51 34
f 35 52 53
f 35 53 36
f 36 53 54
f 36 54 55
f 36 55 56
f 36 56 57
f 36 57 37
f 37 57 56
f 37 56 58
f 37 58 59
f 37 59 60
f 37 60 61
f 37 61 62
f 37 62 63
f 37 63 64
f 37 64 38
f 38 64 63
f 38 63 45
f 43 65 44
f 44 65 66
f 44 66 47
f 45 63 46
f 46 63 67
f 46 67 68
f 47 66 69
f 47 69 48
f 48 69 70
f 48 70 71
f 48 71 49
f 49 71 50
f 50 71 51
f 51 71 72
f 52 73 53
f 53 73 74
f 53 74 75
f 53 75 54
f 54 75 55
f 55 76 77
f 55 77 78
f 55 78 56
f 55 75 76
f 56 78 58
f 58 78 60
f 58 60 59
f 60 78 79
f 60 79 80
f 60 80 81
f 60 81 82
f 60 82 68
f 60 68 83
f 60 83 84
f 60 84 61
f 61 84 62
f 62 84 67
f 62 67 63
f 65 85 66
f 66 85 86
f 66 86 87
f 66 87 88
f 66 88 69
f 67 84 68
f 68 84 83
f 68 82 81
f 68 81 89
f 69 88 90
f 69 90 70
f 70 90 91
f 70 91 92
f 70 92 71
f 71 93 72
f 71 92 93
f 72 93 94
f 73 95 74
f 74 96 75
f 74 95 97
f 74 97 98
f 74 98 99
f 74 99 96
f 75 100 76
f 75 96 101
f 75 101 100
f 76 100 102
f 76 102 103
f 76 103 104
f 76 104 77
f 77 104 79
f 77 79 78
f 79 104 105
f 79 105 106
f 79 106 80
f 80 106 107
f 80 107 108
f 80 108 81
f 81 108 109
f 81 109 89
f 87 110 88
f 88 110 111
f 88 111 112
f 88 112 90
f 89 109 108
f 90 112 113
f 90 113 91
f 91 113 114
f 91 114 115
f 91 115 116
f 91 116 117
f 91 117 118
f 91 118 92
f 92 118 119
f 92 119 120
f 92 120 121
f 92 121 93
f 93 121 122
f 93 122 94
f 96 99 123
f 96 123 124
f 96 124 125
f 96 125 101
f 97 126 98
f 98 126 127
f 98 127 128
f 98 128 99
f 99 128 123
f 100 101 129
f 100 129 102
f 101 125 130
f 101 130 129
f 102 129 131
f 102 131 103
f 103 131 105
f 103 105 104
f 105 107 106
f 105 131 132
f 105 132 133
f 105 133 107
f 107 133 108
f 111 134 112
f 112 134 135
f 112 135 113
f 113 135 114
f 114 135 115
f 115 135 136
f 115 136 137
f 115 137 138
f 115 138 139
f 115 139 140
f 115 140 116
f 116 140 141
f 116 141 117
f 117 141 142
f 117 142 119
f 117 119 118
f 119 142 143
f 119 143 144
f 119 144 145
f 119 145 120
f 120 145 146
f 120 146 121
f 121 146 122
f 123 128 147
f 123 147 148
f 123 148 149
f 123 149 124
f 124 149 150
f 124 150 125
f 125 150 151
f 125 151 130
f 127 152 128
f 128 152 147
f 129 153 131
f 129 130 153
f 130 151 154
f 130 154 153
f 131 153 155
f 131 155 156
f 131 156 133
f 131 133 132
f 134 157 135
f 135 157 136
f 136 157 137
f 137 158 159
f 137 159 138
f 137 157 160
f 137 160 158
f 138 159 161
f 138 161 162
f 138 162 163
f 138 163 139
f 139 163 164
f 139 164 140
f 140 164 165
f 140 165 141
f 141 165 166
f 141 166 142
f 142 166 143
f 143 166 167
f 147 168 169
f 147 169 148
f 147 152 170
f 147 170 171
f 147 171 172
f 147 172 168
f 148 169 150
f 148 150 149
f 150 169 151
f 151 169 173
f 151 173 154
f 153 154 174
f 153 174 155
f 154 175 174
f 154 173 176
f 154 176 177
f 154 177 178
f 154 178 179
f 154 179 175
f 155 174 180
f 161 181 162
f 162 181 182
f 162 182 163
f 163 182 183
f 163 183 184
f 163 184 185
f 163 185 186
f 163 186 187
f 163 187 164
f 164 187 188
f 164 188 189
f 164 189 190
f 164 190 165
f 165 190 191
f 165 191 166
f 166 191 192
f 166 192 167
f 168 172 193
f 168 193 194
f 168 194 169
f 169 194 173
f 171 195 196
f 171 196 172
f 172 196 197
f 172 197 193
f 173 194 198
f 173 198 199
f 173 199 176
f 174 175 200
f 174 200 180
f 175 179 201
f 175 201 202
f 175 202 203
f 175 203 200
f 176 199 204
f 176 204 205
f 176 205 177
f 177 205 206
f 177 206 207
f 177 207 208
f 177 208 178
f 178 208 209
f 178 209 179
f 179 209 201
f 182 210 211
f 182 211 212
f 182 212 183
f 183 212 211
f 183 211 184
f 184 211 213
f 184 213 214
f 184 214 185
f 185 214 215
f 185 215 216
f 185 216 188
f 185 188 186
f 186 188 187
f 188 216 217
f 188 217 189
f 189 191 190
f 189 217 191
f 191 217 218
f 191 218 219
f 191 219 192
f 192 219 220
f 193 197 199
f 193 199 198
f 193 198 194
f 195 221 196
f 196 221 222
f 196 222 223
f 196 223 224
f 196 224 225
f 196 225 226
f 196 226 227
f 196 227 197
f 197 227 228
f 197 228 199
f 199 228 229
f 199 229 230
f 199 230 204
f 204 230 205
f 205 230 231
f 205 231 232
f 205 232 233
f 205 233 234
f 205 234 235
f 205 235 206
f 210 236 237
f 210 237 211
f 211 214 213
f 211 237 238
f 211 238 214
f 214 238 239
f 214 239 215
f 215 239 216
f 216 240 217
f 216 239 241
f 216 241 242
f 216 242 240
f 217 240 219
f 217 219 218
f 219 240 243
f 219 243 220
f 222 244 223
f 223 225 224
f 223 244 245
f 223 245 225
f 225 245 226
f 226 245 246
f 226 246 247
f 226 247 227
f 227 247 228
f 228 247 229
f 229 247 248
f 229 248 249
f 229 249 250
f 229 250 251
f 229 251 252
f 229 252 253
f 229 253 254
f 229 254 255
f 229 255 256
f 229 256 231
f 229 231 230
f 231 256 232
f 232 256 234
f 232 234 233
f 234 256 257
f 236 258 259
f 236 259 260
f 236 260 261
f 236 261 237
f 237 261 262
f 237 262 238
f 238 262 239
f 239 262 241
f 240 242 263
f 240 263 243
f 241 264 242
f 241 262 261
f 241 261 265
f 241 265 264
f 242 264 263
f 243 263 266
f 244 267 245
f 245 267 268
f 245 268 269
f 245 269 246
f 246 269 248
f 246 248 247
f 248 269 249
f 249 269 270
f 249 270 271
f 249 271 250
f 250 271 272
f 250 272 251
f 251 272 273
f 251 273 274
f 251 274 252
f 252 275 276
f 252 276 254
f 252 254 253
f 252 274 277
f 252 277 275
f 255 278 256
f 256 278 257
f 258 279 259
f 259 279 280
f 259 280 260
f 260 280 281
f 260 281 282
f 260 282 283
f 260 283 284
f 260 284 261
f 261 284 265
f 263 264 285
f 263 285 286
f 263 286 266
f 264 265 287
f 264 287 285
f 265 284 288
f 265 288 289
f 265 289 290
f 265 290 287
f 266 286 291
f 268 292 269
f 269 292 293
f 269 293 270
f 270 294 271
f 270 293 295
f 270 295 294
f 271 273 272
f 271 294 296
f 271 296 297
f 271 297 298
f 271 298 273
f 273 298 299
f 273 299 300
f 273 300 274
f 274 300 277
f 275 277 276
f 276 277 301
f 277 300 301
f 281 302 282
f 282 302 303
f 282 303 283
f 283 303 284
f 284 303 304
f 284 304 288
f 285 287 305
f 285 305 306
f 285 306 286
f 286 306 291
f 287 290 305
f 288 304 307
f 288 307 308
f 288 308 289
f 289 308 309
f 289 309 310
f 289 310 311
f 289 311 312
f 289 312 290
f 290 312 313
f 290 313 314
f 290 314 315
f 290 315 305
f 294 295 316
f 294 316 317
f 294 317 318
f 294 318 319
f 294 319 296
f 296 319 297
f 297 319 320
f 297 320 321
f 297 321 322
f 297 322 298
f 298 322 299
f 299 322 323
f 299 323 301
f 299 301 300
f 302 324 303
f 303 324 325
f 303 325 304
f 304 325 326
f 304 326 327
f 304 327 307
f 305 328 306
f 305 315 328
f 307 327 329
f 307 329 308
f 308 329 330
f 308 330 309
f 309 330 331
f 309 331 332
f 309 332 333
f 309 333 311
f 309 311 310
f 311 333 334
f 311 334 335
f 311 335 336
f 311 336 337
f 311 337 312
f 312 337 338
f 312 338 339
f 312 339 313
f 313 339 338
f 313 338 340
f 313 340 341
f 317 342 318
f 318 343 344
f 318 344 319
f 318 342 343
f 319 344 320
f 320 344 345
f 320 345 346
f 320 346 321
f 321 346 347
f 321 347 322
f 322 348 349
f 322 349 323
f 322 347 350
f 322 350 348
f 327 351 329
f 329 352 353
f 329 353 354
f 329 354 330
f 329 351 352
f 330 354 331
f 331 354 332
f 332 354 355
f 332 355 334
f 332 334 333
f 334 356 340
f 334 340 335
f 334 355 357
f 334 357 358
f 334 358 356
f 335 340 336
f 336 340 337
f 337 340 338
f 340 359 341
f 340 356 359
f 342 360 361
f 342 361 343
f 343 361 344
f 344 362 345
f 344 361 363
f 344 363 362
f 345 362 346
f 346 362 347
f 347 362 364
f 347 364 365
f 347 365 366
f 347 366 350
f 348 350 367
f 348 367 368
f 350 366 369
f 350 369 367
f 352 370 353
f 353 370 371
f 353 371 372
f 353 372 354
f 354 372 373
f 354 373 374
f 354 374 355
f 355 374 375
f 355 375 376
f 355 376 357
f 356 377 359
f 356 358 377
f 357 376 378
f 357 378 379
f 357 379 380
f 357 380 381
f 357 381 358
f 358 382 377
f 358 381 383
f 358 383 384
f 358 384 382
f 360 385 363
f 360 363 361
f 362 363 365
f 362 365 364
f 363 386 387
f 363 387 365
f 363 385 388
f 363 388 389
f 363 389 390
f 363 390 386
f 365 387 391
f 365 391 392
f 365 392 393
f 365 393 366
f 366 393 394
f 366 394 369
f 367 395 368
f 367 369 396
f 367 396 397
f 367 397 398
f 367 398 399
f 367 399 395
f 369 394 400
f 369 400 396
f 371 401 402
f 371 402 372
f 372 402 373
f 373 402 403
f 373 403 374
f 374 402 404
f 374 404 375
f 374 403 402
f 375 405 376
f 375 404 405
f 376 405 378
f 378 405 406
f 378 406 407
f 378 407 408
f 378 408 379
f 379 408 409
f 379 409 380
f 380 410 411
f 380 411 383
f 380 383 381
f 380 409 412
f 380 412 413
f 380 413 410
f 386 414 387
f 386 390 415
f 386 415 416
f 386 416 414
f 387 414 417
f 387 417 418
f 387 418 391
f 391 418 419
f 391 419 392
f 392 419 400
f 392 400 394
f 392 394 393
f 396 400 397
f 397 400 420
f 397 420 398
f 398 421 422
f 398 422 399
f 398 420 423
f 398 423 424
f 398 424 425
f 398 425 421
f 400 419 420
f 401 405 402
f 401 426 427
f 401 427 405
f 402 405 404
f 405 427 407
f 405 407 406
f 407 427 426
f 407 426 428
f 407 428 429
f 407 429 430
f 407 430 408
f 408 430 431
f 408 431 432
f 408 432 409
f 409 432 433
f 409 433 412
f 412 433 434
f 412 434 435
f 412 435 436
f 412 436 413
f 414 416 437
f 414 437 417
f 416 438 439
f 416 439 437
f 417 437 439
f 417 439 440
f 417 440 441
f 417 441 442
f 417 442 418
f 418 442 419
f 419 442 420
f 420 442 423
f 423 442 443
f 423 443 444
f 423 444 445
f 423 445 424
f 424 446 447
f 424 447 448
f 424 448 425
f 424 445 449
f 424 449 450
f 424 450 451
f 424 451 452
f 424 452 446
f 428 453 454
f 428 454 429
f 429 454 431
f 429 431 430
f 431 433 432
f 431 454 450
f 431 450 455
f 431 455 433
f 433 455 456
f 433 456 434
f 434 456 435
f 435 456 457
f 435 457 458
f 435 458 459
f 435 459 460
f 435 460 436
f 438 461 439
f 439 461 462
f 439 462 463
f 439 463 464
f 439 464 440
f 440 464 441
f 441 464 465
f 441 465 466
f 441 466 442
f 442 466 443
f 443 466 444
f 444 463 456
f 444 456 455
f 444 455 449
f 444 449 445
f 444 466 465
f 444 465 464
f 444 464 463
f 446 448 447
f 449 455 450
f 450 454 451
f 451 454 453
f 451 453 467
f 451 467 468
f 451 468 452
f 456 463 462
f 456 462 457
f 457 469 458
f 457 462 469
f 458 469 459
f 459 469 470
f 461 471 462
f 462 471 469
f 469 471 470

