# https://github.com/mikedh/trimesh
v -0.22524858 -0.25454873 0.29158416
v -0.22510146 -0.25935587 0.29158416
v -0.22001113 -0.25023091 0.30002588
v -0.22001113 -0.24988548 0.30002588
v -0.22504261 -0.25020212 0.29158416
v -0.22460124 -0.26502660 0.29158416
v -0.21005115 -0.25500929 0.31005564
v -0.21968746 -0.25690913 0.29959124
v -0.20999230 -0.27000648 0.31000215
v -0.21003644 -0.26502660 0.31004894
v -0.22226205 -0.24594188 0.29558605
v -0.21000701 -0.24971277 0.31001216
v -0.20983048 -0.24306333 0.30983162
v -0.20928614 -0.23500341 0.30919307
v -0.21949622 -0.24320726 0.29930708
v -0.22445413 -0.24525103 0.29158416
v -0.22287995 -0.26502660 0.29396790
v -0.22338015 -0.27498636 0.29158416
v -0.22164415 -0.28497490 0.29229295
v -0.20004705 -0.25869381 0.32004860
v -0.20506382 -0.26502660 0.31505045
v -0.20006175 -0.26502660 0.32006532
v -0.21921667 -0.26502660 0.29896942
v -0.20962451 -0.27668470 0.30951735
v -0.19998820 -0.27999502 0.31999847
v -0.20001763 -0.27498636 0.32002854
v -0.22207080 -0.23500341 0.29327586
v -0.19991463 -0.25201559 0.31992155
v -0.19975281 -0.24502075 0.31976444
v -0.20590240 -0.24582674 0.31382012
v -0.19945857 -0.23500341 0.31948027
v -0.20428407 -0.23500341 0.31448209
v -0.19841403 -0.22501488 0.31834355
v -0.20297472 -0.22501488 0.31334540
v -0.20797677 -0.22501488 0.30772540
v -0.21368501 -0.23500341 0.30419493
v -0.21868706 -0.23500341 0.29827401
v -0.22327718 -0.23678811 0.29158416
v -0.22214437 -0.28500369 0.29158416
v -0.22111452 -0.29220006 0.29158416
v -0.21734828 -0.29499224 0.29630819
v -0.21798089 -0.28497490 0.29729444
v -0.19402987 -0.25515321 0.32573214
v -0.19594242 -0.25521079 0.32389000
v -0.19427997 -0.26502660 0.32573214
v -0.21299353 -0.28497490 0.30388063
v -0.20909488 -0.28497490 0.30887547
v -0.20326896 -0.28399619 0.31561881
v -0.19931145 -0.28667325 0.31936324
v -0.19558933 -0.28399619 0.32298398
v -0.19300003 -0.28022531 0.32573214
v -0.19370621 -0.27498636 0.32573214
v -0.19391218 -0.27285624 0.32573214
v -0.22296822 -0.23500341 0.29158416
v -0.22107038 -0.22501488 0.29165438
v -0.22112924 -0.22513002 0.29158416
v -0.19445652 -0.23500341 0.32369944
v -0.19341198 -0.22501488 0.32280681
v -0.19475076 -0.24502075 0.32435137
v -0.19317658 -0.24502075 0.32573214
v -0.19142586 -0.21502633 0.32128227
v -0.19021948 -0.20955710 0.32020909
v -0.20141526 -0.21692617 0.31158015
v -0.21108100 -0.21804881 0.30120605
v -0.21237564 -0.22501488 0.30272388
v -0.21737769 -0.22501488 0.29665589
v -0.22077614 -0.29453167 0.29158416
v -0.21234621 -0.29499224 0.30291444
v -0.22070259 -0.29499224 0.29158416
v -0.21976101 -0.29994333 0.29158416
v -0.21124282 -0.30498078 0.30143338
v -0.20806505 -0.29499224 0.30791262
v -0.20307770 -0.29499224 0.31323507
v -0.19820806 -0.29499224 0.31823656
v -0.17937680 -0.33497518 0.32573214
v -0.18205437 -0.32498664 0.32573214
v -0.19320600 -0.29499224 0.32281014
v -0.18974870 -0.29499224 0.32573214
v -0.19213203 -0.28445676 0.32573214
v -0.22102624 -0.22466946 0.29158416
v -0.19186722 -0.23500341 0.32573214
v -0.18963100 -0.22501488 0.32573214
v -0.18685046 -0.21747309 0.32573214
v -0.18583533 -0.21482484 0.32573214
v -0.18514386 -0.20572865 0.32286698
v -0.18190724 -0.19726573 0.32166675
v -0.18857175 -0.20287889 0.31832016
v -0.19987050 -0.21027674 0.30985504
v -0.21886361 -0.21839423 0.29158416
v -0.20925671 -0.21137059 0.29903963
v -0.21924610 -0.30207345 0.29158416
v -0.21658325 -0.30463535 0.29429889
v -0.21031597 -0.31062272 0.30034682
v -0.17881773 -0.33661595 0.32573214
v -0.18439355 -0.31597680 0.32573214
v -0.18470252 -0.21240686 0.32573214
v -0.18125992 -0.20535444 0.32573214
v -0.17555170 -0.19674760 0.32573214
v -0.17458071 -0.19536589 0.32573214
v -0.17508091 -0.19487655 0.32512701
v -0.17945035 -0.19058752 0.31954712
v -0.18554109 -0.19427204 0.31559876
v -0.19130817 -0.19792780 0.31165037
v -0.19838460 -0.20500901 0.30794603
v -0.21171360 -0.20711035 0.29237318
v -0.21115455 -0.20523930 0.29158416
v -0.20056197 -0.19907922 0.30073464
v -0.20772667 -0.20426059 0.29542556
v -0.21793675 -0.30616099 0.29158416
v -0.21256690 -0.31436482 0.29502103
v -0.16779850 -0.36476809 0.32573214
v -0.17199141 -0.35472196 0.32573214
v -0.17599306 -0.34481978 0.32573214
v -0.17381568 -0.19447353 0.32573214
v -0.17278585 -0.18719083 0.32191747
v -0.16950509 -0.18051261 0.31964406
v -0.17566939 -0.18431228 0.31769496
v -0.18025951 -0.17970663 0.31029636
v -0.18208379 -0.18500315 0.31238255
v -0.18917494 -0.19127837 0.30896908
v -0.19489788 -0.19516440 0.30485353
v -0.20905074 -0.20175625 0.29158416
v -0.19848758 -0.19240099 0.29802662
v -0.20276874 -0.19545224 0.29481709
v -0.21478839 -0.31462389 0.29158416
v -0.21342018 -0.31787664 0.29158416
v -0.21131638 -0.32268381 0.29170120
v -0.20877121 -0.32798034 0.29158416
v -0.16239923 -0.37550506 0.32573214
v -0.16440006 -0.18431228 0.32573214
v -0.16284059 -0.17772043 0.32200441
v -0.16628318 -0.17394954 0.31596649
v -0.16974048 -0.17017865 0.30978817
v -0.17499264 -0.17740379 0.31245607
v -0.15560232 -0.17628115 0.32573214
v -0.15458719 -0.17536002 0.32573214
v -0.17947978 -0.17052408 0.29927364
v -0.18214263 -0.17766286 0.30500063
v -0.18924850 -0.18094440 0.29883569
v -0.20060611 -0.18860132 0.29158416
v -0.20109159 -0.18923460 0.29158416
v -0.17281528 -0.16741526 0.30312508
v -0.20706463 -0.19853228 0.29158416
v -0.21137524 -0.32271260 0.29158416
v -0.20513737 -0.33462977 0.29158416
v -0.16219327 -0.37587926 0.32573214
v -0.15323371 -0.17423740 0.32573214
v -0.15857413 -0.17104220 0.31895870
v -0.16307598 -0.16790460 0.31228891
v -0.14009595 -0.14994250 0.31006232
v -0.15086508 -0.14939559 0.30072129
v -0.15752958 -0.15172720 0.29797646
v -0.16229625 -0.15837663 0.30192819
v -0.16056024 -0.14861837 0.29158416
v -0.16159007 -0.14936680 0.29158416
v -0.16896075 -0.16076583 0.29894936
v -0.18545282 -0.17449647 0.29572311
v -0.17174131 -0.15840542 0.29227957
v -0.18167186 -0.16822124 0.29260722
v -0.19138172 -0.17849764 0.29216924
v -0.19185251 -0.17881428 0.29158416
v -0.20122400 -0.34125042 0.29158416
v -0.15657331 -0.38425583 0.32573214
v -0.20103274 -0.34156704 0.29158416
v -0.20081207 -0.34191248 0.29158416
v -0.19869354 -0.34522280 0.29158416
v -0.18968984 -0.35901099 0.29158416
v -0.14525984 -0.16833639 0.32573214
v -0.15190963 -0.16871059 0.32139593
v -0.15507269 -0.16496849 0.31506717
v -0.14705469 -0.16203238 0.31784207
v -0.14039019 -0.15975833 0.32027596
v -0.13500562 -0.14838809 0.31158683
v -0.13559410 -0.14297643 0.30514440
v -0.13931622 -0.14044331 0.29947758
v -0.14405346 -0.14786994 0.30443227
v -0.14500974 -0.14237194 0.29715067
v -0.15379275 -0.14582619 0.29401806
v -0.15149769 -0.14222801 0.29158416
v -0.17135879 -0.15780091 0.29158416
v -0.17187372 -0.15826148 0.29158416
v -0.18118636 -0.16735768 0.29158416
v -0.15160067 -0.39079010 0.32573214
v -0.18764490 -0.36177441 0.29158416
v -0.14306776 -0.16675319 0.32573214
v -0.14386220 -0.16580327 0.32417083
v -0.13500562 -0.16237780 0.32573214
v -0.13500562 -0.15831906 0.32164335
v -0.13500562 -0.15331039 0.31658500
v -0.12500152 -0.14599890 0.31400067
v -0.12500152 -0.14099024 0.30887213
v -0.13265172 -0.13854347 0.30190814
v -0.13680048 -0.13270004 0.29158416
v -0.14383279 -0.13704664 0.29158416
v -0.14505388 -0.13782384 0.29158416
v -0.14500974 -0.13825563 0.29215252
v -0.14639266 -0.13871619 0.29158416
v -0.15123288 -0.39125067 0.32573214
v -0.18604130 -0.36370301 0.29158416
v -0.13179843 -0.16096732 0.32573214
v -0.12500152 -0.15106514 0.31900218
v -0.11979350 -0.14009789 0.30992189
v -0.11986706 -0.15005764 0.31994832
v -0.11186377 -0.12936093 0.30077812
v -0.11852828 -0.13054113 0.29930040
v -0.12500152 -0.13678756 0.30387396
v -0.12500152 -0.13180768 0.29757863
v -0.13203382 -0.13039720 0.29158416
v -0.16690108 -0.38388160 0.29158416
v -0.16108987 -0.38972506 0.29158416
v -0.16044255 -0.39035833 0.29158416
v -0.15082094 -0.39162487 0.32573214
v -0.17669922 -0.37383550 0.29158416
v -0.12500152 -0.15805998 0.32573214
v -0.12500152 -0.15604502 0.32380977
v -0.11320256 -0.14887744 0.32114854
v -0.10500801 -0.14746696 0.32254601
v -0.10500801 -0.14245829 0.31742415
v -0.11311428 -0.13900404 0.31105193
v -0.10500801 -0.13270004 0.30708683
v -0.10500801 -0.12818073 0.30208531
v -0.11655688 -0.15480724 0.32573214
v -0.10337499 -0.11902696 0.29158416
v -0.10859773 -0.12086923 0.29158416
v -0.11142241 -0.12190551 0.29158416
v -0.12250049 -0.12633845 0.29158416
v -0.12500152 -0.12809436 0.29258046
v -0.12854709 -0.12884279 0.29158416
v -0.15992762 -0.39070374 0.29158416
v -0.14430356 -0.39628813 0.32573214
v -0.11502683 -0.15426031 0.32573214
v -0.10500801 -0.15071970 0.32573214
v -0.09716655 -0.14775482 0.32224512
v -0.09787273 -0.13793898 0.31217858
v -0.09825524 -0.12823829 0.30200508
v -0.10500801 -0.13770869 0.31242266
v -0.09902026 -0.11902696 0.29158416
v -0.12508979 -0.12740351 0.29158416
v -0.15488143 -0.39375502 0.29158416
v -0.13504976 -0.40181494 0.32573214
v -0.10233045 -0.15094998 0.32573214
v -0.07498097 -0.14637311 0.29579666
v -0.09301779 -0.15546930 0.32573214
v -0.07498097 -0.17415103 0.32573214
v -0.07498097 -0.16934387 0.32068050
v -0.07498097 -0.16436400 0.31530789
v -0.07498097 -0.15342554 0.30349284
v -0.09863775 -0.11914210 0.29158416
v -0.07498097 -0.14257343 0.29158416
v -0.14817280 -0.39755470 0.29158416
v -0.13516746 -0.40429047 0.29158416
v -0.13487323 -0.40190130 0.32573214
v -0.14649564 -0.39847583 0.29158416
v -0.14190552 -0.40086502 0.29158416
v -0.07498097 -0.39522308 0.32573214
v -0.07498097 -0.41165954 0.29158416
v -0.12803218 -0.40699631 0.29158416
v -0.12500152 -0.40809014 0.29158416
v -0.12500152 -0.40477982 0.32573214
v -0.07502511 -0.39525187 0.32573214
v -0.07498097 -0.39916667 0.31846392
v -0.07498097 -0.40158463 0.31346574
v -0.09344444 -0.40169978 0.32573214
v -0.09403291 -0.40187252 0.32573214
v -0.10500801 -0.40460712 0.32573214
v -0.08548529 -0.41309881 0.29158416
v -0.11829288 -0.40955821 0.29158416
v -0.11501212 -0.40512526 0.32573214
v -0.11579186 -0.40996119 0.29158416
v -0.11230513 -0.41050813 0.29158416
v -0.10500801 -0.41163075 0.29158416
v -0.09479794 -0.41295487 0.29158416
v -0.08218982 -0.39801526 0.32573214
v -0.08436719 -0.39885002 0.32573214
f 1 2 3
f 1 3 4
f 1 4 5
f 1 5 16
f 1 16 38
f 1 38 54
f 1 54 56
f 1 56 80
f 1 80 89
f 1 89 106
f 1 106 122
f 1 122 143
f 1 143 141
f 1 141 140
f 1 140 161
f 1 161 182
f 1 182 181
f 1 181 180
f 1 180 155
f 1 155 154
f 1 154 179
f 1 179 197
f 1 197 195
f 1 195 194
f 1 194 193
f 1 193 208
f 1 208 228
f 1 228 238
f 1 238 226
f 1 226 225
f 1 225 224
f 1 224 223
f 1 223 237
f 1 237 248
f 1 248 249
f 1 249 256
f 1 256 266
f 1 266 272
f 1 272 271
f 1 271 270
f 1 270 269
f 1 269 267
f 1 267 258
f 1 258 257
f 1 257 251
f 1 251 254
f 1 254 253
f 1 253 250
f 1 250 239
f 1 239 229
f 1 229 211
f 1 211 210
f 1 210 209
f 1 209 213
f 1 213 199
f 1 199 184
f 1 184 167
f 1 167 166
f 1 166 165
f 1 165 164
f 1 164 162
f 1 162 145
f 1 145 128
f 1 128 144
f 1 144 126
f 1 126 125
f 1 125 109
f 1 109 91
f 1 91 70
f 1 70 69
f 1 69 67
f 1 67 40
f 1 40 39
f 1 39 18
f 1 18 6
f 1 6 2
f 2 6 3
f 3 7 4
f 3 6 8
f 3 8 9
f 3 9 10
f 3 10 7
f 4 11 5
f 4 7 12
f 4 12 13
f 4 13 14
f 4 14 15
f 4 15 11
f 5 11 16
f 6 17 8
f 6 18 19
f 6 19 17
f 7 20 12
f 7 10 21
f 7 21 22
f 7 22 20
f 8 17 23
f 8 23 24
f 8 24 9
f 9 24 25
f 9 25 10
f 10 25 26
f 10 26 21
f 11 15 27
f 11 27 16
f 12 20 28
f 12 28 29
f 12 29 30
f 12 30 13
f 13 30 31
f 13 31 32
f 13 32 14
f 14 32 33
f 14 33 34
f 14 34 35
f 14 35 36
f 14 36 15
f 15 36 37
f 15 37 27
f 16 27 38
f 17 19 42
f 17 42 23
f 18 39 19
f 19 39 40
f 19 40 41
f 19 41 42
f 20 43 44
f 20 44 28
f 20 22 45
f 20 45 43
f 21 26 22
f 22 26 45
f 23 42 46
f 23 46 24
f 24 46 47
f 24 47 25
f 25 47 48
f 25 48 49
f 25 49 50
f 25 50 51
f 25 51 52
f 25 52 53
f 25 53 45
f 25 45 26
f 27 54 38
f 27 37 55
f 27 55 56
f 27 56 54
f 28 44 43
f 28 43 29
f 29 31 30
f 29 43 31
f 31 57 58
f 31 58 33
f 31 33 32
f 31 43 59
f 31 59 60
f 31 60 57
f 33 58 61
f 33 61 62
f 33 62 63
f 33 63 34
f 34 63 35
f 35 63 64
f 35 64 65
f 35 65 36
f 36 65 37
f 37 65 66
f 37 66 55
f 40 67 41
f 41 68 42
f 41 67 69
f 41 69 70
f 41 70 71
f 41 71 68
f 42 68 46
f 43 45 53
f 43 53 52
f 43 52 51
f 43 51 79
f 43 79 78
f 43 78 95
f 43 95 76
f 43 76 75
f 43 75 94
f 43 94 113
f 43 113 112
f 43 112 111
f 43 111 129
f 43 129 146
f 43 146 163
f 43 163 183
f 43 183 198
f 43 198 212
f 43 212 230
f 43 230 240
f 43 240 252
f 43 252 259
f 43 259 268
f 43 268 265
f 43 265 264
f 43 264 263
f 43 263 274
f 43 274 273
f 43 273 260
f 43 260 255
f 43 255 244
f 43 244 243
f 43 243 241
f 43 241 232
f 43 232 231
f 43 231 222
f 43 222 214
f 43 214 200
f 43 200 187
f 43 187 185
f 43 185 168
f 43 168 147
f 43 147 136
f 43 136 135
f 43 135 130
f 43 130 114
f 43 114 99
f 43 99 98
f 43 98 97
f 43 97 96
f 43 96 84
f 43 84 83
f 43 83 82
f 43 82 81
f 43 81 60
f 43 60 59
f 46 68 47
f 47 68 72
f 47 72 48
f 48 72 49
f 49 72 73
f 49 73 74
f 49 74 75
f 49 75 76
f 49 76 77
f 49 77 78
f 49 78 50
f 50 79 51
f 50 78 79
f 55 66 80
f 55 80 56
f 57 81 58
f 57 60 81
f 58 82 83
f 58 83 84
f 58 84 61
f 58 81 82
f 61 84 62
f 62 85 86
f 62 86 87
f 62 87 88
f 62 88 63
f 62 84 85
f 63 88 64
f 64 89 66
f 64 66 65
f 64 88 90
f 64 90 89
f 66 89 80
f 68 71 72
f 70 91 71
f 71 73 72
f 71 91 92
f 71 92 93
f 71 93 75
f 71 75 73
f 73 75 74
f 75 93 94
f 76 95 77
f 77 95 78
f 84 96 85
f 85 96 97
f 85 97 86
f 86 98 99
f 86 99 100
f 86 100 101
f 86 101 102
f 86 102 87
f 86 97 98
f 87 102 103
f 87 103 88
f 88 103 104
f 88 104 90
f 89 90 105
f 89 105 106
f 90 104 103
f 90 103 107
f 90 107 108
f 90 108 105
f 91 109 92
f 92 109 93
f 93 109 110
f 93 110 111
f 93 111 112
f 93 112 113
f 93 113 94
f 99 114 100
f 100 114 101
f 101 114 115
f 101 115 116
f 101 116 117
f 101 117 118
f 101 118 119
f 101 119 102
f 102 119 120
f 102 120 103
f 103 120 121
f 103 121 107
f 105 108 122
f 105 122 106
f 107 121 123
f 107 123 108
f 108 123 124
f 108 124 122
f 109 125 110
f 110 125 126
f 110 126 127
f 110 127 111
f 111 127 128
f 111 128 129
f 114 130 115
f 115 130 116
f 116 131 132
f 116 132 133
f 116 133 134
f 116 134 118
f 116 118 117
f 116 130 135
f 116 135 136
f 116 136 131
f 118 137 138
f 118 138 139
f 118 139 140
f 118 140 141
f 118 141 123
f 118 123 120
f 118 120 119
f 118 134 133
f 118 133 142
f 118 142 137
f 120 123 121
f 122 124 143
f 123 141 124
f 124 141 143
f 126 144 127
f 127 144 128
f 128 145 129
f 129 145 146
f 131 136 147
f 131 147 148
f 131 148 132
f 132 148 133
f 133 148 149
f 133 149 150
f 133 150 151
f 133 151 152
f 133 152 153
f 133 153 154
f 133 154 155
f 133 155 156
f 133 156 142
f 137 157 139
f 137 139 138
f 137 142 156
f 137 156 158
f 137 158 159
f 137 159 157
f 139 157 160
f 139 160 140
f 140 160 161
f 145 162 146
f 146 162 164
f 146 164 165
f 146 165 166
f 146 166 167
f 146 167 163
f 147 168 148
f 148 168 169
f 148 169 149
f 149 169 170
f 149 170 150
f 150 170 169
f 150 169 171
f 150 171 172
f 150 172 173
f 150 173 174
f 150 174 175
f 150 175 176
f 150 176 151
f 151 176 177
f 151 177 178
f 151 178 152
f 152 178 154
f 152 154 153
f 154 178 179
f 155 180 158
f 155 158 156
f 157 159 160
f 158 180 181
f 158 181 159
f 159 181 182
f 159 182 160
f 160 182 161
f 163 167 184
f 163 184 183
f 168 185 169
f 169 185 186
f 169 186 171
f 171 186 172
f 172 186 185
f 172 185 187
f 172 187 188
f 172 188 189
f 172 189 173
f 173 190 191
f 173 191 192
f 173 192 174
f 173 189 190
f 174 192 175
f 175 177 176
f 175 192 193
f 175 193 194
f 175 194 195
f 175 195 196
f 175 196 197
f 175 197 177
f 177 197 179
f 177 179 178
f 183 184 198
f 184 199 198
f 187 200 201
f 187 201 190
f 187 190 188
f 188 190 189
f 190 202 191
f 190 201 203
f 190 203 202
f 191 202 204
f 191 204 205
f 191 205 206
f 191 206 192
f 192 206 207
f 192 207 208
f 192 208 193
f 195 197 196
f 198 209 210
f 198 210 211
f 198 211 212
f 198 199 213
f 198 213 209
f 200 214 215
f 200 215 201
f 201 215 203
f 202 203 216
f 202 216 217
f 202 217 218
f 202 218 219
f 202 219 220
f 202 220 221
f 202 221 204
f 203 215 222
f 203 222 216
f 204 221 223
f 204 223 224
f 204 224 205
f 205 207 206
f 205 224 225
f 205 225 207
f 207 225 226
f 207 226 227
f 207 227 228
f 207 228 208
f 211 229 230
f 211 230 212
f 214 222 215
f 216 222 231
f 216 231 232
f 216 232 217
f 217 232 233
f 217 233 218
f 218 233 234
f 218 234 235
f 218 235 236
f 218 236 219
f 219 236 220
f 220 236 235
f 220 235 221
f 221 235 237
f 221 237 223
f 226 238 227
f 227 238 228
f 229 239 230
f 230 239 240
f 232 241 233
f 233 242 235
f 233 235 234
f 233 241 243
f 233 243 244
f 233 244 245
f 233 245 246
f 233 246 247
f 233 247 242
f 235 248 237
f 235 242 249
f 235 249 248
f 239 250 240
f 240 251 252
f 240 250 253
f 240 253 254
f 240 254 251
f 242 247 246
f 242 246 245
f 242 245 244
f 242 244 255
f 242 255 261
f 242 261 262
f 242 262 256
f 242 256 249
f 251 257 252
f 252 257 258
f 252 258 259
f 255 260 261
f 256 262 263
f 256 263 264
f 256 264 265
f 256 265 266
f 258 267 259
f 259 267 269
f 259 269 270
f 259 270 271
f 259 271 272
f 259 272 268
f 260 273 261
f 261 273 274
f 261 274 262
f 262 274 263
f 265 268 266
f 266 268 272

