# https://github.com/mikedh/trimesh
v -0.21888068 -0.17493477 0.05161096
v -0.21827111 -0.17493477 0.04499380
v -0.21811871 -0.18491244 0.05161096
v -0.21880449 -0.16495712 0.05161096
v -0.21857589 -0.16495712 0.04499380
v -0.21731865 -0.15492308 0.02500592
v -0.21785203 -0.16495712 0.03500462
v -0.21670908 -0.16495712 0.02500592
v -0.21701387 -0.17493477 0.03500462
v -0.21728055 -0.18491244 0.04499380
v -0.21689957 -0.19494647 0.05161096
v -0.21815681 -0.15492308 0.05161096
v -0.21815681 -0.15492308 0.04499380
v -0.21792823 -0.15492308 0.03500462
v -0.21693768 -0.14494543 0.01920401
v -0.21670908 -0.15492308 0.01920401
v -0.21587092 -0.16495712 0.01920401
v -0.21556613 -0.17493477 0.02500592
v -0.21579471 -0.18491244 0.03500462
v -0.21449937 -0.19494647 0.03500462
v -0.21465176 -0.20492414 0.04499380
v -0.21560423 -0.20492414 0.05161096
v -0.21758534 -0.14827132 0.05161096
v -0.21457557 -0.10486567 0.01920401
v -0.21526134 -0.11495608 0.01920401
v -0.21564232 -0.12076229 0.01920401
v -0.21655668 -0.13496777 0.01920401
v -0.21720436 -0.14494543 0.02500592
v -0.21468987 -0.17493477 0.01920401
v -0.21297544 -0.19494647 0.02500592
v -0.21308973 -0.20492414 0.03500462
v -0.21423268 -0.21490180 0.05161096
v -0.21655668 -0.13660252 0.05161096
v -0.21362311 -0.09488802 0.01920401
v -0.21366121 -0.18282673 0.01920401
v -0.21194679 -0.19505921 0.01920401
v -0.21118481 -0.20520599 0.02475849
v -0.21312784 -0.21490180 0.04499380
v -0.21236587 -0.22482309 0.05161096
v -0.21526134 -0.12493373 0.05161096
v -0.21221347 -0.08474123 0.01920401
v -0.21046095 -0.20323300 0.01920401
v -0.21046095 -0.21163228 0.02792749
v -0.21038476 -0.22104624 0.03842422
v -0.20996568 -0.23367333 0.05161096
v -0.21362311 -0.11495608 0.05161096
v -0.21080384 -0.07617285 0.01920401
v -0.20897511 -0.20949018 0.01972107
v -0.20707020 -0.21490180 0.01920401
v -0.20950849 -0.21828406 0.03176900
v -0.20135544 -0.25830746 0.05161096
v -0.20867033 -0.21495818 0.02475849
v -0.21084194 -0.10277995 0.05161096
v -0.19986960 -0.02729923 0.01920401
v -0.20973708 -0.07093035 0.01920401
v -0.20333655 -0.22510494 0.01920401
v -0.19906954 -0.26433915 0.05161096
v -0.19983152 -0.23446253 0.01920401
v -0.20867033 -0.09454979 0.05161096
v -0.19602168 -0.01484124 0.01920401
v -0.20329846 -0.07487632 0.05161096
v -0.20036489 -0.06461681 0.05161096
v -0.19571689 -0.24477841 0.01920401
v -0.17453420 -0.31558034 0.04956173
v -0.13799788 -0.33925614 0.05161096
v -0.19278331 -0.00508907 0.01920401
v -0.19693603 -0.05486463 0.05161096
v -0.19061171 -0.25543252 0.01920401
v -0.16348568 -0.29342657 0.01920401
v -0.15895197 -0.29776710 0.01920401
v -0.14279827 -0.31169075 0.01920401
v -0.13639775 -0.31676412 0.01920401
v -0.13102588 -0.32059735 0.01920401
v -0.17670581 -0.27640253 0.01920401
v -0.17213400 -0.28311068 0.01920401
v -0.16805749 -0.28840953 0.01920401
v -0.13235933 -0.34134188 0.05017713
v -0.12694936 -0.34489325 0.05161096
v -0.19049741 0.00128085 0.01920401
v -0.19320239 -0.04516882 0.05161096
v -0.17434371 0.04525021 0.01920401
v -0.17883931 0.03335594 0.01920401
v -0.12508254 -0.32358503 0.01920401
v -0.11761526 -0.34917745 0.05161096
v -0.19072600 -0.03891164 0.05161096
v -0.17144823 0.05252206 0.01920401
v -0.11654851 -0.32741824 0.01920401
v -0.10496660 -0.34838825 0.04230062
v -0.11030038 -0.35193962 0.05101459
v -0.09498484 -0.35740760 0.05161096
v -0.17891552 -0.01258640 0.05161096
v -0.16916233 0.05810279 0.01920401
v -0.10496660 -0.33249164 0.01920401
v -0.09841369 -0.34962842 0.04049565
v -0.10496660 -0.35312340 0.04945388
v -0.10153776 -0.34066543 0.02899652
v -0.09174648 -0.35030484 0.03940443
v -0.08416490 -0.35898599 0.05161096
v -0.17525807 -0.00452536 0.05161096
v -0.16600017 0.06492367 0.01920401
v -0.09506103 -0.33632487 0.01920401
v -0.08492687 -0.33857968 0.01920401
v -0.08492687 -0.35081220 0.03864945
v -0.06911606 -0.35983154 0.05013907
v -0.07494510 -0.36005703 0.05161096
v -0.07494510 -0.35594195 0.04499063
v -0.17019099 0.00595964 0.05161096
v -0.14298877 0.11402279 0.01920401
v -0.14797965 0.10365053 0.01920401
v -0.07852635 -0.33942527 0.01920401
v -0.06134399 -0.36107171 0.05109707
v -0.06538241 -0.35752034 0.04572975
v -0.03623717 -0.35847864 0.05161096
v -0.16523820 0.01469714 0.05161096
v -0.13971230 0.12005448 0.01920401
v -0.06496333 -0.34100366 0.01920401
v -0.05494346 -0.36067712 0.05063076
v -0.04915252 -0.36028251 0.05078936
v -0.05494346 -0.34184921 0.01920401
v -0.05494346 -0.35222146 0.03631473
v -0.05494346 -0.35723847 0.04465120
v -0.04320917 -0.35938057 0.05101776
v -0.02629350 -0.35673115 0.05161096
v -0.16123788 0.02151803 0.05161096
v -0.13533099 0.12721360 0.01920401
v -0.04496170 -0.34156737 0.01920401
v -0.03555140 -0.34032720 0.01920401
v -0.02496006 -0.33852333 0.01920401
v -0.01501639 -0.33677584 0.01920401
v -0.01543547 -0.35425082 0.05161096
v -0.13784549 0.05765182 0.05161096
v -0.14146483 0.05235295 0.05160461
v -0.13144496 0.13183601 0.01993044
v -0.12854949 0.13741674 0.01920401
v -0.00526321 -0.33429551 0.01920401
v -0.00793010 -0.35092494 0.05020886
v -0.00213915 -0.34895197 0.05161096
v -0.13194025 0.06593835 0.05161096
v -0.12512064 0.13471092 0.02281077
v -0.12272044 0.14316657 0.02020324
v -0.11891060 0.14970560 0.01928649
v -0.11319585 0.15641375 0.01920401
v 0.00281364 -0.33130783 0.01920401
v 0.01553849 -0.32555801 0.01920401
v 0.02734898 -0.32025915 0.01953709
v 0.00487095 -0.34562606 0.05161096
v -0.12416817 0.07619786 0.05161096
v -0.11910109 0.12884834 0.02950724
v -0.11548175 0.14536504 0.02342618
v -0.10572857 0.15562455 0.02383856
v -0.10287119 0.16312189 0.02165610
v -0.10142346 0.16870262 0.01956881
v -0.09052733 0.17896214 0.01933407
v -0.07806917 0.18860158 0.01920401
v 0.03508295 -0.31608766 0.01920401
v 0.02872052 -0.32927850 0.04151392
v 0.02494878 -0.33570477 0.05161096
v 0.01664334 -0.33998898 0.05159827
v -0.11597703 0.08583730 0.05161096
v -0.11997736 0.08211681 0.05122712
v -0.10572857 0.13566923 0.03372940
v -0.10953841 0.13944609 0.02975784
v -0.10428084 0.14457585 0.03017339
v -0.09993763 0.14987472 0.02998623
v -0.09589919 0.16582771 0.02390517
v -0.09483244 0.17343779 0.02039040
v -0.08591743 0.16543311 0.02867613
v -0.07898353 0.16915359 0.02960875
v -0.07486890 0.18510658 0.02245549
v -0.07208772 0.19170198 0.01989554
v -0.05955337 0.19931206 0.01920401
v 0.04380747 -0.31067607 0.01920401
v 0.03180649 -0.33080050 0.04989481
v 0.03672118 -0.32775646 0.05161096
v -0.09300372 0.11120424 0.05161096
v -0.09974713 0.12969391 0.03986756
v -0.09597539 0.14592876 0.03396414
v -0.09597539 0.15585004 0.02895211
v -0.08984156 0.15979601 0.02995134
v -0.08591743 0.15585004 0.03355176
v -0.07909782 0.14925463 0.03964234
v -0.07540228 0.16543311 0.03286340
v -0.07231632 0.17157754 0.03090617
v -0.07540228 0.17490342 0.02786722
v -0.06580150 0.19435140 0.02036503
v -0.05170511 0.20072132 0.02045067
v -0.04499979 0.20404720 0.02025400
v -0.03642767 0.20889512 0.01928331
v -0.01718800 0.21346116 0.01920401
v 0.05565606 -0.30188221 0.01920401
v 0.04049291 -0.32037187 0.03881440
v 0.04392177 -0.32223213 0.05161096
v -0.07959310 0.12349311 0.05161096
v -0.08584123 0.11915255 0.05113513
v -0.08995585 0.13989706 0.03997859
v -0.09307992 0.13324529 0.04152344
v -0.09582300 0.13589472 0.03889688
v -0.08595553 0.14553416 0.03875413
v -0.08328864 0.14254649 0.04131725
v -0.07544038 0.14553416 0.04287796
v -0.07243061 0.15173496 0.04091121
v -0.06496333 0.17360690 0.03199422
v -0.06496333 0.17862391 0.02927884
v -0.06557290 0.15669560 0.04044807
v -0.06420137 0.16402383 0.03712998
v -0.05311474 0.18138608 0.03081734
v -0.04499979 0.18324634 0.03186416
v -0.04499979 0.19491512 0.02538341
v -0.03878976 0.18955988 0.02981494
v -0.02884609 0.21058625 0.01958150
v -0.03524662 0.19429505 0.02776254
v -0.01501639 0.20489278 0.02429218
v -0.00503462 0.21481407 0.01920401
v 0.08224871 -0.27967203 0.01920401
v 0.07222884 -0.28948057 0.02104704
v 0.05965639 -0.30971777 0.05161096
v -0.07681192 0.12811552 0.05056414
v -0.08595553 0.13589472 0.04342040
v -0.08553644 0.12529698 0.04845464
v -0.06420137 0.13454182 0.05161096
v -0.07204963 0.13161053 0.05074495
v -0.07521179 0.13488004 0.04804226
v -0.06698254 0.13826230 0.04922548
v -0.04046609 0.17011189 0.04011499
v -0.05585783 0.17586173 0.03310448
v -0.06416327 0.14406851 0.04714453
v -0.04046609 0.15021294 0.05012955
v -0.04427592 0.16503851 0.04171060
v -0.03497993 0.17597447 0.03786592
v -0.03212255 0.19051820 0.03033517
v -0.02492196 0.19632441 0.02802266
v -0.02564583 0.20585108 0.02260458
v -0.01501639 0.19728270 0.02856193
v 0.01496702 0.21351755 0.01920401
v -0.00503462 0.20489278 0.02472994
v 0.00498525 0.21284109 0.02001609
v 0.09059225 -0.27059633 0.01920401
v 0.06860950 -0.30148759 0.05121761
v 0.08514418 -0.28282881 0.05161096
v -0.04461881 0.14502682 0.05161096
v -0.05498156 0.14057352 0.05117954
v -0.06031533 0.14006618 0.05007562
v -0.03497993 0.16492577 0.04358535
v -0.03497993 0.17095746 0.04054007
v -0.03497993 0.14886004 0.05161096
v -0.03497993 0.15601915 0.04803909
v -0.02492196 0.17715827 0.03850670
v -0.02492196 0.19130737 0.03076976
v -0.00503462 0.19762093 0.02876812
v -0.01501639 0.18488109 0.03530280
v -0.00503462 0.19266027 0.03148350
v 0.02498688 0.21233374 0.01920401
v 0.01496702 0.20489278 0.02400034
v 0.00498525 0.20489278 0.02442224
v 0.09543074 -0.26512831 0.01920401
v 0.07794359 -0.29083347 0.04923817
v 0.10221225 -0.25734913 0.01920401
v 0.10830799 -0.25019002 0.01920401
v 0.10110739 -0.26129508 0.03500462
v 0.09383061 -0.27251291 0.05161096
v -0.02492196 0.16492577 0.04485740
v -0.02492196 0.17214125 0.04117767
v -0.02583632 0.15139674 0.05149993
v -0.00492033 0.15348247 0.05161096
v -0.01501639 0.15314424 0.05160461
v -0.01501639 0.17806020 0.03899839
v 0.00498525 0.19728270 0.02860317
v -0.00503462 0.17834204 0.03914431
v 0.01496702 0.17270496 0.04148537
v 0.00498525 0.19232205 0.03131220
v 0.03062544 0.21052989 0.01961639
v 0.04498852 0.20635843 0.01920401
v 0.01496702 0.19694448 0.02839698
v 0.02498688 0.20489278 0.02329929
v 0.11303218 -0.24410196 0.01920401
v 0.10960333 -0.24945720 0.02500592
v 0.10160267 -0.26202792 0.04499380
v 0.09798333 -0.26738316 0.05161096
v -0.01501639 0.16492577 0.04577098
v -0.01501639 0.17304319 0.04164715
v 0.00483285 0.15297513 0.05161096
v -0.00503462 0.15838674 0.04922548
v -0.00503462 0.16492577 0.04600572
v 0.01496702 0.19198382 0.03111236
v -0.00503462 0.17332505 0.04177404
v 0.00498525 0.17304319 0.04163446
v 0.01496702 0.16492577 0.04546011
v 0.02498688 0.17191577 0.04104444
v 0.02498688 0.19626802 0.02803535
v 0.03153980 0.19040546 0.03028759
v 0.03493055 0.19423866 0.02766103
v 0.04498852 0.19491512 0.02545954
v 0.05329396 0.20167965 0.01991140
v 0.05847534 0.19998851 0.01931821
v 0.09924058 0.16920996 0.01920401
v 0.10987002 -0.24979542 0.03258425
v 0.11695631 -0.23852123 0.01920401
v 0.10266943 -0.26106963 0.05161096
v 0.05946589 0.13375263 0.05161096
v 0.04498852 0.14288472 0.05154434
v 0.01496702 0.15263690 0.05151262
v 0.01496702 0.15782303 0.04896853
v 0.00498525 0.16492577 0.04573609
v 0.02498688 0.16492577 0.04458776
v 0.03253036 0.17078835 0.04045442
v 0.03493055 0.18555754 0.03225751
v 0.04498852 0.18815061 0.02908216
v 0.05260819 0.18149883 0.03083321
v 0.05527508 0.19553521 0.02266803
v 0.08891592 0.17901850 0.01934993
v 0.06499016 0.19429505 0.02023814
v 0.07592438 0.18657222 0.02055218
v 0.08297258 0.18256989 0.02004781
v 0.09226858 0.17219763 0.02111366
v 0.09203999 0.15201682 0.03100768
v 0.09524025 0.15517358 0.02793384
v 0.09870720 0.14863455 0.02939304
v 0.10400288 0.16408020 0.01920401
v 0.11002241 -0.24996454 0.04022285
v 0.12122333 -0.23192583 0.01920401
v 0.10948904 -0.25047189 0.04973938
v 0.11444183 -0.24179074 0.05161096
v 0.09196379 0.10443972 0.05161096
v 0.08411553 0.11396642 0.05142697
v 0.06700937 0.12952480 0.05121761
v 0.06499016 0.13679665 0.04854029
v 0.05508459 0.14468859 0.04794392
v 0.05276059 0.13876964 0.05134450
v 0.03702596 0.14829633 0.05070689
v 0.03104452 0.14976197 0.05098287
v 0.02422491 0.15100214 0.05144283
v 0.05557986 0.15562455 0.04271935
v 0.05409402 0.16329101 0.03953448
v 0.04498852 0.15489173 0.04591373
v 0.02498688 0.15686472 0.04853395
v 0.03550203 0.16571496 0.04246875
v 0.03531154 0.15438440 0.04808033
v 0.03919757 0.16960455 0.03984853
v 0.04498852 0.18318996 0.03170238
v 0.04498852 0.17490342 0.03596579
v 0.04498852 0.16847713 0.03926802
v 0.04498852 0.16346012 0.04178039
v 0.05554176 0.17563625 0.03287609
v 0.05927540 0.17946947 0.02977687
v 0.08202012 0.16176899 0.03095692
v 0.08522038 0.15517358 0.03273334
v 0.06499016 0.18488109 0.02509474
v 0.07108589 0.17061923 0.03037007
v 0.07775310 0.16842076 0.02925663
v 0.08868733 0.15866859 0.02939304
v 0.09524025 0.14519593 0.03269845
v 0.10164078 0.14198278 0.03097913
v 0.10872707 0.15855585 0.01920401
v 0.12640470 -0.22307558 0.01920401
v 0.12179480 -0.22888179 0.05161096
v 0.10487913 0.08470988 0.05161096
v 0.10106930 0.09192537 0.05123664
v 0.09805953 0.09835166 0.05063710
v 0.09733566 0.10489069 0.04858470
v 0.10068832 0.12095642 0.04042904
v 0.08948740 0.10945673 0.05089087
v 0.08727770 0.11701044 0.04875917
v 0.07977232 0.11971626 0.05094163
v 0.07771501 0.14823996 0.03925533
v 0.07104779 0.15060754 0.04032118
v 0.07542910 0.12546609 0.05009466
v 0.05931350 0.15945779 0.03977557
v 0.06499016 0.16492577 0.03523301
v 0.07462904 0.16503851 0.03202277
v 0.08152484 0.14158818 0.04071136
v 0.08491559 0.14491408 0.03765973
v 0.07462904 0.15432803 0.03735203
v 0.09482117 0.13482367 0.03752650
v 0.09802143 0.12766457 0.03906500
v 0.10499343 0.13448545 0.03224800
v 0.10830799 0.13747311 0.02896480
v 0.12537605 0.13493641 0.01920401
v 0.11333697 0.15134037 0.01960688
v 0.13185276 -0.21332341 0.01920401
v 0.12427120 -0.22499220 0.04499380
v 0.12853821 -0.21710026 0.04499380
v 0.12465218 -0.22358292 0.05161096
v 0.11127965 0.07422489 0.05161096
v 0.11501330 0.09434932 0.04211663
v 0.10487913 0.09530762 0.04776311
v 0.10571730 0.10556714 0.04348702
v 0.10266943 0.11492471 0.04165350
v 0.10442196 0.12456416 0.03667952
v 0.10769841 0.11492471 0.03857331
v 0.09135421 0.13138504 0.04062571
v 0.08434412 0.12433867 0.04692883
v 0.06499016 0.15759754 0.03886833
v 0.11055578 0.13082133 0.03036690
v 0.11432752 0.13448545 0.02644926
v 0.12209959 0.13493641 0.02134206
v 0.11474660 0.14412488 0.02195746
v 0.12065186 0.14068626 0.01968301
v 0.12903349 0.12935568 0.01927697
v 0.13947244 0.10855480 0.01920401
v 0.13459586 -0.20830640 0.01920401
v 0.13147178 -0.21264696 0.03500462
v 0.13886286 -0.20030172 0.01920401
v 0.13109080 -0.21208325 0.04499380
v 0.12834772 -0.21625470 0.05161096
v 0.11737539 0.06689666 0.05043091
v 0.12038517 0.09062883 0.04026091
v 0.11931841 0.05979392 0.05161096
v 0.11836594 0.09728061 0.03901425
v 0.11501330 0.10556714 0.03784372
v 0.10952713 0.10928762 0.03972164
v 0.11566097 0.11543205 0.03347246
v 0.11943270 0.11909617 0.02965950
v 0.12552844 0.12524061 0.02329294
v 0.12491886 0.11543205 0.02758490
v 0.13177657 0.12264754 0.02003829
v 0.13463394 0.11492471 0.02072348
v 0.12998594 0.09987368 0.02999892
v 0.13490063 0.09587133 0.02752780
v 0.13836759 0.08487900 0.02872371
v 0.14229171 0.10100110 0.01956881
v 0.14621584 0.09203811 0.01920401
v 0.13935815 -0.19849785 0.02500592
v 0.14191073 -0.19393179 0.01920401
v 0.14156784 -0.19348083 0.02500592
v 0.13421486 -0.20492414 0.04499380
v 0.13116699 -0.21011026 0.05161096
v 0.12865251 0.10489069 0.02908534
v 0.12366162 0.10489069 0.03252080
v 0.12152812 0.11244440 0.03100768
v 0.12175670 0.08487900 0.04127284
v 0.12221389 0.05370586 0.05161096
v 0.12674759 0.08487900 0.03762166
v 0.13150989 0.09322190 0.03121069
v 0.13337670 0.08487900 0.03263183
v 0.13966294 0.07890368 0.02973563
v 0.14213933 0.09485666 0.02191622
v 0.14392994 0.08487900 0.02372436
v 0.14953041 0.08160949 0.01935945
v 0.15212110 0.07360481 0.01920401
v 0.14511099 -0.18671632 0.01920401
v 0.13882476 -0.19691946 0.03500462
v 0.14080589 -0.19190244 0.03500462
v 0.13375768 -0.20317663 0.05161096
v 0.12552844 0.04643400 0.05161096
v 0.12880489 0.03904940 0.05161096
v 0.13063362 0.03397602 0.05161096
v 0.14084397 0.00263376 0.05161096
v 0.14297749 -0.00424350 0.05161096
v 0.15463558 0.06492367 0.01920401
v 0.14747310 -0.18074098 0.01920401
v 0.14019631 -0.19054954 0.04100638
v 0.13707224 -0.19325535 0.05161096
v 0.14533958 -0.01320648 0.05161096
v 0.15783584 0.05342400 0.01920401
v 0.15097815 -0.17019963 0.01920401
v 0.14850175 -0.17454019 0.02490124
v 0.13916765 -0.18660358 0.05161096
v 0.14625394 -0.17493477 0.03500462
v 0.14751120 -0.02301503 0.05161096
v 0.15932168 0.04750504 0.01920401
v 0.15566424 -0.15492308 0.01920401
v 0.14960660 -0.16867760 0.02816223
v 0.14991139 -0.15960188 0.03957890
v 0.14312989 -0.17346914 0.05161096
v 0.16111231 0.03865480 0.01920401
v 0.14987329 -0.03688229 0.05161096
v 0.14907323 -0.02938495 0.05122712
v 0.16233145 -0.13085268 0.01920401
v 0.16023605 -0.13959019 0.01941972
v 0.14602536 -0.16326600 0.05161096
v 0.16294102 0.02800069 0.01920401
v 0.15082575 -0.04499971 0.05161096
v 0.16549362 0.01103303 0.01920401
v 0.16427447 0.01988328 0.01920401
v 0.14834936 -0.15323196 0.05161096
v 0.15482607 -0.14494543 0.03500462
v 0.16061702 -0.13496777 0.02211607
v 0.16355060 -0.12510285 0.01920401
v 0.15299736 -0.06399672 0.05161096
v 0.16644607 0.00229553 0.01920401
v 0.15981697 -0.12882334 0.02943110
v 0.15040667 -0.14077398 0.05147773
v 0.15105434 -0.13496777 0.05161096
v 0.16499834 -0.11698543 0.01920401
v 0.15383552 -0.07245237 0.05161096
v 0.16960824 -0.03327455 0.01927380
v 0.17033210 -0.05356809 0.01920401
v 0.16035034 -0.12217156 0.03089665
v 0.16073132 -0.11495608 0.03194030
v 0.16122660 -0.10486567 0.03313303
v 0.15924549 -0.10486567 0.03812287
v 0.15314975 -0.11258850 0.05161096
v 0.16633178 -0.10717689 0.01920401
v 0.15989316 -0.06208011 0.03984536
v 0.15429270 -0.08073890 0.05161096
v 0.17014161 -0.04437963 0.01937531
v 0.16008365 -0.07487632 0.04018161
v 0.16004555 -0.08231729 0.04014354
v 0.17006542 -0.06450406 0.01934041
v 0.16953205 -0.07346705 0.01920401
v 0.16732234 -0.09798841 0.01920401
v 0.16534123 -0.09488802 0.02500592
v 0.16168378 -0.09488802 0.03430991
v 0.15970266 -0.09488802 0.03929974
v 0.15996936 -0.08896906 0.03992149
v 0.15406410 -0.10153979 0.05161096
v 0.16004555 -0.06873188 0.04009279
v 0.15436889 -0.09342237 0.05161096
v 0.16854148 -0.08491035 0.01920401
f 1 2 3
f 1 3 11
f 1 11 22
f 1 22 32
f 1 32 39
f 1 39 45
f 1 45 51
f 1 51 57
f 1 57 65
f 1 65 78
f 1 78 84
f 1 84 90
f 1 90 98
f 1 98 105
f 1 105 113
f 1 113 123
f 1 123 130
f 1 130 137
f 1 137 146
f 1 146 157
f 1 157 174
f 1 174 192
f 1 192 216
f 1 216 239
f 1 239 260
f 1 260 278
f 1 278 298
f 1 298 322
f 1 322 355
f 1 355 382
f 1 382 404
f 1 404 426
f 1 426 443
f 1 443 452
f 1 452 457
f 1 457 464
f 1 464 470
f 1 470 475
f 1 475 483
f 1 483 492
f 1 492 506
f 1 506 508
f 1 508 495
f 1 495 485
f 1 485 479
f 1 479 472
f 1 472 466
f 1 466 459
f 1 459 453
f 1 453 448
f 1 448 447
f 1 447 446
f 1 446 445
f 1 445 444
f 1 444 431
f 1 431 407
f 1 407 383
f 1 383 356
f 1 356 323
f 1 323 299
f 1 299 281
f 1 281 264
f 1 264 245
f 1 245 240
f 1 240 220
f 1 220 193
f 1 193 175
f 1 175 159
f 1 159 147
f 1 147 138
f 1 138 131
f 1 131 124
f 1 124 114
f 1 114 107
f 1 107 99
f 1 99 91
f 1 91 85
f 1 85 80
f 1 80 67
f 1 67 62
f 1 62 61
f 1 61 59
f 1 59 53
f 1 53 46
f 1 46 40
f 1 40 33
f 1 33 23
f 1 23 12
f 1 12 4
f 1 4 5
f 1 5 6
f 1 6 7
f 1 7 2
f 2 7 8
f 2 8 9
f 2 9 3
f 3 9 10
f 3 10 11
f 4 12 13
f 4 13 14
f 4 14 5
f 5 14 15
f 5 15 6
f 6 15 16
f 6 16 7
f 7 16 8
f 8 17 9
f 8 16 17
f 9 17 18
f 9 18 10
f 10 18 19
f 10 19 20
f 10 20 21
f 10 21 22
f 10 22 11
f 12 23 24
f 12 24 13
f 13 24 25
f 13 25 26
f 13 26 27
f 13 27 28
f 13 28 14
f 14 28 15
f 15 28 27
f 15 27 26
f 15 26 25
f 15 25 24
f 15 24 34
f 15 34 41
f 15 41 47
f 15 47 55
f 15 55 54
f 15 54 60
f 15 60 66
f 15 66 79
f 15 79 82
f 15 82 81
f 15 81 86
f 15 86 92
f 15 92 100
f 15 100 109
f 15 109 108
f 15 108 115
f 15 115 125
f 15 125 134
f 15 134 142
f 15 142 154
f 15 154 171
f 15 171 189
f 15 189 213
f 15 213 234
f 15 234 252
f 15 252 272
f 15 272 295
f 15 295 318
f 15 318 353
f 15 353 377
f 15 377 399
f 15 399 421
f 15 421 439
f 15 439 449
f 15 449 454
f 15 454 460
f 15 460 465
f 15 465 471
f 15 471 474
f 15 474 473
f 15 473 480
f 15 480 487
f 15 487 500
f 15 500 509
f 15 509 501
f 15 501 493
f 15 493 484
f 15 484 478
f 15 478 468
f 15 468 461
f 15 461 455
f 15 455 450
f 15 450 440
f 15 440 423
f 15 423 402
f 15 402 400
f 15 400 379
f 15 379 354
f 15 354 320
f 15 320 297
f 15 297 275
f 15 275 258
f 15 258 257
f 15 257 255
f 15 255 237
f 15 237 214
f 15 214 190
f 15 190 172
f 15 172 155
f 15 155 144
f 15 144 143
f 15 143 135
f 15 135 129
f 15 129 128
f 15 128 127
f 15 127 126
f 15 126 119
f 15 119 116
f 15 116 110
f 15 110 102
f 15 102 101
f 15 101 93
f 15 93 87
f 15 87 83
f 15 83 73
f 15 73 72
f 15 72 71
f 15 71 70
f 15 70 69
f 15 69 76
f 15 76 75
f 15 75 74
f 15 74 68
f 15 68 63
f 15 63 58
f 15 58 56
f 15 56 49
f 15 49 42
f 15 42 36
f 15 36 35
f 15 35 29
f 15 29 17
f 15 17 16
f 17 29 18
f 18 29 19
f 19 29 20
f 20 29 30
f 20 30 21
f 21 30 31
f 21 31 32
f 21 32 22
f 23 33 24
f 24 33 34
f 29 35 30
f 30 35 36
f 30 36 31
f 31 36 37
f 31 37 38
f 31 38 32
f 32 38 39
f 33 40 34
f 34 40 41
f 36 42 37
f 37 42 43
f 37 43 39
f 37 39 38
f 39 43 44
f 39 44 45
f 40 46 41
f 41 46 47
f 42 48 43
f 42 49 48
f 43 50 44
f 43 48 50
f 44 50 45
f 45 50 52
f 45 52 49
f 45 49 51
f 46 53 54
f 46 54 55
f 46 55 47
f 48 49 52
f 48 52 50
f 49 56 51
f 51 56 58
f 51 58 57
f 53 59 54
f 54 59 61
f 54 61 62
f 54 62 60
f 57 58 63
f 57 63 64
f 57 64 65
f 60 62 66
f 62 67 66
f 63 68 64
f 64 69 70
f 64 70 71
f 64 71 72
f 64 72 73
f 64 73 65
f 64 68 74
f 64 74 75
f 64 75 76
f 64 76 69
f 65 73 77
f 65 77 78
f 66 67 79
f 67 80 81
f 67 81 82
f 67 82 79
f 73 83 77
f 77 83 78
f 78 83 84
f 80 85 81
f 81 85 86
f 83 87 84
f 84 88 89
f 84 89 90
f 84 87 88
f 85 91 92
f 85 92 86
f 87 93 88
f 88 94 95
f 88 95 89
f 88 93 96
f 88 96 94
f 89 95 90
f 90 95 94
f 90 94 97
f 90 97 98
f 91 99 92
f 92 99 100
f 93 101 96
f 94 96 101
f 94 101 102
f 94 102 97
f 97 103 98
f 97 102 103
f 98 104 105
f 98 103 106
f 98 106 104
f 99 107 108
f 99 108 109
f 99 109 100
f 102 110 103
f 103 110 106
f 104 111 105
f 104 106 112
f 104 112 111
f 105 111 113
f 106 110 112
f 107 114 115
f 107 115 108
f 110 116 112
f 111 117 118
f 111 118 113
f 111 112 119
f 111 119 120
f 111 120 121
f 111 121 117
f 112 116 119
f 113 118 122
f 113 122 123
f 114 124 115
f 115 124 125
f 117 121 118
f 118 121 126
f 118 126 127
f 118 127 128
f 118 128 122
f 119 126 120
f 120 126 121
f 122 128 129
f 122 129 123
f 123 129 130
f 124 131 132
f 124 132 133
f 124 133 125
f 125 133 134
f 129 135 130
f 130 136 137
f 130 135 136
f 131 138 134
f 131 134 133
f 131 133 132
f 134 138 139
f 134 139 140
f 134 140 141
f 134 141 142
f 135 143 136
f 136 143 144
f 136 144 137
f 137 144 145
f 137 145 146
f 138 147 148
f 138 148 139
f 139 148 140
f 140 148 141
f 141 148 149
f 141 149 142
f 142 150 151
f 142 151 152
f 142 152 153
f 142 153 154
f 142 149 150
f 144 155 145
f 145 155 156
f 145 156 157
f 145 157 158
f 145 158 146
f 146 158 157
f 147 159 160
f 147 160 148
f 148 161 162
f 148 162 149
f 148 160 161
f 149 162 150
f 150 162 163
f 150 163 164
f 150 164 151
f 151 164 152
f 152 165 166
f 152 166 153
f 152 164 165
f 153 166 167
f 153 167 168
f 153 168 154
f 154 168 169
f 154 169 170
f 154 170 171
f 155 172 156
f 156 173 157
f 156 172 173
f 157 173 174
f 159 175 176
f 159 176 160
f 160 176 161
f 161 176 164
f 161 164 163
f 161 163 162
f 164 176 177
f 164 177 178
f 164 178 165
f 165 178 179
f 165 179 166
f 166 179 167
f 167 179 168
f 168 179 180
f 168 180 181
f 168 181 182
f 168 182 183
f 168 183 184
f 168 184 169
f 169 184 183
f 169 183 170
f 170 185 171
f 170 183 185
f 171 185 186
f 171 186 187
f 171 187 188
f 171 188 189
f 172 190 191
f 172 191 173
f 173 191 174
f 174 191 190
f 174 190 192
f 175 193 194
f 175 194 195
f 175 195 196
f 175 196 176
f 176 196 195
f 176 195 197
f 176 197 177
f 177 197 195
f 177 195 178
f 178 195 179
f 179 195 180
f 180 195 198
f 180 198 181
f 181 198 195
f 181 195 199
f 181 199 200
f 181 200 201
f 181 201 182
f 182 201 183
f 183 202 203
f 183 203 185
f 183 201 204
f 183 204 205
f 183 205 202
f 185 203 206
f 185 206 186
f 186 206 207
f 186 207 208
f 186 208 187
f 187 208 209
f 187 209 188
f 188 210 189
f 188 209 211
f 188 211 210
f 189 210 212
f 189 212 213
f 190 214 215
f 190 215 192
f 192 215 216
f 193 217 218
f 193 218 219
f 193 219 194
f 193 220 221
f 193 221 217
f 194 219 195
f 195 219 218
f 195 218 199
f 199 218 222
f 199 222 200
f 200 222 221
f 200 221 201
f 201 221 223
f 201 223 204
f 202 205 224
f 202 224 225
f 202 225 206
f 202 206 203
f 204 223 226
f 204 226 205
f 205 226 227
f 205 227 228
f 205 228 224
f 206 225 224
f 206 224 207
f 207 209 208
f 207 224 209
f 209 224 229
f 209 229 230
f 209 230 211
f 210 211 230
f 210 230 231
f 210 231 232
f 210 232 212
f 212 232 233
f 212 233 213
f 213 233 235
f 213 235 236
f 213 236 234
f 214 237 238
f 214 238 215
f 215 238 216
f 216 238 239
f 217 221 222
f 217 222 218
f 220 240 241
f 220 241 242
f 220 242 223
f 220 223 221
f 223 242 226
f 224 243 244
f 224 244 229
f 224 228 227
f 224 227 243
f 226 242 241
f 226 241 227
f 227 241 240
f 227 240 245
f 227 245 246
f 227 246 243
f 229 247 230
f 229 244 247
f 230 247 248
f 230 248 231
f 231 233 232
f 231 248 233
f 233 249 235
f 233 248 247
f 233 247 250
f 233 250 251
f 233 251 249
f 234 236 253
f 234 253 252
f 235 249 236
f 236 249 254
f 236 254 253
f 237 255 256
f 237 256 238
f 238 256 239
f 239 256 257
f 239 257 258
f 239 258 259
f 239 259 260
f 243 246 261
f 243 261 244
f 244 261 262
f 244 262 247
f 245 263 246
f 245 264 265
f 245 265 263
f 246 263 261
f 247 262 266
f 247 266 250
f 249 267 254
f 249 251 267
f 250 266 251
f 251 266 268
f 251 268 269
f 251 269 270
f 251 270 267
f 252 271 272
f 252 253 273
f 252 273 274
f 252 274 271
f 253 254 273
f 254 267 273
f 255 257 256
f 258 275 276
f 258 276 259
f 259 277 260
f 259 276 277
f 260 277 278
f 261 279 280
f 261 280 262
f 261 263 279
f 262 280 266
f 263 265 279
f 264 281 282
f 264 282 265
f 265 282 283
f 265 283 279
f 266 280 268
f 267 270 284
f 267 284 273
f 268 280 285
f 268 285 286
f 268 286 269
f 269 286 287
f 269 287 288
f 269 288 289
f 269 289 284
f 269 284 270
f 271 274 289
f 271 289 290
f 271 290 291
f 271 291 292
f 271 292 272
f 272 292 293
f 272 293 294
f 272 294 295
f 273 289 274
f 273 284 289
f 275 296 276
f 275 297 296
f 276 296 277
f 277 298 278
f 277 296 298
f 279 283 285
f 279 285 280
f 281 299 300
f 281 300 301
f 281 301 282
f 282 301 302
f 282 302 283
f 283 303 285
f 283 302 303
f 285 303 287
f 285 287 286
f 287 303 302
f 287 302 304
f 287 304 288
f 288 304 305
f 288 305 290
f 288 290 289
f 290 306 291
f 290 305 306
f 291 306 307
f 291 307 292
f 292 307 293
f 293 307 308
f 293 308 309
f 293 309 294
f 294 310 295
f 294 309 311
f 294 311 312
f 294 312 313
f 294 313 310
f 295 314 315
f 295 315 316
f 295 316 317
f 295 317 318
f 295 310 314
f 296 297 319
f 296 319 298
f 297 320 319
f 298 319 321
f 298 321 322
f 299 323 324
f 299 324 325
f 299 325 326
f 299 326 327
f 299 327 328
f 299 328 300
f 300 329 330
f 300 330 331
f 300 331 301
f 300 328 332
f 300 332 333
f 300 333 334
f 300 334 329
f 301 331 335
f 301 335 304
f 301 304 302
f 304 336 305
f 304 335 337
f 304 337 336
f 305 336 338
f 305 338 339
f 305 339 306
f 306 339 307
f 307 339 308
f 308 339 340
f 308 340 341
f 308 341 342
f 308 342 333
f 308 333 343
f 308 343 344
f 308 344 311
f 308 311 309
f 310 313 345
f 310 345 346
f 310 346 314
f 311 344 347
f 311 347 312
f 312 347 348
f 312 348 349
f 312 349 313
f 313 349 345
f 314 346 350
f 314 350 315
f 315 351 317
f 315 317 316
f 315 350 346
f 315 346 351
f 317 351 352
f 317 352 318
f 318 352 353
f 319 320 321
f 320 354 321
f 321 354 322
f 322 354 355
f 323 356 357
f 323 357 358
f 323 358 359
f 323 359 360
f 323 360 361
f 323 361 324
f 324 361 362
f 324 362 363
f 324 363 325
f 325 364 365
f 325 365 326
f 325 363 366
f 325 366 364
f 326 365 327
f 327 365 332
f 327 332 328
f 329 334 342
f 329 342 337
f 329 337 330
f 330 337 335
f 330 335 331
f 332 367 333
f 332 365 367
f 333 342 334
f 333 367 368
f 333 368 344
f 333 344 343
f 336 337 342
f 336 342 338
f 338 342 341
f 338 341 340
f 338 340 339
f 344 368 369
f 344 369 348
f 344 348 347
f 345 349 364
f 345 364 346
f 346 364 370
f 346 370 371
f 346 371 351
f 348 369 349
f 349 369 372
f 349 372 364
f 351 371 373
f 351 373 352
f 352 373 374
f 352 374 360
f 352 360 375
f 352 375 376
f 352 376 353
f 353 376 378
f 353 378 377
f 354 379 380
f 354 380 355
f 355 380 381
f 355 381 382
f 356 383 384
f 356 384 385
f 356 385 357
f 357 385 358
f 358 385 386
f 358 386 359
f 359 386 387
f 359 387 360
f 360 388 375
f 360 374 361
f 360 387 389
f 360 389 388
f 361 374 362
f 362 374 373
f 362 373 390
f 362 390 391
f 362 391 363
f 363 391 370
f 363 370 366
f 364 366 370
f 364 372 365
f 365 372 392
f 365 392 367
f 367 392 368
f 368 392 372
f 368 372 369
f 370 390 373
f 370 373 371
f 370 391 390
f 375 393 376
f 375 388 393
f 376 393 394
f 376 394 395
f 376 395 396
f 376 396 378
f 377 378 397
f 377 397 395
f 377 395 398
f 377 398 399
f 378 396 397
f 379 400 380
f 380 400 401
f 380 401 381
f 381 401 402
f 381 402 403
f 381 403 382
f 382 403 404
f 383 405 406
f 383 406 384
f 383 407 405
f 384 406 408
f 384 408 386
f 384 386 385
f 386 409 410
f 386 410 387
f 386 408 409
f 387 410 389
f 388 389 411
f 388 411 393
f 389 410 411
f 393 411 412
f 393 412 413
f 393 413 394
f 394 413 395
f 395 397 396
f 395 413 398
f 398 413 414
f 398 414 415
f 398 415 399
f 399 415 416
f 399 416 417
f 399 417 418
f 399 418 419
f 399 419 420
f 399 420 421
f 400 402 401
f 402 422 403
f 402 423 422
f 403 422 424
f 403 424 425
f 403 425 426
f 403 426 404
f 405 407 406
f 406 417 427
f 406 427 428
f 406 428 414
f 406 414 429
f 406 429 408
f 406 407 430
f 406 430 417
f 407 431 430
f 408 429 409
f 409 429 412
f 409 412 411
f 409 411 410
f 412 429 413
f 413 429 414
f 414 428 427
f 414 427 415
f 415 427 417
f 415 417 416
f 417 430 432
f 417 432 433
f 417 433 418
f 418 433 419
f 419 434 435
f 419 435 436
f 419 436 420
f 419 433 434
f 420 436 421
f 421 436 435
f 421 435 437
f 421 437 438
f 421 438 439
f 422 423 440
f 422 440 424
f 424 440 425
f 425 441 442
f 425 442 426
f 425 440 441
f 426 442 443
f 430 431 432
f 431 444 432
f 432 444 433
f 433 444 434
f 434 444 445
f 434 445 435
f 435 438 437
f 435 445 446
f 435 446 447
f 435 447 438
f 438 447 448
f 438 448 439
f 439 448 449
f 440 450 441
f 441 450 442
f 442 450 451
f 442 451 443
f 443 451 452
f 448 453 454
f 448 454 449
f 450 455 456
f 450 456 451
f 451 457 452
f 451 456 458
f 451 458 457
f 453 459 460
f 453 460 454
f 455 461 456
f 456 461 462
f 456 462 458
f 457 458 463
f 457 463 464
f 458 462 463
f 459 465 460
f 459 466 467
f 459 467 465
f 461 468 469
f 461 469 463
f 461 463 462
f 463 470 464
f 463 469 470
f 465 467 471
f 466 472 473
f 466 473 474
f 466 474 467
f 467 474 471
f 468 475 476
f 468 476 477
f 468 477 469
f 468 478 475
f 469 477 476
f 469 476 470
f 470 476 475
f 472 479 473
f 473 479 480
f 475 478 481
f 475 481 482
f 475 482 483
f 478 484 481
f 479 485 480
f 480 486 487
f 480 485 486
f 481 484 488
f 481 488 482
f 482 488 483
f 483 488 489
f 483 489 490
f 483 490 491
f 483 491 492
f 484 493 488
f 485 494 486
f 485 495 494
f 486 494 496
f 486 496 487
f 487 496 497
f 487 497 498
f 487 498 499
f 487 499 500
f 488 493 501
f 488 501 489
f 489 501 490
f 490 501 502
f 490 502 503
f 490 503 504
f 490 504 491
f 491 504 492
f 492 504 505
f 492 505 506
f 494 495 507
f 494 507 496
f 495 508 497
f 495 497 507
f 496 507 497
f 497 508 498
f 498 508 505
f 498 505 499
f 499 505 500
f 500 505 503
f 500 503 509
f 501 509 502
f 502 509 503
f 503 505 504
f 505 508 506

