# https://github.com/mikedh/trimesh
v -0.16499016 -0.42499793 0.50370079
v -0.17188065 -0.42499793 0.50152218
v -0.17109498 -0.43113166 0.50082105
v -0.16499016 -0.43223226 0.50160980
v -0.15499949 -0.43209803 0.50150967
v -0.15499949 -0.42499793 0.50309980
v -0.15504196 -0.41478395 0.50147212
v -0.16508572 -0.41438130 0.50187278
v -0.17141350 -0.41729382 0.50122166
v -0.17688130 -0.42499793 0.49622595
v -0.18050171 -0.43079615 0.49079198
v -0.17434381 -0.43429923 0.49421012
v -0.17093574 -0.44063431 0.49096727
v -0.16499016 -0.43723857 0.49711493
v -0.15499949 -0.43709093 0.49687701
v -0.14876726 -0.43094379 0.50069582
v -0.14803469 -0.42499793 0.50093371
v -0.14859739 -0.41796491 0.50054556
v -0.15172943 -0.41130772 0.49963155
v -0.15839696 -0.40945551 0.50034523
v -0.16181566 -0.40945551 0.50034523
v -0.16848318 -0.41063663 0.49960652
v -0.18056542 -0.41840783 0.49082956
v -0.17260261 -0.40691879 0.49294555
v -0.17534181 -0.41451553 0.49522430
v -0.18079899 -0.42499793 0.49121770
v -0.18346389 -0.42499793 0.48499492
v -0.18627742 -0.42499793 0.47499093
v -0.18147849 -0.43242016 0.48499492
v -0.17921706 -0.43909079 0.47813362
v -0.17761387 -0.43741307 0.48499492
v -0.17261323 -0.44185567 0.48499492
v -0.16897157 -0.44964030 0.46848020
v -0.16538300 -0.44870079 0.47536656
v -0.16499016 -0.44526482 0.48499492
v -0.16499016 -0.44162750 0.49211919
v -0.15499949 -0.44154698 0.49188128
v -0.14880973 -0.44052693 0.49065426
v -0.14215283 -0.43882236 0.48878869
v -0.12999627 -0.44000345 0.48001170
v -0.13756625 -0.43215173 0.49181867
v -0.13090934 -0.42697093 0.48923942
v -0.13454038 -0.42417920 0.49261999
v -0.14303404 -0.42499793 0.49822927
v -0.13448730 -0.41580400 0.49255741
v -0.14515746 -0.41478395 0.49830437
v -0.13748132 -0.40760329 0.49171853
v -0.14514685 -0.40455657 0.49319595
v -0.15504196 -0.40567055 0.49688953
v -0.15499949 -0.39879861 0.49139297
v -0.16282427 -0.39891940 0.49121770
v -0.16949181 -0.40026158 0.48959002
v -0.17927013 -0.41175064 0.48900154
v -0.18246588 -0.41503897 0.48539558
v -0.17567095 -0.40407339 0.48597154
v -0.18146788 -0.40788516 0.48234054
v -0.18589520 -0.41499871 0.47499093
v -0.18645790 -0.42499793 0.46499947
v -0.18381426 -0.43499714 0.46499947
v -0.18255082 -0.43545347 0.47487825
v -0.18045925 -0.44052693 0.47146010
v -0.17552231 -0.44321129 0.47487825
v -0.17056413 -0.45037851 0.46180668
v -0.16538300 -0.45141199 0.46508709
v -0.16230404 -0.45070064 0.47228646
v -0.15499949 -0.44946581 0.47859687
v -0.15499949 -0.44601643 0.48499492
v -0.14499821 -0.44848603 0.47762027
v -0.14528486 -0.44310391 0.48527038
v -0.13499692 -0.44129196 0.48160183
v -0.13894647 -0.45056641 0.47099686
v -0.12886024 -0.44131881 0.47499093
v -0.12532476 -0.43499714 0.47499093
v -0.12860543 -0.43499714 0.48193988
v -0.12758619 -0.42417920 0.48554584
v -0.12994318 -0.42030030 0.49005327
v -0.12994318 -0.41966948 0.49005327
v -0.13082440 -0.41301227 0.48903909
v -0.13419002 -0.40428811 0.48567104
v -0.09284711 -0.32295215 0.37580237
v -0.14191926 -0.40093267 0.48897648
v -0.14858678 -0.39946970 0.49062923
v -0.10693597 -0.31618756 0.37580237
v -0.11500496 -0.31654996 0.37580237
v -0.11820069 -0.31724790 0.37580237
v -0.12470897 -0.31887192 0.37580237
v -0.13377595 -0.32280451 0.37580237
v -0.13499692 -0.32339507 0.37580237
v -0.14140964 -0.32707265 0.37580237
v -0.17207175 -0.39862412 0.48292902
v -0.17867558 -0.40137559 0.47499093
v -0.18244465 -0.40638191 0.47499093
v -0.18239155 -0.40553635 0.46499947
v -0.18579964 -0.41499871 0.46499947
v -0.18441942 -0.41499871 0.45499545
v -0.18011950 -0.40877101 0.42952845
v -0.18011950 -0.41056952 0.42952845
v -0.18444066 -0.42499793 0.45499545
v -0.18176515 -0.43491662 0.45515823
v -0.18055481 -0.44072825 0.45861393
v -0.18076715 -0.44094300 0.46499947
v -0.17056413 -0.45037851 0.45906466
v -0.15499949 -0.45329103 0.46499947
v -0.15499949 -0.45127776 0.47358862
v -0.14499821 -0.45118380 0.47262454
v -0.14499821 -0.45261994 0.46499947
v -0.13847932 -0.45079458 0.46499947
v -0.13347867 -0.44760019 0.46499947
v -0.12763928 -0.44259387 0.46499947
v -0.12240506 -0.43451396 0.46498692
v -0.11952783 -0.43087667 0.46165645
v -0.12048337 -0.42803124 0.46832994
v -0.12191667 -0.42481002 0.47444004
v -0.11967647 -0.42136061 0.47073391
v -0.11967647 -0.41779044 0.47073391
v -0.12203346 -0.41466317 0.47444004
v -0.12788346 -0.41580400 0.48542064
v -0.07885379 -0.34967491 0.37580237
v -0.08013846 -0.34500414 0.37580237
v -0.08114708 -0.34186345 0.37580237
v -0.08480997 -0.33415934 0.37580237
v -0.08871706 -0.32838798 0.37580237
v -0.09923859 -0.31820083 0.37580237
v -0.10500366 -0.31663048 0.37580237
v -0.14779049 -0.33303189 0.37580237
v -0.15224966 -0.33739400 0.37580237
v -0.15795104 -0.34480280 0.37580237
v -0.15803598 -0.34496388 0.37580237
v -0.16259071 -0.35386249 0.37580237
v -0.18014073 -0.39975157 0.44867253
v -0.16666767 -0.36500257 0.37580237
v -0.17048982 -0.37799487 0.38752168
v -0.17642476 -0.39498684 0.41500449
v -0.17240089 -0.38498759 0.39500904
v -0.16839825 -0.37498838 0.37580237
v -0.17080833 -0.38498759 0.38599417
v -0.16978909 -0.38498759 0.38099843
v -0.18050171 -0.42173642 0.43850577
v -0.16863182 -0.38498759 0.37580237
v -0.16938564 -0.39498684 0.38220042
v -0.17023501 -0.40085214 0.38912433
v -0.18157405 -0.42503819 0.44484121
v -0.18061851 -0.43152091 0.44807154
v -0.17123301 -0.43133301 0.42780060
v -0.17172140 -0.44154698 0.44499147
v -0.17473665 -0.44471452 0.45550880
v -0.17947187 -0.42840704 0.44141054
v -0.17048982 -0.41093192 0.39860246
v -0.17021377 -0.42028689 0.40957054
v -0.16024433 -0.45006981 0.44979939
v -0.16414079 -0.45103616 0.45543367
v -0.17004390 -0.44003031 0.43992060
v -0.16027617 -0.43020558 0.40960810
v -0.16077518 -0.44047323 0.42902762
v -0.15499949 -0.45236492 0.45499545
v -0.14495574 -0.45137173 0.45483267
v -0.13903141 -0.45048589 0.45806301
v -0.12793656 -0.44166777 0.44499147
v -0.12758619 -0.44233885 0.45499545
v -0.11807328 -0.43203095 0.43501249
v -0.11823255 -0.43213832 0.44499147
v -0.11883771 -0.43170881 0.45499545
v -0.11001492 -0.41996476 0.43994564
v -0.11867847 -0.42481002 0.46498692
v -0.10914432 -0.41329414 0.44253740
v -0.08002167 -0.37500182 0.37580237
v -0.07890688 -0.36935124 0.37580237
v -0.07823800 -0.36500257 0.37580237
v -0.07799381 -0.35827827 0.37580237
v -0.07818492 -0.35500336 0.37580237
v -0.16267565 -0.35409069 0.37580237
v -0.17119054 -0.40451628 0.39517179
v -0.16737901 -0.39498684 0.37580237
v -0.16923700 -0.42919895 0.42112711
v -0.16908836 -0.40752277 0.39194149
v -0.16283490 -0.40498605 0.37580237
v -0.16246331 -0.40554976 0.37580237
v -0.16054161 -0.41060978 0.37907025
v -0.15499949 -0.45035166 0.44903561
v -0.15038106 -0.43017873 0.39961663
v -0.15499949 -0.44126511 0.42709947
v -0.14499821 -0.43082297 0.39813918
v -0.14499821 -0.43384287 0.40500051
v -0.14855492 -0.43980214 0.42043847
v -0.14188740 -0.44023165 0.41934916
v -0.15944806 -0.41950843 0.39071444
v -0.15013687 -0.42008555 0.37983400
v -0.14825764 -0.45037851 0.44892293
v -0.13914819 -0.44023165 0.41934916
v -0.14159012 -0.44962689 0.45140204
v -0.13248067 -0.43925184 0.42311788
v -0.12990071 -0.44004375 0.42977887
v -0.12905134 -0.44064772 0.43501249
v -0.11905006 -0.43071559 0.41500449
v -0.10916556 -0.42068952 0.39500904
v -0.11822192 -0.43157458 0.42500851
v -0.10861347 -0.42137405 0.40500051
v -0.09919612 -0.41090506 0.38500503
v -0.10869841 -0.42153510 0.41500449
v -0.10898507 -0.42136061 0.42500851
v -0.09994993 -0.41007292 0.41032177
v -0.10944160 -0.42081034 0.43329719
v -0.09973759 -0.40117428 0.42078903
v -0.08802696 -0.39384598 0.38500503
v -0.08273965 -0.38569897 0.37580237
v -0.08244237 -0.38473260 0.37580237
v -0.15469159 -0.41389811 0.37580237
v -0.15423506 -0.41432762 0.37580237
v -0.14499821 -0.42846075 0.39313093
v -0.14499821 -0.42016608 0.37580237
v -0.14499821 -0.42106533 0.37760532
v -0.13981707 -0.42154852 0.37580237
v -0.13519864 -0.42268938 0.37580237
v -0.13499692 -0.42680988 0.38500503
v -0.13499692 -0.42949423 0.39121526
v -0.14513622 -0.43829891 0.41560549
v -0.13499692 -0.43140012 0.39622355
v -0.12791532 -0.43094379 0.39706242
v -0.12124780 -0.42938685 0.40279686
v -0.11980388 -0.43011162 0.40945786
v -0.11769107 -0.42110562 0.37580237
v -0.10980258 -0.42012581 0.38938725
v -0.09936599 -0.41060978 0.37580237
v -0.09451398 -0.40505317 0.37580237
v -0.09164737 -0.40137559 0.37580237
v -0.09027778 -0.39959049 0.37691671
v -0.09946155 -0.41070372 0.39500904
v -0.09976944 -0.41032791 0.40500051
v -0.08915237 -0.39804700 0.37580237
v -0.08757041 -0.39547002 0.37580237
v -0.09057505 -0.39885229 0.38500503
v -0.12500624 -0.42279676 0.37580237
v -0.12500624 -0.42605823 0.38500503
v -0.11306202 -0.41882390 0.37580237
v -0.11465459 -0.42195117 0.38563105
v -0.11108725 -0.41940105 0.38271376
v -0.10506736 -0.41431418 0.37580237
f 1 2 3
f 1 3 4
f 1 4 5
f 1 5 6
f 1 6 7
f 1 7 8
f 1 8 9
f 1 9 2
f 2 10 3
f 2 9 10
f 3 11 12
f 3 12 13
f 3 13 14
f 3 14 4
f 3 10 11
f 4 14 5
f 5 14 15
f 5 15 16
f 5 16 6
f 6 16 17
f 6 17 18
f 6 18 7
f 7 18 19
f 7 19 20
f 7 20 8
f 8 20 21
f 8 21 22
f 8 22 9
f 9 23 10
f 9 22 24
f 9 24 25
f 9 25 23
f 10 23 26
f 10 26 11
f 11 26 27
f 11 27 28
f 11 28 29
f 11 29 30
f 11 30 31
f 11 31 13
f 11 13 12
f 13 32 33
f 13 33 34
f 13 34 35
f 13 35 36
f 13 36 14
f 13 31 32
f 14 36 37
f 14 37 15
f 15 37 38
f 15 38 16
f 16 38 39
f 16 39 40
f 16 40 41
f 16 41 42
f 16 42 43
f 16 43 44
f 16 44 17
f 17 44 18
f 18 45 46
f 18 46 19
f 18 44 45
f 19 47 48
f 19 48 49
f 19 49 20
f 19 46 47
f 20 49 50
f 20 50 21
f 21 50 51
f 21 51 22
f 22 51 52
f 22 52 24
f 23 25 53
f 23 53 54
f 23 54 27
f 23 27 26
f 24 55 56
f 24 56 53
f 24 53 25
f 24 52 55
f 27 54 57
f 27 57 28
f 28 57 58
f 28 58 59
f 28 59 60
f 28 60 29
f 29 60 61
f 29 61 30
f 30 61 32
f 30 32 31
f 32 61 62
f 32 62 33
f 33 62 63
f 33 63 64
f 33 64 65
f 33 65 34
f 34 65 35
f 35 65 66
f 35 66 36
f 36 66 67
f 36 67 37
f 37 67 68
f 37 68 38
f 38 68 69
f 38 69 70
f 38 70 39
f 39 70 40
f 40 70 71
f 40 71 72
f 40 72 73
f 40 73 74
f 40 74 42
f 40 42 41
f 42 74 75
f 42 75 76
f 42 76 43
f 43 76 44
f 44 76 77
f 44 77 45
f 45 77 78
f 45 78 47
f 45 47 46
f 47 78 79
f 47 79 80
f 47 80 81
f 47 81 48
f 48 81 82
f 48 82 49
f 49 82 50
f 50 82 83
f 50 83 51
f 51 83 84
f 51 84 85
f 51 85 86
f 51 86 52
f 52 86 87
f 52 87 88
f 52 88 89
f 52 89 90
f 52 90 55
f 53 56 54
f 54 56 57
f 55 90 56
f 56 90 91
f 56 91 92
f 56 92 57
f 57 92 93
f 57 93 94
f 57 94 58
f 58 94 95
f 58 95 96
f 58 96 97
f 58 97 98
f 58 98 59
f 59 98 99
f 59 99 100
f 59 100 101
f 59 101 61
f 59 61 60
f 61 101 63
f 61 63 62
f 63 102 64
f 63 101 102
f 64 103 65
f 64 102 103
f 65 103 104
f 65 104 66
f 66 104 105
f 66 105 67
f 67 105 68
f 68 105 71
f 68 71 70
f 68 70 69
f 71 105 106
f 71 106 107
f 71 107 108
f 71 108 72
f 72 108 109
f 72 109 110
f 72 110 73
f 73 110 111
f 73 111 112
f 73 112 113
f 73 113 74
f 74 113 75
f 75 113 114
f 75 114 76
f 76 114 115
f 76 115 77
f 77 115 116
f 77 116 117
f 77 117 78
f 78 117 118
f 78 118 119
f 78 119 120
f 78 120 121
f 78 121 122
f 78 122 79
f 79 122 80
f 80 122 121
f 80 121 120
f 80 120 119
f 80 119 118
f 80 118 170
f 80 170 169
f 80 169 168
f 80 168 167
f 80 167 166
f 80 166 206
f 80 206 205
f 80 205 230
f 80 230 229
f 80 229 225
f 80 225 224
f 80 224 223
f 80 223 237
f 80 237 234
f 80 234 221
f 80 221 232
f 80 232 213
f 80 213 212
f 80 212 210
f 80 210 208
f 80 208 207
f 80 207 177
f 80 177 176
f 80 176 173
f 80 173 139
f 80 139 135
f 80 135 131
f 80 131 171
f 80 171 129
f 80 129 128
f 80 128 127
f 80 127 126
f 80 126 125
f 80 125 89
f 80 89 88
f 80 88 87
f 80 87 86
f 80 86 85
f 80 85 84
f 80 84 83
f 80 83 124
f 80 124 123
f 80 123 81
f 81 123 82
f 82 123 124
f 82 124 83
f 89 125 91
f 89 91 90
f 91 125 126
f 91 126 127
f 91 127 92
f 92 127 128
f 92 128 129
f 92 129 93
f 93 129 130
f 93 130 94
f 94 130 131
f 94 131 132
f 94 132 133
f 94 133 95
f 95 133 96
f 96 133 134
f 96 134 135
f 96 135 136
f 96 136 137
f 96 137 97
f 97 138 98
f 97 137 139
f 97 139 140
f 97 140 141
f 97 141 138
f 98 142 99
f 98 138 142
f 99 142 143
f 99 143 100
f 100 144 145
f 100 145 146
f 100 146 102
f 100 102 101
f 100 143 147
f 100 147 148
f 100 148 149
f 100 149 144
f 102 150 151
f 102 151 103
f 102 146 145
f 102 145 152
f 102 152 153
f 102 153 154
f 102 154 150
f 103 106 105
f 103 105 104
f 103 151 155
f 103 155 106
f 106 155 156
f 106 156 157
f 106 157 107
f 107 157 108
f 108 157 158
f 108 158 159
f 108 159 109
f 109 159 160
f 109 160 161
f 109 161 162
f 109 162 110
f 110 162 111
f 111 162 163
f 111 163 112
f 112 163 164
f 112 164 114
f 112 114 113
f 114 164 165
f 114 165 166
f 114 166 167
f 114 167 168
f 114 168 169
f 114 169 115
f 115 169 170
f 115 170 118
f 115 118 116
f 116 118 117
f 129 171 130
f 130 171 131
f 131 135 132
f 132 135 134
f 132 134 133
f 135 139 137
f 135 137 136
f 138 141 172
f 138 172 148
f 138 148 147
f 138 147 142
f 139 173 140
f 140 173 141
f 141 173 148
f 141 148 172
f 142 147 143
f 144 174 145
f 144 149 174
f 145 174 152
f 148 173 175
f 148 175 176
f 148 176 149
f 149 176 177
f 149 177 178
f 149 178 174
f 150 179 155
f 150 155 151
f 150 154 180
f 150 180 181
f 150 181 182
f 150 182 183
f 150 183 184
f 150 184 185
f 150 185 179
f 152 174 186
f 152 186 153
f 153 186 187
f 153 187 154
f 154 187 180
f 155 179 188
f 155 188 156
f 156 188 189
f 156 189 190
f 156 190 157
f 157 190 191
f 157 191 192
f 157 192 193
f 157 193 158
f 158 193 194
f 158 194 195
f 158 195 196
f 158 196 159
f 159 196 197
f 159 197 160
f 160 197 198
f 160 198 199
f 160 199 161
f 161 199 200
f 161 200 162
f 162 200 201
f 162 201 202
f 162 202 163
f 163 203 165
f 163 165 164
f 163 202 201
f 163 201 204
f 163 204 205
f 163 205 206
f 163 206 166
f 163 166 203
f 165 203 166
f 173 176 175
f 174 178 186
f 177 207 178
f 178 207 208
f 178 208 186
f 179 185 188
f 180 209 182
f 180 182 181
f 180 187 210
f 180 210 211
f 180 211 212
f 180 212 209
f 182 209 213
f 182 213 214
f 182 214 183
f 183 214 215
f 183 215 216
f 183 216 184
f 184 216 185
f 185 216 215
f 185 215 189
f 185 189 188
f 186 208 187
f 187 208 210
f 189 215 217
f 189 217 218
f 189 218 190
f 190 218 191
f 191 218 192
f 192 219 220
f 192 220 193
f 192 218 221
f 192 221 219
f 193 220 194
f 194 220 222
f 194 222 195
f 195 222 223
f 195 223 196
f 196 223 197
f 197 223 198
f 198 223 224
f 198 224 225
f 198 225 226
f 198 226 227
f 198 227 199
f 199 227 200
f 200 227 226
f 200 226 228
f 200 228 201
f 201 228 226
f 201 226 229
f 201 229 230
f 201 230 231
f 201 231 204
f 204 231 230
f 204 230 205
f 209 212 213
f 210 212 211
f 213 232 214
f 214 232 215
f 215 232 217
f 217 232 218
f 218 232 233
f 218 233 221
f 219 221 234
f 219 234 235
f 219 235 236
f 219 236 220
f 220 236 222
f 221 233 232
f 222 236 237
f 222 237 223
f 225 229 226
f 234 237 236
f 234 236 235

