# https://github.com/mikedh/trimesh
v -0.10501201 -0.41336688 0.07876031
v -0.10501201 -0.40917277 0.07876031
v -0.09939948 -0.41310117 0.07927654
v -0.09737094 -0.42060664 0.08681285
v -0.10183020 -0.42060664 0.08681285
v -0.10507707 -0.41671994 0.08249887
v -0.10632495 -0.41671994 0.08302826
v -0.11089658 -0.41139060 0.07907926
v -0.09939948 -0.40963832 0.07927654
v -0.11089658 -0.40926060 0.07907926
v -0.12824868 -0.40255445 0.10676499
v -0.12664004 -0.40255445 0.10673540
v -0.11892799 -0.40255445 0.10830711
v -0.07901935 -0.42071202 0.10842877
v -0.08847606 -0.42067030 0.09731173
v -0.08508726 -0.42161232 0.10505518
v -0.08502812 -0.42334926 0.11234818
v -0.08765399 -0.42393336 0.11234818
v -0.09500528 -0.42380381 0.10499600
v -0.10521309 -0.42341733 0.11234818
v -0.10369316 -0.42138177 0.09500349
v -0.10868469 -0.41908270 0.09500349
v -0.10509481 -0.41814727 0.08409031
v -0.09500528 -0.42498738 0.11234818
v -0.09773169 -0.42457017 0.11234818
v -0.11453378 -0.41260272 0.08562256
v -0.12050115 -0.41052324 0.08937427
v -0.11620156 -0.40255445 0.11235146
v -0.10610021 -0.40619081 0.11235146
v -0.07709725 -0.41744679 0.11234818
v -0.07901935 -0.41778055 0.10842877
v -0.12050115 -0.40915960 0.08937427
v -0.13350636 -0.40255445 0.10792241
v -0.13309236 -0.40255445 0.10774814
v -0.07709725 -0.42106995 0.11234818
v -0.10558568 -0.40793431 0.11235146
v -0.10696959 -0.42263561 0.11234818
v -0.10585773 -0.42206687 0.10446662
v -0.13245955 -0.40793431 0.11235146
v -0.10975515 -0.41968438 0.10077738
v -0.11281276 -0.41671994 0.09500349
v -0.11498917 -0.41546831 0.09500349
v -0.12201517 -0.41138840 0.09500349
v -0.13282031 -0.40768400 0.11235146
v -0.13751614 -0.40255445 0.11235146
v -0.11119229 -0.42068347 0.11234818
v -0.11060679 -0.42034751 0.10744234
v -0.12801212 -0.41103488 0.11234818
v -0.12545720 -0.41260710 0.11234818
v -0.11343966 -0.41671994 0.09671658
v -0.12397867 -0.41233483 0.10499929
v -0.12978636 -0.40966904 0.11065481
f 1 2 9
f 1 9 3
f 1 3 4
f 1 4 5
f 1 5 6
f 1 6 7
f 1 7 8
f 1 8 10
f 1 10 2
f 2 10 11
f 2 11 12
f 2 12 13
f 2 13 9
f 3 9 31
f 3 31 14
f 3 14 4
f 4 14 15
f 4 15 16
f 4 16 17
f 4 17 18
f 4 18 19
f 4 19 5
f 5 20 21
f 5 21 22
f 5 22 23
f 5 23 6
f 5 19 24
f 5 24 25
f 5 25 20
f 6 23 7
f 7 23 26
f 7 26 8
f 8 26 27
f 8 27 32
f 8 32 10
f 9 13 28
f 9 28 29
f 9 29 30
f 9 30 31
f 10 32 33
f 10 33 34
f 10 34 11
f 11 34 33
f 11 33 45
f 11 45 28
f 11 28 13
f 11 13 12
f 14 31 30
f 14 30 35
f 14 35 17
f 14 17 16
f 14 16 15
f 17 35 36
f 17 36 18
f 18 24 19
f 18 36 24
f 20 37 38
f 20 38 21
f 20 25 39
f 20 39 37
f 21 38 40
f 21 40 22
f 22 40 41
f 22 41 23
f 23 41 42
f 23 42 43
f 23 43 27
f 23 27 26
f 24 36 39
f 24 39 25
f 27 43 44
f 27 44 45
f 27 45 32
f 28 45 44
f 28 44 39
f 28 39 36
f 28 36 29
f 29 36 30
f 30 36 35
f 32 45 33
f 37 39 46
f 37 46 47
f 37 47 38
f 38 47 40
f 39 44 48
f 39 48 49
f 39 49 46
f 40 50 41
f 40 47 51
f 40 51 50
f 41 50 42
f 42 50 51
f 42 51 43
f 43 51 52
f 43 52 44
f 44 52 48
f 46 49 47
f 47 49 51
f 48 52 51
f 48 51 49

