# https://github.com/mikedh/trimesh
v -0.16863462 -0.38499492 0.37578985
v -0.16654959 -0.37499401 0.36042586
v -0.16633807 -0.38499492 0.36500075
v -0.16738059 -0.39499581 0.37578985
v -0.16839288 -0.37497205 0.37578985
v -0.16685177 -0.36499313 0.36042586
v -0.16520491 -0.38499492 0.36042586
v -0.16712373 -0.39499581 0.37499878
v -0.16283283 -0.40497473 0.37578985
v -0.16667047 -0.36499313 0.37578985
v -0.16670069 -0.36499313 0.37499878
v -0.16550708 -0.35499221 0.36042586
v -0.16230401 -0.39416057 0.36042586
v -0.16127661 -0.40167773 0.36754388
v -0.16266662 -0.40499672 0.37543944
v -0.16247021 -0.40554622 0.37578985
v -0.16286305 -0.34490338 0.36042586
v -0.16259107 -0.35384926 0.37578985
v -0.13193518 -0.24500428 0.36042586
v -0.15961462 -0.39875439 0.36042586
v -0.15947865 -0.39930391 0.36087704
v -0.15851168 -0.40833768 0.37239853
v -0.15468913 -0.41389862 0.37578985
v -0.15804330 -0.34494734 0.37578985
v -0.12720612 -0.23386042 0.36042586
v -0.12915516 -0.23825642 0.36042586
v -0.13107398 -0.24278429 0.36042586
v -0.15934268 -0.39915004 0.36042586
v -0.15896495 -0.39958963 0.36042586
v -0.14968809 -0.40970045 0.36042586
v -0.15184867 -0.41159073 0.36705512
v -0.15423587 -0.41433823 0.37578985
v -0.15450783 -0.40462306 0.36042586
v -0.15795265 -0.34479350 0.37578985
v -0.12209931 -0.22500248 0.36042586
v -0.14958234 -0.40976638 0.36042586
v -0.14498925 -0.42016292 0.37578985
v -0.15224150 -0.33738622 0.37578985
v -0.12131365 -0.22383754 0.36042586
v -0.14433956 -0.41264576 0.36042586
v -0.14498925 -0.41858035 0.37260154
v -0.13873418 -0.41983321 0.37031108
v -0.13982201 -0.42154765 0.37578985
v -0.14778438 -0.33301222 0.37578985
v -0.11499815 -0.24500428 0.36589560
v -0.11499815 -0.23500338 0.36402774
v -0.11499815 -0.22500248 0.36195233
v -0.11527011 -0.21799086 0.36042586
v -0.13977668 -0.41422832 0.36042586
v -0.13207117 -0.42020687 0.36950651
v -0.13524403 -0.42196527 0.37418666
v -0.13519870 -0.42269063 0.37578985
v -0.13556132 -0.41563505 0.36042586
v -0.14140844 -0.32705563 0.37578985
v -0.10499607 -0.24500428 0.36739650
v -0.10499607 -0.23500338 0.36564896
v -0.10499607 -0.22500248 0.36365476
v -0.09499400 -0.21500158 0.36325622
v -0.10558532 -0.21434218 0.36131468
v -0.10789698 -0.21199033 0.36042586
v -0.11475641 -0.21755126 0.36042586
v -0.11499815 -0.21774909 0.36042586
v -0.12498511 -0.41660216 0.36042586
v -0.12498511 -0.42031679 0.36923277
v -0.12498511 -0.42277855 0.37578985
v -0.12498511 -0.42251480 0.37499878
v -0.13498718 -0.32338497 0.37578985
v -0.08290691 -0.24792762 0.37031710
v -0.09499400 -0.24500428 0.36854097
v -0.09499400 -0.23500338 0.36697692
v -0.08500704 -0.21500158 0.36482480
v -0.10263909 -0.20860541 0.36045292
v -0.10294127 -0.20869333 0.36042586
v -0.11534565 -0.41545922 0.36042586
v -0.11948548 -0.42020687 0.36947039
v -0.11792926 -0.42104211 0.37499878
v -0.11768752 -0.42110807 0.37578985
v -0.13377847 -0.32279152 0.37578985
v -0.07500497 -0.24647695 0.37050810
v -0.07500497 -0.24148747 0.36978322
v -0.07500497 -0.23500338 0.36879966
v -0.07500497 -0.22500248 0.36727017
v -0.07500497 -0.21500158 0.36571211
v -0.08500704 -0.22500248 0.36654678
v -0.08500704 -0.23500338 0.36810786
v -0.12469804 -0.31885710 0.37578985
v -0.07500497 -0.20500067 0.36315095
v -0.08574738 -0.20414346 0.36184707
v -0.09499400 -0.20660523 0.36110562
v -0.10268442 -0.20853946 0.36042586
v -0.10573640 -0.41174459 0.36042586
v -0.10333410 -0.41062361 0.36042586
v -0.11304910 -0.41882214 0.37578985
v -0.06500290 -0.24786168 0.37028703
v -0.06500290 -0.24287222 0.36970049
v -0.06500290 -0.23500338 0.36866882
v -0.11818612 -0.31723058 0.37578985
v -0.11499815 -0.31652722 0.37578985
v -0.10693001 -0.31617552 0.37578985
v -0.07500497 -0.25500518 0.37113973
v -0.06500290 -0.25500518 0.37082693
v -0.06500290 -0.22500248 0.36717391
v -0.06500290 -0.21500158 0.36552715
v -0.06417192 -0.20405555 0.36212379
v -0.07500497 -0.19860449 0.36069205
v -0.08290691 -0.19886826 0.36047849
v -0.08857273 -0.20124209 0.36042586
v -0.09185136 -0.20291257 0.36042586
v -0.09499400 -0.20453909 0.36042586
v -0.10244267 -0.20840758 0.36042586
v -0.10114332 -0.40945867 0.36042586
v -0.11273181 -0.41864631 0.37578985
v -0.05979034 -0.24977395 0.37002233
v -0.05500083 -0.23500338 0.36799055
v -0.05587715 -0.25597230 0.37019831
v -0.05500083 -0.22500248 0.36665958
v -0.10499607 -0.31661513 0.37578985
v -0.09922449 -0.31817570 0.37578985
v -0.04998469 -0.25995070 0.37000430
v -0.09283344 -0.32294536 0.37578985
v -0.08872382 -0.32837445 0.37578985
v -0.08481063 -0.33413318 0.37578985
v -0.05500083 -0.21500158 0.36469999
v -0.04501387 -0.21500158 0.36360061
v -0.05500083 -0.20603374 0.36173877
v -0.06111992 -0.20095636 0.36042586
v -0.06695195 -0.19928588 0.36044392
v -0.06693684 -0.19926390 0.36042586
v -0.07500497 -0.19825283 0.36042586
v -0.08298245 -0.19878033 0.36042586
v -0.08354148 -0.19900014 0.36042586
v -0.09544727 -0.40578800 0.36042586
v -0.10078070 -0.40959054 0.36243808
v -0.10505651 -0.41431624 0.37578985
v -0.05311222 -0.25329074 0.36968395
v -0.05587715 -0.24586150 0.36924332
v -0.04501387 -0.22500248 0.36582041
v -0.04998469 -0.26032436 0.37000430
v -0.04599595 -0.26419282 0.36905381
v -0.03501180 -0.26500610 0.36631519
v -0.03501180 -0.25500518 0.36606252
v -0.03501180 -0.24500428 0.36546999
v -0.03501180 -0.23500338 0.36480224
v -0.04501387 -0.23500338 0.36682951
v -0.08115428 -0.34184816 0.37578985
v -0.08014199 -0.34499133 0.37578985
v -0.07885773 -0.34965107 0.37578985
v -0.07819294 -0.35499221 0.37578985
v -0.07799653 -0.35826725 0.37578985
v -0.03847173 -0.20928678 0.36042586
v -0.03863793 -0.20917687 0.36042586
v -0.03890989 -0.20904499 0.36042586
v -0.04501387 -0.20779213 0.36098832
v -0.03501180 -0.22500248 0.36379012
v -0.03514778 -0.21504554 0.36148310
v -0.05500083 -0.20302248 0.36042586
v -0.09937558 -0.41057962 0.37499878
v -0.09978352 -0.41014004 0.36910346
v -0.08902600 -0.40090844 0.36042586
v -0.09936047 -0.41060162 0.37578985
v -0.07823827 -0.36499313 0.37578985
v -0.02500973 -0.27500698 0.36338255
v -0.02500973 -0.26500610 0.36347881
v -0.01428244 -0.25500518 0.36042586
v -0.01638257 -0.25500518 0.36101389
v -0.02500973 -0.25500518 0.36337954
v -0.01537027 -0.24500428 0.36042586
v -0.01689627 -0.24500428 0.36082742
v -0.02500973 -0.24500428 0.36292538
v -0.02500973 -0.23500338 0.36218995
v -0.03345559 -0.21330911 0.36042586
v -0.04501387 -0.20653927 0.36042586
v -0.02877184 -0.21840848 0.36048603
v -0.01843738 -0.23509130 0.36042586
v -0.02046196 -0.23036560 0.36042586
v -0.02159513 -0.22825551 0.36042586
v -0.02526658 -0.22574979 0.36100638
v -0.08617043 -0.39765540 0.36042586
v -0.09449541 -0.40506268 0.37578985
v -0.07890306 -0.36934516 0.37578985
v -0.01704736 -0.27500698 0.36100185
v -0.01656388 -0.26500610 0.36102441
v -0.01437309 -0.26078594 0.36042586
v -0.01462994 -0.25111473 0.36042586
v -0.02868119 -0.21832056 0.36042586
v -0.08082189 -0.39057785 0.36042586
v -0.09163984 -0.40137002 0.37578985
v -0.08002111 -0.37499401 0.37578985
v -0.01801433 -0.28500789 0.36074769
v -0.01673007 -0.28285384 0.36042586
v -0.01541560 -0.27500698 0.36042586
v -0.01493212 -0.27113849 0.36042586
v -0.01458462 -0.26500610 0.36042586
v -0.08020242 -0.38961071 0.36042586
v -0.08916198 -0.39805102 0.37578985
v -0.08243854 -0.38470918 0.37578985
v -0.01716823 -0.28500789 0.36042586
v -0.01994826 -0.29157990 0.36042586
v -0.08757555 -0.39545739 0.37578985
v -0.08274071 -0.38569826 0.37578985
v -0.01887553 -0.28979951 0.36042586
f 1 2 3
f 1 3 4
f 1 4 9
f 1 9 16
f 1 16 23
f 1 23 32
f 1 32 37
f 1 37 43
f 1 43 52
f 1 52 65
f 1 65 77
f 1 77 93
f 1 93 112
f 1 112 134
f 1 134 160
f 1 160 179
f 1 179 187
f 1 187 195
f 1 195 199
f 1 199 200
f 1 200 196
f 1 196 188
f 1 188 180
f 1 180 161
f 1 161 149
f 1 149 148
f 1 148 147
f 1 147 146
f 1 146 145
f 1 145 122
f 1 122 121
f 1 121 120
f 1 120 118
f 1 118 117
f 1 117 99
f 1 99 98
f 1 98 97
f 1 97 86
f 1 86 78
f 1 78 67
f 1 67 54
f 1 54 44
f 1 44 38
f 1 38 34
f 1 34 24
f 1 24 18
f 1 18 10
f 1 10 5
f 1 5 6
f 1 6 2
f 2 7 3
f 2 6 12
f 2 12 17
f 2 17 19
f 2 19 27
f 2 27 26
f 2 26 25
f 2 25 35
f 2 35 39
f 2 39 48
f 2 48 62
f 2 62 61
f 2 61 60
f 2 60 73
f 2 73 90
f 2 90 110
f 2 110 109
f 2 109 108
f 2 108 107
f 2 107 131
f 2 131 130
f 2 130 129
f 2 129 128
f 2 128 126
f 2 126 156
f 2 156 172
f 2 172 152
f 2 152 151
f 2 151 150
f 2 150 171
f 2 171 185
f 2 185 176
f 2 176 175
f 2 175 174
f 2 174 167
f 2 167 184
f 2 184 164
f 2 164 183
f 2 183 193
f 2 193 192
f 2 192 191
f 2 191 190
f 2 190 197
f 2 197 201
f 2 201 198
f 2 198 194
f 2 194 186
f 2 186 178
f 2 178 159
f 2 159 132
f 2 132 111
f 2 111 92
f 2 92 91
f 2 91 74
f 2 74 63
f 2 63 53
f 2 53 49
f 2 49 40
f 2 40 36
f 2 36 30
f 2 30 33
f 2 33 29
f 2 29 28
f 2 28 20
f 2 20 13
f 2 13 7
f 3 7 4
f 4 8 9
f 4 7 8
f 5 10 11
f 5 11 12
f 5 12 6
f 7 13 8
f 8 13 9
f 9 13 14
f 9 14 15
f 9 15 16
f 10 17 12
f 10 12 11
f 10 18 19
f 10 19 17
f 13 20 14
f 14 20 21
f 14 21 22
f 14 22 16
f 14 16 15
f 16 22 23
f 18 24 25
f 18 25 26
f 18 26 27
f 18 27 19
f 20 28 21
f 21 28 29
f 21 29 22
f 22 30 31
f 22 31 32
f 22 32 23
f 22 29 33
f 22 33 30
f 24 34 35
f 24 35 25
f 30 36 37
f 30 37 31
f 31 37 32
f 34 38 39
f 34 39 35
f 36 40 41
f 36 41 37
f 37 41 42
f 37 42 43
f 38 44 45
f 38 45 46
f 38 46 39
f 39 46 47
f 39 47 48
f 40 49 42
f 40 42 41
f 42 50 51
f 42 51 52
f 42 52 43
f 42 49 53
f 42 53 50
f 44 54 45
f 45 55 56
f 45 56 46
f 45 54 55
f 46 56 57
f 46 57 47
f 47 57 58
f 47 58 59
f 47 59 60
f 47 60 61
f 47 61 62
f 47 62 48
f 50 53 63
f 50 63 64
f 50 64 52
f 50 52 51
f 52 64 66
f 52 66 65
f 54 67 68
f 54 68 69
f 54 69 55
f 55 69 70
f 55 70 71
f 55 71 56
f 56 71 58
f 56 58 57
f 58 71 72
f 58 72 73
f 58 73 60
f 58 60 59
f 63 74 75
f 63 75 64
f 64 75 66
f 65 66 75
f 65 75 76
f 65 76 77
f 67 78 68
f 68 79 80
f 68 80 81
f 68 81 82
f 68 82 83
f 68 83 84
f 68 84 85
f 68 85 69
f 68 78 86
f 68 86 79
f 69 85 84
f 69 84 70
f 70 84 71
f 71 83 87
f 71 87 88
f 71 88 89
f 71 89 72
f 71 84 83
f 72 89 90
f 72 90 73
f 74 91 75
f 75 91 76
f 76 91 92
f 76 92 77
f 77 92 93
f 79 94 95
f 79 95 96
f 79 96 80
f 79 86 97
f 79 97 98
f 79 98 99
f 79 99 100
f 79 100 101
f 79 101 94
f 80 96 102
f 80 102 81
f 81 102 82
f 82 102 83
f 83 102 103
f 83 103 87
f 87 104 105
f 87 105 106
f 87 106 88
f 87 103 104
f 88 106 107
f 88 107 108
f 88 108 89
f 89 108 109
f 89 109 110
f 89 110 90
f 92 111 93
f 93 111 112
f 94 113 114
f 94 114 95
f 94 101 115
f 94 115 113
f 95 114 96
f 96 114 116
f 96 116 102
f 99 117 100
f 100 117 118
f 100 118 101
f 101 119 115
f 101 118 120
f 101 120 121
f 101 121 122
f 101 122 119
f 102 116 103
f 103 116 123
f 103 123 104
f 104 123 124
f 104 124 125
f 104 125 126
f 104 126 127
f 104 127 105
f 105 127 128
f 105 128 129
f 105 129 130
f 105 130 106
f 106 130 131
f 106 131 107
f 111 132 133
f 111 133 134
f 111 134 112
f 113 115 119
f 113 119 135
f 113 135 136
f 113 136 114
f 114 136 137
f 114 137 116
f 116 137 123
f 119 138 139
f 119 139 140
f 119 140 141
f 119 141 142
f 119 142 143
f 119 143 144
f 119 144 137
f 119 137 136
f 119 136 135
f 119 122 145
f 119 145 146
f 119 146 147
f 119 147 148
f 119 148 149
f 119 149 138
f 123 137 124
f 124 150 151
f 124 151 152
f 124 152 153
f 124 153 125
f 124 137 154
f 124 154 155
f 124 155 150
f 125 153 156
f 125 156 126
f 126 128 127
f 132 157 158
f 132 158 133
f 132 159 157
f 133 158 134
f 134 158 157
f 134 157 160
f 137 144 143
f 137 143 154
f 138 149 139
f 139 149 161
f 139 161 140
f 140 162 163
f 140 163 164
f 140 164 165
f 140 165 166
f 140 166 141
f 140 161 162
f 141 166 167
f 141 167 168
f 141 168 169
f 141 169 142
f 142 169 143
f 143 169 168
f 143 168 170
f 143 170 154
f 150 155 171
f 152 172 153
f 153 172 156
f 154 173 155
f 154 170 174
f 154 174 175
f 154 175 176
f 154 176 177
f 154 177 173
f 155 173 171
f 157 159 160
f 159 178 179
f 159 179 160
f 161 180 181
f 161 181 162
f 162 181 182
f 162 182 163
f 163 182 183
f 163 183 164
f 164 184 165
f 165 184 166
f 166 184 167
f 167 174 170
f 167 170 168
f 171 173 185
f 173 177 176
f 173 176 185
f 178 186 187
f 178 187 179
f 180 188 189
f 180 189 181
f 181 190 191
f 181 191 192
f 181 192 193
f 181 193 182
f 181 189 190
f 182 193 183
f 186 194 195
f 186 195 187
f 188 196 189
f 189 197 190
f 189 196 197
f 194 198 195
f 195 198 199
f 196 200 197
f 197 200 201
f 198 201 199
f 199 201 200

