# https://github.com/mikedh/trimesh
v -0.17398745 0.04556328 0.01920086
v -0.12427877 0.14668214 0.01705274
v -0.14571503 0.11307932 0.01695046
v -0.17100883 0.11315693 -0.00739472
v -0.18424168 0.13372216 -0.03276281
v -0.19688860 -0.01760691 0.01920086
v 0.16816252 -0.01652044 0.01920086
v -0.10005922 0.17376617 0.01700160
v -0.12779450 0.18695895 -0.00683212
v -0.15323481 0.15521866 -0.01051459
v -0.20426188 0.11889967 -0.05593166
v -0.16348904 0.20418718 -0.04795298
v -0.18565775 0.16810103 -0.05347668
v -0.21881314 0.12549607 -0.08743720
v -0.21300240 -0.09396988 0.01920086
v 0.18574123 0.03881168 -0.01470850
v 0.16625817 0.01824644 0.01679704
v 0.14369883 0.10462042 0.01695046
v 0.16996923 -0.05796132 0.01920086
v 0.00941705 0.22180344 0.01434204
v -0.03575046 0.22335553 0.01076189
v -0.08624040 0.20022935 0.00861377
v -0.11192485 0.21877687 -0.01506652
v -0.12921058 0.23453061 -0.03552467
v -0.21222113 0.16856664 -0.09526242
v -0.18639019 0.21497424 -0.08089058
v -0.16475862 0.24702495 -0.07516231
v -0.22770016 0.16173744 -0.12671682
v -0.21598102 -0.15465672 0.01920086
v -0.23312025 0.11013035 -0.12047709
v -0.23819855 0.14249149 -0.15095970
v 0.19970654 0.06085140 -0.04161096
v 0.20825174 0.08855626 -0.06043245
v 0.19443293 0.12208147 -0.04595831
v 0.17582880 0.08793542 -0.01138406
v 0.16039860 0.06170505 0.01357487
v 0.17206891 0.15001914 -0.02867119
v 0.15253702 0.18983033 -0.02749485
v 0.14155032 0.14652693 0.00094198
v 0.09140218 0.19052877 0.01147792
v 0.01171205 -0.32732707 0.01920086
v 0.10605110 -0.25243860 0.01730847
v 0.16611168 -0.11942421 0.01158020
v 0.17856327 -0.09536676 -0.01342987
v 0.20551728 -0.02125432 -0.06247826
v 0.20004834 0.00901149 -0.04048575
v 0.05248488 0.21660393 0.01158020
v 0.04852967 0.26363236 -0.01424819
v 0.00682907 0.26766777 -0.01184437
v -0.02852366 0.27162564 -0.01670317
v -0.07222627 0.27170324 -0.02785286
v -0.07447243 0.23422019 -0.00632067
v -0.10445390 0.25998491 -0.03562695
v -0.12081186 0.27705795 -0.05680113
v -0.13751163 0.29475182 -0.08334556
v -0.19390997 0.24454160 -0.11060603
v -0.21446730 0.20729138 -0.12226717
v -0.16427033 0.28512883 -0.10303652
v -0.22857909 0.18944231 -0.14446425
v -0.21012145 -0.20292680 0.01920086
v -0.24200727 0.09383337 -0.15883610
v -0.24200727 0.05510865 -0.17965224
v -0.24410695 0.14714777 -0.18241410
v -0.23751493 0.20069498 -0.18445991
v 0.22368194 0.06752539 -0.09444410
v 0.22734417 0.15250249 -0.11659004
v 0.21381833 0.12945390 -0.08099288
v 0.19755803 0.17050678 -0.06912716
v 0.19536069 0.21536225 -0.08667001
v 0.16586752 0.22428679 -0.05731258
v 0.14892361 0.25982970 -0.06293857
v 0.11903981 0.21396537 -0.01501538
v 0.08920484 0.24787861 -0.01793066
v -0.01753696 -0.33702767 0.01920086
v 0.02924193 -0.26376885 -0.10794647
v 0.03612692 -0.28262681 -0.06114848
v 0.04804137 -0.30396807 0.00886950
v 0.07880411 -0.28208357 0.01679704
v 0.10307249 -0.24545415 -0.03705902
v 0.12568066 -0.22100870 -0.03102387
v 0.12802449 -0.22007744 0.01183593
v 0.16503742 -0.14813793 -0.01956731
v 0.17841677 -0.11500074 -0.03731474
v 0.14843531 -0.18290481 -0.00453058
v 0.19184496 -0.06967963 -0.04529342
v 0.21728525 -0.01527876 -0.11219154
v 0.22695354 0.02515326 -0.11863586
v 0.21582036 0.01622872 -0.07966310
v 0.06903816 0.29382056 -0.03961629
v 0.03475969 0.30786699 -0.04099722
v -0.00069070 0.32028377 -0.04795298
v -0.03140461 0.31166965 -0.04427052
v -0.06177671 0.29739037 -0.04166210
v -0.08140626 0.31857646 -0.06595615
v -0.11749144 0.31795561 -0.08641428
v -0.14024609 0.32051659 -0.10779303
v -0.17281553 0.31019515 -0.13725275
v -0.20318763 0.26239067 -0.14292988
v -0.22750483 0.22793421 -0.17111099
v -0.19718157 -0.23932339 0.01787108
v -0.16568638 -0.29062009 0.01920086
v -0.24230024 0.06899989 -0.21995479
v -0.23282728 0.01646154 -0.21407306
v -0.22066867 -0.03173095 -0.20271879
v -0.24674375 0.10741419 -0.20941885
v -0.24767151 0.14707017 -0.22425100
v -0.24439992 0.18742459 -0.21632347
v -0.23722196 0.22917588 -0.22128457
v 0.23432682 0.05130602 -0.13628100
v 0.23598704 0.09367816 -0.13178021
v 0.23125055 0.18517405 -0.13801995
v 0.21635748 0.21101640 -0.11904501
v 0.24350682 0.11928770 -0.16021702
v 0.21450195 0.23965251 -0.13490006
v 0.19238208 0.27566105 -0.12313664
v 0.18359272 0.25734639 -0.09797314
v 0.16347487 0.29211324 -0.10022353
v 0.13407937 0.28900906 -0.07076381
v 0.10834610 0.27666992 -0.04508884
v -0.09747124 -0.33500993 0.01920086
v -0.05137597 -0.34114069 0.01914972
v -0.01758579 -0.28223878 -0.08953415
v 0.02098970 -0.23955621 -0.15607426
v 0.03939851 -0.21394669 -0.18896070
v 0.06884284 -0.22186236 -0.15489790
v 0.06879401 -0.24397968 -0.11387934
v 0.07460475 -0.25996625 -0.06590500
v 0.11054344 -0.22519936 -0.08349900
v 0.13705799 -0.19330384 -0.08938071
v 0.14189214 -0.19454551 -0.05501103
v 0.16508625 -0.15357025 -0.05940954
v 0.17895390 -0.12431329 -0.07628751
v 0.20122026 -0.06649783 -0.09475097
v 0.22548863 -0.00317244 -0.15929639
v 0.23823319 0.05021956 -0.16870715
v 0.07958538 0.33704633 -0.07685010
v 0.03964266 0.33743435 -0.06518896
v -0.03003738 0.33673590 -0.06385918
v -0.00156964 0.35365373 -0.07506001
v -0.05718671 0.34480679 -0.07797530
v -0.09395550 0.34139222 -0.09137538
v -0.11895633 0.34612608 -0.11362360
v -0.14761938 0.34628129 -0.14211157
v -0.17667308 0.33246768 -0.16916746
v -0.20582443 0.28629291 -0.17238961
v -0.22120580 0.26619330 -0.19315462
v -0.20030667 -0.05734049 -0.23115562
v -0.17965169 -0.09257300 -0.22987698
v -0.15968034 -0.27222776 -0.01731692
v -0.13096844 -0.31948900 0.01914972
v -0.24571833 0.10989754 -0.24373737
v -0.23878451 0.09911049 -0.27989712
v -0.23482929 0.05836805 -0.25897869
v -0.22394027 0.02018656 -0.25851837
v -0.22213356 -0.00806154 -0.23018385
v -0.24518120 0.14101700 -0.26557642
v -0.24674375 0.16988593 -0.24747097
v -0.24356982 0.19743559 -0.27181616
v -0.23077643 0.26347715 -0.24123125
v -0.23707546 0.23569468 -0.28572771
v 0.24565531 0.09367816 -0.18256754
v 0.24301851 0.18315633 -0.17806675
v 0.23315491 0.22832224 -0.17136671
v 0.24843861 0.13643833 -0.19187599
v 0.21220694 0.28318870 -0.16763309
v 0.18417868 0.30848783 -0.14175355
v 0.14931425 0.34263390 -0.13203594
v 0.12045588 0.30662531 -0.07398596
v -0.11920048 -0.28961122 -0.03951401
v -0.08545913 -0.26330322 -0.10579836
v -0.07442361 -0.28456688 -0.07700354
v -0.05288969 -0.27044284 -0.10809991
v -0.01782994 -0.25212818 -0.14318562
v -0.01114027 -0.22946762 -0.17878279
v -0.00078836 -0.20641901 -0.21105549
v 0.01493481 -0.17281620 -0.25365958
v 0.05077584 -0.16777191 -0.24777785
v 0.05341265 -0.19508873 -0.20952113
v 0.08617740 -0.19462311 -0.18517596
v 0.10566046 -0.20005544 -0.15152231
v 0.09462494 -0.22473373 -0.11868700
v 0.12382513 -0.19555436 -0.12640995
v 0.15512499 -0.16334844 -0.10804877
v 0.15712701 -0.14837074 -0.14415738
v 0.17265487 -0.13471232 -0.11035031
v 0.18754794 -0.10460173 -0.10799763
v 0.21186514 -0.03956902 -0.18256754
v 0.21982439 -0.01558919 -0.20133787
v 0.23046927 0.01615112 -0.20087758
v 0.24096766 0.06046337 -0.21693721
v 0.11469396 0.34434116 -0.10278079
v 0.08095261 0.38880867 -0.13101304
v 0.05536583 0.37010592 -0.09894489
v -0.03369961 0.36777776 -0.09255172
v 0.03016969 0.39819884 -0.12426184
v -0.00723389 0.38454038 -0.10600296
v -0.07803701 0.36917466 -0.11040145
v -0.07955073 0.39447379 -0.14078179
v -0.11983526 0.37561584 -0.14855587
v -0.13018717 0.39517224 -0.18921643
v -0.15557863 0.36591530 -0.18062401
v -0.19898827 0.33192444 -0.22844492
v -0.20641039 0.30910867 -0.20686157
v -0.16153586 0.37786639 -0.21678378
v -0.22081517 0.29389817 -0.24997710
v -0.20348060 -0.01783972 -0.27166274
v -0.15767831 -0.07619841 -0.28455135
v -0.15562746 -0.10173035 -0.25642142
v -0.14957258 -0.18763870 -0.15182918
v -0.17764968 -0.00550058 -0.32986614
v -0.15020736 -0.25515473 -0.05542020
v -0.14835183 -0.21518834 -0.11541370
v -0.12203261 -0.26601940 -0.07219587
v -0.22804196 0.07536346 -0.29938352
v -0.23644067 0.13535187 -0.30552095
v -0.22726068 0.14404358 -0.33753794
v -0.21290474 0.05751440 -0.32296151
v -0.20387124 0.01064119 -0.29994610
v -0.23902865 0.16841143 -0.30485606
v -0.23409685 0.20876586 -0.31979051
v -0.22467270 0.28179184 -0.29104683
v -0.22638175 0.25237966 -0.32741117
v 0.24868277 0.10811263 -0.22302350
v 0.24423926 0.21155962 -0.20164475
v 0.23593821 0.24655932 -0.20092872
v 0.22329131 0.28086060 -0.19929206
v 0.25068480 0.15583949 -0.21888073
v 0.20107377 0.31694674 -0.18625000
v 0.17407092 0.34139222 -0.16425750
v 0.15068148 0.37561584 -0.17970340
v 0.12846395 0.36506164 -0.13653672
v -0.10362379 -0.24149631 -0.12671682
v -0.06651319 -0.23497753 -0.15924525
v -0.05308501 -0.25476670 -0.13428633
v -0.03780131 -0.21410190 -0.19837144
v -0.01118910 -0.18608660 -0.23841825
v -0.00347400 -0.13331544 -0.30444691
v 0.01698566 -0.15380307 -0.27728873
v 0.02494491 -0.13494514 -0.29989496
v 0.06640135 -0.13704047 -0.28189179
v 0.08954665 -0.14192955 -0.25933671
v 0.08988846 -0.17056566 -0.21816470
v 0.12099300 -0.14309363 -0.22547849
v 0.11601236 -0.17250578 -0.18543167
v 0.13549544 -0.17017765 -0.15530707
v 0.16279125 -0.12803832 -0.17213389
v 0.17885624 -0.09676366 -0.19136453
v 0.18945229 -0.09420270 -0.14584517
v 0.20141558 -0.06455772 -0.16804226
v 0.20693333 -0.03871537 -0.21657920
v 0.21464844 -0.01333865 -0.23514496
v 0.22929735 0.02942151 -0.24511829
v 0.23247129 0.05262530 -0.26486039
v 0.24658309 0.11121681 -0.25442675
v 0.09428313 0.40176862 -0.15822235
v 0.06957529 0.42039376 -0.17177588
v 0.05009222 0.41294372 -0.14942536
v -0.04175651 0.39501703 -0.12456872
v 0.00551067 0.42520523 -0.15970556
v -0.01397239 0.41170204 -0.14016804
v -0.10005922 0.40820980 -0.17678812
v -0.05044821 0.42233384 -0.16584301
v -0.11988410 0.41542703 -0.21468681
v -0.14107619 0.40595931 -0.23708847
v -0.18575542 0.36048293 -0.26690620
v -0.20558028 0.32905304 -0.27846506
v -0.16099873 0.38973993 -0.25391531
v -0.16051044 -0.04833835 -0.31053320
v -0.12916175 -0.10421370 -0.28409106
v -0.14625216 -0.13385867 -0.22859836
v -0.14102738 -0.15628642 -0.20522493
v -0.11968877 -0.18996683 -0.18512480
v -0.13687684 -0.02071109 -0.36116707
v -0.18736678 0.03345696 -0.34807387
v -0.17071585 0.04882267 -0.38080692
v -0.15826426 0.02709337 -0.37881225
v -0.11636835 -0.21829252 -0.14840245
v -0.21866666 0.09647194 -0.33492953
v -0.20479901 0.10353395 -0.36597475
v -0.22765133 0.17927609 -0.34357309
v -0.21183048 0.16748019 -0.37523204
v -0.18702498 0.06364516 -0.36914575
v -0.21539506 0.20985232 -0.37052667
v -0.20841241 0.31896448 -0.30802709
v -0.21388134 0.29141480 -0.33298600
v -0.21041442 0.24663693 -0.37252134
v 0.25117308 0.16918749 -0.24885191
v 0.24936637 0.20162623 -0.24051522
v 0.24174894 0.24035096 -0.23253654
v 0.23252012 0.27666992 -0.25130689
v 0.21972673 0.30546123 -0.23136020
v 0.19794866 0.34604847 -0.23637244
v 0.18554591 0.34713495 -0.19647907
v 0.16703944 0.38391954 -0.23161593
v 0.13818108 0.40386397 -0.21673262
v 0.11288726 0.41053796 -0.19121110
v -0.10132879 -0.18073188 -0.21366391
v -0.07383765 -0.20284919 -0.20103100
v -0.06392521 -0.17522195 -0.24138469
v -0.03228354 -0.15620881 -0.27386197
v -0.03262535 -0.09893657 -0.34106696
v 0.00311801 -0.09513395 -0.34740898
v 0.03759181 -0.10661943 -0.33012187
v 0.07865762 -0.11360386 -0.30506063
v 0.11874683 -0.11500074 -0.27063984
v 0.14238043 -0.10871476 -0.24936336
v 0.13998777 -0.15007804 -0.18527824
v 0.15922669 -0.11251739 -0.21315245
v 0.18891516 -0.06781711 -0.22164258
v 0.19340751 -0.04212998 -0.25401759
v 0.21225578 -0.00068909 -0.26368406
v 0.21640630 0.03725958 -0.29805374
v 0.22949268 0.07660514 -0.29943466
v 0.23227598 0.11059598 -0.31871647
v 0.24467872 0.13752478 -0.28884757
v 0.07421412 0.43149120 -0.20466232
v 0.03197639 0.43451780 -0.18149349
v -0.01992962 0.44150221 -0.19029048
v -0.05884692 0.44033813 -0.20435545
v -0.07989254 0.44367516 -0.24020834
v -0.11363389 0.42745578 -0.24931221
v -0.13082196 0.41666871 -0.27416885
v -0.19102903 0.34961832 -0.31043091
v -0.16339140 0.38438517 -0.30357742
v -0.12222792 -0.11174135 -0.28209639
v -0.11109474 -0.07984583 -0.32577449
v -0.11827271 -0.13626441 -0.25550079
v -0.13809758 0.03958772 -0.40520322
v -0.11119240 -0.00325004 -0.39446270
v -0.10294017 -0.05423630 -0.35656402
v -0.18053062 0.09639433 -0.39640623
v -0.15972915 0.07544107 -0.40822083
v -0.19615614 0.14148262 -0.39333752
v -0.19425179 0.20636012 -0.40566355
v -0.19224976 0.31896448 -0.36351979
v -0.18458350 0.28443038 -0.40443605
v -0.17955403 0.24260148 -0.42361557
v 0.24838978 0.19169284 -0.27452686
v 0.24145596 0.24345514 -0.27150929
v 0.23261778 0.27131522 -0.29022849
v 0.21684578 0.31857646 -0.27324823
v 0.17353380 0.38415235 -0.28470480
v 0.15282999 0.40091497 -0.25570539
v 0.11313141 0.42264426 -0.23652588
v -0.10850676 -0.12190756 -0.28112462
v -0.07867180 -0.13502274 -0.28398877
v -0.05137597 -0.11833774 -0.31518742
v -0.06871053 -0.09800532 -0.33119592
v -0.06050713 -0.07224058 -0.36014420
v -0.02852366 -0.06610981 -0.37344199
v 0.00653610 -0.06137593 -0.37983513
v 0.03085331 -0.07674165 -0.36300832
v 0.06410636 -0.07751769 -0.35206321
v 0.09608983 -0.08046667 -0.33221883
v 0.13383523 -0.08295003 -0.29657051
v 0.14941190 -0.04934721 -0.31927904
v 0.17636593 -0.04143153 -0.28971705
v 0.19433527 -0.00208598 -0.30444691
v 0.20507781 0.04191586 -0.32689971
v 0.21528323 0.08413279 -0.34116927
v 0.21601567 0.11734758 -0.35830295
v 0.23164119 0.16049576 -0.33886772
v 0.24126065 0.20193665 -0.30833393
v 0.06151838 0.44064856 -0.25146031
v 0.01532545 0.44592565 -0.20972571
v -0.03374844 0.45096999 -0.22803575
v -0.04156119 0.45166844 -0.27554977
v -0.07598616 0.44507200 -0.27038410
v -0.10215890 0.43195683 -0.29002392
v -0.12281388 0.41426295 -0.31073779
v -0.17237607 0.36118138 -0.34301049
v -0.13961130 0.39338732 -0.33462265
v -0.09429731 -0.10786112 -0.30725989
v -0.10308667 0.03997575 -0.42908812
v -0.12261856 0.08079579 -0.43998206
v -0.08008786 0.00994275 -0.42003536
v -0.06802692 -0.02971323 -0.39476958
v -0.15704352 0.11509705 -0.42816749
v -0.17257138 0.19929810 -0.43200338
v -0.16617468 0.33347654 -0.39410469
v -0.15386958 0.28109339 -0.44228363
v -0.14805885 0.23321132 -0.45486537
v 0.22490267 0.26495165 -0.33498067
v 0.21850599 0.30305552 -0.31257901
v 0.19780217 0.34690213 -0.30818051
v 0.13188203 0.39819884 -0.33820283
v 0.12113949 0.41829842 -0.28552312
v 0.16332838 0.36971790 -0.34909678
v -0.02647281 -0.02164235 -0.41190326
v 0.01371407 -0.01023446 -0.42116058
v 0.04008213 -0.02831635 -0.40418035
v 0.03832426 -0.05198576 -0.38454050
v 0.08061080 -0.04632062 -0.37472060
v 0.12372746 -0.02265121 -0.36981064
v 0.12714554 -0.04802793 -0.34275478
v 0.15741998 -0.02482414 -0.33549213
v 0.17328966 0.00342396 -0.34249905
v 0.19780217 0.06411079 -0.35835409
v 0.19609314 0.09274691 -0.37835193
v 0.20693333 0.13729197 -0.38003972
v 0.21235344 0.17601669 -0.38060230
v 0.22973682 0.20053977 -0.34638608
v 0.22963917 0.23406498 -0.33774251
v 0.05565881 0.43925166 -0.29027963
v 0.01010067 0.45112520 -0.24440226
v 0.00116483 0.44996113 -0.28414220
v -0.04092641 0.43932927 -0.32383099
v -0.07041957 0.44181263 -0.30178735
v -0.08873072 0.42427397 -0.33160508
v -0.10792081 0.39819884 -0.36612818
v -0.13775578 0.36824340 -0.38418251
v -0.07706042 0.04719298 -0.44560805
v -0.14571503 0.14156023 -0.44611952
v -0.10943453 0.13162684 -0.46662879
v -0.08301764 0.08327914 -0.46079820
v -0.05528235 0.01995375 -0.43558356
v -0.13028483 0.17345574 -0.46371353
v -0.13565610 0.33231246 -0.42647970
v -0.11641718 0.28699136 -0.46294633
v -0.10972751 0.24050616 -0.47742045
v -0.11026464 0.20992993 -0.47900596
v 0.20341760 0.25680315 -0.38505197
v 0.21210930 0.28807783 -0.35119376
v 0.18627836 0.34294432 -0.34776700
v 0.10673472 0.38523883 -0.38413134
v 0.08568910 0.40487283 -0.36812288
v 0.09311122 0.42132503 -0.32337070
v 0.16664881 0.34798861 -0.37103814
v 0.13495831 0.35869807 -0.39180315
v -0.02476376 0.01506465 -0.43860114
v 0.01376290 0.02375637 -0.44535232
v 0.04496510 0.00870107 -0.43098050
v 0.07260273 -0.02552258 -0.39630395
v 0.11357088 0.00117342 -0.39615050
v 0.13476299 0.02895589 -0.40259480
v 0.14096436 0.00590730 -0.37942597
v 0.16977391 0.04680496 -0.38208553
v 0.16674647 0.08739219 -0.40965289
v 0.18583889 0.15296811 -0.41323304
v 0.18115124 0.18494123 -0.42376900
v 0.21186514 0.21481903 -0.38126719
v 0.01552077 0.43855321 -0.32541651
v 0.06376455 0.42970628 -0.32413787
v -0.01485133 0.42644691 -0.35993960
v -0.04390502 0.40883064 -0.38546112
v -0.07496074 0.41449577 -0.36167854
v -0.08008786 0.38477319 -0.40392458
v -0.03443205 0.06597330 -0.46606618
v -0.06978478 0.10896628 -0.47573268
v -0.08506849 0.16507444 -0.48524570
v -0.09224647 0.33906406 -0.44397140
v -0.07769520 0.28062779 -0.47828993
v -0.07486308 0.22009614 -0.49163887
v -0.06119075 0.18990794 -0.49613965
v 0.18203017 0.22762379 -0.42223465
v 0.17480338 0.26999593 -0.41906363
v 0.19457941 0.29832163 -0.37594810
v 0.05722136 0.38834304 -0.40653300
v 0.09667579 0.35706836 -0.42100716
v 0.02846065 0.42101461 -0.36546329
v 0.17065284 0.30848783 -0.39988410
v 0.12812214 0.31384254 -0.43594158
v 0.00907524 0.06054098 -0.46632192
v 0.04769956 0.03043037 -0.44499433
v 0.07558134 0.00629533 -0.41967738
v 0.10063100 0.02841265 -0.42417815
v 0.13241915 0.06907749 -0.42913926
v 0.15195106 0.05650553 -0.40714675
v 0.15893371 0.11564028 -0.42832094
v 0.14169681 0.14970872 -0.45338213
v 0.14824000 0.18889907 -0.45558140
v 0.00658493 0.40394157 -0.39768487
v -0.01529080 0.38733417 -0.41804069
v -0.04976459 0.38516122 -0.41594374
v -0.02852366 0.10834544 -0.48483652
v 0.00375280 0.08987553 -0.47967085
v -0.03272301 0.14714777 -0.49491218
v -0.05108299 0.35807723 -0.44100499
v -0.04908098 0.31073838 -0.47112960
v -0.04639534 0.26580527 -0.48908162
v -0.02613100 0.21675915 -0.50171447
v -0.03203940 0.18028495 -0.50140762
v 0.12377629 0.22824463 -0.47358456
v 0.14570084 0.26665893 -0.44821647
v 0.15424605 0.29226846 -0.42852551
v 0.06024881 0.36149180 -0.43374234
v 0.02431012 0.38197947 -0.42259264
v 0.09047441 0.32090455 -0.45389360
v 0.10702769 0.28722417 -0.46647537
v 0.04188883 0.07179365 -0.46811199
v 0.07909708 0.04641693 -0.44468743
v 0.08368708 0.08289112 -0.46115625
v 0.11410801 0.11455382 -0.45987761
v 0.12113949 0.17469743 -0.47245938
v -0.01294697 0.34465158 -0.45527452
v 0.00985652 0.11936530 -0.49030909
v 0.01244449 0.17004114 -0.50197023
v 0.01058896 0.31469619 -0.47378916
v -0.00943123 0.29009554 -0.48478538
v -0.01206803 0.25664794 -0.49588394
v 0.02006193 0.22327793 -0.50330001
v 0.07997602 0.23491862 -0.49348012
v 0.08227102 0.26720217 -0.48509228
v 0.08437070 0.19953091 -0.49322438
v 0.05087350 0.32478482 -0.46371353
v 0.02455427 0.34969592 -0.45056915
v 0.07602081 0.29971850 -0.47225478
v 0.03861723 0.13907689 -0.49358240
v 0.05995583 0.11882207 -0.48263729
v 0.10097281 0.14924309 -0.47706246
v 0.05165477 0.19192564 -0.50048697
v 0.03178107 0.26953030 -0.49296865
f 1 2 3
f 1 3 4
f 1 4 5
f 1 5 6
f 1 6 15
f 1 15 29
f 1 29 60
f 1 60 101
f 1 101 120
f 1 120 74
f 1 74 41
f 1 41 19
f 1 19 7
f 1 7 8
f 1 8 2
f 2 8 9
f 2 9 10
f 2 10 3
f 3 10 4
f 4 10 5
f 5 11 6
f 5 10 12
f 5 12 13
f 5 13 11
f 6 11 14
f 6 14 15
f 7 16 17
f 7 17 18
f 7 18 8
f 7 19 16
f 8 20 21
f 8 21 22
f 8 22 23
f 8 23 9
f 8 18 20
f 9 23 24
f 9 24 10
f 10 24 12
f 11 13 25
f 11 25 14
f 12 26 13
f 12 24 27
f 12 27 26
f 13 26 25
f 14 25 28
f 14 28 15
f 15 28 30
f 15 30 31
f 15 31 29
f 16 32 33
f 16 33 34
f 16 34 35
f 16 35 17
f 16 19 32
f 17 35 36
f 17 36 18
f 18 36 35
f 18 35 37
f 18 37 38
f 18 38 39
f 18 39 40
f 18 40 20
f 19 41 42
f 19 42 43
f 19 43 44
f 19 44 45
f 19 45 46
f 19 46 32
f 20 40 47
f 20 47 48
f 20 48 49
f 20 49 21
f 21 49 50
f 21 50 51
f 21 51 52
f 21 52 22
f 22 52 53
f 22 53 23
f 23 53 24
f 24 53 54
f 24 54 55
f 24 55 27
f 25 26 56
f 25 56 57
f 25 57 28
f 26 27 56
f 27 55 58
f 27 58 56
f 28 57 59
f 28 59 31
f 28 31 30
f 29 31 61
f 29 61 62
f 29 62 60
f 31 63 61
f 31 59 64
f 31 64 63
f 32 46 33
f 33 65 66
f 33 66 67
f 33 67 34
f 33 46 65
f 34 67 68
f 34 68 37
f 34 37 35
f 37 68 69
f 37 69 70
f 37 70 38
f 38 70 71
f 38 71 72
f 38 72 39
f 39 72 40
f 40 72 73
f 40 73 47
f 41 74 75
f 41 75 76
f 41 76 77
f 41 77 78
f 41 78 42
f 42 78 79
f 42 79 80
f 42 80 81
f 42 81 43
f 43 82 83
f 43 83 44
f 43 81 84
f 43 84 82
f 44 83 85
f 44 85 45
f 45 86 87
f 45 87 88
f 45 88 46
f 45 85 86
f 46 88 65
f 47 73 48
f 48 73 89
f 48 89 90
f 48 90 49
f 49 90 91
f 49 91 50
f 50 91 92
f 50 92 93
f 50 93 51
f 51 53 52
f 51 93 94
f 51 94 53
f 53 94 54
f 54 94 95
f 54 95 55
f 55 95 96
f 55 96 58
f 56 58 97
f 56 97 98
f 56 98 57
f 57 98 99
f 57 99 59
f 58 96 97
f 59 99 64
f 60 100 101
f 60 62 102
f 60 102 103
f 60 103 104
f 60 104 100
f 61 63 105
f 61 105 62
f 62 105 102
f 63 106 105
f 63 64 107
f 63 107 106
f 64 99 108
f 64 108 107
f 65 88 109
f 65 109 110
f 65 110 66
f 66 111 112
f 66 112 67
f 66 110 113
f 66 113 111
f 67 112 68
f 68 112 69
f 69 112 114
f 69 114 115
f 69 115 116
f 69 116 70
f 70 116 71
f 71 116 117
f 71 117 118
f 71 118 119
f 71 119 72
f 72 119 73
f 73 119 89
f 74 120 121
f 74 121 122
f 74 122 75
f 75 122 123
f 75 123 124
f 75 124 125
f 75 125 126
f 75 126 76
f 76 126 127
f 76 127 77
f 77 127 78
f 78 127 128
f 78 128 79
f 79 128 129
f 79 129 80
f 80 129 130
f 80 130 81
f 81 130 131
f 81 131 84
f 82 132 133
f 82 133 83
f 82 84 131
f 82 131 132
f 83 133 85
f 85 133 86
f 86 134 87
f 86 133 134
f 87 135 109
f 87 109 88
f 87 134 135
f 89 119 136
f 89 136 137
f 89 137 90
f 90 137 91
f 91 138 92
f 91 137 139
f 91 139 138
f 92 138 140
f 92 140 93
f 93 140 94
f 94 140 141
f 94 141 95
f 95 141 142
f 95 142 96
f 96 142 143
f 96 143 97
f 97 143 144
f 97 144 145
f 97 145 98
f 98 145 99
f 99 145 146
f 99 146 108
f 100 104 147
f 100 147 148
f 100 148 101
f 101 149 150
f 101 150 120
f 101 148 149
f 102 105 151
f 102 151 152
f 102 152 153
f 102 153 103
f 103 153 154
f 103 154 155
f 103 155 104
f 104 155 147
f 105 106 151
f 106 156 151
f 106 107 157
f 106 157 156
f 107 108 158
f 107 158 157
f 108 146 159
f 108 159 160
f 108 160 158
f 109 135 161
f 109 161 113
f 109 113 110
f 111 113 162
f 111 162 163
f 111 163 112
f 112 163 114
f 113 161 164
f 113 164 162
f 114 163 165
f 114 165 115
f 115 165 166
f 115 166 117
f 115 117 116
f 117 166 167
f 117 167 118
f 118 167 168
f 118 168 119
f 119 168 136
f 120 150 169
f 120 169 170
f 120 170 171
f 120 171 172
f 120 172 121
f 121 172 122
f 122 172 173
f 122 173 123
f 123 173 174
f 123 174 175
f 123 175 124
f 124 175 176
f 124 176 177
f 124 177 178
f 124 178 125
f 125 178 179
f 125 179 126
f 126 179 180
f 126 180 181
f 126 181 127
f 127 181 128
f 128 181 182
f 128 182 129
f 129 183 130
f 129 182 184
f 129 184 183
f 130 183 185
f 130 185 131
f 131 185 132
f 132 185 186
f 132 186 133
f 133 186 134
f 134 186 187
f 134 187 188
f 134 188 189
f 134 189 135
f 135 190 161
f 135 189 190
f 136 168 191
f 136 191 192
f 136 192 193
f 136 193 137
f 137 193 139
f 138 139 194
f 138 194 140
f 139 193 195
f 139 195 196
f 139 196 194
f 140 194 197
f 140 197 141
f 141 197 142
f 142 197 198
f 142 198 199
f 142 199 143
f 143 199 200
f 143 200 201
f 143 201 144
f 144 202 203
f 144 203 145
f 144 201 204
f 144 204 202
f 145 203 146
f 146 203 205
f 146 205 159
f 147 155 206
f 147 206 148
f 148 207 208
f 148 208 209
f 148 209 149
f 148 206 210
f 148 210 207
f 149 211 150
f 149 209 212
f 149 212 211
f 150 211 213
f 150 213 169
f 151 156 152
f 152 214 153
f 152 156 215
f 152 215 216
f 152 216 214
f 153 214 154
f 154 214 217
f 154 217 218
f 154 218 206
f 154 206 155
f 156 157 158
f 156 158 219
f 156 219 215
f 158 220 219
f 158 160 220
f 159 205 221
f 159 221 160
f 160 221 222
f 160 222 220
f 161 223 164
f 161 190 223
f 162 224 163
f 162 164 224
f 163 225 226
f 163 226 165
f 163 224 225
f 164 223 227
f 164 227 224
f 165 226 228
f 165 228 166
f 166 228 229
f 166 229 167
f 167 229 230
f 167 230 231
f 167 231 191
f 167 191 168
f 169 213 232
f 169 232 170
f 170 232 233
f 170 233 234
f 170 234 171
f 171 234 172
f 172 234 173
f 173 234 174
f 174 234 235
f 174 235 236
f 174 236 175
f 175 236 176
f 176 236 237
f 176 237 238
f 176 238 239
f 176 239 177
f 177 239 240
f 177 240 178
f 178 240 241
f 178 241 242
f 178 242 179
f 179 242 243
f 179 243 244
f 179 244 180
f 180 244 245
f 180 245 182
f 180 182 181
f 182 245 184
f 183 184 185
f 184 246 247
f 184 247 185
f 184 245 246
f 185 247 248
f 185 248 186
f 186 248 187
f 187 248 249
f 187 249 250
f 187 250 188
f 188 251 252
f 188 252 189
f 188 250 251
f 189 252 190
f 190 252 253
f 190 253 254
f 190 254 223
f 191 231 192
f 192 255 256
f 192 256 257
f 192 257 193
f 192 231 255
f 193 257 195
f 194 196 258
f 194 258 197
f 195 257 259
f 195 259 260
f 195 260 196
f 196 260 258
f 197 258 198
f 198 261 199
f 198 258 262
f 198 262 261
f 199 261 200
f 200 261 263
f 200 263 264
f 200 264 204
f 200 204 201
f 202 265 266
f 202 266 205
f 202 205 203
f 202 204 267
f 202 267 265
f 204 264 267
f 205 266 221
f 206 218 210
f 207 210 268
f 207 268 269
f 207 269 208
f 208 269 270
f 208 270 209
f 209 271 272
f 209 272 212
f 209 270 271
f 210 273 268
f 210 218 274
f 210 274 275
f 210 275 276
f 210 276 273
f 211 212 277
f 211 277 213
f 212 272 277
f 213 277 232
f 214 216 278
f 214 278 217
f 215 219 216
f 216 279 278
f 216 219 280
f 216 280 281
f 216 281 279
f 217 282 274
f 217 274 218
f 217 278 279
f 217 279 282
f 219 220 280
f 220 283 280
f 220 222 283
f 221 266 284
f 221 284 285
f 221 285 222
f 222 286 283
f 222 285 286
f 223 254 287
f 223 287 227
f 224 227 288
f 224 288 289
f 224 289 225
f 225 289 290
f 225 290 291
f 225 291 226
f 226 291 228
f 227 287 288
f 228 291 292
f 228 292 293
f 228 293 229
f 229 293 230
f 230 293 294
f 230 294 295
f 230 295 296
f 230 296 231
f 231 296 255
f 232 277 297
f 232 297 298
f 232 298 233
f 233 298 235
f 233 235 234
f 235 298 299
f 235 299 300
f 235 300 236
f 236 300 237
f 237 301 302
f 237 302 239
f 237 239 238
f 237 300 301
f 239 302 303
f 239 303 240
f 240 303 304
f 240 304 241
f 241 304 305
f 241 305 242
f 242 305 243
f 243 305 306
f 243 306 244
f 244 306 307
f 244 307 245
f 245 307 246
f 246 307 308
f 246 308 247
f 247 308 309
f 247 309 250
f 247 250 248
f 248 250 249
f 250 309 310
f 250 310 251
f 251 311 252
f 251 310 311
f 252 311 253
f 253 311 312
f 253 312 313
f 253 313 314
f 253 314 315
f 253 315 254
f 254 315 287
f 255 296 256
f 256 316 317
f 256 317 257
f 256 296 316
f 257 317 259
f 258 260 262
f 259 317 318
f 259 318 260
f 260 318 262
f 261 262 319
f 261 319 263
f 262 318 319
f 263 319 320
f 263 320 321
f 263 321 264
f 264 321 322
f 264 322 267
f 265 323 266
f 265 267 324
f 265 324 323
f 266 323 284
f 267 322 324
f 268 273 269
f 269 325 270
f 269 273 326
f 269 326 325
f 270 325 327
f 270 327 272
f 270 272 271
f 272 327 297
f 272 297 277
f 273 276 328
f 273 328 329
f 273 329 330
f 273 330 326
f 274 282 275
f 275 282 331
f 275 331 332
f 275 332 276
f 276 332 328
f 279 281 333
f 279 333 331
f 279 331 282
f 280 283 281
f 281 283 334
f 281 334 333
f 283 286 334
f 284 323 335
f 284 335 285
f 285 335 286
f 286 335 336
f 286 336 337
f 286 337 334
f 287 338 288
f 287 315 338
f 288 338 339
f 288 339 289
f 289 339 290
f 290 339 340
f 290 340 341
f 290 341 291
f 291 341 292
f 292 341 342
f 292 342 294
f 292 294 293
f 294 342 343
f 294 343 295
f 295 343 344
f 295 344 296
f 296 344 316
f 297 327 345
f 297 345 346
f 297 346 298
f 298 346 299
f 299 346 347
f 299 347 300
f 300 347 301
f 301 347 348
f 301 348 349
f 301 349 350
f 301 350 302
f 302 350 351
f 302 351 352
f 302 352 303
f 303 352 353
f 303 353 304
f 304 353 354
f 304 354 305
f 305 354 355
f 305 355 306
f 306 308 307
f 306 355 356
f 306 356 357
f 306 357 308
f 308 357 310
f 308 310 309
f 310 357 358
f 310 358 311
f 311 358 312
f 312 359 360
f 312 360 313
f 312 358 359
f 313 360 314
f 314 361 362
f 314 362 315
f 314 360 361
f 315 362 363
f 315 363 338
f 316 344 364
f 316 364 365
f 316 365 317
f 317 365 318
f 318 365 366
f 318 366 319
f 319 366 320
f 320 366 367
f 320 367 368
f 320 368 321
f 321 368 369
f 321 369 322
f 322 369 370
f 322 370 324
f 323 324 371
f 323 371 335
f 324 370 372
f 324 372 371
f 325 345 327
f 325 326 345
f 326 330 373
f 326 373 345
f 328 374 329
f 328 332 375
f 328 375 374
f 329 374 376
f 329 376 377
f 329 377 330
f 330 377 349
f 330 349 348
f 330 348 373
f 331 333 378
f 331 378 332
f 332 378 375
f 333 334 379
f 333 379 378
f 334 337 379
f 335 371 380
f 335 380 336
f 336 381 337
f 336 380 381
f 337 381 382
f 337 382 379
f 338 363 339
f 339 383 340
f 339 363 383
f 340 383 384
f 340 384 341
f 341 384 385
f 341 385 342
f 342 386 387
f 342 387 343
f 342 385 388
f 342 388 386
f 343 387 344
f 344 387 364
f 345 373 346
f 346 373 348
f 346 348 347
f 349 377 350
f 350 377 389
f 350 389 351
f 351 390 391
f 351 391 392
f 351 392 352
f 351 389 390
f 352 392 353
f 353 392 393
f 353 393 354
f 354 393 394
f 354 394 395
f 354 395 355
f 355 395 356
f 356 395 396
f 356 396 357
f 357 396 397
f 357 397 358
f 358 397 398
f 358 398 359
f 359 398 360
f 360 398 399
f 360 399 361
f 361 399 400
f 361 400 401
f 361 401 362
f 362 401 402
f 362 402 363
f 363 402 403
f 363 403 383
f 364 404 405
f 364 405 365
f 364 387 404
f 365 405 366
f 366 405 367
f 367 405 406
f 367 406 407
f 367 407 408
f 367 408 368
f 368 408 369
f 369 408 409
f 369 409 370
f 370 409 410
f 370 410 372
f 371 411 380
f 371 372 411
f 372 410 411
f 374 412 376
f 374 375 412
f 375 378 413
f 375 413 414
f 375 414 415
f 375 415 412
f 376 412 416
f 376 416 377
f 377 416 389
f 378 379 413
f 379 382 417
f 379 417 413
f 380 418 381
f 380 411 418
f 381 418 419
f 381 419 420
f 381 420 382
f 382 420 421
f 382 421 417
f 383 403 422
f 383 422 423
f 383 423 384
f 384 424 385
f 384 423 424
f 385 424 388
f 386 388 425
f 386 425 426
f 386 426 427
f 386 427 387
f 387 427 404
f 388 424 428
f 388 428 429
f 388 429 425
f 389 416 430
f 389 430 390
f 390 430 431
f 390 431 432
f 390 432 391
f 391 432 433
f 391 433 392
f 392 433 393
f 393 433 434
f 393 434 394
f 394 434 435
f 394 435 436
f 394 436 396
f 394 396 395
f 396 436 397
f 397 436 437
f 397 437 398
f 398 437 399
f 399 437 438
f 399 438 439
f 399 439 400
f 400 439 401
f 401 439 440
f 401 440 441
f 401 441 402
f 402 441 403
f 403 441 422
f 404 442 406
f 404 406 405
f 404 427 443
f 404 443 442
f 406 442 407
f 407 442 444
f 407 444 445
f 407 445 446
f 407 446 408
f 408 446 409
f 409 446 410
f 410 447 411
f 410 446 447
f 411 447 418
f 412 415 448
f 412 448 416
f 413 417 414
f 414 449 415
f 414 417 450
f 414 450 449
f 415 449 448
f 416 448 430
f 417 421 450
f 418 447 451
f 418 451 419
f 419 452 420
f 419 451 452
f 420 452 453
f 420 453 421
f 421 453 454
f 421 454 450
f 422 441 455
f 422 455 456
f 422 456 457
f 422 457 423
f 423 457 424
f 424 457 428
f 425 458 426
f 425 429 459
f 425 459 458
f 426 458 460
f 426 460 443
f 426 443 427
f 428 457 461
f 428 461 462
f 428 462 429
f 429 462 459
f 430 463 431
f 430 448 463
f 431 463 464
f 431 464 432
f 432 465 433
f 432 464 465
f 433 465 466
f 433 466 434
f 434 466 435
f 435 466 467
f 435 467 468
f 435 468 436
f 436 468 437
f 437 468 438
f 438 467 469
f 438 469 439
f 438 468 467
f 439 470 471
f 439 471 440
f 439 469 470
f 440 471 455
f 440 455 441
f 442 443 460
f 442 460 444
f 444 460 472
f 444 472 445
f 445 472 473
f 445 473 474
f 445 474 447
f 445 447 446
f 447 474 451
f 448 449 475
f 448 475 476
f 448 476 463
f 449 450 477
f 449 477 475
f 450 454 477
f 451 478 479
f 451 479 452
f 451 474 478
f 452 480 453
f 452 479 480
f 453 481 454
f 453 480 481
f 454 481 482
f 454 482 477
f 455 483 484
f 455 484 456
f 455 471 483
f 456 484 485
f 456 485 461
f 456 461 457
f 458 459 486
f 458 486 487
f 458 487 472
f 458 472 460
f 459 462 488
f 459 488 486
f 461 485 462
f 462 485 489
f 462 489 488
f 463 476 490
f 463 490 464
f 464 490 491
f 464 491 465
f 465 491 466
f 466 491 467
f 467 492 493
f 467 493 469
f 467 491 492
f 469 493 470
f 470 494 471
f 470 493 494
f 471 494 483
f 472 487 473
f 473 487 495
f 473 495 478
f 473 478 474
f 475 477 496
f 475 496 476
f 476 496 490
f 477 482 497
f 477 497 496
f 478 495 479
f 479 495 498
f 479 498 499
f 479 499 480
f 480 499 500
f 480 500 481
f 481 500 501
f 481 501 482
f 482 501 497
f 483 502 503
f 483 503 489
f 483 489 484
f 483 494 504
f 483 504 502
f 484 489 485
f 486 488 505
f 486 505 506
f 486 506 487
f 487 506 495
f 488 489 507
f 488 507 505
f 489 503 507
f 490 496 508
f 490 508 509
f 490 509 492
f 490 492 491
f 492 509 510
f 492 510 493
f 493 510 494
f 494 510 504
f 495 506 498
f 496 497 508
f 497 501 511
f 497 511 508
f 498 506 505
f 498 505 512
f 498 512 499
f 499 512 500
f 500 512 501
f 501 512 502
f 501 502 511
f 502 512 503
f 502 504 511
f 503 512 507
f 504 510 508
f 504 508 511
f 505 507 512
f 508 510 509

