# https://github.com/mikedh/trimesh
v -0.17457524 -0.29009110 0.05161198
v -0.17457524 -0.31713805 0.05161198
v -0.17457524 -0.29009110 0.03273363
v -0.18714067 -0.29009110 0.05161198
v -0.17859645 -0.32210183 0.05161198
v -0.17457524 -0.31414223 0.04752357
v -0.18785445 -0.31120282 0.03842867
v -0.20819025 -0.31065127 0.02970057
v -0.20819025 -0.30951688 0.02970057
v -0.21043761 -0.30951688 0.02970057
v -0.20129976 -0.29955798 0.03940466
v -0.18483323 -0.29009110 0.04627088
v -0.20235629 -0.29830137 0.04499888
v -0.20238456 -0.29787832 0.05161198
v -0.17921484 -0.32075745 0.04915379
v -0.17992155 -0.32210183 0.05161198
v -0.21043761 -0.31065127 0.02970057
v -0.21067083 -0.30871466 0.03500092
v -0.21045174 -0.30876791 0.04046001
v -0.20320788 -0.30022234 0.05161198
v -0.18222898 -0.32178530 0.05161198
v -0.21067083 -0.31095526 0.03500092
v -0.21045174 -0.31061995 0.04046001
v -0.20320788 -0.30441523 0.05161198
v -0.18926083 -0.31768957 0.05161198
v -0.20088279 -0.30779648 0.05161198
v -0.19409476 -0.31422684 0.05161198
f 1 2 6
f 1 6 3
f 1 3 12
f 1 12 4
f 1 4 14
f 1 14 20
f 1 20 24
f 1 24 26
f 1 26 27
f 1 27 25
f 1 25 21
f 1 21 16
f 1 16 5
f 1 5 2
f 2 5 6
f 3 6 7
f 3 7 8
f 3 8 9
f 3 9 10
f 3 10 11
f 3 11 12
f 4 12 13
f 4 13 14
f 5 15 6
f 5 16 17
f 5 17 8
f 5 8 15
f 6 15 7
f 7 15 8
f 8 17 10
f 8 10 9
f 10 17 22
f 10 22 18
f 10 18 13
f 10 13 11
f 11 13 12
f 13 18 14
f 14 18 19
f 14 19 20
f 16 21 17
f 17 21 22
f 18 22 23
f 18 23 19
f 19 23 24
f 19 24 20
f 21 25 23
f 21 23 22
f 23 26 24
f 23 25 27
f 23 27 26

