# https://github.com/mikedh/trimesh
v -0.04500479 -0.03744251 0.17932853
v -0.04192313 -0.03759812 0.17932853
v -0.05207250 -0.03775372 0.17932853
v -0.05502017 -0.04905480 0.19098772
v -0.06500205 -0.09087463 0.23416755
v -0.06024559 -0.09099133 0.23416755
v -0.05502017 -0.09120529 0.23416755
v -0.03502290 -0.03804549 0.17932853
v -0.05502017 -0.03794824 0.17932853
v -0.05502017 -0.03929036 0.18075104
v -0.05502017 -0.04405587 0.18575397
v -0.06500205 -0.08846269 0.23162314
v -0.07093090 -0.09155541 0.23416755
v -0.04178914 -0.09248906 0.23416755
v -0.03194124 -0.03833725 0.17932853
v -0.05984363 -0.03862903 0.17932853
v -0.06108300 -0.03971829 0.18031086
v -0.07498395 -0.09211949 0.23416755
v -0.03502290 -0.09315040 0.23416755
v -0.02018405 -0.03948487 0.17932853
v -0.06161894 -0.03894024 0.17932853
v -0.08292256 -0.09392844 0.23416755
v -0.03364955 -0.09330601 0.23416755
v -0.01502563 -0.04039907 0.17964524
v -0.01509262 -0.04008786 0.17932853
v -0.08496583 -0.04506733 0.17932853
v -0.09585212 -0.09715732 0.23416755
v -0.09494773 -0.09692390 0.23416755
v -0.08409493 -0.09420076 0.23416755
v -0.02638086 -0.09458978 0.23416755
v -0.02939552 -0.08986317 0.23014158
v -0.00614911 -0.04191625 0.17932853
v -0.01452318 -0.04018511 0.17932853
v -0.08942084 -0.04640945 0.17932853
v -0.10496311 -0.09966651 0.23416755
v -0.02564394 -0.09474538 0.23416755
v -0.00504374 -0.04216912 0.17932853
v -0.09354088 -0.04775158 0.17932853
v -0.09900077 -0.04973559 0.17932853
v -0.11149488 -0.09925804 0.23093067
v -0.11450954 -0.10320660 0.23416755
v -0.01666695 -0.09789646 0.23416755
v -0.00504374 -0.04646781 0.18325788
v 0.00122006 -0.04458106 0.17932853
v -0.10070908 -0.05059144 0.17932853
v -0.09936923 -0.05024131 0.17974186
v -0.11615086 -0.10402355 0.23416755
v -0.01502563 -0.09859670 0.23416755
v 0.00497165 -0.04609824 0.17932853
v -0.10482912 -0.05269215 0.17932853
v -0.12499388 -0.10884742 0.23416755
v -0.01107307 -0.10050291 0.23416755
v 0.00785232 -0.04749872 0.17932853
v -0.10754232 -0.05418988 0.17932853
v -0.11313619 -0.05737986 0.17932853
v -0.14455569 -0.12063477 0.23416755
v -0.00537870 -0.10334276 0.23416755
v 0.00353131 -0.10781651 0.23416755
v 0.01100098 -0.04909370 0.17932853
v -0.12958287 -0.06770839 0.17932853
v -0.14649847 -0.12184074 0.23416755
v 0.00497165 -0.10855565 0.23416755
v 0.02496891 -0.05627115 0.17932853
v -0.13387039 -0.07052879 0.17932853
v -0.22270249 -0.13769338 0.19290408
v -0.20300668 -0.15782523 0.23416755
v 0.00862274 -0.11053966 0.23416755
v 0.03016084 -0.05986960 0.18011762
v 0.03066328 -0.05930552 0.17932853
v -0.13681805 -0.07247390 0.17932853
v -0.22270249 -0.13769338 0.18711206
v -0.24524547 -0.23615474 0.21499859
v -0.24504450 -0.23615474 0.22499909
v -0.24427408 -0.23615474 0.23416755
v -0.24390562 -0.23498768 0.23416755
v -0.24068998 -0.22753790 0.23416755
v -0.23499562 -0.21497251 0.23416755
v -0.23111005 -0.20641404 0.23416755
v -0.22906677 -0.20194028 0.23416755
v -0.22561666 -0.19505461 0.23416755
v -0.22146313 -0.18741032 0.23416755
v -0.20829909 -0.16381617 0.23416755
v -0.20364311 -0.15842822 0.23416755
v -0.13899532 -0.07402999 0.17932853
v 0.01428360 -0.11419646 0.23416755
v 0.01180489 -0.10882796 0.23107024
v 0.01512101 -0.11477999 0.23416755
v 0.03605618 -0.06325409 0.17932853
v -0.22022377 -0.14883883 0.17987069
v -0.22266899 -0.14529875 0.18426704
v -0.24012055 -0.21942681 0.19982874
v -0.14301486 -0.07718106 0.17932853
v -0.14683345 -0.08048774 0.17932853
v -0.14820679 -0.08169371 0.17932853
v -0.14934567 -0.08274407 0.17932853
v -0.24233130 -0.23615474 0.20441835
v -0.24038851 -0.22497037 0.19957645
v -0.18414828 -0.23615474 0.23416755
v 0.02048042 -0.11935100 0.23416755
v 0.01847064 -0.11116210 0.22908947
v 0.04098013 -0.06903106 0.18077788
v 0.04191803 -0.06809741 0.17932853
v -0.21272060 -0.16401067 0.17932853
v -0.21369199 -0.16576128 0.17932853
v -0.21459639 -0.16852333 0.17932853
v -0.22410934 -0.20055926 0.17932853
v -0.22541569 -0.21065438 0.17932853
v -0.22859783 -0.23615474 0.17932853
v -0.15319774 -0.08671209 0.17932853
v -0.16951042 -0.10402355 0.17932853
v -0.17255858 -0.10742749 0.17932853
v -0.17734854 -0.11289325 0.17932853
v -0.17952579 -0.11548024 0.17932853
v -0.18116713 -0.11769766 0.17932853
v -0.24038851 -0.23197275 0.19962476
v 0.09571303 -0.23613527 0.17932853
v 0.09417221 -0.23613527 0.19602823
v 0.08221404 -0.23613527 0.22276601
v 0.07534730 -0.23613527 0.23416755
v -0.18414828 -0.23615474 0.17932853
v 0.02426550 -0.12312451 0.23416755
v 0.02557185 -0.12444718 0.23416755
v 0.03491731 -0.13430887 0.23416755
v 0.04004224 -0.13981354 0.23416755
v 0.04684198 -0.07338810 0.17932853
v 0.09665093 -0.21014863 0.17932853
v 0.09695239 -0.19871141 0.17932853
v 0.09671792 -0.19499625 0.17932853
v 0.09631597 -0.18892752 0.17932853
v 0.09578003 -0.18497895 0.17932853
v 0.09504311 -0.17982441 0.17932853
v 0.09430619 -0.17525341 0.17932853
v 0.09182747 -0.16031498 0.17932853
v 0.09008566 -0.15002535 0.17932853
v 0.07209817 -0.21508922 0.23416755
v 0.07350501 -0.22275294 0.23416755
v 0.07373948 -0.22425067 0.23416755
v 0.07517983 -0.23405401 0.23416755
v 0.07528031 -0.23498768 0.23416755
v 0.04466473 -0.14559051 0.23416755
v 0.06091042 -0.08904622 0.17932853
v 0.06030747 -0.08962975 0.18027866
v 0.05632143 -0.08391114 0.17932853
v 0.08951622 -0.14776903 0.17932853
v 0.06982042 -0.19067810 0.22975509
v 0.06948546 -0.20124005 0.23416755
v 0.07072482 -0.20779505 0.23416755
v 0.04905274 -0.15216497 0.23416755
v 0.06961945 -0.10060016 0.17932853
v 0.06925099 -0.10007498 0.17932853
v 0.06700674 -0.09692390 0.17932853
v 0.06559989 -0.09501770 0.17932853
v 0.06302068 -0.09171101 0.17932853
v 0.08898029 -0.14582393 0.17932853
v 0.06888252 -0.18497895 0.22841311
v 0.06781064 -0.19379029 0.23416755
v 0.08871232 -0.14492917 0.17932853
v 0.05133048 -0.15642476 0.23416755
v 0.07129426 -0.10744694 0.18156697
v 0.07266760 -0.10643549 0.17932853
v 0.06472899 -0.18472609 0.23416755
v 0.08633408 -0.13775173 0.17932853
v 0.05591947 -0.16576128 0.23416755
v 0.05910161 -0.17223848 0.23416755
v 0.07417494 -0.10968381 0.17932853
v 0.06117839 -0.17655663 0.23416755
v 0.06419304 -0.18330616 0.23416755
v 0.08526219 -0.13502857 0.17932853
v 0.07662016 -0.11501341 0.17932853
v 0.07749106 -0.11691961 0.17932853
v 0.08348690 -0.13067153 0.17932853
v 0.08197957 -0.12718979 0.17932853
v 0.07940035 -0.12127666 0.17932853
f 1 2 8
f 1 8 15
f 1 15 20
f 1 20 25
f 1 25 33
f 1 33 32
f 1 32 37
f 1 37 44
f 1 44 49
f 1 49 53
f 1 53 59
f 1 59 63
f 1 63 69
f 1 69 88
f 1 88 102
f 1 102 125
f 1 125 143
f 1 143 141
f 1 141 153
f 1 153 152
f 1 152 151
f 1 151 150
f 1 150 149
f 1 149 160
f 1 160 165
f 1 165 169
f 1 169 170
f 1 170 173
f 1 173 172
f 1 172 171
f 1 171 168
f 1 168 162
f 1 162 157
f 1 157 154
f 1 154 144
f 1 144 134
f 1 134 133
f 1 133 132
f 1 132 131
f 1 131 130
f 1 130 129
f 1 129 128
f 1 128 127
f 1 127 126
f 1 126 116
f 1 116 120
f 1 120 108
f 1 108 107
f 1 107 106
f 1 106 105
f 1 105 104
f 1 104 103
f 1 103 114
f 1 114 113
f 1 113 112
f 1 112 111
f 1 111 110
f 1 110 109
f 1 109 95
f 1 95 94
f 1 94 93
f 1 93 92
f 1 92 84
f 1 84 70
f 1 70 64
f 1 64 60
f 1 60 55
f 1 55 54
f 1 54 50
f 1 50 45
f 1 45 39
f 1 39 38
f 1 38 34
f 1 34 26
f 1 26 21
f 1 21 16
f 1 16 9
f 1 9 3
f 1 3 4
f 1 4 5
f 1 5 6
f 1 6 7
f 1 7 2
f 2 7 8
f 3 9 10
f 3 10 11
f 3 11 4
f 4 11 5
f 5 12 13
f 5 13 18
f 5 18 22
f 5 22 29
f 5 29 28
f 5 28 27
f 5 27 35
f 5 35 41
f 5 41 47
f 5 47 51
f 5 51 56
f 5 56 61
f 5 61 66
f 5 66 83
f 5 83 82
f 5 82 81
f 5 81 80
f 5 80 79
f 5 79 78
f 5 78 77
f 5 77 76
f 5 76 75
f 5 75 74
f 5 74 98
f 5 98 119
f 5 119 139
f 5 139 138
f 5 138 137
f 5 137 136
f 5 136 135
f 5 135 147
f 5 147 146
f 5 146 156
f 5 156 161
f 5 161 167
f 5 167 166
f 5 166 164
f 5 164 163
f 5 163 158
f 5 158 148
f 5 148 140
f 5 140 124
f 5 124 123
f 5 123 122
f 5 122 121
f 5 121 99
f 5 99 87
f 5 87 85
f 5 85 67
f 5 67 62
f 5 62 58
f 5 58 57
f 5 57 52
f 5 52 48
f 5 48 42
f 5 42 36
f 5 36 30
f 5 30 23
f 5 23 19
f 5 19 14
f 5 14 7
f 5 7 6
f 5 11 10
f 5 10 12
f 7 14 15
f 7 15 8
f 9 16 17
f 9 17 18
f 9 18 13
f 9 13 10
f 10 13 12
f 14 19 20
f 14 20 15
f 16 21 17
f 17 21 18
f 18 21 22
f 19 23 20
f 20 24 25
f 20 23 24
f 21 26 27
f 21 27 28
f 21 28 29
f 21 29 22
f 23 30 31
f 23 31 24
f 24 31 30
f 24 30 32
f 24 32 33
f 24 33 25
f 26 34 35
f 26 35 27
f 30 36 32
f 32 36 37
f 34 38 35
f 35 39 40
f 35 40 41
f 35 38 39
f 36 42 37
f 37 43 44
f 37 42 43
f 39 45 46
f 39 46 41
f 39 41 40
f 41 46 47
f 42 48 49
f 42 49 44
f 42 44 43
f 45 50 46
f 46 50 47
f 47 50 51
f 48 52 49
f 49 52 53
f 50 54 51
f 51 54 55
f 51 55 56
f 52 57 53
f 53 57 58
f 53 58 59
f 55 60 61
f 55 61 56
f 58 62 59
f 59 62 63
f 60 64 65
f 60 65 61
f 61 65 66
f 62 67 68
f 62 68 63
f 63 68 69
f 64 70 65
f 65 71 72
f 65 72 73
f 65 73 74
f 65 74 75
f 65 75 76
f 65 76 77
f 65 77 78
f 65 78 79
f 65 79 80
f 65 80 81
f 65 81 82
f 65 82 83
f 65 83 66
f 65 70 84
f 65 84 71
f 67 85 86
f 67 86 68
f 68 86 85
f 68 85 87
f 68 87 88
f 68 88 69
f 71 89 90
f 71 90 91
f 71 91 72
f 71 84 92
f 71 92 93
f 71 93 94
f 71 94 95
f 71 95 89
f 72 96 108
f 72 108 120
f 72 120 98
f 72 98 74
f 72 74 73
f 72 91 97
f 72 97 96
f 87 99 100
f 87 100 101
f 87 101 88
f 88 101 102
f 89 103 104
f 89 104 105
f 89 105 106
f 89 106 107
f 89 107 108
f 89 108 91
f 89 91 90
f 89 95 109
f 89 109 110
f 89 110 111
f 89 111 112
f 89 112 113
f 89 113 114
f 89 114 103
f 91 108 97
f 96 97 115
f 96 115 108
f 97 108 115
f 98 116 117
f 98 117 118
f 98 118 119
f 98 120 116
f 99 121 101
f 99 101 100
f 101 121 122
f 101 122 123
f 101 123 124
f 101 124 125
f 101 125 102
f 116 126 117
f 117 126 127
f 117 127 128
f 117 128 129
f 117 129 118
f 118 129 130
f 118 130 131
f 118 131 132
f 118 132 133
f 118 133 134
f 118 134 135
f 118 135 136
f 118 136 137
f 118 137 138
f 118 138 139
f 118 139 119
f 124 140 141
f 124 141 142
f 124 142 143
f 124 143 125
f 134 144 145
f 134 145 146
f 134 146 147
f 134 147 135
f 140 148 149
f 140 149 150
f 140 150 151
f 140 151 152
f 140 152 153
f 140 153 141
f 141 143 142
f 144 154 145
f 145 155 156
f 145 156 146
f 145 154 157
f 145 157 155
f 148 158 149
f 149 159 160
f 149 158 159
f 155 161 156
f 155 157 162
f 155 162 161
f 158 163 159
f 159 163 164
f 159 164 160
f 160 164 166
f 160 166 165
f 161 162 167
f 162 168 167
f 165 166 169
f 166 167 170
f 166 170 169
f 167 168 171
f 167 171 172
f 167 172 173
f 167 173 170

