# https://github.com/mikedh/trimesh
v -0.22339308 -0.21491900 0.11233957
v -0.22309719 -0.22491789 0.11233957
v -0.04344898 -0.40253556 0.11234552
v -0.22280128 -0.20492011 0.11233957
v -0.21888061 -0.16492453 0.05500511
v -0.21876965 -0.16492453 0.05161641
v -0.21913953 -0.17492342 0.05500511
v -0.21884362 -0.17492342 0.05161641
v -0.21858472 -0.30485409 0.11233957
v -0.21847375 -0.30540347 0.11233957
v -0.04333802 -0.40292013 0.11234552
v -0.01034518 -0.40253556 0.11234552
v -0.02499223 0.04076695 0.11233957
v -0.02661967 0.04065707 0.11233957
v -0.03490487 0.04005274 0.11233957
v -0.04000914 0.03906384 0.11233957
v -0.04470655 0.03807494 0.11233957
v -0.04725869 0.03730580 0.11233957
v -0.05387945 0.03521812 0.11233957
v -0.07307595 0.02835074 0.11233957
v -0.07651579 0.02703221 0.11233957
v -0.08498593 0.02307661 0.11233957
v -0.09267932 0.01857162 0.11233957
v -0.09604518 0.01631911 0.11233957
v -0.10151933 0.01252833 0.11233957
v -0.10322075 0.01131967 0.11233957
v -0.12226931 -0.00301941 0.11233957
v -0.12478445 -0.00494227 0.11233957
v -0.12815031 -0.00774416 0.11233957
v -0.13232991 -0.01131519 0.11233957
v -0.13562179 -0.01444671 0.11233957
v -0.13891368 -0.01774304 0.11233957
v -0.14216858 -0.02120420 0.11233957
v -0.14538649 -0.02488511 0.11233957
v -0.16114315 -0.04334460 0.11233957
v -0.16828173 -0.05207990 0.11233957
v -0.17050098 -0.05482685 0.11233957
v -0.17205445 -0.05707934 0.11233957
v -0.17712174 -0.06466092 0.11233957
v -0.17919305 -0.06806714 0.11233957
v -0.18100543 -0.07108878 0.11233957
v -0.18333565 -0.07515427 0.11233957
v -0.19088109 -0.08861431 0.11233957
v -0.19424695 -0.09482242 0.11233957
v -0.19883339 -0.10339290 0.11233957
v -0.20060879 -0.10729356 0.11233957
v -0.20086771 -0.10789789 0.11233957
v -0.20327190 -0.11443563 0.11233957
v -0.20697065 -0.12520367 0.11233957
v -0.20922688 -0.13245560 0.11233957
v -0.21307358 -0.14498170 0.11233957
v -0.21595860 -0.15492564 0.11233957
v -0.21814087 -0.16492453 0.11233957
v -0.21950941 -0.17382465 0.11233957
v -0.21995325 -0.17745063 0.11233957
v -0.22183961 -0.19492121 0.11233957
v -0.21640246 -0.13492787 0.05500511
v -0.21640246 -0.13492787 0.05161641
v -0.21814087 -0.15498058 0.05161641
v -0.21810387 -0.18492232 0.05161641
v -0.20319793 -0.30435961 0.05161641
v -0.21558873 -0.31452334 0.11233957
v -0.03501583 -0.40769982 0.11234552
v -0.21148312 -0.32342345 0.11233957
v -0.20878303 -0.32913709 0.11233957
v -0.20563909 -0.33479583 0.11233957
v -0.20116360 -0.34226751 0.11233957
v -0.19128795 -0.35748559 0.11233957
v -0.18770017 -0.36254001 0.11233957
v -0.18529598 -0.36545175 0.11233957
v -0.18333565 -0.36770427 0.11233957
v -0.17763957 -0.37358272 0.11233957
v -0.17345998 -0.37759328 0.11233957
v -0.16761597 -0.38264766 0.11233957
v -0.16510081 -0.38473535 0.11233957
v -0.16147605 -0.38764709 0.11233957
v -0.15748139 -0.39072368 0.11233957
v -0.15363470 -0.39330581 0.11233957
v -0.01504259 -0.40434855 0.11234552
v -0.01034518 -0.40253556 0.11233957
v -0.00753413 -0.40138185 0.11233957
v 0.00959107 -0.38967985 0.11233957
v 0.03540833 -0.37072590 0.11233957
v 0.03810842 -0.36869317 0.11233957
v 0.04195512 -0.36572647 0.11233957
v 0.04387847 -0.36407828 0.11233957
v 0.08112486 -0.29952502 0.11233957
v 0.08493458 -0.29271257 0.11233957
v 0.08822646 -0.28644955 0.11233957
v 0.09525408 -0.27282465 0.11233957
v 0.10187484 -0.25991401 0.11233957
v 0.10509275 -0.25260711 0.11233957
v 0.10893945 -0.24222367 0.11233957
v 0.11818632 -0.21233687 0.11233957
v 0.11948088 -0.20750225 0.11233957
v 0.12073846 -0.20272255 0.11233957
v 0.12229194 -0.19464651 0.11233957
v 0.12277277 -0.19167981 0.11233957
v 0.12362348 -0.18492232 0.11233957
v 0.12388240 -0.18228525 0.11233957
v 0.12458515 -0.17492342 0.11233957
v 0.12576875 -0.16184795 0.11233957
v 0.12624960 -0.15492564 0.11233957
v 0.12643453 -0.15157437 0.11233957
v 0.12650850 -0.14498170 0.11233957
v 0.12647152 -0.14163041 0.11233957
v 0.12602767 -0.13498279 0.11233957
v 0.12569478 -0.13190621 0.11233957
v 0.12473311 -0.12465428 0.11233957
v 0.12425227 -0.12130300 0.11233957
v 0.12170014 -0.10454661 0.11233957
v 0.12044255 -0.09658046 0.11233957
v 0.11936992 -0.09086681 0.11233957
v 0.11755754 -0.08416426 0.11233957
v 0.11470950 -0.07559378 0.11233957
v 0.11378480 -0.07290177 0.11233957
v 0.11097376 -0.06603440 0.11233957
v 0.10546263 -0.05257435 0.11233957
v 0.10224472 -0.04488289 0.11233957
v 0.10002548 -0.03988345 0.11233957
v 0.09669660 -0.03378522 0.11233957
v 0.09558697 -0.03186236 0.11233957
v 0.09170328 -0.02565426 0.11233957
v 0.08855934 -0.02125914 0.11233957
v 0.07394929 -0.00312928 0.11233957
v 0.07058343 0.00088127 0.11233957
v 0.06596000 0.00588071 0.11233957
v 0.06089271 0.01055051 0.11233957
v 0.05497471 0.01527527 0.11233957
v 0.04950056 0.01906607 0.11233957
v 0.04495110 0.02170312 0.11233957
v 0.04121537 0.02384575 0.11233957
v 0.03067394 0.02972423 0.11233957
v 0.02497786 0.03258105 0.11233957
v 0.01554606 0.03626196 0.11233957
v 0.01428848 0.03659159 0.11233957
v 0.00870337 0.03802000 0.11233957
v 0.00496764 0.03867927 0.11233957
v 0.00167575 0.03900890 0.11233957
v -0.00501898 0.03961323 0.11233957
v -0.00753413 0.03983299 0.11233957
v -0.01504259 0.04038239 0.11233957
v -0.00505597 0.15355664 0.05161641
v -0.01504259 0.15317208 0.05161641
v -0.02502921 0.15141404 0.05161641
v -0.03494186 0.14888683 0.05161641
v -0.04407777 0.14537075 0.05161641
v -0.04526137 0.14476642 0.05161641
v -0.05498908 0.13965708 0.05161641
v -0.06419896 0.13460270 0.05161641
v -0.07363077 0.12839460 0.05161641
v -0.07618290 0.12630692 0.05161641
v -0.07954876 0.12350503 0.05161641
v -0.08346944 0.12020870 0.05161641
v -0.08702023 0.11707717 0.05161641
v -0.09301221 0.11119871 0.05161641
v -0.11594445 0.08592679 0.05161641
v -0.11868152 0.08285020 0.05161641
v -0.12300906 0.07774088 0.05161641
v -0.12667081 0.07296118 0.05161641
v -0.13188605 0.06598394 0.05161641
v -0.13784105 0.05763322 0.05161641
v -0.14146581 0.05230413 0.05161641
v -0.16121712 0.02153832 0.05161641
v -0.16524877 0.01472588 0.05161641
v -0.16902149 0.00818814 0.05161641
v -0.17101881 0.00445229 0.05161641
v -0.17168458 0.00313376 0.05161641
v -0.17527238 -0.00455769 0.05161641
v -0.17889714 -0.01246890 0.05161641
v -0.19069615 -0.03889455 0.05161641
v -0.19321130 -0.04515759 0.05161641
v -0.19691005 -0.05482685 0.05161641
v -0.19938821 -0.06163928 0.05161641
v -0.20009097 -0.06361708 0.05161641
v -0.21451609 -0.13498279 0.08500405
v -0.21569969 -0.14498170 0.09499774
v -0.21680932 -0.15492564 0.10499144
v -0.20097867 -0.06669366 0.05161641
v -0.20863508 -0.09471254 0.05161641
v -0.21029952 -0.10086571 0.05161641
v -0.21137215 -0.10504106 0.05161641
v -0.21447910 -0.12498391 0.06500476
v -0.21555173 -0.13492787 0.07493901
v -0.21658739 -0.14498170 0.08500405
v -0.21518187 -0.12498391 0.05500511
v -0.21614353 -0.13492787 0.06500476
v -0.21525584 -0.12498391 0.05161641
v -0.20083073 -0.30776584 0.05161641
v -0.02502921 -0.40687573 0.11234552
v -0.13747117 -0.40253556 0.11233957
v -0.13347651 -0.40253556 0.10791643
v -0.13306965 -0.40253556 0.10774402
v -0.12818730 -0.40253556 0.10676308
v -0.01504259 -0.40242568 0.09722716
v -0.01504259 -0.40253556 0.09764925
v -0.19406201 -0.31419373 0.05161641
v -0.18921666 -0.31765485 0.05161641
v -0.15189628 -0.39127308 0.10865957
v -0.01504259 -0.40379915 0.10499739
v -0.00886568 -0.40138185 0.09814270
v 0.03637001 -0.36748451 0.10499144
v 0.04247294 -0.36248505 0.10499144
v 0.09795417 -0.26744065 0.05161641
v 0.10172689 -0.26244122 0.05161641
v 0.10361326 -0.25980413 0.05161641
v 0.10823669 -0.25255218 0.05161641
v 0.10986415 -0.24975030 0.05161641
v 0.11774248 -0.23601556 0.05161641
v 0.12177411 -0.22887349 0.05161641
v 0.12391938 -0.22497283 0.05161641
v 0.12536189 -0.22228082 0.05161641
v 0.12029462 -0.23057660 0.06500476
v 0.12010968 -0.23024696 0.07108659
v 0.13039219 -0.21096340 0.05500511
v 0.13002232 -0.21008436 0.06026652
v 0.12125628 -0.21502888 0.09465293
v 0.13002232 -0.19014153 0.09018817
v 0.11981377 -0.20937017 0.10929569
v 0.13091001 -0.20475528 0.06416056
v 0.13039219 -0.20123920 0.07193673
v 0.12458515 -0.19492121 0.10499144
v 0.12894969 -0.18492232 0.09673966
v 0.13438684 -0.17492342 0.08500405
v 0.12624960 -0.18492232 0.10499144
v 0.12961546 -0.17492342 0.09890962
v 0.12735921 -0.17492342 0.10499144
v 0.15299155 -0.11454550 0.05161641
v 0.12861679 -0.15492564 0.10640638
v 0.15332443 -0.11075471 0.05161641
v 0.15380527 -0.10504106 0.05161641
v 0.15406418 -0.10168979 0.05161641
v 0.15447104 -0.09207547 0.05161641
v 0.15432309 -0.08092286 0.05161641
v 0.15380527 -0.07246226 0.05161641
v 0.15310250 -0.06510043 0.05161641
v 0.15288058 -0.06295782 0.05161641
v 0.14988460 -0.03686181 0.05161641
v 0.14914484 -0.03125803 0.05161641
v 0.14859003 -0.02823639 0.05161641
v 0.14785029 -0.02444560 0.05161641
v 0.14718451 -0.02142396 0.05161641
v 0.14485429 -0.01104049 0.05161641
v 0.14274602 -0.00340398 0.05161641
v 0.14085965 0.00263931 0.05161641
v 0.13061412 0.03400946 0.05161641
v 0.12876475 0.03906384 0.05161641
v 0.12728524 0.04247005 0.05161641
v 0.12550984 0.04648061 0.05161641
v 0.12170014 0.05477639 0.05161641
v 0.11925896 0.05983077 0.05161641
v 0.11629996 0.06548949 0.05161641
v 0.11556020 0.06680802 0.05161641
v 0.11123267 0.07427973 0.05161641
v 0.10860656 0.07867484 0.05161641
v 0.10069124 0.09153056 0.05161641
v 0.09725140 0.09696952 0.05161641
v 0.09192520 0.10449615 0.05161641
v 0.08859634 0.10867152 0.05161641
v 0.08441675 0.11323145 0.05161641
v 0.07890561 0.11889017 0.05161641
v 0.07413423 0.12312046 0.05161641
v 0.06799430 0.12795508 0.05161641
v 0.06499832 0.13004276 0.05161641
v 0.05945020 0.13377863 0.05161641
v 0.05386509 0.13751447 0.05161641
v 0.05027730 0.13976696 0.05161641
v 0.04495110 0.14284354 0.05161641
v 0.03622206 0.14668927 0.05161641
v 0.03529737 0.14707386 0.05161641
v 0.02989720 0.14888683 0.05161641
v 0.02494088 0.15053502 0.05161641
v 0.02342439 0.15086463 0.05161641
v 0.01499124 0.15245786 0.05161641
v 0.01451041 0.15251282 0.05161641
v -0.21359140 -0.11503996 0.05161641
v -0.21329550 -0.11503996 0.05500511
v -0.18218903 -0.32172036 0.05161641
v -0.11261557 -0.35138738 0.05161641
v -0.10880587 -0.35298061 0.05161641
v -0.10499615 -0.35451889 0.05161641
v -0.09497254 -0.35737574 0.05161641
v -0.08505990 -0.35885909 0.05161641
v -0.07496232 -0.36006773 0.05161641
v -0.06379209 -0.36127639 0.05161641
v -0.05964950 -0.36133134 0.05161641
v -0.05498908 -0.36127639 0.05161641
v -0.04847928 -0.36061713 0.05161641
v -0.04241333 -0.35957330 0.05161641
v -0.03494186 -0.35825476 0.05161641
v -0.02502921 -0.35649669 0.05161641
v -0.01548644 -0.35424423 0.05161641
v 0.03059996 -0.36078197 0.07931459
v 0.03226440 -0.36237520 0.08500405
v 0.02856565 -0.36891294 0.09293479
v 0.04091947 -0.36111158 0.09813675
v -0.00712727 -0.35127753 0.05161641
v -0.00209697 -0.34897006 0.05161641
v 0.01843108 -0.33919093 0.05161641
v 0.02494088 -0.33567482 0.05161641
v 0.09466228 -0.27156109 0.05161641
v 0.12832089 -0.21634741 0.05161641
v 0.12820993 -0.21590790 0.05500511
v 0.13061412 -0.21134797 0.05161641
v 0.13168675 -0.20893064 0.05161641
v 0.13438684 -0.20145895 0.05161641
v 0.13660608 -0.19475639 0.05161641
v 0.13753077 -0.19184463 0.05161641
v 0.13161278 -0.19536072 0.07493901
v 0.14048977 -0.18168092 0.05243089
v 0.14367069 -0.17168203 0.05161641
v 0.14481731 -0.16492453 0.05500511
v 0.13993496 -0.16975917 0.06984406
v 0.13054015 -0.18492232 0.09174578
v 0.13379504 -0.19497615 0.06500476
v 0.14877497 -0.15135461 0.05161641
v 0.14056376 -0.16311155 0.07161570
v 0.15010652 -0.14289401 0.05161641
v 0.15058737 -0.13899335 0.05161641
v 0.15103121 -0.13492787 0.05161641
v 0.15080929 -0.13492787 0.05221687
v 0.03193151 -0.33138961 0.05161641
v 0.03341101 -0.33034575 0.05161641
v 0.04391546 -0.32226974 0.05161641
v 0.05967212 -0.30974364 0.05161641
v 0.06636686 -0.30370036 0.05161641
v 0.06810527 -0.30205220 0.05161641
v 0.07010259 -0.30012935 0.05161641
v 0.07635348 -0.29304221 0.05161641
v 0.07949741 -0.28947118 0.05161641
v 0.08327014 -0.28502113 0.05161641
v 0.14256108 -0.17536294 0.05161641
v 0.14555706 -0.16492453 0.05161641
v 0.14644475 -0.16157326 0.05161641
f 1 2 3
f 1 3 4
f 1 4 5
f 1 5 6
f 1 6 7
f 1 7 8
f 1 8 2
f 2 8 9
f 2 9 3
f 3 9 10
f 3 10 11
f 3 11 63
f 3 63 190
f 3 190 79
f 3 79 12
f 3 12 13
f 3 13 14
f 3 14 15
f 3 15 16
f 3 16 17
f 3 17 18
f 3 18 19
f 3 19 20
f 3 20 21
f 3 21 22
f 3 22 23
f 3 23 24
f 3 24 25
f 3 25 26
f 3 26 27
f 3 27 28
f 3 28 29
f 3 29 30
f 3 30 31
f 3 31 32
f 3 32 33
f 3 33 34
f 3 34 35
f 3 35 36
f 3 36 37
f 3 37 38
f 3 38 39
f 3 39 40
f 3 40 41
f 3 41 42
f 3 42 43
f 3 43 44
f 3 44 45
f 3 45 46
f 3 46 47
f 3 47 48
f 3 48 49
f 3 49 50
f 3 50 51
f 3 51 52
f 3 52 53
f 3 53 54
f 3 54 55
f 3 55 56
f 3 56 4
f 4 56 57
f 4 57 58
f 4 58 59
f 4 59 5
f 5 59 6
f 6 59 58
f 6 58 188
f 6 188 276
f 6 276 182
f 6 182 181
f 6 181 180
f 6 180 179
f 6 179 175
f 6 175 174
f 6 174 173
f 6 173 172
f 6 172 171
f 6 171 170
f 6 170 169
f 6 169 168
f 6 168 167
f 6 167 166
f 6 166 165
f 6 165 164
f 6 164 163
f 6 163 162
f 6 162 161
f 6 161 160
f 6 160 159
f 6 159 158
f 6 158 157
f 6 157 156
f 6 156 155
f 6 155 154
f 6 154 153
f 6 153 152
f 6 152 151
f 6 151 150
f 6 150 149
f 6 149 148
f 6 148 147
f 6 147 146
f 6 146 145
f 6 145 144
f 6 144 143
f 6 143 275
f 6 275 274
f 6 274 273
f 6 273 272
f 6 272 271
f 6 271 270
f 6 270 269
f 6 269 268
f 6 268 267
f 6 267 266
f 6 266 265
f 6 265 264
f 6 264 263
f 6 263 262
f 6 262 261
f 6 261 260
f 6 260 259
f 6 259 258
f 6 258 257
f 6 257 256
f 6 256 255
f 6 255 254
f 6 254 253
f 6 253 252
f 6 252 251
f 6 251 250
f 6 250 249
f 6 249 248
f 6 248 247
f 6 247 246
f 6 246 245
f 6 245 244
f 6 244 243
f 6 243 242
f 6 242 241
f 6 241 240
f 6 240 239
f 6 239 238
f 6 238 237
f 6 237 236
f 6 236 235
f 6 235 234
f 6 234 233
f 6 233 232
f 6 232 231
f 6 231 230
f 6 230 228
f 6 228 320
f 6 320 319
f 6 319 318
f 6 318 316
f 6 316 334
f 6 334 333
f 6 333 311
f 6 311 332
f 6 332 308
f 6 308 307
f 6 307 306
f 6 306 305
f 6 305 304
f 6 304 302
f 6 302 212
f 6 212 211
f 6 211 210
f 6 210 209
f 6 209 208
f 6 208 207
f 6 207 206
f 6 206 205
f 6 205 204
f 6 204 301
f 6 301 331
f 6 331 330
f 6 330 329
f 6 329 328
f 6 328 327
f 6 327 326
f 6 326 325
f 6 325 324
f 6 324 323
f 6 323 322
f 6 322 300
f 6 300 299
f 6 299 298
f 6 298 297
f 6 297 292
f 6 292 291
f 6 291 290
f 6 290 289
f 6 289 288
f 6 288 287
f 6 287 286
f 6 286 285
f 6 285 284
f 6 284 283
f 6 283 282
f 6 282 281
f 6 281 280
f 6 280 279
f 6 279 278
f 6 278 198
f 6 198 197
f 6 197 189
f 6 189 61
f 6 61 60
f 6 60 8
f 6 8 7
f 8 60 9
f 9 61 10
f 9 60 61
f 10 61 62
f 10 62 11
f 11 62 64
f 11 64 65
f 11 65 66
f 11 66 67
f 11 67 68
f 11 68 69
f 11 69 70
f 11 70 71
f 11 71 72
f 11 72 73
f 11 73 74
f 11 74 75
f 11 75 76
f 11 76 77
f 11 77 78
f 11 78 63
f 12 79 80
f 12 80 81
f 12 81 82
f 12 82 83
f 12 83 84
f 12 84 85
f 12 85 86
f 12 86 87
f 12 87 88
f 12 88 89
f 12 89 90
f 12 90 91
f 12 91 92
f 12 92 93
f 12 93 94
f 12 94 95
f 12 95 96
f 12 96 97
f 12 97 98
f 12 98 99
f 12 99 100
f 12 100 101
f 12 101 102
f 12 102 103
f 12 103 104
f 12 104 105
f 12 105 106
f 12 106 107
f 12 107 108
f 12 108 109
f 12 109 110
f 12 110 111
f 12 111 112
f 12 112 113
f 12 113 114
f 12 114 115
f 12 115 116
f 12 116 117
f 12 117 118
f 12 118 119
f 12 119 120
f 12 120 121
f 12 121 122
f 12 122 123
f 12 123 124
f 12 124 125
f 12 125 126
f 12 126 127
f 12 127 128
f 12 128 129
f 12 129 130
f 12 130 131
f 12 131 132
f 12 132 133
f 12 133 134
f 12 134 135
f 12 135 136
f 12 136 137
f 12 137 138
f 12 138 139
f 12 139 140
f 12 140 141
f 12 141 142
f 12 142 13
f 13 142 143
f 13 143 144
f 13 144 14
f 14 144 15
f 15 144 145
f 15 145 16
f 16 145 17
f 17 145 146
f 17 146 18
f 18 146 19
f 19 146 20
f 20 146 21
f 21 146 147
f 21 147 22
f 22 147 148
f 22 148 149
f 22 149 150
f 22 150 23
f 23 150 151
f 23 151 24
f 24 151 25
f 25 151 26
f 26 151 27
f 27 151 28
f 28 151 152
f 28 152 153
f 28 153 29
f 29 153 154
f 29 154 30
f 30 154 155
f 30 155 31
f 31 155 156
f 31 156 32
f 32 156 33
f 33 156 157
f 33 157 158
f 33 158 34
f 34 158 35
f 35 158 159
f 35 159 36
f 36 159 37
f 37 159 160
f 37 160 161
f 37 161 162
f 37 162 38
f 38 162 163
f 38 163 39
f 39 163 164
f 39 164 40
f 40 164 41
f 41 164 165
f 41 165 166
f 41 166 42
f 42 166 43
f 43 166 44
f 44 166 45
f 45 166 167
f 45 167 168
f 45 168 169
f 45 169 170
f 45 170 46
f 46 170 171
f 46 171 47
f 47 171 172
f 47 172 173
f 47 173 48
f 48 173 174
f 48 174 175
f 48 175 49
f 49 175 50
f 50 175 51
f 51 175 52
f 52 176 177
f 52 177 178
f 52 178 53
f 52 175 179
f 52 179 180
f 52 180 181
f 52 181 182
f 52 182 176
f 53 178 183
f 53 183 184
f 53 184 185
f 53 185 186
f 53 186 54
f 54 187 55
f 54 186 187
f 55 187 57
f 55 57 56
f 57 187 186
f 57 186 188
f 57 188 58
f 61 189 68
f 61 68 67
f 61 67 66
f 61 66 65
f 61 65 64
f 61 64 62
f 63 78 191
f 63 191 192
f 63 192 193
f 63 193 194
f 63 194 195
f 63 195 196
f 63 196 190
f 68 189 69
f 69 189 70
f 70 189 71
f 71 189 72
f 72 189 73
f 73 189 197
f 73 197 74
f 74 197 75
f 75 197 76
f 76 197 77
f 77 197 198
f 77 198 78
f 78 198 199
f 78 199 192
f 78 192 191
f 79 190 200
f 79 200 201
f 79 201 80
f 80 201 81
f 81 201 82
f 82 201 83
f 83 201 84
f 84 201 85
f 85 201 202
f 85 202 203
f 85 203 86
f 86 203 204
f 86 204 205
f 86 205 206
f 86 206 207
f 86 207 208
f 86 208 87
f 87 208 209
f 87 209 210
f 87 210 88
f 88 210 211
f 88 211 212
f 88 212 213
f 88 213 89
f 89 213 214
f 89 214 90
f 90 214 91
f 91 214 92
f 92 214 215
f 92 215 216
f 92 216 93
f 93 217 218
f 93 218 219
f 93 219 94
f 93 216 220
f 93 220 221
f 93 221 217
f 94 219 95
f 95 219 96
f 96 218 222
f 96 222 97
f 96 219 218
f 97 222 223
f 97 223 98
f 98 223 224
f 98 224 225
f 98 225 99
f 99 225 226
f 99 226 227
f 99 227 100
f 100 227 101
f 101 227 228
f 101 228 102
f 102 229 103
f 102 228 230
f 102 230 231
f 102 231 229
f 103 229 232
f 103 232 104
f 104 232 233
f 104 233 105
f 105 233 106
f 106 233 234
f 106 234 235
f 106 235 107
f 107 235 236
f 107 236 237
f 107 237 108
f 108 237 238
f 108 238 239
f 108 239 109
f 109 239 110
f 110 239 111
f 111 239 112
f 112 239 240
f 112 240 113
f 113 240 241
f 113 241 242
f 113 242 243
f 113 243 114
f 114 243 244
f 114 244 245
f 114 245 246
f 114 246 115
f 115 246 116
f 116 246 247
f 116 247 117
f 117 247 118
f 118 247 119
f 119 247 248
f 119 248 249
f 119 249 120
f 120 249 250
f 120 250 251
f 120 251 252
f 120 252 121
f 121 252 253
f 121 253 122
f 122 253 254
f 122 254 255
f 122 255 256
f 122 256 123
f 123 256 257
f 123 257 258
f 123 258 124
f 124 258 259
f 124 259 125
f 125 259 126
f 126 259 260
f 126 260 127
f 127 260 261
f 127 261 128
f 128 261 262
f 128 262 129
f 129 262 263
f 129 263 264
f 129 264 130
f 130 264 265
f 130 265 266
f 130 266 267
f 130 267 131
f 131 267 268
f 131 268 132
f 132 268 133
f 133 268 134
f 134 268 269
f 134 269 270
f 134 270 135
f 135 270 271
f 135 271 272
f 135 272 136
f 136 272 137
f 137 272 273
f 137 273 274
f 137 274 138
f 138 274 275
f 138 275 139
f 139 275 140
f 140 275 141
f 141 275 142
f 142 275 143
f 176 182 177
f 177 182 183
f 177 183 178
f 182 276 277
f 182 277 183
f 183 277 276
f 183 276 186
f 183 186 184
f 184 186 185
f 186 276 188
f 190 196 200
f 192 199 198
f 192 198 278
f 192 278 193
f 193 278 279
f 193 279 280
f 193 280 281
f 193 281 282
f 193 282 194
f 194 282 283
f 194 283 284
f 194 284 285
f 194 285 195
f 195 201 196
f 195 285 286
f 195 286 287
f 195 287 288
f 195 288 289
f 195 289 290
f 195 290 291
f 195 291 292
f 195 292 201
f 196 201 200
f 201 293 294
f 201 294 295
f 201 295 296
f 201 296 202
f 201 292 297
f 201 297 298
f 201 298 299
f 201 299 300
f 201 300 293
f 202 296 203
f 203 296 301
f 203 301 204
f 212 302 214
f 212 214 213
f 214 302 303
f 214 303 304
f 214 304 305
f 214 305 215
f 215 305 216
f 216 305 306
f 216 306 307
f 216 307 308
f 216 308 220
f 217 221 309
f 217 309 218
f 218 309 310
f 218 310 311
f 218 311 312
f 218 312 313
f 218 313 314
f 218 314 222
f 220 308 315
f 220 315 309
f 220 309 221
f 222 314 223
f 223 314 224
f 224 314 313
f 224 313 316
f 224 316 317
f 224 317 225
f 225 317 318
f 225 318 226
f 226 318 319
f 226 319 320
f 226 320 321
f 226 321 227
f 227 321 228
f 228 321 320
f 229 231 232
f 293 296 294
f 293 300 322
f 293 322 323
f 293 323 324
f 293 324 325
f 293 325 326
f 293 326 327
f 293 327 328
f 293 328 296
f 294 296 295
f 296 328 329
f 296 329 330
f 296 330 331
f 296 331 301
f 302 304 303
f 308 332 310
f 308 310 315
f 309 315 310
f 310 332 311
f 311 333 312
f 312 333 334
f 312 334 313
f 313 334 316
f 316 318 317

