# https://github.com/mikedh/trimesh
v -0.09128305 -0.42971516 0.25175795
v -0.09126504 -0.43626362 0.23416755
v -0.09126504 -0.43609399 0.23500492
v -0.09126504 -0.43242955 0.24532874
v -0.09126504 -0.43015623 0.25081381
v -0.09128305 -0.41291982 0.29158083
v -0.09128305 -0.24561124 0.25175795
v -0.08580641 -0.43707794 0.23416755
v -0.09126504 -0.09601408 0.23416755
v -0.08497772 -0.43701008 0.23500492
v -0.08497772 -0.43351531 0.24500279
v -0.07580794 -0.43080091 0.25175795
v -0.08542810 -0.41305554 0.29158083
v -0.09128305 -0.24561124 0.29158083
v -0.08499573 -0.43717974 0.23416755
v -0.09126504 -0.09608194 0.23426871
v -0.08411299 -0.09421580 0.23416755
v -0.07497925 -0.43748510 0.23416755
v -0.07497925 -0.43721366 0.23500492
v -0.07497925 -0.43375280 0.24500279
v -0.07438475 -0.43080091 0.25175795
v -0.07497925 -0.41163048 0.29158083
v -0.06400795 -0.43035981 0.25175795
v -0.05496429 -0.42805257 0.25575936
v -0.04520002 -0.42808652 0.25416890
v -0.04520002 -0.42228448 0.26577970
v -0.04201132 -0.41970581 0.26963496
v -0.09126504 -0.14036052 0.29158083
v -0.09126504 -0.13489780 0.28568551
v -0.09126504 -0.11440411 0.26075548
v -0.07497925 -0.09211214 0.23416755
v -0.06498078 -0.43690830 0.23416755
v -0.06498078 -0.43667078 0.23500492
v -0.06498078 -0.43314207 0.24500279
v -0.05496429 -0.43029195 0.25075760
v -0.05496429 -0.42988479 0.25175795
v -0.05496429 -0.40854287 0.29158083
v -0.05209986 -0.42968121 0.25175795
v -0.03909284 -0.42835796 0.25175795
v -0.03496735 -0.42628822 0.25500628
v -0.03496735 -0.42208090 0.26360479
v -0.04736185 -0.42934191 0.25175795
v -0.04201132 -0.42981693 0.24945940
v -0.03496735 -0.41909507 0.26861215
v -0.04496582 -0.40888214 0.28828192
v -0.05498230 -0.14453390 0.29158083
v -0.03359819 -0.09329969 0.23416755
v -0.04170506 -0.09248537 0.23416755
v -0.05496429 -0.09119603 0.23416755
v -0.06020673 -0.09099245 0.23416755
v -0.06498078 -0.09085673 0.23416755
v -0.07092582 -0.09156926 0.23416755
v -0.05492826 -0.43619576 0.23416755
v -0.05496429 -0.43595827 0.23500492
v -0.05496429 -0.43246347 0.24500279
v -0.04867696 -0.43008837 0.25027430
v -0.04465956 -0.40667671 0.29158083
v -0.03496735 -0.42754364 0.25175795
v -0.02927453 -0.42628822 0.25175795
v -0.02496888 -0.42408276 0.25500628
v -0.01905987 -0.42031655 0.26060373
v -0.02496888 -0.42106301 0.26184011
v -0.03496735 -0.42917228 0.24745308
v -0.04496582 -0.43500823 0.23500492
v -0.03496735 -0.43080091 0.24245696
v -0.03496735 -0.41512525 0.27499640
v -0.03496735 -0.41095188 0.28159982
v -0.05134322 -0.14500892 0.29158083
v -0.02916643 -0.09978031 0.24023707
v -0.02632002 -0.09458902 0.23416755
v -0.04496582 -0.14595896 0.29158083
v -0.04496582 -0.43524572 0.23416755
v -0.03496735 -0.40409803 0.29158083
v -0.03496735 -0.40769461 0.28660718
v -0.02563544 -0.42795080 0.24428906
v -0.02516705 -0.42527032 0.25175795
v -0.01542079 -0.42133445 0.25451171
v -0.01071881 -0.42058799 0.25175795
v -0.00915148 -0.42031655 0.25084752
v -0.01241224 -0.41882363 0.25751838
v -0.00562049 -0.41176620 0.26452646
v -0.00938568 -0.41023934 0.27044985
v -0.01497041 -0.41129118 0.27195600
v -0.01497041 -0.40793210 0.27695775
v -0.02251880 -0.40911967 0.27882355
v -0.02916643 -0.41020542 0.28036344
v -0.02496888 -0.41787359 0.26683626
v -0.02941865 -0.43012232 0.24048436
v -0.03496735 -0.43341351 0.23416755
v 0.01846592 -0.15725765 0.29158083
v -0.02559941 -0.09475867 0.23416755
v -0.02496888 -0.40111220 0.29148528
v -0.02496888 -0.40101039 0.29158083
v -0.01924003 -0.40019608 0.29029948
v -0.02592369 -0.43107235 0.23416755
v -0.02275300 -0.42920619 0.23744397
v -0.01497041 -0.42432028 0.24500279
v -0.01529468 -0.42221662 0.25175795
v -0.00001774 -0.41997725 0.23993361
v -0.00190934 -0.41916293 0.24500279
v 0.00499050 -0.41614318 0.24500279
v 0.01482684 -0.41183406 0.24471055
v 0.01138592 -0.41068044 0.25125214
v -0.00825072 -0.41950223 0.25175795
v -0.01588919 -0.42795080 0.23416755
v -0.00569255 -0.42401493 0.23416755
v -0.00689957 -0.42119873 0.24500279
v 0.01041310 -0.41088402 0.25175795
v -0.00273805 -0.40854287 0.26754996
v -0.00003576 -0.39995858 0.27997005
v -0.00666537 -0.40141755 0.28212810
v -0.01255636 -0.39907640 0.28879333
v -0.01552888 -0.40246940 0.28527525
v 0.02277157 -0.15827554 0.29158083
v -0.01659178 -0.09791416 0.23416755
v -0.01810506 -0.39873710 0.29158083
v -0.01370934 -0.39721024 0.29158083
v -0.02513102 -0.43083483 0.23416755
v 0.00535081 -0.41885757 0.23596030
v 0.02071783 -0.41047686 0.24118684
v -0.00399911 -0.42279345 0.23596030
v -0.00428736 -0.42343810 0.23416755
v 0.00018043 -0.42157197 0.23416755
v 0.01805157 -0.40891609 0.24785209
v 0.01623202 -0.40766066 0.25175795
v 0.01480882 -0.40671062 0.25475338
v 0.01023294 -0.40009430 0.27024192
v 0.00499050 -0.39849961 0.27765462
v 0.00522470 -0.39351189 0.28529212
v 0.00205401 -0.39120466 0.29137850
v -0.00398110 -0.39816028 0.28527525
v -0.00780033 -0.39510661 0.29158083
v 0.02797798 -0.16207570 0.29158083
v 0.04078683 -0.14894480 0.27075896
v 0.04006622 -0.13995336 0.26019347
v -0.01497041 -0.09859276 0.23416755
v 0.00329707 -0.42024869 0.23416755
v 0.01498897 -0.41465026 0.23500492
v 0.02107813 -0.41149476 0.23416755
v 0.02163660 -0.41101974 0.23500492
v 0.02214103 -0.41081616 0.23416755
v 0.02664485 -0.40732139 0.23500492
v 0.03095049 -0.40084076 0.24500279
v 0.03003172 -0.40002644 0.25006634
v 0.02188882 -0.40423375 0.25175795
v 0.02023141 -0.40012825 0.26027215
v 0.01212455 -0.39134037 0.28215620
v 0.00871966 -0.38920277 0.28881583
v 0.00133340 -0.39134037 0.29158083
v 0.00753065 -0.38760808 0.29158083
v 0.00223417 -0.39089930 0.29158083
v 0.03258988 -0.16709733 0.29158083
v 0.03727385 -0.17306900 0.29158083
v 0.03891324 -0.17164394 0.28893384
v 0.05132576 -0.16753840 0.27162442
v 0.04948820 -0.16088814 0.26865709
v 0.05053309 -0.15868270 0.26200309
v 0.04907385 -0.15220207 0.23416755
v 0.04467813 -0.14561966 0.23416755
v 0.04457003 -0.14548394 0.23416755
v 0.04004820 -0.13985157 0.23416755
v 0.03531019 -0.13472815 0.23416755
v 0.03493187 -0.13432099 0.23416755
v 0.03422927 -0.13357453 0.23416755
v 0.02511355 -0.12397236 0.23416755
v 0.02428485 -0.12312411 0.23416755
v 0.02053767 -0.11935788 0.23416755
v 0.01515111 -0.11477734 0.23416755
v 0.01430439 -0.11420053 0.23416755
v 0.00864760 -0.11053610 0.23416755
v 0.00499050 -0.10856816 0.23416755
v 0.00354928 -0.10782170 0.23416755
v -0.00059423 -0.10571805 0.23416755
v -0.01100705 -0.10049284 0.23416755
v 0.01450256 -0.41505742 0.23416755
v 0.02172668 -0.41108760 0.23416755
v 0.02673492 -0.40735531 0.23416755
v 0.03260790 -0.40240154 0.23416755
v 0.03249981 -0.40229976 0.23500492
v 0.04136332 -0.39127252 0.24500279
v 0.04035446 -0.39032248 0.25090373
v 0.03864301 -0.38899922 0.25756896
v 0.03195935 -0.39130646 0.26207054
v 0.02691508 -0.39795673 0.25673720
v 0.02752759 -0.40063718 0.25175795
v 0.02414072 -0.40145150 0.25404528
v 0.02208699 -0.39134037 0.27214146
v 0.01880821 -0.38920277 0.27880108
v 0.01525920 -0.38720092 0.28529212
v 0.02024943 -0.38017741 0.29027137
v 0.01720485 -0.38129711 0.29158083
v 0.01338561 -0.38390970 0.29158083
v 0.04073278 -0.17866744 0.29158083
v 0.04871354 -0.19200191 0.29158083
v 0.05746896 -0.18423195 0.27512002
v 0.06103598 -0.18704814 0.27187732
v 0.05161400 -0.19719319 0.29158083
v 0.05134377 -0.15647724 0.23416755
v 0.06420667 -0.18334977 0.23416755
v 0.06121613 -0.17659771 0.23416755
v 0.06045949 -0.17500299 0.23416755
v 0.05595568 -0.16580799 0.23416755
v 0.03302225 -0.40202832 0.23416755
v 0.03750805 -0.39765134 0.23500492
v 0.04280454 -0.39266366 0.23500492
v 0.04781278 -0.38787952 0.23500492
v 0.04635355 -0.38631874 0.24500279
v 0.05121766 -0.38136497 0.24500279
v 0.05022683 -0.38027921 0.25060585
v 0.04460606 -0.38465616 0.25409022
v 0.04221004 -0.38234892 0.26314396
v 0.03588668 -0.38574192 0.26594266
v 0.02873462 -0.38913494 0.26873577
v 0.03237370 -0.38187391 0.27499640
v 0.03003172 -0.38000777 0.28004310
v 0.02691508 -0.37678441 0.28671396
v 0.03013981 -0.37013415 0.29016459
v 0.02738347 -0.37152529 0.29158083
v 0.02156454 -0.37749696 0.29158083
v 0.05891018 -0.19230728 0.27853695
v 0.06474712 -0.18474090 0.23416755
v 0.06045949 -0.19895755 0.28065568
v 0.06179262 -0.20503101 0.28257206
v 0.08052850 -0.25935286 0.27097812
v 0.09202223 -0.25545090 0.23416755
v 0.05373980 -0.20157015 0.29158083
v 0.04248026 -0.39317259 0.23416755
v 0.04788484 -0.38794738 0.23416755
v 0.05219049 -0.38333291 0.23416755
v 0.05249675 -0.38285789 0.23500492
v 0.05750499 -0.37600404 0.23500492
v 0.05644209 -0.37403610 0.24415979
v 0.05910835 -0.36853945 0.24693042
v 0.05085736 -0.37865058 0.25175795
v 0.04887568 -0.37831128 0.25727671
v 0.04574103 -0.37569866 0.26597640
v 0.03979599 -0.37980419 0.26980919
v 0.03756209 -0.36745369 0.28498864
v 0.04990255 -0.34987795 0.28990608
v 0.04511049 -0.35316917 0.29158083
v 0.03156301 -0.36721617 0.29158083
v 0.05546927 -0.20516673 0.29158083
v 0.05826163 -0.20503101 0.28757381
v 0.05957675 -0.21093482 0.28943962
v 0.06089186 -0.21778867 0.29158083
v 0.06316178 -0.21459925 0.28565741
v 0.07004361 -0.24958104 0.29011402
v 0.07033186 -0.25504375 0.29070413
v 0.07083629 -0.26400125 0.29158083
v 0.07092635 -0.26501918 0.29158083
v 0.07460147 -0.27499458 0.28498864
v 0.08364514 -0.26501918 0.26499853
v 0.09054498 -0.25911534 0.24105197
v 0.09276086 -0.26417091 0.23416755
v 0.05255079 -0.38292575 0.23416755
v 0.05296515 -0.38238287 0.23416755
v 0.05755904 -0.37613976 0.23416755
v 0.06065766 -0.37105027 0.23500492
v 0.06006316 -0.37010023 0.24026518
v 0.06181064 -0.36511251 0.24415979
v 0.06213491 -0.36066771 0.25175795
v 0.06065766 -0.36328030 0.25175795
v 0.05854988 -0.36663938 0.25175795
v 0.05804545 -0.36507860 0.25584927
v 0.05224453 -0.37498614 0.25437123
v 0.05988301 -0.35978553 0.25974387
v 0.05107354 -0.37166101 0.26214921
v 0.04929003 -0.36898053 0.26880321
v 0.04968637 -0.35958195 0.27953729
v 0.03992210 -0.36989665 0.27993071
v 0.04905583 -0.34906363 0.29158083
v 0.05192026 -0.35293168 0.28324085
v 0.05543324 -0.34539920 0.28554502
v 0.05291110 -0.34366879 0.29158083
v 0.05114560 -0.34638318 0.29158083
v 0.05867598 -0.21239381 0.29158083
v 0.06240514 -0.22253886 0.29158083
v 0.06901674 -0.24818991 0.29158083
v 0.06944911 -0.25100610 0.29158083
v 0.06988147 -0.25504375 0.29158083
v 0.07141277 -0.27499458 0.29158083
v 0.07451139 -0.28496999 0.28498864
v 0.07836667 -0.28496999 0.27555275
v 0.08020422 -0.28496999 0.27056226
v 0.08288850 -0.27499458 0.26499853
v 0.08593307 -0.27499458 0.25500628
v 0.09247261 -0.26495132 0.23500492
v 0.09270681 -0.26495132 0.23416755
v 0.06072972 -0.37111813 0.23416755
v 0.07040392 -0.35076016 0.24167016
v 0.06750347 -0.35445851 0.24500279
v 0.06107201 -0.36182132 0.25307864
v 0.06953919 -0.34902972 0.24833541
v 0.06674682 -0.35218522 0.25175795
v 0.06343201 -0.35584965 0.25584927
v 0.07016972 -0.34034365 0.26048571
v 0.07065614 -0.33121651 0.27143335
v 0.06022530 -0.35038692 0.27050605
v 0.05858590 -0.34760466 0.27716008
v 0.05854988 -0.35764793 0.26499853
v 0.05350560 -0.36538395 0.26528513
v 0.05150591 -0.36233026 0.27287206
v 0.05505491 -0.35496747 0.27501887
v 0.05892820 -0.33776498 0.28784356
v 0.05419018 -0.34163299 0.29158083
v 0.07128666 -0.28496999 0.29158083
v 0.07099842 -0.29202741 0.29158083
v 0.07092635 -0.29494539 0.29144594
v 0.07402499 -0.29494539 0.28498864
v 0.07824056 -0.29402927 0.27401289
v 0.07998803 -0.29005948 0.27003399
v 0.08200575 -0.28496999 0.26499853
v 0.08479811 -0.28496999 0.25500628
v 0.08809491 -0.29406321 0.23416755
v 0.08045644 -0.30498865 0.26176143
v 0.08007811 -0.31051922 0.26036209
v 0.06359415 -0.36497679 0.23416755
v 0.07040392 -0.35076016 0.23829257
v 0.07804239 -0.33389696 0.23416755
v 0.07595262 -0.33498272 0.24500279
v 0.07188118 -0.34543315 0.24500279
v 0.07398896 -0.33498272 0.25500628
v 0.07094437 -0.34204015 0.25500628
v 0.06898071 -0.34804577 0.25175795
v 0.06845827 -0.34706178 0.25500628
v 0.07155690 -0.33471128 0.26429042
v 0.07550223 -0.32497340 0.26499853
v 0.07184514 -0.32453230 0.27485588
v 0.06907079 -0.32755208 0.27808735
v 0.06053155 -0.34095439 0.28117269
v 0.06047751 -0.33111471 0.29078281
v 0.05955873 -0.33186117 0.29158083
v 0.05705461 -0.33654350 0.29158083
v 0.07083629 -0.29494539 0.29158083
v 0.07049400 -0.30166352 0.29074907
v 0.07225949 -0.30498865 0.28547758
v 0.07658315 -0.30498865 0.27499640
v 0.07960972 -0.29670975 0.26865709
v 0.08090682 -0.29402927 0.26518959
v 0.07910529 -0.30498865 0.26676318
v 0.08409552 -0.30498865 0.24500279
v 0.08793277 -0.29501325 0.23416755
v 0.07849278 -0.31428546 0.26421735
v 0.07950163 -0.31716949 0.25678217
v 0.08090682 -0.32541448 0.23416755
v 0.07955568 -0.32846817 0.23737653
v 0.07833064 -0.32463408 0.25175795
v 0.07813247 -0.32398942 0.25407335
v 0.07463750 -0.33498272 0.25175795
v 0.07476361 -0.31499797 0.27499640
v 0.07031384 -0.32086787 0.28055450
v 0.06674682 -0.32453230 0.28433111
v 0.06833217 -0.31499797 0.28726470
v 0.06265736 -0.32341260 0.29158083
v 0.06103598 -0.32802707 0.29158083
v 0.06964728 -0.30240998 0.29158083
v 0.06689094 -0.31079066 0.29158083
v 0.06944911 -0.30834770 0.28913614
v 0.07126865 -0.31499797 0.28226858
v 0.08593307 -0.30498865 0.23500492
v 0.08625735 -0.30410647 0.23416755
v 0.07923140 -0.32168218 0.25175795
v 0.07998803 -0.32005355 0.25010568
v 0.08200575 -0.31496406 0.24500279
v 0.08607720 -0.30498865 0.23416755
v 0.08108696 -0.32480374 0.23416755
v 0.08097887 -0.32507518 0.23442607
v 0.08040239 -0.32141075 0.24500279
v 0.08391537 -0.31414974 0.23416755
f 1 2 3
f 1 3 4
f 1 4 5
f 1 5 6
f 1 6 14
f 1 14 7
f 1 7 9
f 1 9 2
f 2 8 3
f 2 9 17
f 2 17 31
f 2 31 52
f 2 52 51
f 2 51 50
f 2 50 49
f 2 49 48
f 2 48 47
f 2 47 70
f 2 70 91
f 2 91 115
f 2 115 136
f 2 136 174
f 2 174 173
f 2 173 172
f 2 172 171
f 2 171 170
f 2 170 169
f 2 169 168
f 2 168 167
f 2 167 166
f 2 166 165
f 2 165 164
f 2 164 163
f 2 163 162
f 2 162 161
f 2 161 160
f 2 160 159
f 2 159 158
f 2 158 198
f 2 198 202
f 2 202 201
f 2 201 200
f 2 200 199
f 2 199 221
f 2 221 225
f 2 225 254
f 2 254 288
f 2 288 314
f 2 314 342
f 2 342 361
f 2 361 365
f 2 365 369
f 2 369 366
f 2 366 345
f 2 345 319
f 2 319 317
f 2 317 289
f 2 289 257
f 2 257 256
f 2 256 255
f 2 255 229
f 2 229 228
f 2 228 227
f 2 227 203
f 2 203 178
f 2 178 177
f 2 177 141
f 2 141 176
f 2 176 139
f 2 139 175
f 2 175 137
f 2 137 123
f 2 123 122
f 2 122 106
f 2 106 105
f 2 105 118
f 2 118 95
f 2 95 89
f 2 89 72
f 2 72 53
f 2 53 32
f 2 32 18
f 2 18 15
f 2 15 8
f 3 8 10
f 3 10 11
f 3 11 4
f 4 11 5
f 5 11 6
f 6 11 12
f 6 12 13
f 6 13 22
f 6 22 37
f 6 37 57
f 6 57 73
f 6 73 93
f 6 93 116
f 6 116 117
f 6 117 132
f 6 132 149
f 6 149 151
f 6 151 150
f 6 150 192
f 6 192 191
f 6 191 219
f 6 219 218
f 6 218 241
f 6 241 240
f 6 240 271
f 6 271 275
f 6 275 274
f 6 274 305
f 6 305 333
f 6 333 332
f 6 332 355
f 6 355 354
f 6 354 357
f 6 357 356
f 6 356 334
f 6 334 307
f 6 307 306
f 6 306 281
f 6 281 250
f 6 250 249
f 6 249 280
f 6 280 279
f 6 279 278
f 6 278 277
f 6 277 245
f 6 245 276
f 6 276 242
f 6 242 226
f 6 226 197
f 6 197 194
f 6 194 193
f 6 193 153
f 6 153 152
f 6 152 133
f 6 133 114
f 6 114 90
f 6 90 71
f 6 71 68
f 6 68 46
f 6 46 28
f 6 28 14
f 7 14 9
f 8 15 10
f 9 14 16
f 9 16 17
f 10 15 18
f 10 18 19
f 10 19 20
f 10 20 11
f 11 20 12
f 12 20 21
f 12 21 13
f 13 21 23
f 13 23 24
f 13 24 25
f 13 25 26
f 13 26 27
f 13 27 22
f 14 28 29
f 14 29 30
f 14 30 16
f 16 30 17
f 17 30 31
f 18 32 33
f 18 33 19
f 19 33 20
f 20 33 34
f 20 34 35
f 20 35 36
f 20 36 23
f 20 23 21
f 22 27 37
f 23 36 24
f 24 36 38
f 24 38 25
f 25 39 40
f 25 40 41
f 25 41 26
f 25 38 42
f 25 42 43
f 25 43 39
f 26 41 27
f 27 41 44
f 27 44 45
f 27 45 37
f 28 46 47
f 28 47 29
f 29 47 48
f 29 48 49
f 29 49 50
f 29 50 51
f 29 51 30
f 30 51 52
f 30 52 31
f 32 53 33
f 33 53 54
f 33 54 55
f 33 55 34
f 34 55 56
f 34 56 35
f 35 56 36
f 36 56 38
f 37 45 57
f 38 56 42
f 39 58 40
f 39 43 58
f 40 58 59
f 40 59 60
f 40 60 61
f 40 61 62
f 40 62 41
f 41 62 44
f 42 56 43
f 43 63 58
f 43 56 55
f 43 55 54
f 43 54 64
f 43 64 65
f 43 65 63
f 44 62 66
f 44 66 45
f 45 66 67
f 45 67 57
f 46 68 47
f 47 69 70
f 47 68 71
f 47 71 69
f 53 72 64
f 53 64 54
f 57 67 74
f 57 74 73
f 58 63 59
f 59 63 75
f 59 75 76
f 59 76 60
f 60 76 77
f 60 77 61
f 61 77 78
f 61 78 79
f 61 79 80
f 61 80 81
f 61 81 82
f 61 82 83
f 61 83 84
f 61 84 85
f 61 85 86
f 61 86 87
f 61 87 62
f 62 87 67
f 62 67 66
f 63 65 88
f 63 88 75
f 64 72 89
f 64 89 65
f 65 89 88
f 67 87 86
f 67 86 74
f 69 71 90
f 69 90 70
f 70 90 91
f 73 92 93
f 73 74 92
f 74 86 94
f 74 94 92
f 75 88 95
f 75 95 96
f 75 96 97
f 75 97 98
f 75 98 77
f 75 77 76
f 77 98 78
f 78 98 97
f 78 97 79
f 79 99 100
f 79 100 101
f 79 101 102
f 79 102 103
f 79 103 104
f 79 104 80
f 79 97 105
f 79 105 106
f 79 106 107
f 79 107 99
f 80 104 103
f 80 103 108
f 80 108 81
f 81 108 103
f 81 103 109
f 81 109 110
f 81 110 82
f 82 110 111
f 82 111 83
f 83 111 84
f 84 111 112
f 84 112 113
f 84 113 85
f 85 113 86
f 86 113 94
f 88 89 95
f 90 114 91
f 91 114 115
f 92 94 116
f 92 116 93
f 94 113 112
f 94 112 117
f 94 117 116
f 95 118 96
f 96 105 97
f 96 118 105
f 99 119 120
f 99 120 101
f 99 101 100
f 99 107 121
f 99 121 122
f 99 122 123
f 99 123 119
f 101 120 102
f 102 120 124
f 102 124 103
f 103 124 125
f 103 125 126
f 103 126 127
f 103 127 110
f 103 110 109
f 106 122 121
f 106 121 107
f 110 127 128
f 110 128 129
f 110 129 130
f 110 130 131
f 110 131 111
f 111 131 112
f 112 131 132
f 112 132 117
f 114 133 134
f 114 134 135
f 114 135 115
f 115 135 136
f 119 123 137
f 119 137 138
f 119 138 120
f 120 138 139
f 120 139 140
f 120 140 141
f 120 141 142
f 120 142 143
f 120 143 144
f 120 144 124
f 124 144 145
f 124 145 146
f 124 146 125
f 125 146 126
f 126 146 127
f 127 146 147
f 127 147 148
f 127 148 128
f 128 148 129
f 129 148 130
f 130 149 132
f 130 132 131
f 130 148 150
f 130 150 151
f 130 151 149
f 133 152 134
f 134 152 153
f 134 153 154
f 134 154 155
f 134 155 156
f 134 156 135
f 135 156 157
f 135 157 158
f 135 158 159
f 135 159 160
f 135 160 161
f 135 161 162
f 135 162 163
f 135 163 164
f 135 164 165
f 135 165 166
f 135 166 167
f 135 167 168
f 135 168 169
f 135 169 170
f 135 170 171
f 135 171 172
f 135 172 173
f 135 173 174
f 135 174 136
f 137 175 138
f 138 175 139
f 139 176 140
f 140 176 141
f 141 177 142
f 142 177 178
f 142 178 179
f 142 179 143
f 143 179 180
f 143 180 181
f 143 181 144
f 144 181 182
f 144 182 183
f 144 183 184
f 144 184 185
f 144 185 145
f 145 185 186
f 145 186 146
f 146 184 183
f 146 183 187
f 146 187 188
f 146 188 147
f 146 186 184
f 147 188 148
f 148 188 189
f 148 189 190
f 148 190 191
f 148 191 192
f 148 192 150
f 153 193 154
f 154 193 194
f 154 194 155
f 155 195 196
f 155 196 156
f 155 194 197
f 155 197 195
f 156 196 157
f 157 198 158
f 157 196 199
f 157 199 200
f 157 200 201
f 157 201 202
f 157 202 198
f 178 203 179
f 179 203 204
f 179 204 180
f 180 205 206
f 180 206 207
f 180 207 181
f 180 204 205
f 181 207 208
f 181 208 209
f 181 209 210
f 181 210 182
f 182 210 211
f 182 211 212
f 182 212 183
f 183 212 213
f 183 213 187
f 184 186 185
f 187 213 188
f 188 213 190
f 188 190 189
f 190 213 212
f 190 212 214
f 190 214 215
f 190 215 216
f 190 216 217
f 190 217 218
f 190 218 219
f 190 219 191
f 195 197 220
f 195 220 196
f 196 221 199
f 196 220 222
f 196 222 223
f 196 223 224
f 196 224 225
f 196 225 221
f 197 226 220
f 203 227 204
f 204 227 205
f 205 227 206
f 206 228 229
f 206 229 230
f 206 230 208
f 206 208 207
f 206 227 228
f 208 230 231
f 208 231 232
f 208 232 209
f 209 232 233
f 209 233 234
f 209 234 235
f 209 235 210
f 210 235 211
f 211 235 236
f 211 236 237
f 211 237 212
f 212 237 214
f 214 237 215
f 215 237 217
f 215 217 216
f 217 237 238
f 217 238 239
f 217 239 240
f 217 240 241
f 217 241 218
f 220 226 242
f 220 242 222
f 222 242 243
f 222 243 244
f 222 244 223
f 223 244 245
f 223 245 246
f 223 246 224
f 224 247 248
f 224 248 249
f 224 249 250
f 224 250 251
f 224 251 252
f 224 252 253
f 224 253 225
f 224 246 247
f 225 253 254
f 229 255 230
f 230 255 256
f 230 256 257
f 230 257 231
f 231 257 258
f 231 258 259
f 231 259 232
f 232 259 233
f 233 260 261
f 233 261 262
f 233 262 263
f 233 263 264
f 233 264 265
f 233 265 234
f 233 259 260
f 234 265 235
f 235 265 266
f 235 266 267
f 235 267 268
f 235 268 236
f 236 268 269
f 236 269 237
f 237 269 239
f 237 239 270
f 237 270 238
f 238 270 239
f 239 271 240
f 239 269 272
f 239 272 273
f 239 273 274
f 239 274 275
f 239 275 271
f 242 276 244
f 242 244 243
f 244 276 245
f 245 277 246
f 246 277 278
f 246 278 247
f 247 278 279
f 247 279 248
f 248 279 280
f 248 280 249
f 250 281 251
f 251 281 282
f 251 282 252
f 252 282 283
f 252 283 284
f 252 284 285
f 252 285 286
f 252 286 287
f 252 287 254
f 252 254 253
f 254 287 288
f 257 289 258
f 258 289 290
f 258 290 259
f 259 290 291
f 259 291 260
f 260 291 261
f 261 292 262
f 261 291 293
f 261 293 294
f 261 294 295
f 261 295 292
f 262 292 266
f 262 266 264
f 262 264 263
f 264 266 265
f 266 295 296
f 266 296 297
f 266 297 298
f 266 298 299
f 266 299 300
f 266 300 301
f 266 301 267
f 266 292 295
f 267 301 302
f 267 302 268
f 268 302 269
f 269 302 303
f 269 303 299
f 269 299 272
f 272 299 273
f 273 299 304
f 273 304 274
f 274 304 305
f 281 306 282
f 282 306 307
f 282 307 308
f 282 308 309
f 282 309 283
f 283 309 310
f 283 310 284
f 284 310 311
f 284 311 285
f 285 312 286
f 285 311 312
f 286 312 313
f 286 313 288
f 286 288 287
f 288 313 315
f 288 315 316
f 288 316 314
f 289 317 318
f 289 318 290
f 290 318 319
f 290 319 320
f 290 320 321
f 290 321 322
f 290 322 323
f 290 323 293
f 290 293 291
f 293 323 296
f 293 296 324
f 293 324 294
f 294 324 325
f 294 325 295
f 295 325 296
f 296 323 326
f 296 326 297
f 296 325 324
f 297 326 327
f 297 327 328
f 297 328 329
f 297 329 304
f 297 304 330
f 297 330 298
f 298 330 299
f 299 330 304
f 299 303 300
f 300 303 301
f 301 303 302
f 304 329 331
f 304 331 332
f 304 332 333
f 304 333 305
f 307 334 308
f 308 334 335
f 308 335 309
f 309 335 336
f 309 336 337
f 309 337 310
f 310 337 338
f 310 338 311
f 311 338 339
f 311 339 312
f 312 339 313
f 313 339 340
f 313 340 315
f 314 341 342
f 314 316 341
f 315 340 316
f 316 343 344
f 316 344 341
f 316 340 343
f 317 319 318
f 319 345 346
f 319 346 320
f 320 346 347
f 320 347 348
f 320 348 349
f 320 349 321
f 321 349 322
f 322 326 323
f 322 349 348
f 322 348 327
f 322 327 326
f 327 348 344
f 327 344 343
f 327 343 350
f 327 350 328
f 328 350 351
f 328 351 329
f 329 351 352
f 329 352 331
f 331 352 353
f 331 353 354
f 331 354 355
f 331 355 332
f 334 356 335
f 335 356 357
f 335 357 358
f 335 358 359
f 335 359 336
f 336 359 350
f 336 350 337
f 337 340 338
f 337 350 343
f 337 343 340
f 338 340 339
f 341 360 361
f 341 361 342
f 341 344 360
f 344 348 362
f 344 362 363
f 344 363 364
f 344 364 365
f 344 365 360
f 345 366 367
f 345 367 346
f 346 367 368
f 346 368 363
f 346 363 362
f 346 362 347
f 347 362 348
f 350 359 351
f 351 359 353
f 351 353 352
f 353 359 358
f 353 358 354
f 354 358 357
f 360 365 361
f 363 368 369
f 363 369 364
f 364 369 365
f 366 369 367
f 367 369 368

