# https://github.com/mikedh/trimesh
v -0.19428554 -0.26500416 0.32573548
v -0.19403103 -0.25516567 0.32573548
v -0.19391048 -0.27286452 0.32573548
v -0.16654517 -0.37499738 0.36042586
v -0.16683984 -0.36497670 0.36042586
v -0.18977153 -0.25500950 0.32983068
v -0.19318718 -0.24501485 0.32573548
v -0.19369617 -0.27502483 0.32573548
v -0.16520569 -0.38499203 0.36042586
v -0.19299965 -0.28025642 0.32573548
v -0.16551377 -0.35498205 0.36042586
v -0.18907501 -0.24501485 0.32935190
v -0.19186109 -0.23502021 0.32573548
v -0.18975814 -0.29498810 0.32573548
v -0.18438686 -0.31599250 0.32573548
v -0.18205619 -0.32499808 0.32573548
v -0.17937726 -0.33499274 0.32573548
v -0.16229905 -0.39415377 0.36042586
v -0.19214240 -0.28447291 0.32573548
v -0.16286163 -0.34490931 0.36042586
v -0.15874946 -0.24501485 0.34942043
v -0.16499138 -0.24501485 0.34554595
v -0.17167532 -0.24501485 0.34112814
v -0.17667153 -0.24501485 0.33776981
v -0.18807040 -0.23502021 0.32870331
v -0.18963757 -0.22502555 0.32573548
v -0.17598841 -0.34480521 0.32573548
v -0.16220528 -0.37588233 0.32573548
v -0.15962011 -0.39876071 0.36042586
v -0.17199680 -0.35472178 0.32573548
v -0.16780426 -0.36476848 0.32573548
v -0.13193332 -0.24501485 0.36042586
v -0.14499313 -0.24501485 0.35524404
v -0.15375325 -0.24501485 0.35162762
v -0.15686081 -0.23502021 0.34859186
v -0.16303575 -0.21500488 0.34175974
v -0.16559415 -0.22583240 0.34222496
v -0.16931786 -0.22304744 0.33957291
v -0.17005457 -0.22971055 0.34004492
v -0.17061715 -0.23502021 0.34042186
v -0.18307419 -0.23502021 0.33206505
v -0.17403278 -0.22583240 0.33681563
v -0.18194903 -0.22502555 0.33133838
v -0.18694526 -0.22502555 0.32781026
v -0.18090425 -0.21797204 0.33064225
v -0.18685149 -0.21745148 0.32573548
v -0.15657952 -0.38426325 0.32573548
v -0.15933883 -0.39915112 0.36042586
v -0.13106267 -0.24280250 0.36042586
v -0.13035275 -0.23910657 0.36013722
v -0.13421042 -0.23546267 0.35803869
v -0.13498731 -0.22502555 0.35606918
v -0.14499313 -0.23502021 0.35363787
v -0.15185121 -0.23502021 0.35079908
v -0.15432921 -0.22518171 0.34798405
v -0.15499896 -0.21500488 0.34572932
v -0.16138822 -0.20826370 0.34079877
v -0.16804537 -0.21500488 0.33875456
v -0.17565355 -0.21479665 0.33338597
v -0.17941745 -0.21130893 0.32956582
v -0.18453421 -0.21479665 0.32676777
v -0.18583350 -0.21482268 0.32573548
v -0.15159671 -0.39079621 0.32573548
v -0.15896377 -0.39959359 0.36042586
v -0.15123504 -0.39126471 0.32573548
v -0.12916063 -0.23824765 0.36042586
v -0.12886594 -0.23244345 0.35961768
v -0.13498731 -0.21500488 0.35440528
v -0.14550212 -0.22518171 0.35177025
v -0.15056531 -0.22864340 0.35024217
v -0.14917228 -0.22198030 0.34964794
v -0.14769885 -0.21500488 0.34897220
v -0.14108188 -0.20875821 0.35047308
v -0.14464487 -0.20524448 0.34743395
v -0.15509272 -0.20495817 0.34241852
v -0.15182441 -0.19795671 0.34091762
v -0.14879721 -0.19129360 0.33939976
v -0.15849496 -0.20160058 0.33918920
v -0.16483064 -0.20495817 0.33704993
v -0.17261295 -0.20501022 0.33191904
v -0.17760916 -0.20501022 0.32842827
v -0.18125251 -0.20534858 0.32573548
v -0.18469495 -0.21240211 0.32573548
v -0.15450335 -0.40461695 0.36042586
v -0.15083320 -0.39162910 0.32573548
v -0.14968127 -0.40969235 0.36042586
v -0.12720500 -0.23387498 0.36042586
v -0.12669601 -0.22502555 0.35903701
v -0.12500827 -0.20501022 0.35504708
v -0.13489355 -0.20524448 0.35181779
v -0.14270264 -0.21500488 0.35116240
v -0.12404386 -0.21596789 0.35818130
v -0.13814846 -0.20209512 0.34915894
v -0.14527442 -0.19478132 0.34265620
v -0.15509272 -0.19478132 0.33759663
v -0.14212666 -0.18775383 0.34101269
v -0.14527442 -0.18465653 0.33791921
v -0.16471009 -0.19551009 0.33223143
v -0.17072430 -0.19915399 0.33046228
v -0.17554638 -0.19673340 0.32573548
v -0.14429660 -0.39628807 0.32573548
v -0.14957410 -0.40977043 0.36042586
v -0.12211502 -0.22502555 0.36042586
v -0.11500245 -0.21287060 0.35939696
v -0.11500245 -0.20501022 0.35711846
v -0.11500245 -0.19501558 0.35332885
v -0.12415101 -0.19522379 0.35135937
v -0.13147791 -0.19868548 0.35066324
v -0.12132474 -0.22382827 0.36042586
v -0.12006564 -0.21995014 0.36001498
v -0.15486501 -0.18525517 0.33265930
v -0.13859047 -0.18109073 0.33950502
v -0.15143597 -0.17874824 0.33096144
v -0.16117390 -0.18876892 0.33073732
v -0.16784444 -0.19249088 0.32858786
v -0.17458197 -0.19535393 0.32573548
v -0.14413586 -0.39639217 0.32573548
v -0.13486676 -0.40191007 0.32573548
v -0.14433679 -0.41263348 0.36042586
v -0.10932311 -0.21058016 0.35988253
v -0.11476135 -0.21755558 0.36042586
v -0.09500420 -0.20160058 0.35945809
v -0.08956596 -0.20022112 0.35992670
v -0.10296064 -0.20868012 0.36042586
v -0.10501003 -0.19501558 0.35512519
v -0.10501003 -0.18629628 0.35153595
v -0.10501003 -0.18129896 0.34946796
v -0.11500245 -0.18856069 0.35060552
v -0.12023977 -0.18986207 0.35007238
v -0.12689692 -0.19202238 0.34899935
v -0.11528374 -0.21799806 0.36042586
v -0.13191992 -0.17887837 0.34065613
v -0.13514805 -0.17533860 0.33701935
v -0.14065325 -0.16958648 0.33042493
v -0.14439037 -0.17526051 0.33253366
v -0.14731041 -0.17208514 0.32806832
v -0.15458372 -0.17533860 0.32573548
v -0.16440201 -0.18429214 0.32573548
v -0.15810652 -0.18210581 0.32867277
v -0.17381847 -0.19446899 0.32573548
v -0.12500827 -0.40479913 0.32573548
v -0.13556328 -0.41562667 0.36042586
v -0.13976921 -0.41422117 0.36042586
v -0.10790327 -0.21201168 0.36042586
v -0.09500420 -0.20454171 0.36042586
v -0.09186985 -0.20292801 0.36042586
v -0.08857476 -0.20123620 0.36042586
v -0.08353836 -0.19899783 0.36042586
v -0.09961197 -0.18015373 0.34993657
v -0.11500245 -0.18356337 0.34831682
v -0.10501003 -0.17500025 0.34618434
v -0.12415101 -0.18593189 0.34683290
v -0.12500827 -0.17697835 0.34179708
v -0.11918159 -0.17044538 0.33969176
v -0.12500827 -0.17198102 0.33859837
v -0.13498731 -0.16828509 0.33164737
v -0.13498731 -0.16237679 0.32573548
v -0.14305091 -0.16674945 0.32573548
v -0.14523423 -0.16833714 0.32573548
v -0.15323086 -0.17424545 0.32573548
v -0.11500245 -0.40513748 0.32573548
v -0.12500827 -0.41661572 0.36042586
v -0.08297579 -0.19878960 0.36042586
v -0.08574848 -0.19532791 0.35853106
v -0.09295481 -0.17921674 0.35047308
v -0.08501178 -0.18502092 0.35417441
v -0.11551145 -0.17427146 0.34315878
v -0.09576770 -0.17552079 0.34784144
v -0.10501003 -0.16797274 0.34171900
v -0.11251104 -0.16903989 0.34084290
v -0.12500827 -0.16625492 0.33359990
v -0.12500827 -0.16125759 0.32881197
v -0.12500827 -0.15805618 0.32573548
v -0.13178597 -0.16097128 0.32573548
v -0.10501003 -0.40459090 0.32573548
v -0.11536410 -0.41544449 0.36042586
v -0.07500595 -0.19826904 0.36042586
v -0.08501178 -0.17864412 0.35095528
v -0.09500420 -0.16711384 0.34235400
v -0.09500420 -0.16211651 0.33789206
v -0.10501003 -0.16297543 0.33723328
v -0.10501003 -0.15758768 0.33223483
v -0.10501003 -0.15259036 0.32754877
v -0.11287270 -0.15894112 0.33104974
v -0.11603384 -0.16461518 0.33537245
v -0.11954325 -0.16019046 0.32983407
v -0.11701165 -0.15498491 0.32573548
v -0.09403978 -0.40185800 0.32573548
v -0.10574673 -0.41172251 0.36042586
v -0.09343703 -0.40167582 0.32573548
v -0.08436883 -0.39886481 0.32573548
v -0.06612529 -0.39204556 0.32573548
v -0.06694236 -0.19925809 0.36042586
v -0.07890380 -0.17898248 0.35079908
v -0.09500420 -0.15711918 0.33289021
v -0.10501003 -0.15071636 0.32573548
v -0.11622137 -0.15469861 0.32573548
v -0.10334909 -0.41062933 0.36042586
v -0.06497334 -0.39152497 0.32573548
v -0.06112907 -0.20094989 0.36042586
v -0.06028520 -0.20009097 0.35996065
v -0.08886944 -0.15829043 0.33192581
v -0.05745893 -0.19735807 0.35803530
v -0.05745893 -0.18975797 0.35313532
v -0.05745893 -0.18801412 0.35161066
v -0.10233109 -0.15092458 0.32573548
v -0.10115236 -0.40945810 0.36042586
v -0.05745893 -0.38798523 0.32573548
v -0.05745893 -0.20227730 0.36042586
v -0.05745893 -0.20061153 0.35973993
v -0.09302180 -0.15547943 0.32573548
v -0.05745893 -0.17617148 0.32573548
v -0.09545963 -0.40578818 0.36042586
v -0.05745893 -0.38769892 0.32619050
v -0.08901678 -0.40089497 0.36042586
v -0.05745893 -0.33889690 0.36042586
v -0.08617711 -0.39764151 0.36042586
v -0.05745893 -0.38254541 0.33261514
v -0.07002313 -0.37046856 0.36042586
v -0.05745893 -0.33999008 0.36014062
v -0.08083264 -0.39056197 0.36042586
v -0.05745893 -0.37752205 0.33772907
v -0.05745893 -0.35781908 0.35330170
v -0.05745893 -0.34774634 0.35756329
v -0.07509971 -0.38046318 0.36042586
v -0.08020309 -0.38959894 0.36042586
v -0.05745893 -0.37270695 0.34251019
v -0.05745893 -0.36622602 0.34741017
v -0.05745893 -0.36773562 0.34634054
f 1 2 7
f 1 7 13
f 1 13 26
f 1 26 46
f 1 46 62
f 1 62 83
f 1 83 82
f 1 82 100
f 1 100 116
f 1 116 140
f 1 140 138
f 1 138 137
f 1 137 160
f 1 160 159
f 1 159 158
f 1 158 157
f 1 157 174
f 1 174 173
f 1 173 187
f 1 187 197
f 1 197 196
f 1 196 206
f 1 206 211
f 1 211 212
f 1 212 208
f 1 208 199
f 1 199 192
f 1 192 191
f 1 191 190
f 1 190 188
f 1 188 175
f 1 175 161
f 1 161 141
f 1 141 118
f 1 118 117
f 1 117 101
f 1 101 85
f 1 85 65
f 1 65 63
f 1 63 47
f 1 47 28
f 1 28 31
f 1 31 30
f 1 30 27
f 1 27 17
f 1 17 16
f 1 16 15
f 1 15 14
f 1 14 19
f 1 19 10
f 1 10 8
f 1 8 3
f 1 3 4
f 1 4 5
f 1 5 2
f 2 6 7
f 2 5 6
f 3 8 4
f 4 9 18
f 4 18 29
f 4 29 48
f 4 48 64
f 4 64 84
f 4 84 86
f 4 86 102
f 4 102 119
f 4 119 143
f 4 143 142
f 4 142 162
f 4 162 176
f 4 176 189
f 4 189 198
f 4 198 207
f 4 207 213
f 4 213 215
f 4 215 217
f 4 217 221
f 4 221 226
f 4 226 225
f 4 225 219
f 4 219 216
f 4 216 209
f 4 209 200
f 4 200 193
f 4 193 177
f 4 177 163
f 4 163 148
f 4 148 147
f 4 147 146
f 4 146 145
f 4 145 124
f 4 124 144
f 4 144 121
f 4 121 131
f 4 131 109
f 4 109 103
f 4 103 87
f 4 87 66
f 4 66 49
f 4 49 32
f 4 32 20
f 4 20 11
f 4 11 5
f 4 8 10
f 4 10 9
f 5 11 12
f 5 12 6
f 6 12 7
f 7 12 13
f 9 14 15
f 9 15 16
f 9 16 17
f 9 17 18
f 9 10 19
f 9 19 14
f 11 20 21
f 11 21 22
f 11 22 23
f 11 23 24
f 11 24 25
f 11 25 12
f 12 25 13
f 13 25 26
f 17 27 18
f 18 28 29
f 18 27 30
f 18 30 31
f 18 31 28
f 20 32 33
f 20 33 34
f 20 34 21
f 21 34 35
f 21 35 36
f 21 36 37
f 21 37 38
f 21 38 22
f 22 38 39
f 22 39 40
f 22 40 23
f 23 40 41
f 23 41 24
f 24 41 25
f 25 41 42
f 25 42 43
f 25 43 44
f 25 44 26
f 26 44 45
f 26 45 46
f 28 47 29
f 29 47 48
f 32 49 50
f 32 50 33
f 33 50 51
f 33 51 52
f 33 52 53
f 33 53 34
f 34 53 54
f 34 54 35
f 35 54 55
f 35 55 36
f 36 56 57
f 36 57 58
f 36 58 38
f 36 38 37
f 36 55 56
f 38 58 45
f 38 45 43
f 38 43 42
f 38 42 39
f 39 42 41
f 39 41 40
f 43 45 44
f 45 58 59
f 45 59 60
f 45 60 61
f 45 61 46
f 46 61 62
f 47 63 48
f 48 63 65
f 48 65 64
f 49 66 50
f 50 66 67
f 50 67 52
f 50 52 51
f 52 67 68
f 52 68 53
f 53 68 69
f 53 69 54
f 54 69 70
f 54 70 55
f 55 70 71
f 55 71 72
f 55 72 56
f 56 72 73
f 56 73 57
f 57 73 74
f 57 74 75
f 57 75 76
f 57 76 77
f 57 77 78
f 57 78 79
f 57 79 80
f 57 80 58
f 58 80 60
f 58 60 59
f 60 80 81
f 60 81 82
f 60 82 83
f 60 83 62
f 60 62 61
f 64 65 84
f 65 85 86
f 65 86 84
f 66 87 67
f 67 87 88
f 67 88 68
f 68 89 90
f 68 90 73
f 68 73 91
f 68 91 69
f 68 88 92
f 68 92 89
f 69 91 70
f 70 91 71
f 71 91 72
f 72 91 73
f 73 90 93
f 73 93 74
f 74 93 75
f 75 93 94
f 75 94 76
f 76 94 77
f 77 95 78
f 77 94 96
f 77 96 97
f 77 97 95
f 78 95 98
f 78 98 99
f 78 99 79
f 79 99 80
f 80 99 81
f 81 99 100
f 81 100 82
f 85 101 102
f 85 102 86
f 87 103 88
f 88 103 92
f 89 92 104
f 89 104 105
f 89 105 106
f 89 106 107
f 89 107 108
f 89 108 90
f 90 108 93
f 92 103 109
f 92 109 110
f 92 110 104
f 93 108 96
f 93 96 94
f 95 97 111
f 95 111 98
f 96 112 97
f 96 108 112
f 97 112 113
f 97 113 111
f 98 111 114
f 98 114 99
f 99 114 115
f 99 115 116
f 99 116 100
f 101 117 102
f 102 118 119
f 102 117 118
f 104 120 105
f 104 110 121
f 104 121 120
f 105 122 123
f 105 123 106
f 105 120 124
f 105 124 122
f 106 123 125
f 106 125 126
f 106 126 127
f 106 127 128
f 106 128 129
f 106 129 107
f 107 129 130
f 107 130 108
f 108 130 112
f 109 131 110
f 110 131 121
f 111 113 114
f 112 130 132
f 112 132 133
f 112 133 134
f 112 134 135
f 112 135 113
f 113 135 134
f 113 134 136
f 113 136 137
f 113 137 138
f 113 138 139
f 113 139 114
f 114 139 115
f 115 140 116
f 115 139 138
f 115 138 140
f 118 141 142
f 118 142 143
f 118 143 119
f 120 121 144
f 120 144 124
f 122 124 145
f 122 145 123
f 123 126 125
f 123 145 146
f 123 146 147
f 123 147 148
f 123 148 149
f 123 149 126
f 126 149 127
f 127 150 129
f 127 129 128
f 127 149 151
f 127 151 150
f 129 150 152
f 129 152 130
f 130 152 132
f 132 153 154
f 132 154 155
f 132 155 133
f 132 152 153
f 133 155 134
f 134 155 156
f 134 156 157
f 134 157 158
f 134 158 136
f 136 158 159
f 136 159 160
f 136 160 137
f 141 161 162
f 141 162 142
f 148 163 164
f 148 164 149
f 149 165 151
f 149 164 166
f 149 166 165
f 150 151 167
f 150 167 153
f 150 153 152
f 151 168 169
f 151 169 170
f 151 170 167
f 151 165 168
f 153 167 154
f 154 167 170
f 154 170 171
f 154 171 156
f 154 156 155
f 156 171 172
f 156 172 173
f 156 173 174
f 156 174 157
f 161 175 162
f 162 175 176
f 163 177 166
f 163 166 164
f 165 166 178
f 165 178 168
f 166 177 178
f 168 178 179
f 168 179 169
f 169 179 180
f 169 180 181
f 169 181 170
f 170 181 182
f 170 182 183
f 170 183 184
f 170 184 185
f 170 185 171
f 171 185 186
f 171 186 172
f 172 186 173
f 173 186 187
f 175 188 176
f 176 188 190
f 176 190 191
f 176 191 192
f 176 192 189
f 177 193 194
f 177 194 178
f 178 194 179
f 179 194 180
f 180 195 196
f 180 196 183
f 180 183 182
f 180 182 181
f 180 194 195
f 183 196 184
f 184 196 197
f 184 197 187
f 184 187 185
f 185 187 186
f 189 192 199
f 189 199 198
f 193 200 201
f 193 201 194
f 194 202 195
f 194 201 203
f 194 203 204
f 194 204 205
f 194 205 202
f 195 202 206
f 195 206 196
f 198 199 208
f 198 208 207
f 200 209 201
f 201 210 203
f 201 209 210
f 202 211 206
f 202 205 212
f 202 212 211
f 203 210 209
f 203 209 216
f 203 216 220
f 203 220 224
f 203 224 223
f 203 223 228
f 203 228 229
f 203 229 227
f 203 227 222
f 203 222 218
f 203 218 214
f 203 214 208
f 203 208 212
f 203 212 205
f 203 205 204
f 207 208 213
f 208 214 215
f 208 215 213
f 214 217 215
f 214 218 217
f 216 219 220
f 217 218 221
f 218 222 221
f 219 223 224
f 219 224 220
f 219 225 223
f 221 222 226
f 222 227 226
f 223 225 228
f 225 226 229
f 225 229 228
f 226 227 229

