# https://github.com/mikedh/trimesh
v -0.24860343 -0.26614335 0.23416755
v -0.24846485 -0.26501077 0.23500492
v -0.24851105 -0.25601673 0.23416755
v -0.24851105 -0.27497083 0.23416755
v -0.24828005 -0.28499749 0.23500492
v -0.24635512 -0.27497083 0.24500279
v -0.24641672 -0.26501077 0.24500279
v -0.24837244 -0.25501740 0.23500492
v -0.24846485 -0.25508404 0.23416755
v -0.24840325 -0.28499749 0.23416755
v -0.24624732 -0.28499749 0.24500279
v -0.24774107 -0.29499087 0.23500492
v -0.24392202 -0.27497083 0.25500065
v -0.24395281 -0.26501077 0.25500065
v -0.24620113 -0.25501740 0.24500279
v -0.24714050 -0.24502404 0.23500492
v -0.24730989 -0.24585682 0.23416755
v -0.24784887 -0.29492423 0.23416755
v -0.24555436 -0.29499087 0.24500279
v -0.24597013 -0.30498421 0.23500492
v -0.24131951 -0.27497083 0.26333502
v -0.24131951 -0.26501077 0.26368347
v -0.24304426 -0.25501740 0.25500065
v -0.24486138 -0.24502404 0.24500279
v -0.24718669 -0.24502404 0.23416755
v -0.24168910 -0.23453102 0.24516015
v -0.24386042 -0.23503068 0.23500492
v -0.24392202 -0.23503068 0.23416755
v -0.24606253 -0.30498421 0.23416755
v -0.24270546 -0.30575037 0.24581768
v -0.24101153 -0.30295223 0.25185350
v -0.24162751 -0.29405814 0.25511307
v -0.24315205 -0.28499749 0.25500065
v -0.24589315 -0.30581701 0.23416755
v -0.24244368 -0.31717613 0.23416755
v -0.24252066 -0.31567714 0.23569055
v -0.24061114 -0.28499749 0.26122755
v -0.23913279 -0.27497083 0.26833677
v -0.23945618 -0.26501077 0.26868519
v -0.24065734 -0.25501740 0.26168275
v -0.24130411 -0.24579020 0.25501752
v -0.24067274 -0.23752902 0.25169614
v -0.23974878 -0.23086677 0.24859393
v -0.24031855 -0.22930115 0.24192868
v -0.24084213 -0.22813526 0.23500492
v -0.24088833 -0.22800201 0.23416755
v -0.24122712 -0.31284568 0.24302457
v -0.23985657 -0.30961448 0.24968982
v -0.23066312 -0.30218607 0.27120855
v -0.23917900 -0.29678968 0.25851873
v -0.23134069 -0.31497759 0.26248080
v -0.22963136 -0.30884832 0.26934272
v -0.23278823 -0.30528402 0.26560548
v -0.24002597 -0.29009411 0.26005861
v -0.24175070 -0.31937468 0.23416755
v -0.23791625 -0.28499749 0.26622367
v -0.22966217 -0.28839526 0.27941367
v -0.23037054 -0.28173301 0.28052640
v -0.23500577 -0.27497083 0.27499640
v -0.23585272 -0.26501077 0.27499640
v -0.23124830 -0.25501740 0.28204942
v -0.23489797 -0.25501740 0.27499640
v -0.23864001 -0.25501740 0.26667887
v -0.24007216 -0.24965429 0.26020470
v -0.23933299 -0.24299206 0.25836137
v -0.23483637 -0.23503068 0.26499853
v -0.23055533 -0.22766890 0.27141088
v -0.22975455 -0.22100666 0.26936522
v -0.23101731 -0.21764222 0.26270559
v -0.22956976 -0.21097998 0.25732732
v -0.23009335 -0.20978078 0.25065646
v -0.23335803 -0.21501064 0.24500279
v -0.23491336 -0.21501064 0.23500492
v -0.23864001 -0.22300532 0.23416755
v -0.24079594 -0.32197294 0.23416755
v -0.23977958 -0.31950793 0.23948401
v -0.23882481 -0.31567714 0.24581768
v -0.23032433 -0.32074043 0.26062059
v -0.22887680 -0.32740268 0.25731605
v -0.21931376 -0.30771574 0.28878209
v -0.22217804 -0.30461779 0.28526965
v -0.22031471 -0.30105349 0.29049057
v -0.22886139 -0.29499087 0.27796933
v -0.23163329 -0.29499087 0.27296761
v -0.22076130 -0.33176643 0.27140525
v -0.22160827 -0.32407156 0.27484465
v -0.22863039 -0.31497759 0.26747128
v -0.22089989 -0.31497759 0.28166163
v -0.22453415 -0.31497759 0.27499640
v -0.22089989 -0.29499087 0.29130545
v -0.22071511 -0.29499087 0.29158083
v -0.23086332 -0.27497083 0.28121203
v -0.23138690 -0.26501077 0.28202695
v -0.22818382 -0.25501740 0.28705114
v -0.22504234 -0.25018728 0.29158083
v -0.22445716 -0.24525721 0.29158083
v -0.22823001 -0.24409133 0.28466830
v -0.23060152 -0.24682285 0.28111652
v -0.22997016 -0.24016060 0.27993631
v -0.22940037 -0.23503068 0.27851447
v -0.23141769 -0.23503068 0.27351272
v -0.22844560 -0.22460426 0.27484465
v -0.22431856 -0.22500400 0.28499988
v -0.22029932 -0.21940772 0.29047933
v -0.22551972 -0.21501064 0.27499640
v -0.22887680 -0.21457759 0.26561671
v -0.22370258 -0.20408456 0.26588649
v -0.22752164 -0.20588337 0.25439370
v -0.22819921 -0.20381807 0.24500279
v -0.22903079 -0.20211920 0.23500492
v -0.23053993 -0.20881476 0.24500279
v -0.22909239 -0.20198596 0.23416755
v -0.23134069 -0.20691600 0.23416755
v -0.23502116 -0.21501064 0.23416755
v -0.23890181 -0.32643664 0.23416755
v -0.23867083 -0.32557055 0.23569055
v -0.23026274 -0.33056724 0.25064519
v -0.21928295 -0.33842868 0.26833677
v -0.22005293 -0.32014084 0.28009367
v -0.21797401 -0.31497759 0.28665775
v -0.21478632 -0.31461117 0.29158083
v -0.21792781 -0.30615011 0.29158083
v -0.21925215 -0.30208614 0.29158083
v -0.21976034 -0.29992092 0.29158083
v -0.21721944 -0.33503094 0.27484465
v -0.21885177 -0.32680309 0.27807051
v -0.22111548 -0.29219273 0.29158083
v -0.22725984 -0.27497083 0.28621379
v -0.22422618 -0.26807541 0.29158083
v -0.22787583 -0.26501077 0.28702867
v -0.22213185 -0.28499749 0.29158083
v -0.22510394 -0.25934786 0.29158083
v -0.22525793 -0.25455105 0.29158083
v -0.22327140 -0.23679617 0.29158083
v -0.22647448 -0.23503068 0.28499988
v -0.22113089 -0.22513725 0.29158083
v -0.22102308 -0.22467089 0.29158083
v -0.21886718 -0.21837507 0.29158083
v -0.21115208 -0.20521714 0.29158083
v -0.20973532 -0.20045364 0.28956890
v -0.21837440 -0.21274547 0.28729844
v -0.22036092 -0.20938104 0.28062758
v -0.22146967 -0.21564355 0.28437606
v -0.22188546 -0.20711587 0.27499640
v -0.21991433 -0.20012052 0.26981482
v -0.22110009 -0.19828841 0.26314956
v -0.22220884 -0.19645628 0.25500065
v -0.22150047 -0.18742895 0.23416755
v -0.22547352 -0.19502391 0.23500492
v -0.22564292 -0.19509053 0.23416755
v -0.23491336 -0.33499762 0.23416755
v -0.23460537 -0.33499762 0.23500492
v -0.22696726 -0.33433139 0.25438809
v -0.23118670 -0.33433139 0.24410921
v -0.22870740 -0.33722949 0.24685174
v -0.22066891 -0.34132677 0.26167151
v -0.21899037 -0.34798902 0.25754648
v -0.21729644 -0.34479111 0.26499853
v -0.21055150 -0.35075384 0.27081516
v -0.21223003 -0.34445801 0.27448499
v -0.21053609 -0.34076047 0.28066692
v -0.21341579 -0.31787568 0.29158083
v -0.21204524 -0.33499762 0.28270131
v -0.21138306 -0.32270581 0.29158083
v -0.22337919 -0.27497083 0.29158083
v -0.22459576 -0.26501077 0.29158083
v -0.22296342 -0.23503068 0.29158083
v -0.20904234 -0.20175278 0.29158083
v -0.20705582 -0.19852158 0.29158083
v -0.20097306 -0.18882802 0.29135603
v -0.21169105 -0.19768880 0.28290364
v -0.21871318 -0.20211920 0.27499640
v -0.21341579 -0.19462417 0.27499077
v -0.21073629 -0.18902789 0.27165815
v -0.20971993 -0.18030035 0.25944602
v -0.20828778 -0.16381130 0.23416755
v -0.23121750 -0.34205961 0.23416755
v -0.23109430 -0.34179312 0.23500492
v -0.23006254 -0.34012756 0.24018088
v -0.22034551 -0.35058728 0.25088125
v -0.21654186 -0.35435146 0.25452858
v -0.21028970 -0.36034745 0.26048571
v -0.21189123 -0.35445139 0.26428479
v -0.20822617 -0.34742272 0.27748039
v -0.20802599 -0.35741609 0.26714534
v -0.19906352 -0.35874853 0.27864373
v -0.19007027 -0.36008099 0.29009718
v -0.19869395 -0.34522417 0.29158083
v -0.20080367 -0.34192637 0.29158083
v -0.20103465 -0.34155995 0.29158083
v -0.20514630 -0.33463120 0.29158083
v -0.20810299 -0.33499762 0.28770307
v -0.20967373 -0.32936805 0.28960261
v -0.18968529 -0.35901502 0.29158083
v -0.20878056 -0.32796896 0.29158083
v -0.20108086 -0.18926108 0.29158083
v -0.20916554 -0.19102657 0.27832338
v -0.20061886 -0.18859485 0.29158083
v -0.19185661 -0.17880136 0.29158083
v -0.20106545 -0.15918104 0.24170950
v -0.20366795 -0.15844819 0.23416755
v -0.22829162 -0.34702298 0.23416755
v -0.22815302 -0.34678981 0.23500492
v -0.22142348 -0.35228616 0.24500279
v -0.21828200 -0.35728282 0.24500279
v -0.21142925 -0.36187977 0.25500065
v -0.20049568 -0.37050739 0.26074985
v -0.17668818 -0.37383851 0.29158083
v -0.18603563 -0.36367857 0.29158083
v -0.18765257 -0.36177984 0.29158083
v -0.20907316 -0.36884183 0.24749804
v -0.19957171 -0.37956804 0.24917278
v -0.18118481 -0.16737559 0.29158083
v -0.17236096 -0.15874800 0.29158083
v -0.17135999 -0.15778197 0.29158083
v -0.14040717 -0.11957401 0.27066341
v -0.12089612 -0.09908761 0.26077232
v -0.20300578 -0.15781528 0.23416755
v -0.22316360 -0.35538411 0.23416755
v -0.21942155 -0.35911494 0.23831506
v -0.21279980 -0.36527753 0.24449699
v -0.19760059 -0.37756938 0.25500065
v -0.16690956 -0.38386518 0.29158083
v -0.21028970 -0.37037414 0.24082717
v -0.20737922 -0.37670326 0.23500492
v -0.20103465 -0.38120028 0.24250191
v -0.19125603 -0.39112702 0.24224901
v -0.18926951 -0.38939485 0.24891426
v -0.16045721 -0.39036086 0.29158083
v -0.16110398 -0.38972795 0.29158083
v -0.16161217 -0.14935423 0.29158083
v -0.16133498 -0.14892119 0.29130545
v -0.14253229 -0.12840147 0.28208312
v -0.13797407 -0.13103306 0.28874838
v -0.13680372 -0.13269863 0.29158083
v -0.11501354 -0.09745537 0.26229534
v -0.12089612 -0.09908761 0.25787807
v -0.14655153 -0.12183917 0.23416755
v -0.22011453 -0.36014760 0.23416755
v -0.21672666 -0.36447805 0.23498806
v -0.21133687 -0.37170660 0.23500492
v -0.21147546 -0.37187314 0.23416755
v -0.20785660 -0.37643677 0.23416755
v -0.20750241 -0.37686983 0.23416755
v -0.20237440 -0.38253275 0.23500492
v -0.19753899 -0.38752943 0.23500492
v -0.19254959 -0.39235955 0.23500492
v -0.18679020 -0.39735621 0.23500492
v -0.18178539 -0.40142018 0.23500492
v -0.18044564 -0.40032095 0.24065858
v -0.15993363 -0.39069399 0.29158083
v -0.16058040 -0.14862138 0.29158083
v -0.15151015 -0.14222562 0.29158083
v -0.15007800 -0.13996047 0.29005784
v -0.14551978 -0.13296512 0.28524715
v -0.14505780 -0.13782856 0.29158083
v -0.14382584 -0.13702908 0.29158083
v -0.13202989 -0.13040015 0.29158083
v -0.11142547 -0.12190579 0.29158083
v -0.10860739 -0.12087314 0.29158083
v -0.10337159 -0.11904103 0.29158083
v -0.10324840 -0.11887448 0.29142910
v -0.10129267 -0.10954733 0.28059947
v -0.09936774 -0.10954733 0.28059947
v -0.10748323 -0.09752198 0.26228970
v -0.09128305 -0.09598966 0.23416755
v -0.11501354 -0.09745537 0.25634381
v -0.12854962 -0.12883453 0.29158083
v -0.12251306 -0.12633619 0.29158083
v -0.10500392 -0.09965390 0.23416755
v -0.11453617 -0.10321820 0.23416755
v -0.11619930 -0.10405098 0.23416755
v -0.12500776 -0.10884780 0.23416755
v -0.14459582 -0.12063996 0.23416755
v -0.21683446 -0.36471123 0.23416755
v -0.20249760 -0.38263267 0.23416755
v -0.19806257 -0.38722962 0.23416755
v -0.19264197 -0.39245948 0.23416755
v -0.18651301 -0.39782259 0.23416755
v -0.18192399 -0.40155345 0.23416755
v -0.17394710 -0.40694988 0.23416755
v -0.17434748 -0.40655011 0.23455532
v -0.16946585 -0.40968138 0.23416755
v -0.16826470 -0.40898186 0.23759009
v -0.15489802 -0.39375859 0.29158083
v -0.14638214 -0.13872795 0.29158083
v -0.09901355 -0.11904103 0.29158083
v -0.09869017 -0.11887448 0.29142910
v -0.09802799 -0.11534348 0.28435922
v -0.09128305 -0.11437745 0.26074985
v -0.09128305 -0.43629706 0.23416755
v -0.09500971 -0.09692238 0.23416755
v -0.09588747 -0.09715556 0.23416755
v -0.16555440 -0.41197985 0.23416755
v -0.14818388 -0.39755610 0.29158083
v -0.15392786 -0.41857547 0.23416755
v -0.09864397 -0.11914097 0.29158083
v -0.09762761 -0.12193911 0.29158083
v -0.09128305 -0.13456406 0.28534269
v -0.09128305 -0.43609717 0.23500492
v -0.09500971 -0.43556419 0.23500492
v -0.09584127 -0.43563080 0.23416755
v -0.14648993 -0.39848882 0.29158083
v -0.15060158 -0.42034096 0.23416755
v -0.09128305 -0.14036021 0.29158083
v -0.09128305 -0.13486385 0.28568551
v -0.09128305 -0.43479803 0.23871970
v -0.09128305 -0.43243295 0.24533436
v -0.09491731 -0.43180001 0.24551982
v -0.10500392 -0.43366545 0.23500492
v -0.10500392 -0.43389863 0.23416755
v -0.14190091 -0.40088722 0.29158083
v -0.14715211 -0.42183995 0.23416755
v -0.13517137 -0.40428495 0.29158083
v -0.09128305 -0.41291255 0.29158083
v -0.09128305 -0.43020108 0.25081381
v -0.09152944 -0.43026769 0.25059462
v -0.11230324 -0.41051418 0.29158083
v -0.10500392 -0.43093395 0.24241762
v -0.11829361 -0.40958142 0.29158083
v -0.10583549 -0.43373209 0.23416755
v -0.11473635 -0.43156683 0.23529154
v -0.11789323 -0.43126702 0.23416755
v -0.13546395 -0.42637029 0.23416755
v -0.14516559 -0.42227301 0.23516789
v -0.13053615 -0.41024768 0.28078493
v -0.12802604 -0.40701649 0.29158083
v -0.09479412 -0.41294587 0.29158083
v -0.10500392 -0.41161340 0.29158083
v -0.10748323 -0.41124701 0.29158083
v -0.12500776 -0.40808243 0.29158083
v -0.12249766 -0.43023440 0.23416755
v -0.13390863 -0.42696989 0.23416755
v -0.12688649 -0.42913514 0.23416755
v -0.12500776 -0.42963481 0.23416755
f 1 2 3
f 1 3 9
f 1 9 17
f 1 17 25
f 1 25 28
f 1 28 46
f 1 46 74
f 1 74 114
f 1 114 113
f 1 113 112
f 1 112 150
f 1 150 148
f 1 148 176
f 1 176 201
f 1 201 218
f 1 218 238
f 1 238 274
f 1 274 273
f 1 273 272
f 1 272 271
f 1 271 270
f 1 270 293
f 1 293 292
f 1 292 266
f 1 266 291
f 1 291 302
f 1 302 311
f 1 311 321
f 1 321 323
f 1 323 332
f 1 332 335
f 1 335 334
f 1 334 333
f 1 333 324
f 1 324 313
f 1 313 304
f 1 304 296
f 1 296 294
f 1 294 283
f 1 283 281
f 1 281 280
f 1 280 279
f 1 279 278
f 1 278 277
f 1 277 276
f 1 276 244
f 1 244 243
f 1 243 242
f 1 242 275
f 1 275 239
f 1 239 219
f 1 219 202
f 1 202 177
f 1 177 151
f 1 151 115
f 1 115 75
f 1 75 55
f 1 55 35
f 1 35 34
f 1 34 29
f 1 29 18
f 1 18 10
f 1 10 4
f 1 4 5
f 1 5 2
f 2 5 6
f 2 6 7
f 2 7 8
f 2 8 3
f 3 8 9
f 4 10 5
f 5 11 6
f 5 10 12
f 5 12 11
f 6 13 7
f 6 11 13
f 7 14 15
f 7 15 8
f 7 13 14
f 8 15 16
f 8 16 9
f 9 16 17
f 10 18 12
f 11 12 19
f 11 19 13
f 12 20 19
f 12 18 20
f 13 21 22
f 13 22 14
f 13 19 21
f 14 22 15
f 15 22 23
f 15 23 24
f 15 24 16
f 16 25 17
f 16 24 26
f 16 26 27
f 16 27 28
f 16 28 25
f 18 29 20
f 19 20 30
f 19 30 31
f 19 31 32
f 19 32 33
f 19 33 21
f 20 29 34
f 20 34 35
f 20 35 36
f 20 36 30
f 21 33 37
f 21 37 38
f 21 38 39
f 21 39 22
f 22 39 40
f 22 40 23
f 23 40 24
f 24 41 42
f 24 42 43
f 24 43 26
f 24 40 41
f 26 43 27
f 27 43 44
f 27 44 45
f 27 45 46
f 27 46 28
f 30 47 48
f 30 48 31
f 30 36 47
f 31 49 50
f 31 50 32
f 31 48 51
f 31 51 52
f 31 52 53
f 31 53 49
f 32 54 37
f 32 37 33
f 32 50 54
f 35 55 36
f 36 55 47
f 37 54 56
f 37 56 38
f 38 56 57
f 38 57 58
f 38 58 59
f 38 59 60
f 38 60 39
f 39 60 61
f 39 61 62
f 39 62 63
f 39 63 40
f 40 63 64
f 40 64 41
f 41 64 65
f 41 65 42
f 42 65 66
f 42 66 67
f 42 67 68
f 42 68 43
f 43 68 69
f 43 69 70
f 43 70 44
f 44 70 71
f 44 71 72
f 44 72 73
f 44 73 45
f 45 74 46
f 45 73 74
f 47 55 75
f 47 75 76
f 47 76 77
f 47 77 48
f 48 78 51
f 48 77 79
f 48 79 78
f 49 53 80
f 49 80 81
f 49 81 82
f 49 82 50
f 50 82 83
f 50 83 84
f 50 84 56
f 50 56 54
f 51 78 85
f 51 85 86
f 51 86 87
f 51 87 52
f 52 88 80
f 52 80 53
f 52 87 89
f 52 89 88
f 56 84 83
f 56 83 57
f 57 83 82
f 57 82 58
f 58 82 90
f 58 90 91
f 58 91 92
f 58 92 59
f 59 92 93
f 59 93 60
f 60 93 94
f 60 94 61
f 61 94 95
f 61 95 96
f 61 96 97
f 61 97 98
f 61 98 62
f 62 98 99
f 62 99 63
f 63 99 64
f 64 99 65
f 65 99 100
f 65 100 101
f 65 101 66
f 66 101 67
f 67 102 68
f 67 101 100
f 67 100 102
f 68 102 103
f 68 103 104
f 68 104 105
f 68 105 106
f 68 106 69
f 69 106 70
f 70 106 107
f 70 107 108
f 70 108 109
f 70 109 110
f 70 110 71
f 71 111 72
f 71 110 111
f 72 111 73
f 73 111 110
f 73 110 112
f 73 112 113
f 73 113 114
f 73 114 74
f 75 115 76
f 76 115 116
f 76 116 117
f 76 117 79
f 76 79 77
f 78 79 118
f 78 118 85
f 79 117 118
f 80 88 119
f 80 119 120
f 80 120 121
f 80 121 122
f 80 122 123
f 80 123 82
f 80 82 81
f 82 123 124
f 82 124 91
f 82 91 90
f 85 118 125
f 85 125 126
f 85 126 86
f 86 126 119
f 86 119 87
f 87 119 89
f 88 89 119
f 91 127 92
f 91 124 123
f 91 123 122
f 91 122 121
f 91 121 162
f 91 162 164
f 91 164 195
f 91 195 191
f 91 191 190
f 91 190 189
f 91 189 188
f 91 188 194
f 91 194 210
f 91 210 209
f 91 209 208
f 91 208 223
f 91 223 230
f 91 230 229
f 91 229 251
f 91 251 285
f 91 285 295
f 91 295 303
f 91 303 312
f 91 312 314
f 91 314 327
f 91 327 331
f 91 331 320
f 91 320 318
f 91 318 330
f 91 330 329
f 91 329 328
f 91 328 315
f 91 315 305
f 91 305 298
f 91 298 297
f 91 297 287
f 91 287 261
f 91 261 260
f 91 260 259
f 91 259 269
f 91 269 268
f 91 268 258
f 91 258 235
f 91 235 257
f 91 257 256
f 91 256 286
f 91 286 253
f 91 253 252
f 91 252 231
f 91 231 215
f 91 215 214
f 91 214 213
f 91 213 199
f 91 199 198
f 91 198 196
f 91 196 169
f 91 169 168
f 91 168 139
f 91 139 138
f 91 138 137
f 91 137 136
f 91 136 167
f 91 167 134
f 91 134 96
f 91 96 95
f 91 95 133
f 91 133 132
f 91 132 166
f 91 166 129
f 91 129 165
f 91 165 131
f 91 131 127
f 92 128 129
f 92 129 130
f 92 130 93
f 92 127 131
f 92 131 128
f 93 130 132
f 93 132 133
f 93 133 94
f 94 133 95
f 96 134 97
f 97 134 98
f 98 134 135
f 98 135 99
f 99 135 103
f 99 103 100
f 100 103 102
f 103 136 137
f 103 137 104
f 103 135 136
f 104 138 139
f 104 139 140
f 104 140 141
f 104 141 142
f 104 142 143
f 104 143 105
f 104 137 138
f 105 142 144
f 105 144 106
f 105 143 142
f 106 144 107
f 107 144 145
f 107 145 146
f 107 146 147
f 107 147 108
f 108 147 148
f 108 148 149
f 108 149 109
f 109 149 110
f 110 149 150
f 110 150 112
f 115 151 152
f 115 152 117
f 115 117 116
f 117 153 118
f 117 152 154
f 117 154 155
f 117 155 153
f 118 156 157
f 118 157 158
f 118 158 159
f 118 159 160
f 118 160 161
f 118 161 125
f 118 153 156
f 119 126 120
f 120 126 121
f 121 126 162
f 125 163 126
f 125 161 163
f 126 164 162
f 126 163 164
f 128 131 165
f 128 165 129
f 129 166 130
f 130 166 132
f 134 167 135
f 135 167 136
f 139 168 140
f 140 169 170
f 140 170 171
f 140 171 142
f 140 142 141
f 140 168 169
f 142 172 144
f 142 171 172
f 144 172 145
f 145 172 171
f 145 171 173
f 145 173 174
f 145 174 175
f 145 175 176
f 145 176 146
f 146 176 147
f 147 176 148
f 148 150 149
f 151 177 178
f 151 178 179
f 151 179 152
f 152 179 155
f 152 155 154
f 153 155 156
f 155 179 156
f 156 179 157
f 157 179 180
f 157 180 181
f 157 181 182
f 157 182 158
f 158 182 183
f 158 183 159
f 159 184 161
f 159 161 160
f 159 183 182
f 159 182 185
f 159 185 186
f 159 186 187
f 159 187 184
f 161 188 189
f 161 189 190
f 161 190 191
f 161 191 192
f 161 192 193
f 161 193 163
f 161 184 187
f 161 187 194
f 161 194 188
f 163 193 164
f 164 193 195
f 169 196 170
f 170 197 171
f 170 196 198
f 170 198 199
f 170 199 200
f 170 200 175
f 170 175 197
f 171 197 173
f 173 197 174
f 174 197 175
f 175 200 176
f 176 200 201
f 177 202 203
f 177 203 178
f 178 203 204
f 178 204 180
f 178 180 179
f 180 204 205
f 180 205 181
f 181 205 206
f 181 206 182
f 182 207 208
f 182 208 209
f 182 209 210
f 182 210 187
f 182 187 186
f 182 186 185
f 182 206 211
f 182 211 212
f 182 212 207
f 187 210 194
f 191 195 193
f 191 193 192
f 199 213 200
f 200 213 214
f 200 214 215
f 200 215 216
f 200 216 217
f 200 217 218
f 200 218 201
f 202 219 204
f 202 204 203
f 204 219 220
f 204 220 205
f 205 220 206
f 206 220 221
f 206 221 211
f 207 222 208
f 207 212 222
f 208 222 212
f 208 212 223
f 211 221 224
f 211 224 225
f 211 225 226
f 211 226 212
f 212 226 227
f 212 227 228
f 212 228 229
f 212 229 230
f 212 230 223
f 215 231 232
f 215 232 216
f 216 232 233
f 216 233 217
f 217 233 234
f 217 234 235
f 217 235 236
f 217 236 267
f 217 267 237
f 217 237 218
f 218 237 238
f 219 239 220
f 220 239 240
f 220 240 221
f 221 240 224
f 224 241 225
f 224 240 241
f 225 241 242
f 225 242 243
f 225 243 244
f 225 244 245
f 225 245 226
f 226 245 246
f 226 246 227
f 227 246 247
f 227 247 248
f 227 248 249
f 227 249 250
f 227 250 228
f 228 250 229
f 229 250 251
f 231 252 232
f 232 252 253
f 232 253 254
f 232 254 255
f 232 255 233
f 233 255 256
f 233 256 257
f 233 257 234
f 234 257 235
f 235 258 236
f 236 259 260
f 236 260 261
f 236 261 262
f 236 262 263
f 236 263 264
f 236 264 265
f 236 265 266
f 236 266 267
f 236 258 268
f 236 268 269
f 236 269 259
f 237 267 270
f 237 270 271
f 237 271 272
f 237 272 273
f 237 273 274
f 237 274 238
f 239 275 240
f 240 275 241
f 241 275 242
f 244 276 245
f 245 276 277
f 245 277 246
f 246 277 247
f 247 277 278
f 247 278 279
f 247 279 248
f 248 279 280
f 248 280 249
f 249 280 281
f 249 281 282
f 249 282 250
f 250 282 283
f 250 283 284
f 250 284 285
f 250 285 251
f 253 286 254
f 254 286 256
f 254 256 255
f 261 287 288
f 261 288 262
f 262 288 264
f 262 264 263
f 264 266 265
f 264 288 289
f 264 289 290
f 264 290 266
f 266 292 267
f 266 290 299
f 266 299 306
f 266 306 305
f 266 305 315
f 266 315 316
f 266 316 308
f 266 308 307
f 266 307 300
f 266 300 291
f 267 292 293
f 267 293 270
f 281 283 282
f 283 294 284
f 284 294 285
f 285 294 296
f 285 296 295
f 287 297 288
f 288 297 298
f 288 298 290
f 288 290 289
f 290 298 299
f 291 300 301
f 291 301 302
f 295 296 303
f 296 304 303
f 298 305 306
f 298 306 299
f 300 307 301
f 301 307 308
f 301 308 309
f 301 309 310
f 301 310 311
f 301 311 302
f 303 304 312
f 304 313 314
f 304 314 312
f 308 316 317
f 308 317 318
f 308 318 309
f 309 319 310
f 309 318 320
f 309 320 319
f 310 321 311
f 310 319 322
f 310 322 323
f 310 323 321
f 313 324 325
f 313 325 314
f 314 326 327
f 314 325 326
f 315 328 316
f 316 328 317
f 317 328 329
f 317 329 330
f 317 330 318
f 319 320 322
f 320 331 322
f 322 332 323
f 322 331 332
f 324 333 325
f 325 333 326
f 326 333 327
f 327 333 331
f 331 333 334
f 331 334 335
f 331 335 332

