# https://github.com/mikedh/trimesh
v -0.07496627 -0.41166770 0.29158416
v -0.05498984 -0.40858573 0.29158416
v -0.07496627 -0.40157890 0.31346574
v -0.07496627 -0.14258862 0.29158416
v -0.04468637 -0.40668917 0.29158416
v -0.07496627 -0.39918181 0.31846392
v -0.07496627 -0.14627643 0.29568633
v -0.02111305 -0.15905209 0.32165670
v -0.01705758 -0.15905209 0.32165670
v -0.00499148 -0.14893693 0.30276066
v 0.00129951 -0.14925303 0.30102885
v 0.00129951 -0.14925303 0.29883903
v -0.06901920 -0.14311545 0.29158416
v -0.03499910 -0.40413404 0.29158416
v -0.05963286 -0.40010375 0.31020609
v -0.07496627 -0.39523056 0.32573214
v -0.07496627 -0.15378377 0.30388063
v -0.07496627 -0.16434675 0.31530789
v -0.07496627 -0.16932529 0.32068050
v -0.07496627 -0.17414580 0.32573214
v -0.02574174 -0.16513699 0.32573214
v -0.02486759 -0.16500528 0.32573214
v -0.01452112 -0.16429406 0.32573214
v -0.00499148 -0.15217695 0.30775881
v -0.01426318 -0.16437308 0.32573214
v -0.01039400 -0.16021112 0.31977445
v 0.00436619 -0.15552232 0.30452925
v 0.01176062 -0.15841989 0.30136317
v 0.02798250 -0.16205503 0.29158416
v 0.02262297 -0.15828818 0.29212576
v 0.02278061 -0.15826184 0.29158416
v 0.01848152 -0.15723452 0.29158416
v -0.04498731 -0.14593399 0.29158416
v -0.05137861 -0.14498569 0.29158416
v -0.05498984 -0.14451155 0.29158416
v -0.06039236 -0.14395837 0.29158416
v -0.02541214 -0.40121010 0.29158416
v -0.01813235 -0.39878666 0.29158416
v -0.01373296 -0.39723253 0.29158416
v -0.00784321 -0.39515156 0.29158416
v -0.06611015 -0.39204323 0.32573214
v -0.01384760 -0.16471553 0.32573214
v -0.00817281 -0.16940433 0.32573214
v -0.00499148 -0.16761309 0.32195762
v -0.00499148 -0.16260821 0.31778190
v 0.00076929 -0.15928917 0.31060058
v 0.01842420 -0.16144916 0.29879221
v 0.02196378 -0.16811359 0.30160388
v 0.02133325 -0.17872924 0.31108201
v 0.02862736 -0.17140628 0.29883903
v 0.03226725 -0.16740236 0.29217258
v 0.03261118 -0.16708627 0.29158416
v 0.00132817 -0.39138469 0.29158416
v -0.00499148 -0.39275447 0.29324576
v -0.06496373 -0.39151642 0.32573214
v -0.00224007 -0.17493606 0.32573214
v 0.01039924 -0.17965120 0.32028931
v 0.00008144 -0.16993116 0.32006866
v 0.00675935 -0.17298678 0.31750774
v 0.01108710 -0.16900921 0.31084129
v 0.00744720 -0.16234478 0.30802962
v 0.01775068 -0.17206483 0.30827034
v 0.01406780 -0.17585801 0.31429487
v 0.01706282 -0.18281218 0.31774846
v 0.02048776 -0.18947659 0.32039964
v 0.02799683 -0.18244341 0.30828038
v 0.03143610 -0.17807069 0.30161393
v 0.03729719 -0.17306581 0.29158416
v 0.00223098 -0.39093691 0.29158416
v 0.00952509 -0.37971538 0.29975173
v -0.00499148 -0.38830274 0.29824728
v -0.05632256 -0.38748616 0.32573214
v 0.00667337 -0.18339169 0.32573214
v 0.01423976 -0.18568341 0.32207128
v 0.01171763 -0.18823855 0.32573214
v 0.01674756 -0.19324344 0.32573214
v 0.02093200 -0.19793224 0.32573214
v 0.02259431 -0.19500834 0.32233205
v 0.02758125 -0.19500834 0.31771502
v 0.03057628 -0.18910781 0.31066412
v 0.04073645 -0.17865022 0.29158416
v 0.04135266 -0.20778400 0.31161359
v 0.00753318 -0.38764420 0.29158416
v 0.01339427 -0.38393003 0.29158416
v 0.01499926 -0.38211247 0.29252696
v 0.01720613 -0.38132221 0.29158416
v 0.01499926 -0.37739733 0.29752514
v 0.02014383 -0.37012705 0.30013621
v 0.01499926 -0.37241876 0.30206192
v 0.01295003 -0.36246166 0.31210840
v 0.00862229 -0.36912608 0.30927664
v 0.00194437 -0.37118071 0.31102183
v -0.01106752 -0.36931047 0.31943345
v -0.01774544 -0.37128609 0.32112178
v -0.04488700 -0.38148028 0.32573214
v -0.04623404 -0.38221782 0.32573214
v 0.00286151 -0.38142759 0.30143672
v 0.00827836 -0.18491951 0.32573214
v 0.02521675 -0.20396446 0.32573214
v 0.02961615 -0.20059274 0.31962067
v 0.03840062 -0.21244645 0.31828004
v 0.04312961 -0.18265414 0.29158416
v 0.04052150 -0.21911086 0.32053339
v 0.04883306 -0.20214689 0.29860500
v 0.04871842 -0.19200540 0.29158416
v 0.02156253 -0.37755537 0.29158416
v 0.02408466 -0.36401582 0.30192819
v 0.02289525 -0.35297871 0.31257311
v 0.01961361 -0.35964310 0.30969790
v 0.02354011 -0.37347245 0.29356003
v 0.03004606 -0.36003822 0.30004594
v 0.01597372 -0.35574457 0.31567231
v 0.01231950 -0.35187235 0.32140598
v -0.00499148 -0.36744022 0.31784207
v 0.00764783 -0.35853678 0.31877482
v 0.00098424 -0.36059141 0.32048991
v -0.02499656 -0.36970559 0.32573214
v -0.03511374 -0.37581682 0.32573214
v 0.02557501 -0.20414886 0.32551816
v 0.02577564 -0.20483373 0.32573214
v 0.03173703 -0.20725715 0.32166004
v 0.03668098 -0.22416843 0.32573214
v 0.03702491 -0.22501138 0.32573214
v 0.04165359 -0.22501138 0.32159987
v 0.04715642 -0.22448453 0.31477630
v 0.04970721 -0.22079672 0.30958757
v 0.04830284 -0.21500158 0.30781230
v 0.05058136 -0.20881131 0.30082825
v 0.02957316 -0.21081327 0.32573214
v 0.03223860 -0.21508060 0.32573214
v 0.03332769 -0.21692452 0.32573214
v 0.05144117 -0.19730005 0.29193854
v 0.05162747 -0.19716834 0.29158416
v 0.02739496 -0.37154949 0.29158416
v 0.02573265 -0.35577089 0.30761170
v 0.03993396 -0.34992307 0.29995233
v 0.02955883 -0.34947526 0.30960763
v 0.01898308 -0.34881672 0.31923956
v 0.01456935 -0.34449673 0.32465225
v 0.01369521 -0.34362745 0.32573214
v 0.00481043 -0.35068697 0.32573214
v 0.00459548 -0.35511237 0.32282686
v -0.00499148 -0.36243531 0.32188407
v -0.01803204 -0.36533290 0.32573214
v 0.03905981 -0.23146506 0.32573214
v 0.04311528 -0.23502117 0.32299736
v 0.04811655 -0.23502117 0.31781197
v 0.05227233 -0.23502117 0.31281382
v 0.05091095 -0.22746113 0.31129599
v 0.05367670 -0.22448453 0.30575621
v 0.05890725 -0.22501138 0.29841778
v 0.06088483 -0.21779378 0.29158416
v 0.05869230 -0.21239376 0.29158416
v 0.05194274 -0.21500158 0.30281416
v 0.05548232 -0.20514983 0.29158416
v 0.05297451 -0.20528154 0.29516479
v 0.05376268 -0.20156738 0.29158416
v 0.04156761 -0.35687727 0.29158416
v 0.04248475 -0.35498065 0.29250023
v 0.04512152 -0.35318944 0.29158416
v 0.04906235 -0.34908015 0.29158416
v 0.04649723 -0.34657770 0.29652214
v 0.04975020 -0.33959717 0.29975840
v 0.02153387 -0.34215230 0.32123211
v 0.01541484 -0.34157279 0.32573214
v -0.00163820 -0.35490164 0.32573214
v 0.04012025 -0.23502117 0.32573214
v 0.04129533 -0.23947290 0.32573214
v 0.04259939 -0.24500462 0.32573214
v 0.04426170 -0.24500462 0.32414076
v 0.04924864 -0.24500462 0.31925291
v 0.05384866 -0.24500462 0.31425142
v 0.05884993 -0.24500462 0.30828705
v 0.05773217 -0.23423092 0.30490369
v 0.05986738 -0.23038505 0.29981190
v 0.06104247 -0.21824159 0.29158416
v 0.05116890 -0.34641963 0.29158416
v 0.05228666 -0.34325865 0.29309198
v 0.05707298 -0.33656791 0.29158416
v 0.05521004 -0.33535618 0.29527512
v 0.05146984 -0.33293277 0.30148354
v 0.04803057 -0.32497761 0.30837733
v 0.04540813 -0.33567229 0.30533829
v 0.03901682 -0.33841181 0.30918974
v 0.02819745 -0.33717376 0.31855416
v 0.02491582 -0.33430251 0.32268977
v 0.02067406 -0.33467132 0.32573214
v 0.04300064 -0.24674316 0.32573214
v 0.04987917 -0.25124758 0.31988144
v 0.05956645 -0.25501442 0.30939367
v 0.06193094 -0.24500462 0.30328888
v 0.06094215 -0.23704946 0.30150360
v 0.06273344 -0.25501442 0.30439550
v 0.06218889 -0.22501138 0.29341626
v 0.06243250 -0.22253527 0.29158416
v 0.05420692 -0.34167817 0.29158416
v 0.05956645 -0.33187911 0.29158416
v 0.05807610 -0.32497761 0.29738471
v 0.05307483 -0.32497761 0.30337915
v 0.05115457 -0.31267610 0.31122911
v 0.04963556 -0.31934053 0.30968454
v 0.04302930 -0.32497761 0.31247616
v 0.04106605 -0.33174738 0.31087139
v 0.04079377 -0.31138536 0.32065374
v 0.03031833 -0.33050933 0.32026258
v 0.02485850 -0.32816494 0.32573214
v 0.04449099 -0.25496173 0.32573214
v 0.05018011 -0.25793833 0.32020241
v 0.05376268 -0.25475100 0.31592637
v 0.05036641 -0.26502421 0.32039964
v 0.05053837 -0.27500767 0.32059357
v 0.05063868 -0.28499112 0.32069719
v 0.05956645 -0.26502421 0.30942374
v 0.06310603 -0.26502421 0.30442560
v 0.06809297 -0.26502421 0.29668263
v 0.06773470 -0.25501442 0.29570973
v 0.06729047 -0.24574219 0.29407489
v 0.06349294 -0.23423092 0.29588693
v 0.06902443 -0.24813926 0.29158416
v 0.06105680 -0.32805958 0.29158416
v 0.06161568 -0.32497761 0.29238319
v 0.05929417 -0.31778637 0.29905632
v 0.05254461 -0.30498436 0.31298098
v 0.04936329 -0.29826728 0.31941339
v 0.04762932 -0.30498436 0.31798249
v 0.03691027 -0.32497761 0.31747764
v 0.04262805 -0.30498436 0.32197767
v 0.02859870 -0.32168493 0.32573214
v 0.02653514 -0.32539907 0.32573214
v 0.03190900 -0.32497761 0.32156309
v 0.04536514 -0.26502421 0.32573214
v 0.04568040 -0.26502421 0.32539782
v 0.04566607 -0.27500767 0.32559171
v 0.04552277 -0.27500767 0.32573214
v 0.04484924 -0.28480673 0.32573214
v 0.05043805 -0.29160285 0.32046652
v 0.05502374 -0.28499112 0.31499696
v 0.05950912 -0.27500767 0.30932346
v 0.06309170 -0.27500767 0.30432531
v 0.06807864 -0.27500767 0.29706377
v 0.07118830 -0.27500767 0.29206559
v 0.07090171 -0.26502421 0.29168448
v 0.06988426 -0.25501442 0.29158416
v 0.06944001 -0.25098416 0.29158416
v 0.07084438 -0.26397055 0.29158416
v 0.06267612 -0.32342345 0.29158416
v 0.06690355 -0.31080586 0.29158416
v 0.06966929 -0.30242923 0.29158416
v 0.06035461 -0.31112194 0.30048391
v 0.05754588 -0.30498436 0.30677924
v 0.04560875 -0.29494822 0.32319796
v 0.03918878 -0.30129653 0.32573214
v 0.03725420 -0.30545852 0.32573214
v 0.03228159 -0.31488881 0.32573214
v 0.04446233 -0.28657162 0.32573214
v 0.05938015 -0.28499112 0.30912620
v 0.05333277 -0.29494822 0.31564555
v 0.05882127 -0.29497457 0.30840740
v 0.06287675 -0.28499112 0.30412805
v 0.06787801 -0.28499112 0.29688656
v 0.07114531 -0.28499112 0.29188505
v 0.07130295 -0.28499112 0.29158416
v 0.07143192 -0.27500767 0.29158416
v 0.07094470 -0.26502421 0.29158416
v 0.07085872 -0.29497457 0.29158416
v 0.06743377 -0.29497457 0.29645529
v 0.06243250 -0.29497457 0.30340925
v 0.06131474 -0.30498436 0.30177775
v 0.04201185 -0.29497457 0.32573214
v 0.07100201 -0.29205066 0.29158416
f 1 2 3
f 1 3 6
f 1 6 16
f 1 16 20
f 1 20 19
f 1 19 18
f 1 18 17
f 1 17 7
f 1 7 4
f 1 4 13
f 1 13 36
f 1 36 35
f 1 35 34
f 1 34 33
f 1 33 32
f 1 32 31
f 1 31 29
f 1 29 52
f 1 52 68
f 1 68 81
f 1 81 102
f 1 102 105
f 1 105 133
f 1 133 157
f 1 157 155
f 1 155 153
f 1 153 152
f 1 152 176
f 1 176 195
f 1 195 219
f 1 219 244
f 1 244 243
f 1 243 245
f 1 245 264
f 1 264 263
f 1 263 262
f 1 262 270
f 1 270 265
f 1 265 248
f 1 248 247
f 1 247 246
f 1 246 220
f 1 220 197
f 1 197 179
f 1 179 196
f 1 196 177
f 1 177 161
f 1 161 160
f 1 160 158
f 1 158 134
f 1 134 106
f 1 106 86
f 1 86 84
f 1 84 83
f 1 83 69
f 1 69 53
f 1 53 40
f 1 40 39
f 1 39 38
f 1 38 37
f 1 37 14
f 1 14 5
f 1 5 2
f 2 5 6
f 2 6 3
f 4 7 8
f 4 8 9
f 4 9 10
f 4 10 11
f 4 11 12
f 4 12 13
f 5 14 15
f 5 15 6
f 6 15 16
f 7 17 8
f 8 17 18
f 8 18 19
f 8 19 20
f 8 20 21
f 8 21 22
f 8 22 23
f 8 23 9
f 9 24 10
f 9 23 25
f 9 25 26
f 9 26 24
f 10 24 11
f 11 27 28
f 11 28 29
f 11 29 30
f 11 30 31
f 11 31 12
f 11 24 26
f 11 26 27
f 12 31 32
f 12 32 33
f 12 33 34
f 12 34 35
f 12 35 36
f 12 36 13
f 14 37 16
f 14 16 15
f 16 37 38
f 16 38 39
f 16 39 40
f 16 40 41
f 16 41 55
f 16 55 72
f 16 72 96
f 16 96 95
f 16 95 118
f 16 118 117
f 16 117 144
f 16 144 166
f 16 166 141
f 16 141 140
f 16 140 165
f 16 165 187
f 16 187 206
f 16 206 229
f 16 229 228
f 16 228 254
f 16 254 253
f 16 253 252
f 16 252 269
f 16 269 255
f 16 255 235
f 16 235 234
f 16 234 231
f 16 231 207
f 16 207 188
f 16 188 169
f 16 169 168
f 16 168 167
f 16 167 145
f 16 145 123
f 16 123 122
f 16 122 131
f 16 131 130
f 16 130 129
f 16 129 120
f 16 120 99
f 16 99 77
f 16 77 76
f 16 76 75
f 16 75 98
f 16 98 73
f 16 73 56
f 16 56 43
f 16 43 42
f 16 42 25
f 16 25 23
f 16 23 22
f 16 22 21
f 16 21 20
f 25 42 26
f 26 42 43
f 26 43 44
f 26 44 45
f 26 45 46
f 26 46 27
f 27 46 28
f 28 46 47
f 28 47 29
f 29 47 48
f 29 48 49
f 29 49 50
f 29 50 51
f 29 51 52
f 29 31 30
f 40 53 54
f 40 54 41
f 41 54 53
f 41 53 55
f 43 56 57
f 43 57 44
f 44 57 58
f 44 58 45
f 45 58 46
f 46 58 59
f 46 59 60
f 46 60 61
f 46 61 47
f 47 61 60
f 47 60 62
f 47 62 49
f 47 49 48
f 49 63 57
f 49 57 64
f 49 64 65
f 49 65 66
f 49 66 50
f 49 62 63
f 50 66 67
f 50 67 51
f 51 67 52
f 52 67 68
f 53 69 70
f 53 70 71
f 53 71 72
f 53 72 55
f 56 73 57
f 57 73 74
f 57 74 65
f 57 65 64
f 57 63 59
f 57 59 58
f 59 63 60
f 60 63 62
f 65 75 76
f 65 76 77
f 65 77 78
f 65 78 79
f 65 79 80
f 65 80 66
f 65 74 75
f 66 80 67
f 67 80 68
f 68 80 82
f 68 82 81
f 69 83 70
f 70 83 84
f 70 84 85
f 70 85 86
f 70 86 87
f 70 87 88
f 70 88 89
f 70 89 90
f 70 90 91
f 70 91 92
f 70 92 93
f 70 93 94
f 70 94 95
f 70 95 96
f 70 96 72
f 70 72 97
f 70 97 71
f 71 97 72
f 73 98 74
f 74 98 75
f 77 99 100
f 77 100 78
f 78 100 79
f 79 100 80
f 80 100 101
f 80 101 82
f 81 82 102
f 82 101 103
f 82 103 104
f 82 104 105
f 82 105 102
f 84 86 85
f 86 106 87
f 87 106 88
f 88 107 108
f 88 108 109
f 88 109 89
f 88 106 110
f 88 110 111
f 88 111 107
f 89 109 90
f 90 109 112
f 90 112 113
f 90 113 91
f 91 114 93
f 91 93 92
f 91 113 115
f 91 115 114
f 93 114 115
f 93 115 116
f 93 116 94
f 94 117 118
f 94 118 95
f 94 116 117
f 99 119 100
f 99 120 119
f 100 119 121
f 100 121 103
f 100 103 101
f 103 122 123
f 103 123 124
f 103 124 125
f 103 125 126
f 103 126 127
f 103 127 128
f 103 128 104
f 103 121 119
f 103 119 129
f 103 129 130
f 103 130 131
f 103 131 122
f 104 132 105
f 104 128 132
f 105 132 133
f 106 134 110
f 107 111 135
f 107 135 108
f 108 136 137
f 108 137 138
f 108 138 109
f 108 135 136
f 109 138 112
f 110 134 111
f 111 136 135
f 111 134 136
f 112 138 113
f 113 138 139
f 113 139 140
f 113 140 141
f 113 141 142
f 113 142 115
f 115 142 116
f 116 142 143
f 116 143 117
f 117 143 144
f 119 120 129
f 123 145 124
f 124 145 146
f 124 146 147
f 124 147 125
f 125 147 148
f 125 148 149
f 125 149 126
f 126 149 150
f 126 150 151
f 126 151 152
f 126 152 153
f 126 153 154
f 126 154 128
f 126 128 127
f 128 154 155
f 128 155 156
f 128 156 132
f 132 156 157
f 132 157 133
f 134 158 136
f 136 158 159
f 136 159 160
f 136 160 161
f 136 161 162
f 136 162 163
f 136 163 137
f 137 163 138
f 138 163 164
f 138 164 165
f 138 165 140
f 138 140 139
f 141 166 142
f 142 166 144
f 142 144 143
f 145 167 146
f 146 167 168
f 146 168 169
f 146 169 170
f 146 170 171
f 146 171 147
f 147 171 172
f 147 172 173
f 147 173 148
f 148 173 149
f 149 173 174
f 149 174 150
f 150 174 175
f 150 175 151
f 151 175 176
f 151 176 152
f 153 155 154
f 155 157 156
f 158 160 159
f 161 177 163
f 161 163 162
f 163 178 179
f 163 179 180
f 163 180 181
f 163 181 182
f 163 182 183
f 163 183 184
f 163 184 164
f 163 177 178
f 164 184 185
f 164 185 186
f 164 186 187
f 164 187 165
f 169 188 170
f 170 188 171
f 171 188 189
f 171 189 172
f 172 189 190
f 172 190 173
f 173 191 192
f 173 192 174
f 173 190 193
f 173 193 191
f 174 192 175
f 175 194 176
f 175 192 194
f 176 194 195
f 177 196 178
f 178 196 179
f 179 197 180
f 180 197 181
f 181 197 198
f 181 198 199
f 181 199 200
f 181 200 201
f 181 201 182
f 182 202 203
f 182 203 183
f 182 201 204
f 182 204 202
f 183 203 184
f 184 203 205
f 184 205 186
f 184 186 185
f 186 205 206
f 186 206 187
f 188 207 189
f 189 207 208
f 189 208 209
f 189 209 190
f 190 209 208
f 190 208 210
f 190 210 211
f 190 211 212
f 190 212 213
f 190 213 214
f 190 214 215
f 190 215 193
f 191 193 216
f 191 216 217
f 191 217 218
f 191 218 192
f 192 218 194
f 193 215 216
f 194 218 195
f 195 218 217
f 195 217 219
f 197 220 198
f 198 220 221
f 198 221 222
f 198 222 223
f 198 223 200
f 198 200 199
f 200 223 224
f 200 224 201
f 201 224 225
f 201 225 204
f 202 226 205
f 202 205 203
f 202 204 226
f 204 225 227
f 204 227 228
f 204 228 229
f 204 229 230
f 204 230 226
f 205 226 230
f 205 230 229
f 205 229 206
f 207 231 208
f 208 231 232
f 208 232 210
f 210 232 211
f 211 232 231
f 211 231 212
f 212 231 233
f 212 233 234
f 212 234 235
f 212 235 236
f 212 236 237
f 212 237 213
f 213 237 238
f 213 238 239
f 213 239 214
f 214 239 240
f 214 240 215
f 215 240 241
f 215 241 242
f 215 242 216
f 216 243 244
f 216 244 217
f 216 242 245
f 216 245 243
f 217 244 219
f 220 246 221
f 221 246 247
f 221 247 222
f 222 247 248
f 222 248 249
f 222 249 250
f 222 250 223
f 223 250 224
f 224 251 252
f 224 252 253
f 224 253 227
f 224 227 225
f 224 250 236
f 224 236 251
f 227 253 254
f 227 254 228
f 231 234 233
f 235 255 236
f 236 256 237
f 236 255 251
f 236 250 257
f 236 257 258
f 236 258 256
f 237 256 238
f 238 256 239
f 239 256 259
f 239 259 260
f 239 260 240
f 240 260 261
f 240 261 241
f 241 261 262
f 241 262 263
f 241 263 242
f 242 263 264
f 242 264 245
f 248 265 266
f 248 266 267
f 248 267 258
f 248 258 250
f 248 250 268
f 248 268 249
f 249 268 250
f 250 258 257
f 251 269 252
f 251 255 269
f 256 258 267
f 256 267 266
f 256 266 265
f 256 265 259
f 259 265 260
f 260 265 270
f 260 270 261
f 261 270 262

