# https://github.com/mikedh/trimesh
v 0.34445828 -0.07532160 0.13444912
v 0.34500498 -0.07518865 0.13495815
v 0.34445828 -0.07532160 0.13495815
v 0.34445828 -0.07458301 0.04498839
v 0.34500498 -0.07445006 0.04498839
v 0.35500634 -0.07230814 0.13495815
v 0.34500498 -0.07510002 0.14496893
v 0.34445828 -0.07524773 0.14496893
v 0.34445828 -0.07381487 -0.04498136
v 0.35500634 -0.07155477 0.04498839
v 0.36149466 -0.07043211 0.13495815
v 0.34500498 -0.07288423 -0.13499352
v 0.35385025 -0.07111160 -0.04498136
v 0.35500634 -0.07220474 0.14496893
v 0.36076877 -0.07021053 0.15256184
v 0.34500498 -0.07450914 0.15497971
v 0.34445828 -0.07465686 0.15497971
v 0.34445828 -0.07301718 -0.13499352
v 0.36019519 -0.07004803 0.04498839
v 0.35885093 -0.06966397 -0.04498136
v 0.36631611 -0.06891060 0.12498978
v 0.36649534 -0.06894015 0.13495815
v 0.36633402 -0.06891060 0.14496893
v 0.36133334 -0.07037301 0.14496893
v 0.36519587 -0.06857085 0.04498839
v 0.36533031 -0.06861517 0.05499917
v 0.34500498 -0.07261835 -0.14496189
v 0.35247013 -0.07071277 -0.13499352
v 0.36446100 -0.06891060 0.15553114
v 0.35586667 -0.07136273 0.15553114
v 0.35976502 -0.06992985 0.15922156
v 0.35309747 -0.07087526 0.16257262
v 0.34445828 -0.07223427 0.16477838
v 0.34445828 -0.07275130 -0.14496189
v 0.36500770 -0.06784703 -0.04498136
v 0.36500770 -0.06706411 -0.13499352
v 0.37500009 -0.06405064 0.00498770
v 0.37500009 -0.06478924 0.09499986
v 0.37500009 -0.06480402 0.10496823
v 0.37500009 -0.06464152 0.14496893
v 0.37500009 -0.06396201 -0.00498066
v 0.37500009 -0.06444949 0.15497971
v 0.35201308 -0.07057983 -0.14496189
v 0.34445828 -0.07272175 -0.14551333
v 0.34596387 -0.07152523 -0.15586346
v 0.35111690 -0.07031393 -0.15310624
v 0.37553778 -0.06249959 0.16503289
v 0.36500770 -0.06684254 0.16499048
v 0.34863448 -0.06964919 0.16923234
v 0.34518421 -0.07186498 0.16554192
v 0.34445828 -0.07204224 0.16549951
v 0.36500770 -0.06678344 -0.14496189
v 0.37429211 -0.06266209 -0.14496189
v 0.37439963 -0.06279503 -0.13499352
v 0.37500009 -0.06310524 -0.09499283
v 0.38103136 -0.06072697 0.00498770
v 0.38149738 -0.06108150 0.09499986
v 0.38096863 -0.06075652 0.15497971
v 0.38141674 -0.06103718 0.10496823
v 0.38032338 -0.06022473 -0.09499283
v 0.38064602 -0.06049062 0.16176668
v 0.34445828 -0.07192406 -0.15573621
v 0.36500770 -0.06613348 -0.15497267
v 0.34993395 -0.06997417 -0.15980837
v 0.37923005 -0.05954522 0.16842636
v 0.37256247 -0.06133262 0.17160776
v 0.36500770 -0.06263255 0.17288032
v 0.34445828 -0.07012190 0.16999587
v 0.37413976 -0.06235188 -0.15497267
v 0.37914044 -0.05939750 -0.15497267
v 0.38019791 -0.06013609 -0.10300994
v 0.39315668 -0.05217404 0.00498770
v 0.39243075 -0.05168657 -0.09499283
v 0.39356890 -0.05249903 0.09499986
v 0.43600300 -0.01843504 0.19498038
v 0.39856958 -0.04882082 0.09499986
v 0.43600300 -0.01836118 0.19548941
v 0.43600300 -0.01641129 0.20418522
v 0.34445828 -0.07118547 -0.15955386
v 0.36500770 -0.06431654 -0.16498345
v 0.37280443 -0.06146557 -0.16498345
v 0.34445828 -0.07009235 -0.16379574
v 0.35500634 -0.06694594 -0.16498345
v 0.43600300 -0.01587950 0.20545778
v 0.43600300 -0.01169905 0.21173573
v 0.34445828 -0.06682776 0.17271066
v 0.43600300 -0.01110818 0.21224475
v 0.37780511 -0.05867368 -0.16498345
v 0.43600300 -0.01586473 -0.19497335
v 0.43600300 -0.01626357 -0.18496257
v 0.39815736 -0.04852539 0.00498770
v 0.39743143 -0.04797883 -0.09499283
v 0.43600300 -0.01864184 0.18496960
v 0.43600300 -0.01676581 -0.15395463
v 0.43600300 -0.01747487 -0.04498136
v 0.43600300 -0.01812483 0.05499917
v 0.43600300 -0.01867139 0.14496893
v 0.43600300 -0.01871570 0.15497971
v 0.43600300 -0.01871570 0.15553114
v 0.43600300 -0.01868616 0.17563754
v 0.37107483 -0.06053494 -0.17075238
v 0.43600300 -0.01316147 -0.20498413
v 0.34445828 -0.06914695 -0.16617116
v 0.34596387 -0.06904355 -0.16549248
v 0.34445828 -0.06571987 0.17347419
v 0.43600300 -0.00369269 0.21741980
v 0.43600300 -0.01647038 -0.17499423
v 0.43600300 -0.01648515 -0.17397618
v 0.36500770 -0.06146557 -0.17185524
v 0.43600300 -0.01034004 -0.21037129
v 0.34445828 -0.06391770 -0.17350957
v 0.34500498 -0.06381430 -0.17355201
v 0.35500634 -0.06269163 -0.17295814
v 0.34445828 -0.05784645 0.17864925
v 0.43600300 0.00363417 0.21661386
v 0.39919692 0.00044344 0.21020865
v 0.39919692 -0.00059059 0.21020865
v 0.34445828 -0.00499261 0.19794968
v 0.34445828 -0.00553917 0.19782242
v 0.34445828 -0.01543634 0.19481072
v 0.34445828 -0.05273538 0.18085501
v 0.34445828 -0.05746238 0.17886135
v 0.43600300 -0.00491876 -0.21482524
v 0.34445828 -0.06347454 -0.17384893
v 0.34445828 0.06393304 0.17330450
v 0.34445828 0.05665050 0.17835233
v 0.34445828 0.05165760 0.18068534
v 0.34445828 0.01499376 0.19485313
v 0.34445828 0.01444720 0.19502282
v 0.40499520 0.00171383 0.21101460
v 0.43600300 0.01057696 0.21063283
v 0.34445828 0.00499319 0.19786486
v 0.43499929 -0.00499261 -0.21461314
v 0.41499656 -0.00254048 -0.21177110
v 0.43600300 0.00493410 -0.21592814
v 0.34500498 -0.05727035 -0.17855740
v 0.34445828 -0.05728512 -0.17855740
v 0.34445828 -0.05229222 -0.18097523
v 0.35500634 0.06272174 0.17279550
v 0.34445828 0.06888163 0.16728109
v 0.43600300 0.01361997 0.20499116
v 0.37117338 0.06057982 0.17075941
v 0.36500770 0.06154000 0.17181987
v 0.34445828 -0.00499261 -0.19709429
v 0.40767476 -0.00109283 -0.21066824
v 0.34445828 -0.04499490 -0.18356279
v 0.43600300 0.01066559 -0.21206805
v 0.40767476 0.00168428 -0.21066824
v 0.34445828 0.00499319 -0.19790024
v 0.43499929 0.00499319 -0.21571603
v 0.34445828 0.05372566 -0.18127218
v 0.34445828 0.05845267 -0.17927849
v 0.34445828 0.05879242 -0.17910883
v 0.34445828 0.07089061 0.16231811
v 0.34500498 0.06882253 0.16715384
v 0.43600300 0.01624937 0.19498038
v 0.37801126 0.05880719 0.16499048
v 0.37301058 0.06158431 0.16499048
v 0.36500770 0.06453869 0.16499048
v 0.43600300 0.01144850 -0.21147418
v 0.34445828 0.06579430 -0.17401859
v 0.34445828 0.06771465 -0.17257637
v 0.34445828 0.00553975 -0.19773057
v 0.34445828 0.01499376 -0.19476128
v 0.34445828 0.04546817 -0.18415663
v 0.34500498 0.07083152 0.16214845
v 0.34445828 0.07232347 0.15497971
v 0.35418183 0.06767033 0.16414210
v 0.43600300 0.01660389 0.18496960
v 0.37937343 0.05956056 0.15497971
v 0.37437275 0.06251494 0.15497971
v 0.36500770 0.06645903 0.15497971
v 0.35030138 0.07007815 0.16023961
v 0.43600300 0.01577667 -0.20545074
v 0.34445828 0.07037359 -0.17032817
v 0.36500770 0.06285469 -0.17325506
v 0.37276858 0.06146614 -0.17185524
v 0.34445828 0.07303253 0.14496893
v 0.34500498 0.07219052 0.15497971
v 0.43600300 0.01678116 0.17495883
v 0.39765549 0.04814189 0.09499986
v 0.39265481 0.05184963 0.09499986
v 0.37448031 0.06279561 0.14496893
v 0.38039508 0.06026961 0.10496823
v 0.36500770 0.06707945 0.14496893
v 0.35751563 0.06926569 0.14496893
v 0.34500498 0.07289958 0.14496893
v 0.43600300 0.01630846 -0.20422059
v 0.37943617 0.05966396 -0.16880113
v 0.34445828 0.07230870 -0.16566214
v 0.34933352 0.06982702 -0.16956463
v 0.35500634 0.06913275 -0.16718921
v 0.36401293 0.06774420 -0.16400781
v 0.37566325 0.06267743 -0.16528037
v 0.34445828 0.07326888 0.13495815
v 0.43600300 0.01709137 0.15497971
v 0.39831865 0.04864413 0.00498770
v 0.39331797 0.05229279 0.00498770
v 0.38054743 0.06038779 0.09499986
v 0.37459680 0.06292856 0.13495815
v 0.36500770 0.06731580 0.13495815
v 0.35793683 0.06939864 0.13495815
v 0.35293615 0.07084629 0.13495815
v 0.34500498 0.07313593 0.13495815
v 0.43600300 0.01867196 -0.19514304
v 0.38076252 0.06056505 -0.16209897
v 0.34445828 0.07258937 -0.16455925
v 0.34560540 0.07202804 -0.16574699
v 0.35500634 0.07069857 -0.16218382
v 0.36002493 0.07000428 -0.16002047
v 0.36578736 0.06880777 -0.15497267
v 0.37500009 0.06470118 -0.15497267
v 0.34445828 0.07405178 0.04553983
v 0.43600300 0.01774133 0.05499917
v 0.39879364 0.04899866 -0.09499283
v 0.38117474 0.06081617 0.00498770
v 0.39379296 0.05264731 -0.09499283
v 0.38169453 0.06121501 -0.09499283
v 0.37500009 0.06341602 0.09499986
v 0.37500009 0.06326830 0.10496823
v 0.37500009 0.06424326 0.00498770
v 0.36500770 0.06803963 0.05499917
v 0.36696136 0.06907366 -0.13499352
v 0.36680004 0.06904411 -0.12498275
v 0.35915563 0.06975317 0.05499917
v 0.35930797 0.06979749 0.04498839
v 0.34500498 0.07391885 0.04498839
v 0.43600300 0.01868673 -0.19497335
v 0.38113892 0.06087526 -0.15497267
v 0.34445828 0.07484947 -0.15497267
v 0.34500498 0.07470176 -0.15497267
v 0.35500634 0.07186554 -0.15497267
v 0.34500498 0.07530740 -0.14496189
v 0.35500634 0.07244165 -0.14496189
v 0.36175457 0.07049176 -0.14496189
v 0.36675525 0.06902935 -0.14496189
v 0.37500009 0.06490798 -0.14496189
v 0.34445828 0.07481992 -0.04442992
v 0.43600300 0.01907080 -0.15497267
v 0.43600300 0.01907080 -0.15637249
v 0.43600300 0.01902648 -0.17499423
v 0.43600300 0.01895262 -0.18496257
v 0.37500009 0.06507048 -0.09499283
v 0.37500009 0.06505571 -0.10496119
v 0.36500770 0.06812826 0.04498839
v 0.36196068 0.07055084 -0.13499352
v 0.36066121 0.07018155 -0.04498136
v 0.36566189 0.06870437 -0.04498136
v 0.34500498 0.07468697 -0.04498136
v 0.34445828 0.07545511 -0.14496189
v 0.34500498 0.07542558 -0.13499352
v 0.35500634 0.07255983 -0.13499352
v 0.34445828 0.07555853 -0.13444209
v 0.34445828 0.07555853 -0.13499352
f 1 2 3
f 1 3 8
f 1 8 17
f 1 17 33
f 1 33 51
f 1 51 68
f 1 68 86
f 1 86 105
f 1 105 114
f 1 114 122
f 1 122 121
f 1 121 120
f 1 120 119
f 1 119 118
f 1 118 132
f 1 132 129
f 1 129 128
f 1 128 127
f 1 127 126
f 1 126 125
f 1 125 140
f 1 140 154
f 1 154 167
f 1 167 178
f 1 178 195
f 1 195 213
f 1 213 238
f 1 238 253
f 1 253 254
f 1 254 250
f 1 250 230
f 1 230 207
f 1 207 190
f 1 190 175
f 1 175 162
f 1 162 161
f 1 161 153
f 1 153 152
f 1 152 151
f 1 151 165
f 1 165 164
f 1 164 163
f 1 163 149
f 1 149 144
f 1 144 146
f 1 146 138
f 1 138 137
f 1 137 124
f 1 124 111
f 1 111 103
f 1 103 82
f 1 82 79
f 1 79 62
f 1 62 44
f 1 44 34
f 1 34 18
f 1 18 9
f 1 9 4
f 1 4 5
f 1 5 2
f 2 6 7
f 2 7 8
f 2 8 3
f 2 5 6
f 4 9 5
f 5 10 11
f 5 11 6
f 5 9 12
f 5 12 13
f 5 13 20
f 5 20 10
f 6 11 7
f 7 14 15
f 7 15 16
f 7 16 17
f 7 17 8
f 7 11 14
f 9 18 12
f 10 19 11
f 10 20 19
f 11 21 22
f 11 22 23
f 11 23 24
f 11 24 14
f 11 19 25
f 11 25 26
f 11 26 21
f 12 18 34
f 12 34 27
f 12 27 43
f 12 43 28
f 12 28 20
f 12 20 13
f 14 24 15
f 15 29 16
f 15 24 23
f 15 23 29
f 16 29 30
f 16 30 31
f 16 31 17
f 17 31 32
f 17 32 33
f 19 20 35
f 19 35 25
f 20 28 36
f 20 36 35
f 21 26 25
f 21 25 36
f 21 36 22
f 22 37 38
f 22 38 39
f 22 39 40
f 22 40 23
f 22 36 41
f 22 41 37
f 23 40 42
f 23 42 29
f 25 35 36
f 27 34 44
f 27 44 45
f 27 45 46
f 27 46 43
f 28 43 36
f 29 31 30
f 29 42 47
f 29 47 48
f 29 48 31
f 31 48 32
f 32 48 49
f 32 49 50
f 32 50 51
f 32 51 33
f 36 43 52
f 36 52 53
f 36 53 54
f 36 54 55
f 36 55 41
f 37 56 38
f 37 41 56
f 38 56 57
f 38 57 39
f 39 57 40
f 40 58 42
f 40 57 59
f 40 59 58
f 41 55 60
f 41 60 56
f 42 58 61
f 42 61 47
f 43 46 52
f 44 62 45
f 45 63 46
f 45 62 64
f 45 64 63
f 46 63 52
f 47 65 66
f 47 66 48
f 47 61 65
f 48 66 49
f 49 66 67
f 49 67 68
f 49 68 51
f 49 51 50
f 52 63 69
f 52 69 53
f 53 69 70
f 53 70 71
f 53 71 60
f 53 60 54
f 54 60 55
f 56 72 57
f 56 60 73
f 56 73 72
f 57 72 74
f 57 74 59
f 58 75 61
f 58 59 74
f 58 74 76
f 58 76 75
f 60 71 73
f 61 75 77
f 61 77 78
f 61 78 65
f 62 79 64
f 63 64 80
f 63 80 81
f 63 81 69
f 64 79 82
f 64 82 83
f 64 83 80
f 65 78 84
f 65 84 66
f 66 84 85
f 66 85 67
f 67 85 68
f 68 85 87
f 68 87 86
f 69 81 88
f 69 88 70
f 70 88 89
f 70 89 90
f 70 90 73
f 70 73 71
f 72 91 74
f 72 73 91
f 73 90 92
f 73 92 91
f 74 91 76
f 75 93 100
f 75 100 99
f 75 99 98
f 75 98 97
f 75 97 96
f 75 96 95
f 75 95 94
f 75 94 108
f 75 108 107
f 75 107 90
f 75 90 89
f 75 89 102
f 75 102 110
f 75 110 123
f 75 123 135
f 75 135 147
f 75 147 160
f 75 160 174
f 75 174 188
f 75 188 205
f 75 205 228
f 75 228 242
f 75 242 241
f 75 241 240
f 75 240 239
f 75 239 214
f 75 214 196
f 75 196 180
f 75 180 169
f 75 169 156
f 75 156 141
f 75 141 131
f 75 131 115
f 75 115 106
f 75 106 87
f 75 87 85
f 75 85 84
f 75 84 78
f 75 78 77
f 75 76 93
f 76 91 94
f 76 94 95
f 76 95 96
f 76 96 97
f 76 97 98
f 76 98 99
f 76 99 100
f 76 100 93
f 80 83 101
f 80 101 81
f 81 101 102
f 81 102 88
f 82 103 104
f 82 104 83
f 83 104 101
f 86 87 106
f 86 106 105
f 88 102 89
f 90 107 92
f 91 92 94
f 92 107 108
f 92 108 94
f 101 104 103
f 101 103 109
f 101 109 110
f 101 110 102
f 103 111 112
f 103 112 113
f 103 113 109
f 105 106 114
f 106 115 116
f 106 116 117
f 106 117 118
f 106 118 119
f 106 119 120
f 106 120 121
f 106 121 122
f 106 122 114
f 109 113 110
f 110 113 112
f 110 112 123
f 111 124 123
f 111 123 112
f 115 125 126
f 115 126 127
f 115 127 128
f 115 128 129
f 115 129 130
f 115 130 116
f 115 131 125
f 116 130 132
f 116 132 118
f 116 118 117
f 123 133 134
f 123 134 135
f 123 124 136
f 123 136 137
f 123 137 138
f 123 138 133
f 124 137 136
f 125 139 140
f 125 131 139
f 129 132 130
f 131 141 142
f 131 142 143
f 131 143 139
f 133 138 134
f 134 144 145
f 134 145 135
f 134 138 146
f 134 146 144
f 135 145 148
f 135 148 149
f 135 149 150
f 135 150 151
f 135 151 152
f 135 152 153
f 135 153 147
f 139 143 140
f 140 143 155
f 140 155 154
f 141 156 157
f 141 157 158
f 141 158 142
f 142 158 159
f 142 159 155
f 142 155 143
f 144 149 145
f 145 149 148
f 147 153 161
f 147 161 162
f 147 162 160
f 149 163 150
f 150 163 164
f 150 164 165
f 150 165 151
f 154 166 167
f 154 155 166
f 155 159 168
f 155 168 166
f 156 169 170
f 156 170 157
f 157 170 171
f 157 171 158
f 158 171 172
f 158 172 159
f 159 172 173
f 159 173 166
f 159 166 168
f 160 162 175
f 160 175 176
f 160 176 177
f 160 177 174
f 166 173 167
f 167 173 179
f 167 179 187
f 167 187 178
f 169 180 181
f 169 181 182
f 169 182 170
f 170 183 171
f 170 182 184
f 170 184 183
f 171 183 185
f 171 185 172
f 172 185 186
f 172 186 187
f 172 187 179
f 172 179 173
f 174 177 189
f 174 189 188
f 175 190 191
f 175 191 176
f 176 191 177
f 177 191 192
f 177 192 193
f 177 193 194
f 177 194 189
f 178 187 204
f 178 204 195
f 180 196 181
f 181 197 182
f 181 196 197
f 182 197 198
f 182 198 199
f 182 199 184
f 183 200 201
f 183 201 185
f 183 184 199
f 183 199 200
f 185 201 202
f 185 202 186
f 186 202 187
f 187 202 203
f 187 203 204
f 188 189 205
f 189 194 206
f 189 206 205
f 190 207 208
f 190 208 191
f 191 208 192
f 192 208 209
f 192 209 193
f 193 209 210
f 193 210 211
f 193 211 194
f 194 211 212
f 194 212 206
f 195 204 213
f 196 214 215
f 196 215 197
f 197 215 217
f 197 217 198
f 198 216 199
f 198 217 218
f 198 218 216
f 199 219 220
f 199 220 200
f 199 216 221
f 199 221 219
f 200 220 201
f 201 222 202
f 201 220 219
f 201 219 223
f 201 223 224
f 201 224 222
f 202 222 225
f 202 225 203
f 203 225 226
f 203 226 204
f 204 226 227
f 204 227 213
f 205 206 228
f 206 212 229
f 206 229 228
f 207 230 209
f 207 209 208
f 209 230 210
f 210 230 231
f 210 231 232
f 210 232 211
f 211 232 233
f 211 233 234
f 211 234 235
f 211 235 236
f 211 236 212
f 212 236 237
f 212 237 229
f 213 227 249
f 213 249 238
f 214 239 215
f 215 239 240
f 215 240 241
f 215 241 242
f 215 242 229
f 215 229 217
f 216 218 243
f 216 243 221
f 217 229 218
f 218 229 237
f 218 237 244
f 218 244 243
f 219 221 223
f 221 243 223
f 222 245 226
f 222 226 225
f 222 224 245
f 223 243 244
f 223 244 237
f 223 237 236
f 223 236 246
f 223 246 224
f 224 246 247
f 224 247 248
f 224 248 245
f 226 245 247
f 226 247 227
f 227 247 249
f 228 229 242
f 230 250 233
f 230 233 231
f 231 233 232
f 233 250 251
f 233 251 252
f 233 252 234
f 234 252 246
f 234 246 235
f 235 246 236
f 238 249 251
f 238 251 253
f 245 248 247
f 246 252 247
f 247 252 249
f 249 252 251
f 250 254 251
f 251 254 253

