# https://github.com/mikedh/trimesh
v -0.44329926 -0.00442888 0.21680790
v -0.44329926 -0.00296791 0.21667835
v -0.44803533 0.00033246 0.22021928
v -0.44803533 -0.00054177 0.22021928
v -0.44481990 -0.00432620 0.21715336
v -0.44329926 -0.01105895 0.21149650
v -0.44329926 0.00398194 0.21555562
v -0.45500013 0.00069917 0.22052155
v -0.44329926 0.00475642 0.21477835
v -0.45500013 -0.00111677 0.22052155
v -0.45500013 -0.00611573 0.21654882
v -0.44329926 -0.01362297 0.20497601
v -0.44500563 -0.01111763 0.21158287
v -0.46500045 0.00083705 0.22065111
v -0.45500013 0.00499698 0.21499425
v -0.44329926 0.00959110 0.20856012
v -0.46500045 -0.00131626 0.22065111
v -0.46500045 -0.00631522 0.21581471
v -0.45500013 -0.01089760 0.21158287
v -0.44500563 -0.01349976 0.20497601
v -0.44329926 -0.01516022 0.19495776
v -0.47499496 0.00046741 0.22034883
v -0.46500045 0.00464494 0.21499425
v -0.44500563 0.00962924 0.20847376
v -0.44329926 0.01001941 0.20773967
v -0.47499496 -0.00073539 0.22034883
v -0.47445518 -0.00637389 0.21408743
v -0.46500045 -0.01039301 0.21080559
v -0.47076961 -0.01007324 0.21015786
v -0.48499525 -0.00869442 0.20497601
v -0.48499525 -0.00914327 0.19495776
v -0.44329926 -0.01528930 0.15497114
v -0.48024178 0.00010657 0.22004656
v -0.47499496 0.00381178 0.21499425
v -0.48499525 0.00613231 0.20497601
v -0.44329926 0.01107553 0.20359418
v -0.48024178 -0.00017213 0.22004656
v -0.48414207 -0.00338743 0.21525335
v -0.49499556 -0.00288577 0.21218742
v -0.49499556 -0.00593971 0.20497601
v -0.44329926 -0.01526289 0.14499608
v -0.49499556 -0.00680221 0.17496446
v -0.49499556 -0.00707504 0.16498938
v -0.49499556 -0.00598959 -0.16496500
v -0.48414207 0.00235082 0.21525335
v -0.49499556 0.00197531 0.21218742
v -0.50099689 0.00089866 0.21080559
v -0.49499556 0.00409048 0.20497601
v -0.44329926 0.01143344 0.20203963
v -0.44329926 0.01218739 0.19495776
v -0.48499525 0.00657236 0.19495776
v -0.50099689 -0.00134560 0.21080559
v -0.50129873 -0.00190593 0.20497601
v -0.50228536 -0.00297671 0.16498938
v -0.44329926 -0.01472310 0.05496141
v -0.50258142 -0.00259240 -0.16496500
v -0.49499556 -0.00584584 -0.17498325
v -0.48499525 -0.00718359 -0.19497655
v -0.44329926 -0.01348509 -0.14497170
v -0.50129873 0.00124483 0.20497601
v -0.49499556 0.00525221 0.16498938
v -0.50228536 0.00219533 0.16498938
v -0.44329926 0.01221379 0.19327366
v -0.44329926 0.01273892 0.15497114
v -0.44329926 0.01275652 0.15328704
v -0.44329926 0.01283280 0.14499608
v -0.44329926 0.01340779 0.05496141
v -0.44329926 0.01467220 -0.14497170
v -0.50258142 0.00296102 -0.16496500
v -0.50241888 -0.00245159 -0.17498325
v -0.49499556 -0.00549380 -0.18495831
v -0.49499556 -0.00498627 -0.19497655
v -0.48499525 -0.00655578 -0.20499481
v -0.44329926 -0.01279862 -0.19497655
v -0.44329926 -0.01282795 -0.19329245
v -0.44329926 -0.01336188 -0.15498994
v -0.44329926 -0.01338535 -0.15326266
v -0.48499525 0.00786024 -0.05498021
v -0.49499556 0.00683052 -0.16496500
v -0.44329926 0.01467514 -0.15498994
v -0.48499525 0.00851738 -0.19497655
v -0.49499556 0.00676892 -0.17498325
v -0.50241888 0.00285541 -0.17498325
v -0.50200677 -0.00209661 -0.18495831
v -0.50103170 -0.00110210 -0.20499481
v -0.49499556 -0.00413258 -0.20499481
v -0.49499556 -0.00177978 -0.21177439
v -0.48499525 -0.00297378 -0.21380395
v -0.44500563 -0.00982095 -0.20939939
v -0.44500563 -0.01120857 -0.20439026
v -0.44329926 -0.01178650 -0.20279253
v -0.44329926 0.01459299 -0.19497655
v -0.48499525 0.00791598 -0.20499481
v -0.49499556 0.00601496 -0.19497655
v -0.49499556 0.00649902 -0.18495831
v -0.50200677 0.00252977 -0.18495831
v -0.50103170 0.00140618 -0.20499481
v -0.50060225 -0.00059751 -0.21043575
v -0.47251663 -0.00043029 -0.22028127
v -0.47550571 -0.00307352 -0.21587670
v -0.44329926 -0.00974467 -0.20939939
v -0.44329926 -0.01022579 -0.20853575
v -0.44329926 -0.01137872 -0.20439026
v -0.46500045 -0.00474278 -0.21496987
v -0.46500045 -0.00070606 -0.22049718
v -0.45500013 -0.00047136 -0.22032446
v -0.44329926 0.01276239 -0.20512435
v -0.44500563 0.01276532 -0.20499481
v -0.46179083 0.01019837 -0.21039256
v -0.46845382 0.00976419 -0.20724027
v -0.48499525 0.00364163 -0.21380395
v -0.49499556 0.00219533 -0.21177439
v -0.49499556 0.00505859 -0.20499481
v -0.50060225 0.00075491 -0.21043575
v -0.47251663 0.00056128 -0.22028127
v -0.44329926 -0.00515056 -0.21423577
v -0.46500045 0.00092212 -0.22049718
v -0.45500013 0.00062289 -0.22032446
v -0.44948632 -0.00012226 -0.22006536
v -0.44329926 0.01057974 -0.21078120
v -0.44500563 0.01064135 -0.21086757
v -0.45500013 0.01049467 -0.21082439
v -0.46507588 0.00659876 -0.21423577
v -0.47550571 0.00380592 -0.21587670
v -0.44329926 -0.00402990 -0.21518578
v -0.45500013 0.00562185 -0.21583351
v -0.44948632 0.00015937 -0.22006536
v -0.44569051 0.00409635 -0.21639489
v -0.44329926 0.00219533 -0.21574715
v -0.44329926 0.00446892 -0.21570396
f 1 2 3
f 1 3 4
f 1 4 5
f 1 5 6
f 1 6 12
f 1 12 21
f 1 21 32
f 1 32 41
f 1 41 55
f 1 55 59
f 1 59 77
f 1 77 76
f 1 76 75
f 1 75 74
f 1 74 91
f 1 91 103
f 1 103 102
f 1 102 101
f 1 101 116
f 1 116 125
f 1 125 129
f 1 129 130
f 1 130 120
f 1 120 107
f 1 107 92
f 1 92 80
f 1 80 68
f 1 68 67
f 1 67 66
f 1 66 65
f 1 65 64
f 1 64 63
f 1 63 50
f 1 50 49
f 1 49 36
f 1 36 25
f 1 25 16
f 1 16 9
f 1 9 7
f 1 7 2
f 2 7 3
f 3 8 10
f 3 10 4
f 3 7 9
f 3 9 8
f 4 10 5
f 5 10 11
f 5 11 6
f 6 11 13
f 6 13 12
f 8 14 17
f 8 17 10
f 8 9 15
f 8 15 14
f 9 16 15
f 10 17 11
f 11 17 18
f 11 18 19
f 11 19 13
f 12 13 19
f 12 19 20
f 12 20 21
f 14 22 26
f 14 26 17
f 14 15 23
f 14 23 22
f 15 16 24
f 15 24 23
f 16 25 24
f 17 26 18
f 18 26 27
f 18 27 28
f 18 28 19
f 19 28 20
f 20 28 29
f 20 29 21
f 21 29 30
f 21 30 31
f 21 31 32
f 22 33 37
f 22 37 26
f 22 23 34
f 22 34 33
f 23 24 34
f 24 25 35
f 24 35 34
f 25 36 35
f 26 37 27
f 27 37 38
f 27 38 29
f 27 29 28
f 29 38 39
f 29 39 30
f 30 39 40
f 30 40 31
f 31 41 32
f 31 40 42
f 31 42 43
f 31 43 44
f 31 44 41
f 33 34 45
f 33 45 46
f 33 46 47
f 33 47 52
f 33 52 37
f 34 46 45
f 34 35 46
f 35 48 46
f 35 36 49
f 35 49 50
f 35 50 51
f 35 51 48
f 37 52 39
f 37 39 38
f 39 52 40
f 40 52 53
f 40 53 54
f 40 54 42
f 41 44 55
f 42 54 43
f 43 54 56
f 43 56 44
f 44 56 57
f 44 57 58
f 44 58 59
f 44 59 55
f 46 48 47
f 47 48 60
f 47 60 53
f 47 53 52
f 48 51 61
f 48 61 62
f 48 62 60
f 50 63 51
f 51 63 64
f 51 64 65
f 51 65 66
f 51 66 67
f 51 67 68
f 51 68 61
f 53 60 62
f 53 62 54
f 54 62 69
f 54 69 56
f 56 69 83
f 56 83 70
f 56 70 57
f 57 70 71
f 57 71 58
f 58 71 72
f 58 72 73
f 58 73 74
f 58 74 75
f 58 75 76
f 58 76 77
f 58 77 59
f 61 68 78
f 61 78 79
f 61 79 62
f 62 79 69
f 68 80 81
f 68 81 78
f 69 79 82
f 69 82 83
f 70 83 96
f 70 96 84
f 70 84 72
f 70 72 71
f 72 84 85
f 72 85 86
f 72 86 73
f 73 86 87
f 73 87 88
f 73 88 89
f 73 89 90
f 73 90 91
f 73 91 74
f 78 81 79
f 79 81 82
f 80 92 81
f 81 92 93
f 81 93 94
f 81 94 95
f 81 95 82
f 82 95 83
f 83 95 94
f 83 94 96
f 84 96 97
f 84 97 85
f 85 97 114
f 85 114 98
f 85 98 86
f 86 98 87
f 87 98 99
f 87 99 88
f 88 99 100
f 88 100 89
f 89 101 102
f 89 102 103
f 89 103 90
f 89 100 104
f 89 104 105
f 89 105 106
f 89 106 101
f 90 103 91
f 92 107 108
f 92 108 109
f 92 109 110
f 92 110 93
f 93 110 109
f 93 109 111
f 93 111 112
f 93 112 113
f 93 113 94
f 94 113 97
f 94 97 96
f 97 113 114
f 98 114 115
f 98 115 99
f 99 115 117
f 99 117 105
f 99 105 104
f 99 104 100
f 101 106 116
f 105 117 118
f 105 118 106
f 106 118 127
f 106 127 119
f 106 119 116
f 107 120 121
f 107 121 122
f 107 122 108
f 108 122 109
f 109 122 123
f 109 123 124
f 109 124 111
f 111 124 115
f 111 115 112
f 112 115 114
f 112 114 113
f 115 124 123
f 115 123 122
f 115 122 117
f 116 119 125
f 117 122 121
f 117 121 126
f 117 126 118
f 118 126 121
f 118 121 120
f 118 120 128
f 118 128 127
f 119 127 129
f 119 129 125
f 120 130 128
f 127 128 130
f 127 130 129

