# https://github.com/mikedh/trimesh
v 0.34441328 0.00471496 0.19787231
v 0.34441328 -0.00524919 0.19783357
v 0.34441328 0.01499376 0.19485113
v 0.11466780 0.05282256 0.18082976
v 0.11466780 0.04499109 0.18311501
v 0.11466780 0.03464236 0.18594253
v 0.11466780 0.02499287 0.18834397
v 0.11466780 0.01855988 0.18973836
v 0.11466780 0.01340299 0.19055176
v 0.11484773 0.00481984 0.19148135
v 0.11466780 -0.00498698 0.19152009
v 0.11466780 -0.01655938 0.19016445
v 0.11466780 -0.02535230 0.18834397
v 0.11466780 -0.03498431 0.18590379
v 0.11466780 -0.04528059 0.18307629
v 0.11466780 -0.05314703 0.18082976
v 0.34441328 -0.01521334 0.19485113
v 0.34441328 0.05165134 0.18067482
v 0.25498912 0.06498931 0.17715013
v 0.23499461 0.06498931 0.17742124
v 0.22500861 0.06498931 0.17749873
v 0.22500861 0.05890593 0.17966777
v 0.21502261 0.05883601 0.17962903
v 0.11466780 0.05764731 0.17935792
v 0.11466780 -0.05797177 0.17935792
v 0.34441328 -0.05258764 0.18086851
v 0.21502261 -0.05928284 0.17978397
v 0.22500861 -0.05937025 0.17978397
v 0.22500861 -0.06499912 0.17784733
v 0.23499461 -0.06499912 0.17780858
v 0.25498912 -0.06499912 0.17757618
v 0.26497510 -0.06499912 0.17745999
v 0.31497258 -0.05809414 0.17931917
v 0.34441328 0.05665089 0.17831212
v 0.33496708 0.05684318 0.17862198
v 0.32498106 0.05703547 0.17881563
v 0.27498358 0.06498931 0.17664659
v 0.26497510 0.06498931 0.17691773
v 0.25498912 0.07414933 0.17257962
v 0.23499461 0.07467376 0.17273456
v 0.22500861 0.07483109 0.17281201
v 0.21502261 0.06498931 0.17742124
v 0.11466780 0.06486695 0.17649168
v 0.11466780 -0.06499912 0.17672405
v 0.21502261 -0.06499912 0.17776984
v 0.32498106 -0.05791933 0.17920297
v 0.33496708 -0.05769208 0.17908677
v 0.34441328 -0.05765712 0.17873818
v 0.22500861 -0.07499823 0.17343175
v 0.23499461 -0.07499823 0.17331555
v 0.24498062 -0.07499823 0.17316061
v 0.25498912 -0.07499823 0.17296696
v 0.27498358 -0.06499912 0.17722759
v 0.34441328 0.06392297 0.17331555
v 0.32498106 0.07072306 0.17072043
v 0.32498106 0.06498931 0.17455500
v 0.31497258 0.06498931 0.17513600
v 0.30496410 0.06498931 0.17563954
v 0.29497808 0.06498931 0.17602688
v 0.26497510 0.07376475 0.17242470
v 0.23499461 0.07967332 0.16967463
v 0.22500861 0.07983065 0.16982958
v 0.21502261 0.07474369 0.17277330
v 0.11466780 0.07301307 0.17223102
v 0.21502261 -0.07499823 0.17331555
v 0.11466780 -0.07403678 0.17226976
v 0.28496960 -0.06499912 0.17699519
v 0.29497808 -0.06499912 0.17672405
v 0.30496410 -0.06499912 0.17645293
v 0.31497258 -0.06499912 0.17614308
v 0.32498106 -0.06499912 0.17575574
v 0.33496708 -0.06499912 0.17509729
v 0.34380603 -0.06837294 0.17157257
v 0.34441328 -0.07213135 0.16510415
v 0.21502261 -0.08038236 0.17033312
v 0.22500861 -0.08045229 0.17037183
v 0.23499461 -0.08038236 0.17033312
v 0.24498062 -0.08025999 0.17021692
v 0.25498912 -0.08012015 0.17010072
v 0.26065683 -0.08003274 0.17002323
v 0.26439035 -0.07585479 0.17223102
v 0.34441328 0.06888756 0.16731194
v 0.33818328 0.06958680 0.16924858
v 0.33150345 0.07028604 0.17029437
v 0.27498358 0.07823988 0.16777673
v 0.26497510 0.07876430 0.16859013
v 0.31497258 0.07126497 0.17118523
v 0.30496410 0.07177192 0.17153382
v 0.29497808 0.07226139 0.17180496
v 0.28496960 0.07273337 0.17203736
v 0.25498912 0.07914889 0.16909364
v 0.24498062 0.07941110 0.16940352
v 0.25498912 0.08233042 0.16409707
v 0.24498062 0.08255768 0.16440696
v 0.23499461 0.08278493 0.16467807
v 0.22500861 0.08290730 0.16483301
v 0.21502261 0.08285485 0.16475555
v 0.21502261 0.07974324 0.16975212
v 0.11466780 0.07806507 0.16797039
v 0.11466780 -0.07894892 0.16901618
v 0.16502514 -0.07971809 0.16975212
v 0.18083631 -0.07996282 0.16994578
v 0.18749364 -0.08005022 0.17002323
v 0.27498358 -0.07438640 0.17261836
v 0.30496410 -0.07270822 0.17207611
v 0.31497258 -0.07213135 0.17180496
v 0.32498106 -0.07160692 0.17149511
v 0.33496708 -0.07099508 0.17099157
v 0.33496708 -0.07426403 0.16498795
v 0.33496708 -0.07704350 0.15495607
v 0.34441328 -0.07466609 0.15468496
v 0.21502261 -0.08424566 0.16498795
v 0.22500861 -0.08438551 0.16498795
v 0.23499461 -0.08421069 0.16498795
v 0.26733667 -0.07977053 0.16975212
v 0.24498062 -0.08387855 0.16498795
v 0.25498912 -0.08352894 0.16498795
v 0.26439035 -0.08246260 0.16584006
v 0.34441328 0.07088039 0.16231537
v 0.33489960 0.07184184 0.16553020
v 0.28496960 0.07773293 0.16684714
v 0.32498106 0.07376475 0.16498795
v 0.30017352 0.08002294 0.16006884
v 0.29497808 0.08033759 0.16072732
v 0.28496960 0.08089698 0.16185057
v 0.27498358 0.08143889 0.16278017
v 0.26497510 0.08196332 0.16359356
v 0.25498912 0.08528470 0.15495607
v 0.23499461 0.08621120 0.15495607
v 0.22500861 0.08650837 0.15495607
v 0.21502261 0.08643845 0.15495607
v 0.11466780 0.08161370 0.16289636
v 0.11466780 -0.08248008 0.16401961
v 0.27498358 -0.07938595 0.16936478
v 0.28496960 -0.07886152 0.16870633
v 0.29497808 -0.07830213 0.16785419
v 0.29497808 -0.08144870 0.16285762
v 0.30496410 -0.08078443 0.16161817
v 0.31168890 -0.08025999 0.16057238
v 0.32435131 -0.07910626 0.15453002
v 0.32059532 -0.08008519 0.15092784
v 0.33496708 -0.07765533 0.14496297
v 0.34441328 -0.07524296 0.14496297
v 0.21502261 -0.08845857 0.15495607
v 0.22500861 -0.08854597 0.15495607
v 0.23499461 -0.08830124 0.15495607
v 0.27498358 -0.08253253 0.16436821
v 0.25498912 -0.08742719 0.15495607
v 0.34441328 0.07233131 0.15495607
v 0.33496708 0.07472620 0.15495607
v 0.32498106 0.07664911 0.15495607
v 0.31497258 0.07827484 0.15495607
v 0.30208525 0.08033759 0.15495607
v 0.29497808 0.08126409 0.15495607
v 0.28496960 0.08238287 0.15495607
v 0.27498358 0.08348417 0.15495607
v 0.26497510 0.08453302 0.15495607
v 0.26497510 0.08524974 0.14496297
v 0.25498912 0.08598395 0.14496297
v 0.23499461 0.08692791 0.14496297
v 0.22500861 0.08726005 0.14496297
v 0.21502261 0.08722509 0.14496297
v 0.16502514 0.08619372 0.14496297
v 0.15501665 0.08598395 0.14496297
v 0.15501665 0.08502249 0.15495607
v 0.11466780 0.08402608 0.15495607
v 0.11466780 -0.08583643 0.15480116
v 0.28496960 -0.08200809 0.16370976
v 0.26497510 -0.08671047 0.15495607
v 0.27498358 -0.08566161 0.15495607
v 0.28496960 -0.08459528 0.15495607
v 0.29497808 -0.08347649 0.15495607
v 0.30496410 -0.08213046 0.15495607
v 0.31668189 -0.08015511 0.15607935
v 0.30496410 -0.08275978 0.14496297
v 0.31497258 -0.08116901 0.14496297
v 0.32615060 -0.07936846 0.14496297
v 0.32637551 -0.07942091 0.13496983
v 0.33496708 -0.07774274 0.13496983
v 0.34441328 -0.07533037 0.13496983
v 0.11466780 -0.08678039 0.14496297
v 0.15501665 -0.08782925 0.14496297
v 0.20501412 -0.08898300 0.14496297
v 0.21502261 -0.08921025 0.14496297
v 0.22500861 -0.08928017 0.14496297
v 0.23499461 -0.08896551 0.14496297
v 0.25498912 -0.08805650 0.14496297
v 0.26497510 -0.08735727 0.14496297
v 0.34441328 0.07301307 0.14523408
v 0.33496708 0.07546040 0.14496297
v 0.32498106 0.07738331 0.14496297
v 0.30937234 0.07990057 0.14496297
v 0.30437931 0.08070470 0.14496297
v 0.29497808 0.08199828 0.14496297
v 0.28496960 0.08313455 0.14496297
v 0.27498358 0.08421837 0.14496297
v 0.27498358 0.08439317 0.13496983
v 0.26497510 0.08540707 0.13496983
v 0.25498912 0.08612379 0.13496983
v 0.23499461 0.08701532 0.13496983
v 0.23499461 0.08900815 -0.13496086
v 0.22500861 0.08927036 -0.13496086
v 0.16502514 0.08635104 0.13496983
v 0.15501665 0.08615875 0.13496983
v 0.21502261 0.08921792 -0.13496086
v 0.11466780 0.08516234 0.13531843
v 0.11466780 0.08498753 0.14496297
v 0.27498358 -0.08632589 0.14496297
v 0.28496960 -0.08524207 0.14496297
v 0.29497808 -0.08412329 0.14496297
v 0.30496410 -0.08282970 0.13496983
v 0.31497258 -0.08123893 0.13496983
v 0.30496410 -0.08213046 0.04495420
v 0.32498106 -0.07893144 0.04495420
v 0.32498106 -0.07817976 -0.04494523
v 0.33496708 -0.07700854 0.04495420
v 0.34441328 -0.07457869 0.04441193
v 0.11466780 -0.08686780 0.13477615
v 0.15501665 -0.08789918 0.13496983
v 0.21502261 -0.08915780 0.13496983
v 0.22500861 -0.08921025 0.13496983
v 0.23499461 -0.08893055 0.13496983
v 0.25498912 -0.08805650 0.13496983
v 0.26497510 -0.08735727 0.13496983
v 0.27498358 -0.08636085 0.13496983
v 0.34441328 0.07327528 0.13496983
v 0.33496708 0.07568765 0.13496983
v 0.32498106 0.07761056 0.13496983
v 0.30988961 0.07997049 0.13888186
v 0.30593121 0.08066973 0.13531843
v 0.29497808 0.08220805 0.13496983
v 0.28496960 0.08332684 0.13496983
v 0.28496960 0.08406103 0.04495420
v 0.27498358 0.08510990 0.04495420
v 0.26497510 0.08603638 0.05494733
v 0.26497510 0.08680554 -0.04494523
v 0.25498912 0.08748730 -0.04494523
v 0.25498912 0.08815158 -0.13496086
v 0.23499461 0.08900815 -0.14495400
v 0.22500861 0.08930533 -0.14495400
v 0.11466780 0.08523227 0.12532529
v 0.15501665 0.08788937 -0.13496086
v 0.21502261 0.08923540 -0.14495400
v 0.28496960 -0.08531199 0.13496983
v 0.29497808 -0.08419321 0.13496983
v 0.29497808 -0.08351146 0.04495420
v 0.29497808 -0.08204305 -0.13496086
v 0.30496410 -0.08139626 -0.04494523
v 0.31683934 -0.07949083 -0.04494523
v 0.30946228 -0.07991038 -0.13496086
v 0.31497258 -0.07901885 -0.13496086
v 0.32498106 -0.07739312 -0.13496086
v 0.33496708 -0.07623938 -0.04494523
v 0.34441328 -0.07380952 -0.04548749
v 0.11466780 -0.08681536 0.12458936
v 0.11466780 -0.08627345 0.03496107
v 0.11466780 -0.08524207 -0.13496086
v 0.15501665 -0.08623849 -0.12496773
v 0.16502514 -0.08636085 -0.13496086
v 0.20501412 -0.08706009 -0.13496086
v 0.21502261 -0.08723490 -0.13496086
v 0.22500861 -0.08725238 -0.13496086
v 0.23499461 -0.08693773 -0.13496086
v 0.25498912 -0.08737475 0.04495420
v 0.26497510 -0.08667551 0.04495420
v 0.27498358 -0.08567909 0.04495420
v 0.34441328 0.07406193 0.04495420
v 0.33496708 0.07647430 0.04495420
v 0.31409544 0.07935866 0.13531843
v 0.32498106 0.07839721 0.04495420
v 0.31015950 0.08002294 0.13221979
v 0.31245360 0.08039004 0.04495420
v 0.30496410 0.08157874 0.04495420
v 0.30496410 0.08231294 -0.04494523
v 0.29497808 0.08367646 -0.04494523
v 0.28496960 0.08476028 -0.04494523
v 0.27498358 0.08580913 -0.04494523
v 0.26497510 0.08748730 -0.13496086
v 0.25498912 0.08813410 -0.14495400
v 0.25498912 0.08748730 -0.15494713
v 0.23499461 0.08832639 -0.15494713
v 0.22500861 0.08857112 -0.15494713
v 0.11466780 0.08535463 0.10533904
v 0.11466780 0.08680554 -0.13480592
v 0.11466780 0.08675311 -0.12461913
v 0.11466780 0.08608883 -0.01496584
v 0.11466780 0.08547699 0.08531404
v 0.15501665 0.08778448 -0.14495400
v 0.11466780 0.08670066 -0.14495400
v 0.21502261 0.08846624 -0.15494713
v 0.28496960 -0.08461276 0.04495420
v 0.28496960 -0.08317932 -0.13496086
v 0.29497808 -0.08179832 -0.14495400
v 0.30370459 -0.08059213 -0.14495400
v 0.30444682 -0.08071450 -0.13496086
v 0.30869758 -0.07978801 -0.14495400
v 0.31497258 -0.07877412 -0.14495400
v 0.32498106 -0.07713091 -0.14495400
v 0.33496708 -0.07545273 -0.13496086
v 0.34441328 -0.07302288 -0.13496086
v 0.11466780 -0.08503230 -0.14495400
v 0.15501665 -0.08597627 -0.14495400
v 0.14503065 -0.08594131 -0.13496086
v 0.15501665 -0.08616856 -0.13496086
v 0.20501412 -0.08695520 -0.14495400
v 0.21502261 -0.08713002 -0.14495400
v 0.22500861 -0.08714750 -0.14495400
v 0.23499461 -0.08681536 -0.14495400
v 0.25498912 -0.08601123 -0.13496086
v 0.26497510 -0.08599375 -0.04494523
v 0.26497510 -0.08529451 -0.13496086
v 0.27498358 -0.08426314 -0.13496086
v 0.34441328 0.07483109 -0.04494523
v 0.33496708 0.07722598 -0.04494523
v 0.32702774 0.07953347 -0.13496086
v 0.32396898 0.07930622 -0.04595229
v 0.31996560 0.07998797 -0.04994180
v 0.32203475 0.08032011 -0.13496086
v 0.30496410 0.08299470 -0.13496086
v 0.29497808 0.08435822 -0.13496086
v 0.28496960 0.08544204 -0.13496086
v 0.27498358 0.08649089 -0.13496086
v 0.26497510 0.08743487 -0.14495400
v 0.26497510 0.08678807 -0.15494713
v 0.26497510 0.08325692 -0.16497898
v 0.25498912 0.08381630 -0.16497898
v 0.23499461 0.08448058 -0.16497898
v 0.22500861 0.08465539 -0.16497898
v 0.11466780 0.08573921 -0.15479219
v 0.21502261 0.08449806 -0.16497898
v 0.11466780 0.08243531 -0.16416559
v 0.27498358 -0.08405337 -0.14495400
v 0.28496960 -0.08293458 -0.14495400
v 0.28496960 -0.08218290 -0.15494713
v 0.29574278 -0.08085435 -0.15572178
v 0.30370459 -0.07992786 -0.15432739
v 0.31497258 -0.07803991 -0.15494713
v 0.32498106 -0.07639670 -0.15494713
v 0.33496708 -0.07519052 -0.14495400
v 0.34441328 -0.07276066 -0.14495400
v 0.11466780 -0.08405337 -0.15494713
v 0.15501665 -0.08499733 -0.15494713
v 0.20501412 -0.08609864 -0.15494713
v 0.21502261 -0.08630841 -0.15494713
v 0.22500861 -0.08636085 -0.15494713
v 0.23499461 -0.08608115 -0.15494713
v 0.25498912 -0.08583643 -0.14495400
v 0.24498062 -0.08560917 -0.15494713
v 0.25498912 -0.08511970 -0.15494713
v 0.26497510 -0.08510222 -0.14495400
v 0.34441328 0.07556529 -0.13468972
v 0.33496708 0.07796019 -0.13496086
v 0.33496708 0.07783782 -0.14495400
v 0.32671288 0.07946354 -0.14495400
v 0.32169738 0.08026767 -0.14495400
v 0.31497258 0.08133401 -0.14495400
v 0.30496410 0.08290730 -0.14495400
v 0.29497808 0.08425333 -0.14495400
v 0.28496960 0.08535463 -0.14495400
v 0.27498358 0.08642097 -0.14495400
v 0.27498358 0.08575669 -0.15494713
v 0.30496410 0.08084454 -0.16184160
v 0.29497808 0.08150882 -0.16311979
v 0.28496960 0.08205073 -0.16401064
v 0.27403897 0.08206820 -0.16575363
v 0.27008057 0.08000545 -0.16997555
v 0.26497510 0.08014530 -0.17013046
v 0.25498912 0.08037256 -0.17032415
v 0.23499461 0.08063477 -0.17055655
v 0.22500861 0.08070470 -0.17059526
v 0.21502261 0.08063477 -0.17055655
v 0.16821885 0.08004042 -0.17001426
v 0.16153903 0.07993553 -0.16993681
v 0.11466780 0.07918385 -0.16916215
v 0.26497510 -0.08436802 -0.15494713
v 0.27498358 -0.08328421 -0.15494713
v 0.29958874 -0.07994534 -0.15959507
v 0.33496708 -0.07443884 -0.15494713
v 0.33485460 -0.07171181 -0.16548252
v 0.34441328 -0.07155447 -0.15761968
v 0.11466780 -0.08162351 -0.16304234
v 0.20501412 -0.08267237 -0.16470784
v 0.22500861 -0.08284718 -0.16497898
v 0.24498062 -0.08248008 -0.16451418
v 0.25498912 -0.08225282 -0.16420433
v 0.26497510 -0.08186825 -0.16362333
v 0.34441328 0.07544293 -0.14468285
v 0.34441328 0.07486605 -0.15467599
v 0.33496708 0.07722598 -0.15494713
v 0.32091022 0.08014530 -0.15142241
v 0.30496410 0.08226050 -0.15494713
v 0.29497808 0.08360653 -0.15494713
v 0.28496960 0.08469035 -0.15494713
v 0.31202626 0.08030263 -0.16071835
v 0.32498106 0.07617713 -0.16497898
v 0.33496708 0.07123001 -0.17129245
v 0.30496410 0.07803011 -0.16683817
v 0.29497808 0.07862446 -0.16811636
v 0.28496960 0.07920133 -0.16900721
v 0.27673790 0.07965583 -0.16958821
v 0.32498106 0.07187681 -0.17183474
v 0.30496410 0.07303055 -0.17241573
v 0.32498106 0.06498931 -0.17648271
v 0.27403897 0.07579254 -0.17237699
v 0.26497510 0.07498842 -0.17326784
v 0.25498912 0.07498842 -0.17353898
v 0.24498062 0.07498842 -0.17373264
v 0.23499461 0.07498842 -0.17388758
v 0.22500861 0.07498842 -0.17400378
v 0.21502261 0.07498842 -0.17388758
v 0.11466780 0.07418429 -0.17264813
v 0.27498358 -0.08134381 -0.16273245
v 0.28496960 -0.08078443 -0.16172540
v 0.29293141 -0.08034740 -0.16075706
v 0.33145848 -0.07027837 -0.17028540
v 0.32498106 -0.07365219 -0.16497898
v 0.34412092 -0.06982386 -0.16463038
v 0.33811581 -0.06957913 -0.16912341
v 0.34441328 -0.06391530 -0.17353898
v 0.11466780 -0.07831961 -0.16811636
v 0.21925092 -0.08001526 -0.17001426
v 0.21556239 -0.08223534 -0.16590858
v 0.23002410 -0.07999779 -0.16997555
v 0.23400500 -0.08216542 -0.16586983
v 0.23670393 -0.07980549 -0.16978186
v 0.25498912 -0.07929854 -0.16920090
v 0.26497510 -0.07889649 -0.16861990
v 0.34441328 0.07245368 -0.16509518
v 0.32453126 0.07920133 -0.15483093
v 0.33496708 0.07460384 -0.16497898
v 0.31695178 0.08023271 -0.15645769
v 0.34398597 0.06876519 -0.17175725
v 0.34441328 0.05862624 -0.17915529
v 0.33496708 0.06498931 -0.17578551
v 0.33496708 0.05874861 -0.17946514
v 0.31497258 0.06498931 -0.17687002
v 0.30496410 0.06498931 -0.17717990
v 0.32498106 0.05902830 -0.17962009
v 0.28496960 0.06498931 -0.17772216
v 0.26497510 0.06512915 -0.17810950
v 0.25498912 0.06528649 -0.17818695
v 0.24498062 0.06540886 -0.17826441
v 0.23499461 0.06549626 -0.17830315
v 0.22500861 0.06553122 -0.17834190
v 0.21502261 0.06544381 -0.17830315
v 0.11466780 0.06514664 -0.17725736
v 0.27498358 -0.07837205 -0.16772902
v 0.28496960 -0.07786511 -0.16672197
v 0.32498106 -0.07073288 -0.17078894
v 0.34441328 -0.05729001 -0.17853555
v 0.11466780 -0.07340746 -0.17245445
v 0.21556239 -0.07592472 -0.17245445
v 0.22500861 -0.07499823 -0.17307419
v 0.23400500 -0.07588976 -0.17241573
v 0.25498912 -0.07429899 -0.17284179
v 0.26497510 -0.07389693 -0.17268685
v 0.27498358 -0.07337250 -0.17249319
v 0.29497808 -0.07237608 -0.17202839
v 0.30496410 -0.07186913 -0.17171854
v 0.31497258 -0.07132722 -0.17133120
v 0.34441328 0.05359172 -0.18128559
v 0.31497258 0.05925556 -0.17969754
v 0.25498912 0.06028693 -0.18008488
v 0.24498062 0.06040930 -0.18012360
v 0.23499461 0.06049670 -0.18016234
v 0.22500861 0.06053166 -0.18016234
v 0.21502261 0.06044426 -0.18012360
v 0.11466780 0.05665089 -0.18043348
v 0.32498106 -0.06499912 -0.17489463
v 0.30496410 -0.06499912 -0.17609537
v 0.33496708 -0.05753475 -0.17888415
v 0.34441328 -0.05229046 -0.18097574
v 0.31497258 -0.06499912 -0.17555311
v 0.20501412 -0.07475349 -0.17299673
v 0.11466780 -0.06499912 -0.17710242
v 0.24498062 -0.07457869 -0.17291924
v 0.19502813 -0.06499912 -0.17783836
v 0.22500861 -0.06505156 -0.17807075
v 0.24498062 -0.06499912 -0.17787710
v 0.25498912 -0.06499912 -0.17772216
v 0.26497510 -0.06499912 -0.17752850
v 0.27498358 -0.06499912 -0.17721862
v 0.28496960 -0.06499912 -0.17690876
v 0.29497808 -0.06499912 -0.17652142
v 0.34441328 0.01499376 -0.19476470
v 0.34441328 0.00525686 -0.19782463
v 0.11466780 0.04499109 -0.18388072
v 0.32498106 -0.05777948 -0.17907780
v 0.26497510 -0.05944017 -0.17981374
v 0.34441328 -0.04498342 -0.18357086
v 0.29497808 -0.05861857 -0.17950389
v 0.28496960 -0.05891574 -0.17962009
v 0.11466780 -0.05888078 -0.17962009
v 0.21506760 -0.06402019 -0.17841935
v 0.22500861 -0.06005201 -0.18000740
v 0.23508458 -0.06402019 -0.17841935
v 0.34441328 -0.00498698 -0.19704995
v 0.11466780 -0.00498698 -0.19251817
v 0.11466780 0.00516946 -0.19271186
v 0.11466780 0.01509865 -0.19154987
v 0.11466780 0.02142675 -0.19027168
v 0.11466780 0.02633890 -0.18903220
v 0.11466780 0.03499198 -0.18666950
v 0.24498062 -0.05982475 -0.17992994
v 0.23848072 -0.05994712 -0.17996868
v 0.11466780 -0.05354909 -0.18124688
v 0.21178392 -0.05992964 -0.17996868
v 0.11466780 -0.01463647 -0.19108507
v 0.11466780 -0.04498342 -0.18368706
v 0.11466780 -0.03498431 -0.18632090
v 0.11466780 -0.02507260 -0.18879980
v 0.11466780 -0.02010801 -0.19000053
f 1 2 17
f 1 17 26
f 1 26 48
f 1 48 74
f 1 74 111
f 1 111 143
f 1 143 180
f 1 180 217
f 1 217 254
f 1 254 300
f 1 300 340
f 1 340 380
f 1 380 419
f 1 419 450
f 1 450 472
f 1 472 490
f 1 490 497
f 1 497 486
f 1 486 485
f 1 485 461
f 1 461 433
f 1 433 428
f 1 428 388
f 1 388 387
f 1 387 351
f 1 351 313
f 1 313 267
f 1 267 226
f 1 226 189
f 1 189 149
f 1 149 119
f 1 119 82
f 1 82 54
f 1 54 34
f 1 34 18
f 1 18 3
f 1 3 4
f 1 4 5
f 1 5 6
f 1 6 7
f 1 7 8
f 1 8 9
f 1 9 10
f 1 10 11
f 1 11 2
f 2 11 12
f 2 12 13
f 2 13 14
f 2 14 15
f 2 15 16
f 2 16 17
f 3 18 19
f 3 19 20
f 3 20 21
f 3 21 22
f 3 22 23
f 3 23 24
f 3 24 4
f 4 24 43
f 4 43 64
f 4 64 99
f 4 99 132
f 4 132 166
f 4 166 207
f 4 207 206
f 4 206 241
f 4 241 283
f 4 283 287
f 4 287 286
f 4 286 285
f 4 285 284
f 4 284 289
f 4 289 329
f 4 329 331
f 4 331 374
f 4 374 411
f 4 411 446
f 4 446 468
f 4 468 487
f 4 487 503
f 4 503 502
f 4 502 501
f 4 501 500
f 4 500 499
f 4 499 498
f 4 498 508
f 4 508 512
f 4 512 511
f 4 511 510
f 4 510 509
f 4 509 506
f 4 506 493
f 4 493 475
f 4 475 451
f 4 451 420
f 4 420 381
f 4 381 341
f 4 341 301
f 4 301 257
f 4 257 256
f 4 256 255
f 4 255 218
f 4 218 181
f 4 181 167
f 4 167 133
f 4 133 100
f 4 100 66
f 4 66 44
f 4 44 25
f 4 25 16
f 4 16 15
f 4 15 14
f 4 14 13
f 4 13 12
f 4 12 11
f 4 11 9
f 4 9 8
f 4 8 7
f 4 7 6
f 4 6 5
f 9 11 10
f 16 25 17
f 17 25 27
f 17 27 28
f 17 28 29
f 17 29 30
f 17 30 31
f 17 31 32
f 17 32 33
f 17 33 26
f 18 34 35
f 18 35 36
f 18 36 37
f 18 37 38
f 18 38 19
f 19 38 39
f 19 39 40
f 19 40 41
f 19 41 20
f 20 41 21
f 21 41 42
f 21 42 24
f 21 24 23
f 21 23 22
f 24 42 43
f 25 44 45
f 25 45 27
f 26 33 46
f 26 46 47
f 26 47 48
f 27 45 29
f 27 29 28
f 29 45 49
f 29 49 30
f 30 49 31
f 31 49 50
f 31 50 32
f 32 50 51
f 32 51 52
f 32 52 53
f 32 53 47
f 32 47 46
f 32 46 33
f 34 54 55
f 34 55 56
f 34 56 57
f 34 57 58
f 34 58 35
f 35 58 59
f 35 59 37
f 35 37 36
f 37 59 39
f 37 39 38
f 39 60 61
f 39 61 62
f 39 62 40
f 39 59 60
f 40 62 41
f 41 63 42
f 41 62 63
f 42 63 43
f 43 63 64
f 44 65 49
f 44 49 45
f 44 66 65
f 47 53 67
f 47 67 68
f 47 68 69
f 47 69 70
f 47 70 71
f 47 71 48
f 48 71 72
f 48 72 73
f 48 73 74
f 49 65 75
f 49 75 76
f 49 76 77
f 49 77 50
f 50 77 51
f 51 77 78
f 51 78 52
f 52 70 69
f 52 69 68
f 52 68 67
f 52 67 53
f 52 78 79
f 52 79 80
f 52 80 81
f 52 81 70
f 54 82 83
f 54 83 84
f 54 84 55
f 55 84 85
f 55 85 86
f 55 86 87
f 55 87 56
f 56 87 88
f 56 88 57
f 57 88 89
f 57 89 90
f 57 90 58
f 58 90 60
f 58 60 59
f 60 90 91
f 60 91 92
f 60 92 61
f 61 92 93
f 61 93 94
f 61 94 95
f 61 95 62
f 62 95 96
f 62 96 97
f 62 97 98
f 62 98 63
f 63 98 64
f 64 98 99
f 65 66 75
f 66 100 101
f 66 101 102
f 66 102 103
f 66 103 75
f 70 81 104
f 70 104 71
f 71 104 80
f 71 80 105
f 71 105 106
f 71 106 107
f 71 107 72
f 72 107 108
f 72 108 73
f 73 108 74
f 74 108 109
f 74 109 110
f 74 110 111
f 75 103 112
f 75 112 113
f 75 113 76
f 76 113 77
f 77 113 114
f 77 114 78
f 78 114 79
f 79 114 80
f 80 115 107
f 80 107 106
f 80 106 105
f 80 104 81
f 80 114 116
f 80 116 117
f 80 117 118
f 80 118 115
f 82 119 83
f 83 119 120
f 83 120 84
f 84 121 85
f 84 120 122
f 84 122 123
f 84 123 124
f 84 124 125
f 84 125 126
f 84 126 121
f 85 121 126
f 85 126 127
f 85 127 86
f 86 127 91
f 86 91 87
f 87 91 88
f 88 91 89
f 89 91 90
f 91 127 93
f 91 93 92
f 93 127 128
f 93 128 129
f 93 129 94
f 94 129 95
f 95 129 130
f 95 130 96
f 96 130 131
f 96 131 97
f 97 131 132
f 97 132 98
f 98 132 99
f 100 133 101
f 101 133 112
f 101 112 102
f 102 112 103
f 107 115 134
f 107 134 108
f 108 134 135
f 108 135 136
f 108 136 137
f 108 137 138
f 108 138 109
f 109 138 139
f 109 139 110
f 110 139 140
f 110 140 141
f 110 141 142
f 110 142 111
f 111 142 143
f 112 133 144
f 112 144 113
f 113 144 145
f 113 145 114
f 114 145 146
f 114 146 116
f 115 118 147
f 115 147 134
f 116 146 117
f 117 147 118
f 117 146 148
f 117 148 147
f 119 149 150
f 119 150 120
f 120 150 151
f 120 151 123
f 120 123 122
f 123 151 152
f 123 152 153
f 123 153 154
f 123 154 155
f 123 155 156
f 123 156 157
f 123 157 124
f 124 157 125
f 125 157 126
f 126 157 127
f 127 157 128
f 128 157 158
f 128 158 159
f 128 159 160
f 128 160 129
f 129 160 161
f 129 161 130
f 130 161 162
f 130 162 131
f 131 162 163
f 131 163 164
f 131 164 165
f 131 165 132
f 132 165 166
f 133 167 144
f 134 147 168
f 134 168 135
f 135 168 137
f 135 137 136
f 137 168 169
f 137 169 138
f 138 169 170
f 138 170 171
f 138 171 172
f 138 172 139
f 139 172 173
f 139 173 174
f 139 174 140
f 140 174 173
f 140 173 141
f 141 175 176
f 141 176 177
f 141 177 142
f 141 173 175
f 142 177 178
f 142 178 179
f 142 179 180
f 142 180 143
f 144 167 181
f 144 181 182
f 144 182 183
f 144 183 184
f 144 184 145
f 145 184 185
f 145 185 146
f 146 185 186
f 146 186 148
f 147 148 169
f 147 169 168
f 148 186 187
f 148 187 188
f 148 188 169
f 149 189 190
f 149 190 150
f 150 190 191
f 150 191 151
f 151 191 152
f 152 191 192
f 152 192 193
f 152 193 153
f 153 193 194
f 153 194 154
f 154 194 195
f 154 195 155
f 155 195 156
f 156 195 196
f 156 196 157
f 157 196 158
f 158 196 197
f 158 197 198
f 158 198 159
f 159 198 199
f 159 199 160
f 160 199 200
f 160 200 161
f 161 200 201
f 161 201 202
f 161 202 162
f 162 203 204
f 162 204 163
f 162 202 205
f 162 205 203
f 163 204 164
f 164 206 207
f 164 207 166
f 164 166 165
f 164 204 206
f 169 188 208
f 169 208 170
f 170 208 171
f 171 208 209
f 171 209 210
f 171 210 172
f 172 210 173
f 173 210 175
f 175 210 245
f 175 245 211
f 175 211 212
f 175 212 176
f 176 212 178
f 176 178 177
f 178 212 213
f 178 213 214
f 178 214 215
f 178 215 216
f 178 216 179
f 179 216 180
f 180 216 217
f 181 218 182
f 182 218 219
f 182 219 183
f 183 219 184
f 184 219 220
f 184 220 185
f 185 220 221
f 185 221 222
f 185 222 186
f 186 222 223
f 186 223 187
f 187 223 224
f 187 224 188
f 188 224 225
f 188 225 208
f 189 226 190
f 190 226 227
f 190 227 228
f 190 228 191
f 191 228 229
f 191 229 192
f 192 229 193
f 193 229 230
f 193 230 231
f 193 231 194
f 194 231 195
f 195 231 232
f 195 232 196
f 196 232 197
f 197 232 233
f 197 233 234
f 197 234 198
f 198 234 235
f 198 235 199
f 199 235 236
f 199 236 237
f 199 237 200
f 200 237 201
f 201 237 238
f 201 238 239
f 201 239 240
f 201 240 202
f 202 240 205
f 203 205 204
f 204 241 206
f 204 205 242
f 204 242 241
f 205 240 243
f 205 243 242
f 208 225 244
f 208 244 209
f 209 244 245
f 209 245 210
f 211 245 246
f 211 246 213
f 211 213 212
f 213 246 247
f 213 247 248
f 213 248 214
f 214 248 249
f 214 249 215
f 215 249 250
f 215 250 251
f 215 251 252
f 215 252 299
f 215 299 253
f 215 253 216
f 216 253 254
f 216 254 217
f 218 255 219
f 219 255 256
f 219 256 257
f 219 257 258
f 219 258 220
f 220 258 259
f 220 259 260
f 220 260 261
f 220 261 221
f 221 261 262
f 221 262 222
f 222 262 263
f 222 263 223
f 223 263 264
f 223 264 265
f 223 265 224
f 224 265 266
f 224 266 225
f 225 266 244
f 226 267 268
f 226 268 227
f 227 268 270
f 227 270 228
f 228 269 229
f 228 270 271
f 228 271 269
f 229 269 230
f 230 269 271
f 230 271 270
f 230 270 272
f 230 272 273
f 230 273 231
f 231 273 274
f 231 274 275
f 231 275 232
f 232 275 233
f 233 275 276
f 233 276 277
f 233 277 234
f 234 277 235
f 235 277 236
f 236 277 322
f 236 322 278
f 236 278 237
f 237 278 238
f 238 278 279
f 238 279 239
f 239 279 280
f 239 280 281
f 239 281 240
f 240 281 282
f 240 282 243
f 241 242 283
f 242 284 285
f 242 285 286
f 242 286 287
f 242 287 283
f 242 243 288
f 242 288 289
f 242 289 284
f 243 282 290
f 243 290 288
f 244 266 291
f 244 291 246
f 244 246 245
f 246 291 292
f 246 292 247
f 247 292 333
f 247 333 293
f 247 293 294
f 247 294 295
f 247 295 248
f 248 295 250
f 248 250 249
f 250 295 294
f 250 294 296
f 250 296 297
f 250 297 251
f 251 297 252
f 252 297 298
f 252 298 339
f 252 339 299
f 253 299 254
f 254 299 300
f 257 301 302
f 257 302 303
f 257 303 258
f 258 303 304
f 258 304 259
f 259 304 305
f 259 305 260
f 260 305 306
f 260 306 261
f 261 306 307
f 261 307 262
f 262 307 263
f 263 307 308
f 263 308 309
f 263 309 264
f 264 309 265
f 265 309 310
f 265 310 266
f 266 310 311
f 266 311 312
f 266 312 291
f 267 313 268
f 268 313 314
f 268 314 315
f 268 315 270
f 270 315 316
f 270 316 317
f 270 317 272
f 272 317 273
f 273 317 274
f 274 317 315
f 274 315 318
f 274 318 319
f 274 319 320
f 274 320 275
f 275 320 321
f 275 321 276
f 276 321 322
f 276 322 277
f 278 322 323
f 278 323 279
f 279 323 324
f 279 324 280
f 280 324 325
f 280 325 326
f 280 326 281
f 281 326 327
f 281 327 282
f 282 327 328
f 282 328 290
f 288 290 289
f 289 290 329
f 290 328 330
f 290 330 331
f 290 331 329
f 291 312 292
f 292 312 332
f 292 332 333
f 293 333 334
f 293 334 335
f 293 335 336
f 293 336 294
f 294 336 296
f 296 336 297
f 297 336 337
f 297 337 338
f 297 338 298
f 298 338 339
f 299 339 340
f 299 340 300
f 301 341 342
f 301 342 302
f 302 305 304
f 302 304 303
f 302 342 343
f 302 343 344
f 302 344 305
f 305 344 306
f 306 344 345
f 306 345 307
f 307 345 346
f 307 346 308
f 308 347 309
f 308 346 348
f 308 348 349
f 308 349 347
f 309 311 310
f 309 347 311
f 311 347 350
f 311 350 312
f 312 350 332
f 313 351 314
f 314 351 352
f 314 352 315
f 315 352 353
f 315 353 354
f 315 354 355
f 315 355 356
f 315 356 318
f 315 317 316
f 318 356 357
f 318 357 319
f 319 357 320
f 320 357 358
f 320 358 359
f 320 359 321
f 321 359 360
f 321 360 322
f 322 360 323
f 323 360 324
f 324 360 361
f 324 361 362
f 324 362 363
f 324 363 364
f 324 364 325
f 325 365 366
f 325 366 326
f 325 364 365
f 326 366 367
f 326 367 368
f 326 368 327
f 327 368 369
f 327 369 328
f 328 369 370
f 328 370 371
f 328 371 330
f 330 371 372
f 330 372 373
f 330 373 331
f 331 373 374
f 332 350 375
f 332 375 376
f 332 376 334
f 332 334 333
f 334 376 377
f 334 377 335
f 335 377 336
f 336 377 337
f 337 377 338
f 338 378 339
f 338 377 379
f 338 379 378
f 339 378 340
f 340 378 380
f 341 381 342
f 342 381 343
f 343 381 344
f 344 381 382
f 344 382 383
f 344 383 345
f 345 384 346
f 345 383 384
f 346 384 385
f 346 385 348
f 347 349 350
f 348 385 349
f 349 375 350
f 349 385 386
f 349 386 375
f 351 387 353
f 351 353 352
f 353 387 388
f 353 388 389
f 353 389 354
f 354 389 390
f 354 390 355
f 355 390 356
f 356 390 357
f 357 390 391
f 357 391 392
f 357 392 358
f 358 392 359
f 359 392 393
f 359 393 361
f 359 361 360
f 361 393 362
f 362 393 392
f 362 392 394
f 362 394 395
f 362 395 396
f 362 396 397
f 362 397 363
f 363 397 398
f 363 398 399
f 363 399 364
f 364 399 400
f 364 400 365
f 365 400 366
f 366 400 401
f 366 401 402
f 366 402 403
f 366 403 404
f 366 404 367
f 367 404 405
f 367 405 368
f 368 405 406
f 368 406 369
f 369 406 407
f 369 407 408
f 369 408 409
f 369 409 370
f 370 409 371
f 371 409 410
f 371 410 411
f 371 411 372
f 372 411 373
f 373 411 374
f 375 386 412
f 375 412 413
f 375 413 414
f 375 414 377
f 375 377 376
f 377 414 415
f 377 415 416
f 377 416 379
f 378 379 417
f 378 417 380
f 379 416 415
f 379 415 418
f 379 418 417
f 380 417 419
f 381 420 421
f 381 421 422
f 381 422 382
f 382 422 383
f 383 422 421
f 383 421 423
f 383 423 424
f 383 424 384
f 384 424 385
f 385 424 423
f 385 423 425
f 385 425 426
f 385 426 386
f 386 426 427
f 386 427 447
f 386 447 412
f 388 428 389
f 389 429 390
f 389 428 430
f 389 430 394
f 389 394 429
f 390 429 431
f 390 431 391
f 391 431 394
f 391 394 392
f 394 431 429
f 394 430 395
f 395 430 396
f 396 432 433
f 396 433 434
f 396 434 401
f 396 401 400
f 396 400 399
f 396 399 398
f 396 398 397
f 396 430 428
f 396 428 432
f 401 434 403
f 401 403 402
f 403 434 433
f 403 433 435
f 403 435 436
f 403 436 405
f 403 405 404
f 405 436 437
f 405 437 438
f 405 438 406
f 406 438 439
f 406 439 440
f 406 440 407
f 407 440 408
f 408 440 441
f 408 441 442
f 408 442 409
f 409 442 443
f 409 443 444
f 409 444 445
f 409 445 410
f 410 445 446
f 410 446 411
f 412 447 448
f 412 448 413
f 413 448 415
f 413 415 414
f 415 448 449
f 415 449 419
f 415 419 418
f 417 418 419
f 419 449 450
f 420 451 421
f 421 451 452
f 421 452 453
f 421 453 423
f 423 453 454
f 423 454 455
f 423 455 456
f 423 456 425
f 425 456 426
f 426 456 457
f 426 457 458
f 426 458 459
f 426 459 460
f 426 460 427
f 427 460 449
f 427 449 447
f 428 433 432
f 433 461 435
f 435 438 437
f 435 437 436
f 435 461 438
f 438 440 439
f 438 461 462
f 438 462 440
f 440 462 441
f 441 462 463
f 441 463 442
f 442 463 464
f 442 464 465
f 442 465 443
f 443 465 444
f 444 465 466
f 444 466 467
f 444 467 445
f 445 467 468
f 445 468 446
f 447 449 448
f 449 460 469
f 449 469 450
f 450 470 471
f 450 471 472
f 450 469 473
f 450 473 470
f 451 474 452
f 451 475 474
f 452 474 453
f 453 476 454
f 453 474 475
f 453 475 477
f 453 477 478
f 453 478 479
f 453 479 480
f 453 480 476
f 454 476 455
f 455 476 481
f 455 481 482
f 455 482 483
f 455 483 456
f 456 483 484
f 456 484 470
f 456 470 457
f 457 470 473
f 457 473 458
f 458 473 459
f 459 473 469
f 459 469 460
f 461 485 462
f 462 485 463
f 463 485 464
f 464 485 465
f 465 485 466
f 466 485 486
f 466 486 467
f 467 486 468
f 468 486 487
f 470 484 471
f 471 484 483
f 471 483 482
f 471 482 481
f 471 481 488
f 471 488 472
f 472 489 490
f 472 488 481
f 472 481 491
f 472 491 492
f 472 492 489
f 475 493 477
f 476 480 481
f 477 493 494
f 477 494 478
f 478 494 495
f 478 495 496
f 478 496 479
f 479 496 489
f 479 489 480
f 480 489 481
f 481 489 492
f 481 492 491
f 486 497 498
f 486 498 499
f 486 499 500
f 486 500 501
f 486 501 502
f 486 502 503
f 486 503 487
f 489 504 505
f 489 505 497
f 489 497 490
f 489 496 504
f 493 506 507
f 493 507 494
f 494 507 495
f 495 507 497
f 495 497 505
f 495 505 496
f 496 505 504
f 497 508 498
f 497 507 506
f 497 506 509
f 497 509 510
f 497 510 511
f 497 511 512
f 497 512 508

