# https://github.com/mikedh/trimesh
v -0.32259613 -0.07716405 0.13497210
v -0.32259613 -0.07707372 0.14496604
v -0.32500631 -0.07656191 0.14496604
v -0.32500631 -0.07663718 0.13497210
v -0.32259613 -0.07642643 0.04498438
v -0.32259613 -0.07693825 0.14737982
v -0.32500631 -0.07598988 0.15495998
v -0.34878898 -0.06966745 0.15495998
v -0.33500141 -0.07388240 0.14496604
v -0.34491378 -0.07130827 0.13497210
v -0.32500631 -0.07589956 0.04498438
v -0.32500631 -0.07514689 -0.04496101
v -0.32259613 -0.07565871 -0.04496101
v -0.32259613 -0.07650170 0.15495998
v -0.32500631 -0.07343080 0.16499624
v -0.34200743 -0.07052550 0.16173550
v -0.35500342 -0.06783094 0.15495998
v -0.34975776 -0.06992336 0.14496604
v -0.34991133 -0.06996852 0.13497210
v -0.33500141 -0.07322005 0.04498438
v -0.34206650 -0.07055560 -0.04496101
v -0.32500631 -0.07434906 -0.13499108
v -0.32259613 -0.07487593 -0.13499108
v -0.34851724 -0.06959219 0.04498438
v -0.32259613 -0.07385230 0.16499624
v -0.33066547 -0.07011905 0.17012027
v -0.33732885 -0.06938144 0.16838402
v -0.33439887 -0.07123300 0.16503859
v -0.34520915 -0.06861372 0.16503859
v -0.35500342 -0.06582883 0.16499624
v -0.36358076 -0.06209559 0.16499624
v -0.36491582 -0.06314933 0.15495998
v -0.35500342 -0.06822232 0.14496604
v -0.35500342 -0.06823738 0.13497210
v -0.35500342 -0.06816211 0.12497818
v -0.35500342 -0.06667183 -0.04496101
v -0.35500342 -0.06596431 -0.12499716
v -0.34707585 -0.06920080 -0.04496101
v -0.34058967 -0.07014916 -0.13499108
v -0.34030613 -0.07007390 -0.14210540
v -0.32500631 -0.07409316 -0.14498502
v -0.32259613 -0.07462002 -0.14498502
v -0.32259613 -0.07084162 0.17084017
v -0.32500631 -0.07066098 0.17067078
v -0.35500342 -0.06209559 0.17240700
v -0.44329345 -0.01104949 0.21149343
v -0.36152503 -0.06080100 0.17100954
v -0.44329345 -0.01362362 0.20497197
v -0.36490399 -0.06328481 0.14496604
v -0.44329345 -0.01515907 0.19497806
v -0.36501032 -0.06328481 0.10499031
v -0.36501032 -0.06326976 0.09499639
v -0.36470315 -0.06275794 0.00496630
v -0.36394700 -0.06230634 -0.09497301
v -0.35500342 -0.06585894 -0.13499108
v -0.34558722 -0.06879435 -0.13499108
v -0.34419310 -0.06889973 -0.14523911
v -0.33589929 -0.07114269 -0.14523911
v -0.33983356 -0.06993841 -0.14875391
v -0.32500631 -0.07337059 -0.15497896
v -0.32259613 -0.07389746 -0.15497896
v -0.32259613 -0.06498584 0.17494783
v -0.44329345 -0.00442599 0.21682918
v -0.38350007 -0.05211518 0.09499639
v -0.37525353 -0.05711291 0.09499639
v -0.37025598 -0.06013865 0.09499639
v -0.36501032 -0.06326976 0.11498424
v -0.44329345 -0.01527950 0.15495998
v -0.36970070 -0.05979242 0.00496630
v -0.36962980 -0.05974726 -0.00498528
v -0.36894456 -0.05932576 -0.09497301
v -0.36376980 -0.06226118 -0.10496695
v -0.36306092 -0.06199021 -0.14498502
v -0.35500342 -0.06566325 -0.14498502
v -0.35500342 -0.06512132 -0.15497896
v -0.34500831 -0.06802663 -0.15497896
v -0.33881748 -0.06968250 -0.15497896
v -0.33192962 -0.07049539 -0.16154277
v -0.32259613 -0.07186525 -0.16327900
v -0.32259613 -0.05782042 0.17909786
v -0.32259613 -0.01499348 0.19446987
v -0.32259613 -0.00499802 0.19684133
v -0.40703464 0.00121903 0.21081588
v -0.41499764 0.00246847 0.21191692
v -0.44329345 -0.00296581 0.21665978
v -0.32259613 -0.05280764 0.18104583
v -0.44329345 -0.01472252 0.05497831
v -0.44329345 -0.01347309 -0.14498502
v -0.38299206 -0.05178401 0.00496630
v -0.44329345 -0.01526444 0.14670226
v -0.38220048 -0.05131735 -0.09497301
v -0.44329345 -0.01282579 -0.19326079
v -0.44329345 -0.01279569 -0.19499701
v -0.36289552 -0.06177947 -0.15497896
v -0.36182040 -0.06105690 -0.16319430
v -0.35594857 -0.06257729 -0.16590452
v -0.34500831 -0.06608474 -0.16497287
v -0.32407296 -0.07114269 -0.16488820
v -0.32259613 -0.07142870 -0.16493055
v -0.32259613 0.00499744 0.19654489
v -0.42499274 0.00359747 0.21306029
v -0.44329345 0.00397381 0.21555877
v -0.32259613 0.00739093 0.19595203
v -0.32259613 0.01499290 0.19396171
v -0.44329345 -0.01338277 -0.15328506
v -0.44329345 -0.01177206 -0.20278892
v -0.35990644 -0.05995800 -0.16988516
v -0.44329345 -0.01136561 -0.20439810
v -0.44329345 -0.01022155 -0.20854813
v -0.35324305 -0.06116228 -0.17149433
v -0.32679030 -0.06924596 -0.16819128
v -0.32259613 -0.06972767 -0.16933465
v -0.32259613 -0.07072119 -0.16679382
v -0.32259613 0.01691974 0.19332650
v -0.32259613 0.02435612 0.19070098
v -0.32259613 0.02983556 0.18871066
v -0.32259613 0.06447344 0.17325395
v -0.32259613 0.06615943 0.17194119
v -0.44329345 0.00475658 0.21479651
v -0.32259613 0.04662010 0.18252799
v -0.32259613 0.05160278 0.18066472
v -0.32259613 0.05280705 0.18015653
v -0.32259613 0.05660051 0.17842031
v -0.32259613 0.05881336 0.17706519
v -0.44329345 -0.00973985 -0.20939505
v -0.34500831 -0.06230634 -0.17268008
v -0.44329345 -0.00514856 -0.21422264
v -0.32259613 -0.06721374 -0.17191783
v -0.32259613 0.06929053 0.16851106
v -0.34500831 0.06195952 0.17223760
v -0.44329345 0.00958873 0.20857149
v -0.35268778 0.06093589 0.17117894
v -0.44329345 -0.00401955 -0.21519664
v -0.32259613 -0.06545250 -0.17327294
v -0.32259613 0.07136790 0.16359881
v -0.32500631 0.07117221 0.16292125
v -0.32500631 0.06903462 0.16791821
v -0.44329345 0.01001022 0.20772454
v -0.35936296 0.05974667 0.16931567
v -0.34500831 0.06548202 0.16499624
v -0.35561776 0.06224554 0.16558912
v -0.44329345 0.00219751 -0.21578950
v -0.41499764 -0.00185186 -0.21134302
v -0.42499274 -0.00329699 -0.21257111
v -0.32259613 -0.00499802 -0.19673327
v -0.32259613 -0.04499492 -0.18364799
v -0.32259613 -0.04684649 -0.18301278
v -0.32259613 -0.05255173 -0.18102247
v -0.32259613 -0.05375600 -0.18055665
v -0.32259613 -0.05756451 -0.17882040
v -0.32259613 -0.05929565 -0.17771938
v -0.32259613 0.07210552 0.16101563
v -0.33130345 0.07034427 0.16101563
v -0.44329345 0.01106396 0.20357451
v -0.36153686 0.06089073 0.16266716
v -0.35500342 0.06457882 0.15495998
v -0.40855873 -0.00067770 -0.21041140
v -0.44329345 0.00447057 -0.21570480
v -0.32259613 0.00499744 -0.19728377
v -0.32259613 0.00258889 -0.19715673
v -0.32259613 0.07340011 0.15495998
v -0.32500631 0.07287324 0.15495998
v -0.33286297 0.07076576 0.15495998
v -0.34500831 0.06749918 0.15495998
v -0.44329345 0.01142524 0.20200768
v -0.36245838 0.06150792 0.15495998
v -0.34500831 0.06813142 0.14496604
v -0.35500342 0.06507558 0.14496604
v -0.32259613 0.01499290 -0.19444650
v -0.44329345 0.01056720 -0.21079251
v -0.32259613 0.07069050 -0.17073211
v -0.32259613 0.06498526 -0.17500916
v -0.32259613 0.05834671 -0.17928624
v -0.32259613 0.05333392 -0.18127653
v -0.32259613 0.07356570 0.15258852
v -0.32500631 0.07356570 0.14496604
v -0.33908921 0.06974214 0.14496604
v -0.44329345 0.01217791 0.19497806
v -0.36261198 0.06168856 0.14496604
v -0.34500831 0.06837227 0.13497210
v -0.35500342 0.06525622 0.13497210
v -0.44329345 0.01274994 -0.20511800
v -0.36119422 0.06063483 -0.17085913
v -0.35500342 0.06186920 -0.17229894
v -0.33001566 0.06999804 -0.16996986
v -0.32500631 0.07049480 -0.17052037
v -0.32259613 0.07340011 -0.16497287
v -0.32259613 0.07409257 0.14496604
v -0.32259613 0.07415278 0.14259461
v -0.32500631 0.07379150 0.13497210
v -0.33452880 0.07121737 0.13497210
v -0.33952636 0.06986256 0.13497210
v -0.44329345 0.01220802 0.19328415
v -0.36332086 0.06195952 0.10499031
v -0.35500342 0.06536160 0.12497818
v -0.34598893 0.06889914 0.04498438
v -0.34743029 0.06929053 -0.04496101
v -0.36345080 0.06201974 0.09499639
v -0.44329345 0.01458646 -0.19499701
v -0.36308455 0.06180899 -0.16497287
v -0.35500342 0.06528632 -0.16497287
v -0.33667907 0.06923032 -0.16776779
v -0.32500631 0.07294851 -0.16497287
v -0.32259613 0.07589898 -0.15497896
v -0.32259613 0.07431837 0.13497210
v -0.32500631 0.07458933 0.04498438
v -0.33500141 0.07187971 0.04498438
v -0.44329345 0.01273489 0.15495998
v -0.36846018 0.05902411 0.09499639
v -0.38166884 0.05100064 0.09499639
v -0.34882441 0.06966687 -0.13499108
v -0.35500342 0.06686693 -0.04496101
v -0.34243274 0.07064534 -0.04496101
v -0.36413604 0.06241113 0.00496630
v -0.36913359 0.05944560 0.00496630
v -0.35500342 0.06757444 -0.12499716
v -0.44329345 0.01467678 -0.15497896
v -0.38299206 0.05181353 -0.09497301
v -0.36446685 0.06296811 -0.14498502
v -0.36445504 0.06281757 -0.15497896
v -0.35500342 0.06718305 -0.15497896
v -0.34119222 0.07029911 -0.16111928
v -0.34472477 0.06831206 -0.16463411
v -0.33400899 0.07090124 -0.16463411
v -0.32500631 0.07538716 -0.15497896
v -0.32259613 0.07636563 -0.14739880
v -0.32259613 0.07511620 0.04498438
v -0.32500631 0.07535706 -0.04496101
v -0.44329345 0.01282521 0.14496604
v -0.38240132 0.05143719 0.00496630
v -0.34382686 0.07102168 -0.13499108
v -0.34861174 0.06962170 -0.14498502
v -0.35500342 0.06760455 -0.14498502
v -0.35500342 0.06763466 -0.13499108
v -0.36477405 0.06284767 -0.09497301
v -0.36977157 0.05985205 -0.09497301
v -0.44329345 0.01466172 -0.14498502
v -0.44329345 0.01341229 0.05328442
v -0.36469132 0.06289283 -0.10496695
v -0.34759569 0.06935075 -0.15497896
v -0.34259814 0.07069050 -0.15497896
v -0.32500631 0.07598930 -0.14498502
v -0.32259613 0.07650112 -0.14498502
v -0.32259613 0.07588392 -0.04496101
v -0.32500631 0.07609467 -0.13499108
v -0.33500141 0.07329474 -0.14498502
v -0.32259613 0.07662154 -0.13499108
f 1 2 3
f 1 3 4
f 1 4 11
f 1 11 5
f 1 5 13
f 1 13 23
f 1 23 42
f 1 42 61
f 1 61 79
f 1 79 99
f 1 99 113
f 1 113 112
f 1 112 128
f 1 128 134
f 1 134 151
f 1 151 150
f 1 150 149
f 1 149 148
f 1 148 147
f 1 147 146
f 1 146 145
f 1 145 160
f 1 160 159
f 1 159 169
f 1 169 174
f 1 174 173
f 1 173 172
f 1 172 171
f 1 171 187
f 1 187 204
f 1 204 226
f 1 226 243
f 1 243 247
f 1 247 244
f 1 244 227
f 1 227 205
f 1 205 189
f 1 189 188
f 1 188 175
f 1 175 161
f 1 161 152
f 1 152 135
f 1 135 129
f 1 129 118
f 1 118 117
f 1 117 124
f 1 124 123
f 1 123 122
f 1 122 121
f 1 121 120
f 1 120 116
f 1 116 115
f 1 115 114
f 1 114 104
f 1 104 103
f 1 103 100
f 1 100 82
f 1 82 81
f 1 81 86
f 1 86 80
f 1 80 62
f 1 62 43
f 1 43 25
f 1 25 14
f 1 14 6
f 1 6 2
f 2 6 3
f 3 6 7
f 3 7 8
f 3 8 9
f 3 9 19
f 3 19 10
f 3 10 4
f 4 10 11
f 5 11 12
f 5 12 13
f 6 14 7
f 7 14 15
f 7 15 16
f 7 16 8
f 8 16 17
f 8 17 18
f 8 18 9
f 9 18 19
f 10 19 20
f 10 20 11
f 11 20 12
f 12 21 22
f 12 22 23
f 12 23 13
f 12 20 24
f 12 24 21
f 14 25 15
f 15 25 26
f 15 26 27
f 15 27 28
f 15 28 16
f 16 28 27
f 16 27 29
f 16 29 30
f 16 30 17
f 17 30 31
f 17 31 32
f 17 32 33
f 17 33 18
f 18 33 19
f 19 24 20
f 19 33 34
f 19 34 35
f 19 35 36
f 19 36 37
f 19 37 24
f 21 38 39
f 21 39 22
f 21 24 38
f 22 39 40
f 22 40 41
f 22 41 42
f 22 42 23
f 24 37 38
f 25 43 44
f 25 44 26
f 26 45 27
f 26 44 46
f 26 46 45
f 27 45 30
f 27 30 29
f 30 45 47
f 30 47 48
f 30 48 31
f 31 48 32
f 32 49 33
f 32 48 50
f 32 50 49
f 33 49 34
f 34 49 51
f 34 51 52
f 34 52 53
f 34 53 35
f 35 53 54
f 35 54 36
f 36 54 37
f 37 55 56
f 37 56 38
f 37 54 55
f 38 56 39
f 39 56 40
f 40 56 57
f 40 57 58
f 40 58 41
f 41 58 59
f 41 59 60
f 41 60 61
f 41 61 42
f 43 62 63
f 43 63 46
f 43 46 44
f 45 46 47
f 46 63 85
f 46 85 102
f 46 102 119
f 46 119 131
f 46 131 138
f 46 138 154
f 46 154 165
f 46 165 178
f 46 178 193
f 46 193 208
f 46 208 229
f 46 229 238
f 46 238 237
f 46 237 217
f 46 217 199
f 46 199 182
f 46 182 170
f 46 170 158
f 46 158 142
f 46 142 133
f 46 133 127
f 46 127 125
f 46 125 109
f 46 109 108
f 46 108 106
f 46 106 93
f 46 93 92
f 46 92 105
f 46 105 88
f 46 88 87
f 46 87 90
f 46 90 68
f 46 68 50
f 46 50 48
f 46 48 47
f 49 50 64
f 49 64 65
f 49 65 66
f 49 66 67
f 49 67 51
f 50 68 64
f 51 67 66
f 51 66 52
f 52 66 69
f 52 69 53
f 53 69 70
f 53 70 54
f 54 70 71
f 54 71 72
f 54 72 55
f 55 73 74
f 55 74 56
f 55 72 73
f 56 74 57
f 57 74 75
f 57 75 59
f 57 59 58
f 59 75 76
f 59 76 77
f 59 77 60
f 60 77 78
f 60 78 61
f 61 78 79
f 62 80 63
f 63 81 82
f 63 82 83
f 63 83 84
f 63 84 85
f 63 80 86
f 63 86 81
f 64 87 88
f 64 88 89
f 64 89 65
f 64 68 90
f 64 90 87
f 65 89 66
f 66 89 69
f 69 89 70
f 70 89 71
f 71 91 92
f 71 92 93
f 71 93 73
f 71 73 72
f 71 89 91
f 73 93 94
f 73 94 74
f 74 94 75
f 75 94 95
f 75 95 96
f 75 96 97
f 75 97 76
f 76 97 78
f 76 78 77
f 78 97 98
f 78 98 99
f 78 99 79
f 82 100 83
f 83 100 84
f 84 101 102
f 84 102 85
f 84 100 103
f 84 103 104
f 84 104 101
f 88 105 91
f 88 91 89
f 91 105 92
f 93 106 94
f 94 106 95
f 95 107 96
f 95 106 108
f 95 108 109
f 95 109 107
f 96 107 97
f 97 107 110
f 97 110 111
f 97 111 98
f 98 111 112
f 98 112 113
f 98 113 99
f 101 104 114
f 101 114 115
f 101 115 116
f 101 116 102
f 102 117 118
f 102 118 119
f 102 116 120
f 102 120 121
f 102 121 122
f 102 122 123
f 102 123 124
f 102 124 117
f 107 109 125
f 107 125 110
f 110 126 112
f 110 112 111
f 110 125 126
f 112 126 125
f 112 125 127
f 112 127 128
f 118 129 130
f 118 130 119
f 119 130 132
f 119 132 131
f 127 133 128
f 128 133 134
f 129 135 136
f 129 136 137
f 129 137 132
f 129 132 130
f 131 132 139
f 131 139 138
f 132 137 140
f 132 140 141
f 132 141 139
f 133 142 143
f 133 143 144
f 133 144 145
f 133 145 146
f 133 146 147
f 133 147 148
f 133 148 149
f 133 149 150
f 133 150 151
f 133 151 134
f 135 152 136
f 136 140 137
f 136 152 153
f 136 153 140
f 138 139 155
f 138 155 154
f 139 141 155
f 140 153 141
f 141 153 156
f 141 156 155
f 142 157 143
f 142 158 159
f 142 159 157
f 143 157 145
f 143 145 144
f 145 157 160
f 152 161 153
f 153 161 162
f 153 162 163
f 153 163 164
f 153 164 156
f 154 155 165
f 155 156 166
f 155 166 165
f 156 164 167
f 156 167 168
f 156 168 166
f 157 159 160
f 158 169 159
f 158 170 171
f 158 171 172
f 158 172 173
f 158 173 174
f 158 174 169
f 161 175 162
f 162 175 176
f 162 176 163
f 163 176 164
f 164 176 177
f 164 177 167
f 165 166 178
f 166 168 179
f 166 179 178
f 167 177 180
f 167 180 168
f 168 180 181
f 168 181 179
f 170 182 183
f 170 183 184
f 170 184 185
f 170 185 186
f 170 186 171
f 171 186 187
f 175 188 176
f 176 188 189
f 176 189 190
f 176 190 191
f 176 191 192
f 176 192 177
f 177 192 180
f 178 179 193
f 179 181 194
f 179 194 193
f 180 195 181
f 180 192 196
f 180 196 197
f 180 197 195
f 181 195 198
f 181 198 194
f 182 199 200
f 182 200 183
f 183 200 201
f 183 201 184
f 184 201 202
f 184 202 185
f 185 202 203
f 185 203 187
f 185 187 186
f 187 203 204
f 189 205 190
f 190 205 227
f 190 227 206
f 190 206 191
f 191 206 207
f 191 207 192
f 192 207 196
f 193 194 209
f 193 209 210
f 193 210 208
f 194 198 209
f 195 197 211
f 195 211 212
f 195 212 198
f 196 207 197
f 197 213 231
f 197 231 211
f 197 207 206
f 197 206 213
f 198 214 215
f 198 215 209
f 198 212 216
f 198 216 214
f 199 217 218
f 199 218 219
f 199 219 220
f 199 220 200
f 200 220 221
f 200 221 201
f 201 221 222
f 201 222 223
f 201 223 202
f 202 223 224
f 202 224 203
f 203 224 222
f 203 222 225
f 203 225 204
f 204 225 226
f 206 227 244
f 206 244 228
f 206 228 213
f 208 210 230
f 208 230 229
f 209 215 230
f 209 230 210
f 211 231 232
f 211 232 233
f 211 233 234
f 211 234 216
f 211 216 212
f 213 228 231
f 214 216 235
f 214 235 215
f 215 235 236
f 215 236 230
f 216 234 235
f 217 237 218
f 218 236 219
f 218 237 238
f 218 238 229
f 218 229 230
f 218 230 236
f 219 234 233
f 219 233 220
f 219 236 239
f 219 239 234
f 220 233 221
f 221 240 222
f 221 233 232
f 221 232 240
f 222 240 241
f 222 241 225
f 222 224 223
f 225 241 242
f 225 242 226
f 226 242 243
f 228 244 247
f 228 247 245
f 228 245 231
f 231 245 242
f 231 242 246
f 231 246 232
f 232 246 240
f 234 239 235
f 235 239 236
f 240 246 242
f 240 242 241
f 242 245 247
f 242 247 243

