# https://github.com/mikedh/trimesh
v -0.32259613 0.00498337 -0.19732392
v -0.32259613 -0.00499779 -0.19674516
v -0.32259613 0.01499938 -0.19443008
v 0.11464530 0.04499513 -0.18385795
v 0.11464530 0.03534493 -0.18659744
v 0.11464530 0.02403991 -0.18960702
v 0.11464530 0.01510389 -0.19157484
v 0.11464530 0.00515757 -0.19273236
v 0.11464530 -0.00499779 -0.19253945
v -0.25492984 -0.05924099 -0.17972940
v -0.32259613 -0.04591534 -0.18331777
v 0.11464530 -0.01750473 -0.19049446
v 0.11464530 -0.02508206 -0.18879676
v 0.11464530 -0.03499354 -0.18632735
v 0.11464530 -0.04499213 -0.18370360
v 0.04496744 -0.05701134 -0.18057826
v 0.02497999 -0.05711585 -0.18061684
v -0.20981900 -0.06000743 -0.17999950
v -0.32259613 0.05582984 -0.18026958
v -0.29499036 0.05898270 -0.17961365
v -0.22497009 0.06016720 -0.17999950
v 0.02497999 0.05962721 -0.17988375
v 0.04496744 0.05954011 -0.17984515
v 0.11464530 0.05670079 -0.18042393
v -0.23498520 -0.06232417 -0.17880337
v -0.24495754 -0.06221966 -0.17868762
v -0.27496010 -0.05873583 -0.17957507
v -0.21602497 -0.06195837 -0.17918922
v -0.31497779 -0.05772552 -0.17903489
v -0.32259613 -0.05577458 -0.17949790
v 0.11464530 -0.05627973 -0.18042393
v 0.01496487 -0.06232417 -0.17884196
v -0.20528224 -0.06399641 -0.17841753
v -0.32259613 0.06499230 -0.17502210
v -0.31497779 0.06499230 -0.17575520
v -0.31497779 0.05852980 -0.17938215
v -0.30496266 0.05877367 -0.17949790
v -0.26494497 0.06499230 -0.17753009
v -0.25492984 0.06499230 -0.17772301
v -0.22497009 0.06516650 -0.17814744
v -0.24495754 0.06243169 -0.17895772
v -0.21499777 0.06276266 -0.17915064
v -0.20498264 0.06276266 -0.17915064
v 0.03499512 0.06499230 -0.17780018
v 0.11464530 0.06514908 -0.17726000
v -0.22497009 -0.06498930 -0.17783876
v -0.25492984 -0.06498930 -0.17729858
v -0.29499036 -0.06498930 -0.17579378
v -0.30496266 -0.06498930 -0.17529219
v -0.31497779 -0.06498930 -0.17444333
v -0.27496010 -0.06498930 -0.17668124
v -0.28497523 -0.06498930 -0.17625681
v -0.32195413 -0.06821184 -0.17104790
v -0.32259613 -0.07117309 -0.16541457
v 0.11464530 -0.06498930 -0.17710567
v 0.05498256 -0.06498930 -0.17756867
v 0.03499512 -0.06498930 -0.17768443
v -0.20498264 -0.07495305 -0.17301570
v -0.19492471 -0.06498930 -0.17795452
v -0.32259613 0.07068836 -0.17070064
v -0.31497779 0.07128061 -0.17131799
v -0.30496266 0.06499230 -0.17625681
v -0.30496266 0.07180318 -0.17174242
v -0.28497523 0.07288317 -0.17228261
v -0.27496010 0.07344058 -0.17251411
v -0.26494497 0.07396316 -0.17270704
v -0.29499036 0.06499230 -0.17668124
v -0.28497523 0.06499230 -0.17698991
v -0.23498520 0.07499089 -0.17324722
v -0.21499777 0.07499089 -0.17359447
v -0.20498264 0.07499089 -0.17367165
v 0.03499512 0.07499089 -0.17297712
v 0.11464530 0.07671538 -0.17085497
v -0.21499777 -0.07484853 -0.17297712
v -0.23498520 -0.07430854 -0.17282279
v -0.24495754 -0.07396016 -0.17270704
v -0.22497009 -0.07458725 -0.17289995
v -0.25492984 -0.07348984 -0.17251411
v -0.27496010 -0.07253179 -0.17205109
v -0.28497523 -0.07206147 -0.17178100
v -0.29499036 -0.07155631 -0.17151091
v -0.30496266 -0.07105116 -0.17104790
v -0.31497779 -0.07040665 -0.17043054
v -0.31497779 -0.07289759 -0.16499014
v -0.31497779 -0.07554530 -0.15495817
v -0.32259613 -0.07389048 -0.15495817
v 0.11464530 -0.07324597 -0.17251411
v 0.03499512 -0.07434338 -0.17282279
v 0.02497999 -0.07441305 -0.17286137
v 0.00499254 -0.07450015 -0.17286137
v -0.22497009 -0.07958654 -0.16950452
v -0.32259613 0.07340574 -0.16499014
v -0.31497779 0.07479928 -0.16499014
v -0.28497523 0.07932825 -0.16417986
v -0.27496010 0.07990308 -0.16533740
v -0.26494497 0.08042566 -0.16618626
v -0.25492984 0.08094823 -0.16691937
v -0.23498520 0.08016437 -0.17008328
v -0.25492984 0.07450315 -0.17286137
v -0.22497009 0.08030372 -0.17023763
v -0.21499777 0.08044308 -0.17035338
v -0.20498264 0.08047792 -0.17043054
v 0.01496487 0.07753408 -0.17158808
v 0.03769149 0.08000760 -0.16996753
v 0.04706462 0.07992050 -0.16992895
v 0.11464530 0.08248112 -0.16398694
v -0.24495754 -0.08044007 -0.16622484
v -0.25492984 -0.07996976 -0.16545315
v -0.27496010 -0.07753108 -0.16587758
v -0.26494497 -0.07946460 -0.16448854
v -0.27782768 -0.08024847 -0.16059151
v -0.30496266 -0.07714786 -0.15495817
v -0.31497779 -0.07627690 -0.14492621
v -0.32259613 -0.07462208 -0.14492621
v 0.11464530 -0.07993492 -0.16560748
v 0.04496744 -0.08080588 -0.16664927
v 0.03499512 -0.08089297 -0.16680361
v 0.04496744 -0.07425628 -0.17274562
v 0.01496487 -0.08101491 -0.16695794
v -0.20498264 -0.08136329 -0.16742095
v -0.21499777 -0.08127619 -0.16730520
v -0.23498520 -0.08078846 -0.16668785
v -0.32259613 0.07589668 -0.15495817
v -0.31497779 0.07753408 -0.15495817
v -0.29190877 0.08026888 -0.16059151
v -0.24495754 0.08633075 -0.15495817
v -0.23498520 0.08333465 -0.16499014
v -0.21499777 0.08403142 -0.16499014
v -0.20498264 0.08415335 -0.16499014
v 0.01496487 0.08340433 -0.16499014
v 0.03499512 0.08323014 -0.16499014
v 0.04423985 0.08249854 -0.16595475
v 0.03499512 0.08727138 -0.15495817
v 0.04496744 0.08711461 -0.15495817
v 0.11464530 0.08572108 -0.15495817
v -0.23498520 -0.08512583 -0.15495817
v -0.24495754 -0.08448131 -0.15495817
v -0.25492984 -0.08354068 -0.15495817
v -0.27496010 -0.08141555 -0.15495817
v -0.28591681 -0.07998718 -0.15530543
v -0.29400596 -0.07894203 -0.15395498
v -0.30496266 -0.07786204 -0.14492621
v -0.31497779 -0.07652077 -0.13493283
v -0.32259613 -0.07486595 -0.13493283
v 0.11464530 -0.08404583 -0.15495817
v 0.04496744 -0.08556130 -0.15495817
v 0.03499512 -0.08571807 -0.15495817
v 0.02497999 -0.08584001 -0.15495817
v 0.01496487 -0.08594453 -0.15495817
v 0.00499254 -0.08597936 -0.15495817
v -0.20498264 -0.08629291 -0.15495817
v -0.21499777 -0.08608387 -0.15495817
v -0.22497009 -0.08561356 -0.15495817
v -0.32259613 0.07643668 -0.14616092
v -0.31497779 0.07814375 -0.14492621
v -0.30269429 0.07965922 -0.15306753
v -0.29683071 0.08019921 -0.15638579
v -0.28497523 0.08209790 -0.15495817
v -0.27496010 0.08331724 -0.15495817
v -0.25492984 0.08540753 -0.15495817
v -0.24495754 0.08694042 -0.14492621
v -0.23498520 0.08695783 -0.15495817
v -0.21499777 0.08784621 -0.15495817
v -0.20498264 0.08803782 -0.15495817
v 0.01496487 0.08748041 -0.15495817
v 0.03499512 0.08828169 -0.14492621
v 0.04496744 0.08812492 -0.14492621
v 0.11464530 0.08669655 -0.14492621
v -0.21499777 -0.08681548 -0.14492621
v -0.23498520 -0.08580517 -0.14492621
v -0.24495754 -0.08517808 -0.14492621
v -0.25492984 -0.08423745 -0.14492621
v -0.26494497 -0.08319230 -0.14492621
v -0.27496010 -0.08212973 -0.14492621
v -0.28758600 -0.08044007 -0.14619949
v -0.29374915 -0.07979557 -0.13493283
v -0.30496266 -0.07810591 -0.13493283
v -0.31497779 -0.07730463 -0.04495385
v -0.32259613 -0.07566723 -0.04495385
v 0.11464530 -0.08502131 -0.14511913
v 0.04496744 -0.08655419 -0.14492621
v 0.03499512 -0.08672839 -0.14492621
v 0.01496487 -0.08695483 -0.14492621
v 0.00499254 -0.08697225 -0.14492621
v -0.20498264 -0.08707677 -0.14492621
v -0.32259613 0.07659345 -0.13616754
v -0.31497779 0.07824826 -0.13493283
v -0.30663186 0.07948502 -0.14492621
v -0.29499036 0.08122694 -0.14492621
v -0.28497523 0.08270756 -0.14492621
v -0.27496010 0.08394432 -0.14492621
v -0.25492984 0.08601720 -0.14492621
v -0.25492984 0.08605204 -0.13493283
v -0.24495754 0.08694042 -0.13493283
v -0.23498520 0.08755009 -0.14492621
v -0.21499777 0.08852556 -0.14492621
v -0.20498264 0.08876943 -0.14492621
v 0.00499254 0.08850814 -0.14492621
v 0.01496487 0.08849072 -0.14492621
v 0.03499512 0.08838620 -0.13493283
v 0.02497999 0.08850814 -0.13493283
v 0.04496744 0.08822943 -0.13493283
v 0.11464530 0.08680106 -0.13477850
v -0.21499777 -0.08895803 0.14499749
v -0.23498520 -0.08798256 0.13496552
v -0.23498520 -0.08592711 -0.13493283
v -0.24495754 -0.08531743 -0.13493283
v -0.25492984 -0.08442906 -0.13493283
v -0.27496010 -0.08235618 -0.13493283
v -0.28497523 -0.08110200 -0.13493283
v -0.30496266 -0.07888977 -0.04495385
v -0.31497779 -0.07814075 0.05497992
v -0.32259613 -0.07650335 0.05497992
v 0.11464530 -0.08523034 -0.13528010
v 0.04496744 -0.08674581 -0.13493283
v 0.03499512 -0.08691999 -0.13493283
v 0.02497999 -0.08704193 -0.13493283
v 0.00499254 -0.08718128 -0.13493283
v 0.01496487 -0.08714645 -0.13493283
v -0.20498264 -0.08918449 0.14499749
v -0.32259613 0.07587926 -0.04495385
v -0.31497779 0.07753408 -0.04495385
v -0.30496266 0.07910180 -0.04495385
v -0.30436349 0.07990308 -0.13493283
v -0.29499036 0.08131403 -0.13493283
v -0.28497523 0.08277724 -0.13493283
v -0.27496010 0.08401400 -0.13493283
v -0.26494497 0.08504173 -0.13493283
v -0.25492984 0.08537269 -0.04495385
v -0.24495754 0.08490238 0.13496552
v -0.23498520 0.08545979 0.14499749
v -0.23498520 0.08755009 -0.13493283
v -0.21499777 0.08847330 -0.13493283
v -0.20498264 0.08869975 -0.13493283
v 0.00499254 0.08707977 0.12497215
v 0.00499254 0.08850814 -0.11494608
v 0.01496487 0.08861265 -0.13493283
v 0.03499512 0.08828169 -0.11494608
v 0.01496487 0.08802040 -0.03496048
v 0.03499512 0.08798556 -0.06494061
v 0.04496744 0.08817717 -0.12493946
v 0.11464530 0.08674881 -0.12459220
v -0.21499777 -0.08829611 0.15499087
v -0.23498520 -0.08742515 0.15499087
v -0.23498520 -0.08803482 0.14499749
v -0.24495754 -0.08739031 0.13496552
v -0.25492984 -0.08651935 0.13496552
v -0.27496010 -0.08380197 0.04498654
v -0.27496010 -0.08308779 -0.04495385
v -0.28497523 -0.08258263 0.04498654
v -0.28497523 -0.08185103 -0.04495385
v -0.29499036 -0.08111942 0.04498654
v -0.29627433 -0.08017879 -0.04495385
v -0.30624667 -0.07942977 0.04498654
v -0.30864346 -0.07979557 0.13496552
v -0.31497779 -0.07878526 0.13496552
v -0.32259613 -0.07714786 0.13496552
v 0.11464530 -0.08530001 -0.12528671
v 0.04496744 -0.08681548 -0.12493946
v 0.03499512 -0.08698967 -0.12493946
v 0.01496487 -0.08721612 -0.12493946
v 0.01496487 -0.08733805 -0.10495270
v 0.01496487 -0.08805224 0.01496783
v 0.01496487 -0.08876643 0.13496552
v 0.00499254 -0.08819159 0.03499316
v 0.00499254 -0.08878385 0.13496552
v 0.01496487 -0.08866191 0.14499749
v -0.20498264 -0.08847030 0.15499087
v -0.32259613 0.07511282 0.04498654
v -0.31497779 0.07676764 0.04498654
v -0.30496266 0.07758634 0.13496552
v -0.30496266 0.07835278 0.04498654
v -0.29460514 0.07993792 0.04498654
v -0.29456234 0.08068694 -0.04495385
v -0.28497523 0.08209790 -0.04495385
v -0.27496010 0.08331724 -0.04495385
v -0.25492984 0.08399658 0.13496552
v -0.24495754 0.08481528 0.14499749
v -0.23498520 0.08478044 0.15499087
v -0.21499777 0.08647010 0.14499749
v -0.20498264 0.08673139 0.14499749
v 0.00499254 0.08701009 0.13496552
v 0.01496487 0.08706235 0.12497215
v 0.01496487 0.08730622 0.08499864
v 0.03499512 0.08727138 0.05497992
v 0.04496744 0.08758492 -0.02492851
v 0.11464530 0.08645268 -0.07493398
v 0.04496744 0.08687074 0.09499201
v -0.21499777 -0.08422003 0.16498424
v -0.23498520 -0.08355810 0.16498424
v -0.24495754 -0.08683290 0.15499087
v -0.24495754 -0.08744257 0.14499749
v -0.25492984 -0.08653677 0.14499749
v -0.27496010 -0.08449873 0.13496552
v -0.28497523 -0.08327939 0.13496552
v -0.29499036 -0.08181619 0.13496552
v -0.29499036 -0.08176393 0.14499749
v -0.30590427 -0.08012653 0.14499749
v -0.31497779 -0.07871558 0.14499749
v -0.32259613 -0.07707818 0.14499749
v 0.11464530 -0.08542195 -0.10533855
v 0.04496744 -0.08693741 -0.10495270
v 0.04496744 -0.08765160 0.01496783
v 0.03499512 -0.08770385 -0.00494176
v 0.02497999 -0.08787805 0.00497445
v 0.02497999 -0.08859223 0.12497215
v 0.03499512 -0.08852255 0.13496552
v 0.02497999 -0.08855739 0.14499749
v 0.01496487 -0.08766901 0.15499087
v -0.20498264 -0.08430713 0.16498424
v -0.32259613 0.07432896 0.13496552
v -0.31497779 0.07598378 0.13496552
v -0.30496266 0.07737731 0.14499749
v -0.29499036 0.07911922 0.13496552
v -0.28711522 0.08030372 0.13496552
v -0.28497523 0.08136629 0.04498654
v -0.27496010 0.08188886 0.13496552
v -0.26494497 0.08295143 0.13496552
v -0.25492984 0.08387465 0.14499749
v -0.24495754 0.08413593 0.15499087
v -0.22497009 0.08232434 0.16405821
v -0.21499777 0.08577333 0.15499087
v -0.26494497 0.08073920 0.16155022
v -0.20498264 0.08599978 0.15499087
v 0.00499254 0.08683590 0.14499749
v 0.01496487 0.08699267 0.13496552
v 0.03499512 0.08685332 0.12497215
v 0.11464530 0.08596494 0.00532171
v 0.04496744 0.08662687 0.13496552
v 0.11464530 0.08547721 0.08534589
v 0.11464530 0.08584301 0.02534705
v -0.21499777 -0.07768785 0.17185228
v -0.24414434 -0.07824527 0.17061757
v -0.25492984 -0.08108458 0.16702922
v -0.26494497 -0.08057943 0.16641186
v -0.27496010 -0.08007427 0.16567875
v -0.25492984 -0.08590969 0.15499087
v -0.27496010 -0.08385423 0.15499087
v -0.27496010 -0.08444647 0.14499749
v -0.28497523 -0.08322714 0.14499749
v -0.30367869 -0.07993492 0.15452784
v -0.31497779 -0.07814075 0.15499087
v -0.32259613 -0.07650335 0.15499087
v 0.11464530 -0.08590969 -0.02492851
v 0.11464530 -0.08681548 0.12462489
v 0.04496744 -0.08836579 0.13496552
v 0.03499512 -0.08799998 0.04498654
v 0.03499512 -0.08829611 0.09499201
v 0.03499512 -0.08847030 0.12497215
v 0.03499512 -0.08843546 0.14499749
v 0.02497999 -0.08756451 0.15499087
v 0.03499512 -0.08327939 0.16482989
v 0.02497999 -0.08334907 0.16490707
v 0.00499254 -0.07995234 0.16996163
v -0.32259613 0.07408509 0.14499749
v -0.31497779 0.07575733 0.14499749
v -0.30496266 0.07668054 0.15499087
v -0.29499036 0.07823085 0.15499087
v -0.29499036 0.07891019 0.14499749
v -0.28643042 0.08019921 0.14499749
v -0.27496010 0.08169726 0.14499749
v -0.26494497 0.08279466 0.14499749
v -0.25492984 0.08316046 0.15499087
v -0.27538809 0.08033856 0.15923515
v -0.24495754 0.08012953 0.16575593
v -0.23498520 0.08046050 0.16621894
v -0.22497009 0.07911922 0.16907419
v -0.21499777 0.08096565 0.16687489
v -0.20498264 0.08105275 0.16699064
v 0.00499254 0.08586043 0.15499087
v -0.25492984 0.07965922 0.16498424
v -0.31510621 0.07197738 0.16571735
v -0.31189620 0.07027030 0.17027031
v 0.01496487 0.08681848 0.14499749
v 0.03499512 0.08678364 0.13496552
v 0.04496744 0.08645268 0.14499749
v 0.11464530 0.08516366 0.13535137
v 0.11464530 0.08523334 0.12531941
v -0.22497009 -0.07498789 0.17320274
v -0.23498520 -0.07754850 0.17154360
v -0.20498264 -0.07770527 0.17185228
v -0.25492984 -0.07453499 0.17270114
v -0.26494497 -0.07402983 0.17254679
v -0.28497523 -0.07296727 0.17219953
v -0.29499036 -0.07240985 0.17196803
v -0.30496266 -0.07188728 0.17169794
v -0.31497779 -0.07139954 0.17135067
v -0.28497523 -0.07949944 0.16463698
v -0.29554674 -0.08045749 0.15942807
v -0.32259613 -0.07084213 0.17084908
v -0.28497523 -0.08263489 0.15499087
v -0.32259613 -0.07385564 0.16498424
v 0.11464530 -0.08686773 0.13477260
v 0.11464530 -0.08678064 0.14499749
v 0.04496744 -0.08826127 0.14499749
v 0.03499512 -0.08744257 0.15499087
v 0.04496744 -0.08726837 0.15499087
v 0.11464530 -0.08584001 0.15479794
v 0.11464530 -0.08073620 0.16645046
v 0.04496744 -0.08146781 0.16726072
v 0.03499512 -0.07983041 0.16984588
v 0.04496744 -0.07474402 0.17266256
v 0.02497999 -0.07488337 0.17270114
v -0.32259613 0.07340574 0.15499087
v -0.31497779 0.07506056 0.15499087
v -0.28381962 0.07995534 0.15445068
v -0.26494497 0.08208048 0.15499087
v -0.32259613 0.07173351 0.16228333
v -0.30496266 0.07070578 0.17069474
v -0.29499036 0.07121094 0.17111917
v -0.28497523 0.07168125 0.17146643
v -0.27496010 0.07213415 0.17173652
v -0.25492984 0.07305736 0.17216095
v -0.24495754 0.07351026 0.17235388
v -0.23498520 0.07384122 0.17246963
v -0.22497009 0.07411993 0.17258538
v -0.21499777 0.07438122 0.17266256
v -0.20498264 0.07448573 0.17270114
v 0.02497999 0.07911922 0.16911277
v 0.01496487 0.08084372 0.16668196
v 0.01496487 0.08584301 0.15499087
v -0.32156894 0.06741356 0.17081049
v -0.31510621 0.06582842 0.17304839
v 0.03499512 0.08660945 0.14499749
v 0.04496744 0.08547721 0.15499087
v 0.11464530 0.08403142 0.15499087
v 0.11464530 0.08498947 0.14499749
v -0.22497009 -0.06498930 0.17775570
v -0.23498520 -0.06498930 0.17763995
v -0.24495754 -0.06498930 0.17752419
v -0.26494497 -0.06498930 0.17713834
v 0.01496487 -0.06498930 0.17729269
v -0.29499036 -0.06498930 0.17640524
v -0.30496266 -0.06498930 0.17605798
v -0.31497779 -0.06498930 0.17559497
v -0.32259613 -0.06498930 0.17497762
v -0.31497779 -0.07521433 0.16498424
v 0.11464530 -0.07404725 0.17227671
v 0.11464530 -0.06498930 0.17675251
v 0.04496744 -0.06498930 0.17717694
v 0.03499512 -0.06498930 0.17721552
v -0.32259613 0.05771110 0.17771712
v -0.30496266 0.06499230 0.17447601
v -0.29499036 0.06499230 0.17505479
v -0.28497523 0.06499230 0.17547922
v -0.27496010 0.06499230 0.17586505
v -0.26494497 0.06499230 0.17621233
v -0.25492984 0.06499230 0.17652100
v -0.24495754 0.06499230 0.17679109
v -0.23498520 0.06499230 0.17698401
v -0.21499777 0.06499230 0.17729269
v -0.20498264 0.06499230 0.17733127
v 0.01496487 0.06499230 0.17709976
v 0.00499254 0.07418960 0.17258538
v 0.02497999 0.07411993 0.17254679
v 0.03499512 0.07405026 0.17250821
v 0.04496744 0.07394574 0.17246963
v 0.11464530 0.07316188 0.17216095
v 0.11464530 0.07983341 0.16540867
v 0.04496744 0.08063469 0.16641186
v 0.03499512 0.08072178 0.16652761
v 0.03499512 0.08563398 0.15499087
v -0.21499777 -0.06218482 0.17879748
v -0.23498520 -0.05915389 0.17972350
v -0.24495754 -0.05901454 0.17968492
v -0.29499036 -0.05828293 0.17941484
v -0.20498264 -0.06218482 0.17883606
v -0.30496266 -0.05817842 0.17933767
v -0.31497779 -0.05798681 0.17922191
v 0.04496744 -0.05843971 0.17953059
v 0.02497999 -0.05854422 0.17956917
v -0.32259613 -0.05530426 0.18007077
v 0.11464530 -0.05561781 0.18007077
v -0.32259613 0.04940217 0.18145981
v -0.31497779 0.05673563 0.17860456
v -0.25492984 0.05798981 0.17933767
v -0.24495754 0.05819884 0.17941484
v -0.23498520 0.05835561 0.17949200
v -0.21499777 0.05866916 0.17960775
v -0.20498264 0.05870399 0.17960775
v 0.01496487 0.05844271 0.17953059
v 0.04496744 0.05830335 0.17949200
v 0.03499512 0.06499230 0.17702259
v 0.04496744 0.06499230 0.17698401
v 0.11464530 0.06485295 0.17652100
v -0.32259613 -0.01499638 0.19446278
v 0.11464530 -0.04513148 0.18315752
v -0.32259613 0.03740039 0.18593560
v -0.32259613 0.02374379 0.19091301
v -0.32259613 0.01594001 0.19365250
v 0.11464530 0.04462933 0.18323469
v 0.11464530 0.05530726 0.18007077
v -0.32259613 -0.00499779 0.19685501
v 0.11464530 -0.03534193 0.18581985
v 0.11464530 -0.02499496 0.18844360
v -0.32259613 0.00618530 0.19623765
v 0.11464530 0.03499655 0.18585844
v 0.11464530 -0.01656410 0.19017990
v 0.11464530 -0.00499779 0.19153036
v 0.11464530 0.00498337 0.19149177
v 0.11464530 0.01599227 0.19014132
v 0.11464530 0.02475410 0.18840501
f 1 2 11
f 1 11 30
f 1 30 54
f 1 54 86
f 1 86 114
f 1 114 144
f 1 144 179
f 1 179 213
f 1 213 257
f 1 257 300
f 1 300 343
f 1 343 392
f 1 392 390
f 1 390 436
f 1 436 472
f 1 472 486
f 1 486 493
f 1 493 496
f 1 496 490
f 1 490 489
f 1 489 488
f 1 488 474
f 1 474 442
f 1 442 408
f 1 408 404
f 1 404 355
f 1 355 311
f 1 311 269
f 1 269 221
f 1 221 186
f 1 186 154
f 1 154 123
f 1 123 92
f 1 92 60
f 1 60 34
f 1 34 19
f 1 19 3
f 1 3 4
f 1 4 5
f 1 5 6
f 1 6 7
f 1 7 8
f 1 8 9
f 1 9 2
f 2 10 11
f 2 9 12
f 2 12 13
f 2 13 14
f 2 14 15
f 2 15 16
f 2 16 17
f 2 17 18
f 2 18 10
f 3 19 20
f 3 20 21
f 3 21 22
f 3 22 23
f 3 23 24
f 3 24 4
f 4 24 45
f 4 45 73
f 4 73 106
f 4 106 135
f 4 135 168
f 4 168 203
f 4 203 242
f 4 242 287
f 4 287 328
f 4 328 331
f 4 331 330
f 4 330 378
f 4 378 377
f 4 377 427
f 4 427 426
f 4 426 459
f 4 459 458
f 4 458 485
f 4 485 492
f 4 492 491
f 4 491 497
f 4 497 502
f 4 502 501
f 4 501 500
f 4 500 499
f 4 499 498
f 4 498 495
f 4 495 494
f 4 494 487
f 4 487 473
f 4 473 439
f 4 439 438
f 4 438 399
f 4 399 398
f 4 398 394
f 4 394 393
f 4 393 345
f 4 345 344
f 4 344 301
f 4 301 258
f 4 258 214
f 4 214 180
f 4 180 145
f 4 145 115
f 4 115 87
f 4 87 55
f 4 55 31
f 4 31 15
f 4 15 14
f 4 14 13
f 4 13 12
f 4 12 9
f 4 9 8
f 4 8 7
f 4 7 6
f 4 6 5
f 10 25 26
f 10 26 27
f 10 27 11
f 10 18 28
f 10 28 25
f 11 29 30
f 11 27 29
f 15 31 16
f 16 31 32
f 16 32 17
f 17 32 18
f 18 32 33
f 18 33 28
f 19 34 35
f 19 35 36
f 19 36 37
f 19 37 20
f 20 37 38
f 20 38 39
f 20 39 40
f 20 40 41
f 20 41 21
f 21 42 43
f 21 43 22
f 21 41 42
f 22 43 44
f 22 44 23
f 23 44 45
f 23 45 24
f 25 28 46
f 25 46 26
f 26 47 27
f 26 46 47
f 27 47 29
f 28 33 46
f 29 48 49
f 29 49 50
f 29 50 30
f 29 47 51
f 29 51 52
f 29 52 48
f 30 50 53
f 30 53 54
f 31 55 56
f 31 56 32
f 32 56 57
f 32 57 33
f 33 58 46
f 33 57 59
f 33 59 58
f 34 60 61
f 34 61 35
f 35 62 36
f 35 61 63
f 35 63 64
f 35 64 65
f 35 65 66
f 35 66 62
f 36 62 67
f 36 67 68
f 36 68 38
f 36 38 37
f 38 68 69
f 38 69 39
f 39 69 70
f 39 70 40
f 40 70 71
f 40 71 44
f 40 44 43
f 40 43 42
f 40 42 41
f 44 72 45
f 44 71 72
f 45 72 73
f 46 58 74
f 46 74 47
f 47 75 76
f 47 76 51
f 47 74 77
f 47 77 75
f 48 52 76
f 48 76 78
f 48 78 49
f 49 78 79
f 49 79 80
f 49 80 81
f 49 81 82
f 49 82 50
f 50 82 83
f 50 83 53
f 51 76 52
f 53 83 54
f 54 83 84
f 54 84 85
f 54 85 86
f 55 87 88
f 55 88 56
f 56 88 89
f 56 89 57
f 57 89 90
f 57 90 58
f 57 58 59
f 58 91 74
f 58 90 91
f 60 92 93
f 60 93 94
f 60 94 95
f 60 95 61
f 61 95 96
f 61 96 97
f 61 97 98
f 61 98 63
f 62 66 99
f 62 99 67
f 63 98 64
f 64 98 65
f 65 98 66
f 66 98 99
f 67 99 69
f 67 69 68
f 69 99 98
f 69 98 100
f 69 100 101
f 69 101 70
f 70 101 102
f 70 102 71
f 71 102 103
f 71 103 72
f 72 104 105
f 72 105 73
f 72 103 104
f 73 105 106
f 74 91 77
f 75 77 91
f 75 91 76
f 76 91 78
f 78 91 79
f 79 91 80
f 80 91 81
f 81 91 82
f 82 91 107
f 82 107 108
f 82 108 83
f 83 108 109
f 83 109 110
f 83 110 111
f 83 111 84
f 84 111 85
f 85 111 112
f 85 112 113
f 85 113 114
f 85 114 86
f 87 115 116
f 87 116 117
f 87 117 118
f 87 118 88
f 88 118 117
f 88 117 119
f 88 119 89
f 89 119 91
f 89 91 90
f 91 119 120
f 91 120 121
f 91 121 122
f 91 122 107
f 92 123 124
f 92 124 125
f 92 125 93
f 93 125 94
f 94 125 95
f 95 125 96
f 96 125 126
f 96 126 127
f 96 127 97
f 97 127 98
f 98 127 128
f 98 128 100
f 100 128 101
f 101 128 129
f 101 129 102
f 102 129 104
f 102 104 103
f 104 129 130
f 104 130 131
f 104 131 105
f 105 131 132
f 105 132 106
f 106 132 131
f 106 131 133
f 106 133 134
f 106 134 135
f 107 122 136
f 107 136 137
f 107 137 111
f 107 111 108
f 108 111 110
f 108 110 109
f 111 137 138
f 111 138 139
f 111 139 140
f 111 140 112
f 112 141 142
f 112 142 113
f 112 140 141
f 113 142 177
f 113 177 143
f 113 143 144
f 113 144 114
f 115 145 146
f 115 146 116
f 116 146 147
f 116 147 117
f 117 147 148
f 117 148 149
f 117 149 119
f 119 149 150
f 119 150 120
f 120 151 121
f 120 150 151
f 121 151 152
f 121 152 122
f 122 152 153
f 122 153 136
f 123 154 124
f 124 154 155
f 124 155 156
f 124 156 157
f 124 157 125
f 125 157 158
f 125 158 159
f 125 159 160
f 125 160 126
f 126 160 192
f 126 192 161
f 126 161 162
f 126 162 127
f 127 162 163
f 127 163 128
f 128 163 164
f 128 164 129
f 129 164 165
f 129 165 130
f 130 165 131
f 131 165 133
f 133 166 167
f 133 167 134
f 133 165 199
f 133 199 166
f 134 167 135
f 135 167 168
f 136 153 169
f 136 169 170
f 136 170 171
f 136 171 137
f 137 171 172
f 137 172 138
f 138 172 173
f 138 173 174
f 138 174 139
f 139 174 175
f 139 175 140
f 140 175 141
f 141 175 142
f 142 175 176
f 142 176 177
f 143 177 211
f 143 211 178
f 143 178 179
f 143 179 144
f 145 180 146
f 146 180 181
f 146 181 182
f 146 182 147
f 147 182 148
f 148 183 149
f 148 182 183
f 149 183 150
f 150 183 184
f 150 184 151
f 151 184 185
f 151 185 152
f 152 185 169
f 152 169 153
f 154 186 155
f 155 187 188
f 155 188 156
f 155 186 187
f 156 188 189
f 156 189 190
f 156 190 158
f 156 158 157
f 158 190 191
f 158 191 159
f 159 191 160
f 160 191 192
f 161 192 193
f 161 193 194
f 161 194 232
f 161 232 195
f 161 195 162
f 162 195 196
f 162 196 163
f 163 196 197
f 163 197 164
f 164 197 198
f 164 198 199
f 164 199 165
f 166 200 202
f 166 202 167
f 166 199 237
f 166 237 201
f 166 201 200
f 167 202 168
f 168 202 203
f 169 185 204
f 169 204 205
f 169 205 206
f 169 206 170
f 170 206 207
f 170 207 171
f 171 207 208
f 171 208 172
f 172 208 209
f 172 209 173
f 173 209 174
f 174 209 210
f 174 210 175
f 175 210 176
f 176 211 177
f 176 210 211
f 178 211 212
f 178 212 213
f 178 213 179
f 180 214 181
f 181 214 215
f 181 215 216
f 181 216 182
f 182 216 217
f 182 217 183
f 183 218 184
f 183 217 219
f 183 219 218
f 184 218 185
f 185 218 220
f 185 220 204
f 186 221 187
f 187 222 223
f 187 223 224
f 187 224 188
f 187 221 222
f 188 224 225
f 188 225 189
f 189 225 190
f 190 226 227
f 190 227 191
f 190 225 226
f 191 227 192
f 192 227 228
f 192 228 193
f 193 229 194
f 193 228 229
f 194 229 230
f 194 230 231
f 194 231 232
f 195 232 196
f 196 233 197
f 196 232 233
f 197 234 282
f 197 282 235
f 197 235 236
f 197 236 237
f 197 237 198
f 197 233 234
f 198 237 199
f 200 238 241
f 200 241 202
f 200 201 238
f 201 237 239
f 201 239 240
f 201 240 238
f 202 241 242
f 202 242 203
f 204 220 243
f 204 243 244
f 204 244 245
f 204 245 205
f 205 245 292
f 205 292 246
f 205 246 206
f 206 246 207
f 207 246 247
f 207 247 208
f 208 247 248
f 208 248 249
f 208 249 209
f 209 249 250
f 209 250 251
f 209 251 210
f 210 251 252
f 210 252 253
f 210 253 211
f 211 254 255
f 211 255 212
f 211 253 252
f 211 252 254
f 212 255 256
f 212 256 257
f 212 257 213
f 214 258 259
f 214 259 215
f 215 259 260
f 215 260 216
f 216 260 217
f 217 261 219
f 217 260 262
f 217 262 261
f 218 219 261
f 218 261 262
f 218 262 263
f 218 263 264
f 218 264 265
f 218 265 220
f 220 265 266
f 220 266 264
f 220 264 267
f 220 267 268
f 220 268 243
f 221 269 270
f 221 270 222
f 222 270 271
f 222 271 272
f 222 272 223
f 223 272 273
f 223 273 274
f 223 274 224
f 224 274 225
f 225 274 275
f 225 275 226
f 226 275 227
f 227 276 277
f 227 277 228
f 227 275 276
f 228 277 229
f 229 277 230
f 230 277 278
f 230 278 231
f 231 278 320
f 231 320 279
f 231 279 280
f 231 280 232
f 232 280 233
f 233 280 281
f 233 281 234
f 234 281 282
f 235 282 326
f 235 326 283
f 235 283 284
f 235 284 239
f 235 239 236
f 236 239 237
f 238 240 286
f 238 286 241
f 239 284 240
f 240 285 288
f 240 288 286
f 240 284 285
f 241 286 242
f 242 286 288
f 242 288 287
f 243 268 289
f 243 289 290
f 243 290 244
f 244 290 291
f 244 291 292
f 244 292 245
f 246 292 247
f 247 292 293
f 247 293 294
f 247 294 248
f 248 294 295
f 248 295 250
f 248 250 249
f 250 295 296
f 250 296 252
f 250 252 251
f 252 296 255
f 252 255 254
f 255 296 297
f 255 297 298
f 255 298 299
f 255 299 256
f 256 299 300
f 256 300 257
f 258 301 259
f 259 301 302
f 259 302 260
f 260 302 303
f 260 303 346
f 260 346 304
f 260 304 306
f 260 306 305
f 260 305 263
f 260 263 262
f 263 305 306
f 263 306 264
f 264 306 349
f 264 349 307
f 264 307 350
f 264 350 308
f 264 308 267
f 264 266 265
f 267 308 351
f 267 351 309
f 267 309 268
f 268 309 310
f 268 310 289
f 269 311 312
f 269 312 270
f 270 312 271
f 271 313 359
f 271 359 314
f 271 314 272
f 271 312 313
f 272 314 273
f 273 314 315
f 273 315 316
f 273 316 274
f 274 316 275
f 275 316 317
f 275 317 276
f 276 317 318
f 276 318 277
f 277 319 278
f 277 318 319
f 278 319 320
f 279 321 322
f 279 322 280
f 279 320 323
f 279 323 321
f 280 322 281
f 281 322 324
f 281 324 325
f 281 325 282
f 282 325 374
f 282 374 326
f 283 326 375
f 283 375 327
f 283 327 284
f 284 327 285
f 285 327 288
f 287 288 328
f 288 329 378
f 288 378 330
f 288 330 331
f 288 331 328
f 288 327 329
f 289 310 332
f 289 332 333
f 289 333 334
f 289 334 290
f 290 334 335
f 290 335 291
f 291 335 336
f 291 336 337
f 291 337 293
f 291 293 292
f 293 337 338
f 293 338 339
f 293 339 294
f 294 339 340
f 294 340 295
f 295 340 297
f 295 297 296
f 297 341 298
f 297 340 341
f 298 341 299
f 299 341 342
f 299 342 343
f 299 343 300
f 301 344 302
f 302 344 345
f 302 345 303
f 303 345 346
f 304 346 347
f 304 347 306
f 306 347 348
f 306 348 349
f 307 349 346
f 307 346 350
f 308 350 396
f 308 396 351
f 309 351 352
f 309 352 353
f 309 353 310
f 310 353 354
f 310 354 332
f 311 355 356
f 311 356 312
f 312 356 313
f 313 357 358
f 313 358 359
f 313 356 405
f 313 405 357
f 314 359 360
f 314 360 315
f 315 360 361
f 315 361 317
f 315 317 316
f 317 361 362
f 317 362 319
f 317 319 318
f 319 363 320
f 319 362 407
f 319 407 363
f 320 363 364
f 320 364 323
f 321 323 365
f 321 365 366
f 321 366 367
f 321 367 368
f 321 368 369
f 321 369 370
f 321 370 324
f 321 324 322
f 323 371 365
f 323 364 372
f 323 372 373
f 323 373 371
f 324 370 325
f 325 370 421
f 325 421 374
f 326 374 424
f 326 424 375
f 327 375 329
f 329 376 377
f 329 377 378
f 329 375 424
f 329 424 376
f 332 379 380
f 332 380 333
f 332 354 381
f 332 381 379
f 333 382 383
f 333 383 384
f 333 384 385
f 333 385 386
f 333 386 387
f 333 387 334
f 333 380 382
f 334 387 335
f 335 387 336
f 336 388 389
f 336 389 337
f 336 387 390
f 336 390 388
f 337 389 338
f 338 391 340
f 338 340 339
f 338 389 391
f 340 391 341
f 341 391 389
f 341 389 342
f 342 389 392
f 342 392 343
f 345 393 346
f 346 393 394
f 346 394 395
f 346 395 350
f 346 349 348
f 346 348 347
f 350 395 397
f 350 397 396
f 351 396 352
f 352 396 397
f 352 397 398
f 352 398 399
f 352 399 400
f 352 400 401
f 352 401 353
f 353 401 354
f 354 401 402
f 354 402 403
f 354 403 381
f 355 404 356
f 356 404 405
f 357 405 364
f 357 364 358
f 358 364 406
f 358 406 359
f 359 406 360
f 360 406 361
f 361 407 362
f 361 406 407
f 363 407 364
f 364 407 406
f 364 405 408
f 364 408 372
f 365 371 409
f 365 409 367
f 365 367 366
f 367 409 410
f 367 410 411
f 367 411 412
f 367 412 413
f 367 413 414
f 367 414 415
f 367 415 416
f 367 416 417
f 367 417 418
f 367 418 419
f 367 419 369
f 367 369 368
f 369 419 420
f 369 420 370
f 370 420 421
f 371 373 409
f 372 408 422
f 372 422 373
f 373 422 423
f 373 423 409
f 374 421 462
f 374 462 424
f 376 425 426
f 376 426 427
f 376 427 377
f 376 424 462
f 376 462 425
f 379 428 429
f 379 429 430
f 379 430 431
f 379 431 382
f 379 382 380
f 379 381 403
f 379 403 432
f 379 432 428
f 382 431 433
f 382 433 434
f 382 434 383
f 383 434 435
f 383 435 384
f 384 435 385
f 385 435 386
f 386 435 387
f 387 435 436
f 387 436 390
f 388 390 437
f 388 437 389
f 389 437 392
f 390 392 437
f 394 398 395
f 395 398 397
f 399 438 401
f 399 401 400
f 401 438 402
f 402 438 439
f 402 439 440
f 402 440 403
f 403 440 441
f 403 441 432
f 404 408 405
f 408 442 422
f 409 423 443
f 409 443 410
f 410 443 411
f 411 443 444
f 411 444 412
f 412 444 413
f 413 444 414
f 414 444 445
f 414 445 446
f 414 446 447
f 414 447 448
f 414 448 415
f 415 448 449
f 415 449 416
f 416 449 417
f 417 449 450
f 417 450 451
f 417 451 418
f 418 452 453
f 418 453 454
f 418 454 419
f 418 451 452
f 419 454 455
f 419 455 456
f 419 456 457
f 419 457 458
f 419 458 459
f 419 459 460
f 419 460 461
f 419 461 420
f 420 461 421
f 421 461 462
f 422 442 423
f 423 442 443
f 425 460 459
f 425 459 426
f 425 462 460
f 428 463 464
f 428 464 465
f 428 465 466
f 428 466 429
f 428 432 467
f 428 467 463
f 429 466 468
f 429 468 430
f 430 468 431
f 431 468 469
f 431 469 433
f 432 441 470
f 432 470 471
f 432 471 467
f 433 469 434
f 434 469 435
f 435 469 472
f 435 472 436
f 439 473 470
f 439 470 440
f 440 470 441
f 442 474 475
f 442 475 444
f 442 444 443
f 444 475 445
f 445 475 446
f 446 475 447
f 447 475 448
f 448 475 449
f 449 475 474
f 449 474 450
f 450 474 476
f 450 476 477
f 450 477 451
f 451 477 478
f 451 478 479
f 451 479 452
f 452 479 480
f 452 480 481
f 452 481 453
f 453 481 482
f 453 482 483
f 453 483 455
f 453 455 454
f 455 483 484
f 455 484 456
f 456 484 485
f 456 485 457
f 457 485 458
f 460 462 461
f 463 467 486
f 463 486 464
f 464 486 465
f 465 486 466
f 466 486 468
f 467 471 486
f 468 486 472
f 468 472 469
f 470 473 486
f 470 486 471
f 473 487 486
f 474 488 476
f 476 488 477
f 477 488 489
f 477 489 478
f 478 489 479
f 479 489 490
f 479 490 480
f 480 490 481
f 481 490 482
f 482 491 492
f 482 492 485
f 482 485 484
f 482 484 483
f 482 490 491
f 486 487 494
f 486 494 495
f 486 495 493
f 490 496 497
f 490 497 491
f 493 495 498
f 493 498 499
f 493 499 500
f 493 500 496
f 496 500 501
f 496 501 502
f 496 502 497

