# https://github.com/mikedh/trimesh
v 0.50245380 0.00301758 -0.16499488
v 0.50245380 -0.00235110 -0.16499488
v 0.50231069 0.00293988 -0.17497604
v 0.49499983 0.00709496 -0.17497604
v 0.49499983 0.00715046 -0.16499488
v 0.50236273 0.00237008 0.16498828
v 0.49499983 -0.00557379 -0.16499488
v 0.49499983 -0.00540359 -0.17497604
v 0.50231069 -0.00223271 -0.17497604
v 0.50236273 -0.00284320 0.16498828
v 0.49499983 -0.00689099 0.16498828
v 0.50193346 0.00265498 -0.18495719
v 0.49499983 0.00640676 -0.19498156
v 0.49499983 0.00688036 -0.18495719
v 0.48499617 0.00927795 -0.19498156
v 0.43601197 0.01907922 -0.15635318
v 0.49499983 0.00578146 0.16498828
v 0.49499983 0.00452347 0.20499933
v 0.50130904 0.00135628 0.20499933
v 0.43601197 -0.01748035 -0.04496172
v 0.43601197 -0.01676625 -0.15397671
v 0.43601197 -0.01675885 -0.15497051
v 0.43601197 -0.01649615 -0.17398223
v 0.43601197 -0.01871984 0.15552561
v 0.43601197 -0.01867544 0.14498274
v 0.43601197 -0.01813155 0.05497949
v 0.48499617 -0.00692429 -0.19498156
v 0.49499983 -0.00510389 -0.18495719
v 0.49499983 -0.00466730 -0.19498156
v 0.50193346 -0.00192931 -0.18495719
v 0.50130904 -0.00179981 0.20499933
v 0.49499983 -0.00578469 0.20499933
v 0.49499983 -0.00664309 0.17496943
v 0.48499617 -0.00899998 0.19497496
v 0.50097084 0.00145988 -0.20496272
v 0.49499983 0.00538927 -0.20496272
v 0.48499617 0.00865265 -0.20496272
v 0.43601197 0.01895712 -0.18495719
v 0.43601197 0.01902742 -0.17497604
v 0.43601197 0.01869442 -0.19498156
v 0.43601197 0.01773982 0.05497949
v 0.43601197 0.01709602 0.15496391
v 0.48499617 0.00726516 0.19497496
v 0.48499617 0.00683966 0.20499933
v 0.49499983 0.00219988 0.21247439
v 0.50099033 0.00097888 0.21087568
v 0.43601197 -0.01647765 -0.17497604
v 0.43601197 -0.01869765 0.17496943
v 0.43601197 -0.01626675 -0.18495719
v 0.43601197 -0.01587456 -0.19498156
v 0.48499617 -0.00631009 -0.20496272
v 0.49499983 -0.00385330 -0.20496272
v 0.50097084 -0.00098211 -0.20496272
v 0.50099033 -0.00128551 0.21087568
v 0.49499983 -0.00282840 0.21247439
v 0.48499617 -0.00861888 0.20499933
v 0.43601197 -0.01843495 0.19497496
v 0.43601197 -0.01864585 0.18499380
v 0.50057405 0.00079388 -0.21045019
v 0.49499983 0.00234788 -0.21174645
v 0.47135004 0.01016225 -0.21036378
v 0.43601197 0.01867592 -0.19511119
v 0.43601197 0.01680372 0.17397563
v 0.43601197 0.01661503 0.18499380
v 0.43601197 0.01625983 0.19497496
v 0.45224679 0.01031025 0.21040039
v 0.48447582 0.00275118 0.21545577
v 0.48079434 0.00029809 0.22020870
v 0.43601197 -0.01317357 -0.20496272
v 0.45138171 -0.01018768 -0.21023415
v 0.48499617 -0.00285800 -0.21386366
v 0.49499983 -0.00166291 -0.21174645
v 0.50057405 -0.00054551 -0.21045019
v 0.48079434 -0.00041231 0.22020870
v 0.47099882 -0.01011738 0.21027076
v 0.48447582 -0.00352400 0.21545577
v 0.43601197 -0.01837205 0.19549346
v 0.47298914 0.00070508 -0.22034493
v 0.48499617 0.00399067 -0.21386366
v 0.43601197 0.01631533 -0.20422818
v 0.47550634 0.00517837 -0.21511671
v 0.46500182 0.00629206 -0.21615371
v 0.46500182 0.01060995 -0.21114153
v 0.43601197 0.01362914 0.20499933
v 0.44500095 0.01065065 0.21078926
v 0.47499898 0.00069768 0.22046795
v 0.47499898 0.00445687 0.21498048
v 0.43601197 -0.01033938 -0.21036378
v 0.44500095 -0.01045408 -0.21053661
v 0.47298914 -0.00046411 -0.22034493
v 0.47579253 -0.00306890 -0.21593767
v 0.47499898 -0.00095621 0.22046795
v 0.46500182 -0.00642479 0.21597427
v 0.47460222 -0.00655059 0.21415952
v 0.46500182 -0.01051327 0.21096209
v 0.43601197 -0.01642215 0.20417836
v 0.46500182 0.00129338 -0.22064739
v 0.45500463 0.01129445 -0.21196249
v 0.43601197 0.01578253 -0.20543800
v 0.45500463 0.00628096 -0.21697468
v 0.43601197 0.01058775 0.21061642
v 0.45500463 0.00101218 0.22072721
v 0.46500182 0.00103808 0.22077042
v 0.43601197 -0.00491890 -0.21481425
v 0.44737503 -0.00044561 -0.22030173
v 0.45500463 -0.00084151 -0.22060418
v 0.46500182 -0.00085261 -0.22064739
v 0.46500182 -0.00142611 0.22077042
v 0.45500463 -0.00640259 0.21683845
v 0.45500463 -0.01121627 0.21182626
v 0.43601197 -0.01588936 0.20547462
v 0.45500463 0.00128228 -0.22060418
v 0.44500095 0.01166074 -0.21204890
v 0.43601197 0.01145354 -0.21148720
v 0.44442207 0.00441247 -0.21753639
v 0.43601197 0.01067655 -0.21209212
v 0.43601197 0.00364657 0.21662240
v 0.43930316 0.00017229 0.22007908
v 0.44500095 0.00057558 0.22038154
v 0.45500463 -0.00140391 0.22072721
v 0.43601197 0.00493417 -0.21589446
v 0.44737503 0.00069028 -0.22030173
v 0.44500095 -0.00581059 0.21709770
v 0.44500095 -0.01171577 0.21208552
v 0.43601197 -0.01170837 0.21173985
v 0.43601197 -0.00369420 0.21740016
v 0.43930316 -0.00024581 0.22007908
v 0.44500095 -0.00080821 0.22038154
v 0.43601197 -0.00422330 0.21705449
v 0.43601197 -0.01111267 0.21225835
f 1 2 9
f 1 9 3
f 1 3 4
f 1 4 5
f 1 5 6
f 1 6 10
f 1 10 2
f 2 7 8
f 2 8 9
f 2 10 11
f 2 11 7
f 3 9 30
f 3 30 12
f 3 12 13
f 3 13 14
f 3 14 4
f 4 14 15
f 4 15 5
f 5 15 16
f 5 16 17
f 5 17 6
f 6 17 18
f 6 18 19
f 6 19 31
f 6 31 10
f 7 20 21
f 7 21 22
f 7 22 23
f 7 23 8
f 7 11 24
f 7 24 25
f 7 25 26
f 7 26 20
f 8 27 28
f 8 28 9
f 8 23 27
f 9 28 29
f 9 29 30
f 10 31 32
f 10 32 33
f 10 33 11
f 11 33 34
f 11 34 24
f 12 30 53
f 12 53 35
f 12 35 13
f 13 15 14
f 13 35 36
f 13 36 37
f 13 37 15
f 15 38 39
f 15 39 16
f 15 37 40
f 15 40 38
f 16 41 17
f 16 39 38
f 16 38 40
f 16 40 62
f 16 62 80
f 16 80 99
f 16 99 114
f 16 114 116
f 16 116 121
f 16 121 104
f 16 104 88
f 16 88 69
f 16 69 50
f 16 50 49
f 16 49 47
f 16 47 23
f 16 23 22
f 16 22 21
f 16 21 20
f 16 20 26
f 16 26 25
f 16 25 24
f 16 24 48
f 16 48 58
f 16 58 57
f 16 57 77
f 16 77 96
f 16 96 111
f 16 111 125
f 16 125 130
f 16 130 129
f 16 129 126
f 16 126 117
f 16 117 101
f 16 101 84
f 16 84 65
f 16 65 64
f 16 64 63
f 16 63 42
f 16 42 41
f 17 41 42
f 17 42 43
f 17 43 18
f 18 43 44
f 18 44 45
f 18 45 46
f 18 46 19
f 19 46 54
f 19 54 31
f 23 47 27
f 24 34 48
f 27 29 28
f 27 47 49
f 27 49 50
f 27 50 51
f 27 51 29
f 29 51 52
f 29 52 53
f 29 53 30
f 31 54 32
f 32 54 55
f 32 55 56
f 32 56 34
f 32 34 33
f 34 56 57
f 34 57 58
f 34 58 48
f 35 53 73
f 35 73 59
f 35 59 36
f 36 59 60
f 36 60 37
f 37 61 62
f 37 62 40
f 37 60 61
f 42 63 43
f 43 64 65
f 43 65 44
f 43 63 64
f 44 66 45
f 44 65 66
f 45 67 68
f 45 68 46
f 45 66 67
f 46 68 74
f 46 74 54
f 50 69 70
f 50 70 51
f 51 70 71
f 51 71 72
f 51 72 52
f 52 72 73
f 52 73 53
f 54 74 55
f 55 75 56
f 55 74 76
f 55 76 75
f 56 75 77
f 56 77 57
f 59 73 90
f 59 90 78
f 59 78 60
f 60 78 79
f 60 79 61
f 61 80 62
f 61 79 81
f 61 81 82
f 61 82 83
f 61 83 80
f 65 84 66
f 66 84 85
f 66 85 86
f 66 86 68
f 66 68 87
f 66 87 67
f 67 87 68
f 68 86 92
f 68 92 74
f 69 88 89
f 69 89 70
f 70 89 90
f 70 90 91
f 70 91 71
f 71 91 90
f 71 90 72
f 72 90 73
f 74 92 93
f 74 93 94
f 74 94 76
f 75 76 94
f 75 94 95
f 75 95 96
f 75 96 77
f 78 90 107
f 78 107 97
f 78 97 82
f 78 82 81
f 78 81 79
f 80 83 98
f 80 98 99
f 82 97 100
f 82 100 98
f 82 98 83
f 84 101 85
f 85 101 102
f 85 102 103
f 85 103 86
f 86 103 108
f 86 108 92
f 88 104 105
f 88 105 106
f 88 106 89
f 89 106 107
f 89 107 90
f 92 108 109
f 92 109 93
f 93 109 110
f 93 110 95
f 93 95 94
f 95 110 111
f 95 111 96
f 97 107 106
f 97 106 112
f 97 112 100
f 98 113 99
f 98 100 113
f 99 113 114
f 100 112 115
f 100 115 116
f 100 116 113
f 101 117 118
f 101 118 119
f 101 119 102
f 102 119 128
f 102 128 120
f 102 120 108
f 102 108 103
f 104 121 105
f 105 121 122
f 105 122 112
f 105 112 106
f 108 120 109
f 109 120 123
f 109 123 124
f 109 124 110
f 110 124 111
f 111 124 125
f 112 122 115
f 113 116 114
f 115 121 116
f 115 122 121
f 117 126 118
f 118 126 127
f 118 127 128
f 118 128 119
f 120 128 123
f 123 128 127
f 123 127 129
f 123 129 130
f 123 130 124
f 124 130 125
f 126 129 127

