v -0.235714 0.074538 0.082934
v -0.226195 0.041205 0.071701
v -0.235714 0.074538 0.001982
v -0.250000 0.069776 -0.002780
v -0.250000 0.050729 0.082934
v -0.240476 0.050729 -0.002780
v -0.250000 0.074538 0.082934
v -0.226190 0.069776 0.054363
v -0.235714 0.050729 0.082934
v -0.235714 0.055491 -0.002780
v -0.250000 0.050729 -0.002780
v -0.250000 0.074538 0.001982
v -0.226188 0.066921 0.071620
v -0.235714 0.050729 0.001982
v -0.226200 0.041207 0.067013
v -0.235714 0.069776 -0.002780
v -0.233455 0.041205 0.071441
v -0.226190 0.056954 0.057573
v -0.232997 0.041201 0.066975
f 7 1 3
f 7 5 1
f 7 4 5
f 8 3 1
f 9 5 2
f 9 2 1
f 9 1 5
f 10 6 4
f 11 5 4
f 11 4 6
f 12 7 3
f 12 3 4
f 12 4 7
f 13 8 1
f 13 1 2
f 14 6 10
f 15 14 10
f 15 6 14
f 16 3 8
f 16 8 10
f 16 10 4
f 16 4 3
f 17 2 5
f 17 5 11
f 18 15 10
f 18 10 8
f 18 2 15
f 18 13 2
f 18 8 13
f 19 11 6
f 19 6 15
f 19 17 11
f 19 15 2
f 19 2 17
