v -0.221781 0.041207 0.185056
v -0.221719 -0.011174 0.185013
v -0.233586 0.032330 0.158444
v -0.239891 0.041203 0.159126
v -0.233310 -0.011181 0.184863
v -0.233498 0.041199 0.159130
v -0.221800 0.041205 0.180390
v -0.233431 0.041199 0.184672
v -0.221805 -0.011176 0.180383
v -0.239721 0.032171 0.158610
v -0.239721 0.041921 0.167897
v -0.233192 -0.011176 0.180386
f 5 2 1
f 6 3 4
f 7 1 2
f 7 3 6
f 8 5 1
f 9 2 5
f 9 7 2
f 9 3 7
f 10 4 3
f 11 7 6
f 11 6 4
f 11 1 7
f 11 8 1
f 11 5 8
f 11 10 5
f 11 4 10
f 12 9 5
f 12 5 10
f 12 10 3
f 12 3 9
