v 0.209628 0.041204 0.071435
v 0.209549 -0.044510 0.071567
v 0.188095 -0.056580 0.063887
v -0.069048 0.056810 0.063882
v -0.065736 0.055488 0.071339
v 0.164286 0.056826 0.063882
v 0.209633 -0.044506 0.067285
v 0.185409 -0.054033 0.071696
v -0.069048 -0.056580 0.063887
v 0.161661 0.055487 0.071354
v 0.209554 0.041208 0.067153
v -0.065761 -0.054036 0.071434
f 6 4 5
f 7 1 2
f 7 2 3
f 8 2 1
f 8 1 5
f 8 3 2
f 9 3 8
f 9 6 3
f 9 4 6
f 10 6 5
f 10 5 1
f 10 1 6
f 11 6 1
f 11 1 7
f 11 7 3
f 11 3 6
f 12 5 4
f 12 4 9
f 12 9 8
f 12 8 5
