v 0.226190 -0.044509 0.071598
v 0.226194 -0.065145 0.071539
v 0.226190 -0.065790 0.057489
v 0.192857 -0.056606 0.057712
v 0.198077 -0.065105 0.071598
v 0.226190 -0.056585 0.057732
v 0.198063 -0.044508 0.071615
v 0.192858 -0.065927 0.066843
v 0.197868 -0.044510 0.067113
v 0.192857 -0.065790 0.057488
v 0.192857 -0.056822 0.066916
v 0.226190 -0.044509 0.067113
f 5 2 1
f 6 3 4
f 6 2 3
f 7 5 1
f 8 3 2
f 8 2 5
f 10 4 3
f 10 3 8
f 11 10 8
f 11 4 10
f 11 9 4
f 11 7 9
f 11 8 5
f 11 5 7
f 12 6 4
f 12 4 9
f 12 1 2
f 12 2 6
f 12 9 7
f 12 7 1
