v -0.240058 -0.054945 0.159123
v -0.235714 -0.073081 0.159125
v -0.226226 -0.049271 0.067063
v -0.250000 -0.054033 -0.002780
v -0.250000 -0.073081 0.159125
v -0.235714 -0.073081 -0.002780
v -0.239721 -0.048321 0.081936
v -0.226207 -0.049270 0.071653
v -0.246358 -0.054752 0.159125
v -0.235714 -0.054033 -0.002780
v -0.250000 -0.073081 -0.002780
v -0.230952 -0.049271 0.054363
v -0.233668 -0.048321 0.081936
v -0.226191 -0.065784 0.057471
v -0.226191 -0.056869 0.057461
v -0.226160 -0.065136 0.071500
v -0.230952 -0.073081 0.049601
v -0.230952 -0.073081 0.063887
f 6 2 5
f 8 1 2
f 9 4 5
f 9 7 4
f 9 5 2
f 9 2 1
f 10 6 4
f 11 6 5
f 11 5 4
f 11 4 6
f 12 4 7
f 12 10 4
f 12 3 10
f 13 1 8
f 13 9 1
f 13 7 9
f 13 8 3
f 13 12 7
f 13 3 12
f 15 3 8
f 15 10 3
f 15 14 6
f 15 6 10
f 16 8 2
f 16 15 8
f 16 14 15
f 17 2 6
f 17 6 14
f 18 16 2
f 18 2 17
f 18 17 14
f 18 14 16
