v 0.240476 0.036443 0.282934
v 0.240476 -0.030224 0.221030
v 0.240476 0.031681 0.240077
v 0.230941 -0.030222 0.185004
v 0.230952 -0.020700 0.230553
v 0.240476 -0.020700 0.192458
v 0.240476 -0.020700 0.230553
v 0.230952 -0.049271 0.201982
v 0.230952 0.041205 0.249601
v 0.239899 -0.049271 0.187696
v 0.230952 0.036443 0.282934
v 0.240476 0.041205 0.249601
v 0.230952 -0.020700 0.192458
v 0.240476 -0.049271 0.201982
v 0.233517 -0.049265 0.187691
v 0.239456 -0.031642 0.189185
v 0.233668 0.042687 0.281378
v 0.230952 0.031681 0.240077
v 0.239473 0.042602 0.281468
f 1 2 3
f 6 3 2
f 7 5 2
f 7 2 1
f 7 1 5
f 8 5 4
f 8 2 5
f 11 5 1
f 11 9 4
f 11 4 5
f 12 1 3
f 12 3 9
f 13 6 4
f 13 3 6
f 14 10 6
f 14 6 2
f 14 2 8
f 14 8 10
f 15 10 8
f 15 8 4
f 15 4 10
f 16 10 4
f 16 4 6
f 16 6 10
f 17 9 11
f 17 12 9
f 18 9 3
f 18 3 13
f 18 13 4
f 18 4 9
f 19 17 11
f 19 11 1
f 19 1 12
f 19 12 17
