v -0.183295 -0.044504 0.184876
v -0.183278 -0.065238 0.184618
v -0.183333 -0.056817 0.170869
v -0.226190 -0.056841 0.170844
v -0.226158 -0.065090 0.184902
v -0.183334 -0.065736 0.170906
v -0.183336 -0.044509 0.180378
v -0.226211 -0.049269 0.185017
v -0.226191 -0.065700 0.170862
v -0.209487 -0.044508 0.180708
v -0.226187 -0.049271 0.180380
v -0.209496 -0.044514 0.184777
f 1 2 3
f 5 2 1
f 6 3 2
f 7 1 3
f 7 3 4
f 8 5 1
f 9 4 3
f 9 3 6
f 9 8 4
f 9 5 8
f 9 6 2
f 9 2 5
f 10 7 4
f 10 1 7
f 11 10 4
f 11 4 8
f 11 8 10
f 12 10 8
f 12 8 1
f 12 1 10
