v 0.246309 -0.054812 0.159123
v 0.250000 -0.073081 0.159125
v 0.250000 -0.054033 -0.002780
v 0.235714 -0.054033 -0.002780
v 0.226194 -0.065145 0.071539
v 0.233668 -0.048321 0.081936
v 0.235714 -0.073081 0.159125
v 0.250000 -0.073081 -0.002780
v 0.239721 -0.048321 0.081936
v 0.230952 -0.049271 0.054363
v 0.226190 -0.049271 0.071598
v 0.230952 -0.073081 0.049601
v 0.240036 -0.054752 0.159125
v 0.226190 -0.049271 0.067113
v 0.230952 -0.073081 0.063887
v 0.235714 -0.073081 -0.002780
v 0.226190 -0.065790 0.057489
v 0.226190 -0.056585 0.057732
f 1 2 3
f 8 3 2
f 8 2 7
f 8 4 3
f 9 1 3
f 10 3 4
f 10 9 3
f 10 6 9
f 11 5 7
f 12 8 7
f 13 9 6
f 13 1 9
f 13 6 11
f 13 11 7
f 13 7 2
f 13 2 1
f 14 11 6
f 14 6 10
f 14 10 4
f 15 12 7
f 15 7 5
f 16 4 8
f 16 8 12
f 17 15 5
f 17 12 15
f 17 16 12
f 17 4 16
f 17 5 11
f 18 14 4
f 18 4 17
f 18 17 11
f 18 11 14
