v -0.235714 0.069776 0.311506
v -0.226191 0.057113 0.293319
v -0.235714 0.074538 0.201982
v -0.250000 0.074538 0.201982
v -0.250000 0.050729 0.306744
v -0.235714 0.074538 0.306744
v -0.235714 0.055491 0.311506
v -0.235714 0.039192 0.256475
v -0.250000 0.074538 0.306744
v -0.226190 0.069776 0.297220
v -0.250000 0.069776 0.311506
v -0.235714 0.050729 0.201982
v -0.230952 0.041205 0.287696
v -0.226191 0.066323 0.284144
v -0.230952 0.074538 0.282934
v -0.250000 0.055491 0.311506
v -0.250000 0.050729 0.201982
v -0.235714 0.050729 0.306744
v -0.240476 0.041205 0.287696
v -0.226191 0.056994 0.284111
v -0.230952 0.074538 0.297220
v -0.239187 0.039192 0.256475
f 6 3 4
f 9 1 6
f 9 6 4
f 9 4 5
f 10 6 1
f 10 7 2
f 10 1 7
f 11 7 1
f 11 9 5
f 11 1 9
f 12 4 3
f 13 2 7
f 13 8 12
f 14 3 10
f 15 10 3
f 15 3 6
f 16 11 5
f 16 5 7
f 16 7 11
f 17 5 4
f 17 4 12
f 18 13 7
f 18 7 5
f 18 5 13
f 19 13 5
f 20 13 12
f 20 2 13
f 20 12 3
f 20 3 14
f 20 14 10
f 20 10 2
f 21 15 6
f 21 6 10
f 21 10 15
f 22 8 13
f 22 13 19
f 22 17 12
f 22 12 8
f 22 19 5
f 22 5 17
