v -0.073810 0.069776 0.073410
v -0.073810 -0.056580 0.063887
v -0.073810 0.056810 0.063882
v -0.209499 0.041207 0.067286
v -0.183307 -0.054030 0.071488
v -0.183334 -0.056573 0.063877
v -0.164285 0.056828 0.063908
v -0.077843 -0.054038 0.071464
v -0.209488 0.041204 0.071371
v -0.073810 0.066322 0.066594
v -0.209485 -0.044511 0.071432
v -0.161365 0.055489 0.071659
v -0.092858 0.066320 0.066603
v -0.209487 -0.044507 0.067338
f 1 2 3
f 6 3 2
f 6 2 5
f 7 6 4
f 7 3 6
f 8 5 2
f 8 2 1
f 8 1 5
f 9 7 4
f 10 1 3
f 10 3 7
f 11 5 1
f 11 1 9
f 11 6 5
f 11 9 4
f 12 9 1
f 12 1 7
f 12 7 9
f 13 10 7
f 13 7 1
f 13 1 10
f 14 11 4
f 14 4 6
f 14 6 11
