v -0.233668 -0.017109 0.203211
v -0.221674 -0.049269 0.184982
v -0.221805 -0.011176 0.180383
v -0.246358 -0.054752 0.159125
v -0.250000 -0.073081 0.192458
v -0.230952 -0.068319 0.159125
v -0.233192 -0.011176 0.180386
v -0.221719 -0.011174 0.185013
v -0.230952 -0.049271 0.201982
v -0.221809 -0.049272 0.180378
v -0.230952 -0.054033 0.159125
v -0.250000 -0.073081 0.159125
v -0.235714 -0.073081 0.192458
v -0.240476 -0.015938 0.197220
v -0.240476 -0.049271 0.201982
v -0.226191 -0.065700 0.170862
v -0.230952 -0.073081 0.163887
v -0.226158 -0.065090 0.184902
v -0.233310 -0.011181 0.184863
v -0.250000 -0.054033 0.192458
v -0.239652 -0.017085 0.203186
v -0.235714 -0.073081 0.159125
v -0.230952 -0.073081 0.178172
f 8 2 3
f 8 3 7
f 9 8 1
f 9 2 8
f 10 6 3
f 10 3 2
f 11 6 4
f 11 3 6
f 11 7 3
f 11 4 7
f 13 5 12
f 13 9 5
f 14 7 4
f 15 9 1
f 15 5 9
f 16 10 2
f 16 6 10
f 17 13 12
f 17 6 16
f 18 2 9
f 18 9 13
f 18 16 2
f 19 8 7
f 19 7 14
f 20 12 5
f 20 14 4
f 20 4 12
f 21 15 1
f 21 14 20
f 21 20 5
f 21 5 15
f 21 19 14
f 21 1 8
f 21 8 19
f 22 17 12
f 22 6 17
f 22 12 4
f 22 4 6
f 23 17 16
f 23 16 18
f 23 18 13
f 23 13 17
