v 0.137478 0.067052 0.071382
v 0.145238 0.060246 0.066967
v 0.145238 0.069776 0.054363
v -0.130952 0.069776 0.054363
v -0.130934 0.055491 0.071666
v -0.130952 0.067149 0.071442
v 0.145237 0.066294 0.066559
v 0.130953 0.055490 0.071691
v -0.130952 0.056985 0.057552
v 0.137753 0.060252 0.071276
v 0.130953 0.057071 0.057495
v 0.145239 0.060264 0.057479
f 6 1 3
f 6 3 4
f 7 1 2
f 7 2 3
f 7 3 1
f 8 6 5
f 8 1 6
f 9 8 5
f 9 6 4
f 9 5 6
f 10 8 2
f 10 2 1
f 10 1 8
f 11 8 9
f 11 9 4
f 11 4 3
f 12 11 3
f 12 3 2
f 12 2 8
f 12 8 11
