v 0.235714 -0.022567 0.084894
v 0.239899 -0.049271 0.073411
v 0.233508 0.041208 0.067153
v 0.221983 0.041204 0.067113
v 0.221993 -0.044508 0.071598
v 0.221832 0.041206 0.071598
v 0.240476 -0.030224 0.068649
v 0.233492 -0.030253 0.082961
v 0.233583 0.041204 0.071435
v 0.221822 -0.044510 0.067113
v 0.239187 -0.032317 0.075608
v 0.226190 -0.049271 0.071598
v 0.233668 -0.022750 0.085086
v 0.239721 -0.049620 0.059490
v 0.233543 -0.049861 0.059743
v 0.240476 -0.034986 0.063887
v 0.226190 -0.049271 0.067113
f 6 3 4
f 8 2 1
f 9 3 6
f 9 7 3
f 10 6 4
f 10 5 6
f 11 1 2
f 11 2 7
f 11 9 1
f 11 7 9
f 12 8 5
f 12 2 8
f 12 5 10
f 13 6 5
f 13 5 8
f 13 8 1
f 13 9 6
f 13 1 9
f 14 4 3
f 15 10 4
f 15 4 14
f 15 14 2
f 15 2 12
f 16 14 3
f 16 3 7
f 16 7 2
f 16 2 14
f 17 15 12
f 17 12 10
f 17 10 15
