v 0.226192 0.067110 0.071498
v 0.226190 0.041205 0.071598
v 0.226190 0.069776 0.054363
v 0.145238 0.069776 0.054363
v 0.130953 0.060252 0.071691
v 0.145238 0.026919 0.063887
v 0.145238 0.069776 0.073410
v 0.226191 0.057102 0.057474
v 0.130953 0.057071 0.057495
v 0.145238 0.026919 0.073410
v 0.226190 0.041205 0.067113
v 0.130953 0.060264 0.057483
v 0.150269 0.026921 0.071697
v 0.130952 0.041205 0.067113
v 0.150093 0.026919 0.067113
v 0.130953 0.041205 0.071693
f 6 4 3
f 7 1 3
f 7 3 4
f 7 2 1
f 8 6 3
f 8 3 1
f 9 4 6
f 10 2 7
f 11 6 8
f 11 8 1
f 11 1 2
f 12 9 5
f 12 4 9
f 12 7 4
f 12 5 7
f 13 2 10
f 13 11 2
f 14 9 6
f 14 6 10
f 14 5 9
f 15 6 11
f 15 11 13
f 15 13 10
f 15 10 6
f 16 14 10
f 16 5 14
f 16 10 7
f 16 7 5
