v 0.240476 -0.054033 0.197220
v 0.250000 -0.073081 0.192458
v 0.246309 -0.054812 0.159123
v 0.230952 -0.054033 0.159125
v 0.192859 -0.065953 0.180170
v 0.226209 -0.044509 0.180447
v 0.250000 -0.054033 0.192458
v 0.235714 -0.073081 0.192458
v 0.235714 -0.073081 0.159125
v 0.240476 -0.049271 0.163887
v 0.198099 -0.044507 0.184990
v 0.250000 -0.073081 0.159125
v 0.239337 -0.047686 0.195555
v 0.198077 -0.065105 0.184968
v 0.192857 -0.065860 0.171107
v 0.230952 -0.073081 0.178172
v 0.197868 -0.044510 0.180484
v 0.230952 -0.054033 0.197220
v 0.226190 -0.044507 0.184990
v 0.192858 -0.056857 0.180297
v 0.230952 -0.068319 0.159125
v 0.230952 -0.073081 0.163887
v 0.230952 -0.049271 0.163887
v 0.192857 -0.056603 0.171083
v 0.233668 -0.047555 0.195418
f 7 1 2
f 8 2 1
f 9 2 8
f 10 3 4
f 10 7 3
f 12 7 2
f 12 3 7
f 12 9 3
f 12 2 9
f 13 1 7
f 13 10 6
f 13 7 10
f 14 5 8
f 16 9 8
f 16 8 5
f 18 1 13
f 18 11 14
f 18 14 8
f 18 8 1
f 19 13 6
f 19 17 11
f 19 6 17
f 20 14 11
f 20 5 14
f 20 11 17
f 20 15 5
f 21 9 15
f 21 4 3
f 21 3 9
f 22 15 9
f 22 9 16
f 22 16 5
f 22 5 15
f 23 10 4
f 23 4 17
f 23 17 6
f 23 6 10
f 24 17 4
f 24 20 17
f 24 15 20
f 24 21 15
f 24 4 21
f 25 18 13
f 25 11 18
f 25 19 11
f 25 13 19
