v -0.233498 0.041199 0.159130
v -0.230952 0.012633 0.149601
v -0.230952 0.041205 0.140077
v -0.230956 -0.030224 0.071705
v -0.239888 -0.049275 0.073414
v -0.230952 0.026919 0.159125
v -0.240476 0.012633 0.149601
v -0.230952 -0.049271 0.087696
v -0.240476 -0.015938 0.082934
v -0.239891 0.041203 0.159126
v -0.230969 -0.049270 0.071698
v -0.239187 -0.046126 0.084394
v -0.230952 -0.015938 0.082934
v -0.239187 -0.032317 0.075608
v -0.239187 0.029492 0.156424
v -0.239187 0.038426 0.142994
f 6 2 3
f 6 3 1
f 7 2 6
f 8 2 7
f 8 3 2
f 9 5 7
f 10 6 1
f 10 9 7
f 10 1 3
f 11 8 5
f 11 5 4
f 11 4 8
f 12 8 7
f 12 7 5
f 12 5 8
f 13 9 3
f 13 4 9
f 13 8 4
f 13 3 8
f 14 9 4
f 14 4 5
f 14 5 9
f 15 10 7
f 15 7 6
f 15 6 10
f 16 10 3
f 16 3 9
f 16 9 10
