v -0.221845 0.041205 0.071675
v -0.221680 -0.049270 0.071609
v -0.233535 -0.049879 0.059762
v -0.232997 0.041201 0.066975
v -0.239187 -0.022567 0.084894
v -0.221828 0.041208 0.067026
v -0.233668 -0.022750 0.085086
v -0.233455 0.041205 0.071441
v -0.239888 -0.049275 0.073414
v -0.239721 -0.049620 0.059490
v -0.221888 -0.049268 0.067100
v -0.239897 -0.030225 0.082936
v -0.240476 -0.034986 0.063887
v -0.233492 -0.030230 0.082940
v -0.240476 -0.020700 0.078172
f 6 1 2
f 7 2 1
f 8 6 4
f 8 1 6
f 8 7 1
f 8 5 7
f 9 3 2
f 10 6 3
f 10 4 6
f 10 3 9
f 11 6 2
f 11 2 3
f 11 3 6
f 12 7 5
f 13 8 4
f 13 4 10
f 13 10 9
f 14 12 9
f 14 9 2
f 14 2 7
f 14 7 12
f 15 13 9
f 15 9 12
f 15 12 5
f 15 5 8
f 15 8 13
