v -0.233668 0.063383 0.279884
v -0.230952 -0.020700 0.230553
v -0.230952 -0.011176 0.201982
v -0.240476 -0.011176 0.201982
v -0.240476 0.036443 0.282934
v -0.239272 -0.042833 0.200222
v -0.230952 0.065014 0.273410
v -0.230952 0.036443 0.282934
v -0.240024 0.065000 0.273410
v -0.230952 -0.044509 0.206744
v -0.233668 -0.042680 0.200061
v -0.240476 -0.044509 0.206744
v -0.230952 0.031681 0.240077
v -0.235714 0.063566 0.279693
v -0.240476 0.041205 0.249601
v -0.240476 -0.020700 0.230553
v -0.240476 0.031681 0.240077
f 7 2 3
f 8 5 2
f 8 1 5
f 8 7 1
f 8 2 7
f 10 3 2
f 11 6 4
f 11 4 3
f 11 10 6
f 11 3 10
f 12 5 4
f 12 4 6
f 12 6 10
f 12 10 2
f 13 7 3
f 13 3 4
f 14 9 5
f 14 5 1
f 14 1 7
f 14 7 9
f 15 4 5
f 15 5 9
f 15 9 7
f 15 7 13
f 16 12 2
f 16 2 5
f 16 5 12
f 17 15 13
f 17 13 4
f 17 4 15
