v -0.235714 0.074538 0.201982
v -0.221781 0.041207 0.185056
v -0.230952 0.074538 0.168649
v -0.246362 0.060241 0.144840
v -0.250000 0.050729 0.201982
v -0.230952 0.045967 0.144839
v -0.250000 0.074538 0.159125
v -0.222043 0.067149 0.184811
v -0.235714 0.050729 0.201982
v -0.235714 0.074538 0.159125
v -0.239721 0.040622 0.145451
v -0.250000 0.074538 0.201982
v -0.250000 0.050729 0.144839
v -0.230952 0.074538 0.182934
v -0.226190 0.066050 0.170843
v -0.221556 0.041205 0.182935
v -0.239993 0.060291 0.144840
v -0.233431 0.041199 0.184672
v -0.222043 0.067165 0.182912
v -0.233639 0.040565 0.145511
f 7 1 3
f 8 1 2
f 9 5 2
f 9 2 1
f 9 1 5
f 10 7 3
f 12 7 5
f 12 5 1
f 12 1 7
f 13 7 4
f 13 5 7
f 13 11 5
f 13 4 6
f 13 6 11
f 14 3 1
f 14 1 8
f 15 10 3
f 15 6 10
f 16 8 2
f 17 10 6
f 17 6 4
f 17 4 7
f 17 7 10
f 18 2 5
f 18 5 11
f 19 14 8
f 19 3 14
f 19 15 3
f 19 6 15
f 19 16 6
f 19 8 16
f 20 11 6
f 20 6 16
f 20 16 2
f 20 18 11
f 20 2 18
