v -0.183307 -0.044506 0.071506
v -0.183297 -0.065239 0.071247
v -0.183333 -0.056842 0.057487
v -0.226191 -0.056869 0.057461
v -0.226160 -0.065136 0.071500
v -0.183333 -0.065785 0.057473
v -0.183373 -0.044510 0.066999
v -0.226207 -0.049270 0.071653
v -0.226191 -0.065784 0.057471
v -0.209487 -0.044507 0.067338
v -0.226226 -0.049271 0.067063
v -0.209485 -0.044511 0.071432
f 1 2 3
f 5 2 1
f 6 3 2
f 6 4 3
f 7 1 3
f 7 3 4
f 8 5 1
f 9 4 6
f 9 6 2
f 9 2 5
f 10 7 4
f 10 1 7
f 11 4 9
f 11 10 4
f 11 8 10
f 11 9 5
f 11 5 8
f 12 10 8
f 12 8 1
f 12 1 10
