v 0.250000 0.074538 0.201982
v 0.250000 0.050729 0.201982
v 0.250000 0.074538 0.082934
v 0.235714 0.074538 0.082934
v 0.226180 0.041207 0.185074
v 0.235714 0.050729 0.201982
v 0.226192 0.067040 0.184902
v 0.250000 0.050729 0.082934
v 0.230952 0.074538 0.182934
v 0.226191 0.057102 0.170844
v 0.235714 0.074538 0.201982
v 0.239721 0.040622 0.145451
v 0.235714 0.050729 0.082934
v 0.230952 0.074538 0.168649
v 0.226191 0.066200 0.170945
v 0.233437 0.041203 0.184925
v 0.226190 0.041203 0.180465
v 0.233639 0.040565 0.145511
f 1 2 3
f 1 3 4
f 6 5 2
f 6 2 1
f 8 3 2
f 8 4 3
f 9 1 4
f 11 6 1
f 11 9 7
f 11 1 9
f 11 7 5
f 11 5 6
f 12 8 2
f 13 4 8
f 13 10 4
f 14 9 4
f 14 7 9
f 15 4 10
f 15 14 4
f 15 7 14
f 15 10 5
f 15 5 7
f 16 12 2
f 16 2 5
f 17 5 10
f 17 10 13
f 18 13 8
f 18 8 12
f 18 17 13
f 18 5 17
f 18 16 5
f 18 12 16
