v 0.239721 0.041921 0.167897
v 0.240476 0.012633 0.149601
v 0.240476 -0.025462 0.073410
v 0.233521 -0.025463 0.071537
v 0.230952 0.012633 0.149601
v 0.230952 0.041205 0.140077
v 0.230952 0.036443 0.168649
v 0.230952 -0.049271 0.087696
v 0.239187 0.038426 0.142994
v 0.233668 0.041921 0.167897
v 0.239187 -0.046126 0.084394
v 0.230952 -0.030224 0.071598
v 0.239899 -0.049271 0.073411
v 0.230952 -0.015938 0.082934
v 0.230952 -0.049271 0.071598
f 1 2 3
f 6 3 4
f 7 5 2
f 7 2 1
f 7 6 5
f 8 2 5
f 8 5 6
f 9 6 1
f 9 1 3
f 9 3 6
f 10 7 1
f 10 1 6
f 10 6 7
f 11 2 8
f 12 8 6
f 13 3 2
f 13 2 11
f 13 11 8
f 13 4 3
f 14 12 6
f 14 6 4
f 14 4 12
f 15 13 8
f 15 8 12
f 15 12 4
f 15 4 13
