v 0.209569 0.041203 0.184854
v 0.209549 -0.044512 0.184937
v 0.188095 -0.056577 0.178172
v -0.209499 0.041207 0.180656
v -0.209160 0.041206 0.184949
v 0.164285 0.056929 0.178172
v 0.209431 0.041205 0.180451
v 0.161488 0.055489 0.185048
v -0.183294 -0.054028 0.184858
v -0.092858 0.056853 0.178172
v 0.209610 -0.044509 0.180641
v 0.185644 -0.054031 0.184760
v -0.209496 -0.044514 0.184777
v -0.183336 -0.054033 0.180378
v -0.089635 0.055492 0.184950
v -0.209487 -0.044508 0.180708
f 7 6 1
f 7 3 6
f 8 2 1
f 8 1 6
f 9 8 5
f 9 2 8
f 10 6 3
f 10 4 5
f 11 7 1
f 11 1 2
f 11 2 3
f 11 3 7
f 12 9 3
f 12 3 2
f 12 2 9
f 13 9 5
f 13 5 4
f 14 10 3
f 14 3 9
f 14 9 13
f 15 8 6
f 15 6 10
f 15 10 5
f 15 5 8
f 16 4 10
f 16 10 14
f 16 14 13
f 16 13 4
