v 0.250000 0.069776 0.311506
v 0.250000 0.055491 0.311506
v 0.250000 0.074538 0.201982
v 0.235714 0.074538 0.201982
v 0.226190 0.069776 0.297220
v 0.233668 0.039010 0.256667
v 0.235714 0.074538 0.306744
v 0.250000 0.050729 0.201982
v 0.226190 0.056847 0.284339
v 0.250000 0.074538 0.306744
v 0.230952 0.074538 0.282934
v 0.235714 0.055491 0.311506
v 0.240476 0.041205 0.287696
v 0.235714 0.050729 0.201982
v 0.226190 0.066298 0.284120
v 0.230952 0.074538 0.297220
v 0.235714 0.069776 0.311506
v 0.226190 0.057335 0.293351
v 0.250000 0.050729 0.306744
v 0.239187 0.039192 0.256475
v 0.230952 0.041205 0.287696
v 0.235714 0.050729 0.306744
f 1 2 3
f 7 3 4
f 8 3 2
f 8 4 3
f 10 7 1
f 10 1 3
f 10 3 7
f 11 7 4
f 11 4 5
f 12 2 1
f 14 8 6
f 14 4 8
f 14 6 9
f 15 5 4
f 15 14 9
f 15 4 14
f 16 11 5
f 16 5 7
f 16 7 11
f 17 7 5
f 17 5 12
f 17 12 1
f 17 1 7
f 18 12 5
f 18 15 9
f 18 5 15
f 19 8 2
f 19 2 12
f 20 13 6
f 20 6 8
f 20 19 13
f 20 8 19
f 21 12 18
f 21 13 19
f 21 6 13
f 21 18 9
f 21 9 6
f 22 21 19
f 22 19 12
f 22 12 21
