v 0.233437 0.041203 0.184925
v 0.239899 -0.049271 0.187696
v 0.240476 -0.044509 0.168649
v 0.221983 0.041204 0.180484
v 0.233668 -0.026858 0.193924
v 0.233508 0.041206 0.180523
v 0.240476 -0.025462 0.187696
v 0.222148 0.041207 0.185082
v 0.221822 -0.044510 0.180484
v 0.239521 -0.026790 0.193852
v 0.233668 -0.051232 0.170707
v 0.222054 -0.044507 0.184990
v 0.239899 -0.030224 0.192458
v 0.239195 -0.051052 0.170518
v 0.230952 -0.044509 0.168649
v 0.226190 -0.049268 0.184985
v 0.226209 -0.049271 0.180447
f 6 3 4
f 7 2 3
f 7 6 1
f 7 3 6
f 8 6 4
f 8 1 6
f 9 8 4
f 10 5 2
f 10 7 1
f 10 8 5
f 10 1 8
f 12 5 8
f 12 8 9
f 13 10 2
f 13 2 7
f 13 7 10
f 14 3 2
f 14 2 11
f 15 11 9
f 15 9 4
f 15 4 3
f 15 14 11
f 15 3 14
f 16 2 5
f 16 5 12
f 16 11 2
f 16 12 9
f 17 16 9
f 17 9 11
f 17 11 16
