v 0.250000 0.074538 0.082934
v 0.250000 0.050729 0.082934
v 0.250000 0.065014 -0.002780
v 0.235714 0.069776 -0.002780
v 0.226190 0.041205 0.071598
v 0.250000 0.074538 0.001982
v 0.235714 0.074538 0.082934
v 0.250000 0.050729 -0.002780
v 0.250000 0.069776 -0.002780
v 0.235714 0.050729 0.082934
v 0.226190 0.069776 0.054363
v 0.235714 0.074538 0.001982
v 0.233583 0.041204 0.071435
v 0.235714 0.050729 0.001982
v 0.226192 0.067110 0.071498
v 0.226190 0.041205 0.067113
v 0.235714 0.055491 -0.002780
v 0.233508 0.041208 0.067153
v 0.240476 0.050729 -0.002780
v 0.226191 0.057102 0.057474
f 1 2 3
f 6 1 3
f 7 2 1
f 7 1 6
f 8 3 2
f 8 4 3
f 9 6 3
f 9 3 4
f 9 4 6
f 10 7 5
f 10 5 2
f 10 2 7
f 12 7 6
f 12 6 4
f 12 11 7
f 12 4 11
f 13 8 2
f 13 2 5
f 15 11 5
f 15 5 7
f 15 7 11
f 16 13 5
f 16 5 11
f 17 4 8
f 17 11 4
f 17 14 16
f 18 16 8
f 18 8 13
f 18 13 16
f 19 16 14
f 19 8 16
f 19 17 8
f 19 14 17
f 20 17 16
f 20 16 11
f 20 11 17
