# https://github.com/mikedh/trimesh
v 0.50327682 -0.01628559 -0.02500456
v 0.50319231 -0.01628559 -0.01506479
v 0.50213540 -0.02500100 -0.01506479
v 0.50217766 -0.02500100 -0.02500456
v 0.50323457 -0.01628559 -0.03376101
v 0.50314999 -0.01628559 -0.01372371
v 0.50006390 -0.04062459 -0.00851717
v 0.50010616 -0.04101491 -0.01506479
v 0.50090939 -0.03500502 -0.02500456
v 0.49947202 -0.04615326 -0.02500456
v 0.50209314 -0.02500100 -0.03502320
v 0.50319231 -0.01628559 -0.03502320
v 0.50285411 -0.01628559 -0.00504614
v 0.49947202 -0.04600890 -0.01506479
v 0.50052893 -0.03552901 -0.00512503
v 0.49989480 -0.03920766 -0.00181178
v 0.49938750 -0.04437275 -0.00512503
v 0.49807695 -0.05499700 -0.02500456
v 0.49790782 -0.05499700 -0.03502320
v 0.49951431 -0.04448503 -0.03604874
v 0.50006390 -0.04081707 -0.03336658
v 0.49997932 -0.03999365 -0.03999309
v 0.50276953 -0.01628559 -0.04504186
v 0.50276953 -0.01628559 -0.00378395
v 0.50116307 -0.02500100 0.00497251
v 0.49968341 -0.03742181 0.00497251
v 0.49773872 -0.05499700 -0.00504614
v 0.49799240 -0.05499700 -0.01506479
v 0.49871105 -0.04499834 0.00497251
v 0.49718916 -0.05499700 0.00497251
v 0.49625909 -0.06499566 -0.02500456
v 0.49511766 -0.07090931 -0.02910668
v 0.49608999 -0.06499566 -0.03502320
v 0.49744281 -0.05499700 -0.04504186
v 0.49900699 -0.04499834 -0.04504186
v 0.49985251 -0.03887081 -0.04504186
v 0.50023299 -0.03183432 -0.05293056
v 0.50074029 -0.02582442 -0.05569160
v 0.50205088 -0.01628559 -0.05371943
v 0.50217766 -0.01628559 0.00497251
v 0.50209314 -0.01628559 0.00615581
v 0.50006390 -0.03069009 0.01104680
v 0.49803466 -0.04499834 0.01499116
v 0.49486399 -0.07090931 -0.00504614
v 0.49541357 -0.06499566 0.00497251
v 0.49435669 -0.07090931 0.00497251
v 0.49456805 -0.07090931 0.00087038
v 0.49617454 -0.06499566 -0.01506479
v 0.49647045 -0.05499700 0.01499116
v 0.49473715 -0.06499566 0.01499116
v 0.49397621 -0.07090931 0.01088903
v 0.49511766 -0.07090931 -0.01916692
v 0.49515992 -0.07090931 -0.02500456
v 0.49499083 -0.07090931 -0.03502320
v 0.49448353 -0.07090931 -0.04504186
v 0.49685097 -0.05499700 -0.05498162
v 0.49837285 -0.04499834 -0.05498162
v 0.49993706 -0.02970091 -0.05947818
v 0.50099397 -0.01628559 -0.06492138
v 0.50145900 -0.01628559 0.01491227
v 0.49981022 -0.02844974 0.01767331
v 0.49934518 -0.03441151 0.01459672
v 0.49706233 -0.04499834 0.02493092
v 0.49507537 -0.07090931 -0.01506479
v 0.49549812 -0.05499700 0.02493092
v 0.49368030 -0.07090931 0.01499116
v 0.49313068 -0.07090931 0.02090769
v 0.49422985 -0.07090931 -0.04914398
v 0.49499083 -0.06499566 -0.05498162
v 0.49587861 -0.05499700 -0.06492138
v 0.49744281 -0.04499834 -0.06492138
v 0.50027525 -0.02242381 -0.06492138
v 0.49871105 -0.03500502 -0.06492138
v 0.50002158 -0.02019951 -0.07020681
v 0.50031757 -0.01628559 -0.07123234
v 0.50133216 -0.01628559 0.01625335
v 0.50019073 -0.02178218 0.02177544
v 0.49828833 -0.03500502 0.02493092
v 0.49714687 -0.03500502 0.03494957
v 0.49587861 -0.04499834 0.03494957
v 0.49270794 -0.07090931 0.02493092
v 0.49427214 -0.05499700 0.03494957
v 0.49380711 -0.07090931 -0.05498162
v 0.49342662 -0.07090931 -0.05908374
v 0.49283475 -0.07090931 -0.06492138
v 0.49397621 -0.06499566 -0.06492138
v 0.49456805 -0.05499700 -0.07494003
v 0.49165106 -0.07090931 -0.07494003
v 0.49059415 -0.07090931 -0.08345983
v 0.49613225 -0.04499834 -0.07494003
v 0.49752736 -0.03500502 -0.07494003
v 0.49904928 -0.02411877 -0.07407227
v 0.49756962 -0.02500100 -0.08495868
v 0.49883789 -0.01628559 -0.08345983
v 0.50023299 -0.01628559 -0.07194233
v 0.50052893 -0.01628559 0.02445760
v 0.49959886 -0.01628559 0.03305628
v 0.49921837 -0.01628559 0.03636954
v 0.49583632 -0.03500502 0.04496823
v 0.49452579 -0.04499834 0.04496823
v 0.49143967 -0.07090931 0.03487068
v 0.49291933 -0.05499700 0.04496823
v 0.49321526 -0.05499700 -0.08495868
v 0.48945272 -0.07090931 -0.09095410
v 0.48991776 -0.06966349 -0.08953413
v 0.49046734 -0.06245055 -0.09497733
v 0.49477944 -0.04499834 -0.08495868
v 0.49621683 -0.03500502 -0.08495868
v 0.49613225 -0.02500100 -0.09497733
v 0.49740052 -0.01628559 -0.09363625
v 0.49862653 -0.01628559 -0.08495868
v 0.49807695 -0.01628559 0.04496823
v 0.49642819 -0.01628559 0.05498687
v 0.49537128 -0.02500100 0.05498687
v 0.49414530 -0.03500502 0.05498687
v 0.49279249 -0.04499834 0.05498687
v 0.49110147 -0.05528038 0.05530242
v 0.49038279 -0.07090931 0.04260161
v 0.49042505 -0.06245055 0.05222583
v 0.48983321 -0.06911811 0.04883368
v 0.48966411 -0.07090931 0.04780816
v 0.49173561 -0.05499700 -0.09497733
v 0.48881859 -0.07090931 -0.09497733
v 0.48949498 -0.06744988 -0.09497733
v 0.48826903 -0.07090931 -0.09844837
v 0.49004459 -0.06026902 -0.10026276
v 0.49325752 -0.04499834 -0.09497733
v 0.49469489 -0.03500502 -0.09497733
v 0.49718916 -0.01628559 -0.09497733
v 0.49165106 -0.04499834 -0.10499598
v 0.49004459 -0.05029175 -0.11020252
v 0.49448353 -0.02500100 -0.10499598
v 0.49452579 -0.01628559 0.06492663
v 0.49346888 -0.02500100 0.06492663
v 0.49220064 -0.03500502 0.06492663
v 0.49084783 -0.04486466 0.06516330
v 0.48970640 -0.04811022 0.06855544
v 0.49034053 -0.05213642 0.06192893
v 0.48919907 -0.05528038 0.06516330
v 0.48649344 -0.07090931 0.06492663
v 0.48835355 -0.07090931 0.05514465
v 0.48915678 -0.07090931 0.05072697
v 0.48725438 -0.07090931 -0.10468043
v 0.48864949 -0.06416155 -0.10412823
v 0.48949498 -0.05695396 -0.10696816
v 0.49554041 -0.01628559 -0.10499598
v 0.48657799 -0.06499566 -0.11493574
v 0.48860723 -0.05417358 -0.11406799
v 0.48619750 -0.05499700 -0.12495439
v 0.48983321 -0.03896705 -0.11919565
v 0.49034053 -0.03230484 -0.12148337
v 0.49270794 -0.02500100 -0.11493574
v 0.49401850 -0.01628559 -0.11367355
v 0.49236974 -0.01628559 0.07502417
v 0.49059415 -0.03500502 0.07257867
v 0.49017140 -0.04144801 0.07084316
v 0.48881859 -0.04486466 0.07447197
v 0.48628205 -0.04499834 0.08496393
v 0.48704302 -0.05499700 0.07494529
v 0.48425281 -0.07090931 0.07494529
v 0.48518288 -0.07090931 0.07084316
v 0.48649344 -0.07090931 -0.10901922
v 0.48539427 -0.07090931 -0.11493574
v 0.48446423 -0.06499566 -0.12495439
v 0.48404145 -0.05499700 -0.13497305
v 0.49076325 -0.02434869 -0.12487551
v 0.49376482 -0.01628559 -0.11493574
v 0.49173561 -0.01628559 -0.12495439
v 0.48945272 -0.01628559 0.08748832
v 0.48941046 -0.03500502 0.07754856
v 0.48763490 -0.03500502 0.08496393
v 0.48514062 -0.03500502 0.09498258
v 0.48374552 -0.04499834 0.09498258
v 0.48459104 -0.05499700 0.08496393
v 0.48167402 -0.05579368 0.09585035
v 0.48167402 -0.07090931 0.08496393
v 0.48323822 -0.07090931 -0.12495439
v 0.48235041 -0.07090931 -0.12905651
v 0.48226589 -0.06499566 -0.13497305
v 0.48053259 -0.06499566 -0.14207289
v 0.47981390 -0.05876120 -0.14925160
v 0.48133582 -0.05525900 -0.14554390
v 0.48302683 -0.04499834 -0.14499170
v 0.48446423 -0.03500502 -0.14499170
v 0.48590159 -0.02500100 -0.14499170
v 0.49008685 -0.02057914 -0.13031872
v 0.49029824 -0.01628559 -0.13134424
v 0.48911452 -0.01628559 0.08882940
v 0.48640889 -0.02500100 0.09498258
v 0.48716986 -0.01628559 0.09624478
v 0.48361868 -0.02500100 0.10492235
v 0.48230815 -0.03500502 0.10492235
v 0.48099762 -0.04419630 0.10508013
v 0.48053259 -0.05299727 0.10184576
v 0.47989845 -0.05965948 0.09971580
v 0.47884154 -0.07090931 0.09569257
v 0.47934887 -0.07090931 0.09379928
v 0.48074394 -0.06499566 0.09277375
v 0.48010981 -0.07090931 -0.13891739
v 0.48002529 -0.07012332 -0.14010070
v 0.47706598 -0.06499566 -0.15493146
v 0.48082852 -0.04499834 -0.15303817
v 0.47592455 -0.05499700 -0.16495010
v 0.47884154 -0.05525900 -0.15461591
v 0.48036349 -0.03257753 -0.16132131
v 0.48319596 -0.02500100 -0.15493146
v 0.48695847 -0.01628559 -0.14499170
v 0.48733896 -0.01628559 -0.14349285
v 0.48463333 -0.01628559 -0.15366927
v 0.48941046 -0.01628559 -0.13513082
v 0.48750806 -0.01628559 0.09498258
v 0.48471785 -0.01628559 0.10492235
v 0.48150492 -0.01628559 0.11557209
v 0.48040575 -0.03500502 0.11123331
v 0.48002529 -0.04033051 0.11012889
v 0.47951797 -0.04699272 0.10847226
v 0.47731966 -0.06499566 0.10492235
v 0.47609365 -0.05499700 0.11494100
v 0.47901064 -0.05579368 0.10508013
v 0.47617820 -0.07090931 0.10492235
v 0.47702372 -0.07090931 0.10200353
v 0.47964478 -0.07090931 -0.14088957
v 0.47583997 -0.07090931 -0.15493146
v 0.47283843 -0.07090931 -0.16534454
v 0.47414899 -0.06499566 -0.16495010
v 0.47943342 -0.04499834 -0.15800805
v 0.47985619 -0.03924509 -0.15958580
v 0.47947568 -0.02500100 -0.16818447
v 0.47892612 -0.03554505 -0.16479233
v 0.47009051 -0.06066469 -0.18033308
v 0.47275388 -0.05499700 -0.17496875
v 0.47583997 -0.03500502 -0.17496875
v 0.48091304 -0.02500100 -0.16321459
v 0.47989845 -0.01904993 -0.16960445
v 0.48099762 -0.01628559 -0.16668563
v 0.48006755 -0.01628559 0.12014754
v 0.47884154 -0.03500502 0.11628208
v 0.47820741 -0.04419630 0.11407325
v 0.47064012 -0.07090931 0.12172528
v 0.47123194 -0.07090931 0.11998977
v 0.47410670 -0.06499566 0.11494100
v 0.47440261 -0.04499834 0.12495965
v 0.47211975 -0.05570279 0.12582740
v 0.47279614 -0.07090931 0.11533543
v 0.47021735 -0.07090931 -0.17370656
v 0.46945637 -0.06733225 -0.17836091
v 0.47110513 -0.06439681 -0.17496875
v 0.47731966 -0.02500100 -0.17496875
v 0.46814585 -0.06439681 -0.18419854
v 0.46890682 -0.05499700 -0.18672292
v 0.47055554 -0.05499700 -0.18175304
v 0.47004825 -0.04033586 -0.19011506
v 0.47254249 -0.03500502 -0.18498741
v 0.47397989 -0.02500100 -0.18498741
v 0.47507903 -0.01628559 -0.18498741
v 0.47858793 -0.01628559 -0.17449543
v 0.47896838 -0.01628559 -0.17331213
v 0.47715053 -0.02500100 0.12495965
v 0.47583997 -0.03500502 0.12495965
v 0.47947568 -0.02500100 0.11841203
v 0.47457173 -0.01628559 0.13497829
v 0.46987915 -0.03913281 0.13963263
v 0.46873772 -0.05570279 0.13489941
v 0.46679303 -0.06499566 0.13497829
v 0.46556705 -0.07090931 0.13497829
v 0.46941411 -0.04499834 0.13844933
v 0.47055554 -0.05284221 0.13150728
v 0.46670848 -0.07090931 -0.18467186
v 0.46522883 -0.07090931 -0.18908954
v 0.46438330 -0.06499566 -0.19492717
v 0.46607435 -0.05499700 -0.19492717
v 0.47042871 -0.03500502 -0.19129837
v 0.46806130 -0.04419630 -0.19405942
v 0.46869543 -0.03500502 -0.19626825
v 0.47114742 -0.02500100 -0.19327055
v 0.46979457 -0.01854732 -0.19950262
v 0.47148561 -0.01628559 -0.19540049
v 0.47423351 -0.01628559 0.13584606
v 0.47080922 -0.02500100 0.14184147
v 0.47030190 -0.03246525 0.14073706
v 0.46831495 -0.03548089 0.14444473
v 0.46032488 -0.04214845 0.16069546
v 0.46670848 -0.04499834 0.14499696
v 0.46489063 -0.05499700 0.14499696
v 0.46362236 -0.07090931 0.13994817
v 0.46307278 -0.07090931 -0.19540049
v 0.46074760 -0.07090931 -0.20210589
v 0.46129721 -0.06499566 -0.20360474
v 0.45994437 -0.05976107 -0.20983683
v 0.46544021 -0.03500502 -0.20494582
v 0.46937186 -0.02500100 -0.19831932
v 0.46882224 -0.01628559 -0.20265810
v 0.47093603 -0.01628559 -0.19697824
v 0.46683532 -0.02500100 -0.20494582
v 0.46290368 -0.02500100 -0.21496448
v 0.46814585 -0.01628559 -0.20439361
v 0.47135878 -0.01628559 0.14310366
v 0.46916044 -0.01628559 0.14815243
v 0.46383375 -0.03500502 0.15493672
v 0.46083218 -0.03500502 0.16172099
v 0.45833790 -0.03500502 0.16669087
v 0.45799971 -0.04528707 0.16440316
v 0.45977527 -0.04881066 0.15951216
v 0.46138173 -0.05499700 0.15312231
v 0.46057850 -0.06289434 0.15130791
v 0.45990211 -0.06956190 0.14973018
v 0.46066308 -0.07090931 0.14728467
v 0.46180451 -0.07090931 0.14452362
v 0.45909888 -0.07090931 -0.20660245
v 0.45947933 -0.06499566 -0.20857462
v 0.45698512 -0.06499566 -0.21496448
v 0.45859158 -0.05585785 -0.21464893
v 0.46045169 -0.05309886 -0.21109901
v 0.46146631 -0.03445429 -0.21535891
v 0.46007121 -0.03075425 -0.22024991
v 0.46446788 -0.01628559 -0.21370228
v 0.46045169 -0.02500100 -0.22111766
v 0.46615890 -0.01628559 0.15493672
v 0.46197361 -0.01628559 0.16400872
v 0.45897204 -0.02500100 0.16795307
v 0.46569386 -0.01628559 0.15596224
v 0.45406806 -0.03500502 0.17497401
v 0.45026326 -0.04157633 0.18049610
v 0.45229250 -0.04493952 0.17560510
v 0.45588595 -0.05499700 0.16495536
v 0.45170066 -0.05499700 0.17315961
v 0.45381445 -0.06499566 0.16495536
v 0.45440629 -0.07090931 0.16108990
v 0.45914114 -0.05499700 0.15809219
v 0.45842248 -0.06573888 0.15477894
v 0.45901433 -0.07090931 0.15107125
v 0.45588595 -0.07090931 -0.21496448
v 0.44988281 -0.07090931 -0.22971635
v 0.44996735 -0.06993619 -0.22995301
v 0.45229250 -0.06595811 -0.22592977
v 0.45440629 -0.05499700 -0.22498313
v 0.45960617 -0.03742181 -0.21898772
v 0.45592821 -0.04499834 -0.22498313
v 0.45787287 -0.03445429 -0.22411537
v 0.45009416 -0.04062459 -0.24020831
v 0.45453310 -0.02500100 -0.23492289
v 0.45833790 -0.02500100 -0.22608754
v 0.46100128 -0.01628559 -0.22237985
v 0.45947933 -0.01628559 0.16897860
v 0.45635098 -0.01628559 0.17497401
v 0.45529407 -0.02500100 0.17497401
v 0.45068604 -0.03500502 0.18128498
v 0.44785357 -0.03500502 0.18625486
v 0.44210410 -0.04499834 0.19343357
v 0.44747311 -0.04493952 0.18428268
v 0.44967142 -0.04823855 0.17939168
v 0.45068604 -0.06499566 0.17126632
v 0.45026326 -0.07090931 0.16976747
v 0.44447154 -0.07090931 0.18065389
v 0.44852999 -0.07090931 0.17308073
v 0.45728102 -0.07090931 0.15485783
v 0.44032854 -0.07090931 -0.25070029
v 0.44852999 -0.06595811 -0.23468623
v 0.44400650 -0.06499566 -0.24494153
v 0.44561297 -0.05499700 -0.24494153
v 0.44037080 -0.04227143 -0.26079783
v 0.44823405 -0.03500502 -0.24612485
v 0.44895273 -0.02500100 -0.24762370
v 0.45115107 -0.02500100 -0.24265382
v 0.45563227 -0.01628559 -0.23492289
v 0.45212340 -0.01628559 -0.24296936
v 0.45888752 -0.01628559 -0.22734973
v 0.45584366 -0.01628559 0.17592065
v 0.45186976 -0.01628559 0.18325715
v 0.44848770 -0.02500100 0.18735927
v 0.44235775 -0.03451845 0.19564241
v 0.43965212 -0.03752340 0.19942898
v 0.43901798 -0.04499834 0.19840345
v 0.43808794 -0.05499700 0.19690460
v 0.43762290 -0.06549827 0.19445911
v 0.44045535 -0.06249867 0.19075142
v 0.44519022 -0.05499700 0.18499266
v 0.43965212 -0.07090931 0.18941033
v 0.44075128 -0.07090931 0.18743816
v 0.44231546 -0.07090931 0.18459822
v 0.43813020 -0.07090931 -0.25527573
v 0.43846840 -0.06499566 -0.25677460
v 0.44083583 -0.06499566 -0.25172582
v 0.43982121 -0.04892829 -0.25961453
v 0.44413334 -0.03500502 -0.25496018
v 0.43808794 -0.04535658 -0.26442665
v 0.43851066 -0.03500502 -0.26687211
v 0.44087809 -0.03500502 -0.26190224
v 0.44979826 -0.01628559 -0.24825479
v 0.44552842 -0.02500100 -0.25496018
v 0.44713491 -0.01628559 -0.25401354
v 0.44899499 -0.01628559 0.18830591
v 0.44455609 -0.01628559 0.19572130
v 0.44007486 -0.03085584 0.20013896
v 0.43703103 -0.03451845 0.20408332
v 0.43479043 -0.04499834 0.20495108
v 0.42840683 -0.07090931 0.20755434
v 0.42971736 -0.07090931 0.20550328
v 0.43394491 -0.07090931 0.19871899
v 0.43652374 -0.07090931 -0.25858897
v 0.43449450 -0.06499566 -0.26497883
v 0.43618554 -0.05499700 -0.26497883
v 0.43187341 -0.05499700 -0.27365643
v 0.43242300 -0.04537796 -0.27578634
v 0.43914479 -0.02500100 -0.26829210
v 0.44159681 -0.02500100 -0.26324332
v 0.43440995 -0.03500502 -0.27499747
v 0.44176590 -0.01628559 -0.26513660
v 0.44096267 -0.01628559 0.20148006
v 0.44045535 -0.02500100 0.20069116
v 0.43766516 -0.01628559 0.20652881
v 0.43703103 -0.01628559 0.20747545
v 0.43216935 -0.02500100 0.21307644
v 0.43153521 -0.03500502 0.21212980
v 0.43073195 -0.04499834 0.21102539
v 0.42959052 -0.05777738 0.20936874
v 0.42544752 -0.07090931 0.21173537
v 0.43322623 -0.07090931 -0.26537329
v 0.43098563 -0.06499566 -0.27184200
v 0.43043604 -0.07090931 -0.27081648
v 0.42929459 -0.05499700 -0.27862629
v 0.42980191 -0.04897107 -0.27965182
v 0.42789951 -0.04537796 -0.28438503
v 0.43035150 -0.04230886 -0.28067735
v 0.43572050 -0.02500100 -0.27499747
v 0.43897569 -0.01628559 -0.27081648
v 0.43965212 -0.01723734 -0.26923874
v 0.43090108 -0.03500502 -0.28170288
v 0.43157750 -0.02500100 -0.28296506
v 0.43267664 -0.01628559 0.21370754
v 0.42908323 -0.01628559 0.21875629
v 0.42861819 -0.02500100 0.21804631
v 0.42794180 -0.03500502 0.21709967
v 0.42709628 -0.04499834 0.21599525
v 0.42117769 -0.05499700 0.22159624
v 0.42671579 -0.05466549 0.21410197
v 0.42320693 -0.07090931 0.21481195
v 0.42794180 -0.07090931 -0.27539194
v 0.42832226 -0.06499566 -0.27689075
v 0.42582801 -0.05499700 -0.28493726
v 0.42155817 -0.05499700 -0.29258931
v 0.42248824 -0.04499834 -0.29408813
v 0.42823774 -0.03500502 -0.28667277
v 0.43724239 -0.01628559 -0.27420861
v 0.43267664 -0.01628559 -0.28304398
v 0.42984420 -0.01628559 -0.28840828
v 0.42426383 -0.01628559 0.22506726
v 0.41969806 -0.02696331 0.22956383
v 0.42295328 -0.03500502 0.22388396
v 0.42210776 -0.04499834 0.22277954
v 0.42045903 -0.06268047 0.22064960
v 0.41969806 -0.07090931 0.21962407
v 0.41830295 -0.04499834 0.22782832
v 0.41741517 -0.05499700 0.22656611
v 0.41711926 -0.06560521 0.22435728
v 0.42265734 -0.07090931 -0.28477949
v 0.41944438 -0.04499834 -0.29913691
v 0.42045903 -0.07090931 -0.28856605
v 0.41001695 -0.06011931 -0.31002331
v 0.41035515 -0.02196398 -0.32051530
v 0.41454044 -0.01628559 -0.31507209
v 0.42172730 -0.01628559 -0.30292350
v 0.42223459 -0.01628559 -0.30205572
v 0.42675805 -0.01628559 -0.29408813
v 0.42950600 -0.01628559 -0.28903937
v 0.42020535 -0.01628559 0.23027381
v 0.41914847 -0.03500502 0.22893274
v 0.41644284 -0.02418293 0.23398149
v 0.41077793 -0.02500100 0.24092355
v 0.41035515 -0.03228346 0.24045023
v 0.41339898 -0.07090931 0.22790721
v 0.41331446 -0.04499834 0.23406038
v 0.41242665 -0.05499700 0.23295596
v 0.41149658 -0.06499566 0.23177266
v 0.41585100 -0.04499834 -0.30497456
v 0.41868344 -0.07090931 -0.29148489
v 0.41018605 -0.07090931 -0.30529010
v 0.40862185 -0.07090931 -0.30781448
v 0.40384471 -0.07090931 -0.31491432
v 0.40025130 -0.07090931 -0.32019976
v 0.40092772 -0.06499566 -0.32130417
v 0.40211141 -0.05499700 -0.32296079
v 0.40709993 -0.05499700 -0.31578207
v 0.40815681 -0.04499834 -0.31720203
v 0.40912917 -0.03500502 -0.31862199
v 0.40972102 -0.02863153 -0.31956863
v 0.40067405 -0.03500502 -0.33100727
v 0.40164638 -0.02500100 -0.33234835
v 0.40798771 -0.01628559 -0.32524851
v 0.41077793 -0.01628559 -0.32114640
v 0.41627371 -0.01628559 0.23516479
v 0.40980557 -0.03895101 0.23974025
v 0.41120067 -0.01628559 0.24139687
v 0.40629670 -0.02500100 0.24589345
v 0.40130818 -0.02500100 0.25133663
v 0.40063179 -0.03500502 0.25062665
v 0.40012446 -0.04084916 0.25015333
v 0.41090474 -0.07090931 0.23106268
v 0.40828365 -0.05499700 0.23792586
v 0.40731132 -0.06499566 0.23682144
v 0.39492458 -0.07090931 -0.32753623
v 0.39741883 -0.06499566 -0.32627404
v 0.39851800 -0.05499700 -0.32793066
v 0.40012446 -0.04059785 -0.33013952
v 0.40257645 -0.04435671 -0.32548517
v 0.39703834 -0.03500502 -0.33597714
v 0.39809525 -0.02500100 -0.33731821
v 0.40304148 -0.01628559 -0.33234835
v 0.39927897 -0.01628559 -0.33771268
v 0.39881393 -0.05499700 0.24873337
v 0.40232280 -0.06499566 0.24265906
v 0.40604305 -0.01628559 0.24707675
v 0.40168867 -0.01628559 0.25173107
v 0.39682698 -0.01628559 0.25677985
v 0.39644650 -0.02500100 0.25630653
v 0.39577007 -0.03500502 0.25567544
v 0.39023200 -0.04153891 0.26025087
v 0.38968241 -0.04820111 0.25961977
v 0.38909054 -0.05499700 0.25898868
v 0.38816050 -0.06499566 0.25804204
v 0.39289534 -0.06499566 0.25307214
v 0.40671945 -0.07090931 0.23611143
v 0.40376016 -0.07090931 0.23958248
v 0.39162707 -0.07090931 -0.33203280
v 0.39238805 -0.06499566 -0.33305833
v 0.39204985 -0.03500502 -0.34268254
v 0.39881393 -0.01628559 -0.33834377
v 0.39310673 -0.02500100 -0.34402362
v 0.39733428 -0.07090931 0.24699786
v 0.39437500 -0.07090931 0.25023222
v 0.39619285 -0.01628559 0.25741094
v 0.39145797 -0.02500100 0.26135528
v 0.39078158 -0.03500502 0.26072419
v 0.37391362 -0.05499700 0.27374056
v 0.37311038 -0.06499566 0.27295169
v 0.37809891 -0.06499566 0.26813957
v 0.37966311 -0.07090931 0.26561520
v 0.38317198 -0.06499566 0.26316968
v 0.38465160 -0.07090931 0.26056641
v 0.38955557 -0.07090931 0.25535989
v 0.39230350 -0.07090931 0.25244105
v 0.38769546 -0.07090931 -0.33708155
v 0.38845640 -0.06499566 -0.33810711
v 0.38203055 -0.04499834 -0.35254341
v 0.38820276 -0.03500502 -0.34765244
v 0.39243031 -0.01628559 -0.34686357
v 0.38925964 -0.02500100 -0.34899351
v 0.39179617 -0.01628559 0.26174971
v 0.38608897 -0.02500100 0.26640406
v 0.38541257 -0.03500502 0.26577297
v 0.36858690 -0.05499700 0.27871042
v 0.36774141 -0.06499566 0.27792156
v 0.36719179 -0.07090931 0.27744824
v 0.36939013 -0.07090931 0.27539718
v 0.37256080 -0.07090931 0.27239946
v 0.37463230 -0.07090931 0.27042729
v 0.38241100 -0.07090931 -0.34378695
v 0.37924033 -0.06713442 -0.34907240
v 0.38283378 -0.06427918 -0.34544358
v 0.37792981 -0.04499834 -0.35751331
v 0.37919807 -0.03500502 -0.35901216
v 0.38321424 -0.03500502 -0.35404226
v 0.38976696 -0.01893230 -0.34970349
v 0.38756862 -0.01628559 -0.35309562
v 0.38367927 -0.02548222 -0.35585669
v 0.38651174 -0.01628559 -0.35443670
v 0.38646945 -0.01628559 0.26671961
v 0.38071999 -0.01628559 0.27200502
v 0.38110048 -0.02500100 0.27097949
v 0.36930558 -0.04499834 0.27934152
v 0.36359838 -0.05499700 0.28297034
v 0.36275288 -0.06499566 0.28226036
v 0.36220330 -0.07090931 0.28186592
v 0.37873304 -0.07090931 -0.34844130
v 0.37387136 -0.07090931 -0.35404226
v 0.36862919 -0.04499834 -0.36839971
v 0.37978992 -0.02913414 -0.35972214
v 0.36947468 -0.03764103 -0.36942524
v 0.36748773 -0.01628559 -0.37707728
v 0.36803731 -0.01628559 -0.37644619
v 0.38046634 -0.02246658 -0.36051100
v 0.38101593 -0.01628559 -0.36122099
v 0.37577376 -0.01628559 0.27634382
v 0.37048930 -0.02500100 0.28036705
v 0.37015110 -0.03145469 0.28013039
v 0.36431706 -0.04499834 0.28352255
v 0.35755298 -0.05499700 0.28794020
v 0.35666519 -0.06499566 0.28730911
v 0.35611561 -0.07090931 0.28683579
v 0.36059684 -0.07090931 -0.36910969
v 0.36224556 -0.05499700 -0.37250182
v 0.36364067 -0.04499834 -0.37392181
v 0.36249924 -0.01628559 -0.38259938
v 0.37243396 -0.01628559 -0.37131852
v 0.37513962 -0.01628559 0.27689603
v 0.37078524 -0.01628559 0.28060371
v 0.36423251 -0.01628559 0.28588915
v 0.36499348 -0.02500100 0.28478473
v 0.35873669 -0.03500502 0.28896573
v 0.36583900 -0.03487669 0.28328589
v 0.35822940 -0.04499834 0.28849241
v 0.35252219 -0.05499700 0.29196346
v 0.35167667 -0.06499566 0.29133236
v 0.35112709 -0.07090931 0.29085904
v 0.35882124 -0.07090931 -0.37100297
v 0.35759526 -0.05499700 -0.37747172
v 0.36076593 -0.06499566 -0.37084520
v 0.35899034 -0.04499834 -0.37897056
v 0.36144233 -0.02500100 -0.38149494
v 0.35835621 -0.01628559 -0.38693815
v 0.35949767 -0.01628559 0.28959683
v 0.35920173 -0.02500100 0.28936017
v 0.35319859 -0.04499834 0.29243678
v 0.34575811 -0.05499700 0.29701221
v 0.34415162 -0.06496359 0.29693332
v 0.34465894 -0.07090931 0.29575002
v 0.34770277 -0.07090931 0.29346231
v 0.35501644 -0.07090931 -0.37494734
v 0.35015476 -0.07049226 -0.38015386
v 0.35256445 -0.05499700 -0.38259938
v 0.34897104 -0.04499834 -0.38898921
v 0.35061979 -0.03249733 -0.39064583
v 0.35273355 -0.01628559 -0.39277580
v 0.35886353 -0.01628559 0.29007015
v 0.35417095 -0.02500100 0.29298899
v 0.35370591 -0.03500502 0.29275233
v 0.34630769 -0.04499834 0.29740664
v 0.34076959 -0.05499700 0.30048326
v 0.34026229 -0.06161109 0.30016771
v 0.33945903 -0.07090931 0.29961550
v 0.35074663 -0.07090931 -0.37936500
v 0.34939378 -0.07090931 -0.38070607
v 0.34334838 -0.07090931 -0.38646483
v 0.34110779 -0.07090931 -0.38859478
v 0.34089643 -0.06499566 -0.39080361
v 0.34588492 -0.06499566 -0.38607040
v 0.34753367 -0.05499700 -0.38756925
v 0.34254515 -0.05499700 -0.39230248
v 0.34267199 -0.01628559 -0.40247890
v 0.34833691 -0.01628559 -0.39711457
v 0.35450915 -0.01628559 0.29314676
v 0.34698409 -0.02500100 0.29795885
v 0.34664589 -0.03500502 0.29772219
v 0.34131917 -0.04499834 0.30087769
v 0.33497784 -0.05499700 0.30434871
v 0.33578107 -0.06496359 0.30277097
v 0.33480874 -0.07090931 0.30277097
v 0.33751437 -0.07090931 0.30095658
v 0.33890945 -0.07090931 -0.39064583
v 0.33497784 -0.07090931 -0.39419577
v 0.32960883 -0.06897909 -0.39963895
v 0.33079255 -0.06231153 -0.40066451
v 0.33793712 -0.01628559 -0.40681767
v 0.33696479 -0.05499700 -0.39727235
v 0.33011615 -0.03042809 -0.41005206
v 0.33096164 -0.02500100 -0.41076204
v 0.34660360 -0.01628559 0.29858994
v 0.34161508 -0.03500502 0.30111435
v 0.33497784 -0.04499834 0.30505869
v 0.32800236 -0.05499700 0.30884528
v 0.32732597 -0.06499566 0.30829304
v 0.32690319 -0.07090931 0.30797750
v 0.32922834 -0.07090931 -0.39932340
v 0.32394391 -0.07090931 -0.40358332
v 0.31874400 -0.06675479 -0.40902650
v 0.32478943 -0.06453048 -0.40484551
v 0.33193401 -0.05499700 -0.40169004
v 0.32588857 -0.05499700 -0.40673879
v 0.32897469 -0.03709565 -0.40918428
v 0.33222991 -0.01628559 -0.41186646
v 0.32538128 -0.03425645 -0.41273421
v 0.32415530 -0.02447166 -0.41620523
v 0.32026595 -0.02078766 -0.42014959
v 0.32580402 -0.01628559 -0.41691521
v 0.34136143 -0.01628559 0.30206099
v 0.32850969 -0.04499834 0.30916083
v 0.32301384 -0.05499700 0.31160632
v 0.30830196 -0.06499566 0.31910059
v 0.31798306 -0.07090931 0.31334183
v 0.32191467 -0.07090931 0.31113300
v 0.32394391 -0.07090931 0.30987081
v 0.32106918 -0.07090931 -0.40587103
v 0.31785622 -0.07090931 -0.40839541
v 0.31320593 -0.07090931 -0.41186646
v 0.31523514 -0.06404927 -0.41241866
v 0.32001227 -0.06008723 -0.40997317
v 0.32090008 -0.05499700 -0.41068316
v 0.31092304 -0.04499834 -0.42062292
v 0.31269860 -0.03500502 -0.42188510
v 0.31544653 -0.02447166 -0.42259508
v 0.31616521 -0.01628559 -0.42393616
v 0.32085779 -0.01628559 -0.42062292
v 0.32149193 -0.01628559 -0.42014959
v 0.31772941 -0.03500502 -0.41833517
v 0.33497784 -0.01628559 0.30592644
v 0.32872105 -0.03500502 0.30923972
v 0.32352117 -0.04499834 0.31192186
v 0.31498149 -0.05499700 0.31602398
v 0.30876699 -0.05499700 0.31933725
v 0.30331343 -0.06499566 0.32162496
v 0.30491990 -0.07090931 0.32044166
v 0.30787921 -0.07090931 0.31886393
v 0.31498149 -0.07090931 0.31499845
v 0.30999297 -0.07090931 -0.41415417
v 0.30703369 -0.06499566 -0.41801962
v 0.30868244 -0.05672939 -0.41912407
v 0.31400916 -0.05403456 -0.41604745
v 0.30999297 -0.05006183 -0.41999182
v 0.30707598 -0.02500100 -0.42811719
v 0.30855560 -0.01628559 -0.42906383
v 0.33417460 -0.01628559 0.30639976
v 0.32884789 -0.02500100 0.30931860
v 0.32369027 -0.03500502 0.31200075
v 0.31498149 -0.03500502 0.31673396
v 0.31498149 -0.04499834 0.31649730
v 0.30918974 -0.04499834 0.31957391
v 0.30289069 -0.07090931 0.32146719
v 0.30377847 -0.05499700 0.32178274
v 0.29498515 -0.06499566 0.32549042
v 0.29498515 -0.07090931 0.32517487
v 0.29836720 -0.07090931 0.32359713
v 0.30542722 -0.07090931 -0.41730964
v 0.30077690 -0.07090931 -0.42046514
v 0.30204517 -0.06499566 -0.42125401
v 0.30521584 -0.05403456 -0.42204288
v 0.29938182 -0.03858208 -0.42961603
v 0.30208746 -0.02500100 -0.43127266
v 0.30420122 -0.01628559 -0.43182486
v 0.32893243 -0.01628559 0.30939749
v 0.32381707 -0.02500100 0.31207964
v 0.30931658 -0.03500502 0.31965280
v 0.32280248 -0.01628559 0.31271073
v 0.30420122 -0.04499834 0.32186162
v 0.29498515 -0.05499700 0.32572708
v 0.28724873 -0.06499566 0.32880369
v 0.28686824 -0.07090931 0.32864591
v 0.29494289 -0.07090931 -0.42409393
v 0.29401281 -0.06406531 -0.42653942
v 0.29807127 -0.04499834 -0.42882717
v 0.29003891 -0.06010862 -0.43001047
v 0.29498515 -0.02500100 -0.43537477
v 0.29523882 -0.01628559 -0.43711030
v 0.30356708 -0.01628559 -0.43221930
v 0.31422055 -0.01628559 0.31712839
v 0.30910519 -0.01628559 0.31957391
v 0.30432805 -0.03500502 0.32186162
v 0.29498515 -0.04499834 0.32588485
v 0.28390896 -0.07090931 0.32990810
v 0.28741783 -0.05499700 0.32888258
v 0.28226021 -0.06499566 0.33085474
v 0.29202586 -0.07090931 -0.42582944
v 0.28843245 -0.06677618 -0.42914271
v 0.27503109 -0.07090931 -0.43490145
v 0.27503109 -0.06499566 -0.43632141
v 0.28500813 -0.05499700 -0.43371814
v 0.28813651 -0.02500100 -0.43908247
v 0.28953162 -0.01878258 -0.43971357
v 0.29299819 -0.01628559 -0.43837249
v 0.30407441 -0.01628559 0.32178274
v 0.29498515 -0.03500502 0.32588485
v 0.28242931 -0.05499700 0.33093363
v 0.28187972 -0.07090931 0.33069697
v 0.27503109 -0.06499566 0.33345801
v 0.27799037 -0.07090931 0.33219582
v 0.28737557 -0.07090931 -0.42859051
v 0.28276753 -0.07090931 -0.43095711
v 0.27236775 -0.07090931 -0.43616363
v 0.26995802 -0.05986801 -0.43995023
v 0.27980822 -0.03953382 -0.43987134
v 0.28319028 -0.02500100 -0.44152796
v 0.28686824 -0.01628559 -0.44152796
v 0.29498515 -0.01628559 0.32564819
v 0.28695279 -0.02500100 0.32896146
v 0.28720644 -0.03500502 0.32896146
v 0.28733328 -0.04499834 0.32896146
v 0.27503109 -0.05499700 0.33345801
v 0.27503109 -0.07090931 0.33322135
v 0.26501179 -0.06499566 0.33653462
v 0.26501179 -0.07090931 0.33645573
v 0.26911253 -0.07090931 0.33519351
v 0.26644915 -0.07090931 -0.43884581
v 0.26847839 -0.06499566 -0.43939802
v 0.26002327 -0.07090931 -0.44129130
v 0.26501179 -0.03500502 -0.44681340
v 0.27503109 -0.02500100 -0.44507787
v 0.27503109 -0.01628559 -0.44681340
v 0.28602272 -0.01628559 -0.44192240
v 0.28669915 -0.01628559 0.32880369
v 0.28606501 -0.01628559 0.32904035
v 0.28171062 -0.01628559 0.33053920
v 0.28196427 -0.02500100 0.33061808
v 0.27503109 -0.01628559 0.33266914
v 0.26501179 -0.05499700 0.33653462
v 0.25363967 -0.07090931 0.33984786
v 0.26010782 -0.07090931 0.33795458
v 0.25541523 -0.07090931 -0.44286904
v 0.25503474 -0.06499566 -0.44421011
v 0.25503474 -0.05499700 -0.44618231
v 0.25938913 -0.02905929 -0.44981110
v 0.26141837 -0.02239707 -0.45044219
v 0.26484269 -0.02543945 -0.44870669
v 0.26801336 -0.01628559 -0.44933778
v 0.27372056 -0.01628559 0.33306357
v 0.26501179 -0.04499834 0.33629796
v 0.25583798 -0.05499700 0.33898011
v 0.25161043 -0.07090931 0.34040007
v 0.24501544 -0.07090931 -0.44610342
v 0.25748673 -0.03500502 -0.44925889
v 0.25059581 -0.04099352 -0.45012665
v 0.26310939 -0.01628559 -0.45099440
v 0.25613391 -0.01628559 -0.45296657
v 0.26501179 -0.01628559 0.33543018
v 0.25084949 -0.05499700 0.34016341
v 0.25148362 -0.06499566 0.34032118
v 0.24767880 -0.07090931 0.34134671
v 0.23512296 -0.07090931 -0.44862780
v 0.22962715 -0.07090931 -0.44988999
v 0.25507703 -0.01628559 -0.45320323
v 0.25393558 -0.01628559 0.33771792
v 0.24564958 -0.04541539 0.34079450
v 0.24501544 -0.05499700 0.34134671
v 0.24501544 -0.06499566 0.34174114
v 0.24501544 -0.07090931 0.34189892
v 0.22472318 -0.07090931 -0.45091552
v 0.24501544 -0.01628559 -0.45541209
v 0.24319759 -0.01628559 0.33953232
v 0.23503841 -0.05499700 0.34323999
v 0.23503841 -0.06499566 0.34371331
v 0.23503841 -0.07090931 0.34394997
v 0.21504208 -0.07090931 -0.45233548
v 0.23503841 -0.01628559 -0.45706871
v 0.23622213 -0.01628559 0.34016341
v 0.24049196 -0.01881466 0.34000564
v 0.22501911 -0.06499566 0.34521219
v 0.22501911 -0.07090931 0.34560663
v 0.22911984 -0.07090931 0.34497553
v 0.20502277 -0.07090931 -0.45328212
v 0.22628736 -0.01628559 -0.45769981
v 0.22501911 -0.01628559 0.34087339
v 0.21504208 -0.05499700 0.34521219
v 0.20912349 -0.07090931 0.34710547
v 0.21504208 -0.07090931 0.34663215
v 0.22501911 -0.05499700 0.34442329
v 0.21910053 -0.07090931 0.34623772
v 0.19500345 -0.07090931 -0.45367655
v 0.22501911 -0.01628559 -0.45777869
v 0.22375083 -0.01628559 0.34087339
v 0.18912715 -0.07090931 0.34797323
v 0.19910419 -0.07090931 0.34773657
v 0.21504208 -0.01628559 -0.45793647
v 0.17500712 -0.07090931 -0.45359766
v 0.21436566 -0.01628559 0.34079450
v 0.17910784 -0.07090931 0.34789434
v 0.20502277 -0.01628559 -0.45738426
v 0.16490325 -0.07090931 -0.45320323
v 0.21237871 -0.01628559 0.34071562
v 0.17500712 -0.07090931 0.34773657
v 0.13729732 -0.07090931 -0.45083663
v 0.19500345 -0.01628559 -0.45604318
v 0.14503375 -0.07090931 -0.45154661
v 0.20185210 -0.01628559 0.33992675
v 0.16913082 -0.07090931 0.34749991
v 0.07143201 -0.07087189 -0.43971357
v 0.07502542 -0.07090931 -0.44002911
v 0.18502644 -0.01628559 -0.45414987
v 0.19631401 -0.01628559 0.33937454
v 0.16503009 -0.07090931 0.34710547
v 0.07143201 -0.01628559 -0.39419577
v 0.13518354 -0.01628559 -0.43277150
v 0.14372320 -0.01628559 -0.43789917
v 0.14947268 -0.01628559 -0.44105464
v 0.15501077 -0.01628559 -0.44397345
v 0.16545284 -0.01628559 -0.44847003
v 0.16993406 -0.01628559 -0.44996887
v 0.17449981 -0.01628559 -0.45138884
v 0.07143201 -0.07090931 -0.40689656
v 0.19487664 -0.01628559 0.33921677
v 0.15501077 -0.07090931 0.34592217
v 0.07143201 -0.01628559 0.26301190
v 0.07143201 -0.07090931 0.31957391
v 0.15501077 -0.06499566 0.34458110
v 0.18498415 -0.01628559 0.33763903
v 0.14909220 -0.07090931 0.34505442
v 0.07143201 -0.01795916 0.26545742
v 0.07303847 -0.01628559 0.26545742
v 0.07904160 -0.07090931 0.32304493
v 0.14499147 -0.01628559 0.32485932
v 0.14363866 -0.01628559 0.32422823
v 0.13772008 -0.01628559 0.32123053
v 0.13201287 -0.01628559 0.31807506
v 0.07143201 -0.07067405 0.31941614
v 0.18371588 -0.01628559 0.33740237
v 0.14503375 -0.06499566 0.34292445
v 0.14503375 -0.07090931 0.34434441
v 0.07143201 -0.02851390 0.27863154
v 0.08102855 -0.01628559 0.27571273
v 0.08956821 -0.07090931 0.32714707
v 0.15319294 -0.01628559 0.32848814
v 0.12469921 -0.01628559 0.31373626
v 0.12351549 -0.01628559 0.31302628
v 0.11941476 -0.01628559 0.31034413
v 0.07143201 -0.06665320 0.31626064
v 0.17500712 -0.01628559 0.33566687
v 0.13539492 -0.07090931 0.34237224
v 0.13911517 -0.07090931 0.34323999
v 0.07143201 -0.02978111 0.28013039
v 0.08195862 -0.01628559 0.27681714
v 0.10085580 -0.07090931 0.33140695
v 0.16253583 -0.01628559 0.33203804
v 0.11260840 -0.01628559 0.30545312
v 0.07143201 -0.05661176 0.30781972
v 0.17373885 -0.01628559 0.33535129
v 0.13585995 -0.06558917 0.34087339
v 0.13019504 -0.07090931 0.34103116
v 0.07143201 -0.03425111 0.28525805
v 0.08605935 -0.01628559 0.28162926
v 0.10842311 -0.07090931 0.33416799
v 0.16435368 -0.01628559 0.33266914
v 0.10220861 -0.01628559 0.29716998
v 0.07143201 -0.05066603 0.30229765
v 0.12825036 -0.07090931 0.34047896
v 0.07143201 -0.04128225 0.29291010
v 0.08720079 -0.01628559 0.28289145
v 0.11983752 -0.07090931 0.33795458
v 0.12313502 -0.07090931 0.33898011
v 0.09717782 -0.01628559 0.29259455
v 0.09599410 -0.01628559 0.29149014
v 0.09142834 -0.01628559 0.28715134
f 1 2 3
f 1 3 4
f 1 4 5
f 1 5 12
f 1 12 23
f 1 23 39
f 1 39 59
f 1 59 75
f 1 75 95
f 1 95 94
f 1 94 111
f 1 111 110
f 1 110 129
f 1 129 146
f 1 146 153
f 1 153 167
f 1 167 168
f 1 168 187
f 1 187 210
f 1 210 208
f 1 208 207
f 1 207 209
f 1 209 235
f 1 235 257
f 1 257 256
f 1 256 255
f 1 255 277
f 1 277 293
f 1 293 292
f 1 292 296
f 1 296 316
f 1 316 343
f 1 343 367
f 1 367 365
f 1 365 366
f 1 366 389
f 1 389 391
f 1 391 408
f 1 408 426
f 1 426 444
f 1 444 445
f 1 445 446
f 1 446 465
f 1 465 464
f 1 464 463
f 1 463 462
f 1 462 461
f 1 461 490
f 1 490 489
f 1 489 508
f 1 508 509
f 1 509 527
f 1 527 546
f 1 546 564
f 1 564 566
f 1 566 582
f 1 582 594
f 1 594 580
f 1 580 579
f 1 579 593
f 1 593 610
f 1 610 623
f 1 623 640
f 1 640 639
f 1 639 653
f 1 653 670
f 1 670 674
f 1 674 693
f 1 693 692
f 1 692 691
f 1 691 710
f 1 710 728
f 1 728 743
f 1 743 742
f 1 742 758
f 1 758 771
f 1 771 787
f 1 787 786
f 1 786 802
f 1 802 810
f 1 810 811
f 1 811 818
f 1 818 825
f 1 825 831
f 1 831 838
f 1 838 846
f 1 846 850
f 1 850 854
f 1 854 859
f 1 859 865
f 1 865 875
f 1 875 874
f 1 874 873
f 1 873 872
f 1 872 871
f 1 871 870
f 1 870 869
f 1 869 868
f 1 868 879
f 1 879 885
f 1 885 896
f 1 896 907
f 1 907 916
f 1 916 923
f 1 923 928
f 1 928 927
f 1 927 926
f 1 926 919
f 1 919 910
f 1 910 901
f 1 901 900
f 1 900 899
f 1 899 890
f 1 890 889
f 1 889 888
f 1 888 887
f 1 887 898
f 1 898 909
f 1 909 918
f 1 918 912
f 1 912 903
f 1 903 892
f 1 892 882
f 1 882 877
f 1 877 866
f 1 866 861
f 1 861 856
f 1 856 852
f 1 852 847
f 1 847 839
f 1 839 832
f 1 832 826
f 1 826 819
f 1 819 812
f 1 812 803
f 1 803 792
f 1 792 790
f 1 790 789
f 1 789 788
f 1 788 772
f 1 772 759
f 1 759 745
f 1 745 744
f 1 744 732
f 1 732 729
f 1 729 711
f 1 711 695
f 1 695 675
f 1 675 657
f 1 657 641
f 1 641 624
f 1 624 611
f 1 611 597
f 1 597 596
f 1 596 595
f 1 595 583
f 1 583 568
f 1 568 567
f 1 567 548
f 1 548 531
f 1 531 514
f 1 514 513
f 1 513 512
f 1 512 493
f 1 493 491
f 1 491 466
f 1 466 447
f 1 447 431
f 1 431 430
f 1 430 412
f 1 412 411
f 1 411 409
f 1 409 393
f 1 393 392
f 1 392 369
f 1 369 368
f 1 368 345
f 1 345 344
f 1 344 319
f 1 319 321
f 1 321 318
f 1 318 298
f 1 298 297
f 1 297 278
f 1 278 261
f 1 261 236
f 1 236 213
f 1 213 212
f 1 212 190
f 1 190 211
f 1 211 188
f 1 188 169
f 1 169 154
f 1 154 133
f 1 133 113
f 1 113 112
f 1 112 98
f 1 98 97
f 1 97 96
f 1 96 76
f 1 76 60
f 1 60 41
f 1 41 40
f 1 40 24
f 1 24 13
f 1 13 6
f 1 6 2
f 2 6 7
f 2 7 3
f 3 7 8
f 3 8 4
f 4 8 9
f 4 9 5
f 5 9 10
f 5 10 11
f 5 11 12
f 6 13 7
f 7 14 8
f 7 13 15
f 7 15 16
f 7 16 17
f 7 17 14
f 8 14 9
f 9 14 10
f 10 14 18
f 10 18 19
f 10 19 20
f 10 20 21
f 10 21 11
f 11 21 20
f 11 20 22
f 11 22 23
f 11 23 12
f 13 24 25
f 13 25 26
f 13 26 16
f 13 16 15
f 14 17 27
f 14 27 28
f 14 28 18
f 16 29 17
f 16 26 29
f 17 29 30
f 17 30 27
f 18 31 32
f 18 32 19
f 18 28 48
f 18 48 31
f 19 32 33
f 19 33 34
f 19 34 20
f 20 34 35
f 20 35 22
f 22 35 36
f 22 36 23
f 23 36 37
f 23 37 38
f 23 38 39
f 24 40 25
f 25 40 41
f 25 41 42
f 25 42 26
f 26 42 43
f 26 43 29
f 27 44 28
f 27 30 45
f 27 45 46
f 27 46 47
f 27 47 44
f 28 44 48
f 29 43 30
f 30 43 49
f 30 49 50
f 30 50 51
f 30 51 45
f 31 48 52
f 31 52 53
f 31 53 32
f 32 53 52
f 32 52 64
f 32 64 44
f 32 44 47
f 32 47 46
f 32 46 51
f 32 51 66
f 32 66 67
f 32 67 81
f 32 81 101
f 32 101 118
f 32 118 121
f 32 121 142
f 32 142 141
f 32 141 140
f 32 140 161
f 32 161 160
f 32 160 176
f 32 176 197
f 32 197 196
f 32 196 221
f 32 221 220
f 32 220 244
f 32 244 240
f 32 240 239
f 32 239 265
f 32 265 285
f 32 285 308
f 32 308 307
f 32 307 331
f 32 331 356
f 32 356 328
f 32 328 353
f 32 353 355
f 32 355 354
f 32 354 380
f 32 380 379
f 32 379 378
f 32 378 399
f 32 399 398
f 32 398 397
f 32 397 417
f 32 417 437
f 32 437 452
f 32 452 471
f 32 471 498
f 32 498 522
f 32 522 523
f 32 523 529
f 32 529 530
f 32 530 541
f 32 541 540
f 32 540 539
f 32 539 537
f 32 537 556
f 32 556 555
f 32 555 554
f 32 554 553
f 32 553 573
f 32 573 589
f 32 589 604
f 32 604 617
f 32 617 616
f 32 616 630
f 32 630 648
f 32 648 647
f 32 647 662
f 32 662 681
f 32 681 680
f 32 680 679
f 32 679 703
f 32 703 702
f 32 702 701
f 32 701 717
f 32 717 721
f 32 721 720
f 32 720 736
f 32 736 748
f 32 748 762
f 32 762 764
f 32 764 777
f 32 777 780
f 32 780 779
f 32 779 795
f 32 795 794
f 32 794 806
f 32 806 815
f 32 815 823
f 32 823 829
f 32 829 836
f 32 836 835
f 32 835 844
f 32 844 842
f 32 842 841
f 32 841 849
f 32 849 848
f 32 848 853
f 32 853 857
f 32 857 862
f 32 862 867
f 32 867 878
f 32 878 883
f 32 883 894
f 32 894 905
f 32 905 904
f 32 904 914
f 32 914 921
f 32 921 925
f 32 925 924
f 32 924 917
f 32 917 908
f 32 908 897
f 32 897 886
f 32 886 880
f 32 880 876
f 32 876 864
f 32 864 858
f 32 858 860
f 32 860 855
f 32 855 851
f 32 851 845
f 32 845 837
f 32 837 830
f 32 830 824
f 32 824 817
f 32 817 816
f 32 816 807
f 32 807 796
f 32 796 783
f 32 783 781
f 32 781 767
f 32 767 753
f 32 753 766
f 32 766 765
f 32 765 751
f 32 751 737
f 32 737 723
f 32 723 722
f 32 722 704
f 32 704 684
f 32 684 683
f 32 683 682
f 32 682 664
f 32 664 663
f 32 663 650
f 32 650 649
f 32 649 634
f 32 634 633
f 32 633 632
f 32 632 631
f 32 631 618
f 32 618 605
f 32 605 590
f 32 590 575
f 32 575 574
f 32 574 557
f 32 557 542
f 32 542 524
f 32 524 501
f 32 501 480
f 32 480 479
f 32 479 478
f 32 478 477
f 32 477 476
f 32 476 458
f 32 458 456
f 32 456 438
f 32 438 420
f 32 420 418
f 32 418 400
f 32 400 381
f 32 381 357
f 32 357 333
f 32 333 332
f 32 332 309
f 32 309 287
f 32 287 286
f 32 286 269
f 32 269 268
f 32 268 245
f 32 245 224
f 32 224 223
f 32 223 222
f 32 222 199
f 32 199 178
f 32 178 177
f 32 177 163
f 32 163 162
f 32 162 143
f 32 143 125
f 32 125 123
f 32 123 104
f 32 104 89
f 32 89 88
f 32 88 85
f 32 85 84
f 32 84 83
f 32 83 68
f 32 68 55
f 32 55 54
f 32 54 33
f 33 54 34
f 34 54 55
f 34 55 56
f 34 56 35
f 35 56 57
f 35 57 36
f 36 57 37
f 37 57 58
f 37 58 38
f 38 58 39
f 39 58 59
f 41 60 42
f 42 60 61
f 42 61 62
f 42 62 43
f 43 62 61
f 43 61 63
f 43 63 65
f 43 65 49
f 44 64 48
f 45 51 46
f 48 64 52
f 49 65 50
f 50 66 51
f 50 65 67
f 50 67 66
f 55 68 69
f 55 69 56
f 56 69 70
f 56 70 71
f 56 71 57
f 57 71 58
f 58 72 59
f 58 71 73
f 58 73 74
f 58 74 72
f 59 72 74
f 59 74 75
f 60 76 77
f 60 77 61
f 61 77 78
f 61 78 63
f 63 78 79
f 63 79 80
f 63 80 65
f 65 81 67
f 65 80 82
f 65 82 81
f 68 83 69
f 69 83 84
f 69 84 85
f 69 85 86
f 69 86 70
f 70 87 90
f 70 90 71
f 70 86 88
f 70 88 89
f 70 89 87
f 71 90 108
f 71 108 91
f 71 91 92
f 71 92 74
f 71 74 73
f 74 92 93
f 74 93 94
f 74 94 95
f 74 95 75
f 76 96 77
f 77 96 97
f 77 97 78
f 78 97 79
f 79 97 98
f 79 98 99
f 79 99 80
f 80 99 100
f 80 100 102
f 80 102 82
f 81 82 101
f 82 102 101
f 85 88 86
f 87 89 103
f 87 103 107
f 87 107 90
f 89 104 105
f 89 105 106
f 89 106 103
f 90 107 108
f 91 108 93
f 91 93 92
f 93 108 109
f 93 109 110
f 93 110 111
f 93 111 94
f 98 112 99
f 99 112 113
f 99 113 114
f 99 114 115
f 99 115 100
f 100 115 116
f 100 116 117
f 100 117 102
f 101 102 118
f 102 119 120
f 102 120 121
f 102 121 118
f 102 117 119
f 103 106 122
f 103 122 107
f 104 123 124
f 104 124 105
f 105 124 106
f 106 124 125
f 106 125 126
f 106 126 122
f 107 122 127
f 107 127 128
f 107 128 108
f 108 128 109
f 109 129 110
f 109 128 130
f 109 130 131
f 109 131 132
f 109 132 146
f 109 146 129
f 113 133 134
f 113 134 114
f 114 134 115
f 115 134 135
f 115 135 136
f 115 136 116
f 116 136 137
f 116 137 138
f 116 138 117
f 117 138 139
f 117 139 140
f 117 140 119
f 119 141 120
f 119 140 141
f 120 141 142
f 120 142 121
f 122 126 131
f 122 131 127
f 123 125 124
f 125 143 126
f 126 143 144
f 126 144 145
f 126 145 131
f 127 131 130
f 127 130 128
f 131 147 148
f 131 148 149
f 131 149 150
f 131 150 151
f 131 151 152
f 131 152 132
f 131 145 147
f 132 152 153
f 132 153 146
f 133 154 134
f 134 154 155
f 134 155 156
f 134 156 135
f 135 156 136
f 136 156 137
f 137 139 138
f 137 156 157
f 137 157 158
f 137 158 159
f 137 159 160
f 137 160 161
f 137 161 139
f 139 161 140
f 143 162 144
f 144 162 147
f 144 147 145
f 147 162 163
f 147 163 164
f 147 164 149
f 147 149 148
f 149 151 150
f 149 164 165
f 149 165 151
f 151 165 166
f 151 166 152
f 152 167 153
f 152 166 168
f 152 168 167
f 154 169 155
f 155 169 170
f 155 170 156
f 156 170 171
f 156 171 158
f 156 158 157
f 158 171 172
f 158 172 173
f 158 173 174
f 158 174 159
f 159 174 160
f 160 174 175
f 160 175 176
f 163 177 164
f 164 177 178
f 164 178 179
f 164 179 165
f 165 179 180
f 165 180 181
f 165 181 182
f 165 182 183
f 165 183 184
f 165 184 185
f 165 185 186
f 165 186 166
f 166 186 168
f 168 186 187
f 169 188 172
f 169 172 171
f 169 171 170
f 172 188 189
f 172 189 190
f 172 190 191
f 172 191 192
f 172 192 193
f 172 193 173
f 173 194 175
f 173 175 174
f 173 193 194
f 175 194 195
f 175 195 196
f 175 196 197
f 175 197 198
f 175 198 176
f 176 198 197
f 178 199 200
f 178 200 179
f 179 200 180
f 180 200 201
f 180 201 181
f 181 202 183
f 181 183 182
f 181 201 203
f 181 203 204
f 181 204 202
f 183 202 205
f 183 205 206
f 183 206 184
f 184 206 185
f 185 207 208
f 185 208 186
f 185 206 209
f 185 209 207
f 186 208 210
f 186 210 187
f 188 211 189
f 189 211 190
f 190 212 191
f 191 212 213
f 191 213 214
f 191 214 192
f 192 214 215
f 192 215 193
f 193 215 216
f 193 216 194
f 194 217 195
f 194 216 218
f 194 218 219
f 194 219 217
f 195 217 220
f 195 220 221
f 195 221 196
f 199 222 200
f 200 222 223
f 200 223 201
f 201 223 224
f 201 224 225
f 201 225 203
f 202 204 226
f 202 226 227
f 202 227 205
f 203 228 229
f 203 229 227
f 203 227 226
f 203 226 204
f 203 225 230
f 203 230 231
f 203 231 232
f 203 232 228
f 205 227 229
f 205 229 228
f 205 228 233
f 205 233 206
f 206 233 234
f 206 234 209
f 209 234 235
f 213 236 237
f 213 237 214
f 214 237 215
f 215 237 238
f 215 238 216
f 216 238 218
f 217 219 218
f 217 218 220
f 218 239 240
f 218 240 241
f 218 241 220
f 218 238 242
f 218 242 243
f 218 243 239
f 220 241 244
f 224 245 225
f 225 245 246
f 225 246 247
f 225 247 230
f 228 232 248
f 228 248 234
f 228 234 233
f 230 249 250
f 230 250 251
f 230 251 231
f 230 247 249
f 231 251 232
f 232 251 252
f 232 252 253
f 232 253 248
f 234 248 254
f 234 254 255
f 234 255 256
f 234 256 257
f 234 257 235
f 236 258 259
f 236 259 260
f 236 260 237
f 236 261 262
f 236 262 258
f 237 260 259
f 237 259 242
f 237 242 238
f 239 243 263
f 239 263 264
f 239 264 265
f 240 244 241
f 242 259 262
f 242 262 266
f 242 266 267
f 242 267 243
f 243 267 263
f 245 268 246
f 246 268 249
f 246 249 247
f 248 253 254
f 249 268 269
f 249 269 270
f 249 270 250
f 250 270 271
f 250 271 252
f 250 252 251
f 252 272 253
f 252 271 273
f 252 273 274
f 252 274 272
f 253 272 254
f 254 272 275
f 254 275 255
f 255 275 276
f 255 276 277
f 258 262 259
f 261 278 279
f 261 279 280
f 261 280 262
f 262 280 281
f 262 281 282
f 262 282 283
f 262 283 266
f 263 267 266
f 263 266 284
f 263 284 285
f 263 285 264
f 264 285 265
f 266 283 284
f 269 286 270
f 270 286 287
f 270 287 288
f 270 288 271
f 271 288 289
f 271 289 274
f 271 274 273
f 272 274 275
f 274 289 290
f 274 290 291
f 274 291 275
f 275 291 276
f 276 292 293
f 276 293 277
f 276 291 294
f 276 294 295
f 276 295 296
f 276 296 292
f 278 297 279
f 279 297 298
f 279 298 299
f 279 299 281
f 279 281 280
f 281 299 282
f 282 299 300
f 282 300 301
f 282 301 302
f 282 302 303
f 282 303 283
f 283 303 284
f 284 303 304
f 284 304 305
f 284 305 306
f 284 306 307
f 284 307 308
f 284 308 285
f 287 309 310
f 287 310 288
f 288 310 289
f 289 310 311
f 289 311 312
f 289 312 313
f 289 313 290
f 290 313 314
f 290 314 294
f 290 294 291
f 294 314 315
f 294 315 295
f 295 316 296
f 295 315 317
f 295 317 316
f 298 318 300
f 298 300 299
f 300 319 320
f 300 320 301
f 300 318 321
f 300 321 319
f 301 320 322
f 301 322 323
f 301 323 324
f 301 324 302
f 302 325 303
f 302 324 326
f 302 326 325
f 303 325 327
f 303 327 328
f 303 328 329
f 303 329 305
f 303 305 304
f 305 329 330
f 305 330 306
f 306 330 331
f 306 331 307
f 309 332 310
f 310 332 311
f 311 332 333
f 311 333 334
f 311 334 335
f 311 335 312
f 312 335 336
f 312 336 337
f 312 337 313
f 313 337 314
f 314 337 315
f 315 338 339
f 315 339 340
f 315 340 341
f 315 341 342
f 315 342 317
f 315 337 338
f 316 317 343
f 317 342 367
f 317 367 343
f 319 344 320
f 320 344 345
f 320 345 346
f 320 346 322
f 322 346 347
f 322 347 323
f 323 347 348
f 323 348 349
f 323 349 350
f 323 350 351
f 323 351 324
f 324 351 326
f 325 326 352
f 325 352 353
f 325 353 327
f 326 351 354
f 326 354 355
f 326 355 352
f 327 353 328
f 328 356 330
f 328 330 329
f 330 356 331
f 333 357 334
f 334 357 358
f 334 358 340
f 334 340 336
f 334 336 335
f 336 340 338
f 336 338 337
f 338 340 339
f 340 359 360
f 340 360 361
f 340 361 362
f 340 362 363
f 340 363 364
f 340 364 341
f 340 358 359
f 341 365 342
f 341 364 366
f 341 366 365
f 342 365 367
f 345 368 346
f 346 368 347
f 347 369 370
f 347 370 348
f 347 368 369
f 348 370 371
f 348 371 349
f 349 371 372
f 349 372 373
f 349 373 374
f 349 374 375
f 349 375 376
f 349 376 350
f 350 377 351
f 350 376 377
f 351 377 378
f 351 378 379
f 351 379 380
f 351 380 354
f 352 355 353
f 357 381 382
f 357 382 383
f 357 383 359
f 357 359 358
f 359 383 384
f 359 384 361
f 359 361 360
f 361 385 362
f 361 384 386
f 361 386 387
f 361 387 388
f 361 388 385
f 362 385 363
f 363 389 364
f 363 385 390
f 363 390 391
f 363 391 389
f 364 389 366
f 369 392 370
f 370 392 371
f 371 392 393
f 371 393 394
f 371 394 372
f 372 394 395
f 372 395 396
f 372 396 373
f 373 396 397
f 373 397 398
f 373 398 374
f 374 398 399
f 374 399 375
f 375 378 376
f 375 399 378
f 376 378 377
f 381 400 401
f 381 401 382
f 382 384 383
f 382 401 384
f 384 401 386
f 385 388 390
f 386 401 402
f 386 402 403
f 386 403 404
f 386 404 387
f 387 405 406
f 387 406 388
f 387 404 407
f 387 407 405
f 388 406 390
f 390 406 391
f 391 406 408
f 393 409 410
f 393 410 394
f 394 410 395
f 395 410 411
f 395 411 412
f 395 412 413
f 395 413 414
f 395 414 415
f 395 415 396
f 396 415 416
f 396 416 397
f 397 416 417
f 400 418 401
f 401 418 403
f 401 403 402
f 403 419 420
f 403 420 421
f 403 421 422
f 403 422 404
f 403 418 419
f 404 422 423
f 404 423 424
f 404 424 407
f 405 407 425
f 405 425 426
f 405 426 427
f 405 427 408
f 405 408 406
f 407 424 428
f 407 428 429
f 407 429 425
f 408 427 426
f 409 411 410
f 412 430 413
f 413 430 431
f 413 431 432
f 413 432 414
f 414 432 433
f 414 433 415
f 415 433 434
f 415 434 435
f 415 435 436
f 415 436 416
f 416 436 437
f 416 437 417
f 418 420 419
f 420 438 439
f 420 439 421
f 421 439 440
f 421 440 423
f 421 423 422
f 423 440 441
f 423 441 442
f 423 442 443
f 423 443 424
f 424 443 428
f 425 444 426
f 425 429 445
f 425 445 444
f 428 443 465
f 428 465 446
f 428 446 429
f 429 446 445
f 431 447 448
f 431 448 432
f 432 448 449
f 432 449 433
f 433 449 450
f 433 450 434
f 434 450 435
f 435 451 452
f 435 452 436
f 435 450 453
f 435 453 454
f 435 454 455
f 435 455 451
f 436 452 437
f 438 456 441
f 438 441 439
f 439 441 440
f 441 457 442
f 441 456 458
f 441 458 459
f 441 459 457
f 442 457 460
f 442 460 461
f 442 461 462
f 442 462 463
f 442 463 443
f 443 464 465
f 443 463 464
f 447 466 448
f 448 467 449
f 448 466 468
f 448 468 469
f 448 469 470
f 448 470 467
f 449 467 453
f 449 453 450
f 451 455 452
f 452 455 471
f 453 467 472
f 453 472 473
f 453 473 474
f 453 474 471
f 453 471 454
f 454 471 455
f 457 459 475
f 457 475 460
f 458 476 459
f 459 477 478
f 459 478 479
f 459 479 480
f 459 480 481
f 459 481 482
f 459 482 483
f 459 483 484
f 459 484 485
f 459 485 486
f 459 486 460
f 459 460 475
f 459 476 477
f 460 486 487
f 460 487 488
f 460 488 489
f 460 489 490
f 460 490 461
f 466 491 468
f 467 470 492
f 467 492 472
f 468 491 469
f 469 493 494
f 469 494 470
f 469 491 493
f 470 494 495
f 470 495 496
f 470 496 497
f 470 497 492
f 471 474 498
f 472 492 473
f 473 492 499
f 473 499 500
f 473 500 474
f 474 500 522
f 474 522 498
f 480 501 502
f 480 502 481
f 481 502 482
f 482 502 503
f 482 503 504
f 482 504 505
f 482 505 483
f 483 505 487
f 483 487 484
f 484 487 485
f 485 487 486
f 487 505 504
f 487 504 506
f 487 506 507
f 487 507 488
f 488 508 489
f 488 507 509
f 488 509 508
f 492 497 510
f 492 510 511
f 492 511 499
f 493 512 494
f 494 512 495
f 495 512 513
f 495 513 514
f 495 514 515
f 495 515 516
f 495 516 496
f 496 516 497
f 497 516 517
f 497 517 518
f 497 518 519
f 497 519 520
f 497 520 521
f 497 521 510
f 499 511 500
f 500 511 523
f 500 523 522
f 501 524 502
f 502 524 525
f 502 525 503
f 503 525 526
f 503 526 504
f 504 526 506
f 506 526 528
f 506 528 507
f 507 527 509
f 507 528 527
f 510 529 511
f 510 521 530
f 510 530 529
f 511 529 523
f 514 531 532
f 514 532 515
f 515 532 533
f 515 533 516
f 516 533 517
f 517 533 534
f 517 534 535
f 517 535 536
f 517 536 537
f 517 537 538
f 517 538 518
f 518 538 519
f 519 538 539
f 519 539 520
f 520 539 521
f 521 540 541
f 521 541 530
f 521 539 540
f 524 542 543
f 524 543 525
f 525 543 544
f 525 544 545
f 525 545 526
f 526 545 547
f 526 547 528
f 527 528 546
f 528 547 546
f 531 548 532
f 532 548 549
f 532 549 550
f 532 550 533
f 533 550 534
f 534 550 551
f 534 551 535
f 535 551 552
f 535 552 553
f 535 553 554
f 535 554 555
f 535 555 556
f 535 556 537
f 535 537 536
f 537 539 538
f 542 557 543
f 543 557 558
f 543 558 559
f 543 559 544
f 544 559 558
f 544 558 560
f 544 560 561
f 544 561 562
f 544 562 545
f 545 562 547
f 546 547 563
f 546 563 564
f 547 562 565
f 547 565 566
f 547 566 564
f 547 564 563
f 548 567 549
f 549 567 568
f 549 568 569
f 549 569 570
f 549 570 550
f 550 570 551
f 551 570 571
f 551 571 572
f 551 572 573
f 551 573 552
f 552 573 553
f 557 574 558
f 558 574 575
f 558 575 576
f 558 576 560
f 560 576 561
f 561 577 565
f 561 565 562
f 561 576 578
f 561 578 579
f 561 579 580
f 561 580 577
f 565 577 581
f 565 581 566
f 566 581 582
f 568 583 584
f 568 584 569
f 569 584 585
f 569 585 570
f 570 585 586
f 570 586 571
f 571 586 587
f 571 587 588
f 571 588 572
f 572 588 573
f 573 588 589
f 575 590 591
f 575 591 576
f 576 591 592
f 576 592 578
f 577 580 581
f 578 592 593
f 578 593 579
f 580 594 581
f 581 594 582
f 583 595 584
f 584 596 597
f 584 597 598
f 584 598 585
f 584 595 596
f 585 598 599
f 585 599 600
f 585 600 601
f 585 601 586
f 586 601 587
f 587 601 602
f 587 602 603
f 587 603 588
f 588 603 604
f 588 604 589
f 590 605 606
f 590 606 607
f 590 607 591
f 591 607 606
f 591 606 608
f 591 608 592
f 592 608 609
f 592 609 593
f 593 609 610
f 597 611 612
f 597 612 598
f 598 612 599
f 599 601 600
f 599 612 613
f 599 613 601
f 601 613 602
f 602 613 614
f 602 614 603
f 603 614 615
f 603 615 616
f 603 616 617
f 603 617 604
f 605 618 619
f 605 619 606
f 606 619 620
f 606 620 608
f 608 620 621
f 608 621 622
f 608 622 623
f 608 623 610
f 608 610 609
f 611 624 612
f 612 624 625
f 612 625 626
f 612 626 613
f 613 626 627
f 613 627 614
f 614 627 644
f 614 644 628
f 614 628 629
f 614 629 630
f 614 630 615
f 615 630 616
f 618 631 619
f 619 631 632
f 619 632 633
f 619 633 634
f 619 634 635
f 619 635 636
f 619 636 637
f 619 637 620
f 620 637 621
f 621 637 638
f 621 638 639
f 621 639 640
f 621 640 622
f 622 640 623
f 624 641 625
f 625 641 642
f 625 642 643
f 625 643 627
f 625 627 626
f 627 643 644
f 628 644 645
f 628 645 629
f 629 645 646
f 629 646 647
f 629 647 648
f 629 648 630
f 634 649 635
f 635 649 650
f 635 650 651
f 635 651 652
f 635 652 638
f 635 638 637
f 635 637 636
f 638 653 639
f 638 652 654
f 638 654 655
f 638 655 656
f 638 656 653
f 641 657 642
f 642 657 658
f 642 658 644
f 642 644 643
f 644 658 659
f 644 659 645
f 645 659 660
f 645 660 661
f 645 661 662
f 645 662 646
f 646 662 647
f 650 663 651
f 651 663 664
f 651 664 665
f 651 665 666
f 651 666 652
f 652 667 654
f 652 666 668
f 652 668 669
f 652 669 655
f 652 655 667
f 653 656 670
f 654 667 655
f 655 669 671
f 655 671 672
f 655 672 656
f 656 672 673
f 656 673 674
f 656 674 670
f 657 675 658
f 658 675 659
f 659 676 660
f 659 675 676
f 660 676 697
f 660 697 677
f 660 677 678
f 660 678 679
f 660 679 680
f 660 680 681
f 660 681 661
f 661 681 662
f 664 682 665
f 665 682 683
f 665 683 684
f 665 684 685
f 665 685 686
f 665 686 666
f 666 686 668
f 668 686 687
f 668 687 669
f 669 687 671
f 671 687 673
f 671 673 672
f 673 688 689
f 673 689 690
f 673 690 691
f 673 691 692
f 673 692 693
f 673 693 674
f 673 687 694
f 673 694 688
f 675 695 676
f 676 695 696
f 676 696 697
f 677 697 698
f 677 698 678
f 678 698 699
f 678 699 700
f 678 700 701
f 678 701 702
f 678 702 703
f 678 703 679
f 684 704 705
f 684 705 685
f 685 705 706
f 685 706 707
f 685 707 686
f 686 707 687
f 687 707 694
f 688 694 708
f 688 708 709
f 688 709 689
f 689 709 690
f 690 709 710
f 690 710 691
f 694 707 708
f 695 711 696
f 696 711 712
f 696 712 730
f 696 730 713
f 696 713 697
f 697 713 714
f 697 714 715
f 697 715 698
f 698 715 699
f 699 716 700
f 699 715 716
f 700 717 701
f 700 716 718
f 700 718 719
f 700 719 720
f 700 720 721
f 700 721 717
f 704 722 705
f 705 722 723
f 705 723 724
f 705 724 706
f 706 708 707
f 706 724 725
f 706 725 708
f 708 725 709
f 709 725 726
f 709 726 727
f 709 727 728
f 709 728 710
f 711 729 712
f 712 729 730
f 713 730 714
f 714 731 716
f 714 716 715
f 714 730 732
f 714 732 731
f 716 731 733
f 716 733 718
f 718 733 719
f 719 734 735
f 719 735 720
f 719 733 734
f 720 735 736
f 723 737 738
f 723 738 724
f 724 738 725
f 725 738 739
f 725 739 726
f 726 739 740
f 726 740 727
f 727 740 741
f 727 741 742
f 727 742 743
f 727 743 728
f 729 732 730
f 731 732 744
f 731 744 745
f 731 745 746
f 731 746 733
f 733 746 747
f 733 747 734
f 734 747 735
f 735 748 736
f 735 747 749
f 735 749 761
f 735 761 750
f 735 750 748
f 737 751 752
f 737 752 738
f 738 752 740
f 738 740 739
f 740 752 753
f 740 753 754
f 740 754 755
f 740 755 756
f 740 756 741
f 741 756 757
f 741 757 758
f 741 758 742
f 745 759 746
f 746 760 747
f 746 759 760
f 747 760 761
f 747 761 749
f 748 750 762
f 750 761 763
f 750 763 764
f 750 764 762
f 751 765 752
f 752 765 766
f 752 766 753
f 753 767 754
f 754 767 768
f 754 768 769
f 754 769 755
f 755 769 756
f 756 769 770
f 756 770 757
f 757 770 771
f 757 771 758
f 759 772 760
f 760 772 773
f 760 773 774
f 760 774 775
f 760 775 761
f 761 776 763
f 761 775 774
f 761 774 773
f 761 773 776
f 763 777 764
f 763 776 793
f 763 793 778
f 763 778 779
f 763 779 780
f 763 780 777
f 767 781 782
f 767 782 768
f 768 782 783
f 768 783 784
f 768 784 785
f 768 785 770
f 768 770 769
f 770 785 786
f 770 786 787
f 770 787 771
f 772 788 773
f 773 788 789
f 773 789 790
f 773 790 791
f 773 791 776
f 776 792 793
f 776 791 790
f 776 790 792
f 778 793 794
f 778 794 795
f 778 795 779
f 781 783 782
f 783 796 797
f 783 797 784
f 784 786 785
f 784 797 798
f 784 798 799
f 784 799 800
f 784 800 801
f 784 801 802
f 784 802 786
f 792 803 793
f 793 803 804
f 793 804 805
f 793 805 806
f 793 806 794
f 796 807 797
f 797 807 798
f 798 807 808
f 798 808 799
f 799 808 809
f 799 809 800
f 800 810 802
f 800 802 801
f 800 809 811
f 800 811 810
f 803 812 804
f 804 812 805
f 805 813 814
f 805 814 806
f 805 812 813
f 806 814 815
f 807 816 809
f 807 809 808
f 809 817 811
f 809 816 817
f 811 817 818
f 812 819 820
f 812 820 813
f 813 820 821
f 813 821 822
f 813 822 815
f 813 815 814
f 815 822 823
f 817 824 825
f 817 825 818
f 819 826 827
f 819 827 820
f 820 827 828
f 820 828 821
f 821 828 829
f 821 829 822
f 822 829 823
f 824 830 831
f 824 831 825
f 826 832 833
f 826 833 834
f 826 834 827
f 827 834 835
f 827 835 836
f 827 836 828
f 828 836 829
f 830 837 831
f 831 837 838
f 832 839 840
f 832 840 841
f 832 841 842
f 832 842 843
f 832 843 833
f 833 843 834
f 834 843 842
f 834 842 844
f 834 844 835
f 837 845 846
f 837 846 838
f 839 847 848
f 839 848 849
f 839 849 840
f 840 849 841
f 845 850 846
f 845 851 850
f 847 852 853
f 847 853 848
f 850 851 855
f 850 855 854
f 852 856 857
f 852 857 853
f 854 858 859
f 854 855 860
f 854 860 858
f 856 861 862
f 856 862 857
f 858 863 859
f 858 864 863
f 859 863 865
f 861 866 867
f 861 867 862
f 863 868 869
f 863 869 870
f 863 870 871
f 863 871 872
f 863 872 873
f 863 873 874
f 863 874 875
f 863 875 865
f 863 864 876
f 863 876 880
f 863 880 891
f 863 891 902
f 863 902 911
f 863 911 920
f 863 920 922
f 863 922 915
f 863 915 906
f 863 906 895
f 863 895 884
f 863 884 879
f 863 879 868
f 866 877 867
f 867 877 878
f 877 881 878
f 877 882 881
f 878 881 883
f 879 884 885
f 880 886 887
f 880 887 888
f 880 888 889
f 880 889 890
f 880 890 891
f 881 882 883
f 882 892 893
f 882 893 883
f 883 893 894
f 884 895 885
f 885 895 896
f 886 897 898
f 886 898 887
f 890 899 891
f 891 899 900
f 891 900 901
f 891 901 902
f 892 903 893
f 893 904 905
f 893 905 894
f 893 903 904
f 895 906 896
f 896 906 907
f 897 908 909
f 897 909 898
f 901 910 902
f 902 910 911
f 903 912 904
f 904 913 914
f 904 912 913
f 906 915 916
f 906 916 907
f 908 917 909
f 909 917 918
f 910 919 911
f 911 919 920
f 912 918 921
f 912 921 914
f 912 914 913
f 915 922 923
f 915 923 916
f 917 924 918
f 918 924 925
f 918 925 921
f 919 926 920
f 920 926 927
f 920 927 928
f 920 928 922
f 922 928 923

