# https://github.com/mikedh/trimesh
v 0.07138975 -0.01628559 0.26302651
v 0.07138975 0.03188869 0.24998689
v 0.06951390 -0.01628559 0.26037782
v 0.07138975 -0.01628559 -0.39418429
v 0.06759468 0.03188869 0.24434996
v 0.01600883 -0.01628559 0.18370211
v 0.07138975 0.03188869 -0.39696881
v 0.05319510 -0.01628559 -0.40600148
v 0.05499505 -0.01276306 -0.41191006
v 0.06032983 -0.01070235 -0.41048384
v 0.07138975 0.01210215 -0.41815820
v 0.01600883 0.03188869 0.16706300
v 0.01600883 -0.01628559 -0.40104368
v 0.07138975 0.03109176 -0.40919346
v 0.06709048 0.03188869 -0.40715602
v 0.04499774 -0.01628559 -0.41129881
v 0.04499774 -0.01453611 -0.41231754
v 0.06221652 0.00910305 -0.42026356
v 0.06888501 0.01074878 -0.41944858
v 0.07138975 0.01704407 -0.42053521
v 0.01600883 0.03188869 -0.40525439
v 0.01600883 0.01478531 -0.40742767
v 0.01983643 0.03188869 -0.42820957
v 0.02014546 0.03188869 -0.42949995
v 0.02027015 0.03072866 -0.42936414
v 0.02693863 0.02835201 -0.43079033
v 0.03440950 -0.01583761 -0.40865013
v 0.03447998 -0.01628559 -0.40837848
v 0.07138975 0.03075223 -0.41211379
v 0.06441224 0.03188869 -0.41326833
v 0.04115388 -0.01628559 -0.41028008
v 0.03568356 -0.01628559 -0.40878597
v 0.03734254 -0.01306485 -0.41102716
v 0.03128128 0.02835201 -0.43079033
v 0.07138975 0.02257543 -0.42053521
v 0.01600883 0.02573958 -0.40865013
v 0.01600883 0.01521443 -0.40749559
v 0.02571337 0.03188869 -0.43058661
v 0.03128128 0.03188869 -0.43079033
v 0.07138975 0.02736174 -0.41666406
v 0.06180991 0.03035613 -0.42033148
v 0.05905577 0.03188869 -0.41815820
v 0.07138975 0.02372132 -0.41965231
f 1 2 3
f 1 3 6
f 1 6 13
f 1 13 28
f 1 28 32
f 1 32 31
f 1 31 16
f 1 16 8
f 1 8 4
f 1 4 11
f 1 11 20
f 1 20 35
f 1 35 43
f 1 43 40
f 1 40 29
f 1 29 14
f 1 14 7
f 1 7 2
f 2 5 6
f 2 6 3
f 2 7 15
f 2 15 30
f 2 30 42
f 2 42 39
f 2 39 38
f 2 38 24
f 2 24 23
f 2 23 21
f 2 21 12
f 2 12 5
f 4 8 9
f 4 9 10
f 4 10 11
f 5 12 6
f 6 12 21
f 6 21 36
f 6 36 37
f 6 37 22
f 6 22 13
f 7 14 15
f 8 16 9
f 9 16 17
f 9 17 18
f 9 18 19
f 9 19 10
f 10 19 11
f 11 19 20
f 13 22 23
f 13 23 24
f 13 24 25
f 13 25 26
f 13 26 27
f 13 27 28
f 14 29 30
f 14 30 15
f 16 31 17
f 17 31 32
f 17 32 33
f 17 33 26
f 17 26 34
f 17 34 18
f 18 34 19
f 19 34 20
f 20 34 39
f 20 39 35
f 21 23 36
f 22 37 23
f 23 37 36
f 24 38 26
f 24 26 25
f 26 38 39
f 26 39 34
f 26 33 32
f 26 32 27
f 27 32 28
f 29 40 41
f 29 41 42
f 29 42 30
f 35 39 41
f 35 41 43
f 39 42 41
f 40 43 41

