# https://github.com/mikedh/trimesh
v 0.03128128 0.03188869 -0.43079031
v 0.02571337 0.03188869 -0.43064702
v 0.03128128 0.03289230 -0.43079031
v 0.07138975 0.09255689 -0.41495383
v 0.05905577 0.03188869 -0.41817844
v 0.01955993 0.03739966 -0.43021709
v 0.01955993 0.04029767 -0.43021709
v 0.02014546 0.03188869 -0.42950046
v 0.02223274 0.04029767 -0.43021709
v 0.02890122 0.03955535 -0.42978710
v 0.07138975 0.03188869 -0.39696753
v 0.06709048 0.03188869 -0.40714306
v 0.06441224 0.03188869 -0.41330564
v 0.01600883 0.07234208 -0.42176139
v 0.01600883 0.09255096 -0.41008103
v 0.01600883 0.09255689 -0.40950775
v 0.07138975 0.09255689 0.30127281
v 0.01983643 0.03188869 -0.42821062
v 0.01888224 0.03444226 -0.42563093
v 0.01600883 0.05545285 -0.42147475
v 0.01600883 0.05621298 -0.42176139
v 0.01600883 0.06387965 -0.42348117
v 0.01600883 0.06494264 -0.42355281
v 0.07138975 0.03188869 0.24996532
v 0.01600883 0.09255689 0.27311105
v 0.01625280 0.09255689 0.27325433
v 0.07138975 0.09129198 0.30034125
v 0.01600883 0.03188869 -0.40520823
v 0.01600883 0.04779212 -0.41631532
v 0.07138975 0.08920161 0.29869312
v 0.01600883 0.08760414 0.26637512
v 0.01600883 0.08687964 0.26537192
v 0.01600883 0.08149338 0.25770444
v 0.01600883 0.07871414 0.25333327
v 0.01600883 0.07333381 0.24466260
v 0.01600883 0.07272214 0.24365939
v 0.01600883 0.06788222 0.23527534
v 0.01600883 0.04631936 0.19564818
v 0.06759468 0.03188869 0.24437596
v 0.01600883 0.03188869 0.16705646
v 0.01600883 0.04173480 0.18690585
v 0.01600883 0.03687113 0.17737527
v 0.01600883 0.03197183 0.16727144
f 1 2 3
f 1 3 4
f 1 4 5
f 1 5 13
f 1 13 12
f 1 12 11
f 1 11 24
f 1 24 39
f 1 39 40
f 1 40 28
f 1 28 18
f 1 18 8
f 1 8 2
f 2 6 7
f 2 7 3
f 2 8 6
f 3 7 9
f 3 9 10
f 3 10 4
f 4 11 12
f 4 12 13
f 4 13 5
f 4 10 9
f 4 9 14
f 4 14 15
f 4 15 16
f 4 16 25
f 4 25 26
f 4 26 17
f 4 17 27
f 4 27 30
f 4 30 24
f 4 24 11
f 6 8 18
f 6 18 19
f 6 19 20
f 6 20 21
f 6 21 22
f 6 22 23
f 6 23 7
f 7 23 14
f 7 14 9
f 14 23 22
f 14 22 21
f 14 21 20
f 14 20 29
f 14 29 28
f 14 28 40
f 14 40 43
f 14 43 42
f 14 42 41
f 14 41 38
f 14 38 37
f 14 37 36
f 14 36 35
f 14 35 34
f 14 34 33
f 14 33 32
f 14 32 31
f 14 31 25
f 14 25 16
f 14 16 15
f 17 26 27
f 18 28 19
f 19 29 20
f 19 28 29
f 24 30 26
f 24 26 25
f 24 25 31
f 24 31 32
f 24 32 33
f 24 33 34
f 24 34 35
f 24 35 36
f 24 36 37
f 24 37 38
f 24 38 39
f 26 30 27
f 38 41 39
f 39 41 42
f 39 42 43
f 39 43 40

