# https://github.com/mikedh/trimesh
v -0.08282760 -0.01628559 0.18614176
v -0.08282760 -0.01628559 0.26683536
v -0.08282760 0.03164274 0.18614176
v 0.00492998 -0.01628559 0.18614176
v -0.03347267 0.00591457 0.27589306
v -0.03377922 0.00670744 0.27589306
v -0.03618519 0.01499731 0.27589306
v -0.03272951 0.02238642 0.27589306
v -0.08282760 0.03164274 0.25233072
v -0.00692338 -0.00141824 0.27589306
v -0.01440140 -0.00222517 0.27589306
v -0.01500521 -0.00224863 0.27589306
v -0.02244608 -0.00083180 0.27589306
v -0.02289197 -0.00070044 0.27589306
v -0.02745310 0.00091813 0.27589306
v -0.04352387 0.03164274 0.18614176
v 0.01038289 -0.00056908 0.18614176
v 0.01014137 -0.00017968 0.19151840
v 0.00975121 0.00088060 0.19818649
v 0.00013661 -0.00014684 0.26094916
v -0.02575313 0.02521539 0.27589306
v -0.08184291 0.03164274 0.25081083
v -0.02500068 0.02547812 0.27589306
v -0.01589700 0.02580652 0.27589306
v -0.01500521 0.02576899 0.27589306
v -0.01500521 0.02581590 0.27499697
v -0.00070873 0.00142481 0.26761726
v -0.00176773 0.00464318 0.27589306
v -0.04420200 0.03164274 0.18736292
v -0.01500521 0.02610678 0.26499921
v -0.00500046 0.02558133 0.18614176
v 0.01184134 0.00409427 0.18614176
v 0.01205500 0.00494813 0.18614176
v 0.01012279 0.00943320 0.21137333
v 0.00404748 0.00500442 0.24499492
v 0.00246827 0.00500442 0.25499266
v 0.00090764 0.00485899 0.26456872
v 0.00042459 0.00808674 0.27255464
v -0.08144347 0.03164274 0.25018707
v -0.00728567 0.02293533 0.27589306
v -0.00500046 0.02403314 0.24499492
v -0.00500046 0.02455389 0.23499718
v -0.00500046 0.02490106 0.22500822
v -0.08062600 0.03164274 0.24890442
v -0.00151691 0.00485899 0.27553287
v -0.00160981 0.00486368 0.27589306
v -0.00500046 0.02512625 0.21500169
v 0.00384311 0.02282273 0.18614176
v 0.01141402 0.01495040 0.18614176
v 0.01106102 0.01270317 0.19500619
v 0.01012279 0.01038088 0.21137333
v -0.00135899 0.01488002 0.27589306
v 0.00042459 0.01145992 0.27255464
v -0.00658896 0.02267729 0.27589306
v 0.00145572 0.02137775 0.23499718
v 0.00527369 0.02234420 0.18614176
v 0.00946324 0.01919151 0.18614176
v 0.00040601 0.02043476 0.25267333
v -0.00014207 0.01971696 0.25934142
v 0.00368519 0.01499731 0.24499492
v -0.00068086 0.01838457 0.26499921
v 0.00103769 0.01338344 0.26499921
v 0.00090764 0.02093206 0.24499492
v 0.00175298 0.01582771 0.25559887
f 1 2 9
f 1 9 3
f 1 3 16
f 1 16 31
f 1 31 48
f 1 48 56
f 1 56 57
f 1 57 49
f 1 49 33
f 1 33 32
f 1 32 17
f 1 17 4
f 1 4 2
f 2 5 6
f 2 6 7
f 2 7 8
f 2 8 9
f 2 4 10
f 2 10 11
f 2 11 12
f 2 12 13
f 2 13 14
f 2 14 15
f 2 15 5
f 3 9 22
f 3 22 39
f 3 39 44
f 3 44 29
f 3 29 16
f 4 17 18
f 4 18 19
f 4 19 20
f 4 20 10
f 5 15 14
f 5 14 13
f 5 13 12
f 5 12 11
f 5 11 10
f 5 10 28
f 5 28 46
f 5 46 52
f 5 52 54
f 5 54 40
f 5 40 25
f 5 25 24
f 5 24 23
f 5 23 21
f 5 21 8
f 5 8 7
f 5 7 6
f 8 21 9
f 9 21 23
f 9 23 24
f 9 24 25
f 9 25 26
f 9 26 22
f 10 20 27
f 10 27 28
f 16 29 26
f 16 26 30
f 16 30 31
f 17 32 18
f 18 32 19
f 19 32 33
f 19 33 34
f 19 34 35
f 19 35 20
f 20 35 36
f 20 36 37
f 20 37 38
f 20 38 27
f 22 26 39
f 25 40 41
f 25 41 26
f 26 41 42
f 26 42 43
f 26 43 30
f 26 29 44
f 26 44 39
f 27 38 45
f 27 45 46
f 27 46 28
f 30 43 47
f 30 47 31
f 31 47 48
f 33 49 50
f 33 50 51
f 33 51 34
f 34 51 53
f 34 53 38
f 34 38 35
f 35 38 36
f 36 38 37
f 38 52 46
f 38 46 45
f 38 53 52
f 40 54 41
f 41 55 56
f 41 56 42
f 41 54 55
f 42 56 43
f 43 56 48
f 43 48 47
f 49 51 50
f 49 57 58
f 49 58 59
f 49 59 51
f 51 60 53
f 51 59 60
f 52 53 59
f 52 59 61
f 52 61 54
f 53 62 59
f 53 60 62
f 54 61 59
f 54 59 58
f 54 58 63
f 54 63 55
f 55 63 57
f 55 57 56
f 57 63 58
f 59 62 64
f 59 64 60
f 60 64 62

