# https://github.com/mikedh/trimesh
v -0.00135376 0.01487803 0.27589309
v -0.00160564 0.00485849 0.27589309
v -0.00658827 0.02267458 0.27589309
v -0.00782409 0.02193358 0.29500365
v -0.00850103 0.02143099 0.30501497
v -0.00939050 0.02063201 0.31500408
v -0.00999660 0.01001968 0.36012188
v -0.00999660 0.00991658 0.36012188
v -0.00177094 0.00463942 0.27589309
v -0.01193298 0.00498736 0.37502766
v -0.01741938 -0.00499351 0.41498405
v -0.01969423 -0.01038666 0.42183626
v -0.02911635 -0.02179153 0.47496313
v -0.02884872 -0.02215881 0.46497405
v -0.03265850 -0.02679808 0.47496313
v -0.00721798 0.02235240 0.28501454
v -0.00728882 0.02293231 0.27589309
v -0.03932561 0.03032293 0.37169054
v -0.04500880 0.02707544 0.47496313
v -0.03737349 0.02241039 0.47496313
v -0.03237513 0.01659842 0.47496313
v -0.02908486 0.01160476 0.47496313
v -0.01328687 0.00498736 0.38503900
v -0.02957289 0.01079934 0.48088095
v -0.02686511 0.00498736 0.47496313
v -0.01959977 0.00131461 0.43186986
v -0.00692674 -0.00141741 0.27589309
v -0.01959977 -0.00206819 0.43186986
v -0.02566078 -0.00499351 0.47496313
v -0.02699106 -0.01499372 0.47496313
v -0.02951779 -0.02095389 0.48279423
v -0.03263488 -0.02456865 0.48566413
v -0.03821574 -0.03125693 0.48497447
v -0.03766474 -0.03141157 0.47496313
v -0.03311504 -0.02715891 0.46497405
v -0.01501071 0.02576742 0.27589309
v -0.03901863 0.03043247 0.36501631
v -0.05302980 0.02965281 0.47496313
v -0.05884680 0.03012318 0.48032475
v -0.03838104 0.02149543 0.48170412
v -0.03519310 0.01438188 0.48461851
v -0.03157224 0.00498736 0.48802239
v -0.03010028 -0.00033491 0.48980218
v -0.02874639 0.00498736 0.48301670
v -0.02815603 -0.00418808 0.48588663
v -0.01440461 -0.00222928 0.27589309
v -0.03811341 -0.03097986 0.46497405
v -0.04500880 -0.03402116 0.47496313
v -0.02937610 -0.01290604 0.49075881
v -0.02860470 -0.01573471 0.48566413
v -0.03012389 -0.01956855 0.48944622
v -0.03908947 -0.03072213 0.49102578
v -0.04500880 -0.03400183 0.48497447
v -0.01590019 0.02579964 0.27589309
v -0.03934136 0.03025205 0.35774142
v -0.04263162 0.03043247 0.36501631
v -0.05802817 0.03014895 0.47496313
v -0.06036599 0.03012318 0.48032475
v -0.06293996 0.02112815 0.49069208
v -0.05498979 0.02105083 0.49069208
v -0.05530465 0.02663084 0.48419583
v -0.04573297 0.02284855 0.48501897
v -0.04955062 0.02026473 0.49022487
v -0.04289925 0.01796443 0.48835608
v -0.03867228 0.01130192 0.49113703
v -0.03657061 0.00498736 0.49282783
v -0.03498058 -0.00493552 0.49503031
v -0.02937610 -0.00699097 0.49075881
v -0.01501071 -0.00225505 0.27589309
v -0.05498979 -0.03451731 0.47496313
v -0.05498979 -0.03539361 0.48497447
v -0.03981364 -0.01499372 0.50012499
v -0.03990810 -0.02013557 0.50005823
v -0.03746008 -0.02407251 0.49460763
v -0.04500880 -0.02710092 0.49778900
v -0.04500880 -0.03177885 0.49280557
v -0.02499958 0.02547102 0.27589309
v -0.04082906 0.03025205 0.35774142
v -0.04762999 0.02895692 0.36501631
v -0.06022430 0.03006519 0.46951252
v -0.06045258 0.03014895 0.47496313
v -0.06545882 0.02821593 0.47496313
v -0.07250376 0.02208178 0.48317242
v -0.06960706 0.01986524 0.48982441
v -0.06575793 0.01591542 0.49347299
v -0.06498653 0.00755829 0.49883461
v -0.05498979 0.01499401 0.49480784
v -0.04573297 0.01477493 0.49240512
v -0.04532366 0.00475540 0.49783349
v -0.04220656 -0.00289295 0.49927956
v -0.03985300 -0.00955546 0.50008047
v -0.02244923 -0.00083750 0.27589309
v -0.06582090 -0.03217834 0.48477423
v -0.06489207 -0.03159199 0.47574180
v -0.02289790 -0.00070863 0.27589309
v -0.05498979 -0.03251984 0.49425167
v -0.06305015 -0.03170797 0.49296129
v -0.04500880 -0.01499372 0.50210500
v -0.04500880 -0.02210082 0.50103712
v -0.05498979 -0.02872466 0.49923509
v -0.02575524 0.02521329 0.27589309
v -0.03272147 0.02238462 0.27589309
v -0.05250242 0.02395682 0.36501631
v -0.07270055 0.02266169 0.46497405
v -0.07362938 0.02322227 0.47496313
v -0.08100492 0.01210735 0.48290545
v -0.07613250 0.01598630 0.48637605
v -0.07976910 0.00942688 0.48957968
v -0.07310199 0.01319629 0.49227163
v -0.07089798 0.00135971 0.50063670
v -0.06498653 0.00255819 0.50103712
v -0.05498979 0.00748741 0.49907935
v -0.04885793 0.00126950 0.50032520
v -0.04532366 -0.00572806 0.50105935
v -0.07015807 -0.03011000 0.48130363
v -0.07015807 -0.03011000 0.47959059
v -0.06971727 -0.02957520 0.48797786
v -0.02744760 0.00090867 0.27589309
v -0.06091699 -0.02231345 0.50048095
v -0.06531713 -0.02594110 0.49558651
v -0.05498979 -0.00499351 0.50261670
v -0.05498979 -0.01499372 0.50317287
v -0.05498979 -0.02372456 0.50132632
v -0.03619278 0.01499401 0.27589309
v -0.05055030 0.02079310 0.34744084
v -0.05143977 0.02214622 0.35502720
v -0.08100492 0.01210735 0.47734362
v -0.07873008 0.01525819 0.47438470
v -0.08176845 0.00565103 0.48573089
v -0.08069006 0.00276438 0.49095905
v -0.07075630 -0.00499351 0.50054765
v -0.06498653 -0.00499351 0.50190479
v -0.08069006 -0.00209397 0.49095905
v -0.05498979 0.00248731 0.50079238
v -0.08059561 -0.01175267 0.48194882
v -0.07255099 -0.02574136 0.48477423
v -0.08059561 -0.01175267 0.47838923
v -0.07271629 -0.02527099 0.47574180
v -0.03346926 0.00590877 0.27589309
v -0.07133879 -0.02291269 0.49153745
v -0.07814759 -0.01505171 0.48517472
v -0.06454573 -0.01411096 0.50097036
v -0.07010297 -0.01019336 0.50005823
v -0.08167399 0.00498736 0.47563055
v -0.03377624 0.00670131 0.27589309
v -0.08136701 -0.00499351 0.47643146
v -0.08151656 -0.00524481 0.48517472
v -0.07950148 -0.00874359 0.48862305
v -0.07257460 -0.01411096 0.49491906
v -0.07815546 -0.01505171 0.47502989
f 1 2 9
f 1 9 27
f 1 27 46
f 1 46 69
f 1 69 92
f 1 92 95
f 1 95 118
f 1 118 139
f 1 139 145
f 1 145 124
f 1 124 102
f 1 102 101
f 1 101 77
f 1 77 54
f 1 54 36
f 1 36 17
f 1 17 3
f 1 3 4
f 1 4 5
f 1 5 6
f 1 6 7
f 1 7 8
f 1 8 2
f 2 8 10
f 2 10 11
f 2 11 12
f 2 12 13
f 2 13 14
f 2 14 15
f 2 15 9
f 3 16 4
f 3 17 18
f 3 18 19
f 3 19 16
f 4 16 19
f 4 19 5
f 5 19 20
f 5 20 6
f 6 20 21
f 6 21 22
f 6 22 7
f 7 23 10
f 7 10 8
f 7 22 24
f 7 24 25
f 7 25 26
f 7 26 23
f 9 15 27
f 10 23 26
f 10 26 28
f 10 28 11
f 11 28 29
f 11 29 30
f 11 30 31
f 11 31 12
f 12 31 13
f 13 15 14
f 13 31 15
f 15 31 32
f 15 32 33
f 15 33 34
f 15 34 35
f 15 35 27
f 17 36 18
f 18 36 37
f 18 37 38
f 18 38 19
f 19 38 39
f 19 39 40
f 19 40 20
f 20 40 21
f 21 40 24
f 21 24 22
f 24 40 41
f 24 41 42
f 24 42 43
f 24 43 44
f 24 44 25
f 25 29 26
f 25 44 45
f 25 45 29
f 26 29 28
f 27 35 34
f 27 34 47
f 27 47 48
f 27 48 46
f 29 45 49
f 29 49 50
f 29 50 30
f 30 50 31
f 31 50 51
f 31 51 32
f 32 51 52
f 32 52 33
f 33 52 53
f 33 53 34
f 34 48 47
f 34 53 48
f 36 54 55
f 36 55 37
f 37 55 78
f 37 78 56
f 37 56 81
f 37 81 57
f 37 57 38
f 38 57 39
f 39 58 59
f 39 59 60
f 39 60 61
f 39 61 62
f 39 62 40
f 39 57 81
f 39 81 58
f 40 62 63
f 40 63 64
f 40 64 65
f 40 65 41
f 41 65 42
f 42 65 43
f 43 45 44
f 43 65 66
f 43 66 67
f 43 67 68
f 43 68 45
f 45 68 49
f 46 48 70
f 46 70 69
f 48 53 71
f 48 71 70
f 49 51 50
f 49 68 72
f 49 72 73
f 49 73 51
f 51 73 74
f 51 74 52
f 52 74 73
f 52 73 75
f 52 75 76
f 52 76 53
f 53 76 71
f 54 77 78
f 54 78 55
f 56 78 79
f 56 79 80
f 56 80 81
f 58 81 82
f 58 82 83
f 58 83 84
f 58 84 59
f 59 84 85
f 59 85 86
f 59 86 87
f 59 87 60
f 60 87 63
f 60 63 61
f 61 63 62
f 63 87 88
f 63 88 64
f 64 88 65
f 65 88 89
f 65 89 66
f 66 89 90
f 66 90 91
f 66 91 67
f 67 91 68
f 68 91 72
f 69 70 92
f 70 71 93
f 70 93 94
f 70 94 95
f 70 95 92
f 71 76 96
f 71 96 97
f 71 97 93
f 72 91 98
f 72 98 73
f 73 98 99
f 73 99 75
f 75 99 100
f 75 100 76
f 76 100 96
f 77 101 79
f 77 79 78
f 79 101 102
f 79 102 103
f 79 103 104
f 79 104 105
f 79 105 82
f 79 82 80
f 80 82 81
f 82 105 83
f 83 105 106
f 83 106 107
f 83 107 84
f 84 108 109
f 84 109 110
f 84 110 86
f 84 86 85
f 84 107 108
f 86 110 111
f 86 111 112
f 86 112 87
f 87 112 88
f 88 112 89
f 89 112 113
f 89 113 90
f 90 113 114
f 90 114 91
f 91 114 98
f 93 115 116
f 93 116 94
f 93 97 117
f 93 117 115
f 94 116 118
f 94 118 95
f 96 100 97
f 97 100 119
f 97 119 120
f 97 120 117
f 98 121 122
f 98 122 99
f 98 114 121
f 99 122 123
f 99 123 100
f 100 123 119
f 102 124 125
f 102 125 126
f 102 126 103
f 103 126 127
f 103 127 128
f 103 128 104
f 104 128 105
f 105 128 127
f 105 127 106
f 106 127 129
f 106 129 108
f 106 108 107
f 108 129 130
f 108 130 110
f 108 110 109
f 110 131 132
f 110 132 111
f 110 130 133
f 110 133 131
f 111 134 112
f 111 132 121
f 111 121 134
f 112 134 113
f 113 134 121
f 113 121 114
f 115 135 137
f 115 137 116
f 115 117 136
f 115 136 135
f 116 137 138
f 116 138 139
f 116 139 118
f 117 120 140
f 117 140 141
f 117 141 136
f 119 123 122
f 119 122 142
f 119 142 143
f 119 143 120
f 120 143 140
f 121 132 122
f 122 132 131
f 122 131 142
f 124 144 127
f 124 127 125
f 124 145 137
f 124 137 146
f 124 146 144
f 125 127 126
f 127 144 129
f 129 133 130
f 129 144 147
f 129 147 133
f 131 143 142
f 131 133 143
f 133 147 148
f 133 148 140
f 133 140 149
f 133 149 143
f 135 136 141
f 135 141 148
f 135 148 147
f 135 147 137
f 137 145 139
f 137 139 150
f 137 150 138
f 137 147 146
f 138 150 139
f 140 148 141
f 140 143 149
f 144 146 147

