# https://github.com/mikedh/trimesh
v 0.07138975 -0.07090931 0.31960750
v 0.07138975 -0.06665320 0.31627268
v 0.01600883 -0.07090931 0.30126601
v 0.07138975 -0.07090931 -0.40685195
v 0.07138975 -0.05661176 0.30778408
v 0.07138975 -0.05066603 0.30232710
v 0.07138975 -0.04414818 0.29580903
v 0.07138975 -0.04128225 0.29292899
v 0.07138975 -0.03425111 0.28527409
v 0.07138975 -0.02978111 0.28012025
v 0.07138975 -0.02851390 0.27860445
v 0.07138975 -0.02642862 0.27602750
v 0.07138975 -0.01795916 0.26541674
v 0.01600883 -0.07001103 0.29997760
v 0.01600883 -0.07090931 -0.45467627
v 0.06519294 -0.07090931 -0.43929064
v 0.07138975 -0.07087189 -0.43974537
v 0.07138975 -0.01628559 0.26299143
v 0.01600883 -0.06713976 0.29558170
v 0.01600883 -0.06845510 -0.45240253
v 0.04499774 -0.01628559 -0.41132367
v 0.07138975 -0.01628559 -0.39419484
v 0.06951390 -0.01628559 0.26041454
v 0.01600883 -0.03724536 0.23517601
v 0.01600883 -0.04153356 0.24480151
v 0.01600883 -0.04562392 0.25397223
v 0.01600883 -0.04604097 0.25488174
v 0.01600883 -0.04868768 0.26064187
v 0.01600883 -0.05134508 0.26617467
v 0.01600883 -0.05524296 0.27405697
v 0.01600883 -0.05566001 0.27489066
v 0.01600883 -0.05863823 0.28072661
v 0.01600883 -0.06146672 0.28610778
v 0.01600883 -0.06681360 0.29505116
v 0.01600883 -0.06291573 -0.44702137
v 0.03447998 -0.01628559 -0.40836781
v 0.03568356 -0.01628559 -0.40874672
v 0.04115388 -0.01628559 -0.41033834
v 0.01600883 -0.02474435 0.20508687
v 0.01600883 -0.02847648 0.21433343
v 0.01600883 -0.03272725 0.22464104
v 0.01600883 -0.01628559 0.18371375
v 0.01600883 -0.01690583 0.18538116
v 0.01600883 -0.01628559 -0.40101606
f 1 2 3
f 1 3 15
f 1 15 16
f 1 16 4
f 1 4 17
f 1 17 22
f 1 22 18
f 1 18 13
f 1 13 12
f 1 12 11
f 1 11 10
f 1 10 9
f 1 9 8
f 1 8 7
f 1 7 6
f 1 6 5
f 1 5 2
f 2 5 3
f 3 5 6
f 3 6 7
f 3 7 8
f 3 8 9
f 3 9 10
f 3 10 11
f 3 11 12
f 3 12 13
f 3 13 14
f 3 14 19
f 3 19 34
f 3 34 33
f 3 33 32
f 3 32 31
f 3 31 30
f 3 30 29
f 3 29 28
f 3 28 27
f 3 27 26
f 3 26 25
f 3 25 24
f 3 24 41
f 3 41 40
f 3 40 39
f 3 39 43
f 3 43 42
f 3 42 44
f 3 44 35
f 3 35 20
f 3 20 15
f 4 16 17
f 13 18 14
f 14 18 19
f 15 20 21
f 15 21 17
f 15 17 16
f 17 21 22
f 18 23 24
f 18 24 25
f 18 25 26
f 18 26 27
f 18 27 28
f 18 28 29
f 18 29 30
f 18 30 31
f 18 31 32
f 18 32 33
f 18 33 34
f 18 34 19
f 18 22 21
f 18 21 38
f 18 38 37
f 18 37 36
f 18 36 44
f 18 44 42
f 18 42 23
f 20 35 36
f 20 36 37
f 20 37 38
f 20 38 21
f 23 39 40
f 23 40 41
f 23 41 24
f 23 42 43
f 23 43 39
f 35 44 36

