# https://github.com/mikedh/trimesh
v 0.01600340 -0.07090931 0.30126917
v 0.01600340 -0.07026769 0.30033076
v -0.08283688 -0.01628559 0.26678330
v -0.08283688 -0.06772257 0.30142558
v -0.08283688 -0.07090931 0.30353695
v 0.01600340 -0.07090931 -0.45460534
v 0.01600340 -0.07001103 0.29993981
v 0.01600340 -0.06713976 0.29556060
v 0.01600340 -0.06174476 0.28656769
v 0.01600340 -0.06146672 0.28609848
v 0.01600340 -0.05863823 0.28070277
v 0.01600340 -0.05566001 0.27491599
v 0.01600340 -0.05134508 0.26623589
v 0.01600340 -0.04868768 0.26068372
v 0.01600340 -0.04604097 0.25489700
v 0.01600340 -0.04153356 0.24480928
v 0.01600340 -0.03677483 0.23409598
v 0.01600340 -0.03272725 0.22463386
v 0.01600340 -0.03245990 0.22400825
v 0.01600340 -0.03038531 0.21900351
v 0.01600340 -0.02847648 0.21431156
v 0.01600340 -0.02474435 0.20508401
v 0.01600340 -0.01690583 0.18537779
v 0.01600340 -0.01628559 0.18373562
v -0.08283688 -0.01628559 -0.48252249
v -0.08283688 -0.07090931 -0.49534720
v -0.01139633 -0.07090931 -0.46946323
v -0.07774781 -0.01628559 -0.48025471
v -0.07357787 -0.01628559 -0.47759593
v -0.07274581 -0.01628559 -0.47704852
v -0.06667955 -0.01628559 -0.47266936
v -0.06547017 -0.01628559 -0.47173101
v -0.06095193 -0.01628559 -0.46821201
v 0.01600340 -0.06845510 -0.45241576
v 0.01600340 -0.01628559 -0.40103883
v -0.08102766 -0.01628559 -0.48174047
v -0.03086253 -0.07090931 -0.47947270
v -0.03104635 -0.07090931 -0.47955090
v -0.03629991 -0.07090931 -0.48174047
v -0.03842841 -0.07090931 -0.48260069
v -0.05083183 -0.07090931 -0.48721445
v -0.05782689 -0.07090931 -0.48963863
v -0.06140666 -0.07090931 -0.49081159
v -0.06499609 -0.07090931 -0.49182820
v -0.06850814 -0.07090931 -0.49268842
v -0.07472920 -0.07090931 -0.49401778
v -0.07843474 -0.01628559 -0.48056751
v -0.05499210 -0.01628559 -0.46305084
v 0.01600340 -0.06371242 -0.44780201
v 0.01600340 -0.06291573 -0.44701999
v 0.01554868 -0.01628559 -0.40158617
v 0.01541323 -0.01628559 -0.40174258
f 1 2 3
f 1 3 4
f 1 4 5
f 1 5 26
f 1 26 46
f 1 46 45
f 1 45 44
f 1 44 43
f 1 43 42
f 1 42 41
f 1 41 40
f 1 40 39
f 1 39 38
f 1 38 37
f 1 37 27
f 1 27 6
f 1 6 34
f 1 34 49
f 1 49 50
f 1 50 35
f 1 35 24
f 1 24 23
f 1 23 22
f 1 22 21
f 1 21 20
f 1 20 19
f 1 19 18
f 1 18 17
f 1 17 16
f 1 16 15
f 1 15 14
f 1 14 13
f 1 13 12
f 1 12 11
f 1 11 10
f 1 10 9
f 1 9 8
f 1 8 7
f 1 7 2
f 2 7 3
f 3 7 8
f 3 8 9
f 3 9 10
f 3 10 11
f 3 11 12
f 3 12 13
f 3 13 14
f 3 14 15
f 3 15 16
f 3 16 17
f 3 17 18
f 3 18 19
f 3 19 20
f 3 20 21
f 3 21 22
f 3 22 23
f 3 23 24
f 3 24 35
f 3 35 51
f 3 51 52
f 3 52 48
f 3 48 33
f 3 33 32
f 3 32 31
f 3 31 30
f 3 30 29
f 3 29 28
f 3 28 47
f 3 47 36
f 3 36 25
f 3 25 26
f 3 26 5
f 3 5 4
f 6 27 28
f 6 28 29
f 6 29 30
f 6 30 31
f 6 31 32
f 6 32 33
f 6 33 34
f 25 36 37
f 25 37 38
f 25 38 39
f 25 39 40
f 25 40 41
f 25 41 42
f 25 42 43
f 25 43 44
f 25 44 45
f 25 45 46
f 25 46 26
f 27 37 28
f 28 37 47
f 33 48 49
f 33 49 34
f 35 50 51
f 36 47 37
f 48 52 50
f 48 50 49
f 50 52 51

