# https://github.com/mikedh/trimesh
v -0.01542295 0.03164274 -0.40937454
v -0.02462075 0.09259555 -0.44390056
v 0.01600002 0.05547981 -0.42146260
v 0.01600002 0.04782613 -0.41632715
v 0.01598036 0.03164274 -0.40526617
v -0.01542295 0.03164274 0.16682270
v -0.02462075 0.09384042 -0.44429559
v 0.01600002 0.05621751 -0.42169961
v -0.02462075 0.09259555 0.25744361
v 0.02560094 0.18503910 -0.45511952
v 0.02560094 0.17503400 -0.45188025
v 0.02560094 0.16940901 -0.44998407
v 0.02560094 0.15502377 -0.44374254
v 0.02560094 0.14838444 -0.44074029
v 0.02560094 0.14289775 -0.43797502
v 0.02560094 0.13505965 -0.43394569
v 0.02560094 0.12865084 -0.43031135
v 0.02560094 0.12399408 -0.42762512
v 0.02560094 0.11592545 -0.42241067
v 0.01600002 0.03173496 -0.40526617
v 0.01600002 0.03164274 -0.40479213
v -0.01499526 0.03164274 0.16682270
v 0.01600002 0.03689888 0.17733061
v 0.01600002 0.04132511 0.18602137
v 0.01600002 0.04635072 0.19558120
v 0.01600002 0.06788246 0.23524266
v 0.01600002 0.07309249 0.24424943
v 0.01499716 0.07844085 0.25246617
v 0.01499716 0.08162220 0.25744361
v -0.01542295 0.07917856 0.24093115
v -0.02462075 0.09513141 -0.44469061
v 0.02560094 0.19444484 -0.45780575
v 0.01600002 0.08724719 0.26589733
v 0.01221472 0.09061298 0.26913661
v 0.00947651 0.09983428 0.28011858
v -0.02462075 0.09729841 0.26329011
v 0.02560094 0.09259555 -0.40613526
v 0.01600002 0.03164274 0.16634865
v 0.01600002 0.03201160 0.16729674
v 0.02560094 0.09259555 0.27648425
v 0.01600002 0.07839474 0.25270319
v 0.01600002 0.08152999 0.25760162
v -0.02462075 0.12496233 -0.45282832
v 0.02560094 0.19504422 -0.45796376
v 0.01625074 0.09259555 0.27324498
v -0.02462075 0.10638140 0.27371901
v -0.02462075 0.10140190 0.26834655
v 0.01499716 0.09905046 0.28106666
v 0.02560094 0.10223182 0.28809828
v 0.02560094 0.10693468 0.29331273
v 0.01499716 0.10864061 0.29149556
v 0.00907340 0.10965496 0.29038948
v 0.02560094 0.09766726 0.28288382
v -0.02462075 0.13459858 -0.45472449
v -0.02462075 0.15207295 -0.45812178
v 0.02560094 0.20283622 -0.45946491
v -0.02462075 0.11122258 0.27877545
v 0.02560094 0.11177586 0.29836917
v 0.01499716 0.11380455 0.29639399
v 0.00964857 0.11989060 0.30002832
v -0.02462075 0.12150434 0.28873032
v -0.02462075 0.11652483 0.28398991
v -0.02462075 0.18453194 -0.46420532
v -0.02462075 0.18499300 -0.46428433
v 0.02560094 0.20334339 -0.45954391
v 0.02560094 0.11675537 0.30263555
v 0.01499716 0.11883016 0.30097640
v 0.02499628 0.12805146 0.31156331
v 0.01861533 0.12943466 0.31045723
v 0.01194925 0.13100228 0.30927211
v -0.02462075 0.12676048 0.29268068
v -0.02462075 0.19504422 -0.46539041
v 0.02560094 0.21505445 -0.46096605
v 0.02560094 0.20832290 -0.46017596
v 0.02560094 0.12795925 0.31156331
v 0.02542888 0.13575125 0.31677777
v 0.01516922 0.13459858 0.31274843
v 0.00499805 0.13284653 0.30800802
v -0.02462075 0.13344592 0.29757911
v 0.00499805 0.13787214 0.31140530
v -0.02462075 0.20468049 -0.46586445
v 0.02560094 0.22446018 -0.46151909
v 0.02560094 0.13579735 0.31677777
v 0.02542888 0.14478812 0.32215023
v 0.02238097 0.14133014 0.31922698
v 0.01499716 0.14345104 0.31812090
v -0.02462075 0.13879427 0.30129242
v -0.00093063 0.13948588 0.31029922
v -0.02462075 0.21505445 -0.46633852
v 0.02560094 0.22505957 -0.46151909
v 0.02560094 0.14492644 0.32215023
v 0.02560094 0.15576148 0.32752270
v 0.01499716 0.15502377 0.32412541
v 0.01499716 0.14847665 0.32088614
v -0.02462075 0.15193464 0.30895609
v -0.02462075 0.14506477 0.30508476
v -0.02462075 0.22505957 -0.46562743
v 0.02560094 0.23506469 -0.46096605
v 0.02560094 0.16516721 0.33099902
v 0.02263169 0.16193974 0.32933986
v 0.00993370 0.14999816 0.31993803
v 0.01507090 0.16521332 0.32823378
v -0.02462075 0.16539773 0.31551367
v -0.02462075 0.16502889 0.31535566
v -0.02462075 0.15728299 0.31187934
v -0.02462075 0.23506469 -0.46420532
v 0.02560094 0.24686795 -0.45962292
v 0.02560094 0.17503400 0.33408028
v 0.02499628 0.17503400 0.33408028
v 0.01845310 0.16862519 0.33036697
v -0.02462075 0.17480347 0.31922698
v 0.00813445 0.17830756 0.33052498
v -0.02462075 0.24465483 -0.46262518
v 0.02560094 0.25502881 -0.45812178
v 0.02560094 0.17563339 0.33423829
v 0.02560094 0.18503910 0.33668751
v 0.01507090 0.17498788 0.33147305
v -0.02462075 0.18420920 0.32230824
v 0.02560094 0.18568461 0.33684552
v 0.01499716 0.18503910 0.33392227
v 0.00488007 0.18522353 0.33115703
v 0.00146837 0.18204218 0.32949787
v -0.02462075 0.18540797 0.32262427
v -0.02462075 0.24502368 -0.46254617
v 0.02560094 0.26503390 -0.45543554
v -0.02462075 0.25253904 -0.46080801
v 0.02560094 0.19545919 0.33866268
v 0.01499716 0.19504422 0.33589745
v -0.00106336 0.18868153 0.33020893
v -0.02462075 0.19536698 0.32499447
v 0.02560094 0.27499291 -0.45251229
v -0.02462075 0.25738025 -0.45922789
v 0.02560094 0.20504934 0.33992678
v 0.02288240 0.20504934 0.33929473
v 0.01499716 0.20504934 0.33731955
v 0.00499805 0.20504934 0.33471233
v -0.02462075 0.20500323 0.32689065
v 0.02560094 0.28089455 -0.45053712
v -0.02462075 0.26503390 -0.45669967
v 0.02560094 0.21505445 0.34047985
v 0.02153542 0.21505445 0.33961076
v 0.01499716 0.21505445 0.33803064
v -0.02462075 0.22501346 0.32902384
v -0.02462075 0.21556163 0.32839179
v -0.02462075 0.27499291 -0.45306534
v 0.00499805 0.28130952 -0.45053712
v 0.02560094 0.28596628 -0.44848296
v 0.02560094 0.22505957 0.34079587
v 0.02072920 0.22505957 0.33976877
v -0.02462075 0.23492636 0.32918185
v -0.02462075 0.28107899 -0.45053712
v -0.01499526 0.28121731 -0.45053712
v -0.00499615 0.28130952 -0.45053712
v 0.02560094 0.29495704 -0.44445360
v 0.02560094 0.23506469 0.34008479
v 0.02229248 0.23506469 0.33961076
v 0.01499716 0.23506469 0.33803064
v -0.02462075 0.23534131 0.32918185
v -0.02462075 0.29468042 -0.44390056
v 0.02560094 0.30182692 -0.44129333
v 0.02560094 0.24419376 0.33897871
v -0.01016776 0.26019272 0.32997191
v -0.02462075 0.25502881 0.32791775
v -0.02462075 0.24548475 0.32870781
v -0.02462075 0.30118144 -0.44058225
v -0.01499526 0.30141196 -0.44074029
v 0.02560094 0.30699083 -0.43876511
v 0.02560094 0.25498268 0.33716154
v -0.00499615 0.26212922 0.33052498
v -0.02462075 0.26544887 0.32625860
v 0.01499716 0.30703694 -0.43844908
v -0.02462075 0.30597651 -0.43781701
v -0.01499526 0.30639145 -0.43789601
v 0.02499628 0.30726749 -0.43860710
v 0.02560094 0.30726749 -0.43860710
v 0.02560094 0.26503390 0.33471233
v 0.01499716 0.26503390 0.33313221
v 0.00469326 0.26558718 0.33131504
v -0.02462075 0.27499291 0.32396740
v 0.02560094 0.31496727 -0.43410370
v -0.02462075 0.31409124 -0.43268156
v -0.01499526 0.31455231 -0.43291858
v 0.02560094 0.26563329 0.33455431
v 0.01499716 0.27826649 0.32949787
v 0.00469326 0.27480850 0.32886583
v -0.02462075 0.28522855 0.32104415
v 0.02499628 0.32073057 -0.43046936
v 0.02560094 0.32036173 -0.43070641
v -0.02462075 0.31888631 -0.42952129
v -0.01499526 0.31948569 -0.42967930
v -0.00666758 0.31980845 -0.42983732
v 0.01499716 0.32538733 -0.42707208
v 0.02560094 0.27573061 0.33163106
v 0.02440144 0.27582285 0.33147305
v 0.02067512 0.27974188 0.32981390
v -0.02462075 0.28933203 0.31970102
v 0.02560094 0.32538733 -0.42746711
v -0.02462075 0.32478794 -0.42541292
v -0.01499526 0.32497239 -0.42596599
v -0.00399820 0.32395804 -0.42723009
v 0.00499805 0.33253384 -0.42185763
v 0.02499628 0.33308712 -0.42225266
v 0.02560094 0.27789763 0.33099902
v 0.02560094 0.28052571 0.33012992
v 0.00853756 0.30044371 0.32009605
v 0.00187149 0.29929104 0.31970102
v -0.02462075 0.29371217 0.31812090
v 0.02560094 0.33262604 -0.42256868
v -0.02462075 0.33115065 -0.42090955
v -0.01499526 0.33165783 -0.42130458
v -0.00499615 0.33216500 -0.42162061
v 0.01499716 0.34410658 -0.41324589
v 0.02560094 0.33811274 -0.41846034
v 0.01499716 0.34913218 -0.40929553
v 0.02560094 0.33308712 -0.42225266
v 0.02560094 0.29495704 0.32428342
v 0.01499716 0.30127364 0.32057011
v -0.02462075 0.31173980 0.31077325
v -0.02462075 0.30496216 0.31369650
v -0.02462075 0.33617628 -0.41688019
v -0.01499526 0.34281561 -0.41229779
v -0.00499615 0.34332278 -0.41269282
v -0.00499615 0.33714449 -0.41767025
v 0.00499805 0.34373772 -0.41300887
v 0.02499628 0.34940884 -0.40953255
v 0.02560094 0.34442931 -0.41348290
v 0.00499805 0.34876335 -0.40897951
v 0.01499716 0.35480329 -0.40431809
v 0.02560094 0.30247241 0.32120216
v 0.00430490 0.31588939 0.31235337
v -0.00499615 0.31916296 0.30958813
v -0.02462075 0.31671932 0.30832404
v -0.02462075 0.34203178 -0.41206077
v -0.01499526 0.34779510 -0.40818945
v -0.00499615 0.34834838 -0.40858448
v 0.02560094 0.34940884 -0.40953255
v 0.02560094 0.34913218 -0.40976956
v 0.02560094 0.35581765 -0.40392306
v 0.00499805 0.35438833 -0.40400207
v 0.01499716 0.35978281 -0.39981470
v 0.02009995 0.35996723 -0.39997271
v 0.02560094 0.30745190 0.31875294
v 0.00717583 0.32054615 0.31029922
v -0.02462075 0.32497239 0.30421567
v -0.02462075 0.34728792 -0.40763637
v -0.02462075 0.35286683 -0.40273795
v -0.01499526 0.35342011 -0.40321201
v -0.00499615 0.35397339 -0.40360704
v 0.02560094 0.35830739 -0.40163186
v 0.00499805 0.35941395 -0.39941967
v 0.01321266 0.36978790 -0.38978082
v 0.02405732 0.36402461 -0.39610139
v 0.02560094 0.36176538 -0.39839259
v 0.02560094 0.32215989 0.31124729
v 0.02499628 0.31496727 0.31488159
v -0.02462075 0.33124286 0.30081838
v -0.02462075 0.35789242 -0.39791855
v -0.01499526 0.35844570 -0.39847159
v -0.00499615 0.35895288 -0.39894563
v -0.00499615 0.36895800 -0.38899076
v -0.00499615 0.37370697 -0.38393432
v 0.00499805 0.37914753 -0.37903589
v 0.01499716 0.37947029 -0.37943092
v 0.02560094 0.37974691 -0.37974694
v 0.02560094 0.37011066 -0.39001784
v 0.02560094 0.32713938 0.30816603
v 0.02499628 0.32709327 0.30816603
v 0.01499716 0.32630947 0.30769199
v 0.01499716 0.33414757 0.30279356
v -0.02462075 0.34401438 0.29252267
v -0.02462075 0.36273360 -0.39309913
v -0.02462075 0.36771312 -0.38812169
v -0.01499526 0.36845082 -0.38843772
v -0.01499526 0.37319979 -0.38346028
v -0.00499615 0.37873256 -0.37856185
v -0.00499615 0.38311270 -0.37358442
v -0.00499615 0.38809219 -0.36781693
v 0.00499805 0.38343543 -0.37405846
v 0.01499716 0.38873768 -0.36844897
v 0.02560094 0.38896823 -0.36876500
v 0.02560094 0.33576131 0.30263555
v 0.02540430 0.33576131 0.30263555
v 0.02233673 0.33968037 0.29971227
v -0.02462075 0.34899387 0.28920436
v -0.02462075 0.37269261 -0.38290724
v -0.01499526 0.37822539 -0.37800881
v -0.01499526 0.38265163 -0.37303138
v -0.01499526 0.38767725 -0.36734286
v 0.00499805 0.38841495 -0.36813295
v -0.01499526 0.39191905 -0.36228642
v 0.00499805 0.39256454 -0.36315551
v 0.01499716 0.39279506 -0.36347154
v 0.02560094 0.39302558 -0.36378756
v 0.02560094 0.33986479 0.29979128
v 0.02560094 0.34406048 0.29686803
v -0.00938120 0.34991601 0.28991544
v -0.02462075 0.35494161 0.28485900
v -0.02462075 0.37771824 -0.37745574
v -0.02462075 0.38219056 -0.37239930
v -0.02462075 0.38717008 -0.36671081
v -0.02462075 0.39127356 -0.36197039
v -0.02462075 0.39648360 -0.35549185
v -0.01499526 0.39689854 -0.35604489
v -0.00499615 0.39726740 -0.35643992
v 0.00499805 0.40141699 -0.35185751
v 0.01499716 0.40164751 -0.35217354
v 0.02560094 0.39772844 -0.35770404
v 0.02560094 0.35152972 0.29117954
v 0.01499716 0.35111478 0.29086351
v -0.00499615 0.36158097 0.28122467
v -0.02462075 0.36061272 0.28043461
v -0.02462075 0.40021822 -0.35067242
v -0.01499526 0.40542823 -0.34498394
v -0.00117151 0.41003889 -0.34008551
v 0.00499805 0.41022331 -0.34032252
v 0.01499716 0.41045386 -0.34063855
v 0.02560094 0.40644258 -0.34616902
v 0.02560094 0.35650924 0.28715017
v 0.00499805 0.36194980 0.28154069
v -0.01499526 0.36609939 0.27680027
v -0.02462075 0.36582276 0.27616823
v -0.02462075 0.40455222 -0.34498394
v -0.02462075 0.40897846 -0.33897939
v -0.01499526 0.40957785 -0.33929542
v -0.00783758 0.40980837 -0.33976948
v -0.01499526 0.41280529 -0.33439699
v -0.00499615 0.42133498 -0.32215095
v 0.00499805 0.42165774 -0.32262498
v 0.00499805 0.41372740 -0.33495006
v 0.01499716 0.42193437 -0.32294101
v 0.02560094 0.41852248 -0.32855049
v 0.02560094 0.41409627 -0.33534509
v 0.02499628 0.41049996 -0.34071755
v 0.02560094 0.41049996 -0.34071755
v 0.02560094 0.36259529 0.28209373
v 0.02499628 0.36259529 0.28209373
v 0.00499805 0.36692929 0.27735335
v -0.00499615 0.36656046 0.27703729
v -0.01499526 0.37195492 0.27174383
v -0.02462075 0.37172440 0.27126980
v -0.02462075 0.41239035 -0.33376494
v -0.02462075 0.42050508 -0.32120284
v -0.01499526 0.41783088 -0.32657531
v -0.01499526 0.42101225 -0.32151887
v -0.01499526 0.42502350 -0.31496131
v -0.00499615 0.42571512 -0.31496131
v 0.00499805 0.42636061 -0.31496131
v 0.01499716 0.42682165 -0.31496131
v 0.02560094 0.42755938 -0.31417122
v 0.02499628 0.42202657 -0.32309902
v 0.02560094 0.42184216 -0.32341504
v 0.02560094 0.36794364 0.27751136
v 0.02499628 0.36757481 0.27782738
v -0.00499615 0.37227768 0.27198085
v -0.00499615 0.37725717 0.26739848
v -0.01499526 0.38223666 0.26218402
v -0.02462075 0.37656558 0.26684541
v -0.02462075 0.42433190 -0.31496131
v -0.02462075 0.42866594 -0.30777168
v -0.00499615 0.42935753 -0.30887777
v 0.00499805 0.42963415 -0.30943084
v 0.01499716 0.42986470 -0.30982584
v 0.02560094 0.43244666 -0.30579650
v 0.02560094 0.37799487 0.26803052
v 0.01499716 0.37273872 0.27261293
v -0.02462075 0.38209835 0.26163095
v 0.02560094 0.38311270 0.26313210
v -0.00499615 0.38749281 0.25744361
v -0.01499526 0.38726228 0.25712758
v -0.02462075 0.43147844 -0.30295226
v -0.01499526 0.43189341 -0.30334729
v -0.00499615 0.43221614 -0.30390036
v 0.00499805 0.43751839 -0.29552561
v 0.01499716 0.43774891 -0.29592064
v 0.02560094 0.43756449 -0.29671073
v -0.02462075 0.38712397 0.25657451
v 0.02560094 0.38836884 0.25760162
v 0.01499716 0.38790777 0.25775963
v 0.00499805 0.38772336 0.25760162
v -0.00499615 0.39219567 0.25238717
v -0.01499526 0.39196515 0.25207114
v -0.02462075 0.39187294 0.25159708
v -0.02462075 0.43599686 -0.29497257
v -0.01499526 0.43659624 -0.29497257
v 0.00499805 0.44023865 -0.29054818
v 0.01499716 0.44046921 -0.29086420
v 0.02560094 0.44046921 -0.29149628
v 0.02560094 0.39307171 0.25254518
v 0.01499716 0.39754403 0.24733073
v -0.00499615 0.40169364 0.24195826
v -0.01499526 0.39699078 0.24661964
v -0.02462075 0.39685243 0.24614561
v -0.02462075 0.43922430 -0.28896803
v -0.01499526 0.43963927 -0.28936309
v 0.00499805 0.44323558 -0.28493869
v 0.01499716 0.44365054 -0.28493869
v 0.02560094 0.44798458 -0.27703801
v 0.02560094 0.39772844 0.24748874
v -0.01499526 0.40644258 0.23555869
v -0.02462075 0.40635037 0.23508465
v -0.02462075 0.40141699 0.24108917
v 0.01499716 0.40197027 0.24227428
v 0.02560094 0.40736473 0.23611173
v 0.01499716 0.40699586 0.23619074
v 0.01499716 0.41100714 0.23121330
v -0.02462075 0.44632471 -0.27490482
v -0.00499615 0.45019767 -0.27040142
v -0.00499615 0.44761571 -0.27537885
v 0.00499805 0.44793844 -0.27601093
v 0.01499716 0.44812286 -0.27632695
v 0.01499716 0.45065874 -0.27134949
v 0.02499628 0.45075095 -0.27150750
v 0.02560094 0.45075095 -0.27150750
v 0.02499628 0.40210858 0.24243230
v 0.02560094 0.40210858 0.24243230
v 0.00499805 0.41082269 0.23097628
v -0.01499526 0.41045386 0.23050225
v -0.02462075 0.41437292 0.22497177
v 0.02560094 0.41146821 0.23097628
v 0.02499628 0.41114545 0.23137131
v 0.02560094 0.41773868 0.22299659
v 0.00499805 0.41552556 0.22497177
v -0.01499526 0.41478789 0.22497177
v -0.02462075 0.44932163 -0.26890028
v -0.01018251 0.44996715 -0.27000639
v 0.00499805 0.45328683 -0.26494995
v 0.00499805 0.45047432 -0.27103347
v -0.00499615 0.45725197 -0.25499508
v 0.00036719 0.45992613 -0.24993864
v 0.01499716 0.45365566 -0.26494995
v 0.02560094 0.45817411 -0.25594318
v 0.02499628 0.45388621 -0.26494995
v 0.02560094 0.45388621 -0.26494995
v -0.01499526 0.41930631 0.21896723
v -0.02462075 0.41921410 0.21849319
v 0.02560094 0.41999790 0.21991533
v 0.00499805 0.41967517 0.21959931
v -0.02462075 0.45167309 -0.26376486
v 0.00421149 0.45822018 -0.25412601
v 0.00702344 0.46011057 -0.25025466
v -0.00499615 0.45974171 -0.24946460
v -0.02462075 0.45563823 -0.25499508
v -0.00499615 0.46610442 -0.23492733
v 0.00499805 0.46670380 -0.23492733
v 0.02499628 0.46043330 -0.25096571
v 0.02560094 0.46043330 -0.25096571
v -0.00499615 0.42811266 0.20719522
v -0.00499615 0.43157065 0.20229679
v -0.01499526 0.43129402 0.20198077
v -0.02462075 0.42276430 0.21343675
v 0.02560094 0.42885035 0.20782727
v 0.02560094 0.46292305 -0.24535623
v 0.02560094 0.46748763 -0.23492733
v -0.01499526 0.45932674 -0.24851651
v -0.02462075 0.45891181 -0.24756843
v -0.02462075 0.46416795 -0.23532236
v -0.00499615 0.46910134 -0.22773769
v 0.00499805 0.46942407 -0.22860678
v 0.02499628 0.46979296 -0.22955486
v 0.00499805 0.43175507 0.20261282
v 0.00476700 0.43738008 0.19400108
v -0.00499615 0.43636572 0.19494915
v -0.01499526 0.43585855 0.19494915
v -0.02462075 0.43101737 0.20150673
v 0.02560094 0.43240055 0.20261282
v 0.02560094 0.46979296 -0.22955486
v -0.02462075 0.46850196 -0.22457743
v -0.01499526 0.46868640 -0.22655261
v -0.00499615 0.47099173 -0.22276028
v 0.00499805 0.47131446 -0.22362934
v 0.02560094 0.47145277 -0.22505146
v 0.02560094 0.43728787 0.19526517
v 0.01499716 0.43691900 0.19526517
v 0.02560094 0.44056141 0.19020873
v 0.00128157 0.43991593 0.18989271
v -0.01499526 0.43950096 0.18926066
v -0.02462075 0.43544358 0.19463313
v -0.02462075 0.46905524 -0.22315530
v -0.02256587 0.47020790 -0.22062708
v -0.00499615 0.47375810 -0.21493858
v 0.00499805 0.47435749 -0.21493858
v 0.02560094 0.47477245 -0.21564965
v 0.02560094 0.44397330 0.18444124
v 0.01499716 0.44337392 0.18491527
v -0.00499615 0.44277453 0.18459925
v -0.01499526 0.44249788 0.18412520
v -0.02462075 0.44240567 0.18333514
v -0.02462075 0.43931654 0.18847057
v -0.02462075 0.47117615 -0.21730879
v -0.01499526 0.47288209 -0.21493858
v -0.00499615 0.47716999 -0.20498371
v 0.00499805 0.47767717 -0.20498371
v 0.02560094 0.47873759 -0.20379862
v 0.02560094 0.44830731 0.17685658
v 0.00499805 0.44803065 0.17630352
v -0.00499615 0.44780013 0.17582949
v -0.01499526 0.44747740 0.17527643
v -0.02462075 0.44803065 0.17298523
v -0.02462075 0.47527963 -0.20537876
v -0.01499526 0.47629398 -0.20498371
v -0.01499526 0.47896814 -0.19676700
v -0.00499615 0.47938311 -0.19803111
v 0.00499805 0.47965974 -0.19890019
v 0.02227774 0.47989029 -0.19976926
v 0.02560094 0.48108906 -0.19613495
v 0.02560094 0.45102757 0.17187914
v 0.02499628 0.45102757 0.17187914
v 0.00499805 0.45070484 0.17124708
v -0.00499615 0.45047432 0.17085205
v -0.02008822 0.44996715 0.16990396
v -0.02462075 0.45190361 0.16555859
v -0.02462075 0.47919866 -0.19321169
v -0.01499526 0.48053575 -0.19178957
v -0.00499615 0.48090461 -0.19305368
v 0.00499805 0.48118126 -0.19384375
v 0.00499805 0.48371711 -0.18499497
v 0.02499628 0.48422426 -0.18499497
v 0.02560094 0.48422426 -0.18499497
v 0.02560094 0.45490053 0.16445249
v 0.00499805 0.45407063 0.16484752
v -0.00499615 0.45360956 0.16484752
v -0.01499526 0.45296407 0.16484752
v -0.02462075 0.45725197 0.15457663
v -0.02462075 0.48099682 -0.18736517
v -0.02462075 0.48145789 -0.18578506
v -0.01499526 0.48247224 -0.18499497
v -0.00499615 0.48325604 -0.18499497
v -0.00499615 0.48588413 -0.17496110
v 0.00499805 0.48629907 -0.17496110
v 0.02560094 0.48671404 -0.17496110
v 0.02560094 0.45858908 0.15694684
v 0.02499628 0.45858908 0.15694684
v 0.00499805 0.45831242 0.15623577
v -0.00499615 0.45808190 0.15568273
v -0.01521648 0.45812798 0.15410259
v -0.01202600 0.46011057 0.15023124
v -0.02462075 0.45974171 0.14904615
v -0.02462075 0.48436260 -0.17496110
v -0.01499526 0.48519254 -0.17496110
v -0.01499526 0.48763615 -0.16492723
v -0.01499526 0.48943430 -0.15750058
v -0.00499615 0.48975706 -0.15892270
v 0.00499805 0.48869660 -0.16492723
v 0.00499805 0.48989537 -0.15979178
v 0.02560094 0.48878884 -0.16603333
v 0.02560094 0.46089441 0.15196940
v 0.00499805 0.46057165 0.15125833
v -0.00499615 0.46034110 0.15070529
v -0.00499615 0.46292305 0.14485878
v -0.02462075 0.46186262 0.14422673
v -0.02462075 0.48680624 -0.16532226
v -0.02462075 0.48901936 -0.15631548
v -0.02462075 0.49021813 -0.15102202
v -0.00499615 0.49081752 -0.15394527
v 0.00499805 0.49095583 -0.15473534
v 0.02499628 0.49007982 -0.16042383
v 0.02560094 0.49007982 -0.16042383
v 0.02560094 0.46402961 0.14485878
v 0.01499716 0.46370688 0.14485878
v 0.00499805 0.46338415 0.14485878
v -0.00499615 0.46702653 0.13490391
v -0.01499526 0.46642715 0.13490391
v -0.02462075 0.46578169 0.13490391
v -0.02462075 0.49141690 -0.14525451
v -0.01499526 0.49210849 -0.14493848
v -0.00499615 0.49266177 -0.14493848
v 0.00499805 0.49298453 -0.14493848
v 0.02499628 0.49326116 -0.14493848
v 0.02560094 0.49114025 -0.15528838
v 0.02560094 0.46426016 0.14430574
v 0.00499805 0.46748763 0.13490391
v 0.00499805 0.46970072 0.12913641
v -0.00499615 0.46942407 0.12858336
v -0.01499526 0.46914744 0.12787230
v -0.02462075 0.47080728 0.12210479
v -0.02462075 0.46896303 0.12692422
v -0.02462075 0.49330726 -0.13537866
v -0.00499615 0.49455214 -0.13498361
v 0.00499805 0.49482876 -0.13498361
v 0.02560094 0.49326116 -0.14493848
v 0.02560094 0.49510542 -0.13498361
v 0.02560094 0.46850196 0.13379782
v 0.01499716 0.46776426 0.13490391
v 0.02204669 0.46993124 0.12976846
v 0.00499805 0.47154498 0.12407997
v -0.00499615 0.47131446 0.12352692
v -0.00499615 0.47440359 0.11491518
v -0.02462075 0.47348148 0.11452013
v -0.02462075 0.49505931 -0.12534478
v -0.00499615 0.49621198 -0.12494974
v 0.00499805 0.49648863 -0.12494974
v 0.02560094 0.49667305 -0.12558180
v 0.02560094 0.46997738 0.12984747
v 0.02560094 0.47159111 0.12542309
v 0.01499716 0.47500297 0.11491518
v 0.00499805 0.47472632 0.11491518
v 0.00499805 0.47804600 0.10488130
v -0.00499615 0.47767717 0.10488130
v -0.02462075 0.47675502 0.10464427
v -0.02462075 0.49662691 -0.11531090
v -0.01499526 0.49722630 -0.11499487
v -0.00499615 0.49773347 -0.11499487
v 0.00499805 0.49801013 -0.11499487
v 0.02499628 0.49824065 -0.11499487
v 0.02560094 0.49824065 -0.11499487
v 0.02560094 0.47523350 0.11491518
v 0.01977550 0.47998250 0.09990387
v 0.00499805 0.47979805 0.09935081
v -0.00499615 0.47965974 0.09879777
v -0.02462075 0.47915256 0.09713861
v -0.02462075 0.49801013 -0.10496100
v -0.01499526 0.49851730 -0.10496100
v -0.00499615 0.49902445 -0.10496100
v 0.00189115 0.49994659 -0.09974654
v 0.02499628 0.49943942 -0.10567206
v 0.02560094 0.49943942 -0.10567206
v 0.02560094 0.48012078 0.09974585
v 0.02560094 0.48445481 0.08489256
v 0.00499805 0.48122734 0.09437338
v 0.00499805 0.48394763 0.08489256
v -0.00499615 0.48362488 0.08489256
v -0.01499526 0.48085850 0.09295125
v -0.02462075 0.48270276 0.08489256
v -0.02462075 0.49902445 -0.09492712
v -0.00499615 0.49980828 -0.09824541
v -0.00499615 0.50022322 -0.09326798
v -0.00499615 0.50086874 -0.08497225
v 0.00499805 0.50119150 -0.08497225
v 0.00513078 0.50031543 -0.09579620
v 0.02499628 0.50059211 -0.09492712
v 0.02499628 0.50003880 -0.10069463
v 0.02560094 0.50003880 -0.10069463
v 0.02560094 0.48731342 0.07438463
v 0.00499805 0.48657572 0.07485868
v -0.00499615 0.48620686 0.07485868
v -0.01499526 0.48574579 0.07485868
v -0.02462075 0.48528475 0.07485868
v -0.02462075 0.49976218 -0.08592033
v -0.01203583 0.50008494 -0.09121380
v -0.01522139 0.49957776 -0.09469010
v -0.02285100 0.50013101 -0.08228602
v -0.00499615 0.50146812 -0.07493838
v 0.02499628 0.50142199 -0.08497225
v 0.00499805 0.50179088 -0.07493838
v 0.02560094 0.50059211 -0.09492712
v 0.02560094 0.48929599 0.06624693
v 0.00484566 0.48906547 0.06403473
v -0.00499615 0.48846608 0.06490381
v -0.01499526 0.48805112 0.06490381
v -0.02462075 0.48763615 0.06458779
v -0.02462075 0.50026935 -0.07817766
v -0.02462075 0.50036156 -0.07667653
v -0.01499526 0.50096095 -0.07493838
v -0.00499615 0.50188309 -0.06498352
v 0.02560094 0.50142199 -0.08497225
v 0.02499628 0.50202137 -0.07493838
v 0.00499805 0.50215971 -0.06498352
v 0.02560094 0.50239027 -0.06553656
v 0.02560094 0.49040255 0.06111148
v 0.02499628 0.49031034 0.06150652
v 0.01499716 0.49017203 0.06071644
v 0.00807054 0.49003369 0.06016339
v 0.00140938 0.48989537 0.05961035
v -0.00499615 0.48975706 0.05889928
v -0.01499526 0.48952651 0.05763517
v -0.02462075 0.48929599 0.05621305
v -0.02462075 0.50082260 -0.06537855
v -0.01499526 0.50137591 -0.06498352
v -0.01499526 0.50156033 -0.05510765
v -0.00499615 0.50202137 -0.05510765
v 0.00499805 0.50234413 -0.05510765
v 0.02560094 0.50202137 -0.07493838
v 0.02560094 0.50266689 -0.05510765
v 0.02560094 0.49178576 0.05431689
v 0.00484566 0.49081752 0.05573902
v -0.00499615 0.49072528 0.05392186
v -0.01499526 0.49049479 0.05265775
v -0.02462075 0.49021813 0.05139364
v -0.02462075 0.50105315 -0.05550269
v -0.02462075 0.50091481 -0.04515278
v -0.00499615 0.50192916 -0.04515278
v -0.02462075 0.50105315 -0.05510765
v 0.00499805 0.50225192 -0.04515278
v 0.02499628 0.50257468 -0.04515278
v 0.02560094 0.50257468 -0.04515278
v 0.02560094 0.49358392 0.04428301
v 0.00499805 0.49275398 0.04491507
v -0.00499615 0.49233902 0.04491507
v -0.02462075 0.49141690 0.04491507
v -0.02462075 0.50059211 -0.03551394
v -0.00499615 0.50160646 -0.03511891
v 0.00499805 0.50192916 -0.03511891
v 0.02560094 0.50229800 -0.03511891
v 0.02560094 0.49510542 0.03488119
v 0.00499805 0.49441382 0.03488119
v -0.00499615 0.49399886 0.03488119
v -0.01499526 0.49353778 0.03488119
v -0.02462075 0.49312282 0.03448616
v -0.02462075 0.50017715 -0.02761326
v -0.01581623 0.50045377 -0.02421596
v -0.00499615 0.50105315 -0.02508504
v 0.00499805 0.50142199 -0.02508504
v 0.02560094 0.50179088 -0.02571709
v 0.02560094 0.49662691 0.02429427
v 0.02499628 0.49653471 0.02484732
v 0.00499805 0.49593532 0.02484732
v -0.00499615 0.49552035 0.02484732
v -0.02462075 0.49464434 0.02453129
v -0.02462075 0.49985439 -0.02239880
v -0.01581623 0.49976218 -0.01481414
v -0.00508463 0.50031543 -0.01481414
v 0.00499805 0.50073040 -0.01513017
v 0.02499628 0.50174475 -0.02508504
v 0.02499628 0.50109923 -0.01513017
v 0.02560094 0.50109923 -0.01513017
v 0.02560094 0.49796402 0.01489245
v 0.00499805 0.49736464 0.01489245
v -0.00499615 0.49694967 0.01489245
v -0.02462075 0.49598145 0.01489245
v -0.02462075 0.49930111 -0.01513017
v -0.00847666 0.49985439 -0.01125883
v -0.00181059 0.50003880 -0.00928366
v 0.00499805 0.50017715 -0.00833558
v 0.02560094 0.50036156 -0.00596537
v 0.02560094 0.49925500 0.00438453
v 0.00499805 0.49860951 0.00485858
v -0.00499615 0.49824065 0.00485858
v -0.02462075 0.49722630 0.00485858
v -0.02462075 0.49837899 -0.00549133
v -0.01499526 0.49888617 -0.00509629
v 0.02499628 0.49985439 -0.00114595
v 0.02560094 0.49985439 -0.00106694
f 1 2 3
f 1 3 4
f 1 4 5
f 1 5 21
f 1 21 38
f 1 38 22
f 1 22 6
f 1 6 9
f 1 9 2
f 2 7 8
f 2 8 3
f 2 9 36
f 2 36 47
f 2 47 46
f 2 46 57
f 2 57 62
f 2 62 61
f 2 61 71
f 2 71 79
f 2 79 87
f 2 87 96
f 2 96 95
f 2 95 105
f 2 105 104
f 2 104 103
f 2 103 111
f 2 111 118
f 2 118 123
f 2 123 130
f 2 130 137
f 2 137 144
f 2 144 143
f 2 143 150
f 2 150 158
f 2 158 164
f 2 164 163
f 2 163 170
f 2 170 179
f 2 179 186
f 2 186 196
f 2 196 207
f 2 207 219
f 2 219 218
f 2 218 232
f 2 232 244
f 2 244 256
f 2 256 270
f 2 270 284
f 2 284 297
f 2 297 311
f 2 311 321
f 2 321 340
f 2 340 357
f 2 357 366
f 2 366 376
f 2 376 382
f 2 382 392
f 2 392 401
f 2 401 400
f 2 400 418
f 2 418 435
f 2 435 450
f 2 450 464
f 2 464 477
f 2 477 488
f 2 488 487
f 2 487 498
f 2 498 511
f 2 511 523
f 2 523 537
f 2 537 550
f 2 550 563
f 2 563 576
f 2 576 575
f 2 575 588
f 2 588 599
f 2 599 610
f 2 610 623
f 2 623 637
f 2 637 650
f 2 650 666
f 2 666 678
f 2 678 689
f 2 689 698
f 2 698 708
f 2 708 719
f 2 719 728
f 2 728 729
f 2 729 720
f 2 720 709
f 2 709 699
f 2 699 690
f 2 690 680
f 2 680 682
f 2 682 679
f 2 679 667
f 2 667 652
f 2 652 651
f 2 651 638
f 2 638 624
f 2 624 611
f 2 611 600
f 2 600 589
f 2 589 577
f 2 577 564
f 2 564 553
f 2 553 552
f 2 552 551
f 2 551 538
f 2 538 525
f 2 525 524
f 2 524 512
f 2 512 499
f 2 499 489
f 2 489 478
f 2 478 467
f 2 467 456
f 2 456 455
f 2 455 442
f 2 442 438
f 2 438 424
f 2 424 406
f 2 406 393
f 2 393 383
f 2 383 370
f 2 370 359
f 2 359 358
f 2 358 342
f 2 342 341
f 2 341 323
f 2 323 322
f 2 322 312
f 2 312 302
f 2 302 301
f 2 301 300
f 2 300 299
f 2 299 298
f 2 298 285
f 2 285 272
f 2 272 271
f 2 271 257
f 2 257 246
f 2 246 245
f 2 245 233
f 2 233 220
f 2 220 209
f 2 209 198
f 2 198 189
f 2 189 181
f 2 181 172
f 2 172 165
f 2 165 159
f 2 159 151
f 2 151 145
f 2 145 139
f 2 139 132
f 2 132 126
f 2 126 124
f 2 124 113
f 2 113 106
f 2 106 97
f 2 97 89
f 2 89 81
f 2 81 72
f 2 72 64
f 2 64 63
f 2 63 55
f 2 55 54
f 2 54 43
f 2 43 31
f 2 31 7
f 3 8 10
f 3 10 11
f 3 11 12
f 3 12 13
f 3 13 14
f 3 14 15
f 3 15 16
f 3 16 17
f 3 17 18
f 3 18 19
f 3 19 4
f 4 19 20
f 4 20 5
f 5 20 21
f 6 22 23
f 6 23 24
f 6 24 25
f 6 25 26
f 6 26 27
f 6 27 28
f 6 28 29
f 6 29 30
f 6 30 9
f 7 31 8
f 8 31 32
f 8 32 10
f 9 30 29
f 9 29 33
f 9 33 34
f 9 34 35
f 9 35 36
f 10 32 44
f 10 44 56
f 10 56 65
f 10 65 74
f 10 74 73
f 10 73 82
f 10 82 90
f 10 90 98
f 10 98 107
f 10 107 114
f 10 114 125
f 10 125 131
f 10 131 138
f 10 138 147
f 10 147 154
f 10 154 160
f 10 160 167
f 10 167 175
f 10 175 180
f 10 180 188
f 10 188 197
f 10 197 208
f 10 208 215
f 10 215 213
f 10 213 226
f 10 226 237
f 10 237 236
f 10 236 238
f 10 238 249
f 10 249 253
f 10 253 265
f 10 265 264
f 10 264 280
f 10 280 293
f 10 293 307
f 10 307 317
f 10 317 334
f 10 334 332
f 10 332 331
f 10 331 351
f 10 351 349
f 10 349 363
f 10 363 375
f 10 375 387
f 10 387 397
f 10 397 413
f 10 413 433
f 10 433 431
f 10 431 446
f 10 446 452
f 10 452 453
f 10 453 466
f 10 466 471
f 10 471 482
f 10 482 493
f 10 493 505
f 10 505 518
f 10 518 530
f 10 530 545
f 10 545 557
f 10 557 569
f 10 569 580
f 10 580 581
f 10 581 592
f 10 592 605
f 10 605 616
f 10 616 632
f 10 632 645
f 10 645 655
f 10 655 672
f 10 672 658
f 10 658 673
f 10 673 685
f 10 685 693
f 10 693 703
f 10 703 715
f 10 715 724
f 10 724 732
f 10 732 725
f 10 725 716
f 10 716 704
f 10 704 694
f 10 694 686
f 10 686 674
f 10 674 659
f 10 659 646
f 10 646 633
f 10 633 618
f 10 618 617
f 10 617 606
f 10 606 594
f 10 594 593
f 10 593 582
f 10 582 570
f 10 570 558
f 10 558 546
f 10 546 531
f 10 531 519
f 10 519 506
f 10 506 494
f 10 494 483
f 10 483 474
f 10 474 472
f 10 472 465
f 10 465 451
f 10 451 436
f 10 436 421
f 10 421 419
f 10 419 403
f 10 403 415
f 10 415 398
f 10 398 388
f 10 388 377
f 10 377 367
f 10 367 364
f 10 364 352
f 10 352 335
f 10 335 318
f 10 318 308
f 10 308 295
f 10 295 294
f 10 294 281
f 10 281 266
f 10 266 254
f 10 254 242
f 10 242 229
f 10 229 216
f 10 216 204
f 10 204 203
f 10 203 193
f 10 193 183
f 10 183 176
f 10 176 168
f 10 168 161
f 10 161 155
f 10 155 148
f 10 148 140
f 10 140 133
f 10 133 127
f 10 127 119
f 10 119 116
f 10 116 115
f 10 115 108
f 10 108 99
f 10 99 92
f 10 92 91
f 10 91 83
f 10 83 75
f 10 75 66
f 10 66 58
f 10 58 50
f 10 50 49
f 10 49 53
f 10 53 40
f 10 40 37
f 10 37 19
f 10 19 18
f 10 18 17
f 10 17 16
f 10 16 15
f 10 15 14
f 10 14 13
f 10 13 12
f 10 12 11
f 19 37 20
f 20 37 21
f 21 37 40
f 21 40 38
f 22 39 23
f 22 38 39
f 23 39 40
f 23 40 24
f 24 40 25
f 25 40 26
f 26 40 27
f 27 40 41
f 27 41 28
f 28 41 29
f 29 42 40
f 29 40 33
f 29 41 42
f 31 43 32
f 32 43 44
f 33 40 45
f 33 45 34
f 34 45 35
f 35 46 47
f 35 47 36
f 35 45 48
f 35 48 49
f 35 49 50
f 35 50 51
f 35 51 52
f 35 52 46
f 38 40 39
f 40 53 48
f 40 48 45
f 40 42 41
f 43 54 44
f 44 54 55
f 44 55 56
f 46 52 57
f 48 53 49
f 50 58 51
f 51 58 52
f 52 58 59
f 52 59 60
f 52 60 61
f 52 61 62
f 52 62 57
f 55 63 56
f 56 63 64
f 56 64 65
f 58 66 67
f 58 67 60
f 58 60 59
f 60 67 68
f 60 68 69
f 60 69 70
f 60 70 61
f 61 70 71
f 64 72 73
f 64 73 74
f 64 74 65
f 66 75 68
f 66 68 67
f 68 75 76
f 68 76 69
f 69 76 77
f 69 77 70
f 70 78 79
f 70 79 71
f 70 77 80
f 70 80 78
f 72 81 82
f 72 82 73
f 75 83 76
f 76 83 84
f 76 84 85
f 76 85 77
f 77 85 86
f 77 86 80
f 78 87 79
f 78 80 87
f 80 86 88
f 80 88 87
f 81 89 82
f 82 89 90
f 83 91 84
f 84 91 92
f 84 92 93
f 84 93 94
f 84 94 86
f 84 86 85
f 86 94 95
f 86 95 88
f 87 88 96
f 88 95 96
f 89 97 98
f 89 98 90
f 92 99 100
f 92 100 93
f 93 101 94
f 93 100 102
f 93 102 103
f 93 103 104
f 93 104 105
f 93 105 101
f 94 101 105
f 94 105 95
f 97 106 107
f 97 107 98
f 99 108 109
f 99 109 100
f 100 109 110
f 100 110 102
f 102 111 103
f 102 110 112
f 102 112 111
f 106 113 107
f 107 113 114
f 108 115 109
f 109 115 116
f 109 116 112
f 109 112 117
f 109 117 110
f 110 117 112
f 111 112 118
f 112 116 119
f 112 119 120
f 112 120 121
f 112 121 122
f 112 122 123
f 112 123 118
f 113 124 114
f 114 124 126
f 114 126 125
f 119 127 128
f 119 128 120
f 120 129 121
f 120 128 129
f 121 129 130
f 121 130 122
f 122 130 123
f 125 126 131
f 126 132 131
f 127 133 134
f 127 134 135
f 127 135 128
f 128 135 136
f 128 136 137
f 128 137 129
f 129 137 130
f 131 132 139
f 131 139 138
f 133 140 141
f 133 141 134
f 134 142 143
f 134 143 144
f 134 144 135
f 134 141 142
f 135 144 136
f 136 144 137
f 138 139 145
f 138 145 146
f 138 146 147
f 140 148 149
f 140 149 141
f 141 149 143
f 141 143 142
f 143 149 150
f 145 151 152
f 145 152 153
f 145 153 146
f 146 153 147
f 147 153 154
f 148 155 156
f 148 156 149
f 149 156 157
f 149 157 158
f 149 158 150
f 151 159 160
f 151 160 152
f 152 160 154
f 152 154 153
f 155 161 156
f 156 161 162
f 156 162 163
f 156 163 164
f 156 164 157
f 157 164 158
f 159 165 166
f 159 166 167
f 159 167 160
f 161 168 162
f 162 168 169
f 162 169 170
f 162 170 163
f 165 171 166
f 165 172 173
f 165 173 171
f 166 171 174
f 166 174 167
f 167 174 175
f 168 176 177
f 168 177 169
f 169 177 178
f 169 178 179
f 169 179 170
f 171 173 180
f 171 180 174
f 172 181 182
f 172 182 180
f 172 180 173
f 174 180 175
f 176 183 177
f 177 184 185
f 177 185 178
f 177 183 184
f 178 185 179
f 179 185 186
f 180 182 187
f 180 187 188
f 181 189 190
f 181 190 182
f 182 190 191
f 182 191 192
f 182 192 187
f 183 193 194
f 183 194 184
f 184 194 195
f 184 195 196
f 184 196 186
f 184 186 185
f 187 192 197
f 187 197 188
f 189 198 199
f 189 199 190
f 190 199 200
f 190 200 191
f 191 200 192
f 192 200 201
f 192 201 202
f 192 202 197
f 193 203 194
f 194 203 195
f 195 203 204
f 195 204 205
f 195 205 206
f 195 206 207
f 195 207 196
f 197 202 208
f 198 209 210
f 198 210 199
f 199 210 211
f 199 211 200
f 200 211 201
f 201 212 213
f 201 213 202
f 201 211 214
f 201 214 212
f 202 215 208
f 202 213 215
f 204 216 217
f 204 217 205
f 205 217 218
f 205 218 206
f 206 218 219
f 206 219 207
f 209 220 210
f 210 220 221
f 210 221 222
f 210 222 223
f 210 223 211
f 211 223 224
f 211 224 214
f 212 214 213
f 213 214 225
f 213 225 226
f 214 227 228
f 214 228 225
f 214 224 227
f 216 229 217
f 217 229 230
f 217 230 218
f 218 230 231
f 218 231 232
f 220 233 221
f 221 233 234
f 221 234 235
f 221 235 222
f 222 235 227
f 222 227 223
f 223 227 224
f 225 236 237
f 225 237 226
f 225 228 238
f 225 238 236
f 227 235 248
f 227 248 239
f 227 239 228
f 228 239 240
f 228 240 241
f 228 241 238
f 229 242 230
f 230 242 243
f 230 243 231
f 231 244 232
f 231 243 244
f 233 245 234
f 234 245 246
f 234 246 247
f 234 247 248
f 234 248 235
f 238 241 249
f 239 248 250
f 239 250 240
f 240 250 251
f 240 251 241
f 241 251 252
f 241 252 253
f 241 253 249
f 242 254 255
f 242 255 243
f 243 255 254
f 243 254 256
f 243 256 244
f 246 257 258
f 246 258 247
f 247 258 259
f 247 259 248
f 248 259 250
f 250 259 260
f 250 260 251
f 251 260 261
f 251 261 262
f 251 262 263
f 251 263 264
f 251 264 265
f 251 265 252
f 252 265 253
f 254 266 267
f 254 267 268
f 254 268 256
f 256 268 267
f 256 267 269
f 256 269 270
f 257 271 258
f 258 271 272
f 258 272 273
f 258 273 260
f 258 260 259
f 260 273 274
f 260 274 261
f 261 274 275
f 261 275 262
f 262 275 276
f 262 276 277
f 262 277 278
f 262 278 263
f 263 278 279
f 263 279 264
f 264 279 280
f 266 281 282
f 266 282 267
f 267 282 269
f 269 282 283
f 269 283 284
f 269 284 270
f 272 285 273
f 273 285 274
f 274 285 298
f 274 298 286
f 274 286 275
f 275 286 287
f 275 287 288
f 275 288 276
f 276 288 277
f 277 289 278
f 277 288 290
f 277 290 291
f 277 291 289
f 278 289 279
f 279 289 291
f 279 291 292
f 279 292 293
f 279 293 280
f 281 294 282
f 282 294 283
f 283 294 295
f 283 295 296
f 283 296 284
f 284 296 297
f 286 298 287
f 287 298 299
f 287 299 288
f 288 299 300
f 288 300 301
f 288 301 290
f 290 301 302
f 290 302 303
f 290 303 304
f 290 304 291
f 291 304 305
f 291 305 306
f 291 306 292
f 292 306 293
f 293 306 307
f 295 308 309
f 295 309 296
f 296 309 297
f 297 309 310
f 297 310 311
f 302 312 303
f 303 312 313
f 303 313 304
f 304 313 305
f 305 313 314
f 305 314 315
f 305 315 316
f 305 316 306
f 306 316 307
f 307 316 317
f 308 318 319
f 308 319 309
f 309 319 310
f 310 319 320
f 310 320 311
f 311 320 321
f 312 322 313
f 313 322 323
f 313 323 324
f 313 324 325
f 313 325 314
f 314 325 326
f 314 326 327
f 314 327 328
f 314 328 329
f 314 329 315
f 315 329 316
f 316 329 330
f 316 330 331
f 316 331 332
f 316 332 333
f 316 333 317
f 317 333 334
f 318 335 336
f 318 336 319
f 319 336 337
f 319 337 320
f 320 337 338
f 320 338 339
f 320 339 340
f 320 340 321
f 323 341 326
f 323 326 324
f 324 326 325
f 326 341 342
f 326 342 343
f 326 343 327
f 327 344 345
f 327 345 346
f 327 346 347
f 327 347 328
f 327 343 344
f 328 347 330
f 328 330 329
f 330 347 348
f 330 348 349
f 330 349 350
f 330 350 351
f 330 351 331
f 332 334 333
f 335 352 353
f 335 353 336
f 336 353 337
f 337 353 354
f 337 354 339
f 337 339 338
f 339 354 355
f 339 355 356
f 339 356 357
f 339 357 340
f 342 358 344
f 342 344 343
f 344 358 345
f 345 358 359
f 345 359 346
f 346 359 360
f 346 360 347
f 347 360 361
f 347 361 362
f 347 362 348
f 348 362 349
f 349 351 350
f 349 362 363
f 352 364 365
f 352 365 353
f 353 365 354
f 354 365 355
f 355 365 356
f 356 366 357
f 356 365 367
f 356 367 368
f 356 368 369
f 356 369 376
f 356 376 366
f 359 370 360
f 360 370 371
f 360 371 372
f 360 372 361
f 361 372 373
f 361 373 374
f 361 374 362
f 362 374 363
f 363 374 375
f 364 367 365
f 367 377 378
f 367 378 379
f 367 379 368
f 368 379 380
f 368 380 381
f 368 381 369
f 369 381 382
f 369 382 376
f 370 383 371
f 371 383 372
f 372 383 384
f 372 384 373
f 373 384 385
f 373 385 374
f 374 385 386
f 374 386 387
f 374 387 375
f 377 388 378
f 378 388 389
f 378 389 379
f 379 389 380
f 380 389 390
f 380 390 391
f 380 391 381
f 381 391 382
f 382 391 392
f 383 393 394
f 383 394 384
f 384 394 385
f 385 394 395
f 385 395 396
f 385 396 386
f 386 396 387
f 387 396 397
f 388 398 389
f 389 398 390
f 390 399 400
f 390 400 401
f 390 401 391
f 390 398 402
f 390 402 403
f 390 403 404
f 390 404 405
f 390 405 399
f 391 401 392
f 393 406 407
f 393 407 408
f 393 408 409
f 393 409 394
f 394 409 395
f 395 409 396
f 396 409 410
f 396 410 397
f 397 410 411
f 397 411 412
f 397 412 413
f 398 414 402
f 398 415 414
f 399 405 416
f 399 416 417
f 399 417 418
f 399 418 400
f 402 414 403
f 403 419 420
f 403 420 405
f 403 405 404
f 403 414 415
f 405 420 421
f 405 421 422
f 405 422 423
f 405 423 416
f 406 424 425
f 406 425 407
f 407 426 427
f 407 427 409
f 407 409 408
f 407 425 428
f 407 428 429
f 407 429 426
f 409 427 411
f 409 411 410
f 411 427 430
f 411 430 431
f 411 431 432
f 411 432 412
f 412 432 433
f 412 433 413
f 416 423 417
f 417 423 418
f 418 423 434
f 418 434 435
f 419 421 420
f 421 436 437
f 421 437 422
f 422 437 423
f 423 437 434
f 424 438 425
f 425 438 428
f 426 430 427
f 426 429 439
f 426 439 440
f 426 440 430
f 428 441 429
f 428 438 442
f 428 442 441
f 429 440 439
f 429 441 443
f 429 443 444
f 429 444 440
f 430 440 431
f 431 433 432
f 431 440 445
f 431 445 446
f 434 437 447
f 434 447 435
f 435 447 448
f 435 448 449
f 435 449 450
f 436 451 437
f 437 451 447
f 440 452 445
f 440 444 453
f 440 453 452
f 441 454 443
f 441 442 454
f 442 455 454
f 443 454 455
f 443 455 456
f 443 456 457
f 443 457 458
f 443 458 444
f 444 458 459
f 444 459 453
f 445 452 446
f 447 460 448
f 447 451 460
f 448 460 461
f 448 461 462
f 448 462 449
f 449 462 463
f 449 463 464
f 449 464 450
f 451 465 460
f 453 459 466
f 456 467 468
f 456 468 457
f 457 468 469
f 457 469 470
f 457 470 458
f 458 470 459
f 459 470 471
f 459 471 466
f 460 465 472
f 460 472 473
f 460 473 461
f 461 473 474
f 461 474 475
f 461 475 462
f 462 475 476
f 462 476 463
f 463 477 464
f 463 476 477
f 467 478 468
f 468 478 479
f 468 479 469
f 469 479 480
f 469 480 470
f 470 480 481
f 470 481 482
f 470 482 471
f 472 474 473
f 474 483 484
f 474 484 475
f 475 484 485
f 475 485 476
f 476 485 486
f 476 486 487
f 476 487 488
f 476 488 477
f 478 489 479
f 479 489 490
f 479 490 480
f 480 490 500
f 480 500 491
f 480 491 481
f 481 491 492
f 481 492 493
f 481 493 482
f 483 494 495
f 483 495 484
f 484 495 485
f 485 495 496
f 485 496 486
f 486 496 487
f 487 496 497
f 487 497 498
f 489 499 490
f 490 499 500
f 491 500 501
f 491 501 502
f 491 502 503
f 491 503 492
f 492 503 493
f 493 503 504
f 493 504 505
f 494 506 507
f 494 507 495
f 495 507 508
f 495 508 509
f 495 509 496
f 496 509 497
f 497 509 510
f 497 510 498
f 498 510 511
f 499 512 501
f 499 501 500
f 501 512 513
f 501 513 502
f 502 513 514
f 502 514 503
f 503 514 515
f 503 515 505
f 503 505 504
f 505 515 516
f 505 516 517
f 505 517 518
f 506 519 507
f 507 519 520
f 507 520 508
f 508 520 509
f 509 520 521
f 509 521 522
f 509 522 510
f 510 522 511
f 511 522 523
f 512 524 513
f 513 524 525
f 513 525 526
f 513 526 527
f 513 527 514
f 514 527 515
f 515 527 516
f 516 527 528
f 516 528 529
f 516 529 517
f 517 529 530
f 517 530 518
f 519 531 532
f 519 532 520
f 520 532 533
f 520 533 521
f 521 533 534
f 521 534 522
f 522 534 523
f 523 534 535
f 523 535 536
f 523 536 537
f 525 538 539
f 525 539 526
f 526 539 527
f 527 539 528
f 528 539 540
f 528 540 541
f 528 541 542
f 528 542 529
f 529 543 530
f 529 542 543
f 530 543 544
f 530 544 545
f 531 546 532
f 532 546 533
f 533 546 547
f 533 547 548
f 533 548 534
f 534 548 536
f 534 536 535
f 536 548 549
f 536 549 550
f 536 550 537
f 538 551 539
f 539 551 552
f 539 552 540
f 540 552 541
f 541 552 553
f 541 553 542
f 542 553 554
f 542 554 544
f 542 544 543
f 544 554 555
f 544 555 556
f 544 556 545
f 545 556 557
f 546 558 559
f 546 559 547
f 547 559 560
f 547 560 549
f 547 549 548
f 549 560 571
f 549 571 561
f 549 561 562
f 549 562 563
f 549 563 550
f 553 564 565
f 553 565 554
f 554 565 566
f 554 566 567
f 554 567 555
f 555 567 556
f 556 567 568
f 556 568 569
f 556 569 557
f 558 570 559
f 559 570 571
f 559 571 560
f 561 571 572
f 561 572 573
f 561 573 574
f 561 574 575
f 561 575 576
f 561 576 562
f 562 576 563
f 564 577 565
f 565 577 578
f 565 578 566
f 566 578 567
f 567 578 579
f 567 579 568
f 568 580 569
f 568 579 581
f 568 581 580
f 570 582 583
f 570 583 571
f 571 583 582
f 571 582 572
f 572 582 584
f 572 584 585
f 572 585 586
f 572 586 573
f 573 586 575
f 573 575 574
f 575 586 587
f 575 587 588
f 577 589 578
f 578 589 590
f 578 590 591
f 578 591 579
f 579 591 592
f 579 592 581
f 582 593 584
f 584 593 594
f 584 594 585
f 585 594 595
f 585 595 596
f 585 596 587
f 585 587 586
f 587 596 597
f 587 597 598
f 587 598 599
f 587 599 588
f 589 600 601
f 589 601 590
f 590 601 602
f 590 602 603
f 590 603 591
f 591 603 592
f 592 603 604
f 592 604 605
f 594 606 595
f 595 606 597
f 595 597 596
f 597 607 608
f 597 608 609
f 597 609 598
f 597 606 607
f 598 609 599
f 599 609 610
f 600 611 601
f 601 611 612
f 601 612 613
f 601 613 602
f 602 613 614
f 602 614 603
f 603 614 604
f 604 614 615
f 604 615 616
f 604 616 605
f 606 617 607
f 607 617 618
f 607 618 608
f 608 618 619
f 608 619 609
f 609 619 620
f 609 620 621
f 609 621 622
f 609 622 610
f 610 622 623
f 611 624 625
f 611 625 612
f 612 625 613
f 613 625 614
f 614 625 626
f 614 626 627
f 614 627 628
f 614 628 629
f 614 629 630
f 614 630 631
f 614 631 615
f 615 631 632
f 615 632 616
f 618 633 620
f 618 620 619
f 620 634 621
f 620 633 634
f 621 634 635
f 621 635 636
f 621 636 623
f 621 623 622
f 623 636 637
f 624 638 639
f 624 639 640
f 624 640 625
f 625 640 639
f 625 639 626
f 626 639 627
f 627 641 642
f 627 642 644
f 627 644 628
f 627 639 641
f 628 643 629
f 628 644 656
f 628 656 643
f 629 643 630
f 630 645 632
f 630 632 631
f 630 643 655
f 630 655 645
f 633 646 634
f 634 646 647
f 634 647 635
f 635 647 648
f 635 648 649
f 635 649 636
f 636 649 637
f 637 649 650
f 638 651 641
f 638 641 639
f 641 651 652
f 641 652 653
f 641 653 642
f 642 653 668
f 642 668 654
f 642 654 644
f 643 656 672
f 643 672 655
f 644 654 657
f 644 657 658
f 644 658 656
f 646 659 660
f 646 660 661
f 646 661 647
f 647 661 662
f 647 662 663
f 647 663 648
f 648 663 649
f 649 663 664
f 649 664 665
f 649 665 650
f 650 665 666
f 652 667 668
f 652 668 653
f 654 668 669
f 654 669 670
f 654 670 671
f 654 671 657
f 656 658 672
f 657 671 673
f 657 673 658
f 659 674 660
f 660 674 661
f 661 674 675
f 661 675 662
f 662 675 663
f 663 675 664
f 664 675 676
f 664 676 677
f 664 677 665
f 665 677 666
f 666 677 678
f 667 679 668
f 668 679 669
f 669 680 681
f 669 681 670
f 669 679 682
f 669 682 680
f 670 681 683
f 670 683 671
f 671 683 684
f 671 684 673
f 673 684 685
f 674 686 675
f 675 686 687
f 675 687 688
f 675 688 676
f 676 688 677
f 677 688 689
f 677 689 678
f 680 690 691
f 680 691 681
f 681 691 692
f 681 692 683
f 683 692 693
f 683 693 684
f 684 693 685
f 686 694 695
f 686 695 687
f 687 695 696
f 687 696 688
f 688 696 697
f 688 697 689
f 689 697 698
f 690 699 691
f 691 699 700
f 691 700 701
f 691 701 702
f 691 702 692
f 692 702 693
f 693 702 703
f 694 704 705
f 694 705 706
f 694 706 695
f 695 706 707
f 695 707 696
f 696 707 697
f 697 707 708
f 697 708 698
f 699 709 700
f 700 709 710
f 700 710 711
f 700 711 701
f 701 711 712
f 701 712 702
f 702 713 703
f 702 712 714
f 702 714 713
f 703 713 714
f 703 714 715
f 704 716 705
f 705 716 717
f 705 717 706
f 706 717 718
f 706 718 707
f 707 718 708
f 708 718 719
f 709 720 710
f 710 721 711
f 710 720 721
f 711 721 722
f 711 722 712
f 712 722 723
f 712 723 714
f 714 723 724
f 714 724 715
f 716 725 726
f 716 726 717
f 717 726 727
f 717 727 718
f 718 727 719
f 719 727 728
f 720 729 721
f 721 729 730
f 721 730 722
f 722 730 727
f 722 727 726
f 722 726 723
f 723 726 725
f 723 725 731
f 723 731 724
f 724 731 732
f 725 732 731
f 727 730 728
f 728 730 729

