# https://github.com/mikedh/trimesh
v 0.01600340 -0.01628559 0.18371995
v 0.01600340 0.03164274 0.16637455
v 0.01141743 0.01495040 0.18614177
v 0.01205599 0.00494813 0.18614177
v 0.01184313 0.00409427 0.18614177
v 0.01038220 -0.00056908 0.18614177
v 0.00794409 -0.01628559 0.18548723
v 0.01600340 -0.01628559 -0.40104938
v -0.04352717 0.03164274 0.18614177
v -0.00500112 0.02558133 0.18614177
v 0.00384187 0.02282273 0.18614177
v 0.00527378 0.02234420 0.18614177
v 0.00946307 0.01919151 0.18614177
v 0.01600340 0.03164274 -0.40484571
v 0.00492547 -0.01628559 0.18614177
v 0.01554868 -0.01628559 -0.40157300
v 0.01600340 0.01478620 -0.40739846
v -0.08283688 0.03164274 0.18614177
v 0.01600340 0.02573615 -0.40864211
v 0.01598405 0.03164274 -0.40530390
v -0.08283688 -0.01628559 0.18614177
v 0.01541323 -0.01628559 -0.40170395
v 0.01600340 0.01521312 -0.40746391
v -0.05463412 -0.01628559 -0.46277285
v -0.06095193 -0.01628559 -0.46820557
v -0.08283688 0.03164274 -0.47985643
v -0.06547017 -0.01628559 -0.47174013
v -0.06667955 -0.01628559 -0.47265649
v -0.08144368 0.03164274 -0.47913647
v -0.07499042 0.03164274 -0.47442371
v -0.06955305 0.03164274 -0.47030008
v -0.08283688 -0.01628559 -0.48254007
v -0.07774781 -0.01628559 -0.48024917
v -0.07843474 -0.01628559 -0.48057646
v -0.08102766 -0.01628559 -0.48175460
v -0.07274581 -0.01628559 -0.47704190
f 1 2 3
f 1 3 4
f 1 4 5
f 1 5 6
f 1 6 7
f 1 7 15
f 1 15 21
f 1 21 32
f 1 32 35
f 1 35 34
f 1 34 33
f 1 33 36
f 1 36 28
f 1 28 27
f 1 27 25
f 1 25 24
f 1 24 22
f 1 22 16
f 1 16 8
f 1 8 17
f 1 17 23
f 1 23 19
f 1 19 14
f 1 14 2
f 2 9 10
f 2 10 11
f 2 11 12
f 2 12 13
f 2 13 3
f 2 14 20
f 2 20 31
f 2 31 30
f 2 30 29
f 2 29 26
f 2 26 18
f 2 18 9
f 3 13 12
f 3 12 11
f 3 11 10
f 3 10 9
f 3 9 18
f 3 18 21
f 3 21 15
f 3 15 6
f 3 6 5
f 3 5 4
f 6 15 7
f 8 16 17
f 14 19 20
f 16 22 17
f 17 22 24
f 17 24 25
f 17 25 23
f 18 26 32
f 18 32 21
f 19 23 25
f 19 25 27
f 19 27 28
f 19 28 29
f 19 29 30
f 19 30 31
f 19 31 20
f 26 29 33
f 26 33 34
f 26 34 35
f 26 35 32
f 28 36 29
f 29 36 33

