# https://github.com/mikedh/trimesh
v -0.01542360 0.09253900 0.25983822
v -0.02442435 0.09255689 0.25753823
v -0.08283689 0.09255689 0.26948345
v -0.08283689 0.03164274 0.25227046
v -0.01542360 0.09129878 0.25828016
v -0.01542360 0.09255689 0.18097004
v -0.08283689 0.09255689 -0.48848218
v -0.01542360 0.03164274 0.16687319
v -0.01542360 0.07917677 0.24091876
v -0.01542360 0.08244429 0.24581558
v -0.01542360 0.08259335 0.24603814
v -0.01542360 0.08739923 0.25293818
v -0.01542360 0.09113183 0.25805756
v -0.08283689 0.03164274 -0.47980148
v -0.01542360 0.09255689 -0.43313348
v -0.08086385 0.09255689 -0.48759186
v -0.01542360 0.03164274 -0.40946561
v -0.07499752 0.09255689 -0.48492086
v -0.08205163 0.03164274 -0.47943053
v -0.01542360 0.08499629 -0.43046248
v -0.02045848 0.09227665 -0.43936577
v -0.02011534 0.09255689 -0.43899480
v -0.03562251 0.03164274 -0.43469155
v -0.01542360 0.05500430 -0.41918501
v -0.07351279 0.09255689 -0.48417893
v -0.07499752 0.08499629 -0.48380795
v -0.08145114 0.03164274 -0.47913373
v -0.02158687 0.08499629 -0.43803027
v -0.02095339 0.09255689 -0.43995932
v -0.03316116 0.06458027 -0.44448516
v -0.03873714 0.06499765 -0.45131099
v -0.03014551 0.09070252 -0.44982710
v -0.02782933 0.09255689 -0.44767550
v -0.04250505 0.03164274 -0.44292709
v -0.06789722 0.09255689 -0.48128536
v -0.06891343 0.08499629 -0.48069182
v -0.06391154 0.08499629 -0.47727889
v -0.05677824 0.08499629 -0.47230789
v -0.07499752 0.03164274 -0.47445953
v -0.04414155 0.03164274 -0.44485614
v -0.04814042 0.03164274 -0.44938195
v -0.05372960 0.03164274 -0.45539168
v -0.05900864 0.03164274 -0.46095622
v -0.04743435 0.07499697 -0.46244010
v -0.04243246 0.07499697 -0.45769167
v -0.04028786 0.09107816 -0.45969492
v -0.03770773 0.09255689 -0.45754328
v -0.03258047 0.09255689 -0.45257229
v -0.06666984 0.09255689 -0.48046923
v -0.06289533 0.09255689 -0.47794664
v -0.05595340 0.09255689 -0.47290143
v -0.05473262 0.09255689 -0.47201112
v -0.05095811 0.09255689 -0.46919176
v -0.05178296 0.08499629 -0.46852401
v -0.06115325 0.09255689 -0.47668535
v -0.06955351 0.03164274 -0.47030467
v -0.06455822 0.03164274 -0.46592721
v -0.04614759 0.08499629 -0.46355301
v -0.05326769 0.07499697 -0.46741110
v -0.04460347 0.09255689 -0.46377558
v -0.04189796 0.09255689 -0.46140137
f 1 2 3
f 1 3 4
f 1 4 5
f 1 5 13
f 1 13 12
f 1 12 11
f 1 11 10
f 1 10 9
f 1 9 8
f 1 8 17
f 1 17 24
f 1 24 20
f 1 20 15
f 1 15 6
f 1 6 2
f 2 6 15
f 2 15 22
f 2 22 29
f 2 29 33
f 2 33 48
f 2 48 47
f 2 47 61
f 2 61 60
f 2 60 53
f 2 53 52
f 2 52 51
f 2 51 55
f 2 55 50
f 2 50 49
f 2 49 35
f 2 35 25
f 2 25 18
f 2 18 16
f 2 16 7
f 2 7 3
f 3 7 14
f 3 14 4
f 4 8 9
f 4 9 10
f 4 10 11
f 4 11 12
f 4 12 13
f 4 13 5
f 4 14 19
f 4 19 27
f 4 27 39
f 4 39 56
f 4 56 57
f 4 57 43
f 4 43 42
f 4 42 41
f 4 41 40
f 4 40 34
f 4 34 23
f 4 23 17
f 4 17 8
f 7 16 14
f 14 16 18
f 14 18 19
f 15 20 21
f 15 21 22
f 17 23 24
f 18 25 26
f 18 26 19
f 19 26 27
f 20 24 28
f 20 28 21
f 21 29 22
f 21 28 30
f 21 30 31
f 21 31 32
f 21 32 33
f 21 33 29
f 23 34 30
f 23 30 24
f 24 30 28
f 25 35 36
f 25 36 27
f 25 27 26
f 27 36 37
f 27 37 38
f 27 38 39
f 30 34 31
f 31 34 40
f 31 40 41
f 31 41 42
f 31 42 43
f 31 43 44
f 31 44 45
f 31 45 32
f 32 45 46
f 32 46 47
f 32 47 48
f 32 48 33
f 35 49 36
f 36 49 50
f 36 50 37
f 37 50 38
f 38 51 52
f 38 52 53
f 38 53 54
f 38 54 39
f 38 50 55
f 38 55 51
f 39 54 56
f 43 57 44
f 44 58 46
f 44 46 45
f 44 57 56
f 44 56 59
f 44 59 54
f 44 54 58
f 46 58 54
f 46 54 60
f 46 60 61
f 46 61 47
f 53 60 54
f 54 59 56

