# https://github.com/mikedh/trimesh
v 0.00000000 -0.45642605 -0.02545283
v 0.08899771 -0.44757989 -0.02545283
v 0.08899771 -0.44757989 0.03029653
v 0.00000000 -0.45633671 0.03029653
v -0.08899771 -0.44757989 0.03029653
v -0.08899771 -0.44757989 -0.02545283
v -0.08551285 -0.42988759 -0.12195253
v 0.00000000 -0.43837631 -0.12195253
v 0.08551285 -0.42988759 -0.12195253
v 0.17459992 -0.42166692 -0.02545283
v 0.17459992 -0.42166692 0.03029653
v 0.08721060 -0.43864438 0.11640534
v 0.00000000 -0.44722247 0.11640534
v -0.08721060 -0.43864438 0.11640534
v -0.17459992 -0.42166692 0.03029653
v -0.17459992 -0.42166692 -0.02545283
v -0.16771957 -0.40495750 -0.12195253
v -0.15279727 -0.36144155 -0.21556084
v -0.07791767 -0.38413775 -0.21556084
v 0.00000000 -0.39182228 -0.21556084
v 0.07791767 -0.38413775 -0.21556084
v 0.16771957 -0.40495750 -0.12195253
v 0.15279727 -0.36144155 -0.21556084
v 0.25350049 -0.37949127 -0.02545283
v 0.24349272 -0.36447963 -0.12195253
v 0.25350049 -0.37949127 0.03029653
v 0.24849661 -0.37189609 0.11640534
v 0.17111507 -0.41317818 0.11640534
v 0.15735437 -0.37993807 0.19636998
v 0.08015155 -0.40334910 0.19636998
v 0.00000000 -0.41121235 0.19636998
v -0.08015155 -0.40334910 0.19636998
v -0.15735437 -0.37993807 0.19636998
v -0.17111507 -0.41317818 0.11640534
v -0.24849661 -0.37189609 0.11640534
v -0.25350049 -0.37949127 0.03029653
v -0.25350049 -0.37949127 -0.02545283
v -0.24349272 -0.36447963 -0.12195253
v -0.22186878 -0.32453787 -0.21556084
v -0.12688428 -0.29880360 -0.30311537
v -0.06469311 -0.31765753 -0.30311537
v 0.00000000 -0.32400173 -0.30311537
v 0.06469311 -0.31765753 -0.30311537
v 0.22186878 -0.32453787 -0.21556084
v 0.12688428 -0.29880360 -0.30311537
v 0.32266137 -0.32266140 -0.02545283
v 0.30997294 -0.30997297 -0.12195253
v 0.32266137 -0.32266140 0.03029653
v 0.31622779 -0.31622785 0.11640534
v 0.22848105 -0.34196213 0.19636998
v 0.19256030 -0.28817034 0.27642494
v 0.13260300 -0.32015947 0.27642494
v 0.06755248 -0.33990696 0.27642494
v 0.00000000 -0.34660858 0.27642494
v -0.06755248 -0.33990696 0.27642494
v -0.13260300 -0.32015947 0.27642494
v -0.19256030 -0.28817034 0.27642494
v -0.22848105 -0.34196213 0.19636998
v -0.31622779 -0.31622785 0.11640534
v -0.32266137 -0.32266140 0.03029653
v -0.32266137 -0.32266140 -0.02545283
v -0.30997294 -0.30997297 -0.12195253
v -0.28236219 -0.27485642 -0.21556084
v -0.23446785 -0.22687270 -0.30311537
v -0.18416092 -0.26815477 -0.30311537
v -0.15744373 -0.22812368 -0.35895503
v -0.10838777 -0.25430474 -0.35895503
v -0.05522147 -0.27038866 -0.35895503
v 0.00000000 -0.27583933 -0.35895503
v 0.05522147 -0.27038866 -0.35895503
v 0.10838777 -0.25430474 -0.35895503
v 0.28236219 -0.27485642 -0.21556084
v 0.18416092 -0.26815477 -0.30311537
v 0.23446785 -0.22687270 -0.30311537
v 0.15744373 -0.22812368 -0.35895503
v 0.37949121 -0.25350052 -0.02545283
v 0.36447957 -0.24349275 -0.12195253
v 0.33204365 -0.21436298 -0.21556084
v 0.37949121 -0.25350052 0.03029653
v 0.37189603 -0.24849665 0.11640534
v 0.34196207 -0.22848110 0.19636998
v 0.29076159 -0.29076162 0.19636998
v 0.24510111 -0.24501179 0.27642494
v 0.14234272 -0.21302265 0.33804744
v 0.09802257 -0.23670177 0.33804744
v 0.04994952 -0.25126666 0.33804744
v 0.00000000 -0.25618118 0.33804744
v -0.04994952 -0.25126666 0.33804744
v -0.09802257 -0.23670177 0.33804744
v -0.14234272 -0.21302265 0.33804744
v -0.24510111 -0.24501179 0.27642494
v -0.29076159 -0.29076162 0.19636998
v -0.34196207 -0.22848110 0.19636998
v -0.37189603 -0.24849665 0.11640534
v -0.37949121 -0.25350052 0.03029653
v -0.37949121 -0.25350052 -0.02545283
v -0.36447957 -0.24349275 -0.12195253
v -0.33204365 -0.21436298 -0.21556084
v -0.20042355 -0.19282839 -0.35895503
v -0.27566057 -0.17665511 -0.30311537
v -0.06960765 -0.10820907 -0.47325480
v -0.04798370 -0.11982524 -0.47325480
v -0.02439395 -0.12688430 -0.47325480
v 0.00000000 -0.12929688 -0.47325480
v 0.02439395 -0.12688430 -0.47325480
v 0.04798370 -0.11982524 -0.47325480
v 0.27566057 -0.17665511 -0.30311537
v 0.20042355 -0.19282839 -0.35895503
v 0.06960765 -0.10820907 -0.47325480
v 0.42166683 -0.17459995 -0.02545283
v 0.40495744 -0.16771960 -0.12195253
v 0.36894733 -0.14529146 -0.21556084
v 0.42166683 -0.17459995 0.03029653
v 0.41317812 -0.17111510 0.11640534
v 0.37993801 -0.15735440 0.19636998
v 0.28817028 -0.19256033 0.27642494
v 0.21302262 -0.14234275 0.33804744
v 0.18112284 -0.18112287 0.33804744
v 0.04029916 -0.08747868 0.42307198
v 0.04003110 -0.08765739 0.42307198
v 0.02778944 -0.09418032 0.42307198
v 0.02761073 -0.09426967 0.42307198
v 0.01402876 -0.09838001 0.42307198
v 0.00026807 -0.09980969 0.42307198
v 0.00000000 -0.09980969 0.42307198
v -0.01376069 -0.09846936 0.42307198
v -0.02761073 -0.09426967 0.42307198
v -0.04003110 -0.08765739 0.42307198
v -0.05102178 -0.07863253 0.42307198
v -0.18112284 -0.18112287 0.33804744
v -0.21302262 -0.14234275 0.33804744
v -0.28817028 -0.19256033 0.27642494
v -0.37993801 -0.15735440 0.19636998
v -0.41317812 -0.17111510 0.11640534
v -0.42166683 -0.17459995 0.03029653
v -0.42166683 -0.17459995 -0.02545283
v -0.40495744 -0.16771960 -0.12195253
v -0.36894733 -0.14529146 -0.21556084
v -0.23562947 -0.14984857 -0.35895503
v -0.10418808 -0.07362863 -0.47325480
v -0.08864029 -0.09257193 -0.47325480
v -0.30630937 -0.11928912 -0.30311537
v -0.26181051 -0.10088196 -0.35895503
v -0.05566824 -0.08738933 -0.48789239
v -0.03833335 -0.09659291 -0.48789239
v -0.01956877 -0.10231163 -0.48789239
v 0.00000000 -0.10427745 -0.48789239
v 0.01956877 -0.10231163 -0.48789239
v 0.03833335 -0.09659291 -0.48789239
v 0.05566824 -0.08738933 -0.48789239
v 0.30630937 -0.11928912 -0.30311537
v 0.23562947 -0.14984857 -0.35895503
v 0.26181051 -0.10088196 -0.35895503
v 0.08864029 -0.09257193 -0.47325480
v 0.10418808 -0.07362863 -0.47325480
v 0.44757983 -0.08899772 -0.02545283
v 0.42988750 -0.08551287 -0.12195253
v 0.39173287 -0.07032250 -0.21556084
v 0.32525265 -0.05709793 -0.30311537
v 0.44757983 -0.08899772 0.03029653
v 0.43864432 -0.08721062 0.11640534
v 0.40334904 -0.08015156 0.19636998
v 0.33990690 -0.06755248 0.27642494
v 0.32015941 -0.13260303 0.27642494
v 0.23670173 -0.09802259 0.33804744
v 0.06013600 -0.06746313 0.42307198
v 0.05995729 -0.06773119 0.42307198
v 0.05120049 -0.07845382 0.42307198
v 0.05102178 -0.07863253 0.42307198
v -0.05995729 -0.06773119 0.42307198
v -0.06665892 -0.05522148 0.42307198
v -0.23670173 -0.09802259 0.33804744
v -0.32015941 -0.13260303 0.27642494
v -0.33990690 -0.06755248 0.27642494
v -0.40334904 -0.08015156 0.19636998
v -0.43864432 -0.08721062 0.11640534
v -0.44757983 -0.08899772 0.03029653
v -0.44757983 -0.08899772 -0.02545283
v -0.42988750 -0.08551287 -0.12195253
v -0.39173287 -0.07032250 -0.21556084
v -0.32525265 -0.05709793 -0.30311537
v -0.11580424 -0.05191534 -0.47325480
v -0.09266127 -0.04235434 -0.48789239
v -0.08336833 -0.05968923 -0.48789239
v -0.07085861 -0.07487961 -0.48789239
v -0.27798378 -0.04771565 -0.35895503
v -0.03958432 -0.03699303 -0.49683756
v -0.03109558 -0.04396273 -0.49656653
v -0.02144523 -0.04914533 -0.49638581
v -0.01090133 -0.05236211 -0.49629545
v 0.00000000 -0.05343438 -0.49629545
v 0.01090133 -0.05236211 -0.49629545
v 0.02144523 -0.04914533 -0.49638581
v 0.03109558 -0.04396273 -0.49656653
v 0.03958432 -0.03699303 -0.49683756
v 0.07085861 -0.07487961 -0.48789239
v 0.11580424 -0.05191534 -0.47325480
v 0.27798378 -0.04771565 -0.35895503
v 0.08336833 -0.05968923 -0.48789239
v 0.09266127 -0.04235434 -0.48789239
v 0.45642599 0.00000000 -0.02545283
v 0.43837625 0.00000000 -0.12195253
v 0.39941740 0.00750583 -0.21556084
v 0.33159688 0.00750583 -0.30311537
v 0.28343445 0.00750583 -0.35895503
v 0.45642599 0.00000000 0.03029653
v 0.44722241 0.00000000 0.11640534
v 0.41121230 0.00000000 0.19636998
v 0.34660852 0.00000000 0.27642494
v 0.25126663 -0.04994952 0.33804744
v 0.07076926 -0.04172885 0.42307198
v 0.06674828 -0.05495341 0.42307198
v 0.06665892 -0.05522148 0.42307198
v -0.07076926 -0.04172885 0.42307198
v -0.25126663 -0.04994952 0.33804744
v -0.34660852 0.00000000 0.27642494
v -0.41121230 0.00000000 0.19636998
v -0.44722241 0.00000000 0.11640534
v -0.45642599 0.00000000 0.03029653
v -0.45642599 0.00000000 -0.02545283
v -0.43837625 0.00000000 -0.12195253
v -0.39941740 0.00750583 -0.21556084
v -0.33159688 0.00750583 -0.30311537
v -0.28343445 0.00750583 -0.35895503
v -0.12295265 -0.02841493 -0.47325480
v -0.09837999 -0.02350040 -0.48789239
v -0.05495340 -0.00831003 -0.49774110
v -0.05173662 -0.01885393 -0.49737972
v -0.04655402 -0.02850429 -0.49710864
v -0.03958432 0.04217562 -0.49945790
v 0.03958432 0.04217562 -0.49945790
v 0.04655402 -0.02850429 -0.49710864
v 0.12295265 -0.02841493 -0.47325480
v 0.05173662 -0.01885393 -0.49737972
v 0.05495340 -0.00831003 -0.49774110
v 0.09837999 -0.02350040 -0.48789239
v 0.44757983 0.08899772 -0.02545283
v 0.42988750 0.08551287 -0.12195253
v 0.39173287 0.08542351 -0.21556084
v 0.32525265 0.07219896 -0.30311537
v 0.12536524 -0.00393163 -0.47325480
v 0.27798378 0.06281666 -0.35895503
v 0.44757983 0.08899772 0.03029653
v 0.43864432 0.08721062 0.11640534
v 0.40334904 0.08015156 0.19636998
v 0.33990690 0.06755248 0.27642494
v 0.25126663 0.04994952 0.33804744
v 0.25618115 0.00000000 0.33804744
v 0.07210959 -0.02761074 0.42307198
v -0.07210959 -0.02787880 0.42307198
v -0.25618115 0.00000000 0.33804744
v -0.25126663 0.04994952 0.33804744
v -0.33990690 0.06755248 0.27642494
v -0.40334904 0.08015156 0.19636998
v -0.43864432 0.08721062 0.11640534
v -0.44757983 0.08899772 0.03029653
v -0.44757983 0.08899772 -0.02545283
v -0.42988750 0.08551287 -0.12195253
v -0.39173287 0.08542351 -0.21556084
v -0.32525265 0.07219896 -0.30311537
v -0.27798378 0.06281666 -0.35895503
v -0.12536524 -0.00393163 -0.47325480
v -0.10025645 -0.00393163 -0.48789239
v -0.05602567 0.00250194 -0.49810255
v -0.05173662 0.02394718 -0.49882537
v -0.03109558 0.04914533 -0.49963862
v -0.02144523 0.05432792 -0.49981928
v 0.00000000 0.05861697 -0.50000000
v -0.04655402 0.03368689 -0.49909645
v -0.08336833 0.05173663 -0.48789239
v -0.07085861 0.06692700 -0.48789239
v 0.04655402 0.03368689 -0.49909645
v 0.05173662 0.02394718 -0.49882537
v 0.02144523 0.05432792 -0.49981928
v 0.03109558 0.04914533 -0.49963862
v 0.07085861 0.06692700 -0.48789239
v 0.08336833 0.05173663 -0.48789239
v 0.05602567 0.00250194 -0.49810255
v 0.10025645 -0.00393163 -0.48789239
v 0.42166683 0.17459995 -0.02545283
v 0.40495744 0.16771960 -0.12195253
v 0.36894733 0.16039248 -0.21556084
v 0.26181051 0.11598297 -0.35895503
v 0.30630937 0.13439013 -0.30311537
v 0.09837999 0.01554779 -0.48789239
v 0.12295265 0.02046233 -0.47325480
v 0.11580424 0.04396273 -0.47325480
v 0.42166683 0.17459995 0.03029653
v 0.41317812 0.17111510 0.11640534
v 0.37993801 0.15735440 0.19636998
v 0.32015941 0.13260303 0.27642494
v 0.23670173 0.09802259 0.33804744
v 0.06665892 0.00000000 0.42307198
v 0.07076926 -0.01358198 0.42307198
v 0.07210959 -0.02734267 0.42307198
v -0.07210959 -0.02761074 0.42307198
v -0.07076926 -0.01358198 0.42307198
v -0.06674828 -0.00026807 0.42307198
v -0.23670173 0.09802259 0.33804744
v -0.32015941 0.13260303 0.27642494
v -0.37993801 0.15735440 0.19636998
v -0.41317812 0.17111510 0.11640534
v -0.42166683 0.17459995 0.03029653
v -0.42166683 0.17459995 -0.02545283
v -0.40495744 0.16771960 -0.12195253
v -0.36894733 0.16039248 -0.21556084
v -0.30630937 0.13439013 -0.30311537
v -0.26181051 0.11598297 -0.35895503
v -0.11580424 0.04396273 -0.47325480
v -0.12295265 0.02046233 -0.47325480
v -0.09837999 0.01554779 -0.48789239
v -0.05495340 0.01349263 -0.49846399
v -0.09266127 0.03440173 -0.48789239
v -0.05566824 0.07934736 -0.48789239
v -0.01090133 0.05754471 -0.49990964
v -0.03833335 0.08864030 -0.48789239
v 0.01090133 0.05754471 -0.49990964
v -0.01956877 0.09435903 -0.48789239
v 0.00000000 0.09632484 -0.48789239
v 0.01956877 0.09435903 -0.48789239
v -0.10418808 0.06567603 -0.47325480
v -0.08864029 0.08461932 -0.47325480
v -0.06960765 0.10025647 -0.47325480
v 0.09266127 0.03440173 -0.48789239
v 0.05495340 0.01349263 -0.49846399
v 0.03833335 0.08864030 -0.48789239
v 0.05566824 0.07934736 -0.48789239
v 0.06960765 0.10025647 -0.47325480
v 0.08864029 0.08461932 -0.47325480
v 0.10418808 0.06567603 -0.47325480
v 0.37949121 0.25350052 -0.02545283
v 0.36447957 0.24349275 -0.12195253
v 0.27566057 0.19175613 -0.30311537
v 0.33204365 0.22937465 -0.21556084
v 0.19202417 0.08703191 -0.41244555
v 0.23562947 0.16494960 -0.35895503
v 0.17281282 0.12295267 -0.41244555
v 0.37949121 0.25350052 0.03029653
v 0.37189603 0.24849665 0.11640534
v 0.34196207 0.22848110 0.19636998
v 0.28817028 0.19256033 0.27642494
v 0.21302262 0.14234275 0.33804744
v 0.05995729 0.01233101 0.42307198
v -0.06665892 0.00000000 0.42307198
v -0.21302262 0.14234275 0.33804744
v -0.28817028 0.19256033 0.27642494
v -0.34196207 0.22848110 0.19636998
v -0.37189603 0.24849665 0.11640534
v -0.37949121 0.25350052 0.03029653
v -0.37949121 0.25350052 -0.02545283
v -0.36447957 0.24349275 -0.12195253
v -0.33204365 0.22937465 -0.21556084
v -0.27566057 0.19175613 -0.30311537
v -0.23562947 0.16494960 -0.35895503
v -0.19202417 0.08703191 -0.41244555
v -0.17281282 0.12295267 -0.41244555
v -0.04798370 0.11178328 -0.47325480
v -0.02439395 0.11893169 -0.47325480
v 0.00000000 0.12134428 -0.47325480
v 0.02439395 0.11893169 -0.47325480
v 0.04798370 0.11178328 -0.47325480
v -0.14698918 0.15449503 -0.41244555
v -0.11544682 0.18031867 -0.41244555
v -0.07952606 0.19953004 -0.41244555
v 0.07952606 0.19953004 -0.41244555
v 0.11544682 0.18031867 -0.41244555
v 0.14698918 0.15449503 -0.41244555
v 0.32266137 0.32266140 -0.02545283
v 0.30997294 0.30997297 -0.12195253
v 0.20042355 0.20792942 -0.35895503
v 0.23446785 0.24197373 -0.30311537
v 0.28236219 0.28995743 -0.21556084
v 0.32266137 0.32266140 0.03029653
v 0.31622779 0.31622785 0.11640534
v 0.29076159 0.29076162 0.19636998
v 0.24510111 0.24510115 0.27642494
v 0.18112284 0.18112287 0.33804744
v 0.11062165 0.12706301 0.37708104
v 0.13010107 0.10329454 0.37708104
v 0.05977858 0.01259908 0.42307198
v -0.06013600 0.01215230 0.42307198
v -0.13010107 0.10329454 0.37708104
v -0.11062165 0.12706301 0.37708104
v -0.18112284 0.18112287 0.33804744
v -0.24510111 0.24510115 0.27642494
v -0.29076159 0.29076162 0.19636998
v -0.31622779 0.31622785 0.11640534
v -0.32266137 0.32266140 0.03029653
v -0.32266137 0.32266140 -0.02545283
v -0.30997294 0.30997297 -0.12195253
v -0.28236219 0.28995743 -0.21556084
v -0.23446785 0.24197373 -0.30311537
v -0.20042355 0.20792942 -0.35895503
v -0.04047787 0.21141426 -0.41244555
v 0.00000000 0.21534589 -0.41244555
v 0.04047787 0.21141426 -0.41244555
v -0.15744373 0.24322470 -0.35895503
v -0.10838777 0.26940575 -0.35895503
v 0.10838777 0.26940575 -0.35895503
v 0.15744373 0.24322470 -0.35895503
v 0.25350049 0.37949127 -0.02545283
v 0.24349272 0.36447963 -0.12195253
v 0.22186878 0.33963889 -0.21556084
v 0.18416092 0.28325579 -0.30311537
v 0.25350049 0.37949127 0.03029653
v 0.24849661 0.37189609 0.11640534
v 0.22848105 0.34196213 0.19636998
v 0.19256030 0.28817034 0.27642494
v 0.14234272 0.21302265 0.33804744
v 0.08694254 0.14645308 0.37708104
v 0.05102178 0.02332169 0.42307198
v -0.05102178 0.02332169 0.42307198
v -0.08694254 0.14645308 0.37708104
v -0.14234272 0.21302265 0.33804744
v -0.22848105 0.34196213 0.19636998
v -0.19256030 0.28817034 0.27642494
v -0.24849661 0.37189609 0.11640534
v -0.25350049 0.37949127 0.03029653
v -0.25350049 0.37949127 -0.02545283
v -0.22186878 0.33963889 -0.21556084
v -0.24349272 0.36447963 -0.12195253
v -0.18416092 0.28325579 -0.30311537
v -0.05522147 0.28548968 -0.35895503
v 0.00000000 0.29094034 -0.35895503
v 0.05522147 0.28548968 -0.35895503
v -0.12688428 0.31390461 -0.30311537
v -0.06469311 0.33275855 -0.30311537
v 0.06469311 0.33275855 -0.30311537
v 0.12688428 0.31390461 -0.30311537
v 0.17459992 0.42166692 -0.02545283
v 0.15279727 0.37654257 -0.21556084
v 0.16771957 0.40495750 -0.12195253
v 0.17459992 0.42166692 0.03029653
v 0.17111507 0.41317818 0.11640534
v 0.15735437 0.37993807 0.19636998
v 0.13260300 0.32015947 0.27642494
v 0.09802257 0.23670177 0.33804744
v 0.05986793 0.16092861 0.37708104
v 0.02761073 0.03895884 0.42307198
v 0.03976303 0.03243592 0.42307198
v 0.04003110 0.03225721 0.42307198
v -0.04029916 0.03207850 0.42307198
v -0.05986793 0.16092861 0.37708104
v -0.04003110 0.03225721 0.42307198
v -0.02761073 0.03895884 0.42307198
v -0.09802257 0.23670177 0.33804744
v -0.15735437 0.37993807 0.19636998
v -0.13260300 0.32015947 0.27642494
v -0.17111507 0.41317818 0.11640534
v -0.17459992 0.42166692 0.03029653
v -0.17459992 0.42166692 -0.02545283
v -0.15279727 0.37654257 -0.21556084
v -0.16771957 0.40495750 -0.12195253
v 0.00000000 0.33910275 -0.30311537
v -0.07791767 0.39923877 -0.21556084
v 0.00000000 0.40692332 -0.21556084
v 0.07791767 0.39923877 -0.21556084
v 0.08899771 0.44757989 -0.02545283
v 0.08551285 0.42988759 -0.12195253
v 0.08899771 0.44757989 0.03029653
v 0.08721060 0.43864438 0.11640534
v 0.08015155 0.40334910 0.19636998
v 0.06755248 0.33990696 0.27642494
v 0.04994952 0.25126666 0.33804744
v 0.03047010 0.16986412 0.37708104
v 0.01402876 0.04306918 0.42307198
v -0.03047010 0.16986412 0.37708104
v -0.01402876 0.04306918 0.42307198
v -0.04994952 0.25126666 0.33804744
v -0.06755248 0.33990696 0.27642494
v -0.08015155 0.40334910 0.19636998
v -0.08721060 0.43864438 0.11640534
v -0.08899771 0.44757989 0.03029653
v -0.08899771 0.44757989 -0.02545283
v -0.08551285 0.42988759 -0.12195253
v 0.00000000 0.43837631 -0.12195253
v 0.00000000 0.45633671 -0.02545283
v 0.00000000 0.45642605 0.03029653
v 0.00000000 0.44722247 0.11640534
v 0.00000000 0.41121235 0.19636998
v 0.00000000 0.34660858 0.27642494
v 0.00000000 0.25618118 0.33804744
v 0.00000000 0.17290220 0.37708104
v 0.00000000 0.04440951 0.42307198
v -0.00026807 0.04440951 0.42307198
f 1 2 3
f 1 3 4
f 1 4 5
f 1 5 6
f 1 6 7
f 1 7 8
f 1 8 9
f 1 9 2
f 2 10 11
f 2 11 3
f 2 9 10
f 3 11 12
f 3 12 4
f 4 12 13
f 4 13 14
f 4 14 5
f 5 14 15
f 5 15 16
f 5 16 6
f 6 16 7
f 7 16 17
f 7 17 18
f 7 18 19
f 7 19 8
f 8 19 20
f 8 20 21
f 8 21 9
f 9 22 10
f 9 21 23
f 9 23 22
f 10 24 26
f 10 26 11
f 10 22 25
f 10 25 24
f 11 26 27
f 11 27 28
f 11 28 12
f 12 28 29
f 12 29 30
f 12 30 13
f 13 30 31
f 13 31 32
f 13 32 14
f 14 32 33
f 14 33 34
f 14 34 15
f 15 34 35
f 15 35 36
f 15 36 37
f 15 37 16
f 16 37 38
f 16 38 17
f 17 38 18
f 18 38 39
f 18 39 40
f 18 40 41
f 18 41 19
f 19 41 20
f 20 41 42
f 20 42 43
f 20 43 21
f 21 43 23
f 22 23 25
f 23 44 25
f 23 43 45
f 23 45 44
f 24 46 48
f 24 48 26
f 24 25 47
f 24 47 46
f 25 44 47
f 26 48 27
f 27 48 49
f 27 49 50
f 27 50 29
f 27 29 28
f 29 50 51
f 29 51 52
f 29 52 53
f 29 53 30
f 30 53 54
f 30 54 31
f 31 54 32
f 32 54 55
f 32 55 33
f 33 55 56
f 33 56 57
f 33 57 58
f 33 58 35
f 33 35 34
f 35 58 59
f 35 59 60
f 35 60 36
f 36 60 61
f 36 61 37
f 37 61 62
f 37 62 38
f 38 62 39
f 39 62 63
f 39 63 64
f 39 64 65
f 39 65 40
f 40 65 66
f 40 66 67
f 40 67 41
f 41 67 68
f 41 68 69
f 41 69 42
f 42 69 43
f 43 69 70
f 43 70 71
f 43 71 45
f 44 72 47
f 44 45 73
f 44 73 74
f 44 74 72
f 45 71 75
f 45 75 73
f 46 76 79
f 46 79 48
f 46 47 76
f 47 77 76
f 47 72 78
f 47 78 77
f 48 79 80
f 48 80 49
f 49 80 81
f 49 81 82
f 49 82 50
f 50 82 83
f 50 83 51
f 51 83 84
f 51 84 85
f 51 85 52
f 52 85 53
f 53 85 86
f 53 86 54
f 54 86 87
f 54 87 88
f 54 88 55
f 55 88 89
f 55 89 56
f 56 89 57
f 57 89 90
f 57 90 91
f 57 91 58
f 58 91 92
f 58 92 59
f 59 92 93
f 59 93 94
f 59 94 60
f 60 94 95
f 60 95 96
f 60 96 61
f 61 96 62
f 62 96 97
f 62 97 98
f 62 98 63
f 63 98 64
f 64 99 66
f 64 66 65
f 64 98 100
f 64 100 99
f 66 99 101
f 66 101 102
f 66 102 67
f 67 102 68
f 68 102 103
f 68 103 104
f 68 104 69
f 69 104 70
f 70 104 105
f 70 105 106
f 70 106 71
f 71 106 75
f 72 74 78
f 73 75 74
f 74 107 78
f 74 75 108
f 74 108 107
f 75 106 109
f 75 109 108
f 76 110 113
f 76 113 79
f 76 77 110
f 77 111 110
f 77 78 112
f 77 112 111
f 78 107 112
f 79 113 80
f 80 114 115
f 80 115 81
f 80 113 114
f 81 115 116
f 81 116 83
f 81 83 82
f 83 116 117
f 83 117 118
f 83 118 84
f 84 118 119
f 84 119 120
f 84 120 85
f 85 120 121
f 85 121 122
f 85 122 86
f 86 122 123
f 86 123 124
f 86 124 87
f 87 124 125
f 87 125 126
f 87 126 88
f 88 126 89
f 89 126 127
f 89 127 128
f 89 128 90
f 90 128 129
f 90 129 130
f 90 130 91
f 91 130 131
f 91 131 132
f 91 132 93
f 91 93 92
f 93 132 133
f 93 133 94
f 94 133 134
f 94 134 135
f 94 135 95
f 95 135 136
f 95 136 96
f 96 136 97
f 97 136 137
f 97 137 138
f 97 138 98
f 98 138 100
f 99 100 139
f 99 139 140
f 99 140 141
f 99 141 101
f 100 138 142
f 100 142 143
f 100 143 139
f 101 141 144
f 101 144 102
f 102 144 145
f 102 145 146
f 102 146 103
f 103 146 147
f 103 147 104
f 104 147 105
f 105 147 148
f 105 148 106
f 106 148 149
f 106 149 150
f 106 150 109
f 107 151 112
f 107 108 152
f 107 152 153
f 107 153 151
f 108 109 154
f 108 154 155
f 108 155 152
f 109 150 154
f 110 156 160
f 110 160 113
f 110 111 157
f 110 157 156
f 111 112 158
f 111 158 157
f 112 151 159
f 112 159 158
f 113 160 161
f 113 161 114
f 114 161 115
f 115 162 163
f 115 163 164
f 115 164 116
f 115 161 162
f 116 164 165
f 116 165 117
f 117 165 166
f 117 166 167
f 117 167 168
f 117 168 118
f 118 168 169
f 118 169 119
f 119 169 168
f 119 168 167
f 119 167 166
f 119 166 213
f 119 213 212
f 119 212 211
f 119 211 249
f 119 249 295
f 119 295 294
f 119 294 293
f 119 293 343
f 119 343 380
f 119 380 411
f 119 411 441
f 119 441 440
f 119 440 439
f 119 439 466
f 119 466 484
f 119 484 485
f 119 485 468
f 119 468 445
f 119 445 444
f 119 444 442
f 119 442 412
f 119 412 381
f 119 381 344
f 119 344 298
f 119 298 297
f 119 297 296
f 119 296 250
f 119 250 214
f 119 214 171
f 119 171 170
f 119 170 129
f 119 129 128
f 119 128 127
f 119 127 126
f 119 126 125
f 119 125 124
f 119 124 123
f 119 123 122
f 119 122 121
f 119 121 120
f 129 170 131
f 129 131 130
f 131 170 171
f 131 171 172
f 131 172 132
f 132 172 173
f 132 173 133
f 133 173 174
f 133 174 175
f 133 175 176
f 133 176 134
f 134 176 135
f 135 177 178
f 135 178 136
f 135 176 177
f 136 178 179
f 136 179 137
f 137 179 180
f 137 180 138
f 138 180 181
f 138 181 142
f 139 143 182
f 139 182 140
f 140 182 183
f 140 183 184
f 140 184 141
f 141 184 185
f 141 185 144
f 142 181 143
f 143 186 182
f 143 181 186
f 144 185 187
f 144 187 188
f 144 188 145
f 145 188 189
f 145 189 146
f 146 190 147
f 146 189 190
f 147 190 191
f 147 191 192
f 147 192 148
f 148 192 193
f 148 193 149
f 149 193 194
f 149 194 150
f 150 194 195
f 150 195 196
f 150 196 154
f 151 153 159
f 152 155 197
f 152 197 153
f 153 197 198
f 153 198 159
f 154 196 199
f 154 199 155
f 155 199 200
f 155 200 197
f 156 201 206
f 156 206 160
f 156 157 201
f 157 202 201
f 157 158 202
f 158 159 203
f 158 203 202
f 159 204 203
f 159 198 205
f 159 205 204
f 160 206 161
f 161 207 162
f 161 206 207
f 162 207 208
f 162 208 209
f 162 209 163
f 163 209 210
f 163 210 165
f 163 165 164
f 165 210 211
f 165 211 212
f 165 212 213
f 165 213 166
f 171 214 172
f 172 214 215
f 172 215 174
f 172 174 173
f 174 215 216
f 174 216 175
f 175 216 217
f 175 217 218
f 175 218 176
f 176 218 219
f 176 219 177
f 177 219 220
f 177 220 178
f 178 220 179
f 179 220 221
f 179 221 180
f 180 221 222
f 180 222 181
f 181 222 223
f 181 223 224
f 181 224 186
f 182 225 183
f 182 186 225
f 183 225 226
f 183 226 227
f 183 227 228
f 183 228 184
f 184 228 229
f 184 229 185
f 185 229 187
f 186 224 225
f 187 191 190
f 187 190 189
f 187 189 188
f 187 229 230
f 187 230 191
f 191 230 231
f 191 231 195
f 191 195 192
f 192 195 193
f 193 195 194
f 195 232 196
f 195 231 232
f 196 232 199
f 197 200 233
f 197 233 198
f 198 233 205
f 199 232 234
f 199 234 200
f 200 234 235
f 200 235 236
f 200 236 233
f 201 237 243
f 201 243 206
f 201 202 238
f 201 238 237
f 202 203 239
f 202 239 238
f 203 204 240
f 203 240 239
f 204 205 240
f 205 233 241
f 205 241 242
f 205 242 240
f 206 243 244
f 206 244 207
f 207 244 245
f 207 245 208
f 208 245 209
f 209 246 247
f 209 247 248
f 209 248 210
f 209 245 246
f 210 248 211
f 211 248 249
f 214 250 251
f 214 251 215
f 215 251 216
f 216 251 252
f 216 252 253
f 216 253 254
f 216 254 217
f 217 254 218
f 218 254 255
f 218 255 219
f 219 256 257
f 219 257 220
f 219 255 256
f 220 257 258
f 220 258 221
f 221 258 259
f 221 259 222
f 222 260 223
f 222 259 260
f 223 260 224
f 224 261 262
f 224 262 225
f 224 260 261
f 225 262 226
f 226 262 263
f 226 263 264
f 226 264 227
f 227 264 229
f 227 229 228
f 229 264 265
f 229 265 230
f 230 266 267
f 230 267 268
f 230 268 231
f 230 265 269
f 230 269 270
f 230 270 271
f 230 271 266
f 231 272 273
f 231 273 232
f 231 268 274
f 231 274 275
f 231 275 276
f 231 276 277
f 231 277 272
f 232 273 278
f 232 278 235
f 232 235 234
f 233 236 241
f 235 278 236
f 236 279 241
f 236 278 279
f 237 280 288
f 237 288 243
f 237 238 280
f 238 239 281
f 238 281 280
f 239 240 282
f 239 282 281
f 240 242 283
f 240 283 284
f 240 284 282
f 241 279 285
f 241 285 286
f 241 286 242
f 242 286 287
f 242 287 283
f 243 288 244
f 244 288 289
f 244 289 290
f 244 290 245
f 245 290 246
f 246 290 291
f 246 291 292
f 246 292 247
f 247 292 293
f 247 293 294
f 247 294 248
f 248 294 295
f 248 295 249
f 250 296 251
f 251 296 297
f 251 297 252
f 252 297 298
f 252 298 299
f 252 299 253
f 253 299 300
f 253 300 301
f 253 301 254
f 254 301 255
f 255 302 303
f 255 303 256
f 255 301 302
f 256 303 304
f 256 304 257
f 257 304 258
f 258 304 305
f 258 305 259
f 259 305 306
f 259 306 260
f 260 306 307
f 260 307 308
f 260 308 261
f 261 308 309
f 261 309 310
f 261 310 262
f 262 310 311
f 262 311 263
f 263 311 312
f 263 312 264
f 264 312 265
f 265 312 311
f 265 311 313
f 265 313 269
f 266 271 314
f 266 314 267
f 267 315 268
f 267 314 316
f 267 316 315
f 268 317 274
f 268 315 318
f 268 318 319
f 268 319 320
f 268 320 317
f 269 313 270
f 270 313 321
f 270 321 322
f 270 322 271
f 271 322 323
f 271 323 314
f 272 277 324
f 272 324 273
f 273 325 278
f 273 324 285
f 273 285 325
f 274 317 326
f 274 326 327
f 274 327 275
f 275 327 276
f 276 327 328
f 276 328 329
f 276 329 277
f 277 329 330
f 277 330 324
f 278 325 279
f 279 325 285
f 280 331 338
f 280 338 288
f 280 281 332
f 280 332 331
f 281 282 332
f 282 284 333
f 282 333 334
f 282 334 332
f 283 287 335
f 283 335 336
f 283 336 333
f 283 333 284
f 285 324 286
f 286 324 287
f 287 324 330
f 287 330 337
f 287 337 335
f 288 338 339
f 288 339 289
f 289 339 290
f 290 339 340
f 290 340 341
f 290 341 291
f 291 341 292
f 292 342 293
f 292 341 342
f 293 342 343
f 298 344 299
f 299 344 345
f 299 345 346
f 299 346 300
f 300 346 301
f 301 347 348
f 301 348 302
f 301 346 347
f 302 348 303
f 303 349 350
f 303 350 304
f 303 348 349
f 304 350 351
f 304 351 305
f 305 351 306
f 306 352 353
f 306 353 307
f 306 351 352
f 307 353 308
f 308 354 355
f 308 355 309
f 308 353 354
f 309 321 313
f 309 313 310
f 309 355 356
f 309 356 321
f 310 313 311
f 314 323 316
f 315 316 318
f 316 323 357
f 316 357 318
f 317 320 326
f 318 357 358
f 318 358 319
f 319 358 359
f 319 359 360
f 319 360 320
f 320 360 361
f 320 361 326
f 321 356 362
f 321 362 322
f 322 362 323
f 323 362 363
f 323 363 364
f 323 364 357
f 326 361 328
f 326 328 327
f 328 361 365
f 328 365 366
f 328 366 367
f 328 367 329
f 329 367 330
f 330 367 337
f 331 368 373
f 331 373 338
f 331 332 369
f 331 369 368
f 332 334 369
f 333 336 370
f 333 370 371
f 333 371 372
f 333 372 334
f 334 372 369
f 335 337 336
f 336 337 367
f 336 367 370
f 338 373 339
f 339 373 374
f 339 374 340
f 340 374 375
f 340 375 376
f 340 376 341
f 341 376 342
f 342 377 378
f 342 378 379
f 342 379 343
f 342 376 377
f 343 379 380
f 344 381 345
f 345 381 382
f 345 382 383
f 345 383 384
f 345 384 385
f 345 385 346
f 346 385 347
f 347 386 387
f 347 387 348
f 347 385 386
f 348 387 388
f 348 388 349
f 349 388 389
f 349 389 350
f 350 389 390
f 350 390 351
f 351 390 352
f 352 391 353
f 352 390 391
f 353 392 393
f 353 393 354
f 353 391 392
f 354 393 362
f 354 362 356
f 354 356 355
f 357 364 394
f 357 394 358
f 358 394 359
f 359 394 395
f 359 395 396
f 359 396 360
f 360 396 361
f 361 396 365
f 362 393 397
f 362 397 363
f 363 397 364
f 364 397 398
f 364 398 394
f 365 396 399
f 365 399 400
f 365 400 366
f 366 400 367
f 367 400 370
f 368 401 405
f 368 405 373
f 368 369 401
f 369 402 401
f 369 372 403
f 369 403 402
f 370 400 371
f 371 400 404
f 371 404 403
f 371 403 372
f 373 405 406
f 373 406 374
f 374 406 407
f 374 407 375
f 375 407 376
f 376 408 409
f 376 409 377
f 376 407 408
f 377 409 378
f 378 409 410
f 378 410 411
f 378 411 379
f 379 411 380
f 381 412 382
f 382 412 383
f 383 413 414
f 383 414 384
f 383 412 413
f 384 414 385
f 385 415 386
f 385 414 416
f 385 416 415
f 386 415 387
f 387 417 388
f 387 415 417
f 388 418 419
f 388 419 389
f 388 417 418
f 389 419 390
f 390 420 391
f 390 419 421
f 390 421 420
f 391 420 392
f 392 422 397
f 392 397 393
f 392 420 422
f 394 398 423
f 394 423 424
f 394 424 395
f 395 424 396
f 396 424 425
f 396 425 399
f 397 422 426
f 397 426 398
f 398 426 427
f 398 427 423
f 399 425 428
f 399 428 429
f 399 429 400
f 400 429 404
f 401 402 430
f 401 430 433
f 401 433 405
f 402 403 431
f 402 431 432
f 402 432 430
f 403 404 429
f 403 429 431
f 405 433 406
f 406 433 434
f 406 434 435
f 406 435 407
f 407 435 408
f 408 435 436
f 408 436 437
f 408 437 409
f 409 437 438
f 409 438 410
f 410 438 439
f 410 439 440
f 410 440 441
f 410 441 411
f 412 442 413
f 413 443 414
f 413 442 444
f 413 444 445
f 413 445 443
f 414 443 446
f 414 446 416
f 415 447 417
f 415 416 447
f 416 446 448
f 416 448 447
f 417 449 450
f 417 450 418
f 417 447 449
f 418 450 451
f 418 451 419
f 419 451 421
f 420 452 426
f 420 426 422
f 420 421 452
f 421 451 453
f 421 453 452
f 423 427 424
f 424 427 454
f 424 454 428
f 424 428 425
f 426 452 427
f 427 452 455
f 427 455 456
f 427 456 454
f 428 454 456
f 428 456 457
f 428 457 431
f 428 431 429
f 430 458 460
f 430 460 433
f 430 432 459
f 430 459 458
f 431 457 459
f 431 459 432
f 433 460 461
f 433 461 434
f 434 461 435
f 435 461 462
f 435 462 463
f 435 463 436
f 436 463 437
f 437 464 465
f 437 465 438
f 437 463 464
f 438 465 439
f 439 465 466
f 443 467 446
f 443 445 467
f 445 468 467
f 446 467 469
f 446 469 470
f 446 470 448
f 447 471 472
f 447 472 449
f 447 448 470
f 447 470 471
f 449 472 450
f 450 473 474
f 450 474 451
f 450 472 473
f 451 474 475
f 451 475 453
f 452 453 475
f 452 475 455
f 455 475 476
f 455 476 456
f 456 476 457
f 457 476 459
f 458 477 478
f 458 478 460
f 458 459 476
f 458 476 477
f 460 478 461
f 461 478 479
f 461 479 462
f 462 479 480
f 462 480 481
f 462 481 463
f 463 481 464
f 464 482 483
f 464 483 465
f 464 481 482
f 465 483 466
f 466 483 484
f 467 483 469
f 467 468 483
f 468 485 483
f 469 483 482
f 469 482 481
f 469 481 470
f 470 481 471
f 471 480 479
f 471 479 472
f 471 481 480
f 472 479 478
f 472 478 473
f 473 478 474
f 474 478 477
f 474 477 476
f 474 476 475
f 483 485 484

