# https://github.com/mikedh/trimesh
v 0.00000000 0.04653725 0.45733416
v 0.00000000 0.04447418 0.42307198
v -0.00027605 0.04445965 0.42307198
v -0.01407875 0.04309395 0.42307198
v -0.01447103 0.04509891 0.45733416
v -0.01002511 0.01922330 0.49140057
v 0.00000000 0.02021126 0.49140057
v 0.01002511 0.01922330 0.49140057
v 0.01447103 0.04509891 0.45733416
v 0.01378816 0.04312301 0.42307198
v -0.02760538 0.03898233 0.42307198
v -0.02838996 0.04088559 0.45733416
v -0.01965794 0.01630304 0.49140057
v -0.00642188 -0.00643437 0.49999249
v 0.00000000 -0.00580964 0.49999249
v 0.00642188 -0.00643437 0.49999249
v 0.01965794 0.01630304 0.49140057
v 0.02838996 0.04088559 0.45733416
v 0.01407875 0.04309395 0.42307198
v -0.02786691 0.03885157 0.42307198
v -0.02854978 0.01155215 0.49140057
v -0.04008592 0.03231366 0.42307198
v -0.04121920 0.03401352 0.45733416
v -0.01259677 -0.00830857 0.49999249
v 0.01259677 -0.00830857 0.49999249
v 0.02854978 0.01155215 0.49140057
v 0.02760538 0.03898233 0.42307198
v 0.02732933 0.03906950 0.42307198
v 0.04121920 0.03401352 0.45733416
v 0.03983893 0.03245895 0.42307198
v -0.03633740 0.00515953 0.49140057
v -0.02330476 -0.01545669 0.49999249
v -0.01830673 -0.01135960 0.49999249
v -0.05246476 0.02478779 0.45733416
v -0.04030386 0.03213931 0.42307198
v -0.05102637 0.02334945 0.42307198
v 0.01830673 -0.01135960 0.49999249
v 0.03633740 0.00515953 0.49140057
v 0.05246476 0.02478779 0.45733416
v 0.02330476 -0.01545669 0.49999249
v 0.05102637 0.02334945 0.42307198
v 0.04008592 0.03231366 0.42307198
v -0.04273023 -0.00262785 0.49140057
v -0.02740198 -0.02045456 0.49999249
v -0.06169077 0.01354259 0.45733416
v -0.05999086 0.01240934 0.42307198
v 0.04273023 -0.00262785 0.49140057
v 0.06169077 0.01354259 0.45733416
v 0.02740198 -0.02045456 0.49999249
v 0.05981651 0.01262728 0.42307198
v -0.06856306 0.00071375 0.45733416
v -0.04748126 -0.01150489 0.49140057
v -0.03043857 -0.02614981 0.49999249
v -0.06013615 0.01216236 0.42307198
v 0.04748126 -0.01150489 0.49140057
v 0.06856306 0.00071375 0.45733416
v 0.05999086 0.01240934 0.42307198
v 0.03043857 -0.02614981 0.49999249
v -0.06665974 -0.00007080 0.42307198
v -0.06674691 -0.00034685 0.42307198
v -0.07077149 -0.01361155 0.42307198
v -0.07277651 -0.01320474 0.45733416
v -0.05040162 -0.02115194 0.49140057
v -0.03231283 -0.03232450 0.49999249
v 0.03231283 -0.03232450 0.49999249
v 0.05040162 -0.02115194 0.49140057
v 0.07277651 -0.01320474 0.45733416
v 0.07077149 -0.01361155 0.42307198
v 0.06665974 -0.00007080 0.42307198
v 0.06652898 0.00017619 0.42307198
v -0.07080054 -0.01388759 0.42307198
v -0.07421490 -0.02767532 0.45733416
v -0.05138960 -0.03116221 0.49140057
v -0.03295211 -0.03874619 0.49999249
v 0.03295211 -0.03874619 0.49999249
v 0.05138960 -0.03116221 0.49140057
v 0.07421490 -0.02767532 0.45733416
v 0.07213723 -0.02739928 0.42307198
v -0.07215176 -0.02767532 0.42307198
v -0.07277651 -0.04214590 0.45733416
v -0.05040162 -0.04118701 0.49140057
v -0.07213723 -0.02795137 0.42307198
v -0.07077149 -0.04175363 0.42307198
v -0.03231283 -0.04518240 0.49999249
v 0.03231283 -0.04518240 0.49999249
v 0.05040162 -0.04118701 0.49140057
v 0.07277651 -0.04214590 0.45733416
v 0.07080054 -0.04146305 0.42307198
v 0.07215176 -0.02767532 0.42307198
v -0.06856306 -0.05606439 0.45733416
v -0.04748126 -0.05083406 0.49140057
v -0.06665974 -0.05527984 0.42307198
v -0.03043857 -0.05135710 0.49999249
v 0.03043857 -0.05135710 0.49999249
v 0.04748126 -0.05083406 0.49140057
v 0.07077149 -0.04175363 0.42307198
v 0.06856306 -0.05606439 0.45733416
v -0.06169077 -0.06889323 0.45733416
v -0.04273023 -0.05971109 0.49140057
v -0.06652898 -0.05554136 0.42307198
v -0.05999086 -0.06775999 0.42307198
v -0.02740198 -0.05706687 0.49999249
v 0.02740198 -0.05706687 0.49999249
v 0.04273023 -0.05971109 0.49140057
v 0.06674691 -0.05501833 0.42307198
v 0.06169077 -0.06889323 0.45733416
v 0.06013615 -0.06751300 0.42307198
v 0.06665974 -0.05527984 0.42307198
v -0.05246476 -0.08013844 0.45733416
v -0.03633740 -0.06751300 0.49140057
v -0.05981651 -0.06797792 0.42307198
v -0.05102637 -0.07870010 0.42307198
v -0.02330476 -0.06205022 0.49999249
v 0.02330476 -0.06205022 0.49999249
v 0.03633740 -0.06751300 0.49140057
v 0.05999086 -0.06775999 0.42307198
v 0.05246476 -0.08013844 0.45733416
v 0.05102637 -0.07870010 0.42307198
v -0.04121920 -0.08937869 0.45733416
v -0.02854978 -0.07389110 0.49140057
v -0.01830673 -0.06614731 0.49999249
v -0.04008592 -0.08767883 0.42307198
v 0.01830673 -0.06614731 0.49999249
v 0.02854978 -0.07389110 0.49140057
v 0.04121920 -0.08937869 0.45733416
v 0.04008592 -0.08767883 0.42307198
v -0.02838996 -0.09623624 0.45733416
v -0.01965794 -0.07864198 0.49140057
v -0.01259677 -0.06919833 0.49999249
v -0.02760538 -0.09434751 0.42307198
v 0.01259677 -0.06919833 0.49999249
v 0.02838996 -0.09623624 0.45733416
v 0.01965794 -0.07864198 0.49140057
v 0.02760538 -0.09434751 0.42307198
v -0.01407875 -0.09844460 0.42307198
v -0.01447103 -0.10044955 0.45733416
v -0.01002511 -0.08157678 0.49140057
v -0.00642188 -0.07107253 0.49999249
v 0.00642188 -0.07107253 0.49999249
v 0.01002511 -0.08157678 0.49140057
v 0.01447103 -0.10044955 0.45733416
v 0.01407875 -0.09844460 0.42307198
v -0.01378816 -0.09847365 0.42307198
v 0.00000000 -0.10188790 0.45733416
v 0.00000000 -0.08256473 0.49140057
v 0.00000000 -0.07171179 0.49999249
v 0.00000000 -0.09983935 0.42307198
f 1 2 3
f 1 3 4
f 1 4 5
f 1 5 6
f 1 6 7
f 1 7 8
f 1 8 9
f 1 9 10
f 1 10 2
f 2 10 19
f 2 19 28
f 2 28 27
f 2 27 30
f 2 30 42
f 2 42 41
f 2 41 50
f 2 50 57
f 2 57 70
f 2 70 69
f 2 69 68
f 2 68 78
f 2 78 89
f 2 89 88
f 2 88 96
f 2 96 105
f 2 105 108
f 2 108 107
f 2 107 116
f 2 116 118
f 2 118 126
f 2 126 134
f 2 134 142
f 2 142 147
f 2 147 143
f 2 143 135
f 2 135 130
f 2 130 122
f 2 122 112
f 2 112 111
f 2 111 101
f 2 101 100
f 2 100 92
f 2 92 83
f 2 83 82
f 2 82 79
f 2 79 71
f 2 71 61
f 2 61 60
f 2 60 59
f 2 59 54
f 2 54 46
f 2 46 36
f 2 36 35
f 2 35 22
f 2 22 20
f 2 20 11
f 2 11 4
f 2 4 3
f 4 11 12
f 4 12 5
f 5 12 6
f 6 12 13
f 6 13 14
f 6 14 7
f 7 14 15
f 7 15 16
f 7 16 8
f 8 16 17
f 8 17 18
f 8 18 9
f 9 19 10
f 9 18 19
f 11 20 12
f 12 21 13
f 12 20 22
f 12 22 23
f 12 23 21
f 13 24 14
f 13 21 24
f 14 24 33
f 14 33 32
f 14 32 44
f 14 44 53
f 14 53 64
f 14 64 74
f 14 74 84
f 14 84 93
f 14 93 102
f 14 102 113
f 14 113 121
f 14 121 129
f 14 129 138
f 14 138 146
f 14 146 139
f 14 139 131
f 14 131 123
f 14 123 114
f 14 114 103
f 14 103 94
f 14 94 85
f 14 85 75
f 14 75 65
f 14 65 58
f 14 58 49
f 14 49 40
f 14 40 37
f 14 37 25
f 14 25 16
f 14 16 15
f 16 25 17
f 17 26 18
f 17 25 26
f 18 27 28
f 18 28 19
f 18 26 29
f 18 29 30
f 18 30 27
f 21 31 32
f 21 32 33
f 21 33 24
f 21 23 34
f 21 34 31
f 22 35 23
f 23 35 36
f 23 36 34
f 25 37 26
f 26 38 39
f 26 39 29
f 26 37 40
f 26 40 38
f 29 39 41
f 29 41 42
f 29 42 30
f 31 34 43
f 31 43 32
f 32 43 44
f 34 36 45
f 34 45 43
f 36 46 45
f 38 40 47
f 38 47 39
f 39 47 48
f 39 48 41
f 40 49 47
f 41 48 50
f 43 45 51
f 43 51 52
f 43 52 44
f 44 52 53
f 45 46 54
f 45 54 51
f 47 55 56
f 47 56 48
f 47 49 55
f 48 56 57
f 48 57 50
f 49 58 55
f 51 54 59
f 51 59 60
f 51 60 61
f 51 61 62
f 51 62 52
f 52 63 64
f 52 64 53
f 52 62 63
f 55 58 65
f 55 65 66
f 55 66 67
f 55 67 56
f 56 67 68
f 56 68 69
f 56 69 70
f 56 70 57
f 61 71 62
f 62 71 72
f 62 72 63
f 63 73 74
f 63 74 64
f 63 72 73
f 65 75 66
f 66 75 76
f 66 76 77
f 66 77 67
f 67 77 68
f 68 77 78
f 71 79 72
f 72 80 81
f 72 81 73
f 72 79 82
f 72 82 83
f 72 83 80
f 73 81 74
f 74 81 84
f 75 85 86
f 75 86 76
f 76 86 77
f 77 86 87
f 77 87 88
f 77 88 89
f 77 89 78
f 80 90 91
f 80 91 81
f 80 83 90
f 81 91 84
f 83 92 90
f 84 91 93
f 85 94 95
f 85 95 86
f 86 95 87
f 87 96 88
f 87 95 97
f 87 97 96
f 90 98 99
f 90 99 91
f 90 92 100
f 90 100 101
f 90 101 98
f 91 99 102
f 91 102 93
f 94 103 95
f 95 103 104
f 95 104 97
f 96 97 105
f 97 104 106
f 97 106 107
f 97 107 108
f 97 108 105
f 98 109 110
f 98 110 99
f 98 101 111
f 98 111 112
f 98 112 109
f 99 110 102
f 102 110 113
f 103 114 115
f 103 115 104
f 104 115 106
f 106 116 107
f 106 115 117
f 106 117 118
f 106 118 116
f 109 112 119
f 109 119 110
f 110 120 121
f 110 121 113
f 110 119 120
f 112 122 119
f 114 123 115
f 115 123 124
f 115 124 125
f 115 125 117
f 117 125 118
f 118 125 126
f 119 127 120
f 119 122 127
f 120 127 128
f 120 128 129
f 120 129 121
f 122 130 127
f 123 131 124
f 124 132 125
f 124 131 133
f 124 133 132
f 125 132 126
f 126 132 134
f 127 130 135
f 127 135 136
f 127 136 137
f 127 137 128
f 128 137 129
f 129 137 138
f 131 139 140
f 131 140 133
f 132 133 140
f 132 140 141
f 132 141 142
f 132 142 134
f 135 143 136
f 136 143 144
f 136 144 137
f 137 144 145
f 137 145 146
f 137 146 138
f 139 146 140
f 140 146 145
f 140 145 144
f 140 144 141
f 141 144 142
f 142 144 147
f 143 147 144

