# https://github.com/mikedh/trimesh
v 0.00492478 0.45737761 -0.11504337
v 0.00492478 0.45701945 -0.10501161
v 0.04271126 0.45048290 -0.10818680
v 0.04271126 0.45048290 -0.11251242
v 0.04109951 0.45021430 -0.14067501
v 0.00492478 0.45567632 -0.14500062
v -0.00492478 0.45737761 -0.11504337
v 0.00492478 0.45397502 -0.09502587
v 0.01549067 0.45173651 -0.09433560
v 0.02498206 0.45307961 -0.10501161
v -0.00492478 0.45701945 -0.10501161
v 0.00044771 0.45003521 -0.07970211
v 0.09285446 0.44054383 -0.10814078
v 0.09285446 0.44054383 -0.11255844
v 0.02990684 0.33998880 -0.49997795
v 0.01495342 0.45379594 -0.14500062
v 0.14129637 0.43024656 -0.14081305
v 0.00492478 0.34625670 -0.49496204
v 0.00250716 0.35046515 -0.48166305
v -0.00492478 0.45567632 -0.14500062
v -0.04109951 0.45021430 -0.14067501
v -0.04271126 0.45048290 -0.11251242
v -0.04271126 0.45048290 -0.10818680
v 0.00429799 0.45102018 -0.08504011
v 0.08775060 0.43955886 -0.10146828
v 0.01244626 0.45048290 -0.08839937
v 0.01495342 0.44582677 -0.07500835
v 0.02498206 0.44385687 -0.07500835
v 0.04494980 0.44072291 -0.07767734
v 0.12499983 0.42397866 -0.07500835
v 0.16565163 0.42182967 -0.09424357
v -0.02498206 0.45307961 -0.10501161
v -0.01549067 0.45173651 -0.09433560
v -0.00492478 0.45397502 -0.09502587
v -0.00044771 0.45003521 -0.07970211
v 0.00429799 0.44815484 -0.07583666
v 0.13467030 0.43123150 -0.10482754
v 0.14290811 0.43051517 -0.10804875
v 0.14290811 0.43051517 -0.11265048
v 0.02328077 0.34061560 -0.50085229
v 0.13001415 0.32002106 -0.50002396
v 0.07494617 0.33049741 -0.50066817
v 0.16493531 0.42559040 -0.11504337
v 0.16493531 0.42397866 -0.14500062
v 0.01495342 0.34142146 -0.50177264
v 0.00492478 0.34240642 -0.50246286
v -0.00492478 0.34625670 -0.49496204
v -0.00250716 0.35046515 -0.48166305
v -0.01495342 0.45379594 -0.14500062
v -0.09285446 0.44054383 -0.11255844
v -0.02990684 0.33998880 -0.49997795
v -0.14129637 0.43024656 -0.14081305
v -0.09285446 0.44054383 -0.10814078
v 0.03886098 0.43973795 -0.07072873
v 0.13905783 0.41977021 -0.07059069
v 0.16493531 0.41600946 -0.07500835
v 0.15759291 0.41950157 -0.08154279
v 0.16941237 0.41985974 -0.09037812
v 0.16493531 0.42523223 -0.10501161
v -0.08775060 0.43955886 -0.10146828
v -0.12499983 0.42397866 -0.07500835
v -0.04494980 0.44072291 -0.07767734
v -0.02498206 0.44385687 -0.07500835
v -0.01495342 0.44582677 -0.07500835
v -0.01244626 0.45048290 -0.08839937
v -0.00429799 0.45102018 -0.08504011
v -0.16565163 0.42182967 -0.09424357
v -0.00429799 0.44815484 -0.07583666
v 0.00492478 0.44305098 -0.06603497
v 0.01495342 0.44215557 -0.06704736
v 0.03223491 0.44036475 -0.06930220
v 0.11497119 0.32154328 -0.50181866
v 0.13404351 0.31482765 -0.50200272
v 0.12499983 0.32046875 -0.50071418
v 0.17102413 0.42039701 -0.15130499
v 0.17460579 0.42129242 -0.14440240
v 0.18033643 0.42021790 -0.14062899
v 0.13655068 0.31805116 -0.49496204
v 0.14890739 0.30918655 -0.49781513
v 0.14219178 0.31151462 -0.50145048
v 0.18087368 0.42057610 -0.10823283
v 0.18087368 0.42057610 -0.11242040
v 0.17568028 0.42218783 -0.11545753
v 0.05497844 0.33246732 -0.50246286
v 0.10494255 0.32243869 -0.50250888
v 0.11497119 0.31491721 -0.50457966
v 0.01495342 0.33497447 -0.50448763
v 0.00492478 0.33497447 -0.50522387
v -0.00492478 0.34240642 -0.50246286
v -0.01495342 0.34142146 -0.50177264
v -0.02328077 0.34061560 -0.50085229
v -0.14290811 0.43051517 -0.11265048
v -0.07494617 0.33049741 -0.50066817
v -0.13001415 0.32002106 -0.50002396
v -0.16493531 0.42397866 -0.14500062
v -0.16493531 0.42559040 -0.11504337
v -0.13467030 0.43123150 -0.10482754
v -0.14290811 0.43051517 -0.10804875
v 0.08228857 0.43042564 -0.06925619
v 0.16493531 0.41215917 -0.06700134
v 0.13234223 0.42039701 -0.06925619
v 0.17200908 0.41108468 -0.06838186
v 0.17514303 0.41215917 -0.07546851
v 0.17881423 0.41941205 -0.10156031
v 0.17218816 0.42084470 -0.09705062
v 0.17523257 0.42200875 -0.10496560
v -0.03886098 0.43973795 -0.07072873
v -0.15759291 0.41950157 -0.08154279
v -0.16493531 0.41600946 -0.07500835
v -0.13905783 0.41977021 -0.07059069
v -0.16493531 0.42523223 -0.10501161
v -0.16941237 0.41985974 -0.09037812
v -0.03223491 0.44036475 -0.06930220
v -0.01495342 0.44215557 -0.06704736
v -0.00492478 0.44305098 -0.06603497
v 0.00492478 0.41985974 -0.03543349
v -0.00492478 0.41994929 -0.03543349
v 0.02498206 0.44108108 -0.06828982
v 0.12499983 0.42120287 -0.06819779
v 0.12499983 0.31491721 -0.50347525
v 0.13493893 0.30497810 -0.50517786
v 0.14532574 0.30551535 -0.50306112
v 0.14532574 0.31267866 -0.49468595
v 0.24086644 0.38055107 -0.11228234
v 0.30023241 0.34016788 -0.14049093
v 0.16054778 0.30032194 -0.50048411
v 0.23531488 0.25259638 -0.49459392
v 0.20881061 0.26916152 -0.49772310
v 0.22054054 0.26029694 -0.50043809
v 0.19054416 0.28035420 -0.50043809
v 0.23218092 0.25143233 -0.50140446
v 0.20531850 0.26549032 -0.50306112
v 0.17863515 0.40911478 -0.07243137
v 0.18454488 0.41699442 -0.10496560
v 0.24086644 0.38055107 -0.10832486
v 0.10494255 0.31491721 -0.50522387
v 0.05497844 0.32494584 -0.50522387
v 0.04494980 0.32494584 -0.50550002
v -0.00492478 0.33497447 -0.50522387
v -0.01495342 0.33497447 -0.50448763
v -0.11497119 0.31491721 -0.50457966
v -0.10494255 0.32243869 -0.50250888
v -0.05497844 0.33246732 -0.50246286
v -0.11497119 0.32154328 -0.50181866
v -0.12499983 0.32046875 -0.50071418
v -0.13404351 0.31482765 -0.50200272
v -0.14219178 0.31151462 -0.50145048
v -0.14890739 0.30918655 -0.49781513
v -0.13655068 0.31805116 -0.49496204
v -0.18033643 0.42021790 -0.14062899
v -0.17460579 0.42129242 -0.14440240
v -0.17102413 0.42039701 -0.15130499
v -0.17568028 0.42218783 -0.11545753
v -0.18087368 0.42057610 -0.11242040
v -0.18087368 0.42057610 -0.10823283
v 0.16493531 0.40768212 -0.06198545
v 0.17191954 0.40123513 -0.05908637
v 0.17523257 0.40517497 -0.06456243
v 0.18499258 0.40195146 -0.06778362
v 0.20191592 0.39129603 -0.06838186
v 0.19027553 0.40016064 -0.06971635
v -0.08228857 0.43042564 -0.06925619
v -0.17200908 0.41108468 -0.06838186
v -0.16493531 0.41215917 -0.06700134
v -0.13234223 0.42039701 -0.06925619
v -0.17523257 0.42200875 -0.10496560
v -0.17218816 0.42084470 -0.09705062
v -0.17881423 0.41941205 -0.10156031
v -0.17514303 0.41215917 -0.07546851
v -0.02498206 0.44108108 -0.06828982
v -0.12499983 0.42120287 -0.06819779
v 0.01620700 0.41699442 -0.03543349
v -0.16493531 0.40768212 -0.06198545
v -0.15499622 0.39290777 -0.04758205
v -0.15499622 0.38663989 -0.04256617
v -0.15499622 0.38171509 -0.03870071
v -0.15499622 0.37517858 -0.03543349
v 0.12499983 0.30497810 -0.50550002
v 0.15499622 0.29494947 -0.50448763
v 0.22492807 0.24498534 -0.50517786
v 0.17496395 0.27498171 -0.50550002
v 0.14496757 0.29494947 -0.50550002
v 0.30076966 0.34052604 -0.11219031
v 0.31769300 0.32843795 -0.11504337
v 0.31187278 0.33121374 -0.14315994
v 0.23880699 0.24910425 -0.49767709
v 0.24247818 0.24247818 -0.50181866
v 0.23531488 0.24543305 -0.50301504
v 0.21498896 0.25492445 -0.50444162
v 0.19448398 0.40678671 -0.09511790
v 0.22027192 0.38019291 -0.06971635
v 0.28026468 0.34016788 -0.06976238
v 0.23862790 0.36908975 -0.07252342
v 0.24534351 0.37285051 -0.09516391
v 0.23907562 0.37938702 -0.10165235
v 0.29539716 0.34294367 -0.10505763
v 0.30076966 0.34052604 -0.10841689
v 0.09491391 0.31491721 -0.50550002
v -0.04494980 0.32494584 -0.50550002
v -0.05497844 0.32494584 -0.50522387
v -0.10494255 0.31491721 -0.50522387
v -0.13493893 0.30497810 -0.50517786
v -0.12499983 0.31491721 -0.50347525
v -0.14532574 0.30551535 -0.50306112
v -0.20531850 0.26549032 -0.50306112
v -0.23218092 0.25143233 -0.50140446
v -0.19054416 0.28035420 -0.50043809
v -0.16054778 0.30032194 -0.50048411
v -0.14532574 0.31267866 -0.49468595
v -0.22054054 0.26029694 -0.50043809
v -0.20881061 0.26916152 -0.49772310
v -0.23531488 0.25259638 -0.49459392
v -0.30023241 0.34016788 -0.14049093
v -0.24086644 0.38055107 -0.11228234
v -0.18454488 0.41699442 -0.10496560
v -0.17863515 0.40911478 -0.07243137
v -0.24086644 0.38055107 -0.10832486
v 0.15499622 0.39290777 -0.04758205
v 0.16493531 0.40266779 -0.05788991
v 0.17854561 0.39899659 -0.06069697
v 0.16108502 0.38064060 -0.03952903
v 0.25367087 0.32225960 -0.03543349
v 0.27256411 0.31142509 -0.03543349
v 0.27739933 0.30855975 -0.03543349
v 0.27784705 0.30829114 -0.03543349
v 0.28501037 0.30372453 -0.03543349
v 0.26190868 0.35127100 -0.06842788
v -0.19027553 0.40016064 -0.06971635
v -0.20191592 0.39129603 -0.06838186
v -0.18499258 0.40195146 -0.06778362
v -0.17523257 0.40517497 -0.06456243
v -0.17191954 0.40123513 -0.05908637
v 0.06635020 0.40222010 -0.03543349
v 0.15499622 0.38171509 -0.03870071
v 0.15499622 0.38663989 -0.04256617
v -0.16493531 0.40266779 -0.05788991
v -0.16108502 0.38064060 -0.03952903
v -0.15535438 0.37499949 -0.03543349
v 0.23495671 0.23495671 -0.50550002
v 0.31733483 0.32816932 -0.10501161
v 0.32324454 0.32324454 -0.10501161
v 0.32342362 0.32342362 -0.11504337
v 0.32243869 0.32243869 -0.14500062
v 0.31509629 0.32790071 -0.14592098
v 0.24874608 0.24874608 -0.47742945
v 0.24480626 0.24480626 -0.49431783
v 0.24910425 0.23880699 -0.49767709
v 0.32100603 0.32100603 -0.15240940
v 0.25143233 0.23218092 -0.50140446
v 0.24543305 0.23531488 -0.50301504
v 0.29190505 0.33121374 -0.06842788
v 0.31017151 0.32011059 -0.06976238
v 0.31169370 0.32109556 -0.07500835
v 0.28671166 0.33783981 -0.07500835
v 0.27041510 0.35028607 -0.07924193
v 0.29056194 0.34034696 -0.08895157
v 0.28071237 0.35046515 -0.09866123
v 0.29897884 0.33936200 -0.10174438
v 0.31232050 0.33157191 -0.10501161
v -0.09491391 0.31491721 -0.50550002
v -0.12499983 0.30497810 -0.50550002
v -0.14496757 0.29494947 -0.50550002
v -0.17496395 0.27498171 -0.50550002
v -0.22492807 0.24498534 -0.50517786
v -0.15499622 0.29494947 -0.50448763
v -0.21498896 0.25492445 -0.50444162
v -0.23531488 0.24543305 -0.50301504
v -0.24247818 0.24247818 -0.50181866
v -0.23880699 0.24910425 -0.49767709
v -0.31187278 0.33121374 -0.14315994
v -0.31769300 0.32843795 -0.11504337
v -0.30076966 0.34052604 -0.11219031
v -0.19448398 0.40678671 -0.09511790
v -0.23907562 0.37938702 -0.10165235
v -0.24534351 0.37285051 -0.09516391
v -0.23862790 0.36908975 -0.07252342
v -0.28026468 0.34016788 -0.06976238
v -0.22027192 0.38019291 -0.06971635
v -0.30076966 0.34052604 -0.10841689
v -0.31733483 0.32825887 -0.10501161
v -0.29539716 0.34294367 -0.10505763
v 0.15544392 0.37499949 -0.03543349
v 0.16493531 0.37061197 -0.03543349
v 0.29548672 0.29539716 -0.03543349
v 0.31008196 0.31008196 -0.05996069
v 0.30497810 0.32190144 -0.06787567
v -0.22689797 0.36792573 -0.06170934
v -0.18499258 0.39693713 -0.06276774
v -0.26190868 0.35127100 -0.06842788
v -0.17854561 0.39899659 -0.06069697
v -0.28509989 0.29709846 -0.03543349
v 0.14926556 0.37768573 -0.03543349
v -0.16457714 0.37508905 -0.03773434
v -0.16457714 0.37016425 -0.03543349
v 0.24498534 0.22492807 -0.50517786
v 0.27498171 0.17496395 -0.50550002
v 0.31070876 0.33040786 -0.09870724
v 0.31437996 0.32664713 -0.09520993
v 0.32028967 0.32028967 -0.08913565
v 0.32816932 0.31733483 -0.10501161
v 0.32843795 0.31769300 -0.11504337
v 0.33121374 0.31187278 -0.14315994
v 0.32790071 0.31509629 -0.14592098
v 0.25259638 0.23531488 -0.49459392
v 0.26029694 0.22054054 -0.50043809
v 0.34016788 0.30023241 -0.14049093
v 0.28035420 0.19054416 -0.50043809
v 0.31151462 0.14219178 -0.50145048
v 0.26549032 0.20531850 -0.50306112
v 0.25492445 0.21498896 -0.50444162
v 0.31348455 0.31348455 -0.06644914
v 0.32011059 0.31017151 -0.06976238
v 0.31661847 0.31661847 -0.07500835
v 0.31867793 0.31867793 -0.08246315
v 0.31518582 0.32252821 -0.08550029
v 0.30882838 0.32924384 -0.09203474
v 0.30041149 0.33022878 -0.07928795
v 0.30533627 0.33273596 -0.09520993
v -0.23495671 0.23495671 -0.50550002
v -0.24543305 0.23531488 -0.50301504
v -0.25143233 0.23218092 -0.50140446
v -0.24910425 0.23880699 -0.49767709
v -0.24480626 0.24480626 -0.49431783
v -0.24874608 0.24874608 -0.47742945
v -0.32100603 0.32100603 -0.15240940
v -0.31509629 0.32790071 -0.14592098
v -0.32243869 0.32243869 -0.14500062
v -0.32342362 0.32342362 -0.11504337
v -0.32324454 0.32324454 -0.10501161
v -0.29897884 0.33936200 -0.10174438
v -0.28071237 0.35046515 -0.09866123
v -0.30041149 0.33022878 -0.07924193
v -0.27041510 0.35028607 -0.07924193
v -0.28671166 0.33783981 -0.07500835
v -0.31169370 0.32109556 -0.07500835
v -0.31017151 0.32011059 -0.06976238
v -0.29190505 0.33121374 -0.06842788
v -0.32028967 0.32028967 -0.08913565
v -0.30882838 0.32924384 -0.09203474
v -0.31070876 0.33040786 -0.09870724
v -0.30533627 0.33273596 -0.09520993
v 0.30300820 0.28501037 -0.03543349
v -0.20854199 0.37902886 -0.06069697
v -0.19690160 0.38789347 -0.06170934
v -0.28680119 0.32790071 -0.06175536
v -0.29853112 0.31894657 -0.06074299
v -0.26853475 0.33900383 -0.06074299
v -0.31008196 0.31008196 -0.05996069
v -0.29217368 0.29217368 -0.03543349
v 0.29494947 0.15499622 -0.50448763
v 0.30497810 0.13493893 -0.50517786
v 0.29494947 0.14496757 -0.50550002
v 0.32109556 0.31169370 -0.07500835
v 0.32252821 0.31518582 -0.08550029
v 0.32664713 0.31437996 -0.09520993
v 0.33040786 0.31070876 -0.09870724
v 0.33157191 0.31232050 -0.10501161
v 0.34052604 0.30076966 -0.10841689
v 0.34052604 0.30076966 -0.11219031
v 0.30918655 0.14890739 -0.49781513
v 0.26916152 0.20881061 -0.49772310
v 0.38055107 0.24086644 -0.11228234
v 0.42021790 0.18033643 -0.14062899
v 0.30032194 0.16054778 -0.50048411
v 0.32002106 0.13001415 -0.50002396
v 0.31482765 0.13404351 -0.50200272
v 0.30551535 0.14532574 -0.50306112
v 0.32190144 0.30497810 -0.06787567
v 0.33121374 0.29190505 -0.06842788
v 0.34016788 0.28026468 -0.06976238
v -0.24498534 0.22492807 -0.50517786
v -0.27498171 0.17496395 -0.50550002
v -0.25492445 0.21498896 -0.50444162
v -0.26549032 0.20531850 -0.50306112
v -0.31151462 0.14219178 -0.50145048
v -0.28035420 0.19054416 -0.50043809
v -0.26029694 0.22054054 -0.50043809
v -0.25259638 0.23531488 -0.49459392
v -0.34016788 0.30023241 -0.14049093
v -0.33121374 0.31187278 -0.14315994
v -0.32790071 0.31509629 -0.14592098
v -0.32843795 0.31769300 -0.11504337
v -0.32825887 0.31733483 -0.10501161
v -0.30497810 0.31679755 -0.06290580
v -0.30497810 0.32190144 -0.06787567
v -0.31867793 0.31867793 -0.08246315
v -0.31661847 0.31661847 -0.07500835
v -0.32011059 0.31017151 -0.06976238
v -0.31348455 0.31348455 -0.06644914
v -0.32109556 0.31169370 -0.07500835
v 0.35127100 0.26190868 -0.06842788
v 0.31079829 0.27131054 -0.03543349
v 0.38064060 0.16108502 -0.03952903
v 0.40123513 0.17191954 -0.05908637
v 0.39899659 0.17854561 -0.06069697
v 0.39693713 0.18499258 -0.06276774
v 0.39129603 0.20191592 -0.06838186
v -0.29727754 0.28518945 -0.03543349
v -0.31679755 0.30497810 -0.06290580
v -0.31894657 0.29853112 -0.06074299
v 0.31491721 0.12499983 -0.50347525
v 0.31491721 0.11497119 -0.50457966
v 0.31491721 0.10494255 -0.50522387
v 0.30497810 0.12499983 -0.50550002
v 0.33022878 0.30041149 -0.07928795
v 0.32924384 0.30882838 -0.09203474
v 0.33783981 0.28671166 -0.07500835
v 0.33273596 0.30533627 -0.09520993
v 0.33936200 0.29897884 -0.10174438
v 0.34294367 0.29539716 -0.10505763
v 0.38055107 0.24086644 -0.10832486
v 0.31267866 0.14532574 -0.49468595
v 0.31805116 0.13655068 -0.49496204
v 0.42057610 0.18087368 -0.11242040
v 0.42218783 0.17568028 -0.11545753
v 0.42559040 0.16493531 -0.11504337
v 0.42397866 0.16493531 -0.14500062
v 0.42129242 0.17460579 -0.14440240
v 0.33998880 0.02990684 -0.49997795
v 0.33049741 0.07494617 -0.50066817
v 0.32046875 0.12499983 -0.50071418
v 0.42039701 0.17102413 -0.15130499
v 0.43024656 0.14129637 -0.14081305
v 0.38019291 0.22027192 -0.06971635
v 0.40911478 0.17863515 -0.07243137
v 0.36908975 0.23862790 -0.07252342
v -0.30497810 0.13493893 -0.50517786
v -0.29494947 0.15499622 -0.50448763
v -0.29494947 0.14496757 -0.50550002
v -0.30551535 0.14532574 -0.50306112
v -0.31482765 0.13404351 -0.50200272
v -0.32002106 0.13001415 -0.50002396
v -0.30918655 0.14890739 -0.49781513
v -0.30032194 0.16054778 -0.50048411
v -0.26916152 0.20881061 -0.49772310
v -0.42021790 0.18033643 -0.14062899
v -0.38055107 0.24086644 -0.11228234
v -0.34052604 0.30076966 -0.11219031
v -0.34052604 0.30076966 -0.10841689
v -0.33040786 0.31070876 -0.09870724
v -0.32924384 0.30882838 -0.09203474
v -0.38055107 0.24086644 -0.10832486
v -0.34294367 0.29539716 -0.10505763
v -0.37938702 0.23907562 -0.10165235
v -0.33936200 0.29897884 -0.10174438
v -0.33273596 0.30533627 -0.09520993
v -0.34016788 0.28026468 -0.06976238
v -0.33121374 0.29190505 -0.06842788
v -0.32190144 0.30497810 -0.06787567
v -0.33022878 0.30041149 -0.07928795
v -0.33783981 0.28671166 -0.07500835
v 0.37016425 0.16457714 -0.03543349
v 0.37508905 0.16457714 -0.03773434
v 0.37499949 0.15535438 -0.03543349
v 0.37517858 0.15499622 -0.03543349
v 0.38171509 0.15499622 -0.03870071
v 0.38663989 0.15499622 -0.04256617
v 0.40266779 0.16493531 -0.05788991
v 0.40768212 0.16493531 -0.06198545
v 0.41108468 0.17200908 -0.06838186
v 0.40517497 0.17523257 -0.06456243
v 0.40195146 0.18499258 -0.06778362
v 0.40016064 0.19027553 -0.06971635
v -0.30363497 0.27507126 -0.03543349
v -0.33900383 0.26853475 -0.06074299
v -0.37902886 0.20854199 -0.06069697
v -0.39899659 0.17854561 -0.06069697
v -0.40123513 0.17191954 -0.05908637
v -0.32790071 0.28680119 -0.06175536
v -0.36792573 0.22689797 -0.06170934
v 0.32154328 0.11497119 -0.50181866
v 0.32243869 0.10494255 -0.50250888
v 0.34240642 0.00492478 -0.50246286
v 0.33497447 0.01495342 -0.50448763
v 0.33497447 0.00492478 -0.50522387
v 0.32494584 0.05497844 -0.50522387
v 0.31491721 0.09491391 -0.50550002
v 0.34034696 0.29056194 -0.08895157
v 0.35028607 0.27041510 -0.07924193
v 0.35046515 0.28071237 -0.09866123
v 0.37938702 0.23907562 -0.10165235
v 0.41699442 0.18454488 -0.10496560
v 0.42057610 0.18087368 -0.10823283
v 0.42523223 0.16493531 -0.10501161
v 0.43051517 0.14290811 -0.10804875
v 0.43051517 0.14290811 -0.11265048
v 0.34625670 0.00492478 -0.49496204
v 0.34061560 0.02328077 -0.50085229
v 0.45021430 0.04109951 -0.14067501
v 0.45379594 0.01495342 -0.14500062
v 0.44054383 0.09285446 -0.11255844
v 0.41215917 0.17514303 -0.07546851
v 0.41941205 0.17881423 -0.10156031
v 0.40678671 0.19448398 -0.09511790
v 0.37285051 0.24534351 -0.09516391
v -0.30497810 0.12499983 -0.50550002
v -0.31491721 0.10494255 -0.50522387
v -0.31491721 0.11497119 -0.50457966
v -0.31491721 0.12499983 -0.50347525
v -0.32046875 0.12499983 -0.50071418
v -0.31805116 0.13655068 -0.49496204
v -0.33049741 0.07494617 -0.50066817
v -0.33998880 0.02990684 -0.49997795
v -0.43024656 0.14129637 -0.14081305
v -0.42397866 0.16493531 -0.14500062
v -0.42039701 0.17102413 -0.15130499
v -0.42129242 0.17460579 -0.14440240
v -0.31267866 0.14532574 -0.49468595
v -0.42559040 0.16493531 -0.11504337
v -0.42218783 0.17568028 -0.11545753
v -0.42057610 0.18087368 -0.11242040
v -0.34034696 0.29056194 -0.08895157
v -0.42057610 0.18087368 -0.10823283
v -0.41699442 0.18454488 -0.10496560
v -0.37285051 0.24534351 -0.09516391
v -0.35046515 0.28071237 -0.09866123
v -0.35127100 0.26190868 -0.06842788
v -0.36908975 0.23862790 -0.07252342
v -0.40911478 0.17863515 -0.07243137
v -0.38019291 0.22027192 -0.06971635
v -0.35028607 0.27041510 -0.07924193
v 0.37723804 0.14828061 -0.03543349
v 0.41690490 0.01602792 -0.03543349
v 0.39290777 0.15499622 -0.04758205
v 0.40893570 0.15499622 -0.06092705
v 0.41215917 0.16493531 -0.06700134
v 0.41600946 0.16493531 -0.07500835
v 0.41985974 0.16941237 -0.09037812
v -0.38064060 0.16108502 -0.03952903
v -0.37508905 0.16457714 -0.03773434
v -0.37016425 0.16457714 -0.03543349
v -0.38789347 0.19690160 -0.06170934
v -0.39693713 0.18499258 -0.06276774
v -0.40517497 0.17523257 -0.06456243
v -0.41108468 0.17200908 -0.06838186
v -0.40768212 0.16493531 -0.06198545
v -0.40266779 0.16493531 -0.05788991
v -0.39129603 0.20191592 -0.06838186
v 0.34142146 0.01495342 -0.50177264
v 0.33246732 0.05497844 -0.50246286
v 0.34240642 -0.00492478 -0.50246286
v 0.33497447 -0.00492478 -0.50522387
v 0.32494584 0.04494980 -0.50550002
v 0.42200875 0.17523257 -0.10496560
v 0.42084470 0.17218816 -0.09705062
v 0.42182967 0.16565163 -0.09424357
v 0.43123150 0.13467030 -0.10482754
v 0.44054383 0.09285446 -0.10814078
v 0.35046515 0.00250716 -0.48166305
v 0.34625670 -0.00492478 -0.49496204
v 0.45567632 0.00492478 -0.14500062
v 0.45048290 0.04271126 -0.11251242
v 0.45737761 0.00492478 -0.11504337
v -0.31491721 0.09491391 -0.50550002
v -0.32494584 0.05497844 -0.50522387
v -0.33497447 0.00492478 -0.50522387
v -0.33497447 0.01495342 -0.50448763
v -0.34240642 0.00492478 -0.50246286
v -0.32243869 0.10494255 -0.50250888
v -0.32154328 0.11497119 -0.50181866
v -0.34061560 0.02328077 -0.50085229
v -0.34625670 0.00492478 -0.49496204
v -0.45379594 0.01495342 -0.14500062
v -0.45021430 0.04109951 -0.14067501
v -0.44054383 0.09285446 -0.11255844
v -0.43051517 0.14290811 -0.11265048
v -0.43051517 0.14290811 -0.10804875
v -0.42523223 0.16493531 -0.10501161
v -0.42200875 0.17523257 -0.10496560
v -0.41941205 0.17881423 -0.10156031
v -0.40678671 0.19448398 -0.09511790
v -0.41215917 0.17514303 -0.07546851
v -0.40016064 0.19027553 -0.06971635
v 0.41905388 0.00492478 -0.03543349
v 0.44215557 0.01495342 -0.06704736
v 0.42120287 0.12499983 -0.06819779
v 0.41977021 0.13905783 -0.07059069
v 0.42039701 0.13234223 -0.06925619
v 0.42397866 0.12499983 -0.07500835
v 0.41950157 0.15759291 -0.08154279
v -0.38663989 0.15499622 -0.04256617
v -0.38171509 0.15499622 -0.03870071
v -0.37517858 0.15499622 -0.03543349
v -0.37499949 0.15535438 -0.03543349
v -0.40195146 0.18499258 -0.06778362
v -0.41985974 0.16941237 -0.09037812
v -0.41600946 0.16493531 -0.07500835
v -0.41215917 0.16493531 -0.06700134
v -0.40893570 0.15499622 -0.06092705
v -0.41690490 0.01495342 -0.03543349
v -0.39290777 0.15499622 -0.04758205
v 0.34142146 -0.01495342 -0.50177264
v 0.32154328 -0.11497119 -0.50181866
v 0.33246732 -0.05497844 -0.50246286
v 0.32243869 -0.10494255 -0.50250888
v 0.31491721 -0.11497119 -0.50457966
v 0.33497447 -0.01495342 -0.50448763
v 0.32494584 -0.05497844 -0.50522387
v 0.32494584 -0.04494980 -0.50550002
v 0.45173651 0.01549067 -0.09433560
v 0.43955886 0.08775060 -0.10146828
v 0.45307961 0.02498206 -0.10501161
v 0.45048290 0.04271126 -0.10818680
v 0.35046515 -0.00250716 -0.48166305
v 0.33998880 -0.02990684 -0.49997795
v 0.34061560 -0.02328077 -0.50085229
v 0.45567632 -0.00492478 -0.14500062
v 0.45379594 -0.01495342 -0.14500062
v 0.45701945 0.00492478 -0.10501161
v 0.45737761 -0.00492478 -0.11504337
v -0.32494584 0.04494980 -0.50550002
v -0.33497447 -0.00492478 -0.50522387
v -0.34240642 -0.00492478 -0.50246286
v -0.34142146 0.01495342 -0.50177264
v -0.33246732 0.05497844 -0.50246286
v -0.34625670 -0.00492478 -0.49496204
v -0.35046515 0.00250716 -0.48166305
v -0.45567632 0.00492478 -0.14500062
v -0.45737761 0.00492478 -0.11504337
v -0.45048290 0.04271126 -0.11251242
v -0.44054383 0.09285446 -0.10814078
v -0.43123150 0.13467030 -0.10482754
v -0.42182967 0.16565163 -0.09424357
v -0.42084470 0.17218816 -0.09705062
v 0.41914341 0.00170129 -0.03543349
v 0.44305098 0.00492478 -0.06603497
v 0.44815484 0.00429799 -0.07583666
v 0.44036475 0.03223491 -0.06930220
v 0.44108108 0.02498206 -0.06828982
v 0.43042564 0.08228857 -0.06925619
v 0.43973795 0.03886098 -0.07072873
v 0.44385687 0.02498206 -0.07500835
v 0.44072291 0.04494980 -0.07767734
v -0.41950157 0.15759291 -0.08154279
v -0.42397866 0.12499983 -0.07500835
v -0.41977021 0.13905783 -0.07059069
v -0.42039701 0.13234223 -0.06925619
v -0.42120287 0.12499983 -0.06819779
v -0.41914341 0.00492478 -0.03543349
v 0.33049741 -0.07494617 -0.50066817
v 0.32046875 -0.12499983 -0.50071418
v 0.31491721 -0.12499983 -0.50347525
v 0.31491721 -0.10494255 -0.50522387
v 0.30497810 -0.13493893 -0.50517786
v 0.31491721 -0.09491391 -0.50550002
v 0.44582677 0.01495342 -0.07500835
v 0.45048290 0.01244626 -0.08839937
v 0.45102018 0.00429799 -0.08504011
v 0.45397502 0.00492478 -0.09502587
v 0.32002106 -0.13001415 -0.50002396
v 0.45021430 -0.04109951 -0.14067501
v 0.43024656 -0.14129637 -0.14081305
v 0.45701945 -0.00492478 -0.10501161
v 0.45003521 0.00044771 -0.07970211
v 0.45048290 -0.04271126 -0.10818680
v 0.45048290 -0.04271126 -0.11251242
v -0.32494584 -0.04494980 -0.50550002
v -0.33497447 -0.01495342 -0.50448763
v -0.32494584 -0.05497844 -0.50522387
v -0.31491721 -0.11497119 -0.50457966
v -0.32243869 -0.10494255 -0.50250888
v -0.33246732 -0.05497844 -0.50246286
v -0.32154328 -0.11497119 -0.50181866
v -0.34142146 -0.01495342 -0.50177264
v -0.35046515 -0.00250716 -0.48166305
v -0.34061560 -0.02328077 -0.50085229
v -0.33998880 -0.02990684 -0.49997795
v -0.45379594 -0.01495342 -0.14500062
v -0.45567632 -0.00492478 -0.14500062
v -0.45737761 -0.00492478 -0.11504337
v -0.45701945 0.00492478 -0.10501161
v -0.45048290 0.04271126 -0.10818680
v -0.45307961 0.02498206 -0.10501161
v -0.43955886 0.08775060 -0.10146828
v -0.45173651 0.01549067 -0.09433560
v 0.41914341 -0.00492478 -0.03543349
v 0.44305098 -0.00492478 -0.06603497
v 0.44815484 -0.00429799 -0.07583666
v -0.44072291 0.04494980 -0.07767734
v -0.44385687 0.02498206 -0.07500835
v -0.43973795 0.03886098 -0.07072873
v -0.43042564 0.08228857 -0.06925619
v -0.44108108 0.02498206 -0.06828982
v -0.44215557 0.01495342 -0.06704736
v -0.41905388 -0.00492478 -0.03543349
v -0.44305098 0.00492478 -0.06603497
v -0.44305098 -0.00492478 -0.06603497
v 0.31482765 -0.13404351 -0.50200272
v 0.30497810 -0.12499983 -0.50550002
v 0.27498171 -0.17496395 -0.50550002
v 0.29494947 -0.14496757 -0.50550002
v 0.30551535 -0.14532574 -0.50306112
v 0.29494947 -0.15499622 -0.50448763
v 0.24498534 -0.22492807 -0.50517786
v 0.31805116 -0.13655068 -0.49496204
v 0.30918655 -0.14890739 -0.49781513
v 0.31151462 -0.14219178 -0.50145048
v 0.42397866 -0.16493531 -0.14500062
v 0.42039701 -0.17102413 -0.15130499
v 0.42129242 -0.17460579 -0.14440240
v 0.42021790 -0.18033643 -0.14062899
v 0.44054383 -0.09285446 -0.11255844
v 0.43051517 -0.14290811 -0.11265048
v 0.42559040 -0.16493531 -0.11504337
v 0.45397502 -0.00492478 -0.09502587
v 0.45173651 -0.01549067 -0.09433560
v 0.45307961 -0.02498206 -0.10501161
v 0.45003521 -0.00044771 -0.07970211
v 0.44054383 -0.09285446 -0.10814078
v -0.31491721 -0.09491391 -0.50550002
v -0.31491721 -0.10494255 -0.50522387
v -0.31491721 -0.12499983 -0.50347525
v -0.30497810 -0.13493893 -0.50517786
v -0.32046875 -0.12499983 -0.50071418
v -0.33049741 -0.07494617 -0.50066817
v -0.32002106 -0.13001415 -0.50002396
v -0.43024656 -0.14129637 -0.14081305
v -0.45021430 -0.04109951 -0.14067501
v -0.45048290 -0.04271126 -0.10818680
v -0.45701945 -0.00492478 -0.10501161
v -0.45048290 -0.04271126 -0.11251242
v -0.45397502 0.00492478 -0.09502587
v -0.45003521 0.00044771 -0.07970211
v -0.45102018 0.00429799 -0.08504011
v -0.45048290 0.01244626 -0.08839937
v -0.44582677 0.01495342 -0.07500835
v 0.41717350 -0.01566975 -0.03543349
v 0.44215557 -0.01495342 -0.06704736
v 0.44036475 -0.03223491 -0.06930220
v 0.43973795 -0.03886098 -0.07072873
v 0.44582677 -0.01495342 -0.07500835
v 0.45102018 -0.00429799 -0.08504011
v -0.44815484 0.00429799 -0.07583666
v -0.44036475 0.03223491 -0.06930220
v -0.41215917 -0.16493531 -0.06700134
v -0.41672581 -0.01575929 -0.03543349
v -0.44215557 -0.01495342 -0.06704736
v -0.42120287 -0.12499983 -0.06819779
v -0.44815484 -0.00429799 -0.07583666
v 0.23495671 -0.23495671 -0.50550002
v 0.26549032 -0.20531850 -0.50306112
v 0.25492445 -0.21498896 -0.50444162
v 0.24543305 -0.23531488 -0.50301504
v 0.31267866 -0.14532574 -0.49468595
v 0.34016788 -0.30023241 -0.14049093
v 0.25259638 -0.23531488 -0.49459392
v 0.26916152 -0.20881061 -0.49772310
v 0.26029694 -0.22054054 -0.50043809
v 0.28035420 -0.19054416 -0.50043809
v 0.30032194 -0.16054778 -0.50048411
v 0.25143233 -0.23218092 -0.50140446
v 0.42218783 -0.17568028 -0.11545753
v 0.42057610 -0.18087368 -0.11242040
v 0.38055107 -0.24086644 -0.11228234
v 0.43051517 -0.14290811 -0.10804875
v 0.42523223 -0.16493531 -0.10501161
v 0.42057610 -0.18087368 -0.10823283
v 0.45048290 -0.01244626 -0.08839937
v 0.44385687 -0.02498206 -0.07500835
v 0.44072291 -0.04494980 -0.07767734
v 0.42397866 -0.12499983 -0.07500835
v 0.42182967 -0.16565163 -0.09424357
v 0.43955886 -0.08775060 -0.10146828
v 0.43123150 -0.13467030 -0.10482754
v -0.30497810 -0.12499983 -0.50550002
v -0.31482765 -0.13404351 -0.50200272
v -0.29494947 -0.15499622 -0.50448763
v -0.30551535 -0.14532574 -0.50306112
v -0.29494947 -0.14496757 -0.50550002
v -0.27498171 -0.17496395 -0.50550002
v -0.24498534 -0.22492807 -0.50517786
v -0.31151462 -0.14219178 -0.50145048
v -0.30918655 -0.14890739 -0.49781513
v -0.31805116 -0.13655068 -0.49496204
v -0.42021790 -0.18033643 -0.14062899
v -0.42129242 -0.17460579 -0.14440240
v -0.42039701 -0.17102413 -0.15130499
v -0.42397866 -0.16493531 -0.14500062
v -0.42559040 -0.16493531 -0.11504337
v -0.43051517 -0.14290811 -0.11265048
v -0.44054383 -0.09285446 -0.11255844
v -0.44054383 -0.09285446 -0.10814078
v -0.45307961 -0.02498206 -0.10501161
v -0.45173651 -0.01549067 -0.09433560
v -0.45397502 -0.00492478 -0.09502587
v -0.45003521 -0.00044771 -0.07970211
v 0.41457680 -0.02498206 -0.03543349
v 0.40768212 -0.16493531 -0.06198545
v 0.41215917 -0.16493531 -0.06700134
v 0.42120287 -0.12499983 -0.06819779
v 0.44108108 -0.02498206 -0.06828982
v 0.43042564 -0.08228857 -0.06925619
v 0.41977021 -0.13905783 -0.07059069
v -0.41108468 -0.17200908 -0.06838186
v -0.40768212 -0.16493531 -0.06198545
v -0.40893570 -0.15499622 -0.06092705
v -0.42039701 -0.13234223 -0.06925619
v -0.41977021 -0.13905783 -0.07059069
v -0.41600946 -0.16493531 -0.07500835
v -0.39290777 -0.15499622 -0.04758205
v -0.38663989 -0.15499622 -0.04256617
v -0.38171509 -0.15499622 -0.03870071
v -0.37759620 -0.14917602 -0.03543349
v -0.44036475 -0.03223491 -0.06930220
v -0.44108108 -0.02498206 -0.06828982
v -0.43042564 -0.08228857 -0.06925619
v -0.44582677 -0.01495342 -0.07500835
v -0.43973795 -0.03886098 -0.07072873
v -0.45102018 -0.00429799 -0.08504011
v 0.23531488 -0.24543305 -0.50301504
v 0.22492807 -0.24498534 -0.50517786
v 0.17496395 -0.27498171 -0.50550002
v 0.24247818 -0.24247818 -0.50181866
v 0.34052604 -0.30076966 -0.11219031
v 0.32843795 -0.31769300 -0.11504337
v 0.33121374 -0.31187278 -0.14315994
v 0.24910425 -0.23880699 -0.49767709
v 0.38055107 -0.24086644 -0.10832486
v 0.41985974 -0.16941237 -0.09037812
v 0.42084470 -0.17218816 -0.09705062
v 0.42200875 -0.17523257 -0.10496560
v 0.41941205 -0.17881423 -0.10156031
v 0.40911478 -0.17863515 -0.07243137
v 0.41699442 -0.18454488 -0.10496560
v 0.41600946 -0.16493531 -0.07500835
v 0.41950157 -0.15759291 -0.08154279
v -0.26549032 -0.20531850 -0.50306112
v -0.25492445 -0.21498896 -0.50444162
v -0.23495671 -0.23495671 -0.50550002
v -0.24543305 -0.23531488 -0.50301504
v -0.28035420 -0.19054416 -0.50043809
v -0.30032194 -0.16054778 -0.50048411
v -0.25143233 -0.23218092 -0.50140446
v -0.31267866 -0.14532574 -0.49468595
v -0.26029694 -0.22054054 -0.50043809
v -0.26916152 -0.20881061 -0.49772310
v -0.25259638 -0.23531488 -0.49459392
v -0.34016788 -0.30023241 -0.14049093
v -0.38055107 -0.24086644 -0.11228234
v -0.42057610 -0.18087368 -0.11242040
v -0.42218783 -0.17568028 -0.11545753
v -0.42057610 -0.18087368 -0.10823283
v -0.42523223 -0.16493531 -0.10501161
v -0.43051517 -0.14290811 -0.10804875
v -0.43123150 -0.13467030 -0.10482754
v -0.43955886 -0.08775060 -0.10146828
v -0.44385687 -0.02498206 -0.07500835
v -0.45048290 -0.01244626 -0.08839937
v -0.42182967 -0.16565163 -0.09424357
v -0.42397866 -0.12499983 -0.07500835
v -0.44072291 -0.04494980 -0.07767734
v 0.40607038 -0.05497844 -0.03543349
v 0.38663989 -0.15499622 -0.04256617
v 0.39290777 -0.15499622 -0.04758205
v 0.40266779 -0.16493531 -0.05788991
v 0.40123513 -0.17191954 -0.05908637
v 0.41108468 -0.17200908 -0.06838186
v 0.42039701 -0.13234223 -0.06925619
v -0.40517497 -0.17523257 -0.06456243
v -0.40123513 -0.17191954 -0.05908637
v -0.41985974 -0.16941237 -0.09037812
v -0.41215917 -0.17514303 -0.07546851
v -0.40911478 -0.17863515 -0.07243137
v -0.40016064 -0.19027553 -0.06971635
v -0.39129603 -0.20191592 -0.06838186
v -0.30094874 -0.29485992 -0.03543349
v -0.40266779 -0.16493531 -0.05788991
v -0.41950157 -0.15759291 -0.08154279
v -0.38064060 -0.16108502 -0.03952903
v -0.37499949 -0.15544392 -0.03543349
v 0.23218092 -0.25143233 -0.50140446
v 0.20531850 -0.26549032 -0.50306112
v 0.21498896 -0.25492445 -0.50444162
v 0.15499622 -0.29494947 -0.50448763
v 0.13493893 -0.30497810 -0.50517786
v 0.14496757 -0.29494947 -0.50550002
v 0.23880699 -0.24910425 -0.49767709
v 0.34052604 -0.30076966 -0.10841689
v 0.32816932 -0.31733483 -0.10501161
v 0.32324454 -0.32324454 -0.10501161
v 0.32342362 -0.32342362 -0.11504337
v 0.32243869 -0.32243869 -0.14500062
v 0.32790071 -0.31509629 -0.14592098
v 0.24874608 -0.24874608 -0.47742945
v 0.24480626 -0.24480626 -0.49431783
v 0.32100603 -0.32100603 -0.15240940
v 0.37938702 -0.23907562 -0.10165235
v 0.34294367 -0.29539716 -0.10505763
v 0.41215917 -0.17514303 -0.07546851
v 0.40678671 -0.19448398 -0.09511790
v 0.40016064 -0.19027553 -0.06971635
v 0.38019291 -0.22027192 -0.06971635
v 0.34016788 -0.28026468 -0.06976238
v 0.36908975 -0.23862790 -0.07252342
v 0.37285051 -0.24534351 -0.09516391
v -0.17496395 -0.27498171 -0.50550002
v -0.22492807 -0.24498534 -0.50517786
v -0.23531488 -0.24543305 -0.50301504
v -0.24247818 -0.24247818 -0.50181866
v -0.24910425 -0.23880699 -0.49767709
v -0.33121374 -0.31187278 -0.14315994
v -0.32843795 -0.31769300 -0.11504337
v -0.34052604 -0.30076966 -0.11219031
v -0.38055107 -0.24086644 -0.10832486
v -0.41699442 -0.18454488 -0.10496560
v -0.41941205 -0.17881423 -0.10156031
v -0.42200875 -0.17523257 -0.10496560
v -0.42084470 -0.17218816 -0.09705062
v 0.40284687 -0.06572340 -0.03543349
v 0.38171509 -0.15499622 -0.03870071
v 0.38064060 -0.16108502 -0.03952903
v 0.39899659 -0.17854561 -0.06069697
v 0.40517497 -0.17523257 -0.06456243
v 0.30193371 -0.28286138 -0.03543349
v 0.40195146 -0.18499258 -0.06778362
v 0.39129603 -0.20191592 -0.06838186
v -0.39899659 -0.17854561 -0.06069697
v -0.30488855 -0.28823385 -0.03543349
v -0.40678671 -0.19448398 -0.09511790
v -0.37285051 -0.24534351 -0.09516391
v -0.36908975 -0.23862790 -0.07252342
v -0.34016788 -0.28026468 -0.06976238
v -0.38019291 -0.22027192 -0.06971635
v -0.32011059 -0.31017151 -0.06976238
v -0.29521808 -0.30085918 -0.03543349
v -0.37070152 -0.16493531 -0.03543349
v -0.31267866 -0.27408630 -0.03543349
v -0.33049741 -0.24077690 -0.03543349
v 0.22054054 -0.26029694 -0.50043809
v 0.19054416 -0.28035420 -0.50043809
v 0.14219178 -0.31151462 -0.50145048
v 0.14532574 -0.30551535 -0.50306112
v 0.13404351 -0.31482765 -0.50200272
v 0.12499983 -0.31491721 -0.50347525
v 0.11497119 -0.31491721 -0.50457966
v 0.10494255 -0.31491721 -0.50522387
v 0.12499983 -0.30497810 -0.50550002
v 0.23531488 -0.25259638 -0.49459392
v 0.31509629 -0.32790071 -0.14592098
v 0.31187278 -0.33121374 -0.14315994
v 0.30023241 -0.34016788 -0.14049093
v 0.33157191 -0.31232050 -0.10501161
v 0.33040786 -0.31070876 -0.09870724
v 0.32664713 -0.31437996 -0.09520993
v 0.32028967 -0.32028967 -0.08913565
v 0.31733483 -0.32816932 -0.10501161
v 0.31769300 -0.32843795 -0.11504337
v 0.35046515 -0.28071237 -0.09866123
v 0.33936200 -0.29897884 -0.10174438
v 0.35127100 -0.26190868 -0.06842788
v 0.33121374 -0.29190505 -0.06842788
v 0.32011059 -0.31017151 -0.06976238
v 0.32109556 -0.31169370 -0.07500835
v 0.33783981 -0.28671166 -0.07500835
v 0.35028607 -0.27041510 -0.07924193
v 0.34034696 -0.29056194 -0.08895157
v -0.14496757 -0.29494947 -0.50550002
v -0.13493893 -0.30497810 -0.50517786
v -0.15499622 -0.29494947 -0.50448763
v -0.21498896 -0.25492445 -0.50444162
v -0.20531850 -0.26549032 -0.50306112
v -0.23218092 -0.25143233 -0.50140446
v -0.23880699 -0.24910425 -0.49767709
v -0.24480626 -0.24480626 -0.49431783
v -0.24874608 -0.24874608 -0.47742945
v -0.32100603 -0.32100603 -0.15240940
v -0.32790071 -0.31509629 -0.14592098
v -0.32243869 -0.32243869 -0.14500062
v -0.32342362 -0.32342362 -0.11504337
v -0.32324454 -0.32324454 -0.10501161
v -0.32816932 -0.31733483 -0.10501161
v -0.34052604 -0.30076966 -0.10841689
v -0.34294367 -0.29539716 -0.10505763
v -0.37938702 -0.23907562 -0.10165235
v 0.37517858 -0.15499622 -0.03543349
v 0.37499949 -0.15535438 -0.03543349
v 0.37508905 -0.16457714 -0.03773434
v 0.30676892 -0.27453402 -0.03543349
v 0.38789347 -0.19690160 -0.06170934
v 0.39693713 -0.18499258 -0.06276774
v 0.29835203 -0.28778616 -0.03543349
v 0.31008196 -0.31008196 -0.05996069
v 0.31894657 -0.29853112 -0.06074299
v 0.32790071 -0.28680119 -0.06175536
v 0.36792573 -0.22689797 -0.06170934
v -0.35046515 -0.28071237 -0.09866123
v -0.34034696 -0.29056194 -0.08895157
v -0.35028607 -0.27041510 -0.07924193
v -0.33783981 -0.28671166 -0.07500835
v -0.32109556 -0.31169370 -0.07500835
v -0.32028967 -0.32028967 -0.08913565
v -0.31867793 -0.31867793 -0.08246315
v -0.31661847 -0.31661847 -0.07500835
v -0.31017151 -0.32011059 -0.06976238
v -0.28698027 -0.30551535 -0.03543349
v -0.28026468 -0.34016788 -0.06976238
v -0.22027192 -0.38019291 -0.06971635
v -0.20191592 -0.39129603 -0.06838186
v -0.17200908 -0.41108468 -0.06838186
v -0.17523257 -0.40517497 -0.06456243
v -0.17854561 -0.39899659 -0.06069697
v -0.17191954 -0.40123513 -0.05908637
v 0.20881061 -0.26916152 -0.49772310
v 0.14890739 -0.30918655 -0.49781513
v 0.16054778 -0.30032194 -0.50048411
v 0.13001415 -0.32002106 -0.50002396
v 0.12499983 -0.32046875 -0.50071418
v 0.11497119 -0.32154328 -0.50181866
v 0.10494255 -0.32243869 -0.50250888
v 0.00492478 -0.34240642 -0.50246286
v 0.01495342 -0.33497447 -0.50448763
v 0.00492478 -0.33497447 -0.50522387
v 0.05497844 -0.32494584 -0.50522387
v 0.09491391 -0.31491721 -0.50550002
v 0.30076966 -0.34052604 -0.11219031
v 0.24086644 -0.38055107 -0.11228234
v 0.18033643 -0.42021790 -0.14062899
v 0.32924384 -0.30882838 -0.09203474
v 0.33273596 -0.30533627 -0.09520993
v 0.32252821 -0.31518582 -0.08550029
v 0.31867793 -0.31867793 -0.08246315
v 0.31017151 -0.32011059 -0.06976238
v 0.31169370 -0.32109556 -0.07500835
v 0.31518582 -0.32252821 -0.08550029
v 0.31437996 -0.32664713 -0.09520993
v 0.31070876 -0.33040786 -0.09870724
v 0.31232050 -0.33157191 -0.10501161
v 0.30076966 -0.34052604 -0.10841689
v 0.32190144 -0.30497810 -0.06787567
v 0.31661847 -0.31661847 -0.07500835
v 0.31679755 -0.30497810 -0.06290580
v 0.31348455 -0.31348455 -0.06644914
v 0.33022878 -0.30041149 -0.07928795
v -0.12499983 -0.30497810 -0.50550002
v -0.10494255 -0.31491721 -0.50522387
v -0.11497119 -0.31491721 -0.50457966
v -0.12499983 -0.31491721 -0.50347525
v -0.13404351 -0.31482765 -0.50200272
v -0.14532574 -0.30551535 -0.50306112
v -0.14219178 -0.31151462 -0.50145048
v -0.22054054 -0.26029694 -0.50043809
v -0.19054416 -0.28035420 -0.50043809
v -0.23531488 -0.25259638 -0.49459392
v -0.30023241 -0.34016788 -0.14049093
v -0.31187278 -0.33121374 -0.14315994
v -0.31509629 -0.32790071 -0.14592098
v -0.31769300 -0.32843795 -0.11504337
v -0.31733483 -0.32816932 -0.10501161
v -0.32664713 -0.31437996 -0.09520993
v -0.33040786 -0.31070876 -0.09870724
v -0.33157191 -0.31232050 -0.10501161
v -0.33936200 -0.29897884 -0.10174438
v 0.37016425 -0.16457714 -0.03543349
v 0.29342726 -0.29315862 -0.03543349
v 0.28706983 -0.29808342 -0.03543349
v 0.28214502 -0.30148599 -0.03543349
v 0.29853112 -0.31894657 -0.06074299
v 0.30497810 -0.31679755 -0.06290580
v -0.33273596 -0.30533627 -0.09520993
v -0.32924384 -0.30882838 -0.09203474
v -0.33022878 -0.30041149 -0.07928795
v -0.32252821 -0.31518582 -0.08550029
v -0.31437996 -0.32664713 -0.09520993
v -0.31518582 -0.32252821 -0.08550029
v -0.31169370 -0.32109556 -0.07500835
v -0.27408630 -0.31258911 -0.03543349
v -0.16108502 -0.38064060 -0.03952903
v -0.28671166 -0.33783981 -0.07500835
v -0.23862790 -0.36908975 -0.07252342
v -0.17863515 -0.40911478 -0.07243137
v -0.19027553 -0.40016064 -0.06971635
v -0.17514303 -0.41215917 -0.07546851
v -0.16941237 -0.41985974 -0.09037812
v -0.16493531 -0.41600946 -0.07500835
v -0.16493531 -0.41215917 -0.06700134
v -0.16493531 -0.40768212 -0.06198545
v -0.16493531 -0.40266779 -0.05788991
v 0.14532574 -0.31267866 -0.49468595
v 0.13655068 -0.31805116 -0.49496204
v 0.02990684 -0.33998880 -0.49997795
v 0.07494617 -0.33049741 -0.50066817
v 0.17460579 -0.42129242 -0.14440240
v 0.17102413 -0.42039701 -0.15130499
v 0.16493531 -0.42397866 -0.14500062
v 0.14129637 -0.43024656 -0.14081305
v 0.02328077 -0.34061560 -0.50085229
v 0.01495342 -0.34142146 -0.50177264
v 0.05497844 -0.33246732 -0.50246286
v 0.00492478 -0.34625670 -0.49496204
v -0.00492478 -0.34240642 -0.50246286
v 0.04494980 -0.32494584 -0.50550002
v -0.00492478 -0.33497447 -0.50522387
v 0.24086644 -0.38055107 -0.10832486
v 0.18087368 -0.42057610 -0.11242040
v 0.17568028 -0.42218783 -0.11545753
v 0.16493531 -0.42559040 -0.11504337
v 0.30497810 -0.32190144 -0.06787567
v 0.29190505 -0.33121374 -0.06842788
v 0.28026468 -0.34016788 -0.06976238
v 0.28671166 -0.33783981 -0.07500835
v 0.30041149 -0.33022878 -0.07928795
v 0.30882838 -0.32924384 -0.09203474
v 0.30533627 -0.33273596 -0.09520993
v 0.29897884 -0.33936200 -0.10174438
v 0.29539716 -0.34294367 -0.10505763
v -0.09491391 -0.31491721 -0.50550002
v -0.05497844 -0.32494584 -0.50522387
v -0.01495342 -0.33497447 -0.50448763
v -0.10494255 -0.32243869 -0.50250888
v -0.11497119 -0.32154328 -0.50181866
v -0.12499983 -0.32046875 -0.50071418
v -0.13001415 -0.32002106 -0.50002396
v -0.14890739 -0.30918655 -0.49781513
v -0.16054778 -0.30032194 -0.50048411
v -0.20881061 -0.26916152 -0.49772310
v -0.30076966 -0.34052604 -0.11219031
v -0.18033643 -0.42021790 -0.14062899
v -0.24086644 -0.38055107 -0.11228234
v -0.30076966 -0.34052604 -0.10841689
v -0.31232050 -0.33157191 -0.10501161
v -0.31070876 -0.33040786 -0.09870724
v 0.26853475 -0.33900383 -0.06074299
v 0.27453402 -0.30623168 -0.03543349
v 0.17191954 -0.40123513 -0.05908637
v 0.17854561 -0.39899659 -0.06069697
v 0.20854199 -0.37902886 -0.06069697
v 0.22689797 -0.36792573 -0.06170934
v 0.28680119 -0.32790071 -0.06175536
v -0.30882838 -0.32924384 -0.09203474
v -0.30041149 -0.33022878 -0.07928795
v -0.24104552 -0.33058694 -0.03543349
v -0.15499622 -0.38663989 -0.04256617
v -0.15499622 -0.38171509 -0.03870071
v -0.14980280 -0.37795436 -0.03543349
v -0.15499622 -0.37571582 -0.03543349
v -0.16475622 -0.37123877 -0.03543349
v -0.21669026 -0.34366000 -0.03543349
v -0.29056194 -0.34034696 -0.08895157
v -0.27041510 -0.35028607 -0.07924193
v -0.24534351 -0.37285051 -0.09516391
v -0.19448398 -0.40678671 -0.09511790
v -0.18454488 -0.41699442 -0.10496560
v -0.18087368 -0.42057610 -0.10823283
v -0.17881423 -0.41941205 -0.10156031
v -0.16493531 -0.42523223 -0.10501161
v -0.16565163 -0.42182967 -0.09424357
v -0.17218816 -0.42084470 -0.09705062
v -0.13905783 -0.41977021 -0.07059069
v -0.15759291 -0.41950157 -0.08154279
v -0.12499983 -0.42397866 -0.07500835
v -0.13234223 -0.42039701 -0.06925619
v -0.12499983 -0.42120287 -0.06819779
v -0.01611746 -0.41690490 -0.03543349
v -0.15499622 -0.39290777 -0.04758205
v 0.04109951 -0.45021430 -0.14067501
v 0.01495342 -0.45379594 -0.14500062
v 0.14290811 -0.43051517 -0.11265048
v 0.09285446 -0.44054383 -0.11255844
v 0.00492478 -0.45567632 -0.14500062
v 0.00250716 -0.35046515 -0.48166305
v -0.00492478 -0.34625670 -0.49496204
v -0.01495342 -0.34142146 -0.50177264
v -0.05497844 -0.33246732 -0.50246286
v -0.04494980 -0.32494584 -0.50550002
v 0.23907562 -0.37938702 -0.10165235
v 0.18454488 -0.41699442 -0.10496560
v 0.18087368 -0.42057610 -0.10823283
v 0.16493531 -0.42523223 -0.10501161
v 0.14290811 -0.43051517 -0.10804875
v 0.26190868 -0.35127100 -0.06842788
v 0.22027192 -0.38019291 -0.06971635
v 0.17863515 -0.40911478 -0.07243137
v 0.23862790 -0.36908975 -0.07252342
v 0.27041510 -0.35028607 -0.07924193
v 0.29056194 -0.34034696 -0.08895157
v 0.28071237 -0.35046515 -0.09866123
v -0.02328077 -0.34061560 -0.50085229
v -0.07494617 -0.33049741 -0.50066817
v -0.02990684 -0.33998880 -0.49997795
v -0.14129637 -0.43024656 -0.14081305
v -0.16493531 -0.42397866 -0.14500062
v -0.17102413 -0.42039701 -0.15130499
v -0.17460579 -0.42129242 -0.14440240
v -0.13655068 -0.31805116 -0.49496204
v -0.14532574 -0.31267866 -0.49468595
v -0.16493531 -0.42559040 -0.11504337
v -0.17568028 -0.42218783 -0.11545753
v -0.18087368 -0.42057610 -0.11242040
v -0.24086644 -0.38055107 -0.10832486
v -0.29539716 -0.34294367 -0.10505763
v -0.29897884 -0.33936200 -0.10174438
v -0.30533627 -0.33273596 -0.09520993
v 0.16457714 -0.37016425 -0.03543349
v 0.16457714 -0.37508905 -0.03773434
v 0.16108502 -0.38064060 -0.03952903
v 0.16493531 -0.40266779 -0.05788991
v 0.16493531 -0.40768212 -0.06198545
v 0.17200908 -0.41108468 -0.06838186
v 0.17523257 -0.40517497 -0.06456243
v 0.18499258 -0.39693713 -0.06276774
v 0.19690160 -0.38789347 -0.06170934
v 0.20191592 -0.39129603 -0.06838186
v -0.06545478 -0.40311551 -0.03543349
v -0.07297626 -0.40096650 -0.03543349
v -0.28071237 -0.35046515 -0.09866123
v -0.23907562 -0.37938702 -0.10165235
v -0.17523257 -0.42200875 -0.10496560
v -0.14290811 -0.43051517 -0.10804875
v -0.13467030 -0.43123150 -0.10482754
v -0.08775060 -0.43955886 -0.10146828
v -0.01549067 -0.45173651 -0.09433560
v -0.03886098 -0.43973795 -0.07072873
v -0.08228857 -0.43042564 -0.06925619
v -0.04494980 -0.44072291 -0.07767734
v -0.02498206 -0.44385687 -0.07500835
v -0.02498206 -0.44108108 -0.06828982
v -0.01495342 -0.44215557 -0.06704736
v -0.00492478 -0.44305098 -0.06603497
v -0.00492478 -0.41878524 -0.03543349
v 0.04271126 -0.45048290 -0.11251242
v 0.00492478 -0.45737761 -0.11504337
v 0.09285446 -0.44054383 -0.10814078
v -0.00492478 -0.45567632 -0.14500062
v -0.00250716 -0.35046515 -0.48166305
v -0.01495342 -0.45379594 -0.14500062
v 0.24534351 -0.37285051 -0.09516391
v 0.19448398 -0.40678671 -0.09511790
v 0.17881423 -0.41941205 -0.10156031
v 0.17523257 -0.42200875 -0.10496560
v 0.17218816 -0.42084470 -0.09705062
v 0.16941237 -0.41985974 -0.09037812
v 0.16565163 -0.42182967 -0.09424357
v 0.13467030 -0.43123150 -0.10482754
v 0.19027553 -0.40016064 -0.06971635
v 0.17514303 -0.41215917 -0.07546851
v -0.04109951 -0.45021430 -0.14067501
v -0.14290811 -0.43051517 -0.11265048
v -0.09285446 -0.44054383 -0.11255844
v 0.15535438 -0.37499949 -0.03543349
v 0.15499622 -0.37517858 -0.03543349
v 0.15499622 -0.38171509 -0.03870071
v 0.15499622 -0.38663989 -0.04256617
v 0.15499622 -0.39290777 -0.04758205
v 0.15499622 -0.40893570 -0.06092705
v 0.16493531 -0.41215917 -0.06700134
v 0.01468479 -0.41672581 -0.03543349
v 0.18499258 -0.40195146 -0.06778362
v 0.16493531 -0.41600946 -0.07500835
v -0.09285446 -0.44054383 -0.10814078
v -0.02498206 -0.45307961 -0.10501161
v -0.00492478 -0.45701945 -0.10501161
v -0.00492478 -0.45397502 -0.09502587
v -0.00429799 -0.45102018 -0.08504011
v -0.01244626 -0.45048290 -0.08839937
v -0.01495342 -0.44582677 -0.07500835
v -0.00429799 -0.44815484 -0.07583666
v -0.03223491 -0.44036475 -0.06930220
v 0.00492478 -0.44305098 -0.06603497
v 0.00492478 -0.41860616 -0.03543349
v 0.04271126 -0.45048290 -0.10818680
v 0.00492478 -0.45701945 -0.10501161
v -0.00492478 -0.45737761 -0.11504337
v 0.08775060 -0.43955886 -0.10146828
v 0.02498206 -0.45307961 -0.10501161
v 0.15759291 -0.41950157 -0.08154279
v 0.12499983 -0.42397866 -0.07500835
v 0.01549067 -0.45173651 -0.09433560
v -0.04271126 -0.45048290 -0.11251242
v 0.13905783 -0.41977021 -0.07059069
v 0.12499983 -0.42120287 -0.06819779
v 0.13234223 -0.42039701 -0.06925619
v 0.01495342 -0.44215557 -0.06704736
v -0.04271126 -0.45048290 -0.10818680
v -0.00044771 -0.45003521 -0.07970211
v 0.00429799 -0.44815484 -0.07583666
v 0.00492478 -0.45397502 -0.09502587
v 0.00044771 -0.45003521 -0.07970211
v 0.03886098 -0.43973795 -0.07072873
v 0.02498206 -0.44385687 -0.07500835
v 0.04494980 -0.44072291 -0.07767734
v 0.01495342 -0.44582677 -0.07500835
v 0.01244626 -0.45048290 -0.08839937
v 0.00429799 -0.45102018 -0.08504011
v 0.08228857 -0.43042564 -0.06925619
v 0.02498206 -0.44108108 -0.06828982
v 0.03223491 -0.44036475 -0.06930220
f 1 2 3
f 1 3 4
f 1 4 5
f 1 5 6
f 1 6 20
f 1 20 7
f 1 7 11
f 1 11 2
f 2 8 9
f 2 9 10
f 2 10 3
f 2 11 35
f 2 35 12
f 2 12 8
f 3 10 13
f 3 13 14
f 3 14 4
f 4 14 5
f 5 15 16
f 5 16 6
f 5 14 17
f 5 17 15
f 6 16 18
f 6 18 19
f 6 19 48
f 6 48 20
f 7 20 21
f 7 21 22
f 7 22 23
f 7 23 11
f 8 12 24
f 8 24 9
f 9 25 10
f 9 24 26
f 9 26 27
f 9 27 28
f 9 28 29
f 9 29 30
f 9 30 31
f 9 31 25
f 10 25 13
f 11 23 32
f 11 32 33
f 11 33 34
f 11 34 35
f 12 35 68
f 12 68 36
f 12 36 24
f 13 25 37
f 13 37 38
f 13 38 39
f 13 39 14
f 14 39 17
f 15 40 18
f 15 18 16
f 15 17 41
f 15 41 42
f 15 42 40
f 17 39 43
f 17 43 44
f 17 44 41
f 18 45 46
f 18 46 89
f 18 89 47
f 18 47 48
f 18 48 19
f 18 40 45
f 20 48 47
f 20 47 49
f 20 49 21
f 21 50 22
f 21 49 51
f 21 51 52
f 21 52 50
f 22 50 53
f 22 53 23
f 23 53 32
f 24 36 27
f 24 27 26
f 25 31 37
f 27 36 54
f 27 54 28
f 28 54 30
f 28 30 29
f 30 54 55
f 30 55 56
f 30 56 57
f 30 57 31
f 31 57 56
f 31 56 58
f 31 58 59
f 31 59 37
f 32 53 60
f 32 60 33
f 33 61 62
f 33 62 63
f 33 63 64
f 33 64 65
f 33 65 66
f 33 66 34
f 33 60 67
f 33 67 61
f 34 66 35
f 35 66 68
f 36 69 70
f 36 70 71
f 36 71 54
f 36 68 115
f 36 115 69
f 37 59 38
f 38 59 43
f 38 43 39
f 40 42 72
f 40 72 45
f 41 73 74
f 41 74 42
f 41 44 75
f 41 75 76
f 41 76 77
f 41 77 78
f 41 78 79
f 41 79 80
f 41 80 73
f 42 74 72
f 43 59 81
f 43 81 82
f 43 82 83
f 43 83 77
f 43 77 44
f 44 77 76
f 44 76 75
f 45 72 46
f 46 72 84
f 46 84 85
f 46 85 86
f 46 86 87
f 46 87 88
f 46 88 139
f 46 139 89
f 47 89 90
f 47 90 91
f 47 91 51
f 47 51 49
f 50 52 92
f 50 92 98
f 50 98 53
f 51 91 93
f 51 93 94
f 51 94 52
f 52 95 96
f 52 96 92
f 52 94 95
f 53 97 60
f 53 98 97
f 54 71 99
f 54 99 55
f 55 100 56
f 55 99 101
f 55 101 100
f 56 100 102
f 56 102 58
f 58 102 103
f 58 103 104
f 58 104 105
f 58 105 59
f 59 105 106
f 59 106 81
f 60 97 67
f 61 107 63
f 61 63 62
f 61 67 108
f 61 108 109
f 61 109 110
f 61 110 107
f 63 107 64
f 64 68 66
f 64 66 65
f 64 107 68
f 67 111 112
f 67 112 109
f 67 109 108
f 67 97 111
f 68 107 113
f 68 113 114
f 68 114 115
f 69 116 70
f 69 115 117
f 69 117 116
f 70 118 71
f 70 116 119
f 70 119 118
f 71 118 99
f 72 74 120
f 72 120 86
f 72 86 85
f 72 85 84
f 73 121 120
f 73 120 74
f 73 80 122
f 73 122 121
f 77 79 123
f 77 123 78
f 77 83 82
f 77 82 124
f 77 124 125
f 77 125 79
f 78 123 79
f 79 126 80
f 79 125 127
f 79 127 128
f 79 128 129
f 79 129 130
f 79 130 126
f 80 126 130
f 80 130 131
f 80 131 132
f 80 132 122
f 81 106 104
f 81 104 133
f 81 133 134
f 81 134 135
f 81 135 124
f 81 124 82
f 86 136 137
f 86 137 88
f 86 88 87
f 86 120 121
f 86 121 136
f 88 137 138
f 88 138 199
f 88 199 139
f 89 139 140
f 89 140 141
f 89 141 142
f 89 142 143
f 89 143 144
f 89 144 90
f 90 144 91
f 91 144 93
f 92 96 98
f 93 144 145
f 93 145 94
f 94 145 146
f 94 146 147
f 94 147 148
f 94 148 149
f 94 149 150
f 94 150 151
f 94 151 152
f 94 152 95
f 95 152 151
f 95 151 150
f 95 150 96
f 96 111 98
f 96 150 153
f 96 153 154
f 96 154 155
f 96 155 111
f 97 98 111
f 99 118 119
f 99 119 101
f 100 156 102
f 100 101 119
f 100 119 116
f 100 116 156
f 102 157 158
f 102 158 159
f 102 159 160
f 102 160 161
f 102 161 133
f 102 133 103
f 102 156 157
f 103 133 104
f 104 106 105
f 107 162 113
f 107 110 162
f 109 112 163
f 109 163 164
f 109 164 110
f 110 164 165
f 110 165 162
f 111 155 166
f 111 166 167
f 111 167 112
f 112 167 168
f 112 168 169
f 112 169 163
f 113 170 114
f 113 162 170
f 114 117 115
f 114 170 171
f 114 171 117
f 116 172 156
f 116 117 177
f 116 177 238
f 116 238 294
f 116 294 291
f 116 291 349
f 116 349 398
f 116 398 464
f 116 464 531
f 116 531 584
f 116 584 583
f 116 583 590
f 116 590 639
f 116 639 685
f 116 685 736
f 116 736 803
f 116 803 870
f 116 870 926
f 116 926 928
f 116 928 927
f 116 927 918
f 116 918 866
f 116 866 925
f 116 925 995
f 116 995 1066
f 116 1066 1131
f 116 1131 1137
f 116 1137 1136
f 116 1136 1135
f 116 1135 1134
f 116 1134 1204
f 116 1204 1203
f 116 1203 1153
f 116 1153 1219
f 116 1219 1259
f 116 1259 1246
f 116 1246 1240
f 116 1240 1239
f 116 1239 1193
f 116 1193 1123
f 116 1123 1056
f 116 1056 1055
f 116 1055 1054
f 116 1054 981
f 116 981 914
f 116 914 978
f 116 978 1053
f 116 1053 976
f 116 976 975
f 116 975 909
f 116 909 852
f 116 852 787
f 116 787 727
f 116 727 676
f 116 676 625
f 116 625 574
f 116 574 523
f 116 523 522
f 116 522 455
f 116 455 454
f 116 454 452
f 116 452 392
f 116 392 342
f 116 342 284
f 116 284 226
f 116 226 225
f 116 225 224
f 116 224 223
f 116 223 222
f 116 222 283
f 116 283 282
f 116 282 292
f 116 292 233
f 116 233 172
f 117 171 164
f 117 164 173
f 117 173 174
f 117 174 175
f 117 175 176
f 117 176 177
f 121 178 136
f 121 122 179
f 121 179 180
f 121 180 181
f 121 181 182
f 121 182 178
f 122 132 179
f 124 135 197
f 124 197 183
f 124 183 125
f 125 183 184
f 125 184 185
f 125 185 186
f 125 186 127
f 127 186 129
f 127 129 128
f 129 186 131
f 129 131 130
f 131 186 187
f 131 187 188
f 131 188 132
f 132 188 189
f 132 189 179
f 133 190 134
f 133 161 191
f 133 191 192
f 133 192 193
f 133 193 194
f 133 194 190
f 134 190 194
f 134 194 195
f 134 195 135
f 135 195 196
f 135 196 197
f 136 178 198
f 136 198 138
f 136 138 137
f 138 198 178
f 138 178 182
f 138 182 181
f 138 181 239
f 138 239 296
f 138 296 352
f 138 352 404
f 138 404 477
f 138 477 543
f 138 543 599
f 138 599 645
f 138 645 689
f 138 689 691
f 138 691 690
f 138 690 740
f 138 740 812
f 138 812 876
f 138 876 937
f 138 937 1014
f 138 1014 1091
f 138 1091 1164
f 138 1164 1106
f 138 1106 1034
f 138 1034 957
f 138 957 896
f 138 896 829
f 138 829 770
f 138 770 769
f 138 769 765
f 138 765 710
f 138 710 657
f 138 657 611
f 138 611 554
f 138 554 496
f 138 496 429
f 138 429 372
f 138 372 319
f 138 319 263
f 138 263 262
f 138 262 261
f 138 261 260
f 138 260 199
f 139 199 200
f 139 200 141
f 139 141 140
f 141 144 142
f 141 200 201
f 141 201 202
f 141 202 203
f 141 203 144
f 142 144 143
f 144 203 145
f 145 203 146
f 146 203 202
f 146 202 204
f 146 204 147
f 147 204 205
f 147 205 206
f 147 206 207
f 147 207 208
f 147 208 148
f 148 209 149
f 148 208 207
f 148 207 210
f 148 210 211
f 148 211 212
f 148 212 213
f 148 213 150
f 148 150 209
f 149 209 150
f 150 214 154
f 150 154 153
f 150 213 214
f 154 214 217
f 154 217 155
f 155 215 216
f 155 216 168
f 155 168 166
f 155 217 215
f 156 218 219
f 156 219 157
f 156 172 218
f 157 220 158
f 157 219 221
f 157 221 222
f 157 222 223
f 157 223 224
f 157 224 225
f 157 225 220
f 158 220 226
f 158 226 159
f 159 226 160
f 160 191 161
f 160 226 227
f 160 227 192
f 160 192 191
f 162 165 171
f 162 171 170
f 163 169 216
f 163 216 228
f 163 228 229
f 163 229 230
f 163 230 231
f 163 231 232
f 163 232 173
f 163 173 164
f 164 171 165
f 166 168 167
f 168 216 169
f 172 233 234
f 172 234 235
f 172 235 218
f 173 232 236
f 173 236 174
f 174 236 175
f 175 236 237
f 175 237 176
f 176 237 177
f 177 237 238
f 179 189 180
f 180 189 188
f 180 188 239
f 180 239 181
f 183 197 184
f 184 240 241
f 184 241 242
f 184 242 243
f 184 243 185
f 184 197 240
f 185 243 244
f 185 244 186
f 186 245 246
f 186 246 247
f 186 247 187
f 186 244 248
f 186 248 245
f 187 247 249
f 187 249 250
f 187 250 188
f 188 250 239
f 192 227 251
f 192 251 252
f 192 252 253
f 192 253 254
f 192 254 193
f 193 254 255
f 193 255 194
f 194 255 256
f 194 256 257
f 194 257 195
f 195 257 258
f 195 258 196
f 196 258 259
f 196 259 197
f 197 259 240
f 199 260 201
f 199 201 200
f 201 260 261
f 201 261 202
f 202 261 262
f 202 262 263
f 202 263 264
f 202 264 265
f 202 265 204
f 204 265 205
f 205 266 267
f 205 267 206
f 205 265 266
f 206 267 268
f 206 268 269
f 206 269 210
f 206 210 207
f 210 269 212
f 210 212 211
f 212 269 213
f 213 270 271
f 213 271 272
f 213 272 214
f 213 269 270
f 214 272 279
f 214 279 217
f 215 273 216
f 215 217 274
f 215 274 275
f 215 275 273
f 216 273 275
f 216 275 276
f 216 276 277
f 216 277 278
f 216 278 228
f 217 279 280
f 217 280 281
f 217 281 274
f 218 235 219
f 219 235 221
f 220 225 226
f 221 235 234
f 221 234 282
f 221 282 283
f 221 283 222
f 226 284 285
f 226 285 252
f 226 252 286
f 226 286 251
f 226 251 227
f 228 278 229
f 229 287 288
f 229 288 230
f 229 278 277
f 229 277 289
f 229 289 287
f 230 288 231
f 231 288 290
f 231 290 232
f 232 237 236
f 232 290 291
f 232 291 237
f 233 292 234
f 234 292 282
f 237 293 238
f 237 291 293
f 238 293 294
f 239 250 295
f 239 295 296
f 240 259 297
f 240 297 298
f 240 298 299
f 240 299 241
f 241 300 301
f 241 301 242
f 241 299 300
f 242 301 243
f 243 301 302
f 243 302 303
f 243 303 248
f 243 248 244
f 245 247 246
f 245 248 247
f 247 304 305
f 247 305 249
f 247 248 303
f 247 303 302
f 247 302 306
f 247 306 304
f 249 305 307
f 249 307 308
f 249 308 309
f 249 309 250
f 250 310 295
f 250 309 310
f 251 286 252
f 252 285 311
f 252 311 312
f 252 312 313
f 252 313 314
f 252 314 299
f 252 299 253
f 253 299 315
f 253 315 298
f 253 298 297
f 253 297 316
f 253 316 317
f 253 317 254
f 254 317 316
f 254 316 256
f 254 256 255
f 256 316 318
f 256 318 257
f 257 318 258
f 258 318 297
f 258 297 259
f 263 319 264
f 264 319 267
f 264 267 266
f 264 266 265
f 267 319 320
f 267 320 268
f 268 320 321
f 268 321 322
f 268 322 269
f 269 322 323
f 269 323 324
f 269 324 325
f 269 325 326
f 269 326 270
f 270 326 327
f 270 327 271
f 271 327 328
f 271 328 329
f 271 329 280
f 271 280 279
f 271 279 272
f 274 281 280
f 274 280 330
f 274 330 331
f 274 331 275
f 275 331 332
f 275 332 333
f 275 333 276
f 276 333 332
f 276 332 334
f 276 334 277
f 277 334 335
f 277 335 336
f 277 336 337
f 277 337 289
f 280 329 338
f 280 338 335
f 280 335 339
f 280 339 340
f 280 340 341
f 280 341 330
f 284 342 312
f 284 312 285
f 285 312 311
f 287 343 290
f 287 290 344
f 287 344 288
f 287 289 337
f 287 337 345
f 287 345 346
f 287 346 347
f 287 347 343
f 288 344 290
f 290 343 291
f 291 347 346
f 291 346 348
f 291 348 349
f 291 294 293
f 291 343 347
f 295 310 350
f 295 350 351
f 295 351 296
f 296 351 352
f 297 318 316
f 298 315 299
f 299 314 312
f 299 312 353
f 299 353 354
f 299 354 355
f 299 355 300
f 300 355 356
f 300 356 357
f 300 357 358
f 300 358 301
f 301 358 359
f 301 359 306
f 301 306 302
f 304 306 360
f 304 360 361
f 304 361 305
f 305 361 360
f 305 360 307
f 306 359 362
f 306 362 363
f 306 363 360
f 307 360 364
f 307 364 308
f 308 364 360
f 308 360 365
f 308 365 366
f 308 366 367
f 308 367 309
f 309 367 350
f 309 350 310
f 312 342 368
f 312 368 369
f 312 369 370
f 312 370 353
f 312 314 313
f 319 371 320
f 319 372 371
f 320 371 373
f 320 373 374
f 320 374 321
f 321 374 375
f 321 375 376
f 321 376 377
f 321 377 322
f 322 324 323
f 322 377 378
f 322 378 379
f 322 379 380
f 322 380 381
f 322 381 325
f 322 325 324
f 325 381 327
f 325 327 326
f 327 381 380
f 327 380 382
f 327 382 328
f 328 382 329
f 329 382 383
f 329 383 338
f 330 341 331
f 331 341 332
f 332 341 339
f 332 339 335
f 332 335 334
f 335 338 336
f 336 348 384
f 336 384 385
f 336 385 337
f 336 338 386
f 336 386 387
f 336 387 388
f 336 388 389
f 336 389 348
f 337 385 345
f 338 390 388
f 338 388 386
f 338 383 390
f 339 341 340
f 342 391 369
f 342 369 368
f 342 392 393
f 342 393 394
f 342 394 395
f 342 395 396
f 342 396 397
f 342 397 391
f 345 385 346
f 346 385 384
f 346 384 348
f 348 398 349
f 348 389 388
f 348 388 399
f 348 399 400
f 348 400 398
f 350 367 351
f 351 367 366
f 351 366 401
f 351 401 402
f 351 402 403
f 351 403 404
f 351 404 352
f 353 405 406
f 353 406 356
f 353 356 355
f 353 355 354
f 353 370 407
f 353 407 405
f 356 406 408
f 356 408 409
f 356 409 357
f 357 409 410
f 357 410 358
f 358 410 411
f 358 411 362
f 358 362 359
f 360 412 413
f 360 413 365
f 360 363 412
f 362 411 483
f 362 483 414
f 362 414 363
f 363 414 415
f 363 415 416
f 363 416 417
f 363 417 418
f 363 418 365
f 363 365 413
f 363 413 412
f 365 419 420
f 365 420 421
f 365 421 366
f 365 418 422
f 365 422 417
f 365 417 423
f 365 423 419
f 366 421 401
f 369 391 370
f 370 391 397
f 370 397 424
f 370 424 425
f 370 425 426
f 370 426 407
f 371 372 427
f 371 427 428
f 371 428 373
f 372 429 427
f 373 428 374
f 374 428 430
f 374 430 375
f 375 430 431
f 375 431 432
f 375 432 433
f 375 433 434
f 375 434 376
f 376 434 433
f 376 433 377
f 377 433 435
f 377 435 378
f 378 435 433
f 378 433 379
f 379 433 436
f 379 436 437
f 379 437 438
f 379 438 382
f 379 382 380
f 382 438 439
f 382 439 383
f 383 440 441
f 383 441 390
f 383 439 442
f 383 442 443
f 383 443 444
f 383 444 445
f 383 445 446
f 383 446 440
f 386 388 387
f 388 390 447
f 388 447 448
f 388 448 449
f 388 449 399
f 390 441 450
f 390 450 451
f 390 451 447
f 392 452 453
f 392 453 393
f 393 453 454
f 393 454 455
f 393 455 456
f 393 456 457
f 393 457 458
f 393 458 394
f 394 458 459
f 394 459 460
f 394 460 461
f 394 461 395
f 395 461 396
f 396 461 462
f 396 462 397
f 397 462 460
f 397 460 463
f 397 463 424
f 398 400 465
f 398 465 466
f 398 466 467
f 398 467 468
f 398 468 464
f 399 449 400
f 400 449 469
f 400 469 470
f 400 470 465
f 401 421 471
f 401 471 402
f 402 471 472
f 402 472 473
f 402 473 474
f 402 474 475
f 402 475 476
f 402 476 403
f 403 476 543
f 403 543 477
f 403 477 404
f 405 407 406
f 406 407 478
f 406 478 408
f 407 426 479
f 407 479 478
f 408 478 480
f 408 480 409
f 409 480 481
f 409 481 410
f 410 481 411
f 411 481 482
f 411 482 483
f 414 483 416
f 414 416 415
f 416 483 484
f 416 484 485
f 416 485 486
f 416 486 423
f 416 423 417
f 417 422 418
f 419 487 488
f 419 488 420
f 419 423 489
f 419 489 490
f 419 490 487
f 420 471 421
f 420 488 471
f 423 486 491
f 423 491 489
f 424 463 425
f 425 463 460
f 425 460 492
f 425 492 493
f 425 493 483
f 425 483 482
f 425 482 494
f 425 494 495
f 425 495 426
f 426 495 479
f 427 429 496
f 427 496 497
f 427 497 498
f 427 498 499
f 427 499 431
f 427 431 430
f 427 430 428
f 431 499 500
f 431 500 432
f 432 501 433
f 432 500 502
f 432 502 503
f 432 503 504
f 432 504 505
f 432 505 506
f 432 506 507
f 432 507 436
f 432 436 501
f 433 501 508
f 433 508 436
f 436 507 505
f 436 505 509
f 436 509 510
f 436 510 511
f 436 511 437
f 436 508 501
f 437 511 513
f 437 513 442
f 437 442 439
f 437 439 438
f 440 446 441
f 441 446 512
f 441 512 451
f 441 451 450
f 442 513 514
f 442 514 444
f 442 444 443
f 444 514 515
f 444 515 516
f 444 516 445
f 445 516 446
f 446 516 512
f 447 517 448
f 447 451 518
f 447 518 519
f 447 519 520
f 447 520 538
f 447 538 517
f 448 469 449
f 448 517 470
f 448 470 469
f 451 512 521
f 451 521 518
f 452 454 453
f 455 522 456
f 456 522 523
f 456 523 457
f 457 523 524
f 457 524 458
f 458 524 459
f 459 523 525
f 459 525 526
f 459 526 460
f 459 524 523
f 460 526 527
f 460 527 528
f 460 528 492
f 460 462 461
f 464 468 529
f 464 529 530
f 464 530 531
f 465 470 466
f 466 470 532
f 466 532 467
f 467 532 533
f 467 533 534
f 467 534 468
f 468 534 535
f 468 535 536
f 468 536 537
f 468 537 529
f 470 538 533
f 470 533 532
f 470 517 538
f 471 488 539
f 471 539 473
f 471 473 540
f 471 540 472
f 472 540 473
f 473 487 550
f 473 550 541
f 473 541 542
f 473 542 475
f 473 475 474
f 473 539 487
f 475 542 599
f 475 599 543
f 475 543 476
f 478 479 495
f 478 495 480
f 480 495 481
f 481 495 482
f 482 495 494
f 483 493 544
f 483 544 484
f 484 544 545
f 484 545 528
f 484 528 546
f 484 546 547
f 484 547 485
f 485 547 548
f 485 548 491
f 485 491 486
f 487 549 604
f 487 604 550
f 487 539 488
f 487 490 551
f 487 551 549
f 489 491 552
f 489 552 553
f 489 553 551
f 489 551 490
f 491 548 603
f 491 603 552
f 492 528 493
f 493 528 545
f 493 545 544
f 496 554 497
f 497 554 611
f 497 611 555
f 497 555 498
f 498 555 556
f 498 556 557
f 498 557 558
f 498 558 559
f 498 559 560
f 498 560 499
f 499 560 500
f 500 560 502
f 502 560 561
f 502 561 503
f 503 561 562
f 503 562 563
f 503 563 564
f 503 564 504
f 504 564 565
f 504 565 566
f 504 566 509
f 504 509 505
f 505 507 506
f 509 566 567
f 509 567 568
f 509 568 513
f 509 513 511
f 509 511 510
f 512 516 515
f 512 515 521
f 513 568 569
f 513 569 570
f 513 570 519
f 513 519 514
f 514 519 571
f 514 571 515
f 515 571 519
f 515 519 518
f 515 518 521
f 519 570 572
f 519 572 535
f 519 535 573
f 519 573 520
f 520 573 538
f 523 574 575
f 523 575 576
f 523 576 526
f 523 526 525
f 526 577 527
f 526 576 578
f 526 578 577
f 527 577 579
f 527 579 580
f 527 580 546
f 527 546 528
f 529 537 581
f 529 581 582
f 529 582 583
f 529 583 584
f 529 584 530
f 530 584 531
f 533 585 534
f 533 538 585
f 534 585 535
f 535 572 586
f 535 586 587
f 535 587 588
f 535 588 536
f 535 585 538
f 535 538 573
f 536 588 589
f 536 589 590
f 536 590 591
f 536 591 537
f 537 591 581
f 541 550 592
f 541 592 593
f 541 593 594
f 541 594 595
f 541 595 596
f 541 596 597
f 541 597 542
f 542 597 596
f 542 596 598
f 542 598 599
f 546 579 600
f 546 600 601
f 546 601 547
f 546 580 579
f 547 601 548
f 548 601 602
f 548 602 603
f 549 551 607
f 549 607 604
f 550 605 606
f 550 606 592
f 550 604 607
f 550 607 608
f 550 608 605
f 551 553 610
f 551 610 607
f 552 603 553
f 553 609 653
f 553 653 610
f 553 603 609
f 555 611 556
f 556 612 613
f 556 613 558
f 556 558 557
f 556 611 657
f 556 657 612
f 558 613 616
f 558 616 562
f 558 562 614
f 558 614 560
f 558 560 615
f 558 615 559
f 559 615 560
f 560 614 561
f 561 614 562
f 562 616 665
f 562 665 617
f 562 617 618
f 562 618 563
f 563 618 564
f 564 618 619
f 564 619 620
f 564 620 565
f 565 620 672
f 565 672 621
f 565 621 567
f 565 567 566
f 567 622 568
f 567 621 622
f 568 623 586
f 568 586 624
f 568 624 569
f 568 622 623
f 569 624 570
f 570 586 572
f 570 624 586
f 574 625 626
f 574 626 575
f 575 626 627
f 575 627 628
f 575 628 629
f 575 629 576
f 576 629 630
f 576 630 578
f 577 578 630
f 577 630 631
f 577 631 579
f 579 631 632
f 579 632 633
f 579 633 600
f 581 591 590
f 581 590 582
f 582 590 583
f 586 623 587
f 587 623 634
f 587 634 635
f 587 635 636
f 587 636 588
f 588 636 637
f 588 637 638
f 588 638 639
f 588 639 589
f 589 639 590
f 592 606 593
f 593 640 641
f 593 641 642
f 593 642 596
f 593 596 595
f 593 595 594
f 593 606 640
f 596 643 598
f 596 642 644
f 596 644 643
f 598 643 645
f 598 645 599
f 600 632 646
f 600 646 647
f 600 647 648
f 600 648 649
f 600 649 609
f 600 609 602
f 600 602 601
f 600 633 632
f 602 609 603
f 605 650 640
f 605 640 606
f 605 608 651
f 605 651 652
f 605 652 650
f 607 610 651
f 607 651 608
f 609 649 654
f 609 654 708
f 609 708 653
f 610 653 655
f 610 655 656
f 610 656 651
f 612 658 613
f 612 657 659
f 612 659 660
f 612 660 658
f 613 658 660
f 613 660 661
f 613 661 662
f 613 662 663
f 613 663 664
f 613 664 616
f 616 664 666
f 616 666 667
f 616 667 668
f 616 668 669
f 616 669 665
f 617 665 669
f 617 669 618
f 618 669 670
f 618 670 619
f 619 670 720
f 619 720 671
f 619 671 672
f 619 672 620
f 621 672 673
f 621 673 674
f 621 674 622
f 622 674 623
f 623 674 675
f 623 675 635
f 623 635 634
f 625 676 677
f 625 677 626
f 626 677 678
f 626 678 627
f 627 646 631
f 627 631 628
f 627 678 708
f 627 708 654
f 627 654 648
f 627 648 647
f 627 647 646
f 628 631 630
f 628 630 629
f 631 646 632
f 635 675 679
f 635 679 680
f 635 680 681
f 635 681 636
f 636 681 682
f 636 682 637
f 637 682 638
f 638 682 683
f 638 683 684
f 638 684 639
f 639 684 686
f 639 686 687
f 639 687 685
f 640 650 641
f 641 650 688
f 641 688 642
f 642 688 644
f 643 644 689
f 643 689 645
f 644 690 691
f 644 691 689
f 644 688 692
f 644 692 693
f 644 693 694
f 644 694 690
f 648 654 649
f 650 695 696
f 650 696 697
f 650 697 688
f 650 652 698
f 650 698 699
f 650 699 700
f 650 700 701
f 650 701 695
f 651 656 702
f 651 702 652
f 652 702 703
f 652 703 704
f 652 704 698
f 653 705 706
f 653 706 707
f 653 707 655
f 653 708 705
f 655 707 709
f 655 709 702
f 655 702 656
f 657 710 711
f 657 711 659
f 659 711 660
f 660 712 663
f 660 663 661
f 660 711 713
f 660 713 712
f 661 663 662
f 663 712 714
f 663 714 715
f 663 715 666
f 663 666 664
f 666 715 667
f 667 715 716
f 667 716 717
f 667 717 718
f 667 718 668
f 668 718 669
f 669 718 670
f 670 719 720
f 670 718 721
f 670 721 719
f 671 722 675
f 671 675 673
f 671 673 672
f 671 720 786
f 671 786 723
f 671 723 722
f 673 675 674
f 675 722 724
f 675 724 725
f 675 725 726
f 675 726 680
f 675 680 679
f 676 727 728
f 676 728 677
f 677 728 678
f 678 728 729
f 678 729 730
f 678 730 731
f 678 731 758
f 678 758 732
f 678 732 708
f 680 726 681
f 681 726 733
f 681 733 734
f 681 734 682
f 682 734 683
f 683 734 684
f 684 734 733
f 684 733 686
f 685 735 736
f 685 687 737
f 685 737 738
f 685 738 735
f 686 733 739
f 686 739 687
f 687 739 737
f 688 697 692
f 690 694 740
f 692 741 693
f 692 697 741
f 693 741 742
f 693 742 694
f 694 742 743
f 694 743 740
f 695 744 696
f 695 701 744
f 696 745 746
f 696 746 747
f 696 747 748
f 696 748 749
f 696 749 750
f 696 750 697
f 696 744 701
f 696 701 745
f 697 750 749
f 697 749 751
f 697 751 741
f 698 704 701
f 698 701 700
f 698 700 699
f 701 704 752
f 701 752 753
f 701 753 754
f 701 754 745
f 702 709 755
f 702 755 703
f 703 755 704
f 704 755 756
f 704 756 757
f 704 757 753
f 704 753 752
f 705 708 732
f 705 732 706
f 706 732 758
f 706 758 731
f 706 731 759
f 706 759 760
f 706 760 761
f 706 761 762
f 706 762 763
f 706 763 707
f 707 763 709
f 709 763 764
f 709 764 755
f 710 765 711
f 711 765 713
f 712 766 714
f 712 713 766
f 713 767 768
f 713 768 766
f 713 765 769
f 713 769 770
f 713 770 771
f 713 771 767
f 714 716 715
f 714 766 716
f 716 766 772
f 716 772 773
f 716 773 774
f 716 774 775
f 716 775 776
f 716 776 777
f 716 777 778
f 716 778 717
f 717 778 779
f 717 779 780
f 717 780 781
f 717 781 718
f 718 781 721
f 719 782 783
f 719 783 720
f 719 721 781
f 719 781 782
f 720 783 784
f 720 784 785
f 720 785 786
f 722 723 724
f 723 786 739
f 723 739 733
f 723 733 724
f 724 733 726
f 724 726 725
f 727 787 788
f 727 788 789
f 727 789 790
f 727 790 728
f 728 790 791
f 728 791 729
f 729 791 792
f 729 792 730
f 730 761 759
f 730 759 731
f 730 792 793
f 730 793 761
f 735 794 795
f 735 795 796
f 735 796 736
f 735 738 797
f 735 797 798
f 735 798 799
f 735 799 794
f 736 796 795
f 736 795 800
f 736 800 801
f 736 801 802
f 736 802 803
f 737 739 804
f 737 804 805
f 737 805 738
f 738 805 806
f 738 806 797
f 739 807 808
f 739 808 804
f 739 786 809
f 739 809 848
f 739 848 807
f 740 743 810
f 740 810 811
f 740 811 812
f 741 751 743
f 741 743 742
f 743 751 813
f 743 813 810
f 745 754 814
f 745 814 815
f 745 815 816
f 745 816 817
f 745 817 746
f 746 817 748
f 746 748 747
f 748 817 751
f 748 751 749
f 751 817 813
f 753 757 818
f 753 818 754
f 754 818 878
f 754 878 814
f 755 764 756
f 756 762 819
f 756 819 820
f 756 820 821
f 756 821 757
f 756 764 762
f 757 821 822
f 757 822 823
f 757 823 824
f 757 824 818
f 759 761 760
f 761 793 825
f 761 825 826
f 761 826 762
f 762 764 763
f 762 826 825
f 762 825 819
f 766 768 772
f 767 827 768
f 767 771 828
f 767 828 827
f 768 827 772
f 770 829 771
f 771 829 830
f 771 830 828
f 772 831 832
f 772 832 773
f 772 827 833
f 772 833 831
f 773 834 774
f 773 832 831
f 773 831 835
f 773 835 836
f 773 836 837
f 773 837 838
f 773 838 775
f 773 775 834
f 774 834 775
f 775 839 840
f 775 840 841
f 775 841 779
f 775 779 778
f 775 778 776
f 775 838 839
f 776 778 777
f 779 841 840
f 779 840 842
f 779 842 843
f 779 843 844
f 779 844 780
f 780 844 782
f 780 782 781
f 782 844 845
f 782 845 846
f 782 846 783
f 783 846 784
f 784 847 807
f 784 807 848
f 784 848 809
f 784 809 785
f 784 846 849
f 784 849 850
f 784 850 851
f 784 851 847
f 785 809 786
f 787 852 853
f 787 853 854
f 787 854 788
f 788 855 856
f 788 856 857
f 788 857 789
f 788 854 855
f 789 857 825
f 789 825 793
f 789 793 858
f 789 858 790
f 790 858 792
f 790 792 791
f 792 858 793
f 794 859 860
f 794 860 795
f 794 799 861
f 794 861 862
f 794 862 863
f 794 863 864
f 794 864 865
f 794 865 866
f 794 866 859
f 795 860 867
f 795 867 800
f 797 806 798
f 798 806 808
f 798 808 850
f 798 850 799
f 799 850 868
f 799 868 849
f 799 849 861
f 800 867 801
f 801 867 869
f 801 869 802
f 802 869 870
f 802 870 803
f 804 808 806
f 804 806 805
f 807 847 808
f 808 847 850
f 810 813 871
f 810 871 872
f 810 872 873
f 810 873 811
f 811 873 874
f 811 874 875
f 811 875 812
f 812 875 876
f 813 877 871
f 813 817 877
f 814 878 815
f 815 878 879
f 815 879 880
f 815 880 881
f 815 881 882
f 815 882 816
f 816 882 883
f 816 883 817
f 817 884 885
f 817 885 877
f 817 883 886
f 817 886 884
f 818 824 887
f 818 887 888
f 818 888 878
f 819 825 857
f 819 857 889
f 819 889 822
f 819 822 820
f 820 822 821
f 822 889 823
f 823 890 824
f 823 889 857
f 823 857 891
f 823 891 892
f 823 892 893
f 823 893 894
f 823 894 895
f 823 895 890
f 824 890 895
f 824 895 887
f 827 828 830
f 827 830 833
f 829 896 897
f 829 897 898
f 829 898 830
f 830 898 899
f 830 899 833
f 831 833 835
f 833 899 900
f 833 900 835
f 835 900 837
f 835 837 836
f 837 900 838
f 838 901 902
f 838 902 903
f 838 903 839
f 838 900 901
f 839 904 842
f 839 842 840
f 839 903 972
f 839 972 904
f 842 904 905
f 842 905 863
f 842 863 906
f 842 906 907
f 842 907 843
f 843 907 908
f 843 908 861
f 843 861 849
f 843 849 845
f 843 845 844
f 845 849 846
f 847 851 850
f 849 868 850
f 852 909 910
f 852 910 853
f 853 910 911
f 853 911 855
f 853 855 854
f 855 911 856
f 856 912 913
f 856 913 857
f 856 911 914
f 856 914 912
f 857 913 915
f 857 915 916
f 857 916 891
f 859 917 860
f 859 866 917
f 860 869 867
f 860 917 866
f 860 866 918
f 860 918 869
f 861 906 862
f 861 908 906
f 862 906 863
f 863 905 919
f 863 919 920
f 863 920 921
f 863 921 922
f 863 922 923
f 863 923 864
f 864 923 865
f 865 923 866
f 866 922 924
f 866 924 925
f 866 923 922
f 869 926 870
f 869 918 927
f 869 927 928
f 869 928 926
f 871 877 929
f 871 929 930
f 871 930 931
f 871 931 872
f 872 931 932
f 872 932 874
f 872 874 873
f 874 932 875
f 875 933 934
f 875 934 935
f 875 935 936
f 875 936 937
f 875 937 876
f 875 932 933
f 877 938 929
f 877 885 884
f 877 884 886
f 877 886 939
f 877 939 940
f 877 940 941
f 877 941 938
f 878 888 942
f 878 942 879
f 879 942 943
f 879 943 944
f 879 944 945
f 879 945 880
f 880 945 946
f 880 946 947
f 880 947 881
f 881 947 882
f 882 947 940
f 882 940 939
f 882 939 886
f 882 886 883
f 887 895 948
f 887 948 949
f 887 949 888
f 888 949 942
f 891 916 892
f 892 916 950
f 892 950 893
f 893 950 951
f 893 951 952
f 893 952 953
f 893 953 954
f 893 954 894
f 894 954 955
f 894 955 895
f 895 955 956
f 895 956 948
f 896 957 958
f 896 958 897
f 897 959 960
f 897 960 898
f 897 958 959
f 898 960 961
f 898 961 962
f 898 962 899
f 899 962 963
f 899 963 900
f 900 963 964
f 900 964 965
f 900 965 966
f 900 966 967
f 900 967 901
f 901 967 968
f 901 968 902
f 902 968 969
f 902 969 970
f 902 970 971
f 902 971 972
f 902 972 903
f 904 972 973
f 904 973 974
f 904 974 905
f 905 974 920
f 905 920 919
f 906 908 907
f 909 975 910
f 910 975 911
f 911 975 976
f 911 976 977
f 911 977 978
f 911 978 914
f 912 979 980
f 912 980 913
f 912 914 979
f 913 980 915
f 914 981 982
f 914 982 983
f 914 983 984
f 914 984 985
f 914 985 979
f 915 980 916
f 916 980 985
f 916 985 950
f 920 974 986
f 920 986 987
f 920 987 988
f 920 988 921
f 921 988 989
f 921 989 922
f 922 989 990
f 922 990 924
f 924 990 991
f 924 991 992
f 924 992 993
f 924 993 994
f 924 994 925
f 925 994 996
f 925 996 997
f 925 997 998
f 925 998 999
f 925 999 1000
f 925 1000 1001
f 925 1001 1002
f 925 1002 995
f 929 938 1003
f 929 1003 1004
f 929 1004 930
f 930 1004 1005
f 930 1005 931
f 931 1005 1004
f 931 1004 1006
f 931 1006 933
f 931 933 932
f 933 1006 1007
f 933 1007 934
f 934 1007 1008
f 934 1008 935
f 935 1008 1009
f 935 1009 1010
f 935 1010 1011
f 935 1011 1012
f 935 1012 1013
f 935 1013 936
f 936 1014 937
f 936 1013 1091
f 936 1091 1014
f 938 1004 1003
f 938 941 1004
f 940 947 941
f 941 947 1015
f 941 1015 1016
f 941 1016 1017
f 941 1017 1004
f 942 949 943
f 943 1018 953
f 943 953 944
f 943 949 1019
f 943 1019 1018
f 944 1020 945
f 944 953 1020
f 945 953 952
f 945 952 1021
f 945 1021 1022
f 945 1022 1023
f 945 1023 1024
f 945 1024 1025
f 945 1025 946
f 945 1020 953
f 946 1025 1026
f 946 1026 1027
f 946 1027 1028
f 946 1028 947
f 947 1028 1015
f 948 956 1019
f 948 1019 949
f 950 985 951
f 951 984 1029
f 951 1029 952
f 951 985 984
f 952 1030 1021
f 952 1029 1031
f 952 1031 982
f 952 982 1032
f 952 1032 1022
f 952 1022 1030
f 953 1018 1033
f 953 1033 954
f 954 956 955
f 954 1033 1018
f 954 1018 956
f 956 1018 1019
f 957 1034 958
f 958 1034 1035
f 958 1035 1036
f 958 1036 1037
f 958 1037 1038
f 958 1038 1039
f 958 1039 959
f 959 1039 961
f 959 961 960
f 961 1039 1040
f 961 1040 962
f 962 1041 963
f 962 1040 1042
f 962 1042 1041
f 963 965 964
f 963 1041 1043
f 963 1043 1044
f 963 1044 1045
f 963 1045 1046
f 963 1046 966
f 963 966 965
f 966 1046 968
f 966 968 967
f 968 1046 1045
f 968 1045 1047
f 968 1047 969
f 969 1047 970
f 970 1047 1048
f 970 1048 991
f 970 991 971
f 971 1049 1050
f 971 1050 1051
f 971 1051 972
f 971 991 1049
f 972 1051 973
f 973 1051 1052
f 973 1052 974
f 974 1052 986
f 976 1053 977
f 977 1053 978
f 979 985 980
f 981 1054 982
f 982 1054 1055
f 982 1055 1056
f 982 1056 1057
f 982 1057 1058
f 982 1058 1022
f 982 1022 1032
f 982 1031 983
f 983 1031 1029
f 983 1029 984
f 986 1052 1059
f 986 1059 987
f 987 1059 1060
f 987 1060 989
f 987 989 988
f 989 1060 1061
f 989 1061 990
f 990 1061 1060
f 990 1060 1050
f 990 1050 1049
f 990 1049 1062
f 990 1062 991
f 991 1048 1063
f 991 1063 1064
f 991 1064 1065
f 991 1065 994
f 991 994 992
f 991 1062 1049
f 992 994 993
f 994 1065 996
f 995 1002 1067
f 995 1067 1066
f 996 1065 1068
f 996 1068 1069
f 996 1069 1070
f 996 1070 997
f 997 1070 1071
f 997 1071 998
f 998 1071 999
f 999 1071 1070
f 999 1070 1072
f 999 1072 1073
f 999 1073 1074
f 999 1074 1075
f 999 1075 1076
f 999 1076 1002
f 999 1002 1000
f 1000 1002 1001
f 1002 1076 1077
f 1002 1077 1067
f 1004 1078 1079
f 1004 1079 1006
f 1004 1017 1078
f 1006 1080 1081
f 1006 1081 1007
f 1006 1079 1017
f 1006 1017 1082
f 1006 1082 1083
f 1006 1083 1084
f 1006 1084 1085
f 1006 1085 1080
f 1007 1081 1008
f 1008 1081 1086
f 1008 1086 1087
f 1008 1087 1010
f 1008 1010 1088
f 1008 1088 1009
f 1009 1088 1010
f 1010 1012 1011
f 1010 1087 1089
f 1010 1089 1161
f 1010 1161 1090
f 1010 1090 1092
f 1010 1092 1012
f 1012 1091 1013
f 1012 1092 1164
f 1012 1164 1091
f 1015 1028 1093
f 1015 1093 1016
f 1016 1093 1167
f 1016 1167 1094
f 1016 1094 1017
f 1017 1094 1095
f 1017 1095 1096
f 1017 1096 1084
f 1017 1084 1082
f 1017 1079 1078
f 1021 1030 1022
f 1022 1058 1097
f 1022 1097 1098
f 1022 1098 1099
f 1022 1099 1023
f 1023 1026 1025
f 1023 1025 1024
f 1023 1099 1100
f 1023 1100 1101
f 1023 1101 1102
f 1023 1102 1026
f 1026 1102 1103
f 1026 1103 1104
f 1026 1104 1027
f 1027 1104 1105
f 1027 1105 1028
f 1028 1105 1093
f 1034 1106 1035
f 1035 1106 1164
f 1035 1164 1107
f 1035 1107 1036
f 1036 1107 1092
f 1036 1092 1108
f 1036 1108 1090
f 1036 1090 1109
f 1036 1109 1110
f 1036 1110 1037
f 1037 1111 1038
f 1037 1110 1111
f 1038 1111 1112
f 1038 1112 1040
f 1038 1040 1039
f 1040 1113 1114
f 1040 1114 1042
f 1040 1112 1113
f 1041 1115 1043
f 1041 1042 1113
f 1041 1113 1115
f 1042 1114 1113
f 1043 1115 1113
f 1043 1113 1044
f 1044 1116 1047
f 1044 1047 1045
f 1044 1113 1117
f 1044 1117 1118
f 1044 1118 1116
f 1047 1119 1048
f 1047 1116 1119
f 1048 1119 1120
f 1048 1120 1121
f 1048 1121 1063
f 1050 1060 1059
f 1050 1059 1052
f 1050 1052 1051
f 1056 1122 1057
f 1056 1123 1124
f 1056 1124 1125
f 1056 1125 1126
f 1056 1126 1127
f 1056 1127 1122
f 1057 1128 1097
f 1057 1097 1058
f 1057 1122 1127
f 1057 1127 1128
f 1063 1121 1065
f 1063 1065 1064
f 1065 1121 1129
f 1065 1129 1130
f 1065 1130 1068
f 1066 1067 1131
f 1067 1077 1132
f 1067 1132 1133
f 1067 1133 1134
f 1067 1134 1135
f 1067 1135 1136
f 1067 1136 1137
f 1067 1137 1131
f 1068 1130 1129
f 1068 1129 1138
f 1068 1138 1139
f 1068 1139 1069
f 1069 1140 1070
f 1069 1139 1140
f 1070 1141 1142
f 1070 1142 1143
f 1070 1143 1144
f 1070 1144 1072
f 1070 1140 1141
f 1072 1144 1073
f 1073 1145 1146
f 1073 1146 1074
f 1073 1144 1147
f 1073 1147 1145
f 1074 1148 1075
f 1074 1146 1149
f 1074 1149 1150
f 1074 1150 1148
f 1075 1148 1151
f 1075 1151 1152
f 1075 1152 1153
f 1075 1153 1076
f 1076 1154 1077
f 1076 1153 1154
f 1077 1154 1132
f 1080 1155 1156
f 1080 1156 1089
f 1080 1089 1086
f 1080 1086 1081
f 1080 1085 1155
f 1082 1084 1083
f 1084 1096 1085
f 1085 1096 1157
f 1085 1157 1158
f 1085 1158 1155
f 1086 1089 1087
f 1089 1156 1159
f 1089 1159 1160
f 1089 1160 1224
f 1089 1224 1161
f 1090 1161 1162
f 1090 1162 1110
f 1090 1110 1163
f 1090 1163 1109
f 1090 1108 1092
f 1092 1107 1164
f 1093 1105 1165
f 1093 1165 1166
f 1093 1166 1167
f 1094 1167 1096
f 1094 1096 1095
f 1096 1167 1168
f 1096 1168 1169
f 1096 1169 1157
f 1097 1128 1098
f 1098 1128 1127
f 1098 1127 1170
f 1098 1170 1099
f 1099 1170 1202
f 1099 1202 1171
f 1099 1171 1172
f 1099 1172 1173
f 1099 1173 1100
f 1100 1174 1175
f 1100 1175 1102
f 1100 1102 1101
f 1100 1173 1174
f 1102 1175 1103
f 1103 1175 1176
f 1103 1176 1104
f 1104 1176 1165
f 1104 1165 1105
f 1109 1163 1110
f 1110 1162 1177
f 1110 1177 1178
f 1110 1178 1111
f 1111 1178 1112
f 1112 1178 1179
f 1112 1179 1180
f 1112 1180 1181
f 1112 1181 1182
f 1112 1182 1183
f 1112 1183 1117
f 1112 1117 1184
f 1112 1184 1113
f 1113 1184 1185
f 1113 1185 1117
f 1116 1118 1189
f 1116 1189 1119
f 1117 1185 1184
f 1117 1183 1181
f 1117 1181 1186
f 1117 1186 1187
f 1117 1187 1188
f 1117 1188 1118
f 1118 1188 1143
f 1118 1143 1189
f 1119 1189 1190
f 1119 1190 1120
f 1120 1190 1191
f 1120 1191 1121
f 1121 1191 1192
f 1121 1192 1129
f 1123 1193 1194
f 1123 1194 1195
f 1123 1195 1124
f 1124 1195 1196
f 1124 1196 1197
f 1124 1197 1198
f 1124 1198 1199
f 1124 1199 1125
f 1125 1199 1200
f 1125 1200 1201
f 1125 1201 1127
f 1125 1127 1126
f 1127 1201 1200
f 1127 1200 1202
f 1127 1202 1170
f 1129 1192 1138
f 1132 1154 1203
f 1132 1203 1133
f 1133 1203 1204
f 1133 1204 1134
f 1138 1192 1205
f 1138 1205 1140
f 1138 1140 1139
f 1140 1206 1142
f 1140 1142 1141
f 1140 1205 1206
f 1142 1206 1189
f 1142 1189 1143
f 1143 1188 1186
f 1143 1186 1145
f 1143 1145 1207
f 1143 1207 1144
f 1144 1207 1147
f 1145 1147 1207
f 1145 1186 1208
f 1145 1208 1209
f 1145 1209 1146
f 1146 1209 1210
f 1146 1210 1211
f 1146 1211 1150
f 1146 1150 1149
f 1148 1150 1212
f 1148 1212 1213
f 1148 1213 1151
f 1150 1211 1214
f 1150 1214 1215
f 1150 1215 1212
f 1151 1213 1152
f 1152 1213 1216
f 1152 1216 1217
f 1152 1217 1153
f 1153 1217 1218
f 1153 1218 1219
f 1153 1203 1154
f 1155 1158 1220
f 1155 1220 1221
f 1155 1221 1159
f 1155 1159 1156
f 1157 1169 1222
f 1157 1222 1158
f 1158 1222 1260
f 1158 1260 1220
f 1159 1221 1262
f 1159 1262 1223
f 1159 1223 1224
f 1159 1224 1160
f 1161 1224 1223
f 1161 1223 1225
f 1161 1225 1179
f 1161 1179 1177
f 1161 1177 1162
f 1165 1226 1166
f 1165 1176 1226
f 1166 1227 1172
f 1166 1172 1167
f 1166 1226 1227
f 1167 1172 1228
f 1167 1228 1229
f 1167 1229 1168
f 1168 1229 1230
f 1168 1230 1231
f 1168 1231 1232
f 1168 1232 1233
f 1168 1233 1169
f 1169 1233 1222
f 1171 1202 1234
f 1171 1234 1172
f 1172 1234 1198
f 1172 1198 1235
f 1172 1235 1228
f 1172 1227 1226
f 1172 1226 1173
f 1173 1226 1174
f 1174 1226 1175
f 1175 1226 1176
f 1177 1179 1178
f 1179 1225 1236
f 1179 1236 1180
f 1180 1237 1186
f 1180 1186 1181
f 1180 1236 1238
f 1180 1238 1237
f 1181 1183 1182
f 1186 1237 1208
f 1186 1188 1187
f 1189 1206 1190
f 1190 1206 1191
f 1191 1206 1205
f 1191 1205 1192
f 1193 1239 1194
f 1194 1239 1195
f 1195 1239 1240
f 1195 1240 1241
f 1195 1241 1242
f 1195 1242 1196
f 1196 1242 1243
f 1196 1243 1197
f 1197 1244 1245
f 1197 1245 1198
f 1197 1243 1246
f 1197 1246 1244
f 1198 1234 1202
f 1198 1202 1247
f 1198 1247 1199
f 1198 1245 1248
f 1198 1248 1231
f 1198 1231 1235
f 1199 1247 1200
f 1200 1247 1202
f 1208 1249 1209
f 1208 1237 1238
f 1208 1238 1249
f 1209 1249 1210
f 1210 1249 1250
f 1210 1250 1211
f 1211 1250 1251
f 1211 1251 1252
f 1211 1252 1253
f 1211 1253 1254
f 1211 1254 1255
f 1211 1255 1215
f 1211 1215 1214
f 1212 1215 1255
f 1212 1255 1256
f 1212 1256 1257
f 1212 1257 1213
f 1213 1257 1216
f 1216 1257 1217
f 1217 1257 1256
f 1217 1256 1218
f 1218 1256 1275
f 1218 1275 1258
f 1218 1258 1219
f 1219 1258 1259
f 1220 1260 1221
f 1221 1260 1261
f 1221 1261 1251
f 1221 1251 1262
f 1222 1233 1263
f 1222 1263 1264
f 1222 1264 1260
f 1223 1262 1236
f 1223 1236 1225
f 1228 1235 1231
f 1228 1231 1230
f 1228 1230 1229
f 1231 1248 1232
f 1232 1248 1265
f 1232 1265 1266
f 1232 1266 1267
f 1232 1267 1263
f 1232 1263 1233
f 1236 1262 1268
f 1236 1268 1238
f 1238 1268 1273
f 1238 1273 1249
f 1240 1246 1241
f 1241 1246 1242
f 1242 1246 1243
f 1244 1246 1245
f 1245 1269 1248
f 1245 1246 1270
f 1245 1270 1271
f 1245 1271 1269
f 1246 1259 1272
f 1246 1272 1270
f 1248 1269 1266
f 1248 1266 1265
f 1249 1273 1250
f 1250 1273 1251
f 1251 1274 1252
f 1251 1273 1262
f 1251 1261 1277
f 1251 1277 1274
f 1252 1274 1253
f 1253 1274 1256
f 1253 1256 1255
f 1253 1255 1254
f 1256 1274 1277
f 1256 1277 1275
f 1258 1275 1272
f 1258 1272 1259
f 1260 1264 1261
f 1261 1264 1267
f 1261 1267 1276
f 1261 1276 1277
f 1262 1273 1268
f 1263 1267 1264
f 1266 1278 1279
f 1266 1279 1280
f 1266 1280 1267
f 1266 1269 1278
f 1267 1280 1279
f 1267 1279 1281
f 1267 1281 1282
f 1267 1282 1283
f 1267 1283 1276
f 1269 1271 1284
f 1269 1284 1278
f 1270 1272 1285
f 1270 1285 1284
f 1270 1284 1271
f 1272 1275 1286
f 1272 1286 1285
f 1275 1283 1282
f 1275 1282 1281
f 1275 1281 1278
f 1275 1278 1286
f 1275 1277 1283
f 1276 1283 1277
f 1278 1284 1286
f 1278 1281 1279
f 1284 1285 1286

