# https://github.com/mikedh/trimesh
v 0.02003193 0.38002294 0.19101635
v 0.02403091 0.37876785 0.19461411
v 0.02003193 0.38002294 0.18965054
v 0.01988382 0.38002294 0.19101635
v 0.02499362 0.37529784 0.20500761
v 0.02603039 0.37507635 0.13670027
v 0.04158195 0.37072033 0.20119333
v 0.03499105 0.37455952 0.19501385
v 0.01988382 0.38002294 0.18965054
v 0.02462335 0.37551934 0.13670027
v 0.01499619 0.37795573 0.13670027
v 0.01595891 0.37839872 0.19461411
v 0.01499619 0.37507635 0.20500761
v 0.00499876 0.37692207 0.13670027
v -0.00433217 0.37419039 0.13670027
v -0.13252144 0.33077818 0.19191580
v 0.02499362 0.37101567 0.21165347
v 0.03010342 0.37005585 0.21010444
v 0.03402834 0.37190163 0.20472446
v 0.01499619 0.37108952 0.21182004
v 0.01892111 0.36016262 0.23024186
v 0.02032815 0.36016262 0.23024186
v 0.04372954 0.36725032 0.13670027
v 0.06172492 0.36082709 0.20127662
v 0.04721013 0.36857927 0.19501385
v 0.24093810 0.24040990 0.26053962
v 0.24760306 0.23885946 0.25797457
v 0.18176812 0.30383009 0.13670027
v 0.07201856 0.35433000 0.13670027
v 0.26500598 0.26536453 0.13670027
v 0.22331299 0.28463423 0.13670027
v -0.00285107 0.37086803 0.20167637
v 0.00566526 0.37190163 0.20500761
v 0.00277711 0.36902225 0.20833887
v 0.00944207 0.37012970 0.21032096
v 0.00692419 0.35100764 0.24178466
v -0.16421698 0.31387103 0.13670027
v -0.25086138 0.29061449 0.17892390
v -0.24493697 0.29356772 0.18500344
v -0.19280222 0.31091779 0.19171591
v -0.16288400 0.32088488 0.19191580
v 0.00870152 0.34037608 0.26042300
v 0.01181183 0.34037608 0.26042300
v 0.01847678 0.33941633 0.25945696
v 0.04002680 0.32996601 0.26002327
v 0.13007770 0.29002386 0.26003993
v 0.22012863 0.25000781 0.26007324
v 0.06735310 0.35868603 0.19501385
v 0.25137985 0.24063139 0.25131205
v 0.25486043 0.24232948 0.24499932
v 0.26285839 0.26130384 0.20230930
v 0.26900494 0.25953192 0.19501385
v 0.24456678 0.23531561 0.26317132
v 0.25189823 0.23214090 0.26198870
v 0.17177069 0.27075416 0.26083943
v 0.23493963 0.24173884 0.26178885
v 0.26100701 0.24085288 0.24166806
v 0.27218932 0.26159918 0.13670027
v -0.03239903 0.36082709 0.20145983
v -0.00507272 0.34894043 0.23820356
v -0.06202104 0.35071236 0.20124330
v -0.09497553 0.33734906 0.20462452
v -0.07564717 0.33801353 0.21500137
v 0.00522093 0.34244335 0.25525957
v -0.07120387 0.33040899 0.23070824
v -0.00507272 0.34104055 0.25174510
v -0.18495239 0.30589736 0.13670027
v -0.21501873 0.29430598 0.13670027
v -0.24315965 0.28330529 0.13670027
v -0.24589968 0.28182870 0.13670027
v -0.25545278 0.27629143 0.13670027
v -0.25656360 0.27525777 0.13670027
v -0.25582305 0.28492957 0.18500344
v -0.25123164 0.29098362 0.18500344
v -0.25078732 0.29061449 0.19099970
v -0.22249830 0.30080307 0.19144942
v -0.19569036 0.30803841 0.19503051
v 0.00418416 0.32450259 0.26823482
v 0.01521836 0.25406849 0.30684406
v 0.02462335 0.25620955 0.30684406
v 0.02499362 0.25628340 0.30684406
v -0.03291741 0.33107346 0.25157854
v -0.02010589 0.33003986 0.26003993
v -0.21116787 0.25045079 0.27043343
v -0.15925530 0.26972049 0.26983380
v -0.13370632 0.21390481 0.30684406
v 0.03573160 0.25473297 0.30684406
v 0.02129087 0.32073724 0.27045009
v 0.02499362 0.33299309 0.26212198
v 0.03499105 0.33092582 0.26078945
v 0.06083626 0.32036811 0.26038972
v 0.26893088 0.24926953 0.21909882
v 0.27204120 0.25118911 0.21243632
v 0.27522558 0.25333017 0.20522416
v 0.28107592 0.25126296 0.20202614
v 0.27492934 0.25620955 0.19501385
v 0.24515924 0.22520085 0.26845133
v 0.23405097 0.23398666 0.26708552
v 0.23686507 0.22867088 0.26941741
v 0.25360149 0.22497936 0.26348779
v 0.25863725 0.22497936 0.25759146
v 0.26041457 0.23110728 0.25086233
v 0.19258016 0.26115620 0.26118922
v 0.10252924 0.30109841 0.26103932
v 0.18495248 0.26278049 0.26243842
v 0.21494478 0.24498737 0.26545322
v 0.26981956 0.23959775 0.22979215
v 0.28144619 0.25170594 0.19501385
v 0.27729911 0.25731701 0.13670027
v -0.12496781 0.32191855 0.21331909
v -0.18058315 0.31017953 0.20036052
v -0.16829000 0.30936736 0.20902178
v -0.05891073 0.32959688 0.23935284
v -0.26285827 0.26654583 0.13670027
v -0.25952581 0.27909696 0.18500344
v -0.24493697 0.29186958 0.19283189
v -0.26130313 0.27259988 0.19224891
v -0.25286084 0.28470808 0.19459745
v -0.25100946 0.28123802 0.20169303
v -0.23953095 0.25953192 0.23960268
v -0.23027407 0.25022930 0.26038972
v -0.21013111 0.29999095 0.20009401
v -0.02403081 0.24395375 0.30684406
v -0.10067777 0.32022041 0.23039177
v -0.14237075 0.31084400 0.22129744
v -0.20494725 0.29755455 0.20649002
v -0.18495239 0.30131990 0.21191996
v -0.17117816 0.30043393 0.22066452
v -0.06172482 0.32066339 0.25094560
v -0.16103262 0.29039299 0.24056876
v -0.20183694 0.26071322 0.26102266
v -0.21472251 0.25281340 0.26530331
v -0.22494210 0.25133675 0.26193875
v -0.21783282 0.24897420 0.26885110
v -0.22494210 0.24225564 0.27169931
v -0.21472251 0.24535652 0.27271533
v -0.20494725 0.24498737 0.27503055
v -0.18206425 0.26063937 0.27050006
v -0.20494725 0.23287921 0.28157648
v -0.15555255 0.20497136 0.30684406
v 0.05424536 0.24579950 0.30684406
v 0.22494221 0.23612773 0.26826811
v 0.28455651 0.24498737 0.19501385
v 0.28196457 0.24447055 0.20522416
v 0.29055497 0.22217381 0.20116001
v 0.28966630 0.22889237 0.19706258
v 0.24190080 0.22195232 0.27088314
v 0.24382624 0.21493845 0.27208242
v 0.24878794 0.21493845 0.26941741
v 0.07475860 0.23450346 0.30684406
v 0.11126773 0.21412630 0.30684406
v 0.11282289 0.21324034 0.30684406
v 0.16503169 0.18333907 0.30684406
v 0.20146677 0.16148531 0.30684406
v 0.25441611 0.20563583 0.26748526
v 0.26174757 0.20497136 0.26192209
v 0.26063672 0.21205907 0.26080611
v 0.25952590 0.21870379 0.25925708
v 0.28996253 0.12006652 0.26002327
v 0.28129807 0.25200123 0.13670027
v -0.26404315 0.26440471 0.13670027
v -0.29129541 0.21264970 0.19224891
v -0.27130055 0.25266570 0.19224891
v -0.36927536 0.05856588 0.18500344
v -0.37127486 0.05258563 0.19211566
v -0.36127743 0.07259364 0.19221561
v -0.33128512 0.13261767 0.19223227
v -0.23486549 0.27304286 0.22541155
v -0.23893851 0.28958088 0.19946107
v -0.26100692 0.26204216 0.20172633
v -0.25745228 0.26521689 0.20504093
v -0.25263870 0.27481478 0.20502427
v -0.25797066 0.27555311 0.19536364
v -0.23938283 0.24890037 0.24908011
v -0.23042218 0.24063139 0.27048340
v -0.22494210 0.24720228 0.26693562
v -0.22494210 0.29223877 0.20325871
v -0.22494210 0.28876871 0.20825559
v -0.13533552 0.30353481 0.23563850
v -0.22494210 0.26831776 0.23758727
v -0.22494210 0.23494644 0.27494729
v -0.21183437 0.23140259 0.28069371
v -0.21509279 0.23479879 0.27814528
v -0.15577471 0.20482369 0.30684406
v 0.28477868 0.24387991 0.13670027
v 0.28411219 0.24550419 0.13670027
v 0.29003659 0.23007365 0.19040006
v 0.29618314 0.21375716 0.13670027
v 0.33069280 0.00230720 0.25137866
v 0.33587664 -0.00492817 0.24499932
v 0.35031739 0.03110101 0.19064991
v 0.33002630 0.10005851 0.19010025
v 0.29433176 0.21493845 0.19501385
v 0.29995996 0.19995089 0.19003363
v 0.20487329 0.15543123 0.30684406
v 0.24982470 0.20940118 0.26988378
v 0.21338962 0.13431576 0.30684406
v 0.25678587 0.19493043 0.26808491
v 0.31025359 0.05110902 0.26023981
v 0.30055240 0.08233923 0.26053962
v 0.29966372 0.08898396 0.25952357
v -0.37364462 0.02327500 0.13670027
v -0.38097605 0.03206081 0.17827430
v -0.38171661 0.03346358 0.18500344
v -0.37601438 0.04498111 0.18500344
v -0.28100178 0.22202615 0.20172633
v -0.38119823 0.03257762 0.19181585
v -0.36098120 0.06196208 0.20145983
v -0.35927793 0.06860680 0.19887811
v -0.35098377 0.08197009 0.20167637
v -0.36312881 0.06513678 0.19533032
v -0.34098634 0.10197809 0.20169303
v -0.32099149 0.14199412 0.20170967
v -0.24975054 0.23952393 0.23960268
v -0.24338181 0.24528269 0.24544904
v -0.27744713 0.22520085 0.20504093
v -0.23908661 0.23826881 0.25854087
v -0.23175517 0.23494644 0.27149943
v -0.24078989 0.23155026 0.26128915
v -0.24908406 0.21818697 0.25854087
v -0.25071326 0.21146841 0.26107261
v -0.23856823 0.22712044 0.26795167
v -0.24019745 0.22040188 0.27020025
v -0.23493953 0.21493845 0.27508053
v -0.22427562 0.22446255 0.27792877
v -0.21849932 0.22748959 0.27946115
v -0.16621646 0.19559491 0.30684406
v -0.16495754 0.19714534 0.30684406
v 0.37231171 -0.00581413 0.13670027
v 0.36475810 0.01663028 0.13670027
v 0.35527906 0.04431664 0.13670027
v 0.34513351 0.07392258 0.13670027
v 0.32454622 0.13342980 0.13670027
v 0.31432664 0.16281426 0.13670027
v 0.30395892 0.19212489 0.13670027
v 0.33180362 -0.00492817 0.25309426
v 0.33728370 -0.01496909 0.24499932
v 0.35638988 -0.01496909 0.20500761
v 0.36172184 -0.01496909 0.19373132
v 0.36075914 -0.00714308 0.19173257
v 0.35979640 -0.00049835 0.18930076
v 0.21398206 0.13247001 0.30684406
v 0.31980669 0.01950966 0.25987336
v 0.30921683 0.05775375 0.25900725
v -0.37571815 0.01552282 0.13670027
v -0.38349393 0.02497310 0.18500344
v -0.38179067 0.02497310 0.19296513
v -0.35994443 0.01995264 0.23000868
v -0.36986780 0.02955058 0.20985459
v -0.36868292 0.03494019 0.20815565
v -0.37068242 0.04158492 0.20104343
v -0.36920130 0.04822964 0.19877817
v -0.32684183 0.11482456 0.21470156
v -0.30995730 0.12995978 0.22997536
v -0.28966621 0.15941806 0.23956937
v -0.25974798 0.21951592 0.23960268
v -0.24278937 0.23494644 0.25512633
v -0.26819023 0.19566874 0.24543238
v -0.24138233 0.21493845 0.27114967
v -0.26108095 0.17241219 0.27093312
v -0.27974284 0.17949989 0.23958603
v -0.30003390 0.15011545 0.23010862
v -0.25226843 0.20497136 0.26320460
v -0.29233217 0.11430775 0.26492020
v -0.29988581 0.08979610 0.26991710
v -0.29018459 0.11046858 0.27021691
v -0.27078217 0.15181354 0.27071661
v -0.23442115 0.20497136 0.27784547
v -0.33039647 0.02098626 0.27036682
v -0.26493183 0.14494732 0.27594668
v -0.24427047 0.18466802 0.27752900
v -0.22901514 0.20829372 0.27962768
v -0.25337923 0.04343067 0.30684406
v -0.21405602 0.11416009 0.30684406
v -0.17399225 0.18407738 0.30684406
v 0.36164778 -0.00426369 0.18558641
v 0.36446190 -0.01496909 0.18500344
v 0.37305227 -0.01430461 0.13670027
v 0.33239606 -0.01496909 0.25382715
v 0.31899211 0.02497310 0.25879070
v 0.32824898 -0.00492817 0.25809115
v 0.33150738 -0.02316425 0.25236139
v 0.34150481 -0.02323808 0.23307343
v 0.36120346 -0.02493618 0.19253208
v 0.25434205 -0.01504292 0.30684406
v 0.32321322 -0.00492817 0.26195538
v -0.37579221 0.01500601 0.13670027
v -0.38171661 0.01552282 0.18500344
v -0.38112417 0.01685177 0.19214898
v -0.37475544 0.00577722 0.13670027
v -0.37075648 0.01788539 0.21137032
v -0.35846332 0.02667120 0.22787668
v -0.34024578 0.00932108 0.26043966
v -0.34024578 0.01131450 0.26043966
v -0.33957928 0.01795922 0.25942364
v -0.33824632 0.02497310 0.25752482
v -0.35787088 0.04498111 0.21700013
v -0.35490867 0.05480054 0.21488479
v -0.35046539 0.07104320 0.21068740
v -0.28070554 0.16155913 0.25099558
v -0.32225043 0.06425081 0.25487649
v -0.32869321 0.04498111 0.25815776
v -0.32017687 0.06041164 0.26025647
v -0.32987809 0.03973916 0.25984004
v -0.33135918 0.03309443 0.26198870
v -0.33284029 0.02460395 0.26518673
v -0.33669114 0.01478452 0.26425397
v -0.33121109 0.01493218 0.27089980
v -0.31084594 0.02194606 0.28044385
v -0.25619334 0.03501402 0.30684406
v -0.31499302 0.03494019 0.27539700
v 0.36320296 -0.02493618 0.18500344
v 0.37283009 -0.01555973 0.13670027
v 0.32876736 -0.01496909 0.25882402
v 0.33372906 -0.02589597 0.24591541
v 0.32773060 -0.02589597 0.25540948
v 0.31928831 -0.03844712 0.25940698
v 0.27966887 -0.12918454 0.25967348
v 0.23997538 -0.21992198 0.25997329
v 0.35868558 -0.02493618 0.19754562
v 0.36001858 -0.03010430 0.19015023
v 0.23160715 -0.24443363 0.25470993
v 0.25478637 -0.01666718 0.30684406
v 0.25611937 -0.02493618 0.30684406
v 0.32380566 -0.01496909 0.26240513
v -0.31010538 -0.17030802 0.19023350
v -0.36009255 -0.04036671 0.19028348
v -0.37438515 0.00430062 0.13670027
v -0.31010538 -0.17030802 0.18945067
v -0.37290406 0.01471069 0.20549065
v -0.26137719 -0.22494243 0.24261747
v -0.25819281 -0.21563981 0.25519294
v -0.26967135 -0.17924148 0.25945696
v -0.33209974 -0.00441136 0.26512009
v -0.33024836 -0.00071984 0.27021691
v -0.33106297 0.00496509 0.27078322
v -0.31951037 0.07894304 0.24931329
v -0.32499045 0.01493218 0.27413112
v -0.25708199 0.02497310 0.30684406
v 0.36535054 -0.03608455 0.13670027
v 0.37016413 -0.02493618 0.13670027
v 0.31092009 -0.02161381 0.27059999
v 0.32225052 -0.02493618 0.26155564
v 0.30973521 -0.05941492 0.25980675
v 0.25574911 -0.03556774 0.30684406
v 0.23027417 -0.24066828 0.26023981
v 0.23049633 -0.25056154 0.25119546
v 0.23568019 -0.24495044 0.24499932
v 0.24264136 -0.25543433 0.21540113
v 0.25019497 -0.26052862 0.19061661
v 0.26004431 -0.24015148 0.19018354
v -0.29033270 -0.22088178 0.19068323
v -0.26944917 -0.23756741 0.13670027
v -0.28018716 -0.24029914 0.17962347
v -0.28381586 -0.23498335 0.18500344
v -0.29033270 -0.22088178 0.18861786
v -0.27929851 -0.23830572 0.19881149
v -0.27211517 -0.23468803 0.21505135
v -0.26026636 -0.23040588 0.24055210
v -0.24997272 -0.23003672 0.26003993
v -0.25471222 -0.22494243 0.25499308
v -0.26048851 -0.20146440 0.26067287
v -0.25100946 -0.22494243 0.26107261
v -0.31951037 -0.02892301 0.26963395
v -0.24130827 -0.21290810 0.27084985
v -0.20502131 -0.15583728 0.30684406
v -0.21353763 -0.13464800 0.30684406
v -0.32499045 0.00496509 0.27366474
v -0.21390791 -0.13354054 0.30684406
v -0.21435224 -0.13206393 0.30684406
v -0.25449008 0.01448920 0.30684406
v 0.32491651 -0.11537828 0.13670027
v 0.25049120 -0.26104546 0.18500344
v 0.25204635 -0.04309843 0.30684406
v 0.22449787 -0.24443363 0.26153898
v 0.22086918 -0.25034004 0.26033974
v 0.22753413 -0.24738686 0.25787461
v 0.18354544 -0.16322032 0.30684406
v 0.16488358 -0.19563182 0.30684406
v 0.21005714 -0.24007764 0.27005035
v 0.22449787 -0.25196433 0.25470993
v 0.22753413 -0.25883055 0.23782046
v 0.23071849 -0.26045483 0.23115796
v 0.24004944 -0.26997894 0.20011067
v 0.23938294 -0.25905204 0.21901554
v 0.24086404 -0.26126695 0.21233638
v 0.24634412 -0.26429397 0.19438092
v 0.24130836 -0.27108639 0.19501385
v 0.24767709 -0.26606590 0.18500344
v -0.28107584 -0.24177574 0.19214898
v -0.28240880 -0.23498335 0.19528036
v -0.26537615 -0.24576257 0.13670027
v -0.28092772 -0.24155425 0.18500344
v -0.27085623 -0.24088977 0.21175340
v -0.24493697 -0.23129185 0.26115590
v -0.23930879 -0.21962665 0.26990044
v -0.24471480 -0.21571365 0.26800162
v -0.25937769 -0.23956083 0.22932577
v -0.24575157 -0.23882253 0.24593207
v -0.24493697 -0.23498335 0.25499308
v -0.21961014 -0.24982326 0.24961311
v -0.22871892 -0.23948701 0.25935704
v -0.23049624 -0.20065227 0.28031060
v -0.20198505 -0.16196519 0.30684406
v -0.23545793 -0.05535426 0.30684406
v 0.25367555 -0.25344092 0.13670027
v 0.18835902 -0.25956887 0.25964019
v 0.19494992 -0.25868291 0.25872409
v 0.19494992 -0.26289123 0.25372720
v 0.18680386 -0.26916677 0.24836388
v 0.20494735 -0.26119310 0.25177842
v 0.21050148 -0.26015949 0.25036263
v 0.13378046 -0.21283427 0.30684406
v 0.12667118 -0.21504918 0.30684406
v 0.12519008 -0.21549216 0.30684406
v -0.02225349 -0.25580353 0.30684406
v -0.02447514 -0.25639415 0.30684406
v 0.16443925 -0.19614862 0.30684406
v 0.15570076 -0.20493443 0.30684406
v 0.22449787 -0.25705862 0.24449962
v 0.21716642 -0.25890440 0.24749775
v 0.22086918 -0.26030713 0.24083525
v 0.22449787 -0.26148844 0.23468909
v 0.22975579 -0.26990509 0.20978796
v 0.23493963 -0.27403957 0.19501385
v 0.24271542 -0.27212000 0.18500344
v 0.23493963 -0.27625448 0.18500344
v 0.24523330 -0.26532763 0.13670027
v -0.27626225 -0.24657471 0.18500344
v -0.27130055 -0.25063539 0.19149938
v -0.27529952 -0.24546726 0.19516376
v -0.26078475 -0.25107837 0.13670027
v -0.23560603 -0.22442563 0.26805159
v -0.22205396 -0.24066828 0.26060623
v -0.23493953 -0.23335908 0.26263830
v -0.03469473 -0.25550818 0.30684406
v -0.04447000 -0.25063539 0.30684406
v -0.18250857 -0.17363039 0.30684406
v -0.18473023 -0.17237526 0.30684406
v -0.25271273 -0.24125893 0.23294018
v -0.24960244 -0.23978232 0.23961934
v -0.26826429 -0.24915878 0.19816189
v -0.23990123 -0.23992999 0.24989626
v -0.19857852 -0.26931447 0.22845964
v -0.11237846 -0.32114333 0.20500761
v -0.06202104 -0.35097075 0.19224891
v -0.08971762 -0.32985526 0.20978796
v -0.12052451 -0.31021643 0.22039801
v -0.15133141 -0.29065138 0.23085815
v -0.21294519 -0.25129986 0.25162852
v -0.23590225 -0.24362150 0.24593207
v -0.14496267 -0.29190654 0.23224062
v -0.17495497 -0.27241534 0.24281734
v -0.20494725 -0.25292414 0.25337741
v -0.00507272 -0.30859214 0.25889063
v 0.00499876 -0.31265283 0.25276113
v 0.01499619 -0.31132388 0.25151193
v 0.02180926 -0.31043792 0.25056252
v 0.12496792 -0.28216094 0.25254461
v 0.16495763 -0.27197236 0.25241137
v 0.18013892 -0.26997894 0.25004616
v 0.12193166 -0.30061847 0.23084149
v 0.16303220 -0.28105348 0.24141821
v 0.16969715 -0.27987218 0.23976925
v 0.21427828 -0.26126695 0.24449962
v -0.03232497 -0.25572968 0.30684406
v -0.01499609 -0.30896133 0.25914049
v 0.22153568 -0.28053665 0.19141610
v 0.22486815 -0.27787876 0.19484729
v 0.18406384 -0.27691895 0.23405614
v 0.14577737 -0.30290723 0.20582378
v 0.03543538 -0.34846050 0.19531366
v 0.15496020 -0.30394083 0.19501385
v 0.20494735 -0.28526181 0.19501385
v 0.24219702 -0.27167702 0.17500968
v 0.22708981 -0.27876472 0.17500968
v 0.23493963 -0.27544236 0.17500968
v 0.22775629 -0.27913386 0.18500344
v 0.20042999 -0.29013461 0.18145566
v 0.20042999 -0.29013461 0.17855746
v 0.01499619 -0.36448169 0.13670027
v 0.03647215 -0.35562205 0.13670027
v 0.21494478 -0.28385901 0.17500968
v 0.23397692 -0.27197236 0.13670027
v -0.27122650 -0.25056154 0.18500344
v -0.26159936 -0.25078303 0.20179296
v -0.25137976 -0.26067632 0.18500344
v -0.24493697 -0.26385099 0.18500344
v -0.23123679 -0.27056956 0.18500344
v -0.19028436 -0.29013461 0.19035010
v -0.23449521 -0.26702571 0.19456413
v -0.25508249 -0.25462222 0.13670027
v -0.19102490 -0.26030713 0.25039595
v -0.19487576 -0.25491756 0.25495976
v -0.17495497 -0.26303887 0.25339407
v -0.19872662 -0.24945410 0.25954023
v -0.19206168 -0.25063539 0.26058957
v -0.03499095 -0.31147152 0.25152856
v -0.02499352 -0.31316966 0.25309426
v -0.01499609 -0.31427711 0.25414360
v -0.16858622 -0.25942117 0.25955689
v -0.25856310 -0.24930643 0.20845546
v -0.17451063 -0.29153734 0.20439133
v -0.23545793 -0.24842046 0.23558852
v -0.23545793 -0.25292414 0.22541155
v -0.11978396 -0.31988817 0.19977754
v -0.04172996 -0.36079019 0.19146608
v -0.05868856 -0.34949416 0.19891143
v -0.14733243 -0.30873984 0.19501385
v -0.16999328 -0.29995400 0.19006695
v -0.02092050 -0.37031430 0.19048335
v -0.05202361 -0.35082310 0.20104343
v -0.08305266 -0.33118421 0.21142028
v -0.16006990 -0.28001982 0.24001910
v -0.04498838 -0.35215205 0.20250918
v -0.00507272 -0.31390792 0.25389376
v -0.00507272 -0.31892842 0.24871367
v 0.09497563 -0.29102057 0.25122875
v 0.10763904 -0.28939629 0.24926332
v 0.14429627 -0.28304690 0.24548236
v -0.00944197 -0.36012572 0.20017730
v 0.11497048 -0.30165213 0.23205739
v 0.08068301 -0.32018352 0.22028142
v -0.01892101 -0.37031430 0.19048335
v 0.02862232 -0.34949416 0.19884479
v 0.01010856 -0.36005187 0.19013357
v 0.17421451 -0.29707462 0.19421436
v 0.17036365 -0.30010170 0.19033344
v 0.19924511 -0.28969163 0.18811816
v 0.21494478 -0.28415436 0.18500344
v 0.13926053 -0.29973251 0.21936531
v 0.22620115 -0.27536851 0.13670027
v 0.20428085 -0.28828883 0.18487018
v -0.00588733 -0.37297219 0.13670027
v -0.06468702 -0.35333329 0.13670027
v -0.06365025 -0.35385013 0.13670027
v -0.16392076 -0.27463025 0.24459957
v -0.18495239 -0.26134080 0.25152856
v -0.15496011 -0.27640218 0.24598204
v -0.12496781 -0.28142262 0.25157854
v -0.04128563 -0.31043792 0.25047922
v -0.02499352 -0.31811625 0.24796413
v -0.01499609 -0.31929755 0.24919669
v -0.03499095 -0.36507231 0.18500344
v -0.02691896 -0.36876386 0.18500344
v -0.04780247 -0.35894442 0.18500344
v -0.02195727 -0.37075728 0.18500344
v -0.02277187 -0.36086398 0.20104343
v -0.02943682 -0.35983038 0.19982752
v -0.05498581 -0.34107751 0.21122040
v -0.00507272 -0.32306290 0.24371678
v 0.04498848 -0.30748469 0.24694809
v 0.01499619 -0.35185671 0.20239258
v -0.01758802 -0.37075728 0.18500344
v -0.01255228 -0.36905915 0.18500344
v -0.00507272 -0.36632746 0.18500344
v 0.03906408 -0.34964180 0.18715210
v -0.01395932 -0.37415344 0.13670027
v -0.04306295 -0.36359572 0.13670027
v -0.04498838 -0.33827192 0.21808279
v -0.03499095 -0.31649202 0.24609864
v -0.05498581 -0.30814916 0.24793082
v -0.07794287 -0.29928952 0.24923001
v -0.02499352 -0.32261992 0.24296725
v -0.02329026 -0.37208623 0.13670027
v -0.04172996 -0.36418635 0.13670027
v -0.01499609 -0.37422729 0.13670027
v -0.02499352 -0.32764035 0.23738740
v -0.02499352 -0.34661478 0.21623394
f 1 2 3
f 1 3 9
f 1 9 4
f 1 4 5
f 1 5 2
f 2 6 3
f 2 5 7
f 2 7 8
f 2 8 6
f 3 6 10
f 3 10 11
f 3 11 9
f 4 12 13
f 4 13 5
f 4 9 14
f 4 14 15
f 4 15 16
f 4 16 12
f 5 17 18
f 5 18 19
f 5 19 7
f 5 13 20
f 5 20 21
f 5 21 22
f 5 22 17
f 6 8 23
f 6 23 29
f 6 29 28
f 6 28 31
f 6 31 30
f 6 30 58
f 6 58 109
f 6 109 160
f 6 160 186
f 6 186 185
f 6 185 188
f 6 188 235
f 6 235 234
f 6 234 233
f 6 233 232
f 6 232 231
f 6 231 230
f 6 230 229
f 6 229 278
f 6 278 313
f 6 313 341
f 6 341 340
f 6 340 372
f 6 372 406
f 6 406 428
f 6 428 484
f 6 484 532
f 6 532 482
f 6 482 481
f 6 481 534
f 6 534 558
f 6 558 567
f 6 567 565
f 6 565 566
f 6 566 559
f 6 559 536
f 6 536 535
f 6 535 492
f 6 492 432
f 6 432 392
f 6 392 353
f 6 353 328
f 6 328 290
f 6 290 287
f 6 287 245
f 6 245 202
f 6 202 161
f 6 161 114
f 6 114 72
f 6 72 71
f 6 71 70
f 6 70 69
f 6 69 68
f 6 68 67
f 6 67 37
f 6 37 15
f 6 15 14
f 6 14 11
f 6 11 10
f 7 24 25
f 7 25 8
f 7 19 26
f 7 26 27
f 7 27 24
f 8 28 29
f 8 29 23
f 8 25 30
f 8 30 31
f 8 31 28
f 9 11 14
f 12 32 13
f 12 16 32
f 13 32 33
f 13 33 34
f 13 34 35
f 13 35 36
f 13 36 20
f 15 37 38
f 15 38 39
f 15 39 40
f 15 40 41
f 15 41 16
f 16 41 32
f 17 22 18
f 18 22 26
f 18 26 19
f 20 36 42
f 20 42 21
f 21 42 43
f 21 43 22
f 22 43 44
f 22 44 45
f 22 45 46
f 22 46 47
f 22 47 26
f 24 48 25
f 24 27 49
f 24 49 50
f 24 50 51
f 24 51 52
f 24 52 48
f 25 48 30
f 26 53 54
f 26 54 27
f 26 47 46
f 26 46 45
f 26 45 55
f 26 55 56
f 26 56 53
f 27 54 57
f 27 57 49
f 30 52 58
f 30 48 52
f 32 34 33
f 32 41 40
f 32 40 59
f 32 59 34
f 34 60 36
f 34 36 35
f 34 59 61
f 34 61 62
f 34 62 63
f 34 63 60
f 36 64 42
f 36 60 65
f 36 65 66
f 36 66 64
f 37 67 38
f 38 67 68
f 38 68 69
f 38 69 70
f 38 70 71
f 38 71 72
f 38 72 73
f 38 73 74
f 38 74 39
f 39 74 75
f 39 75 76
f 39 76 40
f 40 76 77
f 40 77 61
f 40 61 59
f 42 78 79
f 42 79 80
f 42 80 81
f 42 81 43
f 42 64 66
f 42 66 82
f 42 82 83
f 42 83 84
f 42 84 85
f 42 85 86
f 42 86 78
f 43 81 87
f 43 87 88
f 43 88 89
f 43 89 44
f 44 89 90
f 44 90 45
f 45 90 91
f 45 91 55
f 49 57 50
f 50 57 92
f 50 92 51
f 51 92 93
f 51 93 94
f 51 94 95
f 51 95 52
f 52 95 96
f 52 96 58
f 53 97 54
f 53 56 98
f 53 98 99
f 53 99 97
f 54 97 100
f 54 100 101
f 54 101 102
f 54 102 57
f 55 91 103
f 55 103 56
f 56 103 91
f 56 91 104
f 56 104 105
f 56 105 106
f 56 106 98
f 57 102 107
f 57 107 95
f 57 95 92
f 58 96 108
f 58 108 109
f 60 63 110
f 60 110 65
f 61 77 62
f 62 110 63
f 62 77 111
f 62 111 110
f 65 110 112
f 65 112 113
f 65 113 66
f 66 113 82
f 72 114 73
f 73 114 115
f 73 115 75
f 73 75 74
f 75 116 76
f 75 115 117
f 75 117 118
f 75 118 119
f 75 119 120
f 75 120 121
f 75 121 116
f 76 122 112
f 76 112 111
f 76 111 77
f 76 116 122
f 78 86 123
f 78 123 79
f 79 123 86
f 79 86 140
f 79 140 184
f 79 184 228
f 79 228 227
f 79 227 275
f 79 275 274
f 79 274 273
f 79 273 310
f 79 310 339
f 79 339 371
f 79 371 405
f 79 405 370
f 79 370 369
f 79 369 367
f 79 367 366
f 79 366 404
f 79 404 439
f 79 439 438
f 79 438 437
f 79 437 436
f 79 436 466
f 79 466 417
f 79 417 416
f 79 416 415
f 79 415 414
f 79 414 413
f 79 413 419
f 79 419 418
f 79 418 379
f 79 379 378
f 79 378 374
f 79 374 345
f 79 345 324
f 79 324 323
f 79 323 285
f 79 285 242
f 79 242 197
f 79 197 195
f 79 195 154
f 79 154 153
f 79 153 152
f 79 152 151
f 79 151 150
f 79 150 141
f 79 141 87
f 79 87 81
f 79 81 80
f 82 113 124
f 82 124 125
f 82 125 126
f 82 126 127
f 82 127 83
f 83 127 126
f 83 126 128
f 83 128 129
f 83 129 130
f 83 130 131
f 83 131 132
f 83 132 84
f 84 132 133
f 84 133 134
f 84 134 135
f 84 135 136
f 84 136 137
f 84 137 138
f 84 138 85
f 85 138 137
f 85 137 86
f 86 137 139
f 86 139 140
f 87 91 90
f 87 90 89
f 87 89 88
f 87 141 99
f 87 99 142
f 87 142 91
f 91 142 106
f 91 106 104
f 92 95 93
f 93 95 94
f 95 143 108
f 95 108 96
f 95 107 144
f 95 144 145
f 95 145 146
f 95 146 143
f 97 99 147
f 97 147 148
f 97 148 149
f 97 149 100
f 98 142 99
f 98 106 142
f 99 141 150
f 99 150 151
f 99 151 152
f 99 152 153
f 99 153 154
f 99 154 147
f 100 149 155
f 100 155 156
f 100 156 157
f 100 157 158
f 100 158 101
f 101 107 102
f 101 158 157
f 101 157 159
f 101 159 107
f 104 106 105
f 107 159 144
f 108 160 109
f 108 143 160
f 110 111 112
f 112 122 113
f 113 122 124
f 114 161 115
f 115 162 163
f 115 163 117
f 115 161 164
f 115 164 165
f 115 165 166
f 115 166 167
f 115 167 162
f 116 121 168
f 116 168 169
f 116 169 122
f 117 170 171
f 117 171 172
f 117 172 173
f 117 173 118
f 117 163 170
f 118 173 119
f 119 173 172
f 119 172 120
f 120 172 174
f 120 174 175
f 120 175 121
f 121 175 176
f 121 176 134
f 121 134 133
f 121 133 168
f 122 126 125
f 122 125 124
f 122 169 126
f 126 169 177
f 126 177 178
f 126 178 128
f 128 178 130
f 128 130 179
f 128 179 129
f 129 179 130
f 130 178 131
f 131 178 180
f 131 180 133
f 131 133 132
f 133 180 168
f 134 176 175
f 134 175 135
f 135 181 182
f 135 182 183
f 135 183 136
f 135 175 181
f 136 139 137
f 136 183 139
f 139 183 182
f 139 182 140
f 140 182 184
f 143 185 186
f 143 186 160
f 143 146 187
f 143 187 188
f 143 188 185
f 144 159 189
f 144 189 145
f 145 189 190
f 145 190 191
f 145 191 192
f 145 192 146
f 146 192 193
f 146 193 194
f 146 194 187
f 147 154 148
f 148 154 195
f 148 195 149
f 149 196 155
f 149 195 197
f 149 197 196
f 155 196 198
f 155 198 199
f 155 199 200
f 155 200 159
f 155 159 156
f 156 159 157
f 159 200 199
f 159 199 201
f 159 201 189
f 161 202 203
f 161 203 204
f 161 204 205
f 161 205 164
f 162 206 170
f 162 170 163
f 162 167 213
f 162 213 206
f 164 205 165
f 165 205 204
f 165 204 207
f 165 207 208
f 165 208 209
f 165 209 210
f 165 210 211
f 165 211 166
f 166 211 210
f 166 210 212
f 166 212 213
f 166 213 167
f 168 180 178
f 168 178 169
f 169 178 177
f 170 206 216
f 170 216 171
f 171 214 215
f 171 215 172
f 171 216 256
f 171 256 214
f 172 215 174
f 174 215 217
f 174 217 175
f 175 218 181
f 175 217 219
f 175 219 220
f 175 220 221
f 175 221 222
f 175 222 223
f 175 223 218
f 181 218 224
f 181 224 225
f 181 225 226
f 181 226 182
f 182 226 227
f 182 227 228
f 182 228 184
f 187 194 229
f 187 229 230
f 187 230 231
f 187 231 232
f 187 232 233
f 187 233 234
f 187 234 235
f 187 235 188
f 189 201 236
f 189 236 190
f 190 236 237
f 190 237 238
f 190 238 239
f 190 239 240
f 190 240 191
f 191 240 241
f 191 241 229
f 191 229 192
f 192 229 194
f 192 194 193
f 196 197 242
f 196 242 198
f 198 242 199
f 199 243 201
f 199 242 243
f 201 243 244
f 201 244 236
f 202 245 203
f 203 245 246
f 203 246 204
f 204 246 207
f 206 213 216
f 207 246 247
f 207 247 248
f 207 248 249
f 207 249 250
f 207 250 251
f 207 251 252
f 207 252 208
f 208 253 210
f 208 210 209
f 208 252 254
f 208 254 255
f 208 255 253
f 210 253 212
f 212 253 213
f 213 253 256
f 213 256 216
f 214 257 215
f 214 256 257
f 215 257 217
f 217 257 258
f 217 258 219
f 218 223 259
f 218 259 260
f 218 260 224
f 219 258 220
f 220 258 261
f 220 261 262
f 220 262 255
f 220 255 221
f 221 255 254
f 221 254 263
f 221 263 223
f 221 223 222
f 223 263 264
f 223 264 265
f 223 265 266
f 223 266 267
f 223 267 259
f 224 268 225
f 224 260 267
f 224 267 269
f 224 269 270
f 224 270 271
f 224 271 268
f 225 268 272
f 225 272 273
f 225 273 274
f 225 274 275
f 225 275 226
f 226 275 227
f 229 241 276
f 229 276 277
f 229 277 278
f 236 279 237
f 236 244 280
f 236 280 281
f 236 281 279
f 237 279 282
f 237 282 283
f 237 283 284
f 237 284 238
f 238 284 239
f 239 284 277
f 239 277 240
f 240 277 241
f 241 277 276
f 242 285 286
f 242 286 243
f 243 286 281
f 243 281 280
f 243 280 244
f 245 287 246
f 246 288 289
f 246 289 247
f 246 287 290
f 246 290 288
f 247 289 291
f 247 291 248
f 248 292 250
f 248 250 249
f 248 291 293
f 248 293 294
f 248 294 295
f 248 295 296
f 248 296 292
f 250 292 296
f 250 296 297
f 250 297 298
f 250 298 251
f 251 298 299
f 251 299 252
f 252 299 254
f 253 255 262
f 253 262 261
f 253 261 256
f 254 299 300
f 254 300 263
f 256 258 257
f 256 261 258
f 259 267 260
f 263 300 264
f 264 300 301
f 264 301 302
f 264 302 303
f 264 303 304
f 264 304 305
f 264 305 265
f 265 305 306
f 265 306 269
f 265 269 266
f 266 269 267
f 268 271 273
f 268 273 272
f 269 306 295
f 269 295 307
f 269 307 308
f 269 308 309
f 269 309 310
f 269 310 273
f 269 273 311
f 269 311 270
f 270 311 273
f 270 273 271
f 277 284 312
f 277 312 278
f 278 312 313
f 279 281 314
f 279 314 282
f 281 286 314
f 282 315 283
f 282 314 316
f 282 316 317
f 282 317 318
f 282 318 319
f 282 319 315
f 283 320 284
f 283 315 319
f 283 319 320
f 284 321 312
f 284 320 319
f 284 319 322
f 284 322 321
f 285 323 286
f 286 323 324
f 286 324 325
f 286 325 314
f 288 326 327
f 288 327 289
f 288 290 328
f 288 328 329
f 288 329 326
f 289 330 291
f 289 327 331
f 289 331 332
f 289 332 333
f 289 333 330
f 291 330 293
f 293 334 335
f 293 335 336
f 293 336 308
f 293 308 294
f 293 330 333
f 293 333 334
f 294 308 307
f 294 307 295
f 295 306 296
f 296 298 297
f 296 306 305
f 296 305 304
f 296 304 302
f 296 302 298
f 298 302 337
f 298 337 300
f 298 300 299
f 300 337 301
f 301 337 302
f 302 304 303
f 308 336 338
f 308 338 309
f 309 338 310
f 310 338 339
f 312 321 340
f 312 340 341
f 312 341 313
f 314 325 342
f 314 342 343
f 314 343 317
f 314 317 316
f 317 343 344
f 317 344 318
f 318 344 319
f 319 345 346
f 319 346 322
f 319 344 345
f 321 322 347
f 321 347 348
f 321 348 349
f 321 349 350
f 321 350 351
f 321 351 340
f 322 346 347
f 324 345 325
f 325 345 342
f 326 352 331
f 326 331 327
f 326 329 356
f 326 356 352
f 328 353 354
f 328 354 355
f 328 355 356
f 328 356 329
f 331 352 357
f 331 357 358
f 331 358 359
f 331 359 360
f 331 360 361
f 331 361 332
f 332 361 360
f 332 360 333
f 333 360 362
f 333 362 335
f 333 335 334
f 335 362 360
f 335 360 363
f 335 363 364
f 335 364 365
f 335 365 366
f 335 366 367
f 335 367 336
f 336 368 339
f 336 339 338
f 336 367 369
f 336 369 370
f 336 370 368
f 339 368 371
f 340 351 350
f 340 350 373
f 340 373 372
f 342 345 343
f 343 345 344
f 345 374 346
f 346 375 376
f 346 376 377
f 346 377 347
f 346 374 378
f 346 378 379
f 346 379 380
f 346 380 375
f 347 377 376
f 347 376 381
f 347 381 382
f 347 382 383
f 347 383 384
f 347 384 385
f 347 385 349
f 347 349 348
f 349 385 350
f 350 385 386
f 350 386 387
f 350 387 388
f 350 388 389
f 350 389 373
f 352 356 390
f 352 390 391
f 352 391 357
f 353 392 354
f 354 392 393
f 354 393 355
f 355 393 356
f 356 393 390
f 357 391 390
f 357 390 394
f 357 394 360
f 357 360 359
f 357 359 358
f 360 395 396
f 360 396 397
f 360 397 363
f 360 394 398
f 360 398 399
f 360 399 400
f 360 400 401
f 360 401 402
f 360 402 395
f 363 397 364
f 364 397 365
f 365 397 396
f 365 396 403
f 365 403 366
f 366 403 404
f 368 370 405
f 368 405 371
f 372 373 406
f 373 389 406
f 375 380 376
f 376 407 408
f 376 408 409
f 376 409 410
f 376 410 411
f 376 411 412
f 376 412 381
f 376 380 413
f 376 413 414
f 376 414 415
f 376 415 416
f 376 416 417
f 376 417 407
f 379 418 380
f 380 418 419
f 380 419 413
f 381 420 382
f 381 412 421
f 381 421 420
f 382 420 421
f 382 421 383
f 383 421 422
f 383 422 423
f 383 423 384
f 384 388 387
f 384 387 386
f 384 386 385
f 384 423 424
f 384 424 425
f 384 425 388
f 388 426 389
f 388 425 427
f 388 427 426
f 389 426 428
f 389 428 406
f 390 393 429
f 390 429 430
f 390 430 431
f 390 431 394
f 392 432 393
f 393 432 429
f 394 431 430
f 394 430 398
f 395 433 396
f 395 402 434
f 395 434 435
f 395 435 436
f 395 436 433
f 396 433 436
f 396 436 437
f 396 437 438
f 396 438 439
f 396 439 404
f 396 404 403
f 398 440 441
f 398 441 399
f 398 430 442
f 398 442 440
f 399 441 443
f 399 443 400
f 400 443 401
f 401 444 445
f 401 445 446
f 401 446 447
f 401 447 448
f 401 448 449
f 401 449 450
f 401 450 402
f 401 443 451
f 401 451 444
f 402 450 449
f 402 449 452
f 402 452 453
f 402 453 454
f 402 454 434
f 407 455 456
f 407 456 457
f 407 457 458
f 407 458 459
f 407 459 408
f 407 417 455
f 408 459 460
f 408 460 461
f 408 461 409
f 409 461 410
f 410 461 462
f 410 462 463
f 410 463 464
f 410 464 411
f 411 464 412
f 412 464 465
f 412 465 421
f 417 466 467
f 417 467 455
f 421 465 422
f 422 424 423
f 422 465 424
f 424 468 469
f 424 469 425
f 424 465 470
f 424 470 471
f 424 471 472
f 424 472 473
f 424 473 474
f 424 474 468
f 425 469 468
f 425 468 427
f 426 475 428
f 426 427 475
f 427 476 477
f 427 477 475
f 427 468 478
f 427 478 479
f 427 479 480
f 427 480 481
f 427 481 482
f 427 482 483
f 427 483 476
f 428 475 484
f 429 485 430
f 429 432 485
f 430 486 502
f 430 502 442
f 430 485 487
f 430 487 488
f 430 488 489
f 430 489 490
f 430 490 491
f 430 491 486
f 432 492 485
f 434 454 493
f 434 493 494
f 434 494 495
f 434 495 496
f 434 496 497
f 434 497 436
f 434 436 435
f 436 498 499
f 436 499 500
f 436 500 467
f 436 467 466
f 436 497 501
f 436 501 498
f 440 502 443
f 440 443 441
f 440 442 502
f 443 502 451
f 444 503 445
f 444 451 504
f 444 504 505
f 444 505 503
f 445 506 446
f 445 503 491
f 445 491 506
f 446 507 508
f 446 508 447
f 446 506 509
f 446 509 490
f 446 490 510
f 446 510 507
f 447 508 511
f 447 511 512
f 447 512 448
f 448 512 449
f 449 512 513
f 449 513 452
f 451 502 504
f 452 514 453
f 452 513 512
f 452 512 515
f 452 515 514
f 453 514 454
f 454 514 493
f 455 516 456
f 455 467 500
f 455 500 516
f 456 516 517
f 456 517 457
f 457 517 458
f 458 517 518
f 458 518 459
f 459 518 460
f 460 518 519
f 460 519 520
f 460 520 461
f 461 520 521
f 461 521 522
f 461 522 523
f 461 523 462
f 462 523 524
f 462 524 463
f 463 524 464
f 464 525 526
f 464 526 472
f 464 472 470
f 464 470 465
f 464 524 525
f 468 474 527
f 468 527 528
f 468 528 529
f 468 529 530
f 468 530 478
f 470 472 531
f 470 531 471
f 471 531 472
f 472 526 473
f 473 526 528
f 473 528 527
f 473 527 474
f 475 477 484
f 476 532 477
f 476 483 482
f 476 482 532
f 477 532 484
f 478 530 479
f 479 530 533
f 479 533 534
f 479 534 480
f 480 534 481
f 485 492 535
f 485 535 487
f 486 491 502
f 487 536 488
f 487 535 536
f 488 536 489
f 489 536 490
f 490 536 510
f 490 509 491
f 491 509 506
f 491 503 502
f 493 514 537
f 493 537 538
f 493 538 494
f 494 538 495
f 495 538 537
f 495 537 539
f 495 539 540
f 495 540 541
f 495 541 496
f 496 501 497
f 496 541 501
f 498 541 542
f 498 542 499
f 498 501 541
f 499 542 543
f 499 543 500
f 500 543 516
f 502 505 504
f 502 503 505
f 507 544 545
f 507 545 511
f 507 511 508
f 507 510 544
f 510 536 546
f 510 546 544
f 511 545 547
f 511 547 554
f 511 554 524
f 511 524 543
f 511 543 548
f 511 548 549
f 511 549 512
f 512 549 515
f 514 515 549
f 514 549 550
f 514 550 537
f 516 543 517
f 517 521 551
f 517 551 552
f 517 552 519
f 517 519 518
f 517 543 524
f 517 524 521
f 519 552 521
f 519 521 520
f 521 553 523
f 521 523 522
f 521 552 551
f 521 524 553
f 523 553 524
f 524 554 555
f 524 555 526
f 524 526 525
f 526 555 556
f 526 556 534
f 526 534 557
f 526 557 533
f 526 533 529
f 526 529 528
f 529 533 530
f 533 557 534
f 534 556 555
f 534 555 554
f 534 554 558
f 536 559 544
f 536 544 546
f 537 550 539
f 539 550 560
f 539 560 561
f 539 561 562
f 539 562 540
f 540 562 563
f 540 563 541
f 541 563 562
f 541 562 561
f 541 561 542
f 542 564 543
f 542 561 564
f 543 564 548
f 544 559 545
f 545 565 547
f 545 559 566
f 545 566 565
f 547 565 567
f 547 567 554
f 548 564 568
f 548 568 569
f 548 569 549
f 549 569 560
f 549 560 550
f 554 567 558
f 560 569 561
f 561 569 568
f 561 568 564

