# https://github.com/mikedh/trimesh
v 0.02499399 0.25631627 0.30686069
v 0.01519733 0.25405642 0.30686069
v 0.01499637 0.25435773 0.33500791
v 0.01499637 0.25425729 0.34500057
v 0.02499399 0.25571364 0.33500791
v 0.03574520 0.25475949 0.30686069
v -0.02398931 0.24396235 0.30686069
v -0.00128116 0.25039041 0.33788750
v -0.00128116 0.25039041 0.34170148
v 0.00489827 0.25134456 0.34501964
v 0.00153224 0.24948646 0.34835687
v 0.00821407 0.25049084 0.35070249
v 0.01499637 0.25154546 0.35203737
v 0.02499399 0.25506079 0.34500057
v 0.03499160 0.25300181 0.33500791
v 0.04036721 0.25018954 0.34088147
v 0.05428349 0.24577025 0.30686069
v -0.13371190 0.21388106 0.30686069
v -0.10055398 0.22015846 0.34082425
v -0.13145114 0.21041593 0.34189218
v -0.12858750 0.20956220 0.34856665
v -0.06016160 0.23005164 0.35009226
v -0.02926444 0.23974393 0.34932944
v -0.02263285 0.24079855 0.35104576
v 0.00489827 0.24662396 0.35442114
v 0.00957053 0.22010824 0.39015821
v 0.01499637 0.24265665 0.36338401
v 0.01981934 0.23000142 0.38005114
v 0.02499399 0.25184676 0.35228530
v 0.03182653 0.25094283 0.35104576
v 0.03509208 0.25189698 0.34454289
v 0.06001077 0.23999503 0.34006146
v 0.17098935 0.18053551 0.34202567
v 0.05569019 0.24501695 0.30686069
v -0.15581720 0.20484160 0.30686069
v -0.16109231 0.20067340 0.34278846
v -0.15561624 0.20197910 0.34568709
v -0.15938418 0.19976947 0.34946293
v -0.09105875 0.22030911 0.35043550
v -0.10673341 0.20900980 0.35875002
v -0.00499886 0.21287668 0.39370522
v 0.00052746 0.20981330 0.39978853
v 0.00720928 0.21081768 0.40110436
v 0.01499637 0.23868933 0.36838034
v 0.01499637 0.20664950 0.40617695
v 0.02002030 0.23000142 0.38005114
v 0.05141985 0.24074832 0.35083598
v 0.03850836 0.24918514 0.34755594
v 0.13330989 0.14171608 0.41185981
v 0.13999170 0.13995840 0.40999094
v 0.15240081 0.14126410 0.40142855
v 0.16913049 0.17953113 0.34870014
v 0.18872382 0.16933663 0.34770852
v 0.19038171 0.17019035 0.34105310
v 0.07478112 0.23452114 0.30686069
v -0.16496074 0.19710784 0.30686069
v -0.16134351 0.20092450 0.33500791
v -0.17033635 0.19057935 0.34145355
v -0.16526218 0.19514929 0.34545827
v -0.16938180 0.18887189 0.34810898
v -0.16269997 0.19309030 0.35276204
v -0.15878130 0.18892211 0.35943651
v -0.15094398 0.18083683 0.37084034
v -0.15209949 0.19098110 0.36096212
v -0.14496551 0.19248767 0.36241144
v -0.14496551 0.19750960 0.35747233
v -0.13084827 0.20027165 0.36035189
v -0.15275259 0.20082407 0.35100761
v -0.12190568 0.21056658 0.35077876
v -0.12512100 0.20669971 0.35445926
v -0.09497742 0.20690058 0.36605379
v -0.00499886 0.20895958 0.39870155
v 0.00429540 0.20710146 0.40465137
v 0.00499875 0.20147692 0.41136399
v 0.01499637 0.20167778 0.41149747
v 0.02082413 0.21041593 0.40049413
v 0.11025005 0.21011461 0.35016853
v 0.12989362 0.19992012 0.34988248
v 0.18570946 0.16531910 0.35541278
v 0.16244866 0.18128879 0.35140806
v 0.13823333 0.12916127 0.41975474
v 0.14496540 0.13363078 0.41348076
v 0.02790787 0.19891573 0.40882769
v 0.04102032 0.19052912 0.41054398
v 0.02122604 0.20062318 0.41062024
v 0.14496540 0.13865270 0.40854162
v 0.15908264 0.13905445 0.39950249
v 0.17068791 0.15045421 0.38052788
v 0.18264486 0.16135177 0.36155328
v 0.18204199 0.17104408 0.35119832
v 0.19314487 0.16265747 0.35297182
v 0.19977646 0.15949367 0.34959644
v 0.19510420 0.16521865 0.34532475
v 0.20078124 0.16115090 0.34292194
v 0.20103243 0.16140200 0.33500791
v 0.20143434 0.16150244 0.30686069
v 0.19038171 0.17019035 0.33895540
v 0.09382181 0.22387467 0.30686069
v -0.16621673 0.19555105 0.30686069
v -0.17033635 0.19057935 0.33849773
v -0.18063539 0.17119473 0.34233078
v -0.21404453 0.11419595 0.30686069
v -0.24142493 0.06498114 0.30686069
v -0.25338191 0.04343711 0.30686069
v -0.17114018 0.18219274 0.35121739
v -0.17958038 0.16928641 0.34900525
v -0.16531242 0.18555743 0.35531741
v -0.16119279 0.18224296 0.36124817
v -0.14958753 0.16948728 0.37974602
v -0.14149900 0.16170332 0.39153123
v -0.12908989 0.14944983 0.40964767
v -0.14496551 0.18229318 0.37221339
v -0.13717842 0.18887189 0.36893335
v -0.13401334 0.19459689 0.36464262
v -0.08030755 0.20012100 0.38014647
v -0.02313524 0.20107517 0.40121877
v -0.01499648 0.20243108 0.40278250
v -0.01499648 0.20740278 0.39673734
v -0.00118068 0.20042232 0.41042957
v 0.00499875 0.19499864 0.41491100
v -0.01499648 0.19268855 0.41208863
v 0.01499637 0.19499864 0.41506356
v 0.02474279 0.19535017 0.41275609
v 0.18932669 0.15924257 0.35962722
v 0.14225248 0.12248212 0.42055571
v 0.14536731 0.12549527 0.41855335
v 0.03499160 0.18495479 0.41557845
v 0.00022602 0.01019200 0.50015366
v 0.00233607 0.00496921 0.50137413
v 0.15144627 0.13152158 0.41155469
v 0.20042956 0.00100189 0.42053664
v 0.20168555 -0.00497419 0.42175710
v 0.21067838 -0.00838910 0.41103980
v 0.24062099 -0.01838272 0.37097383
v 0.25167364 -0.01496781 0.35249507
v 0.23002051 0.06021032 0.35007319
v 0.23976693 0.02932552 0.34925318
v 0.24951334 -0.00145885 0.34810898
v 0.20198698 0.15567701 0.34576339
v 0.18148935 0.15160926 0.37164128
v 0.16973336 0.13940600 0.38981494
v 0.17043671 0.07100745 0.42038408
v 0.17993194 0.04991538 0.41996452
v 0.21032670 0.13101938 0.34168240
v 0.21344154 0.13433385 0.30686069
v 0.20490086 0.15547614 0.30687976
v 0.20490086 0.15547614 0.30686069
v 0.16390561 0.18400063 0.30686069
v 0.11281226 0.21322821 0.30686069
v -0.17395358 0.18410107 0.30686069
v -0.24011871 0.06021032 0.34051913
v -0.25031728 0.04057461 0.34128195
v -0.24926226 0.03871651 0.34795642
v -0.25624549 0.03500028 0.30686069
v -0.25338191 0.03495007 0.33500791
v -0.18977895 0.14965071 0.34957737
v -0.20002776 0.13001500 0.35003504
v -0.23097517 0.02169220 0.38121441
v -0.22147994 0.02244548 0.39172193
v -0.21188423 0.02314855 0.40222949
v -0.20203733 0.02495645 0.41222212
v -0.13999182 0.15000224 0.40001738
v -0.13180281 0.14277068 0.41182166
v -0.12547266 0.14563318 0.41351888
v -0.12245831 0.15095641 0.41094443
v -0.12597506 0.15537569 0.40537602
v -0.13682674 0.17872761 0.37879252
v -0.10120709 0.17049167 0.40049413
v -0.08347262 0.19439600 0.38443723
v -0.12497027 0.19133264 0.37129802
v -0.02976683 0.19992012 0.39992201
v -0.00786250 0.19911662 0.40913281
v -0.02941516 0.18977584 0.40978119
v -0.07262094 0.17104408 0.41100165
v -0.04498933 0.18164033 0.41142118
v -0.02278357 0.19108154 0.41098258
v -0.10497504 0.14623579 0.41864869
v -0.00062805 0.01019200 0.50015366
v -0.06498457 0.17260088 0.41222212
v -0.08497980 0.16356142 0.41296586
v -0.09497742 0.15497394 0.41582635
v -0.11452051 0.14412659 0.41769519
v 0.14893430 0.11841436 0.41960219
v 0.00288870 -0.00261389 0.50167924
v 0.19495349 -0.01496781 0.42631483
v 0.19495349 -0.00497419 0.42553294
v 0.18495587 0.01496283 0.42566645
v 0.16058981 0.09169775 0.42044127
v -0.00434575 0.00401504 0.50110716
v 0.15295345 0.12499309 0.41336632
v 0.19244152 0.01496283 0.42210037
v 0.20238890 -0.01496781 0.42236733
v 0.20741282 -0.01496781 0.41641751
v 0.24062099 -0.02184784 0.37097383
v 0.25227648 -0.02496143 0.35320064
v 0.25564253 -0.02496143 0.34500057
v 0.25438654 -0.01496781 0.34500057
v 0.25051814 -0.00813800 0.35074064
v 0.25026691 0.00085123 0.34143448
v 0.22002289 0.10018480 0.34032845
v 0.21399418 0.13247573 0.30686069
v -0.25207567 0.03520116 0.34477174
v -0.25107086 0.03203735 0.35125551
v -0.25709957 0.02495645 0.30686069
v -0.25624549 0.02495645 0.33500791
v -0.25564265 0.02495645 0.34500057
v -0.24042015 0.02083847 0.37057337
v -0.20902060 0.01742357 0.40888488
v -0.20454930 0.01385800 0.41479656
v -0.19801819 0.01697159 0.41922081
v -0.19480288 0.02555908 0.41769519
v -0.18299665 0.05498752 0.41304213
v -0.17862582 0.04785640 0.41958314
v -0.13506837 0.13433385 0.41308028
v -0.13426454 0.12454110 0.41739008
v -0.12512100 0.13528802 0.41870591
v -0.11753486 0.13885358 0.41975474
v -0.11497266 0.15246297 0.41229841
v -0.10085542 0.16034739 0.41033420
v -0.08497980 0.17375591 0.40364066
v -0.03499172 0.19384359 0.40373600
v -0.00730987 0.00667666 0.49933362
v 0.01499637 -0.18209729 0.42160454
v 0.11497255 -0.14498530 0.42400736
v 0.12451801 -0.14518619 0.42189059
v 0.12497017 -0.13499169 0.42522782
v 0.14496540 -0.10496061 0.42486551
v 0.18495587 -0.03495505 0.42600971
v -0.00499886 -0.00196104 0.50125968
v -0.01499648 -0.18495978 0.42328268
v -0.00751083 -0.19073500 0.42067012
v 0.19570707 -0.02551384 0.42356876
v 0.20133387 -0.02250069 0.42135662
v -0.00997255 0.00004772 0.50000107
v 0.21062814 -0.02124521 0.41084909
v 0.23132673 -0.02496143 0.38188183
v 0.25132197 -0.03249431 0.35169414
v 0.25574303 -0.03555768 0.30686069
v 0.25614494 -0.02496143 0.33500791
v 0.25227648 -0.03550746 0.34492430
v 0.25353247 -0.03495505 0.33500791
v 0.25478846 -0.01667527 0.30686069
v 0.25026691 0.00085123 0.33870751
v 0.25433630 -0.01501803 0.30686069
v -0.25217617 0.02495645 0.35295275
v -0.25509000 0.01496283 0.33500791
v -0.25509000 0.01496283 0.34500057
v -0.25453740 0.01466151 0.30686069
v -0.25202543 0.01496283 0.35293368
v -0.24042015 0.01837773 0.37057337
v -0.21022634 0.01079463 0.41035327
v -0.20007800 0.01029244 0.42004082
v -0.18952775 0.02922508 0.41986918
v -0.12858750 0.12755425 0.41960219
v -0.14808035 0.09702099 0.41944963
v -0.13737938 0.11499946 0.41914451
v 0.11497255 -0.15126270 0.42107058
v 0.10497493 -0.15271907 0.42200500
v 0.12090078 -0.15030855 0.42028871
v 0.12758261 -0.14860108 0.41910639
v 0.13125007 -0.14197215 0.42101339
v 0.13336012 -0.13499169 0.42206222
v -0.00997255 -0.00005271 0.50000107
v -0.14878370 -0.12861384 0.40947607
v -0.14215210 -0.13117503 0.41071561
v -0.05815203 -0.16848789 0.41943058
v -0.03991517 -0.17988765 0.41996452
v -0.02434099 -0.18490957 0.42168081
v -0.02057304 -0.19028302 0.42026964
v -0.01499648 -0.19078521 0.42070827
v -0.01961850 -0.22006300 0.39010099
v -0.00901801 -0.20027664 0.41033420
v -0.00494862 -0.19500363 0.41500634
v -0.00087924 -0.18957995 0.41965941
v 0.06001077 -0.16999447 0.42000267
v 0.09050601 -0.16015151 0.42015523
v 0.14185056 -0.12313996 0.42137569
v 0.15219985 -0.10496061 0.42162362
v 0.19279319 -0.03495505 0.42219570
v 0.19088410 -0.04148355 0.42086083
v 0.19952525 -0.02917985 0.41944963
v 0.20510182 -0.02521253 0.41513982
v 0.20886977 -0.02792437 0.40859884
v 0.21861619 -0.02496143 0.39826292
v 0.22750854 -0.02496143 0.38687816
v 0.24710186 -0.03550746 0.35503137
v 0.24112338 -0.05207980 0.35144621
v 0.20027885 -0.13057239 0.35039738
v 0.24956359 -0.03917347 0.34818524
v 0.25609469 -0.02496143 0.30686069
v 0.25524062 -0.03666251 0.30686069
v 0.25026691 -0.04052939 0.34152985
v 0.17988169 -0.16979359 0.34955829
v 0.17033623 -0.19068478 0.34194937
v -0.25061870 -0.00206148 0.34271219
v -0.25182444 0.00431636 0.34562987
v -0.24981490 0.00054992 0.34938666
v -0.25081968 0.00722907 0.35121739
v -0.23544645 -0.05534405 0.30686069
v -0.24006847 -0.03028467 0.35014945
v -0.21087945 -0.12288886 0.35129365
v -0.21710911 -0.09521808 0.35455462
v -0.24750389 0.00431636 0.35474533
v -0.22158042 0.00496921 0.39229405
v -0.21263783 0.00547140 0.40533787
v -0.21022634 0.00908718 0.41035327
v -0.20007800 0.00963959 0.42004082
v 0.12451801 -0.15342213 0.41544494
v 0.13496777 -0.17135039 0.39156938
v 0.16013765 -0.20007576 0.35013038
v 0.14059457 -0.17039622 0.39046332
v 0.15998694 -0.18998170 0.36002770
v 0.14019266 -0.16020173 0.40022713
v 0.13516873 -0.14518619 0.41510171
v 0.13833381 -0.13499169 0.41826731
v 0.13984099 -0.12981911 0.41988826
v 0.15049171 -0.11083625 0.42046034
v 0.16104196 -0.09180318 0.42095616
v -0.15084350 -0.12193470 0.41054398
v -0.15531480 -0.12575136 0.40533787
v -0.15973586 -0.12951779 0.39980760
v -0.18098707 -0.15106183 0.37091663
v -0.18917608 -0.15914711 0.35958907
v -0.16159470 -0.14131930 0.39132148
v -0.14576934 -0.13539344 0.40547138
v -0.12994397 -0.13991317 0.40997186
v -0.18249425 -0.16130655 0.36132446
v -0.18591052 -0.16547474 0.35548905
v -0.02042232 -0.20022643 0.41025794
v -0.18264496 -0.17140061 0.35138899
v -0.02032185 -0.21016982 0.40018898
v -0.02012089 -0.22006300 0.39010099
v -0.02499410 -0.25230372 0.35260949
v -0.01499648 -0.25195220 0.35230437
v -0.01499648 -0.24266164 0.36311704
v -0.01499648 -0.23337109 0.37389153
v -0.01499648 -0.22900201 0.37888786
v 0.09191271 -0.22056520 0.35068342
v 0.15496302 -0.20087928 0.35106480
v 0.17164245 -0.07282033 0.42137569
v 0.18028361 -0.06051662 0.42028871
v 0.20042956 -0.04083070 0.41056305
v 0.14853239 -0.11751541 0.41841987
v 0.18691520 -0.05499251 0.41668451
v 0.17114006 -0.12193470 0.39124519
v 0.16772379 -0.16497254 0.36756033
v 0.17053719 -0.17099886 0.36065701
v 0.18083625 -0.12148272 0.38098556
v 0.17993194 -0.13986295 0.36994407
v 0.19952525 -0.05916071 0.39944527
v 0.22168078 -0.04314078 0.38214883
v 0.23097505 -0.04183508 0.37124082
v 0.20193674 -0.06498613 0.39248472
v 0.18837214 -0.12695661 0.36796078
v 0.18455395 -0.15417542 0.35445926
v 0.19008027 -0.15015788 0.35013038
v 0.25207555 -0.04314078 0.30686069
v 0.24001811 -0.06006465 0.34025216
v 0.17144150 -0.18269992 0.35178947
v 0.16963288 -0.18937908 0.34862387
v 0.16676925 -0.19440100 0.34517220
v 0.16189604 -0.20143168 0.33500791
v 0.17033623 -0.19068478 0.33838332
v -0.21434596 -0.13202876 0.30686069
v -0.21389380 -0.13353533 0.30686069
v -0.23012109 -0.07046002 0.34072891
v -0.21067849 -0.13222963 0.34290287
v -0.20987466 -0.12956801 0.34957737
v -0.21278854 -0.08467206 0.36542448
v -0.20007800 -0.16015151 0.35011131
v -0.20756365 -0.12575136 0.35478345
v -0.20861869 -0.11495423 0.35804442
v -0.20892012 -0.04499889 0.38846099
v -0.20922156 0.00245825 0.40890396
v -0.20294164 -0.00497419 0.41308028
v -0.20464978 0.00602381 0.41485378
v -0.19801819 0.00296044 0.41935429
v 0.03016863 -0.24000002 0.35007319
v 0.12944146 -0.20981829 0.34938666
v 0.15496302 -0.20308891 0.34500057
v 0.16119269 -0.20082906 0.34500057
v 0.16189604 -0.19399925 0.35407788
v 0.16697021 -0.18561263 0.35508859
v 0.16862810 -0.17767800 0.35846394
v 0.15581708 -0.15638506 0.38588655
v 0.14175008 -0.15497893 0.40192437
v 0.13903716 -0.14840022 0.40899932
v 0.14576922 -0.12630376 0.41582635
v -0.16079088 -0.10169636 0.41058213
v -0.16134351 -0.12283865 0.40123785
v -0.17450620 -0.13393709 0.38457072
v -0.18264496 -0.14498530 0.37244222
v -0.19495359 -0.16231093 0.35226622
v -0.18932679 -0.16964293 0.34896713
v -0.16928132 -0.14950503 0.37965065
v -0.14943680 -0.13966207 0.39971223
v -0.15496312 -0.14332807 0.39326662
v -0.16968323 -0.17983744 0.34965363
v -0.15008992 -0.19003193 0.35007319
v -0.03242951 -0.25124913 0.35133180
v -0.02499410 -0.25601995 0.34500057
v -0.01499648 -0.25501555 0.34500057
v -0.00736011 -0.25074694 0.35093132
v 0.15079315 -0.14131930 0.40087551
v 0.17902763 -0.15814273 0.35878813
v 0.18078600 -0.15151380 0.36103839
v 0.21319035 -0.05469120 0.38514280
v 0.18164007 -0.16311444 0.35211366
v 0.18359940 -0.16326509 0.30686069
v 0.17767116 -0.16587649 0.35527927
v 0.16491039 -0.19565648 0.30686069
v 0.15496302 -0.20419374 0.33500791
v 0.15571660 -0.20494702 0.30686069
v 0.15581708 -0.20484659 0.30686069
v -0.21354213 -0.13464016 0.30686069
v -0.20414738 -0.15497893 0.33500791
v -0.20309235 -0.15497893 0.34500057
v -0.20620719 -0.14498530 0.34500057
v -0.20821677 -0.09496699 0.36744589
v -0.20932204 -0.08778565 0.36902872
v -0.18922631 -0.13835637 0.36931476
v -0.20002776 -0.09009573 0.38007021
v -0.20047991 -0.04113201 0.40049413
v -0.20168565 -0.03495505 0.40180993
v -0.20073111 -0.16120611 0.34500057
v -0.19460192 -0.16678044 0.34538198
v -0.18766890 -0.14498530 0.36790359
v -0.20103255 -0.01496781 0.41105887
v -0.19505407 -0.02395705 0.41243190
v -0.00067829 -0.24974255 0.34917688
v 0.00163272 -0.25049582 0.34252149
v 0.07005862 -0.23000640 0.34017587
v 0.10095578 -0.22026388 0.34156799
v -0.17058754 -0.08125715 0.41048676
v -0.16516170 -0.10541258 0.40516624
v -0.19143684 -0.03495505 0.41128770
v -0.17882678 -0.06749709 0.40894210
v -0.19018087 -0.04042894 0.41018164
v -0.19229092 -0.05499251 0.40209600
v -0.18917608 -0.06825038 0.39927363
v -0.19103493 -0.17059709 0.34231171
v -0.17169280 -0.18089204 0.34297916
v -0.06071423 -0.24035156 0.34143448
v -0.05870466 -0.23929696 0.34810898
v -0.03911134 -0.24949145 0.34875736
v -0.03544387 -0.25250462 0.34524849
v -0.02499410 -0.25672302 0.33500791
v -0.03499172 -0.25416183 0.33500791
v -0.01499648 -0.25506577 0.33500791
v 0.12662806 -0.21509130 0.30686069
v 0.13376203 -0.21288165 0.30686069
v -0.20505169 -0.15588288 0.30686069
v -0.20128374 -0.16185896 0.33500791
v -0.19897273 -0.04781117 0.39906386
v -0.19997752 -0.01998973 0.40999094
v 0.00163272 -0.25049582 0.33754423
v 0.12522136 -0.21549305 0.30686069
v -0.18038420 -0.06081794 0.41035327
v -0.19842011 -0.02666889 0.40857977
v -0.04448694 -0.25059628 0.30686069
v -0.04328120 -0.25124913 0.30686069
v -0.13848464 -0.19917181 0.33500791
v -0.08030755 -0.23015706 0.34070984
v -0.20198709 -0.16200961 0.30686069
v -0.19103493 -0.17059709 0.33729631
v -0.04107067 -0.25054607 0.34208286
v -0.02454195 -0.25637147 0.30686069
v -0.03469028 -0.25551775 0.30686069
v -0.03232903 -0.25571862 0.30686069
v -0.02228118 -0.25581908 0.30686069
v -0.18254448 -0.17366047 0.30686069
v -0.18475501 -0.17240499 0.30686069
v -0.18380047 -0.17295741 0.30686069
f 1 2 3
f 1 3 4
f 1 4 5
f 1 5 6
f 1 6 17
f 1 17 34
f 1 34 55
f 1 55 98
f 1 98 149
f 1 149 148
f 1 148 96
f 1 96 147
f 1 147 145
f 1 145 201
f 1 201 244
f 1 244 242
f 1 242 290
f 1 290 238
f 1 238 291
f 1 291 357
f 1 357 409
f 1 409 411
f 1 411 414
f 1 414 413
f 1 413 451
f 1 451 450
f 1 450 457
f 1 457 470
f 1 470 467
f 1 467 469
f 1 469 468
f 1 468 461
f 1 461 460
f 1 460 471
f 1 471 473
f 1 473 472
f 1 472 464
f 1 464 452
f 1 452 415
f 1 415 365
f 1 365 364
f 1 364 299
f 1 299 248
f 1 248 204
f 1 204 154
f 1 154 104
f 1 104 103
f 1 103 102
f 1 102 150
f 1 150 99
f 1 99 56
f 1 56 35
f 1 35 18
f 1 18 7
f 1 7 2
f 2 7 8
f 2 8 3
f 3 8 9
f 3 9 4
f 4 10 11
f 4 11 12
f 4 12 13
f 4 13 14
f 4 14 5
f 4 9 10
f 5 14 6
f 6 15 16
f 6 16 17
f 6 14 15
f 7 18 8
f 8 18 9
f 9 18 19
f 9 19 20
f 9 20 21
f 9 21 11
f 9 11 10
f 11 21 22
f 11 22 23
f 11 23 12
f 12 23 22
f 12 22 24
f 12 24 13
f 13 24 25
f 13 25 26
f 13 26 27
f 13 27 28
f 13 28 29
f 13 29 14
f 14 29 30
f 14 30 31
f 14 31 15
f 15 31 16
f 16 32 17
f 16 31 33
f 16 33 32
f 17 32 33
f 17 33 34
f 18 35 36
f 18 36 20
f 18 20 19
f 20 36 37
f 20 37 21
f 21 37 38
f 21 38 22
f 22 38 39
f 22 39 25
f 22 25 24
f 25 39 40
f 25 40 41
f 25 41 42
f 25 42 26
f 26 42 43
f 26 43 28
f 26 28 44
f 26 44 27
f 27 44 28
f 28 45 46
f 28 46 29
f 28 43 45
f 29 46 30
f 30 47 48
f 30 48 31
f 30 46 49
f 30 49 50
f 30 50 51
f 30 51 47
f 31 48 52
f 31 52 33
f 33 52 53
f 33 53 54
f 33 54 34
f 34 54 55
f 35 56 57
f 35 57 36
f 36 38 37
f 36 57 58
f 36 58 59
f 36 59 38
f 38 59 60
f 38 60 61
f 38 61 62
f 38 62 63
f 38 63 64
f 38 64 65
f 38 65 66
f 38 66 67
f 38 67 68
f 38 68 69
f 38 69 39
f 39 69 40
f 40 69 70
f 40 70 71
f 40 71 42
f 40 42 41
f 42 71 72
f 42 72 73
f 42 73 43
f 43 73 74
f 43 74 45
f 45 75 46
f 45 74 75
f 46 75 76
f 46 76 49
f 47 77 78
f 47 78 48
f 47 51 79
f 47 79 80
f 47 80 77
f 48 78 52
f 49 81 82
f 49 82 50
f 49 76 83
f 49 83 84
f 49 84 85
f 49 85 81
f 50 82 86
f 50 86 51
f 51 86 82
f 51 82 87
f 51 87 88
f 51 88 89
f 51 89 79
f 52 78 90
f 52 90 53
f 53 90 91
f 53 91 92
f 53 92 93
f 53 93 54
f 54 93 94
f 54 94 95
f 54 95 96
f 54 96 97
f 54 97 55
f 55 97 98
f 56 99 100
f 56 100 58
f 56 58 57
f 58 101 60
f 58 60 59
f 58 100 102
f 58 102 103
f 58 103 104
f 58 104 101
f 60 105 61
f 60 101 106
f 60 106 105
f 61 107 62
f 61 105 107
f 62 107 108
f 62 108 109
f 62 109 110
f 62 110 111
f 62 111 63
f 63 111 112
f 63 112 64
f 64 112 65
f 65 112 113
f 65 113 114
f 65 114 67
f 65 67 66
f 67 70 68
f 67 114 115
f 67 115 116
f 67 116 117
f 67 117 73
f 67 73 118
f 67 118 72
f 67 72 71
f 67 71 70
f 68 70 69
f 72 118 73
f 73 117 119
f 73 119 74
f 74 120 75
f 74 119 121
f 74 121 120
f 75 120 122
f 75 122 123
f 75 123 85
f 75 85 76
f 76 85 83
f 77 80 78
f 78 80 90
f 79 90 80
f 79 89 124
f 79 124 91
f 79 91 90
f 81 125 126
f 81 126 82
f 81 85 123
f 81 123 127
f 81 127 128
f 81 128 129
f 81 129 125
f 82 126 130
f 82 130 87
f 83 85 84
f 87 130 124
f 87 124 88
f 88 124 89
f 91 124 92
f 92 131 132
f 92 132 133
f 92 133 134
f 92 134 135
f 92 135 136
f 92 136 137
f 92 137 138
f 92 138 139
f 92 139 94
f 92 94 93
f 92 124 140
f 92 140 141
f 92 141 142
f 92 142 143
f 92 143 131
f 94 139 144
f 94 144 145
f 94 145 146
f 94 146 95
f 95 146 96
f 96 146 147
f 96 148 97
f 97 148 149
f 97 149 98
f 99 150 100
f 100 150 102
f 101 104 151
f 101 151 152
f 101 152 153
f 101 153 106
f 104 154 155
f 104 155 152
f 104 152 151
f 105 106 156
f 105 156 157
f 105 157 158
f 105 158 159
f 105 159 160
f 105 160 161
f 105 161 107
f 106 153 157
f 106 157 156
f 107 161 108
f 108 161 109
f 109 162 163
f 109 163 110
f 109 161 162
f 110 163 111
f 111 163 164
f 111 164 165
f 111 165 166
f 111 166 112
f 112 166 167
f 112 167 113
f 113 167 168
f 113 168 169
f 113 169 170
f 113 170 114
f 114 170 115
f 115 170 169
f 115 169 171
f 115 171 116
f 116 171 119
f 116 119 117
f 119 171 172
f 119 172 173
f 119 173 174
f 119 174 175
f 119 175 176
f 119 176 121
f 120 121 177
f 120 177 178
f 120 178 122
f 121 176 179
f 121 179 180
f 121 180 181
f 121 181 182
f 121 182 177
f 122 127 123
f 122 178 128
f 122 128 127
f 124 130 140
f 125 183 126
f 125 129 183
f 126 183 130
f 128 178 129
f 129 184 185
f 129 185 186
f 129 186 187
f 129 187 188
f 129 188 183
f 129 178 189
f 129 189 184
f 130 183 190
f 130 190 141
f 130 141 140
f 131 143 142
f 131 142 132
f 132 191 186
f 132 186 192
f 132 192 193
f 132 193 133
f 132 142 191
f 133 193 134
f 134 194 195
f 134 195 135
f 134 193 194
f 135 195 196
f 135 196 197
f 135 197 198
f 135 198 136
f 136 198 137
f 137 198 138
f 138 198 197
f 138 197 139
f 139 197 199
f 139 199 144
f 141 190 142
f 142 190 183
f 142 183 188
f 142 188 186
f 142 186 191
f 144 199 200
f 144 200 145
f 145 200 199
f 145 199 201
f 145 147 146
f 152 155 202
f 152 202 153
f 153 202 203
f 153 203 157
f 154 204 205
f 154 205 206
f 154 206 155
f 155 206 202
f 157 203 158
f 158 203 207
f 158 207 208
f 158 208 159
f 159 208 160
f 160 208 161
f 161 208 209
f 161 209 210
f 161 210 211
f 161 211 212
f 161 212 163
f 161 163 162
f 163 213 214
f 163 214 215
f 163 215 216
f 163 216 164
f 163 212 211
f 163 211 210
f 163 210 213
f 164 216 217
f 164 217 182
f 164 182 218
f 164 218 165
f 165 218 174
f 165 174 219
f 165 219 166
f 166 219 168
f 166 168 167
f 168 219 220
f 168 220 221
f 168 221 169
f 169 221 171
f 171 221 172
f 172 221 173
f 173 221 219
f 173 219 174
f 174 218 175
f 175 218 179
f 175 179 176
f 177 182 217
f 177 217 178
f 178 217 216
f 178 216 222
f 178 222 189
f 179 218 180
f 180 218 182
f 180 182 181
f 184 223 224
f 184 224 225
f 184 225 226
f 184 226 227
f 184 227 228
f 184 228 185
f 184 189 229
f 184 229 230
f 184 230 231
f 184 231 223
f 185 228 232
f 185 232 233
f 185 233 192
f 185 192 186
f 186 188 187
f 189 222 234
f 189 234 229
f 192 235 193
f 192 233 235
f 193 235 194
f 194 236 237
f 194 237 195
f 194 235 236
f 195 237 196
f 196 238 239
f 196 239 197
f 196 237 240
f 196 240 241
f 196 241 238
f 197 239 242
f 197 242 243
f 197 243 199
f 199 243 201
f 201 243 244
f 202 206 203
f 203 206 245
f 203 245 207
f 204 246 247
f 204 247 205
f 204 248 246
f 205 247 206
f 206 247 249
f 206 249 245
f 207 245 250
f 207 250 306
f 207 306 251
f 207 251 208
f 208 251 209
f 209 251 252
f 209 252 210
f 210 252 253
f 210 253 213
f 213 254 255
f 213 255 256
f 213 256 215
f 213 215 214
f 213 253 234
f 213 234 254
f 215 256 254
f 215 254 216
f 216 254 222
f 219 221 220
f 222 254 234
f 223 257 258
f 223 258 224
f 223 231 257
f 224 258 257
f 224 257 259
f 224 259 225
f 225 259 260
f 225 260 261
f 225 261 226
f 226 261 262
f 226 262 227
f 227 262 228
f 228 262 232
f 229 234 263
f 229 263 264
f 229 264 265
f 229 265 266
f 229 266 267
f 229 267 268
f 229 268 269
f 229 269 230
f 230 269 270
f 230 270 231
f 231 270 271
f 231 271 272
f 231 272 273
f 231 273 274
f 231 274 275
f 231 275 276
f 231 276 257
f 232 262 277
f 232 277 278
f 232 278 279
f 232 279 233
f 233 279 280
f 233 280 281
f 233 281 282
f 233 282 235
f 234 253 252
f 234 252 307
f 234 307 263
f 235 282 283
f 235 283 284
f 235 284 237
f 235 237 285
f 235 285 236
f 236 285 237
f 237 286 287
f 237 287 288
f 237 288 289
f 237 289 240
f 237 284 286
f 238 290 239
f 238 241 291
f 239 290 242
f 240 292 241
f 240 289 293
f 240 293 294
f 240 294 292
f 241 292 291
f 242 244 243
f 245 249 250
f 246 248 295
f 246 295 247
f 247 295 296
f 247 296 297
f 247 297 298
f 247 298 249
f 248 299 295
f 249 298 300
f 249 300 301
f 249 301 302
f 249 302 303
f 249 303 304
f 249 304 305
f 249 305 306
f 249 306 250
f 251 306 307
f 251 307 252
f 254 256 255
f 257 276 259
f 259 308 260
f 259 276 309
f 259 309 310
f 259 310 311
f 259 311 308
f 260 311 312
f 260 312 313
f 260 313 261
f 260 308 311
f 261 313 314
f 261 314 315
f 261 315 316
f 261 316 317
f 261 317 318
f 261 318 277
f 261 277 262
f 263 307 319
f 263 319 264
f 264 319 320
f 264 320 321
f 264 321 322
f 264 322 323
f 264 323 324
f 264 324 325
f 264 325 326
f 264 326 265
f 265 326 267
f 265 267 266
f 267 269 268
f 267 326 327
f 267 327 328
f 267 328 269
f 269 329 270
f 269 328 330
f 269 330 329
f 270 329 331
f 270 331 332
f 270 332 271
f 271 332 333
f 271 333 334
f 271 334 335
f 271 335 336
f 271 336 337
f 271 337 272
f 272 337 336
f 272 336 335
f 272 335 334
f 272 334 338
f 272 338 339
f 272 339 273
f 273 339 310
f 273 310 275
f 273 275 274
f 275 310 309
f 275 309 276
f 277 318 340
f 277 340 279
f 277 279 278
f 279 340 280
f 280 340 318
f 280 318 317
f 280 317 341
f 280 341 281
f 281 342 282
f 281 341 343
f 281 343 344
f 281 344 345
f 281 345 346
f 281 346 347
f 281 347 348
f 281 348 349
f 281 349 342
f 282 342 350
f 282 350 283
f 283 350 284
f 284 351 352
f 284 352 286
f 284 350 353
f 284 353 351
f 286 288 287
f 286 352 354
f 286 354 355
f 286 355 288
f 288 356 289
f 288 355 356
f 289 356 293
f 291 292 357
f 292 358 357
f 292 294 358
f 293 359 360
f 293 360 294
f 293 356 359
f 294 357 358
f 294 360 361
f 294 361 362
f 294 362 363
f 294 363 357
f 295 364 365
f 295 365 366
f 295 366 367
f 295 367 297
f 295 297 296
f 295 299 364
f 297 300 298
f 297 367 368
f 297 368 300
f 300 368 301
f 301 369 302
f 301 368 370
f 301 370 371
f 301 371 372
f 301 372 369
f 302 369 303
f 303 369 304
f 304 369 373
f 304 373 305
f 305 373 374
f 305 374 306
f 306 374 375
f 306 375 376
f 306 376 307
f 307 376 375
f 307 375 377
f 307 377 319
f 310 339 338
f 310 338 378
f 310 378 379
f 310 379 380
f 310 380 381
f 310 381 361
f 310 361 360
f 310 360 382
f 310 382 312
f 310 312 311
f 312 382 360
f 312 360 383
f 312 383 384
f 312 384 347
f 312 347 346
f 312 346 345
f 312 345 385
f 312 385 386
f 312 386 313
f 313 386 387
f 313 387 314
f 314 387 315
f 315 387 386
f 315 386 388
f 315 388 343
f 315 343 316
f 316 343 317
f 317 343 341
f 319 377 389
f 319 389 320
f 320 389 390
f 320 390 321
f 321 390 391
f 321 391 392
f 321 392 370
f 321 370 322
f 322 370 323
f 323 370 393
f 323 393 394
f 323 394 328
f 323 328 327
f 323 327 395
f 323 395 324
f 324 395 396
f 324 396 325
f 325 396 326
f 326 396 397
f 326 397 327
f 327 397 395
f 328 394 330
f 329 330 331
f 330 394 398
f 330 398 399
f 330 399 331
f 331 400 332
f 331 399 400
f 332 400 333
f 333 401 334
f 333 400 401
f 334 401 402
f 334 402 403
f 334 403 378
f 334 378 338
f 342 349 350
f 343 388 344
f 344 388 345
f 345 388 404
f 345 404 385
f 347 384 359
f 347 359 349
f 347 349 348
f 349 359 405
f 349 405 406
f 349 406 350
f 350 406 353
f 351 353 407
f 351 407 352
f 352 407 354
f 353 406 354
f 353 354 407
f 354 406 355
f 355 406 408
f 355 408 356
f 356 408 359
f 357 363 409
f 359 384 383
f 359 383 360
f 359 408 410
f 359 410 405
f 361 381 362
f 362 411 363
f 362 381 412
f 362 412 413
f 362 413 414
f 362 414 411
f 363 411 409
f 365 415 367
f 365 367 366
f 367 415 416
f 367 416 417
f 367 417 418
f 367 418 368
f 368 418 417
f 368 417 370
f 369 372 419
f 369 419 420
f 369 420 373
f 370 421 422
f 370 422 423
f 370 423 424
f 370 424 374
f 370 374 373
f 370 373 419
f 370 419 371
f 370 417 425
f 370 425 426
f 370 426 394
f 370 394 393
f 370 392 427
f 370 427 421
f 371 419 372
f 373 420 419
f 374 424 375
f 375 424 428
f 375 428 429
f 375 429 377
f 377 429 389
f 378 403 430
f 378 430 379
f 379 430 380
f 380 431 432
f 380 432 433
f 380 433 412
f 380 412 381
f 380 430 431
f 385 404 386
f 386 404 388
f 389 434 435
f 389 435 390
f 389 429 436
f 389 436 434
f 390 435 437
f 390 437 438
f 390 438 439
f 390 439 440
f 390 440 391
f 391 427 392
f 391 440 427
f 394 426 441
f 394 441 442
f 394 442 443
f 394 443 444
f 394 444 445
f 394 445 398
f 395 397 396
f 398 445 399
f 399 445 400
f 400 445 446
f 400 446 401
f 401 447 402
f 401 446 448
f 401 448 447
f 402 430 403
f 402 447 449
f 402 449 431
f 402 431 430
f 405 410 408
f 405 408 406
f 412 450 451
f 412 451 413
f 412 433 432
f 412 432 450
f 415 452 416
f 416 452 453
f 416 453 425
f 416 425 417
f 421 439 422
f 421 427 440
f 421 440 439
f 422 454 455
f 422 455 423
f 422 439 454
f 423 428 424
f 423 455 428
f 425 453 441
f 425 441 426
f 428 455 436
f 428 436 429
f 431 456 457
f 431 457 450
f 431 450 432
f 431 449 456
f 434 458 437
f 434 437 435
f 434 436 458
f 436 455 438
f 436 438 458
f 437 458 438
f 438 455 459
f 438 459 439
f 439 459 454
f 441 460 461
f 441 461 462
f 441 462 463
f 441 463 442
f 441 453 464
f 441 464 465
f 441 465 460
f 442 463 443
f 443 463 448
f 443 448 466
f 443 466 445
f 443 445 444
f 445 466 446
f 446 466 448
f 447 467 449
f 447 448 468
f 447 468 469
f 447 469 467
f 448 461 468
f 448 463 461
f 449 467 470
f 449 470 457
f 449 457 456
f 452 464 453
f 454 459 455
f 460 465 471
f 461 463 462
f 464 472 465
f 465 472 473
f 465 473 471

