# https://github.com/mikedh/trimesh
v -0.43832386 0.00494725 -0.00499924
v -0.43729010 0.00494725 0.04501334
v -0.43608409 0.01495696 0.06499141
v -0.43599793 0.01495696 0.05498553
v -0.43548107 0.01495696 0.02500157
v -0.43487805 0.01495696 -0.00499924
v -0.43617022 0.00494725 -0.01498827
v -0.43556720 -0.00497618 -0.01498827
v -0.43746239 -0.00497618 -0.00499924
v -0.43703166 0.00494725 0.05498553
v -0.43668708 0.00494725 0.06499141
v -0.43418890 0.01495696 0.07499731
v -0.43108767 0.02237796 0.07499731
v -0.42014730 0.05033614 0.07066816
v -0.43194914 0.02436265 0.06499141
v -0.37517971 0.15492043 -0.03538748
v -0.43082926 0.02194651 -0.01210779
v -0.43074310 0.01176421 -0.02076608
v -0.43194914 0.00494725 -0.02199576
v -0.43169069 -0.00497618 -0.02177678
v -0.43057081 -0.02154399 -0.01165298
v -0.37759176 -0.14916788 -0.03538748
v -0.43332744 -0.00497618 0.06499141
v -0.41997501 -0.05001991 -0.01003587
v -0.32831696 -0.29396361 0.06583367
v -0.32995370 -0.28999427 0.06974169
v -0.32995370 -0.28999427 0.08001709
v -0.43453348 0.00494725 0.07499731
v -0.43031237 -0.01101653 0.07132511
v -0.43108767 0.01495696 0.08114570
v -0.43005395 0.02022069 0.08008447
v -0.39990327 0.08994355 0.07994971
v -0.36983874 0.15958013 0.07885479
v -0.42970937 0.02936750 0.06499141
v -0.32021934 0.27054992 0.08037083
v -0.31091571 0.29203629 0.07499731
v -0.37018332 0.16458498 -0.03538748
v -0.41687378 0.01495696 -0.03538748
v -0.30505788 0.30497989 0.07499731
v -0.30523017 0.30497989 0.06499141
v -0.30927896 0.29842180 -0.00499924
v -0.31100187 0.29229516 -0.01168667
v -0.41911355 0.00494725 -0.03538748
v -0.41911355 -0.00161085 -0.03538748
v -0.41902742 -0.00497618 -0.03538748
v -0.41670150 -0.01576252 -0.03538748
v -0.37517971 -0.15494937 -0.03538748
v -0.32056394 -0.30155721 -0.01207410
v -0.42006114 -0.04026907 0.07048286
v -0.32099465 -0.30276528 -0.00499924
v -0.31987476 -0.30984110 0.02099248
v -0.32004705 -0.31009999 0.02766307
v -0.32332057 -0.30492255 0.05498553
v -0.32357901 -0.30492255 0.06499141
v -0.32805854 -0.29499912 0.07499731
v -0.34020495 -0.26056913 0.08023608
v -0.32349285 -0.30492255 0.07499731
v -0.32013321 -0.31009999 0.08018554
v -0.32159767 -0.30492255 0.08154998
v -0.32512960 -0.29396361 0.08274597
v -0.37440443 0.00425692 0.13670026
v -0.43014008 -0.00057536 0.08016869
v -0.43117383 0.00494725 0.08121308
v -0.38982433 -0.11948390 0.07941067
v -0.42910635 -0.00721974 0.07799570
v -0.37578273 0.01495696 0.13670026
v -0.37569660 0.01556100 0.13670026
v -0.37362912 0.02332716 0.13670026
v -0.41127437 0.00693193 0.10127538
v -0.36019054 0.18054876 0.08026976
v -0.31057113 0.29134598 0.08084249
v -0.30367956 0.27503702 -0.03538748
v -0.30092293 0.31110653 0.08129730
v -0.30143979 0.31162429 0.07499731
v -0.30531630 0.30497989 0.05498553
v -0.30152595 0.31162429 0.06499141
v -0.30152595 0.31153798 0.05498553
v -0.30143979 0.31136540 0.04501334
v -0.30126750 0.31110653 0.03500745
v -0.30350727 0.30592909 -0.00533613
v -0.29980305 0.30989847 -0.00890725
v -0.30281812 0.30325407 -0.01330378
v -0.30557474 0.29609194 -0.01583052
v -0.37070018 -0.16495907 -0.03538748
v -0.31944406 -0.29862332 -0.01874469
v -0.31780729 -0.30492255 -0.01524095
v -0.31892717 -0.30777013 -0.00499924
v -0.31393078 -0.31294757 -0.00499924
v -0.32021934 -0.31027257 0.03500745
v -0.32039165 -0.31035885 0.04501334
v -0.32047778 -0.31044513 0.05498553
v -0.32056394 -0.31044513 0.06499141
v -0.35037002 -0.23105773 0.08040452
v -0.32039165 -0.31035885 0.07499731
v -0.27051380 -0.33020571 0.08026976
v -0.31496453 -0.31113547 0.08124677
v -0.30497172 -0.30699351 0.08805212
v -0.31057113 -0.30043542 0.09029249
v -0.31496453 -0.31260240 0.07499731
v -0.29351446 -0.32140407 0.07499731
v -0.20004739 -0.35997599 0.07023019
v -0.15034185 -0.38016799 0.07112297
v -0.05110307 -0.42046574 0.07177992
v -0.31720430 -0.29499912 0.08842270
v -0.37474900 0.00581015 0.13670026
v -0.40998220 -0.06002963 0.08000024
v -0.39990327 -0.08971362 0.07981495
v -0.26939392 -0.23752953 0.13670026
v -0.40119544 0.00719080 0.11116335
v -0.38095143 0.00779484 0.13092245
v -0.26405296 0.26442328 0.13670026
v -0.29937232 0.29859439 0.08945024
v -0.30247352 0.30497989 0.08306602
v -0.29773557 0.28444272 -0.03538748
v -0.29713255 0.30497989 0.08806896
v -0.28877652 0.29807663 0.09922031
v -0.29015481 0.31007105 0.09009035
v -0.29403135 0.31240091 0.08478420
v -0.28231564 0.32094368 0.08134784
v -0.29497895 0.31585252 0.07499731
v -0.29497895 0.31559366 0.06499141
v -0.29497895 0.31524849 0.05498553
v -0.30100906 0.31084767 0.02500157
v -0.30075064 0.31050250 0.01501253
v -0.30014762 0.31007105 -0.00223667
v -0.28455541 0.29738632 -0.03538748
v -0.28507230 0.29704115 -0.03538748
v -0.29179159 0.29238147 -0.03538748
v -0.29213616 0.29212257 -0.03538748
v -0.29988918 0.29988876 -0.01997437
v -0.29497895 0.31481704 0.04501334
v -0.15499367 0.37513420 -0.03538748
v -0.15533824 0.37496161 -0.03538748
v -0.16455574 0.37012935 -0.03538748
v -0.33047059 -0.24080858 -0.03538748
v -0.31289706 -0.30492255 -0.02234950
v -0.31108800 -0.31087661 -0.02081661
v -0.31272477 -0.31217095 -0.01498827
v -0.30006146 -0.32002342 -0.01017062
v -0.30505788 -0.31795242 -0.00499924
v -0.31496453 -0.31312016 0.05498553
v -0.31496453 -0.31303385 0.06499141
v -0.30497172 -0.31717581 0.06499141
v -0.27051380 -0.32019600 0.09017458
v -0.29205000 -0.32071373 0.08099409
v -0.04851872 -0.41943026 0.07845052
v -0.17049973 -0.37015828 0.08021922
v -0.02327831 -0.37205669 0.13670026
v -0.29773557 -0.30880561 0.08924811
v -0.06471394 -0.35333160 0.13670026
v -0.30497172 -0.30198866 0.09123581
v -0.25509390 -0.25461507 0.13670026
v -0.30014762 -0.29008055 0.10006255
v -0.26534513 -0.24572714 0.13670026
v -0.31220788 -0.29499912 0.09148848
v -0.16498646 -0.37447283 0.06499141
v -0.03499399 -0.42762786 0.06499141
v -0.28498614 -0.32537344 0.06499141
v -0.02457048 -0.43185613 0.06499141
v -0.01492226 -0.43565291 0.06499141
v -0.01492226 -0.43375450 0.07499731
v -0.02233071 -0.43090692 0.07499731
v -0.02732711 -0.42892224 0.07499731
v -0.26560357 -0.24520940 0.13670026
v -0.26284692 0.26658055 0.13670026
v -0.28033432 0.29048306 0.11033795
v -0.29721871 0.28521934 -0.03538748
v -0.26095176 0.28081852 0.13082138
v -0.24044929 0.33017677 0.09019142
v -0.27499333 0.31818238 0.08810265
v -0.25492162 0.28228545 0.13228688
v -0.24311978 0.28323466 0.13670026
v -0.28817350 0.31921786 0.07499731
v -0.19005460 0.36003333 0.08003394
v -0.26086560 0.33034936 0.08057297
v -0.29239458 0.29177743 -0.03538748
v -0.00492947 0.43778124 -0.00499924
v -0.15456295 0.37530679 -0.03538748
v -0.31272477 -0.27411678 -0.03538748
v -0.30497172 -0.28826845 -0.03538748
v -0.30514401 -0.29404992 -0.03275966
v -0.30195665 -0.30181608 -0.03158052
v -0.29747713 -0.31890163 -0.01684121
v -0.30402413 -0.31708953 -0.01409549
v -0.29497895 -0.30380076 -0.03351768
v -0.24105230 -0.33063716 -0.03538748
v -0.21667333 -0.34366706 -0.03538748
v -0.16472803 -0.37128007 -0.03538748
v -0.15499367 -0.37576717 -0.03538748
v -0.30006146 -0.32002342 -0.00499924
v -0.14973883 -0.37792444 -0.03538748
v -0.08030615 -0.41011086 -0.01055806
v -0.04498679 -0.42478028 -0.00499924
v -0.12484300 -0.39198983 -0.00499924
v -0.29963076 -0.31985083 0.02500157
v -0.10752790 -0.39897937 0.00500665
v -0.04171329 -0.36420423 0.13670026
v -0.02017709 -0.43004400 0.08006762
v -0.07031336 -0.41011086 0.08011816
v -0.01492226 -0.43099320 0.08096041
v -0.01492226 -0.37421393 0.13670026
v -0.04300546 -0.36360019 0.13670026
v -0.06368021 -0.35384935 0.13670026
v -0.26077947 -0.25107718 0.13670026
v -0.19496484 -0.36256471 0.04501334
v -0.15637198 -0.37852848 0.03500745
v -0.10149776 -0.40061888 0.05498553
v -0.07427602 -0.41175038 0.05498553
v -0.04498679 -0.42426252 0.02500157
v -0.03525243 -0.42805931 0.03500745
v -0.01492226 -0.43617064 0.04501334
v -0.00716923 -0.43953598 -0.00499924
v -0.00208669 -0.44031259 -0.00499924
v -0.00079452 -0.44005373 0.00128392
v -0.00492947 -0.43668839 0.05498553
v -0.00492947 -0.43599805 0.06499141
v -0.00398188 -0.43297789 0.07599115
v -0.00665236 -0.43125206 0.08121308
v -0.26284692 0.27495074 0.13259009
v -0.25655836 0.27529591 0.13670026
v -0.25543848 0.27624512 0.13670026
v -0.24596256 0.28176770 0.13670026
v -0.10494355 0.38764635 0.08763099
v -0.04111027 0.42043680 0.08053929
v -0.09081581 0.40033108 0.08043821
v -0.14052135 0.38013905 0.08026976
v -0.23493603 0.28651369 0.13670026
v -0.04128256 0.41051337 0.09051147
v -0.05497959 0.40775207 0.08776575
v -0.00492947 0.43726349 0.06499141
v -0.00492947 0.43734977 0.05498553
v -0.01974637 0.42984250 0.07930961
v -0.02060782 0.43027395 0.07263901
v 0.00092838 0.43967962 0.06499141
v 0.00592477 0.44114658 0.06499141
v 0.00497718 0.43916190 0.00500665
v 0.00497718 0.43881673 -0.00499924
v -0.00492947 0.43562397 -0.01498827
v -0.00492947 0.43174088 -0.02194523
v -0.00492947 0.41991907 -0.03538748
v -0.30092293 -0.29482654 -0.03538748
v -0.29523736 -0.30086687 -0.03538748
v -0.28696746 -0.30552658 -0.03538748
v -0.27404577 -0.31260240 -0.03538748
v -0.07298384 -0.40096405 -0.03538748
v -0.01492226 -0.43142465 -0.02115351
v -0.02086625 -0.43030289 -0.02031127
v -0.01492226 -0.43504888 -0.01498827
v -0.03077290 -0.43030289 -0.01109710
v -0.03611388 -0.42840448 -0.00499924
v -0.04498679 -0.42443511 0.01501253
v -0.01311322 -0.42106977 0.09099998
v -0.01397467 -0.37412766 0.13670026
v -0.03568316 -0.42823189 0.01501253
v -0.01492226 -0.43668839 0.01501253
v -0.01492226 -0.43703356 -0.00499924
v -0.00200055 -0.44039890 -0.01136661
v 0.00101452 -0.44031259 -0.00499924
v 0.00032536 -0.44005373 0.00128392
v 0.00497718 -0.43427226 0.04501334
v 0.00592477 -0.43194240 0.06596842
v 0.00997358 -0.42995772 0.06994382
v 0.00325429 -0.43133837 0.07331281
v 0.00006693 -0.42995772 0.07998340
v -0.00587706 -0.37291959 0.13670026
v -0.03499399 0.42164487 0.08181950
v -0.01302708 0.43105057 0.08121308
v -0.18497205 0.30592909 0.13670026
v -0.06953805 0.38980362 0.09982672
v -0.02491506 0.41871101 0.08877645
v -0.03499399 0.41672632 0.08682244
v 0.00876755 0.44028366 0.08037083
v 0.00204826 0.43924817 0.07499731
v 0.00704466 0.44088769 0.07499731
v 0.01290250 0.44114658 0.06499141
v 0.00635550 0.44054252 0.04501334
v 0.00893984 0.44002479 0.02936441
v 0.01005972 0.44002479 0.02936441
v 0.01496997 0.43571025 -0.00499924
v 0.00497718 0.43657318 -0.01498827
v 0.00497718 0.43217233 -0.02238319
v 0.00497718 0.42742634 -0.02738613
v 0.00497718 0.41983277 -0.03538748
v -0.06548925 -0.40312132 -0.03538748
v -0.01612829 -0.41692781 -0.03538748
v -0.00492947 -0.43297789 -0.02240004
v -0.00518790 -0.43824163 -0.01481983
v 0.00101452 -0.44039890 -0.01136661
v 0.00592477 -0.43832791 -0.00499924
v 0.00497718 -0.43694726 0.01501253
v 0.01161033 -0.43064803 0.05498553
v 0.11748226 -0.38896966 0.03500745
v 0.21499814 -0.34625578 0.06499141
v 0.09499847 -0.39552775 0.06499141
v 0.06028213 -0.41011086 0.06130238
v 0.15004499 -0.36998570 0.08003394
v 0.10008101 -0.39000514 0.08001709
v 0.02496277 -0.42426252 0.06499141
v 0.22964276 -0.33987027 0.06869730
v 0.25109279 -0.33046457 0.07314436
v 0.24988678 -0.32994685 0.07981495
v 0.20000896 -0.34996626 0.08001709
v 0.02832242 -0.41925767 0.07856843
v 0.27133682 -0.32045487 0.08060666
v 0.01496997 -0.36446309 0.13670026
v -0.01621443 0.42544165 0.08550853
v -0.00492947 0.43269008 0.08271228
v -0.16421115 0.31386784 0.13670026
v -0.01940179 0.41974649 0.08982083
v -0.00492947 0.42742634 0.08771522
v 0.00583863 0.43458849 0.08471683
v 0.00962900 0.43010136 0.09009035
v 0.01083503 0.44028366 0.08037083
v 0.01229949 0.44088769 0.07499731
v 0.01789890 0.43907559 0.06499141
v 0.02496277 0.43553767 0.05498553
v 0.01126575 0.44054252 0.04501334
v 0.01496997 0.43640059 0.00500665
v 0.02263686 0.43105057 -0.01261314
v 0.02944230 0.42975619 -0.00499924
v 0.14926969 0.37763664 -0.03538748
v 0.01229949 0.43087798 -0.02095138
v 0.01531455 0.43269008 -0.01556100
v 0.06631226 0.40222949 -0.03538748
v 0.01626215 0.41698518 -0.03538748
v -0.00492947 -0.41882622 -0.03538748
v 0.00497718 -0.43246016 -0.02207999
v 0.00497718 -0.41865364 -0.03538748
v 0.01496997 -0.43453112 -0.00499924
v 0.00454646 -0.43737870 -0.01481983
v 0.15495524 -0.37516314 -0.03538748
v 0.15538596 -0.37499055 -0.03538748
v 0.14005218 -0.37999544 0.03067831
v 0.07053336 -0.41019717 0.01265424
v 0.16572334 -0.36825988 0.04501334
v 0.23420843 -0.33831704 0.06521040
v 0.24497654 -0.33382991 0.06499141
v 0.27288744 -0.32114518 0.07499731
v 0.27788383 -0.31898791 0.07499731
v 0.28494769 -0.31588146 0.07499731
v 0.29235616 -0.31104916 0.08116254
v 0.28494769 -0.31260240 0.08256067
v 0.03650617 -0.35557517 0.13670026
v -0.05558260 0.35485590 0.13670026
v -0.01276864 0.42104083 0.09091575
v -0.00424031 0.37418503 0.13670026
v 0.00299585 0.42889330 0.08906281
v 0.01023201 0.43010136 0.09009035
v 0.00489104 0.37686002 0.13670026
v 0.01496997 0.37789550 0.13670026
v 0.03150977 0.43061912 0.08069089
v 0.10008101 0.39998591 0.08005078
v 0.07949241 0.40973675 0.07930961
v 0.05881767 0.41948763 0.07818099
v 0.03366339 0.43156829 0.07499731
v 0.01729588 0.43873042 0.07499731
v 0.02608265 0.37513420 0.13670026
v 0.04374233 0.36719546 0.13670026
v 0.02496277 0.43614170 0.06499141
v 0.03977967 0.42984250 0.06499141
v 0.06002370 0.42000535 0.03980826
v 0.09499847 0.40257463 -0.00499924
v 0.12497686 0.39273751 0.03500745
v 0.15495524 0.37522051 -0.03538748
v 0.14952812 0.37979391 -0.00710485
v 0.21499814 0.35278493 -0.00499924
v 0.26970008 0.32983160 -0.00744175
v 0.29106399 0.32042593 -0.01133293
v 0.01471154 -0.41675526 -0.03538748
v 0.03495556 -0.42598835 -0.00499924
v 0.16451731 -0.37015828 -0.03538748
v 0.29459593 -0.30777013 -0.01519041
v 0.29106399 -0.31044513 -0.01198988
v 0.29683569 -0.30846044 -0.00499924
v 0.29382062 -0.31165323 0.04501334
v 0.29407907 -0.31182578 0.05498553
v 0.29433748 -0.31199837 0.06499141
v 0.28494769 -0.31639919 0.06499141
v 0.27340430 -0.32149035 0.06499141
v 0.26496211 -0.32520086 0.06499141
v 0.23041806 -0.34012914 0.06202671
v 0.29399291 -0.31182578 0.07499731
v 0.29898930 -0.30897820 0.07499731
v 0.30097064 -0.30233383 0.08112885
v 0.29468206 -0.30466366 0.08448099
v 0.29020253 -0.30026284 0.09019142
v 0.24523497 -0.26531512 0.13670026
v 0.23395000 -0.27195951 0.13670026
v 0.22619697 -0.27532485 0.13670026
v 0.01548684 0.37780923 0.13670026
v 0.07199782 0.35433817 0.13670026
v 0.30493331 0.30308151 0.08294810
v 0.27159527 0.32068479 0.08069089
v 0.23033191 0.34010020 0.08016869
v 0.20974332 0.34985104 0.07979810
v 0.29890317 0.30946702 0.07888848
v 0.30157363 0.31067508 0.07221789
v 0.26022416 0.33009049 0.07039864
v 0.06062671 0.42026421 0.07151040
v 0.03865979 0.42932475 0.07499731
v 0.05494115 0.42328441 0.06499141
v 0.06613997 0.41836584 0.05498553
v 0.13074856 0.39032137 0.03500745
v 0.27004465 0.33000419 -0.00077116
v 0.26582357 0.33164370 -0.00446020
v 0.22662769 0.34855670 0.00500665
v 0.16494803 0.37064710 -0.03538748
v 0.25496933 0.33613083 -0.00499924
v 0.28494769 0.32335982 -0.00499924
v 0.29132241 0.32059851 -0.00499924
v 0.30493331 0.31455815 -0.00499924
v 0.31096342 0.31084767 -0.01236046
v 0.27452418 -0.30621690 -0.03538748
v 0.30114293 -0.30112576 -0.02096822
v 0.28882423 -0.30940965 -0.01864362
v 0.30252123 -0.30259269 -0.01498827
v 0.30321041 -0.30345559 -0.00499924
v 0.29881701 -0.30906448 0.04501334
v 0.29907545 -0.30923706 0.05498553
v 0.29933387 -0.30932337 0.06499141
v 0.30226281 -0.30431852 0.06499141
v 0.30183208 -0.30397335 0.07499731
v 0.29674953 -0.29499912 0.08766468
v 0.31070501 -0.28171036 0.08087618
v 0.31053272 -0.26117316 0.09047779
v 0.25367716 -0.25349331 0.13670026
v 0.18174626 0.30385813 0.13670026
v 0.31156644 0.30126938 0.08122993
v 0.29218388 0.31093395 0.08096041
v 0.22335419 0.28461531 0.13670026
v 0.24566568 0.27426043 0.13670026
v 0.26496211 0.26528618 0.13670026
v 0.26625428 0.26468214 0.13670026
v 0.27219829 0.26157570 0.13670026
v 0.29071942 0.28047335 0.11047271
v 0.30493331 0.30800006 0.07533420
v 0.30768993 0.30894926 0.06499141
v 0.28167421 0.32077110 0.06499141
v 0.23963556 0.33984134 0.06499141
v 0.14496244 0.38272777 0.06499141
v 0.15004499 0.37996650 0.07023019
v 0.09499847 0.40533593 0.06499141
v 0.07492674 0.41439646 0.06499141
v 0.06122972 0.42052311 0.06499141
v 0.27004465 0.33000419 0.00059328
v 0.30527788 0.31240091 -0.01542624
v 0.30872366 0.30877668 -0.01903105
v 0.30209053 0.31084767 -0.02071555
v 0.25367716 0.32223803 -0.03538748
v 0.29580194 0.31809607 0.00500665
v 0.30837908 0.30929443 0.05498553
v 0.30958512 0.30981216 0.03741628
v 0.31001583 0.30998474 0.03074569
v 0.31070501 0.31050250 0.01501253
v 0.31139416 0.31110653 -0.00499924
v 0.23498374 0.34501877 0.01501253
v 0.21499814 0.35347524 0.02500157
v 0.31561524 0.30497989 -0.00499924
v 0.32078394 0.29203629 -0.01224255
v 0.31294477 0.30523875 -0.01542624
v 0.28210494 -0.30147091 -0.03538748
v 0.28710133 -0.29810557 -0.03538748
v 0.29347605 -0.29318702 -0.03538748
v 0.29838631 -0.28783700 -0.03538748
v 0.30191824 -0.28291842 -0.03538748
v 0.30674234 -0.27454823 -0.03538748
v 0.37014490 -0.16452762 -0.03538748
v 0.30958512 -0.28904507 -0.01867731
v 0.30777606 -0.29448137 -0.01520726
v 0.30820680 -0.29620719 -0.00499924
v 0.30812064 -0.29586202 0.00500665
v 0.30708691 -0.29499912 0.05498553
v 0.30674234 -0.29499912 0.06499141
v 0.30915439 -0.28818214 0.07499731
v 0.29873088 -0.28757811 0.08909650
v 0.33000141 -0.24011825 0.08006762
v 0.31690741 -0.25496024 0.08683928
v 0.36532077 -0.03612711 0.13670026
v 0.31975019 -0.21949477 0.09980987
v 0.32491890 -0.11534195 0.13670026
v 0.31294477 0.29410726 0.08473366
v 0.31983635 0.28962016 0.07974757
v 0.31863031 0.29557422 0.07583955
v 0.31337547 0.30282262 0.07499731
v 0.28994411 0.26994589 0.11997324
v 0.31010199 0.29013789 0.09012404
v 0.27728081 0.25734743 0.13670026
v 0.28141576 0.26157570 0.13147832
v 0.31440923 0.30394441 0.06499141
v 0.28804892 0.31913155 0.04501334
v 0.26771876 0.32896870 0.03500745
v 0.13031784 0.39014879 0.05242511
v 0.31104958 0.30213231 -0.02069870
v 0.30303812 0.28504676 -0.03538748
v 0.29545736 0.29540163 -0.03538748
v 0.28503385 0.30368555 -0.03538748
v 0.27736697 0.30860409 -0.03538748
v 0.31949177 0.29893956 0.06499141
v 0.31940562 0.29859439 0.03500745
v 0.31931949 0.29833552 0.01501253
v 0.31923333 0.29824921 0.00500665
v 0.31914717 0.29807663 -0.00499924
v 0.31785500 0.29522905 -0.01534202
v 0.33025986 0.27072251 -0.01102972
v 0.37496901 0.15535188 -0.03538748
v 0.31923333 0.28815320 -0.01891314
v 0.37496901 -0.15538082 -0.03538748
v 0.31036040 -0.29085717 -0.01200672
v 0.43380588 -0.02499562 -0.00499924
v 0.44035289 -0.01075766 -0.00499924
v 0.43819925 -0.01420928 0.00569729
v 0.30949897 -0.28895876 0.06499141
v 0.34990087 -0.19990680 0.06883206
v 0.39995098 -0.08988620 0.06945533
v 0.43053237 -0.02128512 0.07154410
v 0.41941971 -0.03871583 0.07895586
v 0.40977150 -0.05959817 0.07971388
v 0.40020943 -0.08048052 0.08025292
v 0.41132209 -0.05295379 0.08134784
v 0.38099912 -0.12233149 0.08106147
v 0.42088416 -0.03207145 0.08094356
v 0.41761068 -0.02499562 0.08754677
v 0.37014490 -0.02499562 0.13670026
v 0.31682128 0.28573707 0.08471683
v 0.32104236 0.28297576 0.08121308
v 0.33025986 0.26071277 0.08030345
v 0.34981471 0.20962870 0.07974757
v 0.41898897 0.02729653 0.07809677
v 0.43096310 0.00270369 0.07230212
v 0.42053959 0.03152477 0.07144302
v 0.41011608 0.06034585 0.07038179
v 0.33034602 0.27089509 0.07108928
v 0.32104236 0.29264033 0.07307698
v 0.28124347 0.25199741 0.13670026
v 0.28408626 0.24552563 0.13670026
v 0.28477541 0.24388610 0.13670026
v 0.37204006 0.16096078 -0.03538748
v 0.37014490 0.16458498 -0.03538748
v 0.31079113 0.27132654 -0.03538748
v 0.32164538 0.29393470 0.06499141
v 0.34593821 0.23499817 0.02500157
v 0.32130080 0.29307178 -0.00499924
v 0.38332504 0.14499700 -0.00499924
v 0.36006594 0.20013674 -0.01030539
v 0.41011608 0.08036529 -0.01062544
v 0.43044624 0.03109332 -0.01170351
v 0.37514129 0.15492043 -0.03538748
v 0.37531358 -0.15451790 -0.03538748
v 0.44035289 -0.01075766 -0.01146768
v 0.44009444 -0.01032620 0.00283365
v 0.44173121 -0.00497618 -0.00499924
v 0.43613178 -0.01498590 0.03500745
v 0.43104926 -0.02223432 0.06499141
v 0.43423662 -0.01498590 0.06499141
v 0.43182456 -0.01464074 0.07491308
v 0.42898178 -0.01766091 0.07819784
v 0.43036008 -0.01101653 0.08042137
v 0.42243478 -0.02499562 0.08254383
v 0.37281537 -0.01558993 0.13670026
v 0.29614654 0.21377066 0.13670026
v 0.34197554 0.22498845 0.08213955
v 0.34068337 0.23180541 0.08075827
v 0.36023825 0.18072133 0.08028661
v 0.40977150 0.04947323 0.07971388
v 0.42932636 -0.00186972 0.07897270
v 0.42837876 0.00555128 0.07538474
v 0.43208298 -0.00514876 0.07538474
v 0.43501189 -0.00497618 0.06499141
v 0.42975709 0.00934807 0.06820880
v 0.38005155 0.14016472 0.07017966
v 0.34998700 0.21989730 0.06991014
v 0.34490448 0.23499817 0.06499141
v 0.33956349 0.24897726 0.06499141
v 0.33723760 0.25493130 0.06499141
v 0.33327493 0.26494104 0.06499141
v 0.32862312 0.27667657 0.06499141
v 0.40822089 0.08562902 0.00500665
v 0.40434438 0.09494841 0.00500665
v 0.39193952 0.12463240 0.00500665
v 0.37152320 0.17364550 0.01501253
v 0.33990806 0.24984016 0.05498553
v 0.38349733 0.14499700 0.02500157
v 0.35119304 0.22283117 0.04501334
v 0.40425822 0.09494841 -0.00499924
v 0.41261426 0.07492898 -0.00499924
v 0.41941971 0.05862004 -0.00499924
v 0.42148718 0.05361518 -0.00499924
v 0.42501912 0.04498611 -0.00499924
v 0.43053237 0.03126590 -0.00499924
v 0.43303058 0.02496668 -0.00499924
v 0.43699324 0.01495696 -0.00499924
v 0.44130048 0.00356660 -0.00499924
v 0.44086975 0.00244482 -0.01498827
v 0.37720877 0.14827605 -0.03538748
v 0.44009444 0.00037384 -0.02010913
v 0.40279377 -0.06572481 -0.03538748
v 0.44009444 -0.00057536 -0.02010913
v 0.43923301 -0.00721974 -0.01813827
v 0.44086975 -0.00428586 -0.01487036
v 0.43992215 -0.00963588 0.00950424
v 0.43492576 -0.01498590 0.05498553
v 0.43552878 -0.01498590 0.04501334
v 0.44069746 0.00184078 0.00500665
v 0.44018060 0.00063271 0.01206467
v 0.44018060 -0.00299150 0.01206467
v 0.43802696 -0.00497618 0.03500745
v 0.43707937 -0.00497618 0.04501334
v 0.43036008 -0.00860039 0.08042137
v 0.42028114 -0.01101653 0.09035987
v 0.37298766 -0.01429557 0.13670026
v 0.30321041 0.19426897 0.13670026
v 0.42122874 0.01495696 0.08131415
v 0.42019501 0.02056586 0.08025292
v 0.41106367 0.04282885 0.08116254
v 0.38108528 0.12290659 0.08117939
v 0.43311673 0.00494725 0.05498553
v 0.43156612 0.00555128 0.06492404
v 0.43440890 0.00494725 0.04501334
v 0.43165225 0.01564729 0.03505799
v 0.39969254 0.08916694 0.06761923
v 0.35041773 0.22110537 0.06323954
v 0.35997981 0.20005044 0.05025211
v 0.34585208 0.23499817 0.05498553
v 0.41011608 0.08045158 0.01147510
v 0.38074070 0.15172768 0.02500157
v 0.42441610 0.04498611 0.00500665
v 0.41692150 0.01599245 -0.03538748
v 0.41916126 0.00166820 -0.03538748
v 0.41907513 0.00494725 -0.03538748
v 0.40606725 -0.05493848 -0.03538748
v 0.41459560 -0.02499562 -0.03538748
v 0.41717994 -0.01567622 -0.03538748
v 0.41916126 -0.00497618 -0.03538748
v 0.42028114 -0.00885926 0.09035987
v 0.42312393 0.00494725 0.08306602
v 0.42484683 -0.00540763 0.08483474
v 0.37229851 -0.00575280 0.13670026
v 0.41020221 -0.00920442 0.10023099
v 0.30398571 0.19211170 0.13670026
v 0.41158053 0.07561930 0.01489462
v 0.42122874 0.04326030 0.03500745
v 0.39047506 0.12126707 0.04501334
v 0.31432307 0.16285917 0.13670026
v 0.32457429 0.13343404 0.13670026
v 0.34464604 0.07527414 0.13670026
v 0.35455269 0.04645305 0.13670026
v 0.36497620 0.01599245 0.13670026
f 1 2 3
f 1 3 4
f 1 4 5
f 1 5 6
f 1 6 7
f 1 7 8
f 1 8 9
f 1 9 2
f 2 10 3
f 2 9 10
f 3 10 11
f 3 11 12
f 3 12 13
f 3 13 14
f 3 14 15
f 3 15 16
f 3 16 4
f 4 16 5
f 5 16 6
f 6 17 7
f 6 16 17
f 7 17 16
f 7 16 18
f 7 18 19
f 7 19 20
f 7 20 8
f 8 21 9
f 8 20 22
f 8 22 21
f 9 23 11
f 9 11 10
f 9 21 24
f 9 24 25
f 9 25 26
f 9 26 27
f 9 27 23
f 11 28 12
f 11 23 29
f 11 29 28
f 12 30 31
f 12 31 13
f 12 28 30
f 13 31 32
f 13 32 33
f 13 33 14
f 14 16 34
f 14 34 15
f 14 33 35
f 14 35 36
f 14 36 16
f 15 34 16
f 16 37 72
f 16 72 114
f 16 114 167
f 16 167 176
f 16 176 129
f 16 129 128
f 16 128 127
f 16 127 126
f 16 126 134
f 16 134 133
f 16 133 132
f 16 132 178
f 16 178 240
f 16 240 283
f 16 283 325
f 16 325 324
f 16 324 321
f 16 321 364
f 16 364 407
f 16 407 449
f 16 449 497
f 16 497 496
f 16 496 495
f 16 495 494
f 16 494 539
f 16 539 538
f 16 538 537
f 16 537 505
f 16 505 547
f 16 547 594
f 16 594 627
f 16 627 629
f 16 629 628
f 16 628 633
f 16 633 632
f 16 632 631
f 16 631 630
f 16 630 596
f 16 596 548
f 16 548 507
f 16 507 467
f 16 467 466
f 16 466 465
f 16 465 464
f 16 464 463
f 16 463 462
f 16 462 461
f 16 461 413
f 16 413 371
f 16 371 332
f 16 332 331
f 16 331 369
f 16 369 328
f 16 328 326
f 16 326 285
f 16 285 284
f 16 284 245
f 16 245 191
f 16 191 189
f 16 189 188
f 16 188 187
f 16 187 186
f 16 186 244
f 16 244 243
f 16 243 242
f 16 242 241
f 16 241 180
f 16 180 179
f 16 179 135
f 16 135 84
f 16 84 47
f 16 47 22
f 16 22 46
f 16 46 45
f 16 45 44
f 16 44 43
f 16 43 38
f 16 38 19
f 16 19 18
f 16 36 39
f 16 39 40
f 16 40 41
f 16 41 42
f 16 42 37
f 19 38 43
f 19 43 44
f 19 44 45
f 19 45 20
f 20 45 46
f 20 46 22
f 21 22 24
f 22 47 48
f 22 48 24
f 23 27 49
f 23 49 29
f 24 48 50
f 24 50 51
f 24 51 25
f 25 51 52
f 25 52 53
f 25 53 54
f 25 54 55
f 25 55 26
f 26 55 27
f 27 56 29
f 27 29 49
f 27 55 57
f 27 57 58
f 27 58 59
f 27 59 60
f 27 60 61
f 27 61 56
f 28 62 63
f 28 63 30
f 28 29 64
f 28 64 65
f 28 65 62
f 29 56 64
f 30 66 67
f 30 67 68
f 30 68 31
f 30 63 69
f 30 69 66
f 31 68 32
f 32 68 70
f 32 70 33
f 33 70 35
f 35 70 71
f 35 71 39
f 35 39 36
f 37 42 72
f 39 73 74
f 39 74 40
f 39 71 73
f 40 74 76
f 40 76 75
f 40 75 41
f 41 75 76
f 41 76 77
f 41 77 78
f 41 78 79
f 41 79 80
f 41 80 81
f 41 81 82
f 41 82 42
f 42 82 83
f 42 83 72
f 47 84 85
f 47 85 48
f 48 85 86
f 48 86 87
f 48 87 50
f 50 87 51
f 51 87 88
f 51 88 52
f 52 89 53
f 52 88 89
f 53 89 54
f 54 57 55
f 54 89 90
f 54 90 91
f 54 91 92
f 54 92 57
f 56 93 64
f 56 61 93
f 57 92 94
f 57 94 58
f 58 95 96
f 58 96 97
f 58 97 98
f 58 98 59
f 58 94 99
f 58 99 100
f 58 100 101
f 58 101 102
f 58 102 103
f 58 103 95
f 59 98 104
f 59 104 60
f 60 104 61
f 61 105 69
f 61 69 63
f 61 63 106
f 61 106 107
f 61 107 93
f 61 104 108
f 61 108 164
f 61 164 154
f 61 154 204
f 61 204 152
f 61 152 150
f 61 150 203
f 61 203 202
f 61 202 197
f 61 197 148
f 61 148 201
f 61 201 253
f 61 253 265
f 61 265 305
f 61 305 343
f 61 343 389
f 61 389 388
f 61 388 387
f 61 387 426
f 61 426 480
f 61 480 478
f 61 478 523
f 61 523 559
f 61 559 610
f 61 610 637
f 61 637 647
f 61 647 646
f 61 646 645
f 61 645 644
f 61 644 643
f 61 643 639
f 61 639 611
f 61 611 560
f 61 560 536
f 61 536 535
f 61 535 534
f 61 534 487
f 61 487 434
f 61 434 433
f 61 433 432
f 61 432 431
f 61 431 430
f 61 430 427
f 61 427 391
f 61 391 358
f 61 358 357
f 61 357 390
f 61 390 350
f 61 350 349
f 61 349 346
f 61 346 344
f 61 344 308
f 61 308 268
f 61 268 227
f 61 227 172
f 61 172 222
f 61 222 221
f 61 221 220
f 61 220 165
f 61 165 111
f 61 111 68
f 61 68 67
f 61 67 66
f 61 66 105
f 62 65 106
f 62 106 63
f 64 107 65
f 64 93 107
f 65 107 106
f 66 69 109
f 66 109 110
f 66 110 105
f 68 111 112
f 68 112 70
f 69 105 109
f 70 112 113
f 70 113 71
f 71 113 73
f 72 83 114
f 73 113 112
f 73 112 115
f 73 115 116
f 73 116 117
f 73 117 118
f 73 118 119
f 73 119 120
f 73 120 74
f 74 120 76
f 76 120 77
f 77 120 78
f 78 120 121
f 78 121 122
f 78 122 79
f 79 123 80
f 79 122 123
f 80 123 124
f 80 124 125
f 80 125 81
f 81 126 127
f 81 127 128
f 81 128 129
f 81 129 130
f 81 130 82
f 81 125 131
f 81 131 132
f 81 132 133
f 81 133 134
f 81 134 126
f 82 130 83
f 83 130 114
f 84 135 136
f 84 136 85
f 85 136 137
f 85 137 86
f 86 137 138
f 86 138 87
f 87 138 88
f 88 138 139
f 88 139 140
f 88 140 89
f 89 140 90
f 90 140 91
f 91 140 92
f 92 140 141
f 92 141 142
f 92 142 94
f 94 142 143
f 94 143 99
f 95 144 145
f 95 145 96
f 95 103 146
f 95 146 147
f 95 147 148
f 95 148 144
f 96 145 144
f 96 144 149
f 96 149 97
f 97 149 150
f 97 150 151
f 97 151 98
f 98 151 152
f 98 152 153
f 98 153 154
f 98 154 155
f 98 155 104
f 99 143 100
f 100 143 101
f 101 156 157
f 101 157 102
f 101 143 158
f 101 158 156
f 102 157 103
f 103 157 159
f 103 159 160
f 103 160 161
f 103 161 162
f 103 162 163
f 103 163 146
f 104 155 154
f 104 154 164
f 104 164 108
f 105 110 109
f 111 165 166
f 111 166 112
f 112 116 115
f 112 166 116
f 114 130 167
f 116 166 168
f 116 168 117
f 117 169 170
f 117 170 119
f 117 119 118
f 117 168 171
f 117 171 172
f 117 172 169
f 119 173 120
f 119 170 174
f 119 174 175
f 119 175 173
f 120 173 121
f 121 173 122
f 122 173 131
f 122 131 123
f 123 125 124
f 123 131 125
f 129 176 130
f 130 176 167
f 131 173 132
f 132 177 178
f 132 173 177
f 135 179 136
f 136 180 181
f 136 181 182
f 136 182 137
f 136 179 180
f 137 183 184
f 137 184 138
f 137 182 185
f 137 185 186
f 137 186 187
f 137 187 188
f 137 188 189
f 137 189 183
f 138 184 139
f 139 190 140
f 139 184 189
f 139 189 191
f 139 191 192
f 139 192 193
f 139 193 194
f 139 194 190
f 140 142 141
f 140 190 143
f 140 143 142
f 143 190 195
f 143 195 194
f 143 194 196
f 143 196 193
f 143 193 158
f 144 148 197
f 144 197 149
f 146 163 162
f 146 162 198
f 146 198 199
f 146 199 147
f 147 199 148
f 148 199 198
f 148 198 200
f 148 200 201
f 149 197 202
f 149 202 203
f 149 203 150
f 150 152 151
f 152 204 153
f 153 204 154
f 156 205 206
f 156 206 207
f 156 207 208
f 156 208 157
f 156 158 205
f 157 208 209
f 157 209 210
f 157 210 211
f 157 211 159
f 158 193 205
f 159 211 160
f 160 211 212
f 160 212 213
f 160 213 214
f 160 214 215
f 160 215 216
f 160 216 161
f 161 216 217
f 161 217 218
f 161 218 200
f 161 200 198
f 161 198 162
f 165 219 166
f 165 220 219
f 166 219 168
f 168 219 220
f 168 220 221
f 168 221 222
f 168 222 171
f 169 223 224
f 169 224 170
f 169 172 223
f 170 224 225
f 170 225 226
f 170 226 174
f 171 222 172
f 172 227 228
f 172 228 229
f 172 229 223
f 173 175 174
f 173 174 230
f 173 230 231
f 173 231 177
f 174 226 232
f 174 232 233
f 174 233 234
f 174 234 230
f 177 231 234
f 177 234 235
f 177 235 236
f 177 236 237
f 177 237 238
f 177 238 178
f 178 238 239
f 178 239 240
f 180 241 181
f 181 241 182
f 182 241 242
f 182 242 185
f 183 189 184
f 185 242 243
f 185 243 244
f 185 244 186
f 190 194 195
f 191 245 246
f 191 246 247
f 191 247 248
f 191 248 249
f 191 249 192
f 192 249 250
f 192 250 193
f 193 196 194
f 193 250 251
f 193 251 206
f 193 206 205
f 200 218 252
f 200 252 201
f 201 252 218
f 201 218 253
f 206 251 209
f 206 209 207
f 207 209 208
f 209 251 250
f 209 250 254
f 209 254 210
f 210 254 211
f 211 255 212
f 211 254 250
f 211 250 255
f 212 256 257
f 212 257 213
f 212 255 256
f 213 257 288
f 213 288 258
f 213 258 259
f 213 259 214
f 214 259 215
f 215 259 216
f 216 259 260
f 216 260 261
f 216 261 262
f 216 262 263
f 216 263 217
f 217 263 264
f 217 264 218
f 218 264 265
f 218 265 253
f 223 229 224
f 224 229 266
f 224 266 267
f 224 267 232
f 224 232 225
f 225 232 226
f 227 268 269
f 227 269 228
f 228 270 271
f 228 271 229
f 228 269 270
f 229 271 266
f 230 234 231
f 232 267 272
f 232 272 273
f 232 273 233
f 233 273 234
f 234 273 274
f 234 274 235
f 235 274 314
f 235 314 275
f 235 275 317
f 235 317 276
f 235 276 236
f 236 276 277
f 236 277 237
f 237 277 278
f 237 278 279
f 237 279 280
f 237 280 238
f 238 280 239
f 239 280 281
f 239 281 240
f 240 281 282
f 240 282 283
f 245 284 246
f 246 285 286
f 246 286 287
f 246 287 247
f 246 284 285
f 247 287 248
f 248 287 257
f 248 257 249
f 249 257 256
f 249 256 250
f 250 256 255
f 257 287 288
f 258 288 289
f 258 289 259
f 259 289 290
f 259 290 260
f 260 291 262
f 260 262 261
f 260 290 292
f 260 292 293
f 260 293 294
f 260 294 295
f 260 295 291
f 262 296 297
f 262 297 263
f 262 291 298
f 262 298 295
f 262 295 294
f 262 294 293
f 262 293 299
f 262 299 300
f 262 300 301
f 262 301 302
f 262 302 296
f 263 303 264
f 263 297 303
f 264 303 297
f 264 297 265
f 265 297 296
f 265 296 302
f 265 302 304
f 265 304 305
f 266 271 267
f 267 271 270
f 267 270 306
f 267 306 307
f 267 307 272
f 268 308 269
f 269 308 309
f 269 309 270
f 270 309 307
f 270 307 306
f 272 307 310
f 272 310 311
f 272 311 312
f 272 312 348
f 272 348 313
f 272 313 314
f 272 314 274
f 272 274 273
f 275 315 316
f 275 316 317
f 275 314 315
f 276 317 278
f 276 278 277
f 278 317 316
f 278 316 318
f 278 318 279
f 279 319 280
f 279 318 320
f 279 320 321
f 279 321 319
f 280 322 281
f 280 319 323
f 280 323 321
f 280 321 322
f 281 324 325
f 281 325 282
f 281 322 321
f 281 321 324
f 282 325 283
f 285 326 286
f 286 327 288
f 286 288 287
f 286 326 328
f 286 328 327
f 288 329 289
f 288 327 330
f 288 330 331
f 288 331 332
f 288 332 329
f 289 329 333
f 289 333 334
f 289 334 335
f 289 335 292
f 289 292 290
f 291 295 298
f 292 335 293
f 293 336 299
f 293 335 336
f 299 336 300
f 300 336 337
f 300 337 338
f 300 338 301
f 301 338 339
f 301 339 304
f 301 304 302
f 304 339 340
f 304 340 341
f 304 341 342
f 304 342 343
f 304 343 305
f 307 309 310
f 308 344 309
f 309 345 310
f 309 344 346
f 309 346 345
f 310 347 311
f 310 345 347
f 311 347 312
f 312 347 346
f 312 346 349
f 312 349 350
f 312 350 348
f 313 351 352
f 313 352 353
f 313 353 354
f 313 354 355
f 313 355 356
f 313 356 314
f 313 348 357
f 313 357 358
f 313 358 351
f 314 359 315
f 314 356 360
f 314 360 359
f 315 359 316
f 316 361 362
f 316 362 320
f 316 320 318
f 316 359 363
f 316 363 361
f 319 321 323
f 320 362 321
f 321 362 365
f 321 365 366
f 321 366 367
f 321 367 368
f 321 368 364
f 327 328 369
f 327 369 331
f 327 331 330
f 329 332 370
f 329 370 333
f 332 333 370
f 332 371 372
f 332 372 373
f 332 373 374
f 332 374 375
f 332 375 376
f 332 376 377
f 332 377 378
f 332 378 379
f 332 379 380
f 332 380 333
f 333 335 334
f 333 380 337
f 333 337 381
f 333 381 336
f 333 336 335
f 336 381 337
f 337 380 339
f 337 339 338
f 339 380 379
f 339 379 340
f 340 379 378
f 340 378 382
f 340 382 341
f 341 382 383
f 341 383 384
f 341 384 385
f 341 385 386
f 341 386 387
f 341 387 388
f 341 388 389
f 341 389 342
f 342 389 343
f 345 346 347
f 348 350 390
f 348 390 357
f 351 358 391
f 351 391 352
f 352 391 392
f 352 392 393
f 352 393 394
f 352 394 395
f 352 395 396
f 352 396 353
f 353 396 397
f 353 397 398
f 353 398 354
f 354 399 400
f 354 400 355
f 354 398 399
f 355 400 399
f 355 399 356
f 356 399 401
f 356 401 360
f 359 360 402
f 359 402 403
f 359 403 363
f 360 401 404
f 360 404 402
f 361 363 366
f 361 366 362
f 362 366 365
f 363 403 405
f 363 405 406
f 363 406 366
f 364 368 407
f 366 406 405
f 366 405 408
f 366 408 367
f 367 408 405
f 367 405 404
f 367 404 368
f 368 404 409
f 368 409 410
f 368 410 411
f 368 411 412
f 368 412 407
f 371 413 414
f 371 414 415
f 371 415 372
f 372 415 414
f 372 414 416
f 372 416 374
f 372 374 373
f 374 416 417
f 374 417 418
f 374 418 375
f 375 418 419
f 375 419 376
f 376 419 377
f 377 382 378
f 377 419 420
f 377 420 382
f 382 420 383
f 383 420 421
f 383 421 422
f 383 422 384
f 384 423 386
f 384 386 385
f 384 422 424
f 384 424 425
f 384 425 423
f 386 423 426
f 386 426 387
f 391 427 392
f 392 428 396
f 392 396 429
f 392 429 393
f 392 427 430
f 392 430 431
f 392 431 432
f 392 432 433
f 392 433 434
f 392 434 435
f 392 435 428
f 393 429 396
f 393 396 394
f 394 396 395
f 396 428 436
f 396 436 397
f 397 436 437
f 397 437 398
f 398 437 438
f 398 438 439
f 398 439 440
f 398 440 441
f 398 441 399
f 399 441 442
f 399 442 443
f 399 443 444
f 399 444 401
f 401 444 445
f 401 445 404
f 402 404 403
f 403 404 405
f 404 445 410
f 404 410 409
f 407 412 446
f 407 446 447
f 407 447 448
f 407 448 449
f 410 445 411
f 411 450 451
f 411 451 452
f 411 452 453
f 411 453 454
f 411 454 455
f 411 455 412
f 411 445 456
f 411 456 457
f 411 457 450
f 412 455 458
f 412 458 459
f 412 459 460
f 412 460 447
f 412 447 446
f 413 461 414
f 414 461 462
f 414 462 463
f 414 463 464
f 414 464 465
f 414 465 466
f 414 466 467
f 414 467 468
f 414 468 469
f 414 469 416
f 416 469 470
f 416 470 417
f 417 420 419
f 417 419 418
f 417 470 420
f 420 470 421
f 421 470 471
f 421 471 472
f 421 472 473
f 421 473 422
f 422 473 474
f 422 474 424
f 423 425 475
f 423 475 426
f 424 476 477
f 424 477 425
f 424 474 476
f 425 477 478
f 425 478 479
f 425 479 426
f 425 426 475
f 426 479 480
f 428 481 482
f 428 482 483
f 428 483 484
f 428 484 436
f 428 435 485
f 428 485 486
f 428 486 481
f 434 487 488
f 434 488 485
f 434 485 435
f 436 484 437
f 437 484 489
f 437 489 451
f 437 451 438
f 438 451 439
f 439 451 490
f 439 490 491
f 439 491 457
f 439 457 492
f 439 492 440
f 440 492 442
f 440 442 441
f 442 492 443
f 443 492 445
f 443 445 444
f 445 492 456
f 447 460 493
f 447 493 494
f 447 494 495
f 447 495 496
f 447 496 497
f 447 497 448
f 448 497 449
f 450 490 451
f 450 457 491
f 450 491 490
f 451 489 452
f 452 489 453
f 453 489 454
f 454 489 455
f 455 489 498
f 455 498 458
f 456 492 457
f 458 498 499
f 458 499 500
f 458 500 501
f 458 501 502
f 458 502 459
f 459 503 460
f 459 502 504
f 459 504 505
f 459 505 503
f 460 503 505
f 460 505 506
f 460 506 493
f 467 507 468
f 468 507 469
f 469 507 508
f 469 508 470
f 470 508 507
f 470 507 471
f 471 507 472
f 472 507 473
f 473 507 509
f 473 509 510
f 473 510 511
f 473 511 512
f 473 512 513
f 473 513 474
f 474 513 514
f 474 514 476
f 476 514 515
f 476 515 516
f 476 516 517
f 476 517 518
f 476 518 519
f 476 519 520
f 476 520 478
f 476 478 477
f 478 520 519
f 478 519 521
f 478 521 522
f 478 522 523
f 478 480 479
f 481 486 482
f 482 486 524
f 482 524 525
f 482 525 526
f 482 526 527
f 482 527 528
f 482 528 529
f 482 529 530
f 482 530 531
f 482 531 532
f 482 532 533
f 482 533 483
f 483 533 498
f 483 498 484
f 484 498 489
f 485 488 534
f 485 534 535
f 485 535 536
f 485 536 486
f 486 536 524
f 487 534 488
f 493 506 505
f 493 505 537
f 493 537 538
f 493 538 539
f 493 539 494
f 498 540 499
f 498 533 540
f 499 540 541
f 499 541 500
f 500 542 501
f 500 541 543
f 500 543 542
f 501 542 502
f 502 542 504
f 504 544 505
f 504 542 544
f 505 544 545
f 505 545 546
f 505 546 547
f 507 548 549
f 507 549 510
f 507 510 509
f 510 550 511
f 510 549 551
f 510 551 550
f 511 550 552
f 511 552 513
f 511 513 512
f 513 552 553
f 513 553 514
f 514 553 515
f 515 553 554
f 515 554 555
f 515 555 556
f 515 556 516
f 516 556 557
f 516 557 521
f 516 521 517
f 517 521 518
f 518 521 519
f 521 557 558
f 521 558 522
f 522 558 557
f 522 557 523
f 523 557 559
f 524 526 525
f 524 536 560
f 524 560 526
f 526 560 561
f 526 561 562
f 526 562 563
f 526 563 527
f 527 563 613
f 527 613 564
f 527 564 528
f 528 564 565
f 528 565 566
f 528 566 529
f 529 566 565
f 529 565 567
f 529 567 568
f 529 568 569
f 529 569 530
f 530 569 531
f 531 569 570
f 531 570 532
f 532 570 571
f 532 571 572
f 532 572 573
f 532 573 574
f 532 574 575
f 532 575 576
f 532 576 540
f 532 540 533
f 540 577 578
f 540 578 579
f 540 579 580
f 540 580 541
f 540 576 581
f 540 581 582
f 540 582 583
f 540 583 577
f 541 580 543
f 542 543 544
f 543 580 579
f 543 579 584
f 543 584 544
f 544 584 545
f 545 584 585
f 545 585 586
f 545 586 546
f 546 586 587
f 546 587 588
f 546 588 589
f 546 589 590
f 546 590 591
f 546 591 592
f 546 592 593
f 546 593 547
f 547 593 595
f 547 595 594
f 548 596 597
f 548 597 598
f 548 598 549
f 549 598 599
f 549 599 551
f 550 551 600
f 550 600 601
f 550 601 602
f 550 602 552
f 551 599 593
f 551 593 592
f 551 592 603
f 551 603 604
f 551 604 605
f 551 605 606
f 551 606 600
f 552 602 553
f 553 602 601
f 553 601 554
f 554 601 600
f 554 600 606
f 554 606 607
f 554 607 568
f 554 568 555
f 555 568 567
f 555 567 557
f 555 557 556
f 557 567 608
f 557 608 634
f 557 634 609
f 557 609 610
f 557 610 559
f 560 611 612
f 560 612 613
f 560 613 614
f 560 614 615
f 560 615 561
f 561 615 562
f 562 615 563
f 563 615 614
f 563 614 613
f 564 613 565
f 565 613 612
f 565 612 608
f 565 608 567
f 568 607 604
f 568 604 616
f 568 616 617
f 568 617 569
f 569 617 616
f 569 616 618
f 569 618 619
f 569 619 620
f 569 620 571
f 569 571 570
f 571 621 572
f 571 620 621
f 572 621 573
f 573 621 622
f 573 622 574
f 574 623 575
f 574 622 624
f 574 624 623
f 575 623 576
f 576 623 624
f 576 624 581
f 577 624 588
f 577 588 587
f 577 587 586
f 577 586 578
f 577 583 625
f 577 625 582
f 577 582 624
f 578 586 585
f 578 585 584
f 578 584 579
f 581 624 582
f 582 625 583
f 588 624 589
f 589 624 590
f 590 624 591
f 591 626 592
f 591 624 626
f 592 626 603
f 593 599 597
f 593 597 595
f 594 595 627
f 595 597 633
f 595 633 628
f 595 628 629
f 595 629 627
f 596 630 597
f 597 599 598
f 597 630 631
f 597 631 632
f 597 632 633
f 603 619 618
f 603 618 616
f 603 616 604
f 603 626 619
f 604 607 606
f 604 606 605
f 608 612 635
f 608 635 636
f 608 636 637
f 608 637 634
f 609 634 610
f 610 634 638
f 610 638 637
f 611 639 612
f 612 639 635
f 619 626 640
f 619 640 641
f 619 641 620
f 620 641 621
f 621 641 642
f 621 642 640
f 621 640 622
f 622 640 624
f 624 640 626
f 634 637 638
f 635 639 643
f 635 643 644
f 635 644 645
f 635 645 646
f 635 646 647
f 635 647 636
f 636 647 637
f 640 642 641

