# https://github.com/mikedh/trimesh
v 0.06276532 0.04722925 0.36048794
v 0.05819203 0.04746828 0.36048794
v 0.06517628 0.04839456 0.36048794
v 0.08121461 0.07232835 0.41112524
v 0.07691306 0.07109331 0.41213581
v 0.07258837 0.07118295 0.41273668
v 0.07958997 0.09332395 0.46118900
v 0.05801858 0.04752804 0.36048794
v 0.07296996 0.09531594 0.46076566
v 0.06654075 0.04912164 0.36048794
v 0.08470674 0.07528646 0.40971866
v 0.08867875 0.08277635 0.42444006
v 0.08499582 0.07979832 0.42631099
v 0.08047456 0.07844377 0.42771757
v 0.08366026 0.08612289 0.44370902
v 0.08615794 0.09378210 0.45979604
v 0.08932051 0.10977781 0.48242444
v 0.08404763 0.11574382 0.49015385
v 0.08267160 0.11021604 0.48292971
v 0.07619613 0.11186939 0.48236981
v 0.05573482 0.04836468 0.36048794
v 0.06712470 0.09915052 0.45894936
v 0.04843258 0.05266738 0.36048794
v 0.05326027 0.04928100 0.36048794
v 0.06857590 0.05108375 0.36048794
v 0.08686908 0.07974852 0.40814820
v 0.06977270 0.05241838 0.36048794
v 0.07277916 0.05763740 0.36048794
v 0.09232697 0.09110288 0.43898395
v 0.08872500 0.08760693 0.44172886
v 0.09059247 0.08741769 0.42226872
v 0.09167364 0.09593346 0.45702383
v 0.09746687 0.11753662 0.48705390
v 0.09087577 0.11544503 0.48964858
v 0.07761264 0.11777566 0.48943007
v 0.09160426 0.12069392 0.49508375
v 0.08479346 0.12101264 0.49532956
v 0.07064573 0.11579362 0.48026675
v 0.06378868 0.10479783 0.45554897
v 0.04577301 0.05767724 0.36048794
v 0.04829382 0.05289646 0.36048794
v 0.08696737 0.08488786 0.40675524
v 0.07381409 0.06420102 0.36048794
v 0.09579019 0.09967840 0.45339128
v 0.09730498 0.11130168 0.44541603
v 0.09735124 0.10522610 0.44938999
v 0.10139841 0.12241700 0.48262927
v 0.10243911 0.12747666 0.48836488
v 0.09842663 0.12275563 0.49285778
v 0.07261728 0.12210824 0.48714948
v 0.07894820 0.12358231 0.49380007
v 0.07413208 0.12754637 0.49207938
v 0.09176615 0.12593287 0.49860707
v 0.08546413 0.12636115 0.49857974
v 0.06825212 0.12158036 0.47641569
v 0.07149564 0.13286500 0.48904771
v 0.06273063 0.11091324 0.45137015
v 0.04513125 0.06299587 0.36048794
v 0.07225303 0.07113315 0.36048794
v 0.10371107 0.12828341 0.47779498
v 0.10254318 0.13451836 0.47331572
v 0.10419095 0.13297457 0.48363984
v 0.10163546 0.13187896 0.49228424
v 0.09778486 0.12802446 0.49632648
v 0.07569312 0.13226740 0.49582118
v 0.09160426 0.13140088 0.49953568
v 0.08670720 0.13185903 0.49967223
v 0.08241720 0.13363191 0.49857974
v 0.06896327 0.13392076 0.47974780
v 0.07416099 0.13685894 0.49263930
v 0.07372736 0.14174929 0.48949835
v 0.07100420 0.13854218 0.48534685
v 0.04539143 0.06452970 0.36048794
v 0.06866840 0.07612310 0.36048794
v 0.09868102 0.13950829 0.47025672
v 0.09928232 0.14339268 0.47638837
v 0.10250849 0.13847245 0.47932446
v 0.10137528 0.13592270 0.48761380
v 0.09639148 0.13932902 0.49132830
v 0.09572081 0.13735694 0.49408686
v 0.09386490 0.13625139 0.49740532
v 0.09633367 0.13276540 0.49766478
v 0.07931823 0.13638087 0.49713218
v 0.07734668 0.13999633 0.49537054
v 0.09166786 0.13495660 0.50000000
v 0.08847638 0.13633107 0.49974054
v 0.08497848 0.13780513 0.49898943
v 0.07043181 0.13964774 0.47570556
v 0.06832150 0.13358212 0.46792150
v 0.04604475 0.06824476 0.36048794
v 0.07579719 0.14563367 0.48600236
v 0.07312607 0.14338271 0.48155043
v 0.07756639 0.14348231 0.49235252
v 0.06799195 0.07698961 0.36048794
v 0.09251777 0.14235684 0.46930081
v 0.09346596 0.14587271 0.47535050
v 0.09347174 0.14680895 0.48044428
v 0.09733967 0.14375123 0.48159140
v 0.09285311 0.14568347 0.48440459
v 0.09064451 0.13814378 0.49687272
v 0.08252706 0.13957801 0.49720049
v 0.08063067 0.14101225 0.49553442
v 0.08740678 0.13967761 0.49617624
v 0.08178700 0.14272536 0.49347234
v 0.07628286 0.14768542 0.47845048
v 0.07063995 0.13952821 0.46325108
v 0.04787176 0.07187019 0.36048794
v 0.07936448 0.14593247 0.48925254
v 0.07913899 0.14844237 0.48342133
v 0.06632105 0.07766689 0.36048794
v 0.08482237 0.13997641 0.46032864
v 0.08771320 0.14803402 0.47529587
v 0.08634873 0.14487672 0.46900034
v 0.08853420 0.14806390 0.48048523
v 0.08538319 0.14748622 0.48527858
v 0.08202405 0.14762565 0.48706755
v 0.08180434 0.14896029 0.47630644
v 0.07982702 0.14636075 0.46958756
v 0.07774562 0.14116165 0.46092951
v 0.05295962 0.07734817 0.36048794
v 0.04853665 0.07310522 0.36048794
v 0.08371808 0.14898022 0.48152313
v 0.06062033 0.07969872 0.36048794
f 1 2 8
f 1 8 21
f 1 21 24
f 1 24 23
f 1 23 41
f 1 41 40
f 1 40 58
f 1 58 73
f 1 73 90
f 1 90 107
f 1 107 121
f 1 121 120
f 1 120 123
f 1 123 110
f 1 110 94
f 1 94 74
f 1 74 59
f 1 59 43
f 1 43 28
f 1 28 27
f 1 27 25
f 1 25 10
f 1 10 3
f 1 3 4
f 1 4 5
f 1 5 6
f 1 6 7
f 1 7 2
f 2 7 9
f 2 9 8
f 3 10 4
f 4 11 12
f 4 12 13
f 4 13 14
f 4 14 5
f 4 10 11
f 5 14 7
f 5 7 6
f 7 15 16
f 7 16 17
f 7 17 18
f 7 18 19
f 7 19 20
f 7 20 9
f 7 14 15
f 8 9 21
f 9 20 22
f 9 22 23
f 9 23 24
f 9 24 21
f 10 25 11
f 11 26 12
f 11 25 27
f 11 27 28
f 11 28 26
f 12 29 30
f 12 30 13
f 12 26 31
f 12 31 29
f 13 30 15
f 13 15 14
f 15 30 16
f 16 30 32
f 16 32 33
f 16 33 17
f 17 33 34
f 17 34 18
f 18 35 20
f 18 20 19
f 18 34 36
f 18 36 37
f 18 37 35
f 20 35 38
f 20 38 22
f 22 38 39
f 22 39 40
f 22 40 41
f 22 41 23
f 26 42 31
f 26 28 43
f 26 43 42
f 29 31 44
f 29 44 30
f 30 44 32
f 31 42 45
f 31 45 46
f 31 46 44
f 32 44 33
f 33 44 47
f 33 47 48
f 33 48 49
f 33 49 34
f 34 49 36
f 35 50 38
f 35 37 51
f 35 51 52
f 35 52 50
f 36 49 53
f 36 53 37
f 37 53 54
f 37 54 51
f 38 55 39
f 38 50 56
f 38 56 55
f 39 55 57
f 39 57 58
f 39 58 40
f 42 43 45
f 43 59 45
f 44 46 60
f 44 60 47
f 45 61 60
f 45 60 46
f 45 59 61
f 47 60 48
f 48 60 62
f 48 62 63
f 48 63 49
f 49 63 64
f 49 64 53
f 50 52 56
f 51 54 65
f 51 65 52
f 52 65 56
f 53 66 67
f 53 67 54
f 53 64 66
f 54 67 68
f 54 68 65
f 55 56 69
f 55 69 57
f 56 65 70
f 56 70 71
f 56 71 72
f 56 72 69
f 57 69 58
f 58 69 73
f 59 74 75
f 59 75 61
f 60 61 62
f 61 75 76
f 61 76 77
f 61 77 62
f 62 78 63
f 62 77 78
f 63 78 79
f 63 79 80
f 63 80 81
f 63 81 82
f 63 82 64
f 64 82 66
f 65 68 83
f 65 83 84
f 65 84 70
f 66 85 67
f 66 82 85
f 67 85 86
f 67 86 87
f 67 87 68
f 68 87 83
f 69 88 89
f 69 89 90
f 69 90 73
f 69 72 88
f 70 84 71
f 71 91 92
f 71 92 72
f 71 84 93
f 71 93 91
f 72 92 88
f 74 94 75
f 75 95 76
f 75 94 95
f 76 96 97
f 76 97 98
f 76 98 77
f 76 95 96
f 77 98 78
f 78 98 79
f 79 99 100
f 79 100 81
f 79 81 80
f 79 98 99
f 81 100 85
f 81 85 82
f 83 87 84
f 84 87 101
f 84 101 102
f 84 102 93
f 85 100 86
f 86 100 103
f 86 103 87
f 87 103 104
f 87 104 101
f 88 92 105
f 88 105 106
f 88 106 90
f 88 90 89
f 90 106 107
f 91 93 108
f 91 108 109
f 91 109 105
f 91 105 92
f 93 102 104
f 93 104 108
f 94 110 111
f 94 111 95
f 95 111 96
f 96 112 97
f 96 111 113
f 96 113 112
f 97 112 114
f 97 114 115
f 97 115 99
f 97 99 98
f 99 115 116
f 99 116 100
f 100 116 103
f 101 104 102
f 103 116 104
f 104 116 108
f 105 117 118
f 105 118 106
f 105 109 117
f 106 118 119
f 106 119 120
f 106 120 121
f 106 121 107
f 108 116 109
f 109 116 122
f 109 122 117
f 110 123 111
f 111 119 118
f 111 118 113
f 111 123 119
f 112 117 122
f 112 122 114
f 112 113 118
f 112 118 117
f 114 122 115
f 115 122 116
f 119 123 120

