# https://github.com/mikedh/trimesh
v -0.00877080 -0.15612879 0.02463531
v -0.02701986 -0.15289950 0.02463531
v 0.02089137 -0.15481316 0.02463531
v 0.02945119 -0.12287900 0.12299779
v 0.00124539 -0.13295560 0.09538265
v -0.03804658 -0.15062703 0.02463531
v 0.00504975 -0.12350692 0.12372104
v 0.03081839 -0.15212208 0.02463531
v 0.04969161 -0.14673992 0.02463531
v 0.05370402 -0.10756974 0.15011980
v 0.05379319 -0.09847987 0.17707743
v 0.03126421 -0.11301170 0.15087593
v -0.06533102 -0.13800885 0.02463531
v -0.02984342 -0.13687262 0.06704427
v -0.05483929 -0.12524116 0.06760315
v -0.02398826 -0.12724453 0.09604016
v 0.00831913 -0.11331071 0.15153342
v -0.01394236 -0.10810795 0.15212518
v 0.06817845 -0.13824806 0.02463531
v 0.07439026 -0.09740343 0.14926504
v 0.07664911 -0.13400213 0.02463531
v 0.03269085 -0.10317431 0.17773493
v 0.07308251 -0.08894148 0.17618980
v 0.07067506 -0.07907418 0.20068179
v 0.05123713 -0.06836966 0.24443863
v 0.03515774 -0.07207737 0.24493176
v -0.08895969 -0.11929089 0.02463531
v -0.07647662 -0.10819766 0.06780040
v -0.03447999 -0.09773234 0.15245393
v -0.04562559 -0.07539637 0.17924719
v 0.01120212 -0.10314441 0.17829381
v -0.00954356 -0.09794165 0.17872119
v 0.09578982 -0.09232028 0.12076228
v 0.10146665 -0.11740714 0.02463531
v 0.09055882 -0.07641300 0.17553230
v 0.08699223 -0.06789125 0.20022154
v 0.09326348 -0.08427694 0.14864041
v 0.06609793 -0.06119344 0.24384688
v 0.04986994 -0.05889107 0.26386786
v 0.03545496 -0.06238948 0.26429522
v 0.02071304 -0.06244928 0.26462397
v 0.01869197 -0.07195777 0.24535914
v -0.09760869 -0.11088873 0.02463531
v -0.11035925 -0.09785195 0.02463531
v -0.06087278 -0.06053562 0.17987181
v -0.02862483 -0.08819395 0.17895131
v -0.03878962 -0.06723343 0.20383781
v -0.00508532 -0.08726703 0.20304880
v 0.00270174 -0.06830986 0.24591801
v -0.01733062 -0.06962550 0.22589704
v -0.02285884 -0.07874527 0.20347618
v 0.11677328 -0.08221377 0.09209514
v 0.11392000 -0.07566548 0.12043352
v 0.11635718 -0.10260619 0.02463531
v 0.10146665 -0.05425644 0.19995853
v 0.10616266 -0.06155225 0.17513779
v 0.09641398 -0.04693072 0.22260952
v 0.07956182 -0.05159526 0.24341950
v 0.06327438 -0.05240258 0.26330897
v 0.05905391 -0.04235588 0.28247517
v 0.04731388 -0.04782774 0.28296831
v 0.03500913 -0.05090753 0.28309983
v 0.02255578 -0.05111684 0.28309983
v 0.01048881 -0.04824635 0.28336281
v 0.00641695 -0.05895087 0.26498562
v -0.12813279 -0.07336311 0.02463531
v -0.07356390 -0.04328281 0.18029919
v -0.05278850 -0.05338931 0.20433094
v -0.06461770 -0.03757173 0.20485693
v -0.03216170 -0.05933959 0.22642304
v -0.04509060 -0.04669151 0.22688329
v -0.01221850 -0.06122334 0.24627964
v -0.02589044 -0.05186436 0.24677277
v 0.13169351 -0.06089443 0.09176639
v 0.12256899 -0.09641670 0.02463531
v 0.12782972 -0.05545247 0.12000615
v 0.11264198 -0.03787074 0.19956404
v 0.10693543 -0.03209987 0.22234651
v 0.11796214 -0.04367152 0.17464466
v 0.10119916 -0.02659810 0.24295925
v 0.09153963 -0.04008341 0.24315649
v 0.07540080 -0.04364162 0.26281583
v 0.06062916 -0.01762784 0.31650096
v 0.05278265 -0.02315950 0.31653386
v 0.05521983 -0.03245868 0.30062228
v 0.04517392 -0.03712322 0.30101678
v 0.03480108 -0.03954519 0.30078664
v 0.02454713 -0.03963489 0.30049077
v 0.01470927 -0.03718302 0.30065516
v 0.00507947 -0.03272779 0.30118114
v -0.00092429 -0.04268479 0.28362581
v -0.00689834 -0.05243248 0.26524860
v -0.13339350 -0.06197087 0.02463531
v -0.08274788 -0.02399673 0.18056220
v -0.07296947 -0.01969100 0.20515281
v -0.05567149 -0.03192046 0.22724491
v -0.03777909 -0.04032262 0.24720015
v -0.04746833 -0.02680741 0.24756177
v -0.01905447 -0.04373132 0.26547873
v -0.02996230 -0.03344541 0.26593900
v 0.14069918 -0.03652520 0.09137189
v 0.13484401 -0.06585798 0.06290200
v 0.15038842 -0.04444894 0.02463531
v 0.13921309 -0.07189797 0.02463531
v 0.13594371 -0.03239888 0.11957877
v 0.12521422 -0.02357811 0.17421728
v 0.11992377 -0.01939199 0.19923529
v 0.11397944 -0.01523576 0.22214927
v 0.10788652 -0.01131874 0.24279487
v 0.10099110 -0.00728212 0.26192820
v 0.09480901 -0.02097674 0.26212546
v 0.08610058 -0.03317630 0.26242134
v 0.06764346 -0.01078053 0.31620508
v 0.06282856 -0.00330530 0.32991403
v 0.05715173 -0.00886687 0.32971680
v 0.05091019 -0.01341181 0.32919079
v 0.04437144 -0.02692701 0.31633660
v 0.03572245 -0.02890047 0.31613934
v 0.02713291 -0.02869117 0.31600785
v 0.01895946 -0.02653830 0.31643522
v -0.00434228 -0.02614959 0.30154279
v 0.01099407 -0.02250168 0.31705984
v -0.01171324 -0.03503016 0.28385594
v -0.14058614 -0.04606359 0.02463531
v -0.08780055 -0.00318570 0.18082519
v -0.06310190 -0.01544507 0.22744218
v -0.07716022 -0.00037502 0.20525144
v -0.03870046 -0.02136545 0.26623487
v -0.05397736 -0.01158785 0.24762753
v -0.04470422 -0.00776054 0.26633349
v -0.02143220 -0.02588048 0.28411895
v 0.13900504 -0.00805955 0.11921714
v 0.15190423 -0.03613649 0.02463531
v 0.15561941 -0.01514606 0.02463531
v 0.12839442 -0.00240828 0.17392141
v 0.12298509 0.00022300 0.19893941
v 0.11704077 0.00273468 0.22188626
v 0.11094784 0.00503705 0.24253187
v 0.10414159 0.00733942 0.26173097
v 0.08749750 0.02587797 0.31403536
v 0.08440644 0.01538276 0.31502160
v 0.07971043 0.00575467 0.31554759
v 0.07391472 -0.00294649 0.31581059
v 0.06805956 0.00327289 0.32968390
v 0.06351215 0.00874476 0.33885610
v 0.05902419 0.00384101 0.33885610
v 0.05453623 -0.00022551 0.33869171
v 0.04419311 -0.01655140 0.32869768
v 0.04948356 -0.00360431 0.33839583
v 0.03708965 -0.01792684 0.32866478
v 0.03001590 -0.01747833 0.32896066
v 0.02335826 -0.01526566 0.32948667
v -0.01260488 -0.01786704 0.30144417
v 0.00317729 -0.01667101 0.31755298
v 0.01705728 -0.01155795 0.33011129
v -0.14724377 -0.01682051 0.02463531
v -0.08786000 0.01828315 0.18082519
v -0.14786792 0.01296079 0.02463531
v -0.05697925 0.00458853 0.24762753
v -0.07698189 0.01938948 0.20521857
v -0.02907066 -0.01532546 0.28408608
v -0.04758722 0.00683110 0.26639923
v -0.03436110 -0.00357441 0.28398746
v 0.13903475 0.01639939 0.11918427
v 0.15576804 0.01460534 0.02463531
v 0.12836471 0.01894096 0.17388853
v 0.12265816 0.01998750 0.19884078
v 0.07379583 0.06418102 0.36048794
v 0.07379583 0.06412122 0.36048794
v 0.07275558 0.05763273 0.36048794
v 0.06901065 0.02536966 0.34444487
v 0.07284474 0.01083782 0.32889491
v 0.06817845 0.01502395 0.33829719
v 0.06490907 0.01870176 0.34516811
v 0.06217468 0.02249917 0.35078979
v 0.05667619 0.00961189 0.34513524
v 0.05296098 0.00689090 0.34500372
v 0.04404450 -0.00578708 0.33809996
v 0.04853246 0.01068832 0.34927750
v 0.04425255 0.00345230 0.34500372
v 0.03836767 -0.00644490 0.33826435
v 0.03280973 -0.00572728 0.33879036
v 0.02769762 -0.00369402 0.33941495
v -0.01914364 -0.00886687 0.30118114
v -0.00362896 -0.00943499 0.31755298
v 0.01102380 -0.00641500 0.33053869
v 0.02288272 -0.00058432 0.34007245
v 0.01827587 0.00348220 0.34049985
v -0.08295593 0.03912407 0.18069369
v -0.14144805 0.04199456 0.02463531
v -0.14424190 0.02976509 0.02463531
v -0.05656314 0.02106393 0.24752890
v -0.05269933 0.03706091 0.24739739
v -0.07207783 0.03843635 0.20492269
v -0.04705223 0.02178155 0.26620197
v -0.03691716 0.00919327 0.28392169
v -0.03679827 0.02240947 0.28369159
v -0.02372077 0.00103033 0.30085242
v -0.02621738 0.01191425 0.30072090
v 0.13517097 0.04052942 0.11934865
v 0.12524393 0.04011080 0.17415154
v 0.15425223 0.02285798 0.02463531
v 0.07317168 0.06699171 0.36048794
v 0.06975369 0.05240007 0.36048794
v 0.06609793 0.02865876 0.35046101
v 0.05869725 0.02695441 0.35545802
v 0.05563593 0.02231977 0.35437316
v 0.05822171 0.01771503 0.35000077
v 0.05501178 0.01439603 0.34950763
v 0.05192073 0.01221326 0.34921175
v 0.03976459 0.00333270 0.34546399
v 0.05293126 0.01903067 0.35355127
v 0.04767054 0.01565187 0.35276228
v 0.04499559 0.01000060 0.34957337
v 0.03548468 0.00431943 0.34599000
v 0.03162087 0.00620318 0.34654886
v -0.00897885 -0.00175046 0.31722423
v -0.01290210 0.00647229 0.31686261
v 0.00576307 -0.00037502 0.33063728
v 0.00148316 0.00593407 0.33063728
v 0.01429317 0.00829625 0.34072995
v 0.02805428 0.00874476 0.34714061
v 0.02463629 0.01188435 0.34743649
v -0.07380167 0.05858956 0.18039782
v -0.13580096 0.05299809 0.02463531
v -0.04532837 0.05183195 0.24690427
v -0.04357480 0.03625359 0.26590610
v -0.03727382 0.04982859 0.26544586
v -0.03421249 0.03529676 0.28323132
v -0.02624710 0.02330650 0.30019489
v -0.02476102 0.03466884 0.29957026
v -0.01522039 0.01535286 0.31659961
v -0.01590398 0.02483144 0.31604072
v 0.15015066 0.04378861 0.02463531
v 0.12259872 0.06211786 0.14758840
v 0.11819991 0.06053311 0.17457892
v 0.07225031 0.07111803 0.36048794
v 0.06856483 0.05105453 0.36048794
v 0.06651404 0.04911097 0.36048794
v 0.05058325 0.02895777 0.35752916
v 0.04856219 0.02572847 0.35677305
v 0.04142900 0.01026970 0.34996790
v 0.04660056 0.02339620 0.35608268
v 0.04487671 0.01520335 0.35259789
v 0.04463894 0.02172175 0.35545802
v 0.03807046 0.01134614 0.35026377
v 0.03512802 0.01293088 0.35069114
v -0.00145928 0.01269168 0.33014417
v -0.00351007 0.01959879 0.32984829
v 0.01120212 0.01349900 0.34072995
v 0.00897300 0.01897087 0.34056559
v 0.02178302 0.01568177 0.34743649
v 0.03242335 0.01502395 0.35095415
v 0.02977813 0.01753562 0.35118425
v -0.02901121 0.06229727 0.26498562
v -0.03584718 0.06525746 0.24644402
v -0.06063500 0.07545366 0.17970744
v -0.12765723 0.06845685 0.02463531
v -0.02930843 0.04761593 0.28260669
v -0.01566621 0.05646659 0.29766351
v -0.00877080 0.06702161 0.29746628
v -0.01251572 0.04486505 0.31373948
v -0.02104582 0.04576207 0.29858401
v -0.01498261 0.03481834 0.31498873
v -0.00452061 0.02716371 0.32935518
v -0.00422339 0.03571537 0.32823741
v 0.13844034 0.07099843 0.02463531
v 0.12664086 0.06355311 0.11957877
v 0.11124506 0.08221127 0.14811441
v 0.06865399 0.07611148 0.36048794
v 0.06514685 0.04836345 0.36048794
v 0.04012125 0.02746272 0.35601693
v 0.03887294 0.02507065 0.35549092
v 0.06273939 0.04722722 0.36048794
v 0.05816226 0.04743652 0.36048794
v 0.05798393 0.04749632 0.36048794
v 0.05572509 0.04833355 0.36048794
v 0.05322848 0.04926048 0.36048794
v 0.04841358 0.05263928 0.36048794
v 0.03952682 0.01466514 0.35207188
v 0.04258814 0.02043601 0.35483342
v 0.03753547 0.02240947 0.35463616
v 0.03804074 0.01705721 0.35292667
v 0.00751664 0.02453243 0.34026971
v 0.01964306 0.01995760 0.34746939
v 0.01809754 0.02447263 0.34750223
v 0.02760845 0.02061542 0.35115141
v 0.03560356 0.01918017 0.35318965
v 0.03316639 0.02148254 0.35315678
v 0.03058061 0.02282808 0.35263079
v 0.00466337 0.07446694 0.31258884
v -0.04515005 0.09019481 0.17908281
v -0.10866512 0.09136094 0.02463531
v 0.00005652 0.07745703 0.29825526
v 0.01447150 0.08403523 0.31354222
v -0.00853302 0.05446323 0.31252307
v -0.00288592 0.06412122 0.31196421
v -0.00276703 0.04453614 0.32688951
v 0.00008624 0.05284858 0.32531154
v 0.00680333 0.03063222 0.33971083
v 0.00701138 0.03756922 0.33859307
v 0.13401181 0.07799524 0.02463531
v 0.12191512 0.09536766 0.02463531
v 0.10194220 0.11671691 0.02463531
v 0.09718674 0.10203556 0.12040065
v 0.09495762 0.09847736 0.14850891
v 0.06797040 0.07697861 0.36048794
v 0.04826497 0.05287848 0.36048794
v 0.04576835 0.05766263 0.36048794
v 0.03477136 0.02832985 0.35453755
v 0.03444442 0.02507065 0.35411018
v 0.04044819 0.01921007 0.35407728
v 0.01723561 0.02904747 0.34723926
v 0.02600349 0.02426333 0.35108566
v 0.02493351 0.02815044 0.35105276
v 0.03072922 0.02605738 0.35299242
v 0.01048881 0.07144694 0.32468688
v 0.01878113 0.08107504 0.32564026
v -0.02829789 0.10347081 0.17868830
v -0.08613614 0.11091613 0.02463531
v 0.02989702 0.08840075 0.32639641
v 0.02692486 0.09085263 0.31396958
v 0.00439588 0.06148995 0.32432526
v 0.00799219 0.04492485 0.33721232
v 0.01777060 0.06860636 0.33412206
v 0.02407158 0.07757663 0.33517408
v 0.01696812 0.03392132 0.34664750
v 0.01720589 0.03936328 0.34569412
v 0.04603585 0.06821765 0.36048794
v 0.07828379 0.13367072 0.02463531
v 0.06630599 0.07763643 0.36048794
v 0.05459567 0.11671691 0.17678155
v 0.04511448 0.06298499 0.36048794
v 0.03331500 0.08472294 0.33589733
v -0.00951384 0.11387632 0.17835955
v -0.06122944 0.12706262 0.02463531
v -0.06984870 0.12156085 0.02463531
v 0.04282591 0.09016491 0.32619914
v 0.01126157 0.12033492 0.17799793
v 0.06059944 0.07966969 0.36048794
v 0.04784887 0.07186556 0.36048794
v 0.02939175 0.07431743 0.34211072
v 0.04853246 0.07309149 0.36048794
v 0.05293126 0.07733742 0.36048794
v 0.04538197 0.06450994 0.36048794
v 0.05991584 0.14198317 0.02463531
v 0.05489289 0.12147114 0.14975816
v 0.05141546 0.14515266 0.02463531
v 0.03310695 0.12144125 0.17747194
v -0.03468804 0.13959110 0.02463531
v 0.03203697 0.12655430 0.15048142
v 0.02252606 0.14933878 0.02463531
v -0.00642279 0.14700651 0.02463531
v -0.01527983 0.14476395 0.02463531
f 1 2 6
f 1 6 13
f 1 13 27
f 1 27 43
f 1 43 44
f 1 44 66
f 1 66 93
f 1 93 124
f 1 124 156
f 1 156 158
f 1 158 191
f 1 191 190
f 1 190 225
f 1 225 258
f 1 258 293
f 1 293 320
f 1 320 337
f 1 337 336
f 1 336 350
f 1 350 354
f 1 354 353
f 1 353 352
f 1 352 348
f 1 348 346
f 1 346 330
f 1 330 304
f 1 304 303
f 1 303 302
f 1 302 267
f 1 267 234
f 1 234 202
f 1 202 165
f 1 165 134
f 1 134 133
f 1 133 103
f 1 103 104
f 1 104 75
f 1 75 54
f 1 54 34
f 1 34 21
f 1 21 19
f 1 19 9
f 1 9 8
f 1 8 3
f 1 3 4
f 1 4 5
f 1 5 2
f 2 5 7
f 2 7 6
f 3 8 4
f 4 7 5
f 4 8 9
f 4 9 10
f 4 10 11
f 4 11 12
f 4 12 7
f 6 7 14
f 6 14 15
f 6 15 13
f 7 16 14
f 7 12 17
f 7 17 18
f 7 18 16
f 9 19 10
f 10 20 11
f 10 19 21
f 10 21 20
f 11 22 12
f 11 20 23
f 11 23 24
f 11 24 25
f 11 25 26
f 11 26 22
f 12 22 17
f 13 15 28
f 13 28 27
f 14 16 18
f 14 18 15
f 15 18 29
f 15 29 30
f 15 30 28
f 17 22 31
f 17 31 18
f 18 31 32
f 18 32 29
f 20 21 33
f 20 33 23
f 21 34 33
f 22 26 31
f 23 35 36
f 23 36 24
f 23 33 37
f 23 37 35
f 24 36 38
f 24 38 25
f 25 38 39
f 25 39 40
f 25 40 26
f 26 40 41
f 26 41 42
f 26 42 31
f 27 28 43
f 28 44 43
f 28 30 45
f 28 45 44
f 29 32 46
f 29 46 30
f 30 46 47
f 30 47 45
f 31 48 32
f 31 42 49
f 31 49 48
f 32 48 50
f 32 50 51
f 32 51 46
f 33 34 52
f 33 52 53
f 33 53 37
f 34 54 52
f 35 55 36
f 35 37 53
f 35 53 56
f 35 56 55
f 36 55 57
f 36 57 58
f 36 58 38
f 38 58 59
f 38 59 39
f 39 59 60
f 39 60 61
f 39 61 40
f 40 61 62
f 40 62 41
f 41 62 63
f 41 63 64
f 41 64 65
f 41 65 49
f 41 49 42
f 44 45 67
f 44 67 66
f 45 47 68
f 45 68 69
f 45 69 67
f 46 51 47
f 47 51 70
f 47 70 71
f 47 71 68
f 48 49 50
f 49 65 72
f 49 72 50
f 50 72 73
f 50 73 70
f 50 70 51
f 52 74 53
f 52 54 75
f 52 75 74
f 53 74 76
f 53 76 56
f 55 56 77
f 55 77 78
f 55 78 57
f 56 79 77
f 56 76 79
f 57 78 80
f 57 80 81
f 57 81 58
f 58 81 82
f 58 82 59
f 59 82 60
f 60 83 84
f 60 84 85
f 60 85 61
f 60 82 83
f 61 85 86
f 61 86 62
f 62 86 87
f 62 87 63
f 63 87 88
f 63 88 64
f 64 88 89
f 64 89 90
f 64 90 91
f 64 91 65
f 65 91 92
f 65 92 72
f 66 67 94
f 66 94 93
f 67 69 94
f 68 71 69
f 69 95 94
f 69 71 96
f 69 96 95
f 70 73 97
f 70 97 71
f 71 97 98
f 71 98 96
f 72 92 73
f 73 92 99
f 73 99 100
f 73 100 97
f 74 101 76
f 74 75 102
f 74 102 103
f 74 103 101
f 75 104 102
f 76 101 105
f 76 105 106
f 76 106 79
f 77 79 107
f 77 107 108
f 77 108 78
f 78 108 109
f 78 109 80
f 79 106 107
f 80 109 110
f 80 110 111
f 80 111 112
f 80 112 81
f 81 112 82
f 82 112 83
f 83 113 114
f 83 114 115
f 83 115 84
f 83 112 113
f 84 115 116
f 84 116 117
f 84 117 86
f 84 86 85
f 86 117 87
f 87 117 118
f 87 118 88
f 88 118 119
f 88 119 120
f 88 120 89
f 89 120 90
f 90 121 91
f 90 120 122
f 90 122 121
f 91 123 92
f 91 121 123
f 92 123 99
f 93 94 124
f 94 95 125
f 94 125 124
f 95 96 98
f 95 98 126
f 95 126 127
f 95 127 125
f 97 100 128
f 97 128 98
f 98 129 126
f 98 128 130
f 98 130 129
f 99 123 100
f 100 123 131
f 100 131 128
f 101 132 105
f 101 103 133
f 101 133 134
f 101 134 132
f 102 104 103
f 105 132 135
f 105 135 106
f 106 135 136
f 106 136 107
f 107 136 137
f 107 137 108
f 108 137 138
f 108 138 109
f 109 139 140
f 109 140 110
f 109 138 139
f 110 140 141
f 110 141 111
f 111 141 142
f 111 142 143
f 111 143 112
f 112 143 113
f 113 143 144
f 113 144 114
f 114 144 145
f 114 145 146
f 114 146 115
f 115 146 147
f 115 147 116
f 116 148 117
f 116 147 149
f 116 149 148
f 117 148 118
f 118 148 150
f 118 150 151
f 118 151 119
f 119 151 120
f 120 151 152
f 120 152 122
f 121 153 131
f 121 131 123
f 121 122 154
f 121 154 153
f 122 152 155
f 122 155 154
f 124 125 156
f 125 127 157
f 125 157 158
f 125 158 156
f 126 129 127
f 127 129 159
f 127 159 160
f 127 160 157
f 128 131 161
f 128 161 130
f 129 130 162
f 129 162 159
f 130 161 163
f 130 163 162
f 131 153 161
f 132 164 135
f 132 134 165
f 132 165 164
f 135 166 136
f 135 164 166
f 136 167 137
f 136 166 167
f 137 167 168
f 137 168 138
f 138 168 169
f 138 169 140
f 138 140 139
f 140 169 170
f 140 170 141
f 141 170 142
f 142 170 171
f 142 171 172
f 142 172 144
f 142 144 143
f 144 172 173
f 144 173 174
f 144 174 145
f 145 174 175
f 145 175 146
f 146 175 176
f 146 176 147
f 147 176 177
f 147 177 149
f 148 149 178
f 148 178 150
f 149 177 179
f 149 179 180
f 149 180 178
f 150 178 181
f 150 181 151
f 151 181 182
f 151 182 152
f 152 182 183
f 152 183 155
f 153 184 161
f 153 154 185
f 153 185 184
f 154 155 186
f 154 186 185
f 155 183 187
f 155 187 188
f 155 188 186
f 157 160 189
f 157 189 190
f 157 190 191
f 157 191 158
f 159 192 160
f 159 162 192
f 160 192 193
f 160 193 194
f 160 194 189
f 161 184 163
f 162 195 192
f 162 163 196
f 162 196 197
f 162 197 195
f 163 184 198
f 163 198 199
f 163 199 196
f 164 165 200
f 164 200 201
f 164 201 166
f 165 202 200
f 166 201 167
f 167 201 168
f 168 203 237
f 168 237 270
f 168 270 307
f 168 307 331
f 168 331 340
f 168 340 344
f 168 344 343
f 168 343 341
f 168 341 329
f 168 329 345
f 168 345 333
f 168 333 309
f 168 309 308
f 168 308 279
f 168 279 278
f 168 278 277
f 168 277 276
f 168 276 275
f 168 275 274
f 168 274 271
f 168 271 239
f 168 239 238
f 168 238 204
f 168 204 170
f 168 170 169
f 168 201 203
f 170 204 205
f 170 205 171
f 171 205 174
f 171 174 173
f 171 173 172
f 174 205 175
f 175 205 204
f 175 204 206
f 175 206 207
f 175 207 208
f 175 208 176
f 176 208 209
f 176 209 177
f 177 209 210
f 177 210 179
f 178 180 211
f 178 211 181
f 179 210 212
f 179 212 213
f 179 213 214
f 179 214 180
f 180 214 211
f 181 211 182
f 182 211 215
f 182 215 183
f 183 215 216
f 183 216 187
f 184 185 217
f 184 217 218
f 184 218 198
f 185 186 219
f 185 219 220
f 185 220 217
f 186 188 221
f 186 221 219
f 187 216 222
f 187 222 188
f 188 222 223
f 188 223 221
f 189 194 224
f 189 224 190
f 190 224 225
f 192 195 193
f 193 226 224
f 193 224 194
f 193 195 227
f 193 227 228
f 193 228 226
f 195 197 229
f 195 229 227
f 196 199 197
f 197 199 230
f 197 230 231
f 197 231 229
f 198 218 232
f 198 232 199
f 199 232 233
f 199 233 230
f 200 202 234
f 200 234 235
f 200 235 236
f 200 236 201
f 201 236 237
f 201 237 203
f 204 238 206
f 206 238 239
f 206 239 240
f 206 240 241
f 206 241 207
f 207 241 212
f 207 212 209
f 207 209 208
f 209 212 210
f 211 214 242
f 211 242 215
f 212 241 243
f 212 243 213
f 213 244 242
f 213 242 214
f 213 243 245
f 213 245 244
f 215 242 246
f 215 246 216
f 216 246 247
f 216 247 222
f 217 220 218
f 218 220 248
f 218 248 249
f 218 249 232
f 219 221 220
f 220 221 250
f 220 250 251
f 220 251 248
f 221 223 252
f 221 252 250
f 222 247 253
f 222 253 223
f 223 253 254
f 223 254 252
f 224 226 255
f 224 255 256
f 224 256 257
f 224 257 258
f 224 258 225
f 226 228 255
f 227 229 259
f 227 259 228
f 228 259 260
f 228 260 261
f 228 261 255
f 229 231 262
f 229 262 263
f 229 263 259
f 230 233 264
f 230 264 231
f 231 264 262
f 232 249 265
f 232 265 233
f 233 265 266
f 233 266 264
f 234 267 268
f 234 268 235
f 235 269 236
f 235 268 269
f 236 269 237
f 237 269 270
f 239 271 240
f 240 272 273
f 240 273 241
f 240 271 274
f 240 274 275
f 240 275 276
f 240 276 277
f 240 277 278
f 240 278 279
f 240 279 272
f 241 273 243
f 242 244 280
f 242 280 246
f 243 273 245
f 244 245 281
f 244 281 280
f 245 273 282
f 245 282 281
f 246 280 247
f 247 280 283
f 247 283 253
f 248 251 249
f 249 251 284
f 249 284 265
f 250 252 285
f 250 285 251
f 251 285 286
f 251 286 284
f 252 254 287
f 252 287 285
f 253 283 288
f 253 288 254
f 254 288 282
f 254 282 289
f 254 289 290
f 254 290 287
f 255 261 291
f 255 291 256
f 256 291 257
f 257 292 293
f 257 293 258
f 257 291 294
f 257 294 295
f 257 295 292
f 259 263 296
f 259 296 260
f 260 296 297
f 260 297 261
f 261 297 291
f 262 296 263
f 262 264 298
f 262 298 299
f 262 299 296
f 264 266 298
f 265 284 300
f 265 300 266
f 266 300 301
f 266 301 298
f 267 302 269
f 267 269 268
f 269 302 303
f 269 303 304
f 269 304 305
f 269 305 306
f 269 306 307
f 269 307 270
f 272 279 308
f 272 308 309
f 272 309 273
f 273 310 311
f 273 311 290
f 273 290 282
f 273 309 310
f 280 281 283
f 281 282 312
f 281 312 283
f 282 290 289
f 282 288 283
f 282 283 312
f 284 286 313
f 284 313 300
f 285 287 314
f 285 314 286
f 286 314 315
f 286 315 313
f 287 290 314
f 290 311 310
f 290 310 316
f 290 316 314
f 291 295 294
f 291 297 317
f 291 317 318
f 291 318 295
f 292 319 320
f 292 320 293
f 292 295 319
f 295 318 321
f 295 321 322
f 295 322 319
f 296 299 323
f 296 323 317
f 296 317 297
f 298 301 324
f 298 324 299
f 299 324 325
f 299 325 326
f 299 326 317
f 299 317 323
f 300 313 327
f 300 327 301
f 301 327 328
f 301 328 329
f 301 329 324
f 304 330 306
f 304 306 305
f 306 330 307
f 307 330 332
f 307 332 331
f 309 333 315
f 309 315 316
f 309 316 310
f 313 315 333
f 313 333 327
f 314 316 315
f 317 326 318
f 318 326 334
f 318 334 321
f 319 335 336
f 319 336 337
f 319 337 320
f 319 322 335
f 321 338 339
f 321 339 322
f 321 334 340
f 321 340 338
f 322 339 335
f 324 329 341
f 324 341 342
f 324 342 325
f 325 342 326
f 326 342 343
f 326 343 344
f 326 344 334
f 327 333 345
f 327 345 329
f 327 329 328
f 330 346 332
f 331 332 340
f 332 346 347
f 332 347 348
f 332 348 349
f 332 349 340
f 334 344 340
f 335 339 350
f 335 350 336
f 338 349 339
f 338 340 349
f 339 349 351
f 339 351 352
f 339 352 353
f 339 353 354
f 339 354 350
f 341 343 342
f 346 348 347
f 348 352 351
f 348 351 349

