# https://github.com/mikedh/trimesh
v -0.02779307 -0.24336307 -0.22612762
v -0.07384881 -0.23359615 -0.22571680
v -0.02765223 -0.23702647 -0.26515689
v 0.01863826 -0.23650239 -0.26602989
v 0.01920163 -0.24126674 -0.22648712
v -0.02760528 -0.24264841 -0.18263055
v -0.07323849 -0.23307206 -0.18232243
v -0.11694685 -0.21430051 -0.22525461
v -0.11530368 -0.20910737 -0.26366761
v -0.07258122 -0.22673547 -0.26428387
v -0.02708885 -0.22635433 -0.30295363
v 0.01746456 -0.22597317 -0.30408344
v 0.06323862 -0.22354336 -0.26628667
v 0.06460011 -0.22835535 -0.22674388
v 0.01891994 -0.24007566 -0.18288733
v 0.01816878 -0.23135690 -0.13985243
v -0.02629074 -0.23359615 -0.13959566
v -0.06976436 -0.22373393 -0.13944161
v -0.11511589 -0.21220420 -0.18232243
v -0.15502147 -0.18519033 -0.26330814
v -0.15577264 -0.18776308 -0.22489512
v -0.15046754 -0.17766266 -0.30084810
v -0.11201734 -0.20043626 -0.30110487
v -0.07042163 -0.21649212 -0.30161843
v -0.06647802 -0.20076977 -0.34059632
v -0.02568042 -0.20896445 -0.34162340
v 0.01596224 -0.20882152 -0.34280455
v 0.06018702 -0.21301414 -0.30403209
v 0.05605562 -0.19733943 -0.34249642
v 0.10333201 -0.20048390 -0.26623532
v 0.10535076 -0.20505768 -0.22689794
v 0.09882502 -0.19109812 -0.30377531
v 0.10422401 -0.20453359 -0.18350357
v 0.06375505 -0.22706898 -0.18314409
v 0.06098513 -0.21854079 -0.14031464
v 0.05840300 -0.20605819 -0.10215840
v 0.01807489 -0.21749264 -0.10164486
v -0.02361472 -0.21920781 -0.10143943
v -0.10924742 -0.20277078 -0.13995515
v -0.06422453 -0.20982203 -0.10128537
v -0.10173578 -0.19114578 -0.10159349
v -0.15206377 -0.18409453 -0.18247649
v -0.14506856 -0.17647158 -0.14010921
v -0.18901165 -0.15374562 -0.26300001
v -0.18999755 -0.15555607 -0.22458699
v -0.18300234 -0.14712317 -0.30038592
v -0.14107800 -0.16417955 -0.34008276
v -0.10572634 -0.18652435 -0.34054497
v -0.05990533 -0.17909196 -0.37793088
v -0.02291050 -0.18504740 -0.37808496
v 0.01450686 -0.18485683 -0.37895799
v 0.05075052 -0.17532812 -0.37864983
v 0.08403648 -0.15836704 -0.37818766
v 0.09220538 -0.17680508 -0.34172612
v 0.13516258 -0.16537063 -0.30449426
v 0.14103104 -0.17356531 -0.26674888
v 0.14342539 -0.17756738 -0.22715472
v 0.12624250 -0.15293567 -0.34244508
v 0.14168832 -0.17718622 -0.18360628
v 0.13624237 -0.17175487 -0.14072546
v 0.10032735 -0.19795880 -0.14062275
v 0.07666568 -0.13402121 0.02463531
v 0.06816813 -0.13826147 0.02463531
v 0.04967072 -0.14674202 0.02463531
v 0.09492835 -0.18604791 -0.10303143
v 0.03079773 -0.15212573 0.02463531
v 0.02089175 -0.15479377 0.02463531
v -0.00873228 -0.15612780 0.02463531
v -0.02699496 -0.15288803 0.02463531
v -0.03802768 -0.15060115 0.02463531
v -0.06530432 -0.13797562 0.02463531
v -0.12290922 -0.15345976 -0.06590228
v -0.13535038 -0.16641879 -0.10174756
v -0.18511499 -0.15193516 -0.18227108
v -0.17708692 -0.14578915 -0.13980108
v -0.21455123 -0.11496379 -0.26264054
v -0.20760296 -0.10986594 -0.29992372
v -0.21671082 -0.11677425 -0.22438158
v -0.21445733 -0.11577374 -0.18155211
v -0.19469233 -0.10081367 -0.33936381
v -0.17135930 -0.13545051 -0.33977467
v -0.12619556 -0.14545564 -0.37752002
v -0.09497530 -0.16599000 -0.37787953
v -0.05084442 -0.15407912 -0.41187608
v -0.01873215 -0.15936755 -0.41197878
v 0.01403738 -0.15884347 -0.41244096
v 0.04614964 -0.15193516 -0.41274908
v 0.07567978 -0.13816619 -0.41233826
v 0.11469336 -0.13683216 -0.37849578
v 0.16811991 -0.13535522 -0.30526459
v 0.17539680 -0.14240646 -0.26726240
v 0.17816672 -0.14588444 -0.22736013
v 0.15685244 -0.12477836 -0.34321541
v 0.17572545 -0.14569387 -0.18355493
v 0.16919971 -0.14183474 -0.14036599
v 0.12858990 -0.16174972 -0.10318549
v 0.10145409 -0.11739361 0.02463531
v -0.08896599 -0.11925171 0.02463531
v -0.15023281 -0.12639824 -0.06559415
v -0.16506830 -0.13707039 -0.10149080
v -0.09760438 -0.11086646 0.02463531
v -0.20478609 -0.11077116 -0.13892806
v -0.22952756 -0.07103648 -0.26217833
v -0.22300182 -0.06793965 -0.29935884
v -0.23253222 -0.07241814 -0.22438158
v -0.21004425 -0.06193656 -0.33900434
v -0.22985619 -0.07179877 -0.18201430
v -0.22084223 -0.06922603 -0.13949296
v -0.18938723 -0.05393245 -0.37808496
v -0.17473954 -0.08861693 -0.37787953
v -0.15309662 -0.11948993 -0.37757140
v -0.10765120 -0.12525479 -0.41218418
v -0.08103182 -0.14269231 -0.41192740
v -0.04126707 -0.12968564 -0.44232917
v -0.01389654 -0.13440235 -0.44232917
v 0.01413127 -0.13402121 -0.44263726
v 0.04173655 -0.12873277 -0.44304812
v 0.06732307 -0.11806063 -0.44299674
v 0.10239305 -0.11934700 -0.41208148
v 0.09089085 -0.10310056 -0.44325352
v 0.11197039 -0.08342379 -0.44335622
v 0.14182916 -0.11077116 -0.37890661
v 0.19642940 -0.10109954 -0.30613759
v 0.20488000 -0.10667382 -0.26782730
v 0.20727433 -0.10905600 -0.22741148
v 0.18206339 -0.09185670 -0.34372893
v 0.20384714 -0.10896071 -0.18340087
v 0.19506791 -0.10572095 -0.14036599
v 0.15840171 -0.13292541 -0.10313413
v 0.12258058 -0.09638283 0.02463531
v -0.18999755 -0.10357700 -0.10092589
v -0.11037417 -0.09781213 0.02463531
v -0.12812042 -0.07337101 0.02463531
v -0.20652317 -0.06522397 -0.10107996
v -0.23694530 -0.02544164 -0.26207563
v -0.23009093 -0.02386940 -0.29915342
v -0.23680447 -0.02601336 -0.18227108
v -0.23952743 -0.02601336 -0.22438158
v -0.21647608 -0.02067729 -0.33869621
v -0.19595993 -0.01677052 -0.37823901
v -0.22901113 -0.02548928 -0.13964702
v -0.21558408 -0.02425055 -0.10087454
v -0.16844854 -0.01295904 -0.41531679
v -0.16281481 -0.04545191 -0.41500866
v -0.14957555 -0.07584848 -0.41398159
v -0.13037391 -0.10257648 -0.41264635
v -0.10675919 -0.08571068 -0.44294542
v -0.08812093 -0.10457751 -0.44207239
v -0.06629023 -0.11925171 -0.44181561
v -0.05248759 -0.09652576 -0.46518180
v -0.03168973 -0.10514923 -0.46548992
v -0.00910786 -0.11000887 -0.46600348
v 0.01380264 -0.11015180 -0.46631160
v 0.03638451 -0.10614975 -0.46677378
v 0.05812132 -0.09857443 -0.46785223
v 0.07835580 -0.08680648 -0.46898204
v 0.09605511 -0.07041711 -0.46944422
v 0.12812042 -0.05945911 -0.44232917
v 0.16365987 -0.08027932 -0.37875253
v 0.10966995 -0.05026390 -0.46857119
v 0.21774368 -0.06169835 -0.30695927
v 0.22619428 -0.06522397 -0.26813543
v 0.22849472 -0.06689149 -0.22741148
v 0.20168754 -0.05507590 -0.34455061
v 0.22342436 -0.06679621 -0.18329816
v 0.21248552 -0.06484282 -0.14041734
v 0.13920009 -0.07189406 0.02463531
v -0.18826050 -0.06003083 -0.06528603
v -0.13337857 -0.06193656 0.02463531
v -0.14060852 -0.04602363 0.02463531
v -0.19750920 -0.02248774 -0.06472112
v -0.23600635 0.02077257 -0.26222968
v -0.23980913 0.02091550 -0.22448429
v -0.22811913 0.02062964 -0.29915342
v -0.23736784 0.02024849 -0.18216836
v -0.21412870 0.02091550 -0.33854216
v -0.19342475 0.02077257 -0.37798223
v -0.22849472 0.01905740 -0.13969839
v -0.21497376 0.01767574 -0.10107996
v -0.19708666 0.01610351 -0.06497790
v -0.16614810 0.01972441 -0.41500866
v -0.13713439 0.01781867 -0.44618070
v -0.13877755 -0.00976692 -0.44643748
v -0.13417667 -0.03725723 -0.44623208
v -0.12281532 -0.06308001 -0.44479415
v -0.08535101 -0.06951188 -0.46605483
v -0.07023384 -0.08461488 -0.46533585
v -0.05408381 -0.06622449 -0.48069078
v -0.03962390 -0.07556261 -0.48058808
v -0.02258187 -0.08237563 -0.48017725
v -0.00446004 -0.08623476 -0.48007452
v 0.01323927 -0.08666355 -0.48058808
v 0.03075078 -0.08404315 -0.48182058
v 0.04816839 -0.07865944 -0.48402882
v 0.06460011 -0.06965481 -0.48592895
v 0.07901306 -0.05674342 -0.48736686
v 0.09013969 -0.04049699 -0.48669925
v 0.13891840 -0.03354103 -0.44119936
v 0.18098359 -0.04702415 -0.37936878
v 0.11896560 -0.02834789 -0.46697921
v 0.22760271 -0.01810453 -0.30675384
v 0.23666362 -0.01996263 -0.26813543
v 0.21215689 -0.01481713 -0.34455061
v 0.23980913 -0.02105843 -0.22736013
v 0.23455097 -0.02167780 -0.18299003
v 0.19112431 -0.01110094 -0.37967694
v 0.22215676 -0.02153487 -0.14010921
v 0.15037365 -0.04445140 0.02463531
v 0.14722815 -0.05226493 0.02463531
v -0.14445823 -0.02906254 0.02463531
v -0.14722815 -0.01681816 0.02463531
v -0.14783847 0.01295904 0.02463531
v -0.22450416 0.06541454 -0.26228103
v -0.22976230 0.06679621 -0.22458699
v -0.22882335 0.06593862 -0.18201430
v -0.21671082 0.06360409 -0.29920477
v -0.22074834 0.06298472 -0.13928753
v -0.20286123 0.06088841 -0.33854216
v -0.18286149 0.05683871 -0.37793088
v -0.20586589 0.05841095 -0.10118267
v -0.18821354 0.05345602 -0.06528603
v -0.14422350 0.02977720 0.02463531
v -0.14145358 0.04197393 0.02463531
v -0.15666465 0.05107385 -0.41464919
v -0.12915327 0.04445140 -0.44582123
v -0.11089059 0.01510299 -0.46851984
v -0.11187650 -0.00767061 -0.46877658
v -0.10755730 -0.03006306 -0.46857119
v -0.09830859 -0.05112149 -0.46754408
v -0.06619633 -0.05440889 -0.48105028
v -0.05051578 -0.04183101 -0.48870206
v -0.04037507 -0.05112149 -0.48803446
v 0.02103259 -0.03916297 -0.49989730
v 0.05159558 -0.05336073 -0.49275905
v 0.06276914 -0.04311738 -0.49419698
v 0.07187701 -0.03049185 -0.49383751
v 0.07859053 -0.01686580 -0.49260500
v 0.09821470 -0.02282124 -0.48495319
v 0.14619531 -0.00681302 -0.44145614
v 0.16873023 -0.00848055 -0.41228688
v 0.12455239 -0.00586015 -0.46620888
v 0.22628817 0.02644215 -0.30618894
v 0.23548993 0.02639451 -0.26793000
v 0.21229774 0.02682330 -0.34408841
v 0.23901100 0.02610864 -0.22730878
v 0.19290832 0.02629922 -0.37967694
v 0.23469181 0.02491756 -0.18278462
v 0.17154709 0.02405997 -0.41305721
v 0.22098307 0.02277360 -0.14026327
v 0.15572570 0.01457892 0.02463531
v 0.15558486 -0.01515064 0.02463531
v 0.15187597 -0.03611378 0.02463531
v -0.20605369 0.10767434 -0.26253781
v -0.21093625 0.10986594 -0.22474107
v -0.21013814 0.10853192 -0.18206567
v -0.19760309 0.10376757 -0.29930747
v -0.20182839 0.10338642 -0.13959566
v -0.18891776 0.09662104 -0.10123402
v -0.18356571 0.09776448 -0.33813131
v -0.16473967 0.08995095 -0.37721193
v -0.14126579 0.08013639 -0.41418701
v -0.13581985 0.05297958 0.02463531
v -0.11633653 0.06932131 -0.44551313
v -0.10413012 0.03740016 -0.46800628
v -0.08178298 0.03106357 -0.48207736
v -0.08722892 0.01262553 -0.48253953
v -0.08765145 -0.00576486 -0.48259091
v -0.08389563 -0.02353590 -0.48248821
v -0.07652484 -0.04002055 -0.48192328
v -0.05896638 -0.03058713 -0.48936966
v -0.01234726 -0.00195338 -0.49958917
v 0.02154902 -0.03859124 -0.50000000
v 0.03366154 0.03816245 -0.49681604
v 0.08262804 -0.00276332 -0.49162924
v 0.10300337 -0.00471671 -0.48361799
v 0.14835490 0.02067729 -0.44207239
v 0.12563218 0.01677052 -0.46615756
v 0.21642914 0.06994068 -0.30582947
v 0.22539616 0.07179877 -0.26777595
v 0.20417577 0.06770143 -0.34383163
v 0.18718068 0.06341352 -0.38003641
v 0.22811913 0.07208464 -0.22725743
v 0.22394077 0.07041711 -0.18288733
v 0.21126489 0.06608155 -0.14041734
v 0.16610114 0.05626699 -0.41290313
v 0.14408265 0.04792937 -0.44212371
v 0.15013891 0.04378439 0.02463531
v 0.15422337 0.02282124 0.02463531
v -0.18248591 0.14759961 -0.26315406
v -0.18586615 0.14969592 -0.22484377
v -0.18389435 0.14688495 -0.18211702
v -0.17356583 0.14121537 -0.29987237
v -0.17577238 0.13935727 -0.13980108
v -0.16427019 0.13025737 -0.10149080
v -0.12765095 0.06841608 0.02463531
v -0.16027963 0.13211545 -0.33843943
v -0.14253338 0.12025223 -0.37685245
v -0.12121910 0.10610210 -0.41341668
v -0.09929450 0.09147555 -0.44464010
v -0.09314434 0.05845859 -0.46733868
v -0.07267512 0.04873931 -0.48110163
v -0.06267525 0.02668037 -0.48931831
v -0.06690055 0.01157737 -0.49013999
v -0.06751087 -0.00338269 -0.49003726
v -0.06488179 -0.01767574 -0.48988321
v -0.00220654 0.03154001 -0.49948648
v -0.00131454 0.03106357 -0.49958917
v 0.07422440 0.04035405 -0.48772633
v 0.08051540 0.02591807 -0.48998591
v 0.08323836 0.01138680 -0.49080759
v -0.00056337 0.03254052 -0.49933240
v 0.00347413 0.08089869 -0.48315579
v 0.00183096 0.10100424 -0.47647974
v 0.01962416 0.10119482 -0.47570944
v 0.03741736 0.09743098 -0.47499049
v 0.08159520 0.06608155 -0.47776359
v 0.10356674 0.01334018 -0.48315579
v 0.12168857 0.03930590 -0.46590078
v 0.19882374 0.11086646 -0.30557269
v 0.18788491 0.10605446 -0.34357488
v 0.20605369 0.11396328 -0.26741648
v 0.20854191 0.11491615 -0.22715472
v 0.17234521 0.09800270 -0.37977964
v 0.15361305 0.08647297 -0.41305721
v 0.20431662 0.11262926 -0.18309274
v 0.19394116 0.10691204 -0.14052004
v 0.13333161 0.07360923 -0.44191831
v 0.13840197 0.07098883 0.02463531
v -0.15103093 0.18180764 -0.26356488
v -0.14370707 0.17413704 -0.30048862
v -0.15328442 0.18371339 -0.22494648
v -0.15121871 0.17994955 -0.18216836
v -0.14403571 0.17056377 -0.14000651
v -0.10863710 0.09133261 0.02463531
v -0.13347246 0.15846232 -0.10231246
v -0.13234572 0.16275024 -0.33905569
v -0.11746328 0.14817132 -0.37777680
v -0.09882502 0.13006678 -0.41408432
v -0.07938865 0.11100938 -0.44412655
v -0.07910696 0.07751600 -0.46595210
v -0.06121987 0.06484282 -0.47899610
v -0.05558614 0.04106871 -0.48777768
v -0.04647828 0.05417068 -0.48572350
v -0.02333303 0.07289457 -0.48361799
v -0.01014071 0.07808772 -0.48366934
v 0.09239317 0.04973983 -0.48063946
v 0.10004566 0.03158765 -0.48259091
v -0.01563360 0.09700219 -0.47678787
v -0.02309829 0.11758419 -0.46420607
v -0.00107980 0.12277734 -0.46364117
v 0.02136123 0.12306319 -0.46281952
v 0.04366141 0.11882292 -0.46240866
v 0.06464706 0.10991358 -0.46204919
v 0.05398992 0.08985566 -0.47427151
v 0.08333226 0.09704983 -0.46240866
v 0.09938839 0.08070811 -0.46343577
v 0.11258071 0.06107898 -0.46482232
v 0.17347194 0.14755195 -0.30511051
v 0.15070228 0.12887570 -0.37957424
v 0.16398850 0.14021486 -0.34316403
v 0.17887093 0.15150636 -0.26700562
v 0.18079579 0.15293567 -0.22705200
v 0.17741556 0.15045822 -0.18329816
v 0.13502173 0.11358213 -0.41326261
v 0.11769801 0.09676398 -0.44196966
v 0.17009170 0.14435984 -0.14031464
v 0.13398889 0.07799243 0.02463531
v -0.11253376 0.20786865 -0.26371896
v -0.10812067 0.20105562 -0.30115622
v -0.09952924 0.18828717 -0.33987737
v -0.11380135 0.20929796 -0.22520325
v -0.11305019 0.20643935 -0.18252784
v -0.10807373 0.19667242 -0.14021191
v -0.10009261 0.18333223 -0.10241517
v -0.08610218 0.11091410 0.02463531
v -0.08788619 0.17151664 -0.37849578
v -0.07295681 0.15041056 -0.41470057
v -0.05708847 0.12758933 -0.44397247
v -0.06244051 0.09404829 -0.46466827
v -0.04774586 0.07865944 -0.47714734
v -0.03244090 0.08952216 -0.47694194
v -0.04370836 0.10772198 -0.46436012
v -0.03234700 0.13988136 -0.44386977
v -0.00553983 0.14659908 -0.44361299
v 0.02206544 0.14736138 -0.44320217
v 0.04929514 0.14226353 -0.44279134
v 0.07492861 0.13159138 -0.44227779
v 0.09821470 0.11658368 -0.44243187
v 0.14126579 0.17828202 -0.30454561
v 0.14596057 0.18404689 -0.26664615
v 0.11182955 0.13687982 -0.41387886
v 0.12333175 0.15469849 -0.37926608
v 0.13356635 0.16865803 -0.34254777
v 0.14765069 0.18623850 -0.22684659
v 0.14469297 0.18323694 -0.18324681
v 0.12995137 0.16336961 -0.10339090
v 0.15901203 0.13402121 -0.10333955
v 0.13812029 0.17518519 -0.14062275
v 0.12192331 0.09538231 0.02463531
v -0.07098500 0.22854593 -0.26438656
v -0.07187701 0.23040402 -0.22551137
v -0.06779256 0.22006539 -0.30177248
v -0.06206493 0.20610583 -0.34028819
v -0.05408381 0.18790601 -0.37870121
v -0.07197090 0.22806950 -0.18237379
v -0.06952962 0.21877901 -0.13949296
v -0.06985825 0.12153860 0.02463531
v -0.06121987 0.12701760 0.02463531
v -0.06398979 0.20367602 -0.10154215
v -0.04337972 0.16446541 -0.41428971
v -0.01150220 0.17199308 -0.41403294
v 0.02126733 0.17280301 -0.41387886
v 0.05342654 0.16660936 -0.41367346
v 0.08403648 0.15455556 -0.41377616
v 0.10422401 0.20296137 -0.30403209
v 0.10835541 0.21110840 -0.26638937
v 0.10966995 0.21396701 -0.22664118
v 0.09173591 0.17518519 -0.37911204
v 0.09868418 0.19133635 -0.34208560
v 0.10718172 0.21044140 -0.18299003
v 0.09610205 0.18700078 -0.10318549
v 0.07826190 0.13364005 0.02463531
v 0.10192357 0.11672661 0.02463531
v 0.10215831 0.20115091 -0.14026327
v -0.02624379 0.24236254 -0.22576815
v -0.02572737 0.23950393 -0.26495147
v -0.02431894 0.22997524 -0.30233738
v -0.02168986 0.21592040 -0.34100714
v -0.01741762 0.19624363 -0.37875253
v -0.02685411 0.23974216 -0.18237379
v -0.02619685 0.22964174 -0.13933890
v -0.03469439 0.13954785 0.02463531
v -0.01525802 0.14478864 0.02463531
v -0.00643184 0.14698024 0.02463531
v -0.02352082 0.21363351 -0.10149080
v 0.02014059 0.19676770 -0.37885526
v 0.05713541 0.19000232 -0.37926608
v 0.06366115 0.22144705 -0.30367258
v 0.06605549 0.23035638 -0.26597854
v 0.06690055 0.23392965 -0.22633305
v 0.06525738 0.23083282 -0.18257920
v 0.06070345 0.20839272 -0.34208560
v 0.06187714 0.22001775 -0.13980108
v 0.05990533 0.14197767 0.02463531
v 0.02075091 0.24336307 -0.22607628
v 0.02070396 0.24031387 -0.26551637
v 0.02014059 0.23078518 -0.30310768
v 0.01990585 0.21644448 -0.34146935
v 0.01967111 0.23998037 -0.18252784
v 0.01835657 0.22921294 -0.13974974
v 0.02253492 0.14931476 0.02463531
v 0.01812183 0.21277593 -0.10226111
v 0.05140779 0.14512214 0.02463531
f 1 2 3
f 1 3 4
f 1 4 5
f 1 5 6
f 1 6 7
f 1 7 2
f 2 7 8
f 2 8 9
f 2 9 10
f 2 10 3
f 3 10 11
f 3 11 12
f 3 12 4
f 4 13 14
f 4 14 5
f 4 12 13
f 5 14 15
f 5 15 6
f 6 15 16
f 6 16 17
f 6 17 7
f 7 17 18
f 7 18 19
f 7 19 8
f 8 20 9
f 8 19 21
f 8 21 20
f 9 20 22
f 9 22 23
f 9 23 10
f 10 23 24
f 10 24 11
f 11 24 25
f 11 25 26
f 11 26 27
f 11 27 12
f 12 28 13
f 12 27 29
f 12 29 28
f 13 30 31
f 13 31 14
f 13 28 32
f 13 32 30
f 14 31 33
f 14 33 34
f 14 34 15
f 15 34 16
f 16 34 35
f 16 35 36
f 16 36 37
f 16 37 17
f 17 37 38
f 17 38 18
f 18 39 19
f 18 38 40
f 18 40 41
f 18 41 39
f 19 42 21
f 19 39 43
f 19 43 42
f 20 21 44
f 20 44 22
f 21 42 45
f 21 45 44
f 22 44 46
f 22 46 47
f 22 47 48
f 22 48 23
f 23 48 24
f 24 48 25
f 25 48 49
f 25 49 26
f 26 49 50
f 26 50 27
f 27 50 51
f 27 51 52
f 27 52 29
f 28 29 32
f 29 52 53
f 29 53 54
f 29 54 32
f 30 32 55
f 30 55 56
f 30 56 31
f 31 56 57
f 31 57 33
f 32 54 58
f 32 58 55
f 33 59 60
f 33 60 61
f 33 61 34
f 33 57 59
f 34 61 35
f 35 61 36
f 36 62 63
f 36 63 64
f 36 64 37
f 36 61 65
f 36 65 62
f 37 64 66
f 37 66 67
f 37 67 68
f 37 68 38
f 38 68 69
f 38 69 70
f 38 70 40
f 39 41 43
f 40 70 71
f 40 71 41
f 41 71 72
f 41 72 73
f 41 73 43
f 42 74 45
f 42 43 75
f 42 75 74
f 43 73 75
f 44 76 77
f 44 77 46
f 44 45 78
f 44 78 76
f 45 74 79
f 45 79 78
f 46 77 80
f 46 80 81
f 46 81 47
f 47 81 82
f 47 82 83
f 47 83 48
f 48 83 49
f 49 83 84
f 49 84 85
f 49 85 50
f 50 85 51
f 51 85 86
f 51 86 87
f 51 87 52
f 52 87 88
f 52 88 53
f 53 58 54
f 53 88 89
f 53 89 58
f 55 90 91
f 55 91 56
f 55 58 90
f 56 91 57
f 57 91 92
f 57 92 59
f 58 89 93
f 58 93 90
f 59 94 95
f 59 95 60
f 59 92 94
f 60 95 96
f 60 96 61
f 61 96 65
f 62 97 130
f 62 130 167
f 62 167 209
f 62 209 208
f 62 208 252
f 62 252 251
f 62 251 250
f 62 250 288
f 62 288 287
f 62 287 328
f 62 328 367
f 62 367 399
f 62 399 423
f 62 423 422
f 62 422 444
f 62 444 453
f 62 453 451
f 62 451 434
f 62 434 433
f 62 433 432
f 62 432 408
f 62 408 407
f 62 407 375
f 62 375 334
f 62 334 295
f 62 295 262
f 62 262 223
f 62 223 222
f 62 222 212
f 62 212 211
f 62 211 210
f 62 210 170
f 62 170 169
f 62 169 133
f 62 133 132
f 62 132 101
f 62 101 98
f 62 98 71
f 62 71 70
f 62 70 69
f 62 69 68
f 62 68 67
f 62 67 66
f 62 66 64
f 62 64 63
f 62 65 97
f 65 96 97
f 71 98 72
f 72 99 100
f 72 100 73
f 72 98 101
f 72 101 99
f 73 100 75
f 74 75 79
f 75 102 79
f 75 100 102
f 76 103 104
f 76 104 77
f 76 78 105
f 76 105 103
f 77 104 106
f 77 106 80
f 78 79 105
f 79 107 105
f 79 102 108
f 79 108 107
f 80 106 109
f 80 109 110
f 80 110 81
f 81 110 111
f 81 111 82
f 82 111 112
f 82 112 83
f 83 112 113
f 83 113 84
f 84 113 114
f 84 114 115
f 84 115 85
f 85 115 86
f 86 115 116
f 86 116 117
f 86 117 87
f 87 117 118
f 87 118 88
f 88 119 89
f 88 118 120
f 88 120 119
f 89 119 121
f 89 121 122
f 89 122 93
f 90 123 91
f 90 93 123
f 91 123 124
f 91 124 92
f 92 125 94
f 92 124 125
f 93 126 123
f 93 122 126
f 94 127 95
f 94 125 127
f 95 128 129
f 95 129 96
f 95 127 128
f 96 129 97
f 97 129 130
f 99 131 100
f 99 101 132
f 99 132 133
f 99 133 131
f 100 131 102
f 102 131 134
f 102 134 108
f 103 135 104
f 103 105 135
f 104 135 136
f 104 136 106
f 105 107 137
f 105 137 138
f 105 138 135
f 106 139 140
f 106 140 109
f 106 136 139
f 107 108 141
f 107 141 137
f 108 134 142
f 108 142 141
f 109 140 143
f 109 143 144
f 109 144 110
f 110 144 145
f 110 145 111
f 111 145 146
f 111 146 112
f 112 146 147
f 112 147 148
f 112 148 149
f 112 149 113
f 113 149 114
f 114 149 150
f 114 150 151
f 114 151 152
f 114 152 115
f 115 152 153
f 115 153 116
f 116 153 154
f 116 154 117
f 117 154 155
f 117 155 118
f 118 155 156
f 118 156 120
f 119 120 121
f 120 156 157
f 120 157 121
f 121 158 159
f 121 159 122
f 121 157 160
f 121 160 158
f 122 159 126
f 123 161 124
f 123 126 161
f 124 162 125
f 124 161 162
f 125 162 163
f 125 163 127
f 126 159 164
f 126 164 161
f 127 165 128
f 127 163 165
f 128 165 166
f 128 166 167
f 128 167 130
f 128 130 129
f 131 168 134
f 131 133 169
f 131 169 170
f 131 170 168
f 134 168 171
f 134 171 142
f 135 172 136
f 135 138 173
f 135 173 172
f 136 172 174
f 136 174 139
f 137 175 138
f 137 141 175
f 138 175 173
f 139 176 140
f 139 174 176
f 140 176 177
f 140 177 143
f 141 178 175
f 141 142 178
f 142 179 178
f 142 171 180
f 142 180 179
f 143 177 181
f 143 181 182
f 143 182 183
f 143 183 184
f 143 184 144
f 144 184 145
f 145 184 185
f 145 185 146
f 146 185 147
f 147 185 186
f 147 186 148
f 148 186 187
f 148 187 150
f 148 150 149
f 150 187 188
f 150 188 189
f 150 189 151
f 151 189 190
f 151 190 152
f 152 190 191
f 152 191 192
f 152 192 153
f 153 192 193
f 153 193 194
f 153 194 154
f 154 194 155
f 155 194 195
f 155 195 156
f 156 195 196
f 156 196 157
f 157 196 197
f 157 197 160
f 158 160 198
f 158 198 199
f 158 199 159
f 159 199 164
f 160 200 198
f 160 197 200
f 161 201 202
f 161 202 162
f 161 164 203
f 161 203 201
f 162 202 204
f 162 204 163
f 163 204 205
f 163 205 165
f 164 199 206
f 164 206 203
f 165 205 166
f 166 205 207
f 166 207 208
f 166 208 209
f 166 209 167
f 168 170 171
f 170 210 171
f 171 210 211
f 171 211 212
f 171 212 180
f 172 213 174
f 172 173 214
f 172 214 213
f 173 175 215
f 173 215 214
f 174 213 216
f 174 216 176
f 175 178 217
f 175 217 215
f 176 218 177
f 176 216 218
f 177 218 219
f 177 219 181
f 178 179 217
f 179 180 220
f 179 220 217
f 180 221 220
f 180 212 222
f 180 222 223
f 180 223 221
f 181 224 225
f 181 225 182
f 181 219 224
f 182 225 226
f 182 226 183
f 183 226 227
f 183 227 184
f 184 227 228
f 184 228 229
f 184 229 185
f 185 229 186
f 186 229 230
f 186 230 188
f 186 188 187
f 188 230 231
f 188 231 232
f 188 232 189
f 189 232 233
f 189 233 190
f 190 233 191
f 191 233 192
f 192 233 193
f 193 233 194
f 194 233 234
f 194 234 195
f 195 234 235
f 195 235 196
f 196 235 236
f 196 236 197
f 197 236 237
f 197 237 238
f 197 238 200
f 198 200 239
f 198 239 240
f 198 240 199
f 199 240 206
f 200 241 239
f 200 238 241
f 201 242 243
f 201 243 202
f 201 203 244
f 201 244 242
f 202 243 245
f 202 245 204
f 203 206 246
f 203 246 244
f 204 245 247
f 204 247 205
f 205 247 207
f 206 240 248
f 206 248 246
f 207 247 249
f 207 249 250
f 207 250 251
f 207 251 252
f 207 252 208
f 213 253 216
f 213 214 253
f 214 215 254
f 214 254 253
f 215 255 254
f 215 217 255
f 216 253 256
f 216 256 218
f 217 257 255
f 217 220 258
f 217 258 257
f 218 256 259
f 218 259 219
f 219 259 260
f 219 260 261
f 219 261 224
f 220 221 258
f 221 223 258
f 223 262 258
f 224 261 263
f 224 263 225
f 225 263 264
f 225 264 226
f 226 264 265
f 226 265 266
f 226 266 227
f 227 266 267
f 227 267 228
f 228 267 268
f 228 268 269
f 228 269 229
f 229 269 230
f 230 269 270
f 230 270 231
f 231 270 233
f 231 233 232
f 233 270 271
f 233 271 272
f 233 272 234
f 234 272 235
f 235 272 236
f 236 272 273
f 236 273 237
f 237 274 238
f 237 273 274
f 238 275 241
f 238 274 275
f 239 241 276
f 239 276 248
f 239 248 240
f 241 277 276
f 241 275 277
f 242 278 279
f 242 279 243
f 242 244 280
f 242 280 278
f 243 279 245
f 244 246 281
f 244 281 280
f 245 279 282
f 245 282 283
f 245 283 247
f 246 248 281
f 247 283 284
f 247 284 249
f 248 285 281
f 248 276 286
f 248 286 285
f 249 284 287
f 249 287 288
f 249 288 250
f 253 289 256
f 253 254 289
f 254 255 290
f 254 290 289
f 255 291 290
f 255 257 291
f 256 292 259
f 256 289 292
f 257 293 291
f 257 258 293
f 258 294 293
f 258 262 295
f 258 295 294
f 259 292 296
f 259 296 260
f 260 296 297
f 260 297 261
f 261 297 298
f 261 298 263
f 263 298 299
f 263 299 300
f 263 300 264
f 264 300 265
f 265 300 301
f 265 301 302
f 265 302 303
f 265 303 266
f 266 303 267
f 267 303 304
f 267 304 305
f 267 305 268
f 268 305 269
f 269 305 270
f 270 305 271
f 271 306 307
f 271 307 272
f 271 305 304
f 271 304 303
f 271 303 306
f 272 307 273
f 273 308 309
f 273 309 310
f 273 310 274
f 273 307 311
f 273 311 312
f 273 312 313
f 273 313 314
f 273 314 315
f 273 315 316
f 273 316 308
f 274 310 317
f 274 317 275
f 275 317 277
f 276 277 286
f 277 318 286
f 277 317 318
f 278 319 279
f 278 280 320
f 278 320 319
f 279 321 322
f 279 322 282
f 279 319 321
f 280 281 320
f 281 323 320
f 281 285 324
f 281 324 323
f 282 322 283
f 283 325 326
f 283 326 284
f 283 322 325
f 284 326 287
f 285 286 324
f 286 318 327
f 286 327 324
f 287 326 328
f 289 329 330
f 289 330 292
f 289 290 329
f 290 291 331
f 290 331 329
f 291 332 331
f 291 293 332
f 292 330 296
f 293 333 332
f 293 294 333
f 294 295 334
f 294 334 335
f 294 335 333
f 296 336 337
f 296 337 297
f 296 330 336
f 297 337 298
f 298 337 338
f 298 338 299
f 299 339 340
f 299 340 300
f 299 338 339
f 300 340 301
f 301 340 341
f 301 341 342
f 301 342 302
f 302 342 306
f 302 306 303
f 306 311 307
f 306 342 343
f 306 343 344
f 306 344 345
f 306 345 311
f 308 316 346
f 308 346 309
f 309 346 347
f 309 347 310
f 310 347 317
f 311 345 313
f 311 313 312
f 313 345 348
f 313 348 349
f 313 349 350
f 313 350 351
f 313 351 314
f 314 351 352
f 314 352 315
f 315 352 353
f 315 353 354
f 315 354 316
f 316 354 353
f 316 353 355
f 316 355 356
f 316 356 346
f 317 347 318
f 318 357 327
f 318 347 357
f 319 358 321
f 319 320 358
f 320 323 359
f 320 359 360
f 320 360 358
f 321 358 361
f 321 361 322
f 322 361 362
f 322 362 363
f 322 363 325
f 323 324 364
f 323 364 359
f 324 327 365
f 324 365 364
f 325 363 366
f 325 366 326
f 326 366 367
f 326 367 328
f 327 357 365
f 329 331 368
f 329 368 369
f 329 369 330
f 330 369 370
f 330 370 336
f 331 371 368
f 331 332 372
f 331 372 371
f 332 333 373
f 332 373 372
f 333 335 374
f 333 374 373
f 334 375 335
f 335 375 374
f 336 370 376
f 336 376 337
f 337 376 338
f 338 376 377
f 338 377 339
f 339 377 378
f 339 378 379
f 339 379 340
f 340 379 341
f 341 379 380
f 341 380 381
f 341 381 343
f 341 343 342
f 343 381 344
f 344 381 348
f 344 348 345
f 346 356 357
f 346 357 347
f 348 381 349
f 349 382 383
f 349 383 384
f 349 384 350
f 349 381 382
f 350 384 385
f 350 385 351
f 351 385 386
f 351 386 352
f 352 386 387
f 352 387 353
f 353 387 388
f 353 388 355
f 355 388 356
f 356 388 365
f 356 365 357
f 358 389 390
f 358 390 361
f 358 360 389
f 359 364 391
f 359 391 392
f 359 392 360
f 360 393 389
f 360 392 393
f 361 390 394
f 361 394 362
f 362 394 363
f 363 395 366
f 363 394 395
f 364 365 388
f 364 388 391
f 366 396 397
f 366 397 367
f 366 395 398
f 366 398 396
f 367 397 399
f 368 400 369
f 368 371 401
f 368 401 400
f 369 400 402
f 369 402 403
f 369 403 370
f 370 403 404
f 370 404 376
f 371 372 405
f 371 405 401
f 372 373 406
f 372 406 405
f 373 374 406
f 374 375 407
f 374 407 408
f 374 408 409
f 374 409 406
f 376 404 377
f 377 410 383
f 377 383 378
f 377 404 410
f 378 383 382
f 378 382 379
f 379 382 380
f 380 382 381
f 383 410 384
f 384 410 411
f 384 411 412
f 384 412 385
f 385 412 413
f 385 413 386
f 386 413 414
f 386 414 387
f 387 414 391
f 387 391 388
f 389 415 416
f 389 416 390
f 389 393 415
f 390 416 417
f 390 417 394
f 391 414 418
f 391 418 392
f 392 418 393
f 393 418 419
f 393 419 415
f 394 417 395
f 395 420 398
f 395 417 420
f 396 421 422
f 396 422 423
f 396 423 397
f 396 398 424
f 396 424 421
f 397 423 399
f 398 420 424
f 400 401 425
f 400 425 426
f 400 426 402
f 401 405 425
f 402 426 427
f 402 427 428
f 402 428 403
f 403 428 404
f 404 428 429
f 404 429 411
f 404 411 410
f 405 406 430
f 405 430 425
f 406 409 431
f 406 431 430
f 408 432 409
f 409 432 433
f 409 433 434
f 409 434 435
f 409 435 431
f 411 429 412
f 412 429 436
f 412 436 437
f 412 437 413
f 413 437 414
f 414 437 418
f 415 438 416
f 415 419 438
f 416 438 439
f 416 439 440
f 416 440 417
f 417 440 441
f 417 441 420
f 418 437 442
f 418 442 419
f 419 442 438
f 420 441 424
f 421 424 443
f 421 443 444
f 421 444 422
f 424 441 443
f 425 445 426
f 425 430 445
f 426 445 446
f 426 446 447
f 426 447 427
f 427 447 428
f 428 447 448
f 428 448 429
f 429 448 436
f 430 431 449
f 430 449 445
f 431 450 449
f 431 435 450
f 434 451 435
f 435 452 450
f 435 451 452
f 436 448 437
f 437 448 442
f 438 447 446
f 438 446 439
f 438 442 447
f 439 446 440
f 440 446 445
f 440 445 441
f 441 449 450
f 441 450 443
f 441 445 449
f 442 448 447
f 443 450 452
f 443 452 453
f 443 453 444
f 451 453 452

